<?xml version="1.0" encoding="UTF-8"?>
<!--Generator: Apple Native CoreSVG 123-->
<!DOCTYPE svg
PUBLIC "-//W3C//DTD SVG 1.1//EN"
       "http://www.w3.org/Graphics/SVG/1.1/DTD/svg11.dtd">
<svg version="1.1" xmlns="http://www.w3.org/2000/svg" xmlns:xlink="http://www.w3.org/1999/xlink" width="3300" height="2200">
 <!--glyph: "uni1004EC.medium", point size: 100.000000, font version: "Version 15.0d4e20", template writer version: "2"-->
 <g id="Notes">
  <rect height="2200" id="artboard" style="fill:white;opacity:1" width="3300" x="0" y="0"/>
  <line id="" style="fill:none;stroke:black;opacity:1;stroke-width:0.5;" x1="263" x2="3036" y1="292" y2="292"/>
  <text style="stroke:none;fill:black;font-family:-apple-system,&quot;SF Pro Display&quot;,&quot;SF Pro Text&quot;,Helvetica,sans-serif;font-weight:bold;" transform="matrix(1 0 0 1 263 322)">Weight/Scale Variations</text>
  <text style="stroke:none;fill:black;font-family:-apple-system,&quot;SF Pro Display&quot;,&quot;SF Pro Text&quot;,Helvetica,sans-serif;text-anchor:middle;" transform="matrix(1 0 0 1 559.711 322)">Ultralight</text>
  <text style="stroke:none;fill:black;font-family:-apple-system,&quot;SF Pro Display&quot;,&quot;SF Pro Text&quot;,Helvetica,sans-serif;text-anchor:middle;" transform="matrix(1 0 0 1 856.422 322)">Thin</text>
  <text style="stroke:none;fill:black;font-family:-apple-system,&quot;SF Pro Display&quot;,&quot;SF Pro Text&quot;,Helvetica,sans-serif;text-anchor:middle;" transform="matrix(1 0 0 1 1153.13 322)">Light</text>
  <text style="stroke:none;fill:black;font-family:-apple-system,&quot;SF Pro Display&quot;,&quot;SF Pro Text&quot;,Helvetica,sans-serif;text-anchor:middle;" transform="matrix(1 0 0 1 1449.84 322)">Regular</text>
  <text style="stroke:none;fill:black;font-family:-apple-system,&quot;SF Pro Display&quot;,&quot;SF Pro Text&quot;,Helvetica,sans-serif;text-anchor:middle;" transform="matrix(1 0 0 1 1746.56 322)">Medium</text>
  <text style="stroke:none;fill:black;font-family:-apple-system,&quot;SF Pro Display&quot;,&quot;SF Pro Text&quot;,Helvetica,sans-serif;text-anchor:middle;" transform="matrix(1 0 0 1 2043.27 322)">Semibold</text>
  <text style="stroke:none;fill:black;font-family:-apple-system,&quot;SF Pro Display&quot;,&quot;SF Pro Text&quot;,Helvetica,sans-serif;text-anchor:middle;" transform="matrix(1 0 0 1 2339.98 322)">Bold</text>
  <text style="stroke:none;fill:black;font-family:-apple-system,&quot;SF Pro Display&quot;,&quot;SF Pro Text&quot;,Helvetica,sans-serif;text-anchor:middle;" transform="matrix(1 0 0 1 2636.69 322)">Heavy</text>
  <text style="stroke:none;fill:black;font-family:-apple-system,&quot;SF Pro Display&quot;,&quot;SF Pro Text&quot;,Helvetica,sans-serif;text-anchor:middle;" transform="matrix(1 0 0 1 2933.4 322)">Black</text>
  <line id="" style="fill:none;stroke:black;opacity:1;stroke-width:0.5;" x1="263" x2="3036" y1="1903" y2="1903"/>
  <g id="" transform="matrix(1 0 0 1 263 1933)">
   <path d="M 9.24805 0.830078 C 13.5547 0.830078 17.1387 -2.74414 17.1387 -7.05078 C 17.1387 -11.3574 13.5449 -14.9316 9.23828 -14.9316 C 4.94141 -14.9316 1.36719 -11.3574 1.36719 -7.05078 C 1.36719 -2.74414 4.95117 0.830078 9.24805 0.830078 Z M 9.24805 -0.654297 C 5.70312 -0.654297 2.87109 -3.49609 2.87109 -7.05078 C 2.87109 -10.6055 5.69336 -13.4473 9.23828 -13.4473 C 12.793 -13.4473 15.6348 -10.6055 15.6445 -7.05078 C 15.6543 -3.49609 12.8027 -0.654297 9.24805 -0.654297 Z M 9.22852 -3.42773 C 9.69727 -3.42773 9.9707 -3.74023 9.9707 -4.25781 L 9.9707 -6.31836 L 12.1973 -6.31836 C 12.6953 -6.31836 13.0371 -6.57227 13.0371 -7.04102 C 13.0371 -7.51953 12.7148 -7.7832 12.1973 -7.7832 L 9.9707 -7.7832 L 9.9707 -10.0098 C 9.9707 -10.5273 9.69727 -10.8496 9.22852 -10.8496 C 8.75977 -10.8496 8.50586 -10.5078 8.50586 -10.0098 L 8.50586 -7.7832 L 6.29883 -7.7832 C 5.78125 -7.7832 5.44922 -7.51953 5.44922 -7.04102 C 5.44922 -6.57227 5.80078 -6.31836 6.29883 -6.31836 L 8.50586 -6.31836 L 8.50586 -4.25781 C 8.50586 -3.75977 8.75977 -3.42773 9.22852 -3.42773 Z"/>
  </g>
  <g id="" transform="matrix(1 0 0 1 281.506 1933)">
   <path d="M 11.709 2.91016 C 17.1484 2.91016 21.6699 -1.60156 21.6699 -7.05078 C 21.6699 -12.4902 17.1387 -17.0117 11.6992 -17.0117 C 6.25 -17.0117 1.74805 -12.4902 1.74805 -7.05078 C 1.74805 -1.60156 6.25977 2.91016 11.709 2.91016 Z M 11.709 1.25 C 7.09961 1.25 3.41797 -2.44141 3.41797 -7.05078 C 3.41797 -11.6504 7.08984 -15.3516 11.6992 -15.3516 C 16.2988 -15.3516 20 -11.6504 20.0098 -7.05078 C 20.0195 -2.44141 16.3086 1.25 11.709 1.25 Z M 11.6797 -2.41211 C 12.207 -2.41211 12.5195 -2.77344 12.5195 -3.33984 L 12.5195 -6.23047 L 15.5762 -6.23047 C 16.123 -6.23047 16.5039 -6.51367 16.5039 -7.03125 C 16.5039 -7.55859 16.1426 -7.86133 15.5762 -7.86133 L 12.5195 -7.86133 L 12.5195 -10.9277 C 12.5195 -11.5039 12.207 -11.8555 11.6797 -11.8555 C 11.1621 -11.8555 10.8789 -11.4844 10.8789 -10.9277 L 10.8789 -7.86133 L 7.83203 -7.86133 C 7.25586 -7.86133 6.89453 -7.55859 6.89453 -7.03125 C 6.89453 -6.51367 7.28516 -6.23047 7.83203 -6.23047 L 10.8789 -6.23047 L 10.8789 -3.33984 C 10.8789 -2.79297 11.1621 -2.41211 11.6797 -2.41211 Z"/>
  </g>
  <g id="" transform="matrix(1 0 0 1 304.914 1933)">
   <path d="M 14.9707 5.67383 C 21.9336 5.67383 27.6855 -0.078125 27.6855 -7.04102 C 27.6855 -14.0039 21.9238 -19.7559 14.9609 -19.7559 C 7.99805 -19.7559 2.25586 -14.0039 2.25586 -7.04102 C 2.25586 -0.078125 8.00781 5.67383 14.9707 5.67383 Z M 14.9707 3.85742 C 8.92578 3.85742 4.08203 -1.00586 4.08203 -7.04102 C 4.08203 -13.0762 8.91602 -17.9395 14.9609 -17.9395 C 20.9961 -17.9395 25.8594 -13.0762 25.8691 -7.04102 C 25.8789 -1.00586 21.0059 3.85742 14.9707 3.85742 Z M 14.9414 -1.06445 C 15.5176 -1.06445 15.8594 -1.45508 15.8594 -2.06055 L 15.8594 -6.13281 L 20.0977 -6.13281 C 20.6934 -6.13281 21.1133 -6.46484 21.1133 -7.02148 C 21.1133 -7.59766 20.7227 -7.93945 20.0977 -7.93945 L 15.8594 -7.93945 L 15.8594 -12.1875 C 15.8594 -12.8027 15.5176 -13.1934 14.9414 -13.1934 C 14.3848 -13.1934 14.0625 -12.7832 14.0625 -12.1875 L 14.0625 -7.93945 L 9.82422 -7.93945 C 9.20898 -7.93945 8.80859 -7.59766 8.80859 -7.02148 C 8.80859 -6.46484 9.23828 -6.13281 9.82422 -6.13281 L 14.0625 -6.13281 L 14.0625 -2.06055 C 14.0625 -1.47461 14.3848 -1.06445 14.9414 -1.06445 Z"/>
  </g>
  <text style="stroke:none;fill:black;font-family:-apple-system,&quot;SF Pro Display&quot;,&quot;SF Pro Text&quot;,Helvetica,sans-serif;font-weight:bold;" transform="matrix(1 0 0 1 263 1953)">Design Variations</text>
  <text style="stroke:none;fill:black;font-family:-apple-system,&quot;SF Pro Display&quot;,&quot;SF Pro Text&quot;,Helvetica,sans-serif;" transform="matrix(1 0 0 1 263 1971)">Symbols are supported in up to nine weights and three scales.</text>
  <text style="stroke:none;fill:black;font-family:-apple-system,&quot;SF Pro Display&quot;,&quot;SF Pro Text&quot;,Helvetica,sans-serif;" transform="matrix(1 0 0 1 263 1989)">For optimal layout with text and other symbols, vertically align</text>
  <text style="stroke:none;fill:black;font-family:-apple-system,&quot;SF Pro Display&quot;,&quot;SF Pro Text&quot;,Helvetica,sans-serif;" transform="matrix(1 0 0 1 263 2007)">symbols with the adjacent text.</text>
  <rect height="14" id="" style="fill:#00AEEF;stroke:none;opacity:0.4;" width="3" x="776" y="1919"/>
  <g id="" transform="matrix(1 0 0 1 779 1933)">
   <path d="M 10.5273 0 L 12.373 0 L 7.17773 -14.0918 L 5.43945 -14.0918 L 0.244141 0 L 2.08984 0 L 3.50586 -4.0332 L 9.11133 -4.0332 Z M 6.2793 -11.9531 L 6.33789 -11.9531 L 8.59375 -5.52734 L 4.02344 -5.52734 Z"/>
  </g>
  <rect height="14" id="" style="fill:#00AEEF;stroke:none;opacity:0.4;" width="3" x="791.617" y="1919"/>
  <text style="stroke:none;fill:black;font-family:-apple-system,&quot;SF Pro Display&quot;,&quot;SF Pro Text&quot;,Helvetica,sans-serif;font-weight:bold;" transform="matrix(1 0 0 1 776 1953)">Side Bearings</text>
  <text style="stroke:none;fill:black;font-family:-apple-system,&quot;SF Pro Display&quot;,&quot;SF Pro Text&quot;,Helvetica,sans-serif;" transform="matrix(1 0 0 1 776 1971)">Horizontal padding on the left and right side of each symbol</text>
  <text style="stroke:none;fill:black;font-family:-apple-system,&quot;SF Pro Display&quot;,&quot;SF Pro Text&quot;,Helvetica,sans-serif;" transform="matrix(1 0 0 1 776 1989)">can be adjusted by modifying the width of the blue rectangles.</text>
  <text style="stroke:none;fill:black;font-family:-apple-system,&quot;SF Pro Display&quot;,&quot;SF Pro Text&quot;,Helvetica,sans-serif;" transform="matrix(1 0 0 1 776 2007)">Modifications are automatically applied proportionally to all</text>
  <text style="stroke:none;fill:black;font-family:-apple-system,&quot;SF Pro Display&quot;,&quot;SF Pro Text&quot;,Helvetica,sans-serif;" transform="matrix(1 0 0 1 776 2025)">scales and weights.</text>
  <g id="" transform="matrix(1 0 0 1 1289 1933)">
   <path d="M 2.96875 2.35352 L 3.80859 3.19336 C 4.84375 4.22852 6.12305 4.15039 7.19727 2.97852 L 16.1621 -6.82617 C 16.5527 -6.74805 16.9629 -6.8457 17.4902 -7.02148 C 18.1738 -7.25586 18.2715 -7.25586 18.3887 -7.13867 C 18.5352 -7.01172 18.4863 -6.89453 18.2422 -6.25 C 17.8809 -5.33203 17.8125 -4.79492 18.5547 -4.02344 L 19.4238 -3.13477 C 20.2734 -2.24609 21.3281 -2.26562 22.2168 -3.14453 L 25.0586 -5.97656 C 25.9473 -6.86523 25.957 -7.92969 25.0781 -8.7793 L 24.1797 -9.64844 C 23.4082 -10.4004 22.8711 -10.3516 21.9629 -9.98047 C 21.3184 -9.72656 21.2012 -9.6875 21.0645 -9.81445 C 20.9375 -9.93164 20.9473 -10.0391 21.1816 -10.7129 C 21.5332 -11.6895 21.5723 -12.2852 20.752 -13.0957 L 19.3359 -14.5117 C 15.1953 -18.6133 11.2305 -18.7402 7.65625 -15.4395 C 7.08008 -14.9023 6.99219 -14.1504 7.53906 -13.6133 L 7.79297 -13.3594 C 8.22266 -12.9297 8.86719 -12.8418 9.41406 -13.1152 C 11.0645 -13.9453 12.2559 -14.0234 13.457 -12.9785 L 13.0273 -11.416 C 12.8516 -10.8008 12.793 -10.3418 12.9199 -9.93164 L 3.18359 -1.04492 C 2.02148 0.0292969 1.93359 1.32812 2.96875 2.35352 Z M 8.96484 -14.4922 C 8.89648 -14.5703 8.86719 -14.6582 8.99414 -14.7559 C 11.709 -17.2852 15.0391 -16.8457 18.3496 -13.5254 L 19.6973 -12.168 C 20.0879 -11.7773 20.0977 -11.582 19.8828 -10.8691 C 19.6582 -10.127 19.502 -9.53125 20.1465 -8.88672 C 20.8105 -8.22266 21.2891 -8.41797 22.207 -8.63281 C 22.9004 -8.79883 23.0664 -8.79883 23.4473 -8.41797 L 24.0918 -7.77344 C 24.4043 -7.48047 24.4141 -7.32422 24.0723 -6.97266 L 21.2207 -4.13086 C 20.8887 -3.79883 20.7227 -3.79883 20.4297 -4.10156 L 19.7852 -4.75586 C 19.4141 -5.13672 19.4141 -5.30273 19.5801 -6.01562 C 19.7852 -6.88477 19.9805 -7.38281 19.3262 -8.04688 C 18.6719 -8.7207 18.0762 -8.57422 17.3438 -8.33008 C 16.5625 -8.06641 16.3281 -8.06641 15.8984 -8.49609 L 14.6094 -9.78516 C 14.1699 -10.2246 14.1309 -10.4395 14.2676 -10.9082 L 15.0293 -13.3984 C 13.3887 -15.2832 11.4941 -15.5566 9.20898 -14.4434 C 9.11133 -14.3945 9.04297 -14.4141 8.96484 -14.4922 Z M 3.96484 1.36719 C 3.52539 0.927734 3.54492 0.537109 4.14062 -0.00976562 L 13.7402 -8.81836 L 15 -7.55859 L 6.17188 2.02148 C 5.625 2.60742 5.24414 2.64648 4.79492 2.19727 Z"/>
  </g>
  <text style="stroke:none;fill:black;font-family:-apple-system,&quot;SF Pro Display&quot;,&quot;SF Pro Text&quot;,Helvetica,sans-serif;font-weight:bold;" transform="matrix(1 0 0 1 1289 1953)">Exporting</text>
  <text style="stroke:none;fill:black;font-family:-apple-system,&quot;SF Pro Display&quot;,&quot;SF Pro Text&quot;,Helvetica,sans-serif;" transform="matrix(1 0 0 1 1289 1971)">Symbols should be outlined when exporting to ensure the</text>
  <text style="stroke:none;fill:black;font-family:-apple-system,&quot;SF Pro Display&quot;,&quot;SF Pro Text&quot;,Helvetica,sans-serif;" transform="matrix(1 0 0 1 1289 1989)">design is preserved when submitting to Xcode.</text>
  <text id="template-version" style="stroke:none;fill:black;font-family:-apple-system,&quot;SF Pro Display&quot;,&quot;SF Pro Text&quot;,Helvetica,sans-serif;text-anchor:end;" transform="matrix(1 0 0 1 3036 1933)">Template v.0.1</text>
  <text style="stroke:none;fill:black;font-family:-apple-system,&quot;SF Pro Display&quot;,&quot;SF Pro Text&quot;,Helvetica,sans-serif;text-anchor:end;" transform="matrix(1 0 0 1 3036 1951)">Generated from 01.circle</text>
  <text style="stroke:none;fill:black;font-family:-apple-system,&quot;SF Pro Display&quot;,&quot;SF Pro Text&quot;,Helvetica,sans-serif;text-anchor:end;" transform="matrix(1 0 0 1 3036 1969)">Typeset at 100 points</text>
  <text style="stroke:none;fill:black;font-family:-apple-system,&quot;SF Pro Display&quot;,&quot;SF Pro Text&quot;,Helvetica,sans-serif;" transform="matrix(1 0 0 1 263 726)">Small</text>
  <text style="stroke:none;fill:black;font-family:-apple-system,&quot;SF Pro Display&quot;,&quot;SF Pro Text&quot;,Helvetica,sans-serif;" transform="matrix(1 0 0 1 263 1156)">Medium</text>
  <text style="stroke:none;fill:black;font-family:-apple-system,&quot;SF Pro Display&quot;,&quot;SF Pro Text&quot;,Helvetica,sans-serif;" transform="matrix(1 0 0 1 263 1586)">Large</text>
 </g>
 <g id="Guides">
  <g id="H-reference" style="fill:#27AAE1;stroke:none;" transform="matrix(1 0 0 1 339 696)">
   <path d="M 54.9316 0 L 57.666 0 L 30.5664 -70.459 L 28.0762 -70.459 L 0.976562 0 L 3.66211 0 L 12.9395 -24.4629 L 45.7031 -24.4629 Z M 29.1992 -67.0898 L 29.4434 -67.0898 L 44.8242 -26.709 L 13.8184 -26.709 Z"/>
  </g>
  <line id="Baseline-S" style="fill:none;stroke:#27AAE1;opacity:1;stroke-width:0.577;" x1="263" x2="3036" y1="696" y2="696"/>
  <line id="Capline-S" style="fill:none;stroke:#27AAE1;opacity:1;stroke-width:0.577;" x1="263" x2="3036" y1="625.541" y2="625.541"/>
  <g id="H-reference" style="fill:#27AAE1;stroke:none;" transform="matrix(1 0 0 1 339 1126)">
   <path d="M 54.9316 0 L 57.666 0 L 30.5664 -70.459 L 28.0762 -70.459 L 0.976562 0 L 3.66211 0 L 12.9395 -24.4629 L 45.7031 -24.4629 Z M 29.1992 -67.0898 L 29.4434 -67.0898 L 44.8242 -26.709 L 13.8184 -26.709 Z"/>
  </g>
  <line id="Baseline-M" style="fill:none;stroke:#27AAE1;opacity:1;stroke-width:0.577;" x1="263" x2="3036" y1="1126" y2="1126"/>
  <line id="Capline-M" style="fill:none;stroke:#27AAE1;opacity:1;stroke-width:0.577;" x1="263" x2="3036" y1="1055.54" y2="1055.54"/>
  <g id="H-reference" style="fill:#27AAE1;stroke:none;" transform="matrix(1 0 0 1 339 1556)">
   <path d="M 54.9316 0 L 57.666 0 L 30.5664 -70.459 L 28.0762 -70.459 L 0.976562 0 L 3.66211 0 L 12.9395 -24.4629 L 45.7031 -24.4629 Z M 29.1992 -67.0898 L 29.4434 -67.0898 L 44.8242 -26.709 L 13.8184 -26.709 Z"/>
  </g>
  <line id="Baseline-L" style="fill:none;stroke:#27AAE1;opacity:1;stroke-width:0.577;" x1="263" x2="3036" y1="1556" y2="1556"/>
  <line id="Capline-L" style="fill:none;stroke:#27AAE1;opacity:1;stroke-width:0.577;" x1="263" x2="3036" y1="1485.54" y2="1485.54"/>
  <rect height="119.336" id="left-margin" style="fill:#00AEEF;stroke:none;opacity:0.4;" width="8.74023" x="1391.32" y="1030.79"/>
  <rect height="119.336" id="right-margin" style="fill:#00AEEF;stroke:none;opacity:0.4;" width="8.69141" x="1499.67" y="1030.79"/>
 </g>
 <g id="Symbols">
  <g id="Ultralight-S" transform="matrix(1 0 0 1 515.644 696)">
   <path d="M 44.043 2.05078 C 64.502 2.05078 81.2988 -14.6973 81.2988 -35.1562 C 81.2988 -55.6152 64.502 -72.3633 44.043 -72.3633 C 23.584 -72.3633 6.83594 -55.6152 6.83594 -35.1562 C 6.83594 -14.6973 23.584 2.05078 44.043 2.05078 Z M 44.043 -0.146484 C 24.7559 -0.146484 9.08203 -15.8691 9.08203 -35.1562 C 9.08203 -54.4434 24.7559 -70.166 44.043 -70.166 C 63.3789 -70.166 79.0527 -54.4434 79.0527 -35.1562 C 79.0527 -15.8691 63.3789 -0.146484 44.043 -0.146484 Z M 34.8145 -17.8223 C 41.7969 -17.8223 46.582 -24.8535 46.582 -35.1562 C 46.582 -45.459 41.7969 -52.4902 34.8145 -52.4902 C 27.7832 -52.4902 22.998 -45.459 22.998 -35.1562 C 22.998 -24.8535 27.7832 -17.8223 34.8145 -17.8223 Z M 62.0117 -18.0664 C 62.7441 -18.0664 63.1348 -18.5547 63.1348 -19.1895 L 63.1348 -51.2207 C 63.1348 -52.002 62.6465 -52.4902 61.8652 -52.4902 C 61.2793 -52.4902 60.8887 -52.3438 60.2051 -51.8555 L 52.0508 -46.582 C 51.6602 -46.3379 51.4648 -45.9961 51.4648 -45.6055 C 51.4648 -45.0195 51.9531 -44.5312 52.5391 -44.5312 C 52.7344 -44.5312 52.9297 -44.5801 53.125 -44.7266 L 60.7422 -49.6094 L 60.9375 -49.6094 L 60.9375 -19.1895 C 60.9375 -18.5547 61.377 -18.0664 62.0117 -18.0664 Z M 34.8145 -19.9707 C 29.1504 -19.9707 25.2441 -26.123 25.2441 -35.1562 C 25.2441 -44.2383 29.1504 -50.3906 34.8145 -50.3906 C 40.4785 -50.3906 44.3359 -44.2383 44.3359 -35.1562 C 44.3359 -26.123 40.4785 -19.9707 34.8145 -19.9707 Z"/>
  </g>
  <g id="Thin-S" transform="matrix(1 0 0 1 811.867 696)">
   <path d="M 44.5801 2.53906 C 65.2832 2.53906 82.2754 -14.4531 82.2754 -35.2051 C 82.2754 -55.9082 65.2344 -72.9004 44.5312 -72.9004 C 23.8281 -72.9004 6.83594 -55.9082 6.83594 -35.2051 C 6.83594 -14.4531 23.877 2.53906 44.5801 2.53906 Z M 44.5801 -0.878906 C 25.5859 -0.878906 10.2539 -16.2109 10.2539 -35.2051 C 10.2539 -54.1504 25.5859 -69.4824 44.5312 -69.4824 C 63.5254 -69.4824 78.8574 -54.1504 78.8574 -35.2051 C 78.8574 -16.2109 63.5254 -0.878906 44.5801 -0.878906 Z M 35.1562 -17.8223 C 42.1875 -17.8223 46.9727 -24.8047 46.9727 -35.2051 C 46.9727 -45.6055 42.1875 -52.5879 35.1562 -52.5879 C 28.0762 -52.5879 23.291 -45.6055 23.291 -35.2051 C 23.291 -24.8047 28.0762 -17.8223 35.1562 -17.8223 Z M 62.3047 -18.1152 C 63.2812 -18.1152 63.8184 -18.7988 63.8184 -19.7266 L 63.8184 -50.6348 C 63.8184 -51.7578 63.1836 -52.4414 62.1094 -52.4414 C 61.377 -52.4414 60.8398 -52.2461 59.9121 -51.6113 L 52.3438 -46.6797 C 51.8066 -46.2891 51.5625 -45.8496 51.5625 -45.2637 C 51.5625 -44.4824 52.1973 -43.8477 52.9785 -43.8477 C 53.2715 -43.8477 53.5156 -43.8965 53.9062 -44.1895 L 60.5957 -48.6328 L 60.8398 -48.6328 L 60.8398 -19.7266 C 60.8398 -18.7988 61.4258 -18.1152 62.3047 -18.1152 Z M 35.1562 -20.7031 C 29.8828 -20.7031 26.3672 -26.4648 26.3672 -35.2051 C 26.3672 -43.8965 29.8828 -49.707 35.1562 -49.707 C 40.3809 -49.707 43.8965 -43.8965 43.8965 -35.2051 C 43.8965 -26.4648 40.3809 -20.7031 35.1562 -20.7031 Z"/>
  </g>
  <g id="Light-S" transform="matrix(1 0 0 1 1107.6 696)">
   <path d="M 45.5078 3.4668 C 66.6992 3.4668 84.2285 -14.0625 84.2285 -35.2051 C 84.2285 -56.3965 66.6504 -73.9258 45.5078 -73.9258 C 24.3164 -73.9258 6.83594 -56.3965 6.83594 -35.2051 C 6.83594 -14.0625 24.3652 3.4668 45.5078 3.4668 Z M 45.5078 -2.24609 C 27.2461 -2.24609 12.5977 -16.9434 12.5977 -35.2051 C 12.5977 -53.5156 27.1973 -68.2129 45.5078 -68.2129 C 63.7695 -68.2129 78.4668 -53.5156 78.5156 -35.2051 C 78.5156 -16.9434 63.8184 -2.24609 45.5078 -2.24609 Z M 35.791 -17.8223 C 42.9688 -17.8223 47.7051 -24.7559 47.7051 -35.2051 C 47.7051 -45.752 42.9688 -52.7344 35.791 -52.7344 C 28.6133 -52.7344 23.877 -45.752 23.877 -35.2051 C 23.877 -24.7559 28.6133 -17.8223 35.791 -17.8223 Z M 62.8906 -18.2129 C 64.3555 -18.2129 65.1855 -19.2383 65.1855 -20.6543 L 65.1855 -49.5117 C 65.1855 -51.3672 64.2578 -52.4414 62.5977 -52.4414 C 61.5234 -52.4414 60.7422 -52.0508 59.4238 -51.123 L 52.8809 -46.7773 C 52.0996 -46.2402 51.709 -45.6055 51.709 -44.6777 C 51.709 -43.457 52.6855 -42.4805 53.7598 -42.4805 C 54.2969 -42.4805 54.6875 -42.5293 55.4688 -43.1641 L 60.4492 -46.6797 L 60.6445 -46.6797 L 60.6445 -20.6543 C 60.6445 -19.2871 61.4258 -18.2129 62.8906 -18.2129 Z M 35.791 -22.168 C 31.3965 -22.168 28.5645 -27.1973 28.5645 -35.2051 C 28.5645 -43.3594 31.3477 -48.3887 35.791 -48.3887 C 40.2344 -48.3887 43.0176 -43.3594 43.0176 -35.2051 C 43.0176 -27.1973 40.1855 -22.168 35.791 -22.168 Z"/>
  </g>
  <g id="Regular-S" transform="matrix(1 0 0 1 1403.58 696)">
   <path d="M 46.2402 4.15039 C 67.7734 4.15039 85.6934 -13.7207 85.6934 -35.2539 C 85.6934 -56.7871 67.7246 -74.6582 46.1914 -74.6582 C 24.707 -74.6582 6.83594 -56.7871 6.83594 -35.2539 C 6.83594 -13.7207 24.7559 4.15039 46.2402 4.15039 Z M 46.2402 -3.27148 C 28.5156 -3.27148 14.3555 -17.4805 14.3555 -35.2539 C 14.3555 -53.0273 28.4668 -67.2363 46.1914 -67.2363 C 63.9648 -67.2363 78.1738 -53.0273 78.2227 -35.2539 C 78.2715 -17.4805 64.0137 -3.27148 46.2402 -3.27148 Z M 36.2793 -17.8223 C 43.5547 -17.8223 48.291 -24.707 48.291 -35.2539 C 48.291 -45.8984 43.5547 -52.832 36.2793 -52.832 C 29.0527 -52.832 24.2676 -45.8984 24.2676 -35.2539 C 24.2676 -24.707 29.0527 -17.8223 36.2793 -17.8223 Z M 63.2812 -18.2617 C 65.1855 -18.2617 66.1621 -19.5801 66.1621 -21.3867 L 66.1621 -48.6328 C 66.1621 -51.0254 65.0391 -52.3926 62.9883 -52.3926 C 61.6211 -52.3926 60.6445 -51.9043 58.9844 -50.7812 L 53.3203 -46.875 C 52.3438 -46.1914 51.8066 -45.4102 51.8066 -44.2383 C 51.8066 -42.6758 53.0762 -41.5039 54.3945 -41.5039 C 55.0781 -41.5039 55.5664 -41.5527 56.6406 -42.3828 L 60.3027 -45.166 L 60.498 -45.166 L 60.498 -21.3867 C 60.498 -19.6289 61.4746 -18.2617 63.2812 -18.2617 Z M 36.2793 -23.2422 C 32.5195 -23.2422 30.2246 -27.7344 30.2246 -35.2539 C 30.2246 -42.9199 32.4707 -47.4121 36.2793 -47.4121 C 40.0879 -47.4121 42.334 -42.9199 42.334 -35.2539 C 42.334 -27.7344 40.0391 -23.2422 36.2793 -23.2422 Z"/>
  </g>
  <g id="Medium-S" transform="matrix(1 0 0 1 1699.7 696)">
   <path d="M 46.8262 4.78516 C 68.75 4.78516 86.8652 -13.3301 86.8652 -35.2539 C 86.8652 -57.1289 68.7012 -75.2441 46.8262 -75.2441 C 24.9023 -75.2441 6.83594 -57.1289 6.83594 -35.2539 C 6.83594 -13.3301 24.9512 4.78516 46.8262 4.78516 Z M 46.8262 -4.19922 C 29.6387 -4.19922 15.8691 -18.0176 15.8691 -35.2539 C 15.8691 -52.4414 29.5898 -66.2598 46.8262 -66.2598 C 64.0137 -66.2598 77.832 -52.4414 77.8809 -35.2539 C 77.8809 -18.0176 64.0625 -4.19922 46.8262 -4.19922 Z M 36.7676 -18.0176 C 43.7988 -18.0176 48.5352 -24.4141 48.5352 -35.2051 C 48.5352 -46.1426 43.7988 -52.5391 36.7676 -52.5391 C 29.6875 -52.5391 25.0488 -46.1426 25.0488 -35.2051 C 25.0488 -24.4141 29.6875 -18.0176 36.7676 -18.0176 Z M 63.623 -18.3105 C 65.7715 -18.3105 66.8945 -19.7754 66.8945 -22.0215 L 66.8945 -47.998 C 66.8945 -50.7324 65.5762 -52.2949 63.0859 -52.2949 C 61.5723 -52.2949 60.498 -51.8555 58.6914 -50.4395 L 53.4668 -46.582 C 52.3438 -45.7031 51.7578 -44.8242 51.7578 -43.5059 C 51.7578 -41.8945 53.0762 -40.5762 54.5898 -40.5762 C 55.4688 -40.5762 56.0547 -40.7715 57.0801 -41.6992 L 60.2051 -44.3848 L 60.4492 -44.3848 L 60.4492 -22.0215 C 60.4492 -19.8242 61.5234 -18.3105 63.623 -18.3105 Z M 36.7676 -24.2188 C 33.5938 -24.2188 31.6406 -28.0273 31.6406 -35.2051 C 31.6406 -42.5293 33.5449 -46.3379 36.7676 -46.3379 C 40.0391 -46.3379 41.9434 -42.5293 41.9434 -35.2051 C 41.9434 -28.0273 39.9902 -24.2188 36.7676 -24.2188 Z"/>
  </g>
  <g id="Semibold-S" transform="matrix(1 0 0 1 1995.98 696)">
   <path d="M 47.3145 5.22461 C 69.4824 5.22461 87.7441 -13.0371 87.7441 -35.2539 C 87.7441 -57.4219 69.4336 -75.6836 47.2656 -75.6836 C 25.0977 -75.6836 6.83594 -57.4219 6.83594 -35.2539 C 6.83594 -13.0371 25.0977 5.22461 47.3145 5.22461 Z M 47.3145 -4.93164 C 30.4688 -4.93164 17.041 -18.4082 17.041 -35.2539 C 17.041 -52.0508 30.4688 -65.5273 47.2656 -65.5273 C 64.0625 -65.5273 77.5879 -52.0508 77.5879 -35.2539 C 77.6367 -18.4082 64.1113 -4.93164 47.3145 -4.93164 Z M 37.1094 -18.2129 C 44.043 -18.2129 48.7305 -24.1699 48.7305 -35.2051 C 48.7305 -46.3379 44.043 -52.2949 37.1094 -52.2949 C 30.1758 -52.2949 25.5859 -46.3379 25.5859 -35.2051 C 25.5859 -24.1699 30.1758 -18.2129 37.1094 -18.2129 Z M 63.8672 -18.3105 C 66.2109 -18.3105 67.4316 -19.9707 67.4316 -22.5586 L 67.4316 -47.5098 C 67.4316 -50.4883 65.9668 -52.1973 63.1348 -52.1973 C 61.5723 -52.1973 60.3516 -51.7578 58.4473 -50.1465 L 53.6133 -46.3867 C 52.3438 -45.3125 51.7578 -44.3848 51.7578 -42.9688 C 51.7578 -41.3086 53.125 -39.9414 54.7363 -39.9414 C 55.7617 -39.9414 56.4453 -40.1855 57.4219 -41.2109 L 60.1562 -43.75 L 60.3516 -43.75 L 60.3516 -22.5586 C 60.3516 -19.9707 61.5234 -18.3105 63.8672 -18.3105 Z M 37.1582 -24.9512 C 34.4238 -24.9512 32.7148 -28.2227 32.7148 -35.2051 C 32.7148 -42.2852 34.375 -45.5566 37.1582 -45.5566 C 39.9414 -45.5566 41.6016 -42.2852 41.6016 -35.2051 C 41.6016 -28.2227 39.8926 -24.9512 37.1582 -24.9512 Z"/>
  </g>
  <g id="Bold-S" transform="matrix(1 0 0 1 2292.1 696)">
   <path d="M 47.9004 5.81055 C 70.4102 5.81055 88.916 -12.6465 88.916 -35.2051 C 88.916 -57.7637 70.4102 -76.2695 47.8516 -76.2695 C 25.293 -76.2695 6.83594 -57.7637 6.83594 -35.2051 C 6.83594 -12.6465 25.3418 5.81055 47.9004 5.81055 Z M 47.9004 -5.85938 C 31.6406 -5.85938 18.5547 -18.9453 18.5547 -35.2051 C 18.5547 -51.4648 31.5918 -64.5508 47.8516 -64.5508 C 64.1113 -64.5508 77.1973 -51.4648 77.2461 -35.2051 C 77.2461 -18.9453 64.1602 -5.85938 47.9004 -5.85938 Z M 64.1602 -18.3594 C 66.7969 -18.3594 68.1641 -20.2148 68.1641 -23.1934 L 68.1641 -46.875 C 68.1641 -50.1465 66.5039 -52.0508 63.2324 -52.0508 C 61.5234 -52.0508 60.2051 -51.6602 58.1055 -49.8047 L 53.8086 -46.1426 C 52.3926 -44.8242 51.709 -43.7988 51.709 -42.2852 C 51.709 -40.5273 53.125 -39.0137 54.9316 -39.0137 C 56.1035 -39.0137 56.9336 -39.4043 57.9102 -40.5762 L 60.0586 -42.9199 L 60.2539 -42.9199 L 60.2539 -23.1934 C 60.2539 -20.2148 61.5723 -18.3594 64.1602 -18.3594 Z M 37.5488 -18.4082 C 44.2871 -18.4082 48.9746 -23.8281 48.9746 -35.2051 C 48.9746 -46.582 44.2871 -52.002 37.5488 -52.002 C 30.8105 -52.002 26.3672 -46.582 26.3672 -35.2051 C 26.3672 -23.8281 30.8105 -18.4082 37.5488 -18.4082 Z M 37.6953 -25.8789 C 35.498 -25.8789 34.1309 -28.5156 34.1309 -35.2051 C 34.1309 -41.9434 35.498 -44.5312 37.6953 -44.5312 C 39.8438 -44.5312 41.2109 -41.9434 41.2109 -35.2051 C 41.2109 -28.5156 39.8438 -25.8789 37.6953 -25.8789 Z"/>
  </g>
  <g id="Heavy-S" transform="matrix(1 0 0 1 2587.96 696)">
   <path d="M 48.7305 6.68945 C 71.8262 6.68945 90.625 -12.1094 90.625 -35.2051 C 90.625 -58.3008 71.8262 -77.0996 48.7305 -77.0996 C 25.6348 -77.0996 6.83594 -58.3008 6.83594 -35.2051 C 6.83594 -12.1094 25.6348 6.68945 48.7305 6.68945 Z M 48.7305 -7.22656 C 33.3008 -7.22656 20.752 -19.7266 20.752 -35.2051 C 20.752 -50.6836 33.3008 -63.1836 48.7305 -63.1836 C 64.209 -63.1836 76.709 -50.6836 76.709 -35.2051 C 76.709 -19.7266 64.209 -7.22656 48.7305 -7.22656 Z M 64.6484 -18.457 C 67.6758 -18.457 69.1895 -20.5078 69.1895 -24.1211 L 69.1895 -45.9473 C 69.1895 -49.707 67.2852 -51.8555 63.3789 -51.8555 C 61.4746 -51.8555 59.9121 -51.5137 57.666 -49.2676 L 54.0527 -45.752 C 52.3926 -44.0918 51.6602 -42.9199 51.6602 -41.2598 C 51.6602 -39.3555 53.1738 -37.7441 55.2246 -37.7441 C 56.6895 -37.7441 57.666 -38.2324 58.5449 -39.5996 L 59.9609 -41.748 L 60.1074 -41.748 L 60.1074 -24.1211 C 60.1074 -20.5078 61.6211 -18.457 64.6484 -18.457 Z M 38.2324 -18.75 C 44.6777 -18.75 49.3652 -23.3887 49.3652 -35.1562 C 49.3652 -46.9238 44.6777 -51.6113 38.2324 -51.6113 C 31.7383 -51.6113 27.4414 -46.9238 27.4414 -35.1562 C 27.4414 -23.3887 31.7383 -18.75 38.2324 -18.75 Z M 38.4277 -27.2949 C 37.1094 -27.2949 36.2305 -28.9062 36.2305 -35.1562 C 36.2305 -41.4062 37.1094 -43.0176 38.4277 -43.0176 C 39.6973 -43.0176 40.5762 -41.4062 40.5762 -35.1562 C 40.5762 -28.9062 39.6973 -27.2949 38.4277 -27.2949 Z"/>
  </g>
  <g id="Black-S" transform="matrix(1 0 0 1 2883.89 696)">
   <path d="M 49.5117 7.4707 C 73.0957 7.4707 92.1875 -11.6211 92.1875 -35.2051 C 92.1875 -58.7891 73.0957 -77.8809 49.5117 -77.8809 C 25.9277 -77.8809 6.83594 -58.7891 6.83594 -35.2051 C 6.83594 -11.6211 25.9277 7.4707 49.5117 7.4707 Z M 49.5117 -8.44727 C 34.7656 -8.44727 22.7539 -20.459 22.7539 -35.2051 C 22.7539 -49.9512 34.7656 -61.9141 49.5117 -61.9141 C 64.2578 -61.9141 76.2695 -49.9512 76.2207 -35.2051 C 76.2207 -20.459 64.2578 -8.44727 49.5117 -8.44727 Z M 65.0879 -18.5059 C 68.457 -18.5059 70.1172 -20.8008 70.1172 -24.9512 L 70.1172 -45.1172 C 70.1172 -49.3164 68.0176 -51.709 63.5254 -51.709 C 61.4258 -51.709 59.7168 -51.416 57.2754 -48.7793 L 54.2969 -45.459 C 52.3926 -43.457 51.6113 -42.1875 51.6113 -40.332 C 51.6113 -38.3301 53.1738 -36.5723 55.4688 -36.5723 C 57.1777 -36.5723 58.3496 -37.2559 59.1309 -38.7207 L 59.8633 -40.6738 L 60.0098 -40.6738 L 60.0098 -24.9512 C 60.0098 -20.8008 61.6699 -18.5059 65.0879 -18.5059 Z M 38.8184 -18.9941 C 45.0195 -18.9941 49.707 -22.9492 49.707 -35.1074 C 49.707 -47.2656 45.0195 -51.2207 38.8184 -51.2207 C 32.6172 -51.2207 28.418 -47.2656 28.418 -35.1074 C 28.418 -22.9492 32.6172 -18.9941 38.8184 -18.9941 Z M 39.0625 -28.5645 C 38.5254 -28.5645 38.0859 -29.248 38.0859 -35.1074 C 38.0859 -40.9668 38.5254 -41.6504 39.0625 -41.6504 C 39.5996 -41.6504 40.0391 -40.9668 40.0391 -35.1074 C 40.0391 -29.248 39.5996 -28.5645 39.0625 -28.5645 Z"/>
  </g>
  <g id="Ultralight-M" transform="matrix(1 0 0 1 503.656 1126)">
   <path d="M 56.0547 12.207 C 82.0801 12.207 103.369 -9.08203 103.369 -35.1562 C 103.369 -61.1816 82.0801 -82.4707 56.0547 -82.4707 C 30.0293 -82.4707 8.74023 -61.1816 8.74023 -35.1562 C 8.74023 -9.08203 30.0293 12.207 56.0547 12.207 Z M 56.0547 9.81445 C 31.25 9.81445 11.1328 -10.3516 11.1328 -35.1562 C 11.1328 -59.9121 31.25 -80.0781 56.0547 -80.0781 C 80.8105 -80.0781 100.977 -59.9121 100.977 -35.1562 C 100.977 -10.3516 80.8105 9.81445 56.0547 9.81445 Z M 79.0527 -13.3301 C 79.834 -13.3301 80.3223 -13.8672 80.3223 -14.5996 L 80.3223 -55.8594 C 80.3223 -56.7383 79.7363 -57.2754 78.8574 -57.2754 C 78.2227 -57.2754 77.7344 -57.0801 76.9531 -56.543 L 66.3574 -49.707 C 65.8691 -49.4141 65.6738 -49.0234 65.6738 -48.584 C 65.6738 -47.9004 66.2109 -47.3633 66.8945 -47.3633 C 67.1387 -47.3633 67.334 -47.4121 67.4805 -47.5098 L 77.5391 -54.0039 L 77.7832 -54.0039 L 77.7832 -14.5996 C 77.7832 -13.8672 78.3203 -13.3301 79.0527 -13.3301 Z M 44.2871 -12.9883 C 53.1738 -12.9883 59.2773 -21.9727 59.2773 -35.1562 C 59.2773 -48.291 53.1738 -57.2754 44.2871 -57.2754 C 35.3516 -57.2754 29.248 -48.291 29.248 -35.1562 C 29.248 -21.9727 35.3516 -12.9883 44.2871 -12.9883 Z M 44.2871 -15.4297 C 36.8652 -15.4297 31.7871 -23.4375 31.7871 -35.1562 C 31.7871 -46.8262 36.8652 -54.834 44.2871 -54.834 C 51.6602 -54.834 56.7383 -46.8262 56.7383 -35.1562 C 56.7383 -23.4375 51.6602 -15.4297 44.2871 -15.4297 Z"/>
  </g>
  <g id="Thin-M" transform="matrix(1 0 0 1 799.806 1126)">
   <path d="M 56.5918 12.7441 C 82.9102 12.7441 104.492 -8.83789 104.492 -35.1562 C 104.492 -61.4746 82.9102 -83.0566 56.5918 -83.0566 C 30.3223 -83.0566 8.74023 -61.4746 8.74023 -35.1562 C 8.74023 -8.83789 30.3223 12.7441 56.5918 12.7441 Z M 56.5918 8.98438 C 32.2266 8.98438 12.4512 -10.791 12.4512 -35.1562 C 12.4512 -59.5215 32.2266 -79.2969 56.5918 -79.2969 C 80.957 -79.2969 100.781 -59.5215 100.781 -35.1562 C 100.781 -10.791 81.0059 8.98438 56.5918 8.98438 Z M 44.6777 -12.9883 C 53.6133 -12.9883 59.7168 -21.9727 59.7168 -35.1562 C 59.7168 -48.3887 53.6133 -57.3242 44.6777 -57.3242 C 35.6934 -57.3242 29.5898 -48.3887 29.5898 -35.1562 C 29.5898 -21.9727 35.6934 -12.9883 44.6777 -12.9883 Z M 79.3945 -13.3789 C 80.4688 -13.3789 81.1035 -14.1113 81.1035 -15.1367 L 81.1035 -55.2246 C 81.1035 -56.4941 80.3223 -57.2266 79.1504 -57.2266 C 78.2715 -57.2266 77.6855 -56.9824 76.6113 -56.25 L 66.6504 -49.8047 C 66.0645 -49.3652 65.7715 -48.877 65.7715 -48.1934 C 65.7715 -47.3145 66.5039 -46.582 67.3828 -46.582 C 67.7246 -46.582 67.9688 -46.6309 68.4082 -46.9238 L 77.4414 -52.832 L 77.6855 -52.832 L 77.6855 -15.1367 C 77.6855 -14.1113 78.3691 -13.3789 79.3945 -13.3789 Z M 44.6777 -16.2598 C 37.7441 -16.2598 33.0566 -23.877 33.0566 -35.1562 C 33.0566 -46.4844 37.7441 -54.0527 44.6777 -54.0527 C 51.5625 -54.0527 56.25 -46.4844 56.25 -35.1562 C 56.25 -23.877 51.5625 -16.2598 44.6777 -16.2598 Z"/>
  </g>
  <g id="Light-M" transform="matrix(1 0 0 1 1095.42 1126)">
   <path d="M 57.7148 13.7695 C 84.5215 13.7695 106.689 -8.39844 106.689 -35.2051 C 106.689 -62.0117 84.4727 -84.1797 57.666 -84.1797 C 30.8594 -84.1797 8.74023 -62.0117 8.74023 -35.2051 C 8.74023 -8.39844 30.8594 13.7695 57.7148 13.7695 Z M 57.7148 7.4707 C 34.082 7.4707 15.0879 -11.5723 15.0879 -35.2051 C 15.0879 -58.8379 34.0332 -77.832 57.666 -77.832 C 81.2988 -77.832 100.342 -58.8379 100.342 -35.2051 C 100.391 -11.5723 81.2988 7.4707 57.7148 7.4707 Z M 45.4102 -12.9883 C 54.4922 -12.9883 60.5957 -21.875 60.5957 -35.2051 C 60.5957 -48.6328 54.4922 -57.4707 45.4102 -57.4707 C 36.2793 -57.4707 30.2246 -48.6328 30.2246 -35.2051 C 30.2246 -21.875 36.2793 -12.9883 45.4102 -12.9883 Z M 80.0293 -13.4277 C 81.6895 -13.4277 82.6172 -14.6484 82.6172 -16.2598 L 82.6172 -53.9062 C 82.6172 -56.0059 81.543 -57.1777 79.6875 -57.1777 C 78.4668 -57.1777 77.5391 -56.7871 76.0254 -55.7617 L 67.2852 -49.9023 C 66.4062 -49.3164 65.918 -48.584 65.918 -47.5586 C 65.918 -46.1426 67.041 -45.0684 68.3105 -45.0684 C 68.8965 -45.0684 69.2871 -45.1172 70.1172 -45.752 L 77.1973 -50.6348 L 77.4902 -50.6348 L 77.4902 -16.2598 C 77.4902 -14.6484 78.418 -13.4277 80.0293 -13.4277 Z M 45.4102 -17.9199 C 39.4531 -17.9199 35.5469 -24.6582 35.5469 -35.2051 C 35.5469 -45.8008 39.4043 -52.5879 45.4102 -52.5879 C 51.416 -52.5879 55.2734 -45.8008 55.2734 -35.2051 C 55.2734 -24.6582 51.3672 -17.9199 45.4102 -17.9199 Z"/>
  </g>
  <g id="Regular-M" transform="matrix(1 0 0 1 1391.32 1126)">
   <path d="M 58.5449 14.5508 C 85.7422 14.5508 108.35 -8.00781 108.35 -35.2539 C 108.35 -62.4512 85.6934 -85.0586 58.4961 -85.0586 C 31.25 -85.0586 8.74023 -62.4512 8.74023 -35.2539 C 8.74023 -8.00781 31.2988 14.5508 58.5449 14.5508 Z M 58.5449 6.25 C 35.498 6.25 17.0898 -12.207 17.0898 -35.2539 C 17.0898 -58.252 35.4492 -76.7578 58.4961 -76.7578 C 81.4941 -76.7578 100 -58.252 100.049 -35.2539 C 100.098 -12.207 81.543 6.25 58.5449 6.25 Z M 45.9961 -12.9883 C 55.1758 -12.9883 61.2305 -21.8262 61.2305 -35.2539 C 61.2305 -48.7793 55.1758 -57.6172 45.9961 -57.6172 C 36.7676 -57.6172 30.7129 -48.7793 30.7129 -35.2539 C 30.7129 -21.8262 36.7676 -12.9883 45.9961 -12.9883 Z M 80.5176 -13.5254 C 82.6172 -13.5254 83.7891 -14.9902 83.7891 -17.0898 L 83.7891 -52.9297 C 83.7891 -55.6152 82.4707 -57.1777 80.127 -57.1777 C 78.5645 -57.1777 77.4902 -56.6406 75.5859 -55.3223 L 67.7246 -50 C 66.6504 -49.2676 66.0156 -48.3398 66.0156 -47.0215 C 66.0156 -45.2637 67.4805 -43.9453 68.9941 -43.9453 C 69.7754 -43.9453 70.3125 -43.9941 71.4844 -44.873 L 77.0508 -48.9746 L 77.3438 -48.9746 L 77.3438 -17.0898 C 77.3438 -15.0391 78.418 -13.5254 80.5176 -13.5254 Z M 45.9961 -19.1406 C 40.7227 -19.1406 37.4023 -25.293 37.4023 -35.2539 C 37.4023 -45.3125 40.6738 -51.4648 45.9961 -51.4648 C 51.2695 -51.4648 54.541 -45.3125 54.541 -35.2539 C 54.541 -25.293 51.2207 -19.1406 45.9961 -19.1406 Z"/>
  </g>
  <g id="Medium-M" transform="matrix(1 0 0 1 1687.33 1126)">
   <path d="M 59.2285 15.2832 C 86.8652 15.2832 109.717 -7.56836 109.717 -35.2051 C 109.717 -62.8906 86.8164 -85.7422 59.1797 -85.7422 C 31.543 -85.7422 8.74023 -62.8906 8.74023 -35.2051 C 8.74023 -7.56836 31.5918 15.2832 59.2285 15.2832 Z M 59.2285 5.17578 C 36.8164 5.17578 18.8477 -12.8418 18.8477 -35.2051 C 18.8477 -57.6172 36.7676 -75.6348 59.1797 -75.6348 C 81.5918 -75.6348 99.6094 -57.6172 99.6582 -35.2051 C 99.6582 -12.8418 81.6406 5.17578 59.2285 5.17578 Z M 46.4844 -13.2324 C 55.5176 -13.2324 61.5723 -21.5332 61.5723 -35.2051 C 61.5723 -49.0234 55.5176 -57.3242 46.4844 -57.3242 C 37.5 -57.3242 31.543 -49.0234 31.543 -35.2051 C 31.543 -21.5332 37.5 -13.2324 46.4844 -13.2324 Z M 80.9082 -13.5742 C 83.3496 -13.5742 84.6191 -15.2832 84.6191 -17.8223 L 84.6191 -52.1973 C 84.6191 -55.2734 83.1055 -57.0312 80.2734 -57.0312 C 78.5645 -57.0312 77.2949 -56.543 75.1953 -54.9316 L 67.9688 -49.7559 C 66.6992 -48.7305 66.0156 -47.7539 66.0156 -46.2402 C 66.0156 -44.3848 67.5293 -42.8711 69.2871 -42.8711 C 70.2637 -42.8711 70.9473 -43.0664 72.0703 -44.1406 L 76.9531 -47.9492 L 77.2461 -47.9492 L 77.2461 -17.8223 C 77.2461 -15.332 78.4668 -13.5742 80.9082 -13.5742 Z M 46.5332 -20.3125 C 41.9922 -20.3125 39.1113 -25.6348 39.1113 -35.2051 C 39.1113 -44.9219 41.9434 -50.2441 46.5332 -50.2441 C 51.1719 -50.2441 54.0039 -44.9219 54.0039 -35.2051 C 54.0039 -25.6348 51.123 -20.3125 46.5332 -20.3125 Z"/>
  </g>
  <g id="Semibold-M" transform="matrix(1 0 0 1 1983.5 1126)">
   <path d="M 59.7656 15.8203 C 87.7441 15.8203 110.791 -7.22656 110.791 -35.2051 C 110.791 -63.1836 87.6953 -86.2793 59.7168 -86.2793 C 31.7383 -86.2793 8.74023 -63.1836 8.74023 -35.2051 C 8.74023 -7.22656 31.7871 15.8203 59.7656 15.8203 Z M 59.7656 4.3457 C 37.8418 4.3457 20.2148 -13.2812 20.2148 -35.2051 C 20.2148 -57.1289 37.793 -74.8047 59.7168 -74.8047 C 81.6406 -74.8047 99.3164 -57.1289 99.3164 -35.2051 C 99.3652 -13.2812 81.6895 4.3457 59.7656 4.3457 Z M 46.9238 -13.3789 C 55.8105 -13.3789 61.8164 -21.2402 61.8164 -35.2051 C 61.8164 -49.2676 55.8105 -57.1289 46.9238 -57.1289 C 38.0371 -57.1289 32.1289 -49.2676 32.1289 -35.2051 C 32.1289 -21.2402 38.0371 -13.3789 46.9238 -13.3789 Z M 81.2012 -13.623 C 83.8867 -13.623 85.3027 -15.4785 85.3027 -18.4082 L 85.3027 -51.6113 C 85.3027 -54.9805 83.5938 -56.9336 80.3711 -56.9336 C 78.5156 -56.9336 77.1484 -56.4453 74.9023 -54.5898 L 68.1641 -49.5605 C 66.748 -48.3398 66.0156 -47.2656 66.0156 -45.6543 C 66.0156 -43.6523 67.5781 -42.0898 69.4824 -42.0898 C 70.6055 -42.0898 71.4355 -42.334 72.5586 -43.5059 L 76.8555 -47.168 L 77.1484 -47.168 L 77.1484 -18.4082 C 77.1484 -15.5273 78.5156 -13.623 81.2012 -13.623 Z M 46.9727 -21.1426 C 42.9199 -21.1426 40.3809 -25.9277 40.3809 -35.2051 C 40.3809 -44.5801 42.9199 -49.3652 46.9727 -49.3652 C 51.0742 -49.3652 53.6133 -44.5801 53.6133 -35.2051 C 53.6133 -25.9277 51.0254 -21.1426 46.9727 -21.1426 Z"/>
  </g>
  <g id="Bold-M" transform="matrix(1 0 0 1 2279.5 1126)">
   <path d="M 60.4492 16.5039 C 88.8672 16.5039 112.207 -6.78711 112.207 -35.2051 C 112.207 -63.623 88.8672 -86.9629 60.4492 -86.9629 C 32.0312 -86.9629 8.74023 -63.623 8.74023 -35.2051 C 8.74023 -6.78711 32.0801 16.5039 60.4492 16.5039 Z M 60.4492 3.22266 C 39.1602 3.22266 22.0215 -13.916 22.0215 -35.2051 C 22.0215 -56.4941 39.1602 -73.6816 60.4492 -73.6816 C 81.7383 -73.6816 98.877 -56.4941 98.9258 -35.2051 C 98.9258 -13.916 81.7871 3.22266 60.4492 3.22266 Z M 47.4609 -13.623 C 56.1523 -13.623 62.1582 -20.9473 62.1582 -35.2051 C 62.1582 -49.5117 56.1523 -56.8359 47.4609 -56.8359 C 38.7207 -56.8359 32.959 -49.5117 32.959 -35.2051 C 32.959 -20.9473 38.7207 -13.623 47.4609 -13.623 Z M 81.543 -13.6719 C 84.6191 -13.6719 86.1328 -15.7715 86.1328 -19.1895 L 86.1328 -50.8301 C 86.1328 -54.6387 84.2773 -56.7871 80.5664 -56.7871 C 78.5156 -56.7871 76.9531 -56.2988 74.5605 -54.1992 L 68.4082 -49.3164 C 66.748 -47.8516 65.9668 -46.6309 65.9668 -44.873 C 65.9668 -42.7734 67.6758 -41.0156 69.7754 -41.0156 C 71.1426 -41.0156 72.0703 -41.4062 73.1934 -42.7246 L 76.8066 -46.0938 L 77.002 -46.0938 L 77.002 -19.1895 C 77.002 -15.7715 78.5645 -13.6719 81.543 -13.6719 Z M 47.5586 -22.2656 C 44.1895 -22.2656 42.041 -26.2695 42.041 -35.2051 C 42.041 -44.1895 44.1895 -48.1445 47.5586 -48.1445 C 50.9766 -48.1445 53.0762 -44.1895 53.0762 -35.2051 C 53.0762 -26.2695 50.9277 -22.2656 47.5586 -22.2656 Z"/>
  </g>
  <g id="Heavy-M" transform="matrix(1 0 0 1 2575.19 1126)">
   <path d="M 61.4746 17.5781 C 90.5273 17.5781 114.258 -6.15234 114.258 -35.2051 C 114.258 -64.2578 90.5273 -87.9883 61.4746 -87.9883 C 32.4219 -87.9883 8.74023 -64.2578 8.74023 -35.2051 C 8.74023 -6.15234 32.4707 17.5781 61.4746 17.5781 Z M 61.4746 1.66016 C 41.1133 1.66016 24.6582 -14.8438 24.6582 -35.2051 C 24.6582 -55.5664 41.1133 -72.0703 61.4746 -72.0703 C 81.8359 -72.0703 98.3398 -55.5664 98.3398 -35.2051 C 98.3398 -14.8438 81.8848 1.66016 61.4746 1.66016 Z M 82.1289 -13.7695 C 85.6445 -13.7695 87.4023 -16.1621 87.4023 -20.2637 L 87.4023 -49.707 C 87.4023 -54.1016 85.2051 -56.5918 80.7617 -56.5918 C 78.4668 -56.5918 76.709 -56.1523 73.9746 -53.5645 L 68.75 -48.9746 C 66.8457 -47.0703 65.9668 -45.7031 65.9668 -43.75 C 65.9668 -41.4551 67.7734 -39.502 70.2148 -39.502 C 71.8262 -39.502 72.9492 -40.0391 74.0723 -41.6016 L 76.6602 -44.6289 L 76.8555 -44.6289 L 76.8555 -20.2637 C 76.8555 -16.1621 78.6133 -13.7695 82.1289 -13.7695 Z M 48.2422 -13.916 C 56.6406 -13.916 62.6465 -20.459 62.6465 -35.1562 C 62.6465 -49.9023 56.6406 -56.3965 48.2422 -56.3965 C 39.7949 -56.3965 34.1797 -49.9023 34.1797 -35.1562 C 34.1797 -20.459 39.7949 -13.916 48.2422 -13.916 Z M 48.4375 -23.9258 C 46.0449 -23.9258 44.4824 -26.8066 44.4824 -35.1562 C 44.4824 -43.5547 46.0449 -46.3867 48.4375 -46.3867 C 50.7812 -46.3867 52.3438 -43.5547 52.3438 -35.1562 C 52.3438 -26.8066 50.7812 -23.9258 48.4375 -23.9258 Z"/>
  </g>
  <g id="Black-M" transform="matrix(1 0 0 1 2871 1126)">
   <path d="M 62.4023 18.457 C 91.9922 18.457 116.064 -5.61523 116.064 -35.2051 C 116.064 -64.7949 91.9922 -88.8672 62.4023 -88.8672 C 32.8125 -88.8672 8.74023 -64.7949 8.74023 -35.2051 C 8.74023 -5.61523 32.8125 18.457 62.4023 18.457 Z M 62.4023 0.195312 C 42.8223 0.195312 27.002 -15.625 27.002 -35.2051 C 27.002 -54.7363 42.8223 -70.6055 62.4023 -70.6055 C 81.9824 -70.6055 97.8027 -54.7363 97.8027 -35.2051 C 97.8027 -15.625 81.9824 0.195312 62.4023 0.195312 Z M 82.6172 -13.8184 C 86.5723 -13.8184 88.5254 -16.5527 88.5254 -21.2402 L 88.5254 -48.6816 C 88.5254 -53.6133 86.084 -56.4453 80.957 -56.4453 C 78.4668 -56.4453 76.4648 -56.0059 73.4863 -53.0273 L 69.0918 -48.6328 C 66.8945 -46.4355 65.918 -44.9219 65.918 -42.7246 C 65.918 -40.2832 67.8711 -38.1348 70.5566 -38.1348 C 72.4609 -38.1348 73.7793 -38.8184 74.9023 -40.5762 L 76.5137 -43.2617 L 76.709 -43.2617 L 76.709 -21.2402 C 76.709 -16.5527 78.6621 -13.8184 82.6172 -13.8184 Z M 48.9258 -14.209 C 57.1289 -14.209 63.0859 -20.0195 63.0859 -35.1562 C 63.0859 -50.2441 57.1289 -56.0547 48.9258 -56.0547 C 40.7227 -56.0547 35.2539 -50.2441 35.2539 -35.1562 C 35.2539 -20.0195 40.7227 -14.209 48.9258 -14.209 Z M 49.1699 -25.3906 C 47.7051 -25.3906 46.6797 -27.2461 46.6797 -35.1562 C 46.6797 -43.0176 47.7051 -44.8242 49.1699 -44.8242 C 50.6348 -44.8242 51.6602 -43.0176 51.6602 -35.1562 C 51.6602 -27.2461 50.6348 -25.3906 49.1699 -25.3906 Z"/>
  </g>
  <g id="Ultralight-L" transform="matrix(1 0 0 1 487.641 1556)">
   <path d="M 72.0703 25.7324 C 105.566 25.7324 132.91 -1.61133 132.91 -35.1074 C 132.91 -68.5547 105.566 -95.8984 72.0703 -95.8984 C 38.623 -95.8984 11.2793 -68.5547 11.2793 -35.1074 C 11.2793 -1.61133 38.623 25.7324 72.0703 25.7324 Z M 72.0703 23.2422 C 39.9414 23.2422 13.7695 -2.97852 13.7695 -35.1074 C 13.7695 -67.2363 39.9414 -93.4082 72.0703 -93.4082 C 104.199 -93.4082 130.42 -67.2363 130.371 -35.1074 C 130.371 -2.97852 104.199 23.2422 72.0703 23.2422 Z M 101.855 -6.93359 C 102.783 -6.93359 103.32 -7.56836 103.32 -8.34961 L 103.32 -62.1582 C 103.32 -63.0859 102.588 -63.6719 101.66 -63.6719 C 100.879 -63.6719 100.293 -63.4766 99.4141 -62.8418 L 85.498 -53.9062 C 84.9121 -53.5645 84.7168 -53.125 84.7168 -52.5879 C 84.7168 -51.8555 85.3516 -51.2207 86.1328 -51.2207 C 86.377 -51.2207 86.5723 -51.2695 86.6699 -51.3672 L 100.098 -59.9121 L 100.439 -59.9121 L 100.439 -8.34961 C 100.439 -7.51953 101.074 -6.93359 101.855 -6.93359 Z M 56.9824 -6.54297 C 68.457 -6.54297 76.3184 -18.1641 76.3184 -35.1074 C 76.3184 -52.002 68.457 -63.623 56.9824 -63.623 C 45.5078 -63.623 37.6465 -52.002 37.6465 -35.1074 C 37.6465 -18.1641 45.5078 -6.54297 56.9824 -6.54297 Z M 56.9824 -9.32617 C 47.2168 -9.32617 40.4785 -19.8242 40.4785 -35.1074 C 40.4785 -50.3418 47.2168 -60.8398 56.9824 -60.8398 C 66.6992 -60.8398 73.4375 -50.3418 73.4375 -35.1074 C 73.4375 -19.8242 66.6992 -9.32617 56.9824 -9.32617 Z"/>
  </g>
  <g id="Thin-L" transform="matrix(1 0 0 1 783.717 1556)">
   <path d="M 72.7051 26.3184 C 106.494 26.3184 134.131 -1.36719 134.131 -35.1074 C 134.131 -68.8965 106.445 -96.582 72.7051 -96.582 C 38.916 -96.582 11.2793 -68.8965 11.2793 -35.1074 C 11.2793 -1.36719 38.916 26.3184 72.7051 26.3184 Z M 72.7051 22.3145 C 41.0156 22.3145 15.2344 -3.41797 15.2344 -35.1074 C 15.2344 -66.8457 41.0156 -92.5781 72.7051 -92.5781 C 104.395 -92.5781 130.127 -66.8457 130.176 -35.1074 C 130.176 -3.41797 104.395 22.3145 72.7051 22.3145 Z M 57.4219 -6.54297 C 68.9453 -6.54297 76.8066 -18.1152 76.8066 -35.1074 C 76.8066 -52.1484 68.9453 -63.7207 57.4219 -63.7207 C 45.8496 -63.7207 37.9883 -52.1484 37.9883 -35.1074 C 37.9883 -18.1152 45.8496 -6.54297 57.4219 -6.54297 Z M 102.246 -6.98242 C 103.467 -6.98242 104.199 -7.8125 104.199 -8.98438 L 104.199 -61.4258 C 104.199 -62.793 103.271 -63.623 101.953 -63.623 C 100.977 -63.623 100.244 -63.3789 99.0723 -62.5488 L 85.8398 -53.9551 C 85.1074 -53.5156 84.8145 -52.9297 84.8145 -52.1973 C 84.8145 -51.1719 85.6445 -50.3418 86.6211 -50.3418 C 87.0117 -50.3418 87.3047 -50.4395 87.6953 -50.6836 L 100 -58.6426 L 100.293 -58.6426 L 100.293 -8.98438 C 100.293 -7.86133 101.123 -6.98242 102.246 -6.98242 Z M 57.4219 -10.2539 C 48.1934 -10.2539 41.8945 -20.3125 41.8945 -35.1074 C 41.8945 -49.9512 48.1934 -60.0098 57.4219 -60.0098 C 66.6016 -60.0098 72.9004 -49.9512 72.9004 -35.1074 C 72.9004 -20.3125 66.6016 -10.2539 57.4219 -10.2539 Z"/>
  </g>
  <g id="Light-L" transform="matrix(1 0 0 1 1079.21 1556)">
   <path d="M 73.9258 27.4902 C 108.301 27.4902 136.572 -0.830078 136.572 -35.1562 C 136.572 -69.5312 108.252 -97.8516 73.877 -97.8516 C 39.5508 -97.8516 11.2793 -69.5312 11.2793 -35.1562 C 11.2793 -0.830078 39.5508 27.4902 73.9258 27.4902 Z M 73.9258 20.6055 C 43.0664 20.6055 18.1641 -4.3457 18.1641 -35.1562 C 18.1641 -66.0156 43.0664 -90.918 73.877 -90.918 C 104.736 -90.918 129.639 -66.0156 129.688 -35.1562 C 129.736 -4.3457 104.785 20.6055 73.9258 20.6055 Z M 58.252 -6.54297 C 69.9219 -6.54297 77.7832 -18.0664 77.7832 -35.1562 C 77.7832 -52.3926 69.9219 -63.8672 58.252 -63.8672 C 46.5332 -63.8672 38.6719 -52.3926 38.6719 -35.1562 C 38.6719 -18.0664 46.5332 -6.54297 58.252 -6.54297 Z M 102.93 -7.08008 C 104.834 -7.08008 105.859 -8.39844 105.859 -10.2051 L 105.859 -59.9609 C 105.859 -62.2559 104.639 -63.5742 102.588 -63.5742 C 101.123 -63.5742 100.146 -63.1348 98.3887 -61.9629 L 86.5234 -54.1016 C 85.498 -53.418 84.9609 -52.5879 84.9609 -51.4648 C 84.9609 -49.8535 86.2793 -48.6328 87.6465 -48.6328 C 88.3301 -48.6328 88.7695 -48.7305 89.6484 -49.4141 L 99.7559 -56.2012 L 100.098 -56.2012 L 100.098 -10.2051 C 100.098 -8.44727 101.172 -7.08008 102.93 -7.08008 Z M 58.252 -12.1094 C 50.0488 -12.1094 44.6777 -21.1914 44.6777 -35.1562 C 44.6777 -49.2188 50.0488 -58.3496 58.252 -58.3496 C 66.4062 -58.3496 71.7773 -49.2188 71.7773 -35.1562 C 71.7773 -21.1914 66.4062 -12.1094 58.252 -12.1094 Z"/>
  </g>
  <g id="Regular-L" transform="matrix(1 0 0 1 1374.99 1556)">
   <path d="M 74.8535 28.3691 C 109.668 28.3691 138.428 -0.390625 138.428 -35.2051 C 138.428 -70.0195 109.619 -98.7793 74.8047 -98.7793 C 39.9902 -98.7793 11.2793 -70.0195 11.2793 -35.2051 C 11.2793 -0.390625 40.0391 28.3691 74.8535 28.3691 Z M 74.8535 19.2871 C 44.6289 19.2871 20.4102 -5.0293 20.4102 -35.2051 C 20.4102 -65.3809 44.5801 -89.6973 74.8047 -89.6973 C 104.98 -89.6973 129.297 -65.3809 129.346 -35.2051 C 129.395 -5.0293 105.029 19.2871 74.8535 19.2871 Z M 58.8379 -6.54297 C 70.6543 -6.54297 78.4668 -17.9688 78.4668 -35.2051 C 78.4668 -52.5879 70.6543 -64.0137 58.8379 -64.0137 C 47.0703 -64.0137 39.209 -52.5879 39.209 -35.2051 C 39.209 -17.9688 47.0703 -6.54297 58.8379 -6.54297 Z M 103.467 -7.17773 C 105.859 -7.17773 107.129 -8.83789 107.129 -11.1328 L 107.129 -58.8867 C 107.129 -61.8652 105.664 -63.5742 103.027 -63.5742 C 101.27 -63.5742 100.049 -62.9883 97.9004 -61.5234 L 87.0117 -54.1992 C 85.791 -53.3691 85.1074 -52.3438 85.1074 -50.8789 C 85.1074 -48.877 86.7188 -47.3633 88.4277 -47.3633 C 89.3066 -47.3633 89.8926 -47.4609 91.1133 -48.4375 L 99.5605 -54.3457 L 99.9023 -54.3457 L 99.9023 -11.1328 C 99.9023 -8.88672 101.172 -7.17773 103.467 -7.17773 Z M 58.8379 -13.4766 C 51.5137 -13.4766 46.7773 -21.875 46.7773 -35.2051 C 46.7773 -48.6816 51.4648 -57.0801 58.8379 -57.0801 C 66.2598 -57.0801 70.9473 -48.6816 70.9473 -35.2051 C 70.9473 -21.875 66.2109 -13.4766 58.8379 -13.4766 Z"/>
  </g>
  <g id="Medium-L" transform="matrix(1 0 0 1 1670.9 1556)">
   <path d="M 75.6348 29.1992 C 110.938 29.1992 140.039 0.0488281 140.039 -35.2051 C 140.039 -70.459 110.889 -99.6094 75.5859 -99.6094 C 40.332 -99.6094 11.2793 -70.459 11.2793 -35.2051 C 11.2793 0.0488281 40.3809 29.1992 75.6348 29.1992 Z M 75.6348 18.0664 C 46.1426 18.0664 22.4609 -5.71289 22.4609 -35.2051 C 22.4609 -64.6973 46.0938 -88.4766 75.5859 -88.4766 C 105.127 -88.4766 128.857 -64.6973 128.906 -35.2051 C 128.955 -5.71289 105.176 18.0664 75.6348 18.0664 Z M 59.4727 -6.73828 C 71.0938 -6.73828 78.9062 -17.6758 78.9062 -35.2051 C 78.9062 -52.832 71.0938 -63.7695 59.4727 -63.7695 C 47.8027 -63.7695 40.0879 -52.832 40.0879 -35.2051 C 40.0879 -17.6758 47.8027 -6.73828 59.4727 -6.73828 Z M 103.955 -7.22656 C 106.689 -7.22656 108.154 -9.13086 108.154 -11.9629 L 108.154 -58.0078 C 108.154 -61.4258 106.445 -63.4277 103.271 -63.4277 C 101.27 -63.4277 99.8535 -62.8418 97.4609 -61.0352 L 87.3535 -54.0039 C 85.8887 -52.8809 85.1074 -51.7578 85.1074 -50.0488 C 85.1074 -47.9004 86.8652 -46.1914 88.8672 -46.1914 C 89.9414 -46.1914 90.6738 -46.3867 91.9434 -47.5098 L 99.4141 -53.0273 L 99.8047 -53.0273 L 99.8047 -11.9629 C 99.8047 -9.17969 101.221 -7.22656 103.955 -7.22656 Z M 59.5215 -14.7461 C 52.8809 -14.7461 48.6816 -22.3633 48.6816 -35.2051 C 48.6816 -48.1934 52.832 -55.7617 59.5215 -55.7617 C 66.1621 -55.7617 70.3613 -48.1934 70.3613 -35.2051 C 70.3613 -22.3633 66.1133 -14.7461 59.5215 -14.7461 Z"/>
  </g>
  <g id="Semibold-L" transform="matrix(1 0 0 1 1967 1556)">
   <path d="M 76.2695 29.7852 C 111.914 29.7852 141.26 0.439453 141.26 -35.2051 C 141.26 -70.8496 111.865 -100.244 76.2207 -100.244 C 40.5762 -100.244 11.2793 -70.8496 11.2793 -35.2051 C 11.2793 0.439453 40.625 29.7852 76.2695 29.7852 Z M 76.2695 17.0898 C 47.3145 17.0898 24.0234 -6.25 24.0234 -35.2051 C 24.0234 -64.209 47.2656 -87.5 76.2207 -87.5 C 105.225 -87.5 128.516 -64.209 128.564 -35.2051 C 128.613 -6.25 105.273 17.0898 76.2695 17.0898 Z M 59.9121 -6.93359 C 71.4355 -6.93359 79.248 -17.4316 79.248 -35.2051 C 79.248 -53.0762 71.4355 -63.5742 59.9121 -63.5742 C 48.3887 -63.5742 40.7227 -53.0762 40.7227 -35.2051 C 40.7227 -17.4316 48.3887 -6.93359 59.9121 -6.93359 Z M 104.297 -7.27539 C 107.324 -7.27539 108.936 -9.42383 108.936 -12.6465 L 108.936 -57.3242 C 108.936 -61.1328 107.031 -63.3301 103.418 -63.3301 C 101.27 -63.3301 99.707 -62.7441 97.1191 -60.6934 L 87.5977 -53.8574 C 85.9375 -52.5391 85.1074 -51.2695 85.1074 -49.4141 C 85.1074 -47.1191 86.9629 -45.3125 89.1602 -45.3125 C 90.4297 -45.3125 91.2598 -45.5566 92.627 -46.875 L 99.3164 -52.0508 L 99.6582 -52.0508 L 99.6582 -12.6465 C 99.6582 -9.42383 101.27 -7.27539 104.297 -7.27539 Z M 60.0098 -15.7227 C 54.0039 -15.7227 50.0977 -22.7051 50.0977 -35.2051 C 50.0977 -47.8027 53.9551 -54.7363 60.0098 -54.7363 C 66.0645 -54.7363 69.873 -47.8027 69.873 -35.2051 C 69.873 -22.7051 66.0156 -15.7227 60.0098 -15.7227 Z"/>
  </g>
  <g id="Bold-L" transform="matrix(1 0 0 1 2262.9 1556)">
   <path d="M 77.0996 30.6152 C 113.184 30.6152 142.92 0.878906 142.92 -35.2051 C 142.92 -71.3379 113.135 -101.025 77.0508 -101.025 C 40.918 -101.025 11.2793 -71.3379 11.2793 -35.2051 C 11.2793 0.878906 40.9668 30.6152 77.0996 30.6152 Z M 77.0996 15.8691 C 48.7793 15.8691 26.0742 -6.93359 26.0742 -35.2051 C 26.0742 -63.4766 48.7793 -86.2793 77.0508 -86.2793 C 105.322 -86.2793 128.125 -63.4766 128.125 -35.2051 C 128.174 -6.93359 105.371 15.8691 77.0996 15.8691 Z M 60.5469 -7.12891 C 71.9238 -7.12891 79.6875 -17.1387 79.6875 -35.1562 C 79.6875 -53.3203 71.9238 -63.3301 60.5469 -63.3301 C 49.1211 -63.3301 41.6016 -53.3203 41.6016 -35.1562 C 41.6016 -17.1387 49.1211 -7.12891 60.5469 -7.12891 Z M 104.736 -7.32422 C 108.203 -7.32422 109.961 -9.7168 109.961 -13.5254 L 109.961 -56.3965 C 109.961 -60.6934 107.812 -63.1836 103.662 -63.1836 C 101.27 -63.1836 99.5117 -62.5977 96.6797 -60.2539 L 87.8906 -53.6621 C 86.0352 -52.0508 85.1074 -50.6348 85.1074 -48.584 C 85.1074 -46.0938 87.1582 -44.0918 89.5508 -44.0918 C 91.0156 -44.0918 92.041 -44.4824 93.457 -45.9473 L 99.2188 -50.7812 L 99.5605 -50.7812 L 99.5605 -13.5254 C 99.5605 -9.76562 101.318 -7.32422 104.736 -7.32422 Z M 60.6445 -17.041 C 55.4199 -17.041 52.0508 -23.1445 52.0508 -35.1562 C 52.0508 -47.3145 55.3711 -53.418 60.6445 -53.418 C 65.918 -53.418 69.2383 -47.3145 69.2383 -35.1562 C 69.2383 -23.1445 65.8691 -17.041 60.6445 -17.041 Z"/>
  </g>
  <g id="Heavy-L" transform="matrix(1 0 0 1 2558.42 1556)">
   <path d="M 78.2715 31.7871 C 115.039 31.7871 145.264 1.61133 145.264 -35.2051 C 145.264 -72.0215 115.039 -102.197 78.2227 -102.197 C 41.4551 -102.197 11.2793 -72.0215 11.2793 -35.2051 C 11.2793 1.61133 41.4551 31.7871 78.2715 31.7871 Z M 78.2715 14.0137 C 50.9766 14.0137 29.0527 -7.95898 29.0527 -35.2051 C 29.0527 -62.5 50.9766 -84.4727 78.2227 -84.4727 C 105.518 -84.4727 127.49 -62.5 127.49 -35.2051 C 127.539 -7.95898 105.518 14.0137 78.2715 14.0137 Z M 105.371 -7.42188 C 109.424 -7.42188 111.475 -10.2051 111.475 -14.7461 L 111.475 -55.0781 C 111.475 -60.1074 108.984 -63.0371 104.004 -63.0371 C 101.318 -63.0371 99.2676 -62.4023 96.0449 -59.5703 L 88.3789 -53.3203 C 86.1816 -51.3184 85.1562 -49.7559 85.1562 -47.4121 C 85.1562 -44.6289 87.3535 -42.334 90.1367 -42.334 C 91.9434 -42.334 93.2129 -42.8711 94.6777 -44.6777 L 99.0234 -48.877 L 99.3652 -48.877 L 99.3652 -14.7461 C 99.3652 -10.2539 101.367 -7.42188 105.371 -7.42188 Z M 61.4258 -7.42188 C 72.6074 -7.42188 80.3711 -16.6504 80.3711 -35.1562 C 80.3711 -53.7598 72.6074 -62.9883 61.4258 -62.9883 C 50.2441 -62.9883 42.8223 -53.7598 42.8223 -35.1562 C 42.8223 -16.6504 50.2441 -7.42188 61.4258 -7.42188 Z M 61.5723 -18.8965 C 57.4707 -18.8965 54.834 -23.7793 54.834 -35.1562 C 54.834 -46.6309 57.4219 -51.5137 61.5723 -51.5137 C 65.7227 -51.5137 68.3105 -46.6309 68.3105 -35.1562 C 68.3105 -23.7793 65.6738 -18.8965 61.5723 -18.8965 Z"/>
  </g>
  <g id="Black-L" transform="matrix(1 0 0 1 2854.08 1556)">
   <path d="M 79.2969 32.8613 C 116.748 32.8613 147.363 2.19727 147.363 -35.2051 C 147.363 -72.6074 116.699 -103.271 79.2969 -103.271 C 41.8945 -103.271 11.2793 -72.6074 11.2793 -35.2051 C 11.2793 2.19727 41.8945 32.8613 79.2969 32.8613 Z M 79.2969 12.4023 C 52.9297 12.4023 31.7383 -8.83789 31.7383 -35.2051 C 31.7383 -61.5723 52.9297 -82.8125 79.2969 -82.8125 C 105.664 -82.8125 126.904 -61.5723 126.953 -35.2051 C 126.953 -8.83789 105.664 12.4023 79.2969 12.4023 Z M 105.957 -7.51953 C 110.498 -7.51953 112.793 -10.6445 112.793 -15.8691 L 112.793 -53.9062 C 112.793 -59.5703 110.01 -62.8418 104.297 -62.8418 C 101.318 -62.8418 99.0234 -62.207 95.5078 -58.9355 L 88.7695 -53.0762 C 86.2793 -50.7324 85.1562 -48.9258 85.1562 -46.3379 C 85.1562 -43.3594 87.5488 -40.8203 90.6738 -40.8203 C 92.7734 -40.8203 94.1895 -41.4551 95.752 -43.5059 L 98.877 -47.2168 L 99.1699 -47.2168 L 99.1699 -15.8691 C 99.1699 -10.6445 101.416 -7.51953 105.957 -7.51953 Z M 62.207 -7.66602 C 73.1934 -7.66602 80.9082 -16.2598 80.9082 -35.1562 C 80.9082 -54.1016 73.1934 -62.6953 62.207 -62.6953 C 51.2207 -62.6953 43.9453 -54.1016 43.9453 -35.1562 C 43.9453 -16.2598 51.2207 -7.66602 62.207 -7.66602 Z M 62.4023 -20.6055 C 59.3262 -20.6055 57.3242 -24.3652 57.3242 -35.1562 C 57.3242 -45.9961 59.2773 -49.7559 62.4023 -49.7559 C 65.5762 -49.7559 67.5293 -45.9961 67.5293 -35.1562 C 67.5293 -24.3652 65.5273 -20.6055 62.4023 -20.6055 Z"/>
  </g>
 </g>
</svg>
