<?xml version="1.0" encoding="UTF-8"?>
<!--Generator: Apple Native CoreSVG 123-->
<!DOCTYPE svg
PUBLIC "-//W3C//DTD SVG 1.1//EN"
       "http://www.w3.org/Graphics/SVG/1.1/DTD/svg11.dtd">
<svg version="1.1" xmlns="http://www.w3.org/2000/svg" xmlns:xlink="http://www.w3.org/1999/xlink" width="3300" height="2200">
 <!--glyph: "uni10054A.medium", point size: 100.000000, font version: "Version 15.0d4e20", template writer version: "2"-->
 <g id="Notes">
  <rect height="2200" id="artboard" style="fill:white;opacity:1" width="3300" x="0" y="0"/>
  <line id="" style="fill:none;stroke:black;opacity:1;stroke-width:0.5;" x1="263" x2="3036" y1="292" y2="292"/>
  <text style="stroke:none;fill:black;font-family:-apple-system,&quot;SF Pro Display&quot;,&quot;SF Pro Text&quot;,Helvetica,sans-serif;font-weight:bold;" transform="matrix(1 0 0 1 263 322)">Weight/Scale Variations</text>
  <text style="stroke:none;fill:black;font-family:-apple-system,&quot;SF Pro Display&quot;,&quot;SF Pro Text&quot;,Helvetica,sans-serif;text-anchor:middle;" transform="matrix(1 0 0 1 559.711 322)">Ultralight</text>
  <text style="stroke:none;fill:black;font-family:-apple-system,&quot;SF Pro Display&quot;,&quot;SF Pro Text&quot;,Helvetica,sans-serif;text-anchor:middle;" transform="matrix(1 0 0 1 856.422 322)">Thin</text>
  <text style="stroke:none;fill:black;font-family:-apple-system,&quot;SF Pro Display&quot;,&quot;SF Pro Text&quot;,Helvetica,sans-serif;text-anchor:middle;" transform="matrix(1 0 0 1 1153.13 322)">Light</text>
  <text style="stroke:none;fill:black;font-family:-apple-system,&quot;SF Pro Display&quot;,&quot;SF Pro Text&quot;,Helvetica,sans-serif;text-anchor:middle;" transform="matrix(1 0 0 1 1449.84 322)">Regular</text>
  <text style="stroke:none;fill:black;font-family:-apple-system,&quot;SF Pro Display&quot;,&quot;SF Pro Text&quot;,Helvetica,sans-serif;text-anchor:middle;" transform="matrix(1 0 0 1 1746.56 322)">Medium</text>
  <text style="stroke:none;fill:black;font-family:-apple-system,&quot;SF Pro Display&quot;,&quot;SF Pro Text&quot;,Helvetica,sans-serif;text-anchor:middle;" transform="matrix(1 0 0 1 2043.27 322)">Semibold</text>
  <text style="stroke:none;fill:black;font-family:-apple-system,&quot;SF Pro Display&quot;,&quot;SF Pro Text&quot;,Helvetica,sans-serif;text-anchor:middle;" transform="matrix(1 0 0 1 2339.98 322)">Bold</text>
  <text style="stroke:none;fill:black;font-family:-apple-system,&quot;SF Pro Display&quot;,&quot;SF Pro Text&quot;,Helvetica,sans-serif;text-anchor:middle;" transform="matrix(1 0 0 1 2636.69 322)">Heavy</text>
  <text style="stroke:none;fill:black;font-family:-apple-system,&quot;SF Pro Display&quot;,&quot;SF Pro Text&quot;,Helvetica,sans-serif;text-anchor:middle;" transform="matrix(1 0 0 1 2933.4 322)">Black</text>
  <line id="" style="fill:none;stroke:black;opacity:1;stroke-width:0.5;" x1="263" x2="3036" y1="1903" y2="1903"/>
  <g id="" transform="matrix(1 0 0 1 263 1933)">
   <path d="M 9.24805 0.830078 C 13.5547 0.830078 17.1387 -2.74414 17.1387 -7.05078 C 17.1387 -11.3574 13.5449 -14.9316 9.23828 -14.9316 C 4.94141 -14.9316 1.36719 -11.3574 1.36719 -7.05078 C 1.36719 -2.74414 4.95117 0.830078 9.24805 0.830078 Z M 9.24805 -0.654297 C 5.70312 -0.654297 2.87109 -3.49609 2.87109 -7.05078 C 2.87109 -10.6055 5.69336 -13.4473 9.23828 -13.4473 C 12.793 -13.4473 15.6348 -10.6055 15.6445 -7.05078 C 15.6543 -3.49609 12.8027 -0.654297 9.24805 -0.654297 Z M 9.22852 -3.42773 C 9.69727 -3.42773 9.9707 -3.74023 9.9707 -4.25781 L 9.9707 -6.31836 L 12.1973 -6.31836 C 12.6953 -6.31836 13.0371 -6.57227 13.0371 -7.04102 C 13.0371 -7.51953 12.7148 -7.7832 12.1973 -7.7832 L 9.9707 -7.7832 L 9.9707 -10.0098 C 9.9707 -10.5273 9.69727 -10.8496 9.22852 -10.8496 C 8.75977 -10.8496 8.50586 -10.5078 8.50586 -10.0098 L 8.50586 -7.7832 L 6.29883 -7.7832 C 5.78125 -7.7832 5.44922 -7.51953 5.44922 -7.04102 C 5.44922 -6.57227 5.80078 -6.31836 6.29883 -6.31836 L 8.50586 -6.31836 L 8.50586 -4.25781 C 8.50586 -3.75977 8.75977 -3.42773 9.22852 -3.42773 Z"/>
  </g>
  <g id="" transform="matrix(1 0 0 1 281.506 1933)">
   <path d="M 11.709 2.91016 C 17.1484 2.91016 21.6699 -1.60156 21.6699 -7.05078 C 21.6699 -12.4902 17.1387 -17.0117 11.6992 -17.0117 C 6.25 -17.0117 1.74805 -12.4902 1.74805 -7.05078 C 1.74805 -1.60156 6.25977 2.91016 11.709 2.91016 Z M 11.709 1.25 C 7.09961 1.25 3.41797 -2.44141 3.41797 -7.05078 C 3.41797 -11.6504 7.08984 -15.3516 11.6992 -15.3516 C 16.2988 -15.3516 20 -11.6504 20.0098 -7.05078 C 20.0195 -2.44141 16.3086 1.25 11.709 1.25 Z M 11.6797 -2.41211 C 12.207 -2.41211 12.5195 -2.77344 12.5195 -3.33984 L 12.5195 -6.23047 L 15.5762 -6.23047 C 16.123 -6.23047 16.5039 -6.51367 16.5039 -7.03125 C 16.5039 -7.55859 16.1426 -7.86133 15.5762 -7.86133 L 12.5195 -7.86133 L 12.5195 -10.9277 C 12.5195 -11.5039 12.207 -11.8555 11.6797 -11.8555 C 11.1621 -11.8555 10.8789 -11.4844 10.8789 -10.9277 L 10.8789 -7.86133 L 7.83203 -7.86133 C 7.25586 -7.86133 6.89453 -7.55859 6.89453 -7.03125 C 6.89453 -6.51367 7.28516 -6.23047 7.83203 -6.23047 L 10.8789 -6.23047 L 10.8789 -3.33984 C 10.8789 -2.79297 11.1621 -2.41211 11.6797 -2.41211 Z"/>
  </g>
  <g id="" transform="matrix(1 0 0 1 304.914 1933)">
   <path d="M 14.9707 5.67383 C 21.9336 5.67383 27.6855 -0.078125 27.6855 -7.04102 C 27.6855 -14.0039 21.9238 -19.7559 14.9609 -19.7559 C 7.99805 -19.7559 2.25586 -14.0039 2.25586 -7.04102 C 2.25586 -0.078125 8.00781 5.67383 14.9707 5.67383 Z M 14.9707 3.85742 C 8.92578 3.85742 4.08203 -1.00586 4.08203 -7.04102 C 4.08203 -13.0762 8.91602 -17.9395 14.9609 -17.9395 C 20.9961 -17.9395 25.8594 -13.0762 25.8691 -7.04102 C 25.8789 -1.00586 21.0059 3.85742 14.9707 3.85742 Z M 14.9414 -1.06445 C 15.5176 -1.06445 15.8594 -1.45508 15.8594 -2.06055 L 15.8594 -6.13281 L 20.0977 -6.13281 C 20.6934 -6.13281 21.1133 -6.46484 21.1133 -7.02148 C 21.1133 -7.59766 20.7227 -7.93945 20.0977 -7.93945 L 15.8594 -7.93945 L 15.8594 -12.1875 C 15.8594 -12.8027 15.5176 -13.1934 14.9414 -13.1934 C 14.3848 -13.1934 14.0625 -12.7832 14.0625 -12.1875 L 14.0625 -7.93945 L 9.82422 -7.93945 C 9.20898 -7.93945 8.80859 -7.59766 8.80859 -7.02148 C 8.80859 -6.46484 9.23828 -6.13281 9.82422 -6.13281 L 14.0625 -6.13281 L 14.0625 -2.06055 C 14.0625 -1.47461 14.3848 -1.06445 14.9414 -1.06445 Z"/>
  </g>
  <text style="stroke:none;fill:black;font-family:-apple-system,&quot;SF Pro Display&quot;,&quot;SF Pro Text&quot;,Helvetica,sans-serif;font-weight:bold;" transform="matrix(1 0 0 1 263 1953)">Design Variations</text>
  <text style="stroke:none;fill:black;font-family:-apple-system,&quot;SF Pro Display&quot;,&quot;SF Pro Text&quot;,Helvetica,sans-serif;" transform="matrix(1 0 0 1 263 1971)">Symbols are supported in up to nine weights and three scales.</text>
  <text style="stroke:none;fill:black;font-family:-apple-system,&quot;SF Pro Display&quot;,&quot;SF Pro Text&quot;,Helvetica,sans-serif;" transform="matrix(1 0 0 1 263 1989)">For optimal layout with text and other symbols, vertically align</text>
  <text style="stroke:none;fill:black;font-family:-apple-system,&quot;SF Pro Display&quot;,&quot;SF Pro Text&quot;,Helvetica,sans-serif;" transform="matrix(1 0 0 1 263 2007)">symbols with the adjacent text.</text>
  <rect height="14" id="" style="fill:#00AEEF;stroke:none;opacity:0.4;" width="3" x="776" y="1919"/>
  <g id="" transform="matrix(1 0 0 1 779 1933)">
   <path d="M 10.5273 0 L 12.373 0 L 7.17773 -14.0918 L 5.43945 -14.0918 L 0.244141 0 L 2.08984 0 L 3.50586 -4.0332 L 9.11133 -4.0332 Z M 6.2793 -11.9531 L 6.33789 -11.9531 L 8.59375 -5.52734 L 4.02344 -5.52734 Z"/>
  </g>
  <rect height="14" id="" style="fill:#00AEEF;stroke:none;opacity:0.4;" width="3" x="791.617" y="1919"/>
  <text style="stroke:none;fill:black;font-family:-apple-system,&quot;SF Pro Display&quot;,&quot;SF Pro Text&quot;,Helvetica,sans-serif;font-weight:bold;" transform="matrix(1 0 0 1 776 1953)">Side Bearings</text>
  <text style="stroke:none;fill:black;font-family:-apple-system,&quot;SF Pro Display&quot;,&quot;SF Pro Text&quot;,Helvetica,sans-serif;" transform="matrix(1 0 0 1 776 1971)">Horizontal padding on the left and right side of each symbol</text>
  <text style="stroke:none;fill:black;font-family:-apple-system,&quot;SF Pro Display&quot;,&quot;SF Pro Text&quot;,Helvetica,sans-serif;" transform="matrix(1 0 0 1 776 1989)">can be adjusted by modifying the width of the blue rectangles.</text>
  <text style="stroke:none;fill:black;font-family:-apple-system,&quot;SF Pro Display&quot;,&quot;SF Pro Text&quot;,Helvetica,sans-serif;" transform="matrix(1 0 0 1 776 2007)">Modifications are automatically applied proportionally to all</text>
  <text style="stroke:none;fill:black;font-family:-apple-system,&quot;SF Pro Display&quot;,&quot;SF Pro Text&quot;,Helvetica,sans-serif;" transform="matrix(1 0 0 1 776 2025)">scales and weights.</text>
  <g id="" transform="matrix(1 0 0 1 1289 1933)">
   <path d="M 2.96875 2.35352 L 3.80859 3.19336 C 4.84375 4.22852 6.12305 4.15039 7.19727 2.97852 L 16.1621 -6.82617 C 16.5527 -6.74805 16.9629 -6.8457 17.4902 -7.02148 C 18.1738 -7.25586 18.2715 -7.25586 18.3887 -7.13867 C 18.5352 -7.01172 18.4863 -6.89453 18.2422 -6.25 C 17.8809 -5.33203 17.8125 -4.79492 18.5547 -4.02344 L 19.4238 -3.13477 C 20.2734 -2.24609 21.3281 -2.26562 22.2168 -3.14453 L 25.0586 -5.97656 C 25.9473 -6.86523 25.957 -7.92969 25.0781 -8.7793 L 24.1797 -9.64844 C 23.4082 -10.4004 22.8711 -10.3516 21.9629 -9.98047 C 21.3184 -9.72656 21.2012 -9.6875 21.0645 -9.81445 C 20.9375 -9.93164 20.9473 -10.0391 21.1816 -10.7129 C 21.5332 -11.6895 21.5723 -12.2852 20.752 -13.0957 L 19.3359 -14.5117 C 15.1953 -18.6133 11.2305 -18.7402 7.65625 -15.4395 C 7.08008 -14.9023 6.99219 -14.1504 7.53906 -13.6133 L 7.79297 -13.3594 C 8.22266 -12.9297 8.86719 -12.8418 9.41406 -13.1152 C 11.0645 -13.9453 12.2559 -14.0234 13.457 -12.9785 L 13.0273 -11.416 C 12.8516 -10.8008 12.793 -10.3418 12.9199 -9.93164 L 3.18359 -1.04492 C 2.02148 0.0292969 1.93359 1.32812 2.96875 2.35352 Z M 8.96484 -14.4922 C 8.89648 -14.5703 8.86719 -14.6582 8.99414 -14.7559 C 11.709 -17.2852 15.0391 -16.8457 18.3496 -13.5254 L 19.6973 -12.168 C 20.0879 -11.7773 20.0977 -11.582 19.8828 -10.8691 C 19.6582 -10.127 19.502 -9.53125 20.1465 -8.88672 C 20.8105 -8.22266 21.2891 -8.41797 22.207 -8.63281 C 22.9004 -8.79883 23.0664 -8.79883 23.4473 -8.41797 L 24.0918 -7.77344 C 24.4043 -7.48047 24.4141 -7.32422 24.0723 -6.97266 L 21.2207 -4.13086 C 20.8887 -3.79883 20.7227 -3.79883 20.4297 -4.10156 L 19.7852 -4.75586 C 19.4141 -5.13672 19.4141 -5.30273 19.5801 -6.01562 C 19.7852 -6.88477 19.9805 -7.38281 19.3262 -8.04688 C 18.6719 -8.7207 18.0762 -8.57422 17.3438 -8.33008 C 16.5625 -8.06641 16.3281 -8.06641 15.8984 -8.49609 L 14.6094 -9.78516 C 14.1699 -10.2246 14.1309 -10.4395 14.2676 -10.9082 L 15.0293 -13.3984 C 13.3887 -15.2832 11.4941 -15.5566 9.20898 -14.4434 C 9.11133 -14.3945 9.04297 -14.4141 8.96484 -14.4922 Z M 3.96484 1.36719 C 3.52539 0.927734 3.54492 0.537109 4.14062 -0.00976562 L 13.7402 -8.81836 L 15 -7.55859 L 6.17188 2.02148 C 5.625 2.60742 5.24414 2.64648 4.79492 2.19727 Z"/>
  </g>
  <text style="stroke:none;fill:black;font-family:-apple-system,&quot;SF Pro Display&quot;,&quot;SF Pro Text&quot;,Helvetica,sans-serif;font-weight:bold;" transform="matrix(1 0 0 1 1289 1953)">Exporting</text>
  <text style="stroke:none;fill:black;font-family:-apple-system,&quot;SF Pro Display&quot;,&quot;SF Pro Text&quot;,Helvetica,sans-serif;" transform="matrix(1 0 0 1 1289 1971)">Symbols should be outlined when exporting to ensure the</text>
  <text style="stroke:none;fill:black;font-family:-apple-system,&quot;SF Pro Display&quot;,&quot;SF Pro Text&quot;,Helvetica,sans-serif;" transform="matrix(1 0 0 1 1289 1989)">design is preserved when submitting to Xcode.</text>
  <text id="template-version" style="stroke:none;fill:black;font-family:-apple-system,&quot;SF Pro Display&quot;,&quot;SF Pro Text&quot;,Helvetica,sans-serif;text-anchor:end;" transform="matrix(1 0 0 1 3036 1933)">Template v.0.1</text>
  <text style="stroke:none;fill:black;font-family:-apple-system,&quot;SF Pro Display&quot;,&quot;SF Pro Text&quot;,Helvetica,sans-serif;text-anchor:end;" transform="matrix(1 0 0 1 3036 1951)">Generated from 02.square.fill</text>
  <text style="stroke:none;fill:black;font-family:-apple-system,&quot;SF Pro Display&quot;,&quot;SF Pro Text&quot;,Helvetica,sans-serif;text-anchor:end;" transform="matrix(1 0 0 1 3036 1969)">Typeset at 100 points</text>
  <text style="stroke:none;fill:black;font-family:-apple-system,&quot;SF Pro Display&quot;,&quot;SF Pro Text&quot;,Helvetica,sans-serif;" transform="matrix(1 0 0 1 263 726)">Small</text>
  <text style="stroke:none;fill:black;font-family:-apple-system,&quot;SF Pro Display&quot;,&quot;SF Pro Text&quot;,Helvetica,sans-serif;" transform="matrix(1 0 0 1 263 1156)">Medium</text>
  <text style="stroke:none;fill:black;font-family:-apple-system,&quot;SF Pro Display&quot;,&quot;SF Pro Text&quot;,Helvetica,sans-serif;" transform="matrix(1 0 0 1 263 1586)">Large</text>
 </g>
 <g id="Guides">
  <g id="H-reference" style="fill:#27AAE1;stroke:none;" transform="matrix(1 0 0 1 339 696)">
   <path d="M 54.9316 0 L 57.666 0 L 30.5664 -70.459 L 28.0762 -70.459 L 0.976562 0 L 3.66211 0 L 12.9395 -24.4629 L 45.7031 -24.4629 Z M 29.1992 -67.0898 L 29.4434 -67.0898 L 44.8242 -26.709 L 13.8184 -26.709 Z"/>
  </g>
  <line id="Baseline-S" style="fill:none;stroke:#27AAE1;opacity:1;stroke-width:0.577;" x1="263" x2="3036" y1="696" y2="696"/>
  <line id="Capline-S" style="fill:none;stroke:#27AAE1;opacity:1;stroke-width:0.577;" x1="263" x2="3036" y1="625.541" y2="625.541"/>
  <g id="H-reference" style="fill:#27AAE1;stroke:none;" transform="matrix(1 0 0 1 339 1126)">
   <path d="M 54.9316 0 L 57.666 0 L 30.5664 -70.459 L 28.0762 -70.459 L 0.976562 0 L 3.66211 0 L 12.9395 -24.4629 L 45.7031 -24.4629 Z M 29.1992 -67.0898 L 29.4434 -67.0898 L 44.8242 -26.709 L 13.8184 -26.709 Z"/>
  </g>
  <line id="Baseline-M" style="fill:none;stroke:#27AAE1;opacity:1;stroke-width:0.577;" x1="263" x2="3036" y1="1126" y2="1126"/>
  <line id="Capline-M" style="fill:none;stroke:#27AAE1;opacity:1;stroke-width:0.577;" x1="263" x2="3036" y1="1055.54" y2="1055.54"/>
  <g id="H-reference" style="fill:#27AAE1;stroke:none;" transform="matrix(1 0 0 1 339 1556)">
   <path d="M 54.9316 0 L 57.666 0 L 30.5664 -70.459 L 28.0762 -70.459 L 0.976562 0 L 3.66211 0 L 12.9395 -24.4629 L 45.7031 -24.4629 Z M 29.1992 -67.0898 L 29.4434 -67.0898 L 44.8242 -26.709 L 13.8184 -26.709 Z"/>
  </g>
  <line id="Baseline-L" style="fill:none;stroke:#27AAE1;opacity:1;stroke-width:0.577;" x1="263" x2="3036" y1="1556" y2="1556"/>
  <line id="Capline-L" style="fill:none;stroke:#27AAE1;opacity:1;stroke-width:0.577;" x1="263" x2="3036" y1="1485.54" y2="1485.54"/>
  <rect height="119.336" id="left-margin" style="fill:#00AEEF;stroke:none;opacity:0.4;" width="12.4512" x="1392.42" y="1030.79"/>
  <rect height="119.336" id="right-margin" style="fill:#00AEEF;stroke:none;opacity:0.4;" width="12.5" x="1494.77" y="1030.79"/>
 </g>
 <g id="Symbols">
  <g id="Ultralight-S" transform="matrix(1 0 0 1 516.352 696)">
   <path d="M 19.7754 -1.5625 L 66.9922 -1.5625 C 73.5352 -1.5625 76.9531 -5.12695 76.9531 -11.5234 L 76.9531 -58.7891 C 76.9531 -65.2344 73.5352 -68.75 66.9922 -68.75 L 19.7754 -68.75 C 13.2324 -68.75 9.76562 -65.2832 9.76562 -58.7891 L 9.76562 -11.5234 C 9.76562 -5.0293 13.2324 -1.5625 19.7754 -1.5625 Z M 48.9746 -17.3828 C 48.1445 -17.3828 47.7051 -17.9199 47.7051 -18.7012 C 47.7051 -19.0918 47.7539 -19.4336 48.0957 -19.8242 L 62.1582 -35.4004 C 65.1855 -38.7207 66.5039 -41.2598 66.5039 -44.1895 C 66.5039 -48.6328 63.3301 -51.416 58.3496 -51.416 C 53.4668 -51.416 50 -48.4375 49.6094 -44.2383 C 49.5605 -43.5547 49.1211 -43.1641 48.3887 -43.1641 C 47.7051 -43.1641 47.2168 -43.6523 47.2168 -44.3848 C 47.2168 -44.7754 47.2656 -45.0684 47.3145 -45.5078 C 47.9004 -50.2441 52.7344 -53.6133 58.3496 -53.6133 C 64.6973 -53.6133 68.8965 -49.9023 68.8965 -44.1895 C 68.8965 -40.7715 67.2852 -37.8906 63.1348 -33.3008 L 51.0742 -19.873 L 51.0742 -19.6777 L 68.8477 -19.6777 C 69.5312 -19.6777 69.9219 -19.1895 69.9219 -18.5547 C 69.9219 -17.9199 69.5312 -17.3828 68.8477 -17.3828 Z M 29.4434 -16.8945 C 22.0215 -16.8945 16.9922 -24.3164 16.9922 -35.2539 C 16.9922 -46.1914 22.0215 -53.6133 29.4434 -53.6133 C 36.9141 -53.6133 41.9922 -46.1914 41.9922 -35.2539 C 41.9922 -24.3164 36.9141 -16.8945 29.4434 -16.8945 Z M 29.4434 -19.1406 C 35.4492 -19.1406 39.5508 -25.6836 39.5508 -35.2539 C 39.5508 -44.8242 35.4492 -51.416 29.4434 -51.416 C 23.4375 -51.416 19.3359 -44.8242 19.3359 -35.2539 C 19.3359 -25.6836 23.4375 -19.1406 29.4434 -19.1406 Z"/>
  </g>
  <g id="Thin-S" transform="matrix(1 0 0 1 812.599 696)">
   <path d="M 20.3125 -1.12305 L 67.334 -1.12305 C 74.2676 -1.12305 77.8809 -4.78516 77.8809 -11.6211 L 77.8809 -58.6914 C 77.8809 -65.5762 74.2676 -69.2383 67.334 -69.2383 L 20.3125 -69.2383 C 13.3789 -69.2383 9.76562 -65.625 9.76562 -58.6914 L 9.76562 -11.6211 C 9.76562 -4.6875 13.3789 -1.12305 20.3125 -1.12305 Z M 49.6582 -17.4805 C 48.6328 -17.4805 48.0469 -18.1152 48.0469 -19.1406 C 48.0469 -19.6289 48.1934 -20.0684 48.6328 -20.5566 L 61.9629 -35.5469 C 64.6973 -38.623 66.2598 -41.1133 66.2598 -44.043 C 66.2598 -48.1445 63.3789 -50.7324 58.7891 -50.7324 C 54.3945 -50.7324 51.3184 -48.1445 50.7324 -44.1895 C 50.5371 -43.3594 50.0488 -42.8711 49.1211 -42.8711 C 48.2422 -42.8711 47.6562 -43.5059 47.6562 -44.4824 C 47.6562 -44.873 47.7051 -45.2148 47.8027 -45.7031 C 48.5352 -50.3418 53.2715 -53.7109 58.7402 -53.7109 C 65.2344 -53.7109 69.4336 -49.9512 69.4336 -44.1406 C 69.4336 -40.4785 67.627 -37.5488 63.7207 -33.1543 L 52.6367 -20.752 L 52.6367 -20.5078 L 68.9941 -20.5078 C 69.873 -20.5078 70.459 -19.9219 70.459 -19.043 C 70.459 -18.1152 69.873 -17.4805 68.9941 -17.4805 Z M 29.9805 -16.8457 C 22.4609 -16.8457 17.4316 -24.2676 17.4316 -35.2539 C 17.4316 -46.2891 22.4609 -53.6621 29.9805 -53.6621 C 37.4512 -53.6621 42.5293 -46.2891 42.5293 -35.2539 C 42.5293 -24.2676 37.4512 -16.8457 29.9805 -16.8457 Z M 29.9805 -19.873 C 35.498 -19.873 39.209 -26.0254 39.209 -35.2539 C 39.209 -44.4824 35.498 -50.6348 29.9805 -50.6348 C 24.4141 -50.6348 20.7031 -44.4824 20.7031 -35.2539 C 20.7031 -26.0254 24.4141 -19.873 29.9805 -19.873 Z"/>
  </g>
  <g id="Light-S" transform="matrix(1 0 0 1 1108.46 696)">
   <path d="M 21.3867 -0.292969 L 67.9688 -0.292969 C 75.7324 -0.292969 79.5898 -4.15039 79.5898 -11.7676 L 79.5898 -58.5938 C 79.5898 -66.2109 75.7324 -70.1172 67.9688 -70.1172 L 21.3867 -70.1172 C 13.6719 -70.1172 9.76562 -66.2598 9.76562 -58.5938 L 9.76562 -11.7676 C 9.76562 -4.15039 13.6719 -0.292969 21.3867 -0.292969 Z M 51.0254 -17.627 C 49.6094 -17.627 48.7305 -18.5547 48.7305 -19.9219 C 48.7305 -20.6543 48.9746 -21.3379 49.5605 -22.0215 L 61.5234 -35.791 C 63.8184 -38.3789 65.8691 -40.8691 65.8691 -43.7012 C 65.8691 -47.168 63.4277 -49.4141 59.668 -49.4141 C 56.2012 -49.4141 53.8086 -47.5586 52.832 -44.1406 C 52.3926 -42.9688 51.7578 -42.2852 50.6348 -42.2852 C 49.3164 -42.2852 48.4863 -43.2617 48.4863 -44.6289 C 48.4863 -45.1172 48.5352 -45.5566 48.6816 -46.0938 C 49.8047 -50.5371 54.2969 -53.8574 59.4727 -53.8574 C 66.1621 -53.8574 70.5078 -50 70.5078 -44.043 C 70.5078 -39.9902 68.3105 -36.8652 64.8926 -33.0078 L 55.6641 -22.4121 L 55.6641 -22.1191 L 69.2871 -22.1191 C 70.5566 -22.1191 71.4355 -21.3379 71.4355 -19.9219 C 71.4355 -18.5547 70.5566 -17.627 69.2871 -17.627 Z M 30.9082 -16.7969 C 23.291 -16.7969 18.2617 -24.1699 18.2617 -35.2539 C 18.2617 -46.4355 23.291 -53.7598 30.9082 -53.7598 C 38.5254 -53.7598 43.5547 -46.4355 43.5547 -35.2539 C 43.5547 -24.1699 38.5254 -16.7969 30.9082 -16.7969 Z M 30.9082 -21.3867 C 35.5957 -21.3867 38.5742 -26.7578 38.5742 -35.2539 C 38.5742 -43.8477 35.5957 -49.2188 30.9082 -49.2188 C 26.2207 -49.2188 23.291 -43.8477 23.291 -35.2539 C 23.291 -26.7578 26.2207 -21.3867 30.9082 -21.3867 Z"/>
  </g>
  <g id="Regular-S" transform="matrix(1 0 0 1 1404.51 696)">
   <path d="M 22.2168 0.390625 L 68.457 0.390625 C 76.8066 0.390625 80.9082 -3.71094 80.9082 -11.9141 L 80.9082 -58.4961 C 80.9082 -66.6992 76.8066 -70.8008 68.457 -70.8008 L 22.2168 -70.8008 C 13.916 -70.8008 9.76562 -66.6992 9.76562 -58.4961 L 9.76562 -11.9141 C 9.76562 -3.71094 13.916 0.390625 22.2168 0.390625 Z M 52.002 -17.7734 C 50.293 -17.7734 49.2188 -18.8477 49.2188 -20.5566 C 49.2188 -21.4355 49.6094 -22.3145 50.293 -23.0957 L 61.2305 -35.9863 C 63.0859 -38.1836 65.5273 -40.6738 65.5273 -43.457 C 65.5273 -46.4844 63.4766 -48.4375 60.3516 -48.4375 C 57.5684 -48.4375 55.7129 -47.168 54.4434 -44.0918 C 53.8574 -42.6758 53.0762 -41.8945 51.7578 -41.8945 C 50.0977 -41.8945 49.1211 -43.0664 49.1211 -44.7754 C 49.1211 -45.3125 49.2188 -45.8008 49.4141 -46.3867 C 50.7812 -50.6836 55.0293 -53.9551 60.0586 -53.9551 C 66.8945 -53.9551 71.2891 -50.0488 71.2891 -43.9941 C 71.2891 -39.5508 68.7988 -36.3281 65.8203 -32.8613 L 57.959 -23.6816 L 57.959 -23.3887 L 69.5312 -23.3887 C 71.0449 -23.3887 72.168 -22.3633 72.168 -20.6055 C 72.168 -18.8477 71.0449 -17.7734 69.5312 -17.7734 Z M 31.6406 -16.748 C 23.9746 -16.748 18.9453 -24.0723 18.9453 -35.2539 C 18.9453 -46.582 23.9746 -53.8574 31.6406 -53.8574 C 39.3555 -53.8574 44.3359 -46.582 44.3359 -35.2539 C 44.3359 -24.0723 39.3555 -16.748 31.6406 -16.748 Z M 31.6406 -22.5098 C 35.6445 -22.5098 38.0859 -27.2949 38.0859 -35.2539 C 38.0859 -43.3594 35.6934 -48.1445 31.6406 -48.1445 C 27.5879 -48.1445 25.2441 -43.3594 25.2441 -35.2539 C 25.2441 -27.2949 27.6367 -22.5098 31.6406 -22.5098 Z"/>
  </g>
  <g id="Medium-S" transform="matrix(1 0 0 1 1700.63 696)">
   <path d="M 22.8516 0.976562 L 68.9941 0.976562 C 77.6367 0.976562 82.0801 -3.4668 82.0801 -11.9629 L 82.0801 -58.3984 C 82.0801 -66.9434 77.6367 -71.3867 68.9941 -71.3867 L 22.8516 -71.3867 C 14.2578 -71.3867 9.76562 -66.9434 9.76562 -58.3984 L 9.76562 -11.9629 C 9.76562 -3.4668 14.2578 0.976562 22.8516 0.976562 Z M 52.832 -17.9688 C 50.8789 -17.9688 49.6582 -19.2383 49.6582 -21.0938 C 49.6582 -22.3145 50.0977 -23.3398 51.0742 -24.4141 L 61.084 -36.084 C 62.9883 -38.2812 65.1367 -40.5273 65.1367 -43.0664 C 65.1367 -45.6543 63.2812 -47.4121 60.5469 -47.4121 C 58.1543 -47.4121 56.4941 -46.2402 55.4199 -43.6035 C 54.834 -42.1387 54.0039 -41.2109 52.4414 -41.2109 C 50.6836 -41.2109 49.5117 -42.4805 49.5117 -44.2871 C 49.5117 -44.9707 49.6094 -45.5078 49.8047 -46.1426 C 51.123 -50.4395 55.4199 -53.6133 60.4492 -53.6133 C 67.1875 -53.6133 71.4844 -49.6582 71.4844 -43.7012 C 71.4844 -39.4043 69.1895 -36.1816 66.1133 -32.6172 L 59.2285 -24.6582 L 59.2285 -24.3164 L 69.3359 -24.3164 C 71.1426 -24.3164 72.4121 -23.1934 72.4121 -21.1914 C 72.4121 -19.1895 71.1426 -17.9688 69.3359 -17.9688 Z M 32.5684 -16.9922 C 25.0977 -16.9922 20.166 -23.7793 20.166 -35.2539 C 20.166 -46.8262 25.0977 -53.5645 32.5684 -53.5645 C 40.0879 -53.5645 45.0684 -46.8262 45.0684 -35.2539 C 45.0684 -23.7793 40.0879 -16.9922 32.5684 -16.9922 Z M 32.6172 -23.5352 C 35.9863 -23.5352 38.0859 -27.5879 38.0859 -35.2539 C 38.0859 -43.0176 36.0352 -47.0703 32.6172 -47.0703 C 29.1992 -47.0703 27.1484 -43.0176 27.1484 -35.2539 C 27.1484 -27.5879 29.1992 -23.5352 32.6172 -23.5352 Z"/>
  </g>
  <g id="Semibold-S" transform="matrix(1 0 0 1 1996.9 696)">
   <path d="M 23.3398 1.41602 L 69.3848 1.41602 C 78.2227 1.41602 82.959 -3.32031 82.959 -12.0605 L 82.959 -58.3496 C 82.959 -67.0898 78.2227 -71.8262 69.3848 -71.8262 L 23.3398 -71.8262 C 14.5508 -71.8262 9.76562 -67.0898 9.76562 -58.3496 L 9.76562 -12.0605 C 9.76562 -3.32031 14.5508 1.41602 23.3398 1.41602 Z M 53.418 -18.1152 C 51.3672 -18.1152 50.0488 -19.5801 50.0488 -21.5332 C 50.0488 -22.9492 50.4883 -24.1211 51.6602 -25.4395 L 60.9375 -36.1328 C 62.9395 -38.3789 64.8438 -40.4297 64.8438 -42.7734 C 64.8438 -45.0684 63.1348 -46.6309 60.7422 -46.6309 C 58.5449 -46.6309 57.0801 -45.5078 56.1523 -43.2129 C 55.6152 -41.6992 54.6875 -40.7227 52.9297 -40.7227 C 51.123 -40.7227 49.8047 -41.9922 49.8047 -43.9453 C 49.8047 -44.6777 49.9023 -45.3125 50.0977 -45.9961 C 51.416 -50.293 55.6641 -53.418 60.7422 -53.418 C 67.4316 -53.418 71.6309 -49.3652 71.6309 -43.457 C 71.6797 -39.2578 69.4336 -36.084 66.3086 -32.4707 L 60.2051 -25.3906 L 60.2051 -25.0488 L 69.1895 -25.0488 C 71.2402 -25.0488 72.6074 -23.7793 72.6074 -21.6309 C 72.6074 -19.4336 71.2402 -18.1152 69.1895 -18.1152 Z M 33.3008 -17.1875 C 25.9277 -17.1875 21.0938 -23.5352 21.0938 -35.2539 C 21.0938 -47.0703 25.9277 -53.3691 33.3008 -53.3691 C 40.625 -53.3691 45.6055 -47.0703 45.6055 -35.2539 C 45.6055 -23.5352 40.625 -17.1875 33.3008 -17.1875 Z M 33.3496 -24.3652 C 36.2305 -24.3652 38.0859 -27.832 38.0859 -35.2539 C 38.0859 -42.7246 36.2793 -46.2402 33.3496 -46.2402 C 30.4199 -46.2402 28.6621 -42.7246 28.6621 -35.2539 C 28.6621 -27.832 30.4199 -24.3652 33.3496 -24.3652 Z"/>
  </g>
  <g id="Bold-S" transform="matrix(1 0 0 1 2293.01 696)">
   <path d="M 23.9746 2.00195 L 69.9219 2.00195 C 79.0527 2.00195 84.1797 -3.07617 84.1797 -12.1582 L 84.1797 -58.252 C 84.1797 -67.334 79.0527 -72.4121 69.9219 -72.4121 L 23.9746 -72.4121 C 14.8926 -72.4121 9.76562 -67.334 9.76562 -58.252 L 9.76562 -12.1582 C 9.76562 -3.07617 14.8926 2.00195 23.9746 2.00195 Z M 54.248 -18.3105 C 51.9531 -18.3105 50.4883 -19.9707 50.4883 -22.1191 C 50.4883 -23.8281 50.9766 -25.1465 52.4414 -26.7578 L 60.791 -36.1816 C 62.8418 -38.4766 64.4531 -40.2832 64.4531 -42.3828 C 64.4531 -44.2871 62.9883 -45.6055 60.9375 -45.6055 C 59.1309 -45.6055 57.8613 -44.5801 57.1289 -42.6758 C 56.5918 -41.1621 55.5664 -40.0391 53.6133 -40.0391 C 51.6602 -40.0391 50.1953 -41.4062 50.1953 -43.457 C 50.1953 -44.3359 50.293 -45.0195 50.4883 -45.752 C 51.8066 -50.0977 56.0547 -53.125 61.084 -53.125 C 67.6758 -53.125 71.7773 -48.9746 71.8262 -43.1641 C 71.875 -39.1113 69.8242 -35.9375 66.6016 -32.2266 L 61.4746 -26.3184 L 61.4746 -26.0254 L 68.9453 -26.0254 C 71.3379 -26.0254 72.8516 -24.6094 72.8516 -22.2168 C 72.8516 -19.7754 71.3379 -18.3105 68.9453 -18.3105 Z M 34.2285 -17.4805 C 27.0508 -17.4805 22.3145 -23.1934 22.3145 -35.2539 C 22.3145 -47.3633 27.0508 -53.0762 34.2285 -53.0762 C 41.3574 -53.0762 46.3379 -47.3633 46.3379 -35.2539 C 46.3379 -23.1934 41.3574 -17.4805 34.2285 -17.4805 Z M 34.3262 -25.3906 C 36.6211 -25.3906 38.0859 -28.1738 38.0859 -35.2539 C 38.0859 -42.3828 36.6211 -45.166 34.3262 -45.166 C 32.0312 -45.166 30.6152 -42.3828 30.6152 -35.2539 C 30.6152 -28.1738 32.0312 -25.3906 34.3262 -25.3906 Z"/>
  </g>
  <g id="Heavy-S" transform="matrix(1 0 0 1 2588.86 696)">
   <path d="M 24.9023 2.83203 L 70.7031 2.83203 C 80.2246 2.83203 85.8887 -2.7832 85.8887 -12.3047 L 85.8887 -58.1055 C 85.8887 -67.627 80.2246 -73.2422 70.7031 -73.2422 L 24.9023 -73.2422 C 15.3809 -73.2422 9.76562 -67.627 9.76562 -58.1055 L 9.76562 -12.3047 C 9.76562 -2.7832 15.3809 2.83203 24.9023 2.83203 Z M 55.4199 -18.6035 C 52.7832 -18.6035 51.1719 -20.6055 51.1719 -22.9492 C 51.1719 -25.0977 51.6602 -26.6602 53.5645 -28.6621 L 60.5469 -36.3281 C 62.6953 -38.6719 63.8672 -40.0391 63.8672 -41.8457 C 63.8672 -43.1152 62.6953 -44.1406 61.2793 -44.1406 C 59.9609 -44.1406 58.9844 -43.2129 58.5938 -41.9434 C 58.0566 -40.332 56.8848 -39.1113 54.6387 -39.1113 C 52.4902 -39.1113 50.7812 -40.5273 50.7812 -42.7734 C 50.7812 -43.7988 50.8789 -44.5801 51.123 -45.4102 C 52.3438 -49.8047 56.5918 -52.6855 61.6699 -52.6855 C 68.1152 -52.6855 72.0703 -48.4375 72.1191 -42.7246 C 72.168 -38.8672 70.3613 -35.7422 67.041 -31.9336 L 63.3789 -27.7344 L 63.3789 -27.3926 L 68.6523 -27.3926 C 71.4844 -27.3926 73.1934 -25.7812 73.1934 -23.0469 C 73.1934 -20.2637 71.4844 -18.6035 68.6523 -18.6035 Z M 35.5469 -17.8223 C 28.7109 -17.8223 24.1211 -22.7539 24.1211 -35.2539 C 24.1211 -47.7539 28.7109 -52.6855 35.5469 -52.6855 C 42.4316 -52.6855 47.3633 -47.7539 47.3633 -35.2539 C 47.3633 -22.7539 42.4316 -17.8223 35.5469 -17.8223 Z M 35.7422 -26.9531 C 37.1094 -26.9531 38.0371 -28.6133 38.0371 -35.2539 C 38.0371 -41.8945 37.1094 -43.5547 35.7422 -43.5547 C 34.375 -43.5547 33.3984 -41.8945 33.3984 -35.2539 C 33.3984 -28.6133 34.375 -26.9531 35.7422 -26.9531 Z"/>
  </g>
  <g id="Black-S" transform="matrix(1 0 0 1 2884.82 696)">
   <path d="M 25.7324 3.61328 L 71.4355 3.61328 C 81.2988 3.61328 87.4023 -2.49023 87.4023 -12.4023 L 87.4023 -58.0078 C 87.4023 -67.9199 81.2988 -74.0234 71.4355 -74.0234 L 25.7324 -74.0234 C 15.8203 -74.0234 9.76562 -67.9199 9.76562 -58.0078 L 9.76562 -12.4023 C 9.76562 -2.49023 15.8203 3.61328 25.7324 3.61328 Z M 36.7676 -18.1641 C 30.1758 -18.1641 25.7324 -22.3145 25.7324 -35.2539 C 25.7324 -48.1445 30.1758 -52.2949 36.7676 -52.2949 C 43.3594 -52.2949 48.291 -48.1445 48.291 -35.2539 C 48.291 -22.3145 43.3594 -18.1641 36.7676 -18.1641 Z M 56.4453 -18.8965 C 53.5645 -18.8965 51.7578 -21.1426 51.7578 -23.7305 C 51.7578 -26.2207 52.3438 -28.0273 54.541 -30.4199 L 60.3027 -36.4258 C 62.5488 -38.8184 63.3789 -39.8926 63.3789 -41.3574 C 63.3789 -42.0898 62.5 -42.8223 61.5723 -42.8223 C 60.6934 -42.8223 60.0098 -42.041 59.8633 -41.3086 C 59.3262 -39.6484 58.0566 -38.2324 55.5176 -38.2324 C 53.2227 -38.2324 51.2695 -39.7949 51.2695 -42.1387 C 51.2695 -43.3105 51.3672 -44.2383 51.6113 -45.1172 C 52.8809 -49.5605 57.0312 -52.2949 62.1582 -52.2949 C 68.457 -52.2949 72.3145 -47.9492 72.3633 -42.334 C 72.4121 -38.623 70.8496 -35.5469 67.3828 -31.6406 L 65.0391 -29.0039 L 65.0391 -28.6621 L 68.4082 -28.6621 C 71.6309 -28.6621 73.4863 -26.8555 73.4863 -23.8281 C 73.4863 -20.7031 71.6309 -18.8965 68.4082 -18.8965 Z M 37.0117 -28.3203 C 37.5977 -28.3203 38.0371 -29.0039 38.0371 -35.2539 C 38.0371 -41.4551 37.5488 -42.1387 37.0117 -42.1387 C 36.4258 -42.1387 35.9375 -41.4551 35.9375 -35.2539 C 35.9375 -29.0039 36.4258 -28.3203 37.0117 -28.3203 Z"/>
  </g>
  <g id="Ultralight-M" transform="matrix(1 0 0 1 504.535 1126)">
   <path d="M 25 7.56836 L 85.3516 7.56836 C 93.5547 7.56836 97.9004 3.125 97.9004 -4.98047 L 97.9004 -65.2832 C 97.9004 -73.3887 93.5547 -77.832 85.3516 -77.832 L 25 -77.832 C 16.7969 -77.832 12.4512 -73.4863 12.4512 -65.2832 L 12.4512 -4.98047 C 12.4512 3.22266 16.7969 7.56836 25 7.56836 Z M 37.4023 -11.8164 C 27.9297 -11.8164 21.5332 -21.2891 21.5332 -35.2539 C 21.5332 -49.2188 27.9297 -58.6914 37.4023 -58.6914 C 46.875 -58.6914 53.3691 -49.2188 53.3691 -35.2539 C 53.3691 -21.2891 46.875 -11.8164 37.4023 -11.8164 Z M 62.2559 -12.4512 C 61.2793 -12.4512 60.7422 -13.0371 60.7422 -13.9648 C 60.7422 -14.4531 60.791 -14.8438 61.2305 -15.2344 L 79.4434 -35.3516 C 83.3496 -39.7461 84.9609 -43.0176 84.9609 -46.7285 C 84.9609 -52.4902 80.8105 -56.1523 74.3164 -56.1523 C 67.9199 -56.1523 63.3301 -52.1973 62.8906 -46.7285 C 62.8418 -45.9473 62.3535 -45.459 61.4258 -45.459 C 60.6445 -45.459 60.1074 -46.0449 60.1074 -46.9238 C 60.1074 -47.3633 60.1562 -47.7051 60.2051 -48.291 C 60.8887 -54.3945 67.1387 -58.6914 74.3164 -58.6914 C 82.4219 -58.6914 87.6953 -53.9551 87.6953 -46.6797 C 87.6953 -42.3828 85.7422 -38.7695 80.3223 -32.7637 L 64.5996 -15.2832 L 64.5996 -15.0391 L 87.793 -15.0391 C 88.5742 -15.0391 89.0625 -14.502 89.0625 -13.7695 C 89.0625 -13.0371 88.5742 -12.4512 87.793 -12.4512 Z M 37.4023 -14.3555 C 45.2637 -14.3555 50.6348 -22.9004 50.6348 -35.2539 C 50.6348 -47.6562 45.2637 -56.1523 37.4023 -56.1523 C 29.5898 -56.1523 24.1699 -47.6562 24.1699 -35.2539 C 24.1699 -22.9004 29.5898 -14.3555 37.4023 -14.3555 Z"/>
  </g>
  <g id="Thin-M" transform="matrix(1 0 0 1 800.734 1126)">
   <path d="M 25.6348 8.05664 L 85.7422 8.05664 C 94.3848 8.05664 98.9258 3.4668 98.9258 -5.0293 L 98.9258 -65.2344 C 98.9258 -73.7305 94.3848 -78.3691 85.7422 -78.3691 L 25.6348 -78.3691 C 16.9922 -78.3691 12.4512 -73.877 12.4512 -65.2344 L 12.4512 -5.0293 C 12.4512 3.56445 16.9922 8.05664 25.6348 8.05664 Z M 63.0371 -12.5488 C 61.8164 -12.5488 61.1328 -13.2812 61.1328 -14.4531 C 61.1328 -15.0391 61.2793 -15.5273 61.7676 -16.1133 L 79.1992 -35.5469 C 82.8613 -39.5996 84.7168 -42.8223 84.7168 -46.5332 C 84.7168 -51.9531 80.8594 -55.3711 74.8047 -55.3711 C 68.9453 -55.3711 64.7949 -51.8555 64.1602 -46.6797 C 63.9648 -45.7031 63.3789 -45.1172 62.3047 -45.1172 C 61.2793 -45.1172 60.5957 -45.8984 60.5957 -47.0215 C 60.5957 -47.5098 60.6445 -47.9004 60.7422 -48.4863 C 61.6211 -54.4922 67.7246 -58.7891 74.7559 -58.7891 C 82.959 -58.7891 88.3301 -54.0039 88.3301 -46.6309 C 88.3301 -42.0898 86.1328 -38.3789 81.0059 -32.666 L 66.3574 -16.2598 L 66.3574 -16.0156 L 87.9883 -16.0156 C 88.9648 -16.0156 89.6484 -15.332 89.6484 -14.3066 C 89.6484 -13.2812 88.9648 -12.5488 87.9883 -12.5488 Z M 37.9883 -11.8164 C 28.418 -11.8164 22.0215 -21.2402 22.0215 -35.2539 C 22.0215 -49.3164 28.418 -58.7402 37.9883 -58.7402 C 47.5098 -58.7402 53.9551 -49.3164 53.9551 -35.2539 C 53.9551 -21.2402 47.5098 -11.8164 37.9883 -11.8164 Z M 37.9883 -15.2344 C 45.3125 -15.2344 50.2441 -23.291 50.2441 -35.2539 C 50.2441 -47.2656 45.3125 -55.3223 37.9883 -55.3223 C 30.6152 -55.3223 25.6836 -47.2656 25.6836 -35.2539 C 25.6836 -23.291 30.6641 -15.2344 37.9883 -15.2344 Z"/>
  </g>
  <g id="Light-M" transform="matrix(1 0 0 1 1096.47 1126)">
   <path d="M 26.8555 9.0332 L 86.4746 9.0332 C 96.0449 9.0332 100.879 4.15039 100.879 -5.22461 L 100.879 -65.0879 C 100.879 -74.5117 96.0449 -79.3945 86.4746 -79.3945 L 26.8555 -79.3945 C 17.334 -79.3945 12.4512 -74.5605 12.4512 -65.0879 L 12.4512 -5.22461 C 12.4512 4.19922 17.334 9.0332 26.8555 9.0332 Z M 64.5508 -12.6953 C 62.8906 -12.6953 61.9141 -13.7695 61.9141 -15.3809 C 61.9141 -16.2109 62.1582 -16.9922 62.8906 -17.7246 L 78.7109 -35.8398 C 81.8359 -39.3066 84.2285 -42.5293 84.2285 -46.1914 C 84.2285 -50.8789 80.9082 -53.9062 75.7812 -53.9062 C 70.9961 -53.9062 67.627 -51.2207 66.5527 -46.6309 C 66.1133 -45.2637 65.332 -44.4824 64.0137 -44.4824 C 62.5 -44.4824 61.5234 -45.6055 61.5234 -47.168 C 61.5234 -47.7539 61.6211 -48.291 61.7676 -48.9258 C 63.0371 -54.6875 68.8477 -58.9355 75.5859 -58.9355 C 84.082 -58.9355 89.502 -54.0527 89.502 -46.5332 C 89.502 -41.5039 86.8652 -37.5977 82.373 -32.4219 L 69.7754 -18.1641 L 69.7754 -17.8223 L 88.3301 -17.8223 C 89.7461 -17.8223 90.7715 -16.8945 90.7715 -15.2832 C 90.7715 -13.7695 89.7461 -12.6953 88.3301 -12.6953 Z M 39.0625 -11.7188 C 29.3945 -11.7188 22.998 -21.1426 22.998 -35.2539 C 22.998 -49.4629 29.3945 -58.8379 39.0625 -58.8379 C 48.7305 -58.8379 55.1758 -49.4629 55.1758 -35.2539 C 55.1758 -21.1426 48.7305 -11.7188 39.0625 -11.7188 Z M 39.0625 -16.9434 C 45.3613 -16.9434 49.5117 -24.1211 49.5117 -35.2539 C 49.5117 -46.4844 45.4102 -53.7109 39.0625 -53.7109 C 32.7148 -53.7109 28.6133 -46.4844 28.6133 -35.2539 C 28.6133 -24.1211 32.7148 -16.9434 39.0625 -16.9434 Z"/>
  </g>
  <g id="Regular-M" transform="matrix(1 0 0 1 1392.42 1126)">
   <path d="M 27.7832 9.76562 L 87.0605 9.76562 C 97.2656 9.76562 102.344 4.6875 102.344 -5.37109 L 102.344 -64.9902 C 102.344 -75.0488 97.2656 -80.127 87.0605 -80.127 L 27.7832 -80.127 C 17.627 -80.127 12.4512 -75.0977 12.4512 -64.9902 L 12.4512 -5.37109 C 12.4512 4.73633 17.627 9.76562 27.7832 9.76562 Z M 65.6738 -12.8418 C 63.7207 -12.8418 62.4512 -14.1113 62.4512 -16.0645 C 62.4512 -17.0898 62.8906 -18.0664 63.7207 -18.9941 L 78.3691 -36.084 C 81.0547 -39.1113 83.8867 -42.2852 83.8867 -45.8984 C 83.8867 -50.0488 80.957 -52.7344 76.5625 -52.7344 C 72.5098 -52.7344 69.7754 -50.7324 68.3594 -46.582 C 67.7246 -44.9219 66.8457 -43.9941 65.2832 -43.9941 C 63.3789 -43.9941 62.2559 -45.3613 62.2559 -47.3145 C 62.2559 -47.998 62.3535 -48.5352 62.5488 -49.2676 C 64.1113 -54.834 69.7266 -59.0332 76.2695 -59.0332 C 84.9121 -59.0332 90.4297 -54.1016 90.4297 -46.4844 C 90.4297 -41.0645 87.4512 -37.0117 83.3984 -32.2754 L 72.3633 -19.6289 L 72.3633 -19.2383 L 88.5742 -19.2383 C 90.332 -19.2383 91.6016 -18.0664 91.6016 -16.0645 C 91.6016 -14.1113 90.332 -12.8418 88.5742 -12.8418 Z M 39.8926 -11.6699 C 30.127 -11.6699 23.7305 -21.0449 23.7305 -35.2539 C 23.7305 -49.6094 30.127 -58.9355 39.8926 -58.9355 C 49.6582 -58.9355 56.0547 -49.6094 56.0547 -35.2539 C 56.0547 -21.0449 49.6582 -11.6699 39.8926 -11.6699 Z M 39.8926 -18.2129 C 45.459 -18.2129 48.9258 -24.707 48.9258 -35.2539 C 48.9258 -45.9473 45.5078 -52.4414 39.8926 -52.4414 C 34.2773 -52.4414 30.8594 -45.9473 30.8594 -35.2539 C 30.8594 -24.707 34.3262 -18.2129 39.8926 -18.2129 Z"/>
  </g>
  <g id="Medium-M" transform="matrix(1 0 0 1 1688.45 1126)">
   <path d="M 28.5645 10.4492 L 87.6465 10.4492 C 98.2422 10.4492 103.711 4.98047 103.711 -5.46875 L 103.711 -64.8926 C 103.711 -75.3418 98.2422 -80.8105 87.6465 -80.8105 L 28.5645 -80.8105 C 17.9688 -80.8105 12.4512 -75.3906 12.4512 -64.8926 L 12.4512 -5.46875 C 12.4512 4.98047 17.9688 10.4492 28.5645 10.4492 Z M 66.6504 -13.0859 C 64.4043 -13.0859 62.9883 -14.5508 62.9883 -16.6992 C 62.9883 -18.0664 63.4766 -19.2383 64.5996 -20.459 L 78.1738 -36.1816 C 80.8594 -39.209 83.4473 -42.1387 83.4473 -45.459 C 83.4473 -49.1699 80.8105 -51.6113 76.8555 -51.6113 C 73.291 -51.6113 70.8496 -49.7559 69.5801 -46.0449 C 68.9453 -44.3359 67.9199 -43.2617 66.1133 -43.2617 C 64.0625 -43.2617 62.7441 -44.7266 62.7441 -46.8262 C 62.7441 -47.6562 62.8418 -48.291 63.0859 -49.0723 C 64.6484 -54.6387 70.2148 -58.7402 76.709 -58.7402 C 85.3027 -58.7402 90.7227 -53.7109 90.7227 -46.1426 C 90.7715 -40.8203 87.8906 -36.7676 83.7891 -32.0312 L 73.9746 -20.752 L 73.9746 -20.3613 L 88.4277 -20.3613 C 90.5273 -20.3613 91.9434 -19.043 91.9434 -16.748 C 91.9434 -14.502 90.5273 -13.0859 88.4277 -13.0859 Z M 40.918 -11.9141 C 31.3477 -11.9141 25.0488 -20.7031 25.0488 -35.2539 C 25.0488 -49.9023 31.3477 -58.6426 40.918 -58.6426 C 50.4883 -58.6426 56.8848 -49.9023 56.8848 -35.2539 C 56.8848 -20.7031 50.4883 -11.9141 40.918 -11.9141 Z M 40.9668 -19.4336 C 45.8008 -19.4336 48.877 -25.0977 48.877 -35.2539 C 48.877 -45.5078 45.8496 -51.2207 40.9668 -51.2207 C 36.084 -51.2207 33.0566 -45.5078 33.0566 -35.2539 C 33.0566 -25.0977 36.084 -19.4336 40.9668 -19.4336 Z"/>
  </g>
  <g id="Semibold-M" transform="matrix(1 0 0 1 1984.65 1126)">
   <path d="M 29.1016 10.9863 L 88.1348 10.9863 C 98.9746 10.9863 104.785 5.17578 104.785 -5.56641 L 104.785 -64.8438 C 104.785 -75.5859 98.9746 -81.3477 88.1348 -81.3477 L 29.1016 -81.3477 C 18.3105 -81.3477 12.4512 -75.5859 12.4512 -64.8438 L 12.4512 -5.56641 C 12.4512 5.22461 18.3105 10.9863 29.1016 10.9863 Z M 67.3828 -13.2324 C 64.9414 -13.2324 63.4277 -14.9414 63.4277 -17.2363 C 63.4277 -18.8477 63.916 -20.1172 65.2832 -21.6309 L 77.9785 -36.2305 C 80.7129 -39.2578 83.1055 -41.9922 83.1055 -45.166 C 83.1055 -48.4863 80.6641 -50.6836 77.0996 -50.6836 C 73.877 -50.6836 71.6309 -48.9746 70.5078 -45.6543 C 69.873 -43.8965 68.75 -42.7246 66.748 -42.7246 C 64.5996 -42.7246 63.0859 -44.2383 63.0859 -46.4844 C 63.0859 -47.3633 63.2324 -48.0957 63.4766 -48.9258 C 65.0391 -54.4922 70.5566 -58.4961 77.0508 -58.4961 C 85.5957 -58.4961 90.9668 -53.418 90.9668 -45.8984 C 91.0156 -40.625 88.2324 -36.6211 84.082 -31.8359 L 75.1953 -21.6309 L 75.1953 -21.2402 L 88.2812 -21.2402 C 90.625 -21.2402 92.2363 -19.7754 92.2363 -17.2852 C 92.2363 -14.7949 90.625 -13.2324 88.2812 -13.2324 Z M 41.748 -12.1582 C 32.3242 -12.1582 26.0742 -20.459 26.0742 -35.2539 C 26.0742 -50.1465 32.3242 -58.4473 41.748 -58.4473 C 51.1719 -58.4473 57.5195 -50.1465 57.5195 -35.2539 C 57.5195 -20.459 51.1719 -12.1582 41.748 -12.1582 Z M 41.7969 -20.3613 C 46.0938 -20.3613 48.8281 -25.3906 48.8281 -35.2539 C 48.8281 -45.2148 46.1426 -50.2441 41.7969 -50.2441 C 37.4512 -50.2441 34.8145 -45.2148 34.8145 -35.2539 C 34.8145 -25.3906 37.5 -20.3613 41.7969 -20.3613 Z"/>
  </g>
  <g id="Bold-M" transform="matrix(1 0 0 1 2280.65 1126)">
   <path d="M 29.8828 11.6699 L 88.7207 11.6699 C 100 11.6699 106.152 5.46875 106.152 -5.66406 L 106.152 -64.6973 C 106.152 -75.8789 100 -82.0312 88.7207 -82.0312 L 29.8828 -82.0312 C 18.6523 -82.0312 12.4512 -75.8789 12.4512 -64.6973 L 12.4512 -5.66406 C 12.4512 5.51758 18.6523 11.6699 29.8828 11.6699 Z M 68.3105 -13.4766 C 65.625 -13.4766 63.9648 -15.3809 63.9648 -17.9199 C 63.9648 -19.8242 64.502 -21.3379 66.1621 -23.1445 L 77.7832 -36.377 C 80.4688 -39.3555 82.6172 -41.8457 82.6172 -44.7266 C 82.6172 -47.5586 80.4688 -49.5117 77.4414 -49.5117 C 74.6094 -49.5117 72.6562 -47.9492 71.7285 -45.1172 C 71.0938 -43.2617 69.873 -41.9922 67.627 -41.9922 C 65.2832 -41.9922 63.5742 -43.6035 63.5742 -45.9961 C 63.5742 -47.0215 63.7207 -47.8516 63.9648 -48.7305 C 65.5762 -54.2969 71.0449 -58.2031 77.5391 -58.2031 C 85.9863 -58.2031 91.2598 -53.0273 91.3086 -45.6055 C 91.3086 -40.4297 88.6719 -36.377 84.5215 -31.5918 L 76.8555 -22.8027 L 76.8555 -22.3633 L 88.0859 -22.3633 C 90.8203 -22.3633 92.5781 -20.752 92.5781 -17.9688 C 92.5781 -15.1855 90.8203 -13.4766 88.0859 -13.4766 Z M 42.7734 -12.4023 C 33.5449 -12.4023 27.4414 -20.1172 27.4414 -35.2539 C 27.4414 -50.4883 33.5449 -58.1543 42.7734 -58.1543 C 52.002 -58.1543 58.3496 -50.4883 58.3496 -35.2539 C 58.3496 -20.1172 52.002 -12.4023 42.7734 -12.4023 Z M 42.9199 -21.582 C 46.4355 -21.582 48.7305 -25.8301 48.7305 -35.2539 C 48.7305 -44.7754 46.4844 -48.9746 42.9199 -48.9746 C 39.3066 -48.9746 37.0605 -44.7754 37.0605 -35.2539 C 37.0605 -25.8301 39.3066 -21.582 42.9199 -21.582 Z"/>
  </g>
  <g id="Heavy-M" transform="matrix(1 0 0 1 2576.36 1126)">
   <path d="M 31.0059 12.6465 L 89.6484 12.6465 C 101.416 12.6465 108.154 5.9082 108.154 -5.81055 L 108.154 -64.5508 C 108.154 -76.2695 101.416 -83.0566 89.6484 -83.0566 L 31.0059 -83.0566 C 19.2383 -83.0566 12.4512 -76.3184 12.4512 -64.5508 L 12.4512 -5.81055 C 12.4512 5.9082 19.2383 12.6465 31.0059 12.6465 Z M 69.7266 -13.8184 C 66.6504 -13.8184 64.7461 -16.0645 64.7461 -18.8965 C 64.7461 -21.2402 65.3809 -23.0469 67.4316 -25.293 L 77.4902 -36.5234 C 80.2246 -39.502 81.9824 -41.5527 81.9824 -44.0918 C 81.9824 -46.2402 80.2246 -47.8027 77.8809 -47.8027 C 75.7324 -47.8027 74.2188 -46.4844 73.5352 -44.3359 C 72.8516 -42.3828 71.4844 -40.918 68.8477 -40.918 C 66.3086 -40.918 64.3066 -42.6758 64.3066 -45.3613 C 64.3066 -46.5332 64.4043 -47.4609 64.6973 -48.4375 C 66.3086 -54.0527 71.7285 -57.8125 78.2227 -57.8125 C 86.5234 -57.8125 91.6992 -52.4902 91.748 -45.1172 C 91.7969 -40.0879 89.3555 -36.084 85.1074 -31.25 L 79.1992 -24.4629 L 79.1992 -24.0723 L 87.8418 -24.0723 C 91.0645 -24.0723 93.0664 -22.2168 93.0664 -18.9941 C 93.0664 -15.7227 91.0645 -13.8184 87.8418 -13.8184 Z M 44.3359 -12.793 C 35.3516 -12.793 29.3945 -19.6289 29.3945 -35.2539 C 29.3945 -50.9277 35.3516 -57.7637 44.3359 -57.7637 C 53.2715 -57.7637 59.5703 -50.9277 59.5703 -35.2539 C 59.5703 -19.6289 53.2715 -12.793 44.3359 -12.793 Z M 44.5312 -23.3887 C 46.9727 -23.3887 48.6328 -26.3672 48.6328 -35.2539 C 48.6328 -44.1895 47.0215 -47.168 44.5312 -47.168 C 41.9434 -47.168 40.332 -44.1895 40.332 -35.2539 C 40.332 -26.3672 41.9434 -23.3887 44.5312 -23.3887 Z"/>
  </g>
  <g id="Black-M" transform="matrix(1 0 0 1 2872.19 1126)">
   <path d="M 31.9824 13.5742 L 90.4297 13.5742 C 102.686 13.5742 109.961 6.29883 109.961 -5.95703 L 109.961 -64.4043 C 109.961 -76.6602 102.686 -83.9355 90.4297 -83.9355 L 31.9824 -83.9355 C 19.7266 -83.9355 12.4512 -76.6602 12.4512 -64.4043 L 12.4512 -5.95703 C 12.4512 6.29883 19.7266 13.5742 31.9824 13.5742 Z M 45.7031 -13.0859 C 36.9629 -13.0859 31.1523 -19.1895 31.1523 -35.2539 C 31.1523 -51.3184 36.9629 -57.4219 45.7031 -57.4219 C 54.3945 -57.4219 60.6934 -51.3184 60.6934 -35.2539 C 60.6934 -19.1895 54.3945 -13.0859 45.7031 -13.0859 Z M 70.9473 -14.1113 C 67.5781 -14.1113 65.4297 -16.6992 65.4297 -19.7754 C 65.4297 -22.5586 66.1133 -24.6094 68.6035 -27.2461 L 77.1973 -36.6211 C 79.9316 -39.6484 81.3965 -41.3574 81.3965 -43.5547 C 81.3965 -45.0684 79.9805 -46.2891 78.3203 -46.2891 C 76.709 -46.2891 75.5859 -45.166 75.0977 -43.6523 C 74.4141 -41.6016 72.9004 -39.9902 69.9707 -39.9902 C 67.1875 -39.9902 64.9414 -41.8457 64.9414 -44.7266 C 64.9414 -46.0449 65.0391 -47.1191 65.3809 -48.1934 C 66.9922 -53.8086 72.3633 -57.4219 78.8086 -57.4219 C 87.0605 -57.4219 92.0898 -51.9531 92.1387 -44.6777 C 92.1875 -39.7949 89.9414 -35.791 85.6445 -30.9082 L 81.2988 -25.9766 L 81.2988 -25.5371 L 87.5977 -25.5371 C 91.3086 -25.5371 93.5059 -23.4863 93.5059 -19.873 C 93.5059 -16.2109 91.3086 -14.1113 87.5977 -14.1113 Z M 45.9473 -25 C 47.4609 -25 48.5352 -26.9043 48.5352 -35.2539 C 48.5352 -43.6523 47.4609 -45.5078 45.9473 -45.5078 C 44.3359 -45.5078 43.2617 -43.6523 43.2617 -35.2539 C 43.2617 -26.9043 44.3359 -25 45.9473 -25 Z"/>
  </g>
  <g id="Ultralight-L" transform="matrix(1 0 0 1 488.739 1556)">
   <path d="M 31.9824 19.7754 L 109.961 19.7754 C 120.361 19.7754 125.879 14.0625 125.879 3.85742 L 125.879 -74.0723 C 125.879 -84.2773 120.361 -89.9902 109.961 -89.9902 L 31.9824 -89.9902 C 21.6309 -89.9902 16.0645 -84.4727 16.0645 -74.0723 L 16.0645 3.85742 C 16.0645 14.2578 21.6309 19.7754 31.9824 19.7754 Z M 48.0469 -5.0293 C 35.8398 -5.0293 27.5391 -17.2852 27.5391 -35.2539 C 27.5391 -53.2227 35.8398 -65.4785 48.0469 -65.4785 C 60.2051 -65.4785 68.6035 -53.2227 68.6035 -35.2539 C 68.6035 -17.2852 60.2051 -5.0293 48.0469 -5.0293 Z M 79.9805 -5.81055 C 78.8574 -5.81055 78.1738 -6.49414 78.1738 -7.56836 C 78.1738 -8.1543 78.2227 -8.59375 78.7598 -9.08203 L 102.588 -35.3516 C 107.812 -41.1621 109.766 -45.3125 109.766 -50.1465 C 109.766 -57.7637 104.297 -62.5488 95.6543 -62.5488 C 87.1582 -62.5488 81.1035 -57.2266 80.6641 -50.0977 C 80.6152 -49.1211 80.0293 -48.5352 78.9062 -48.5352 C 77.9785 -48.5352 77.3438 -49.2676 77.3438 -50.2441 C 77.3438 -50.7812 77.4414 -51.2695 77.4902 -51.9531 C 78.2715 -59.9121 86.377 -65.4785 95.7031 -65.4785 C 106.104 -65.4785 112.891 -59.375 112.891 -50 C 112.891 -44.5801 110.449 -39.9902 103.369 -32.1289 L 82.6172 -9.08203 L 82.6172 -8.78906 L 113.232 -8.78906 C 114.16 -8.78906 114.697 -8.1543 114.697 -7.32422 C 114.697 -6.49414 114.16 -5.81055 113.232 -5.81055 Z M 48.0469 -7.95898 C 58.3496 -7.95898 65.5273 -19.1406 65.5273 -35.2539 C 65.5273 -51.416 58.3496 -62.5977 48.0469 -62.5977 C 37.6953 -62.5977 30.5664 -51.416 30.5664 -35.2539 C 30.5664 -19.1406 37.6953 -7.95898 48.0469 -7.95898 Z"/>
  </g>
  <g id="Thin-L" transform="matrix(1 0 0 1 784.889 1556)">
   <path d="M 32.7148 20.3613 L 110.4 20.3613 C 121.289 20.3613 127.002 14.4531 127.002 3.75977 L 127.002 -73.9746 C 127.002 -84.7168 121.289 -90.5762 110.4 -90.5762 L 32.7148 -90.5762 C 21.8262 -90.5762 16.0645 -84.8633 16.0645 -73.9746 L 16.0645 3.75977 C 16.0645 14.6484 21.8262 20.3613 32.7148 20.3613 Z M 80.8594 -5.9082 C 79.4434 -5.9082 78.6133 -6.78711 78.6133 -8.10547 C 78.6133 -8.83789 78.7598 -9.375 79.3945 -10.0098 L 102.295 -35.498 C 107.227 -40.9668 109.473 -45.166 109.473 -49.9512 C 109.473 -57.1289 104.346 -61.6699 96.2402 -61.6699 C 88.3301 -61.6699 82.7148 -56.8848 82.0312 -50.0488 C 81.8359 -48.877 81.1523 -48.1934 79.8828 -48.1934 C 78.6621 -48.1934 77.8809 -49.0723 77.8809 -50.3418 C 77.8809 -50.9766 77.9785 -51.4648 78.0762 -52.1973 C 79.0527 -60.0098 87.0117 -65.5762 96.1914 -65.5762 C 106.738 -65.5762 113.574 -59.4238 113.574 -49.9512 C 113.574 -44.2871 110.889 -39.5508 104.15 -31.9824 L 84.5703 -10.1562 L 84.5703 -9.81445 L 113.428 -9.81445 C 114.6 -9.81445 115.332 -9.0332 115.332 -7.91016 C 115.332 -6.78711 114.6 -5.9082 113.428 -5.9082 Z M 48.6328 -5.0293 C 36.377 -5.0293 28.125 -17.2363 28.125 -35.2539 C 28.125 -53.3203 36.377 -65.5273 48.6328 -65.5273 C 60.9375 -65.5273 69.2871 -53.3203 69.2871 -35.2539 C 69.2871 -17.2363 60.9375 -5.0293 48.6328 -5.0293 Z M 48.6328 -8.88672 C 58.3984 -8.88672 65.0879 -19.5801 65.0879 -35.2539 C 65.0879 -50.9766 58.3984 -61.6699 48.6328 -61.6699 C 38.8672 -61.6699 32.2266 -50.9766 32.2266 -35.2539 C 32.2266 -19.5801 38.916 -8.88672 48.6328 -8.88672 Z"/>
  </g>
  <g id="Light-L" transform="matrix(1 0 0 1 1080.5 1556)">
   <path d="M 34.082 21.4355 L 111.23 21.4355 C 123.096 21.4355 129.199 15.2344 129.199 3.56445 L 129.199 -73.8281 C 129.199 -85.5469 123.096 -91.6992 111.23 -91.6992 L 34.082 -91.6992 C 22.2168 -91.6992 16.0645 -85.6445 16.0645 -73.8281 L 16.0645 3.56445 C 16.0645 15.3809 22.2168 21.4355 34.082 21.4355 Z M 82.5684 -6.10352 C 80.6641 -6.10352 79.4922 -7.27539 79.4922 -9.13086 C 79.4922 -10.1074 79.7852 -10.9863 80.6152 -11.8652 L 101.807 -35.8398 C 106.055 -40.6738 108.936 -44.8242 108.936 -49.5605 C 108.936 -55.957 104.395 -60.0098 97.3145 -60.0098 C 90.625 -60.0098 85.8887 -56.1523 84.7168 -49.9512 C 84.2773 -48.3887 83.3496 -47.4609 81.7383 -47.4609 C 80.0293 -47.4609 78.9551 -48.7305 78.9551 -50.5371 C 78.9551 -51.2695 79.0527 -51.8555 79.1992 -52.6855 C 80.6641 -60.2539 88.2812 -65.7227 97.168 -65.7227 C 107.959 -65.7227 114.941 -59.4727 114.941 -49.8535 C 114.941 -43.6035 111.719 -38.6719 105.615 -31.7383 L 88.3789 -12.3047 L 88.3789 -11.9141 L 113.818 -11.9141 C 115.43 -11.9141 116.602 -10.791 116.602 -9.0332 C 116.602 -7.27539 115.43 -6.10352 113.818 -6.10352 Z M 49.9023 -4.93164 C 37.4512 -4.93164 29.1992 -17.0898 29.1992 -35.2539 C 29.1992 -53.5156 37.4512 -65.6738 49.9023 -65.6738 C 62.3047 -65.6738 70.6055 -53.5156 70.6055 -35.2539 C 70.6055 -17.0898 62.3047 -4.93164 49.9023 -4.93164 Z M 49.9023 -10.791 C 58.4961 -10.791 64.2578 -20.5078 64.2578 -35.2539 C 64.2578 -50.1465 58.5449 -59.8633 49.9023 -59.8633 C 41.1621 -59.8633 35.498 -50.1465 35.498 -35.2539 C 35.498 -20.5078 41.2109 -10.791 49.9023 -10.791 Z"/>
  </g>
  <g id="Regular-L" transform="matrix(1 0 0 1 1376.36 1556)">
   <path d="M 35.1074 22.2168 L 111.865 22.2168 C 124.512 22.2168 130.859 15.8691 130.859 3.41797 L 130.859 -73.7305 C 130.859 -86.1816 124.512 -92.5293 111.865 -92.5293 L 35.1074 -92.5293 C 22.5098 -92.5293 16.0645 -86.2305 16.0645 -73.7305 L 16.0645 3.41797 C 16.0645 15.918 22.5098 22.2168 35.1074 22.2168 Z M 83.8379 -6.25 C 81.543 -6.25 80.127 -7.66602 80.127 -9.91211 C 80.127 -11.084 80.5664 -12.207 81.543 -13.2324 L 101.416 -36.1328 C 105.176 -40.4297 108.545 -44.5312 108.545 -49.2188 C 108.545 -55.0293 104.443 -58.7891 98.1445 -58.7891 C 92.334 -58.7891 88.2812 -55.6152 86.7188 -49.9023 C 86.084 -48.0469 85.0098 -46.9238 83.1543 -46.9238 C 81.0547 -46.9238 79.7363 -48.4863 79.7363 -50.6836 C 79.7363 -51.5137 79.8828 -52.1973 80.0781 -53.0762 C 81.8848 -60.4004 89.2578 -65.8691 97.8516 -65.8691 C 108.887 -65.8691 115.967 -59.5215 115.967 -49.8047 C 115.967 -43.1152 112.402 -37.9883 106.738 -31.543 L 91.2598 -13.916 L 91.2598 -13.4277 L 114.111 -13.4277 C 116.064 -13.4277 117.529 -12.1094 117.529 -9.86328 C 117.529 -7.66602 116.064 -6.25 114.111 -6.25 Z M 50.7812 -4.88281 C 38.2812 -4.88281 29.9805 -16.9922 29.9805 -35.2539 C 29.9805 -53.6621 38.2812 -65.7715 50.7812 -65.7715 C 63.3301 -65.7715 71.582 -53.6621 71.582 -35.2539 C 71.582 -16.9922 63.3301 -4.88281 50.7812 -4.88281 Z M 50.7812 -12.207 C 58.5938 -12.207 63.623 -21.1914 63.623 -35.2539 C 63.623 -49.5117 58.6426 -58.4961 50.7812 -58.4961 C 42.9199 -58.4961 37.9883 -49.5117 37.9883 -35.2539 C 37.9883 -21.1914 42.9688 -12.207 50.7812 -12.207 Z"/>
  </g>
  <g id="Medium-L" transform="matrix(1 0 0 1 1672.31 1556)">
   <path d="M 35.9863 22.998 L 112.549 22.998 C 125.635 22.998 132.422 16.2109 132.422 3.27148 L 132.422 -73.6328 C 132.422 -86.5234 125.635 -93.3105 112.549 -93.3105 L 35.9863 -93.3105 C 22.9004 -93.3105 16.0645 -86.5723 16.0645 -73.6328 L 16.0645 3.27148 C 16.0645 16.2598 22.9004 22.998 35.9863 22.998 Z M 84.9121 -6.44531 C 82.373 -6.44531 80.7617 -8.1543 80.7617 -10.6934 C 80.7617 -12.1582 81.25 -13.4766 82.5195 -14.8438 L 101.172 -36.2793 C 104.883 -40.4785 108.057 -44.3359 108.057 -48.7793 C 108.057 -54.0527 104.297 -57.4707 98.584 -57.4707 C 93.3594 -57.4707 89.6973 -54.6387 88.2324 -49.4141 C 87.5 -47.4121 86.3281 -46.1914 84.2285 -46.1914 C 81.8359 -46.1914 80.3223 -47.8516 80.3223 -50.293 C 80.3223 -51.2207 80.4688 -52.002 80.7129 -52.9785 C 82.5684 -60.2539 89.8438 -65.625 98.4375 -65.625 C 109.375 -65.625 116.406 -59.1797 116.406 -49.4629 C 116.406 -42.8223 112.891 -37.6953 107.324 -31.2988 L 93.2617 -15.2344 L 93.2617 -14.7461 L 114.014 -14.7461 C 116.357 -14.7461 118.018 -13.2324 118.018 -10.6445 C 118.018 -8.10547 116.357 -6.44531 114.014 -6.44531 Z M 51.9043 -5.12695 C 39.5508 -5.12695 31.3477 -16.6992 31.3477 -35.2539 C 31.3477 -54.0039 39.5508 -65.5273 51.9043 -65.5273 C 64.3066 -65.5273 72.5098 -54.0039 72.5098 -35.2539 C 72.5098 -16.6992 64.3066 -5.12695 51.9043 -5.12695 Z M 51.9531 -13.5742 C 58.9355 -13.5742 63.4277 -21.6309 63.4277 -35.2539 C 63.4277 -49.0234 58.9844 -57.0801 51.9531 -57.0801 C 44.9219 -57.0801 40.4785 -49.0234 40.4785 -35.2539 C 40.4785 -21.6309 44.9219 -13.5742 51.9531 -13.5742 Z"/>
  </g>
  <g id="Semibold-L" transform="matrix(1 0 0 1 1968.41 1556)">
   <path d="M 36.6699 23.584 L 113.037 23.584 C 126.514 23.584 133.594 16.5039 133.594 3.17383 L 133.594 -73.5352 C 133.594 -86.8164 126.514 -93.9453 113.037 -93.9453 L 36.6699 -93.9453 C 23.2422 -93.9453 16.0645 -86.8652 16.0645 -73.5352 L 16.0645 3.17383 C 16.0645 16.5527 23.2422 23.584 36.6699 23.584 Z M 85.791 -6.64062 C 82.959 -6.64062 81.2012 -8.54492 81.2012 -11.2305 C 81.2012 -12.9883 81.7383 -14.502 83.252 -16.1133 L 100.928 -36.377 C 104.59 -40.4785 107.666 -44.1895 107.666 -48.4375 C 107.666 -53.3203 104.199 -56.4941 98.9258 -56.4941 C 94.0918 -56.4941 90.7227 -53.8574 89.3555 -49.0723 C 88.5742 -46.9238 87.3047 -45.6055 85.0098 -45.6055 C 82.4707 -45.6055 80.7617 -47.3633 80.7617 -50 C 80.7617 -51.0254 80.9082 -51.8555 81.2012 -52.8809 C 83.0566 -60.1562 90.332 -65.4297 98.8281 -65.4297 C 109.766 -65.4297 116.748 -58.9355 116.748 -49.2676 C 116.797 -42.5781 113.33 -37.4512 107.764 -31.1035 L 94.7754 -16.2598 L 94.7754 -15.7715 L 113.916 -15.7715 C 116.602 -15.7715 118.359 -14.1113 118.359 -11.2793 C 118.359 -8.44727 116.602 -6.64062 113.916 -6.64062 Z M 52.7832 -5.27344 C 40.5273 -5.27344 32.4219 -16.4551 32.4219 -35.2539 C 32.4219 -54.1992 40.5273 -65.332 52.7832 -65.332 C 65.0391 -65.332 73.2422 -54.1992 73.2422 -35.2539 C 73.2422 -16.4551 65.0391 -5.27344 52.7832 -5.27344 Z M 52.832 -14.6484 C 59.1797 -14.6484 63.2812 -22.0215 63.2812 -35.2539 C 63.2812 -48.6328 59.2285 -56.0059 52.832 -56.0059 C 46.4355 -56.0059 42.3828 -48.6328 42.3828 -35.2539 C 42.3828 -22.0215 46.4355 -14.6484 52.832 -14.6484 Z"/>
  </g>
  <g id="Bold-L" transform="matrix(1 0 0 1 2264.34 1556)">
   <path d="M 37.5488 24.3652 L 113.721 24.3652 C 127.686 24.3652 135.205 16.8945 135.205 3.07617 L 135.205 -73.3887 C 135.205 -87.207 127.686 -94.7266 113.721 -94.7266 L 37.5488 -94.7266 C 23.6328 -94.7266 16.0645 -87.2559 16.0645 -73.3887 L 16.0645 3.07617 C 16.0645 16.8945 23.6328 24.3652 37.5488 24.3652 Z M 86.8652 -6.88477 C 83.7891 -6.88477 81.8359 -9.0332 81.8359 -12.0117 C 81.8359 -14.1113 82.4219 -15.7715 84.2285 -17.7246 L 100.684 -36.5234 C 104.248 -40.5273 107.178 -43.9941 107.178 -47.998 C 107.178 -52.2949 104.053 -55.1758 99.3652 -55.1758 C 95.1172 -55.1758 92.1387 -52.832 90.8203 -48.5352 C 90.0391 -46.3379 88.623 -44.8242 86.0352 -44.8242 C 83.3008 -44.8242 81.3477 -46.7773 81.3477 -49.6094 C 81.3477 -50.7324 81.4941 -51.709 81.7871 -52.7832 C 83.7891 -60.0098 90.9668 -65.1855 99.4141 -65.1855 C 110.303 -65.1855 117.188 -58.5938 117.236 -48.9258 C 117.285 -42.2852 113.818 -37.1094 108.35 -30.8594 L 96.8262 -17.627 L 96.8262 -17.0898 L 113.818 -17.0898 C 116.846 -17.0898 118.848 -15.2832 118.848 -12.0605 C 118.848 -8.83789 116.846 -6.88477 113.818 -6.88477 Z M 53.9062 -5.51758 C 41.8457 -5.51758 33.7891 -16.1133 33.7891 -35.2539 C 33.7891 -54.541 41.8457 -65.0879 53.9062 -65.0879 C 66.0156 -65.0879 74.2188 -54.541 74.2188 -35.2539 C 74.2188 -16.1133 66.0156 -5.51758 53.9062 -5.51758 Z M 54.0527 -16.0156 C 59.5703 -16.0156 63.1348 -22.5098 63.1348 -35.2539 C 63.1348 -48.1445 59.5703 -54.5898 54.0527 -54.5898 C 48.3887 -54.5898 44.9219 -48.1445 44.9219 -35.2539 C 44.9219 -22.5098 48.4375 -16.0156 54.0527 -16.0156 Z"/>
  </g>
  <g id="Heavy-L" transform="matrix(1 0 0 1 2559.91 1556)">
   <path d="M 38.8184 25.4883 L 114.697 25.4883 C 129.346 25.4883 137.451 17.4316 137.451 2.88086 L 137.451 -73.2422 C 137.451 -87.793 129.346 -95.8496 114.697 -95.8496 L 38.8184 -95.8496 C 24.2188 -95.8496 16.0645 -87.793 16.0645 -73.2422 L 16.0645 2.88086 C 16.0645 17.4316 24.2188 25.4883 38.8184 25.4883 Z M 88.4766 -7.22656 C 84.9609 -7.22656 82.7148 -9.76562 82.7148 -13.0859 C 82.7148 -15.6738 83.4473 -17.6758 85.6445 -20.1172 L 100.293 -36.7188 C 103.76 -40.5762 106.494 -43.7012 106.494 -47.3633 C 106.494 -50.8301 103.809 -53.2715 100.049 -53.2715 C 96.582 -53.2715 94.1895 -51.3184 93.0176 -47.8516 C 92.1387 -45.4102 90.5273 -43.7012 87.5488 -43.7012 C 84.4727 -43.7012 82.2266 -45.8496 82.2266 -49.0234 C 82.2266 -50.3418 82.373 -51.416 82.7148 -52.5879 C 84.7656 -59.8145 91.8457 -64.7949 100.244 -64.7949 C 111.084 -64.7949 117.871 -58.1055 117.92 -48.4863 C 117.969 -41.8457 114.6 -36.6699 109.229 -30.4688 L 99.7559 -19.5801 L 99.7559 -19.043 L 113.623 -19.043 C 117.285 -19.043 119.58 -16.8945 119.58 -13.1836 C 119.58 -9.47266 117.285 -7.22656 113.623 -7.22656 Z M 55.5664 -5.85938 C 43.7012 -5.85938 35.8398 -15.625 35.8398 -35.2539 C 35.8398 -54.9805 43.7012 -64.7461 55.5664 -64.7461 C 67.4316 -64.7461 75.5859 -54.9805 75.5859 -35.2539 C 75.5859 -15.625 67.4316 -5.85938 55.5664 -5.85938 Z M 55.7129 -18.0664 C 60.0586 -18.0664 62.8418 -23.1934 62.8418 -35.2539 C 62.8418 -47.4121 60.1074 -52.5879 55.7129 -52.5879 C 51.3184 -52.5879 48.584 -47.4121 48.584 -35.2539 C 48.584 -23.1934 51.3184 -18.0664 55.7129 -18.0664 Z"/>
  </g>
  <g id="Black-L" transform="matrix(1 0 0 1 2855.62 1556)">
   <path d="M 39.9902 26.5137 L 115.576 26.5137 C 130.859 26.5137 139.502 17.8711 139.502 2.68555 L 139.502 -73.0957 C 139.502 -88.2812 130.859 -96.875 115.576 -96.875 L 39.9902 -96.875 C 24.7559 -96.875 16.0645 -88.2812 16.0645 -73.0957 L 16.0645 2.68555 C 16.0645 17.8711 24.7559 26.5137 39.9902 26.5137 Z M 89.9414 -7.51953 C 85.9863 -7.51953 83.4961 -10.4492 83.4961 -14.0625 C 83.4961 -17.0898 84.3262 -19.3848 86.9141 -22.2168 L 99.9512 -36.9141 C 103.32 -40.6738 105.859 -43.4082 105.859 -46.7773 C 105.859 -49.5605 103.613 -51.5625 100.635 -51.5625 C 97.9004 -51.5625 95.9961 -50 94.9219 -47.2168 C 93.9941 -44.6289 92.2363 -42.7246 88.916 -42.7246 C 85.5469 -42.7246 83.0078 -45.0195 83.0078 -48.4863 C 83.0078 -50 83.1543 -51.2207 83.5449 -52.4414 C 85.6934 -59.6191 92.627 -64.502 100.928 -64.502 C 111.768 -64.502 118.457 -57.666 118.555 -48.0957 C 118.604 -41.4551 115.283 -36.2305 110.01 -30.127 L 102.344 -21.3379 L 102.344 -20.8008 L 113.477 -20.8008 C 117.627 -20.8008 120.215 -18.4082 120.215 -14.209 C 120.215 -10.0098 117.627 -7.51953 113.477 -7.51953 Z M 57.0312 -6.15234 C 45.3613 -6.15234 37.5977 -15.2344 37.5977 -35.2539 C 37.5977 -55.3711 45.3613 -64.4531 57.0312 -64.4531 C 68.7012 -64.4531 76.8066 -55.3711 76.8066 -35.2539 C 76.8066 -15.2344 68.7012 -6.15234 57.0312 -6.15234 Z M 57.2754 -19.873 C 60.498 -19.873 62.6465 -23.8281 62.6465 -35.2539 C 62.6465 -46.7773 60.5469 -50.7324 57.2754 -50.7324 C 53.9062 -50.7324 51.8555 -46.7773 51.8555 -35.2539 C 51.8555 -23.8281 53.9062 -19.873 57.2754 -19.873 Z"/>
  </g>
 </g>
</svg>
