<?xml version="1.0" encoding="UTF-8"?>
<!--Generator: Apple Native CoreSVG 123-->
<!DOCTYPE svg
PUBLIC "-//W3C//DTD SVG 1.1//EN"
       "http://www.w3.org/Graphics/SVG/1.1/DTD/svg11.dtd">
<svg version="1.1" xmlns="http://www.w3.org/2000/svg" xmlns:xlink="http://www.w3.org/1999/xlink" width="3300" height="2200">
 <!--glyph: "uni10050D.medium", point size: 100.000000, font version: "Version 15.0d4e20", template writer version: "2"-->
 <g id="Notes">
  <rect height="2200" id="artboard" style="fill:white;opacity:1" width="3300" x="0" y="0"/>
  <line id="" style="fill:none;stroke:black;opacity:1;stroke-width:0.5;" x1="263" x2="3036" y1="292" y2="292"/>
  <text style="stroke:none;fill:black;font-family:-apple-system,&quot;SF Pro Display&quot;,&quot;SF Pro Text&quot;,Helvetica,sans-serif;font-weight:bold;" transform="matrix(1 0 0 1 263 322)">Weight/Scale Variations</text>
  <text style="stroke:none;fill:black;font-family:-apple-system,&quot;SF Pro Display&quot;,&quot;SF Pro Text&quot;,Helvetica,sans-serif;text-anchor:middle;" transform="matrix(1 0 0 1 559.711 322)">Ultralight</text>
  <text style="stroke:none;fill:black;font-family:-apple-system,&quot;SF Pro Display&quot;,&quot;SF Pro Text&quot;,Helvetica,sans-serif;text-anchor:middle;" transform="matrix(1 0 0 1 856.422 322)">Thin</text>
  <text style="stroke:none;fill:black;font-family:-apple-system,&quot;SF Pro Display&quot;,&quot;SF Pro Text&quot;,Helvetica,sans-serif;text-anchor:middle;" transform="matrix(1 0 0 1 1153.13 322)">Light</text>
  <text style="stroke:none;fill:black;font-family:-apple-system,&quot;SF Pro Display&quot;,&quot;SF Pro Text&quot;,Helvetica,sans-serif;text-anchor:middle;" transform="matrix(1 0 0 1 1449.84 322)">Regular</text>
  <text style="stroke:none;fill:black;font-family:-apple-system,&quot;SF Pro Display&quot;,&quot;SF Pro Text&quot;,Helvetica,sans-serif;text-anchor:middle;" transform="matrix(1 0 0 1 1746.56 322)">Medium</text>
  <text style="stroke:none;fill:black;font-family:-apple-system,&quot;SF Pro Display&quot;,&quot;SF Pro Text&quot;,Helvetica,sans-serif;text-anchor:middle;" transform="matrix(1 0 0 1 2043.27 322)">Semibold</text>
  <text style="stroke:none;fill:black;font-family:-apple-system,&quot;SF Pro Display&quot;,&quot;SF Pro Text&quot;,Helvetica,sans-serif;text-anchor:middle;" transform="matrix(1 0 0 1 2339.98 322)">Bold</text>
  <text style="stroke:none;fill:black;font-family:-apple-system,&quot;SF Pro Display&quot;,&quot;SF Pro Text&quot;,Helvetica,sans-serif;text-anchor:middle;" transform="matrix(1 0 0 1 2636.69 322)">Heavy</text>
  <text style="stroke:none;fill:black;font-family:-apple-system,&quot;SF Pro Display&quot;,&quot;SF Pro Text&quot;,Helvetica,sans-serif;text-anchor:middle;" transform="matrix(1 0 0 1 2933.4 322)">Black</text>
  <line id="" style="fill:none;stroke:black;opacity:1;stroke-width:0.5;" x1="263" x2="3036" y1="1903" y2="1903"/>
  <g id="" transform="matrix(1 0 0 1 263 1933)">
   <path d="M 9.24805 0.830078 C 13.5547 0.830078 17.1387 -2.74414 17.1387 -7.05078 C 17.1387 -11.3574 13.5449 -14.9316 9.23828 -14.9316 C 4.94141 -14.9316 1.36719 -11.3574 1.36719 -7.05078 C 1.36719 -2.74414 4.95117 0.830078 9.24805 0.830078 Z M 9.24805 -0.654297 C 5.70312 -0.654297 2.87109 -3.49609 2.87109 -7.05078 C 2.87109 -10.6055 5.69336 -13.4473 9.23828 -13.4473 C 12.793 -13.4473 15.6348 -10.6055 15.6445 -7.05078 C 15.6543 -3.49609 12.8027 -0.654297 9.24805 -0.654297 Z M 9.22852 -3.42773 C 9.69727 -3.42773 9.9707 -3.74023 9.9707 -4.25781 L 9.9707 -6.31836 L 12.1973 -6.31836 C 12.6953 -6.31836 13.0371 -6.57227 13.0371 -7.04102 C 13.0371 -7.51953 12.7148 -7.7832 12.1973 -7.7832 L 9.9707 -7.7832 L 9.9707 -10.0098 C 9.9707 -10.5273 9.69727 -10.8496 9.22852 -10.8496 C 8.75977 -10.8496 8.50586 -10.5078 8.50586 -10.0098 L 8.50586 -7.7832 L 6.29883 -7.7832 C 5.78125 -7.7832 5.44922 -7.51953 5.44922 -7.04102 C 5.44922 -6.57227 5.80078 -6.31836 6.29883 -6.31836 L 8.50586 -6.31836 L 8.50586 -4.25781 C 8.50586 -3.75977 8.75977 -3.42773 9.22852 -3.42773 Z"/>
  </g>
  <g id="" transform="matrix(1 0 0 1 281.506 1933)">
   <path d="M 11.709 2.91016 C 17.1484 2.91016 21.6699 -1.60156 21.6699 -7.05078 C 21.6699 -12.4902 17.1387 -17.0117 11.6992 -17.0117 C 6.25 -17.0117 1.74805 -12.4902 1.74805 -7.05078 C 1.74805 -1.60156 6.25977 2.91016 11.709 2.91016 Z M 11.709 1.25 C 7.09961 1.25 3.41797 -2.44141 3.41797 -7.05078 C 3.41797 -11.6504 7.08984 -15.3516 11.6992 -15.3516 C 16.2988 -15.3516 20 -11.6504 20.0098 -7.05078 C 20.0195 -2.44141 16.3086 1.25 11.709 1.25 Z M 11.6797 -2.41211 C 12.207 -2.41211 12.5195 -2.77344 12.5195 -3.33984 L 12.5195 -6.23047 L 15.5762 -6.23047 C 16.123 -6.23047 16.5039 -6.51367 16.5039 -7.03125 C 16.5039 -7.55859 16.1426 -7.86133 15.5762 -7.86133 L 12.5195 -7.86133 L 12.5195 -10.9277 C 12.5195 -11.5039 12.207 -11.8555 11.6797 -11.8555 C 11.1621 -11.8555 10.8789 -11.4844 10.8789 -10.9277 L 10.8789 -7.86133 L 7.83203 -7.86133 C 7.25586 -7.86133 6.89453 -7.55859 6.89453 -7.03125 C 6.89453 -6.51367 7.28516 -6.23047 7.83203 -6.23047 L 10.8789 -6.23047 L 10.8789 -3.33984 C 10.8789 -2.79297 11.1621 -2.41211 11.6797 -2.41211 Z"/>
  </g>
  <g id="" transform="matrix(1 0 0 1 304.914 1933)">
   <path d="M 14.9707 5.67383 C 21.9336 5.67383 27.6855 -0.078125 27.6855 -7.04102 C 27.6855 -14.0039 21.9238 -19.7559 14.9609 -19.7559 C 7.99805 -19.7559 2.25586 -14.0039 2.25586 -7.04102 C 2.25586 -0.078125 8.00781 5.67383 14.9707 5.67383 Z M 14.9707 3.85742 C 8.92578 3.85742 4.08203 -1.00586 4.08203 -7.04102 C 4.08203 -13.0762 8.91602 -17.9395 14.9609 -17.9395 C 20.9961 -17.9395 25.8594 -13.0762 25.8691 -7.04102 C 25.8789 -1.00586 21.0059 3.85742 14.9707 3.85742 Z M 14.9414 -1.06445 C 15.5176 -1.06445 15.8594 -1.45508 15.8594 -2.06055 L 15.8594 -6.13281 L 20.0977 -6.13281 C 20.6934 -6.13281 21.1133 -6.46484 21.1133 -7.02148 C 21.1133 -7.59766 20.7227 -7.93945 20.0977 -7.93945 L 15.8594 -7.93945 L 15.8594 -12.1875 C 15.8594 -12.8027 15.5176 -13.1934 14.9414 -13.1934 C 14.3848 -13.1934 14.0625 -12.7832 14.0625 -12.1875 L 14.0625 -7.93945 L 9.82422 -7.93945 C 9.20898 -7.93945 8.80859 -7.59766 8.80859 -7.02148 C 8.80859 -6.46484 9.23828 -6.13281 9.82422 -6.13281 L 14.0625 -6.13281 L 14.0625 -2.06055 C 14.0625 -1.47461 14.3848 -1.06445 14.9414 -1.06445 Z"/>
  </g>
  <text style="stroke:none;fill:black;font-family:-apple-system,&quot;SF Pro Display&quot;,&quot;SF Pro Text&quot;,Helvetica,sans-serif;font-weight:bold;" transform="matrix(1 0 0 1 263 1953)">Design Variations</text>
  <text style="stroke:none;fill:black;font-family:-apple-system,&quot;SF Pro Display&quot;,&quot;SF Pro Text&quot;,Helvetica,sans-serif;" transform="matrix(1 0 0 1 263 1971)">Symbols are supported in up to nine weights and three scales.</text>
  <text style="stroke:none;fill:black;font-family:-apple-system,&quot;SF Pro Display&quot;,&quot;SF Pro Text&quot;,Helvetica,sans-serif;" transform="matrix(1 0 0 1 263 1989)">For optimal layout with text and other symbols, vertically align</text>
  <text style="stroke:none;fill:black;font-family:-apple-system,&quot;SF Pro Display&quot;,&quot;SF Pro Text&quot;,Helvetica,sans-serif;" transform="matrix(1 0 0 1 263 2007)">symbols with the adjacent text.</text>
  <rect height="14" id="" style="fill:#00AEEF;stroke:none;opacity:0.4;" width="3" x="776" y="1919"/>
  <g id="" transform="matrix(1 0 0 1 779 1933)">
   <path d="M 10.5273 0 L 12.373 0 L 7.17773 -14.0918 L 5.43945 -14.0918 L 0.244141 0 L 2.08984 0 L 3.50586 -4.0332 L 9.11133 -4.0332 Z M 6.2793 -11.9531 L 6.33789 -11.9531 L 8.59375 -5.52734 L 4.02344 -5.52734 Z"/>
  </g>
  <rect height="14" id="" style="fill:#00AEEF;stroke:none;opacity:0.4;" width="3" x="791.617" y="1919"/>
  <text style="stroke:none;fill:black;font-family:-apple-system,&quot;SF Pro Display&quot;,&quot;SF Pro Text&quot;,Helvetica,sans-serif;font-weight:bold;" transform="matrix(1 0 0 1 776 1953)">Side Bearings</text>
  <text style="stroke:none;fill:black;font-family:-apple-system,&quot;SF Pro Display&quot;,&quot;SF Pro Text&quot;,Helvetica,sans-serif;" transform="matrix(1 0 0 1 776 1971)">Horizontal padding on the left and right side of each symbol</text>
  <text style="stroke:none;fill:black;font-family:-apple-system,&quot;SF Pro Display&quot;,&quot;SF Pro Text&quot;,Helvetica,sans-serif;" transform="matrix(1 0 0 1 776 1989)">can be adjusted by modifying the width of the blue rectangles.</text>
  <text style="stroke:none;fill:black;font-family:-apple-system,&quot;SF Pro Display&quot;,&quot;SF Pro Text&quot;,Helvetica,sans-serif;" transform="matrix(1 0 0 1 776 2007)">Modifications are automatically applied proportionally to all</text>
  <text style="stroke:none;fill:black;font-family:-apple-system,&quot;SF Pro Display&quot;,&quot;SF Pro Text&quot;,Helvetica,sans-serif;" transform="matrix(1 0 0 1 776 2025)">scales and weights.</text>
  <g id="" transform="matrix(1 0 0 1 1289 1933)">
   <path d="M 2.96875 2.35352 L 3.80859 3.19336 C 4.84375 4.22852 6.12305 4.15039 7.19727 2.97852 L 16.1621 -6.82617 C 16.5527 -6.74805 16.9629 -6.8457 17.4902 -7.02148 C 18.1738 -7.25586 18.2715 -7.25586 18.3887 -7.13867 C 18.5352 -7.01172 18.4863 -6.89453 18.2422 -6.25 C 17.8809 -5.33203 17.8125 -4.79492 18.5547 -4.02344 L 19.4238 -3.13477 C 20.2734 -2.24609 21.3281 -2.26562 22.2168 -3.14453 L 25.0586 -5.97656 C 25.9473 -6.86523 25.957 -7.92969 25.0781 -8.7793 L 24.1797 -9.64844 C 23.4082 -10.4004 22.8711 -10.3516 21.9629 -9.98047 C 21.3184 -9.72656 21.2012 -9.6875 21.0645 -9.81445 C 20.9375 -9.93164 20.9473 -10.0391 21.1816 -10.7129 C 21.5332 -11.6895 21.5723 -12.2852 20.752 -13.0957 L 19.3359 -14.5117 C 15.1953 -18.6133 11.2305 -18.7402 7.65625 -15.4395 C 7.08008 -14.9023 6.99219 -14.1504 7.53906 -13.6133 L 7.79297 -13.3594 C 8.22266 -12.9297 8.86719 -12.8418 9.41406 -13.1152 C 11.0645 -13.9453 12.2559 -14.0234 13.457 -12.9785 L 13.0273 -11.416 C 12.8516 -10.8008 12.793 -10.3418 12.9199 -9.93164 L 3.18359 -1.04492 C 2.02148 0.0292969 1.93359 1.32812 2.96875 2.35352 Z M 8.96484 -14.4922 C 8.89648 -14.5703 8.86719 -14.6582 8.99414 -14.7559 C 11.709 -17.2852 15.0391 -16.8457 18.3496 -13.5254 L 19.6973 -12.168 C 20.0879 -11.7773 20.0977 -11.582 19.8828 -10.8691 C 19.6582 -10.127 19.502 -9.53125 20.1465 -8.88672 C 20.8105 -8.22266 21.2891 -8.41797 22.207 -8.63281 C 22.9004 -8.79883 23.0664 -8.79883 23.4473 -8.41797 L 24.0918 -7.77344 C 24.4043 -7.48047 24.4141 -7.32422 24.0723 -6.97266 L 21.2207 -4.13086 C 20.8887 -3.79883 20.7227 -3.79883 20.4297 -4.10156 L 19.7852 -4.75586 C 19.4141 -5.13672 19.4141 -5.30273 19.5801 -6.01562 C 19.7852 -6.88477 19.9805 -7.38281 19.3262 -8.04688 C 18.6719 -8.7207 18.0762 -8.57422 17.3438 -8.33008 C 16.5625 -8.06641 16.3281 -8.06641 15.8984 -8.49609 L 14.6094 -9.78516 C 14.1699 -10.2246 14.1309 -10.4395 14.2676 -10.9082 L 15.0293 -13.3984 C 13.3887 -15.2832 11.4941 -15.5566 9.20898 -14.4434 C 9.11133 -14.3945 9.04297 -14.4141 8.96484 -14.4922 Z M 3.96484 1.36719 C 3.52539 0.927734 3.54492 0.537109 4.14062 -0.00976562 L 13.7402 -8.81836 L 15 -7.55859 L 6.17188 2.02148 C 5.625 2.60742 5.24414 2.64648 4.79492 2.19727 Z"/>
  </g>
  <text style="stroke:none;fill:black;font-family:-apple-system,&quot;SF Pro Display&quot;,&quot;SF Pro Text&quot;,Helvetica,sans-serif;font-weight:bold;" transform="matrix(1 0 0 1 1289 1953)">Exporting</text>
  <text style="stroke:none;fill:black;font-family:-apple-system,&quot;SF Pro Display&quot;,&quot;SF Pro Text&quot;,Helvetica,sans-serif;" transform="matrix(1 0 0 1 1289 1971)">Symbols should be outlined when exporting to ensure the</text>
  <text style="stroke:none;fill:black;font-family:-apple-system,&quot;SF Pro Display&quot;,&quot;SF Pro Text&quot;,Helvetica,sans-serif;" transform="matrix(1 0 0 1 1289 1989)">design is preserved when submitting to Xcode.</text>
  <text id="template-version" style="stroke:none;fill:black;font-family:-apple-system,&quot;SF Pro Display&quot;,&quot;SF Pro Text&quot;,Helvetica,sans-serif;text-anchor:end;" transform="matrix(1 0 0 1 3036 1933)">Template v.0.1</text>
  <text style="stroke:none;fill:black;font-family:-apple-system,&quot;SF Pro Display&quot;,&quot;SF Pro Text&quot;,Helvetica,sans-serif;text-anchor:end;" transform="matrix(1 0 0 1 3036 1951)">Generated from 03.circle.fill</text>
  <text style="stroke:none;fill:black;font-family:-apple-system,&quot;SF Pro Display&quot;,&quot;SF Pro Text&quot;,Helvetica,sans-serif;text-anchor:end;" transform="matrix(1 0 0 1 3036 1969)">Typeset at 100 points</text>
  <text style="stroke:none;fill:black;font-family:-apple-system,&quot;SF Pro Display&quot;,&quot;SF Pro Text&quot;,Helvetica,sans-serif;" transform="matrix(1 0 0 1 263 726)">Small</text>
  <text style="stroke:none;fill:black;font-family:-apple-system,&quot;SF Pro Display&quot;,&quot;SF Pro Text&quot;,Helvetica,sans-serif;" transform="matrix(1 0 0 1 263 1156)">Medium</text>
  <text style="stroke:none;fill:black;font-family:-apple-system,&quot;SF Pro Display&quot;,&quot;SF Pro Text&quot;,Helvetica,sans-serif;" transform="matrix(1 0 0 1 263 1586)">Large</text>
 </g>
 <g id="Guides">
  <g id="H-reference" style="fill:#27AAE1;stroke:none;" transform="matrix(1 0 0 1 339 696)">
   <path d="M 54.9316 0 L 57.666 0 L 30.5664 -70.459 L 28.0762 -70.459 L 0.976562 0 L 3.66211 0 L 12.9395 -24.4629 L 45.7031 -24.4629 Z M 29.1992 -67.0898 L 29.4434 -67.0898 L 44.8242 -26.709 L 13.8184 -26.709 Z"/>
  </g>
  <line id="Baseline-S" style="fill:none;stroke:#27AAE1;opacity:1;stroke-width:0.577;" x1="263" x2="3036" y1="696" y2="696"/>
  <line id="Capline-S" style="fill:none;stroke:#27AAE1;opacity:1;stroke-width:0.577;" x1="263" x2="3036" y1="625.541" y2="625.541"/>
  <g id="H-reference" style="fill:#27AAE1;stroke:none;" transform="matrix(1 0 0 1 339 1126)">
   <path d="M 54.9316 0 L 57.666 0 L 30.5664 -70.459 L 28.0762 -70.459 L 0.976562 0 L 3.66211 0 L 12.9395 -24.4629 L 45.7031 -24.4629 Z M 29.1992 -67.0898 L 29.4434 -67.0898 L 44.8242 -26.709 L 13.8184 -26.709 Z"/>
  </g>
  <line id="Baseline-M" style="fill:none;stroke:#27AAE1;opacity:1;stroke-width:0.577;" x1="263" x2="3036" y1="1126" y2="1126"/>
  <line id="Capline-M" style="fill:none;stroke:#27AAE1;opacity:1;stroke-width:0.577;" x1="263" x2="3036" y1="1055.54" y2="1055.54"/>
  <g id="H-reference" style="fill:#27AAE1;stroke:none;" transform="matrix(1 0 0 1 339 1556)">
   <path d="M 54.9316 0 L 57.666 0 L 30.5664 -70.459 L 28.0762 -70.459 L 0.976562 0 L 3.66211 0 L 12.9395 -24.4629 L 45.7031 -24.4629 Z M 29.1992 -67.0898 L 29.4434 -67.0898 L 44.8242 -26.709 L 13.8184 -26.709 Z"/>
  </g>
  <line id="Baseline-L" style="fill:none;stroke:#27AAE1;opacity:1;stroke-width:0.577;" x1="263" x2="3036" y1="1556" y2="1556"/>
  <line id="Capline-L" style="fill:none;stroke:#27AAE1;opacity:1;stroke-width:0.577;" x1="263" x2="3036" y1="1485.54" y2="1485.54"/>
  <rect height="119.336" id="left-margin" style="fill:#00AEEF;stroke:none;opacity:0.4;" width="8.74023" x="1391.32" y="1030.79"/>
  <rect height="119.336" id="right-margin" style="fill:#00AEEF;stroke:none;opacity:0.4;" width="8.69141" x="1499.67" y="1030.79"/>
 </g>
 <g id="Symbols">
  <g id="Ultralight-S" transform="matrix(1 0 0 1 515.644 696)">
   <path d="M 44.043 1.85547 C 64.502 1.85547 81.2988 -14.8926 81.2988 -35.3516 C 81.2988 -55.8105 64.502 -72.5586 44.043 -72.5586 C 23.584 -72.5586 6.83594 -55.8105 6.83594 -35.3516 C 6.83594 -14.8926 23.584 1.85547 44.043 1.85547 Z M 30.8594 -17.0898 C 23.4863 -17.0898 18.4082 -24.5117 18.4082 -35.4492 C 18.4082 -46.3867 23.4863 -53.8086 30.8594 -53.8086 C 38.2812 -53.8086 43.3594 -46.3867 43.3594 -35.4492 C 43.3594 -24.5117 38.2812 -17.0898 30.8594 -17.0898 Z M 59.8145 -17.041 C 54.3457 -17.041 49.7559 -19.9219 48.5352 -24.1699 C 48.4375 -24.5605 48.3887 -24.9512 48.3887 -25.293 C 48.3887 -26.0254 48.8281 -26.5137 49.5117 -26.5137 C 50.1953 -26.5137 50.5859 -26.1719 50.7324 -25.3906 C 51.5137 -21.7773 55.2734 -19.1895 59.8145 -19.1895 C 65.5273 -19.1895 69.3848 -22.4609 69.3848 -27.2461 C 69.3848 -31.5918 65.4785 -34.8633 60.3516 -34.8633 L 56.543 -34.8633 C 55.957 -34.8633 55.4688 -35.3516 55.4688 -36.0352 C 55.4688 -36.6699 55.957 -37.1582 56.543 -37.1582 L 60.0098 -37.1582 C 64.5996 -37.1582 68.1152 -40.3809 68.1152 -44.5801 C 68.1152 -48.7793 64.7461 -51.6113 59.7656 -51.6113 C 55.4199 -51.6113 52.002 -49.0723 51.5137 -45.4102 C 51.416 -44.6777 51.0254 -44.2383 50.293 -44.2383 C 49.6094 -44.2383 49.2188 -44.7754 49.2188 -45.5078 C 49.2188 -45.8496 49.2676 -46.1914 49.3164 -46.6309 C 49.8047 -50.8301 54.4922 -53.7598 59.7656 -53.7598 C 66.0156 -53.7598 70.5566 -50.0488 70.5566 -44.873 C 70.5566 -40.6738 67.5781 -37.0117 63.4766 -36.2305 L 63.4766 -36.0352 C 68.2129 -35.5469 71.875 -31.7383 71.875 -27.1973 C 71.875 -21.3379 66.7969 -17.041 59.8145 -17.041 Z M 30.8594 -19.2871 C 36.9141 -19.2871 40.9668 -25.8789 40.9668 -35.4492 C 40.9668 -45.0195 36.9141 -51.5625 30.8594 -51.5625 C 24.8535 -51.5625 20.8008 -45.0195 20.8008 -35.4492 C 20.8008 -25.8789 24.8535 -19.2871 30.8594 -19.2871 Z"/>
  </g>
  <g id="Thin-S" transform="matrix(1 0 0 1 811.867 696)">
   <path d="M 44.5801 2.39258 C 65.2832 2.39258 82.2754 -14.5996 82.2754 -35.3027 C 82.2754 -56.0547 65.2344 -73.0469 44.5312 -73.0469 C 23.8281 -73.0469 6.83594 -56.0547 6.83594 -35.3027 C 6.83594 -14.5996 23.877 2.39258 44.5801 2.39258 Z M 31.2988 -16.9922 C 23.877 -16.9922 18.7988 -24.4141 18.7988 -35.4004 C 18.7988 -46.4355 23.877 -53.8574 31.2988 -53.8574 C 38.8184 -53.8574 43.8965 -46.4355 43.8965 -35.4004 C 43.8965 -24.4141 38.8184 -16.9922 31.2988 -16.9922 Z M 60.0586 -16.9434 C 54.4922 -16.9434 49.8535 -20.0684 48.6816 -24.2188 C 48.584 -24.6582 48.5352 -25.0488 48.5352 -25.4395 C 48.5352 -26.416 49.1699 -27.0508 50.0488 -27.0508 C 50.8789 -27.0508 51.3184 -26.6113 51.5625 -25.6836 C 52.4414 -22.2656 55.8105 -19.873 60.0586 -19.873 C 65.332 -19.873 68.9453 -22.9492 68.9453 -27.3438 C 68.9453 -31.4941 65.3809 -34.4727 60.5469 -34.4727 L 57.0801 -34.4727 C 56.25 -34.4727 55.6641 -35.1074 55.6641 -35.9863 C 55.6641 -36.8652 56.25 -37.5 57.0801 -37.5 L 60.2539 -37.5 C 64.502 -37.5 67.7246 -40.4785 67.7246 -44.3848 C 67.7246 -48.2422 64.6484 -50.8789 60.0586 -50.8789 C 56.0059 -50.8789 52.9297 -48.584 52.3438 -45.0684 C 52.1484 -44.1895 51.6602 -43.7012 50.7812 -43.7012 C 49.9023 -43.7012 49.3164 -44.3848 49.3164 -45.3125 C 49.3164 -45.7031 49.3652 -46.0938 49.4141 -46.5332 C 50.0488 -50.7324 54.6875 -53.8086 60.1074 -53.8086 C 66.4062 -53.8086 70.8984 -50.0488 70.8984 -44.7754 C 70.8984 -40.625 68.0176 -36.9629 64.0137 -36.2793 L 64.0137 -36.0352 C 68.7012 -35.5469 72.2168 -31.7871 72.2168 -27.2461 C 72.2168 -21.2891 67.1387 -16.9434 60.0586 -16.9434 Z M 31.2988 -20.0195 C 36.9141 -20.0195 40.5762 -26.1719 40.5762 -35.4004 C 40.5762 -44.6289 36.9141 -50.7812 31.2988 -50.7812 C 25.7812 -50.7812 22.0703 -44.6289 22.0703 -35.4004 C 22.0703 -26.1719 25.7812 -20.0195 31.2988 -20.0195 Z"/>
  </g>
  <g id="Light-S" transform="matrix(1 0 0 1 1107.6 696)">
   <path d="M 45.5078 3.41797 C 66.6992 3.41797 84.2285 -14.1113 84.2285 -35.3027 C 84.2285 -56.4453 66.6504 -73.9746 45.5078 -73.9746 C 24.3164 -73.9746 6.83594 -56.4453 6.83594 -35.3027 C 6.83594 -14.1113 24.3652 3.41797 45.5078 3.41797 Z M 32.1777 -16.8457 C 24.6094 -16.8457 19.5312 -24.2188 19.5312 -35.3027 C 19.5312 -46.5332 24.6094 -53.8574 32.1777 -53.8574 C 39.7949 -53.8574 44.8242 -46.5332 44.8242 -35.3027 C 44.8242 -24.2188 39.7949 -16.8457 32.1777 -16.8457 Z M 60.5469 -16.8457 C 54.7363 -16.8457 50.0977 -20.2148 49.0234 -24.3164 C 48.877 -24.8047 48.8281 -25.2441 48.8281 -25.7324 C 48.8281 -27.1484 49.7559 -28.0762 51.0254 -28.0762 C 52.1484 -28.0762 52.7832 -27.4902 53.2227 -26.2207 C 54.248 -23.1445 56.8359 -21.2402 60.5469 -21.2402 C 64.9902 -21.2402 68.0664 -23.9258 68.0664 -27.5391 C 68.0664 -31.25 65.1855 -33.6914 60.8887 -33.6914 L 58.1055 -33.6914 C 56.8848 -33.6914 56.0547 -34.668 56.0547 -35.9375 C 56.0547 -37.2559 56.8848 -38.1348 58.1055 -38.1348 L 60.6445 -38.1348 C 64.3066 -38.1348 66.9434 -40.625 66.9434 -43.9941 C 66.9434 -47.2168 64.4043 -49.4629 60.6445 -49.4629 C 57.1289 -49.4629 54.7363 -47.6562 53.9062 -44.4824 C 53.5645 -43.2617 52.8809 -42.627 51.709 -42.627 C 50.3906 -42.627 49.5605 -43.5547 49.5605 -44.9707 C 49.5605 -45.459 49.5605 -45.8984 49.6582 -46.3867 C 50.5371 -50.5859 55.0293 -53.8574 60.7422 -53.8574 C 67.1387 -53.8574 71.6309 -50 71.6309 -44.5801 C 71.6309 -40.5273 68.8477 -36.9141 65.1367 -36.2793 L 65.1367 -36.0352 C 69.5801 -35.5957 72.8516 -31.8848 72.8516 -27.3438 C 72.8516 -21.2402 67.7734 -16.8457 60.5469 -16.8457 Z M 32.1777 -21.4355 C 36.8652 -21.4355 39.8438 -26.8066 39.8438 -35.3027 C 39.8438 -43.8965 36.9141 -49.3164 32.1777 -49.3164 C 27.4902 -49.3164 24.5605 -43.8965 24.5605 -35.3027 C 24.5605 -26.8066 27.5391 -21.4355 32.1777 -21.4355 Z"/>
  </g>
  <g id="Regular-S" transform="matrix(1 0 0 1 1403.58 696)">
   <path d="M 46.2402 4.15039 C 67.7734 4.15039 85.6934 -13.7207 85.6934 -35.2539 C 85.6934 -56.7871 67.7246 -74.6582 46.1914 -74.6582 C 24.707 -74.6582 6.83594 -56.7871 6.83594 -35.2539 C 6.83594 -13.7207 24.7559 4.15039 46.2402 4.15039 Z M 32.8613 -16.748 C 25.1465 -16.748 20.1172 -24.0723 20.1172 -35.2539 C 20.1172 -46.582 25.1465 -53.9062 32.8613 -53.9062 C 40.5273 -53.9062 45.5566 -46.582 45.5566 -35.2539 C 45.5566 -24.0723 40.5273 -16.748 32.8613 -16.748 Z M 60.8887 -16.748 C 54.9316 -16.748 50.2441 -20.3613 49.2676 -24.3652 C 49.1211 -24.9512 49.0234 -25.3906 49.0234 -25.9766 C 49.0234 -27.6855 50.1953 -28.8574 51.7578 -28.8574 C 53.125 -28.8574 53.8574 -28.1738 54.4922 -26.6602 C 55.5664 -23.8281 57.6172 -22.2168 60.9375 -22.2168 C 64.6973 -22.2168 67.3828 -24.6094 67.3828 -27.6855 C 67.3828 -31.0547 65.0391 -33.1055 61.1328 -33.1055 L 58.8867 -33.1055 C 57.373 -33.1055 56.3477 -34.3262 56.3477 -35.8887 C 56.3477 -37.5488 57.373 -38.623 58.8867 -38.623 L 60.9863 -38.623 C 64.1602 -38.623 66.3574 -40.7227 66.3574 -43.7012 C 66.3574 -46.4844 64.209 -48.4375 61.0352 -48.4375 C 57.959 -48.4375 56.1035 -46.9727 55.127 -44.043 C 54.5898 -42.5781 53.8574 -41.7969 52.3926 -41.7969 C 50.8301 -41.7969 49.707 -42.9688 49.707 -44.6777 C 49.707 -45.2637 49.707 -45.752 49.8535 -46.2891 C 50.8789 -50.4395 55.2734 -53.9062 61.1816 -53.9062 C 67.6758 -53.9062 72.168 -50 72.168 -44.4336 C 72.168 -40.4297 69.4824 -36.8652 65.9668 -36.3281 L 65.9668 -36.0352 C 70.2637 -35.5957 73.3398 -31.9824 73.3398 -27.4414 C 73.3398 -21.1914 68.2129 -16.748 60.8887 -16.748 Z M 32.8613 -22.5098 C 36.8652 -22.5098 39.2578 -27.2949 39.2578 -35.2539 C 39.2578 -43.3594 36.9141 -48.1445 32.8613 -48.1445 C 28.8086 -48.1445 26.416 -43.3594 26.416 -35.2539 C 26.416 -27.2949 28.8574 -22.5098 32.8613 -22.5098 Z"/>
  </g>
  <g id="Medium-S" transform="matrix(1 0 0 1 1699.7 696)">
   <path d="M 46.8262 4.73633 C 68.75 4.73633 86.8652 -13.3789 86.8652 -35.2539 C 86.8652 -57.1289 68.7012 -75.2441 46.8262 -75.2441 C 24.9023 -75.2441 6.83594 -57.1289 6.83594 -35.2539 C 6.83594 -13.3789 24.9512 4.73633 46.8262 4.73633 Z M 33.7402 -17.041 C 26.2207 -17.041 21.2891 -23.7793 21.2891 -35.2539 C 21.2891 -46.875 26.2207 -53.6133 33.7402 -53.6133 C 41.2109 -53.6133 46.2402 -46.875 46.2402 -35.2539 C 46.2402 -23.7793 41.2109 -17.041 33.7402 -17.041 Z M 61.2305 -16.9922 C 55.5176 -16.9922 50.8789 -20.5566 49.8535 -24.3164 C 49.6582 -24.9512 49.5605 -25.4883 49.5605 -26.123 C 49.5605 -28.0273 50.9277 -29.248 52.5391 -29.248 C 53.9551 -29.248 54.834 -28.5156 55.5176 -27.0996 C 56.5918 -24.5605 58.4961 -23.1934 61.3281 -23.1934 C 64.502 -23.1934 66.7969 -25.293 66.7969 -27.9297 C 66.7969 -30.8105 64.7461 -32.6172 61.4258 -32.6172 L 59.668 -32.6172 C 57.8125 -32.6172 56.6895 -33.9355 56.6895 -35.7422 C 56.6895 -37.5977 57.8613 -38.8672 59.668 -38.8672 L 61.2793 -38.8672 C 64.1113 -38.8672 65.918 -40.7227 65.918 -43.2617 C 65.918 -45.752 64.0625 -47.4609 61.3281 -47.4609 C 58.6426 -47.4609 57.0312 -46.1914 56.0547 -43.6035 C 55.4688 -42.1875 54.5898 -41.4062 53.0762 -41.4062 C 51.3672 -41.4062 50.1465 -42.627 50.1465 -44.5312 C 50.1465 -45.166 50.1953 -45.7031 50.4395 -46.3867 C 51.4648 -50.1465 55.6641 -53.5645 61.4746 -53.5645 C 68.0664 -53.5645 72.5586 -49.7559 72.5586 -44.1895 C 72.5586 -40.332 69.9707 -36.8652 66.5527 -36.3281 L 66.5527 -36.0352 C 70.6543 -35.5957 73.6328 -32.0312 73.6328 -27.5879 C 73.6328 -21.2891 68.6035 -16.9922 61.2305 -16.9922 Z M 33.7891 -23.584 C 37.1582 -23.584 39.209 -27.6367 39.209 -35.2539 C 39.209 -43.0176 37.207 -47.0703 33.7891 -47.0703 C 30.3711 -47.0703 28.3203 -43.0176 28.3203 -35.2539 C 28.3203 -27.6367 30.4199 -23.584 33.7891 -23.584 Z"/>
  </g>
  <g id="Semibold-S" transform="matrix(1 0 0 1 1995.98 696)">
   <path d="M 47.3145 5.22461 C 69.4824 5.22461 87.7441 -13.0859 87.7441 -35.2539 C 87.7441 -57.4219 69.4336 -75.6836 47.2656 -75.6836 C 25.0977 -75.6836 6.83594 -57.4219 6.83594 -35.2539 C 6.83594 -13.0859 25.0977 5.22461 47.3145 5.22461 Z M 34.4238 -17.2363 C 27.0508 -17.2363 22.2168 -23.5352 22.2168 -35.2539 C 22.2168 -47.0703 27.0508 -53.3691 34.4238 -53.3691 C 41.748 -53.3691 46.7285 -47.0703 46.7285 -35.2539 C 46.7285 -23.5352 41.748 -17.2363 34.4238 -17.2363 Z M 61.5234 -17.1875 C 55.9082 -17.1875 51.3672 -20.6543 50.2441 -24.3164 C 50.0488 -24.9512 49.9512 -25.5371 49.9512 -26.2207 C 49.9512 -28.2715 51.4648 -29.5898 53.125 -29.5898 C 54.6387 -29.5898 55.5664 -28.8086 56.2988 -27.3926 C 57.373 -25.1953 59.1309 -23.9746 61.6211 -23.9746 C 64.4043 -23.9746 66.3086 -25.7812 66.3086 -28.0762 C 66.3086 -30.6152 64.5508 -32.2266 61.6211 -32.2266 L 60.2539 -32.2266 C 58.1055 -32.2266 56.9336 -33.6426 56.9336 -35.6445 C 56.9336 -37.6465 58.252 -39.0137 60.2539 -39.0137 L 61.5234 -39.0137 C 64.0137 -39.0137 65.5762 -40.7227 65.5762 -42.9688 C 65.5762 -45.166 63.916 -46.7285 61.5234 -46.7285 C 59.1797 -46.7285 57.7148 -45.5566 56.7383 -43.2617 C 56.1035 -41.8945 55.127 -41.1133 53.5645 -41.1133 C 51.7578 -41.1133 50.4883 -42.3828 50.4883 -44.4336 C 50.4883 -45.1172 50.5859 -45.7031 50.8301 -46.4844 C 51.9043 -49.9023 55.957 -53.3691 61.7188 -53.3691 C 68.3594 -53.3691 72.8516 -49.5605 72.8516 -43.9453 C 72.8516 -40.2832 70.3125 -36.8652 66.9922 -36.3281 L 66.9922 -35.9863 C 70.9961 -35.6445 73.8281 -32.0801 73.8281 -27.6855 C 73.8281 -21.3867 68.8477 -17.1875 61.5234 -17.1875 Z M 34.4727 -24.3652 C 37.4023 -24.3652 39.209 -27.832 39.209 -35.2539 C 39.209 -42.7734 37.4512 -46.2402 34.4727 -46.2402 C 31.543 -46.2402 29.7852 -42.7734 29.7852 -35.2539 C 29.7852 -27.832 31.5918 -24.3652 34.4727 -24.3652 Z"/>
  </g>
  <g id="Bold-S" transform="matrix(1 0 0 1 2292.1 696)">
   <path d="M 47.9004 5.81055 C 70.4102 5.81055 88.916 -12.6953 88.916 -35.2051 C 88.916 -57.7637 70.4102 -76.2695 47.8516 -76.2695 C 25.293 -76.2695 6.83594 -57.7637 6.83594 -35.2051 C 6.83594 -12.6953 25.3418 5.81055 47.9004 5.81055 Z M 35.3027 -17.4805 C 28.1738 -17.4805 23.3887 -23.2422 23.3887 -35.2539 C 23.3887 -47.3633 28.1738 -53.0762 35.3027 -53.0762 C 42.4316 -53.0762 47.4121 -47.3633 47.4121 -35.2539 C 47.4121 -23.2422 42.4316 -17.4805 35.3027 -17.4805 Z M 61.8652 -17.4316 C 56.4941 -17.4316 52.002 -20.8008 50.8301 -24.3164 C 50.5859 -24.9512 50.4883 -25.6348 50.4883 -26.3672 C 50.4883 -28.6621 52.1973 -29.9805 53.9062 -29.9805 C 55.5176 -29.9805 56.543 -29.1992 57.373 -27.8809 C 58.3984 -25.9766 60.0098 -24.9512 61.9629 -24.9512 C 64.209 -24.9512 65.7227 -26.4648 65.7227 -28.2715 C 65.7227 -30.3711 64.2578 -31.6895 61.9141 -31.6895 L 61.0352 -31.6895 C 58.5449 -31.6895 57.3242 -33.3008 57.3242 -35.498 C 57.3242 -37.7441 58.7402 -39.2578 61.0352 -39.2578 L 61.8652 -39.2578 C 63.9648 -39.2578 65.1367 -40.7227 65.1367 -42.5293 C 65.1367 -44.4336 63.7695 -45.752 61.8164 -45.752 C 59.9121 -45.752 58.6426 -44.7754 57.666 -42.8223 C 56.9824 -41.5039 55.9082 -40.7227 54.248 -40.7227 C 52.2949 -40.7227 50.9766 -42.041 50.9766 -44.2871 C 50.9766 -45.0684 51.0742 -45.7031 51.416 -46.582 C 52.4902 -49.6094 56.3477 -53.0273 61.9629 -53.0273 C 68.7988 -53.0273 73.2422 -49.3164 73.2422 -43.6523 C 73.2422 -40.1367 70.8008 -36.8652 67.5781 -36.3281 L 67.5781 -35.9863 C 71.4355 -35.6445 74.0723 -32.1289 74.0723 -27.832 C 74.0723 -21.4844 69.2383 -17.4316 61.8652 -17.4316 Z M 35.4492 -25.4395 C 37.6953 -25.4395 39.1602 -28.1738 39.1602 -35.2539 C 39.1602 -42.3828 37.7441 -45.166 35.4492 -45.166 C 33.1055 -45.166 31.6895 -42.3828 31.6895 -35.2539 C 31.6895 -28.1738 33.1543 -25.4395 35.4492 -25.4395 Z"/>
  </g>
  <g id="Heavy-S" transform="matrix(1 0 0 1 2587.96 696)">
   <path d="M 48.7305 6.68945 C 71.8262 6.68945 90.625 -12.1094 90.625 -35.2051 C 90.625 -58.3008 71.8262 -77.0996 48.7305 -77.0996 C 25.6348 -77.0996 6.83594 -58.3008 6.83594 -35.2051 C 6.83594 -12.1094 25.6348 6.68945 48.7305 6.68945 Z M 36.6211 -17.8711 C 29.7363 -17.8711 25.1465 -22.8027 25.1465 -35.2539 C 25.1465 -47.7539 29.7363 -52.6855 36.6211 -52.6855 C 43.4082 -52.6855 48.3887 -47.7539 48.3887 -35.2539 C 48.3887 -22.8027 43.4082 -17.8711 36.6211 -17.8711 Z M 62.4023 -17.7734 C 57.3242 -17.7734 52.9297 -21.0449 51.6602 -24.2676 C 51.3672 -25 51.2695 -25.7812 51.2695 -26.5625 C 51.2695 -29.1504 53.2715 -30.5664 55.0293 -30.5664 C 56.7383 -30.5664 57.959 -29.7363 58.8867 -28.5156 C 59.9121 -27.0996 61.2793 -26.3672 62.5488 -26.3672 C 63.9648 -26.3672 64.8438 -27.4414 64.8438 -28.5645 C 64.8438 -30.0293 63.8672 -30.957 62.3047 -30.957 L 62.1582 -30.957 C 59.1797 -30.957 57.8125 -32.7148 57.8125 -35.2539 C 57.8125 -37.8418 59.4727 -39.5508 62.1582 -39.5508 L 62.3047 -39.5508 C 63.8184 -39.5508 64.502 -40.7715 64.502 -41.8945 C 64.502 -43.3594 63.5254 -44.3359 62.207 -44.3359 C 60.9375 -44.3359 60.0098 -43.6523 59.0332 -42.1875 C 58.2031 -40.9668 56.9824 -40.1367 55.2246 -40.1367 C 53.125 -40.1367 51.6113 -41.5527 51.6113 -44.0918 C 51.6113 -44.9219 51.7578 -45.7031 52.2461 -46.7285 C 53.3203 -49.1699 56.9336 -52.5879 62.4023 -52.5879 C 69.3848 -52.5879 73.8281 -48.9746 73.8281 -43.2617 C 73.8281 -39.9902 71.4844 -36.8652 68.457 -36.3281 L 68.457 -35.9375 C 72.0703 -35.6934 74.4629 -32.2266 74.4629 -28.0273 C 74.4629 -21.6797 69.7754 -17.7734 62.4023 -17.7734 Z M 36.8164 -26.9531 C 38.1348 -26.9531 39.1113 -28.6133 39.1113 -35.2539 C 39.1113 -41.8945 38.1348 -43.6035 36.8164 -43.6035 C 35.4004 -43.6035 34.4727 -41.8945 34.4727 -35.2539 C 34.4727 -28.6133 35.4004 -26.9531 36.8164 -26.9531 Z"/>
  </g>
  <g id="Black-S" transform="matrix(1 0 0 1 2883.89 696)">
   <path d="M 49.5117 7.4707 C 73.0957 7.4707 92.1875 -11.6211 92.1875 -35.2051 C 92.1875 -58.7891 73.0957 -77.8809 49.5117 -77.8809 C 25.9277 -77.8809 6.83594 -58.7891 6.83594 -35.2051 C 6.83594 -11.6211 25.9277 7.4707 49.5117 7.4707 Z M 37.7441 -18.1641 C 31.1523 -18.1641 26.709 -22.4121 26.709 -35.2539 C 26.709 -48.1445 31.1523 -52.2949 37.7441 -52.2949 C 44.2871 -52.2949 49.2676 -48.1445 49.2676 -35.2539 C 49.2676 -22.4121 44.2871 -18.1641 37.7441 -18.1641 Z M 62.8906 -18.0664 C 58.0566 -18.0664 53.7109 -21.2402 52.3926 -24.2188 C 52.0508 -25 51.9531 -25.8789 51.9531 -26.709 C 51.9531 -29.5898 54.248 -31.0547 56.0059 -31.0547 C 57.9102 -31.0547 59.2285 -30.2246 60.2539 -29.1016 C 61.2305 -28.125 62.4023 -27.6367 63.0371 -27.6367 C 63.7207 -27.6367 64.0625 -28.3203 64.0625 -28.8574 C 64.0625 -29.6875 63.4766 -30.2734 62.6953 -30.2734 L 63.1348 -30.2734 C 59.7168 -30.2734 58.252 -32.2266 58.252 -35.0586 C 58.252 -37.8906 60.1074 -39.8438 63.1348 -39.8438 L 62.7441 -39.8438 C 63.7207 -39.8438 63.9648 -40.7715 63.9648 -41.3574 C 63.9648 -42.4316 63.3301 -43.0664 62.5488 -43.0664 C 61.8652 -43.0664 61.2305 -42.627 60.2539 -41.6504 C 59.3262 -40.4785 57.959 -39.6484 56.1035 -39.6484 C 53.8086 -39.6484 52.1973 -41.1133 52.1973 -43.9453 C 52.1973 -44.8242 52.3926 -45.7031 52.9785 -46.875 C 54.1016 -48.7793 57.4219 -52.1484 62.793 -52.1484 C 69.873 -52.1484 74.3164 -48.6328 74.3164 -42.8711 C 74.3164 -39.8926 72.1191 -36.8652 69.2383 -36.3281 L 69.2383 -35.8887 C 72.6074 -35.7422 74.8047 -32.2754 74.8047 -28.1738 C 74.8047 -21.8262 70.2637 -18.0664 62.8906 -18.0664 Z M 38.0371 -28.3203 C 38.5742 -28.3203 39.0137 -29.0039 39.0137 -35.2539 C 39.0137 -41.4551 38.5254 -42.1875 38.0371 -42.1875 C 37.4023 -42.1875 36.9141 -41.4551 36.9141 -35.2539 C 36.9141 -29.0039 37.4023 -28.3203 38.0371 -28.3203 Z"/>
  </g>
  <g id="Ultralight-M" transform="matrix(1 0 0 1 503.656 1126)">
   <path d="M 56.0547 11.9141 C 82.0801 11.9141 103.369 -9.375 103.369 -35.4004 C 103.369 -61.4258 82.0801 -82.7148 56.0547 -82.7148 C 30.0293 -82.7148 8.74023 -61.4258 8.74023 -35.4004 C 8.74023 -9.375 30.0293 11.9141 56.0547 11.9141 Z M 39.209 -12.0605 C 29.834 -12.0605 23.3398 -21.5332 23.3398 -35.498 C 23.3398 -49.4629 29.834 -58.9355 39.209 -58.9355 C 48.6816 -58.9355 55.1758 -49.4629 55.1758 -35.498 C 55.1758 -21.5332 48.6816 -12.0605 39.209 -12.0605 Z M 76.2695 -12.0117 C 69.2871 -12.0117 63.4277 -15.6738 61.8652 -21.0938 C 61.7676 -21.582 61.6699 -22.0215 61.6699 -22.4609 C 61.6699 -23.3398 62.2559 -23.9258 63.0371 -23.9258 C 63.8184 -23.9258 64.2578 -23.4863 64.4043 -22.6074 C 65.4297 -17.8711 70.3613 -14.502 76.2695 -14.502 C 83.7402 -14.502 88.7207 -18.75 88.7207 -24.9512 C 88.7207 -30.6641 83.6426 -34.9121 76.9531 -34.9121 L 72.0215 -34.9121 C 71.2891 -34.9121 70.7031 -35.4492 70.7031 -36.2793 C 70.7031 -37.0117 71.2891 -37.5488 72.0215 -37.5488 L 76.5137 -37.5488 C 82.4707 -37.5488 87.1094 -41.7969 87.1094 -47.2656 C 87.1094 -52.6855 82.7148 -56.3965 76.1719 -56.3965 C 70.5078 -56.3965 66.0645 -53.0762 65.4297 -48.291 C 65.3809 -47.4609 64.8926 -46.9727 64.0137 -46.9727 C 63.2324 -46.9727 62.7441 -47.5586 62.7441 -48.4375 C 62.7441 -48.877 62.793 -49.3164 62.8906 -49.8047 C 63.4766 -55.127 69.4824 -58.8867 76.1719 -58.8867 C 84.082 -58.8867 89.8926 -54.1504 89.8926 -47.5586 C 89.8926 -42.1875 86.084 -37.5 80.7617 -36.5234 L 80.7617 -36.2793 C 86.9141 -35.6445 91.6016 -30.7617 91.6016 -24.9512 C 91.6016 -17.4805 85.1562 -12.0117 76.2695 -12.0117 Z M 39.209 -14.6484 C 47.1191 -14.6484 52.4414 -23.1445 52.4414 -35.498 C 52.4414 -47.9004 47.1191 -56.3965 39.209 -56.3965 C 31.3965 -56.3965 26.0742 -47.9004 26.0742 -35.498 C 26.0742 -23.1445 31.3965 -14.6484 39.209 -14.6484 Z"/>
  </g>
  <g id="Thin-M" transform="matrix(1 0 0 1 799.806 1126)">
   <path d="M 56.5918 12.5 C 82.9102 12.5 104.492 -9.08203 104.492 -35.3516 C 104.492 -61.6699 82.9102 -83.252 56.5918 -83.252 C 30.3223 -83.252 8.74023 -61.6699 8.74023 -35.3516 C 8.74023 -9.08203 30.3223 12.5 56.5918 12.5 Z M 39.7461 -12.0117 C 30.2246 -12.0117 23.7793 -21.4355 23.7793 -35.4492 C 23.7793 -49.5117 30.2246 -58.9844 39.7461 -58.9844 C 49.2676 -58.9844 55.7129 -49.5117 55.7129 -35.4492 C 55.7129 -21.4355 49.2676 -12.0117 39.7461 -12.0117 Z M 76.5137 -11.9629 C 69.4336 -11.9629 63.5742 -15.7715 62.0605 -21.1426 C 61.9141 -21.6797 61.8652 -22.168 61.8652 -22.6562 C 61.8652 -23.7305 62.5977 -24.5117 63.5742 -24.5117 C 64.5508 -24.5117 65.0879 -24.0234 65.3809 -22.9004 C 66.4551 -18.4082 70.9961 -15.2832 76.5625 -15.2832 C 83.4961 -15.2832 88.2324 -19.3359 88.2324 -25.0977 C 88.2324 -30.5176 83.5449 -34.4727 77.1484 -34.4727 L 72.6074 -34.4727 C 71.6309 -34.4727 70.9473 -35.2051 70.9473 -36.2305 C 70.9473 -37.207 71.6309 -37.9395 72.6074 -37.9395 L 76.7578 -37.9395 C 82.373 -37.9395 86.6699 -41.8945 86.6699 -47.0215 C 86.6699 -52.0996 82.5684 -55.5664 76.5137 -55.5664 C 71.1426 -55.5664 67.0898 -52.5391 66.3574 -47.9492 C 66.1621 -46.9238 65.625 -46.3379 64.5508 -46.3379 C 63.5254 -46.3379 62.8906 -47.1191 62.8906 -48.1934 C 62.8906 -48.6816 62.9395 -49.1699 63.0371 -49.707 C 63.7695 -55.0781 69.6777 -58.9355 76.5625 -58.9355 C 84.5215 -58.9355 90.332 -54.1504 90.332 -47.4609 C 90.332 -42.1387 86.5723 -37.4512 81.4453 -36.5234 L 81.4453 -36.2793 C 87.4023 -35.6445 91.9434 -30.8105 91.9434 -25.0488 C 91.9434 -17.4805 85.5469 -11.9629 76.5137 -11.9629 Z M 39.7461 -15.4297 C 47.1191 -15.4297 52.002 -23.4863 52.002 -35.4492 C 52.002 -47.4609 47.1191 -55.5176 39.7461 -55.5176 C 32.4219 -55.5176 27.4902 -47.4609 27.4902 -35.4492 C 27.4902 -23.4863 32.4219 -15.4297 39.7461 -15.4297 Z"/>
  </g>
  <g id="Light-M" transform="matrix(1 0 0 1 1095.42 1126)">
   <path d="M 57.7148 13.6719 C 84.5215 13.6719 106.689 -8.49609 106.689 -35.3027 C 106.689 -62.1582 84.4727 -84.2773 57.666 -84.2773 C 30.8594 -84.2773 8.74023 -62.1582 8.74023 -35.3027 C 8.74023 -8.49609 30.8594 13.6719 57.7148 13.6719 Z M 40.7227 -11.8652 C 31.0547 -11.8652 24.6094 -21.2402 24.6094 -35.4004 C 24.6094 -49.6094 31.0547 -58.9844 40.7227 -58.9844 C 50.3906 -58.9844 56.8359 -49.6094 56.8359 -35.4004 C 56.8359 -21.2402 50.3906 -11.8652 40.7227 -11.8652 Z M 77.0508 -11.8164 C 69.7754 -11.8164 63.8184 -16.0156 62.4512 -21.2402 C 62.2559 -21.875 62.207 -22.4121 62.207 -22.998 C 62.207 -24.5605 63.2812 -25.6836 64.6973 -25.6836 C 66.0156 -25.6836 66.748 -25 67.2363 -23.5352 C 68.457 -19.4336 72.1191 -16.7969 77.0996 -16.7969 C 83.1055 -16.7969 87.2559 -20.4102 87.2559 -25.3418 C 87.2559 -30.2246 83.3008 -33.5938 77.5391 -33.5938 L 73.7793 -33.5938 C 72.3633 -33.5938 71.3867 -34.7168 71.3867 -36.1816 C 71.3867 -37.6465 72.3633 -38.6719 73.7793 -38.6719 L 77.2461 -38.6719 C 82.1777 -38.6719 85.791 -42.041 85.791 -46.582 C 85.791 -50.9766 82.2754 -54.0039 77.1484 -54.0039 C 72.4121 -54.0039 69.1406 -51.4648 68.1641 -47.2656 C 67.7734 -45.8496 66.9922 -45.1172 65.625 -45.1172 C 64.1113 -45.1172 63.1348 -46.2402 63.1348 -47.8027 C 63.1348 -48.3887 63.1836 -48.9258 63.2812 -49.5605 C 64.2578 -54.8828 70.0684 -58.9844 77.2461 -58.9844 C 85.3516 -58.9844 91.1133 -54.1016 91.1133 -47.2656 C 91.1133 -42.041 87.5 -37.4023 82.666 -36.5723 L 82.666 -36.2793 C 88.4277 -35.6445 92.7246 -30.957 92.7246 -25.1465 C 92.7246 -17.3828 86.2305 -11.8164 77.0508 -11.8164 Z M 40.7227 -17.041 C 47.0703 -17.041 51.1719 -24.2188 51.1719 -35.4004 C 51.1719 -46.6309 47.1191 -53.8086 40.7227 -53.8086 C 34.375 -53.8086 30.3223 -46.6309 30.3223 -35.4004 C 30.3223 -24.2188 34.4238 -17.041 40.7227 -17.041 Z"/>
  </g>
  <g id="Regular-M" transform="matrix(1 0 0 1 1391.32 1126)">
   <path d="M 58.5449 14.502 C 85.7422 14.502 108.35 -8.05664 108.35 -35.3027 C 108.35 -62.5 85.6934 -85.1074 58.4961 -85.1074 C 31.25 -85.1074 8.74023 -62.5 8.74023 -35.3027 C 8.74023 -8.05664 31.2988 14.502 58.5449 14.502 Z M 41.4551 -11.7188 C 31.6895 -11.7188 25.293 -21.0938 25.293 -35.3027 C 25.293 -49.6582 31.6895 -59.0332 41.4551 -59.0332 C 51.2207 -59.0332 57.666 -49.6582 57.666 -35.3027 C 57.666 -21.0938 51.2207 -11.7188 41.4551 -11.7188 Z M 77.4414 -11.7188 C 69.9707 -11.7188 64.0137 -16.1621 62.6953 -21.2891 C 62.5488 -22.0215 62.4512 -22.6074 62.4512 -23.2422 C 62.4512 -25.1953 63.7695 -26.5625 65.5762 -26.5625 C 67.0898 -26.5625 67.9688 -25.7324 68.6523 -23.9746 C 69.9707 -20.166 72.998 -17.9199 77.4902 -17.9199 C 82.7637 -17.9199 86.4746 -21.1914 86.4746 -25.5371 C 86.4746 -30.0293 83.1055 -32.959 77.832 -32.959 L 74.6094 -32.959 C 72.9004 -32.959 71.7285 -34.3262 71.7285 -36.1328 C 71.7285 -37.9883 72.9004 -39.209 74.6094 -39.209 L 77.5879 -39.209 C 82.0312 -39.209 85.1074 -42.1387 85.1074 -46.2402 C 85.1074 -50.0977 82.0801 -52.832 77.6367 -52.832 C 73.3887 -52.832 70.6543 -50.6836 69.4824 -46.7773 C 68.9453 -45.0684 68.0664 -44.1895 66.4062 -44.1895 C 64.5996 -44.1895 63.3301 -45.5566 63.3301 -47.4609 C 63.3301 -48.1445 63.3789 -48.7305 63.5254 -49.4629 C 64.6973 -54.7363 70.3613 -59.0332 77.7832 -59.0332 C 85.9863 -59.0332 91.748 -54.1016 91.748 -47.1191 C 91.748 -41.9434 88.2324 -37.3535 83.5938 -36.6211 L 83.5938 -36.2793 C 89.209 -35.6934 93.2617 -31.0059 93.2617 -25.2441 C 93.2617 -17.334 86.7676 -11.7188 77.4414 -11.7188 Z M 41.4551 -18.2617 C 47.0703 -18.2617 50.4883 -24.7559 50.4883 -35.3027 C 50.4883 -45.9961 47.1191 -52.5391 41.4551 -52.5391 C 35.8887 -52.5391 32.4219 -45.9961 32.4219 -35.3027 C 32.4219 -24.7559 35.9375 -18.2617 41.4551 -18.2617 Z"/>
  </g>
  <g id="Medium-M" transform="matrix(1 0 0 1 1687.33 1126)">
   <path d="M 59.2285 15.2344 C 86.8652 15.2344 109.717 -7.61719 109.717 -35.2539 C 109.717 -62.9395 86.8164 -85.791 59.1797 -85.791 C 31.543 -85.791 8.74023 -62.9395 8.74023 -35.2539 C 8.74023 -7.61719 31.5918 15.2344 59.2285 15.2344 Z M 42.4316 -11.9629 C 32.9102 -11.9629 26.5625 -20.8008 26.5625 -35.3027 C 26.5625 -49.9512 32.9102 -58.7402 42.4316 -58.7402 C 52.002 -58.7402 58.4473 -49.9512 58.4473 -35.3027 C 58.4473 -20.8008 52.002 -11.9629 42.4316 -11.9629 Z M 77.8809 -11.9629 C 70.6055 -11.9629 64.6973 -16.3574 63.3301 -21.2891 C 63.1348 -22.0215 62.9883 -22.7051 62.9883 -23.4375 C 62.9883 -25.6348 64.5508 -27.0508 66.4551 -27.0508 C 68.1152 -27.0508 69.0918 -26.2207 69.873 -24.4629 C 71.2402 -21.0449 73.9746 -19.0918 77.9297 -19.0918 C 82.5684 -19.0918 85.791 -21.9727 85.791 -25.7324 C 85.791 -29.7363 82.8125 -32.3242 78.1738 -32.3242 L 75.5371 -32.3242 C 73.3887 -32.3242 72.1191 -33.8867 72.1191 -35.9375 C 72.1191 -38.0859 73.4863 -39.502 75.5371 -39.502 L 77.9785 -39.502 C 81.9336 -39.502 84.5703 -42.1875 84.5703 -45.8008 C 84.5703 -49.2676 81.8848 -51.6602 77.9785 -51.6602 C 74.2188 -51.6602 71.7773 -49.8047 70.6055 -46.2891 C 69.9707 -44.5801 68.9453 -43.7012 67.1875 -43.7012 C 65.1855 -43.7012 63.8184 -45.1172 63.8184 -47.3145 C 63.8184 -48.0469 63.8672 -48.7305 64.1113 -49.5117 C 65.332 -54.4434 70.8008 -58.6914 78.125 -58.6914 C 86.4746 -58.6914 92.1875 -53.8574 92.1875 -46.7773 C 92.1875 -41.7969 88.8184 -37.3535 84.3262 -36.6211 L 84.3262 -36.2305 C 89.6973 -35.6934 93.6035 -31.1035 93.6035 -25.3906 C 93.6035 -17.4805 87.207 -11.9629 77.8809 -11.9629 Z M 42.4805 -19.4824 C 47.3633 -19.4824 50.3906 -25.1465 50.3906 -35.3027 C 50.3906 -45.5566 47.4121 -51.2695 42.4805 -51.2695 C 37.6465 -51.2695 34.6191 -45.5566 34.6191 -35.3027 C 34.6191 -25.1465 37.6465 -19.4824 42.4805 -19.4824 Z"/>
  </g>
  <g id="Semibold-M" transform="matrix(1 0 0 1 1983.5 1126)">
   <path d="M 59.7656 15.7715 C 87.7441 15.7715 110.791 -7.27539 110.791 -35.2539 C 110.791 -63.2324 87.6953 -86.2793 59.7168 -86.2793 C 31.7383 -86.2793 8.74023 -63.2324 8.74023 -35.2539 C 8.74023 -7.27539 31.7871 15.7715 59.7656 15.7715 Z M 43.2129 -12.1582 C 33.7891 -12.1582 27.5391 -20.5078 27.5391 -35.3027 C 27.5391 -50.1953 33.7891 -58.5449 43.2129 -58.5449 C 52.6367 -58.5449 59.0332 -50.1953 59.0332 -35.3027 C 59.0332 -20.5078 52.6367 -12.1582 43.2129 -12.1582 Z M 78.1738 -12.1094 C 71.0449 -12.1094 65.1855 -16.5039 63.7695 -21.2891 C 63.5254 -22.0703 63.4277 -22.7539 63.4277 -23.5352 C 63.4277 -25.9766 65.1855 -27.4414 67.1387 -27.4414 C 68.8965 -27.4414 69.9707 -26.5625 70.8496 -24.8535 C 72.168 -21.7285 74.7559 -19.9219 78.2715 -19.9219 C 82.373 -19.9219 85.2539 -22.5586 85.2539 -25.9277 C 85.2539 -29.541 82.5684 -31.8848 78.418 -31.8848 L 76.2207 -31.8848 C 73.7793 -31.8848 72.4121 -33.5449 72.4121 -35.8398 C 72.4121 -38.1836 73.9258 -39.7461 76.2207 -39.7461 L 78.2715 -39.7461 C 81.8359 -39.7461 84.1797 -42.1875 84.1797 -45.4102 C 84.1797 -48.6328 81.7383 -50.8301 78.2227 -50.8301 C 74.8535 -50.8301 72.6562 -49.1211 71.4844 -45.8984 C 70.752 -44.2383 69.6289 -43.3105 67.7734 -43.3105 C 65.625 -43.3105 64.209 -44.7754 64.209 -47.168 C 64.209 -47.998 64.2578 -48.6816 64.5508 -49.6094 C 65.8203 -54.1504 71.1426 -58.4961 78.418 -58.4961 C 86.8652 -58.4961 92.5781 -53.6621 92.5781 -46.5332 C 92.5781 -41.748 89.2578 -37.3535 84.8633 -36.6211 L 84.8633 -36.2305 C 90.1367 -35.7422 93.8477 -31.1523 93.8477 -25.4883 C 93.8477 -17.5293 87.5488 -12.1094 78.1738 -12.1094 Z M 43.3105 -20.4102 C 47.6074 -20.4102 50.293 -25.4395 50.293 -35.3027 C 50.293 -45.2637 47.6562 -50.293 43.3105 -50.293 C 38.9648 -50.293 36.2793 -45.2637 36.2793 -35.3027 C 36.2793 -25.4395 39.0137 -20.4102 43.3105 -20.4102 Z"/>
  </g>
  <g id="Bold-M" transform="matrix(1 0 0 1 2279.5 1126)">
   <path d="M 60.4492 16.5039 C 88.8672 16.5039 112.207 -6.83594 112.207 -35.2539 C 112.207 -63.6719 88.8672 -86.9629 60.4492 -86.9629 C 32.0312 -86.9629 8.74023 -63.6719 8.74023 -35.2539 C 8.74023 -6.83594 32.0801 16.5039 60.4492 16.5039 Z M 44.2383 -12.4023 C 35.0098 -12.4023 28.8574 -20.166 28.8574 -35.3027 C 28.8574 -50.4883 35.0098 -58.2031 44.2383 -58.2031 C 53.418 -58.2031 59.8145 -50.4883 59.8145 -35.3027 C 59.8145 -20.166 53.418 -12.4023 44.2383 -12.4023 Z M 78.6133 -12.3535 C 71.6309 -12.3535 65.8691 -16.6504 64.4043 -21.2891 C 64.1113 -22.0703 64.0137 -22.9004 64.0137 -23.7305 C 64.0137 -26.416 66.0156 -27.9785 68.0176 -27.9785 C 69.9219 -27.9785 71.1426 -27.0508 72.0703 -25.3906 C 73.3887 -22.6074 75.7324 -21.0938 78.7109 -21.0938 C 82.1777 -21.0938 84.5215 -23.3398 84.5215 -26.1719 C 84.5215 -29.248 82.2754 -31.25 78.7598 -31.25 L 77.0996 -31.25 C 74.2676 -31.25 72.8027 -33.1055 72.8027 -35.6934 C 72.8027 -38.2812 74.4629 -40.0391 77.0996 -40.0391 L 78.6133 -40.0391 C 81.7383 -40.0391 83.6426 -42.2363 83.6426 -44.9219 C 83.6426 -47.7539 81.543 -49.6582 78.5645 -49.6582 C 75.6836 -49.6582 73.7793 -48.1934 72.5586 -45.3613 C 71.7773 -43.75 70.5078 -42.7734 68.5547 -42.7734 C 66.2598 -42.7734 64.6484 -44.3848 64.6484 -47.0215 C 64.6484 -47.9004 64.7949 -48.6816 65.1855 -49.6582 C 66.4551 -53.8574 71.582 -58.1543 78.7598 -58.1543 C 87.3535 -58.1543 93.0664 -53.3691 93.0664 -46.2402 C 93.0664 -41.6016 89.8438 -37.3535 85.5957 -36.6211 L 85.5957 -36.1816 C 90.625 -35.7422 94.1895 -31.2012 94.1895 -25.6348 C 94.1895 -17.627 87.9883 -12.3535 78.6133 -12.3535 Z M 44.3359 -21.6309 C 47.9004 -21.6309 50.1953 -25.8301 50.1953 -35.3027 C 50.1953 -44.8242 47.9492 -49.0723 44.3359 -49.0723 C 40.7715 -49.0723 38.4766 -44.8242 38.4766 -35.3027 C 38.4766 -25.8301 40.7715 -21.6309 44.3359 -21.6309 Z"/>
  </g>
  <g id="Heavy-M" transform="matrix(1 0 0 1 2575.19 1126)">
   <path d="M 61.4746 17.5293 C 90.5273 17.5293 114.258 -6.20117 114.258 -35.2051 C 114.258 -64.2578 90.5273 -87.9883 61.4746 -87.9883 C 32.4219 -87.9883 8.74023 -64.2578 8.74023 -35.2051 C 8.74023 -6.20117 32.4707 17.5293 61.4746 17.5293 Z M 45.7031 -12.793 C 36.7188 -12.793 30.7617 -19.6777 30.7617 -35.2539 C 30.7617 -50.9277 36.7188 -57.8125 45.7031 -57.8125 C 54.5898 -57.8125 60.9375 -50.9277 60.9375 -35.2539 C 60.9375 -19.6777 54.5898 -12.793 45.7031 -12.793 Z M 79.1992 -12.6953 C 72.5098 -12.6953 66.8457 -16.8945 65.2832 -21.2402 C 64.9414 -22.1191 64.8438 -23.0469 64.8438 -23.9746 C 64.8438 -27.002 67.1875 -28.7109 69.2871 -28.7109 C 71.3867 -28.7109 72.8027 -27.7344 73.877 -26.123 C 75.1953 -23.9258 77.1484 -22.7539 79.3945 -22.7539 C 81.8359 -22.7539 83.4961 -24.4629 83.4961 -26.5137 C 83.4961 -28.8574 81.8359 -30.3711 79.1992 -30.3711 L 78.418 -30.3711 C 75 -30.3711 73.3887 -32.4707 73.3887 -35.4492 C 73.3887 -38.4277 75.293 -40.4785 78.418 -40.4785 L 79.1504 -40.4785 C 81.5918 -40.4785 82.9102 -42.2852 82.9102 -44.2383 C 82.9102 -46.4844 81.2988 -47.998 79.0527 -47.998 C 76.9043 -47.998 75.4395 -46.9238 74.2188 -44.6289 C 73.2422 -43.0664 71.7773 -42.041 69.6777 -42.041 C 67.1387 -42.041 65.3809 -43.75 65.3809 -46.7285 C 65.3809 -47.7051 65.5273 -48.6328 66.0645 -49.8047 C 67.4316 -53.3691 72.2168 -57.7148 79.2969 -57.7148 C 88.0371 -57.7148 93.75 -53.0273 93.75 -45.8008 C 93.75 -41.4551 90.6738 -37.3047 86.6211 -36.6211 L 86.6211 -36.1816 C 91.4062 -35.791 94.6777 -31.2988 94.6777 -25.8789 C 94.6777 -17.8223 88.623 -12.6953 79.1992 -12.6953 Z M 45.8984 -23.3887 C 48.3887 -23.3887 50 -26.3672 50 -35.2539 C 50 -44.1895 48.3887 -47.2168 45.8984 -47.2168 C 43.3105 -47.2168 41.6992 -44.1895 41.6992 -35.2539 C 41.6992 -26.3672 43.3594 -23.3887 45.8984 -23.3887 Z"/>
  </g>
  <g id="Black-M" transform="matrix(1 0 0 1 2871 1126)">
   <path d="M 62.4023 18.457 C 91.9922 18.457 116.064 -5.61523 116.064 -35.2051 C 116.064 -64.7949 91.9922 -88.8672 62.4023 -88.8672 C 32.8125 -88.8672 8.74023 -64.7949 8.74023 -35.2051 C 8.74023 -5.61523 32.8125 18.457 62.4023 18.457 Z M 46.9727 -13.0859 C 38.2812 -13.0859 32.4219 -19.2871 32.4219 -35.2539 C 32.4219 -51.3184 38.2812 -57.4219 46.9727 -57.4219 C 55.6152 -57.4219 61.9629 -51.3184 61.9629 -35.2539 C 61.9629 -19.2871 55.6152 -13.0859 46.9727 -13.0859 Z M 79.7363 -12.9883 C 73.291 -12.9883 67.7246 -17.1387 66.0645 -21.2402 C 65.6738 -22.168 65.5762 -23.1934 65.5762 -24.1699 C 65.5762 -27.5879 68.2129 -29.3945 70.459 -29.3945 C 72.7051 -29.3945 74.3164 -28.3203 75.4883 -26.7578 C 76.8066 -25.0977 78.4668 -24.2188 79.9316 -24.2188 C 81.543 -24.2188 82.5684 -25.4883 82.5684 -26.8066 C 82.5684 -28.5156 81.4453 -29.5898 79.6387 -29.5898 L 79.541 -29.5898 C 75.6348 -29.5898 73.877 -31.8848 73.877 -35.2539 C 73.877 -38.5742 76.0254 -40.8203 79.541 -40.8203 L 79.6387 -40.8203 C 81.4453 -40.8203 82.2266 -42.2852 82.2266 -43.6035 C 82.2266 -45.4102 81.0547 -46.5332 79.4922 -46.5332 C 77.9785 -46.5332 76.9043 -45.752 75.6348 -43.9941 C 74.6094 -42.4316 72.9492 -41.4062 70.7031 -41.4062 C 67.9199 -41.4062 66.0156 -43.2129 66.0156 -46.5332 C 66.0156 -47.6074 66.2109 -48.584 66.8457 -49.9023 C 68.2617 -52.9297 72.8027 -57.2754 79.7363 -57.2754 C 88.6719 -57.2754 94.3359 -52.6855 94.3359 -45.3613 C 94.3359 -41.3086 91.4062 -37.3047 87.5977 -36.6211 L 87.5977 -36.1328 C 92.0898 -35.8398 95.1172 -31.3965 95.1172 -26.0742 C 95.1172 -17.9688 89.1602 -12.9883 79.7363 -12.9883 Z M 47.2168 -25 C 48.7793 -25 49.8535 -26.9043 49.8535 -35.2539 C 49.8535 -43.6523 48.7793 -45.6055 47.2168 -45.6055 C 45.6543 -45.6055 44.5801 -43.6523 44.5801 -35.2539 C 44.5801 -26.9043 45.6543 -25 47.2168 -25 Z"/>
  </g>
  <g id="Ultralight-L" transform="matrix(1 0 0 1 487.641 1556)">
   <path d="M 72.0703 25.3906 C 105.566 25.3906 132.91 -1.95312 132.91 -35.4492 C 132.91 -68.8965 105.566 -96.2402 72.0703 -96.2402 C 38.623 -96.2402 11.2793 -68.8965 11.2793 -35.4492 C 11.2793 -1.95312 38.623 25.3906 72.0703 25.3906 Z M 50.3906 -5.41992 C 38.2812 -5.41992 29.9316 -17.627 29.9316 -35.5957 C 29.9316 -53.5645 38.2812 -65.8203 50.3906 -65.8203 C 62.5977 -65.8203 70.9473 -53.5645 70.9473 -35.5957 C 70.9473 -17.627 62.5977 -5.41992 50.3906 -5.41992 Z M 98.291 -5.32227 C 89.3555 -5.32227 81.7871 -9.96094 79.7363 -16.9922 C 79.5898 -17.627 79.541 -18.1641 79.541 -18.7012 C 79.541 -19.6777 80.1758 -20.4102 81.0547 -20.4102 C 82.0312 -20.4102 82.5195 -19.873 82.7148 -18.7988 C 83.9844 -12.6465 90.5762 -8.1543 98.291 -8.1543 C 108.105 -8.1543 114.697 -13.7207 114.697 -21.9238 C 114.697 -29.3945 108.008 -35.0098 99.2188 -35.0098 L 92.627 -35.0098 C 91.7969 -35.0098 91.1621 -35.6445 91.1621 -36.5723 C 91.1621 -37.4023 91.7969 -38.0371 92.627 -38.0371 L 98.6328 -38.0371 C 106.445 -38.0371 112.598 -43.6523 112.598 -50.8301 C 112.598 -58.0078 106.787 -62.8906 98.1934 -62.8906 C 90.6738 -62.8906 84.7656 -58.4961 84.0332 -52.2461 C 83.9844 -51.2207 83.3984 -50.6348 82.373 -50.6348 C 81.4453 -50.6348 80.9082 -51.3672 80.9082 -52.3438 C 80.9082 -52.8809 81.0059 -53.418 81.0547 -54.0527 C 81.7871 -60.9863 89.5508 -65.7227 98.1445 -65.7227 C 108.35 -65.7227 115.82 -59.6191 115.82 -51.1719 C 115.82 -44.2383 110.889 -38.1836 103.955 -36.8652 L 103.955 -36.5723 C 111.914 -35.7422 118.018 -29.4434 118.018 -21.9727 C 118.018 -12.3535 109.717 -5.32227 98.291 -5.32227 Z M 50.3906 -8.30078 C 60.791 -8.30078 67.8711 -19.4824 67.8711 -35.5957 C 67.8711 -51.7578 60.791 -62.9395 50.3906 -62.9395 C 40.0879 -62.9395 33.0078 -51.7578 33.0078 -35.5957 C 33.0078 -19.4824 40.0391 -8.30078 50.3906 -8.30078 Z"/>
  </g>
  <g id="Thin-L" transform="matrix(1 0 0 1 783.717 1556)">
   <path d="M 72.7051 26.0254 C 106.494 26.0254 134.131 -1.66016 134.131 -35.4004 C 134.131 -69.1895 106.445 -96.875 72.7051 -96.875 C 38.916 -96.875 11.2793 -69.1895 11.2793 -35.4004 C 11.2793 -1.66016 38.916 26.0254 72.7051 26.0254 Z M 50.9766 -5.32227 C 38.7695 -5.32227 30.4199 -17.5293 30.4199 -35.5469 C 30.4199 -53.6133 38.7695 -65.8203 50.9766 -65.8203 C 63.2324 -65.8203 71.582 -53.6133 71.582 -35.5469 C 71.582 -17.5293 63.2324 -5.32227 50.9766 -5.32227 Z M 98.584 -5.22461 C 89.502 -5.22461 81.9336 -10.0586 79.9805 -17.041 C 79.7852 -17.7246 79.7363 -18.3105 79.7363 -18.8965 C 79.7363 -20.166 80.5176 -21.0449 81.7383 -21.0449 C 82.8613 -21.0449 83.4961 -20.459 83.7891 -19.1406 C 85.1074 -13.2324 91.2109 -9.0332 98.584 -9.0332 C 107.861 -9.0332 114.16 -14.3555 114.16 -22.0703 C 114.16 -29.248 107.861 -34.5215 99.4141 -34.5215 L 93.3105 -34.5215 C 92.2363 -34.5215 91.4062 -35.3516 91.4062 -36.5234 C 91.4062 -37.6465 92.2363 -38.4766 93.3105 -38.4766 L 98.877 -38.4766 C 106.348 -38.4766 112.109 -43.75 112.109 -50.5859 C 112.109 -57.373 106.641 -61.9629 98.5352 -61.9629 C 91.4062 -61.9629 85.9375 -57.8613 85.0586 -51.8555 C 84.9121 -50.6348 84.2285 -49.9512 82.959 -49.9512 C 81.7871 -49.9512 81.0547 -50.8301 81.0547 -52.0996 C 81.0547 -52.7344 81.1523 -53.2715 81.25 -53.9551 C 82.0801 -60.8887 89.7949 -65.7715 98.584 -65.7715 C 108.789 -65.7715 116.309 -59.6191 116.309 -51.0742 C 116.309 -44.1406 111.426 -38.1348 104.688 -36.9141 L 104.688 -36.5723 C 112.5 -35.7422 118.457 -29.4922 118.457 -22.0215 C 118.457 -12.3535 110.156 -5.22461 98.584 -5.22461 Z M 50.9766 -9.17969 C 60.791 -9.17969 67.3828 -19.873 67.3828 -35.5469 C 67.3828 -51.2695 60.791 -61.9629 50.9766 -61.9629 C 41.2109 -61.9629 34.6191 -51.2695 34.6191 -35.5469 C 34.6191 -19.873 41.2109 -9.17969 50.9766 -9.17969 Z"/>
  </g>
  <g id="Light-L" transform="matrix(1 0 0 1 1079.21 1556)">
   <path d="M 73.9258 27.2949 C 108.301 27.2949 136.572 -1.02539 136.572 -35.3516 C 136.572 -69.7266 108.252 -98.0469 73.877 -98.0469 C 39.5508 -98.0469 11.2793 -69.7266 11.2793 -35.3516 C 11.2793 -1.02539 39.5508 27.2949 73.9258 27.2949 Z M 52.0508 -5.12695 C 39.6973 -5.12695 31.3477 -17.2852 31.3477 -35.4492 C 31.3477 -53.7109 39.6973 -65.8691 52.0508 -65.8691 C 64.4531 -65.8691 72.8027 -53.7109 72.8027 -35.4492 C 72.8027 -17.2852 64.4531 -5.12695 52.0508 -5.12695 Z M 99.1699 -5.07812 C 89.8438 -5.07812 82.2266 -10.3027 80.3711 -17.1387 C 80.1758 -17.9199 80.0781 -18.5547 80.0781 -19.2871 C 80.0781 -21.0938 81.2988 -22.3633 82.959 -22.3633 C 84.4727 -22.3633 85.3027 -21.5332 85.8398 -19.8242 C 87.3535 -14.3555 92.5293 -10.6934 99.2188 -10.6934 C 107.422 -10.6934 113.037 -15.5762 113.037 -22.3633 C 113.037 -28.9062 107.568 -33.5449 99.8535 -33.5449 L 94.5801 -33.5449 C 93.0176 -33.5449 91.8945 -34.8145 91.8945 -36.4746 C 91.8945 -38.1348 93.0176 -39.3066 94.5801 -39.3066 L 99.4141 -39.3066 C 106.104 -39.3066 111.133 -43.9453 111.133 -50.0977 C 111.133 -56.1035 106.299 -60.2051 99.2676 -60.2051 C 92.8223 -60.2051 88.1836 -56.6895 87.0605 -51.123 C 86.6699 -49.4629 85.791 -48.584 84.1797 -48.584 C 82.4707 -48.584 81.3477 -49.8535 81.3477 -51.6602 C 81.3477 -52.3926 81.3965 -53.0273 81.543 -53.8086 C 82.666 -60.6934 90.2344 -65.8203 99.3652 -65.8203 C 109.766 -65.8203 117.188 -59.6191 117.188 -50.8301 C 117.188 -44.043 112.451 -38.0859 106.055 -36.9629 L 106.055 -36.5723 C 113.623 -35.791 119.287 -29.6387 119.287 -22.168 C 119.287 -12.2559 110.938 -5.07812 99.1699 -5.07812 Z M 52.0508 -10.9863 C 60.7422 -10.9863 66.4062 -20.7031 66.4062 -35.4492 C 66.4062 -50.3418 60.791 -60.0586 52.0508 -60.0586 C 43.4082 -60.0586 37.7441 -50.3418 37.7441 -35.4492 C 37.7441 -20.7031 43.4082 -10.9863 52.0508 -10.9863 Z"/>
  </g>
  <g id="Regular-L" transform="matrix(1 0 0 1 1374.99 1556)">
   <path d="M 74.8535 28.2715 C 109.668 28.2715 138.428 -0.537109 138.428 -35.3516 C 138.428 -70.1172 109.619 -98.9258 74.8047 -98.9258 C 39.9902 -98.9258 11.2793 -70.1172 11.2793 -35.3516 C 11.2793 -0.537109 40.0391 28.2715 74.8535 28.2715 Z M 52.8809 -5.0293 C 40.3809 -5.0293 32.0801 -17.1387 32.0801 -35.4004 C 32.0801 -53.8086 40.3809 -65.918 52.8809 -65.918 C 65.4297 -65.918 73.7305 -53.8086 73.7305 -35.4004 C 73.7305 -17.1387 65.4297 -5.0293 52.8809 -5.0293 Z M 99.6094 -4.98047 C 90.1367 -4.98047 82.4707 -10.498 80.7129 -17.2363 C 80.4688 -18.0664 80.3711 -18.75 80.3711 -19.5801 C 80.3711 -21.7773 81.8848 -23.3398 83.8867 -23.3398 C 85.6934 -23.3398 86.7188 -22.3633 87.4512 -20.3125 C 89.0625 -15.1855 93.5059 -11.9629 99.6582 -11.9629 C 107.08 -11.9629 112.207 -16.4551 112.207 -22.5586 C 112.207 -28.6621 107.373 -32.8125 100.195 -32.8125 L 95.6055 -32.8125 C 93.6523 -32.8125 92.2852 -34.375 92.2852 -36.4258 C 92.2852 -38.5254 93.6523 -39.9414 95.6055 -39.9414 L 99.8535 -39.9414 C 105.957 -39.9414 110.352 -44.043 110.352 -49.707 C 110.352 -55.127 106.055 -58.8867 99.8047 -58.8867 C 93.8965 -58.8867 89.9414 -55.8105 88.5742 -50.5371 C 87.9883 -48.584 86.9629 -47.5586 85.0586 -47.5586 C 82.959 -47.5586 81.5918 -49.0723 81.5918 -51.3184 C 81.5918 -52.0996 81.5918 -52.832 81.7871 -53.6621 C 83.1543 -60.5469 90.5762 -65.918 99.9512 -65.918 C 110.449 -65.918 117.871 -59.5703 117.871 -50.6836 C 117.871 -43.9453 113.281 -38.0371 107.129 -36.9629 L 107.129 -36.5723 C 114.453 -35.791 119.873 -29.7363 119.873 -22.2656 C 119.873 -12.207 111.523 -4.98047 99.6094 -4.98047 Z M 52.8809 -12.3535 C 60.7422 -12.3535 65.7227 -21.2891 65.7227 -35.4004 C 65.7227 -49.6582 60.791 -58.5938 52.8809 -58.5938 C 45.0684 -58.5938 40.0879 -49.6582 40.0879 -35.4004 C 40.0879 -21.2891 45.1172 -12.3535 52.8809 -12.3535 Z"/>
  </g>
  <g id="Medium-L" transform="matrix(1 0 0 1 1670.9 1556)">
   <path d="M 75.6348 29.1016 C 110.938 29.1016 140.039 -0.0488281 140.039 -35.3027 C 140.039 -70.6055 110.889 -99.707 75.5859 -99.707 C 40.332 -99.707 11.2793 -70.6055 11.2793 -35.3027 C 11.2793 -0.0488281 40.3809 29.1016 75.6348 29.1016 Z M 53.9551 -5.22461 C 41.6016 -5.22461 33.3984 -16.7969 33.3984 -35.3516 C 33.3984 -54.1016 41.6016 -65.6738 53.9551 -65.6738 C 66.3086 -65.6738 74.6094 -54.1016 74.6094 -35.3516 C 74.6094 -16.7969 66.3086 -5.22461 53.9551 -5.22461 Z M 100.098 -5.17578 C 90.7227 -5.17578 83.1055 -10.6934 81.2988 -17.2363 C 81.0547 -18.1152 80.9082 -18.8965 80.9082 -19.7754 C 80.9082 -22.3145 82.7148 -23.9746 84.8633 -23.9746 C 86.8164 -23.9746 87.9883 -22.9492 88.8672 -20.8984 C 90.4785 -16.1621 94.5801 -13.2324 100.146 -13.2324 C 106.787 -13.2324 111.426 -17.334 111.426 -22.8027 C 111.426 -28.3691 107.08 -32.1289 100.537 -32.1289 L 96.582 -32.1289 C 94.1895 -32.1289 92.6758 -33.8867 92.6758 -36.2305 C 92.6758 -38.6719 94.2383 -40.2832 96.582 -40.2832 L 100.244 -40.2832 C 105.811 -40.2832 109.766 -44.0918 109.766 -49.2188 C 109.766 -54.1992 105.859 -57.6172 100.195 -57.6172 C 94.873 -57.6172 91.2598 -54.834 89.8438 -50 C 89.1602 -47.998 87.9883 -46.875 85.8887 -46.875 C 83.5938 -46.875 82.0312 -48.584 82.0312 -51.0742 C 82.0312 -51.9531 82.1289 -52.7832 82.373 -53.7109 C 83.7891 -60.2051 91.0156 -65.625 100.342 -65.625 C 111.035 -65.625 118.408 -59.375 118.408 -50.3418 C 118.408 -43.8477 113.916 -37.9883 107.959 -37.0117 L 107.959 -36.5234 C 115.088 -35.8398 120.312 -29.7852 120.312 -22.4121 C 120.312 -12.3047 112.012 -5.17578 100.098 -5.17578 Z M 54.0039 -13.6719 C 61.0352 -13.6719 65.4785 -21.7773 65.4785 -35.3516 C 65.4785 -49.1211 61.084 -57.1777 54.0039 -57.1777 C 46.9727 -57.1777 42.5293 -49.1211 42.5293 -35.3516 C 42.5293 -21.7773 47.0215 -13.6719 54.0039 -13.6719 Z"/>
  </g>
  <g id="Semibold-L" transform="matrix(1 0 0 1 1967 1556)">
   <path d="M 76.2695 29.7363 C 111.914 29.7363 141.26 0.341797 141.26 -35.3027 C 141.26 -70.9473 111.865 -100.293 76.2207 -100.293 C 40.5762 -100.293 11.2793 -70.9473 11.2793 -35.3027 C 11.2793 0.341797 40.625 29.7363 76.2695 29.7363 Z M 54.7852 -5.37109 C 42.5293 -5.37109 34.4238 -16.5527 34.4238 -35.3516 C 34.4238 -54.2969 42.5293 -65.4785 54.7852 -65.4785 C 66.9922 -65.4785 75.293 -54.2969 75.293 -35.3516 C 75.293 -16.5527 66.9922 -5.37109 54.7852 -5.37109 Z M 100.439 -5.32227 C 91.1621 -5.32227 83.5938 -10.8398 81.7871 -17.2363 C 81.4941 -18.1641 81.3477 -18.9941 81.3477 -19.9219 C 81.3477 -22.7051 83.3496 -24.4629 85.6445 -24.4629 C 87.6953 -24.4629 88.9648 -23.3887 89.9414 -21.2891 C 91.6016 -16.8945 95.4102 -14.209 100.537 -14.209 C 106.592 -14.209 110.791 -18.0176 110.791 -22.998 C 110.791 -28.1738 106.836 -31.5918 100.83 -31.5918 L 97.3145 -31.5918 C 94.6289 -31.5918 93.0176 -33.5449 93.0176 -36.1328 C 93.0176 -38.8184 94.7266 -40.5762 97.3145 -40.5762 L 100.537 -40.5762 C 105.713 -40.5762 109.277 -44.1406 109.277 -48.8281 C 109.277 -53.4668 105.713 -56.6406 100.488 -56.6406 C 95.6055 -56.6406 92.2852 -54.1016 90.8691 -49.5605 C 90.0879 -47.5098 88.7695 -46.3867 86.5723 -46.3867 C 84.082 -46.3867 82.4219 -48.1445 82.4219 -50.9277 C 82.4219 -51.8555 82.5195 -52.7344 82.8125 -53.7598 C 84.3262 -59.9609 91.3574 -65.4297 100.684 -65.4297 C 111.475 -65.4297 118.848 -59.1797 118.848 -50.0977 C 118.848 -43.75 114.453 -37.9883 108.594 -37.0117 L 108.594 -36.5234 C 115.576 -35.8398 120.654 -29.8828 120.654 -22.5098 C 120.654 -12.3535 112.402 -5.32227 100.439 -5.32227 Z M 54.834 -14.7461 C 61.2305 -14.7461 65.2832 -22.1191 65.2832 -35.3516 C 65.2832 -48.7305 61.2793 -56.1035 54.834 -56.1035 C 48.4375 -56.1035 44.3848 -48.7305 44.3848 -35.3516 C 44.3848 -22.1191 48.4863 -14.7461 54.834 -14.7461 Z"/>
  </g>
  <g id="Bold-L" transform="matrix(1 0 0 1 2262.9 1556)">
   <path d="M 77.0996 30.5664 C 113.184 30.5664 142.92 0.830078 142.92 -35.2539 C 142.92 -71.3867 113.135 -101.074 77.0508 -101.074 C 40.918 -101.074 11.2793 -71.3867 11.2793 -35.2539 C 11.2793 0.830078 40.9668 30.5664 77.0996 30.5664 Z M 55.8105 -5.56641 C 43.75 -5.56641 35.7422 -16.2109 35.7422 -35.3516 C 35.7422 -54.5898 43.75 -65.1855 55.8105 -65.1855 C 67.8711 -65.1855 76.1719 -54.5898 76.1719 -35.3516 C 76.1719 -16.2109 67.8711 -5.56641 55.8105 -5.56641 Z M 100.879 -5.51758 C 91.748 -5.51758 84.2285 -11.0352 82.373 -17.2363 C 82.0801 -18.2129 81.9336 -19.1406 81.9336 -20.166 C 81.9336 -23.2422 84.1797 -25.0977 86.6211 -25.0977 C 88.8672 -25.0977 90.2832 -23.9746 91.3574 -21.875 C 93.0176 -17.8711 96.4844 -15.4785 101.025 -15.4785 C 106.348 -15.4785 110.01 -18.8965 110.01 -23.2422 C 110.01 -27.8809 106.494 -30.9082 101.172 -30.9082 L 98.3398 -30.9082 C 95.2148 -30.9082 93.457 -33.0566 93.457 -35.9863 C 93.457 -38.9648 95.3613 -40.9668 98.3398 -40.9668 L 100.977 -40.9668 C 105.615 -40.9668 108.691 -44.1895 108.691 -48.3398 C 108.691 -52.4902 105.518 -55.3711 100.928 -55.3711 C 96.5332 -55.3711 93.6523 -53.125 92.1387 -48.9746 C 91.2598 -46.9238 89.7949 -45.752 87.4512 -45.752 C 84.7656 -45.752 82.9102 -47.6562 82.9102 -50.6836 C 82.9102 -51.709 83.0078 -52.6367 83.3984 -53.8086 C 85.0098 -59.6191 91.8457 -65.1367 101.123 -65.1367 C 112.012 -65.1367 119.434 -58.9355 119.434 -49.8047 C 119.434 -43.6035 115.137 -37.9883 109.473 -37.0117 L 109.473 -36.4746 C 116.211 -35.8887 121.045 -29.9316 121.045 -22.6562 C 121.045 -12.4512 112.939 -5.51758 100.879 -5.51758 Z M 55.957 -16.1133 C 61.5234 -16.1133 65.0391 -22.5586 65.0391 -35.3516 C 65.0391 -48.1934 61.5723 -54.6875 55.957 -54.6875 C 50.3906 -54.6875 46.8262 -48.1934 46.8262 -35.3516 C 46.8262 -22.5586 50.3906 -16.1133 55.957 -16.1133 Z"/>
  </g>
  <g id="Heavy-L" transform="matrix(1 0 0 1 2558.42 1556)">
   <path d="M 78.2715 31.7871 C 115.039 31.7871 145.264 1.5625 145.264 -35.2539 C 145.264 -72.0215 115.039 -102.246 78.2227 -102.246 C 41.4551 -102.246 11.2793 -72.0215 11.2793 -35.2539 C 11.2793 1.5625 41.4551 31.7871 78.2715 31.7871 Z M 57.373 -5.85938 C 45.5566 -5.85938 37.6465 -15.7227 37.6465 -35.3027 C 37.6465 -55.0293 45.5566 -64.7949 57.373 -64.7949 C 69.1895 -64.7949 77.4414 -55.0293 77.4414 -35.3027 C 77.4414 -15.7227 69.1895 -5.85938 57.373 -5.85938 Z M 101.562 -5.76172 C 92.627 -5.76172 85.2051 -11.3281 83.3008 -17.2363 C 82.9102 -18.3105 82.7637 -19.3359 82.7637 -20.459 C 82.7637 -23.9746 85.4004 -26.0742 88.0371 -26.0742 C 90.5762 -26.0742 92.1875 -24.8047 93.4082 -22.7051 C 95.1172 -19.2871 98.0469 -17.3828 101.758 -17.3828 C 105.957 -17.3828 108.838 -20.166 108.838 -23.584 C 108.838 -27.4414 106.055 -29.8828 101.709 -29.8828 L 99.8047 -29.8828 C 95.9961 -29.8828 94.0918 -32.373 94.0918 -35.7422 C 94.0918 -39.209 96.2891 -41.5527 99.8047 -41.5527 L 101.562 -41.5527 C 105.42 -41.5527 107.764 -44.2871 107.764 -47.6074 C 107.764 -51.0742 105.176 -53.4668 101.514 -53.4668 C 97.9492 -53.4668 95.6055 -51.709 94.043 -48.1445 C 92.9688 -46.0449 91.3086 -44.7754 88.7207 -44.7754 C 85.6934 -44.7754 83.5938 -46.875 83.5938 -50.3418 C 83.5938 -51.5137 83.7402 -52.5391 84.2773 -53.9062 C 85.9863 -59.1309 92.4805 -64.6973 101.758 -64.6973 C 112.842 -64.6973 120.215 -58.5938 120.215 -49.3164 C 120.215 -43.4082 116.113 -37.9395 110.693 -37.0117 L 110.693 -36.4746 C 117.139 -35.9375 121.68 -30.0781 121.68 -22.9004 C 121.68 -12.5977 113.672 -5.76172 101.562 -5.76172 Z M 57.5684 -18.0664 C 61.9141 -18.0664 64.6973 -23.2422 64.6973 -35.3027 C 64.6973 -47.4609 61.9629 -52.6367 57.5684 -52.6367 C 53.1738 -52.6367 50.3906 -47.4609 50.3906 -35.3027 C 50.3906 -23.2422 53.2227 -18.0664 57.5684 -18.0664 Z"/>
  </g>
  <g id="Black-L" transform="matrix(1 0 0 1 2854.08 1556)">
   <path d="M 79.2969 32.8613 C 116.748 32.8613 147.363 2.19727 147.363 -35.2051 C 147.363 -72.6074 116.699 -103.271 79.2969 -103.271 C 41.8945 -103.271 11.2793 -72.6074 11.2793 -35.2051 C 11.2793 2.19727 41.8945 32.8613 79.2969 32.8613 Z M 58.7891 -6.15234 C 47.1191 -6.15234 39.3555 -15.2832 39.3555 -35.2539 C 39.3555 -55.3711 47.1191 -64.4531 58.7891 -64.4531 C 70.3613 -64.4531 78.6133 -55.3711 78.6133 -35.2539 C 78.6133 -15.2832 70.3613 -6.15234 58.7891 -6.15234 Z M 102.197 -6.00586 C 93.4082 -6.00586 86.0352 -11.5723 84.082 -17.2363 C 83.6914 -18.3594 83.4961 -19.5312 83.4961 -20.7031 C 83.4961 -24.6582 86.5234 -26.9043 89.3555 -26.9043 C 92.041 -26.9043 93.8965 -25.5859 95.2637 -23.4375 C 97.0215 -20.5078 99.4629 -19.043 102.393 -19.043 C 105.615 -19.043 107.764 -21.2891 107.764 -23.9258 C 107.764 -27.0508 105.615 -29.0039 102.148 -29.0039 L 101.074 -29.0039 C 96.7773 -29.0039 94.6289 -31.7383 94.6289 -35.5469 C 94.6289 -39.4043 97.1191 -42.041 101.074 -42.041 L 102.1 -42.041 C 105.273 -42.041 106.982 -44.3359 106.982 -46.9238 C 106.982 -49.8535 104.932 -51.8066 102.051 -51.8066 C 99.2188 -51.8066 97.3633 -50.4395 95.752 -47.4121 C 94.4824 -45.2637 92.627 -43.9453 89.8438 -43.9453 C 86.5234 -43.9453 84.2285 -46.1914 84.2285 -50.0488 C 84.2285 -51.3184 84.4238 -52.4902 85.0586 -53.9551 C 86.8652 -58.6914 93.1152 -64.3555 102.344 -64.3555 C 113.623 -64.3555 120.947 -58.252 120.947 -48.9258 C 120.947 -43.2617 116.992 -37.9395 111.816 -37.0605 L 111.816 -36.4258 C 117.969 -35.9375 122.217 -30.1758 122.217 -23.0957 C 122.217 -12.6953 114.307 -6.00586 102.197 -6.00586 Z M 59.0332 -19.873 C 62.3047 -19.873 64.4043 -23.8281 64.4043 -35.2539 C 64.4043 -46.7773 62.3047 -50.7812 59.0332 -50.7812 C 55.6641 -50.7812 53.6133 -46.7773 53.6133 -35.2539 C 53.6133 -23.8281 55.7129 -19.873 59.0332 -19.873 Z"/>
  </g>
 </g>
</svg>
