<?xml version="1.0" encoding="UTF-8"?>
<!--Generator: Apple Native CoreSVG 123-->
<!DOCTYPE svg
PUBLIC "-//W3C//DTD SVG 1.1//EN"
       "http://www.w3.org/Graphics/SVG/1.1/DTD/svg11.dtd">
<svg version="1.1" xmlns="http://www.w3.org/2000/svg" xmlns:xlink="http://www.w3.org/1999/xlink" width="3300" height="2200">
 <!--glyph: "uni1004EF.medium", point size: 100.000000, font version: "Version 15.0d4e20", template writer version: "2"-->
 <g id="Notes">
  <rect height="2200" id="artboard" style="fill:white;opacity:1" width="3300" x="0" y="0"/>
  <line id="" style="fill:none;stroke:black;opacity:1;stroke-width:0.5;" x1="263" x2="3036" y1="292" y2="292"/>
  <text style="stroke:none;fill:black;font-family:-apple-system,&quot;SF Pro Display&quot;,&quot;SF Pro Text&quot;,Helvetica,sans-serif;font-weight:bold;" transform="matrix(1 0 0 1 263 322)">Weight/Scale Variations</text>
  <text style="stroke:none;fill:black;font-family:-apple-system,&quot;SF Pro Display&quot;,&quot;SF Pro Text&quot;,Helvetica,sans-serif;text-anchor:middle;" transform="matrix(1 0 0 1 559.711 322)">Ultralight</text>
  <text style="stroke:none;fill:black;font-family:-apple-system,&quot;SF Pro Display&quot;,&quot;SF Pro Text&quot;,Helvetica,sans-serif;text-anchor:middle;" transform="matrix(1 0 0 1 856.422 322)">Thin</text>
  <text style="stroke:none;fill:black;font-family:-apple-system,&quot;SF Pro Display&quot;,&quot;SF Pro Text&quot;,Helvetica,sans-serif;text-anchor:middle;" transform="matrix(1 0 0 1 1153.13 322)">Light</text>
  <text style="stroke:none;fill:black;font-family:-apple-system,&quot;SF Pro Display&quot;,&quot;SF Pro Text&quot;,Helvetica,sans-serif;text-anchor:middle;" transform="matrix(1 0 0 1 1449.84 322)">Regular</text>
  <text style="stroke:none;fill:black;font-family:-apple-system,&quot;SF Pro Display&quot;,&quot;SF Pro Text&quot;,Helvetica,sans-serif;text-anchor:middle;" transform="matrix(1 0 0 1 1746.56 322)">Medium</text>
  <text style="stroke:none;fill:black;font-family:-apple-system,&quot;SF Pro Display&quot;,&quot;SF Pro Text&quot;,Helvetica,sans-serif;text-anchor:middle;" transform="matrix(1 0 0 1 2043.27 322)">Semibold</text>
  <text style="stroke:none;fill:black;font-family:-apple-system,&quot;SF Pro Display&quot;,&quot;SF Pro Text&quot;,Helvetica,sans-serif;text-anchor:middle;" transform="matrix(1 0 0 1 2339.98 322)">Bold</text>
  <text style="stroke:none;fill:black;font-family:-apple-system,&quot;SF Pro Display&quot;,&quot;SF Pro Text&quot;,Helvetica,sans-serif;text-anchor:middle;" transform="matrix(1 0 0 1 2636.69 322)">Heavy</text>
  <text style="stroke:none;fill:black;font-family:-apple-system,&quot;SF Pro Display&quot;,&quot;SF Pro Text&quot;,Helvetica,sans-serif;text-anchor:middle;" transform="matrix(1 0 0 1 2933.4 322)">Black</text>
  <line id="" style="fill:none;stroke:black;opacity:1;stroke-width:0.5;" x1="263" x2="3036" y1="1903" y2="1903"/>
  <g id="" transform="matrix(1 0 0 1 263 1933)">
   <path d="M 9.24805 0.830078 C 13.5547 0.830078 17.1387 -2.74414 17.1387 -7.05078 C 17.1387 -11.3574 13.5449 -14.9316 9.23828 -14.9316 C 4.94141 -14.9316 1.36719 -11.3574 1.36719 -7.05078 C 1.36719 -2.74414 4.95117 0.830078 9.24805 0.830078 Z M 9.24805 -0.654297 C 5.70312 -0.654297 2.87109 -3.49609 2.87109 -7.05078 C 2.87109 -10.6055 5.69336 -13.4473 9.23828 -13.4473 C 12.793 -13.4473 15.6348 -10.6055 15.6445 -7.05078 C 15.6543 -3.49609 12.8027 -0.654297 9.24805 -0.654297 Z M 9.22852 -3.42773 C 9.69727 -3.42773 9.9707 -3.74023 9.9707 -4.25781 L 9.9707 -6.31836 L 12.1973 -6.31836 C 12.6953 -6.31836 13.0371 -6.57227 13.0371 -7.04102 C 13.0371 -7.51953 12.7148 -7.7832 12.1973 -7.7832 L 9.9707 -7.7832 L 9.9707 -10.0098 C 9.9707 -10.5273 9.69727 -10.8496 9.22852 -10.8496 C 8.75977 -10.8496 8.50586 -10.5078 8.50586 -10.0098 L 8.50586 -7.7832 L 6.29883 -7.7832 C 5.78125 -7.7832 5.44922 -7.51953 5.44922 -7.04102 C 5.44922 -6.57227 5.80078 -6.31836 6.29883 -6.31836 L 8.50586 -6.31836 L 8.50586 -4.25781 C 8.50586 -3.75977 8.75977 -3.42773 9.22852 -3.42773 Z"/>
  </g>
  <g id="" transform="matrix(1 0 0 1 281.506 1933)">
   <path d="M 11.709 2.91016 C 17.1484 2.91016 21.6699 -1.60156 21.6699 -7.05078 C 21.6699 -12.4902 17.1387 -17.0117 11.6992 -17.0117 C 6.25 -17.0117 1.74805 -12.4902 1.74805 -7.05078 C 1.74805 -1.60156 6.25977 2.91016 11.709 2.91016 Z M 11.709 1.25 C 7.09961 1.25 3.41797 -2.44141 3.41797 -7.05078 C 3.41797 -11.6504 7.08984 -15.3516 11.6992 -15.3516 C 16.2988 -15.3516 20 -11.6504 20.0098 -7.05078 C 20.0195 -2.44141 16.3086 1.25 11.709 1.25 Z M 11.6797 -2.41211 C 12.207 -2.41211 12.5195 -2.77344 12.5195 -3.33984 L 12.5195 -6.23047 L 15.5762 -6.23047 C 16.123 -6.23047 16.5039 -6.51367 16.5039 -7.03125 C 16.5039 -7.55859 16.1426 -7.86133 15.5762 -7.86133 L 12.5195 -7.86133 L 12.5195 -10.9277 C 12.5195 -11.5039 12.207 -11.8555 11.6797 -11.8555 C 11.1621 -11.8555 10.8789 -11.4844 10.8789 -10.9277 L 10.8789 -7.86133 L 7.83203 -7.86133 C 7.25586 -7.86133 6.89453 -7.55859 6.89453 -7.03125 C 6.89453 -6.51367 7.28516 -6.23047 7.83203 -6.23047 L 10.8789 -6.23047 L 10.8789 -3.33984 C 10.8789 -2.79297 11.1621 -2.41211 11.6797 -2.41211 Z"/>
  </g>
  <g id="" transform="matrix(1 0 0 1 304.914 1933)">
   <path d="M 14.9707 5.67383 C 21.9336 5.67383 27.6855 -0.078125 27.6855 -7.04102 C 27.6855 -14.0039 21.9238 -19.7559 14.9609 -19.7559 C 7.99805 -19.7559 2.25586 -14.0039 2.25586 -7.04102 C 2.25586 -0.078125 8.00781 5.67383 14.9707 5.67383 Z M 14.9707 3.85742 C 8.92578 3.85742 4.08203 -1.00586 4.08203 -7.04102 C 4.08203 -13.0762 8.91602 -17.9395 14.9609 -17.9395 C 20.9961 -17.9395 25.8594 -13.0762 25.8691 -7.04102 C 25.8789 -1.00586 21.0059 3.85742 14.9707 3.85742 Z M 14.9414 -1.06445 C 15.5176 -1.06445 15.8594 -1.45508 15.8594 -2.06055 L 15.8594 -6.13281 L 20.0977 -6.13281 C 20.6934 -6.13281 21.1133 -6.46484 21.1133 -7.02148 C 21.1133 -7.59766 20.7227 -7.93945 20.0977 -7.93945 L 15.8594 -7.93945 L 15.8594 -12.1875 C 15.8594 -12.8027 15.5176 -13.1934 14.9414 -13.1934 C 14.3848 -13.1934 14.0625 -12.7832 14.0625 -12.1875 L 14.0625 -7.93945 L 9.82422 -7.93945 C 9.20898 -7.93945 8.80859 -7.59766 8.80859 -7.02148 C 8.80859 -6.46484 9.23828 -6.13281 9.82422 -6.13281 L 14.0625 -6.13281 L 14.0625 -2.06055 C 14.0625 -1.47461 14.3848 -1.06445 14.9414 -1.06445 Z"/>
  </g>
  <text style="stroke:none;fill:black;font-family:-apple-system,&quot;SF Pro Display&quot;,&quot;SF Pro Text&quot;,Helvetica,sans-serif;font-weight:bold;" transform="matrix(1 0 0 1 263 1953)">Design Variations</text>
  <text style="stroke:none;fill:black;font-family:-apple-system,&quot;SF Pro Display&quot;,&quot;SF Pro Text&quot;,Helvetica,sans-serif;" transform="matrix(1 0 0 1 263 1971)">Symbols are supported in up to nine weights and three scales.</text>
  <text style="stroke:none;fill:black;font-family:-apple-system,&quot;SF Pro Display&quot;,&quot;SF Pro Text&quot;,Helvetica,sans-serif;" transform="matrix(1 0 0 1 263 1989)">For optimal layout with text and other symbols, vertically align</text>
  <text style="stroke:none;fill:black;font-family:-apple-system,&quot;SF Pro Display&quot;,&quot;SF Pro Text&quot;,Helvetica,sans-serif;" transform="matrix(1 0 0 1 263 2007)">symbols with the adjacent text.</text>
  <rect height="14" id="" style="fill:#00AEEF;stroke:none;opacity:0.4;" width="3" x="776" y="1919"/>
  <g id="" transform="matrix(1 0 0 1 779 1933)">
   <path d="M 10.5273 0 L 12.373 0 L 7.17773 -14.0918 L 5.43945 -14.0918 L 0.244141 0 L 2.08984 0 L 3.50586 -4.0332 L 9.11133 -4.0332 Z M 6.2793 -11.9531 L 6.33789 -11.9531 L 8.59375 -5.52734 L 4.02344 -5.52734 Z"/>
  </g>
  <rect height="14" id="" style="fill:#00AEEF;stroke:none;opacity:0.4;" width="3" x="791.617" y="1919"/>
  <text style="stroke:none;fill:black;font-family:-apple-system,&quot;SF Pro Display&quot;,&quot;SF Pro Text&quot;,Helvetica,sans-serif;font-weight:bold;" transform="matrix(1 0 0 1 776 1953)">Side Bearings</text>
  <text style="stroke:none;fill:black;font-family:-apple-system,&quot;SF Pro Display&quot;,&quot;SF Pro Text&quot;,Helvetica,sans-serif;" transform="matrix(1 0 0 1 776 1971)">Horizontal padding on the left and right side of each symbol</text>
  <text style="stroke:none;fill:black;font-family:-apple-system,&quot;SF Pro Display&quot;,&quot;SF Pro Text&quot;,Helvetica,sans-serif;" transform="matrix(1 0 0 1 776 1989)">can be adjusted by modifying the width of the blue rectangles.</text>
  <text style="stroke:none;fill:black;font-family:-apple-system,&quot;SF Pro Display&quot;,&quot;SF Pro Text&quot;,Helvetica,sans-serif;" transform="matrix(1 0 0 1 776 2007)">Modifications are automatically applied proportionally to all</text>
  <text style="stroke:none;fill:black;font-family:-apple-system,&quot;SF Pro Display&quot;,&quot;SF Pro Text&quot;,Helvetica,sans-serif;" transform="matrix(1 0 0 1 776 2025)">scales and weights.</text>
  <g id="" transform="matrix(1 0 0 1 1289 1933)">
   <path d="M 2.96875 2.35352 L 3.80859 3.19336 C 4.84375 4.22852 6.12305 4.15039 7.19727 2.97852 L 16.1621 -6.82617 C 16.5527 -6.74805 16.9629 -6.8457 17.4902 -7.02148 C 18.1738 -7.25586 18.2715 -7.25586 18.3887 -7.13867 C 18.5352 -7.01172 18.4863 -6.89453 18.2422 -6.25 C 17.8809 -5.33203 17.8125 -4.79492 18.5547 -4.02344 L 19.4238 -3.13477 C 20.2734 -2.24609 21.3281 -2.26562 22.2168 -3.14453 L 25.0586 -5.97656 C 25.9473 -6.86523 25.957 -7.92969 25.0781 -8.7793 L 24.1797 -9.64844 C 23.4082 -10.4004 22.8711 -10.3516 21.9629 -9.98047 C 21.3184 -9.72656 21.2012 -9.6875 21.0645 -9.81445 C 20.9375 -9.93164 20.9473 -10.0391 21.1816 -10.7129 C 21.5332 -11.6895 21.5723 -12.2852 20.752 -13.0957 L 19.3359 -14.5117 C 15.1953 -18.6133 11.2305 -18.7402 7.65625 -15.4395 C 7.08008 -14.9023 6.99219 -14.1504 7.53906 -13.6133 L 7.79297 -13.3594 C 8.22266 -12.9297 8.86719 -12.8418 9.41406 -13.1152 C 11.0645 -13.9453 12.2559 -14.0234 13.457 -12.9785 L 13.0273 -11.416 C 12.8516 -10.8008 12.793 -10.3418 12.9199 -9.93164 L 3.18359 -1.04492 C 2.02148 0.0292969 1.93359 1.32812 2.96875 2.35352 Z M 8.96484 -14.4922 C 8.89648 -14.5703 8.86719 -14.6582 8.99414 -14.7559 C 11.709 -17.2852 15.0391 -16.8457 18.3496 -13.5254 L 19.6973 -12.168 C 20.0879 -11.7773 20.0977 -11.582 19.8828 -10.8691 C 19.6582 -10.127 19.502 -9.53125 20.1465 -8.88672 C 20.8105 -8.22266 21.2891 -8.41797 22.207 -8.63281 C 22.9004 -8.79883 23.0664 -8.79883 23.4473 -8.41797 L 24.0918 -7.77344 C 24.4043 -7.48047 24.4141 -7.32422 24.0723 -6.97266 L 21.2207 -4.13086 C 20.8887 -3.79883 20.7227 -3.79883 20.4297 -4.10156 L 19.7852 -4.75586 C 19.4141 -5.13672 19.4141 -5.30273 19.5801 -6.01562 C 19.7852 -6.88477 19.9805 -7.38281 19.3262 -8.04688 C 18.6719 -8.7207 18.0762 -8.57422 17.3438 -8.33008 C 16.5625 -8.06641 16.3281 -8.06641 15.8984 -8.49609 L 14.6094 -9.78516 C 14.1699 -10.2246 14.1309 -10.4395 14.2676 -10.9082 L 15.0293 -13.3984 C 13.3887 -15.2832 11.4941 -15.5566 9.20898 -14.4434 C 9.11133 -14.3945 9.04297 -14.4141 8.96484 -14.4922 Z M 3.96484 1.36719 C 3.52539 0.927734 3.54492 0.537109 4.14062 -0.00976562 L 13.7402 -8.81836 L 15 -7.55859 L 6.17188 2.02148 C 5.625 2.60742 5.24414 2.64648 4.79492 2.19727 Z"/>
  </g>
  <text style="stroke:none;fill:black;font-family:-apple-system,&quot;SF Pro Display&quot;,&quot;SF Pro Text&quot;,Helvetica,sans-serif;font-weight:bold;" transform="matrix(1 0 0 1 1289 1953)">Exporting</text>
  <text style="stroke:none;fill:black;font-family:-apple-system,&quot;SF Pro Display&quot;,&quot;SF Pro Text&quot;,Helvetica,sans-serif;" transform="matrix(1 0 0 1 1289 1971)">Symbols should be outlined when exporting to ensure the</text>
  <text style="stroke:none;fill:black;font-family:-apple-system,&quot;SF Pro Display&quot;,&quot;SF Pro Text&quot;,Helvetica,sans-serif;" transform="matrix(1 0 0 1 1289 1989)">design is preserved when submitting to Xcode.</text>
  <text id="template-version" style="stroke:none;fill:black;font-family:-apple-system,&quot;SF Pro Display&quot;,&quot;SF Pro Text&quot;,Helvetica,sans-serif;text-anchor:end;" transform="matrix(1 0 0 1 3036 1933)">Template v.0.1</text>
  <text style="stroke:none;fill:black;font-family:-apple-system,&quot;SF Pro Display&quot;,&quot;SF Pro Text&quot;,Helvetica,sans-serif;text-anchor:end;" transform="matrix(1 0 0 1 3036 1951)">Generated from 04.circle</text>
  <text style="stroke:none;fill:black;font-family:-apple-system,&quot;SF Pro Display&quot;,&quot;SF Pro Text&quot;,Helvetica,sans-serif;text-anchor:end;" transform="matrix(1 0 0 1 3036 1969)">Typeset at 100 points</text>
  <text style="stroke:none;fill:black;font-family:-apple-system,&quot;SF Pro Display&quot;,&quot;SF Pro Text&quot;,Helvetica,sans-serif;" transform="matrix(1 0 0 1 263 726)">Small</text>
  <text style="stroke:none;fill:black;font-family:-apple-system,&quot;SF Pro Display&quot;,&quot;SF Pro Text&quot;,Helvetica,sans-serif;" transform="matrix(1 0 0 1 263 1156)">Medium</text>
  <text style="stroke:none;fill:black;font-family:-apple-system,&quot;SF Pro Display&quot;,&quot;SF Pro Text&quot;,Helvetica,sans-serif;" transform="matrix(1 0 0 1 263 1586)">Large</text>
 </g>
 <g id="Guides">
  <g id="H-reference" style="fill:#27AAE1;stroke:none;" transform="matrix(1 0 0 1 339 696)">
   <path d="M 54.9316 0 L 57.666 0 L 30.5664 -70.459 L 28.0762 -70.459 L 0.976562 0 L 3.66211 0 L 12.9395 -24.4629 L 45.7031 -24.4629 Z M 29.1992 -67.0898 L 29.4434 -67.0898 L 44.8242 -26.709 L 13.8184 -26.709 Z"/>
  </g>
  <line id="Baseline-S" style="fill:none;stroke:#27AAE1;opacity:1;stroke-width:0.577;" x1="263" x2="3036" y1="696" y2="696"/>
  <line id="Capline-S" style="fill:none;stroke:#27AAE1;opacity:1;stroke-width:0.577;" x1="263" x2="3036" y1="625.541" y2="625.541"/>
  <g id="H-reference" style="fill:#27AAE1;stroke:none;" transform="matrix(1 0 0 1 339 1126)">
   <path d="M 54.9316 0 L 57.666 0 L 30.5664 -70.459 L 28.0762 -70.459 L 0.976562 0 L 3.66211 0 L 12.9395 -24.4629 L 45.7031 -24.4629 Z M 29.1992 -67.0898 L 29.4434 -67.0898 L 44.8242 -26.709 L 13.8184 -26.709 Z"/>
  </g>
  <line id="Baseline-M" style="fill:none;stroke:#27AAE1;opacity:1;stroke-width:0.577;" x1="263" x2="3036" y1="1126" y2="1126"/>
  <line id="Capline-M" style="fill:none;stroke:#27AAE1;opacity:1;stroke-width:0.577;" x1="263" x2="3036" y1="1055.54" y2="1055.54"/>
  <g id="H-reference" style="fill:#27AAE1;stroke:none;" transform="matrix(1 0 0 1 339 1556)">
   <path d="M 54.9316 0 L 57.666 0 L 30.5664 -70.459 L 28.0762 -70.459 L 0.976562 0 L 3.66211 0 L 12.9395 -24.4629 L 45.7031 -24.4629 Z M 29.1992 -67.0898 L 29.4434 -67.0898 L 44.8242 -26.709 L 13.8184 -26.709 Z"/>
  </g>
  <line id="Baseline-L" style="fill:none;stroke:#27AAE1;opacity:1;stroke-width:0.577;" x1="263" x2="3036" y1="1556" y2="1556"/>
  <line id="Capline-L" style="fill:none;stroke:#27AAE1;opacity:1;stroke-width:0.577;" x1="263" x2="3036" y1="1485.54" y2="1485.54"/>
  <rect height="119.336" id="left-margin" style="fill:#00AEEF;stroke:none;opacity:0.4;" width="8.74023" x="1391.32" y="1030.79"/>
  <rect height="119.336" id="right-margin" style="fill:#00AEEF;stroke:none;opacity:0.4;" width="8.69141" x="1499.67" y="1030.79"/>
 </g>
 <g id="Symbols">
  <g id="Ultralight-S" transform="matrix(1 0 0 1 515.644 696)">
   <path d="M 44.043 2.05078 C 64.502 2.05078 81.2988 -14.6973 81.2988 -35.1562 C 81.2988 -55.6152 64.502 -72.3633 44.043 -72.3633 C 23.584 -72.3633 6.83594 -55.6152 6.83594 -35.1562 C 6.83594 -14.6973 23.584 2.05078 44.043 2.05078 Z M 44.043 -0.146484 C 24.7559 -0.146484 9.08203 -15.8691 9.08203 -35.1562 C 9.08203 -54.4434 24.7559 -70.166 44.043 -70.166 C 63.3789 -70.166 79.0527 -54.4434 79.0527 -35.1562 C 79.0527 -15.8691 63.3789 -0.146484 44.043 -0.146484 Z M 31.4941 -17.8223 C 38.4766 -17.8223 43.2617 -24.8535 43.2617 -35.1562 C 43.2617 -45.459 38.4766 -52.4902 31.4941 -52.4902 C 24.4629 -52.4902 19.6777 -45.459 19.6777 -35.1562 C 19.6777 -24.8535 24.4629 -17.8223 31.4941 -17.8223 Z M 64.2578 -18.0176 C 64.9414 -18.0176 65.332 -18.5059 65.332 -19.1895 L 65.332 -26.5137 L 69.9707 -26.5137 C 70.6055 -26.5137 71.0449 -26.9531 71.0449 -27.5391 C 71.0449 -28.125 70.6055 -28.6133 69.9707 -28.6133 L 65.332 -28.6133 L 65.332 -50.7812 C 65.332 -51.8066 64.6484 -52.4414 63.5742 -52.4414 C 62.5 -52.4414 61.8652 -52.1484 61.1328 -51.0742 C 57.7148 -46.0938 49.8535 -34.4238 46.8262 -29.4922 C 46.6309 -29.1016 46.4355 -28.6621 46.4355 -28.1738 C 46.4355 -27.0996 47.1191 -26.5137 48.3398 -26.5137 L 63.1348 -26.5137 L 63.1348 -19.1895 C 63.1348 -18.5059 63.5742 -18.0176 64.2578 -18.0176 Z M 31.4941 -19.9707 C 25.8301 -19.9707 21.9238 -26.123 21.9238 -35.1562 C 21.9238 -44.2383 25.8301 -50.3906 31.4941 -50.3906 C 37.1582 -50.3906 41.0156 -44.2383 41.0156 -35.1562 C 41.0156 -26.123 37.1582 -19.9707 31.4941 -19.9707 Z M 63.1348 -28.6133 L 48.9258 -28.6133 L 48.9258 -28.8086 C 51.2695 -32.666 60.3027 -46.0938 62.9395 -49.9512 L 63.1348 -49.9512 Z"/>
  </g>
  <g id="Thin-S" transform="matrix(1 0 0 1 811.867 696)">
   <path d="M 44.5801 2.53906 C 65.2832 2.53906 82.2754 -14.4531 82.2754 -35.2051 C 82.2754 -55.9082 65.2344 -72.9004 44.5312 -72.9004 C 23.8281 -72.9004 6.83594 -55.9082 6.83594 -35.2051 C 6.83594 -14.4531 23.877 2.53906 44.5801 2.53906 Z M 44.5801 -0.878906 C 25.5859 -0.878906 10.2539 -16.2109 10.2539 -35.2051 C 10.2539 -54.1504 25.5859 -69.4824 44.5312 -69.4824 C 63.5254 -69.4824 78.8574 -54.1504 78.8574 -35.2051 C 78.8574 -16.2109 63.5254 -0.878906 44.5801 -0.878906 Z M 32.0312 -17.8223 C 39.1113 -17.8223 43.8477 -24.8047 43.8477 -35.2051 C 43.8477 -45.6055 39.1113 -52.5879 32.0312 -52.5879 C 25 -52.5879 20.2148 -45.6055 20.2148 -35.2051 C 20.2148 -24.8047 25 -17.8223 32.0312 -17.8223 Z M 64.5508 -18.1152 C 65.5273 -18.1152 66.0645 -18.75 66.0645 -19.7754 L 66.0645 -26.1719 L 70.0195 -26.1719 C 70.8496 -26.1719 71.4355 -26.709 71.4355 -27.5391 C 71.4355 -28.3691 70.8496 -28.9551 70.0195 -28.9551 L 66.0645 -28.9551 L 66.0645 -50.2441 C 66.0645 -51.6602 65.0879 -52.5391 63.6719 -52.5391 C 62.2559 -52.5391 61.377 -52.0508 60.498 -50.6836 C 57.0801 -45.5078 50.2441 -35.1074 47.3145 -30.1758 C 46.9727 -29.541 46.7773 -29.0039 46.7773 -28.3203 C 46.7773 -26.9531 47.6562 -26.1719 49.1211 -26.1719 L 63.0859 -26.1719 L 63.0859 -19.7754 C 63.0859 -18.75 63.6719 -18.1152 64.5508 -18.1152 Z M 32.0312 -20.7031 C 26.8066 -20.7031 23.291 -26.4648 23.291 -35.2051 C 23.291 -43.8965 26.8066 -49.707 32.0312 -49.707 C 37.3047 -49.707 40.7715 -43.8965 40.7715 -35.2051 C 40.7715 -26.4648 37.2559 -20.7031 32.0312 -20.7031 Z M 63.0859 -28.9551 L 50.0488 -28.9551 L 50.0488 -29.1504 C 52.3926 -33.2031 60.1074 -44.9219 62.8906 -49.2188 L 63.0859 -49.2188 Z"/>
  </g>
  <g id="Light-S" transform="matrix(1 0 0 1 1107.6 696)">
   <path d="M 45.5078 3.4668 C 66.6992 3.4668 84.2285 -14.0625 84.2285 -35.2051 C 84.2285 -56.3965 66.6504 -73.9258 45.5078 -73.9258 C 24.3164 -73.9258 6.83594 -56.3965 6.83594 -35.2051 C 6.83594 -14.0625 24.3652 3.4668 45.5078 3.4668 Z M 45.5078 -2.24609 C 27.2461 -2.24609 12.5977 -16.9434 12.5977 -35.2051 C 12.5977 -53.5156 27.1973 -68.2129 45.5078 -68.2129 C 63.7695 -68.2129 78.4668 -53.5156 78.5156 -35.2051 C 78.5156 -16.9434 63.8184 -2.24609 45.5078 -2.24609 Z M 33.1055 -17.8223 C 40.2832 -17.8223 45.0195 -24.7559 45.0195 -35.2051 C 45.0195 -45.752 40.2832 -52.7344 33.1055 -52.7344 C 25.9277 -52.7344 21.1914 -45.752 21.1914 -35.2051 C 21.1914 -24.7559 25.9277 -17.8223 33.1055 -17.8223 Z M 65.1855 -18.2129 C 66.6504 -18.2129 67.4316 -19.1895 67.4316 -20.8984 L 67.4316 -25.5371 L 70.1172 -25.5371 C 71.3379 -25.5371 72.168 -26.3184 72.168 -27.5879 C 72.168 -28.8574 71.3379 -29.5898 70.1172 -29.5898 L 67.4316 -29.5898 L 67.4316 -49.3164 C 67.4316 -51.3672 65.9668 -52.6855 63.8672 -52.6855 C 61.7676 -52.6855 60.498 -51.9043 59.2773 -49.9512 C 55.8594 -44.3848 51.0742 -36.4258 48.291 -31.4941 C 47.7051 -30.4199 47.4609 -29.6387 47.4609 -28.6621 C 47.4609 -26.709 48.7305 -25.5371 50.6348 -25.5371 L 63.0371 -25.5371 L 63.0371 -20.8984 C 63.0371 -19.2383 63.8672 -18.2129 65.1855 -18.2129 Z M 33.1055 -22.168 C 28.7109 -22.168 25.8789 -27.1973 25.8789 -35.2051 C 25.8789 -43.3594 28.6621 -48.3887 33.1055 -48.3887 C 37.5488 -48.3887 40.332 -43.3594 40.332 -35.2051 C 40.332 -27.1973 37.5 -22.168 33.1055 -22.168 Z M 63.0371 -29.5898 L 52.1973 -29.5898 L 52.1973 -29.7852 C 54.5898 -34.2285 59.7168 -42.6758 62.793 -47.8027 L 63.0371 -47.8027 Z"/>
  </g>
  <g id="Regular-S" transform="matrix(1 0 0 1 1403.58 696)">
   <path d="M 46.2402 4.15039 C 67.7734 4.15039 85.6934 -13.7207 85.6934 -35.2539 C 85.6934 -56.7871 67.7246 -74.6582 46.1914 -74.6582 C 24.707 -74.6582 6.83594 -56.7871 6.83594 -35.2539 C 6.83594 -13.7207 24.7559 4.15039 46.2402 4.15039 Z M 46.2402 -3.27148 C 28.5156 -3.27148 14.3555 -17.4805 14.3555 -35.2539 C 14.3555 -53.0273 28.4668 -67.2363 46.1914 -67.2363 C 63.9648 -67.2363 78.1738 -53.0273 78.2227 -35.2539 C 78.2715 -17.4805 64.0137 -3.27148 46.2402 -3.27148 Z M 33.9355 -17.8223 C 41.2109 -17.8223 45.9473 -24.707 45.9473 -35.2539 C 45.9473 -45.8984 41.2109 -52.832 33.9355 -52.832 C 26.6602 -52.832 21.9238 -45.8984 21.9238 -35.2539 C 21.9238 -24.707 26.6602 -17.8223 33.9355 -17.8223 Z M 65.6738 -18.3105 C 67.4805 -18.3105 68.457 -19.5312 68.457 -21.7285 L 68.457 -25.0977 L 70.2148 -25.0977 C 71.7285 -25.0977 72.7051 -25.9766 72.7051 -27.5879 C 72.7051 -29.1992 71.7285 -30.0781 70.2148 -30.0781 L 68.457 -30.0781 L 68.457 -48.584 C 68.457 -51.123 66.6504 -52.832 64.0137 -52.832 C 61.377 -52.832 59.7656 -51.8066 58.3496 -49.3652 C 54.9316 -43.5059 51.6602 -37.4023 48.9746 -32.4707 C 48.2422 -31.1035 47.998 -30.127 47.998 -28.9062 C 47.998 -26.5137 49.5117 -25.0977 51.8066 -25.0977 L 62.9883 -25.0977 L 62.9883 -21.7285 C 62.9883 -19.5801 64.0137 -18.3105 65.6738 -18.3105 Z M 33.9355 -23.2422 C 30.1758 -23.2422 27.8809 -27.7344 27.8809 -35.2539 C 27.8809 -42.9199 30.127 -47.4121 33.9355 -47.4121 C 37.7441 -47.4121 39.9902 -42.9199 39.9902 -35.2539 C 39.9902 -27.7344 37.6953 -23.2422 33.9355 -23.2422 Z M 62.9883 -30.0781 L 53.8574 -30.0781 L 53.8574 -30.2734 C 56.25 -35.0098 59.4238 -40.918 62.7441 -46.7773 L 62.9883 -46.7773 Z"/>
  </g>
  <g id="Medium-S" transform="matrix(1 0 0 1 1699.7 696)">
   <path d="M 46.8262 4.78516 C 68.75 4.78516 86.8652 -13.3301 86.8652 -35.2539 C 86.8652 -57.1289 68.7012 -75.2441 46.8262 -75.2441 C 24.9023 -75.2441 6.83594 -57.1289 6.83594 -35.2539 C 6.83594 -13.3301 24.9512 4.78516 46.8262 4.78516 Z M 46.8262 -4.19922 C 29.6387 -4.19922 15.8691 -18.0176 15.8691 -35.2539 C 15.8691 -52.4414 29.5898 -66.2598 46.8262 -66.2598 C 64.0137 -66.2598 77.832 -52.4414 77.8809 -35.2539 C 77.8809 -18.0176 64.0625 -4.19922 46.8262 -4.19922 Z M 34.5703 -18.0664 C 41.6504 -18.0664 46.3867 -24.4141 46.3867 -35.2539 C 46.3867 -46.1914 41.6504 -52.5391 34.5703 -52.5391 C 27.5391 -52.5391 22.9004 -46.1914 22.9004 -35.2539 C 22.9004 -24.4141 27.5391 -18.0664 34.5703 -18.0664 Z M 65.4297 -18.4082 C 67.4316 -18.4082 68.6035 -19.7266 68.6035 -22.2168 L 68.6035 -25.0488 L 69.9707 -25.0488 C 71.5332 -25.0488 72.6074 -26.0742 72.6074 -27.832 C 72.6074 -29.5898 71.5332 -30.6152 69.9219 -30.6152 L 68.5059 -30.6152 L 68.5059 -47.7539 C 68.5059 -50.6836 66.6504 -52.4902 63.6719 -52.4902 C 60.6934 -52.4902 58.8867 -51.4648 57.4219 -48.7793 C 54.3945 -43.5059 51.4648 -37.6465 49.1699 -33.252 C 48.4863 -31.7871 48.1445 -30.6152 48.1445 -29.1992 C 48.1445 -26.5625 49.7559 -25 52.2949 -25 L 62.3535 -25 L 62.3535 -22.2168 C 62.3535 -19.7754 63.5254 -18.4082 65.4297 -18.4082 Z M 34.6191 -24.2188 C 31.4453 -24.2188 29.4922 -28.0273 29.4922 -35.2539 C 29.4922 -42.5781 31.3965 -46.3867 34.6191 -46.3867 C 37.8418 -46.3867 39.7949 -42.5781 39.7949 -35.2539 C 39.7949 -28.0273 37.8418 -24.2188 34.6191 -24.2188 Z M 62.5 -30.6152 L 54.541 -30.6152 L 54.541 -30.7617 C 56.5918 -35.0098 59.4727 -41.0645 62.3047 -46.2891 L 62.5 -46.2891 Z"/>
  </g>
  <g id="Semibold-S" transform="matrix(1 0 0 1 1995.98 696)">
   <path d="M 47.3145 5.22461 C 69.4824 5.22461 87.7441 -13.0371 87.7441 -35.2539 C 87.7441 -57.4219 69.4336 -75.6836 47.2656 -75.6836 C 25.0977 -75.6836 6.83594 -57.4219 6.83594 -35.2539 C 6.83594 -13.0371 25.0977 5.22461 47.3145 5.22461 Z M 47.3145 -4.93164 C 30.4688 -4.93164 17.041 -18.4082 17.041 -35.2539 C 17.041 -52.0508 30.4688 -65.5273 47.2656 -65.5273 C 64.0625 -65.5273 77.5879 -52.0508 77.5879 -35.2539 C 77.6367 -18.4082 64.1113 -4.93164 47.3145 -4.93164 Z M 35.1074 -18.2617 C 42.041 -18.2617 46.7285 -24.2188 46.7285 -35.2539 C 46.7285 -46.3867 42.041 -52.3438 35.1074 -52.3438 C 28.1738 -52.3438 23.584 -46.3867 23.584 -35.2539 C 23.584 -24.2188 28.1738 -18.2617 35.1074 -18.2617 Z M 65.2344 -18.5059 C 67.3828 -18.5059 68.7012 -19.9219 68.7012 -22.6074 L 68.7012 -25 L 69.7754 -25 C 71.4355 -25 72.5098 -26.123 72.5098 -27.9785 C 72.5098 -29.8828 71.4355 -31.0059 69.7266 -31.0059 L 68.5547 -31.0059 L 68.5547 -47.1191 C 68.5547 -50.3906 66.6992 -52.2461 63.3789 -52.2461 C 60.1562 -52.2461 58.2031 -51.1719 56.6895 -48.291 C 54.0039 -43.5059 51.2695 -37.8418 49.3164 -33.8379 C 48.6328 -32.3242 48.291 -30.957 48.291 -29.3945 C 48.291 -26.6113 49.9023 -24.9512 52.7344 -24.9512 L 61.8652 -24.9512 L 61.8652 -22.6074 C 61.8652 -19.9219 63.1348 -18.5059 65.2344 -18.5059 Z M 62.1582 -31.0059 L 55.0781 -31.0059 L 55.0781 -31.1523 C 56.8359 -35.0098 59.5215 -41.2109 61.9629 -45.8984 L 62.1582 -45.8984 Z M 35.1562 -24.9512 C 32.4219 -24.9512 30.7129 -28.2715 30.7129 -35.2539 C 30.7129 -42.334 32.4219 -45.6055 35.1562 -45.6055 C 37.9395 -45.6055 39.6484 -42.334 39.6484 -35.2539 C 39.6484 -28.2715 37.9395 -24.9512 35.1562 -24.9512 Z"/>
  </g>
  <g id="Bold-S" transform="matrix(1 0 0 1 2292.1 696)">
   <path d="M 47.9004 5.81055 C 70.4102 5.81055 88.916 -12.6465 88.916 -35.2051 C 88.916 -57.7637 70.4102 -76.2695 47.8516 -76.2695 C 25.293 -76.2695 6.83594 -57.7637 6.83594 -35.2051 C 6.83594 -12.6465 25.3418 5.81055 47.9004 5.81055 Z M 47.9004 -5.85938 C 31.6406 -5.85938 18.5547 -18.9453 18.5547 -35.2051 C 18.5547 -51.4648 31.5918 -64.5508 47.8516 -64.5508 C 64.1113 -64.5508 77.1973 -51.4648 77.2461 -35.2051 C 77.2461 -18.9453 64.1602 -5.85938 47.9004 -5.85938 Z M 35.7422 -18.457 C 42.4805 -18.457 47.2168 -23.877 47.2168 -35.2539 C 47.2168 -46.6309 42.4805 -52.0508 35.7422 -52.0508 C 29.0039 -52.0508 24.5605 -46.6309 24.5605 -35.2539 C 24.5605 -23.877 29.0039 -18.457 35.7422 -18.457 Z M 64.9902 -18.6523 C 67.334 -18.6523 68.8477 -20.166 68.8477 -23.0957 L 68.8477 -25 L 69.5312 -25 C 71.2891 -25 72.4121 -26.1719 72.4121 -28.2227 C 72.4121 -30.2246 71.2891 -31.543 69.4824 -31.543 L 68.6035 -31.543 L 68.6035 -46.2402 C 68.6035 -49.9512 66.6992 -51.9043 62.9883 -51.9043 C 59.4727 -51.9043 57.3242 -50.7812 55.7129 -47.7051 C 53.4668 -43.457 51.0742 -38.0859 49.5117 -34.6191 C 48.877 -33.0078 48.4375 -31.4453 48.4375 -29.6387 C 48.4375 -26.6602 50.1465 -24.9023 53.2227 -24.9023 L 61.1816 -24.9023 L 61.1816 -23.0957 C 61.1816 -20.166 62.6465 -18.6523 64.9902 -18.6523 Z M 61.6699 -31.4941 L 55.7617 -31.4941 L 55.7617 -31.6895 C 57.1777 -35.0098 59.5703 -41.3574 61.5234 -45.4102 L 61.6699 -45.4102 Z M 35.8887 -25.9766 C 33.7402 -25.9766 32.373 -28.5645 32.373 -35.2539 C 32.373 -41.9922 33.6914 -44.5801 35.8887 -44.5801 C 38.0371 -44.5801 39.4043 -41.9922 39.4043 -35.2539 C 39.4043 -28.5645 38.0371 -25.9766 35.8887 -25.9766 Z"/>
  </g>
  <g id="Heavy-S" transform="matrix(1 0 0 1 2587.96 696)">
   <path d="M 48.7305 6.68945 C 71.8262 6.68945 90.625 -12.1094 90.625 -35.2051 C 90.625 -58.3008 71.8262 -77.0996 48.7305 -77.0996 C 25.6348 -77.0996 6.83594 -58.3008 6.83594 -35.2051 C 6.83594 -12.1094 25.6348 6.68945 48.7305 6.68945 Z M 48.7305 -7.22656 C 33.3008 -7.22656 20.752 -19.7266 20.752 -35.2051 C 20.752 -50.6836 33.3008 -63.1836 48.7305 -63.1836 C 64.209 -63.1836 76.709 -50.6836 76.709 -35.2051 C 76.709 -19.7266 64.209 -7.22656 48.7305 -7.22656 Z M 36.7188 -18.8477 C 43.1641 -18.8477 47.8516 -23.4863 47.8516 -35.2539 C 47.8516 -47.0215 43.1641 -51.6602 36.7188 -51.6602 C 30.2734 -51.6602 25.9277 -47.0215 25.9277 -35.2539 C 25.9277 -23.4863 30.2734 -18.8477 36.7188 -18.8477 Z M 64.5996 -18.8477 C 67.2363 -18.8477 69.043 -20.459 69.043 -23.8281 L 69.043 -24.9023 L 69.1406 -24.9023 C 71.0449 -24.9023 72.2656 -26.2695 72.2656 -28.5645 C 72.2656 -30.8105 71.0449 -32.3242 69.0918 -32.3242 L 68.7012 -32.3242 L 68.7012 -45.0195 C 68.7012 -49.3164 66.748 -51.4648 62.4512 -51.4648 C 58.4473 -51.4648 56.0059 -50.2441 54.3457 -46.8262 C 52.6855 -43.457 50.7812 -38.4766 49.8047 -35.7422 C 49.2188 -34.0332 48.6816 -32.1289 48.6816 -30.0293 C 48.6816 -26.7578 50.4883 -24.8047 54.0039 -24.8047 L 60.2051 -24.8047 L 60.2051 -23.8281 C 60.2051 -20.459 61.9629 -18.8477 64.5996 -18.8477 Z M 60.9863 -32.2754 L 56.7871 -32.2754 L 56.7871 -32.4219 C 57.666 -34.9609 59.668 -41.5527 60.8887 -44.7266 L 60.9863 -44.7266 Z M 36.9141 -27.3926 C 35.5957 -27.3926 34.7168 -29.0039 34.7168 -35.2539 C 34.7168 -41.5039 35.5957 -43.1152 36.9141 -43.1152 C 38.2324 -43.1152 39.1113 -41.5039 39.1113 -35.2539 C 39.1113 -29.0039 38.2324 -27.3926 36.9141 -27.3926 Z"/>
  </g>
  <g id="Black-S" transform="matrix(1 0 0 1 2883.89 696)">
   <path d="M 49.5117 7.4707 C 73.0957 7.4707 92.1875 -11.6211 92.1875 -35.2051 C 92.1875 -58.7891 73.0957 -77.8809 49.5117 -77.8809 C 25.9277 -77.8809 6.83594 -58.7891 6.83594 -35.2051 C 6.83594 -11.6211 25.9277 7.4707 49.5117 7.4707 Z M 49.5117 -8.44727 C 34.7656 -8.44727 22.7539 -20.459 22.7539 -35.2051 C 22.7539 -49.9512 34.7656 -61.9141 49.5117 -61.9141 C 64.2578 -61.9141 76.2695 -49.9512 76.2207 -35.2051 C 76.2207 -20.459 64.2578 -8.44727 49.5117 -8.44727 Z M 37.5977 -19.1406 C 43.7988 -19.1406 48.4863 -23.0957 48.4863 -35.2539 C 48.4863 -47.3633 43.7988 -51.3184 37.5977 -51.3184 C 31.3477 -51.3184 27.1973 -47.3633 27.1973 -35.2539 C 27.1973 -23.0957 31.3477 -19.1406 37.5977 -19.1406 Z M 64.2578 -18.9941 C 67.1875 -18.9941 69.2383 -20.752 69.2383 -24.5117 L 69.2383 -24.8535 L 68.8477 -24.8535 C 70.8496 -24.8535 72.1191 -26.3672 72.1191 -28.8574 C 72.1191 -31.2988 70.8496 -33.0566 68.7988 -33.0566 L 68.7988 -43.9453 C 68.7988 -48.7793 66.7969 -51.0254 61.9629 -51.0254 C 57.5195 -51.0254 54.8828 -49.7559 53.0762 -46.0449 C 52.002 -43.4082 50.4883 -38.7695 50.0488 -36.7188 C 49.5117 -34.9609 48.9258 -32.7148 48.9258 -30.3711 C 48.9258 -26.8555 50.7812 -24.707 54.6875 -24.707 L 59.375 -24.707 L 59.375 -24.5117 C 59.375 -20.752 61.3281 -18.9941 64.2578 -18.9941 Z M 60.3516 -32.9102 L 57.7148 -32.9102 L 57.7148 -33.0566 C 58.1055 -34.9609 59.7656 -41.748 60.3027 -44.0918 L 60.3516 -44.0918 Z M 37.8418 -28.6621 C 37.3047 -28.6621 36.8164 -29.3945 36.8164 -35.2539 C 36.8164 -41.0645 37.3047 -41.7969 37.8418 -41.7969 C 38.3789 -41.7969 38.8184 -41.0645 38.8184 -35.2539 C 38.8184 -29.3945 38.3789 -28.6621 37.8418 -28.6621 Z"/>
  </g>
  <g id="Ultralight-M" transform="matrix(1 0 0 1 503.656 1126)">
   <path d="M 56.0547 12.207 C 82.0801 12.207 103.369 -9.08203 103.369 -35.1562 C 103.369 -61.1816 82.0801 -82.4707 56.0547 -82.4707 C 30.0293 -82.4707 8.74023 -61.1816 8.74023 -35.1562 C 8.74023 -9.08203 30.0293 12.207 56.0547 12.207 Z M 56.0547 9.81445 C 31.25 9.81445 11.1328 -10.3516 11.1328 -35.1562 C 11.1328 -59.9121 31.25 -80.0781 56.0547 -80.0781 C 80.8105 -80.0781 100.977 -59.9121 100.977 -35.1562 C 100.977 -10.3516 80.8105 9.81445 56.0547 9.81445 Z M 39.9414 -12.9883 C 48.877 -12.9883 54.9805 -21.9727 54.9805 -35.1562 C 54.9805 -48.291 48.877 -57.2754 39.9414 -57.2754 C 31.0547 -57.2754 24.9512 -48.291 24.9512 -35.1562 C 24.9512 -21.9727 31.0547 -12.9883 39.9414 -12.9883 Z M 81.8848 -13.2324 C 82.666 -13.2324 83.1543 -13.8184 83.1543 -14.502 L 83.1543 -24.2188 L 89.3066 -24.2188 C 90.0391 -24.2188 90.5273 -24.7559 90.5273 -25.3906 C 90.5273 -26.0742 90.0391 -26.6113 89.3066 -26.6113 L 83.1543 -26.6113 L 83.1543 -55.2734 C 83.1543 -56.4453 82.373 -57.1777 81.0547 -57.1777 C 79.8828 -57.1777 79.1504 -56.8359 78.2715 -55.6152 C 73.9258 -49.3164 63.4766 -33.9355 59.6191 -27.6367 C 59.375 -27.2461 59.1309 -26.709 59.1309 -26.123 C 59.1309 -24.9512 59.9121 -24.2188 61.377 -24.2188 L 80.5664 -24.2188 L 80.5664 -14.502 C 80.5664 -13.8184 81.1523 -13.2324 81.8848 -13.2324 Z M 39.9414 -15.4297 C 32.5684 -15.4297 27.4902 -23.4375 27.4902 -35.1562 C 27.4902 -46.8262 32.5684 -54.834 39.9414 -54.834 C 47.3633 -54.834 52.4414 -46.8262 52.4414 -35.1562 C 52.4414 -23.4375 47.3633 -15.4297 39.9414 -15.4297 Z M 80.5664 -26.6113 L 62.0117 -26.6113 L 62.0117 -26.8555 C 65.0391 -31.7871 77.0508 -49.5605 80.3223 -54.2969 L 80.5664 -54.2969 Z"/>
  </g>
  <g id="Thin-M" transform="matrix(1 0 0 1 799.806 1126)">
   <path d="M 56.5918 12.7441 C 82.9102 12.7441 104.492 -8.83789 104.492 -35.1562 C 104.492 -61.4746 82.9102 -83.0566 56.5918 -83.0566 C 30.3223 -83.0566 8.74023 -61.4746 8.74023 -35.1562 C 8.74023 -8.83789 30.3223 12.7441 56.5918 12.7441 Z M 56.5918 8.98438 C 32.2266 8.98438 12.4512 -10.791 12.4512 -35.1562 C 12.4512 -59.5215 32.2266 -79.2969 56.5918 -79.2969 C 80.957 -79.2969 100.781 -59.5215 100.781 -35.1562 C 100.781 -10.791 81.0059 8.98438 56.5918 8.98438 Z M 40.5762 -12.9883 C 49.5605 -12.9883 55.6641 -21.9727 55.6641 -35.1562 C 55.6641 -48.3887 49.5605 -57.3242 40.5762 -57.3242 C 31.5918 -57.3242 25.5371 -48.3887 25.5371 -35.1562 C 25.5371 -21.9727 31.5918 -12.9883 40.5762 -12.9883 Z M 82.2266 -13.3301 C 83.3008 -13.3301 83.9355 -14.0625 83.9355 -15.1855 L 83.9355 -23.8281 L 89.3555 -23.8281 C 90.332 -23.8281 90.9668 -24.5117 90.9668 -25.4395 C 90.9668 -26.3672 90.332 -27.002 89.3555 -27.002 L 83.9355 -27.002 L 83.9355 -54.6875 C 83.9355 -56.2988 82.8613 -57.2754 81.2012 -57.2754 C 79.5898 -57.2754 78.6133 -56.7383 77.5879 -55.1758 C 73.1934 -48.6816 63.916 -34.7168 60.1562 -28.418 C 59.7656 -27.7344 59.5215 -27.0508 59.5215 -26.3184 C 59.5215 -24.7559 60.5469 -23.8281 62.2559 -23.8281 L 80.5664 -23.8281 L 80.5664 -15.1855 C 80.5664 -14.0625 81.25 -13.3301 82.2266 -13.3301 Z M 40.5762 -16.2598 C 33.6914 -16.2598 29.0039 -23.877 29.0039 -35.1562 C 29.0039 -46.4844 33.6914 -54.0527 40.5762 -54.0527 C 47.5098 -54.0527 52.1973 -46.4844 52.1973 -35.1562 C 52.1973 -23.877 47.5098 -16.2598 40.5762 -16.2598 Z M 80.5664 -27.002 L 63.2812 -27.002 L 63.2812 -27.2461 C 66.3086 -32.373 76.8066 -48.2422 80.2734 -53.4668 L 80.5664 -53.4668 Z"/>
  </g>
  <g id="Light-M" transform="matrix(1 0 0 1 1095.42 1126)">
   <path d="M 57.7148 13.7695 C 84.5215 13.7695 106.689 -8.39844 106.689 -35.2051 C 106.689 -62.0117 84.4727 -84.1797 57.666 -84.1797 C 30.8594 -84.1797 8.74023 -62.0117 8.74023 -35.2051 C 8.74023 -8.39844 30.8594 13.7695 57.7148 13.7695 Z M 57.7148 7.4707 C 34.082 7.4707 15.0879 -11.5723 15.0879 -35.2051 C 15.0879 -58.8379 34.0332 -77.832 57.666 -77.832 C 81.2988 -77.832 100.342 -58.8379 100.342 -35.2051 C 100.391 -11.5723 81.2988 7.4707 57.7148 7.4707 Z M 41.7969 -12.9883 C 50.9277 -12.9883 56.9824 -21.875 56.9824 -35.2051 C 56.9824 -48.6328 50.9277 -57.4707 41.7969 -57.4707 C 32.7148 -57.4707 26.6113 -48.6328 26.6113 -35.2051 C 26.6113 -21.875 32.7148 -12.9883 41.7969 -12.9883 Z M 82.959 -13.4766 C 84.5703 -13.4766 85.498 -14.5508 85.498 -16.4551 L 85.498 -23.1445 L 89.4531 -23.1445 C 90.8691 -23.1445 91.7969 -24.0234 91.7969 -25.4395 C 91.7969 -26.8555 90.8691 -27.7344 89.4531 -27.7344 L 85.498 -27.7344 L 85.498 -53.6133 C 85.498 -55.957 83.8379 -57.4707 81.4453 -57.4707 C 79.0527 -57.4707 77.5879 -56.5918 76.1719 -54.3457 C 71.8262 -47.3633 64.8438 -36.1816 61.2305 -29.9316 C 60.5957 -28.7109 60.3027 -27.832 60.3027 -26.709 C 60.3027 -24.4629 61.7188 -23.1445 64.0137 -23.1445 L 80.4688 -23.1445 L 80.4688 -16.4551 C 80.4688 -14.5996 81.4453 -13.4766 82.959 -13.4766 Z M 41.7969 -17.9199 C 35.8398 -17.9199 31.9824 -24.6582 31.9824 -35.2051 C 31.9824 -45.8008 35.8398 -52.5879 41.7969 -52.5879 C 47.8027 -52.5879 51.6602 -45.8008 51.6602 -35.2051 C 51.6602 -24.6582 47.8027 -17.9199 41.7969 -17.9199 Z M 80.4688 -27.7344 L 65.7227 -27.7344 L 65.7227 -28.0273 C 68.75 -33.5449 76.3672 -45.6543 80.2246 -51.9043 L 80.4688 -51.9043 Z"/>
  </g>
  <g id="Regular-M" transform="matrix(1 0 0 1 1391.32 1126)">
   <path d="M 58.5449 14.5508 C 85.7422 14.5508 108.35 -8.00781 108.35 -35.2539 C 108.35 -62.4512 85.6934 -85.0586 58.4961 -85.0586 C 31.25 -85.0586 8.74023 -62.4512 8.74023 -35.2539 C 8.74023 -8.00781 31.2988 14.5508 58.5449 14.5508 Z M 58.5449 6.25 C 35.498 6.25 17.0898 -12.207 17.0898 -35.2539 C 17.0898 -58.252 35.4492 -76.7578 58.4961 -76.7578 C 81.4941 -76.7578 100 -58.252 100.049 -35.2539 C 100.098 -12.207 81.543 6.25 58.5449 6.25 Z M 42.7246 -12.9883 C 51.9531 -12.9883 58.0078 -21.8262 58.0078 -35.2539 C 58.0078 -48.7793 51.9531 -57.6172 42.7246 -57.6172 C 33.5449 -57.6172 27.4902 -48.7793 27.4902 -35.2539 C 27.4902 -21.8262 33.5449 -12.9883 42.7246 -12.9883 Z M 83.4961 -13.5742 C 85.5469 -13.5742 86.6699 -14.9414 86.6699 -17.3828 L 86.6699 -22.6074 L 89.5508 -22.6074 C 91.2598 -22.6074 92.4316 -23.6328 92.4316 -25.4395 C 92.4316 -27.2461 91.2598 -28.3203 89.5508 -28.3203 L 86.6699 -28.3203 L 86.6699 -52.7832 C 86.6699 -55.6641 84.5703 -57.5684 81.6406 -57.5684 C 78.6133 -57.5684 76.8066 -56.4941 75.1465 -53.6621 C 70.8008 -46.3867 65.5273 -37.3535 62.0117 -31.0547 C 61.1816 -29.4922 60.8887 -28.3691 60.8887 -27.002 C 60.8887 -24.2188 62.6465 -22.6074 65.2832 -22.6074 L 80.4199 -22.6074 L 80.4199 -17.3828 C 80.4199 -14.9902 81.5918 -13.5742 83.4961 -13.5742 Z M 42.7246 -19.1406 C 37.5 -19.1406 34.1797 -25.293 34.1797 -35.2539 C 34.1797 -45.3125 37.4512 -51.4648 42.7246 -51.4648 C 48.0469 -51.4648 51.2695 -45.3125 51.2695 -35.2539 C 51.2695 -25.293 47.998 -19.1406 42.7246 -19.1406 Z M 80.4199 -28.3203 L 67.627 -28.3203 L 67.627 -28.5645 C 70.6543 -34.4238 76.0742 -43.7012 80.127 -50.6836 L 80.4199 -50.6836 Z"/>
  </g>
  <g id="Medium-M" transform="matrix(1 0 0 1 1687.33 1126)">
   <path d="M 59.2285 15.2832 C 86.8652 15.2832 109.717 -7.56836 109.717 -35.2051 C 109.717 -62.8906 86.8164 -85.7422 59.1797 -85.7422 C 31.543 -85.7422 8.74023 -62.8906 8.74023 -35.2051 C 8.74023 -7.56836 31.5918 15.2832 59.2285 15.2832 Z M 59.2285 5.17578 C 36.8164 5.17578 18.8477 -12.8418 18.8477 -35.2051 C 18.8477 -57.6172 36.7676 -75.6348 59.1797 -75.6348 C 81.5918 -75.6348 99.6094 -57.6172 99.6582 -35.2051 C 99.6582 -12.8418 81.6406 5.17578 59.2285 5.17578 Z M 43.5059 -13.2324 C 52.5391 -13.2324 58.5938 -21.5332 58.5938 -35.2539 C 58.5938 -49.0723 52.5391 -57.3242 43.5059 -57.3242 C 34.5215 -57.3242 28.5645 -49.0723 28.5645 -35.2539 C 28.5645 -21.5332 34.5215 -13.2324 43.5059 -13.2324 Z M 83.3008 -13.6719 C 85.5957 -13.6719 86.9629 -15.2344 86.9629 -18.0176 L 86.9629 -22.5098 L 89.3066 -22.5098 C 91.1621 -22.5098 92.3828 -23.6816 92.3828 -25.6836 C 92.3828 -27.6855 91.1621 -28.9062 89.3066 -28.9062 L 86.8652 -28.9062 L 86.8652 -51.8066 C 86.8652 -55.2246 84.7168 -57.2754 81.25 -57.2754 C 77.832 -57.2754 75.7812 -56.1035 74.0234 -52.9785 C 70.1172 -46.2891 65.3809 -37.6953 62.3047 -31.9336 C 61.5234 -30.2734 61.1328 -28.9062 61.1328 -27.2949 C 61.1328 -24.2676 62.9883 -22.4609 66.0156 -22.4609 L 79.7852 -22.4609 L 79.7852 -18.0176 C 79.7852 -15.2344 81.1035 -13.6719 83.3008 -13.6719 Z M 43.5547 -20.3125 C 39.0137 -20.3125 36.1328 -25.6836 36.1328 -35.2539 C 36.1328 -44.9219 38.9648 -50.293 43.5547 -50.293 C 48.1934 -50.293 51.0254 -44.9219 51.0254 -35.2539 C 51.0254 -25.6836 48.1445 -20.3125 43.5547 -20.3125 Z M 79.9316 -28.9062 L 68.5547 -28.9062 L 68.5547 -29.1504 C 71.1914 -34.5215 76.0742 -43.6523 79.6875 -50.0488 L 79.9316 -50.0488 Z"/>
  </g>
  <g id="Semibold-M" transform="matrix(1 0 0 1 1983.5 1126)">
   <path d="M 59.7656 15.8203 C 87.7441 15.8203 110.791 -7.22656 110.791 -35.2051 C 110.791 -63.1836 87.6953 -86.2793 59.7168 -86.2793 C 31.7383 -86.2793 8.74023 -63.1836 8.74023 -35.2051 C 8.74023 -7.22656 31.7871 15.8203 59.7656 15.8203 Z M 59.7656 4.3457 C 37.8418 4.3457 20.2148 -13.2812 20.2148 -35.2051 C 20.2148 -57.1289 37.793 -74.8047 59.7168 -74.8047 C 81.6406 -74.8047 99.3164 -57.1289 99.3164 -35.2051 C 99.3652 -13.2812 81.6895 4.3457 59.7656 4.3457 Z M 44.1406 -13.4277 C 53.0273 -13.4277 59.0332 -21.2891 59.0332 -35.2539 C 59.0332 -49.2676 53.0273 -57.1289 44.1406 -57.1289 C 35.2539 -57.1289 29.3457 -49.2676 29.3457 -35.2539 C 29.3457 -21.2891 35.2539 -13.4277 44.1406 -13.4277 Z M 83.1543 -13.8184 C 85.6445 -13.8184 87.1582 -15.4297 87.1582 -18.5059 L 87.1582 -22.4121 L 89.1113 -22.4121 C 91.0645 -22.4121 92.334 -23.6816 92.334 -25.8789 C 92.334 -28.0273 91.0645 -29.3945 89.1113 -29.3945 L 87.0117 -29.3945 L 87.0117 -51.0742 C 87.0117 -54.834 84.8145 -57.0312 80.957 -57.0312 C 77.2949 -57.0312 75.0488 -55.7617 73.1934 -52.4414 C 69.5801 -46.1914 65.2832 -37.9883 62.5488 -32.666 C 61.7676 -30.9082 61.3281 -29.3457 61.3281 -27.5391 C 61.3281 -24.3164 63.2324 -22.3633 66.5039 -22.3633 L 79.248 -22.3633 L 79.248 -18.5059 C 79.248 -15.4785 80.7617 -13.8184 83.1543 -13.8184 Z M 79.5898 -29.3457 L 69.2383 -29.3457 L 69.2383 -29.5898 C 71.6309 -34.5703 76.0742 -43.5547 79.3457 -49.5605 L 79.5898 -49.5605 Z M 44.1895 -21.1914 C 40.1367 -21.1914 37.5977 -25.9766 37.5977 -35.2539 C 37.5977 -44.6289 40.1367 -49.4141 44.1895 -49.4141 C 48.291 -49.4141 50.8301 -44.6289 50.8301 -35.2539 C 50.8301 -25.9766 48.2422 -21.1914 44.1895 -21.1914 Z"/>
  </g>
  <g id="Bold-M" transform="matrix(1 0 0 1 2279.5 1126)">
   <path d="M 60.4492 16.5039 C 88.8672 16.5039 112.207 -6.78711 112.207 -35.2051 C 112.207 -63.623 88.8672 -86.9629 60.4492 -86.9629 C 32.0312 -86.9629 8.74023 -63.623 8.74023 -35.2051 C 8.74023 -6.78711 32.0801 16.5039 60.4492 16.5039 Z M 60.4492 3.22266 C 39.1602 3.22266 22.0215 -13.916 22.0215 -35.2051 C 22.0215 -56.4941 39.1602 -73.6816 60.4492 -73.6816 C 81.7383 -73.6816 98.877 -56.4941 98.9258 -35.2051 C 98.9258 -13.916 81.7871 3.22266 60.4492 3.22266 Z M 44.9219 -13.6719 C 53.6133 -13.6719 59.6191 -20.9961 59.6191 -35.2539 C 59.6191 -49.5605 53.6133 -56.8848 44.9219 -56.8848 C 36.2305 -56.8848 30.4199 -49.5605 30.4199 -35.2539 C 30.4199 -20.9961 36.2305 -13.6719 44.9219 -13.6719 Z M 82.959 -13.9648 C 85.6934 -13.9648 87.4512 -15.7227 87.4512 -19.1406 L 87.4512 -22.3145 L 88.8672 -22.3145 C 90.9668 -22.3145 92.334 -23.7305 92.334 -26.123 C 92.334 -28.4668 90.9668 -30.0293 88.8672 -30.0293 L 87.207 -30.0293 L 87.207 -50.1465 C 87.207 -54.3945 84.9121 -56.7383 80.6152 -56.7383 C 76.5137 -56.7383 74.0234 -55.3711 72.1191 -51.7578 C 68.8965 -46.0449 65.1367 -38.3789 62.8418 -33.5938 C 62.0605 -31.6895 61.5723 -29.8828 61.5723 -27.832 C 61.5723 -24.3164 63.5742 -22.2168 67.2363 -22.2168 L 78.5645 -22.2168 L 78.5645 -19.1406 C 78.5645 -15.7227 80.2734 -13.9648 82.959 -13.9648 Z M 79.1016 -29.9316 L 70.166 -29.9316 L 70.166 -30.1758 C 72.2168 -34.668 76.123 -43.5059 78.8574 -48.9258 L 79.1016 -48.9258 Z M 45.0195 -22.3633 C 41.6504 -22.3633 39.502 -26.3184 39.502 -35.2539 C 39.502 -44.2383 41.6504 -48.1934 45.0195 -48.1934 C 48.4375 -48.1934 50.5859 -44.2383 50.5859 -35.2539 C 50.5859 -26.3184 48.3887 -22.3633 45.0195 -22.3633 Z"/>
  </g>
  <g id="Heavy-M" transform="matrix(1 0 0 1 2575.19 1126)">
   <path d="M 61.4746 17.5781 C 90.5273 17.5781 114.258 -6.15234 114.258 -35.2051 C 114.258 -64.2578 90.5273 -87.9883 61.4746 -87.9883 C 32.4219 -87.9883 8.74023 -64.2578 8.74023 -35.2051 C 8.74023 -6.15234 32.4707 17.5781 61.4746 17.5781 Z M 61.4746 1.66016 C 41.1133 1.66016 24.6582 -14.8438 24.6582 -35.2051 C 24.6582 -55.5664 41.1133 -72.0703 61.4746 -72.0703 C 81.8359 -72.0703 98.3398 -55.5664 98.3398 -35.2051 C 98.3398 -14.8438 81.8848 1.66016 61.4746 1.66016 Z M 46.0449 -14.0137 C 54.4922 -14.0137 60.498 -20.5566 60.498 -35.2539 C 60.498 -50 54.4922 -56.4941 46.0449 -56.4941 C 37.5977 -56.4941 32.0312 -50 32.0312 -35.2539 C 32.0312 -20.5566 37.5977 -14.0137 46.0449 -14.0137 Z M 82.666 -14.1602 C 85.791 -14.1602 87.8418 -16.1133 87.8418 -20.0684 L 87.8418 -22.168 L 88.5254 -22.168 C 90.8203 -22.168 92.2852 -23.7793 92.2852 -26.4648 C 92.2852 -29.1504 90.8203 -30.9082 88.4766 -30.9082 L 87.5 -30.9082 L 87.5 -48.7305 C 87.5 -53.7109 85.1074 -56.25 80.0781 -56.25 C 75.3906 -56.25 72.5586 -54.7852 70.5078 -50.7324 C 67.9199 -45.8496 64.9414 -38.9648 63.2812 -34.9121 C 62.5 -32.8613 61.9141 -30.6641 61.9141 -28.2715 C 61.9141 -24.3652 64.0625 -22.0215 68.2129 -22.0215 L 77.5879 -22.0215 L 77.5879 -20.0684 C 77.5879 -16.1133 79.5898 -14.1602 82.666 -14.1602 Z M 78.3691 -30.8105 L 71.5332 -30.8105 L 71.5332 -31.0059 C 73.0469 -34.8145 76.123 -43.3594 78.1738 -47.998 L 78.3691 -47.998 Z M 46.2402 -24.0234 C 43.8965 -24.0234 42.334 -26.9043 42.334 -35.2539 C 42.334 -43.6523 43.8477 -46.4844 46.2402 -46.4844 C 48.6328 -46.4844 50.1953 -43.6523 50.1953 -35.2539 C 50.1953 -26.9043 48.6328 -24.0234 46.2402 -24.0234 Z"/>
  </g>
  <g id="Black-M" transform="matrix(1 0 0 1 2871 1126)">
   <path d="M 62.4023 18.457 C 91.9922 18.457 116.064 -5.61523 116.064 -35.2051 C 116.064 -64.7949 91.9922 -88.8672 62.4023 -88.8672 C 32.8125 -88.8672 8.74023 -64.7949 8.74023 -35.2051 C 8.74023 -5.61523 32.8125 18.457 62.4023 18.457 Z M 62.4023 0.195312 C 42.8223 0.195312 27.002 -15.625 27.002 -35.2051 C 27.002 -54.7363 42.8223 -70.6055 62.4023 -70.6055 C 81.9824 -70.6055 97.8027 -54.7363 97.8027 -35.2051 C 97.8027 -15.625 81.9824 0.195312 62.4023 0.195312 Z M 47.0703 -14.3555 C 55.2734 -14.3555 61.2793 -20.1172 61.2793 -35.2539 C 61.2793 -50.3906 55.2734 -56.1523 47.0703 -56.1523 C 38.8672 -56.1523 33.3984 -50.3906 33.3984 -35.2539 C 33.3984 -20.1172 38.8672 -14.3555 47.0703 -14.3555 Z M 82.4219 -14.3555 C 85.8887 -14.3555 88.1836 -16.4551 88.1836 -20.8496 L 88.1836 -22.0215 L 88.2324 -22.0215 C 90.6738 -22.0215 92.2363 -23.7793 92.2363 -26.7578 C 92.2363 -29.6875 90.6738 -31.7383 88.1348 -31.7383 L 87.7441 -31.7383 L 87.7441 -47.5098 C 87.7441 -53.0762 85.2539 -55.8594 79.5898 -55.8594 C 74.3652 -55.8594 71.2402 -54.2969 69.043 -49.8047 C 67.041 -45.6543 64.7949 -39.4531 63.6719 -36.084 C 62.8906 -33.9355 62.207 -31.3965 62.207 -28.7109 C 62.207 -24.4141 64.5508 -21.875 69.1406 -21.875 L 76.709 -21.875 L 76.709 -20.8496 C 76.709 -16.4551 78.9551 -14.3555 82.4219 -14.3555 Z M 77.7344 -31.5918 L 72.7539 -31.5918 L 72.7539 -31.7871 C 73.7793 -34.9609 76.1719 -43.2617 77.5879 -47.168 L 77.7344 -47.168 Z M 47.3145 -25.5371 C 45.8496 -25.5371 44.8242 -27.3926 44.8242 -35.2539 C 44.8242 -43.1152 45.8496 -44.9707 47.3145 -44.9707 C 48.8281 -44.9707 49.8535 -43.1152 49.8535 -35.2539 C 49.8535 -27.3926 48.8281 -25.5371 47.3145 -25.5371 Z"/>
  </g>
  <g id="Ultralight-L" transform="matrix(1 0 0 1 487.641 1556)">
   <path d="M 72.0703 25.7324 C 105.566 25.7324 132.91 -1.61133 132.91 -35.1074 C 132.91 -68.5547 105.566 -95.8984 72.0703 -95.8984 C 38.623 -95.8984 11.2793 -68.5547 11.2793 -35.1074 C 11.2793 -1.61133 38.623 25.7324 72.0703 25.7324 Z M 72.0703 23.2422 C 39.9414 23.2422 13.7695 -2.97852 13.7695 -35.1074 C 13.7695 -67.2363 39.9414 -93.4082 72.0703 -93.4082 C 104.199 -93.4082 130.42 -67.2363 130.371 -35.1074 C 130.371 -2.97852 104.199 23.2422 72.0703 23.2422 Z M 51.2695 -6.54297 C 62.7441 -6.54297 70.6543 -18.1641 70.6543 -35.1074 C 70.6543 -52.002 62.7441 -63.623 51.2695 -63.623 C 39.8438 -63.623 31.9336 -52.002 31.9336 -35.1074 C 31.9336 -18.1641 39.8438 -6.54297 51.2695 -6.54297 Z M 105.469 -6.83594 C 106.348 -6.83594 106.934 -7.4707 106.934 -8.20312 L 106.934 -21.1426 L 115.234 -21.1426 C 116.064 -21.1426 116.602 -21.8262 116.602 -22.5586 C 116.602 -23.291 116.064 -23.9746 115.234 -23.9746 L 106.934 -23.9746 L 106.934 -61.3281 C 106.934 -62.6953 106.055 -63.5254 104.541 -63.5254 C 103.174 -63.5254 102.344 -63.1348 101.318 -61.7188 C 95.6543 -53.7109 81.6895 -33.252 76.6602 -25.1465 C 76.416 -24.707 76.123 -24.0234 76.123 -23.4375 C 76.123 -22.0215 77.0508 -21.1426 78.8086 -21.1426 L 104.004 -21.1426 L 104.004 -8.20312 C 104.004 -7.4707 104.639 -6.83594 105.469 -6.83594 Z M 51.2695 -9.32617 C 41.5527 -9.32617 34.8145 -19.8242 34.8145 -35.1074 C 34.8145 -50.3418 41.5527 -60.8398 51.2695 -60.8398 C 61.0352 -60.8398 67.7734 -50.3418 67.7734 -35.1074 C 67.7734 -19.8242 61.0352 -9.32617 51.2695 -9.32617 Z M 104.004 -23.9746 L 79.4922 -23.9746 L 79.4922 -24.2676 C 83.3496 -30.5176 99.5117 -54.2969 103.662 -60.1562 L 104.004 -60.1562 Z"/>
  </g>
  <g id="Thin-L" transform="matrix(1 0 0 1 783.717 1556)">
   <path d="M 72.7051 26.3184 C 106.494 26.3184 134.131 -1.36719 134.131 -35.1074 C 134.131 -68.8965 106.445 -96.582 72.7051 -96.582 C 38.916 -96.582 11.2793 -68.8965 11.2793 -35.1074 C 11.2793 -1.36719 38.916 26.3184 72.7051 26.3184 Z M 72.7051 22.3145 C 41.0156 22.3145 15.2344 -3.41797 15.2344 -35.1074 C 15.2344 -66.8457 41.0156 -92.5781 72.7051 -92.5781 C 104.395 -92.5781 130.127 -66.8457 130.176 -35.1074 C 130.176 -3.41797 104.395 22.3145 72.7051 22.3145 Z M 52.002 -6.54297 C 63.5254 -6.54297 71.3867 -18.1152 71.3867 -35.1074 C 71.3867 -52.1484 63.5254 -63.7207 52.002 -63.7207 C 40.4297 -63.7207 32.5684 -52.1484 32.5684 -35.1074 C 32.5684 -18.1152 40.4297 -6.54297 52.002 -6.54297 Z M 105.908 -6.93359 C 107.08 -6.93359 107.812 -7.76367 107.812 -8.93555 L 107.812 -20.752 L 115.283 -20.752 C 116.357 -20.752 117.09 -21.5332 117.09 -22.5586 C 117.09 -23.584 116.357 -24.4141 115.283 -24.4141 L 107.812 -24.4141 L 107.812 -60.6934 C 107.812 -62.5 106.592 -63.623 104.688 -63.623 C 102.832 -63.623 101.758 -63.0371 100.537 -61.2305 C 94.873 -52.9785 82.2266 -34.082 77.2949 -25.9766 C 76.8555 -25.2441 76.5625 -24.4629 76.5625 -23.6328 C 76.5625 -21.8262 77.7344 -20.752 79.7852 -20.752 L 103.955 -20.752 L 103.955 -8.93555 C 103.955 -7.76367 104.785 -6.93359 105.908 -6.93359 Z M 52.002 -10.2539 C 42.7734 -10.2539 36.5234 -20.3125 36.5234 -35.1074 C 36.5234 -49.9512 42.7734 -60.0098 52.002 -60.0098 C 61.2305 -60.0098 67.4805 -49.9512 67.4805 -35.1074 C 67.4805 -20.3125 61.1816 -10.2539 52.002 -10.2539 Z M 103.955 -24.4141 L 80.9082 -24.4141 L 80.9082 -24.707 C 84.7656 -31.2012 99.2676 -52.832 103.613 -59.2285 L 103.955 -59.2285 Z"/>
  </g>
  <g id="Light-L" transform="matrix(1 0 0 1 1079.21 1556)">
   <path d="M 73.9258 27.4902 C 108.301 27.4902 136.572 -0.830078 136.572 -35.1562 C 136.572 -69.5312 108.252 -97.8516 73.877 -97.8516 C 39.5508 -97.8516 11.2793 -69.5312 11.2793 -35.1562 C 11.2793 -0.830078 39.5508 27.4902 73.9258 27.4902 Z M 73.9258 20.6055 C 43.0664 20.6055 18.1641 -4.3457 18.1641 -35.1562 C 18.1641 -66.0156 43.0664 -90.918 73.877 -90.918 C 104.736 -90.918 129.639 -66.0156 129.688 -35.1562 C 129.736 -4.3457 104.785 20.6055 73.9258 20.6055 Z M 53.3691 -6.54297 C 65.0391 -6.54297 72.9004 -18.0664 72.9004 -35.1562 C 72.9004 -52.3926 65.0391 -63.8672 53.3691 -63.8672 C 41.6992 -63.8672 33.8379 -52.3926 33.8379 -35.1562 C 33.8379 -18.0664 41.6992 -6.54297 53.3691 -6.54297 Z M 106.689 -7.08008 C 108.496 -7.08008 109.57 -8.30078 109.57 -10.3516 L 109.57 -19.9707 L 115.381 -19.9707 C 116.992 -19.9707 118.018 -20.9961 118.018 -22.6074 C 118.018 -24.1699 116.992 -25.2441 115.381 -25.2441 L 109.57 -25.2441 L 109.57 -59.4727 C 109.57 -62.1094 107.715 -63.8184 104.98 -63.8184 C 102.246 -63.8184 100.586 -62.8906 98.9746 -60.3027 C 93.3594 -51.5625 83.2031 -35.7422 78.4668 -27.6367 C 77.7832 -26.3672 77.4414 -25.293 77.4414 -24.0723 C 77.4414 -21.4844 79.0527 -19.9707 81.7383 -19.9707 L 103.906 -19.9707 L 103.906 -10.3516 C 103.906 -8.34961 104.98 -7.08008 106.689 -7.08008 Z M 53.3691 -12.1094 C 45.2148 -12.1094 39.7949 -21.1914 39.7949 -35.1562 C 39.7949 -49.2188 45.166 -58.3496 53.3691 -58.3496 C 61.5723 -58.3496 66.9434 -49.2188 66.9434 -35.1562 C 66.9434 -21.1914 61.5234 -12.1094 53.3691 -12.1094 Z M 103.906 -25.2441 L 83.6426 -25.2441 L 83.6426 -25.5371 C 87.5488 -32.4707 98.7793 -49.9512 103.516 -57.4707 L 103.906 -57.4707 Z"/>
  </g>
  <g id="Regular-L" transform="matrix(1 0 0 1 1374.99 1556)">
   <path d="M 74.8535 28.3691 C 109.668 28.3691 138.428 -0.390625 138.428 -35.2051 C 138.428 -70.0195 109.619 -98.7793 74.8047 -98.7793 C 39.9902 -98.7793 11.2793 -70.0195 11.2793 -35.2051 C 11.2793 -0.390625 40.0391 28.3691 74.8535 28.3691 Z M 74.8535 19.2871 C 44.6289 19.2871 20.4102 -5.0293 20.4102 -35.2051 C 20.4102 -65.3809 44.5801 -89.6973 74.8047 -89.6973 C 104.98 -89.6973 129.297 -65.3809 129.346 -35.2051 C 129.395 -5.0293 105.029 19.2871 74.8535 19.2871 Z M 54.3945 -6.54297 C 66.2109 -6.54297 74.0234 -17.9688 74.0234 -35.2051 C 74.0234 -52.5879 66.2109 -64.0137 54.3945 -64.0137 C 42.5781 -64.0137 34.7656 -52.5879 34.7656 -35.2051 C 34.7656 -17.9688 42.5781 -6.54297 54.3945 -6.54297 Z M 107.324 -7.17773 C 109.57 -7.17773 110.889 -8.74023 110.889 -11.4258 L 110.889 -19.3848 L 115.479 -19.3848 C 117.432 -19.3848 118.75 -20.6055 118.75 -22.6074 C 118.75 -24.6094 117.432 -25.8301 115.479 -25.8301 L 110.889 -25.8301 L 110.889 -58.5449 C 110.889 -61.8164 108.545 -63.9648 105.176 -63.9648 C 101.807 -63.9648 99.707 -62.7441 97.8027 -59.5703 C 92.1875 -50.4395 83.9844 -37.0117 79.3945 -28.9062 C 78.4668 -27.1973 78.0762 -25.9277 78.0762 -24.3652 C 78.0762 -21.2402 80.0781 -19.3848 83.2031 -19.3848 L 103.857 -19.3848 L 103.857 -11.4258 C 103.857 -8.78906 105.176 -7.17773 107.324 -7.17773 Z M 54.3945 -13.4766 C 47.0215 -13.4766 42.2852 -21.875 42.2852 -35.2051 C 42.2852 -48.6816 46.9727 -57.0801 54.3945 -57.0801 C 61.8164 -57.0801 66.5039 -48.6816 66.5039 -35.2051 C 66.5039 -21.875 61.7676 -13.4766 54.3945 -13.4766 Z M 103.857 -25.8301 L 85.6934 -25.8301 L 85.6934 -26.1719 C 89.5996 -33.4473 98.3887 -47.7539 103.467 -56.1523 L 103.857 -56.1523 Z"/>
  </g>
  <g id="Medium-L" transform="matrix(1 0 0 1 1670.9 1556)">
   <path d="M 75.6348 29.1992 C 110.938 29.1992 140.039 0.0488281 140.039 -35.2051 C 140.039 -70.459 110.889 -99.6094 75.5859 -99.6094 C 40.332 -99.6094 11.2793 -70.459 11.2793 -35.2051 C 11.2793 0.0488281 40.3809 29.1992 75.6348 29.1992 Z M 75.6348 18.0664 C 46.1426 18.0664 22.4609 -5.71289 22.4609 -35.2051 C 22.4609 -64.6973 46.0938 -88.4766 75.5859 -88.4766 C 105.127 -88.4766 128.857 -64.6973 128.906 -35.2051 C 128.955 -5.71289 105.176 18.0664 75.6348 18.0664 Z M 55.2734 -6.78711 C 66.9434 -6.78711 74.7559 -17.7246 74.7559 -35.2051 C 74.7559 -52.8809 66.9434 -63.7695 55.2734 -63.7695 C 43.6523 -63.7695 35.9375 -52.8809 35.9375 -35.2051 C 35.9375 -17.7246 43.6523 -6.78711 55.2734 -6.78711 Z M 107.227 -7.32422 C 109.814 -7.32422 111.377 -9.08203 111.377 -12.207 L 111.377 -19.1895 L 115.283 -19.1895 C 117.432 -19.1895 118.848 -20.5566 118.848 -22.8516 C 118.848 -25.0977 117.432 -26.5137 115.283 -26.5137 L 111.279 -26.5137 L 111.279 -57.5195 C 111.279 -61.3281 108.789 -63.7207 104.883 -63.7207 C 101.025 -63.7207 98.6816 -62.3535 96.582 -58.7891 C 91.3574 -50.1465 83.9844 -37.5977 79.834 -29.9805 C 78.8574 -28.0762 78.418 -26.5625 78.418 -24.707 C 78.418 -21.1914 80.5664 -19.1406 84.082 -19.1406 L 103.223 -19.1406 L 103.223 -12.207 C 103.223 -9.13086 104.736 -7.32422 107.227 -7.32422 Z M 55.3223 -14.7949 C 48.7305 -14.7949 44.4824 -22.3633 44.4824 -35.2051 C 44.4824 -48.1934 48.6816 -55.8105 55.3223 -55.8105 C 61.9629 -55.8105 66.1621 -48.1934 66.1621 -35.2051 C 66.1621 -22.3633 61.9629 -14.7949 55.3223 -14.7949 Z M 103.369 -26.5137 L 86.9141 -26.5137 L 86.9141 -26.8066 C 90.5273 -33.7402 98.3398 -47.3145 103.027 -55.3223 L 103.369 -55.3223 Z"/>
  </g>
  <g id="Semibold-L" transform="matrix(1 0 0 1 1967 1556)">
   <path d="M 76.2695 29.7852 C 111.914 29.7852 141.26 0.439453 141.26 -35.2051 C 141.26 -70.8496 111.865 -100.244 76.2207 -100.244 C 40.5762 -100.244 11.2793 -70.8496 11.2793 -35.2051 C 11.2793 0.439453 40.625 29.7852 76.2695 29.7852 Z M 76.2695 17.0898 C 47.3145 17.0898 24.0234 -6.25 24.0234 -35.2051 C 24.0234 -64.209 47.2656 -87.5 76.2207 -87.5 C 105.225 -87.5 128.516 -64.209 128.564 -35.2051 C 128.613 -6.25 105.273 17.0898 76.2695 17.0898 Z M 56.0059 -6.93359 C 67.5293 -6.93359 75.3418 -17.4805 75.3418 -35.2051 C 75.3418 -53.0762 67.5293 -63.623 56.0059 -63.623 C 44.4336 -63.623 36.8164 -53.0762 36.8164 -35.2051 C 36.8164 -17.4805 44.4336 -6.93359 56.0059 -6.93359 Z M 107.178 -7.42188 C 110.01 -7.42188 111.719 -9.32617 111.719 -12.793 L 111.719 -19.043 L 115.137 -19.043 C 117.432 -19.043 118.896 -20.5078 118.896 -22.998 C 118.896 -25.4883 117.432 -27.0508 115.088 -27.0508 L 111.621 -27.0508 L 111.621 -56.6895 C 111.621 -60.9863 108.984 -63.5254 104.639 -63.5254 C 100.391 -63.5254 97.8516 -62.0605 95.6543 -58.2031 C 90.7227 -49.9023 83.9844 -38.0371 80.127 -30.7617 C 79.1992 -28.7598 78.7109 -27.002 78.7109 -24.9512 C 78.7109 -21.1914 80.957 -18.9453 84.7656 -18.9453 L 102.734 -18.9453 L 102.734 -12.793 C 102.734 -9.375 104.443 -7.42188 107.178 -7.42188 Z M 56.0547 -15.7715 C 50.0488 -15.7715 46.1914 -22.7051 46.1914 -35.2051 C 46.1914 -47.8516 50 -54.7852 56.0547 -54.7852 C 62.1094 -54.7852 65.918 -47.8516 65.918 -35.2051 C 65.918 -22.7051 62.0605 -15.7715 56.0547 -15.7715 Z M 103.027 -27.002 L 87.8906 -27.002 L 87.8906 -27.2949 C 91.2109 -33.9355 98.3398 -46.9238 102.686 -54.6875 L 103.027 -54.6875 Z"/>
  </g>
  <g id="Bold-L" transform="matrix(1 0 0 1 2262.9 1556)">
   <path d="M 77.0996 30.6152 C 113.184 30.6152 142.92 0.878906 142.92 -35.2051 C 142.92 -71.3379 113.135 -101.025 77.0508 -101.025 C 40.918 -101.025 11.2793 -71.3379 11.2793 -35.2051 C 11.2793 0.878906 40.9668 30.6152 77.0996 30.6152 Z M 77.0996 15.8691 C 48.7793 15.8691 26.0742 -6.93359 26.0742 -35.2051 C 26.0742 -63.4766 48.7793 -86.2793 77.0508 -86.2793 C 105.322 -86.2793 128.125 -63.4766 128.125 -35.2051 C 128.174 -6.93359 105.371 15.8691 77.0996 15.8691 Z M 56.8848 -7.17773 C 68.3105 -7.17773 76.0742 -17.1875 76.0742 -35.2539 C 76.0742 -53.418 68.3105 -63.4277 56.8848 -63.4277 C 45.5078 -63.4277 37.9395 -53.418 37.9395 -35.2539 C 37.9395 -17.1875 45.5078 -7.17773 56.8848 -7.17773 Z M 107.129 -7.56836 C 110.254 -7.56836 112.256 -9.66797 112.256 -13.5742 L 112.256 -18.7988 L 114.941 -18.7988 C 117.383 -18.7988 118.994 -20.459 118.994 -23.1934 C 118.994 -25.9766 117.383 -27.7344 114.893 -27.7344 L 112.012 -27.7344 L 112.012 -55.6641 C 112.012 -60.498 109.277 -63.2324 104.346 -63.2324 C 99.6094 -63.2324 96.7773 -61.6699 94.4336 -57.4219 C 89.8926 -49.5605 84.0332 -38.623 80.5664 -31.8359 C 79.5898 -29.6387 79.0527 -27.6367 79.0527 -25.293 C 79.0527 -21.1914 81.4453 -18.75 85.6934 -18.75 L 102.1 -18.75 L 102.1 -13.5742 C 102.1 -9.66797 104.053 -7.56836 107.129 -7.56836 Z M 102.539 -27.6855 L 89.1113 -27.6855 L 89.1113 -27.9785 C 92.0898 -34.1797 98.291 -46.4844 102.246 -53.8574 L 102.539 -53.8574 Z M 57.0312 -17.0898 C 51.7578 -17.0898 48.4375 -23.1934 48.4375 -35.2539 C 48.4375 -47.3633 51.7578 -53.4668 57.0312 -53.4668 C 62.3047 -53.4668 65.625 -47.3633 65.625 -35.2539 C 65.625 -23.1934 62.2559 -17.0898 57.0312 -17.0898 Z"/>
  </g>
  <g id="Heavy-L" transform="matrix(1 0 0 1 2558.42 1556)">
   <path d="M 78.2715 31.7871 C 115.039 31.7871 145.264 1.61133 145.264 -35.2051 C 145.264 -72.0215 115.039 -102.197 78.2227 -102.197 C 41.4551 -102.197 11.2793 -72.0215 11.2793 -35.2051 C 11.2793 1.61133 41.4551 31.7871 78.2715 31.7871 Z M 78.2715 14.0137 C 50.9766 14.0137 29.0527 -7.95898 29.0527 -35.2051 C 29.0527 -62.5 50.9766 -84.4727 78.2227 -84.4727 C 105.518 -84.4727 127.49 -62.5 127.49 -35.2051 C 127.539 -7.95898 105.518 14.0137 78.2715 14.0137 Z M 58.2031 -7.51953 C 69.3848 -7.51953 77.1484 -16.748 77.1484 -35.2539 C 77.1484 -53.8574 69.3848 -63.0859 58.2031 -63.0859 C 47.0215 -63.0859 39.6484 -53.8574 39.6484 -35.2539 C 39.6484 -16.748 47.0215 -7.51953 58.2031 -7.51953 Z M 107.031 -7.8125 C 110.645 -7.8125 112.939 -10.1562 112.939 -14.6973 L 112.939 -18.5059 L 114.648 -18.5059 C 117.383 -18.5059 119.141 -20.3613 119.141 -23.5352 C 119.141 -26.6602 117.383 -28.7109 114.6 -28.7109 L 112.646 -28.7109 L 112.646 -54.1504 C 112.646 -59.8145 109.668 -62.8906 103.906 -62.8906 C 98.4863 -62.8906 95.166 -61.1328 92.6758 -56.2988 C 88.6719 -49.0723 84.0332 -39.502 81.2012 -33.3984 C 80.1758 -30.957 79.541 -28.5156 79.541 -25.7812 C 79.541 -21.1426 82.1777 -18.4082 87.0117 -18.4082 L 101.172 -18.4082 L 101.172 -14.6973 C 101.172 -10.1562 103.467 -7.8125 107.031 -7.8125 Z M 101.904 -28.6133 L 90.918 -28.6133 L 90.918 -28.9062 C 93.4082 -34.5703 98.1934 -45.8008 101.611 -52.6855 L 101.904 -52.6855 Z M 58.3984 -18.9941 C 54.2969 -18.9941 51.6602 -23.877 51.6602 -35.2539 C 51.6602 -46.7285 54.248 -51.6113 58.3984 -51.6113 C 62.5488 -51.6113 65.1367 -46.7285 65.1367 -35.2539 C 65.1367 -23.877 62.5 -18.9941 58.3984 -18.9941 Z"/>
  </g>
  <g id="Black-L" transform="matrix(1 0 0 1 2854.08 1556)">
   <path d="M 79.2969 32.8613 C 116.748 32.8613 147.363 2.19727 147.363 -35.2051 C 147.363 -72.6074 116.699 -103.271 79.2969 -103.271 C 41.8945 -103.271 11.2793 -72.6074 11.2793 -35.2051 C 11.2793 2.19727 41.8945 32.8613 79.2969 32.8613 Z M 79.2969 12.4023 C 52.9297 12.4023 31.7383 -8.83789 31.7383 -35.2051 C 31.7383 -61.5723 52.9297 -82.8125 79.2969 -82.8125 C 105.664 -82.8125 126.904 -61.5723 126.953 -35.2051 C 126.953 -8.83789 105.664 12.4023 79.2969 12.4023 Z M 59.4238 -7.76367 C 70.4102 -7.76367 78.125 -16.3574 78.125 -35.2539 C 78.125 -54.248 70.4102 -62.8418 59.4238 -62.8418 C 48.4375 -62.8418 41.1621 -54.248 41.1621 -35.2539 C 41.1621 -16.3574 48.4375 -7.76367 59.4238 -7.76367 Z M 106.934 -8.00781 C 110.986 -8.00781 113.574 -10.5469 113.574 -15.6738 L 113.574 -18.2617 L 114.355 -18.2617 C 117.334 -18.2617 119.287 -20.3125 119.287 -23.8281 C 119.287 -27.2949 117.334 -29.5898 114.307 -29.5898 L 113.184 -29.5898 L 113.184 -52.7832 C 113.184 -59.1797 110.01 -62.5488 103.516 -62.5488 C 97.4609 -62.5488 93.7988 -60.5957 91.0645 -55.3223 C 87.5977 -48.6816 84.082 -40.2344 81.7871 -34.8145 C 80.7129 -32.0801 79.9805 -29.3457 79.9805 -26.2207 C 79.9805 -21.1426 82.8613 -18.0664 88.1348 -18.0664 L 100.342 -18.0664 L 100.342 -15.6738 C 100.342 -10.5957 102.93 -8.00781 106.934 -8.00781 Z M 101.27 -29.4922 L 92.5293 -29.4922 L 92.5293 -29.7363 C 94.5801 -34.9121 98.1445 -45.166 101.074 -51.6113 L 101.27 -51.6113 Z M 59.6191 -20.7031 C 56.543 -20.7031 54.541 -24.5117 54.541 -35.2539 C 54.541 -46.0938 56.4941 -49.9023 59.6191 -49.9023 C 62.793 -49.9023 64.7461 -46.0938 64.7461 -35.2539 C 64.7461 -24.5117 62.7441 -20.7031 59.6191 -20.7031 Z"/>
  </g>
 </g>
</svg>
