<?xml version="1.0" encoding="UTF-8"?>
<!--Generator: Apple Native CoreSVG 123-->
<!DOCTYPE svg
PUBLIC "-//W3C//DTD SVG 1.1//EN"
       "http://www.w3.org/Graphics/SVG/1.1/DTD/svg11.dtd">
<svg version="1.1" xmlns="http://www.w3.org/2000/svg" xmlns:xlink="http://www.w3.org/1999/xlink" width="3300" height="2200">
 <!--glyph: "uni1004FB.medium", point size: 100.000000, font version: "Version 15.0d4e20", template writer version: "2"-->
 <g id="Notes">
  <rect height="2200" id="artboard" style="fill:white;opacity:1" width="3300" x="0" y="0"/>
  <line id="" style="fill:none;stroke:black;opacity:1;stroke-width:0.5;" x1="263" x2="3036" y1="292" y2="292"/>
  <text style="stroke:none;fill:black;font-family:-apple-system,&quot;SF Pro Display&quot;,&quot;SF Pro Text&quot;,Helvetica,sans-serif;font-weight:bold;" transform="matrix(1 0 0 1 263 322)">Weight/Scale Variations</text>
  <text style="stroke:none;fill:black;font-family:-apple-system,&quot;SF Pro Display&quot;,&quot;SF Pro Text&quot;,Helvetica,sans-serif;text-anchor:middle;" transform="matrix(1 0 0 1 559.711 322)">Ultralight</text>
  <text style="stroke:none;fill:black;font-family:-apple-system,&quot;SF Pro Display&quot;,&quot;SF Pro Text&quot;,Helvetica,sans-serif;text-anchor:middle;" transform="matrix(1 0 0 1 856.422 322)">Thin</text>
  <text style="stroke:none;fill:black;font-family:-apple-system,&quot;SF Pro Display&quot;,&quot;SF Pro Text&quot;,Helvetica,sans-serif;text-anchor:middle;" transform="matrix(1 0 0 1 1153.13 322)">Light</text>
  <text style="stroke:none;fill:black;font-family:-apple-system,&quot;SF Pro Display&quot;,&quot;SF Pro Text&quot;,Helvetica,sans-serif;text-anchor:middle;" transform="matrix(1 0 0 1 1449.84 322)">Regular</text>
  <text style="stroke:none;fill:black;font-family:-apple-system,&quot;SF Pro Display&quot;,&quot;SF Pro Text&quot;,Helvetica,sans-serif;text-anchor:middle;" transform="matrix(1 0 0 1 1746.56 322)">Medium</text>
  <text style="stroke:none;fill:black;font-family:-apple-system,&quot;SF Pro Display&quot;,&quot;SF Pro Text&quot;,Helvetica,sans-serif;text-anchor:middle;" transform="matrix(1 0 0 1 2043.27 322)">Semibold</text>
  <text style="stroke:none;fill:black;font-family:-apple-system,&quot;SF Pro Display&quot;,&quot;SF Pro Text&quot;,Helvetica,sans-serif;text-anchor:middle;" transform="matrix(1 0 0 1 2339.98 322)">Bold</text>
  <text style="stroke:none;fill:black;font-family:-apple-system,&quot;SF Pro Display&quot;,&quot;SF Pro Text&quot;,Helvetica,sans-serif;text-anchor:middle;" transform="matrix(1 0 0 1 2636.69 322)">Heavy</text>
  <text style="stroke:none;fill:black;font-family:-apple-system,&quot;SF Pro Display&quot;,&quot;SF Pro Text&quot;,Helvetica,sans-serif;text-anchor:middle;" transform="matrix(1 0 0 1 2933.4 322)">Black</text>
  <line id="" style="fill:none;stroke:black;opacity:1;stroke-width:0.5;" x1="263" x2="3036" y1="1903" y2="1903"/>
  <g id="" transform="matrix(1 0 0 1 263 1933)">
   <path d="M 9.24805 0.830078 C 13.5547 0.830078 17.1387 -2.74414 17.1387 -7.05078 C 17.1387 -11.3574 13.5449 -14.9316 9.23828 -14.9316 C 4.94141 -14.9316 1.36719 -11.3574 1.36719 -7.05078 C 1.36719 -2.74414 4.95117 0.830078 9.24805 0.830078 Z M 9.24805 -0.654297 C 5.70312 -0.654297 2.87109 -3.49609 2.87109 -7.05078 C 2.87109 -10.6055 5.69336 -13.4473 9.23828 -13.4473 C 12.793 -13.4473 15.6348 -10.6055 15.6445 -7.05078 C 15.6543 -3.49609 12.8027 -0.654297 9.24805 -0.654297 Z M 9.22852 -3.42773 C 9.69727 -3.42773 9.9707 -3.74023 9.9707 -4.25781 L 9.9707 -6.31836 L 12.1973 -6.31836 C 12.6953 -6.31836 13.0371 -6.57227 13.0371 -7.04102 C 13.0371 -7.51953 12.7148 -7.7832 12.1973 -7.7832 L 9.9707 -7.7832 L 9.9707 -10.0098 C 9.9707 -10.5273 9.69727 -10.8496 9.22852 -10.8496 C 8.75977 -10.8496 8.50586 -10.5078 8.50586 -10.0098 L 8.50586 -7.7832 L 6.29883 -7.7832 C 5.78125 -7.7832 5.44922 -7.51953 5.44922 -7.04102 C 5.44922 -6.57227 5.80078 -6.31836 6.29883 -6.31836 L 8.50586 -6.31836 L 8.50586 -4.25781 C 8.50586 -3.75977 8.75977 -3.42773 9.22852 -3.42773 Z"/>
  </g>
  <g id="" transform="matrix(1 0 0 1 281.506 1933)">
   <path d="M 11.709 2.91016 C 17.1484 2.91016 21.6699 -1.60156 21.6699 -7.05078 C 21.6699 -12.4902 17.1387 -17.0117 11.6992 -17.0117 C 6.25 -17.0117 1.74805 -12.4902 1.74805 -7.05078 C 1.74805 -1.60156 6.25977 2.91016 11.709 2.91016 Z M 11.709 1.25 C 7.09961 1.25 3.41797 -2.44141 3.41797 -7.05078 C 3.41797 -11.6504 7.08984 -15.3516 11.6992 -15.3516 C 16.2988 -15.3516 20 -11.6504 20.0098 -7.05078 C 20.0195 -2.44141 16.3086 1.25 11.709 1.25 Z M 11.6797 -2.41211 C 12.207 -2.41211 12.5195 -2.77344 12.5195 -3.33984 L 12.5195 -6.23047 L 15.5762 -6.23047 C 16.123 -6.23047 16.5039 -6.51367 16.5039 -7.03125 C 16.5039 -7.55859 16.1426 -7.86133 15.5762 -7.86133 L 12.5195 -7.86133 L 12.5195 -10.9277 C 12.5195 -11.5039 12.207 -11.8555 11.6797 -11.8555 C 11.1621 -11.8555 10.8789 -11.4844 10.8789 -10.9277 L 10.8789 -7.86133 L 7.83203 -7.86133 C 7.25586 -7.86133 6.89453 -7.55859 6.89453 -7.03125 C 6.89453 -6.51367 7.28516 -6.23047 7.83203 -6.23047 L 10.8789 -6.23047 L 10.8789 -3.33984 C 10.8789 -2.79297 11.1621 -2.41211 11.6797 -2.41211 Z"/>
  </g>
  <g id="" transform="matrix(1 0 0 1 304.914 1933)">
   <path d="M 14.9707 5.67383 C 21.9336 5.67383 27.6855 -0.078125 27.6855 -7.04102 C 27.6855 -14.0039 21.9238 -19.7559 14.9609 -19.7559 C 7.99805 -19.7559 2.25586 -14.0039 2.25586 -7.04102 C 2.25586 -0.078125 8.00781 5.67383 14.9707 5.67383 Z M 14.9707 3.85742 C 8.92578 3.85742 4.08203 -1.00586 4.08203 -7.04102 C 4.08203 -13.0762 8.91602 -17.9395 14.9609 -17.9395 C 20.9961 -17.9395 25.8594 -13.0762 25.8691 -7.04102 C 25.8789 -1.00586 21.0059 3.85742 14.9707 3.85742 Z M 14.9414 -1.06445 C 15.5176 -1.06445 15.8594 -1.45508 15.8594 -2.06055 L 15.8594 -6.13281 L 20.0977 -6.13281 C 20.6934 -6.13281 21.1133 -6.46484 21.1133 -7.02148 C 21.1133 -7.59766 20.7227 -7.93945 20.0977 -7.93945 L 15.8594 -7.93945 L 15.8594 -12.1875 C 15.8594 -12.8027 15.5176 -13.1934 14.9414 -13.1934 C 14.3848 -13.1934 14.0625 -12.7832 14.0625 -12.1875 L 14.0625 -7.93945 L 9.82422 -7.93945 C 9.20898 -7.93945 8.80859 -7.59766 8.80859 -7.02148 C 8.80859 -6.46484 9.23828 -6.13281 9.82422 -6.13281 L 14.0625 -6.13281 L 14.0625 -2.06055 C 14.0625 -1.47461 14.3848 -1.06445 14.9414 -1.06445 Z"/>
  </g>
  <text style="stroke:none;fill:black;font-family:-apple-system,&quot;SF Pro Display&quot;,&quot;SF Pro Text&quot;,Helvetica,sans-serif;font-weight:bold;" transform="matrix(1 0 0 1 263 1953)">Design Variations</text>
  <text style="stroke:none;fill:black;font-family:-apple-system,&quot;SF Pro Display&quot;,&quot;SF Pro Text&quot;,Helvetica,sans-serif;" transform="matrix(1 0 0 1 263 1971)">Symbols are supported in up to nine weights and three scales.</text>
  <text style="stroke:none;fill:black;font-family:-apple-system,&quot;SF Pro Display&quot;,&quot;SF Pro Text&quot;,Helvetica,sans-serif;" transform="matrix(1 0 0 1 263 1989)">For optimal layout with text and other symbols, vertically align</text>
  <text style="stroke:none;fill:black;font-family:-apple-system,&quot;SF Pro Display&quot;,&quot;SF Pro Text&quot;,Helvetica,sans-serif;" transform="matrix(1 0 0 1 263 2007)">symbols with the adjacent text.</text>
  <rect height="14" id="" style="fill:#00AEEF;stroke:none;opacity:0.4;" width="3" x="776" y="1919"/>
  <g id="" transform="matrix(1 0 0 1 779 1933)">
   <path d="M 10.5273 0 L 12.373 0 L 7.17773 -14.0918 L 5.43945 -14.0918 L 0.244141 0 L 2.08984 0 L 3.50586 -4.0332 L 9.11133 -4.0332 Z M 6.2793 -11.9531 L 6.33789 -11.9531 L 8.59375 -5.52734 L 4.02344 -5.52734 Z"/>
  </g>
  <rect height="14" id="" style="fill:#00AEEF;stroke:none;opacity:0.4;" width="3" x="791.617" y="1919"/>
  <text style="stroke:none;fill:black;font-family:-apple-system,&quot;SF Pro Display&quot;,&quot;SF Pro Text&quot;,Helvetica,sans-serif;font-weight:bold;" transform="matrix(1 0 0 1 776 1953)">Side Bearings</text>
  <text style="stroke:none;fill:black;font-family:-apple-system,&quot;SF Pro Display&quot;,&quot;SF Pro Text&quot;,Helvetica,sans-serif;" transform="matrix(1 0 0 1 776 1971)">Horizontal padding on the left and right side of each symbol</text>
  <text style="stroke:none;fill:black;font-family:-apple-system,&quot;SF Pro Display&quot;,&quot;SF Pro Text&quot;,Helvetica,sans-serif;" transform="matrix(1 0 0 1 776 1989)">can be adjusted by modifying the width of the blue rectangles.</text>
  <text style="stroke:none;fill:black;font-family:-apple-system,&quot;SF Pro Display&quot;,&quot;SF Pro Text&quot;,Helvetica,sans-serif;" transform="matrix(1 0 0 1 776 2007)">Modifications are automatically applied proportionally to all</text>
  <text style="stroke:none;fill:black;font-family:-apple-system,&quot;SF Pro Display&quot;,&quot;SF Pro Text&quot;,Helvetica,sans-serif;" transform="matrix(1 0 0 1 776 2025)">scales and weights.</text>
  <g id="" transform="matrix(1 0 0 1 1289 1933)">
   <path d="M 2.96875 2.35352 L 3.80859 3.19336 C 4.84375 4.22852 6.12305 4.15039 7.19727 2.97852 L 16.1621 -6.82617 C 16.5527 -6.74805 16.9629 -6.8457 17.4902 -7.02148 C 18.1738 -7.25586 18.2715 -7.25586 18.3887 -7.13867 C 18.5352 -7.01172 18.4863 -6.89453 18.2422 -6.25 C 17.8809 -5.33203 17.8125 -4.79492 18.5547 -4.02344 L 19.4238 -3.13477 C 20.2734 -2.24609 21.3281 -2.26562 22.2168 -3.14453 L 25.0586 -5.97656 C 25.9473 -6.86523 25.957 -7.92969 25.0781 -8.7793 L 24.1797 -9.64844 C 23.4082 -10.4004 22.8711 -10.3516 21.9629 -9.98047 C 21.3184 -9.72656 21.2012 -9.6875 21.0645 -9.81445 C 20.9375 -9.93164 20.9473 -10.0391 21.1816 -10.7129 C 21.5332 -11.6895 21.5723 -12.2852 20.752 -13.0957 L 19.3359 -14.5117 C 15.1953 -18.6133 11.2305 -18.7402 7.65625 -15.4395 C 7.08008 -14.9023 6.99219 -14.1504 7.53906 -13.6133 L 7.79297 -13.3594 C 8.22266 -12.9297 8.86719 -12.8418 9.41406 -13.1152 C 11.0645 -13.9453 12.2559 -14.0234 13.457 -12.9785 L 13.0273 -11.416 C 12.8516 -10.8008 12.793 -10.3418 12.9199 -9.93164 L 3.18359 -1.04492 C 2.02148 0.0292969 1.93359 1.32812 2.96875 2.35352 Z M 8.96484 -14.4922 C 8.89648 -14.5703 8.86719 -14.6582 8.99414 -14.7559 C 11.709 -17.2852 15.0391 -16.8457 18.3496 -13.5254 L 19.6973 -12.168 C 20.0879 -11.7773 20.0977 -11.582 19.8828 -10.8691 C 19.6582 -10.127 19.502 -9.53125 20.1465 -8.88672 C 20.8105 -8.22266 21.2891 -8.41797 22.207 -8.63281 C 22.9004 -8.79883 23.0664 -8.79883 23.4473 -8.41797 L 24.0918 -7.77344 C 24.4043 -7.48047 24.4141 -7.32422 24.0723 -6.97266 L 21.2207 -4.13086 C 20.8887 -3.79883 20.7227 -3.79883 20.4297 -4.10156 L 19.7852 -4.75586 C 19.4141 -5.13672 19.4141 -5.30273 19.5801 -6.01562 C 19.7852 -6.88477 19.9805 -7.38281 19.3262 -8.04688 C 18.6719 -8.7207 18.0762 -8.57422 17.3438 -8.33008 C 16.5625 -8.06641 16.3281 -8.06641 15.8984 -8.49609 L 14.6094 -9.78516 C 14.1699 -10.2246 14.1309 -10.4395 14.2676 -10.9082 L 15.0293 -13.3984 C 13.3887 -15.2832 11.4941 -15.5566 9.20898 -14.4434 C 9.11133 -14.3945 9.04297 -14.4141 8.96484 -14.4922 Z M 3.96484 1.36719 C 3.52539 0.927734 3.54492 0.537109 4.14062 -0.00976562 L 13.7402 -8.81836 L 15 -7.55859 L 6.17188 2.02148 C 5.625 2.60742 5.24414 2.64648 4.79492 2.19727 Z"/>
  </g>
  <text style="stroke:none;fill:black;font-family:-apple-system,&quot;SF Pro Display&quot;,&quot;SF Pro Text&quot;,Helvetica,sans-serif;font-weight:bold;" transform="matrix(1 0 0 1 1289 1953)">Exporting</text>
  <text style="stroke:none;fill:black;font-family:-apple-system,&quot;SF Pro Display&quot;,&quot;SF Pro Text&quot;,Helvetica,sans-serif;" transform="matrix(1 0 0 1 1289 1971)">Symbols should be outlined when exporting to ensure the</text>
  <text style="stroke:none;fill:black;font-family:-apple-system,&quot;SF Pro Display&quot;,&quot;SF Pro Text&quot;,Helvetica,sans-serif;" transform="matrix(1 0 0 1 1289 1989)">design is preserved when submitting to Xcode.</text>
  <text id="template-version" style="stroke:none;fill:black;font-family:-apple-system,&quot;SF Pro Display&quot;,&quot;SF Pro Text&quot;,Helvetica,sans-serif;text-anchor:end;" transform="matrix(1 0 0 1 3036 1933)">Template v.0.1</text>
  <text style="stroke:none;fill:black;font-family:-apple-system,&quot;SF Pro Display&quot;,&quot;SF Pro Text&quot;,Helvetica,sans-serif;text-anchor:end;" transform="matrix(1 0 0 1 3036 1951)">Generated from 16.circle</text>
  <text style="stroke:none;fill:black;font-family:-apple-system,&quot;SF Pro Display&quot;,&quot;SF Pro Text&quot;,Helvetica,sans-serif;text-anchor:end;" transform="matrix(1 0 0 1 3036 1969)">Typeset at 100 points</text>
  <text style="stroke:none;fill:black;font-family:-apple-system,&quot;SF Pro Display&quot;,&quot;SF Pro Text&quot;,Helvetica,sans-serif;" transform="matrix(1 0 0 1 263 726)">Small</text>
  <text style="stroke:none;fill:black;font-family:-apple-system,&quot;SF Pro Display&quot;,&quot;SF Pro Text&quot;,Helvetica,sans-serif;" transform="matrix(1 0 0 1 263 1156)">Medium</text>
  <text style="stroke:none;fill:black;font-family:-apple-system,&quot;SF Pro Display&quot;,&quot;SF Pro Text&quot;,Helvetica,sans-serif;" transform="matrix(1 0 0 1 263 1586)">Large</text>
 </g>
 <g id="Guides">
  <g id="H-reference" style="fill:#27AAE1;stroke:none;" transform="matrix(1 0 0 1 339 696)">
   <path d="M 54.9316 0 L 57.666 0 L 30.5664 -70.459 L 28.0762 -70.459 L 0.976562 0 L 3.66211 0 L 12.9395 -24.4629 L 45.7031 -24.4629 Z M 29.1992 -67.0898 L 29.4434 -67.0898 L 44.8242 -26.709 L 13.8184 -26.709 Z"/>
  </g>
  <line id="Baseline-S" style="fill:none;stroke:#27AAE1;opacity:1;stroke-width:0.577;" x1="263" x2="3036" y1="696" y2="696"/>
  <line id="Capline-S" style="fill:none;stroke:#27AAE1;opacity:1;stroke-width:0.577;" x1="263" x2="3036" y1="625.541" y2="625.541"/>
  <g id="H-reference" style="fill:#27AAE1;stroke:none;" transform="matrix(1 0 0 1 339 1126)">
   <path d="M 54.9316 0 L 57.666 0 L 30.5664 -70.459 L 28.0762 -70.459 L 0.976562 0 L 3.66211 0 L 12.9395 -24.4629 L 45.7031 -24.4629 Z M 29.1992 -67.0898 L 29.4434 -67.0898 L 44.8242 -26.709 L 13.8184 -26.709 Z"/>
  </g>
  <line id="Baseline-M" style="fill:none;stroke:#27AAE1;opacity:1;stroke-width:0.577;" x1="263" x2="3036" y1="1126" y2="1126"/>
  <line id="Capline-M" style="fill:none;stroke:#27AAE1;opacity:1;stroke-width:0.577;" x1="263" x2="3036" y1="1055.54" y2="1055.54"/>
  <g id="H-reference" style="fill:#27AAE1;stroke:none;" transform="matrix(1 0 0 1 339 1556)">
   <path d="M 54.9316 0 L 57.666 0 L 30.5664 -70.459 L 28.0762 -70.459 L 0.976562 0 L 3.66211 0 L 12.9395 -24.4629 L 45.7031 -24.4629 Z M 29.1992 -67.0898 L 29.4434 -67.0898 L 44.8242 -26.709 L 13.8184 -26.709 Z"/>
  </g>
  <line id="Baseline-L" style="fill:none;stroke:#27AAE1;opacity:1;stroke-width:0.577;" x1="263" x2="3036" y1="1556" y2="1556"/>
  <line id="Capline-L" style="fill:none;stroke:#27AAE1;opacity:1;stroke-width:0.577;" x1="263" x2="3036" y1="1485.54" y2="1485.54"/>
  <rect height="119.336" id="left-margin" style="fill:#00AEEF;stroke:none;opacity:0.4;" width="8.74023" x="1391.32" y="1030.79"/>
  <rect height="119.336" id="right-margin" style="fill:#00AEEF;stroke:none;opacity:0.4;" width="8.69141" x="1499.67" y="1030.79"/>
 </g>
 <g id="Symbols">
  <g id="Ultralight-S" transform="matrix(1 0 0 1 515.644 696)">
   <path d="M 44.043 2.05078 C 64.502 2.05078 81.2988 -14.6973 81.2988 -35.1562 C 81.2988 -55.6152 64.502 -72.3633 44.043 -72.3633 C 23.584 -72.3633 6.83594 -55.6152 6.83594 -35.1562 C 6.83594 -14.6973 23.584 2.05078 44.043 2.05078 Z M 44.043 -0.146484 C 24.7559 -0.146484 9.08203 -15.8691 9.08203 -35.1562 C 9.08203 -54.4434 24.7559 -70.166 44.043 -70.166 C 63.3789 -70.166 79.0527 -54.4434 79.0527 -35.1562 C 79.0527 -15.8691 63.3789 -0.146484 44.043 -0.146484 Z M 52.7832 -17.7734 C 59.6191 -17.7734 64.2578 -22.3145 64.2578 -29.0527 C 64.2578 -35.2539 59.668 -39.7461 53.5156 -39.7461 C 48.3887 -39.7461 45.0195 -37.207 43.2129 -33.4473 L 43.0664 -33.4473 L 43.0664 -33.8867 C 43.0664 -44.2871 46.9727 -50.3418 53.3691 -50.3418 C 56.7383 -50.3418 59.7656 -48.6328 60.9863 -45.9961 C 61.3281 -45.3613 61.6211 -45.1172 62.207 -45.1172 C 62.793 -45.1172 63.0859 -45.459 63.0859 -46.0938 C 63.0859 -46.3379 63.0371 -46.5332 62.9883 -46.7285 C 62.3535 -49.0723 58.8379 -52.4414 53.4668 -52.4414 C 45.6055 -52.4414 40.918 -45.7031 40.918 -34.0332 C 40.918 -29.6387 41.6016 -25.8301 42.8223 -23.584 C 44.7266 -19.873 48.4375 -17.7734 52.7832 -17.7734 Z M 31.0059 -18.0176 C 31.6895 -18.0176 32.1289 -18.5059 32.1289 -19.1406 L 32.1289 -51.1719 C 32.1289 -51.9531 31.5918 -52.4414 30.8105 -52.4414 C 30.2734 -52.4414 29.834 -52.2949 29.1504 -51.8066 L 21.0449 -46.5332 C 20.6055 -46.2891 20.459 -45.9473 20.459 -45.5566 C 20.459 -44.9707 20.8984 -44.4824 21.4844 -44.4824 C 21.7285 -44.4824 21.875 -44.5312 22.0703 -44.6777 L 29.6875 -49.5605 L 29.8828 -49.5605 L 29.8828 -19.1406 C 29.8828 -18.5059 30.3223 -18.0176 31.0059 -18.0176 Z M 52.832 -19.8242 C 47.5098 -19.8242 43.6523 -23.6328 43.6523 -28.9062 C 43.6523 -33.9844 47.5586 -37.6953 52.9297 -37.6953 C 58.3008 -37.6953 62.0117 -34.1309 62.0117 -28.8574 C 62.0117 -23.3887 58.3496 -19.8242 52.832 -19.8242 Z"/>
  </g>
  <g id="Thin-S" transform="matrix(1 0 0 1 811.867 696)">
   <path d="M 44.5801 2.53906 C 65.2832 2.53906 82.2754 -14.4531 82.2754 -35.2051 C 82.2754 -55.9082 65.2344 -72.9004 44.5312 -72.9004 C 23.8281 -72.9004 6.83594 -55.9082 6.83594 -35.2051 C 6.83594 -14.4531 23.877 2.53906 44.5801 2.53906 Z M 44.5801 -0.878906 C 25.5859 -0.878906 10.2539 -16.2109 10.2539 -35.2051 C 10.2539 -54.1504 25.5859 -69.4824 44.5312 -69.4824 C 63.5254 -69.4824 78.8574 -54.1504 78.8574 -35.2051 C 78.8574 -16.2109 63.5254 -0.878906 44.5801 -0.878906 Z M 53.5156 -17.7734 C 60.3516 -17.7734 65.0391 -22.2656 65.0391 -29.1992 C 65.0391 -35.5957 60.3516 -39.8926 54.4434 -39.8926 C 49.4629 -39.8926 46.2891 -37.4023 44.6777 -33.9355 L 44.4824 -33.9355 L 44.4824 -34.375 C 44.4824 -43.9941 48.1934 -49.7559 54.1016 -49.7559 C 57.2266 -49.7559 59.8633 -48.1934 61.0352 -45.8496 C 61.4746 -45.0684 61.8652 -44.7754 62.5977 -44.7754 C 63.3301 -44.7754 63.8184 -45.2637 63.8184 -46.0938 C 63.8184 -46.4355 63.7207 -46.6797 63.623 -46.9727 C 62.8906 -49.4141 59.4238 -52.5391 54.1992 -52.5391 C 46.3379 -52.5391 41.6016 -45.9961 41.6016 -34.1309 C 41.6016 -29.541 42.334 -25.7812 43.5547 -23.4863 C 45.5566 -19.7266 49.2676 -17.7734 53.5156 -17.7734 Z M 31.7871 -18.0664 C 32.7148 -18.0664 33.3008 -18.75 33.3008 -19.6777 L 33.3008 -50.5859 C 33.3008 -51.7578 32.6172 -52.4414 31.5918 -52.4414 C 30.8105 -52.4414 30.2734 -52.1973 29.3945 -51.5625 L 21.7773 -46.6309 C 21.2402 -46.2402 20.9961 -45.8496 20.9961 -45.2148 C 20.9961 -44.4336 21.6797 -43.7988 22.4121 -43.7988 C 22.7539 -43.7988 22.9492 -43.8477 23.3398 -44.1406 L 30.0781 -48.584 L 30.2734 -48.584 L 30.2734 -19.6777 C 30.2734 -18.75 30.8594 -18.0664 31.7871 -18.0664 Z M 53.4668 -20.5078 C 48.584 -20.5078 45.0684 -24.0723 45.0684 -29.0039 C 45.0684 -33.8379 48.584 -37.3047 53.5645 -37.3047 C 58.5449 -37.3047 61.9141 -33.9355 61.9141 -28.9551 C 61.9141 -23.8281 58.5938 -20.5078 53.4668 -20.5078 Z"/>
  </g>
  <g id="Light-S" transform="matrix(1 0 0 1 1107.6 696)">
   <path d="M 45.5078 3.4668 C 66.6992 3.4668 84.2285 -14.0625 84.2285 -35.2051 C 84.2285 -56.3965 66.6504 -73.9258 45.5078 -73.9258 C 24.3164 -73.9258 6.83594 -56.3965 6.83594 -35.2051 C 6.83594 -14.0625 24.3652 3.4668 45.5078 3.4668 Z M 45.5078 -2.24609 C 27.2461 -2.24609 12.5977 -16.9434 12.5977 -35.2051 C 12.5977 -53.5156 27.1973 -68.2129 45.5078 -68.2129 C 63.7695 -68.2129 78.4668 -53.5156 78.5156 -35.2051 C 78.5156 -16.9434 63.8184 -2.24609 45.5078 -2.24609 Z M 54.9316 -17.8223 C 61.6699 -17.8223 66.4551 -22.168 66.4551 -29.4922 C 66.4551 -36.2793 61.6211 -40.2344 56.1523 -40.2344 C 51.5137 -40.2344 48.7305 -37.793 47.4609 -34.9121 L 47.2168 -34.9121 L 47.2168 -35.3027 C 47.2168 -43.5059 50.5371 -48.584 55.5176 -48.584 C 58.1055 -48.584 60.0586 -47.3145 61.084 -45.5566 C 61.7676 -44.5801 62.3047 -44.1406 63.3789 -44.1406 C 64.4043 -44.1406 65.1367 -44.9219 65.1367 -46.0938 C 65.1367 -46.582 65.0879 -47.0215 64.8926 -47.4609 C 63.916 -50.1465 60.5469 -52.6855 55.7129 -52.6855 C 47.8027 -52.6855 42.8711 -46.4844 42.8711 -34.3262 C 42.8711 -29.3945 43.7012 -25.7324 45.0195 -23.291 C 47.1191 -19.4336 50.8789 -17.8223 54.9316 -17.8223 Z M 33.252 -18.1641 C 34.7656 -18.1641 35.5469 -19.2383 35.5469 -20.6543 L 35.5469 -49.4629 C 35.5469 -51.3184 34.6191 -52.3926 33.0078 -52.3926 C 31.8848 -52.3926 31.1035 -52.0508 29.7852 -51.123 L 23.291 -46.7773 C 22.5098 -46.2402 22.0703 -45.6055 22.0703 -44.6777 C 22.0703 -43.4082 23.0957 -42.4805 24.1699 -42.4805 C 24.707 -42.4805 25.0977 -42.5293 25.8301 -43.1152 L 30.8105 -46.6309 L 31.0547 -46.6309 L 31.0547 -20.6543 C 31.0547 -19.2383 31.8359 -18.1641 33.252 -18.1641 Z M 54.7363 -21.7773 C 50.6348 -21.7773 47.7051 -24.9023 47.7051 -29.248 C 47.7051 -33.4961 50.6348 -36.4746 54.7852 -36.4746 C 58.9355 -36.4746 61.7676 -33.5449 61.7676 -29.1992 C 61.7676 -24.6582 59.0332 -21.7773 54.7363 -21.7773 Z"/>
  </g>
  <g id="Regular-S" transform="matrix(1 0 0 1 1403.58 696)">
   <path d="M 46.2402 4.15039 C 67.7734 4.15039 85.6934 -13.7207 85.6934 -35.2539 C 85.6934 -56.7871 67.7246 -74.6582 46.1914 -74.6582 C 24.707 -74.6582 6.83594 -56.7871 6.83594 -35.2539 C 6.83594 -13.7207 24.7559 4.15039 46.2402 4.15039 Z M 46.2402 -3.27148 C 28.5156 -3.27148 14.3555 -17.4805 14.3555 -35.2539 C 14.3555 -53.0273 28.4668 -67.2363 46.1914 -67.2363 C 63.9648 -67.2363 78.1738 -53.0273 78.2227 -35.2539 C 78.2715 -17.4805 64.0137 -3.27148 46.2402 -3.27148 Z M 56.0059 -17.8223 C 62.6953 -17.8223 67.5293 -22.0703 67.5293 -29.6875 C 67.5293 -36.7676 62.5977 -40.4785 57.4707 -40.4785 C 53.0273 -40.4785 50.5371 -38.0859 49.6094 -35.5957 L 49.3164 -35.5957 L 49.3164 -35.9863 C 49.3164 -43.0664 52.3438 -47.6562 56.5918 -47.6562 C 58.7891 -47.6562 60.2051 -46.6309 61.1328 -45.3613 C 61.9629 -44.1895 62.6465 -43.7012 63.9648 -43.7012 C 65.1855 -43.7012 66.1621 -44.6289 66.1621 -46.0938 C 66.1621 -46.7285 66.0645 -47.2656 65.8691 -47.8516 C 64.6484 -50.6836 61.4258 -52.832 56.8359 -52.832 C 48.877 -52.832 43.8477 -46.9238 43.8477 -34.4727 C 43.8477 -29.2969 44.7266 -25.6836 46.1426 -23.1445 C 48.3398 -19.2383 52.0996 -17.8223 56.0059 -17.8223 Z M 34.4238 -18.2617 C 36.2793 -18.2617 37.3047 -19.5801 37.3047 -21.3867 L 37.3047 -48.6328 C 37.3047 -51.0254 36.1816 -52.3926 34.082 -52.3926 C 32.7148 -52.3926 31.7871 -51.9043 30.127 -50.7812 L 24.4141 -46.875 C 23.4863 -46.1914 22.9004 -45.4102 22.9004 -44.2383 C 22.9004 -42.6758 24.1699 -41.5039 25.4883 -41.5039 C 26.2207 -41.5039 26.6602 -41.5527 27.7344 -42.3828 L 31.3965 -45.166 L 31.6406 -45.166 L 31.6406 -21.3867 C 31.6406 -19.6289 32.5684 -18.2617 34.4238 -18.2617 Z M 55.7129 -22.7539 C 52.1973 -22.7539 49.7559 -25.5371 49.7559 -29.4434 C 49.7559 -33.252 52.1484 -35.8887 55.7129 -35.8887 C 59.2773 -35.8887 61.6699 -33.252 61.6699 -29.3945 C 61.6699 -25.3418 59.375 -22.7539 55.7129 -22.7539 Z"/>
  </g>
  <g id="Medium-S" transform="matrix(1 0 0 1 1699.7 696)">
   <path d="M 46.8262 4.78516 C 68.75 4.78516 86.8652 -13.3301 86.8652 -35.2539 C 86.8652 -57.1289 68.7012 -75.2441 46.8262 -75.2441 C 24.9023 -75.2441 6.83594 -57.1289 6.83594 -35.2539 C 6.83594 -13.3301 24.9512 4.78516 46.8262 4.78516 Z M 46.8262 -4.19922 C 29.6387 -4.19922 15.8691 -18.0176 15.8691 -35.2539 C 15.8691 -52.4414 29.5898 -66.2598 46.8262 -66.2598 C 64.0137 -66.2598 77.832 -52.4414 77.8809 -35.2539 C 77.8809 -18.0176 64.0625 -4.19922 46.8262 -4.19922 Z M 56.8848 -18.0664 C 63.5254 -18.0664 68.2129 -22.4121 68.2129 -29.8828 C 68.2129 -36.6699 63.5742 -40.3809 58.6426 -40.3809 C 54.4922 -40.3809 52.1973 -38.1836 51.2207 -35.791 L 50.9277 -35.791 C 50.9277 -36.0352 50.8789 -36.2793 50.8789 -36.6211 C 50.8789 -42.7734 53.6621 -46.8262 57.4219 -46.8262 C 59.4238 -46.8262 60.6934 -45.8984 61.5723 -44.7266 C 62.3535 -43.7012 63.0859 -43.1641 64.4043 -43.1641 C 65.7715 -43.1641 66.9434 -44.1895 66.9434 -45.8008 C 66.9434 -46.5332 66.8457 -47.1191 66.5527 -47.7539 C 65.332 -50.4395 62.207 -52.5391 57.666 -52.5391 C 49.9512 -52.5391 44.8242 -46.6309 44.8242 -34.6191 C 44.8242 -29.834 45.6055 -26.2207 46.9727 -23.6816 C 49.1211 -19.6289 52.832 -18.0664 56.8848 -18.0664 Z M 35.5957 -18.3105 C 37.7441 -18.3105 38.8672 -19.8242 38.8672 -22.0703 L 38.8672 -47.998 C 38.8672 -50.7324 37.5488 -52.2949 35.0586 -52.2949 C 33.5449 -52.2949 32.4707 -51.8555 30.6641 -50.4395 L 25.4883 -46.6309 C 24.3652 -45.7031 23.7305 -44.8242 23.7305 -43.5059 C 23.7305 -41.8945 25.0977 -40.625 26.5625 -40.625 C 27.4414 -40.625 28.0273 -40.7715 29.0527 -41.748 L 32.1777 -44.3848 L 32.4219 -44.3848 L 32.4219 -22.0703 C 32.4219 -19.8242 33.4961 -18.3105 35.5957 -18.3105 Z M 56.543 -23.5352 C 53.4668 -23.5352 51.3184 -25.9766 51.3184 -29.4922 C 51.3184 -32.8613 53.4668 -35.2539 56.543 -35.2539 C 59.668 -35.2539 61.8164 -32.8613 61.8164 -29.4434 C 61.8164 -25.8301 59.7168 -23.5352 56.543 -23.5352 Z"/>
  </g>
  <g id="Semibold-S" transform="matrix(1 0 0 1 1995.98 696)">
   <path d="M 47.3145 5.22461 C 69.4824 5.22461 87.7441 -13.0371 87.7441 -35.2539 C 87.7441 -57.4219 69.4336 -75.6836 47.2656 -75.6836 C 25.0977 -75.6836 6.83594 -57.4219 6.83594 -35.2539 C 6.83594 -13.0371 25.0977 5.22461 47.3145 5.22461 Z M 47.3145 -4.93164 C 30.4688 -4.93164 17.041 -18.4082 17.041 -35.2539 C 17.041 -52.0508 30.4688 -65.5273 47.2656 -65.5273 C 64.0625 -65.5273 77.5879 -52.0508 77.5879 -35.2539 C 77.6367 -18.4082 64.1113 -4.93164 47.3145 -4.93164 Z M 57.5684 -18.2129 C 64.1602 -18.2129 68.75 -22.6562 68.75 -30.0293 C 68.75 -36.6211 64.3066 -40.2832 59.5215 -40.2832 C 55.6152 -40.2832 53.418 -38.2324 52.4414 -35.9375 L 52.1973 -35.9375 C 52.1484 -36.2793 52.1484 -36.5723 52.1484 -37.0605 C 52.1484 -42.5781 54.6875 -46.1914 58.1055 -46.1914 C 59.9121 -46.1914 61.0352 -45.3125 61.8652 -44.2383 C 62.6465 -43.3105 63.3789 -42.7734 64.7949 -42.7734 C 66.2109 -42.7734 67.5293 -43.8477 67.5293 -45.5566 C 67.5293 -46.3867 67.3828 -47.0215 67.041 -47.7051 C 65.8691 -50.293 62.793 -52.3438 58.3008 -52.3438 C 50.7812 -52.3438 45.5566 -46.4355 45.5566 -34.7656 C 45.5566 -30.2246 46.2891 -26.6602 47.6074 -24.0234 C 49.7559 -19.9707 53.3691 -18.2129 57.5684 -18.2129 Z M 36.5234 -18.3594 C 38.8672 -18.3594 40.0879 -19.9707 40.0879 -22.5586 L 40.0879 -47.5586 C 40.0879 -50.4883 38.623 -52.1973 35.791 -52.1973 C 34.2285 -52.1973 33.0078 -51.7578 31.1035 -50.1953 L 26.2695 -46.4355 C 25.0488 -45.3613 24.4141 -44.3848 24.4141 -43.0176 C 24.4141 -41.3086 25.7812 -39.9414 27.3926 -39.9414 C 28.418 -39.9414 29.1016 -40.1855 30.0781 -41.2598 L 32.8125 -43.75 L 33.0078 -43.75 L 33.0078 -22.5586 C 33.0078 -20.0195 34.1797 -18.3594 36.5234 -18.3594 Z M 57.1777 -24.1211 C 54.4434 -24.1211 52.4902 -26.3184 52.4902 -29.4922 C 52.4902 -32.5684 54.4434 -34.7168 57.1777 -34.7168 C 59.9609 -34.7168 61.8652 -32.5684 61.8652 -29.4922 C 61.8652 -26.2207 60.0098 -24.1211 57.1777 -24.1211 Z"/>
  </g>
  <g id="Bold-S" transform="matrix(1 0 0 1 2292.1 696)">
   <path d="M 47.9004 5.81055 C 70.4102 5.81055 88.916 -12.6465 88.916 -35.2051 C 88.916 -57.7637 70.4102 -76.2695 47.8516 -76.2695 C 25.293 -76.2695 6.83594 -57.7637 6.83594 -35.2051 C 6.83594 -12.6465 25.3418 5.81055 47.9004 5.81055 Z M 47.9004 -5.85938 C 31.6406 -5.85938 18.5547 -18.9453 18.5547 -35.2051 C 18.5547 -51.4648 31.5918 -64.5508 47.8516 -64.5508 C 64.1113 -64.5508 77.1973 -51.4648 77.2461 -35.2051 C 77.2461 -18.9453 64.1602 -5.85938 47.9004 -5.85938 Z M 37.7441 -18.4082 C 40.3809 -18.4082 41.6992 -20.2148 41.6992 -23.1934 L 41.6992 -46.9238 C 41.6992 -50.1953 40.0879 -52.0996 36.8164 -52.0996 C 35.0586 -52.0996 33.7402 -51.709 31.6895 -49.8047 L 27.3438 -46.1914 C 25.9277 -44.873 25.2441 -43.7988 25.2441 -42.2852 C 25.2441 -40.5273 26.6602 -39.0625 28.4668 -39.0625 C 29.6875 -39.0625 30.4688 -39.4531 31.4453 -40.5762 L 33.6426 -42.9688 L 33.7891 -42.9688 L 33.7891 -23.1934 C 33.7891 -20.2148 35.1074 -18.4082 37.7441 -18.4082 Z M 58.4961 -18.457 C 64.9902 -18.457 69.3848 -22.998 69.3848 -30.2246 C 69.3848 -36.5234 65.2344 -40.1855 60.6445 -40.1855 C 57.0801 -40.1855 55.0781 -38.2812 54.1016 -36.1328 L 53.8574 -36.1328 C 53.7598 -36.5723 53.7598 -37.0117 53.7598 -37.6953 C 53.7598 -42.2852 56.0059 -45.3613 58.9355 -45.3613 C 60.5469 -45.3613 61.5234 -44.5801 62.3047 -43.6035 C 63.0371 -42.8223 63.8184 -42.2852 65.2832 -42.2852 C 66.7969 -42.2852 68.3105 -43.4082 68.3105 -45.2637 C 68.3105 -46.1914 68.1152 -46.875 67.7246 -47.6562 C 66.5527 -50.0488 63.5742 -52.0508 59.1309 -52.0508 C 51.8555 -52.0508 46.4844 -46.1914 46.4844 -34.9609 C 46.4844 -30.7617 47.2168 -27.1973 48.4375 -24.5117 C 50.5859 -20.3613 54.1016 -18.457 58.4961 -18.457 Z M 58.0566 -24.9023 C 55.7617 -24.9023 54.1016 -26.8066 54.1016 -29.541 C 54.1016 -32.1777 55.7617 -34.082 58.0566 -34.082 C 60.3516 -34.082 62.0117 -32.1777 62.0117 -29.541 C 62.0117 -26.7578 60.4004 -24.9023 58.0566 -24.9023 Z"/>
  </g>
  <g id="Heavy-S" transform="matrix(1 0 0 1 2587.96 696)">
   <path d="M 48.7305 6.68945 C 71.8262 6.68945 90.625 -12.1094 90.625 -35.2051 C 90.625 -58.3008 71.8262 -77.0996 48.7305 -77.0996 C 25.6348 -77.0996 6.83594 -58.3008 6.83594 -35.2051 C 6.83594 -12.1094 25.6348 6.68945 48.7305 6.68945 Z M 48.7305 -7.22656 C 33.3008 -7.22656 20.752 -19.7266 20.752 -35.2051 C 20.752 -50.6836 33.3008 -63.1836 48.7305 -63.1836 C 64.209 -63.1836 76.709 -50.6836 76.709 -35.2051 C 76.709 -19.7266 64.209 -7.22656 48.7305 -7.22656 Z M 39.502 -18.5059 C 42.5293 -18.5059 43.9941 -20.5566 43.9941 -24.1699 L 43.9941 -45.9961 C 43.9941 -49.7559 42.1387 -51.9043 38.2324 -51.9043 C 36.3281 -51.9043 34.7656 -51.5625 32.5195 -49.3164 L 28.9062 -45.8008 C 27.1973 -44.1406 26.5137 -42.9688 26.5137 -41.3086 C 26.5137 -39.4043 27.9785 -37.793 30.0781 -37.793 C 31.4941 -37.793 32.4707 -38.3301 33.3984 -39.6484 L 34.8145 -41.7969 L 34.9609 -41.7969 L 34.9609 -24.1699 C 34.9609 -20.5566 36.4258 -18.5059 39.502 -18.5059 Z M 59.7656 -18.7988 C 66.1621 -18.7988 70.4102 -23.4375 70.4102 -30.5176 C 70.4102 -36.4258 66.6016 -39.9902 62.3535 -39.9902 C 59.2285 -39.9902 57.4707 -38.4277 56.4453 -36.4258 L 56.25 -36.4258 C 56.1523 -37.0117 56.1035 -37.6465 56.1035 -38.5742 C 56.1035 -41.8457 57.959 -44.0918 60.1562 -44.0918 C 61.4746 -44.0918 62.2559 -43.457 62.9395 -42.6758 C 63.5742 -42.041 64.4531 -41.5039 65.9668 -41.5039 C 67.6758 -41.5039 69.4336 -42.7246 69.4336 -44.8242 C 69.4336 -45.8984 69.2383 -46.6309 68.75 -47.5586 C 67.5293 -49.707 64.6973 -51.6113 60.3516 -51.6113 C 53.418 -51.6113 47.8516 -45.8008 47.8516 -35.2539 C 47.8516 -31.543 48.4863 -28.0273 49.6582 -25.2441 C 51.7578 -20.9473 55.1758 -18.7988 59.7656 -18.7988 Z M 59.2773 -26.0742 C 57.6172 -26.0742 56.3965 -27.4902 56.3965 -29.5898 C 56.3965 -31.6406 57.6172 -33.1055 59.2773 -33.1055 C 60.9375 -33.1055 62.1582 -31.6406 62.1582 -29.5898 C 62.1582 -27.4902 60.9375 -26.0742 59.2773 -26.0742 Z"/>
  </g>
  <g id="Black-S" transform="matrix(1 0 0 1 2883.89 696)">
   <path d="M 49.5117 7.4707 C 73.0957 7.4707 92.1875 -11.6211 92.1875 -35.2051 C 92.1875 -58.7891 73.0957 -77.8809 49.5117 -77.8809 C 25.9277 -77.8809 6.83594 -58.7891 6.83594 -35.2051 C 6.83594 -11.6211 25.9277 7.4707 49.5117 7.4707 Z M 49.5117 -8.44727 C 34.7656 -8.44727 22.7539 -20.459 22.7539 -35.2051 C 22.7539 -49.9512 34.7656 -61.9141 49.5117 -61.9141 C 64.2578 -61.9141 76.2695 -49.9512 76.2207 -35.2051 C 76.2207 -20.459 64.2578 -8.44727 49.5117 -8.44727 Z M 41.0645 -18.5547 C 44.4336 -18.5547 46.0938 -20.8984 46.0938 -25.0488 L 46.0938 -45.166 C 46.0938 -49.3652 43.9941 -51.7578 39.502 -51.7578 C 37.4023 -51.7578 35.6934 -51.4648 33.252 -48.877 L 30.2734 -45.5078 C 28.3691 -43.5059 27.5879 -42.2363 27.5879 -40.3809 C 27.5879 -38.4277 29.1504 -36.6211 31.4941 -36.6211 C 33.1543 -36.6211 34.2773 -37.3535 35.1074 -38.8184 L 35.8398 -40.7227 L 35.9863 -40.7227 L 35.9863 -25.0488 C 35.9863 -20.8496 37.6465 -18.5547 41.0645 -18.5547 Z M 60.9375 -19.0918 C 67.2363 -19.0918 71.2891 -23.877 71.2891 -30.8105 C 71.2891 -36.3281 67.8711 -39.8438 63.8184 -39.8438 C 61.1328 -39.8438 59.6191 -38.5254 58.5449 -36.6699 L 58.3984 -36.6699 C 58.252 -37.4023 58.2031 -38.1836 58.2031 -39.3555 C 58.2031 -41.4551 59.668 -43.0176 61.2793 -43.0176 C 62.3047 -43.0176 62.8906 -42.4805 63.5254 -41.8945 C 64.0625 -41.4062 64.9902 -40.8691 66.5527 -40.8691 C 68.457 -40.8691 70.4102 -42.1387 70.4102 -44.4336 C 70.4102 -45.6543 70.2148 -46.4355 69.6289 -47.4609 C 68.4082 -49.4141 65.6738 -51.2695 61.4746 -51.2695 C 54.834 -51.2695 49.1211 -45.459 49.1211 -35.4492 C 49.1211 -32.2266 49.6582 -28.7598 50.7812 -25.8789 C 52.832 -21.4844 56.1523 -19.0918 60.9375 -19.0918 Z M 60.4004 -27.0996 C 59.2773 -27.0996 58.4473 -28.0762 58.4473 -29.6387 C 58.4473 -31.1523 59.3262 -32.2266 60.4004 -32.2266 C 61.4258 -32.2266 62.3047 -31.1523 62.3047 -29.6387 C 62.3047 -28.1738 61.4258 -27.0996 60.4004 -27.0996 Z"/>
  </g>
  <g id="Ultralight-M" transform="matrix(1 0 0 1 503.656 1126)">
   <path d="M 56.0547 12.207 C 82.0801 12.207 103.369 -9.08203 103.369 -35.1562 C 103.369 -61.1816 82.0801 -82.4707 56.0547 -82.4707 C 30.0293 -82.4707 8.74023 -61.1816 8.74023 -35.1562 C 8.74023 -9.08203 30.0293 12.207 56.0547 12.207 Z M 56.0547 9.81445 C 31.25 9.81445 11.1328 -10.3516 11.1328 -35.1562 C 11.1328 -59.9121 31.25 -80.0781 56.0547 -80.0781 C 80.8105 -80.0781 100.977 -59.9121 100.977 -35.1562 C 100.977 -10.3516 80.8105 9.81445 56.0547 9.81445 Z M 39.2578 -13.2324 C 40.0391 -13.2324 40.5273 -13.8184 40.5273 -14.502 L 40.5273 -55.8105 C 40.5273 -56.6406 39.9414 -57.1777 39.0625 -57.1777 C 38.3789 -57.1777 37.9395 -57.0312 37.1094 -56.4941 L 26.5625 -49.6582 C 26.0742 -49.3652 25.8789 -48.9746 25.8789 -48.4863 C 25.8789 -47.8516 26.416 -47.2656 27.0996 -47.2656 C 27.3438 -47.2656 27.4902 -47.3633 27.6855 -47.4609 L 37.7441 -53.9062 L 37.9883 -53.9062 L 37.9883 -14.502 C 37.9883 -13.8184 38.5254 -13.2324 39.2578 -13.2324 Z M 67.1387 -12.9395 C 75.8301 -12.9395 81.7871 -18.75 81.7871 -27.2461 C 81.7871 -35.1074 75.9277 -40.918 67.9688 -40.918 C 61.377 -40.918 56.9824 -37.6953 54.5898 -32.7637 L 54.3945 -32.7637 L 54.3945 -33.3496 C 54.3945 -46.875 59.4727 -54.7852 67.8711 -54.7852 C 72.2656 -54.7852 76.2695 -52.4902 77.832 -49.0723 C 78.2227 -48.2422 78.5645 -47.9492 79.248 -47.9492 C 79.9316 -47.9492 80.2734 -48.3887 80.2734 -49.0723 C 80.2734 -49.4141 80.2246 -49.5605 80.1758 -49.8047 C 79.3945 -52.7344 74.8535 -57.1777 67.9199 -57.1777 C 57.9102 -57.1777 52.002 -48.5352 52.002 -33.6914 C 52.002 -28.0762 52.832 -23.2422 54.3457 -20.3613 C 56.7871 -15.7227 61.5234 -12.9395 67.1387 -12.9395 Z M 67.1875 -15.332 C 60.2539 -15.332 55.2246 -20.2637 55.2246 -27.0996 C 55.2246 -33.7402 60.3027 -38.5254 67.334 -38.5254 C 74.3164 -38.5254 79.1504 -33.8867 79.1504 -27.002 C 79.1504 -19.9707 74.4141 -15.332 67.1875 -15.332 Z"/>
  </g>
  <g id="Thin-M" transform="matrix(1 0 0 1 799.806 1126)">
   <path d="M 56.5918 12.7441 C 82.9102 12.7441 104.492 -8.83789 104.492 -35.1562 C 104.492 -61.4746 82.9102 -83.0566 56.5918 -83.0566 C 30.3223 -83.0566 8.74023 -61.4746 8.74023 -35.1562 C 8.74023 -8.83789 30.3223 12.7441 56.5918 12.7441 Z M 56.5918 8.98438 C 32.2266 8.98438 12.4512 -10.791 12.4512 -35.1562 C 12.4512 -59.5215 32.2266 -79.2969 56.5918 -79.2969 C 80.957 -79.2969 100.781 -59.5215 100.781 -35.1562 C 100.781 -10.791 81.0059 8.98438 56.5918 8.98438 Z M 67.9199 -12.9395 C 76.6113 -12.9395 82.6172 -18.7012 82.6172 -27.4414 C 82.6172 -35.498 76.6602 -41.1133 68.9941 -41.1133 C 62.5488 -41.1133 58.3984 -37.8906 56.25 -33.3496 L 56.0059 -33.3496 L 56.0059 -33.8867 C 56.0059 -46.582 60.8398 -54.0527 68.7012 -54.0527 C 72.7539 -54.0527 76.3672 -52.002 77.8809 -48.877 C 78.3691 -47.9492 78.8086 -47.5586 79.6875 -47.5586 C 80.5176 -47.5586 81.0547 -48.1445 81.0547 -49.0723 C 81.0547 -49.5117 81.0059 -49.7559 80.8594 -50.0977 C 79.9805 -53.1738 75.5371 -57.2754 68.7988 -57.2754 C 58.7402 -57.2754 52.7344 -48.8281 52.7344 -33.7891 C 52.7344 -28.0273 53.6621 -23.1934 55.1758 -20.2637 C 57.666 -15.5273 62.4512 -12.9395 67.9199 -12.9395 Z M 40.1367 -13.3301 C 41.2109 -13.3301 41.8457 -14.0625 41.8457 -15.0879 L 41.8457 -55.1758 C 41.8457 -56.4453 41.0645 -57.1777 39.8926 -57.1777 C 39.0137 -57.1777 38.4277 -56.9336 37.3535 -56.2012 L 27.3926 -49.707 C 26.8066 -49.3164 26.5137 -48.8281 26.5137 -48.1445 C 26.5137 -47.2656 27.2461 -46.5332 28.125 -46.5332 C 28.4668 -46.5332 28.7109 -46.582 29.1504 -46.875 L 38.1836 -52.7832 L 38.4277 -52.7832 L 38.4277 -15.0879 C 38.4277 -14.0625 39.1113 -13.3301 40.1367 -13.3301 Z M 67.9199 -16.0645 C 61.4258 -16.0645 56.7871 -20.752 56.7871 -27.2461 C 56.7871 -33.5449 61.4746 -38.0859 68.0176 -38.0859 C 74.5605 -38.0859 79.1016 -33.6914 79.1016 -27.1484 C 79.1016 -20.459 74.6582 -16.0645 67.9199 -16.0645 Z"/>
  </g>
  <g id="Light-M" transform="matrix(1 0 0 1 1095.42 1126)">
   <path d="M 57.7148 13.7695 C 84.5215 13.7695 106.689 -8.39844 106.689 -35.2051 C 106.689 -62.0117 84.4727 -84.1797 57.666 -84.1797 C 30.8594 -84.1797 8.74023 -62.0117 8.74023 -35.2051 C 8.74023 -8.39844 30.8594 13.7695 57.7148 13.7695 Z M 57.7148 7.4707 C 34.082 7.4707 15.0879 -11.5723 15.0879 -35.2051 C 15.0879 -58.8379 34.0332 -77.832 57.666 -77.832 C 81.2988 -77.832 100.342 -58.8379 100.342 -35.2051 C 100.391 -11.5723 81.2988 7.4707 57.7148 7.4707 Z M 69.5312 -12.9883 C 78.1738 -12.9883 84.2285 -18.6035 84.2285 -27.7832 C 84.2285 -36.2793 78.125 -41.5039 70.9473 -41.5039 C 64.8438 -41.5039 61.1328 -38.3301 59.4238 -34.4238 L 59.1309 -34.4238 L 59.1309 -34.9609 C 59.1309 -45.9961 63.5254 -52.7344 70.2637 -52.7344 C 73.7793 -52.7344 76.5625 -51.0254 77.9297 -48.5352 C 78.7109 -47.3633 79.3457 -46.875 80.5664 -46.875 C 81.7383 -46.875 82.5684 -47.7539 82.5684 -49.0723 C 82.5684 -49.6582 82.5195 -50.1465 82.3242 -50.6348 C 81.1523 -53.9551 76.8066 -57.4707 70.459 -57.4707 C 60.4004 -57.4707 54.1992 -49.4141 54.1992 -33.9844 C 54.1992 -27.8809 55.2246 -23.1445 56.8359 -20.0684 C 59.4727 -15.1855 64.2578 -12.9883 69.5312 -12.9883 Z M 41.8457 -13.4277 C 43.5059 -13.4277 44.4336 -14.5996 44.4336 -16.2109 L 44.4336 -53.9062 C 44.4336 -55.957 43.3594 -57.1777 41.5039 -57.1777 C 40.2832 -57.1777 39.3555 -56.7383 37.8418 -55.7129 L 29.1016 -49.9023 C 28.2227 -49.2676 27.7344 -48.5352 27.7344 -47.5098 C 27.7344 -46.0938 28.8574 -45.0195 30.127 -45.0195 C 30.7129 -45.0195 31.1035 -45.1172 31.9336 -45.752 L 39.0137 -50.6348 L 39.3066 -50.6348 L 39.3066 -16.2109 C 39.3066 -14.6484 40.2344 -13.4277 41.8457 -13.4277 Z M 69.3359 -17.5293 C 63.7695 -17.5293 59.8145 -21.6797 59.8145 -27.5391 C 59.8145 -33.1543 63.7695 -37.1582 69.3848 -37.1582 C 75.0488 -37.1582 78.9062 -33.252 78.9062 -27.4414 C 78.9062 -21.3867 75.1465 -17.5293 69.3359 -17.5293 Z"/>
  </g>
  <g id="Regular-M" transform="matrix(1 0 0 1 1391.32 1126)">
   <path d="M 58.5449 14.5508 C 85.7422 14.5508 108.35 -8.00781 108.35 -35.2539 C 108.35 -62.4512 85.6934 -85.0586 58.4961 -85.0586 C 31.25 -85.0586 8.74023 -62.4512 8.74023 -35.2539 C 8.74023 -8.00781 31.2988 14.5508 58.5449 14.5508 Z M 58.5449 6.25 C 35.498 6.25 17.0898 -12.207 17.0898 -35.2539 C 17.0898 -58.252 35.4492 -76.7578 58.4961 -76.7578 C 81.4941 -76.7578 100 -58.252 100.049 -35.2539 C 100.098 -12.207 81.543 6.25 58.5449 6.25 Z M 70.752 -12.9883 C 79.3457 -12.9883 85.4492 -18.5059 85.4492 -28.0273 C 85.4492 -36.8652 79.248 -41.748 72.4609 -41.748 C 66.6016 -41.748 63.2324 -38.6719 61.8652 -35.2051 L 61.4746 -35.2051 L 61.4746 -35.7422 C 61.4746 -45.5566 65.5273 -51.709 71.4844 -51.709 C 74.5605 -51.709 76.709 -50.2441 77.9785 -48.291 C 78.9551 -46.9727 79.7363 -46.3379 81.25 -46.3379 C 82.666 -46.3379 83.7402 -47.4121 83.7402 -49.0723 C 83.7402 -49.8047 83.6426 -50.4395 83.3984 -51.0742 C 81.9824 -54.5898 77.7832 -57.5684 71.7773 -57.5684 C 61.6211 -57.5684 55.3223 -49.8535 55.3223 -34.1309 C 55.3223 -27.7344 56.3965 -23.0957 58.1055 -19.9219 C 60.8398 -14.9414 65.625 -12.9883 70.752 -12.9883 Z M 43.1152 -13.5254 C 45.2637 -13.5254 46.3867 -14.9902 46.3867 -17.041 L 46.3867 -52.9297 C 46.3867 -55.6152 45.0684 -57.1289 42.7734 -57.1289 C 41.2109 -57.1289 40.0879 -56.6406 38.2324 -55.3223 L 30.3711 -50 C 29.2969 -49.2676 28.6621 -48.3398 28.6621 -47.0215 C 28.6621 -45.2637 30.0781 -43.8965 31.5918 -43.8965 C 32.4219 -43.8965 32.9102 -43.9941 34.082 -44.873 L 39.6484 -48.9746 L 39.9902 -48.9746 L 39.9902 -17.041 C 39.9902 -15.0391 41.0645 -13.5254 43.1152 -13.5254 Z M 70.4102 -18.6035 C 65.5273 -18.6035 62.0605 -22.4121 62.0605 -27.7344 C 62.0605 -32.8613 65.5273 -36.5234 70.459 -36.5234 C 75.4395 -36.5234 78.8086 -32.9102 78.8086 -27.6855 C 78.8086 -22.1191 75.5371 -18.6035 70.4102 -18.6035 Z"/>
  </g>
  <g id="Medium-M" transform="matrix(1 0 0 1 1687.33 1126)">
   <path d="M 59.2285 15.2832 C 86.8652 15.2832 109.717 -7.56836 109.717 -35.2051 C 109.717 -62.8906 86.8164 -85.7422 59.1797 -85.7422 C 31.543 -85.7422 8.74023 -62.8906 8.74023 -35.2051 C 8.74023 -7.56836 31.5918 15.2832 59.2285 15.2832 Z M 59.2285 5.17578 C 36.8164 5.17578 18.8477 -12.8418 18.8477 -35.2051 C 18.8477 -57.6172 36.7676 -75.6348 59.1797 -75.6348 C 81.5918 -75.6348 99.6094 -57.6172 99.6582 -35.2051 C 99.6582 -12.8418 81.6406 5.17578 59.2285 5.17578 Z M 71.7773 -13.2324 C 80.3223 -13.2324 86.2793 -18.7988 86.2793 -28.2227 C 86.2793 -36.8164 80.3223 -41.6992 73.7793 -41.6992 C 68.3105 -41.6992 65.1367 -38.7695 63.7695 -35.498 L 63.4277 -35.498 C 63.3789 -35.791 63.3789 -36.084 63.3789 -36.4258 C 63.3789 -45.166 67.1387 -50.7324 72.5098 -50.7324 C 75.293 -50.7324 77.2461 -49.4141 78.418 -47.6562 C 79.3457 -46.3867 80.1758 -45.752 81.7871 -45.752 C 83.3496 -45.752 84.668 -46.9238 84.668 -48.7793 C 84.668 -49.6094 84.5215 -50.293 84.2285 -51.0254 C 82.8125 -54.3945 78.7109 -57.3242 72.7539 -57.3242 C 62.8418 -57.3242 56.3965 -49.6582 56.3965 -34.3262 C 56.3965 -28.2715 57.4219 -23.6328 59.1309 -20.4102 C 61.8164 -15.332 66.5527 -13.2324 71.7773 -13.2324 Z M 44.4824 -13.5742 C 46.9727 -13.5742 48.2422 -15.2832 48.2422 -17.8223 L 48.2422 -52.1973 C 48.2422 -55.2734 46.7285 -57.0312 43.8965 -57.0312 C 42.1387 -57.0312 40.918 -56.543 38.8184 -54.9316 L 31.5918 -49.7559 C 30.3223 -48.7305 29.6387 -47.7539 29.6387 -46.2402 C 29.6387 -44.3848 31.1523 -42.8711 32.9102 -42.8711 C 33.8867 -42.8711 34.5215 -43.0664 35.6934 -44.1406 L 40.5762 -47.9492 L 40.8691 -47.9492 L 40.8691 -17.8223 C 40.8691 -15.332 42.0898 -13.5742 44.4824 -13.5742 Z M 71.4355 -19.5312 C 67.041 -19.5312 63.9648 -22.9492 63.9648 -27.7832 C 63.9648 -32.4707 67.041 -35.7422 71.4355 -35.7422 C 75.8789 -35.7422 78.9062 -32.4707 78.9062 -27.7344 C 78.9062 -22.7539 75.9766 -19.5312 71.4355 -19.5312 Z"/>
  </g>
  <g id="Semibold-M" transform="matrix(1 0 0 1 1983.5 1126)">
   <path d="M 59.7656 15.8203 C 87.7441 15.8203 110.791 -7.22656 110.791 -35.2051 C 110.791 -63.1836 87.6953 -86.2793 59.7168 -86.2793 C 31.7383 -86.2793 8.74023 -63.1836 8.74023 -35.2051 C 8.74023 -7.22656 31.7871 15.8203 59.7656 15.8203 Z M 59.7656 4.3457 C 37.8418 4.3457 20.2148 -13.2812 20.2148 -35.2051 C 20.2148 -57.1289 37.793 -74.8047 59.7168 -74.8047 C 81.6406 -74.8047 99.3164 -57.1289 99.3164 -35.2051 C 99.3652 -13.2812 81.6895 4.3457 59.7656 4.3457 Z M 72.6074 -13.4277 C 81.0547 -13.4277 86.9141 -19.0918 86.9141 -28.418 C 86.9141 -36.8164 81.1523 -41.6016 74.8047 -41.6016 C 69.6289 -41.6016 66.6016 -38.8672 65.2344 -35.7422 L 64.8926 -35.7422 C 64.8926 -36.084 64.8438 -36.4746 64.8438 -37.0117 C 64.8438 -44.9219 68.3594 -50 73.291 -50 C 75.8789 -50 77.6367 -48.7305 78.7598 -47.1191 C 79.6875 -45.9473 80.5664 -45.3125 82.2266 -45.3125 C 83.8867 -45.3125 85.3516 -46.5332 85.3516 -48.5352 C 85.3516 -49.5117 85.2051 -50.1953 84.8633 -51.0254 C 83.3984 -54.2969 79.3945 -57.1289 73.5352 -57.1289 C 63.8184 -57.1289 57.2266 -49.4629 57.2266 -34.5215 C 57.2266 -28.6621 58.2031 -24.0723 59.8633 -20.8008 C 62.5977 -15.625 67.2363 -13.4277 72.6074 -13.4277 Z M 45.5566 -13.623 C 48.291 -13.623 49.6582 -15.4785 49.6582 -18.4082 L 49.6582 -51.6113 C 49.6582 -54.9805 47.998 -56.9336 44.7754 -56.9336 C 42.9199 -56.9336 41.5527 -56.4453 39.3066 -54.6387 L 32.5684 -49.5605 C 31.1035 -48.3887 30.3711 -47.2656 30.3711 -45.6543 C 30.3711 -43.7012 31.9824 -42.0898 33.8867 -42.0898 C 35.0098 -42.0898 35.791 -42.3828 36.9629 -43.5547 L 41.2598 -47.168 L 41.5039 -47.168 L 41.5039 -18.4082 C 41.5039 -15.5273 42.8711 -13.623 45.5566 -13.623 Z M 72.168 -20.2637 C 68.2129 -20.2637 65.3809 -23.3887 65.3809 -27.832 C 65.3809 -32.1289 68.2129 -35.1562 72.2168 -35.1562 C 76.2207 -35.1562 79.0039 -32.1777 79.0039 -27.7832 C 79.0039 -23.2422 76.2695 -20.2637 72.168 -20.2637 Z"/>
  </g>
  <g id="Bold-M" transform="matrix(1 0 0 1 2279.5 1126)">
   <path d="M 60.4492 16.5039 C 88.8672 16.5039 112.207 -6.78711 112.207 -35.2051 C 112.207 -63.623 88.8672 -86.9629 60.4492 -86.9629 C 32.0312 -86.9629 8.74023 -63.623 8.74023 -35.2051 C 8.74023 -6.78711 32.0801 16.5039 60.4492 16.5039 Z M 60.4492 3.22266 C 39.1602 3.22266 22.0215 -13.916 22.0215 -35.2051 C 22.0215 -56.4941 39.1602 -73.6816 60.4492 -73.6816 C 81.7383 -73.6816 98.877 -56.4941 98.9258 -35.2051 C 98.9258 -13.916 81.7871 3.22266 60.4492 3.22266 Z M 73.6816 -13.623 C 82.0312 -13.623 87.7441 -19.3848 87.7441 -28.6621 C 87.7441 -36.8164 82.2754 -41.5039 76.1719 -41.5039 C 71.3379 -41.5039 68.5547 -39.0137 67.1875 -36.0352 L 66.8945 -36.0352 C 66.8457 -36.5234 66.7969 -37.0117 66.7969 -37.6953 C 66.7969 -44.5312 69.9707 -49.0234 74.2676 -49.0234 C 76.6113 -49.0234 78.1738 -47.9004 79.1992 -46.4355 C 80.127 -45.3613 81.0547 -44.7266 82.7637 -44.7266 C 84.6191 -44.7266 86.2793 -46.0449 86.2793 -48.2422 C 86.2793 -49.3164 86.1328 -50.0977 85.6934 -51.0254 C 84.2285 -54.1504 80.3223 -56.8359 74.5605 -56.8359 C 65.0879 -56.8359 58.3496 -49.2676 58.3496 -34.7168 C 58.3496 -29.1992 59.2773 -24.6094 60.8887 -21.2891 C 63.5742 -16.0156 68.1641 -13.623 73.6816 -13.623 Z M 46.9727 -13.7207 C 50 -13.7207 51.5137 -15.7715 51.5137 -19.1895 L 51.5137 -50.8301 C 51.5137 -54.6387 49.6582 -56.8359 45.9473 -56.8359 C 43.8965 -56.8359 42.334 -56.3477 39.9414 -54.1992 L 33.7891 -49.3652 C 32.1289 -47.8516 31.3477 -46.6309 31.3477 -44.873 C 31.3477 -42.7734 33.0566 -41.0645 35.1562 -41.0645 C 36.5234 -41.0645 37.4023 -41.4551 38.5742 -42.7734 L 42.1875 -46.1426 L 42.4316 -46.1426 L 42.4316 -19.1895 C 42.4316 -15.8203 43.9453 -13.7207 46.9727 -13.7207 Z M 73.1934 -21.1914 C 69.7754 -21.1914 67.2852 -23.9258 67.2852 -27.8809 C 67.2852 -31.6895 69.7266 -34.4238 73.1934 -34.4238 C 76.6602 -34.4238 79.1016 -31.7383 79.1016 -27.832 C 79.1016 -23.8281 76.709 -21.1914 73.1934 -21.1914 Z"/>
  </g>
  <g id="Heavy-M" transform="matrix(1 0 0 1 2575.19 1126)">
   <path d="M 61.4746 17.5781 C 90.5273 17.5781 114.258 -6.15234 114.258 -35.2051 C 114.258 -64.2578 90.5273 -87.9883 61.4746 -87.9883 C 32.4219 -87.9883 8.74023 -64.2578 8.74023 -35.2051 C 8.74023 -6.15234 32.4707 17.5781 61.4746 17.5781 Z M 61.4746 1.66016 C 41.1133 1.66016 24.6582 -14.8438 24.6582 -35.2051 C 24.6582 -55.5664 41.1133 -72.0703 61.4746 -72.0703 C 81.8359 -72.0703 98.3398 -55.5664 98.3398 -35.2051 C 98.3398 -14.8438 81.8848 1.66016 61.4746 1.66016 Z M 48.9746 -13.8184 C 52.4902 -13.8184 54.248 -16.2109 54.248 -20.3125 L 54.248 -49.7559 C 54.248 -54.1504 52.0508 -56.6406 47.6074 -56.6406 C 45.3125 -56.6406 43.5547 -56.2012 40.8203 -53.6133 L 35.5957 -48.9746 C 33.6426 -47.1191 32.8125 -45.752 32.8125 -43.75 C 32.8125 -41.5039 34.6191 -39.5508 37.0605 -39.5508 C 38.6719 -39.5508 39.7461 -40.1367 40.918 -41.6504 L 43.5059 -44.6289 L 43.7012 -44.6289 L 43.7012 -20.3125 C 43.7012 -16.2109 45.459 -13.8184 48.9746 -13.8184 Z M 75.1953 -13.9648 C 83.4473 -13.9648 88.9648 -19.873 88.9648 -29.0039 C 88.9648 -36.7676 83.8867 -41.4062 78.1738 -41.4062 C 73.8281 -41.4062 71.3867 -39.1602 70.0195 -36.4746 L 69.7754 -36.4746 C 69.6777 -37.1094 69.6289 -37.7441 69.6289 -38.7695 C 69.6289 -44.043 72.3145 -47.6074 75.7812 -47.6074 C 77.6855 -47.6074 78.9062 -46.6309 79.8828 -45.459 C 80.7129 -44.5312 81.7383 -43.8965 83.5938 -43.8965 C 85.6445 -43.8965 87.6465 -45.3125 87.6465 -47.8027 C 87.6465 -49.0723 87.4512 -49.9023 86.8652 -50.9766 C 85.3516 -53.9062 81.6406 -56.4453 76.0254 -56.4453 C 66.8945 -56.4453 59.9609 -48.9746 59.9609 -35.0098 C 59.9609 -29.9805 60.8398 -25.4395 62.3535 -21.9727 C 65.0391 -16.6016 69.5312 -13.9648 75.1953 -13.9648 Z M 74.6582 -22.5586 C 71.9727 -22.5586 70.0195 -24.7559 70.0195 -27.9785 C 70.0195 -31.1035 71.9727 -33.3008 74.6582 -33.3008 C 77.2949 -33.3008 79.248 -31.1035 79.248 -27.9297 C 79.248 -24.7559 77.3438 -22.5586 74.6582 -22.5586 Z"/>
  </g>
  <g id="Black-M" transform="matrix(1 0 0 1 2871 1126)">
   <path d="M 62.4023 18.457 C 91.9922 18.457 116.064 -5.61523 116.064 -35.2051 C 116.064 -64.7949 91.9922 -88.8672 62.4023 -88.8672 C 32.8125 -88.8672 8.74023 -64.7949 8.74023 -35.2051 C 8.74023 -5.61523 32.8125 18.457 62.4023 18.457 Z M 62.4023 0.195312 C 42.8223 0.195312 27.002 -15.625 27.002 -35.2051 C 27.002 -54.7363 42.8223 -70.6055 62.4023 -70.6055 C 81.9824 -70.6055 97.8027 -54.7363 97.8027 -35.2051 C 97.8027 -15.625 81.9824 0.195312 62.4023 0.195312 Z M 50.7812 -13.8672 C 54.7363 -13.8672 56.6895 -16.6016 56.6895 -21.3379 L 56.6895 -48.7793 C 56.6895 -53.6621 54.1992 -56.4941 49.1211 -56.4941 C 46.582 -56.4941 44.5801 -56.0547 41.6504 -53.125 L 37.207 -48.6816 C 35.0098 -46.4844 34.082 -44.9707 34.082 -42.7734 C 34.082 -40.332 36.0352 -38.1836 38.7207 -38.1836 C 40.625 -38.1836 41.8945 -38.9648 43.0664 -40.6738 L 44.6777 -43.3105 L 44.873 -43.3105 L 44.873 -21.3379 C 44.873 -16.6016 46.7773 -13.8672 50.7812 -13.8672 Z M 76.6113 -14.3066 C 84.7656 -14.3066 90.0879 -20.2637 90.0879 -29.2969 C 90.0879 -36.7188 85.3027 -41.3086 79.9316 -41.3086 C 76.0254 -41.3086 73.877 -39.3066 72.5586 -36.8652 L 72.3145 -36.8652 C 72.2168 -37.5977 72.1191 -38.4277 72.1191 -39.6973 C 72.1191 -43.5547 74.4141 -46.2891 77.0996 -46.2891 C 78.6621 -46.2891 79.5898 -45.5078 80.4688 -44.5801 C 81.25 -43.7988 82.373 -43.1152 84.3262 -43.1152 C 86.5723 -43.1152 88.8672 -44.6777 88.8672 -47.3633 C 88.8672 -48.8281 88.5742 -49.7559 87.9883 -50.9766 C 86.4258 -53.6621 82.8125 -56.1035 77.3438 -56.1035 C 68.5059 -56.1035 61.377 -48.6816 61.377 -35.3027 C 61.377 -30.6641 62.207 -26.1719 63.6719 -22.6074 C 66.3574 -17.1387 70.7031 -14.3066 76.6113 -14.3066 Z M 75.9766 -23.7793 C 73.9746 -23.7793 72.5098 -25.4883 72.5098 -28.0273 C 72.5098 -30.5176 73.9746 -32.3242 75.9766 -32.3242 C 77.8809 -32.3242 79.3457 -30.5176 79.3457 -28.0273 C 79.3457 -25.5371 77.8809 -23.7793 75.9766 -23.7793 Z"/>
  </g>
  <g id="Ultralight-L" transform="matrix(1 0 0 1 487.641 1556)">
   <path d="M 72.0703 25.7324 C 105.566 25.7324 132.91 -1.61133 132.91 -35.1074 C 132.91 -68.5547 105.566 -95.8984 72.0703 -95.8984 C 38.623 -95.8984 11.2793 -68.5547 11.2793 -35.1074 C 11.2793 -1.61133 38.623 25.7324 72.0703 25.7324 Z M 72.0703 23.2422 C 39.9414 23.2422 13.7695 -2.97852 13.7695 -35.1074 C 13.7695 -67.2363 39.9414 -93.4082 72.0703 -93.4082 C 104.199 -93.4082 130.42 -67.2363 130.371 -35.1074 C 130.371 -2.97852 104.199 23.2422 72.0703 23.2422 Z M 50.293 -6.83594 C 51.1719 -6.83594 51.709 -7.4707 51.709 -8.25195 L 51.709 -62.0605 C 51.709 -62.9883 50.9766 -63.5742 50.0488 -63.5742 C 49.2676 -63.5742 48.7305 -63.3789 47.8027 -62.7441 L 33.8867 -53.8086 C 33.3008 -53.4668 33.1055 -53.0273 33.1055 -52.4902 C 33.1055 -51.7578 33.7402 -51.123 34.5215 -51.123 C 34.7656 -51.123 34.9609 -51.2207 35.1074 -51.2695 L 48.4863 -59.8633 L 48.8281 -59.8633 L 48.8281 -8.25195 C 48.8281 -7.4707 49.4629 -6.83594 50.293 -6.83594 Z M 86.2305 -6.49414 C 97.5098 -6.49414 105.127 -13.9648 105.127 -24.9023 C 105.127 -34.9121 97.6074 -42.4805 87.2559 -42.4805 C 78.6621 -42.4805 72.9004 -38.2812 69.7266 -31.8359 L 69.5312 -31.8359 L 69.5312 -32.5684 C 69.5312 -50.3906 76.123 -60.7422 87.207 -60.7422 C 93.0176 -60.7422 98.3887 -57.7148 100.439 -53.125 C 100.83 -52.1484 101.27 -51.8066 102.051 -51.8066 C 102.832 -51.8066 103.223 -52.2949 103.223 -53.125 C 103.223 -53.4668 103.174 -53.6621 103.125 -53.9551 C 102.197 -57.666 96.2891 -63.5254 87.2559 -63.5254 C 74.3164 -63.5254 66.748 -52.2461 66.748 -33.2031 C 66.748 -26.0742 67.8711 -19.7754 69.7266 -16.1133 C 72.8516 -10.1074 78.9551 -6.49414 86.2305 -6.49414 Z M 86.377 -9.22852 C 77.1973 -9.22852 70.5566 -15.7227 70.5566 -24.6582 C 70.5566 -33.3496 77.2949 -39.6973 86.5723 -39.6973 C 95.8008 -39.6973 102.197 -33.6426 102.197 -24.5605 C 102.197 -15.2832 95.8984 -9.22852 86.377 -9.22852 Z"/>
  </g>
  <g id="Thin-L" transform="matrix(1 0 0 1 783.717 1556)">
   <path d="M 72.7051 26.3184 C 106.494 26.3184 134.131 -1.36719 134.131 -35.1074 C 134.131 -68.8965 106.445 -96.582 72.7051 -96.582 C 38.916 -96.582 11.2793 -68.8965 11.2793 -35.1074 C 11.2793 -1.36719 38.916 26.3184 72.7051 26.3184 Z M 72.7051 22.3145 C 41.0156 22.3145 15.2344 -3.41797 15.2344 -35.1074 C 15.2344 -66.8457 41.0156 -92.5781 72.7051 -92.5781 C 104.395 -92.5781 130.127 -66.8457 130.176 -35.1074 C 130.176 -3.41797 104.395 22.3145 72.7051 22.3145 Z M 87.1582 -6.49414 C 98.3887 -6.49414 106.055 -13.916 106.055 -25.0488 C 106.055 -35.3516 98.4863 -42.6758 88.3789 -42.6758 C 79.9805 -42.6758 74.4629 -38.5254 71.5332 -32.4707 L 71.2891 -32.4707 L 71.2891 -33.1543 C 71.2891 -50.0488 77.6855 -59.9609 88.1348 -59.9609 C 93.6035 -59.9609 98.4863 -57.1777 100.488 -52.9297 C 101.025 -51.8066 101.562 -51.3672 102.539 -51.3672 C 103.516 -51.3672 104.102 -52.0508 104.102 -53.125 C 104.102 -53.5645 104.004 -53.8574 103.906 -54.248 C 102.881 -58.1055 97.0703 -63.623 88.2324 -63.623 C 75.293 -63.623 67.5781 -52.5879 67.5781 -33.3008 C 67.5781 -25.9766 68.75 -19.7266 70.7031 -15.9668 C 73.877 -9.91211 79.9805 -6.49414 87.1582 -6.49414 Z M 51.2695 -6.93359 C 52.4902 -6.93359 53.1738 -7.76367 53.1738 -8.88672 L 53.1738 -61.3281 C 53.1738 -62.6953 52.2949 -63.5742 50.9766 -63.5742 C 50 -63.5742 49.2676 -63.2812 48.0957 -62.4512 L 34.8145 -53.9062 C 34.1309 -53.418 33.8379 -52.8809 33.8379 -52.1484 C 33.8379 -51.0742 34.668 -50.293 35.6445 -50.293 C 36.0352 -50.293 36.3281 -50.3418 36.7188 -50.6348 L 48.9746 -58.5938 L 49.3164 -58.5938 L 49.3164 -8.88672 C 49.3164 -7.76367 50.0977 -6.93359 51.2695 -6.93359 Z M 87.207 -10.0586 C 78.5156 -10.0586 72.3145 -16.2598 72.3145 -24.8047 C 72.3145 -33.1543 78.6133 -39.209 87.3535 -39.209 C 96.0938 -39.209 102.1 -33.3496 102.1 -24.7559 C 102.1 -15.8691 96.1914 -10.0586 87.207 -10.0586 Z"/>
  </g>
  <g id="Light-L" transform="matrix(1 0 0 1 1079.21 1556)">
   <path d="M 73.9258 27.4902 C 108.301 27.4902 136.572 -0.830078 136.572 -35.1562 C 136.572 -69.5312 108.252 -97.8516 73.877 -97.8516 C 39.5508 -97.8516 11.2793 -69.5312 11.2793 -35.1562 C 11.2793 -0.830078 39.5508 27.4902 73.9258 27.4902 Z M 73.9258 20.6055 C 43.0664 20.6055 18.1641 -4.3457 18.1641 -35.1562 C 18.1641 -66.0156 43.0664 -90.918 73.877 -90.918 C 104.736 -90.918 129.639 -66.0156 129.688 -35.1562 C 129.736 -4.3457 104.785 20.6055 73.9258 20.6055 Z M 88.9648 -6.49414 C 100.098 -6.49414 107.861 -13.8184 107.861 -25.4395 C 107.861 -36.1816 100.098 -43.1152 90.625 -43.1152 C 82.5684 -43.1152 77.5391 -39.0137 75.1465 -33.6426 L 74.7559 -33.6426 L 74.7559 -34.3262 C 74.7559 -49.4141 80.6641 -58.4961 89.8926 -58.4961 C 94.7266 -58.4961 98.7305 -56.0547 100.537 -52.5879 C 101.367 -51.1719 102.1 -50.5859 103.516 -50.5859 C 104.883 -50.5859 105.811 -51.5625 105.811 -53.125 C 105.811 -53.7598 105.713 -54.2969 105.518 -54.8828 C 104.15 -59.0332 98.4863 -63.8184 90.1367 -63.8184 C 77.0996 -63.8184 69.2383 -53.2227 69.2383 -33.5449 C 69.2383 -25.7812 70.459 -19.6777 72.5586 -15.7715 C 75.8789 -9.57031 82.0312 -6.49414 88.9648 -6.49414 Z M 53.1738 -7.03125 C 55.0293 -7.03125 56.1035 -8.34961 56.1035 -10.1562 L 56.1035 -59.9121 C 56.1035 -62.207 54.834 -63.5254 52.7832 -63.5254 C 51.3672 -63.5254 50.3418 -63.0859 48.6328 -61.9141 L 36.7188 -54.0527 C 35.6934 -53.3691 35.2051 -52.5391 35.2051 -51.3672 C 35.2051 -49.8047 36.4746 -48.584 37.8906 -48.584 C 38.5254 -48.584 39.0137 -48.6816 39.8438 -49.3652 L 49.9512 -56.1523 L 50.293 -56.1523 L 50.293 -10.1562 C 50.293 -8.39844 51.3672 -7.03125 53.1738 -7.03125 Z M 88.7695 -11.6699 C 81.1523 -11.6699 75.6836 -17.2852 75.6836 -25.1465 C 75.6836 -32.7148 81.1523 -38.1836 88.8672 -38.1836 C 96.6309 -38.1836 101.904 -32.8613 101.904 -25.0488 C 101.904 -16.9434 96.7285 -11.6699 88.7695 -11.6699 Z"/>
  </g>
  <g id="Regular-L" transform="matrix(1 0 0 1 1374.99 1556)">
   <path d="M 74.8535 28.3691 C 109.668 28.3691 138.428 -0.390625 138.428 -35.2051 C 138.428 -70.0195 109.619 -98.7793 74.8047 -98.7793 C 39.9902 -98.7793 11.2793 -70.0195 11.2793 -35.2051 C 11.2793 -0.390625 40.0391 28.3691 74.8535 28.3691 Z M 74.8535 19.2871 C 44.6289 19.2871 20.4102 -5.0293 20.4102 -35.2051 C 20.4102 -65.3809 44.5801 -89.6973 74.8047 -89.6973 C 104.98 -89.6973 129.297 -65.3809 129.346 -35.2051 C 129.395 -5.0293 105.029 19.2871 74.8535 19.2871 Z M 90.2832 -6.54297 C 101.416 -6.54297 109.229 -13.7207 109.229 -25.7324 C 109.229 -36.8164 101.318 -43.4082 92.2852 -43.4082 C 84.5215 -43.4082 79.8828 -39.4043 77.832 -34.5703 L 77.3926 -34.5703 L 77.3926 -35.2051 C 77.3926 -48.877 82.9102 -57.3242 91.2598 -57.3242 C 95.5566 -57.3242 98.877 -55.2246 100.586 -52.2949 C 101.66 -50.7324 102.539 -50 104.248 -50 C 105.908 -50 107.129 -51.2207 107.129 -53.125 C 107.129 -53.9062 106.982 -54.5898 106.689 -55.3223 C 105.127 -59.7168 99.5605 -63.9648 91.5527 -63.9648 C 78.5156 -63.9648 70.459 -53.7109 70.459 -33.6914 C 70.459 -25.6836 71.7773 -19.5801 73.9746 -15.625 C 77.3926 -9.27734 83.5449 -6.54297 90.2832 -6.54297 Z M 54.5898 -7.12891 C 56.9824 -7.12891 58.252 -8.78906 58.252 -11.084 L 58.252 -58.8867 C 58.252 -61.8164 56.7871 -63.5254 54.1504 -63.5254 C 52.3926 -63.5254 51.1719 -62.9395 49.0234 -61.4746 L 38.1348 -54.1992 C 36.9141 -53.3691 36.2305 -52.3438 36.2305 -50.8301 C 36.2305 -48.877 37.8418 -47.3633 39.5508 -47.3633 C 40.4297 -47.3633 41.0156 -47.4121 42.2363 -48.3887 L 50.6836 -54.2969 L 51.0254 -54.2969 L 51.0254 -11.084 C 51.0254 -8.83789 52.2949 -7.12891 54.5898 -7.12891 Z M 89.9902 -12.8906 C 83.1543 -12.8906 78.2227 -18.1152 78.2227 -25.3906 C 78.2227 -32.4219 83.1055 -37.4023 90.0391 -37.4023 C 97.0215 -37.4023 101.807 -32.5195 101.807 -25.293 C 101.807 -17.7246 97.168 -12.8906 89.9902 -12.8906 Z"/>
  </g>
  <g id="Medium-L" transform="matrix(1 0 0 1 1670.9 1556)">
   <path d="M 75.6348 29.1992 C 110.938 29.1992 140.039 0.0488281 140.039 -35.2051 C 140.039 -70.459 110.889 -99.6094 75.5859 -99.6094 C 40.332 -99.6094 11.2793 -70.459 11.2793 -35.2051 C 11.2793 0.0488281 40.3809 29.1992 75.6348 29.1992 Z M 75.6348 18.0664 C 46.1426 18.0664 22.4609 -5.71289 22.4609 -35.2051 C 22.4609 -64.6973 46.0938 -88.4766 75.5859 -88.4766 C 105.127 -88.4766 128.857 -64.6973 128.906 -35.2051 C 128.955 -5.71289 105.176 18.0664 75.6348 18.0664 Z M 91.5039 -6.73828 C 102.539 -6.73828 110.254 -13.9648 110.254 -25.9766 C 110.254 -36.9629 102.588 -43.4082 93.7988 -43.4082 C 86.4258 -43.4082 82.0801 -39.5508 80.0781 -35.0098 L 79.6387 -35.0098 C 79.6387 -35.3027 79.6387 -35.6445 79.6387 -36.0352 C 79.6387 -48.4863 84.7656 -56.25 92.4316 -56.25 C 96.3867 -56.25 99.3652 -54.2969 101.025 -51.6602 C 102.1 -50.0977 103.076 -49.3652 104.932 -49.3652 C 106.738 -49.3652 108.203 -50.6836 108.203 -52.832 C 108.203 -53.8086 108.057 -54.541 107.666 -55.3711 C 106.006 -59.668 100.586 -63.7695 92.7246 -63.7695 C 79.8828 -63.7695 71.6797 -53.6133 71.6797 -33.9355 C 71.6797 -26.123 72.998 -20.1172 75.1465 -16.0156 C 78.5645 -9.57031 84.668 -6.73828 91.5039 -6.73828 Z M 56.1035 -7.22656 C 58.8867 -7.22656 60.3516 -9.13086 60.3516 -11.9629 L 60.3516 -57.959 C 60.3516 -61.4258 58.6426 -63.4277 55.4688 -63.4277 C 53.4668 -63.4277 52.0508 -62.8418 49.6582 -61.0352 L 39.5508 -54.0039 C 38.0859 -52.8809 37.3047 -51.709 37.3047 -50.0488 C 37.3047 -47.9004 39.0625 -46.1914 41.0156 -46.1914 C 42.1387 -46.1914 42.8711 -46.3867 44.1406 -47.5098 L 51.6113 -53.0273 L 51.9531 -53.0273 L 51.9531 -11.9629 C 51.9531 -9.17969 53.418 -7.22656 56.1035 -7.22656 Z M 91.1133 -13.9648 C 84.8633 -13.9648 80.4199 -18.75 80.4199 -25.4883 C 80.4199 -31.9824 84.8633 -36.6211 91.1621 -36.6211 C 97.5098 -36.6211 101.855 -32.0312 101.855 -25.3906 C 101.855 -18.457 97.6074 -13.9648 91.1133 -13.9648 Z"/>
  </g>
  <g id="Semibold-L" transform="matrix(1 0 0 1 1967 1556)">
   <path d="M 76.2695 29.7852 C 111.914 29.7852 141.26 0.439453 141.26 -35.2051 C 141.26 -70.8496 111.865 -100.244 76.2207 -100.244 C 40.5762 -100.244 11.2793 -70.8496 11.2793 -35.2051 C 11.2793 0.439453 40.625 29.7852 76.2695 29.7852 Z M 76.2695 17.0898 C 47.3145 17.0898 24.0234 -6.25 24.0234 -35.2051 C 24.0234 -64.209 47.2656 -87.5 76.2207 -87.5 C 105.225 -87.5 128.516 -64.209 128.564 -35.2051 C 128.613 -6.25 105.273 17.0898 76.2695 17.0898 Z M 92.4316 -6.93359 C 103.418 -6.93359 111.035 -14.209 111.035 -26.1719 C 111.035 -37.0117 103.516 -43.4082 94.9707 -43.4082 C 87.8906 -43.4082 83.7402 -39.6973 81.7871 -35.3027 L 81.3965 -35.3027 C 81.3477 -35.7422 81.3477 -36.1328 81.3477 -36.6699 C 81.3477 -48.1445 86.2305 -55.4199 93.3105 -55.4199 C 97.0215 -55.4199 99.7559 -53.6133 101.318 -51.123 C 102.441 -49.6582 103.467 -48.877 105.42 -48.877 C 107.373 -48.877 109.033 -50.293 109.033 -52.6367 C 109.033 -53.6621 108.838 -54.4922 108.447 -55.4199 C 106.689 -59.668 101.367 -63.5742 93.6035 -63.5742 C 80.957 -63.5742 72.6074 -53.5645 72.6074 -34.082 C 72.6074 -26.4648 73.877 -20.459 76.0254 -16.3574 C 79.4922 -9.81445 85.5469 -6.93359 92.4316 -6.93359 Z M 57.2754 -7.27539 C 60.3516 -7.27539 61.9629 -9.375 61.9629 -12.6465 L 61.9629 -57.3242 C 61.9629 -61.1328 60.0586 -63.3301 56.4453 -63.3301 C 54.2969 -63.3301 52.7344 -62.7441 50.1465 -60.6934 L 40.5762 -53.8574 C 38.9648 -52.5391 38.1348 -51.2695 38.1348 -49.4141 C 38.1348 -47.1191 39.9902 -45.2637 42.1875 -45.2637 C 43.4082 -45.2637 44.2383 -45.5566 45.6055 -46.8262 L 52.3438 -52.0508 L 52.6855 -52.0508 L 52.6855 -12.6465 C 52.6855 -9.42383 54.248 -7.27539 57.2754 -7.27539 Z M 91.9922 -14.7949 C 86.2305 -14.7949 82.0801 -19.2383 82.0801 -25.5371 C 82.0801 -31.6406 86.1816 -35.9863 92.041 -35.9863 C 97.9004 -35.9863 101.904 -31.6895 101.904 -25.4883 C 101.904 -18.9941 97.998 -14.7949 91.9922 -14.7949 Z"/>
  </g>
  <g id="Bold-L" transform="matrix(1 0 0 1 2262.9 1556)">
   <path d="M 77.0996 30.6152 C 113.184 30.6152 142.92 0.878906 142.92 -35.2051 C 142.92 -71.3379 113.135 -101.025 77.0508 -101.025 C 40.918 -101.025 11.2793 -71.3379 11.2793 -35.2051 C 11.2793 0.878906 40.9668 30.6152 77.0996 30.6152 Z M 77.0996 15.8691 C 48.7793 15.8691 26.0742 -6.93359 26.0742 -35.2051 C 26.0742 -63.4766 48.7793 -86.2793 77.0508 -86.2793 C 105.322 -86.2793 128.125 -63.4766 128.125 -35.2051 C 128.174 -6.93359 105.371 15.8691 77.0996 15.8691 Z M 93.6523 -7.12891 C 104.541 -7.12891 112.061 -14.502 112.061 -26.4648 C 112.061 -37.1094 104.736 -43.3594 96.5332 -43.3594 C 89.8438 -43.3594 85.9375 -39.8926 84.082 -35.7422 L 83.6914 -35.7422 C 83.5938 -36.2793 83.5938 -36.7676 83.5938 -37.5 C 83.5938 -47.7539 88.0859 -54.2969 94.4824 -54.2969 C 97.9004 -54.2969 100.293 -52.6367 101.758 -50.4395 C 102.881 -49.0234 104.004 -48.2422 106.055 -48.2422 C 108.203 -48.2422 110.107 -49.8047 110.107 -52.3438 C 110.107 -53.5645 109.912 -54.4434 109.424 -55.5176 C 107.617 -59.6191 102.441 -63.3789 94.8242 -63.3789 C 82.3242 -63.3789 73.877 -53.4668 73.877 -34.3262 C 73.877 -26.9531 75.0977 -20.9961 77.1973 -16.748 C 80.6641 -10.1074 86.6699 -7.12891 93.6523 -7.12891 Z M 58.8379 -7.37305 C 62.3047 -7.37305 64.0625 -9.76562 64.0625 -13.5254 L 64.0625 -56.3965 C 64.0625 -60.7422 61.9141 -63.2324 57.7637 -63.2324 C 55.3711 -63.2324 53.6133 -62.5977 50.7812 -60.2539 L 41.9922 -53.6621 C 40.1367 -52.0508 39.209 -50.6348 39.209 -48.6328 C 39.209 -46.1426 41.2109 -44.0918 43.6523 -44.0918 C 45.1172 -44.0918 46.1426 -44.5312 47.5586 -45.9473 L 53.3203 -50.7812 L 53.6621 -50.7812 L 53.6621 -13.5254 C 53.6621 -9.76562 55.4199 -7.37305 58.8379 -7.37305 Z M 93.1152 -15.8691 C 87.9883 -15.8691 84.2773 -19.9219 84.2773 -25.6348 C 84.2773 -31.2012 87.9395 -35.1074 93.1641 -35.1074 C 98.3398 -35.1074 101.953 -31.25 101.953 -25.5859 C 101.953 -19.7266 98.4375 -15.8691 93.1152 -15.8691 Z"/>
  </g>
  <g id="Heavy-L" transform="matrix(1 0 0 1 2558.42 1556)">
   <path d="M 78.2715 31.7871 C 115.039 31.7871 145.264 1.61133 145.264 -35.2051 C 145.264 -72.0215 115.039 -102.197 78.2227 -102.197 C 41.4551 -102.197 11.2793 -72.0215 11.2793 -35.2051 C 11.2793 1.61133 41.4551 31.7871 78.2715 31.7871 Z M 78.2715 14.0137 C 50.9766 14.0137 29.0527 -7.95898 29.0527 -35.2051 C 29.0527 -62.5 50.9766 -84.4727 78.2227 -84.4727 C 105.518 -84.4727 127.49 -62.5 127.49 -35.2051 C 127.539 -7.95898 105.518 14.0137 78.2715 14.0137 Z M 61.0352 -7.4707 C 65.0879 -7.4707 67.1387 -10.2539 67.1387 -14.7949 L 67.1387 -55.127 C 67.1387 -60.1562 64.6484 -63.0371 59.668 -63.0371 C 56.9824 -63.0371 54.9316 -62.4512 51.709 -59.5703 L 44.043 -53.3691 C 41.8457 -51.3672 40.8203 -49.8047 40.8203 -47.4609 C 40.8203 -44.6777 43.0176 -42.3828 45.8008 -42.3828 C 47.6074 -42.3828 48.8281 -42.9688 50.3418 -44.6777 L 54.6875 -48.9258 L 55.0293 -48.9258 L 55.0293 -14.7949 C 55.0293 -10.3027 57.0312 -7.4707 61.0352 -7.4707 Z M 95.4102 -7.42188 C 106.201 -7.42188 113.525 -14.8926 113.525 -26.8066 C 113.525 -37.2559 106.543 -43.3594 98.7793 -43.3594 C 92.627 -43.3594 89.1113 -40.1367 87.4023 -36.377 L 87.0117 -36.377 C 86.9141 -37.0117 86.8652 -37.6953 86.8652 -38.6719 C 86.8652 -47.1191 90.8203 -52.6855 96.1914 -52.6855 C 99.1211 -52.6855 101.025 -51.2695 102.344 -49.5117 C 103.516 -48.1445 104.736 -47.3145 106.982 -47.3145 C 109.424 -47.3145 111.67 -49.0234 111.67 -51.9043 C 111.67 -53.3691 111.426 -54.3945 110.84 -55.6152 C 108.936 -59.5703 103.906 -63.0371 96.5332 -63.0371 C 84.375 -63.0371 75.6836 -53.3203 75.6836 -34.6191 C 75.6836 -27.5879 76.8555 -21.7285 78.9062 -17.334 C 82.4219 -10.5957 88.2812 -7.42188 95.4102 -7.42188 Z M 94.7754 -17.4316 C 90.5273 -17.4316 87.5 -20.8496 87.5 -25.7812 C 87.5 -30.5664 90.5273 -33.8867 94.7754 -33.8867 C 99.0723 -33.8867 102.051 -30.5664 102.051 -25.7324 C 102.051 -20.752 99.1211 -17.4316 94.7754 -17.4316 Z"/>
  </g>
  <g id="Black-L" transform="matrix(1 0 0 1 2854.08 1556)">
   <path d="M 79.2969 32.8613 C 116.748 32.8613 147.363 2.19727 147.363 -35.2051 C 147.363 -72.6074 116.699 -103.271 79.2969 -103.271 C 41.8945 -103.271 11.2793 -72.6074 11.2793 -35.2051 C 11.2793 2.19727 41.8945 32.8613 79.2969 32.8613 Z M 79.2969 12.4023 C 52.9297 12.4023 31.7383 -8.83789 31.7383 -35.2051 C 31.7383 -61.5723 52.9297 -82.8125 79.2969 -82.8125 C 105.664 -82.8125 126.904 -61.5723 126.953 -35.2051 C 126.953 -8.83789 105.664 12.4023 79.2969 12.4023 Z M 63.0371 -7.56836 C 67.5781 -7.56836 69.873 -10.6934 69.873 -15.9668 L 69.873 -53.9551 C 69.873 -59.668 67.041 -62.8906 61.377 -62.8906 C 58.3984 -62.8906 56.0547 -62.3047 52.5391 -59.0332 L 45.8496 -53.125 C 43.3594 -50.7812 42.2363 -48.9746 42.2363 -46.3867 C 42.2363 -43.4082 44.6289 -40.8691 47.7539 -40.8691 C 49.8535 -40.8691 51.2207 -41.6016 52.832 -43.5547 L 55.957 -47.2656 L 56.25 -47.2656 L 56.25 -15.9668 C 56.25 -10.7422 58.4961 -7.56836 63.0371 -7.56836 Z M 97.0215 -7.71484 C 107.666 -7.71484 114.893 -15.2344 114.893 -27.1973 C 114.893 -37.4023 108.154 -43.3105 100.781 -43.3105 C 95.1172 -43.3105 91.9922 -40.3809 90.332 -36.9629 L 89.9414 -36.9629 C 89.8438 -37.6953 89.7949 -38.5254 89.7949 -39.7461 C 89.7949 -46.582 93.3105 -51.2695 97.7539 -51.2695 C 100.195 -51.2695 101.66 -50.0488 102.881 -48.6328 C 104.053 -47.3145 105.42 -46.4355 107.861 -46.4355 C 110.498 -46.4355 113.086 -48.3398 113.086 -51.5625 C 113.086 -53.1738 112.793 -54.2969 112.109 -55.7129 C 110.107 -59.5703 105.273 -62.7441 98.0957 -62.7441 C 86.1816 -62.7441 77.2461 -53.1738 77.2461 -34.9121 C 77.2461 -28.2227 78.418 -22.3633 80.4688 -17.8711 C 83.9844 -10.9863 89.7461 -7.71484 97.0215 -7.71484 Z M 96.2402 -18.8477 C 92.8223 -18.8477 90.332 -21.7285 90.332 -25.8789 C 90.332 -29.9805 92.7734 -32.8125 96.2402 -32.8125 C 99.707 -32.8125 102.148 -29.9805 102.148 -25.8789 C 102.148 -21.6797 99.7559 -18.8477 96.2402 -18.8477 Z"/>
  </g>
 </g>
</svg>
