<?xml version="1.0" encoding="UTF-8"?>
<!--Generator: Apple Native CoreSVG 123-->
<!DOCTYPE svg
PUBLIC "-//W3C//DTD SVG 1.1//EN"
       "http://www.w3.org/Graphics/SVG/1.1/DTD/svg11.dtd">
<svg version="1.1" xmlns="http://www.w3.org/2000/svg" xmlns:xlink="http://www.w3.org/1999/xlink" width="3300" height="2200">
 <!--glyph: "uni100559.medium", point size: 100.000000, font version: "Version 15.0d4e20", template writer version: "2"-->
 <g id="Notes">
  <rect height="2200" id="artboard" style="fill:white;opacity:1" width="3300" x="0" y="0"/>
  <line id="" style="fill:none;stroke:black;opacity:1;stroke-width:0.5;" x1="263" x2="3036" y1="292" y2="292"/>
  <text style="stroke:none;fill:black;font-family:-apple-system,&quot;SF Pro Display&quot;,&quot;SF Pro Text&quot;,Helvetica,sans-serif;font-weight:bold;" transform="matrix(1 0 0 1 263 322)">Weight/Scale Variations</text>
  <text style="stroke:none;fill:black;font-family:-apple-system,&quot;SF Pro Display&quot;,&quot;SF Pro Text&quot;,Helvetica,sans-serif;text-anchor:middle;" transform="matrix(1 0 0 1 559.711 322)">Ultralight</text>
  <text style="stroke:none;fill:black;font-family:-apple-system,&quot;SF Pro Display&quot;,&quot;SF Pro Text&quot;,Helvetica,sans-serif;text-anchor:middle;" transform="matrix(1 0 0 1 856.422 322)">Thin</text>
  <text style="stroke:none;fill:black;font-family:-apple-system,&quot;SF Pro Display&quot;,&quot;SF Pro Text&quot;,Helvetica,sans-serif;text-anchor:middle;" transform="matrix(1 0 0 1 1153.13 322)">Light</text>
  <text style="stroke:none;fill:black;font-family:-apple-system,&quot;SF Pro Display&quot;,&quot;SF Pro Text&quot;,Helvetica,sans-serif;text-anchor:middle;" transform="matrix(1 0 0 1 1449.84 322)">Regular</text>
  <text style="stroke:none;fill:black;font-family:-apple-system,&quot;SF Pro Display&quot;,&quot;SF Pro Text&quot;,Helvetica,sans-serif;text-anchor:middle;" transform="matrix(1 0 0 1 1746.56 322)">Medium</text>
  <text style="stroke:none;fill:black;font-family:-apple-system,&quot;SF Pro Display&quot;,&quot;SF Pro Text&quot;,Helvetica,sans-serif;text-anchor:middle;" transform="matrix(1 0 0 1 2043.27 322)">Semibold</text>
  <text style="stroke:none;fill:black;font-family:-apple-system,&quot;SF Pro Display&quot;,&quot;SF Pro Text&quot;,Helvetica,sans-serif;text-anchor:middle;" transform="matrix(1 0 0 1 2339.98 322)">Bold</text>
  <text style="stroke:none;fill:black;font-family:-apple-system,&quot;SF Pro Display&quot;,&quot;SF Pro Text&quot;,Helvetica,sans-serif;text-anchor:middle;" transform="matrix(1 0 0 1 2636.69 322)">Heavy</text>
  <text style="stroke:none;fill:black;font-family:-apple-system,&quot;SF Pro Display&quot;,&quot;SF Pro Text&quot;,Helvetica,sans-serif;text-anchor:middle;" transform="matrix(1 0 0 1 2933.4 322)">Black</text>
  <line id="" style="fill:none;stroke:black;opacity:1;stroke-width:0.5;" x1="263" x2="3036" y1="1903" y2="1903"/>
  <g id="" transform="matrix(1 0 0 1 263 1933)">
   <path d="M 9.24805 0.830078 C 13.5547 0.830078 17.1387 -2.74414 17.1387 -7.05078 C 17.1387 -11.3574 13.5449 -14.9316 9.23828 -14.9316 C 4.94141 -14.9316 1.36719 -11.3574 1.36719 -7.05078 C 1.36719 -2.74414 4.95117 0.830078 9.24805 0.830078 Z M 9.24805 -0.654297 C 5.70312 -0.654297 2.87109 -3.49609 2.87109 -7.05078 C 2.87109 -10.6055 5.69336 -13.4473 9.23828 -13.4473 C 12.793 -13.4473 15.6348 -10.6055 15.6445 -7.05078 C 15.6543 -3.49609 12.8027 -0.654297 9.24805 -0.654297 Z M 9.22852 -3.42773 C 9.69727 -3.42773 9.9707 -3.74023 9.9707 -4.25781 L 9.9707 -6.31836 L 12.1973 -6.31836 C 12.6953 -6.31836 13.0371 -6.57227 13.0371 -7.04102 C 13.0371 -7.51953 12.7148 -7.7832 12.1973 -7.7832 L 9.9707 -7.7832 L 9.9707 -10.0098 C 9.9707 -10.5273 9.69727 -10.8496 9.22852 -10.8496 C 8.75977 -10.8496 8.50586 -10.5078 8.50586 -10.0098 L 8.50586 -7.7832 L 6.29883 -7.7832 C 5.78125 -7.7832 5.44922 -7.51953 5.44922 -7.04102 C 5.44922 -6.57227 5.80078 -6.31836 6.29883 -6.31836 L 8.50586 -6.31836 L 8.50586 -4.25781 C 8.50586 -3.75977 8.75977 -3.42773 9.22852 -3.42773 Z"/>
  </g>
  <g id="" transform="matrix(1 0 0 1 281.506 1933)">
   <path d="M 11.709 2.91016 C 17.1484 2.91016 21.6699 -1.60156 21.6699 -7.05078 C 21.6699 -12.4902 17.1387 -17.0117 11.6992 -17.0117 C 6.25 -17.0117 1.74805 -12.4902 1.74805 -7.05078 C 1.74805 -1.60156 6.25977 2.91016 11.709 2.91016 Z M 11.709 1.25 C 7.09961 1.25 3.41797 -2.44141 3.41797 -7.05078 C 3.41797 -11.6504 7.08984 -15.3516 11.6992 -15.3516 C 16.2988 -15.3516 20 -11.6504 20.0098 -7.05078 C 20.0195 -2.44141 16.3086 1.25 11.709 1.25 Z M 11.6797 -2.41211 C 12.207 -2.41211 12.5195 -2.77344 12.5195 -3.33984 L 12.5195 -6.23047 L 15.5762 -6.23047 C 16.123 -6.23047 16.5039 -6.51367 16.5039 -7.03125 C 16.5039 -7.55859 16.1426 -7.86133 15.5762 -7.86133 L 12.5195 -7.86133 L 12.5195 -10.9277 C 12.5195 -11.5039 12.207 -11.8555 11.6797 -11.8555 C 11.1621 -11.8555 10.8789 -11.4844 10.8789 -10.9277 L 10.8789 -7.86133 L 7.83203 -7.86133 C 7.25586 -7.86133 6.89453 -7.55859 6.89453 -7.03125 C 6.89453 -6.51367 7.28516 -6.23047 7.83203 -6.23047 L 10.8789 -6.23047 L 10.8789 -3.33984 C 10.8789 -2.79297 11.1621 -2.41211 11.6797 -2.41211 Z"/>
  </g>
  <g id="" transform="matrix(1 0 0 1 304.914 1933)">
   <path d="M 14.9707 5.67383 C 21.9336 5.67383 27.6855 -0.078125 27.6855 -7.04102 C 27.6855 -14.0039 21.9238 -19.7559 14.9609 -19.7559 C 7.99805 -19.7559 2.25586 -14.0039 2.25586 -7.04102 C 2.25586 -0.078125 8.00781 5.67383 14.9707 5.67383 Z M 14.9707 3.85742 C 8.92578 3.85742 4.08203 -1.00586 4.08203 -7.04102 C 4.08203 -13.0762 8.91602 -17.9395 14.9609 -17.9395 C 20.9961 -17.9395 25.8594 -13.0762 25.8691 -7.04102 C 25.8789 -1.00586 21.0059 3.85742 14.9707 3.85742 Z M 14.9414 -1.06445 C 15.5176 -1.06445 15.8594 -1.45508 15.8594 -2.06055 L 15.8594 -6.13281 L 20.0977 -6.13281 C 20.6934 -6.13281 21.1133 -6.46484 21.1133 -7.02148 C 21.1133 -7.59766 20.7227 -7.93945 20.0977 -7.93945 L 15.8594 -7.93945 L 15.8594 -12.1875 C 15.8594 -12.8027 15.5176 -13.1934 14.9414 -13.1934 C 14.3848 -13.1934 14.0625 -12.7832 14.0625 -12.1875 L 14.0625 -7.93945 L 9.82422 -7.93945 C 9.20898 -7.93945 8.80859 -7.59766 8.80859 -7.02148 C 8.80859 -6.46484 9.23828 -6.13281 9.82422 -6.13281 L 14.0625 -6.13281 L 14.0625 -2.06055 C 14.0625 -1.47461 14.3848 -1.06445 14.9414 -1.06445 Z"/>
  </g>
  <text style="stroke:none;fill:black;font-family:-apple-system,&quot;SF Pro Display&quot;,&quot;SF Pro Text&quot;,Helvetica,sans-serif;font-weight:bold;" transform="matrix(1 0 0 1 263 1953)">Design Variations</text>
  <text style="stroke:none;fill:black;font-family:-apple-system,&quot;SF Pro Display&quot;,&quot;SF Pro Text&quot;,Helvetica,sans-serif;" transform="matrix(1 0 0 1 263 1971)">Symbols are supported in up to nine weights and three scales.</text>
  <text style="stroke:none;fill:black;font-family:-apple-system,&quot;SF Pro Display&quot;,&quot;SF Pro Text&quot;,Helvetica,sans-serif;" transform="matrix(1 0 0 1 263 1989)">For optimal layout with text and other symbols, vertically align</text>
  <text style="stroke:none;fill:black;font-family:-apple-system,&quot;SF Pro Display&quot;,&quot;SF Pro Text&quot;,Helvetica,sans-serif;" transform="matrix(1 0 0 1 263 2007)">symbols with the adjacent text.</text>
  <rect height="14" id="" style="fill:#00AEEF;stroke:none;opacity:0.4;" width="3" x="776" y="1919"/>
  <g id="" transform="matrix(1 0 0 1 779 1933)">
   <path d="M 10.5273 0 L 12.373 0 L 7.17773 -14.0918 L 5.43945 -14.0918 L 0.244141 0 L 2.08984 0 L 3.50586 -4.0332 L 9.11133 -4.0332 Z M 6.2793 -11.9531 L 6.33789 -11.9531 L 8.59375 -5.52734 L 4.02344 -5.52734 Z"/>
  </g>
  <rect height="14" id="" style="fill:#00AEEF;stroke:none;opacity:0.4;" width="3" x="791.617" y="1919"/>
  <text style="stroke:none;fill:black;font-family:-apple-system,&quot;SF Pro Display&quot;,&quot;SF Pro Text&quot;,Helvetica,sans-serif;font-weight:bold;" transform="matrix(1 0 0 1 776 1953)">Side Bearings</text>
  <text style="stroke:none;fill:black;font-family:-apple-system,&quot;SF Pro Display&quot;,&quot;SF Pro Text&quot;,Helvetica,sans-serif;" transform="matrix(1 0 0 1 776 1971)">Horizontal padding on the left and right side of each symbol</text>
  <text style="stroke:none;fill:black;font-family:-apple-system,&quot;SF Pro Display&quot;,&quot;SF Pro Text&quot;,Helvetica,sans-serif;" transform="matrix(1 0 0 1 776 1989)">can be adjusted by modifying the width of the blue rectangles.</text>
  <text style="stroke:none;fill:black;font-family:-apple-system,&quot;SF Pro Display&quot;,&quot;SF Pro Text&quot;,Helvetica,sans-serif;" transform="matrix(1 0 0 1 776 2007)">Modifications are automatically applied proportionally to all</text>
  <text style="stroke:none;fill:black;font-family:-apple-system,&quot;SF Pro Display&quot;,&quot;SF Pro Text&quot;,Helvetica,sans-serif;" transform="matrix(1 0 0 1 776 2025)">scales and weights.</text>
  <g id="" transform="matrix(1 0 0 1 1289 1933)">
   <path d="M 2.96875 2.35352 L 3.80859 3.19336 C 4.84375 4.22852 6.12305 4.15039 7.19727 2.97852 L 16.1621 -6.82617 C 16.5527 -6.74805 16.9629 -6.8457 17.4902 -7.02148 C 18.1738 -7.25586 18.2715 -7.25586 18.3887 -7.13867 C 18.5352 -7.01172 18.4863 -6.89453 18.2422 -6.25 C 17.8809 -5.33203 17.8125 -4.79492 18.5547 -4.02344 L 19.4238 -3.13477 C 20.2734 -2.24609 21.3281 -2.26562 22.2168 -3.14453 L 25.0586 -5.97656 C 25.9473 -6.86523 25.957 -7.92969 25.0781 -8.7793 L 24.1797 -9.64844 C 23.4082 -10.4004 22.8711 -10.3516 21.9629 -9.98047 C 21.3184 -9.72656 21.2012 -9.6875 21.0645 -9.81445 C 20.9375 -9.93164 20.9473 -10.0391 21.1816 -10.7129 C 21.5332 -11.6895 21.5723 -12.2852 20.752 -13.0957 L 19.3359 -14.5117 C 15.1953 -18.6133 11.2305 -18.7402 7.65625 -15.4395 C 7.08008 -14.9023 6.99219 -14.1504 7.53906 -13.6133 L 7.79297 -13.3594 C 8.22266 -12.9297 8.86719 -12.8418 9.41406 -13.1152 C 11.0645 -13.9453 12.2559 -14.0234 13.457 -12.9785 L 13.0273 -11.416 C 12.8516 -10.8008 12.793 -10.3418 12.9199 -9.93164 L 3.18359 -1.04492 C 2.02148 0.0292969 1.93359 1.32812 2.96875 2.35352 Z M 8.96484 -14.4922 C 8.89648 -14.5703 8.86719 -14.6582 8.99414 -14.7559 C 11.709 -17.2852 15.0391 -16.8457 18.3496 -13.5254 L 19.6973 -12.168 C 20.0879 -11.7773 20.0977 -11.582 19.8828 -10.8691 C 19.6582 -10.127 19.502 -9.53125 20.1465 -8.88672 C 20.8105 -8.22266 21.2891 -8.41797 22.207 -8.63281 C 22.9004 -8.79883 23.0664 -8.79883 23.4473 -8.41797 L 24.0918 -7.77344 C 24.4043 -7.48047 24.4141 -7.32422 24.0723 -6.97266 L 21.2207 -4.13086 C 20.8887 -3.79883 20.7227 -3.79883 20.4297 -4.10156 L 19.7852 -4.75586 C 19.4141 -5.13672 19.4141 -5.30273 19.5801 -6.01562 C 19.7852 -6.88477 19.9805 -7.38281 19.3262 -8.04688 C 18.6719 -8.7207 18.0762 -8.57422 17.3438 -8.33008 C 16.5625 -8.06641 16.3281 -8.06641 15.8984 -8.49609 L 14.6094 -9.78516 C 14.1699 -10.2246 14.1309 -10.4395 14.2676 -10.9082 L 15.0293 -13.3984 C 13.3887 -15.2832 11.4941 -15.5566 9.20898 -14.4434 C 9.11133 -14.3945 9.04297 -14.4141 8.96484 -14.4922 Z M 3.96484 1.36719 C 3.52539 0.927734 3.54492 0.537109 4.14062 -0.00976562 L 13.7402 -8.81836 L 15 -7.55859 L 6.17188 2.02148 C 5.625 2.60742 5.24414 2.64648 4.79492 2.19727 Z"/>
  </g>
  <text style="stroke:none;fill:black;font-family:-apple-system,&quot;SF Pro Display&quot;,&quot;SF Pro Text&quot;,Helvetica,sans-serif;font-weight:bold;" transform="matrix(1 0 0 1 1289 1953)">Exporting</text>
  <text style="stroke:none;fill:black;font-family:-apple-system,&quot;SF Pro Display&quot;,&quot;SF Pro Text&quot;,Helvetica,sans-serif;" transform="matrix(1 0 0 1 1289 1971)">Symbols should be outlined when exporting to ensure the</text>
  <text style="stroke:none;fill:black;font-family:-apple-system,&quot;SF Pro Display&quot;,&quot;SF Pro Text&quot;,Helvetica,sans-serif;" transform="matrix(1 0 0 1 1289 1989)">design is preserved when submitting to Xcode.</text>
  <text id="template-version" style="stroke:none;fill:black;font-family:-apple-system,&quot;SF Pro Display&quot;,&quot;SF Pro Text&quot;,Helvetica,sans-serif;text-anchor:end;" transform="matrix(1 0 0 1 3036 1933)">Template v.0.1</text>
  <text style="stroke:none;fill:black;font-family:-apple-system,&quot;SF Pro Display&quot;,&quot;SF Pro Text&quot;,Helvetica,sans-serif;text-anchor:end;" transform="matrix(1 0 0 1 3036 1951)">Generated from 17.square.fill</text>
  <text style="stroke:none;fill:black;font-family:-apple-system,&quot;SF Pro Display&quot;,&quot;SF Pro Text&quot;,Helvetica,sans-serif;text-anchor:end;" transform="matrix(1 0 0 1 3036 1969)">Typeset at 100 points</text>
  <text style="stroke:none;fill:black;font-family:-apple-system,&quot;SF Pro Display&quot;,&quot;SF Pro Text&quot;,Helvetica,sans-serif;" transform="matrix(1 0 0 1 263 726)">Small</text>
  <text style="stroke:none;fill:black;font-family:-apple-system,&quot;SF Pro Display&quot;,&quot;SF Pro Text&quot;,Helvetica,sans-serif;" transform="matrix(1 0 0 1 263 1156)">Medium</text>
  <text style="stroke:none;fill:black;font-family:-apple-system,&quot;SF Pro Display&quot;,&quot;SF Pro Text&quot;,Helvetica,sans-serif;" transform="matrix(1 0 0 1 263 1586)">Large</text>
 </g>
 <g id="Guides">
  <g id="H-reference" style="fill:#27AAE1;stroke:none;" transform="matrix(1 0 0 1 339 696)">
   <path d="M 54.9316 0 L 57.666 0 L 30.5664 -70.459 L 28.0762 -70.459 L 0.976562 0 L 3.66211 0 L 12.9395 -24.4629 L 45.7031 -24.4629 Z M 29.1992 -67.0898 L 29.4434 -67.0898 L 44.8242 -26.709 L 13.8184 -26.709 Z"/>
  </g>
  <line id="Baseline-S" style="fill:none;stroke:#27AAE1;opacity:1;stroke-width:0.577;" x1="263" x2="3036" y1="696" y2="696"/>
  <line id="Capline-S" style="fill:none;stroke:#27AAE1;opacity:1;stroke-width:0.577;" x1="263" x2="3036" y1="625.541" y2="625.541"/>
  <g id="H-reference" style="fill:#27AAE1;stroke:none;" transform="matrix(1 0 0 1 339 1126)">
   <path d="M 54.9316 0 L 57.666 0 L 30.5664 -70.459 L 28.0762 -70.459 L 0.976562 0 L 3.66211 0 L 12.9395 -24.4629 L 45.7031 -24.4629 Z M 29.1992 -67.0898 L 29.4434 -67.0898 L 44.8242 -26.709 L 13.8184 -26.709 Z"/>
  </g>
  <line id="Baseline-M" style="fill:none;stroke:#27AAE1;opacity:1;stroke-width:0.577;" x1="263" x2="3036" y1="1126" y2="1126"/>
  <line id="Capline-M" style="fill:none;stroke:#27AAE1;opacity:1;stroke-width:0.577;" x1="263" x2="3036" y1="1055.54" y2="1055.54"/>
  <g id="H-reference" style="fill:#27AAE1;stroke:none;" transform="matrix(1 0 0 1 339 1556)">
   <path d="M 54.9316 0 L 57.666 0 L 30.5664 -70.459 L 28.0762 -70.459 L 0.976562 0 L 3.66211 0 L 12.9395 -24.4629 L 45.7031 -24.4629 Z M 29.1992 -67.0898 L 29.4434 -67.0898 L 44.8242 -26.709 L 13.8184 -26.709 Z"/>
  </g>
  <line id="Baseline-L" style="fill:none;stroke:#27AAE1;opacity:1;stroke-width:0.577;" x1="263" x2="3036" y1="1556" y2="1556"/>
  <line id="Capline-L" style="fill:none;stroke:#27AAE1;opacity:1;stroke-width:0.577;" x1="263" x2="3036" y1="1485.54" y2="1485.54"/>
  <rect height="119.336" id="left-margin" style="fill:#00AEEF;stroke:none;opacity:0.4;" width="12.4512" x="1392.42" y="1030.79"/>
  <rect height="119.336" id="right-margin" style="fill:#00AEEF;stroke:none;opacity:0.4;" width="12.5" x="1494.77" y="1030.79"/>
 </g>
 <g id="Symbols">
  <g id="Ultralight-S" transform="matrix(1 0 0 1 516.352 696)">
   <path d="M 19.7754 -1.5625 L 66.9922 -1.5625 C 73.5352 -1.5625 76.9531 -5.12695 76.9531 -11.5234 L 76.9531 -58.7891 C 76.9531 -65.2344 73.5352 -68.75 66.9922 -68.75 L 19.7754 -68.75 C 13.2324 -68.75 9.76562 -65.2832 9.76562 -58.7891 L 9.76562 -11.5234 C 9.76562 -5.0293 13.2324 -1.5625 19.7754 -1.5625 Z M 34.0332 -17.0898 C 33.3496 -17.0898 32.8125 -17.5781 32.8125 -18.2617 L 32.8125 -50.5371 L 32.6172 -50.5371 L 24.6094 -45.3125 C 24.3652 -45.2148 24.1699 -45.166 23.9746 -45.166 C 23.3398 -45.166 22.8516 -45.6055 22.8516 -46.2402 C 22.8516 -46.6797 22.998 -47.0703 23.4375 -47.3145 L 32.0801 -52.8809 C 32.7637 -53.418 33.252 -53.5645 33.8379 -53.5645 C 34.6191 -53.5645 35.2051 -53.0762 35.2051 -52.2461 L 35.2051 -18.2617 C 35.2051 -17.5781 34.7168 -17.0898 34.0332 -17.0898 Z M 48.9746 -17.0898 C 48.1934 -17.0898 47.7051 -17.5293 47.7051 -18.2129 C 47.7051 -18.5059 47.8027 -18.7988 47.9492 -19.0918 L 63.9648 -50.5859 L 63.9648 -50.8301 L 44.6289 -50.8301 C 43.9941 -50.8301 43.5547 -51.3184 43.5547 -51.9043 C 43.5547 -52.5391 43.9453 -53.0762 44.6289 -53.0762 L 64.502 -53.0762 C 65.7227 -53.0762 66.5527 -52.3926 66.5527 -51.3672 C 66.5527 -50.8789 66.4551 -50.5371 66.1621 -49.9023 L 50.1465 -17.9688 C 49.8535 -17.2852 49.4629 -17.0898 48.9746 -17.0898 Z"/>
  </g>
  <g id="Thin-S" transform="matrix(1 0 0 1 812.599 696)">
   <path d="M 20.3125 -1.12305 L 67.334 -1.12305 C 74.2676 -1.12305 77.8809 -4.78516 77.8809 -11.6211 L 77.8809 -58.6914 C 77.8809 -65.5762 74.2676 -69.2383 67.334 -69.2383 L 20.3125 -69.2383 C 13.3789 -69.2383 9.76562 -65.625 9.76562 -58.6914 L 9.76562 -11.6211 C 9.76562 -4.6875 13.3789 -1.12305 20.3125 -1.12305 Z M 34.4727 -17.1387 C 33.4961 -17.1387 32.8613 -17.8711 32.8613 -18.7988 L 32.8613 -49.4629 L 32.666 -49.4629 L 25.5859 -44.7754 C 25.1465 -44.4824 24.9023 -44.4336 24.5605 -44.4336 C 23.7305 -44.4336 23.0957 -45.0684 23.0957 -45.9473 C 23.0957 -46.5332 23.3398 -47.0215 23.877 -47.4121 L 31.9336 -52.6367 C 32.9102 -53.3203 33.4961 -53.5156 34.2285 -53.5156 C 35.3516 -53.5156 36.084 -52.832 36.084 -51.6113 L 36.084 -18.7988 C 36.084 -17.8223 35.498 -17.1387 34.4727 -17.1387 Z M 49.707 -16.9922 C 48.7305 -16.9922 48.0469 -17.627 48.0469 -18.6035 C 48.0469 -19.043 48.1445 -19.3848 48.3398 -19.7754 L 63.623 -49.8535 L 63.623 -50.0977 L 45.3125 -50.0977 C 44.5312 -50.0977 43.9941 -50.7324 43.9941 -51.5625 C 43.9941 -52.3926 44.4824 -53.0273 45.3125 -53.0273 L 64.5996 -53.0273 C 66.1133 -53.0273 67.1387 -52.0996 67.1387 -50.7812 C 67.1387 -50.1953 67.041 -49.7559 66.6504 -48.9258 L 51.3184 -18.2617 C 50.9277 -17.334 50.3906 -16.9922 49.707 -16.9922 Z"/>
  </g>
  <g id="Light-S" transform="matrix(1 0 0 1 1108.46 696)">
   <path d="M 21.3867 -0.292969 L 67.9688 -0.292969 C 75.7324 -0.292969 79.5898 -4.15039 79.5898 -11.7676 L 79.5898 -58.5938 C 79.5898 -66.2109 75.7324 -70.1172 67.9688 -70.1172 L 21.3867 -70.1172 C 13.6719 -70.1172 9.76562 -66.2598 9.76562 -58.5938 L 9.76562 -11.7676 C 9.76562 -4.15039 13.6719 -0.292969 21.3867 -0.292969 Z M 35.3516 -17.2363 C 33.8379 -17.2363 32.959 -18.3594 32.959 -19.8242 L 32.959 -47.4121 L 32.7637 -47.4121 L 27.4902 -43.7012 C 26.6113 -43.0664 26.2695 -43.0176 25.6836 -43.0176 C 24.5605 -43.0176 23.4863 -43.9941 23.4863 -45.3125 C 23.4863 -46.2891 23.9258 -46.9727 24.7559 -47.5098 L 31.6406 -52.1484 C 33.0566 -53.125 33.8867 -53.5156 35.0586 -53.5156 C 36.7676 -53.5156 37.793 -52.3926 37.793 -50.3906 L 37.793 -19.8242 C 37.793 -18.3105 36.9141 -17.2363 35.3516 -17.2363 Z M 51.1719 -16.8945 C 49.7559 -16.8945 48.6328 -17.8711 48.6328 -19.3848 C 48.6328 -20.0684 48.7793 -20.5078 49.0723 -21.1426 L 62.8906 -48.3887 L 62.8906 -48.6816 L 46.6309 -48.6816 C 45.5566 -48.6816 44.7754 -49.6094 44.7754 -50.8301 C 44.7754 -52.0996 45.5078 -53.0273 46.6309 -53.0273 L 64.7949 -53.0273 C 66.8945 -53.0273 68.2617 -51.6113 68.2617 -49.6582 C 68.2617 -48.9258 68.1641 -48.1934 67.5293 -46.9727 L 53.6133 -18.75 C 52.9785 -17.4316 52.1973 -16.8945 51.1719 -16.8945 Z"/>
  </g>
  <g id="Regular-S" transform="matrix(1 0 0 1 1404.51 696)">
   <path d="M 22.2168 0.390625 L 68.457 0.390625 C 76.8066 0.390625 80.9082 -3.71094 80.9082 -11.9141 L 80.9082 -58.4961 C 80.9082 -66.6992 76.8066 -70.8008 68.457 -70.8008 L 22.2168 -70.8008 C 13.916 -70.8008 9.76562 -66.6992 9.76562 -58.4961 L 9.76562 -11.9141 C 9.76562 -3.71094 13.916 0.390625 22.2168 0.390625 Z M 36.0352 -17.2852 C 34.082 -17.2852 33.0566 -18.75 33.0566 -20.6055 L 33.0566 -45.8496 L 32.8125 -45.8496 L 28.9551 -42.8711 C 27.7832 -41.9922 27.2949 -41.9434 26.5625 -41.9434 C 25.1465 -41.9434 23.8281 -43.1641 23.8281 -44.8242 C 23.8281 -46.0938 24.3652 -46.9238 25.4395 -47.6074 L 31.4453 -51.7578 C 33.2031 -52.9785 34.2285 -53.4668 35.6445 -53.4668 C 37.8418 -53.4668 39.0625 -52.0508 39.0625 -49.4629 L 39.0625 -20.6055 C 39.0625 -18.7012 37.9883 -17.2852 36.0352 -17.2852 Z M 52.2949 -16.7969 C 50.5371 -16.7969 49.0723 -18.0664 49.0723 -19.9707 C 49.0723 -20.8008 49.2676 -21.3867 49.6582 -22.1191 L 62.3535 -47.3145 L 62.3535 -47.6562 L 47.6074 -47.6562 C 46.3379 -47.6562 45.4102 -48.7793 45.4102 -50.293 C 45.4102 -51.8555 46.2891 -52.9785 47.6074 -52.9785 L 64.9414 -52.9785 C 67.4805 -52.9785 69.1406 -51.1719 69.1406 -48.8281 C 69.1406 -47.9492 68.9941 -47.0215 68.2617 -45.459 L 55.3223 -19.1895 C 54.541 -17.5293 53.5645 -16.7969 52.2949 -16.7969 Z"/>
  </g>
  <g id="Medium-S" transform="matrix(1 0 0 1 1700.63 696)">
   <path d="M 22.8516 0.976562 L 68.9941 0.976562 C 77.6367 0.976562 82.0801 -3.4668 82.0801 -11.9629 L 82.0801 -58.3984 C 82.0801 -66.9434 77.6367 -71.3867 68.9941 -71.3867 L 22.8516 -71.3867 C 14.2578 -71.3867 9.76562 -66.9434 9.76562 -58.3984 L 9.76562 -11.9629 C 9.76562 -3.4668 14.2578 0.976562 22.8516 0.976562 Z M 36.5723 -17.334 C 34.375 -17.334 33.2031 -18.9453 33.2031 -21.2891 L 33.2031 -44.9707 L 32.959 -44.9707 L 29.6875 -42.1387 C 28.5156 -41.1621 27.9297 -40.9668 27.002 -40.9668 C 25.3906 -40.9668 24.0234 -42.334 24.0234 -44.043 C 24.0234 -45.459 24.6094 -46.3867 25.8301 -47.3145 L 31.3477 -51.3672 C 33.252 -52.8809 34.4238 -53.3203 35.9863 -53.3203 C 38.623 -53.3203 40.0879 -51.709 40.0879 -48.7793 L 40.0879 -21.2891 C 40.0879 -18.8965 38.8672 -17.334 36.5723 -17.334 Z M 53.6133 -17.041 C 51.6113 -17.041 50 -18.457 50 -20.6055 C 50 -21.582 50.1953 -22.2168 50.6348 -23.0469 L 62.3535 -46.2402 L 62.3535 -46.5332 L 49.1211 -46.5332 C 47.5098 -46.5332 46.2402 -47.7539 46.2402 -49.6094 C 46.2402 -51.4648 47.4121 -52.6855 49.1211 -52.6855 L 65.5273 -52.6855 C 68.3105 -52.6855 69.9219 -50.7812 69.9219 -48.1934 C 69.9219 -46.9727 69.6777 -45.8008 68.8477 -44.1406 L 57.1289 -19.7754 C 56.2988 -17.8711 55.127 -17.041 53.6133 -17.041 Z"/>
  </g>
  <g id="Semibold-S" transform="matrix(1 0 0 1 1996.9 696)">
   <path d="M 23.3398 1.41602 L 69.3848 1.41602 C 78.2227 1.41602 82.959 -3.32031 82.959 -12.0605 L 82.959 -58.3496 C 82.959 -67.0898 78.2227 -71.8262 69.3848 -71.8262 L 23.3398 -71.8262 C 14.5508 -71.8262 9.76562 -67.0898 9.76562 -58.3496 L 9.76562 -12.0605 C 9.76562 -3.32031 14.5508 1.41602 23.3398 1.41602 Z M 37.0117 -17.334 C 34.5703 -17.334 33.3008 -19.0918 33.3008 -21.8262 L 33.3008 -44.2871 L 33.1055 -44.2871 L 30.2246 -41.6016 C 29.1016 -40.5273 28.418 -40.2344 27.3438 -40.2344 C 25.5859 -40.2344 24.1699 -41.6992 24.1699 -43.457 C 24.1699 -44.9707 24.8047 -45.9961 26.1719 -47.1191 L 31.25 -51.0742 C 33.3008 -52.7832 34.5703 -53.2227 36.2305 -53.2227 C 39.2578 -53.2227 40.8203 -51.4648 40.8203 -48.291 L 40.8203 -21.8262 C 40.8203 -19.0918 39.502 -17.334 37.0117 -17.334 Z M 54.6387 -17.1875 C 52.3926 -17.1875 50.6836 -18.7988 50.6836 -21.1426 C 50.6836 -22.168 50.9277 -22.8516 51.416 -23.7793 L 62.3047 -45.4102 L 62.3047 -45.7031 L 50.2441 -45.7031 C 48.4375 -45.7031 46.875 -46.9727 46.875 -49.0723 C 46.875 -51.1719 48.291 -52.4902 50.2441 -52.4902 L 65.918 -52.4902 C 68.9941 -52.4902 70.5566 -50.4395 70.5566 -47.7051 C 70.5566 -46.2402 70.166 -44.873 69.3359 -43.1152 L 58.5449 -20.2637 C 57.6172 -18.1641 56.2988 -17.1875 54.6387 -17.1875 Z"/>
  </g>
  <g id="Bold-S" transform="matrix(1 0 0 1 2293.01 696)">
   <path d="M 23.9746 2.00195 L 69.9219 2.00195 C 79.0527 2.00195 84.1797 -3.07617 84.1797 -12.1582 L 84.1797 -58.252 C 84.1797 -67.334 79.0527 -72.4121 69.9219 -72.4121 L 23.9746 -72.4121 C 14.8926 -72.4121 9.76562 -67.334 9.76562 -58.252 L 9.76562 -12.1582 C 9.76562 -3.07617 14.8926 2.00195 23.9746 2.00195 Z M 37.5977 -17.3828 C 34.8145 -17.3828 33.4473 -19.3359 33.4473 -22.5098 L 33.4473 -43.4082 L 33.252 -43.4082 L 30.957 -40.918 C 29.8828 -39.6973 29.0527 -39.3066 27.7832 -39.3066 C 25.8789 -39.3066 24.3652 -40.8203 24.3652 -42.7246 C 24.3652 -44.3359 25.0977 -45.4102 26.6113 -46.8262 L 31.1523 -50.6836 C 33.3496 -52.6855 34.7656 -53.0762 36.5723 -53.0762 C 40.0879 -53.0762 41.7969 -51.0742 41.7969 -47.6074 L 41.7969 -22.5098 C 41.7969 -19.2871 40.3809 -17.3828 37.5977 -17.3828 Z M 55.957 -17.4316 C 53.4668 -17.4316 51.6113 -19.1895 51.6113 -21.7773 C 51.6113 -22.9004 51.8555 -23.6816 52.3926 -24.707 L 62.3047 -44.3359 L 62.3047 -44.5801 L 51.7578 -44.5801 C 49.6094 -44.5801 47.7051 -45.9473 47.7051 -48.3887 C 47.7051 -50.7812 49.4629 -52.1973 51.7578 -52.1973 L 66.4551 -52.1973 C 69.8242 -52.1973 71.3379 -50 71.3379 -47.0215 C 71.3379 -45.2637 70.8496 -43.6523 69.9707 -41.748 L 60.3516 -20.8984 C 59.3262 -18.5547 57.8613 -17.4316 55.957 -17.4316 Z"/>
  </g>
  <g id="Heavy-S" transform="matrix(1 0 0 1 2588.86 696)">
   <path d="M 24.9023 2.83203 L 70.7031 2.83203 C 80.2246 2.83203 85.8887 -2.7832 85.8887 -12.3047 L 85.8887 -58.1055 C 85.8887 -67.627 80.2246 -73.2422 70.7031 -73.2422 L 24.9023 -73.2422 C 15.3809 -73.2422 9.76562 -67.627 9.76562 -58.1055 L 9.76562 -12.3047 C 9.76562 -2.7832 15.3809 2.83203 24.9023 2.83203 Z M 38.4277 -17.4316 C 35.2051 -17.4316 33.6426 -19.6289 33.6426 -23.4863 L 33.6426 -42.1387 L 33.4961 -42.1387 L 31.9824 -39.8438 C 31.0059 -38.5254 29.9805 -37.8906 28.418 -37.8906 C 26.2695 -37.8906 24.6582 -39.5996 24.6582 -41.6016 C 24.6582 -43.4082 25.4395 -44.6289 27.2461 -46.4355 L 31.0059 -50.0977 C 33.4473 -52.4902 35.0586 -52.8809 37.1094 -52.8809 C 41.2109 -52.8809 43.2617 -50.5859 43.2617 -46.582 L 43.2617 -23.4863 C 43.2617 -19.6289 41.6504 -17.4316 38.4277 -17.4316 Z M 57.8613 -17.7734 C 55.0293 -17.7734 52.9785 -19.7754 52.9785 -22.7539 C 52.9785 -24.0234 53.2715 -24.9512 53.8086 -26.0742 L 62.2559 -42.7734 L 62.2559 -42.9688 L 53.9062 -42.9688 C 51.3184 -42.9688 48.9258 -44.4824 48.9258 -47.3633 C 48.9258 -50.2441 51.123 -51.8066 53.9062 -51.8066 L 67.2852 -51.8066 C 71.0938 -51.8066 72.5098 -49.3652 72.5098 -46.0938 C 72.5098 -43.8477 71.8262 -41.8457 70.8984 -39.7949 L 63.0371 -21.7773 C 61.8652 -19.0918 60.1562 -17.7734 57.8613 -17.7734 Z"/>
  </g>
  <g id="Black-S" transform="matrix(1 0 0 1 2884.82 696)">
   <path d="M 25.7324 3.61328 L 71.4355 3.61328 C 81.2988 3.61328 87.4023 -2.49023 87.4023 -12.4023 L 87.4023 -58.0078 C 87.4023 -67.9199 81.2988 -74.0234 71.4355 -74.0234 L 25.7324 -74.0234 C 15.8203 -74.0234 9.76562 -67.9199 9.76562 -58.0078 L 9.76562 -12.4023 C 9.76562 -2.49023 15.8203 3.61328 25.7324 3.61328 Z M 39.209 -17.4805 C 35.5469 -17.4805 33.7891 -19.9219 33.7891 -24.3652 L 33.7891 -41.0156 L 33.6914 -41.0156 L 32.959 -38.916 C 31.9824 -37.4512 30.8105 -36.6211 29.0039 -36.6211 C 26.6113 -36.6211 24.9512 -38.5254 24.9512 -40.625 C 24.9512 -42.5293 25.7812 -43.9453 27.7832 -46.0449 L 30.9082 -49.6094 C 33.4961 -52.3438 35.3516 -52.7344 37.5488 -52.7344 C 42.2852 -52.7344 44.5312 -50.1465 44.5312 -45.7031 L 44.5312 -24.3652 C 44.5312 -19.9219 42.8223 -17.4805 39.209 -17.4805 Z M 59.6191 -18.0664 C 56.4453 -18.0664 54.1504 -20.3125 54.1504 -23.6328 C 54.1504 -25 54.4922 -26.0254 55.127 -27.2949 L 62.2559 -41.3574 L 62.2559 -41.5527 L 55.8594 -41.5527 C 52.832 -41.5527 50 -43.1641 50 -46.4355 C 50 -49.7559 52.6367 -51.416 55.8594 -51.416 L 67.9688 -51.416 C 72.2168 -51.416 73.5352 -48.8281 73.5352 -45.2637 C 73.5352 -42.5781 72.7051 -40.2832 71.7285 -38.0371 L 65.4297 -22.6074 C 64.1113 -19.5801 62.1582 -18.0664 59.6191 -18.0664 Z"/>
  </g>
  <g id="Ultralight-M" transform="matrix(1 0 0 1 504.535 1126)">
   <path d="M 25 7.56836 L 85.3516 7.56836 C 93.5547 7.56836 97.9004 3.125 97.9004 -4.98047 L 97.9004 -65.2832 C 97.9004 -73.3887 93.5547 -77.832 85.3516 -77.832 L 25 -77.832 C 16.7969 -77.832 12.4512 -73.4863 12.4512 -65.2832 L 12.4512 -4.98047 C 12.4512 3.22266 16.7969 7.56836 25 7.56836 Z M 43.2617 -12.0605 C 42.4805 -12.0605 41.8945 -12.5977 41.8945 -13.3789 L 41.8945 -55.1758 L 41.6504 -55.1758 L 31.0059 -48.3398 C 30.7617 -48.2422 30.6152 -48.1445 30.3711 -48.1445 C 29.6387 -48.1445 29.1016 -48.7305 29.1016 -49.4141 C 29.1016 -49.9023 29.248 -50.3418 29.7363 -50.6348 L 41.0156 -57.8613 C 41.7969 -58.4473 42.3828 -58.6426 43.0176 -58.6426 C 43.9453 -58.6426 44.6289 -58.1055 44.6289 -57.1777 L 44.6289 -13.3789 C 44.6289 -12.5977 44.043 -12.0605 43.2617 -12.0605 Z M 62.207 -12.0605 C 61.3281 -12.0605 60.791 -12.5488 60.791 -13.3301 C 60.791 -13.7207 60.8398 -14.0137 61.0352 -14.4043 L 81.7871 -55.127 L 81.7871 -55.3711 L 56.7383 -55.3711 C 55.9082 -55.3711 55.4199 -56.0059 55.4199 -56.6895 C 55.4199 -57.4219 55.9082 -58.0078 56.7383 -58.0078 L 82.2754 -58.0078 C 83.7402 -58.0078 84.7168 -57.2266 84.7168 -56.0547 C 84.7168 -55.4688 84.5703 -55.0781 84.2773 -54.3457 L 63.5742 -13.1348 C 63.2324 -12.3047 62.793 -12.0605 62.207 -12.0605 Z"/>
  </g>
  <g id="Thin-M" transform="matrix(1 0 0 1 800.734 1126)">
   <path d="M 25.6348 8.05664 L 85.7422 8.05664 C 94.3848 8.05664 98.9258 3.4668 98.9258 -5.0293 L 98.9258 -65.2344 C 98.9258 -73.7305 94.3848 -78.3691 85.7422 -78.3691 L 25.6348 -78.3691 C 16.9922 -78.3691 12.4512 -73.877 12.4512 -65.2344 L 12.4512 -5.0293 C 12.4512 3.56445 16.9922 8.05664 25.6348 8.05664 Z M 43.7988 -12.1094 C 42.6758 -12.1094 41.9434 -12.8906 41.9434 -14.0137 L 41.9434 -53.9551 L 41.6504 -53.9551 L 32.1289 -47.7051 C 31.6406 -47.4121 31.3965 -47.3633 31.0059 -47.3633 C 30.0781 -47.3633 29.3457 -48.0957 29.3457 -49.0723 C 29.3457 -49.7559 29.5898 -50.293 30.2734 -50.7324 L 40.8691 -57.5684 C 41.9434 -58.3496 42.627 -58.5938 43.5059 -58.5938 C 44.7754 -58.5938 45.6055 -57.8125 45.6055 -56.4941 L 45.6055 -14.0137 C 45.6055 -12.8906 44.873 -12.1094 43.7988 -12.1094 Z M 63.0371 -12.0117 C 61.9141 -12.0117 61.1328 -12.6953 61.1328 -13.8184 C 61.1328 -14.3066 61.2305 -14.6973 61.4746 -15.1367 L 81.3965 -54.2969 L 81.3965 -54.5898 L 57.4707 -54.5898 C 56.543 -54.5898 55.9082 -55.3711 55.9082 -56.25 C 55.9082 -57.2266 56.4941 -58.0078 57.4707 -58.0078 L 82.373 -58.0078 C 84.1797 -58.0078 85.3516 -56.9336 85.3516 -55.4199 C 85.3516 -54.6875 85.2539 -54.1992 84.8145 -53.2227 L 64.8926 -13.4277 C 64.4043 -12.3535 63.8672 -12.0117 63.0371 -12.0117 Z"/>
  </g>
  <g id="Light-M" transform="matrix(1 0 0 1 1096.47 1126)">
   <path d="M 26.8555 9.0332 L 86.4746 9.0332 C 96.0449 9.0332 100.879 4.15039 100.879 -5.22461 L 100.879 -65.0879 C 100.879 -74.5117 96.0449 -79.3945 86.4746 -79.3945 L 26.8555 -79.3945 C 17.334 -79.3945 12.4512 -74.5605 12.4512 -65.0879 L 12.4512 -5.22461 C 12.4512 4.19922 17.334 9.0332 26.8555 9.0332 Z M 44.7754 -12.207 C 43.0664 -12.207 42.041 -13.4766 42.041 -15.1367 L 42.041 -51.6113 L 41.748 -51.6113 L 34.2773 -46.4844 C 33.3496 -45.8008 32.959 -45.752 32.3242 -45.752 C 31.0059 -45.752 29.834 -46.875 29.834 -48.3398 C 29.834 -49.4629 30.2734 -50.2441 31.25 -50.8301 L 40.5273 -57.0312 C 42.1387 -58.1543 43.0664 -58.5449 44.3848 -58.5449 C 46.3379 -58.5449 47.5098 -57.3242 47.5098 -55.127 L 47.5098 -15.1367 C 47.5098 -13.4277 46.5332 -12.207 44.7754 -12.207 Z M 64.6973 -11.8652 C 63.0859 -11.8652 61.8164 -12.9883 61.8164 -14.6973 C 61.8164 -15.4297 61.9629 -15.9668 62.3535 -16.6504 L 80.5664 -52.6855 L 80.5664 -53.0273 L 58.9844 -53.0273 C 57.7148 -53.0273 56.8359 -54.1016 56.8359 -55.4688 C 56.8359 -56.8848 57.666 -57.959 58.9844 -57.959 L 82.6172 -57.959 C 85.0586 -57.959 86.6699 -56.3477 86.6699 -54.1504 C 86.6699 -53.2227 86.5234 -52.4414 85.8398 -51.0254 L 67.4805 -14.0137 C 66.748 -12.5 65.8691 -11.8652 64.6973 -11.8652 Z"/>
  </g>
  <g id="Regular-M" transform="matrix(1 0 0 1 1392.42 1126)">
   <path d="M 27.7832 9.76562 L 87.0605 9.76562 C 97.2656 9.76562 102.344 4.6875 102.344 -5.37109 L 102.344 -64.9902 C 102.344 -75.0488 97.2656 -80.127 87.0605 -80.127 L 27.7832 -80.127 C 17.627 -80.127 12.4512 -75.0977 12.4512 -64.9902 L 12.4512 -5.37109 C 12.4512 4.73633 17.627 9.76562 27.7832 9.76562 Z M 45.5078 -12.2559 C 43.3105 -12.2559 42.1387 -13.916 42.1387 -16.0156 L 42.1387 -49.8535 L 41.8457 -49.8535 L 35.9375 -45.5566 C 34.668 -44.5801 34.1309 -44.5312 33.3008 -44.5312 C 31.6895 -44.5312 30.1758 -45.9473 30.1758 -47.8027 C 30.1758 -49.2188 30.8105 -50.1953 31.9824 -50.9277 L 40.2832 -56.5918 C 42.2852 -58.0078 43.457 -58.5449 45.0684 -58.5449 C 47.5586 -58.5449 48.9746 -56.9336 48.9746 -54.0527 L 48.9746 -16.0156 C 48.9746 -13.8672 47.7539 -12.2559 45.5078 -12.2559 Z M 65.9668 -11.7676 C 63.9648 -11.7676 62.3535 -13.2324 62.3535 -15.332 C 62.3535 -16.3086 62.5488 -16.9434 62.9883 -17.8223 L 79.9805 -51.416 L 79.9805 -51.8066 L 60.1074 -51.8066 C 58.5938 -51.8066 57.5195 -53.125 57.5195 -54.834 C 57.5195 -56.5918 58.5449 -57.9102 60.1074 -57.9102 L 82.8125 -57.9102 C 85.6934 -57.9102 87.6465 -55.8594 87.6465 -53.1738 C 87.6465 -52.0996 87.4512 -51.123 86.6211 -49.3164 L 69.3848 -14.4531 C 68.5547 -12.5488 67.4316 -11.7676 65.9668 -11.7676 Z"/>
  </g>
  <g id="Medium-M" transform="matrix(1 0 0 1 1688.45 1126)">
   <path d="M 28.5645 10.4492 L 87.6465 10.4492 C 98.2422 10.4492 103.711 4.98047 103.711 -5.46875 L 103.711 -64.8926 C 103.711 -75.3418 98.2422 -80.8105 87.6465 -80.8105 L 28.5645 -80.8105 C 17.9688 -80.8105 12.4512 -75.3906 12.4512 -64.8926 L 12.4512 -5.46875 C 12.4512 4.98047 17.9688 10.4492 28.5645 10.4492 Z M 46.1914 -12.3047 C 43.6523 -12.3047 42.2852 -14.1602 42.2852 -16.8457 L 42.2852 -48.7793 L 41.9922 -48.7793 L 36.8652 -44.7266 C 35.5957 -43.6035 34.9121 -43.4082 33.8379 -43.4082 C 32.0312 -43.4082 30.4199 -44.9707 30.4199 -46.9727 C 30.4199 -48.5352 31.1035 -49.6582 32.5195 -50.6836 L 40.1367 -56.1523 C 42.3828 -57.8613 43.7012 -58.3984 45.5078 -58.3984 C 48.5352 -58.3984 50.1465 -56.543 50.1465 -53.2227 L 50.1465 -16.8457 C 50.1465 -14.1602 48.7793 -12.3047 46.1914 -12.3047 Z M 67.4805 -12.0117 C 65.1855 -12.0117 63.3301 -13.623 63.3301 -16.1133 C 63.3301 -17.1875 63.5742 -17.9199 64.0625 -18.8965 L 79.8828 -50.1953 L 79.8828 -50.5371 L 61.7676 -50.5371 C 59.9121 -50.5371 58.4473 -51.9531 58.4473 -54.0527 C 58.4473 -56.2012 59.8145 -57.6172 61.7676 -57.6172 L 83.3984 -57.6172 C 86.6699 -57.6172 88.5742 -55.3711 88.5742 -52.3926 C 88.5742 -51.0254 88.2812 -49.707 87.3535 -47.7539 L 71.4844 -15.1367 C 70.5078 -12.9395 69.1895 -12.0117 67.4805 -12.0117 Z"/>
  </g>
  <g id="Semibold-M" transform="matrix(1 0 0 1 1984.65 1126)">
   <path d="M 29.1016 10.9863 L 88.1348 10.9863 C 98.9746 10.9863 104.785 5.17578 104.785 -5.56641 L 104.785 -64.8438 C 104.785 -75.5859 98.9746 -81.3477 88.1348 -81.3477 L 29.1016 -81.3477 C 18.3105 -81.3477 12.4512 -75.5859 12.4512 -64.8438 L 12.4512 -5.56641 C 12.4512 5.22461 18.3105 10.9863 29.1016 10.9863 Z M 46.6797 -12.3535 C 43.8965 -12.3535 42.3828 -14.4043 42.3828 -17.4316 L 42.3828 -47.9004 L 42.1387 -47.9004 L 37.5977 -44.0918 C 36.2793 -42.8711 35.498 -42.5781 34.2773 -42.5781 C 32.2754 -42.5781 30.6152 -44.2383 30.6152 -46.3379 C 30.6152 -48.0469 31.3477 -49.2188 32.9102 -50.4883 L 40.0391 -55.8105 C 42.4316 -57.7637 43.8965 -58.3008 45.8496 -58.3008 C 49.2676 -58.3008 51.0742 -56.25 51.0742 -52.6367 L 51.0742 -17.4316 C 51.0742 -14.3555 49.5605 -12.3535 46.6797 -12.3535 Z M 68.6035 -12.1582 C 66.0645 -12.1582 64.1113 -13.9648 64.1113 -16.6504 C 64.1113 -17.8223 64.3555 -18.6523 64.8926 -19.7266 L 79.7852 -49.2188 L 79.7852 -49.5605 L 62.9883 -49.5605 C 60.8887 -49.5605 59.1797 -51.0742 59.1797 -53.4668 C 59.1797 -55.8594 60.791 -57.373 62.9883 -57.373 L 83.8379 -57.373 C 87.4023 -57.373 89.2578 -55.0293 89.2578 -51.8066 C 89.2578 -50.1465 88.8672 -48.6328 87.9395 -46.582 L 73.0957 -15.6738 C 72.0215 -13.2812 70.5566 -12.1582 68.6035 -12.1582 Z"/>
  </g>
  <g id="Bold-M" transform="matrix(1 0 0 1 2280.65 1126)">
   <path d="M 29.8828 11.6699 L 88.7207 11.6699 C 100 11.6699 106.152 5.46875 106.152 -5.66406 L 106.152 -64.6973 C 106.152 -75.8789 100 -82.0312 88.7207 -82.0312 L 29.8828 -82.0312 C 18.6523 -82.0312 12.4512 -75.8789 12.4512 -64.6973 L 12.4512 -5.66406 C 12.4512 5.51758 18.6523 11.6699 29.8828 11.6699 Z M 47.3633 -12.4023 C 44.1895 -12.4023 42.5293 -14.6484 42.5293 -18.2617 L 42.5293 -46.8262 L 42.2852 -46.8262 L 38.5254 -43.2129 C 37.207 -41.8945 36.2793 -41.4062 34.8633 -41.4062 C 32.666 -41.4062 30.8594 -43.2617 30.8594 -45.459 C 30.8594 -47.3633 31.6895 -48.6328 33.4473 -50.1953 L 39.9414 -55.3711 C 42.4805 -57.6172 44.1406 -58.1543 46.2891 -58.1543 C 50.2441 -58.1543 52.2461 -55.8594 52.2461 -51.8066 L 52.2461 -18.2617 C 52.2461 -14.6484 50.5859 -12.4023 47.3633 -12.4023 Z M 70.1172 -12.4023 C 67.2852 -12.4023 65.0879 -14.4043 65.0879 -17.4316 C 65.0879 -18.7012 65.3809 -19.6289 65.9668 -20.8496 L 79.7363 -47.998 L 79.7363 -48.291 L 64.6973 -48.291 C 62.207 -48.291 60.1074 -49.9023 60.1074 -52.6855 C 60.1074 -55.4199 62.0605 -57.0801 64.6973 -57.0801 L 84.4238 -57.0801 C 88.3301 -57.0801 90.1855 -54.541 90.1855 -51.0254 C 90.1855 -49.0234 89.6973 -47.2168 88.6719 -44.9707 L 75.1953 -16.3574 C 74.0234 -13.6719 72.3145 -12.4023 70.1172 -12.4023 Z"/>
  </g>
  <g id="Heavy-M" transform="matrix(1 0 0 1 2576.36 1126)">
   <path d="M 31.0059 12.6465 L 89.6484 12.6465 C 101.416 12.6465 108.154 5.9082 108.154 -5.81055 L 108.154 -64.5508 C 108.154 -76.2695 101.416 -83.0566 89.6484 -83.0566 L 31.0059 -83.0566 C 19.2383 -83.0566 12.4512 -76.3184 12.4512 -64.5508 L 12.4512 -5.81055 C 12.4512 5.9082 19.2383 12.6465 31.0059 12.6465 Z M 48.3887 -12.4512 C 44.6289 -12.4512 42.7734 -15.0391 42.7734 -19.4336 L 42.7734 -45.2148 L 42.5293 -45.2148 L 39.8926 -41.9922 C 38.5742 -40.4297 37.4512 -39.7949 35.6934 -39.7949 C 33.1543 -39.7949 31.25 -41.8457 31.25 -44.2383 C 31.25 -46.3379 32.1289 -47.8027 34.2285 -49.8047 L 39.7461 -54.6875 C 42.627 -57.4219 44.5312 -57.9102 46.9238 -57.9102 C 51.6113 -57.9102 54.0039 -55.2246 54.0039 -50.5859 L 54.0039 -19.4336 C 54.0039 -15.0391 52.0996 -12.4512 48.3887 -12.4512 Z M 72.3145 -12.6953 C 68.9941 -12.6953 66.5527 -15.0391 66.5527 -18.5547 C 66.5527 -20.0195 66.8945 -21.0938 67.5781 -22.4121 L 79.5898 -46.1426 L 79.5898 -46.4355 L 67.0898 -46.4355 C 64.1602 -46.4355 61.4746 -48.2422 61.4746 -51.5137 C 61.4746 -54.834 63.916 -56.6895 67.0898 -56.6895 L 85.2539 -56.6895 C 89.7461 -56.6895 91.5527 -53.8086 91.5527 -49.9023 C 91.5527 -47.3633 90.8691 -45.166 89.7461 -42.6758 L 78.2715 -17.3828 C 76.9043 -14.209 74.9023 -12.6953 72.3145 -12.6953 Z"/>
  </g>
  <g id="Black-M" transform="matrix(1 0 0 1 2872.19 1126)">
   <path d="M 31.9824 13.5742 L 90.4297 13.5742 C 102.686 13.5742 109.961 6.29883 109.961 -5.95703 L 109.961 -64.4043 C 109.961 -76.6602 102.686 -83.9355 90.4297 -83.9355 L 31.9824 -83.9355 C 19.7266 -83.9355 12.4512 -76.6602 12.4512 -64.4043 L 12.4512 -5.95703 C 12.4512 6.29883 19.7266 13.5742 31.9824 13.5742 Z M 49.2676 -12.5 C 45.0195 -12.5 42.9688 -15.4297 42.9688 -20.459 L 42.9688 -43.75 L 42.7734 -43.75 L 41.1133 -40.918 C 39.7949 -39.1602 38.4766 -38.3301 36.4746 -38.3301 C 33.6426 -38.3301 31.543 -40.5762 31.543 -43.1152 C 31.543 -45.459 32.5684 -47.0703 34.9121 -49.4141 L 39.5508 -54.1016 C 42.6758 -57.2266 44.8242 -57.7637 47.4609 -57.7637 C 52.8809 -57.7637 55.5176 -54.7363 55.5176 -49.5117 L 55.5176 -20.459 C 55.5176 -15.4297 53.4668 -12.5 49.2676 -12.5 Z M 74.2676 -12.9883 C 70.5566 -12.9883 67.8711 -15.625 67.8711 -19.5312 C 67.8711 -21.1426 68.2617 -22.3633 68.9941 -23.877 L 79.4434 -44.5312 L 79.4434 -44.7754 L 69.2383 -44.7754 C 65.8691 -44.7754 62.6953 -46.7285 62.6953 -50.4883 C 62.6953 -54.2969 65.5762 -56.2988 69.2383 -56.2988 L 86.0352 -56.2988 C 90.9668 -56.2988 92.7734 -53.1738 92.7734 -48.877 C 92.7734 -45.8984 91.8945 -43.3105 90.7227 -40.625 L 81.0059 -18.2617 C 79.4922 -14.7461 77.2461 -12.9883 74.2676 -12.9883 Z"/>
  </g>
  <g id="Ultralight-L" transform="matrix(1 0 0 1 488.739 1556)">
   <path d="M 31.9824 19.7754 L 109.961 19.7754 C 120.361 19.7754 125.879 14.0625 125.879 3.85742 L 125.879 -74.0723 C 125.879 -84.2773 120.361 -89.9902 109.961 -89.9902 L 31.9824 -89.9902 C 21.6309 -89.9902 16.0645 -84.4727 16.0645 -74.0723 L 16.0645 3.85742 C 16.0645 14.2578 21.6309 19.7754 31.9824 19.7754 Z M 55.6152 -5.32227 C 54.7363 -5.32227 54.0039 -5.9082 54.0039 -6.78711 L 54.0039 -61.4746 L 53.7109 -61.4746 L 39.5508 -52.3926 C 39.3555 -52.3438 39.1602 -52.2949 38.8672 -52.2949 C 38.0371 -52.2949 37.4023 -52.8809 37.4023 -53.7109 C 37.4023 -54.248 37.5977 -54.7363 38.1836 -55.0781 L 53.0273 -64.5508 C 53.9062 -65.2344 54.541 -65.4297 55.3223 -65.4297 C 56.3477 -65.4297 57.1289 -64.8438 57.1289 -63.8672 L 57.1289 -6.78711 C 57.1289 -5.9082 56.4941 -5.32227 55.6152 -5.32227 Z M 79.8828 -5.37109 C 78.9062 -5.37109 78.3203 -5.9082 78.3203 -6.78711 C 78.3203 -7.22656 78.3691 -7.56836 78.5645 -8.00781 L 105.713 -61.2793 L 105.713 -61.6211 L 72.8516 -61.6211 C 71.875 -61.6211 71.3379 -62.3047 71.3379 -63.0859 C 71.3379 -63.916 71.875 -64.6484 72.8516 -64.6484 L 106.104 -64.6484 C 107.861 -64.6484 109.033 -63.7207 109.033 -62.4023 C 109.033 -61.6699 108.838 -61.2305 108.545 -60.4004 L 81.4941 -6.54297 C 81.0547 -5.66406 80.5664 -5.37109 79.8828 -5.37109 Z"/>
  </g>
  <g id="Thin-L" transform="matrix(1 0 0 1 784.889 1556)">
   <path d="M 32.7148 20.3613 L 110.4 20.3613 C 121.289 20.3613 127.002 14.4531 127.002 3.75977 L 127.002 -73.9746 C 127.002 -84.7168 121.289 -90.5762 110.4 -90.5762 L 32.7148 -90.5762 C 21.8262 -90.5762 16.0645 -84.8633 16.0645 -73.9746 L 16.0645 3.75977 C 16.0645 14.6484 21.8262 20.3613 32.7148 20.3613 Z M 56.2012 -5.37109 C 54.9805 -5.37109 54.0527 -6.25 54.0527 -7.4707 L 54.0527 -60.1562 L 53.7598 -60.1562 L 40.7715 -51.709 C 40.332 -51.4648 40.0391 -51.3672 39.6484 -51.3672 C 38.5254 -51.3672 37.6953 -52.1973 37.6953 -53.3203 C 37.6953 -54.1016 37.9883 -54.6875 38.7207 -55.1758 L 52.832 -64.209 C 54.0039 -65.1367 54.834 -65.4297 55.8594 -65.4297 C 57.2266 -65.4297 58.252 -64.5508 58.252 -63.0859 L 58.252 -7.4707 C 58.252 -6.25 57.4219 -5.37109 56.2012 -5.37109 Z M 80.8105 -5.32227 C 79.541 -5.32227 78.7109 -6.10352 78.7109 -7.32422 C 78.7109 -7.86133 78.8086 -8.30078 79.0527 -8.83789 L 105.273 -60.3516 L 105.273 -60.6934 L 73.6816 -60.6934 C 72.5586 -60.6934 71.8262 -61.5723 71.8262 -62.5977 C 71.8262 -63.7207 72.5586 -64.5996 73.6816 -64.5996 L 106.201 -64.5996 C 108.35 -64.5996 109.766 -63.3789 109.766 -61.6699 C 109.766 -60.791 109.57 -60.2539 109.131 -59.1309 L 82.959 -6.88477 C 82.4219 -5.71289 81.7383 -5.32227 80.8105 -5.32227 Z"/>
  </g>
  <g id="Light-L" transform="matrix(1 0 0 1 1080.5 1556)">
   <path d="M 34.082 21.4355 L 111.23 21.4355 C 123.096 21.4355 129.199 15.2344 129.199 3.56445 L 129.199 -73.8281 C 129.199 -85.5469 123.096 -91.6992 111.23 -91.6992 L 34.082 -91.6992 C 22.2168 -91.6992 16.0645 -85.6445 16.0645 -73.8281 L 16.0645 3.56445 C 16.0645 15.3809 22.2168 21.4355 34.082 21.4355 Z M 57.2754 -5.46875 C 55.3711 -5.46875 54.1992 -6.88477 54.1992 -8.74023 L 54.1992 -57.5195 L 53.8574 -57.5195 L 43.2129 -50.3418 C 42.2363 -49.6582 41.748 -49.5605 41.0645 -49.5605 C 39.5508 -49.5605 38.2324 -50.8301 38.2324 -52.4902 C 38.2324 -53.7598 38.7695 -54.6387 39.8438 -55.3223 L 52.4414 -63.623 C 54.248 -64.8926 55.3711 -65.3809 56.8359 -65.3809 C 59.0332 -65.3809 60.4004 -64.0137 60.4004 -61.5723 L 60.4004 -8.74023 C 60.4004 -6.83594 59.2285 -5.46875 57.2754 -5.46875 Z M 82.666 -5.17578 C 80.8594 -5.17578 79.4434 -6.39648 79.4434 -8.30078 C 79.4434 -9.13086 79.6387 -9.76562 80.0293 -10.5469 L 104.346 -58.5449 L 104.346 -58.9355 L 75.3418 -58.9355 C 73.877 -58.9355 72.8516 -60.1562 72.8516 -61.7188 C 72.8516 -63.3301 73.877 -64.5508 75.3418 -64.5508 L 106.494 -64.5508 C 109.326 -64.5508 111.182 -62.7441 111.182 -60.2539 C 111.182 -59.1797 110.986 -58.3008 110.254 -56.6895 L 85.791 -7.56836 C 85.0098 -5.81055 84.0332 -5.17578 82.666 -5.17578 Z"/>
  </g>
  <g id="Regular-L" transform="matrix(1 0 0 1 1376.36 1556)">
   <path d="M 35.1074 22.2168 L 111.865 22.2168 C 124.512 22.2168 130.859 15.8691 130.859 3.41797 L 130.859 -73.7305 C 130.859 -86.1816 124.512 -92.5293 111.865 -92.5293 L 35.1074 -92.5293 C 22.5098 -92.5293 16.0645 -86.2305 16.0645 -73.7305 L 16.0645 3.41797 C 16.0645 15.918 22.5098 22.2168 35.1074 22.2168 Z M 58.1055 -5.56641 C 55.6641 -5.56641 54.2969 -7.37305 54.2969 -9.7168 L 54.2969 -55.5664 L 53.9062 -55.5664 L 45.0195 -49.3164 C 43.6523 -48.291 43.0664 -48.2422 42.1387 -48.2422 C 40.2832 -48.2422 38.623 -49.8047 38.623 -51.9043 C 38.623 -53.4668 39.3066 -54.5898 40.6738 -55.4199 L 52.1973 -63.1348 C 54.4434 -64.7461 55.7617 -65.332 57.6172 -65.332 C 60.4004 -65.332 62.0117 -63.5742 62.0117 -60.4004 L 62.0117 -9.7168 C 62.0117 -7.32422 60.5957 -5.56641 58.1055 -5.56641 Z M 84.082 -5.07812 C 81.8359 -5.07812 80.0293 -6.64062 80.0293 -9.0332 C 80.0293 -10.1074 80.2734 -10.8398 80.7617 -11.8164 L 103.662 -57.1289 L 103.662 -57.6172 L 76.6113 -57.6172 C 74.9023 -57.6172 73.6328 -59.082 73.6328 -61.0352 C 73.6328 -63.0371 74.8535 -64.502 76.6113 -64.502 L 106.689 -64.502 C 110.059 -64.502 112.305 -62.2559 112.305 -59.1797 C 112.305 -57.959 112.061 -56.7871 111.133 -54.7852 L 87.9883 -8.05664 C 87.0117 -5.9082 85.7422 -5.07812 84.082 -5.07812 Z"/>
  </g>
  <g id="Medium-L" transform="matrix(1 0 0 1 1672.31 1556)">
   <path d="M 35.9863 22.998 L 112.549 22.998 C 125.635 22.998 132.422 16.2109 132.422 3.27148 L 132.422 -73.6328 C 132.422 -86.5234 125.635 -93.3105 112.549 -93.3105 L 35.9863 -93.3105 C 22.9004 -93.3105 16.0645 -86.5723 16.0645 -73.6328 L 16.0645 3.27148 C 16.0645 16.2598 22.9004 22.998 35.9863 22.998 Z M 58.8867 -5.61523 C 56.0059 -5.61523 54.4434 -7.71484 54.4434 -10.6445 L 54.4434 -54.1992 L 54.1016 -54.1992 L 46.1914 -48.3398 C 44.7754 -47.168 44.043 -46.9727 42.8711 -46.9727 C 40.7715 -46.9727 38.9648 -48.7305 38.9648 -51.0254 C 38.9648 -52.832 39.7461 -54.0527 41.3086 -55.2246 L 52.002 -62.6465 C 54.541 -64.5996 56.0547 -65.1855 58.1055 -65.1855 C 61.5234 -65.1855 63.3789 -63.1348 63.3789 -59.4238 L 63.3789 -10.6445 C 63.3789 -7.66602 61.7676 -5.61523 58.8867 -5.61523 Z M 85.6934 -5.22461 C 83.1055 -5.22461 81.0547 -7.08008 81.0547 -9.86328 C 81.0547 -11.084 81.2988 -11.9141 81.8359 -13.0371 L 103.467 -55.7617 L 103.467 -56.2012 L 78.3691 -56.2012 C 76.2695 -56.2012 74.6582 -57.8613 74.6582 -60.2051 C 74.6582 -62.5977 76.1719 -64.2578 78.3691 -64.2578 L 107.275 -64.2578 C 111.084 -64.2578 113.33 -61.7188 113.33 -58.3008 C 113.33 -56.6895 112.988 -55.2734 111.963 -53.0273 L 90.2832 -8.78906 C 89.1602 -6.29883 87.6465 -5.22461 85.6934 -5.22461 Z"/>
  </g>
  <g id="Semibold-L" transform="matrix(1 0 0 1 1968.41 1556)">
   <path d="M 36.6699 23.584 L 113.037 23.584 C 126.514 23.584 133.594 16.5039 133.594 3.17383 L 133.594 -73.5352 C 133.594 -86.8164 126.514 -93.9453 113.037 -93.9453 L 36.6699 -93.9453 C 23.2422 -93.9453 16.0645 -86.8652 16.0645 -73.5352 L 16.0645 3.17383 C 16.0645 16.5527 23.2422 23.584 36.6699 23.584 Z M 59.4727 -5.66406 C 56.2988 -5.66406 54.541 -7.95898 54.541 -11.3281 L 54.541 -53.125 L 54.1992 -53.125 L 47.1191 -47.6074 C 45.6055 -46.2891 44.7754 -45.9961 43.4082 -45.9961 C 41.1133 -45.9961 39.1602 -47.9004 39.1602 -50.3418 C 39.1602 -52.2949 40.0391 -53.6621 41.7969 -55.0293 L 51.8555 -62.2559 C 54.6387 -64.4531 56.2988 -65.0879 58.5449 -65.0879 C 62.3535 -65.0879 64.4531 -62.793 64.4531 -58.6914 L 64.4531 -11.3281 C 64.4531 -7.91016 62.6953 -5.66406 59.4727 -5.66406 Z M 86.9629 -5.37109 C 84.082 -5.37109 81.8359 -7.42188 81.8359 -10.4492 C 81.8359 -11.8164 82.1289 -12.7441 82.7148 -13.9648 L 103.32 -54.6875 L 103.32 -55.127 L 79.6875 -55.127 C 77.2949 -55.127 75.3906 -56.8848 75.3906 -59.5703 C 75.3906 -62.2559 77.1973 -64.0625 79.6875 -64.0625 L 107.715 -64.0625 C 111.816 -64.0625 114.111 -61.2793 114.111 -57.5684 C 114.111 -55.7129 113.721 -54.0527 112.598 -51.6602 L 92.041 -9.32617 C 90.8203 -6.5918 89.1602 -5.37109 86.9629 -5.37109 Z"/>
  </g>
  <g id="Bold-L" transform="matrix(1 0 0 1 2264.34 1556)">
   <path d="M 37.5488 24.3652 L 113.721 24.3652 C 127.686 24.3652 135.205 16.8945 135.205 3.07617 L 135.205 -73.3887 C 135.205 -87.207 127.686 -94.7266 113.721 -94.7266 L 37.5488 -94.7266 C 23.6328 -94.7266 16.0645 -87.2559 16.0645 -73.3887 L 16.0645 3.07617 C 16.0645 16.8945 23.6328 24.3652 37.5488 24.3652 Z M 60.2539 -5.71289 C 56.6406 -5.71289 54.7363 -8.30078 54.7363 -12.2559 L 54.7363 -51.7578 L 54.3945 -51.7578 L 48.291 -46.6797 C 46.7285 -45.1172 45.7031 -44.7266 44.1406 -44.7266 C 41.6016 -44.7266 39.502 -46.8262 39.502 -49.4629 C 39.502 -51.6113 40.4297 -53.125 42.4316 -54.7852 L 51.709 -61.7676 C 54.7363 -64.3066 56.5918 -64.9414 59.082 -64.9414 C 63.4766 -64.9414 65.8203 -62.3535 65.8203 -57.7148 L 65.8203 -12.2559 C 65.8203 -8.25195 63.916 -5.71289 60.2539 -5.71289 Z M 88.623 -5.56641 C 85.3516 -5.56641 82.8613 -7.86133 82.8613 -11.2793 C 82.8613 -12.793 83.1543 -13.8672 83.8379 -15.2344 L 103.125 -53.2715 L 103.125 -53.7109 L 81.4453 -53.7109 C 78.7109 -53.7109 76.416 -55.6152 76.416 -58.6914 C 76.416 -61.8164 78.5645 -63.7695 81.4453 -63.7695 L 108.252 -63.7695 C 112.842 -63.7695 115.186 -60.7422 115.186 -56.6895 C 115.186 -54.4922 114.648 -52.4902 113.428 -49.9023 L 94.3848 -10.0586 C 93.0176 -6.98242 91.1133 -5.56641 88.623 -5.56641 Z"/>
  </g>
  <g id="Heavy-L" transform="matrix(1 0 0 1 2559.91 1556)">
   <path d="M 38.8184 25.4883 L 114.697 25.4883 C 129.346 25.4883 137.451 17.4316 137.451 2.88086 L 137.451 -73.2422 C 137.451 -87.793 129.346 -95.8496 114.697 -95.8496 L 38.8184 -95.8496 C 24.2188 -95.8496 16.0645 -87.793 16.0645 -73.2422 L 16.0645 2.88086 C 16.0645 17.4316 24.2188 25.4883 38.8184 25.4883 Z M 61.377 -5.76172 C 57.1289 -5.76172 54.9316 -8.78906 54.9316 -13.5742 L 54.9316 -49.7559 L 54.6387 -49.7559 L 50.0488 -45.2637 C 48.3887 -43.457 47.1191 -42.8223 45.2148 -42.8223 C 42.2363 -42.8223 39.9414 -45.2637 39.9414 -48.1445 C 39.9414 -50.6348 41.0156 -52.3926 43.3594 -54.4434 L 51.4648 -61.0352 C 54.8828 -64.0625 57.0312 -64.7461 59.8633 -64.7461 C 65.1367 -64.7461 67.8223 -61.6699 67.8223 -56.2988 L 67.8223 -13.5742 C 67.8223 -8.74023 65.625 -5.76172 61.377 -5.76172 Z M 90.9668 -5.81055 C 87.207 -5.81055 84.3262 -8.49609 84.3262 -12.5 C 84.3262 -14.209 84.7168 -15.4297 85.498 -17.041 L 102.783 -51.2695 L 102.783 -51.6602 L 83.9844 -51.6602 C 80.7129 -51.6602 77.8809 -53.8086 77.8809 -57.4707 C 77.8809 -61.1816 80.5176 -63.3789 83.9844 -63.3789 L 109.082 -63.3789 C 114.307 -63.3789 116.699 -59.9609 116.699 -55.3711 C 116.699 -52.6367 116.016 -50.2441 114.648 -47.2656 L 97.7539 -11.084 C 96.1914 -7.51953 93.9453 -5.81055 90.9668 -5.81055 Z"/>
  </g>
  <g id="Black-L" transform="matrix(1 0 0 1 2855.62 1556)">
   <path d="M 39.9902 26.5137 L 115.576 26.5137 C 130.859 26.5137 139.502 17.8711 139.502 2.68555 L 139.502 -73.0957 C 139.502 -88.2812 130.859 -96.875 115.576 -96.875 L 39.9902 -96.875 C 24.7559 -96.875 16.0645 -88.2812 16.0645 -73.0957 L 16.0645 2.68555 C 16.0645 17.8711 24.7559 26.5137 39.9902 26.5137 Z M 62.3535 -5.85938 C 57.5684 -5.85938 55.127 -9.22852 55.127 -14.7949 L 55.127 -47.998 L 54.8828 -47.998 L 51.6113 -43.9941 C 49.8047 -41.9434 48.3887 -41.1621 46.1426 -41.1621 C 42.8711 -41.1621 40.332 -43.8477 40.332 -47.0215 C 40.332 -49.7559 41.5039 -51.709 44.1406 -54.1504 L 51.2207 -60.4004 C 54.9805 -63.8672 57.4707 -64.5508 60.5469 -64.5508 C 66.6016 -64.5508 69.6289 -61.084 69.6289 -55.0293 L 69.6289 -14.7949 C 69.6289 -9.17969 67.1875 -5.85938 62.3535 -5.85938 Z M 93.1152 -6.05469 C 88.8672 -6.05469 85.6445 -9.08203 85.6445 -13.5742 C 85.6445 -15.5273 86.084 -16.8945 86.9629 -18.6523 L 102.539 -49.4141 L 102.539 -49.8047 L 86.2793 -49.8047 C 82.5195 -49.8047 79.1504 -52.1484 79.1504 -56.3965 C 79.1504 -60.5957 82.2754 -62.9883 86.2793 -62.9883 L 109.863 -62.9883 C 115.625 -62.9883 118.066 -59.2285 118.066 -54.1504 C 118.066 -51.0254 117.188 -48.1934 115.723 -44.9707 L 100.781 -12.0605 C 99.0234 -8.00781 96.4355 -6.05469 93.1152 -6.05469 Z"/>
  </g>
 </g>
</svg>
