<?xml version="1.0" encoding="UTF-8"?>
<!--Generator: Apple Native CoreSVG 123-->
<!DOCTYPE svg
PUBLIC "-//W3C//DTD SVG 1.1//EN"
       "http://www.w3.org/Graphics/SVG/1.1/DTD/svg11.dtd">
<svg version="1.1" xmlns="http://www.w3.org/2000/svg" xmlns:xlink="http://www.w3.org/1999/xlink" width="3300" height="2200">
 <!--glyph: "uni100501.medium", point size: 100.000000, font version: "Version 15.0d4e20", template writer version: "2"-->
 <g id="Notes">
  <rect height="2200" id="artboard" style="fill:white;opacity:1" width="3300" x="0" y="0"/>
  <line id="" style="fill:none;stroke:black;opacity:1;stroke-width:0.5;" x1="263" x2="3036" y1="292" y2="292"/>
  <text style="stroke:none;fill:black;font-family:-apple-system,&quot;SF Pro Display&quot;,&quot;SF Pro Text&quot;,Helvetica,sans-serif;font-weight:bold;" transform="matrix(1 0 0 1 263 322)">Weight/Scale Variations</text>
  <text style="stroke:none;fill:black;font-family:-apple-system,&quot;SF Pro Display&quot;,&quot;SF Pro Text&quot;,Helvetica,sans-serif;text-anchor:middle;" transform="matrix(1 0 0 1 559.711 322)">Ultralight</text>
  <text style="stroke:none;fill:black;font-family:-apple-system,&quot;SF Pro Display&quot;,&quot;SF Pro Text&quot;,Helvetica,sans-serif;text-anchor:middle;" transform="matrix(1 0 0 1 856.422 322)">Thin</text>
  <text style="stroke:none;fill:black;font-family:-apple-system,&quot;SF Pro Display&quot;,&quot;SF Pro Text&quot;,Helvetica,sans-serif;text-anchor:middle;" transform="matrix(1 0 0 1 1153.13 322)">Light</text>
  <text style="stroke:none;fill:black;font-family:-apple-system,&quot;SF Pro Display&quot;,&quot;SF Pro Text&quot;,Helvetica,sans-serif;text-anchor:middle;" transform="matrix(1 0 0 1 1449.84 322)">Regular</text>
  <text style="stroke:none;fill:black;font-family:-apple-system,&quot;SF Pro Display&quot;,&quot;SF Pro Text&quot;,Helvetica,sans-serif;text-anchor:middle;" transform="matrix(1 0 0 1 1746.56 322)">Medium</text>
  <text style="stroke:none;fill:black;font-family:-apple-system,&quot;SF Pro Display&quot;,&quot;SF Pro Text&quot;,Helvetica,sans-serif;text-anchor:middle;" transform="matrix(1 0 0 1 2043.27 322)">Semibold</text>
  <text style="stroke:none;fill:black;font-family:-apple-system,&quot;SF Pro Display&quot;,&quot;SF Pro Text&quot;,Helvetica,sans-serif;text-anchor:middle;" transform="matrix(1 0 0 1 2339.98 322)">Bold</text>
  <text style="stroke:none;fill:black;font-family:-apple-system,&quot;SF Pro Display&quot;,&quot;SF Pro Text&quot;,Helvetica,sans-serif;text-anchor:middle;" transform="matrix(1 0 0 1 2636.69 322)">Heavy</text>
  <text style="stroke:none;fill:black;font-family:-apple-system,&quot;SF Pro Display&quot;,&quot;SF Pro Text&quot;,Helvetica,sans-serif;text-anchor:middle;" transform="matrix(1 0 0 1 2933.4 322)">Black</text>
  <line id="" style="fill:none;stroke:black;opacity:1;stroke-width:0.5;" x1="263" x2="3036" y1="1903" y2="1903"/>
  <g id="" transform="matrix(1 0 0 1 263 1933)">
   <path d="M 9.24805 0.830078 C 13.5547 0.830078 17.1387 -2.74414 17.1387 -7.05078 C 17.1387 -11.3574 13.5449 -14.9316 9.23828 -14.9316 C 4.94141 -14.9316 1.36719 -11.3574 1.36719 -7.05078 C 1.36719 -2.74414 4.95117 0.830078 9.24805 0.830078 Z M 9.24805 -0.654297 C 5.70312 -0.654297 2.87109 -3.49609 2.87109 -7.05078 C 2.87109 -10.6055 5.69336 -13.4473 9.23828 -13.4473 C 12.793 -13.4473 15.6348 -10.6055 15.6445 -7.05078 C 15.6543 -3.49609 12.8027 -0.654297 9.24805 -0.654297 Z M 9.22852 -3.42773 C 9.69727 -3.42773 9.9707 -3.74023 9.9707 -4.25781 L 9.9707 -6.31836 L 12.1973 -6.31836 C 12.6953 -6.31836 13.0371 -6.57227 13.0371 -7.04102 C 13.0371 -7.51953 12.7148 -7.7832 12.1973 -7.7832 L 9.9707 -7.7832 L 9.9707 -10.0098 C 9.9707 -10.5273 9.69727 -10.8496 9.22852 -10.8496 C 8.75977 -10.8496 8.50586 -10.5078 8.50586 -10.0098 L 8.50586 -7.7832 L 6.29883 -7.7832 C 5.78125 -7.7832 5.44922 -7.51953 5.44922 -7.04102 C 5.44922 -6.57227 5.80078 -6.31836 6.29883 -6.31836 L 8.50586 -6.31836 L 8.50586 -4.25781 C 8.50586 -3.75977 8.75977 -3.42773 9.22852 -3.42773 Z"/>
  </g>
  <g id="" transform="matrix(1 0 0 1 281.506 1933)">
   <path d="M 11.709 2.91016 C 17.1484 2.91016 21.6699 -1.60156 21.6699 -7.05078 C 21.6699 -12.4902 17.1387 -17.0117 11.6992 -17.0117 C 6.25 -17.0117 1.74805 -12.4902 1.74805 -7.05078 C 1.74805 -1.60156 6.25977 2.91016 11.709 2.91016 Z M 11.709 1.25 C 7.09961 1.25 3.41797 -2.44141 3.41797 -7.05078 C 3.41797 -11.6504 7.08984 -15.3516 11.6992 -15.3516 C 16.2988 -15.3516 20 -11.6504 20.0098 -7.05078 C 20.0195 -2.44141 16.3086 1.25 11.709 1.25 Z M 11.6797 -2.41211 C 12.207 -2.41211 12.5195 -2.77344 12.5195 -3.33984 L 12.5195 -6.23047 L 15.5762 -6.23047 C 16.123 -6.23047 16.5039 -6.51367 16.5039 -7.03125 C 16.5039 -7.55859 16.1426 -7.86133 15.5762 -7.86133 L 12.5195 -7.86133 L 12.5195 -10.9277 C 12.5195 -11.5039 12.207 -11.8555 11.6797 -11.8555 C 11.1621 -11.8555 10.8789 -11.4844 10.8789 -10.9277 L 10.8789 -7.86133 L 7.83203 -7.86133 C 7.25586 -7.86133 6.89453 -7.55859 6.89453 -7.03125 C 6.89453 -6.51367 7.28516 -6.23047 7.83203 -6.23047 L 10.8789 -6.23047 L 10.8789 -3.33984 C 10.8789 -2.79297 11.1621 -2.41211 11.6797 -2.41211 Z"/>
  </g>
  <g id="" transform="matrix(1 0 0 1 304.914 1933)">
   <path d="M 14.9707 5.67383 C 21.9336 5.67383 27.6855 -0.078125 27.6855 -7.04102 C 27.6855 -14.0039 21.9238 -19.7559 14.9609 -19.7559 C 7.99805 -19.7559 2.25586 -14.0039 2.25586 -7.04102 C 2.25586 -0.078125 8.00781 5.67383 14.9707 5.67383 Z M 14.9707 3.85742 C 8.92578 3.85742 4.08203 -1.00586 4.08203 -7.04102 C 4.08203 -13.0762 8.91602 -17.9395 14.9609 -17.9395 C 20.9961 -17.9395 25.8594 -13.0762 25.8691 -7.04102 C 25.8789 -1.00586 21.0059 3.85742 14.9707 3.85742 Z M 14.9414 -1.06445 C 15.5176 -1.06445 15.8594 -1.45508 15.8594 -2.06055 L 15.8594 -6.13281 L 20.0977 -6.13281 C 20.6934 -6.13281 21.1133 -6.46484 21.1133 -7.02148 C 21.1133 -7.59766 20.7227 -7.93945 20.0977 -7.93945 L 15.8594 -7.93945 L 15.8594 -12.1875 C 15.8594 -12.8027 15.5176 -13.1934 14.9414 -13.1934 C 14.3848 -13.1934 14.0625 -12.7832 14.0625 -12.1875 L 14.0625 -7.93945 L 9.82422 -7.93945 C 9.20898 -7.93945 8.80859 -7.59766 8.80859 -7.02148 C 8.80859 -6.46484 9.23828 -6.13281 9.82422 -6.13281 L 14.0625 -6.13281 L 14.0625 -2.06055 C 14.0625 -1.47461 14.3848 -1.06445 14.9414 -1.06445 Z"/>
  </g>
  <text style="stroke:none;fill:black;font-family:-apple-system,&quot;SF Pro Display&quot;,&quot;SF Pro Text&quot;,Helvetica,sans-serif;font-weight:bold;" transform="matrix(1 0 0 1 263 1953)">Design Variations</text>
  <text style="stroke:none;fill:black;font-family:-apple-system,&quot;SF Pro Display&quot;,&quot;SF Pro Text&quot;,Helvetica,sans-serif;" transform="matrix(1 0 0 1 263 1971)">Symbols are supported in up to nine weights and three scales.</text>
  <text style="stroke:none;fill:black;font-family:-apple-system,&quot;SF Pro Display&quot;,&quot;SF Pro Text&quot;,Helvetica,sans-serif;" transform="matrix(1 0 0 1 263 1989)">For optimal layout with text and other symbols, vertically align</text>
  <text style="stroke:none;fill:black;font-family:-apple-system,&quot;SF Pro Display&quot;,&quot;SF Pro Text&quot;,Helvetica,sans-serif;" transform="matrix(1 0 0 1 263 2007)">symbols with the adjacent text.</text>
  <rect height="14" id="" style="fill:#00AEEF;stroke:none;opacity:0.4;" width="3" x="776" y="1919"/>
  <g id="" transform="matrix(1 0 0 1 779 1933)">
   <path d="M 10.5273 0 L 12.373 0 L 7.17773 -14.0918 L 5.43945 -14.0918 L 0.244141 0 L 2.08984 0 L 3.50586 -4.0332 L 9.11133 -4.0332 Z M 6.2793 -11.9531 L 6.33789 -11.9531 L 8.59375 -5.52734 L 4.02344 -5.52734 Z"/>
  </g>
  <rect height="14" id="" style="fill:#00AEEF;stroke:none;opacity:0.4;" width="3" x="791.617" y="1919"/>
  <text style="stroke:none;fill:black;font-family:-apple-system,&quot;SF Pro Display&quot;,&quot;SF Pro Text&quot;,Helvetica,sans-serif;font-weight:bold;" transform="matrix(1 0 0 1 776 1953)">Side Bearings</text>
  <text style="stroke:none;fill:black;font-family:-apple-system,&quot;SF Pro Display&quot;,&quot;SF Pro Text&quot;,Helvetica,sans-serif;" transform="matrix(1 0 0 1 776 1971)">Horizontal padding on the left and right side of each symbol</text>
  <text style="stroke:none;fill:black;font-family:-apple-system,&quot;SF Pro Display&quot;,&quot;SF Pro Text&quot;,Helvetica,sans-serif;" transform="matrix(1 0 0 1 776 1989)">can be adjusted by modifying the width of the blue rectangles.</text>
  <text style="stroke:none;fill:black;font-family:-apple-system,&quot;SF Pro Display&quot;,&quot;SF Pro Text&quot;,Helvetica,sans-serif;" transform="matrix(1 0 0 1 776 2007)">Modifications are automatically applied proportionally to all</text>
  <text style="stroke:none;fill:black;font-family:-apple-system,&quot;SF Pro Display&quot;,&quot;SF Pro Text&quot;,Helvetica,sans-serif;" transform="matrix(1 0 0 1 776 2025)">scales and weights.</text>
  <g id="" transform="matrix(1 0 0 1 1289 1933)">
   <path d="M 2.96875 2.35352 L 3.80859 3.19336 C 4.84375 4.22852 6.12305 4.15039 7.19727 2.97852 L 16.1621 -6.82617 C 16.5527 -6.74805 16.9629 -6.8457 17.4902 -7.02148 C 18.1738 -7.25586 18.2715 -7.25586 18.3887 -7.13867 C 18.5352 -7.01172 18.4863 -6.89453 18.2422 -6.25 C 17.8809 -5.33203 17.8125 -4.79492 18.5547 -4.02344 L 19.4238 -3.13477 C 20.2734 -2.24609 21.3281 -2.26562 22.2168 -3.14453 L 25.0586 -5.97656 C 25.9473 -6.86523 25.957 -7.92969 25.0781 -8.7793 L 24.1797 -9.64844 C 23.4082 -10.4004 22.8711 -10.3516 21.9629 -9.98047 C 21.3184 -9.72656 21.2012 -9.6875 21.0645 -9.81445 C 20.9375 -9.93164 20.9473 -10.0391 21.1816 -10.7129 C 21.5332 -11.6895 21.5723 -12.2852 20.752 -13.0957 L 19.3359 -14.5117 C 15.1953 -18.6133 11.2305 -18.7402 7.65625 -15.4395 C 7.08008 -14.9023 6.99219 -14.1504 7.53906 -13.6133 L 7.79297 -13.3594 C 8.22266 -12.9297 8.86719 -12.8418 9.41406 -13.1152 C 11.0645 -13.9453 12.2559 -14.0234 13.457 -12.9785 L 13.0273 -11.416 C 12.8516 -10.8008 12.793 -10.3418 12.9199 -9.93164 L 3.18359 -1.04492 C 2.02148 0.0292969 1.93359 1.32812 2.96875 2.35352 Z M 8.96484 -14.4922 C 8.89648 -14.5703 8.86719 -14.6582 8.99414 -14.7559 C 11.709 -17.2852 15.0391 -16.8457 18.3496 -13.5254 L 19.6973 -12.168 C 20.0879 -11.7773 20.0977 -11.582 19.8828 -10.8691 C 19.6582 -10.127 19.502 -9.53125 20.1465 -8.88672 C 20.8105 -8.22266 21.2891 -8.41797 22.207 -8.63281 C 22.9004 -8.79883 23.0664 -8.79883 23.4473 -8.41797 L 24.0918 -7.77344 C 24.4043 -7.48047 24.4141 -7.32422 24.0723 -6.97266 L 21.2207 -4.13086 C 20.8887 -3.79883 20.7227 -3.79883 20.4297 -4.10156 L 19.7852 -4.75586 C 19.4141 -5.13672 19.4141 -5.30273 19.5801 -6.01562 C 19.7852 -6.88477 19.9805 -7.38281 19.3262 -8.04688 C 18.6719 -8.7207 18.0762 -8.57422 17.3438 -8.33008 C 16.5625 -8.06641 16.3281 -8.06641 15.8984 -8.49609 L 14.6094 -9.78516 C 14.1699 -10.2246 14.1309 -10.4395 14.2676 -10.9082 L 15.0293 -13.3984 C 13.3887 -15.2832 11.4941 -15.5566 9.20898 -14.4434 C 9.11133 -14.3945 9.04297 -14.4141 8.96484 -14.4922 Z M 3.96484 1.36719 C 3.52539 0.927734 3.54492 0.537109 4.14062 -0.00976562 L 13.7402 -8.81836 L 15 -7.55859 L 6.17188 2.02148 C 5.625 2.60742 5.24414 2.64648 4.79492 2.19727 Z"/>
  </g>
  <text style="stroke:none;fill:black;font-family:-apple-system,&quot;SF Pro Display&quot;,&quot;SF Pro Text&quot;,Helvetica,sans-serif;font-weight:bold;" transform="matrix(1 0 0 1 1289 1953)">Exporting</text>
  <text style="stroke:none;fill:black;font-family:-apple-system,&quot;SF Pro Display&quot;,&quot;SF Pro Text&quot;,Helvetica,sans-serif;" transform="matrix(1 0 0 1 1289 1971)">Symbols should be outlined when exporting to ensure the</text>
  <text style="stroke:none;fill:black;font-family:-apple-system,&quot;SF Pro Display&quot;,&quot;SF Pro Text&quot;,Helvetica,sans-serif;" transform="matrix(1 0 0 1 1289 1989)">design is preserved when submitting to Xcode.</text>
  <text id="template-version" style="stroke:none;fill:black;font-family:-apple-system,&quot;SF Pro Display&quot;,&quot;SF Pro Text&quot;,Helvetica,sans-serif;text-anchor:end;" transform="matrix(1 0 0 1 3036 1933)">Template v.0.1</text>
  <text style="stroke:none;fill:black;font-family:-apple-system,&quot;SF Pro Display&quot;,&quot;SF Pro Text&quot;,Helvetica,sans-serif;text-anchor:end;" transform="matrix(1 0 0 1 3036 1951)">Generated from 22.circle</text>
  <text style="stroke:none;fill:black;font-family:-apple-system,&quot;SF Pro Display&quot;,&quot;SF Pro Text&quot;,Helvetica,sans-serif;text-anchor:end;" transform="matrix(1 0 0 1 3036 1969)">Typeset at 100 points</text>
  <text style="stroke:none;fill:black;font-family:-apple-system,&quot;SF Pro Display&quot;,&quot;SF Pro Text&quot;,Helvetica,sans-serif;" transform="matrix(1 0 0 1 263 726)">Small</text>
  <text style="stroke:none;fill:black;font-family:-apple-system,&quot;SF Pro Display&quot;,&quot;SF Pro Text&quot;,Helvetica,sans-serif;" transform="matrix(1 0 0 1 263 1156)">Medium</text>
  <text style="stroke:none;fill:black;font-family:-apple-system,&quot;SF Pro Display&quot;,&quot;SF Pro Text&quot;,Helvetica,sans-serif;" transform="matrix(1 0 0 1 263 1586)">Large</text>
 </g>
 <g id="Guides">
  <g id="H-reference" style="fill:#27AAE1;stroke:none;" transform="matrix(1 0 0 1 339 696)">
   <path d="M 54.9316 0 L 57.666 0 L 30.5664 -70.459 L 28.0762 -70.459 L 0.976562 0 L 3.66211 0 L 12.9395 -24.4629 L 45.7031 -24.4629 Z M 29.1992 -67.0898 L 29.4434 -67.0898 L 44.8242 -26.709 L 13.8184 -26.709 Z"/>
  </g>
  <line id="Baseline-S" style="fill:none;stroke:#27AAE1;opacity:1;stroke-width:0.577;" x1="263" x2="3036" y1="696" y2="696"/>
  <line id="Capline-S" style="fill:none;stroke:#27AAE1;opacity:1;stroke-width:0.577;" x1="263" x2="3036" y1="625.541" y2="625.541"/>
  <g id="H-reference" style="fill:#27AAE1;stroke:none;" transform="matrix(1 0 0 1 339 1126)">
   <path d="M 54.9316 0 L 57.666 0 L 30.5664 -70.459 L 28.0762 -70.459 L 0.976562 0 L 3.66211 0 L 12.9395 -24.4629 L 45.7031 -24.4629 Z M 29.1992 -67.0898 L 29.4434 -67.0898 L 44.8242 -26.709 L 13.8184 -26.709 Z"/>
  </g>
  <line id="Baseline-M" style="fill:none;stroke:#27AAE1;opacity:1;stroke-width:0.577;" x1="263" x2="3036" y1="1126" y2="1126"/>
  <line id="Capline-M" style="fill:none;stroke:#27AAE1;opacity:1;stroke-width:0.577;" x1="263" x2="3036" y1="1055.54" y2="1055.54"/>
  <g id="H-reference" style="fill:#27AAE1;stroke:none;" transform="matrix(1 0 0 1 339 1556)">
   <path d="M 54.9316 0 L 57.666 0 L 30.5664 -70.459 L 28.0762 -70.459 L 0.976562 0 L 3.66211 0 L 12.9395 -24.4629 L 45.7031 -24.4629 Z M 29.1992 -67.0898 L 29.4434 -67.0898 L 44.8242 -26.709 L 13.8184 -26.709 Z"/>
  </g>
  <line id="Baseline-L" style="fill:none;stroke:#27AAE1;opacity:1;stroke-width:0.577;" x1="263" x2="3036" y1="1556" y2="1556"/>
  <line id="Capline-L" style="fill:none;stroke:#27AAE1;opacity:1;stroke-width:0.577;" x1="263" x2="3036" y1="1485.54" y2="1485.54"/>
  <rect height="119.336" id="left-margin" style="fill:#00AEEF;stroke:none;opacity:0.4;" width="8.74023" x="1391.32" y="1030.79"/>
  <rect height="119.336" id="right-margin" style="fill:#00AEEF;stroke:none;opacity:0.4;" width="8.69141" x="1499.67" y="1030.79"/>
 </g>
 <g id="Symbols">
  <g id="Ultralight-S" transform="matrix(1 0 0 1 515.644 696)">
   <path d="M 44.043 2.05078 C 64.502 2.05078 81.2988 -14.6973 81.2988 -35.1562 C 81.2988 -55.6152 64.502 -72.3633 44.043 -72.3633 C 23.584 -72.3633 6.83594 -55.6152 6.83594 -35.1562 C 6.83594 -14.6973 23.584 2.05078 44.043 2.05078 Z M 44.043 -0.146484 C 24.7559 -0.146484 9.08203 -15.8691 9.08203 -35.1562 C 9.08203 -54.4434 24.7559 -70.166 44.043 -70.166 C 63.3789 -70.166 79.0527 -54.4434 79.0527 -35.1562 C 79.0527 -15.8691 63.3789 -0.146484 44.043 -0.146484 Z M 48.8281 -18.3105 L 67.5293 -18.3105 C 68.1641 -18.3105 68.6035 -18.75 68.6035 -19.3848 C 68.6035 -20.0195 68.1641 -20.4102 67.5293 -20.4102 L 50.7812 -20.4102 L 50.7812 -20.6055 L 62.1582 -33.252 C 66.1133 -37.5977 67.5781 -40.332 67.5781 -43.5547 C 67.5781 -48.9746 63.6719 -52.4902 57.6172 -52.4902 C 52.3926 -52.4902 48.0469 -49.2676 47.2656 -44.7754 C 47.168 -44.3848 47.1191 -44.0918 47.1191 -43.75 C 47.1191 -43.0664 47.5586 -42.5781 48.2422 -42.5781 C 48.9746 -42.5781 49.3164 -42.9688 49.3652 -43.6035 C 49.6582 -47.5586 53.0762 -50.3906 57.666 -50.3906 C 62.3535 -50.3906 65.332 -47.7051 65.332 -43.6035 C 65.332 -40.8203 64.0625 -38.4277 61.2305 -35.2539 L 47.998 -20.5566 C 47.6562 -20.166 47.5586 -19.9219 47.5586 -19.4824 C 47.5586 -18.75 48.0469 -18.3105 48.8281 -18.3105 Z M 22.0215 -18.3105 L 40.7715 -18.3105 C 41.3574 -18.3105 41.7969 -18.75 41.7969 -19.3848 C 41.7969 -20.0195 41.3574 -20.4102 40.7715 -20.4102 L 24.0234 -20.4102 L 24.0234 -20.6055 L 35.4004 -33.252 C 39.3066 -37.5977 40.7715 -40.332 40.7715 -43.5547 C 40.7715 -48.9746 36.8652 -52.4902 30.8594 -52.4902 C 25.5859 -52.4902 21.2402 -49.2676 20.459 -44.7754 C 20.4102 -44.3848 20.3613 -44.0918 20.3613 -43.75 C 20.3613 -43.0664 20.752 -42.5781 21.4355 -42.5781 C 22.168 -42.5781 22.5098 -42.9688 22.6074 -43.6035 C 22.9004 -47.5586 26.2695 -50.3906 30.8594 -50.3906 C 35.5469 -50.3906 38.5254 -47.7051 38.5254 -43.6035 C 38.5254 -40.8203 37.3047 -38.4277 34.4238 -35.2539 L 21.1914 -20.5566 C 20.8984 -20.166 20.8008 -19.9219 20.8008 -19.4824 C 20.8008 -18.75 21.2402 -18.3105 22.0215 -18.3105 Z"/>
  </g>
  <g id="Thin-S" transform="matrix(1 0 0 1 811.867 696)">
   <path d="M 44.5801 2.53906 C 65.2832 2.53906 82.2754 -14.4531 82.2754 -35.2051 C 82.2754 -55.9082 65.2344 -72.9004 44.5312 -72.9004 C 23.8281 -72.9004 6.83594 -55.9082 6.83594 -35.2051 C 6.83594 -14.4531 23.877 2.53906 44.5801 2.53906 Z M 44.5801 -0.878906 C 25.5859 -0.878906 10.2539 -16.2109 10.2539 -35.2051 C 10.2539 -54.1504 25.5859 -69.4824 44.5312 -69.4824 C 63.5254 -69.4824 78.8574 -54.1504 78.8574 -35.2051 C 78.8574 -16.2109 63.5254 -0.878906 44.5801 -0.878906 Z M 49.3652 -18.5059 L 67.5781 -18.5059 C 68.4082 -18.5059 68.9941 -19.0918 68.9941 -19.9219 C 68.9941 -20.8008 68.4082 -21.3379 67.5781 -21.3379 L 52.1484 -21.3379 L 52.1484 -21.5332 L 62.6465 -33.3008 C 66.3086 -37.3535 68.0176 -40.1855 68.0176 -43.6523 C 68.0176 -49.1211 64.0137 -52.6367 57.9102 -52.6367 C 52.7832 -52.6367 48.4375 -49.4629 47.6074 -45.1172 C 47.5098 -44.6777 47.4609 -44.3359 47.4609 -43.9453 C 47.4609 -43.0176 47.998 -42.4316 48.877 -42.4316 C 49.707 -42.4316 50.1465 -42.8711 50.3418 -43.7012 C 50.8301 -47.4121 53.8574 -49.8535 57.959 -49.8535 C 62.2559 -49.8535 64.9902 -47.3633 64.9902 -43.5547 C 64.9902 -40.7715 63.5254 -38.4277 60.9375 -35.498 L 48.3398 -21.3867 C 47.9492 -20.8984 47.8027 -20.5078 47.8027 -20.0195 C 47.8027 -19.0918 48.3887 -18.5059 49.3652 -18.5059 Z M 22.8516 -18.5059 L 41.1133 -18.5059 C 41.8945 -18.5059 42.4805 -19.0918 42.4805 -19.9219 C 42.4805 -20.8008 41.8945 -21.3379 41.1133 -21.3379 L 25.6836 -21.3379 L 25.6836 -21.5332 L 36.1328 -33.3008 C 39.8438 -37.3535 41.5039 -40.1855 41.5039 -43.6523 C 41.5039 -49.1211 37.5488 -52.6367 31.3965 -52.6367 C 26.2695 -52.6367 21.9727 -49.4629 21.0938 -45.1172 C 21.0449 -44.6777 20.9473 -44.3359 20.9473 -43.9453 C 20.9473 -43.0176 21.4844 -42.4316 22.3633 -42.4316 C 23.1934 -42.4316 23.6328 -42.8711 23.8281 -43.7012 C 24.3164 -47.4121 27.3438 -49.8535 31.4941 -49.8535 C 35.791 -49.8535 38.5254 -47.3633 38.5254 -43.5547 C 38.5254 -40.7715 37.0605 -38.4277 34.4238 -35.498 L 21.875 -21.3867 C 21.4844 -20.8984 21.3379 -20.5078 21.3379 -20.0195 C 21.3379 -19.0918 21.9238 -18.5059 22.8516 -18.5059 Z"/>
  </g>
  <g id="Light-S" transform="matrix(1 0 0 1 1107.6 696)">
   <path d="M 45.5078 3.4668 C 66.6992 3.4668 84.2285 -14.0625 84.2285 -35.2051 C 84.2285 -56.3965 66.6504 -73.9258 45.5078 -73.9258 C 24.3164 -73.9258 6.83594 -56.3965 6.83594 -35.2051 C 6.83594 -14.0625 24.3652 3.4668 45.5078 3.4668 Z M 45.5078 -2.24609 C 27.2461 -2.24609 12.5977 -16.9434 12.5977 -35.2051 C 12.5977 -53.5156 27.1973 -68.2129 45.5078 -68.2129 C 63.7695 -68.2129 78.4668 -53.5156 78.5156 -35.2051 C 78.5156 -16.9434 63.8184 -2.24609 45.5078 -2.24609 Z M 50.4395 -18.8477 L 67.6758 -18.8477 C 68.8477 -18.8477 69.7266 -19.6777 69.7266 -20.9961 C 69.7266 -22.3145 68.8477 -23.0957 67.6758 -23.0957 L 54.834 -23.0957 L 54.834 -23.3398 L 63.5254 -33.3008 C 66.748 -36.9629 68.7988 -39.8926 68.7988 -43.7988 C 68.7988 -49.3652 64.7461 -52.9785 58.3984 -52.9785 C 53.5156 -52.9785 49.2188 -49.9023 48.2422 -45.6543 C 48.1445 -45.166 48.0469 -44.7754 48.0469 -44.2871 C 48.0469 -43.0176 48.8281 -42.1387 50.0977 -42.1387 C 51.1719 -42.1387 51.709 -42.7246 52.1484 -43.8477 C 53.0273 -47.0703 55.3223 -48.8281 58.5938 -48.8281 C 62.1094 -48.8281 64.4531 -46.6797 64.4531 -43.457 C 64.4531 -40.7715 62.5 -38.3789 60.3516 -35.9863 L 49.0723 -22.9492 C 48.5352 -22.3145 48.291 -21.6797 48.291 -20.9961 C 48.291 -19.6777 49.0723 -18.8477 50.4395 -18.8477 Z M 24.5117 -18.8477 L 41.7969 -18.8477 C 42.9199 -18.8477 43.7988 -19.6777 43.7988 -20.9961 C 43.7988 -22.3145 42.9199 -23.0957 41.7969 -23.0957 L 28.9062 -23.0957 L 28.9062 -23.3398 L 37.6465 -33.3008 C 40.8203 -36.9629 42.9199 -39.8926 42.9199 -43.7988 C 42.9199 -49.3652 38.8184 -52.9785 32.5195 -52.9785 C 27.6367 -52.9785 23.291 -49.9023 22.3145 -45.6543 C 22.2168 -45.166 22.1191 -44.7754 22.1191 -44.2871 C 22.1191 -43.0176 22.9004 -42.1387 24.1699 -42.1387 C 25.2441 -42.1387 25.7812 -42.7246 26.2207 -43.8477 C 27.1484 -47.0703 29.4434 -48.8281 32.7148 -48.8281 C 36.2305 -48.8281 38.5254 -46.6797 38.5254 -43.457 C 38.5254 -40.7715 36.5723 -38.3789 34.4727 -35.9863 L 23.1445 -22.9492 C 22.6074 -22.3145 22.3633 -21.6797 22.3633 -20.9961 C 22.3633 -19.6777 23.1934 -18.8477 24.5117 -18.8477 Z"/>
  </g>
  <g id="Regular-S" transform="matrix(1 0 0 1 1403.58 696)">
   <path d="M 46.2402 4.15039 C 67.7734 4.15039 85.6934 -13.7207 85.6934 -35.2539 C 85.6934 -56.7871 67.7246 -74.6582 46.1914 -74.6582 C 24.707 -74.6582 6.83594 -56.7871 6.83594 -35.2539 C 6.83594 -13.7207 24.7559 4.15039 46.2402 4.15039 Z M 46.2402 -3.27148 C 28.5156 -3.27148 14.3555 -17.4805 14.3555 -35.2539 C 14.3555 -53.0273 28.4668 -67.2363 46.1914 -67.2363 C 63.9648 -67.2363 78.1738 -53.0273 78.2227 -35.2539 C 78.2715 -17.4805 64.0137 -3.27148 46.2402 -3.27148 Z M 51.2207 -19.0918 L 67.7734 -19.0918 C 69.1895 -19.0918 70.2637 -20.1172 70.2637 -21.7773 C 70.2637 -23.4863 69.1895 -24.4141 67.7734 -24.4141 L 56.8359 -24.4141 L 56.8359 -24.707 L 64.2578 -33.3496 C 67.041 -36.6211 69.4336 -39.6973 69.4336 -43.8965 C 69.4336 -49.5605 65.2832 -53.2227 58.8379 -53.2227 C 54.1016 -53.2227 49.8047 -50.1953 48.7305 -46.0938 C 48.584 -45.6055 48.4863 -45.1172 48.4863 -44.5801 C 48.4863 -42.9688 49.4629 -41.8945 51.0254 -41.8945 C 52.2461 -41.8945 52.9297 -42.627 53.5156 -43.9941 C 54.7363 -46.8262 56.4941 -48.0469 59.082 -48.0469 C 62.0117 -48.0469 64.0137 -46.1914 64.0137 -43.3594 C 64.0137 -40.7227 61.7188 -38.3789 59.9609 -36.3281 L 49.6094 -24.1699 C 48.9258 -23.3887 48.6328 -22.6074 48.6328 -21.7285 C 48.6328 -20.1172 49.6094 -19.0918 51.2207 -19.0918 Z M 25.7812 -19.0918 L 42.2852 -19.0918 C 43.7012 -19.0918 44.7754 -20.1172 44.7754 -21.7773 C 44.7754 -23.4863 43.7012 -24.4141 42.2852 -24.4141 L 31.3477 -24.4141 L 31.3477 -24.707 L 38.7695 -33.3496 C 41.5527 -36.6211 43.9453 -39.6973 43.9453 -43.8965 C 43.9453 -49.5605 39.7949 -53.2227 33.3496 -53.2227 C 28.6133 -53.2227 24.3164 -50.1953 23.291 -46.0938 C 23.1445 -45.6055 23.0469 -45.1172 23.0469 -44.5801 C 23.0469 -42.9688 23.9746 -41.8945 25.5371 -41.8945 C 26.7578 -41.8945 27.4414 -42.627 28.0273 -43.9941 C 29.248 -46.8262 31.0059 -48.0469 33.6426 -48.0469 C 36.5723 -48.0469 38.5254 -46.1914 38.5254 -43.3594 C 38.5254 -40.7227 36.2305 -38.3789 34.4727 -36.3281 L 24.1211 -24.1699 C 23.4863 -23.3887 23.1445 -22.6074 23.1445 -21.7285 C 23.1445 -20.1172 24.1699 -19.0918 25.7812 -19.0918 Z"/>
  </g>
  <g id="Medium-S" transform="matrix(1 0 0 1 1699.7 696)">
   <path d="M 46.8262 4.78516 C 68.75 4.78516 86.8652 -13.3301 86.8652 -35.2539 C 86.8652 -57.1289 68.7012 -75.2441 46.8262 -75.2441 C 24.9023 -75.2441 6.83594 -57.1289 6.83594 -35.2539 C 6.83594 -13.3301 24.9512 4.78516 46.8262 4.78516 Z M 46.8262 -4.19922 C 29.6387 -4.19922 15.8691 -18.0176 15.8691 -35.2539 C 15.8691 -52.4414 29.5898 -66.2598 46.8262 -66.2598 C 64.0137 -66.2598 77.832 -52.4414 77.8809 -35.2539 C 77.8809 -18.0176 64.0625 -4.19922 46.8262 -4.19922 Z M 52.002 -19.1895 L 67.5781 -19.1895 C 69.2871 -19.1895 70.5078 -20.3613 70.5078 -22.2168 C 70.5078 -24.1211 69.2871 -25.1953 67.5781 -25.1953 L 58.0566 -25.1953 L 58.0566 -25.4883 L 64.5508 -33.0078 C 67.4316 -36.377 69.6289 -39.4043 69.6289 -43.457 C 69.6289 -49.1211 65.5762 -52.832 59.1797 -52.832 C 54.4434 -52.832 50.2441 -49.9023 49.1699 -45.8008 C 48.9746 -45.2148 48.877 -44.6777 48.877 -44.043 C 48.877 -42.334 50 -41.1621 51.6602 -41.1621 C 53.125 -41.1621 53.9062 -41.9922 54.4434 -43.3594 C 55.4688 -45.8496 57.0312 -46.9727 59.3262 -46.9727 C 61.9141 -46.9727 63.623 -45.3125 63.623 -42.9199 C 63.623 -40.4785 61.6211 -38.3789 59.8145 -36.2793 L 50.3418 -25.293 C 49.4629 -24.2676 49.0723 -23.291 49.0723 -22.168 C 49.0723 -20.4102 50.1953 -19.1895 52.002 -19.1895 Z M 27.0996 -19.1895 L 42.7246 -19.1895 C 44.4336 -19.1895 45.6055 -20.3613 45.6055 -22.2168 C 45.6055 -24.1211 44.4336 -25.1953 42.7246 -25.1953 L 33.1543 -25.1953 L 33.1543 -25.4883 L 39.6484 -33.0078 C 42.5293 -36.377 44.7754 -39.4043 44.7266 -43.457 C 44.7754 -49.1211 40.6738 -52.832 34.3262 -52.832 C 29.5898 -52.832 25.3418 -49.9023 24.2676 -45.8008 C 24.0723 -45.2148 23.9746 -44.6777 23.9746 -44.043 C 23.9746 -42.334 25.0977 -41.1621 26.7578 -41.1621 C 28.2227 -41.1621 29.0039 -41.9922 29.5898 -43.3594 C 30.6152 -45.8496 32.1289 -46.9727 34.4238 -46.9727 C 37.0117 -46.9727 38.7695 -45.3125 38.7695 -42.9199 C 38.7695 -40.4785 36.7188 -38.3789 34.9121 -36.2793 L 25.4883 -25.293 C 24.5605 -24.2676 24.1699 -23.291 24.1699 -22.168 C 24.1699 -20.4102 25.293 -19.1895 27.0996 -19.1895 Z"/>
  </g>
  <g id="Semibold-S" transform="matrix(1 0 0 1 1995.98 696)">
   <path d="M 47.3145 5.22461 C 69.4824 5.22461 87.7441 -13.0371 87.7441 -35.2539 C 87.7441 -57.4219 69.4336 -75.6836 47.2656 -75.6836 C 25.0977 -75.6836 6.83594 -57.4219 6.83594 -35.2539 C 6.83594 -13.0371 25.0977 5.22461 47.3145 5.22461 Z M 47.3145 -4.93164 C 30.4688 -4.93164 17.041 -18.4082 17.041 -35.2539 C 17.041 -52.0508 30.4688 -65.5273 47.2656 -65.5273 C 64.0625 -65.5273 77.5879 -52.0508 77.5879 -35.2539 C 77.6367 -18.4082 64.1113 -4.93164 47.3145 -4.93164 Z M 52.5879 -19.2383 L 67.4805 -19.2383 C 69.3848 -19.2383 70.7031 -20.5078 70.7031 -22.5586 C 70.7031 -24.6582 69.3848 -25.8301 67.4805 -25.8301 L 58.9844 -25.8301 L 58.9844 -26.123 L 64.7461 -32.8125 C 67.7246 -36.1816 69.8242 -39.209 69.7754 -43.1641 C 69.8242 -48.7305 65.7715 -52.5391 59.4727 -52.5391 C 54.7363 -52.5391 50.5859 -49.6582 49.4629 -45.5566 C 49.2676 -44.9219 49.1699 -44.3359 49.1699 -43.6035 C 49.1699 -41.7969 50.4395 -40.625 52.1484 -40.625 C 53.7598 -40.625 54.6387 -41.5039 55.1758 -42.9199 C 56.0547 -45.1172 57.4707 -46.1914 59.5215 -46.1914 C 61.7676 -46.1914 63.3789 -44.6777 63.3789 -42.5293 C 63.3789 -40.2832 61.5723 -38.3789 59.7168 -36.2793 L 50.9277 -26.123 C 49.8047 -24.9023 49.4141 -23.8281 49.4141 -22.5098 C 49.4141 -20.6543 50.6348 -19.2383 52.5879 -19.2383 Z M 28.125 -19.2383 L 43.0176 -19.2383 C 44.9219 -19.2383 46.2402 -20.5078 46.2402 -22.5586 C 46.2402 -24.6582 44.9219 -25.8301 43.0176 -25.8301 L 34.5703 -25.8301 L 34.5703 -26.123 L 40.332 -32.8125 C 43.2617 -36.1816 45.3613 -39.209 45.3613 -43.1641 C 45.3613 -48.7305 41.3574 -52.5391 35.0586 -52.5391 C 30.2734 -52.5391 26.123 -49.6582 25 -45.5566 C 24.8535 -44.9219 24.7559 -44.3359 24.7559 -43.6035 C 24.7559 -41.7969 25.9766 -40.625 27.7344 -40.625 C 29.3457 -40.625 30.1758 -41.5039 30.7129 -42.9199 C 31.5918 -45.1172 33.0078 -46.1914 35.0586 -46.1914 C 37.3535 -46.1914 38.916 -44.6777 38.916 -42.5293 C 38.916 -40.2832 37.1094 -38.3789 35.2539 -36.2793 L 26.4648 -26.123 C 25.3906 -24.9023 24.9512 -23.8281 24.9512 -22.5098 C 24.9512 -20.6543 26.1719 -19.2383 28.125 -19.2383 Z"/>
  </g>
  <g id="Bold-S" transform="matrix(1 0 0 1 2292.1 696)">
   <path d="M 47.9004 5.81055 C 70.4102 5.81055 88.916 -12.6465 88.916 -35.2051 C 88.916 -57.7637 70.4102 -76.2695 47.8516 -76.2695 C 25.293 -76.2695 6.83594 -57.7637 6.83594 -35.2051 C 6.83594 -12.6465 25.3418 5.81055 47.9004 5.81055 Z M 47.9004 -5.85938 C 31.6406 -5.85938 18.5547 -18.9453 18.5547 -35.2051 C 18.5547 -51.4648 31.5918 -64.5508 47.8516 -64.5508 C 64.1113 -64.5508 77.1973 -51.4648 77.2461 -35.2051 C 77.2461 -18.9453 64.1602 -5.85938 47.9004 -5.85938 Z M 53.3691 -19.3359 L 67.2852 -19.3359 C 69.5312 -19.3359 70.9473 -20.7031 70.9473 -22.998 C 70.9473 -25.293 69.5312 -26.6113 67.2852 -26.6113 L 60.2539 -26.6113 L 60.2539 -26.9043 L 65.0879 -32.4707 C 68.1152 -35.9375 70.0195 -38.9648 70.0195 -42.7734 C 70.0195 -48.291 66.0645 -52.1484 59.8633 -52.1484 C 55.127 -52.1484 51.0254 -49.3652 49.8535 -45.2148 C 49.6582 -44.5312 49.5605 -43.8477 49.5605 -43.0664 C 49.5605 -41.1133 50.9766 -39.8926 52.832 -39.8926 C 54.6387 -39.8926 55.6152 -40.8691 56.1523 -42.334 C 56.8359 -44.1406 58.0078 -45.1172 59.7168 -45.1172 C 61.6699 -45.1172 63.0371 -43.8477 63.0371 -42.041 C 63.0371 -40.0391 61.4746 -38.4277 59.5703 -36.2305 L 51.709 -27.2949 C 50.3418 -25.7812 49.8535 -24.5605 49.8535 -22.9492 C 49.8535 -20.9473 51.2207 -19.3359 53.3691 -19.3359 Z M 29.541 -19.3359 L 43.4082 -19.3359 C 45.6543 -19.3359 47.0703 -20.7031 47.0703 -22.998 C 47.0703 -25.293 45.6543 -26.6113 43.4082 -26.6113 L 36.377 -26.6113 L 36.377 -26.9043 L 41.2109 -32.4707 C 44.2383 -35.9375 46.1914 -38.9648 46.1426 -42.7734 C 46.1914 -48.291 42.2363 -52.1484 36.0352 -52.1484 C 31.25 -52.1484 27.1484 -49.3652 26.0254 -45.2148 C 25.7812 -44.5312 25.6836 -43.8477 25.6836 -43.0664 C 25.6836 -41.1133 27.0996 -39.8926 28.9551 -39.8926 C 30.7617 -39.8926 31.7383 -40.8691 32.2754 -42.334 C 32.959 -44.1406 34.1309 -45.1172 35.8398 -45.1172 C 37.793 -45.1172 39.1602 -43.8477 39.1602 -42.041 C 39.1602 -40.0391 37.5977 -38.4277 35.6934 -36.2305 L 27.832 -27.2949 C 26.4648 -25.7812 25.9766 -24.5605 25.9766 -22.9492 C 25.9766 -20.9473 27.3438 -19.3359 29.541 -19.3359 Z"/>
  </g>
  <g id="Heavy-S" transform="matrix(1 0 0 1 2587.96 696)">
   <path d="M 48.7305 6.68945 C 71.8262 6.68945 90.625 -12.1094 90.625 -35.2051 C 90.625 -58.3008 71.8262 -77.0996 48.7305 -77.0996 C 25.6348 -77.0996 6.83594 -58.3008 6.83594 -35.2051 C 6.83594 -12.1094 25.6348 6.68945 48.7305 6.68945 Z M 48.7305 -7.22656 C 33.3008 -7.22656 20.752 -19.7266 20.752 -35.2051 C 20.752 -50.6836 33.3008 -63.1836 48.7305 -63.1836 C 64.209 -63.1836 76.709 -50.6836 76.709 -35.2051 C 76.709 -19.7266 64.209 -7.22656 48.7305 -7.22656 Z M 54.541 -19.4824 L 67.041 -19.4824 C 69.6777 -19.4824 71.2891 -20.9961 71.2891 -23.6328 C 71.2891 -26.2695 69.6777 -27.7344 67.041 -27.7344 L 62.0605 -27.7344 L 62.0605 -28.0762 L 65.5273 -32.0312 C 68.7012 -35.5957 70.3613 -38.5742 70.3125 -42.1875 C 70.3613 -47.6074 66.5039 -51.6113 60.4492 -51.6113 C 55.6641 -51.6113 51.6602 -48.877 50.4883 -44.7266 C 50.2441 -43.9453 50.1465 -43.2129 50.1465 -42.2363 C 50.1465 -40.1367 51.7578 -38.8184 53.8086 -38.8184 C 55.9082 -38.8184 57.0312 -39.9414 57.5195 -41.4551 C 57.9102 -42.6758 58.8379 -43.5547 60.0586 -43.5547 C 61.4258 -43.5547 62.5 -42.5781 62.5 -41.3574 C 62.5 -39.6973 61.377 -38.4277 59.375 -36.1816 L 52.7832 -28.9551 C 51.0742 -27.002 50.5371 -25.5859 50.5371 -23.584 C 50.5371 -21.3379 52.0508 -19.4824 54.541 -19.4824 Z M 31.4941 -19.4824 L 44.043 -19.4824 C 46.6797 -19.4824 48.2422 -20.9961 48.2422 -23.6328 C 48.2422 -26.2695 46.6797 -27.7344 44.043 -27.7344 L 39.0137 -27.7344 L 39.0137 -28.0762 L 42.4805 -32.0312 C 45.6543 -35.5957 47.3145 -38.5742 47.3145 -42.1875 C 47.3145 -47.6074 43.457 -51.6113 37.4023 -51.6113 C 32.6172 -51.6113 28.6133 -48.877 27.4414 -44.7266 C 27.1973 -43.9453 27.0996 -43.2129 27.0996 -42.2363 C 27.0996 -40.1367 28.7598 -38.8184 30.7617 -38.8184 C 32.9102 -38.8184 33.9844 -39.9414 34.4727 -41.4551 C 34.9121 -42.6758 35.791 -43.5547 37.0605 -43.5547 C 38.4277 -43.5547 39.502 -42.5781 39.502 -41.3574 C 39.502 -39.6973 38.3301 -38.4277 36.3281 -36.1816 L 29.7363 -28.9551 C 28.0273 -27.002 27.4902 -25.5859 27.4902 -23.584 C 27.4902 -21.3379 29.0527 -19.4824 31.4941 -19.4824 Z"/>
  </g>
  <g id="Black-S" transform="matrix(1 0 0 1 2883.89 696)">
   <path d="M 49.5117 7.4707 C 73.0957 7.4707 92.1875 -11.6211 92.1875 -35.2051 C 92.1875 -58.7891 73.0957 -77.8809 49.5117 -77.8809 C 25.9277 -77.8809 6.83594 -58.7891 6.83594 -35.2051 C 6.83594 -11.6211 25.9277 7.4707 49.5117 7.4707 Z M 49.5117 -8.44727 C 34.7656 -8.44727 22.7539 -20.459 22.7539 -35.2051 C 22.7539 -49.9512 34.7656 -61.9141 49.5117 -61.9141 C 64.2578 -61.9141 76.2695 -49.9512 76.2207 -35.2051 C 76.2207 -20.459 64.2578 -8.44727 49.5117 -8.44727 Z M 55.5664 -19.5801 L 66.8457 -19.5801 C 69.873 -19.5801 71.6309 -21.2891 71.6309 -24.2188 C 71.6309 -27.0996 69.873 -28.7598 66.8457 -28.7598 L 63.6719 -28.7598 L 63.6719 -29.1504 L 65.918 -31.5918 C 69.1895 -35.2539 70.6543 -38.2324 70.6055 -41.6504 C 70.6543 -46.9727 66.8945 -51.0742 60.9375 -51.0742 C 56.1523 -51.0742 52.1973 -48.4863 51.0254 -44.3359 C 50.7324 -43.457 50.6348 -42.627 50.6348 -41.5039 C 50.6348 -39.3066 52.4902 -37.8418 54.6875 -37.8418 C 57.0801 -37.8418 58.3008 -39.1113 58.7402 -40.6738 C 58.8867 -41.4062 59.5703 -42.1387 60.3516 -42.1387 C 61.2793 -42.1387 62.0605 -41.4551 62.0605 -40.7227 C 62.0605 -39.3555 61.2793 -38.4277 59.1797 -36.1328 L 53.7598 -30.4199 C 51.709 -28.125 51.123 -26.5137 51.123 -24.1211 C 51.123 -21.7285 52.832 -19.5801 55.5664 -19.5801 Z M 33.3008 -19.5801 L 44.5801 -19.5801 C 47.6074 -19.5801 49.3164 -21.2891 49.3164 -24.2188 C 49.3164 -27.0996 47.6074 -28.7598 44.5801 -28.7598 L 41.4062 -28.7598 L 41.4062 -29.1504 L 43.6523 -31.5918 C 46.9238 -35.2539 48.3887 -38.2324 48.3398 -41.6504 C 48.3887 -46.9727 44.6289 -51.0742 38.6719 -51.0742 C 33.8867 -51.0742 29.9316 -48.4863 28.7598 -44.3359 C 28.4668 -43.457 28.3691 -42.627 28.3691 -41.5039 C 28.3691 -39.3066 30.2246 -37.8418 32.373 -37.8418 C 34.7656 -37.8418 36.0352 -39.1113 36.4746 -40.6738 C 36.6211 -41.4062 37.3047 -42.1387 38.0859 -42.1387 C 39.0137 -42.1387 39.7949 -41.4551 39.7949 -40.7227 C 39.7949 -39.3555 39.0137 -38.4277 36.9141 -36.1328 L 31.4941 -30.4199 C 29.4434 -28.125 28.8574 -26.5137 28.8574 -24.1211 C 28.8574 -21.7285 30.5664 -19.5801 33.3008 -19.5801 Z"/>
  </g>
  <g id="Ultralight-M" transform="matrix(1 0 0 1 503.656 1126)">
   <path d="M 56.0547 12.207 C 82.0801 12.207 103.369 -9.08203 103.369 -35.1562 C 103.369 -61.1816 82.0801 -82.4707 56.0547 -82.4707 C 30.0293 -82.4707 8.74023 -61.1816 8.74023 -35.1562 C 8.74023 -9.08203 30.0293 12.207 56.0547 12.207 Z M 56.0547 9.81445 C 31.25 9.81445 11.1328 -10.3516 11.1328 -35.1562 C 11.1328 -59.9121 31.25 -80.0781 56.0547 -80.0781 C 80.8105 -80.0781 100.977 -59.9121 100.977 -35.1562 C 100.977 -10.3516 80.8105 9.81445 56.0547 9.81445 Z M 62.1094 -13.5742 L 86.1816 -13.5742 C 86.9141 -13.5742 87.4023 -14.1113 87.4023 -14.7461 C 87.4023 -15.4785 86.9141 -15.9668 86.1816 -15.9668 L 64.3066 -15.9668 L 64.3066 -16.2109 L 79.1504 -32.7148 C 84.3262 -38.3301 86.084 -41.7969 86.084 -45.8496 C 86.084 -52.6855 81.1035 -57.1777 73.4375 -57.1777 C 66.6992 -57.1777 61.1816 -53.0762 60.1562 -47.3145 C 60.1074 -46.8262 60.0586 -46.4355 60.0586 -46.0449 C 60.0586 -45.2148 60.5469 -44.6777 61.3281 -44.6777 C 62.207 -44.6777 62.6465 -45.1172 62.6953 -45.8984 C 62.9883 -51.0254 67.4316 -54.7363 73.4375 -54.7363 C 79.5898 -54.7363 83.4961 -51.3184 83.4961 -45.8984 C 83.4961 -42.3828 81.9824 -39.3066 78.2227 -35.1562 L 61.084 -16.1621 C 60.7422 -15.7715 60.5957 -15.4297 60.5957 -14.9414 C 60.5957 -14.1113 61.1816 -13.5742 62.1094 -13.5742 Z M 27.7832 -13.5742 L 51.9043 -13.5742 C 52.6367 -13.5742 53.0762 -14.1113 53.0762 -14.7461 C 53.0762 -15.4785 52.6367 -15.9668 51.9043 -15.9668 L 30.0293 -15.9668 L 30.0293 -16.2109 L 44.873 -32.7148 C 50 -38.3301 51.8066 -41.7969 51.8066 -45.8496 C 51.8066 -52.6855 46.8262 -57.1777 39.1602 -57.1777 C 32.4219 -57.1777 26.8555 -53.0762 25.8789 -47.3145 C 25.8301 -46.8262 25.7324 -46.4355 25.7324 -46.0449 C 25.7324 -45.2148 26.2207 -44.6777 27.002 -44.6777 C 27.8809 -44.6777 28.3203 -45.1172 28.3691 -45.8984 C 28.6621 -51.0254 33.1055 -54.7363 39.1602 -54.7363 C 45.3125 -54.7363 49.1699 -51.3184 49.1699 -45.8984 C 49.1699 -42.3828 47.7051 -39.3066 43.9453 -35.1562 L 26.8066 -16.1621 C 26.416 -15.7715 26.3184 -15.4297 26.3184 -14.9414 C 26.3184 -14.1113 26.8555 -13.5742 27.7832 -13.5742 Z"/>
  </g>
  <g id="Thin-M" transform="matrix(1 0 0 1 799.806 1126)">
   <path d="M 56.5918 12.7441 C 82.9102 12.7441 104.492 -8.83789 104.492 -35.1562 C 104.492 -61.4746 82.9102 -83.0566 56.5918 -83.0566 C 30.3223 -83.0566 8.74023 -61.4746 8.74023 -35.1562 C 8.74023 -8.83789 30.3223 12.7441 56.5918 12.7441 Z M 56.5918 8.98438 C 32.2266 8.98438 12.4512 -10.791 12.4512 -35.1562 C 12.4512 -59.5215 32.2266 -79.2969 56.5918 -79.2969 C 80.957 -79.2969 100.781 -59.5215 100.781 -35.1562 C 100.781 -10.791 81.0059 8.98438 56.5918 8.98438 Z M 62.6953 -13.7695 L 86.2305 -13.7695 C 87.1582 -13.7695 87.8418 -14.4531 87.8418 -15.3809 C 87.8418 -16.3574 87.1582 -16.9922 86.2305 -16.9922 L 65.8691 -16.9922 L 65.8691 -17.2852 L 79.6875 -32.7148 C 84.5215 -38.0859 86.5723 -41.6504 86.5723 -45.9473 C 86.5723 -52.832 81.543 -57.373 73.7793 -57.373 C 67.1387 -57.373 61.6211 -53.3203 60.5469 -47.6562 C 60.4492 -47.1191 60.4004 -46.7285 60.4004 -46.2402 C 60.4004 -45.2148 61.0352 -44.4824 62.0605 -44.4824 C 63.0371 -44.4824 63.5254 -45.0195 63.7207 -45.9961 C 64.2578 -50.8301 68.3105 -54.1504 73.8281 -54.1504 C 79.4922 -54.1504 83.1543 -50.9277 83.1543 -45.8496 C 83.1543 -42.334 81.3965 -39.3066 77.9297 -35.4492 L 61.5234 -17.0898 C 61.084 -16.5527 60.8887 -16.1133 60.8887 -15.5273 C 60.8887 -14.4531 61.5723 -13.7695 62.6953 -13.7695 Z M 28.7598 -13.7695 L 52.2949 -13.7695 C 53.2227 -13.7695 53.8574 -14.4531 53.8574 -15.3809 C 53.8574 -16.3574 53.2227 -16.9922 52.2949 -16.9922 L 31.8848 -16.9922 L 31.8848 -17.2852 L 45.752 -32.7148 C 50.5859 -38.0859 52.5879 -41.6504 52.5879 -45.9473 C 52.5879 -52.832 47.5586 -57.373 39.7949 -57.373 C 33.2031 -57.373 27.6367 -53.3203 26.5625 -47.6562 C 26.5137 -47.1191 26.416 -46.7285 26.416 -46.2402 C 26.416 -45.2148 27.0508 -44.4824 28.0762 -44.4824 C 29.0527 -44.4824 29.5898 -45.0195 29.7852 -45.9961 C 30.2734 -50.8301 34.3262 -54.1504 39.8438 -54.1504 C 45.5566 -54.1504 49.1699 -50.9277 49.1699 -45.8496 C 49.1699 -42.334 47.4121 -39.3066 43.9453 -35.4492 L 27.5391 -17.0898 C 27.0996 -16.5527 26.9043 -16.1133 26.9043 -15.5273 C 26.9043 -14.4531 27.5879 -13.7695 28.7598 -13.7695 Z"/>
  </g>
  <g id="Light-M" transform="matrix(1 0 0 1 1095.42 1126)">
   <path d="M 57.7148 13.7695 C 84.5215 13.7695 106.689 -8.39844 106.689 -35.2051 C 106.689 -62.0117 84.4727 -84.1797 57.666 -84.1797 C 30.8594 -84.1797 8.74023 -62.0117 8.74023 -35.2051 C 8.74023 -8.39844 30.8594 13.7695 57.7148 13.7695 Z M 57.7148 7.4707 C 34.082 7.4707 15.0879 -11.5723 15.0879 -35.2051 C 15.0879 -58.8379 34.0332 -77.832 57.666 -77.832 C 81.2988 -77.832 100.342 -58.8379 100.342 -35.2051 C 100.391 -11.5723 81.2988 7.4707 57.7148 7.4707 Z M 63.916 -14.1602 L 86.377 -14.1602 C 87.6953 -14.1602 88.6719 -15.1367 88.6719 -16.6016 C 88.6719 -18.1152 87.6953 -18.9941 86.377 -18.9941 L 68.8477 -18.9941 L 68.8477 -19.2871 L 80.7129 -32.7637 C 85.0098 -37.5977 87.5 -41.3086 87.5 -46.0938 C 87.5 -53.1738 82.3242 -57.7637 74.3652 -57.7637 C 68.0176 -57.7637 62.5 -53.7598 61.2793 -48.3398 C 61.1816 -47.7051 61.084 -47.2168 61.084 -46.6309 C 61.084 -45.166 61.9629 -44.1406 63.4277 -44.1406 C 64.6973 -44.1406 65.332 -44.873 65.7715 -46.1914 C 66.7969 -50.4883 70.0195 -52.9785 74.5605 -52.9785 C 79.3457 -52.9785 82.4707 -50.1465 82.4707 -45.752 C 82.4707 -42.2852 80.2246 -39.2578 77.2949 -35.9863 L 62.3535 -18.8965 C 61.7188 -18.1641 61.4258 -17.4805 61.4258 -16.6504 C 61.4258 -15.1367 62.3535 -14.1602 63.916 -14.1602 Z M 30.6152 -14.1602 L 53.0273 -14.1602 C 54.3945 -14.1602 55.3711 -15.1367 55.3711 -16.6016 C 55.3711 -18.1152 54.3945 -18.9941 53.0273 -18.9941 L 35.5469 -18.9941 L 35.5469 -19.2871 L 47.4121 -32.7637 C 51.709 -37.5977 54.1504 -41.3086 54.1504 -46.0938 C 54.1504 -53.1738 49.0234 -57.7637 41.0156 -57.7637 C 34.7168 -57.7637 29.1992 -53.7598 27.9785 -48.3398 C 27.8809 -47.7051 27.7832 -47.2168 27.7832 -46.6309 C 27.7832 -45.166 28.6621 -44.1406 30.127 -44.1406 C 31.3477 -44.1406 32.0312 -44.873 32.4707 -46.1914 C 33.4473 -50.4883 36.7188 -52.9785 41.2109 -52.9785 C 46.0449 -52.9785 49.1699 -50.1465 49.1699 -45.752 C 49.1699 -42.2852 46.9238 -39.2578 43.9941 -35.9863 L 29.0039 -18.8965 C 28.3691 -18.1641 28.125 -17.4805 28.125 -16.6504 C 28.125 -15.1367 29.0527 -14.1602 30.6152 -14.1602 Z"/>
  </g>
  <g id="Regular-M" transform="matrix(1 0 0 1 1391.32 1126)">
   <path d="M 58.5449 14.5508 C 85.7422 14.5508 108.35 -8.00781 108.35 -35.2539 C 108.35 -62.4512 85.6934 -85.0586 58.4961 -85.0586 C 31.25 -85.0586 8.74023 -62.4512 8.74023 -35.2539 C 8.74023 -8.00781 31.2988 14.5508 58.5449 14.5508 Z M 58.5449 6.25 C 35.498 6.25 17.0898 -12.207 17.0898 -35.2539 C 17.0898 -58.252 35.4492 -76.7578 58.4961 -76.7578 C 81.4941 -76.7578 100 -58.252 100.049 -35.2539 C 100.098 -12.207 81.543 6.25 58.5449 6.25 Z M 64.8438 -14.4531 L 86.4258 -14.4531 C 88.0859 -14.4531 89.3066 -15.625 89.3066 -17.4805 C 89.3066 -19.4336 88.0859 -20.5078 86.4258 -20.5078 L 71.1426 -20.5078 L 71.1426 -20.8496 L 81.4941 -32.8125 C 85.3516 -37.2559 88.1836 -41.0645 88.1836 -46.1914 C 88.1836 -53.418 82.959 -58.0078 74.8047 -58.0078 C 68.6523 -58.0078 63.1348 -54.1016 61.8652 -48.8281 C 61.7188 -48.1934 61.5723 -47.6074 61.5723 -46.9727 C 61.5723 -45.1172 62.6953 -43.8965 64.4531 -43.8965 C 65.918 -43.8965 66.6992 -44.7754 67.334 -46.2891 C 68.7012 -50.1953 71.2891 -52.0996 75.0977 -52.0996 C 79.248 -52.0996 81.9824 -49.5605 81.9824 -45.6543 C 81.9824 -42.2852 79.2969 -39.2578 76.8066 -36.377 L 62.9395 -20.2637 C 62.1582 -19.3848 61.8164 -18.457 61.8164 -17.4805 C 61.8164 -15.625 62.9395 -14.4531 64.8438 -14.4531 Z M 32.0312 -14.4531 L 53.6133 -14.4531 C 55.2734 -14.4531 56.4941 -15.625 56.4941 -17.4805 C 56.4941 -19.4336 55.2734 -20.5078 53.6133 -20.5078 L 38.3301 -20.5078 L 38.3301 -20.8496 L 48.6816 -32.8125 C 52.5391 -37.2559 55.3711 -41.0645 55.3711 -46.1914 C 55.3711 -53.418 50.1465 -58.0078 41.9922 -58.0078 C 35.8398 -58.0078 30.3223 -54.1016 29.0527 -48.8281 C 28.9062 -48.1934 28.7598 -47.6074 28.7598 -46.9727 C 28.7598 -45.1172 29.8828 -43.8965 31.6406 -43.8965 C 33.1055 -43.8965 33.8867 -44.7754 34.5215 -46.2891 C 35.8887 -50.1953 38.4766 -52.0996 42.2852 -52.0996 C 46.4355 -52.0996 49.1699 -49.5605 49.1699 -45.6543 C 49.1699 -42.2852 46.4844 -39.2578 43.9941 -36.377 L 30.127 -20.2637 C 29.3457 -19.3848 29.0039 -18.457 29.0039 -17.4805 C 29.0039 -15.625 30.127 -14.4531 32.0312 -14.4531 Z"/>
  </g>
  <g id="Medium-M" transform="matrix(1 0 0 1 1687.33 1126)">
   <path d="M 59.2285 15.2832 C 86.8652 15.2832 109.717 -7.56836 109.717 -35.2051 C 109.717 -62.8906 86.8164 -85.7422 59.1797 -85.7422 C 31.543 -85.7422 8.74023 -62.8906 8.74023 -35.2051 C 8.74023 -7.56836 31.5918 15.2832 59.2285 15.2832 Z M 59.2285 5.17578 C 36.8164 5.17578 18.8477 -12.8418 18.8477 -35.2051 C 18.8477 -57.6172 36.7676 -75.6348 59.1797 -75.6348 C 81.5918 -75.6348 99.6094 -57.6172 99.6582 -35.2051 C 99.6582 -12.8418 81.6406 5.17578 59.2285 5.17578 Z M 65.7227 -14.5508 L 86.2793 -14.5508 C 88.2324 -14.5508 89.5996 -15.918 89.5996 -18.0664 C 89.5996 -20.2637 88.2324 -21.4844 86.2793 -21.4844 L 72.6562 -21.4844 L 72.6562 -21.8262 L 81.9336 -32.4707 C 85.791 -36.9629 88.4766 -40.7715 88.4766 -45.8008 C 88.4766 -52.9297 83.3008 -57.666 75.2441 -57.666 C 69.0918 -57.666 63.6719 -53.8574 62.3535 -48.5352 C 62.1582 -47.8516 62.0605 -47.168 62.0605 -46.4355 C 62.0605 -44.4336 63.3301 -43.1152 65.2832 -43.1152 C 66.9434 -43.1152 67.8711 -44.0918 68.5059 -45.7031 C 69.6777 -49.1699 72.0215 -50.9277 75.3906 -50.9277 C 79.1016 -50.9277 81.5918 -48.6328 81.5918 -45.166 C 81.5918 -41.9922 79.1504 -39.2578 76.6113 -36.377 L 63.7695 -21.582 C 62.7441 -20.4102 62.3047 -19.3359 62.3047 -18.0176 C 62.3047 -16.0156 63.623 -14.5508 65.7227 -14.5508 Z M 33.5449 -14.5508 L 54.1016 -14.5508 C 56.0547 -14.5508 57.4707 -15.918 57.4707 -18.0664 C 57.4707 -20.2637 56.0547 -21.4844 54.1016 -21.4844 L 40.4785 -21.4844 L 40.4785 -21.8262 L 49.7559 -32.4707 C 53.6133 -36.9629 56.3477 -40.7715 56.2988 -45.8008 C 56.3477 -52.9297 51.1719 -57.666 43.0664 -57.666 C 36.9141 -57.666 31.4941 -53.8574 30.1758 -48.5352 C 29.9805 -47.8516 29.8828 -47.168 29.8828 -46.4355 C 29.8828 -44.4336 31.1523 -43.1152 33.1055 -43.1152 C 34.7656 -43.1152 35.6934 -44.0918 36.3281 -45.7031 C 37.5 -49.1699 39.8438 -50.9277 43.2129 -50.9277 C 46.9238 -50.9277 49.4141 -48.6328 49.4141 -45.166 C 49.4141 -41.9922 46.9727 -39.2578 44.4336 -36.377 L 31.5918 -21.582 C 30.5664 -20.4102 30.1758 -19.3359 30.1758 -18.0176 C 30.1758 -16.0156 31.4453 -14.5508 33.5449 -14.5508 Z"/>
  </g>
  <g id="Semibold-M" transform="matrix(1 0 0 1 1983.5 1126)">
   <path d="M 59.7656 15.8203 C 87.7441 15.8203 110.791 -7.22656 110.791 -35.2051 C 110.791 -63.1836 87.6953 -86.2793 59.7168 -86.2793 C 31.7383 -86.2793 8.74023 -63.1836 8.74023 -35.2051 C 8.74023 -7.22656 31.7871 15.8203 59.7656 15.8203 Z M 59.7656 4.3457 C 37.8418 4.3457 20.2148 -13.2812 20.2148 -35.2051 C 20.2148 -57.1289 37.793 -74.8047 59.7168 -74.8047 C 81.6406 -74.8047 99.3164 -57.1289 99.3164 -35.2051 C 99.3652 -13.2812 81.6895 4.3457 59.7656 4.3457 Z M 66.4062 -14.6484 L 86.1328 -14.6484 C 88.3789 -14.6484 89.8438 -16.1133 89.8438 -18.5059 C 89.8438 -20.8984 88.3789 -22.2168 86.1328 -22.2168 L 73.8281 -22.2168 L 73.8281 -22.6074 L 82.2266 -32.2266 C 86.1328 -36.7188 88.7207 -40.5273 88.7207 -45.5078 C 88.7207 -52.5879 83.5938 -57.373 75.5859 -57.373 C 69.4336 -57.373 64.0625 -53.6133 62.7441 -48.3398 C 62.5 -47.5586 62.4023 -46.875 62.4023 -46.0449 C 62.4023 -43.9453 63.8184 -42.5293 65.8691 -42.5293 C 67.7246 -42.5293 68.75 -43.6035 69.3848 -45.2637 C 70.459 -48.3887 72.5586 -50 75.6348 -50 C 78.9551 -50 81.25 -47.9004 81.25 -44.8242 C 81.25 -41.7969 79.0039 -39.2578 76.4648 -36.377 L 64.4043 -22.5586 C 63.1836 -21.1914 62.6953 -19.9707 62.6953 -18.457 C 62.6953 -16.2598 64.1113 -14.6484 66.4062 -14.6484 Z M 34.7656 -14.6484 L 54.4922 -14.6484 C 56.6895 -14.6484 58.2031 -16.1133 58.2031 -18.5059 C 58.2031 -20.8984 56.6895 -22.2168 54.4922 -22.2168 L 42.1387 -22.2168 L 42.1387 -22.6074 L 50.5371 -32.2266 C 54.4434 -36.7188 57.0801 -40.5273 57.0312 -45.5078 C 57.0801 -52.5879 51.9043 -57.373 43.8965 -57.373 C 37.793 -57.373 32.4219 -53.6133 31.0547 -48.3398 C 30.8594 -47.5586 30.7129 -46.875 30.7129 -46.0449 C 30.7129 -43.9453 32.1289 -42.5293 34.1797 -42.5293 C 36.084 -42.5293 37.0605 -43.6035 37.6953 -45.2637 C 38.7695 -48.3887 40.918 -50 43.9453 -50 C 47.3145 -50 49.5605 -47.9004 49.5605 -44.8242 C 49.5605 -41.7969 47.3145 -39.2578 44.7754 -36.377 L 32.7637 -22.5586 C 31.4941 -21.1914 31.0547 -19.9707 31.0547 -18.457 C 31.0547 -16.2598 32.4707 -14.6484 34.7656 -14.6484 Z"/>
  </g>
  <g id="Bold-M" transform="matrix(1 0 0 1 2279.5 1126)">
   <path d="M 60.4492 16.5039 C 88.8672 16.5039 112.207 -6.78711 112.207 -35.2051 C 112.207 -63.623 88.8672 -86.9629 60.4492 -86.9629 C 32.0312 -86.9629 8.74023 -63.623 8.74023 -35.2051 C 8.74023 -6.78711 32.0801 16.5039 60.4492 16.5039 Z M 60.4492 3.22266 C 39.1602 3.22266 22.0215 -13.916 22.0215 -35.2051 C 22.0215 -56.4941 39.1602 -73.6816 60.4492 -73.6816 C 81.7383 -73.6816 98.877 -56.4941 98.9258 -35.2051 C 98.9258 -13.916 81.7871 3.22266 60.4492 3.22266 Z M 67.334 -14.7949 L 85.9863 -14.7949 C 88.5254 -14.7949 90.1855 -16.4062 90.1855 -19.043 C 90.1855 -21.7285 88.5254 -23.2422 85.9863 -23.2422 L 75.3906 -23.2422 L 75.3906 -23.6328 L 82.6172 -31.9336 C 86.5723 -36.4258 89.0625 -40.2344 89.0137 -45.1172 C 89.0625 -52.1484 83.9844 -57.0312 76.0254 -57.0312 C 69.9219 -57.0312 64.5996 -53.3691 63.2324 -48.0469 C 62.9883 -47.2168 62.8418 -46.4355 62.8418 -45.5078 C 62.8418 -43.2617 64.4531 -41.748 66.6992 -41.748 C 68.7988 -41.748 69.9219 -42.9199 70.5566 -44.6777 C 71.4355 -47.3145 73.291 -48.8281 75.9277 -48.8281 C 78.8086 -48.8281 80.8105 -46.9727 80.8105 -44.2871 C 80.8105 -41.5527 78.8086 -39.3066 76.2695 -36.4258 L 65.2832 -23.9258 C 63.7695 -22.2168 63.2324 -20.8008 63.2324 -18.9941 C 63.2324 -16.6016 64.7949 -14.7949 67.334 -14.7949 Z M 36.3281 -14.7949 L 54.9805 -14.7949 C 57.5195 -14.7949 59.1797 -16.4062 59.1797 -19.043 C 59.1797 -21.7285 57.5195 -23.2422 54.9805 -23.2422 L 44.3359 -23.2422 L 44.3359 -23.6328 L 51.6113 -31.9336 C 55.5664 -36.4258 58.0078 -40.2344 58.0078 -45.1172 C 58.0078 -52.1484 52.9297 -57.0312 45.0195 -57.0312 C 38.8672 -57.0312 33.5938 -53.3691 32.1777 -48.0469 C 31.9824 -47.2168 31.8359 -46.4355 31.8359 -45.5078 C 31.8359 -43.2617 33.4473 -41.748 35.6445 -41.748 C 37.793 -41.748 38.8672 -42.9199 39.502 -44.6777 C 40.4297 -47.3145 42.2852 -48.8281 44.9219 -48.8281 C 47.8027 -48.8281 49.8047 -46.9727 49.8047 -44.2871 C 49.8047 -41.5527 47.8027 -39.3066 45.2148 -36.4258 L 34.2773 -23.9258 C 32.7148 -22.2168 32.2266 -20.8008 32.2266 -18.9941 C 32.2266 -16.6016 33.7891 -14.7949 36.3281 -14.7949 Z"/>
  </g>
  <g id="Heavy-M" transform="matrix(1 0 0 1 2575.19 1126)">
   <path d="M 61.4746 17.5781 C 90.5273 17.5781 114.258 -6.15234 114.258 -35.2051 C 114.258 -64.2578 90.5273 -87.9883 61.4746 -87.9883 C 32.4219 -87.9883 8.74023 -64.2578 8.74023 -35.2051 C 8.74023 -6.15234 32.4707 17.5781 61.4746 17.5781 Z M 61.4746 1.66016 C 41.1133 1.66016 24.6582 -14.8438 24.6582 -35.2051 C 24.6582 -55.5664 41.1133 -72.0703 61.4746 -72.0703 C 81.8359 -72.0703 98.3398 -55.5664 98.3398 -35.2051 C 98.3398 -14.8438 81.8848 1.66016 61.4746 1.66016 Z M 68.6523 -14.9902 L 85.7422 -14.9902 C 88.7695 -14.9902 90.6738 -16.7969 90.6738 -19.873 C 90.6738 -22.9004 88.7695 -24.6582 85.7422 -24.6582 L 77.6367 -24.6582 L 77.6367 -25.0977 L 83.2031 -31.4453 C 87.207 -35.9863 89.502 -39.7949 89.4531 -44.5312 C 89.502 -51.5137 84.5215 -56.4941 76.709 -56.4941 C 70.5566 -56.4941 65.3809 -52.9785 63.916 -47.6562 C 63.623 -46.7285 63.5254 -45.8496 63.5254 -44.7266 C 63.5254 -42.2363 65.4297 -40.625 67.8223 -40.625 C 70.3125 -40.625 71.582 -41.9434 72.2168 -43.7988 C 72.9004 -45.8496 74.3652 -47.0703 76.3672 -47.0703 C 78.5645 -47.0703 80.2246 -45.6055 80.2246 -43.5547 C 80.2246 -41.1621 78.5156 -39.3066 75.9766 -36.4258 L 66.5039 -25.8301 C 64.5996 -23.6816 63.9648 -22.0215 63.9648 -19.7754 C 63.9648 -17.1387 65.7715 -14.9902 68.6523 -14.9902 Z M 38.5742 -14.9902 L 55.7129 -14.9902 C 58.7402 -14.9902 60.5957 -16.7969 60.5957 -19.873 C 60.5957 -22.9004 58.7402 -24.6582 55.7129 -24.6582 L 47.5586 -24.6582 L 47.5586 -25.0977 L 53.125 -31.4453 C 57.1777 -35.9863 59.4238 -39.7949 59.375 -44.5312 C 59.4238 -51.5137 54.4434 -56.4941 46.6309 -56.4941 C 40.4785 -56.4941 35.3027 -52.9785 33.8379 -47.6562 C 33.5938 -46.7285 33.4473 -45.8496 33.4473 -44.7266 C 33.4473 -42.2363 35.3516 -40.625 37.793 -40.625 C 40.2344 -40.625 41.5527 -41.9434 42.1387 -43.7988 C 42.8223 -45.8496 44.2871 -47.0703 46.2891 -47.0703 C 48.5352 -47.0703 50.1465 -45.6055 50.1465 -43.5547 C 50.1465 -41.1621 48.4375 -39.3066 45.8984 -36.4258 L 36.4258 -25.8301 C 34.5215 -23.6816 33.8867 -22.0215 33.8867 -19.7754 C 33.8867 -17.1387 35.6934 -14.9902 38.5742 -14.9902 Z"/>
  </g>
  <g id="Black-M" transform="matrix(1 0 0 1 2871 1126)">
   <path d="M 62.4023 18.457 C 91.9922 18.457 116.064 -5.61523 116.064 -35.2051 C 116.064 -64.7949 91.9922 -88.8672 62.4023 -88.8672 C 32.8125 -88.8672 8.74023 -64.7949 8.74023 -35.2051 C 8.74023 -5.61523 32.8125 18.457 62.4023 18.457 Z M 62.4023 0.195312 C 42.8223 0.195312 27.002 -15.625 27.002 -35.2051 C 27.002 -54.7363 42.8223 -70.6055 62.4023 -70.6055 C 81.9824 -70.6055 97.8027 -54.7363 97.8027 -35.2051 C 97.8027 -15.625 81.9824 0.195312 62.4023 0.195312 Z M 69.8242 -15.1367 L 85.5469 -15.1367 C 89.0137 -15.1367 91.0645 -17.1387 91.0645 -20.6055 C 91.0645 -24.0234 89.0137 -25.9277 85.5469 -25.9277 L 79.6387 -25.9277 L 79.6387 -26.3672 L 83.7402 -31.0547 C 87.793 -35.5957 89.8926 -39.4043 89.8438 -43.9941 C 89.8926 -50.8789 84.9609 -56.0059 77.2461 -56.0059 C 71.1426 -56.0059 66.0645 -52.5879 64.5508 -47.3145 C 64.2578 -46.2891 64.1113 -45.3125 64.1113 -44.043 C 64.1113 -41.3574 66.2598 -39.5996 68.8965 -39.5996 C 71.6797 -39.5996 73.0957 -41.1133 73.7305 -43.0176 C 74.2188 -44.4824 75.293 -45.5078 76.7578 -45.5078 C 78.3691 -45.5078 79.6875 -44.3848 79.6875 -42.9199 C 79.6875 -40.8203 78.2715 -39.3066 75.6836 -36.4258 L 67.5781 -27.5391 C 65.332 -25.0488 64.6484 -23.1445 64.6484 -20.459 C 64.6484 -17.5781 66.6504 -15.1367 69.8242 -15.1367 Z M 40.625 -15.1367 L 56.3477 -15.1367 C 59.8145 -15.1367 61.8652 -17.1387 61.8652 -20.6055 C 61.8652 -24.0234 59.8145 -25.9277 56.3477 -25.9277 L 50.3906 -25.9277 L 50.3906 -26.3672 L 54.541 -31.0547 C 58.5938 -35.5957 60.6934 -39.4043 60.5957 -43.9941 C 60.6934 -50.8789 55.7617 -56.0059 48.0469 -56.0059 C 41.9434 -56.0059 36.8652 -52.5879 35.3516 -47.3145 C 35.0098 -46.2891 34.9121 -45.3125 34.9121 -44.043 C 34.9121 -41.3574 37.0605 -39.5996 39.6973 -39.5996 C 42.4316 -39.5996 43.8965 -41.1133 44.5312 -43.0176 C 44.9707 -44.4824 46.0938 -45.5078 47.5098 -45.5078 C 49.1699 -45.5078 50.4395 -44.3848 50.4395 -42.9199 C 50.4395 -40.8203 49.0723 -39.3066 46.4844 -36.4258 L 38.3789 -27.5391 C 36.084 -25.0488 35.4004 -23.1445 35.4004 -20.459 C 35.4004 -17.5781 37.4023 -15.1367 40.625 -15.1367 Z"/>
  </g>
  <g id="Ultralight-L" transform="matrix(1 0 0 1 487.641 1556)">
   <path d="M 72.0703 25.7324 C 105.566 25.7324 132.91 -1.61133 132.91 -35.1074 C 132.91 -68.5547 105.566 -95.8984 72.0703 -95.8984 C 38.623 -95.8984 11.2793 -68.5547 11.2793 -35.1074 C 11.2793 -1.61133 38.623 25.7324 72.0703 25.7324 Z M 72.0703 23.2422 C 39.9414 23.2422 13.7695 -2.97852 13.7695 -35.1074 C 13.7695 -67.2363 39.9414 -93.4082 72.0703 -93.4082 C 104.199 -93.4082 130.42 -67.2363 130.371 -35.1074 C 130.371 -2.97852 104.199 23.2422 72.0703 23.2422 Z M 79.834 -7.17773 L 111.182 -7.17773 C 112.061 -7.17773 112.598 -7.8125 112.598 -8.54492 C 112.598 -9.375 112.061 -9.96094 111.182 -9.96094 L 82.3242 -9.96094 L 82.3242 -10.2539 L 101.953 -31.9824 C 108.691 -39.3555 110.889 -43.7988 110.889 -48.877 C 110.889 -57.7148 104.492 -63.4766 94.6289 -63.4766 C 85.8887 -63.4766 78.7109 -58.1543 77.4902 -50.6836 C 77.3926 -50.0488 77.3438 -49.6094 77.3438 -49.0723 C 77.3438 -48.1445 77.9297 -47.5098 78.8086 -47.5098 C 79.8828 -47.5098 80.4199 -47.998 80.4199 -48.9746 C 80.7129 -55.7129 86.6211 -60.6934 94.6289 -60.6934 C 102.734 -60.6934 107.861 -56.1523 107.861 -49.0723 C 107.861 -44.4336 106.055 -40.5273 101.123 -35.0586 L 78.6621 -10.2539 C 78.2227 -9.7168 78.125 -9.42383 78.125 -8.83789 C 78.125 -7.8125 78.7598 -7.17773 79.834 -7.17773 Z M 35.4492 -7.17773 L 66.7969 -7.17773 C 67.627 -7.17773 68.1641 -7.8125 68.1641 -8.54492 C 68.1641 -9.375 67.627 -9.96094 66.7969 -9.96094 L 37.8906 -9.96094 L 37.8906 -10.2539 L 57.5195 -31.9824 C 64.2578 -39.3555 66.4551 -43.7988 66.4551 -48.877 C 66.4551 -57.7148 60.0586 -63.4766 50.2441 -63.4766 C 41.5039 -63.4766 34.3262 -58.1543 33.0566 -50.6836 C 33.0078 -50.0488 32.9102 -49.6094 32.9102 -49.0723 C 32.9102 -48.1445 33.4961 -47.5098 34.4238 -47.5098 C 35.498 -47.5098 35.9863 -47.998 35.9863 -48.9746 C 36.2793 -55.7129 42.1875 -60.6934 50.1953 -60.6934 C 58.3496 -60.6934 63.4277 -56.1523 63.4277 -49.0723 C 63.4277 -44.4336 61.6699 -40.5273 56.6895 -35.0586 L 34.2773 -10.2539 C 33.8379 -9.7168 33.6914 -9.42383 33.6914 -8.83789 C 33.6914 -7.8125 34.3262 -7.17773 35.4492 -7.17773 Z"/>
  </g>
  <g id="Thin-L" transform="matrix(1 0 0 1 783.717 1556)">
   <path d="M 72.7051 26.3184 C 106.494 26.3184 134.131 -1.36719 134.131 -35.1074 C 134.131 -68.8965 106.445 -96.582 72.7051 -96.582 C 38.916 -96.582 11.2793 -68.8965 11.2793 -35.1074 C 11.2793 -1.36719 38.916 26.3184 72.7051 26.3184 Z M 72.7051 22.3145 C 41.0156 22.3145 15.2344 -3.41797 15.2344 -35.1074 C 15.2344 -66.8457 41.0156 -92.5781 72.7051 -92.5781 C 104.395 -92.5781 130.127 -66.8457 130.176 -35.1074 C 130.176 -3.41797 104.395 22.3145 72.7051 22.3145 Z M 80.5176 -7.42188 L 111.23 -7.42188 C 112.354 -7.42188 113.086 -8.20312 113.086 -9.22852 C 113.086 -10.3516 112.354 -11.084 111.23 -11.084 L 84.0332 -11.084 L 84.0332 -11.4258 L 102.539 -31.9824 C 108.936 -39.0625 111.426 -43.6035 111.426 -48.9746 C 111.426 -57.8613 104.932 -63.6719 94.9707 -63.6719 C 86.377 -63.6719 79.248 -58.3984 77.9297 -51.0742 C 77.832 -50.3906 77.7344 -49.9023 77.7344 -49.3164 C 77.7344 -48.1445 78.4668 -47.3145 79.6387 -47.3145 C 80.8105 -47.3145 81.4453 -47.9492 81.5918 -49.0723 C 82.1289 -55.5176 87.5977 -60.0098 95.0195 -60.0098 C 102.637 -60.0098 107.471 -55.7129 107.471 -48.9746 C 107.471 -44.4336 105.42 -40.4785 100.732 -35.3516 L 79.1504 -11.2793 C 78.6133 -10.6445 78.418 -10.1562 78.418 -9.47266 C 78.418 -8.20312 79.1992 -7.42188 80.5176 -7.42188 Z M 36.4746 -7.42188 L 67.2363 -7.42188 C 68.3105 -7.42188 69.043 -8.20312 69.043 -9.22852 C 69.043 -10.3516 68.3105 -11.084 67.2363 -11.084 L 39.9902 -11.084 L 39.9902 -11.4258 L 58.4961 -31.9824 C 64.8926 -39.0625 67.3828 -43.6035 67.3828 -48.9746 C 67.3828 -57.8613 60.8887 -63.6719 50.9766 -63.6719 C 42.334 -63.6719 35.2051 -58.3984 33.8867 -51.0742 C 33.7891 -50.3906 33.6914 -49.9023 33.6914 -49.3164 C 33.6914 -48.1445 34.4238 -47.3145 35.5957 -47.3145 C 36.7676 -47.3145 37.4023 -47.9492 37.5488 -49.0723 C 38.0859 -55.5176 43.5547 -60.0098 50.9766 -60.0098 C 58.5938 -60.0098 63.4277 -55.7129 63.4277 -48.9746 C 63.4277 -44.4336 61.377 -40.4785 56.6895 -35.3516 L 35.1074 -11.2793 C 34.5703 -10.6445 34.375 -10.1562 34.375 -9.47266 C 34.375 -8.20312 35.1562 -7.42188 36.4746 -7.42188 Z"/>
  </g>
  <g id="Light-L" transform="matrix(1 0 0 1 1079.21 1556)">
   <path d="M 73.9258 27.4902 C 108.301 27.4902 136.572 -0.830078 136.572 -35.1562 C 136.572 -69.5312 108.252 -97.8516 73.877 -97.8516 C 39.5508 -97.8516 11.2793 -69.5312 11.2793 -35.1562 C 11.2793 -0.830078 39.5508 27.4902 73.9258 27.4902 Z M 73.9258 20.6055 C 43.0664 20.6055 18.1641 -4.3457 18.1641 -35.1562 C 18.1641 -66.0156 43.0664 -90.918 73.877 -90.918 C 104.736 -90.918 129.639 -66.0156 129.688 -35.1562 C 129.736 -4.3457 104.785 20.6055 73.9258 20.6055 Z M 81.8848 -7.86133 L 111.377 -7.86133 C 112.891 -7.86133 114.014 -8.98438 114.014 -10.5957 C 114.014 -12.3047 112.891 -13.3301 111.377 -13.3301 L 87.4023 -13.3301 L 87.4023 -13.7207 L 103.662 -32.0312 C 109.473 -38.5254 112.451 -43.2617 112.451 -49.1699 C 112.451 -58.2031 105.859 -64.1113 95.6543 -64.1113 C 87.3535 -64.1113 80.2246 -58.9355 78.7598 -51.8066 C 78.6133 -51.0742 78.4668 -50.4395 78.4668 -49.7559 C 78.4668 -48.0957 79.4922 -46.9238 81.1523 -46.9238 C 82.666 -46.9238 83.4473 -47.7539 83.8867 -49.2676 C 84.9609 -55.0781 89.502 -58.7402 95.8496 -58.7402 C 102.49 -58.7402 106.738 -54.834 106.738 -48.877 C 106.738 -44.3848 104.102 -40.4785 100.049 -35.9375 L 80.0293 -13.2812 C 79.2969 -12.4512 79.0039 -11.6699 79.0039 -10.6934 C 79.0039 -8.98438 80.0781 -7.86133 81.8848 -7.86133 Z M 38.5742 -7.86133 L 68.0664 -7.86133 C 69.5801 -7.86133 70.7031 -8.98438 70.7031 -10.5957 C 70.7031 -12.3047 69.5801 -13.3301 68.0664 -13.3301 L 44.0918 -13.3301 L 44.0918 -13.7207 L 60.3516 -32.0312 C 66.1621 -38.5254 69.1406 -43.2617 69.1406 -49.1699 C 69.1406 -58.2031 62.5488 -64.1113 52.3438 -64.1113 C 44.043 -64.1113 36.9141 -58.9355 35.4492 -51.8066 C 35.3027 -51.0742 35.1562 -50.4395 35.1562 -49.7559 C 35.1562 -48.0957 36.1816 -46.9238 37.8418 -46.9238 C 39.3555 -46.9238 40.1367 -47.7539 40.5762 -49.2676 C 41.6504 -55.0781 46.1914 -58.7402 52.5391 -58.7402 C 59.1797 -58.7402 63.4277 -54.834 63.4277 -48.877 C 63.4277 -44.3848 60.791 -40.4785 56.7383 -35.9375 L 36.7188 -13.2812 C 35.9863 -12.4512 35.6934 -11.6699 35.6934 -10.6934 C 35.6934 -8.98438 36.7676 -7.86133 38.5742 -7.86133 Z"/>
  </g>
  <g id="Regular-L" transform="matrix(1 0 0 1 1374.99 1556)">
   <path d="M 74.8535 28.3691 C 109.668 28.3691 138.428 -0.390625 138.428 -35.2051 C 138.428 -70.0195 109.619 -98.7793 74.8047 -98.7793 C 39.9902 -98.7793 11.2793 -70.0195 11.2793 -35.2051 C 11.2793 -0.390625 40.0391 28.3691 74.8535 28.3691 Z M 74.8535 19.2871 C 44.6289 19.2871 20.4102 -5.0293 20.4102 -35.2051 C 20.4102 -65.3809 44.5801 -89.6973 74.8047 -89.6973 C 104.98 -89.6973 129.297 -65.3809 129.346 -35.2051 C 129.395 -5.0293 105.029 19.2871 74.8535 19.2871 Z M 82.9102 -8.1543 L 111.475 -8.1543 C 113.33 -8.1543 114.697 -9.52148 114.697 -11.6211 C 114.697 -13.7695 113.33 -14.9902 111.475 -14.9902 L 89.9414 -14.9902 L 89.9414 -15.4297 L 104.541 -32.0801 C 109.863 -38.1348 113.232 -42.9688 113.232 -49.2676 C 113.232 -58.4961 106.543 -64.4043 96.1426 -64.4043 C 88.0371 -64.4043 80.957 -59.3262 79.3457 -52.3438 C 79.1992 -51.5625 79.0527 -50.8789 79.0527 -50.0977 C 79.0527 -48.0469 80.2734 -46.6309 82.3242 -46.6309 C 84.0332 -46.6309 84.9609 -47.6074 85.6445 -49.4141 C 87.0605 -54.7852 90.9668 -57.7637 96.4355 -57.7637 C 102.344 -57.7637 106.201 -54.1992 106.201 -48.7793 C 106.201 -44.3359 103.076 -40.4297 99.5117 -36.377 L 80.7129 -14.7949 C 79.834 -13.7695 79.4434 -12.793 79.4434 -11.6699 C 79.4434 -9.52148 80.7617 -8.1543 82.9102 -8.1543 Z M 40.1367 -8.1543 L 68.7012 -8.1543 C 70.5566 -8.1543 71.9727 -9.52148 71.9727 -11.6211 C 71.9727 -13.7695 70.5566 -14.9902 68.7012 -14.9902 L 47.168 -14.9902 L 47.168 -15.4297 L 61.7676 -32.0801 C 67.0898 -38.1348 70.459 -42.9688 70.459 -49.2676 C 70.459 -58.4961 63.7695 -64.4043 53.418 -64.4043 C 45.3125 -64.4043 38.1836 -59.3262 36.6211 -52.3438 C 36.4258 -51.5625 36.3281 -50.8789 36.3281 -50.0977 C 36.3281 -48.0469 37.5488 -46.6309 39.5996 -46.6309 C 41.3086 -46.6309 42.1875 -47.6074 42.8711 -49.4141 C 44.3359 -54.7852 48.1934 -57.7637 53.7109 -57.7637 C 59.6191 -57.7637 63.4277 -54.1992 63.4277 -48.7793 C 63.4277 -44.3359 60.3516 -40.4297 56.7383 -36.377 L 37.9883 -14.7949 C 37.1094 -13.7695 36.6699 -12.793 36.6699 -11.6699 C 36.6699 -9.52148 37.9883 -8.1543 40.1367 -8.1543 Z"/>
  </g>
  <g id="Medium-L" transform="matrix(1 0 0 1 1670.9 1556)">
   <path d="M 75.6348 29.1992 C 110.938 29.1992 140.039 0.0488281 140.039 -35.2051 C 140.039 -70.459 110.889 -99.6094 75.5859 -99.6094 C 40.332 -99.6094 11.2793 -70.459 11.2793 -35.2051 C 11.2793 0.0488281 40.3809 29.1992 75.6348 29.1992 Z M 75.6348 18.0664 C 46.1426 18.0664 22.4609 -5.71289 22.4609 -35.2051 C 22.4609 -64.6973 46.0938 -88.4766 75.5859 -88.4766 C 105.127 -88.4766 128.857 -64.6973 128.906 -35.2051 C 128.955 -5.71289 105.176 18.0664 75.6348 18.0664 Z M 83.8867 -8.34961 L 111.328 -8.34961 C 113.574 -8.34961 115.137 -9.91211 115.137 -12.3047 C 115.137 -14.7949 113.574 -16.2109 111.328 -16.2109 L 91.7969 -16.2109 L 91.7969 -16.6504 L 105.078 -31.7871 C 110.303 -37.793 113.623 -42.627 113.623 -48.9258 C 113.623 -58.1055 106.982 -64.1602 96.6309 -64.1602 C 88.623 -64.1602 81.543 -59.1309 79.9316 -52.1973 C 79.6875 -51.3672 79.5898 -50.5859 79.5898 -49.707 C 79.5898 -47.4121 81.0059 -45.8496 83.252 -45.8496 C 85.2539 -45.8496 86.2793 -47.0215 87.0117 -48.9258 C 88.3789 -53.7598 91.8457 -56.4941 96.8262 -56.4941 C 102.197 -56.4941 105.713 -53.2227 105.713 -48.291 C 105.713 -44.0918 102.734 -40.4297 99.2188 -36.4746 L 81.5918 -16.2598 C 80.4688 -14.9414 79.9805 -13.7695 79.9805 -12.3047 C 79.9805 -9.96094 81.4941 -8.34961 83.8867 -8.34961 Z M 41.8457 -8.34961 L 69.2871 -8.34961 C 71.4844 -8.34961 73.0957 -9.91211 73.0957 -12.3047 C 73.0957 -14.7949 71.4844 -16.2109 69.2871 -16.2109 L 49.707 -16.2109 L 49.707 -16.6504 L 62.9883 -31.7871 C 68.2617 -37.793 71.582 -42.627 71.582 -48.9258 C 71.582 -58.1055 64.9414 -64.1602 54.5898 -64.1602 C 46.5332 -64.1602 39.502 -59.1309 37.8906 -52.1973 C 37.6465 -51.3672 37.5 -50.5859 37.5 -49.707 C 37.5 -47.4121 38.9648 -45.8496 41.2109 -45.8496 C 43.1641 -45.8496 44.2383 -47.0215 44.9219 -48.9258 C 46.2891 -53.7598 49.8047 -56.4941 54.7852 -56.4941 C 60.1074 -56.4941 63.6719 -53.2227 63.6719 -48.291 C 63.6719 -44.0918 60.6934 -40.4297 57.1777 -36.4746 L 39.5508 -16.2598 C 38.3789 -14.9414 37.9395 -13.7695 37.9395 -12.3047 C 37.9395 -9.96094 39.4043 -8.34961 41.8457 -8.34961 Z"/>
  </g>
  <g id="Semibold-L" transform="matrix(1 0 0 1 1967 1556)">
   <path d="M 76.2695 29.7852 C 111.914 29.7852 141.26 0.439453 141.26 -35.2051 C 141.26 -70.8496 111.865 -100.244 76.2207 -100.244 C 40.5762 -100.244 11.2793 -70.8496 11.2793 -35.2051 C 11.2793 0.439453 40.625 29.7852 76.2695 29.7852 Z M 76.2695 17.0898 C 47.3145 17.0898 24.0234 -6.25 24.0234 -35.2051 C 24.0234 -64.209 47.2656 -87.5 76.2207 -87.5 C 105.225 -87.5 128.516 -64.209 128.564 -35.2051 C 128.613 -6.25 105.273 17.0898 76.2695 17.0898 Z M 84.668 -8.49609 L 111.23 -8.49609 C 113.721 -8.49609 115.43 -10.1562 115.43 -12.8418 C 115.43 -15.5762 113.721 -17.1387 111.23 -17.1387 L 93.2129 -17.1387 L 93.2129 -17.5781 L 105.469 -31.5918 C 110.693 -37.5 113.965 -42.3828 113.965 -48.6816 C 113.965 -57.8613 107.324 -63.916 97.0215 -63.916 C 89.0137 -63.916 82.0312 -58.9844 80.3711 -52.0996 C 80.127 -51.1719 79.9805 -50.3418 79.9805 -49.3652 C 79.9805 -46.9238 81.5918 -45.2637 83.9844 -45.2637 C 86.1816 -45.2637 87.3047 -46.5332 88.0371 -48.5352 C 89.3555 -53.0273 92.5781 -55.5176 97.1191 -55.5176 C 102.051 -55.5176 105.371 -52.4902 105.371 -47.9492 C 105.371 -43.8965 102.441 -40.4785 99.0234 -36.5234 L 82.2754 -17.3828 C 80.9082 -15.8691 80.3711 -14.502 80.3711 -12.8418 C 80.3711 -10.3027 82.0312 -8.49609 84.668 -8.49609 Z M 43.1641 -8.49609 L 69.7266 -8.49609 C 72.2168 -8.49609 73.9258 -10.1562 73.9258 -12.8418 C 73.9258 -15.5762 72.2168 -17.1387 69.7266 -17.1387 L 51.6602 -17.1387 L 51.6602 -17.5781 L 63.916 -31.5918 C 69.1406 -37.5 72.4609 -42.3828 72.4121 -48.6816 C 72.4609 -57.8613 65.8203 -63.916 55.5176 -63.916 C 47.5098 -63.916 40.5273 -58.9844 38.8184 -52.0996 C 38.5742 -51.1719 38.4277 -50.3418 38.4277 -49.3652 C 38.4277 -46.9238 40.0879 -45.2637 42.4805 -45.2637 C 44.6289 -45.2637 45.8008 -46.5332 46.5332 -48.5352 C 47.8516 -53.0273 51.0254 -55.5176 55.6152 -55.5176 C 60.5469 -55.5176 63.8184 -52.4902 63.8184 -47.9492 C 63.8184 -43.8965 60.9375 -40.4785 57.4707 -36.5234 L 40.7715 -17.3828 C 39.4043 -15.8691 38.8672 -14.502 38.8672 -12.8418 C 38.8672 -10.3027 40.5273 -8.49609 43.1641 -8.49609 Z"/>
  </g>
  <g id="Bold-L" transform="matrix(1 0 0 1 2262.9 1556)">
   <path d="M 77.0996 30.6152 C 113.184 30.6152 142.92 0.878906 142.92 -35.2051 C 142.92 -71.3379 113.135 -101.025 77.0508 -101.025 C 40.918 -101.025 11.2793 -71.3379 11.2793 -35.2051 C 11.2793 0.878906 40.9668 30.6152 77.0996 30.6152 Z M 77.0996 15.8691 C 48.7793 15.8691 26.0742 -6.93359 26.0742 -35.2051 C 26.0742 -63.4766 48.7793 -86.2793 77.0508 -86.2793 C 105.322 -86.2793 128.125 -63.4766 128.125 -35.2051 C 128.174 -6.93359 105.371 15.8691 77.0996 15.8691 Z M 85.6934 -8.64258 L 111.084 -8.64258 C 113.965 -8.64258 115.869 -10.498 115.869 -13.5254 C 115.869 -16.6016 113.965 -18.3105 111.084 -18.3105 L 95.0684 -18.3105 L 95.0684 -18.7988 L 106.006 -31.2988 C 111.182 -37.1582 114.404 -42.0898 114.355 -48.3398 C 114.404 -57.4707 107.812 -63.6719 97.5098 -63.6719 C 89.5508 -63.6719 82.666 -58.8379 80.9082 -51.9531 C 80.6641 -50.9766 80.5176 -50.0488 80.5176 -48.9746 C 80.5176 -46.2891 82.3242 -44.4824 84.9609 -44.4824 C 87.3535 -44.4824 88.6719 -45.8984 89.4043 -47.998 C 90.6738 -52.002 93.5059 -54.248 97.5098 -54.248 C 101.904 -54.248 104.883 -51.5137 104.883 -47.4609 C 104.883 -43.6523 102.1 -40.4785 98.7305 -36.6211 L 83.2031 -18.8965 C 81.543 -17.041 80.957 -15.4785 80.957 -13.4766 C 80.957 -10.7422 82.7637 -8.64258 85.6934 -8.64258 Z M 44.873 -8.64258 L 70.2637 -8.64258 C 73.1445 -8.64258 75.0488 -10.498 75.0488 -13.5254 C 75.0488 -16.6016 73.1445 -18.3105 70.2637 -18.3105 L 54.248 -18.3105 L 54.248 -18.7988 L 65.1855 -31.2988 C 70.3613 -37.1582 73.584 -42.0898 73.5352 -48.3398 C 73.584 -57.4707 66.9922 -63.6719 56.6895 -63.6719 C 48.7305 -63.6719 41.8457 -58.8379 40.0879 -51.9531 C 39.8438 -50.9766 39.6973 -50.0488 39.6973 -48.9746 C 39.6973 -46.2891 41.5039 -44.4824 44.0918 -44.4824 C 46.5332 -44.4824 47.8027 -45.8984 48.584 -47.998 C 49.8535 -52.002 52.6855 -54.248 56.6895 -54.248 C 61.084 -54.248 64.0137 -51.5137 64.0137 -47.4609 C 64.0137 -43.6523 61.2793 -40.4785 57.9102 -36.6211 L 42.3828 -18.8965 C 40.7227 -17.041 40.1367 -15.4785 40.1367 -13.4766 C 40.1367 -10.7422 41.9434 -8.64258 44.873 -8.64258 Z"/>
  </g>
  <g id="Heavy-L" transform="matrix(1 0 0 1 2558.42 1556)">
   <path d="M 78.2715 31.7871 C 115.039 31.7871 145.264 1.61133 145.264 -35.2051 C 145.264 -72.0215 115.039 -102.197 78.2227 -102.197 C 41.4551 -102.197 11.2793 -72.0215 11.2793 -35.2051 C 11.2793 1.61133 41.4551 31.7871 78.2715 31.7871 Z M 78.2715 14.0137 C 50.9766 14.0137 29.0527 -7.95898 29.0527 -35.2051 C 29.0527 -62.5 50.9766 -84.4727 78.2227 -84.4727 C 105.518 -84.4727 127.49 -62.5 127.49 -35.2051 C 127.539 -7.95898 105.518 14.0137 78.2715 14.0137 Z M 87.207 -8.93555 L 110.938 -8.93555 C 114.307 -8.93555 116.504 -11.0352 116.504 -14.5508 C 116.504 -18.0664 114.307 -20.1172 110.938 -20.1172 L 97.8027 -20.1172 L 97.8027 -20.6055 L 106.787 -30.8594 C 111.865 -36.6699 114.99 -41.6016 114.99 -47.8516 C 114.99 -56.9336 108.496 -63.2812 98.2422 -63.2812 C 90.3809 -63.2812 83.5449 -58.5449 81.7383 -51.709 C 81.3965 -50.6348 81.25 -49.6094 81.25 -48.3398 C 81.25 -45.3613 83.3984 -43.4082 86.3281 -43.4082 C 89.1113 -43.4082 90.5762 -44.9707 91.4062 -47.2656 C 92.5781 -50.5371 94.873 -52.3926 98.0957 -52.3926 C 101.66 -52.3926 104.15 -50.0977 104.15 -46.7773 C 104.15 -43.3105 101.562 -40.4785 98.3398 -36.7676 L 84.5215 -21.0449 C 82.4707 -18.75 81.7383 -16.8945 81.7383 -14.4531 C 81.7383 -11.3281 83.8379 -8.93555 87.207 -8.93555 Z M 47.3633 -8.93555 L 71.0938 -8.93555 C 74.5117 -8.93555 76.709 -11.0352 76.709 -14.5508 C 76.709 -18.0664 74.5117 -20.1172 71.0938 -20.1172 L 58.0078 -20.1172 L 58.0078 -20.6055 L 66.9434 -30.8594 C 72.0703 -36.6699 75.1953 -41.6016 75.1465 -47.8516 C 75.1953 -56.9336 68.6523 -63.2812 58.4473 -63.2812 C 50.5371 -63.2812 43.75 -58.5449 41.9434 -51.709 C 41.6016 -50.6348 41.4551 -49.6094 41.4551 -48.3398 C 41.4551 -45.3613 43.6035 -43.4082 46.5332 -43.4082 C 49.3164 -43.4082 50.7812 -44.9707 51.6113 -47.2656 C 52.7344 -50.5371 55.0293 -52.3926 58.252 -52.3926 C 61.8652 -52.3926 64.3555 -50.0977 64.3555 -46.7773 C 64.3555 -43.3105 61.7676 -40.4785 58.4961 -36.7676 L 44.6777 -21.0449 C 42.627 -18.75 41.9434 -16.8945 41.9434 -14.4531 C 41.9434 -11.3281 44.043 -8.93555 47.3633 -8.93555 Z"/>
  </g>
  <g id="Black-L" transform="matrix(1 0 0 1 2854.08 1556)">
   <path d="M 79.2969 32.8613 C 116.748 32.8613 147.363 2.19727 147.363 -35.2051 C 147.363 -72.6074 116.699 -103.271 79.2969 -103.271 C 41.8945 -103.271 11.2793 -72.6074 11.2793 -35.2051 C 11.2793 2.19727 41.8945 32.8613 79.2969 32.8613 Z M 79.2969 12.4023 C 52.9297 12.4023 31.7383 -8.83789 31.7383 -35.2051 C 31.7383 -61.5723 52.9297 -82.8125 79.2969 -82.8125 C 105.664 -82.8125 126.904 -61.5723 126.953 -35.2051 C 126.953 -8.83789 105.664 12.4023 79.2969 12.4023 Z M 88.5254 -9.13086 L 110.742 -9.13086 C 114.6 -9.13086 117.041 -11.4746 117.041 -15.4785 C 117.041 -19.4336 114.6 -21.6797 110.742 -21.6797 L 100.244 -21.6797 L 100.244 -22.2168 L 107.471 -30.5176 C 112.5 -36.2305 115.576 -41.1621 115.527 -47.4121 C 115.576 -56.4453 109.082 -62.8906 98.9258 -62.8906 C 91.0645 -62.8906 84.3262 -58.3008 82.4707 -51.5137 C 82.1289 -50.3418 81.9336 -49.2188 81.9336 -47.8027 C 81.9336 -44.5312 84.375 -42.3828 87.5488 -42.3828 C 90.6738 -42.3828 92.334 -44.1406 93.2129 -46.582 C 94.2383 -49.2188 96.0449 -50.7324 98.584 -50.7324 C 101.416 -50.7324 103.516 -48.7793 103.516 -46.1426 C 103.516 -42.9688 101.123 -40.4785 97.9492 -36.8652 L 85.6445 -22.998 C 83.252 -20.3125 82.4707 -18.1641 82.4707 -15.332 C 82.4707 -11.9141 84.7656 -9.13086 88.5254 -9.13086 Z M 49.6094 -9.13086 L 71.8262 -9.13086 C 75.7324 -9.13086 78.1738 -11.4746 78.1738 -15.4785 C 78.1738 -19.4336 75.7324 -21.6797 71.8262 -21.6797 L 61.3281 -21.6797 L 61.3281 -22.2168 L 68.5547 -30.5176 C 73.584 -36.2305 76.6602 -41.1621 76.6113 -47.4121 C 76.6602 -56.4453 70.166 -62.8906 60.0098 -62.8906 C 52.1973 -62.8906 45.459 -58.3008 43.5547 -51.5137 C 43.2129 -50.3418 43.0664 -49.2188 43.0664 -47.8027 C 43.0664 -44.5312 45.459 -42.3828 48.6328 -42.3828 C 51.8066 -42.3828 53.4668 -44.1406 54.2969 -46.582 C 55.3711 -49.2188 57.1777 -50.7324 59.668 -50.7324 C 62.5488 -50.7324 64.5996 -48.7793 64.5996 -46.1426 C 64.5996 -42.9688 62.207 -40.4785 59.0332 -36.8652 L 46.7773 -22.998 C 44.3359 -20.3125 43.5547 -18.1641 43.5547 -15.332 C 43.5547 -11.9141 45.8984 -9.13086 49.6094 -9.13086 Z"/>
  </g>
 </g>
</svg>
