<?xml version="1.0" encoding="UTF-8"?>
<!--Generator: Apple Native CoreSVG 123-->
<!DOCTYPE svg
PUBLIC "-//W3C//DTD SVG 1.1//EN"
       "http://www.w3.org/Graphics/SVG/1.1/DTD/svg11.dtd">
<svg version="1.1" xmlns="http://www.w3.org/2000/svg" xmlns:xlink="http://www.w3.org/1999/xlink" width="3300" height="2200">
 <!--glyph: "uni100541.medium", point size: 100.000000, font version: "Version 15.0d4e20", template writer version: "2"-->
 <g id="Notes">
  <rect height="2200" id="artboard" style="fill:white;opacity:1" width="3300" x="0" y="0"/>
  <line id="" style="fill:none;stroke:black;opacity:1;stroke-width:0.5;" x1="263" x2="3036" y1="292" y2="292"/>
  <text style="stroke:none;fill:black;font-family:-apple-system,&quot;SF Pro Display&quot;,&quot;SF Pro Text&quot;,Helvetica,sans-serif;font-weight:bold;" transform="matrix(1 0 0 1 263 322)">Weight/Scale Variations</text>
  <text style="stroke:none;fill:black;font-family:-apple-system,&quot;SF Pro Display&quot;,&quot;SF Pro Text&quot;,Helvetica,sans-serif;text-anchor:middle;" transform="matrix(1 0 0 1 559.711 322)">Ultralight</text>
  <text style="stroke:none;fill:black;font-family:-apple-system,&quot;SF Pro Display&quot;,&quot;SF Pro Text&quot;,Helvetica,sans-serif;text-anchor:middle;" transform="matrix(1 0 0 1 856.422 322)">Thin</text>
  <text style="stroke:none;fill:black;font-family:-apple-system,&quot;SF Pro Display&quot;,&quot;SF Pro Text&quot;,Helvetica,sans-serif;text-anchor:middle;" transform="matrix(1 0 0 1 1153.13 322)">Light</text>
  <text style="stroke:none;fill:black;font-family:-apple-system,&quot;SF Pro Display&quot;,&quot;SF Pro Text&quot;,Helvetica,sans-serif;text-anchor:middle;" transform="matrix(1 0 0 1 1449.84 322)">Regular</text>
  <text style="stroke:none;fill:black;font-family:-apple-system,&quot;SF Pro Display&quot;,&quot;SF Pro Text&quot;,Helvetica,sans-serif;text-anchor:middle;" transform="matrix(1 0 0 1 1746.56 322)">Medium</text>
  <text style="stroke:none;fill:black;font-family:-apple-system,&quot;SF Pro Display&quot;,&quot;SF Pro Text&quot;,Helvetica,sans-serif;text-anchor:middle;" transform="matrix(1 0 0 1 2043.27 322)">Semibold</text>
  <text style="stroke:none;fill:black;font-family:-apple-system,&quot;SF Pro Display&quot;,&quot;SF Pro Text&quot;,Helvetica,sans-serif;text-anchor:middle;" transform="matrix(1 0 0 1 2339.98 322)">Bold</text>
  <text style="stroke:none;fill:black;font-family:-apple-system,&quot;SF Pro Display&quot;,&quot;SF Pro Text&quot;,Helvetica,sans-serif;text-anchor:middle;" transform="matrix(1 0 0 1 2636.69 322)">Heavy</text>
  <text style="stroke:none;fill:black;font-family:-apple-system,&quot;SF Pro Display&quot;,&quot;SF Pro Text&quot;,Helvetica,sans-serif;text-anchor:middle;" transform="matrix(1 0 0 1 2933.4 322)">Black</text>
  <line id="" style="fill:none;stroke:black;opacity:1;stroke-width:0.5;" x1="263" x2="3036" y1="1903" y2="1903"/>
  <g id="" transform="matrix(1 0 0 1 263 1933)">
   <path d="M 9.24805 0.830078 C 13.5547 0.830078 17.1387 -2.74414 17.1387 -7.05078 C 17.1387 -11.3574 13.5449 -14.9316 9.23828 -14.9316 C 4.94141 -14.9316 1.36719 -11.3574 1.36719 -7.05078 C 1.36719 -2.74414 4.95117 0.830078 9.24805 0.830078 Z M 9.24805 -0.654297 C 5.70312 -0.654297 2.87109 -3.49609 2.87109 -7.05078 C 2.87109 -10.6055 5.69336 -13.4473 9.23828 -13.4473 C 12.793 -13.4473 15.6348 -10.6055 15.6445 -7.05078 C 15.6543 -3.49609 12.8027 -0.654297 9.24805 -0.654297 Z M 9.22852 -3.42773 C 9.69727 -3.42773 9.9707 -3.74023 9.9707 -4.25781 L 9.9707 -6.31836 L 12.1973 -6.31836 C 12.6953 -6.31836 13.0371 -6.57227 13.0371 -7.04102 C 13.0371 -7.51953 12.7148 -7.7832 12.1973 -7.7832 L 9.9707 -7.7832 L 9.9707 -10.0098 C 9.9707 -10.5273 9.69727 -10.8496 9.22852 -10.8496 C 8.75977 -10.8496 8.50586 -10.5078 8.50586 -10.0098 L 8.50586 -7.7832 L 6.29883 -7.7832 C 5.78125 -7.7832 5.44922 -7.51953 5.44922 -7.04102 C 5.44922 -6.57227 5.80078 -6.31836 6.29883 -6.31836 L 8.50586 -6.31836 L 8.50586 -4.25781 C 8.50586 -3.75977 8.75977 -3.42773 9.22852 -3.42773 Z"/>
  </g>
  <g id="" transform="matrix(1 0 0 1 281.506 1933)">
   <path d="M 11.709 2.91016 C 17.1484 2.91016 21.6699 -1.60156 21.6699 -7.05078 C 21.6699 -12.4902 17.1387 -17.0117 11.6992 -17.0117 C 6.25 -17.0117 1.74805 -12.4902 1.74805 -7.05078 C 1.74805 -1.60156 6.25977 2.91016 11.709 2.91016 Z M 11.709 1.25 C 7.09961 1.25 3.41797 -2.44141 3.41797 -7.05078 C 3.41797 -11.6504 7.08984 -15.3516 11.6992 -15.3516 C 16.2988 -15.3516 20 -11.6504 20.0098 -7.05078 C 20.0195 -2.44141 16.3086 1.25 11.709 1.25 Z M 11.6797 -2.41211 C 12.207 -2.41211 12.5195 -2.77344 12.5195 -3.33984 L 12.5195 -6.23047 L 15.5762 -6.23047 C 16.123 -6.23047 16.5039 -6.51367 16.5039 -7.03125 C 16.5039 -7.55859 16.1426 -7.86133 15.5762 -7.86133 L 12.5195 -7.86133 L 12.5195 -10.9277 C 12.5195 -11.5039 12.207 -11.8555 11.6797 -11.8555 C 11.1621 -11.8555 10.8789 -11.4844 10.8789 -10.9277 L 10.8789 -7.86133 L 7.83203 -7.86133 C 7.25586 -7.86133 6.89453 -7.55859 6.89453 -7.03125 C 6.89453 -6.51367 7.28516 -6.23047 7.83203 -6.23047 L 10.8789 -6.23047 L 10.8789 -3.33984 C 10.8789 -2.79297 11.1621 -2.41211 11.6797 -2.41211 Z"/>
  </g>
  <g id="" transform="matrix(1 0 0 1 304.914 1933)">
   <path d="M 14.9707 5.67383 C 21.9336 5.67383 27.6855 -0.078125 27.6855 -7.04102 C 27.6855 -14.0039 21.9238 -19.7559 14.9609 -19.7559 C 7.99805 -19.7559 2.25586 -14.0039 2.25586 -7.04102 C 2.25586 -0.078125 8.00781 5.67383 14.9707 5.67383 Z M 14.9707 3.85742 C 8.92578 3.85742 4.08203 -1.00586 4.08203 -7.04102 C 4.08203 -13.0762 8.91602 -17.9395 14.9609 -17.9395 C 20.9961 -17.9395 25.8594 -13.0762 25.8691 -7.04102 C 25.8789 -1.00586 21.0059 3.85742 14.9707 3.85742 Z M 14.9414 -1.06445 C 15.5176 -1.06445 15.8594 -1.45508 15.8594 -2.06055 L 15.8594 -6.13281 L 20.0977 -6.13281 C 20.6934 -6.13281 21.1133 -6.46484 21.1133 -7.02148 C 21.1133 -7.59766 20.7227 -7.93945 20.0977 -7.93945 L 15.8594 -7.93945 L 15.8594 -12.1875 C 15.8594 -12.8027 15.5176 -13.1934 14.9414 -13.1934 C 14.3848 -13.1934 14.0625 -12.7832 14.0625 -12.1875 L 14.0625 -7.93945 L 9.82422 -7.93945 C 9.20898 -7.93945 8.80859 -7.59766 8.80859 -7.02148 C 8.80859 -6.46484 9.23828 -6.13281 9.82422 -6.13281 L 14.0625 -6.13281 L 14.0625 -2.06055 C 14.0625 -1.47461 14.3848 -1.06445 14.9414 -1.06445 Z"/>
  </g>
  <text style="stroke:none;fill:black;font-family:-apple-system,&quot;SF Pro Display&quot;,&quot;SF Pro Text&quot;,Helvetica,sans-serif;font-weight:bold;" transform="matrix(1 0 0 1 263 1953)">Design Variations</text>
  <text style="stroke:none;fill:black;font-family:-apple-system,&quot;SF Pro Display&quot;,&quot;SF Pro Text&quot;,Helvetica,sans-serif;" transform="matrix(1 0 0 1 263 1971)">Symbols are supported in up to nine weights and three scales.</text>
  <text style="stroke:none;fill:black;font-family:-apple-system,&quot;SF Pro Display&quot;,&quot;SF Pro Text&quot;,Helvetica,sans-serif;" transform="matrix(1 0 0 1 263 1989)">For optimal layout with text and other symbols, vertically align</text>
  <text style="stroke:none;fill:black;font-family:-apple-system,&quot;SF Pro Display&quot;,&quot;SF Pro Text&quot;,Helvetica,sans-serif;" transform="matrix(1 0 0 1 263 2007)">symbols with the adjacent text.</text>
  <rect height="14" id="" style="fill:#00AEEF;stroke:none;opacity:0.4;" width="3" x="776" y="1919"/>
  <g id="" transform="matrix(1 0 0 1 779 1933)">
   <path d="M 10.5273 0 L 12.373 0 L 7.17773 -14.0918 L 5.43945 -14.0918 L 0.244141 0 L 2.08984 0 L 3.50586 -4.0332 L 9.11133 -4.0332 Z M 6.2793 -11.9531 L 6.33789 -11.9531 L 8.59375 -5.52734 L 4.02344 -5.52734 Z"/>
  </g>
  <rect height="14" id="" style="fill:#00AEEF;stroke:none;opacity:0.4;" width="3" x="791.617" y="1919"/>
  <text style="stroke:none;fill:black;font-family:-apple-system,&quot;SF Pro Display&quot;,&quot;SF Pro Text&quot;,Helvetica,sans-serif;font-weight:bold;" transform="matrix(1 0 0 1 776 1953)">Side Bearings</text>
  <text style="stroke:none;fill:black;font-family:-apple-system,&quot;SF Pro Display&quot;,&quot;SF Pro Text&quot;,Helvetica,sans-serif;" transform="matrix(1 0 0 1 776 1971)">Horizontal padding on the left and right side of each symbol</text>
  <text style="stroke:none;fill:black;font-family:-apple-system,&quot;SF Pro Display&quot;,&quot;SF Pro Text&quot;,Helvetica,sans-serif;" transform="matrix(1 0 0 1 776 1989)">can be adjusted by modifying the width of the blue rectangles.</text>
  <text style="stroke:none;fill:black;font-family:-apple-system,&quot;SF Pro Display&quot;,&quot;SF Pro Text&quot;,Helvetica,sans-serif;" transform="matrix(1 0 0 1 776 2007)">Modifications are automatically applied proportionally to all</text>
  <text style="stroke:none;fill:black;font-family:-apple-system,&quot;SF Pro Display&quot;,&quot;SF Pro Text&quot;,Helvetica,sans-serif;" transform="matrix(1 0 0 1 776 2025)">scales and weights.</text>
  <g id="" transform="matrix(1 0 0 1 1289 1933)">
   <path d="M 2.96875 2.35352 L 3.80859 3.19336 C 4.84375 4.22852 6.12305 4.15039 7.19727 2.97852 L 16.1621 -6.82617 C 16.5527 -6.74805 16.9629 -6.8457 17.4902 -7.02148 C 18.1738 -7.25586 18.2715 -7.25586 18.3887 -7.13867 C 18.5352 -7.01172 18.4863 -6.89453 18.2422 -6.25 C 17.8809 -5.33203 17.8125 -4.79492 18.5547 -4.02344 L 19.4238 -3.13477 C 20.2734 -2.24609 21.3281 -2.26562 22.2168 -3.14453 L 25.0586 -5.97656 C 25.9473 -6.86523 25.957 -7.92969 25.0781 -8.7793 L 24.1797 -9.64844 C 23.4082 -10.4004 22.8711 -10.3516 21.9629 -9.98047 C 21.3184 -9.72656 21.2012 -9.6875 21.0645 -9.81445 C 20.9375 -9.93164 20.9473 -10.0391 21.1816 -10.7129 C 21.5332 -11.6895 21.5723 -12.2852 20.752 -13.0957 L 19.3359 -14.5117 C 15.1953 -18.6133 11.2305 -18.7402 7.65625 -15.4395 C 7.08008 -14.9023 6.99219 -14.1504 7.53906 -13.6133 L 7.79297 -13.3594 C 8.22266 -12.9297 8.86719 -12.8418 9.41406 -13.1152 C 11.0645 -13.9453 12.2559 -14.0234 13.457 -12.9785 L 13.0273 -11.416 C 12.8516 -10.8008 12.793 -10.3418 12.9199 -9.93164 L 3.18359 -1.04492 C 2.02148 0.0292969 1.93359 1.32812 2.96875 2.35352 Z M 8.96484 -14.4922 C 8.89648 -14.5703 8.86719 -14.6582 8.99414 -14.7559 C 11.709 -17.2852 15.0391 -16.8457 18.3496 -13.5254 L 19.6973 -12.168 C 20.0879 -11.7773 20.0977 -11.582 19.8828 -10.8691 C 19.6582 -10.127 19.502 -9.53125 20.1465 -8.88672 C 20.8105 -8.22266 21.2891 -8.41797 22.207 -8.63281 C 22.9004 -8.79883 23.0664 -8.79883 23.4473 -8.41797 L 24.0918 -7.77344 C 24.4043 -7.48047 24.4141 -7.32422 24.0723 -6.97266 L 21.2207 -4.13086 C 20.8887 -3.79883 20.7227 -3.79883 20.4297 -4.10156 L 19.7852 -4.75586 C 19.4141 -5.13672 19.4141 -5.30273 19.5801 -6.01562 C 19.7852 -6.88477 19.9805 -7.38281 19.3262 -8.04688 C 18.6719 -8.7207 18.0762 -8.57422 17.3438 -8.33008 C 16.5625 -8.06641 16.3281 -8.06641 15.8984 -8.49609 L 14.6094 -9.78516 C 14.1699 -10.2246 14.1309 -10.4395 14.2676 -10.9082 L 15.0293 -13.3984 C 13.3887 -15.2832 11.4941 -15.5566 9.20898 -14.4434 C 9.11133 -14.3945 9.04297 -14.4141 8.96484 -14.4922 Z M 3.96484 1.36719 C 3.52539 0.927734 3.54492 0.537109 4.14062 -0.00976562 L 13.7402 -8.81836 L 15 -7.55859 L 6.17188 2.02148 C 5.625 2.60742 5.24414 2.64648 4.79492 2.19727 Z"/>
  </g>
  <text style="stroke:none;fill:black;font-family:-apple-system,&quot;SF Pro Display&quot;,&quot;SF Pro Text&quot;,Helvetica,sans-serif;font-weight:bold;" transform="matrix(1 0 0 1 1289 1953)">Exporting</text>
  <text style="stroke:none;fill:black;font-family:-apple-system,&quot;SF Pro Display&quot;,&quot;SF Pro Text&quot;,Helvetica,sans-serif;" transform="matrix(1 0 0 1 1289 1971)">Symbols should be outlined when exporting to ensure the</text>
  <text style="stroke:none;fill:black;font-family:-apple-system,&quot;SF Pro Display&quot;,&quot;SF Pro Text&quot;,Helvetica,sans-serif;" transform="matrix(1 0 0 1 1289 1989)">design is preserved when submitting to Xcode.</text>
  <text id="template-version" style="stroke:none;fill:black;font-family:-apple-system,&quot;SF Pro Display&quot;,&quot;SF Pro Text&quot;,Helvetica,sans-serif;text-anchor:end;" transform="matrix(1 0 0 1 3036 1933)">Template v.0.1</text>
  <text style="stroke:none;fill:black;font-family:-apple-system,&quot;SF Pro Display&quot;,&quot;SF Pro Text&quot;,Helvetica,sans-serif;text-anchor:end;" transform="matrix(1 0 0 1 3036 1951)">Generated from 24.square</text>
  <text style="stroke:none;fill:black;font-family:-apple-system,&quot;SF Pro Display&quot;,&quot;SF Pro Text&quot;,Helvetica,sans-serif;text-anchor:end;" transform="matrix(1 0 0 1 3036 1969)">Typeset at 100 points</text>
  <text style="stroke:none;fill:black;font-family:-apple-system,&quot;SF Pro Display&quot;,&quot;SF Pro Text&quot;,Helvetica,sans-serif;" transform="matrix(1 0 0 1 263 726)">Small</text>
  <text style="stroke:none;fill:black;font-family:-apple-system,&quot;SF Pro Display&quot;,&quot;SF Pro Text&quot;,Helvetica,sans-serif;" transform="matrix(1 0 0 1 263 1156)">Medium</text>
  <text style="stroke:none;fill:black;font-family:-apple-system,&quot;SF Pro Display&quot;,&quot;SF Pro Text&quot;,Helvetica,sans-serif;" transform="matrix(1 0 0 1 263 1586)">Large</text>
 </g>
 <g id="Guides">
  <g id="H-reference" style="fill:#27AAE1;stroke:none;" transform="matrix(1 0 0 1 339 696)">
   <path d="M 54.9316 0 L 57.666 0 L 30.5664 -70.459 L 28.0762 -70.459 L 0.976562 0 L 3.66211 0 L 12.9395 -24.4629 L 45.7031 -24.4629 Z M 29.1992 -67.0898 L 29.4434 -67.0898 L 44.8242 -26.709 L 13.8184 -26.709 Z"/>
  </g>
  <line id="Baseline-S" style="fill:none;stroke:#27AAE1;opacity:1;stroke-width:0.577;" x1="263" x2="3036" y1="696" y2="696"/>
  <line id="Capline-S" style="fill:none;stroke:#27AAE1;opacity:1;stroke-width:0.577;" x1="263" x2="3036" y1="625.541" y2="625.541"/>
  <g id="H-reference" style="fill:#27AAE1;stroke:none;" transform="matrix(1 0 0 1 339 1126)">
   <path d="M 54.9316 0 L 57.666 0 L 30.5664 -70.459 L 28.0762 -70.459 L 0.976562 0 L 3.66211 0 L 12.9395 -24.4629 L 45.7031 -24.4629 Z M 29.1992 -67.0898 L 29.4434 -67.0898 L 44.8242 -26.709 L 13.8184 -26.709 Z"/>
  </g>
  <line id="Baseline-M" style="fill:none;stroke:#27AAE1;opacity:1;stroke-width:0.577;" x1="263" x2="3036" y1="1126" y2="1126"/>
  <line id="Capline-M" style="fill:none;stroke:#27AAE1;opacity:1;stroke-width:0.577;" x1="263" x2="3036" y1="1055.54" y2="1055.54"/>
  <g id="H-reference" style="fill:#27AAE1;stroke:none;" transform="matrix(1 0 0 1 339 1556)">
   <path d="M 54.9316 0 L 57.666 0 L 30.5664 -70.459 L 28.0762 -70.459 L 0.976562 0 L 3.66211 0 L 12.9395 -24.4629 L 45.7031 -24.4629 Z M 29.1992 -67.0898 L 29.4434 -67.0898 L 44.8242 -26.709 L 13.8184 -26.709 Z"/>
  </g>
  <line id="Baseline-L" style="fill:none;stroke:#27AAE1;opacity:1;stroke-width:0.577;" x1="263" x2="3036" y1="1556" y2="1556"/>
  <line id="Capline-L" style="fill:none;stroke:#27AAE1;opacity:1;stroke-width:0.577;" x1="263" x2="3036" y1="1485.54" y2="1485.54"/>
  <rect height="119.336" id="left-margin" style="fill:#00AEEF;stroke:none;opacity:0.4;" width="12.4512" x="1392.42" y="1030.79"/>
  <rect height="119.336" id="right-margin" style="fill:#00AEEF;stroke:none;opacity:0.4;" width="12.5" x="1494.77" y="1030.79"/>
 </g>
 <g id="Symbols">
  <g id="Ultralight-S" transform="matrix(1 0 0 1 516.352 696)">
   <path d="M 19.7754 -1.5625 L 66.9922 -1.5625 C 73.5352 -1.5625 76.9531 -5.12695 76.9531 -11.5234 L 76.9531 -58.7891 C 76.9531 -65.2344 73.5352 -68.75 66.9922 -68.75 L 19.7754 -68.75 C 13.2324 -68.75 9.76562 -65.2832 9.76562 -58.7891 L 9.76562 -11.5234 C 9.76562 -5.0293 13.2324 -1.5625 19.7754 -1.5625 Z M 19.873 -3.75977 C 14.6484 -3.75977 11.9629 -6.44531 11.9629 -11.6699 L 11.9629 -58.6426 C 11.9629 -63.8672 14.6484 -66.5527 19.873 -66.5527 L 66.8945 -66.5527 C 71.875 -66.5527 74.7559 -63.8672 74.7559 -58.6426 L 74.7559 -11.6699 C 74.7559 -6.44531 71.875 -3.75977 66.8945 -3.75977 Z M 21.9238 -18.3594 L 40.6738 -18.3594 C 41.3086 -18.3594 41.6992 -18.8477 41.6992 -19.4336 C 41.6992 -20.0684 41.3086 -20.5078 40.6738 -20.5078 L 23.9258 -20.5078 L 23.9258 -20.7031 L 35.3027 -33.3496 C 39.2578 -37.6953 40.7227 -40.4297 40.7227 -43.6523 C 40.7227 -49.0234 36.7676 -52.5391 30.7617 -52.5391 C 25.5371 -52.5391 21.1914 -49.3652 20.3613 -44.873 C 20.3125 -44.4824 20.2637 -44.1895 20.2637 -43.7988 C 20.2637 -43.1152 20.7031 -42.6758 21.3867 -42.6758 C 22.0703 -42.6758 22.4609 -43.0176 22.5098 -43.7012 C 22.8027 -47.6562 26.1719 -50.4395 30.7617 -50.4395 C 35.4492 -50.4395 38.4277 -47.8027 38.4277 -43.6523 C 38.4277 -40.8691 37.207 -38.4766 34.3262 -35.3516 L 21.0938 -20.6055 C 20.8008 -20.2637 20.7031 -19.9707 20.7031 -19.5801 C 20.7031 -18.8477 21.1426 -18.3594 21.9238 -18.3594 Z M 63.0371 -18.1152 C 63.7207 -18.1152 64.1602 -18.6035 64.1602 -19.2871 L 64.1602 -26.5625 L 68.7988 -26.5625 C 69.4336 -26.5625 69.8242 -27.0508 69.8242 -27.6367 C 69.8242 -28.2227 69.4336 -28.6621 68.7988 -28.6621 L 64.1602 -28.6621 L 64.1602 -50.8789 C 64.1602 -51.9043 63.4766 -52.5391 62.3535 -52.5391 C 61.2793 -52.5391 60.6445 -52.2461 59.9121 -51.1719 C 56.4941 -46.1914 48.4863 -34.6191 45.6543 -29.5898 C 45.4102 -29.1992 45.2148 -28.7109 45.2148 -28.2715 C 45.2148 -27.1973 45.8984 -26.5625 47.1191 -26.5625 L 61.9141 -26.5625 L 61.9141 -19.2871 C 61.9141 -18.6035 62.4023 -18.1152 63.0371 -18.1152 Z M 61.9141 -28.6621 L 47.7539 -28.6621 L 47.7539 -28.8574 C 50.0977 -32.7637 59.1309 -46.1914 61.7188 -50.0488 L 61.9141 -50.0488 Z"/>
  </g>
  <g id="Thin-S" transform="matrix(1 0 0 1 812.599 696)">
   <path d="M 20.3125 -1.12305 L 67.334 -1.12305 C 74.2676 -1.12305 77.8809 -4.78516 77.8809 -11.6211 L 77.8809 -58.6914 C 77.8809 -65.5762 74.2676 -69.2383 67.334 -69.2383 L 20.3125 -69.2383 C 13.3789 -69.2383 9.76562 -65.625 9.76562 -58.6914 L 9.76562 -11.6211 C 9.76562 -4.6875 13.3789 -1.12305 20.3125 -1.12305 Z M 20.4102 -4.44336 C 15.625 -4.44336 13.0859 -6.93359 13.0859 -11.8164 L 13.0859 -58.5449 C 13.0859 -63.3789 15.625 -65.918 20.4102 -65.918 L 67.2363 -65.918 C 71.875 -65.918 74.5605 -63.3789 74.5605 -58.5449 L 74.5605 -11.8164 C 74.5605 -6.93359 71.875 -4.44336 67.2363 -4.44336 Z M 22.6562 -18.457 L 40.8691 -18.457 C 41.6992 -18.457 42.2363 -19.043 42.2363 -19.873 C 42.2363 -20.752 41.6992 -21.2891 40.8691 -21.2891 L 25.4395 -21.2891 L 25.4395 -21.5332 L 35.9375 -33.252 C 39.5996 -37.3535 41.2598 -40.1855 41.2598 -43.6035 C 41.2598 -49.0723 37.3047 -52.6367 31.2012 -52.6367 C 26.0742 -52.6367 21.7285 -49.4629 20.8496 -45.0684 C 20.8008 -44.6289 20.752 -44.2871 20.752 -43.8965 C 20.752 -43.0176 21.2891 -42.3828 22.168 -42.3828 C 22.998 -42.3828 23.3887 -42.8711 23.584 -43.6523 C 24.1211 -47.3633 27.0996 -49.8047 31.25 -49.8047 C 35.5469 -49.8047 38.2812 -47.3633 38.2812 -43.5059 C 38.2812 -40.7715 36.8164 -38.3789 34.1797 -35.498 L 21.6309 -21.3379 C 21.2402 -20.8984 21.0938 -20.5078 21.0938 -19.9707 C 21.0938 -19.043 21.6797 -18.457 22.6562 -18.457 Z M 63.2324 -18.1641 C 64.209 -18.1641 64.7461 -18.7988 64.7461 -19.8242 L 64.7461 -26.2207 L 68.7012 -26.2207 C 69.5312 -26.2207 70.1172 -26.8066 70.1172 -27.6367 C 70.1172 -28.4668 69.5312 -29.0039 68.7012 -29.0039 L 64.7461 -29.0039 L 64.7461 -50.3418 C 64.7461 -51.709 63.7695 -52.6367 62.3535 -52.6367 C 60.9375 -52.6367 60.0586 -52.1484 59.1797 -50.7812 C 55.7617 -45.6055 48.8281 -35.2539 45.9961 -30.2734 C 45.6543 -29.6387 45.459 -29.0527 45.459 -28.418 C 45.459 -27.0508 46.3379 -26.2207 47.8027 -26.2207 L 61.7676 -26.2207 L 61.7676 -19.8242 C 61.7676 -18.8477 62.3535 -18.1641 63.2324 -18.1641 Z M 61.7676 -29.0039 L 48.7305 -29.0039 L 48.7305 -29.1992 C 51.0742 -33.3008 58.7891 -45.0195 61.5723 -49.2676 L 61.7676 -49.2676 Z"/>
  </g>
  <g id="Light-S" transform="matrix(1 0 0 1 1108.46 696)">
   <path d="M 21.3867 -0.292969 L 67.9688 -0.292969 C 75.7324 -0.292969 79.5898 -4.15039 79.5898 -11.7676 L 79.5898 -58.5938 C 79.5898 -66.2109 75.7324 -70.1172 67.9688 -70.1172 L 21.3867 -70.1172 C 13.6719 -70.1172 9.76562 -66.2598 9.76562 -58.5938 L 9.76562 -11.7676 C 9.76562 -4.15039 13.6719 -0.292969 21.3867 -0.292969 Z M 21.4844 -5.71289 C 17.4316 -5.71289 15.1855 -7.86133 15.1855 -12.0605 L 15.1855 -58.3008 C 15.1855 -62.5 17.4316 -64.6973 21.4844 -64.6973 L 67.8711 -64.6973 C 71.875 -64.6973 74.1699 -62.5 74.1699 -58.3008 L 74.1699 -12.0605 C 74.1699 -7.86133 71.875 -5.71289 67.8711 -5.71289 Z M 23.9746 -18.6035 L 41.2598 -18.6035 C 42.4316 -18.6035 43.2617 -19.4824 43.2617 -20.752 C 43.2617 -22.1191 42.4316 -22.8516 41.2598 -22.8516 L 28.3691 -22.8516 L 28.3691 -23.1445 L 37.1094 -33.1055 C 40.2832 -36.7188 42.3828 -39.6973 42.3828 -43.5547 C 42.3828 -49.1699 38.3301 -52.7832 31.9824 -52.7832 C 27.0996 -52.7832 22.8027 -49.6582 21.8262 -45.459 C 21.6797 -44.9707 21.6309 -44.5312 21.6309 -44.0918 C 21.6309 -42.7734 22.4121 -41.8945 23.6328 -41.8945 C 24.707 -41.8945 25.293 -42.5293 25.7324 -43.6523 C 26.6113 -46.875 28.9062 -48.584 32.1777 -48.584 C 35.6934 -48.584 37.9883 -46.4844 37.9883 -43.2129 C 37.9883 -40.5273 36.084 -38.1836 33.9355 -35.7422 L 22.6562 -22.7539 C 22.0703 -22.1191 21.8262 -21.4844 21.8262 -20.8008 C 21.8262 -19.4824 22.6562 -18.6035 23.9746 -18.6035 Z M 63.6719 -18.2617 C 65.0879 -18.2617 65.8691 -19.2383 65.8691 -20.8984 L 65.8691 -25.5859 L 68.5547 -25.5859 C 69.7754 -25.5859 70.6055 -26.3184 70.6055 -27.5879 C 70.6055 -28.8574 69.7754 -29.6387 68.5547 -29.6387 L 65.8691 -29.6387 L 65.8691 -49.3164 C 65.8691 -51.3672 64.4043 -52.7344 62.3047 -52.7344 C 60.2051 -52.7344 58.9355 -51.9531 57.7148 -49.9512 C 54.2969 -44.4336 49.4629 -36.4746 46.7285 -31.543 C 46.1426 -30.4688 45.9473 -29.6875 45.9473 -28.7109 C 45.9473 -26.7578 47.168 -25.5859 49.0723 -25.5859 L 61.4746 -25.5859 L 61.4746 -20.8984 C 61.4746 -19.2383 62.3047 -18.2617 63.6719 -18.2617 Z M 61.4746 -29.6387 L 50.6836 -29.6387 L 50.6836 -29.834 C 53.0273 -34.2773 58.1543 -42.6758 61.2793 -47.8516 L 61.4746 -47.8516 Z"/>
  </g>
  <g id="Regular-S" transform="matrix(1 0 0 1 1404.51 696)">
   <path d="M 22.2168 0.390625 L 68.457 0.390625 C 76.8066 0.390625 80.9082 -3.71094 80.9082 -11.9141 L 80.9082 -58.4961 C 80.9082 -66.6992 76.8066 -70.8008 68.457 -70.8008 L 22.2168 -70.8008 C 13.916 -70.8008 9.76562 -66.6992 9.76562 -58.4961 L 9.76562 -11.9141 C 9.76562 -3.71094 13.916 0.390625 22.2168 0.390625 Z M 22.3145 -6.68945 C 18.7988 -6.68945 16.7969 -8.54492 16.7969 -12.2559 L 16.7969 -58.1543 C 16.7969 -61.8164 18.7988 -63.7207 22.3145 -63.7207 L 68.3594 -63.7207 C 71.875 -63.7207 73.877 -61.8164 73.877 -58.1543 L 73.877 -12.2559 C 73.877 -8.54492 71.875 -6.68945 68.3594 -6.68945 Z M 25 -18.75 L 41.5527 -18.75 C 42.9688 -18.75 44.043 -19.7754 44.043 -21.4355 C 44.043 -23.0957 42.9688 -24.0723 41.5527 -24.0723 L 30.6152 -24.0723 L 30.6152 -24.3652 L 38.0371 -32.959 C 40.8203 -36.2793 43.2129 -39.3066 43.2129 -43.5059 C 43.2129 -49.2188 39.0625 -52.8809 32.6172 -52.8809 C 27.8809 -52.8809 23.6328 -49.8047 22.5098 -45.752 C 22.4121 -45.2148 22.3145 -44.7266 22.3145 -44.2383 C 22.3145 -42.627 23.2422 -41.5039 24.8047 -41.5039 C 26.0254 -41.5039 26.709 -42.2852 27.2949 -43.6035 C 28.5156 -46.4355 30.2734 -47.6562 32.8613 -47.6562 C 35.8398 -47.6562 37.793 -45.8008 37.793 -43.0176 C 37.793 -40.3809 35.498 -38.0371 33.7402 -35.9375 L 23.3887 -23.7793 C 22.7539 -23.0469 22.4121 -22.2168 22.4121 -21.3867 C 22.4121 -19.7754 23.3887 -18.75 25 -18.75 Z M 63.9648 -18.3105 C 65.7715 -18.3105 66.748 -19.5312 66.748 -21.7285 L 66.748 -25.0977 L 68.457 -25.0977 C 69.9707 -25.0977 70.9961 -25.9766 70.9961 -27.5879 C 70.9961 -29.1992 69.9707 -30.0781 68.457 -30.0781 L 66.748 -30.0781 L 66.748 -48.584 C 66.748 -51.123 64.8926 -52.832 62.3047 -52.832 C 59.668 -52.832 58.0566 -51.8066 56.6406 -49.3652 C 53.2227 -43.5059 49.9023 -37.4512 47.2656 -32.5195 C 46.5332 -31.1035 46.2891 -30.127 46.2891 -28.9062 C 46.2891 -26.5137 47.8027 -25.0977 50.0488 -25.0977 L 61.2793 -25.0977 L 61.2793 -21.7285 C 61.2793 -19.5801 62.2559 -18.3105 63.9648 -18.3105 Z M 61.2793 -30.0781 L 52.1484 -30.0781 L 52.1484 -30.2734 C 54.541 -35.0098 57.7148 -40.918 61.0352 -46.7773 L 61.2793 -46.7773 Z"/>
  </g>
  <g id="Medium-S" transform="matrix(1 0 0 1 1700.63 696)">
   <path d="M 22.8516 0.976562 L 68.9941 0.976562 C 77.6367 0.976562 82.0801 -3.4668 82.0801 -11.9629 L 82.0801 -58.3984 C 82.0801 -66.9434 77.6367 -71.3867 68.9941 -71.3867 L 22.8516 -71.3867 C 14.2578 -71.3867 9.76562 -66.9434 9.76562 -58.3984 L 9.76562 -11.9629 C 9.76562 -3.4668 14.2578 0.976562 22.8516 0.976562 Z M 23.4375 -7.71484 C 20.2148 -7.71484 18.4082 -9.375 18.4082 -12.793 L 18.4082 -57.6172 C 18.4082 -61.0352 20.2148 -62.6953 23.4375 -62.6953 L 68.4082 -62.6953 C 71.6309 -62.6953 73.4375 -61.0352 73.4375 -57.6172 L 73.4375 -12.793 C 73.4375 -9.375 71.6309 -7.71484 68.4082 -7.71484 Z M 26.2695 -18.8965 L 41.8945 -18.8965 C 43.6035 -18.8965 44.7754 -20.0684 44.7754 -21.9238 C 44.7754 -23.877 43.6035 -24.9512 41.8945 -24.9512 L 32.3242 -24.9512 L 32.3242 -25.2441 L 38.8184 -32.7637 C 41.6992 -36.084 43.9453 -39.1602 43.8965 -43.2129 C 43.9453 -48.8281 39.8438 -52.5391 33.4961 -52.5391 C 28.7598 -52.5391 24.5605 -49.6094 23.4375 -45.5078 C 23.2422 -44.9219 23.1445 -44.3848 23.1445 -43.75 C 23.1445 -42.041 24.2676 -40.8691 25.9277 -40.8691 C 27.3926 -40.8691 28.1738 -41.748 28.7598 -43.1152 C 29.7852 -45.5566 31.2988 -46.6797 33.5938 -46.6797 C 36.1816 -46.6797 37.9395 -45.0684 37.9395 -42.627 C 37.9395 -40.1855 35.8887 -38.1348 34.082 -35.9863 L 24.6582 -25 C 23.7305 -23.9746 23.3398 -22.998 23.3398 -21.875 C 23.3398 -20.1172 24.4629 -18.8965 26.2695 -18.8965 Z M 63.9648 -18.4082 C 65.9668 -18.4082 67.1387 -19.7266 67.1387 -22.2168 L 67.1387 -25.0488 L 68.5059 -25.0488 C 70.0684 -25.0488 71.1426 -26.0254 71.1426 -27.7832 C 71.1426 -29.541 70.0684 -30.6152 68.457 -30.6152 L 67.041 -30.6152 L 67.041 -47.7051 C 67.041 -50.6836 65.1855 -52.4902 62.207 -52.4902 C 59.2285 -52.4902 57.4219 -51.416 55.957 -48.7305 C 52.9297 -43.457 49.9512 -37.6465 47.7051 -33.252 C 46.9727 -31.7383 46.6797 -30.5664 46.6797 -29.1504 C 46.6797 -26.5625 48.291 -25 50.8301 -25 L 60.8887 -25 L 60.8887 -22.2168 C 60.8887 -19.7754 62.0605 -18.4082 63.9648 -18.4082 Z M 61.0352 -30.5664 L 53.0762 -30.5664 L 53.0762 -30.7617 C 55.127 -35.0098 58.0078 -41.0645 60.8398 -46.2891 L 61.0352 -46.2891 Z"/>
  </g>
  <g id="Semibold-S" transform="matrix(1 0 0 1 1996.9 696)">
   <path d="M 23.3398 1.41602 L 69.3848 1.41602 C 78.2227 1.41602 82.959 -3.32031 82.959 -12.0605 L 82.959 -58.3496 C 82.959 -67.0898 78.2227 -71.8262 69.3848 -71.8262 L 23.3398 -71.8262 C 14.5508 -71.8262 9.76562 -67.0898 9.76562 -58.3496 L 9.76562 -12.0605 C 9.76562 -3.32031 14.5508 1.41602 23.3398 1.41602 Z M 24.3164 -8.49609 C 21.2891 -8.49609 19.6777 -10.0098 19.6777 -13.1836 L 19.6777 -57.2266 C 19.6777 -60.4004 21.2891 -61.9141 24.3164 -61.9141 L 68.457 -61.9141 C 71.4355 -61.9141 73.0469 -60.4004 73.0469 -57.2266 L 73.0469 -13.1836 C 73.0469 -10.0098 71.4355 -8.49609 68.457 -8.49609 Z M 27.2461 -19.043 L 42.1387 -19.043 C 44.043 -19.043 45.3613 -20.2637 45.3613 -22.3633 C 45.3613 -24.4141 44.043 -25.5859 42.1387 -25.5859 L 33.6426 -25.5859 L 33.6426 -25.8789 L 39.4043 -32.5684 C 42.3828 -35.9863 44.4824 -39.0137 44.4336 -42.9688 C 44.4824 -48.5352 40.4297 -52.3438 34.1309 -52.3438 C 29.3945 -52.3438 25.2441 -49.4141 24.1211 -45.3125 C 23.9258 -44.6777 23.8281 -44.0918 23.8281 -43.4082 C 23.8281 -41.6016 25.0488 -40.3809 26.8066 -40.3809 C 28.418 -40.3809 29.2969 -41.3086 29.834 -42.7246 C 30.7129 -44.873 32.1289 -45.9473 34.1309 -45.9473 C 36.4258 -45.9473 38.0371 -44.4824 38.0371 -42.334 C 38.0371 -40.0879 36.2305 -38.1836 34.375 -36.0352 L 25.5859 -25.9277 C 24.4629 -24.707 24.0723 -23.6328 24.0723 -22.2656 C 24.0723 -20.4102 25.293 -19.043 27.2461 -19.043 Z M 63.9648 -18.5059 C 66.1133 -18.5059 67.4316 -19.873 67.4316 -22.5586 L 67.4316 -25 L 68.5059 -25 C 70.166 -25 71.2402 -26.0742 71.2402 -27.9297 C 71.2402 -29.834 70.166 -31.0059 68.457 -31.0059 L 67.2852 -31.0059 L 67.2852 -47.0703 C 67.2852 -50.3418 65.4297 -52.1973 62.1094 -52.1973 C 58.8867 -52.1973 56.9336 -51.123 55.4199 -48.291 C 52.7344 -43.457 50 -37.8418 48.0469 -33.7891 C 47.3633 -32.2754 47.0215 -30.9082 47.0215 -29.3457 C 47.0215 -26.5625 48.6328 -24.9023 51.416 -24.9023 L 60.5469 -24.9023 L 60.5469 -22.5586 C 60.5469 -19.9219 61.8652 -18.5059 63.9648 -18.5059 Z M 60.8887 -30.957 L 53.8086 -30.957 L 53.8086 -31.1523 C 55.5664 -34.9609 58.252 -41.1621 60.6934 -45.8984 L 60.8887 -45.8984 Z"/>
  </g>
  <g id="Bold-S" transform="matrix(1 0 0 1 2293.01 696)">
   <path d="M 23.9746 2.00195 L 69.9219 2.00195 C 79.0527 2.00195 84.1797 -3.07617 84.1797 -12.1582 L 84.1797 -58.252 C 84.1797 -67.334 79.0527 -72.4121 69.9219 -72.4121 L 23.9746 -72.4121 C 14.8926 -72.4121 9.76562 -67.334 9.76562 -58.252 L 9.76562 -12.1582 C 9.76562 -3.07617 14.8926 2.00195 23.9746 2.00195 Z M 25.4395 -9.57031 C 22.7051 -9.57031 21.3379 -10.791 21.3379 -13.7207 L 21.3379 -56.6895 C 21.3379 -59.5703 22.7051 -60.8398 25.4395 -60.8398 L 68.457 -60.8398 C 71.1914 -60.8398 72.6074 -59.5703 72.6074 -56.6895 L 72.6074 -13.7207 C 72.6074 -10.791 71.1914 -9.57031 68.457 -9.57031 Z M 28.5156 -19.1895 L 42.4316 -19.1895 C 44.6777 -19.1895 46.0938 -20.5566 46.0938 -22.9004 C 46.0938 -25.1465 44.6777 -26.4648 42.4316 -26.4648 L 35.4004 -26.4648 L 35.4004 -26.8066 L 40.2344 -32.3242 C 43.2617 -35.8398 45.166 -38.8184 45.166 -42.627 C 45.166 -48.1445 41.2109 -52.0508 35.0098 -52.0508 C 30.2734 -52.0508 26.1719 -49.2188 25.0488 -45.0684 C 24.8047 -44.3848 24.707 -43.75 24.707 -42.9199 C 24.707 -41.0156 26.123 -39.7461 27.9785 -39.7461 C 29.7852 -39.7461 30.7617 -40.7715 31.2988 -42.1875 C 31.9824 -43.9941 33.1543 -44.9707 34.8633 -44.9707 C 36.8164 -44.9707 38.1836 -43.7012 38.1836 -41.9434 C 38.1836 -39.8926 36.6211 -38.2812 34.7168 -36.084 L 26.8555 -27.1484 C 25.4883 -25.6348 25 -24.4141 25 -22.8027 C 25 -20.8008 26.3672 -19.1895 28.5156 -19.1895 Z M 63.9648 -18.6035 C 66.3086 -18.6035 67.8223 -20.0684 67.8223 -23.0469 L 67.8223 -24.9023 L 68.5059 -24.9023 C 70.2637 -24.9023 71.3867 -26.123 71.3867 -28.1738 C 71.3867 -30.1758 70.2637 -31.4941 68.457 -31.4941 L 67.5781 -31.4941 L 67.5781 -46.1914 C 67.5781 -49.9023 65.6738 -51.8555 61.9629 -51.8555 C 58.4473 -51.8555 56.2988 -50.7324 54.6875 -47.6562 C 52.4414 -43.4082 50 -38.0371 48.4863 -34.5703 C 47.8516 -32.959 47.4121 -31.3477 47.4121 -29.5898 C 47.4121 -26.6113 49.1211 -24.8047 52.1973 -24.8047 L 60.1562 -24.8047 L 60.1562 -23.0469 C 60.1562 -20.1172 61.6211 -18.6035 63.9648 -18.6035 Z M 60.6445 -31.4453 L 54.7363 -31.4453 L 54.7363 -31.5918 C 56.1523 -34.9121 58.5449 -41.2598 60.498 -45.3613 L 60.6445 -45.3613 Z"/>
  </g>
  <g id="Heavy-S" transform="matrix(1 0 0 1 2588.86 696)">
   <path d="M 24.9023 2.83203 L 70.7031 2.83203 C 80.2246 2.83203 85.8887 -2.7832 85.8887 -12.3047 L 85.8887 -58.1055 C 85.8887 -67.627 80.2246 -73.2422 70.7031 -73.2422 L 24.9023 -73.2422 C 15.3809 -73.2422 9.76562 -67.627 9.76562 -58.1055 L 9.76562 -12.3047 C 9.76562 -2.7832 15.3809 2.83203 24.9023 2.83203 Z M 27.0996 -11.084 C 24.8047 -11.084 23.6816 -12.0117 23.6816 -14.502 L 23.6816 -55.9082 C 23.6816 -58.3984 24.8047 -59.3262 27.0996 -59.3262 L 68.5547 -59.3262 C 70.8496 -59.3262 71.9238 -58.3984 71.9238 -55.9082 L 71.9238 -14.502 C 71.9238 -12.0117 70.8496 -11.084 68.5547 -11.084 Z M 30.4199 -19.4824 L 42.9199 -19.4824 C 45.5566 -19.4824 47.168 -20.9961 47.168 -23.6328 C 47.168 -26.2695 45.5566 -27.7344 42.9199 -27.7344 L 37.9395 -27.7344 L 37.9395 -28.0762 L 41.4062 -32.0312 C 44.5801 -35.5957 46.2402 -38.5742 46.1914 -42.1875 C 46.2402 -47.6074 42.3828 -51.6113 36.3281 -51.6113 C 31.543 -51.6113 27.4902 -48.877 26.3672 -44.7266 C 26.123 -43.9453 26.0254 -43.2129 26.0254 -42.2363 C 26.0254 -40.1367 27.6367 -38.8184 29.6875 -38.8184 C 31.7871 -38.8184 32.9102 -39.9414 33.3984 -41.4551 C 33.7891 -42.6758 34.7168 -43.5547 35.9375 -43.5547 C 37.3047 -43.5547 38.3789 -42.5781 38.3789 -41.3574 C 38.3789 -39.6484 37.2559 -38.4277 35.2051 -36.1816 L 28.6621 -28.9551 C 26.9043 -27.002 26.416 -25.5859 26.416 -23.5352 C 26.416 -21.3379 27.9297 -19.4824 30.4199 -19.4824 Z M 63.9648 -18.75 C 66.6016 -18.75 68.4082 -20.3613 68.4082 -23.7305 L 68.4082 -24.8535 L 68.5059 -24.8535 C 70.4102 -24.8535 71.582 -26.1719 71.582 -28.4668 C 71.582 -30.7129 70.4102 -32.2754 68.457 -32.2754 L 68.0664 -32.2754 L 68.0664 -44.9219 C 68.0664 -49.2188 66.1133 -51.3672 61.7676 -51.3672 C 57.7637 -51.3672 55.3711 -50.1465 53.6621 -46.7285 C 52.002 -43.3594 50.0977 -38.3789 49.1699 -35.6445 C 48.5352 -33.9355 48.0469 -32.0312 48.0469 -29.9316 C 48.0469 -26.6602 49.8047 -24.707 53.3691 -24.707 L 59.5703 -24.707 L 59.5703 -23.7305 C 59.5703 -20.3613 61.3281 -18.75 63.9648 -18.75 Z M 60.3516 -32.1777 L 56.1523 -32.1777 L 56.1523 -32.3242 C 57.0312 -34.8633 59.0332 -41.4551 60.2539 -44.6289 L 60.3516 -44.6289 Z"/>
  </g>
  <g id="Black-S" transform="matrix(1 0 0 1 2884.82 696)">
   <path d="M 25.7324 3.61328 L 71.4355 3.61328 C 81.2988 3.61328 87.4023 -2.49023 87.4023 -12.4023 L 87.4023 -58.0078 C 87.4023 -67.9199 81.2988 -74.0234 71.4355 -74.0234 L 25.7324 -74.0234 C 15.8203 -74.0234 9.76562 -67.9199 9.76562 -58.0078 L 9.76562 -12.4023 C 9.76562 -2.49023 15.8203 3.61328 25.7324 3.61328 Z M 28.5645 -12.4512 C 26.6602 -12.4512 25.8301 -13.0371 25.8301 -15.1855 L 25.8301 -55.2246 C 25.8301 -57.373 26.6602 -57.959 28.5645 -57.959 L 68.6035 -57.959 C 70.5078 -57.959 71.3379 -57.373 71.3379 -55.2246 L 71.3379 -31.0059 C 70.8008 -32.1777 69.7754 -32.9102 68.457 -32.9102 L 68.457 -43.7988 C 68.457 -48.6328 66.5039 -50.8789 61.6211 -50.8789 C 57.1777 -50.8789 54.541 -49.6094 52.7832 -45.8984 C 51.6602 -43.3105 50.1465 -38.6719 49.7559 -36.6211 C 49.1211 -34.8145 48.584 -32.6172 48.584 -30.2734 C 48.584 -26.709 50.4395 -24.5605 54.3457 -24.5605 L 59.0332 -24.5605 L 59.0332 -24.3652 C 59.0332 -20.6055 60.9863 -18.8965 63.9648 -18.8965 C 66.8457 -18.8965 68.8965 -20.6543 68.8965 -24.3652 L 68.8965 -24.7559 L 68.5059 -24.7559 C 69.8242 -24.7559 70.8008 -25.3906 71.3379 -26.4648 L 71.3379 -15.1855 C 71.3379 -13.0371 70.5078 -12.4512 68.6035 -12.4512 Z M 32.0801 -19.6777 L 43.3594 -19.6777 C 46.3867 -19.6777 48.1445 -21.3867 48.1445 -24.3652 C 48.1445 -27.2461 46.3867 -28.9062 43.3594 -28.9062 L 40.1855 -28.9062 L 40.1855 -29.248 L 42.4316 -31.6895 C 45.7031 -35.3516 47.168 -38.3301 47.1191 -41.748 C 47.168 -47.1191 43.4082 -51.2207 37.4512 -51.2207 C 32.666 -51.2207 28.7109 -48.584 27.5391 -44.4336 C 27.2461 -43.6035 27.1484 -42.7246 27.1484 -41.6016 C 27.1484 -39.4043 29.0039 -37.9395 31.2012 -37.9395 C 33.5938 -37.9395 34.8145 -39.2578 35.2539 -40.8203 C 35.4004 -41.5039 36.084 -42.2852 36.8652 -42.2852 C 37.793 -42.2852 38.5742 -41.6016 38.5742 -40.8691 C 38.5742 -39.4531 37.793 -38.5742 35.6934 -36.2305 L 30.2734 -30.5176 C 28.2227 -28.2715 27.6367 -26.6113 27.6367 -24.2188 C 27.6367 -21.8262 29.3457 -19.6777 32.0801 -19.6777 Z M 60.0586 -32.8125 L 57.373 -32.8125 L 57.373 -32.9102 C 57.7637 -34.8633 59.4238 -41.6016 60.0098 -43.9453 L 60.0586 -43.9453 Z"/>
  </g>
  <g id="Ultralight-M" transform="matrix(1 0 0 1 504.535 1126)">
   <path d="M 25 7.56836 L 85.3516 7.56836 C 93.5547 7.56836 97.9004 3.125 97.9004 -4.98047 L 97.9004 -65.2832 C 97.9004 -73.3887 93.5547 -77.832 85.3516 -77.832 L 25 -77.832 C 16.7969 -77.832 12.4512 -73.4863 12.4512 -65.2832 L 12.4512 -4.98047 C 12.4512 3.22266 16.7969 7.56836 25 7.56836 Z M 25.1465 5.17578 C 18.3594 5.17578 14.8438 1.66016 14.8438 -5.07812 L 14.8438 -65.1855 C 14.8438 -71.9727 18.3594 -75.4395 25.1465 -75.4395 L 85.2051 -75.4395 C 91.748 -75.4395 95.5078 -71.9727 95.5078 -65.1855 L 95.5078 -5.07812 C 95.5078 1.66016 91.748 5.17578 85.2051 5.17578 Z M 80.3711 -13.3789 C 81.1523 -13.3789 81.6406 -13.916 81.6406 -14.6484 L 81.6406 -24.3164 L 87.8418 -24.3164 C 88.5742 -24.3164 89.0137 -24.8535 89.0137 -25.5371 C 89.0137 -26.2207 88.5742 -26.7578 87.8418 -26.7578 L 81.6406 -26.7578 L 81.6406 -55.3711 C 81.6406 -56.5918 80.8594 -57.3242 79.5898 -57.3242 C 78.3691 -57.3242 77.6367 -56.9336 76.8066 -55.7617 C 72.4121 -49.4629 61.8164 -34.2285 58.1055 -27.7832 C 57.8613 -27.3926 57.6172 -26.8066 57.6172 -26.2695 C 57.6172 -25.0488 58.3984 -24.3164 59.9121 -24.3164 L 79.1016 -24.3164 L 79.1016 -14.6484 C 79.1016 -13.916 79.6387 -13.3789 80.3711 -13.3789 Z M 27.7344 -13.6719 L 51.8555 -13.6719 C 52.5879 -13.6719 53.0762 -14.2578 53.0762 -14.8926 C 53.0762 -15.625 52.5879 -16.1133 51.8555 -16.1133 L 29.9805 -16.1133 L 29.9805 -16.3574 L 44.8242 -32.8613 C 49.9512 -38.4766 51.7578 -41.9434 51.7578 -45.9961 C 51.7578 -52.832 46.7773 -57.3242 39.1113 -57.3242 C 32.373 -57.3242 26.8066 -53.2227 25.8301 -47.4609 C 25.7812 -46.9727 25.6836 -46.582 25.6836 -46.1426 C 25.6836 -45.3613 26.1719 -44.8242 26.9531 -44.8242 C 27.832 -44.8242 28.2715 -45.2637 28.3203 -46.0449 C 28.6133 -51.1719 33.0566 -54.8828 39.1113 -54.8828 C 45.2637 -54.8828 49.1211 -51.4648 49.1211 -46.0449 C 49.1211 -42.4805 47.6562 -39.4531 43.8965 -35.3027 L 26.7578 -16.3086 C 26.3672 -15.8691 26.2695 -15.5762 26.2695 -15.0879 C 26.2695 -14.2578 26.8066 -13.6719 27.7344 -13.6719 Z M 79.1016 -26.7578 L 60.5469 -26.7578 L 60.5469 -27.002 C 63.5254 -31.9336 75.5859 -49.707 78.8574 -54.3945 L 79.1016 -54.3945 Z"/>
  </g>
  <g id="Thin-M" transform="matrix(1 0 0 1 800.734 1126)">
   <path d="M 25.6348 8.05664 L 85.7422 8.05664 C 94.3848 8.05664 98.9258 3.4668 98.9258 -5.0293 L 98.9258 -65.2344 C 98.9258 -73.7305 94.3848 -78.3691 85.7422 -78.3691 L 25.6348 -78.3691 C 16.9922 -78.3691 12.4512 -73.877 12.4512 -65.2344 L 12.4512 -5.0293 C 12.4512 3.56445 16.9922 8.05664 25.6348 8.05664 Z M 25.7324 4.44336 C 19.4336 4.44336 16.1133 1.12305 16.1133 -5.22461 L 16.1133 -65.0391 C 16.1133 -71.4355 19.4336 -74.7559 25.7324 -74.7559 L 85.5957 -74.7559 C 91.748 -74.7559 95.2637 -71.4355 95.2637 -65.0391 L 95.2637 -5.22461 C 95.2637 1.12305 91.748 4.44336 85.5957 4.44336 Z M 28.5156 -13.7695 L 52.0508 -13.7695 C 52.9785 -13.7695 53.6621 -14.4531 53.6621 -15.4297 C 53.6621 -16.4062 52.9785 -17.041 52.0508 -17.041 L 31.6895 -17.041 L 31.6895 -17.2852 L 45.5078 -32.7637 C 50.3418 -38.0859 52.3926 -41.6504 52.3926 -45.9473 C 52.3926 -52.8809 47.3633 -57.373 39.5508 -57.373 C 32.959 -57.373 27.4414 -53.3203 26.3672 -47.7051 C 26.2695 -47.168 26.2207 -46.7285 26.2207 -46.2402 C 26.2207 -45.2148 26.8555 -44.5312 27.832 -44.5312 C 28.8574 -44.5312 29.3457 -45.0684 29.541 -46.0449 C 30.0781 -50.8789 34.1309 -54.1992 39.6484 -54.1992 C 45.3125 -54.1992 48.9746 -50.9277 48.9746 -45.8984 C 48.9746 -42.3828 47.2168 -39.3066 43.75 -35.4492 L 27.3438 -17.1387 C 26.8555 -16.6016 26.709 -16.1621 26.709 -15.5762 C 26.709 -14.4531 27.3926 -13.7695 28.5156 -13.7695 Z M 80.6152 -13.4277 C 81.6895 -13.4277 82.3242 -14.1602 82.3242 -15.2832 L 82.3242 -23.9258 L 87.7441 -23.9258 C 88.7207 -23.9258 89.3066 -24.6094 89.3066 -25.5371 C 89.3066 -26.4648 88.7207 -27.0996 87.7441 -27.0996 L 82.3242 -27.0996 L 82.3242 -54.7852 C 82.3242 -56.3965 81.25 -57.373 79.5898 -57.373 C 77.9785 -57.373 77.002 -56.8359 75.9277 -55.2734 C 71.582 -48.7793 62.1582 -34.9121 58.5449 -28.5156 C 58.1543 -27.832 57.9102 -27.1973 57.9102 -26.4648 C 57.9102 -24.8535 58.8867 -23.9258 60.6445 -23.9258 L 78.9551 -23.9258 L 78.9551 -15.2832 C 78.9551 -14.1602 79.6387 -13.4277 80.6152 -13.4277 Z M 78.9551 -27.0996 L 61.6699 -27.0996 L 61.6699 -27.3438 C 64.6973 -32.4707 75.1953 -48.3398 78.6621 -53.5645 L 78.9551 -53.5645 Z"/>
  </g>
  <g id="Light-M" transform="matrix(1 0 0 1 1096.47 1126)">
   <path d="M 26.8555 9.0332 L 86.4746 9.0332 C 96.0449 9.0332 100.879 4.15039 100.879 -5.22461 L 100.879 -65.0879 C 100.879 -74.5117 96.0449 -79.3945 86.4746 -79.3945 L 26.8555 -79.3945 C 17.334 -79.3945 12.4512 -74.5605 12.4512 -65.0879 L 12.4512 -5.22461 C 12.4512 4.19922 17.334 9.0332 26.8555 9.0332 Z M 27.002 2.97852 C 21.4844 2.97852 18.5059 0.0976562 18.5059 -5.56641 L 18.5059 -64.7949 C 18.5059 -70.4102 21.4844 -73.3398 27.002 -73.3398 L 86.377 -73.3398 C 91.748 -73.3398 94.8242 -70.4102 94.8242 -64.7949 L 94.8242 -5.56641 C 94.8242 0.0976562 91.748 2.97852 86.377 2.97852 Z M 30.0293 -13.9648 L 52.4902 -13.9648 C 53.8086 -13.9648 54.7852 -14.9414 54.7852 -16.4062 C 54.7852 -17.9199 53.8086 -18.7988 52.4902 -18.7988 L 35.0098 -18.7988 L 35.0098 -19.0918 L 46.875 -32.5684 C 51.123 -37.4023 53.6133 -41.1133 53.6133 -45.8984 C 53.6133 -52.9785 48.4863 -57.5684 40.4785 -57.5684 C 34.1309 -57.5684 28.6621 -53.5645 27.4414 -48.1445 C 27.2949 -47.5098 27.2461 -47.0215 27.2461 -46.4355 C 27.2461 -44.9707 28.125 -43.9453 29.541 -43.9453 C 30.8105 -43.9453 31.4941 -44.6777 31.9336 -45.9961 C 32.9102 -50.293 36.1328 -52.7832 40.6738 -52.7832 C 45.5078 -52.7832 48.6328 -49.9512 48.6328 -45.5566 C 48.6328 -42.0898 46.3379 -39.0625 43.4082 -35.791 L 28.4668 -18.7012 C 27.832 -17.9688 27.5391 -17.2852 27.5391 -16.4551 C 27.5391 -14.9414 28.5156 -13.9648 30.0293 -13.9648 Z M 81.0547 -13.5254 C 82.7148 -13.5254 83.5938 -14.5996 83.5938 -16.5039 L 83.5938 -23.1934 L 87.5977 -23.1934 C 88.9648 -23.1934 89.8926 -24.0723 89.8926 -25.4883 C 89.8926 -26.9531 88.9648 -27.832 87.5977 -27.832 L 83.5938 -27.832 L 83.5938 -53.6621 C 83.5938 -56.0059 81.9824 -57.5195 79.541 -57.5195 C 77.1484 -57.5195 75.6836 -56.6406 74.3164 -54.3945 C 69.9219 -47.4609 62.8418 -36.3281 59.3262 -29.9805 C 58.6914 -28.8086 58.4473 -27.8809 58.4473 -26.7578 C 58.4473 -24.5117 59.8633 -23.1934 62.1094 -23.1934 L 78.6133 -23.1934 L 78.6133 -16.5039 C 78.6133 -14.6484 79.541 -13.5254 81.0547 -13.5254 Z M 78.6133 -27.832 L 63.8672 -27.832 L 63.8672 -28.0762 C 66.8945 -33.5938 74.5117 -45.752 78.3203 -51.9531 L 78.6133 -51.9531 Z"/>
  </g>
  <g id="Regular-M" transform="matrix(1 0 0 1 1392.42 1126)">
   <path d="M 27.7832 9.76562 L 87.0605 9.76562 C 97.2656 9.76562 102.344 4.6875 102.344 -5.37109 L 102.344 -64.9902 C 102.344 -75.0488 97.2656 -80.127 87.0605 -80.127 L 27.7832 -80.127 C 17.627 -80.127 12.4512 -75.0977 12.4512 -64.9902 L 12.4512 -5.37109 C 12.4512 4.73633 17.627 9.76562 27.7832 9.76562 Z M 27.9297 1.9043 C 23.0469 1.9043 20.3125 -0.683594 20.3125 -5.76172 L 20.3125 -64.5996 C 20.3125 -69.6777 23.0469 -72.2656 27.9297 -72.2656 L 86.9141 -72.2656 C 91.748 -72.2656 94.4824 -69.6777 94.4824 -64.5996 L 94.4824 -5.76172 C 94.4824 -0.683594 91.748 1.9043 86.9141 1.9043 Z M 31.2012 -14.0625 L 52.832 -14.0625 C 54.4434 -14.0625 55.6641 -15.2832 55.6641 -17.1387 C 55.6641 -19.043 54.4434 -20.166 52.832 -20.166 L 37.5 -20.166 L 37.5 -20.5078 L 47.9004 -32.4219 C 51.7578 -36.8652 54.5898 -40.7227 54.5898 -45.8496 C 54.5898 -53.0273 49.3652 -57.666 41.2109 -57.666 C 35.0586 -57.666 29.5898 -53.7598 28.2715 -48.4375 C 28.0762 -47.8027 27.9785 -47.2168 27.9785 -46.6309 C 27.9785 -44.7754 29.0527 -43.5059 30.8594 -43.5059 C 32.3242 -43.5059 33.1055 -44.3848 33.7402 -45.9473 C 35.0586 -49.8535 37.6953 -51.7578 41.5039 -51.7578 C 45.6543 -51.7578 48.3887 -49.2188 48.3887 -45.3125 C 48.3887 -41.8945 45.7031 -38.916 43.2129 -35.9863 L 29.3457 -19.873 C 28.5645 -18.9941 28.2227 -18.1152 28.2227 -17.1387 C 28.2227 -15.2832 29.3457 -14.0625 31.2012 -14.0625 Z M 81.4453 -13.5742 C 83.4473 -13.5742 84.5703 -14.9902 84.5703 -17.4316 L 84.5703 -22.6562 L 87.4512 -22.6562 C 89.209 -22.6562 90.332 -23.6816 90.332 -25.4883 C 90.332 -27.2949 89.209 -28.3691 87.4512 -28.3691 L 84.5703 -28.3691 L 84.5703 -52.7832 C 84.5703 -55.7129 82.5195 -57.6172 79.541 -57.6172 C 76.5137 -57.6172 74.707 -56.4941 73.0469 -53.7109 C 68.7012 -46.4355 63.3789 -37.4023 59.9609 -31.0547 C 59.1309 -29.4922 58.8379 -28.418 58.8379 -27.002 C 58.8379 -24.2676 60.5469 -22.6562 63.2324 -22.6562 L 78.3691 -22.6562 L 78.3691 -17.4316 C 78.3691 -15.0391 79.4922 -13.5742 81.4453 -13.5742 Z M 78.3691 -28.3691 L 65.5273 -28.3691 L 65.5273 -28.6133 C 68.5547 -34.4238 73.9746 -43.75 78.0762 -50.7324 L 78.3691 -50.7324 Z"/>
  </g>
  <g id="Medium-M" transform="matrix(1 0 0 1 1688.45 1126)">
   <path d="M 28.5645 10.4492 L 87.6465 10.4492 C 98.2422 10.4492 103.711 4.98047 103.711 -5.46875 L 103.711 -64.8926 C 103.711 -75.3418 98.2422 -80.8105 87.6465 -80.8105 L 28.5645 -80.8105 C 17.9688 -80.8105 12.4512 -75.3906 12.4512 -64.8926 L 12.4512 -5.46875 C 12.4512 4.98047 17.9688 10.4492 28.5645 10.4492 Z M 29.1504 0.732422 C 24.6582 0.732422 22.2168 -1.61133 22.2168 -6.34766 L 22.2168 -64.0137 C 22.2168 -68.75 24.6582 -71.0938 29.1504 -71.0938 L 87.0117 -71.0938 C 91.5039 -71.0938 93.9941 -68.75 93.9941 -64.0137 L 93.9941 -6.34766 C 93.9941 -1.61133 91.5039 0.732422 87.0117 0.732422 Z M 32.666 -14.2578 L 53.2227 -14.2578 C 55.1758 -14.2578 56.543 -15.625 56.543 -17.7734 C 56.543 -19.9707 55.1758 -21.1914 53.2227 -21.1914 L 39.5996 -21.1914 L 39.5996 -21.5332 L 48.8281 -32.1777 C 52.7344 -36.6699 55.4199 -40.4785 55.4199 -45.5078 C 55.4199 -52.6367 50.2441 -57.373 42.1875 -57.373 C 36.0352 -57.373 30.6152 -53.5645 29.248 -48.2422 C 29.1016 -47.5586 28.9551 -46.875 28.9551 -46.1426 C 28.9551 -44.1406 30.2246 -42.8223 32.1777 -42.8223 C 33.8867 -42.8223 34.7656 -43.7988 35.4004 -45.4102 C 36.6211 -48.877 38.9648 -50.6348 42.334 -50.6348 C 45.9961 -50.6348 48.4863 -48.3398 48.4863 -44.873 C 48.4863 -41.6992 46.0449 -38.9648 43.5059 -36.084 L 30.7129 -21.2891 C 29.6875 -20.1172 29.248 -19.043 29.248 -17.7246 C 29.248 -15.7227 30.5664 -14.2578 32.666 -14.2578 Z M 81.4453 -13.6719 C 83.7402 -13.6719 85.1074 -15.2344 85.1074 -18.0176 L 85.1074 -22.5098 L 87.4512 -22.5098 C 89.3066 -22.5098 90.5273 -23.6816 90.5273 -25.6836 C 90.5273 -27.6855 89.3066 -28.9062 87.4512 -28.9062 L 85.0098 -28.9062 L 85.0098 -51.8066 C 85.0098 -55.2246 82.8613 -57.2754 79.3945 -57.2754 C 76.0254 -57.2754 73.9746 -56.1035 72.2168 -52.9785 C 68.2617 -46.2891 63.4766 -37.7441 60.498 -31.9336 C 59.668 -30.2734 59.2773 -28.9062 59.2773 -27.2949 C 59.2773 -24.2676 61.1328 -22.4609 64.1602 -22.4609 L 77.9297 -22.4609 L 77.9297 -18.0176 C 77.9297 -15.2344 79.248 -13.6719 81.4453 -13.6719 Z M 78.125 -28.9062 L 66.6992 -28.9062 L 66.6992 -29.1504 C 69.3359 -34.5215 74.2188 -43.6523 77.832 -50.0488 L 78.125 -50.0488 Z"/>
  </g>
  <g id="Semibold-M" transform="matrix(1 0 0 1 1984.65 1126)">
   <path d="M 29.1016 10.9863 L 88.1348 10.9863 C 98.9746 10.9863 104.785 5.17578 104.785 -5.56641 L 104.785 -64.8438 C 104.785 -75.5859 98.9746 -81.3477 88.1348 -81.3477 L 29.1016 -81.3477 C 18.3105 -81.3477 12.4512 -75.5859 12.4512 -64.8438 L 12.4512 -5.56641 C 12.4512 5.22461 18.3105 10.9863 29.1016 10.9863 Z M 30.127 -0.195312 C 25.9277 -0.195312 23.6328 -2.34375 23.6328 -6.78711 L 23.6328 -63.623 C 23.6328 -68.0664 25.9277 -70.166 30.127 -70.166 L 87.1094 -70.166 C 91.3086 -70.166 93.6035 -68.0664 93.6035 -63.623 L 93.6035 -6.78711 C 93.6035 -2.34375 91.3086 -0.195312 87.1094 -0.195312 Z M 33.7402 -14.4043 L 53.4668 -14.4043 C 55.7129 -14.4043 57.1777 -15.8691 57.1777 -18.2617 C 57.1777 -20.6543 55.7129 -21.9727 53.4668 -21.9727 L 41.1621 -21.9727 L 41.1621 -22.3633 L 49.5605 -31.9824 C 53.4668 -36.4746 56.0547 -40.2832 56.0547 -45.2637 C 56.0547 -52.3438 50.9277 -57.1289 42.9199 -57.1289 C 36.7676 -57.1289 31.4453 -53.3691 30.0293 -48.0957 C 29.834 -47.3145 29.7363 -46.6309 29.7363 -45.8008 C 29.7363 -43.7012 31.1523 -42.2852 33.2031 -42.2852 C 35.0586 -42.2852 36.084 -43.3594 36.7188 -45.0195 C 37.7441 -48.1445 39.8926 -49.7559 42.9688 -49.7559 C 46.2891 -49.7559 48.584 -47.6562 48.584 -44.5801 C 48.584 -41.5527 46.3379 -39.0137 43.7988 -36.1328 L 31.7383 -22.3145 C 30.5176 -20.9473 30.0293 -19.7266 30.0293 -18.2129 C 30.0293 -16.0156 31.4453 -14.4043 33.7402 -14.4043 Z M 81.4941 -13.7695 C 83.9844 -13.7695 85.498 -15.4297 85.498 -18.457 L 85.498 -22.4121 L 87.4512 -22.4121 C 89.4043 -22.4121 90.6738 -23.6816 90.6738 -25.8301 C 90.6738 -28.0273 89.4043 -29.3945 87.4512 -29.3945 L 85.3516 -29.3945 L 85.3516 -51.0742 C 85.3516 -54.834 83.1543 -57.0312 79.2969 -57.0312 C 75.5859 -57.0312 73.3887 -55.7617 71.5332 -52.4414 C 67.9199 -46.1426 63.5742 -37.9883 60.8887 -32.6172 C 60.0586 -30.8594 59.668 -29.2969 59.668 -27.4902 C 59.668 -24.2676 61.5723 -22.3633 64.8438 -22.3633 L 77.5879 -22.3633 L 77.5879 -18.457 C 77.5879 -15.4297 79.1016 -13.7695 81.4941 -13.7695 Z M 77.9297 -29.3457 L 67.5781 -29.3457 L 67.5781 -29.5898 C 69.9707 -34.5703 74.4141 -43.5547 77.6855 -49.5605 L 77.9297 -49.5605 Z"/>
  </g>
  <g id="Bold-M" transform="matrix(1 0 0 1 2280.65 1126)">
   <path d="M 29.8828 11.6699 L 88.7207 11.6699 C 100 11.6699 106.152 5.46875 106.152 -5.66406 L 106.152 -64.6973 C 106.152 -75.8789 100 -82.0312 88.7207 -82.0312 L 29.8828 -82.0312 C 18.6523 -82.0312 12.4512 -75.8789 12.4512 -64.6973 L 12.4512 -5.66406 C 12.4512 5.51758 18.6523 11.6699 29.8828 11.6699 Z M 31.3965 -1.41602 C 27.5879 -1.41602 25.5371 -3.27148 25.5371 -7.32422 L 25.5371 -63.0371 C 25.5371 -67.1387 27.5879 -68.9453 31.3965 -68.9453 L 87.207 -68.9453 C 91.0156 -68.9453 93.1152 -67.1387 93.1152 -63.0371 L 93.1152 -7.32422 C 93.1152 -3.27148 91.0156 -1.41602 87.207 -1.41602 Z M 35.2051 -14.5996 L 53.8574 -14.5996 C 56.3965 -14.5996 58.0566 -16.2109 58.0566 -18.8965 C 58.0566 -21.5332 56.3965 -23.0469 53.8574 -23.0469 L 43.2617 -23.0469 L 43.2617 -23.4375 L 50.4883 -31.7383 C 54.4434 -36.2305 56.8848 -40.0391 56.8848 -44.9219 C 56.8848 -51.9531 51.8555 -56.8359 43.8965 -56.8359 C 37.793 -56.8359 32.5195 -53.1738 31.0547 -47.9004 C 30.8594 -47.0703 30.7129 -46.2891 30.7129 -45.3125 C 30.7129 -43.0664 32.3242 -41.5527 34.5215 -41.5527 C 36.6699 -41.5527 37.793 -42.7734 38.3789 -44.4824 C 39.3066 -47.168 41.1621 -48.6328 43.7988 -48.6328 C 46.6797 -48.6328 48.6816 -46.7773 48.6816 -44.1406 C 48.6816 -41.3574 46.6797 -39.1113 44.1406 -36.2305 L 33.1543 -23.7305 C 31.5918 -22.0215 31.1035 -20.6543 31.1035 -18.7988 C 31.1035 -16.4551 32.666 -14.5996 35.2051 -14.5996 Z M 81.543 -13.916 C 84.2773 -13.916 85.9863 -15.6738 85.9863 -19.0918 L 85.9863 -22.2656 L 87.4512 -22.2656 C 89.5508 -22.2656 90.8691 -23.6816 90.8691 -26.0742 C 90.8691 -28.418 89.5508 -29.9805 87.4023 -29.9805 L 85.791 -29.9805 L 85.791 -50.0977 C 85.791 -54.3457 83.4961 -56.6895 79.1992 -56.6895 C 75.0488 -56.6895 72.6074 -55.3223 70.6543 -51.709 C 67.4805 -45.9961 63.6719 -38.3789 61.4258 -33.5449 C 60.5957 -31.6406 60.1562 -29.834 60.1562 -27.7832 C 60.1562 -24.2676 62.1582 -22.168 65.7715 -22.168 L 77.1484 -22.168 L 77.1484 -19.0918 C 77.1484 -15.6738 78.8574 -13.916 81.543 -13.916 Z M 77.6367 -29.8828 L 68.75 -29.8828 L 68.75 -30.127 C 70.8008 -34.6191 74.707 -43.457 77.4414 -48.877 L 77.6367 -48.877 Z"/>
  </g>
  <g id="Heavy-M" transform="matrix(1 0 0 1 2576.36 1126)">
   <path d="M 31.0059 12.6465 L 89.6484 12.6465 C 101.416 12.6465 108.154 5.9082 108.154 -5.81055 L 108.154 -64.5508 C 108.154 -76.2695 101.416 -83.0566 89.6484 -83.0566 L 31.0059 -83.0566 C 19.2383 -83.0566 12.4512 -76.3184 12.4512 -64.5508 L 12.4512 -5.81055 C 12.4512 5.9082 19.2383 12.6465 31.0059 12.6465 Z M 33.252 -3.17383 C 29.9805 -3.17383 28.2715 -4.63867 28.2715 -8.1543 L 28.2715 -62.207 C 28.2715 -65.7715 29.9805 -67.2363 33.252 -67.2363 L 87.3535 -67.2363 C 90.6738 -67.2363 92.334 -65.7715 92.334 -62.207 L 92.334 -8.1543 C 92.334 -4.63867 90.6738 -3.17383 87.3535 -3.17383 Z M 37.3047 -14.8926 L 54.3945 -14.8926 C 57.4219 -14.8926 59.3262 -16.6992 59.3262 -19.7754 C 59.3262 -22.8516 57.4219 -24.6094 54.3945 -24.6094 L 46.2402 -24.6094 L 46.2402 -25 L 51.8555 -31.3965 C 55.8594 -35.8887 58.1543 -39.6973 58.1055 -44.4336 C 58.1543 -51.416 53.125 -56.3965 45.3125 -56.3965 C 39.209 -56.3965 34.0332 -52.8809 32.5684 -47.6074 C 32.2754 -46.6797 32.1777 -45.752 32.1777 -44.6289 C 32.1777 -42.1387 34.082 -40.5273 36.4746 -40.5273 C 38.9648 -40.5273 40.2344 -41.8945 40.8691 -43.75 C 41.5527 -45.752 43.0176 -47.0215 45.0195 -47.0215 C 47.2168 -47.0215 48.877 -45.5078 48.877 -43.5059 C 48.877 -41.1133 47.168 -39.209 44.6289 -36.3281 L 35.1562 -25.7324 C 33.2031 -23.6328 32.6172 -21.9727 32.6172 -19.6777 C 32.6172 -17.041 34.4238 -14.8926 37.3047 -14.8926 Z M 81.5918 -14.0625 C 84.7168 -14.0625 86.7676 -16.0156 86.7676 -19.9707 L 86.7676 -22.0703 L 87.4512 -22.0703 C 89.6973 -22.0703 91.1621 -23.6816 91.1621 -26.3672 C 91.1621 -29.0527 89.6973 -30.8105 87.4023 -30.8105 L 86.4258 -30.8105 L 86.4258 -48.6328 C 86.4258 -53.6133 84.0332 -56.1523 79.0039 -56.1523 C 74.3164 -56.1523 71.4844 -54.6875 69.3848 -50.6348 C 66.8457 -45.752 63.8184 -38.8672 62.207 -34.8145 C 61.377 -32.7637 60.8398 -30.6152 60.8398 -28.1738 C 60.8398 -24.2676 62.9883 -21.9238 67.1387 -21.9238 L 76.5137 -21.9238 L 76.5137 -19.9707 C 76.5137 -16.0156 78.5156 -14.0625 81.5918 -14.0625 Z M 77.2949 -30.7129 L 70.459 -30.7129 L 70.459 -30.9082 C 71.9238 -34.7168 75.0488 -43.2617 77.0996 -47.9004 L 77.2949 -47.9004 Z"/>
  </g>
  <g id="Black-M" transform="matrix(1 0 0 1 2872.19 1126)">
   <path d="M 31.9824 13.5742 L 90.4297 13.5742 C 102.686 13.5742 109.961 6.29883 109.961 -5.95703 L 109.961 -64.4043 C 109.961 -76.6602 102.686 -83.9355 90.4297 -83.9355 L 31.9824 -83.9355 C 19.7266 -83.9355 12.4512 -76.6602 12.4512 -64.4043 L 12.4512 -5.95703 C 12.4512 6.29883 19.7266 13.5742 31.9824 13.5742 Z M 34.9121 -4.73633 C 32.0801 -4.73633 30.7617 -5.81055 30.7617 -8.88672 L 30.7617 -61.4746 C 30.7617 -64.5508 32.0801 -65.6738 34.9121 -65.6738 L 87.5 -65.6738 C 90.332 -65.6738 91.6992 -64.5508 91.6992 -61.4746 L 91.6992 -8.88672 C 91.6992 -5.81055 90.332 -4.73633 87.5 -4.73633 Z M 39.1602 -15.1367 L 54.8828 -15.1367 C 58.3496 -15.1367 60.4492 -17.1387 60.4492 -20.6055 C 60.4492 -24.0234 58.3496 -25.9766 54.8828 -25.9766 L 48.9746 -25.9766 L 48.9746 -26.416 L 53.0762 -31.0547 C 57.1289 -35.5957 59.2285 -39.4043 59.1797 -43.9941 C 59.2285 -50.9277 54.3457 -56.0547 46.6309 -56.0547 C 40.4785 -56.0547 35.4004 -52.6367 33.8867 -47.3145 C 33.5938 -46.2891 33.4473 -45.3125 33.4473 -44.043 C 33.4473 -41.3574 35.5957 -39.5996 38.2324 -39.5996 C 41.0156 -39.5996 42.4316 -41.1133 43.0664 -43.0664 C 43.5547 -44.4824 44.6289 -45.5566 46.0938 -45.5566 C 47.7051 -45.5566 49.0234 -44.3848 49.0234 -42.9199 C 49.0234 -40.8691 47.6074 -39.3066 45.0684 -36.4746 L 36.9141 -27.5879 C 34.668 -25.0488 33.9844 -23.1445 33.9844 -20.5078 C 33.9844 -17.627 35.9863 -15.1367 39.1602 -15.1367 Z M 81.6406 -14.209 C 85.1074 -14.209 87.4512 -16.3574 87.4512 -20.752 L 87.4512 -21.9238 C 89.8926 -21.9238 91.4551 -23.6816 91.4551 -26.6113 C 91.4551 -29.5898 89.8926 -31.5918 87.4023 -31.5918 L 86.9629 -31.5918 L 86.9629 -47.3633 C 86.9629 -52.9785 84.4727 -55.7129 78.8086 -55.7129 C 73.6328 -55.7129 70.459 -54.1504 68.2617 -49.707 C 66.2598 -45.5566 63.9648 -39.3555 62.8906 -35.9863 C 62.0605 -33.7891 61.4258 -31.25 61.4258 -28.5645 C 61.4258 -24.3164 63.7695 -21.7285 68.3594 -21.7285 L 75.9277 -21.7285 L 75.9277 -20.752 C 75.9277 -16.3574 78.1738 -14.209 81.6406 -14.209 Z M 76.9531 -31.4453 L 71.9727 -31.4453 L 71.9727 -31.6406 C 72.998 -34.8145 75.3906 -43.1152 76.8066 -47.0215 L 76.9531 -47.0215 Z"/>
  </g>
  <g id="Ultralight-L" transform="matrix(1 0 0 1 488.739 1556)">
   <path d="M 31.9824 19.7754 L 109.961 19.7754 C 120.361 19.7754 125.879 14.0625 125.879 3.85742 L 125.879 -74.0723 C 125.879 -84.2773 120.361 -89.9902 109.961 -89.9902 L 31.9824 -89.9902 C 21.6309 -89.9902 16.0645 -84.4727 16.0645 -74.0723 L 16.0645 3.85742 C 16.0645 14.2578 21.6309 19.7754 31.9824 19.7754 Z M 32.1289 17.2363 C 23.2422 17.2363 18.6523 12.6465 18.6523 3.75977 L 18.6523 -73.9258 C 18.6523 -82.8125 23.2422 -87.4512 32.1289 -87.4512 L 109.814 -87.4512 C 118.359 -87.4512 123.34 -82.8125 123.34 -73.9258 L 123.34 3.75977 C 123.34 12.6465 118.359 17.2363 109.814 17.2363 Z M 103.613 -7.03125 C 104.492 -7.03125 105.078 -7.61719 105.078 -8.39844 L 105.078 -21.3379 L 113.33 -21.3379 C 114.209 -21.3379 114.746 -21.9727 114.746 -22.7539 C 114.746 -23.4863 114.209 -24.1211 113.33 -24.1211 L 105.078 -24.1211 L 105.078 -61.4746 C 105.078 -62.8906 104.199 -63.7207 102.686 -63.7207 C 101.318 -63.7207 100.488 -63.3301 99.4629 -61.9141 C 93.7988 -53.9062 79.5898 -33.5938 74.8047 -25.293 C 74.5605 -24.8535 74.2676 -24.2188 74.2676 -23.584 C 74.2676 -22.168 75.1953 -21.3379 76.9531 -21.3379 L 102.148 -21.3379 L 102.148 -8.39844 C 102.148 -7.61719 102.783 -7.03125 103.613 -7.03125 Z M 35.4492 -7.37305 L 66.7969 -7.37305 C 67.627 -7.37305 68.2129 -8.05664 68.2129 -8.78906 C 68.2129 -9.61914 67.627 -10.1562 66.7969 -10.1562 L 37.9395 -10.1562 L 37.9395 -10.498 L 57.5195 -32.1777 C 64.2578 -39.5508 66.5039 -44.043 66.5039 -49.1211 C 66.5039 -57.9102 60.0586 -63.6719 50.2441 -63.6719 C 41.5039 -63.6719 34.3262 -58.3496 33.0566 -50.9277 C 33.0078 -50.293 32.959 -49.8047 32.959 -49.2676 C 32.959 -48.3887 33.4961 -47.7539 34.4238 -47.7539 C 35.498 -47.7539 35.9863 -48.2422 36.0352 -49.2188 C 36.2793 -55.957 42.2363 -60.8887 50.1953 -60.8887 C 58.3496 -60.8887 63.4766 -56.3477 63.4766 -49.2676 C 63.4766 -44.6777 61.6699 -40.7227 56.6895 -35.2539 L 34.2773 -10.4492 C 33.8379 -9.96094 33.6914 -9.61914 33.6914 -9.0332 C 33.6914 -8.05664 34.375 -7.37305 35.4492 -7.37305 Z M 102.148 -24.1211 L 77.6367 -24.1211 L 77.6367 -24.4629 C 81.4941 -30.7129 97.6562 -54.4922 101.807 -60.3027 L 102.148 -60.3027 Z"/>
  </g>
  <g id="Thin-L" transform="matrix(1 0 0 1 784.889 1556)">
   <path d="M 32.7148 20.3613 L 110.4 20.3613 C 121.289 20.3613 127.002 14.4531 127.002 3.75977 L 127.002 -73.9746 C 127.002 -84.7168 121.289 -90.5762 110.4 -90.5762 L 32.7148 -90.5762 C 21.8262 -90.5762 16.0645 -84.8633 16.0645 -73.9746 L 16.0645 3.75977 C 16.0645 14.6484 21.8262 20.3613 32.7148 20.3613 Z M 32.8613 16.4062 C 24.4141 16.4062 20.0195 12.0117 20.0195 3.56445 L 20.0195 -73.7793 C 20.0195 -82.2754 24.4141 -86.6699 32.8613 -86.6699 L 110.254 -86.6699 C 118.359 -86.6699 123.096 -82.2754 123.096 -73.7793 L 123.096 3.56445 C 123.096 12.0117 118.359 16.4062 110.254 16.4062 Z M 36.3281 -7.51953 L 67.041 -7.51953 C 68.1152 -7.51953 68.8477 -8.30078 68.8477 -9.32617 C 68.8477 -10.4492 68.1152 -11.1816 67.041 -11.1816 L 39.8438 -11.1816 L 39.8438 -11.5234 L 58.3008 -32.0801 C 64.7461 -39.1602 67.1875 -43.7012 67.1875 -49.0723 C 67.1875 -57.959 60.7422 -63.7695 50.7812 -63.7695 C 42.1875 -63.7695 35.0098 -58.4961 33.6914 -51.1719 C 33.5938 -50.4883 33.4961 -50 33.4961 -49.4141 C 33.4961 -48.2422 34.2285 -47.4121 35.4004 -47.4121 C 36.6211 -47.4121 37.207 -48.0469 37.3535 -49.1699 C 37.9395 -55.6152 43.4082 -60.1074 50.8301 -60.1074 C 58.4473 -60.1074 63.2812 -55.8105 63.2812 -49.0723 C 63.2812 -44.5312 61.1816 -40.5762 56.543 -35.4492 L 34.9121 -11.377 C 34.375 -10.7422 34.1797 -10.2539 34.1797 -9.57031 C 34.1797 -8.30078 35.0098 -7.51953 36.3281 -7.51953 Z M 103.857 -7.08008 C 105.078 -7.08008 105.811 -7.91016 105.811 -9.08203 L 105.811 -20.8984 L 113.281 -20.8984 C 114.355 -20.8984 115.088 -21.6797 115.088 -22.7051 C 115.088 -23.7305 114.355 -24.5605 113.281 -24.5605 L 105.811 -24.5605 L 105.811 -60.8398 C 105.811 -62.6465 104.59 -63.7695 102.686 -63.7695 C 100.83 -63.7695 99.7559 -63.1836 98.5352 -61.377 C 92.8711 -53.125 79.9805 -34.375 75.293 -26.123 C 74.8535 -25.4395 74.5605 -24.6094 74.5605 -23.7793 C 74.5605 -21.9727 75.7324 -20.8984 77.7832 -20.8984 L 101.953 -20.8984 L 101.953 -9.08203 C 101.953 -7.91016 102.734 -7.08008 103.857 -7.08008 Z M 101.953 -24.5605 L 78.9062 -24.5605 L 78.9062 -24.8535 C 82.7637 -31.3477 97.2656 -52.9785 101.611 -59.375 L 101.953 -59.375 Z"/>
  </g>
  <g id="Light-L" transform="matrix(1 0 0 1 1080.5 1556)">
   <path d="M 34.082 21.4355 L 111.23 21.4355 C 123.096 21.4355 129.199 15.2344 129.199 3.56445 L 129.199 -73.8281 C 129.199 -85.5469 123.096 -91.6992 111.23 -91.6992 L 34.082 -91.6992 C 22.2168 -91.6992 16.0645 -85.6445 16.0645 -73.8281 L 16.0645 3.56445 C 16.0645 15.3809 22.2168 21.4355 34.082 21.4355 Z M 34.2285 14.7949 C 26.709 14.7949 22.7051 10.8398 22.7051 3.22266 L 22.7051 -73.4863 C 22.7051 -81.1523 26.709 -85.0586 34.2285 -85.0586 L 111.084 -85.0586 C 118.359 -85.0586 122.607 -81.1523 122.607 -73.4863 L 122.607 3.22266 C 122.607 10.8398 118.359 14.7949 111.084 14.7949 Z M 38.0371 -7.71484 L 67.5293 -7.71484 C 69.043 -7.71484 70.166 -8.83789 70.166 -10.4492 C 70.166 -12.1582 69.043 -13.1836 67.5293 -13.1836 L 43.5547 -13.1836 L 43.5547 -13.5254 L 59.8145 -31.8848 C 65.625 -38.3789 68.6035 -43.1152 68.6035 -49.0234 C 68.6035 -58.0566 62.0117 -63.9648 51.8066 -63.9648 C 43.5059 -63.9648 36.377 -58.7891 34.9121 -51.6602 C 34.7656 -50.9277 34.6191 -50.293 34.6191 -49.6094 C 34.6191 -47.9492 35.6445 -46.7773 37.3047 -46.7773 C 38.8184 -46.7773 39.5996 -47.6074 40.0391 -49.1211 C 41.1133 -54.9316 45.6543 -58.5938 52.002 -58.5938 C 58.6426 -58.5938 62.8906 -54.6875 62.8906 -48.7305 C 62.8906 -44.2383 60.2539 -40.332 56.2012 -35.791 L 36.1816 -13.1348 C 35.4492 -12.3047 35.1562 -11.5234 35.1562 -10.5469 C 35.1562 -8.83789 36.2305 -7.71484 38.0371 -7.71484 Z M 104.395 -7.17773 C 106.201 -7.17773 107.275 -8.39844 107.275 -10.4492 L 107.275 -20.0684 L 113.086 -20.0684 C 114.697 -20.0684 115.723 -21.0938 115.723 -22.7051 C 115.723 -24.2676 114.697 -25.3418 113.086 -25.3418 L 107.275 -25.3418 L 107.275 -59.5703 C 107.275 -62.207 105.42 -63.916 102.686 -63.916 C 99.9512 -63.916 98.291 -62.9883 96.6797 -60.4004 C 91.0645 -51.6602 80.7617 -35.9863 76.1719 -27.7344 C 75.4883 -26.4648 75.1465 -25.3906 75.1465 -24.1699 C 75.1465 -21.582 76.7578 -20.0684 79.4434 -20.0684 L 101.611 -20.0684 L 101.611 -10.4492 C 101.611 -8.44727 102.686 -7.17773 104.395 -7.17773 Z M 101.611 -25.3418 L 81.3477 -25.3418 L 81.3477 -25.6348 C 85.2539 -32.5684 96.4844 -50.0488 101.221 -57.5684 L 101.611 -57.5684 Z"/>
  </g>
  <g id="Regular-L" transform="matrix(1 0 0 1 1376.36 1556)">
   <path d="M 35.1074 22.2168 L 111.865 22.2168 C 124.512 22.2168 130.859 15.8691 130.859 3.41797 L 130.859 -73.7305 C 130.859 -86.1816 124.512 -92.5293 111.865 -92.5293 L 35.1074 -92.5293 C 22.5098 -92.5293 16.0645 -86.2305 16.0645 -73.7305 L 16.0645 3.41797 C 16.0645 15.918 22.5098 22.2168 35.1074 22.2168 Z M 35.2539 13.5742 C 28.4668 13.5742 24.7559 9.96094 24.7559 2.97852 L 24.7559 -73.291 C 24.7559 -80.2734 28.4668 -83.8867 35.2539 -83.8867 L 111.67 -83.8867 C 118.359 -83.8867 122.217 -80.2734 122.217 -73.291 L 122.217 2.97852 C 122.217 9.96094 118.359 13.5742 111.67 13.5742 Z M 39.3066 -7.86133 L 67.9199 -7.86133 C 69.7754 -7.86133 71.1426 -9.22852 71.1426 -11.2793 C 71.1426 -13.4277 69.7754 -14.6484 67.9199 -14.6484 L 46.3379 -14.6484 L 46.3379 -15.0879 L 60.9863 -31.7383 C 66.2598 -37.793 69.6289 -42.627 69.6289 -48.9746 C 69.6289 -58.1543 62.9883 -64.0625 52.5879 -64.0625 C 44.4824 -64.0625 37.4512 -58.9844 35.791 -52.002 C 35.5957 -51.2207 35.498 -50.5371 35.498 -49.8047 C 35.498 -47.7051 36.7188 -46.2891 38.7695 -46.2891 C 40.4785 -46.2891 41.4062 -47.3145 42.041 -49.0723 C 43.5059 -54.4434 47.3633 -57.4219 52.8809 -57.4219 C 58.7891 -57.4219 62.6465 -53.8574 62.6465 -48.4375 C 62.6465 -43.9941 59.5215 -40.1367 55.9082 -36.0352 L 37.1582 -14.4531 C 36.2793 -13.4277 35.8398 -12.4512 35.8398 -11.3281 C 35.8398 -9.22852 37.1582 -7.86133 39.3066 -7.86133 Z M 104.785 -7.22656 C 107.08 -7.22656 108.35 -8.78906 108.35 -11.4746 L 108.35 -19.4336 L 112.988 -19.4336 C 114.941 -19.4336 116.211 -20.6543 116.211 -22.6562 C 116.211 -24.707 114.941 -25.9277 112.988 -25.9277 L 108.35 -25.9277 L 108.35 -58.5938 C 108.35 -61.8652 106.006 -64.0137 102.637 -64.0137 C 99.2676 -64.0137 97.2168 -62.793 95.3125 -59.6191 C 89.6484 -50.4883 81.3477 -37.1582 76.8555 -28.9551 C 75.9277 -27.2461 75.5859 -25.9766 75.5859 -24.4141 C 75.5859 -21.2891 77.5391 -19.4336 80.6641 -19.4336 L 101.318 -19.4336 L 101.318 -11.4746 C 101.318 -8.83789 102.637 -7.22656 104.785 -7.22656 Z M 101.318 -25.9277 L 83.2031 -25.9277 L 83.2031 -26.2207 C 87.1094 -33.5449 95.8984 -47.8516 100.928 -56.2012 L 101.318 -56.2012 Z"/>
  </g>
  <g id="Medium-L" transform="matrix(1 0 0 1 1672.31 1556)">
   <path d="M 35.9863 22.998 L 112.549 22.998 C 125.635 22.998 132.422 16.2109 132.422 3.27148 L 132.422 -73.6328 C 132.422 -86.5234 125.635 -93.3105 112.549 -93.3105 L 35.9863 -93.3105 C 22.9004 -93.3105 16.0645 -86.5723 16.0645 -73.6328 L 16.0645 3.27148 C 16.0645 16.2598 22.9004 22.998 35.9863 22.998 Z M 36.6211 12.2559 C 30.2734 12.2559 26.8066 8.98438 26.8066 2.39258 L 26.8066 -72.7051 C 26.8066 -79.2969 30.2734 -82.6172 36.6211 -82.6172 L 111.914 -82.6172 C 118.164 -82.6172 121.68 -79.2969 121.68 -72.7051 L 121.68 2.39258 C 121.68 8.98438 118.164 12.2559 111.914 12.2559 Z M 40.8691 -8.05664 L 68.3105 -8.05664 C 70.5078 -8.05664 72.0703 -9.57031 72.0703 -12.0117 C 72.0703 -14.4531 70.5078 -15.8691 68.3105 -15.8691 L 48.7305 -15.8691 L 48.7305 -16.3574 L 62.0117 -31.4941 C 67.2852 -37.4512 70.6055 -42.334 70.6055 -48.6328 C 70.6055 -57.8125 63.9648 -63.8184 53.6133 -63.8184 C 45.5566 -63.8184 38.5742 -58.8379 36.8652 -51.9043 C 36.6699 -51.0254 36.5234 -50.293 36.5234 -49.4141 C 36.5234 -47.1191 37.9883 -45.5566 40.2344 -45.5566 C 42.1875 -45.5566 43.2617 -46.6797 43.9453 -48.584 C 45.3125 -53.4668 48.8281 -56.1523 53.8086 -56.1523 C 59.1309 -56.1523 62.6953 -52.9297 62.6953 -47.998 C 62.6953 -43.7988 59.7168 -40.1367 56.2012 -36.1816 L 38.5742 -15.9668 C 37.4023 -14.6484 36.9629 -13.4766 36.9629 -12.0117 C 36.9629 -9.66797 38.4277 -8.05664 40.8691 -8.05664 Z M 104.883 -7.37305 C 107.471 -7.37305 109.033 -9.08203 109.033 -12.207 L 109.033 -19.1895 L 112.939 -19.1895 C 115.088 -19.1895 116.455 -20.5566 116.455 -22.8516 C 116.455 -25.1465 115.088 -26.5625 112.939 -26.5625 L 108.936 -26.5625 L 108.936 -57.5195 C 108.936 -61.377 106.445 -63.7207 102.539 -63.7207 C 98.6328 -63.7207 96.2891 -62.4023 94.2383 -58.8379 C 89.0137 -50.1465 81.543 -37.6953 77.4414 -29.9805 C 76.5137 -28.125 76.0742 -26.5625 76.0742 -24.7559 C 76.0742 -21.2402 78.2227 -19.1895 81.7383 -19.1895 L 100.879 -19.1895 L 100.879 -12.207 C 100.879 -9.13086 102.393 -7.37305 104.883 -7.37305 Z M 101.025 -26.5137 L 84.5703 -26.5137 L 84.5703 -26.8555 C 88.1836 -33.7402 95.9961 -47.3145 100.684 -55.3711 L 101.025 -55.3711 Z"/>
  </g>
  <g id="Semibold-L" transform="matrix(1 0 0 1 1968.41 1556)">
   <path d="M 36.6699 23.584 L 113.037 23.584 C 126.514 23.584 133.594 16.5039 133.594 3.17383 L 133.594 -73.5352 C 133.594 -86.8164 126.514 -93.9453 113.037 -93.9453 L 36.6699 -93.9453 C 23.2422 -93.9453 16.0645 -86.8652 16.0645 -73.5352 L 16.0645 3.17383 C 16.0645 16.5527 23.2422 23.584 36.6699 23.584 Z M 37.6465 11.2793 C 31.6406 11.2793 28.418 8.20312 28.418 1.95312 L 28.418 -72.3145 C 28.418 -78.5156 31.6406 -81.5918 37.6465 -81.5918 L 112.061 -81.5918 C 117.969 -81.5918 121.289 -78.5156 121.289 -72.3145 L 121.289 1.95312 C 121.289 8.20312 117.969 11.2793 112.061 11.2793 Z M 42.041 -8.20312 L 68.6035 -8.20312 C 71.0938 -8.20312 72.8516 -9.86328 72.8516 -12.5488 C 72.8516 -15.2832 71.0938 -16.8457 68.6035 -16.8457 L 50.5859 -16.8457 L 50.5859 -17.2852 L 62.8418 -31.2988 C 68.0664 -37.2559 71.3379 -42.1387 71.3379 -48.3887 C 71.3379 -57.5684 64.6973 -63.6719 54.3945 -63.6719 C 46.3867 -63.6719 39.4531 -58.6914 37.7441 -51.8066 C 37.5 -50.8789 37.3535 -50.0488 37.3535 -49.0723 C 37.3535 -46.6309 38.9648 -44.9707 41.3574 -44.9707 C 43.5547 -44.9707 44.6777 -46.2402 45.4102 -48.2422 C 46.7285 -52.7344 49.9512 -55.2246 54.4922 -55.2246 C 59.4238 -55.2246 62.7441 -52.1973 62.7441 -47.6562 C 62.7441 -43.6035 59.8145 -40.1855 56.3965 -36.2305 L 39.6484 -17.1387 C 38.2812 -15.5762 37.793 -14.209 37.793 -12.5488 C 37.793 -10.0098 39.4043 -8.20312 42.041 -8.20312 Z M 104.98 -7.4707 C 107.812 -7.4707 109.521 -9.32617 109.521 -12.793 L 109.521 -19.043 L 112.939 -19.043 C 115.186 -19.043 116.699 -20.5078 116.699 -22.998 C 116.699 -25.4883 115.186 -27.0508 112.891 -27.0508 L 109.375 -27.0508 L 109.375 -56.6895 C 109.375 -60.9863 106.787 -63.5254 102.441 -63.5254 C 98.1934 -63.5254 95.6055 -62.0605 93.457 -58.2031 C 88.5254 -49.9023 81.6895 -38.0859 77.9297 -30.7617 C 76.9531 -28.7598 76.4648 -27.002 76.4648 -24.9512 C 76.4648 -21.1914 78.7598 -18.9941 82.5684 -18.9941 L 100.537 -18.9941 L 100.537 -12.793 C 100.537 -9.375 102.246 -7.4707 104.98 -7.4707 Z M 100.83 -27.002 L 85.6445 -27.002 L 85.6445 -27.2949 C 88.9648 -33.9355 96.0938 -46.9727 100.488 -54.7363 L 100.83 -54.7363 Z"/>
  </g>
  <g id="Bold-L" transform="matrix(1 0 0 1 2264.34 1556)">
   <path d="M 37.5488 24.3652 L 113.721 24.3652 C 127.686 24.3652 135.205 16.8945 135.205 3.07617 L 135.205 -73.3887 C 135.205 -87.207 127.686 -94.7266 113.721 -94.7266 L 37.5488 -94.7266 C 23.6328 -94.7266 16.0645 -87.2559 16.0645 -73.3887 L 16.0645 3.07617 C 16.0645 16.8945 23.6328 24.3652 37.5488 24.3652 Z M 38.9648 9.91211 C 33.4473 9.91211 30.5176 7.17773 30.5176 1.41602 L 30.5176 -71.7285 C 30.5176 -77.5391 33.4473 -80.2734 38.9648 -80.2734 L 112.256 -80.2734 C 117.725 -80.2734 120.752 -77.5391 120.752 -71.7285 L 120.752 1.41602 C 120.752 7.17773 117.725 9.91211 112.256 9.91211 Z M 43.6035 -8.39844 L 69.043 -8.39844 C 71.875 -8.39844 73.7793 -10.2539 73.7793 -13.2812 C 73.7793 -16.3574 71.875 -18.0664 69.043 -18.0664 L 52.9785 -18.0664 L 52.9785 -18.5547 L 63.916 -31.0059 C 69.0918 -36.9141 72.3145 -41.7969 72.2656 -48.0957 C 72.3145 -57.2266 65.7227 -63.4277 55.4688 -63.4277 C 47.4609 -63.4277 40.625 -58.5449 38.8184 -51.709 C 38.5742 -50.6836 38.4277 -49.8047 38.4277 -48.6816 C 38.4277 -46.0449 40.2344 -44.2383 42.8711 -44.2383 C 45.2637 -44.2383 46.582 -45.6543 47.3633 -47.7539 C 48.584 -51.7578 51.416 -53.9551 55.4199 -53.9551 C 59.8145 -53.9551 62.793 -51.2695 62.793 -47.2168 C 62.793 -43.4082 60.0098 -40.1855 56.6406 -36.377 L 41.1133 -18.6523 C 39.4531 -16.7969 38.8672 -15.2344 38.8672 -13.2324 C 38.8672 -10.4492 40.6738 -8.39844 43.6035 -8.39844 Z M 105.078 -7.56836 C 108.252 -7.56836 110.205 -9.61914 110.205 -13.5254 L 110.205 -18.7988 L 112.891 -18.7988 C 115.332 -18.7988 116.943 -20.4102 116.943 -23.1934 C 116.943 -25.9277 115.332 -27.6855 112.842 -27.6855 L 110.01 -27.6855 L 110.01 -55.6152 C 110.01 -60.4492 107.227 -63.2324 102.295 -63.2324 C 97.5586 -63.2324 94.7266 -61.6699 92.3828 -57.4219 C 87.8418 -49.5605 81.9336 -38.623 78.5645 -31.8359 C 77.5391 -29.6387 77.002 -27.5879 77.002 -25.293 C 77.002 -21.1426 79.4434 -18.7012 83.6426 -18.7012 L 100.049 -18.7012 L 100.049 -13.5254 C 100.049 -9.66797 102.002 -7.56836 105.078 -7.56836 Z M 100.537 -27.6367 L 87.0605 -27.6367 L 87.0605 -27.9297 C 90.0879 -34.1797 96.2402 -46.4355 100.244 -53.8574 L 100.537 -53.8574 Z"/>
  </g>
  <g id="Heavy-L" transform="matrix(1 0 0 1 2559.91 1556)">
   <path d="M 38.8184 25.4883 L 114.697 25.4883 C 129.346 25.4883 137.451 17.4316 137.451 2.88086 L 137.451 -73.2422 C 137.451 -87.793 129.346 -95.8496 114.697 -95.8496 L 38.8184 -95.8496 C 24.2188 -95.8496 16.0645 -87.793 16.0645 -73.2422 L 16.0645 2.88086 C 16.0645 17.4316 24.2188 25.4883 38.8184 25.4883 Z M 40.9668 8.00781 C 36.1328 8.00781 33.5938 5.71289 33.5938 0.585938 L 33.5938 -70.9473 C 33.5938 -76.0742 36.1328 -78.3691 40.9668 -78.3691 L 112.598 -78.3691 C 117.383 -78.3691 119.971 -76.0742 119.971 -70.9473 L 119.971 0.585938 C 119.971 5.71289 117.383 8.00781 112.598 8.00781 Z M 45.8984 -8.69141 L 69.6289 -8.69141 C 72.998 -8.69141 75.1953 -10.8398 75.1953 -14.3555 C 75.1953 -17.8711 72.998 -19.873 69.6289 -19.873 L 56.4941 -19.873 L 56.4941 -20.4102 L 65.4785 -30.6641 C 70.5566 -36.4746 73.7305 -41.3574 73.6816 -47.6562 C 73.7305 -56.7383 67.1875 -63.0371 56.9824 -63.0371 C 49.0723 -63.0371 42.2852 -58.3496 40.4297 -51.5137 C 40.1367 -50.4395 39.9902 -49.3652 39.9902 -48.1445 C 39.9902 -45.166 42.0898 -43.1641 45.0195 -43.1641 C 47.8516 -43.1641 49.3164 -44.7754 50.1465 -47.0215 C 51.2695 -50.3418 53.5645 -52.1484 56.7871 -52.1484 C 60.3516 -52.1484 62.8418 -49.8535 62.8418 -46.582 C 62.8418 -43.1152 60.3027 -40.2344 57.0312 -36.5723 L 43.2129 -20.8496 C 41.1621 -18.5547 40.4297 -16.6992 40.4297 -14.2578 C 40.4297 -11.1328 42.5293 -8.69141 45.8984 -8.69141 Z M 105.225 -7.71484 C 108.887 -7.71484 111.182 -10.0586 111.182 -14.5996 L 111.182 -18.457 L 112.842 -18.457 C 115.576 -18.457 117.334 -20.3125 117.334 -23.4375 C 117.334 -26.6113 115.576 -28.6133 112.793 -28.6133 L 110.84 -28.6133 L 110.84 -54.0527 C 110.84 -59.7168 107.861 -62.793 102.148 -62.793 C 96.6797 -62.793 93.4082 -61.0352 90.8691 -56.25 C 86.9141 -49.0234 82.2266 -39.4043 79.4434 -33.3496 C 78.3691 -30.8594 77.7344 -28.4668 77.7344 -25.7324 C 77.7344 -21.0938 80.4199 -18.3105 85.2051 -18.3105 L 99.4141 -18.3105 L 99.4141 -14.5996 C 99.4141 -10.1074 101.66 -7.71484 105.225 -7.71484 Z M 100.098 -28.5645 L 89.1113 -28.5645 L 89.1113 -28.8086 C 91.6504 -34.5215 96.4355 -45.7031 99.8535 -52.5879 L 100.098 -52.5879 Z"/>
  </g>
  <g id="Black-L" transform="matrix(1 0 0 1 2855.62 1556)">
   <path d="M 39.9902 26.5137 L 115.576 26.5137 C 130.859 26.5137 139.502 17.8711 139.502 2.68555 L 139.502 -73.0957 C 139.502 -88.2812 130.859 -96.875 115.576 -96.875 L 39.9902 -96.875 C 24.7559 -96.875 16.0645 -88.2812 16.0645 -73.0957 L 16.0645 2.68555 C 16.0645 17.8711 24.7559 26.5137 39.9902 26.5137 Z M 42.7246 6.29883 C 38.4766 6.29883 36.3281 4.39453 36.3281 -0.146484 L 36.3281 -70.2148 C 36.3281 -74.7559 38.4766 -76.6602 42.7246 -76.6602 L 112.842 -76.6602 C 117.09 -76.6602 119.238 -74.7559 119.238 -70.2148 L 119.238 -0.146484 C 119.238 4.39453 117.09 6.29883 112.842 6.29883 Z M 47.9004 -8.98438 L 70.166 -8.98438 C 74.0234 -8.98438 76.4648 -11.3281 76.4648 -15.2832 C 76.4648 -19.2383 74.0234 -21.4844 70.166 -21.4844 L 59.668 -21.4844 L 59.668 -22.0215 L 66.8457 -30.3223 C 71.875 -36.0352 75 -40.9668 74.9023 -47.2168 C 75 -56.2988 68.5059 -62.7441 58.3008 -62.7441 C 50.4883 -62.7441 43.7988 -58.1543 41.8945 -51.3672 C 41.5039 -50.1953 41.3574 -49.0234 41.3574 -47.6074 C 41.3574 -44.3359 43.7988 -42.2363 46.9727 -42.2363 C 50.0977 -42.2363 51.7578 -43.9453 52.6367 -46.3867 C 53.6621 -49.0723 55.4688 -50.5371 58.0078 -50.5371 C 60.8398 -50.5371 62.9395 -48.6328 62.9395 -45.9961 C 62.9395 -42.8223 60.5469 -40.2832 57.373 -36.7188 L 45.0684 -22.8027 C 42.6758 -20.1172 41.8457 -18.0176 41.8457 -15.1855 C 41.8457 -11.7188 44.1895 -8.98438 47.9004 -8.98438 Z M 105.371 -7.91016 C 109.424 -7.91016 112.061 -10.4492 112.061 -15.5762 L 112.061 -18.1641 L 112.793 -18.1641 C 115.771 -18.1641 117.725 -20.2148 117.725 -23.6816 C 117.725 -27.1973 115.771 -29.4922 112.744 -29.4922 L 111.621 -29.4922 L 111.621 -52.6367 C 111.621 -59.0332 108.447 -62.4023 101.953 -62.4023 C 95.8984 -62.4023 92.2363 -60.498 89.502 -55.1758 C 86.0352 -48.584 82.4707 -40.1367 80.2246 -34.668 C 79.1016 -31.9824 78.418 -29.1992 78.418 -26.123 C 78.418 -21.0449 81.2988 -17.9688 86.6211 -17.9688 L 98.7793 -17.9688 L 98.7793 -15.5762 C 98.7793 -10.4492 101.367 -7.91016 105.371 -7.91016 Z M 99.7559 -29.3457 L 90.9668 -29.3457 L 90.9668 -29.6387 C 93.0176 -34.8145 96.582 -45.0684 99.5117 -51.4648 L 99.7559 -51.4648 Z"/>
  </g>
 </g>
</svg>
