<?xml version="1.0" encoding="UTF-8"?>
<!--Generator: Apple Native CoreSVG 123-->
<!DOCTYPE svg
PUBLIC "-//W3C//DTD SVG 1.1//EN"
       "http://www.w3.org/Graphics/SVG/1.1/DTD/svg11.dtd">
<svg version="1.1" xmlns="http://www.w3.org/2000/svg" xmlns:xlink="http://www.w3.org/1999/xlink" width="3300" height="2200">
 <!--glyph: "uni100566.medium", point size: 100.000000, font version: "Version 15.0d4e20", template writer version: "2"-->
 <g id="Notes">
  <rect height="2200" id="artboard" style="fill:white;opacity:1" width="3300" x="0" y="0"/>
  <line id="" style="fill:none;stroke:black;opacity:1;stroke-width:0.5;" x1="263" x2="3036" y1="292" y2="292"/>
  <text style="stroke:none;fill:black;font-family:-apple-system,&quot;SF Pro Display&quot;,&quot;SF Pro Text&quot;,Helvetica,sans-serif;font-weight:bold;" transform="matrix(1 0 0 1 263 322)">Weight/Scale Variations</text>
  <text style="stroke:none;fill:black;font-family:-apple-system,&quot;SF Pro Display&quot;,&quot;SF Pro Text&quot;,Helvetica,sans-serif;text-anchor:middle;" transform="matrix(1 0 0 1 559.711 322)">Ultralight</text>
  <text style="stroke:none;fill:black;font-family:-apple-system,&quot;SF Pro Display&quot;,&quot;SF Pro Text&quot;,Helvetica,sans-serif;text-anchor:middle;" transform="matrix(1 0 0 1 856.422 322)">Thin</text>
  <text style="stroke:none;fill:black;font-family:-apple-system,&quot;SF Pro Display&quot;,&quot;SF Pro Text&quot;,Helvetica,sans-serif;text-anchor:middle;" transform="matrix(1 0 0 1 1153.13 322)">Light</text>
  <text style="stroke:none;fill:black;font-family:-apple-system,&quot;SF Pro Display&quot;,&quot;SF Pro Text&quot;,Helvetica,sans-serif;text-anchor:middle;" transform="matrix(1 0 0 1 1449.84 322)">Regular</text>
  <text style="stroke:none;fill:black;font-family:-apple-system,&quot;SF Pro Display&quot;,&quot;SF Pro Text&quot;,Helvetica,sans-serif;text-anchor:middle;" transform="matrix(1 0 0 1 1746.56 322)">Medium</text>
  <text style="stroke:none;fill:black;font-family:-apple-system,&quot;SF Pro Display&quot;,&quot;SF Pro Text&quot;,Helvetica,sans-serif;text-anchor:middle;" transform="matrix(1 0 0 1 2043.27 322)">Semibold</text>
  <text style="stroke:none;fill:black;font-family:-apple-system,&quot;SF Pro Display&quot;,&quot;SF Pro Text&quot;,Helvetica,sans-serif;text-anchor:middle;" transform="matrix(1 0 0 1 2339.98 322)">Bold</text>
  <text style="stroke:none;fill:black;font-family:-apple-system,&quot;SF Pro Display&quot;,&quot;SF Pro Text&quot;,Helvetica,sans-serif;text-anchor:middle;" transform="matrix(1 0 0 1 2636.69 322)">Heavy</text>
  <text style="stroke:none;fill:black;font-family:-apple-system,&quot;SF Pro Display&quot;,&quot;SF Pro Text&quot;,Helvetica,sans-serif;text-anchor:middle;" transform="matrix(1 0 0 1 2933.4 322)">Black</text>
  <line id="" style="fill:none;stroke:black;opacity:1;stroke-width:0.5;" x1="263" x2="3036" y1="1903" y2="1903"/>
  <g id="" transform="matrix(1 0 0 1 263 1933)">
   <path d="M 9.24805 0.830078 C 13.5547 0.830078 17.1387 -2.74414 17.1387 -7.05078 C 17.1387 -11.3574 13.5449 -14.9316 9.23828 -14.9316 C 4.94141 -14.9316 1.36719 -11.3574 1.36719 -7.05078 C 1.36719 -2.74414 4.95117 0.830078 9.24805 0.830078 Z M 9.24805 -0.654297 C 5.70312 -0.654297 2.87109 -3.49609 2.87109 -7.05078 C 2.87109 -10.6055 5.69336 -13.4473 9.23828 -13.4473 C 12.793 -13.4473 15.6348 -10.6055 15.6445 -7.05078 C 15.6543 -3.49609 12.8027 -0.654297 9.24805 -0.654297 Z M 9.22852 -3.42773 C 9.69727 -3.42773 9.9707 -3.74023 9.9707 -4.25781 L 9.9707 -6.31836 L 12.1973 -6.31836 C 12.6953 -6.31836 13.0371 -6.57227 13.0371 -7.04102 C 13.0371 -7.51953 12.7148 -7.7832 12.1973 -7.7832 L 9.9707 -7.7832 L 9.9707 -10.0098 C 9.9707 -10.5273 9.69727 -10.8496 9.22852 -10.8496 C 8.75977 -10.8496 8.50586 -10.5078 8.50586 -10.0098 L 8.50586 -7.7832 L 6.29883 -7.7832 C 5.78125 -7.7832 5.44922 -7.51953 5.44922 -7.04102 C 5.44922 -6.57227 5.80078 -6.31836 6.29883 -6.31836 L 8.50586 -6.31836 L 8.50586 -4.25781 C 8.50586 -3.75977 8.75977 -3.42773 9.22852 -3.42773 Z"/>
  </g>
  <g id="" transform="matrix(1 0 0 1 281.506 1933)">
   <path d="M 11.709 2.91016 C 17.1484 2.91016 21.6699 -1.60156 21.6699 -7.05078 C 21.6699 -12.4902 17.1387 -17.0117 11.6992 -17.0117 C 6.25 -17.0117 1.74805 -12.4902 1.74805 -7.05078 C 1.74805 -1.60156 6.25977 2.91016 11.709 2.91016 Z M 11.709 1.25 C 7.09961 1.25 3.41797 -2.44141 3.41797 -7.05078 C 3.41797 -11.6504 7.08984 -15.3516 11.6992 -15.3516 C 16.2988 -15.3516 20 -11.6504 20.0098 -7.05078 C 20.0195 -2.44141 16.3086 1.25 11.709 1.25 Z M 11.6797 -2.41211 C 12.207 -2.41211 12.5195 -2.77344 12.5195 -3.33984 L 12.5195 -6.23047 L 15.5762 -6.23047 C 16.123 -6.23047 16.5039 -6.51367 16.5039 -7.03125 C 16.5039 -7.55859 16.1426 -7.86133 15.5762 -7.86133 L 12.5195 -7.86133 L 12.5195 -10.9277 C 12.5195 -11.5039 12.207 -11.8555 11.6797 -11.8555 C 11.1621 -11.8555 10.8789 -11.4844 10.8789 -10.9277 L 10.8789 -7.86133 L 7.83203 -7.86133 C 7.25586 -7.86133 6.89453 -7.55859 6.89453 -7.03125 C 6.89453 -6.51367 7.28516 -6.23047 7.83203 -6.23047 L 10.8789 -6.23047 L 10.8789 -3.33984 C 10.8789 -2.79297 11.1621 -2.41211 11.6797 -2.41211 Z"/>
  </g>
  <g id="" transform="matrix(1 0 0 1 304.914 1933)">
   <path d="M 14.9707 5.67383 C 21.9336 5.67383 27.6855 -0.078125 27.6855 -7.04102 C 27.6855 -14.0039 21.9238 -19.7559 14.9609 -19.7559 C 7.99805 -19.7559 2.25586 -14.0039 2.25586 -7.04102 C 2.25586 -0.078125 8.00781 5.67383 14.9707 5.67383 Z M 14.9707 3.85742 C 8.92578 3.85742 4.08203 -1.00586 4.08203 -7.04102 C 4.08203 -13.0762 8.91602 -17.9395 14.9609 -17.9395 C 20.9961 -17.9395 25.8594 -13.0762 25.8691 -7.04102 C 25.8789 -1.00586 21.0059 3.85742 14.9707 3.85742 Z M 14.9414 -1.06445 C 15.5176 -1.06445 15.8594 -1.45508 15.8594 -2.06055 L 15.8594 -6.13281 L 20.0977 -6.13281 C 20.6934 -6.13281 21.1133 -6.46484 21.1133 -7.02148 C 21.1133 -7.59766 20.7227 -7.93945 20.0977 -7.93945 L 15.8594 -7.93945 L 15.8594 -12.1875 C 15.8594 -12.8027 15.5176 -13.1934 14.9414 -13.1934 C 14.3848 -13.1934 14.0625 -12.7832 14.0625 -12.1875 L 14.0625 -7.93945 L 9.82422 -7.93945 C 9.20898 -7.93945 8.80859 -7.59766 8.80859 -7.02148 C 8.80859 -6.46484 9.23828 -6.13281 9.82422 -6.13281 L 14.0625 -6.13281 L 14.0625 -2.06055 C 14.0625 -1.47461 14.3848 -1.06445 14.9414 -1.06445 Z"/>
  </g>
  <text style="stroke:none;fill:black;font-family:-apple-system,&quot;SF Pro Display&quot;,&quot;SF Pro Text&quot;,Helvetica,sans-serif;font-weight:bold;" transform="matrix(1 0 0 1 263 1953)">Design Variations</text>
  <text style="stroke:none;fill:black;font-family:-apple-system,&quot;SF Pro Display&quot;,&quot;SF Pro Text&quot;,Helvetica,sans-serif;" transform="matrix(1 0 0 1 263 1971)">Symbols are supported in up to nine weights and three scales.</text>
  <text style="stroke:none;fill:black;font-family:-apple-system,&quot;SF Pro Display&quot;,&quot;SF Pro Text&quot;,Helvetica,sans-serif;" transform="matrix(1 0 0 1 263 1989)">For optimal layout with text and other symbols, vertically align</text>
  <text style="stroke:none;fill:black;font-family:-apple-system,&quot;SF Pro Display&quot;,&quot;SF Pro Text&quot;,Helvetica,sans-serif;" transform="matrix(1 0 0 1 263 2007)">symbols with the adjacent text.</text>
  <rect height="14" id="" style="fill:#00AEEF;stroke:none;opacity:0.4;" width="3" x="776" y="1919"/>
  <g id="" transform="matrix(1 0 0 1 779 1933)">
   <path d="M 10.5273 0 L 12.373 0 L 7.17773 -14.0918 L 5.43945 -14.0918 L 0.244141 0 L 2.08984 0 L 3.50586 -4.0332 L 9.11133 -4.0332 Z M 6.2793 -11.9531 L 6.33789 -11.9531 L 8.59375 -5.52734 L 4.02344 -5.52734 Z"/>
  </g>
  <rect height="14" id="" style="fill:#00AEEF;stroke:none;opacity:0.4;" width="3" x="791.617" y="1919"/>
  <text style="stroke:none;fill:black;font-family:-apple-system,&quot;SF Pro Display&quot;,&quot;SF Pro Text&quot;,Helvetica,sans-serif;font-weight:bold;" transform="matrix(1 0 0 1 776 1953)">Side Bearings</text>
  <text style="stroke:none;fill:black;font-family:-apple-system,&quot;SF Pro Display&quot;,&quot;SF Pro Text&quot;,Helvetica,sans-serif;" transform="matrix(1 0 0 1 776 1971)">Horizontal padding on the left and right side of each symbol</text>
  <text style="stroke:none;fill:black;font-family:-apple-system,&quot;SF Pro Display&quot;,&quot;SF Pro Text&quot;,Helvetica,sans-serif;" transform="matrix(1 0 0 1 776 1989)">can be adjusted by modifying the width of the blue rectangles.</text>
  <text style="stroke:none;fill:black;font-family:-apple-system,&quot;SF Pro Display&quot;,&quot;SF Pro Text&quot;,Helvetica,sans-serif;" transform="matrix(1 0 0 1 776 2007)">Modifications are automatically applied proportionally to all</text>
  <text style="stroke:none;fill:black;font-family:-apple-system,&quot;SF Pro Display&quot;,&quot;SF Pro Text&quot;,Helvetica,sans-serif;" transform="matrix(1 0 0 1 776 2025)">scales and weights.</text>
  <g id="" transform="matrix(1 0 0 1 1289 1933)">
   <path d="M 2.96875 2.35352 L 3.80859 3.19336 C 4.84375 4.22852 6.12305 4.15039 7.19727 2.97852 L 16.1621 -6.82617 C 16.5527 -6.74805 16.9629 -6.8457 17.4902 -7.02148 C 18.1738 -7.25586 18.2715 -7.25586 18.3887 -7.13867 C 18.5352 -7.01172 18.4863 -6.89453 18.2422 -6.25 C 17.8809 -5.33203 17.8125 -4.79492 18.5547 -4.02344 L 19.4238 -3.13477 C 20.2734 -2.24609 21.3281 -2.26562 22.2168 -3.14453 L 25.0586 -5.97656 C 25.9473 -6.86523 25.957 -7.92969 25.0781 -8.7793 L 24.1797 -9.64844 C 23.4082 -10.4004 22.8711 -10.3516 21.9629 -9.98047 C 21.3184 -9.72656 21.2012 -9.6875 21.0645 -9.81445 C 20.9375 -9.93164 20.9473 -10.0391 21.1816 -10.7129 C 21.5332 -11.6895 21.5723 -12.2852 20.752 -13.0957 L 19.3359 -14.5117 C 15.1953 -18.6133 11.2305 -18.7402 7.65625 -15.4395 C 7.08008 -14.9023 6.99219 -14.1504 7.53906 -13.6133 L 7.79297 -13.3594 C 8.22266 -12.9297 8.86719 -12.8418 9.41406 -13.1152 C 11.0645 -13.9453 12.2559 -14.0234 13.457 -12.9785 L 13.0273 -11.416 C 12.8516 -10.8008 12.793 -10.3418 12.9199 -9.93164 L 3.18359 -1.04492 C 2.02148 0.0292969 1.93359 1.32812 2.96875 2.35352 Z M 8.96484 -14.4922 C 8.89648 -14.5703 8.86719 -14.6582 8.99414 -14.7559 C 11.709 -17.2852 15.0391 -16.8457 18.3496 -13.5254 L 19.6973 -12.168 C 20.0879 -11.7773 20.0977 -11.582 19.8828 -10.8691 C 19.6582 -10.127 19.502 -9.53125 20.1465 -8.88672 C 20.8105 -8.22266 21.2891 -8.41797 22.207 -8.63281 C 22.9004 -8.79883 23.0664 -8.79883 23.4473 -8.41797 L 24.0918 -7.77344 C 24.4043 -7.48047 24.4141 -7.32422 24.0723 -6.97266 L 21.2207 -4.13086 C 20.8887 -3.79883 20.7227 -3.79883 20.4297 -4.10156 L 19.7852 -4.75586 C 19.4141 -5.13672 19.4141 -5.30273 19.5801 -6.01562 C 19.7852 -6.88477 19.9805 -7.38281 19.3262 -8.04688 C 18.6719 -8.7207 18.0762 -8.57422 17.3438 -8.33008 C 16.5625 -8.06641 16.3281 -8.06641 15.8984 -8.49609 L 14.6094 -9.78516 C 14.1699 -10.2246 14.1309 -10.4395 14.2676 -10.9082 L 15.0293 -13.3984 C 13.3887 -15.2832 11.4941 -15.5566 9.20898 -14.4434 C 9.11133 -14.3945 9.04297 -14.4141 8.96484 -14.4922 Z M 3.96484 1.36719 C 3.52539 0.927734 3.54492 0.537109 4.14062 -0.00976562 L 13.7402 -8.81836 L 15 -7.55859 L 6.17188 2.02148 C 5.625 2.60742 5.24414 2.64648 4.79492 2.19727 Z"/>
  </g>
  <text style="stroke:none;fill:black;font-family:-apple-system,&quot;SF Pro Display&quot;,&quot;SF Pro Text&quot;,Helvetica,sans-serif;font-weight:bold;" transform="matrix(1 0 0 1 1289 1953)">Exporting</text>
  <text style="stroke:none;fill:black;font-family:-apple-system,&quot;SF Pro Display&quot;,&quot;SF Pro Text&quot;,Helvetica,sans-serif;" transform="matrix(1 0 0 1 1289 1971)">Symbols should be outlined when exporting to ensure the</text>
  <text style="stroke:none;fill:black;font-family:-apple-system,&quot;SF Pro Display&quot;,&quot;SF Pro Text&quot;,Helvetica,sans-serif;" transform="matrix(1 0 0 1 1289 1989)">design is preserved when submitting to Xcode.</text>
  <text id="template-version" style="stroke:none;fill:black;font-family:-apple-system,&quot;SF Pro Display&quot;,&quot;SF Pro Text&quot;,Helvetica,sans-serif;text-anchor:end;" transform="matrix(1 0 0 1 3036 1933)">Template v.0.1</text>
  <text style="stroke:none;fill:black;font-family:-apple-system,&quot;SF Pro Display&quot;,&quot;SF Pro Text&quot;,Helvetica,sans-serif;text-anchor:end;" transform="matrix(1 0 0 1 3036 1951)">Generated from 30.square.fill</text>
  <text style="stroke:none;fill:black;font-family:-apple-system,&quot;SF Pro Display&quot;,&quot;SF Pro Text&quot;,Helvetica,sans-serif;text-anchor:end;" transform="matrix(1 0 0 1 3036 1969)">Typeset at 100 points</text>
  <text style="stroke:none;fill:black;font-family:-apple-system,&quot;SF Pro Display&quot;,&quot;SF Pro Text&quot;,Helvetica,sans-serif;" transform="matrix(1 0 0 1 263 726)">Small</text>
  <text style="stroke:none;fill:black;font-family:-apple-system,&quot;SF Pro Display&quot;,&quot;SF Pro Text&quot;,Helvetica,sans-serif;" transform="matrix(1 0 0 1 263 1156)">Medium</text>
  <text style="stroke:none;fill:black;font-family:-apple-system,&quot;SF Pro Display&quot;,&quot;SF Pro Text&quot;,Helvetica,sans-serif;" transform="matrix(1 0 0 1 263 1586)">Large</text>
 </g>
 <g id="Guides">
  <g id="H-reference" style="fill:#27AAE1;stroke:none;" transform="matrix(1 0 0 1 339 696)">
   <path d="M 54.9316 0 L 57.666 0 L 30.5664 -70.459 L 28.0762 -70.459 L 0.976562 0 L 3.66211 0 L 12.9395 -24.4629 L 45.7031 -24.4629 Z M 29.1992 -67.0898 L 29.4434 -67.0898 L 44.8242 -26.709 L 13.8184 -26.709 Z"/>
  </g>
  <line id="Baseline-S" style="fill:none;stroke:#27AAE1;opacity:1;stroke-width:0.577;" x1="263" x2="3036" y1="696" y2="696"/>
  <line id="Capline-S" style="fill:none;stroke:#27AAE1;opacity:1;stroke-width:0.577;" x1="263" x2="3036" y1="625.541" y2="625.541"/>
  <g id="H-reference" style="fill:#27AAE1;stroke:none;" transform="matrix(1 0 0 1 339 1126)">
   <path d="M 54.9316 0 L 57.666 0 L 30.5664 -70.459 L 28.0762 -70.459 L 0.976562 0 L 3.66211 0 L 12.9395 -24.4629 L 45.7031 -24.4629 Z M 29.1992 -67.0898 L 29.4434 -67.0898 L 44.8242 -26.709 L 13.8184 -26.709 Z"/>
  </g>
  <line id="Baseline-M" style="fill:none;stroke:#27AAE1;opacity:1;stroke-width:0.577;" x1="263" x2="3036" y1="1126" y2="1126"/>
  <line id="Capline-M" style="fill:none;stroke:#27AAE1;opacity:1;stroke-width:0.577;" x1="263" x2="3036" y1="1055.54" y2="1055.54"/>
  <g id="H-reference" style="fill:#27AAE1;stroke:none;" transform="matrix(1 0 0 1 339 1556)">
   <path d="M 54.9316 0 L 57.666 0 L 30.5664 -70.459 L 28.0762 -70.459 L 0.976562 0 L 3.66211 0 L 12.9395 -24.4629 L 45.7031 -24.4629 Z M 29.1992 -67.0898 L 29.4434 -67.0898 L 44.8242 -26.709 L 13.8184 -26.709 Z"/>
  </g>
  <line id="Baseline-L" style="fill:none;stroke:#27AAE1;opacity:1;stroke-width:0.577;" x1="263" x2="3036" y1="1556" y2="1556"/>
  <line id="Capline-L" style="fill:none;stroke:#27AAE1;opacity:1;stroke-width:0.577;" x1="263" x2="3036" y1="1485.54" y2="1485.54"/>
  <rect height="119.336" id="left-margin" style="fill:#00AEEF;stroke:none;opacity:0.4;" width="12.4512" x="1392.42" y="1030.79"/>
  <rect height="119.336" id="right-margin" style="fill:#00AEEF;stroke:none;opacity:0.4;" width="12.5" x="1494.77" y="1030.79"/>
 </g>
 <g id="Symbols">
  <g id="Ultralight-S" transform="matrix(1 0 0 1 516.352 696)">
   <path d="M 19.7754 -1.5625 L 66.9922 -1.5625 C 73.5352 -1.5625 76.9531 -5.12695 76.9531 -11.5234 L 76.9531 -58.7891 C 76.9531 -65.2344 73.5352 -68.75 66.9922 -68.75 L 19.7754 -68.75 C 13.2324 -68.75 9.76562 -65.2832 9.76562 -58.7891 L 9.76562 -11.5234 C 9.76562 -5.0293 13.2324 -1.5625 19.7754 -1.5625 Z M 58.7402 -16.9434 C 51.3672 -16.9434 46.2891 -24.3652 46.2891 -35.3027 C 46.2891 -46.2402 51.3672 -53.6621 58.7402 -53.6621 C 66.1621 -53.6621 71.2402 -46.2402 71.2402 -35.3027 C 71.2402 -24.3652 66.1621 -16.9434 58.7402 -16.9434 Z M 29.834 -16.8945 C 24.2676 -16.8945 19.7266 -19.8242 18.5059 -24.0234 C 18.3594 -24.4629 18.3105 -24.8047 18.3105 -25.1465 C 18.3105 -25.8789 18.8477 -26.416 19.5312 -26.416 C 20.166 -26.416 20.5566 -26.0254 20.752 -25.2441 C 21.5332 -21.6309 25.2441 -19.043 29.834 -19.043 C 35.498 -19.043 39.4043 -22.3145 39.4043 -27.0996 C 39.4043 -31.4941 35.4492 -34.7168 30.2734 -34.7168 L 26.5625 -34.7168 C 25.8789 -34.7168 25.4395 -35.2051 25.4395 -35.8887 C 25.4395 -36.5234 25.8789 -37.0117 26.5625 -37.0117 L 30.0293 -37.0117 C 34.5215 -37.0117 38.0859 -40.2832 38.0859 -44.4336 C 38.0859 -48.6328 34.7168 -51.4648 29.7852 -51.4648 C 25.3418 -51.4648 21.9727 -48.9258 21.4844 -45.2637 C 21.4355 -44.5312 20.9961 -44.1406 20.3125 -44.1406 C 19.6289 -44.1406 19.1406 -44.6289 19.1406 -45.3613 C 19.1406 -45.752 19.1895 -46.0938 19.2383 -46.4844 C 19.8242 -50.6836 24.4141 -53.6133 29.7852 -53.6133 C 35.9863 -53.6133 40.5273 -49.9023 40.5273 -44.7266 C 40.5273 -40.5273 37.5977 -36.8652 33.4473 -36.084 L 33.4473 -35.8887 C 38.1836 -35.4004 41.8457 -31.5918 41.8457 -27.0508 C 41.8457 -21.1914 36.8164 -16.8945 29.834 -16.8945 Z M 58.7402 -19.1895 C 64.7461 -19.1895 68.8477 -25.7324 68.8477 -35.3027 C 68.8477 -44.873 64.7461 -51.4648 58.7402 -51.4648 C 52.7344 -51.4648 48.6328 -44.873 48.6328 -35.3027 C 48.6328 -25.7324 52.7344 -19.1895 58.7402 -19.1895 Z"/>
  </g>
  <g id="Thin-S" transform="matrix(1 0 0 1 812.599 696)">
   <path d="M 20.3125 -1.12305 L 67.334 -1.12305 C 74.2676 -1.12305 77.8809 -4.78516 77.8809 -11.6211 L 77.8809 -58.6914 C 77.8809 -65.5762 74.2676 -69.2383 67.334 -69.2383 L 20.3125 -69.2383 C 13.3789 -69.2383 9.76562 -65.625 9.76562 -58.6914 L 9.76562 -11.6211 C 9.76562 -4.6875 13.3789 -1.12305 20.3125 -1.12305 Z M 58.9355 -16.8945 C 51.4648 -16.8945 46.3867 -24.3164 46.3867 -35.3027 C 46.3867 -46.3379 51.4648 -53.7598 58.9355 -53.7598 C 66.4062 -53.7598 71.4844 -46.3379 71.4844 -35.3027 C 71.4844 -24.3164 66.4062 -16.8945 58.9355 -16.8945 Z M 30.1758 -16.8457 C 24.5605 -16.8457 20.0195 -19.9707 18.7988 -24.1211 C 18.6523 -24.5605 18.6035 -24.9512 18.6035 -25.3418 C 18.6035 -26.3184 19.2871 -26.9531 20.166 -26.9531 C 20.9473 -26.9531 21.4355 -26.5137 21.6797 -25.5859 C 22.5586 -22.168 25.9277 -19.7754 30.1758 -19.7754 C 35.4492 -19.7754 39.0625 -22.8516 39.0625 -27.2461 C 39.0625 -31.3965 35.498 -34.375 30.6152 -34.375 L 27.1973 -34.375 C 26.3672 -34.375 25.7812 -35.0098 25.7812 -35.8887 C 25.7812 -36.7676 26.3672 -37.4023 27.1973 -37.4023 L 30.3711 -37.4023 C 34.5703 -37.4023 37.793 -40.3809 37.793 -44.2871 C 37.793 -48.1445 34.7168 -50.7812 30.1758 -50.7812 C 26.0742 -50.7812 22.998 -48.4863 22.4609 -44.9707 C 22.2656 -44.0918 21.7285 -43.6035 20.8984 -43.6035 C 20.0195 -43.6035 19.3848 -44.2871 19.3848 -45.2148 C 19.3848 -45.6055 19.4336 -45.9961 19.5312 -46.4355 C 20.2148 -50.6348 24.7559 -53.7109 30.2246 -53.7109 C 36.5234 -53.7109 41.0156 -49.9512 41.0156 -44.6777 C 41.0156 -40.5273 38.1348 -36.8652 34.1309 -36.1816 L 34.1309 -35.9375 C 38.7695 -35.4492 42.334 -31.6895 42.334 -27.1484 C 42.334 -21.1914 37.2559 -16.8457 30.1758 -16.8457 Z M 58.9355 -19.9219 C 64.4531 -19.9219 68.2129 -26.0742 68.2129 -35.3027 C 68.2129 -44.5312 64.4531 -50.6836 58.9355 -50.6836 C 53.3691 -50.6836 49.6582 -44.5312 49.6582 -35.3027 C 49.6582 -26.0742 53.3691 -19.9219 58.9355 -19.9219 Z"/>
  </g>
  <g id="Light-S" transform="matrix(1 0 0 1 1108.46 696)">
   <path d="M 21.3867 -0.292969 L 67.9688 -0.292969 C 75.7324 -0.292969 79.5898 -4.15039 79.5898 -11.7676 L 79.5898 -58.5938 C 79.5898 -66.2109 75.7324 -70.1172 67.9688 -70.1172 L 21.3867 -70.1172 C 13.6719 -70.1172 9.76562 -66.2598 9.76562 -58.5938 L 9.76562 -11.7676 C 9.76562 -4.15039 13.6719 -0.292969 21.3867 -0.292969 Z M 59.2773 -16.8457 C 51.709 -16.8457 46.6309 -24.2188 46.6309 -35.3027 C 46.6309 -46.4844 51.709 -53.8574 59.2773 -53.8574 C 66.8945 -53.8574 71.9727 -46.4844 71.9727 -35.3027 C 71.9727 -24.2188 66.8945 -16.8457 59.2773 -16.8457 Z M 30.8594 -16.8457 C 25.0488 -16.8457 20.5078 -20.2148 19.3848 -24.2676 C 19.2383 -24.8047 19.1406 -25.2441 19.1406 -25.7324 C 19.1406 -27.0996 20.1172 -28.0762 21.3867 -28.0762 C 22.4609 -28.0762 23.0957 -27.4902 23.584 -26.2207 C 24.5605 -23.0957 27.1973 -21.1914 30.9082 -21.1914 C 35.3516 -21.1914 38.4277 -23.877 38.4277 -27.5391 C 38.4277 -31.2012 35.498 -33.6914 31.25 -33.6914 L 28.4668 -33.6914 C 27.2461 -33.6914 26.416 -34.668 26.416 -35.9375 C 26.416 -37.2559 27.2461 -38.1348 28.4668 -38.1348 L 31.0059 -38.1348 C 34.668 -38.1348 37.3047 -40.5762 37.3047 -43.9941 C 37.3047 -47.2168 34.7168 -49.4629 31.0059 -49.4629 C 27.4414 -49.4629 25.0488 -47.6562 24.2676 -44.4824 C 23.877 -43.2617 23.2422 -42.5781 22.0703 -42.5781 C 20.8008 -42.5781 19.873 -43.5547 19.873 -44.9219 C 19.873 -45.459 19.9219 -45.8496 20.0195 -46.3867 C 20.9473 -50.5371 25.3418 -53.8574 31.1035 -53.8574 C 37.4512 -53.8574 41.9922 -50 41.9922 -44.5801 C 41.9922 -40.4785 39.209 -36.9141 35.498 -36.2793 L 35.498 -36.0352 C 39.8926 -35.5469 43.2129 -31.8848 43.2129 -27.3438 C 43.2129 -21.2402 38.0859 -16.8457 30.8594 -16.8457 Z M 59.2773 -21.4355 C 63.9648 -21.4355 66.9434 -26.8066 66.9434 -35.3027 C 66.9434 -43.8965 63.9648 -49.2676 59.2773 -49.2676 C 54.5898 -49.2676 51.6602 -43.8965 51.6602 -35.3027 C 51.6602 -26.8066 54.5898 -21.4355 59.2773 -21.4355 Z"/>
  </g>
  <g id="Regular-S" transform="matrix(1 0 0 1 1404.51 696)">
   <path d="M 22.2168 0.390625 L 68.457 0.390625 C 76.8066 0.390625 80.9082 -3.71094 80.9082 -11.9141 L 80.9082 -58.4961 C 80.9082 -66.6992 76.8066 -70.8008 68.457 -70.8008 L 22.2168 -70.8008 C 13.916 -70.8008 9.76562 -66.6992 9.76562 -58.4961 L 9.76562 -11.9141 C 9.76562 -3.71094 13.916 0.390625 22.2168 0.390625 Z M 59.5703 -16.7969 C 51.8555 -16.7969 46.8262 -24.1211 46.8262 -35.3027 C 46.8262 -46.6309 51.8555 -53.9551 59.5703 -53.9551 C 67.2852 -53.9551 72.3145 -46.6309 72.3145 -35.3027 C 72.3145 -24.1211 67.2852 -16.7969 59.5703 -16.7969 Z M 31.3965 -16.7969 C 25.4883 -16.7969 20.8984 -20.4102 19.7754 -24.4141 C 19.6289 -24.9512 19.5801 -25.4395 19.5801 -26.0254 C 19.5801 -27.7344 20.752 -28.9062 22.3145 -28.9062 C 23.6328 -28.9062 24.3652 -28.1738 25 -26.6602 C 26.123 -23.8281 28.1738 -22.2656 31.4453 -22.2656 C 35.2539 -22.2656 37.9883 -24.6582 37.9883 -27.7344 C 37.9883 -31.0547 35.5469 -33.1543 31.6895 -33.1543 L 29.4434 -33.1543 C 27.9297 -33.1543 26.8555 -34.375 26.8555 -35.9375 C 26.8555 -37.5977 27.9297 -38.6719 29.4434 -38.6719 L 31.4941 -38.6719 C 34.7168 -38.6719 36.8652 -40.7227 36.8652 -43.75 C 36.8652 -46.5332 34.7168 -48.4863 31.5918 -48.4863 C 28.4668 -48.4863 26.5625 -46.9727 25.6348 -44.043 C 25.1465 -42.5781 24.3652 -41.8457 22.9492 -41.8457 C 21.3867 -41.8457 20.2637 -43.0176 20.2637 -44.7266 C 20.2637 -45.3125 20.2637 -45.752 20.4102 -46.3379 C 21.5332 -50.4395 25.7812 -53.9551 31.7871 -53.9551 C 38.1836 -53.9551 42.6758 -50.0488 42.6758 -44.4824 C 42.6758 -40.4785 39.9902 -36.9141 36.4746 -36.377 L 36.4746 -36.084 C 40.7715 -35.6445 43.8965 -32.0312 43.8965 -27.4902 C 43.8965 -21.2402 38.7695 -16.7969 31.3965 -16.7969 Z M 59.5703 -22.5586 C 63.5254 -22.5586 65.9668 -27.3438 65.9668 -35.3027 C 65.9668 -43.4082 63.5742 -48.1934 59.5703 -48.1934 C 55.5176 -48.1934 53.1738 -43.4082 53.1738 -35.3027 C 53.1738 -27.3438 55.5664 -22.5586 59.5703 -22.5586 Z"/>
  </g>
  <g id="Medium-S" transform="matrix(1 0 0 1 1700.63 696)">
   <path d="M 22.8516 0.976562 L 68.9941 0.976562 C 77.6367 0.976562 82.0801 -3.4668 82.0801 -11.9629 L 82.0801 -58.3984 C 82.0801 -66.9434 77.6367 -71.3867 68.9941 -71.3867 L 22.8516 -71.3867 C 14.2578 -71.3867 9.76562 -66.9434 9.76562 -58.3984 L 9.76562 -11.9629 C 9.76562 -3.4668 14.2578 0.976562 22.8516 0.976562 Z M 60.1562 -17.0898 C 52.6367 -17.0898 47.7539 -23.8281 47.7539 -35.3027 C 47.7539 -46.9238 52.6367 -53.6621 60.1562 -53.6621 C 67.6758 -53.6621 72.6562 -46.9238 72.6562 -35.3027 C 72.6562 -23.8281 67.6758 -17.0898 60.1562 -17.0898 Z M 32.2754 -17.041 C 26.5625 -17.041 21.9727 -20.5566 20.8984 -24.3652 C 20.7031 -25 20.6055 -25.5371 20.6055 -26.1719 C 20.6055 -28.0762 21.9727 -29.2969 23.584 -29.2969 C 25 -29.2969 25.8789 -28.5645 26.5625 -27.1484 C 27.6367 -24.6094 29.5898 -23.2422 32.373 -23.2422 C 35.5957 -23.2422 37.8906 -25.3418 37.8906 -27.9785 C 37.8906 -30.8594 35.791 -32.666 32.4707 -32.666 L 30.7129 -32.666 C 28.8574 -32.666 27.7344 -33.9844 27.7344 -35.791 C 27.7344 -37.6465 28.9062 -38.916 30.7129 -38.916 L 32.3242 -38.916 C 35.1562 -38.916 36.9629 -40.7715 36.9629 -43.3105 C 36.9629 -45.8008 35.1074 -47.5098 32.373 -47.5098 C 29.7363 -47.5098 28.0273 -46.2402 27.0996 -43.6523 C 26.5137 -42.2363 25.6348 -41.4551 24.1211 -41.4551 C 22.4121 -41.4551 21.2402 -42.6758 21.2402 -44.5801 C 21.2402 -45.2148 21.2402 -45.8008 21.4844 -46.4355 C 22.6074 -50.1953 26.709 -53.6133 32.5684 -53.6133 C 39.1113 -53.6133 43.6035 -49.8047 43.6035 -44.2383 C 43.6035 -40.3809 41.0156 -36.9141 37.5977 -36.377 L 37.5977 -36.084 C 41.6992 -35.6445 44.6777 -32.0801 44.6777 -27.6367 C 44.6777 -21.3379 39.6484 -17.041 32.2754 -17.041 Z M 60.2051 -23.6328 C 63.5742 -23.6328 65.6738 -27.6855 65.6738 -35.3027 C 65.6738 -43.0664 63.623 -47.1191 60.2051 -47.1191 C 56.7871 -47.1191 54.7363 -43.0664 54.7363 -35.3027 C 54.7363 -27.6855 56.7871 -23.6328 60.2051 -23.6328 Z"/>
  </g>
  <g id="Semibold-S" transform="matrix(1 0 0 1 1996.9 696)">
   <path d="M 23.3398 1.41602 L 69.3848 1.41602 C 78.2227 1.41602 82.959 -3.32031 82.959 -12.0605 L 82.959 -58.3496 C 82.959 -67.0898 78.2227 -71.8262 69.3848 -71.8262 L 23.3398 -71.8262 C 14.5508 -71.8262 9.76562 -67.0898 9.76562 -58.3496 L 9.76562 -12.0605 C 9.76562 -3.32031 14.5508 1.41602 23.3398 1.41602 Z M 60.5957 -17.2852 C 53.2715 -17.2852 48.4375 -23.6328 48.4375 -35.3027 C 48.4375 -47.1191 53.2715 -53.4668 60.5957 -53.4668 C 67.9688 -53.4668 72.9492 -47.1191 72.9492 -35.3027 C 72.9492 -23.6328 67.9688 -17.2852 60.5957 -17.2852 Z M 32.959 -17.2363 C 27.3926 -17.2363 22.8516 -20.7031 21.7285 -24.3652 C 21.5332 -25 21.3867 -25.6348 21.3867 -26.2695 C 21.3867 -28.3691 22.9492 -29.6387 24.6094 -29.6387 C 26.0742 -29.6387 27.0508 -28.8574 27.7344 -27.4902 C 28.8086 -25.2441 30.6152 -24.0234 33.0566 -24.0234 C 35.8887 -24.0234 37.8418 -25.8789 37.8418 -28.125 C 37.8418 -30.6641 35.9863 -32.2754 33.1055 -32.2754 L 31.7383 -32.2754 C 29.5898 -32.2754 28.418 -33.7402 28.418 -35.6934 C 28.418 -37.7441 29.7363 -39.0625 31.7383 -39.0625 L 32.959 -39.0625 C 35.498 -39.0625 37.0605 -40.7715 37.0605 -43.0176 C 37.0605 -45.2637 35.3516 -46.7773 33.0078 -46.7773 C 30.6641 -46.7773 29.1504 -45.6543 28.1738 -43.3105 C 27.5391 -41.9434 26.6113 -41.1621 25.0488 -41.1621 C 23.2422 -41.1621 21.9727 -42.4316 21.9727 -44.4824 C 21.9727 -45.166 22.0215 -45.8008 22.3145 -46.5332 C 23.4375 -49.9512 27.4414 -53.418 33.1543 -53.418 C 39.8438 -53.418 44.2871 -49.6094 44.2871 -43.9941 C 44.2871 -40.332 41.7969 -36.9141 38.4766 -36.377 L 38.4766 -36.0352 C 42.4316 -35.6934 45.2637 -32.1289 45.2637 -27.7344 C 45.2637 -21.4355 40.332 -17.2363 32.959 -17.2363 Z M 60.6934 -24.4141 C 63.5742 -24.4141 65.3809 -27.9297 65.3809 -35.3027 C 65.3809 -42.8223 63.623 -46.3379 60.6934 -46.3379 C 57.7148 -46.3379 55.957 -42.8223 55.957 -35.3027 C 55.957 -27.9297 57.7637 -24.4141 60.6934 -24.4141 Z"/>
  </g>
  <g id="Bold-S" transform="matrix(1 0 0 1 2293.01 696)">
   <path d="M 23.9746 2.00195 L 69.9219 2.00195 C 79.0527 2.00195 84.1797 -3.07617 84.1797 -12.1582 L 84.1797 -58.252 C 84.1797 -67.334 79.0527 -72.4121 69.9219 -72.4121 L 23.9746 -72.4121 C 14.8926 -72.4121 9.76562 -67.334 9.76562 -58.252 L 9.76562 -12.1582 C 9.76562 -3.07617 14.8926 2.00195 23.9746 2.00195 Z M 61.1816 -17.5293 C 54.0527 -17.5293 49.3164 -23.3398 49.3164 -35.3516 C 49.3164 -47.4121 54.0527 -53.1738 61.1816 -53.1738 C 68.3105 -53.1738 73.3398 -47.4121 73.3398 -35.3516 C 73.3398 -23.3398 68.3105 -17.5293 61.1816 -17.5293 Z M 33.8379 -17.4805 C 28.4668 -17.4805 23.9746 -20.8496 22.8516 -24.3652 C 22.6074 -25.0488 22.4609 -25.7324 22.4609 -26.416 C 22.4609 -28.7109 24.2188 -30.0293 25.9277 -30.0293 C 27.4902 -30.0293 28.5645 -29.248 29.3457 -27.9297 C 30.3711 -26.0254 32.0312 -25 33.9355 -25 C 36.2305 -25 37.7441 -26.5625 37.7441 -28.3691 C 37.7441 -30.4199 36.2793 -31.7383 33.8867 -31.7383 L 33.0078 -31.7383 C 30.5176 -31.7383 29.2969 -33.3496 29.2969 -35.5469 C 29.2969 -37.793 30.7617 -39.3066 33.0078 -39.3066 L 33.8379 -39.3066 C 35.9375 -39.3066 37.1582 -40.8203 37.1582 -42.5781 C 37.1582 -44.5312 35.7422 -45.8008 33.8379 -45.8008 C 31.8848 -45.8008 30.6641 -44.873 29.6387 -42.9199 C 28.9062 -41.6016 27.8809 -40.8203 26.2695 -40.8203 C 24.3164 -40.8203 22.9492 -42.1387 22.9492 -44.3848 C 22.9492 -45.1172 23.0469 -45.8008 23.3887 -46.6309 C 24.5117 -49.707 28.3691 -53.125 33.9844 -53.125 C 40.7715 -53.125 45.2148 -49.4141 45.2148 -43.75 C 45.2148 -40.2344 42.8223 -36.9629 39.5996 -36.377 L 39.5996 -36.0352 C 43.4082 -35.7422 46.0449 -32.2266 46.0449 -27.8809 C 46.0449 -21.582 41.2598 -17.4805 33.8379 -17.4805 Z M 61.3281 -25.4883 C 63.623 -25.4883 65.0391 -28.2227 65.0391 -35.3516 C 65.0391 -42.4805 63.623 -45.2637 61.3281 -45.2637 C 59.0332 -45.2637 57.5684 -42.4805 57.5684 -35.3516 C 57.5684 -28.2227 59.0332 -25.4883 61.3281 -25.4883 Z"/>
  </g>
  <g id="Heavy-S" transform="matrix(1 0 0 1 2588.86 696)">
   <path d="M 24.9023 2.83203 L 70.7031 2.83203 C 80.2246 2.83203 85.8887 -2.7832 85.8887 -12.3047 L 85.8887 -58.1055 C 85.8887 -67.627 80.2246 -73.2422 70.7031 -73.2422 L 24.9023 -73.2422 C 15.3809 -73.2422 9.76562 -67.627 9.76562 -58.1055 L 9.76562 -12.3047 C 9.76562 -2.7832 15.3809 2.83203 24.9023 2.83203 Z M 62.0605 -17.9199 C 55.1758 -17.9199 50.6348 -22.9004 50.6348 -35.3516 C 50.6348 -47.8516 55.1758 -52.7832 62.0605 -52.7832 C 68.8965 -52.7832 73.877 -47.8516 73.877 -35.3516 C 73.877 -22.9004 68.8965 -17.9199 62.0605 -17.9199 Z M 35.1562 -17.8711 C 30.0293 -17.8711 25.5859 -21.0938 24.4141 -24.3652 C 24.1211 -25.0977 23.9746 -25.8789 23.9746 -26.6113 C 23.9746 -29.248 26.0742 -30.6152 27.832 -30.6152 C 29.541 -30.6152 30.7617 -29.834 31.6406 -28.6133 C 32.666 -27.1973 34.0332 -26.4648 35.3027 -26.4648 C 36.7188 -26.4648 37.6465 -27.5391 37.6465 -28.6621 C 37.6465 -30.127 36.6211 -31.0059 35.0586 -31.0059 L 34.9609 -31.0059 C 31.8848 -31.0059 30.6152 -32.8125 30.6152 -35.3516 C 30.6152 -37.9395 32.2266 -39.6484 34.9609 -39.6484 L 35.0586 -39.6484 C 36.6211 -39.6484 37.3047 -40.8691 37.3047 -41.9922 C 37.3047 -43.457 36.2793 -44.4336 35.0098 -44.4336 C 33.7402 -44.4336 32.8125 -43.75 31.7871 -42.2852 C 30.9082 -41.0645 29.7363 -40.2344 28.0273 -40.2344 C 25.8301 -40.2344 24.4141 -41.6504 24.4141 -44.1895 C 24.4141 -45.0195 24.5605 -45.8008 24.9512 -46.8262 C 26.0742 -49.3164 29.7363 -52.6855 35.1562 -52.6855 C 42.0898 -52.6855 46.582 -49.0234 46.582 -43.3594 C 46.582 -40.0879 44.2871 -36.9629 41.2109 -36.4258 L 41.2109 -36.0352 C 44.7754 -35.791 47.2168 -32.3242 47.2168 -28.125 C 47.2168 -21.7773 42.5781 -17.8711 35.1562 -17.8711 Z M 62.207 -27.0508 C 63.623 -27.0508 64.5508 -28.7109 64.5508 -35.3516 C 64.5508 -41.9922 63.623 -43.7012 62.207 -43.7012 C 60.8887 -43.7012 59.9121 -41.9922 59.9121 -35.3516 C 59.9121 -28.7109 60.8887 -27.0508 62.207 -27.0508 Z"/>
  </g>
  <g id="Black-S" transform="matrix(1 0 0 1 2884.82 696)">
   <path d="M 25.7324 3.61328 L 71.4355 3.61328 C 81.2988 3.61328 87.4023 -2.49023 87.4023 -12.4023 L 87.4023 -58.0078 C 87.4023 -67.9199 81.2988 -74.0234 71.4355 -74.0234 L 25.7324 -74.0234 C 15.8203 -74.0234 9.76562 -67.9199 9.76562 -58.0078 L 9.76562 -12.4023 C 9.76562 -2.49023 15.8203 3.61328 25.7324 3.61328 Z M 62.793 -18.3105 C 56.2012 -18.3105 51.8066 -22.5098 51.8066 -35.3516 C 51.8066 -48.2422 56.2012 -52.3926 62.793 -52.3926 C 69.3848 -52.3926 74.3652 -48.2422 74.3652 -35.3516 C 74.3652 -22.5098 69.3848 -18.3105 62.793 -18.3105 Z M 36.2793 -18.1641 C 31.4453 -18.1641 27.0508 -21.2891 25.8789 -24.3652 C 25.5371 -25.1465 25.3906 -25.9766 25.3906 -26.8066 C 25.3906 -29.6875 27.7344 -31.1523 29.4922 -31.1523 C 31.3965 -31.1523 32.7148 -30.3223 33.6914 -29.1992 C 34.668 -28.2227 35.8398 -27.7832 36.4746 -27.7832 C 37.207 -27.7832 37.5 -28.418 37.5 -28.9551 C 37.5 -29.7852 36.9629 -30.3711 36.084 -30.3711 L 36.6211 -30.3711 C 33.1543 -30.3711 31.7383 -32.3242 31.7383 -35.2051 C 31.7383 -38.0371 33.5938 -39.9414 36.6211 -39.9414 L 36.1328 -39.9414 C 37.207 -39.9414 37.4512 -40.918 37.4512 -41.4551 C 37.4512 -42.5293 36.7676 -43.1641 36.0352 -43.1641 C 35.3516 -43.1641 34.7168 -42.7734 33.6914 -41.748 C 32.7148 -40.625 31.4453 -39.7461 29.5898 -39.7461 C 27.2461 -39.7461 25.6836 -41.2598 25.6836 -44.043 C 25.6836 -44.9707 25.8789 -45.8008 26.3672 -46.9727 C 27.4902 -48.9258 30.957 -52.2949 36.1816 -52.2949 C 43.3105 -52.2949 47.7539 -48.7305 47.7539 -42.9688 C 47.7539 -39.9902 45.6055 -36.9629 42.6758 -36.4258 L 42.6758 -36.0352 C 46.0449 -35.8398 48.2422 -32.4219 48.2422 -28.3203 C 48.2422 -21.9238 43.75 -18.1641 36.2793 -18.1641 Z M 63.0371 -28.418 C 63.6719 -28.418 64.1602 -29.1504 64.1602 -35.3516 C 64.1602 -41.5527 63.6719 -42.334 63.0371 -42.334 C 62.5488 -42.334 62.0117 -41.5527 62.0117 -35.3516 C 62.0117 -29.1504 62.5 -28.418 63.0371 -28.418 Z"/>
  </g>
  <g id="Ultralight-M" transform="matrix(1 0 0 1 504.535 1126)">
   <path d="M 25 7.56836 L 85.3516 7.56836 C 93.5547 7.56836 97.9004 3.125 97.9004 -4.98047 L 97.9004 -65.2832 C 97.9004 -73.3887 93.5547 -77.832 85.3516 -77.832 L 25 -77.832 C 16.7969 -77.832 12.4512 -73.4863 12.4512 -65.2832 L 12.4512 -4.98047 C 12.4512 3.22266 16.7969 7.56836 25 7.56836 Z M 74.9023 -11.9141 C 65.4785 -11.9141 59.0332 -21.3867 59.0332 -35.3027 C 59.0332 -49.2676 65.4785 -58.7402 74.9023 -58.7402 C 84.375 -58.7402 90.8691 -49.2676 90.8691 -35.3027 C 90.8691 -21.3867 84.375 -11.9141 74.9023 -11.9141 Z M 37.9395 -11.8164 C 30.9082 -11.8164 25.0977 -15.4785 23.5352 -20.8984 C 23.3398 -21.4355 23.291 -21.8262 23.291 -22.2656 C 23.291 -23.1445 23.877 -23.7305 24.707 -23.7305 C 25.4395 -23.7305 25.9277 -23.291 26.0742 -22.4121 C 27.0996 -17.7246 31.9824 -14.3066 37.9395 -14.3066 C 45.3125 -14.3066 50.3906 -18.5547 50.3906 -24.7559 C 50.3906 -30.4688 45.2637 -34.7168 38.5254 -34.7168 L 33.6426 -34.7168 C 32.8613 -34.7168 32.373 -35.2539 32.373 -36.084 C 32.373 -36.8164 32.8613 -37.3535 33.6426 -37.3535 L 38.1836 -37.3535 C 44.043 -37.3535 48.6816 -41.6016 48.6816 -47.0703 C 48.6816 -52.4902 44.3359 -56.2012 37.8418 -56.2012 C 32.0801 -56.2012 27.6367 -52.8809 27.0996 -48.1445 C 27.0508 -47.2656 26.4648 -46.7773 25.6836 -46.7773 C 24.9023 -46.7773 24.3652 -47.3633 24.3652 -48.2422 C 24.3652 -48.6816 24.4141 -49.1211 24.4629 -49.6094 C 25.1465 -54.9805 31.0547 -58.6914 37.8418 -58.6914 C 45.752 -58.6914 51.5625 -53.9551 51.5625 -47.3633 C 51.5625 -41.9922 47.7539 -37.3047 42.4316 -36.3281 L 42.4316 -36.084 C 48.4863 -35.4492 53.2227 -30.5664 53.2227 -24.8047 C 53.2227 -17.334 46.8262 -11.8164 37.9395 -11.8164 Z M 74.9023 -14.4531 C 82.7148 -14.4531 88.1348 -22.9492 88.1348 -35.3027 C 88.1348 -47.7051 82.7148 -56.2012 74.9023 -56.2012 C 67.0898 -56.2012 61.6699 -47.7051 61.6699 -35.3027 C 61.6699 -22.9492 67.041 -14.4531 74.9023 -14.4531 Z"/>
  </g>
  <g id="Thin-M" transform="matrix(1 0 0 1 800.734 1126)">
   <path d="M 25.6348 8.05664 L 85.7422 8.05664 C 94.3848 8.05664 98.9258 3.4668 98.9258 -5.0293 L 98.9258 -65.2344 C 98.9258 -73.7305 94.3848 -78.3691 85.7422 -78.3691 L 25.6348 -78.3691 C 16.9922 -78.3691 12.4512 -73.877 12.4512 -65.2344 L 12.4512 -5.0293 C 12.4512 3.56445 16.9922 8.05664 25.6348 8.05664 Z M 75.0977 -11.8652 C 65.625 -11.8652 59.1309 -21.2891 59.1309 -35.3027 C 59.1309 -49.3652 65.625 -58.8379 75.0977 -58.8379 C 84.668 -58.8379 91.1133 -49.3652 91.1133 -35.3027 C 91.1133 -21.2891 84.668 -11.8652 75.0977 -11.8652 Z M 38.3301 -11.8164 C 31.2012 -11.8164 25.3906 -15.625 23.877 -20.9961 C 23.6816 -21.5332 23.584 -22.0215 23.584 -22.5098 C 23.584 -23.584 24.3652 -24.3652 25.3906 -24.3652 C 26.3184 -24.3652 26.9043 -23.877 27.1973 -22.7539 C 28.2227 -18.2617 32.7148 -15.1367 38.3301 -15.1367 C 45.2637 -15.1367 50.0488 -19.1895 50.0488 -24.9512 C 50.0488 -30.3711 45.2637 -34.3262 38.916 -34.3262 L 34.375 -34.3262 C 33.3984 -34.3262 32.7148 -35.0586 32.7148 -36.084 C 32.7148 -37.0605 33.3984 -37.793 34.375 -37.793 L 38.5742 -37.793 C 44.0918 -37.793 48.3887 -41.748 48.3887 -46.875 C 48.3887 -51.9531 44.3359 -55.4199 38.3301 -55.4199 C 32.9102 -55.4199 28.8086 -52.3926 28.125 -47.8027 C 27.9785 -46.7773 27.3438 -46.1914 26.3672 -46.1914 C 25.3418 -46.1914 24.6094 -46.9727 24.6094 -48.0469 C 24.6094 -48.5352 24.6582 -49.0234 24.7559 -49.5605 C 25.5859 -54.8828 31.3965 -58.7891 38.3789 -58.7891 C 46.3379 -58.7891 52.0996 -54.0039 52.0996 -47.3145 C 52.0996 -41.9922 48.3887 -37.3047 43.2129 -36.377 L 43.2129 -36.1328 C 49.1699 -35.498 53.7598 -30.6641 53.7598 -24.9023 C 53.7598 -17.334 47.3145 -11.8164 38.3301 -11.8164 Z M 75.0977 -15.2832 C 82.4219 -15.2832 87.4023 -23.3887 87.4023 -35.3027 C 87.4023 -47.3145 82.4219 -55.3711 75.0977 -55.3711 C 67.7734 -55.3711 62.8418 -47.3145 62.8418 -35.3027 C 62.8418 -23.3887 67.7734 -15.2832 75.0977 -15.2832 Z"/>
  </g>
  <g id="Light-M" transform="matrix(1 0 0 1 1096.47 1126)">
   <path d="M 26.8555 9.0332 L 86.4746 9.0332 C 96.0449 9.0332 100.879 4.15039 100.879 -5.22461 L 100.879 -65.0879 C 100.879 -74.5117 96.0449 -79.3945 86.4746 -79.3945 L 26.8555 -79.3945 C 17.334 -79.3945 12.4512 -74.5605 12.4512 -65.0879 L 12.4512 -5.22461 C 12.4512 4.19922 17.334 9.0332 26.8555 9.0332 Z M 75.5371 -11.8164 C 65.8691 -11.8164 59.4238 -21.1914 59.4238 -35.3027 C 59.4238 -49.5605 65.8691 -58.9355 75.5371 -58.9355 C 85.2051 -58.9355 91.6504 -49.5605 91.6504 -35.3027 C 91.6504 -21.1914 85.2051 -11.8164 75.5371 -11.8164 Z M 39.1113 -11.7676 C 31.7871 -11.7676 25.9766 -15.9668 24.5117 -21.1914 C 24.3164 -21.8262 24.2188 -22.3633 24.2188 -22.9492 C 24.2188 -24.5117 25.3418 -25.6348 26.7578 -25.6348 C 28.0273 -25.6348 28.8086 -24.9512 29.2969 -23.4375 C 30.5176 -19.3359 34.1797 -16.748 39.1602 -16.748 C 45.166 -16.748 49.3164 -20.3125 49.3164 -25.293 C 49.3164 -30.1758 45.3125 -33.5449 39.5996 -33.5449 L 35.791 -33.5449 C 34.375 -33.5449 33.4473 -34.668 33.4473 -36.084 C 33.4473 -37.5977 34.375 -38.623 35.791 -38.623 L 39.3066 -38.623 C 44.1895 -38.623 47.8027 -41.9922 47.8027 -46.5332 C 47.8027 -50.9277 44.3359 -53.9551 39.209 -53.9551 C 34.4238 -53.9551 31.1035 -51.416 30.2246 -47.2168 C 29.834 -45.8008 29.0527 -45.0684 27.6855 -45.0684 C 26.2207 -45.0684 25.1953 -46.1426 25.1953 -47.7539 C 25.1953 -48.3398 25.1953 -48.877 25.3418 -49.5117 C 26.416 -54.7852 32.0801 -58.9355 39.3555 -58.9355 C 47.4121 -58.9355 53.1738 -54.0527 53.1738 -47.168 C 53.1738 -41.9434 49.5605 -37.3535 44.7266 -36.5234 L 44.7266 -36.1816 C 50.4395 -35.5957 54.7852 -30.8594 54.7852 -25.0977 C 54.7852 -17.334 48.291 -11.7676 39.1113 -11.7676 Z M 75.5371 -16.9922 C 81.8359 -16.9922 85.9863 -24.1699 85.9863 -35.3027 C 85.9863 -46.582 81.8848 -53.7598 75.5371 -53.7598 C 69.1406 -53.7598 65.0879 -46.582 65.0879 -35.3027 C 65.0879 -24.1699 69.1895 -16.9922 75.5371 -16.9922 Z"/>
  </g>
  <g id="Regular-M" transform="matrix(1 0 0 1 1392.42 1126)">
   <path d="M 27.7832 9.76562 L 87.0605 9.76562 C 97.2656 9.76562 102.344 4.6875 102.344 -5.37109 L 102.344 -64.9902 C 102.344 -75.0488 97.2656 -80.127 87.0605 -80.127 L 27.7832 -80.127 C 17.627 -80.127 12.4512 -75.0977 12.4512 -64.9902 L 12.4512 -5.37109 C 12.4512 4.73633 17.627 9.76562 27.7832 9.76562 Z M 75.8301 -11.7188 C 66.0645 -11.7188 59.668 -21.1426 59.668 -35.3027 C 59.668 -49.6582 66.0645 -59.0332 75.8301 -59.0332 C 85.5957 -59.0332 92.041 -49.6582 92.041 -35.3027 C 92.041 -21.1426 85.5957 -11.7188 75.8301 -11.7188 Z M 39.6973 -11.7188 C 32.2266 -11.7188 26.3672 -16.2109 24.9512 -21.3379 C 24.8047 -22.0215 24.6582 -22.6074 24.6582 -23.291 C 24.6582 -25.1953 26.0254 -26.5625 27.832 -26.5625 C 29.3457 -26.5625 30.2246 -25.7324 30.9082 -23.9746 C 32.2266 -20.166 35.3027 -17.9688 39.7461 -17.9688 C 45.0684 -17.9688 48.7793 -21.1914 48.7793 -25.5371 C 48.7793 -30.0293 45.3613 -32.959 40.1367 -32.959 L 36.8652 -32.959 C 35.1562 -32.959 33.9844 -34.3262 33.9844 -36.1328 C 33.9844 -37.9883 35.1562 -39.2578 36.8652 -39.2578 L 39.8438 -39.2578 C 44.2383 -39.2578 47.3633 -42.1387 47.3633 -46.2402 C 47.3633 -50.0977 44.3359 -52.832 39.8926 -52.832 C 35.6445 -52.832 32.8613 -50.6836 31.7383 -46.7773 C 31.2012 -45.0684 30.3223 -44.1895 28.6621 -44.1895 C 26.9043 -44.1895 25.5859 -45.5566 25.5859 -47.5098 C 25.5859 -48.1934 25.5859 -48.7793 25.7812 -49.4629 C 27.0996 -54.6875 32.6172 -59.0332 40.0879 -59.0332 C 48.2422 -59.0332 54.0039 -54.1016 54.0039 -47.1191 C 54.0039 -41.9434 50.4883 -37.3535 45.8496 -36.6211 L 45.8496 -36.2793 C 51.416 -35.6934 55.5176 -31.0059 55.5176 -25.2441 C 55.5176 -17.3828 49.0234 -11.7188 39.6973 -11.7188 Z M 75.8301 -18.2617 C 81.3965 -18.2617 84.9121 -24.8047 84.9121 -35.3027 C 84.9121 -45.9961 81.4453 -52.5391 75.8301 -52.5391 C 70.2148 -52.5391 66.7969 -45.9961 66.7969 -35.3027 C 66.7969 -24.8047 70.2637 -18.2617 75.8301 -18.2617 Z"/>
  </g>
  <g id="Medium-M" transform="matrix(1 0 0 1 1688.45 1126)">
   <path d="M 28.5645 10.4492 L 87.6465 10.4492 C 98.2422 10.4492 103.711 4.98047 103.711 -5.46875 L 103.711 -64.8926 C 103.711 -75.3418 98.2422 -80.8105 87.6465 -80.8105 L 28.5645 -80.8105 C 17.9688 -80.8105 12.4512 -75.3906 12.4512 -64.8926 L 12.4512 -5.46875 C 12.4512 4.98047 17.9688 10.4492 28.5645 10.4492 Z M 76.4648 -12.0117 C 66.8945 -12.0117 60.5957 -20.8008 60.5957 -35.3516 C 60.5957 -50 66.8945 -58.7891 76.4648 -58.7891 C 86.0352 -58.7891 92.4805 -50 92.4805 -35.3516 C 92.4805 -20.8008 86.0352 -12.0117 76.4648 -12.0117 Z M 40.6738 -11.9629 C 33.3984 -11.9629 27.5879 -16.3574 26.1719 -21.3379 C 25.9277 -22.0703 25.7812 -22.7051 25.7812 -23.4375 C 25.7812 -25.6836 27.3926 -27.0996 29.248 -27.0996 C 30.9082 -27.0996 31.9336 -26.2207 32.7148 -24.5117 C 34.0332 -21.0938 36.8652 -19.0918 40.7715 -19.0918 C 45.4102 -19.0918 48.6328 -22.0215 48.6328 -25.7812 C 48.6328 -29.7852 45.6055 -32.373 41.0156 -32.373 L 38.3301 -32.373 C 36.2305 -32.373 34.9121 -33.9355 34.9121 -35.9863 C 34.9121 -38.1348 36.2793 -39.5508 38.3301 -39.5508 L 40.7715 -39.5508 C 44.7266 -39.5508 47.4121 -42.1875 47.4121 -45.8008 C 47.4121 -49.2676 44.6777 -51.709 40.8203 -51.709 C 37.0117 -51.709 34.5703 -49.8047 33.4473 -46.2891 C 32.7637 -44.6289 31.7383 -43.7012 30.0293 -43.7012 C 28.0273 -43.7012 26.6602 -45.166 26.6602 -47.3633 C 26.6602 -48.0957 26.6602 -48.7305 26.9043 -49.5605 C 28.2715 -54.4434 33.6426 -58.7402 41.0156 -58.7402 C 49.2676 -58.7402 55.0293 -53.8574 55.0293 -46.8262 C 55.0293 -41.8457 51.6113 -37.4023 47.168 -36.6211 L 47.168 -36.2793 C 52.5391 -35.7422 56.4453 -31.1035 56.4453 -25.3906 C 56.4453 -17.4805 50 -11.9629 40.6738 -11.9629 Z M 76.5137 -19.4824 C 81.3477 -19.4824 84.4238 -25.1953 84.4238 -35.3516 C 84.4238 -45.6055 81.3965 -51.3184 76.5137 -51.3184 C 71.6309 -51.3184 68.6035 -45.6055 68.6035 -35.3516 C 68.6035 -25.1953 71.6309 -19.4824 76.5137 -19.4824 Z"/>
  </g>
  <g id="Semibold-M" transform="matrix(1 0 0 1 1984.65 1126)">
   <path d="M 29.1016 10.9863 L 88.1348 10.9863 C 98.9746 10.9863 104.785 5.17578 104.785 -5.56641 L 104.785 -64.8438 C 104.785 -75.5859 98.9746 -81.3477 88.1348 -81.3477 L 29.1016 -81.3477 C 18.3105 -81.3477 12.4512 -75.5859 12.4512 -64.8438 L 12.4512 -5.56641 C 12.4512 5.22461 18.3105 10.9863 29.1016 10.9863 Z M 76.9531 -12.207 C 67.5293 -12.207 61.3281 -20.5566 61.3281 -35.3516 C 61.3281 -50.2441 67.5293 -58.5449 76.9531 -58.5449 C 86.377 -58.5449 92.7734 -50.2441 92.7734 -35.3516 C 92.7734 -20.5566 86.377 -12.207 76.9531 -12.207 Z M 41.4062 -12.1582 C 34.2773 -12.1582 28.4668 -16.5039 27.0508 -21.3379 C 26.8066 -22.1191 26.6602 -22.8027 26.6602 -23.584 C 26.6602 -26.0254 28.4668 -27.4902 30.3711 -27.4902 C 32.1289 -27.4902 33.252 -26.6113 34.082 -24.9023 C 35.4004 -21.7773 38.0371 -19.9707 41.5039 -19.9707 C 45.6543 -19.9707 48.5352 -22.6074 48.5352 -25.9766 C 48.5352 -29.5898 45.8008 -31.9336 41.6992 -31.9336 L 39.4531 -31.9336 C 37.0117 -31.9336 35.6934 -33.5938 35.6934 -35.8887 C 35.6934 -38.2324 37.1582 -39.7949 39.4531 -39.7949 L 41.5039 -39.7949 C 45.0684 -39.7949 47.4609 -42.2363 47.4609 -45.459 C 47.4609 -48.6328 44.9707 -50.8789 41.5039 -50.8789 C 38.0859 -50.8789 35.8887 -49.1699 34.7168 -45.9473 C 33.9844 -44.2871 32.8613 -43.3594 31.0547 -43.3594 C 28.9062 -43.3594 27.4414 -44.8242 27.4414 -47.2168 C 27.4414 -48.0469 27.4902 -48.7305 27.7832 -49.6582 C 29.1504 -54.1992 34.375 -58.4961 41.6992 -58.4961 C 50.0977 -58.4961 55.8105 -53.7109 55.8105 -46.582 C 55.8105 -41.7969 52.4902 -37.4023 48.0957 -36.6699 L 48.0957 -36.2793 C 53.3691 -35.791 57.1289 -31.2012 57.1289 -25.5371 C 57.1289 -17.5781 50.7812 -12.1582 41.4062 -12.1582 Z M 77.0508 -20.459 C 81.3477 -20.459 84.082 -25.4883 84.082 -35.3516 C 84.082 -45.3125 81.3477 -50.3418 77.0508 -50.3418 C 72.7051 -50.3418 70.0195 -45.3125 70.0195 -35.3516 C 70.0195 -25.4883 72.7539 -20.459 77.0508 -20.459 Z"/>
  </g>
  <g id="Bold-M" transform="matrix(1 0 0 1 2280.65 1126)">
   <path d="M 29.8828 11.6699 L 88.7207 11.6699 C 100 11.6699 106.152 5.46875 106.152 -5.66406 L 106.152 -64.6973 C 106.152 -75.8789 100 -82.0312 88.7207 -82.0312 L 29.8828 -82.0312 C 18.6523 -82.0312 12.4512 -75.8789 12.4512 -64.6973 L 12.4512 -5.66406 C 12.4512 5.51758 18.6523 11.6699 29.8828 11.6699 Z M 77.5879 -12.5 C 68.3594 -12.5 62.2559 -20.2637 62.2559 -35.3516 C 62.2559 -50.5371 68.3594 -58.3008 77.5879 -58.3008 C 86.8164 -58.3008 93.2129 -50.5371 93.2129 -35.3516 C 93.2129 -20.2637 86.8164 -12.5 77.5879 -12.5 Z M 42.4316 -12.4023 C 35.4492 -12.4023 29.6875 -16.6992 28.2227 -21.3379 C 27.9297 -22.168 27.7832 -22.9492 27.7832 -23.7793 C 27.7832 -26.4648 29.834 -28.0273 31.8359 -28.0273 C 33.7402 -28.0273 34.9609 -27.0996 35.8887 -25.4395 C 37.207 -22.7051 39.5996 -21.1426 42.5293 -21.1426 C 46.0449 -21.1426 48.3887 -23.4375 48.3887 -26.2207 C 48.3887 -29.3457 46.0938 -31.3477 42.5781 -31.3477 L 40.918 -31.3477 C 38.0859 -31.3477 36.6211 -33.2031 36.6211 -35.7422 C 36.6211 -38.3301 38.2812 -40.0879 40.918 -40.0879 L 42.4316 -40.0879 C 45.5566 -40.0879 47.5098 -42.2852 47.5098 -45.0195 C 47.5098 -47.8027 45.3613 -49.7559 42.3828 -49.7559 C 39.502 -49.7559 37.5977 -48.291 36.377 -45.459 C 35.5469 -43.8477 34.3262 -42.8711 32.373 -42.8711 C 30.0781 -42.8711 28.5156 -44.4336 28.5156 -47.0703 C 28.5156 -47.9492 28.6133 -48.7305 28.9551 -49.7559 C 30.3711 -53.9062 35.4004 -58.2031 42.5781 -58.2031 C 51.123 -58.2031 56.8359 -53.4668 56.8359 -46.2891 C 56.8359 -41.6992 53.6621 -37.4023 49.4141 -36.6699 L 49.4141 -36.2793 C 54.4434 -35.8398 58.0078 -31.2988 58.0078 -25.6836 C 58.0078 -17.7246 51.8066 -12.4023 42.4316 -12.4023 Z M 77.7344 -21.6797 C 81.2988 -21.6797 83.5938 -25.8789 83.5938 -35.3516 C 83.5938 -44.873 81.3477 -49.1211 77.7344 -49.1211 C 74.1211 -49.1211 71.875 -44.873 71.875 -35.3516 C 71.875 -25.8789 74.1699 -21.6797 77.7344 -21.6797 Z"/>
  </g>
  <g id="Heavy-M" transform="matrix(1 0 0 1 2576.36 1126)">
   <path d="M 31.0059 12.6465 L 89.6484 12.6465 C 101.416 12.6465 108.154 5.9082 108.154 -5.81055 L 108.154 -64.5508 C 108.154 -76.2695 101.416 -83.0566 89.6484 -83.0566 L 31.0059 -83.0566 C 19.2383 -83.0566 12.4512 -76.3184 12.4512 -64.5508 L 12.4512 -5.81055 C 12.4512 5.9082 19.2383 12.6465 31.0059 12.6465 Z M 78.5156 -12.8906 C 69.5801 -12.8906 63.623 -19.7754 63.623 -35.3516 C 63.623 -51.0254 69.5801 -57.9102 78.5156 -57.9102 C 87.4512 -57.9102 93.8477 -51.0254 93.8477 -35.3516 C 93.8477 -19.7754 87.4512 -12.8906 78.5156 -12.8906 Z M 43.8477 -12.793 C 37.1582 -12.793 31.4453 -16.9434 29.9805 -21.3379 C 29.6387 -22.2168 29.4434 -23.1445 29.4434 -24.0723 C 29.4434 -27.0996 31.8359 -28.8086 33.9844 -28.8086 C 36.084 -28.8086 37.4512 -27.832 38.4766 -26.2207 C 39.7949 -24.0234 41.8457 -22.8516 43.9941 -22.8516 C 46.5332 -22.8516 48.1934 -24.5605 48.1934 -26.6113 C 48.1934 -28.9551 46.4844 -30.4688 43.8477 -30.4688 L 43.0664 -30.4688 C 39.6484 -30.4688 38.0371 -32.5684 38.0371 -35.5469 C 38.0371 -38.5254 39.9902 -40.5762 43.0664 -40.5762 L 43.7988 -40.5762 C 46.2402 -40.5762 47.5586 -42.3828 47.5586 -44.3359 C 47.5586 -46.582 45.8984 -48.0957 43.75 -48.0957 C 41.6016 -48.0957 40.0879 -47.0215 38.8184 -44.7266 C 37.8418 -43.1641 36.4746 -42.1387 34.375 -42.1387 C 31.7871 -42.1387 30.0293 -43.8477 30.0293 -46.8262 C 30.0293 -47.8027 30.1758 -48.7305 30.6641 -49.9023 C 32.0801 -53.4668 36.8652 -57.8125 43.8965 -57.8125 C 52.6855 -57.8125 58.3496 -53.125 58.3496 -45.8984 C 58.3496 -41.5527 55.3711 -37.4023 51.2695 -36.7188 L 51.2695 -36.2793 C 56.0547 -35.8887 59.3262 -31.3965 59.3262 -25.9766 C 59.3262 -17.9199 53.2715 -12.793 43.8477 -12.793 Z M 78.7109 -23.4863 C 81.25 -23.4863 82.9102 -26.4648 82.9102 -35.3516 C 82.9102 -44.2871 81.25 -47.3145 78.7109 -47.3145 C 76.2207 -47.3145 74.6094 -44.2871 74.6094 -35.3516 C 74.6094 -26.4648 76.2207 -23.4863 78.7109 -23.4863 Z"/>
  </g>
  <g id="Black-M" transform="matrix(1 0 0 1 2872.19 1126)">
   <path d="M 31.9824 13.5742 L 90.4297 13.5742 C 102.686 13.5742 109.961 6.29883 109.961 -5.95703 L 109.961 -64.4043 C 109.961 -76.6602 102.686 -83.9355 90.4297 -83.9355 L 31.9824 -83.9355 C 19.7266 -83.9355 12.4512 -76.6602 12.4512 -64.4043 L 12.4512 -5.95703 C 12.4512 6.29883 19.7266 13.5742 31.9824 13.5742 Z M 79.3457 -13.2324 C 70.6543 -13.2324 64.8926 -19.3848 64.8926 -35.4004 C 64.8926 -51.4648 70.6543 -57.5195 79.3457 -57.5195 C 88.0371 -57.5195 94.3848 -51.4648 94.3848 -35.4004 C 94.3848 -19.3848 88.0371 -13.2324 79.3457 -13.2324 Z M 45.1172 -13.0859 C 38.6719 -13.0859 33.0078 -17.1875 31.4941 -21.3379 C 31.1035 -22.3145 30.9082 -23.291 30.9082 -24.3164 C 30.9082 -27.6855 33.6426 -29.4922 35.8887 -29.4922 C 38.1348 -29.4922 39.6973 -28.4668 40.8203 -26.9043 C 42.1387 -25.1953 43.8965 -24.3652 45.3125 -24.3652 C 46.9727 -24.3652 47.998 -25.6348 47.998 -26.9531 C 47.998 -28.6133 46.8262 -29.6875 44.9707 -29.6875 C 41.0156 -29.6875 39.3066 -32.0312 39.3066 -35.3516 C 39.3066 -38.7207 41.4551 -40.9668 44.9707 -40.9668 C 46.875 -40.9668 47.6074 -42.4316 47.6074 -43.75 C 47.6074 -45.5078 46.4355 -46.6797 44.9219 -46.6797 C 43.4082 -46.6797 42.334 -45.8984 41.0156 -44.1406 C 39.8926 -42.5781 38.3789 -41.5039 36.1328 -41.5039 C 33.3008 -41.5039 31.3965 -43.3105 31.3965 -46.6309 C 31.3965 -47.7051 31.5918 -48.7305 32.1777 -50.0488 C 33.5938 -53.125 38.1836 -57.4219 45.1172 -57.4219 C 54.0527 -57.4219 59.7168 -52.7832 59.7168 -45.5078 C 59.7168 -41.4062 56.8359 -37.4512 52.9297 -36.7676 L 52.9297 -36.2793 C 57.4707 -35.9375 60.498 -31.543 60.498 -26.1719 C 60.498 -18.0664 54.5898 -13.0859 45.1172 -13.0859 Z M 79.5898 -25.0977 C 81.2012 -25.0977 82.2754 -27.002 82.2754 -35.4004 C 82.2754 -43.75 81.2012 -45.7031 79.5898 -45.7031 C 78.0762 -45.7031 77.002 -43.75 77.002 -35.4004 C 77.002 -27.002 78.0762 -25.0977 79.5898 -25.0977 Z"/>
  </g>
  <g id="Ultralight-L" transform="matrix(1 0 0 1 488.739 1556)">
   <path d="M 31.9824 19.7754 L 109.961 19.7754 C 120.361 19.7754 125.879 14.0625 125.879 3.85742 L 125.879 -74.0723 C 125.879 -84.2773 120.361 -89.9902 109.961 -89.9902 L 31.9824 -89.9902 C 21.6309 -89.9902 16.0645 -84.4727 16.0645 -74.0723 L 16.0645 3.85742 C 16.0645 14.2578 21.6309 19.7754 31.9824 19.7754 Z M 96.5332 -5.12695 C 84.4727 -5.12695 76.0742 -17.3828 76.0742 -35.3516 C 76.0742 -53.3203 84.4727 -65.5273 96.5332 -65.5273 C 108.74 -65.5273 117.09 -53.3203 117.09 -35.3516 C 117.09 -17.3828 108.74 -5.12695 96.5332 -5.12695 Z M 48.7793 -5.0293 C 39.7461 -5.0293 32.2754 -9.66797 30.2246 -16.748 C 29.9805 -17.334 29.9316 -17.8711 29.9316 -18.4082 C 29.9316 -19.4336 30.6152 -20.1172 31.543 -20.1172 C 32.4219 -20.1172 33.0078 -19.6289 33.2031 -18.5059 C 34.4238 -12.3535 40.918 -7.91016 48.7305 -7.91016 C 58.4961 -7.91016 65.1855 -13.4766 65.1855 -21.6797 C 65.1855 -29.1504 58.3496 -34.7656 49.6094 -34.7656 L 43.1152 -34.7656 C 42.1875 -34.7656 41.6016 -35.4004 41.6016 -36.3281 C 41.6016 -37.1582 42.1875 -37.793 43.1152 -37.793 L 49.0723 -37.793 C 56.8359 -37.793 62.9883 -43.4082 62.9883 -50.5859 C 62.9883 -57.7637 57.1777 -62.5977 48.6328 -62.5977 C 41.0645 -62.5977 35.1562 -58.2031 34.4727 -52.002 C 34.4727 -50.9766 33.7891 -50.3906 32.8613 -50.3906 C 31.9336 -50.3906 31.2988 -51.0742 31.2988 -52.0996 C 31.2988 -52.6367 31.3965 -53.1738 31.4453 -53.8086 C 32.2754 -60.6934 39.9414 -65.4785 48.6328 -65.4785 C 58.7891 -65.4785 66.3086 -59.375 66.3086 -50.8789 C 66.3086 -43.9453 61.3281 -37.9395 54.4434 -36.6211 L 54.4434 -36.2793 C 62.3047 -35.498 68.457 -29.1992 68.457 -21.7285 C 68.457 -12.1094 60.2051 -5.0293 48.7793 -5.0293 Z M 96.5332 -8.00781 C 106.885 -8.00781 114.014 -19.1895 114.014 -35.3516 C 114.014 -51.4648 106.885 -62.6465 96.5332 -62.6465 C 86.2305 -62.6465 79.0527 -51.4648 79.0527 -35.3516 C 79.0527 -19.1895 86.2305 -8.00781 96.5332 -8.00781 Z"/>
  </g>
  <g id="Thin-L" transform="matrix(1 0 0 1 784.889 1556)">
   <path d="M 32.7148 20.3613 L 110.4 20.3613 C 121.289 20.3613 127.002 14.4531 127.002 3.75977 L 127.002 -73.9746 C 127.002 -84.7168 121.289 -90.5762 110.4 -90.5762 L 32.7148 -90.5762 C 21.8262 -90.5762 16.0645 -84.8633 16.0645 -73.9746 L 16.0645 3.75977 C 16.0645 14.6484 21.8262 20.3613 32.7148 20.3613 Z M 96.7773 -5.07812 C 84.6191 -5.07812 76.2207 -17.2852 76.2207 -35.3516 C 76.2207 -53.418 84.6191 -65.625 96.7773 -65.625 C 109.033 -65.625 117.432 -53.418 117.432 -35.3516 C 117.432 -17.2852 109.033 -5.07812 96.7773 -5.07812 Z M 49.2188 -5.0293 C 40.0391 -5.0293 32.5684 -9.86328 30.5664 -16.8457 C 30.3223 -17.4805 30.2734 -18.0664 30.2734 -18.6523 C 30.2734 -19.9219 31.1523 -20.8496 32.3242 -20.8496 C 33.3984 -20.8496 34.082 -20.2148 34.4238 -18.8965 C 35.7422 -12.9883 41.748 -8.78906 49.2188 -8.78906 C 58.4473 -8.78906 64.7949 -14.1602 64.7949 -21.875 C 64.7949 -29.0039 58.3984 -34.3262 50 -34.3262 L 43.9453 -34.3262 C 42.7734 -34.3262 42.041 -35.1562 42.041 -36.3281 C 42.041 -37.4512 42.7734 -38.2324 43.9453 -38.2324 L 49.5117 -38.2324 C 56.8848 -38.2324 62.6465 -43.5547 62.6465 -50.3418 C 62.6465 -57.1777 57.1777 -61.7676 49.1699 -61.7676 C 41.9434 -61.7676 36.4746 -57.666 35.6934 -51.6602 C 35.5469 -50.4395 34.7656 -49.707 33.5938 -49.707 C 32.4219 -49.707 31.5918 -50.6348 31.5918 -51.9043 C 31.5918 -52.4902 31.6895 -53.0762 31.7871 -53.7598 C 32.7637 -60.6445 40.332 -65.5762 49.1699 -65.5762 C 59.4238 -65.5762 66.8945 -59.4238 66.8945 -50.8301 C 66.8945 -43.9453 62.0605 -37.9395 55.2734 -36.6699 L 55.2734 -36.3281 C 63.0371 -35.5469 69.043 -29.2969 69.043 -21.8262 C 69.043 -12.1094 60.7422 -5.0293 49.2188 -5.0293 Z M 96.7773 -8.98438 C 106.543 -8.98438 113.232 -19.6777 113.232 -35.3516 C 113.232 -51.0742 106.543 -61.7188 96.7773 -61.7188 C 87.0117 -61.7188 80.3711 -51.0742 80.3711 -35.3516 C 80.3711 -19.6777 87.0117 -8.98438 96.7773 -8.98438 Z"/>
  </g>
  <g id="Light-L" transform="matrix(1 0 0 1 1080.5 1556)">
   <path d="M 34.082 21.4355 L 111.23 21.4355 C 123.096 21.4355 129.199 15.2344 129.199 3.56445 L 129.199 -73.8281 C 129.199 -85.5469 123.096 -91.6992 111.23 -91.6992 L 34.082 -91.6992 C 22.2168 -91.6992 16.0645 -85.6445 16.0645 -73.8281 L 16.0645 3.56445 C 16.0645 15.3809 22.2168 21.4355 34.082 21.4355 Z M 97.2656 -5.0293 C 84.9121 -5.0293 76.5625 -17.1875 76.5625 -35.3516 C 76.5625 -53.6133 84.9121 -65.7715 97.2656 -65.7715 C 109.668 -65.7715 118.018 -53.6133 118.018 -35.3516 C 118.018 -17.1875 109.668 -5.0293 97.2656 -5.0293 Z M 50.0977 -4.98047 C 40.7227 -4.98047 33.2031 -10.2051 31.2988 -17.041 C 31.0547 -17.7734 30.957 -18.457 30.957 -19.1406 C 30.957 -20.9473 32.2266 -22.2168 33.8867 -22.2168 C 35.3516 -22.2168 36.2305 -21.4355 36.7676 -19.6777 C 38.2812 -14.209 43.4082 -10.5957 50.0977 -10.5957 C 58.3008 -10.5957 64.0137 -15.4297 64.0137 -22.2168 C 64.0137 -28.8086 58.4473 -33.4473 50.7812 -33.4473 L 45.5078 -33.4473 C 43.8965 -33.4473 42.8223 -34.668 42.8223 -36.3281 C 42.8223 -38.0371 43.8965 -39.1602 45.5078 -39.1602 L 50.3418 -39.1602 C 56.9824 -39.1602 61.9629 -43.7988 61.9629 -49.9512 C 61.9629 -55.957 57.1777 -60.1074 50.1465 -60.1074 C 43.7012 -60.1074 39.0137 -56.5918 37.9883 -51.0254 C 37.5977 -49.3652 36.6211 -48.4375 35.0586 -48.4375 C 33.3984 -48.4375 32.2266 -49.707 32.2266 -51.5137 C 32.2266 -52.2461 32.2754 -52.9297 32.4219 -53.6621 C 33.6914 -60.5469 41.0645 -65.7227 50.293 -65.7227 C 60.6445 -65.7227 68.1152 -59.4727 68.1152 -50.7324 C 68.1152 -43.9453 63.3789 -37.9395 56.9824 -36.8164 L 56.9824 -36.4258 C 64.4531 -35.6445 70.166 -29.4922 70.166 -22.0215 C 70.166 -12.1582 61.8164 -4.98047 50.0977 -4.98047 Z M 97.2656 -10.8887 C 105.859 -10.8887 111.621 -20.5566 111.621 -35.3516 C 111.621 -50.2441 105.908 -59.9121 97.2656 -59.9121 C 88.5742 -59.9121 82.8613 -50.2441 82.8613 -35.3516 C 82.8613 -20.5566 88.5742 -10.8887 97.2656 -10.8887 Z"/>
  </g>
  <g id="Regular-L" transform="matrix(1 0 0 1 1376.36 1556)">
   <path d="M 35.1074 22.2168 L 111.865 22.2168 C 124.512 22.2168 130.859 15.8691 130.859 3.41797 L 130.859 -73.7305 C 130.859 -86.1816 124.512 -92.5293 111.865 -92.5293 L 35.1074 -92.5293 C 22.5098 -92.5293 16.0645 -86.2305 16.0645 -73.7305 L 16.0645 3.41797 C 16.0645 15.918 22.5098 22.2168 35.1074 22.2168 Z M 97.6074 -4.98047 C 85.1074 -4.98047 76.8066 -17.0898 76.8066 -35.3516 C 76.8066 -53.7598 85.1074 -65.8691 97.6074 -65.8691 C 110.107 -65.8691 118.457 -53.7598 118.457 -35.3516 C 118.457 -17.0898 110.107 -4.98047 97.6074 -4.98047 Z M 50.7324 -4.93164 C 41.2109 -4.93164 33.6914 -10.4492 31.8359 -17.1875 C 31.5918 -18.0176 31.4453 -18.7012 31.4453 -19.5312 C 31.4453 -21.7285 33.0078 -23.291 35.0586 -23.291 C 36.8164 -23.291 37.8418 -22.3145 38.5742 -20.2637 C 40.1855 -15.1367 44.6289 -11.9141 50.7812 -11.9141 C 58.2031 -11.9141 63.3789 -16.4062 63.3789 -22.5098 C 63.3789 -28.6133 58.4961 -32.7637 51.3672 -32.7637 L 46.7285 -32.7637 C 44.7266 -32.7637 43.4082 -34.3262 43.4082 -36.377 C 43.4082 -38.4766 44.7266 -39.8926 46.7285 -39.8926 L 50.9766 -39.8926 C 57.0312 -39.8926 61.4746 -43.9941 61.4746 -49.6582 C 61.4746 -55.0781 57.1777 -58.8379 50.9277 -58.8379 C 45.0195 -58.8379 40.9668 -55.7617 39.6973 -50.4883 C 39.1113 -48.5352 38.0859 -47.5098 36.1816 -47.5098 C 34.1309 -47.5098 32.666 -49.0234 32.666 -51.2695 C 32.666 -52.0508 32.7148 -52.7832 32.9102 -53.6133 C 34.4238 -60.4492 41.6504 -65.8691 51.123 -65.8691 C 61.5723 -65.8691 68.9941 -59.5215 68.9941 -50.6348 C 68.9941 -43.8965 64.4043 -37.9883 58.252 -36.9141 L 58.252 -36.5234 C 65.5762 -35.7422 71.0449 -29.6875 71.0449 -22.2168 C 71.0449 -12.1582 62.6465 -4.93164 50.7324 -4.93164 Z M 97.6074 -12.3047 C 105.371 -12.3047 110.4 -21.2402 110.4 -35.3516 C 110.4 -49.6094 105.42 -58.5449 97.6074 -58.5449 C 89.7461 -58.5449 84.7656 -49.6094 84.7656 -35.3516 C 84.7656 -21.2402 89.7949 -12.3047 97.6074 -12.3047 Z"/>
  </g>
  <g id="Medium-L" transform="matrix(1 0 0 1 1672.31 1556)">
   <path d="M 35.9863 22.998 L 112.549 22.998 C 125.635 22.998 132.422 16.2109 132.422 3.27148 L 132.422 -73.6328 C 132.422 -86.5234 125.635 -93.3105 112.549 -93.3105 L 35.9863 -93.3105 C 22.9004 -93.3105 16.0645 -86.5723 16.0645 -73.6328 L 16.0645 3.27148 C 16.0645 16.2598 22.9004 22.998 35.9863 22.998 Z M 98.2422 -5.17578 C 85.8887 -5.17578 77.6855 -16.7969 77.6855 -35.3516 C 77.6855 -54.1016 85.8887 -65.6738 98.2422 -65.6738 C 110.596 -65.6738 118.896 -54.1016 118.896 -35.3516 C 118.896 -16.7969 110.596 -5.17578 98.2422 -5.17578 Z M 51.7578 -5.17578 C 42.3828 -5.17578 34.8633 -10.6934 33.0078 -17.1875 C 32.7148 -18.1152 32.5684 -18.8965 32.5684 -19.7754 C 32.5684 -22.3145 34.4238 -23.9746 36.5723 -23.9746 C 38.5254 -23.9746 39.6973 -22.9492 40.5273 -20.8496 C 42.1875 -16.1133 46.2891 -13.2324 51.8555 -13.2324 C 58.4961 -13.2324 63.1348 -17.334 63.1348 -22.8027 C 63.1348 -28.3691 58.7402 -32.1289 52.2461 -32.1289 L 48.291 -32.1289 C 45.8496 -32.1289 44.3848 -33.8867 44.3848 -36.2305 C 44.3848 -38.6719 45.9473 -40.2832 48.291 -40.2832 L 51.9531 -40.2832 C 57.5195 -40.2832 61.4258 -44.0918 61.4258 -49.2188 C 61.4258 -54.1504 57.5195 -57.6172 51.9043 -57.6172 C 46.5332 -57.6172 42.8711 -54.834 41.5527 -49.9512 C 40.8203 -47.998 39.6484 -46.875 37.5977 -46.875 C 35.3516 -46.875 33.7402 -48.5352 33.7402 -51.0742 C 33.7402 -51.9531 33.7891 -52.7344 34.0332 -53.7109 C 35.6445 -60.1562 42.6758 -65.625 52.0996 -65.625 C 62.6953 -65.625 70.1172 -59.3262 70.1172 -50.3418 C 70.1172 -43.7988 65.625 -37.9883 59.668 -36.9629 L 59.668 -36.5234 C 66.748 -35.8398 72.0215 -29.7852 72.0215 -22.4121 C 72.0215 -12.2559 63.7207 -5.17578 51.7578 -5.17578 Z M 98.291 -13.6719 C 105.273 -13.6719 109.766 -21.7285 109.766 -35.3516 C 109.766 -49.1211 105.322 -57.1777 98.291 -57.1777 C 91.2109 -57.1777 86.8164 -49.1211 86.8164 -35.3516 C 86.8164 -21.7285 91.2598 -13.6719 98.291 -13.6719 Z"/>
  </g>
  <g id="Semibold-L" transform="matrix(1 0 0 1 1968.41 1556)">
   <path d="M 36.6699 23.584 L 113.037 23.584 C 126.514 23.584 133.594 16.5039 133.594 3.17383 L 133.594 -73.5352 C 133.594 -86.8164 126.514 -93.9453 113.037 -93.9453 L 36.6699 -93.9453 C 23.2422 -93.9453 16.0645 -86.8652 16.0645 -73.5352 L 16.0645 3.17383 C 16.0645 16.5527 23.2422 23.584 36.6699 23.584 Z M 98.7305 -5.37109 C 86.5234 -5.37109 78.418 -16.5527 78.418 -35.3516 C 78.418 -54.2969 86.5234 -65.4785 98.7305 -65.4785 C 110.986 -65.4785 119.287 -54.2969 119.287 -35.3516 C 119.287 -16.5527 110.986 -5.37109 98.7305 -5.37109 Z M 52.5391 -5.32227 C 43.2617 -5.32227 35.791 -10.8398 33.8867 -17.2363 C 33.5938 -18.1641 33.4473 -18.9941 33.4473 -19.9707 C 33.4473 -22.7051 35.4492 -24.4629 37.7441 -24.4629 C 39.8438 -24.4629 41.1133 -23.3887 42.041 -21.3379 C 43.7012 -16.8945 47.5586 -14.2578 52.6367 -14.2578 C 58.7402 -14.2578 62.9883 -18.0176 62.9883 -22.998 C 62.9883 -28.1738 58.9355 -31.5918 52.9785 -31.5918 L 49.4629 -31.5918 C 46.7285 -31.5918 45.166 -33.5449 45.166 -36.1328 C 45.166 -38.8184 46.8262 -40.625 49.4629 -40.625 L 52.6855 -40.625 C 57.8125 -40.625 61.377 -44.1406 61.377 -48.8281 C 61.377 -53.4668 57.8125 -56.6406 52.6367 -56.6406 C 47.7051 -56.6406 44.3359 -54.1016 42.9688 -49.5605 C 42.1387 -47.5586 40.8691 -46.3867 38.7207 -46.3867 C 36.2305 -46.3867 34.5215 -48.1934 34.5215 -50.9277 C 34.5215 -51.8555 34.6191 -52.7344 34.9121 -53.7598 C 36.5234 -59.9609 43.457 -65.4297 52.832 -65.4297 C 63.5742 -65.4297 70.9473 -59.1797 70.9473 -50.1465 C 70.9473 -43.75 66.5527 -37.9883 60.7422 -37.0117 L 60.7422 -36.5234 C 67.6758 -35.8398 72.7539 -29.8828 72.7539 -22.5098 C 72.7539 -12.3535 64.5508 -5.32227 52.5391 -5.32227 Z M 98.8281 -14.7461 C 105.176 -14.7461 109.277 -22.1191 109.277 -35.3516 C 109.277 -48.7305 105.225 -56.1523 98.8281 -56.1523 C 92.3828 -56.1523 88.3789 -48.7305 88.3789 -35.3516 C 88.3789 -22.1191 92.4316 -14.7461 98.8281 -14.7461 Z"/>
  </g>
  <g id="Bold-L" transform="matrix(1 0 0 1 2264.34 1556)">
   <path d="M 37.5488 24.3652 L 113.721 24.3652 C 127.686 24.3652 135.205 16.8945 135.205 3.07617 L 135.205 -73.3887 C 135.205 -87.207 127.686 -94.7266 113.721 -94.7266 L 37.5488 -94.7266 C 23.6328 -94.7266 16.0645 -87.2559 16.0645 -73.3887 L 16.0645 3.07617 C 16.0645 16.8945 23.6328 24.3652 37.5488 24.3652 Z M 99.3652 -5.61523 C 87.3047 -5.61523 79.2969 -16.2598 79.2969 -35.4004 C 79.2969 -54.6387 87.3047 -65.2344 99.3652 -65.2344 C 111.475 -65.2344 119.727 -54.6387 119.727 -35.4004 C 119.727 -16.2598 111.475 -5.61523 99.3652 -5.61523 Z M 53.5645 -5.56641 C 44.4336 -5.56641 36.9629 -11.084 35.1074 -17.2852 C 34.7656 -18.2617 34.5703 -19.1895 34.5703 -20.2148 C 34.5703 -23.291 36.8652 -25.1465 39.3066 -25.1465 C 41.5527 -25.1465 42.9688 -24.0234 43.9941 -21.9238 C 45.7031 -17.9199 49.1699 -15.5273 53.6621 -15.5273 C 59.0332 -15.5273 62.7441 -18.9453 62.7441 -23.291 C 62.7441 -27.9297 59.1797 -30.957 53.8574 -30.957 L 51.0254 -30.957 C 47.8516 -30.957 46.1426 -33.1055 46.1426 -36.0352 C 46.1426 -39.0137 48.0469 -41.0156 51.0254 -41.0156 L 53.6133 -41.0156 C 58.3008 -41.0156 61.3281 -44.2383 61.3281 -48.3887 C 61.3281 -52.5391 58.1543 -55.4199 53.6133 -55.4199 C 49.2188 -55.4199 46.2891 -53.1738 44.8242 -49.0234 C 43.8965 -46.9727 42.4805 -45.8008 40.1367 -45.8008 C 37.4512 -45.8008 35.5957 -47.7051 35.5957 -50.7324 C 35.5957 -51.7578 35.6934 -52.6855 36.084 -53.8574 C 37.7441 -59.668 44.5312 -65.1855 53.8086 -65.1855 C 64.6973 -65.1855 72.0703 -58.9844 72.0703 -49.8535 C 72.0703 -43.6523 67.8223 -38.0371 62.1094 -37.0605 L 62.1094 -36.5234 C 68.8477 -35.9375 73.7305 -29.9805 73.7305 -22.7051 C 73.7305 -12.5 65.625 -5.56641 53.5645 -5.56641 Z M 99.5117 -16.1621 C 105.029 -16.1621 108.643 -22.6074 108.643 -35.4004 C 108.643 -48.2422 105.078 -54.7363 99.5117 -54.7363 C 93.8965 -54.7363 90.4297 -48.2422 90.4297 -35.4004 C 90.4297 -22.6074 93.9453 -16.1621 99.5117 -16.1621 Z"/>
  </g>
  <g id="Heavy-L" transform="matrix(1 0 0 1 2559.91 1556)">
   <path d="M 38.8184 25.4883 L 114.697 25.4883 C 129.346 25.4883 137.451 17.4316 137.451 2.88086 L 137.451 -73.2422 C 137.451 -87.793 129.346 -95.8496 114.697 -95.8496 L 38.8184 -95.8496 C 24.2188 -95.8496 16.0645 -87.793 16.0645 -73.2422 L 16.0645 2.88086 C 16.0645 17.4316 24.2188 25.4883 38.8184 25.4883 Z M 100.342 -5.95703 C 88.4766 -5.95703 80.6152 -15.8203 80.6152 -35.4004 C 80.6152 -55.127 88.4766 -64.8926 100.342 -64.8926 C 112.207 -64.8926 120.459 -55.127 120.459 -35.4004 C 120.459 -15.8203 112.207 -5.95703 100.342 -5.95703 Z M 55.0293 -5.85938 C 46.0938 -5.85938 38.6719 -11.377 36.8164 -17.334 C 36.4258 -18.3594 36.2305 -19.4336 36.2305 -20.5566 C 36.2305 -24.0723 38.916 -26.1719 41.5527 -26.1719 C 44.043 -26.1719 45.7031 -24.9023 46.875 -22.8027 C 48.584 -19.3848 51.6113 -17.4805 55.2246 -17.4805 C 59.4727 -17.4805 62.3535 -20.2637 62.3535 -23.6816 C 62.3535 -27.5391 59.5703 -29.9805 55.1758 -29.9805 L 53.3203 -29.9805 C 49.4629 -29.9805 47.6074 -32.4707 47.6074 -35.8398 C 47.6074 -39.3066 49.8047 -41.6504 53.3203 -41.6504 L 55.0293 -41.6504 C 58.9355 -41.6504 61.2793 -44.3848 61.2793 -47.7051 C 61.2793 -51.1719 58.6426 -53.5645 55.0293 -53.5645 C 51.4648 -53.5645 49.0723 -51.8066 47.5098 -48.2422 C 46.3867 -46.1426 44.7754 -44.873 42.2363 -44.873 C 39.209 -44.873 37.1094 -46.9727 37.1094 -50.4395 C 37.1094 -51.6113 37.2559 -52.6367 37.7441 -54.0039 C 39.5508 -59.2285 45.9961 -64.7949 55.2734 -64.7949 C 66.3574 -64.7949 73.6816 -58.6914 73.6816 -49.4141 C 73.6816 -43.5059 69.6289 -38.0371 64.1602 -37.1094 L 64.1602 -36.5723 C 70.6055 -35.9863 75.1465 -30.1758 75.1465 -22.998 C 75.1465 -12.6953 67.1875 -5.85938 55.0293 -5.85938 Z M 100.488 -18.1641 C 104.883 -18.1641 107.666 -23.3398 107.666 -35.4004 C 107.666 -47.5586 104.883 -52.7344 100.488 -52.7344 C 96.1426 -52.7344 93.3594 -47.5586 93.3594 -35.4004 C 93.3594 -23.3398 96.1426 -18.1641 100.488 -18.1641 Z"/>
  </g>
  <g id="Black-L" transform="matrix(1 0 0 1 2855.62 1556)">
   <path d="M 39.9902 26.5137 L 115.576 26.5137 C 130.859 26.5137 139.502 17.8711 139.502 2.68555 L 139.502 -73.0957 C 139.502 -88.2812 130.859 -96.875 115.576 -96.875 L 39.9902 -96.875 C 24.7559 -96.875 16.0645 -88.2812 16.0645 -73.0957 L 16.0645 2.68555 C 16.0645 17.8711 24.7559 26.5137 39.9902 26.5137 Z M 101.172 -6.25 C 89.502 -6.25 81.8359 -15.4297 81.8359 -35.4004 C 81.8359 -55.5176 89.502 -64.5996 101.172 -64.5996 C 112.842 -64.5996 121.045 -55.5176 121.045 -35.4004 C 121.045 -15.4297 112.842 -6.25 101.172 -6.25 Z M 56.3477 -6.15234 C 47.6074 -6.15234 40.2344 -11.6699 38.3301 -17.334 C 37.9395 -18.5059 37.6953 -19.6289 37.6953 -20.8496 C 37.6953 -24.8047 40.7715 -27.0508 43.6035 -27.0508 C 46.2891 -27.0508 48.1445 -25.7324 49.4629 -23.5352 C 51.1719 -20.6543 53.7109 -19.1406 56.543 -19.1406 C 59.8633 -19.1406 62.0605 -21.4355 62.0605 -24.0723 C 62.0605 -27.1973 59.9121 -29.1504 56.3965 -29.1504 L 55.3223 -29.1504 C 50.9277 -29.1504 48.877 -31.8848 48.877 -35.6934 C 48.877 -39.5508 51.3672 -42.1875 55.3223 -42.1875 L 56.2988 -42.1875 C 59.5215 -42.1875 61.2305 -44.4824 61.2305 -47.0703 C 61.2305 -50 59.082 -51.9531 56.2988 -51.9531 C 53.4668 -51.9531 51.6113 -50.5371 49.9023 -47.5586 C 48.6328 -45.4102 46.875 -44.0918 44.0918 -44.0918 C 40.7715 -44.0918 38.4766 -46.3379 38.4766 -50.1953 C 38.4766 -51.4648 38.6719 -52.6367 39.2578 -54.1016 C 41.1133 -58.8867 47.3633 -64.502 56.543 -64.502 C 67.8223 -64.502 75.1465 -58.3984 75.1465 -49.0723 C 75.1465 -43.4082 71.2402 -38.0859 66.0156 -37.1582 L 66.0156 -36.5723 C 72.168 -36.084 76.416 -30.3223 76.416 -23.2422 C 76.416 -12.8418 68.5547 -6.15234 56.3477 -6.15234 Z M 101.416 -20.0195 C 104.736 -20.0195 106.836 -23.9746 106.836 -35.4004 C 106.836 -46.9238 104.736 -50.9277 101.416 -50.9277 C 98.0957 -50.9277 96.0449 -46.9238 96.0449 -35.4004 C 96.0449 -23.9746 98.1445 -20.0195 101.416 -20.0195 Z"/>
  </g>
 </g>
</svg>
