<?xml version="1.0" encoding="UTF-8"?>
<!--Generator: Apple Native CoreSVG 123-->
<!DOCTYPE svg
PUBLIC "-//W3C//DTD SVG 1.1//EN"
       "http://www.w3.org/Graphics/SVG/1.1/DTD/svg11.dtd">
<svg version="1.1" xmlns="http://www.w3.org/2000/svg" xmlns:xlink="http://www.w3.org/1999/xlink" width="3300" height="2200">
 <!--glyph: "uni1006C2.medium", point size: 100.000000, font version: "Version 15.0d4e20", template writer version: "2"-->
 <g id="Notes">
  <rect height="2200" id="artboard" style="fill:white;opacity:1" width="3300" x="0" y="0"/>
  <line id="" style="fill:none;stroke:black;opacity:1;stroke-width:0.5;" x1="263" x2="3036" y1="292" y2="292"/>
  <text style="stroke:none;fill:black;font-family:-apple-system,&quot;SF Pro Display&quot;,&quot;SF Pro Text&quot;,Helvetica,sans-serif;font-weight:bold;" transform="matrix(1 0 0 1 263 322)">Weight/Scale Variations</text>
  <text style="stroke:none;fill:black;font-family:-apple-system,&quot;SF Pro Display&quot;,&quot;SF Pro Text&quot;,Helvetica,sans-serif;text-anchor:middle;" transform="matrix(1 0 0 1 559.711 322)">Ultralight</text>
  <text style="stroke:none;fill:black;font-family:-apple-system,&quot;SF Pro Display&quot;,&quot;SF Pro Text&quot;,Helvetica,sans-serif;text-anchor:middle;" transform="matrix(1 0 0 1 856.422 322)">Thin</text>
  <text style="stroke:none;fill:black;font-family:-apple-system,&quot;SF Pro Display&quot;,&quot;SF Pro Text&quot;,Helvetica,sans-serif;text-anchor:middle;" transform="matrix(1 0 0 1 1153.13 322)">Light</text>
  <text style="stroke:none;fill:black;font-family:-apple-system,&quot;SF Pro Display&quot;,&quot;SF Pro Text&quot;,Helvetica,sans-serif;text-anchor:middle;" transform="matrix(1 0 0 1 1449.84 322)">Regular</text>
  <text style="stroke:none;fill:black;font-family:-apple-system,&quot;SF Pro Display&quot;,&quot;SF Pro Text&quot;,Helvetica,sans-serif;text-anchor:middle;" transform="matrix(1 0 0 1 1746.56 322)">Medium</text>
  <text style="stroke:none;fill:black;font-family:-apple-system,&quot;SF Pro Display&quot;,&quot;SF Pro Text&quot;,Helvetica,sans-serif;text-anchor:middle;" transform="matrix(1 0 0 1 2043.27 322)">Semibold</text>
  <text style="stroke:none;fill:black;font-family:-apple-system,&quot;SF Pro Display&quot;,&quot;SF Pro Text&quot;,Helvetica,sans-serif;text-anchor:middle;" transform="matrix(1 0 0 1 2339.98 322)">Bold</text>
  <text style="stroke:none;fill:black;font-family:-apple-system,&quot;SF Pro Display&quot;,&quot;SF Pro Text&quot;,Helvetica,sans-serif;text-anchor:middle;" transform="matrix(1 0 0 1 2636.69 322)">Heavy</text>
  <text style="stroke:none;fill:black;font-family:-apple-system,&quot;SF Pro Display&quot;,&quot;SF Pro Text&quot;,Helvetica,sans-serif;text-anchor:middle;" transform="matrix(1 0 0 1 2933.4 322)">Black</text>
  <line id="" style="fill:none;stroke:black;opacity:1;stroke-width:0.5;" x1="263" x2="3036" y1="1903" y2="1903"/>
  <g id="" transform="matrix(1 0 0 1 263 1933)">
   <path d="M 9.24805 0.830078 C 13.5547 0.830078 17.1387 -2.74414 17.1387 -7.05078 C 17.1387 -11.3574 13.5449 -14.9316 9.23828 -14.9316 C 4.94141 -14.9316 1.36719 -11.3574 1.36719 -7.05078 C 1.36719 -2.74414 4.95117 0.830078 9.24805 0.830078 Z M 9.24805 -0.654297 C 5.70312 -0.654297 2.87109 -3.49609 2.87109 -7.05078 C 2.87109 -10.6055 5.69336 -13.4473 9.23828 -13.4473 C 12.793 -13.4473 15.6348 -10.6055 15.6445 -7.05078 C 15.6543 -3.49609 12.8027 -0.654297 9.24805 -0.654297 Z M 9.22852 -3.42773 C 9.69727 -3.42773 9.9707 -3.74023 9.9707 -4.25781 L 9.9707 -6.31836 L 12.1973 -6.31836 C 12.6953 -6.31836 13.0371 -6.57227 13.0371 -7.04102 C 13.0371 -7.51953 12.7148 -7.7832 12.1973 -7.7832 L 9.9707 -7.7832 L 9.9707 -10.0098 C 9.9707 -10.5273 9.69727 -10.8496 9.22852 -10.8496 C 8.75977 -10.8496 8.50586 -10.5078 8.50586 -10.0098 L 8.50586 -7.7832 L 6.29883 -7.7832 C 5.78125 -7.7832 5.44922 -7.51953 5.44922 -7.04102 C 5.44922 -6.57227 5.80078 -6.31836 6.29883 -6.31836 L 8.50586 -6.31836 L 8.50586 -4.25781 C 8.50586 -3.75977 8.75977 -3.42773 9.22852 -3.42773 Z"/>
  </g>
  <g id="" transform="matrix(1 0 0 1 281.506 1933)">
   <path d="M 11.709 2.91016 C 17.1484 2.91016 21.6699 -1.60156 21.6699 -7.05078 C 21.6699 -12.4902 17.1387 -17.0117 11.6992 -17.0117 C 6.25 -17.0117 1.74805 -12.4902 1.74805 -7.05078 C 1.74805 -1.60156 6.25977 2.91016 11.709 2.91016 Z M 11.709 1.25 C 7.09961 1.25 3.41797 -2.44141 3.41797 -7.05078 C 3.41797 -11.6504 7.08984 -15.3516 11.6992 -15.3516 C 16.2988 -15.3516 20 -11.6504 20.0098 -7.05078 C 20.0195 -2.44141 16.3086 1.25 11.709 1.25 Z M 11.6797 -2.41211 C 12.207 -2.41211 12.5195 -2.77344 12.5195 -3.33984 L 12.5195 -6.23047 L 15.5762 -6.23047 C 16.123 -6.23047 16.5039 -6.51367 16.5039 -7.03125 C 16.5039 -7.55859 16.1426 -7.86133 15.5762 -7.86133 L 12.5195 -7.86133 L 12.5195 -10.9277 C 12.5195 -11.5039 12.207 -11.8555 11.6797 -11.8555 C 11.1621 -11.8555 10.8789 -11.4844 10.8789 -10.9277 L 10.8789 -7.86133 L 7.83203 -7.86133 C 7.25586 -7.86133 6.89453 -7.55859 6.89453 -7.03125 C 6.89453 -6.51367 7.28516 -6.23047 7.83203 -6.23047 L 10.8789 -6.23047 L 10.8789 -3.33984 C 10.8789 -2.79297 11.1621 -2.41211 11.6797 -2.41211 Z"/>
  </g>
  <g id="" transform="matrix(1 0 0 1 304.914 1933)">
   <path d="M 14.9707 5.67383 C 21.9336 5.67383 27.6855 -0.078125 27.6855 -7.04102 C 27.6855 -14.0039 21.9238 -19.7559 14.9609 -19.7559 C 7.99805 -19.7559 2.25586 -14.0039 2.25586 -7.04102 C 2.25586 -0.078125 8.00781 5.67383 14.9707 5.67383 Z M 14.9707 3.85742 C 8.92578 3.85742 4.08203 -1.00586 4.08203 -7.04102 C 4.08203 -13.0762 8.91602 -17.9395 14.9609 -17.9395 C 20.9961 -17.9395 25.8594 -13.0762 25.8691 -7.04102 C 25.8789 -1.00586 21.0059 3.85742 14.9707 3.85742 Z M 14.9414 -1.06445 C 15.5176 -1.06445 15.8594 -1.45508 15.8594 -2.06055 L 15.8594 -6.13281 L 20.0977 -6.13281 C 20.6934 -6.13281 21.1133 -6.46484 21.1133 -7.02148 C 21.1133 -7.59766 20.7227 -7.93945 20.0977 -7.93945 L 15.8594 -7.93945 L 15.8594 -12.1875 C 15.8594 -12.8027 15.5176 -13.1934 14.9414 -13.1934 C 14.3848 -13.1934 14.0625 -12.7832 14.0625 -12.1875 L 14.0625 -7.93945 L 9.82422 -7.93945 C 9.20898 -7.93945 8.80859 -7.59766 8.80859 -7.02148 C 8.80859 -6.46484 9.23828 -6.13281 9.82422 -6.13281 L 14.0625 -6.13281 L 14.0625 -2.06055 C 14.0625 -1.47461 14.3848 -1.06445 14.9414 -1.06445 Z"/>
  </g>
  <text style="stroke:none;fill:black;font-family:-apple-system,&quot;SF Pro Display&quot;,&quot;SF Pro Text&quot;,Helvetica,sans-serif;font-weight:bold;" transform="matrix(1 0 0 1 263 1953)">Design Variations</text>
  <text style="stroke:none;fill:black;font-family:-apple-system,&quot;SF Pro Display&quot;,&quot;SF Pro Text&quot;,Helvetica,sans-serif;" transform="matrix(1 0 0 1 263 1971)">Symbols are supported in up to nine weights and three scales.</text>
  <text style="stroke:none;fill:black;font-family:-apple-system,&quot;SF Pro Display&quot;,&quot;SF Pro Text&quot;,Helvetica,sans-serif;" transform="matrix(1 0 0 1 263 1989)">For optimal layout with text and other symbols, vertically align</text>
  <text style="stroke:none;fill:black;font-family:-apple-system,&quot;SF Pro Display&quot;,&quot;SF Pro Text&quot;,Helvetica,sans-serif;" transform="matrix(1 0 0 1 263 2007)">symbols with the adjacent text.</text>
  <rect height="14" id="" style="fill:#00AEEF;stroke:none;opacity:0.4;" width="3" x="776" y="1919"/>
  <g id="" transform="matrix(1 0 0 1 779 1933)">
   <path d="M 10.5273 0 L 12.373 0 L 7.17773 -14.0918 L 5.43945 -14.0918 L 0.244141 0 L 2.08984 0 L 3.50586 -4.0332 L 9.11133 -4.0332 Z M 6.2793 -11.9531 L 6.33789 -11.9531 L 8.59375 -5.52734 L 4.02344 -5.52734 Z"/>
  </g>
  <rect height="14" id="" style="fill:#00AEEF;stroke:none;opacity:0.4;" width="3" x="791.617" y="1919"/>
  <text style="stroke:none;fill:black;font-family:-apple-system,&quot;SF Pro Display&quot;,&quot;SF Pro Text&quot;,Helvetica,sans-serif;font-weight:bold;" transform="matrix(1 0 0 1 776 1953)">Side Bearings</text>
  <text style="stroke:none;fill:black;font-family:-apple-system,&quot;SF Pro Display&quot;,&quot;SF Pro Text&quot;,Helvetica,sans-serif;" transform="matrix(1 0 0 1 776 1971)">Horizontal padding on the left and right side of each symbol</text>
  <text style="stroke:none;fill:black;font-family:-apple-system,&quot;SF Pro Display&quot;,&quot;SF Pro Text&quot;,Helvetica,sans-serif;" transform="matrix(1 0 0 1 776 1989)">can be adjusted by modifying the width of the blue rectangles.</text>
  <text style="stroke:none;fill:black;font-family:-apple-system,&quot;SF Pro Display&quot;,&quot;SF Pro Text&quot;,Helvetica,sans-serif;" transform="matrix(1 0 0 1 776 2007)">Modifications are automatically applied proportionally to all</text>
  <text style="stroke:none;fill:black;font-family:-apple-system,&quot;SF Pro Display&quot;,&quot;SF Pro Text&quot;,Helvetica,sans-serif;" transform="matrix(1 0 0 1 776 2025)">scales and weights.</text>
  <g id="" transform="matrix(1 0 0 1 1289 1933)">
   <path d="M 2.96875 2.35352 L 3.80859 3.19336 C 4.84375 4.22852 6.12305 4.15039 7.19727 2.97852 L 16.1621 -6.82617 C 16.5527 -6.74805 16.9629 -6.8457 17.4902 -7.02148 C 18.1738 -7.25586 18.2715 -7.25586 18.3887 -7.13867 C 18.5352 -7.01172 18.4863 -6.89453 18.2422 -6.25 C 17.8809 -5.33203 17.8125 -4.79492 18.5547 -4.02344 L 19.4238 -3.13477 C 20.2734 -2.24609 21.3281 -2.26562 22.2168 -3.14453 L 25.0586 -5.97656 C 25.9473 -6.86523 25.957 -7.92969 25.0781 -8.7793 L 24.1797 -9.64844 C 23.4082 -10.4004 22.8711 -10.3516 21.9629 -9.98047 C 21.3184 -9.72656 21.2012 -9.6875 21.0645 -9.81445 C 20.9375 -9.93164 20.9473 -10.0391 21.1816 -10.7129 C 21.5332 -11.6895 21.5723 -12.2852 20.752 -13.0957 L 19.3359 -14.5117 C 15.1953 -18.6133 11.2305 -18.7402 7.65625 -15.4395 C 7.08008 -14.9023 6.99219 -14.1504 7.53906 -13.6133 L 7.79297 -13.3594 C 8.22266 -12.9297 8.86719 -12.8418 9.41406 -13.1152 C 11.0645 -13.9453 12.2559 -14.0234 13.457 -12.9785 L 13.0273 -11.416 C 12.8516 -10.8008 12.793 -10.3418 12.9199 -9.93164 L 3.18359 -1.04492 C 2.02148 0.0292969 1.93359 1.32812 2.96875 2.35352 Z M 8.96484 -14.4922 C 8.89648 -14.5703 8.86719 -14.6582 8.99414 -14.7559 C 11.709 -17.2852 15.0391 -16.8457 18.3496 -13.5254 L 19.6973 -12.168 C 20.0879 -11.7773 20.0977 -11.582 19.8828 -10.8691 C 19.6582 -10.127 19.502 -9.53125 20.1465 -8.88672 C 20.8105 -8.22266 21.2891 -8.41797 22.207 -8.63281 C 22.9004 -8.79883 23.0664 -8.79883 23.4473 -8.41797 L 24.0918 -7.77344 C 24.4043 -7.48047 24.4141 -7.32422 24.0723 -6.97266 L 21.2207 -4.13086 C 20.8887 -3.79883 20.7227 -3.79883 20.4297 -4.10156 L 19.7852 -4.75586 C 19.4141 -5.13672 19.4141 -5.30273 19.5801 -6.01562 C 19.7852 -6.88477 19.9805 -7.38281 19.3262 -8.04688 C 18.6719 -8.7207 18.0762 -8.57422 17.3438 -8.33008 C 16.5625 -8.06641 16.3281 -8.06641 15.8984 -8.49609 L 14.6094 -9.78516 C 14.1699 -10.2246 14.1309 -10.4395 14.2676 -10.9082 L 15.0293 -13.3984 C 13.3887 -15.2832 11.4941 -15.5566 9.20898 -14.4434 C 9.11133 -14.3945 9.04297 -14.4141 8.96484 -14.4922 Z M 3.96484 1.36719 C 3.52539 0.927734 3.54492 0.537109 4.14062 -0.00976562 L 13.7402 -8.81836 L 15 -7.55859 L 6.17188 2.02148 C 5.625 2.60742 5.24414 2.64648 4.79492 2.19727 Z"/>
  </g>
  <text style="stroke:none;fill:black;font-family:-apple-system,&quot;SF Pro Display&quot;,&quot;SF Pro Text&quot;,Helvetica,sans-serif;font-weight:bold;" transform="matrix(1 0 0 1 1289 1953)">Exporting</text>
  <text style="stroke:none;fill:black;font-family:-apple-system,&quot;SF Pro Display&quot;,&quot;SF Pro Text&quot;,Helvetica,sans-serif;" transform="matrix(1 0 0 1 1289 1971)">Symbols should be outlined when exporting to ensure the</text>
  <text style="stroke:none;fill:black;font-family:-apple-system,&quot;SF Pro Display&quot;,&quot;SF Pro Text&quot;,Helvetica,sans-serif;" transform="matrix(1 0 0 1 1289 1989)">design is preserved when submitting to Xcode.</text>
  <text id="template-version" style="stroke:none;fill:black;font-family:-apple-system,&quot;SF Pro Display&quot;,&quot;SF Pro Text&quot;,Helvetica,sans-serif;text-anchor:end;" transform="matrix(1 0 0 1 3036 1933)">Template v.0.1</text>
  <text style="stroke:none;fill:black;font-family:-apple-system,&quot;SF Pro Display&quot;,&quot;SF Pro Text&quot;,Helvetica,sans-serif;text-anchor:end;" transform="matrix(1 0 0 1 3036 1951)">Generated from 34.square.fill</text>
  <text style="stroke:none;fill:black;font-family:-apple-system,&quot;SF Pro Display&quot;,&quot;SF Pro Text&quot;,Helvetica,sans-serif;text-anchor:end;" transform="matrix(1 0 0 1 3036 1969)">Typeset at 100 points</text>
  <text style="stroke:none;fill:black;font-family:-apple-system,&quot;SF Pro Display&quot;,&quot;SF Pro Text&quot;,Helvetica,sans-serif;" transform="matrix(1 0 0 1 263 726)">Small</text>
  <text style="stroke:none;fill:black;font-family:-apple-system,&quot;SF Pro Display&quot;,&quot;SF Pro Text&quot;,Helvetica,sans-serif;" transform="matrix(1 0 0 1 263 1156)">Medium</text>
  <text style="stroke:none;fill:black;font-family:-apple-system,&quot;SF Pro Display&quot;,&quot;SF Pro Text&quot;,Helvetica,sans-serif;" transform="matrix(1 0 0 1 263 1586)">Large</text>
 </g>
 <g id="Guides">
  <g id="H-reference" style="fill:#27AAE1;stroke:none;" transform="matrix(1 0 0 1 339 696)">
   <path d="M 54.9316 0 L 57.666 0 L 30.5664 -70.459 L 28.0762 -70.459 L 0.976562 0 L 3.66211 0 L 12.9395 -24.4629 L 45.7031 -24.4629 Z M 29.1992 -67.0898 L 29.4434 -67.0898 L 44.8242 -26.709 L 13.8184 -26.709 Z"/>
  </g>
  <line id="Baseline-S" style="fill:none;stroke:#27AAE1;opacity:1;stroke-width:0.577;" x1="263" x2="3036" y1="696" y2="696"/>
  <line id="Capline-S" style="fill:none;stroke:#27AAE1;opacity:1;stroke-width:0.577;" x1="263" x2="3036" y1="625.541" y2="625.541"/>
  <g id="H-reference" style="fill:#27AAE1;stroke:none;" transform="matrix(1 0 0 1 339 1126)">
   <path d="M 54.9316 0 L 57.666 0 L 30.5664 -70.459 L 28.0762 -70.459 L 0.976562 0 L 3.66211 0 L 12.9395 -24.4629 L 45.7031 -24.4629 Z M 29.1992 -67.0898 L 29.4434 -67.0898 L 44.8242 -26.709 L 13.8184 -26.709 Z"/>
  </g>
  <line id="Baseline-M" style="fill:none;stroke:#27AAE1;opacity:1;stroke-width:0.577;" x1="263" x2="3036" y1="1126" y2="1126"/>
  <line id="Capline-M" style="fill:none;stroke:#27AAE1;opacity:1;stroke-width:0.577;" x1="263" x2="3036" y1="1055.54" y2="1055.54"/>
  <g id="H-reference" style="fill:#27AAE1;stroke:none;" transform="matrix(1 0 0 1 339 1556)">
   <path d="M 54.9316 0 L 57.666 0 L 30.5664 -70.459 L 28.0762 -70.459 L 0.976562 0 L 3.66211 0 L 12.9395 -24.4629 L 45.7031 -24.4629 Z M 29.1992 -67.0898 L 29.4434 -67.0898 L 44.8242 -26.709 L 13.8184 -26.709 Z"/>
  </g>
  <line id="Baseline-L" style="fill:none;stroke:#27AAE1;opacity:1;stroke-width:0.577;" x1="263" x2="3036" y1="1556" y2="1556"/>
  <line id="Capline-L" style="fill:none;stroke:#27AAE1;opacity:1;stroke-width:0.577;" x1="263" x2="3036" y1="1485.54" y2="1485.54"/>
  <rect height="119.336" id="left-margin" style="fill:#00AEEF;stroke:none;opacity:0.4;" width="12.4512" x="1392.42" y="1030.79"/>
  <rect height="119.336" id="right-margin" style="fill:#00AEEF;stroke:none;opacity:0.4;" width="12.5" x="1494.77" y="1030.79"/>
 </g>
 <g id="Symbols">
  <g id="Ultralight-S" transform="matrix(1 0 0 1 516.352 696)">
   <path d="M 19.7754 -1.5625 L 66.9922 -1.5625 C 73.5352 -1.5625 76.9531 -5.12695 76.9531 -11.5234 L 76.9531 -58.7891 C 76.9531 -65.2344 73.5352 -68.75 66.9922 -68.75 L 19.7754 -68.75 C 13.2324 -68.75 9.76562 -65.2832 9.76562 -58.7891 L 9.76562 -11.5234 C 9.76562 -5.0293 13.2324 -1.5625 19.7754 -1.5625 Z M 63.9648 -17.1387 C 63.2812 -17.1387 62.793 -17.627 62.793 -18.3105 L 62.793 -26.123 L 47.1191 -26.123 C 45.8008 -26.123 45.0684 -26.7578 45.0684 -27.832 C 45.0684 -28.3691 45.3125 -28.8574 45.5078 -29.2969 C 48.7305 -34.5215 57.0801 -46.875 60.6934 -52.1484 C 61.4746 -53.2715 62.1094 -53.6133 63.2324 -53.6133 C 64.4043 -53.6133 65.1367 -52.9297 65.1367 -51.8066 L 65.1367 -28.3203 L 70.0195 -28.3203 C 70.7031 -28.3203 71.1914 -27.7832 71.1914 -27.1973 C 71.1914 -26.5625 70.7031 -26.123 70.0195 -26.123 L 65.1367 -26.123 L 65.1367 -18.3105 C 65.1367 -17.627 64.6973 -17.1387 63.9648 -17.1387 Z M 29.6875 -16.8457 C 24.1699 -16.8457 19.6289 -19.7754 18.4082 -24.0234 C 18.2617 -24.4141 18.2129 -24.7559 18.2129 -25.0977 C 18.2129 -25.8301 18.75 -26.3672 19.4336 -26.3672 C 20.0195 -26.3672 20.459 -26.0254 20.6055 -25.2441 C 21.3867 -21.6309 25.1465 -19.043 29.6875 -19.043 C 35.3516 -19.043 39.2578 -22.3145 39.2578 -27.0996 C 39.2578 -31.4453 35.3516 -34.7656 30.1758 -34.7656 L 26.4648 -34.7656 C 25.7812 -34.7656 25.3418 -35.1562 25.3418 -35.8398 C 25.3418 -36.4746 25.7812 -36.9629 26.4648 -36.9629 L 29.8828 -36.9629 C 34.4238 -36.9629 37.9395 -40.2344 37.9395 -44.4336 C 37.9395 -48.584 34.6191 -51.416 29.6875 -51.416 C 25.2441 -51.416 21.875 -48.877 21.3867 -45.2148 C 21.3379 -44.4824 20.8496 -44.0918 20.166 -44.0918 C 19.4824 -44.0918 19.043 -44.6289 19.043 -45.3613 C 19.043 -45.7031 19.0918 -46.0449 19.1406 -46.4355 C 19.6777 -50.6348 24.3164 -53.6133 29.6875 -53.6133 C 35.8887 -53.6133 40.4297 -49.9023 40.4297 -44.6777 C 40.4297 -40.4785 37.4512 -36.8164 33.3496 -36.084 L 33.3496 -35.8887 C 38.0371 -35.4004 41.748 -31.5918 41.748 -27.0996 C 41.748 -21.1426 36.7188 -16.8457 29.6875 -16.8457 Z M 62.793 -28.3203 L 62.793 -50.9277 L 62.5977 -50.9277 C 59.8145 -46.875 50.2441 -32.666 47.7051 -28.5156 L 47.7051 -28.3203 Z"/>
  </g>
  <g id="Thin-S" transform="matrix(1 0 0 1 812.599 696)">
   <path d="M 20.3125 -1.12305 L 67.334 -1.12305 C 74.2676 -1.12305 77.8809 -4.78516 77.8809 -11.6211 L 77.8809 -58.6914 C 77.8809 -65.5762 74.2676 -69.2383 67.334 -69.2383 L 20.3125 -69.2383 C 13.3789 -69.2383 9.76562 -65.625 9.76562 -58.6914 L 9.76562 -11.6211 C 9.76562 -4.6875 13.3789 -1.12305 20.3125 -1.12305 Z M 64.3066 -17.2363 C 63.3789 -17.2363 62.7441 -17.9688 62.7441 -18.9941 L 62.7441 -25.8301 L 47.9492 -25.8301 C 46.3379 -25.8301 45.4102 -26.6602 45.4102 -28.0762 C 45.4102 -28.8086 45.6543 -29.3945 46.0449 -30.0781 C 49.1211 -35.3027 56.3965 -46.3379 60.0098 -51.8066 C 60.9375 -53.2227 61.8164 -53.7598 63.3301 -53.7598 C 64.8926 -53.7598 65.8691 -52.832 65.8691 -51.3184 L 65.8691 -28.7598 L 70.0684 -28.7598 C 70.9473 -28.7598 71.582 -28.125 71.582 -27.2949 C 71.582 -26.3672 70.9473 -25.8301 70.0684 -25.8301 L 65.8691 -25.8301 L 65.8691 -18.9941 C 65.8691 -17.9688 65.2832 -17.2363 64.3066 -17.2363 Z M 29.9805 -16.9434 C 24.3652 -16.9434 19.7754 -19.9707 18.6035 -24.1699 C 18.457 -24.6094 18.4082 -25 18.4082 -25.3906 C 18.4082 -26.3672 19.0918 -27.002 19.9707 -27.002 C 20.752 -27.002 21.2402 -26.5625 21.4844 -25.6348 C 22.3633 -22.2168 25.7324 -19.873 30.0293 -19.8242 C 35.2539 -19.8242 38.8672 -22.9004 38.8672 -27.3438 C 38.8672 -31.4453 35.2539 -34.4727 30.4199 -34.4727 L 27.002 -34.4727 C 26.1719 -34.4727 25.5859 -35.0586 25.5859 -35.9375 C 25.5859 -36.8164 26.1719 -37.4512 27.002 -37.4512 L 30.1758 -37.4512 C 34.375 -37.4512 37.5977 -40.4297 37.5977 -44.3359 C 37.5977 -48.1934 34.5215 -50.8301 30.0293 -50.8301 C 25.8789 -50.8301 22.8027 -48.5352 22.2656 -45.0195 C 22.0703 -44.1406 21.582 -43.6523 20.7031 -43.6523 C 19.8242 -43.6523 19.2383 -44.3359 19.2383 -45.2637 C 19.2383 -45.6543 19.2383 -46.0449 19.3359 -46.4844 C 19.9707 -50.6836 24.5605 -53.7598 30.0293 -53.7598 C 36.3281 -53.7598 40.8691 -50 40.8691 -44.7266 C 40.8691 -40.5762 37.9395 -36.9141 33.9844 -36.2305 L 33.9844 -35.9863 C 38.5742 -35.498 42.1387 -31.7383 42.1387 -27.2461 C 42.1387 -21.2402 37.0605 -16.9434 29.9805 -16.9434 Z M 62.7441 -28.7598 L 62.7441 -50.1953 L 62.5 -50.1953 C 59.5703 -45.7031 51.416 -33.3008 48.877 -28.9551 L 48.877 -28.7598 Z"/>
  </g>
  <g id="Light-S" transform="matrix(1 0 0 1 1108.46 696)">
   <path d="M 21.3867 -0.292969 L 67.9688 -0.292969 C 75.7324 -0.292969 79.5898 -4.15039 79.5898 -11.7676 L 79.5898 -58.5938 C 79.5898 -66.2109 75.7324 -70.1172 67.9688 -70.1172 L 21.3867 -70.1172 C 13.6719 -70.1172 9.76562 -66.2598 9.76562 -58.5938 L 9.76562 -11.7676 C 9.76562 -4.15039 13.6719 -0.292969 21.3867 -0.292969 Z M 64.9414 -17.4805 C 63.5254 -17.4805 62.6465 -18.5547 62.6465 -20.2637 L 62.6465 -25.2441 L 49.5117 -25.2441 C 47.4609 -25.2441 46.1426 -26.4648 46.1426 -28.5645 C 46.1426 -29.5898 46.3867 -30.4199 46.9727 -31.543 C 49.9512 -36.7676 55.0293 -45.2148 58.6426 -51.123 C 59.9121 -53.2227 61.2793 -54.0527 63.5254 -54.0527 C 65.7715 -54.0527 67.2852 -52.5879 67.2852 -50.4395 L 67.2852 -29.541 L 70.166 -29.541 C 71.4355 -29.541 72.3145 -28.7598 72.3145 -27.3926 C 72.3145 -26.0254 71.4355 -25.2441 70.166 -25.2441 L 67.2852 -25.2441 L 67.2852 -20.2637 C 67.2852 -18.5059 66.4551 -17.4805 64.9414 -17.4805 Z M 30.5664 -17.041 C 24.7559 -17.041 20.0684 -20.4102 19.043 -24.4629 C 18.8965 -25 18.8477 -25.4395 18.8477 -25.9277 C 18.8477 -27.2949 19.7754 -28.2715 21.0449 -28.2715 C 22.168 -28.2715 22.8027 -27.6855 23.2422 -26.416 C 24.2188 -23.3398 26.8555 -21.4355 30.5664 -21.3867 C 35.0098 -21.3867 38.0859 -24.0723 38.0859 -27.7344 C 38.0859 -31.3965 35.1562 -33.8867 30.9082 -33.8867 L 28.125 -33.8867 C 26.9043 -33.8867 26.0742 -34.8633 26.0742 -36.1328 C 26.0742 -37.4512 26.9043 -38.3301 28.125 -38.3301 L 30.6641 -38.3301 C 34.2773 -38.3301 36.9629 -40.7715 36.9629 -44.1895 C 36.9629 -47.4121 34.375 -49.6582 30.6641 -49.6582 C 27.0996 -49.6582 24.707 -47.8516 23.9258 -44.6777 C 23.5352 -43.457 22.9004 -42.8223 21.7285 -42.8223 C 20.459 -42.8223 19.5801 -43.75 19.5801 -45.1172 C 19.5801 -45.6543 19.5801 -46.0938 19.6777 -46.582 C 20.5566 -50.7812 25 -54.0527 30.7617 -54.0527 C 37.1094 -54.0527 41.6504 -50.1953 41.6504 -44.7754 C 41.6504 -40.7227 38.8672 -37.1094 35.1562 -36.4746 L 35.1562 -36.2305 C 39.5508 -35.7422 42.8711 -32.0801 42.8711 -27.5391 C 42.8711 -21.4355 37.7441 -17.041 30.5664 -17.041 Z M 62.6465 -29.541 L 62.6465 -48.877 L 62.4023 -48.877 C 59.1309 -43.4082 53.6621 -34.4727 51.1719 -29.7363 L 51.1719 -29.541 Z"/>
  </g>
  <g id="Regular-S" transform="matrix(1 0 0 1 1404.51 696)">
   <path d="M 22.2168 0.390625 L 68.457 0.390625 C 76.8066 0.390625 80.9082 -3.71094 80.9082 -11.9141 L 80.9082 -58.4961 C 80.9082 -66.6992 76.8066 -70.8008 68.457 -70.8008 L 22.2168 -70.8008 C 13.916 -70.8008 9.76562 -66.6992 9.76562 -58.4961 L 9.76562 -11.9141 C 9.76562 -3.71094 13.916 0.390625 22.2168 0.390625 Z M 65.4297 -17.627 C 63.623 -17.627 62.5488 -18.9941 62.5488 -21.2402 L 62.5488 -24.8535 L 50.7324 -24.8535 C 48.291 -24.8535 46.6797 -26.3184 46.6797 -28.9062 C 46.6797 -30.2246 46.9238 -31.2012 47.7051 -32.7148 C 50.5371 -37.9395 54.0527 -44.3848 57.666 -50.5859 C 59.1797 -53.1738 60.8398 -54.248 63.6719 -54.248 C 66.4551 -54.248 68.3594 -52.4414 68.3594 -49.707 L 68.3594 -30.1758 L 70.2148 -30.1758 C 71.8262 -30.1758 72.8516 -29.1992 72.8516 -27.4902 C 72.8516 -25.7812 71.8262 -24.8535 70.2148 -24.8535 L 68.3594 -24.8535 L 68.3594 -21.2402 C 68.3594 -18.9453 67.334 -17.627 65.4297 -17.627 Z M 30.957 -17.1387 C 25.0488 -17.1387 20.3125 -20.7031 19.3359 -24.707 C 19.1895 -25.293 19.1406 -25.7812 19.1406 -26.3672 C 19.1406 -28.0273 20.2637 -29.248 21.8262 -29.248 C 23.1934 -29.248 23.9746 -28.5156 24.5117 -27.002 C 25.6348 -24.1699 27.7344 -22.6562 31.0059 -22.6074 C 34.8145 -22.6074 37.5 -25 37.5 -28.0762 C 37.5 -31.3965 35.0586 -33.4961 31.25 -33.4961 L 28.9551 -33.4961 C 27.4902 -33.4961 26.416 -34.7168 26.416 -36.2793 C 26.416 -37.8906 27.4902 -39.0137 28.9551 -39.0137 L 31.1035 -39.0137 C 34.2285 -39.0137 36.4746 -41.0645 36.4746 -44.043 C 36.4746 -46.8262 34.2285 -48.7793 31.1523 -48.7793 C 28.0273 -48.7793 26.123 -47.3145 25.1465 -44.3848 C 24.6582 -42.9199 23.9258 -42.1387 22.5098 -42.1387 C 20.8984 -42.1387 19.8242 -43.3594 19.8242 -45.0195 C 19.8242 -45.6055 19.8242 -46.0938 19.9707 -46.6797 C 20.9473 -50.8789 25.3418 -54.248 31.2988 -54.248 C 37.7441 -54.248 42.2852 -50.3418 42.2852 -44.8242 C 42.2852 -40.8203 39.5508 -37.2559 36.084 -36.6699 L 36.084 -36.377 C 40.2832 -35.9375 43.4082 -32.3242 43.4082 -27.7832 C 43.4082 -21.582 38.2812 -17.1387 30.957 -17.1387 Z M 62.5488 -30.1758 L 62.5488 -47.8516 L 62.3047 -47.8516 C 58.7891 -41.6504 55.4199 -35.4004 52.8809 -30.3711 L 52.8809 -30.1758 Z"/>
  </g>
  <g id="Medium-S" transform="matrix(1 0 0 1 1700.63 696)">
   <path d="M 22.8516 0.976562 L 68.9941 0.976562 C 77.6367 0.976562 82.0801 -3.4668 82.0801 -11.9629 L 82.0801 -58.3984 C 82.0801 -66.9434 77.6367 -71.3867 68.9941 -71.3867 L 22.8516 -71.3867 C 14.2578 -71.3867 9.76562 -66.9434 9.76562 -58.3984 L 9.76562 -11.9629 C 9.76562 -3.4668 14.2578 0.976562 22.8516 0.976562 Z M 31.543 -17.2852 C 25.7812 -17.2852 21.1426 -20.752 20.1172 -24.6094 C 19.9219 -25.2441 19.873 -25.7812 19.873 -26.3672 C 19.873 -28.3203 21.1914 -29.541 22.8027 -29.541 C 24.2676 -29.541 25.0977 -28.8086 25.7812 -27.3438 C 26.8555 -24.8535 28.7598 -23.5352 31.5918 -23.4863 C 34.8145 -23.4863 37.1094 -25.5859 37.1094 -28.1738 C 37.1094 -31.0547 35.0098 -32.8613 31.6895 -32.8613 L 29.9316 -32.8613 C 28.125 -32.8613 26.9531 -34.2285 26.9531 -36.0352 C 26.9531 -37.8906 28.1738 -39.1113 29.9316 -39.1113 L 31.5918 -39.1113 C 34.375 -39.1113 36.2305 -41.0156 36.2305 -43.5547 C 36.2305 -45.9961 34.2773 -47.7539 31.6406 -47.7539 C 28.9062 -47.7539 27.2461 -46.4355 26.3184 -43.8477 C 25.6836 -42.4805 24.8535 -41.6992 23.3887 -41.6992 C 21.6309 -41.6992 20.459 -42.9199 20.459 -44.8242 C 20.459 -45.459 20.5078 -45.9961 20.7031 -46.6797 C 21.7285 -50.4883 25.9277 -53.8574 31.7871 -53.8574 C 38.3301 -53.8574 42.8711 -50.0488 42.8711 -44.4336 C 42.8711 -40.625 40.2344 -37.1582 36.8652 -36.6211 L 36.8652 -36.2793 C 40.918 -35.8887 43.8477 -32.3242 43.8477 -27.832 C 43.8477 -21.582 38.8672 -17.2852 31.543 -17.2852 Z M 65.7715 -17.6758 C 63.7207 -17.6758 62.5 -19.1406 62.5 -21.6797 L 62.5 -24.6582 L 51.8555 -24.6582 C 49.1211 -24.6582 47.4609 -26.3184 47.4609 -29.0527 C 47.4609 -30.6152 47.7539 -31.8359 48.5352 -33.3984 C 50.9277 -38.0859 54.0527 -44.2383 57.2266 -49.8535 C 58.8379 -52.6855 60.7422 -53.8086 63.8672 -53.8086 C 67.0898 -53.8086 69.043 -51.8555 69.043 -48.7305 L 69.043 -30.6152 L 70.5566 -30.6152 C 72.2656 -30.6152 73.3398 -29.4922 73.3398 -27.6367 C 73.3398 -25.7324 72.2656 -24.6582 70.5566 -24.6582 L 69.1406 -24.6582 L 69.1406 -21.6797 C 69.1406 -19.0918 67.8711 -17.6758 65.7715 -17.6758 Z M 62.6953 -30.5664 L 62.6953 -47.2168 L 62.4512 -47.2168 C 59.4727 -41.6992 56.3965 -35.2539 54.1992 -30.7617 L 54.1992 -30.5664 Z"/>
  </g>
  <g id="Semibold-S" transform="matrix(1 0 0 1 1996.9 696)">
   <path d="M 23.3398 1.41602 L 69.3848 1.41602 C 78.2227 1.41602 82.959 -3.32031 82.959 -12.0605 L 82.959 -58.3496 C 82.959 -67.0898 78.2227 -71.8262 69.3848 -71.8262 L 23.3398 -71.8262 C 14.5508 -71.8262 9.76562 -67.0898 9.76562 -58.3496 L 9.76562 -12.0605 C 9.76562 -3.32031 14.5508 1.41602 23.3398 1.41602 Z M 31.9336 -17.3828 C 26.3672 -17.3828 21.7285 -20.8008 20.6543 -24.5117 C 20.5078 -25.1465 20.4102 -25.7812 20.4102 -26.416 C 20.4102 -28.5156 21.9238 -29.7852 23.5352 -29.7852 C 25.0488 -29.7852 25.9766 -29.0039 26.709 -27.6367 C 27.7832 -25.3906 29.5898 -24.2188 32.0312 -24.1699 C 34.8145 -24.1699 36.7676 -26.0254 36.7676 -28.2715 C 36.7676 -30.8105 34.9609 -32.4219 32.0312 -32.4219 L 30.6641 -32.4219 C 28.5645 -32.4219 27.3926 -33.8867 27.3926 -35.8398 C 27.3926 -37.8906 28.7109 -39.209 30.6641 -39.209 L 31.9824 -39.209 C 34.4727 -39.209 36.0352 -40.9668 36.0352 -43.1641 C 36.0352 -45.4102 34.3262 -46.9238 31.9824 -46.9238 C 29.5898 -46.9238 28.125 -45.8008 27.1484 -43.457 C 26.5137 -42.0898 25.5859 -41.3086 24.0234 -41.3086 C 22.2168 -41.3086 20.9473 -42.5781 20.9473 -44.6777 C 20.9473 -45.3125 20.9961 -45.9473 21.2891 -46.6797 C 22.3145 -50.1953 26.3672 -53.5645 32.1289 -53.5645 C 38.8184 -53.5645 43.3105 -49.7559 43.3105 -44.1406 C 43.3105 -40.4785 40.7715 -37.0605 37.4512 -36.5234 L 37.4512 -36.2305 C 41.4062 -35.8398 44.1895 -32.2754 44.1895 -27.8809 C 44.1895 -21.582 39.3066 -17.3828 31.9336 -17.3828 Z M 66.0156 -17.6758 C 63.7695 -17.6758 62.4023 -19.2383 62.4023 -22.0215 L 62.4023 -24.5117 L 52.7344 -24.5117 C 49.8047 -24.5117 48.0469 -26.2695 48.0469 -29.1992 C 48.0469 -30.8594 48.4375 -32.3242 49.1699 -33.9355 C 51.2207 -38.1836 54.1016 -44.1406 56.9336 -49.2676 C 58.5449 -52.2949 60.6445 -53.4668 64.0137 -53.4668 C 67.5781 -53.4668 69.5312 -51.4648 69.5312 -47.998 L 69.5312 -30.957 L 70.8008 -30.957 C 72.6074 -30.957 73.7305 -29.7363 73.7305 -27.7344 C 73.7305 -25.7324 72.6074 -24.5605 70.8008 -24.5605 L 69.6777 -24.5605 L 69.6777 -22.0215 C 69.6777 -19.1895 68.3105 -17.6758 66.0156 -17.6758 Z M 62.7441 -30.9082 L 62.7441 -46.7285 L 62.5488 -46.7285 C 59.9609 -41.748 57.1289 -35.1562 55.2734 -31.1035 L 55.2734 -30.9082 Z"/>
  </g>
  <g id="Bold-S" transform="matrix(1 0 0 1 2293.01 696)">
   <path d="M 23.9746 2.00195 L 69.9219 2.00195 C 79.0527 2.00195 84.1797 -3.07617 84.1797 -12.1582 L 84.1797 -58.252 C 84.1797 -67.334 79.0527 -72.4121 69.9219 -72.4121 L 23.9746 -72.4121 C 14.8926 -72.4121 9.76562 -67.334 9.76562 -58.252 L 9.76562 -12.1582 C 9.76562 -3.07617 14.8926 2.00195 23.9746 2.00195 Z M 32.4707 -17.5293 C 27.1484 -17.5293 22.5586 -20.8984 21.4355 -24.4141 C 21.2402 -25.0977 21.1426 -25.7812 21.1426 -26.4648 C 21.1426 -28.7598 22.8516 -30.0781 24.5117 -30.0781 C 26.123 -30.0781 27.1484 -29.2969 27.9297 -27.9785 C 29.0527 -26.0742 30.6641 -25.0977 32.6172 -25.0488 C 34.8633 -25.0488 36.377 -26.6113 36.377 -28.418 C 36.377 -30.4688 34.8633 -31.8359 32.5195 -31.8359 L 31.6406 -31.8359 C 29.1992 -31.8359 27.9297 -33.3984 27.9297 -35.5957 C 27.9297 -37.8418 29.3945 -39.3555 31.6406 -39.3555 L 32.4707 -39.3555 C 34.5703 -39.3555 35.791 -40.918 35.791 -42.627 C 35.791 -44.5801 34.375 -45.8496 32.4707 -45.8496 C 30.5176 -45.8496 29.248 -44.9219 28.3203 -42.9688 C 27.5879 -41.6504 26.5137 -40.8691 24.9023 -40.8691 C 22.9492 -40.8691 21.582 -42.1875 21.582 -44.4336 C 21.582 -45.166 21.6797 -45.8496 22.0703 -46.7285 C 23.0957 -49.8047 27.002 -53.1738 32.6172 -53.1738 C 39.4043 -53.1738 43.8965 -49.4629 43.8965 -43.7988 C 43.8965 -40.2832 41.4551 -37.0117 38.2324 -36.4746 L 38.2324 -36.084 C 42.041 -35.791 44.6777 -32.2754 44.6777 -27.9297 C 44.6777 -21.6309 39.8438 -17.5293 32.4707 -17.5293 Z M 66.3574 -17.7246 C 63.916 -17.7246 62.3535 -19.3359 62.3535 -22.4609 L 62.3535 -24.3164 L 53.9062 -24.3164 C 50.6348 -24.3164 48.8281 -26.2207 48.8281 -29.3945 C 48.8281 -31.25 49.2676 -32.959 49.9512 -34.668 C 51.6113 -38.3301 54.1504 -44.043 56.543 -48.4863 C 58.2031 -51.7578 60.498 -52.9785 64.209 -52.9785 C 68.2129 -52.9785 70.2148 -50.8789 70.2148 -46.9727 L 70.2148 -31.4453 L 71.1426 -31.4453 C 73.0469 -31.4453 74.2188 -30.0293 74.2188 -27.8809 C 74.2188 -25.6836 73.0469 -24.4141 71.1914 -24.4141 L 70.459 -24.4141 L 70.459 -22.4609 C 70.459 -19.3359 68.8477 -17.7246 66.3574 -17.7246 Z M 62.8906 -31.3477 L 62.8906 -46.1426 L 62.6953 -46.1426 C 60.6445 -41.7969 58.1055 -35.0586 56.5918 -31.543 L 56.5918 -31.3477 Z"/>
  </g>
  <g id="Heavy-S" transform="matrix(1 0 0 1 2588.86 696)">
   <path d="M 24.9023 2.83203 L 70.7031 2.83203 C 80.2246 2.83203 85.8887 -2.7832 85.8887 -12.3047 L 85.8887 -58.1055 C 85.8887 -67.627 80.2246 -73.2422 70.7031 -73.2422 L 24.9023 -73.2422 C 15.3809 -73.2422 9.76562 -67.627 9.76562 -58.1055 L 9.76562 -12.3047 C 9.76562 -2.7832 15.3809 2.83203 24.9023 2.83203 Z M 33.3008 -17.7734 C 28.2227 -17.7734 23.7305 -20.9961 22.5586 -24.2676 C 22.3145 -25 22.168 -25.7812 22.168 -26.5625 C 22.168 -29.1504 24.2188 -30.5664 25.9277 -30.5664 C 27.6855 -30.5664 28.8574 -29.7363 29.7363 -28.5156 C 30.8105 -27.0996 32.1777 -26.3672 33.4473 -26.3672 C 34.8633 -26.3672 35.7422 -27.4414 35.7422 -28.5645 C 35.7422 -30.0293 34.7656 -30.957 33.2031 -30.957 L 33.0566 -30.957 C 30.0781 -30.957 28.7598 -32.7148 28.7598 -35.2539 C 28.7598 -37.8418 30.3711 -39.5508 33.0566 -39.5508 L 33.2031 -39.5508 C 34.7656 -39.5508 35.4492 -40.8203 35.4492 -41.8945 C 35.4492 -43.3594 34.4727 -44.3359 33.1543 -44.3359 C 31.8359 -44.3359 30.9082 -43.6523 29.9805 -42.1875 C 29.1016 -40.9668 27.8809 -40.1367 26.1719 -40.1367 C 24.0234 -40.1367 22.5098 -41.5527 22.5098 -44.1406 C 22.5098 -44.9219 22.6562 -45.7031 23.1445 -46.7285 C 24.2188 -49.2188 27.832 -52.5879 33.3008 -52.5879 C 40.2832 -52.5879 44.7266 -48.9746 44.7266 -43.2617 C 44.7266 -39.9902 42.4316 -36.8652 39.4043 -36.3281 L 39.4043 -35.9375 C 42.9688 -35.6934 45.3613 -32.2266 45.3613 -28.0273 C 45.3613 -21.6797 40.6738 -17.7734 33.3008 -17.7734 Z M 66.8457 -17.7734 C 64.0625 -17.7734 62.207 -19.4824 62.207 -23.0469 L 62.207 -24.0723 L 55.6152 -24.0723 C 51.9043 -24.0723 50 -26.1719 50 -29.6387 C 50 -31.8359 50.5371 -33.8867 51.1719 -35.6934 C 52.1973 -38.5742 54.1992 -43.8477 55.957 -47.4121 C 57.7148 -51.0254 60.3027 -52.3438 64.502 -52.3438 C 69.1406 -52.3438 71.1914 -50.0488 71.1914 -45.5566 L 71.1914 -32.1289 L 71.6309 -32.1289 C 73.6816 -32.1289 74.9512 -30.4688 74.9512 -28.0762 C 74.9512 -25.6348 73.6816 -24.2188 71.6797 -24.2188 L 71.582 -24.2188 L 71.582 -23.0469 C 71.582 -19.4824 69.6289 -17.7734 66.8457 -17.7734 Z M 63.0371 -31.9824 L 63.0371 -45.2148 L 62.8906 -45.2148 C 61.6211 -41.8457 59.5215 -34.9121 58.5938 -32.1777 L 58.5938 -31.9824 Z"/>
  </g>
  <g id="Black-S" transform="matrix(1 0 0 1 2884.82 696)">
   <path d="M 25.7324 3.61328 L 71.4355 3.61328 C 81.2988 3.61328 87.4023 -2.49023 87.4023 -12.4023 L 87.4023 -58.0078 C 87.4023 -67.9199 81.2988 -74.0234 71.4355 -74.0234 L 25.7324 -74.0234 C 15.8203 -74.0234 9.76562 -67.9199 9.76562 -58.0078 L 9.76562 -12.4023 C 9.76562 -2.49023 15.8203 3.61328 25.7324 3.61328 Z M 33.9844 -17.9688 C 29.1992 -17.9688 24.8047 -21.0449 23.584 -24.1211 C 23.291 -24.9023 23.1445 -25.7812 23.1445 -26.6113 C 23.1445 -29.4922 25.4395 -30.957 27.1973 -30.957 C 29.0527 -30.957 30.3711 -30.0781 31.3477 -28.9551 C 32.4219 -27.9785 33.5449 -27.5391 34.2285 -27.5391 C 34.9121 -27.5391 35.2051 -28.2227 35.2051 -28.7598 C 35.2051 -29.5898 34.668 -30.1758 33.7891 -30.1758 L 34.3262 -30.1758 C 30.9082 -30.1758 29.4434 -32.1289 29.4434 -34.9609 C 29.4434 -37.793 31.25 -39.7461 34.3262 -39.7461 L 33.8379 -39.7461 C 34.9121 -39.7461 35.1074 -40.7227 35.1074 -41.2598 C 35.1074 -42.2852 34.5215 -42.9688 33.7402 -42.9688 C 33.0566 -42.9688 32.4219 -42.5293 31.4453 -41.5527 C 30.4688 -40.3809 29.1016 -39.5508 27.2949 -39.5508 C 25 -39.5508 23.3887 -41.0156 23.3887 -43.8477 C 23.3887 -44.7266 23.5352 -45.6055 24.1211 -46.7285 C 25.2441 -48.6816 28.6133 -52.0508 33.8867 -52.0508 C 41.0645 -52.0508 45.5078 -48.5352 45.5078 -42.7734 C 45.5078 -39.7461 43.3105 -36.7676 40.4297 -36.2305 L 40.4297 -35.791 C 43.7988 -35.5957 45.9473 -32.1777 45.9473 -28.0762 C 45.9473 -21.7285 41.4551 -17.9688 33.9844 -17.9688 Z M 67.2852 -17.8223 C 64.209 -17.8223 62.1094 -19.6777 62.1094 -23.6328 L 62.1094 -23.8281 L 57.1289 -23.8281 C 52.9785 -23.8281 51.0254 -26.123 51.0254 -29.8828 C 51.0254 -32.3242 51.6602 -34.7168 52.1973 -36.5723 C 52.6855 -38.7695 54.248 -43.7012 55.4199 -46.4355 C 57.2754 -50.3906 60.1074 -51.7578 64.7949 -51.7578 C 69.9707 -51.7578 72.0703 -49.3164 72.0703 -44.2383 L 72.0703 -32.7148 C 74.2676 -32.7148 75.5859 -30.8594 75.5859 -28.2227 C 75.5859 -25.5859 74.2676 -24.0234 72.168 -24.0234 L 72.5586 -24.0234 L 72.5586 -23.6328 C 72.5586 -19.6777 70.3613 -17.8223 67.2852 -17.8223 Z M 63.1836 -32.5195 L 63.1836 -44.4336 L 63.0371 -44.4336 C 62.5 -41.9434 60.791 -34.7168 60.3516 -32.7148 L 60.3516 -32.5195 Z"/>
  </g>
  <g id="Ultralight-M" transform="matrix(1 0 0 1 504.535 1126)">
   <path d="M 25 7.56836 L 85.3516 7.56836 C 93.5547 7.56836 97.9004 3.125 97.9004 -4.98047 L 97.9004 -65.2832 C 97.9004 -73.3887 93.5547 -77.832 85.3516 -77.832 L 25 -77.832 C 16.7969 -77.832 12.4512 -73.4863 12.4512 -65.2832 L 12.4512 -4.98047 C 12.4512 3.22266 16.7969 7.56836 25 7.56836 Z M 81.4941 -12.0605 C 80.7617 -12.0605 80.1758 -12.6953 80.1758 -13.3789 L 80.1758 -23.6816 L 59.8145 -23.6816 C 58.2031 -23.6816 57.373 -24.4141 57.373 -25.6836 C 57.373 -26.3184 57.666 -26.9043 57.9102 -27.3438 C 62.0605 -33.9844 73.0957 -50.3418 77.7344 -56.9824 C 78.6621 -58.252 79.3457 -58.6426 80.7129 -58.6426 C 82.0312 -58.6426 82.9102 -57.9102 82.9102 -56.543 L 82.9102 -26.2695 L 89.3555 -26.2695 C 90.1367 -26.2695 90.7227 -25.6348 90.7227 -24.9512 C 90.7227 -24.2676 90.1367 -23.6816 89.3555 -23.6816 L 82.9102 -23.6816 L 82.9102 -13.3789 C 82.9102 -12.6953 82.3242 -12.0605 81.4941 -12.0605 Z M 37.793 -11.7676 C 30.7617 -11.7676 25 -15.4297 23.4375 -20.8496 C 23.2422 -21.3379 23.1445 -21.7773 23.1445 -22.2168 C 23.1445 -23.0469 23.7793 -23.6816 24.5605 -23.6816 C 25.293 -23.6816 25.7812 -23.2422 25.9766 -22.3145 C 26.9531 -17.627 31.8359 -14.2578 37.793 -14.2578 C 45.2148 -14.2578 50.293 -18.5059 50.293 -24.7559 C 50.293 -30.4199 45.1172 -34.7168 38.4277 -34.7168 L 33.5449 -34.7168 C 32.7637 -34.7168 32.2754 -35.2051 32.2754 -35.9863 C 32.2754 -36.7188 32.7637 -37.2559 33.5449 -37.2559 L 38.0371 -37.2559 C 43.9453 -37.2559 48.584 -41.5527 48.584 -46.9727 C 48.584 -52.4414 44.1895 -56.1523 37.7441 -56.1523 C 31.9824 -56.1523 27.5391 -52.7832 26.9531 -48.0469 C 26.9043 -47.2168 26.3672 -46.7285 25.5859 -46.7285 C 24.7559 -46.7285 24.2188 -47.3145 24.2188 -48.1445 C 24.2188 -48.584 24.2676 -49.0234 24.3652 -49.5117 C 25.0488 -54.8828 30.957 -58.6426 37.7441 -58.6426 C 45.6543 -58.6426 51.4648 -53.9062 51.4648 -47.2656 C 51.4648 -41.9434 47.6562 -37.2559 42.334 -36.2305 L 42.334 -35.9863 C 48.3887 -35.3516 53.125 -30.5176 53.125 -24.7559 C 53.125 -17.2363 46.7285 -11.7676 37.793 -11.7676 Z M 80.1758 -26.2695 L 80.1758 -55.5176 L 79.8828 -55.5176 C 76.416 -50.5859 63.6719 -31.7383 60.4492 -26.5137 L 60.4492 -26.2695 Z"/>
  </g>
  <g id="Thin-M" transform="matrix(1 0 0 1 800.734 1126)">
   <path d="M 25.6348 8.05664 L 85.7422 8.05664 C 94.3848 8.05664 98.9258 3.4668 98.9258 -5.0293 L 98.9258 -65.2344 C 98.9258 -73.7305 94.3848 -78.3691 85.7422 -78.3691 L 25.6348 -78.3691 C 16.9922 -78.3691 12.4512 -73.877 12.4512 -65.2344 L 12.4512 -5.0293 C 12.4512 3.56445 16.9922 8.05664 25.6348 8.05664 Z M 81.8848 -12.207 C 80.8594 -12.207 80.0781 -13.0371 80.0781 -14.1602 L 80.0781 -23.3887 L 60.7422 -23.3887 C 58.8379 -23.3887 57.7637 -24.3164 57.7637 -25.9766 C 57.7637 -26.7578 58.1055 -27.5391 58.4961 -28.2227 C 62.5 -34.8633 72.3145 -49.707 76.9531 -56.5918 C 78.0762 -58.252 79.0527 -58.7891 80.8105 -58.7891 C 82.5684 -58.7891 83.6914 -57.7637 83.6914 -56.0059 L 83.6914 -26.709 L 89.4043 -26.709 C 90.4297 -26.709 91.1133 -25.9766 91.1133 -25.0488 C 91.1133 -24.0234 90.4297 -23.3887 89.4043 -23.3887 L 83.6914 -23.3887 L 83.6914 -14.1602 C 83.6914 -12.9883 83.0078 -12.207 81.8848 -12.207 Z M 38.1348 -11.8164 C 31.0059 -11.8164 25.1465 -15.6738 23.6328 -21.0449 C 23.4863 -21.582 23.3887 -22.0215 23.3887 -22.5098 C 23.3887 -23.6328 24.1699 -24.4141 25.1953 -24.4141 C 26.123 -24.4141 26.709 -23.877 26.9531 -22.7539 C 28.0273 -18.2617 32.5195 -15.1855 38.1348 -15.1367 C 45.0684 -15.1367 49.8047 -19.1895 49.8047 -25 C 49.8047 -30.3711 45.0684 -34.4238 38.7207 -34.4238 L 34.1797 -34.4238 C 33.2031 -34.4238 32.5195 -35.1074 32.5195 -36.084 C 32.5195 -37.1094 33.2031 -37.793 34.1797 -37.793 L 38.3789 -37.793 C 43.8965 -37.793 48.1934 -41.748 48.1934 -46.875 C 48.1934 -52.002 44.0918 -55.4688 38.1348 -55.4688 C 32.666 -55.4688 28.6133 -52.3926 27.9297 -47.8516 C 27.7832 -46.7773 27.1484 -46.1914 26.1719 -46.1914 C 25.1465 -46.1914 24.4141 -46.9727 24.4141 -48.0957 C 24.4141 -48.584 24.4629 -49.0234 24.5605 -49.5605 C 25.3418 -54.9316 31.2012 -58.7891 38.1348 -58.7891 C 46.0938 -58.7891 51.9043 -54.0039 51.9043 -47.3145 C 51.9043 -41.9922 48.1934 -37.3535 43.0176 -36.4258 L 43.0176 -36.1328 C 48.9746 -35.498 53.5645 -30.7129 53.5645 -24.9512 C 53.5645 -17.334 47.1191 -11.8164 38.1348 -11.8164 Z M 80.0781 -26.709 L 80.0781 -54.7363 L 79.834 -54.7363 C 76.1719 -49.2188 64.9902 -32.4219 61.7676 -26.9531 L 61.7676 -26.709 Z"/>
  </g>
  <g id="Light-M" transform="matrix(1 0 0 1 1096.47 1126)">
   <path d="M 26.8555 9.0332 L 86.4746 9.0332 C 96.0449 9.0332 100.879 4.15039 100.879 -5.22461 L 100.879 -65.0879 C 100.879 -74.5117 96.0449 -79.3945 86.4746 -79.3945 L 26.8555 -79.3945 C 17.334 -79.3945 12.4512 -74.5605 12.4512 -65.0879 L 12.4512 -5.22461 C 12.4512 4.19922 17.334 9.0332 26.8555 9.0332 Z M 82.6172 -12.4512 C 81.0059 -12.4512 79.9805 -13.7207 79.9805 -15.625 L 79.9805 -22.7539 L 62.5488 -22.7539 C 60.1074 -22.7539 58.5938 -24.1211 58.5938 -26.5137 C 58.5938 -27.6855 58.8867 -28.6621 59.5703 -29.9316 C 63.3789 -36.5723 70.8008 -48.4375 75.4395 -55.8105 C 76.9043 -58.2031 78.418 -59.1309 81.0059 -59.1309 C 83.5449 -59.1309 85.3027 -57.5195 85.3027 -54.9805 L 85.3027 -27.6367 L 89.502 -27.6367 C 90.9668 -27.6367 91.9922 -26.709 91.9922 -25.1465 C 91.9922 -23.6328 90.9668 -22.7539 89.502 -22.7539 L 85.3027 -22.7539 L 85.3027 -15.625 C 85.3027 -13.6719 84.3262 -12.4512 82.6172 -12.4512 Z M 38.7695 -11.9629 C 31.4453 -11.9629 25.4883 -16.1133 24.1211 -21.3867 C 23.9258 -22.0215 23.877 -22.5586 23.877 -23.1445 C 23.877 -24.707 24.9512 -25.8301 26.3672 -25.8301 C 27.6855 -25.8301 28.4668 -25.1465 28.9062 -23.6328 C 30.127 -19.5312 33.7891 -16.9434 38.8184 -16.9434 C 44.7754 -16.9434 48.9258 -20.5078 48.9258 -25.4883 C 48.9258 -30.3711 44.9219 -33.7891 39.209 -33.7891 L 35.4492 -33.7891 C 34.0332 -33.7891 33.0566 -34.8633 33.0566 -36.2793 C 33.0566 -37.793 34.0332 -38.8184 35.4492 -38.8184 L 38.9648 -38.8184 C 43.7988 -38.8184 47.4609 -42.1875 47.4609 -46.7285 C 47.4609 -51.123 43.9453 -54.1504 38.8672 -54.1504 C 34.082 -54.1504 30.7129 -51.6113 29.834 -47.4121 C 29.4434 -45.9961 28.6621 -45.2637 27.3438 -45.2637 C 25.8301 -45.2637 24.8047 -46.3379 24.8047 -47.9492 C 24.8047 -48.5352 24.8535 -49.0723 25 -49.707 C 25.9766 -55.0781 31.7383 -59.1309 38.9648 -59.1309 C 47.0215 -59.1309 52.832 -54.248 52.832 -47.3633 C 52.832 -42.1387 49.2188 -37.5488 44.3848 -36.7188 L 44.3848 -36.377 C 50.0488 -35.791 54.3945 -31.0547 54.3945 -25.293 C 54.3945 -17.5293 47.9004 -11.9629 38.7695 -11.9629 Z M 79.9805 -27.6367 L 79.9805 -53.1738 L 79.6875 -53.1738 C 75.6836 -46.6309 67.5781 -33.7891 64.3555 -27.8809 L 64.3555 -27.6367 Z"/>
  </g>
  <g id="Regular-M" transform="matrix(1 0 0 1 1392.42 1126)">
   <path d="M 27.7832 9.76562 L 87.0605 9.76562 C 97.2656 9.76562 102.344 4.6875 102.344 -5.37109 L 102.344 -64.9902 C 102.344 -75.0488 97.2656 -80.127 87.0605 -80.127 L 27.7832 -80.127 C 17.627 -80.127 12.4512 -75.0977 12.4512 -64.9902 L 12.4512 -5.37109 C 12.4512 4.73633 17.627 9.76562 27.7832 9.76562 Z M 83.2031 -12.6465 C 81.1035 -12.6465 79.8828 -14.209 79.8828 -16.6992 L 79.8828 -22.2656 L 63.916 -22.2656 C 61.0352 -22.2656 59.2285 -23.9746 59.2285 -26.9043 C 59.2285 -28.418 59.5215 -29.541 60.4004 -31.2012 C 64.0625 -37.8906 69.6777 -47.5098 74.2676 -55.1758 C 76.0742 -58.1543 77.9785 -59.375 81.1523 -59.375 C 84.3262 -59.375 86.5234 -57.2754 86.5234 -54.1992 L 86.5234 -28.3203 L 89.5508 -28.3203 C 91.4062 -28.3203 92.5781 -27.2461 92.5781 -25.293 C 92.5781 -23.3398 91.4062 -22.2656 89.5508 -22.2656 L 86.5234 -22.2656 L 86.5234 -16.6992 C 86.5234 -14.1602 85.3027 -12.6465 83.2031 -12.6465 Z M 39.2578 -12.0605 C 31.7871 -12.0605 25.7812 -16.4551 24.4629 -21.6309 C 24.2676 -22.3145 24.2188 -22.9004 24.2188 -23.584 C 24.2188 -25.5371 25.5371 -26.9043 27.2949 -26.9043 C 28.8574 -26.9043 29.7852 -26.0742 30.3711 -24.3164 C 31.7383 -20.5078 34.7656 -18.3105 39.3066 -18.2617 C 44.5312 -18.2617 48.291 -21.5332 48.291 -25.8789 C 48.291 -30.3711 44.8242 -33.3008 39.6484 -33.3008 L 36.377 -33.3008 C 34.668 -33.3008 33.4473 -34.668 33.4473 -36.4258 C 33.4473 -38.3301 34.668 -39.5508 36.377 -39.5508 L 39.4043 -39.5508 C 43.75 -39.5508 46.875 -42.4805 46.875 -46.582 C 46.875 -50.4395 43.7988 -53.125 39.4043 -53.125 C 35.1074 -53.125 32.3242 -51.0254 31.25 -47.1191 C 30.7129 -45.4102 29.834 -44.5312 28.2227 -44.5312 C 26.3672 -44.5312 25.1465 -45.8984 25.1465 -47.8027 C 25.1465 -48.4863 25.1465 -49.0723 25.293 -49.7559 C 26.4648 -55.127 32.0801 -59.375 39.5508 -59.375 C 47.7539 -59.375 53.5156 -54.4434 53.5156 -47.4121 C 53.5156 -42.2852 50 -37.6953 45.4102 -36.9629 L 45.4102 -36.5723 C 50.9277 -36.0352 55.0293 -31.3477 55.0293 -25.5859 C 55.0293 -17.6758 48.4863 -12.0605 39.2578 -12.0605 Z M 79.8828 -28.3203 L 79.8828 -52.0508 L 79.5898 -52.0508 C 75.293 -44.6777 69.5312 -34.8145 66.3086 -28.5645 L 66.3086 -28.3203 Z"/>
  </g>
  <g id="Medium-M" transform="matrix(1 0 0 1 1688.45 1126)">
   <path d="M 28.5645 10.4492 L 87.6465 10.4492 C 98.2422 10.4492 103.711 4.98047 103.711 -5.46875 L 103.711 -64.8926 C 103.711 -75.3418 98.2422 -80.8105 87.6465 -80.8105 L 28.5645 -80.8105 C 17.9688 -80.8105 12.4512 -75.3906 12.4512 -64.8926 L 12.4512 -5.46875 C 12.4512 4.98047 17.9688 10.4492 28.5645 10.4492 Z M 39.8438 -12.207 C 32.5684 -12.207 26.6113 -16.5527 25.293 -21.582 C 25.0488 -22.3145 25 -22.9492 25 -23.6816 C 25 -25.9277 26.5137 -27.3438 28.418 -27.3438 C 30.0781 -27.3438 31.1035 -26.4648 31.8359 -24.7559 C 33.1543 -21.3379 35.9863 -19.3848 39.9414 -19.3359 C 44.5312 -19.3359 47.8027 -22.2656 47.8027 -26.0254 C 47.8027 -30.0293 44.7266 -32.6172 40.1367 -32.6172 L 37.5 -32.6172 C 35.4004 -32.6172 34.082 -34.1797 34.082 -36.2305 C 34.082 -38.3789 35.4492 -39.7949 37.5 -39.7949 L 39.9414 -39.7949 C 43.8477 -39.7949 46.582 -42.4805 46.582 -46.0449 C 46.582 -49.5117 43.8477 -51.9531 39.9902 -51.9531 C 36.1816 -51.9531 33.6914 -50.0488 32.5684 -46.5332 C 31.9336 -44.873 30.9082 -43.9453 29.1992 -43.9453 C 27.1973 -43.9453 25.8301 -45.4102 25.8301 -47.6074 C 25.8301 -48.3398 25.8789 -48.9746 26.123 -49.8047 C 27.2949 -54.7363 32.7637 -58.9844 40.1367 -58.9844 C 48.4375 -58.9844 54.1992 -54.1016 54.1992 -47.0703 C 54.1992 -42.0898 50.7812 -37.6465 46.3379 -36.8652 L 46.3379 -36.5234 C 51.6602 -35.9863 55.5664 -31.3477 55.5664 -25.6348 C 55.5664 -17.7246 49.1699 -12.207 39.8438 -12.207 Z M 83.5938 -12.6953 C 81.25 -12.6953 79.834 -14.4043 79.834 -17.2852 L 79.834 -22.0215 L 65.2344 -22.0215 C 62.0117 -22.0215 60.0586 -23.9258 60.0586 -27.1484 C 60.0586 -28.8574 60.4492 -30.3223 61.3281 -32.0801 C 64.5508 -38.1836 69.5801 -47.2656 73.7305 -54.3457 C 75.5859 -57.6172 77.7832 -58.9355 81.3965 -58.9355 C 85.0586 -58.9355 87.3535 -56.6895 87.3535 -53.125 L 87.3535 -28.9062 L 89.9414 -28.9062 C 91.8945 -28.9062 93.1641 -27.5879 93.1641 -25.4395 C 93.1641 -23.291 91.8945 -22.0215 89.9414 -22.0215 L 87.4512 -22.0215 L 87.4512 -17.2852 C 87.4512 -14.3555 85.9863 -12.6953 83.5938 -12.6953 Z M 80.0293 -28.8574 L 80.0293 -51.2695 L 79.7363 -51.2695 C 75.9277 -44.4824 70.752 -34.8145 67.8711 -29.1016 L 67.8711 -28.8574 Z"/>
  </g>
  <g id="Semibold-M" transform="matrix(1 0 0 1 1984.65 1126)">
   <path d="M 29.1016 10.9863 L 88.1348 10.9863 C 98.9746 10.9863 104.785 5.17578 104.785 -5.56641 L 104.785 -64.8438 C 104.785 -75.5859 98.9746 -81.3477 88.1348 -81.3477 L 29.1016 -81.3477 C 18.3105 -81.3477 12.4512 -75.5859 12.4512 -64.8438 L 12.4512 -5.56641 C 12.4512 5.22461 18.3105 10.9863 29.1016 10.9863 Z M 40.332 -12.3535 C 33.2031 -12.3535 27.2949 -16.6504 25.9277 -21.5332 C 25.6836 -22.2656 25.5859 -22.998 25.5859 -23.7793 C 25.5859 -26.1719 27.2949 -27.6855 29.248 -27.6855 C 31.0547 -27.6855 32.1289 -26.8066 32.9102 -25.0977 C 34.2773 -21.9727 36.9141 -20.2148 40.4297 -20.166 C 44.5312 -20.166 47.4121 -22.8027 47.4121 -26.1719 C 47.4121 -29.7363 44.6777 -32.0801 40.5273 -32.0801 L 38.3301 -32.0801 C 35.9375 -32.0801 34.5215 -33.7891 34.5215 -36.084 C 34.5215 -38.3789 36.0352 -39.9414 38.3301 -39.9414 L 40.3809 -39.9414 C 43.9453 -39.9414 46.3379 -42.4316 46.3379 -45.6543 C 46.3379 -48.8281 43.8477 -51.0254 40.3809 -51.0254 C 36.9629 -51.0254 34.7168 -49.3164 33.5938 -46.0938 C 32.8613 -44.4824 31.7871 -43.5059 29.9316 -43.5059 C 27.7832 -43.5059 26.3184 -45.0195 26.3184 -47.4121 C 26.3184 -48.1934 26.416 -48.9258 26.709 -49.8047 C 27.9785 -54.4434 33.252 -58.6914 40.5273 -58.6914 C 48.9746 -58.6914 54.7363 -53.8574 54.7363 -46.7773 C 54.7363 -41.9434 51.416 -37.5488 47.0215 -36.8164 L 47.0215 -36.4258 C 52.2461 -35.9375 55.957 -31.3477 55.957 -25.7324 C 55.957 -17.7734 49.6582 -12.3535 40.332 -12.3535 Z M 83.8867 -12.7441 C 81.3477 -12.7441 79.7363 -14.5508 79.7363 -17.7246 L 79.7363 -21.8262 L 66.2598 -21.8262 C 62.793 -21.8262 60.7422 -23.877 60.7422 -27.2949 C 60.7422 -29.248 61.1816 -30.8594 62.0605 -32.7637 C 64.9414 -38.4277 69.4824 -47.0703 73.3398 -53.7109 C 75.2441 -57.2266 77.6367 -58.5938 81.543 -58.5938 C 85.6445 -58.5938 87.9883 -56.25 87.9883 -52.2949 L 87.9883 -29.2969 L 90.1855 -29.2969 C 92.2852 -29.2969 93.6035 -27.8809 93.6035 -25.5371 C 93.6035 -23.2422 92.2852 -21.875 90.2344 -21.875 L 88.1348 -21.875 L 88.1348 -17.7246 C 88.1348 -14.502 86.5234 -12.7441 83.8867 -12.7441 Z M 80.0781 -29.248 L 80.0781 -50.6836 L 79.834 -50.6836 C 76.416 -44.3359 71.6797 -34.8145 69.1406 -29.4922 L 69.1406 -29.248 Z"/>
  </g>
  <g id="Bold-M" transform="matrix(1 0 0 1 2280.65 1126)">
   <path d="M 29.8828 11.6699 L 88.7207 11.6699 C 100 11.6699 106.152 5.46875 106.152 -5.66406 L 106.152 -64.6973 C 106.152 -75.8789 100 -82.0312 88.7207 -82.0312 L 29.8828 -82.0312 C 18.6523 -82.0312 12.4512 -75.8789 12.4512 -64.6973 L 12.4512 -5.66406 C 12.4512 5.51758 18.6523 11.6699 29.8828 11.6699 Z M 40.9668 -12.5 C 33.9844 -12.5 28.125 -16.748 26.7578 -21.4355 C 26.4648 -22.2656 26.3672 -23.0469 26.3672 -23.877 C 26.3672 -26.5625 28.3203 -28.125 30.3711 -28.125 C 32.2754 -28.125 33.4473 -27.1973 34.375 -25.5371 C 35.7422 -22.8027 38.0859 -21.2891 41.1133 -21.2402 C 44.5312 -21.2402 46.875 -23.5352 46.875 -26.3184 C 46.875 -29.3945 44.5801 -31.4453 41.0645 -31.4453 L 39.4531 -31.4453 C 36.6211 -31.4453 35.1562 -33.3008 35.1562 -35.8398 C 35.1562 -38.4277 36.8164 -40.1855 39.4531 -40.1855 L 40.9668 -40.1855 C 44.0918 -40.1855 46.0449 -42.4316 46.0449 -45.1172 C 46.0449 -47.9004 43.8965 -49.8535 40.918 -49.8535 C 38.0371 -49.8535 36.084 -48.3887 34.9121 -45.5566 C 34.082 -43.8965 32.8613 -42.9199 30.9082 -42.9199 C 28.6133 -42.9199 27.0508 -44.5312 27.0508 -47.168 C 27.0508 -48.0469 27.1484 -48.8281 27.5391 -49.8535 C 28.8086 -54.0527 33.9355 -58.3008 41.1133 -58.3008 C 49.6582 -58.3008 55.4199 -53.5645 55.4199 -46.3867 C 55.4199 -41.7969 52.1973 -37.5 47.9492 -36.7676 L 47.9492 -36.377 C 52.9785 -35.9375 56.543 -31.3965 56.543 -25.8301 C 56.543 -17.8223 50.293 -12.5 40.9668 -12.5 Z M 84.3262 -12.793 C 81.4453 -12.793 79.6387 -14.6973 79.6387 -18.3105 L 79.6387 -21.582 L 67.627 -21.582 C 63.7695 -21.582 61.6211 -23.8281 61.6211 -27.5391 C 61.6211 -29.6875 62.1094 -31.6406 62.9883 -33.6426 C 65.4297 -38.7207 69.3848 -46.8262 72.7539 -52.8809 C 74.8047 -56.6895 77.4414 -58.1543 81.7871 -58.1543 C 86.377 -58.1543 88.8184 -55.6641 88.8184 -51.1719 L 88.8184 -29.8828 L 90.5762 -29.8828 C 92.7734 -29.8828 94.1895 -28.2227 94.1895 -25.6836 C 94.1895 -23.1445 92.7734 -21.6797 90.5762 -21.6797 L 89.0625 -21.6797 L 89.0625 -18.3105 C 89.0625 -14.6973 87.207 -12.793 84.3262 -12.793 Z M 80.1758 -29.7852 L 80.1758 -49.9023 L 79.9316 -49.9023 C 77.0508 -44.1406 72.9004 -34.8145 70.752 -30.0293 L 70.752 -29.7852 Z"/>
  </g>
  <g id="Heavy-M" transform="matrix(1 0 0 1 2576.36 1126)">
   <path d="M 31.0059 12.6465 L 89.6484 12.6465 C 101.416 12.6465 108.154 5.9082 108.154 -5.81055 L 108.154 -64.5508 C 108.154 -76.2695 101.416 -83.0566 89.6484 -83.0566 L 31.0059 -83.0566 C 19.2383 -83.0566 12.4512 -76.3184 12.4512 -64.5508 L 12.4512 -5.81055 C 12.4512 5.9082 19.2383 12.6465 31.0059 12.6465 Z M 41.8457 -12.7441 C 35.2051 -12.7441 29.3945 -16.9434 27.9297 -21.3379 C 27.6367 -22.2168 27.4902 -23.0957 27.4902 -24.0234 C 27.4902 -27.0996 29.834 -28.8086 31.9824 -28.8086 C 34.082 -28.8086 35.4004 -27.7832 36.4746 -26.1719 C 37.8418 -23.9746 39.8438 -22.8027 42.041 -22.8027 C 44.5312 -22.8027 46.1426 -24.5605 46.1426 -26.5625 C 46.1426 -28.9062 44.4824 -30.4688 41.8457 -30.4688 L 41.0645 -30.4688 C 37.6953 -30.4688 36.0352 -32.5684 36.0352 -35.498 C 36.0352 -38.5254 37.9883 -40.5273 41.0645 -40.5273 L 41.7969 -40.5273 C 44.2383 -40.5273 45.5566 -42.3828 45.5566 -44.2871 C 45.5566 -46.582 43.9453 -48.0957 41.748 -48.0957 C 39.5508 -48.0957 38.0859 -46.9727 36.8652 -44.7266 C 35.8887 -43.1152 34.4727 -42.0898 32.373 -42.0898 C 29.834 -42.0898 28.0273 -43.7988 28.0273 -46.8262 C 28.0273 -47.8027 28.1738 -48.6816 28.7109 -49.8535 C 30.0293 -53.4668 34.8633 -57.7637 41.8945 -57.7637 C 50.6836 -57.7637 56.3965 -53.0762 56.3965 -45.8496 C 56.3965 -41.5039 53.3691 -37.4023 49.3164 -36.7188 L 49.3164 -36.2305 C 54.0527 -35.8398 57.3242 -31.3965 57.3242 -25.9277 C 57.3242 -17.8711 51.2695 -12.7441 41.8457 -12.7441 Z M 84.9121 -12.8906 C 81.6406 -12.8906 79.4922 -14.9902 79.4922 -19.1406 L 79.4922 -21.2402 L 69.5801 -21.2402 C 65.1855 -21.2402 62.8906 -23.7305 62.8906 -27.8809 C 62.8906 -30.3711 63.5254 -32.7637 64.3555 -34.9121 C 66.1133 -39.1602 69.2383 -46.4844 71.9727 -51.6602 C 74.1699 -55.957 77.1484 -57.5195 82.1289 -57.5195 C 87.5 -57.5195 89.9902 -54.7852 89.9902 -49.5605 L 89.9902 -30.6641 L 91.0645 -30.6641 C 93.5059 -30.6641 95.0195 -28.7598 95.0195 -25.9277 C 95.0195 -23.0469 93.5059 -21.3867 91.1133 -21.3867 L 90.3809 -21.3867 L 90.3809 -19.1406 C 90.3809 -14.9414 88.1836 -12.8906 84.9121 -12.8906 Z M 80.3223 -30.5176 L 80.3223 -48.7793 L 80.127 -48.7793 C 77.9785 -43.8477 74.707 -34.8145 73.0957 -30.7617 L 73.0957 -30.5176 Z"/>
  </g>
  <g id="Black-M" transform="matrix(1 0 0 1 2872.19 1126)">
   <path d="M 31.9824 13.5742 L 90.4297 13.5742 C 102.686 13.5742 109.961 6.29883 109.961 -5.95703 L 109.961 -64.4043 C 109.961 -76.6602 102.686 -83.9355 90.4297 -83.9355 L 31.9824 -83.9355 C 19.7266 -83.9355 12.4512 -76.6602 12.4512 -64.4043 L 12.4512 -5.95703 C 12.4512 6.29883 19.7266 13.5742 31.9824 13.5742 Z M 42.627 -12.9883 C 36.2305 -12.9883 30.5176 -17.0898 29.0039 -21.2402 C 28.7109 -22.168 28.5156 -23.1445 28.5156 -24.1699 C 28.5156 -27.5879 31.1523 -29.3945 33.3984 -29.3945 C 35.6445 -29.3945 37.1582 -28.3203 38.3789 -26.7578 C 39.7461 -25.0488 41.4062 -24.2188 42.8711 -24.2188 C 44.4824 -24.2188 45.5078 -25.4883 45.5078 -26.8066 C 45.5078 -28.4668 44.3848 -29.5898 42.4805 -29.5898 L 42.5293 -29.5898 C 38.5742 -29.5898 36.8652 -31.8848 36.8652 -35.2051 C 36.8652 -38.5742 38.9648 -40.8203 42.5293 -40.8203 C 44.3848 -40.8203 45.166 -42.334 45.166 -43.6035 C 45.166 -45.3613 43.9941 -46.5332 42.4316 -46.5332 C 40.918 -46.5332 39.8438 -45.752 38.623 -43.9941 C 37.4512 -42.4316 35.8887 -41.3574 33.6426 -41.3574 C 30.9082 -41.3574 28.9551 -43.1641 28.9551 -46.5332 C 28.9551 -47.5586 29.1504 -48.584 29.7852 -49.9023 C 31.1523 -52.9785 35.7422 -57.2754 42.627 -57.2754 C 51.6113 -57.2754 57.2754 -52.6855 57.2754 -45.3613 C 57.2754 -41.2598 54.3945 -37.3047 50.5371 -36.6211 L 50.5371 -36.1328 C 55.0293 -35.791 58.0078 -31.3965 58.0078 -26.0254 C 58.0078 -17.9199 52.0996 -12.9883 42.627 -12.9883 Z M 85.4492 -12.9395 C 81.7871 -12.9395 79.3945 -15.1855 79.3945 -19.873 L 79.3945 -20.8984 L 71.3379 -20.8984 C 66.5039 -20.8984 64.0625 -23.6816 64.0625 -28.1738 C 64.0625 -31.0059 64.7461 -33.7402 65.5273 -36.0352 C 66.748 -39.5996 69.1406 -46.1426 71.2402 -50.5371 C 73.584 -55.2734 76.9043 -56.9336 82.4219 -56.9336 C 88.4766 -56.9336 91.0645 -54.0039 91.0645 -48.0957 L 91.0645 -31.3965 L 91.5527 -31.3965 C 94.1895 -31.3965 95.8008 -29.248 95.8008 -26.123 C 95.8008 -22.998 94.1895 -21.0938 91.6016 -21.0938 L 91.6016 -19.873 C 91.6016 -15.1855 89.0625 -12.9395 85.4492 -12.9395 Z M 80.4688 -31.2012 L 80.4688 -47.7539 L 80.2734 -47.7539 C 78.8086 -43.6035 76.2695 -34.8145 75.1953 -31.4453 L 75.1953 -31.2012 Z"/>
  </g>
  <g id="Ultralight-L" transform="matrix(1 0 0 1 488.739 1556)">
   <path d="M 31.9824 19.7754 L 109.961 19.7754 C 120.361 19.7754 125.879 14.0625 125.879 3.85742 L 125.879 -74.0723 C 125.879 -84.2773 120.361 -89.9902 109.961 -89.9902 L 31.9824 -89.9902 C 21.6309 -89.9902 16.0645 -84.4727 16.0645 -74.0723 L 16.0645 3.85742 C 16.0645 14.2578 21.6309 19.7754 31.9824 19.7754 Z M 104.98 -5.27344 C 104.199 -5.27344 103.467 -5.95703 103.467 -6.73828 L 103.467 -20.5078 L 76.8066 -20.5078 C 74.8535 -20.5078 73.8281 -21.3379 73.8281 -22.8027 C 73.8281 -23.5352 74.2676 -24.2676 74.5117 -24.6582 C 79.834 -33.252 94.6777 -54.9805 100.635 -63.4766 C 101.709 -64.9414 102.539 -65.332 104.102 -65.332 C 105.615 -65.332 106.592 -64.5508 106.592 -62.9883 L 106.592 -23.4375 L 115.283 -23.4375 C 116.211 -23.4375 116.846 -22.7051 116.846 -21.9727 C 116.846 -21.1426 116.211 -20.5078 115.283 -20.5078 L 106.592 -20.5078 L 106.592 -6.73828 C 106.592 -5.95703 105.957 -5.27344 104.98 -5.27344 Z M 48.6328 -4.93164 C 39.5996 -4.93164 32.1289 -9.57031 30.127 -16.6016 C 29.8828 -17.2363 29.7852 -17.7734 29.7852 -18.3105 C 29.7852 -19.2871 30.5176 -20.0195 31.4453 -20.0195 C 32.2754 -20.0195 32.9102 -19.4824 33.0566 -18.3594 C 34.3262 -12.2559 40.8203 -7.76367 48.6328 -7.76367 C 58.3984 -7.76367 65.0391 -13.3301 65.0391 -21.6309 C 65.0391 -29.0039 58.252 -34.7168 49.4629 -34.7168 L 43.0176 -34.7168 C 42.041 -34.7168 41.5039 -35.2539 41.5039 -36.1816 C 41.5039 -37.0117 42.041 -37.6465 43.0176 -37.6465 L 48.9746 -37.6465 C 56.7383 -37.6465 62.8418 -43.2617 62.8418 -50.4395 C 62.8418 -57.6172 57.0801 -62.5 48.5352 -62.5 C 40.9668 -62.5 35.0586 -58.1055 34.375 -51.8555 C 34.375 -50.8301 33.6914 -50.2441 32.7148 -50.2441 C 31.8359 -50.2441 31.1523 -50.9766 31.1523 -51.9531 C 31.1523 -52.4902 31.25 -53.0273 31.3477 -53.6621 C 32.1777 -60.5957 39.8438 -65.332 48.5352 -65.332 C 58.6914 -65.332 66.1621 -59.2285 66.1621 -50.7812 C 66.1621 -43.8477 61.2305 -37.793 54.2969 -36.4746 L 54.2969 -36.1816 C 62.1582 -35.3516 68.3594 -29.0527 68.3594 -21.6797 C 68.3594 -11.9629 60.1074 -4.93164 48.6328 -4.93164 Z M 103.467 -23.4375 L 103.467 -61.7676 L 103.125 -61.7676 C 98.7305 -55.6152 81.543 -30.3711 77.4414 -23.7793 L 77.4414 -23.4375 Z"/>
  </g>
  <g id="Thin-L" transform="matrix(1 0 0 1 784.889 1556)">
   <path d="M 32.7148 20.3613 L 110.4 20.3613 C 121.289 20.3613 127.002 14.4531 127.002 3.75977 L 127.002 -73.9746 C 127.002 -84.7168 121.289 -90.5762 110.4 -90.5762 L 32.7148 -90.5762 C 21.8262 -90.5762 16.0645 -84.8633 16.0645 -73.9746 L 16.0645 3.75977 C 16.0645 14.6484 21.8262 20.3613 32.7148 20.3613 Z M 105.42 -5.41992 C 104.248 -5.41992 103.369 -6.34766 103.369 -7.56836 L 103.369 -20.1172 L 77.832 -20.1172 C 75.5859 -20.1172 74.3164 -21.2402 74.3164 -23.1445 C 74.3164 -24.0234 74.707 -24.9023 75.0977 -25.6348 C 80.3711 -34.2285 93.7988 -54.2969 99.7559 -63.0371 C 101.074 -64.9414 102.197 -65.5273 104.199 -65.5273 C 106.201 -65.5273 107.52 -64.4043 107.52 -62.4023 L 107.52 -23.9746 L 115.332 -23.9746 C 116.553 -23.9746 117.334 -23.0957 117.334 -22.0215 C 117.334 -20.8984 116.553 -20.1172 115.332 -20.1172 L 107.52 -20.1172 L 107.52 -7.56836 C 107.52 -6.34766 106.689 -5.41992 105.42 -5.41992 Z M 49.0234 -4.98047 C 39.8438 -4.98047 32.373 -9.81445 30.3711 -16.7969 C 30.127 -17.4805 30.0293 -18.0664 30.0293 -18.6523 C 30.0293 -19.9219 30.957 -20.8008 32.1289 -20.8008 C 33.2031 -20.8008 33.8867 -20.2148 34.1797 -18.8965 C 35.5469 -12.9883 41.5527 -8.78906 49.0234 -8.78906 C 58.2031 -8.78906 64.5508 -14.1113 64.5508 -21.9238 C 64.5508 -29.0039 58.2031 -34.375 49.7559 -34.375 L 43.7012 -34.375 C 42.5293 -34.375 41.7969 -35.1074 41.7969 -36.2793 C 41.7969 -37.4023 42.5293 -38.2324 43.7012 -38.2324 L 49.3164 -38.2324 C 56.6895 -38.2324 62.4512 -43.5059 62.4512 -50.3418 C 62.4512 -57.1289 56.9824 -61.7188 48.9746 -61.7188 C 41.748 -61.7188 36.2305 -57.6172 35.4492 -51.6113 C 35.3027 -50.3906 34.5703 -49.707 33.3984 -49.707 C 32.2266 -49.707 31.3965 -50.5859 31.3965 -51.8555 C 31.3965 -52.4902 31.4941 -53.0273 31.543 -53.7109 C 32.5195 -60.6445 40.1367 -65.5273 48.9746 -65.5273 C 59.2285 -65.5273 66.6992 -59.375 66.6992 -50.8301 C 66.6992 -43.8965 61.8164 -37.8906 55.0781 -36.6699 L 55.0781 -36.3281 C 62.793 -35.498 68.8477 -29.248 68.8477 -21.875 C 68.8477 -12.1094 60.5469 -4.98047 49.0234 -4.98047 Z M 103.369 -23.9746 L 103.369 -60.8887 L 103.076 -60.8887 C 98.4375 -54.1016 83.0566 -31.1523 78.9062 -24.2676 L 78.9062 -23.9746 Z"/>
  </g>
  <g id="Light-L" transform="matrix(1 0 0 1 1080.5 1556)">
   <path d="M 34.082 21.4355 L 111.23 21.4355 C 123.096 21.4355 129.199 15.2344 129.199 3.56445 L 129.199 -73.8281 C 129.199 -85.5469 123.096 -91.6992 111.23 -91.6992 L 34.082 -91.6992 C 22.2168 -91.6992 16.0645 -85.6445 16.0645 -73.8281 L 16.0645 3.56445 C 16.0645 15.3809 22.2168 21.4355 34.082 21.4355 Z M 106.25 -5.71289 C 104.443 -5.71289 103.271 -7.12891 103.271 -9.17969 L 103.271 -19.4336 L 79.834 -19.4336 C 76.9531 -19.4336 75.1953 -20.9961 75.1953 -23.7305 C 75.1953 -25.0488 75.6348 -26.2207 76.3184 -27.5391 C 81.3477 -36.1328 92.1387 -52.8809 98.0469 -62.1582 C 99.8047 -64.8926 101.514 -65.8691 104.443 -65.8691 C 107.324 -65.8691 109.277 -64.1113 109.277 -61.2305 L 109.277 -25 L 115.43 -25 C 117.139 -25 118.262 -23.877 118.262 -22.168 C 118.262 -20.459 117.139 -19.4336 115.43 -19.4336 L 109.277 -19.4336 L 109.277 -9.17969 C 109.277 -7.08008 108.154 -5.71289 106.25 -5.71289 Z M 49.707 -5.12695 C 40.332 -5.12695 32.7637 -10.3516 30.9082 -17.1875 C 30.6641 -17.9688 30.5664 -18.6035 30.5664 -19.3359 C 30.5664 -21.1426 31.7871 -22.4121 33.4473 -22.4121 C 34.9609 -22.4121 35.8398 -21.582 36.377 -19.873 C 37.8906 -14.4043 43.0176 -10.791 49.7559 -10.7422 C 57.9102 -10.7422 63.5742 -15.625 63.5742 -22.4609 C 63.5742 -28.9551 58.0566 -33.6426 50.3418 -33.6426 L 45.1172 -33.6426 C 43.5059 -33.6426 42.3828 -34.8633 42.3828 -36.5234 C 42.3828 -38.1836 43.5059 -39.3555 45.1172 -39.3555 L 49.9512 -39.3555 C 56.5918 -39.3555 61.5723 -43.9941 61.5723 -50.1465 C 61.5723 -56.1523 56.7871 -60.2539 49.8047 -60.2539 C 43.2617 -60.2539 38.623 -56.7383 37.5488 -51.1719 C 37.1582 -49.5117 36.2793 -48.6328 34.668 -48.6328 C 33.0078 -48.6328 31.8359 -49.9023 31.8359 -51.709 C 31.8359 -52.4414 31.8848 -53.0762 32.0312 -53.8574 C 33.2031 -60.7422 40.6738 -65.8691 49.9023 -65.8691 C 60.2539 -65.8691 67.7246 -59.668 67.7246 -50.8789 C 67.7246 -44.0918 62.9883 -38.1348 56.5918 -37.0117 L 56.5918 -36.6211 C 64.0625 -35.8398 69.7754 -29.6875 69.7754 -22.2656 C 69.7754 -12.3047 61.4258 -5.12695 49.707 -5.12695 Z M 103.271 -25 L 103.271 -59.1797 L 102.93 -59.1797 C 97.9004 -51.2207 85.9375 -32.666 81.7871 -25.293 L 81.7871 -25 Z"/>
  </g>
  <g id="Regular-L" transform="matrix(1 0 0 1 1376.36 1556)">
   <path d="M 35.1074 22.2168 L 111.865 22.2168 C 124.512 22.2168 130.859 15.8691 130.859 3.41797 L 130.859 -73.7305 C 130.859 -86.1816 124.512 -92.5293 111.865 -92.5293 L 35.1074 -92.5293 C 22.5098 -92.5293 16.0645 -86.2305 16.0645 -73.7305 L 16.0645 3.41797 C 16.0645 15.918 22.5098 22.2168 35.1074 22.2168 Z M 106.885 -5.95703 C 104.59 -5.95703 103.174 -7.66602 103.174 -10.4492 L 103.174 -18.8965 L 81.3477 -18.8965 C 78.0273 -18.8965 75.8789 -20.8496 75.8789 -24.1699 C 75.8789 -25.8301 76.3184 -27.1973 77.2461 -29.0039 C 82.1289 -37.5977 90.8203 -51.8555 96.7773 -61.4746 C 98.8281 -64.8438 100.977 -66.1621 104.59 -66.1621 C 108.203 -66.1621 110.645 -63.8672 110.645 -60.3516 L 110.645 -25.7812 L 115.527 -25.7812 C 117.627 -25.7812 118.945 -24.4629 118.945 -22.3145 C 118.945 -20.166 117.627 -18.8965 115.527 -18.8965 L 110.645 -18.8965 L 110.645 -10.4492 C 110.645 -7.61719 109.277 -5.95703 106.885 -5.95703 Z M 50.2441 -5.22461 C 40.7227 -5.22461 33.0566 -10.7422 31.2988 -17.4805 C 31.0547 -18.3105 30.957 -19.043 30.957 -19.8242 C 30.957 -22.0703 32.4707 -23.584 34.4727 -23.584 C 36.2793 -23.584 37.3047 -22.6562 37.9883 -20.6055 C 39.6484 -15.4785 44.0918 -12.3047 50.293 -12.2559 C 57.666 -12.2559 62.8418 -16.748 62.8418 -22.8516 C 62.8418 -28.9551 57.9102 -33.1055 50.7812 -33.1055 L 46.1426 -33.1055 C 44.2383 -33.1055 42.8223 -34.668 42.8223 -36.6699 C 42.8223 -38.7695 44.2383 -40.1855 46.1426 -40.1855 L 50.4883 -40.1855 C 56.4941 -40.1855 60.9863 -44.3359 60.9863 -50 C 60.9863 -55.4199 56.6406 -59.1797 50.3906 -59.1797 C 44.4336 -59.1797 40.4297 -56.1035 39.1602 -50.8301 C 38.5742 -48.8281 37.5488 -47.8027 35.6934 -47.8027 C 33.5938 -47.8027 32.1777 -49.3652 32.1777 -51.5625 C 32.1777 -52.3926 32.2266 -53.0762 32.373 -53.9551 C 33.7402 -60.8398 41.1133 -66.1621 50.5859 -66.1621 C 61.0352 -66.1621 68.5059 -59.8633 68.5059 -50.9277 C 68.5059 -44.2383 63.916 -38.2812 57.7637 -37.2559 L 57.7637 -36.8164 C 64.9902 -36.084 70.459 -29.9805 70.459 -22.5586 C 70.459 -12.4512 62.1094 -5.22461 50.2441 -5.22461 Z M 103.174 -25.7812 L 103.174 -57.8613 L 102.783 -57.8613 C 97.4609 -49.0234 88.0859 -33.8379 83.9355 -26.0742 L 83.9355 -25.7812 Z"/>
  </g>
  <g id="Medium-L" transform="matrix(1 0 0 1 1672.31 1556)">
   <path d="M 35.9863 22.998 L 112.549 22.998 C 125.635 22.998 132.422 16.2109 132.422 3.27148 L 132.422 -73.6328 C 132.422 -86.5234 125.635 -93.3105 112.549 -93.3105 L 35.9863 -93.3105 C 22.9004 -93.3105 16.0645 -86.5723 16.0645 -73.6328 L 16.0645 3.27148 C 16.0645 16.2598 22.9004 22.998 35.9863 22.998 Z M 50.9277 -5.41992 C 41.5039 -5.41992 33.8867 -10.8887 32.0801 -17.4805 C 31.8359 -18.3594 31.7383 -19.1406 31.7383 -20.0195 C 31.7383 -22.5586 33.4961 -24.2188 35.6934 -24.2188 C 37.6465 -24.2188 38.8184 -23.1934 39.5996 -21.1426 C 41.3086 -16.4062 45.3613 -13.5254 50.9766 -13.5254 C 57.6172 -13.5254 62.2559 -17.5781 62.2559 -23.0957 C 62.2559 -28.6133 57.8125 -32.4219 51.3672 -32.4219 L 47.3633 -32.4219 C 45.0195 -32.4219 43.5059 -34.1309 43.5059 -36.5234 C 43.5059 -38.916 45.0684 -40.5762 47.3633 -40.5762 L 51.0742 -40.5762 C 56.5918 -40.5762 60.5469 -44.3848 60.5469 -49.4629 C 60.5469 -54.4434 56.6406 -57.8613 51.0254 -57.8613 C 45.6055 -57.8613 41.9922 -55.0781 40.6738 -50.2441 C 39.9414 -48.2422 38.7695 -47.168 36.7676 -47.168 C 34.4238 -47.168 32.8613 -48.8281 32.8613 -51.3184 C 32.8613 -52.2461 32.9102 -53.0273 33.2031 -53.9551 C 34.6191 -60.498 41.7969 -65.8691 51.1719 -65.8691 C 61.8164 -65.8691 69.2383 -59.6191 69.2383 -50.5859 C 69.2383 -44.0918 64.7461 -38.2324 58.7891 -37.2559 L 58.7891 -36.7676 C 65.8691 -36.084 71.0938 -30.0781 71.0938 -22.7051 C 71.0938 -12.5488 62.793 -5.41992 50.9277 -5.41992 Z M 107.373 -6.05469 C 104.688 -6.05469 103.076 -7.95898 103.076 -11.1816 L 103.076 -18.5547 L 82.8125 -18.5547 C 79.1016 -18.5547 76.8066 -20.752 76.8066 -24.4629 C 76.8066 -26.416 77.2949 -28.0762 78.2715 -30.0293 C 82.7148 -38.1348 90.5273 -51.416 96.0449 -60.5957 C 98.2422 -64.3555 100.732 -65.8203 104.834 -65.8203 C 109.033 -65.8203 111.621 -63.2812 111.621 -59.2285 L 111.621 -26.416 L 115.869 -26.416 C 118.164 -26.416 119.629 -24.9023 119.629 -22.4609 C 119.629 -20.0195 118.164 -18.6035 115.869 -18.6035 L 111.719 -18.6035 L 111.719 -11.1816 C 111.719 -7.91016 110.107 -6.05469 107.373 -6.05469 Z M 103.271 -26.3672 L 103.271 -56.9336 L 102.881 -56.9336 C 97.9492 -48.4375 89.5996 -34.0332 85.791 -26.709 L 85.791 -26.3672 Z"/>
  </g>
  <g id="Semibold-L" transform="matrix(1 0 0 1 1968.41 1556)">
   <path d="M 36.6699 23.584 L 113.037 23.584 C 126.514 23.584 133.594 16.5039 133.594 3.17383 L 133.594 -73.5352 C 133.594 -86.8164 126.514 -93.9453 113.037 -93.9453 L 36.6699 -93.9453 C 23.2422 -93.9453 16.0645 -86.8652 16.0645 -73.5352 L 16.0645 3.17383 C 16.0645 16.5527 23.2422 23.584 36.6699 23.584 Z M 51.416 -5.56641 C 42.1387 -5.56641 34.5215 -11.0352 32.7148 -17.4316 C 32.4707 -18.4082 32.3242 -19.2383 32.3242 -20.166 C 32.3242 -22.9492 34.2773 -24.707 36.5723 -24.707 C 38.6719 -24.707 39.9414 -23.6328 40.8691 -21.5332 C 42.5293 -17.1387 46.3379 -14.502 51.5137 -14.4531 C 57.5684 -14.4531 61.8164 -18.2617 61.8164 -23.2422 C 61.8164 -28.418 57.7637 -31.8848 51.8066 -31.8848 L 48.291 -31.8848 C 45.6055 -31.8848 43.9941 -33.7891 43.9941 -36.377 C 43.9941 -39.0625 45.7031 -40.8203 48.291 -40.8203 L 51.5137 -40.8203 C 56.6406 -40.8203 60.2539 -44.3848 60.2539 -49.0723 C 60.2539 -53.7109 56.6406 -56.8848 51.5137 -56.8848 C 46.5332 -56.8848 43.1641 -54.3457 41.7969 -49.8047 C 41.0156 -47.7539 39.7461 -46.6309 37.5488 -46.6309 C 35.1074 -46.6309 33.3984 -48.3887 33.3984 -51.1719 C 33.3984 -52.0996 33.4473 -52.9297 33.7891 -54.0039 C 35.3027 -60.2539 42.2852 -65.625 51.6602 -65.625 C 62.4023 -65.625 69.8242 -59.4238 69.8242 -50.3418 C 69.8242 -43.9941 65.4297 -38.2324 59.6191 -37.2559 L 59.6191 -36.7676 C 66.5039 -36.084 71.582 -30.127 71.582 -22.8027 C 71.582 -12.5977 63.3789 -5.56641 51.416 -5.56641 Z M 107.715 -6.10352 C 104.785 -6.10352 102.979 -8.1543 102.979 -11.7676 L 102.979 -18.3105 L 83.9844 -18.3105 C 79.9316 -18.3105 77.5391 -20.7031 77.5391 -24.6582 C 77.5391 -26.8555 78.0273 -28.7109 79.0527 -30.8594 C 83.1543 -38.5742 90.2832 -51.123 95.5078 -59.9121 C 97.8027 -64.0137 100.488 -65.5762 105.029 -65.5762 C 109.668 -65.5762 112.402 -62.8418 112.402 -58.3008 L 112.402 -26.9043 L 116.113 -26.9043 C 118.555 -26.9043 120.117 -25.2441 120.117 -22.5586 C 120.117 -19.9219 118.555 -18.3594 116.113 -18.3594 L 112.549 -18.3594 L 112.549 -11.7676 C 112.549 -8.10547 110.742 -6.10352 107.715 -6.10352 Z M 103.32 -26.8555 L 103.32 -56.2012 L 102.979 -56.2012 C 98.3398 -47.998 90.7715 -34.1797 87.2559 -27.1484 L 87.2559 -26.8555 Z"/>
  </g>
  <g id="Bold-L" transform="matrix(1 0 0 1 2264.34 1556)">
   <path d="M 37.5488 24.3652 L 113.721 24.3652 C 127.686 24.3652 135.205 16.8945 135.205 3.07617 L 135.205 -73.3887 C 135.205 -87.207 127.686 -94.7266 113.721 -94.7266 L 37.5488 -94.7266 C 23.6328 -94.7266 16.0645 -87.2559 16.0645 -73.3887 L 16.0645 3.07617 C 16.0645 16.8945 23.6328 24.3652 37.5488 24.3652 Z M 52.0508 -5.71289 C 42.9688 -5.71289 35.3516 -11.1816 33.5449 -17.4316 C 33.252 -18.4082 33.1055 -19.3848 33.1055 -20.3613 C 33.1055 -23.4375 35.3516 -25.3418 37.793 -25.3418 C 40.0391 -25.3418 41.4551 -24.2188 42.4805 -22.1191 C 44.1895 -18.0664 47.6562 -15.7715 52.2461 -15.7227 C 57.5195 -15.7227 61.1816 -19.0918 61.1816 -23.4863 C 61.1816 -28.0762 57.666 -31.1523 52.3438 -31.1523 L 49.5117 -31.1523 C 46.3867 -31.1523 44.6289 -33.3008 44.6289 -36.1816 C 44.6289 -39.209 46.5332 -41.2109 49.5117 -41.2109 L 52.1484 -41.2109 C 56.7383 -41.2109 59.8633 -44.4336 59.8633 -48.5352 C 59.8633 -52.7344 56.6406 -55.5664 52.0996 -55.5664 C 47.7051 -55.5664 44.7754 -53.3203 43.3105 -49.2188 C 42.3828 -47.168 40.9668 -45.9473 38.6719 -45.9473 C 35.9375 -45.9473 34.082 -47.8516 34.082 -50.9277 C 34.082 -51.9531 34.1797 -52.8809 34.6191 -54.0527 C 36.1816 -59.9121 42.9688 -65.332 52.2949 -65.332 C 63.1836 -65.332 70.6055 -59.1309 70.6055 -50 C 70.6055 -43.8477 66.3086 -38.1836 60.6445 -37.2559 L 60.6445 -36.7188 C 67.3828 -36.084 72.2168 -30.1758 72.2168 -22.9004 C 72.2168 -12.6953 64.0625 -5.71289 52.0508 -5.71289 Z M 108.203 -6.20117 C 104.932 -6.20117 102.881 -8.44727 102.881 -12.5 L 102.881 -17.9688 L 85.498 -17.9688 C 81.0059 -17.9688 78.4668 -20.6055 78.4668 -24.9512 C 78.4668 -27.4414 79.0527 -29.5898 80.0781 -31.9336 C 83.7402 -39.1113 89.9414 -50.6836 94.7754 -59.0332 C 97.2168 -63.4766 100.244 -65.1855 105.273 -65.1855 C 110.498 -65.1855 113.428 -62.2559 113.428 -57.1289 L 113.428 -27.5391 L 116.455 -27.5391 C 119.092 -27.5391 120.801 -25.6836 120.801 -22.7539 C 120.801 -19.8242 119.092 -18.0664 116.504 -18.0664 L 113.623 -18.0664 L 113.623 -12.5 C 113.623 -8.39844 111.572 -6.20117 108.203 -6.20117 Z M 103.369 -27.4902 L 103.369 -55.2734 L 103.076 -55.2734 C 98.877 -47.4121 92.2852 -34.4238 89.1113 -27.7832 L 89.1113 -27.4902 Z"/>
  </g>
  <g id="Heavy-L" transform="matrix(1 0 0 1 2559.91 1556)">
   <path d="M 38.8184 25.4883 L 114.697 25.4883 C 129.346 25.4883 137.451 17.4316 137.451 2.88086 L 137.451 -73.2422 C 137.451 -87.793 129.346 -95.8496 114.697 -95.8496 L 38.8184 -95.8496 C 24.2188 -95.8496 16.0645 -87.793 16.0645 -73.2422 L 16.0645 2.88086 C 16.0645 17.4316 24.2188 25.4883 38.8184 25.4883 Z M 53.0273 -5.95703 C 44.1406 -5.95703 36.5723 -11.4746 34.7656 -17.4316 C 34.4238 -18.5059 34.2773 -19.5312 34.2773 -20.6543 C 34.2773 -24.1699 36.9141 -26.2695 39.5508 -26.2695 C 42.041 -26.2695 43.6523 -25 44.873 -22.9004 C 46.582 -19.4824 49.5605 -17.5781 53.2227 -17.5781 C 57.4219 -17.5781 60.3516 -20.3613 60.3516 -23.8281 C 60.3516 -27.6367 57.5195 -30.127 53.1738 -30.127 L 51.2695 -30.127 C 47.5098 -30.127 45.5566 -32.5684 45.5566 -35.9375 C 45.5566 -39.4043 47.8027 -41.748 51.2695 -41.748 L 53.0273 -41.748 C 56.8848 -41.748 59.2773 -44.5312 59.2773 -47.8027 C 59.2773 -51.2695 56.6406 -53.6621 53.0273 -53.6621 C 49.4141 -53.6621 47.0215 -51.9043 45.5078 -48.3398 C 44.3848 -46.2402 42.7734 -44.9707 40.2344 -44.9707 C 37.207 -44.9707 35.1074 -47.0703 35.1074 -50.5371 C 35.1074 -51.709 35.2539 -52.7344 35.791 -54.1016 C 37.4512 -59.4238 43.9941 -64.9414 53.2227 -64.9414 C 64.3555 -64.9414 71.7285 -58.7891 71.7285 -49.5605 C 71.7285 -43.6035 67.627 -38.1348 62.207 -37.207 L 62.207 -36.6699 C 68.6035 -36.1328 73.0957 -30.2734 73.0957 -23.0957 C 73.0957 -12.793 65.1367 -5.95703 53.0273 -5.95703 Z M 108.936 -6.29883 C 105.127 -6.29883 102.734 -8.83789 102.734 -13.5742 L 102.734 -17.5293 L 87.6953 -17.5293 C 82.6172 -17.5293 79.7852 -20.5078 79.7852 -25.3906 C 79.7852 -28.2715 80.4688 -30.8594 81.5918 -33.4473 C 84.5703 -39.8926 89.4531 -50.0977 93.7012 -57.7148 C 96.3379 -62.793 99.8535 -64.6973 105.615 -64.6973 C 111.719 -64.6973 114.893 -61.377 114.893 -55.4199 L 114.893 -28.5156 L 116.943 -28.5156 C 119.873 -28.5156 121.729 -26.3184 121.729 -22.998 C 121.729 -19.6289 119.873 -17.6758 116.992 -17.6758 L 115.234 -17.6758 L 115.234 -13.5742 C 115.234 -8.78906 112.744 -6.29883 108.936 -6.29883 Z M 103.516 -28.3691 L 103.516 -53.9062 L 103.174 -53.9062 C 99.6094 -46.582 94.5312 -34.7168 91.8457 -28.7109 L 91.8457 -28.3691 Z"/>
  </g>
  <g id="Black-L" transform="matrix(1 0 0 1 2855.62 1556)">
   <path d="M 39.9902 26.5137 L 115.576 26.5137 C 130.859 26.5137 139.502 17.8711 139.502 2.68555 L 139.502 -73.0957 C 139.502 -88.2812 130.859 -96.875 115.576 -96.875 L 39.9902 -96.875 C 24.7559 -96.875 16.0645 -88.2812 16.0645 -73.0957 L 16.0645 2.68555 C 16.0645 17.8711 24.7559 26.5137 39.9902 26.5137 Z M 53.9062 -6.20117 C 45.2148 -6.20117 37.6953 -11.6699 35.8398 -17.3828 C 35.498 -18.5547 35.3027 -19.6777 35.3027 -20.8984 C 35.3027 -24.8535 38.2812 -27.0996 41.1133 -27.0996 C 43.8477 -27.0996 45.6055 -25.7324 46.9727 -23.584 C 48.7793 -20.7031 51.2207 -19.2383 54.1504 -19.1895 C 57.373 -19.1895 59.5703 -21.4844 59.5703 -24.1211 C 59.5703 -27.2461 57.373 -29.1992 53.9062 -29.1992 L 52.832 -29.1992 C 48.5352 -29.1992 46.3867 -31.9336 46.3867 -35.7422 C 46.3867 -39.5996 48.877 -42.1875 52.832 -42.1875 L 53.8086 -42.1875 C 57.0312 -42.1875 58.7402 -44.5801 58.7402 -47.1191 C 58.7402 -50 56.6895 -52.002 53.8086 -52.002 C 50.9766 -52.002 49.0723 -50.5859 47.4609 -47.6074 C 46.1914 -45.459 44.3848 -44.0918 41.6504 -44.0918 C 38.3301 -44.0918 35.9863 -46.3379 35.9863 -50.2441 C 35.9863 -51.5137 36.1816 -52.6367 36.8164 -54.1504 C 38.5742 -58.9355 44.873 -64.5508 54.0527 -64.5508 C 65.3809 -64.5508 72.7051 -58.4473 72.7051 -49.1211 C 72.7051 -43.457 68.75 -38.0859 63.5742 -37.207 L 63.5742 -36.6211 C 69.7266 -36.1328 73.9258 -30.3711 73.9258 -23.291 C 73.9258 -12.8906 66.0645 -6.20117 53.9062 -6.20117 Z M 109.57 -6.44531 C 105.322 -6.44531 102.588 -9.17969 102.588 -14.5508 L 102.588 -17.0898 L 89.6484 -17.0898 C 84.0332 -17.0898 81.0059 -20.3613 81.0059 -25.7812 C 81.0059 -29.0039 81.7871 -31.9824 82.9102 -34.8633 C 85.3027 -40.5762 89.0625 -49.5605 92.7246 -56.543 C 95.6055 -62.1582 99.4629 -64.2578 105.908 -64.2578 C 112.842 -64.2578 116.162 -60.6445 116.162 -53.9062 L 116.162 -29.3457 L 117.383 -29.3457 C 120.605 -29.3457 122.607 -26.9043 122.607 -23.1934 C 122.607 -19.4824 120.605 -17.2852 117.432 -17.2852 L 116.65 -17.2852 L 116.65 -14.5508 C 116.65 -9.13086 113.818 -6.44531 109.57 -6.44531 Z M 103.613 -29.1504 L 103.613 -52.6367 L 103.32 -52.6367 C 100.244 -45.8496 96.4844 -35.0098 94.2871 -29.4922 L 94.2871 -29.1504 Z"/>
  </g>
 </g>
</svg>
