<?xml version="1.0" encoding="UTF-8"?>
<!--Generator: Apple Native CoreSVG 123-->
<!DOCTYPE svg
PUBLIC "-//W3C//DTD SVG 1.1//EN"
       "http://www.w3.org/Graphics/SVG/1.1/DTD/svg11.dtd">
<svg version="1.1" xmlns="http://www.w3.org/2000/svg" xmlns:xlink="http://www.w3.org/1999/xlink" width="3300" height="2200">
 <!--glyph: "uni10069D.medium", point size: 100.000000, font version: "Version 15.0d4e20", template writer version: "2"-->
 <g id="Notes">
  <rect height="2200" id="artboard" style="fill:white;opacity:1" width="3300" x="0" y="0"/>
  <line id="" style="fill:none;stroke:black;opacity:1;stroke-width:0.5;" x1="263" x2="3036" y1="292" y2="292"/>
  <text style="stroke:none;fill:black;font-family:-apple-system,&quot;SF Pro Display&quot;,&quot;SF Pro Text&quot;,Helvetica,sans-serif;font-weight:bold;" transform="matrix(1 0 0 1 263 322)">Weight/Scale Variations</text>
  <text style="stroke:none;fill:black;font-family:-apple-system,&quot;SF Pro Display&quot;,&quot;SF Pro Text&quot;,Helvetica,sans-serif;text-anchor:middle;" transform="matrix(1 0 0 1 559.711 322)">Ultralight</text>
  <text style="stroke:none;fill:black;font-family:-apple-system,&quot;SF Pro Display&quot;,&quot;SF Pro Text&quot;,Helvetica,sans-serif;text-anchor:middle;" transform="matrix(1 0 0 1 856.422 322)">Thin</text>
  <text style="stroke:none;fill:black;font-family:-apple-system,&quot;SF Pro Display&quot;,&quot;SF Pro Text&quot;,Helvetica,sans-serif;text-anchor:middle;" transform="matrix(1 0 0 1 1153.13 322)">Light</text>
  <text style="stroke:none;fill:black;font-family:-apple-system,&quot;SF Pro Display&quot;,&quot;SF Pro Text&quot;,Helvetica,sans-serif;text-anchor:middle;" transform="matrix(1 0 0 1 1449.84 322)">Regular</text>
  <text style="stroke:none;fill:black;font-family:-apple-system,&quot;SF Pro Display&quot;,&quot;SF Pro Text&quot;,Helvetica,sans-serif;text-anchor:middle;" transform="matrix(1 0 0 1 1746.56 322)">Medium</text>
  <text style="stroke:none;fill:black;font-family:-apple-system,&quot;SF Pro Display&quot;,&quot;SF Pro Text&quot;,Helvetica,sans-serif;text-anchor:middle;" transform="matrix(1 0 0 1 2043.27 322)">Semibold</text>
  <text style="stroke:none;fill:black;font-family:-apple-system,&quot;SF Pro Display&quot;,&quot;SF Pro Text&quot;,Helvetica,sans-serif;text-anchor:middle;" transform="matrix(1 0 0 1 2339.98 322)">Bold</text>
  <text style="stroke:none;fill:black;font-family:-apple-system,&quot;SF Pro Display&quot;,&quot;SF Pro Text&quot;,Helvetica,sans-serif;text-anchor:middle;" transform="matrix(1 0 0 1 2636.69 322)">Heavy</text>
  <text style="stroke:none;fill:black;font-family:-apple-system,&quot;SF Pro Display&quot;,&quot;SF Pro Text&quot;,Helvetica,sans-serif;text-anchor:middle;" transform="matrix(1 0 0 1 2933.4 322)">Black</text>
  <line id="" style="fill:none;stroke:black;opacity:1;stroke-width:0.5;" x1="263" x2="3036" y1="1903" y2="1903"/>
  <g id="" transform="matrix(1 0 0 1 263 1933)">
   <path d="M 9.24805 0.830078 C 13.5547 0.830078 17.1387 -2.74414 17.1387 -7.05078 C 17.1387 -11.3574 13.5449 -14.9316 9.23828 -14.9316 C 4.94141 -14.9316 1.36719 -11.3574 1.36719 -7.05078 C 1.36719 -2.74414 4.95117 0.830078 9.24805 0.830078 Z M 9.24805 -0.654297 C 5.70312 -0.654297 2.87109 -3.49609 2.87109 -7.05078 C 2.87109 -10.6055 5.69336 -13.4473 9.23828 -13.4473 C 12.793 -13.4473 15.6348 -10.6055 15.6445 -7.05078 C 15.6543 -3.49609 12.8027 -0.654297 9.24805 -0.654297 Z M 9.22852 -3.42773 C 9.69727 -3.42773 9.9707 -3.74023 9.9707 -4.25781 L 9.9707 -6.31836 L 12.1973 -6.31836 C 12.6953 -6.31836 13.0371 -6.57227 13.0371 -7.04102 C 13.0371 -7.51953 12.7148 -7.7832 12.1973 -7.7832 L 9.9707 -7.7832 L 9.9707 -10.0098 C 9.9707 -10.5273 9.69727 -10.8496 9.22852 -10.8496 C 8.75977 -10.8496 8.50586 -10.5078 8.50586 -10.0098 L 8.50586 -7.7832 L 6.29883 -7.7832 C 5.78125 -7.7832 5.44922 -7.51953 5.44922 -7.04102 C 5.44922 -6.57227 5.80078 -6.31836 6.29883 -6.31836 L 8.50586 -6.31836 L 8.50586 -4.25781 C 8.50586 -3.75977 8.75977 -3.42773 9.22852 -3.42773 Z"/>
  </g>
  <g id="" transform="matrix(1 0 0 1 281.506 1933)">
   <path d="M 11.709 2.91016 C 17.1484 2.91016 21.6699 -1.60156 21.6699 -7.05078 C 21.6699 -12.4902 17.1387 -17.0117 11.6992 -17.0117 C 6.25 -17.0117 1.74805 -12.4902 1.74805 -7.05078 C 1.74805 -1.60156 6.25977 2.91016 11.709 2.91016 Z M 11.709 1.25 C 7.09961 1.25 3.41797 -2.44141 3.41797 -7.05078 C 3.41797 -11.6504 7.08984 -15.3516 11.6992 -15.3516 C 16.2988 -15.3516 20 -11.6504 20.0098 -7.05078 C 20.0195 -2.44141 16.3086 1.25 11.709 1.25 Z M 11.6797 -2.41211 C 12.207 -2.41211 12.5195 -2.77344 12.5195 -3.33984 L 12.5195 -6.23047 L 15.5762 -6.23047 C 16.123 -6.23047 16.5039 -6.51367 16.5039 -7.03125 C 16.5039 -7.55859 16.1426 -7.86133 15.5762 -7.86133 L 12.5195 -7.86133 L 12.5195 -10.9277 C 12.5195 -11.5039 12.207 -11.8555 11.6797 -11.8555 C 11.1621 -11.8555 10.8789 -11.4844 10.8789 -10.9277 L 10.8789 -7.86133 L 7.83203 -7.86133 C 7.25586 -7.86133 6.89453 -7.55859 6.89453 -7.03125 C 6.89453 -6.51367 7.28516 -6.23047 7.83203 -6.23047 L 10.8789 -6.23047 L 10.8789 -3.33984 C 10.8789 -2.79297 11.1621 -2.41211 11.6797 -2.41211 Z"/>
  </g>
  <g id="" transform="matrix(1 0 0 1 304.914 1933)">
   <path d="M 14.9707 5.67383 C 21.9336 5.67383 27.6855 -0.078125 27.6855 -7.04102 C 27.6855 -14.0039 21.9238 -19.7559 14.9609 -19.7559 C 7.99805 -19.7559 2.25586 -14.0039 2.25586 -7.04102 C 2.25586 -0.078125 8.00781 5.67383 14.9707 5.67383 Z M 14.9707 3.85742 C 8.92578 3.85742 4.08203 -1.00586 4.08203 -7.04102 C 4.08203 -13.0762 8.91602 -17.9395 14.9609 -17.9395 C 20.9961 -17.9395 25.8594 -13.0762 25.8691 -7.04102 C 25.8789 -1.00586 21.0059 3.85742 14.9707 3.85742 Z M 14.9414 -1.06445 C 15.5176 -1.06445 15.8594 -1.45508 15.8594 -2.06055 L 15.8594 -6.13281 L 20.0977 -6.13281 C 20.6934 -6.13281 21.1133 -6.46484 21.1133 -7.02148 C 21.1133 -7.59766 20.7227 -7.93945 20.0977 -7.93945 L 15.8594 -7.93945 L 15.8594 -12.1875 C 15.8594 -12.8027 15.5176 -13.1934 14.9414 -13.1934 C 14.3848 -13.1934 14.0625 -12.7832 14.0625 -12.1875 L 14.0625 -7.93945 L 9.82422 -7.93945 C 9.20898 -7.93945 8.80859 -7.59766 8.80859 -7.02148 C 8.80859 -6.46484 9.23828 -6.13281 9.82422 -6.13281 L 14.0625 -6.13281 L 14.0625 -2.06055 C 14.0625 -1.47461 14.3848 -1.06445 14.9414 -1.06445 Z"/>
  </g>
  <text style="stroke:none;fill:black;font-family:-apple-system,&quot;SF Pro Display&quot;,&quot;SF Pro Text&quot;,Helvetica,sans-serif;font-weight:bold;" transform="matrix(1 0 0 1 263 1953)">Design Variations</text>
  <text style="stroke:none;fill:black;font-family:-apple-system,&quot;SF Pro Display&quot;,&quot;SF Pro Text&quot;,Helvetica,sans-serif;" transform="matrix(1 0 0 1 263 1971)">Symbols are supported in up to nine weights and three scales.</text>
  <text style="stroke:none;fill:black;font-family:-apple-system,&quot;SF Pro Display&quot;,&quot;SF Pro Text&quot;,Helvetica,sans-serif;" transform="matrix(1 0 0 1 263 1989)">For optimal layout with text and other symbols, vertically align</text>
  <text style="stroke:none;fill:black;font-family:-apple-system,&quot;SF Pro Display&quot;,&quot;SF Pro Text&quot;,Helvetica,sans-serif;" transform="matrix(1 0 0 1 263 2007)">symbols with the adjacent text.</text>
  <rect height="14" id="" style="fill:#00AEEF;stroke:none;opacity:0.4;" width="3" x="776" y="1919"/>
  <g id="" transform="matrix(1 0 0 1 779 1933)">
   <path d="M 10.5273 0 L 12.373 0 L 7.17773 -14.0918 L 5.43945 -14.0918 L 0.244141 0 L 2.08984 0 L 3.50586 -4.0332 L 9.11133 -4.0332 Z M 6.2793 -11.9531 L 6.33789 -11.9531 L 8.59375 -5.52734 L 4.02344 -5.52734 Z"/>
  </g>
  <rect height="14" id="" style="fill:#00AEEF;stroke:none;opacity:0.4;" width="3" x="791.617" y="1919"/>
  <text style="stroke:none;fill:black;font-family:-apple-system,&quot;SF Pro Display&quot;,&quot;SF Pro Text&quot;,Helvetica,sans-serif;font-weight:bold;" transform="matrix(1 0 0 1 776 1953)">Side Bearings</text>
  <text style="stroke:none;fill:black;font-family:-apple-system,&quot;SF Pro Display&quot;,&quot;SF Pro Text&quot;,Helvetica,sans-serif;" transform="matrix(1 0 0 1 776 1971)">Horizontal padding on the left and right side of each symbol</text>
  <text style="stroke:none;fill:black;font-family:-apple-system,&quot;SF Pro Display&quot;,&quot;SF Pro Text&quot;,Helvetica,sans-serif;" transform="matrix(1 0 0 1 776 1989)">can be adjusted by modifying the width of the blue rectangles.</text>
  <text style="stroke:none;fill:black;font-family:-apple-system,&quot;SF Pro Display&quot;,&quot;SF Pro Text&quot;,Helvetica,sans-serif;" transform="matrix(1 0 0 1 776 2007)">Modifications are automatically applied proportionally to all</text>
  <text style="stroke:none;fill:black;font-family:-apple-system,&quot;SF Pro Display&quot;,&quot;SF Pro Text&quot;,Helvetica,sans-serif;" transform="matrix(1 0 0 1 776 2025)">scales and weights.</text>
  <g id="" transform="matrix(1 0 0 1 1289 1933)">
   <path d="M 2.96875 2.35352 L 3.80859 3.19336 C 4.84375 4.22852 6.12305 4.15039 7.19727 2.97852 L 16.1621 -6.82617 C 16.5527 -6.74805 16.9629 -6.8457 17.4902 -7.02148 C 18.1738 -7.25586 18.2715 -7.25586 18.3887 -7.13867 C 18.5352 -7.01172 18.4863 -6.89453 18.2422 -6.25 C 17.8809 -5.33203 17.8125 -4.79492 18.5547 -4.02344 L 19.4238 -3.13477 C 20.2734 -2.24609 21.3281 -2.26562 22.2168 -3.14453 L 25.0586 -5.97656 C 25.9473 -6.86523 25.957 -7.92969 25.0781 -8.7793 L 24.1797 -9.64844 C 23.4082 -10.4004 22.8711 -10.3516 21.9629 -9.98047 C 21.3184 -9.72656 21.2012 -9.6875 21.0645 -9.81445 C 20.9375 -9.93164 20.9473 -10.0391 21.1816 -10.7129 C 21.5332 -11.6895 21.5723 -12.2852 20.752 -13.0957 L 19.3359 -14.5117 C 15.1953 -18.6133 11.2305 -18.7402 7.65625 -15.4395 C 7.08008 -14.9023 6.99219 -14.1504 7.53906 -13.6133 L 7.79297 -13.3594 C 8.22266 -12.9297 8.86719 -12.8418 9.41406 -13.1152 C 11.0645 -13.9453 12.2559 -14.0234 13.457 -12.9785 L 13.0273 -11.416 C 12.8516 -10.8008 12.793 -10.3418 12.9199 -9.93164 L 3.18359 -1.04492 C 2.02148 0.0292969 1.93359 1.32812 2.96875 2.35352 Z M 8.96484 -14.4922 C 8.89648 -14.5703 8.86719 -14.6582 8.99414 -14.7559 C 11.709 -17.2852 15.0391 -16.8457 18.3496 -13.5254 L 19.6973 -12.168 C 20.0879 -11.7773 20.0977 -11.582 19.8828 -10.8691 C 19.6582 -10.127 19.502 -9.53125 20.1465 -8.88672 C 20.8105 -8.22266 21.2891 -8.41797 22.207 -8.63281 C 22.9004 -8.79883 23.0664 -8.79883 23.4473 -8.41797 L 24.0918 -7.77344 C 24.4043 -7.48047 24.4141 -7.32422 24.0723 -6.97266 L 21.2207 -4.13086 C 20.8887 -3.79883 20.7227 -3.79883 20.4297 -4.10156 L 19.7852 -4.75586 C 19.4141 -5.13672 19.4141 -5.30273 19.5801 -6.01562 C 19.7852 -6.88477 19.9805 -7.38281 19.3262 -8.04688 C 18.6719 -8.7207 18.0762 -8.57422 17.3438 -8.33008 C 16.5625 -8.06641 16.3281 -8.06641 15.8984 -8.49609 L 14.6094 -9.78516 C 14.1699 -10.2246 14.1309 -10.4395 14.2676 -10.9082 L 15.0293 -13.3984 C 13.3887 -15.2832 11.4941 -15.5566 9.20898 -14.4434 C 9.11133 -14.3945 9.04297 -14.4141 8.96484 -14.4922 Z M 3.96484 1.36719 C 3.52539 0.927734 3.54492 0.537109 4.14062 -0.00976562 L 13.7402 -8.81836 L 15 -7.55859 L 6.17188 2.02148 C 5.625 2.60742 5.24414 2.64648 4.79492 2.19727 Z"/>
  </g>
  <text style="stroke:none;fill:black;font-family:-apple-system,&quot;SF Pro Display&quot;,&quot;SF Pro Text&quot;,Helvetica,sans-serif;font-weight:bold;" transform="matrix(1 0 0 1 1289 1953)">Exporting</text>
  <text style="stroke:none;fill:black;font-family:-apple-system,&quot;SF Pro Display&quot;,&quot;SF Pro Text&quot;,Helvetica,sans-serif;" transform="matrix(1 0 0 1 1289 1971)">Symbols should be outlined when exporting to ensure the</text>
  <text style="stroke:none;fill:black;font-family:-apple-system,&quot;SF Pro Display&quot;,&quot;SF Pro Text&quot;,Helvetica,sans-serif;" transform="matrix(1 0 0 1 1289 1989)">design is preserved when submitting to Xcode.</text>
  <text id="template-version" style="stroke:none;fill:black;font-family:-apple-system,&quot;SF Pro Display&quot;,&quot;SF Pro Text&quot;,Helvetica,sans-serif;text-anchor:end;" transform="matrix(1 0 0 1 3036 1933)">Template v.0.1</text>
  <text style="stroke:none;fill:black;font-family:-apple-system,&quot;SF Pro Display&quot;,&quot;SF Pro Text&quot;,Helvetica,sans-serif;text-anchor:end;" transform="matrix(1 0 0 1 3036 1951)">Generated from 35.circle</text>
  <text style="stroke:none;fill:black;font-family:-apple-system,&quot;SF Pro Display&quot;,&quot;SF Pro Text&quot;,Helvetica,sans-serif;text-anchor:end;" transform="matrix(1 0 0 1 3036 1969)">Typeset at 100 points</text>
  <text style="stroke:none;fill:black;font-family:-apple-system,&quot;SF Pro Display&quot;,&quot;SF Pro Text&quot;,Helvetica,sans-serif;" transform="matrix(1 0 0 1 263 726)">Small</text>
  <text style="stroke:none;fill:black;font-family:-apple-system,&quot;SF Pro Display&quot;,&quot;SF Pro Text&quot;,Helvetica,sans-serif;" transform="matrix(1 0 0 1 263 1156)">Medium</text>
  <text style="stroke:none;fill:black;font-family:-apple-system,&quot;SF Pro Display&quot;,&quot;SF Pro Text&quot;,Helvetica,sans-serif;" transform="matrix(1 0 0 1 263 1586)">Large</text>
 </g>
 <g id="Guides">
  <g id="H-reference" style="fill:#27AAE1;stroke:none;" transform="matrix(1 0 0 1 339 696)">
   <path d="M 54.9316 0 L 57.666 0 L 30.5664 -70.459 L 28.0762 -70.459 L 0.976562 0 L 3.66211 0 L 12.9395 -24.4629 L 45.7031 -24.4629 Z M 29.1992 -67.0898 L 29.4434 -67.0898 L 44.8242 -26.709 L 13.8184 -26.709 Z"/>
  </g>
  <line id="Baseline-S" style="fill:none;stroke:#27AAE1;opacity:1;stroke-width:0.577;" x1="263" x2="3036" y1="696" y2="696"/>
  <line id="Capline-S" style="fill:none;stroke:#27AAE1;opacity:1;stroke-width:0.577;" x1="263" x2="3036" y1="625.541" y2="625.541"/>
  <g id="H-reference" style="fill:#27AAE1;stroke:none;" transform="matrix(1 0 0 1 339 1126)">
   <path d="M 54.9316 0 L 57.666 0 L 30.5664 -70.459 L 28.0762 -70.459 L 0.976562 0 L 3.66211 0 L 12.9395 -24.4629 L 45.7031 -24.4629 Z M 29.1992 -67.0898 L 29.4434 -67.0898 L 44.8242 -26.709 L 13.8184 -26.709 Z"/>
  </g>
  <line id="Baseline-M" style="fill:none;stroke:#27AAE1;opacity:1;stroke-width:0.577;" x1="263" x2="3036" y1="1126" y2="1126"/>
  <line id="Capline-M" style="fill:none;stroke:#27AAE1;opacity:1;stroke-width:0.577;" x1="263" x2="3036" y1="1055.54" y2="1055.54"/>
  <g id="H-reference" style="fill:#27AAE1;stroke:none;" transform="matrix(1 0 0 1 339 1556)">
   <path d="M 54.9316 0 L 57.666 0 L 30.5664 -70.459 L 28.0762 -70.459 L 0.976562 0 L 3.66211 0 L 12.9395 -24.4629 L 45.7031 -24.4629 Z M 29.1992 -67.0898 L 29.4434 -67.0898 L 44.8242 -26.709 L 13.8184 -26.709 Z"/>
  </g>
  <line id="Baseline-L" style="fill:none;stroke:#27AAE1;opacity:1;stroke-width:0.577;" x1="263" x2="3036" y1="1556" y2="1556"/>
  <line id="Capline-L" style="fill:none;stroke:#27AAE1;opacity:1;stroke-width:0.577;" x1="263" x2="3036" y1="1485.54" y2="1485.54"/>
  <rect height="119.336" id="left-margin" style="fill:#00AEEF;stroke:none;opacity:0.4;" width="8.74023" x="1391.32" y="1030.79"/>
  <rect height="119.336" id="right-margin" style="fill:#00AEEF;stroke:none;opacity:0.4;" width="8.69141" x="1499.67" y="1030.79"/>
 </g>
 <g id="Symbols">
  <g id="Ultralight-S" transform="matrix(1 0 0 1 515.644 696)">
   <path d="M 44.043 2.05078 C 64.502 2.05078 81.2988 -14.6973 81.2988 -35.1562 C 81.2988 -55.6152 64.502 -72.3633 44.043 -72.3633 C 23.584 -72.3633 6.83594 -55.6152 6.83594 -35.1562 C 6.83594 -14.6973 23.584 2.05078 44.043 2.05078 Z M 44.043 -0.146484 C 24.7559 -0.146484 9.08203 -15.8691 9.08203 -35.1562 C 9.08203 -54.4434 24.7559 -70.166 44.043 -70.166 C 63.3789 -70.166 79.0527 -54.4434 79.0527 -35.1562 C 79.0527 -15.8691 63.3789 -0.146484 44.043 -0.146484 Z M 31.0059 -17.7734 C 37.5977 -17.7734 42.334 -21.875 42.334 -27.4414 C 42.334 -31.6895 38.916 -35.3027 34.4238 -35.7422 L 34.4238 -35.9375 C 38.2812 -36.6699 41.1133 -40.0879 41.1133 -44.043 C 41.1133 -48.9746 36.8164 -52.4902 30.957 -52.4902 C 25.9277 -52.4902 21.582 -49.6582 21.0449 -45.7031 C 20.9961 -45.3125 20.9473 -45.0195 20.9473 -44.6777 C 20.9473 -43.9941 21.3867 -43.5059 22.0215 -43.5059 C 22.6562 -43.5059 23.0957 -43.8965 23.1445 -44.5312 C 23.6328 -48.0469 26.8066 -50.3906 30.957 -50.3906 C 35.6445 -50.3906 38.8184 -47.7051 38.8184 -43.7988 C 38.8184 -39.8438 35.4492 -36.7676 31.2012 -36.7676 L 27.9297 -36.7676 C 27.2949 -36.7676 26.8555 -36.3281 26.8555 -35.7422 C 26.8555 -35.1074 27.2949 -34.668 27.9297 -34.668 L 31.4453 -34.668 C 36.3281 -34.668 40.0391 -31.543 40.0391 -27.4414 C 40.0391 -22.9492 36.377 -19.873 31.0059 -19.873 C 26.709 -19.873 23.1934 -22.3145 22.4121 -25.7324 C 22.2656 -26.4648 21.875 -26.7578 21.2891 -26.7578 C 20.6543 -26.7578 20.166 -26.2695 20.166 -25.5859 C 20.166 -25.2441 20.2148 -24.9512 20.3125 -24.5605 C 21.4844 -20.5566 25.7812 -17.7734 31.0059 -17.7734 Z M 56.7871 -17.7734 C 63.623 -17.7734 68.2617 -22.3633 68.2617 -29.0527 C 68.2617 -35.3516 63.7695 -39.8926 57.4707 -39.8926 C 54.2969 -39.8926 51.0742 -38.3789 49.2188 -35.8887 L 49.0234 -35.8887 L 50.1953 -49.8535 L 65.625 -49.8535 C 66.2598 -49.8535 66.6504 -50.3418 66.6504 -50.9277 C 66.6504 -51.5137 66.2598 -51.9531 65.625 -51.9531 L 49.707 -51.9531 C 48.7305 -51.9531 48.1934 -51.3672 48.0957 -50.3906 L 46.8262 -34.668 C 46.7773 -33.8867 47.2656 -33.3008 48.0957 -33.3008 C 48.6816 -33.3008 48.9746 -33.4473 49.4141 -33.9355 C 52.002 -36.8164 54.248 -37.8418 57.2754 -37.8418 C 62.4512 -37.8418 66.0156 -34.1797 66.0156 -29.0039 C 66.0156 -23.7305 62.207 -19.9219 57.0801 -19.9219 C 52.7344 -19.9219 49.2188 -22.2656 48.3398 -25.4883 C 48.1445 -26.1719 47.8027 -26.4648 47.2168 -26.4648 C 46.6309 -26.4648 46.1914 -26.0742 46.1914 -25.4883 C 46.1914 -25.1953 46.2891 -25 46.3379 -24.7559 C 47.3633 -20.752 51.2695 -17.7734 56.7871 -17.7734 Z"/>
  </g>
  <g id="Thin-S" transform="matrix(1 0 0 1 811.867 696)">
   <path d="M 44.5801 2.53906 C 65.2832 2.53906 82.2754 -14.4531 82.2754 -35.2051 C 82.2754 -55.9082 65.2344 -72.9004 44.5312 -72.9004 C 23.8281 -72.9004 6.83594 -55.9082 6.83594 -35.2051 C 6.83594 -14.4531 23.877 2.53906 44.5801 2.53906 Z M 44.5801 -0.878906 C 25.5859 -0.878906 10.2539 -16.2109 10.2539 -35.2051 C 10.2539 -54.1504 25.5859 -69.4824 44.5312 -69.4824 C 63.5254 -69.4824 78.8574 -54.1504 78.8574 -35.2051 C 78.8574 -16.2109 63.5254 -0.878906 44.5801 -0.878906 Z M 31.543 -17.8711 C 38.2324 -17.8711 42.9688 -21.9727 42.9688 -27.6367 C 42.9688 -31.8848 39.6484 -35.4492 35.3027 -35.8887 L 35.3027 -36.084 C 39.0625 -36.7676 41.7969 -40.1855 41.7969 -44.0918 C 41.7969 -49.0723 37.5 -52.6367 31.5918 -52.6367 C 26.4648 -52.6367 22.1191 -49.7559 21.5332 -45.8008 C 21.4355 -45.3613 21.3867 -45.0195 21.3867 -44.6289 C 21.3867 -43.75 21.9727 -43.1152 22.8027 -43.1152 C 23.6328 -43.1152 24.0723 -43.5547 24.2676 -44.3848 C 24.8047 -47.7051 27.6855 -49.8535 31.543 -49.8535 C 35.8398 -49.8535 38.7695 -47.3633 38.7695 -43.75 C 38.7695 -40.0391 35.6934 -37.2559 31.7383 -37.2559 L 28.7598 -37.2559 C 27.9297 -37.2559 27.3926 -36.6699 27.3926 -35.8398 C 27.3926 -35.0098 27.9297 -34.4238 28.7598 -34.4238 L 31.9824 -34.4238 C 36.5723 -34.4238 39.9414 -31.5918 39.9414 -27.6855 C 39.9414 -23.5352 36.5234 -20.6543 31.543 -20.6543 C 27.5391 -20.6543 24.3652 -22.8516 23.5352 -26.123 C 23.291 -27.002 22.8516 -27.3926 22.0703 -27.3926 C 21.2891 -27.3926 20.6543 -26.8066 20.6543 -25.8789 C 20.6543 -25.4883 20.7031 -25.1465 20.8008 -24.7559 C 21.9238 -20.8008 26.2695 -17.8711 31.543 -17.8711 Z M 57.3242 -17.8711 C 64.2578 -17.8711 68.9453 -22.4609 68.9453 -29.248 C 68.9453 -35.5957 64.502 -40.1367 58.252 -40.1367 C 55.1758 -40.1367 52.0508 -38.6719 50.3906 -36.377 L 50.1465 -36.377 L 51.2207 -49.2676 L 66.1133 -49.2676 C 66.8945 -49.2676 67.4316 -49.8535 67.4316 -50.6348 C 67.4316 -51.416 66.8945 -52.0508 66.1133 -52.0508 L 50.7324 -52.0508 C 49.4629 -52.0508 48.6816 -51.2695 48.5352 -49.9512 L 47.3633 -35.1562 C 47.3145 -33.9844 47.9492 -33.2031 49.0723 -33.2031 C 49.8535 -33.2031 50.2441 -33.3984 50.9277 -34.0332 C 53.2715 -36.5234 55.2246 -37.4512 57.9102 -37.4512 C 62.6465 -37.4512 65.918 -34.0332 65.918 -29.1992 C 65.918 -24.2676 62.3535 -20.6543 57.6172 -20.6543 C 53.7109 -20.6543 50.4883 -22.8027 49.5117 -25.7812 C 49.2188 -26.6113 48.7793 -27.002 48.0957 -27.002 C 47.3145 -27.002 46.7285 -26.416 46.7285 -25.5859 C 46.7285 -25.2441 46.8262 -24.9023 46.9238 -24.6094 C 47.998 -20.752 51.9531 -17.8711 57.3242 -17.8711 Z"/>
  </g>
  <g id="Light-S" transform="matrix(1 0 0 1 1107.6 696)">
   <path d="M 45.5078 3.4668 C 66.6992 3.4668 84.2285 -14.0625 84.2285 -35.2051 C 84.2285 -56.3965 66.6504 -73.9258 45.5078 -73.9258 C 24.3164 -73.9258 6.83594 -56.3965 6.83594 -35.2051 C 6.83594 -14.0625 24.3652 3.4668 45.5078 3.4668 Z M 45.5078 -2.24609 C 27.2461 -2.24609 12.5977 -16.9434 12.5977 -35.2051 C 12.5977 -53.5156 27.1973 -68.2129 45.5078 -68.2129 C 63.7695 -68.2129 78.4668 -53.5156 78.5156 -35.2051 C 78.5156 -16.9434 63.8184 -2.24609 45.5078 -2.24609 Z M 32.6172 -18.0664 C 39.4531 -18.0664 44.2383 -22.168 44.2383 -27.9785 C 44.2383 -32.2266 41.1621 -35.7422 36.9629 -36.1328 L 36.9629 -36.377 C 40.4785 -36.9629 43.1152 -40.3809 43.1152 -44.1895 C 43.1152 -49.3164 38.8672 -52.9297 32.8125 -52.9297 C 27.3926 -52.9297 23.1934 -49.9023 22.4121 -45.9473 C 22.2656 -45.459 22.2656 -45.0684 22.2656 -44.5312 C 22.2656 -43.2617 23.0957 -42.3828 24.3164 -42.3828 C 25.4395 -42.3828 26.0254 -42.9688 26.3672 -44.0918 C 27.1484 -47.1191 29.3945 -48.8281 32.7148 -48.8281 C 36.2793 -48.8281 38.6719 -46.6797 38.6719 -43.6523 C 38.6719 -40.4785 36.1816 -38.1348 32.7637 -38.1348 L 30.3711 -38.1348 C 29.1992 -38.1348 28.418 -37.3047 28.418 -36.0352 C 28.418 -34.8633 29.1992 -33.9355 30.3711 -33.9355 L 32.959 -33.9355 C 37.0117 -33.9355 39.7461 -31.5918 39.7461 -28.1738 C 39.7461 -24.707 36.8164 -22.168 32.666 -22.168 C 29.1504 -22.2168 26.6602 -23.9746 25.7324 -26.9043 C 25.293 -28.0762 24.707 -28.6133 23.6328 -28.6133 C 22.4609 -28.6133 21.582 -27.7344 21.582 -26.4648 C 21.582 -25.9766 21.6309 -25.5859 21.7773 -25.0977 C 22.7539 -21.1914 27.1484 -18.0664 32.6172 -18.0664 Z M 58.3984 -18.0176 C 65.5273 -18.0176 70.2148 -22.6562 70.2148 -29.6387 C 70.2148 -36.084 65.8691 -40.5762 59.668 -40.5762 C 56.8359 -40.5762 53.9062 -39.209 52.5879 -37.2559 L 52.3438 -37.2559 L 53.2227 -48.1445 L 67.041 -48.1445 C 68.0664 -48.1445 68.8477 -48.9746 68.8477 -50.1465 C 68.8477 -51.3184 68.1152 -52.1973 67.041 -52.1973 L 52.7344 -52.1973 C 50.7812 -52.1973 49.5605 -51.0254 49.4141 -49.1211 L 48.3887 -36.084 C 48.2422 -34.2285 49.2676 -33.0078 50.9277 -33.0078 C 52.0508 -33.0078 52.6855 -33.3008 53.8574 -34.2773 C 55.7129 -36.0352 57.1289 -36.6699 59.1797 -36.6699 C 63.0859 -36.6699 65.7227 -33.7891 65.7227 -29.541 C 65.7227 -25.293 62.6953 -22.1191 58.6914 -22.1191 C 55.5664 -22.1191 52.9785 -23.7793 51.8555 -26.3672 C 51.3672 -27.4414 50.6348 -27.9297 49.7559 -27.9297 C 48.584 -27.9297 47.7539 -27.0508 47.7539 -25.8301 C 47.7539 -25.2441 47.9004 -24.7559 48.0469 -24.2676 C 49.2188 -20.752 53.2227 -18.0176 58.3984 -18.0176 Z"/>
  </g>
  <g id="Regular-S" transform="matrix(1 0 0 1 1403.58 696)">
   <path d="M 46.2402 4.15039 C 67.7734 4.15039 85.6934 -13.7207 85.6934 -35.2539 C 85.6934 -56.7871 67.7246 -74.6582 46.1914 -74.6582 C 24.707 -74.6582 6.83594 -56.7871 6.83594 -35.2539 C 6.83594 -13.7207 24.7559 4.15039 46.2402 4.15039 Z M 46.2402 -3.27148 C 28.5156 -3.27148 14.3555 -17.4805 14.3555 -35.2539 C 14.3555 -53.0273 28.4668 -67.2363 46.1914 -67.2363 C 63.9648 -67.2363 78.1738 -53.0273 78.2227 -35.2539 C 78.2715 -17.4805 64.0137 -3.27148 46.2402 -3.27148 Z M 33.4473 -18.2129 C 40.3809 -18.2129 45.2148 -22.3145 45.2148 -28.2227 C 45.2148 -32.5195 42.2852 -35.9375 38.2324 -36.3281 L 38.2324 -36.6211 C 41.5527 -37.1094 44.0918 -40.5273 44.0918 -44.2871 C 44.0918 -49.5117 39.8438 -53.1738 33.7891 -53.1738 C 28.125 -53.1738 24.0234 -50 23.0957 -46.0449 C 22.9492 -45.5078 22.9492 -45.0684 22.9492 -44.4824 C 22.9492 -42.8711 23.9746 -41.7969 25.4883 -41.7969 C 26.8066 -41.7969 27.5391 -42.5293 27.9785 -43.8965 C 28.9062 -46.6797 30.6641 -48.0469 33.6426 -48.0469 C 36.5723 -48.0469 38.623 -46.1914 38.623 -43.5547 C 38.623 -40.7715 36.5723 -38.8184 33.5449 -38.8184 L 31.5918 -38.8184 C 30.1758 -38.8184 29.1504 -37.7441 29.1504 -36.1816 C 29.1504 -34.7168 30.1758 -33.5938 31.5918 -33.5938 L 33.6914 -33.5938 C 37.3535 -33.5938 39.5996 -31.6406 39.5996 -28.5156 C 39.5996 -25.5859 37.0605 -23.3398 33.4961 -23.3398 C 30.4199 -23.3887 28.418 -24.8047 27.3926 -27.4902 C 26.8555 -28.9062 26.123 -29.5898 24.8535 -29.5898 C 23.3887 -29.5898 22.2656 -28.4668 22.2656 -26.8555 C 22.2656 -26.3184 22.3145 -25.8789 22.4609 -25.3418 C 23.4375 -21.5332 27.8809 -18.2129 33.4473 -18.2129 Z M 59.1797 -18.1641 C 66.5039 -18.1641 71.1914 -22.8027 71.1914 -29.9316 C 71.1914 -36.4258 66.8945 -40.918 60.7422 -40.918 C 58.1055 -40.918 55.3223 -39.6484 54.248 -37.9395 L 54.0039 -37.9395 L 54.7363 -47.2656 L 67.7246 -47.2656 C 68.9941 -47.2656 69.9219 -48.291 69.9219 -49.7559 C 69.9219 -51.2207 69.043 -52.2949 67.7246 -52.2949 L 54.248 -52.2949 C 51.8066 -52.2949 50.293 -50.8301 50.0977 -48.4375 L 49.1699 -36.7676 C 48.9746 -34.4238 50.2441 -32.8613 52.3438 -32.8613 C 53.7109 -32.8613 54.541 -33.252 56.0547 -34.4238 C 57.5195 -35.5957 58.5938 -36.084 60.1562 -36.084 C 63.3789 -36.084 65.5762 -33.5938 65.5762 -29.834 C 65.5762 -26.0254 62.9395 -23.2422 59.4727 -23.2422 C 56.9824 -23.2422 54.834 -24.5117 53.6621 -26.7578 C 52.9297 -28.0762 52.0996 -28.6621 51.0254 -28.6621 C 49.5605 -28.6621 48.5352 -27.5391 48.5352 -26.0254 C 48.5352 -25.293 48.6816 -24.6094 48.9258 -24.0234 C 50.1465 -20.752 54.1992 -18.1641 59.1797 -18.1641 Z"/>
  </g>
  <g id="Medium-S" transform="matrix(1 0 0 1 1699.7 696)">
   <path d="M 46.8262 4.78516 C 68.75 4.78516 86.8652 -13.3301 86.8652 -35.2539 C 86.8652 -57.1289 68.7012 -75.2441 46.8262 -75.2441 C 24.9023 -75.2441 6.83594 -57.1289 6.83594 -35.2539 C 6.83594 -13.3301 24.9512 4.78516 46.8262 4.78516 Z M 46.8262 -4.19922 C 29.6387 -4.19922 15.8691 -18.0176 15.8691 -35.2539 C 15.8691 -52.4414 29.5898 -66.2598 46.8262 -66.2598 C 64.0137 -66.2598 77.832 -52.4414 77.8809 -35.2539 C 77.8809 -18.0176 64.0625 -4.19922 46.8262 -4.19922 Z M 34.1309 -18.3105 C 41.0645 -18.3105 45.752 -22.3633 45.752 -28.2715 C 45.752 -32.4707 43.0176 -35.8887 39.1113 -36.2305 L 39.1113 -36.5234 C 42.334 -37.0605 44.8242 -40.332 44.8242 -43.9453 C 44.8242 -49.2188 40.5762 -52.7832 34.375 -52.7832 C 28.8574 -52.7832 24.9023 -49.6094 23.9258 -46.0449 C 23.7305 -45.4102 23.6816 -44.9219 23.6816 -44.2871 C 23.6816 -42.4805 24.8047 -41.3574 26.416 -41.3574 C 27.832 -41.3574 28.6621 -42.0898 29.1992 -43.4082 C 30.127 -45.8496 31.6895 -47.0703 34.2285 -47.0703 C 36.7676 -47.0703 38.5742 -45.4102 38.5742 -43.0664 C 38.5742 -40.6738 36.8164 -38.916 34.1797 -38.916 L 32.6172 -38.916 C 30.957 -38.916 29.834 -37.7441 29.834 -35.9863 C 29.834 -34.2773 30.8594 -33.0566 32.6172 -33.0566 L 34.2773 -33.0566 C 37.4023 -33.0566 39.4043 -31.2988 39.4043 -28.6133 C 39.4043 -26.123 37.2559 -24.1699 34.1797 -24.1699 C 31.543 -24.2188 29.6875 -25.4395 28.7109 -27.832 C 28.0762 -29.1504 27.2461 -29.8828 25.8789 -29.8828 C 24.4141 -29.8828 23.0957 -28.7109 23.0957 -26.9043 C 23.0957 -26.3184 23.1934 -25.7812 23.3398 -25.2441 C 24.3164 -21.582 28.7109 -18.3105 34.1309 -18.3105 Z M 59.4238 -18.2617 C 66.748 -18.2617 71.3379 -22.9492 71.3379 -30.0293 C 71.3379 -36.4258 67.0898 -40.625 61.377 -40.625 C 58.7891 -40.625 56.1523 -39.4043 55.0781 -37.6953 L 54.834 -37.6953 L 55.5176 -46.3379 L 67.5293 -46.3379 C 69.043 -46.3379 70.1172 -47.4609 70.1172 -49.1699 C 70.1172 -50.8301 69.0918 -51.9531 67.5293 -51.9531 L 54.3945 -51.9531 C 51.9531 -51.9531 50.3906 -50.3906 50.1953 -47.8516 L 49.4141 -36.4746 C 49.2188 -34.0332 50.5859 -32.4219 52.7832 -32.4219 C 54.2969 -32.4219 55.1758 -32.8613 56.4941 -33.8867 C 57.8613 -34.9609 58.8379 -35.4004 60.3027 -35.4004 C 63.1836 -35.4004 65.1367 -33.1543 65.1367 -29.834 C 65.1367 -26.4648 62.8418 -23.9746 59.7656 -23.9746 C 57.4707 -23.9746 55.6641 -25.1953 54.541 -27.0996 C 53.8086 -28.2227 52.9785 -28.9062 51.7578 -28.9062 C 50.1465 -28.9062 48.9746 -27.7344 48.9746 -26.0254 C 48.9746 -25.293 49.1211 -24.6094 49.3652 -23.9258 C 50.5371 -20.8984 54.4434 -18.2617 59.4238 -18.2617 Z"/>
  </g>
  <g id="Semibold-S" transform="matrix(1 0 0 1 1995.98 696)">
   <path d="M 47.3145 5.22461 C 69.4824 5.22461 87.7441 -13.0371 87.7441 -35.2539 C 87.7441 -57.4219 69.4336 -75.6836 47.2656 -75.6836 C 25.0977 -75.6836 6.83594 -57.4219 6.83594 -35.2539 C 6.83594 -13.0371 25.0977 5.22461 47.3145 5.22461 Z M 47.3145 -4.93164 C 30.4688 -4.93164 17.041 -18.4082 17.041 -35.2539 C 17.041 -52.0508 30.4688 -65.5273 47.2656 -65.5273 C 64.0625 -65.5273 77.5879 -52.0508 77.5879 -35.2539 C 77.6367 -18.4082 64.1113 -4.93164 47.3145 -4.93164 Z M 34.6191 -18.4082 C 41.5527 -18.4082 46.2402 -22.3633 46.2402 -28.3203 C 46.2402 -32.4707 43.5547 -35.8398 39.7949 -36.1328 L 39.7949 -36.4746 C 42.9688 -36.9629 45.3613 -40.1855 45.3613 -43.6523 C 45.3613 -48.9746 41.1133 -52.5391 34.8145 -52.5391 C 29.3945 -52.5391 25.5371 -49.3164 24.5605 -46.0449 C 24.3164 -45.3613 24.2676 -44.7754 24.2676 -44.1406 C 24.2676 -42.1875 25.4395 -41.0156 27.1484 -41.0156 C 28.6133 -41.0156 29.4922 -41.748 30.127 -43.0176 C 31.0547 -45.2148 32.4219 -46.2891 34.668 -46.2891 C 36.9141 -46.2891 38.4766 -44.8242 38.4766 -42.7246 C 38.4766 -40.625 37.0117 -39.0137 34.668 -39.0137 L 33.4473 -39.0137 C 31.543 -39.0137 30.3223 -37.7441 30.3223 -35.791 C 30.3223 -33.9355 31.4453 -32.6172 33.4473 -32.6172 L 34.7168 -32.6172 C 37.5 -32.6172 39.209 -31.1035 39.209 -28.7109 C 39.209 -26.5625 37.3535 -24.8047 34.7168 -24.8047 C 32.4219 -24.8535 30.7129 -25.9277 29.6875 -28.0762 C 29.0039 -29.3945 28.125 -30.0781 26.709 -30.0781 C 25.1953 -30.0781 23.7305 -28.9062 23.7305 -26.9531 C 23.7305 -26.3184 23.8281 -25.7324 24.0234 -25.1465 C 25.0488 -21.6309 29.3457 -18.4082 34.6191 -18.4082 Z M 59.5703 -18.4082 C 66.9434 -18.4082 71.4355 -23.0469 71.4355 -30.0781 C 71.4355 -36.4258 67.2363 -40.4297 61.8164 -40.4297 C 59.3262 -40.4297 56.8359 -39.2578 55.7129 -37.5 L 55.4688 -37.5 L 56.1035 -45.6543 L 67.3828 -45.6543 C 69.0918 -45.6543 70.2637 -46.8262 70.2637 -48.6816 C 70.2637 -50.5371 69.1895 -51.709 67.3828 -51.709 L 54.541 -51.709 C 52.002 -51.709 50.4883 -50.0977 50.293 -47.4121 L 49.5605 -36.1816 C 49.4141 -33.6914 50.8789 -32.0801 53.125 -32.0801 C 54.7852 -32.0801 55.6641 -32.5684 56.8359 -33.4473 C 58.1543 -34.4727 59.082 -34.8633 60.4492 -34.8633 C 63.0371 -34.8633 64.7949 -32.8125 64.7949 -29.834 C 64.7949 -26.8555 62.7441 -24.5117 59.9609 -24.5117 C 57.8125 -24.5117 56.2988 -25.6836 55.1758 -27.3438 C 54.4434 -28.3203 53.7109 -29.1016 52.2949 -29.1016 C 50.5859 -29.1016 49.3164 -27.832 49.3164 -26.0254 C 49.3164 -25.293 49.4141 -24.6094 49.7559 -23.877 C 50.8789 -21.0449 54.6387 -18.4082 59.5703 -18.4082 Z"/>
  </g>
  <g id="Bold-S" transform="matrix(1 0 0 1 2292.1 696)">
   <path d="M 47.9004 5.81055 C 70.4102 5.81055 88.916 -12.6465 88.916 -35.2051 C 88.916 -57.7637 70.4102 -76.2695 47.8516 -76.2695 C 25.293 -76.2695 6.83594 -57.7637 6.83594 -35.2051 C 6.83594 -12.6465 25.3418 5.81055 47.9004 5.81055 Z M 47.9004 -5.85938 C 31.6406 -5.85938 18.5547 -18.9453 18.5547 -35.2051 C 18.5547 -51.4648 31.5918 -64.5508 47.8516 -64.5508 C 64.1113 -64.5508 77.1973 -51.4648 77.2461 -35.2051 C 77.2461 -18.9453 64.1602 -5.85938 47.9004 -5.85938 Z M 35.3027 -18.5547 C 42.2363 -18.5547 46.8262 -22.4121 46.8262 -28.3203 C 46.8262 -32.4219 44.3359 -35.7422 40.7227 -36.0352 L 40.7227 -36.377 C 43.75 -36.9141 46.0449 -39.9902 46.0449 -43.3105 C 46.0449 -48.6328 41.8457 -52.1484 35.4004 -52.1484 C 30.127 -52.1484 26.416 -48.9746 25.4395 -46.0449 C 25.0977 -45.2637 25 -44.6289 25 -43.9453 C 25 -41.7969 26.2695 -40.5273 28.125 -40.5273 C 29.6875 -40.5273 30.6641 -41.3086 31.3477 -42.5293 C 32.2754 -44.3848 33.4473 -45.2637 35.2539 -45.2637 C 37.1094 -45.2637 38.4277 -44.043 38.4277 -42.2363 C 38.4277 -40.5762 37.2559 -39.1602 35.2539 -39.1602 L 34.5215 -39.1602 C 32.373 -39.1602 31.0059 -37.6953 31.0059 -35.5957 C 31.0059 -33.4961 32.1777 -32.0312 34.5215 -32.0312 L 35.3516 -32.0312 C 37.5488 -32.0312 38.9648 -30.7617 38.9648 -28.8086 C 38.9648 -27.0996 37.5488 -25.6348 35.4004 -25.6348 C 33.5449 -25.6836 32.0312 -26.6113 31.0547 -28.418 C 30.2734 -29.6387 29.2969 -30.3711 27.7832 -30.3711 C 26.2207 -30.3711 24.5605 -29.1504 24.5605 -27.002 C 24.5605 -26.3184 24.6582 -25.6836 24.9023 -25.0488 C 25.9277 -21.6797 30.2246 -18.5547 35.3027 -18.5547 Z M 59.8145 -18.5059 C 67.1875 -18.5059 71.582 -23.1445 71.582 -30.127 C 71.582 -36.4258 67.4316 -40.1367 62.4512 -40.1367 C 60.0098 -40.1367 57.666 -39.0625 56.4941 -37.2559 L 56.3477 -37.2559 L 56.8848 -44.6777 L 67.1875 -44.6777 C 69.1895 -44.6777 70.5078 -45.9473 70.5078 -48.0469 C 70.5078 -50.1465 69.2871 -51.3672 67.1875 -51.3672 L 54.7363 -51.3672 C 52.1484 -51.3672 50.6348 -49.6582 50.4395 -46.8262 L 49.8047 -35.8398 C 49.6582 -33.252 51.1719 -31.6406 53.5645 -31.6406 C 55.3711 -31.6406 56.2988 -32.1289 57.3242 -32.9102 C 58.4961 -33.7891 59.3262 -34.1797 60.6445 -34.1797 C 62.793 -34.1797 64.4043 -32.373 64.4043 -29.8828 C 64.4043 -27.2949 62.6465 -25.293 60.2539 -25.293 C 58.3008 -25.293 57.0801 -26.3184 56.0547 -27.6367 C 55.3223 -28.4668 54.6387 -29.2969 53.0273 -29.2969 C 51.2207 -29.2969 49.7559 -27.9785 49.7559 -25.9766 C 49.7559 -25.2441 49.8535 -24.6094 50.1953 -23.7793 C 51.3184 -21.2402 54.8828 -18.5059 59.8145 -18.5059 Z"/>
  </g>
  <g id="Heavy-S" transform="matrix(1 0 0 1 2587.96 696)">
   <path d="M 48.7305 6.68945 C 71.8262 6.68945 90.625 -12.1094 90.625 -35.2051 C 90.625 -58.3008 71.8262 -77.0996 48.7305 -77.0996 C 25.6348 -77.0996 6.83594 -58.3008 6.83594 -35.2051 C 6.83594 -12.1094 25.6348 6.68945 48.7305 6.68945 Z M 48.7305 -7.22656 C 33.3008 -7.22656 20.752 -19.7266 20.752 -35.2051 C 20.752 -50.6836 33.3008 -63.1836 48.7305 -63.1836 C 64.209 -63.1836 76.709 -50.6836 76.709 -35.2051 C 76.709 -19.7266 64.209 -7.22656 48.7305 -7.22656 Z M 36.2793 -18.75 C 43.2617 -18.75 47.6562 -22.4609 47.6562 -28.418 C 47.6562 -32.373 45.4102 -35.6445 41.9922 -35.8887 L 41.9922 -36.2793 C 44.873 -36.7676 47.0703 -39.6973 47.0703 -42.8223 C 47.0703 -48.1934 42.8711 -51.6113 36.2793 -51.6113 C 31.1523 -51.6113 27.7344 -48.4375 26.709 -46.0938 C 26.2695 -45.1172 26.123 -44.3848 26.123 -43.6035 C 26.123 -41.2109 27.5391 -39.8438 29.541 -39.8438 C 31.2012 -39.8438 32.2754 -40.625 33.1055 -41.7969 C 34.0332 -43.1641 34.9121 -43.8477 36.1328 -43.8477 C 37.3535 -43.8477 38.2812 -42.9199 38.2812 -41.5039 C 38.2812 -40.4785 37.6465 -39.3066 36.1816 -39.3066 L 36.084 -39.3066 C 33.5449 -39.3066 31.9824 -37.6953 31.9824 -35.2539 C 31.9824 -32.8613 33.252 -31.1523 36.084 -31.1523 L 36.1816 -31.1523 C 37.6953 -31.1523 38.623 -30.3223 38.623 -28.9551 C 38.623 -27.8809 37.7441 -26.8555 36.4258 -26.8555 C 35.2539 -26.8555 33.9355 -27.5391 32.959 -28.9062 C 32.0801 -30.0293 30.957 -30.8105 29.3457 -30.8105 C 27.6855 -30.8105 25.7812 -29.4922 25.7812 -27.0508 C 25.7812 -26.3184 25.9277 -25.5859 26.1719 -24.9023 C 27.2949 -21.7773 31.4941 -18.75 36.2793 -18.75 Z M 60.1562 -18.75 C 67.5781 -18.75 71.8262 -23.3398 71.8262 -30.2734 C 71.8262 -36.4258 67.7246 -39.7461 63.3789 -39.7461 C 61.0352 -39.7461 58.9355 -38.7695 57.7148 -36.9141 L 57.5684 -36.9141 L 58.0078 -43.3594 L 66.8945 -43.3594 C 69.2871 -43.3594 70.8008 -44.6777 70.8008 -47.168 C 70.8008 -49.6094 69.3848 -50.8789 66.8945 -50.8789 L 54.9805 -50.8789 C 52.2949 -50.8789 50.7812 -49.0723 50.6348 -45.9473 L 50.1465 -35.3516 C 50 -32.666 51.709 -31.0059 54.1992 -31.0059 C 56.25 -31.0059 57.2266 -31.543 57.959 -32.0801 C 58.9844 -32.8613 59.7168 -33.1543 60.8887 -33.1543 C 62.5 -33.1543 63.7695 -31.7383 63.7695 -29.8828 C 63.7695 -27.9297 62.5 -26.3672 60.6445 -26.3672 C 59.0332 -26.3672 58.3008 -27.2949 57.373 -28.0762 C 56.5918 -28.6621 55.957 -29.6387 54.0527 -29.6387 C 52.0996 -29.6387 50.3906 -28.2227 50.3906 -25.9766 C 50.3906 -25.2441 50.4395 -24.5605 50.8789 -23.6328 C 51.9043 -21.4844 55.2734 -18.75 60.1562 -18.75 Z"/>
  </g>
  <g id="Black-S" transform="matrix(1 0 0 1 2883.89 696)">
   <path d="M 49.5117 7.4707 C 73.0957 7.4707 92.1875 -11.6211 92.1875 -35.2051 C 92.1875 -58.7891 73.0957 -77.8809 49.5117 -77.8809 C 25.9277 -77.8809 6.83594 -58.7891 6.83594 -35.2051 C 6.83594 -11.6211 25.9277 7.4707 49.5117 7.4707 Z M 49.5117 -8.44727 C 34.7656 -8.44727 22.7539 -20.459 22.7539 -35.2051 C 22.7539 -49.9512 34.7656 -61.9141 49.5117 -61.9141 C 64.2578 -61.9141 76.2695 -49.9512 76.2207 -35.2051 C 76.2207 -20.459 64.2578 -8.44727 49.5117 -8.44727 Z M 37.1582 -18.8965 C 44.1406 -18.8965 48.4375 -22.5098 48.4375 -28.4668 C 48.4375 -32.3242 46.3379 -35.5469 43.1641 -35.7422 L 43.1641 -36.1816 C 45.9473 -36.6699 47.9492 -39.4531 47.9492 -42.334 C 47.9492 -47.7539 43.7988 -51.123 37.0605 -51.123 C 32.0801 -51.123 28.8574 -47.9492 27.832 -46.0938 C 27.2949 -45.0195 27.0996 -44.1895 27.0996 -43.3594 C 27.0996 -40.7227 28.6133 -39.2578 30.8105 -39.2578 C 32.5195 -39.2578 33.7891 -40.0391 34.7168 -41.1621 C 35.6445 -42.0898 36.2305 -42.5293 36.9141 -42.5293 C 37.5977 -42.5293 38.1836 -41.8945 38.1836 -40.8691 C 38.1836 -40.3809 37.9883 -39.502 37.0117 -39.502 L 37.4512 -39.502 C 34.5703 -39.502 32.8613 -37.6465 32.8613 -34.9609 C 32.8613 -32.2754 34.1797 -30.4199 37.4512 -30.4199 L 36.9629 -30.4199 C 37.793 -30.4199 38.2812 -29.8828 38.2812 -29.1504 C 38.2812 -28.6133 37.9883 -27.9785 37.3047 -27.9785 C 36.7188 -27.9297 35.6445 -28.3691 34.668 -29.3457 C 33.6914 -30.3711 32.4707 -31.1523 30.7129 -31.1523 C 29.0039 -31.1523 26.8555 -29.7852 26.8555 -27.0996 C 26.8555 -26.3184 27.002 -25.4883 27.2949 -24.7559 C 28.4668 -21.8262 32.6172 -18.8965 37.1582 -18.8965 Z M 60.4492 -18.8965 C 67.9199 -18.8965 72.0215 -23.4863 72.0215 -30.3711 C 72.0215 -36.4258 67.9688 -39.4043 64.1602 -39.4043 C 61.9141 -39.4043 60.0586 -38.5254 58.7891 -36.6211 L 58.6426 -36.6211 L 59.0332 -42.1387 L 66.6016 -42.1387 C 69.3848 -42.1387 71.0449 -43.5547 71.0449 -46.3379 C 71.0449 -49.1211 69.4824 -50.4395 66.6016 -50.4395 L 55.2246 -50.4395 C 52.4414 -50.4395 50.9766 -48.5352 50.8301 -45.166 L 50.4395 -34.9121 C 50.293 -32.0801 52.1484 -30.4199 54.7852 -30.4199 C 57.0801 -30.4199 58.0566 -31.0059 58.5449 -31.3477 C 59.4238 -31.9824 60.1074 -32.2266 61.1328 -32.2266 C 62.2559 -32.2266 63.2324 -31.1523 63.2324 -29.8828 C 63.2324 -28.5645 62.3535 -27.2949 60.9863 -27.2949 C 59.668 -27.2949 59.375 -28.1738 58.4961 -28.4668 C 57.7148 -28.8574 57.1289 -29.9316 55.0293 -29.9316 C 52.8809 -29.9316 50.9766 -28.4668 50.9766 -25.9277 C 50.9766 -25.2441 51.0254 -24.5605 51.5137 -23.5352 C 52.4902 -21.6797 55.5664 -18.8965 60.4492 -18.8965 Z"/>
  </g>
  <g id="Ultralight-M" transform="matrix(1 0 0 1 503.656 1126)">
   <path d="M 56.0547 12.207 C 82.0801 12.207 103.369 -9.08203 103.369 -35.1562 C 103.369 -61.1816 82.0801 -82.4707 56.0547 -82.4707 C 30.0293 -82.4707 8.74023 -61.1816 8.74023 -35.1562 C 8.74023 -9.08203 30.0293 12.207 56.0547 12.207 Z M 56.0547 9.81445 C 31.25 9.81445 11.1328 -10.3516 11.1328 -35.1562 C 11.1328 -59.9121 31.25 -80.0781 56.0547 -80.0781 C 80.8105 -80.0781 100.977 -59.9121 100.977 -35.1562 C 100.977 -10.3516 80.8105 9.81445 56.0547 9.81445 Z M 39.3555 -12.9395 C 47.7539 -12.9395 53.8086 -18.1152 53.8086 -25.1953 C 53.8086 -30.6152 49.3652 -35.2539 43.6035 -35.791 L 43.6035 -36.0352 C 48.584 -37.0117 52.2461 -41.4062 52.2461 -46.4844 C 52.2461 -52.6855 46.7285 -57.1777 39.2578 -57.1777 C 32.9102 -57.1777 27.2949 -53.6621 26.709 -48.584 C 26.6113 -48.0957 26.5625 -47.7051 26.5625 -47.3145 C 26.5625 -46.4844 27.0508 -45.9473 27.7832 -45.9473 C 28.5645 -45.9473 29.0527 -46.3867 29.1504 -47.168 C 29.6875 -51.6602 33.8867 -54.834 39.2578 -54.834 C 45.4102 -54.834 49.5605 -51.3184 49.5605 -46.1914 C 49.5605 -41.0156 45.166 -37.0117 39.5996 -37.0117 L 35.3027 -37.0117 C 34.5703 -37.0117 34.082 -36.5234 34.082 -35.791 C 34.082 -35.0586 34.5703 -34.6191 35.3027 -34.6191 L 39.9414 -34.6191 C 46.2891 -34.6191 51.123 -30.5176 51.123 -25.1953 C 51.123 -19.3359 46.3379 -15.2832 39.3555 -15.2832 C 33.7891 -15.2832 29.1016 -18.5059 28.1738 -22.9492 C 28.0273 -23.8281 27.5879 -24.1699 26.8555 -24.1699 C 26.123 -24.1699 25.5859 -23.6328 25.5859 -22.8516 C 25.5859 -22.4121 25.6348 -22.0215 25.7812 -21.5332 C 27.2461 -16.4062 32.7637 -12.9395 39.3555 -12.9395 Z M 72.2656 -12.9395 C 80.957 -12.9395 86.8652 -18.75 86.8652 -27.2461 C 86.8652 -35.3027 81.1523 -41.1133 73.0957 -41.1133 C 68.9941 -41.1133 64.8438 -39.1602 62.4023 -35.8887 L 62.1582 -35.8887 L 63.6719 -54.1504 L 83.5938 -54.1504 C 84.3262 -54.1504 84.8145 -54.6875 84.8145 -55.3711 C 84.8145 -56.0059 84.3262 -56.5918 83.5938 -56.5918 L 63.0371 -56.5918 C 61.9629 -56.5918 61.3281 -55.9082 61.2305 -54.7363 L 59.6191 -34.3262 C 59.5215 -33.4473 60.0586 -32.7637 61.0352 -32.7637 C 61.7188 -32.7637 62.0117 -32.959 62.5 -33.4961 C 65.8691 -37.3535 68.8477 -38.7207 72.8516 -38.7207 C 79.6387 -38.7207 84.3262 -33.9844 84.3262 -27.1973 C 84.3262 -20.3613 79.3457 -15.3809 72.6074 -15.3809 C 66.9922 -15.3809 62.3535 -18.5059 61.2305 -22.7051 C 61.0352 -23.4863 60.5957 -23.877 59.9609 -23.877 C 59.2773 -23.877 58.7891 -23.3887 58.7891 -22.7051 C 58.7891 -22.4121 58.8379 -22.168 58.8867 -21.9238 C 60.2051 -16.748 65.1855 -12.9395 72.2656 -12.9395 Z"/>
  </g>
  <g id="Thin-M" transform="matrix(1 0 0 1 799.806 1126)">
   <path d="M 56.5918 12.7441 C 82.9102 12.7441 104.492 -8.83789 104.492 -35.1562 C 104.492 -61.4746 82.9102 -83.0566 56.5918 -83.0566 C 30.3223 -83.0566 8.74023 -61.4746 8.74023 -35.1562 C 8.74023 -8.83789 30.3223 12.7441 56.5918 12.7441 Z M 56.5918 8.98438 C 32.2266 8.98438 12.4512 -10.791 12.4512 -35.1562 C 12.4512 -59.5215 32.2266 -79.2969 56.5918 -79.2969 C 80.957 -79.2969 100.781 -59.5215 100.781 -35.1562 C 100.781 -10.791 81.0059 8.98438 56.5918 8.98438 Z M 39.9902 -13.0371 C 48.4375 -13.0371 54.541 -18.2129 54.541 -25.3906 C 54.541 -30.8594 50.1953 -35.4004 44.5801 -35.9863 L 44.5801 -36.2305 C 49.4141 -37.1094 52.9785 -41.5039 52.9785 -46.5332 C 52.9785 -52.832 47.5098 -57.373 39.9902 -57.373 C 33.4961 -57.373 27.9297 -53.7109 27.1973 -48.6816 C 27.1484 -48.1445 27.0996 -47.7539 27.0996 -47.2656 C 27.0996 -46.2402 27.7344 -45.5078 28.6621 -45.5078 C 29.6387 -45.5078 30.2246 -46.0449 30.3711 -47.0215 C 31.0059 -51.3184 34.8633 -54.1992 39.9414 -54.1992 C 45.6543 -54.1992 49.5117 -50.9277 49.5117 -46.0938 C 49.5117 -41.2598 45.459 -37.5488 40.1855 -37.5488 L 36.2793 -37.5488 C 35.3027 -37.5488 34.668 -36.9141 34.668 -35.9375 C 34.668 -35.0098 35.3027 -34.3262 36.2793 -34.3262 L 40.5273 -34.3262 C 46.5332 -34.3262 51.0254 -30.5664 51.0254 -25.4883 C 51.0254 -19.9707 46.5332 -16.2109 39.9902 -16.2109 C 34.7168 -16.2109 30.4688 -19.1406 29.4434 -23.3887 C 29.1992 -24.4141 28.6621 -24.9023 27.7832 -24.9023 C 26.8066 -24.9023 26.123 -24.1699 26.123 -23.1445 C 26.123 -22.6562 26.1719 -22.2656 26.3184 -21.7285 C 27.7344 -16.6504 33.252 -13.0371 39.9902 -13.0371 Z M 72.8516 -13.0371 C 81.6895 -13.0371 87.6465 -18.8477 87.6465 -27.4902 C 87.6465 -35.5469 81.9336 -41.3574 73.9258 -41.3574 C 69.9707 -41.3574 65.918 -39.4531 63.6719 -36.4258 L 63.4277 -36.4258 L 64.8438 -53.4668 L 84.1309 -53.4668 C 85.0098 -53.4668 85.6445 -54.1504 85.6445 -55.0781 C 85.6445 -55.957 85.0586 -56.6406 84.1309 -56.6406 L 64.209 -56.6406 C 62.7441 -56.6406 61.8652 -55.7617 61.7188 -54.248 L 60.2051 -34.8633 C 60.1074 -33.5938 60.8398 -32.666 62.1094 -32.666 C 62.9883 -32.666 63.4277 -32.9102 64.209 -33.6426 C 67.2852 -37.0605 69.9707 -38.2812 73.584 -38.2812 C 79.8828 -38.2812 84.2285 -33.7891 84.2285 -27.3926 C 84.2285 -20.9473 79.4922 -16.2109 73.2422 -16.2109 C 68.0664 -16.2109 63.7695 -19.0918 62.5977 -23.0469 C 62.2559 -23.9746 61.7188 -24.4141 60.9375 -24.4141 C 60.0098 -24.4141 59.375 -23.7793 59.375 -22.8516 C 59.375 -22.4609 59.4727 -22.0703 59.5703 -21.7285 C 60.9375 -16.748 65.9668 -13.0371 72.8516 -13.0371 Z"/>
  </g>
  <g id="Light-M" transform="matrix(1 0 0 1 1095.42 1126)">
   <path d="M 57.7148 13.7695 C 84.5215 13.7695 106.689 -8.39844 106.689 -35.2051 C 106.689 -62.0117 84.4727 -84.1797 57.666 -84.1797 C 30.8594 -84.1797 8.74023 -62.0117 8.74023 -35.2051 C 8.74023 -8.39844 30.8594 13.7695 57.7148 13.7695 Z M 57.7148 7.4707 C 34.082 7.4707 15.0879 -11.5723 15.0879 -35.2051 C 15.0879 -58.8379 34.0332 -77.832 57.666 -77.832 C 81.2988 -77.832 100.342 -58.8379 100.342 -35.2051 C 100.391 -11.5723 81.2988 7.4707 57.7148 7.4707 Z M 41.2109 -13.2324 C 49.8535 -13.2324 55.957 -18.457 55.957 -25.8301 C 55.957 -31.25 51.9043 -35.7422 46.4844 -36.2793 L 46.4844 -36.5723 C 51.0742 -37.3535 54.4922 -41.6992 54.4922 -46.6309 C 54.4922 -53.125 49.0234 -57.7148 41.4062 -57.7148 C 34.5703 -57.7148 29.1504 -53.8574 28.2227 -48.8281 C 28.0762 -48.2422 28.0762 -47.7539 28.0762 -47.168 C 28.0762 -45.6543 29.0039 -44.6777 30.4199 -44.6777 C 31.6895 -44.6777 32.4219 -45.3613 32.7637 -46.6797 C 33.6426 -50.6348 36.8164 -53.0273 41.3086 -53.0273 C 46.0938 -53.0273 49.4141 -50.1465 49.4141 -45.9961 C 49.4141 -41.748 45.9961 -38.5742 41.3574 -38.5742 L 38.0859 -38.5742 C 36.7676 -38.5742 35.8398 -37.5977 35.8398 -36.1816 C 35.8398 -34.8145 36.7676 -33.7891 38.0859 -33.7891 L 41.6504 -33.7891 C 47.0703 -33.7891 50.8301 -30.5664 50.8301 -25.9766 C 50.8301 -21.2891 46.875 -17.9199 41.2109 -17.9199 C 36.5723 -17.9688 33.0566 -20.4102 31.9336 -24.2676 C 31.4453 -25.6836 30.7617 -26.2695 29.541 -26.2695 C 28.1738 -26.2695 27.1484 -25.293 27.1484 -23.7793 C 27.1484 -23.1934 27.2461 -22.7051 27.3926 -22.1191 C 28.7109 -17.1387 34.2773 -13.2324 41.2109 -13.2324 Z M 74.0723 -13.1836 C 83.1055 -13.1836 89.0625 -19.0918 89.0625 -27.9297 C 89.0625 -36.084 83.4961 -41.8457 75.5371 -41.8457 C 71.875 -41.8457 68.0176 -40.0879 66.1621 -37.4512 L 65.918 -37.4512 L 67.0898 -52.1973 L 85.2051 -52.1973 C 86.377 -52.1973 87.2559 -53.1738 87.2559 -54.4922 C 87.2559 -55.8105 86.4258 -56.7871 85.2051 -56.7871 L 66.4551 -56.7871 C 64.2578 -56.7871 62.8906 -55.4688 62.6953 -53.2715 L 61.3281 -35.9375 C 61.1816 -33.8867 62.3535 -32.4707 64.2578 -32.4707 C 65.4785 -32.4707 66.2109 -32.8125 67.4805 -33.8867 C 70.0684 -36.4258 72.1191 -37.4023 75 -37.4023 C 80.3223 -37.4023 83.9844 -33.4961 83.9844 -27.832 C 83.9844 -22.1191 79.8828 -17.8711 74.4629 -17.8711 C 70.166 -17.8711 66.5527 -20.2148 65.2344 -23.6816 C 64.6484 -24.9512 63.8672 -25.5371 62.8418 -25.5371 C 61.4746 -25.5371 60.5469 -24.5117 60.5469 -23.1445 C 60.5469 -22.5098 60.6934 -21.9238 60.8398 -21.3867 C 62.3047 -16.748 67.4316 -13.1836 74.0723 -13.1836 Z"/>
  </g>
  <g id="Regular-M" transform="matrix(1 0 0 1 1391.32 1126)">
   <path d="M 58.5449 14.5508 C 85.7422 14.5508 108.35 -8.00781 108.35 -35.2539 C 108.35 -62.4512 85.6934 -85.0586 58.4961 -85.0586 C 31.25 -85.0586 8.74023 -62.4512 8.74023 -35.2539 C 8.74023 -8.00781 31.2988 14.5508 58.5449 14.5508 Z M 58.5449 6.25 C 35.498 6.25 17.0898 -12.207 17.0898 -35.2539 C 17.0898 -58.252 35.4492 -76.7578 58.4961 -76.7578 C 81.4941 -76.7578 100 -58.252 100.049 -35.2539 C 100.098 -12.207 81.543 6.25 58.5449 6.25 Z M 42.1387 -13.3789 C 50.8789 -13.3789 57.0312 -18.6523 57.0312 -26.123 C 57.0312 -31.5918 53.1738 -35.9863 47.9492 -36.5234 L 47.9492 -36.8652 C 52.2949 -37.5488 55.6152 -41.8457 55.6152 -46.7285 C 55.6152 -53.3691 50.1953 -57.959 42.4316 -57.959 C 35.4004 -57.959 30.0781 -54.0039 29.0039 -48.9258 C 28.8086 -48.291 28.8086 -47.7539 28.8086 -47.0703 C 28.8086 -45.2637 29.9805 -43.9941 31.7383 -43.9941 C 33.252 -43.9941 34.082 -44.8242 34.6191 -46.4355 C 35.6445 -50.1465 38.2812 -52.1484 42.2852 -52.1484 C 46.4355 -52.1484 49.3652 -49.5605 49.3652 -45.9473 C 49.3652 -42.0898 46.3867 -39.3066 42.2852 -39.3066 L 39.4531 -39.3066 C 37.8418 -39.3066 36.6699 -38.1348 36.6699 -36.377 C 36.6699 -34.668 37.8418 -33.3984 39.4531 -33.3984 L 42.4805 -33.3984 C 47.4121 -33.3984 50.6836 -30.6152 50.6836 -26.416 C 50.6836 -22.3145 47.168 -19.2383 42.1875 -19.2383 C 37.9395 -19.2871 35.0586 -21.3379 33.7891 -24.9512 C 33.2031 -26.6113 32.373 -27.3438 30.8594 -27.3438 C 29.1992 -27.3438 27.9785 -26.123 27.9785 -24.2676 C 27.9785 -23.584 28.0273 -23.0957 28.1738 -22.4121 C 29.4434 -17.5293 35.0586 -13.3789 42.1387 -13.3789 Z M 75 -13.3301 C 84.1797 -13.3301 90.1855 -19.2871 90.1855 -28.2715 C 90.1855 -36.4746 84.668 -42.2363 76.7578 -42.2363 C 73.291 -42.2363 69.6289 -40.5762 68.0664 -38.1836 L 67.7734 -38.1836 L 68.7988 -51.2207 L 85.9863 -51.2207 C 87.4023 -51.2207 88.4766 -52.3926 88.4766 -54.0527 C 88.4766 -55.7129 87.4512 -56.9336 85.9863 -56.9336 L 68.1641 -56.9336 C 65.4297 -56.9336 63.6719 -55.2734 63.4766 -52.5391 L 62.207 -36.7188 C 62.0117 -34.082 63.4766 -32.3242 65.8203 -32.3242 C 67.3828 -32.3242 68.3105 -32.7637 70.0195 -34.082 C 72.168 -35.9863 73.7793 -36.7188 76.0742 -36.7188 C 80.6641 -36.7188 83.7891 -33.252 83.7891 -28.125 C 83.7891 -22.9492 80.1758 -19.1406 75.3418 -19.1406 C 71.7285 -19.1406 68.7012 -21.0449 67.2363 -24.1699 C 66.4551 -25.6348 65.4785 -26.3672 64.2578 -26.3672 C 62.5488 -26.3672 61.4258 -25.0977 61.4258 -23.3887 C 61.4258 -22.5098 61.5723 -21.7773 61.8164 -21.0938 C 63.3301 -16.748 68.5059 -13.3301 75 -13.3301 Z"/>
  </g>
  <g id="Medium-M" transform="matrix(1 0 0 1 1687.33 1126)">
   <path d="M 59.2285 15.2832 C 86.8652 15.2832 109.717 -7.56836 109.717 -35.2051 C 109.717 -62.8906 86.8164 -85.7422 59.1797 -85.7422 C 31.543 -85.7422 8.74023 -62.8906 8.74023 -35.2051 C 8.74023 -7.56836 31.5918 15.2832 59.2285 15.2832 Z M 59.2285 5.17578 C 36.8164 5.17578 18.8477 -12.8418 18.8477 -35.2051 C 18.8477 -57.6172 36.7676 -75.6348 59.1797 -75.6348 C 81.5918 -75.6348 99.6094 -57.6172 99.6582 -35.2051 C 99.6582 -12.8418 81.6406 5.17578 59.2285 5.17578 Z M 42.9199 -13.5254 C 51.709 -13.5254 57.7637 -18.7012 57.7637 -26.1719 C 57.7637 -31.5918 54.1016 -35.9375 49.0234 -36.4258 L 49.0234 -36.8164 C 53.2227 -37.5 56.4453 -41.6992 56.4453 -46.3867 C 56.4453 -53.0273 51.0254 -57.6172 43.1641 -57.6172 C 36.2305 -57.6172 31.1035 -53.6133 29.9316 -48.9746 C 29.6875 -48.1934 29.6875 -47.6074 29.6875 -46.875 C 29.6875 -44.8242 30.957 -43.457 32.8613 -43.457 C 34.4727 -43.457 35.4492 -44.3359 36.0352 -45.8984 C 37.1094 -49.2188 39.4531 -51.0254 43.0176 -51.0254 C 46.6797 -51.0254 49.2676 -48.7305 49.2676 -45.4102 C 49.2676 -42.041 46.7285 -39.5508 43.0176 -39.5508 L 40.7227 -39.5508 C 38.7695 -39.5508 37.4512 -38.1836 37.4512 -36.1328 C 37.4512 -34.2285 38.6719 -32.7637 40.7227 -32.7637 L 43.2129 -32.7637 C 47.5586 -32.7637 50.3906 -30.3223 50.3906 -26.5625 C 50.3906 -22.9492 47.3633 -20.2637 42.9688 -20.2637 C 39.2578 -20.2637 36.6211 -22.1191 35.3516 -25.3418 C 34.668 -26.9531 33.7402 -27.7832 32.1289 -27.7832 C 30.3711 -27.7832 28.9062 -26.4648 28.9062 -24.3652 C 28.9062 -23.6328 28.9551 -23.0469 29.1504 -22.3633 C 30.4688 -17.627 36.0352 -13.5254 42.9199 -13.5254 Z M 75.3418 -13.4766 C 84.5703 -13.4766 90.4297 -19.4336 90.4297 -28.3691 C 90.4297 -36.5234 85.0098 -41.9922 77.5391 -41.9922 C 74.1699 -41.9922 70.7031 -40.3809 69.1406 -38.0371 L 68.8477 -38.0371 L 69.7754 -50.1465 L 85.8887 -50.1465 C 87.5977 -50.1465 88.8672 -51.416 88.8672 -53.3691 C 88.8672 -55.3223 87.6953 -56.5918 85.8887 -56.5918 L 68.5547 -56.5918 C 65.6738 -56.5918 63.916 -54.834 63.6719 -51.8555 L 62.5488 -36.4746 C 62.3535 -33.6914 63.916 -31.8359 66.4551 -31.8359 C 68.2129 -31.8359 69.2383 -32.3242 70.752 -33.5449 C 72.7539 -35.3027 74.2188 -35.9375 76.416 -35.9375 C 80.5176 -35.9375 83.3496 -32.8125 83.3496 -28.1738 C 83.3496 -23.5352 80.0781 -20.0684 75.7324 -20.0684 C 72.4121 -20.0684 69.7754 -21.8262 68.3594 -24.5117 C 67.5293 -25.8789 66.6016 -26.709 65.1855 -26.709 C 63.2812 -26.709 61.9629 -25.293 61.9629 -23.3887 C 61.9629 -22.5098 62.1094 -21.7285 62.4512 -20.9961 C 63.916 -16.9434 68.8965 -13.4766 75.3418 -13.4766 Z"/>
  </g>
  <g id="Semibold-M" transform="matrix(1 0 0 1 1983.5 1126)">
   <path d="M 59.7656 15.8203 C 87.7441 15.8203 110.791 -7.22656 110.791 -35.2051 C 110.791 -63.1836 87.6953 -86.2793 59.7168 -86.2793 C 31.7383 -86.2793 8.74023 -63.1836 8.74023 -35.2051 C 8.74023 -7.22656 31.7871 15.8203 59.7656 15.8203 Z M 59.7656 4.3457 C 37.8418 4.3457 20.2148 -13.2812 20.2148 -35.2051 C 20.2148 -57.1289 37.793 -74.8047 59.7168 -74.8047 C 81.6406 -74.8047 99.3164 -57.1289 99.3164 -35.2051 C 99.3652 -13.2812 81.6895 4.3457 59.7656 4.3457 Z M 43.5059 -13.6719 C 52.3438 -13.6719 58.3008 -18.75 58.3008 -26.2207 C 58.3008 -31.5918 54.7852 -35.9375 49.8535 -36.377 L 49.8535 -36.7676 C 53.9551 -37.4512 57.0801 -41.5527 57.0801 -46.0938 C 57.0801 -52.832 51.709 -57.373 43.75 -57.373 C 36.8652 -57.373 31.8359 -53.3691 30.6641 -48.9746 C 30.3711 -48.1445 30.3223 -47.5098 30.3223 -46.7285 C 30.3223 -44.4824 31.6895 -43.0664 33.7402 -43.0664 C 35.4492 -43.0664 36.4746 -43.9453 37.1582 -45.5078 C 38.2324 -48.5352 40.3809 -50.1465 43.6035 -50.1465 C 46.875 -50.1465 49.1699 -48.0469 49.1699 -45.0195 C 49.1699 -42.041 46.9727 -39.6973 43.6035 -39.6973 L 41.6504 -39.6973 C 39.502 -39.6973 38.0859 -38.1836 38.0859 -35.9863 C 38.0859 -33.8379 39.3555 -32.2754 41.6504 -32.2754 L 43.75 -32.2754 C 47.6562 -32.2754 50.1953 -30.0781 50.1953 -26.6602 C 50.1953 -23.4863 47.5098 -20.9961 43.6035 -20.9961 C 40.2832 -21.0449 37.793 -22.7051 36.5723 -25.6836 C 35.791 -27.2461 34.7656 -28.0762 33.0566 -28.0762 C 31.25 -28.0762 29.5898 -26.709 29.5898 -24.4629 C 29.5898 -23.6816 29.6875 -22.998 29.9316 -22.3145 C 31.25 -17.6758 36.7676 -13.6719 43.5059 -13.6719 Z M 75.5859 -13.623 C 84.8633 -13.623 90.6738 -19.5312 90.6738 -28.4668 C 90.6738 -36.5723 85.2539 -41.8457 78.1738 -41.8457 C 74.8535 -41.8457 71.4844 -40.2832 69.9219 -37.9395 L 69.6777 -37.9395 L 70.5566 -49.3164 L 85.791 -49.3164 C 87.7441 -49.3164 89.1113 -50.6836 89.1113 -52.832 C 89.1113 -55.0293 87.8418 -56.3477 85.791 -56.3477 L 68.8477 -56.3477 C 65.8691 -56.3477 64.0625 -54.4922 63.8672 -51.3184 L 62.8418 -36.2793 C 62.6465 -33.3496 64.3066 -31.4941 66.9434 -31.4941 C 68.8965 -31.4941 69.9219 -32.0312 71.3379 -33.1543 C 73.1934 -34.7168 74.6094 -35.3516 76.6113 -35.3516 C 80.3711 -35.3516 83.0078 -32.4219 83.0078 -28.2227 C 83.0078 -23.9746 80.0293 -20.752 76.0254 -20.752 C 72.9492 -20.752 70.6055 -22.4121 69.2383 -24.8047 C 68.4082 -26.0742 67.4805 -26.9531 65.8691 -26.9531 C 63.8672 -26.9531 62.4023 -25.4883 62.4023 -23.3887 C 62.4023 -22.5098 62.5488 -21.7285 62.8906 -20.8984 C 64.3066 -17.041 69.1895 -13.623 75.5859 -13.623 Z"/>
  </g>
  <g id="Bold-M" transform="matrix(1 0 0 1 2279.5 1126)">
   <path d="M 60.4492 16.5039 C 88.8672 16.5039 112.207 -6.78711 112.207 -35.2051 C 112.207 -63.623 88.8672 -86.9629 60.4492 -86.9629 C 32.0312 -86.9629 8.74023 -63.623 8.74023 -35.2051 C 8.74023 -6.78711 32.0801 16.5039 60.4492 16.5039 Z M 60.4492 3.22266 C 39.1602 3.22266 22.0215 -13.916 22.0215 -35.2051 C 22.0215 -56.4941 39.1602 -73.6816 60.4492 -73.6816 C 81.7383 -73.6816 98.877 -56.4941 98.9258 -35.2051 C 98.9258 -13.916 81.7871 3.22266 60.4492 3.22266 Z M 44.3359 -13.8184 C 53.1738 -13.8184 59.0332 -18.7988 59.0332 -26.3184 C 59.0332 -31.5918 55.6641 -35.8887 50.9277 -36.2793 L 50.9277 -36.7188 C 54.9316 -37.3535 57.959 -41.4062 57.959 -45.752 C 57.959 -52.4902 52.5391 -56.9824 44.4824 -56.9824 C 37.6953 -56.9824 32.8613 -52.9785 31.6406 -49.0234 C 31.2988 -48.0469 31.2012 -47.3145 31.2012 -46.4844 C 31.2012 -43.9941 32.666 -42.5293 34.8633 -42.5293 C 36.7188 -42.5293 37.8418 -43.4082 38.623 -44.9707 C 39.7461 -47.6074 41.5527 -49.0234 44.3359 -49.0234 C 47.1191 -49.0234 49.1211 -47.2168 49.1211 -44.5312 C 49.1211 -41.9922 47.2656 -39.8926 44.3359 -39.8926 L 42.9199 -39.8926 C 40.4297 -39.8926 38.8672 -38.2324 38.8672 -35.791 C 38.8672 -33.3984 40.2344 -31.6406 42.9199 -31.6406 L 44.4336 -31.6406 C 47.7539 -31.6406 49.9512 -29.7363 49.9512 -26.8555 C 49.9512 -24.1699 47.7051 -22.0215 44.4336 -22.0215 C 41.6504 -22.0703 39.4043 -23.4863 38.1348 -26.123 C 37.2559 -27.6367 36.1328 -28.5156 34.3262 -28.5156 C 32.4219 -28.5156 30.5664 -27.0508 30.5664 -24.5117 C 30.5664 -23.7305 30.6641 -22.998 30.9082 -22.2168 C 32.2754 -17.7734 37.7441 -13.8184 44.3359 -13.8184 Z M 75.9277 -13.7695 C 85.2539 -13.7695 90.9668 -19.6777 90.9668 -28.5645 C 90.9668 -36.6211 85.5957 -41.6016 78.9551 -41.6016 C 75.7324 -41.6016 72.5586 -40.1367 70.9961 -37.7441 L 70.752 -37.7441 L 71.5332 -48.2422 L 85.6445 -48.2422 C 87.9395 -48.2422 89.4531 -49.707 89.4531 -52.1484 C 89.4531 -54.5898 88.0371 -56.0059 85.6445 -56.0059 L 69.2383 -56.0059 C 66.1133 -56.0059 64.3066 -54.0039 64.0625 -50.6348 L 63.1836 -36.0352 C 62.9883 -32.959 64.7949 -31.0059 67.5781 -31.0059 C 69.7266 -31.0059 70.8008 -31.5918 72.1191 -32.5684 C 73.7793 -33.9844 75.0488 -34.5703 76.9531 -34.5703 C 80.2246 -34.5703 82.5195 -31.9824 82.5195 -28.2715 C 82.5195 -24.5117 79.9805 -21.6309 76.416 -21.6309 C 73.6328 -21.6309 71.6797 -23.1934 70.3613 -25.1953 C 69.4824 -26.2695 68.6035 -27.2461 66.748 -27.2461 C 64.6484 -27.2461 62.9395 -25.7324 62.9395 -23.3887 C 62.9395 -22.5098 63.0859 -21.6797 63.4766 -20.752 C 64.8926 -17.2363 69.5801 -13.7695 75.9277 -13.7695 Z"/>
  </g>
  <g id="Heavy-M" transform="matrix(1 0 0 1 2575.19 1126)">
   <path d="M 61.4746 17.5781 C 90.5273 17.5781 114.258 -6.15234 114.258 -35.2051 C 114.258 -64.2578 90.5273 -87.9883 61.4746 -87.9883 C 32.4219 -87.9883 8.74023 -64.2578 8.74023 -35.2051 C 8.74023 -6.15234 32.4707 17.5781 61.4746 17.5781 Z M 61.4746 1.66016 C 41.1133 1.66016 24.6582 -14.8438 24.6582 -35.2051 C 24.6582 -55.5664 41.1133 -72.0703 61.4746 -72.0703 C 81.8359 -72.0703 98.3398 -55.5664 98.3398 -35.2051 C 98.3398 -14.8438 81.8848 1.66016 61.4746 1.66016 Z M 45.459 -14.0137 C 54.3457 -14.0137 60.0586 -18.8477 60.0586 -26.416 C 60.0586 -31.5918 56.9824 -35.791 52.4902 -36.1816 L 52.4902 -36.6211 C 56.2988 -37.2559 59.1797 -41.1133 59.1797 -45.2637 C 59.1797 -52.0508 53.8086 -56.4941 45.5566 -56.4941 C 38.916 -56.4941 34.3262 -52.4414 33.0566 -49.0723 C 32.6172 -47.9492 32.4219 -47.1191 32.4219 -46.1914 C 32.4219 -43.3594 34.1309 -41.6992 36.5234 -41.6992 C 38.5254 -41.6992 39.8438 -42.6758 40.7715 -44.1895 C 41.8945 -46.2891 43.3105 -47.3633 45.3613 -47.3633 C 47.4609 -47.3633 48.9746 -45.9473 48.9746 -43.75 C 48.9746 -41.9434 47.7539 -40.2344 45.4102 -40.2344 L 44.7266 -40.2344 C 41.7969 -40.2344 39.9902 -38.3301 39.9902 -35.498 C 39.9902 -32.7148 41.5039 -30.7129 44.7266 -30.7129 L 45.459 -30.7129 C 47.9492 -30.7129 49.5605 -29.2969 49.5605 -27.0996 C 49.5605 -25.1465 47.998 -23.5352 45.6543 -23.5352 C 43.6035 -23.5352 41.6992 -24.6094 40.4297 -26.709 C 39.4531 -28.1738 38.1348 -29.1504 36.1328 -29.1504 C 34.1309 -29.1504 31.9336 -27.5391 31.9336 -24.6582 C 31.9336 -23.7793 32.0801 -22.9492 32.373 -22.1191 C 33.7402 -17.9199 39.1602 -14.0137 45.459 -14.0137 Z M 76.416 -14.0137 C 85.8398 -14.0137 91.3574 -19.873 91.3574 -28.7598 C 91.3574 -36.6699 86.084 -41.2598 80.0781 -41.2598 C 77.002 -41.2598 74.1211 -39.8926 72.5586 -37.5488 L 72.3633 -37.5488 L 72.998 -46.6797 L 85.498 -46.6797 C 88.2324 -46.6797 89.9902 -48.291 89.9902 -51.1719 C 89.9902 -54.0039 88.3789 -55.5176 85.498 -55.5176 L 69.8242 -55.5176 C 66.5039 -55.5176 64.5996 -53.3691 64.4043 -49.6094 L 63.6719 -35.6445 C 63.4766 -32.373 65.4785 -30.3223 68.5059 -30.3223 C 70.9473 -30.3223 72.1191 -30.957 73.2422 -31.7871 C 74.6582 -32.959 75.7812 -33.3984 77.3926 -33.3984 C 79.9805 -33.3984 81.8848 -31.25 81.8848 -28.3203 C 81.8848 -25.3418 79.834 -22.9492 77.002 -22.9492 C 74.6582 -22.9492 73.291 -24.3164 72.0215 -25.7324 C 71.0938 -26.6113 70.2637 -27.7344 68.0664 -27.7344 C 65.7227 -27.7344 63.7695 -26.0742 63.7695 -23.3887 C 63.7695 -22.5098 63.8672 -21.6309 64.3555 -20.5566 C 65.7227 -17.4805 70.166 -14.0137 76.416 -14.0137 Z"/>
  </g>
  <g id="Black-M" transform="matrix(1 0 0 1 2871 1126)">
   <path d="M 62.4023 18.457 C 91.9922 18.457 116.064 -5.61523 116.064 -35.2051 C 116.064 -64.7949 91.9922 -88.8672 62.4023 -88.8672 C 32.8125 -88.8672 8.74023 -64.7949 8.74023 -35.2051 C 8.74023 -5.61523 32.8125 18.457 62.4023 18.457 Z M 62.4023 0.195312 C 42.8223 0.195312 27.002 -15.625 27.002 -35.2051 C 27.002 -54.7363 42.8223 -70.6055 62.4023 -70.6055 C 81.9824 -70.6055 97.8027 -54.7363 97.8027 -35.2051 C 97.8027 -15.625 81.9824 0.195312 62.4023 0.195312 Z M 46.5332 -14.209 C 55.4199 -14.209 61.0352 -18.9453 61.0352 -26.5625 C 61.0352 -31.5918 58.2031 -35.7422 53.9062 -36.0352 L 53.9062 -36.5723 C 57.5684 -37.1582 60.3027 -40.918 60.3027 -44.8242 C 60.3027 -51.6602 54.9316 -56.0059 46.4844 -56.0059 C 39.9902 -56.0059 35.6445 -51.9531 34.3262 -49.1211 C 33.7402 -47.8516 33.5449 -46.875 33.5449 -45.8984 C 33.5449 -42.7734 35.4004 -41.0156 38.0371 -41.0156 C 40.1367 -41.0156 41.6016 -41.9922 42.6758 -43.5059 C 43.8477 -45.1172 44.873 -45.8984 46.3379 -45.8984 C 47.7539 -45.8984 48.8281 -44.8242 48.8281 -43.1152 C 48.8281 -41.8945 48.1445 -40.5273 46.3867 -40.5273 C 43.0664 -40.5273 41.0156 -38.3789 41.0156 -35.2539 C 41.0156 -32.0801 42.6758 -29.8828 46.3867 -29.8828 C 48.1445 -29.8828 49.2188 -28.8574 49.2188 -27.2949 C 49.2188 -26.0254 48.2422 -24.8535 46.7285 -24.8535 C 45.3125 -24.8535 43.75 -25.6348 42.4805 -27.2461 C 41.3574 -28.6621 39.8926 -29.6875 37.793 -29.6875 C 35.6445 -29.6875 33.1543 -27.9785 33.1543 -24.8047 C 33.1543 -23.877 33.3496 -22.9004 33.6426 -22.0215 C 35.1074 -18.0664 40.4297 -14.209 46.5332 -14.209 Z M 76.8555 -14.209 C 86.3281 -14.209 91.748 -20.0684 91.748 -28.9062 C 91.748 -36.7676 86.5234 -40.9668 81.1035 -40.9668 C 78.125 -40.9668 75.5371 -39.6973 73.9746 -37.3535 L 73.7793 -37.3535 L 74.3164 -45.3125 L 85.3516 -45.3125 C 88.5254 -45.3125 90.4785 -47.0703 90.4785 -50.2441 C 90.4785 -53.4668 88.623 -55.0781 85.3516 -55.0781 L 70.3125 -55.0781 C 66.8457 -55.0781 64.8926 -52.7832 64.6973 -48.7305 L 64.1113 -35.3516 C 63.916 -31.8359 66.1133 -29.7363 69.3359 -29.7363 C 72.0703 -29.7363 73.291 -30.4199 74.2188 -31.0547 C 75.4395 -31.9824 76.3672 -32.373 77.7832 -32.373 C 79.7363 -32.373 81.2988 -30.6641 81.2988 -28.418 C 81.2988 -26.0742 79.7363 -24.1211 77.4902 -24.1211 C 75.5371 -24.1211 74.707 -25.293 73.5352 -26.2207 C 72.5098 -26.9043 71.7285 -28.1738 69.2871 -28.1738 C 66.6992 -28.1738 64.502 -26.3672 64.502 -23.4375 C 64.502 -22.4609 64.5508 -21.6309 65.1367 -20.4102 C 66.4062 -17.7246 70.6543 -14.209 76.8555 -14.209 Z"/>
  </g>
  <g id="Ultralight-L" transform="matrix(1 0 0 1 487.641 1556)">
   <path d="M 72.0703 25.7324 C 105.566 25.7324 132.91 -1.61133 132.91 -35.1074 C 132.91 -68.5547 105.566 -95.8984 72.0703 -95.8984 C 38.623 -95.8984 11.2793 -68.5547 11.2793 -35.1074 C 11.2793 -1.61133 38.623 25.7324 72.0703 25.7324 Z M 72.0703 23.2422 C 39.9414 23.2422 13.7695 -2.97852 13.7695 -35.1074 C 13.7695 -67.2363 39.9414 -93.4082 72.0703 -93.4082 C 104.199 -93.4082 130.42 -67.2363 130.371 -35.1074 C 130.371 -2.97852 104.199 23.2422 72.0703 23.2422 Z M 50.4883 -6.44531 C 61.2793 -6.44531 69.0918 -13.0859 69.0918 -22.2168 C 69.0918 -29.1992 63.3301 -35.1562 55.8594 -35.8887 L 55.8594 -36.2305 C 62.3535 -37.4512 67.041 -43.1641 67.041 -49.707 C 67.041 -57.7148 59.9609 -63.4766 50.3418 -63.4766 C 42.2363 -63.4766 34.9609 -58.9355 34.2285 -52.4414 C 34.1309 -51.8066 34.082 -51.3672 34.082 -50.8301 C 34.082 -49.9023 34.6191 -49.2676 35.4492 -49.2676 C 36.4258 -49.2676 37.0117 -49.7559 37.0605 -50.7324 C 37.6953 -56.5918 43.3105 -60.791 50.3906 -60.791 C 58.4961 -60.791 63.9648 -56.1523 63.9648 -49.3652 C 63.9648 -42.627 58.1543 -37.3047 50.8301 -37.3047 L 45.166 -37.3047 C 44.3359 -37.3047 43.75 -36.7676 43.75 -35.9375 C 43.75 -35.0586 44.3359 -34.5215 45.166 -34.5215 L 51.3184 -34.5215 C 59.6191 -34.5215 66.0156 -29.1504 66.0156 -22.168 C 66.0156 -14.4043 59.7168 -9.13086 50.4883 -9.13086 C 43.1641 -9.13086 37.0117 -13.3789 35.8398 -19.1895 C 35.6445 -20.2148 35.1074 -20.6543 34.2285 -20.6543 C 33.3984 -20.6543 32.7637 -20.0195 32.7637 -19.0918 C 32.7637 -18.5547 32.8613 -18.1152 33.0078 -17.4805 C 34.9609 -10.8398 42.041 -6.44531 50.4883 -6.44531 Z M 92.9688 -6.44531 C 104.15 -6.44531 111.768 -13.916 111.768 -24.8535 C 111.768 -35.2051 104.346 -42.6758 93.9453 -42.6758 C 88.5742 -42.6758 83.2031 -40.1855 79.9805 -35.8887 L 79.6387 -35.8887 L 81.6406 -59.9121 L 107.617 -59.9121 C 108.496 -59.9121 109.082 -60.5469 109.082 -61.3281 C 109.082 -62.1094 108.496 -62.7441 107.617 -62.7441 L 80.8594 -62.7441 C 79.5898 -62.7441 78.9062 -61.9629 78.7598 -60.6445 L 76.6602 -33.8379 C 76.5625 -32.8613 77.1973 -32.1289 78.3203 -32.1289 C 79.1016 -32.1289 79.3945 -32.3242 79.9316 -32.959 C 84.4238 -38.0859 88.3301 -39.9414 93.7012 -39.9414 C 102.637 -39.9414 108.887 -33.6426 108.887 -24.8047 C 108.887 -15.8203 102.295 -9.22852 93.457 -9.22852 C 85.9375 -9.22852 79.7852 -13.4277 78.418 -18.9453 C 78.2227 -19.873 77.7344 -20.3125 76.9043 -20.3125 C 76.1719 -20.3125 75.5859 -19.7754 75.5859 -19.043 C 75.5859 -18.7012 75.6836 -18.4082 75.7324 -18.1641 C 77.3926 -11.377 83.7891 -6.44531 92.9688 -6.44531 Z"/>
  </g>
  <g id="Thin-L" transform="matrix(1 0 0 1 783.717 1556)">
   <path d="M 72.7051 26.3184 C 106.494 26.3184 134.131 -1.36719 134.131 -35.1074 C 134.131 -68.8965 106.445 -96.582 72.7051 -96.582 C 38.916 -96.582 11.2793 -68.8965 11.2793 -35.1074 C 11.2793 -1.36719 38.916 26.3184 72.7051 26.3184 Z M 72.7051 22.3145 C 41.0156 22.3145 15.2344 -3.41797 15.2344 -35.1074 C 15.2344 -66.8457 41.0156 -92.5781 72.7051 -92.5781 C 104.395 -92.5781 130.127 -66.8457 130.176 -35.1074 C 130.176 -3.41797 104.395 22.3145 72.7051 22.3145 Z M 51.1719 -6.54297 C 62.1094 -6.54297 69.9219 -13.2324 69.9219 -22.4609 C 69.9219 -29.4434 64.2578 -35.3516 56.9336 -36.084 L 56.9336 -36.4258 C 63.2812 -37.5977 67.9199 -43.3105 67.9199 -49.7559 C 67.9199 -57.8613 60.8398 -63.6719 51.1719 -63.6719 C 42.8711 -63.6719 35.6445 -59.0332 34.8145 -52.5391 C 34.7168 -51.8555 34.6191 -51.3672 34.6191 -50.7812 C 34.6191 -49.5605 35.3516 -48.7793 36.4746 -48.7793 C 37.5977 -48.7793 38.2812 -49.3652 38.4277 -50.5371 C 39.209 -56.2012 44.3848 -60.1074 51.123 -60.1074 C 58.7402 -60.1074 63.916 -55.7129 63.916 -49.3164 C 63.916 -42.8711 58.4473 -37.8906 51.5137 -37.8906 L 46.2402 -37.8906 C 45.1172 -37.8906 44.3848 -37.1582 44.3848 -36.084 C 44.3848 -34.9609 45.1172 -34.2285 46.2402 -34.2285 L 51.9531 -34.2285 C 59.9121 -34.2285 65.8691 -29.1504 65.8691 -22.4609 C 65.8691 -15.1367 59.9121 -10.1074 51.1719 -10.1074 C 44.1895 -10.1562 38.4766 -14.0625 37.2559 -19.6777 C 36.9629 -20.8984 36.3281 -21.4355 35.2539 -21.4355 C 34.1797 -21.4355 33.3496 -20.6543 33.3496 -19.4336 C 33.3496 -18.8477 33.4473 -18.3594 33.5938 -17.6758 C 35.498 -11.1328 42.627 -6.54297 51.1719 -6.54297 Z M 93.6523 -6.54297 C 104.98 -6.54297 112.598 -14.0137 112.598 -25.0977 C 112.598 -35.498 105.225 -42.9688 94.873 -42.9688 C 89.6484 -42.9688 84.4238 -40.5273 81.3965 -36.4746 L 81.0547 -36.4746 L 82.959 -59.1797 L 108.252 -59.1797 C 109.277 -59.1797 110.01 -59.9609 110.01 -60.9863 C 110.01 -62.0117 109.277 -62.8418 108.252 -62.8418 L 82.1289 -62.8418 C 80.4688 -62.8418 79.541 -61.8164 79.3457 -60.0586 L 77.2949 -34.4727 C 77.1973 -33.0078 78.0273 -31.9824 79.4922 -31.9824 C 80.5176 -31.9824 81.0059 -32.2754 81.7871 -33.1055 C 85.9863 -37.7441 89.5996 -39.4531 94.5312 -39.4531 C 102.93 -39.4531 108.74 -33.4961 108.74 -25 C 108.74 -16.4551 102.49 -10.2051 94.1406 -10.2051 C 87.1582 -10.2051 81.3965 -14.0625 79.9316 -19.2871 C 79.5898 -20.4102 78.9551 -20.9473 78.0273 -20.9473 C 77.002 -20.9473 76.2695 -20.2148 76.2695 -19.1895 C 76.2695 -18.7012 76.3672 -18.3105 76.4648 -17.9688 C 78.1738 -11.377 84.6191 -6.54297 93.6523 -6.54297 Z"/>
  </g>
  <g id="Light-L" transform="matrix(1 0 0 1 1079.21 1556)">
   <path d="M 73.9258 27.4902 C 108.301 27.4902 136.572 -0.830078 136.572 -35.1562 C 136.572 -69.5312 108.252 -97.8516 73.877 -97.8516 C 39.5508 -97.8516 11.2793 -69.5312 11.2793 -35.1562 C 11.2793 -0.830078 39.5508 27.4902 73.9258 27.4902 Z M 73.9258 20.6055 C 43.0664 20.6055 18.1641 -4.3457 18.1641 -35.1562 C 18.1641 -66.0156 43.0664 -90.918 73.877 -90.918 C 104.736 -90.918 129.639 -66.0156 129.688 -35.1562 C 129.736 -4.3457 104.785 20.6055 73.9258 20.6055 Z M 52.5391 -6.73828 C 63.623 -6.73828 71.4844 -13.4766 71.4844 -22.9004 C 71.4844 -29.8828 66.1621 -35.7422 59.082 -36.4258 L 59.082 -36.8164 C 65.0879 -37.8418 69.5801 -43.5059 69.5801 -49.9023 C 69.5801 -58.2031 62.5488 -64.0625 52.7344 -64.0625 C 44.0918 -64.0625 37.0117 -59.2285 35.9375 -52.6855 C 35.791 -51.9531 35.7422 -51.3672 35.7422 -50.6836 C 35.7422 -48.9746 36.8164 -47.8027 38.3789 -47.8027 C 39.8926 -47.8027 40.7715 -48.6328 41.1133 -50.1465 C 42.1387 -55.4688 46.5332 -58.7891 52.6367 -58.7891 C 59.2773 -58.7891 63.8184 -54.834 63.8184 -49.1699 C 63.8184 -43.4082 59.082 -39.0137 52.832 -39.0137 L 48.2422 -39.0137 C 46.7285 -39.0137 45.6543 -37.9395 45.6543 -36.3281 C 45.6543 -34.7656 46.7285 -33.6426 48.2422 -33.6426 L 53.2227 -33.6426 C 60.4492 -33.6426 65.6738 -29.1992 65.6738 -23.0469 C 65.6738 -16.6016 60.3516 -12.0605 52.5879 -12.0605 C 46.2891 -12.1094 41.4062 -15.4785 39.9902 -20.6543 C 39.502 -22.2656 38.6719 -22.998 37.2559 -22.998 C 35.6934 -22.998 34.5215 -21.875 34.5215 -20.166 C 34.5215 -19.4336 34.6191 -18.8477 34.8145 -18.1152 C 36.5723 -11.6699 43.75 -6.73828 52.5391 -6.73828 Z M 94.9707 -6.73828 C 106.543 -6.73828 114.209 -14.3066 114.209 -25.5859 C 114.209 -36.084 106.982 -43.5547 96.6797 -43.5547 C 91.7969 -43.5547 86.7676 -41.2109 84.1797 -37.5977 L 83.8379 -37.5977 L 85.4492 -57.7148 L 109.424 -57.7148 C 110.791 -57.7148 111.816 -58.8379 111.816 -60.3516 C 111.816 -61.8652 110.84 -62.9883 109.424 -62.9883 L 84.668 -62.9883 C 82.1777 -62.9883 80.6641 -61.4746 80.4199 -58.9844 L 78.6133 -35.6445 C 78.418 -33.3496 79.6875 -31.7871 81.8848 -31.7871 C 83.3008 -31.7871 84.082 -32.1777 85.498 -33.3984 C 89.0625 -37.1094 91.9922 -38.4766 96.0938 -38.4766 C 103.418 -38.4766 108.447 -33.1543 108.447 -25.4883 C 108.447 -17.7246 102.881 -12.0605 95.459 -12.0605 C 89.502 -12.0605 84.5215 -15.2832 82.8613 -20.0195 C 82.2754 -21.4844 81.3477 -22.168 80.127 -22.168 C 78.6133 -22.168 77.5391 -21.0449 77.5391 -19.5312 C 77.5391 -18.75 77.6855 -18.1152 77.8809 -17.5293 C 79.7363 -11.377 86.2793 -6.73828 94.9707 -6.73828 Z"/>
  </g>
  <g id="Regular-L" transform="matrix(1 0 0 1 1374.99 1556)">
   <path d="M 74.8535 28.3691 C 109.668 28.3691 138.428 -0.390625 138.428 -35.2051 C 138.428 -70.0195 109.619 -98.7793 74.8047 -98.7793 C 39.9902 -98.7793 11.2793 -70.0195 11.2793 -35.2051 C 11.2793 -0.390625 40.0391 28.3691 74.8535 28.3691 Z M 74.8535 19.2871 C 44.6289 19.2871 20.4102 -5.0293 20.4102 -35.2051 C 20.4102 -65.3809 44.5801 -89.6973 74.8047 -89.6973 C 104.98 -89.6973 129.297 -65.3809 129.346 -35.2051 C 129.395 -5.0293 105.029 19.2871 74.8535 19.2871 Z M 53.6133 -6.93359 C 64.7949 -6.93359 72.7051 -13.7207 72.7051 -23.1934 C 72.7051 -30.2734 67.5781 -36.0352 60.6934 -36.6699 L 60.6934 -37.1094 C 66.4551 -38.0859 70.8496 -43.6523 70.8496 -50 C 70.8496 -58.4473 63.8184 -64.3555 53.9062 -64.3555 C 45.0195 -64.3555 38.0859 -59.3262 36.7676 -52.832 C 36.5723 -52.0508 36.5723 -51.416 36.5723 -50.5859 C 36.5723 -48.4863 37.8906 -47.1191 39.8438 -47.1191 C 41.6504 -47.1191 42.627 -48.0469 43.1641 -49.9023 C 44.3848 -54.8828 48.1934 -57.7637 53.7598 -57.7637 C 59.668 -57.7637 63.7207 -54.1992 63.7207 -49.0723 C 63.7207 -43.7988 59.5215 -39.8926 53.8086 -39.8926 L 49.7559 -39.8926 C 47.9004 -39.8926 46.6309 -38.5254 46.6309 -36.5234 C 46.6309 -34.6191 47.9004 -33.2031 49.7559 -33.2031 L 54.1504 -33.2031 C 60.8887 -33.2031 65.4785 -29.248 65.4785 -23.4863 C 65.4785 -17.7246 60.6445 -13.5254 53.6621 -13.5254 C 47.8027 -13.5742 43.6035 -16.5527 42.0898 -21.3867 C 41.4062 -23.3398 40.4297 -24.2188 38.7207 -24.2188 C 36.8164 -24.2188 35.4004 -22.8027 35.4004 -20.7031 C 35.4004 -19.873 35.498 -19.2383 35.6934 -18.457 C 37.4023 -12.0605 44.6289 -6.93359 53.6133 -6.93359 Z M 95.9961 -6.88477 C 107.764 -6.88477 115.43 -14.502 115.43 -25.9766 C 115.43 -36.5234 108.301 -43.9453 98.0469 -43.9453 C 93.4082 -43.9453 88.5254 -41.6992 86.2793 -38.4277 L 85.9375 -38.4277 L 87.3535 -56.6406 L 110.303 -56.6406 C 111.963 -56.6406 113.184 -58.0078 113.184 -59.8633 C 113.184 -61.7676 112.012 -63.1348 110.303 -63.1348 L 86.5723 -63.1348 C 83.4961 -63.1348 81.543 -61.2305 81.2988 -58.2031 L 79.5898 -36.5234 C 79.3457 -33.5938 80.957 -31.5918 83.6426 -31.5918 C 85.4004 -31.5918 86.4746 -32.0801 88.2812 -33.5938 C 91.4062 -36.5723 93.8477 -37.6953 97.3145 -37.6953 C 103.809 -37.6953 108.252 -32.9102 108.252 -25.8301 C 108.252 -18.7012 103.223 -13.4277 96.4844 -13.4277 C 91.2598 -13.4277 86.9141 -16.2598 85.1074 -20.5566 C 84.2773 -22.2656 83.1543 -23.0957 81.7383 -23.0957 C 79.834 -23.0957 78.5156 -21.6797 78.5156 -19.7266 C 78.5156 -18.7988 78.7109 -17.9688 79.0039 -17.2363 C 80.8594 -11.377 87.5 -6.88477 95.9961 -6.88477 Z"/>
  </g>
  <g id="Medium-L" transform="matrix(1 0 0 1 1670.9 1556)">
   <path d="M 75.6348 29.1992 C 110.938 29.1992 140.039 0.0488281 140.039 -35.2051 C 140.039 -70.459 110.889 -99.6094 75.5859 -99.6094 C 40.332 -99.6094 11.2793 -70.459 11.2793 -35.2051 C 11.2793 0.0488281 40.3809 29.1992 75.6348 29.1992 Z M 75.6348 18.0664 C 46.1426 18.0664 22.4609 -5.71289 22.4609 -35.2051 C 22.4609 -64.6973 46.0938 -88.4766 75.5859 -88.4766 C 105.127 -88.4766 128.857 -64.6973 128.906 -35.2051 C 128.955 -5.71289 105.176 18.0664 75.6348 18.0664 Z M 54.4922 -7.08008 C 65.7715 -7.08008 73.584 -13.7695 73.584 -23.3398 C 73.584 -30.3223 68.6523 -36.0352 61.9629 -36.6699 L 61.9629 -37.1094 C 67.5781 -38.0371 71.8262 -43.5547 71.8262 -49.707 C 71.8262 -58.2031 64.8438 -64.1113 54.7852 -64.1113 C 45.9473 -64.1113 39.1602 -59.0332 37.793 -52.8809 C 37.5488 -51.9531 37.5 -51.2695 37.5 -50.3906 C 37.5 -47.998 38.9648 -46.4844 41.1621 -46.4844 C 43.0664 -46.4844 44.1895 -47.4609 44.8242 -49.3652 C 46.1426 -53.9551 49.5605 -56.5918 54.6387 -56.5918 C 59.9609 -56.5918 63.623 -53.3203 63.623 -48.6328 C 63.623 -43.8477 59.9121 -40.2344 54.6875 -40.2344 L 51.2207 -40.2344 C 49.0234 -40.2344 47.5098 -38.6719 47.5098 -36.377 C 47.5098 -34.1797 48.9258 -32.5195 51.2207 -32.5195 L 54.9805 -32.5195 C 61.084 -32.5195 65.2344 -28.9551 65.2344 -23.7305 C 65.2344 -18.5547 60.8398 -14.6973 54.5898 -14.6973 C 49.3164 -14.7461 45.4102 -17.4316 43.8965 -21.9238 C 43.1152 -23.877 41.9922 -24.8047 40.1367 -24.8047 C 38.1348 -24.8047 36.4258 -23.2422 36.4258 -20.8984 C 36.4258 -20.0195 36.5234 -19.2871 36.7676 -18.457 C 38.4766 -12.2559 45.6543 -7.08008 54.4922 -7.08008 Z M 96.4844 -7.03125 C 108.35 -7.03125 115.918 -14.6484 115.918 -26.123 C 115.918 -36.6699 108.838 -43.8477 99.0234 -43.8477 C 94.4824 -43.8477 89.8438 -41.6992 87.6465 -38.4277 L 87.3047 -38.4277 L 88.623 -55.4688 L 110.352 -55.4688 C 112.354 -55.4688 113.77 -56.9824 113.77 -59.1797 C 113.77 -61.377 112.402 -62.8418 110.352 -62.8418 L 87.2559 -62.8418 C 83.9355 -62.8418 81.8848 -60.791 81.6406 -57.4219 L 80.0781 -36.4258 C 79.834 -33.252 81.6406 -31.1523 84.5215 -31.1523 C 86.5723 -31.1523 87.6953 -31.6895 89.502 -33.1543 C 92.334 -35.8398 94.5801 -36.8652 97.8027 -36.8652 C 103.711 -36.8652 107.812 -32.4219 107.812 -25.9277 C 107.812 -19.3848 103.223 -14.5508 97.0215 -14.5508 C 92.2363 -14.5508 88.3301 -17.0898 86.5723 -20.9961 C 85.6445 -22.6074 84.5215 -23.584 82.8613 -23.584 C 80.7129 -23.584 79.1992 -21.9727 79.1992 -19.7754 C 79.1992 -18.7988 79.3945 -17.9199 79.7363 -17.041 C 81.5918 -11.5234 88.0859 -7.03125 96.4844 -7.03125 Z"/>
  </g>
  <g id="Semibold-L" transform="matrix(1 0 0 1 1967 1556)">
   <path d="M 76.2695 29.7852 C 111.914 29.7852 141.26 0.439453 141.26 -35.2051 C 141.26 -70.8496 111.865 -100.244 76.2207 -100.244 C 40.5762 -100.244 11.2793 -70.8496 11.2793 -35.2051 C 11.2793 0.439453 40.625 29.7852 76.2695 29.7852 Z M 76.2695 17.0898 C 47.3145 17.0898 24.0234 -6.25 24.0234 -35.2051 C 24.0234 -64.209 47.2656 -87.5 76.2207 -87.5 C 105.225 -87.5 128.516 -64.209 128.564 -35.2051 C 128.613 -6.25 105.273 17.0898 76.2695 17.0898 Z M 55.2246 -7.22656 C 66.5039 -7.22656 74.2676 -13.8672 74.2676 -23.4375 C 74.2676 -30.3711 69.4824 -36.0352 62.9395 -36.6211 L 62.9395 -37.1094 C 68.457 -38.0371 72.6074 -43.457 72.6074 -49.4629 C 72.6074 -58.0078 65.5762 -63.916 55.4688 -63.916 C 46.6309 -63.916 40.0391 -58.7891 38.623 -52.9297 C 38.2812 -51.9043 38.2324 -51.1719 38.2324 -50.1953 C 38.2324 -47.6562 39.7949 -45.9961 42.1387 -45.9961 C 44.1895 -45.9961 45.4102 -47.0215 46.1426 -48.9258 C 47.4609 -53.2227 50.6348 -55.6641 55.2734 -55.6641 C 60.1562 -55.6641 63.5742 -52.6367 63.5742 -48.2422 C 63.5742 -43.8477 60.2051 -40.4785 55.3223 -40.4785 L 52.2949 -40.4785 C 49.8047 -40.4785 48.1934 -38.8184 48.1934 -36.2793 C 48.1934 -33.8379 49.707 -32.0312 52.2949 -32.0312 L 55.5664 -32.0312 C 61.2305 -32.0312 65.0391 -28.7598 65.0391 -23.9258 C 65.0391 -19.1895 61.0352 -15.625 55.3223 -15.625 C 50.4883 -15.6738 46.8262 -18.1152 45.2637 -22.3145 C 44.3848 -24.2676 43.2129 -25.2441 41.2109 -25.2441 C 39.0625 -25.2441 37.207 -23.6328 37.207 -21.0449 C 37.207 -20.1172 37.3535 -19.3359 37.5977 -18.457 C 39.3066 -12.3535 46.4844 -7.22656 55.2246 -7.22656 Z M 96.875 -7.17773 C 108.789 -7.17773 116.309 -14.7949 116.309 -26.2695 C 116.309 -36.7676 109.277 -43.75 99.7559 -43.75 C 95.3125 -43.75 90.8203 -41.6504 88.6719 -38.4766 L 88.3301 -38.4766 L 89.5996 -54.5898 L 110.4 -54.5898 C 112.646 -54.5898 114.209 -56.2012 114.209 -58.6426 C 114.209 -61.084 112.695 -62.6465 110.4 -62.6465 L 87.793 -62.6465 C 84.2773 -62.6465 82.1777 -60.4492 81.8848 -56.7871 L 80.4199 -36.377 C 80.1758 -33.0078 82.1289 -30.8105 85.2539 -30.8105 C 87.4512 -30.8105 88.6719 -31.3965 90.3809 -32.8125 C 93.1152 -35.2539 95.166 -36.2305 98.1934 -36.2305 C 103.662 -36.2305 107.471 -32.0312 107.471 -26.0254 C 107.471 -19.9219 103.174 -15.332 97.4609 -15.332 C 92.9688 -15.332 89.4043 -17.7734 87.6465 -21.2891 C 86.6699 -22.9004 85.5469 -23.9258 83.6914 -23.9258 C 81.3965 -23.9258 79.7363 -22.2656 79.7363 -19.8242 C 79.7363 -18.7988 79.8828 -17.8711 80.3223 -16.9434 C 82.1289 -11.6699 88.5254 -7.17773 96.875 -7.17773 Z"/>
  </g>
  <g id="Bold-L" transform="matrix(1 0 0 1 2262.9 1556)">
   <path d="M 77.0996 30.6152 C 113.184 30.6152 142.92 0.878906 142.92 -35.2051 C 142.92 -71.3379 113.135 -101.025 77.0508 -101.025 C 40.918 -101.025 11.2793 -71.3379 11.2793 -35.2051 C 11.2793 0.878906 40.9668 30.6152 77.0996 30.6152 Z M 77.0996 15.8691 C 48.7793 15.8691 26.0742 -6.93359 26.0742 -35.2051 C 26.0742 -63.4766 48.7793 -86.2793 77.0508 -86.2793 C 105.322 -86.2793 128.125 -63.4766 128.125 -35.2051 C 128.174 -6.93359 105.371 15.8691 77.0996 15.8691 Z M 56.1035 -7.37305 C 67.4805 -7.37305 75.1465 -13.916 75.1465 -23.584 C 75.1465 -30.4199 70.6055 -36.0352 64.209 -36.6211 L 64.209 -37.1094 C 69.5801 -37.9883 73.6328 -43.3105 73.6328 -49.1699 C 73.6328 -57.7637 66.6504 -63.623 56.3477 -63.623 C 47.5586 -63.623 41.1133 -58.4961 39.6484 -52.9785 C 39.2578 -51.8555 39.1602 -51.0254 39.1602 -50 C 39.1602 -47.1191 40.918 -45.3613 43.457 -45.3613 C 45.6543 -45.3613 46.9727 -46.4844 47.8516 -48.3887 C 49.2188 -52.2949 52.002 -54.4434 56.1523 -54.4434 C 60.4492 -54.4434 63.4766 -51.709 63.4766 -47.7539 C 63.4766 -43.8965 60.5469 -40.8691 56.2012 -40.8691 L 53.7109 -40.8691 C 50.9277 -40.8691 49.1211 -38.9648 49.1211 -36.1328 C 49.1211 -33.3496 50.7324 -31.3477 53.7109 -31.3477 L 56.3965 -31.3477 C 61.4258 -31.3477 64.7461 -28.4668 64.7461 -24.1211 C 64.7461 -20.0195 61.2793 -16.7969 56.25 -16.7969 C 52.002 -16.8457 48.6816 -19.043 47.1191 -22.8516 C 46.0938 -24.8047 44.8242 -25.8789 42.6758 -25.8789 C 40.3809 -25.8789 38.2324 -24.1211 38.2324 -21.1914 C 38.2324 -20.2148 38.3789 -19.3848 38.6719 -18.457 C 40.3809 -12.5488 47.5098 -7.37305 56.1035 -7.37305 Z M 97.3633 -7.37305 C 109.326 -7.37305 116.797 -14.9414 116.797 -26.4648 C 116.797 -36.8652 109.814 -43.6035 100.732 -43.6035 C 96.4355 -43.6035 92.1387 -41.6016 90.0391 -38.4766 L 89.6973 -38.4766 L 90.8691 -53.3691 L 110.449 -53.3691 C 113.037 -53.3691 114.795 -55.127 114.795 -57.9102 C 114.795 -60.6445 113.135 -62.3535 110.449 -62.3535 L 88.5254 -62.3535 C 84.7656 -62.3535 82.5195 -60.0098 82.2754 -56.0059 L 80.9082 -36.3281 C 80.6641 -32.666 82.8125 -30.3223 86.1328 -30.3223 C 88.623 -30.3223 89.8926 -31.0059 91.6016 -32.3242 C 94.0918 -34.5215 95.9473 -35.3516 98.6816 -35.3516 C 103.564 -35.3516 107.031 -31.543 107.031 -26.123 C 107.031 -20.6055 103.174 -16.4551 97.998 -16.4551 C 93.8965 -16.4551 90.8691 -18.6523 89.1113 -21.7285 C 88.0859 -23.2422 86.9629 -24.4141 84.8633 -24.4141 C 82.3242 -24.4141 80.4199 -22.5586 80.4199 -19.873 C 80.4199 -18.7988 80.5664 -17.8223 81.0547 -16.748 C 82.8613 -11.8164 89.1113 -7.37305 97.3633 -7.37305 Z"/>
  </g>
  <g id="Heavy-L" transform="matrix(1 0 0 1 2558.42 1556)">
   <path d="M 78.2715 31.7871 C 115.039 31.7871 145.264 1.61133 145.264 -35.2051 C 145.264 -72.0215 115.039 -102.197 78.2227 -102.197 C 41.4551 -102.197 11.2793 -72.0215 11.2793 -35.2051 C 11.2793 1.61133 41.4551 31.7871 78.2715 31.7871 Z M 78.2715 14.0137 C 50.9766 14.0137 29.0527 -7.95898 29.0527 -35.2051 C 29.0527 -62.5 50.9766 -84.4727 78.2227 -84.4727 C 105.518 -84.4727 127.49 -62.5 127.49 -35.2051 C 127.539 -7.95898 105.518 14.0137 78.2715 14.0137 Z M 57.4707 -7.61719 C 68.8965 -7.61719 76.416 -14.0625 76.416 -23.7793 C 76.416 -30.5176 72.168 -36.0352 66.0645 -36.5723 L 66.0645 -37.1094 C 71.1914 -37.9883 75.0977 -43.1152 75.0977 -48.7305 C 75.0977 -57.4219 68.1152 -63.2324 57.666 -63.2324 C 48.9258 -63.2324 42.7246 -58.0566 41.1621 -53.0273 C 40.6738 -51.7578 40.5273 -50.7812 40.5273 -49.707 C 40.5273 -46.3867 42.5293 -44.4336 45.3613 -44.4336 C 47.8027 -44.4336 49.3164 -45.6055 50.3418 -47.6074 C 51.8066 -50.9277 54.0527 -52.6367 57.4219 -52.6367 C 60.8887 -52.6367 63.3301 -50.3906 63.3301 -47.0703 C 63.3301 -43.9941 61.1328 -41.3574 57.4707 -41.3574 L 55.8105 -41.3574 C 52.4902 -41.3574 50.3906 -39.1602 50.3906 -35.8887 C 50.3906 -32.7148 52.2461 -30.4199 55.8105 -30.4199 L 57.5684 -30.4199 C 61.7188 -30.4199 64.3555 -28.0762 64.3555 -24.4629 C 64.3555 -21.1914 61.6211 -18.5547 57.6172 -18.5547 C 54.1992 -18.6035 51.3672 -20.3613 49.7559 -23.584 C 48.584 -25.5859 47.1191 -26.7578 44.7266 -26.7578 C 42.2363 -26.7578 39.7461 -24.8047 39.7461 -21.4844 C 39.7461 -20.4102 39.8926 -19.4336 40.2344 -18.457 C 41.9434 -12.793 49.0234 -7.61719 57.4707 -7.61719 Z M 98.0957 -7.61719 C 110.205 -7.61719 117.48 -15.1855 117.48 -26.709 C 117.48 -37.0605 110.596 -43.4082 102.148 -43.4082 C 97.998 -43.4082 94.043 -41.5527 92.041 -38.4766 L 91.6992 -38.4766 L 92.6758 -51.6602 L 110.547 -51.6602 C 113.623 -51.6602 115.625 -53.6133 115.625 -56.8359 C 115.625 -60.1074 113.721 -61.9629 110.547 -61.9629 L 89.5508 -61.9629 C 85.4492 -61.9629 83.0566 -59.3262 82.8125 -54.8828 L 81.6406 -36.2305 C 81.3965 -32.1777 83.7891 -29.6387 87.4512 -29.6387 C 90.2832 -29.6387 91.748 -30.3711 93.3594 -31.6406 C 95.5078 -33.3984 97.0703 -34.082 99.4141 -34.082 C 103.467 -34.082 106.348 -30.8594 106.348 -26.2695 C 106.348 -21.6309 103.174 -18.0176 98.7793 -18.0176 C 95.3125 -18.0176 92.9199 -19.9219 91.2598 -22.3633 C 90.0879 -23.7793 88.916 -25.0977 86.4746 -25.0977 C 83.6426 -25.0977 81.4453 -23.0469 81.4453 -19.9707 C 81.4453 -18.7988 81.5918 -17.7734 82.1289 -16.5039 C 83.9355 -12.0605 89.9414 -7.61719 98.0957 -7.61719 Z"/>
  </g>
  <g id="Black-L" transform="matrix(1 0 0 1 2854.08 1556)">
   <path d="M 79.2969 32.8613 C 116.748 32.8613 147.363 2.19727 147.363 -35.2051 C 147.363 -72.6074 116.699 -103.271 79.2969 -103.271 C 41.8945 -103.271 11.2793 -72.6074 11.2793 -35.2051 C 11.2793 2.19727 41.8945 32.8613 79.2969 32.8613 Z M 79.2969 12.4023 C 52.9297 12.4023 31.7383 -8.83789 31.7383 -35.2051 C 31.7383 -61.5723 52.9297 -82.8125 79.2969 -82.8125 C 105.664 -82.8125 126.904 -61.5723 126.953 -35.2051 C 126.953 -8.83789 105.664 12.4023 79.2969 12.4023 Z M 58.6426 -7.86133 C 70.1172 -7.86133 77.5879 -14.1602 77.5879 -23.9258 C 77.5879 -30.6152 73.584 -36.084 67.7734 -36.5234 L 67.7734 -37.1582 C 72.6562 -37.9395 76.3672 -42.9688 76.3672 -48.3398 C 76.3672 -57.1289 69.4336 -62.8906 58.7891 -62.8906 C 50.1465 -62.8906 44.1895 -57.6172 42.5293 -53.125 C 41.9434 -51.709 41.748 -50.6348 41.748 -49.4141 C 41.748 -45.752 43.9453 -43.6035 47.0703 -43.6035 C 49.707 -43.6035 51.3672 -44.873 52.5879 -46.9238 C 54.1016 -49.707 55.8594 -51.0742 58.5938 -51.0742 C 61.2305 -51.0742 63.1836 -49.2188 63.1836 -46.4355 C 63.1836 -44.043 61.6211 -41.8457 58.5938 -41.8457 L 57.666 -41.8457 C 53.9062 -41.8457 51.5625 -39.3555 51.5625 -35.6934 C 51.5625 -32.1289 53.5645 -29.541 57.666 -29.541 L 58.6426 -29.541 C 61.9629 -29.541 64.0137 -27.6855 64.0137 -24.7559 C 64.0137 -22.2656 61.9141 -20.1172 58.8379 -20.1172 C 56.1523 -20.1172 53.7598 -21.5332 52.1484 -24.2676 C 50.8301 -26.2695 49.1699 -27.5391 46.582 -27.5391 C 43.8965 -27.5391 41.0645 -25.4395 41.0645 -21.7285 C 41.0645 -20.5566 41.2598 -19.4824 41.6016 -18.457 C 43.3594 -12.9883 50.3906 -7.86133 58.6426 -7.86133 Z M 98.7793 -7.8125 C 110.938 -7.8125 118.115 -15.4297 118.115 -26.9531 C 118.115 -37.207 111.328 -43.2129 103.418 -43.2129 C 99.4141 -43.2129 95.7031 -41.4551 93.7988 -38.5254 L 93.5059 -38.5254 L 94.3359 -50.1465 L 110.596 -50.1465 C 114.111 -50.1465 116.357 -52.2461 116.357 -55.9082 C 116.357 -59.5703 114.258 -61.5723 110.596 -61.5723 L 90.4297 -61.5723 C 86.0352 -61.5723 83.4961 -58.7402 83.252 -53.8574 L 82.2754 -36.1328 C 82.0312 -31.7871 84.668 -29.0527 88.6719 -29.0527 C 91.7969 -29.0527 93.3594 -29.8828 94.9707 -31.0547 C 96.7773 -32.4219 98.0957 -32.959 100.098 -32.959 C 103.369 -32.959 105.762 -30.2246 105.762 -26.416 C 105.762 -22.5098 103.174 -19.4336 99.4629 -19.4336 C 96.5332 -19.4336 94.7754 -21.0938 93.1152 -22.9492 C 91.8457 -24.2676 90.7227 -25.6836 87.9395 -25.6836 C 84.8633 -25.6836 82.3242 -23.4863 82.3242 -20.0195 C 82.3242 -18.7988 82.4707 -17.6758 83.1055 -16.2598 C 84.8633 -12.2559 90.6738 -7.8125 98.7793 -7.8125 Z"/>
  </g>
 </g>
</svg>
