<?xml version="1.0" encoding="UTF-8"?>
<!--Generator: Apple Native CoreSVG 123-->
<!DOCTYPE svg
PUBLIC "-//W3C//DTD SVG 1.1//EN"
       "http://www.w3.org/Graphics/SVG/1.1/DTD/svg11.dtd">
<svg version="1.1" xmlns="http://www.w3.org/2000/svg" xmlns:xlink="http://www.w3.org/1999/xlink" width="3300" height="2200">
 <!--glyph: "uni1006A5.medium", point size: 100.000000, font version: "Version 15.0d4e20", template writer version: "2"-->
 <g id="Notes">
  <rect height="2200" id="artboard" style="fill:white;opacity:1" width="3300" x="0" y="0"/>
  <line id="" style="fill:none;stroke:black;opacity:1;stroke-width:0.5;" x1="263" x2="3036" y1="292" y2="292"/>
  <text style="stroke:none;fill:black;font-family:-apple-system,&quot;SF Pro Display&quot;,&quot;SF Pro Text&quot;,Helvetica,sans-serif;font-weight:bold;" transform="matrix(1 0 0 1 263 322)">Weight/Scale Variations</text>
  <text style="stroke:none;fill:black;font-family:-apple-system,&quot;SF Pro Display&quot;,&quot;SF Pro Text&quot;,Helvetica,sans-serif;text-anchor:middle;" transform="matrix(1 0 0 1 559.711 322)">Ultralight</text>
  <text style="stroke:none;fill:black;font-family:-apple-system,&quot;SF Pro Display&quot;,&quot;SF Pro Text&quot;,Helvetica,sans-serif;text-anchor:middle;" transform="matrix(1 0 0 1 856.422 322)">Thin</text>
  <text style="stroke:none;fill:black;font-family:-apple-system,&quot;SF Pro Display&quot;,&quot;SF Pro Text&quot;,Helvetica,sans-serif;text-anchor:middle;" transform="matrix(1 0 0 1 1153.13 322)">Light</text>
  <text style="stroke:none;fill:black;font-family:-apple-system,&quot;SF Pro Display&quot;,&quot;SF Pro Text&quot;,Helvetica,sans-serif;text-anchor:middle;" transform="matrix(1 0 0 1 1449.84 322)">Regular</text>
  <text style="stroke:none;fill:black;font-family:-apple-system,&quot;SF Pro Display&quot;,&quot;SF Pro Text&quot;,Helvetica,sans-serif;text-anchor:middle;" transform="matrix(1 0 0 1 1746.56 322)">Medium</text>
  <text style="stroke:none;fill:black;font-family:-apple-system,&quot;SF Pro Display&quot;,&quot;SF Pro Text&quot;,Helvetica,sans-serif;text-anchor:middle;" transform="matrix(1 0 0 1 2043.27 322)">Semibold</text>
  <text style="stroke:none;fill:black;font-family:-apple-system,&quot;SF Pro Display&quot;,&quot;SF Pro Text&quot;,Helvetica,sans-serif;text-anchor:middle;" transform="matrix(1 0 0 1 2339.98 322)">Bold</text>
  <text style="stroke:none;fill:black;font-family:-apple-system,&quot;SF Pro Display&quot;,&quot;SF Pro Text&quot;,Helvetica,sans-serif;text-anchor:middle;" transform="matrix(1 0 0 1 2636.69 322)">Heavy</text>
  <text style="stroke:none;fill:black;font-family:-apple-system,&quot;SF Pro Display&quot;,&quot;SF Pro Text&quot;,Helvetica,sans-serif;text-anchor:middle;" transform="matrix(1 0 0 1 2933.4 322)">Black</text>
  <line id="" style="fill:none;stroke:black;opacity:1;stroke-width:0.5;" x1="263" x2="3036" y1="1903" y2="1903"/>
  <g id="" transform="matrix(1 0 0 1 263 1933)">
   <path d="M 9.24805 0.830078 C 13.5547 0.830078 17.1387 -2.74414 17.1387 -7.05078 C 17.1387 -11.3574 13.5449 -14.9316 9.23828 -14.9316 C 4.94141 -14.9316 1.36719 -11.3574 1.36719 -7.05078 C 1.36719 -2.74414 4.95117 0.830078 9.24805 0.830078 Z M 9.24805 -0.654297 C 5.70312 -0.654297 2.87109 -3.49609 2.87109 -7.05078 C 2.87109 -10.6055 5.69336 -13.4473 9.23828 -13.4473 C 12.793 -13.4473 15.6348 -10.6055 15.6445 -7.05078 C 15.6543 -3.49609 12.8027 -0.654297 9.24805 -0.654297 Z M 9.22852 -3.42773 C 9.69727 -3.42773 9.9707 -3.74023 9.9707 -4.25781 L 9.9707 -6.31836 L 12.1973 -6.31836 C 12.6953 -6.31836 13.0371 -6.57227 13.0371 -7.04102 C 13.0371 -7.51953 12.7148 -7.7832 12.1973 -7.7832 L 9.9707 -7.7832 L 9.9707 -10.0098 C 9.9707 -10.5273 9.69727 -10.8496 9.22852 -10.8496 C 8.75977 -10.8496 8.50586 -10.5078 8.50586 -10.0098 L 8.50586 -7.7832 L 6.29883 -7.7832 C 5.78125 -7.7832 5.44922 -7.51953 5.44922 -7.04102 C 5.44922 -6.57227 5.80078 -6.31836 6.29883 -6.31836 L 8.50586 -6.31836 L 8.50586 -4.25781 C 8.50586 -3.75977 8.75977 -3.42773 9.22852 -3.42773 Z"/>
  </g>
  <g id="" transform="matrix(1 0 0 1 281.506 1933)">
   <path d="M 11.709 2.91016 C 17.1484 2.91016 21.6699 -1.60156 21.6699 -7.05078 C 21.6699 -12.4902 17.1387 -17.0117 11.6992 -17.0117 C 6.25 -17.0117 1.74805 -12.4902 1.74805 -7.05078 C 1.74805 -1.60156 6.25977 2.91016 11.709 2.91016 Z M 11.709 1.25 C 7.09961 1.25 3.41797 -2.44141 3.41797 -7.05078 C 3.41797 -11.6504 7.08984 -15.3516 11.6992 -15.3516 C 16.2988 -15.3516 20 -11.6504 20.0098 -7.05078 C 20.0195 -2.44141 16.3086 1.25 11.709 1.25 Z M 11.6797 -2.41211 C 12.207 -2.41211 12.5195 -2.77344 12.5195 -3.33984 L 12.5195 -6.23047 L 15.5762 -6.23047 C 16.123 -6.23047 16.5039 -6.51367 16.5039 -7.03125 C 16.5039 -7.55859 16.1426 -7.86133 15.5762 -7.86133 L 12.5195 -7.86133 L 12.5195 -10.9277 C 12.5195 -11.5039 12.207 -11.8555 11.6797 -11.8555 C 11.1621 -11.8555 10.8789 -11.4844 10.8789 -10.9277 L 10.8789 -7.86133 L 7.83203 -7.86133 C 7.25586 -7.86133 6.89453 -7.55859 6.89453 -7.03125 C 6.89453 -6.51367 7.28516 -6.23047 7.83203 -6.23047 L 10.8789 -6.23047 L 10.8789 -3.33984 C 10.8789 -2.79297 11.1621 -2.41211 11.6797 -2.41211 Z"/>
  </g>
  <g id="" transform="matrix(1 0 0 1 304.914 1933)">
   <path d="M 14.9707 5.67383 C 21.9336 5.67383 27.6855 -0.078125 27.6855 -7.04102 C 27.6855 -14.0039 21.9238 -19.7559 14.9609 -19.7559 C 7.99805 -19.7559 2.25586 -14.0039 2.25586 -7.04102 C 2.25586 -0.078125 8.00781 5.67383 14.9707 5.67383 Z M 14.9707 3.85742 C 8.92578 3.85742 4.08203 -1.00586 4.08203 -7.04102 C 4.08203 -13.0762 8.91602 -17.9395 14.9609 -17.9395 C 20.9961 -17.9395 25.8594 -13.0762 25.8691 -7.04102 C 25.8789 -1.00586 21.0059 3.85742 14.9707 3.85742 Z M 14.9414 -1.06445 C 15.5176 -1.06445 15.8594 -1.45508 15.8594 -2.06055 L 15.8594 -6.13281 L 20.0977 -6.13281 C 20.6934 -6.13281 21.1133 -6.46484 21.1133 -7.02148 C 21.1133 -7.59766 20.7227 -7.93945 20.0977 -7.93945 L 15.8594 -7.93945 L 15.8594 -12.1875 C 15.8594 -12.8027 15.5176 -13.1934 14.9414 -13.1934 C 14.3848 -13.1934 14.0625 -12.7832 14.0625 -12.1875 L 14.0625 -7.93945 L 9.82422 -7.93945 C 9.20898 -7.93945 8.80859 -7.59766 8.80859 -7.02148 C 8.80859 -6.46484 9.23828 -6.13281 9.82422 -6.13281 L 14.0625 -6.13281 L 14.0625 -2.06055 C 14.0625 -1.47461 14.3848 -1.06445 14.9414 -1.06445 Z"/>
  </g>
  <text style="stroke:none;fill:black;font-family:-apple-system,&quot;SF Pro Display&quot;,&quot;SF Pro Text&quot;,Helvetica,sans-serif;font-weight:bold;" transform="matrix(1 0 0 1 263 1953)">Design Variations</text>
  <text style="stroke:none;fill:black;font-family:-apple-system,&quot;SF Pro Display&quot;,&quot;SF Pro Text&quot;,Helvetica,sans-serif;" transform="matrix(1 0 0 1 263 1971)">Symbols are supported in up to nine weights and three scales.</text>
  <text style="stroke:none;fill:black;font-family:-apple-system,&quot;SF Pro Display&quot;,&quot;SF Pro Text&quot;,Helvetica,sans-serif;" transform="matrix(1 0 0 1 263 1989)">For optimal layout with text and other symbols, vertically align</text>
  <text style="stroke:none;fill:black;font-family:-apple-system,&quot;SF Pro Display&quot;,&quot;SF Pro Text&quot;,Helvetica,sans-serif;" transform="matrix(1 0 0 1 263 2007)">symbols with the adjacent text.</text>
  <rect height="14" id="" style="fill:#00AEEF;stroke:none;opacity:0.4;" width="3" x="776" y="1919"/>
  <g id="" transform="matrix(1 0 0 1 779 1933)">
   <path d="M 10.5273 0 L 12.373 0 L 7.17773 -14.0918 L 5.43945 -14.0918 L 0.244141 0 L 2.08984 0 L 3.50586 -4.0332 L 9.11133 -4.0332 Z M 6.2793 -11.9531 L 6.33789 -11.9531 L 8.59375 -5.52734 L 4.02344 -5.52734 Z"/>
  </g>
  <rect height="14" id="" style="fill:#00AEEF;stroke:none;opacity:0.4;" width="3" x="791.617" y="1919"/>
  <text style="stroke:none;fill:black;font-family:-apple-system,&quot;SF Pro Display&quot;,&quot;SF Pro Text&quot;,Helvetica,sans-serif;font-weight:bold;" transform="matrix(1 0 0 1 776 1953)">Side Bearings</text>
  <text style="stroke:none;fill:black;font-family:-apple-system,&quot;SF Pro Display&quot;,&quot;SF Pro Text&quot;,Helvetica,sans-serif;" transform="matrix(1 0 0 1 776 1971)">Horizontal padding on the left and right side of each symbol</text>
  <text style="stroke:none;fill:black;font-family:-apple-system,&quot;SF Pro Display&quot;,&quot;SF Pro Text&quot;,Helvetica,sans-serif;" transform="matrix(1 0 0 1 776 1989)">can be adjusted by modifying the width of the blue rectangles.</text>
  <text style="stroke:none;fill:black;font-family:-apple-system,&quot;SF Pro Display&quot;,&quot;SF Pro Text&quot;,Helvetica,sans-serif;" transform="matrix(1 0 0 1 776 2007)">Modifications are automatically applied proportionally to all</text>
  <text style="stroke:none;fill:black;font-family:-apple-system,&quot;SF Pro Display&quot;,&quot;SF Pro Text&quot;,Helvetica,sans-serif;" transform="matrix(1 0 0 1 776 2025)">scales and weights.</text>
  <g id="" transform="matrix(1 0 0 1 1289 1933)">
   <path d="M 2.96875 2.35352 L 3.80859 3.19336 C 4.84375 4.22852 6.12305 4.15039 7.19727 2.97852 L 16.1621 -6.82617 C 16.5527 -6.74805 16.9629 -6.8457 17.4902 -7.02148 C 18.1738 -7.25586 18.2715 -7.25586 18.3887 -7.13867 C 18.5352 -7.01172 18.4863 -6.89453 18.2422 -6.25 C 17.8809 -5.33203 17.8125 -4.79492 18.5547 -4.02344 L 19.4238 -3.13477 C 20.2734 -2.24609 21.3281 -2.26562 22.2168 -3.14453 L 25.0586 -5.97656 C 25.9473 -6.86523 25.957 -7.92969 25.0781 -8.7793 L 24.1797 -9.64844 C 23.4082 -10.4004 22.8711 -10.3516 21.9629 -9.98047 C 21.3184 -9.72656 21.2012 -9.6875 21.0645 -9.81445 C 20.9375 -9.93164 20.9473 -10.0391 21.1816 -10.7129 C 21.5332 -11.6895 21.5723 -12.2852 20.752 -13.0957 L 19.3359 -14.5117 C 15.1953 -18.6133 11.2305 -18.7402 7.65625 -15.4395 C 7.08008 -14.9023 6.99219 -14.1504 7.53906 -13.6133 L 7.79297 -13.3594 C 8.22266 -12.9297 8.86719 -12.8418 9.41406 -13.1152 C 11.0645 -13.9453 12.2559 -14.0234 13.457 -12.9785 L 13.0273 -11.416 C 12.8516 -10.8008 12.793 -10.3418 12.9199 -9.93164 L 3.18359 -1.04492 C 2.02148 0.0292969 1.93359 1.32812 2.96875 2.35352 Z M 8.96484 -14.4922 C 8.89648 -14.5703 8.86719 -14.6582 8.99414 -14.7559 C 11.709 -17.2852 15.0391 -16.8457 18.3496 -13.5254 L 19.6973 -12.168 C 20.0879 -11.7773 20.0977 -11.582 19.8828 -10.8691 C 19.6582 -10.127 19.502 -9.53125 20.1465 -8.88672 C 20.8105 -8.22266 21.2891 -8.41797 22.207 -8.63281 C 22.9004 -8.79883 23.0664 -8.79883 23.4473 -8.41797 L 24.0918 -7.77344 C 24.4043 -7.48047 24.4141 -7.32422 24.0723 -6.97266 L 21.2207 -4.13086 C 20.8887 -3.79883 20.7227 -3.79883 20.4297 -4.10156 L 19.7852 -4.75586 C 19.4141 -5.13672 19.4141 -5.30273 19.5801 -6.01562 C 19.7852 -6.88477 19.9805 -7.38281 19.3262 -8.04688 C 18.6719 -8.7207 18.0762 -8.57422 17.3438 -8.33008 C 16.5625 -8.06641 16.3281 -8.06641 15.8984 -8.49609 L 14.6094 -9.78516 C 14.1699 -10.2246 14.1309 -10.4395 14.2676 -10.9082 L 15.0293 -13.3984 C 13.3887 -15.2832 11.4941 -15.5566 9.20898 -14.4434 C 9.11133 -14.3945 9.04297 -14.4141 8.96484 -14.4922 Z M 3.96484 1.36719 C 3.52539 0.927734 3.54492 0.537109 4.14062 -0.00976562 L 13.7402 -8.81836 L 15 -7.55859 L 6.17188 2.02148 C 5.625 2.60742 5.24414 2.64648 4.79492 2.19727 Z"/>
  </g>
  <text style="stroke:none;fill:black;font-family:-apple-system,&quot;SF Pro Display&quot;,&quot;SF Pro Text&quot;,Helvetica,sans-serif;font-weight:bold;" transform="matrix(1 0 0 1 1289 1953)">Exporting</text>
  <text style="stroke:none;fill:black;font-family:-apple-system,&quot;SF Pro Display&quot;,&quot;SF Pro Text&quot;,Helvetica,sans-serif;" transform="matrix(1 0 0 1 1289 1971)">Symbols should be outlined when exporting to ensure the</text>
  <text style="stroke:none;fill:black;font-family:-apple-system,&quot;SF Pro Display&quot;,&quot;SF Pro Text&quot;,Helvetica,sans-serif;" transform="matrix(1 0 0 1 1289 1989)">design is preserved when submitting to Xcode.</text>
  <text id="template-version" style="stroke:none;fill:black;font-family:-apple-system,&quot;SF Pro Display&quot;,&quot;SF Pro Text&quot;,Helvetica,sans-serif;text-anchor:end;" transform="matrix(1 0 0 1 3036 1933)">Template v.0.1</text>
  <text style="stroke:none;fill:black;font-family:-apple-system,&quot;SF Pro Display&quot;,&quot;SF Pro Text&quot;,Helvetica,sans-serif;text-anchor:end;" transform="matrix(1 0 0 1 3036 1951)">Generated from 39.circle</text>
  <text style="stroke:none;fill:black;font-family:-apple-system,&quot;SF Pro Display&quot;,&quot;SF Pro Text&quot;,Helvetica,sans-serif;text-anchor:end;" transform="matrix(1 0 0 1 3036 1969)">Typeset at 100 points</text>
  <text style="stroke:none;fill:black;font-family:-apple-system,&quot;SF Pro Display&quot;,&quot;SF Pro Text&quot;,Helvetica,sans-serif;" transform="matrix(1 0 0 1 263 726)">Small</text>
  <text style="stroke:none;fill:black;font-family:-apple-system,&quot;SF Pro Display&quot;,&quot;SF Pro Text&quot;,Helvetica,sans-serif;" transform="matrix(1 0 0 1 263 1156)">Medium</text>
  <text style="stroke:none;fill:black;font-family:-apple-system,&quot;SF Pro Display&quot;,&quot;SF Pro Text&quot;,Helvetica,sans-serif;" transform="matrix(1 0 0 1 263 1586)">Large</text>
 </g>
 <g id="Guides">
  <g id="H-reference" style="fill:#27AAE1;stroke:none;" transform="matrix(1 0 0 1 339 696)">
   <path d="M 54.9316 0 L 57.666 0 L 30.5664 -70.459 L 28.0762 -70.459 L 0.976562 0 L 3.66211 0 L 12.9395 -24.4629 L 45.7031 -24.4629 Z M 29.1992 -67.0898 L 29.4434 -67.0898 L 44.8242 -26.709 L 13.8184 -26.709 Z"/>
  </g>
  <line id="Baseline-S" style="fill:none;stroke:#27AAE1;opacity:1;stroke-width:0.577;" x1="263" x2="3036" y1="696" y2="696"/>
  <line id="Capline-S" style="fill:none;stroke:#27AAE1;opacity:1;stroke-width:0.577;" x1="263" x2="3036" y1="625.541" y2="625.541"/>
  <g id="H-reference" style="fill:#27AAE1;stroke:none;" transform="matrix(1 0 0 1 339 1126)">
   <path d="M 54.9316 0 L 57.666 0 L 30.5664 -70.459 L 28.0762 -70.459 L 0.976562 0 L 3.66211 0 L 12.9395 -24.4629 L 45.7031 -24.4629 Z M 29.1992 -67.0898 L 29.4434 -67.0898 L 44.8242 -26.709 L 13.8184 -26.709 Z"/>
  </g>
  <line id="Baseline-M" style="fill:none;stroke:#27AAE1;opacity:1;stroke-width:0.577;" x1="263" x2="3036" y1="1126" y2="1126"/>
  <line id="Capline-M" style="fill:none;stroke:#27AAE1;opacity:1;stroke-width:0.577;" x1="263" x2="3036" y1="1055.54" y2="1055.54"/>
  <g id="H-reference" style="fill:#27AAE1;stroke:none;" transform="matrix(1 0 0 1 339 1556)">
   <path d="M 54.9316 0 L 57.666 0 L 30.5664 -70.459 L 28.0762 -70.459 L 0.976562 0 L 3.66211 0 L 12.9395 -24.4629 L 45.7031 -24.4629 Z M 29.1992 -67.0898 L 29.4434 -67.0898 L 44.8242 -26.709 L 13.8184 -26.709 Z"/>
  </g>
  <line id="Baseline-L" style="fill:none;stroke:#27AAE1;opacity:1;stroke-width:0.577;" x1="263" x2="3036" y1="1556" y2="1556"/>
  <line id="Capline-L" style="fill:none;stroke:#27AAE1;opacity:1;stroke-width:0.577;" x1="263" x2="3036" y1="1485.54" y2="1485.54"/>
  <rect height="119.336" id="left-margin" style="fill:#00AEEF;stroke:none;opacity:0.4;" width="8.74023" x="1391.32" y="1030.79"/>
  <rect height="119.336" id="right-margin" style="fill:#00AEEF;stroke:none;opacity:0.4;" width="8.69141" x="1499.67" y="1030.79"/>
 </g>
 <g id="Symbols">
  <g id="Ultralight-S" transform="matrix(1 0 0 1 515.644 696)">
   <path d="M 44.043 2.05078 C 64.502 2.05078 81.2988 -14.6973 81.2988 -35.1562 C 81.2988 -55.6152 64.502 -72.3633 44.043 -72.3633 C 23.584 -72.3633 6.83594 -55.6152 6.83594 -35.1562 C 6.83594 -14.6973 23.584 2.05078 44.043 2.05078 Z M 44.043 -0.146484 C 24.7559 -0.146484 9.08203 -15.8691 9.08203 -35.1562 C 9.08203 -54.4434 24.7559 -70.166 44.043 -70.166 C 63.3789 -70.166 79.0527 -54.4434 79.0527 -35.1562 C 79.0527 -15.8691 63.3789 -0.146484 44.043 -0.146484 Z M 57.3242 -17.8223 C 65.2344 -17.8223 69.873 -24.0723 69.873 -37.207 C 69.873 -47.4609 65.0391 -52.4414 57.959 -52.4414 C 51.3672 -52.4414 46.4844 -47.8027 46.4844 -41.2598 C 46.4844 -35.0586 51.123 -30.2734 57.2754 -30.2734 C 62.3047 -30.2734 65.918 -32.6172 67.627 -36.7676 L 67.7734 -36.7676 C 67.7734 -25.7812 63.916 -19.9219 57.373 -19.9219 C 54.0527 -19.9219 51.0742 -21.7285 49.8047 -24.2676 C 49.5117 -25 49.1699 -25.2441 48.6816 -25.2441 C 48.0957 -25.2441 47.6562 -24.8535 47.6562 -24.2676 C 47.6562 -23.9258 47.7051 -23.7793 47.7539 -23.584 C 48.3398 -21.2891 52.3926 -17.8223 57.3242 -17.8223 Z M 31.2012 -17.7734 C 37.793 -17.7734 42.5293 -21.8262 42.5293 -27.3926 C 42.5293 -31.6895 39.1113 -35.2539 34.668 -35.6934 L 34.668 -35.8887 C 38.5254 -36.6211 41.3574 -40.0879 41.3574 -44.043 C 41.3574 -48.9258 37.0605 -52.4414 31.1523 -52.4414 C 26.1719 -52.4414 21.7773 -49.6582 21.2891 -45.7031 C 21.1914 -45.3125 21.1914 -45.0195 21.1914 -44.6289 C 21.1914 -43.9453 21.582 -43.5059 22.2168 -43.5059 C 22.9004 -43.5059 23.291 -43.8477 23.3887 -44.5312 C 23.8281 -47.998 27.0508 -50.3906 31.1523 -50.3906 C 35.8398 -50.3906 39.0137 -47.7051 39.0137 -43.75 C 39.0137 -39.8438 35.6934 -36.7676 31.3965 -36.7676 L 28.125 -36.7676 C 27.4902 -36.7676 27.0996 -36.3281 27.0996 -35.6934 C 27.0996 -35.0586 27.4902 -34.668 28.125 -34.668 L 31.6895 -34.668 C 36.5723 -34.668 40.2344 -31.543 40.2344 -27.4414 C 40.2344 -22.9004 36.5723 -19.8242 31.2012 -19.8242 C 26.9043 -19.8242 23.3887 -22.2656 22.6562 -25.6836 C 22.4609 -26.416 22.1191 -26.7578 21.4844 -26.7578 C 20.8496 -26.7578 20.4102 -26.2695 20.4102 -25.5859 C 20.4102 -25.2441 20.459 -24.9512 20.5566 -24.5117 C 21.7285 -20.5566 26.0254 -17.7734 31.2012 -17.7734 Z M 57.8613 -32.373 C 52.4902 -32.373 48.7305 -36.2305 48.7305 -41.4551 C 48.7305 -46.6797 52.6367 -50.3418 57.959 -50.3418 C 63.0859 -50.3418 67.1387 -46.5332 67.1387 -41.3086 C 67.1387 -36.2793 63.2324 -32.373 57.8613 -32.373 Z"/>
  </g>
  <g id="Thin-S" transform="matrix(1 0 0 1 811.867 696)">
   <path d="M 44.5801 2.53906 C 65.2832 2.53906 82.2754 -14.4531 82.2754 -35.2051 C 82.2754 -55.9082 65.2344 -72.9004 44.5312 -72.9004 C 23.8281 -72.9004 6.83594 -55.9082 6.83594 -35.2051 C 6.83594 -14.4531 23.877 2.53906 44.5801 2.53906 Z M 44.5801 -0.878906 C 25.5859 -0.878906 10.2539 -16.2109 10.2539 -35.2051 C 10.2539 -54.1504 25.5859 -69.4824 44.5312 -69.4824 C 63.5254 -69.4824 78.8574 -54.1504 78.8574 -35.2051 C 78.8574 -16.2109 63.5254 -0.878906 44.5801 -0.878906 Z M 57.666 -17.8223 C 65.5762 -17.8223 70.166 -24.1211 70.166 -36.9629 C 70.166 -47.3633 65.4297 -52.5391 58.252 -52.5391 C 51.5625 -52.5391 46.8262 -47.9004 46.8262 -41.1621 C 46.8262 -34.7656 51.4648 -30.2246 57.373 -30.2246 C 62.2559 -30.2246 65.5762 -32.5684 67.1387 -36.377 L 67.2852 -36.377 C 67.334 -26.2207 63.6719 -20.6055 57.666 -20.6055 C 54.5898 -20.6055 51.9531 -22.2656 50.7324 -24.6094 C 50.3418 -25.4395 49.9023 -25.7324 49.2188 -25.7324 C 48.4863 -25.7324 47.9492 -25.1953 47.9492 -24.3652 C 47.9492 -24.0234 47.998 -23.8281 48.0469 -23.5352 C 48.584 -21.2402 52.4902 -17.8223 57.666 -17.8223 Z M 31.6406 -17.7734 C 38.3301 -17.7734 43.0664 -21.875 43.0664 -27.5391 C 43.0664 -31.7871 39.7461 -35.3516 35.4004 -35.791 L 35.4004 -35.9863 C 39.1602 -36.6699 41.8945 -40.0879 41.8945 -43.9941 C 41.8945 -48.9746 37.5977 -52.5391 31.6895 -52.5391 C 26.5625 -52.5391 22.2656 -49.6094 21.6309 -45.7031 C 21.5332 -45.2637 21.4844 -44.9219 21.4844 -44.5312 C 21.4844 -43.6523 22.0703 -43.0176 22.9004 -43.0176 C 23.7305 -43.0176 24.1699 -43.457 24.3652 -44.2871 C 24.9023 -47.6074 27.7832 -49.7559 31.6406 -49.7559 C 35.9375 -49.7559 38.8672 -47.2656 38.8672 -43.6523 C 38.8672 -39.9414 35.791 -37.1582 31.8359 -37.1582 L 28.8574 -37.1582 C 28.0273 -37.1582 27.4902 -36.5723 27.4902 -35.7422 C 27.4902 -34.9121 28.0273 -34.3262 28.8574 -34.3262 L 32.0801 -34.3262 C 36.6699 -34.3262 40.0391 -31.4453 40.0391 -27.5879 C 40.0391 -23.4375 36.6211 -20.5566 31.6406 -20.5566 C 27.6367 -20.5566 24.4629 -22.7539 23.6328 -26.0254 C 23.3887 -26.9043 22.9492 -27.2949 22.168 -27.2949 C 21.3867 -27.2949 20.752 -26.709 20.752 -25.7812 C 20.752 -25.3906 20.8008 -25.0488 20.8984 -24.6582 C 22.0703 -20.7031 26.3672 -17.7734 31.6406 -17.7734 Z M 58.2031 -32.9102 C 53.2715 -32.9102 49.8535 -36.5234 49.8535 -41.4062 C 49.8535 -46.3379 53.3691 -49.8047 58.3008 -49.8047 C 63.0371 -49.8047 66.748 -46.1914 66.748 -41.2598 C 66.748 -36.5234 63.1348 -32.9102 58.2031 -32.9102 Z"/>
  </g>
  <g id="Light-S" transform="matrix(1 0 0 1 1107.6 696)">
   <path d="M 45.5078 3.4668 C 66.6992 3.4668 84.2285 -14.0625 84.2285 -35.2051 C 84.2285 -56.3965 66.6504 -73.9258 45.5078 -73.9258 C 24.3164 -73.9258 6.83594 -56.3965 6.83594 -35.2051 C 6.83594 -14.0625 24.3652 3.4668 45.5078 3.4668 Z M 45.5078 -2.24609 C 27.2461 -2.24609 12.5977 -16.9434 12.5977 -35.2051 C 12.5977 -53.5156 27.1973 -68.2129 45.5078 -68.2129 C 63.7695 -68.2129 78.4668 -53.5156 78.5156 -35.2051 C 78.5156 -16.9434 63.8184 -2.24609 45.5078 -2.24609 Z M 58.2031 -17.8223 C 66.2109 -17.8223 70.6543 -24.1699 70.6543 -36.5723 C 70.6543 -47.1191 66.2109 -52.6855 58.7891 -52.6855 C 51.9531 -52.6855 47.4121 -48.0957 47.4121 -41.0156 C 47.4121 -34.2773 52.1484 -30.1758 57.5684 -30.1758 C 62.1582 -30.1758 64.9902 -32.5684 66.1621 -35.5957 L 66.4062 -35.5957 C 66.5039 -27.002 63.1836 -21.9727 58.1543 -21.9727 C 55.6641 -21.9727 53.6133 -23.291 52.5391 -25.2441 C 51.9531 -26.2695 51.2695 -26.6602 50.3418 -26.6602 C 49.2188 -26.6602 48.4375 -25.8301 48.4375 -24.5605 C 48.4375 -24.2188 48.4863 -23.8281 48.584 -23.4375 C 49.0723 -21.1914 52.6367 -17.8223 58.2031 -17.8223 Z M 32.4707 -17.8223 C 39.3066 -17.8223 44.0918 -21.9238 44.0918 -27.6855 C 44.0918 -31.9824 41.0156 -35.498 36.8652 -35.8887 L 36.8652 -36.1328 C 40.332 -36.7188 42.9688 -40.1367 42.9688 -43.9453 C 42.9688 -49.0723 38.7207 -52.6855 32.7148 -52.6855 C 27.2949 -52.6855 23.1445 -49.6094 22.2656 -45.6543 C 22.168 -45.166 22.1191 -44.7754 22.1191 -44.2871 C 22.1191 -43.0176 22.9492 -42.1387 24.1699 -42.1387 C 25.293 -42.1387 25.9277 -42.7246 26.2207 -43.8477 C 27.002 -46.875 29.248 -48.584 32.6172 -48.584 C 36.1328 -48.584 38.5742 -46.4355 38.5742 -43.4082 C 38.5742 -40.1855 36.0352 -37.8906 32.6172 -37.8906 L 30.2246 -37.8906 C 29.0527 -37.8906 28.2715 -37.0605 28.2715 -35.791 C 28.2715 -34.6191 29.0527 -33.6914 30.2246 -33.6914 L 32.8125 -33.6914 C 36.8652 -33.6914 39.5996 -31.3477 39.5996 -27.8809 C 39.5996 -24.4629 36.7188 -21.9238 32.5195 -21.9238 C 29.0527 -21.9238 26.5625 -23.7305 25.5859 -26.6602 C 25.1953 -27.832 24.5605 -28.3691 23.5352 -28.3691 C 22.3145 -28.3691 21.4355 -27.4902 21.4355 -26.2207 C 21.4355 -25.6836 21.4844 -25.293 21.6309 -24.8047 C 22.7051 -20.9961 27.0508 -17.8223 32.4707 -17.8223 Z M 58.9355 -33.9355 C 54.7852 -33.9355 51.9531 -37.0117 51.9531 -41.3086 C 51.9531 -45.752 54.7852 -48.7305 58.9844 -48.7305 C 62.9395 -48.7305 65.918 -45.5566 65.918 -41.2109 C 65.918 -37.0117 63.0371 -33.9355 58.9355 -33.9355 Z"/>
  </g>
  <g id="Regular-S" transform="matrix(1 0 0 1 1403.58 696)">
   <path d="M 46.2402 4.15039 C 67.7734 4.15039 85.6934 -13.7207 85.6934 -35.2539 C 85.6934 -56.7871 67.7246 -74.6582 46.1914 -74.6582 C 24.707 -74.6582 6.83594 -56.7871 6.83594 -35.2539 C 6.83594 -13.7207 24.7559 4.15039 46.2402 4.15039 Z M 46.2402 -3.27148 C 28.5156 -3.27148 14.3555 -17.4805 14.3555 -35.2539 C 14.3555 -53.0273 28.4668 -67.2363 46.1914 -67.2363 C 63.9648 -67.2363 78.1738 -53.0273 78.2227 -35.2539 C 78.2715 -17.4805 64.0137 -3.27148 46.2402 -3.27148 Z M 58.6426 -17.8223 C 66.6992 -17.8223 71.0938 -24.2188 71.0938 -36.2305 C 71.0938 -46.9238 66.7969 -52.832 59.2285 -52.832 C 52.2461 -52.832 47.8516 -48.2422 47.8516 -40.918 C 47.8516 -33.8379 52.6367 -30.127 57.7148 -30.127 C 62.0605 -30.127 64.5508 -32.5195 65.4785 -35.0098 L 65.7227 -35.0098 C 65.8203 -27.6367 62.8418 -22.9492 58.5938 -22.9492 C 56.4453 -22.9492 54.834 -24.0723 53.9062 -25.6836 C 53.2227 -26.9531 52.2949 -27.3438 51.1719 -27.3438 C 49.8047 -27.3438 48.8281 -26.2695 48.8281 -24.707 C 48.8281 -24.3652 48.9258 -23.877 49.0234 -23.3887 C 49.4629 -21.1426 52.7344 -17.8223 58.6426 -17.8223 Z M 33.1543 -17.8223 C 40.0391 -17.8223 44.873 -21.9727 44.873 -27.832 C 44.873 -32.1289 41.9922 -35.5957 37.9395 -35.9863 L 37.9395 -36.2793 C 41.2598 -36.7676 43.7988 -40.1367 43.7988 -43.8965 C 43.7988 -49.1699 39.5508 -52.832 33.4473 -52.832 C 27.832 -52.832 23.8281 -49.5605 22.7539 -45.6543 C 22.6074 -45.1172 22.6074 -44.6777 22.6074 -44.1406 C 22.6074 -42.5293 23.6816 -41.4062 25.1465 -41.4062 C 26.5137 -41.4062 27.1973 -42.1387 27.6855 -43.5059 C 28.5645 -46.2891 30.3711 -47.6562 33.3008 -47.6562 C 36.2793 -47.6562 38.3301 -45.8008 38.3301 -43.2129 C 38.3301 -40.3809 36.2305 -38.4277 33.252 -38.4277 L 31.25 -38.4277 C 29.834 -38.4277 28.8574 -37.4023 28.8574 -35.8398 C 28.8574 -34.375 29.834 -33.252 31.25 -33.252 L 33.3984 -33.252 C 37.0117 -33.252 39.3066 -31.25 39.3066 -28.125 C 39.3066 -25.1953 36.7676 -22.9492 33.2031 -22.9492 C 30.0781 -22.9492 28.125 -24.4141 27.0996 -27.0996 C 26.5137 -28.5156 25.8301 -29.1992 24.5117 -29.1992 C 23.0469 -29.1992 21.9727 -28.125 21.9727 -26.5137 C 21.9727 -25.9277 22.0215 -25.4883 22.168 -24.9512 C 23.1934 -21.1914 27.5391 -17.8223 33.1543 -17.8223 Z M 59.4727 -34.7168 C 55.957 -34.7168 53.5645 -37.4023 53.5645 -41.2109 C 53.5645 -45.3125 55.8594 -47.9004 59.4727 -47.9004 C 62.8906 -47.9004 65.332 -45.1172 65.332 -41.1621 C 65.332 -37.4023 62.9395 -34.7168 59.4727 -34.7168 Z"/>
  </g>
  <g id="Medium-S" transform="matrix(1 0 0 1 1699.7 696)">
   <path d="M 46.8262 4.78516 C 68.75 4.78516 86.8652 -13.3301 86.8652 -35.2539 C 86.8652 -57.1289 68.7012 -75.2441 46.8262 -75.2441 C 24.9023 -75.2441 6.83594 -57.1289 6.83594 -35.2539 C 6.83594 -13.3301 24.9512 4.78516 46.8262 4.78516 Z M 46.8262 -4.19922 C 29.6387 -4.19922 15.8691 -18.0176 15.8691 -35.2539 C 15.8691 -52.4414 29.5898 -66.2598 46.8262 -66.2598 C 64.0137 -66.2598 77.832 -52.4414 77.8809 -35.2539 C 77.8809 -18.0176 64.0625 -4.19922 46.8262 -4.19922 Z M 58.8379 -18.0664 C 66.8457 -18.0664 71.1914 -24.4629 71.1914 -36.2305 C 71.1914 -46.582 67.0898 -52.5391 59.375 -52.5391 C 52.5391 -52.5391 48.1445 -48.0469 48.1445 -40.8203 C 48.1445 -34.0332 52.5391 -30.2246 57.5684 -30.2246 C 61.5723 -30.2246 64.0137 -32.4219 64.9902 -34.9121 L 65.2344 -34.9121 C 65.332 -28.3691 62.8418 -23.7793 58.7402 -23.7793 C 56.7871 -23.7793 55.4199 -24.7559 54.4922 -26.1719 C 53.8086 -27.2949 52.8809 -27.7344 51.6602 -27.7344 C 50.2441 -27.7344 49.0723 -26.6113 49.0723 -24.9512 C 49.0723 -24.4141 49.2188 -23.877 49.3652 -23.291 C 50 -21.0449 53.1738 -18.0664 58.8379 -18.0664 Z M 33.9355 -18.0664 C 40.8691 -18.0664 45.6055 -22.1191 45.6055 -28.0273 C 45.6055 -32.2266 42.8223 -35.5957 38.9648 -35.9863 L 38.9648 -36.2793 C 42.1387 -36.7676 44.6289 -40.0391 44.6289 -43.6523 C 44.6289 -48.9258 40.3809 -52.5391 34.1797 -52.5391 C 28.6621 -52.5391 24.7559 -49.3164 23.7305 -45.8008 C 23.5352 -45.166 23.4863 -44.6289 23.4863 -44.043 C 23.4863 -42.2363 24.6094 -41.0645 26.2207 -41.0645 C 27.6367 -41.0645 28.4668 -41.7969 29.0039 -43.1152 C 29.9316 -45.5566 31.4941 -46.7773 34.0332 -46.7773 C 36.5723 -46.7773 38.3789 -45.166 38.3789 -42.8223 C 38.3789 -40.4297 36.6211 -38.6719 33.9844 -38.6719 L 32.4219 -38.6719 C 30.7617 -38.6719 29.6387 -37.5 29.6387 -35.7422 C 29.6387 -34.0332 30.7129 -32.7637 32.4219 -32.7637 L 34.082 -32.7637 C 37.207 -32.7637 39.209 -31.0547 39.209 -28.3691 C 39.209 -25.8789 37.0605 -23.9258 33.9844 -23.9258 C 31.3477 -23.9258 29.541 -25.1953 28.5156 -27.5391 C 27.8809 -28.9062 27.0508 -29.5898 25.6836 -29.5898 C 24.2188 -29.5898 22.9004 -28.4668 22.9004 -26.6602 C 22.9004 -26.0254 22.998 -25.5371 23.1445 -25 C 24.2188 -21.3379 28.5156 -18.0664 33.9355 -18.0664 Z M 59.6191 -35.3516 C 56.543 -35.3516 54.4434 -37.7441 54.4434 -41.1621 C 54.4434 -44.7266 56.4941 -47.0703 59.6191 -47.0703 C 62.6465 -47.0703 64.7949 -44.5801 64.7949 -41.1133 C 64.7949 -37.7441 62.6953 -35.3516 59.6191 -35.3516 Z"/>
  </g>
  <g id="Semibold-S" transform="matrix(1 0 0 1 1995.98 696)">
   <path d="M 47.3145 5.22461 C 69.4824 5.22461 87.7441 -13.0371 87.7441 -35.2539 C 87.7441 -57.4219 69.4336 -75.6836 47.2656 -75.6836 C 25.0977 -75.6836 6.83594 -57.4219 6.83594 -35.2539 C 6.83594 -13.0371 25.0977 5.22461 47.3145 5.22461 Z M 47.3145 -4.93164 C 30.4688 -4.93164 17.041 -18.4082 17.041 -35.2539 C 17.041 -52.0508 30.4688 -65.5273 47.2656 -65.5273 C 64.0625 -65.5273 77.5879 -52.0508 77.5879 -35.2539 C 77.6367 -18.4082 64.1113 -4.93164 47.3145 -4.93164 Z M 58.9844 -18.2617 C 66.9434 -18.2617 71.2402 -24.6582 71.2402 -36.2793 C 71.2402 -46.3379 67.2852 -52.3438 59.4727 -52.3438 C 52.7344 -52.3438 48.3398 -47.9004 48.3398 -40.7227 C 48.3398 -34.1309 52.4902 -30.2734 57.4707 -30.2734 C 61.1816 -30.2734 63.6719 -32.3242 64.6484 -34.8145 L 64.8926 -34.8145 C 64.8926 -28.9551 62.793 -24.3652 58.8867 -24.3652 C 57.0312 -24.3652 55.8105 -25.293 54.9805 -26.5625 C 54.2969 -27.5391 53.3203 -28.0273 52.0508 -28.0273 C 50.5371 -28.0273 49.2676 -26.9043 49.2676 -25.0977 C 49.2676 -24.4141 49.4141 -23.877 49.6582 -23.1934 C 50.3906 -20.9961 53.5156 -18.2617 58.9844 -18.2617 Z M 34.5215 -18.2129 C 41.4551 -18.2129 46.0938 -22.2168 46.0938 -28.125 C 46.0938 -32.2754 43.457 -35.6445 39.6973 -35.9863 L 39.6973 -36.3281 C 42.8223 -36.8164 45.2148 -39.9902 45.2148 -43.5059 C 45.2148 -48.7793 41.0156 -52.3438 34.7168 -52.3438 C 29.2969 -52.3438 25.4883 -49.1211 24.4629 -45.8984 C 24.2188 -45.166 24.1699 -44.6289 24.1699 -43.9453 C 24.1699 -41.9922 25.3418 -40.8203 27.0508 -40.8203 C 28.5156 -40.8203 29.3945 -41.5527 30.0293 -42.8223 C 30.9082 -45.0195 32.3242 -46.0938 34.5703 -46.0938 C 36.8164 -46.0938 38.3789 -44.6289 38.3789 -42.5293 C 38.3789 -40.4785 36.9141 -38.8184 34.5215 -38.8184 L 33.3496 -38.8184 C 31.4453 -38.8184 30.2246 -37.5488 30.2246 -35.6445 C 30.2246 -33.7891 31.3477 -32.4219 33.3496 -32.4219 L 34.6191 -32.4219 C 37.4023 -32.4219 39.1113 -30.9082 39.1113 -28.5156 C 39.1113 -26.3672 37.2559 -24.6094 34.6191 -24.6094 C 32.3242 -24.6094 30.6152 -25.7812 29.5898 -27.8809 C 28.9551 -29.1992 28.0273 -29.8828 26.6113 -29.8828 C 25.0488 -29.8828 23.6328 -28.7109 23.6328 -26.7578 C 23.6328 -26.123 23.7305 -25.5859 23.9258 -25 C 25 -21.4844 29.248 -18.2129 34.5215 -18.2129 Z M 59.7168 -35.8398 C 56.9824 -35.8398 55.0781 -37.9883 55.0781 -41.0645 C 55.0781 -44.3359 56.9336 -46.4355 59.7168 -46.4355 C 62.4023 -46.4355 64.3555 -44.2383 64.3555 -41.0645 C 64.3555 -37.9883 62.4512 -35.8398 59.7168 -35.8398 Z"/>
  </g>
  <g id="Bold-S" transform="matrix(1 0 0 1 2292.1 696)">
   <path d="M 47.9004 5.81055 C 70.4102 5.81055 88.916 -12.6465 88.916 -35.2051 C 88.916 -57.7637 70.4102 -76.2695 47.8516 -76.2695 C 25.293 -76.2695 6.83594 -57.7637 6.83594 -35.2051 C 6.83594 -12.6465 25.3418 5.81055 47.9004 5.81055 Z M 47.9004 -5.85938 C 31.6406 -5.85938 18.5547 -18.9453 18.5547 -35.2051 C 18.5547 -51.4648 31.5918 -64.5508 47.8516 -64.5508 C 64.1113 -64.5508 77.1973 -51.4648 77.2461 -35.2051 C 77.2461 -18.9453 64.1602 -5.85938 47.9004 -5.85938 Z M 59.1797 -18.457 C 67.0898 -18.457 71.3379 -24.9512 71.3379 -36.2793 C 71.3379 -45.9961 67.5781 -52.0508 59.668 -52.0508 C 53.0273 -52.0508 48.584 -47.7539 48.584 -40.5762 C 48.584 -34.2773 52.3926 -30.3711 57.2754 -30.3711 C 60.6445 -30.3711 63.1348 -32.2266 64.1602 -34.668 L 64.3555 -34.668 C 64.3555 -29.6875 62.793 -25.1953 59.082 -25.1953 C 57.373 -25.1953 56.3477 -25.9766 55.5664 -27.0508 C 54.8828 -27.8809 53.9062 -28.418 52.5391 -28.418 C 50.9766 -28.418 49.5605 -27.2461 49.5605 -25.3418 C 49.5605 -24.4629 49.707 -23.8281 50.0488 -23.0957 C 50.9277 -20.8984 54.0039 -18.457 59.1797 -18.457 Z M 35.3027 -18.457 C 42.2852 -18.457 46.8262 -22.3633 46.8262 -28.2715 C 46.8262 -32.373 44.3359 -35.6934 40.7227 -35.9863 L 40.7227 -36.3281 C 43.75 -36.8164 46.0449 -39.9414 46.0449 -43.2617 C 46.0449 -48.584 41.8457 -52.0508 35.4492 -52.0508 C 30.127 -52.0508 26.4648 -48.877 25.4395 -45.9961 C 25.1465 -45.166 25.0488 -44.5801 25.0488 -43.8477 C 25.0488 -41.748 26.3184 -40.4785 28.1738 -40.4785 C 29.6875 -40.4785 30.6641 -41.2109 31.3477 -42.4805 C 32.2754 -44.2871 33.4473 -45.2148 35.3027 -45.2148 C 37.1094 -45.2148 38.4277 -43.9941 38.4277 -42.1387 C 38.4277 -40.5273 37.3047 -39.0625 35.3027 -39.0625 L 34.5215 -39.0625 C 32.373 -39.0625 31.0059 -37.6465 31.0059 -35.5469 C 31.0059 -33.4473 32.1777 -31.9336 34.5215 -31.9336 L 35.3516 -31.9336 C 37.5977 -31.9336 38.9648 -30.7129 38.9648 -28.7598 C 38.9648 -27.002 37.5488 -25.5859 35.4492 -25.5859 C 33.5938 -25.5859 32.0312 -26.5137 31.0547 -28.3203 C 30.3223 -29.5898 29.2969 -30.3223 27.7832 -30.3223 C 26.2207 -30.3223 24.5605 -29.0527 24.5605 -26.9043 C 24.5605 -26.2207 24.707 -25.6348 24.9023 -25 C 25.9766 -21.6309 30.2246 -18.457 35.3027 -18.457 Z M 59.8633 -36.4258 C 57.5684 -36.4258 55.957 -38.3301 55.957 -41.0156 C 55.957 -43.75 57.5684 -45.6055 59.8633 -45.6055 C 62.1582 -45.6055 63.7695 -43.7012 63.7695 -40.9668 C 63.7695 -38.3301 62.1582 -36.4258 59.8633 -36.4258 Z"/>
  </g>
  <g id="Heavy-S" transform="matrix(1 0 0 1 2587.96 696)">
   <path d="M 48.7305 6.68945 C 71.8262 6.68945 90.625 -12.1094 90.625 -35.2051 C 90.625 -58.3008 71.8262 -77.0996 48.7305 -77.0996 C 25.6348 -77.0996 6.83594 -58.3008 6.83594 -35.2051 C 6.83594 -12.1094 25.6348 6.68945 48.7305 6.68945 Z M 48.7305 -7.22656 C 33.3008 -7.22656 20.752 -19.7266 20.752 -35.2051 C 20.752 -50.6836 33.3008 -63.1836 48.7305 -63.1836 C 64.209 -63.1836 76.709 -50.6836 76.709 -35.2051 C 76.709 -19.7266 64.209 -7.22656 48.7305 -7.22656 Z M 59.4238 -18.8477 C 67.2852 -18.8477 71.4844 -25.293 71.4844 -36.2793 C 71.4844 -45.5566 68.0176 -51.6602 59.8633 -51.6602 C 53.4668 -51.6602 48.9746 -47.4609 48.9746 -40.3809 C 48.9746 -34.5215 52.2949 -30.4688 57.0312 -30.4688 C 59.9121 -30.4688 62.4023 -32.0312 63.4766 -34.5215 L 63.6719 -34.5215 C 63.623 -30.8105 62.7441 -26.3672 59.3262 -26.3672 C 57.8613 -26.3672 57.1777 -27.002 56.4453 -27.7832 C 55.8105 -28.418 54.7363 -28.9551 53.2227 -28.9551 C 51.6113 -28.9551 49.9512 -27.7344 49.9512 -25.6348 C 49.9512 -24.5605 50.1465 -23.8281 50.6348 -22.9004 C 51.7578 -20.752 54.6875 -18.8477 59.4238 -18.8477 Z M 36.4746 -18.7988 C 43.457 -18.7988 47.8516 -22.5586 47.8516 -28.5156 C 47.8516 -32.4707 45.5566 -35.7422 42.1875 -35.9863 L 42.1875 -36.377 C 45.0684 -36.8652 47.2656 -39.7949 47.2656 -42.9199 C 47.2656 -48.2422 43.0664 -51.6602 36.4746 -51.6602 C 31.3477 -51.6602 27.8809 -48.5352 26.9043 -46.1914 C 26.4648 -45.2148 26.3184 -44.4824 26.3184 -43.7012 C 26.3184 -41.3086 27.6855 -39.9414 29.7363 -39.9414 C 31.3965 -39.9414 32.4707 -40.7227 33.3008 -41.8945 C 34.2285 -43.2617 35.1074 -43.9453 36.3281 -43.9453 C 37.5488 -43.9453 38.4766 -43.0176 38.4766 -41.6016 C 38.4766 -40.5762 37.8418 -39.4043 36.377 -39.4043 L 36.2793 -39.4043 C 33.6914 -39.4043 32.1777 -37.793 32.1777 -35.3516 C 32.1777 -32.959 33.4473 -31.25 36.2793 -31.25 L 36.377 -31.25 C 37.8418 -31.25 38.7695 -30.4199 38.7695 -29.0527 C 38.7695 -27.9785 37.9395 -26.9531 36.6211 -26.9531 C 35.4492 -26.9531 34.1309 -27.6367 33.1543 -29.0039 C 32.3242 -30.127 31.1523 -30.9082 29.541 -30.9082 C 27.8809 -30.9082 25.9766 -29.5898 25.9766 -27.0996 C 25.9766 -26.416 26.123 -25.6836 26.3184 -25 C 27.4414 -21.875 31.6895 -18.7988 36.4746 -18.7988 Z M 60.0586 -37.3535 C 58.4473 -37.3535 57.2266 -38.8184 57.2266 -40.8691 C 57.2266 -42.9688 58.4473 -44.3848 60.0586 -44.3848 C 61.7676 -44.3848 62.9883 -42.9688 62.9883 -40.8691 C 62.9883 -38.8184 61.7676 -37.3535 60.0586 -37.3535 Z"/>
  </g>
  <g id="Black-S" transform="matrix(1 0 0 1 2883.89 696)">
   <path d="M 49.5117 7.4707 C 73.0957 7.4707 92.1875 -11.6211 92.1875 -35.2051 C 92.1875 -58.7891 73.0957 -77.8809 49.5117 -77.8809 C 25.9277 -77.8809 6.83594 -58.7891 6.83594 -35.2051 C 6.83594 -11.6211 25.9277 7.4707 49.5117 7.4707 Z M 49.5117 -8.44727 C 34.7656 -8.44727 22.7539 -20.459 22.7539 -35.2051 C 22.7539 -49.9512 34.7656 -61.9141 49.5117 -61.9141 C 64.2578 -61.9141 76.2695 -49.9512 76.2207 -35.2051 C 76.2207 -20.459 64.2578 -8.44727 49.5117 -8.44727 Z M 59.668 -19.1406 C 67.4805 -19.1406 71.6309 -25.6348 71.6309 -36.3281 C 71.6309 -45.1172 68.4082 -51.3184 60.1074 -51.3184 C 53.8574 -51.3184 49.3164 -47.2656 49.3164 -40.2344 C 49.3164 -34.7168 52.1973 -30.5664 56.8359 -30.5664 C 59.2773 -30.5664 61.7676 -31.8848 62.8418 -34.375 L 62.9883 -34.375 C 62.9395 -31.7871 62.7441 -27.3926 59.5703 -27.3926 C 58.3008 -27.3926 57.9102 -27.8809 57.2266 -28.418 C 56.5918 -28.8574 55.4688 -29.4434 53.8574 -29.4434 C 52.1484 -29.4434 50.293 -28.1738 50.293 -25.9277 C 50.293 -24.6094 50.5371 -23.8281 51.123 -22.7539 C 52.4414 -20.6543 55.2734 -19.1406 59.668 -19.1406 Z M 37.5 -19.1406 C 44.4824 -19.1406 48.7793 -22.7051 48.7793 -28.7109 C 48.7793 -32.5684 46.6797 -35.791 43.5059 -35.9863 L 43.5059 -36.4258 C 46.2891 -36.9141 48.291 -39.6973 48.291 -42.5781 C 48.291 -47.998 44.1406 -51.3184 37.4023 -51.3184 C 32.4219 -51.3184 29.1504 -48.1934 28.1738 -46.3379 C 27.6367 -45.2637 27.4414 -44.4336 27.4414 -43.6035 C 27.4414 -40.918 28.9551 -39.502 31.1523 -39.502 C 32.9102 -39.502 34.1309 -40.2832 35.0586 -41.4062 C 35.9863 -42.334 36.5723 -42.7734 37.2559 -42.7734 C 37.9883 -42.7734 38.5254 -42.1387 38.5254 -41.1133 C 38.5254 -40.625 38.3301 -39.6973 37.3535 -39.6973 L 37.793 -39.6973 C 34.9121 -39.6973 33.2031 -37.8906 33.2031 -35.2051 C 33.2031 -32.5195 34.5215 -30.6641 37.793 -30.6641 L 37.3047 -30.6641 C 38.1348 -30.6641 38.623 -30.127 38.623 -29.3457 C 38.623 -28.8574 38.3301 -28.2227 37.6465 -28.2227 C 37.0605 -28.2227 35.9863 -28.6133 35.0098 -29.5898 C 34.1309 -30.6152 32.8125 -31.3965 31.0547 -31.3965 C 29.3945 -31.3965 27.1973 -30.0293 27.1973 -27.2949 C 27.1973 -26.5625 27.3438 -25.7324 27.6367 -25 C 28.7598 -22.0703 32.959 -19.1406 37.5 -19.1406 Z M 60.2539 -38.1836 C 59.2285 -38.1836 58.3496 -39.2578 58.3496 -40.7715 C 58.3496 -42.2363 59.2285 -43.3105 60.2539 -43.3105 C 61.377 -43.3105 62.2559 -42.334 62.2559 -40.7715 C 62.2559 -39.2578 61.377 -38.1836 60.2539 -38.1836 Z"/>
  </g>
  <g id="Ultralight-M" transform="matrix(1 0 0 1 503.656 1126)">
   <path d="M 56.0547 12.207 C 82.0801 12.207 103.369 -9.08203 103.369 -35.1562 C 103.369 -61.1816 82.0801 -82.4707 56.0547 -82.4707 C 30.0293 -82.4707 8.74023 -61.1816 8.74023 -35.1562 C 8.74023 -9.08203 30.0293 12.207 56.0547 12.207 Z M 56.0547 9.81445 C 31.25 9.81445 11.1328 -10.3516 11.1328 -35.1562 C 11.1328 -59.9121 31.25 -80.0781 56.0547 -80.0781 C 80.8105 -80.0781 100.977 -59.9121 100.977 -35.1562 C 100.977 -10.3516 80.8105 9.81445 56.0547 9.81445 Z M 73.0957 -12.9883 C 83.1055 -12.9883 89.1113 -20.9961 89.1113 -37.8418 C 89.1113 -50.9277 82.8613 -57.1777 73.877 -57.1777 C 65.4785 -57.1777 59.2285 -51.2695 59.2285 -42.9199 C 59.2285 -35.1074 65.0879 -28.9062 73.0469 -28.9062 C 79.541 -28.9062 84.2285 -31.8848 86.4746 -37.3535 L 86.6699 -37.3535 C 86.6699 -22.998 81.6895 -15.4297 73.1445 -15.4297 C 68.75 -15.4297 64.8438 -17.7734 63.2324 -21.1426 C 62.8906 -22.0215 62.5 -22.3145 61.9141 -22.3145 C 61.2305 -22.3145 60.7422 -21.875 60.7422 -21.1426 C 60.7422 -20.8008 60.791 -20.6055 60.8887 -20.3613 C 61.6211 -17.4316 66.8457 -12.9883 73.0957 -12.9883 Z M 39.6484 -12.9395 C 48.0469 -12.9395 54.1016 -18.1152 54.1016 -25.1953 C 54.1016 -30.6152 49.6582 -35.2539 43.9453 -35.8398 L 43.9453 -36.084 C 48.9258 -37.0117 52.5391 -41.4062 52.5391 -46.4844 C 52.5391 -52.6855 47.0703 -57.1777 39.5996 -57.1777 C 33.252 -57.1777 27.6367 -53.6621 27.002 -48.584 C 26.9531 -48.0957 26.9043 -47.7539 26.9043 -47.3145 C 26.9043 -46.5332 27.3926 -45.9473 28.125 -45.9473 C 28.9062 -45.9473 29.3945 -46.3867 29.4434 -47.168 C 29.9805 -51.709 34.2285 -54.834 39.5996 -54.834 C 45.752 -54.834 49.8535 -51.3184 49.8535 -46.1914 C 49.8535 -41.0645 45.5078 -37.0117 39.8926 -37.0117 L 35.6445 -37.0117 C 34.9121 -37.0117 34.4238 -36.5234 34.4238 -35.8398 C 34.4238 -35.1074 34.9121 -34.6191 35.6445 -34.6191 L 40.2832 -34.6191 C 46.6309 -34.6191 51.416 -30.5176 51.416 -25.1953 C 51.416 -19.3359 46.6797 -15.332 39.6484 -15.332 C 34.082 -15.332 29.4434 -18.5059 28.5156 -22.9492 C 28.3203 -23.8281 27.9297 -24.1699 27.1484 -24.1699 C 26.4648 -24.1699 25.8789 -23.6328 25.8789 -22.8516 C 25.8789 -22.4121 25.9766 -22.0215 26.0742 -21.5332 C 27.5879 -16.4062 33.0566 -12.9395 39.6484 -12.9395 Z M 73.6816 -31.3477 C 66.6992 -31.3477 61.7676 -36.4258 61.7676 -43.1641 C 61.7676 -49.9512 66.9434 -54.7363 73.8281 -54.7363 C 80.5176 -54.7363 85.8398 -49.7559 85.8398 -42.9688 C 85.8398 -36.4746 80.7129 -31.3477 73.6816 -31.3477 Z"/>
  </g>
  <g id="Thin-M" transform="matrix(1 0 0 1 799.806 1126)">
   <path d="M 56.5918 12.7441 C 82.9102 12.7441 104.492 -8.83789 104.492 -35.1562 C 104.492 -61.4746 82.9102 -83.0566 56.5918 -83.0566 C 30.3223 -83.0566 8.74023 -61.4746 8.74023 -35.1562 C 8.74023 -8.83789 30.3223 12.7441 56.5918 12.7441 Z M 56.5918 8.98438 C 32.2266 8.98438 12.4512 -10.791 12.4512 -35.1562 C 12.4512 -59.5215 32.2266 -79.2969 56.5918 -79.2969 C 80.957 -79.2969 100.781 -59.5215 100.781 -35.1562 C 100.781 -10.791 81.0059 8.98438 56.5918 8.98438 Z M 73.4375 -12.9883 C 83.4961 -12.9883 89.4043 -20.9961 89.4043 -37.5977 C 89.4043 -50.7812 83.3008 -57.2754 74.2188 -57.2754 C 65.7227 -57.2754 59.5703 -51.3672 59.5703 -42.8711 C 59.5703 -34.8145 65.4785 -28.8574 73.1445 -28.8574 C 79.4922 -28.8574 83.8867 -31.8848 85.9375 -36.9141 L 86.1328 -36.9141 C 86.1816 -23.4863 81.3965 -16.2109 73.4375 -16.2109 C 69.3848 -16.2109 65.8203 -18.3594 64.2578 -21.4844 C 63.8184 -22.5098 63.3301 -22.8516 62.5488 -22.8516 C 61.6699 -22.8516 61.0352 -22.2656 61.0352 -21.2891 C 61.0352 -20.8984 61.084 -20.6543 61.1816 -20.3125 C 61.9141 -17.3828 66.9434 -12.9883 73.4375 -12.9883 Z M 40.1367 -12.9395 C 48.6328 -12.9395 54.6875 -18.1641 54.6875 -25.3418 C 54.6875 -30.7617 50.3906 -35.3516 44.7754 -35.8887 L 44.7754 -36.1328 C 49.6094 -37.0605 53.1738 -41.4551 53.1738 -46.4355 C 53.1738 -52.7832 47.7051 -57.2754 40.1855 -57.2754 C 33.6914 -57.2754 28.125 -53.6133 27.3926 -48.584 C 27.2949 -48.0469 27.2461 -47.6562 27.2461 -47.168 C 27.2461 -46.1426 27.9297 -45.4102 28.8574 -45.4102 C 29.834 -45.4102 30.4199 -45.9473 30.5664 -46.9238 C 31.2012 -51.2695 35.0586 -54.1504 40.1367 -54.1504 C 45.8496 -54.1504 49.707 -50.8301 49.707 -46.0449 C 49.707 -41.2109 45.6543 -37.4512 40.3809 -37.4512 L 36.4258 -37.4512 C 35.498 -37.4512 34.8633 -36.8164 34.8633 -35.8398 C 34.8633 -34.9121 35.498 -34.2285 36.4258 -34.2285 L 40.7227 -34.2285 C 46.7285 -34.2285 51.2207 -30.4688 51.2207 -25.3906 C 51.2207 -19.9219 46.7285 -16.1133 40.1855 -16.1133 C 34.9121 -16.1133 30.6641 -19.043 29.6387 -23.291 C 29.3457 -24.3652 28.8574 -24.8047 27.9297 -24.8047 C 27.002 -24.8047 26.3184 -24.1211 26.3184 -23.0957 C 26.3184 -22.6074 26.3672 -22.168 26.5137 -21.6309 C 27.9785 -16.6016 33.4473 -12.9395 40.1367 -12.9395 Z M 74.1211 -31.9336 C 67.5781 -31.9336 63.0371 -36.7188 63.0371 -43.1152 C 63.0371 -49.6094 67.7734 -54.1504 74.2188 -54.1504 C 80.4688 -54.1504 85.4004 -49.4141 85.4004 -42.9688 C 85.4004 -36.7676 80.6641 -31.9336 74.1211 -31.9336 Z"/>
  </g>
  <g id="Light-M" transform="matrix(1 0 0 1 1095.42 1126)">
   <path d="M 57.7148 13.7695 C 84.5215 13.7695 106.689 -8.39844 106.689 -35.2051 C 106.689 -62.0117 84.4727 -84.1797 57.666 -84.1797 C 30.8594 -84.1797 8.74023 -62.0117 8.74023 -35.2051 C 8.74023 -8.39844 30.8594 13.7695 57.7148 13.7695 Z M 57.7148 7.4707 C 34.082 7.4707 15.0879 -11.5723 15.0879 -35.2051 C 15.0879 -58.8379 34.0332 -77.832 57.666 -77.832 C 81.2988 -77.832 100.342 -58.8379 100.342 -35.2051 C 100.391 -11.5723 81.2988 7.4707 57.7148 7.4707 Z M 74.0723 -12.9883 C 84.2285 -12.9883 89.9902 -21.0938 89.9902 -37.1094 C 89.9902 -50.4883 84.1797 -57.4707 74.8047 -57.4707 C 66.1621 -57.4707 60.2539 -51.5625 60.2539 -42.7246 C 60.2539 -34.1797 66.2598 -28.8086 73.3887 -28.8086 C 79.3457 -28.8086 83.2031 -31.8359 84.8633 -36.0352 L 85.1562 -36.0352 C 85.2051 -24.4141 80.8594 -17.7246 74.0234 -17.7246 C 70.5566 -17.7246 67.7246 -19.5312 66.3086 -22.2168 C 65.6738 -23.4863 64.8438 -23.9258 63.7695 -23.9258 C 62.5 -23.9258 61.6211 -22.9492 61.6211 -21.5332 C 61.6211 -21.0938 61.7188 -20.7031 61.8164 -20.2148 C 62.4512 -17.334 67.0898 -12.9883 74.0723 -12.9883 Z M 41.1133 -12.9883 C 49.7559 -12.9883 55.8594 -18.2129 55.8594 -25.5371 C 55.8594 -31.0059 51.8066 -35.498 46.4355 -36.0352 L 46.4355 -36.3281 C 50.9766 -37.1094 54.3945 -41.4551 54.3945 -46.3867 C 54.3945 -52.8809 48.9746 -57.4707 41.3086 -57.4707 C 34.5215 -57.4707 29.1504 -53.5645 28.125 -48.584 C 28.0273 -47.9492 27.9785 -47.5098 27.9785 -46.9238 C 27.9785 -45.4102 28.9551 -44.3848 30.3223 -44.3848 C 31.6406 -44.3848 32.3242 -45.1172 32.7148 -46.4355 C 33.5938 -50.3906 36.7188 -52.7832 41.2109 -52.7832 C 46.0449 -52.7832 49.3652 -49.9023 49.3652 -45.752 C 49.3652 -41.4551 45.8984 -38.2812 41.3086 -38.2812 L 37.9883 -38.2812 C 36.6699 -38.2812 35.7422 -37.3535 35.7422 -35.9375 C 35.7422 -34.5703 36.6699 -33.5449 37.9883 -33.5449 L 41.6016 -33.5449 C 46.9727 -33.5449 50.7324 -30.3223 50.7324 -25.7324 C 50.7324 -21.0449 46.8262 -17.6758 41.1621 -17.6758 C 36.4746 -17.6758 33.0078 -20.1172 31.8848 -24.0234 C 31.3965 -25.3906 30.7129 -26.0254 29.4434 -26.0254 C 28.0762 -26.0254 27.0996 -25 27.0996 -23.5352 C 27.0996 -22.9492 27.1484 -22.4609 27.2949 -21.875 C 28.7109 -16.9434 34.2285 -12.9883 41.1133 -12.9883 Z M 74.9023 -33.1543 C 69.2871 -33.1543 65.4297 -37.3047 65.4297 -43.0176 C 65.4297 -48.9258 69.3359 -52.8809 75 -52.8809 C 80.3711 -52.8809 84.5215 -48.6816 84.5215 -42.8711 C 84.5215 -37.3047 80.5176 -33.1543 74.9023 -33.1543 Z"/>
  </g>
  <g id="Regular-M" transform="matrix(1 0 0 1 1391.32 1126)">
   <path d="M 58.5449 14.5508 C 85.7422 14.5508 108.35 -8.00781 108.35 -35.2539 C 108.35 -62.4512 85.6934 -85.0586 58.4961 -85.0586 C 31.25 -85.0586 8.74023 -62.4512 8.74023 -35.2539 C 8.74023 -8.00781 31.2988 14.5508 58.5449 14.5508 Z M 58.5449 6.25 C 35.498 6.25 17.0898 -12.207 17.0898 -35.2539 C 17.0898 -58.252 35.4492 -76.7578 58.4961 -76.7578 C 81.4941 -76.7578 100 -58.252 100.049 -35.2539 C 100.098 -12.207 81.543 6.25 58.5449 6.25 Z M 74.5605 -12.9883 C 84.8145 -12.9883 90.4297 -21.1426 90.4297 -36.7188 C 90.4297 -50.293 84.8633 -57.5684 75.293 -57.5684 C 66.4551 -57.5684 60.791 -51.709 60.791 -42.5781 C 60.791 -33.7402 66.8457 -28.7598 73.584 -28.7598 C 79.2969 -28.7598 82.666 -31.7871 84.0332 -35.3516 L 84.375 -35.3516 C 84.4727 -25.0977 80.4688 -18.8477 74.4629 -18.8477 C 71.4844 -18.8477 69.1406 -20.459 67.8711 -22.7539 C 67.041 -24.2188 66.0156 -24.707 64.7461 -24.707 C 63.1836 -24.707 62.0117 -23.4863 62.0117 -21.7285 C 62.0117 -21.2402 62.1582 -20.7031 62.2559 -20.166 C 62.8418 -17.2852 67.2363 -12.9883 74.5605 -12.9883 Z M 41.8457 -12.9883 C 50.5859 -12.9883 56.7383 -18.2617 56.7383 -25.7324 C 56.7383 -31.2012 52.9297 -35.5957 47.6562 -36.1328 L 47.6562 -36.4746 C 52.002 -37.1582 55.3223 -41.5039 55.3223 -46.3379 C 55.3223 -52.9785 49.9023 -57.5684 42.1875 -57.5684 C 35.1562 -57.5684 29.9316 -53.5645 28.7109 -48.5352 C 28.5645 -47.9004 28.5156 -47.3633 28.5156 -46.6797 C 28.5156 -44.873 29.7363 -43.6035 31.4453 -43.6035 C 32.959 -43.6035 33.8379 -44.4336 34.3262 -46.0449 C 35.3516 -49.7559 37.9883 -51.7578 42.041 -51.7578 C 46.1914 -51.7578 49.0723 -49.1699 49.0723 -45.5566 C 49.0723 -41.6992 46.1426 -38.916 41.9922 -38.916 L 39.1602 -38.916 C 37.5488 -38.916 36.4258 -37.7441 36.4258 -35.9863 C 36.4258 -34.2773 37.5488 -33.0078 39.1602 -33.0078 L 42.2363 -33.0078 C 47.168 -33.0078 50.3906 -30.2246 50.3906 -26.0254 C 50.3906 -21.9238 46.875 -18.8477 41.8945 -18.8477 C 37.6465 -18.8477 34.8145 -20.9473 33.5449 -24.5605 C 32.9102 -26.2207 32.0801 -26.9531 30.6152 -26.9531 C 28.9062 -26.9531 27.6855 -25.7324 27.6855 -23.877 C 27.6855 -23.1934 27.7344 -22.7051 27.9297 -22.0215 C 29.248 -17.1875 34.8145 -12.9883 41.8457 -12.9883 Z M 75.5371 -34.0332 C 70.6055 -34.0332 67.2363 -37.6953 67.2363 -42.9199 C 67.2363 -48.3887 70.5566 -51.9531 75.5859 -51.9531 C 80.3223 -51.9531 83.8379 -48.1445 83.8379 -42.8223 C 83.8379 -37.7441 80.4199 -34.0332 75.5371 -34.0332 Z"/>
  </g>
  <g id="Medium-M" transform="matrix(1 0 0 1 1687.33 1126)">
   <path d="M 59.2285 15.2832 C 86.8652 15.2832 109.717 -7.56836 109.717 -35.2051 C 109.717 -62.8906 86.8164 -85.7422 59.1797 -85.7422 C 31.543 -85.7422 8.74023 -62.8906 8.74023 -35.2051 C 8.74023 -7.56836 31.5918 15.2832 59.2285 15.2832 Z M 59.2285 5.17578 C 36.8164 5.17578 18.8477 -12.8418 18.8477 -35.2051 C 18.8477 -57.6172 36.7676 -75.6348 59.1797 -75.6348 C 81.5918 -75.6348 99.6094 -57.6172 99.6582 -35.2051 C 99.6582 -12.8418 81.6406 5.17578 59.2285 5.17578 Z M 74.8047 -13.2324 C 85.0098 -13.2324 90.5762 -21.3867 90.5762 -36.7188 C 90.5762 -49.9023 85.2051 -57.3242 75.4883 -57.3242 C 66.7969 -57.3242 61.1328 -51.5625 61.1328 -42.4316 C 61.1328 -33.8867 66.7969 -28.8086 73.4375 -28.8086 C 78.7598 -28.8086 82.1289 -31.6895 83.4961 -35.1562 L 83.7891 -35.1562 C 83.8379 -25.9277 80.4199 -19.8242 74.707 -19.8242 C 71.9238 -19.8242 69.873 -21.2402 68.6523 -23.291 C 67.8223 -24.6582 66.748 -25.1953 65.332 -25.1953 C 63.6719 -25.1953 62.3535 -23.877 62.3535 -21.9727 C 62.3535 -21.2891 62.5 -20.7031 62.6953 -20.0684 C 63.4766 -17.1875 67.7246 -13.2324 74.8047 -13.2324 Z M 42.7246 -13.2324 C 51.5137 -13.2324 57.5684 -18.4082 57.5684 -25.8789 C 57.5684 -31.2988 53.9062 -35.6445 48.8281 -36.1328 L 48.8281 -36.5234 C 53.0762 -37.1582 56.2988 -41.4062 56.2988 -46.0938 C 56.2988 -52.7344 50.8301 -57.3242 43.0176 -57.3242 C 36.0352 -57.3242 31.0059 -53.2715 29.7852 -48.6816 C 29.541 -47.9004 29.4922 -47.3145 29.4922 -46.582 C 29.4922 -44.5312 30.7617 -43.1641 32.666 -43.1641 C 34.3262 -43.1641 35.2539 -44.043 35.8887 -45.6055 C 36.9629 -48.9258 39.2578 -50.7324 42.8711 -50.7324 C 46.5332 -50.7324 49.0723 -48.4375 49.0723 -45.1172 C 49.0723 -41.748 46.5332 -39.209 42.8223 -39.209 L 40.5273 -39.209 C 38.5742 -39.209 37.3047 -37.8906 37.3047 -35.8398 C 37.3047 -33.9355 38.5254 -32.4707 40.5273 -32.4707 L 43.0176 -32.4707 C 47.3633 -32.4707 50.2441 -30.0293 50.2441 -26.2695 C 50.2441 -22.6562 47.168 -19.9707 42.8223 -19.9707 C 39.1113 -19.9707 36.4746 -21.8262 35.2051 -25.0488 C 34.4727 -26.6602 33.5449 -27.4902 31.9336 -27.4902 C 30.1758 -27.4902 28.7109 -26.1719 28.7109 -24.0723 C 28.7109 -23.3398 28.8086 -22.7539 29.0039 -22.0703 C 30.3711 -17.334 35.8398 -13.2324 42.7246 -13.2324 Z M 75.7324 -34.7656 C 71.3379 -34.7656 68.3594 -38.0859 68.3594 -42.8223 C 68.3594 -47.7539 71.3379 -51.0254 75.7812 -51.0254 C 80.0293 -51.0254 83.1543 -47.6074 83.1543 -42.7734 C 83.1543 -38.1348 80.127 -34.7656 75.7324 -34.7656 Z"/>
  </g>
  <g id="Semibold-M" transform="matrix(1 0 0 1 1983.5 1126)">
   <path d="M 59.7656 15.8203 C 87.7441 15.8203 110.791 -7.22656 110.791 -35.2051 C 110.791 -63.1836 87.6953 -86.2793 59.7168 -86.2793 C 31.7383 -86.2793 8.74023 -63.1836 8.74023 -35.2051 C 8.74023 -7.22656 31.7871 15.8203 59.7656 15.8203 Z M 59.7656 4.3457 C 37.8418 4.3457 20.2148 -13.2812 20.2148 -35.2051 C 20.2148 -57.1289 37.793 -74.8047 59.7168 -74.8047 C 81.6406 -74.8047 99.3164 -57.1289 99.3164 -35.2051 C 99.3652 -13.2812 81.6895 4.3457 59.7656 4.3457 Z M 75 -13.4277 C 85.1562 -13.4277 90.7227 -21.6309 90.7227 -36.6699 C 90.7227 -49.6582 85.498 -57.1289 75.6836 -57.1289 C 67.0898 -57.1289 61.377 -51.416 61.377 -42.334 C 61.377 -33.9355 66.7969 -28.9062 73.3398 -28.9062 C 78.3691 -28.9062 81.6895 -31.5918 83.0078 -35.0098 L 83.3496 -35.0098 C 83.3984 -26.6113 80.3711 -20.5566 74.9023 -20.5566 C 72.2656 -20.5566 70.4102 -21.875 69.2383 -23.7305 C 68.457 -24.9512 67.334 -25.5371 65.8203 -25.5371 C 64.0625 -25.5371 62.5977 -24.2188 62.5977 -22.168 C 62.5977 -21.3379 62.793 -20.7031 63.0371 -19.9707 C 63.916 -17.0898 68.0664 -13.4277 75 -13.4277 Z M 43.4082 -13.4277 C 52.2461 -13.4277 58.2031 -18.5059 58.2031 -26.0254 C 58.2031 -31.3477 54.6875 -35.6934 49.707 -36.1328 L 49.707 -36.5234 C 53.8574 -37.207 56.9824 -41.3574 56.9824 -45.8984 C 56.9824 -52.5879 51.5625 -57.1289 43.6523 -57.1289 C 36.7676 -57.1289 31.8359 -53.0762 30.5664 -48.7793 C 30.2734 -47.9492 30.2246 -47.2656 30.2246 -46.4844 C 30.2246 -44.2383 31.5918 -42.8223 33.5938 -42.8223 C 35.3516 -42.8223 36.377 -43.7012 37.0605 -45.2637 C 38.1348 -48.3398 40.2832 -49.9512 43.457 -49.9512 C 46.7773 -49.9512 49.0723 -47.8516 49.0723 -44.8242 C 49.0723 -41.7969 46.875 -39.4531 43.457 -39.4531 L 41.5527 -39.4531 C 39.4043 -39.4531 37.9883 -37.9883 37.9883 -35.791 C 37.9883 -33.6426 39.2578 -32.0801 41.5527 -32.0801 L 43.6523 -32.0801 C 47.5586 -32.0801 50.0977 -29.834 50.0977 -26.4648 C 50.0977 -23.2422 47.4121 -20.8008 43.5059 -20.8008 C 40.1855 -20.8008 37.7441 -22.4609 36.4746 -25.4395 C 35.6934 -27.0508 34.668 -27.8809 32.959 -27.8809 C 31.1523 -27.8809 29.4922 -26.4648 29.4922 -24.2188 C 29.4922 -23.4375 29.5898 -22.8027 29.834 -22.0703 C 31.2012 -17.4805 36.6699 -13.4277 43.4082 -13.4277 Z M 75.9277 -35.3516 C 71.9238 -35.3516 69.1895 -38.4277 69.1895 -42.7734 C 69.1895 -47.2656 71.9238 -50.293 75.9277 -50.293 C 79.834 -50.293 82.666 -47.168 82.666 -42.7246 C 82.666 -38.4277 79.8828 -35.3516 75.9277 -35.3516 Z"/>
  </g>
  <g id="Bold-M" transform="matrix(1 0 0 1 2279.5 1126)">
   <path d="M 60.4492 16.5039 C 88.8672 16.5039 112.207 -6.78711 112.207 -35.2051 C 112.207 -63.623 88.8672 -86.9629 60.4492 -86.9629 C 32.0312 -86.9629 8.74023 -63.623 8.74023 -35.2051 C 8.74023 -6.78711 32.0801 16.5039 60.4492 16.5039 Z M 60.4492 3.22266 C 39.1602 3.22266 22.0215 -13.916 22.0215 -35.2051 C 22.0215 -56.4941 39.1602 -73.6816 60.4492 -73.6816 C 81.7383 -73.6816 98.877 -56.4941 98.9258 -35.2051 C 98.9258 -13.916 81.7871 3.22266 60.4492 3.22266 Z M 75.2441 -13.6719 C 85.4004 -13.6719 90.8691 -21.875 90.8691 -36.6699 C 90.8691 -49.2676 85.8887 -56.8848 75.8789 -56.8848 C 67.4316 -56.8848 61.7188 -51.2695 61.7188 -42.1875 C 61.7188 -34.0332 66.7969 -28.9551 73.1934 -28.9551 C 77.832 -28.9551 81.1035 -31.4453 82.4219 -34.8145 L 82.7148 -34.8145 C 82.7637 -27.4414 80.2734 -21.4844 75.1465 -21.4844 C 72.7051 -21.4844 71.1426 -22.7051 70.0684 -24.3164 C 69.2383 -25.4395 68.0664 -26.0254 66.4062 -26.0254 C 64.5996 -26.0254 62.9395 -24.6094 62.9395 -22.4121 C 62.9395 -21.4355 63.1348 -20.7031 63.4766 -19.8242 C 64.5508 -16.9922 68.5547 -13.6719 75.2441 -13.6719 Z M 44.3359 -13.6719 C 53.1738 -13.6719 59.0332 -18.6523 59.0332 -26.2207 C 59.0332 -31.4453 55.6641 -35.7422 50.9277 -36.1328 L 50.9277 -36.5723 C 54.9316 -37.2559 57.959 -41.2598 57.959 -45.6543 C 57.959 -52.3926 52.5391 -56.8848 44.4824 -56.8848 C 37.6953 -56.8848 32.9102 -52.832 31.6406 -48.877 C 31.2988 -47.9492 31.2012 -47.2168 31.2012 -46.3867 C 31.2012 -43.8965 32.666 -42.3828 34.8633 -42.3828 C 36.7188 -42.3828 37.8418 -43.3105 38.623 -44.8242 C 39.7461 -47.5098 41.5527 -48.877 44.2871 -48.877 C 47.1191 -48.877 49.1211 -47.0703 49.1211 -44.3848 C 49.1211 -41.8945 47.2656 -39.7949 44.3359 -39.7949 L 42.9199 -39.7949 C 40.4297 -39.7949 38.8672 -38.1348 38.8672 -35.6934 C 38.8672 -33.252 40.2344 -31.543 42.9199 -31.543 L 44.4336 -31.543 C 47.7539 -31.543 49.9512 -29.6387 49.9512 -26.709 C 49.9512 -24.0234 47.7051 -21.9238 44.4336 -21.9238 C 41.6504 -21.9238 39.4043 -23.3398 38.1348 -25.9766 C 37.3047 -27.4902 36.1328 -28.418 34.3262 -28.418 C 32.4219 -28.418 30.5664 -26.9043 30.5664 -24.4141 C 30.5664 -23.584 30.6641 -22.8516 30.9082 -22.1191 C 32.3242 -17.6758 37.7441 -13.6719 44.3359 -13.6719 Z M 76.123 -36.084 C 72.7051 -36.084 70.3125 -38.8184 70.3125 -42.6758 C 70.3125 -46.6309 72.7051 -49.3164 76.1719 -49.3164 C 79.541 -49.3164 82.0312 -46.582 82.0312 -42.627 C 82.0312 -38.8184 79.5898 -36.084 76.123 -36.084 Z"/>
  </g>
  <g id="Heavy-M" transform="matrix(1 0 0 1 2575.19 1126)">
   <path d="M 61.4746 17.5781 C 90.5273 17.5781 114.258 -6.15234 114.258 -35.2051 C 114.258 -64.2578 90.5273 -87.9883 61.4746 -87.9883 C 32.4219 -87.9883 8.74023 -64.2578 8.74023 -35.2051 C 8.74023 -6.15234 32.4707 17.5781 61.4746 17.5781 Z M 61.4746 1.66016 C 41.1133 1.66016 24.6582 -14.8438 24.6582 -35.2051 C 24.6582 -55.5664 41.1133 -72.0703 61.4746 -72.0703 C 81.8359 -72.0703 98.3398 -55.5664 98.3398 -35.2051 C 98.3398 -14.8438 81.8848 1.66016 61.4746 1.66016 Z M 75.6348 -14.0137 C 85.6934 -14.0137 91.1133 -22.2656 91.1133 -36.6211 C 91.1133 -48.7793 86.4258 -56.4941 76.2207 -56.4941 C 67.9199 -56.4941 62.1582 -51.0254 62.1582 -41.9922 C 62.1582 -34.2285 66.748 -29.0527 72.9492 -29.0527 C 77.0508 -29.0527 80.2734 -31.2988 81.5918 -34.5215 L 81.8848 -34.5215 C 81.8359 -28.7109 80.1758 -22.9004 75.4883 -22.9004 C 73.3887 -22.9004 72.2168 -23.877 71.1914 -25.0977 C 70.4102 -26.0742 69.0918 -26.709 67.334 -26.709 C 65.332 -26.709 63.4277 -25.2441 63.4277 -22.7539 C 63.4277 -21.5332 63.623 -20.7031 64.1602 -19.6289 C 65.4297 -16.8457 69.2871 -14.0137 75.6348 -14.0137 Z M 45.6055 -14.0137 C 54.4922 -14.0137 60.2051 -18.8965 60.2051 -26.4648 C 60.2051 -31.5918 57.1289 -35.8398 52.6367 -36.1816 L 52.6367 -36.6211 C 56.4453 -37.3047 59.3262 -41.1621 59.3262 -45.2637 C 59.3262 -52.0996 53.9551 -56.4941 45.7031 -56.4941 C 39.0625 -56.4941 34.4727 -52.4414 33.2031 -49.0723 C 32.7148 -47.9492 32.5684 -47.1191 32.5684 -46.1914 C 32.5684 -43.3594 34.2285 -41.748 36.6699 -41.748 C 38.6719 -41.748 39.9414 -42.6758 40.918 -44.1895 C 42.041 -46.3379 43.457 -47.4121 45.5078 -47.4121 C 47.6074 -47.4121 49.1211 -45.9473 49.1211 -43.7988 C 49.1211 -41.9922 47.8516 -40.2344 45.5566 -40.2344 L 44.873 -40.2344 C 41.9434 -40.2344 40.1367 -38.3301 40.1367 -35.498 C 40.1367 -32.7148 41.6504 -30.7129 44.873 -30.7129 L 45.6055 -30.7129 C 48.0957 -30.7129 49.707 -29.2969 49.707 -27.0996 C 49.707 -25.1953 48.1445 -23.5352 45.752 -23.5352 C 43.75 -23.5352 41.8457 -24.6094 40.5762 -26.709 C 39.5996 -28.2227 38.2812 -29.1504 36.2793 -29.1504 C 34.2773 -29.1504 32.0312 -27.5879 32.0312 -24.707 C 32.0312 -23.8281 32.2266 -22.9492 32.5195 -22.1191 C 33.9355 -17.9688 39.3066 -14.0137 45.6055 -14.0137 Z M 76.4648 -37.1582 C 73.8281 -37.1582 71.9238 -39.4043 71.9238 -42.5293 C 71.9238 -45.752 73.7793 -47.9492 76.4648 -47.9492 C 79.1016 -47.9492 81.0547 -45.752 81.0547 -42.5293 C 81.0547 -39.4043 79.1504 -37.1582 76.4648 -37.1582 Z"/>
  </g>
  <g id="Black-M" transform="matrix(1 0 0 1 2871 1126)">
   <path d="M 62.4023 18.457 C 91.9922 18.457 116.064 -5.61523 116.064 -35.2051 C 116.064 -64.7949 91.9922 -88.8672 62.4023 -88.8672 C 32.8125 -88.8672 8.74023 -64.7949 8.74023 -35.2051 C 8.74023 -5.61523 32.8125 18.457 62.4023 18.457 Z M 62.4023 0.195312 C 42.8223 0.195312 27.002 -15.625 27.002 -35.2051 C 27.002 -54.7363 42.8223 -70.6055 62.4023 -70.6055 C 81.9824 -70.6055 97.8027 -54.7363 97.8027 -35.2051 C 97.8027 -15.625 81.9824 0.195312 62.4023 0.195312 Z M 75.9277 -14.3555 C 85.9375 -14.3555 91.3086 -22.6562 91.3086 -36.5723 C 91.3086 -48.291 86.9141 -56.1523 76.5137 -56.1523 C 68.3594 -56.1523 62.5977 -50.8301 62.5977 -41.7969 C 62.5977 -34.3262 66.748 -29.1504 72.7539 -29.1504 C 76.3184 -29.1504 79.541 -31.1523 80.8594 -34.2285 L 81.1035 -34.2285 C 81.0059 -29.834 80.0781 -24.1699 75.8301 -24.1699 C 73.9746 -24.1699 73.1934 -24.9512 72.2656 -25.8301 C 71.4355 -26.6602 70.0684 -27.3438 68.1152 -27.3438 C 66.0156 -27.3438 63.8672 -25.7812 63.8672 -23.0957 C 63.8672 -21.6309 64.1113 -20.6543 64.7461 -19.4824 C 66.2109 -16.748 69.9219 -14.3555 75.9277 -14.3555 Z M 46.7773 -14.3555 C 55.7129 -14.3555 61.2793 -19.0918 61.2793 -26.6602 C 61.2793 -31.7383 58.4473 -35.8887 54.1504 -36.1816 L 54.1504 -36.7188 C 57.8125 -37.3047 60.5469 -41.0645 60.5469 -44.9707 C 60.5469 -51.8066 55.2246 -56.1523 46.7773 -56.1523 C 40.2344 -56.1523 35.8887 -52.0996 34.6191 -49.2188 C 34.0332 -47.998 33.8379 -47.0215 33.8379 -46.0449 C 33.8379 -42.8711 35.6445 -41.1133 38.2812 -41.1133 C 40.4297 -41.1133 41.8457 -42.1387 42.9199 -43.6035 C 44.0918 -45.2637 45.166 -46.0449 46.582 -46.0449 C 48.0469 -46.0449 49.1211 -44.9707 49.1211 -43.2617 C 49.1211 -42.041 48.4375 -40.6738 46.6309 -40.6738 C 43.3105 -40.6738 41.3086 -38.5254 41.3086 -35.3516 C 41.3086 -32.2266 42.9199 -30.0293 46.6309 -30.0293 C 48.3887 -30.0293 49.4629 -29.0039 49.4629 -27.4414 C 49.4629 -26.1719 48.5352 -25 46.9727 -25 C 45.6055 -25 43.9941 -25.7812 42.7734 -27.3926 C 41.6992 -28.8086 40.1855 -29.834 38.0371 -29.834 C 35.9375 -29.834 33.3984 -28.125 33.3984 -24.9512 C 33.3984 -23.9746 33.5938 -23.0469 33.8867 -22.168 C 35.3516 -18.2129 40.7227 -14.3555 46.7773 -14.3555 Z M 76.7578 -38.1348 C 74.8047 -38.1348 73.3398 -39.8926 73.3398 -42.4316 C 73.3398 -44.9219 74.8047 -46.6797 76.7578 -46.6797 C 78.7598 -46.6797 80.2246 -44.9707 80.2246 -42.4316 C 80.2246 -39.8926 78.7598 -38.1348 76.7578 -38.1348 Z"/>
  </g>
  <g id="Ultralight-L" transform="matrix(1 0 0 1 487.641 1556)">
   <path d="M 72.0703 25.7324 C 105.566 25.7324 132.91 -1.61133 132.91 -35.1074 C 132.91 -68.5547 105.566 -95.8984 72.0703 -95.8984 C 38.623 -95.8984 11.2793 -68.5547 11.2793 -35.1074 C 11.2793 -1.61133 38.623 25.7324 72.0703 25.7324 Z M 72.0703 23.2422 C 39.9414 23.2422 13.7695 -2.97852 13.7695 -35.1074 C 13.7695 -67.2363 39.9414 -93.4082 72.0703 -93.4082 C 104.199 -93.4082 130.42 -67.2363 130.371 -35.1074 C 130.371 -2.97852 104.199 23.2422 72.0703 23.2422 Z M 94.1406 -6.54297 C 107.08 -6.54297 114.844 -16.8457 114.844 -38.7207 C 114.844 -55.5176 106.738 -63.5254 95.2148 -63.5254 C 84.4238 -63.5254 76.2695 -55.8594 76.2695 -45.2148 C 76.2695 -35.2051 83.8379 -27.0996 94.1895 -27.0996 C 102.637 -27.0996 108.838 -30.957 111.816 -38.1836 L 112.061 -38.1836 C 112.061 -19.2383 105.518 -9.375 94.2383 -9.375 C 88.4277 -9.375 83.3008 -12.4023 81.1523 -16.8945 C 80.7129 -17.9688 80.3223 -18.3105 79.5898 -18.3105 C 78.8086 -18.3105 78.2715 -17.8711 78.2715 -17.041 C 78.2715 -16.5527 78.3203 -16.3574 78.418 -16.0645 C 79.3945 -12.3047 86.2305 -6.54297 94.1406 -6.54297 Z M 50.9766 -6.49414 C 61.7676 -6.49414 69.5801 -13.1348 69.5801 -22.2656 C 69.5801 -29.248 63.7695 -35.2051 56.2988 -35.9375 L 56.2988 -36.2793 C 62.8418 -37.5 67.5293 -43.2129 67.5293 -49.7559 C 67.5293 -57.7637 60.4492 -63.5254 50.8301 -63.5254 C 42.7246 -63.5254 35.4492 -58.9844 34.7168 -52.4902 C 34.6191 -51.8555 34.5215 -51.416 34.5215 -50.8789 C 34.5215 -49.9512 35.1074 -49.3164 35.9375 -49.3164 C 36.9141 -49.3164 37.5 -49.8047 37.5488 -50.7812 C 38.1836 -56.6406 43.75 -60.8398 50.8301 -60.8398 C 58.9844 -60.8398 64.4531 -56.2012 64.4531 -49.4141 C 64.4531 -42.6758 58.6426 -37.3535 51.3184 -37.3535 L 45.6543 -37.3535 C 44.7754 -37.3535 44.2383 -36.8164 44.2383 -35.9863 C 44.2383 -35.1074 44.7754 -34.5703 45.6543 -34.5703 L 51.8066 -34.5703 C 60.1074 -34.5703 66.4551 -29.1992 66.4551 -22.2168 C 66.4551 -14.4531 60.2051 -9.17969 50.9766 -9.17969 C 43.6523 -9.17969 37.4512 -13.4277 36.2793 -19.2383 C 36.1328 -20.2637 35.5957 -20.7031 34.7168 -20.7031 C 33.8867 -20.7031 33.252 -20.0684 33.252 -19.1406 C 33.252 -18.6035 33.3008 -18.1641 33.4961 -17.5293 C 35.4004 -10.8887 42.4805 -6.49414 50.9766 -6.49414 Z M 94.9219 -29.9805 C 85.6445 -29.9805 79.1992 -36.6211 79.1992 -45.5078 C 79.1992 -54.3457 85.9863 -60.6934 95.0684 -60.6934 C 103.906 -60.6934 110.986 -54.1016 110.986 -45.2637 C 110.986 -36.7188 104.199 -29.9805 94.9219 -29.9805 Z"/>
  </g>
  <g id="Thin-L" transform="matrix(1 0 0 1 783.717 1556)">
   <path d="M 72.7051 26.3184 C 106.494 26.3184 134.131 -1.36719 134.131 -35.1074 C 134.131 -68.8965 106.445 -96.582 72.7051 -96.582 C 38.916 -96.582 11.2793 -68.8965 11.2793 -35.1074 C 11.2793 -1.36719 38.916 26.3184 72.7051 26.3184 Z M 72.7051 22.3145 C 41.0156 22.3145 15.2344 -3.41797 15.2344 -35.1074 C 15.2344 -66.8457 41.0156 -92.5781 72.7051 -92.5781 C 104.395 -92.5781 130.127 -66.8457 130.176 -35.1074 C 130.176 -3.41797 104.395 22.3145 72.7051 22.3145 Z M 94.5312 -6.54297 C 107.52 -6.54297 115.186 -16.8945 115.186 -38.4277 C 115.186 -55.3711 107.227 -63.623 95.5566 -63.623 C 84.668 -63.623 76.6602 -56.0059 76.6602 -45.1172 C 76.6602 -34.8633 84.2773 -27.0508 94.3359 -27.0508 C 102.588 -27.0508 108.447 -30.9082 111.23 -37.6465 L 111.475 -37.6465 C 111.475 -19.7754 105.176 -10.2051 94.5801 -10.2051 C 89.1602 -10.2051 84.375 -13.0859 82.3242 -17.2852 C 81.7871 -18.5059 81.2012 -18.9453 80.3223 -18.9453 C 79.2969 -18.9453 78.5645 -18.2617 78.5645 -17.1875 C 78.5645 -16.6504 78.6621 -16.4062 78.7598 -16.0156 C 79.6875 -12.2559 86.3281 -6.54297 94.5312 -6.54297 Z M 51.5137 -6.49414 C 62.4023 -6.49414 70.2148 -13.1836 70.2148 -22.3633 C 70.2148 -29.3945 64.5996 -35.3027 57.2754 -36.0352 L 57.2754 -36.377 C 63.623 -37.5488 68.2129 -43.2617 68.2129 -49.707 C 68.2129 -57.8125 61.1816 -63.623 51.4648 -63.623 C 43.2129 -63.623 35.9863 -58.9844 35.1074 -52.4902 C 35.0098 -51.8066 34.9609 -51.3184 34.9609 -50.7324 C 34.9609 -49.5117 35.6934 -48.7305 36.7676 -48.7305 C 37.9395 -48.7305 38.623 -49.3164 38.7695 -50.4883 C 39.5508 -56.1523 44.7266 -60.0586 51.4648 -60.0586 C 59.082 -60.0586 64.209 -55.6641 64.209 -49.2676 C 64.209 -42.8223 58.7891 -37.8418 51.8066 -37.8418 L 46.5332 -37.8418 C 45.459 -37.8418 44.7266 -37.1094 44.7266 -36.0352 C 44.7266 -34.9121 45.459 -34.1797 46.5332 -34.1797 L 52.2949 -34.1797 C 60.2051 -34.1797 66.2109 -29.1016 66.2109 -22.4121 C 66.2109 -15.0879 60.2539 -10.0586 51.5137 -10.0586 C 44.5312 -10.0586 38.8184 -14.0137 37.5488 -19.6289 C 37.2559 -20.8496 36.6699 -21.3867 35.5957 -21.3867 C 34.5215 -21.3867 33.6914 -20.6055 33.6914 -19.3848 C 33.6914 -18.7988 33.7891 -18.3105 33.9355 -17.627 C 35.8398 -11.084 42.9199 -6.49414 51.5137 -6.49414 Z M 95.3613 -30.6152 C 86.6211 -30.6152 80.5664 -36.9629 80.5664 -45.459 C 80.5664 -53.9551 86.9141 -60.0098 95.5078 -60.0098 C 103.857 -60.0098 110.449 -53.7109 110.449 -45.2148 C 110.449 -37.0605 104.102 -30.6152 95.3613 -30.6152 Z"/>
  </g>
  <g id="Light-L" transform="matrix(1 0 0 1 1079.21 1556)">
   <path d="M 73.9258 27.4902 C 108.301 27.4902 136.572 -0.830078 136.572 -35.1562 C 136.572 -69.5312 108.252 -97.8516 73.877 -97.8516 C 39.5508 -97.8516 11.2793 -69.5312 11.2793 -35.1562 C 11.2793 -0.830078 39.5508 27.4902 73.9258 27.4902 Z M 73.9258 20.6055 C 43.0664 20.6055 18.1641 -4.3457 18.1641 -35.1562 C 18.1641 -66.0156 43.0664 -90.918 73.877 -90.918 C 104.736 -90.918 129.639 -66.0156 129.688 -35.1562 C 129.736 -4.3457 104.785 20.6055 73.9258 20.6055 Z M 95.2637 -6.54297 C 108.35 -6.54297 115.82 -16.9434 115.82 -37.8906 C 115.82 -55.0293 108.203 -63.8184 96.2402 -63.8184 C 85.1562 -63.8184 77.4414 -56.2012 77.4414 -44.9219 C 77.4414 -34.1797 85.1074 -26.9531 94.5801 -26.9531 C 102.441 -26.9531 107.666 -30.8594 110.01 -36.6699 L 110.352 -36.6699 C 110.4 -20.8008 104.59 -11.9141 95.2637 -11.9141 C 90.4785 -11.9141 86.4746 -14.4043 84.5703 -18.0664 C 83.8379 -19.5801 82.959 -20.1172 81.6895 -20.1172 C 80.2734 -20.1172 79.1992 -19.043 79.1992 -17.4316 C 79.1992 -16.8945 79.3457 -16.4551 79.4434 -15.918 C 80.3223 -12.1582 86.5234 -6.54297 95.2637 -6.54297 Z M 52.5879 -6.49414 C 63.6719 -6.49414 71.5332 -13.2324 71.5332 -22.6074 C 71.5332 -29.6387 66.1621 -35.498 59.082 -36.1816 L 59.082 -36.5723 C 65.1367 -37.5977 69.6289 -43.2617 69.6289 -49.6582 C 69.6289 -57.959 62.5488 -63.8184 52.7344 -63.8184 C 44.1406 -63.8184 37.1094 -58.9355 35.9375 -52.4414 C 35.791 -51.709 35.7422 -51.123 35.7422 -50.4395 C 35.7422 -48.7305 36.8164 -47.5586 38.4277 -47.5586 C 39.9414 -47.5586 40.7715 -48.3887 41.1621 -49.9023 C 42.1875 -55.2246 46.582 -58.5449 52.6855 -58.5449 C 59.3262 -58.5449 63.8184 -54.5898 63.8184 -48.9258 C 63.8184 -43.1641 59.1309 -38.7695 52.832 -38.7695 L 48.291 -38.7695 C 46.7773 -38.7695 45.7031 -37.6953 45.7031 -36.084 C 45.7031 -34.5215 46.7773 -33.3984 48.291 -33.3984 L 53.2227 -33.3984 C 60.498 -33.3984 65.6738 -28.9551 65.6738 -22.8027 C 65.6738 -16.3574 60.3516 -11.8164 52.6367 -11.8164 C 46.2891 -11.8164 41.4551 -15.2344 40.0391 -20.4102 C 39.502 -22.0215 38.7207 -22.7539 37.2559 -22.7539 C 35.7422 -22.7539 34.5703 -21.6309 34.5703 -19.9219 C 34.5703 -19.1895 34.668 -18.6035 34.8633 -17.8711 C 36.6699 -11.4258 43.7988 -6.49414 52.5879 -6.49414 Z M 96.2891 -31.9336 C 88.5742 -31.9336 83.252 -37.5977 83.252 -45.3125 C 83.252 -53.2227 88.7207 -58.6426 96.3867 -58.6426 C 103.76 -58.6426 109.473 -52.9297 109.473 -45.166 C 109.473 -37.6465 103.955 -31.9336 96.2891 -31.9336 Z"/>
  </g>
  <g id="Regular-L" transform="matrix(1 0 0 1 1374.99 1556)">
   <path d="M 74.8535 28.3691 C 109.668 28.3691 138.428 -0.390625 138.428 -35.2051 C 138.428 -70.0195 109.619 -98.7793 74.8047 -98.7793 C 39.9902 -98.7793 11.2793 -70.0195 11.2793 -35.2051 C 11.2793 -0.390625 40.0391 28.3691 74.8535 28.3691 Z M 74.8535 19.2871 C 44.6289 19.2871 20.4102 -5.0293 20.4102 -35.2051 C 20.4102 -65.3809 44.5801 -89.6973 74.8047 -89.6973 C 104.98 -89.6973 129.297 -65.3809 129.346 -35.2051 C 129.395 -5.0293 105.029 19.2871 74.8535 19.2871 Z M 95.8008 -6.54297 C 108.936 -6.54297 116.357 -16.9922 116.357 -37.5 C 116.357 -54.834 108.936 -63.9648 96.7773 -63.9648 C 85.498 -63.9648 78.0273 -56.3965 78.0273 -44.8242 C 78.0273 -33.6914 85.791 -26.9043 94.7754 -26.9043 C 102.393 -26.9043 107.129 -30.8105 109.131 -35.9375 L 109.521 -35.9375 C 109.619 -21.582 104.15 -13.1836 95.752 -13.1836 C 91.5039 -13.1836 88.0371 -15.4297 86.2793 -18.6523 C 85.3516 -20.4102 84.2285 -20.9961 82.7637 -20.9961 C 80.957 -20.9961 79.6875 -19.6289 79.6875 -17.627 C 79.6875 -17.041 79.834 -16.4551 79.9316 -15.8691 C 80.7617 -12.1094 86.6211 -6.54297 95.8008 -6.54297 Z M 53.418 -6.54297 C 64.5996 -6.54297 72.5098 -13.2812 72.5098 -22.8027 C 72.5098 -29.8828 67.3828 -35.5957 60.498 -36.2793 L 60.498 -36.7188 C 66.2598 -37.6465 70.6543 -43.2617 70.6543 -49.6094 C 70.6543 -58.0566 63.623 -63.9648 53.7109 -63.9648 C 44.8242 -63.9648 37.9883 -58.8867 36.5723 -52.4414 C 36.4258 -51.6602 36.377 -51.0254 36.377 -50.1953 C 36.377 -48.0957 37.6953 -46.6797 39.6484 -46.6797 C 41.4551 -46.6797 42.4316 -47.6562 42.9688 -49.5117 C 44.1895 -54.4922 47.998 -57.373 53.5645 -57.373 C 59.4727 -57.373 63.5254 -53.8086 63.5254 -48.6816 C 63.5254 -43.4082 59.3262 -39.502 53.6133 -39.502 L 49.6094 -39.502 C 47.7539 -39.502 46.4355 -38.1348 46.4355 -36.1328 C 46.4355 -34.2285 47.7539 -32.8125 49.6094 -32.8125 L 53.9551 -32.8125 C 60.6934 -32.8125 65.332 -28.8574 65.332 -23.0957 C 65.332 -17.334 60.4492 -13.1348 53.4668 -13.1348 C 47.6074 -13.1348 43.457 -16.1621 41.8945 -20.9961 C 41.2109 -22.9004 40.2344 -23.7793 38.5742 -23.7793 C 36.6699 -23.7793 35.2539 -22.3633 35.2539 -20.3125 C 35.2539 -19.4824 35.3027 -18.8477 35.5469 -18.0664 C 37.3047 -11.7188 44.4336 -6.54297 53.418 -6.54297 Z M 96.9727 -32.959 C 90.0391 -32.959 85.3027 -38.0859 85.3027 -45.2148 C 85.3027 -52.6367 90.0391 -57.6172 97.0215 -57.6172 C 103.711 -57.6172 108.691 -52.3438 108.691 -45.1172 C 108.691 -38.1348 103.857 -32.959 96.9727 -32.959 Z"/>
  </g>
  <g id="Medium-L" transform="matrix(1 0 0 1 1670.9 1556)">
   <path d="M 75.6348 29.1992 C 110.938 29.1992 140.039 0.0488281 140.039 -35.2051 C 140.039 -70.459 110.889 -99.6094 75.5859 -99.6094 C 40.332 -99.6094 11.2793 -70.459 11.2793 -35.2051 C 11.2793 0.0488281 40.3809 29.1992 75.6348 29.1992 Z M 75.6348 18.0664 C 46.1426 18.0664 22.4609 -5.71289 22.4609 -35.2051 C 22.4609 -64.6973 46.0938 -88.4766 75.5859 -88.4766 C 105.127 -88.4766 128.857 -64.6973 128.906 -35.2051 C 128.955 -5.71289 105.176 18.0664 75.6348 18.0664 Z M 96.1426 -6.78711 C 109.277 -6.78711 116.553 -17.2363 116.553 -37.4023 C 116.553 -54.4434 109.424 -63.7695 97.0703 -63.7695 C 85.8887 -63.7695 78.418 -56.25 78.418 -44.6777 C 78.418 -33.6914 85.8887 -26.9531 94.6777 -26.9531 C 101.855 -26.9531 106.494 -30.7129 108.447 -35.6445 L 108.789 -35.6445 C 108.887 -22.5098 104.004 -14.3066 96.0449 -14.3066 C 92.0898 -14.3066 89.0137 -16.3574 87.3535 -19.2871 C 86.377 -20.9473 85.1562 -21.582 83.4961 -21.582 C 81.5918 -21.582 80.0781 -20.1172 80.0781 -17.9199 C 80.0781 -17.1387 80.2246 -16.4551 80.4688 -15.7227 C 81.3965 -12.0117 87.1094 -6.78711 96.1426 -6.78711 Z M 54.3457 -6.73828 C 65.625 -6.73828 73.4375 -13.4277 73.4375 -22.998 C 73.4375 -29.9805 68.5059 -35.6934 61.8164 -36.3281 L 61.8164 -36.7676 C 67.4316 -37.6953 71.6797 -43.2129 71.6797 -49.3652 C 71.6797 -57.8613 64.6973 -63.7695 54.6387 -63.7695 C 45.8008 -63.7695 39.1113 -58.6426 37.6465 -52.5391 C 37.4023 -51.6602 37.3535 -50.9277 37.3535 -50.0488 C 37.3535 -47.6562 38.8184 -46.1426 41.0156 -46.1426 C 42.9688 -46.1426 44.043 -47.168 44.7266 -49.0234 C 45.9961 -53.6133 49.4141 -56.25 54.4922 -56.25 C 59.8145 -56.25 63.4766 -52.9785 63.4766 -48.291 C 63.4766 -43.5059 59.7656 -39.8926 54.541 -39.8926 L 51.0742 -39.8926 C 48.877 -39.8926 47.3633 -38.3301 47.3633 -36.0352 C 47.3633 -33.8379 48.7793 -32.2266 51.0742 -32.2266 L 54.834 -32.2266 C 60.9375 -32.2266 65.0879 -28.6621 65.0879 -23.3887 C 65.0879 -18.2129 60.6934 -14.3555 54.4434 -14.3555 C 49.1699 -14.3555 45.3125 -17.0898 43.75 -21.582 C 42.9688 -23.5352 41.8945 -24.4629 39.9902 -24.4629 C 37.9883 -24.4629 36.2793 -22.9492 36.2793 -20.5566 C 36.2793 -19.6777 36.377 -18.9453 36.6211 -18.1152 C 38.4277 -11.9629 45.5078 -6.73828 54.3457 -6.73828 Z M 97.2656 -33.7891 C 90.9668 -33.7891 86.6699 -38.5254 86.6699 -45.1172 C 86.6699 -51.9531 91.0156 -56.543 97.3145 -56.543 C 103.418 -56.543 107.959 -51.709 107.959 -45.0195 C 107.959 -38.5742 103.564 -33.7891 97.2656 -33.7891 Z"/>
  </g>
  <g id="Semibold-L" transform="matrix(1 0 0 1 1967 1556)">
   <path d="M 76.2695 29.7852 C 111.914 29.7852 141.26 0.439453 141.26 -35.2051 C 141.26 -70.8496 111.865 -100.244 76.2207 -100.244 C 40.5762 -100.244 11.2793 -70.8496 11.2793 -35.2051 C 11.2793 0.439453 40.625 29.7852 76.2695 29.7852 Z M 76.2695 17.0898 C 47.3145 17.0898 24.0234 -6.25 24.0234 -35.2051 C 24.0234 -64.209 47.2656 -87.5 76.2207 -87.5 C 105.225 -87.5 128.516 -64.209 128.564 -35.2051 C 128.613 -6.25 105.273 17.0898 76.2695 17.0898 Z M 96.3867 -6.93359 C 109.521 -6.93359 116.748 -17.4805 116.748 -37.3047 C 116.748 -54.1504 109.766 -63.623 97.2656 -63.623 C 86.1816 -63.623 78.7109 -56.1523 78.7109 -44.5312 C 78.7109 -33.6914 85.9375 -27.002 94.6289 -27.002 C 101.465 -27.002 106.006 -30.6152 107.91 -35.4004 L 108.301 -35.4004 C 108.35 -23.1934 103.906 -15.1367 96.2891 -15.1367 C 92.5293 -15.1367 89.7461 -17.041 88.1348 -19.7754 C 87.1582 -21.3867 85.8398 -22.0215 84.082 -22.0215 C 82.0312 -22.0215 80.3711 -20.5078 80.3711 -18.1152 C 80.3711 -17.2363 80.5664 -16.4551 80.8594 -15.625 C 81.8848 -11.9629 87.4512 -6.93359 96.3867 -6.93359 Z M 55.0781 -6.93359 C 66.4062 -6.93359 74.1211 -13.5742 74.1211 -23.1445 C 74.1211 -30.0781 69.3848 -35.7422 62.8418 -36.3281 L 62.8418 -36.8164 C 68.3105 -37.7441 72.5098 -43.1641 72.5098 -49.1699 C 72.5098 -57.7148 65.4785 -63.623 55.3711 -63.623 C 46.5332 -63.623 39.9902 -58.4473 38.4766 -52.6367 C 38.1836 -51.6602 38.0859 -50.8789 38.0859 -49.9512 C 38.0859 -47.3633 39.6973 -45.7031 42.041 -45.7031 C 44.0918 -45.7031 45.3125 -46.7773 46.0449 -48.6328 C 47.3633 -52.9785 50.5371 -55.3711 55.1758 -55.3711 C 60.0586 -55.3711 63.4766 -52.3438 63.4766 -47.9492 C 63.4766 -43.5547 60.1074 -40.1855 55.2246 -40.1855 L 52.1973 -40.1855 C 49.707 -40.1855 48.0957 -38.5254 48.0957 -35.9863 C 48.0957 -33.5449 49.6094 -31.7383 52.1973 -31.7383 L 55.4688 -31.7383 C 61.1328 -31.7383 64.8926 -28.4668 64.8926 -23.6328 C 64.8926 -18.8965 60.9375 -15.332 55.1758 -15.332 C 50.3418 -15.332 46.7773 -17.8223 45.166 -22.0215 C 44.3359 -23.9746 43.1152 -24.9512 41.1133 -24.9512 C 38.9648 -24.9512 37.1094 -23.3398 37.1094 -20.752 C 37.1094 -19.8242 37.207 -19.043 37.5 -18.1641 C 39.2578 -12.1094 46.3379 -6.93359 55.0781 -6.93359 Z M 97.5098 -34.4727 C 91.6992 -34.4727 87.6953 -38.8672 87.6953 -45.0684 C 87.6953 -51.416 91.748 -55.7129 97.5586 -55.7129 C 103.223 -55.7129 107.422 -51.2207 107.422 -44.9707 C 107.422 -38.916 103.32 -34.4727 97.5098 -34.4727 Z"/>
  </g>
  <g id="Bold-L" transform="matrix(1 0 0 1 2262.9 1556)">
   <path d="M 77.0996 30.6152 C 113.184 30.6152 142.92 0.878906 142.92 -35.2051 C 142.92 -71.3379 113.135 -101.025 77.0508 -101.025 C 40.918 -101.025 11.2793 -71.3379 11.2793 -35.2051 C 11.2793 0.878906 40.9668 30.6152 77.0996 30.6152 Z M 77.0996 15.8691 C 48.7793 15.8691 26.0742 -6.93359 26.0742 -35.2051 C 26.0742 -63.4766 48.7793 -86.2793 77.0508 -86.2793 C 105.322 -86.2793 128.125 -63.4766 128.125 -35.2051 C 128.174 -6.93359 105.371 15.8691 77.0996 15.8691 Z M 96.7285 -7.17773 C 109.814 -7.17773 116.992 -17.7246 116.992 -37.207 C 116.992 -53.8086 110.254 -63.3789 97.5586 -63.3789 C 86.5723 -63.3789 79.1504 -56.0547 79.1504 -44.3848 C 79.1504 -33.6914 86.0352 -27.0996 94.5312 -27.0996 C 100.977 -27.0996 105.371 -30.5176 107.178 -35.0586 L 107.568 -35.0586 C 107.617 -24.1211 103.76 -16.2598 96.582 -16.2598 C 93.1641 -16.2598 90.6738 -17.9688 89.1602 -20.4102 C 88.1836 -21.9238 86.7676 -22.6562 84.8145 -22.6562 C 82.6172 -22.6562 80.7617 -20.9961 80.7617 -18.3594 C 80.7617 -17.334 80.957 -16.4551 81.3477 -15.4785 C 82.5195 -11.8652 87.9395 -7.17773 96.7285 -7.17773 Z M 56.0547 -7.17773 C 67.4316 -7.17773 75.0977 -13.7207 75.0977 -23.3398 C 75.0977 -30.2246 70.5078 -35.791 64.1602 -36.377 L 64.1602 -36.9141 C 69.5312 -37.793 73.5352 -43.1152 73.5352 -48.9258 C 73.5352 -57.5684 66.5527 -63.3789 56.2988 -63.3789 C 47.5098 -63.3789 41.1621 -58.2031 39.5996 -52.7344 C 39.209 -51.6113 39.1113 -50.7812 39.1113 -49.7559 C 39.1113 -46.9238 40.8691 -45.1172 43.4082 -45.1172 C 45.6055 -45.1172 46.9238 -46.2402 47.8027 -48.1934 C 49.1699 -52.0996 51.9531 -54.1992 56.1035 -54.1992 C 60.4004 -54.1992 63.4277 -51.4648 63.4277 -47.5586 C 63.4277 -43.7012 60.498 -40.625 56.1523 -40.625 L 53.6621 -40.625 C 50.8789 -40.625 49.0723 -38.7207 49.0723 -35.8887 C 49.0723 -33.1543 50.6836 -31.1523 53.6621 -31.1523 L 56.3477 -31.1523 C 61.377 -31.1523 64.6973 -28.2227 64.6973 -23.9258 C 64.6973 -19.7754 61.2305 -16.6016 56.2012 -16.6016 C 51.9043 -16.6016 48.6816 -18.7988 47.0703 -22.6074 C 46.0938 -24.5605 44.7266 -25.6348 42.5781 -25.6348 C 40.332 -25.6348 38.1836 -23.877 38.1836 -20.9961 C 38.1836 -20.0195 38.3301 -19.1406 38.623 -18.2129 C 40.3809 -12.3535 47.4609 -7.17773 56.0547 -7.17773 Z M 97.8516 -35.3516 C 92.6758 -35.3516 89.1113 -39.3555 89.1113 -44.9707 C 89.1113 -50.7324 92.6758 -54.6387 97.9004 -54.6387 C 102.93 -54.6387 106.689 -50.5859 106.689 -44.873 C 106.689 -39.3555 103.027 -35.3516 97.8516 -35.3516 Z"/>
  </g>
  <g id="Heavy-L" transform="matrix(1 0 0 1 2558.42 1556)">
   <path d="M 78.2715 31.7871 C 115.039 31.7871 145.264 1.61133 145.264 -35.2051 C 145.264 -72.0215 115.039 -102.197 78.2227 -102.197 C 41.4551 -102.197 11.2793 -72.0215 11.2793 -35.2051 C 11.2793 1.61133 41.4551 31.7871 78.2715 31.7871 Z M 78.2715 14.0137 C 50.9766 14.0137 29.0527 -7.95898 29.0527 -35.2051 C 29.0527 -62.5 50.9766 -84.4727 78.2227 -84.4727 C 105.518 -84.4727 127.49 -62.5 127.49 -35.2051 C 127.539 -7.95898 105.518 14.0137 78.2715 14.0137 Z M 97.2168 -7.51953 C 110.254 -7.51953 117.334 -18.1152 117.334 -37.0605 C 117.334 -53.2715 110.938 -63.0859 97.998 -63.0859 C 87.1094 -63.0859 79.7363 -55.8594 79.7363 -44.1406 C 79.7363 -33.7402 86.1816 -27.1484 94.3848 -27.1484 C 100.244 -27.1484 104.443 -30.3223 106.152 -34.6191 L 106.543 -34.6191 C 106.543 -25.4883 103.564 -17.8711 97.0703 -17.8711 C 93.9941 -17.8711 92.0898 -19.3359 90.6738 -21.2891 C 89.6484 -22.7539 88.0859 -23.5352 85.9375 -23.5352 C 83.4961 -23.5352 81.3477 -21.6797 81.3477 -18.75 C 81.3477 -17.4316 81.5918 -16.4551 82.0801 -15.332 C 83.4473 -11.6699 88.623 -7.51953 97.2168 -7.51953 Z M 57.4707 -7.4707 C 68.8965 -7.4707 76.416 -13.916 76.416 -23.6328 C 76.416 -30.3711 72.168 -35.9375 66.1133 -36.4258 L 66.1133 -37.0117 C 71.2402 -37.8418 75.0977 -42.9688 75.0977 -48.584 C 75.0977 -57.3242 68.1152 -63.0859 57.666 -63.0859 C 48.9258 -63.0859 42.8223 -57.8613 41.1621 -52.8809 C 40.6738 -51.6113 40.5273 -50.6836 40.5273 -49.5605 C 40.5273 -46.2402 42.5293 -44.2871 45.4102 -44.2871 C 47.8027 -44.2871 49.3164 -45.5078 50.3906 -47.4609 C 51.8066 -50.7812 54.0527 -52.5391 57.4707 -52.5391 C 60.8887 -52.5391 63.3301 -50.2441 63.3301 -46.9238 C 63.3301 -43.8477 61.1328 -41.2109 57.4707 -41.2109 L 55.8105 -41.2109 C 52.5391 -41.2109 50.4395 -39.0137 50.4395 -35.7422 C 50.4395 -32.5684 52.2461 -30.2734 55.8105 -30.2734 L 57.6172 -30.2734 C 61.7188 -30.2734 64.3555 -27.9297 64.3555 -24.3164 C 64.3555 -21.0449 61.6211 -18.4082 57.6172 -18.4082 C 54.1992 -18.4082 51.416 -20.2148 49.8047 -23.4375 C 48.6816 -25.4395 47.1191 -26.6113 44.7266 -26.6113 C 42.2363 -26.6113 39.7461 -24.6582 39.7461 -21.3379 C 39.7461 -20.2637 39.8926 -19.2871 40.2344 -18.3105 C 42.041 -12.6465 49.0723 -7.4707 57.4707 -7.4707 Z M 98.3398 -36.5723 C 94.0918 -36.5723 91.1133 -39.9902 91.1133 -44.8242 C 91.1133 -49.7559 94.043 -53.0762 98.3398 -53.0762 C 102.539 -53.0762 105.615 -49.6582 105.615 -44.7754 C 105.615 -39.9902 102.588 -36.5723 98.3398 -36.5723 Z"/>
  </g>
  <g id="Black-L" transform="matrix(1 0 0 1 2854.08 1556)">
   <path d="M 79.2969 32.8613 C 116.748 32.8613 147.363 2.19727 147.363 -35.2051 C 147.363 -72.6074 116.699 -103.271 79.2969 -103.271 C 41.8945 -103.271 11.2793 -72.6074 11.2793 -35.2051 C 11.2793 2.19727 41.8945 32.8613 79.2969 32.8613 Z M 79.2969 12.4023 C 52.9297 12.4023 31.7383 -8.83789 31.7383 -35.2051 C 31.7383 -61.5723 52.9297 -82.8125 79.2969 -82.8125 C 105.664 -82.8125 126.904 -61.5723 126.953 -35.2051 C 126.953 -8.83789 105.664 12.4023 79.2969 12.4023 Z M 97.6074 -7.76367 C 110.645 -7.76367 117.627 -18.457 117.627 -36.9141 C 117.627 -52.7832 111.572 -62.8418 98.3887 -62.8418 C 87.5977 -62.8418 80.2734 -55.7129 80.2734 -43.9453 C 80.2734 -33.7402 86.3281 -27.2461 94.2383 -27.2461 C 99.6094 -27.2461 103.662 -30.1758 105.273 -34.1797 L 105.615 -34.1797 C 105.615 -26.6602 103.369 -19.2871 97.4609 -19.2871 C 94.7754 -19.2871 93.3594 -20.5566 92.041 -22.1191 C 90.9668 -23.4375 89.2578 -24.3164 86.9141 -24.3164 C 84.2773 -24.3164 81.8359 -22.3145 81.8359 -19.0918 C 81.8359 -17.5781 82.1289 -16.4551 82.7637 -15.1367 C 84.2773 -11.5723 89.2578 -7.76367 97.6074 -7.76367 Z M 58.7402 -7.76367 C 70.2148 -7.76367 77.6367 -14.1113 77.6367 -23.877 C 77.6367 -30.5664 73.6816 -35.9863 67.8223 -36.4746 L 67.8223 -37.0605 C 72.7539 -37.8906 76.4648 -42.9199 76.4648 -48.291 C 76.4648 -57.0801 69.5312 -62.8418 58.8867 -62.8418 C 50.1953 -62.8418 44.3359 -57.5684 42.5781 -53.0273 C 41.9922 -51.6113 41.8457 -50.5371 41.8457 -49.3652 C 41.8457 -45.7031 43.9941 -43.5547 47.168 -43.5547 C 49.7559 -43.5547 51.4648 -44.8242 52.6367 -46.875 C 54.1992 -49.6582 55.957 -51.0254 58.6426 -51.0254 C 61.3281 -51.0254 63.2812 -49.1699 63.2812 -46.3867 C 63.2812 -43.9453 61.6699 -41.748 58.6426 -41.748 L 57.7637 -41.748 C 54.0039 -41.748 51.6602 -39.3066 51.6602 -35.6445 C 51.6602 -32.0312 53.6621 -29.4922 57.7637 -29.4922 L 58.7402 -29.4922 C 62.0117 -29.4922 64.0625 -27.6367 64.0625 -24.707 C 64.0625 -22.2168 62.0117 -20.0684 58.9355 -20.0684 C 56.25 -20.0684 53.8574 -21.4355 52.1973 -24.2188 C 50.9766 -26.2207 49.2188 -27.4902 46.6309 -27.4902 C 43.9941 -27.4902 41.1621 -25.3906 41.1621 -21.6797 C 41.1621 -20.5078 41.3574 -19.4336 41.6992 -18.3594 C 43.5059 -12.9395 50.4883 -7.76367 58.7402 -7.76367 Z M 98.7305 -37.7441 C 95.3613 -37.7441 92.9199 -40.5762 92.9199 -44.6777 C 92.9199 -48.877 95.3125 -51.709 98.7305 -51.709 C 102.197 -51.709 104.639 -48.8281 104.639 -44.6289 C 104.639 -40.5762 102.197 -37.7441 98.7305 -37.7441 Z"/>
  </g>
 </g>
</svg>
