<?xml version="1.0" encoding="UTF-8"?>
<!--Generator: Apple Native CoreSVG 123-->
<!DOCTYPE svg
PUBLIC "-//W3C//DTD SVG 1.1//EN"
       "http://www.w3.org/Graphics/SVG/1.1/DTD/svg11.dtd">
<svg version="1.1" xmlns="http://www.w3.org/2000/svg" xmlns:xlink="http://www.w3.org/1999/xlink" width="3300" height="2200">
 <!--glyph: "uni1006A8.medium", point size: 100.000000, font version: "Version 15.0d4e20", template writer version: "2"-->
 <g id="Notes">
  <rect height="2200" id="artboard" style="fill:white;opacity:1" width="3300" x="0" y="0"/>
  <line id="" style="fill:none;stroke:black;opacity:1;stroke-width:0.5;" x1="263" x2="3036" y1="292" y2="292"/>
  <text style="stroke:none;fill:black;font-family:-apple-system,&quot;SF Pro Display&quot;,&quot;SF Pro Text&quot;,Helvetica,sans-serif;font-weight:bold;" transform="matrix(1 0 0 1 263 322)">Weight/Scale Variations</text>
  <text style="stroke:none;fill:black;font-family:-apple-system,&quot;SF Pro Display&quot;,&quot;SF Pro Text&quot;,Helvetica,sans-serif;text-anchor:middle;" transform="matrix(1 0 0 1 559.711 322)">Ultralight</text>
  <text style="stroke:none;fill:black;font-family:-apple-system,&quot;SF Pro Display&quot;,&quot;SF Pro Text&quot;,Helvetica,sans-serif;text-anchor:middle;" transform="matrix(1 0 0 1 856.422 322)">Thin</text>
  <text style="stroke:none;fill:black;font-family:-apple-system,&quot;SF Pro Display&quot;,&quot;SF Pro Text&quot;,Helvetica,sans-serif;text-anchor:middle;" transform="matrix(1 0 0 1 1153.13 322)">Light</text>
  <text style="stroke:none;fill:black;font-family:-apple-system,&quot;SF Pro Display&quot;,&quot;SF Pro Text&quot;,Helvetica,sans-serif;text-anchor:middle;" transform="matrix(1 0 0 1 1449.84 322)">Regular</text>
  <text style="stroke:none;fill:black;font-family:-apple-system,&quot;SF Pro Display&quot;,&quot;SF Pro Text&quot;,Helvetica,sans-serif;text-anchor:middle;" transform="matrix(1 0 0 1 1746.56 322)">Medium</text>
  <text style="stroke:none;fill:black;font-family:-apple-system,&quot;SF Pro Display&quot;,&quot;SF Pro Text&quot;,Helvetica,sans-serif;text-anchor:middle;" transform="matrix(1 0 0 1 2043.27 322)">Semibold</text>
  <text style="stroke:none;fill:black;font-family:-apple-system,&quot;SF Pro Display&quot;,&quot;SF Pro Text&quot;,Helvetica,sans-serif;text-anchor:middle;" transform="matrix(1 0 0 1 2339.98 322)">Bold</text>
  <text style="stroke:none;fill:black;font-family:-apple-system,&quot;SF Pro Display&quot;,&quot;SF Pro Text&quot;,Helvetica,sans-serif;text-anchor:middle;" transform="matrix(1 0 0 1 2636.69 322)">Heavy</text>
  <text style="stroke:none;fill:black;font-family:-apple-system,&quot;SF Pro Display&quot;,&quot;SF Pro Text&quot;,Helvetica,sans-serif;text-anchor:middle;" transform="matrix(1 0 0 1 2933.4 322)">Black</text>
  <line id="" style="fill:none;stroke:black;opacity:1;stroke-width:0.5;" x1="263" x2="3036" y1="1903" y2="1903"/>
  <g id="" transform="matrix(1 0 0 1 263 1933)">
   <path d="M 9.24805 0.830078 C 13.5547 0.830078 17.1387 -2.74414 17.1387 -7.05078 C 17.1387 -11.3574 13.5449 -14.9316 9.23828 -14.9316 C 4.94141 -14.9316 1.36719 -11.3574 1.36719 -7.05078 C 1.36719 -2.74414 4.95117 0.830078 9.24805 0.830078 Z M 9.24805 -0.654297 C 5.70312 -0.654297 2.87109 -3.49609 2.87109 -7.05078 C 2.87109 -10.6055 5.69336 -13.4473 9.23828 -13.4473 C 12.793 -13.4473 15.6348 -10.6055 15.6445 -7.05078 C 15.6543 -3.49609 12.8027 -0.654297 9.24805 -0.654297 Z M 9.22852 -3.42773 C 9.69727 -3.42773 9.9707 -3.74023 9.9707 -4.25781 L 9.9707 -6.31836 L 12.1973 -6.31836 C 12.6953 -6.31836 13.0371 -6.57227 13.0371 -7.04102 C 13.0371 -7.51953 12.7148 -7.7832 12.1973 -7.7832 L 9.9707 -7.7832 L 9.9707 -10.0098 C 9.9707 -10.5273 9.69727 -10.8496 9.22852 -10.8496 C 8.75977 -10.8496 8.50586 -10.5078 8.50586 -10.0098 L 8.50586 -7.7832 L 6.29883 -7.7832 C 5.78125 -7.7832 5.44922 -7.51953 5.44922 -7.04102 C 5.44922 -6.57227 5.80078 -6.31836 6.29883 -6.31836 L 8.50586 -6.31836 L 8.50586 -4.25781 C 8.50586 -3.75977 8.75977 -3.42773 9.22852 -3.42773 Z"/>
  </g>
  <g id="" transform="matrix(1 0 0 1 281.506 1933)">
   <path d="M 11.709 2.91016 C 17.1484 2.91016 21.6699 -1.60156 21.6699 -7.05078 C 21.6699 -12.4902 17.1387 -17.0117 11.6992 -17.0117 C 6.25 -17.0117 1.74805 -12.4902 1.74805 -7.05078 C 1.74805 -1.60156 6.25977 2.91016 11.709 2.91016 Z M 11.709 1.25 C 7.09961 1.25 3.41797 -2.44141 3.41797 -7.05078 C 3.41797 -11.6504 7.08984 -15.3516 11.6992 -15.3516 C 16.2988 -15.3516 20 -11.6504 20.0098 -7.05078 C 20.0195 -2.44141 16.3086 1.25 11.709 1.25 Z M 11.6797 -2.41211 C 12.207 -2.41211 12.5195 -2.77344 12.5195 -3.33984 L 12.5195 -6.23047 L 15.5762 -6.23047 C 16.123 -6.23047 16.5039 -6.51367 16.5039 -7.03125 C 16.5039 -7.55859 16.1426 -7.86133 15.5762 -7.86133 L 12.5195 -7.86133 L 12.5195 -10.9277 C 12.5195 -11.5039 12.207 -11.8555 11.6797 -11.8555 C 11.1621 -11.8555 10.8789 -11.4844 10.8789 -10.9277 L 10.8789 -7.86133 L 7.83203 -7.86133 C 7.25586 -7.86133 6.89453 -7.55859 6.89453 -7.03125 C 6.89453 -6.51367 7.28516 -6.23047 7.83203 -6.23047 L 10.8789 -6.23047 L 10.8789 -3.33984 C 10.8789 -2.79297 11.1621 -2.41211 11.6797 -2.41211 Z"/>
  </g>
  <g id="" transform="matrix(1 0 0 1 304.914 1933)">
   <path d="M 14.9707 5.67383 C 21.9336 5.67383 27.6855 -0.078125 27.6855 -7.04102 C 27.6855 -14.0039 21.9238 -19.7559 14.9609 -19.7559 C 7.99805 -19.7559 2.25586 -14.0039 2.25586 -7.04102 C 2.25586 -0.078125 8.00781 5.67383 14.9707 5.67383 Z M 14.9707 3.85742 C 8.92578 3.85742 4.08203 -1.00586 4.08203 -7.04102 C 4.08203 -13.0762 8.91602 -17.9395 14.9609 -17.9395 C 20.9961 -17.9395 25.8594 -13.0762 25.8691 -7.04102 C 25.8789 -1.00586 21.0059 3.85742 14.9707 3.85742 Z M 14.9414 -1.06445 C 15.5176 -1.06445 15.8594 -1.45508 15.8594 -2.06055 L 15.8594 -6.13281 L 20.0977 -6.13281 C 20.6934 -6.13281 21.1133 -6.46484 21.1133 -7.02148 C 21.1133 -7.59766 20.7227 -7.93945 20.0977 -7.93945 L 15.8594 -7.93945 L 15.8594 -12.1875 C 15.8594 -12.8027 15.5176 -13.1934 14.9414 -13.1934 C 14.3848 -13.1934 14.0625 -12.7832 14.0625 -12.1875 L 14.0625 -7.93945 L 9.82422 -7.93945 C 9.20898 -7.93945 8.80859 -7.59766 8.80859 -7.02148 C 8.80859 -6.46484 9.23828 -6.13281 9.82422 -6.13281 L 14.0625 -6.13281 L 14.0625 -2.06055 C 14.0625 -1.47461 14.3848 -1.06445 14.9414 -1.06445 Z"/>
  </g>
  <text style="stroke:none;fill:black;font-family:-apple-system,&quot;SF Pro Display&quot;,&quot;SF Pro Text&quot;,Helvetica,sans-serif;font-weight:bold;" transform="matrix(1 0 0 1 263 1953)">Design Variations</text>
  <text style="stroke:none;fill:black;font-family:-apple-system,&quot;SF Pro Display&quot;,&quot;SF Pro Text&quot;,Helvetica,sans-serif;" transform="matrix(1 0 0 1 263 1971)">Symbols are supported in up to nine weights and three scales.</text>
  <text style="stroke:none;fill:black;font-family:-apple-system,&quot;SF Pro Display&quot;,&quot;SF Pro Text&quot;,Helvetica,sans-serif;" transform="matrix(1 0 0 1 263 1989)">For optimal layout with text and other symbols, vertically align</text>
  <text style="stroke:none;fill:black;font-family:-apple-system,&quot;SF Pro Display&quot;,&quot;SF Pro Text&quot;,Helvetica,sans-serif;" transform="matrix(1 0 0 1 263 2007)">symbols with the adjacent text.</text>
  <rect height="14" id="" style="fill:#00AEEF;stroke:none;opacity:0.4;" width="3" x="776" y="1919"/>
  <g id="" transform="matrix(1 0 0 1 779 1933)">
   <path d="M 10.5273 0 L 12.373 0 L 7.17773 -14.0918 L 5.43945 -14.0918 L 0.244141 0 L 2.08984 0 L 3.50586 -4.0332 L 9.11133 -4.0332 Z M 6.2793 -11.9531 L 6.33789 -11.9531 L 8.59375 -5.52734 L 4.02344 -5.52734 Z"/>
  </g>
  <rect height="14" id="" style="fill:#00AEEF;stroke:none;opacity:0.4;" width="3" x="791.617" y="1919"/>
  <text style="stroke:none;fill:black;font-family:-apple-system,&quot;SF Pro Display&quot;,&quot;SF Pro Text&quot;,Helvetica,sans-serif;font-weight:bold;" transform="matrix(1 0 0 1 776 1953)">Side Bearings</text>
  <text style="stroke:none;fill:black;font-family:-apple-system,&quot;SF Pro Display&quot;,&quot;SF Pro Text&quot;,Helvetica,sans-serif;" transform="matrix(1 0 0 1 776 1971)">Horizontal padding on the left and right side of each symbol</text>
  <text style="stroke:none;fill:black;font-family:-apple-system,&quot;SF Pro Display&quot;,&quot;SF Pro Text&quot;,Helvetica,sans-serif;" transform="matrix(1 0 0 1 776 1989)">can be adjusted by modifying the width of the blue rectangles.</text>
  <text style="stroke:none;fill:black;font-family:-apple-system,&quot;SF Pro Display&quot;,&quot;SF Pro Text&quot;,Helvetica,sans-serif;" transform="matrix(1 0 0 1 776 2007)">Modifications are automatically applied proportionally to all</text>
  <text style="stroke:none;fill:black;font-family:-apple-system,&quot;SF Pro Display&quot;,&quot;SF Pro Text&quot;,Helvetica,sans-serif;" transform="matrix(1 0 0 1 776 2025)">scales and weights.</text>
  <g id="" transform="matrix(1 0 0 1 1289 1933)">
   <path d="M 2.96875 2.35352 L 3.80859 3.19336 C 4.84375 4.22852 6.12305 4.15039 7.19727 2.97852 L 16.1621 -6.82617 C 16.5527 -6.74805 16.9629 -6.8457 17.4902 -7.02148 C 18.1738 -7.25586 18.2715 -7.25586 18.3887 -7.13867 C 18.5352 -7.01172 18.4863 -6.89453 18.2422 -6.25 C 17.8809 -5.33203 17.8125 -4.79492 18.5547 -4.02344 L 19.4238 -3.13477 C 20.2734 -2.24609 21.3281 -2.26562 22.2168 -3.14453 L 25.0586 -5.97656 C 25.9473 -6.86523 25.957 -7.92969 25.0781 -8.7793 L 24.1797 -9.64844 C 23.4082 -10.4004 22.8711 -10.3516 21.9629 -9.98047 C 21.3184 -9.72656 21.2012 -9.6875 21.0645 -9.81445 C 20.9375 -9.93164 20.9473 -10.0391 21.1816 -10.7129 C 21.5332 -11.6895 21.5723 -12.2852 20.752 -13.0957 L 19.3359 -14.5117 C 15.1953 -18.6133 11.2305 -18.7402 7.65625 -15.4395 C 7.08008 -14.9023 6.99219 -14.1504 7.53906 -13.6133 L 7.79297 -13.3594 C 8.22266 -12.9297 8.86719 -12.8418 9.41406 -13.1152 C 11.0645 -13.9453 12.2559 -14.0234 13.457 -12.9785 L 13.0273 -11.416 C 12.8516 -10.8008 12.793 -10.3418 12.9199 -9.93164 L 3.18359 -1.04492 C 2.02148 0.0292969 1.93359 1.32812 2.96875 2.35352 Z M 8.96484 -14.4922 C 8.89648 -14.5703 8.86719 -14.6582 8.99414 -14.7559 C 11.709 -17.2852 15.0391 -16.8457 18.3496 -13.5254 L 19.6973 -12.168 C 20.0879 -11.7773 20.0977 -11.582 19.8828 -10.8691 C 19.6582 -10.127 19.502 -9.53125 20.1465 -8.88672 C 20.8105 -8.22266 21.2891 -8.41797 22.207 -8.63281 C 22.9004 -8.79883 23.0664 -8.79883 23.4473 -8.41797 L 24.0918 -7.77344 C 24.4043 -7.48047 24.4141 -7.32422 24.0723 -6.97266 L 21.2207 -4.13086 C 20.8887 -3.79883 20.7227 -3.79883 20.4297 -4.10156 L 19.7852 -4.75586 C 19.4141 -5.13672 19.4141 -5.30273 19.5801 -6.01562 C 19.7852 -6.88477 19.9805 -7.38281 19.3262 -8.04688 C 18.6719 -8.7207 18.0762 -8.57422 17.3438 -8.33008 C 16.5625 -8.06641 16.3281 -8.06641 15.8984 -8.49609 L 14.6094 -9.78516 C 14.1699 -10.2246 14.1309 -10.4395 14.2676 -10.9082 L 15.0293 -13.3984 C 13.3887 -15.2832 11.4941 -15.5566 9.20898 -14.4434 C 9.11133 -14.3945 9.04297 -14.4141 8.96484 -14.4922 Z M 3.96484 1.36719 C 3.52539 0.927734 3.54492 0.537109 4.14062 -0.00976562 L 13.7402 -8.81836 L 15 -7.55859 L 6.17188 2.02148 C 5.625 2.60742 5.24414 2.64648 4.79492 2.19727 Z"/>
  </g>
  <text style="stroke:none;fill:black;font-family:-apple-system,&quot;SF Pro Display&quot;,&quot;SF Pro Text&quot;,Helvetica,sans-serif;font-weight:bold;" transform="matrix(1 0 0 1 1289 1953)">Exporting</text>
  <text style="stroke:none;fill:black;font-family:-apple-system,&quot;SF Pro Display&quot;,&quot;SF Pro Text&quot;,Helvetica,sans-serif;" transform="matrix(1 0 0 1 1289 1971)">Symbols should be outlined when exporting to ensure the</text>
  <text style="stroke:none;fill:black;font-family:-apple-system,&quot;SF Pro Display&quot;,&quot;SF Pro Text&quot;,Helvetica,sans-serif;" transform="matrix(1 0 0 1 1289 1989)">design is preserved when submitting to Xcode.</text>
  <text id="template-version" style="stroke:none;fill:black;font-family:-apple-system,&quot;SF Pro Display&quot;,&quot;SF Pro Text&quot;,Helvetica,sans-serif;text-anchor:end;" transform="matrix(1 0 0 1 3036 1933)">Template v.0.1</text>
  <text style="stroke:none;fill:black;font-family:-apple-system,&quot;SF Pro Display&quot;,&quot;SF Pro Text&quot;,Helvetica,sans-serif;text-anchor:end;" transform="matrix(1 0 0 1 3036 1951)">Generated from 40.circle.fill</text>
  <text style="stroke:none;fill:black;font-family:-apple-system,&quot;SF Pro Display&quot;,&quot;SF Pro Text&quot;,Helvetica,sans-serif;text-anchor:end;" transform="matrix(1 0 0 1 3036 1969)">Typeset at 100 points</text>
  <text style="stroke:none;fill:black;font-family:-apple-system,&quot;SF Pro Display&quot;,&quot;SF Pro Text&quot;,Helvetica,sans-serif;" transform="matrix(1 0 0 1 263 726)">Small</text>
  <text style="stroke:none;fill:black;font-family:-apple-system,&quot;SF Pro Display&quot;,&quot;SF Pro Text&quot;,Helvetica,sans-serif;" transform="matrix(1 0 0 1 263 1156)">Medium</text>
  <text style="stroke:none;fill:black;font-family:-apple-system,&quot;SF Pro Display&quot;,&quot;SF Pro Text&quot;,Helvetica,sans-serif;" transform="matrix(1 0 0 1 263 1586)">Large</text>
 </g>
 <g id="Guides">
  <g id="H-reference" style="fill:#27AAE1;stroke:none;" transform="matrix(1 0 0 1 339 696)">
   <path d="M 54.9316 0 L 57.666 0 L 30.5664 -70.459 L 28.0762 -70.459 L 0.976562 0 L 3.66211 0 L 12.9395 -24.4629 L 45.7031 -24.4629 Z M 29.1992 -67.0898 L 29.4434 -67.0898 L 44.8242 -26.709 L 13.8184 -26.709 Z"/>
  </g>
  <line id="Baseline-S" style="fill:none;stroke:#27AAE1;opacity:1;stroke-width:0.577;" x1="263" x2="3036" y1="696" y2="696"/>
  <line id="Capline-S" style="fill:none;stroke:#27AAE1;opacity:1;stroke-width:0.577;" x1="263" x2="3036" y1="625.541" y2="625.541"/>
  <g id="H-reference" style="fill:#27AAE1;stroke:none;" transform="matrix(1 0 0 1 339 1126)">
   <path d="M 54.9316 0 L 57.666 0 L 30.5664 -70.459 L 28.0762 -70.459 L 0.976562 0 L 3.66211 0 L 12.9395 -24.4629 L 45.7031 -24.4629 Z M 29.1992 -67.0898 L 29.4434 -67.0898 L 44.8242 -26.709 L 13.8184 -26.709 Z"/>
  </g>
  <line id="Baseline-M" style="fill:none;stroke:#27AAE1;opacity:1;stroke-width:0.577;" x1="263" x2="3036" y1="1126" y2="1126"/>
  <line id="Capline-M" style="fill:none;stroke:#27AAE1;opacity:1;stroke-width:0.577;" x1="263" x2="3036" y1="1055.54" y2="1055.54"/>
  <g id="H-reference" style="fill:#27AAE1;stroke:none;" transform="matrix(1 0 0 1 339 1556)">
   <path d="M 54.9316 0 L 57.666 0 L 30.5664 -70.459 L 28.0762 -70.459 L 0.976562 0 L 3.66211 0 L 12.9395 -24.4629 L 45.7031 -24.4629 Z M 29.1992 -67.0898 L 29.4434 -67.0898 L 44.8242 -26.709 L 13.8184 -26.709 Z"/>
  </g>
  <line id="Baseline-L" style="fill:none;stroke:#27AAE1;opacity:1;stroke-width:0.577;" x1="263" x2="3036" y1="1556" y2="1556"/>
  <line id="Capline-L" style="fill:none;stroke:#27AAE1;opacity:1;stroke-width:0.577;" x1="263" x2="3036" y1="1485.54" y2="1485.54"/>
  <rect height="119.336" id="left-margin" style="fill:#00AEEF;stroke:none;opacity:0.4;" width="8.74023" x="1391.32" y="1030.79"/>
  <rect height="119.336" id="right-margin" style="fill:#00AEEF;stroke:none;opacity:0.4;" width="8.69141" x="1499.67" y="1030.79"/>
 </g>
 <g id="Symbols">
  <g id="Ultralight-S" transform="matrix(1 0 0 1 515.644 696)">
   <path d="M 44.043 2.05078 C 64.502 2.05078 81.2988 -14.6973 81.2988 -35.1562 C 81.2988 -55.6152 64.502 -72.3633 44.043 -72.3633 C 23.584 -72.3633 6.83594 -55.6152 6.83594 -35.1562 C 6.83594 -14.6973 23.584 2.05078 44.043 2.05078 Z M 58.5449 -16.8945 C 51.123 -16.8945 46.0449 -24.3164 46.0449 -35.2539 C 46.0449 -46.2402 51.123 -53.6621 58.5449 -53.6621 C 65.9668 -53.6621 71.0449 -46.2402 71.0449 -35.2539 C 71.0449 -24.3164 65.9668 -16.8945 58.5449 -16.8945 Z M 36.377 -17.1387 C 35.6934 -17.1387 35.2051 -17.5781 35.2051 -18.3105 L 35.2051 -26.0742 L 19.5312 -26.0742 C 18.2129 -26.0742 17.4805 -26.7578 17.4805 -27.832 C 17.4805 -28.3691 17.6758 -28.8574 17.9199 -29.2969 C 21.1426 -34.5215 29.4434 -46.875 33.0566 -52.1484 C 33.8379 -53.2715 34.5215 -53.6133 35.6445 -53.6133 C 36.8164 -53.6133 37.5488 -52.9297 37.5488 -51.8066 L 37.5488 -28.3203 L 42.4805 -28.3203 C 43.1641 -28.3203 43.5547 -27.7832 43.5547 -27.1973 C 43.5547 -26.5625 43.1641 -26.0742 42.4805 -26.0742 L 37.5488 -26.0742 L 37.5488 -18.3105 C 37.5488 -17.5781 37.1094 -17.1387 36.377 -17.1387 Z M 58.5449 -19.1406 C 64.5508 -19.1406 68.6035 -25.6836 68.6035 -35.2539 C 68.6035 -44.873 64.5508 -51.416 58.5449 -51.416 C 52.4902 -51.416 48.4375 -44.873 48.4375 -35.2539 C 48.4375 -25.6836 52.5391 -19.1406 58.5449 -19.1406 Z M 35.2051 -28.3203 L 35.2051 -50.9277 L 34.9609 -50.9277 C 32.2266 -46.875 22.6562 -32.666 20.166 -28.5156 L 20.166 -28.3203 Z"/>
  </g>
  <g id="Thin-S" transform="matrix(1 0 0 1 811.867 696)">
   <path d="M 44.5801 2.53906 C 65.2832 2.53906 82.2754 -14.4531 82.2754 -35.2051 C 82.2754 -55.9082 65.2344 -72.9004 44.5312 -72.9004 C 23.8281 -72.9004 6.83594 -55.9082 6.83594 -35.2051 C 6.83594 -14.4531 23.877 2.53906 44.5801 2.53906 Z M 58.8379 -16.9434 C 51.3672 -16.9434 46.2891 -24.3652 46.2891 -35.3516 C 46.2891 -46.3867 51.3672 -53.8086 58.8379 -53.8086 C 66.3086 -53.8086 71.3867 -46.3867 71.3867 -35.3516 C 71.3867 -24.3652 66.3086 -16.9434 58.8379 -16.9434 Z M 36.6699 -17.2363 C 35.6934 -17.2363 35.1074 -17.9199 35.1074 -18.9941 L 35.1074 -25.7812 L 20.2637 -25.7812 C 18.7012 -25.7812 17.7734 -26.6602 17.7734 -28.0762 C 17.7734 -28.8086 18.0176 -29.3945 18.3594 -30.0781 C 21.4844 -35.3027 28.7109 -46.3379 32.3242 -51.8066 C 33.252 -53.2227 34.1797 -53.7598 35.6934 -53.7598 C 37.207 -53.7598 38.2324 -52.832 38.2324 -51.3184 L 38.2324 -28.7598 L 42.4316 -28.7598 C 43.3105 -28.7598 43.8965 -28.125 43.8965 -27.2949 C 43.8965 -26.3672 43.3105 -25.7812 42.4316 -25.7812 L 38.2324 -25.7812 L 38.2324 -18.9941 C 38.2324 -17.9199 37.6465 -17.2363 36.6699 -17.2363 Z M 58.8379 -19.9707 C 64.4043 -19.9707 68.0664 -26.123 68.0664 -35.3516 C 68.0664 -44.5801 64.4043 -50.7324 58.8379 -50.7324 C 53.2715 -50.7324 49.5605 -44.5801 49.5605 -35.3516 C 49.5605 -26.123 53.2715 -19.9707 58.8379 -19.9707 Z M 35.1074 -28.7598 L 35.1074 -50.1953 L 34.8633 -50.1953 C 31.8848 -45.7031 23.7793 -33.3008 21.2402 -28.9551 L 21.2402 -28.7598 Z"/>
  </g>
  <g id="Light-S" transform="matrix(1 0 0 1 1107.6 696)">
   <path d="M 45.5078 3.4668 C 66.6992 3.4668 84.2285 -14.0625 84.2285 -35.2051 C 84.2285 -56.3965 66.6504 -73.9258 45.5078 -73.9258 C 24.3164 -73.9258 6.83594 -56.3965 6.83594 -35.2051 C 6.83594 -14.0625 24.3652 3.4668 45.5078 3.4668 Z M 59.375 -17.041 C 51.7578 -17.041 46.7773 -24.4141 46.7773 -35.498 C 46.7773 -46.6797 51.7578 -54.0527 59.375 -54.0527 C 66.9922 -54.0527 72.0215 -46.6797 72.0215 -35.498 C 72.0215 -24.4141 66.9922 -17.041 59.375 -17.041 Z M 37.1582 -17.4805 C 35.6934 -17.4805 34.8633 -18.5547 34.8633 -20.2637 L 34.8633 -25.2441 L 21.7285 -25.2441 C 19.6777 -25.2441 18.3594 -26.4648 18.3594 -28.5645 C 18.3594 -29.5898 18.6035 -30.4199 19.1895 -31.543 C 22.1191 -36.7676 27.2461 -45.2148 30.8594 -51.123 C 32.1289 -53.2227 33.4961 -54.0527 35.6934 -54.0527 C 37.9395 -54.0527 39.502 -52.5879 39.502 -50.4395 L 39.502 -29.541 L 42.334 -29.541 C 43.6523 -29.541 44.4824 -28.7598 44.4824 -27.3926 C 44.4824 -26.0254 43.6523 -25.2441 42.334 -25.2441 L 39.502 -25.2441 L 39.502 -20.2637 C 39.502 -18.5059 38.6719 -17.4805 37.1582 -17.4805 Z M 59.375 -21.6309 C 64.0625 -21.6309 67.041 -27.002 67.041 -35.498 C 67.041 -44.0918 64.1113 -49.4629 59.375 -49.4629 C 54.6875 -49.4629 51.709 -44.0918 51.709 -35.498 C 51.709 -27.002 54.7363 -21.6309 59.375 -21.6309 Z M 34.8633 -29.541 L 34.8633 -48.877 L 34.6191 -48.877 C 31.3477 -43.4082 25.8789 -34.4727 23.3887 -29.7363 L 23.3887 -29.541 Z"/>
  </g>
  <g id="Regular-S" transform="matrix(1 0 0 1 1403.58 696)">
   <path d="M 46.2402 4.15039 C 67.7734 4.15039 85.6934 -13.7207 85.6934 -35.2539 C 85.6934 -56.7871 67.7246 -74.6582 46.1914 -74.6582 C 24.707 -74.6582 6.83594 -56.7871 6.83594 -35.2539 C 6.83594 -13.7207 24.7559 4.15039 46.2402 4.15039 Z M 59.8145 -17.1387 C 52.0996 -17.1387 47.1191 -24.4629 47.1191 -35.6445 C 47.1191 -46.9238 52.0996 -54.248 59.8145 -54.248 C 67.4805 -54.248 72.5098 -46.9238 72.5098 -35.6445 C 72.5098 -24.4629 67.4805 -17.1387 59.8145 -17.1387 Z M 37.5488 -17.627 C 35.6934 -17.627 34.668 -18.9941 34.668 -21.2402 L 34.668 -24.8047 L 22.8027 -24.8047 C 20.3613 -24.8047 18.75 -26.3184 18.75 -28.9062 C 18.75 -30.2246 19.043 -31.2012 19.8242 -32.7148 C 22.6074 -37.9395 26.1719 -44.3848 29.7363 -50.5859 C 31.25 -53.1738 32.959 -54.248 35.7422 -54.248 C 38.5254 -54.248 40.4785 -52.4414 40.4785 -49.707 L 40.4785 -30.1758 L 42.2852 -30.1758 C 43.8965 -30.1758 44.9219 -29.1992 44.9219 -27.4902 C 44.9219 -25.7812 43.8965 -24.8047 42.2852 -24.8047 L 40.4785 -24.8047 L 40.4785 -21.2402 C 40.4785 -18.9453 39.4043 -17.627 37.5488 -17.627 Z M 59.8145 -22.9004 C 63.8184 -22.9004 66.2598 -27.6855 66.2598 -35.6445 C 66.2598 -43.7012 63.8672 -48.4863 59.8145 -48.4863 C 55.7617 -48.4863 53.3691 -43.7012 53.3691 -35.6445 C 53.3691 -27.6855 55.8105 -22.9004 59.8145 -22.9004 Z M 34.668 -30.1758 L 34.668 -47.8516 L 34.4238 -47.8516 C 30.9082 -41.6504 27.4902 -35.4004 24.9512 -30.3711 L 24.9512 -30.1758 Z"/>
  </g>
  <g id="Medium-S" transform="matrix(1 0 0 1 1699.7 696)">
   <path d="M 46.8262 4.78516 C 68.75 4.78516 86.8652 -13.3301 86.8652 -35.2539 C 86.8652 -57.1289 68.7012 -75.2441 46.8262 -75.2441 C 24.9023 -75.2441 6.83594 -57.1289 6.83594 -35.2539 C 6.83594 -13.3301 24.9512 4.78516 46.8262 4.78516 Z M 60.5469 -17.2852 C 53.0762 -17.2852 48.1445 -24.0723 48.1445 -35.5469 C 48.1445 -47.1191 53.0762 -53.9062 60.5469 -53.9062 C 68.0664 -53.9062 73.0469 -47.1191 73.0469 -35.5469 C 73.0469 -24.0723 68.0664 -17.2852 60.5469 -17.2852 Z M 37.9395 -17.6758 C 35.8887 -17.6758 34.668 -19.1406 34.668 -21.6797 L 34.668 -24.6582 L 24.0234 -24.6582 C 21.3379 -24.6582 19.6289 -26.3184 19.6289 -29.0527 C 19.6289 -30.6152 19.9707 -31.8359 20.7031 -33.3984 C 23.0957 -38.0859 26.2695 -44.2383 29.4434 -49.8535 C 31.0059 -52.6855 32.9102 -53.8086 36.0352 -53.8086 C 39.2578 -53.8086 41.2109 -51.8555 41.2109 -48.7305 L 41.2109 -30.6152 L 42.7246 -30.6152 C 44.4336 -30.6152 45.5078 -29.4922 45.5078 -27.6367 C 45.5078 -25.7324 44.4336 -24.6582 42.7246 -24.6582 L 41.3086 -24.6582 L 41.3086 -21.6797 C 41.3086 -19.0918 40.0391 -17.6758 37.9395 -17.6758 Z M 60.5957 -23.8281 C 64.0137 -23.8281 66.0645 -27.8809 66.0645 -35.5469 C 66.0645 -43.3105 64.0137 -47.3633 60.5957 -47.3633 C 57.1777 -47.3633 55.127 -43.3105 55.127 -35.5469 C 55.127 -27.8809 57.2266 -23.8281 60.5957 -23.8281 Z M 34.8633 -30.5664 L 34.8633 -47.2168 L 34.6191 -47.2168 C 31.6406 -41.6992 28.5645 -35.2539 26.416 -30.7617 L 26.416 -30.5664 Z"/>
  </g>
  <g id="Semibold-S" transform="matrix(1 0 0 1 1995.98 696)">
   <path d="M 47.3145 5.22461 C 69.4824 5.22461 87.7441 -13.0371 87.7441 -35.2539 C 87.7441 -57.4219 69.4336 -75.6836 47.2656 -75.6836 C 25.0977 -75.6836 6.83594 -57.4219 6.83594 -35.2539 C 6.83594 -13.0371 25.0977 5.22461 47.3145 5.22461 Z M 61.1328 -17.4316 C 53.8086 -17.4316 48.9746 -23.7793 48.9746 -35.4492 C 48.9746 -47.2656 53.8086 -53.6133 61.1328 -53.6133 C 68.457 -53.6133 73.4863 -47.2656 73.4863 -35.4492 C 73.4863 -23.7793 68.457 -17.4316 61.1328 -17.4316 Z M 38.2812 -17.6758 C 36.0352 -17.6758 34.668 -19.2383 34.668 -22.0215 L 34.668 -24.5117 L 25 -24.5117 C 22.0215 -24.5117 20.3125 -26.2695 20.3125 -29.1992 C 20.3125 -30.8594 20.6543 -32.3242 21.3867 -33.9355 C 23.4375 -38.1836 26.3672 -44.1406 29.1992 -49.2676 C 30.8105 -52.2949 32.8613 -53.4668 36.2793 -53.4668 C 39.7949 -53.4668 41.7969 -51.4648 41.7969 -47.998 L 41.7969 -30.957 L 43.0664 -30.957 C 44.8242 -30.957 45.9961 -29.7363 45.9961 -27.7344 C 45.9961 -25.7324 44.8242 -24.5605 43.0664 -24.5605 L 41.9434 -24.5605 L 41.9434 -22.0215 C 41.9434 -19.1895 40.5273 -17.6758 38.2812 -17.6758 Z M 35.0098 -30.9082 L 35.0098 -46.7285 L 34.8145 -46.7285 C 32.2266 -41.748 29.3457 -35.1562 27.4902 -31.1035 L 27.4902 -30.9082 Z M 61.2305 -24.5605 C 64.1602 -24.5605 65.9668 -28.0762 65.9668 -35.4492 C 65.9668 -42.9688 64.1602 -46.4844 61.2305 -46.4844 C 58.3008 -46.4844 56.4941 -42.9688 56.4941 -35.4492 C 56.4941 -28.0762 58.3008 -24.5605 61.2305 -24.5605 Z"/>
  </g>
  <g id="Bold-S" transform="matrix(1 0 0 1 2292.1 696)">
   <path d="M 47.9004 5.81055 C 70.4102 5.81055 88.916 -12.6465 88.916 -35.2051 C 88.916 -57.7637 70.4102 -76.2695 47.8516 -76.2695 C 25.293 -76.2695 6.83594 -57.7637 6.83594 -35.2051 C 6.83594 -12.6465 25.3418 5.81055 47.9004 5.81055 Z M 61.9141 -17.5781 C 54.7852 -17.5781 50.0488 -23.3887 50.0488 -35.4004 C 50.0488 -47.4609 54.7852 -53.2227 61.9141 -53.2227 C 69.043 -53.2227 74.0234 -47.4609 74.0234 -35.4004 C 74.0234 -23.3887 69.043 -17.5781 61.9141 -17.5781 Z M 38.6719 -17.7246 C 36.2305 -17.7246 34.668 -19.3359 34.668 -22.4609 L 34.668 -24.3164 L 26.2207 -24.3164 C 22.9492 -24.3164 21.1914 -26.2207 21.1914 -29.3945 C 21.1914 -31.25 21.582 -32.959 22.3145 -34.668 C 23.9258 -38.3301 26.5137 -44.043 28.9062 -48.4863 C 30.5664 -51.7578 32.8613 -52.9785 36.5723 -52.9785 C 40.5273 -52.9785 42.5293 -50.8789 42.5293 -46.9727 L 42.5293 -31.3965 L 43.457 -31.3965 C 45.3613 -31.3965 46.582 -30.0293 46.582 -27.8809 C 46.582 -25.6836 45.3613 -24.4141 43.5059 -24.4141 L 42.7734 -24.4141 L 42.7734 -22.4609 C 42.7734 -19.3359 41.2109 -17.7246 38.6719 -17.7246 Z M 35.2051 -31.3477 L 35.2051 -46.0938 L 35.0586 -46.0938 C 32.959 -41.7969 30.4199 -35.0586 28.9551 -31.543 L 28.9551 -31.3477 Z M 62.0605 -25.5371 C 64.3066 -25.5371 65.7715 -28.2715 65.7715 -35.4004 C 65.7715 -42.5293 64.3555 -45.3125 62.0605 -45.3125 C 59.7168 -45.3125 58.3008 -42.5293 58.3008 -35.4004 C 58.3008 -28.2715 59.7656 -25.5371 62.0605 -25.5371 Z"/>
  </g>
  <g id="Heavy-S" transform="matrix(1 0 0 1 2587.96 696)">
   <path d="M 48.7305 6.68945 C 71.8262 6.68945 90.625 -12.1094 90.625 -35.2051 C 90.625 -58.3008 71.8262 -77.0996 48.7305 -77.0996 C 25.6348 -77.0996 6.83594 -58.3008 6.83594 -35.2051 C 6.83594 -12.1094 25.6348 6.68945 48.7305 6.68945 Z M 63.0371 -17.8711 C 56.2012 -17.8711 51.5625 -22.8027 51.5625 -35.2539 C 51.5625 -47.7539 56.2012 -52.6855 63.0371 -52.6855 C 69.8242 -52.6855 74.8047 -47.7539 74.8047 -35.2539 C 74.8047 -22.8027 69.8242 -17.8711 63.0371 -17.8711 Z M 39.3066 -17.7734 C 36.5234 -17.7734 34.668 -19.4824 34.668 -23.0469 L 34.668 -24.0723 L 28.0762 -24.0723 C 24.3164 -24.0723 22.4609 -26.1719 22.4609 -29.6387 C 22.4609 -31.8359 22.9492 -33.8867 23.6328 -35.6934 C 24.6094 -38.5742 26.709 -43.8477 28.4668 -47.4121 C 30.2246 -51.0254 32.7637 -52.3438 37.0117 -52.3438 C 41.6016 -52.3438 43.6523 -50.0488 43.6523 -45.5566 L 43.6523 -32.0801 L 44.0918 -32.0801 C 46.1426 -32.0801 47.4121 -30.4688 47.4121 -28.0762 C 47.4121 -25.6348 46.1426 -24.2188 44.1406 -24.2188 L 43.9941 -24.2188 L 43.9941 -23.0469 C 43.9941 -19.4824 42.1387 -17.7734 39.3066 -17.7734 Z M 35.498 -31.9824 L 35.498 -45.166 L 35.4004 -45.166 C 34.082 -41.8457 31.9824 -34.9121 31.0547 -32.1777 L 31.0547 -31.9824 Z M 63.2324 -26.9531 C 64.5996 -26.9531 65.5273 -28.6133 65.5273 -35.2539 C 65.5273 -41.8945 64.5996 -43.6035 63.2324 -43.6035 C 61.8164 -43.6035 60.8887 -41.8945 60.8887 -35.2539 C 60.8887 -28.6133 61.8164 -26.9531 63.2324 -26.9531 Z"/>
  </g>
  <g id="Black-S" transform="matrix(1 0 0 1 2883.89 696)">
   <path d="M 49.5117 7.4707 C 73.0957 7.4707 92.1875 -11.6211 92.1875 -35.2051 C 92.1875 -58.7891 73.0957 -77.8809 49.5117 -77.8809 C 25.9277 -77.8809 6.83594 -58.7891 6.83594 -35.2051 C 6.83594 -11.6211 25.9277 7.4707 49.5117 7.4707 Z M 64.0625 -18.0664 C 57.4707 -18.0664 52.9785 -22.2656 52.9785 -35.1562 C 52.9785 -48.0469 57.4707 -52.1973 64.0625 -52.1973 C 70.5566 -52.1973 75.5371 -48.0469 75.5371 -35.1562 C 75.5371 -22.2656 70.5566 -18.0664 64.0625 -18.0664 Z M 39.8438 -17.8223 C 36.7676 -17.8223 34.668 -19.6777 34.668 -23.6328 L 34.668 -23.8281 L 29.6875 -23.8281 C 25.5859 -23.8281 23.584 -26.123 23.584 -29.8828 C 23.584 -32.3242 24.1211 -34.7168 24.8047 -36.5723 C 25.1953 -38.7695 26.8555 -43.7012 28.0273 -46.4355 C 29.9316 -50.3906 32.7148 -51.7578 37.4512 -51.7578 C 42.5781 -51.7578 44.6289 -49.3164 44.6289 -44.2383 L 44.6289 -32.666 L 44.6777 -32.666 C 46.8262 -32.666 48.1934 -30.8594 48.1934 -28.2227 C 48.1934 -25.5859 46.8262 -24.0234 44.7266 -24.0234 L 45.1172 -24.0234 L 45.1172 -23.6328 C 45.1172 -19.6777 42.9688 -17.8223 39.8438 -17.8223 Z M 35.7422 -32.5195 L 35.7422 -44.3359 L 35.6934 -44.3359 C 35.0586 -41.9434 33.3496 -34.7168 32.9102 -32.7148 L 32.9102 -32.5195 Z M 64.3066 -28.2227 C 64.8438 -28.2227 65.2832 -28.9062 65.2832 -35.1562 C 65.2832 -41.3574 64.7949 -42.0898 64.3066 -42.0898 C 63.6719 -42.0898 63.2324 -41.3574 63.2324 -35.1562 C 63.2324 -28.9062 63.6719 -28.2227 64.3066 -28.2227 Z"/>
  </g>
  <g id="Ultralight-M" transform="matrix(1 0 0 1 503.656 1126)">
   <path d="M 56.0547 12.207 C 82.0801 12.207 103.369 -9.08203 103.369 -35.1562 C 103.369 -61.1816 82.0801 -82.4707 56.0547 -82.4707 C 30.0293 -82.4707 8.74023 -61.1816 8.74023 -35.1562 C 8.74023 -9.08203 30.0293 12.207 56.0547 12.207 Z M 74.6582 -11.8164 C 65.1855 -11.8164 58.6914 -21.2891 58.6914 -35.2539 C 58.6914 -49.2188 65.1855 -58.6914 74.6582 -58.6914 C 84.0332 -58.6914 90.5273 -49.2188 90.5273 -35.2539 C 90.5273 -21.2891 84.0332 -11.8164 74.6582 -11.8164 Z M 46.3379 -12.0605 C 45.5566 -12.0605 45.0195 -12.5977 45.0195 -13.3789 L 45.0195 -23.6328 L 24.6094 -23.6328 C 23.0957 -23.6328 22.2168 -24.4141 22.2168 -25.6836 C 22.2168 -26.3184 22.4609 -26.8555 22.7051 -27.3438 C 26.8066 -33.9844 37.8906 -50.3418 42.5293 -56.9824 C 43.4082 -58.252 44.2383 -58.6426 45.5078 -58.6426 C 46.8262 -58.6426 47.6562 -57.9102 47.6562 -56.543 L 47.6562 -26.2695 L 54.248 -26.2695 C 55.0293 -26.2695 55.5176 -25.6348 55.5176 -24.9512 C 55.5176 -24.2676 55.0293 -23.6328 54.248 -23.6328 L 47.6562 -23.6328 L 47.6562 -13.3789 C 47.6562 -12.5977 47.2168 -12.0605 46.3379 -12.0605 Z M 74.6582 -14.3555 C 82.4707 -14.3555 87.793 -22.9004 87.793 -35.2539 C 87.793 -47.6074 82.4707 -56.1523 74.6582 -56.1523 C 66.748 -56.1523 61.4258 -47.6074 61.4258 -35.2539 C 61.4258 -22.9004 66.748 -14.3555 74.6582 -14.3555 Z M 45.0195 -26.2695 L 45.0195 -55.5176 L 44.6777 -55.5176 C 41.2109 -50.5859 28.5156 -31.7383 25.3418 -26.5137 L 25.3418 -26.2695 Z"/>
  </g>
  <g id="Thin-M" transform="matrix(1 0 0 1 799.806 1126)">
   <path d="M 56.5918 12.7441 C 82.9102 12.7441 104.492 -8.83789 104.492 -35.1562 C 104.492 -61.4746 82.9102 -83.0566 56.5918 -83.0566 C 30.3223 -83.0566 8.74023 -61.4746 8.74023 -35.1562 C 8.74023 -8.83789 30.3223 12.7441 56.5918 12.7441 Z M 74.9512 -11.8652 C 65.4297 -11.8652 58.9355 -21.3379 58.9355 -35.3516 C 58.9355 -49.3652 65.4297 -58.8379 74.9512 -58.8379 C 84.4238 -58.8379 90.918 -49.3652 90.918 -35.3516 C 90.918 -21.3379 84.4238 -11.8652 74.9512 -11.8652 Z M 46.6309 -12.207 C 45.5566 -12.207 44.873 -12.9883 44.873 -14.1602 L 44.873 -23.3398 L 25.4395 -23.3398 C 23.6328 -23.3398 22.5586 -24.3164 22.5586 -25.9766 C 22.5586 -26.7578 22.8027 -27.4902 23.1934 -28.2227 C 27.1973 -34.8633 37.0605 -49.707 41.6504 -56.5918 C 42.7734 -58.252 43.7988 -58.7891 45.5078 -58.7891 C 47.2656 -58.7891 48.4375 -57.7637 48.4375 -56.0059 L 48.4375 -26.709 L 54.1992 -26.709 C 55.2246 -26.709 55.8594 -25.9766 55.8594 -25.0488 C 55.8594 -24.0234 55.2246 -23.3398 54.1992 -23.3398 L 48.4375 -23.3398 L 48.4375 -14.1602 C 48.4375 -12.9395 47.7539 -12.207 46.6309 -12.207 Z M 74.9512 -15.332 C 82.2754 -15.332 87.207 -23.3887 87.207 -35.3516 C 87.207 -47.3145 82.2754 -55.4199 74.9512 -55.4199 C 67.5781 -55.4199 62.6465 -47.3145 62.6465 -35.3516 C 62.6465 -23.3887 67.5781 -15.332 74.9512 -15.332 Z M 44.873 -26.709 L 44.873 -54.7363 L 44.5312 -54.7363 C 40.8691 -49.2188 29.7363 -32.4219 26.5625 -26.9531 L 26.5625 -26.709 Z"/>
  </g>
  <g id="Light-M" transform="matrix(1 0 0 1 1095.42 1126)">
   <path d="M 57.7148 13.7695 C 84.5215 13.7695 106.689 -8.39844 106.689 -35.2051 C 106.689 -62.0117 84.4727 -84.1797 57.666 -84.1797 C 30.8594 -84.1797 8.74023 -62.0117 8.74023 -35.2051 C 8.74023 -8.39844 30.8594 13.7695 57.7148 13.7695 Z M 75.5859 -12.0117 C 65.918 -12.0117 59.4727 -21.3867 59.4727 -35.498 C 59.4727 -49.7559 65.918 -59.1309 75.5859 -59.1309 C 85.2051 -59.1309 91.6504 -49.7559 91.6504 -35.498 C 91.6504 -21.3867 85.2051 -12.0117 75.5859 -12.0117 Z M 47.2168 -12.4512 C 45.5566 -12.4512 44.5801 -13.6719 44.5801 -15.625 L 44.5801 -22.7051 L 27.0996 -22.7051 C 24.707 -22.7051 23.1934 -24.1211 23.1934 -26.5137 C 23.1934 -27.6855 23.4863 -28.6621 24.1211 -29.9316 C 27.9785 -36.5723 35.4004 -48.4375 39.9902 -55.8105 C 41.4551 -58.2031 43.0176 -59.1309 45.5566 -59.1309 C 48.1445 -59.1309 49.8535 -57.5195 49.8535 -54.9805 L 49.8535 -27.6367 L 54.1016 -27.6367 C 55.5664 -27.6367 56.543 -26.709 56.543 -25.1465 C 56.543 -23.6328 55.5664 -22.7051 54.1016 -22.7051 L 49.8535 -22.7051 L 49.8535 -15.625 C 49.8535 -13.623 48.9258 -12.4512 47.2168 -12.4512 Z M 75.5859 -17.1875 C 81.8848 -17.1875 86.0352 -24.3652 86.0352 -35.498 C 86.0352 -46.7773 81.9336 -53.9551 75.5859 -53.9551 C 69.1895 -53.9551 65.1367 -46.7773 65.1367 -35.498 C 65.1367 -24.3652 69.2383 -17.1875 75.5859 -17.1875 Z M 44.5801 -27.6367 L 44.5801 -53.1738 L 44.2871 -53.1738 C 40.2344 -46.6309 32.1289 -33.7891 28.9551 -27.8809 L 28.9551 -27.6367 Z"/>
  </g>
  <g id="Regular-M" transform="matrix(1 0 0 1 1391.32 1126)">
   <path d="M 58.5449 14.5508 C 85.7422 14.5508 108.35 -8.00781 108.35 -35.2539 C 108.35 -62.4512 85.6934 -85.0586 58.4961 -85.0586 C 31.25 -85.0586 8.74023 -62.4512 8.74023 -35.2539 C 8.74023 -8.00781 31.2988 14.5508 58.5449 14.5508 Z M 76.0254 -12.0605 C 66.2598 -12.0605 59.8633 -21.4355 59.8633 -35.6445 C 59.8633 -50 66.2598 -59.375 76.0254 -59.375 C 85.791 -59.375 92.2363 -50 92.2363 -35.6445 C 92.2363 -21.4355 85.791 -12.0605 76.0254 -12.0605 Z M 47.6562 -12.6465 C 45.5566 -12.6465 44.3848 -14.209 44.3848 -16.6992 L 44.3848 -22.2168 L 28.3203 -22.2168 C 25.5371 -22.2168 23.6816 -23.9746 23.6816 -26.9043 C 23.6816 -28.418 24.0234 -29.541 24.8535 -31.2012 C 28.5156 -37.8906 34.1797 -47.5098 38.7207 -55.1758 C 40.4785 -58.1543 42.4316 -59.375 45.6055 -59.375 C 48.7793 -59.375 50.9766 -57.2754 50.9766 -54.1992 L 50.9766 -28.3203 L 54.0039 -28.3203 C 55.8594 -28.3203 57.0312 -27.2461 57.0312 -25.293 C 57.0312 -23.3398 55.8594 -22.2168 54.0039 -22.2168 L 50.9766 -22.2168 L 50.9766 -16.6992 C 50.9766 -14.1602 49.7559 -12.6465 47.6562 -12.6465 Z M 76.0254 -18.6035 C 81.6406 -18.6035 85.1074 -25.0977 85.1074 -35.6445 C 85.1074 -46.3379 81.6895 -52.832 76.0254 -52.832 C 70.4102 -52.832 66.9922 -46.3379 66.9922 -35.6445 C 66.9922 -25.0977 70.459 -18.6035 76.0254 -18.6035 Z M 44.3848 -28.3203 L 44.3848 -52.0508 L 44.043 -52.0508 C 39.7461 -44.6777 33.9844 -34.8145 30.7617 -28.5645 L 30.7617 -28.3203 Z"/>
  </g>
  <g id="Medium-M" transform="matrix(1 0 0 1 1687.33 1126)">
   <path d="M 59.2285 15.2832 C 86.8652 15.2832 109.717 -7.56836 109.717 -35.2051 C 109.717 -62.8906 86.8164 -85.7422 59.1797 -85.7422 C 31.543 -85.7422 8.74023 -62.8906 8.74023 -35.2051 C 8.74023 -7.56836 31.5918 15.2832 59.2285 15.2832 Z M 76.8555 -12.2559 C 67.2852 -12.2559 60.9863 -21.0449 60.9863 -35.5957 C 60.9863 -50.2441 67.2852 -59.0332 76.8555 -59.0332 C 86.4258 -59.0332 92.8223 -50.2441 92.8223 -35.5957 C 92.8223 -21.0449 86.4258 -12.2559 76.8555 -12.2559 Z M 48.0957 -12.6953 C 45.752 -12.6953 44.3359 -14.3555 44.3359 -17.2852 L 44.3359 -22.0215 L 29.7363 -22.0215 C 26.5625 -22.0215 24.6094 -23.9258 24.6094 -27.1484 C 24.6094 -28.8574 25 -30.2734 25.8301 -32.0801 C 29.0527 -38.1836 34.1309 -47.2656 38.2812 -54.3457 C 40.1367 -57.6172 42.334 -58.9355 45.8984 -58.9355 C 49.6094 -58.9355 51.8555 -56.6895 51.8555 -53.125 L 51.8555 -28.8574 L 54.4434 -28.8574 C 56.4453 -28.8574 57.7148 -27.5879 57.7148 -25.4395 C 57.7148 -23.291 56.4453 -22.0215 54.4434 -22.0215 L 51.9531 -22.0215 L 51.9531 -17.2852 C 51.9531 -14.3555 50.5371 -12.6953 48.0957 -12.6953 Z M 76.9043 -19.7266 C 81.7871 -19.7266 84.8145 -25.4395 84.8145 -35.5957 C 84.8145 -45.8496 81.8359 -51.5625 76.9043 -51.5625 C 72.0215 -51.5625 68.9941 -45.8496 68.9941 -35.5957 C 68.9941 -25.4395 72.0703 -19.7266 76.9043 -19.7266 Z M 44.5312 -28.8574 L 44.5312 -51.2695 L 44.2383 -51.2695 C 40.4297 -44.4824 35.2539 -34.8145 32.4219 -29.1016 L 32.4219 -28.8574 Z"/>
  </g>
  <g id="Semibold-M" transform="matrix(1 0 0 1 1983.5 1126)">
   <path d="M 59.7656 15.8203 C 87.7441 15.8203 110.791 -7.22656 110.791 -35.2051 C 110.791 -63.1836 87.6953 -86.2793 59.7168 -86.2793 C 31.7383 -86.2793 8.74023 -63.1836 8.74023 -35.2051 C 8.74023 -7.22656 31.7871 15.8203 59.7656 15.8203 Z M 77.4902 -12.4023 C 68.0664 -12.4023 61.8652 -20.752 61.8652 -35.5469 C 61.8652 -50.4395 68.0664 -58.7402 77.4902 -58.7402 C 86.9141 -58.7402 93.3105 -50.4395 93.3105 -35.5469 C 93.3105 -20.752 86.9141 -12.4023 77.4902 -12.4023 Z M 48.4863 -12.7441 C 45.8984 -12.7441 44.3359 -14.502 44.3359 -17.7246 L 44.3359 -21.8262 L 30.8594 -21.8262 C 27.3926 -21.8262 25.3418 -23.877 25.3418 -27.2949 C 25.3418 -29.248 25.7812 -30.8594 26.6113 -32.7637 C 29.4922 -38.4277 34.1309 -47.0703 37.9395 -53.7109 C 39.8438 -57.2266 42.2363 -58.5938 46.1426 -58.5938 C 50.1953 -58.5938 52.5391 -56.25 52.5391 -52.2949 L 52.5391 -29.2969 L 54.7852 -29.2969 C 56.8848 -29.2969 58.2031 -27.8809 58.2031 -25.5371 C 58.2031 -23.2422 56.8848 -21.875 54.7852 -21.875 L 52.6855 -21.875 L 52.6855 -17.7246 C 52.6855 -14.502 51.123 -12.7441 48.4863 -12.7441 Z M 44.6777 -29.248 L 44.6777 -50.6836 L 44.4336 -50.6836 C 40.9668 -44.3359 36.2793 -34.8145 33.6914 -29.4922 L 33.6914 -29.248 Z M 77.5879 -20.6055 C 81.8848 -20.6055 84.6191 -25.6836 84.6191 -35.5469 C 84.6191 -45.459 81.9336 -50.5371 77.5879 -50.5371 C 73.2422 -50.5371 70.5566 -45.459 70.5566 -35.5469 C 70.5566 -25.6836 73.291 -20.6055 77.5879 -20.6055 Z"/>
  </g>
  <g id="Bold-M" transform="matrix(1 0 0 1 2279.5 1126)">
   <path d="M 60.4492 16.5039 C 88.8672 16.5039 112.207 -6.78711 112.207 -35.2051 C 112.207 -63.623 88.8672 -86.9629 60.4492 -86.9629 C 32.0312 -86.9629 8.74023 -63.623 8.74023 -35.2051 C 8.74023 -6.78711 32.0801 16.5039 60.4492 16.5039 Z M 78.3691 -12.5977 C 69.1406 -12.5977 62.9883 -20.3613 62.9883 -35.4492 C 62.9883 -50.6348 69.1406 -58.3984 78.3691 -58.3984 C 87.5488 -58.3984 93.9453 -50.6348 93.9453 -35.4492 C 93.9453 -20.3613 87.5488 -12.5977 78.3691 -12.5977 Z M 48.9746 -12.793 C 46.0938 -12.793 44.2871 -14.6973 44.2871 -18.3105 L 44.2871 -21.582 L 32.2754 -21.582 C 28.418 -21.582 26.2695 -23.8281 26.2695 -27.5391 C 26.2695 -29.6875 26.7578 -31.6406 27.6367 -33.6426 C 30.0293 -38.7207 34.1309 -46.8262 37.4512 -52.8809 C 39.502 -56.6895 42.1387 -58.1543 46.4844 -58.1543 C 51.0254 -58.1543 53.4668 -55.6641 53.4668 -51.1719 L 53.4668 -29.834 L 55.2246 -29.834 C 57.4219 -29.834 58.8867 -28.2227 58.8867 -25.6836 C 58.8867 -23.1445 57.4219 -21.6797 55.2246 -21.6797 L 53.7109 -21.6797 L 53.7109 -18.3105 C 53.7109 -14.6973 51.9043 -12.793 48.9746 -12.793 Z M 44.873 -29.7852 L 44.873 -49.8535 L 44.6289 -49.8535 C 41.6992 -44.1406 37.5488 -34.8145 35.4004 -30.0293 L 35.4004 -29.7852 Z M 78.4668 -21.7773 C 82.0312 -21.7773 84.3262 -25.9766 84.3262 -35.4492 C 84.3262 -44.9707 82.0801 -49.2188 78.4668 -49.2188 C 74.9023 -49.2188 72.6074 -44.9707 72.6074 -35.4492 C 72.6074 -25.9766 74.9023 -21.7773 78.4668 -21.7773 Z"/>
  </g>
  <g id="Heavy-M" transform="matrix(1 0 0 1 2575.19 1126)">
   <path d="M 61.4746 17.5781 C 90.5273 17.5781 114.258 -6.15234 114.258 -35.2051 C 114.258 -64.2578 90.5273 -87.9883 61.4746 -87.9883 C 32.4219 -87.9883 8.74023 -64.2578 8.74023 -35.2051 C 8.74023 -6.15234 32.4707 17.5781 61.4746 17.5781 Z M 79.5898 -12.8418 C 70.6543 -12.8418 64.6484 -19.7754 64.6484 -35.3516 C 64.6484 -50.9766 70.6543 -57.8613 79.5898 -57.8613 C 88.4766 -57.8613 94.873 -50.9766 94.873 -35.3516 C 94.873 -19.7754 88.4766 -12.8418 79.5898 -12.8418 Z M 49.6582 -12.8906 C 46.3867 -12.8906 44.2871 -14.9902 44.2871 -19.1406 L 44.2871 -21.2402 L 34.3262 -21.2402 C 29.9805 -21.2402 27.6855 -23.7305 27.6855 -27.8809 C 27.6855 -30.3711 28.2227 -32.7148 29.1016 -34.9121 C 30.8105 -39.1602 34.082 -46.4844 36.7676 -51.6602 C 38.9648 -55.957 41.9434 -57.5195 46.9238 -57.5195 C 52.2461 -57.5195 54.7852 -54.7852 54.7852 -49.5605 L 54.7852 -30.6152 L 55.8594 -30.6152 C 58.3008 -30.6152 59.8633 -28.7598 59.8633 -25.9277 C 59.8633 -23.0469 58.3008 -21.3867 55.9082 -21.3867 L 55.1758 -21.3867 L 55.1758 -19.1406 C 55.1758 -14.9414 52.9785 -12.8906 49.6582 -12.8906 Z M 45.1172 -30.5176 L 45.1172 -48.7305 L 44.9219 -48.7305 C 42.7246 -43.8477 39.4531 -34.8145 37.8906 -30.7617 L 37.8906 -30.5176 Z M 79.7852 -23.4863 C 82.2754 -23.4863 83.9355 -26.4648 83.9355 -35.3516 C 83.9355 -44.2383 82.2754 -47.3145 79.7852 -47.3145 C 77.2461 -47.3145 75.5859 -44.2383 75.5859 -35.3516 C 75.5859 -26.4648 77.2461 -23.4863 79.7852 -23.4863 Z"/>
  </g>
  <g id="Black-M" transform="matrix(1 0 0 1 2871 1126)">
   <path d="M 62.4023 18.457 C 91.9922 18.457 116.064 -5.61523 116.064 -35.2051 C 116.064 -64.7949 91.9922 -88.8672 62.4023 -88.8672 C 32.8125 -88.8672 8.74023 -64.7949 8.74023 -35.2051 C 8.74023 -5.61523 32.8125 18.457 62.4023 18.457 Z M 80.6641 -13.0859 C 71.9727 -13.0859 66.1621 -19.2383 66.1621 -35.2539 C 66.1621 -51.3184 71.9727 -57.373 80.6641 -57.373 C 89.3066 -57.373 95.6543 -51.3184 95.6543 -35.2539 C 95.6543 -19.2383 89.3066 -13.0859 80.6641 -13.0859 Z M 50.293 -12.9395 C 46.6309 -12.9395 44.2383 -15.1855 44.2383 -19.873 L 44.2383 -20.8984 L 36.1816 -20.8984 C 31.3477 -20.8984 28.9062 -23.6816 28.9062 -28.1738 C 28.9062 -31.0059 29.541 -33.7402 30.4199 -36.0352 C 31.543 -39.5996 34.0332 -46.1426 36.1816 -50.5371 C 38.4766 -55.2734 41.7969 -56.9336 47.3633 -56.9336 C 53.3203 -56.9336 55.957 -54.0039 55.957 -48.0957 L 55.957 -31.3477 L 56.3965 -31.3477 C 59.0332 -31.3477 60.7422 -29.248 60.7422 -26.123 C 60.7422 -22.998 59.0332 -21.0938 56.4453 -21.0938 L 56.4453 -19.873 C 56.4453 -15.1855 54.0039 -12.9395 50.293 -12.9395 Z M 45.3613 -31.2012 L 45.3613 -47.7051 L 45.2148 -47.7051 C 43.6523 -43.6035 41.1621 -34.8145 40.0879 -31.4453 L 40.0879 -31.2012 Z M 80.957 -25 C 82.4707 -25 83.5449 -26.8555 83.5449 -35.2539 C 83.5449 -43.6035 82.4707 -45.5566 80.957 -45.5566 C 79.3457 -45.5566 78.2715 -43.6035 78.2715 -35.2539 C 78.2715 -26.8555 79.3457 -25 80.957 -25 Z"/>
  </g>
  <g id="Ultralight-L" transform="matrix(1 0 0 1 487.641 1556)">
   <path d="M 72.0703 25.7324 C 105.566 25.7324 132.91 -1.61133 132.91 -35.1074 C 132.91 -68.5547 105.566 -95.8984 72.0703 -95.8984 C 38.623 -95.8984 11.2793 -68.5547 11.2793 -35.1074 C 11.2793 -1.61133 38.623 25.7324 72.0703 25.7324 Z M 96.1914 -4.98047 C 83.9844 -4.98047 75.6348 -17.2363 75.6348 -35.2051 C 75.6348 -53.1738 83.9844 -65.4297 96.1914 -65.4297 C 108.252 -65.4297 116.65 -53.1738 116.65 -35.2051 C 116.65 -17.2363 108.252 -4.98047 96.1914 -4.98047 Z M 59.668 -5.27344 C 58.7891 -5.27344 58.1543 -5.9082 58.1543 -6.73828 L 58.1543 -20.4102 L 31.3965 -20.4102 C 29.541 -20.4102 28.5156 -21.3379 28.5156 -22.8027 C 28.5156 -23.5352 28.8574 -24.1699 29.1016 -24.6582 C 34.4727 -33.252 49.2676 -54.9805 55.2246 -63.4766 C 56.3477 -64.9414 57.2266 -65.332 58.6914 -65.332 C 60.2539 -65.332 61.1816 -64.5508 61.1816 -62.9883 L 61.1816 -23.4375 L 69.9707 -23.4375 C 70.8984 -23.4375 71.4844 -22.7051 71.4844 -21.9727 C 71.4844 -21.1426 70.8984 -20.4102 69.9707 -20.4102 L 61.1816 -20.4102 L 61.1816 -6.73828 C 61.1816 -5.9082 60.6445 -5.27344 59.668 -5.27344 Z M 96.1914 -7.91016 C 106.494 -7.91016 113.574 -19.0918 113.574 -35.2051 C 113.574 -51.3672 106.494 -62.5488 96.1914 -62.5488 C 85.7422 -62.5488 78.7109 -51.3672 78.7109 -35.2051 C 78.7109 -19.0918 85.7422 -7.91016 96.1914 -7.91016 Z M 58.1543 -23.4375 L 58.1543 -61.7676 L 57.7637 -61.7676 C 53.3203 -55.6152 36.2305 -30.3711 32.1289 -23.7793 L 32.1289 -23.4375 Z"/>
  </g>
  <g id="Thin-L" transform="matrix(1 0 0 1 783.717 1556)">
   <path d="M 72.7051 26.3184 C 106.494 26.3184 134.131 -1.36719 134.131 -35.1074 C 134.131 -68.8965 106.445 -96.582 72.7051 -96.582 C 38.916 -96.582 11.2793 -68.8965 11.2793 -35.1074 C 11.2793 -1.36719 38.916 26.3184 72.7051 26.3184 Z M 96.5332 -5.07812 C 84.2773 -5.07812 75.9277 -17.2852 75.9277 -35.3027 C 75.9277 -53.3691 84.2773 -65.5762 96.5332 -65.5762 C 108.691 -65.5762 117.09 -53.3691 117.09 -35.3027 C 117.09 -17.2852 108.691 -5.07812 96.5332 -5.07812 Z M 60.0098 -5.41992 C 58.7891 -5.41992 57.959 -6.29883 57.959 -7.56836 L 57.959 -20.0684 L 32.3242 -20.0684 C 30.1758 -20.0684 28.9062 -21.2402 28.9062 -23.1445 C 28.9062 -24.0234 29.248 -24.8535 29.6387 -25.6348 C 34.8633 -34.2285 48.3398 -54.2969 54.2969 -63.0371 C 55.5664 -64.9414 56.7871 -65.5273 58.7402 -65.5273 C 60.7422 -65.5273 62.0117 -64.4043 62.0117 -62.4023 L 62.0117 -23.9746 L 69.9219 -23.9746 C 71.1426 -23.9746 71.875 -23.0957 71.875 -22.0215 C 71.875 -20.8984 71.1426 -20.0684 69.9219 -20.0684 L 62.0117 -20.0684 L 62.0117 -7.56836 C 62.0117 -6.29883 61.2793 -5.41992 60.0098 -5.41992 Z M 96.5332 -8.93555 C 106.299 -8.93555 112.891 -19.6289 112.891 -35.3027 C 112.891 -51.0254 106.299 -61.7188 96.5332 -61.7188 C 86.6699 -61.7188 80.0781 -51.0254 80.0781 -35.3027 C 80.0781 -19.6289 86.7188 -8.93555 96.5332 -8.93555 Z M 57.959 -23.9746 L 57.959 -60.8887 L 57.5684 -60.8887 C 52.9785 -54.1016 37.6465 -31.1523 33.4961 -24.2676 L 33.4961 -23.9746 Z"/>
  </g>
  <g id="Light-L" transform="matrix(1 0 0 1 1079.21 1556)">
   <path d="M 73.9258 27.4902 C 108.301 27.4902 136.572 -0.830078 136.572 -35.1562 C 136.572 -69.5312 108.252 -97.8516 73.877 -97.8516 C 39.5508 -97.8516 11.2793 -69.5312 11.2793 -35.1562 C 11.2793 -0.830078 39.5508 27.4902 73.9258 27.4902 Z M 97.2168 -5.17578 C 84.8145 -5.17578 76.5137 -17.334 76.5137 -35.498 C 76.5137 -53.7598 84.8145 -65.918 97.2168 -65.918 C 109.57 -65.918 117.92 -53.7598 117.92 -35.498 C 117.92 -17.334 109.57 -5.17578 97.2168 -5.17578 Z M 60.6445 -5.71289 C 58.7891 -5.71289 57.666 -7.08008 57.666 -9.17969 L 57.666 -19.3848 L 34.1797 -19.3848 C 31.3477 -19.3848 29.5898 -20.9961 29.5898 -23.7305 C 29.5898 -25.0488 29.9805 -26.1719 30.6641 -27.5391 C 35.6934 -36.1328 46.4844 -52.8809 52.3926 -62.1582 C 54.1504 -64.8926 55.9082 -65.8691 58.7891 -65.8691 C 61.6699 -65.8691 63.623 -64.1113 63.623 -61.2305 L 63.623 -25 L 69.8242 -25 C 71.5332 -25 72.6074 -23.877 72.6074 -22.168 C 72.6074 -20.459 71.5332 -19.3848 69.8242 -19.3848 L 63.623 -19.3848 L 63.623 -9.17969 C 63.623 -7.03125 62.5488 -5.71289 60.6445 -5.71289 Z M 97.2168 -11.0352 C 105.859 -11.0352 111.572 -20.752 111.572 -35.498 C 111.572 -50.3906 105.908 -60.1074 97.2168 -60.1074 C 88.4766 -60.1074 82.8613 -50.3906 82.8613 -35.498 C 82.8613 -20.752 88.5254 -11.0352 97.2168 -11.0352 Z M 57.666 -25 L 57.666 -59.1797 L 57.2754 -59.1797 C 52.2461 -51.2207 40.332 -32.666 36.1816 -25.293 L 36.1816 -25 Z"/>
  </g>
  <g id="Regular-L" transform="matrix(1 0 0 1 1374.99 1556)">
   <path d="M 74.8535 28.3691 C 109.668 28.3691 138.428 -0.390625 138.428 -35.2051 C 138.428 -70.0195 109.619 -98.7793 74.8047 -98.7793 C 39.9902 -98.7793 11.2793 -70.0195 11.2793 -35.2051 C 11.2793 -0.390625 40.0391 28.3691 74.8535 28.3691 Z M 97.7051 -5.27344 C 85.2051 -5.27344 76.9531 -17.3828 76.9531 -35.6445 C 76.9531 -54.0527 85.2051 -66.2109 97.7051 -66.2109 C 110.205 -66.2109 118.506 -54.0527 118.506 -35.6445 C 118.506 -17.3828 110.205 -5.27344 97.7051 -5.27344 Z M 61.1328 -5.95703 C 58.7891 -5.95703 57.4219 -7.66602 57.4219 -10.4492 L 57.4219 -18.8477 L 35.5469 -18.8477 C 32.2754 -18.8477 30.127 -20.8496 30.127 -24.1699 C 30.127 -25.8301 30.5664 -27.1484 31.4941 -29.0039 C 36.3281 -37.5977 45.1172 -51.8555 51.0254 -61.4746 C 53.0762 -64.8438 55.2246 -66.1621 58.7891 -66.1621 C 62.4023 -66.1621 64.8438 -63.8672 64.8438 -60.3516 L 64.8438 -25.7812 L 69.7754 -25.7812 C 71.875 -25.7812 73.1934 -24.4629 73.1934 -22.3145 C 73.1934 -20.166 71.875 -18.8477 69.7754 -18.8477 L 64.8438 -18.8477 L 64.8438 -10.4492 C 64.8438 -7.61719 63.5254 -5.95703 61.1328 -5.95703 Z M 97.7051 -12.5977 C 105.566 -12.5977 110.547 -21.582 110.547 -35.6445 C 110.547 -49.9023 105.615 -58.8867 97.7051 -58.8867 C 89.8438 -58.8867 84.9121 -49.9023 84.9121 -35.6445 C 84.9121 -21.582 89.8926 -12.5977 97.7051 -12.5977 Z M 57.4219 -25.7812 L 57.4219 -57.8613 L 57.0312 -57.8613 C 51.6602 -49.0234 42.334 -33.8379 38.1836 -26.0742 L 38.1836 -25.7812 Z"/>
  </g>
  <g id="Medium-L" transform="matrix(1 0 0 1 1670.9 1556)">
   <path d="M 75.6348 29.1992 C 110.938 29.1992 140.039 0.0488281 140.039 -35.2051 C 140.039 -70.459 110.889 -99.6094 75.5859 -99.6094 C 40.332 -99.6094 11.2793 -70.459 11.2793 -35.2051 C 11.2793 0.0488281 40.3809 29.1992 75.6348 29.1992 Z M 98.584 -5.46875 C 86.2305 -5.46875 78.0762 -17.041 78.0762 -35.6445 C 78.0762 -54.3457 86.2305 -65.918 98.584 -65.918 C 110.938 -65.918 119.189 -54.3457 119.189 -35.6445 C 119.189 -17.041 110.938 -5.46875 98.584 -5.46875 Z M 61.6211 -6.05469 C 58.9844 -6.05469 57.373 -7.91016 57.373 -11.1816 L 57.373 -18.5547 L 37.1094 -18.5547 C 33.3984 -18.5547 31.1035 -20.752 31.1035 -24.4629 C 31.1035 -26.416 31.5918 -28.0273 32.5195 -30.0293 C 36.9629 -38.1348 44.8242 -51.416 50.3418 -60.5957 C 52.5391 -64.3555 55.0293 -65.8203 59.082 -65.8203 C 63.2812 -65.8203 65.918 -63.2812 65.918 -59.2285 L 65.918 -26.416 L 70.166 -26.416 C 72.4121 -26.416 73.877 -24.9023 73.877 -22.4609 C 73.877 -20.0195 72.4121 -18.5547 70.166 -18.5547 L 65.9668 -18.5547 L 65.9668 -11.1816 C 65.9668 -7.91016 64.4043 -6.05469 61.6211 -6.05469 Z M 98.6328 -13.9648 C 105.615 -13.9648 110.107 -22.0215 110.107 -35.6445 C 110.107 -49.3652 105.664 -57.4707 98.6328 -57.4707 C 91.6016 -57.4707 87.1582 -49.3652 87.1582 -35.6445 C 87.1582 -22.0215 91.6504 -13.9648 98.6328 -13.9648 Z M 57.5195 -26.3672 L 57.5195 -56.9336 L 57.1777 -56.9336 C 52.2461 -48.4375 43.8965 -34.0332 40.0879 -26.709 L 40.0879 -26.3672 Z"/>
  </g>
  <g id="Semibold-L" transform="matrix(1 0 0 1 1967 1556)">
   <path d="M 76.2695 29.7852 C 111.914 29.7852 141.26 0.439453 141.26 -35.2051 C 141.26 -70.8496 111.865 -100.244 76.2207 -100.244 C 40.5762 -100.244 11.2793 -70.8496 11.2793 -35.2051 C 11.2793 0.439453 40.625 29.7852 76.2695 29.7852 Z M 99.2676 -5.61523 C 87.0117 -5.61523 78.9062 -16.7969 78.9062 -35.5957 C 78.9062 -54.541 87.0117 -65.7227 99.2676 -65.7227 C 111.475 -65.7227 119.727 -54.541 119.727 -35.5957 C 119.727 -16.7969 111.475 -5.61523 99.2676 -5.61523 Z M 62.0605 -6.10352 C 59.082 -6.10352 57.3242 -8.1543 57.3242 -11.7676 L 57.3242 -18.3105 L 38.2812 -18.3105 C 34.2285 -18.3105 31.8359 -20.7031 31.8359 -24.6582 C 31.8359 -26.8555 32.373 -28.7109 33.3496 -30.8594 C 37.4023 -38.5742 44.6289 -51.123 49.8047 -59.9121 C 52.0996 -64.0137 54.834 -65.5762 59.3262 -65.5762 C 63.9648 -65.5762 66.6992 -62.8418 66.6992 -58.3008 L 66.6992 -26.9043 L 70.4102 -26.9043 C 72.8516 -26.9043 74.4629 -25.2441 74.4629 -22.5586 C 74.4629 -19.9219 72.8516 -18.3594 70.459 -18.3594 L 66.8457 -18.3594 L 66.8457 -11.7676 C 66.8457 -8.10547 65.0391 -6.10352 62.0605 -6.10352 Z M 99.3164 -14.9902 C 105.713 -14.9902 109.766 -22.3633 109.766 -35.5957 C 109.766 -48.9746 105.762 -56.3477 99.3164 -56.3477 C 92.9199 -56.3477 88.8672 -48.9746 88.8672 -35.5957 C 88.8672 -22.3633 92.9199 -14.9902 99.3164 -14.9902 Z M 57.6172 -26.8555 L 57.6172 -56.2012 L 57.2754 -56.2012 C 52.6367 -47.998 45.0684 -34.1797 41.5527 -27.1484 L 41.5527 -26.8555 Z"/>
  </g>
  <g id="Bold-L" transform="matrix(1 0 0 1 2262.9 1556)">
   <path d="M 77.0996 30.6152 C 113.184 30.6152 142.92 0.878906 142.92 -35.2051 C 142.92 -71.3379 113.135 -101.025 77.0508 -101.025 C 40.918 -101.025 11.2793 -71.3379 11.2793 -35.2051 C 11.2793 0.878906 40.9668 30.6152 77.0996 30.6152 Z M 100.098 -5.81055 C 88.0371 -5.81055 80.0293 -16.4062 80.0293 -35.5469 C 80.0293 -54.834 88.0371 -65.4297 100.098 -65.4297 C 112.158 -65.4297 120.41 -54.834 120.41 -35.5469 C 120.41 -16.4062 112.158 -5.81055 100.098 -5.81055 Z M 62.5488 -6.20117 C 59.2773 -6.20117 57.2266 -8.39844 57.2266 -12.5 L 57.2266 -17.9688 L 39.8438 -17.9688 C 35.4004 -17.9688 32.8125 -20.6055 32.8125 -24.9512 C 32.8125 -27.4414 33.3984 -29.5898 34.4238 -31.9336 C 38.0371 -39.1113 44.3359 -50.6836 49.1211 -59.0332 C 51.6113 -63.4766 54.6387 -65.1855 59.6191 -65.1855 C 64.8438 -65.1855 67.7734 -62.2559 67.7734 -57.1289 L 67.7734 -27.5391 L 70.8008 -27.5391 C 73.4375 -27.5391 75.1465 -25.6836 75.1465 -22.7539 C 75.1465 -19.8242 73.4375 -18.0664 70.8496 -18.0664 L 67.9688 -18.0664 L 67.9688 -12.5 C 67.9688 -8.39844 65.918 -6.20117 62.5488 -6.20117 Z M 57.7637 -27.4902 L 57.7637 -55.2246 L 57.4219 -55.2246 C 53.1738 -47.4121 46.6309 -34.4238 43.457 -27.7832 L 43.457 -27.4902 Z M 100.244 -16.3086 C 105.811 -16.3086 109.326 -22.8027 109.326 -35.5469 C 109.326 -48.4375 105.811 -54.9316 100.244 -54.9316 C 94.6289 -54.9316 91.1133 -48.4375 91.1133 -35.5469 C 91.1133 -22.8027 94.6777 -16.3086 100.244 -16.3086 Z"/>
  </g>
  <g id="Heavy-L" transform="matrix(1 0 0 1 2558.42 1556)">
   <path d="M 78.2715 31.7871 C 115.039 31.7871 145.264 1.61133 145.264 -35.2051 C 145.264 -72.0215 115.039 -102.197 78.2227 -102.197 C 41.4551 -102.197 11.2793 -72.0215 11.2793 -35.2051 C 11.2793 1.61133 41.4551 31.7871 78.2715 31.7871 Z M 101.367 -6.05469 C 89.502 -6.05469 81.6406 -15.918 81.6406 -35.498 C 81.6406 -55.2246 89.502 -64.9902 101.367 -64.9902 C 113.184 -64.9902 121.436 -55.2246 121.436 -35.498 C 121.436 -15.918 113.184 -6.05469 101.367 -6.05469 Z M 63.3301 -6.29883 C 59.5215 -6.29883 57.1777 -8.83789 57.1777 -13.5742 L 57.1777 -17.5293 L 42.0898 -17.5293 C 37.0117 -17.5293 34.2285 -20.5078 34.2285 -25.3906 C 34.2285 -28.2715 34.8633 -30.8594 35.9863 -33.4473 C 38.916 -39.8926 43.9453 -50.0977 48.1445 -57.7148 C 50.8301 -62.793 54.2969 -64.6973 60.0586 -64.6973 C 66.1621 -64.6973 69.2871 -61.377 69.2871 -55.4199 L 69.2871 -28.4668 L 71.3867 -28.4668 C 74.3164 -28.4668 76.1719 -26.3184 76.1719 -22.998 C 76.1719 -19.6289 74.3164 -17.627 71.4355 -17.627 L 69.6289 -17.627 L 69.6289 -13.5742 C 69.6289 -8.78906 67.2363 -6.29883 63.3301 -6.29883 Z M 57.9102 -28.3691 L 57.9102 -53.8574 L 57.666 -53.8574 C 54.0039 -46.582 48.9258 -34.7168 46.2891 -28.7109 L 46.2891 -28.3691 Z M 101.562 -18.2617 C 105.908 -18.2617 108.691 -23.4375 108.691 -35.498 C 108.691 -47.6562 105.957 -52.832 101.562 -52.832 C 97.168 -52.832 94.3848 -47.6562 94.3848 -35.498 C 94.3848 -23.4375 97.168 -18.2617 101.562 -18.2617 Z"/>
  </g>
  <g id="Black-L" transform="matrix(1 0 0 1 2854.08 1556)">
   <path d="M 79.2969 32.8613 C 116.748 32.8613 147.363 2.19727 147.363 -35.2051 C 147.363 -72.6074 116.699 -103.271 79.2969 -103.271 C 41.8945 -103.271 11.2793 -72.6074 11.2793 -35.2051 C 11.2793 2.19727 41.8945 32.8613 79.2969 32.8613 Z M 102.49 -6.29883 C 90.8691 -6.29883 83.1055 -15.4297 83.1055 -35.4492 C 83.1055 -55.5664 90.8691 -64.6484 102.49 -64.6484 C 114.111 -64.6484 122.314 -55.5664 122.314 -35.4492 C 122.314 -15.4297 114.111 -6.29883 102.49 -6.29883 Z M 64.0137 -6.44531 C 59.7656 -6.44531 57.0801 -9.17969 57.0801 -14.5508 L 57.0801 -17.0898 L 44.1406 -17.0898 C 38.5254 -17.0898 35.498 -20.3613 35.498 -25.7812 C 35.498 -29.0039 36.1816 -31.9824 37.3535 -34.8633 C 39.7461 -40.5762 43.6035 -49.5605 47.2656 -56.543 C 50.0977 -62.1582 54.0039 -64.2578 60.4492 -64.2578 C 67.2852 -64.2578 70.6543 -60.6445 70.6543 -53.9062 L 70.6543 -29.2969 L 71.875 -29.2969 C 75.0488 -29.2969 77.1484 -26.9043 77.1484 -23.1934 C 77.1484 -19.4824 75.0488 -17.2852 71.9238 -17.2852 L 71.0938 -17.2852 L 71.0938 -14.5508 C 71.0938 -9.13086 68.3594 -6.44531 64.0137 -6.44531 Z M 58.0566 -29.1504 L 58.0566 -52.5879 L 57.8613 -52.5879 C 54.7363 -45.8496 50.9766 -35.0098 48.7793 -29.4922 L 48.7793 -29.1504 Z M 102.734 -20.0195 C 106.006 -20.0195 108.105 -24.0234 108.105 -35.4492 C 108.105 -46.9238 106.055 -50.9766 102.734 -50.9766 C 99.4141 -50.9766 97.3145 -46.9238 97.3145 -35.4492 C 97.3145 -24.0234 99.4141 -20.0195 102.734 -20.0195 Z"/>
  </g>
 </g>
</svg>
