<?xml version="1.0" encoding="UTF-8"?>
<!--Generator: Apple Native CoreSVG 123-->
<!DOCTYPE svg
PUBLIC "-//W3C//DTD SVG 1.1//EN"
       "http://www.w3.org/Graphics/SVG/1.1/DTD/svg11.dtd">
<svg version="1.1" xmlns="http://www.w3.org/2000/svg" xmlns:xlink="http://www.w3.org/1999/xlink" width="3300" height="2200">
 <!--glyph: "uni1006AC.medium", point size: 100.000000, font version: "Version 15.0d4e20", template writer version: "2"-->
 <g id="Notes">
  <rect height="2200" id="artboard" style="fill:white;opacity:1" width="3300" x="0" y="0"/>
  <line id="" style="fill:none;stroke:black;opacity:1;stroke-width:0.5;" x1="263" x2="3036" y1="292" y2="292"/>
  <text style="stroke:none;fill:black;font-family:-apple-system,&quot;SF Pro Display&quot;,&quot;SF Pro Text&quot;,Helvetica,sans-serif;font-weight:bold;" transform="matrix(1 0 0 1 263 322)">Weight/Scale Variations</text>
  <text style="stroke:none;fill:black;font-family:-apple-system,&quot;SF Pro Display&quot;,&quot;SF Pro Text&quot;,Helvetica,sans-serif;text-anchor:middle;" transform="matrix(1 0 0 1 559.711 322)">Ultralight</text>
  <text style="stroke:none;fill:black;font-family:-apple-system,&quot;SF Pro Display&quot;,&quot;SF Pro Text&quot;,Helvetica,sans-serif;text-anchor:middle;" transform="matrix(1 0 0 1 856.422 322)">Thin</text>
  <text style="stroke:none;fill:black;font-family:-apple-system,&quot;SF Pro Display&quot;,&quot;SF Pro Text&quot;,Helvetica,sans-serif;text-anchor:middle;" transform="matrix(1 0 0 1 1153.13 322)">Light</text>
  <text style="stroke:none;fill:black;font-family:-apple-system,&quot;SF Pro Display&quot;,&quot;SF Pro Text&quot;,Helvetica,sans-serif;text-anchor:middle;" transform="matrix(1 0 0 1 1449.84 322)">Regular</text>
  <text style="stroke:none;fill:black;font-family:-apple-system,&quot;SF Pro Display&quot;,&quot;SF Pro Text&quot;,Helvetica,sans-serif;text-anchor:middle;" transform="matrix(1 0 0 1 1746.56 322)">Medium</text>
  <text style="stroke:none;fill:black;font-family:-apple-system,&quot;SF Pro Display&quot;,&quot;SF Pro Text&quot;,Helvetica,sans-serif;text-anchor:middle;" transform="matrix(1 0 0 1 2043.27 322)">Semibold</text>
  <text style="stroke:none;fill:black;font-family:-apple-system,&quot;SF Pro Display&quot;,&quot;SF Pro Text&quot;,Helvetica,sans-serif;text-anchor:middle;" transform="matrix(1 0 0 1 2339.98 322)">Bold</text>
  <text style="stroke:none;fill:black;font-family:-apple-system,&quot;SF Pro Display&quot;,&quot;SF Pro Text&quot;,Helvetica,sans-serif;text-anchor:middle;" transform="matrix(1 0 0 1 2636.69 322)">Heavy</text>
  <text style="stroke:none;fill:black;font-family:-apple-system,&quot;SF Pro Display&quot;,&quot;SF Pro Text&quot;,Helvetica,sans-serif;text-anchor:middle;" transform="matrix(1 0 0 1 2933.4 322)">Black</text>
  <line id="" style="fill:none;stroke:black;opacity:1;stroke-width:0.5;" x1="263" x2="3036" y1="1903" y2="1903"/>
  <g id="" transform="matrix(1 0 0 1 263 1933)">
   <path d="M 9.24805 0.830078 C 13.5547 0.830078 17.1387 -2.74414 17.1387 -7.05078 C 17.1387 -11.3574 13.5449 -14.9316 9.23828 -14.9316 C 4.94141 -14.9316 1.36719 -11.3574 1.36719 -7.05078 C 1.36719 -2.74414 4.95117 0.830078 9.24805 0.830078 Z M 9.24805 -0.654297 C 5.70312 -0.654297 2.87109 -3.49609 2.87109 -7.05078 C 2.87109 -10.6055 5.69336 -13.4473 9.23828 -13.4473 C 12.793 -13.4473 15.6348 -10.6055 15.6445 -7.05078 C 15.6543 -3.49609 12.8027 -0.654297 9.24805 -0.654297 Z M 9.22852 -3.42773 C 9.69727 -3.42773 9.9707 -3.74023 9.9707 -4.25781 L 9.9707 -6.31836 L 12.1973 -6.31836 C 12.6953 -6.31836 13.0371 -6.57227 13.0371 -7.04102 C 13.0371 -7.51953 12.7148 -7.7832 12.1973 -7.7832 L 9.9707 -7.7832 L 9.9707 -10.0098 C 9.9707 -10.5273 9.69727 -10.8496 9.22852 -10.8496 C 8.75977 -10.8496 8.50586 -10.5078 8.50586 -10.0098 L 8.50586 -7.7832 L 6.29883 -7.7832 C 5.78125 -7.7832 5.44922 -7.51953 5.44922 -7.04102 C 5.44922 -6.57227 5.80078 -6.31836 6.29883 -6.31836 L 8.50586 -6.31836 L 8.50586 -4.25781 C 8.50586 -3.75977 8.75977 -3.42773 9.22852 -3.42773 Z"/>
  </g>
  <g id="" transform="matrix(1 0 0 1 281.506 1933)">
   <path d="M 11.709 2.91016 C 17.1484 2.91016 21.6699 -1.60156 21.6699 -7.05078 C 21.6699 -12.4902 17.1387 -17.0117 11.6992 -17.0117 C 6.25 -17.0117 1.74805 -12.4902 1.74805 -7.05078 C 1.74805 -1.60156 6.25977 2.91016 11.709 2.91016 Z M 11.709 1.25 C 7.09961 1.25 3.41797 -2.44141 3.41797 -7.05078 C 3.41797 -11.6504 7.08984 -15.3516 11.6992 -15.3516 C 16.2988 -15.3516 20 -11.6504 20.0098 -7.05078 C 20.0195 -2.44141 16.3086 1.25 11.709 1.25 Z M 11.6797 -2.41211 C 12.207 -2.41211 12.5195 -2.77344 12.5195 -3.33984 L 12.5195 -6.23047 L 15.5762 -6.23047 C 16.123 -6.23047 16.5039 -6.51367 16.5039 -7.03125 C 16.5039 -7.55859 16.1426 -7.86133 15.5762 -7.86133 L 12.5195 -7.86133 L 12.5195 -10.9277 C 12.5195 -11.5039 12.207 -11.8555 11.6797 -11.8555 C 11.1621 -11.8555 10.8789 -11.4844 10.8789 -10.9277 L 10.8789 -7.86133 L 7.83203 -7.86133 C 7.25586 -7.86133 6.89453 -7.55859 6.89453 -7.03125 C 6.89453 -6.51367 7.28516 -6.23047 7.83203 -6.23047 L 10.8789 -6.23047 L 10.8789 -3.33984 C 10.8789 -2.79297 11.1621 -2.41211 11.6797 -2.41211 Z"/>
  </g>
  <g id="" transform="matrix(1 0 0 1 304.914 1933)">
   <path d="M 14.9707 5.67383 C 21.9336 5.67383 27.6855 -0.078125 27.6855 -7.04102 C 27.6855 -14.0039 21.9238 -19.7559 14.9609 -19.7559 C 7.99805 -19.7559 2.25586 -14.0039 2.25586 -7.04102 C 2.25586 -0.078125 8.00781 5.67383 14.9707 5.67383 Z M 14.9707 3.85742 C 8.92578 3.85742 4.08203 -1.00586 4.08203 -7.04102 C 4.08203 -13.0762 8.91602 -17.9395 14.9609 -17.9395 C 20.9961 -17.9395 25.8594 -13.0762 25.8691 -7.04102 C 25.8789 -1.00586 21.0059 3.85742 14.9707 3.85742 Z M 14.9414 -1.06445 C 15.5176 -1.06445 15.8594 -1.45508 15.8594 -2.06055 L 15.8594 -6.13281 L 20.0977 -6.13281 C 20.6934 -6.13281 21.1133 -6.46484 21.1133 -7.02148 C 21.1133 -7.59766 20.7227 -7.93945 20.0977 -7.93945 L 15.8594 -7.93945 L 15.8594 -12.1875 C 15.8594 -12.8027 15.5176 -13.1934 14.9414 -13.1934 C 14.3848 -13.1934 14.0625 -12.7832 14.0625 -12.1875 L 14.0625 -7.93945 L 9.82422 -7.93945 C 9.20898 -7.93945 8.80859 -7.59766 8.80859 -7.02148 C 8.80859 -6.46484 9.23828 -6.13281 9.82422 -6.13281 L 14.0625 -6.13281 L 14.0625 -2.06055 C 14.0625 -1.47461 14.3848 -1.06445 14.9414 -1.06445 Z"/>
  </g>
  <text style="stroke:none;fill:black;font-family:-apple-system,&quot;SF Pro Display&quot;,&quot;SF Pro Text&quot;,Helvetica,sans-serif;font-weight:bold;" transform="matrix(1 0 0 1 263 1953)">Design Variations</text>
  <text style="stroke:none;fill:black;font-family:-apple-system,&quot;SF Pro Display&quot;,&quot;SF Pro Text&quot;,Helvetica,sans-serif;" transform="matrix(1 0 0 1 263 1971)">Symbols are supported in up to nine weights and three scales.</text>
  <text style="stroke:none;fill:black;font-family:-apple-system,&quot;SF Pro Display&quot;,&quot;SF Pro Text&quot;,Helvetica,sans-serif;" transform="matrix(1 0 0 1 263 1989)">For optimal layout with text and other symbols, vertically align</text>
  <text style="stroke:none;fill:black;font-family:-apple-system,&quot;SF Pro Display&quot;,&quot;SF Pro Text&quot;,Helvetica,sans-serif;" transform="matrix(1 0 0 1 263 2007)">symbols with the adjacent text.</text>
  <rect height="14" id="" style="fill:#00AEEF;stroke:none;opacity:0.4;" width="3" x="776" y="1919"/>
  <g id="" transform="matrix(1 0 0 1 779 1933)">
   <path d="M 10.5273 0 L 12.373 0 L 7.17773 -14.0918 L 5.43945 -14.0918 L 0.244141 0 L 2.08984 0 L 3.50586 -4.0332 L 9.11133 -4.0332 Z M 6.2793 -11.9531 L 6.33789 -11.9531 L 8.59375 -5.52734 L 4.02344 -5.52734 Z"/>
  </g>
  <rect height="14" id="" style="fill:#00AEEF;stroke:none;opacity:0.4;" width="3" x="791.617" y="1919"/>
  <text style="stroke:none;fill:black;font-family:-apple-system,&quot;SF Pro Display&quot;,&quot;SF Pro Text&quot;,Helvetica,sans-serif;font-weight:bold;" transform="matrix(1 0 0 1 776 1953)">Side Bearings</text>
  <text style="stroke:none;fill:black;font-family:-apple-system,&quot;SF Pro Display&quot;,&quot;SF Pro Text&quot;,Helvetica,sans-serif;" transform="matrix(1 0 0 1 776 1971)">Horizontal padding on the left and right side of each symbol</text>
  <text style="stroke:none;fill:black;font-family:-apple-system,&quot;SF Pro Display&quot;,&quot;SF Pro Text&quot;,Helvetica,sans-serif;" transform="matrix(1 0 0 1 776 1989)">can be adjusted by modifying the width of the blue rectangles.</text>
  <text style="stroke:none;fill:black;font-family:-apple-system,&quot;SF Pro Display&quot;,&quot;SF Pro Text&quot;,Helvetica,sans-serif;" transform="matrix(1 0 0 1 776 2007)">Modifications are automatically applied proportionally to all</text>
  <text style="stroke:none;fill:black;font-family:-apple-system,&quot;SF Pro Display&quot;,&quot;SF Pro Text&quot;,Helvetica,sans-serif;" transform="matrix(1 0 0 1 776 2025)">scales and weights.</text>
  <g id="" transform="matrix(1 0 0 1 1289 1933)">
   <path d="M 2.96875 2.35352 L 3.80859 3.19336 C 4.84375 4.22852 6.12305 4.15039 7.19727 2.97852 L 16.1621 -6.82617 C 16.5527 -6.74805 16.9629 -6.8457 17.4902 -7.02148 C 18.1738 -7.25586 18.2715 -7.25586 18.3887 -7.13867 C 18.5352 -7.01172 18.4863 -6.89453 18.2422 -6.25 C 17.8809 -5.33203 17.8125 -4.79492 18.5547 -4.02344 L 19.4238 -3.13477 C 20.2734 -2.24609 21.3281 -2.26562 22.2168 -3.14453 L 25.0586 -5.97656 C 25.9473 -6.86523 25.957 -7.92969 25.0781 -8.7793 L 24.1797 -9.64844 C 23.4082 -10.4004 22.8711 -10.3516 21.9629 -9.98047 C 21.3184 -9.72656 21.2012 -9.6875 21.0645 -9.81445 C 20.9375 -9.93164 20.9473 -10.0391 21.1816 -10.7129 C 21.5332 -11.6895 21.5723 -12.2852 20.752 -13.0957 L 19.3359 -14.5117 C 15.1953 -18.6133 11.2305 -18.7402 7.65625 -15.4395 C 7.08008 -14.9023 6.99219 -14.1504 7.53906 -13.6133 L 7.79297 -13.3594 C 8.22266 -12.9297 8.86719 -12.8418 9.41406 -13.1152 C 11.0645 -13.9453 12.2559 -14.0234 13.457 -12.9785 L 13.0273 -11.416 C 12.8516 -10.8008 12.793 -10.3418 12.9199 -9.93164 L 3.18359 -1.04492 C 2.02148 0.0292969 1.93359 1.32812 2.96875 2.35352 Z M 8.96484 -14.4922 C 8.89648 -14.5703 8.86719 -14.6582 8.99414 -14.7559 C 11.709 -17.2852 15.0391 -16.8457 18.3496 -13.5254 L 19.6973 -12.168 C 20.0879 -11.7773 20.0977 -11.582 19.8828 -10.8691 C 19.6582 -10.127 19.502 -9.53125 20.1465 -8.88672 C 20.8105 -8.22266 21.2891 -8.41797 22.207 -8.63281 C 22.9004 -8.79883 23.0664 -8.79883 23.4473 -8.41797 L 24.0918 -7.77344 C 24.4043 -7.48047 24.4141 -7.32422 24.0723 -6.97266 L 21.2207 -4.13086 C 20.8887 -3.79883 20.7227 -3.79883 20.4297 -4.10156 L 19.7852 -4.75586 C 19.4141 -5.13672 19.4141 -5.30273 19.5801 -6.01562 C 19.7852 -6.88477 19.9805 -7.38281 19.3262 -8.04688 C 18.6719 -8.7207 18.0762 -8.57422 17.3438 -8.33008 C 16.5625 -8.06641 16.3281 -8.06641 15.8984 -8.49609 L 14.6094 -9.78516 C 14.1699 -10.2246 14.1309 -10.4395 14.2676 -10.9082 L 15.0293 -13.3984 C 13.3887 -15.2832 11.4941 -15.5566 9.20898 -14.4434 C 9.11133 -14.3945 9.04297 -14.4141 8.96484 -14.4922 Z M 3.96484 1.36719 C 3.52539 0.927734 3.54492 0.537109 4.14062 -0.00976562 L 13.7402 -8.81836 L 15 -7.55859 L 6.17188 2.02148 C 5.625 2.60742 5.24414 2.64648 4.79492 2.19727 Z"/>
  </g>
  <text style="stroke:none;fill:black;font-family:-apple-system,&quot;SF Pro Display&quot;,&quot;SF Pro Text&quot;,Helvetica,sans-serif;font-weight:bold;" transform="matrix(1 0 0 1 1289 1953)">Exporting</text>
  <text style="stroke:none;fill:black;font-family:-apple-system,&quot;SF Pro Display&quot;,&quot;SF Pro Text&quot;,Helvetica,sans-serif;" transform="matrix(1 0 0 1 1289 1971)">Symbols should be outlined when exporting to ensure the</text>
  <text style="stroke:none;fill:black;font-family:-apple-system,&quot;SF Pro Display&quot;,&quot;SF Pro Text&quot;,Helvetica,sans-serif;" transform="matrix(1 0 0 1 1289 1989)">design is preserved when submitting to Xcode.</text>
  <text id="template-version" style="stroke:none;fill:black;font-family:-apple-system,&quot;SF Pro Display&quot;,&quot;SF Pro Text&quot;,Helvetica,sans-serif;text-anchor:end;" transform="matrix(1 0 0 1 3036 1933)">Template v.0.1</text>
  <text style="stroke:none;fill:black;font-family:-apple-system,&quot;SF Pro Display&quot;,&quot;SF Pro Text&quot;,Helvetica,sans-serif;text-anchor:end;" transform="matrix(1 0 0 1 3036 1951)">Generated from 42.circle.fill</text>
  <text style="stroke:none;fill:black;font-family:-apple-system,&quot;SF Pro Display&quot;,&quot;SF Pro Text&quot;,Helvetica,sans-serif;text-anchor:end;" transform="matrix(1 0 0 1 3036 1969)">Typeset at 100 points</text>
  <text style="stroke:none;fill:black;font-family:-apple-system,&quot;SF Pro Display&quot;,&quot;SF Pro Text&quot;,Helvetica,sans-serif;" transform="matrix(1 0 0 1 263 726)">Small</text>
  <text style="stroke:none;fill:black;font-family:-apple-system,&quot;SF Pro Display&quot;,&quot;SF Pro Text&quot;,Helvetica,sans-serif;" transform="matrix(1 0 0 1 263 1156)">Medium</text>
  <text style="stroke:none;fill:black;font-family:-apple-system,&quot;SF Pro Display&quot;,&quot;SF Pro Text&quot;,Helvetica,sans-serif;" transform="matrix(1 0 0 1 263 1586)">Large</text>
 </g>
 <g id="Guides">
  <g id="H-reference" style="fill:#27AAE1;stroke:none;" transform="matrix(1 0 0 1 339 696)">
   <path d="M 54.9316 0 L 57.666 0 L 30.5664 -70.459 L 28.0762 -70.459 L 0.976562 0 L 3.66211 0 L 12.9395 -24.4629 L 45.7031 -24.4629 Z M 29.1992 -67.0898 L 29.4434 -67.0898 L 44.8242 -26.709 L 13.8184 -26.709 Z"/>
  </g>
  <line id="Baseline-S" style="fill:none;stroke:#27AAE1;opacity:1;stroke-width:0.577;" x1="263" x2="3036" y1="696" y2="696"/>
  <line id="Capline-S" style="fill:none;stroke:#27AAE1;opacity:1;stroke-width:0.577;" x1="263" x2="3036" y1="625.541" y2="625.541"/>
  <g id="H-reference" style="fill:#27AAE1;stroke:none;" transform="matrix(1 0 0 1 339 1126)">
   <path d="M 54.9316 0 L 57.666 0 L 30.5664 -70.459 L 28.0762 -70.459 L 0.976562 0 L 3.66211 0 L 12.9395 -24.4629 L 45.7031 -24.4629 Z M 29.1992 -67.0898 L 29.4434 -67.0898 L 44.8242 -26.709 L 13.8184 -26.709 Z"/>
  </g>
  <line id="Baseline-M" style="fill:none;stroke:#27AAE1;opacity:1;stroke-width:0.577;" x1="263" x2="3036" y1="1126" y2="1126"/>
  <line id="Capline-M" style="fill:none;stroke:#27AAE1;opacity:1;stroke-width:0.577;" x1="263" x2="3036" y1="1055.54" y2="1055.54"/>
  <g id="H-reference" style="fill:#27AAE1;stroke:none;" transform="matrix(1 0 0 1 339 1556)">
   <path d="M 54.9316 0 L 57.666 0 L 30.5664 -70.459 L 28.0762 -70.459 L 0.976562 0 L 3.66211 0 L 12.9395 -24.4629 L 45.7031 -24.4629 Z M 29.1992 -67.0898 L 29.4434 -67.0898 L 44.8242 -26.709 L 13.8184 -26.709 Z"/>
  </g>
  <line id="Baseline-L" style="fill:none;stroke:#27AAE1;opacity:1;stroke-width:0.577;" x1="263" x2="3036" y1="1556" y2="1556"/>
  <line id="Capline-L" style="fill:none;stroke:#27AAE1;opacity:1;stroke-width:0.577;" x1="263" x2="3036" y1="1485.54" y2="1485.54"/>
  <rect height="119.336" id="left-margin" style="fill:#00AEEF;stroke:none;opacity:0.4;" width="8.74023" x="1391.32" y="1030.79"/>
  <rect height="119.336" id="right-margin" style="fill:#00AEEF;stroke:none;opacity:0.4;" width="8.69141" x="1499.67" y="1030.79"/>
 </g>
 <g id="Symbols">
  <g id="Ultralight-S" transform="matrix(1 0 0 1 515.644 696)">
   <path d="M 44.043 2.05078 C 64.502 2.05078 81.2988 -14.6973 81.2988 -35.1562 C 81.2988 -55.6152 64.502 -72.3633 44.043 -72.3633 C 23.584 -72.3633 6.83594 -55.6152 6.83594 -35.1562 C 6.83594 -14.6973 23.584 2.05078 44.043 2.05078 Z M 48.9258 -17.3828 C 48.0957 -17.3828 47.5586 -17.8711 47.5586 -18.6523 C 47.5586 -19.0918 47.6562 -19.3848 48.0469 -19.7754 L 62.0117 -35.3516 C 65.0879 -38.7207 66.3574 -41.2598 66.3574 -44.1895 C 66.3574 -48.5352 63.2324 -51.3672 58.252 -51.3672 C 53.418 -51.3672 49.8047 -48.3887 49.4629 -44.1895 C 49.4141 -43.5059 49.0234 -43.1152 48.291 -43.1152 C 47.5586 -43.1152 47.1191 -43.6523 47.1191 -44.3359 C 47.1191 -44.7266 47.168 -45.0195 47.2168 -45.459 C 48.0957 -50.1953 52.6855 -53.6133 58.252 -53.6133 C 64.6484 -53.6133 68.7988 -49.9023 68.7988 -44.1406 C 68.7988 -40.7227 67.2363 -37.8418 63.0371 -33.252 L 51.0254 -19.8242 L 51.0254 -19.6289 L 68.75 -19.6289 C 69.4336 -19.6289 69.873 -19.1895 69.873 -18.5059 C 69.873 -17.8711 69.4336 -17.3828 68.75 -17.3828 Z M 36.6699 -17.1387 C 35.9863 -17.1387 35.4492 -17.5781 35.4492 -18.3105 L 35.4492 -26.0742 L 19.7754 -26.0742 C 18.5059 -26.0742 17.7734 -26.7578 17.7734 -27.832 C 17.7734 -28.3691 17.9688 -28.8574 18.2129 -29.2969 C 21.4355 -34.5215 29.7363 -46.875 33.3496 -52.1484 C 34.1309 -53.2715 34.8145 -53.6133 35.9375 -53.6133 C 37.1094 -53.6133 37.8418 -52.8809 37.8418 -51.8066 L 37.8418 -28.3203 L 42.7734 -28.3203 C 43.457 -28.3203 43.8477 -27.7832 43.8477 -27.1973 C 43.8477 -26.5625 43.457 -26.0742 42.7734 -26.0742 L 37.8418 -26.0742 L 37.8418 -18.3105 C 37.8418 -17.5781 37.4023 -17.1387 36.6699 -17.1387 Z M 35.4492 -28.3203 L 35.4492 -50.9277 L 35.2539 -50.9277 C 32.4707 -46.875 22.9492 -32.666 20.459 -28.5156 L 20.459 -28.3203 Z"/>
  </g>
  <g id="Thin-S" transform="matrix(1 0 0 1 811.867 696)">
   <path d="M 44.5801 2.53906 C 65.2832 2.53906 82.2754 -14.4531 82.2754 -35.2051 C 82.2754 -55.9082 65.2344 -72.9004 44.5312 -72.9004 C 23.8281 -72.9004 6.83594 -55.9082 6.83594 -35.2051 C 6.83594 -14.4531 23.877 2.53906 44.5801 2.53906 Z M 49.6582 -17.5293 C 48.6328 -17.5293 47.998 -18.2129 47.998 -19.1895 C 47.998 -19.7266 48.1445 -20.1172 48.584 -20.6055 L 61.9141 -35.5957 C 64.6973 -38.6719 66.2109 -41.2109 66.2109 -44.0918 C 66.2109 -48.1445 63.3301 -50.7812 58.7891 -50.7812 C 54.3945 -50.7812 51.2207 -48.1934 50.6348 -44.2871 C 50.4395 -43.4082 50 -42.9199 49.1211 -42.9199 C 48.1934 -42.9199 47.6562 -43.6035 47.6562 -44.5312 C 47.6562 -44.9219 47.7051 -45.3125 47.7539 -45.752 C 48.6816 -50.3906 53.2715 -53.7598 58.6914 -53.7598 C 65.1855 -53.7598 69.3848 -50 69.3848 -44.1895 C 69.3848 -40.5273 67.627 -37.5488 63.7207 -33.252 L 52.6367 -20.8008 L 52.6367 -20.5566 L 68.9941 -20.5566 C 69.8242 -20.5566 70.4102 -19.9707 70.4102 -19.043 C 70.4102 -18.2129 69.8242 -17.5293 68.9941 -17.5293 Z M 37.1094 -17.2363 C 36.1816 -17.2363 35.5469 -17.9199 35.5469 -18.9941 L 35.5469 -25.7812 L 20.752 -25.7812 C 19.1895 -25.7812 18.2617 -26.6602 18.2617 -28.0762 C 18.2617 -28.7598 18.5059 -29.3945 18.8477 -30.0293 C 21.9727 -35.2539 29.1992 -46.3379 32.8125 -51.8066 C 33.7402 -53.2227 34.668 -53.7598 36.1816 -53.7598 C 37.6953 -53.7598 38.7207 -52.7832 38.7207 -51.3184 L 38.7207 -28.7109 L 42.9199 -28.7109 C 43.7988 -28.7109 44.3848 -28.125 44.3848 -27.2949 C 44.3848 -26.3672 43.7988 -25.7812 42.9199 -25.7812 L 38.7207 -25.7812 L 38.7207 -18.9941 C 38.7207 -17.9199 38.1348 -17.2363 37.1094 -17.2363 Z M 35.5469 -28.7109 L 35.5469 -50.1953 L 35.3516 -50.1953 C 32.373 -45.7031 24.2676 -33.252 21.7285 -28.9551 L 21.7285 -28.7109 Z"/>
  </g>
  <g id="Light-S" transform="matrix(1 0 0 1 1107.6 696)">
   <path d="M 45.5078 3.4668 C 66.6992 3.4668 84.2285 -14.0625 84.2285 -35.2051 C 84.2285 -56.3965 66.6504 -73.9258 45.5078 -73.9258 C 24.3164 -73.9258 6.83594 -56.3965 6.83594 -35.2051 C 6.83594 -14.0625 24.3652 3.4668 45.5078 3.4668 Z M 51.123 -17.8223 C 49.707 -17.8223 48.8281 -18.75 48.8281 -20.166 C 48.8281 -20.8984 49.0723 -21.582 49.6582 -22.2168 L 61.6699 -35.9863 C 63.916 -38.5742 65.918 -41.1133 65.918 -43.9453 C 65.918 -47.3633 63.5254 -49.6582 59.8145 -49.6582 C 56.3477 -49.6582 53.9062 -47.7539 52.9297 -44.3848 C 52.4414 -43.2129 51.8555 -42.5293 50.7324 -42.5293 C 49.4141 -42.5293 48.584 -43.5059 48.584 -44.873 C 48.584 -45.3613 48.6816 -45.8008 48.7793 -46.3379 C 49.8047 -50.7812 54.3945 -54.0527 59.5703 -54.0527 C 66.2598 -54.0527 70.5566 -50.2441 70.5566 -44.2871 C 70.5566 -40.1855 68.3594 -37.0605 64.9902 -33.2031 L 55.7617 -22.6074 L 55.7617 -22.3633 L 69.3848 -22.3633 C 70.6543 -22.3633 71.5332 -21.5332 71.5332 -20.1172 C 71.5332 -18.75 70.6543 -17.8223 69.3848 -17.8223 Z M 37.9883 -17.4805 C 36.5723 -17.4805 35.6934 -18.5059 35.6934 -20.2637 L 35.6934 -25.2441 L 22.5586 -25.2441 C 20.5566 -25.2441 19.2383 -26.4648 19.2383 -28.5645 C 19.2383 -29.5898 19.4824 -30.4199 20.0684 -31.543 C 22.998 -36.7676 28.125 -45.2148 31.7383 -51.123 C 33.0078 -53.2227 34.375 -54.0039 36.5723 -54.0039 C 38.8184 -54.0039 40.3809 -52.5879 40.3809 -50.4395 L 40.3809 -29.541 L 43.2129 -29.541 C 44.5312 -29.541 45.3613 -28.7109 45.3613 -27.3926 C 45.3613 -26.0254 44.5312 -25.2441 43.2129 -25.2441 L 40.3809 -25.2441 L 40.3809 -20.2637 C 40.3809 -18.457 39.5508 -17.4805 37.9883 -17.4805 Z M 35.6934 -29.541 L 35.6934 -48.8281 L 35.498 -48.8281 C 32.1777 -43.3594 26.7578 -34.4238 24.2188 -29.7363 L 24.2188 -29.541 Z"/>
  </g>
  <g id="Regular-S" transform="matrix(1 0 0 1 1403.58 696)">
   <path d="M 46.2402 4.15039 C 67.7734 4.15039 85.6934 -13.7207 85.6934 -35.2539 C 85.6934 -56.7871 67.7246 -74.6582 46.1914 -74.6582 C 24.707 -74.6582 6.83594 -56.7871 6.83594 -35.2539 C 6.83594 -13.7207 24.7559 4.15039 46.2402 4.15039 Z M 52.1973 -18.0664 C 50.4883 -18.0664 49.4629 -19.1895 49.4629 -20.8984 C 49.4629 -21.8262 49.7559 -22.6562 50.4883 -23.4863 L 61.4746 -36.3281 C 63.3301 -38.5254 65.7227 -41.0156 65.7227 -43.7988 C 65.7227 -46.7773 63.6719 -48.7793 60.5469 -48.7793 C 57.8125 -48.7793 55.957 -47.4609 54.6387 -44.4824 C 54.0039 -43.0664 53.2715 -42.2363 52.002 -42.2363 C 50.3418 -42.2363 49.3164 -43.4082 49.3164 -45.1172 C 49.3164 -45.6543 49.4141 -46.1914 49.5605 -46.7285 C 50.6836 -51.0742 55.2734 -54.248 60.2539 -54.248 C 67.0898 -54.248 71.4844 -50.3906 71.4844 -44.3848 C 71.4844 -39.8926 68.9453 -36.6699 65.9668 -33.2031 L 58.1055 -24.0234 L 58.1055 -23.7305 L 69.7266 -23.7305 C 71.2402 -23.7305 72.3633 -22.7539 72.3633 -20.9473 C 72.3633 -19.1895 71.2402 -18.0664 69.7266 -18.0664 Z M 38.6719 -17.627 C 36.8652 -17.627 35.8398 -18.9453 35.8398 -21.2402 L 35.8398 -24.8047 L 23.9258 -24.8047 C 21.5332 -24.8047 19.9219 -26.3184 19.9219 -28.9062 C 19.9219 -30.1758 20.2148 -31.2012 20.9961 -32.666 C 23.7793 -37.8906 27.3438 -44.3848 30.9082 -50.5859 C 32.4219 -53.1738 34.1309 -54.1992 36.9141 -54.1992 C 39.6973 -54.1992 41.6016 -52.4414 41.6016 -49.707 L 41.6016 -30.127 L 43.457 -30.127 C 45.0684 -30.127 46.0938 -29.1504 46.0938 -27.4902 C 46.0938 -25.7812 45.0684 -24.8047 43.457 -24.8047 L 41.6016 -24.8047 L 41.6016 -21.2402 C 41.6016 -18.8965 40.5762 -17.627 38.6719 -17.627 Z M 35.8398 -30.127 L 35.8398 -47.8027 L 35.5957 -47.8027 C 32.0312 -41.6016 28.6621 -35.3516 26.123 -30.3711 L 26.123 -30.127 Z"/>
  </g>
  <g id="Medium-S" transform="matrix(1 0 0 1 1699.7 696)">
   <path d="M 46.8262 4.78516 C 68.75 4.78516 86.8652 -13.3301 86.8652 -35.2539 C 86.8652 -57.1289 68.7012 -75.2441 46.8262 -75.2441 C 24.9023 -75.2441 6.83594 -57.1289 6.83594 -35.2539 C 6.83594 -13.3301 24.9512 4.78516 46.8262 4.78516 Z M 53.1738 -18.1641 C 51.2695 -18.1641 50.0977 -19.5312 50.0977 -21.3867 C 50.0977 -22.5586 50.4395 -23.584 51.416 -24.6582 L 61.4746 -36.2793 C 63.4277 -38.5254 65.5273 -40.7715 65.5273 -43.3105 C 65.5273 -45.8984 63.6719 -47.6562 60.9375 -47.6562 C 58.5449 -47.6562 56.8848 -46.4355 55.7617 -43.8477 C 55.1758 -42.3828 54.3457 -41.4551 52.832 -41.4551 C 51.0742 -41.4551 49.9023 -42.7246 49.9023 -44.5312 C 49.9023 -45.166 50 -45.8008 50.1465 -46.4355 C 51.3184 -50.7324 55.8105 -53.8574 60.791 -53.8574 C 67.5781 -53.8574 71.875 -49.9023 71.8262 -43.9453 C 71.8262 -39.6484 69.5312 -36.4258 66.4551 -32.8613 L 59.5703 -24.8535 L 59.5703 -24.5605 L 69.6777 -24.5605 C 71.5332 -24.5605 72.8027 -23.4375 72.8027 -21.4355 C 72.8027 -19.4336 71.5332 -18.1641 69.6777 -18.1641 Z M 38.916 -17.6758 C 36.8652 -17.6758 35.6445 -19.0918 35.6445 -21.6797 L 35.6445 -24.6582 L 25 -24.6582 C 22.3145 -24.6582 20.6055 -26.3184 20.6055 -29.0527 C 20.6055 -30.5664 20.9473 -31.8359 21.6797 -33.3496 C 24.0723 -38.0371 27.2461 -44.2383 30.4199 -49.8535 C 31.9824 -52.6855 33.8867 -53.7598 37.0117 -53.7598 C 40.2344 -53.7598 42.1875 -51.8555 42.1875 -48.7305 L 42.1875 -30.5664 L 43.7012 -30.5664 C 45.4102 -30.5664 46.4844 -29.4922 46.4844 -27.6367 C 46.4844 -25.7324 45.4102 -24.6582 43.7012 -24.6582 L 42.2852 -24.6582 L 42.2852 -21.6797 C 42.2852 -19.043 41.0156 -17.6758 38.916 -17.6758 Z M 35.8398 -30.5664 L 35.8398 -47.168 L 35.5957 -47.168 C 32.5684 -41.6504 29.541 -35.2539 27.3926 -30.7617 L 27.3926 -30.5664 Z"/>
  </g>
  <g id="Semibold-S" transform="matrix(1 0 0 1 1995.98 696)">
   <path d="M 47.3145 5.22461 C 69.4824 5.22461 87.7441 -13.0371 87.7441 -35.2539 C 87.7441 -57.4219 69.4336 -75.6836 47.2656 -75.6836 C 25.0977 -75.6836 6.83594 -57.4219 6.83594 -35.2539 C 6.83594 -13.0371 25.0977 5.22461 47.3145 5.22461 Z M 53.9062 -18.2617 C 51.8555 -18.2617 50.5371 -19.7266 50.5371 -21.7285 C 50.5371 -23.1445 50.9766 -24.2676 52.1484 -25.5859 L 61.4746 -36.2793 C 63.4766 -38.5742 65.332 -40.5762 65.332 -42.9688 C 65.332 -45.2148 63.6719 -46.8262 61.2793 -46.8262 C 59.082 -46.8262 57.6172 -45.6543 56.6895 -43.3594 C 56.0547 -41.8945 55.1758 -40.8691 53.4668 -40.8691 C 51.6113 -40.8691 50.3418 -42.1875 50.3418 -44.0918 C 50.3418 -44.8242 50.4395 -45.459 50.5859 -46.1426 C 51.7578 -50.4883 56.2012 -53.5645 61.2305 -53.5645 C 67.9199 -53.5645 72.168 -49.5605 72.1191 -43.6523 C 72.1191 -39.4043 69.9707 -36.2305 66.8457 -32.6172 L 60.6934 -25.5371 L 60.6934 -25.2441 L 69.6777 -25.2441 C 71.7285 -25.2441 73.0957 -23.9746 73.0957 -21.7773 C 73.0957 -19.6289 71.7285 -18.2617 69.6777 -18.2617 Z M 39.1113 -17.6758 C 36.8652 -17.6758 35.498 -19.1895 35.498 -22.0215 L 35.498 -24.5117 L 25.8301 -24.5117 C 22.9004 -24.5117 21.1426 -26.2695 21.1426 -29.1992 C 21.1426 -30.8594 21.5332 -32.3242 22.2656 -33.9355 C 24.2676 -38.1836 27.1973 -44.1406 30.0293 -49.2676 C 31.6406 -52.2949 33.6914 -53.418 37.1094 -53.418 C 40.6738 -53.418 42.627 -51.416 42.627 -47.998 L 42.627 -30.957 L 43.8965 -30.957 C 45.6543 -30.957 46.8262 -29.6875 46.8262 -27.7344 C 46.8262 -25.7324 45.6543 -24.5605 43.8965 -24.5605 L 42.7734 -24.5605 L 42.7734 -22.0215 C 42.7734 -19.1406 41.3574 -17.6758 39.1113 -17.6758 Z M 35.8398 -30.9082 L 35.8398 -46.7285 L 35.6445 -46.7285 C 33.0566 -41.6992 30.2246 -35.1562 28.3203 -31.1035 L 28.3203 -30.9082 Z"/>
  </g>
  <g id="Bold-S" transform="matrix(1 0 0 1 2292.1 696)">
   <path d="M 47.9004 5.81055 C 70.4102 5.81055 88.916 -12.6465 88.916 -35.2051 C 88.916 -57.7637 70.4102 -76.2695 47.8516 -76.2695 C 25.293 -76.2695 6.83594 -57.7637 6.83594 -35.2051 C 6.83594 -12.6465 25.3418 5.81055 47.9004 5.81055 Z M 54.9316 -18.3594 C 52.6367 -18.3594 51.1719 -20.0684 51.1719 -22.2168 C 51.1719 -23.877 51.6602 -25.1953 53.125 -26.8066 L 61.4746 -36.2793 C 63.5254 -38.5742 65.1367 -40.332 65.1367 -42.4805 C 65.1367 -44.3359 63.6719 -45.7031 61.6699 -45.7031 C 59.8145 -45.7031 58.5449 -44.6289 57.8613 -42.7734 C 57.2754 -41.2109 56.25 -40.1367 54.3457 -40.1367 C 52.3926 -40.1367 50.8789 -41.5039 50.8789 -43.5059 C 50.8789 -44.3848 50.9766 -45.0684 51.2207 -45.8008 C 52.3926 -50.1953 56.7383 -53.1738 61.7676 -53.1738 C 68.3594 -53.1738 72.5586 -49.0723 72.5098 -43.2129 C 72.5098 -39.1602 70.5078 -35.9863 67.334 -32.2754 L 62.1582 -26.416 L 62.1582 -26.0742 L 69.6777 -26.0742 C 72.0215 -26.0742 73.5352 -24.707 73.5352 -22.2656 C 73.5352 -19.8242 72.0215 -18.3594 69.6777 -18.3594 Z M 39.3555 -17.7246 C 36.8652 -17.7246 35.3027 -19.3359 35.3027 -22.4609 L 35.3027 -24.3164 L 26.9043 -24.3164 C 23.6328 -24.3164 21.8262 -26.2207 21.8262 -29.3945 C 21.8262 -31.25 22.2656 -32.959 22.9492 -34.6191 C 24.5605 -38.3301 27.1484 -44.043 29.541 -48.4863 C 31.2012 -51.7578 33.4961 -52.9785 37.207 -52.9785 C 41.2109 -52.9785 43.2129 -50.8789 43.2129 -46.9727 L 43.2129 -31.3965 L 44.0918 -31.3965 C 46.0449 -31.3965 47.2168 -30.0293 47.2168 -27.8809 C 47.2168 -25.6836 46.0449 -24.4141 44.1406 -24.4141 L 43.4082 -24.4141 L 43.4082 -22.4609 C 43.4082 -19.2871 41.8457 -17.7246 39.3555 -17.7246 Z M 35.8398 -31.3477 L 35.8398 -46.0938 L 35.6934 -46.0938 C 33.6426 -41.7969 31.1035 -35.0586 29.5898 -31.543 L 29.5898 -31.3477 Z"/>
  </g>
  <g id="Heavy-S" transform="matrix(1 0 0 1 2587.96 696)">
   <path d="M 48.7305 6.68945 C 71.8262 6.68945 90.625 -12.1094 90.625 -35.2051 C 90.625 -58.3008 71.8262 -77.0996 48.7305 -77.0996 C 25.6348 -77.0996 6.83594 -58.3008 6.83594 -35.2051 C 6.83594 -12.1094 25.6348 6.68945 48.7305 6.68945 Z M 56.3477 -18.5547 C 53.7598 -18.5547 52.0996 -20.5078 52.0996 -22.8516 C 52.0996 -25 52.6367 -26.5625 54.4922 -28.5645 L 61.4746 -36.2305 C 63.623 -38.5742 64.8438 -39.9902 64.8438 -41.748 C 64.8438 -43.0176 63.6719 -44.043 62.2559 -44.043 C 60.8887 -44.043 59.9121 -43.1152 59.5215 -41.8457 C 58.9844 -40.2832 57.8613 -39.0137 55.5664 -39.0137 C 53.4668 -39.0137 51.709 -40.4785 51.709 -42.6758 C 51.709 -43.7012 51.8066 -44.5312 52.0508 -45.3125 C 53.3203 -49.707 57.5195 -52.5879 62.5977 -52.5879 C 69.043 -52.5879 73.0957 -48.3398 73.0957 -42.627 C 73.0469 -38.7695 71.3379 -35.5957 68.0176 -31.8359 L 64.3066 -27.6367 L 64.3066 -27.2949 L 69.6289 -27.2949 C 72.4609 -27.2949 74.1211 -25.7324 74.1211 -22.9492 C 74.1211 -20.166 72.4609 -18.5547 69.6289 -18.5547 Z M 39.6973 -17.7734 C 36.9141 -17.7734 35.0098 -19.4824 35.0098 -23.0469 L 35.0098 -24.0723 L 28.4668 -24.0723 C 24.7559 -24.0723 22.8027 -26.1719 22.8027 -29.6387 C 22.8027 -31.8359 23.3398 -33.8867 24.0234 -35.6934 C 25 -38.5742 27.0508 -43.8477 28.8086 -47.4121 C 30.5664 -51.0254 33.1543 -52.3438 37.4023 -52.3438 C 41.9922 -52.3438 44.043 -50.0488 44.043 -45.5566 L 44.043 -32.1289 L 44.4336 -32.1289 C 46.5332 -32.1289 47.8027 -30.4688 47.8027 -28.0762 C 47.8027 -25.6348 46.5332 -24.2188 44.4824 -24.2188 L 44.3848 -24.2188 L 44.3848 -23.0469 C 44.3848 -19.4824 42.4805 -17.7734 39.6973 -17.7734 Z M 35.8398 -31.9824 L 35.8398 -45.2148 L 35.7422 -45.2148 C 34.4727 -41.8457 32.373 -34.9121 31.3965 -32.1777 L 31.3965 -31.9824 Z"/>
  </g>
  <g id="Black-S" transform="matrix(1 0 0 1 2883.89 696)">
   <path d="M 49.5117 7.4707 C 73.0957 7.4707 92.1875 -11.6211 92.1875 -35.2051 C 92.1875 -58.7891 73.0957 -77.8809 49.5117 -77.8809 C 25.9277 -77.8809 6.83594 -58.7891 6.83594 -35.2051 C 6.83594 -11.6211 25.9277 7.4707 49.5117 7.4707 Z M 57.6172 -18.7012 C 54.7363 -18.7012 52.9297 -20.8984 52.9297 -23.4863 C 52.9297 -25.9766 53.5156 -27.7832 55.7617 -30.1758 L 61.4746 -36.1816 C 63.7207 -38.5742 64.5508 -39.6484 64.5508 -41.1133 C 64.5508 -41.8945 63.6719 -42.5781 62.7441 -42.5781 C 61.8652 -42.5781 61.1816 -41.7969 61.0352 -41.0645 C 60.5469 -39.4043 59.2773 -37.9883 56.6895 -37.9883 C 54.4434 -37.9883 52.4414 -39.5508 52.4414 -41.9434 C 52.4414 -43.0664 52.5391 -43.9941 52.832 -44.873 C 54.1504 -49.3164 58.252 -52.0508 63.3301 -52.0508 C 69.6777 -52.0508 73.6328 -47.7051 73.584 -42.0898 C 73.4863 -38.4277 72.1191 -35.2539 68.6523 -31.3965 L 66.2109 -28.7598 L 66.2109 -28.418 L 69.5801 -28.418 C 72.8516 -28.418 74.707 -26.6113 74.707 -23.584 C 74.707 -20.459 72.8516 -18.7012 69.5801 -18.7012 Z M 40.0391 -17.8223 C 36.9141 -17.8223 34.7656 -19.6777 34.7656 -23.6328 L 34.7656 -23.8281 L 29.834 -23.8281 C 25.7324 -23.8281 23.6816 -26.123 23.6816 -29.8828 C 23.6816 -32.3242 24.3164 -34.7168 24.9512 -36.6211 C 25.3418 -38.7695 26.9531 -43.7012 28.125 -46.4355 C 30.0293 -50.3906 32.8125 -51.7578 37.5488 -51.7578 C 42.7246 -51.7578 44.7754 -49.3164 44.7754 -44.2383 L 44.7754 -32.7148 C 46.9727 -32.7148 48.291 -30.8594 48.291 -28.2227 C 48.291 -25.5859 46.9727 -24.0234 44.8242 -24.0234 L 45.2148 -24.0234 L 45.2148 -23.6328 C 45.2148 -19.6777 43.0664 -17.8223 40.0391 -17.8223 Z M 35.8398 -32.5195 L 35.8398 -44.4336 L 35.791 -44.4336 C 35.2051 -41.9434 33.4961 -34.7656 33.0078 -32.7148 L 33.0078 -32.5195 Z"/>
  </g>
  <g id="Ultralight-M" transform="matrix(1 0 0 1 503.656 1126)">
   <path d="M 56.0547 12.207 C 82.0801 12.207 103.369 -9.08203 103.369 -35.1562 C 103.369 -61.1816 82.0801 -82.4707 56.0547 -82.4707 C 30.0293 -82.4707 8.74023 -61.1816 8.74023 -35.1562 C 8.74023 -9.08203 30.0293 12.207 56.0547 12.207 Z M 46.6309 -12.0605 C 45.8496 -12.0605 45.2637 -12.5977 45.2637 -13.3789 L 45.2637 -23.6328 L 24.9023 -23.6328 C 23.3887 -23.6328 22.5098 -24.4141 22.5098 -25.6836 C 22.5098 -26.3184 22.7539 -26.8555 22.998 -27.3438 C 27.1484 -33.9844 38.1836 -50.3418 42.8223 -56.9824 C 43.7012 -58.252 44.5312 -58.6426 45.8008 -58.6426 C 47.1191 -58.6426 47.9492 -57.8125 47.9492 -56.543 L 47.9492 -26.2695 L 54.541 -26.2695 C 55.3223 -26.2695 55.8105 -25.6348 55.8105 -24.9512 C 55.8105 -24.2676 55.3223 -23.6328 54.541 -23.6328 L 47.9492 -23.6328 L 47.9492 -13.3789 C 47.9492 -12.5977 47.5098 -12.0605 46.6309 -12.0605 Z M 62.1094 -12.3535 C 61.1328 -12.3535 60.5469 -12.9883 60.5469 -13.916 C 60.5469 -14.4043 60.6445 -14.6973 61.084 -15.1855 L 79.248 -35.3027 C 83.252 -39.6973 84.7656 -42.9199 84.7656 -46.6797 C 84.7656 -52.3926 80.7129 -56.0547 74.1699 -56.0547 C 67.7734 -56.0547 63.0859 -52.0996 62.6953 -46.6797 C 62.6465 -45.8496 62.2559 -45.3613 61.3281 -45.3613 C 60.4492 -45.3613 59.9609 -45.9961 59.9609 -46.7773 C 59.9609 -47.2656 60.0098 -47.6562 60.1074 -48.1934 C 61.1328 -54.248 66.9922 -58.6426 74.1699 -58.6426 C 82.2754 -58.6426 87.5488 -53.9062 87.5488 -46.582 C 87.5488 -42.334 85.6445 -38.6719 80.2246 -32.7148 L 64.502 -15.2344 L 64.502 -14.9902 L 87.6465 -14.9902 C 88.4766 -14.9902 88.9648 -14.4531 88.9648 -13.623 C 88.9648 -12.9883 88.4766 -12.3535 87.6465 -12.3535 Z M 45.2637 -26.2695 L 45.2637 -55.5176 L 44.9707 -55.5176 C 41.5039 -50.5859 28.8086 -31.7383 25.6348 -26.5137 L 25.6348 -26.2695 Z"/>
  </g>
  <g id="Thin-M" transform="matrix(1 0 0 1 799.806 1126)">
   <path d="M 56.5918 12.7441 C 82.9102 12.7441 104.492 -8.83789 104.492 -35.1562 C 104.492 -61.4746 82.9102 -83.0566 56.5918 -83.0566 C 30.3223 -83.0566 8.74023 -61.4746 8.74023 -35.1562 C 8.74023 -8.83789 30.3223 12.7441 56.5918 12.7441 Z M 62.9883 -12.5488 C 61.7676 -12.5488 61.0352 -13.3301 61.0352 -14.4531 C 61.0352 -15.0879 61.1816 -15.5273 61.7188 -16.1133 L 79.1016 -35.5469 C 82.8125 -39.6484 84.6191 -42.8711 84.6191 -46.582 C 84.6191 -51.9043 80.8105 -55.4199 74.7559 -55.4199 C 68.8965 -55.4199 64.6484 -51.8555 64.0137 -46.7285 C 63.8184 -45.752 63.3301 -45.166 62.2559 -45.166 C 61.1816 -45.166 60.5469 -45.9473 60.5469 -46.9727 C 60.5469 -47.5098 60.5957 -47.9492 60.6934 -48.5352 C 61.8164 -54.4922 67.6758 -58.7891 74.707 -58.7891 C 82.9102 -58.7891 88.2812 -54.0039 88.2812 -46.6309 C 88.2812 -42.0898 86.084 -38.3789 80.957 -32.7148 L 66.3086 -16.3086 L 66.3086 -16.0156 L 87.9395 -16.0156 C 88.916 -16.0156 89.5996 -15.332 89.5996 -14.2578 C 89.5996 -13.3301 88.916 -12.5488 87.9395 -12.5488 Z M 47.168 -12.207 C 46.0938 -12.207 45.3125 -12.9395 45.3125 -14.1602 L 45.3125 -23.3398 L 25.9766 -23.3398 C 24.1211 -23.3398 23.0469 -24.3164 23.0469 -25.9766 C 23.0469 -26.7578 23.3398 -27.4902 23.7305 -28.2227 C 27.7344 -34.8633 37.5977 -49.707 42.1875 -56.5918 C 43.3105 -58.252 44.3359 -58.7891 46.0449 -58.7891 C 47.8027 -58.7891 48.9258 -57.7148 48.9258 -56.0059 L 48.9258 -26.709 L 54.6875 -26.709 C 55.7129 -26.709 56.3477 -25.9766 56.3477 -25.0488 C 56.3477 -24.0234 55.7129 -23.3398 54.6875 -23.3398 L 48.9258 -23.3398 L 48.9258 -14.1602 C 48.9258 -12.9395 48.291 -12.207 47.168 -12.207 Z M 45.3125 -26.709 L 45.3125 -54.7363 L 45.0684 -54.7363 C 41.4062 -49.2188 30.2734 -32.4219 27.0508 -26.9531 L 27.0508 -26.709 Z"/>
  </g>
  <g id="Light-M" transform="matrix(1 0 0 1 1095.42 1126)">
   <path d="M 57.7148 13.7695 C 84.5215 13.7695 106.689 -8.39844 106.689 -35.2051 C 106.689 -62.0117 84.4727 -84.1797 57.666 -84.1797 C 30.8594 -84.1797 8.74023 -62.0117 8.74023 -35.2051 C 8.74023 -8.39844 30.8594 13.7695 57.7148 13.7695 Z M 64.5996 -12.8906 C 62.9883 -12.8906 61.9629 -13.9648 61.9629 -15.5762 C 61.9629 -16.4551 62.2559 -17.1875 62.9395 -17.9688 L 78.8086 -36.0352 C 81.9336 -39.5508 84.2773 -42.7734 84.2773 -46.3867 C 84.2773 -51.0254 81.0059 -54.1016 75.9277 -54.1016 C 71.0938 -54.1016 67.6758 -51.416 66.6016 -46.875 C 66.1133 -45.5078 65.4297 -44.7266 64.1113 -44.7266 C 62.5488 -44.7266 61.6211 -45.8008 61.6211 -47.3633 C 61.6211 -47.9492 61.7188 -48.4863 61.8652 -49.1699 C 63.0859 -54.9316 68.9453 -59.1309 75.6836 -59.1309 C 84.1309 -59.1309 89.5996 -54.2969 89.5996 -46.7773 C 89.5996 -41.6992 86.9629 -37.793 82.4219 -32.666 L 69.873 -18.3594 L 69.873 -18.0664 L 88.3789 -18.0664 C 89.8438 -18.0664 90.8203 -17.1387 90.8203 -15.4785 C 90.8203 -13.9648 89.8438 -12.8906 88.3789 -12.8906 Z M 48.1445 -12.4512 C 46.5332 -12.4512 45.5078 -13.623 45.5078 -15.625 L 45.5078 -22.7051 L 28.0273 -22.7051 C 25.6348 -22.7051 24.1211 -24.1211 24.1211 -26.5137 C 24.1211 -27.6855 24.4629 -28.6621 25.0977 -29.8828 C 28.9062 -36.5723 36.377 -48.4375 40.9668 -55.8105 C 42.4316 -58.2031 43.9941 -59.082 46.5332 -59.082 C 49.0723 -59.082 50.8301 -57.4707 50.8301 -54.9805 L 50.8301 -27.5879 L 55.0293 -27.5879 C 56.543 -27.5879 57.4707 -26.6602 57.4707 -25.1465 C 57.4707 -23.6328 56.543 -22.7051 55.0293 -22.7051 L 50.8301 -22.7051 L 50.8301 -15.625 C 50.8301 -13.623 49.8535 -12.4512 48.1445 -12.4512 Z M 45.5078 -27.5879 L 45.5078 -53.1738 L 45.2148 -53.1738 C 41.1621 -46.582 33.1055 -33.7402 29.8828 -27.8809 L 29.8828 -27.5879 Z"/>
  </g>
  <g id="Regular-M" transform="matrix(1 0 0 1 1391.32 1126)">
   <path d="M 58.5449 14.5508 C 85.7422 14.5508 108.35 -8.00781 108.35 -35.2539 C 108.35 -62.4512 85.6934 -85.0586 58.4961 -85.0586 C 31.25 -85.0586 8.74023 -62.4512 8.74023 -35.2539 C 8.74023 -8.00781 31.2988 14.5508 58.5449 14.5508 Z M 65.8691 -13.1836 C 63.8672 -13.1836 62.6953 -14.4531 62.6953 -16.4551 C 62.6953 -17.4805 63.0371 -18.4082 63.8672 -19.3359 L 78.5645 -36.377 C 81.25 -39.502 84.0332 -42.6758 84.0332 -46.2891 C 84.0332 -50.3906 81.1523 -53.125 76.7578 -53.125 C 72.7539 -53.125 69.9707 -51.0742 68.5547 -46.9727 C 67.8223 -45.3125 66.9922 -44.3848 65.4785 -44.3848 C 63.5742 -44.3848 62.4512 -45.752 62.4512 -47.6562 C 62.4512 -48.291 62.5488 -48.9258 62.7441 -49.6582 C 64.0625 -55.2246 69.9219 -59.375 76.416 -59.375 C 85.0586 -59.375 90.625 -54.4922 90.625 -46.8262 C 90.625 -41.3574 87.5977 -37.3535 83.5449 -32.666 L 72.5586 -19.9707 L 72.5586 -19.6289 L 88.7695 -19.6289 C 90.4785 -19.6289 91.7969 -18.457 91.7969 -16.4062 C 91.7969 -14.4531 90.4785 -13.1836 88.7695 -13.1836 Z M 48.877 -12.6465 C 46.8262 -12.6465 45.6543 -14.1602 45.6543 -16.6992 L 45.6543 -22.2168 L 29.5898 -22.2168 C 26.8066 -22.2168 24.9512 -23.9746 24.9512 -26.9043 C 24.9512 -28.3691 25.293 -29.541 26.123 -31.1523 C 29.7852 -37.8418 35.4492 -47.5098 40.0391 -55.1758 C 41.7969 -58.1543 43.7012 -59.3262 46.875 -59.3262 C 50.0488 -59.3262 52.2461 -57.2754 52.2461 -54.1992 L 52.2461 -28.2715 L 55.3223 -28.2715 C 57.1289 -28.2715 58.3496 -27.1973 58.3496 -25.293 C 58.3496 -23.3398 57.1289 -22.2168 55.3223 -22.2168 L 52.2461 -22.2168 L 52.2461 -16.6992 C 52.2461 -14.1113 51.0742 -12.6465 48.877 -12.6465 Z M 45.6543 -28.2715 L 45.6543 -52.002 L 45.3613 -52.002 C 40.9668 -44.6289 35.2539 -34.7656 32.0312 -28.5645 L 32.0312 -28.2715 Z"/>
  </g>
  <g id="Medium-M" transform="matrix(1 0 0 1 1687.33 1126)">
   <path d="M 59.2285 15.2832 C 86.8652 15.2832 109.717 -7.56836 109.717 -35.2051 C 109.717 -62.8906 86.8164 -85.7422 59.1797 -85.7422 C 31.543 -85.7422 8.74023 -62.8906 8.74023 -35.2051 C 8.74023 -7.56836 31.5918 15.2832 59.2285 15.2832 Z M 66.9922 -13.3301 C 64.7949 -13.3301 63.3789 -14.8438 63.3789 -16.9922 C 63.3789 -18.3594 63.8184 -19.4824 64.9414 -20.752 L 78.5645 -36.4258 C 81.25 -39.502 83.7891 -42.4316 83.7891 -45.752 C 83.7891 -49.4141 81.1523 -51.8555 77.2949 -51.8555 C 73.6816 -51.8555 71.1914 -50 69.9219 -46.3379 C 69.2383 -44.6289 68.3105 -43.5547 66.5039 -43.5547 C 64.4531 -43.5547 63.1348 -45.0195 63.1348 -47.1191 C 63.1348 -47.9004 63.2324 -48.584 63.4277 -49.3652 C 64.8438 -54.9805 70.6055 -58.9844 77.0996 -58.9844 C 85.6445 -58.9844 91.1133 -54.0039 91.1133 -46.4355 C 91.1133 -41.0645 88.2812 -37.0605 84.1797 -32.3242 L 74.3652 -20.9961 L 74.3652 -20.6543 L 88.7695 -20.6543 C 90.8691 -20.6543 92.334 -19.3359 92.334 -17.041 C 92.334 -14.7461 90.8691 -13.3301 88.7695 -13.3301 Z M 49.2188 -12.6953 C 46.875 -12.6953 45.459 -14.3555 45.459 -17.2852 L 45.459 -22.0215 L 30.8594 -22.0215 C 27.6855 -22.0215 25.7324 -23.9258 25.7324 -27.1484 C 25.7324 -28.8086 26.1719 -30.2734 27.002 -32.0312 C 30.2246 -38.1348 35.3027 -47.2656 39.4043 -54.3457 C 41.2598 -57.6172 43.457 -58.8867 47.0215 -58.8867 C 50.7324 -58.8867 52.9785 -56.6895 52.9785 -53.125 L 52.9785 -28.8574 L 55.5664 -28.8574 C 57.5684 -28.8574 58.8379 -27.5391 58.8379 -25.4395 C 58.8379 -23.291 57.5684 -22.0215 55.6152 -22.0215 L 53.0762 -22.0215 L 53.0762 -17.2852 C 53.0762 -14.3066 51.6602 -12.6953 49.2188 -12.6953 Z M 45.6543 -28.8086 L 45.6543 -51.2207 L 45.4102 -51.2207 C 41.5527 -44.4336 36.4258 -34.7656 33.5449 -29.1016 L 33.5449 -28.8086 Z"/>
  </g>
  <g id="Semibold-M" transform="matrix(1 0 0 1 1983.5 1126)">
   <path d="M 59.7656 15.8203 C 87.7441 15.8203 110.791 -7.22656 110.791 -35.2051 C 110.791 -63.1836 87.6953 -86.2793 59.7168 -86.2793 C 31.7383 -86.2793 8.74023 -63.1836 8.74023 -35.2051 C 8.74023 -7.22656 31.7871 15.8203 59.7656 15.8203 Z M 67.8711 -13.4277 C 65.4785 -13.4277 63.9648 -15.1367 63.9648 -17.4316 C 63.9648 -19.043 64.4531 -20.3613 65.7715 -21.8262 L 78.5645 -36.4258 C 81.25 -39.502 83.5938 -42.2363 83.5938 -45.3613 C 83.5938 -48.6328 81.2012 -50.9277 77.6367 -50.9277 C 74.4141 -50.9277 72.168 -49.1699 71.0449 -45.8496 C 70.3125 -44.0918 69.2871 -42.9199 67.334 -42.9199 C 65.1367 -42.9199 63.6719 -44.4336 63.6719 -46.6797 C 63.6719 -47.5586 63.7695 -48.291 63.9648 -49.1211 C 65.4297 -54.7363 71.0938 -58.6914 77.5879 -58.6914 C 86.084 -58.6914 91.5039 -53.6621 91.5039 -46.0938 C 91.4551 -40.8203 88.7695 -36.8164 84.6191 -32.0801 L 75.7324 -21.8262 L 75.7324 -21.4355 L 88.8184 -21.4355 C 91.1621 -21.4355 92.7246 -20.0195 92.7246 -17.4805 C 92.7246 -14.9902 91.1621 -13.4277 88.8184 -13.4277 Z M 49.4629 -12.7441 C 46.9238 -12.7441 45.3125 -14.502 45.3125 -17.7246 L 45.3125 -21.8262 L 31.8359 -21.8262 C 28.418 -21.8262 26.3184 -23.877 26.3184 -27.2949 C 26.3184 -29.1992 26.8066 -30.8594 27.6367 -32.7148 C 30.5176 -38.3789 35.1562 -47.0703 38.916 -53.7109 C 40.8691 -57.2266 43.2617 -58.5449 47.168 -58.5449 C 51.2695 -58.5449 53.5645 -56.25 53.5645 -52.2949 L 53.5645 -29.2969 L 55.8105 -29.2969 C 57.9102 -29.2969 59.2285 -27.832 59.2285 -25.5371 C 59.2285 -23.2422 57.9102 -21.875 55.8105 -21.875 L 53.7109 -21.875 L 53.7109 -17.7246 C 53.7109 -14.4531 52.1484 -12.7441 49.4629 -12.7441 Z M 45.6543 -29.1992 L 45.6543 -50.6348 L 45.4102 -50.6348 C 41.9922 -44.2871 37.3047 -34.7656 34.7168 -29.4922 L 34.7168 -29.1992 Z"/>
  </g>
  <g id="Bold-M" transform="matrix(1 0 0 1 2279.5 1126)">
   <path d="M 60.4492 16.5039 C 88.8672 16.5039 112.207 -6.78711 112.207 -35.2051 C 112.207 -63.623 88.8672 -86.9629 60.4492 -86.9629 C 32.0312 -86.9629 8.74023 -63.623 8.74023 -35.2051 C 8.74023 -6.78711 32.0801 16.5039 60.4492 16.5039 Z M 69.043 -13.5742 C 66.3574 -13.5742 64.6973 -15.5273 64.6973 -18.0176 C 64.6973 -19.9219 65.2344 -21.4355 66.8457 -23.2422 L 78.5156 -36.4258 C 81.25 -39.502 83.3496 -41.9434 83.3496 -44.873 C 83.3496 -47.6562 81.2012 -49.6582 78.1738 -49.6582 C 75.3906 -49.6582 73.3887 -48.0469 72.4609 -45.2637 C 71.7773 -43.4082 70.6055 -42.0898 68.3594 -42.0898 C 66.0156 -42.0898 64.3066 -43.7012 64.3066 -46.1426 C 64.3066 -47.1191 64.4531 -47.9492 64.6973 -48.8281 C 66.1621 -54.4434 71.7773 -58.3008 78.2715 -58.3008 C 86.6699 -58.3008 92.041 -53.1738 91.9922 -45.7031 C 91.9922 -40.5273 89.4043 -36.4746 85.2539 -31.7383 L 77.5391 -22.9004 L 77.5391 -22.5098 L 88.8184 -22.5098 C 91.5527 -22.5098 93.2617 -20.8984 93.2617 -18.0664 C 93.2617 -15.2832 91.5527 -13.5742 88.8184 -13.5742 Z M 49.8047 -12.793 C 46.9727 -12.793 45.166 -14.6973 45.166 -18.3105 L 45.166 -21.582 L 33.1055 -21.582 C 29.2969 -21.582 27.1484 -23.8281 27.1484 -27.5391 C 27.1484 -29.6875 27.6367 -31.6406 28.5156 -33.5938 C 30.9082 -38.7207 34.9609 -46.8262 38.2812 -52.8809 C 40.332 -56.6895 42.9688 -58.1543 47.3145 -58.1543 C 51.9043 -58.1543 54.3457 -55.6641 54.3457 -51.1719 L 54.3457 -29.834 L 56.0547 -29.834 C 58.3496 -29.834 59.7168 -28.2227 59.7168 -25.6836 C 59.7168 -23.1445 58.3496 -21.6797 56.1035 -21.6797 L 54.541 -21.6797 L 54.541 -18.3105 C 54.541 -14.6484 52.7344 -12.793 49.8047 -12.793 Z M 45.7031 -29.7363 L 45.7031 -49.9023 L 45.459 -49.9023 C 42.5781 -44.1406 38.4277 -34.7656 36.2793 -30.0293 L 36.2793 -29.7363 Z"/>
  </g>
  <g id="Heavy-M" transform="matrix(1 0 0 1 2575.19 1126)">
   <path d="M 61.4746 17.5781 C 90.5273 17.5781 114.258 -6.15234 114.258 -35.2051 C 114.258 -64.2578 90.5273 -87.9883 61.4746 -87.9883 C 32.4219 -87.9883 8.74023 -64.2578 8.74023 -35.2051 C 8.74023 -6.15234 32.4707 17.5781 61.4746 17.5781 Z M 70.752 -13.7695 C 67.6758 -13.7695 65.7715 -16.0645 65.7715 -18.8477 C 65.7715 -21.2402 66.3574 -23.0469 68.457 -25.293 L 78.5156 -36.4746 C 81.25 -39.502 83.0078 -41.5527 83.0078 -44.0918 C 83.0078 -46.2402 81.25 -47.8027 78.9062 -47.8027 C 76.7578 -47.8027 75.2441 -46.4355 74.5117 -44.3359 C 73.8281 -42.3828 72.5098 -40.918 69.873 -40.918 C 67.334 -40.918 65.332 -42.6758 65.332 -45.3125 C 65.332 -46.4844 65.4297 -47.4609 65.7227 -48.4375 C 67.2852 -54.0527 72.7539 -57.7637 79.248 -57.7637 C 87.5488 -57.7637 92.7734 -52.4414 92.7246 -45.1172 C 92.6758 -40.0391 90.3809 -36.0352 86.1816 -31.25 L 80.2246 -24.4629 L 80.2246 -24.0234 L 88.8672 -24.0234 C 92.0898 -24.0234 94.0918 -22.168 94.0918 -18.9453 C 94.0918 -15.7227 92.0898 -13.7695 88.8672 -13.7695 Z M 50.3418 -12.8906 C 47.0703 -12.8906 44.873 -14.9414 44.873 -19.1406 L 44.873 -21.2402 L 35.0098 -21.2402 C 30.6152 -21.2402 28.2715 -23.7305 28.2715 -27.8809 C 28.2715 -30.3711 28.9062 -32.7148 29.7852 -34.9121 C 31.4941 -39.1602 34.7168 -46.4844 37.4023 -51.6602 C 39.5996 -55.957 42.5781 -57.5195 47.5586 -57.5195 C 52.9297 -57.5195 55.4199 -54.7852 55.4199 -49.5605 L 55.4199 -30.6641 L 56.4453 -30.6641 C 58.9355 -30.6641 60.4492 -28.7598 60.4492 -25.9277 C 60.4492 -23.0469 58.9355 -21.3867 56.4941 -21.3867 L 55.7617 -21.3867 L 55.7617 -19.1406 C 55.7617 -14.9414 53.6133 -12.8906 50.3418 -12.8906 Z M 45.7031 -30.5176 L 45.7031 -48.7793 L 45.5566 -48.7793 C 43.4082 -43.8477 40.1367 -34.8145 38.4766 -30.7617 L 38.4766 -30.5176 Z"/>
  </g>
  <g id="Black-M" transform="matrix(1 0 0 1 2871 1126)">
   <path d="M 62.4023 18.457 C 91.9922 18.457 116.064 -5.61523 116.064 -35.2051 C 116.064 -64.7949 91.9922 -88.8672 62.4023 -88.8672 C 32.8125 -88.8672 8.74023 -64.7949 8.74023 -35.2051 C 8.74023 -5.61523 32.8125 18.457 62.4023 18.457 Z M 72.2168 -13.9648 C 68.8477 -13.9648 66.6992 -16.5527 66.6992 -19.6289 C 66.6992 -22.4121 67.3828 -24.4629 69.873 -27.1484 L 78.4668 -36.5234 C 81.2012 -39.502 82.666 -41.2109 82.666 -43.4082 C 82.666 -44.9219 81.25 -46.1426 79.5898 -46.1426 C 77.9785 -46.1426 76.8555 -45.0195 76.3672 -43.5059 C 75.6836 -41.4551 74.1699 -39.8438 71.2402 -39.8438 C 68.457 -39.8438 66.2109 -41.6992 66.2109 -44.5801 C 66.2109 -45.8984 66.3086 -46.9727 66.6504 -48.0469 C 68.2617 -53.6621 73.6328 -57.2754 80.0781 -57.2754 C 88.3301 -57.2754 93.457 -51.8555 93.4082 -44.5312 C 93.3594 -39.6484 91.2598 -35.5957 87.0117 -30.8105 L 82.5684 -25.8301 L 82.5684 -25.3906 L 88.8672 -25.3906 C 92.5781 -25.3906 94.7754 -23.3398 94.7754 -19.7266 C 94.7754 -16.1133 92.5781 -13.9648 88.8672 -13.9648 Z M 50.7812 -12.9395 C 47.1191 -12.9395 44.6777 -15.1855 44.6777 -19.873 L 44.6777 -20.8984 L 36.6699 -20.8984 C 31.8359 -20.8984 29.2969 -23.6816 29.2969 -28.1738 C 29.2969 -31.0059 30.0293 -33.7402 30.8594 -36.0352 C 32.0312 -39.5996 34.4727 -46.1426 36.5723 -50.5371 C 38.916 -55.2734 42.2363 -56.9336 47.7539 -56.9336 C 53.8086 -56.9336 56.3965 -54.0039 56.3965 -48.0957 L 56.3965 -31.3965 L 56.7871 -31.3965 C 59.5215 -31.3965 61.1328 -29.248 61.1328 -26.123 C 61.1328 -22.998 59.5215 -21.0938 56.8848 -21.0938 L 56.8359 -21.0938 L 56.8359 -19.873 C 56.8359 -15.1855 54.3945 -12.9395 50.7812 -12.9395 Z M 45.752 -31.2012 L 45.752 -47.7539 L 45.6055 -47.7539 C 44.1406 -43.6035 41.6016 -34.8145 40.4785 -31.4453 L 40.4785 -31.2012 Z"/>
  </g>
  <g id="Ultralight-L" transform="matrix(1 0 0 1 487.641 1556)">
   <path d="M 72.0703 25.7324 C 105.566 25.7324 132.91 -1.61133 132.91 -35.1074 C 132.91 -68.5547 105.566 -95.8984 72.0703 -95.8984 C 38.623 -95.8984 11.2793 -68.5547 11.2793 -35.1074 C 11.2793 -1.61133 38.623 25.7324 72.0703 25.7324 Z M 59.9609 -5.27344 C 59.082 -5.27344 58.3496 -5.9082 58.3496 -6.73828 L 58.3496 -20.4102 L 31.6895 -20.4102 C 29.834 -20.4102 28.8086 -21.3379 28.8086 -22.8027 C 28.8086 -23.5352 29.1016 -24.1699 29.3945 -24.6582 C 34.7168 -33.252 49.5605 -54.9805 55.5176 -63.4766 C 56.5918 -64.9414 57.5195 -65.332 58.9844 -65.332 C 60.498 -65.332 61.4746 -64.4531 61.4746 -62.9883 L 61.4746 -23.4375 L 70.2637 -23.4375 C 71.1914 -23.4375 71.7285 -22.7051 71.7285 -21.9727 C 71.7285 -21.1426 71.1914 -20.4102 70.2637 -20.4102 L 61.4746 -20.4102 L 61.4746 -6.73828 C 61.4746 -5.9082 60.9375 -5.27344 59.9609 -5.27344 Z M 79.7852 -5.66406 C 78.6621 -5.66406 77.9297 -6.39648 77.9297 -7.4707 C 77.9297 -8.05664 78.0273 -8.34961 78.5645 -8.93555 L 102.295 -35.2051 C 107.617 -41.0156 109.473 -45.2148 109.473 -50.0488 C 109.473 -57.5684 104.102 -62.4023 95.459 -62.4023 C 86.9629 -62.4023 80.7129 -57.1289 80.3711 -49.9512 C 80.3711 -49.0234 79.834 -48.4375 78.7109 -48.4375 C 77.6855 -48.4375 77.1484 -49.1211 77.1484 -50.0488 C 77.1484 -50.6836 77.1973 -51.123 77.2949 -51.8066 C 78.6133 -59.668 86.1816 -65.332 95.5078 -65.332 C 105.908 -65.332 112.695 -59.2285 112.695 -49.8535 C 112.695 -44.4824 110.352 -39.7461 103.174 -31.9824 L 82.4219 -8.98438 L 82.4219 -8.64258 L 113.037 -8.64258 C 113.965 -8.64258 114.502 -8.00781 114.502 -7.12891 C 114.502 -6.39648 113.965 -5.66406 113.037 -5.66406 Z M 58.3496 -23.4375 L 58.3496 -61.7676 L 58.0078 -61.7676 C 53.6133 -55.6152 36.5234 -30.4199 32.4219 -23.7793 L 32.4219 -23.4375 Z"/>
  </g>
  <g id="Thin-L" transform="matrix(1 0 0 1 783.717 1556)">
   <path d="M 72.7051 26.3184 C 106.494 26.3184 134.131 -1.36719 134.131 -35.1074 C 134.131 -68.8965 106.445 -96.582 72.7051 -96.582 C 38.916 -96.582 11.2793 -68.8965 11.2793 -35.1074 C 11.2793 -1.36719 38.916 26.3184 72.7051 26.3184 Z M 80.7617 -5.85938 C 79.3457 -5.85938 78.4668 -6.73828 78.4668 -8.10547 C 78.4668 -8.78906 78.6621 -9.27734 79.248 -10.0098 L 102.148 -35.498 C 107.08 -40.9668 109.277 -45.1172 109.277 -49.9512 C 109.277 -57.0312 104.199 -61.6699 96.0938 -61.6699 C 88.2324 -61.6699 82.4219 -56.8359 81.8359 -50.0488 C 81.6406 -48.877 81.0547 -48.1445 79.7363 -48.1445 C 78.5156 -48.1445 77.7832 -49.0723 77.7832 -50.2441 C 77.7832 -50.9277 77.832 -51.4648 77.9297 -52.1973 C 79.3457 -59.9121 86.9141 -65.5273 96.0938 -65.5273 C 106.592 -65.5273 113.477 -59.375 113.477 -49.9512 C 113.477 -44.2383 110.84 -39.4531 104.004 -31.9824 L 84.4238 -10.1562 L 84.4238 -9.81445 L 113.281 -9.81445 C 114.453 -9.81445 115.186 -9.0332 115.186 -7.8125 C 115.186 -6.73828 114.453 -5.85938 113.281 -5.85938 Z M 60.5469 -5.41992 C 59.3262 -5.41992 58.4473 -6.29883 58.4473 -7.56836 L 58.4473 -20.0684 L 32.8613 -20.0684 C 30.6641 -20.0684 29.4434 -21.2402 29.4434 -23.1445 C 29.4434 -24.0234 29.7852 -24.8535 30.1758 -25.6348 C 35.4004 -34.2285 48.877 -54.2969 54.7852 -63.0371 C 56.1035 -64.9414 57.3242 -65.5273 59.2285 -65.5273 C 61.2793 -65.5273 62.5488 -64.3066 62.5488 -62.4023 L 62.5488 -23.9746 L 70.459 -23.9746 C 71.6309 -23.9746 72.3633 -23.0957 72.3633 -22.0215 C 72.3633 -20.8984 71.6309 -20.0684 70.459 -20.0684 L 62.5488 -20.0684 L 62.5488 -7.56836 C 62.5488 -6.25 61.8164 -5.41992 60.5469 -5.41992 Z M 58.4473 -23.9746 L 58.4473 -60.8887 L 58.1055 -60.8887 C 53.4668 -54.1016 38.1348 -31.1523 34.0332 -24.2676 L 34.0332 -23.9746 Z"/>
  </g>
  <g id="Light-L" transform="matrix(1 0 0 1 1079.21 1556)">
   <path d="M 73.9258 27.4902 C 108.301 27.4902 136.572 -0.830078 136.572 -35.1562 C 136.572 -69.5312 108.252 -97.8516 73.877 -97.8516 C 39.5508 -97.8516 11.2793 -69.5312 11.2793 -35.1562 C 11.2793 -0.830078 39.5508 27.4902 73.9258 27.4902 Z M 82.5684 -6.25 C 80.6641 -6.25 79.4922 -7.4707 79.4922 -9.32617 C 79.4922 -10.3027 79.834 -11.1328 80.6152 -12.0605 L 101.807 -36.0352 C 106.104 -40.8691 108.887 -45.0195 108.887 -49.7559 C 108.887 -56.0547 104.443 -60.2051 97.4121 -60.2051 C 90.6738 -60.2051 85.8398 -56.3477 84.668 -50.1953 C 84.1797 -48.584 83.3984 -47.6562 81.7871 -47.6562 C 80.0293 -47.6562 79.0039 -48.9258 79.0039 -50.6836 C 79.0039 -51.416 79.1016 -52.0996 79.248 -52.8809 C 80.8105 -60.4004 88.3789 -65.8691 97.168 -65.8691 C 107.959 -65.8691 114.941 -59.668 114.941 -50.0488 C 114.941 -43.75 111.768 -38.8184 105.664 -31.9336 L 88.4277 -12.4512 L 88.4277 -12.1094 L 113.818 -12.1094 C 115.479 -12.1094 116.602 -10.9863 116.602 -9.17969 C 116.602 -7.4707 115.479 -6.25 113.818 -6.25 Z M 61.6211 -5.71289 C 59.8145 -5.71289 58.6426 -7.03125 58.6426 -9.17969 L 58.6426 -19.3848 L 35.1562 -19.3848 C 32.373 -19.3848 30.6152 -20.9961 30.6152 -23.7305 C 30.6152 -25.0488 31.0059 -26.1719 31.6895 -27.5391 C 36.7188 -36.1328 47.5098 -52.8809 53.418 -62.1582 C 55.1758 -64.8926 56.9336 -65.8691 59.7656 -65.8691 C 62.6953 -65.8691 64.6484 -64.0625 64.6484 -61.2305 L 64.6484 -24.9512 L 70.8496 -24.9512 C 72.5586 -24.9512 73.6328 -23.8281 73.6328 -22.168 C 73.6328 -20.459 72.5586 -19.3848 70.8496 -19.3848 L 64.6484 -19.3848 L 64.6484 -9.17969 C 64.6484 -6.98242 63.5742 -5.71289 61.6211 -5.71289 Z M 58.6426 -24.9512 L 58.6426 -59.1309 L 58.3008 -59.1309 C 53.2227 -51.1719 41.3574 -32.666 37.207 -25.293 L 37.207 -24.9512 Z"/>
  </g>
  <g id="Regular-L" transform="matrix(1 0 0 1 1374.99 1556)">
   <path d="M 74.8535 28.3691 C 109.668 28.3691 138.428 -0.390625 138.428 -35.2051 C 138.428 -70.0195 109.619 -98.7793 74.8047 -98.7793 C 39.9902 -98.7793 11.2793 -70.0195 11.2793 -35.2051 C 11.2793 -0.390625 40.0391 28.3691 74.8535 28.3691 Z M 83.9844 -6.54297 C 81.6895 -6.54297 80.2734 -8.05664 80.2734 -10.3027 C 80.2734 -11.4746 80.7129 -12.5 81.6406 -13.623 L 101.562 -36.4258 C 105.371 -40.7715 108.643 -44.9219 108.643 -49.6094 C 108.643 -55.3223 104.59 -59.1309 98.3398 -59.1309 C 92.5293 -59.1309 88.4277 -55.957 86.8652 -50.293 C 86.1328 -48.3887 85.1562 -47.3145 83.3496 -47.3145 C 81.2012 -47.3145 79.9316 -48.877 79.9316 -51.0254 C 79.9316 -51.8066 80.0293 -52.5391 80.2246 -53.418 C 81.8848 -60.791 89.4531 -66.1621 97.998 -66.1621 C 108.984 -66.1621 116.064 -59.9121 116.064 -50.1465 C 116.064 -43.4082 112.5 -38.3301 106.885 -31.9336 L 91.4062 -14.209 L 91.4062 -13.8184 L 114.258 -13.8184 C 116.211 -13.8184 117.676 -12.5 117.676 -10.2051 C 117.676 -8.05664 116.211 -6.54297 114.258 -6.54297 Z M 62.4512 -5.95703 C 60.1562 -5.95703 58.7891 -7.61719 58.7891 -10.4492 L 58.7891 -18.8477 L 36.9141 -18.8477 C 33.6426 -18.8477 31.543 -20.8496 31.543 -24.1699 C 31.543 -25.7812 31.9336 -27.1484 32.8613 -28.9551 C 37.7441 -37.5488 46.4844 -51.8555 52.3926 -61.4746 C 54.4434 -64.8438 56.6406 -66.1133 60.2051 -66.1133 C 63.7695 -66.1133 66.2598 -63.8184 66.2598 -60.3516 L 66.2598 -25.7324 L 71.1426 -25.7324 C 73.2422 -25.7324 74.5605 -24.4141 74.5605 -22.3145 C 74.5605 -20.166 73.2422 -18.8477 71.1426 -18.8477 L 66.2598 -18.8477 L 66.2598 -10.4492 C 66.2598 -7.56836 64.9414 -5.95703 62.4512 -5.95703 Z M 58.7891 -25.7324 L 58.7891 -57.8125 L 58.3984 -57.8125 C 53.0273 -48.9746 43.75 -33.7891 39.5996 -26.0742 L 39.5996 -25.7324 Z"/>
  </g>
  <g id="Medium-L" transform="matrix(1 0 0 1 1670.9 1556)">
   <path d="M 75.6348 29.1992 C 110.938 29.1992 140.039 0.0488281 140.039 -35.2051 C 140.039 -70.459 110.889 -99.6094 75.5859 -99.6094 C 40.332 -99.6094 11.2793 -70.459 11.2793 -35.2051 C 11.2793 0.0488281 40.3809 29.1992 75.6348 29.1992 Z M 85.2539 -6.73828 C 82.7148 -6.73828 81.1035 -8.49609 81.1035 -10.9863 C 81.1035 -12.5 81.5918 -13.7695 82.8125 -15.1855 L 101.514 -36.5234 C 105.225 -40.7715 108.35 -44.6777 108.35 -49.0723 C 108.35 -54.2969 104.639 -57.7637 98.9746 -57.7637 C 93.7012 -57.7637 89.9902 -54.8828 88.5254 -49.7559 C 87.7441 -47.7051 86.6699 -46.4844 84.5703 -46.4844 C 82.2266 -46.4844 80.7129 -48.1934 80.7129 -50.5859 C 80.7129 -51.5137 80.8105 -52.3438 81.0547 -53.2715 C 82.7637 -60.5957 90.2344 -65.8691 98.7793 -65.8691 C 109.717 -65.8691 116.748 -59.5215 116.748 -49.8047 C 116.748 -43.0664 113.232 -37.9395 107.666 -31.5918 L 93.6035 -15.5273 L 93.6035 -15.0879 L 114.307 -15.0879 C 116.699 -15.0879 118.359 -13.5742 118.359 -10.9375 C 118.359 -8.39844 116.699 -6.73828 114.307 -6.73828 Z M 62.9395 -6.05469 C 60.3027 -6.05469 58.6426 -7.91016 58.6426 -11.1816 L 58.6426 -18.5547 L 38.3789 -18.5547 C 34.7168 -18.5547 32.4219 -20.752 32.4219 -24.4629 C 32.4219 -26.3672 32.9102 -28.0273 33.8379 -29.9805 C 38.2812 -38.0859 46.1426 -51.416 51.6602 -60.5957 C 53.8574 -64.3555 56.3477 -65.7715 60.4004 -65.7715 C 64.5996 -65.7715 67.2363 -63.2812 67.2363 -59.2285 L 67.2363 -26.3672 L 71.4355 -26.3672 C 73.7305 -26.3672 75.1953 -24.8535 75.1953 -22.4609 C 75.1953 -20.0195 73.7305 -18.5547 71.4844 -18.5547 L 67.2852 -18.5547 L 67.2852 -11.1816 C 67.2852 -7.86133 65.7227 -6.05469 62.9395 -6.05469 Z M 58.8379 -26.3184 L 58.8379 -56.8848 L 58.4961 -56.8848 C 53.5156 -48.3887 45.2148 -33.9844 41.4062 -26.709 L 41.4062 -26.3184 Z"/>
  </g>
  <g id="Semibold-L" transform="matrix(1 0 0 1 1967 1556)">
   <path d="M 76.2695 29.7852 C 111.914 29.7852 141.26 0.439453 141.26 -35.2051 C 141.26 -70.8496 111.865 -100.244 76.2207 -100.244 C 40.5762 -100.244 11.2793 -70.8496 11.2793 -35.2051 C 11.2793 0.439453 40.625 29.7852 76.2695 29.7852 Z M 86.2793 -6.88477 C 83.4473 -6.88477 81.7383 -8.83789 81.7383 -11.5234 C 81.7383 -13.2812 82.2754 -14.7461 83.7402 -16.3574 L 101.465 -36.6211 C 105.127 -40.7715 108.154 -44.4336 108.154 -48.7305 C 108.154 -53.5156 104.688 -56.7383 99.4629 -56.7383 C 94.6289 -56.7383 91.2109 -54.0527 89.7949 -49.3164 C 89.0137 -47.2168 87.8418 -45.8496 85.5469 -45.8496 C 83.0078 -45.8496 81.2988 -47.6562 81.2988 -50.2441 C 81.2988 -51.2695 81.4453 -52.1484 81.6895 -53.125 C 83.4473 -60.4492 90.8691 -65.625 99.3164 -65.625 C 110.254 -65.625 117.285 -59.2285 117.285 -49.5117 C 117.236 -42.8223 113.818 -37.6465 108.301 -31.3965 L 95.2637 -16.5039 L 95.2637 -16.0645 L 114.404 -16.0645 C 117.09 -16.0645 118.848 -14.4043 118.848 -11.5234 C 118.848 -8.69141 117.09 -6.88477 114.404 -6.88477 Z M 63.2812 -6.10352 C 60.3516 -6.10352 58.5449 -8.10547 58.5449 -11.7676 L 58.5449 -18.3105 L 39.502 -18.3105 C 35.498 -18.3105 33.1055 -20.7031 33.1055 -24.6582 C 33.1055 -26.8066 33.6426 -28.7109 34.6191 -30.8105 C 38.6719 -38.5254 45.8984 -51.123 51.0742 -59.9121 C 53.3691 -64.0137 56.1035 -65.5273 60.5957 -65.5273 C 65.2344 -65.5273 67.9688 -62.8418 67.9688 -58.3008 L 67.9688 -26.8555 L 71.6797 -26.8555 C 74.1211 -26.8555 75.6836 -25.1953 75.6836 -22.5586 C 75.6836 -19.9219 74.1211 -18.3594 71.7285 -18.3594 L 68.1152 -18.3594 L 68.1152 -11.7676 C 68.1152 -8.05664 66.3086 -6.10352 63.2812 -6.10352 Z M 58.8379 -26.8066 L 58.8379 -56.1523 L 58.5449 -56.1523 C 53.8574 -47.9492 46.3379 -34.1797 42.8223 -27.1484 L 42.8223 -26.8066 Z"/>
  </g>
  <g id="Bold-L" transform="matrix(1 0 0 1 2262.9 1556)">
   <path d="M 77.0996 30.6152 C 113.184 30.6152 142.92 0.878906 142.92 -35.2051 C 142.92 -71.3379 113.135 -101.025 77.0508 -101.025 C 40.918 -101.025 11.2793 -71.3379 11.2793 -35.2051 C 11.2793 0.878906 40.9668 30.6152 77.0996 30.6152 Z M 87.5977 -7.08008 C 84.4727 -7.08008 82.5195 -9.27734 82.5195 -12.207 C 82.5195 -14.3066 83.1543 -15.9668 84.9121 -17.9688 L 101.416 -36.6699 C 104.98 -40.7715 107.861 -44.1895 107.861 -48.1934 C 107.861 -52.4414 104.736 -55.3711 100.098 -55.3711 C 95.8496 -55.3711 92.8223 -52.9785 91.5039 -48.7793 C 90.6738 -46.5332 89.3555 -45.0195 86.7676 -45.0195 C 84.0332 -45.0195 82.0801 -46.9727 82.0801 -49.8047 C 82.0801 -50.9277 82.2266 -51.9043 82.5195 -52.9785 C 84.3262 -60.2539 91.6992 -65.332 100.098 -65.332 C 110.986 -65.332 117.969 -58.7891 117.92 -49.1699 C 117.92 -42.4316 114.551 -37.3047 109.082 -31.0547 L 97.5098 -17.8223 L 97.5098 -17.334 L 114.502 -17.334 C 117.578 -17.334 119.58 -15.4785 119.58 -12.2559 C 119.58 -9.08203 117.578 -7.08008 114.502 -7.08008 Z M 63.7207 -6.20117 C 60.498 -6.20117 58.3984 -8.39844 58.3984 -12.5 L 58.3984 -17.9688 L 41.0156 -17.9688 C 36.5723 -17.9688 33.9844 -20.6055 33.9844 -24.9512 C 33.9844 -27.3926 34.5703 -29.5898 35.6445 -31.8848 C 39.2578 -39.0625 45.5078 -50.6836 50.293 -59.0332 C 52.7832 -63.4766 55.8105 -65.1855 60.791 -65.1855 C 66.0645 -65.1855 68.9453 -62.2559 68.9453 -57.1289 L 68.9453 -27.5391 L 71.9727 -27.5391 C 74.6582 -27.5391 76.3184 -25.6348 76.3184 -22.7539 C 76.3184 -19.8242 74.6582 -18.0664 72.0215 -18.0664 L 69.1406 -18.0664 L 69.1406 -12.5 C 69.1406 -8.34961 67.1387 -6.20117 63.7207 -6.20117 Z M 58.8867 -27.4414 L 58.8867 -55.2246 L 58.5938 -55.2246 C 54.3457 -47.4121 47.8516 -34.375 44.6777 -27.7832 L 44.6777 -27.4414 Z"/>
  </g>
  <g id="Heavy-L" transform="matrix(1 0 0 1 2558.42 1556)">
   <path d="M 78.2715 31.7871 C 115.039 31.7871 145.264 1.61133 145.264 -35.2051 C 145.264 -72.0215 115.039 -102.197 78.2227 -102.197 C 41.4551 -102.197 11.2793 -72.0215 11.2793 -35.2051 C 11.2793 1.61133 41.4551 31.7871 78.2715 31.7871 Z M 89.502 -7.32422 C 85.9375 -7.32422 83.7402 -9.91211 83.7402 -13.2324 C 83.7402 -15.8203 84.4238 -17.8223 86.6211 -20.2148 L 101.318 -36.8164 C 104.785 -40.7227 107.471 -43.7988 107.471 -47.4609 C 107.471 -50.9277 104.785 -53.418 101.074 -53.418 C 97.6074 -53.418 95.166 -51.416 93.9941 -47.9492 C 93.1152 -45.5566 91.5527 -43.8477 88.5742 -43.8477 C 85.498 -43.8477 83.252 -45.9473 83.252 -49.1211 C 83.252 -50.4395 83.3984 -51.5625 83.6914 -52.7344 C 85.6445 -59.9609 92.8711 -64.9414 101.221 -64.9414 C 112.061 -64.9414 118.945 -58.252 118.896 -48.6328 C 118.848 -41.9434 115.625 -36.7188 110.254 -30.6152 L 100.732 -19.6777 L 100.732 -19.1895 L 114.648 -19.1895 C 118.262 -19.1895 120.557 -17.041 120.557 -13.3301 C 120.557 -9.61914 118.262 -7.32422 114.648 -7.32422 Z M 64.4043 -6.29883 C 60.6445 -6.29883 58.2031 -8.78906 58.2031 -13.5742 L 58.2031 -17.5293 L 43.1641 -17.5293 C 38.1348 -17.5293 35.3027 -20.5078 35.3027 -25.3906 C 35.3027 -28.2227 35.9863 -30.8594 37.0605 -33.4473 C 40.0391 -39.8438 45.0195 -50.0977 49.2188 -57.7148 C 51.8555 -62.793 55.3711 -64.6484 61.1328 -64.6484 C 67.2363 -64.6484 70.4102 -61.377 70.4102 -55.4199 L 70.4102 -28.4668 L 72.4121 -28.4668 C 75.3906 -28.4668 77.2461 -26.3184 77.2461 -22.998 C 77.2461 -19.6289 75.3906 -17.627 72.4609 -17.627 L 70.7031 -17.627 L 70.7031 -13.5742 C 70.7031 -8.74023 68.2617 -6.29883 64.4043 -6.29883 Z M 58.9844 -28.3203 L 58.9844 -53.8574 L 58.6914 -53.8574 C 55.0781 -46.582 50.0488 -34.668 47.3145 -28.7109 L 47.3145 -28.3203 Z"/>
  </g>
  <g id="Black-L" transform="matrix(1 0 0 1 2854.08 1556)">
   <path d="M 79.2969 32.8613 C 116.748 32.8613 147.363 2.19727 147.363 -35.2051 C 147.363 -72.6074 116.699 -103.271 79.2969 -103.271 C 41.8945 -103.271 11.2793 -72.6074 11.2793 -35.2051 C 11.2793 2.19727 41.8945 32.8613 79.2969 32.8613 Z M 91.2109 -7.56836 C 87.2559 -7.56836 84.7656 -10.498 84.7656 -14.1602 C 84.7656 -17.1387 85.5957 -19.4336 88.1836 -22.2656 L 101.221 -36.9629 C 104.59 -40.7227 107.129 -43.457 107.129 -46.8262 C 107.129 -49.6094 104.883 -51.6602 101.904 -51.6602 C 99.1699 -51.6602 97.2656 -50.0488 96.1914 -47.2656 C 95.2637 -44.6777 93.5059 -42.7734 90.1855 -42.7734 C 86.8164 -42.7734 84.2773 -45.0684 84.2773 -48.5352 C 84.2773 -50.0488 84.4238 -51.2695 84.7656 -52.5391 C 86.8164 -59.7168 93.8965 -64.5508 102.197 -64.5508 C 113.037 -64.5508 119.824 -57.7148 119.775 -48.1445 C 119.727 -41.5039 116.553 -36.2305 111.328 -30.1758 L 103.613 -21.3867 L 103.613 -20.8496 L 114.746 -20.8496 C 118.896 -20.8496 121.484 -18.457 121.484 -14.3066 C 121.484 -10.0586 118.896 -7.56836 114.746 -7.56836 Z M 65.0391 -6.44531 C 60.791 -6.44531 58.0566 -9.13086 58.0566 -14.5508 L 58.0566 -17.0898 L 45.1172 -17.0898 C 39.502 -17.0898 36.4258 -20.3613 36.4258 -25.7812 C 36.4258 -29.0039 37.207 -31.9824 38.3789 -34.8145 C 40.7715 -40.5762 44.5801 -49.5605 48.1934 -56.543 C 51.0742 -62.1582 54.9805 -64.209 61.4258 -64.209 C 68.3105 -64.209 71.6797 -60.6445 71.6797 -53.9062 L 71.6797 -29.3457 L 72.8027 -29.3457 C 76.0742 -29.3457 78.0762 -26.9043 78.0762 -23.1934 C 78.0762 -19.4824 76.0742 -17.2852 72.9004 -17.2852 L 72.0703 -17.2852 L 72.0703 -14.5508 C 72.0703 -9.13086 69.3359 -6.44531 65.0391 -6.44531 Z M 59.0332 -29.1504 L 59.0332 -52.6367 L 58.7891 -52.6367 C 55.7129 -45.8496 51.9531 -34.9609 49.707 -29.4922 L 49.707 -29.1504 Z"/>
  </g>
 </g>
</svg>
