<?xml version="1.0" encoding="UTF-8"?>
<!--Generator: Apple Native CoreSVG 123-->
<!DOCTYPE svg
PUBLIC "-//W3C//DTD SVG 1.1//EN"
       "http://www.w3.org/Graphics/SVG/1.1/DTD/svg11.dtd">
<svg version="1.1" xmlns="http://www.w3.org/2000/svg" xmlns:xlink="http://www.w3.org/1999/xlink" width="3300" height="2200">
 <!--glyph: "uni1006B3.medium", point size: 100.000000, font version: "Version 15.0d4e20", template writer version: "2"-->
 <g id="Notes">
  <rect height="2200" id="artboard" style="fill:white;opacity:1" width="3300" x="0" y="0"/>
  <line id="" style="fill:none;stroke:black;opacity:1;stroke-width:0.5;" x1="263" x2="3036" y1="292" y2="292"/>
  <text style="stroke:none;fill:black;font-family:-apple-system,&quot;SF Pro Display&quot;,&quot;SF Pro Text&quot;,Helvetica,sans-serif;font-weight:bold;" transform="matrix(1 0 0 1 263 322)">Weight/Scale Variations</text>
  <text style="stroke:none;fill:black;font-family:-apple-system,&quot;SF Pro Display&quot;,&quot;SF Pro Text&quot;,Helvetica,sans-serif;text-anchor:middle;" transform="matrix(1 0 0 1 559.711 322)">Ultralight</text>
  <text style="stroke:none;fill:black;font-family:-apple-system,&quot;SF Pro Display&quot;,&quot;SF Pro Text&quot;,Helvetica,sans-serif;text-anchor:middle;" transform="matrix(1 0 0 1 856.422 322)">Thin</text>
  <text style="stroke:none;fill:black;font-family:-apple-system,&quot;SF Pro Display&quot;,&quot;SF Pro Text&quot;,Helvetica,sans-serif;text-anchor:middle;" transform="matrix(1 0 0 1 1153.13 322)">Light</text>
  <text style="stroke:none;fill:black;font-family:-apple-system,&quot;SF Pro Display&quot;,&quot;SF Pro Text&quot;,Helvetica,sans-serif;text-anchor:middle;" transform="matrix(1 0 0 1 1449.84 322)">Regular</text>
  <text style="stroke:none;fill:black;font-family:-apple-system,&quot;SF Pro Display&quot;,&quot;SF Pro Text&quot;,Helvetica,sans-serif;text-anchor:middle;" transform="matrix(1 0 0 1 1746.56 322)">Medium</text>
  <text style="stroke:none;fill:black;font-family:-apple-system,&quot;SF Pro Display&quot;,&quot;SF Pro Text&quot;,Helvetica,sans-serif;text-anchor:middle;" transform="matrix(1 0 0 1 2043.27 322)">Semibold</text>
  <text style="stroke:none;fill:black;font-family:-apple-system,&quot;SF Pro Display&quot;,&quot;SF Pro Text&quot;,Helvetica,sans-serif;text-anchor:middle;" transform="matrix(1 0 0 1 2339.98 322)">Bold</text>
  <text style="stroke:none;fill:black;font-family:-apple-system,&quot;SF Pro Display&quot;,&quot;SF Pro Text&quot;,Helvetica,sans-serif;text-anchor:middle;" transform="matrix(1 0 0 1 2636.69 322)">Heavy</text>
  <text style="stroke:none;fill:black;font-family:-apple-system,&quot;SF Pro Display&quot;,&quot;SF Pro Text&quot;,Helvetica,sans-serif;text-anchor:middle;" transform="matrix(1 0 0 1 2933.4 322)">Black</text>
  <line id="" style="fill:none;stroke:black;opacity:1;stroke-width:0.5;" x1="263" x2="3036" y1="1903" y2="1903"/>
  <g id="" transform="matrix(1 0 0 1 263 1933)">
   <path d="M 9.24805 0.830078 C 13.5547 0.830078 17.1387 -2.74414 17.1387 -7.05078 C 17.1387 -11.3574 13.5449 -14.9316 9.23828 -14.9316 C 4.94141 -14.9316 1.36719 -11.3574 1.36719 -7.05078 C 1.36719 -2.74414 4.95117 0.830078 9.24805 0.830078 Z M 9.24805 -0.654297 C 5.70312 -0.654297 2.87109 -3.49609 2.87109 -7.05078 C 2.87109 -10.6055 5.69336 -13.4473 9.23828 -13.4473 C 12.793 -13.4473 15.6348 -10.6055 15.6445 -7.05078 C 15.6543 -3.49609 12.8027 -0.654297 9.24805 -0.654297 Z M 9.22852 -3.42773 C 9.69727 -3.42773 9.9707 -3.74023 9.9707 -4.25781 L 9.9707 -6.31836 L 12.1973 -6.31836 C 12.6953 -6.31836 13.0371 -6.57227 13.0371 -7.04102 C 13.0371 -7.51953 12.7148 -7.7832 12.1973 -7.7832 L 9.9707 -7.7832 L 9.9707 -10.0098 C 9.9707 -10.5273 9.69727 -10.8496 9.22852 -10.8496 C 8.75977 -10.8496 8.50586 -10.5078 8.50586 -10.0098 L 8.50586 -7.7832 L 6.29883 -7.7832 C 5.78125 -7.7832 5.44922 -7.51953 5.44922 -7.04102 C 5.44922 -6.57227 5.80078 -6.31836 6.29883 -6.31836 L 8.50586 -6.31836 L 8.50586 -4.25781 C 8.50586 -3.75977 8.75977 -3.42773 9.22852 -3.42773 Z"/>
  </g>
  <g id="" transform="matrix(1 0 0 1 281.506 1933)">
   <path d="M 11.709 2.91016 C 17.1484 2.91016 21.6699 -1.60156 21.6699 -7.05078 C 21.6699 -12.4902 17.1387 -17.0117 11.6992 -17.0117 C 6.25 -17.0117 1.74805 -12.4902 1.74805 -7.05078 C 1.74805 -1.60156 6.25977 2.91016 11.709 2.91016 Z M 11.709 1.25 C 7.09961 1.25 3.41797 -2.44141 3.41797 -7.05078 C 3.41797 -11.6504 7.08984 -15.3516 11.6992 -15.3516 C 16.2988 -15.3516 20 -11.6504 20.0098 -7.05078 C 20.0195 -2.44141 16.3086 1.25 11.709 1.25 Z M 11.6797 -2.41211 C 12.207 -2.41211 12.5195 -2.77344 12.5195 -3.33984 L 12.5195 -6.23047 L 15.5762 -6.23047 C 16.123 -6.23047 16.5039 -6.51367 16.5039 -7.03125 C 16.5039 -7.55859 16.1426 -7.86133 15.5762 -7.86133 L 12.5195 -7.86133 L 12.5195 -10.9277 C 12.5195 -11.5039 12.207 -11.8555 11.6797 -11.8555 C 11.1621 -11.8555 10.8789 -11.4844 10.8789 -10.9277 L 10.8789 -7.86133 L 7.83203 -7.86133 C 7.25586 -7.86133 6.89453 -7.55859 6.89453 -7.03125 C 6.89453 -6.51367 7.28516 -6.23047 7.83203 -6.23047 L 10.8789 -6.23047 L 10.8789 -3.33984 C 10.8789 -2.79297 11.1621 -2.41211 11.6797 -2.41211 Z"/>
  </g>
  <g id="" transform="matrix(1 0 0 1 304.914 1933)">
   <path d="M 14.9707 5.67383 C 21.9336 5.67383 27.6855 -0.078125 27.6855 -7.04102 C 27.6855 -14.0039 21.9238 -19.7559 14.9609 -19.7559 C 7.99805 -19.7559 2.25586 -14.0039 2.25586 -7.04102 C 2.25586 -0.078125 8.00781 5.67383 14.9707 5.67383 Z M 14.9707 3.85742 C 8.92578 3.85742 4.08203 -1.00586 4.08203 -7.04102 C 4.08203 -13.0762 8.91602 -17.9395 14.9609 -17.9395 C 20.9961 -17.9395 25.8594 -13.0762 25.8691 -7.04102 C 25.8789 -1.00586 21.0059 3.85742 14.9707 3.85742 Z M 14.9414 -1.06445 C 15.5176 -1.06445 15.8594 -1.45508 15.8594 -2.06055 L 15.8594 -6.13281 L 20.0977 -6.13281 C 20.6934 -6.13281 21.1133 -6.46484 21.1133 -7.02148 C 21.1133 -7.59766 20.7227 -7.93945 20.0977 -7.93945 L 15.8594 -7.93945 L 15.8594 -12.1875 C 15.8594 -12.8027 15.5176 -13.1934 14.9414 -13.1934 C 14.3848 -13.1934 14.0625 -12.7832 14.0625 -12.1875 L 14.0625 -7.93945 L 9.82422 -7.93945 C 9.20898 -7.93945 8.80859 -7.59766 8.80859 -7.02148 C 8.80859 -6.46484 9.23828 -6.13281 9.82422 -6.13281 L 14.0625 -6.13281 L 14.0625 -2.06055 C 14.0625 -1.47461 14.3848 -1.06445 14.9414 -1.06445 Z"/>
  </g>
  <text style="stroke:none;fill:black;font-family:-apple-system,&quot;SF Pro Display&quot;,&quot;SF Pro Text&quot;,Helvetica,sans-serif;font-weight:bold;" transform="matrix(1 0 0 1 263 1953)">Design Variations</text>
  <text style="stroke:none;fill:black;font-family:-apple-system,&quot;SF Pro Display&quot;,&quot;SF Pro Text&quot;,Helvetica,sans-serif;" transform="matrix(1 0 0 1 263 1971)">Symbols are supported in up to nine weights and three scales.</text>
  <text style="stroke:none;fill:black;font-family:-apple-system,&quot;SF Pro Display&quot;,&quot;SF Pro Text&quot;,Helvetica,sans-serif;" transform="matrix(1 0 0 1 263 1989)">For optimal layout with text and other symbols, vertically align</text>
  <text style="stroke:none;fill:black;font-family:-apple-system,&quot;SF Pro Display&quot;,&quot;SF Pro Text&quot;,Helvetica,sans-serif;" transform="matrix(1 0 0 1 263 2007)">symbols with the adjacent text.</text>
  <rect height="14" id="" style="fill:#00AEEF;stroke:none;opacity:0.4;" width="3" x="776" y="1919"/>
  <g id="" transform="matrix(1 0 0 1 779 1933)">
   <path d="M 10.5273 0 L 12.373 0 L 7.17773 -14.0918 L 5.43945 -14.0918 L 0.244141 0 L 2.08984 0 L 3.50586 -4.0332 L 9.11133 -4.0332 Z M 6.2793 -11.9531 L 6.33789 -11.9531 L 8.59375 -5.52734 L 4.02344 -5.52734 Z"/>
  </g>
  <rect height="14" id="" style="fill:#00AEEF;stroke:none;opacity:0.4;" width="3" x="791.617" y="1919"/>
  <text style="stroke:none;fill:black;font-family:-apple-system,&quot;SF Pro Display&quot;,&quot;SF Pro Text&quot;,Helvetica,sans-serif;font-weight:bold;" transform="matrix(1 0 0 1 776 1953)">Side Bearings</text>
  <text style="stroke:none;fill:black;font-family:-apple-system,&quot;SF Pro Display&quot;,&quot;SF Pro Text&quot;,Helvetica,sans-serif;" transform="matrix(1 0 0 1 776 1971)">Horizontal padding on the left and right side of each symbol</text>
  <text style="stroke:none;fill:black;font-family:-apple-system,&quot;SF Pro Display&quot;,&quot;SF Pro Text&quot;,Helvetica,sans-serif;" transform="matrix(1 0 0 1 776 1989)">can be adjusted by modifying the width of the blue rectangles.</text>
  <text style="stroke:none;fill:black;font-family:-apple-system,&quot;SF Pro Display&quot;,&quot;SF Pro Text&quot;,Helvetica,sans-serif;" transform="matrix(1 0 0 1 776 2007)">Modifications are automatically applied proportionally to all</text>
  <text style="stroke:none;fill:black;font-family:-apple-system,&quot;SF Pro Display&quot;,&quot;SF Pro Text&quot;,Helvetica,sans-serif;" transform="matrix(1 0 0 1 776 2025)">scales and weights.</text>
  <g id="" transform="matrix(1 0 0 1 1289 1933)">
   <path d="M 2.96875 2.35352 L 3.80859 3.19336 C 4.84375 4.22852 6.12305 4.15039 7.19727 2.97852 L 16.1621 -6.82617 C 16.5527 -6.74805 16.9629 -6.8457 17.4902 -7.02148 C 18.1738 -7.25586 18.2715 -7.25586 18.3887 -7.13867 C 18.5352 -7.01172 18.4863 -6.89453 18.2422 -6.25 C 17.8809 -5.33203 17.8125 -4.79492 18.5547 -4.02344 L 19.4238 -3.13477 C 20.2734 -2.24609 21.3281 -2.26562 22.2168 -3.14453 L 25.0586 -5.97656 C 25.9473 -6.86523 25.957 -7.92969 25.0781 -8.7793 L 24.1797 -9.64844 C 23.4082 -10.4004 22.8711 -10.3516 21.9629 -9.98047 C 21.3184 -9.72656 21.2012 -9.6875 21.0645 -9.81445 C 20.9375 -9.93164 20.9473 -10.0391 21.1816 -10.7129 C 21.5332 -11.6895 21.5723 -12.2852 20.752 -13.0957 L 19.3359 -14.5117 C 15.1953 -18.6133 11.2305 -18.7402 7.65625 -15.4395 C 7.08008 -14.9023 6.99219 -14.1504 7.53906 -13.6133 L 7.79297 -13.3594 C 8.22266 -12.9297 8.86719 -12.8418 9.41406 -13.1152 C 11.0645 -13.9453 12.2559 -14.0234 13.457 -12.9785 L 13.0273 -11.416 C 12.8516 -10.8008 12.793 -10.3418 12.9199 -9.93164 L 3.18359 -1.04492 C 2.02148 0.0292969 1.93359 1.32812 2.96875 2.35352 Z M 8.96484 -14.4922 C 8.89648 -14.5703 8.86719 -14.6582 8.99414 -14.7559 C 11.709 -17.2852 15.0391 -16.8457 18.3496 -13.5254 L 19.6973 -12.168 C 20.0879 -11.7773 20.0977 -11.582 19.8828 -10.8691 C 19.6582 -10.127 19.502 -9.53125 20.1465 -8.88672 C 20.8105 -8.22266 21.2891 -8.41797 22.207 -8.63281 C 22.9004 -8.79883 23.0664 -8.79883 23.4473 -8.41797 L 24.0918 -7.77344 C 24.4043 -7.48047 24.4141 -7.32422 24.0723 -6.97266 L 21.2207 -4.13086 C 20.8887 -3.79883 20.7227 -3.79883 20.4297 -4.10156 L 19.7852 -4.75586 C 19.4141 -5.13672 19.4141 -5.30273 19.5801 -6.01562 C 19.7852 -6.88477 19.9805 -7.38281 19.3262 -8.04688 C 18.6719 -8.7207 18.0762 -8.57422 17.3438 -8.33008 C 16.5625 -8.06641 16.3281 -8.06641 15.8984 -8.49609 L 14.6094 -9.78516 C 14.1699 -10.2246 14.1309 -10.4395 14.2676 -10.9082 L 15.0293 -13.3984 C 13.3887 -15.2832 11.4941 -15.5566 9.20898 -14.4434 C 9.11133 -14.3945 9.04297 -14.4141 8.96484 -14.4922 Z M 3.96484 1.36719 C 3.52539 0.927734 3.54492 0.537109 4.14062 -0.00976562 L 13.7402 -8.81836 L 15 -7.55859 L 6.17188 2.02148 C 5.625 2.60742 5.24414 2.64648 4.79492 2.19727 Z"/>
  </g>
  <text style="stroke:none;fill:black;font-family:-apple-system,&quot;SF Pro Display&quot;,&quot;SF Pro Text&quot;,Helvetica,sans-serif;font-weight:bold;" transform="matrix(1 0 0 1 1289 1953)">Exporting</text>
  <text style="stroke:none;fill:black;font-family:-apple-system,&quot;SF Pro Display&quot;,&quot;SF Pro Text&quot;,Helvetica,sans-serif;" transform="matrix(1 0 0 1 1289 1971)">Symbols should be outlined when exporting to ensure the</text>
  <text style="stroke:none;fill:black;font-family:-apple-system,&quot;SF Pro Display&quot;,&quot;SF Pro Text&quot;,Helvetica,sans-serif;" transform="matrix(1 0 0 1 1289 1989)">design is preserved when submitting to Xcode.</text>
  <text id="template-version" style="stroke:none;fill:black;font-family:-apple-system,&quot;SF Pro Display&quot;,&quot;SF Pro Text&quot;,Helvetica,sans-serif;text-anchor:end;" transform="matrix(1 0 0 1 3036 1933)">Template v.0.1</text>
  <text style="stroke:none;fill:black;font-family:-apple-system,&quot;SF Pro Display&quot;,&quot;SF Pro Text&quot;,Helvetica,sans-serif;text-anchor:end;" transform="matrix(1 0 0 1 3036 1951)">Generated from 46.circle</text>
  <text style="stroke:none;fill:black;font-family:-apple-system,&quot;SF Pro Display&quot;,&quot;SF Pro Text&quot;,Helvetica,sans-serif;text-anchor:end;" transform="matrix(1 0 0 1 3036 1969)">Typeset at 100 points</text>
  <text style="stroke:none;fill:black;font-family:-apple-system,&quot;SF Pro Display&quot;,&quot;SF Pro Text&quot;,Helvetica,sans-serif;" transform="matrix(1 0 0 1 263 726)">Small</text>
  <text style="stroke:none;fill:black;font-family:-apple-system,&quot;SF Pro Display&quot;,&quot;SF Pro Text&quot;,Helvetica,sans-serif;" transform="matrix(1 0 0 1 263 1156)">Medium</text>
  <text style="stroke:none;fill:black;font-family:-apple-system,&quot;SF Pro Display&quot;,&quot;SF Pro Text&quot;,Helvetica,sans-serif;" transform="matrix(1 0 0 1 263 1586)">Large</text>
 </g>
 <g id="Guides">
  <g id="H-reference" style="fill:#27AAE1;stroke:none;" transform="matrix(1 0 0 1 339 696)">
   <path d="M 54.9316 0 L 57.666 0 L 30.5664 -70.459 L 28.0762 -70.459 L 0.976562 0 L 3.66211 0 L 12.9395 -24.4629 L 45.7031 -24.4629 Z M 29.1992 -67.0898 L 29.4434 -67.0898 L 44.8242 -26.709 L 13.8184 -26.709 Z"/>
  </g>
  <line id="Baseline-S" style="fill:none;stroke:#27AAE1;opacity:1;stroke-width:0.577;" x1="263" x2="3036" y1="696" y2="696"/>
  <line id="Capline-S" style="fill:none;stroke:#27AAE1;opacity:1;stroke-width:0.577;" x1="263" x2="3036" y1="625.541" y2="625.541"/>
  <g id="H-reference" style="fill:#27AAE1;stroke:none;" transform="matrix(1 0 0 1 339 1126)">
   <path d="M 54.9316 0 L 57.666 0 L 30.5664 -70.459 L 28.0762 -70.459 L 0.976562 0 L 3.66211 0 L 12.9395 -24.4629 L 45.7031 -24.4629 Z M 29.1992 -67.0898 L 29.4434 -67.0898 L 44.8242 -26.709 L 13.8184 -26.709 Z"/>
  </g>
  <line id="Baseline-M" style="fill:none;stroke:#27AAE1;opacity:1;stroke-width:0.577;" x1="263" x2="3036" y1="1126" y2="1126"/>
  <line id="Capline-M" style="fill:none;stroke:#27AAE1;opacity:1;stroke-width:0.577;" x1="263" x2="3036" y1="1055.54" y2="1055.54"/>
  <g id="H-reference" style="fill:#27AAE1;stroke:none;" transform="matrix(1 0 0 1 339 1556)">
   <path d="M 54.9316 0 L 57.666 0 L 30.5664 -70.459 L 28.0762 -70.459 L 0.976562 0 L 3.66211 0 L 12.9395 -24.4629 L 45.7031 -24.4629 Z M 29.1992 -67.0898 L 29.4434 -67.0898 L 44.8242 -26.709 L 13.8184 -26.709 Z"/>
  </g>
  <line id="Baseline-L" style="fill:none;stroke:#27AAE1;opacity:1;stroke-width:0.577;" x1="263" x2="3036" y1="1556" y2="1556"/>
  <line id="Capline-L" style="fill:none;stroke:#27AAE1;opacity:1;stroke-width:0.577;" x1="263" x2="3036" y1="1485.54" y2="1485.54"/>
  <rect height="119.336" id="left-margin" style="fill:#00AEEF;stroke:none;opacity:0.4;" width="8.74023" x="1391.32" y="1030.79"/>
  <rect height="119.336" id="right-margin" style="fill:#00AEEF;stroke:none;opacity:0.4;" width="8.69141" x="1499.67" y="1030.79"/>
 </g>
 <g id="Symbols">
  <g id="Ultralight-S" transform="matrix(1 0 0 1 515.644 696)">
   <path d="M 44.043 2.05078 C 64.502 2.05078 81.2988 -14.6973 81.2988 -35.1562 C 81.2988 -55.6152 64.502 -72.3633 44.043 -72.3633 C 23.584 -72.3633 6.83594 -55.6152 6.83594 -35.1562 C 6.83594 -14.6973 23.584 2.05078 44.043 2.05078 Z M 44.043 -0.146484 C 24.7559 -0.146484 9.08203 -15.8691 9.08203 -35.1562 C 9.08203 -54.4434 24.7559 -70.166 44.043 -70.166 C 63.3789 -70.166 79.0527 -54.4434 79.0527 -35.1562 C 79.0527 -15.8691 63.3789 -0.146484 44.043 -0.146484 Z M 57.8125 -17.7734 C 64.5996 -17.7734 69.2871 -22.3145 69.2871 -29.0527 C 69.2871 -35.2539 64.6484 -39.7461 58.4961 -39.7461 C 53.3691 -39.7461 50 -37.207 48.1934 -33.4473 L 48.0469 -33.4473 L 48.0469 -33.8867 C 48.0469 -44.2871 51.9531 -50.3418 58.3984 -50.3418 C 61.7188 -50.3418 64.7949 -48.6328 65.9668 -45.9961 C 66.3086 -45.3613 66.6016 -45.1172 67.1875 -45.1172 C 67.7734 -45.1172 68.0664 -45.459 68.0664 -46.0938 C 68.0664 -46.3379 68.0176 -46.5332 67.9688 -46.7285 C 67.3828 -49.0723 63.8184 -52.4414 58.4473 -52.4414 C 50.5859 -52.4414 45.8984 -45.7031 45.8984 -34.0332 C 45.8984 -29.6387 46.582 -25.8301 47.8027 -23.584 C 49.707 -19.873 53.418 -17.7734 57.8125 -17.7734 Z M 36.6699 -18.0176 C 37.4023 -18.0176 37.793 -18.5059 37.793 -19.1895 L 37.793 -26.5137 L 42.4316 -26.5137 C 43.0664 -26.5137 43.5059 -26.9531 43.5059 -27.5391 C 43.5059 -28.125 43.0664 -28.6133 42.4316 -28.6133 L 37.793 -28.6133 L 37.793 -50.7812 C 37.793 -51.8066 37.1094 -52.4414 35.9863 -52.4414 C 34.9609 -52.4414 34.3262 -52.1484 33.5938 -51.0742 C 30.1758 -46.0938 22.3145 -34.4238 19.2871 -29.4922 C 19.0918 -29.1016 18.8965 -28.6621 18.8965 -28.1738 C 18.8965 -27.0996 19.5312 -26.5137 20.8008 -26.5137 L 35.5957 -26.5137 L 35.5957 -19.1895 C 35.5957 -18.5059 36.0352 -18.0176 36.6699 -18.0176 Z M 35.5957 -28.6133 L 21.3867 -28.6133 L 21.3867 -28.8086 C 23.7305 -32.666 32.7637 -46.0938 35.4004 -49.9512 L 35.5957 -49.9512 Z M 57.8125 -19.8242 C 52.4902 -19.8242 48.6816 -23.6328 48.6816 -28.9062 C 48.6816 -33.9844 52.5391 -37.6953 57.9102 -37.6953 C 63.2812 -37.6953 66.9922 -34.1309 66.9922 -28.8574 C 66.9922 -23.3887 63.3301 -19.8242 57.8125 -19.8242 Z"/>
  </g>
  <g id="Thin-S" transform="matrix(1 0 0 1 811.867 696)">
   <path d="M 44.5801 2.53906 C 65.2832 2.53906 82.2754 -14.4531 82.2754 -35.2051 C 82.2754 -55.9082 65.2344 -72.9004 44.5312 -72.9004 C 23.8281 -72.9004 6.83594 -55.9082 6.83594 -35.2051 C 6.83594 -14.4531 23.877 2.53906 44.5801 2.53906 Z M 44.5801 -0.878906 C 25.5859 -0.878906 10.2539 -16.2109 10.2539 -35.2051 C 10.2539 -54.1504 25.5859 -69.4824 44.5312 -69.4824 C 63.5254 -69.4824 78.8574 -54.1504 78.8574 -35.2051 C 78.8574 -16.2109 63.5254 -0.878906 44.5801 -0.878906 Z M 58.1543 -17.7734 C 64.9414 -17.7734 69.6289 -22.2656 69.6289 -29.1992 C 69.6289 -35.5957 64.9414 -39.8926 59.0332 -39.8926 C 54.0527 -39.8926 50.8789 -37.4023 49.2676 -33.9355 L 49.0723 -33.9355 L 49.0723 -34.375 C 49.0723 -43.9941 52.7832 -49.7559 58.7402 -49.7559 C 61.8164 -49.7559 64.4531 -48.1934 65.625 -45.8496 C 66.0645 -45.0684 66.4551 -44.7754 67.1875 -44.7754 C 67.9199 -44.7754 68.4082 -45.2637 68.4082 -46.0938 C 68.4082 -46.4355 68.3594 -46.6797 68.2617 -46.9727 C 67.4805 -49.4141 64.0137 -52.5391 58.8379 -52.5391 C 50.9277 -52.5391 46.1914 -45.9961 46.1914 -34.1309 C 46.1914 -29.541 46.9238 -25.7812 48.1445 -23.4863 C 50.1465 -19.7266 53.8574 -17.7734 58.1543 -17.7734 Z M 37.0117 -18.1152 C 37.9395 -18.1152 38.4766 -18.75 38.4766 -19.7754 L 38.4766 -26.1719 L 42.4805 -26.1719 C 43.3105 -26.1719 43.8477 -26.709 43.8477 -27.5391 C 43.8477 -28.3691 43.3105 -28.9551 42.4805 -28.9551 L 38.4766 -28.9551 L 38.4766 -50.2441 C 38.4766 -51.6602 37.5488 -52.5391 36.084 -52.5391 C 34.668 -52.5391 33.7891 -52.0508 32.9102 -50.6836 C 29.4922 -45.5078 22.7051 -35.1074 19.7754 -30.1758 C 19.4336 -29.541 19.1895 -29.0039 19.1895 -28.3203 C 19.1895 -26.9531 20.0684 -26.1719 21.5332 -26.1719 L 35.498 -26.1719 L 35.498 -19.7754 C 35.498 -18.75 36.1328 -18.1152 37.0117 -18.1152 Z M 35.498 -28.9551 L 22.4609 -28.9551 L 22.4609 -29.1504 C 24.8535 -33.2031 32.5195 -44.9219 35.3027 -49.2188 L 35.498 -49.2188 Z M 58.1055 -20.5078 C 53.1738 -20.5078 49.6582 -24.0723 49.6582 -29.0039 C 49.6582 -33.8379 53.2227 -37.3047 58.1543 -37.3047 C 63.1348 -37.3047 66.5039 -33.9355 66.5039 -28.9551 C 66.5039 -23.8281 63.1836 -20.5078 58.1055 -20.5078 Z"/>
  </g>
  <g id="Light-S" transform="matrix(1 0 0 1 1107.6 696)">
   <path d="M 45.5078 3.4668 C 66.6992 3.4668 84.2285 -14.0625 84.2285 -35.2051 C 84.2285 -56.3965 66.6504 -73.9258 45.5078 -73.9258 C 24.3164 -73.9258 6.83594 -56.3965 6.83594 -35.2051 C 6.83594 -14.0625 24.3652 3.4668 45.5078 3.4668 Z M 45.5078 -2.24609 C 27.2461 -2.24609 12.5977 -16.9434 12.5977 -35.2051 C 12.5977 -53.5156 27.1973 -68.2129 45.5078 -68.2129 C 63.7695 -68.2129 78.4668 -53.5156 78.5156 -35.2051 C 78.5156 -16.9434 63.8184 -2.24609 45.5078 -2.24609 Z M 58.7891 -17.8223 C 65.5273 -17.8223 70.3125 -22.168 70.3125 -29.4922 C 70.3125 -36.2793 65.4785 -40.2344 60.0098 -40.2344 C 55.3223 -40.2344 52.5391 -37.793 51.3184 -34.9121 L 51.0742 -34.9121 L 51.0742 -35.3027 C 51.0742 -43.5059 54.3945 -48.584 59.375 -48.584 C 61.9629 -48.584 63.916 -47.3145 64.9414 -45.5566 C 65.5762 -44.5801 66.1621 -44.1406 67.2363 -44.1406 C 68.2129 -44.1406 68.9941 -44.9219 68.9941 -46.0938 C 68.9941 -46.582 68.8965 -47.0215 68.75 -47.4609 C 67.7246 -50.1465 64.4043 -52.6855 59.5703 -52.6855 C 51.6113 -52.6855 46.7285 -46.4844 46.7285 -34.3262 C 46.7285 -29.3945 47.5586 -25.7324 48.877 -23.291 C 50.9766 -19.4336 54.6875 -17.8223 58.7891 -17.8223 Z M 37.5488 -18.2129 C 39.0137 -18.2129 39.7949 -19.1895 39.7949 -20.8984 L 39.7949 -25.5371 L 42.4805 -25.5371 C 43.7012 -25.5371 44.5312 -26.3184 44.5312 -27.5879 C 44.5312 -28.8574 43.7012 -29.5898 42.4805 -29.5898 L 39.7949 -29.5898 L 39.7949 -49.3164 C 39.7949 -51.3672 38.3301 -52.6855 36.2305 -52.6855 C 34.1309 -52.6855 32.8613 -51.9043 31.6406 -49.9512 C 28.2227 -44.3848 23.4375 -36.4258 20.6543 -31.4941 C 20.0684 -30.4199 19.8242 -29.6387 19.8242 -28.6621 C 19.8242 -26.709 21.0938 -25.5371 22.998 -25.5371 L 35.4004 -25.5371 L 35.4004 -20.8984 C 35.4004 -19.2383 36.2305 -18.2129 37.5488 -18.2129 Z M 35.4004 -29.5898 L 24.6094 -29.5898 L 24.6094 -29.7852 C 26.9531 -34.2285 32.0801 -42.6758 35.1562 -47.8027 L 35.4004 -47.8027 Z M 58.5938 -21.7773 C 54.4922 -21.7773 51.5625 -24.9023 51.5625 -29.248 C 51.5625 -33.4961 54.4922 -36.4746 58.6426 -36.4746 C 62.793 -36.4746 65.625 -33.5449 65.625 -29.1992 C 65.625 -24.6582 62.8906 -21.7773 58.5938 -21.7773 Z"/>
  </g>
  <g id="Regular-S" transform="matrix(1 0 0 1 1403.58 696)">
   <path d="M 46.2402 4.15039 C 67.7734 4.15039 85.6934 -13.7207 85.6934 -35.2539 C 85.6934 -56.7871 67.7246 -74.6582 46.1914 -74.6582 C 24.707 -74.6582 6.83594 -56.7871 6.83594 -35.2539 C 6.83594 -13.7207 24.7559 4.15039 46.2402 4.15039 Z M 46.2402 -3.27148 C 28.5156 -3.27148 14.3555 -17.4805 14.3555 -35.2539 C 14.3555 -53.0273 28.4668 -67.2363 46.1914 -67.2363 C 63.9648 -67.2363 78.1738 -53.0273 78.2227 -35.2539 C 78.2715 -17.4805 64.0137 -3.27148 46.2402 -3.27148 Z M 59.2773 -17.8223 C 65.9668 -17.8223 70.8008 -22.0703 70.8008 -29.6875 C 70.8008 -36.7676 65.918 -40.4785 60.7422 -40.4785 C 56.2988 -40.4785 53.8086 -38.0859 52.8809 -35.5957 L 52.5879 -35.5957 L 52.5879 -35.9863 C 52.5879 -43.0664 55.6152 -47.6562 59.8633 -47.6562 C 62.0605 -47.6562 63.4766 -46.6309 64.4043 -45.3613 C 65.2344 -44.1895 65.918 -43.7012 67.2363 -43.7012 C 68.457 -43.7012 69.4336 -44.6289 69.4336 -46.0938 C 69.4336 -46.7285 69.3359 -47.2656 69.1406 -47.8516 C 67.9199 -50.6836 64.6973 -52.832 60.1074 -52.832 C 52.1484 -52.832 47.168 -46.9238 47.168 -34.4727 C 47.168 -29.2969 47.998 -25.6836 49.4141 -23.1445 C 51.6113 -19.2383 55.3711 -17.8223 59.2773 -17.8223 Z M 37.9883 -18.3105 C 39.7949 -18.3105 40.7715 -19.5312 40.7715 -21.7285 L 40.7715 -25.0977 L 42.5293 -25.0977 C 44.043 -25.0977 45.0195 -25.9766 45.0195 -27.5879 C 45.0195 -29.1992 44.043 -30.0781 42.5293 -30.0781 L 40.7715 -30.0781 L 40.7715 -48.584 C 40.7715 -51.123 38.9648 -52.832 36.377 -52.832 C 33.6914 -52.832 32.1289 -51.8066 30.6641 -49.3652 C 27.2461 -43.5059 23.9746 -37.4023 21.3379 -32.4707 C 20.5566 -31.1035 20.3125 -30.127 20.3125 -28.9062 C 20.3125 -26.5137 21.8262 -25.0977 24.1211 -25.0977 L 35.3027 -25.0977 L 35.3027 -21.7285 C 35.3027 -19.5801 36.3281 -18.3105 37.9883 -18.3105 Z M 35.3027 -30.0781 L 26.1719 -30.0781 L 26.1719 -30.2734 C 28.5645 -35.0098 31.7383 -40.918 35.0586 -46.7773 L 35.3027 -46.7773 Z M 58.9844 -22.7539 C 55.4688 -22.7539 53.0273 -25.5371 53.0273 -29.4434 C 53.0273 -33.252 55.4688 -35.8887 58.9844 -35.8887 C 62.5488 -35.8887 64.9414 -33.252 64.9414 -29.3945 C 64.9414 -25.3418 62.6465 -22.7539 58.9844 -22.7539 Z"/>
  </g>
  <g id="Medium-S" transform="matrix(1 0 0 1 1699.7 696)">
   <path d="M 46.8262 4.78516 C 68.75 4.78516 86.8652 -13.3301 86.8652 -35.2539 C 86.8652 -57.1289 68.7012 -75.2441 46.8262 -75.2441 C 24.9023 -75.2441 6.83594 -57.1289 6.83594 -35.2539 C 6.83594 -13.3301 24.9512 4.78516 46.8262 4.78516 Z M 46.8262 -4.19922 C 29.6387 -4.19922 15.8691 -18.0176 15.8691 -35.2539 C 15.8691 -52.4414 29.5898 -66.2598 46.8262 -66.2598 C 64.0137 -66.2598 77.832 -52.4414 77.8809 -35.2539 C 77.8809 -18.0176 64.0625 -4.19922 46.8262 -4.19922 Z M 59.9121 -18.0664 C 66.5039 -18.0664 71.1914 -22.4121 71.1914 -29.8828 C 71.1914 -36.7188 66.5527 -40.3809 61.6211 -40.3809 C 57.5195 -40.3809 55.1758 -38.1836 54.248 -35.8398 L 53.9062 -35.8398 C 53.9062 -36.084 53.9062 -36.2793 53.9062 -36.6211 C 53.9062 -42.8223 56.6406 -46.8262 60.4492 -46.8262 C 62.4023 -46.8262 63.6719 -45.8984 64.5508 -44.7266 C 65.332 -43.7012 66.0645 -43.1641 67.4316 -43.1641 C 68.7988 -43.1641 69.9219 -44.1895 69.9219 -45.8008 C 69.9219 -46.5332 69.8242 -47.1191 69.5312 -47.8027 C 68.3594 -50.4883 65.1855 -52.5391 60.6445 -52.5391 C 52.9297 -52.5391 47.8027 -46.6797 47.8027 -34.668 C 47.8027 -29.834 48.6328 -26.2695 49.9512 -23.6816 C 52.0996 -19.6289 55.8105 -18.0664 59.9121 -18.0664 Z M 38.7207 -18.4082 C 40.7227 -18.4082 41.8945 -19.7266 41.8945 -22.2168 L 41.8945 -25.0488 L 43.2617 -25.0488 C 44.873 -25.0488 45.8984 -26.0742 45.8984 -27.832 C 45.8984 -29.5898 44.873 -30.6152 43.2617 -30.6152 L 41.8457 -30.6152 L 41.8457 -47.7539 C 41.8457 -50.6836 39.9902 -52.4902 36.9629 -52.4902 C 33.9844 -52.4902 32.2266 -51.4648 30.7129 -48.7793 C 27.7344 -43.5059 24.7559 -37.6465 22.5098 -33.252 C 21.7773 -31.7871 21.4844 -30.6152 21.4844 -29.1992 C 21.4844 -26.5625 23.0469 -25 25.6348 -25 L 35.6445 -25 L 35.6445 -22.2168 C 35.6445 -19.7754 36.8164 -18.4082 38.7207 -18.4082 Z M 35.8398 -30.6152 L 27.8809 -30.6152 L 27.8809 -30.7617 C 29.8828 -35.0098 32.8125 -41.0645 35.6445 -46.2891 L 35.8398 -46.2891 Z M 59.5215 -23.5352 C 56.4941 -23.5352 54.2969 -25.9766 54.2969 -29.4922 C 54.2969 -32.8613 56.4453 -35.2539 59.5215 -35.2539 C 62.6465 -35.2539 64.7949 -32.9102 64.7949 -29.4434 C 64.7949 -25.8301 62.7441 -23.5352 59.5215 -23.5352 Z"/>
  </g>
  <g id="Semibold-S" transform="matrix(1 0 0 1 1995.98 696)">
   <path d="M 47.3145 5.22461 C 69.4824 5.22461 87.7441 -13.0371 87.7441 -35.2539 C 87.7441 -57.4219 69.4336 -75.6836 47.2656 -75.6836 C 25.0977 -75.6836 6.83594 -57.4219 6.83594 -35.2539 C 6.83594 -13.0371 25.0977 5.22461 47.3145 5.22461 Z M 47.3145 -4.93164 C 30.4688 -4.93164 17.041 -18.4082 17.041 -35.2539 C 17.041 -52.0508 30.4688 -65.5273 47.2656 -65.5273 C 64.0625 -65.5273 77.5879 -52.0508 77.5879 -35.2539 C 77.6367 -18.4082 64.1113 -4.93164 47.3145 -4.93164 Z M 60.3516 -18.2129 C 66.9434 -18.2129 71.5332 -22.6562 71.5332 -30.0781 C 71.5332 -36.6211 67.0898 -40.2832 62.3047 -40.2832 C 58.3984 -40.2832 56.2012 -38.2324 55.2246 -35.9863 L 54.9805 -35.9863 C 54.9316 -36.2793 54.9316 -36.6211 54.9316 -37.1094 C 54.9316 -42.5781 57.4707 -46.1914 60.8887 -46.1914 C 62.6953 -46.1914 63.8184 -45.3613 64.6484 -44.2871 C 65.4297 -43.3105 66.1621 -42.8223 67.5781 -42.8223 C 68.9941 -42.8223 70.3125 -43.8477 70.3125 -45.5566 C 70.3125 -46.3867 70.166 -47.0215 69.8242 -47.7539 C 68.6523 -50.3418 65.5762 -52.3438 61.084 -52.3438 C 53.5645 -52.3438 48.3398 -46.4844 48.3398 -34.8145 C 48.3398 -30.2734 49.0723 -26.6602 50.3906 -24.0723 C 52.4414 -19.9219 56.1523 -18.2129 60.3516 -18.2129 Z M 39.3066 -18.5059 C 41.4551 -18.5059 42.7734 -19.9219 42.7734 -22.6074 L 42.7734 -25 L 43.8477 -25 C 45.5078 -25 46.582 -26.123 46.582 -27.9785 C 46.582 -29.8828 45.5078 -31.0059 43.7988 -31.0059 L 42.627 -31.0059 L 42.627 -47.1191 C 42.627 -50.3906 40.7715 -52.2461 37.4512 -52.2461 C 34.2285 -52.2461 32.2754 -51.1719 30.7617 -48.291 C 28.0762 -43.5059 25.3418 -37.8418 23.3887 -33.8379 C 22.7051 -32.3242 22.3633 -30.957 22.3633 -29.3945 C 22.3633 -26.6113 23.9746 -24.9512 26.8066 -24.9512 L 35.8887 -24.9512 L 35.8887 -22.6074 C 35.8887 -19.9219 37.207 -18.5059 39.3066 -18.5059 Z M 36.2305 -31.0059 L 29.1504 -31.0059 L 29.1504 -31.1523 C 30.9082 -35.0098 33.5938 -41.2109 36.0352 -45.8984 L 36.2305 -45.8984 Z M 59.9609 -24.1211 C 57.2754 -24.1211 55.3223 -26.3672 55.3223 -29.541 C 55.3223 -32.6172 57.2266 -34.7656 59.9609 -34.7656 C 62.7441 -34.7656 64.6484 -32.6172 64.6484 -29.4922 C 64.6484 -26.2695 62.793 -24.1211 59.9609 -24.1211 Z"/>
  </g>
  <g id="Bold-S" transform="matrix(1 0 0 1 2292.1 696)">
   <path d="M 47.9004 5.81055 C 70.4102 5.81055 88.916 -12.6465 88.916 -35.2051 C 88.916 -57.7637 70.4102 -76.2695 47.8516 -76.2695 C 25.293 -76.2695 6.83594 -57.7637 6.83594 -35.2051 C 6.83594 -12.6465 25.3418 5.81055 47.9004 5.81055 Z M 47.9004 -5.85938 C 31.6406 -5.85938 18.5547 -18.9453 18.5547 -35.2051 C 18.5547 -51.4648 31.5918 -64.5508 47.8516 -64.5508 C 64.1113 -64.5508 77.1973 -51.4648 77.2461 -35.2051 C 77.2461 -18.9453 64.1602 -5.85938 47.9004 -5.85938 Z M 60.9863 -18.457 C 67.4805 -18.457 71.9238 -22.998 71.9238 -30.2734 C 71.9238 -36.5723 67.7246 -40.1855 63.1836 -40.1855 C 59.5703 -40.1855 57.5684 -38.3301 56.5918 -36.1816 L 56.3477 -36.1816 C 56.2988 -36.6211 56.25 -37.0605 56.25 -37.7441 C 56.25 -42.2852 58.4961 -45.3613 61.4258 -45.3613 C 63.0371 -45.3613 64.0137 -44.5801 64.8438 -43.6523 C 65.5273 -42.8223 66.3086 -42.2852 67.7734 -42.2852 C 69.3359 -42.2852 70.8008 -43.4082 70.8008 -45.2637 C 70.8008 -46.2402 70.6543 -46.875 70.2637 -47.7051 C 69.0918 -50.0977 66.0645 -52.0508 61.6699 -52.0508 C 54.3457 -52.0508 48.9746 -46.2402 48.9746 -35.0098 C 48.9746 -30.8105 49.707 -27.2461 50.9766 -24.5605 C 52.9297 -20.3125 56.6406 -18.457 60.9863 -18.457 Z M 40.0391 -18.6523 C 42.3828 -18.6523 43.8965 -20.166 43.8965 -23.0957 L 43.8965 -25 L 44.5801 -25 C 46.3379 -25 47.4609 -26.1719 47.4609 -28.2227 C 47.4609 -30.2246 46.3379 -31.543 44.5312 -31.543 L 43.7012 -31.543 L 43.7012 -46.2402 C 43.7012 -49.9512 41.7969 -51.9043 38.0371 -51.9043 C 34.5215 -51.9043 32.373 -50.7812 30.8105 -47.7051 C 28.5156 -43.457 26.123 -38.0859 24.6094 -34.6191 C 23.9258 -33.0078 23.5352 -31.4453 23.5352 -29.6387 C 23.5352 -26.6602 25.1953 -24.9023 28.3203 -24.9023 L 36.2305 -24.9023 L 36.2305 -23.0957 C 36.2305 -20.166 37.7441 -18.6523 40.0391 -18.6523 Z M 36.7676 -31.4941 L 30.8594 -31.4941 L 30.8594 -31.6895 C 32.2266 -35.0098 34.668 -41.3574 36.5723 -45.4102 L 36.7676 -45.4102 Z M 60.5469 -24.9512 C 58.252 -24.9512 56.5918 -26.8066 56.5918 -29.5898 C 56.5918 -32.2266 58.252 -34.082 60.5469 -34.082 C 62.8418 -34.082 64.502 -32.2266 64.502 -29.541 C 64.502 -26.8066 62.8906 -24.9512 60.5469 -24.9512 Z"/>
  </g>
  <g id="Heavy-S" transform="matrix(1 0 0 1 2587.96 696)">
   <path d="M 48.7305 6.68945 C 71.8262 6.68945 90.625 -12.1094 90.625 -35.2051 C 90.625 -58.3008 71.8262 -77.0996 48.7305 -77.0996 C 25.6348 -77.0996 6.83594 -58.3008 6.83594 -35.2051 C 6.83594 -12.1094 25.6348 6.68945 48.7305 6.68945 Z M 48.7305 -7.22656 C 33.3008 -7.22656 20.752 -19.7266 20.752 -35.2051 C 20.752 -50.6836 33.3008 -63.1836 48.7305 -63.1836 C 64.209 -63.1836 76.709 -50.6836 76.709 -35.2051 C 76.709 -19.7266 64.209 -7.22656 48.7305 -7.22656 Z M 61.8652 -18.7988 C 68.2617 -18.7988 72.5098 -23.4863 72.5098 -30.5664 C 72.5098 -36.4746 68.7012 -40.0391 64.4531 -40.0391 C 61.3281 -40.0391 59.5703 -38.4766 58.5449 -36.4746 L 58.3496 -36.4746 C 58.252 -37.0605 58.2031 -37.6953 58.2031 -38.623 C 58.2031 -41.8945 60.0586 -44.1406 62.2559 -44.1406 C 63.5742 -44.1406 64.3066 -43.5059 65.0391 -42.7246 C 65.6738 -42.0898 66.5527 -41.5527 68.0664 -41.5527 C 69.7754 -41.5527 71.5332 -42.7734 71.5332 -44.873 C 71.5332 -45.9473 71.3379 -46.6797 70.8496 -47.6074 C 69.6777 -49.8047 66.7969 -51.6602 62.4512 -51.6602 C 55.5176 -51.6602 49.9512 -45.8496 49.9512 -35.2539 C 49.9512 -31.5918 50.5859 -28.0762 51.7578 -25.293 C 53.6133 -20.8984 57.3242 -18.7988 61.8652 -18.7988 Z M 41.1133 -18.8477 C 43.75 -18.8477 45.5566 -20.459 45.5566 -23.8281 L 45.5566 -24.9023 L 45.6543 -24.9023 C 47.5586 -24.9023 48.7793 -26.2695 48.7793 -28.5645 C 48.7793 -30.8105 47.5586 -32.3242 45.6055 -32.3242 L 45.2148 -32.3242 L 45.2148 -45.0195 C 45.2148 -49.3164 43.2617 -51.4648 38.9648 -51.4648 C 34.9609 -51.4648 32.5195 -50.2441 30.8594 -46.8262 C 29.1992 -43.457 27.2949 -38.4766 26.3184 -35.7422 C 25.7324 -34.0332 25.1953 -32.1289 25.1953 -30.0293 C 25.1953 -26.7578 27.002 -24.8047 30.5176 -24.8047 L 36.7188 -24.8047 L 36.7188 -23.8281 C 36.7188 -20.459 38.4766 -18.8477 41.1133 -18.8477 Z M 37.5 -32.2754 L 33.3008 -32.2754 L 33.3008 -32.4219 C 34.1797 -34.9609 36.1816 -41.5527 37.4023 -44.7266 L 37.5 -44.7266 Z M 61.377 -26.123 C 59.7168 -26.123 58.4961 -27.5391 58.4961 -29.6387 C 58.4961 -31.6895 59.7168 -33.1543 61.4258 -33.1543 C 63.0371 -33.1543 64.2578 -31.6895 64.2578 -29.6387 C 64.2578 -27.5391 63.0371 -26.123 61.377 -26.123 Z"/>
  </g>
  <g id="Black-S" transform="matrix(1 0 0 1 2883.89 696)">
   <path d="M 49.5117 7.4707 C 73.0957 7.4707 92.1875 -11.6211 92.1875 -35.2051 C 92.1875 -58.7891 73.0957 -77.8809 49.5117 -77.8809 C 25.9277 -77.8809 6.83594 -58.7891 6.83594 -35.2051 C 6.83594 -11.6211 25.9277 7.4707 49.5117 7.4707 Z M 49.5117 -8.44727 C 34.7656 -8.44727 22.7539 -20.459 22.7539 -35.2051 C 22.7539 -49.9512 34.7656 -61.9141 49.5117 -61.9141 C 64.2578 -61.9141 76.2695 -49.9512 76.2207 -35.2051 C 76.2207 -20.459 64.2578 -8.44727 49.5117 -8.44727 Z M 62.6953 -19.1406 C 68.9941 -19.1406 72.998 -23.9258 72.998 -30.8594 C 72.998 -36.377 69.5801 -39.8926 65.5762 -39.8926 C 62.8418 -39.8926 61.377 -38.5742 60.3027 -36.7188 L 60.1562 -36.7188 C 60.0098 -37.4512 59.9609 -38.2324 59.9609 -39.4531 C 59.9609 -41.5039 61.4258 -43.0664 63.0371 -43.0664 C 64.0625 -43.0664 64.5508 -42.5293 65.2344 -41.9434 C 65.8203 -41.4551 66.748 -40.918 68.3105 -40.918 C 70.2148 -40.918 72.168 -42.1875 72.168 -44.4824 C 72.168 -45.752 71.9238 -46.4844 71.3867 -47.5098 C 70.2148 -49.5117 67.4316 -51.3184 63.1836 -51.3184 C 56.543 -51.3184 50.8301 -45.5566 50.8301 -35.5469 C 50.8301 -32.2754 51.416 -28.8086 52.4902 -25.9766 C 54.248 -21.4355 57.9102 -19.1406 62.6953 -19.1406 Z M 42.0898 -18.9941 C 45.0195 -18.9941 47.0215 -20.752 47.0215 -24.5117 L 47.0215 -24.8535 L 46.6309 -24.8535 C 48.6328 -24.8535 49.9023 -26.3672 49.9023 -28.8574 C 49.9023 -31.2988 48.6328 -33.0566 46.582 -33.0566 L 46.582 -43.9453 C 46.582 -48.7793 44.6289 -51.0254 39.7461 -51.0254 C 35.3516 -51.0254 32.666 -49.7559 30.9082 -46.0449 C 29.7852 -43.4082 28.3203 -38.7695 27.8809 -36.7188 C 27.3438 -34.9609 26.709 -32.7148 26.709 -30.3711 C 26.709 -26.8555 28.5645 -24.707 32.4707 -24.707 L 37.1582 -24.707 L 37.1582 -24.5117 C 37.1582 -20.752 39.1602 -18.9941 42.0898 -18.9941 Z M 38.1836 -32.9102 L 35.498 -32.9102 L 35.498 -33.0566 C 35.8887 -34.9609 37.5488 -41.748 38.1348 -44.0918 L 38.1836 -44.0918 Z M 62.1582 -27.1484 C 61.0352 -27.1484 60.2051 -28.125 60.2051 -29.6875 C 60.2051 -31.2012 61.0352 -32.2754 62.1582 -32.2754 C 63.1836 -32.2754 64.0137 -31.2012 64.0137 -29.6875 C 64.0137 -28.2715 63.1836 -27.1484 62.1582 -27.1484 Z"/>
  </g>
  <g id="Ultralight-M" transform="matrix(1 0 0 1 503.656 1126)">
   <path d="M 56.0547 12.207 C 82.0801 12.207 103.369 -9.08203 103.369 -35.1562 C 103.369 -61.1816 82.0801 -82.4707 56.0547 -82.4707 C 30.0293 -82.4707 8.74023 -61.1816 8.74023 -35.1562 C 8.74023 -9.08203 30.0293 12.207 56.0547 12.207 Z M 56.0547 9.81445 C 31.25 9.81445 11.1328 -10.3516 11.1328 -35.1562 C 11.1328 -59.9121 31.25 -80.0781 56.0547 -80.0781 C 80.8105 -80.0781 100.977 -59.9121 100.977 -35.1562 C 100.977 -10.3516 80.8105 9.81445 56.0547 9.81445 Z M 73.6328 -12.9395 C 82.373 -12.9395 88.2812 -18.75 88.2812 -27.2461 C 88.2812 -35.1074 82.4219 -40.918 74.5117 -40.918 C 67.8711 -40.918 63.4766 -37.6953 61.084 -32.7637 L 60.9375 -32.7637 L 60.9375 -33.3496 C 60.9375 -46.875 65.9668 -54.7852 74.3652 -54.7852 C 78.7598 -54.7852 82.8125 -52.4902 84.375 -49.0723 C 84.7168 -48.2422 85.1074 -47.9492 85.7422 -47.9492 C 86.4258 -47.9492 86.7676 -48.3887 86.7676 -49.0723 C 86.7676 -49.4141 86.7188 -49.5605 86.6699 -49.8047 C 85.9375 -52.7344 81.3965 -57.1777 74.4629 -57.1777 C 64.4043 -57.1777 58.4961 -48.5352 58.4961 -33.6914 C 58.4961 -28.0762 59.375 -23.2422 60.8398 -20.3613 C 63.2812 -15.7227 68.0176 -12.9395 73.6328 -12.9395 Z M 46.7285 -13.2324 C 47.5098 -13.2324 47.998 -13.8184 47.998 -14.502 L 47.998 -24.2188 L 54.1504 -24.2188 C 54.8828 -24.2188 55.3711 -24.7559 55.3711 -25.3906 C 55.3711 -26.0742 54.8828 -26.6113 54.1504 -26.6113 L 47.998 -26.6113 L 47.998 -55.2734 C 47.998 -56.4453 47.2168 -57.1777 45.9473 -57.1777 C 44.7266 -57.1777 43.9941 -56.8359 43.1152 -55.6152 C 38.7695 -49.3164 28.3203 -33.9355 24.4629 -27.6367 C 24.2188 -27.2461 23.9746 -26.709 23.9746 -26.123 C 23.9746 -24.9512 24.7559 -24.2188 26.2207 -24.2188 L 45.459 -24.2188 L 45.459 -14.502 C 45.459 -13.8184 45.9961 -13.2324 46.7285 -13.2324 Z M 45.459 -26.6113 L 26.9043 -26.6113 L 26.9043 -26.8555 C 29.8828 -31.7871 41.8945 -49.5605 45.2148 -54.2969 L 45.459 -54.2969 Z M 73.6816 -15.332 C 66.748 -15.332 61.7188 -20.2637 61.7188 -27.0996 C 61.7188 -33.7402 66.7969 -38.5254 73.8281 -38.5254 C 80.8594 -38.5254 85.6934 -33.8867 85.6934 -27.002 C 85.6934 -19.9707 80.9082 -15.332 73.6816 -15.332 Z"/>
  </g>
  <g id="Thin-M" transform="matrix(1 0 0 1 799.806 1126)">
   <path d="M 56.5918 12.7441 C 82.9102 12.7441 104.492 -8.83789 104.492 -35.1562 C 104.492 -61.4746 82.9102 -83.0566 56.5918 -83.0566 C 30.3223 -83.0566 8.74023 -61.4746 8.74023 -35.1562 C 8.74023 -8.83789 30.3223 12.7441 56.5918 12.7441 Z M 56.5918 8.98438 C 32.2266 8.98438 12.4512 -10.791 12.4512 -35.1562 C 12.4512 -59.5215 32.2266 -79.2969 56.5918 -79.2969 C 80.957 -79.2969 100.781 -59.5215 100.781 -35.1562 C 100.781 -10.791 81.0059 8.98438 56.5918 8.98438 Z M 74.0234 -12.9395 C 82.7148 -12.9395 88.6719 -18.7012 88.6719 -27.4414 C 88.6719 -35.498 82.7637 -41.1133 75.0488 -41.1133 C 68.6035 -41.1133 64.4531 -37.8906 62.3047 -33.3496 L 62.0605 -33.3496 L 62.0605 -33.8867 C 62.0605 -46.582 66.9434 -54.0527 74.7559 -54.0527 C 78.8574 -54.0527 82.4707 -52.002 83.9355 -48.877 C 84.4727 -47.9492 84.9121 -47.5586 85.791 -47.5586 C 86.6211 -47.5586 87.1582 -48.1445 87.1582 -49.0723 C 87.1582 -49.5117 87.0605 -49.7559 86.9629 -50.0977 C 86.084 -53.1738 81.5918 -57.2754 74.8535 -57.2754 C 64.7949 -57.2754 58.7891 -48.8281 58.7891 -33.7891 C 58.7891 -28.0273 59.7168 -23.1934 61.2793 -20.2637 C 63.7695 -15.5273 68.5059 -12.9395 74.0234 -12.9395 Z M 47.0703 -13.3301 C 48.1445 -13.3301 48.7305 -14.0625 48.7305 -15.1855 L 48.7305 -23.8281 L 54.1992 -23.8281 C 55.127 -23.8281 55.7617 -24.5117 55.7617 -25.4395 C 55.7617 -26.3672 55.127 -27.002 54.1992 -27.002 L 48.7305 -27.002 L 48.7305 -54.6875 C 48.7305 -56.2988 47.6562 -57.2754 45.9961 -57.2754 C 44.3848 -57.2754 43.4082 -56.7383 42.3828 -55.1758 C 38.0371 -48.6816 28.7598 -34.7168 24.9512 -28.418 C 24.6094 -27.7344 24.3164 -27.0508 24.3164 -26.3184 C 24.3164 -24.7559 25.3418 -23.8281 27.0996 -23.8281 L 45.3613 -23.8281 L 45.3613 -15.1855 C 45.3613 -14.0625 46.0449 -13.3301 47.0703 -13.3301 Z M 45.3613 -27.002 L 28.125 -27.002 L 28.125 -27.2461 C 31.1035 -32.373 41.6504 -48.2422 45.1172 -53.4668 L 45.3613 -53.4668 Z M 73.9746 -16.0645 C 67.5293 -16.0645 62.8418 -20.752 62.8418 -27.2461 C 62.8418 -33.5449 67.5781 -38.0859 74.1211 -38.0859 C 80.6641 -38.0859 85.1562 -33.6914 85.1562 -27.1484 C 85.1562 -20.459 80.7129 -16.0645 73.9746 -16.0645 Z"/>
  </g>
  <g id="Light-M" transform="matrix(1 0 0 1 1095.42 1126)">
   <path d="M 57.7148 13.7695 C 84.5215 13.7695 106.689 -8.39844 106.689 -35.2051 C 106.689 -62.0117 84.4727 -84.1797 57.666 -84.1797 C 30.8594 -84.1797 8.74023 -62.0117 8.74023 -35.2051 C 8.74023 -8.39844 30.8594 13.7695 57.7148 13.7695 Z M 57.7148 7.4707 C 34.082 7.4707 15.0879 -11.5723 15.0879 -35.2051 C 15.0879 -58.8379 34.0332 -77.832 57.666 -77.832 C 81.2988 -77.832 100.342 -58.8379 100.342 -35.2051 C 100.391 -11.5723 81.2988 7.4707 57.7148 7.4707 Z M 74.7559 -12.9883 C 83.3984 -12.9883 89.4531 -18.6035 89.4531 -27.7832 C 89.4531 -36.2793 83.3496 -41.5039 76.1719 -41.5039 C 70.0684 -41.5039 66.3574 -38.3301 64.6484 -34.4238 L 64.3555 -34.4238 L 64.3555 -34.9609 C 64.3555 -45.9961 68.75 -52.7344 75.4883 -52.7344 C 79.0039 -52.7344 81.7871 -51.0254 83.1543 -48.5352 C 83.9355 -47.3633 84.5703 -46.875 85.791 -46.875 C 86.9629 -46.875 87.793 -47.7539 87.793 -49.0723 C 87.793 -49.6582 87.7441 -50.1465 87.5488 -50.6348 C 86.377 -53.9551 82.0312 -57.4707 75.6836 -57.4707 C 65.625 -57.4707 59.4238 -49.4141 59.4238 -33.9844 C 59.4238 -27.8809 60.4492 -23.1445 62.0605 -20.0684 C 64.6973 -15.1855 69.4824 -12.9883 74.7559 -12.9883 Z M 47.7051 -13.4766 C 49.3164 -13.4766 50.2441 -14.5508 50.2441 -16.4551 L 50.2441 -23.1445 L 54.248 -23.1445 C 55.6152 -23.1445 56.543 -24.0234 56.543 -25.4395 C 56.543 -26.8555 55.6152 -27.7344 54.248 -27.7344 L 50.2441 -27.7344 L 50.2441 -53.6133 C 50.2441 -55.957 48.584 -57.4707 46.1914 -57.4707 C 43.7988 -57.4707 42.334 -56.5918 40.918 -54.3457 C 36.5723 -47.3633 29.5898 -36.1816 25.9766 -29.9316 C 25.3418 -28.7109 25.0488 -27.832 25.0488 -26.709 C 25.0488 -24.4629 26.4648 -23.1445 28.7598 -23.1445 L 45.2637 -23.1445 L 45.2637 -16.4551 C 45.2637 -14.5996 46.1914 -13.4766 47.7051 -13.4766 Z M 45.2637 -27.7344 L 30.5176 -27.7344 L 30.5176 -28.0273 C 33.5449 -33.5449 41.1621 -45.6543 44.9707 -51.9043 L 45.2637 -51.9043 Z M 74.5605 -17.5293 C 68.9941 -17.5293 65.0391 -21.6797 65.0391 -27.5391 C 65.0391 -33.1543 68.9941 -37.1582 74.6094 -37.1582 C 80.2734 -37.1582 84.1309 -33.252 84.1309 -27.4414 C 84.1309 -21.3867 80.3711 -17.5293 74.5605 -17.5293 Z"/>
  </g>
  <g id="Regular-M" transform="matrix(1 0 0 1 1391.32 1126)">
   <path d="M 58.5449 14.5508 C 85.7422 14.5508 108.35 -8.00781 108.35 -35.2539 C 108.35 -62.4512 85.6934 -85.0586 58.4961 -85.0586 C 31.25 -85.0586 8.74023 -62.4512 8.74023 -35.2539 C 8.74023 -8.00781 31.2988 14.5508 58.5449 14.5508 Z M 58.5449 6.25 C 35.498 6.25 17.0898 -12.207 17.0898 -35.2539 C 17.0898 -58.252 35.4492 -76.7578 58.4961 -76.7578 C 81.4941 -76.7578 100 -58.252 100.049 -35.2539 C 100.098 -12.207 81.543 6.25 58.5449 6.25 Z M 75.3418 -12.9883 C 83.8867 -12.9883 90.0391 -18.5059 90.0391 -28.0273 C 90.0391 -36.8652 83.8379 -41.748 77.0508 -41.748 C 71.1914 -41.748 67.8223 -38.6719 66.4062 -35.2051 L 66.0645 -35.2051 L 66.0645 -35.7422 C 66.0645 -45.5566 70.1172 -51.709 76.0742 -51.709 C 79.1016 -51.709 81.2988 -50.2441 82.5684 -48.291 C 83.5449 -46.9727 84.2773 -46.3379 85.791 -46.3379 C 87.207 -46.3379 88.3301 -47.4121 88.3301 -49.0723 C 88.3301 -49.8047 88.2324 -50.4395 87.9395 -51.0742 C 86.5723 -54.5898 82.373 -57.5684 76.3184 -57.5684 C 66.2109 -57.5684 59.9121 -49.8535 59.9121 -34.1309 C 59.9121 -27.7344 60.9375 -23.0957 62.6953 -19.9219 C 65.4297 -14.9414 70.2148 -12.9883 75.3418 -12.9883 Z M 48.1934 -13.5742 C 50.2441 -13.5742 51.3672 -14.9414 51.3672 -17.3828 L 51.3672 -22.6074 L 54.248 -22.6074 C 55.957 -22.6074 57.1289 -23.6328 57.1289 -25.4395 C 57.1289 -27.2461 55.957 -28.3203 54.248 -28.3203 L 51.3672 -28.3203 L 51.3672 -52.7832 C 51.3672 -55.6641 49.2676 -57.5684 46.3379 -57.5684 C 43.3105 -57.5684 41.5039 -56.4941 39.8438 -53.6621 C 35.498 -46.3867 30.2246 -37.3535 26.7578 -31.0547 C 25.8789 -29.4922 25.5859 -28.3691 25.5859 -27.002 C 25.5859 -24.2188 27.3438 -22.6074 30.0293 -22.6074 L 45.1172 -22.6074 L 45.1172 -17.3828 C 45.1172 -14.9902 46.2891 -13.5742 48.1934 -13.5742 Z M 45.1172 -28.3203 L 32.3242 -28.3203 L 32.3242 -28.5645 C 35.3516 -34.4238 40.7715 -43.7012 44.8242 -50.6836 L 45.1172 -50.6836 Z M 75 -18.6035 C 70.1172 -18.6035 66.6504 -22.4121 66.6504 -27.7344 C 66.6504 -32.8613 70.1172 -36.5234 75.0488 -36.5234 C 80.0293 -36.5234 83.3984 -32.9102 83.3984 -27.6855 C 83.3984 -22.1191 80.127 -18.6035 75 -18.6035 Z"/>
  </g>
  <g id="Medium-M" transform="matrix(1 0 0 1 1687.33 1126)">
   <path d="M 59.2285 15.2832 C 86.8652 15.2832 109.717 -7.56836 109.717 -35.2051 C 109.717 -62.8906 86.8164 -85.7422 59.1797 -85.7422 C 31.543 -85.7422 8.74023 -62.8906 8.74023 -35.2051 C 8.74023 -7.56836 31.5918 15.2832 59.2285 15.2832 Z M 59.2285 5.17578 C 36.8164 5.17578 18.8477 -12.8418 18.8477 -35.2051 C 18.8477 -57.6172 36.7676 -75.6348 59.1797 -75.6348 C 81.5918 -75.6348 99.6094 -57.6172 99.6582 -35.2051 C 99.6582 -12.8418 81.6406 5.17578 59.2285 5.17578 Z M 76.0254 -13.2324 C 84.5215 -13.2324 90.4785 -18.8477 90.4785 -28.2715 C 90.4785 -36.8164 84.5703 -41.6992 78.0273 -41.6992 C 72.5586 -41.6992 69.3848 -38.8184 68.0176 -35.5469 L 67.627 -35.5469 C 67.627 -35.791 67.627 -36.084 67.627 -36.4746 C 67.627 -45.2148 71.3379 -50.7812 76.709 -50.7812 C 79.4922 -50.7812 81.4453 -49.4141 82.666 -47.6562 C 83.5938 -46.3867 84.4238 -45.8008 85.9863 -45.8008 C 87.5977 -45.8008 88.8672 -46.9238 88.8672 -48.7793 C 88.8672 -49.6582 88.7695 -50.293 88.4277 -51.0742 C 87.0117 -54.4434 82.9102 -57.3242 76.9531 -57.3242 C 67.0898 -57.3242 60.6445 -49.6582 60.6445 -34.375 C 60.6445 -28.2715 61.6211 -23.6328 63.3301 -20.4102 C 66.0156 -15.332 70.752 -13.2324 76.0254 -13.2324 Z M 49.0234 -13.6719 C 51.3184 -13.6719 52.6367 -15.2344 52.6367 -18.0176 L 52.6367 -22.5098 L 55.0293 -22.5098 C 56.8848 -22.5098 58.1055 -23.6816 58.1055 -25.6836 C 58.1055 -27.6855 56.8848 -28.9062 55.0293 -28.9062 L 52.5879 -28.9062 L 52.5879 -51.8066 C 52.5879 -55.2246 50.4395 -57.2754 46.9727 -57.2754 C 43.5547 -57.2754 41.5039 -56.1035 39.7461 -52.9785 C 35.8398 -46.2891 31.1035 -37.6953 28.0273 -31.9336 C 27.1973 -30.2734 26.8555 -28.9062 26.8555 -27.2949 C 26.8555 -24.2676 28.7109 -22.4609 31.6895 -22.4609 L 45.459 -22.4609 L 45.459 -18.0176 C 45.459 -15.2344 46.8262 -13.6719 49.0234 -13.6719 Z M 45.6543 -28.9062 L 34.2285 -28.9062 L 34.2285 -29.1504 C 36.9141 -34.5215 41.7969 -43.6523 45.4102 -50.0488 L 45.6543 -50.0488 Z M 75.6348 -19.5312 C 71.2891 -19.5312 68.1641 -22.9492 68.1641 -27.7832 C 68.1641 -32.4707 71.2402 -35.7422 75.6348 -35.7422 C 80.0781 -35.7422 83.1055 -32.5195 83.1055 -27.7344 C 83.1055 -22.7539 80.1758 -19.5312 75.6348 -19.5312 Z"/>
  </g>
  <g id="Semibold-M" transform="matrix(1 0 0 1 1983.5 1126)">
   <path d="M 59.7656 15.8203 C 87.7441 15.8203 110.791 -7.22656 110.791 -35.2051 C 110.791 -63.1836 87.6953 -86.2793 59.7168 -86.2793 C 31.7383 -86.2793 8.74023 -63.1836 8.74023 -35.2051 C 8.74023 -7.22656 31.7871 15.8203 59.7656 15.8203 Z M 59.7656 4.3457 C 37.8418 4.3457 20.2148 -13.2812 20.2148 -35.2051 C 20.2148 -57.1289 37.793 -74.8047 59.7168 -74.8047 C 81.6406 -74.8047 99.3164 -57.1289 99.3164 -35.2051 C 99.3652 -13.2812 81.6895 4.3457 59.7656 4.3457 Z M 76.5625 -13.4277 C 85.0098 -13.4277 90.8691 -19.0918 90.8691 -28.4668 C 90.8691 -36.8164 85.1074 -41.6504 78.7598 -41.6504 C 73.584 -41.6504 70.5566 -38.916 69.1895 -35.7422 L 68.8477 -35.7422 C 68.7988 -36.1328 68.7988 -36.4746 68.7988 -37.0117 C 68.7988 -44.9219 72.3145 -50.0488 77.1973 -50.0488 C 79.7852 -50.0488 81.543 -48.7793 82.7148 -47.1191 C 83.6426 -45.9473 84.5215 -45.3613 86.1328 -45.3613 C 87.8418 -45.3613 89.3066 -46.582 89.3066 -48.584 C 89.3066 -49.5117 89.1602 -50.2441 88.7695 -51.0742 C 87.3535 -54.3457 83.3496 -57.1289 77.4902 -57.1289 C 67.7734 -57.1289 61.1816 -49.5117 61.1816 -34.5215 C 61.1816 -28.7109 62.1582 -24.0723 63.8184 -20.8008 C 66.4551 -15.625 71.1914 -13.4277 76.5625 -13.4277 Z M 49.6582 -13.8184 C 52.0996 -13.8184 53.6133 -15.4297 53.6133 -18.5059 L 53.6133 -22.4121 L 55.6152 -22.4121 C 57.5684 -22.4121 58.8379 -23.6816 58.8379 -25.8789 C 58.8379 -28.0273 57.5684 -29.3945 55.5664 -29.3945 L 53.4668 -29.3945 L 53.4668 -51.0742 C 53.4668 -54.834 51.2695 -57.0312 47.4609 -57.0312 C 43.75 -57.0312 41.5039 -55.7617 39.6973 -52.4414 C 36.084 -46.1914 31.7383 -37.9883 29.0039 -32.666 C 28.2227 -30.9082 27.7832 -29.3457 27.7832 -27.5391 C 27.7832 -24.3164 29.7363 -22.3633 33.0078 -22.3633 L 45.7031 -22.3633 L 45.7031 -18.5059 C 45.7031 -15.4785 47.2168 -13.8184 49.6582 -13.8184 Z M 46.0449 -29.3457 L 35.7422 -29.3457 L 35.7422 -29.5898 C 38.1348 -34.5703 42.5781 -43.5547 45.8008 -49.5605 L 46.0449 -49.5605 Z M 76.123 -20.2637 C 72.168 -20.2637 69.3359 -23.3887 69.3359 -27.832 C 69.3359 -32.1289 72.168 -35.2051 76.123 -35.2051 C 80.1758 -35.2051 82.9102 -32.1777 82.9102 -27.7832 C 82.9102 -23.2422 80.2246 -20.2637 76.123 -20.2637 Z"/>
  </g>
  <g id="Bold-M" transform="matrix(1 0 0 1 2279.5 1126)">
   <path d="M 60.4492 16.5039 C 88.8672 16.5039 112.207 -6.78711 112.207 -35.2051 C 112.207 -63.623 88.8672 -86.9629 60.4492 -86.9629 C 32.0312 -86.9629 8.74023 -63.623 8.74023 -35.2051 C 8.74023 -6.78711 32.0801 16.5039 60.4492 16.5039 Z M 60.4492 3.22266 C 39.1602 3.22266 22.0215 -13.916 22.0215 -35.2051 C 22.0215 -56.4941 39.1602 -73.6816 60.4492 -73.6816 C 81.7383 -73.6816 98.877 -56.4941 98.9258 -35.2051 C 98.9258 -13.916 81.7871 3.22266 60.4492 3.22266 Z M 77.2461 -13.6719 C 85.5957 -13.6719 91.3574 -19.4336 91.3574 -28.7109 C 91.3574 -36.8164 85.8398 -41.5527 79.7852 -41.5527 C 74.9023 -41.5527 72.1191 -39.0137 70.8008 -36.084 L 70.459 -36.084 C 70.4102 -36.5234 70.3613 -37.0117 70.3613 -37.7441 C 70.3613 -44.5801 73.5352 -49.0723 77.8809 -49.0723 C 80.1758 -49.0723 81.6895 -47.9004 82.8125 -46.4844 C 83.6914 -45.4102 84.6191 -44.7754 86.377 -44.7754 C 88.1836 -44.7754 89.8926 -46.0938 89.8926 -48.2422 C 89.8926 -49.3652 89.6973 -50.1465 89.2578 -51.0254 C 87.793 -54.1992 83.8867 -56.8848 78.125 -56.8848 C 68.6523 -56.8848 61.9141 -49.3164 61.9141 -34.7656 C 61.9141 -29.248 62.8418 -24.6582 64.502 -21.2891 C 67.041 -16.0156 71.7285 -13.6719 77.2461 -13.6719 Z M 50.4395 -13.9648 C 53.1738 -13.9648 54.9316 -15.7227 54.9316 -19.1406 L 54.9316 -22.3145 L 56.3965 -22.3145 C 58.4473 -22.3145 59.8145 -23.7305 59.8145 -26.123 C 59.8145 -28.4668 58.4473 -30.0293 56.3477 -30.0293 L 54.6875 -30.0293 L 54.6875 -50.1465 C 54.6875 -54.3945 52.3926 -56.7383 48.0957 -56.7383 C 43.9941 -56.7383 41.5039 -55.3711 39.5996 -51.7578 C 36.4258 -46.0449 32.6172 -38.3789 30.3223 -33.5938 C 29.541 -31.6895 29.0527 -29.8828 29.0527 -27.832 C 29.0527 -24.3164 31.0547 -22.2168 34.7168 -22.2168 L 46.0449 -22.2168 L 46.0449 -19.1406 C 46.0449 -15.7227 47.7539 -13.9648 50.4395 -13.9648 Z M 46.582 -29.9316 L 37.6953 -29.9316 L 37.6953 -30.1758 C 39.6973 -34.668 43.6035 -43.5059 46.3379 -48.9258 L 46.582 -48.9258 Z M 76.7578 -21.2402 C 73.3398 -21.2402 70.8496 -23.9746 70.8496 -27.9297 C 70.8496 -31.7383 73.3398 -34.4238 76.8066 -34.4238 C 80.2246 -34.4238 82.666 -31.7383 82.666 -27.8809 C 82.666 -23.877 80.2734 -21.2402 76.7578 -21.2402 Z"/>
  </g>
  <g id="Heavy-M" transform="matrix(1 0 0 1 2575.19 1126)">
   <path d="M 61.4746 17.5781 C 90.5273 17.5781 114.258 -6.15234 114.258 -35.2051 C 114.258 -64.2578 90.5273 -87.9883 61.4746 -87.9883 C 32.4219 -87.9883 8.74023 -64.2578 8.74023 -35.2051 C 8.74023 -6.15234 32.4707 17.5781 61.4746 17.5781 Z M 61.4746 1.66016 C 41.1133 1.66016 24.6582 -14.8438 24.6582 -35.2051 C 24.6582 -55.5664 41.1133 -72.0703 61.4746 -72.0703 C 81.8359 -72.0703 98.3398 -55.5664 98.3398 -35.2051 C 98.3398 -14.8438 81.8848 1.66016 61.4746 1.66016 Z M 78.2715 -14.0137 C 86.5234 -14.0137 92.041 -19.9219 92.041 -29.0527 C 92.041 -36.8164 86.9629 -41.4551 81.2012 -41.4551 C 76.8555 -41.4551 74.4141 -39.209 73.0957 -36.5234 L 72.8027 -36.5234 C 72.7051 -37.1582 72.6562 -37.793 72.6562 -38.8184 C 72.6562 -44.0918 75.3418 -47.6562 78.8086 -47.6562 C 80.7617 -47.6562 81.9336 -46.6797 82.9102 -45.5078 C 83.7891 -44.5801 84.8145 -43.9453 86.6699 -43.9453 C 88.7207 -43.9453 90.7227 -45.3613 90.7227 -47.8516 C 90.7227 -49.1211 90.4785 -49.9512 89.9414 -51.0254 C 88.4766 -54.0039 84.668 -56.4941 79.0527 -56.4941 C 69.9219 -56.4941 62.9883 -49.0234 62.9883 -35.0586 C 62.9883 -30.0293 63.8672 -25.4883 65.4297 -22.0215 C 67.8711 -16.5527 72.5586 -14.0137 78.2715 -14.0137 Z M 51.6602 -14.1602 C 54.7363 -14.1602 56.7871 -16.1133 56.7871 -20.0684 L 56.7871 -22.168 L 57.5195 -22.168 C 59.7656 -22.168 61.2305 -23.7793 61.2305 -26.4648 C 61.2305 -29.1504 59.7656 -30.9082 57.4707 -30.9082 L 56.4453 -30.9082 L 56.4453 -48.7305 C 56.4453 -53.7109 54.0527 -56.25 49.0234 -56.25 C 44.3359 -56.25 41.5039 -54.7852 39.4531 -50.7324 C 36.9141 -45.8496 33.9355 -38.9648 32.2266 -34.9121 C 31.4941 -32.8613 30.8594 -30.6641 30.8594 -28.2715 C 30.8594 -24.3652 33.0566 -22.0215 37.207 -22.0215 L 46.5332 -22.0215 L 46.5332 -20.0684 C 46.5332 -16.1133 48.5352 -14.1602 51.6602 -14.1602 Z M 47.3145 -30.8105 L 40.5273 -30.8105 L 40.5273 -31.0059 C 41.9922 -34.8145 45.1172 -43.3594 47.168 -47.998 L 47.3145 -47.998 Z M 77.6855 -22.6074 C 75.0488 -22.6074 73.0957 -24.8047 73.0957 -28.0273 C 73.0957 -31.1523 75 -33.3496 77.7344 -33.3496 C 80.3711 -33.3496 82.2754 -31.1523 82.2754 -27.9785 C 82.2754 -24.8047 80.3711 -22.6074 77.6855 -22.6074 Z"/>
  </g>
  <g id="Black-M" transform="matrix(1 0 0 1 2871 1126)">
   <path d="M 62.4023 18.457 C 91.9922 18.457 116.064 -5.61523 116.064 -35.2051 C 116.064 -64.7949 91.9922 -88.8672 62.4023 -88.8672 C 32.8125 -88.8672 8.74023 -64.7949 8.74023 -35.2051 C 8.74023 -5.61523 32.8125 18.457 62.4023 18.457 Z M 62.4023 0.195312 C 42.8223 0.195312 27.002 -15.625 27.002 -35.2051 C 27.002 -54.7363 42.8223 -70.6055 62.4023 -70.6055 C 81.9824 -70.6055 97.8027 -54.7363 97.8027 -35.2051 C 97.8027 -15.625 81.9824 0.195312 62.4023 0.195312 Z M 79.1504 -14.3555 C 87.3047 -14.3555 92.6758 -20.3613 92.6758 -29.3457 C 92.6758 -36.8164 87.8906 -41.3574 82.5195 -41.3574 C 78.6133 -41.3574 76.4648 -39.4043 75.1465 -36.9141 L 74.9023 -36.9141 C 74.7559 -37.6465 74.707 -38.4766 74.707 -39.7461 C 74.707 -43.6523 77.002 -46.3867 79.6387 -46.3867 C 81.25 -46.3867 82.1289 -45.5566 83.0566 -44.6289 C 83.8379 -43.8477 84.9609 -43.1641 86.9141 -43.1641 C 89.1602 -43.1641 91.4551 -44.7266 91.4551 -47.4609 C 91.4551 -48.877 91.1621 -49.8047 90.5273 -51.0254 C 89.0625 -53.8086 85.4004 -56.1523 79.9316 -56.1523 C 71.0938 -56.1523 63.9648 -48.7305 63.9648 -35.3516 C 63.9648 -30.7129 64.7949 -26.2207 66.2598 -22.6562 C 68.6035 -17.041 73.291 -14.3555 79.1504 -14.3555 Z M 52.6855 -14.3555 C 56.1523 -14.3555 58.4961 -16.4551 58.4961 -20.8496 L 58.4961 -22.0215 C 60.9375 -22.0215 62.5 -23.7793 62.5 -26.7578 C 62.5 -29.6875 60.9375 -31.7383 58.4473 -31.7383 L 58.0566 -31.7383 L 58.0566 -47.5098 C 58.0566 -53.0762 55.5176 -55.8594 49.9023 -55.8594 C 44.6777 -55.8594 41.5039 -54.2969 39.3555 -49.8047 C 37.3535 -45.6543 35.0586 -39.4531 33.9355 -36.084 C 33.2031 -33.9355 32.5195 -31.3965 32.5195 -28.7109 C 32.5195 -24.4141 34.8145 -21.875 39.4043 -21.875 L 46.9727 -21.875 L 46.9727 -20.8496 C 46.9727 -16.4551 49.2188 -14.3555 52.6855 -14.3555 Z M 47.998 -31.5918 L 43.0176 -31.5918 L 43.0176 -31.7871 C 44.043 -34.9609 46.4355 -43.2617 47.9004 -47.168 L 47.998 -47.168 Z M 78.5645 -23.8281 C 76.5625 -23.8281 75.0977 -25.5371 75.0977 -28.0762 C 75.0977 -30.6152 76.5625 -32.373 78.5645 -32.373 C 80.4688 -32.373 81.9336 -30.6152 81.9336 -28.0762 C 81.9336 -25.5859 80.4688 -23.8281 78.5645 -23.8281 Z"/>
  </g>
  <g id="Ultralight-L" transform="matrix(1 0 0 1 487.641 1556)">
   <path d="M 72.0703 25.7324 C 105.566 25.7324 132.91 -1.61133 132.91 -35.1074 C 132.91 -68.5547 105.566 -95.8984 72.0703 -95.8984 C 38.623 -95.8984 11.2793 -68.5547 11.2793 -35.1074 C 11.2793 -1.61133 38.623 25.7324 72.0703 25.7324 Z M 72.0703 23.2422 C 39.9414 23.2422 13.7695 -2.97852 13.7695 -35.1074 C 13.7695 -67.2363 39.9414 -93.4082 72.0703 -93.4082 C 104.199 -93.4082 130.42 -67.2363 130.371 -35.1074 C 130.371 -2.97852 104.199 23.2422 72.0703 23.2422 Z M 94.873 -6.49414 C 106.104 -6.49414 113.721 -13.9648 113.721 -24.9023 C 113.721 -34.9121 106.25 -42.4805 95.8496 -42.4805 C 87.2559 -42.4805 81.4941 -38.2812 78.3203 -31.8359 L 78.125 -31.8359 L 78.125 -32.5684 C 78.125 -50.3906 84.7656 -60.7422 95.8008 -60.7422 C 101.611 -60.7422 106.982 -57.7148 109.033 -53.125 C 109.424 -52.1484 109.863 -51.8066 110.645 -51.8066 C 111.426 -51.8066 111.816 -52.2949 111.816 -53.125 C 111.816 -53.4668 111.768 -53.6621 111.719 -53.9551 C 110.84 -57.666 104.932 -63.5254 95.8496 -63.5254 C 82.959 -63.5254 75.3418 -52.2461 75.3418 -33.2031 C 75.3418 -26.0742 76.4648 -19.7754 78.3691 -16.1133 C 81.4453 -10.1074 87.5488 -6.49414 94.873 -6.49414 Z M 60.1562 -6.83594 C 61.0352 -6.83594 61.5723 -7.4707 61.5723 -8.20312 L 61.5723 -21.1426 L 69.873 -21.1426 C 70.7031 -21.1426 71.2891 -21.8262 71.2891 -22.5586 C 71.2891 -23.291 70.7031 -23.9746 69.873 -23.9746 L 61.5723 -23.9746 L 61.5723 -61.3281 C 61.5723 -62.6953 60.6934 -63.5254 59.2285 -63.5254 C 57.8125 -63.5254 56.9824 -63.1348 55.957 -61.7188 C 50.3418 -53.7109 36.377 -33.252 31.3477 -25.1465 C 31.0547 -24.707 30.7617 -24.0234 30.7617 -23.4375 C 30.7617 -22.0215 31.6895 -21.1426 33.4961 -21.1426 L 58.6426 -21.1426 L 58.6426 -8.20312 C 58.6426 -7.4707 59.3262 -6.83594 60.1562 -6.83594 Z M 58.6426 -23.9746 L 34.1797 -23.9746 L 34.1797 -24.2676 C 38.0371 -30.5176 54.1992 -54.2969 58.3496 -60.1562 L 58.6426 -60.1562 Z M 94.9707 -9.22852 C 85.791 -9.22852 79.1992 -15.7227 79.1992 -24.6582 C 79.1992 -33.3496 85.8887 -39.6973 95.166 -39.6973 C 104.395 -39.6973 110.791 -33.6426 110.791 -24.5605 C 110.791 -15.2832 104.492 -9.22852 94.9707 -9.22852 Z"/>
  </g>
  <g id="Thin-L" transform="matrix(1 0 0 1 783.717 1556)">
   <path d="M 72.7051 26.3184 C 106.494 26.3184 134.131 -1.36719 134.131 -35.1074 C 134.131 -68.8965 106.445 -96.582 72.7051 -96.582 C 38.916 -96.582 11.2793 -68.8965 11.2793 -35.1074 C 11.2793 -1.36719 38.916 26.3184 72.7051 26.3184 Z M 72.7051 22.3145 C 41.0156 22.3145 15.2344 -3.41797 15.2344 -35.1074 C 15.2344 -66.8457 41.0156 -92.5781 72.7051 -92.5781 C 104.395 -92.5781 130.127 -66.8457 130.176 -35.1074 C 130.176 -3.41797 104.395 22.3145 72.7051 22.3145 Z M 95.2637 -6.49414 C 106.494 -6.49414 114.16 -13.916 114.16 -25.0488 C 114.16 -35.3516 106.592 -42.6758 96.5332 -42.6758 C 88.0859 -42.6758 82.5684 -38.5254 79.6875 -32.4707 L 79.3945 -32.4707 L 79.3945 -33.1543 C 79.3945 -50.0488 85.791 -59.9609 96.2402 -59.9609 C 101.709 -59.9609 106.592 -57.1777 108.594 -52.9297 C 109.131 -51.8066 109.668 -51.3672 110.645 -51.3672 C 111.67 -51.3672 112.207 -52.0508 112.207 -53.125 C 112.207 -53.5645 112.158 -53.8574 112.012 -54.248 C 110.986 -58.1055 105.176 -63.623 96.3379 -63.623 C 83.3984 -63.623 75.6836 -52.5879 75.6836 -33.3008 C 75.6836 -25.9766 76.8555 -19.7266 78.8086 -15.9668 C 81.9824 -9.91211 88.0859 -6.49414 95.2637 -6.49414 Z M 60.498 -6.93359 C 61.7188 -6.93359 62.4512 -7.76367 62.4512 -8.93555 L 62.4512 -20.752 L 69.9219 -20.752 C 70.9961 -20.752 71.7285 -21.5332 71.7285 -22.5586 C 71.7285 -23.584 70.9961 -24.4141 69.9219 -24.4141 L 62.4512 -24.4141 L 62.4512 -60.6934 C 62.4512 -62.5 61.2305 -63.623 59.3262 -63.623 C 57.4707 -63.623 56.3965 -63.0371 55.127 -61.2305 C 49.5117 -52.9785 36.8164 -34.082 31.8848 -25.9766 C 31.4941 -25.2441 31.1523 -24.4629 31.1523 -23.6328 C 31.1523 -21.8262 32.3242 -20.752 34.4238 -20.752 L 58.5938 -20.752 L 58.5938 -8.93555 C 58.5938 -7.76367 59.375 -6.93359 60.498 -6.93359 Z M 58.5938 -24.4141 L 35.5469 -24.4141 L 35.5469 -24.707 C 39.4043 -31.2012 53.9062 -52.832 58.252 -59.2285 L 58.5938 -59.2285 Z M 95.3125 -10.0586 C 86.6699 -10.0586 80.4199 -16.2598 80.4199 -24.8047 C 80.4199 -33.1543 86.7188 -39.209 95.459 -39.209 C 104.199 -39.209 110.205 -33.3496 110.205 -24.7559 C 110.205 -15.8691 104.297 -10.0586 95.3125 -10.0586 Z"/>
  </g>
  <g id="Light-L" transform="matrix(1 0 0 1 1079.21 1556)">
   <path d="M 73.9258 27.4902 C 108.301 27.4902 136.572 -0.830078 136.572 -35.1562 C 136.572 -69.5312 108.252 -97.8516 73.877 -97.8516 C 39.5508 -97.8516 11.2793 -69.5312 11.2793 -35.1562 C 11.2793 -0.830078 39.5508 27.4902 73.9258 27.4902 Z M 73.9258 20.6055 C 43.0664 20.6055 18.1641 -4.3457 18.1641 -35.1562 C 18.1641 -66.0156 43.0664 -90.918 73.877 -90.918 C 104.736 -90.918 129.639 -66.0156 129.688 -35.1562 C 129.736 -4.3457 104.785 20.6055 73.9258 20.6055 Z M 96.0938 -6.49414 C 107.275 -6.49414 115.039 -13.8184 115.039 -25.4395 C 115.039 -36.1816 107.275 -43.1152 97.7539 -43.1152 C 89.7461 -43.1152 84.7168 -39.0137 82.2754 -33.6426 L 81.9336 -33.6426 L 81.9336 -34.3262 C 81.9336 -49.4141 87.793 -58.4961 97.0703 -58.4961 C 101.855 -58.4961 105.859 -56.0547 107.715 -52.5879 C 108.545 -51.1719 109.277 -50.5859 110.693 -50.5859 C 112.061 -50.5859 112.988 -51.5625 112.988 -53.125 C 112.988 -53.7598 112.891 -54.2969 112.646 -54.8828 C 111.279 -59.0332 105.664 -63.8184 97.2656 -63.8184 C 84.2773 -63.8184 76.3672 -53.2227 76.3672 -33.5449 C 76.3672 -25.7812 77.6367 -19.6777 79.7363 -15.7715 C 83.0566 -9.57031 89.1602 -6.49414 96.0938 -6.49414 Z M 61.2305 -7.08008 C 63.0371 -7.08008 64.1113 -8.30078 64.1113 -10.3516 L 64.1113 -19.9707 L 69.9707 -19.9707 C 71.5332 -19.9707 72.5586 -20.9961 72.5586 -22.6074 C 72.5586 -24.1699 71.5332 -25.2441 69.9707 -25.2441 L 64.1113 -25.2441 L 64.1113 -59.4727 C 64.1113 -62.1094 62.2559 -63.8184 59.5215 -63.8184 C 56.7871 -63.8184 55.127 -62.8906 53.5156 -60.3027 C 47.9004 -51.5625 37.7441 -35.7422 33.0078 -27.6367 C 32.3242 -26.3672 31.9824 -25.293 31.9824 -24.0723 C 31.9824 -21.4844 33.5938 -19.9707 36.2793 -19.9707 L 58.4473 -19.9707 L 58.4473 -10.3516 C 58.4473 -8.34961 59.5215 -7.08008 61.2305 -7.08008 Z M 58.4473 -25.2441 L 38.1836 -25.2441 L 38.1836 -25.5371 C 42.0898 -32.4707 53.3203 -49.9512 58.1055 -57.4707 L 58.4473 -57.4707 Z M 95.9473 -11.6699 C 88.3301 -11.6699 82.8613 -17.2852 82.8613 -25.1465 C 82.8613 -32.7148 88.3301 -38.1836 96.0449 -38.1836 C 103.76 -38.1836 109.082 -32.8613 109.082 -25.0488 C 109.082 -16.9434 103.906 -11.6699 95.9473 -11.6699 Z"/>
  </g>
  <g id="Regular-L" transform="matrix(1 0 0 1 1374.99 1556)">
   <path d="M 74.8535 28.3691 C 109.668 28.3691 138.428 -0.390625 138.428 -35.2051 C 138.428 -70.0195 109.619 -98.7793 74.8047 -98.7793 C 39.9902 -98.7793 11.2793 -70.0195 11.2793 -35.2051 C 11.2793 -0.390625 40.0391 28.3691 74.8535 28.3691 Z M 74.8535 19.2871 C 44.6289 19.2871 20.4102 -5.0293 20.4102 -35.2051 C 20.4102 -65.3809 44.5801 -89.6973 74.8047 -89.6973 C 104.98 -89.6973 129.297 -65.3809 129.346 -35.2051 C 129.395 -5.0293 105.029 19.2871 74.8535 19.2871 Z M 96.7285 -6.54297 C 107.861 -6.54297 115.674 -13.7207 115.674 -25.7324 C 115.674 -36.8164 107.764 -43.4082 98.6816 -43.4082 C 90.9668 -43.4082 86.3281 -39.4043 84.2773 -34.5703 L 83.8379 -34.5703 L 83.8379 -35.2051 C 83.8379 -48.877 89.3555 -57.3242 97.7051 -57.3242 C 102.002 -57.3242 105.322 -55.2246 107.031 -52.2949 C 108.105 -50.7324 108.984 -50 110.693 -50 C 112.354 -50 113.574 -51.2207 113.574 -53.125 C 113.574 -53.9062 113.428 -54.5898 113.135 -55.3223 C 111.523 -59.7168 106.006 -63.9648 97.998 -63.9648 C 84.9121 -63.9648 76.9043 -53.7109 76.9043 -33.6914 C 76.9043 -25.6836 78.2227 -19.5801 80.4199 -15.625 C 83.8379 -9.27734 89.9902 -6.54297 96.7285 -6.54297 Z M 61.8164 -7.17773 C 64.0625 -7.17773 65.3809 -8.74023 65.3809 -11.4258 L 65.3809 -19.3848 L 69.9707 -19.3848 C 71.9238 -19.3848 73.2422 -20.6055 73.2422 -22.6074 C 73.2422 -24.6094 71.9238 -25.8301 69.9707 -25.8301 L 65.3809 -25.8301 L 65.3809 -58.5449 C 65.3809 -61.8164 63.0371 -63.9648 59.668 -63.9648 C 56.2988 -63.9648 54.248 -62.7441 52.2949 -59.5703 C 46.6797 -50.4395 38.4766 -37.0117 33.8867 -28.9062 C 32.959 -27.1973 32.5684 -25.9277 32.5684 -24.3652 C 32.5684 -21.2402 34.5703 -19.3848 37.6953 -19.3848 L 58.3496 -19.3848 L 58.3496 -11.4258 C 58.3496 -8.78906 59.668 -7.17773 61.8164 -7.17773 Z M 58.3496 -25.8301 L 40.1855 -25.8301 L 40.1855 -26.1719 C 44.1406 -33.4473 52.9297 -47.7539 57.959 -56.1523 L 58.3496 -56.1523 Z M 96.4355 -12.8906 C 89.5508 -12.8906 84.668 -18.1152 84.668 -25.3906 C 84.668 -32.4219 89.5508 -37.4023 96.4844 -37.4023 C 103.467 -37.4023 108.203 -32.5195 108.203 -25.293 C 108.203 -17.7246 103.613 -12.8906 96.4355 -12.8906 Z"/>
  </g>
  <g id="Medium-L" transform="matrix(1 0 0 1 1670.9 1556)">
   <path d="M 75.6348 29.1992 C 110.938 29.1992 140.039 0.0488281 140.039 -35.2051 C 140.039 -70.459 110.889 -99.6094 75.5859 -99.6094 C 40.332 -99.6094 11.2793 -70.459 11.2793 -35.2051 C 11.2793 0.0488281 40.3809 29.1992 75.6348 29.1992 Z M 75.6348 18.0664 C 46.1426 18.0664 22.4609 -5.71289 22.4609 -35.2051 C 22.4609 -64.6973 46.0938 -88.4766 75.5859 -88.4766 C 105.127 -88.4766 128.857 -64.6973 128.906 -35.2051 C 128.955 -5.71289 105.176 18.0664 75.6348 18.0664 Z M 97.4609 -6.73828 C 108.496 -6.73828 116.26 -14.0137 116.26 -25.9766 C 116.26 -36.9629 108.545 -43.4082 99.7559 -43.4082 C 92.4316 -43.4082 88.0371 -39.5996 86.0352 -35.0098 L 85.6445 -35.0098 C 85.5957 -35.3516 85.5957 -35.6445 85.5957 -36.0352 C 85.5957 -48.4863 90.7715 -56.25 98.3887 -56.25 C 102.393 -56.25 105.371 -54.2969 106.982 -51.6602 C 108.057 -50.0977 109.033 -49.3652 110.889 -49.3652 C 112.695 -49.3652 114.16 -50.7324 114.16 -52.832 C 114.16 -53.8086 114.014 -54.541 113.672 -55.4199 C 112.012 -59.668 106.592 -63.7695 98.6816 -63.7695 C 85.8398 -63.7695 77.6855 -53.6621 77.6855 -33.9355 C 77.6855 -26.123 78.9551 -20.1172 81.1035 -16.0156 C 84.5215 -9.57031 90.625 -6.73828 97.4609 -6.73828 Z M 62.6465 -7.32422 C 65.2344 -7.32422 66.748 -9.08203 66.748 -12.207 L 66.748 -19.1895 L 70.7031 -19.1895 C 72.8027 -19.1895 74.2188 -20.5566 74.2188 -22.8516 C 74.2188 -25.0977 72.8027 -26.5137 70.6543 -26.5137 L 66.6992 -26.5137 L 66.6992 -57.5195 C 66.6992 -61.3281 64.209 -63.7207 60.2539 -63.7207 C 56.3965 -63.7207 54.0527 -62.3535 52.002 -58.7891 C 46.7773 -50.1465 39.4043 -37.5977 35.2051 -29.9805 C 34.2773 -28.0762 33.8379 -26.5625 33.8379 -24.707 C 33.8379 -21.1914 35.9863 -19.1406 39.502 -19.1406 L 58.5938 -19.1406 L 58.5938 -12.207 C 58.5938 -9.13086 60.1562 -7.32422 62.6465 -7.32422 Z M 58.7891 -26.5137 L 42.334 -26.5137 L 42.334 -26.8066 C 45.8984 -33.7402 53.7598 -47.3145 58.4473 -55.3223 L 58.7891 -55.3223 Z M 97.0703 -13.9648 C 90.8691 -13.9648 86.377 -18.75 86.377 -25.4883 C 86.377 -31.9824 90.8203 -36.6211 97.1191 -36.6211 C 103.467 -36.6211 107.812 -32.0801 107.812 -25.3906 C 107.812 -18.457 103.613 -13.9648 97.0703 -13.9648 Z"/>
  </g>
  <g id="Semibold-L" transform="matrix(1 0 0 1 1967 1556)">
   <path d="M 76.2695 29.7852 C 111.914 29.7852 141.26 0.439453 141.26 -35.2051 C 141.26 -70.8496 111.865 -100.244 76.2207 -100.244 C 40.5762 -100.244 11.2793 -70.8496 11.2793 -35.2051 C 11.2793 0.439453 40.625 29.7852 76.2695 29.7852 Z M 76.2695 17.0898 C 47.3145 17.0898 24.0234 -6.25 24.0234 -35.2051 C 24.0234 -64.209 47.2656 -87.5 76.2207 -87.5 C 105.225 -87.5 128.516 -64.209 128.564 -35.2051 C 128.613 -6.25 105.273 17.0898 76.2695 17.0898 Z M 98.0469 -6.93359 C 109.033 -6.93359 116.65 -14.209 116.65 -26.2207 C 116.65 -37.0117 109.131 -43.4082 100.586 -43.4082 C 93.5059 -43.4082 89.3555 -39.6973 87.4512 -35.3516 L 87.0117 -35.3516 C 86.9629 -35.7422 86.9629 -36.1328 86.9629 -36.6699 C 86.9629 -48.1934 91.8457 -55.4199 98.9258 -55.4199 C 102.637 -55.4199 105.371 -53.6133 106.934 -51.1719 C 108.057 -49.6582 109.082 -48.877 111.035 -48.877 C 112.988 -48.877 114.648 -50.3418 114.648 -52.6367 C 114.648 -53.7109 114.453 -54.541 114.062 -55.4688 C 112.354 -59.668 107.031 -63.623 99.2676 -63.623 C 86.5723 -63.623 78.2715 -53.5645 78.2715 -34.1309 C 78.2715 -26.5137 79.541 -20.5078 81.6406 -16.3574 C 85.0098 -9.81445 91.1621 -6.93359 98.0469 -6.93359 Z M 63.2812 -7.42188 C 66.1133 -7.42188 67.8223 -9.32617 67.8223 -12.793 L 67.8223 -19.043 L 71.2402 -19.043 C 73.4863 -19.043 75 -20.5078 75 -22.998 C 75 -25.4883 73.4863 -27.0508 71.1914 -27.0508 L 67.7246 -27.0508 L 67.7246 -56.6895 C 67.7246 -60.9863 65.0879 -63.5254 60.7422 -63.5254 C 56.4941 -63.5254 53.9551 -62.0605 51.7578 -58.2031 C 46.8262 -49.9023 40.0879 -38.0371 36.2305 -30.7617 C 35.3027 -28.7598 34.8145 -27.002 34.8145 -24.9512 C 34.8145 -21.1914 37.0605 -18.9453 40.8691 -18.9453 L 58.8379 -18.9453 L 58.8379 -12.793 C 58.8379 -9.375 60.5469 -7.42188 63.2812 -7.42188 Z M 59.1309 -27.002 L 43.9941 -27.002 L 43.9941 -27.2949 C 47.3145 -33.9355 54.4434 -46.9238 58.7891 -54.6875 L 59.1309 -54.6875 Z M 97.6074 -14.7949 C 91.8457 -14.7949 87.6953 -19.2383 87.6953 -25.5371 C 87.6953 -31.6406 91.7969 -35.9863 97.6562 -35.9863 C 103.516 -35.9863 107.52 -31.7383 107.52 -25.4883 C 107.52 -18.9941 103.613 -14.7949 97.6074 -14.7949 Z"/>
  </g>
  <g id="Bold-L" transform="matrix(1 0 0 1 2262.9 1556)">
   <path d="M 77.0996 30.6152 C 113.184 30.6152 142.92 0.878906 142.92 -35.2051 C 142.92 -71.3379 113.135 -101.025 77.0508 -101.025 C 40.918 -101.025 11.2793 -71.3379 11.2793 -35.2051 C 11.2793 0.878906 40.9668 30.6152 77.0996 30.6152 Z M 77.0996 15.8691 C 48.7793 15.8691 26.0742 -6.93359 26.0742 -35.2051 C 26.0742 -63.4766 48.7793 -86.2793 77.0508 -86.2793 C 105.322 -86.2793 128.125 -63.4766 128.125 -35.2051 C 128.174 -6.93359 105.371 15.8691 77.0996 15.8691 Z M 98.8281 -7.17773 C 109.717 -7.17773 117.236 -14.502 117.236 -26.4648 C 117.236 -37.1582 109.912 -43.4082 101.66 -43.4082 C 94.9707 -43.4082 91.1133 -39.8926 89.2578 -35.791 L 88.8184 -35.791 C 88.7695 -36.2793 88.7695 -36.7676 88.7695 -37.5 C 88.7695 -47.7539 93.2617 -54.3457 99.6582 -54.3457 C 103.027 -54.3457 105.42 -52.6855 106.934 -50.4883 C 108.008 -49.0723 109.131 -48.2422 111.23 -48.2422 C 113.379 -48.2422 115.283 -49.8047 115.283 -52.3438 C 115.283 -53.5645 115.039 -54.4922 114.551 -55.5176 C 112.793 -59.668 107.568 -63.3789 99.9512 -63.3789 C 87.5 -63.3789 79.0039 -53.4668 79.0039 -34.3262 C 79.0039 -26.9531 80.2734 -20.9961 82.373 -16.7969 C 85.6934 -10.1074 91.7969 -7.17773 98.8281 -7.17773 Z M 64.1113 -7.56836 C 67.2852 -7.56836 69.2383 -9.66797 69.2383 -13.5742 L 69.2383 -18.7988 L 71.9238 -18.7988 C 74.4141 -18.7988 76.0254 -20.459 76.0254 -23.1934 C 76.0254 -25.9766 74.4141 -27.7344 71.9238 -27.7344 L 69.043 -27.7344 L 69.043 -55.6641 C 69.043 -60.498 66.2598 -63.2324 61.377 -63.2324 C 56.6406 -63.2324 53.7598 -61.6699 51.4648 -57.4219 C 46.9238 -49.5605 41.0645 -38.623 37.5977 -31.8359 C 36.6211 -29.6387 36.0352 -27.6367 36.0352 -25.293 C 36.0352 -21.1914 38.4766 -18.75 42.6758 -18.75 L 59.1309 -18.75 L 59.1309 -13.5742 C 59.1309 -9.66797 61.0352 -7.56836 64.1113 -7.56836 Z M 59.5703 -27.6855 L 46.1426 -27.6855 L 46.1426 -27.9785 C 49.1211 -34.1797 55.2734 -46.4844 59.2773 -53.8574 L 59.5703 -53.8574 Z M 98.291 -15.8691 C 93.1152 -15.8691 89.4531 -19.9219 89.4531 -25.6836 C 89.4531 -31.2012 93.1152 -35.1562 98.3398 -35.1562 C 103.516 -35.1562 107.129 -31.25 107.129 -25.6348 C 107.129 -19.7266 103.613 -15.8691 98.291 -15.8691 Z"/>
  </g>
  <g id="Heavy-L" transform="matrix(1 0 0 1 2558.42 1556)">
   <path d="M 78.2715 31.7871 C 115.039 31.7871 145.264 1.61133 145.264 -35.2051 C 145.264 -72.0215 115.039 -102.197 78.2227 -102.197 C 41.4551 -102.197 11.2793 -72.0215 11.2793 -35.2051 C 11.2793 1.61133 41.4551 31.7871 78.2715 31.7871 Z M 78.2715 14.0137 C 50.9766 14.0137 29.0527 -7.95898 29.0527 -35.2051 C 29.0527 -62.5 50.9766 -84.4727 78.2227 -84.4727 C 105.518 -84.4727 127.49 -62.5 127.49 -35.2051 C 127.539 -7.95898 105.518 14.0137 78.2715 14.0137 Z M 99.9023 -7.4707 C 110.693 -7.4707 118.018 -14.9414 118.018 -26.8555 C 118.018 -37.3047 111.035 -43.4082 103.271 -43.4082 C 97.1191 -43.4082 93.6035 -40.1855 91.8945 -36.4258 L 91.5039 -36.4258 C 91.4062 -37.0605 91.3574 -37.7441 91.3574 -38.7207 C 91.3574 -47.168 95.3125 -52.7344 100.684 -52.7344 C 103.613 -52.7344 105.469 -51.3184 106.836 -49.5605 C 107.959 -48.1934 109.229 -47.3145 111.475 -47.3145 C 113.916 -47.3145 116.162 -49.0723 116.162 -51.9531 C 116.162 -53.418 115.918 -54.4434 115.332 -55.6641 C 113.477 -59.668 108.398 -63.0859 101.025 -63.0859 C 88.8672 -63.0859 80.127 -53.3691 80.127 -34.668 C 80.127 -27.6367 81.3477 -21.7773 83.3984 -17.3828 C 86.6699 -10.5469 92.7734 -7.4707 99.9023 -7.4707 Z M 65.3809 -7.8125 C 68.9941 -7.8125 71.2891 -10.1562 71.2891 -14.6973 L 71.2891 -18.5059 L 72.998 -18.5059 C 75.7324 -18.5059 77.4902 -20.3613 77.4902 -23.5352 C 77.4902 -26.6602 75.7324 -28.7109 72.9492 -28.7109 L 70.9961 -28.7109 L 70.9961 -54.1504 C 70.9961 -59.8145 68.0176 -62.8906 62.2559 -62.8906 C 56.8359 -62.8906 53.5156 -61.1328 51.0254 -56.2988 C 47.0215 -49.0723 42.3828 -39.502 39.5508 -33.3984 C 38.5254 -30.957 37.8906 -28.5156 37.8906 -25.7812 C 37.8906 -21.1426 40.5273 -18.4082 45.3613 -18.4082 L 59.5215 -18.4082 L 59.5215 -14.6973 C 59.5215 -10.1562 61.8164 -7.8125 65.3809 -7.8125 Z M 60.2539 -28.6133 L 49.2676 -28.6133 L 49.2676 -28.9062 C 51.7578 -34.5703 56.543 -45.8008 59.9609 -52.6855 L 60.2539 -52.6855 Z M 99.2676 -17.4805 C 95.0195 -17.4805 91.9434 -20.8984 91.9434 -25.8301 C 91.9434 -30.5664 95.0195 -33.9355 99.2676 -33.9355 C 103.564 -33.9355 106.543 -30.6152 106.543 -25.7812 C 106.543 -20.8008 103.613 -17.4805 99.2676 -17.4805 Z"/>
  </g>
  <g id="Black-L" transform="matrix(1 0 0 1 2854.08 1556)">
   <path d="M 79.2969 32.8613 C 116.748 32.8613 147.363 2.19727 147.363 -35.2051 C 147.363 -72.6074 116.699 -103.271 79.2969 -103.271 C 41.8945 -103.271 11.2793 -72.6074 11.2793 -35.2051 C 11.2793 2.19727 41.8945 32.8613 79.2969 32.8613 Z M 79.2969 12.4023 C 52.9297 12.4023 31.7383 -8.83789 31.7383 -35.2051 C 31.7383 -61.5723 52.9297 -82.8125 79.2969 -82.8125 C 105.664 -82.8125 126.904 -61.5723 126.953 -35.2051 C 126.953 -8.83789 105.664 12.4023 79.2969 12.4023 Z M 100.879 -7.76367 C 111.572 -7.76367 118.75 -15.332 118.75 -27.2461 C 118.75 -37.4512 112.012 -43.3594 104.688 -43.3594 C 99.0234 -43.3594 95.8496 -40.4297 94.2383 -37.0117 L 93.8477 -37.0117 C 93.75 -37.793 93.6523 -38.5742 93.6523 -39.7949 C 93.6523 -46.6309 97.168 -51.3184 101.611 -51.3184 C 104.102 -51.3184 105.518 -50.0977 106.787 -48.6816 C 107.959 -47.4121 109.326 -46.5332 111.719 -46.5332 C 114.404 -46.5332 116.992 -48.3887 116.992 -51.6113 C 116.992 -53.2227 116.699 -54.3945 116.016 -55.7617 C 114.062 -59.668 109.131 -62.8418 101.953 -62.8418 C 90.0879 -62.8418 81.1523 -53.2227 81.1523 -34.9609 C 81.1523 -28.2715 82.3242 -22.4121 84.3262 -17.9688 C 87.5488 -10.9375 93.6523 -7.76367 100.879 -7.76367 Z M 66.4551 -8.00781 C 70.5078 -8.00781 73.1445 -10.5469 73.1445 -15.6738 L 73.1445 -18.2617 L 73.877 -18.2617 C 76.9043 -18.2617 78.8086 -20.3125 78.8086 -23.8281 C 78.8086 -27.2949 76.9043 -29.5898 73.8281 -29.5898 L 72.7051 -29.5898 L 72.7051 -52.7832 C 72.7051 -59.1797 69.5312 -62.5488 63.0859 -62.5488 C 56.9824 -62.5488 53.3203 -60.5957 50.6348 -55.3223 C 47.168 -48.6816 43.6035 -40.2344 41.3086 -34.8145 C 40.2832 -32.0801 39.502 -29.3457 39.502 -26.2207 C 39.502 -21.1426 42.3828 -18.0664 47.7051 -18.0664 L 59.9121 -18.0664 L 59.9121 -15.6738 C 59.9121 -10.5957 62.4512 -8.00781 66.4551 -8.00781 Z M 60.8398 -29.4922 L 52.0508 -29.4922 L 52.0508 -29.7363 C 54.1504 -34.9121 57.666 -45.166 60.5957 -51.6113 L 60.8398 -51.6113 Z M 100.146 -18.8965 C 96.6797 -18.8965 94.2383 -21.7773 94.2383 -25.9766 C 94.2383 -30.0293 96.6797 -32.8613 100.146 -32.8613 C 103.564 -32.8613 106.055 -30.0293 106.055 -25.9277 C 106.055 -21.7285 103.613 -18.8965 100.146 -18.8965 Z"/>
  </g>
 </g>
</svg>
