<?xml version="1.0" encoding="UTF-8"?>
<!--Generator: Apple Native CoreSVG 123-->
<!DOCTYPE svg
PUBLIC "-//W3C//DTD SVG 1.1//EN"
       "http://www.w3.org/Graphics/SVG/1.1/DTD/svg11.dtd">
<svg version="1.1" xmlns="http://www.w3.org/2000/svg" xmlns:xlink="http://www.w3.org/1999/xlink" width="3300" height="2200">
 <!--glyph: "uni100045.medium", point size: 100.000000, font version: "Version 15.0d4e20", template writer version: "2"-->
 <g id="Notes">
  <rect height="2200" id="artboard" style="fill:white;opacity:1" width="3300" x="0" y="0"/>
  <line id="" style="fill:none;stroke:black;opacity:1;stroke-width:0.5;" x1="263" x2="3036" y1="292" y2="292"/>
  <text style="stroke:none;fill:black;font-family:-apple-system,&quot;SF Pro Display&quot;,&quot;SF Pro Text&quot;,Helvetica,sans-serif;font-weight:bold;" transform="matrix(1 0 0 1 263 322)">Weight/Scale Variations</text>
  <text style="stroke:none;fill:black;font-family:-apple-system,&quot;SF Pro Display&quot;,&quot;SF Pro Text&quot;,Helvetica,sans-serif;text-anchor:middle;" transform="matrix(1 0 0 1 559.711 322)">Ultralight</text>
  <text style="stroke:none;fill:black;font-family:-apple-system,&quot;SF Pro Display&quot;,&quot;SF Pro Text&quot;,Helvetica,sans-serif;text-anchor:middle;" transform="matrix(1 0 0 1 856.422 322)">Thin</text>
  <text style="stroke:none;fill:black;font-family:-apple-system,&quot;SF Pro Display&quot;,&quot;SF Pro Text&quot;,Helvetica,sans-serif;text-anchor:middle;" transform="matrix(1 0 0 1 1153.13 322)">Light</text>
  <text style="stroke:none;fill:black;font-family:-apple-system,&quot;SF Pro Display&quot;,&quot;SF Pro Text&quot;,Helvetica,sans-serif;text-anchor:middle;" transform="matrix(1 0 0 1 1449.84 322)">Regular</text>
  <text style="stroke:none;fill:black;font-family:-apple-system,&quot;SF Pro Display&quot;,&quot;SF Pro Text&quot;,Helvetica,sans-serif;text-anchor:middle;" transform="matrix(1 0 0 1 1746.56 322)">Medium</text>
  <text style="stroke:none;fill:black;font-family:-apple-system,&quot;SF Pro Display&quot;,&quot;SF Pro Text&quot;,Helvetica,sans-serif;text-anchor:middle;" transform="matrix(1 0 0 1 2043.27 322)">Semibold</text>
  <text style="stroke:none;fill:black;font-family:-apple-system,&quot;SF Pro Display&quot;,&quot;SF Pro Text&quot;,Helvetica,sans-serif;text-anchor:middle;" transform="matrix(1 0 0 1 2339.98 322)">Bold</text>
  <text style="stroke:none;fill:black;font-family:-apple-system,&quot;SF Pro Display&quot;,&quot;SF Pro Text&quot;,Helvetica,sans-serif;text-anchor:middle;" transform="matrix(1 0 0 1 2636.69 322)">Heavy</text>
  <text style="stroke:none;fill:black;font-family:-apple-system,&quot;SF Pro Display&quot;,&quot;SF Pro Text&quot;,Helvetica,sans-serif;text-anchor:middle;" transform="matrix(1 0 0 1 2933.4 322)">Black</text>
  <line id="" style="fill:none;stroke:black;opacity:1;stroke-width:0.5;" x1="263" x2="3036" y1="1903" y2="1903"/>
  <g id="" transform="matrix(1 0 0 1 263 1933)">
   <path d="M 9.24805 0.830078 C 13.5547 0.830078 17.1387 -2.74414 17.1387 -7.05078 C 17.1387 -11.3574 13.5449 -14.9316 9.23828 -14.9316 C 4.94141 -14.9316 1.36719 -11.3574 1.36719 -7.05078 C 1.36719 -2.74414 4.95117 0.830078 9.24805 0.830078 Z M 9.24805 -0.654297 C 5.70312 -0.654297 2.87109 -3.49609 2.87109 -7.05078 C 2.87109 -10.6055 5.69336 -13.4473 9.23828 -13.4473 C 12.793 -13.4473 15.6348 -10.6055 15.6445 -7.05078 C 15.6543 -3.49609 12.8027 -0.654297 9.24805 -0.654297 Z M 9.22852 -3.42773 C 9.69727 -3.42773 9.9707 -3.74023 9.9707 -4.25781 L 9.9707 -6.31836 L 12.1973 -6.31836 C 12.6953 -6.31836 13.0371 -6.57227 13.0371 -7.04102 C 13.0371 -7.51953 12.7148 -7.7832 12.1973 -7.7832 L 9.9707 -7.7832 L 9.9707 -10.0098 C 9.9707 -10.5273 9.69727 -10.8496 9.22852 -10.8496 C 8.75977 -10.8496 8.50586 -10.5078 8.50586 -10.0098 L 8.50586 -7.7832 L 6.29883 -7.7832 C 5.78125 -7.7832 5.44922 -7.51953 5.44922 -7.04102 C 5.44922 -6.57227 5.80078 -6.31836 6.29883 -6.31836 L 8.50586 -6.31836 L 8.50586 -4.25781 C 8.50586 -3.75977 8.75977 -3.42773 9.22852 -3.42773 Z"/>
  </g>
  <g id="" transform="matrix(1 0 0 1 281.506 1933)">
   <path d="M 11.709 2.91016 C 17.1484 2.91016 21.6699 -1.60156 21.6699 -7.05078 C 21.6699 -12.4902 17.1387 -17.0117 11.6992 -17.0117 C 6.25 -17.0117 1.74805 -12.4902 1.74805 -7.05078 C 1.74805 -1.60156 6.25977 2.91016 11.709 2.91016 Z M 11.709 1.25 C 7.09961 1.25 3.41797 -2.44141 3.41797 -7.05078 C 3.41797 -11.6504 7.08984 -15.3516 11.6992 -15.3516 C 16.2988 -15.3516 20 -11.6504 20.0098 -7.05078 C 20.0195 -2.44141 16.3086 1.25 11.709 1.25 Z M 11.6797 -2.41211 C 12.207 -2.41211 12.5195 -2.77344 12.5195 -3.33984 L 12.5195 -6.23047 L 15.5762 -6.23047 C 16.123 -6.23047 16.5039 -6.51367 16.5039 -7.03125 C 16.5039 -7.55859 16.1426 -7.86133 15.5762 -7.86133 L 12.5195 -7.86133 L 12.5195 -10.9277 C 12.5195 -11.5039 12.207 -11.8555 11.6797 -11.8555 C 11.1621 -11.8555 10.8789 -11.4844 10.8789 -10.9277 L 10.8789 -7.86133 L 7.83203 -7.86133 C 7.25586 -7.86133 6.89453 -7.55859 6.89453 -7.03125 C 6.89453 -6.51367 7.28516 -6.23047 7.83203 -6.23047 L 10.8789 -6.23047 L 10.8789 -3.33984 C 10.8789 -2.79297 11.1621 -2.41211 11.6797 -2.41211 Z"/>
  </g>
  <g id="" transform="matrix(1 0 0 1 304.914 1933)">
   <path d="M 14.9707 5.67383 C 21.9336 5.67383 27.6855 -0.078125 27.6855 -7.04102 C 27.6855 -14.0039 21.9238 -19.7559 14.9609 -19.7559 C 7.99805 -19.7559 2.25586 -14.0039 2.25586 -7.04102 C 2.25586 -0.078125 8.00781 5.67383 14.9707 5.67383 Z M 14.9707 3.85742 C 8.92578 3.85742 4.08203 -1.00586 4.08203 -7.04102 C 4.08203 -13.0762 8.91602 -17.9395 14.9609 -17.9395 C 20.9961 -17.9395 25.8594 -13.0762 25.8691 -7.04102 C 25.8789 -1.00586 21.0059 3.85742 14.9707 3.85742 Z M 14.9414 -1.06445 C 15.5176 -1.06445 15.8594 -1.45508 15.8594 -2.06055 L 15.8594 -6.13281 L 20.0977 -6.13281 C 20.6934 -6.13281 21.1133 -6.46484 21.1133 -7.02148 C 21.1133 -7.59766 20.7227 -7.93945 20.0977 -7.93945 L 15.8594 -7.93945 L 15.8594 -12.1875 C 15.8594 -12.8027 15.5176 -13.1934 14.9414 -13.1934 C 14.3848 -13.1934 14.0625 -12.7832 14.0625 -12.1875 L 14.0625 -7.93945 L 9.82422 -7.93945 C 9.20898 -7.93945 8.80859 -7.59766 8.80859 -7.02148 C 8.80859 -6.46484 9.23828 -6.13281 9.82422 -6.13281 L 14.0625 -6.13281 L 14.0625 -2.06055 C 14.0625 -1.47461 14.3848 -1.06445 14.9414 -1.06445 Z"/>
  </g>
  <text style="stroke:none;fill:black;font-family:-apple-system,&quot;SF Pro Display&quot;,&quot;SF Pro Text&quot;,Helvetica,sans-serif;font-weight:bold;" transform="matrix(1 0 0 1 263 1953)">Design Variations</text>
  <text style="stroke:none;fill:black;font-family:-apple-system,&quot;SF Pro Display&quot;,&quot;SF Pro Text&quot;,Helvetica,sans-serif;" transform="matrix(1 0 0 1 263 1971)">Symbols are supported in up to nine weights and three scales.</text>
  <text style="stroke:none;fill:black;font-family:-apple-system,&quot;SF Pro Display&quot;,&quot;SF Pro Text&quot;,Helvetica,sans-serif;" transform="matrix(1 0 0 1 263 1989)">For optimal layout with text and other symbols, vertically align</text>
  <text style="stroke:none;fill:black;font-family:-apple-system,&quot;SF Pro Display&quot;,&quot;SF Pro Text&quot;,Helvetica,sans-serif;" transform="matrix(1 0 0 1 263 2007)">symbols with the adjacent text.</text>
  <rect height="14" id="" style="fill:#00AEEF;stroke:none;opacity:0.4;" width="3" x="776" y="1919"/>
  <g id="" transform="matrix(1 0 0 1 779 1933)">
   <path d="M 10.5273 0 L 12.373 0 L 7.17773 -14.0918 L 5.43945 -14.0918 L 0.244141 0 L 2.08984 0 L 3.50586 -4.0332 L 9.11133 -4.0332 Z M 6.2793 -11.9531 L 6.33789 -11.9531 L 8.59375 -5.52734 L 4.02344 -5.52734 Z"/>
  </g>
  <rect height="14" id="" style="fill:#00AEEF;stroke:none;opacity:0.4;" width="3" x="791.617" y="1919"/>
  <text style="stroke:none;fill:black;font-family:-apple-system,&quot;SF Pro Display&quot;,&quot;SF Pro Text&quot;,Helvetica,sans-serif;font-weight:bold;" transform="matrix(1 0 0 1 776 1953)">Side Bearings</text>
  <text style="stroke:none;fill:black;font-family:-apple-system,&quot;SF Pro Display&quot;,&quot;SF Pro Text&quot;,Helvetica,sans-serif;" transform="matrix(1 0 0 1 776 1971)">Horizontal padding on the left and right side of each symbol</text>
  <text style="stroke:none;fill:black;font-family:-apple-system,&quot;SF Pro Display&quot;,&quot;SF Pro Text&quot;,Helvetica,sans-serif;" transform="matrix(1 0 0 1 776 1989)">can be adjusted by modifying the width of the blue rectangles.</text>
  <text style="stroke:none;fill:black;font-family:-apple-system,&quot;SF Pro Display&quot;,&quot;SF Pro Text&quot;,Helvetica,sans-serif;" transform="matrix(1 0 0 1 776 2007)">Modifications are automatically applied proportionally to all</text>
  <text style="stroke:none;fill:black;font-family:-apple-system,&quot;SF Pro Display&quot;,&quot;SF Pro Text&quot;,Helvetica,sans-serif;" transform="matrix(1 0 0 1 776 2025)">scales and weights.</text>
  <g id="" transform="matrix(1 0 0 1 1289 1933)">
   <path d="M 2.96875 2.35352 L 3.80859 3.19336 C 4.84375 4.22852 6.12305 4.15039 7.19727 2.97852 L 16.1621 -6.82617 C 16.5527 -6.74805 16.9629 -6.8457 17.4902 -7.02148 C 18.1738 -7.25586 18.2715 -7.25586 18.3887 -7.13867 C 18.5352 -7.01172 18.4863 -6.89453 18.2422 -6.25 C 17.8809 -5.33203 17.8125 -4.79492 18.5547 -4.02344 L 19.4238 -3.13477 C 20.2734 -2.24609 21.3281 -2.26562 22.2168 -3.14453 L 25.0586 -5.97656 C 25.9473 -6.86523 25.957 -7.92969 25.0781 -8.7793 L 24.1797 -9.64844 C 23.4082 -10.4004 22.8711 -10.3516 21.9629 -9.98047 C 21.3184 -9.72656 21.2012 -9.6875 21.0645 -9.81445 C 20.9375 -9.93164 20.9473 -10.0391 21.1816 -10.7129 C 21.5332 -11.6895 21.5723 -12.2852 20.752 -13.0957 L 19.3359 -14.5117 C 15.1953 -18.6133 11.2305 -18.7402 7.65625 -15.4395 C 7.08008 -14.9023 6.99219 -14.1504 7.53906 -13.6133 L 7.79297 -13.3594 C 8.22266 -12.9297 8.86719 -12.8418 9.41406 -13.1152 C 11.0645 -13.9453 12.2559 -14.0234 13.457 -12.9785 L 13.0273 -11.416 C 12.8516 -10.8008 12.793 -10.3418 12.9199 -9.93164 L 3.18359 -1.04492 C 2.02148 0.0292969 1.93359 1.32812 2.96875 2.35352 Z M 8.96484 -14.4922 C 8.89648 -14.5703 8.86719 -14.6582 8.99414 -14.7559 C 11.709 -17.2852 15.0391 -16.8457 18.3496 -13.5254 L 19.6973 -12.168 C 20.0879 -11.7773 20.0977 -11.582 19.8828 -10.8691 C 19.6582 -10.127 19.502 -9.53125 20.1465 -8.88672 C 20.8105 -8.22266 21.2891 -8.41797 22.207 -8.63281 C 22.9004 -8.79883 23.0664 -8.79883 23.4473 -8.41797 L 24.0918 -7.77344 C 24.4043 -7.48047 24.4141 -7.32422 24.0723 -6.97266 L 21.2207 -4.13086 C 20.8887 -3.79883 20.7227 -3.79883 20.4297 -4.10156 L 19.7852 -4.75586 C 19.4141 -5.13672 19.4141 -5.30273 19.5801 -6.01562 C 19.7852 -6.88477 19.9805 -7.38281 19.3262 -8.04688 C 18.6719 -8.7207 18.0762 -8.57422 17.3438 -8.33008 C 16.5625 -8.06641 16.3281 -8.06641 15.8984 -8.49609 L 14.6094 -9.78516 C 14.1699 -10.2246 14.1309 -10.4395 14.2676 -10.9082 L 15.0293 -13.3984 C 13.3887 -15.2832 11.4941 -15.5566 9.20898 -14.4434 C 9.11133 -14.3945 9.04297 -14.4141 8.96484 -14.4922 Z M 3.96484 1.36719 C 3.52539 0.927734 3.54492 0.537109 4.14062 -0.00976562 L 13.7402 -8.81836 L 15 -7.55859 L 6.17188 2.02148 C 5.625 2.60742 5.24414 2.64648 4.79492 2.19727 Z"/>
  </g>
  <text style="stroke:none;fill:black;font-family:-apple-system,&quot;SF Pro Display&quot;,&quot;SF Pro Text&quot;,Helvetica,sans-serif;font-weight:bold;" transform="matrix(1 0 0 1 1289 1953)">Exporting</text>
  <text style="stroke:none;fill:black;font-family:-apple-system,&quot;SF Pro Display&quot;,&quot;SF Pro Text&quot;,Helvetica,sans-serif;" transform="matrix(1 0 0 1 1289 1971)">Symbols should be outlined when exporting to ensure the</text>
  <text style="stroke:none;fill:black;font-family:-apple-system,&quot;SF Pro Display&quot;,&quot;SF Pro Text&quot;,Helvetica,sans-serif;" transform="matrix(1 0 0 1 1289 1989)">design is preserved when submitting to Xcode.</text>
  <text id="template-version" style="stroke:none;fill:black;font-family:-apple-system,&quot;SF Pro Display&quot;,&quot;SF Pro Text&quot;,Helvetica,sans-serif;text-anchor:end;" transform="matrix(1 0 0 1 3036 1933)">Template v.0.1</text>
  <text style="stroke:none;fill:black;font-family:-apple-system,&quot;SF Pro Display&quot;,&quot;SF Pro Text&quot;,Helvetica,sans-serif;text-anchor:end;" transform="matrix(1 0 0 1 3036 1951)">Generated from 6.circle.fill</text>
  <text style="stroke:none;fill:black;font-family:-apple-system,&quot;SF Pro Display&quot;,&quot;SF Pro Text&quot;,Helvetica,sans-serif;text-anchor:end;" transform="matrix(1 0 0 1 3036 1969)">Typeset at 100 points</text>
  <text style="stroke:none;fill:black;font-family:-apple-system,&quot;SF Pro Display&quot;,&quot;SF Pro Text&quot;,Helvetica,sans-serif;" transform="matrix(1 0 0 1 263 726)">Small</text>
  <text style="stroke:none;fill:black;font-family:-apple-system,&quot;SF Pro Display&quot;,&quot;SF Pro Text&quot;,Helvetica,sans-serif;" transform="matrix(1 0 0 1 263 1156)">Medium</text>
  <text style="stroke:none;fill:black;font-family:-apple-system,&quot;SF Pro Display&quot;,&quot;SF Pro Text&quot;,Helvetica,sans-serif;" transform="matrix(1 0 0 1 263 1586)">Large</text>
 </g>
 <g id="Guides">
  <g id="H-reference" style="fill:#27AAE1;stroke:none;" transform="matrix(1 0 0 1 339 696)">
   <path d="M 54.9316 0 L 57.666 0 L 30.5664 -70.459 L 28.0762 -70.459 L 0.976562 0 L 3.66211 0 L 12.9395 -24.4629 L 45.7031 -24.4629 Z M 29.1992 -67.0898 L 29.4434 -67.0898 L 44.8242 -26.709 L 13.8184 -26.709 Z"/>
  </g>
  <line id="Baseline-S" style="fill:none;stroke:#27AAE1;opacity:1;stroke-width:0.577;" x1="263" x2="3036" y1="696" y2="696"/>
  <line id="Capline-S" style="fill:none;stroke:#27AAE1;opacity:1;stroke-width:0.577;" x1="263" x2="3036" y1="625.541" y2="625.541"/>
  <g id="H-reference" style="fill:#27AAE1;stroke:none;" transform="matrix(1 0 0 1 339 1126)">
   <path d="M 54.9316 0 L 57.666 0 L 30.5664 -70.459 L 28.0762 -70.459 L 0.976562 0 L 3.66211 0 L 12.9395 -24.4629 L 45.7031 -24.4629 Z M 29.1992 -67.0898 L 29.4434 -67.0898 L 44.8242 -26.709 L 13.8184 -26.709 Z"/>
  </g>
  <line id="Baseline-M" style="fill:none;stroke:#27AAE1;opacity:1;stroke-width:0.577;" x1="263" x2="3036" y1="1126" y2="1126"/>
  <line id="Capline-M" style="fill:none;stroke:#27AAE1;opacity:1;stroke-width:0.577;" x1="263" x2="3036" y1="1055.54" y2="1055.54"/>
  <g id="H-reference" style="fill:#27AAE1;stroke:none;" transform="matrix(1 0 0 1 339 1556)">
   <path d="M 54.9316 0 L 57.666 0 L 30.5664 -70.459 L 28.0762 -70.459 L 0.976562 0 L 3.66211 0 L 12.9395 -24.4629 L 45.7031 -24.4629 Z M 29.1992 -67.0898 L 29.4434 -67.0898 L 44.8242 -26.709 L 13.8184 -26.709 Z"/>
  </g>
  <line id="Baseline-L" style="fill:none;stroke:#27AAE1;opacity:1;stroke-width:0.577;" x1="263" x2="3036" y1="1556" y2="1556"/>
  <line id="Capline-L" style="fill:none;stroke:#27AAE1;opacity:1;stroke-width:0.577;" x1="263" x2="3036" y1="1485.54" y2="1485.54"/>
  <rect height="119.336" id="left-margin" style="fill:#00AEEF;stroke:none;opacity:0.4;" width="8.74023" x="1391.32" y="1030.79"/>
  <rect height="119.336" id="right-margin" style="fill:#00AEEF;stroke:none;opacity:0.4;" width="8.69141" x="1499.67" y="1030.79"/>
 </g>
 <g id="Symbols">
  <g id="Ultralight-S" transform="matrix(1 0 0 1 515.644 696)">
   <path d="M 44.043 2.05078 C 64.502 2.05078 81.2988 -14.6973 81.2988 -35.1562 C 81.2988 -55.6152 64.502 -72.3633 44.043 -72.3633 C 23.584 -72.3633 6.83594 -55.6152 6.83594 -35.1562 C 6.83594 -14.6973 23.584 2.05078 44.043 2.05078 Z M 43.457 -16.9434 C 38.8672 -16.9434 34.9609 -19.1895 32.9102 -23.0469 C 31.6406 -25.4883 30.9082 -29.4434 30.9082 -34.1309 C 30.9082 -46.3867 35.8398 -53.5156 44.1895 -53.5156 C 49.8047 -53.5156 53.6133 -49.9023 54.2969 -47.4609 C 54.3457 -47.2656 54.3945 -47.0703 54.3945 -46.7773 C 54.3945 -46.1426 54.0039 -45.7031 53.418 -45.7031 C 52.7832 -45.7031 52.4414 -46.0449 52.0996 -46.6797 C 50.8301 -49.4629 47.6074 -51.2695 44.0918 -51.2695 C 37.3047 -51.2695 33.2031 -44.873 33.2031 -33.9844 L 33.2031 -33.4961 L 33.3496 -33.4961 C 35.2539 -37.4023 38.8184 -40.0879 44.2383 -40.0879 C 50.7324 -40.0879 55.6152 -35.3516 55.6152 -28.8574 C 55.6152 -21.7285 50.6836 -16.9434 43.457 -16.9434 Z M 43.5059 -19.1406 C 49.3164 -19.1406 53.1738 -22.9004 53.1738 -28.6621 C 53.1738 -34.1797 49.2676 -37.9395 43.6035 -37.9395 C 37.9395 -37.9395 33.8379 -34.0332 33.8379 -28.7109 C 33.8379 -23.1445 37.8906 -19.1406 43.5059 -19.1406 Z"/>
  </g>
  <g id="Thin-S" transform="matrix(1 0 0 1 811.867 696)">
   <path d="M 44.5801 2.53906 C 65.2832 2.53906 82.2754 -14.4531 82.2754 -35.2051 C 82.2754 -55.9082 65.2344 -72.9004 44.5312 -72.9004 C 23.8281 -72.9004 6.83594 -55.9082 6.83594 -35.2051 C 6.83594 -14.4531 23.877 2.53906 44.5801 2.53906 Z M 44.1406 -16.7969 C 39.5508 -16.7969 35.498 -18.8965 33.3008 -22.8516 C 31.9336 -25.3418 31.1035 -29.2969 31.1035 -34.2773 C 31.1035 -46.9238 36.3281 -53.8574 44.9219 -53.8574 C 50.4395 -53.8574 54.3945 -50.5371 55.2246 -47.9492 C 55.3711 -47.6562 55.4199 -47.3633 55.4199 -46.9727 C 55.4199 -46.0938 54.834 -45.5566 54.0527 -45.5566 C 53.2227 -45.5566 52.7832 -45.9473 52.1484 -46.8262 C 50.9277 -49.1699 48.1445 -50.8301 44.8242 -50.8301 C 38.4277 -50.8301 34.375 -44.7754 34.375 -34.5703 L 34.375 -34.082 L 34.5703 -34.082 C 36.3281 -37.7441 39.7949 -40.4297 45.166 -40.4297 C 51.6113 -40.4297 56.7871 -35.791 56.7871 -29.0039 C 56.7871 -21.582 51.6113 -16.7969 44.1406 -16.7969 Z M 44.0918 -19.7266 C 49.6582 -19.7266 53.2715 -23.291 53.2715 -28.7598 C 53.2715 -33.9844 49.5605 -37.5977 44.1895 -37.5977 C 38.8672 -37.5977 35.0098 -33.8867 35.0098 -28.8086 C 35.0098 -23.5352 38.8184 -19.7266 44.0918 -19.7266 Z"/>
  </g>
  <g id="Light-S" transform="matrix(1 0 0 1 1107.6 696)">
   <path d="M 45.5078 3.4668 C 66.6992 3.4668 84.2285 -14.0625 84.2285 -35.2051 C 84.2285 -56.3965 66.6504 -73.9258 45.5078 -73.9258 C 24.3164 -73.9258 6.83594 -56.3965 6.83594 -35.2051 C 6.83594 -14.0625 24.3652 3.4668 45.5078 3.4668 Z M 45.5078 -16.5039 C 40.8203 -16.5039 36.5234 -18.3105 34.0332 -22.5098 C 32.4219 -25.1953 31.4453 -29.1504 31.4453 -34.5215 C 31.4453 -47.8516 37.207 -54.5898 46.4355 -54.5898 C 51.709 -54.5898 55.957 -51.7578 57.1289 -48.9258 C 57.3242 -48.3887 57.4707 -47.9004 57.4707 -47.3633 C 57.4707 -46.0938 56.4941 -45.2148 55.3223 -45.2148 C 54.0527 -45.2148 53.3203 -45.8496 52.2461 -46.9727 C 51.0742 -48.6816 49.1699 -50 46.2402 -50 C 40.5273 -50 36.7188 -44.5801 36.7188 -35.7422 L 36.7188 -35.2051 L 36.9629 -35.2051 C 38.3789 -38.2812 41.6016 -41.0156 46.9727 -41.0156 C 53.3691 -41.0156 58.9844 -36.6699 58.9844 -29.248 C 58.9844 -21.2402 53.418 -16.5039 45.5078 -16.5039 Z M 45.2637 -20.8496 C 50.2441 -20.8496 53.418 -24.0234 53.418 -29.0039 C 53.418 -33.6426 50.1465 -36.9141 45.3125 -36.9141 C 40.5762 -36.9141 37.207 -33.5938 37.207 -29.0527 C 37.207 -24.2676 40.625 -20.8496 45.2637 -20.8496 Z"/>
  </g>
  <g id="Regular-S" transform="matrix(1 0 0 1 1403.58 696)">
   <path d="M 46.2402 4.15039 C 67.7734 4.15039 85.6934 -13.7207 85.6934 -35.2539 C 85.6934 -56.7871 67.7246 -74.6582 46.1914 -74.6582 C 24.707 -74.6582 6.83594 -56.7871 6.83594 -35.2539 C 6.83594 -13.7207 24.7559 4.15039 46.2402 4.15039 Z M 46.4844 -16.2598 C 41.7969 -16.2598 37.3047 -17.9199 34.5703 -22.2168 C 32.8125 -25.0488 31.7383 -29.0039 31.7383 -34.7168 C 31.7383 -48.584 37.8906 -55.127 47.5586 -55.127 C 52.6855 -55.127 57.1289 -52.6855 58.5449 -49.6094 C 58.8379 -48.9746 58.9844 -48.3398 58.9844 -47.6562 C 58.9844 -46.0449 57.7637 -44.9707 56.2988 -44.9707 C 54.6875 -44.9707 53.7598 -45.752 52.3438 -47.1191 C 51.2207 -48.2422 49.9512 -49.3652 47.3145 -49.3652 C 42.1387 -49.3652 38.5254 -44.4336 38.4766 -36.6699 L 38.4766 -36.0352 L 38.7695 -36.0352 C 39.9414 -38.7207 42.9688 -41.4551 48.3398 -41.4551 C 54.6387 -41.4551 60.6445 -37.3535 60.6445 -29.4434 C 60.6445 -20.9961 54.7363 -16.2598 46.4844 -16.2598 Z M 46.1914 -21.6797 C 50.6836 -21.6797 53.5156 -24.6094 53.5156 -29.1504 C 53.5156 -33.3984 50.5371 -36.377 46.1914 -36.377 C 41.8945 -36.377 38.916 -33.3984 38.916 -29.1992 C 38.916 -24.8047 41.9434 -21.6797 46.1914 -21.6797 Z"/>
  </g>
  <g id="Medium-S" transform="matrix(1 0 0 1 1699.7 696)">
   <path d="M 46.8262 4.78516 C 68.75 4.78516 86.8652 -13.3301 86.8652 -35.2539 C 86.8652 -57.1289 68.7012 -75.2441 46.8262 -75.2441 C 24.9023 -75.2441 6.83594 -57.1289 6.83594 -35.2539 C 6.83594 -13.3301 24.9512 4.78516 46.8262 4.78516 Z M 47.2168 -16.4062 C 42.0898 -16.4062 37.5488 -18.2617 34.7656 -22.6562 C 32.959 -25.5371 31.9336 -29.4922 31.9336 -34.9609 C 31.9336 -48.2422 38.1836 -54.7363 48.2422 -54.7363 C 53.3691 -54.7363 57.8125 -52.4414 59.3262 -49.5117 C 59.7168 -48.7793 59.9609 -48.0469 59.9609 -47.2168 C 59.9609 -45.4102 58.5449 -44.1895 56.6895 -44.1895 C 54.9805 -44.1895 54.0527 -44.9707 52.6855 -46.1426 C 51.5625 -47.1191 50.3906 -48.1445 48.0469 -48.1445 C 43.3594 -48.1445 40.1367 -43.7988 40.1367 -37.0605 C 40.1367 -36.7676 40.1367 -36.4746 40.1367 -36.1328 L 40.5273 -36.1328 C 41.748 -38.8672 44.6289 -41.3086 49.6094 -41.3086 C 56.0547 -41.3086 61.6699 -37.207 61.6699 -29.5898 C 61.6699 -21.2402 55.7129 -16.4062 47.2168 -16.4062 Z M 46.7773 -22.8516 C 50.6836 -22.8516 53.0762 -25.3906 53.0762 -29.2969 C 53.0762 -32.959 50.5371 -35.5469 46.7773 -35.5469 C 43.1152 -35.5469 40.5273 -32.9102 40.5273 -29.3457 C 40.5273 -25.5371 43.1152 -22.8516 46.7773 -22.8516 Z"/>
  </g>
  <g id="Semibold-S" transform="matrix(1 0 0 1 1995.98 696)">
   <path d="M 47.3145 5.22461 C 69.4824 5.22461 87.7441 -13.0371 87.7441 -35.2539 C 87.7441 -57.4219 69.4336 -75.6836 47.2656 -75.6836 C 25.0977 -75.6836 6.83594 -57.4219 6.83594 -35.2539 C 6.83594 -13.0371 25.0977 5.22461 47.3145 5.22461 Z M 47.7051 -16.5039 C 42.2852 -16.5039 37.7441 -18.5059 34.9121 -22.998 C 33.0566 -25.9277 32.0312 -29.8828 32.0312 -35.1562 C 32.0312 -47.9492 38.3789 -54.4434 48.7305 -54.4434 C 53.9062 -54.4434 58.3008 -52.2949 59.9121 -49.4141 C 60.4004 -48.6328 60.6445 -47.8027 60.6445 -46.875 C 60.6445 -44.9219 59.1309 -43.6035 57.0312 -43.6035 C 55.2246 -43.6035 54.1992 -44.3359 52.9297 -45.3613 C 51.8555 -46.2891 50.7324 -47.168 48.584 -47.168 C 44.2383 -47.168 41.4062 -43.3105 41.4062 -37.4023 C 41.4062 -37.0117 41.4062 -36.6211 41.4551 -36.2305 L 41.8457 -36.2305 C 43.0664 -39.0137 45.8984 -41.2109 50.5859 -41.2109 C 57.1777 -41.2109 62.4512 -37.0605 62.4512 -29.6875 C 62.4512 -21.4355 56.4453 -16.5039 47.7051 -16.5039 Z M 47.2656 -23.7305 C 50.6348 -23.7305 52.7832 -25.9766 52.7832 -29.3945 C 52.7832 -32.5684 50.5371 -34.8633 47.2656 -34.8633 C 43.9941 -34.8633 41.748 -32.5684 41.748 -29.4434 C 41.748 -26.0742 44.043 -23.7305 47.2656 -23.7305 Z"/>
  </g>
  <g id="Bold-S" transform="matrix(1 0 0 1 2292.1 696)">
   <path d="M 47.9004 5.81055 C 70.4102 5.81055 88.916 -12.6465 88.916 -35.2051 C 88.916 -57.7637 70.4102 -76.2695 47.8516 -76.2695 C 25.293 -76.2695 6.83594 -57.7637 6.83594 -35.2051 C 6.83594 -12.6465 25.3418 5.81055 47.9004 5.81055 Z M 48.4375 -16.6504 C 42.627 -16.6504 37.9883 -18.8477 35.1074 -23.4375 C 33.252 -26.416 32.2266 -30.3711 32.2266 -35.4004 C 32.2266 -47.5586 38.6719 -54.0039 49.4141 -54.0039 C 54.6387 -54.0039 58.9844 -52.0508 60.7422 -49.3164 C 61.2793 -48.4375 61.6211 -47.5098 61.6211 -46.4844 C 61.6211 -44.2871 59.9609 -42.8223 57.4707 -42.8223 C 55.5176 -42.8223 54.4922 -43.5059 53.2715 -44.3359 C 52.1973 -45.1172 51.1719 -45.8984 49.2676 -45.8984 C 45.459 -45.8984 43.1152 -42.627 43.0664 -37.793 C 43.0664 -37.3535 43.1152 -36.8652 43.1641 -36.377 L 43.5547 -36.377 C 44.873 -39.1602 47.5586 -41.0645 51.8555 -41.0645 C 58.5938 -41.0645 63.5254 -36.9141 63.5254 -29.7852 C 63.5254 -21.6797 57.4219 -16.6504 48.4375 -16.6504 Z M 47.9004 -24.9512 C 50.5859 -24.9512 52.3926 -26.7578 52.3926 -29.541 C 52.3926 -32.1289 50.5371 -34.0332 47.9004 -34.0332 C 45.2148 -34.0332 43.3594 -32.1289 43.3594 -29.541 C 43.3594 -26.8066 45.2148 -24.9512 47.9004 -24.9512 Z"/>
  </g>
  <g id="Heavy-S" transform="matrix(1 0 0 1 2587.96 696)">
   <path d="M 48.7305 6.68945 C 71.8262 6.68945 90.625 -12.1094 90.625 -35.2051 C 90.625 -58.3008 71.8262 -77.0996 48.7305 -77.0996 C 25.6348 -77.0996 6.83594 -58.3008 6.83594 -35.2051 C 6.83594 -12.1094 25.6348 6.68945 48.7305 6.68945 Z M 49.4629 -16.8945 C 43.0664 -16.8945 38.3301 -19.3848 35.3516 -24.0723 C 33.4473 -27.1484 32.4707 -31.1035 32.4707 -35.7422 C 32.4707 -46.9727 39.1113 -53.418 50.3906 -53.418 C 55.7129 -53.418 60.0098 -51.7578 61.8652 -49.1699 C 62.5977 -48.1445 62.9883 -47.0703 62.9883 -45.8496 C 62.9883 -43.3105 61.084 -41.6992 58.1055 -41.6992 C 56.0059 -41.6992 54.834 -42.334 53.7598 -42.8711 C 52.7344 -43.5059 51.8066 -44.0918 50.3418 -44.0918 C 47.2168 -44.0918 45.5078 -41.6504 45.5078 -38.3789 C 45.5078 -37.8418 45.5566 -37.207 45.6543 -36.5234 L 46.0938 -36.5234 C 47.4609 -39.3555 49.9512 -40.8203 53.7109 -40.8203 C 60.6934 -40.8203 65.0391 -36.7188 65.0391 -29.9805 C 65.0391 -22.0703 58.8379 -16.8945 49.4629 -16.8945 Z M 48.7793 -26.6602 C 50.5371 -26.6602 51.8066 -27.9297 51.8066 -29.7363 C 51.8066 -31.4453 50.5371 -32.7637 48.7793 -32.7637 C 46.9238 -32.7637 45.6543 -31.4453 45.6543 -29.7363 C 45.6543 -27.8809 46.9238 -26.6602 48.7793 -26.6602 Z"/>
  </g>
  <g id="Black-S" transform="matrix(1 0 0 1 2883.89 696)">
   <path d="M 49.5117 7.4707 C 73.0957 7.4707 92.1875 -11.6211 92.1875 -35.2051 C 92.1875 -58.7891 73.0957 -77.8809 49.5117 -77.8809 C 25.9277 -77.8809 6.83594 -58.7891 6.83594 -35.2051 C 6.83594 -11.6211 25.9277 7.4707 49.5117 7.4707 Z M 50.3418 -17.0898 C 43.457 -17.0898 38.623 -19.8242 35.5957 -24.6582 C 33.6914 -27.832 32.7148 -31.7871 32.7148 -36.084 C 32.7148 -46.4844 39.502 -52.9297 51.2695 -52.9297 C 56.6406 -52.9297 60.8887 -51.4648 62.8906 -49.0234 C 63.7695 -47.9004 64.209 -46.7285 64.209 -45.2637 C 64.209 -42.4805 62.1582 -40.6738 58.6914 -40.6738 C 56.3965 -40.6738 55.1758 -41.2598 54.1992 -41.5527 C 53.2227 -42.041 52.3926 -42.4805 51.2695 -42.4805 C 48.7793 -42.4805 47.6562 -40.8203 47.7051 -38.916 C 47.7051 -38.2324 47.7539 -37.5 47.9004 -36.6699 L 48.3398 -36.6699 C 49.8047 -39.5508 52.1484 -40.625 55.3711 -40.625 C 62.5488 -40.625 66.3574 -36.5234 66.3574 -30.127 C 66.3574 -22.3633 60.1074 -17.0898 50.3418 -17.0898 Z M 49.5605 -28.1738 C 50.4883 -28.1738 51.2695 -28.9551 51.2695 -29.8828 C 51.2695 -30.8594 50.4883 -31.6406 49.5605 -31.6406 C 48.4863 -31.6406 47.7539 -30.8594 47.7539 -29.8828 C 47.7539 -28.8574 48.4863 -28.1738 49.5605 -28.1738 Z"/>
  </g>
  <g id="Ultralight-M" transform="matrix(1 0 0 1 503.656 1126)">
   <path d="M 56.0547 12.207 C 82.0801 12.207 103.369 -9.08203 103.369 -35.1562 C 103.369 -61.1816 82.0801 -82.4707 56.0547 -82.4707 C 30.0293 -82.4707 8.74023 -61.1816 8.74023 -35.1562 C 8.74023 -9.08203 30.0293 12.207 56.0547 12.207 Z M 55.2246 -11.9629 C 49.3652 -11.9629 44.3848 -14.8438 41.8457 -19.7754 C 40.2832 -22.8027 39.3555 -27.832 39.3555 -33.7402 C 39.3555 -49.3164 45.5566 -58.3984 56.1035 -58.3984 C 63.3301 -58.3984 68.1152 -53.7109 68.8965 -50.6836 C 68.9453 -50.4395 69.043 -50.2441 69.043 -49.9023 C 69.043 -49.1699 68.6035 -48.6816 67.9199 -48.6816 C 67.1875 -48.6816 66.8457 -49.0234 66.5039 -49.8535 C 64.8926 -53.4668 60.5957 -55.8594 56.0059 -55.8594 C 47.2168 -55.8594 41.8945 -47.5586 41.8945 -33.3984 L 41.8945 -32.7637 L 42.0898 -32.7637 C 44.5801 -37.8906 49.2188 -41.3574 56.1523 -41.3574 C 64.4043 -41.3574 70.5566 -35.2051 70.5566 -27.002 C 70.5566 -18.0664 64.3555 -11.9629 55.2246 -11.9629 Z M 55.2734 -14.4531 C 62.8418 -14.4531 67.8711 -19.3359 67.8711 -26.7578 C 67.8711 -33.9844 62.793 -38.8672 55.4199 -38.8672 C 48.0957 -38.8672 42.7734 -33.7891 42.7734 -26.8555 C 42.7734 -19.6289 48.0469 -14.4531 55.2734 -14.4531 Z"/>
  </g>
  <g id="Thin-M" transform="matrix(1 0 0 1 799.806 1126)">
   <path d="M 56.5918 12.7441 C 82.9102 12.7441 104.492 -8.83789 104.492 -35.1562 C 104.492 -61.4746 82.9102 -83.0566 56.5918 -83.0566 C 30.3223 -83.0566 8.74023 -61.4746 8.74023 -35.1562 C 8.74023 -8.83789 30.3223 12.7441 56.5918 12.7441 Z M 56.0059 -11.7676 C 50.0977 -11.7676 44.9707 -14.502 42.2852 -19.5312 C 40.5762 -22.7051 39.5996 -27.7344 39.5996 -33.8867 C 39.5996 -49.8535 46.0938 -58.8379 56.9336 -58.8379 C 64.0625 -58.8379 68.9941 -54.4434 69.9707 -51.2207 C 70.1172 -50.8789 70.2148 -50.5859 70.2148 -50.0977 C 70.2148 -49.1211 69.5801 -48.4863 68.6523 -48.4863 C 67.6758 -48.4863 67.1875 -48.9746 66.5527 -49.9512 C 64.9414 -53.1738 61.1816 -55.3711 56.8359 -55.3711 C 48.4375 -55.3711 43.2617 -47.4609 43.2617 -34.082 L 43.2617 -33.4473 L 43.457 -33.4473 C 45.8008 -38.2324 50.2441 -41.6992 57.1777 -41.6992 C 65.4297 -41.6992 71.875 -35.7422 71.875 -27.1973 C 71.875 -17.8711 65.3809 -11.7676 56.0059 -11.7676 Z M 55.957 -15.0879 C 63.1836 -15.0879 67.9199 -19.7754 67.9199 -26.9043 C 67.9199 -33.7891 63.1348 -38.4277 56.0547 -38.4277 C 49.1211 -38.4277 44.043 -33.5938 44.043 -26.9531 C 44.043 -20.0684 49.0723 -15.0879 55.957 -15.0879 Z"/>
  </g>
  <g id="Light-M" transform="matrix(1 0 0 1 1095.42 1126)">
   <path d="M 57.7148 13.7695 C 84.5215 13.7695 106.689 -8.39844 106.689 -35.2051 C 106.689 -62.0117 84.4727 -84.1797 57.666 -84.1797 C 30.8594 -84.1797 8.74023 -62.0117 8.74023 -35.2051 C 8.74023 -8.39844 30.8594 13.7695 57.7148 13.7695 Z M 57.5195 -11.4258 C 51.5625 -11.4258 46.1914 -13.8672 43.1152 -19.1406 C 41.1621 -22.4609 39.9902 -27.5391 39.9902 -34.2285 C 39.9902 -50.9766 47.1191 -59.6191 58.6426 -59.6191 C 65.4785 -59.6191 70.752 -55.8105 72.1191 -52.2949 C 72.3633 -51.709 72.5098 -51.1719 72.5098 -50.5371 C 72.5098 -49.0723 71.4355 -48.0957 70.0684 -48.0957 C 68.6523 -48.0957 67.8223 -48.8281 66.6504 -50.1465 C 65.1367 -52.5879 62.3535 -54.4434 58.4473 -54.4434 C 50.8301 -54.4434 45.8984 -47.2656 45.8496 -35.4004 L 45.8496 -34.7168 L 46.1914 -34.7168 C 48.1445 -38.916 52.3438 -42.3828 59.2285 -42.3828 C 67.3828 -42.3828 74.3652 -36.7188 74.3652 -27.4902 C 74.3652 -17.5293 67.4316 -11.4258 57.5195 -11.4258 Z M 57.3242 -16.3574 C 63.8672 -16.3574 68.1152 -20.6055 68.1152 -27.1484 C 68.1152 -33.3496 63.7695 -37.6465 57.373 -37.6465 C 51.0742 -37.6465 46.582 -33.3008 46.582 -27.2461 C 46.582 -20.8984 51.0742 -16.3574 57.3242 -16.3574 Z"/>
  </g>
  <g id="Regular-M" transform="matrix(1 0 0 1 1391.32 1126)">
   <path d="M 58.5449 14.5508 C 85.7422 14.5508 108.35 -8.00781 108.35 -35.2539 C 108.35 -62.4512 85.6934 -85.0586 58.4961 -85.0586 C 31.25 -85.0586 8.74023 -62.4512 8.74023 -35.2539 C 8.74023 -8.00781 31.2988 14.5508 58.5449 14.5508 Z M 58.6426 -11.1816 C 52.6367 -11.1816 47.0703 -13.3789 43.75 -18.7988 C 41.6016 -22.3145 40.332 -27.3438 40.332 -34.4238 C 40.332 -51.8066 47.8516 -60.2539 59.9121 -60.2539 C 66.5527 -60.2539 72.0703 -56.8359 73.7305 -53.125 C 74.0234 -52.3926 74.2188 -51.6602 74.2188 -50.8789 C 74.2188 -49.0723 72.8516 -47.8516 71.1914 -47.8516 C 69.3359 -47.8516 68.3594 -48.7305 66.748 -50.3418 C 65.2832 -52.1484 63.2324 -53.7109 59.668 -53.7109 C 52.6855 -53.7109 47.9004 -47.1191 47.8516 -36.4258 L 47.8516 -35.6445 L 48.2422 -35.6445 C 49.9023 -39.4043 53.9062 -42.8711 60.7422 -42.8711 C 68.8477 -42.8711 76.2207 -37.4512 76.2207 -27.7344 C 76.2207 -17.2363 68.9453 -11.1816 58.6426 -11.1816 Z M 58.3008 -17.334 C 64.4043 -17.334 68.2129 -21.2891 68.2129 -27.3926 C 68.2129 -33.0566 64.2578 -37.0605 58.3496 -37.0605 C 52.5879 -37.0605 48.4863 -33.0566 48.4863 -27.4414 C 48.4863 -21.5332 52.5879 -17.334 58.3008 -17.334 Z"/>
  </g>
  <g id="Medium-M" transform="matrix(1 0 0 1 1687.33 1126)">
   <path d="M 59.2285 15.2832 C 86.8652 15.2832 109.717 -7.56836 109.717 -35.2051 C 109.717 -62.8906 86.8164 -85.7422 59.1797 -85.7422 C 31.543 -85.7422 8.74023 -62.8906 8.74023 -35.2051 C 8.74023 -7.56836 31.5918 15.2832 59.2285 15.2832 Z M 59.4727 -11.2793 C 53.0762 -11.2793 47.4121 -13.7207 43.9941 -19.2383 C 41.7969 -22.8027 40.5273 -27.832 40.5273 -34.7168 C 40.5273 -51.5137 48.2422 -59.9121 60.7422 -59.9121 C 67.4316 -59.9121 72.9492 -56.7383 74.707 -53.0762 C 75.1465 -52.2461 75.3906 -51.416 75.3906 -50.4883 C 75.3906 -48.3887 73.8281 -47.0215 71.7285 -47.0215 C 69.7266 -47.0215 68.6523 -47.9004 67.0898 -49.3164 C 65.6738 -50.9277 63.7695 -52.3926 60.498 -52.3926 C 54.1016 -52.3926 49.8535 -46.3867 49.8047 -36.9629 C 49.8047 -36.6211 49.8047 -36.2305 49.8535 -35.8887 L 50.2441 -35.8887 C 51.9043 -39.5996 55.7617 -42.7734 62.2559 -42.7734 C 70.459 -42.7734 77.5391 -37.4023 77.5391 -27.8809 C 77.5391 -17.4316 70.1172 -11.2793 59.4727 -11.2793 Z M 59.082 -18.6523 C 64.4043 -18.6523 67.8223 -22.168 67.8223 -27.5391 C 67.8223 -32.5684 64.3066 -36.1328 59.082 -36.1328 C 53.9551 -36.1328 50.3418 -32.5195 50.3418 -27.5879 C 50.3418 -22.3633 54.0039 -18.6523 59.082 -18.6523 Z"/>
  </g>
  <g id="Semibold-M" transform="matrix(1 0 0 1 1983.5 1126)">
   <path d="M 59.7656 15.8203 C 87.7441 15.8203 110.791 -7.22656 110.791 -35.2051 C 110.791 -63.1836 87.6953 -86.2793 59.7168 -86.2793 C 31.7383 -86.2793 8.74023 -63.1836 8.74023 -35.2051 C 8.74023 -7.22656 31.7871 15.8203 59.7656 15.8203 Z M 60.1562 -11.377 C 53.418 -11.377 47.7051 -13.916 44.1895 -19.5312 C 41.9922 -23.1934 40.7227 -28.2227 40.7227 -34.9121 C 40.7227 -51.2695 48.5352 -59.668 61.377 -59.668 C 68.0664 -59.668 73.584 -56.6895 75.4883 -53.0762 C 75.9766 -52.1484 76.3184 -51.2207 76.3184 -50.1953 C 76.3184 -47.9004 74.5605 -46.3867 72.168 -46.3867 C 70.0684 -46.3867 68.8965 -47.2656 67.3828 -48.5352 C 65.9668 -50 64.209 -51.3184 61.1816 -51.3184 C 55.2246 -51.3184 51.3184 -45.8984 51.2695 -37.4023 C 51.2695 -36.9629 51.3184 -36.5234 51.3672 -36.084 L 51.8066 -36.084 C 53.4668 -39.7949 57.1777 -42.7246 63.3789 -42.7246 C 71.7285 -42.7246 78.5156 -37.3535 78.5156 -27.9785 C 78.5156 -17.627 70.9961 -11.377 60.1562 -11.377 Z M 59.6191 -19.6777 C 64.4531 -19.6777 67.5293 -22.8027 67.5293 -27.6367 C 67.5293 -32.1777 64.3066 -35.4004 59.668 -35.4004 C 55.0293 -35.4004 51.7578 -32.1777 51.7578 -27.6855 C 51.7578 -22.998 55.0293 -19.6777 59.6191 -19.6777 Z"/>
  </g>
  <g id="Bold-M" transform="matrix(1 0 0 1 2279.5 1126)">
   <path d="M 60.4492 16.5039 C 88.8672 16.5039 112.207 -6.78711 112.207 -35.2051 C 112.207 -63.623 88.8672 -86.9629 60.4492 -86.9629 C 32.0312 -86.9629 8.74023 -63.623 8.74023 -35.2051 C 8.74023 -6.78711 32.0801 16.5039 60.4492 16.5039 Z M 60.9863 -11.5234 C 53.8574 -11.5234 48.0469 -14.209 44.4824 -19.9707 C 42.1875 -23.6816 40.918 -28.7109 40.918 -35.2051 C 40.918 -50.9766 48.9258 -59.3262 62.207 -59.3262 C 68.9453 -59.3262 74.4629 -56.5918 76.5137 -53.0762 C 77.0996 -52.0508 77.4902 -50.9766 77.4902 -49.7559 C 77.4902 -47.2168 75.5371 -45.5566 72.7539 -45.5566 C 70.459 -45.5566 69.1895 -46.3867 67.7246 -47.5098 C 66.3574 -48.7793 64.7461 -49.9512 62.0605 -49.9512 C 56.6895 -49.9512 53.2715 -45.166 53.2227 -37.9395 C 53.2227 -37.4512 53.2715 -36.8652 53.3203 -36.3281 L 53.8086 -36.3281 C 55.5176 -39.9902 59.082 -42.627 64.8438 -42.627 C 73.3887 -42.627 79.7852 -37.3047 79.7852 -28.125 C 79.7852 -17.8711 72.168 -11.5234 60.9863 -11.5234 Z M 60.4004 -20.9961 C 64.4531 -20.9961 67.0898 -23.6816 67.0898 -27.7832 C 67.0898 -31.6895 64.3555 -34.4727 60.4004 -34.4727 C 56.4453 -34.4727 53.6621 -31.6406 53.6621 -27.832 C 53.6621 -23.7793 56.4453 -20.9961 60.4004 -20.9961 Z"/>
  </g>
  <g id="Heavy-M" transform="matrix(1 0 0 1 2575.19 1126)">
   <path d="M 61.4746 17.5781 C 90.5273 17.5781 114.258 -6.15234 114.258 -35.2051 C 114.258 -64.2578 90.5273 -87.9883 61.4746 -87.9883 C 32.4219 -87.9883 8.74023 -64.2578 8.74023 -35.2051 C 8.74023 -6.15234 32.4707 17.5781 61.4746 17.5781 Z M 62.2559 -11.6699 C 54.4922 -11.6699 48.5352 -14.6484 44.873 -20.5566 C 42.4805 -24.4141 41.2598 -29.4434 41.2598 -35.5957 C 41.2598 -50.5371 49.5117 -58.8379 63.4277 -58.8379 C 70.2148 -58.8379 75.6836 -56.4453 77.9297 -53.0273 C 78.7598 -51.8555 79.1992 -50.6348 79.1992 -49.1699 C 79.1992 -46.2402 76.9531 -44.3359 73.584 -44.3359 C 71.0449 -44.3359 69.6777 -45.166 68.2617 -46.0449 C 66.8945 -47.0215 65.5762 -47.9492 63.3301 -47.9492 C 58.7891 -47.9492 56.1035 -44.1895 56.0547 -38.7207 C 56.0547 -38.0859 56.1035 -37.4023 56.2012 -36.6699 L 56.7383 -36.6699 C 58.4961 -40.2832 61.8164 -42.4805 67.041 -42.4805 C 75.7812 -42.4805 81.6406 -37.207 81.6406 -28.3691 C 81.6406 -18.1641 73.877 -11.6699 62.2559 -11.6699 Z M 61.4746 -22.9004 C 64.4531 -22.9004 66.5527 -25 66.5527 -28.0273 C 66.5527 -30.957 64.4531 -33.0566 61.4746 -33.0566 C 58.4961 -33.0566 56.3477 -30.9082 56.3477 -28.0273 C 56.3477 -25 58.4961 -22.9004 61.4746 -22.9004 Z"/>
  </g>
  <g id="Black-M" transform="matrix(1 0 0 1 2871 1126)">
   <path d="M 62.4023 18.457 C 91.9922 18.457 116.064 -5.61523 116.064 -35.2051 C 116.064 -64.7949 91.9922 -88.8672 62.4023 -88.8672 C 32.8125 -88.8672 8.74023 -64.7949 8.74023 -35.2051 C 8.74023 -5.61523 32.8125 18.457 62.4023 18.457 Z M 63.3301 -11.8652 C 55.0781 -11.8652 49.0234 -15.0391 45.2148 -21.0938 C 42.7734 -25.0488 41.5527 -30.0781 41.5527 -35.9863 C 41.5527 -50.1465 50 -58.3984 64.5508 -58.3984 C 71.3379 -58.3984 76.8066 -56.2988 79.248 -53.0273 C 80.2246 -51.709 80.7129 -50.293 80.7129 -48.6816 C 80.7129 -45.4102 78.2715 -43.2617 74.3652 -43.2617 C 71.582 -43.2617 70.0684 -44.043 68.75 -44.7266 C 67.4316 -45.459 66.3086 -46.1914 64.4531 -46.1914 C 60.6934 -46.1914 58.5938 -43.2617 58.5938 -39.4043 C 58.5938 -38.6719 58.6914 -37.8418 58.7891 -36.9629 L 59.375 -36.9629 C 61.1328 -40.5762 64.3066 -42.334 68.9941 -42.334 C 77.9297 -42.334 83.3496 -37.1094 83.3496 -28.5645 C 83.3496 -18.457 75.3906 -11.8652 63.3301 -11.8652 Z M 62.4512 -24.6582 C 64.502 -24.6582 66.0156 -26.123 66.0156 -28.2227 C 66.0156 -30.2734 64.502 -31.8359 62.4512 -31.8359 C 60.3027 -31.8359 58.7891 -30.2734 58.7891 -28.2227 C 58.7891 -26.0742 60.3027 -24.6582 62.4512 -24.6582 Z"/>
  </g>
  <g id="Ultralight-L" transform="matrix(1 0 0 1 487.641 1556)">
   <path d="M 72.0703 25.7324 C 105.566 25.7324 132.91 -1.61133 132.91 -35.1074 C 132.91 -68.5547 105.566 -95.8984 72.0703 -95.8984 C 38.623 -95.8984 11.2793 -68.5547 11.2793 -35.1074 C 11.2793 -1.61133 38.623 25.7324 72.0703 25.7324 Z M 70.8984 -5.27344 C 63.3789 -5.27344 57.0312 -9.08203 53.8086 -15.3809 C 51.8555 -19.2383 50.7324 -25.7812 50.7324 -33.252 C 50.7324 -53.125 58.5938 -64.9414 71.9727 -64.9414 C 81.3965 -64.9414 87.5 -58.7891 88.4277 -54.9316 C 88.4766 -54.6387 88.5742 -54.4922 88.5742 -54.0527 C 88.5742 -53.2227 88.0859 -52.6855 87.3535 -52.6855 C 86.5234 -52.6855 86.1328 -53.0762 85.791 -54.0039 C 83.6914 -58.9355 77.9297 -62.0605 71.9238 -62.0605 C 60.3516 -62.0605 53.4668 -51.1719 53.4668 -32.5684 L 53.4668 -31.7871 L 53.7109 -31.7871 C 57.0312 -38.5254 63.0371 -42.9688 71.9727 -42.9688 C 82.7148 -42.9688 90.5273 -35.0098 90.5273 -24.5605 C 90.5273 -13.1836 82.6172 -5.27344 70.8984 -5.27344 Z M 71.0449 -8.1543 C 80.957 -8.1543 87.5488 -14.5508 87.5488 -24.2676 C 87.5488 -33.6914 80.9082 -40.0879 71.2402 -40.0879 C 61.6211 -40.0879 54.6387 -33.4473 54.6387 -24.3164 C 54.6387 -14.9414 61.5234 -8.1543 71.0449 -8.1543 Z"/>
  </g>
  <g id="Thin-L" transform="matrix(1 0 0 1 783.717 1556)">
   <path d="M 72.7051 26.3184 C 106.494 26.3184 134.131 -1.36719 134.131 -35.1074 C 134.131 -68.8965 106.445 -96.582 72.7051 -96.582 C 38.916 -96.582 11.2793 -68.8965 11.2793 -35.1074 C 11.2793 -1.36719 38.916 26.3184 72.7051 26.3184 Z M 71.7773 -5.07812 C 64.209 -5.07812 57.666 -8.69141 54.2969 -15.1367 C 52.1973 -19.1406 50.9277 -25.6348 50.9277 -33.4473 C 50.9277 -53.7598 59.1797 -65.4297 72.9492 -65.4297 C 82.2266 -65.4297 88.4766 -59.5703 89.6484 -55.5176 C 89.7461 -55.127 89.8438 -54.834 89.8438 -54.2969 C 89.8438 -53.1738 89.1602 -52.4414 88.1348 -52.4414 C 87.0605 -52.4414 86.4746 -53.0273 85.8398 -54.1504 C 83.7891 -58.5938 78.6133 -61.5234 72.8516 -61.5234 C 61.7676 -61.5234 54.9805 -51.0742 54.9805 -33.3496 L 54.9805 -32.5195 L 55.2246 -32.5195 C 58.3496 -38.916 64.209 -43.3594 73.1445 -43.3594 C 83.7891 -43.3594 91.9434 -35.5469 91.9434 -24.7559 C 91.9434 -12.9395 83.7402 -5.07812 71.7773 -5.07812 Z M 71.8262 -8.88672 C 81.3477 -8.88672 87.6465 -15.0391 87.6465 -24.4141 C 87.6465 -33.4473 81.25 -39.5996 71.9727 -39.5996 C 62.7441 -39.5996 56.0547 -33.252 56.0547 -24.5117 C 56.0547 -15.4297 62.6953 -8.88672 71.8262 -8.88672 Z"/>
  </g>
  <g id="Light-L" transform="matrix(1 0 0 1 1079.21 1556)">
   <path d="M 73.9258 27.4902 C 108.301 27.4902 136.572 -0.830078 136.572 -35.1562 C 136.572 -69.5312 108.252 -97.8516 73.877 -97.8516 C 39.5508 -97.8516 11.2793 -69.5312 11.2793 -35.1562 C 11.2793 -0.830078 39.5508 27.4902 73.9258 27.4902 Z M 73.4863 -4.6875 C 65.8203 -4.6875 59.0332 -8.00781 55.2246 -14.6484 C 52.832 -18.8965 51.416 -25.3906 51.416 -33.7891 C 51.416 -54.9805 60.3027 -66.3086 74.8535 -66.3086 C 83.7891 -66.3086 90.4297 -61.084 92.041 -56.7383 C 92.2363 -56.1035 92.4316 -55.5176 92.4316 -54.7852 C 92.4316 -53.125 91.2598 -52.0508 89.7461 -52.0508 C 88.0859 -52.0508 87.207 -52.8809 85.9863 -54.3945 C 83.9844 -57.9102 79.8828 -60.498 74.6582 -60.498 C 64.4531 -60.498 57.959 -50.8301 57.9102 -34.8145 L 57.9102 -33.9355 L 58.3008 -33.9355 C 60.9863 -39.6484 66.5039 -44.0918 75.3906 -44.0918 C 85.9863 -44.0918 94.7266 -36.6699 94.7266 -25.0977 C 94.7266 -12.5488 85.9863 -4.6875 73.4863 -4.6875 Z M 73.291 -10.3027 C 82.0801 -10.3027 87.793 -15.9668 87.793 -24.707 C 87.793 -33.0078 81.9824 -38.7207 73.3887 -38.7207 C 64.9414 -38.7207 58.8867 -32.8613 58.8867 -24.8047 C 58.8867 -16.3574 64.9414 -10.3027 73.291 -10.3027 Z"/>
  </g>
  <g id="Regular-L" transform="matrix(1 0 0 1 1374.99 1556)">
   <path d="M 74.8535 28.3691 C 109.668 28.3691 138.428 -0.390625 138.428 -35.2051 C 138.428 -70.0195 109.619 -98.7793 74.8047 -98.7793 C 39.9902 -98.7793 11.2793 -70.0195 11.2793 -35.2051 C 11.2793 -0.390625 40.0391 28.3691 74.8535 28.3691 Z M 74.7559 -4.39453 C 67.041 -4.39453 60.0098 -7.4707 55.9082 -14.3066 C 53.3203 -18.7012 51.7578 -25.1953 51.7578 -34.0332 C 51.7578 -55.9082 61.1328 -66.9922 76.2695 -66.9922 C 85.0098 -66.9922 91.9434 -62.2559 93.7988 -57.6172 C 94.1406 -56.8359 94.3848 -56.0547 94.3848 -55.1758 C 94.3848 -53.125 92.8223 -51.709 90.9668 -51.709 C 88.916 -51.709 87.793 -52.7344 86.0352 -54.5898 C 84.1309 -57.4219 80.8594 -59.668 75.9766 -59.668 C 66.4551 -59.668 60.2051 -50.6836 60.1074 -35.9375 L 60.1074 -35.0098 L 60.5469 -35.0098 C 62.9395 -40.1855 68.2617 -44.6777 77.1484 -44.6777 C 87.6465 -44.6777 96.8262 -37.5 96.8262 -25.3418 C 96.8262 -12.2559 87.6953 -4.39453 74.7559 -4.39453 Z M 74.4141 -11.377 C 82.666 -11.377 87.9395 -16.6992 87.9395 -24.9023 C 87.9395 -32.7148 82.5195 -38.0859 74.5117 -38.0859 C 66.6016 -38.0859 60.9863 -32.6172 60.9863 -25 C 60.9863 -17.041 66.6504 -11.377 74.4141 -11.377 Z"/>
  </g>
  <g id="Medium-L" transform="matrix(1 0 0 1 1670.9 1556)">
   <path d="M 75.6348 29.1992 C 110.938 29.1992 140.039 0.0488281 140.039 -35.2051 C 140.039 -70.459 110.889 -99.6094 75.5859 -99.6094 C 40.332 -99.6094 11.2793 -70.459 11.2793 -35.2051 C 11.2793 0.0488281 40.3809 29.1992 75.6348 29.1992 Z M 75.7324 -4.44336 C 67.6758 -4.44336 60.498 -7.61719 56.2988 -14.5996 C 53.6133 -19.0918 52.0508 -25.6348 52.0508 -34.3262 C 52.0508 -55.8105 61.6699 -66.8457 77.2949 -66.8457 C 85.9863 -66.8457 92.9688 -62.4023 95.0684 -57.7637 C 95.5078 -56.8359 95.8008 -55.9082 95.8008 -54.834 C 95.8008 -52.4902 93.9941 -50.9277 91.6992 -50.9277 C 89.4043 -50.9277 88.1836 -51.9531 86.377 -53.7109 C 84.4727 -56.25 81.543 -58.3008 77.002 -58.3008 C 68.1641 -58.3008 62.3535 -50 62.3047 -36.6699 C 62.3047 -36.2793 62.3047 -35.791 62.3535 -35.4004 L 62.8418 -35.4004 C 65.1367 -40.5273 70.2637 -44.6777 78.8086 -44.6777 C 89.4043 -44.6777 98.3887 -37.5977 98.3887 -25.5371 C 98.3887 -12.4023 89.0625 -4.44336 75.7324 -4.44336 Z M 75.293 -12.7441 C 82.8125 -12.7441 87.5977 -17.627 87.5977 -25.0977 C 87.5977 -32.1777 82.6172 -37.1094 75.3418 -37.1094 C 68.1641 -37.1094 63.0859 -32.0801 63.0859 -25.1953 C 63.0859 -17.9199 68.2129 -12.7441 75.293 -12.7441 Z"/>
  </g>
  <g id="Semibold-L" transform="matrix(1 0 0 1 1967 1556)">
   <path d="M 76.2695 29.7852 C 111.914 29.7852 141.26 0.439453 141.26 -35.2051 C 141.26 -70.8496 111.865 -100.244 76.2207 -100.244 C 40.5762 -100.244 11.2793 -70.8496 11.2793 -35.2051 C 11.2793 0.439453 40.625 29.7852 76.2695 29.7852 Z M 76.5137 -4.49219 C 68.1152 -4.49219 60.8887 -7.76367 56.5918 -14.8438 C 53.8086 -19.4336 52.2461 -25.9277 52.2461 -34.5703 C 52.2461 -55.7617 62.0605 -66.6992 78.0762 -66.6992 C 86.7676 -66.6992 93.7988 -62.5 95.9961 -57.9102 C 96.5332 -56.8359 96.875 -55.8105 96.875 -54.6387 C 96.875 -52.002 94.9219 -50.293 92.2363 -50.293 C 89.7949 -50.293 88.4766 -51.3672 86.6699 -53.0273 C 84.7656 -55.3223 82.0801 -57.2266 77.832 -57.2266 C 69.4336 -57.2266 64.0137 -49.5117 63.9648 -37.207 C 63.9648 -36.7188 64.0137 -36.1816 64.0137 -35.7422 L 64.5508 -35.7422 C 66.8457 -40.7227 71.8262 -44.7266 80.0781 -44.7266 C 90.7715 -44.7266 99.5605 -37.6465 99.5605 -25.6836 C 99.5605 -12.5 90.1367 -4.49219 76.5137 -4.49219 Z M 75.9766 -13.8184 C 82.9102 -13.8184 87.3047 -18.3594 87.3047 -25.2441 C 87.3047 -31.7871 82.7637 -36.3281 76.0254 -36.3281 C 69.3848 -36.3281 64.6973 -31.6895 64.6973 -25.293 C 64.6973 -18.6035 69.4336 -13.8184 75.9766 -13.8184 Z"/>
  </g>
  <g id="Bold-L" transform="matrix(1 0 0 1 2262.9 1556)">
   <path d="M 77.0996 30.6152 C 113.184 30.6152 142.92 0.878906 142.92 -35.2051 C 142.92 -71.3379 113.135 -101.025 77.0508 -101.025 C 40.918 -101.025 11.2793 -71.3379 11.2793 -35.2051 C 11.2793 0.878906 40.9668 30.6152 77.0996 30.6152 Z M 77.5391 -4.54102 C 68.75 -4.54102 61.377 -7.95898 56.9336 -15.1855 C 54.1016 -19.873 52.4902 -26.3672 52.4902 -34.8633 C 52.4902 -55.6152 62.5488 -66.5039 79.1016 -66.5039 C 87.793 -66.5039 94.8242 -62.5977 97.2656 -58.0566 C 97.9004 -56.8848 98.291 -55.6641 98.291 -54.3457 C 98.291 -51.416 96.0938 -49.4629 93.0176 -49.4629 C 90.332 -49.4629 88.8672 -50.5371 87.0117 -52.0996 C 85.1562 -54.1016 82.7637 -55.8105 78.8574 -55.8105 C 71.1426 -55.8105 66.2109 -48.8281 66.1621 -37.8906 C 66.1621 -37.3535 66.2109 -36.7188 66.2598 -36.1328 L 66.7969 -36.1328 C 69.0918 -41.0156 73.877 -44.7266 81.7383 -44.7266 C 92.627 -44.7266 101.123 -37.7441 101.123 -25.8789 C 101.123 -12.6465 91.5039 -4.54102 77.5391 -4.54102 Z M 76.9043 -15.2344 C 83.0078 -15.2344 86.9629 -19.2871 86.9629 -25.4395 C 86.9629 -31.25 82.9102 -35.3516 76.9043 -35.3516 C 70.9961 -35.3516 66.7969 -31.2012 66.7969 -25.4883 C 66.7969 -19.4824 70.9961 -15.2344 76.9043 -15.2344 Z"/>
  </g>
  <g id="Heavy-L" transform="matrix(1 0 0 1 2558.42 1556)">
   <path d="M 78.2715 31.7871 C 115.039 31.7871 145.264 1.61133 145.264 -35.2051 C 145.264 -72.0215 115.039 -102.197 78.2227 -102.197 C 41.4551 -102.197 11.2793 -72.0215 11.2793 -35.2051 C 11.2793 1.61133 41.4551 31.7871 78.2715 31.7871 Z M 79.0039 -4.63867 C 69.6777 -4.63867 62.1582 -8.20312 57.4707 -15.625 C 54.4922 -20.459 52.8809 -26.9531 52.8809 -35.3027 C 52.8809 -55.5176 63.2812 -66.2598 80.5664 -66.2598 C 89.2578 -66.2598 96.3867 -62.793 99.0723 -58.252 C 99.9023 -56.8848 100.391 -55.4688 100.391 -53.9062 C 100.391 -50.5371 97.8027 -48.291 94.0918 -48.291 C 91.0645 -48.291 89.4043 -49.4141 87.5 -50.7812 C 85.7422 -52.3438 83.7891 -53.8086 80.3711 -53.8086 C 73.6328 -53.8086 69.3848 -47.8516 69.3359 -38.916 C 69.3359 -38.2324 69.3848 -37.5 69.4824 -36.7188 L 70.1172 -36.7188 C 72.3145 -41.4551 76.8555 -44.7266 84.1797 -44.7266 C 95.2148 -44.7266 103.418 -37.8906 103.418 -26.123 C 103.418 -12.8418 93.5547 -4.63867 79.0039 -4.63867 Z M 78.1738 -17.2852 C 83.2031 -17.2852 86.4746 -20.6543 86.4746 -25.6836 C 86.4746 -30.4688 83.1055 -33.9355 78.2227 -33.9355 C 73.291 -33.9355 69.873 -30.4688 69.873 -25.7324 C 69.873 -20.752 73.3398 -17.2852 78.1738 -17.2852 Z"/>
  </g>
  <g id="Black-L" transform="matrix(1 0 0 1 2854.08 1556)">
   <path d="M 79.2969 32.8613 C 116.748 32.8613 147.363 2.19727 147.363 -35.2051 C 147.363 -72.6074 116.699 -103.271 79.2969 -103.271 C 41.8945 -103.271 11.2793 -72.6074 11.2793 -35.2051 C 11.2793 2.19727 41.8945 32.8613 79.2969 32.8613 Z M 80.3223 -4.73633 C 70.459 -4.73633 62.793 -8.44727 57.959 -16.0645 C 54.8828 -20.9961 53.2227 -27.5391 53.2227 -35.6934 C 53.2227 -55.3711 63.9648 -66.0156 81.9336 -66.0156 C 90.5762 -66.0156 97.7539 -62.9395 100.684 -58.4473 C 101.709 -56.9336 102.246 -55.3223 102.246 -53.5156 C 102.246 -49.707 99.3652 -47.2168 95.0684 -47.2168 C 91.748 -47.2168 89.9414 -48.3398 87.9395 -49.6582 C 86.2305 -50.7812 84.668 -52.002 81.7383 -52.002 C 75.8301 -52.002 72.2168 -47.0215 72.2168 -39.8438 C 72.2168 -39.0625 72.2656 -38.1836 72.3633 -37.2559 L 73.0469 -37.2559 C 75.1953 -41.8457 79.541 -44.7754 86.377 -44.7754 C 97.5586 -44.7754 105.469 -37.9883 105.469 -26.3672 C 105.469 -13.0371 95.3613 -4.73633 80.3223 -4.73633 Z M 79.3457 -19.0918 C 83.3496 -19.0918 86.0352 -21.875 86.0352 -25.9277 C 86.0352 -29.7852 83.3008 -32.6172 79.3457 -32.6172 C 75.3418 -32.6172 72.5586 -29.7852 72.5586 -25.9766 C 72.5586 -21.9238 75.3906 -19.0918 79.3457 -19.0918 Z"/>
  </g>
 </g>
</svg>
