<?xml version="1.0" encoding="UTF-8"?>
<!--Generator: Apple Native CoreSVG 123-->
<!DOCTYPE svg
PUBLIC "-//W3C//DTD SVG 1.1//EN"
       "http://www.w3.org/Graphics/SVG/1.1/DTD/svg11.dtd">
<svg version="1.1" xmlns="http://www.w3.org/2000/svg" xmlns:xlink="http://www.w3.org/1999/xlink" width="3300" height="2200">
 <!--glyph: "uni10004A.medium", point size: 100.000000, font version: "Version 15.0d4e20", template writer version: "2"-->
 <g id="Notes">
  <rect height="2200" id="artboard" style="fill:white;opacity:1" width="3300" x="0" y="0"/>
  <line id="" style="fill:none;stroke:black;opacity:1;stroke-width:0.5;" x1="263" x2="3036" y1="292" y2="292"/>
  <text style="stroke:none;fill:black;font-family:-apple-system,&quot;SF Pro Display&quot;,&quot;SF Pro Text&quot;,Helvetica,sans-serif;font-weight:bold;" transform="matrix(1 0 0 1 263 322)">Weight/Scale Variations</text>
  <text style="stroke:none;fill:black;font-family:-apple-system,&quot;SF Pro Display&quot;,&quot;SF Pro Text&quot;,Helvetica,sans-serif;text-anchor:middle;" transform="matrix(1 0 0 1 559.711 322)">Ultralight</text>
  <text style="stroke:none;fill:black;font-family:-apple-system,&quot;SF Pro Display&quot;,&quot;SF Pro Text&quot;,Helvetica,sans-serif;text-anchor:middle;" transform="matrix(1 0 0 1 856.422 322)">Thin</text>
  <text style="stroke:none;fill:black;font-family:-apple-system,&quot;SF Pro Display&quot;,&quot;SF Pro Text&quot;,Helvetica,sans-serif;text-anchor:middle;" transform="matrix(1 0 0 1 1153.13 322)">Light</text>
  <text style="stroke:none;fill:black;font-family:-apple-system,&quot;SF Pro Display&quot;,&quot;SF Pro Text&quot;,Helvetica,sans-serif;text-anchor:middle;" transform="matrix(1 0 0 1 1449.84 322)">Regular</text>
  <text style="stroke:none;fill:black;font-family:-apple-system,&quot;SF Pro Display&quot;,&quot;SF Pro Text&quot;,Helvetica,sans-serif;text-anchor:middle;" transform="matrix(1 0 0 1 1746.56 322)">Medium</text>
  <text style="stroke:none;fill:black;font-family:-apple-system,&quot;SF Pro Display&quot;,&quot;SF Pro Text&quot;,Helvetica,sans-serif;text-anchor:middle;" transform="matrix(1 0 0 1 2043.27 322)">Semibold</text>
  <text style="stroke:none;fill:black;font-family:-apple-system,&quot;SF Pro Display&quot;,&quot;SF Pro Text&quot;,Helvetica,sans-serif;text-anchor:middle;" transform="matrix(1 0 0 1 2339.98 322)">Bold</text>
  <text style="stroke:none;fill:black;font-family:-apple-system,&quot;SF Pro Display&quot;,&quot;SF Pro Text&quot;,Helvetica,sans-serif;text-anchor:middle;" transform="matrix(1 0 0 1 2636.69 322)">Heavy</text>
  <text style="stroke:none;fill:black;font-family:-apple-system,&quot;SF Pro Display&quot;,&quot;SF Pro Text&quot;,Helvetica,sans-serif;text-anchor:middle;" transform="matrix(1 0 0 1 2933.4 322)">Black</text>
  <line id="" style="fill:none;stroke:black;opacity:1;stroke-width:0.5;" x1="263" x2="3036" y1="1903" y2="1903"/>
  <g id="" transform="matrix(1 0 0 1 263 1933)">
   <path d="M 9.24805 0.830078 C 13.5547 0.830078 17.1387 -2.74414 17.1387 -7.05078 C 17.1387 -11.3574 13.5449 -14.9316 9.23828 -14.9316 C 4.94141 -14.9316 1.36719 -11.3574 1.36719 -7.05078 C 1.36719 -2.74414 4.95117 0.830078 9.24805 0.830078 Z M 9.24805 -0.654297 C 5.70312 -0.654297 2.87109 -3.49609 2.87109 -7.05078 C 2.87109 -10.6055 5.69336 -13.4473 9.23828 -13.4473 C 12.793 -13.4473 15.6348 -10.6055 15.6445 -7.05078 C 15.6543 -3.49609 12.8027 -0.654297 9.24805 -0.654297 Z M 9.22852 -3.42773 C 9.69727 -3.42773 9.9707 -3.74023 9.9707 -4.25781 L 9.9707 -6.31836 L 12.1973 -6.31836 C 12.6953 -6.31836 13.0371 -6.57227 13.0371 -7.04102 C 13.0371 -7.51953 12.7148 -7.7832 12.1973 -7.7832 L 9.9707 -7.7832 L 9.9707 -10.0098 C 9.9707 -10.5273 9.69727 -10.8496 9.22852 -10.8496 C 8.75977 -10.8496 8.50586 -10.5078 8.50586 -10.0098 L 8.50586 -7.7832 L 6.29883 -7.7832 C 5.78125 -7.7832 5.44922 -7.51953 5.44922 -7.04102 C 5.44922 -6.57227 5.80078 -6.31836 6.29883 -6.31836 L 8.50586 -6.31836 L 8.50586 -4.25781 C 8.50586 -3.75977 8.75977 -3.42773 9.22852 -3.42773 Z"/>
  </g>
  <g id="" transform="matrix(1 0 0 1 281.506 1933)">
   <path d="M 11.709 2.91016 C 17.1484 2.91016 21.6699 -1.60156 21.6699 -7.05078 C 21.6699 -12.4902 17.1387 -17.0117 11.6992 -17.0117 C 6.25 -17.0117 1.74805 -12.4902 1.74805 -7.05078 C 1.74805 -1.60156 6.25977 2.91016 11.709 2.91016 Z M 11.709 1.25 C 7.09961 1.25 3.41797 -2.44141 3.41797 -7.05078 C 3.41797 -11.6504 7.08984 -15.3516 11.6992 -15.3516 C 16.2988 -15.3516 20 -11.6504 20.0098 -7.05078 C 20.0195 -2.44141 16.3086 1.25 11.709 1.25 Z M 11.6797 -2.41211 C 12.207 -2.41211 12.5195 -2.77344 12.5195 -3.33984 L 12.5195 -6.23047 L 15.5762 -6.23047 C 16.123 -6.23047 16.5039 -6.51367 16.5039 -7.03125 C 16.5039 -7.55859 16.1426 -7.86133 15.5762 -7.86133 L 12.5195 -7.86133 L 12.5195 -10.9277 C 12.5195 -11.5039 12.207 -11.8555 11.6797 -11.8555 C 11.1621 -11.8555 10.8789 -11.4844 10.8789 -10.9277 L 10.8789 -7.86133 L 7.83203 -7.86133 C 7.25586 -7.86133 6.89453 -7.55859 6.89453 -7.03125 C 6.89453 -6.51367 7.28516 -6.23047 7.83203 -6.23047 L 10.8789 -6.23047 L 10.8789 -3.33984 C 10.8789 -2.79297 11.1621 -2.41211 11.6797 -2.41211 Z"/>
  </g>
  <g id="" transform="matrix(1 0 0 1 304.914 1933)">
   <path d="M 14.9707 5.67383 C 21.9336 5.67383 27.6855 -0.078125 27.6855 -7.04102 C 27.6855 -14.0039 21.9238 -19.7559 14.9609 -19.7559 C 7.99805 -19.7559 2.25586 -14.0039 2.25586 -7.04102 C 2.25586 -0.078125 8.00781 5.67383 14.9707 5.67383 Z M 14.9707 3.85742 C 8.92578 3.85742 4.08203 -1.00586 4.08203 -7.04102 C 4.08203 -13.0762 8.91602 -17.9395 14.9609 -17.9395 C 20.9961 -17.9395 25.8594 -13.0762 25.8691 -7.04102 C 25.8789 -1.00586 21.0059 3.85742 14.9707 3.85742 Z M 14.9414 -1.06445 C 15.5176 -1.06445 15.8594 -1.45508 15.8594 -2.06055 L 15.8594 -6.13281 L 20.0977 -6.13281 C 20.6934 -6.13281 21.1133 -6.46484 21.1133 -7.02148 C 21.1133 -7.59766 20.7227 -7.93945 20.0977 -7.93945 L 15.8594 -7.93945 L 15.8594 -12.1875 C 15.8594 -12.8027 15.5176 -13.1934 14.9414 -13.1934 C 14.3848 -13.1934 14.0625 -12.7832 14.0625 -12.1875 L 14.0625 -7.93945 L 9.82422 -7.93945 C 9.20898 -7.93945 8.80859 -7.59766 8.80859 -7.02148 C 8.80859 -6.46484 9.23828 -6.13281 9.82422 -6.13281 L 14.0625 -6.13281 L 14.0625 -2.06055 C 14.0625 -1.47461 14.3848 -1.06445 14.9414 -1.06445 Z"/>
  </g>
  <text style="stroke:none;fill:black;font-family:-apple-system,&quot;SF Pro Display&quot;,&quot;SF Pro Text&quot;,Helvetica,sans-serif;font-weight:bold;" transform="matrix(1 0 0 1 263 1953)">Design Variations</text>
  <text style="stroke:none;fill:black;font-family:-apple-system,&quot;SF Pro Display&quot;,&quot;SF Pro Text&quot;,Helvetica,sans-serif;" transform="matrix(1 0 0 1 263 1971)">Symbols are supported in up to nine weights and three scales.</text>
  <text style="stroke:none;fill:black;font-family:-apple-system,&quot;SF Pro Display&quot;,&quot;SF Pro Text&quot;,Helvetica,sans-serif;" transform="matrix(1 0 0 1 263 1989)">For optimal layout with text and other symbols, vertically align</text>
  <text style="stroke:none;fill:black;font-family:-apple-system,&quot;SF Pro Display&quot;,&quot;SF Pro Text&quot;,Helvetica,sans-serif;" transform="matrix(1 0 0 1 263 2007)">symbols with the adjacent text.</text>
  <rect height="14" id="" style="fill:#00AEEF;stroke:none;opacity:0.4;" width="3" x="776" y="1919"/>
  <g id="" transform="matrix(1 0 0 1 779 1933)">
   <path d="M 10.5273 0 L 12.373 0 L 7.17773 -14.0918 L 5.43945 -14.0918 L 0.244141 0 L 2.08984 0 L 3.50586 -4.0332 L 9.11133 -4.0332 Z M 6.2793 -11.9531 L 6.33789 -11.9531 L 8.59375 -5.52734 L 4.02344 -5.52734 Z"/>
  </g>
  <rect height="14" id="" style="fill:#00AEEF;stroke:none;opacity:0.4;" width="3" x="791.617" y="1919"/>
  <text style="stroke:none;fill:black;font-family:-apple-system,&quot;SF Pro Display&quot;,&quot;SF Pro Text&quot;,Helvetica,sans-serif;font-weight:bold;" transform="matrix(1 0 0 1 776 1953)">Side Bearings</text>
  <text style="stroke:none;fill:black;font-family:-apple-system,&quot;SF Pro Display&quot;,&quot;SF Pro Text&quot;,Helvetica,sans-serif;" transform="matrix(1 0 0 1 776 1971)">Horizontal padding on the left and right side of each symbol</text>
  <text style="stroke:none;fill:black;font-family:-apple-system,&quot;SF Pro Display&quot;,&quot;SF Pro Text&quot;,Helvetica,sans-serif;" transform="matrix(1 0 0 1 776 1989)">can be adjusted by modifying the width of the blue rectangles.</text>
  <text style="stroke:none;fill:black;font-family:-apple-system,&quot;SF Pro Display&quot;,&quot;SF Pro Text&quot;,Helvetica,sans-serif;" transform="matrix(1 0 0 1 776 2007)">Modifications are automatically applied proportionally to all</text>
  <text style="stroke:none;fill:black;font-family:-apple-system,&quot;SF Pro Display&quot;,&quot;SF Pro Text&quot;,Helvetica,sans-serif;" transform="matrix(1 0 0 1 776 2025)">scales and weights.</text>
  <g id="" transform="matrix(1 0 0 1 1289 1933)">
   <path d="M 2.96875 2.35352 L 3.80859 3.19336 C 4.84375 4.22852 6.12305 4.15039 7.19727 2.97852 L 16.1621 -6.82617 C 16.5527 -6.74805 16.9629 -6.8457 17.4902 -7.02148 C 18.1738 -7.25586 18.2715 -7.25586 18.3887 -7.13867 C 18.5352 -7.01172 18.4863 -6.89453 18.2422 -6.25 C 17.8809 -5.33203 17.8125 -4.79492 18.5547 -4.02344 L 19.4238 -3.13477 C 20.2734 -2.24609 21.3281 -2.26562 22.2168 -3.14453 L 25.0586 -5.97656 C 25.9473 -6.86523 25.957 -7.92969 25.0781 -8.7793 L 24.1797 -9.64844 C 23.4082 -10.4004 22.8711 -10.3516 21.9629 -9.98047 C 21.3184 -9.72656 21.2012 -9.6875 21.0645 -9.81445 C 20.9375 -9.93164 20.9473 -10.0391 21.1816 -10.7129 C 21.5332 -11.6895 21.5723 -12.2852 20.752 -13.0957 L 19.3359 -14.5117 C 15.1953 -18.6133 11.2305 -18.7402 7.65625 -15.4395 C 7.08008 -14.9023 6.99219 -14.1504 7.53906 -13.6133 L 7.79297 -13.3594 C 8.22266 -12.9297 8.86719 -12.8418 9.41406 -13.1152 C 11.0645 -13.9453 12.2559 -14.0234 13.457 -12.9785 L 13.0273 -11.416 C 12.8516 -10.8008 12.793 -10.3418 12.9199 -9.93164 L 3.18359 -1.04492 C 2.02148 0.0292969 1.93359 1.32812 2.96875 2.35352 Z M 8.96484 -14.4922 C 8.89648 -14.5703 8.86719 -14.6582 8.99414 -14.7559 C 11.709 -17.2852 15.0391 -16.8457 18.3496 -13.5254 L 19.6973 -12.168 C 20.0879 -11.7773 20.0977 -11.582 19.8828 -10.8691 C 19.6582 -10.127 19.502 -9.53125 20.1465 -8.88672 C 20.8105 -8.22266 21.2891 -8.41797 22.207 -8.63281 C 22.9004 -8.79883 23.0664 -8.79883 23.4473 -8.41797 L 24.0918 -7.77344 C 24.4043 -7.48047 24.4141 -7.32422 24.0723 -6.97266 L 21.2207 -4.13086 C 20.8887 -3.79883 20.7227 -3.79883 20.4297 -4.10156 L 19.7852 -4.75586 C 19.4141 -5.13672 19.4141 -5.30273 19.5801 -6.01562 C 19.7852 -6.88477 19.9805 -7.38281 19.3262 -8.04688 C 18.6719 -8.7207 18.0762 -8.57422 17.3438 -8.33008 C 16.5625 -8.06641 16.3281 -8.06641 15.8984 -8.49609 L 14.6094 -9.78516 C 14.1699 -10.2246 14.1309 -10.4395 14.2676 -10.9082 L 15.0293 -13.3984 C 13.3887 -15.2832 11.4941 -15.5566 9.20898 -14.4434 C 9.11133 -14.3945 9.04297 -14.4141 8.96484 -14.4922 Z M 3.96484 1.36719 C 3.52539 0.927734 3.54492 0.537109 4.14062 -0.00976562 L 13.7402 -8.81836 L 15 -7.55859 L 6.17188 2.02148 C 5.625 2.60742 5.24414 2.64648 4.79492 2.19727 Z"/>
  </g>
  <text style="stroke:none;fill:black;font-family:-apple-system,&quot;SF Pro Display&quot;,&quot;SF Pro Text&quot;,Helvetica,sans-serif;font-weight:bold;" transform="matrix(1 0 0 1 1289 1953)">Exporting</text>
  <text style="stroke:none;fill:black;font-family:-apple-system,&quot;SF Pro Display&quot;,&quot;SF Pro Text&quot;,Helvetica,sans-serif;" transform="matrix(1 0 0 1 1289 1971)">Symbols should be outlined when exporting to ensure the</text>
  <text style="stroke:none;fill:black;font-family:-apple-system,&quot;SF Pro Display&quot;,&quot;SF Pro Text&quot;,Helvetica,sans-serif;" transform="matrix(1 0 0 1 1289 1989)">design is preserved when submitting to Xcode.</text>
  <text id="template-version" style="stroke:none;fill:black;font-family:-apple-system,&quot;SF Pro Display&quot;,&quot;SF Pro Text&quot;,Helvetica,sans-serif;text-anchor:end;" transform="matrix(1 0 0 1 3036 1933)">Template v.0.1</text>
  <text style="stroke:none;fill:black;font-family:-apple-system,&quot;SF Pro Display&quot;,&quot;SF Pro Text&quot;,Helvetica,sans-serif;text-anchor:end;" transform="matrix(1 0 0 1 3036 1951)">Generated from 9.circle</text>
  <text style="stroke:none;fill:black;font-family:-apple-system,&quot;SF Pro Display&quot;,&quot;SF Pro Text&quot;,Helvetica,sans-serif;text-anchor:end;" transform="matrix(1 0 0 1 3036 1969)">Typeset at 100 points</text>
  <text style="stroke:none;fill:black;font-family:-apple-system,&quot;SF Pro Display&quot;,&quot;SF Pro Text&quot;,Helvetica,sans-serif;" transform="matrix(1 0 0 1 263 726)">Small</text>
  <text style="stroke:none;fill:black;font-family:-apple-system,&quot;SF Pro Display&quot;,&quot;SF Pro Text&quot;,Helvetica,sans-serif;" transform="matrix(1 0 0 1 263 1156)">Medium</text>
  <text style="stroke:none;fill:black;font-family:-apple-system,&quot;SF Pro Display&quot;,&quot;SF Pro Text&quot;,Helvetica,sans-serif;" transform="matrix(1 0 0 1 263 1586)">Large</text>
 </g>
 <g id="Guides">
  <g id="H-reference" style="fill:#27AAE1;stroke:none;" transform="matrix(1 0 0 1 339 696)">
   <path d="M 54.9316 0 L 57.666 0 L 30.5664 -70.459 L 28.0762 -70.459 L 0.976562 0 L 3.66211 0 L 12.9395 -24.4629 L 45.7031 -24.4629 Z M 29.1992 -67.0898 L 29.4434 -67.0898 L 44.8242 -26.709 L 13.8184 -26.709 Z"/>
  </g>
  <line id="Baseline-S" style="fill:none;stroke:#27AAE1;opacity:1;stroke-width:0.577;" x1="263" x2="3036" y1="696" y2="696"/>
  <line id="Capline-S" style="fill:none;stroke:#27AAE1;opacity:1;stroke-width:0.577;" x1="263" x2="3036" y1="625.541" y2="625.541"/>
  <g id="H-reference" style="fill:#27AAE1;stroke:none;" transform="matrix(1 0 0 1 339 1126)">
   <path d="M 54.9316 0 L 57.666 0 L 30.5664 -70.459 L 28.0762 -70.459 L 0.976562 0 L 3.66211 0 L 12.9395 -24.4629 L 45.7031 -24.4629 Z M 29.1992 -67.0898 L 29.4434 -67.0898 L 44.8242 -26.709 L 13.8184 -26.709 Z"/>
  </g>
  <line id="Baseline-M" style="fill:none;stroke:#27AAE1;opacity:1;stroke-width:0.577;" x1="263" x2="3036" y1="1126" y2="1126"/>
  <line id="Capline-M" style="fill:none;stroke:#27AAE1;opacity:1;stroke-width:0.577;" x1="263" x2="3036" y1="1055.54" y2="1055.54"/>
  <g id="H-reference" style="fill:#27AAE1;stroke:none;" transform="matrix(1 0 0 1 339 1556)">
   <path d="M 54.9316 0 L 57.666 0 L 30.5664 -70.459 L 28.0762 -70.459 L 0.976562 0 L 3.66211 0 L 12.9395 -24.4629 L 45.7031 -24.4629 Z M 29.1992 -67.0898 L 29.4434 -67.0898 L 44.8242 -26.709 L 13.8184 -26.709 Z"/>
  </g>
  <line id="Baseline-L" style="fill:none;stroke:#27AAE1;opacity:1;stroke-width:0.577;" x1="263" x2="3036" y1="1556" y2="1556"/>
  <line id="Capline-L" style="fill:none;stroke:#27AAE1;opacity:1;stroke-width:0.577;" x1="263" x2="3036" y1="1485.54" y2="1485.54"/>
  <rect height="119.336" id="left-margin" style="fill:#00AEEF;stroke:none;opacity:0.4;" width="8.74023" x="1391.32" y="1030.79"/>
  <rect height="119.336" id="right-margin" style="fill:#00AEEF;stroke:none;opacity:0.4;" width="8.69141" x="1499.67" y="1030.79"/>
 </g>
 <g id="Symbols">
  <g id="Ultralight-S" transform="matrix(1 0 0 1 515.644 696)">
   <path d="M 44.043 2.05078 C 64.502 2.05078 81.2988 -14.6973 81.2988 -35.1562 C 81.2988 -55.6152 64.502 -72.3633 44.043 -72.3633 C 23.584 -72.3633 6.83594 -55.6152 6.83594 -35.1562 C 6.83594 -14.6973 23.584 2.05078 44.043 2.05078 Z M 44.043 -0.146484 C 24.7559 -0.146484 9.08203 -15.8691 9.08203 -35.1562 C 9.08203 -54.4434 24.7559 -70.166 44.043 -70.166 C 63.3789 -70.166 79.0527 -54.4434 79.0527 -35.1562 C 79.0527 -15.8691 63.3789 -0.146484 44.043 -0.146484 Z M 43.2129 -17.7734 C 51.1719 -17.7734 55.8594 -24.0723 55.8594 -37.207 C 55.8594 -47.5098 50.9766 -52.5391 43.8477 -52.5391 C 37.207 -52.5391 32.2754 -47.9004 32.2754 -41.2598 C 32.2754 -35.0586 36.9141 -30.2734 43.1152 -30.2734 C 48.1934 -30.2734 51.8066 -32.6172 53.5645 -36.7676 L 53.7109 -36.7676 C 53.7109 -25.7812 49.8047 -19.9219 43.2617 -19.9219 C 39.8926 -19.9219 36.9141 -21.6797 35.6445 -24.2676 C 35.3516 -25 35.0098 -25.2441 34.4727 -25.2441 C 33.8867 -25.2441 33.4473 -24.8535 33.4473 -24.2188 C 33.4473 -23.9258 33.4961 -23.7793 33.5449 -23.5352 C 34.1797 -21.2402 38.2324 -17.7734 43.2129 -17.7734 Z M 43.75 -32.373 C 38.3301 -32.373 34.5703 -36.2793 34.5703 -41.4551 C 34.5703 -46.6797 38.5254 -50.4395 43.8477 -50.4395 C 48.9746 -50.4395 53.0762 -46.5332 53.0762 -41.3574 C 53.0762 -36.3281 49.1211 -32.373 43.75 -32.373 Z"/>
  </g>
  <g id="Thin-S" transform="matrix(1 0 0 1 811.867 696)">
   <path d="M 44.5801 2.53906 C 65.2832 2.53906 82.2754 -14.4531 82.2754 -35.2051 C 82.2754 -55.9082 65.2344 -72.9004 44.5312 -72.9004 C 23.8281 -72.9004 6.83594 -55.9082 6.83594 -35.2051 C 6.83594 -14.4531 23.877 2.53906 44.5801 2.53906 Z M 44.5801 -0.878906 C 25.5859 -0.878906 10.2539 -16.2109 10.2539 -35.2051 C 10.2539 -54.1504 25.5859 -69.4824 44.5312 -69.4824 C 63.5254 -69.4824 78.8574 -54.1504 78.8574 -35.2051 C 78.8574 -16.2109 63.5254 -0.878906 44.5801 -0.878906 Z M 43.7012 -17.627 C 52.002 -17.627 56.8359 -24.0234 56.8359 -37.1094 C 56.8359 -47.6074 51.9043 -52.9297 44.3359 -52.9297 C 37.3047 -52.9297 32.3242 -48.1934 32.3242 -41.3574 C 32.3242 -34.8633 37.207 -30.2246 43.3594 -30.2246 C 48.4375 -30.2246 51.9043 -32.666 53.4668 -36.4746 L 53.6621 -36.4746 C 53.7109 -26.1719 49.9023 -20.5566 43.7012 -20.5566 C 40.5273 -20.5566 37.8906 -22.168 36.5723 -24.5605 C 36.1328 -25.3906 35.6445 -25.7324 34.9121 -25.7324 C 34.082 -25.7324 33.4961 -25.1465 33.4961 -24.3164 C 33.4961 -23.9746 33.5449 -23.7305 33.6426 -23.4375 C 34.3262 -21.0449 38.2812 -17.627 43.7012 -17.627 Z M 44.2871 -32.959 C 39.209 -32.959 35.6445 -36.6211 35.6445 -41.6016 C 35.6445 -46.582 39.3066 -50.0977 44.3848 -50.0977 C 49.2676 -50.0977 53.125 -46.4355 53.125 -41.4551 C 53.125 -36.6699 49.4141 -32.959 44.2871 -32.959 Z"/>
  </g>
  <g id="Light-S" transform="matrix(1 0 0 1 1107.6 696)">
   <path d="M 45.5078 3.4668 C 66.6992 3.4668 84.2285 -14.0625 84.2285 -35.2051 C 84.2285 -56.3965 66.6504 -73.9258 45.5078 -73.9258 C 24.3164 -73.9258 6.83594 -56.3965 6.83594 -35.2051 C 6.83594 -14.0625 24.3652 3.4668 45.5078 3.4668 Z M 45.5078 -2.24609 C 27.2461 -2.24609 12.5977 -16.9434 12.5977 -35.2051 C 12.5977 -53.5156 27.1973 -68.2129 45.5078 -68.2129 C 63.7695 -68.2129 78.4668 -53.5156 78.5156 -35.2051 C 78.5156 -16.9434 63.8184 -2.24609 45.5078 -2.24609 Z M 44.5801 -17.3828 C 53.6133 -17.3828 58.6426 -23.9746 58.6426 -36.8652 C 58.6426 -47.8027 53.6133 -53.6621 45.2148 -53.6621 C 37.5 -53.6621 32.4219 -48.8281 32.4219 -41.5039 C 32.4219 -34.4238 37.7441 -30.2246 43.8477 -30.2246 C 48.9258 -30.2246 52.0508 -32.7148 53.3691 -35.8398 L 53.6621 -35.8398 C 53.7109 -27.002 50.0977 -21.7285 44.5312 -21.7285 C 41.748 -21.7285 39.6973 -23.0469 38.3789 -25.0488 C 37.5977 -26.123 36.8652 -26.6113 35.7422 -26.6113 C 34.4727 -26.6113 33.5449 -25.7324 33.5449 -24.4141 C 33.5449 -24.0234 33.6426 -23.6328 33.7891 -23.2422 C 34.6191 -20.6543 38.3301 -17.3828 44.5801 -17.3828 Z M 45.4102 -34.1309 C 40.8691 -34.1309 37.6953 -37.3535 37.6953 -41.748 C 37.6953 -46.3867 40.8203 -49.4629 45.459 -49.4629 C 49.8535 -49.4629 53.125 -46.1914 53.125 -41.6992 C 53.125 -37.3535 49.9023 -34.1309 45.4102 -34.1309 Z"/>
  </g>
  <g id="Regular-S" transform="matrix(1 0 0 1 1403.58 696)">
   <path d="M 46.2402 4.15039 C 67.7734 4.15039 85.6934 -13.7207 85.6934 -35.2539 C 85.6934 -56.7871 67.7246 -74.6582 46.1914 -74.6582 C 24.707 -74.6582 6.83594 -56.7871 6.83594 -35.2539 C 6.83594 -13.7207 24.7559 4.15039 46.2402 4.15039 Z M 46.2402 -3.27148 C 28.5156 -3.27148 14.3555 -17.4805 14.3555 -35.2539 C 14.3555 -53.0273 28.4668 -67.2363 46.1914 -67.2363 C 63.9648 -67.2363 78.1738 -53.0273 78.2227 -35.2539 C 78.2715 -17.4805 64.0137 -3.27148 46.2402 -3.27148 Z M 45.2637 -17.1875 C 54.8828 -17.1875 60.0098 -23.9258 60.0098 -36.6699 C 60.0098 -47.9492 54.9316 -54.1992 45.9473 -54.1992 C 37.6465 -54.1992 32.4707 -49.3164 32.4707 -41.6504 C 32.4707 -34.1309 38.1836 -30.1758 44.1895 -30.1758 C 49.3164 -30.1758 52.1973 -32.7637 53.2715 -35.3516 L 53.6133 -35.3516 C 53.7109 -27.5879 50.2441 -22.6562 45.166 -22.6562 C 42.6758 -22.6562 41.1133 -23.7305 39.7461 -25.4395 C 38.7695 -26.6602 37.793 -27.2949 36.4258 -27.2949 C 34.7656 -27.2949 33.5938 -26.123 33.5938 -24.5117 C 33.5938 -24.0723 33.6914 -23.584 33.8867 -23.0957 C 34.8145 -20.3613 38.3789 -17.1875 45.2637 -17.1875 Z M 46.2402 -35.0586 C 42.0898 -35.0586 39.2578 -37.8906 39.2578 -41.8945 C 39.2578 -46.2402 41.9922 -49.0234 46.2402 -49.0234 C 50.2441 -49.0234 53.1738 -46.0449 53.1738 -41.8457 C 53.1738 -37.8906 50.3418 -35.0586 46.2402 -35.0586 Z"/>
  </g>
  <g id="Medium-S" transform="matrix(1 0 0 1 1699.7 696)">
   <path d="M 46.8262 4.78516 C 68.75 4.78516 86.8652 -13.3301 86.8652 -35.2539 C 86.8652 -57.1289 68.7012 -75.2441 46.8262 -75.2441 C 24.9023 -75.2441 6.83594 -57.1289 6.83594 -35.2539 C 6.83594 -13.3301 24.9512 4.78516 46.8262 4.78516 Z M 46.8262 -4.19922 C 29.6387 -4.19922 15.8691 -18.0176 15.8691 -35.2539 C 15.8691 -52.4414 29.5898 -66.2598 46.8262 -66.2598 C 64.0137 -66.2598 77.832 -52.4414 77.8809 -35.2539 C 77.8809 -18.0176 64.0625 -4.19922 46.8262 -4.19922 Z M 45.9473 -17.334 C 55.6641 -17.334 60.9863 -24.0234 60.9863 -36.3281 C 60.9863 -47.5098 55.7129 -53.8086 46.4844 -53.8086 C 38.1348 -53.8086 32.666 -48.877 32.666 -41.3086 C 32.666 -34.082 38.0371 -30.0781 44.1895 -30.0781 C 48.9258 -30.0781 51.709 -32.4219 52.8809 -35.0098 L 53.2227 -35.0098 C 53.418 -28.125 50.3906 -23.6328 45.8496 -23.6328 C 43.6035 -23.6328 42.2363 -24.5605 40.918 -25.9766 C 39.9414 -27.0508 38.916 -27.6855 37.3535 -27.6855 C 35.498 -27.6855 34.082 -26.3672 34.082 -24.5117 C 34.082 -24.0234 34.1797 -23.4863 34.4238 -22.9004 C 35.498 -20.166 39.1602 -17.334 45.9473 -17.334 Z M 46.8262 -35.6445 C 43.2617 -35.6445 40.8203 -38.0859 40.8203 -41.5527 C 40.8203 -45.2637 43.1641 -47.6562 46.8262 -47.6562 C 50.293 -47.6562 52.832 -45.1172 52.832 -41.5039 C 52.832 -38.0859 50.3906 -35.6445 46.8262 -35.6445 Z"/>
  </g>
  <g id="Semibold-S" transform="matrix(1 0 0 1 1995.98 696)">
   <path d="M 47.3145 5.22461 C 69.4824 5.22461 87.7441 -13.0371 87.7441 -35.2539 C 87.7441 -57.4219 69.4336 -75.6836 47.2656 -75.6836 C 25.0977 -75.6836 6.83594 -57.4219 6.83594 -35.2539 C 6.83594 -13.0371 25.0977 5.22461 47.3145 5.22461 Z M 47.3145 -4.93164 C 30.4688 -4.93164 17.041 -18.4082 17.041 -35.2539 C 17.041 -52.0508 30.4688 -65.5273 47.2656 -65.5273 C 64.0625 -65.5273 77.5879 -52.0508 77.5879 -35.2539 C 77.6367 -18.4082 64.1113 -4.93164 47.3145 -4.93164 Z M 46.4844 -17.4316 C 56.2988 -17.4316 61.7676 -24.0723 61.7676 -36.0352 C 61.7676 -47.168 56.3477 -53.5156 46.9238 -53.5156 C 38.4766 -53.5156 32.8125 -48.5352 32.8125 -41.0156 C 32.8125 -34.0332 37.8906 -30.0293 44.2383 -30.0293 C 48.6328 -30.0293 51.3672 -32.1289 52.5391 -34.7168 L 52.8809 -34.7168 C 53.2227 -28.5645 50.4883 -24.3652 46.4355 -24.3652 C 44.3359 -24.3652 43.0664 -25.1953 41.8457 -26.416 C 40.8691 -27.3926 39.7949 -27.9785 38.0859 -27.9785 C 36.0352 -27.9785 34.4238 -26.5137 34.4238 -24.5605 C 34.4238 -23.9746 34.5703 -23.3887 34.8633 -22.8027 C 35.9863 -20.0684 39.7461 -17.4316 46.4844 -17.4316 Z M 47.3145 -36.084 C 44.1895 -36.084 41.9922 -38.2324 41.9922 -41.3086 C 41.9922 -44.4824 44.0918 -46.6309 47.3145 -46.6309 C 50.3418 -46.6309 52.5391 -44.3848 52.5391 -41.2598 C 52.5391 -38.2324 50.3906 -36.084 47.3145 -36.084 Z"/>
  </g>
  <g id="Bold-S" transform="matrix(1 0 0 1 2292.1 696)">
   <path d="M 47.9004 5.81055 C 70.4102 5.81055 88.916 -12.6465 88.916 -35.2051 C 88.916 -57.7637 70.4102 -76.2695 47.8516 -76.2695 C 25.293 -76.2695 6.83594 -57.7637 6.83594 -35.2051 C 6.83594 -12.6465 25.3418 5.81055 47.9004 5.81055 Z M 47.9004 -5.85938 C 31.6406 -5.85938 18.5547 -18.9453 18.5547 -35.2051 C 18.5547 -51.4648 31.5918 -64.5508 47.8516 -64.5508 C 64.1113 -64.5508 77.1973 -51.4648 77.2461 -35.2051 C 77.2461 -18.9453 64.1602 -5.85938 47.9004 -5.85938 Z M 47.168 -17.5781 C 57.0801 -17.5781 62.793 -24.1699 62.793 -35.6934 C 62.793 -46.7285 57.1289 -53.125 47.4609 -53.125 C 38.916 -53.125 33.0078 -48.0469 33.0078 -40.6738 C 33.0078 -33.9355 37.7441 -29.9805 44.2383 -29.9805 C 48.291 -29.9805 50.9277 -31.7871 52.1484 -34.375 L 52.4902 -34.375 C 52.9785 -29.1504 50.6836 -25.3418 47.1191 -25.3418 C 45.3125 -25.3418 44.1895 -26.0254 43.0664 -27.002 C 42.041 -27.7832 40.9668 -28.418 39.0137 -28.418 C 36.7676 -28.418 34.9121 -26.7578 34.9121 -24.6094 C 34.9121 -23.9258 35.1074 -23.2422 35.4004 -22.6074 C 36.6699 -19.873 40.5762 -17.5781 47.168 -17.5781 Z M 47.9004 -36.6699 C 45.3613 -36.6699 43.5547 -38.4277 43.5547 -40.918 C 43.5547 -43.5059 45.3125 -45.2637 47.9004 -45.2637 C 50.3906 -45.2637 52.1973 -43.457 52.1973 -40.918 C 52.1973 -38.4277 50.4395 -36.6699 47.9004 -36.6699 Z"/>
  </g>
  <g id="Heavy-S" transform="matrix(1 0 0 1 2587.96 696)">
   <path d="M 48.7305 6.68945 C 71.8262 6.68945 90.625 -12.1094 90.625 -35.2051 C 90.625 -58.3008 71.8262 -77.0996 48.7305 -77.0996 C 25.6348 -77.0996 6.83594 -58.3008 6.83594 -35.2051 C 6.83594 -12.1094 25.6348 6.68945 48.7305 6.68945 Z M 48.7305 -7.22656 C 33.3008 -7.22656 20.752 -19.7266 20.752 -35.2051 C 20.752 -50.6836 33.3008 -63.1836 48.7305 -63.1836 C 64.209 -63.1836 76.709 -50.6836 76.709 -35.2051 C 76.709 -19.7266 64.209 -7.22656 48.7305 -7.22656 Z M 48.1934 -17.7734 C 58.252 -17.7734 64.2578 -24.2676 64.2578 -35.2051 C 64.2578 -46.1426 58.252 -52.5391 48.291 -52.5391 C 39.5996 -52.5391 33.3008 -47.4121 33.3008 -40.1855 C 33.3008 -33.8379 37.5488 -29.834 44.2871 -29.834 C 47.7051 -29.834 50.293 -31.2988 51.5137 -33.8867 L 51.9043 -33.8867 C 52.5879 -29.9316 50.9277 -26.7578 48.1934 -26.7578 C 46.7285 -26.7578 45.8008 -27.2949 44.7754 -27.832 C 43.7988 -28.418 42.6758 -29.0039 40.4297 -29.0039 C 37.793 -29.0039 35.6445 -27.0508 35.6445 -24.6582 C 35.6445 -23.8281 35.8398 -23.0469 36.2305 -22.3633 C 37.6465 -19.6289 41.6992 -17.7734 48.1934 -17.7734 Z M 48.7793 -37.5 C 47.0703 -37.5 45.8496 -38.6719 45.8496 -40.4297 C 45.8496 -42.0898 47.0703 -43.3105 48.7793 -43.3105 C 50.4883 -43.3105 51.709 -42.0898 51.709 -40.4297 C 51.709 -38.7207 50.5371 -37.5 48.7793 -37.5 Z"/>
  </g>
  <g id="Black-S" transform="matrix(1 0 0 1 2883.89 696)">
   <path d="M 49.5117 7.4707 C 73.0957 7.4707 92.1875 -11.6211 92.1875 -35.2051 C 92.1875 -58.7891 73.0957 -77.8809 49.5117 -77.8809 C 25.9277 -77.8809 6.83594 -58.7891 6.83594 -35.2051 C 6.83594 -11.6211 25.9277 7.4707 49.5117 7.4707 Z M 49.5117 -8.44727 C 34.7656 -8.44727 22.7539 -20.459 22.7539 -35.2051 C 22.7539 -49.9512 34.7656 -61.9141 49.5117 -61.9141 C 64.2578 -61.9141 76.2695 -49.9512 76.2207 -35.2051 C 76.2207 -20.459 64.2578 -8.44727 49.5117 -8.44727 Z M 49.1211 -17.9688 C 59.3262 -17.9688 65.5762 -24.3652 65.5762 -34.7656 C 65.5762 -45.5566 59.2773 -52.0508 49.0234 -52.0508 C 40.1855 -52.0508 33.5449 -46.7773 33.5449 -39.6973 C 33.5449 -33.7891 37.3535 -29.7363 44.2871 -29.7363 C 47.2656 -29.7363 49.707 -30.8105 50.9766 -33.4473 L 51.3672 -33.4473 C 52.1973 -30.6641 51.123 -28.0273 49.1211 -28.0273 C 47.998 -28.0273 47.2168 -28.3691 46.3379 -28.6133 C 45.3125 -28.9551 44.1895 -29.4922 41.6504 -29.4922 C 38.7695 -29.4922 36.2793 -27.3438 36.2793 -24.707 C 36.2793 -23.7793 36.5234 -22.9004 36.9629 -22.168 C 38.5254 -19.3848 42.7246 -17.9688 49.1211 -17.9688 Z M 49.5605 -38.2812 C 48.584 -38.2812 47.8516 -38.916 47.8516 -39.9414 C 47.8516 -40.8203 48.6328 -41.5527 49.5605 -41.5527 C 50.5371 -41.5527 51.2207 -40.8691 51.2207 -39.9414 C 51.2207 -38.9648 50.5859 -38.2812 49.5605 -38.2812 Z"/>
  </g>
  <g id="Ultralight-M" transform="matrix(1 0 0 1 503.656 1126)">
   <path d="M 56.0547 12.207 C 82.0801 12.207 103.369 -9.08203 103.369 -35.1562 C 103.369 -61.1816 82.0801 -82.4707 56.0547 -82.4707 C 30.0293 -82.4707 8.74023 -61.1816 8.74023 -35.1562 C 8.74023 -9.08203 30.0293 12.207 56.0547 12.207 Z M 56.0547 9.81445 C 31.25 9.81445 11.1328 -10.3516 11.1328 -35.1562 C 11.1328 -59.9121 31.25 -80.0781 56.0547 -80.0781 C 80.8105 -80.0781 100.977 -59.9121 100.977 -35.1562 C 100.977 -10.3516 80.8105 9.81445 56.0547 9.81445 Z M 54.9805 -13.0371 C 64.9902 -13.0371 70.9473 -20.9961 70.9473 -37.8418 C 70.9473 -50.8789 64.7461 -57.1777 55.8105 -57.1777 C 47.4121 -57.1777 41.2109 -51.2695 41.2109 -42.9199 C 41.2109 -35.1074 47.0215 -28.9062 54.9316 -28.9062 C 61.4258 -28.9062 66.1133 -31.8848 68.3594 -37.3535 L 68.5547 -37.3535 C 68.5547 -22.998 63.5742 -15.4297 55.0781 -15.4297 C 50.6836 -15.4297 46.7773 -17.7734 45.166 -21.1426 C 44.8242 -22.0215 44.4336 -22.3145 43.8477 -22.3145 C 43.1641 -22.3145 42.6758 -21.875 42.6758 -21.1914 C 42.6758 -20.8008 42.7734 -20.6055 42.8223 -20.3613 C 43.5547 -17.4316 48.7793 -13.0371 54.9805 -13.0371 Z M 55.6152 -31.3477 C 48.584 -31.3477 43.7012 -36.4258 43.7012 -43.1641 C 43.7012 -49.9023 48.8281 -54.7363 55.7129 -54.7363 C 62.4023 -54.7363 67.7246 -49.707 67.7246 -42.9688 C 67.7246 -36.4746 62.5977 -31.3477 55.6152 -31.3477 Z"/>
  </g>
  <g id="Thin-M" transform="matrix(1 0 0 1 799.806 1126)">
   <path d="M 56.5918 12.7441 C 82.9102 12.7441 104.492 -8.83789 104.492 -35.1562 C 104.492 -61.4746 82.9102 -83.0566 56.5918 -83.0566 C 30.3223 -83.0566 8.74023 -61.4746 8.74023 -35.1562 C 8.74023 -8.83789 30.3223 12.7441 56.5918 12.7441 Z M 56.5918 8.98438 C 32.2266 8.98438 12.4512 -10.791 12.4512 -35.1562 C 12.4512 -59.5215 32.2266 -79.2969 56.5918 -79.2969 C 80.957 -79.2969 100.781 -59.5215 100.781 -35.1562 C 100.781 -10.791 81.0059 8.98438 56.5918 8.98438 Z M 55.5176 -12.8906 C 65.918 -12.8906 72.0215 -20.9473 72.0215 -37.6953 C 72.0215 -50.9766 65.7227 -57.5684 56.3477 -57.5684 C 47.5586 -57.5684 41.2598 -51.6113 41.2598 -43.0176 C 41.2598 -34.8633 47.3633 -28.9062 55.2246 -28.9062 C 61.7188 -28.9062 66.2109 -31.9336 68.3105 -36.9629 L 68.5547 -36.9629 C 68.5547 -23.4863 63.6719 -16.1621 55.5176 -16.1621 C 51.3672 -16.1621 47.8516 -18.2617 46.1914 -21.4355 C 45.6543 -22.4609 45.166 -22.8516 44.3359 -22.8516 C 43.4082 -22.8516 42.7246 -22.2168 42.7246 -21.2402 C 42.7246 -20.8496 42.7734 -20.5566 42.8711 -20.2637 C 43.7012 -17.2363 48.8281 -12.8906 55.5176 -12.8906 Z M 56.25 -32.0312 C 49.5605 -32.0312 44.9219 -36.8164 44.9219 -43.2617 C 44.9219 -49.8047 49.7559 -54.3945 56.3477 -54.3945 C 62.7441 -54.3945 67.7734 -49.6094 67.7734 -43.1152 C 67.7734 -36.8652 62.8906 -32.0312 56.25 -32.0312 Z"/>
  </g>
  <g id="Light-M" transform="matrix(1 0 0 1 1095.42 1126)">
   <path d="M 57.7148 13.7695 C 84.5215 13.7695 106.689 -8.39844 106.689 -35.2051 C 106.689 -62.0117 84.4727 -84.1797 57.666 -84.1797 C 30.8594 -84.1797 8.74023 -62.0117 8.74023 -35.2051 C 8.74023 -8.39844 30.8594 13.7695 57.7148 13.7695 Z M 57.7148 7.4707 C 34.082 7.4707 15.0879 -11.5723 15.0879 -35.2051 C 15.0879 -58.8379 34.0332 -77.832 57.666 -77.832 C 81.2988 -77.832 100.342 -58.8379 100.342 -35.2051 C 100.391 -11.5723 81.2988 7.4707 57.7148 7.4707 Z M 56.4941 -12.5488 C 67.7734 -12.5488 74.0723 -20.8984 74.0723 -37.4023 C 74.0723 -51.1719 67.7246 -58.4473 57.373 -58.4473 C 47.8027 -58.4473 41.3086 -52.3438 41.3086 -43.1641 C 41.3086 -34.375 47.9492 -28.8574 55.7617 -28.8574 C 62.2559 -28.8574 66.4062 -31.9824 68.1641 -36.2305 L 68.5059 -36.2305 C 68.5547 -24.3652 63.8672 -17.4805 56.4941 -17.4805 C 52.7832 -17.4805 49.9512 -19.2871 48.2422 -22.0215 C 47.3633 -23.291 46.5332 -23.8281 45.3125 -23.8281 C 43.8477 -23.8281 42.7734 -22.8516 42.7734 -21.3867 C 42.7734 -20.8984 42.8711 -20.5078 43.0664 -20.0195 C 44.043 -16.7969 48.877 -12.5488 56.4941 -12.5488 Z M 57.4707 -33.3496 C 51.4648 -33.3496 47.2656 -37.6465 47.2656 -43.5059 C 47.2656 -49.5605 51.4648 -53.6621 57.5684 -53.6621 C 63.3789 -53.6621 67.8223 -49.3164 67.8223 -43.3594 C 67.8223 -37.6465 63.5254 -33.3496 57.4707 -33.3496 Z"/>
  </g>
  <g id="Regular-M" transform="matrix(1 0 0 1 1391.32 1126)">
   <path d="M 58.5449 14.5508 C 85.7422 14.5508 108.35 -8.00781 108.35 -35.2539 C 108.35 -62.4512 85.6934 -85.0586 58.4961 -85.0586 C 31.25 -85.0586 8.74023 -62.4512 8.74023 -35.2539 C 8.74023 -8.00781 31.2988 14.5508 58.5449 14.5508 Z M 58.5449 6.25 C 35.498 6.25 17.0898 -12.207 17.0898 -35.2539 C 17.0898 -58.252 35.4492 -76.7578 58.4961 -76.7578 C 81.4941 -76.7578 100 -58.252 100.049 -35.2539 C 100.098 -12.207 81.543 6.25 58.5449 6.25 Z M 57.2754 -12.3047 C 69.1895 -12.3047 75.6348 -20.8496 75.6348 -37.1582 C 75.6348 -51.3672 69.1895 -59.0332 58.1543 -59.0332 C 47.9492 -59.0332 41.4062 -52.8809 41.4062 -43.3105 C 41.4062 -34.0332 48.4375 -28.8086 56.1523 -28.8086 C 62.6953 -28.8086 66.5039 -32.0312 68.0664 -35.6934 L 68.457 -35.6934 C 68.5547 -25.0488 64.0137 -18.5059 57.1777 -18.5059 C 53.8086 -18.5059 51.5137 -20.0684 49.8047 -22.4609 C 48.6816 -23.9258 47.5586 -24.6094 46.0449 -24.6094 C 44.1895 -24.6094 42.8223 -23.3398 42.8223 -21.4844 C 42.8223 -20.9473 42.9688 -20.4102 43.1641 -19.8242 C 44.2871 -16.4551 48.9258 -12.3047 57.2754 -12.3047 Z M 58.4473 -34.375 C 52.8809 -34.375 49.0234 -38.2324 49.0234 -43.6523 C 49.0234 -49.3652 52.7832 -53.125 58.4473 -53.125 C 63.8672 -53.125 67.8223 -49.1211 67.8223 -43.5547 C 67.8223 -38.2812 63.9648 -34.375 58.4473 -34.375 Z"/>
  </g>
  <g id="Medium-M" transform="matrix(1 0 0 1 1687.33 1126)">
   <path d="M 59.2285 15.2832 C 86.8652 15.2832 109.717 -7.56836 109.717 -35.2051 C 109.717 -62.8906 86.8164 -85.7422 59.1797 -85.7422 C 31.543 -85.7422 8.74023 -62.8906 8.74023 -35.2051 C 8.74023 -7.56836 31.5918 15.2832 59.2285 15.2832 Z M 59.2285 5.17578 C 36.8164 5.17578 18.8477 -12.8418 18.8477 -35.2051 C 18.8477 -57.6172 36.7676 -75.6348 59.1797 -75.6348 C 81.5918 -75.6348 99.6094 -57.6172 99.6582 -35.2051 C 99.6582 -12.8418 81.6406 5.17578 59.2285 5.17578 Z M 58.0566 -12.4512 C 70.166 -12.4512 76.8555 -20.8984 76.8555 -36.8164 C 76.8555 -50.9277 70.166 -58.7402 58.7891 -58.7402 C 48.4375 -58.7402 41.6016 -52.4902 41.6016 -42.9688 C 41.6016 -33.9355 48.3398 -28.7109 56.2012 -28.7109 C 62.3535 -28.7109 66.0645 -31.6895 67.627 -35.3027 L 68.0176 -35.3027 C 68.2617 -25.6836 64.209 -19.6289 58.0078 -19.6289 C 54.9316 -19.6289 52.832 -20.9961 51.1719 -23.0957 C 50.0488 -24.4141 48.877 -25.0977 47.0703 -25.0977 C 44.9219 -25.0977 43.3594 -23.6328 43.3594 -21.5332 C 43.3594 -20.8984 43.457 -20.2637 43.75 -19.6289 C 45.0195 -16.2598 49.7559 -12.4512 58.0566 -12.4512 Z M 59.1797 -35.1074 C 54.248 -35.1074 50.8301 -38.5254 50.8301 -43.3105 C 50.8301 -48.3398 54.1504 -51.709 59.1797 -51.709 C 63.9648 -51.709 67.4805 -48.1445 67.4805 -43.2617 C 67.4805 -38.5254 64.0625 -35.1074 59.1797 -35.1074 Z"/>
  </g>
  <g id="Semibold-M" transform="matrix(1 0 0 1 1983.5 1126)">
   <path d="M 59.7656 15.8203 C 87.7441 15.8203 110.791 -7.22656 110.791 -35.2051 C 110.791 -63.1836 87.6953 -86.2793 59.7168 -86.2793 C 31.7383 -86.2793 8.74023 -63.1836 8.74023 -35.2051 C 8.74023 -7.22656 31.7871 15.8203 59.7656 15.8203 Z M 59.7656 4.3457 C 37.8418 4.3457 20.2148 -13.2812 20.2148 -35.2051 C 20.2148 -57.1289 37.793 -74.8047 59.7168 -74.8047 C 81.6406 -74.8047 99.3164 -57.1289 99.3164 -35.2051 C 99.3652 -13.2812 81.6895 4.3457 59.7656 4.3457 Z M 58.6914 -12.5488 C 70.8984 -12.5488 77.7832 -20.9473 77.7832 -36.5234 C 77.7832 -50.6348 70.9473 -58.4961 59.3262 -58.4961 C 48.8281 -58.4961 41.748 -52.1973 41.748 -42.7246 C 41.748 -33.8379 48.2422 -28.6621 56.25 -28.6621 C 62.1094 -28.6621 65.7227 -31.4453 67.2852 -34.9609 L 67.7246 -34.9609 C 68.0664 -26.2207 64.3555 -20.5078 58.6426 -20.5078 C 55.7617 -20.5078 53.8086 -21.7285 52.2461 -23.584 C 51.0742 -24.7559 49.8535 -25.4883 47.9004 -25.4883 C 45.5078 -25.4883 43.7012 -23.8281 43.7012 -21.5332 C 43.7012 -20.8496 43.8965 -20.166 44.1895 -19.4824 C 45.5566 -16.0645 50.3906 -12.5488 58.6914 -12.5488 Z M 59.7168 -35.6445 C 55.2734 -35.6445 52.1973 -38.7207 52.1973 -43.0664 C 52.1973 -47.5586 55.2246 -50.6348 59.7168 -50.6348 C 64.0625 -50.6348 67.2363 -47.4121 67.2363 -43.0176 C 67.2363 -38.7207 64.1113 -35.6445 59.7168 -35.6445 Z"/>
  </g>
  <g id="Bold-M" transform="matrix(1 0 0 1 2279.5 1126)">
   <path d="M 60.4492 16.5039 C 88.8672 16.5039 112.207 -6.78711 112.207 -35.2051 C 112.207 -63.623 88.8672 -86.9629 60.4492 -86.9629 C 32.0312 -86.9629 8.74023 -63.623 8.74023 -35.2051 C 8.74023 -6.78711 32.0801 16.5039 60.4492 16.5039 Z M 60.4492 3.22266 C 39.1602 3.22266 22.0215 -13.916 22.0215 -35.2051 C 22.0215 -56.4941 39.1602 -73.6816 60.4492 -73.6816 C 81.7383 -73.6816 98.877 -56.4941 98.9258 -35.2051 C 98.9258 -13.916 81.7871 3.22266 60.4492 3.22266 Z M 59.5215 -12.6465 C 71.9238 -12.6465 79.0039 -21.0449 79.0039 -36.1328 C 79.0039 -50.1953 71.9238 -58.1543 60.0098 -58.1543 C 49.3164 -58.1543 41.9434 -51.7578 41.9434 -42.3828 C 41.9434 -33.7402 48.1445 -28.5645 56.3477 -28.5645 C 61.7676 -28.5645 65.2832 -31.0547 66.8457 -34.5703 L 67.2852 -34.5703 C 67.7734 -26.8555 64.502 -21.6309 59.4727 -21.6309 C 56.8848 -21.6309 55.127 -22.7051 53.6621 -24.2188 C 52.4414 -25.293 51.1719 -25.9766 48.9258 -25.9766 C 46.2891 -25.9766 44.2383 -24.1211 44.2383 -21.582 C 44.2383 -20.8008 44.4336 -20.0195 44.7754 -19.2871 C 46.2891 -15.8691 51.2207 -12.6465 59.5215 -12.6465 Z M 60.4492 -36.3281 C 56.6406 -36.3281 54.0039 -38.9648 54.0039 -42.7246 C 54.0039 -46.5332 56.5918 -49.1699 60.4492 -49.1699 C 64.1602 -49.1699 66.8457 -46.4355 66.8457 -42.6758 C 66.8457 -39.0137 64.209 -36.3281 60.4492 -36.3281 Z"/>
  </g>
  <g id="Heavy-M" transform="matrix(1 0 0 1 2575.19 1126)">
   <path d="M 61.4746 17.5781 C 90.5273 17.5781 114.258 -6.15234 114.258 -35.2051 C 114.258 -64.2578 90.5273 -87.9883 61.4746 -87.9883 C 32.4219 -87.9883 8.74023 -64.2578 8.74023 -35.2051 C 8.74023 -6.15234 32.4707 17.5781 61.4746 17.5781 Z M 61.4746 1.66016 C 41.1133 1.66016 24.6582 -14.8438 24.6582 -35.2051 C 24.6582 -55.5664 41.1133 -72.0703 61.4746 -72.0703 C 81.8359 -72.0703 98.3398 -55.5664 98.3398 -35.2051 C 98.3398 -14.8438 81.8848 1.66016 61.4746 1.66016 Z M 60.6934 -12.793 C 73.3398 -12.793 80.7617 -21.1426 80.7617 -35.5957 C 80.7617 -49.5605 73.3398 -57.666 60.9863 -57.666 C 50.0488 -57.666 42.2852 -51.1719 42.2852 -41.8945 C 42.2852 -33.5938 48.0469 -28.4668 56.4453 -28.4668 C 61.2793 -28.4668 64.6484 -30.5664 66.2109 -33.9355 L 66.6992 -33.9355 C 67.3828 -27.832 64.7949 -23.291 60.6445 -23.291 C 58.4961 -23.291 57.0801 -24.0723 55.7129 -25.1465 C 54.4434 -26.0254 53.125 -26.7578 50.4883 -26.7578 C 47.4609 -26.7578 44.9707 -24.5117 44.9707 -21.6797 C 44.9707 -20.752 45.166 -19.8242 45.6055 -19.043 C 47.3145 -15.5273 52.3926 -12.793 60.6934 -12.793 Z M 61.5234 -37.4023 C 58.6426 -37.4023 56.6406 -39.3555 56.6406 -42.1875 C 56.6406 -45.0684 58.6426 -47.0703 61.5234 -47.0703 C 64.3066 -47.0703 66.3574 -45.0195 66.3574 -42.1875 C 66.3574 -39.4043 64.3555 -37.4023 61.5234 -37.4023 Z"/>
  </g>
  <g id="Black-M" transform="matrix(1 0 0 1 2871 1126)">
   <path d="M 62.4023 18.457 C 91.9922 18.457 116.064 -5.61523 116.064 -35.2051 C 116.064 -64.7949 91.9922 -88.8672 62.4023 -88.8672 C 32.8125 -88.8672 8.74023 -64.7949 8.74023 -35.2051 C 8.74023 -5.61523 32.8125 18.457 62.4023 18.457 Z M 62.4023 0.195312 C 42.8223 0.195312 27.002 -15.625 27.002 -35.2051 C 27.002 -54.7363 42.8223 -70.6055 62.4023 -70.6055 C 81.9824 -70.6055 97.8027 -54.7363 97.8027 -35.2051 C 97.8027 -15.625 81.9824 0.195312 62.4023 0.195312 Z M 61.7188 -12.9883 C 74.6582 -12.9883 82.3242 -21.2402 82.3242 -35.1074 C 82.3242 -49.0234 74.6582 -57.2754 61.8164 -57.2754 C 50.6836 -57.2754 42.5293 -50.6348 42.5293 -41.4551 C 42.5293 -33.4473 47.9004 -28.3203 56.543 -28.3203 C 60.8398 -28.3203 64.0625 -30.127 65.625 -33.3984 L 66.1133 -33.3984 C 67.041 -28.6621 65.0391 -24.707 61.7188 -24.707 C 59.9609 -24.707 58.7891 -25.3418 57.5684 -25.9766 C 56.25 -26.6602 54.834 -27.3926 51.8555 -27.3926 C 48.4375 -27.3926 45.6055 -24.9023 45.6055 -21.7285 C 45.6055 -20.6543 45.8984 -19.6777 46.3867 -18.7988 C 48.2422 -15.2344 53.4668 -12.9883 61.7188 -12.9883 Z M 62.4512 -38.3301 C 60.4004 -38.3301 58.9844 -39.6973 58.9844 -41.748 C 58.9844 -43.75 60.4004 -45.166 62.4512 -45.166 C 64.4531 -45.166 65.8691 -43.75 65.8691 -41.748 C 65.8691 -39.7949 64.502 -38.3301 62.4512 -38.3301 Z"/>
  </g>
  <g id="Ultralight-L" transform="matrix(1 0 0 1 487.641 1556)">
   <path d="M 72.0703 25.7324 C 105.566 25.7324 132.91 -1.61133 132.91 -35.1074 C 132.91 -68.5547 105.566 -95.8984 72.0703 -95.8984 C 38.623 -95.8984 11.2793 -68.5547 11.2793 -35.1074 C 11.2793 -1.61133 38.623 25.7324 72.0703 25.7324 Z M 72.0703 23.2422 C 39.9414 23.2422 13.7695 -2.97852 13.7695 -35.1074 C 13.7695 -67.2363 39.9414 -93.4082 72.0703 -93.4082 C 104.199 -93.4082 130.42 -67.2363 130.371 -35.1074 C 130.371 -2.97852 104.199 23.2422 72.0703 23.2422 Z M 70.752 -6.64062 C 83.4473 -6.64062 91.1133 -16.8945 91.1133 -38.623 C 91.1133 -55.4199 83.1055 -63.3301 71.7773 -63.3301 C 61.1328 -63.3301 53.125 -55.7617 53.125 -45.1172 C 53.125 -35.1562 60.5469 -27.0996 70.8008 -27.0996 C 79.1504 -27.0996 85.2539 -30.9082 88.2812 -38.1348 L 88.4766 -38.1348 C 88.4766 -19.2383 81.9824 -9.42383 70.8496 -9.42383 C 65.0879 -9.42383 59.9121 -12.4512 57.8125 -16.9434 C 57.4219 -17.9688 57.0312 -18.3594 56.3477 -18.3594 C 55.6152 -18.3594 55.0781 -17.8711 55.0781 -17.041 C 55.0781 -16.6016 55.127 -16.4062 55.2246 -16.1133 C 56.1035 -12.4023 62.9395 -6.64062 70.752 -6.64062 Z M 71.4844 -29.9316 C 62.3047 -29.9316 55.9082 -36.5723 55.9082 -45.4102 C 55.9082 -54.248 62.6465 -60.5469 71.6309 -60.5469 C 80.4199 -60.5469 87.4023 -54.0039 87.4023 -45.166 C 87.4023 -36.6699 80.6641 -29.9316 71.4844 -29.9316 Z"/>
  </g>
  <g id="Thin-L" transform="matrix(1 0 0 1 783.717 1556)">
   <path d="M 72.7051 26.3184 C 106.494 26.3184 134.131 -1.36719 134.131 -35.1074 C 134.131 -68.8965 106.445 -96.582 72.7051 -96.582 C 38.916 -96.582 11.2793 -68.8965 11.2793 -35.1074 C 11.2793 -1.36719 38.916 26.3184 72.7051 26.3184 Z M 72.7051 22.3145 C 41.0156 22.3145 15.2344 -3.41797 15.2344 -35.1074 C 15.2344 -66.8457 41.0156 -92.5781 72.7051 -92.5781 C 104.395 -92.5781 130.127 -66.8457 130.176 -35.1074 C 130.176 -3.41797 104.395 22.3145 72.7051 22.3145 Z M 71.2891 -6.44531 C 84.5215 -6.44531 92.2852 -16.8457 92.2852 -38.4766 C 92.2852 -55.5176 84.2285 -63.8184 72.3633 -63.8184 C 61.2793 -63.8184 53.1738 -56.1523 53.1738 -45.2148 C 53.1738 -34.9121 60.8887 -27.0508 71.0938 -27.0508 C 79.4434 -27.0508 85.4004 -30.957 88.1836 -37.6953 L 88.4277 -37.6953 C 88.4766 -19.7754 82.0801 -10.1562 71.3867 -10.1562 C 65.8691 -10.1562 61.084 -13.0371 58.9844 -17.2852 C 58.3984 -18.457 57.8125 -18.8965 56.8848 -18.8965 C 55.8594 -18.8965 55.127 -18.2617 55.127 -17.1387 C 55.127 -16.6504 55.1758 -16.3574 55.2734 -15.9668 C 56.2988 -12.1582 62.9883 -6.44531 71.2891 -6.44531 Z M 72.168 -30.6641 C 63.3789 -30.6641 57.2266 -37.0605 57.2266 -45.5566 C 57.2266 -54.1016 63.623 -60.1562 72.3145 -60.1562 C 80.7617 -60.1562 87.4512 -53.8574 87.4512 -45.3125 C 87.4512 -37.1094 81.0059 -30.6641 72.168 -30.6641 Z"/>
  </g>
  <g id="Light-L" transform="matrix(1 0 0 1 1079.21 1556)">
   <path d="M 73.9258 27.4902 C 108.301 27.4902 136.572 -0.830078 136.572 -35.1562 C 136.572 -69.5312 108.252 -97.8516 73.877 -97.8516 C 39.5508 -97.8516 11.2793 -69.5312 11.2793 -35.1562 C 11.2793 -0.830078 39.5508 27.4902 73.9258 27.4902 Z M 73.9258 20.6055 C 43.0664 20.6055 18.1641 -4.3457 18.1641 -35.1562 C 18.1641 -66.0156 43.0664 -90.918 73.877 -90.918 C 104.736 -90.918 129.639 -66.0156 129.688 -35.1562 C 129.736 -4.3457 104.785 20.6055 73.9258 20.6055 Z M 72.4121 -6.10352 C 86.5723 -6.10352 94.5801 -16.748 94.5801 -38.1836 C 94.5801 -55.7129 86.4258 -64.7461 73.4863 -64.7461 C 61.5234 -64.7461 53.2715 -56.9824 53.2715 -45.4102 C 53.2715 -34.375 61.5723 -27.002 71.6797 -27.002 C 80.0781 -27.002 85.5957 -31.0059 88.0371 -36.9141 L 88.3789 -36.9141 C 88.4766 -20.752 82.3242 -11.6699 72.4121 -11.6699 C 67.4316 -11.6699 63.4277 -14.1602 61.2793 -17.9199 C 60.3027 -19.3848 59.375 -20.0684 57.959 -20.0684 C 56.3477 -20.0684 55.1758 -18.9453 55.1758 -17.2852 C 55.1758 -16.6992 55.2734 -16.2598 55.4688 -15.7227 C 56.6895 -11.6699 63.0859 -6.10352 72.4121 -6.10352 Z M 73.584 -32.1777 C 65.4785 -32.1777 59.8633 -37.9395 59.8633 -45.8008 C 59.8633 -53.8086 65.5762 -59.375 73.6816 -59.375 C 81.4941 -59.375 87.5 -53.5645 87.5 -45.6055 C 87.5 -37.9883 81.6406 -32.1777 73.584 -32.1777 Z"/>
  </g>
  <g id="Regular-L" transform="matrix(1 0 0 1 1374.99 1556)">
   <path d="M 74.8535 28.3691 C 109.668 28.3691 138.428 -0.390625 138.428 -35.2051 C 138.428 -70.0195 109.619 -98.7793 74.8047 -98.7793 C 39.9902 -98.7793 11.2793 -70.0195 11.2793 -35.2051 C 11.2793 -0.390625 40.0391 28.3691 74.8535 28.3691 Z M 74.8535 19.2871 C 44.6289 19.2871 20.4102 -5.0293 20.4102 -35.2051 C 20.4102 -65.3809 44.5801 -89.6973 74.8047 -89.6973 C 104.98 -89.6973 129.297 -65.3809 129.346 -35.2051 C 129.395 -5.0293 105.029 19.2871 74.8535 19.2871 Z M 73.291 -5.85938 C 88.0859 -5.85938 96.3379 -16.6992 96.3379 -37.9395 C 96.3379 -55.9082 88.0859 -65.4785 74.3652 -65.4785 C 61.7188 -65.4785 53.3691 -57.5684 53.3691 -45.5566 C 53.3691 -33.9844 62.1094 -26.9531 72.1191 -26.9531 C 80.5176 -26.9531 85.7422 -31.0547 87.9395 -36.2793 L 88.3789 -36.2793 C 88.4766 -21.5332 82.4707 -12.8418 73.1934 -12.8418 C 68.5547 -12.8418 65.1855 -15.0391 62.9883 -18.3594 C 61.7676 -20.1172 60.5469 -20.8984 58.7891 -20.8984 C 56.7383 -20.8984 55.2246 -19.4824 55.2246 -17.3828 C 55.2246 -16.748 55.3711 -16.1621 55.6152 -15.5273 C 56.9336 -11.2793 63.1348 -5.85938 73.291 -5.85938 Z M 74.6094 -33.3008 C 67.041 -33.3008 61.8164 -38.623 61.8164 -45.9961 C 61.8164 -53.6133 67.041 -58.7891 74.707 -58.7891 C 82.0312 -58.7891 87.5 -53.3203 87.5 -45.8496 C 87.5 -38.6719 82.1777 -33.3008 74.6094 -33.3008 Z"/>
  </g>
  <g id="Medium-L" transform="matrix(1 0 0 1 1670.9 1556)">
   <path d="M 75.6348 29.1992 C 110.938 29.1992 140.039 0.0488281 140.039 -35.2051 C 140.039 -70.459 110.889 -99.6094 75.5859 -99.6094 C 40.332 -99.6094 11.2793 -70.459 11.2793 -35.2051 C 11.2793 0.0488281 40.3809 29.1992 75.6348 29.1992 Z M 75.6348 18.0664 C 46.1426 18.0664 22.4609 -5.71289 22.4609 -35.2051 C 22.4609 -64.6973 46.0938 -88.4766 75.5859 -88.4766 C 105.127 -88.4766 128.857 -64.6973 128.906 -35.2051 C 128.955 -5.71289 105.176 18.0664 75.6348 18.0664 Z M 74.1699 -5.9082 C 89.3066 -5.9082 97.7539 -16.748 97.7539 -37.5488 C 97.7539 -55.5664 89.2578 -65.2832 75.1465 -65.2832 C 62.207 -65.2832 53.5645 -57.3242 53.5645 -45.2637 C 53.5645 -33.8379 62.1094 -26.9043 72.2656 -26.9043 C 80.3223 -26.9043 85.3516 -30.7617 87.5 -35.791 L 87.9883 -35.791 C 88.2324 -22.2656 82.666 -14.0625 74.1211 -14.0625 C 69.7754 -14.0625 66.6992 -16.0645 64.5508 -19.043 C 63.2812 -20.6543 61.9141 -21.5332 59.9121 -21.5332 C 57.4707 -21.5332 55.7129 -19.8242 55.7129 -17.4805 C 55.7129 -16.748 55.8594 -16.0156 56.1523 -15.2832 C 57.666 -11.0352 63.8672 -5.9082 74.1699 -5.9082 Z M 75.4883 -34.1309 C 68.6035 -34.1309 63.8184 -39.0137 63.8184 -45.7031 C 63.8184 -52.6367 68.5547 -57.373 75.5371 -57.373 C 82.2266 -57.373 87.207 -52.3926 87.207 -45.5566 C 87.207 -39.0137 82.3242 -34.1309 75.4883 -34.1309 Z"/>
  </g>
  <g id="Semibold-L" transform="matrix(1 0 0 1 1967 1556)">
   <path d="M 76.2695 29.7852 C 111.914 29.7852 141.26 0.439453 141.26 -35.2051 C 141.26 -70.8496 111.865 -100.244 76.2207 -100.244 C 40.5762 -100.244 11.2793 -70.8496 11.2793 -35.2051 C 11.2793 0.439453 40.625 29.7852 76.2695 29.7852 Z M 76.2695 17.0898 C 47.3145 17.0898 24.0234 -6.25 24.0234 -35.2051 C 24.0234 -64.209 47.2656 -87.5 76.2207 -87.5 C 105.225 -87.5 128.516 -64.209 128.564 -35.2051 C 128.613 -6.25 105.273 17.0898 76.2695 17.0898 Z M 74.8535 -5.95703 C 90.1855 -5.95703 98.8281 -16.7969 98.8281 -37.2559 C 98.8281 -55.2734 90.1855 -65.1367 75.7324 -65.1367 C 62.5977 -65.1367 53.7109 -57.1289 53.7109 -45.0684 C 53.7109 -33.6914 62.1094 -26.8066 72.3633 -26.8066 C 80.127 -26.8066 85.0586 -30.5176 87.1582 -35.4492 L 87.6953 -35.4492 C 88.0371 -22.8516 82.8125 -14.9902 74.8047 -14.9902 C 70.752 -14.9902 67.8711 -16.8457 65.7715 -19.5801 C 64.4043 -21.1426 62.9883 -21.9727 60.7422 -21.9727 C 58.1055 -21.9727 56.0547 -20.1172 56.0547 -17.5293 C 56.0547 -16.6992 56.25 -15.918 56.5918 -15.1367 C 58.2031 -10.791 64.4531 -5.95703 74.8535 -5.95703 Z M 76.123 -34.8145 C 69.7754 -34.8145 65.332 -39.2578 65.332 -45.459 C 65.332 -51.9043 69.7266 -56.25 76.1719 -56.25 C 82.373 -56.25 86.9629 -51.709 86.9629 -45.3613 C 86.9629 -39.3066 82.4707 -34.8145 76.123 -34.8145 Z"/>
  </g>
  <g id="Bold-L" transform="matrix(1 0 0 1 2262.9 1556)">
   <path d="M 77.0996 30.6152 C 113.184 30.6152 142.92 0.878906 142.92 -35.2051 C 142.92 -71.3379 113.135 -101.025 77.0508 -101.025 C 40.918 -101.025 11.2793 -71.3379 11.2793 -35.2051 C 11.2793 0.878906 40.9668 30.6152 77.0996 30.6152 Z M 77.0996 15.8691 C 48.7793 15.8691 26.0742 -6.93359 26.0742 -35.2051 C 26.0742 -63.4766 48.7793 -86.2793 77.0508 -86.2793 C 105.322 -86.2793 128.125 -63.4766 128.125 -35.2051 C 128.174 -6.93359 105.371 15.8691 77.0996 15.8691 Z M 75.7324 -6.05469 C 91.4062 -6.05469 100.244 -16.8457 100.244 -36.8652 C 100.244 -54.9316 91.4062 -64.9902 76.5137 -64.9902 C 63.0859 -64.9902 53.9062 -56.8359 53.9062 -44.7754 C 53.9062 -33.4961 62.1094 -26.709 72.5098 -26.709 C 79.9316 -26.709 84.668 -30.2246 86.7676 -34.9121 L 87.3047 -34.9121 C 87.7441 -23.584 83.0078 -16.2598 75.6836 -16.2598 C 71.9727 -16.2598 69.3848 -17.8711 67.3828 -20.2637 C 65.9668 -21.7285 64.4531 -22.6074 61.8652 -22.6074 C 58.8867 -22.6074 56.543 -20.459 56.543 -17.5781 C 56.543 -16.6504 56.7383 -15.7715 57.1289 -14.9414 C 58.8867 -10.5469 65.1855 -6.05469 75.7324 -6.05469 Z M 77.002 -35.6934 C 71.2891 -35.6934 67.3828 -39.6484 67.3828 -45.2148 C 67.3828 -50.9277 71.2891 -54.834 77.0508 -54.834 C 82.5684 -54.834 86.6211 -50.7324 86.6211 -45.1172 C 86.6211 -39.6973 82.666 -35.6934 77.002 -35.6934 Z"/>
  </g>
  <g id="Heavy-L" transform="matrix(1 0 0 1 2558.42 1556)">
   <path d="M 78.2715 31.7871 C 115.039 31.7871 145.264 1.61133 145.264 -35.2051 C 145.264 -72.0215 115.039 -102.197 78.2227 -102.197 C 41.4551 -102.197 11.2793 -72.0215 11.2793 -35.2051 C 11.2793 1.61133 41.4551 31.7871 78.2715 31.7871 Z M 78.2715 14.0137 C 50.9766 14.0137 29.0527 -7.95898 29.0527 -35.2051 C 29.0527 -62.5 50.9766 -84.4727 78.2227 -84.4727 C 105.518 -84.4727 127.49 -62.5 127.49 -35.2051 C 127.539 -7.95898 105.518 14.0137 78.2715 14.0137 Z M 77.0508 -6.10352 C 93.1152 -6.10352 102.344 -16.9434 102.344 -36.2793 C 102.344 -54.3945 93.1641 -64.7461 77.6367 -64.7461 C 63.7695 -64.7461 54.1992 -56.4941 54.1992 -44.3848 C 54.1992 -33.252 62.1582 -26.6113 72.7051 -26.6113 C 79.5898 -26.6113 84.1309 -29.7852 86.1328 -34.2285 L 86.7188 -34.2285 C 87.4023 -24.6582 83.3008 -18.0664 77.002 -18.0664 C 73.7793 -18.0664 71.6309 -19.3848 69.7266 -21.2402 C 68.1641 -22.5586 66.5039 -23.4863 63.4766 -23.4863 C 60.0098 -23.4863 57.2266 -20.9961 57.2266 -17.6758 C 57.2266 -16.6016 57.4707 -15.5762 57.959 -14.5996 C 59.9609 -10.1562 66.3086 -6.10352 77.0508 -6.10352 Z M 78.2715 -36.9141 C 73.5352 -36.9141 70.3125 -40.1855 70.3125 -44.7754 C 70.3125 -49.5117 73.4863 -52.7344 78.2715 -52.7344 C 82.8125 -52.7344 86.1816 -49.4141 86.1816 -44.7266 C 86.1816 -40.2344 82.9102 -36.9141 78.2715 -36.9141 Z"/>
  </g>
  <g id="Black-L" transform="matrix(1 0 0 1 2854.08 1556)">
   <path d="M 79.2969 32.8613 C 116.748 32.8613 147.363 2.19727 147.363 -35.2051 C 147.363 -72.6074 116.699 -103.271 79.2969 -103.271 C 41.8945 -103.271 11.2793 -72.6074 11.2793 -35.2051 C 11.2793 2.19727 41.8945 32.8613 79.2969 32.8613 Z M 79.2969 12.4023 C 52.9297 12.4023 31.7383 -8.83789 31.7383 -35.2051 C 31.7383 -61.5723 52.9297 -82.8125 79.2969 -82.8125 C 105.664 -82.8125 126.904 -61.5723 126.953 -35.2051 C 126.953 -8.83789 105.664 12.4023 79.2969 12.4023 Z M 78.2227 -6.20117 C 94.6777 -6.20117 104.199 -17.041 104.199 -35.791 C 104.199 -53.9551 94.7266 -64.5508 78.6621 -64.5508 C 64.4043 -64.5508 54.4922 -56.1523 54.4922 -43.9941 C 54.4922 -33.0566 62.1582 -26.5137 72.9004 -26.5137 C 79.2969 -26.5137 83.6426 -29.3457 85.5957 -33.5938 L 86.1816 -33.5938 C 87.0605 -25.5859 83.5938 -19.6777 78.1738 -19.6777 C 75.3906 -19.6777 73.584 -20.7031 71.8262 -22.1191 C 70.1172 -23.3398 68.3105 -24.3164 64.9414 -24.3164 C 61.0352 -24.3164 57.8613 -21.4355 57.8613 -17.7734 C 57.8613 -16.5527 58.1055 -15.4297 58.6914 -14.3555 C 60.8887 -9.76562 67.2852 -6.20117 78.2227 -6.20117 Z M 79.3945 -38.0371 C 75.5859 -38.0371 72.9004 -40.625 72.9004 -44.4336 C 72.9004 -48.2422 75.4883 -50.8789 79.3945 -50.8789 C 83.1055 -50.8789 85.791 -48.1934 85.791 -44.3848 C 85.791 -40.7227 83.1543 -38.0371 79.3945 -38.0371 Z"/>
  </g>
 </g>
</svg>
