<?xml version="1.0" encoding="UTF-8"?>
<!--Generator: Apple Native CoreSVG 123-->
<!DOCTYPE svg
PUBLIC "-//W3C//DTD SVG 1.1//EN"
       "http://www.w3.org/Graphics/SVG/1.1/DTD/svg11.dtd">
<svg version="1.1" xmlns="http://www.w3.org/2000/svg" xmlns:xlink="http://www.w3.org/1999/xlink" width="3300" height="2200">
 <!--glyph: "uni1000DA.medium", point size: 100.000000, font version: "Version 15.0d4e20", template writer version: "2"-->
 <g id="Notes">
  <rect height="2200" id="artboard" style="fill:white;opacity:1" width="3300" x="0" y="0"/>
  <line id="" style="fill:none;stroke:black;opacity:1;stroke-width:0.5;" x1="263" x2="3036" y1="292" y2="292"/>
  <text style="stroke:none;fill:black;font-family:-apple-system,&quot;SF Pro Display&quot;,&quot;SF Pro Text&quot;,Helvetica,sans-serif;font-weight:bold;" transform="matrix(1 0 0 1 263 322)">Weight/Scale Variations</text>
  <text style="stroke:none;fill:black;font-family:-apple-system,&quot;SF Pro Display&quot;,&quot;SF Pro Text&quot;,Helvetica,sans-serif;text-anchor:middle;" transform="matrix(1 0 0 1 559.711 322)">Ultralight</text>
  <text style="stroke:none;fill:black;font-family:-apple-system,&quot;SF Pro Display&quot;,&quot;SF Pro Text&quot;,Helvetica,sans-serif;text-anchor:middle;" transform="matrix(1 0 0 1 856.422 322)">Thin</text>
  <text style="stroke:none;fill:black;font-family:-apple-system,&quot;SF Pro Display&quot;,&quot;SF Pro Text&quot;,Helvetica,sans-serif;text-anchor:middle;" transform="matrix(1 0 0 1 1153.13 322)">Light</text>
  <text style="stroke:none;fill:black;font-family:-apple-system,&quot;SF Pro Display&quot;,&quot;SF Pro Text&quot;,Helvetica,sans-serif;text-anchor:middle;" transform="matrix(1 0 0 1 1449.84 322)">Regular</text>
  <text style="stroke:none;fill:black;font-family:-apple-system,&quot;SF Pro Display&quot;,&quot;SF Pro Text&quot;,Helvetica,sans-serif;text-anchor:middle;" transform="matrix(1 0 0 1 1746.56 322)">Medium</text>
  <text style="stroke:none;fill:black;font-family:-apple-system,&quot;SF Pro Display&quot;,&quot;SF Pro Text&quot;,Helvetica,sans-serif;text-anchor:middle;" transform="matrix(1 0 0 1 2043.27 322)">Semibold</text>
  <text style="stroke:none;fill:black;font-family:-apple-system,&quot;SF Pro Display&quot;,&quot;SF Pro Text&quot;,Helvetica,sans-serif;text-anchor:middle;" transform="matrix(1 0 0 1 2339.98 322)">Bold</text>
  <text style="stroke:none;fill:black;font-family:-apple-system,&quot;SF Pro Display&quot;,&quot;SF Pro Text&quot;,Helvetica,sans-serif;text-anchor:middle;" transform="matrix(1 0 0 1 2636.69 322)">Heavy</text>
  <text style="stroke:none;fill:black;font-family:-apple-system,&quot;SF Pro Display&quot;,&quot;SF Pro Text&quot;,Helvetica,sans-serif;text-anchor:middle;" transform="matrix(1 0 0 1 2933.4 322)">Black</text>
  <line id="" style="fill:none;stroke:black;opacity:1;stroke-width:0.5;" x1="263" x2="3036" y1="1903" y2="1903"/>
  <g id="" transform="matrix(1 0 0 1 263 1933)">
   <path d="M 9.24805 0.830078 C 13.5547 0.830078 17.1387 -2.74414 17.1387 -7.05078 C 17.1387 -11.3574 13.5449 -14.9316 9.23828 -14.9316 C 4.94141 -14.9316 1.36719 -11.3574 1.36719 -7.05078 C 1.36719 -2.74414 4.95117 0.830078 9.24805 0.830078 Z M 9.24805 -0.654297 C 5.70312 -0.654297 2.87109 -3.49609 2.87109 -7.05078 C 2.87109 -10.6055 5.69336 -13.4473 9.23828 -13.4473 C 12.793 -13.4473 15.6348 -10.6055 15.6445 -7.05078 C 15.6543 -3.49609 12.8027 -0.654297 9.24805 -0.654297 Z M 9.22852 -3.42773 C 9.69727 -3.42773 9.9707 -3.74023 9.9707 -4.25781 L 9.9707 -6.31836 L 12.1973 -6.31836 C 12.6953 -6.31836 13.0371 -6.57227 13.0371 -7.04102 C 13.0371 -7.51953 12.7148 -7.7832 12.1973 -7.7832 L 9.9707 -7.7832 L 9.9707 -10.0098 C 9.9707 -10.5273 9.69727 -10.8496 9.22852 -10.8496 C 8.75977 -10.8496 8.50586 -10.5078 8.50586 -10.0098 L 8.50586 -7.7832 L 6.29883 -7.7832 C 5.78125 -7.7832 5.44922 -7.51953 5.44922 -7.04102 C 5.44922 -6.57227 5.80078 -6.31836 6.29883 -6.31836 L 8.50586 -6.31836 L 8.50586 -4.25781 C 8.50586 -3.75977 8.75977 -3.42773 9.22852 -3.42773 Z"/>
  </g>
  <g id="" transform="matrix(1 0 0 1 281.506 1933)">
   <path d="M 11.709 2.91016 C 17.1484 2.91016 21.6699 -1.60156 21.6699 -7.05078 C 21.6699 -12.4902 17.1387 -17.0117 11.6992 -17.0117 C 6.25 -17.0117 1.74805 -12.4902 1.74805 -7.05078 C 1.74805 -1.60156 6.25977 2.91016 11.709 2.91016 Z M 11.709 1.25 C 7.09961 1.25 3.41797 -2.44141 3.41797 -7.05078 C 3.41797 -11.6504 7.08984 -15.3516 11.6992 -15.3516 C 16.2988 -15.3516 20 -11.6504 20.0098 -7.05078 C 20.0195 -2.44141 16.3086 1.25 11.709 1.25 Z M 11.6797 -2.41211 C 12.207 -2.41211 12.5195 -2.77344 12.5195 -3.33984 L 12.5195 -6.23047 L 15.5762 -6.23047 C 16.123 -6.23047 16.5039 -6.51367 16.5039 -7.03125 C 16.5039 -7.55859 16.1426 -7.86133 15.5762 -7.86133 L 12.5195 -7.86133 L 12.5195 -10.9277 C 12.5195 -11.5039 12.207 -11.8555 11.6797 -11.8555 C 11.1621 -11.8555 10.8789 -11.4844 10.8789 -10.9277 L 10.8789 -7.86133 L 7.83203 -7.86133 C 7.25586 -7.86133 6.89453 -7.55859 6.89453 -7.03125 C 6.89453 -6.51367 7.28516 -6.23047 7.83203 -6.23047 L 10.8789 -6.23047 L 10.8789 -3.33984 C 10.8789 -2.79297 11.1621 -2.41211 11.6797 -2.41211 Z"/>
  </g>
  <g id="" transform="matrix(1 0 0 1 304.914 1933)">
   <path d="M 14.9707 5.67383 C 21.9336 5.67383 27.6855 -0.078125 27.6855 -7.04102 C 27.6855 -14.0039 21.9238 -19.7559 14.9609 -19.7559 C 7.99805 -19.7559 2.25586 -14.0039 2.25586 -7.04102 C 2.25586 -0.078125 8.00781 5.67383 14.9707 5.67383 Z M 14.9707 3.85742 C 8.92578 3.85742 4.08203 -1.00586 4.08203 -7.04102 C 4.08203 -13.0762 8.91602 -17.9395 14.9609 -17.9395 C 20.9961 -17.9395 25.8594 -13.0762 25.8691 -7.04102 C 25.8789 -1.00586 21.0059 3.85742 14.9707 3.85742 Z M 14.9414 -1.06445 C 15.5176 -1.06445 15.8594 -1.45508 15.8594 -2.06055 L 15.8594 -6.13281 L 20.0977 -6.13281 C 20.6934 -6.13281 21.1133 -6.46484 21.1133 -7.02148 C 21.1133 -7.59766 20.7227 -7.93945 20.0977 -7.93945 L 15.8594 -7.93945 L 15.8594 -12.1875 C 15.8594 -12.8027 15.5176 -13.1934 14.9414 -13.1934 C 14.3848 -13.1934 14.0625 -12.7832 14.0625 -12.1875 L 14.0625 -7.93945 L 9.82422 -7.93945 C 9.20898 -7.93945 8.80859 -7.59766 8.80859 -7.02148 C 8.80859 -6.46484 9.23828 -6.13281 9.82422 -6.13281 L 14.0625 -6.13281 L 14.0625 -2.06055 C 14.0625 -1.47461 14.3848 -1.06445 14.9414 -1.06445 Z"/>
  </g>
  <text style="stroke:none;fill:black;font-family:-apple-system,&quot;SF Pro Display&quot;,&quot;SF Pro Text&quot;,Helvetica,sans-serif;font-weight:bold;" transform="matrix(1 0 0 1 263 1953)">Design Variations</text>
  <text style="stroke:none;fill:black;font-family:-apple-system,&quot;SF Pro Display&quot;,&quot;SF Pro Text&quot;,Helvetica,sans-serif;" transform="matrix(1 0 0 1 263 1971)">Symbols are supported in up to nine weights and three scales.</text>
  <text style="stroke:none;fill:black;font-family:-apple-system,&quot;SF Pro Display&quot;,&quot;SF Pro Text&quot;,Helvetica,sans-serif;" transform="matrix(1 0 0 1 263 1989)">For optimal layout with text and other symbols, vertically align</text>
  <text style="stroke:none;fill:black;font-family:-apple-system,&quot;SF Pro Display&quot;,&quot;SF Pro Text&quot;,Helvetica,sans-serif;" transform="matrix(1 0 0 1 263 2007)">symbols with the adjacent text.</text>
  <rect height="14" id="" style="fill:#00AEEF;stroke:none;opacity:0.4;" width="3" x="776" y="1919"/>
  <g id="" transform="matrix(1 0 0 1 779 1933)">
   <path d="M 10.5273 0 L 12.373 0 L 7.17773 -14.0918 L 5.43945 -14.0918 L 0.244141 0 L 2.08984 0 L 3.50586 -4.0332 L 9.11133 -4.0332 Z M 6.2793 -11.9531 L 6.33789 -11.9531 L 8.59375 -5.52734 L 4.02344 -5.52734 Z"/>
  </g>
  <rect height="14" id="" style="fill:#00AEEF;stroke:none;opacity:0.4;" width="3" x="791.617" y="1919"/>
  <text style="stroke:none;fill:black;font-family:-apple-system,&quot;SF Pro Display&quot;,&quot;SF Pro Text&quot;,Helvetica,sans-serif;font-weight:bold;" transform="matrix(1 0 0 1 776 1953)">Side Bearings</text>
  <text style="stroke:none;fill:black;font-family:-apple-system,&quot;SF Pro Display&quot;,&quot;SF Pro Text&quot;,Helvetica,sans-serif;" transform="matrix(1 0 0 1 776 1971)">Horizontal padding on the left and right side of each symbol</text>
  <text style="stroke:none;fill:black;font-family:-apple-system,&quot;SF Pro Display&quot;,&quot;SF Pro Text&quot;,Helvetica,sans-serif;" transform="matrix(1 0 0 1 776 1989)">can be adjusted by modifying the width of the blue rectangles.</text>
  <text style="stroke:none;fill:black;font-family:-apple-system,&quot;SF Pro Display&quot;,&quot;SF Pro Text&quot;,Helvetica,sans-serif;" transform="matrix(1 0 0 1 776 2007)">Modifications are automatically applied proportionally to all</text>
  <text style="stroke:none;fill:black;font-family:-apple-system,&quot;SF Pro Display&quot;,&quot;SF Pro Text&quot;,Helvetica,sans-serif;" transform="matrix(1 0 0 1 776 2025)">scales and weights.</text>
  <g id="" transform="matrix(1 0 0 1 1289 1933)">
   <path d="M 2.96875 2.35352 L 3.80859 3.19336 C 4.84375 4.22852 6.12305 4.15039 7.19727 2.97852 L 16.1621 -6.82617 C 16.5527 -6.74805 16.9629 -6.8457 17.4902 -7.02148 C 18.1738 -7.25586 18.2715 -7.25586 18.3887 -7.13867 C 18.5352 -7.01172 18.4863 -6.89453 18.2422 -6.25 C 17.8809 -5.33203 17.8125 -4.79492 18.5547 -4.02344 L 19.4238 -3.13477 C 20.2734 -2.24609 21.3281 -2.26562 22.2168 -3.14453 L 25.0586 -5.97656 C 25.9473 -6.86523 25.957 -7.92969 25.0781 -8.7793 L 24.1797 -9.64844 C 23.4082 -10.4004 22.8711 -10.3516 21.9629 -9.98047 C 21.3184 -9.72656 21.2012 -9.6875 21.0645 -9.81445 C 20.9375 -9.93164 20.9473 -10.0391 21.1816 -10.7129 C 21.5332 -11.6895 21.5723 -12.2852 20.752 -13.0957 L 19.3359 -14.5117 C 15.1953 -18.6133 11.2305 -18.7402 7.65625 -15.4395 C 7.08008 -14.9023 6.99219 -14.1504 7.53906 -13.6133 L 7.79297 -13.3594 C 8.22266 -12.9297 8.86719 -12.8418 9.41406 -13.1152 C 11.0645 -13.9453 12.2559 -14.0234 13.457 -12.9785 L 13.0273 -11.416 C 12.8516 -10.8008 12.793 -10.3418 12.9199 -9.93164 L 3.18359 -1.04492 C 2.02148 0.0292969 1.93359 1.32812 2.96875 2.35352 Z M 8.96484 -14.4922 C 8.89648 -14.5703 8.86719 -14.6582 8.99414 -14.7559 C 11.709 -17.2852 15.0391 -16.8457 18.3496 -13.5254 L 19.6973 -12.168 C 20.0879 -11.7773 20.0977 -11.582 19.8828 -10.8691 C 19.6582 -10.127 19.502 -9.53125 20.1465 -8.88672 C 20.8105 -8.22266 21.2891 -8.41797 22.207 -8.63281 C 22.9004 -8.79883 23.0664 -8.79883 23.4473 -8.41797 L 24.0918 -7.77344 C 24.4043 -7.48047 24.4141 -7.32422 24.0723 -6.97266 L 21.2207 -4.13086 C 20.8887 -3.79883 20.7227 -3.79883 20.4297 -4.10156 L 19.7852 -4.75586 C 19.4141 -5.13672 19.4141 -5.30273 19.5801 -6.01562 C 19.7852 -6.88477 19.9805 -7.38281 19.3262 -8.04688 C 18.6719 -8.7207 18.0762 -8.57422 17.3438 -8.33008 C 16.5625 -8.06641 16.3281 -8.06641 15.8984 -8.49609 L 14.6094 -9.78516 C 14.1699 -10.2246 14.1309 -10.4395 14.2676 -10.9082 L 15.0293 -13.3984 C 13.3887 -15.2832 11.4941 -15.5566 9.20898 -14.4434 C 9.11133 -14.3945 9.04297 -14.4141 8.96484 -14.4922 Z M 3.96484 1.36719 C 3.52539 0.927734 3.54492 0.537109 4.14062 -0.00976562 L 13.7402 -8.81836 L 15 -7.55859 L 6.17188 2.02148 C 5.625 2.60742 5.24414 2.64648 4.79492 2.19727 Z"/>
  </g>
  <text style="stroke:none;fill:black;font-family:-apple-system,&quot;SF Pro Display&quot;,&quot;SF Pro Text&quot;,Helvetica,sans-serif;font-weight:bold;" transform="matrix(1 0 0 1 1289 1953)">Exporting</text>
  <text style="stroke:none;fill:black;font-family:-apple-system,&quot;SF Pro Display&quot;,&quot;SF Pro Text&quot;,Helvetica,sans-serif;" transform="matrix(1 0 0 1 1289 1971)">Symbols should be outlined when exporting to ensure the</text>
  <text style="stroke:none;fill:black;font-family:-apple-system,&quot;SF Pro Display&quot;,&quot;SF Pro Text&quot;,Helvetica,sans-serif;" transform="matrix(1 0 0 1 1289 1989)">design is preserved when submitting to Xcode.</text>
  <text id="template-version" style="stroke:none;fill:black;font-family:-apple-system,&quot;SF Pro Display&quot;,&quot;SF Pro Text&quot;,Helvetica,sans-serif;text-anchor:end;" transform="matrix(1 0 0 1 3036 1933)">Template v.0.1</text>
  <text style="stroke:none;fill:black;font-family:-apple-system,&quot;SF Pro Display&quot;,&quot;SF Pro Text&quot;,Helvetica,sans-serif;text-anchor:end;" transform="matrix(1 0 0 1 3036 1951)">Generated from 9.square</text>
  <text style="stroke:none;fill:black;font-family:-apple-system,&quot;SF Pro Display&quot;,&quot;SF Pro Text&quot;,Helvetica,sans-serif;text-anchor:end;" transform="matrix(1 0 0 1 3036 1969)">Typeset at 100 points</text>
  <text style="stroke:none;fill:black;font-family:-apple-system,&quot;SF Pro Display&quot;,&quot;SF Pro Text&quot;,Helvetica,sans-serif;" transform="matrix(1 0 0 1 263 726)">Small</text>
  <text style="stroke:none;fill:black;font-family:-apple-system,&quot;SF Pro Display&quot;,&quot;SF Pro Text&quot;,Helvetica,sans-serif;" transform="matrix(1 0 0 1 263 1156)">Medium</text>
  <text style="stroke:none;fill:black;font-family:-apple-system,&quot;SF Pro Display&quot;,&quot;SF Pro Text&quot;,Helvetica,sans-serif;" transform="matrix(1 0 0 1 263 1586)">Large</text>
 </g>
 <g id="Guides">
  <g id="H-reference" style="fill:#27AAE1;stroke:none;" transform="matrix(1 0 0 1 339 696)">
   <path d="M 54.9316 0 L 57.666 0 L 30.5664 -70.459 L 28.0762 -70.459 L 0.976562 0 L 3.66211 0 L 12.9395 -24.4629 L 45.7031 -24.4629 Z M 29.1992 -67.0898 L 29.4434 -67.0898 L 44.8242 -26.709 L 13.8184 -26.709 Z"/>
  </g>
  <line id="Baseline-S" style="fill:none;stroke:#27AAE1;opacity:1;stroke-width:0.577;" x1="263" x2="3036" y1="696" y2="696"/>
  <line id="Capline-S" style="fill:none;stroke:#27AAE1;opacity:1;stroke-width:0.577;" x1="263" x2="3036" y1="625.541" y2="625.541"/>
  <g id="H-reference" style="fill:#27AAE1;stroke:none;" transform="matrix(1 0 0 1 339 1126)">
   <path d="M 54.9316 0 L 57.666 0 L 30.5664 -70.459 L 28.0762 -70.459 L 0.976562 0 L 3.66211 0 L 12.9395 -24.4629 L 45.7031 -24.4629 Z M 29.1992 -67.0898 L 29.4434 -67.0898 L 44.8242 -26.709 L 13.8184 -26.709 Z"/>
  </g>
  <line id="Baseline-M" style="fill:none;stroke:#27AAE1;opacity:1;stroke-width:0.577;" x1="263" x2="3036" y1="1126" y2="1126"/>
  <line id="Capline-M" style="fill:none;stroke:#27AAE1;opacity:1;stroke-width:0.577;" x1="263" x2="3036" y1="1055.54" y2="1055.54"/>
  <g id="H-reference" style="fill:#27AAE1;stroke:none;" transform="matrix(1 0 0 1 339 1556)">
   <path d="M 54.9316 0 L 57.666 0 L 30.5664 -70.459 L 28.0762 -70.459 L 0.976562 0 L 3.66211 0 L 12.9395 -24.4629 L 45.7031 -24.4629 Z M 29.1992 -67.0898 L 29.4434 -67.0898 L 44.8242 -26.709 L 13.8184 -26.709 Z"/>
  </g>
  <line id="Baseline-L" style="fill:none;stroke:#27AAE1;opacity:1;stroke-width:0.577;" x1="263" x2="3036" y1="1556" y2="1556"/>
  <line id="Capline-L" style="fill:none;stroke:#27AAE1;opacity:1;stroke-width:0.577;" x1="263" x2="3036" y1="1485.54" y2="1485.54"/>
  <rect height="119.336" id="left-margin" style="fill:#00AEEF;stroke:none;opacity:0.4;" width="12.4512" x="1392.42" y="1030.79"/>
  <rect height="119.336" id="right-margin" style="fill:#00AEEF;stroke:none;opacity:0.4;" width="12.5" x="1494.77" y="1030.79"/>
 </g>
 <g id="Symbols">
  <g id="Ultralight-S" transform="matrix(1 0 0 1 516.352 696)">
   <path d="M 19.7754 -1.5625 L 66.9922 -1.5625 C 73.5352 -1.5625 76.9531 -5.12695 76.9531 -11.5234 L 76.9531 -58.7891 C 76.9531 -65.2344 73.5352 -68.75 66.9922 -68.75 L 19.7754 -68.75 C 13.2324 -68.75 9.76562 -65.2832 9.76562 -58.7891 L 9.76562 -11.5234 C 9.76562 -5.0293 13.2324 -1.5625 19.7754 -1.5625 Z M 19.873 -3.75977 C 14.6484 -3.75977 11.9629 -6.44531 11.9629 -11.6699 L 11.9629 -58.6426 C 11.9629 -63.8672 14.6484 -66.5527 19.873 -66.5527 L 66.8945 -66.5527 C 71.875 -66.5527 74.7559 -63.8672 74.7559 -58.6426 L 74.7559 -11.6699 C 74.7559 -6.44531 71.875 -3.75977 66.8945 -3.75977 Z M 42.5293 -17.8711 C 50.4883 -17.8711 55.1758 -24.1699 55.1758 -37.3047 C 55.1758 -47.6074 50.293 -52.6367 43.1641 -52.6367 C 36.4746 -52.6367 31.5918 -47.9492 31.5918 -41.3574 C 31.5918 -35.1562 36.2305 -30.3711 42.4316 -30.3711 C 47.5098 -30.3711 51.123 -32.7148 52.8809 -36.8652 L 53.0273 -36.8652 C 53.0273 -25.8789 49.1211 -20.0195 42.5781 -20.0195 C 39.209 -20.0195 36.2305 -21.7773 34.9609 -24.3652 C 34.6191 -25.0977 34.3262 -25.3418 33.7891 -25.3418 C 33.2031 -25.3418 32.7637 -24.9512 32.7637 -24.3164 C 32.7637 -24.0234 32.8125 -23.877 32.8613 -23.6328 C 33.4961 -21.3379 37.5488 -17.8711 42.5293 -17.8711 Z M 43.0176 -32.4707 C 37.6465 -32.4707 33.8867 -36.377 33.8867 -41.5527 C 33.8867 -46.7773 37.8418 -50.4883 43.1152 -50.4883 C 48.291 -50.4883 52.3926 -46.6309 52.3926 -41.4062 C 52.3926 -36.4258 48.4375 -32.4707 43.0176 -32.4707 Z"/>
  </g>
  <g id="Thin-S" transform="matrix(1 0 0 1 812.599 696)">
   <path d="M 20.3125 -1.12305 L 67.334 -1.12305 C 74.2676 -1.12305 77.8809 -4.78516 77.8809 -11.6211 L 77.8809 -58.6914 C 77.8809 -65.5762 74.2676 -69.2383 67.334 -69.2383 L 20.3125 -69.2383 C 13.3789 -69.2383 9.76562 -65.625 9.76562 -58.6914 L 9.76562 -11.6211 C 9.76562 -4.6875 13.3789 -1.12305 20.3125 -1.12305 Z M 20.4102 -4.44336 C 15.625 -4.44336 13.0859 -6.93359 13.0859 -11.8164 L 13.0859 -58.5449 C 13.0859 -63.3789 15.625 -65.918 20.4102 -65.918 L 67.2363 -65.918 C 71.875 -65.918 74.5605 -63.3789 74.5605 -58.5449 L 74.5605 -11.8164 C 74.5605 -6.93359 71.875 -4.44336 67.2363 -4.44336 Z M 42.9688 -17.7246 C 51.2695 -17.7246 56.1035 -24.1211 56.1035 -37.1582 C 56.1035 -47.7051 51.1719 -52.9785 43.6035 -52.9785 C 36.5723 -52.9785 31.5918 -48.291 31.5918 -41.4551 C 31.5918 -34.9121 36.4746 -30.3223 42.627 -30.3223 C 47.7051 -30.3223 51.1719 -32.7148 52.7344 -36.5234 L 52.9297 -36.5234 C 52.9785 -26.2695 49.1699 -20.6055 42.9688 -20.6055 C 39.7949 -20.6055 37.1582 -22.2168 35.8398 -24.6094 C 35.4004 -25.4395 34.9121 -25.7812 34.1797 -25.7812 C 33.3496 -25.7812 32.7637 -25.2441 32.7637 -24.3652 C 32.7637 -24.0234 32.8125 -23.7793 32.9102 -23.5352 C 33.5938 -21.0938 37.5488 -17.7246 42.9688 -17.7246 Z M 43.5547 -33.0566 C 38.4766 -33.0566 34.9121 -36.7188 34.9121 -41.6504 C 34.9121 -46.6797 38.5742 -50.1465 43.6523 -50.1465 C 48.5352 -50.1465 52.3438 -46.4844 52.3438 -41.5527 C 52.3438 -36.7676 48.6816 -33.0566 43.5547 -33.0566 Z"/>
  </g>
  <g id="Light-S" transform="matrix(1 0 0 1 1108.46 696)">
   <path d="M 21.3867 -0.292969 L 67.9688 -0.292969 C 75.7324 -0.292969 79.5898 -4.15039 79.5898 -11.7676 L 79.5898 -58.5938 C 79.5898 -66.2109 75.7324 -70.1172 67.9688 -70.1172 L 21.3867 -70.1172 C 13.6719 -70.1172 9.76562 -66.2598 9.76562 -58.5938 L 9.76562 -11.7676 C 9.76562 -4.15039 13.6719 -0.292969 21.3867 -0.292969 Z M 21.4844 -5.71289 C 17.4316 -5.71289 15.1855 -7.86133 15.1855 -12.0605 L 15.1855 -58.3008 C 15.1855 -62.5 17.4316 -64.6973 21.4844 -64.6973 L 67.8711 -64.6973 C 71.875 -64.6973 74.1699 -62.5 74.1699 -58.3008 L 74.1699 -12.0605 C 74.1699 -7.86133 71.875 -5.71289 67.8711 -5.71289 Z M 43.75 -17.4316 C 52.832 -17.4316 57.8125 -24.0234 57.8125 -36.8652 C 57.8125 -47.8516 52.832 -53.6621 44.4336 -53.6621 C 36.7188 -53.6621 31.5918 -48.877 31.5918 -41.5527 C 31.5918 -34.4727 36.9629 -30.2246 43.0176 -30.2246 C 48.1445 -30.2246 51.2695 -32.7637 52.5879 -35.8398 L 52.832 -35.8398 C 52.8809 -27.002 49.2676 -21.7773 43.7012 -21.7773 C 40.918 -21.7773 38.916 -23.0469 37.5977 -25.0977 C 36.8164 -26.123 36.0352 -26.6113 34.9609 -26.6113 C 33.6426 -26.6113 32.7148 -25.7324 32.7148 -24.4629 C 32.7148 -24.0723 32.8125 -23.6816 32.959 -23.291 C 33.7891 -20.7031 37.5 -17.4316 43.75 -17.4316 Z M 44.5801 -34.1797 C 40.0391 -34.1797 36.9141 -37.4023 36.9141 -41.7969 C 36.9141 -46.4355 40.0391 -49.5117 44.6289 -49.5117 C 49.0234 -49.5117 52.3438 -46.2402 52.3438 -41.6992 C 52.3438 -37.4023 49.1211 -34.1797 44.5801 -34.1797 Z"/>
  </g>
  <g id="Regular-S" transform="matrix(1 0 0 1 1404.51 696)">
   <path d="M 22.2168 0.390625 L 68.457 0.390625 C 76.8066 0.390625 80.9082 -3.71094 80.9082 -11.9141 L 80.9082 -58.4961 C 80.9082 -66.6992 76.8066 -70.8008 68.457 -70.8008 L 22.2168 -70.8008 C 13.916 -70.8008 9.76562 -66.6992 9.76562 -58.4961 L 9.76562 -11.9141 C 9.76562 -3.71094 13.916 0.390625 22.2168 0.390625 Z M 22.3145 -6.68945 C 18.7988 -6.68945 16.7969 -8.54492 16.7969 -12.2559 L 16.7969 -58.1543 C 16.7969 -61.8164 18.7988 -63.7207 22.3145 -63.7207 L 68.3594 -63.7207 C 71.875 -63.7207 73.877 -61.8164 73.877 -58.1543 L 73.877 -12.2559 C 73.877 -8.54492 71.875 -6.68945 68.3594 -6.68945 Z M 44.3848 -17.1875 C 54.0039 -17.1875 59.1309 -23.9258 59.1309 -36.6699 C 59.1309 -47.9492 54.0527 -54.1992 45.0684 -54.1992 C 36.8164 -54.1992 31.5918 -49.3164 31.5918 -41.6504 C 31.5918 -34.1309 37.3047 -30.1758 43.3105 -30.1758 C 48.4375 -30.1758 51.3184 -32.7637 52.4414 -35.3516 L 52.7344 -35.3516 C 52.832 -27.5879 49.3652 -22.6562 44.2871 -22.6562 C 41.7969 -22.6562 40.2344 -23.7305 38.8672 -25.4395 C 37.8906 -26.6602 36.9141 -27.2949 35.5469 -27.2949 C 33.8867 -27.2949 32.7148 -26.1719 32.7148 -24.5117 C 32.7148 -24.0723 32.8125 -23.584 33.0078 -23.0957 C 33.9355 -20.3613 37.5 -17.1875 44.3848 -17.1875 Z M 45.3613 -35.0586 C 41.2598 -35.0586 38.4277 -37.8906 38.4277 -41.9434 C 38.4277 -46.2402 41.1133 -49.0234 45.3613 -49.0234 C 49.4141 -49.0234 52.2949 -46.0449 52.2949 -41.8457 C 52.2949 -37.8906 49.4629 -35.0586 45.3613 -35.0586 Z"/>
  </g>
  <g id="Medium-S" transform="matrix(1 0 0 1 1700.63 696)">
   <path d="M 22.8516 0.976562 L 68.9941 0.976562 C 77.6367 0.976562 82.0801 -3.4668 82.0801 -11.9629 L 82.0801 -58.3984 C 82.0801 -66.9434 77.6367 -71.3867 68.9941 -71.3867 L 22.8516 -71.3867 C 14.2578 -71.3867 9.76562 -66.9434 9.76562 -58.3984 L 9.76562 -11.9629 C 9.76562 -3.4668 14.2578 0.976562 22.8516 0.976562 Z M 23.4375 -7.71484 C 20.2148 -7.71484 18.4082 -9.375 18.4082 -12.793 L 18.4082 -57.6172 C 18.4082 -61.0352 20.2148 -62.6953 23.4375 -62.6953 L 68.4082 -62.6953 C 71.6309 -62.6953 73.4375 -61.0352 73.4375 -57.6172 L 73.4375 -12.793 C 73.4375 -9.375 71.6309 -7.71484 68.4082 -7.71484 Z M 45.0684 -17.334 C 54.7852 -17.334 60.1074 -24.0234 60.1074 -36.3281 C 60.1074 -47.5098 54.834 -53.8086 45.6055 -53.8086 C 37.2559 -53.8086 31.7871 -48.877 31.7871 -41.3086 C 31.7871 -34.082 37.1582 -30.127 43.3105 -30.127 C 48.0469 -30.127 50.8301 -32.4219 52.002 -35.0098 L 52.3438 -35.0098 C 52.5391 -28.125 49.5117 -23.6328 44.9707 -23.6328 C 42.7246 -23.6328 41.3086 -24.5605 40.0391 -25.9766 C 39.0625 -27.0508 38.0371 -27.6855 36.4746 -27.6855 C 34.6191 -27.6855 33.2031 -26.3672 33.2031 -24.5605 C 33.2031 -24.0234 33.3008 -23.4863 33.5449 -22.9004 C 34.6191 -20.166 38.2812 -17.334 45.0684 -17.334 Z M 45.9473 -35.6445 C 42.3828 -35.6445 39.9414 -38.0859 39.9414 -41.5527 C 39.9414 -45.2637 42.2852 -47.6562 45.9473 -47.6562 C 49.4141 -47.6562 51.9531 -45.1172 51.9531 -41.5039 C 51.9531 -38.0859 49.4629 -35.6445 45.9473 -35.6445 Z"/>
  </g>
  <g id="Semibold-S" transform="matrix(1 0 0 1 1996.9 696)">
   <path d="M 23.3398 1.41602 L 69.3848 1.41602 C 78.2227 1.41602 82.959 -3.32031 82.959 -12.0605 L 82.959 -58.3496 C 82.959 -67.0898 78.2227 -71.8262 69.3848 -71.8262 L 23.3398 -71.8262 C 14.5508 -71.8262 9.76562 -67.0898 9.76562 -58.3496 L 9.76562 -12.0605 C 9.76562 -3.32031 14.5508 1.41602 23.3398 1.41602 Z M 24.3164 -8.49609 C 21.2891 -8.49609 19.6777 -10.0098 19.6777 -13.1836 L 19.6777 -57.2266 C 19.6777 -60.4004 21.2891 -61.9141 24.3164 -61.9141 L 68.457 -61.9141 C 71.4355 -61.9141 73.0469 -60.4004 73.0469 -57.2266 L 73.0469 -13.1836 C 73.0469 -10.0098 71.4355 -8.49609 68.457 -8.49609 Z M 45.5566 -17.4316 C 55.3711 -17.4316 60.8887 -24.0723 60.8887 -36.0352 C 60.8887 -47.168 55.4199 -53.5156 46.0449 -53.5156 C 37.5977 -53.5156 31.9336 -48.5352 31.9336 -41.0156 C 31.9336 -34.0332 37.0117 -30.0293 43.3105 -30.0293 C 47.7539 -30.0293 50.4883 -32.1289 51.6602 -34.7168 L 52.002 -34.7168 C 52.3438 -28.5645 49.6094 -24.3652 45.5078 -24.3652 C 43.457 -24.3652 42.1875 -25.1953 40.9668 -26.416 C 39.9414 -27.3926 38.916 -27.9785 37.1582 -27.9785 C 35.1562 -27.9785 33.5449 -26.5137 33.5449 -24.5605 C 33.5449 -23.9746 33.6914 -23.3887 33.9355 -22.8027 C 35.1074 -20.0684 38.8672 -17.4316 45.5566 -17.4316 Z M 46.3867 -36.084 C 43.2617 -36.084 41.1133 -38.2324 41.1133 -41.3086 C 41.1133 -44.5312 43.2129 -46.6309 46.3867 -46.6309 C 49.4629 -46.6309 51.6602 -44.3848 51.6602 -41.2598 C 51.6602 -38.2324 49.5117 -36.084 46.3867 -36.084 Z"/>
  </g>
  <g id="Bold-S" transform="matrix(1 0 0 1 2293.01 696)">
   <path d="M 23.9746 2.00195 L 69.9219 2.00195 C 79.0527 2.00195 84.1797 -3.07617 84.1797 -12.1582 L 84.1797 -58.252 C 84.1797 -67.334 79.0527 -72.4121 69.9219 -72.4121 L 23.9746 -72.4121 C 14.8926 -72.4121 9.76562 -67.334 9.76562 -58.252 L 9.76562 -12.1582 C 9.76562 -3.07617 14.8926 2.00195 23.9746 2.00195 Z M 25.4395 -9.57031 C 22.7051 -9.57031 21.3379 -10.791 21.3379 -13.7207 L 21.3379 -56.6895 C 21.3379 -59.5703 22.7051 -60.8398 25.4395 -60.8398 L 68.457 -60.8398 C 71.1914 -60.8398 72.6074 -59.5703 72.6074 -56.6895 L 72.6074 -13.7207 C 72.6074 -10.791 71.1914 -9.57031 68.457 -9.57031 Z M 46.2891 -17.5781 C 56.2012 -17.5781 61.8652 -24.1699 61.8652 -35.6934 C 61.8652 -46.7773 56.2012 -53.125 46.582 -53.125 C 38.0371 -53.125 32.0801 -48.0469 32.0801 -40.6738 C 32.0801 -33.9355 36.8652 -29.9805 43.3105 -29.9805 C 47.3633 -29.9805 50.0488 -31.7871 51.2207 -34.375 L 51.6113 -34.375 C 52.0508 -29.1504 49.7559 -25.3418 46.2402 -25.3418 C 44.4336 -25.3418 43.2617 -26.0254 42.1387 -27.002 C 41.1621 -27.7832 40.0879 -28.418 38.1348 -28.418 C 35.8398 -28.418 34.0332 -26.7578 34.0332 -24.6094 C 34.0332 -23.9258 34.1797 -23.2422 34.5215 -22.6074 C 35.791 -19.873 39.6484 -17.5781 46.2891 -17.5781 Z M 47.0215 -36.6699 C 44.4336 -36.6699 42.6758 -38.4277 42.6758 -40.918 C 42.6758 -43.5059 44.3848 -45.3125 47.0215 -45.3125 C 49.5117 -45.3125 51.3184 -43.457 51.3184 -40.918 C 51.3184 -38.4277 49.5605 -36.6699 47.0215 -36.6699 Z"/>
  </g>
  <g id="Heavy-S" transform="matrix(1 0 0 1 2588.86 696)">
   <path d="M 24.9023 2.83203 L 70.7031 2.83203 C 80.2246 2.83203 85.8887 -2.7832 85.8887 -12.3047 L 85.8887 -58.1055 C 85.8887 -67.627 80.2246 -73.2422 70.7031 -73.2422 L 24.9023 -73.2422 C 15.3809 -73.2422 9.76562 -67.627 9.76562 -58.1055 L 9.76562 -12.3047 C 9.76562 -2.7832 15.3809 2.83203 24.9023 2.83203 Z M 27.0996 -11.084 C 24.8047 -11.084 23.6816 -12.0117 23.6816 -14.502 L 23.6816 -55.9082 C 23.6816 -58.3984 24.8047 -59.3262 27.0996 -59.3262 L 68.5547 -59.3262 C 70.8496 -59.3262 71.9238 -58.3984 71.9238 -55.9082 L 71.9238 -14.502 C 71.9238 -12.0117 70.8496 -11.084 68.5547 -11.084 Z M 47.2656 -17.7734 C 57.3242 -17.7734 63.3301 -24.2676 63.3301 -35.2051 C 63.3301 -46.1426 57.3242 -52.5391 47.3633 -52.5391 C 38.6719 -52.5391 32.373 -47.4121 32.373 -40.1855 C 32.373 -33.8379 36.6211 -29.834 43.3594 -29.834 C 46.8262 -29.834 49.3652 -31.2988 50.5859 -33.8867 L 50.9766 -33.8867 C 51.6602 -29.9316 50 -26.7578 47.2656 -26.7578 C 45.8008 -26.7578 44.873 -27.2949 43.8477 -27.8809 C 42.8711 -28.418 41.748 -29.0039 39.502 -29.0039 C 36.8652 -29.0039 34.7168 -27.0508 34.7168 -24.6582 C 34.7168 -23.8281 34.9121 -23.0469 35.3027 -22.3633 C 36.7188 -19.6289 40.7715 -17.7734 47.2656 -17.7734 Z M 47.8516 -37.5 C 46.1426 -37.5 44.9219 -38.6719 44.9219 -40.4297 C 44.9219 -42.0898 46.1426 -43.3105 47.8516 -43.3105 C 49.5605 -43.3105 50.7812 -42.0898 50.7812 -40.4297 C 50.7812 -38.7207 49.6094 -37.5 47.8516 -37.5 Z"/>
  </g>
  <g id="Black-S" transform="matrix(1 0 0 1 2884.82 696)">
   <path d="M 25.7324 3.61328 L 71.4355 3.61328 C 81.2988 3.61328 87.4023 -2.49023 87.4023 -12.4023 L 87.4023 -58.0078 C 87.4023 -67.9199 81.2988 -74.0234 71.4355 -74.0234 L 25.7324 -74.0234 C 15.8203 -74.0234 9.76562 -67.9199 9.76562 -58.0078 L 9.76562 -12.4023 C 9.76562 -2.49023 15.8203 3.61328 25.7324 3.61328 Z M 28.5645 -12.4512 C 26.6602 -12.4512 25.8301 -13.0371 25.8301 -15.1855 L 25.8301 -55.2246 C 25.8301 -57.373 26.6602 -57.959 28.5645 -57.959 L 68.6035 -57.959 C 70.5078 -57.959 71.3379 -57.373 71.3379 -55.2246 L 71.3379 -15.1855 C 71.3379 -13.0371 70.5078 -12.4512 68.6035 -12.4512 Z M 48.1445 -17.9688 C 58.3984 -17.9688 64.5996 -24.3652 64.5996 -34.7656 C 64.5996 -45.5566 58.3496 -52.0508 48.0957 -52.0508 C 39.2578 -52.0508 32.5684 -46.7773 32.5684 -39.6973 C 32.5684 -33.7891 36.4258 -29.7363 43.3594 -29.7363 C 46.2891 -29.7363 48.7793 -30.8105 50 -33.4473 L 50.4395 -33.4473 C 51.2695 -30.6641 50.1953 -28.0273 48.1934 -28.0273 C 47.0703 -28.0273 46.2891 -28.3691 45.4102 -28.6133 C 44.3848 -28.9551 43.2617 -29.4922 40.7227 -29.4922 C 37.793 -29.4922 35.3516 -27.3438 35.3516 -24.707 C 35.3516 -23.7793 35.5469 -22.9004 35.9863 -22.168 C 37.5977 -19.3848 41.7969 -17.9688 48.1445 -17.9688 Z M 48.6328 -38.2812 C 47.6562 -38.2812 46.9238 -38.916 46.9238 -39.9414 C 46.9238 -40.8203 47.6562 -41.5527 48.6328 -41.5527 C 49.6094 -41.5527 50.293 -40.8691 50.293 -39.9414 C 50.293 -38.9648 49.6582 -38.2812 48.6328 -38.2812 Z"/>
  </g>
  <g id="Ultralight-M" transform="matrix(1 0 0 1 504.535 1126)">
   <path d="M 25 7.56836 L 85.3516 7.56836 C 93.5547 7.56836 97.9004 3.125 97.9004 -4.98047 L 97.9004 -65.2832 C 97.9004 -73.3887 93.5547 -77.832 85.3516 -77.832 L 25 -77.832 C 16.7969 -77.832 12.4512 -73.4863 12.4512 -65.2832 L 12.4512 -4.98047 C 12.4512 3.22266 16.7969 7.56836 25 7.56836 Z M 25.1465 5.17578 C 18.3594 5.17578 14.8438 1.66016 14.8438 -5.07812 L 14.8438 -65.1855 C 14.8438 -71.9727 18.3594 -75.4395 25.1465 -75.4395 L 85.2051 -75.4395 C 91.748 -75.4395 95.5078 -71.9727 95.5078 -65.1855 L 95.5078 -5.07812 C 95.5078 1.66016 91.748 5.17578 85.2051 5.17578 Z M 54.1016 -13.1348 C 64.1113 -13.1348 70.1172 -21.0938 70.1172 -37.9395 C 70.1172 -51.0254 63.8672 -57.2754 54.9316 -57.2754 C 46.5332 -57.2754 40.332 -51.3672 40.332 -43.0664 C 40.332 -35.2051 46.1426 -29.0527 54.1016 -29.0527 C 60.5469 -29.0527 65.2344 -32.0312 67.5293 -37.4512 L 67.6758 -37.4512 C 67.6758 -23.1445 62.6953 -15.5762 54.1992 -15.5762 C 49.8047 -15.5762 45.8984 -17.8711 44.2871 -21.2891 C 43.9453 -22.1191 43.5547 -22.4609 42.9688 -22.4609 C 42.2852 -22.4609 41.7969 -22.0215 41.7969 -21.2891 C 41.7969 -20.9473 41.8945 -20.752 41.9434 -20.5078 C 42.6758 -17.5781 47.9492 -13.1348 54.1016 -13.1348 Z M 54.7363 -31.4453 C 47.7051 -31.4453 42.8711 -36.5234 42.8711 -43.3105 C 42.8711 -50.0488 47.998 -54.8828 54.8828 -54.8828 C 61.5723 -54.8828 66.8945 -49.8535 66.8945 -43.1152 C 66.8945 -36.6211 61.7188 -31.4453 54.7363 -31.4453 Z"/>
  </g>
  <g id="Thin-M" transform="matrix(1 0 0 1 800.734 1126)">
   <path d="M 25.6348 8.05664 L 85.7422 8.05664 C 94.3848 8.05664 98.9258 3.4668 98.9258 -5.0293 L 98.9258 -65.2344 C 98.9258 -73.7305 94.3848 -78.3691 85.7422 -78.3691 L 25.6348 -78.3691 C 16.9922 -78.3691 12.4512 -73.877 12.4512 -65.2344 L 12.4512 -5.0293 C 12.4512 3.56445 16.9922 8.05664 25.6348 8.05664 Z M 25.7324 4.44336 C 19.4336 4.44336 16.1133 1.12305 16.1133 -5.22461 L 16.1133 -65.0391 C 16.1133 -71.4355 19.4336 -74.7559 25.7324 -74.7559 L 85.5957 -74.7559 C 91.748 -74.7559 95.2637 -71.4355 95.2637 -65.0391 L 95.2637 -5.22461 C 95.2637 1.12305 91.748 4.44336 85.5957 4.44336 Z M 54.5898 -12.9883 C 65.0391 -12.9883 71.0938 -21.0449 71.0938 -37.793 C 71.0938 -51.123 64.8438 -57.7148 55.4199 -57.7148 C 46.6309 -57.7148 40.332 -51.709 40.332 -43.1152 C 40.332 -34.9609 46.4355 -29.0039 54.2969 -29.0039 C 60.791 -29.0039 65.2832 -32.0312 67.3828 -37.0605 L 67.627 -37.0605 C 67.627 -23.584 62.7441 -16.2598 54.6387 -16.2598 C 50.4883 -16.2598 46.9238 -18.4082 45.3125 -21.5332 C 44.7754 -22.5586 44.2383 -22.9492 43.4082 -22.9492 C 42.4805 -22.9492 41.7969 -22.3145 41.7969 -21.3379 C 41.7969 -20.9473 41.8945 -20.6543 41.9922 -20.3613 C 42.8223 -17.334 47.9004 -12.9883 54.5898 -12.9883 Z M 55.3223 -32.1289 C 48.6328 -32.1289 43.9941 -36.9141 43.9941 -43.3594 C 43.9941 -49.9023 48.8281 -54.4922 55.4199 -54.4922 C 61.8164 -54.4922 66.8457 -49.707 66.8457 -43.2129 C 66.8457 -36.9629 62.0117 -32.1289 55.3223 -32.1289 Z"/>
  </g>
  <g id="Light-M" transform="matrix(1 0 0 1 1096.47 1126)">
   <path d="M 26.8555 9.0332 L 86.4746 9.0332 C 96.0449 9.0332 100.879 4.15039 100.879 -5.22461 L 100.879 -65.0879 C 100.879 -74.5117 96.0449 -79.3945 86.4746 -79.3945 L 26.8555 -79.3945 C 17.334 -79.3945 12.4512 -74.5605 12.4512 -65.0879 L 12.4512 -5.22461 C 12.4512 4.19922 17.334 9.0332 26.8555 9.0332 Z M 27.002 2.97852 C 21.4844 2.97852 18.5059 0.0976562 18.5059 -5.56641 L 18.5059 -64.7949 C 18.5059 -70.4102 21.4844 -73.3398 27.002 -73.3398 L 86.377 -73.3398 C 91.748 -73.3398 94.8242 -70.4102 94.8242 -64.7949 L 94.8242 -5.56641 C 94.8242 0.0976562 91.748 2.97852 86.377 2.97852 Z M 55.5176 -12.5977 C 66.748 -12.5977 73.0957 -20.9473 73.0957 -37.4512 C 73.0957 -51.2695 66.6992 -58.4961 56.3477 -58.4961 C 46.7773 -58.4961 40.332 -52.3926 40.332 -43.2617 C 40.332 -34.4727 46.9727 -28.9062 54.7363 -28.9062 C 61.2793 -28.9062 65.3809 -32.0312 67.1875 -36.3281 L 67.4805 -36.3281 C 67.5781 -24.4141 62.8418 -17.5781 55.4688 -17.5781 C 51.7578 -17.5781 48.9258 -19.3359 47.2656 -22.0703 C 46.3867 -23.3398 45.5078 -23.9258 44.2871 -23.9258 C 42.8223 -23.9258 41.7969 -22.9004 41.7969 -21.4355 C 41.7969 -20.9473 41.8945 -20.5566 42.041 -20.0684 C 43.0664 -16.8457 47.9004 -12.5977 55.5176 -12.5977 Z M 56.4941 -33.3984 C 50.4395 -33.3984 46.2402 -37.6953 46.2402 -43.5547 C 46.2402 -49.6094 50.4883 -53.7109 56.543 -53.7109 C 62.4023 -53.7109 66.7969 -49.4141 66.7969 -43.457 C 66.7969 -37.7441 62.5 -33.3984 56.4941 -33.3984 Z"/>
  </g>
  <g id="Regular-M" transform="matrix(1 0 0 1 1392.42 1126)">
   <path d="M 27.7832 9.76562 L 87.0605 9.76562 C 97.2656 9.76562 102.344 4.6875 102.344 -5.37109 L 102.344 -64.9902 C 102.344 -75.0488 97.2656 -80.127 87.0605 -80.127 L 27.7832 -80.127 C 17.627 -80.127 12.4512 -75.0977 12.4512 -64.9902 L 12.4512 -5.37109 C 12.4512 4.73633 17.627 9.76562 27.7832 9.76562 Z M 27.9297 1.9043 C 23.0469 1.9043 20.3125 -0.683594 20.3125 -5.76172 L 20.3125 -64.5996 C 20.3125 -69.6777 23.0469 -72.2656 27.9297 -72.2656 L 86.9141 -72.2656 C 91.748 -72.2656 94.4824 -69.6777 94.4824 -64.5996 L 94.4824 -5.76172 C 94.4824 -0.683594 91.748 1.9043 86.9141 1.9043 Z M 56.2012 -12.3535 C 68.1152 -12.3535 74.5605 -20.8496 74.5605 -37.207 C 74.5605 -51.3672 68.1641 -59.082 57.0801 -59.082 C 46.875 -59.082 40.332 -52.9297 40.332 -43.3594 C 40.332 -34.082 47.3633 -28.8574 55.0781 -28.8574 C 61.6211 -28.8574 65.4297 -32.0801 66.9922 -35.7422 L 67.3828 -35.7422 C 67.4805 -25.0488 62.9395 -18.5547 56.1035 -18.5547 C 52.7344 -18.5547 50.4395 -20.0684 48.7305 -22.4609 C 47.6074 -23.9258 46.4844 -24.6094 44.9707 -24.6094 C 43.1152 -24.6094 41.748 -23.3887 41.748 -21.4844 C 41.748 -20.9961 41.8945 -20.459 42.0898 -19.873 C 43.2129 -16.5039 47.9004 -12.3535 56.2012 -12.3535 Z M 57.373 -34.4238 C 51.8066 -34.4238 47.9492 -38.2812 47.9492 -43.7012 C 47.9492 -49.4141 51.709 -53.1738 57.373 -53.1738 C 62.793 -53.1738 66.7969 -49.1699 66.7969 -43.6035 C 66.7969 -38.2812 62.8906 -34.4238 57.373 -34.4238 Z"/>
  </g>
  <g id="Medium-M" transform="matrix(1 0 0 1 1688.45 1126)">
   <path d="M 28.5645 10.4492 L 87.6465 10.4492 C 98.2422 10.4492 103.711 4.98047 103.711 -5.46875 L 103.711 -64.8926 C 103.711 -75.3418 98.2422 -80.8105 87.6465 -80.8105 L 28.5645 -80.8105 C 17.9688 -80.8105 12.4512 -75.3906 12.4512 -64.8926 L 12.4512 -5.46875 C 12.4512 4.98047 17.9688 10.4492 28.5645 10.4492 Z M 29.1504 0.732422 C 24.6582 0.732422 22.2168 -1.61133 22.2168 -6.34766 L 22.2168 -64.0137 C 22.2168 -68.75 24.6582 -71.0938 29.1504 -71.0938 L 87.0117 -71.0938 C 91.5039 -71.0938 93.9941 -68.75 93.9941 -64.0137 L 93.9941 -6.34766 C 93.9941 -1.61133 91.5039 0.732422 87.0117 0.732422 Z M 56.9824 -12.4512 C 69.043 -12.4512 75.7324 -20.9473 75.7324 -36.8164 C 75.7324 -50.9277 69.0918 -58.7402 57.7148 -58.7402 C 47.3633 -58.7402 40.5273 -52.4902 40.5273 -43.0176 C 40.5273 -33.9844 47.2168 -28.7598 55.127 -28.7598 C 61.2305 -28.7598 64.9902 -31.7383 66.5527 -35.3027 L 66.9434 -35.3027 C 67.1875 -25.7324 63.0859 -19.6777 56.9336 -19.6777 C 53.8086 -19.6777 51.709 -21.0449 50.0977 -23.0957 C 48.9746 -24.4141 47.8027 -25.1465 45.9961 -25.1465 C 43.8477 -25.1465 42.2363 -23.6328 42.2363 -21.5332 C 42.2363 -20.8984 42.3828 -20.3125 42.627 -19.6777 C 43.9453 -16.2598 48.6816 -12.4512 56.9824 -12.4512 Z M 58.0566 -35.1074 C 53.125 -35.1074 49.7559 -38.5254 49.7559 -43.3594 C 49.7559 -48.3887 53.0762 -51.709 58.1055 -51.709 C 62.8906 -51.709 66.4062 -48.1934 66.4062 -43.2617 C 66.4062 -38.5742 62.9883 -35.1074 58.0566 -35.1074 Z"/>
  </g>
  <g id="Semibold-M" transform="matrix(1 0 0 1 1984.65 1126)">
   <path d="M 29.1016 10.9863 L 88.1348 10.9863 C 98.9746 10.9863 104.785 5.17578 104.785 -5.56641 L 104.785 -64.8438 C 104.785 -75.5859 98.9746 -81.3477 88.1348 -81.3477 L 29.1016 -81.3477 C 18.3105 -81.3477 12.4512 -75.5859 12.4512 -64.8438 L 12.4512 -5.56641 C 12.4512 5.22461 18.3105 10.9863 29.1016 10.9863 Z M 30.127 -0.195312 C 25.9277 -0.195312 23.6328 -2.34375 23.6328 -6.78711 L 23.6328 -63.623 C 23.6328 -68.0664 25.9277 -70.166 30.127 -70.166 L 87.1094 -70.166 C 91.3086 -70.166 93.6035 -68.0664 93.6035 -63.623 L 93.6035 -6.78711 C 93.6035 -2.34375 91.3086 -0.195312 87.1094 -0.195312 Z M 57.5684 -12.5488 C 69.8242 -12.5488 76.6602 -20.9961 76.6602 -36.5234 C 76.6602 -50.6348 69.8242 -58.4961 58.2031 -58.4961 C 47.7051 -58.4961 40.625 -52.1973 40.625 -42.7246 C 40.625 -33.8867 47.168 -28.6621 55.1758 -28.6621 C 60.9863 -28.6621 64.6484 -31.4453 66.2109 -35.0098 L 66.6016 -35.0098 C 66.9434 -26.2207 63.2324 -20.5078 57.5195 -20.5078 C 54.6387 -20.5078 52.7344 -21.7773 51.1719 -23.584 C 50 -24.8047 48.7793 -25.4883 46.7773 -25.4883 C 44.4336 -25.4883 42.627 -23.8281 42.627 -21.582 C 42.627 -20.8984 42.7734 -20.2148 43.0664 -19.5312 C 44.4336 -16.0645 49.2676 -12.5488 57.5684 -12.5488 Z M 58.5938 -35.6445 C 54.1504 -35.6445 51.0742 -38.7207 51.0742 -43.0664 C 51.0742 -47.6074 54.1016 -50.6348 58.6426 -50.6348 C 62.9395 -50.6348 66.1133 -47.4121 66.1133 -43.0176 C 66.1133 -38.7695 63.0371 -35.6445 58.5938 -35.6445 Z"/>
  </g>
  <g id="Bold-M" transform="matrix(1 0 0 1 2280.65 1126)">
   <path d="M 29.8828 11.6699 L 88.7207 11.6699 C 100 11.6699 106.152 5.46875 106.152 -5.66406 L 106.152 -64.6973 C 106.152 -75.8789 100 -82.0312 88.7207 -82.0312 L 29.8828 -82.0312 C 18.6523 -82.0312 12.4512 -75.8789 12.4512 -64.6973 L 12.4512 -5.66406 C 12.4512 5.51758 18.6523 11.6699 29.8828 11.6699 Z M 31.3965 -1.41602 C 27.5879 -1.41602 25.5371 -3.27148 25.5371 -7.32422 L 25.5371 -63.0371 C 25.5371 -67.1387 27.5879 -68.9453 31.3965 -68.9453 L 87.207 -68.9453 C 91.0156 -68.9453 93.1152 -67.1387 93.1152 -63.0371 L 93.1152 -7.32422 C 93.1152 -3.27148 91.0156 -1.41602 87.207 -1.41602 Z M 58.3984 -12.6465 C 70.8008 -12.6465 77.8809 -21.0449 77.8809 -36.1328 C 77.8809 -50.1953 70.8008 -58.1543 58.8379 -58.1543 C 48.1934 -58.1543 40.8203 -51.8066 40.8203 -42.3828 C 40.8203 -33.7402 47.0215 -28.5645 55.2246 -28.5645 C 60.6445 -28.5645 64.1602 -31.1035 65.7227 -34.5703 L 66.1621 -34.5703 C 66.6504 -26.8555 63.3789 -21.6309 58.3496 -21.6309 C 55.7617 -21.6309 54.0039 -22.7051 52.5391 -24.2188 C 51.3184 -25.293 50.0488 -26.0254 47.8027 -26.0254 C 45.166 -26.0254 43.1152 -24.1211 43.1152 -21.6309 C 43.1152 -20.8008 43.3105 -20.0684 43.6523 -19.3359 C 45.166 -15.8691 50.0977 -12.6465 58.3984 -12.6465 Z M 59.3262 -36.377 C 55.5176 -36.377 52.8809 -39.0137 52.8809 -42.7246 C 52.8809 -46.582 55.4688 -49.1699 59.3262 -49.1699 C 63.0371 -49.1699 65.7227 -46.4355 65.7227 -42.6758 C 65.7227 -39.0137 63.0859 -36.377 59.3262 -36.377 Z"/>
  </g>
  <g id="Heavy-M" transform="matrix(1 0 0 1 2576.36 1126)">
   <path d="M 31.0059 12.6465 L 89.6484 12.6465 C 101.416 12.6465 108.154 5.9082 108.154 -5.81055 L 108.154 -64.5508 C 108.154 -76.2695 101.416 -83.0566 89.6484 -83.0566 L 31.0059 -83.0566 C 19.2383 -83.0566 12.4512 -76.3184 12.4512 -64.5508 L 12.4512 -5.81055 C 12.4512 5.9082 19.2383 12.6465 31.0059 12.6465 Z M 33.252 -3.17383 C 29.9805 -3.17383 28.2715 -4.63867 28.2715 -8.1543 L 28.2715 -62.207 C 28.2715 -65.7715 29.9805 -67.2363 33.252 -67.2363 L 87.3535 -67.2363 C 90.6738 -67.2363 92.334 -65.7715 92.334 -62.207 L 92.334 -8.1543 C 92.334 -4.63867 90.6738 -3.17383 87.3535 -3.17383 Z M 59.5215 -12.8418 C 72.2168 -12.8418 79.5898 -21.1426 79.5898 -35.5957 C 79.5898 -49.6094 72.2168 -57.7148 59.8145 -57.7148 C 48.877 -57.7148 41.1133 -51.1719 41.1133 -41.8945 C 41.1133 -33.5938 46.875 -28.4668 55.2734 -28.4668 C 60.1074 -28.4668 63.4766 -30.5664 65.0391 -33.9355 L 65.5273 -33.9355 C 66.2109 -27.832 63.623 -23.291 59.5215 -23.291 C 57.3242 -23.291 55.9082 -24.1211 54.541 -25.1465 C 53.3203 -26.0254 51.9531 -26.7578 49.3164 -26.7578 C 46.2891 -26.7578 43.7988 -24.5117 43.7988 -21.6797 C 43.7988 -20.752 44.043 -19.8242 44.4824 -19.043 C 46.1914 -15.5273 51.2207 -12.8418 59.5215 -12.8418 Z M 60.3516 -37.4023 C 57.4707 -37.4023 55.4688 -39.3555 55.4688 -42.2363 C 55.4688 -45.0684 57.4707 -47.0703 60.3516 -47.0703 C 63.1348 -47.0703 65.1855 -45.0195 65.1855 -42.1875 C 65.1855 -39.4043 63.2324 -37.4023 60.3516 -37.4023 Z"/>
  </g>
  <g id="Black-M" transform="matrix(1 0 0 1 2872.19 1126)">
   <path d="M 31.9824 13.5742 L 90.4297 13.5742 C 102.686 13.5742 109.961 6.29883 109.961 -5.95703 L 109.961 -64.4043 C 109.961 -76.6602 102.686 -83.9355 90.4297 -83.9355 L 31.9824 -83.9355 C 19.7266 -83.9355 12.4512 -76.6602 12.4512 -64.4043 L 12.4512 -5.95703 C 12.4512 6.29883 19.7266 13.5742 31.9824 13.5742 Z M 34.9121 -4.73633 C 32.0801 -4.73633 30.7617 -5.81055 30.7617 -8.88672 L 30.7617 -61.4746 C 30.7617 -64.5508 32.0801 -65.6738 34.9121 -65.6738 L 87.5 -65.6738 C 90.332 -65.6738 91.6992 -64.5508 91.6992 -61.4746 L 91.6992 -8.88672 C 91.6992 -5.81055 90.332 -4.73633 87.5 -4.73633 Z M 60.5469 -12.9883 C 73.4375 -12.9883 81.1523 -21.2402 81.1523 -35.1074 C 81.1523 -49.0234 73.4375 -57.2754 60.6445 -57.2754 C 49.4629 -57.2754 41.3574 -50.6348 41.3574 -41.4551 C 41.3574 -33.4473 46.7285 -28.3203 55.3223 -28.3203 C 59.668 -28.3203 62.8906 -30.127 64.4531 -33.3984 L 64.9414 -33.3984 C 65.8203 -28.6621 63.8184 -24.707 60.5469 -24.707 C 58.7891 -24.707 57.6172 -25.3418 56.3477 -25.9766 C 55.0781 -26.6602 53.6133 -27.3926 50.6836 -27.3926 C 47.2656 -27.3926 44.4336 -24.9023 44.4336 -21.7285 C 44.4336 -20.6543 44.6777 -19.6777 45.2148 -18.7988 C 47.0703 -15.2344 52.2949 -12.9883 60.5469 -12.9883 Z M 61.2793 -38.3301 C 59.2285 -38.3301 57.8125 -39.6973 57.8125 -41.748 C 57.8125 -43.75 59.2285 -45.166 61.2793 -45.166 C 63.2812 -45.166 64.6973 -43.75 64.6973 -41.748 C 64.6973 -39.7949 63.3301 -38.3301 61.2793 -38.3301 Z"/>
  </g>
  <g id="Ultralight-L" transform="matrix(1 0 0 1 488.739 1556)">
   <path d="M 31.9824 19.7754 L 109.961 19.7754 C 120.361 19.7754 125.879 14.0625 125.879 3.85742 L 125.879 -74.0723 C 125.879 -84.2773 120.361 -89.9902 109.961 -89.9902 L 31.9824 -89.9902 C 21.6309 -89.9902 16.0645 -84.4727 16.0645 -74.0723 L 16.0645 3.85742 C 16.0645 14.2578 21.6309 19.7754 31.9824 19.7754 Z M 32.1289 17.2363 C 23.2422 17.2363 18.6523 12.6465 18.6523 3.75977 L 18.6523 -73.9258 C 18.6523 -82.8125 23.2422 -87.4512 32.1289 -87.4512 L 109.814 -87.4512 C 118.359 -87.4512 123.34 -82.8125 123.34 -73.9258 L 123.34 3.75977 C 123.34 12.6465 118.359 17.2363 109.814 17.2363 Z M 69.6289 -6.83594 C 82.373 -6.83594 89.9902 -17.041 89.9902 -38.8184 C 89.9902 -55.5664 81.9824 -63.5254 70.6543 -63.5254 C 60.0098 -63.5254 52.0508 -55.9082 52.0508 -45.2637 C 52.0508 -35.3516 59.4238 -27.2461 69.6777 -27.2461 C 78.0273 -27.2461 84.1797 -31.1035 87.1582 -38.2812 L 87.3535 -38.2812 C 87.3535 -19.4336 80.8594 -9.57031 69.7266 -9.57031 C 63.9648 -9.57031 58.7891 -12.6465 56.7383 -17.0898 C 56.3477 -18.1641 55.957 -18.5059 55.2246 -18.5059 C 54.4922 -18.5059 53.9551 -18.0664 53.9551 -17.2363 C 53.9551 -16.748 54.0527 -16.5527 54.1016 -16.3086 C 55.0293 -12.5488 61.8652 -6.83594 69.6289 -6.83594 Z M 70.3613 -30.0781 C 61.1816 -30.0781 54.7852 -36.7676 54.7852 -45.6055 C 54.7852 -54.3945 61.5723 -60.7422 70.5566 -60.7422 C 79.2969 -60.7422 86.2793 -54.1504 86.2793 -45.3613 C 86.2793 -36.8164 79.541 -30.0781 70.3613 -30.0781 Z"/>
  </g>
  <g id="Thin-L" transform="matrix(1 0 0 1 784.889 1556)">
   <path d="M 32.7148 20.3613 L 110.4 20.3613 C 121.289 20.3613 127.002 14.4531 127.002 3.75977 L 127.002 -73.9746 C 127.002 -84.7168 121.289 -90.5762 110.4 -90.5762 L 32.7148 -90.5762 C 21.8262 -90.5762 16.0645 -84.8633 16.0645 -73.9746 L 16.0645 3.75977 C 16.0645 14.6484 21.8262 20.3613 32.7148 20.3613 Z M 32.8613 16.4062 C 24.4141 16.4062 20.0195 12.0117 20.0195 3.56445 L 20.0195 -73.7793 C 20.0195 -82.2754 24.4141 -86.6699 32.8613 -86.6699 L 110.254 -86.6699 C 118.359 -86.6699 123.096 -82.2754 123.096 -73.7793 L 123.096 3.56445 C 123.096 12.0117 118.359 16.4062 110.254 16.4062 Z M 70.166 -6.64062 C 83.3496 -6.64062 91.1133 -16.9922 91.1133 -38.623 C 91.1133 -55.6641 83.0566 -63.9648 71.1914 -63.9648 C 60.1074 -63.9648 52.0508 -56.2988 52.0508 -45.3613 C 52.0508 -35.0586 59.7656 -27.1973 69.9219 -27.1973 C 78.3203 -27.1973 84.2285 -31.1035 87.0117 -37.8418 L 87.3047 -37.8418 C 87.3047 -19.9219 80.957 -10.3027 70.2148 -10.3027 C 64.6973 -10.3027 59.9609 -13.1836 57.8125 -17.4316 C 57.2754 -18.6035 56.6895 -19.0918 55.7617 -19.0918 C 54.6875 -19.0918 53.9551 -18.4082 53.9551 -17.2852 C 53.9551 -16.7969 54.0527 -16.5039 54.1504 -16.1133 C 55.1758 -12.3047 61.8164 -6.64062 70.166 -6.64062 Z M 71.0449 -30.8105 C 62.207 -30.8105 56.0547 -37.207 56.0547 -45.7031 C 56.0547 -54.248 62.5 -60.3027 71.1914 -60.3027 C 79.6387 -60.3027 86.2793 -54.0039 86.2793 -45.459 C 86.2793 -37.2559 79.834 -30.8105 71.0449 -30.8105 Z"/>
  </g>
  <g id="Light-L" transform="matrix(1 0 0 1 1080.5 1556)">
   <path d="M 34.082 21.4355 L 111.23 21.4355 C 123.096 21.4355 129.199 15.2344 129.199 3.56445 L 129.199 -73.8281 C 129.199 -85.5469 123.096 -91.6992 111.23 -91.6992 L 34.082 -91.6992 C 22.2168 -91.6992 16.0645 -85.6445 16.0645 -73.8281 L 16.0645 3.56445 C 16.0645 15.3809 22.2168 21.4355 34.082 21.4355 Z M 34.2285 14.7949 C 26.709 14.7949 22.7051 10.8398 22.7051 3.22266 L 22.7051 -73.4863 C 22.7051 -81.1523 26.709 -85.0586 34.2285 -85.0586 L 111.084 -85.0586 C 118.359 -85.0586 122.607 -81.1523 122.607 -73.4863 L 122.607 3.22266 C 122.607 10.8398 118.359 14.7949 111.084 14.7949 Z M 71.1914 -6.25 C 85.3027 -6.25 93.3594 -16.8457 93.3594 -38.2812 C 93.3594 -55.8105 85.1562 -64.8438 72.2656 -64.8438 C 60.3027 -64.8438 52.0508 -57.0801 52.0508 -45.5078 C 52.0508 -34.4727 60.3516 -27.0996 70.4102 -27.0996 C 78.8086 -27.0996 84.3262 -31.1035 86.7676 -37.0117 L 87.1582 -37.0117 C 87.207 -20.8984 81.0547 -11.8164 71.1914 -11.8164 C 66.1621 -11.8164 62.1582 -14.2578 60.0098 -18.0176 C 59.082 -19.4824 58.1055 -20.166 56.7383 -20.166 C 55.0781 -20.166 53.9551 -19.043 53.9551 -17.3828 C 53.9551 -16.7969 54.0527 -16.3574 54.1992 -15.8203 C 55.4199 -11.7676 61.8164 -6.25 71.1914 -6.25 Z M 72.3145 -32.2754 C 64.209 -32.2754 58.5938 -38.0371 58.5938 -45.8984 C 58.5938 -53.9062 64.3066 -59.4727 72.4121 -59.4727 C 80.2246 -59.4727 86.2305 -53.6621 86.2305 -45.7031 C 86.2305 -38.0859 80.4199 -32.2754 72.3145 -32.2754 Z"/>
  </g>
  <g id="Regular-L" transform="matrix(1 0 0 1 1376.36 1556)">
   <path d="M 35.1074 22.2168 L 111.865 22.2168 C 124.512 22.2168 130.859 15.8691 130.859 3.41797 L 130.859 -73.7305 C 130.859 -86.1816 124.512 -92.5293 111.865 -92.5293 L 35.1074 -92.5293 C 22.5098 -92.5293 16.0645 -86.2305 16.0645 -73.7305 L 16.0645 3.41797 C 16.0645 15.918 22.5098 22.2168 35.1074 22.2168 Z M 35.2539 13.5742 C 28.4668 13.5742 24.7559 9.96094 24.7559 2.97852 L 24.7559 -73.291 C 24.7559 -80.2734 28.4668 -83.8867 35.2539 -83.8867 L 111.67 -83.8867 C 118.359 -83.8867 122.217 -80.2734 122.217 -73.291 L 122.217 2.97852 C 122.217 9.96094 118.359 13.5742 111.67 13.5742 Z M 71.9727 -5.9082 C 86.7676 -5.9082 95.0195 -16.748 95.0195 -37.9883 C 95.0195 -55.957 86.7676 -65.5273 73.0469 -65.5273 C 60.4004 -65.5273 52.0508 -57.6172 52.0508 -45.6055 C 52.0508 -34.0332 60.791 -27.0508 70.8008 -27.0508 C 79.1992 -27.0508 84.375 -31.1523 86.6211 -36.377 L 87.0605 -36.377 C 87.1582 -21.582 81.1523 -12.8906 71.875 -12.8906 C 67.2363 -12.8906 63.8672 -15.0879 61.6699 -18.457 C 60.4492 -20.166 59.2285 -20.9473 57.4707 -20.9473 C 55.4199 -20.9473 53.9062 -19.5312 53.9062 -17.4316 C 53.9062 -16.8457 54.0527 -16.2598 54.248 -15.5762 C 55.6152 -11.3281 61.8164 -5.9082 71.9727 -5.9082 Z M 73.291 -33.3496 C 65.7227 -33.3496 60.498 -38.6719 60.498 -46.0449 C 60.498 -53.7109 65.7227 -58.8379 73.3887 -58.8379 C 80.7129 -58.8379 86.1816 -53.418 86.1816 -45.8984 C 86.1816 -38.7207 80.8105 -33.3496 73.291 -33.3496 Z"/>
  </g>
  <g id="Medium-L" transform="matrix(1 0 0 1 1672.31 1556)">
   <path d="M 35.9863 22.998 L 112.549 22.998 C 125.635 22.998 132.422 16.2109 132.422 3.27148 L 132.422 -73.6328 C 132.422 -86.5234 125.635 -93.3105 112.549 -93.3105 L 35.9863 -93.3105 C 22.9004 -93.3105 16.0645 -86.5723 16.0645 -73.6328 L 16.0645 3.27148 C 16.0645 16.2598 22.9004 22.998 35.9863 22.998 Z M 36.6211 12.2559 C 30.2734 12.2559 26.8066 8.98438 26.8066 2.39258 L 26.8066 -72.7051 C 26.8066 -79.2969 30.2734 -82.6172 36.6211 -82.6172 L 111.914 -82.6172 C 118.164 -82.6172 121.68 -79.2969 121.68 -72.7051 L 121.68 2.39258 C 121.68 8.98438 118.164 12.2559 111.914 12.2559 Z M 72.8027 -5.95703 C 87.9395 -5.95703 96.3867 -16.7969 96.3867 -37.5977 C 96.3867 -55.6152 87.9395 -65.332 73.7793 -65.332 C 60.8887 -65.332 52.1973 -57.373 52.1973 -45.3125 C 52.1973 -33.8867 60.7422 -26.9531 70.8984 -26.9531 C 78.9551 -26.9531 83.9844 -30.8105 86.1328 -35.8398 L 86.6211 -35.8398 C 86.8652 -22.3145 81.2988 -14.1113 72.7539 -14.1113 C 68.457 -14.1113 65.332 -16.1133 63.2324 -19.0918 C 61.9141 -20.752 60.5957 -21.582 58.5449 -21.582 C 56.1523 -21.582 54.3457 -19.873 54.3457 -17.5293 C 54.3457 -16.7969 54.4922 -16.0645 54.7852 -15.332 C 56.2988 -11.084 62.5 -5.95703 72.8027 -5.95703 Z M 74.1211 -34.1797 C 67.2363 -34.1797 62.4512 -39.0625 62.4512 -45.752 C 62.4512 -52.7344 67.1875 -57.4219 74.1699 -57.4219 C 80.8594 -57.4219 85.8398 -52.4414 85.8398 -45.6055 C 85.8398 -39.0625 81.0059 -34.1797 74.1211 -34.1797 Z"/>
  </g>
  <g id="Semibold-L" transform="matrix(1 0 0 1 1968.41 1556)">
   <path d="M 36.6699 23.584 L 113.037 23.584 C 126.514 23.584 133.594 16.5039 133.594 3.17383 L 133.594 -73.5352 C 133.594 -86.8164 126.514 -93.9453 113.037 -93.9453 L 36.6699 -93.9453 C 23.2422 -93.9453 16.0645 -86.8652 16.0645 -73.5352 L 16.0645 3.17383 C 16.0645 16.5527 23.2422 23.584 36.6699 23.584 Z M 37.6465 11.2793 C 31.6406 11.2793 28.418 8.20312 28.418 1.95312 L 28.418 -72.3145 C 28.418 -78.5156 31.6406 -81.5918 37.6465 -81.5918 L 112.061 -81.5918 C 117.969 -81.5918 121.289 -78.5156 121.289 -72.3145 L 121.289 1.95312 C 121.289 8.20312 117.969 11.2793 112.061 11.2793 Z M 73.4863 -6.00586 C 88.8184 -6.00586 97.4609 -16.8457 97.4609 -37.3047 C 97.4609 -55.3223 88.8184 -65.1855 74.3652 -65.1855 C 61.2305 -65.1855 52.3438 -57.1777 52.3438 -45.1172 C 52.3438 -33.7402 60.7422 -26.8555 70.9961 -26.8555 C 78.7598 -26.8555 83.6914 -30.5664 85.791 -35.4492 L 86.2793 -35.4492 C 86.6211 -22.8516 81.4453 -15.0391 73.3887 -15.0391 C 69.3359 -15.0391 66.4551 -16.8945 64.4043 -19.6289 C 63.0371 -21.1426 61.6211 -22.0215 59.375 -22.0215 C 56.6895 -22.0215 54.6875 -20.166 54.6875 -17.5293 C 54.6875 -16.748 54.8828 -15.9668 55.1758 -15.1855 C 56.8359 -10.8398 63.0859 -6.00586 73.4863 -6.00586 Z M 74.7559 -34.8633 C 68.3594 -34.8633 63.9648 -39.3066 63.9648 -45.5078 C 63.9648 -51.9531 68.3594 -56.2988 74.8047 -56.2988 C 80.957 -56.2988 85.5957 -51.7578 85.5957 -45.4102 C 85.5957 -39.3555 81.1035 -34.8633 74.7559 -34.8633 Z"/>
  </g>
  <g id="Bold-L" transform="matrix(1 0 0 1 2264.34 1556)">
   <path d="M 37.5488 24.3652 L 113.721 24.3652 C 127.686 24.3652 135.205 16.8945 135.205 3.07617 L 135.205 -73.3887 C 135.205 -87.207 127.686 -94.7266 113.721 -94.7266 L 37.5488 -94.7266 C 23.6328 -94.7266 16.0645 -87.2559 16.0645 -73.3887 L 16.0645 3.07617 C 16.0645 16.8945 23.6328 24.3652 37.5488 24.3652 Z M 38.9648 9.91211 C 33.4473 9.91211 30.5176 7.17773 30.5176 1.41602 L 30.5176 -71.7285 C 30.5176 -77.5391 33.4473 -80.2734 38.9648 -80.2734 L 112.256 -80.2734 C 117.725 -80.2734 120.752 -77.5391 120.752 -71.7285 L 120.752 1.41602 C 120.752 7.17773 117.725 9.91211 112.256 9.91211 Z M 74.3164 -6.05469 C 89.9902 -6.05469 98.8281 -16.8945 98.8281 -36.8652 C 98.8281 -54.9805 89.9902 -65.0391 75.0977 -65.0391 C 61.6699 -65.0391 52.4902 -56.8848 52.4902 -44.8242 C 52.4902 -33.5449 60.6934 -26.7578 71.0938 -26.7578 C 78.5156 -26.7578 83.252 -30.2246 85.3516 -34.9609 L 85.8887 -34.9609 C 86.3281 -23.584 81.5918 -16.3086 74.2676 -16.3086 C 70.5566 -16.3086 67.9688 -17.9199 65.9668 -20.2637 C 64.5508 -21.7285 63.0371 -22.6562 60.4492 -22.6562 C 57.4707 -22.6562 55.127 -20.5078 55.127 -17.627 C 55.127 -16.6992 55.3223 -15.8203 55.7129 -14.9414 C 57.5195 -10.5469 63.7695 -6.05469 74.3164 -6.05469 Z M 75.5859 -35.6934 C 69.873 -35.6934 65.9668 -39.6484 65.9668 -45.2148 C 65.9668 -50.9766 69.873 -54.8828 75.6348 -54.8828 C 81.1523 -54.8828 85.2051 -50.7812 85.2051 -45.166 C 85.2051 -39.6973 81.25 -35.6934 75.5859 -35.6934 Z"/>
  </g>
  <g id="Heavy-L" transform="matrix(1 0 0 1 2559.91 1556)">
   <path d="M 38.8184 25.4883 L 114.697 25.4883 C 129.346 25.4883 137.451 17.4316 137.451 2.88086 L 137.451 -73.2422 C 137.451 -87.793 129.346 -95.8496 114.697 -95.8496 L 38.8184 -95.8496 C 24.2188 -95.8496 16.0645 -87.793 16.0645 -73.2422 L 16.0645 2.88086 C 16.0645 17.4316 24.2188 25.4883 38.8184 25.4883 Z M 40.9668 8.00781 C 36.1328 8.00781 33.5938 5.71289 33.5938 0.585938 L 33.5938 -70.9473 C 33.5938 -76.0742 36.1328 -78.3691 40.9668 -78.3691 L 112.598 -78.3691 C 117.383 -78.3691 119.971 -76.0742 119.971 -70.9473 L 119.971 0.585938 C 119.971 5.71289 117.383 8.00781 112.598 8.00781 Z M 75.5859 -6.15234 C 91.6504 -6.15234 100.879 -16.9434 100.879 -36.2793 C 100.879 -54.4434 91.6992 -64.7461 76.1719 -64.7461 C 62.3047 -64.7461 52.7344 -56.4941 52.7344 -44.3848 C 52.7344 -33.3008 60.6934 -26.6113 71.2891 -26.6113 C 78.125 -26.6113 82.666 -29.7852 84.668 -34.2285 L 85.2539 -34.2285 C 85.9375 -24.6582 81.8359 -18.0664 75.5371 -18.0664 C 72.3145 -18.0664 70.166 -19.3848 68.2617 -21.2402 C 66.6992 -22.5586 65.0391 -23.5352 62.0117 -23.5352 C 58.5449 -23.5352 55.7617 -20.9961 55.7617 -17.6758 C 55.7617 -16.6016 56.0059 -15.625 56.4941 -14.6484 C 58.4961 -10.1562 64.8438 -6.15234 75.5859 -6.15234 Z M 76.8066 -36.9629 C 72.0703 -36.9629 68.8477 -40.1855 68.8477 -44.8242 C 68.8477 -49.5605 72.0215 -52.7832 76.8066 -52.7832 C 81.3477 -52.7832 84.7168 -49.4141 84.7168 -44.7266 C 84.7168 -40.2344 81.4453 -36.9629 76.8066 -36.9629 Z"/>
  </g>
  <g id="Black-L" transform="matrix(1 0 0 1 2855.62 1556)">
   <path d="M 39.9902 26.5137 L 115.576 26.5137 C 130.859 26.5137 139.502 17.8711 139.502 2.68555 L 139.502 -73.0957 C 139.502 -88.2812 130.859 -96.875 115.576 -96.875 L 39.9902 -96.875 C 24.7559 -96.875 16.0645 -88.2812 16.0645 -73.0957 L 16.0645 2.68555 C 16.0645 17.8711 24.7559 26.5137 39.9902 26.5137 Z M 42.7246 6.29883 C 38.4766 6.29883 36.3281 4.39453 36.3281 -0.146484 L 36.3281 -70.2148 C 36.3281 -74.7559 38.4766 -76.6602 42.7246 -76.6602 L 112.842 -76.6602 C 117.09 -76.6602 119.238 -74.7559 119.238 -70.2148 L 119.238 -0.146484 C 119.238 4.39453 117.09 6.29883 112.842 6.29883 Z M 76.709 -6.20117 C 93.1641 -6.20117 102.686 -17.041 102.686 -35.791 C 102.686 -53.9551 93.2129 -64.5508 77.1484 -64.5508 C 62.8906 -64.5508 52.9785 -56.1523 52.9785 -43.9941 C 52.9785 -33.0566 60.6445 -26.5137 71.4355 -26.5137 C 77.832 -26.5137 82.1289 -29.3457 84.082 -33.5938 L 84.7168 -33.5938 C 85.5469 -25.5859 82.0801 -19.6777 76.6602 -19.6777 C 73.877 -19.6777 72.1191 -20.7031 70.3125 -22.1191 C 68.6035 -23.3398 66.7969 -24.3164 63.4277 -24.3164 C 59.5215 -24.3164 56.3477 -21.4355 56.3477 -17.7734 C 56.3477 -16.5527 56.5918 -15.4297 57.1777 -14.3555 C 59.375 -9.76562 65.7715 -6.20117 76.709 -6.20117 Z M 77.8809 -38.0371 C 74.0723 -38.0371 71.3867 -40.625 71.3867 -44.4336 C 71.3867 -48.2422 73.9746 -50.8789 77.8809 -50.8789 C 81.5918 -50.8789 84.2773 -48.1934 84.2773 -44.3848 C 84.2773 -40.7227 81.6406 -38.0371 77.8809 -38.0371 Z"/>
  </g>
 </g>
</svg>
