<?xml version="1.0" encoding="UTF-8"?>
<!--Generator: Apple Native CoreSVG 123-->
<!DOCTYPE svg
PUBLIC "-//W3C//DTD SVG 1.1//EN"
       "http://www.w3.org/Graphics/SVG/1.1/DTD/svg11.dtd">
<svg version="1.1" xmlns="http://www.w3.org/2000/svg" xmlns:xlink="http://www.w3.org/1999/xlink" width="3300" height="2200">
 <!--glyph: "uni100095.medium", point size: 100.000000, font version: "Version 15.0d4e20", template writer version: "2"-->
 <g id="Notes">
  <rect height="2200" id="artboard" style="fill:white;opacity:1" width="3300" x="0" y="0"/>
  <line id="" style="fill:none;stroke:black;opacity:1;stroke-width:0.5;" x1="263" x2="3036" y1="292" y2="292"/>
  <text style="stroke:none;fill:black;font-family:-apple-system,&quot;SF Pro Display&quot;,&quot;SF Pro Text&quot;,Helvetica,sans-serif;font-weight:bold;" transform="matrix(1 0 0 1 263 322)">Weight/Scale Variations</text>
  <text style="stroke:none;fill:black;font-family:-apple-system,&quot;SF Pro Display&quot;,&quot;SF Pro Text&quot;,Helvetica,sans-serif;text-anchor:middle;" transform="matrix(1 0 0 1 559.711 322)">Ultralight</text>
  <text style="stroke:none;fill:black;font-family:-apple-system,&quot;SF Pro Display&quot;,&quot;SF Pro Text&quot;,Helvetica,sans-serif;text-anchor:middle;" transform="matrix(1 0 0 1 856.422 322)">Thin</text>
  <text style="stroke:none;fill:black;font-family:-apple-system,&quot;SF Pro Display&quot;,&quot;SF Pro Text&quot;,Helvetica,sans-serif;text-anchor:middle;" transform="matrix(1 0 0 1 1153.13 322)">Light</text>
  <text style="stroke:none;fill:black;font-family:-apple-system,&quot;SF Pro Display&quot;,&quot;SF Pro Text&quot;,Helvetica,sans-serif;text-anchor:middle;" transform="matrix(1 0 0 1 1449.84 322)">Regular</text>
  <text style="stroke:none;fill:black;font-family:-apple-system,&quot;SF Pro Display&quot;,&quot;SF Pro Text&quot;,Helvetica,sans-serif;text-anchor:middle;" transform="matrix(1 0 0 1 1746.56 322)">Medium</text>
  <text style="stroke:none;fill:black;font-family:-apple-system,&quot;SF Pro Display&quot;,&quot;SF Pro Text&quot;,Helvetica,sans-serif;text-anchor:middle;" transform="matrix(1 0 0 1 2043.27 322)">Semibold</text>
  <text style="stroke:none;fill:black;font-family:-apple-system,&quot;SF Pro Display&quot;,&quot;SF Pro Text&quot;,Helvetica,sans-serif;text-anchor:middle;" transform="matrix(1 0 0 1 2339.98 322)">Bold</text>
  <text style="stroke:none;fill:black;font-family:-apple-system,&quot;SF Pro Display&quot;,&quot;SF Pro Text&quot;,Helvetica,sans-serif;text-anchor:middle;" transform="matrix(1 0 0 1 2636.69 322)">Heavy</text>
  <text style="stroke:none;fill:black;font-family:-apple-system,&quot;SF Pro Display&quot;,&quot;SF Pro Text&quot;,Helvetica,sans-serif;text-anchor:middle;" transform="matrix(1 0 0 1 2933.4 322)">Black</text>
  <line id="" style="fill:none;stroke:black;opacity:1;stroke-width:0.5;" x1="263" x2="3036" y1="1903" y2="1903"/>
  <g id="" transform="matrix(1 0 0 1 263 1933)">
   <path d="M 9.24805 0.830078 C 13.5547 0.830078 17.1387 -2.74414 17.1387 -7.05078 C 17.1387 -11.3574 13.5449 -14.9316 9.23828 -14.9316 C 4.94141 -14.9316 1.36719 -11.3574 1.36719 -7.05078 C 1.36719 -2.74414 4.95117 0.830078 9.24805 0.830078 Z M 9.24805 -0.654297 C 5.70312 -0.654297 2.87109 -3.49609 2.87109 -7.05078 C 2.87109 -10.6055 5.69336 -13.4473 9.23828 -13.4473 C 12.793 -13.4473 15.6348 -10.6055 15.6445 -7.05078 C 15.6543 -3.49609 12.8027 -0.654297 9.24805 -0.654297 Z M 9.22852 -3.42773 C 9.69727 -3.42773 9.9707 -3.74023 9.9707 -4.25781 L 9.9707 -6.31836 L 12.1973 -6.31836 C 12.6953 -6.31836 13.0371 -6.57227 13.0371 -7.04102 C 13.0371 -7.51953 12.7148 -7.7832 12.1973 -7.7832 L 9.9707 -7.7832 L 9.9707 -10.0098 C 9.9707 -10.5273 9.69727 -10.8496 9.22852 -10.8496 C 8.75977 -10.8496 8.50586 -10.5078 8.50586 -10.0098 L 8.50586 -7.7832 L 6.29883 -7.7832 C 5.78125 -7.7832 5.44922 -7.51953 5.44922 -7.04102 C 5.44922 -6.57227 5.80078 -6.31836 6.29883 -6.31836 L 8.50586 -6.31836 L 8.50586 -4.25781 C 8.50586 -3.75977 8.75977 -3.42773 9.22852 -3.42773 Z"/>
  </g>
  <g id="" transform="matrix(1 0 0 1 281.506 1933)">
   <path d="M 11.709 2.91016 C 17.1484 2.91016 21.6699 -1.60156 21.6699 -7.05078 C 21.6699 -12.4902 17.1387 -17.0117 11.6992 -17.0117 C 6.25 -17.0117 1.74805 -12.4902 1.74805 -7.05078 C 1.74805 -1.60156 6.25977 2.91016 11.709 2.91016 Z M 11.709 1.25 C 7.09961 1.25 3.41797 -2.44141 3.41797 -7.05078 C 3.41797 -11.6504 7.08984 -15.3516 11.6992 -15.3516 C 16.2988 -15.3516 20 -11.6504 20.0098 -7.05078 C 20.0195 -2.44141 16.3086 1.25 11.709 1.25 Z M 11.6797 -2.41211 C 12.207 -2.41211 12.5195 -2.77344 12.5195 -3.33984 L 12.5195 -6.23047 L 15.5762 -6.23047 C 16.123 -6.23047 16.5039 -6.51367 16.5039 -7.03125 C 16.5039 -7.55859 16.1426 -7.86133 15.5762 -7.86133 L 12.5195 -7.86133 L 12.5195 -10.9277 C 12.5195 -11.5039 12.207 -11.8555 11.6797 -11.8555 C 11.1621 -11.8555 10.8789 -11.4844 10.8789 -10.9277 L 10.8789 -7.86133 L 7.83203 -7.86133 C 7.25586 -7.86133 6.89453 -7.55859 6.89453 -7.03125 C 6.89453 -6.51367 7.28516 -6.23047 7.83203 -6.23047 L 10.8789 -6.23047 L 10.8789 -3.33984 C 10.8789 -2.79297 11.1621 -2.41211 11.6797 -2.41211 Z"/>
  </g>
  <g id="" transform="matrix(1 0 0 1 304.914 1933)">
   <path d="M 14.9707 5.67383 C 21.9336 5.67383 27.6855 -0.078125 27.6855 -7.04102 C 27.6855 -14.0039 21.9238 -19.7559 14.9609 -19.7559 C 7.99805 -19.7559 2.25586 -14.0039 2.25586 -7.04102 C 2.25586 -0.078125 8.00781 5.67383 14.9707 5.67383 Z M 14.9707 3.85742 C 8.92578 3.85742 4.08203 -1.00586 4.08203 -7.04102 C 4.08203 -13.0762 8.91602 -17.9395 14.9609 -17.9395 C 20.9961 -17.9395 25.8594 -13.0762 25.8691 -7.04102 C 25.8789 -1.00586 21.0059 3.85742 14.9707 3.85742 Z M 14.9414 -1.06445 C 15.5176 -1.06445 15.8594 -1.45508 15.8594 -2.06055 L 15.8594 -6.13281 L 20.0977 -6.13281 C 20.6934 -6.13281 21.1133 -6.46484 21.1133 -7.02148 C 21.1133 -7.59766 20.7227 -7.93945 20.0977 -7.93945 L 15.8594 -7.93945 L 15.8594 -12.1875 C 15.8594 -12.8027 15.5176 -13.1934 14.9414 -13.1934 C 14.3848 -13.1934 14.0625 -12.7832 14.0625 -12.1875 L 14.0625 -7.93945 L 9.82422 -7.93945 C 9.20898 -7.93945 8.80859 -7.59766 8.80859 -7.02148 C 8.80859 -6.46484 9.23828 -6.13281 9.82422 -6.13281 L 14.0625 -6.13281 L 14.0625 -2.06055 C 14.0625 -1.47461 14.3848 -1.06445 14.9414 -1.06445 Z"/>
  </g>
  <text style="stroke:none;fill:black;font-family:-apple-system,&quot;SF Pro Display&quot;,&quot;SF Pro Text&quot;,Helvetica,sans-serif;font-weight:bold;" transform="matrix(1 0 0 1 263 1953)">Design Variations</text>
  <text style="stroke:none;fill:black;font-family:-apple-system,&quot;SF Pro Display&quot;,&quot;SF Pro Text&quot;,Helvetica,sans-serif;" transform="matrix(1 0 0 1 263 1971)">Symbols are supported in up to nine weights and three scales.</text>
  <text style="stroke:none;fill:black;font-family:-apple-system,&quot;SF Pro Display&quot;,&quot;SF Pro Text&quot;,Helvetica,sans-serif;" transform="matrix(1 0 0 1 263 1989)">For optimal layout with text and other symbols, vertically align</text>
  <text style="stroke:none;fill:black;font-family:-apple-system,&quot;SF Pro Display&quot;,&quot;SF Pro Text&quot;,Helvetica,sans-serif;" transform="matrix(1 0 0 1 263 2007)">symbols with the adjacent text.</text>
  <rect height="14" id="" style="fill:#00AEEF;stroke:none;opacity:0.4;" width="3" x="776" y="1919"/>
  <g id="" transform="matrix(1 0 0 1 779 1933)">
   <path d="M 10.5273 0 L 12.373 0 L 7.17773 -14.0918 L 5.43945 -14.0918 L 0.244141 0 L 2.08984 0 L 3.50586 -4.0332 L 9.11133 -4.0332 Z M 6.2793 -11.9531 L 6.33789 -11.9531 L 8.59375 -5.52734 L 4.02344 -5.52734 Z"/>
  </g>
  <rect height="14" id="" style="fill:#00AEEF;stroke:none;opacity:0.4;" width="3" x="791.617" y="1919"/>
  <text style="stroke:none;fill:black;font-family:-apple-system,&quot;SF Pro Display&quot;,&quot;SF Pro Text&quot;,Helvetica,sans-serif;font-weight:bold;" transform="matrix(1 0 0 1 776 1953)">Side Bearings</text>
  <text style="stroke:none;fill:black;font-family:-apple-system,&quot;SF Pro Display&quot;,&quot;SF Pro Text&quot;,Helvetica,sans-serif;" transform="matrix(1 0 0 1 776 1971)">Horizontal padding on the left and right side of each symbol</text>
  <text style="stroke:none;fill:black;font-family:-apple-system,&quot;SF Pro Display&quot;,&quot;SF Pro Text&quot;,Helvetica,sans-serif;" transform="matrix(1 0 0 1 776 1989)">can be adjusted by modifying the width of the blue rectangles.</text>
  <text style="stroke:none;fill:black;font-family:-apple-system,&quot;SF Pro Display&quot;,&quot;SF Pro Text&quot;,Helvetica,sans-serif;" transform="matrix(1 0 0 1 776 2007)">Modifications are automatically applied proportionally to all</text>
  <text style="stroke:none;fill:black;font-family:-apple-system,&quot;SF Pro Display&quot;,&quot;SF Pro Text&quot;,Helvetica,sans-serif;" transform="matrix(1 0 0 1 776 2025)">scales and weights.</text>
  <g id="" transform="matrix(1 0 0 1 1289 1933)">
   <path d="M 2.96875 2.35352 L 3.80859 3.19336 C 4.84375 4.22852 6.12305 4.15039 7.19727 2.97852 L 16.1621 -6.82617 C 16.5527 -6.74805 16.9629 -6.8457 17.4902 -7.02148 C 18.1738 -7.25586 18.2715 -7.25586 18.3887 -7.13867 C 18.5352 -7.01172 18.4863 -6.89453 18.2422 -6.25 C 17.8809 -5.33203 17.8125 -4.79492 18.5547 -4.02344 L 19.4238 -3.13477 C 20.2734 -2.24609 21.3281 -2.26562 22.2168 -3.14453 L 25.0586 -5.97656 C 25.9473 -6.86523 25.957 -7.92969 25.0781 -8.7793 L 24.1797 -9.64844 C 23.4082 -10.4004 22.8711 -10.3516 21.9629 -9.98047 C 21.3184 -9.72656 21.2012 -9.6875 21.0645 -9.81445 C 20.9375 -9.93164 20.9473 -10.0391 21.1816 -10.7129 C 21.5332 -11.6895 21.5723 -12.2852 20.752 -13.0957 L 19.3359 -14.5117 C 15.1953 -18.6133 11.2305 -18.7402 7.65625 -15.4395 C 7.08008 -14.9023 6.99219 -14.1504 7.53906 -13.6133 L 7.79297 -13.3594 C 8.22266 -12.9297 8.86719 -12.8418 9.41406 -13.1152 C 11.0645 -13.9453 12.2559 -14.0234 13.457 -12.9785 L 13.0273 -11.416 C 12.8516 -10.8008 12.793 -10.3418 12.9199 -9.93164 L 3.18359 -1.04492 C 2.02148 0.0292969 1.93359 1.32812 2.96875 2.35352 Z M 8.96484 -14.4922 C 8.89648 -14.5703 8.86719 -14.6582 8.99414 -14.7559 C 11.709 -17.2852 15.0391 -16.8457 18.3496 -13.5254 L 19.6973 -12.168 C 20.0879 -11.7773 20.0977 -11.582 19.8828 -10.8691 C 19.6582 -10.127 19.502 -9.53125 20.1465 -8.88672 C 20.8105 -8.22266 21.2891 -8.41797 22.207 -8.63281 C 22.9004 -8.79883 23.0664 -8.79883 23.4473 -8.41797 L 24.0918 -7.77344 C 24.4043 -7.48047 24.4141 -7.32422 24.0723 -6.97266 L 21.2207 -4.13086 C 20.8887 -3.79883 20.7227 -3.79883 20.4297 -4.10156 L 19.7852 -4.75586 C 19.4141 -5.13672 19.4141 -5.30273 19.5801 -6.01562 C 19.7852 -6.88477 19.9805 -7.38281 19.3262 -8.04688 C 18.6719 -8.7207 18.0762 -8.57422 17.3438 -8.33008 C 16.5625 -8.06641 16.3281 -8.06641 15.8984 -8.49609 L 14.6094 -9.78516 C 14.1699 -10.2246 14.1309 -10.4395 14.2676 -10.9082 L 15.0293 -13.3984 C 13.3887 -15.2832 11.4941 -15.5566 9.20898 -14.4434 C 9.11133 -14.3945 9.04297 -14.4141 8.96484 -14.4922 Z M 3.96484 1.36719 C 3.52539 0.927734 3.54492 0.537109 4.14062 -0.00976562 L 13.7402 -8.81836 L 15 -7.55859 L 6.17188 2.02148 C 5.625 2.60742 5.24414 2.64648 4.79492 2.19727 Z"/>
  </g>
  <text style="stroke:none;fill:black;font-family:-apple-system,&quot;SF Pro Display&quot;,&quot;SF Pro Text&quot;,Helvetica,sans-serif;font-weight:bold;" transform="matrix(1 0 0 1 1289 1953)">Exporting</text>
  <text style="stroke:none;fill:black;font-family:-apple-system,&quot;SF Pro Display&quot;,&quot;SF Pro Text&quot;,Helvetica,sans-serif;" transform="matrix(1 0 0 1 1289 1971)">Symbols should be outlined when exporting to ensure the</text>
  <text style="stroke:none;fill:black;font-family:-apple-system,&quot;SF Pro Display&quot;,&quot;SF Pro Text&quot;,Helvetica,sans-serif;" transform="matrix(1 0 0 1 1289 1989)">design is preserved when submitting to Xcode.</text>
  <text id="template-version" style="stroke:none;fill:black;font-family:-apple-system,&quot;SF Pro Display&quot;,&quot;SF Pro Text&quot;,Helvetica,sans-serif;text-anchor:end;" transform="matrix(1 0 0 1 3036 1933)">Template v.0.1</text>
  <text style="stroke:none;fill:black;font-family:-apple-system,&quot;SF Pro Display&quot;,&quot;SF Pro Text&quot;,Helvetica,sans-serif;text-anchor:end;" transform="matrix(1 0 0 1 3036 1951)">Generated from a.square.fill</text>
  <text style="stroke:none;fill:black;font-family:-apple-system,&quot;SF Pro Display&quot;,&quot;SF Pro Text&quot;,Helvetica,sans-serif;text-anchor:end;" transform="matrix(1 0 0 1 3036 1969)">Typeset at 100 points</text>
  <text style="stroke:none;fill:black;font-family:-apple-system,&quot;SF Pro Display&quot;,&quot;SF Pro Text&quot;,Helvetica,sans-serif;" transform="matrix(1 0 0 1 263 726)">Small</text>
  <text style="stroke:none;fill:black;font-family:-apple-system,&quot;SF Pro Display&quot;,&quot;SF Pro Text&quot;,Helvetica,sans-serif;" transform="matrix(1 0 0 1 263 1156)">Medium</text>
  <text style="stroke:none;fill:black;font-family:-apple-system,&quot;SF Pro Display&quot;,&quot;SF Pro Text&quot;,Helvetica,sans-serif;" transform="matrix(1 0 0 1 263 1586)">Large</text>
 </g>
 <g id="Guides">
  <g id="H-reference" style="fill:#27AAE1;stroke:none;" transform="matrix(1 0 0 1 339 696)">
   <path d="M 54.9316 0 L 57.666 0 L 30.5664 -70.459 L 28.0762 -70.459 L 0.976562 0 L 3.66211 0 L 12.9395 -24.4629 L 45.7031 -24.4629 Z M 29.1992 -67.0898 L 29.4434 -67.0898 L 44.8242 -26.709 L 13.8184 -26.709 Z"/>
  </g>
  <line id="Baseline-S" style="fill:none;stroke:#27AAE1;opacity:1;stroke-width:0.577;" x1="263" x2="3036" y1="696" y2="696"/>
  <line id="Capline-S" style="fill:none;stroke:#27AAE1;opacity:1;stroke-width:0.577;" x1="263" x2="3036" y1="625.541" y2="625.541"/>
  <g id="H-reference" style="fill:#27AAE1;stroke:none;" transform="matrix(1 0 0 1 339 1126)">
   <path d="M 54.9316 0 L 57.666 0 L 30.5664 -70.459 L 28.0762 -70.459 L 0.976562 0 L 3.66211 0 L 12.9395 -24.4629 L 45.7031 -24.4629 Z M 29.1992 -67.0898 L 29.4434 -67.0898 L 44.8242 -26.709 L 13.8184 -26.709 Z"/>
  </g>
  <line id="Baseline-M" style="fill:none;stroke:#27AAE1;opacity:1;stroke-width:0.577;" x1="263" x2="3036" y1="1126" y2="1126"/>
  <line id="Capline-M" style="fill:none;stroke:#27AAE1;opacity:1;stroke-width:0.577;" x1="263" x2="3036" y1="1055.54" y2="1055.54"/>
  <g id="H-reference" style="fill:#27AAE1;stroke:none;" transform="matrix(1 0 0 1 339 1556)">
   <path d="M 54.9316 0 L 57.666 0 L 30.5664 -70.459 L 28.0762 -70.459 L 0.976562 0 L 3.66211 0 L 12.9395 -24.4629 L 45.7031 -24.4629 Z M 29.1992 -67.0898 L 29.4434 -67.0898 L 44.8242 -26.709 L 13.8184 -26.709 Z"/>
  </g>
  <line id="Baseline-L" style="fill:none;stroke:#27AAE1;opacity:1;stroke-width:0.577;" x1="263" x2="3036" y1="1556" y2="1556"/>
  <line id="Capline-L" style="fill:none;stroke:#27AAE1;opacity:1;stroke-width:0.577;" x1="263" x2="3036" y1="1485.54" y2="1485.54"/>
  <rect height="119.336" id="left-margin" style="fill:#00AEEF;stroke:none;opacity:0.4;" width="12.4512" x="1392.42" y="1030.79"/>
  <rect height="119.336" id="right-margin" style="fill:#00AEEF;stroke:none;opacity:0.4;" width="12.5" x="1494.77" y="1030.79"/>
 </g>
 <g id="Symbols">
  <g id="Ultralight-S" transform="matrix(1 0 0 1 516.352 696)">
   <path d="M 19.7754 -1.5625 L 66.9922 -1.5625 C 73.5352 -1.5625 76.9531 -5.12695 76.9531 -11.5234 L 76.9531 -58.7891 C 76.9531 -65.2344 73.5352 -68.75 66.9922 -68.75 L 19.7754 -68.75 C 13.2324 -68.75 9.76562 -65.2832 9.76562 -58.7891 L 9.76562 -11.5234 C 9.76562 -5.0293 13.2324 -1.5625 19.7754 -1.5625 Z M 30.2246 -17.1875 C 29.4922 -17.1875 29.0039 -17.627 29.0039 -18.2617 C 29.0039 -18.5547 29.0527 -18.6523 29.1504 -18.9941 L 41.748 -52.0996 C 42.041 -52.8809 42.5293 -53.2715 43.3594 -53.2715 C 44.1406 -53.2715 44.6289 -52.8809 44.9219 -52.0996 L 57.5195 -18.9941 C 57.6172 -18.6523 57.666 -18.5547 57.666 -18.2129 C 57.666 -17.6758 57.1777 -17.1875 56.543 -17.1875 C 55.8105 -17.1875 55.5176 -17.5293 55.2734 -18.2129 L 51.2207 -28.9551 L 35.4492 -28.9551 L 31.3965 -18.2129 C 31.1523 -17.4805 30.8594 -17.1875 30.2246 -17.1875 Z M 36.2793 -31.2012 L 50.3906 -31.2012 L 43.4082 -49.707 L 43.2617 -49.707 Z"/>
  </g>
  <g id="Thin-S" transform="matrix(1 0 0 1 812.599 696)">
   <path d="M 20.3125 -1.12305 L 67.334 -1.12305 C 74.2676 -1.12305 77.8809 -4.78516 77.8809 -11.6211 L 77.8809 -58.6914 C 77.8809 -65.5762 74.2676 -69.2383 67.334 -69.2383 L 20.3125 -69.2383 C 13.3789 -69.2383 9.76562 -65.625 9.76562 -58.6914 L 9.76562 -11.6211 C 9.76562 -4.6875 13.3789 -1.12305 20.3125 -1.12305 Z M 30.6641 -16.9922 C 29.6387 -16.9922 28.9551 -17.5781 28.9551 -18.5547 C 28.9551 -18.8965 29.0039 -19.1406 29.1992 -19.6289 L 41.4062 -51.9531 C 41.8457 -53.125 42.627 -53.7109 43.7988 -53.7109 C 44.9707 -53.7109 45.752 -53.125 46.1914 -51.9531 L 58.3984 -19.6289 C 58.5938 -19.1406 58.6426 -18.8965 58.6426 -18.5059 C 58.6426 -17.627 57.959 -16.9922 57.0312 -16.9922 C 56.0547 -16.9922 55.5664 -17.3828 55.2246 -18.457 L 51.5137 -28.5645 L 36.084 -28.5645 L 32.373 -18.457 C 32.0312 -17.3828 31.543 -16.9922 30.6641 -16.9922 Z M 37.1582 -31.4941 L 50.4395 -31.4941 L 43.8965 -49.1699 L 43.7012 -49.1699 Z"/>
  </g>
  <g id="Light-S" transform="matrix(1 0 0 1 1108.46 696)">
   <path d="M 21.3867 -0.292969 L 67.9688 -0.292969 C 75.7324 -0.292969 79.5898 -4.15039 79.5898 -11.7676 L 79.5898 -58.5938 C 79.5898 -66.2109 75.7324 -70.1172 67.9688 -70.1172 L 21.3867 -70.1172 C 13.6719 -70.1172 9.76562 -66.2598 9.76562 -58.5938 L 9.76562 -11.7676 C 9.76562 -4.15039 13.6719 -0.292969 21.3867 -0.292969 Z M 31.4941 -16.5527 C 29.8828 -16.5527 28.8574 -17.5781 28.8574 -19.043 C 28.8574 -19.5801 28.9551 -20.1172 29.1992 -20.8496 L 40.7227 -51.709 C 41.4062 -53.5645 42.7246 -54.4922 44.6289 -54.4922 C 46.582 -54.4922 47.9004 -53.5645 48.6328 -51.709 L 60.1562 -20.8496 C 60.4004 -20.1172 60.498 -19.5801 60.498 -18.9941 C 60.498 -17.5781 59.4238 -16.5527 57.9102 -16.5527 C 56.543 -16.5527 55.6641 -17.2363 55.127 -18.8477 L 52.002 -27.832 L 37.3535 -27.832 L 34.2285 -18.8477 C 33.6914 -17.1875 32.8125 -16.5527 31.4941 -16.5527 Z M 38.8184 -32.1289 L 50.5371 -32.1289 L 44.873 -48.2422 L 44.4824 -48.2422 Z"/>
  </g>
  <g id="Regular-S" transform="matrix(1 0 0 1 1404.51 696)">
   <path d="M 22.2168 0.390625 L 68.457 0.390625 C 76.8066 0.390625 80.9082 -3.71094 80.9082 -11.9141 L 80.9082 -58.4961 C 80.9082 -66.6992 76.8066 -70.8008 68.457 -70.8008 L 22.2168 -70.8008 C 13.916 -70.8008 9.76562 -66.6992 9.76562 -58.4961 L 9.76562 -11.9141 C 9.76562 -3.71094 13.916 0.390625 22.2168 0.390625 Z M 32.1289 -16.2598 C 30.0781 -16.2598 28.7598 -17.5293 28.7598 -19.4336 C 28.7598 -20.1172 28.9062 -20.8008 29.248 -21.8262 L 40.2344 -51.5137 C 41.1133 -53.9062 42.8223 -55.127 45.3125 -55.127 C 47.8516 -55.127 49.5605 -53.9062 50.4395 -51.5137 L 61.4258 -21.8262 C 61.7676 -20.8008 61.9141 -20.1172 61.9141 -19.4336 C 61.9141 -17.5293 60.5957 -16.2598 58.5938 -16.2598 C 56.9336 -16.2598 55.7617 -17.0898 55.0293 -19.1895 L 52.3926 -27.2461 L 38.3301 -27.2461 L 35.6445 -19.1895 C 34.9121 -17.041 33.7891 -16.2598 32.1289 -16.2598 Z M 40.0879 -32.6172 L 50.5859 -32.6172 L 45.5566 -47.5098 L 45.1172 -47.5098 Z"/>
  </g>
  <g id="Medium-S" transform="matrix(1 0 0 1 1700.63 696)">
   <path d="M 22.8516 0.976562 L 68.9941 0.976562 C 77.6367 0.976562 82.0801 -3.4668 82.0801 -11.9629 L 82.0801 -58.3984 C 82.0801 -66.9434 77.6367 -71.3867 68.9941 -71.3867 L 22.8516 -71.3867 C 14.2578 -71.3867 9.76562 -66.9434 9.76562 -58.3984 L 9.76562 -11.9629 C 9.76562 -3.4668 14.2578 0.976562 22.8516 0.976562 Z M 33.3984 -16.4062 C 30.9082 -16.4062 29.3457 -17.9199 29.3457 -20.2637 C 29.3457 -20.9961 29.541 -21.875 29.8828 -23.0957 L 39.5996 -49.9512 C 40.7227 -53.1738 42.8223 -54.7363 45.9473 -54.7363 C 49.2188 -54.7363 51.3672 -53.125 52.4414 -49.9512 L 62.1582 -23.0957 C 62.5488 -21.875 62.7441 -20.9961 62.7441 -20.2637 C 62.7441 -17.9199 61.1816 -16.4062 58.6914 -16.4062 C 56.6406 -16.4062 55.2246 -17.4805 54.541 -20.0195 L 52.4414 -26.2695 L 39.5996 -26.2695 L 37.5488 -20.0195 C 36.8164 -17.4805 35.4492 -16.4062 33.3984 -16.4062 Z M 41.4551 -32.5195 L 50.6348 -32.5195 L 46.2402 -46.3867 L 45.8008 -46.3867 Z"/>
  </g>
  <g id="Semibold-S" transform="matrix(1 0 0 1 1996.9 696)">
   <path d="M 23.3398 1.41602 L 69.3848 1.41602 C 78.2227 1.41602 82.959 -3.32031 82.959 -12.0605 L 82.959 -58.3496 C 82.959 -67.0898 78.2227 -71.8262 69.3848 -71.8262 L 23.3398 -71.8262 C 14.5508 -71.8262 9.76562 -67.0898 9.76562 -58.3496 L 9.76562 -12.0605 C 9.76562 -3.32031 14.5508 1.41602 23.3398 1.41602 Z M 34.375 -16.5039 C 31.4941 -16.5039 29.7852 -18.1641 29.7852 -20.8984 C 29.7852 -21.6797 29.9805 -22.7051 30.4199 -24.0723 L 39.1602 -48.7305 C 40.4297 -52.5879 42.8223 -54.3945 46.4844 -54.3945 C 50.2441 -54.3945 52.7344 -52.5879 54.0039 -48.7305 L 62.7441 -24.0723 C 63.1348 -22.7051 63.3789 -21.6797 63.3789 -20.8984 C 63.3789 -18.2129 61.6211 -16.5039 58.7891 -16.5039 C 56.3965 -16.5039 54.8828 -17.8223 54.1016 -20.7031 L 52.5391 -25.4883 L 40.625 -25.4883 L 39.0137 -20.7031 C 38.2812 -17.8223 36.7188 -16.5039 34.375 -16.5039 Z M 42.4805 -32.4219 L 50.6348 -32.4219 L 46.7773 -45.5078 L 46.3379 -45.5078 Z"/>
  </g>
  <g id="Bold-S" transform="matrix(1 0 0 1 2293.01 696)">
   <path d="M 23.9746 2.00195 L 69.9219 2.00195 C 79.0527 2.00195 84.1797 -3.07617 84.1797 -12.1582 L 84.1797 -58.252 C 84.1797 -67.334 79.0527 -72.4121 69.9219 -72.4121 L 23.9746 -72.4121 C 14.8926 -72.4121 9.76562 -67.334 9.76562 -58.252 L 9.76562 -12.1582 C 9.76562 -3.07617 14.8926 2.00195 23.9746 2.00195 Z M 35.6445 -16.6504 C 32.3242 -16.6504 30.3711 -18.5547 30.3711 -21.7285 C 30.3711 -22.6074 30.6152 -23.7793 31.1035 -25.3418 L 38.5254 -47.168 C 40.0391 -51.8555 42.8223 -54.0039 47.168 -54.0039 C 51.6113 -54.0039 54.4922 -51.8066 56.0059 -47.168 L 63.4766 -25.3418 C 63.916 -23.7793 64.209 -22.6074 64.209 -21.7285 C 64.209 -18.5547 62.207 -16.6504 58.9355 -16.6504 C 56.1035 -16.6504 54.3457 -18.2617 53.6133 -21.5332 L 52.6367 -24.4629 L 41.8945 -24.4629 L 40.9668 -21.5332 C 40.1855 -18.2617 38.4277 -16.6504 35.6445 -16.6504 Z M 43.8477 -32.2754 L 50.6836 -32.2754 L 47.4609 -44.3848 L 47.0703 -44.3848 Z"/>
  </g>
  <g id="Heavy-S" transform="matrix(1 0 0 1 2588.86 696)">
   <path d="M 24.9023 2.83203 L 70.7031 2.83203 C 80.2246 2.83203 85.8887 -2.7832 85.8887 -12.3047 L 85.8887 -58.1055 C 85.8887 -67.627 80.2246 -73.2422 70.7031 -73.2422 L 24.9023 -73.2422 C 15.3809 -73.2422 9.76562 -67.627 9.76562 -58.1055 L 9.76562 -12.3047 C 9.76562 -2.7832 15.3809 2.83203 24.9023 2.83203 Z M 37.5 -16.8945 C 33.4961 -16.8945 31.2012 -19.0918 31.2012 -22.9492 C 31.2012 -23.9258 31.543 -25.3418 32.0801 -27.2461 L 37.6465 -44.8242 C 39.502 -50.7324 42.8223 -53.418 48.1445 -53.418 C 53.6133 -53.418 57.1289 -50.6836 58.9355 -44.8242 L 64.502 -27.2461 C 65.0391 -25.3418 65.3809 -23.9258 65.3809 -22.9492 C 65.3809 -19.0918 63.0859 -16.8945 59.1309 -16.8945 C 55.6641 -16.8945 53.6133 -18.8477 52.832 -22.8027 L 52.7832 -23.0469 L 43.8477 -23.0469 L 43.75 -22.8027 C 42.9688 -18.8477 40.918 -16.8945 37.5 -16.8945 Z M 45.8008 -32.0801 L 50.7812 -32.0801 L 48.4863 -42.7734 L 48.0957 -42.7734 Z"/>
  </g>
  <g id="Black-S" transform="matrix(1 0 0 1 2884.82 696)">
   <path d="M 25.7324 3.61328 L 71.4355 3.61328 C 81.2988 3.61328 87.4023 -2.49023 87.4023 -12.4023 L 87.4023 -58.0078 C 87.4023 -67.9199 81.2988 -74.0234 71.4355 -74.0234 L 25.7324 -74.0234 C 15.8203 -74.0234 9.76562 -67.9199 9.76562 -58.0078 L 9.76562 -12.4023 C 9.76562 -2.49023 15.8203 3.61328 25.7324 3.61328 Z M 39.1602 -17.0898 C 34.5703 -17.0898 31.9336 -19.5801 31.9336 -24.0234 C 31.9336 -25.0977 32.3242 -26.7578 32.9102 -28.9062 L 36.8164 -42.7734 C 39.0137 -49.7559 42.8223 -52.9297 49.0234 -52.9297 C 55.4199 -52.9297 59.4727 -49.707 61.5723 -42.7734 L 65.4785 -28.9062 C 66.0645 -26.7578 66.4551 -25.0977 66.4551 -24.0234 C 66.4551 -19.5801 63.8672 -17.0898 59.3262 -17.0898 C 56.0059 -17.0898 53.8574 -18.6523 52.7344 -21.7285 L 45.6543 -21.7285 C 45.8984 -22.3633 46.0938 -23.0957 46.2402 -23.9258 L 45.5078 -21.7285 L 45.6543 -21.7285 C 44.5801 -18.6523 42.3828 -17.0898 39.1602 -17.0898 Z M 47.5586 -31.8848 L 50.8301 -31.8848 L 49.3652 -41.3086 L 49.0234 -41.3086 Z M 52.1484 -23.9258 C 52.2949 -23.0957 52.4902 -22.3633 52.7344 -21.7285 L 52.8809 -21.7285 Z"/>
  </g>
  <g id="Ultralight-M" transform="matrix(1 0 0 1 504.535 1126)">
   <path d="M 25 7.56836 L 85.3516 7.56836 C 93.5547 7.56836 97.9004 3.125 97.9004 -4.98047 L 97.9004 -65.2832 C 97.9004 -73.3887 93.5547 -77.832 85.3516 -77.832 L 25 -77.832 C 16.7969 -77.832 12.4512 -73.4863 12.4512 -65.2832 L 12.4512 -4.98047 C 12.4512 3.22266 16.7969 7.56836 25 7.56836 Z M 38.4277 -12.3047 C 37.5488 -12.3047 37.0117 -12.7441 37.0117 -13.4766 C 37.0117 -13.7695 37.1094 -13.916 37.207 -14.2578 L 53.4668 -56.8359 C 53.7598 -57.666 54.2969 -58.1055 55.1758 -58.1055 C 56.0059 -58.1055 56.543 -57.666 56.8359 -56.8359 L 73.0957 -14.2578 C 73.1934 -13.916 73.291 -13.7695 73.291 -13.4277 C 73.291 -12.8418 72.6562 -12.3047 72.0215 -12.3047 C 71.1426 -12.3047 70.8496 -12.6465 70.5566 -13.4277 L 65.2832 -27.3926 L 45.0195 -27.3926 L 39.7461 -13.4277 C 39.4531 -12.5977 39.1602 -12.3047 38.4277 -12.3047 Z M 45.9961 -29.9316 L 64.3066 -29.9316 L 55.2246 -53.8574 L 55.0781 -53.8574 Z"/>
  </g>
  <g id="Thin-M" transform="matrix(1 0 0 1 800.734 1126)">
   <path d="M 25.6348 8.05664 L 85.7422 8.05664 C 94.3848 8.05664 98.9258 3.4668 98.9258 -5.0293 L 98.9258 -65.2344 C 98.9258 -73.7305 94.3848 -78.3691 85.7422 -78.3691 L 25.6348 -78.3691 C 16.9922 -78.3691 12.4512 -73.877 12.4512 -65.2344 L 12.4512 -5.0293 C 12.4512 3.56445 16.9922 8.05664 25.6348 8.05664 Z M 38.916 -12.0605 C 37.7441 -12.0605 36.9629 -12.7441 36.9629 -13.7695 C 36.9629 -14.209 37.0605 -14.4531 37.207 -14.9902 L 53.0273 -56.6895 C 53.5156 -57.9102 54.3457 -58.5449 55.6641 -58.5449 C 56.9824 -58.5449 57.8125 -57.9102 58.252 -56.6895 L 74.0723 -14.9902 C 74.2676 -14.4531 74.3652 -14.209 74.3652 -13.7207 C 74.3652 -12.793 73.5352 -12.0605 72.5098 -12.0605 C 71.4355 -12.0605 70.8984 -12.5488 70.5078 -13.6719 L 65.5762 -26.9531 L 45.752 -26.9531 L 40.8203 -13.6719 C 40.3809 -12.5 39.8926 -12.0605 38.916 -12.0605 Z M 46.9727 -30.3223 L 64.3555 -30.3223 L 55.8105 -53.3203 L 55.5176 -53.3203 Z"/>
  </g>
  <g id="Light-M" transform="matrix(1 0 0 1 1096.47 1126)">
   <path d="M 26.8555 9.0332 L 86.4746 9.0332 C 96.0449 9.0332 100.879 4.15039 100.879 -5.22461 L 100.879 -65.0879 C 100.879 -74.5117 96.0449 -79.3945 86.4746 -79.3945 L 26.8555 -79.3945 C 17.334 -79.3945 12.4512 -74.5605 12.4512 -65.0879 L 12.4512 -5.22461 C 12.4512 4.19922 17.334 9.0332 26.8555 9.0332 Z M 39.8438 -11.5723 C 38.0371 -11.5723 36.8652 -12.6953 36.8652 -14.3555 C 36.8652 -14.9902 36.9629 -15.5273 37.2559 -16.4062 L 52.2949 -56.3965 C 53.0273 -58.4473 54.4922 -59.4727 56.6406 -59.4727 C 58.7891 -59.4727 60.2539 -58.4473 61.0352 -56.3965 L 76.0254 -16.4062 C 76.3184 -15.5273 76.4648 -14.9902 76.4648 -14.3066 C 76.4648 -12.7441 75.2441 -11.5723 73.5352 -11.5723 C 71.9727 -11.5723 71.0449 -12.3047 70.4102 -14.1602 L 66.1621 -26.0742 L 47.168 -26.0742 L 42.9199 -14.1602 C 42.2852 -12.3047 41.3086 -11.5723 39.8438 -11.5723 Z M 48.877 -31.0059 L 64.4531 -31.0059 L 56.8848 -52.2461 L 56.4453 -52.2461 Z"/>
  </g>
  <g id="Regular-M" transform="matrix(1 0 0 1 1392.42 1126)">
   <path d="M 27.7832 9.76562 L 87.0605 9.76562 C 97.2656 9.76562 102.344 4.6875 102.344 -5.37109 L 102.344 -64.9902 C 102.344 -75.0488 97.2656 -80.127 87.0605 -80.127 L 27.7832 -80.127 C 17.627 -80.127 12.4512 -75.0977 12.4512 -64.9902 L 12.4512 -5.37109 C 12.4512 4.73633 17.627 9.76562 27.7832 9.76562 Z M 40.5762 -11.2305 C 38.2812 -11.2305 36.7676 -12.6465 36.7676 -14.7949 C 36.7676 -15.5762 36.9141 -16.3574 37.3047 -17.4316 L 51.709 -56.1523 C 52.6855 -58.8379 54.5898 -60.2051 57.373 -60.2051 C 60.2051 -60.2051 62.1094 -58.8379 63.1348 -56.1523 L 77.4902 -17.4316 C 77.8809 -16.3574 78.0273 -15.5762 78.0273 -14.7461 C 78.0273 -12.6953 76.5625 -11.2305 74.2676 -11.2305 C 72.4121 -11.2305 71.0938 -12.1582 70.3125 -14.502 L 66.6016 -25.4395 L 48.2422 -25.4395 L 44.5312 -14.502 C 43.7012 -12.1582 42.4316 -11.2305 40.5762 -11.2305 Z M 50.293 -31.5918 L 64.502 -31.5918 L 57.666 -51.416 L 57.1289 -51.416 Z"/>
  </g>
  <g id="Medium-M" transform="matrix(1 0 0 1 1688.45 1126)">
   <path d="M 28.5645 10.4492 L 87.6465 10.4492 C 98.2422 10.4492 103.711 4.98047 103.711 -5.46875 L 103.711 -64.8926 C 103.711 -75.3418 98.2422 -80.8105 87.6465 -80.8105 L 28.5645 -80.8105 C 17.9688 -80.8105 12.4512 -75.3906 12.4512 -64.8926 L 12.4512 -5.46875 C 12.4512 4.98047 17.9688 10.4492 28.5645 10.4492 Z M 41.9434 -11.3281 C 39.1113 -11.3281 37.3535 -13.0371 37.3535 -15.6738 C 37.3535 -16.5527 37.5488 -17.5293 37.9883 -18.8965 L 51.0254 -54.4922 C 52.2461 -58.1055 54.5898 -59.8633 58.1543 -59.8633 C 61.7676 -59.8633 64.1602 -58.1055 65.4297 -54.4922 L 78.418 -18.8965 C 78.8574 -17.5293 79.0527 -16.5527 79.0527 -15.6738 C 79.0527 -13.0371 77.2949 -11.3281 74.5117 -11.3281 C 72.168 -11.3281 70.6055 -12.5488 69.7754 -15.4297 L 66.748 -24.3652 L 49.707 -24.3652 L 46.6309 -15.4297 C 45.8008 -12.5488 44.2871 -11.3281 41.9434 -11.3281 Z M 51.8555 -31.4941 L 64.5508 -31.4941 L 58.4473 -50.1465 L 57.959 -50.1465 Z"/>
  </g>
  <g id="Semibold-M" transform="matrix(1 0 0 1 1984.65 1126)">
   <path d="M 29.1016 10.9863 L 88.1348 10.9863 C 98.9746 10.9863 104.785 5.17578 104.785 -5.56641 L 104.785 -64.8438 C 104.785 -75.5859 98.9746 -81.3477 88.1348 -81.3477 L 29.1016 -81.3477 C 18.3105 -81.3477 12.4512 -75.5859 12.4512 -64.8438 L 12.4512 -5.56641 C 12.4512 5.22461 18.3105 10.9863 29.1016 10.9863 Z M 42.9688 -11.4258 C 39.7461 -11.4258 37.793 -13.3301 37.793 -16.3574 C 37.793 -17.334 38.0371 -18.457 38.5254 -19.9707 L 50.4883 -53.2715 C 51.9531 -57.5684 54.5898 -59.6191 58.7402 -59.6191 C 62.9395 -59.6191 65.7227 -57.5195 67.1875 -53.2715 L 79.1504 -19.9707 C 79.5898 -18.457 79.834 -17.334 79.834 -16.3574 C 79.834 -13.3301 77.8809 -11.4258 74.707 -11.4258 C 71.9727 -11.4258 70.2148 -12.8906 69.3359 -16.1621 L 66.8457 -23.4863 L 50.8301 -23.4863 L 48.291 -16.1621 C 47.4121 -12.8906 45.7031 -11.4258 42.9688 -11.4258 Z M 53.0273 -31.4453 L 64.5996 -31.4453 L 59.082 -49.2188 L 58.5449 -49.2188 Z"/>
  </g>
  <g id="Bold-M" transform="matrix(1 0 0 1 2280.65 1126)">
   <path d="M 29.8828 11.6699 L 88.7207 11.6699 C 100 11.6699 106.152 5.46875 106.152 -5.66406 L 106.152 -64.6973 C 106.152 -75.8789 100 -82.0312 88.7207 -82.0312 L 29.8828 -82.0312 C 18.6523 -82.0312 12.4512 -75.8789 12.4512 -64.6973 L 12.4512 -5.66406 C 12.4512 5.51758 18.6523 11.6699 29.8828 11.6699 Z M 44.3848 -11.5234 C 40.625 -11.5234 38.3789 -13.7207 38.3789 -17.2852 C 38.3789 -18.3105 38.6719 -19.6289 39.209 -21.4355 L 49.7559 -51.6113 C 51.5137 -56.8359 54.6387 -59.2773 59.5215 -59.2773 C 64.502 -59.2773 67.7734 -56.7871 69.4824 -51.6113 L 80.0781 -21.4355 C 80.6152 -19.6289 80.9082 -18.3105 80.9082 -17.2852 C 80.9082 -13.7207 78.6133 -11.5234 74.9023 -11.5234 C 71.6797 -11.5234 69.7266 -13.2812 68.7988 -17.041 L 66.9922 -22.4121 L 52.2949 -22.4121 L 50.4395 -17.041 C 49.5605 -13.2812 47.5586 -11.5234 44.3848 -11.5234 Z M 54.5898 -31.3965 L 64.6484 -31.3965 L 59.8633 -47.9492 L 59.375 -47.9492 Z"/>
  </g>
  <g id="Heavy-M" transform="matrix(1 0 0 1 2576.36 1126)">
   <path d="M 31.0059 12.6465 L 89.6484 12.6465 C 101.416 12.6465 108.154 5.9082 108.154 -5.81055 L 108.154 -64.5508 C 108.154 -76.2695 101.416 -83.0566 89.6484 -83.0566 L 31.0059 -83.0566 C 19.2383 -83.0566 12.4512 -76.3184 12.4512 -64.5508 L 12.4512 -5.81055 C 12.4512 5.9082 19.2383 12.6465 31.0059 12.6465 Z M 46.4355 -11.7188 C 41.8945 -11.7188 39.209 -14.2578 39.209 -18.6035 C 39.209 -19.7754 39.5996 -21.3867 40.1855 -23.5352 L 48.7793 -49.2188 C 50.8789 -55.8105 54.6387 -58.7891 60.6445 -58.7891 C 66.7969 -58.7891 70.8008 -55.7617 72.8516 -49.2188 L 81.3965 -23.5352 C 82.0312 -21.3867 82.4219 -19.7754 82.4219 -18.6035 C 82.4219 -14.2578 79.7363 -11.7188 75.2441 -11.7188 C 71.3379 -11.7188 68.9453 -13.916 68.0176 -18.4082 L 67.1875 -20.8008 L 54.3945 -20.8008 L 53.6133 -18.4082 C 52.6367 -13.916 50.293 -11.7188 46.4355 -11.7188 Z M 56.8848 -31.2988 L 64.7461 -31.2988 L 61.0352 -46.1426 L 60.5469 -46.1426 Z"/>
  </g>
  <g id="Black-M" transform="matrix(1 0 0 1 2872.19 1126)">
   <path d="M 31.9824 13.5742 L 90.4297 13.5742 C 102.686 13.5742 109.961 6.29883 109.961 -5.95703 L 109.961 -64.4043 C 109.961 -76.6602 102.686 -83.9355 90.4297 -83.9355 L 31.9824 -83.9355 C 19.7266 -83.9355 12.4512 -76.6602 12.4512 -64.4043 L 12.4512 -5.95703 C 12.4512 6.29883 19.7266 13.5742 31.9824 13.5742 Z M 48.2422 -11.8652 C 42.9688 -11.8652 39.9414 -14.7461 39.9414 -19.7754 C 39.9414 -21.0449 40.4297 -22.9492 41.1133 -25.3906 L 47.8516 -47.0703 C 50.293 -54.834 54.6387 -58.3984 61.6699 -58.3984 C 68.8477 -58.3984 73.4863 -54.7852 75.8789 -47.0703 L 82.6172 -25.3906 C 83.3008 -22.9492 83.7402 -21.0449 83.7402 -19.7754 C 83.7402 -14.7461 80.7129 -11.8652 75.5371 -11.8652 C 71.0938 -11.8652 68.4082 -14.3555 67.334 -19.3359 L 56.3477 -19.3359 L 56.3965 -19.6289 L 56.3477 -19.3359 C 55.4199 -14.4531 52.6855 -11.8652 48.2422 -11.8652 Z M 58.8867 -31.2012 L 64.8438 -31.2012 L 62.1094 -44.5312 L 61.6211 -44.5312 Z M 67.2852 -19.6289 C 67.334 -19.5312 67.334 -19.4336 67.334 -19.3359 L 67.3828 -19.3359 Z"/>
  </g>
  <g id="Ultralight-L" transform="matrix(1 0 0 1 488.739 1556)">
   <path d="M 31.9824 19.7754 L 109.961 19.7754 C 120.361 19.7754 125.879 14.0625 125.879 3.85742 L 125.879 -74.0723 C 125.879 -84.2773 120.361 -89.9902 109.961 -89.9902 L 31.9824 -89.9902 C 21.6309 -89.9902 16.0645 -84.4727 16.0645 -74.0723 L 16.0645 3.85742 C 16.0645 14.2578 21.6309 19.7754 31.9824 19.7754 Z M 49.3652 -5.71289 C 48.3887 -5.71289 47.8027 -6.25 47.8027 -7.03125 C 47.8027 -7.37305 47.8516 -7.4707 47.998 -7.86133 L 69.1406 -63.1836 C 69.4336 -64.0625 70.0195 -64.5508 70.9961 -64.5508 C 71.875 -64.5508 72.4121 -64.0625 72.7539 -63.1836 L 93.8965 -7.86133 C 93.9941 -7.4707 94.0918 -7.37305 94.0918 -6.98242 C 94.0918 -6.34766 93.3594 -5.71289 92.6758 -5.71289 C 91.6992 -5.71289 91.4062 -6.15234 91.0645 -6.98242 L 84.1309 -25.293 L 57.7637 -25.293 L 50.8301 -6.98242 C 50.4883 -6.05469 50.1953 -5.71289 49.3652 -5.71289 Z M 58.8867 -28.2227 L 82.959 -28.2227 L 71.0449 -59.5215 L 70.8496 -59.5215 Z"/>
  </g>
  <g id="Thin-L" transform="matrix(1 0 0 1 784.889 1556)">
   <path d="M 32.7148 20.3613 L 110.4 20.3613 C 121.289 20.3613 127.002 14.4531 127.002 3.75977 L 127.002 -73.9746 C 127.002 -84.7168 121.289 -90.5762 110.4 -90.5762 L 32.7148 -90.5762 C 21.8262 -90.5762 16.0645 -84.8633 16.0645 -73.9746 L 16.0645 3.75977 C 16.0645 14.6484 21.8262 20.3613 32.7148 20.3613 Z M 49.9023 -5.46875 C 48.584 -5.46875 47.7539 -6.20117 47.7539 -7.37305 C 47.7539 -7.86133 47.8516 -8.10547 48.0469 -8.64258 L 68.7012 -62.9883 C 69.1895 -64.3555 70.0684 -65.0391 71.5332 -65.0391 C 72.9004 -65.0391 73.8281 -64.3555 74.3164 -62.9883 L 94.9707 -8.64258 C 95.166 -8.10547 95.2637 -7.86133 95.2637 -7.27539 C 95.2637 -6.29883 94.3359 -5.46875 93.2617 -5.46875 C 91.9922 -5.46875 91.4551 -6.00586 91.0156 -7.27539 L 84.4727 -24.8047 L 58.5449 -24.8047 L 52.002 -7.27539 C 51.5625 -5.95703 51.0254 -5.46875 49.9023 -5.46875 Z M 60.0098 -28.6621 L 83.0078 -28.6621 L 71.6309 -58.8867 L 71.3867 -58.8867 Z"/>
  </g>
  <g id="Light-L" transform="matrix(1 0 0 1 1080.5 1556)">
   <path d="M 34.082 21.4355 L 111.23 21.4355 C 123.096 21.4355 129.199 15.2344 129.199 3.56445 L 129.199 -73.8281 C 129.199 -85.5469 123.096 -91.6992 111.23 -91.6992 L 34.082 -91.6992 C 22.2168 -91.6992 16.0645 -85.6445 16.0645 -73.8281 L 16.0645 3.56445 C 16.0645 15.3809 22.2168 21.4355 34.082 21.4355 Z M 50.9277 -4.93164 C 48.9258 -4.93164 47.6074 -6.15234 47.6074 -8.00781 C 47.6074 -8.74023 47.7539 -9.27734 48.0957 -10.2051 L 67.8223 -62.6465 C 68.6523 -64.9414 70.2148 -66.0645 72.6074 -66.0645 C 74.9512 -66.0645 76.5625 -64.9414 77.3926 -62.6465 L 97.168 -10.2051 C 97.4609 -9.27734 97.6074 -8.74023 97.6074 -7.95898 C 97.6074 -6.25 96.2402 -4.93164 94.3848 -4.93164 C 92.627 -4.93164 91.6016 -5.76172 90.8691 -7.8125 L 85.1074 -23.8281 L 60.1562 -23.8281 L 54.3457 -7.8125 C 53.6621 -5.71289 52.6367 -4.93164 50.9277 -4.93164 Z M 62.1094 -29.4434 L 83.1055 -29.4434 L 72.8516 -57.666 L 72.4121 -57.666 Z"/>
  </g>
  <g id="Regular-L" transform="matrix(1 0 0 1 1376.36 1556)">
   <path d="M 35.1074 22.2168 L 111.865 22.2168 C 124.512 22.2168 130.859 15.8691 130.859 3.41797 L 130.859 -73.7305 C 130.859 -86.1816 124.512 -92.5293 111.865 -92.5293 L 35.1074 -92.5293 C 22.5098 -92.5293 16.0645 -86.2305 16.0645 -73.7305 L 16.0645 3.41797 C 16.0645 15.918 22.5098 22.2168 35.1074 22.2168 Z M 51.7578 -4.54102 C 49.1699 -4.54102 47.5098 -6.15234 47.5098 -8.49609 C 47.5098 -9.375 47.7051 -10.2051 48.0957 -11.4258 L 67.1875 -62.4023 C 68.2617 -65.3809 70.3613 -66.8457 73.4375 -66.8457 C 76.5137 -66.8457 78.6133 -65.3809 79.7363 -62.4023 L 98.8281 -11.4258 C 99.2188 -10.2051 99.4141 -9.375 99.4141 -8.44727 C 99.4141 -6.15234 97.7051 -4.54102 95.2148 -4.54102 C 93.0664 -4.54102 91.6992 -5.56641 90.7715 -8.20312 L 85.5469 -23.1445 L 61.377 -23.1445 L 56.1523 -8.20312 C 55.2246 -5.56641 53.8574 -4.54102 51.7578 -4.54102 Z M 63.7207 -30.0781 L 83.2031 -30.0781 L 73.7305 -56.7871 L 73.1445 -56.7871 Z"/>
  </g>
  <g id="Medium-L" transform="matrix(1 0 0 1 1672.31 1556)">
   <path d="M 35.9863 22.998 L 112.549 22.998 C 125.635 22.998 132.422 16.2109 132.422 3.27148 L 132.422 -73.6328 C 132.422 -86.5234 125.635 -93.3105 112.549 -93.3105 L 35.9863 -93.3105 C 22.9004 -93.3105 16.0645 -86.5723 16.0645 -73.6328 L 16.0645 3.27148 C 16.0645 16.2598 22.9004 22.998 35.9863 22.998 Z M 53.1738 -4.58984 C 50 -4.58984 48.0469 -6.49414 48.0469 -9.42383 C 48.0469 -10.4004 48.2422 -11.4258 48.7305 -12.9395 L 66.4551 -60.8398 C 67.8223 -64.7949 70.3613 -66.6992 74.2676 -66.6992 C 78.2227 -66.6992 80.8594 -64.7949 82.2266 -60.8398 L 99.9512 -12.9395 C 100.439 -11.4258 100.635 -10.4004 100.635 -9.375 C 100.635 -6.49414 98.6328 -4.58984 95.6055 -4.58984 C 92.9199 -4.58984 91.2598 -5.9082 90.2832 -9.13086 L 85.791 -22.0215 L 62.8906 -22.0215 L 58.3984 -9.13086 C 57.4707 -5.9082 55.7617 -4.58984 53.1738 -4.58984 Z M 65.4297 -30.127 L 83.252 -30.127 L 74.6582 -55.4688 L 74.0234 -55.4688 Z"/>
  </g>
  <g id="Semibold-L" transform="matrix(1 0 0 1 1968.41 1556)">
   <path d="M 36.6699 23.584 L 113.037 23.584 C 126.514 23.584 133.594 16.5039 133.594 3.17383 L 133.594 -73.5352 C 133.594 -86.8164 126.514 -93.9453 113.037 -93.9453 L 36.6699 -93.9453 C 23.2422 -93.9453 16.0645 -86.8652 16.0645 -73.5352 L 16.0645 3.17383 C 16.0645 16.5527 23.2422 23.584 36.6699 23.584 Z M 54.248 -4.58984 C 50.6348 -4.58984 48.4375 -6.73828 48.4375 -10.1074 C 48.4375 -11.1816 48.6816 -12.4023 49.2188 -14.1113 L 65.8691 -59.668 C 67.4805 -64.3555 70.4102 -66.6016 74.9512 -66.6016 C 79.541 -66.6016 82.6172 -64.3066 84.1797 -59.668 L 100.83 -14.1113 C 101.367 -12.4023 101.611 -11.1816 101.611 -10.0586 C 101.611 -6.73828 99.3652 -4.58984 95.8984 -4.58984 C 92.8223 -4.58984 90.918 -6.20117 89.8926 -9.81445 L 85.9375 -21.1426 L 64.1113 -21.1426 L 60.1562 -9.81445 C 59.1309 -6.15234 57.2266 -4.58984 54.248 -4.58984 Z M 66.748 -30.127 L 83.3008 -30.127 L 75.3418 -54.4922 L 74.707 -54.4922 Z"/>
  </g>
  <g id="Bold-L" transform="matrix(1 0 0 1 2264.34 1556)">
   <path d="M 37.5488 24.3652 L 113.721 24.3652 C 127.686 24.3652 135.205 16.8945 135.205 3.07617 L 135.205 -73.3887 C 135.205 -87.207 127.686 -94.7266 113.721 -94.7266 L 37.5488 -94.7266 C 23.6328 -94.7266 16.0645 -87.2559 16.0645 -73.3887 L 16.0645 3.07617 C 16.0645 16.8945 23.6328 24.3652 37.5488 24.3652 Z M 55.6641 -4.63867 C 51.4648 -4.63867 48.9258 -7.08008 48.9258 -11.0352 C 48.9258 -12.207 49.2676 -13.6719 49.8535 -15.625 L 65.0879 -58.1055 C 66.9922 -63.7695 70.459 -66.4062 75.7812 -66.4062 C 81.2988 -66.4062 84.8633 -63.7207 86.7188 -58.1055 L 101.953 -15.625 C 102.588 -13.6719 102.881 -12.207 102.881 -10.9863 C 102.881 -7.08008 100.342 -4.63867 96.2402 -4.63867 C 92.6758 -4.63867 90.4297 -6.54297 89.3555 -10.7422 L 86.1816 -19.9707 L 65.6738 -19.9707 L 62.4512 -10.7422 C 61.377 -6.54297 59.1797 -4.63867 55.6641 -4.63867 Z M 68.457 -30.1758 L 83.3496 -30.1758 L 76.2207 -53.1738 L 75.5859 -53.1738 Z"/>
  </g>
  <g id="Heavy-L" transform="matrix(1 0 0 1 2559.91 1556)">
   <path d="M 38.8184 25.4883 L 114.697 25.4883 C 129.346 25.4883 137.451 17.4316 137.451 2.88086 L 137.451 -73.2422 C 137.451 -87.793 129.346 -95.8496 114.697 -95.8496 L 38.8184 -95.8496 C 24.2188 -95.8496 16.0645 -87.793 16.0645 -73.2422 L 16.0645 2.88086 C 16.0645 17.4316 24.2188 25.4883 38.8184 25.4883 Z M 57.7148 -4.6875 C 52.6855 -4.6875 49.6582 -7.56836 49.6582 -12.3535 C 49.6582 -13.7207 50.0977 -15.4785 50.7812 -17.8711 L 64.0137 -55.8594 C 66.3086 -62.8906 70.5078 -66.2109 77.0508 -66.2109 C 83.7891 -66.2109 88.1836 -62.8906 90.4297 -55.8594 L 103.662 -17.8711 C 104.346 -15.4785 104.736 -13.7207 104.736 -12.3535 C 104.736 -7.56836 101.758 -4.6875 96.7773 -4.6875 C 92.4805 -4.6875 89.7949 -7.03125 88.623 -12.0605 L 86.4746 -18.3105 L 67.9199 -18.3105 L 65.8203 -12.0605 C 64.6484 -7.03125 61.9629 -4.6875 57.7148 -4.6875 Z M 70.9473 -30.2734 L 83.4473 -30.2734 L 77.5391 -51.2695 L 76.9043 -51.2695 Z"/>
  </g>
  <g id="Black-L" transform="matrix(1 0 0 1 2855.62 1556)">
   <path d="M 39.9902 26.5137 L 115.576 26.5137 C 130.859 26.5137 139.502 17.8711 139.502 2.68555 L 139.502 -73.0957 C 139.502 -88.2812 130.859 -96.875 115.576 -96.875 L 39.9902 -96.875 C 24.7559 -96.875 16.0645 -88.2812 16.0645 -73.0957 L 16.0645 2.68555 C 16.0645 17.8711 24.7559 26.5137 39.9902 26.5137 Z M 59.5703 -4.73633 C 53.7598 -4.73633 50.3418 -8.00781 50.3418 -13.5742 C 50.3418 -15.0391 50.8301 -17.1387 51.6113 -19.873 L 62.9883 -53.8574 C 65.7227 -62.1582 70.5078 -66.0156 78.1738 -66.0156 C 86.0352 -66.0156 91.1133 -62.1094 93.75 -53.8574 L 105.127 -19.873 C 105.908 -17.1387 106.396 -15.0391 106.396 -13.5742 C 106.396 -8.00781 102.979 -4.73633 97.2656 -4.73633 C 92.2852 -4.73633 89.209 -7.4707 87.9395 -13.2812 L 86.7676 -16.8457 L 69.9707 -16.8457 L 68.7988 -13.2812 C 67.5293 -7.4707 64.502 -4.73633 59.5703 -4.73633 Z M 73.1934 -30.3223 L 83.5449 -30.3223 L 78.7109 -49.5605 L 78.0273 -49.5605 Z"/>
  </g>
 </g>
</svg>
