<?xml version="1.0" encoding="UTF-8"?>
<!--Generator: Apple Native CoreSVG 123-->
<!DOCTYPE svg
PUBLIC "-//W3C//DTD SVG 1.1//EN"
       "http://www.w3.org/Graphics/SVG/1.1/DTD/svg11.dtd">
<svg version="1.1" xmlns="http://www.w3.org/2000/svg" xmlns:xlink="http://www.w3.org/1999/xlink" width="3300" height="2200">
 <!--glyph: "uni100196.medium", point size: 100.000000, font version: "Version 15.0d4e20", template writer version: "2"-->
 <g id="Notes">
  <rect height="2200" id="artboard" style="fill:white;opacity:1" width="3300" x="0" y="0"/>
  <line id="" style="fill:none;stroke:black;opacity:1;stroke-width:0.5;" x1="263" x2="3036" y1="292" y2="292"/>
  <text style="stroke:none;fill:black;font-family:-apple-system,&quot;SF Pro Display&quot;,&quot;SF Pro Text&quot;,Helvetica,sans-serif;font-weight:bold;" transform="matrix(1 0 0 1 263 322)">Weight/Scale Variations</text>
  <text style="stroke:none;fill:black;font-family:-apple-system,&quot;SF Pro Display&quot;,&quot;SF Pro Text&quot;,Helvetica,sans-serif;text-anchor:middle;" transform="matrix(1 0 0 1 559.711 322)">Ultralight</text>
  <text style="stroke:none;fill:black;font-family:-apple-system,&quot;SF Pro Display&quot;,&quot;SF Pro Text&quot;,Helvetica,sans-serif;text-anchor:middle;" transform="matrix(1 0 0 1 856.422 322)">Thin</text>
  <text style="stroke:none;fill:black;font-family:-apple-system,&quot;SF Pro Display&quot;,&quot;SF Pro Text&quot;,Helvetica,sans-serif;text-anchor:middle;" transform="matrix(1 0 0 1 1153.13 322)">Light</text>
  <text style="stroke:none;fill:black;font-family:-apple-system,&quot;SF Pro Display&quot;,&quot;SF Pro Text&quot;,Helvetica,sans-serif;text-anchor:middle;" transform="matrix(1 0 0 1 1449.84 322)">Regular</text>
  <text style="stroke:none;fill:black;font-family:-apple-system,&quot;SF Pro Display&quot;,&quot;SF Pro Text&quot;,Helvetica,sans-serif;text-anchor:middle;" transform="matrix(1 0 0 1 1746.56 322)">Medium</text>
  <text style="stroke:none;fill:black;font-family:-apple-system,&quot;SF Pro Display&quot;,&quot;SF Pro Text&quot;,Helvetica,sans-serif;text-anchor:middle;" transform="matrix(1 0 0 1 2043.27 322)">Semibold</text>
  <text style="stroke:none;fill:black;font-family:-apple-system,&quot;SF Pro Display&quot;,&quot;SF Pro Text&quot;,Helvetica,sans-serif;text-anchor:middle;" transform="matrix(1 0 0 1 2339.98 322)">Bold</text>
  <text style="stroke:none;fill:black;font-family:-apple-system,&quot;SF Pro Display&quot;,&quot;SF Pro Text&quot;,Helvetica,sans-serif;text-anchor:middle;" transform="matrix(1 0 0 1 2636.69 322)">Heavy</text>
  <text style="stroke:none;fill:black;font-family:-apple-system,&quot;SF Pro Display&quot;,&quot;SF Pro Text&quot;,Helvetica,sans-serif;text-anchor:middle;" transform="matrix(1 0 0 1 2933.4 322)">Black</text>
  <line id="" style="fill:none;stroke:black;opacity:1;stroke-width:0.5;" x1="263" x2="3036" y1="1903" y2="1903"/>
  <g id="" transform="matrix(1 0 0 1 263 1933)">
   <path d="M 9.24805 0.830078 C 13.5547 0.830078 17.1387 -2.74414 17.1387 -7.05078 C 17.1387 -11.3574 13.5449 -14.9316 9.23828 -14.9316 C 4.94141 -14.9316 1.36719 -11.3574 1.36719 -7.05078 C 1.36719 -2.74414 4.95117 0.830078 9.24805 0.830078 Z M 9.24805 -0.654297 C 5.70312 -0.654297 2.87109 -3.49609 2.87109 -7.05078 C 2.87109 -10.6055 5.69336 -13.4473 9.23828 -13.4473 C 12.793 -13.4473 15.6348 -10.6055 15.6445 -7.05078 C 15.6543 -3.49609 12.8027 -0.654297 9.24805 -0.654297 Z M 9.22852 -3.42773 C 9.69727 -3.42773 9.9707 -3.74023 9.9707 -4.25781 L 9.9707 -6.31836 L 12.1973 -6.31836 C 12.6953 -6.31836 13.0371 -6.57227 13.0371 -7.04102 C 13.0371 -7.51953 12.7148 -7.7832 12.1973 -7.7832 L 9.9707 -7.7832 L 9.9707 -10.0098 C 9.9707 -10.5273 9.69727 -10.8496 9.22852 -10.8496 C 8.75977 -10.8496 8.50586 -10.5078 8.50586 -10.0098 L 8.50586 -7.7832 L 6.29883 -7.7832 C 5.78125 -7.7832 5.44922 -7.51953 5.44922 -7.04102 C 5.44922 -6.57227 5.80078 -6.31836 6.29883 -6.31836 L 8.50586 -6.31836 L 8.50586 -4.25781 C 8.50586 -3.75977 8.75977 -3.42773 9.22852 -3.42773 Z"/>
  </g>
  <g id="" transform="matrix(1 0 0 1 281.506 1933)">
   <path d="M 11.709 2.91016 C 17.1484 2.91016 21.6699 -1.60156 21.6699 -7.05078 C 21.6699 -12.4902 17.1387 -17.0117 11.6992 -17.0117 C 6.25 -17.0117 1.74805 -12.4902 1.74805 -7.05078 C 1.74805 -1.60156 6.25977 2.91016 11.709 2.91016 Z M 11.709 1.25 C 7.09961 1.25 3.41797 -2.44141 3.41797 -7.05078 C 3.41797 -11.6504 7.08984 -15.3516 11.6992 -15.3516 C 16.2988 -15.3516 20 -11.6504 20.0098 -7.05078 C 20.0195 -2.44141 16.3086 1.25 11.709 1.25 Z M 11.6797 -2.41211 C 12.207 -2.41211 12.5195 -2.77344 12.5195 -3.33984 L 12.5195 -6.23047 L 15.5762 -6.23047 C 16.123 -6.23047 16.5039 -6.51367 16.5039 -7.03125 C 16.5039 -7.55859 16.1426 -7.86133 15.5762 -7.86133 L 12.5195 -7.86133 L 12.5195 -10.9277 C 12.5195 -11.5039 12.207 -11.8555 11.6797 -11.8555 C 11.1621 -11.8555 10.8789 -11.4844 10.8789 -10.9277 L 10.8789 -7.86133 L 7.83203 -7.86133 C 7.25586 -7.86133 6.89453 -7.55859 6.89453 -7.03125 C 6.89453 -6.51367 7.28516 -6.23047 7.83203 -6.23047 L 10.8789 -6.23047 L 10.8789 -3.33984 C 10.8789 -2.79297 11.1621 -2.41211 11.6797 -2.41211 Z"/>
  </g>
  <g id="" transform="matrix(1 0 0 1 304.914 1933)">
   <path d="M 14.9707 5.67383 C 21.9336 5.67383 27.6855 -0.078125 27.6855 -7.04102 C 27.6855 -14.0039 21.9238 -19.7559 14.9609 -19.7559 C 7.99805 -19.7559 2.25586 -14.0039 2.25586 -7.04102 C 2.25586 -0.078125 8.00781 5.67383 14.9707 5.67383 Z M 14.9707 3.85742 C 8.92578 3.85742 4.08203 -1.00586 4.08203 -7.04102 C 4.08203 -13.0762 8.91602 -17.9395 14.9609 -17.9395 C 20.9961 -17.9395 25.8594 -13.0762 25.8691 -7.04102 C 25.8789 -1.00586 21.0059 3.85742 14.9707 3.85742 Z M 14.9414 -1.06445 C 15.5176 -1.06445 15.8594 -1.45508 15.8594 -2.06055 L 15.8594 -6.13281 L 20.0977 -6.13281 C 20.6934 -6.13281 21.1133 -6.46484 21.1133 -7.02148 C 21.1133 -7.59766 20.7227 -7.93945 20.0977 -7.93945 L 15.8594 -7.93945 L 15.8594 -12.1875 C 15.8594 -12.8027 15.5176 -13.1934 14.9414 -13.1934 C 14.3848 -13.1934 14.0625 -12.7832 14.0625 -12.1875 L 14.0625 -7.93945 L 9.82422 -7.93945 C 9.20898 -7.93945 8.80859 -7.59766 8.80859 -7.02148 C 8.80859 -6.46484 9.23828 -6.13281 9.82422 -6.13281 L 14.0625 -6.13281 L 14.0625 -2.06055 C 14.0625 -1.47461 14.3848 -1.06445 14.9414 -1.06445 Z"/>
  </g>
  <text style="stroke:none;fill:black;font-family:-apple-system,&quot;SF Pro Display&quot;,&quot;SF Pro Text&quot;,Helvetica,sans-serif;font-weight:bold;" transform="matrix(1 0 0 1 263 1953)">Design Variations</text>
  <text style="stroke:none;fill:black;font-family:-apple-system,&quot;SF Pro Display&quot;,&quot;SF Pro Text&quot;,Helvetica,sans-serif;" transform="matrix(1 0 0 1 263 1971)">Symbols are supported in up to nine weights and three scales.</text>
  <text style="stroke:none;fill:black;font-family:-apple-system,&quot;SF Pro Display&quot;,&quot;SF Pro Text&quot;,Helvetica,sans-serif;" transform="matrix(1 0 0 1 263 1989)">For optimal layout with text and other symbols, vertically align</text>
  <text style="stroke:none;fill:black;font-family:-apple-system,&quot;SF Pro Display&quot;,&quot;SF Pro Text&quot;,Helvetica,sans-serif;" transform="matrix(1 0 0 1 263 2007)">symbols with the adjacent text.</text>
  <rect height="14" id="" style="fill:#00AEEF;stroke:none;opacity:0.4;" width="3" x="776" y="1919"/>
  <g id="" transform="matrix(1 0 0 1 779 1933)">
   <path d="M 10.5273 0 L 12.373 0 L 7.17773 -14.0918 L 5.43945 -14.0918 L 0.244141 0 L 2.08984 0 L 3.50586 -4.0332 L 9.11133 -4.0332 Z M 6.2793 -11.9531 L 6.33789 -11.9531 L 8.59375 -5.52734 L 4.02344 -5.52734 Z"/>
  </g>
  <rect height="14" id="" style="fill:#00AEEF;stroke:none;opacity:0.4;" width="3" x="791.617" y="1919"/>
  <text style="stroke:none;fill:black;font-family:-apple-system,&quot;SF Pro Display&quot;,&quot;SF Pro Text&quot;,Helvetica,sans-serif;font-weight:bold;" transform="matrix(1 0 0 1 776 1953)">Side Bearings</text>
  <text style="stroke:none;fill:black;font-family:-apple-system,&quot;SF Pro Display&quot;,&quot;SF Pro Text&quot;,Helvetica,sans-serif;" transform="matrix(1 0 0 1 776 1971)">Horizontal padding on the left and right side of each symbol</text>
  <text style="stroke:none;fill:black;font-family:-apple-system,&quot;SF Pro Display&quot;,&quot;SF Pro Text&quot;,Helvetica,sans-serif;" transform="matrix(1 0 0 1 776 1989)">can be adjusted by modifying the width of the blue rectangles.</text>
  <text style="stroke:none;fill:black;font-family:-apple-system,&quot;SF Pro Display&quot;,&quot;SF Pro Text&quot;,Helvetica,sans-serif;" transform="matrix(1 0 0 1 776 2007)">Modifications are automatically applied proportionally to all</text>
  <text style="stroke:none;fill:black;font-family:-apple-system,&quot;SF Pro Display&quot;,&quot;SF Pro Text&quot;,Helvetica,sans-serif;" transform="matrix(1 0 0 1 776 2025)">scales and weights.</text>
  <g id="" transform="matrix(1 0 0 1 1289 1933)">
   <path d="M 2.96875 2.35352 L 3.80859 3.19336 C 4.84375 4.22852 6.12305 4.15039 7.19727 2.97852 L 16.1621 -6.82617 C 16.5527 -6.74805 16.9629 -6.8457 17.4902 -7.02148 C 18.1738 -7.25586 18.2715 -7.25586 18.3887 -7.13867 C 18.5352 -7.01172 18.4863 -6.89453 18.2422 -6.25 C 17.8809 -5.33203 17.8125 -4.79492 18.5547 -4.02344 L 19.4238 -3.13477 C 20.2734 -2.24609 21.3281 -2.26562 22.2168 -3.14453 L 25.0586 -5.97656 C 25.9473 -6.86523 25.957 -7.92969 25.0781 -8.7793 L 24.1797 -9.64844 C 23.4082 -10.4004 22.8711 -10.3516 21.9629 -9.98047 C 21.3184 -9.72656 21.2012 -9.6875 21.0645 -9.81445 C 20.9375 -9.93164 20.9473 -10.0391 21.1816 -10.7129 C 21.5332 -11.6895 21.5723 -12.2852 20.752 -13.0957 L 19.3359 -14.5117 C 15.1953 -18.6133 11.2305 -18.7402 7.65625 -15.4395 C 7.08008 -14.9023 6.99219 -14.1504 7.53906 -13.6133 L 7.79297 -13.3594 C 8.22266 -12.9297 8.86719 -12.8418 9.41406 -13.1152 C 11.0645 -13.9453 12.2559 -14.0234 13.457 -12.9785 L 13.0273 -11.416 C 12.8516 -10.8008 12.793 -10.3418 12.9199 -9.93164 L 3.18359 -1.04492 C 2.02148 0.0292969 1.93359 1.32812 2.96875 2.35352 Z M 8.96484 -14.4922 C 8.89648 -14.5703 8.86719 -14.6582 8.99414 -14.7559 C 11.709 -17.2852 15.0391 -16.8457 18.3496 -13.5254 L 19.6973 -12.168 C 20.0879 -11.7773 20.0977 -11.582 19.8828 -10.8691 C 19.6582 -10.127 19.502 -9.53125 20.1465 -8.88672 C 20.8105 -8.22266 21.2891 -8.41797 22.207 -8.63281 C 22.9004 -8.79883 23.0664 -8.79883 23.4473 -8.41797 L 24.0918 -7.77344 C 24.4043 -7.48047 24.4141 -7.32422 24.0723 -6.97266 L 21.2207 -4.13086 C 20.8887 -3.79883 20.7227 -3.79883 20.4297 -4.10156 L 19.7852 -4.75586 C 19.4141 -5.13672 19.4141 -5.30273 19.5801 -6.01562 C 19.7852 -6.88477 19.9805 -7.38281 19.3262 -8.04688 C 18.6719 -8.7207 18.0762 -8.57422 17.3438 -8.33008 C 16.5625 -8.06641 16.3281 -8.06641 15.8984 -8.49609 L 14.6094 -9.78516 C 14.1699 -10.2246 14.1309 -10.4395 14.2676 -10.9082 L 15.0293 -13.3984 C 13.3887 -15.2832 11.4941 -15.5566 9.20898 -14.4434 C 9.11133 -14.3945 9.04297 -14.4141 8.96484 -14.4922 Z M 3.96484 1.36719 C 3.52539 0.927734 3.54492 0.537109 4.14062 -0.00976562 L 13.7402 -8.81836 L 15 -7.55859 L 6.17188 2.02148 C 5.625 2.60742 5.24414 2.64648 4.79492 2.19727 Z"/>
  </g>
  <text style="stroke:none;fill:black;font-family:-apple-system,&quot;SF Pro Display&quot;,&quot;SF Pro Text&quot;,Helvetica,sans-serif;font-weight:bold;" transform="matrix(1 0 0 1 1289 1953)">Exporting</text>
  <text style="stroke:none;fill:black;font-family:-apple-system,&quot;SF Pro Display&quot;,&quot;SF Pro Text&quot;,Helvetica,sans-serif;" transform="matrix(1 0 0 1 1289 1971)">Symbols should be outlined when exporting to ensure the</text>
  <text style="stroke:none;fill:black;font-family:-apple-system,&quot;SF Pro Display&quot;,&quot;SF Pro Text&quot;,Helvetica,sans-serif;" transform="matrix(1 0 0 1 1289 1989)">design is preserved when submitting to Xcode.</text>
  <text id="template-version" style="stroke:none;fill:black;font-family:-apple-system,&quot;SF Pro Display&quot;,&quot;SF Pro Text&quot;,Helvetica,sans-serif;text-anchor:end;" transform="matrix(1 0 0 1 3036 1933)">Template v.0.1</text>
  <text style="stroke:none;fill:black;font-family:-apple-system,&quot;SF Pro Display&quot;,&quot;SF Pro Text&quot;,Helvetica,sans-serif;text-anchor:end;" transform="matrix(1 0 0 1 3036 1951)">Generated from alt</text>
  <text style="stroke:none;fill:black;font-family:-apple-system,&quot;SF Pro Display&quot;,&quot;SF Pro Text&quot;,Helvetica,sans-serif;text-anchor:end;" transform="matrix(1 0 0 1 3036 1969)">Typeset at 100 points</text>
  <text style="stroke:none;fill:black;font-family:-apple-system,&quot;SF Pro Display&quot;,&quot;SF Pro Text&quot;,Helvetica,sans-serif;" transform="matrix(1 0 0 1 263 726)">Small</text>
  <text style="stroke:none;fill:black;font-family:-apple-system,&quot;SF Pro Display&quot;,&quot;SF Pro Text&quot;,Helvetica,sans-serif;" transform="matrix(1 0 0 1 263 1156)">Medium</text>
  <text style="stroke:none;fill:black;font-family:-apple-system,&quot;SF Pro Display&quot;,&quot;SF Pro Text&quot;,Helvetica,sans-serif;" transform="matrix(1 0 0 1 263 1586)">Large</text>
 </g>
 <g id="Guides">
  <g id="H-reference" style="fill:#27AAE1;stroke:none;" transform="matrix(1 0 0 1 339 696)">
   <path d="M 54.9316 0 L 57.666 0 L 30.5664 -70.459 L 28.0762 -70.459 L 0.976562 0 L 3.66211 0 L 12.9395 -24.4629 L 45.7031 -24.4629 Z M 29.1992 -67.0898 L 29.4434 -67.0898 L 44.8242 -26.709 L 13.8184 -26.709 Z"/>
  </g>
  <line id="Baseline-S" style="fill:none;stroke:#27AAE1;opacity:1;stroke-width:0.577;" x1="263" x2="3036" y1="696" y2="696"/>
  <line id="Capline-S" style="fill:none;stroke:#27AAE1;opacity:1;stroke-width:0.577;" x1="263" x2="3036" y1="625.541" y2="625.541"/>
  <g id="H-reference" style="fill:#27AAE1;stroke:none;" transform="matrix(1 0 0 1 339 1126)">
   <path d="M 54.9316 0 L 57.666 0 L 30.5664 -70.459 L 28.0762 -70.459 L 0.976562 0 L 3.66211 0 L 12.9395 -24.4629 L 45.7031 -24.4629 Z M 29.1992 -67.0898 L 29.4434 -67.0898 L 44.8242 -26.709 L 13.8184 -26.709 Z"/>
  </g>
  <line id="Baseline-M" style="fill:none;stroke:#27AAE1;opacity:1;stroke-width:0.577;" x1="263" x2="3036" y1="1126" y2="1126"/>
  <line id="Capline-M" style="fill:none;stroke:#27AAE1;opacity:1;stroke-width:0.577;" x1="263" x2="3036" y1="1055.54" y2="1055.54"/>
  <g id="H-reference" style="fill:#27AAE1;stroke:none;" transform="matrix(1 0 0 1 339 1556)">
   <path d="M 54.9316 0 L 57.666 0 L 30.5664 -70.459 L 28.0762 -70.459 L 0.976562 0 L 3.66211 0 L 12.9395 -24.4629 L 45.7031 -24.4629 Z M 29.1992 -67.0898 L 29.4434 -67.0898 L 44.8242 -26.709 L 13.8184 -26.709 Z"/>
  </g>
  <line id="Baseline-L" style="fill:none;stroke:#27AAE1;opacity:1;stroke-width:0.577;" x1="263" x2="3036" y1="1556" y2="1556"/>
  <line id="Capline-L" style="fill:none;stroke:#27AAE1;opacity:1;stroke-width:0.577;" x1="263" x2="3036" y1="1485.54" y2="1485.54"/>
  <rect height="119.336" id="left-margin" style="fill:#00AEEF;stroke:none;opacity:0.4;" width="9.96094" x="1390.01" y="1030.79"/>
  <rect height="119.336" id="right-margin" style="fill:#00AEEF;stroke:none;opacity:0.4;" width="10.0098" x="1499.67" y="1030.79"/>
 </g>
 <g id="Symbols">
  <g id="Ultralight-S" transform="matrix(1 0 0 1 512.519 696)">
   <path d="M 8.93555 0 L 28.1738 0 C 30.6641 0 32.8613 -1.5625 33.8379 -3.75977 L 61.9141 -66.1133 C 62.5 -67.4316 63.8184 -68.2129 65.4785 -68.2129 L 85.4492 -68.2129 C 86.084 -68.2129 86.5723 -68.7012 86.5723 -69.3359 C 86.5723 -69.9219 86.084 -70.459 85.4492 -70.459 L 65.3809 -70.459 C 62.6953 -70.459 60.7422 -69.1895 59.8633 -67.0898 L 31.6895 -4.63867 C 31.1035 -3.27148 29.6387 -2.24609 28.0762 -2.24609 L 8.93555 -2.24609 C 8.30078 -2.24609 7.8125 -1.75781 7.8125 -1.12305 C 7.8125 -0.488281 8.30078 0 8.93555 0 Z M 55.7129 0 L 85.4492 0 C 86.084 0 86.5723 -0.488281 86.5723 -1.12305 C 86.5723 -1.75781 86.084 -2.24609 85.4492 -2.24609 L 55.7129 -2.24609 C 55.127 -2.24609 54.5898 -1.75781 54.5898 -1.12305 C 54.5898 -0.488281 55.127 0 55.7129 0 Z"/>
  </g>
  <g id="Thin-S" transform="matrix(1 0 0 1 809.328 696)">
   <path d="M 9.61914 -0.0488281 L 28.6621 -0.0488281 C 31.3477 -0.0488281 33.6914 -1.66016 34.7656 -4.10156 L 62.0605 -64.8438 C 62.6465 -66.1621 63.8184 -66.8457 65.4297 -66.8457 L 84.5703 -66.8457 C 85.5957 -66.8457 86.377 -67.6758 86.377 -68.6523 C 86.377 -69.6289 85.5957 -70.4102 84.5703 -70.4102 L 64.8926 -70.4102 C 61.9629 -70.4102 59.9121 -69.043 58.8867 -66.6504 L 31.543 -5.81055 C 30.957 -4.49219 29.6387 -3.61328 28.125 -3.61328 L 9.61914 -3.61328 C 8.64258 -3.61328 7.8125 -2.83203 7.8125 -1.80664 C 7.8125 -0.830078 8.64258 -0.0488281 9.61914 -0.0488281 Z M 56.25 -0.0488281 L 84.5703 -0.0488281 C 85.5957 -0.0488281 86.377 -0.830078 86.377 -1.80664 C 86.377 -2.7832 85.5957 -3.56445 84.5703 -3.56445 L 56.25 -3.56445 C 55.2246 -3.56445 54.4434 -2.7832 54.4434 -1.80664 C 54.4434 -0.830078 55.2246 -0.0488281 56.25 -0.0488281 Z"/>
  </g>
  <g id="Light-S" transform="matrix(1 0 0 1 1106.21 696)">
   <path d="M 10.9863 -0.146484 L 29.541 -0.146484 C 32.7148 -0.146484 35.3027 -1.9043 36.5723 -4.73633 L 62.207 -62.3535 C 62.793 -63.6719 63.8672 -64.2578 65.4297 -64.2578 L 82.9102 -64.2578 C 84.6191 -64.2578 86.0352 -65.625 86.0352 -67.2852 C 86.0352 -68.9941 84.6191 -70.3125 82.9102 -70.3125 L 64.0137 -70.3125 C 60.5957 -70.3125 58.3496 -68.8965 57.0312 -65.8691 L 31.2988 -8.1543 C 30.7129 -6.88477 29.5898 -6.20117 28.2227 -6.20117 L 10.9863 -6.20117 C 9.17969 -6.20117 7.8125 -4.88281 7.8125 -3.17383 C 7.8125 -1.46484 9.17969 -0.146484 10.9863 -0.146484 Z M 57.2266 -0.146484 L 82.9102 -0.146484 C 84.668 -0.146484 86.0352 -1.41602 86.0352 -3.125 C 86.0352 -4.83398 84.668 -6.10352 82.9102 -6.10352 L 57.2266 -6.10352 C 55.4688 -6.10352 54.1016 -4.83398 54.1016 -3.125 C 54.1016 -1.41602 55.4688 -0.146484 57.2266 -0.146484 Z"/>
  </g>
  <g id="Regular-S" transform="matrix(1 0 0 1 1403.04 696)">
   <path d="M 11.9629 -0.195312 L 30.2246 -0.195312 C 33.6914 -0.195312 36.5723 -2.05078 37.9395 -5.22461 L 62.3535 -60.498 C 62.9395 -61.7676 63.8672 -62.3047 65.3809 -62.3047 L 81.6406 -62.3047 C 83.9355 -62.3047 85.791 -64.1113 85.791 -66.3086 C 85.791 -68.5059 83.9355 -70.2637 81.6406 -70.2637 L 63.2812 -70.2637 C 59.5703 -70.2637 57.1289 -68.75 55.6152 -65.2344 L 31.1035 -9.96094 C 30.5176 -8.69141 29.5898 -8.1543 28.2715 -8.1543 L 11.9629 -8.1543 C 9.61914 -8.1543 7.8125 -6.39648 7.8125 -4.15039 C 7.8125 -1.9043 9.61914 -0.195312 11.9629 -0.195312 Z M 57.959 -0.195312 L 81.6406 -0.195312 C 83.9844 -0.195312 85.7422 -1.85547 85.7422 -4.10156 C 85.7422 -6.34766 83.9844 -8.05664 81.6406 -8.05664 L 57.959 -8.05664 C 55.6152 -8.05664 53.8574 -6.34766 53.8574 -4.10156 C 53.8574 -1.85547 55.6152 -0.195312 57.959 -0.195312 Z"/>
  </g>
  <g id="Medium-S" transform="matrix(1 0 0 1 1699.22 696)">
   <path d="M 12.8418 -0.146484 L 30.7617 -0.146484 C 34.5703 -0.146484 37.6465 -2.19727 39.2578 -5.71289 L 63.5254 -59.082 C 64.0625 -60.2051 64.8926 -60.6934 66.2109 -60.6934 L 81.8359 -60.6934 C 84.668 -60.6934 86.8652 -62.793 86.8652 -65.4785 C 86.8652 -68.1641 84.6191 -70.3125 81.8359 -70.3125 L 63.8184 -70.3125 C 59.7168 -70.3125 57.1289 -68.6523 55.3711 -64.7949 L 31.0059 -11.3281 C 30.5176 -10.3027 29.6875 -9.76562 28.5156 -9.76562 L 12.8418 -9.76562 C 10.0098 -9.76562 7.8125 -7.66602 7.8125 -4.98047 C 7.8125 -2.24609 10.0098 -0.146484 12.8418 -0.146484 Z M 58.7402 -0.146484 L 81.8359 -0.146484 C 84.668 -0.146484 86.8164 -2.19727 86.8164 -4.93164 C 86.8164 -7.66602 84.668 -9.7168 81.8359 -9.7168 L 58.7402 -9.7168 C 55.9082 -9.7168 53.8086 -7.66602 53.8086 -4.93164 C 53.8086 -2.19727 55.957 -0.146484 58.7402 -0.146484 Z"/>
  </g>
  <g id="Semibold-S" transform="matrix(1 0 0 1 1995.51 696)">
   <path d="M 13.4766 -0.0976562 L 31.2012 -0.0976562 C 35.2539 -0.0976562 38.5254 -2.24609 40.2832 -6.05469 L 64.4531 -58.0078 C 64.8926 -58.9844 65.6738 -59.4238 66.7969 -59.4238 L 82.0312 -59.4238 C 85.2051 -59.4238 87.6953 -61.8164 87.6953 -64.8926 C 87.6953 -67.9199 85.2051 -70.3613 82.0312 -70.3613 L 64.209 -70.3613 C 59.8633 -70.3613 57.1289 -68.6035 55.1758 -64.4531 L 30.957 -12.4023 C 30.5176 -11.4746 29.7363 -11.0352 28.6621 -11.0352 L 13.4766 -11.0352 C 10.2539 -11.0352 7.8125 -8.64258 7.8125 -5.56641 C 7.8125 -2.49023 10.3027 -0.0976562 13.4766 -0.0976562 Z M 59.375 -0.0976562 L 82.0312 -0.0976562 C 85.2539 -0.0976562 87.6465 -2.44141 87.6465 -5.56641 C 87.6465 -8.64258 85.2539 -10.9863 82.0312 -10.9863 L 59.375 -10.9863 C 56.1523 -10.9863 53.7598 -8.64258 53.7598 -5.56641 C 53.7598 -2.49023 56.2012 -0.0976562 59.375 -0.0976562 Z"/>
  </g>
  <g id="Bold-S" transform="matrix(1 0 0 1 2291.69 696)">
   <path d="M 14.3066 -0.0488281 L 31.7383 -0.0488281 C 36.1328 -0.0488281 39.5996 -2.34375 41.6504 -6.54297 L 65.625 -56.5918 C 66.0156 -57.373 66.6504 -57.7637 67.627 -57.7637 L 82.2754 -57.7637 C 85.9375 -57.7637 88.7695 -60.498 88.7695 -64.0625 C 88.7695 -67.627 85.8887 -70.4102 82.2754 -70.4102 L 64.7461 -70.4102 C 60.0098 -70.4102 57.0801 -68.5059 54.8828 -63.9648 L 30.8594 -13.8184 C 30.4688 -13.0859 29.7852 -12.6953 28.9062 -12.6953 L 14.3066 -12.6953 C 10.5957 -12.6953 7.8125 -9.96094 7.8125 -6.39648 C 7.8125 -2.83203 10.6445 -0.0488281 14.3066 -0.0488281 Z M 60.1562 -0.0488281 L 82.2754 -0.0488281 C 85.9375 -0.0488281 88.7207 -2.7832 88.7207 -6.34766 C 88.7207 -9.96094 85.9375 -12.6465 82.2754 -12.6465 L 60.1562 -12.6465 C 56.4453 -12.6465 53.6621 -9.96094 53.6621 -6.34766 C 53.6621 -2.83203 56.4941 -0.0488281 60.1562 -0.0488281 Z"/>
  </g>
  <g id="Heavy-S" transform="matrix(1 0 0 1 2587.62 696)">
   <path d="M 15.5273 0 L 32.5684 0 C 37.4023 0 41.2598 -2.53906 43.6035 -7.22656 L 67.334 -54.541 C 67.627 -55.0781 68.1641 -55.3711 68.7988 -55.3711 L 82.6172 -55.3711 C 87.0117 -55.3711 90.332 -58.6426 90.332 -62.8906 C 90.332 -67.1387 86.9629 -70.459 82.6172 -70.459 L 65.4785 -70.459 C 60.2539 -70.459 57.0801 -68.3594 54.541 -63.2812 L 30.7129 -15.918 C 30.4688 -15.3809 29.9316 -15.0879 29.248 -15.0879 L 15.5273 -15.0879 C 11.1328 -15.0879 7.8125 -11.8164 7.8125 -7.56836 C 7.8125 -3.32031 11.1816 0 15.5273 0 Z M 61.3281 0 L 82.6172 0 C 87.0117 0 90.332 -3.27148 90.332 -7.56836 C 90.332 -11.8164 87.0117 -15.0879 82.6172 -15.0879 L 61.3281 -15.0879 C 56.8848 -15.0879 53.5645 -11.8164 53.5645 -7.56836 C 53.5645 -3.32031 56.9336 0 61.3281 0 Z"/>
  </g>
  <g id="Black-S" transform="matrix(1 0 0 1 2883.62 696)">
   <path d="M 16.6504 0.0488281 L 33.3008 0.0488281 C 38.5742 0.0488281 42.6758 -2.68555 45.3613 -7.8125 L 68.8965 -52.7344 C 69.043 -53.0273 69.4824 -53.2227 69.873 -53.2227 L 82.9102 -53.2227 C 87.9883 -53.2227 91.748 -56.9336 91.748 -61.8652 C 91.748 -66.748 87.8906 -70.5078 82.9102 -70.5078 L 66.1621 -70.5078 C 60.498 -70.5078 57.0801 -68.2617 54.1992 -62.6953 L 30.6152 -17.7246 C 30.4688 -17.4316 30.0293 -17.2363 29.5898 -17.2363 L 16.6504 -17.2363 C 11.5723 -17.2363 7.8125 -13.4766 7.8125 -8.59375 C 7.8125 -3.75977 11.6699 0.0488281 16.6504 0.0488281 Z M 62.3535 0.0488281 L 82.9102 0.0488281 C 87.9395 0.0488281 91.748 -3.71094 91.748 -8.59375 C 91.748 -13.5254 87.9395 -17.2363 82.9102 -17.2363 L 62.3535 -17.2363 C 57.2754 -17.2363 53.5156 -13.5254 53.5156 -8.59375 C 53.5156 -3.75977 57.373 0.0488281 62.3535 0.0488281 Z"/>
  </g>
  <g id="Ultralight-M" transform="matrix(1 0 0 1 499.433 1126)">
   <path d="M 11.1328 9.7168 L 35.791 9.7168 C 38.8672 9.7168 41.6016 7.8125 42.8711 5.07812 L 79.0039 -75.1465 C 79.7852 -76.8066 81.4453 -77.832 83.5938 -77.832 L 109.375 -77.832 C 110.059 -77.832 110.596 -78.3691 110.596 -79.0039 C 110.596 -79.6875 110.059 -80.1758 109.375 -80.1758 L 83.6426 -80.1758 C 80.2734 -80.1758 77.832 -78.5645 76.7578 -76.0742 L 40.5273 4.29688 C 39.7949 6.05469 37.8418 7.37305 35.8398 7.37305 L 11.1328 7.37305 C 10.498 7.37305 9.96094 7.91016 9.96094 8.54492 C 9.96094 9.22852 10.498 9.7168 11.1328 9.7168 Z M 70.9473 9.7168 L 109.375 9.7168 C 110.059 9.7168 110.596 9.22852 110.596 8.54492 C 110.596 7.91016 110.059 7.37305 109.375 7.37305 L 70.9473 7.37305 C 70.3125 7.37305 69.7754 7.91016 69.7754 8.54492 C 69.7754 9.22852 70.3125 9.7168 70.9473 9.7168 Z"/>
  </g>
  <g id="Thin-M" transform="matrix(1 0 0 1 796.242 1126)">
   <path d="M 11.9141 9.7168 L 36.3281 9.7168 C 39.6484 9.7168 42.5781 7.66602 43.8965 4.73633 L 79.1504 -73.6816 C 79.8828 -75.3906 81.4453 -76.3184 83.5449 -76.3184 L 108.398 -76.3184 C 109.473 -76.3184 110.4 -77.1973 110.4 -78.2227 C 110.4 -79.2969 109.473 -80.1758 108.398 -80.1758 L 83.1055 -80.1758 C 79.4922 -80.1758 76.9531 -78.4668 75.6836 -75.5859 L 40.3809 2.92969 C 39.5996 4.63867 37.8418 5.85938 35.8887 5.85938 L 11.9141 5.85938 C 10.8398 5.85938 9.96094 6.68945 9.96094 7.76367 C 9.96094 8.83789 10.8398 9.7168 11.9141 9.7168 Z M 71.5332 9.7168 L 108.398 9.7168 C 109.521 9.7168 110.352 8.83789 110.352 7.8125 C 110.352 6.73828 109.521 5.85938 108.398 5.85938 L 71.5332 5.85938 C 70.4102 5.85938 69.5801 6.73828 69.5801 7.8125 C 69.5801 8.83789 70.4102 9.7168 71.5332 9.7168 Z"/>
  </g>
  <g id="Light-M" transform="matrix(1 0 0 1 1093.15 1126)">
   <path d="M 13.4277 9.61914 L 37.3047 9.61914 C 41.1621 9.61914 44.3848 7.42188 45.9473 3.95508 L 79.3457 -70.8984 C 80.0781 -72.5586 81.4941 -73.3887 83.4961 -73.3887 L 106.494 -73.3887 C 108.447 -73.3887 109.961 -74.9023 109.961 -76.709 C 109.961 -78.5645 108.447 -80.0781 106.494 -80.0781 L 82.0801 -80.0781 C 77.9297 -80.0781 75.1465 -78.2715 73.584 -74.6582 L 40.0391 0.292969 C 39.3066 1.95312 37.793 2.92969 35.9863 2.92969 L 13.4277 2.92969 C 11.5234 2.92969 9.96094 4.39453 9.96094 6.25 C 9.96094 8.1543 11.5234 9.61914 13.4277 9.61914 Z M 72.6074 9.61914 L 106.494 9.61914 C 108.447 9.61914 109.961 8.1543 109.961 6.29883 C 109.961 4.44336 108.447 2.97852 106.494 2.97852 L 72.6074 2.97852 C 70.7031 2.97852 69.1895 4.44336 69.1895 6.29883 C 69.1895 8.1543 70.7031 9.61914 72.6074 9.61914 Z"/>
  </g>
  <g id="Regular-M" transform="matrix(1 0 0 1 1390.01 1126)">
   <path d="M 14.5996 9.52148 L 38.0859 9.52148 C 42.334 9.52148 45.8008 7.22656 47.4609 3.41797 L 79.4922 -68.7988 C 80.2734 -70.4102 81.4941 -71.1426 83.4961 -71.1426 L 105.078 -71.1426 C 107.617 -71.1426 109.668 -73.1445 109.668 -75.5859 C 109.668 -78.0273 107.617 -79.9805 105.078 -79.9805 L 81.2988 -79.9805 C 76.7578 -79.9805 73.7793 -78.0762 71.9727 -73.9746 L 39.8438 -1.70898 C 39.0625 -0.0976562 37.793 0.683594 36.0352 0.683594 L 14.5996 0.683594 C 12.0117 0.683594 9.96094 2.63672 9.96094 5.12695 C 9.96094 7.61719 12.0117 9.52148 14.5996 9.52148 Z M 73.4863 9.52148 L 105.078 9.52148 C 107.666 9.52148 109.619 7.66602 109.619 5.17578 C 109.619 2.68555 107.666 0.78125 105.078 0.78125 L 73.4863 0.78125 C 70.8984 0.78125 68.8965 2.68555 68.8965 5.17578 C 68.8965 7.66602 70.8984 9.52148 73.4863 9.52148 Z"/>
  </g>
  <g id="Medium-M" transform="matrix(1 0 0 1 1686.2 1126)">
   <path d="M 15.5762 9.57031 L 38.7207 9.57031 C 43.3594 9.57031 47.0703 7.08008 49.0234 2.88086 L 80.7129 -67.0898 C 81.3965 -68.5547 82.5195 -69.2383 84.3262 -69.2383 L 105.127 -69.2383 C 108.252 -69.2383 110.742 -71.6309 110.742 -74.6094 C 110.742 -77.6367 108.252 -80.0293 105.127 -80.0293 L 81.7383 -80.0293 C 76.7578 -80.0293 73.584 -77.9785 71.5332 -73.4375 L 39.6973 -3.36914 C 39.0625 -1.95312 37.8418 -1.2207 36.2793 -1.2207 L 15.5762 -1.2207 C 12.4023 -1.2207 9.96094 1.12305 9.96094 4.15039 C 9.96094 7.22656 12.4023 9.57031 15.5762 9.57031 Z M 74.3652 9.57031 L 105.127 9.57031 C 108.301 9.57031 110.693 7.27539 110.693 4.19922 C 110.693 1.17188 108.301 -1.17188 105.127 -1.17188 L 74.3652 -1.17188 C 71.1914 -1.17188 68.7988 1.17188 68.7988 4.19922 C 68.7988 7.27539 71.2402 9.57031 74.3652 9.57031 Z"/>
  </g>
  <g id="Semibold-M" transform="matrix(1 0 0 1 1982.5 1126)">
   <path d="M 16.3574 9.61914 L 39.2578 9.61914 C 44.1406 9.61914 48.0957 6.98242 50.1953 2.44141 L 81.6895 -65.8203 C 82.2754 -67.1387 83.3496 -67.7246 84.9121 -67.7246 L 105.176 -67.7246 C 108.74 -67.7246 111.572 -70.459 111.572 -73.9258 C 111.572 -77.3438 108.74 -80.0781 105.176 -80.0781 L 82.0312 -80.0781 C 76.8066 -80.0781 73.4863 -77.8809 71.1914 -72.998 L 39.6484 -4.6875 C 39.0137 -3.36914 37.9395 -2.73438 36.4746 -2.73438 L 16.3574 -2.73438 C 12.7441 -2.73438 9.96094 -0.0488281 9.96094 3.4668 C 9.96094 6.88477 12.7441 9.61914 16.3574 9.61914 Z M 75.0977 9.61914 L 105.176 9.61914 C 108.789 9.61914 111.523 6.98242 111.523 3.4668 C 111.523 0 108.789 -2.63672 105.176 -2.63672 L 75.0977 -2.63672 C 71.4844 -2.63672 68.75 0 68.75 3.4668 C 68.75 6.93359 71.4844 9.61914 75.0977 9.61914 Z"/>
  </g>
  <g id="Bold-M" transform="matrix(1 0 0 1 2278.67 1126)">
   <path d="M 17.334 9.61914 L 39.9414 9.61914 C 45.166 9.61914 49.4141 6.83594 51.7578 1.9043 L 82.9102 -64.1113 C 83.4473 -65.2344 84.375 -65.7715 85.7422 -65.7715 L 105.225 -65.7715 C 109.424 -65.7715 112.646 -68.8965 112.646 -72.9492 C 112.646 -76.9531 109.375 -80.0781 105.225 -80.0781 L 82.5195 -80.0781 C 76.8555 -80.0781 73.291 -77.7832 70.7031 -72.4609 L 39.502 -6.34766 C 38.9648 -5.27344 37.9883 -4.6875 36.7188 -4.6875 L 17.334 -4.6875 C 13.1348 -4.6875 9.96094 -1.5625 9.96094 2.49023 C 9.96094 6.49414 13.1836 9.61914 17.334 9.61914 Z M 75.9766 9.61914 L 105.225 9.61914 C 109.424 9.61914 112.598 6.54297 112.598 2.49023 C 112.598 -1.5625 109.424 -4.63867 105.225 -4.63867 L 75.9766 -4.63867 C 71.7773 -4.63867 68.6523 -1.5625 68.6523 2.49023 C 68.6523 6.54297 71.8262 9.61914 75.9766 9.61914 Z"/>
  </g>
  <g id="Heavy-M" transform="matrix(1 0 0 1 2574.6 1126)">
   <path d="M 18.7988 9.7168 L 40.918 9.7168 C 46.6797 9.7168 51.3184 6.64062 54.0527 1.12305 L 84.668 -61.6699 C 85.1074 -62.5 85.8887 -62.9395 86.9629 -62.9395 L 105.322 -62.9395 C 110.352 -62.9395 114.16 -66.6992 114.16 -71.5332 C 114.16 -76.3672 110.303 -80.1758 105.322 -80.1758 L 83.1543 -80.1758 C 76.9043 -80.1758 73.0469 -77.6367 70.0684 -71.6309 L 39.3555 -8.83789 C 38.916 -7.95898 38.1348 -7.51953 37.1094 -7.51953 L 18.7988 -7.51953 C 13.7695 -7.51953 9.96094 -3.75977 9.96094 1.07422 C 9.96094 5.9082 13.8184 9.7168 18.7988 9.7168 Z M 77.3438 9.7168 L 105.322 9.7168 C 110.4 9.7168 114.16 5.95703 114.16 1.12305 C 114.16 -3.75977 110.4 -7.4707 105.322 -7.4707 L 77.3438 -7.4707 C 72.2656 -7.4707 68.5059 -3.75977 68.5059 1.12305 C 68.5059 5.9082 72.3145 9.7168 77.3438 9.7168 Z"/>
  </g>
  <g id="Black-M" transform="matrix(1 0 0 1 2870.63 1126)">
   <path d="M 20.1172 9.76562 L 41.748 9.76562 C 48.0469 9.76562 52.9785 6.49414 56.1035 0.390625 L 86.2793 -59.4238 C 86.5723 -60.0586 87.2559 -60.4004 88.0371 -60.4004 L 105.42 -60.4004 C 111.23 -60.4004 115.576 -64.6973 115.576 -70.3125 C 115.576 -75.8789 111.182 -80.2246 105.42 -80.2246 L 83.6914 -80.2246 C 76.9531 -80.2246 72.8027 -77.4902 69.4824 -70.8984 L 39.209 -11.0352 C 38.8672 -10.4004 38.2324 -10.0586 37.4023 -10.0586 L 20.1172 -10.0586 C 14.3066 -10.0586 9.96094 -5.76172 9.96094 -0.146484 C 9.96094 5.37109 14.4043 9.76562 20.1172 9.76562 Z M 78.5156 9.76562 L 105.42 9.76562 C 111.23 9.76562 115.576 5.46875 115.576 -0.146484 C 115.576 -5.76172 111.23 -10.0586 105.42 -10.0586 L 78.5156 -10.0586 C 72.7051 -10.0586 68.3594 -5.76172 68.3594 -0.146484 C 68.3594 5.37109 72.7539 9.76562 78.5156 9.76562 Z"/>
  </g>
  <g id="Ultralight-L" transform="matrix(1 0 0 1 481.879 1556)">
   <path d="M 14.0625 22.8027 L 45.9473 22.8027 C 49.8535 22.8027 53.2715 20.3613 54.834 16.9434 L 101.904 -87.3535 C 102.881 -89.5508 105.127 -90.8691 107.861 -90.8691 L 141.602 -90.8691 C 142.236 -90.8691 142.773 -91.4062 142.773 -92.041 C 142.773 -92.7246 142.236 -93.2617 141.602 -93.2617 L 108.105 -93.2617 C 103.906 -93.2617 100.879 -91.2109 99.5117 -88.1348 L 52.3438 16.3574 C 51.416 18.6523 48.8281 20.4102 46.2402 20.4102 L 14.0625 20.4102 C 13.4277 20.4102 12.8906 20.9473 12.8906 21.582 C 12.8906 22.2656 13.4277 22.8027 14.0625 22.8027 Z M 91.3086 22.8027 L 141.602 22.8027 C 142.236 22.8027 142.773 22.2656 142.773 21.582 C 142.773 20.9473 142.236 20.3613 141.602 20.3613 L 91.3086 20.3613 C 90.625 20.3613 90.0879 20.9473 90.0879 21.582 C 90.0879 22.2656 90.625 22.8027 91.3086 22.8027 Z"/>
  </g>
  <g id="Thin-L" transform="matrix(1 0 0 1 778.712 1556)">
   <path d="M 14.9414 22.7539 L 46.5332 22.7539 C 50.7324 22.7539 54.3457 20.2148 56.0059 16.5527 L 102.051 -85.7422 C 102.979 -87.8906 105.127 -89.1602 107.812 -89.1602 L 140.479 -89.1602 C 141.602 -89.1602 142.529 -90.0879 142.529 -91.2109 C 142.529 -92.334 141.602 -93.2129 140.479 -93.2129 L 107.52 -93.2129 C 103.027 -93.2129 99.8535 -91.1133 98.291 -87.5977 L 52.1973 14.8438 C 51.2207 17.0898 48.8281 18.7012 46.2891 18.7012 L 14.9414 18.7012 C 13.7695 18.7012 12.8906 19.6289 12.8906 20.752 C 12.8906 21.875 13.7695 22.7539 14.9414 22.7539 Z M 91.9434 22.7539 L 140.479 22.7539 C 141.65 22.7539 142.529 21.875 142.529 20.752 C 142.529 19.6289 141.65 18.7012 140.479 18.7012 L 91.9434 18.7012 C 90.7715 18.7012 89.8926 19.6289 89.8926 20.752 C 89.8926 21.875 90.7715 22.7539 91.9434 22.7539 Z"/>
  </g>
  <g id="Light-L" transform="matrix(1 0 0 1 1075.64 1556)">
   <path d="M 16.6016 22.6562 L 47.6562 22.6562 C 52.3926 22.6562 56.3965 19.9219 58.3008 15.7227 L 102.295 -82.6172 C 103.223 -84.7656 105.127 -85.8887 107.764 -85.8887 L 138.379 -85.8887 C 140.43 -85.8887 142.09 -87.5 142.09 -89.502 C 142.09 -91.5039 140.43 -93.1152 138.379 -93.1152 L 106.396 -93.1152 C 101.318 -93.1152 97.8516 -90.8691 95.9473 -86.5723 L 51.8555 11.9141 C 50.8789 14.0625 48.7793 15.4297 46.3867 15.4297 L 16.6016 15.4297 C 14.502 15.4297 12.8906 17.041 12.8906 19.043 C 12.8906 21.0938 14.502 22.6562 16.6016 22.6562 Z M 93.1641 22.6562 L 138.379 22.6562 C 140.479 22.6562 142.09 21.0938 142.09 19.0918 C 142.09 17.041 140.479 15.4785 138.379 15.4785 L 93.1641 15.4785 C 91.0645 15.4785 89.4531 17.041 89.4531 19.0918 C 89.4531 21.0938 91.0645 22.6562 93.1641 22.6562 Z"/>
  </g>
  <g id="Regular-L" transform="matrix(1 0 0 1 1372.53 1556)">
   <path d="M 17.8711 22.6074 L 48.5352 22.6074 C 53.6621 22.6074 57.959 19.7266 60.0098 15.0879 L 102.49 -80.2734 C 103.418 -82.373 105.176 -83.3984 107.764 -83.3984 L 136.768 -83.3984 C 139.502 -83.3984 141.797 -85.5957 141.797 -88.2324 C 141.797 -90.918 139.502 -93.0664 136.768 -93.0664 L 105.518 -93.0664 C 100 -93.0664 96.2891 -90.6738 94.1895 -85.791 L 51.5625 9.66797 C 50.6348 11.7676 48.7793 12.9395 46.4355 12.9395 L 17.8711 12.9395 C 15.0879 12.9395 12.8906 15.0879 12.8906 17.7734 C 12.8906 20.5078 15.0879 22.6074 17.8711 22.6074 Z M 94.1406 22.6074 L 136.768 22.6074 C 139.551 22.6074 141.748 20.5566 141.748 17.8223 C 141.748 15.1367 139.551 13.0371 136.768 13.0371 L 94.1406 13.0371 C 91.3086 13.0371 89.1602 15.1367 89.1602 17.8223 C 89.1602 20.5566 91.3086 22.6074 94.1406 22.6074 Z"/>
  </g>
  <g id="Medium-L" transform="matrix(1 0 0 1 1668.77 1556)">
   <path d="M 19.043 22.6074 L 49.2676 22.6074 C 54.834 22.6074 59.4238 19.5312 61.7188 14.4531 L 103.613 -78.2715 C 104.492 -80.2246 106.104 -81.2012 108.496 -81.2012 L 136.523 -81.2012 C 139.941 -81.2012 142.676 -83.8379 142.676 -87.1582 C 142.676 -90.4297 139.941 -93.0664 136.523 -93.0664 L 105.762 -93.0664 C 99.8047 -93.0664 95.8984 -90.5273 93.457 -85.1562 L 51.416 7.71484 C 50.5371 9.66797 48.8281 10.7422 46.6797 10.7422 L 19.043 10.7422 C 15.5762 10.7422 12.8906 13.3301 12.8906 16.6992 C 12.8906 20.0195 15.5762 22.6074 19.043 22.6074 Z M 95.1172 22.6074 L 136.523 22.6074 C 139.99 22.6074 142.627 20.0684 142.627 16.6992 C 142.627 13.3789 139.99 10.8398 136.523 10.8398 L 95.1172 10.8398 C 91.6504 10.8398 89.0137 13.3789 89.0137 16.6992 C 89.0137 20.0684 91.6504 22.6074 95.1172 22.6074 Z"/>
  </g>
  <g id="Semibold-L" transform="matrix(1 0 0 1 1965.14 1556)">
   <path d="M 19.9219 22.6074 L 49.8535 22.6074 C 55.7617 22.6074 60.5469 19.4336 63.0371 14.0137 L 104.492 -76.7578 C 105.322 -78.6133 106.836 -79.4922 109.082 -79.4922 L 136.328 -79.4922 C 140.283 -79.4922 143.359 -82.4707 143.359 -86.2793 C 143.359 -90.0879 140.283 -93.0664 136.328 -93.0664 L 105.957 -93.0664 C 99.6094 -93.0664 95.5566 -90.4297 92.8711 -84.668 L 51.3184 6.25 C 50.4883 8.00781 48.877 9.0332 46.875 9.0332 L 19.9219 9.0332 C 15.918 9.0332 12.8906 12.0117 12.8906 15.8203 C 12.8906 19.6289 15.9668 22.6074 19.9219 22.6074 Z M 95.8984 22.6074 L 136.328 22.6074 C 140.332 22.6074 143.359 19.7266 143.359 15.8691 C 143.359 12.0117 140.332 9.13086 136.328 9.13086 L 95.8984 9.13086 C 91.8945 9.13086 88.8672 12.0117 88.8672 15.8691 C 88.8672 19.6777 91.9434 22.6074 95.8984 22.6074 Z"/>
  </g>
  <g id="Bold-L" transform="matrix(1 0 0 1 2261.39 1556)">
   <path d="M 21.0449 22.6562 L 50.6348 22.6562 C 56.9336 22.6562 62.0117 19.2383 64.7949 13.3789 L 105.664 -74.8047 C 106.396 -76.416 107.812 -77.2461 109.814 -77.2461 L 136.133 -77.2461 C 140.723 -77.2461 144.287 -80.7129 144.287 -85.1562 C 144.287 -89.5996 140.674 -93.1152 136.133 -93.1152 L 106.201 -93.1152 C 99.4141 -93.1152 95.1172 -90.332 92.1387 -83.9844 L 51.1719 4.29688 C 50.3906 5.9082 48.9746 6.78711 47.1191 6.78711 L 21.0449 6.78711 C 16.4062 6.78711 12.8906 10.2539 12.8906 14.6973 C 12.8906 19.1895 16.4551 22.6562 21.0449 22.6562 Z M 96.875 22.6562 L 136.133 22.6562 C 140.771 22.6562 144.287 19.2383 144.287 14.7461 C 144.287 10.2539 140.771 6.88477 136.133 6.88477 L 96.875 6.88477 C 92.2363 6.88477 88.7207 10.2539 88.7207 14.7461 C 88.7207 19.1895 92.2852 22.6562 96.875 22.6562 Z"/>
  </g>
  <g id="Heavy-L" transform="matrix(1 0 0 1 2557.44 1556)">
   <path d="M 22.7539 22.6562 L 51.7578 22.6562 C 58.6426 22.6562 64.1602 19.043 67.334 12.5 L 107.324 -71.9238 C 108.008 -73.291 109.18 -73.9746 110.889 -73.9746 L 135.791 -73.9746 C 141.357 -73.9746 145.654 -78.1738 145.654 -83.5449 C 145.654 -88.916 141.309 -93.1152 135.791 -93.1152 L 106.543 -93.1152 C 99.1211 -93.1152 94.4824 -90.1367 91.0645 -83.0566 L 50.9277 1.41602 C 50.293 2.7832 49.0723 3.51562 47.4609 3.51562 L 22.7539 3.51562 C 17.1387 3.51562 12.8906 7.66602 12.8906 13.0859 C 12.8906 18.457 17.1875 22.6562 22.7539 22.6562 Z M 98.3398 22.6562 L 135.791 22.6562 C 141.357 22.6562 145.605 18.5547 145.605 13.1348 C 145.605 7.71484 141.357 3.61328 135.791 3.61328 L 98.3398 3.61328 C 92.7734 3.61328 88.5254 7.71484 88.5254 13.1348 C 88.5254 18.5059 92.7734 22.6562 98.3398 22.6562 Z"/>
  </g>
  <g id="Black-L" transform="matrix(1 0 0 1 2853.57 1556)">
   <path d="M 24.2188 22.7051 L 52.7344 22.7051 C 60.2051 22.7051 66.1133 18.7988 69.6289 11.6699 L 108.838 -69.3359 C 109.424 -70.5078 110.449 -71.0938 111.865 -71.0938 L 135.449 -71.0938 C 141.895 -71.0938 146.826 -75.8789 146.826 -82.1289 C 146.826 -88.2812 141.846 -93.1641 135.449 -93.1641 L 106.885 -93.1641 C 98.8281 -93.1641 93.8965 -89.9414 90.0879 -82.2266 L 50.7324 -1.12305 C 50.1953 0.0488281 49.1211 0.634766 47.8027 0.634766 L 24.2188 0.634766 C 17.7734 0.634766 12.8906 5.41992 12.8906 11.6699 C 12.8906 17.8711 17.8223 22.7051 24.2188 22.7051 Z M 99.6582 22.7051 L 135.449 22.7051 C 141.943 22.7051 146.826 17.9199 146.826 11.6699 C 146.826 5.41992 141.943 0.683594 135.449 0.683594 L 99.6582 0.683594 C 93.2129 0.683594 88.3301 5.41992 88.3301 11.6699 C 88.3301 17.8711 93.2617 22.7051 99.6582 22.7051 Z"/>
  </g>
 </g>
</svg>
