<?xml version="1.0" encoding="UTF-8"?>
<!--Generator: Apple Native CoreSVG 123-->
<!DOCTYPE svg
PUBLIC "-//W3C//DTD SVG 1.1//EN"
       "http://www.w3.org/Graphics/SVG/1.1/DTD/svg11.dtd">
<svg version="1.1" xmlns="http://www.w3.org/2000/svg" xmlns:xlink="http://www.w3.org/1999/xlink" width="3300" height="2200">
 <!--glyph: "uni10022D.medium", point size: 100.000000, font version: "Version 15.0d4e20", template writer version: "2"-->
 <g id="Notes">
  <rect height="2200" id="artboard" style="fill:white;opacity:1" width="3300" x="0" y="0"/>
  <line id="" style="fill:none;stroke:black;opacity:1;stroke-width:0.5;" x1="263" x2="3036" y1="292" y2="292"/>
  <text style="stroke:none;fill:black;font-family:-apple-system,&quot;SF Pro Display&quot;,&quot;SF Pro Text&quot;,Helvetica,sans-serif;font-weight:bold;" transform="matrix(1 0 0 1 263 322)">Weight/Scale Variations</text>
  <text style="stroke:none;fill:black;font-family:-apple-system,&quot;SF Pro Display&quot;,&quot;SF Pro Text&quot;,Helvetica,sans-serif;text-anchor:middle;" transform="matrix(1 0 0 1 559.711 322)">Ultralight</text>
  <text style="stroke:none;fill:black;font-family:-apple-system,&quot;SF Pro Display&quot;,&quot;SF Pro Text&quot;,Helvetica,sans-serif;text-anchor:middle;" transform="matrix(1 0 0 1 856.422 322)">Thin</text>
  <text style="stroke:none;fill:black;font-family:-apple-system,&quot;SF Pro Display&quot;,&quot;SF Pro Text&quot;,Helvetica,sans-serif;text-anchor:middle;" transform="matrix(1 0 0 1 1153.13 322)">Light</text>
  <text style="stroke:none;fill:black;font-family:-apple-system,&quot;SF Pro Display&quot;,&quot;SF Pro Text&quot;,Helvetica,sans-serif;text-anchor:middle;" transform="matrix(1 0 0 1 1449.84 322)">Regular</text>
  <text style="stroke:none;fill:black;font-family:-apple-system,&quot;SF Pro Display&quot;,&quot;SF Pro Text&quot;,Helvetica,sans-serif;text-anchor:middle;" transform="matrix(1 0 0 1 1746.56 322)">Medium</text>
  <text style="stroke:none;fill:black;font-family:-apple-system,&quot;SF Pro Display&quot;,&quot;SF Pro Text&quot;,Helvetica,sans-serif;text-anchor:middle;" transform="matrix(1 0 0 1 2043.27 322)">Semibold</text>
  <text style="stroke:none;fill:black;font-family:-apple-system,&quot;SF Pro Display&quot;,&quot;SF Pro Text&quot;,Helvetica,sans-serif;text-anchor:middle;" transform="matrix(1 0 0 1 2339.98 322)">Bold</text>
  <text style="stroke:none;fill:black;font-family:-apple-system,&quot;SF Pro Display&quot;,&quot;SF Pro Text&quot;,Helvetica,sans-serif;text-anchor:middle;" transform="matrix(1 0 0 1 2636.69 322)">Heavy</text>
  <text style="stroke:none;fill:black;font-family:-apple-system,&quot;SF Pro Display&quot;,&quot;SF Pro Text&quot;,Helvetica,sans-serif;text-anchor:middle;" transform="matrix(1 0 0 1 2933.4 322)">Black</text>
  <line id="" style="fill:none;stroke:black;opacity:1;stroke-width:0.5;" x1="263" x2="3036" y1="1903" y2="1903"/>
  <g id="" transform="matrix(1 0 0 1 263 1933)">
   <path d="M 9.24805 0.830078 C 13.5547 0.830078 17.1387 -2.74414 17.1387 -7.05078 C 17.1387 -11.3574 13.5449 -14.9316 9.23828 -14.9316 C 4.94141 -14.9316 1.36719 -11.3574 1.36719 -7.05078 C 1.36719 -2.74414 4.95117 0.830078 9.24805 0.830078 Z M 9.24805 -0.654297 C 5.70312 -0.654297 2.87109 -3.49609 2.87109 -7.05078 C 2.87109 -10.6055 5.69336 -13.4473 9.23828 -13.4473 C 12.793 -13.4473 15.6348 -10.6055 15.6445 -7.05078 C 15.6543 -3.49609 12.8027 -0.654297 9.24805 -0.654297 Z M 9.22852 -3.42773 C 9.69727 -3.42773 9.9707 -3.74023 9.9707 -4.25781 L 9.9707 -6.31836 L 12.1973 -6.31836 C 12.6953 -6.31836 13.0371 -6.57227 13.0371 -7.04102 C 13.0371 -7.51953 12.7148 -7.7832 12.1973 -7.7832 L 9.9707 -7.7832 L 9.9707 -10.0098 C 9.9707 -10.5273 9.69727 -10.8496 9.22852 -10.8496 C 8.75977 -10.8496 8.50586 -10.5078 8.50586 -10.0098 L 8.50586 -7.7832 L 6.29883 -7.7832 C 5.78125 -7.7832 5.44922 -7.51953 5.44922 -7.04102 C 5.44922 -6.57227 5.80078 -6.31836 6.29883 -6.31836 L 8.50586 -6.31836 L 8.50586 -4.25781 C 8.50586 -3.75977 8.75977 -3.42773 9.22852 -3.42773 Z"/>
  </g>
  <g id="" transform="matrix(1 0 0 1 281.506 1933)">
   <path d="M 11.709 2.91016 C 17.1484 2.91016 21.6699 -1.60156 21.6699 -7.05078 C 21.6699 -12.4902 17.1387 -17.0117 11.6992 -17.0117 C 6.25 -17.0117 1.74805 -12.4902 1.74805 -7.05078 C 1.74805 -1.60156 6.25977 2.91016 11.709 2.91016 Z M 11.709 1.25 C 7.09961 1.25 3.41797 -2.44141 3.41797 -7.05078 C 3.41797 -11.6504 7.08984 -15.3516 11.6992 -15.3516 C 16.2988 -15.3516 20 -11.6504 20.0098 -7.05078 C 20.0195 -2.44141 16.3086 1.25 11.709 1.25 Z M 11.6797 -2.41211 C 12.207 -2.41211 12.5195 -2.77344 12.5195 -3.33984 L 12.5195 -6.23047 L 15.5762 -6.23047 C 16.123 -6.23047 16.5039 -6.51367 16.5039 -7.03125 C 16.5039 -7.55859 16.1426 -7.86133 15.5762 -7.86133 L 12.5195 -7.86133 L 12.5195 -10.9277 C 12.5195 -11.5039 12.207 -11.8555 11.6797 -11.8555 C 11.1621 -11.8555 10.8789 -11.4844 10.8789 -10.9277 L 10.8789 -7.86133 L 7.83203 -7.86133 C 7.25586 -7.86133 6.89453 -7.55859 6.89453 -7.03125 C 6.89453 -6.51367 7.28516 -6.23047 7.83203 -6.23047 L 10.8789 -6.23047 L 10.8789 -3.33984 C 10.8789 -2.79297 11.1621 -2.41211 11.6797 -2.41211 Z"/>
  </g>
  <g id="" transform="matrix(1 0 0 1 304.914 1933)">
   <path d="M 14.9707 5.67383 C 21.9336 5.67383 27.6855 -0.078125 27.6855 -7.04102 C 27.6855 -14.0039 21.9238 -19.7559 14.9609 -19.7559 C 7.99805 -19.7559 2.25586 -14.0039 2.25586 -7.04102 C 2.25586 -0.078125 8.00781 5.67383 14.9707 5.67383 Z M 14.9707 3.85742 C 8.92578 3.85742 4.08203 -1.00586 4.08203 -7.04102 C 4.08203 -13.0762 8.91602 -17.9395 14.9609 -17.9395 C 20.9961 -17.9395 25.8594 -13.0762 25.8691 -7.04102 C 25.8789 -1.00586 21.0059 3.85742 14.9707 3.85742 Z M 14.9414 -1.06445 C 15.5176 -1.06445 15.8594 -1.45508 15.8594 -2.06055 L 15.8594 -6.13281 L 20.0977 -6.13281 C 20.6934 -6.13281 21.1133 -6.46484 21.1133 -7.02148 C 21.1133 -7.59766 20.7227 -7.93945 20.0977 -7.93945 L 15.8594 -7.93945 L 15.8594 -12.1875 C 15.8594 -12.8027 15.5176 -13.1934 14.9414 -13.1934 C 14.3848 -13.1934 14.0625 -12.7832 14.0625 -12.1875 L 14.0625 -7.93945 L 9.82422 -7.93945 C 9.20898 -7.93945 8.80859 -7.59766 8.80859 -7.02148 C 8.80859 -6.46484 9.23828 -6.13281 9.82422 -6.13281 L 14.0625 -6.13281 L 14.0625 -2.06055 C 14.0625 -1.47461 14.3848 -1.06445 14.9414 -1.06445 Z"/>
  </g>
  <text style="stroke:none;fill:black;font-family:-apple-system,&quot;SF Pro Display&quot;,&quot;SF Pro Text&quot;,Helvetica,sans-serif;font-weight:bold;" transform="matrix(1 0 0 1 263 1953)">Design Variations</text>
  <text style="stroke:none;fill:black;font-family:-apple-system,&quot;SF Pro Display&quot;,&quot;SF Pro Text&quot;,Helvetica,sans-serif;" transform="matrix(1 0 0 1 263 1971)">Symbols are supported in up to nine weights and three scales.</text>
  <text style="stroke:none;fill:black;font-family:-apple-system,&quot;SF Pro Display&quot;,&quot;SF Pro Text&quot;,Helvetica,sans-serif;" transform="matrix(1 0 0 1 263 1989)">For optimal layout with text and other symbols, vertically align</text>
  <text style="stroke:none;fill:black;font-family:-apple-system,&quot;SF Pro Display&quot;,&quot;SF Pro Text&quot;,Helvetica,sans-serif;" transform="matrix(1 0 0 1 263 2007)">symbols with the adjacent text.</text>
  <rect height="14" id="" style="fill:#00AEEF;stroke:none;opacity:0.4;" width="3" x="776" y="1919"/>
  <g id="" transform="matrix(1 0 0 1 779 1933)">
   <path d="M 10.5273 0 L 12.373 0 L 7.17773 -14.0918 L 5.43945 -14.0918 L 0.244141 0 L 2.08984 0 L 3.50586 -4.0332 L 9.11133 -4.0332 Z M 6.2793 -11.9531 L 6.33789 -11.9531 L 8.59375 -5.52734 L 4.02344 -5.52734 Z"/>
  </g>
  <rect height="14" id="" style="fill:#00AEEF;stroke:none;opacity:0.4;" width="3" x="791.617" y="1919"/>
  <text style="stroke:none;fill:black;font-family:-apple-system,&quot;SF Pro Display&quot;,&quot;SF Pro Text&quot;,Helvetica,sans-serif;font-weight:bold;" transform="matrix(1 0 0 1 776 1953)">Side Bearings</text>
  <text style="stroke:none;fill:black;font-family:-apple-system,&quot;SF Pro Display&quot;,&quot;SF Pro Text&quot;,Helvetica,sans-serif;" transform="matrix(1 0 0 1 776 1971)">Horizontal padding on the left and right side of each symbol</text>
  <text style="stroke:none;fill:black;font-family:-apple-system,&quot;SF Pro Display&quot;,&quot;SF Pro Text&quot;,Helvetica,sans-serif;" transform="matrix(1 0 0 1 776 1989)">can be adjusted by modifying the width of the blue rectangles.</text>
  <text style="stroke:none;fill:black;font-family:-apple-system,&quot;SF Pro Display&quot;,&quot;SF Pro Text&quot;,Helvetica,sans-serif;" transform="matrix(1 0 0 1 776 2007)">Modifications are automatically applied proportionally to all</text>
  <text style="stroke:none;fill:black;font-family:-apple-system,&quot;SF Pro Display&quot;,&quot;SF Pro Text&quot;,Helvetica,sans-serif;" transform="matrix(1 0 0 1 776 2025)">scales and weights.</text>
  <g id="" transform="matrix(1 0 0 1 1289 1933)">
   <path d="M 2.96875 2.35352 L 3.80859 3.19336 C 4.84375 4.22852 6.12305 4.15039 7.19727 2.97852 L 16.1621 -6.82617 C 16.5527 -6.74805 16.9629 -6.8457 17.4902 -7.02148 C 18.1738 -7.25586 18.2715 -7.25586 18.3887 -7.13867 C 18.5352 -7.01172 18.4863 -6.89453 18.2422 -6.25 C 17.8809 -5.33203 17.8125 -4.79492 18.5547 -4.02344 L 19.4238 -3.13477 C 20.2734 -2.24609 21.3281 -2.26562 22.2168 -3.14453 L 25.0586 -5.97656 C 25.9473 -6.86523 25.957 -7.92969 25.0781 -8.7793 L 24.1797 -9.64844 C 23.4082 -10.4004 22.8711 -10.3516 21.9629 -9.98047 C 21.3184 -9.72656 21.2012 -9.6875 21.0645 -9.81445 C 20.9375 -9.93164 20.9473 -10.0391 21.1816 -10.7129 C 21.5332 -11.6895 21.5723 -12.2852 20.752 -13.0957 L 19.3359 -14.5117 C 15.1953 -18.6133 11.2305 -18.7402 7.65625 -15.4395 C 7.08008 -14.9023 6.99219 -14.1504 7.53906 -13.6133 L 7.79297 -13.3594 C 8.22266 -12.9297 8.86719 -12.8418 9.41406 -13.1152 C 11.0645 -13.9453 12.2559 -14.0234 13.457 -12.9785 L 13.0273 -11.416 C 12.8516 -10.8008 12.793 -10.3418 12.9199 -9.93164 L 3.18359 -1.04492 C 2.02148 0.0292969 1.93359 1.32812 2.96875 2.35352 Z M 8.96484 -14.4922 C 8.89648 -14.5703 8.86719 -14.6582 8.99414 -14.7559 C 11.709 -17.2852 15.0391 -16.8457 18.3496 -13.5254 L 19.6973 -12.168 C 20.0879 -11.7773 20.0977 -11.582 19.8828 -10.8691 C 19.6582 -10.127 19.502 -9.53125 20.1465 -8.88672 C 20.8105 -8.22266 21.2891 -8.41797 22.207 -8.63281 C 22.9004 -8.79883 23.0664 -8.79883 23.4473 -8.41797 L 24.0918 -7.77344 C 24.4043 -7.48047 24.4141 -7.32422 24.0723 -6.97266 L 21.2207 -4.13086 C 20.8887 -3.79883 20.7227 -3.79883 20.4297 -4.10156 L 19.7852 -4.75586 C 19.4141 -5.13672 19.4141 -5.30273 19.5801 -6.01562 C 19.7852 -6.88477 19.9805 -7.38281 19.3262 -8.04688 C 18.6719 -8.7207 18.0762 -8.57422 17.3438 -8.33008 C 16.5625 -8.06641 16.3281 -8.06641 15.8984 -8.49609 L 14.6094 -9.78516 C 14.1699 -10.2246 14.1309 -10.4395 14.2676 -10.9082 L 15.0293 -13.3984 C 13.3887 -15.2832 11.4941 -15.5566 9.20898 -14.4434 C 9.11133 -14.3945 9.04297 -14.4141 8.96484 -14.4922 Z M 3.96484 1.36719 C 3.52539 0.927734 3.54492 0.537109 4.14062 -0.00976562 L 13.7402 -8.81836 L 15 -7.55859 L 6.17188 2.02148 C 5.625 2.60742 5.24414 2.64648 4.79492 2.19727 Z"/>
  </g>
  <text style="stroke:none;fill:black;font-family:-apple-system,&quot;SF Pro Display&quot;,&quot;SF Pro Text&quot;,Helvetica,sans-serif;font-weight:bold;" transform="matrix(1 0 0 1 1289 1953)">Exporting</text>
  <text style="stroke:none;fill:black;font-family:-apple-system,&quot;SF Pro Display&quot;,&quot;SF Pro Text&quot;,Helvetica,sans-serif;" transform="matrix(1 0 0 1 1289 1971)">Symbols should be outlined when exporting to ensure the</text>
  <text style="stroke:none;fill:black;font-family:-apple-system,&quot;SF Pro Display&quot;,&quot;SF Pro Text&quot;,Helvetica,sans-serif;" transform="matrix(1 0 0 1 1289 1989)">design is preserved when submitting to Xcode.</text>
  <text id="template-version" style="stroke:none;fill:black;font-family:-apple-system,&quot;SF Pro Display&quot;,&quot;SF Pro Text&quot;,Helvetica,sans-serif;text-anchor:end;" transform="matrix(1 0 0 1 3036 1933)">Template v.0.1</text>
  <text style="stroke:none;fill:black;font-family:-apple-system,&quot;SF Pro Display&quot;,&quot;SF Pro Text&quot;,Helvetica,sans-serif;text-anchor:end;" transform="matrix(1 0 0 1 3036 1951)">Generated from archivebox</text>
  <text style="stroke:none;fill:black;font-family:-apple-system,&quot;SF Pro Display&quot;,&quot;SF Pro Text&quot;,Helvetica,sans-serif;text-anchor:end;" transform="matrix(1 0 0 1 3036 1969)">Typeset at 100 points</text>
  <text style="stroke:none;fill:black;font-family:-apple-system,&quot;SF Pro Display&quot;,&quot;SF Pro Text&quot;,Helvetica,sans-serif;" transform="matrix(1 0 0 1 263 726)">Small</text>
  <text style="stroke:none;fill:black;font-family:-apple-system,&quot;SF Pro Display&quot;,&quot;SF Pro Text&quot;,Helvetica,sans-serif;" transform="matrix(1 0 0 1 263 1156)">Medium</text>
  <text style="stroke:none;fill:black;font-family:-apple-system,&quot;SF Pro Display&quot;,&quot;SF Pro Text&quot;,Helvetica,sans-serif;" transform="matrix(1 0 0 1 263 1586)">Large</text>
 </g>
 <g id="Guides">
  <g id="H-reference" style="fill:#27AAE1;stroke:none;" transform="matrix(1 0 0 1 339 696)">
   <path d="M 54.9316 0 L 57.666 0 L 30.5664 -70.459 L 28.0762 -70.459 L 0.976562 0 L 3.66211 0 L 12.9395 -24.4629 L 45.7031 -24.4629 Z M 29.1992 -67.0898 L 29.4434 -67.0898 L 44.8242 -26.709 L 13.8184 -26.709 Z"/>
  </g>
  <line id="Baseline-S" style="fill:none;stroke:#27AAE1;opacity:1;stroke-width:0.577;" x1="263" x2="3036" y1="696" y2="696"/>
  <line id="Capline-S" style="fill:none;stroke:#27AAE1;opacity:1;stroke-width:0.577;" x1="263" x2="3036" y1="625.541" y2="625.541"/>
  <g id="H-reference" style="fill:#27AAE1;stroke:none;" transform="matrix(1 0 0 1 339 1126)">
   <path d="M 54.9316 0 L 57.666 0 L 30.5664 -70.459 L 28.0762 -70.459 L 0.976562 0 L 3.66211 0 L 12.9395 -24.4629 L 45.7031 -24.4629 Z M 29.1992 -67.0898 L 29.4434 -67.0898 L 44.8242 -26.709 L 13.8184 -26.709 Z"/>
  </g>
  <line id="Baseline-M" style="fill:none;stroke:#27AAE1;opacity:1;stroke-width:0.577;" x1="263" x2="3036" y1="1126" y2="1126"/>
  <line id="Capline-M" style="fill:none;stroke:#27AAE1;opacity:1;stroke-width:0.577;" x1="263" x2="3036" y1="1055.54" y2="1055.54"/>
  <g id="H-reference" style="fill:#27AAE1;stroke:none;" transform="matrix(1 0 0 1 339 1556)">
   <path d="M 54.9316 0 L 57.666 0 L 30.5664 -70.459 L 28.0762 -70.459 L 0.976562 0 L 3.66211 0 L 12.9395 -24.4629 L 45.7031 -24.4629 Z M 29.1992 -67.0898 L 29.4434 -67.0898 L 44.8242 -26.709 L 13.8184 -26.709 Z"/>
  </g>
  <line id="Baseline-L" style="fill:none;stroke:#27AAE1;opacity:1;stroke-width:0.577;" x1="263" x2="3036" y1="1556" y2="1556"/>
  <line id="Capline-L" style="fill:none;stroke:#27AAE1;opacity:1;stroke-width:0.577;" x1="263" x2="3036" y1="1485.54" y2="1485.54"/>
  <rect height="119.336" id="left-margin" style="fill:#00AEEF;stroke:none;opacity:0.4;" width="12.4512" x="1388.57" y="1030.79"/>
  <rect height="119.336" id="right-margin" style="fill:#00AEEF;stroke:none;opacity:0.4;" width="12.5" x="1498.62" y="1030.79"/>
 </g>
 <g id="Symbols">
  <g id="Ultralight-S" transform="matrix(1 0 0 1 513.178 696)">
   <path d="M 24.9023 -1.5625 L 68.1641 -1.5625 C 74.6582 -1.5625 78.125 -5.07812 78.125 -11.5234 L 78.125 -51.9043 C 81.2988 -51.9043 83.3008 -54.1016 83.3008 -57.373 L 83.3008 -63.2812 C 83.3008 -66.5527 81.2988 -68.75 78.0273 -68.75 L 15.0391 -68.75 C 11.7676 -68.75 9.76562 -66.5527 9.76562 -63.2812 L 9.76562 -57.373 C 9.76562 -54.1016 11.7188 -51.9531 14.9414 -51.9043 L 14.9414 -11.5234 C 14.9414 -5.0293 18.3594 -1.5625 24.9023 -1.5625 Z M 15.1367 -54.0527 C 13.1348 -54.0527 11.9629 -55.4199 11.9629 -57.4219 L 11.9629 -63.2324 C 11.9629 -65.2344 13.1348 -66.5527 15.1367 -66.5527 L 77.9297 -66.5527 C 79.9316 -66.5527 81.1035 -65.2344 81.1035 -63.2324 L 81.1035 -57.4219 C 81.1035 -55.4199 79.9316 -54.0527 77.9297 -54.0527 Z M 25 -3.75977 C 19.8242 -3.75977 17.1387 -6.44531 17.1387 -11.5723 L 17.1387 -51.9043 L 75.9277 -51.9043 L 75.9277 -11.5723 C 75.9277 -6.44531 73.0469 -3.75977 68.0664 -3.75977 Z M 33.2031 -37.0117 L 59.8633 -37.0117 C 61.084 -37.0117 61.7188 -37.7441 61.7188 -39.0137 L 61.7188 -39.9902 C 61.7188 -41.2598 61.084 -41.9922 59.8633 -41.9922 L 33.2031 -41.9922 C 31.9336 -41.9922 31.3477 -41.2598 31.3477 -39.9902 L 31.3477 -39.0137 C 31.3477 -37.7441 31.9336 -37.0117 33.2031 -37.0117 Z"/>
  </g>
  <g id="Thin-S" transform="matrix(1 0 0 1 809.474 696)">
   <path d="M 25.4883 -1.12305 L 68.4082 -1.12305 C 75.1953 -1.12305 78.8086 -4.73633 78.8086 -11.4746 L 78.8086 -51.2207 C 82.1777 -51.416 84.1309 -53.7598 84.1309 -57.2266 L 84.1309 -63.1348 C 84.1309 -66.7969 81.9824 -69.2383 78.3203 -69.2383 L 15.5762 -69.2383 C 12.0117 -69.2383 9.76562 -66.7969 9.76562 -63.1348 L 9.76562 -57.2266 C 9.76562 -53.7598 11.7188 -51.416 15.0879 -51.2207 L 15.0879 -11.4746 C 15.0879 -4.6875 18.7012 -1.12305 25.4883 -1.12305 Z M 16.0645 -54.3945 C 14.1113 -54.3945 13.0859 -55.5664 13.0859 -57.5195 L 13.0859 -62.8906 C 13.0859 -64.8438 14.1113 -66.0156 16.0645 -66.0156 L 77.7832 -66.0156 C 79.7852 -66.0156 80.8105 -64.8438 80.8105 -62.8906 L 80.8105 -57.5195 C 80.8105 -55.5664 79.7852 -54.3945 77.7832 -54.3945 Z M 25.5371 -4.29688 C 20.8496 -4.29688 18.3594 -6.78711 18.3594 -11.4258 L 18.3594 -51.1719 L 75.4883 -51.1719 L 75.4883 -11.4258 C 75.4883 -6.78711 72.9004 -4.29688 68.3594 -4.29688 Z M 33.7891 -36.1816 L 60.1074 -36.1816 C 61.4258 -36.1816 62.207 -37.0117 62.207 -38.3789 L 62.207 -39.4531 C 62.207 -40.8203 61.4258 -41.6504 60.1074 -41.6504 L 33.7891 -41.6504 C 32.4707 -41.6504 31.6895 -40.8203 31.6895 -39.4531 L 31.6895 -38.3789 C 31.6895 -37.0117 32.4707 -36.1816 33.7891 -36.1816 Z"/>
  </g>
  <g id="Light-S" transform="matrix(1 0 0 1 1105.4 696)">
   <path d="M 26.6113 -0.292969 L 68.8477 -0.292969 C 76.1719 -0.292969 80.0781 -4.10156 80.0781 -11.377 L 80.0781 -49.9023 C 83.6914 -50.4395 85.6934 -53.0762 85.6934 -57.0801 L 85.6934 -62.8906 C 85.6934 -67.2852 83.252 -70.1172 78.8086 -70.1172 L 16.6504 -70.1172 C 12.4023 -70.1172 9.76562 -67.2852 9.76562 -62.8906 L 9.76562 -57.0801 C 9.76562 -53.0762 11.7676 -50.4395 15.3809 -49.9023 L 15.3809 -11.377 C 15.3809 -4.05273 19.2871 -0.292969 26.6113 -0.292969 Z M 17.9688 -54.9316 C 16.0156 -54.9316 15.1855 -55.8594 15.1855 -57.7637 L 15.1855 -62.1582 C 15.1855 -64.1113 16.0156 -64.9902 17.9688 -64.9902 L 77.5391 -64.9902 C 79.4922 -64.9902 80.2734 -64.1113 80.2734 -62.1582 L 80.2734 -57.7637 C 80.2734 -55.8594 79.4922 -54.9316 77.5391 -54.9316 Z M 26.6113 -5.37109 C 22.8516 -5.37109 20.8008 -7.42188 20.8008 -11.1816 L 20.8008 -49.8535 L 74.6582 -49.8535 L 74.6582 -11.1816 C 74.6582 -7.42188 72.5586 -5.37109 68.8477 -5.37109 Z M 34.9609 -34.5215 L 60.498 -34.5215 C 62.0605 -34.5215 63.0859 -35.5469 63.0859 -37.1582 L 63.0859 -38.3301 C 63.0859 -39.9414 62.0605 -40.9668 60.498 -40.9668 L 34.9609 -40.9668 C 33.4473 -40.9668 32.4219 -39.9414 32.4219 -38.3301 L 32.4219 -37.1582 C 32.4219 -35.5469 33.4473 -34.5215 34.9609 -34.5215 Z"/>
  </g>
  <g id="Regular-S" transform="matrix(1 0 0 1 1401.5 696)">
   <path d="M 27.4902 0.390625 L 69.1895 0.390625 C 76.9043 0.390625 81.0547 -3.61328 81.0547 -11.3281 L 81.0547 -48.9746 C 84.8633 -49.707 86.9141 -52.5879 86.9141 -56.9336 L 86.9141 -62.6953 C 86.9141 -67.6758 84.2285 -70.8008 79.1992 -70.8008 L 17.4805 -70.8008 C 12.7441 -70.8008 9.76562 -67.6758 9.76562 -62.6953 L 9.76562 -56.9336 C 9.76562 -52.5879 11.7676 -49.707 15.5762 -48.9746 L 15.5762 -11.3281 C 15.5762 -3.61328 19.7266 0.390625 27.4902 0.390625 Z M 19.3848 -55.3711 C 17.4805 -55.3711 16.7969 -56.0547 16.7969 -57.959 L 16.7969 -61.6211 C 16.7969 -63.5254 17.4805 -64.209 19.3848 -64.209 L 77.3438 -64.209 C 79.248 -64.209 79.834 -63.5254 79.834 -61.6211 L 79.834 -57.959 C 79.834 -56.0547 79.248 -55.3711 77.3438 -55.3711 Z M 27.3926 -6.20117 C 24.3652 -6.20117 22.6074 -7.91016 22.6074 -10.9863 L 22.6074 -48.8281 L 74.0234 -48.8281 L 74.0234 -10.9863 C 74.0234 -7.91016 72.3145 -6.20117 69.2871 -6.20117 Z M 35.8887 -33.252 L 60.8398 -33.252 C 62.5 -33.252 63.7695 -34.4727 63.7695 -36.2305 L 63.7695 -37.5 C 63.7695 -39.2578 62.5 -40.4297 60.8398 -40.4297 L 35.8887 -40.4297 C 34.1797 -40.4297 32.959 -39.2578 32.959 -37.5 L 32.959 -36.2305 C 32.959 -34.4727 34.1797 -33.252 35.8887 -33.252 Z"/>
  </g>
  <g id="Medium-S" transform="matrix(1 0 0 1 1697.53 696)">
   <path d="M 28.1738 0.976562 L 69.873 0.976562 C 78.0762 0.976562 82.5684 -3.41797 82.5684 -11.5723 L 82.5684 -47.998 C 86.2305 -49.1211 88.2812 -52.2949 88.2812 -56.7383 L 88.2812 -62.207 C 88.2812 -67.7734 85.0098 -71.3867 79.3945 -71.3867 L 18.6523 -71.3867 C 13.2324 -71.3867 9.76562 -67.7734 9.76562 -62.207 L 9.76562 -56.7383 C 9.76562 -52.2949 11.8164 -49.1211 15.4785 -47.998 L 15.4785 -11.5723 C 15.4785 -3.41797 19.9707 0.976562 28.1738 0.976562 Z M 20.3125 -55.4688 C 18.6035 -55.4688 17.9199 -56.1523 17.9199 -57.8613 L 17.9199 -61.0352 C 17.9199 -62.7441 18.6035 -63.4277 20.3125 -63.4277 L 77.7832 -63.4277 C 79.4434 -63.4277 80.127 -62.7441 80.127 -61.0352 L 80.127 -57.8613 C 80.127 -56.1523 79.4434 -55.4688 77.7832 -55.4688 Z M 28.6133 -7.37305 C 25.7324 -7.37305 24.1699 -8.88672 24.1699 -11.8164 L 24.1699 -47.5586 L 73.877 -47.5586 L 73.877 -11.8164 C 73.877 -8.88672 72.3145 -7.37305 69.4336 -7.37305 Z M 36.9141 -31.7871 L 61.1816 -31.7871 C 63.1348 -31.7871 64.5508 -33.2031 64.5508 -35.2051 L 64.5508 -36.4746 C 64.5508 -38.4766 63.1348 -39.8438 61.1816 -39.8438 L 36.9141 -39.8438 C 34.9609 -39.8438 33.5449 -38.4766 33.5449 -36.4746 L 33.5449 -35.2051 C 33.5449 -33.2031 34.9609 -31.7871 36.9141 -31.7871 Z"/>
  </g>
  <g id="Semibold-S" transform="matrix(1 0 0 1 1993.71 696)">
   <path d="M 28.6621 1.41602 L 70.459 1.41602 C 78.9062 1.41602 83.6914 -3.27148 83.6914 -11.7188 L 83.6914 -47.3145 C 87.3047 -48.6816 89.3555 -52.0508 89.3555 -56.543 L 89.3555 -61.8164 C 89.3555 -67.8223 85.6445 -71.8262 79.5898 -71.8262 L 19.5312 -71.8262 C 13.623 -71.8262 9.76562 -67.8223 9.76562 -61.8164 L 9.76562 -56.543 C 9.76562 -52.0508 11.8652 -48.7305 15.4297 -47.3145 L 15.4297 -11.7188 C 15.4297 -3.27148 20.166 1.41602 28.6621 1.41602 Z M 21.0449 -55.5176 C 19.5312 -55.5176 18.7988 -56.25 18.7988 -57.7637 L 18.7988 -60.5957 C 18.7988 -62.1094 19.5312 -62.8418 21.0449 -62.8418 L 78.0762 -62.8418 C 79.6387 -62.8418 80.3223 -62.1094 80.3223 -60.5957 L 80.3223 -57.7637 C 80.3223 -56.25 79.6387 -55.5176 78.0762 -55.5176 Z M 29.541 -8.25195 C 26.8066 -8.25195 25.3418 -9.61914 25.3418 -12.4512 L 25.3418 -46.582 L 73.7793 -46.582 L 73.7793 -12.4512 C 73.7793 -9.61914 72.3145 -8.25195 69.5801 -8.25195 Z M 37.6953 -30.6152 L 61.4258 -30.6152 C 63.5742 -30.6152 65.1855 -32.2266 65.1855 -34.4238 L 65.1855 -35.6445 C 65.1855 -37.8906 63.5742 -39.4043 61.4258 -39.4043 L 37.6953 -39.4043 C 35.5469 -39.4043 33.9844 -37.8906 33.9844 -35.6445 L 33.9844 -34.4238 C 33.9844 -32.2266 35.5957 -30.6152 37.6953 -30.6152 Z"/>
  </g>
  <g id="Bold-S" transform="matrix(1 0 0 1 2289.71 696)">
   <path d="M 29.3457 2.00195 L 71.1914 2.00195 C 80.0781 2.00195 85.2051 -3.07617 85.2051 -11.9629 L 85.2051 -46.4355 C 88.6719 -48.1934 90.7715 -51.7578 90.7715 -56.3477 L 90.7715 -61.3281 C 90.7715 -67.9199 86.5234 -72.4121 79.834 -72.4121 L 20.7031 -72.4121 C 14.1602 -72.4121 9.76562 -67.9199 9.76562 -61.3281 L 9.76562 -56.3477 C 9.76562 -51.7578 11.8164 -48.2422 15.332 -46.4844 L 15.332 -11.9629 C 15.332 -3.07617 20.459 2.00195 29.3457 2.00195 Z M 22.0215 -55.6152 C 20.7031 -55.6152 19.9219 -56.3477 19.9219 -57.666 L 19.9219 -60.0098 C 19.9219 -61.3281 20.7031 -62.0605 22.0215 -62.0605 L 78.5156 -62.0605 C 79.834 -62.0605 80.5664 -61.3281 80.5664 -60.0098 L 80.5664 -57.666 C 80.5664 -56.3477 79.834 -55.6152 78.5156 -55.6152 Z M 30.7617 -9.375 C 28.1738 -9.375 26.8555 -10.5957 26.8555 -13.2812 L 26.8555 -45.3125 L 73.6328 -45.3125 L 73.6328 -13.2812 C 73.6328 -10.5957 72.3145 -9.375 69.7754 -9.375 Z M 38.7695 -29.1016 L 61.8164 -29.1016 C 64.1602 -29.1016 66.0156 -30.9082 66.0156 -33.3496 L 66.0156 -34.6191 C 66.0156 -37.0605 64.209 -38.8184 61.8164 -38.8184 L 38.7695 -38.8184 C 36.3281 -38.8184 34.5703 -37.0605 34.5703 -34.6191 L 34.5703 -33.3496 C 34.5703 -30.9082 36.377 -29.1016 38.7695 -29.1016 Z"/>
  </g>
  <g id="Heavy-S" transform="matrix(1 0 0 1 2585.42 696)">
   <path d="M 30.3223 2.83203 L 72.2168 2.83203 C 81.7383 2.83203 87.3535 -2.7832 87.3535 -12.3047 L 87.3535 -45.3613 C 90.7715 -47.5586 92.7734 -51.3672 92.7734 -56.1035 L 92.7734 -60.5957 C 92.7734 -68.0664 87.6953 -73.2422 80.1758 -73.2422 L 22.4121 -73.2422 C 14.9414 -73.2422 9.76562 -68.0664 9.76562 -60.5957 L 9.76562 -56.1035 C 9.76562 -51.3672 11.8164 -47.5586 15.1855 -45.4102 L 15.1855 -12.3047 C 15.1855 -2.7832 20.8008 2.83203 30.3223 2.83203 Z M 23.3887 -55.7129 C 22.3633 -55.7129 21.582 -56.543 21.582 -57.5195 L 21.582 -59.1797 C 21.582 -60.1562 22.3633 -60.9375 23.3887 -60.9375 L 79.1504 -60.9375 C 80.1758 -60.9375 80.957 -60.1562 80.957 -59.1797 L 80.957 -57.5195 C 80.957 -56.543 80.1758 -55.7129 79.1504 -55.7129 Z M 32.5195 -11.084 C 30.2246 -11.084 29.1016 -12.0117 29.1016 -14.4531 L 29.1016 -43.4082 L 73.4375 -43.4082 L 73.4375 -14.4531 C 73.4375 -12.0117 72.3145 -11.084 70.0195 -11.084 Z M 40.2832 -26.9043 L 62.3047 -26.9043 C 65.0391 -26.9043 67.1875 -29.0527 67.1875 -31.8359 L 67.1875 -33.1055 C 67.1875 -35.8887 65.0879 -37.9883 62.3047 -37.9883 L 40.2832 -37.9883 C 37.5 -37.9883 35.4004 -35.8887 35.4004 -33.1055 L 35.4004 -31.8359 C 35.4004 -29.0527 37.5488 -26.9043 40.2832 -26.9043 Z"/>
  </g>
  <g id="Black-S" transform="matrix(1 0 0 1 2881.23 696)">
   <path d="M 31.2012 3.61328 L 73.1934 3.61328 C 83.252 3.61328 89.3066 -2.53906 89.3066 -12.5977 L 89.3066 -44.5312 C 92.627 -47.0215 94.5801 -50.9766 94.5801 -55.8105 L 94.5801 -59.9609 C 94.5801 -68.2129 88.8184 -74.0234 80.5176 -74.0234 L 23.9258 -74.0234 C 15.625 -74.0234 9.76562 -68.2129 9.76562 -59.9609 L 9.76562 -55.8105 C 9.76562 -51.0254 11.7676 -47.0703 15.0879 -44.5801 L 15.0879 -12.5977 C 15.0879 -2.53906 21.1426 3.61328 31.2012 3.61328 Z M 24.6094 -55.8594 C 23.9258 -55.8594 23.0957 -56.6895 23.0957 -57.373 L 23.0957 -58.3984 C 23.0957 -59.1309 23.9258 -59.9609 24.6094 -59.9609 L 79.7363 -59.9609 C 80.4688 -59.9609 81.2988 -59.1309 81.2988 -58.3984 L 81.2988 -57.373 C 81.2988 -56.6895 80.4688 -55.8594 79.7363 -55.8594 Z M 34.082 -12.5977 C 32.0312 -12.5977 31.1035 -13.2324 31.1035 -15.5762 L 31.1035 -41.748 L 73.2422 -41.748 L 73.2422 -15.5762 C 73.2422 -13.2324 72.3145 -12.5977 70.2637 -12.5977 Z M 41.6504 -24.9512 L 62.7441 -24.9512 C 65.8203 -24.9512 68.2129 -27.3438 68.2129 -30.4688 L 68.2129 -31.7383 C 68.2129 -34.8633 65.918 -37.207 62.7441 -37.207 L 41.6504 -37.207 C 38.5254 -37.207 36.1816 -34.8633 36.1816 -31.7383 L 36.1816 -30.4688 C 36.1816 -27.3438 38.5742 -24.9512 41.6504 -24.9512 Z"/>
  </g>
  <g id="Ultralight-M" transform="matrix(1 0 0 1 500.483 1126)">
   <path d="M 31.543 7.56836 L 86.9141 7.56836 C 95.1172 7.56836 99.4629 3.07617 99.4629 -4.98047 L 99.4629 -56.7871 L 99.5117 -56.7871 C 103.516 -56.7871 106.006 -59.4727 106.006 -63.5254 L 106.006 -71.0938 C 106.006 -75.1465 103.516 -77.832 99.5117 -77.832 L 18.9453 -77.832 C 14.9414 -77.832 12.4512 -75.1465 12.4512 -71.0938 L 12.4512 -63.5254 C 12.4512 -59.4727 14.9414 -56.7871 18.9453 -56.7871 L 18.9941 -56.7871 L 18.9941 -4.98047 C 18.9941 3.22266 23.3398 7.56836 31.543 7.56836 Z M 18.8965 -59.1797 C 16.3574 -59.1797 14.8438 -60.9375 14.8438 -63.4766 L 14.8438 -71.1426 C 14.8438 -73.6816 16.3574 -75.4395 18.8965 -75.4395 L 99.5605 -75.4395 C 102.1 -75.4395 103.613 -73.6816 103.613 -71.1426 L 103.613 -63.4766 C 103.613 -60.9375 102.1 -59.1797 99.5605 -59.1797 Z M 31.6895 5.17578 C 24.9023 5.17578 21.3867 1.66016 21.3867 -5.12695 L 21.3867 -56.7871 L 97.0703 -56.7871 L 97.0703 -5.12695 C 97.0703 1.66016 93.3105 5.17578 86.8164 5.17578 Z M 42.1387 -37.8418 L 76.3184 -37.8418 C 77.8809 -37.8418 78.6133 -38.7695 78.6133 -40.2832 L 78.6133 -41.5527 C 78.6133 -43.1152 77.8809 -44.043 76.3184 -44.043 L 42.1387 -44.043 C 40.5762 -44.043 39.8438 -43.1152 39.8438 -41.5527 L 39.8438 -40.2832 C 39.8438 -38.7695 40.5762 -37.8418 42.1387 -37.8418 Z"/>
  </g>
  <g id="Thin-M" transform="matrix(1 0 0 1 796.73 1126)">
   <path d="M 32.2266 8.05664 L 87.1582 8.05664 C 95.7031 8.05664 100.244 3.4668 100.244 -4.93164 L 100.244 -56.0059 C 104.443 -56.1523 106.934 -59.082 106.934 -63.3789 L 106.934 -70.9473 C 106.934 -75.3906 104.248 -78.3691 99.8047 -78.3691 L 19.5801 -78.3691 C 15.1855 -78.3691 12.4512 -75.3906 12.4512 -70.9473 L 12.4512 -63.3789 C 12.4512 -59.082 14.9414 -56.1523 19.1406 -56.0059 L 19.1406 -4.93164 C 19.1406 3.56445 23.6816 8.05664 32.2266 8.05664 Z M 20.0195 -59.5215 C 17.4805 -59.5215 16.1133 -61.084 16.1133 -63.623 L 16.1133 -70.7031 C 16.1133 -73.2422 17.4805 -74.8535 20.0195 -74.8535 L 99.3652 -74.8535 C 101.904 -74.8535 103.271 -73.2422 103.271 -70.7031 L 103.271 -63.623 C 103.271 -61.084 101.904 -59.5215 99.3652 -59.5215 Z M 32.2754 4.54102 C 26.0742 4.54102 22.8027 1.26953 22.8027 -4.93164 L 22.8027 -55.957 L 96.582 -55.957 L 96.582 -4.93164 C 96.582 1.26953 93.1152 4.54102 87.1094 4.54102 Z M 42.8223 -36.8652 L 76.5625 -36.8652 C 78.2227 -36.8652 79.1504 -37.9395 79.1504 -39.5996 L 79.1504 -40.918 C 79.1504 -42.5781 78.2227 -43.6035 76.5625 -43.6035 L 42.8223 -43.6035 C 41.1621 -43.6035 40.2832 -42.5781 40.2832 -40.918 L 40.2832 -39.5996 C 40.2832 -37.9395 41.1621 -36.8652 42.8223 -36.8652 Z"/>
  </g>
  <g id="Light-M" transform="matrix(1 0 0 1 1092.54 1126)">
   <path d="M 33.4961 9.0332 L 87.6953 9.0332 C 96.8262 9.0332 101.709 4.24805 101.709 -4.83398 L 101.709 -54.541 C 106.201 -55.0293 108.74 -58.3008 108.74 -63.1836 L 108.74 -70.6543 C 108.74 -75.9766 105.713 -79.3945 100.391 -79.3945 L 20.8008 -79.3945 C 15.6738 -79.3945 12.4512 -75.9766 12.4512 -70.6543 L 12.4512 -63.1836 C 12.4512 -58.3008 14.9902 -55.0293 19.4824 -54.541 L 19.4824 -4.83398 C 19.4824 4.29688 24.3652 9.0332 33.4961 9.0332 Z M 22.1191 -60.1562 C 19.6289 -60.1562 18.5059 -61.4258 18.5059 -63.916 L 18.5059 -69.9219 C 18.5059 -72.4121 19.6289 -73.6328 22.1191 -73.6328 L 99.0723 -73.6328 C 101.562 -73.6328 102.686 -72.4121 102.686 -69.9219 L 102.686 -63.916 C 102.686 -61.4258 101.562 -60.1562 99.0723 -60.1562 Z M 33.4961 3.32031 C 28.3203 3.32031 25.5371 0.537109 25.5371 -4.63867 L 25.5371 -54.4434 L 95.6543 -54.4434 L 95.6543 -4.63867 C 95.6543 0.537109 92.7734 3.32031 87.6953 3.32031 Z M 44.1406 -35.0098 L 77.0508 -35.0098 C 78.9551 -35.0098 80.127 -36.2793 80.127 -38.2324 L 80.127 -39.6484 C 80.127 -41.6016 78.9551 -42.8223 77.0508 -42.8223 L 44.1406 -42.8223 C 42.2852 -42.8223 41.0645 -41.6016 41.0645 -39.6484 L 41.0645 -38.2324 C 41.0645 -36.2793 42.2852 -35.0098 44.1406 -35.0098 Z"/>
  </g>
  <g id="Regular-M" transform="matrix(1 0 0 1 1388.57 1126)">
   <path d="M 34.4727 9.76562 L 88.0859 9.76562 C 97.6562 9.76562 102.783 4.78516 102.783 -4.78516 L 102.783 -53.418 C 107.52 -54.1992 110.059 -57.7637 110.059 -62.9883 L 110.059 -70.4102 C 110.059 -76.3672 106.787 -80.127 100.781 -80.127 L 21.7285 -80.127 C 16.0156 -80.127 12.4512 -76.3672 12.4512 -70.4102 L 12.4512 -62.9883 C 12.4512 -57.7637 15.0391 -54.1992 19.7266 -53.418 L 19.7266 -4.78516 C 19.7266 4.83398 24.9023 9.76562 34.4727 9.76562 Z M 23.7305 -60.6445 C 21.2891 -60.6445 20.3125 -61.6699 20.3125 -64.1113 L 20.3125 -69.2871 C 20.3125 -71.7285 21.2891 -72.7539 23.7305 -72.7539 L 98.8281 -72.7539 C 101.318 -72.7539 102.197 -71.7285 102.197 -69.2871 L 102.197 -64.1113 C 102.197 -61.6699 101.318 -60.6445 98.8281 -60.6445 Z M 34.4238 2.39258 C 30.0293 2.39258 27.5879 0 27.5879 -4.39453 L 27.5879 -53.2715 L 94.9219 -53.2715 L 94.9219 -4.39453 C 94.9219 0 92.4805 2.39258 88.1348 2.39258 Z M 45.166 -33.5938 L 77.4414 -33.5938 C 79.4434 -33.5938 80.9082 -35.0098 80.9082 -37.1582 L 80.9082 -38.7207 C 80.9082 -40.8691 79.4434 -42.2363 77.4414 -42.2363 L 45.166 -42.2363 C 43.1152 -42.2363 41.6992 -40.8691 41.6992 -38.7207 L 41.6992 -37.1582 C 41.6992 -35.0098 43.1152 -33.5938 45.166 -33.5938 Z"/>
  </g>
  <g id="Medium-M" transform="matrix(1 0 0 1 1684.5 1126)">
   <path d="M 35.2539 10.4492 L 88.8672 10.4492 C 98.9258 10.4492 104.443 5.07812 104.443 -4.98047 L 104.443 -52.2461 C 109.082 -53.4668 111.67 -57.373 111.67 -62.793 L 111.67 -69.873 C 111.67 -76.5137 107.764 -80.8105 101.074 -80.8105 L 23.0469 -80.8105 C 16.6016 -80.8105 12.4512 -76.5137 12.4512 -69.873 L 12.4512 -62.793 C 12.4512 -57.373 15.0879 -53.5156 19.6777 -52.2461 L 19.6777 -4.98047 C 19.6777 5.07812 25.1953 10.4492 35.2539 10.4492 Z M 24.9023 -60.791 C 22.6562 -60.791 21.6797 -61.8164 21.6797 -64.0625 L 21.6797 -68.6035 C 21.6797 -70.8496 22.6562 -71.875 24.9023 -71.875 L 99.2676 -71.875 C 101.514 -71.875 102.441 -70.8496 102.441 -68.6035 L 102.441 -64.0625 C 102.441 -61.8164 101.514 -60.791 99.2676 -60.791 Z M 35.7422 1.12305 C 31.6406 1.12305 29.3945 -1.07422 29.3945 -5.22461 L 29.3945 -51.8555 L 94.7266 -51.8555 L 94.7266 -5.22461 C 94.7266 -1.07422 92.4316 1.12305 88.3789 1.12305 Z M 46.3379 -31.8848 L 77.832 -31.8848 C 80.127 -31.8848 81.8359 -33.5938 81.8359 -35.9863 L 81.8359 -37.5488 C 81.8359 -39.9414 80.1758 -41.5527 77.832 -41.5527 L 46.3379 -41.5527 C 43.9941 -41.5527 42.334 -39.9414 42.334 -37.5488 L 42.334 -35.9863 C 42.334 -33.5938 44.043 -31.8848 46.3379 -31.8848 Z"/>
  </g>
  <g id="Semibold-M" transform="matrix(1 0 0 1 1980.6 1126)">
   <path d="M 35.8887 10.9863 L 89.4531 10.9863 C 99.9023 10.9863 105.713 5.27344 105.713 -5.17578 L 105.713 -51.416 C 110.254 -52.9785 112.891 -57.0801 112.891 -62.5977 L 112.891 -69.4824 C 112.891 -76.6602 108.545 -81.3477 101.318 -81.3477 L 24.0234 -81.3477 C 17.041 -81.3477 12.4512 -76.6602 12.4512 -69.4824 L 12.4512 -62.5977 C 12.4512 -57.0801 15.0879 -52.9785 19.6289 -51.416 L 19.6289 -5.17578 C 19.6289 5.27344 25.4395 10.9863 35.8887 10.9863 Z M 25.7812 -60.8887 C 23.7305 -60.8887 22.7539 -61.9141 22.7539 -63.9648 L 22.7539 -68.1152 C 22.7539 -70.166 23.7305 -71.1914 25.7812 -71.1914 L 99.5605 -71.1914 C 101.66 -71.1914 102.588 -70.166 102.588 -68.1152 L 102.588 -63.9648 C 102.588 -61.9141 101.66 -60.8887 99.5605 -60.8887 Z M 36.7676 0.0976562 C 32.8613 0.0976562 30.8105 -1.85547 30.8105 -5.85938 L 30.8105 -50.7324 L 94.5312 -50.7324 L 94.5312 -5.85938 C 94.5312 -1.85547 92.4316 0.0976562 88.5742 0.0976562 Z M 47.2656 -30.6152 L 78.125 -30.6152 C 80.6641 -30.6152 82.5195 -32.4707 82.5195 -35.0586 L 82.5195 -36.6211 C 82.5195 -39.2578 80.6641 -41.0645 78.125 -41.0645 L 47.2656 -41.0645 C 44.7266 -41.0645 42.8711 -39.2578 42.8711 -36.6211 L 42.8711 -35.0586 C 42.8711 -32.4707 44.7266 -30.6152 47.2656 -30.6152 Z"/>
  </g>
  <g id="Bold-M" transform="matrix(1 0 0 1 2276.53 1126)">
   <path d="M 36.7188 11.6699 L 90.2344 11.6699 C 101.172 11.6699 107.373 5.51758 107.373 -5.37109 L 107.373 -50.3906 C 111.865 -52.3438 114.453 -56.6895 114.453 -62.4023 L 114.453 -68.9453 C 114.453 -76.8066 109.521 -82.0312 101.611 -82.0312 L 25.3418 -82.0312 C 17.627 -82.0312 12.4512 -76.8066 12.4512 -68.9453 L 12.4512 -62.4023 C 12.4512 -56.6895 15.0879 -52.3926 19.5312 -50.4395 L 19.5312 -5.37109 C 19.5312 5.56641 25.7812 11.6699 36.7188 11.6699 Z M 26.9531 -61.0352 C 25.0977 -61.0352 24.1211 -62.0605 24.1211 -63.916 L 24.1211 -67.4316 C 24.1211 -69.2871 25.0977 -70.3125 26.9531 -70.3125 L 100 -70.3125 C 101.855 -70.3125 102.783 -69.2871 102.783 -67.4316 L 102.783 -63.916 C 102.783 -62.0605 101.855 -61.0352 100 -61.0352 Z M 38.1348 -1.17188 C 34.5215 -1.17188 32.6172 -2.92969 32.6172 -6.68945 L 32.6172 -49.3164 L 94.2871 -49.3164 L 94.2871 -6.68945 C 94.2871 -2.92969 92.3828 -1.17188 88.8184 -1.17188 Z M 48.4375 -28.8574 L 78.5156 -28.8574 C 81.3477 -28.8574 83.4473 -30.957 83.4473 -33.8867 L 83.4473 -35.4492 C 83.4473 -38.3301 81.3965 -40.3809 78.5156 -40.3809 L 48.4375 -40.3809 C 45.6055 -40.3809 43.5547 -38.3301 43.5547 -35.4492 L 43.5547 -33.8867 C 43.5547 -30.957 45.6543 -28.8574 48.4375 -28.8574 Z"/>
  </g>
  <g id="Heavy-M" transform="matrix(1 0 0 1 2572.06 1126)">
   <path d="M 37.8906 12.6465 L 91.3574 12.6465 C 103.027 12.6465 109.766 5.9082 109.766 -5.71289 L 109.766 -49.0723 C 114.16 -51.5137 116.797 -56.1523 116.797 -62.0605 L 116.797 -68.1641 C 116.797 -77.002 110.938 -83.0566 102.051 -83.0566 L 27.2461 -83.0566 C 18.457 -83.0566 12.4512 -77.002 12.4512 -68.1641 L 12.4512 -62.0605 C 12.4512 -56.2012 15.0879 -51.5625 19.4336 -49.1211 L 19.4336 -5.71289 C 19.4336 5.9082 26.2207 12.6465 37.8906 12.6465 Z M 28.6621 -61.2793 C 27.1484 -61.2793 26.123 -62.2559 26.123 -63.7695 L 26.123 -66.4551 C 26.123 -67.9688 27.1484 -68.9941 28.6621 -68.9941 L 100.586 -68.9941 C 102.1 -68.9941 103.076 -67.9688 103.076 -66.4551 L 103.076 -63.7695 C 103.076 -62.2559 102.1 -61.2793 100.586 -61.2793 Z M 40.0879 -3.07617 C 36.8652 -3.07617 35.3027 -4.49219 35.3027 -7.86133 L 35.3027 -47.2168 L 93.9453 -47.2168 L 93.9453 -7.86133 C 93.9453 -4.49219 92.334 -3.07617 89.1602 -3.07617 Z M 50.1953 -26.3672 L 79.1016 -26.3672 C 82.3242 -26.3672 84.7656 -28.8574 84.7656 -32.1289 L 84.7656 -33.7402 C 84.7656 -37.0117 82.373 -39.4043 79.1016 -39.4043 L 50.1953 -39.4043 C 46.9238 -39.4043 44.5312 -37.0117 44.5312 -33.7402 L 44.5312 -32.1289 C 44.5312 -28.8574 46.9727 -26.3672 50.1953 -26.3672 Z"/>
  </g>
  <g id="Black-M" transform="matrix(1 0 0 1 2867.75 1126)">
   <path d="M 38.916 13.5742 L 92.3828 13.5742 C 104.688 13.5742 111.963 6.25 111.963 -6.00586 L 111.963 -47.9492 C 116.26 -50.7812 118.848 -55.7129 118.848 -61.7676 L 118.848 -67.4805 C 118.848 -77.1973 112.207 -83.9355 102.441 -83.9355 L 28.9551 -83.9355 C 19.1895 -83.9355 12.4512 -77.1973 12.4512 -67.4805 L 12.4512 -61.7676 C 12.4512 -55.7617 15.0879 -50.8301 19.3848 -47.998 L 19.3848 -6.00586 C 19.3848 6.25 26.6602 13.5742 38.916 13.5742 Z M 30.1758 -61.4258 C 28.9551 -61.4258 27.9297 -62.4512 27.9297 -63.6719 L 27.9297 -65.5762 C 27.9297 -66.7969 28.9551 -67.8223 30.1758 -67.8223 L 101.172 -67.8223 C 102.344 -67.8223 103.369 -66.7969 103.369 -65.5762 L 103.369 -63.6719 C 103.369 -62.4512 102.344 -61.4258 101.172 -61.4258 Z M 41.8457 -4.73633 C 39.0137 -4.73633 37.6465 -5.85938 37.6465 -8.93555 L 37.6465 -45.3125 L 93.6523 -45.3125 L 93.6523 -8.93555 C 93.6523 -5.85938 92.2852 -4.73633 89.4531 -4.73633 Z M 51.7578 -24.1699 L 79.6387 -24.1699 C 83.2031 -24.1699 85.9863 -26.9043 85.9863 -30.5664 L 85.9863 -32.1777 C 85.9863 -35.8398 83.3008 -38.5742 79.6387 -38.5742 L 51.7578 -38.5742 C 48.0957 -38.5742 45.4102 -35.8398 45.4102 -32.1777 L 45.4102 -30.5664 C 45.4102 -26.9043 48.1445 -24.1699 51.7578 -24.1699 Z"/>
  </g>
  <g id="Ultralight-L" transform="matrix(1 0 0 1 483.49 1556)">
   <path d="M 40.4297 19.7754 L 112.061 19.7754 C 122.51 19.7754 128.027 14.0625 128.027 3.80859 L 128.027 -63.3789 L 128.271 -63.3789 C 133.252 -63.3789 136.377 -66.748 136.377 -71.7773 L 136.377 -81.5918 C 136.377 -86.5723 133.252 -89.9902 128.271 -89.9902 L 24.1699 -89.9902 C 19.1895 -89.9902 16.0645 -86.5723 16.0645 -81.5918 L 16.0645 -71.7773 C 16.0645 -66.748 19.1895 -63.3789 24.1699 -63.3789 L 24.4141 -63.3789 L 24.4141 3.80859 C 24.4141 14.2578 29.9805 19.7754 40.4297 19.7754 Z M 23.9258 -65.9668 C 20.6543 -65.9668 18.6523 -68.3105 18.6523 -71.6309 L 18.6523 -81.7383 C 18.6523 -85.0586 20.6543 -87.4023 23.9258 -87.4023 L 128.516 -87.4023 C 131.836 -87.4023 133.838 -85.0586 133.838 -81.7383 L 133.838 -71.6309 C 133.838 -68.3105 131.836 -65.9668 128.516 -65.9668 Z M 40.625 17.1875 C 31.6406 17.1875 27.002 12.5488 27.002 3.56445 L 27.002 -63.3789 L 125.488 -63.3789 L 125.488 3.56445 C 125.488 12.5488 120.508 17.1875 111.865 17.1875 Z M 54.0527 -39.0137 L 98.3887 -39.0137 C 100.342 -39.0137 101.221 -40.1367 101.221 -42.0898 L 101.221 -43.6523 C 101.221 -45.6055 100.342 -46.7285 98.3887 -46.7285 L 54.0527 -46.7285 C 52.1484 -46.7285 51.2207 -45.6055 51.2207 -43.6523 L 51.2207 -42.0898 C 51.2207 -40.1367 52.1484 -39.0137 54.0527 -39.0137 Z"/>
  </g>
  <g id="Thin-L" transform="matrix(1 0 0 1 779.689 1556)">
   <path d="M 41.1621 20.3613 L 112.354 20.3613 C 123.145 20.3613 128.857 14.502 128.857 3.85742 L 128.857 -62.5 C 134.082 -62.5 137.402 -66.1621 137.402 -71.6309 L 137.402 -81.3965 C 137.402 -86.9141 134.082 -90.5762 128.613 -90.5762 L 24.9023 -90.5762 C 19.4336 -90.5762 16.0645 -86.9141 16.0645 -81.3965 L 16.0645 -71.6309 C 16.0645 -66.2598 19.2871 -62.5977 24.6094 -62.5 L 24.6094 3.85742 C 24.6094 14.6484 30.3711 20.3613 41.1621 20.3613 Z M 25.1465 -66.3574 C 21.875 -66.3574 20.0195 -68.5059 20.0195 -71.7773 L 20.0195 -81.25 C 20.0195 -84.5703 21.875 -86.7188 25.1465 -86.7188 L 128.32 -86.7188 C 131.641 -86.7188 133.496 -84.5703 133.496 -81.25 L 133.496 -71.7773 C 133.496 -68.5059 131.641 -66.3574 128.32 -66.3574 Z M 41.3086 16.5039 C 32.9102 16.5039 28.5645 12.1094 28.5645 3.75977 L 28.5645 -62.5 L 124.951 -62.5 L 124.951 3.75977 C 124.951 12.1094 120.264 16.5039 112.207 16.5039 Z M 54.834 -37.9395 L 98.6328 -37.9395 C 100.732 -37.9395 101.807 -39.209 101.807 -41.3086 L 101.807 -42.9199 C 101.807 -45.0195 100.732 -46.2891 98.6328 -46.2891 L 54.834 -46.2891 C 52.7832 -46.2891 51.709 -45.0195 51.709 -42.9199 L 51.709 -41.3086 C 51.709 -39.209 52.7832 -37.9395 54.834 -37.9395 Z"/>
  </g>
  <g id="Light-L" transform="matrix(1 0 0 1 1075.37 1556)">
   <path d="M 42.5781 21.4355 L 112.891 21.4355 C 124.365 21.4355 130.518 15.332 130.518 3.95508 L 130.518 -60.8398 C 136.182 -61.3281 139.404 -65.3809 139.404 -71.3867 L 139.404 -81.0547 C 139.404 -87.5 135.693 -91.6992 129.248 -91.6992 L 26.2695 -91.6992 C 19.9707 -91.6992 16.0645 -87.5 16.0645 -81.0547 L 16.0645 -71.3867 C 16.0645 -65.3809 19.3359 -61.3281 25 -60.8398 L 25 3.95508 C 25 15.4297 31.1035 21.4355 42.5781 21.4355 Z M 27.5391 -67.0898 C 24.3164 -67.0898 22.7051 -68.8477 22.7051 -72.1191 L 22.7051 -80.3711 C 22.7051 -83.5938 24.3164 -85.4004 27.5391 -85.4004 L 127.979 -85.4004 C 131.25 -85.4004 132.812 -83.5938 132.812 -80.3711 L 132.812 -72.1191 C 132.812 -68.8477 131.25 -67.0898 127.979 -67.0898 Z M 42.627 15.0879 C 35.4492 15.0879 31.5918 11.2793 31.5918 4.10156 L 31.5918 -60.791 L 123.877 -60.791 L 123.877 4.10156 C 123.877 11.2793 119.873 15.0879 112.842 15.0879 Z M 56.3477 -35.8398 L 99.2188 -35.8398 C 101.514 -35.8398 102.93 -37.3535 102.93 -39.7461 L 102.93 -41.5527 C 102.93 -43.9453 101.514 -45.4102 99.2188 -45.4102 L 56.3477 -45.4102 C 54.0039 -45.4102 52.6367 -43.9453 52.6367 -41.5527 L 52.6367 -39.7461 C 52.6367 -37.3535 54.0039 -35.8398 56.3477 -35.8398 Z"/>
  </g>
  <g id="Regular-L" transform="matrix(1 0 0 1 1371.33 1556)">
   <path d="M 43.7012 22.2168 L 113.33 22.2168 C 125.342 22.2168 131.738 15.9668 131.738 4.00391 L 131.738 -59.6191 C 137.646 -60.4004 140.918 -64.7461 140.918 -71.1914 L 140.918 -80.8105 C 140.918 -87.9883 136.914 -92.5293 129.736 -92.5293 L 27.2949 -92.5293 C 20.4102 -92.5293 16.0645 -87.9883 16.0645 -80.8105 L 16.0645 -71.1914 C 16.0645 -64.7461 19.3359 -60.4004 25.293 -59.6191 L 25.293 4.00391 C 25.293 16.0156 31.6895 22.2168 43.7012 22.2168 Z M 29.2969 -67.627 C 26.123 -67.627 24.7559 -69.1406 24.7559 -72.3633 L 24.7559 -79.6875 C 24.7559 -82.8613 26.123 -84.375 29.2969 -84.375 L 127.734 -84.375 C 130.957 -84.375 132.275 -82.8613 132.275 -79.6875 L 132.275 -72.3633 C 132.275 -69.1406 130.957 -67.627 127.734 -67.627 Z M 43.6523 14.0625 C 37.3535 14.0625 33.9355 10.6445 33.9355 4.3457 L 33.9355 -59.4727 L 123.096 -59.4727 L 123.096 4.3457 C 123.096 10.6445 119.531 14.0625 113.379 14.0625 Z M 57.4707 -34.2773 L 99.6094 -34.2773 C 102.1 -34.2773 103.76 -35.9863 103.76 -38.5742 L 103.76 -40.4785 C 103.76 -43.1152 102.1 -44.7266 99.6094 -44.7266 L 57.4707 -44.7266 C 54.9316 -44.7266 53.3203 -43.1152 53.3203 -40.4785 L 53.3203 -38.5742 C 53.3203 -35.9863 54.9316 -34.2773 57.4707 -34.2773 Z"/>
  </g>
  <g id="Medium-L" transform="matrix(1 0 0 1 1667.19 1556)">
   <path d="M 44.6289 22.998 L 114.111 22.998 C 126.66 22.998 133.447 16.3086 133.447 3.80859 L 133.447 -58.3008 C 139.355 -59.5703 142.627 -64.2578 142.627 -70.9473 L 142.627 -80.2734 C 142.627 -88.1836 138.037 -93.3105 130.078 -93.3105 L 28.6621 -93.3105 C 20.9961 -93.3105 16.0645 -88.1836 16.0645 -80.2734 L 16.0645 -70.9473 C 16.0645 -64.2578 19.3848 -59.5703 25.2441 -58.3008 L 25.2441 3.80859 C 25.2441 16.3574 32.0801 22.998 44.6289 22.998 Z M 30.7129 -67.8711 C 27.7344 -67.8711 26.3672 -69.3359 26.3672 -72.3145 L 26.3672 -78.9551 C 26.3672 -81.9336 27.7344 -83.3984 30.7129 -83.3984 L 128.076 -83.3984 C 131.055 -83.3984 132.373 -81.9336 132.373 -78.9551 L 132.373 -72.3145 C 132.373 -69.3359 131.055 -67.8711 128.076 -67.8711 Z M 45.0684 12.6953 C 39.1602 12.6953 35.9863 9.57031 35.9863 3.66211 L 35.9863 -57.9102 L 122.754 -57.9102 L 122.754 3.66211 C 122.754 9.57031 119.482 12.6953 113.672 12.6953 Z M 58.7402 -32.4219 L 100.049 -32.4219 C 102.832 -32.4219 104.736 -34.4238 104.736 -37.3047 L 104.736 -39.209 C 104.736 -42.1387 102.832 -44.043 100.049 -44.043 L 58.7402 -44.043 C 55.957 -44.043 54.0527 -42.1387 54.0527 -39.209 L 54.0527 -37.3047 C 54.0527 -34.4238 55.957 -32.4219 58.7402 -32.4219 Z"/>
  </g>
  <g id="Semibold-L" transform="matrix(1 0 0 1 1963.24 1556)">
   <path d="M 45.3125 23.584 L 114.697 23.584 C 127.686 23.584 134.814 16.6016 134.814 3.66211 L 134.814 -57.3242 C 140.625 -58.9355 143.945 -63.916 143.945 -70.8008 L 143.945 -79.8828 C 143.945 -88.3789 138.867 -93.9453 130.322 -93.9453 L 29.7363 -93.9453 C 21.4355 -93.9453 16.0645 -88.3789 16.0645 -79.8828 L 16.0645 -70.8008 C 16.0645 -63.916 19.4336 -58.9355 25.2441 -57.3242 L 25.2441 3.66211 C 25.2441 16.6016 32.373 23.584 45.3125 23.584 Z M 31.7871 -68.0176 C 28.9551 -68.0176 27.5879 -69.4824 27.5879 -72.2656 L 27.5879 -78.3691 C 27.5879 -81.2012 28.9551 -82.6172 31.7871 -82.6172 L 128.32 -82.6172 C 131.152 -82.6172 132.422 -81.2012 132.422 -78.3691 L 132.422 -72.2656 C 132.422 -69.4824 131.152 -68.0176 128.32 -68.0176 Z M 46.1426 11.6699 C 40.5762 11.6699 37.5977 8.74023 37.5977 3.125 L 37.5977 -56.7383 L 122.461 -56.7383 L 122.461 3.125 C 122.461 8.74023 119.385 11.6699 113.916 11.6699 Z M 59.7168 -31.0547 L 100.391 -31.0547 C 103.369 -31.0547 105.518 -33.2031 105.518 -36.2793 L 105.518 -38.2812 C 105.518 -41.3574 103.418 -43.457 100.391 -43.457 L 59.7168 -43.457 C 56.6895 -43.457 54.5898 -41.3574 54.5898 -38.2812 L 54.5898 -36.2793 C 54.5898 -33.2031 56.7383 -31.0547 59.7168 -31.0547 Z"/>
  </g>
  <g id="Bold-L" transform="matrix(1 0 0 1 2259.09 1556)">
   <path d="M 46.2891 24.3652 L 115.527 24.3652 C 129.004 24.3652 136.523 16.9434 136.523 3.4668 L 136.523 -56.1035 C 142.334 -58.1543 145.703 -63.4277 145.703 -70.5566 L 145.703 -79.3457 C 145.703 -88.5742 140.039 -94.7266 130.713 -94.7266 L 31.1035 -94.7266 C 22.0215 -94.7266 16.0645 -88.5742 16.0645 -79.3457 L 16.0645 -70.5566 C 16.0645 -63.4766 19.4824 -58.2031 25.2441 -56.1523 L 25.2441 3.4668 C 25.2441 16.9922 32.7637 24.3652 46.2891 24.3652 Z M 33.1543 -68.2617 C 30.5664 -68.2617 29.248 -69.6289 29.248 -72.2656 L 29.248 -77.6367 C 29.248 -80.2734 30.5664 -81.6406 33.1543 -81.6406 L 128.662 -81.6406 C 131.25 -81.6406 132.52 -80.2734 132.52 -77.6367 L 132.52 -72.2656 C 132.52 -69.6289 131.25 -68.2617 128.662 -68.2617 Z M 47.5586 10.3027 C 42.4316 10.3027 39.6973 7.66602 39.6973 2.39258 L 39.6973 -55.1758 L 122.119 -55.1758 L 122.119 2.39258 C 122.119 7.66602 119.336 10.3027 114.209 10.3027 Z M 61.0352 -29.1504 L 100.83 -29.1504 C 104.102 -29.1504 106.543 -31.5918 106.543 -35.0098 L 106.543 -36.9629 C 106.543 -40.3809 104.15 -42.7246 100.83 -42.7246 L 61.0352 -42.7246 C 57.7148 -42.7246 55.3223 -40.3809 55.3223 -36.9629 L 55.3223 -35.0098 C 55.3223 -31.5918 57.7148 -29.1504 61.0352 -29.1504 Z"/>
  </g>
  <g id="Heavy-L" transform="matrix(1 0 0 1 2554.54 1556)">
   <path d="M 47.6074 25.4883 L 116.699 25.4883 C 130.957 25.4883 139.062 17.4805 139.062 3.22266 L 139.062 -54.4922 C 144.824 -57.1289 148.242 -62.793 148.242 -70.2148 L 148.242 -78.5645 C 148.242 -88.916 141.65 -95.8496 131.201 -95.8496 L 33.1055 -95.8496 C 22.9004 -95.8496 16.0645 -88.916 16.0645 -78.5645 L 16.0645 -70.2148 C 16.0645 -62.793 19.4824 -57.1289 25.2441 -54.541 L 25.2441 3.22266 C 25.2441 17.4805 33.3496 25.4883 47.6074 25.4883 Z M 35.2051 -68.6035 C 32.8613 -68.6035 31.6406 -69.9219 31.6406 -72.2168 L 31.6406 -76.5625 C 31.6406 -78.8574 32.8613 -80.1758 35.2051 -80.1758 L 129.15 -80.1758 C 131.445 -80.1758 132.666 -78.8574 132.666 -76.5625 L 132.666 -72.2168 C 132.666 -69.9219 131.445 -68.6035 129.15 -68.6035 Z M 49.6582 8.30078 C 45.0684 8.30078 42.7246 6.10352 42.7246 1.36719 L 42.7246 -52.9297 L 121.582 -52.9297 L 121.582 1.36719 C 121.582 6.10352 119.189 8.30078 114.648 8.30078 Z M 62.9395 -26.4648 L 101.465 -26.4648 C 105.176 -26.4648 107.959 -29.248 107.959 -33.1055 L 107.959 -35.1074 C 107.959 -38.9648 105.225 -41.6504 101.465 -41.6504 L 62.9395 -41.6504 C 59.1309 -41.6504 56.3965 -38.9648 56.3965 -35.1074 L 56.3965 -33.1055 C 56.3965 -29.248 59.1797 -26.4648 62.9395 -26.4648 Z"/>
  </g>
  <g id="Black-L" transform="matrix(1 0 0 1 2850.12 1556)">
   <path d="M 48.8281 26.5137 L 117.725 26.5137 C 132.666 26.5137 141.357 17.9199 141.357 2.97852 L 141.357 -53.125 C 147.07 -56.2012 150.488 -62.207 150.488 -69.9219 L 150.488 -77.8809 C 150.488 -89.209 143.115 -96.875 131.689 -96.875 L 34.9121 -96.875 C 23.6816 -96.875 16.0645 -89.209 16.0645 -77.8809 L 16.0645 -69.9219 C 16.0645 -62.2559 19.4824 -56.25 25.1953 -53.1738 L 25.1953 2.97852 C 25.1953 17.9199 33.8867 26.5137 48.8281 26.5137 Z M 37.0117 -68.8965 C 34.9609 -68.8965 33.7402 -70.1172 33.7402 -72.168 L 33.7402 -75.6348 C 33.7402 -77.6367 34.9609 -78.8574 37.0117 -78.8574 L 129.59 -78.8574 C 131.592 -78.8574 132.812 -77.6367 132.812 -75.6348 L 132.812 -72.168 C 132.812 -70.1172 131.592 -68.8965 129.59 -68.8965 Z M 51.5137 6.49414 C 47.4609 6.49414 45.459 4.6875 45.459 0.439453 L 45.459 -50.8789 L 121.094 -50.8789 L 121.094 0.439453 C 121.094 4.6875 119.092 6.49414 115.088 6.49414 Z M 64.5996 -24.0723 L 102.051 -24.0723 C 106.152 -24.0723 109.277 -27.1973 109.277 -31.3965 L 109.277 -33.4473 C 109.277 -37.6953 106.201 -40.7227 102.051 -40.7227 L 64.5996 -40.7227 C 60.4492 -40.7227 57.373 -37.6953 57.373 -33.4473 L 57.373 -31.3965 C 57.373 -27.1973 60.498 -24.0723 64.5996 -24.0723 Z"/>
  </g>
 </g>
</svg>
