<?xml version="1.0" encoding="UTF-8"?>
<!--Generator: Apple Native CoreSVG 123-->
<!DOCTYPE svg
PUBLIC "-//W3C//DTD SVG 1.1//EN"
       "http://www.w3.org/Graphics/SVG/1.1/DTD/svg11.dtd">
<svg version="1.1" xmlns="http://www.w3.org/2000/svg" xmlns:xlink="http://www.w3.org/1999/xlink" width="3300" height="2200">
 <!--glyph: "uni100120.medium", point size: 100.000000, font version: "Version 15.0d4e20", template writer version: "2"-->
 <g id="Notes">
  <rect height="2200" id="artboard" style="fill:white;opacity:1" width="3300" x="0" y="0"/>
  <line id="" style="fill:none;stroke:black;opacity:1;stroke-width:0.5;" x1="263" x2="3036" y1="292" y2="292"/>
  <text style="stroke:none;fill:black;font-family:-apple-system,&quot;SF Pro Display&quot;,&quot;SF Pro Text&quot;,Helvetica,sans-serif;font-weight:bold;" transform="matrix(1 0 0 1 263 322)">Weight/Scale Variations</text>
  <text style="stroke:none;fill:black;font-family:-apple-system,&quot;SF Pro Display&quot;,&quot;SF Pro Text&quot;,Helvetica,sans-serif;text-anchor:middle;" transform="matrix(1 0 0 1 559.711 322)">Ultralight</text>
  <text style="stroke:none;fill:black;font-family:-apple-system,&quot;SF Pro Display&quot;,&quot;SF Pro Text&quot;,Helvetica,sans-serif;text-anchor:middle;" transform="matrix(1 0 0 1 856.422 322)">Thin</text>
  <text style="stroke:none;fill:black;font-family:-apple-system,&quot;SF Pro Display&quot;,&quot;SF Pro Text&quot;,Helvetica,sans-serif;text-anchor:middle;" transform="matrix(1 0 0 1 1153.13 322)">Light</text>
  <text style="stroke:none;fill:black;font-family:-apple-system,&quot;SF Pro Display&quot;,&quot;SF Pro Text&quot;,Helvetica,sans-serif;text-anchor:middle;" transform="matrix(1 0 0 1 1449.84 322)">Regular</text>
  <text style="stroke:none;fill:black;font-family:-apple-system,&quot;SF Pro Display&quot;,&quot;SF Pro Text&quot;,Helvetica,sans-serif;text-anchor:middle;" transform="matrix(1 0 0 1 1746.56 322)">Medium</text>
  <text style="stroke:none;fill:black;font-family:-apple-system,&quot;SF Pro Display&quot;,&quot;SF Pro Text&quot;,Helvetica,sans-serif;text-anchor:middle;" transform="matrix(1 0 0 1 2043.27 322)">Semibold</text>
  <text style="stroke:none;fill:black;font-family:-apple-system,&quot;SF Pro Display&quot;,&quot;SF Pro Text&quot;,Helvetica,sans-serif;text-anchor:middle;" transform="matrix(1 0 0 1 2339.98 322)">Bold</text>
  <text style="stroke:none;fill:black;font-family:-apple-system,&quot;SF Pro Display&quot;,&quot;SF Pro Text&quot;,Helvetica,sans-serif;text-anchor:middle;" transform="matrix(1 0 0 1 2636.69 322)">Heavy</text>
  <text style="stroke:none;fill:black;font-family:-apple-system,&quot;SF Pro Display&quot;,&quot;SF Pro Text&quot;,Helvetica,sans-serif;text-anchor:middle;" transform="matrix(1 0 0 1 2933.4 322)">Black</text>
  <line id="" style="fill:none;stroke:black;opacity:1;stroke-width:0.5;" x1="263" x2="3036" y1="1903" y2="1903"/>
  <g id="" transform="matrix(1 0 0 1 263 1933)">
   <path d="M 9.24805 0.830078 C 13.5547 0.830078 17.1387 -2.74414 17.1387 -7.05078 C 17.1387 -11.3574 13.5449 -14.9316 9.23828 -14.9316 C 4.94141 -14.9316 1.36719 -11.3574 1.36719 -7.05078 C 1.36719 -2.74414 4.95117 0.830078 9.24805 0.830078 Z M 9.24805 -0.654297 C 5.70312 -0.654297 2.87109 -3.49609 2.87109 -7.05078 C 2.87109 -10.6055 5.69336 -13.4473 9.23828 -13.4473 C 12.793 -13.4473 15.6348 -10.6055 15.6445 -7.05078 C 15.6543 -3.49609 12.8027 -0.654297 9.24805 -0.654297 Z M 9.22852 -3.42773 C 9.69727 -3.42773 9.9707 -3.74023 9.9707 -4.25781 L 9.9707 -6.31836 L 12.1973 -6.31836 C 12.6953 -6.31836 13.0371 -6.57227 13.0371 -7.04102 C 13.0371 -7.51953 12.7148 -7.7832 12.1973 -7.7832 L 9.9707 -7.7832 L 9.9707 -10.0098 C 9.9707 -10.5273 9.69727 -10.8496 9.22852 -10.8496 C 8.75977 -10.8496 8.50586 -10.5078 8.50586 -10.0098 L 8.50586 -7.7832 L 6.29883 -7.7832 C 5.78125 -7.7832 5.44922 -7.51953 5.44922 -7.04102 C 5.44922 -6.57227 5.80078 -6.31836 6.29883 -6.31836 L 8.50586 -6.31836 L 8.50586 -4.25781 C 8.50586 -3.75977 8.75977 -3.42773 9.22852 -3.42773 Z"/>
  </g>
  <g id="" transform="matrix(1 0 0 1 281.506 1933)">
   <path d="M 11.709 2.91016 C 17.1484 2.91016 21.6699 -1.60156 21.6699 -7.05078 C 21.6699 -12.4902 17.1387 -17.0117 11.6992 -17.0117 C 6.25 -17.0117 1.74805 -12.4902 1.74805 -7.05078 C 1.74805 -1.60156 6.25977 2.91016 11.709 2.91016 Z M 11.709 1.25 C 7.09961 1.25 3.41797 -2.44141 3.41797 -7.05078 C 3.41797 -11.6504 7.08984 -15.3516 11.6992 -15.3516 C 16.2988 -15.3516 20 -11.6504 20.0098 -7.05078 C 20.0195 -2.44141 16.3086 1.25 11.709 1.25 Z M 11.6797 -2.41211 C 12.207 -2.41211 12.5195 -2.77344 12.5195 -3.33984 L 12.5195 -6.23047 L 15.5762 -6.23047 C 16.123 -6.23047 16.5039 -6.51367 16.5039 -7.03125 C 16.5039 -7.55859 16.1426 -7.86133 15.5762 -7.86133 L 12.5195 -7.86133 L 12.5195 -10.9277 C 12.5195 -11.5039 12.207 -11.8555 11.6797 -11.8555 C 11.1621 -11.8555 10.8789 -11.4844 10.8789 -10.9277 L 10.8789 -7.86133 L 7.83203 -7.86133 C 7.25586 -7.86133 6.89453 -7.55859 6.89453 -7.03125 C 6.89453 -6.51367 7.28516 -6.23047 7.83203 -6.23047 L 10.8789 -6.23047 L 10.8789 -3.33984 C 10.8789 -2.79297 11.1621 -2.41211 11.6797 -2.41211 Z"/>
  </g>
  <g id="" transform="matrix(1 0 0 1 304.914 1933)">
   <path d="M 14.9707 5.67383 C 21.9336 5.67383 27.6855 -0.078125 27.6855 -7.04102 C 27.6855 -14.0039 21.9238 -19.7559 14.9609 -19.7559 C 7.99805 -19.7559 2.25586 -14.0039 2.25586 -7.04102 C 2.25586 -0.078125 8.00781 5.67383 14.9707 5.67383 Z M 14.9707 3.85742 C 8.92578 3.85742 4.08203 -1.00586 4.08203 -7.04102 C 4.08203 -13.0762 8.91602 -17.9395 14.9609 -17.9395 C 20.9961 -17.9395 25.8594 -13.0762 25.8691 -7.04102 C 25.8789 -1.00586 21.0059 3.85742 14.9707 3.85742 Z M 14.9414 -1.06445 C 15.5176 -1.06445 15.8594 -1.45508 15.8594 -2.06055 L 15.8594 -6.13281 L 20.0977 -6.13281 C 20.6934 -6.13281 21.1133 -6.46484 21.1133 -7.02148 C 21.1133 -7.59766 20.7227 -7.93945 20.0977 -7.93945 L 15.8594 -7.93945 L 15.8594 -12.1875 C 15.8594 -12.8027 15.5176 -13.1934 14.9414 -13.1934 C 14.3848 -13.1934 14.0625 -12.7832 14.0625 -12.1875 L 14.0625 -7.93945 L 9.82422 -7.93945 C 9.20898 -7.93945 8.80859 -7.59766 8.80859 -7.02148 C 8.80859 -6.46484 9.23828 -6.13281 9.82422 -6.13281 L 14.0625 -6.13281 L 14.0625 -2.06055 C 14.0625 -1.47461 14.3848 -1.06445 14.9414 -1.06445 Z"/>
  </g>
  <text style="stroke:none;fill:black;font-family:-apple-system,&quot;SF Pro Display&quot;,&quot;SF Pro Text&quot;,Helvetica,sans-serif;font-weight:bold;" transform="matrix(1 0 0 1 263 1953)">Design Variations</text>
  <text style="stroke:none;fill:black;font-family:-apple-system,&quot;SF Pro Display&quot;,&quot;SF Pro Text&quot;,Helvetica,sans-serif;" transform="matrix(1 0 0 1 263 1971)">Symbols are supported in up to nine weights and three scales.</text>
  <text style="stroke:none;fill:black;font-family:-apple-system,&quot;SF Pro Display&quot;,&quot;SF Pro Text&quot;,Helvetica,sans-serif;" transform="matrix(1 0 0 1 263 1989)">For optimal layout with text and other symbols, vertically align</text>
  <text style="stroke:none;fill:black;font-family:-apple-system,&quot;SF Pro Display&quot;,&quot;SF Pro Text&quot;,Helvetica,sans-serif;" transform="matrix(1 0 0 1 263 2007)">symbols with the adjacent text.</text>
  <rect height="14" id="" style="fill:#00AEEF;stroke:none;opacity:0.4;" width="3" x="776" y="1919"/>
  <g id="" transform="matrix(1 0 0 1 779 1933)">
   <path d="M 10.5273 0 L 12.373 0 L 7.17773 -14.0918 L 5.43945 -14.0918 L 0.244141 0 L 2.08984 0 L 3.50586 -4.0332 L 9.11133 -4.0332 Z M 6.2793 -11.9531 L 6.33789 -11.9531 L 8.59375 -5.52734 L 4.02344 -5.52734 Z"/>
  </g>
  <rect height="14" id="" style="fill:#00AEEF;stroke:none;opacity:0.4;" width="3" x="791.617" y="1919"/>
  <text style="stroke:none;fill:black;font-family:-apple-system,&quot;SF Pro Display&quot;,&quot;SF Pro Text&quot;,Helvetica,sans-serif;font-weight:bold;" transform="matrix(1 0 0 1 776 1953)">Side Bearings</text>
  <text style="stroke:none;fill:black;font-family:-apple-system,&quot;SF Pro Display&quot;,&quot;SF Pro Text&quot;,Helvetica,sans-serif;" transform="matrix(1 0 0 1 776 1971)">Horizontal padding on the left and right side of each symbol</text>
  <text style="stroke:none;fill:black;font-family:-apple-system,&quot;SF Pro Display&quot;,&quot;SF Pro Text&quot;,Helvetica,sans-serif;" transform="matrix(1 0 0 1 776 1989)">can be adjusted by modifying the width of the blue rectangles.</text>
  <text style="stroke:none;fill:black;font-family:-apple-system,&quot;SF Pro Display&quot;,&quot;SF Pro Text&quot;,Helvetica,sans-serif;" transform="matrix(1 0 0 1 776 2007)">Modifications are automatically applied proportionally to all</text>
  <text style="stroke:none;fill:black;font-family:-apple-system,&quot;SF Pro Display&quot;,&quot;SF Pro Text&quot;,Helvetica,sans-serif;" transform="matrix(1 0 0 1 776 2025)">scales and weights.</text>
  <g id="" transform="matrix(1 0 0 1 1289 1933)">
   <path d="M 2.96875 2.35352 L 3.80859 3.19336 C 4.84375 4.22852 6.12305 4.15039 7.19727 2.97852 L 16.1621 -6.82617 C 16.5527 -6.74805 16.9629 -6.8457 17.4902 -7.02148 C 18.1738 -7.25586 18.2715 -7.25586 18.3887 -7.13867 C 18.5352 -7.01172 18.4863 -6.89453 18.2422 -6.25 C 17.8809 -5.33203 17.8125 -4.79492 18.5547 -4.02344 L 19.4238 -3.13477 C 20.2734 -2.24609 21.3281 -2.26562 22.2168 -3.14453 L 25.0586 -5.97656 C 25.9473 -6.86523 25.957 -7.92969 25.0781 -8.7793 L 24.1797 -9.64844 C 23.4082 -10.4004 22.8711 -10.3516 21.9629 -9.98047 C 21.3184 -9.72656 21.2012 -9.6875 21.0645 -9.81445 C 20.9375 -9.93164 20.9473 -10.0391 21.1816 -10.7129 C 21.5332 -11.6895 21.5723 -12.2852 20.752 -13.0957 L 19.3359 -14.5117 C 15.1953 -18.6133 11.2305 -18.7402 7.65625 -15.4395 C 7.08008 -14.9023 6.99219 -14.1504 7.53906 -13.6133 L 7.79297 -13.3594 C 8.22266 -12.9297 8.86719 -12.8418 9.41406 -13.1152 C 11.0645 -13.9453 12.2559 -14.0234 13.457 -12.9785 L 13.0273 -11.416 C 12.8516 -10.8008 12.793 -10.3418 12.9199 -9.93164 L 3.18359 -1.04492 C 2.02148 0.0292969 1.93359 1.32812 2.96875 2.35352 Z M 8.96484 -14.4922 C 8.89648 -14.5703 8.86719 -14.6582 8.99414 -14.7559 C 11.709 -17.2852 15.0391 -16.8457 18.3496 -13.5254 L 19.6973 -12.168 C 20.0879 -11.7773 20.0977 -11.582 19.8828 -10.8691 C 19.6582 -10.127 19.502 -9.53125 20.1465 -8.88672 C 20.8105 -8.22266 21.2891 -8.41797 22.207 -8.63281 C 22.9004 -8.79883 23.0664 -8.79883 23.4473 -8.41797 L 24.0918 -7.77344 C 24.4043 -7.48047 24.4141 -7.32422 24.0723 -6.97266 L 21.2207 -4.13086 C 20.8887 -3.79883 20.7227 -3.79883 20.4297 -4.10156 L 19.7852 -4.75586 C 19.4141 -5.13672 19.4141 -5.30273 19.5801 -6.01562 C 19.7852 -6.88477 19.9805 -7.38281 19.3262 -8.04688 C 18.6719 -8.7207 18.0762 -8.57422 17.3438 -8.33008 C 16.5625 -8.06641 16.3281 -8.06641 15.8984 -8.49609 L 14.6094 -9.78516 C 14.1699 -10.2246 14.1309 -10.4395 14.2676 -10.9082 L 15.0293 -13.3984 C 13.3887 -15.2832 11.4941 -15.5566 9.20898 -14.4434 C 9.11133 -14.3945 9.04297 -14.4141 8.96484 -14.4922 Z M 3.96484 1.36719 C 3.52539 0.927734 3.54492 0.537109 4.14062 -0.00976562 L 13.7402 -8.81836 L 15 -7.55859 L 6.17188 2.02148 C 5.625 2.60742 5.24414 2.64648 4.79492 2.19727 Z"/>
  </g>
  <text style="stroke:none;fill:black;font-family:-apple-system,&quot;SF Pro Display&quot;,&quot;SF Pro Text&quot;,Helvetica,sans-serif;font-weight:bold;" transform="matrix(1 0 0 1 1289 1953)">Exporting</text>
  <text style="stroke:none;fill:black;font-family:-apple-system,&quot;SF Pro Display&quot;,&quot;SF Pro Text&quot;,Helvetica,sans-serif;" transform="matrix(1 0 0 1 1289 1971)">Symbols should be outlined when exporting to ensure the</text>
  <text style="stroke:none;fill:black;font-family:-apple-system,&quot;SF Pro Display&quot;,&quot;SF Pro Text&quot;,Helvetica,sans-serif;" transform="matrix(1 0 0 1 1289 1989)">design is preserved when submitting to Xcode.</text>
  <text id="template-version" style="stroke:none;fill:black;font-family:-apple-system,&quot;SF Pro Display&quot;,&quot;SF Pro Text&quot;,Helvetica,sans-serif;text-anchor:end;" transform="matrix(1 0 0 1 3036 1933)">Template v.0.1</text>
  <text style="stroke:none;fill:black;font-family:-apple-system,&quot;SF Pro Display&quot;,&quot;SF Pro Text&quot;,Helvetica,sans-serif;text-anchor:end;" transform="matrix(1 0 0 1 3036 1951)">Generated from arrow.uturn.right.square</text>
  <text style="stroke:none;fill:black;font-family:-apple-system,&quot;SF Pro Display&quot;,&quot;SF Pro Text&quot;,Helvetica,sans-serif;text-anchor:end;" transform="matrix(1 0 0 1 3036 1969)">Typeset at 100 points</text>
  <text style="stroke:none;fill:black;font-family:-apple-system,&quot;SF Pro Display&quot;,&quot;SF Pro Text&quot;,Helvetica,sans-serif;" transform="matrix(1 0 0 1 263 726)">Small</text>
  <text style="stroke:none;fill:black;font-family:-apple-system,&quot;SF Pro Display&quot;,&quot;SF Pro Text&quot;,Helvetica,sans-serif;" transform="matrix(1 0 0 1 263 1156)">Medium</text>
  <text style="stroke:none;fill:black;font-family:-apple-system,&quot;SF Pro Display&quot;,&quot;SF Pro Text&quot;,Helvetica,sans-serif;" transform="matrix(1 0 0 1 263 1586)">Large</text>
 </g>
 <g id="Guides">
  <g id="H-reference" style="fill:#27AAE1;stroke:none;" transform="matrix(1 0 0 1 339 696)">
   <path d="M 54.9316 0 L 57.666 0 L 30.5664 -70.459 L 28.0762 -70.459 L 0.976562 0 L 3.66211 0 L 12.9395 -24.4629 L 45.7031 -24.4629 Z M 29.1992 -67.0898 L 29.4434 -67.0898 L 44.8242 -26.709 L 13.8184 -26.709 Z"/>
  </g>
  <line id="Baseline-S" style="fill:none;stroke:#27AAE1;opacity:1;stroke-width:0.577;" x1="263" x2="3036" y1="696" y2="696"/>
  <line id="Capline-S" style="fill:none;stroke:#27AAE1;opacity:1;stroke-width:0.577;" x1="263" x2="3036" y1="625.541" y2="625.541"/>
  <g id="H-reference" style="fill:#27AAE1;stroke:none;" transform="matrix(1 0 0 1 339 1126)">
   <path d="M 54.9316 0 L 57.666 0 L 30.5664 -70.459 L 28.0762 -70.459 L 0.976562 0 L 3.66211 0 L 12.9395 -24.4629 L 45.7031 -24.4629 Z M 29.1992 -67.0898 L 29.4434 -67.0898 L 44.8242 -26.709 L 13.8184 -26.709 Z"/>
  </g>
  <line id="Baseline-M" style="fill:none;stroke:#27AAE1;opacity:1;stroke-width:0.577;" x1="263" x2="3036" y1="1126" y2="1126"/>
  <line id="Capline-M" style="fill:none;stroke:#27AAE1;opacity:1;stroke-width:0.577;" x1="263" x2="3036" y1="1055.54" y2="1055.54"/>
  <g id="H-reference" style="fill:#27AAE1;stroke:none;" transform="matrix(1 0 0 1 339 1556)">
   <path d="M 54.9316 0 L 57.666 0 L 30.5664 -70.459 L 28.0762 -70.459 L 0.976562 0 L 3.66211 0 L 12.9395 -24.4629 L 45.7031 -24.4629 Z M 29.1992 -67.0898 L 29.4434 -67.0898 L 44.8242 -26.709 L 13.8184 -26.709 Z"/>
  </g>
  <line id="Baseline-L" style="fill:none;stroke:#27AAE1;opacity:1;stroke-width:0.577;" x1="263" x2="3036" y1="1556" y2="1556"/>
  <line id="Capline-L" style="fill:none;stroke:#27AAE1;opacity:1;stroke-width:0.577;" x1="263" x2="3036" y1="1485.54" y2="1485.54"/>
  <rect height="119.336" id="left-margin" style="fill:#00AEEF;stroke:none;opacity:0.4;" width="12.4512" x="1392.42" y="1030.79"/>
  <rect height="119.336" id="right-margin" style="fill:#00AEEF;stroke:none;opacity:0.4;" width="12.5" x="1494.77" y="1030.79"/>
 </g>
 <g id="Symbols">
  <g id="Ultralight-S" transform="matrix(1 0 0 1 516.352 696)">
   <path d="M 19.7754 -2.05078 L 66.9922 -2.05078 C 73.5352 -2.05078 76.9531 -5.61523 76.9531 -12.0117 L 76.9531 -59.2773 C 76.9531 -65.7227 73.5352 -69.2383 66.9922 -69.2383 L 19.7754 -69.2383 C 13.2324 -69.2383 9.76562 -65.7715 9.76562 -59.2773 L 9.76562 -12.0117 C 9.76562 -5.51758 13.2324 -2.05078 19.7754 -2.05078 Z M 19.873 -4.24805 C 14.6484 -4.24805 11.9629 -6.93359 11.9629 -12.1582 L 11.9629 -59.1309 C 11.9629 -64.3555 14.6484 -67.041 19.873 -67.041 L 66.8945 -67.041 C 71.875 -67.041 74.7559 -64.3555 74.7559 -59.1309 L 74.7559 -12.1582 C 74.7559 -6.93359 71.875 -4.24805 66.8945 -4.24805 Z M 25.3418 -31.25 C 25.3418 -23.5352 30.9082 -18.4082 39.209 -18.4082 L 45.5078 -18.4082 C 46.1426 -18.4082 46.582 -18.7988 46.582 -19.4824 C 46.582 -20.1172 46.1426 -20.5566 45.5078 -20.5566 L 39.209 -20.5566 C 32.2266 -20.5566 27.4902 -24.8047 27.4902 -31.2988 C 27.4902 -37.7441 32.2266 -41.9922 39.209 -41.9922 L 54.541 -41.9922 L 58.5938 -42.0898 L 56.7383 -40.625 L 49.2676 -33.1543 C 48.9746 -32.9102 48.7793 -32.6172 48.7793 -32.2754 C 48.7793 -31.6406 49.2188 -31.1523 49.9023 -31.1523 C 50.293 -31.1523 50.5371 -31.2988 50.7812 -31.4941 L 60.9375 -41.8457 C 61.2305 -42.1875 61.4258 -42.5781 61.4258 -43.0664 C 61.4258 -43.5059 61.2305 -43.9453 60.9375 -44.2383 L 50.7812 -54.5898 C 50.5371 -54.834 50.293 -54.9805 49.9023 -54.9805 C 49.2188 -54.9805 48.7793 -54.4922 48.7793 -53.8574 C 48.7793 -53.4668 48.9746 -53.2227 49.2676 -52.9297 L 56.6895 -45.5566 L 58.5938 -44.043 L 54.541 -44.1406 L 39.209 -44.1406 C 30.9082 -44.1406 25.3418 -39.0137 25.3418 -31.25 Z"/>
  </g>
  <g id="Thin-S" transform="matrix(1 0 0 1 812.599 696)">
   <path d="M 20.3125 -1.61133 L 67.334 -1.61133 C 74.2676 -1.61133 77.8809 -5.27344 77.8809 -12.1094 L 77.8809 -59.1797 C 77.8809 -66.0645 74.2676 -69.7266 67.334 -69.7266 L 20.3125 -69.7266 C 13.3789 -69.7266 9.76562 -66.1133 9.76562 -59.1797 L 9.76562 -12.1094 C 9.76562 -5.17578 13.3789 -1.61133 20.3125 -1.61133 Z M 20.4102 -4.93164 C 15.625 -4.93164 13.0859 -7.42188 13.0859 -12.3047 L 13.0859 -59.0332 C 13.0859 -63.8672 15.625 -66.4062 20.4102 -66.4062 L 67.2363 -66.4062 C 71.875 -66.4062 74.5605 -63.8672 74.5605 -59.0332 L 74.5605 -12.3047 C 74.5605 -7.42188 71.875 -4.93164 67.2363 -4.93164 Z M 25.293 -31.1523 C 25.293 -22.998 31.2012 -17.7246 39.6484 -17.7246 L 45.6543 -17.7246 C 46.582 -17.7246 47.2656 -18.2617 47.2656 -19.2383 C 47.2656 -20.2148 46.582 -20.8008 45.7031 -20.8008 L 39.6484 -20.8008 C 33.0078 -20.8008 28.418 -24.9023 28.418 -31.25 C 28.418 -37.5488 33.0566 -41.5039 39.6484 -41.5039 L 53.9062 -41.5039 L 58.0566 -41.6016 L 56.1035 -40.0879 L 49.3652 -33.4473 C 49.0234 -33.1055 48.8281 -32.7148 48.8281 -32.2266 C 48.8281 -31.3477 49.4629 -30.6641 50.3906 -30.6641 C 50.8789 -30.6641 51.2207 -30.8594 51.5625 -31.1523 L 61.7188 -41.5039 C 62.1094 -41.9434 62.3535 -42.4316 62.3535 -43.0176 C 62.3535 -43.6035 62.1094 -44.1406 61.7188 -44.5312 L 51.5625 -54.8828 C 51.2695 -55.2246 50.8789 -55.3711 50.3906 -55.3711 C 49.4629 -55.3711 48.8281 -54.6875 48.8281 -53.8086 C 48.8281 -53.3203 49.0723 -52.9297 49.4141 -52.5879 L 55.8594 -46.1914 L 58.0566 -44.4336 L 53.9062 -44.5312 L 39.6484 -44.5312 C 31.2012 -44.5312 25.293 -39.3066 25.293 -31.1523 Z"/>
  </g>
  <g id="Light-S" transform="matrix(1 0 0 1 1108.46 696)">
   <path d="M 21.3867 -0.78125 L 67.9688 -0.78125 C 75.7324 -0.78125 79.5898 -4.63867 79.5898 -12.2559 L 79.5898 -59.082 C 79.5898 -66.6992 75.7324 -70.6055 67.9688 -70.6055 L 21.3867 -70.6055 C 13.6719 -70.6055 9.76562 -66.748 9.76562 -59.082 L 9.76562 -12.2559 C 9.76562 -4.63867 13.6719 -0.78125 21.3867 -0.78125 Z M 21.4844 -6.20117 C 17.4316 -6.20117 15.1855 -8.34961 15.1855 -12.5488 L 15.1855 -58.7891 C 15.1855 -62.9883 17.4316 -65.1855 21.4844 -65.1855 L 67.8711 -65.1855 C 71.875 -65.1855 74.1699 -62.9883 74.1699 -58.7891 L 74.1699 -12.5488 C 74.1699 -8.34961 71.875 -6.20117 67.8711 -6.20117 Z M 25.2441 -30.9082 C 25.2441 -21.9727 31.6895 -16.3574 40.5273 -16.3574 L 45.9473 -16.3574 C 47.4609 -16.3574 48.584 -17.2363 48.584 -18.7988 C 48.584 -20.3613 47.4609 -21.2402 46.0449 -21.2402 L 40.5273 -21.2402 C 34.5215 -21.2402 30.2246 -25.0488 30.2246 -31.1523 C 30.2246 -37.1582 34.6191 -40.5762 40.4785 -40.5762 L 52.6367 -40.5762 L 57.0801 -40.7227 L 54.9316 -39.1113 L 49.6094 -33.9844 C 49.1211 -33.5449 48.877 -32.8613 48.877 -32.2266 C 48.877 -30.8105 49.9512 -29.7363 51.2695 -29.7363 C 52.002 -29.7363 52.5879 -29.9805 53.0273 -30.4688 L 63.2324 -40.8691 C 63.8184 -41.4551 64.1602 -42.1387 64.1602 -42.9688 C 64.1602 -43.7988 63.8184 -44.5312 63.2324 -45.1172 L 53.0762 -55.4199 C 52.5879 -55.957 52.0508 -56.2012 51.3184 -56.2012 C 49.9512 -56.2012 48.877 -55.127 48.877 -53.7109 C 48.877 -52.9785 49.2188 -52.3438 49.6582 -51.9043 L 54.248 -47.4121 L 57.0801 -45.2148 L 52.6367 -45.3613 L 40.4785 -45.3613 C 31.6895 -45.3613 25.2441 -39.8438 25.2441 -30.9082 Z"/>
  </g>
  <g id="Regular-S" transform="matrix(1 0 0 1 1404.51 696)">
   <path d="M 22.2168 -0.0976562 L 68.457 -0.0976562 C 76.8066 -0.0976562 80.9082 -4.19922 80.9082 -12.4023 L 80.9082 -58.9844 C 80.9082 -67.1875 76.8066 -71.2891 68.457 -71.2891 L 22.2168 -71.2891 C 13.916 -71.2891 9.76562 -67.1875 9.76562 -58.9844 L 9.76562 -12.4023 C 9.76562 -4.19922 13.916 -0.0976562 22.2168 -0.0976562 Z M 22.3145 -7.17773 C 18.7988 -7.17773 16.7969 -9.0332 16.7969 -12.7441 L 16.7969 -58.6426 C 16.7969 -62.3047 18.7988 -64.209 22.3145 -64.209 L 68.3594 -64.209 C 71.875 -64.209 73.877 -62.3047 73.877 -58.6426 L 73.877 -12.7441 C 73.877 -9.0332 71.875 -7.17773 68.3594 -7.17773 Z M 25.1953 -30.7617 C 25.1953 -21.2402 32.1289 -15.3809 41.2109 -15.3809 L 46.1914 -15.3809 C 48.1445 -15.3809 49.5605 -16.4551 49.5605 -18.457 C 49.5605 -20.5078 48.1445 -21.582 46.2891 -21.582 L 41.2109 -21.582 C 35.6934 -21.582 31.5918 -25.1953 31.5918 -31.1035 C 31.5918 -36.8652 35.8398 -39.8926 41.1621 -39.8926 L 51.6602 -39.8926 L 56.3477 -40.0391 L 54.0039 -38.3789 L 49.8047 -34.4238 C 49.2188 -33.8379 48.9258 -33.0078 48.9258 -32.1777 C 48.9258 -30.3711 50.293 -29.0527 52.002 -29.0527 C 52.8809 -29.0527 53.5645 -29.2969 54.1992 -29.9316 L 64.4043 -40.3809 C 65.0879 -41.0645 65.5273 -41.9434 65.5273 -42.9199 C 65.5273 -43.9453 65.0879 -44.8242 64.4043 -45.5078 L 54.248 -55.8594 C 53.6133 -56.4941 52.9297 -56.7871 52.002 -56.7871 C 50.293 -56.7871 48.9258 -55.4199 48.9258 -53.6133 C 48.9258 -52.7344 49.3164 -51.9531 49.8535 -51.416 L 53.0273 -48.3887 L 56.3477 -45.8008 L 51.6602 -45.9473 L 41.1621 -45.9473 C 32.0801 -45.9473 25.1953 -40.2832 25.1953 -30.7617 Z"/>
  </g>
  <g id="Medium-S" transform="matrix(1 0 0 1 1700.63 696)">
   <path d="M 22.8516 0.488281 L 68.9941 0.488281 C 77.6367 0.488281 82.0801 -3.95508 82.0801 -12.4512 L 82.0801 -58.8867 C 82.0801 -67.4316 77.6367 -71.875 68.9941 -71.875 L 22.8516 -71.875 C 14.2578 -71.875 9.76562 -67.4316 9.76562 -58.8867 L 9.76562 -12.4512 C 9.76562 -3.95508 14.2578 0.488281 22.8516 0.488281 Z M 23.4375 -8.20312 C 20.2148 -8.20312 18.4082 -9.86328 18.4082 -13.2812 L 18.4082 -58.1055 C 18.4082 -61.5234 20.2148 -63.1836 23.4375 -63.1836 L 68.4082 -63.1836 C 71.6309 -63.1836 73.4375 -61.5234 73.4375 -58.1055 L 73.4375 -13.2812 C 73.4375 -9.86328 71.6309 -8.20312 68.4082 -8.20312 Z M 26.2207 -30.8594 C 26.2207 -21.5332 32.8613 -15.7227 41.7969 -15.7227 L 46.9238 -15.7227 C 48.9746 -15.7227 50.4883 -16.8945 50.4883 -18.9941 C 50.4883 -21.0938 48.9746 -22.2656 46.9727 -22.2656 L 41.7969 -22.2656 C 36.6699 -22.2656 32.9102 -25.6348 32.9102 -31.1523 C 32.9102 -36.5234 36.7676 -39.4531 41.7969 -39.4531 L 52.2461 -39.4531 L 56.2988 -39.6484 L 54.0527 -38.0371 L 50.0488 -34.4238 C 49.4141 -33.8379 49.1211 -33.0078 49.1211 -32.1777 C 49.1211 -30.4199 50.5371 -29.0039 52.2461 -29.0039 C 53.125 -29.0039 53.9062 -29.248 54.4922 -29.8828 L 64.5996 -40.1367 C 65.2832 -40.8203 65.6738 -41.6992 65.6738 -42.6758 C 65.6738 -43.6523 65.2832 -44.5312 64.5996 -45.2148 L 54.541 -55.3711 C 53.9062 -56.0059 53.1738 -56.3477 52.2949 -56.3477 C 50.5859 -56.3477 49.1211 -54.9316 49.1211 -53.125 C 49.1211 -52.2461 49.4629 -51.416 50.0977 -50.8789 L 53.3203 -47.8516 L 56.2988 -45.6055 L 52.2461 -45.752 L 41.7969 -45.752 C 32.8125 -45.752 26.2207 -40.0879 26.2207 -30.8594 Z"/>
  </g>
  <g id="Semibold-S" transform="matrix(1 0 0 1 1996.9 696)">
   <path d="M 23.3398 0.927734 L 69.3848 0.927734 C 78.2227 0.927734 82.959 -3.80859 82.959 -12.5488 L 82.959 -58.8379 C 82.959 -67.5781 78.2227 -72.3145 69.3848 -72.3145 L 23.3398 -72.3145 C 14.5508 -72.3145 9.76562 -67.5781 9.76562 -58.8379 L 9.76562 -12.5488 C 9.76562 -3.80859 14.5508 0.927734 23.3398 0.927734 Z M 24.3164 -8.98438 C 21.2891 -8.98438 19.6777 -10.498 19.6777 -13.6719 L 19.6777 -57.7148 C 19.6777 -60.8887 21.2891 -62.4023 24.3164 -62.4023 L 68.457 -62.4023 C 71.4355 -62.4023 73.0469 -60.8887 73.0469 -57.7148 L 73.0469 -13.6719 C 73.0469 -10.498 71.4355 -8.98438 68.457 -8.98438 Z M 27.002 -30.9082 C 27.002 -21.7773 33.3984 -16.0156 42.2852 -16.0156 L 47.4609 -16.0156 C 49.6094 -16.0156 51.1719 -17.2852 51.1719 -19.4336 C 51.1719 -21.5332 49.6094 -22.8027 47.4609 -22.8027 L 42.2852 -22.8027 C 37.4023 -22.8027 33.9355 -26.0254 33.9355 -31.1523 C 33.9355 -36.2305 37.5 -39.1602 42.2852 -39.1602 L 52.6855 -39.1602 L 56.25 -39.3555 L 54.0527 -37.793 L 50.2441 -34.4238 C 49.5605 -33.8867 49.2188 -33.0566 49.2188 -32.1777 C 49.2188 -30.4199 50.7324 -28.9551 52.4414 -28.9551 C 53.3203 -28.9551 54.1016 -29.248 54.7363 -29.834 L 64.6973 -39.9902 C 65.3809 -40.6738 65.7715 -41.5527 65.7715 -42.4805 C 65.7715 -43.4082 65.4297 -44.2871 64.6973 -44.9707 L 54.7852 -55.0293 C 54.1504 -55.6641 53.3691 -55.957 52.5391 -55.957 C 50.7812 -55.957 49.2676 -54.541 49.2676 -52.6855 C 49.2676 -51.8555 49.6094 -51.0254 50.2441 -50.4883 L 53.5156 -47.5098 L 56.25 -45.4102 L 52.6855 -45.6055 L 42.2852 -45.6055 C 33.3984 -45.6055 27.002 -39.9414 27.002 -30.9082 Z"/>
  </g>
  <g id="Bold-S" transform="matrix(1 0 0 1 2293.01 696)">
   <path d="M 23.9746 1.51367 L 69.9219 1.51367 C 79.0527 1.51367 84.1797 -3.56445 84.1797 -12.6465 L 84.1797 -58.7402 C 84.1797 -67.8223 79.0527 -72.9004 69.9219 -72.9004 L 23.9746 -72.9004 C 14.8926 -72.9004 9.76562 -67.8223 9.76562 -58.7402 L 9.76562 -12.6465 C 9.76562 -3.56445 14.8926 1.51367 23.9746 1.51367 Z M 25.4395 -10.0586 C 22.7051 -10.0586 21.3379 -11.2793 21.3379 -14.209 L 21.3379 -57.1777 C 21.3379 -60.0586 22.7051 -61.3281 25.4395 -61.3281 L 68.457 -61.3281 C 71.1914 -61.3281 72.6074 -60.0586 72.6074 -57.1777 L 72.6074 -14.209 C 72.6074 -11.2793 71.1914 -10.0586 68.457 -10.0586 Z M 28.0273 -31.0547 C 28.0273 -22.1191 34.1309 -16.3574 42.9199 -16.3574 L 48.1445 -16.3574 C 50.4883 -16.3574 52.0508 -17.7734 52.0508 -19.9707 C 52.0508 -22.1191 50.4395 -23.4863 48.1445 -23.4863 L 42.9199 -23.4863 C 38.4277 -23.4863 35.2539 -26.5137 35.2539 -31.1523 C 35.2539 -35.8398 38.4766 -38.7207 42.9688 -38.7207 L 53.2715 -38.7207 L 56.1523 -38.916 L 54.1016 -37.5 L 50.4395 -34.4727 C 49.7559 -33.8867 49.4141 -33.0566 49.4141 -32.2266 C 49.4141 -30.4199 51.0254 -28.9062 52.7344 -28.9062 C 53.6133 -28.9062 54.4434 -29.1992 55.0293 -29.834 L 64.8926 -39.7461 C 65.5762 -40.4297 65.918 -41.3086 65.918 -42.1875 C 65.918 -43.1152 65.5762 -43.9941 64.8926 -44.6777 L 55.0781 -54.541 C 54.4434 -55.2246 53.6621 -55.5176 52.7832 -55.5176 C 51.0742 -55.5176 49.4629 -54.0039 49.4629 -52.1973 C 49.4629 -51.3184 49.8047 -50.5371 50.4883 -49.9512 L 53.7598 -46.9727 L 56.1523 -45.2148 L 53.2715 -45.4102 L 42.9688 -45.4102 C 34.1309 -45.4102 28.0273 -39.7949 28.0273 -31.0547 Z"/>
  </g>
  <g id="Heavy-S" transform="matrix(1 0 0 1 2588.86 696)">
   <path d="M 24.9023 2.34375 L 70.7031 2.34375 C 80.2246 2.34375 85.8887 -3.27148 85.8887 -12.793 L 85.8887 -58.5938 C 85.8887 -68.1152 80.2246 -73.7305 70.7031 -73.7305 L 24.9023 -73.7305 C 15.3809 -73.7305 9.76562 -68.1152 9.76562 -58.5938 L 9.76562 -12.793 C 9.76562 -3.27148 15.3809 2.34375 24.9023 2.34375 Z M 27.0996 -11.5723 C 24.8047 -11.5723 23.6816 -12.5 23.6816 -14.9902 L 23.6816 -56.3965 C 23.6816 -58.8867 24.8047 -59.8145 27.0996 -59.8145 L 68.5547 -59.8145 C 70.8496 -59.8145 71.9238 -58.8867 71.9238 -56.3965 L 71.9238 -14.9902 C 71.9238 -12.5 70.8496 -11.5723 68.5547 -11.5723 Z M 29.4922 -31.2012 C 29.4922 -22.6074 35.2051 -16.8945 43.7988 -16.8945 L 49.1699 -16.8945 C 51.7578 -16.8945 53.3691 -18.457 53.3691 -20.752 C 53.3691 -22.998 51.709 -24.4629 49.1211 -24.4629 L 43.7988 -24.4629 C 39.8438 -24.4629 37.207 -27.1973 37.207 -31.2012 C 37.207 -35.3027 39.8926 -38.0859 43.8965 -38.0859 L 54.1016 -38.0859 L 56.1035 -38.3301 L 54.1504 -37.0117 L 50.7812 -34.5215 C 50.0488 -33.9355 49.707 -33.1055 49.707 -32.2266 C 49.707 -30.4199 51.416 -28.8574 53.125 -28.8574 C 54.0039 -28.8574 54.8828 -29.1504 55.4688 -29.7363 L 65.1855 -39.4531 C 65.8203 -40.0879 66.1621 -41.0156 66.1621 -41.8457 C 66.1621 -42.7246 65.8691 -43.5059 65.1855 -44.1895 L 55.4688 -53.9062 C 54.8828 -54.541 54.0527 -54.834 53.2227 -54.834 C 51.5137 -54.834 49.8047 -53.2715 49.8047 -51.416 C 49.8047 -50.5859 50.0977 -49.7559 50.7812 -49.1699 L 54.1016 -46.2402 L 56.1035 -44.9219 L 54.1016 -45.166 L 43.8965 -45.166 C 35.2539 -45.166 29.4922 -39.5508 29.4922 -31.2012 Z"/>
  </g>
  <g id="Black-S" transform="matrix(1 0 0 1 2884.82 696)">
   <path d="M 25.7324 3.125 L 71.4355 3.125 C 81.2988 3.125 87.4023 -2.97852 87.4023 -12.8906 L 87.4023 -58.4961 C 87.4023 -68.4082 81.2988 -74.5117 71.4355 -74.5117 L 25.7324 -74.5117 C 15.8203 -74.5117 9.76562 -68.4082 9.76562 -58.4961 L 9.76562 -12.8906 C 9.76562 -2.97852 15.8203 3.125 25.7324 3.125 Z M 28.5645 -12.9395 C 26.6602 -12.9395 25.8301 -13.5254 25.8301 -15.6738 L 25.8301 -55.7129 C 25.8301 -57.8613 26.6602 -58.4473 28.5645 -58.4473 L 68.6035 -58.4473 C 70.5078 -58.4473 71.3379 -57.8613 71.3379 -55.7129 L 71.3379 -15.6738 C 71.3379 -13.5254 70.5078 -12.9395 68.6035 -12.9395 Z M 30.8105 -31.3477 C 30.8105 -23.0469 36.1816 -17.3828 44.6289 -17.3828 L 50.0977 -17.3828 C 52.8809 -17.3828 54.541 -19.043 54.541 -21.4844 C 54.541 -23.7305 52.7832 -25.3906 50 -25.3906 L 44.6289 -25.3906 C 41.1133 -25.3906 38.9648 -27.832 38.9648 -31.25 C 38.9648 -34.8145 41.1621 -37.5488 44.7754 -37.5488 L 54.834 -37.5488 L 56.0059 -37.8418 L 54.1504 -36.6211 L 51.123 -34.5215 C 50.293 -33.9355 49.9023 -33.1543 49.9023 -32.2266 C 49.9023 -30.4688 51.7578 -28.7598 53.4668 -28.7598 C 54.3457 -28.7598 55.2734 -29.0527 55.9082 -29.6875 L 65.4297 -39.1602 C 66.0156 -39.7461 66.3574 -40.7227 66.3574 -41.5039 C 66.3574 -42.334 66.0645 -43.1152 65.4297 -43.7988 L 55.8594 -53.2715 C 55.2246 -53.9062 54.3945 -54.248 53.5645 -54.248 C 51.9043 -54.248 50.0488 -52.5879 50.0488 -50.7324 C 50.0488 -49.9512 50.293 -49.1211 51.0742 -48.4375 L 54.4434 -45.6055 L 56.0059 -44.6289 L 54.834 -44.9219 L 44.7754 -44.9219 C 36.2305 -44.9219 30.8105 -39.3555 30.8105 -31.3477 Z"/>
  </g>
  <g id="Ultralight-M" transform="matrix(1 0 0 1 504.535 1126)">
   <path d="M 25 6.93359 L 85.3516 6.93359 C 93.5547 6.93359 97.9004 2.49023 97.9004 -5.56641 L 97.9004 -65.918 C 97.9004 -73.9746 93.5547 -78.4668 85.3516 -78.4668 L 25 -78.4668 C 16.7969 -78.4668 12.4512 -74.1211 12.4512 -65.918 L 12.4512 -5.56641 C 12.4512 2.58789 16.7969 6.93359 25 6.93359 Z M 25.1465 4.54102 C 18.3594 4.54102 14.8438 1.07422 14.8438 -5.71289 L 14.8438 -65.8203 C 14.8438 -72.5586 18.3594 -76.0742 25.1465 -76.0742 L 85.2051 -76.0742 C 91.748 -76.0742 95.5078 -72.5586 95.5078 -65.8203 L 95.5078 -5.71289 C 95.5078 1.07422 91.748 4.54102 85.2051 4.54102 Z M 32.373 -30.2246 C 32.373 -20.459 39.3555 -14.0137 49.9023 -14.0137 L 58.0078 -14.0137 C 58.7402 -14.0137 59.2285 -14.502 59.2285 -15.2344 C 59.2285 -15.918 58.7402 -16.4062 58.0078 -16.4062 L 49.9023 -16.4062 C 40.8203 -16.4062 34.7656 -21.9238 34.7656 -30.2246 C 34.7656 -38.5254 40.8203 -44.043 49.9023 -44.043 L 69.873 -44.043 L 74.9512 -44.1406 L 72.6562 -42.2852 L 62.793 -32.4707 C 62.5 -32.1777 62.2559 -31.8848 62.2559 -31.4453 C 62.2559 -30.7129 62.7441 -30.1758 63.5254 -30.1758 C 63.9648 -30.1758 64.2578 -30.3711 64.502 -30.6152 L 77.4414 -43.8477 C 77.832 -44.1895 78.0762 -44.6777 78.0762 -45.2148 C 78.0762 -45.8008 77.832 -46.2891 77.4414 -46.6309 L 64.502 -59.8633 C 64.2578 -60.1074 63.9648 -60.2539 63.5254 -60.2539 C 62.7441 -60.2539 62.2559 -59.7168 62.2559 -59.0332 C 62.2559 -58.5938 62.5 -58.3008 62.793 -57.959 L 72.7051 -48.1445 L 74.9512 -46.3379 L 69.873 -46.4355 L 49.9023 -46.4355 C 39.3555 -46.4355 32.373 -39.9902 32.373 -30.2246 Z"/>
  </g>
  <g id="Thin-M" transform="matrix(1 0 0 1 800.734 1126)">
   <path d="M 25.6348 7.4707 L 85.7422 7.4707 C 94.3848 7.4707 98.9258 2.83203 98.9258 -5.66406 L 98.9258 -65.8691 C 98.9258 -74.3652 94.3848 -79.0039 85.7422 -79.0039 L 25.6348 -79.0039 C 16.9922 -79.0039 12.4512 -74.4629 12.4512 -65.8691 L 12.4512 -5.66406 C 12.4512 2.92969 16.9922 7.4707 25.6348 7.4707 Z M 25.7324 3.80859 C 19.4336 3.80859 16.1133 0.537109 16.1133 -5.85938 L 16.1133 -65.6738 C 16.1133 -72.0703 19.4336 -75.3418 25.7324 -75.3418 L 85.5957 -75.3418 C 91.748 -75.3418 95.2637 -72.0703 95.2637 -65.6738 L 95.2637 -5.85938 C 95.2637 0.537109 91.748 3.80859 85.5957 3.80859 Z M 32.3242 -30.0781 C 32.3242 -19.873 39.6484 -13.2324 50.3906 -13.2324 L 58.2031 -13.2324 C 59.2285 -13.2324 59.9609 -13.8672 59.9609 -14.9414 C 59.9609 -16.0156 59.2285 -16.6992 58.2031 -16.6992 L 50.3906 -16.6992 C 41.6992 -16.6992 35.791 -22.0215 35.791 -30.1758 C 35.791 -38.2812 41.748 -43.5059 50.3906 -43.5059 L 69.1406 -43.5059 L 74.3652 -43.6523 L 71.9727 -41.6992 L 62.9395 -32.8125 C 62.5488 -32.4219 62.3047 -31.9824 62.3047 -31.4453 C 62.3047 -30.4199 62.9883 -29.6387 64.0625 -29.6387 C 64.5996 -29.6387 65.0391 -29.8828 65.3809 -30.2246 L 78.3691 -43.457 C 78.8086 -43.8965 79.1016 -44.5312 79.1016 -45.2148 C 79.1016 -45.8984 78.8086 -46.4844 78.3691 -46.9727 L 65.3809 -60.1562 C 65.0391 -60.498 64.6484 -60.7422 64.0625 -60.7422 C 62.9883 -60.7422 62.3047 -59.9609 62.3047 -58.9355 C 62.3047 -58.3984 62.5977 -57.959 62.9883 -57.5684 L 71.7285 -48.877 L 74.3652 -46.7773 L 69.1406 -46.9238 L 50.3906 -46.9238 C 39.6484 -46.9238 32.3242 -40.2832 32.3242 -30.0781 Z"/>
  </g>
  <g id="Light-M" transform="matrix(1 0 0 1 1096.47 1126)">
   <path d="M 26.8555 8.39844 L 86.4746 8.39844 C 96.0449 8.39844 100.879 3.51562 100.879 -5.85938 L 100.879 -65.7227 C 100.879 -75.1465 96.0449 -79.9805 86.4746 -79.9805 L 26.8555 -79.9805 C 17.334 -79.9805 12.4512 -75.1953 12.4512 -65.7227 L 12.4512 -5.85938 C 12.4512 3.61328 17.334 8.39844 26.8555 8.39844 Z M 27.002 2.39258 C 21.4844 2.39258 18.5059 -0.537109 18.5059 -6.15234 L 18.5059 -65.4297 C 18.5059 -71.0449 21.4844 -73.9746 27.002 -73.9746 L 86.377 -73.9746 C 91.748 -73.9746 94.8242 -71.0449 94.8242 -65.4297 L 94.8242 -6.15234 C 94.8242 -0.537109 91.748 2.39258 86.377 2.39258 Z M 32.2266 -29.834 C 32.2266 -18.75 40.2832 -11.7188 51.3672 -11.7188 L 58.5449 -11.7188 C 60.2051 -11.7188 61.4746 -12.6953 61.4746 -14.4531 C 61.4746 -16.2109 60.2051 -17.1875 58.5938 -17.1875 L 51.3672 -17.1875 C 43.4082 -17.1875 37.8418 -22.168 37.8418 -30.0781 C 37.8418 -37.8418 43.5059 -42.4316 51.3184 -42.4316 L 67.7246 -42.4316 L 73.291 -42.627 L 70.6055 -40.5762 L 63.2324 -33.3984 C 62.6953 -32.8613 62.3535 -32.1289 62.3535 -31.3965 C 62.3535 -29.7852 63.5254 -28.6133 65.0879 -28.6133 C 65.918 -28.6133 66.5527 -28.9062 67.0898 -29.4434 L 80.0781 -42.7246 C 80.7617 -43.3594 81.1523 -44.1895 81.1523 -45.1172 C 81.1523 -46.0938 80.7617 -46.9238 80.0781 -47.6074 L 67.0898 -60.791 C 66.5527 -61.377 65.918 -61.6211 65.1367 -61.6211 C 63.5254 -61.6211 62.3535 -60.4492 62.3535 -58.8379 C 62.3535 -58.0078 62.7441 -57.3242 63.2812 -56.8359 L 69.9219 -50.293 L 73.291 -47.6562 L 67.7246 -47.8027 L 51.3184 -47.8027 C 40.2344 -47.8027 32.2266 -40.918 32.2266 -29.834 Z"/>
  </g>
  <g id="Regular-M" transform="matrix(1 0 0 1 1392.42 1126)">
   <path d="M 27.7832 9.13086 L 87.0605 9.13086 C 97.2656 9.13086 102.344 4.05273 102.344 -6.00586 L 102.344 -65.625 C 102.344 -75.6836 97.2656 -80.7617 87.0605 -80.7617 L 27.7832 -80.7617 C 17.627 -80.7617 12.4512 -75.7324 12.4512 -65.625 L 12.4512 -6.00586 C 12.4512 4.10156 17.627 9.13086 27.7832 9.13086 Z M 27.9297 1.26953 C 23.0469 1.26953 20.3125 -1.31836 20.3125 -6.39648 L 20.3125 -65.2344 C 20.3125 -70.2637 23.0469 -72.9004 27.9297 -72.9004 L 86.9141 -72.9004 C 91.748 -72.9004 94.4824 -70.2637 94.4824 -65.2344 L 94.4824 -6.39648 C 94.4824 -1.31836 91.748 1.26953 86.9141 1.26953 Z M 32.1777 -29.6387 C 32.1777 -17.8711 40.7227 -10.5957 52.0996 -10.5957 L 58.7891 -10.5957 C 60.9863 -10.5957 62.5977 -11.8164 62.5977 -14.0625 C 62.5977 -16.3086 60.9863 -17.5781 58.8867 -17.5781 L 52.0996 -17.5781 C 44.7266 -17.5781 39.3555 -22.3145 39.3555 -30.0293 C 39.3555 -37.5488 44.873 -41.6504 52.0508 -41.6504 L 66.6504 -41.6504 L 72.4121 -41.8457 L 69.5801 -39.7461 L 63.4766 -33.8867 C 62.7441 -33.252 62.4023 -32.2754 62.4023 -31.3477 C 62.4023 -29.3457 63.916 -27.832 65.8691 -27.832 C 66.8945 -27.832 67.6758 -28.125 68.3594 -28.8086 L 81.3965 -42.1387 C 82.1777 -42.9688 82.7148 -43.9453 82.7148 -45.0684 C 82.7148 -46.2402 82.1777 -47.2656 81.3965 -48.0957 L 68.4082 -61.2305 C 67.7246 -61.9629 66.9434 -62.3047 65.918 -62.3047 C 63.916 -62.3047 62.4023 -60.791 62.4023 -58.7402 C 62.4023 -57.7637 62.8418 -56.8359 63.5254 -56.25 L 68.5547 -51.3672 L 72.4121 -48.291 L 66.6504 -48.4863 L 52.0508 -48.4863 C 40.6738 -48.4863 32.1777 -41.3574 32.1777 -29.6387 Z"/>
  </g>
  <g id="Medium-M" transform="matrix(1 0 0 1 1688.45 1126)">
   <path d="M 28.5645 9.81445 L 87.6465 9.81445 C 98.2422 9.81445 103.711 4.3457 103.711 -6.10352 L 103.711 -65.5273 C 103.711 -75.9766 98.2422 -81.4453 87.6465 -81.4453 L 28.5645 -81.4453 C 17.9688 -81.4453 12.4512 -75.9766 12.4512 -65.5273 L 12.4512 -6.10352 C 12.4512 4.39453 17.9688 9.81445 28.5645 9.81445 Z M 29.1504 0.0976562 C 24.6582 0.0976562 22.2168 -2.24609 22.2168 -6.98242 L 22.2168 -64.6484 C 22.2168 -69.3848 24.6582 -71.7285 29.1504 -71.7285 L 87.0117 -71.7285 C 91.5039 -71.7285 93.9941 -69.3848 93.9941 -64.6484 L 93.9941 -6.98242 C 93.9941 -2.24609 91.5039 0.0976562 87.0117 0.0976562 Z M 33.2031 -29.7363 C 33.2031 -18.1152 41.5039 -10.791 52.832 -10.791 L 59.5703 -10.791 C 61.9141 -10.791 63.623 -12.207 63.623 -14.5996 C 63.623 -16.9434 61.9141 -18.3105 59.6191 -18.3105 L 52.832 -18.3105 C 45.8984 -18.3105 40.918 -22.8027 40.918 -30.0293 C 40.918 -37.1094 46.0449 -41.1133 52.832 -41.1133 L 67.0898 -41.1133 L 72.2656 -41.3574 L 69.4824 -39.3066 L 63.7207 -33.9844 C 62.9395 -33.3008 62.5977 -32.3242 62.5977 -31.3477 C 62.5977 -29.2969 64.2578 -27.6855 66.2109 -27.6855 C 67.2852 -27.6855 68.1152 -28.0273 68.8477 -28.7109 L 81.7383 -41.8457 C 82.5195 -42.6758 83.0078 -43.7012 83.0078 -44.8242 C 83.0078 -45.9473 82.5684 -46.9727 81.7383 -47.8027 L 68.8965 -60.8398 C 68.1641 -61.5723 67.334 -61.9141 66.3086 -61.9141 C 64.2578 -61.9141 62.6465 -60.3027 62.6465 -58.2031 C 62.6465 -57.1777 63.0371 -56.25 63.7695 -55.6152 L 68.6523 -50.9766 L 72.2656 -48.1934 L 67.0898 -48.3887 L 52.832 -48.3887 C 41.5039 -48.3887 33.2031 -41.2598 33.2031 -29.7363 Z"/>
  </g>
  <g id="Semibold-M" transform="matrix(1 0 0 1 1984.65 1126)">
   <path d="M 29.1016 10.3516 L 88.1348 10.3516 C 98.9746 10.3516 104.785 4.58984 104.785 -6.20117 L 104.785 -65.4297 C 104.785 -76.2207 98.9746 -81.9824 88.1348 -81.9824 L 29.1016 -81.9824 C 18.3105 -81.9824 12.4512 -76.2207 12.4512 -65.4297 L 12.4512 -6.20117 C 12.4512 4.58984 18.3105 10.3516 29.1016 10.3516 Z M 30.127 -0.830078 C 25.9277 -0.830078 23.6328 -2.97852 23.6328 -7.37305 L 23.6328 -64.209 C 23.6328 -68.6523 25.9277 -70.8008 30.127 -70.8008 L 87.1094 -70.8008 C 91.3086 -70.8008 93.6035 -68.6523 93.6035 -64.209 L 93.6035 -7.37305 C 93.6035 -2.97852 91.3086 -0.830078 87.1094 -0.830078 Z M 34.0332 -29.7852 C 34.0332 -18.3105 42.1387 -10.9863 53.3691 -10.9863 L 60.1562 -10.9863 C 62.6465 -10.9863 64.4531 -12.4512 64.4531 -14.9902 C 64.4531 -17.4316 62.6465 -18.8965 60.1562 -18.8965 L 53.3691 -18.8965 C 46.7773 -18.8965 42.0898 -23.1934 42.0898 -30.0293 C 42.0898 -36.7676 46.9238 -40.7227 53.418 -40.7227 L 67.4316 -40.7227 L 72.168 -40.9668 L 69.4336 -39.0137 L 63.916 -34.0332 C 63.1348 -33.3496 62.7441 -32.373 62.7441 -31.3965 C 62.7441 -29.248 64.502 -27.5391 66.5039 -27.5391 C 67.5781 -27.5391 68.457 -27.9297 69.1895 -28.6133 L 81.9824 -41.6504 C 82.8125 -42.4316 83.252 -43.5059 83.252 -44.6289 C 83.252 -45.752 82.8125 -46.7773 81.9824 -47.6074 L 69.2383 -60.498 C 68.5059 -61.2793 67.627 -61.6211 66.6016 -61.6211 C 64.5508 -61.6211 62.793 -59.9121 62.793 -57.8125 C 62.793 -56.7871 63.1836 -55.8105 63.9648 -55.1758 L 68.75 -50.6836 L 72.168 -48.0957 L 67.4316 -48.291 L 53.418 -48.291 C 42.0898 -48.291 34.0332 -41.1621 34.0332 -29.7852 Z"/>
  </g>
  <g id="Bold-M" transform="matrix(1 0 0 1 2280.65 1126)">
   <path d="M 29.8828 11.0352 L 88.7207 11.0352 C 100 11.0352 106.152 4.88281 106.152 -6.29883 L 106.152 -65.332 C 106.152 -76.5137 100 -82.666 88.7207 -82.666 L 29.8828 -82.666 C 18.6523 -82.666 12.4512 -76.5137 12.4512 -65.332 L 12.4512 -6.29883 C 12.4512 4.88281 18.6523 11.0352 29.8828 11.0352 Z M 31.3965 -2.05078 C 27.5879 -2.05078 25.5371 -3.90625 25.5371 -7.95898 L 25.5371 -63.6719 C 25.5371 -67.7246 27.5879 -69.5801 31.3965 -69.5801 L 87.207 -69.5801 C 91.0156 -69.5801 93.1152 -67.7246 93.1152 -63.6719 L 93.1152 -7.95898 C 93.1152 -3.90625 91.0156 -2.05078 87.207 -2.05078 Z M 35.0586 -29.8828 C 35.0586 -18.5059 42.9199 -11.2305 54.1016 -11.2305 L 60.8887 -11.2305 C 63.623 -11.2305 65.5273 -12.8418 65.5273 -15.4785 C 65.5273 -18.0664 63.623 -19.6289 60.8887 -19.6289 L 54.1016 -19.6289 C 47.9492 -19.6289 43.6523 -23.7305 43.6523 -30.0781 C 43.6523 -36.377 48.0469 -40.1855 54.1504 -40.1855 L 67.8711 -40.1855 L 71.9727 -40.4785 L 69.3359 -38.5742 L 64.1602 -34.082 C 63.3301 -33.3984 62.9395 -32.4219 62.9395 -31.3965 C 62.9395 -29.1992 64.8438 -27.4414 66.8945 -27.4414 C 67.9688 -27.4414 68.8965 -27.7832 69.6777 -28.5156 L 82.3242 -41.3574 C 83.1543 -42.1387 83.5938 -43.2129 83.5938 -44.3359 C 83.5938 -45.459 83.1543 -46.5332 82.3242 -47.3633 L 69.6777 -60.1074 C 68.9453 -60.8887 68.0176 -61.2305 66.9922 -61.2305 C 64.8926 -61.2305 62.9883 -59.4727 62.9883 -57.2754 C 62.9883 -56.2012 63.4277 -55.2246 64.209 -54.541 L 68.8477 -50.293 L 71.9727 -47.9492 L 67.8711 -48.1934 L 54.1504 -48.1934 C 42.9199 -48.1934 35.0586 -41.0645 35.0586 -29.8828 Z"/>
  </g>
  <g id="Heavy-M" transform="matrix(1 0 0 1 2576.36 1126)">
   <path d="M 31.0059 12.0117 L 89.6484 12.0117 C 101.416 12.0117 108.154 5.27344 108.154 -6.44531 L 108.154 -65.1855 C 108.154 -76.9043 101.416 -83.6914 89.6484 -83.6914 L 31.0059 -83.6914 C 19.2383 -83.6914 12.4512 -76.9043 12.4512 -65.1855 L 12.4512 -6.44531 C 12.4512 5.27344 19.2383 12.0117 31.0059 12.0117 Z M 33.252 -3.80859 C 29.9805 -3.80859 28.2715 -5.22461 28.2715 -8.78906 L 28.2715 -62.8418 C 28.2715 -66.4062 29.9805 -67.8223 33.252 -67.8223 L 87.3535 -67.8223 C 90.6738 -67.8223 92.334 -66.4062 92.334 -62.8418 L 92.334 -8.78906 C 92.334 -5.22461 90.6738 -3.80859 87.3535 -3.80859 Z M 36.5723 -29.9805 C 36.5723 -18.8477 44.0918 -11.5723 55.1758 -11.5723 L 62.0117 -11.5723 C 65.0391 -11.5723 67.041 -13.3789 67.041 -16.2109 C 67.041 -18.9453 64.9902 -20.7031 61.9629 -20.7031 L 55.1758 -20.7031 C 49.6582 -20.7031 45.8984 -24.4629 45.8984 -30.0781 C 45.8984 -35.7422 49.7559 -39.4531 55.2734 -39.4531 L 68.5547 -39.4531 L 71.7285 -39.7461 L 69.1895 -37.9395 L 64.5508 -34.2285 C 63.623 -33.4961 63.2324 -32.4707 63.2324 -31.3965 C 63.2324 -29.1504 65.2832 -27.1973 67.4316 -27.1973 C 68.5059 -27.1973 69.5801 -27.5879 70.3613 -28.3691 L 82.8613 -40.918 C 83.6426 -41.6992 84.082 -42.8711 84.082 -43.9453 C 84.082 -45.0684 83.6914 -46.0938 82.8613 -46.9727 L 70.3613 -59.4727 C 69.5801 -60.2539 68.6035 -60.6934 67.5293 -60.6934 C 65.3809 -60.6934 63.3301 -58.7402 63.3301 -56.4453 C 63.3301 -55.4199 63.7207 -54.3945 64.5996 -53.6133 L 68.9453 -49.707 L 71.7285 -47.7539 L 68.5547 -48.0469 L 55.2734 -48.0469 C 44.1406 -48.0469 36.5723 -40.8691 36.5723 -29.9805 Z"/>
  </g>
  <g id="Black-M" transform="matrix(1 0 0 1 2872.19 1126)">
   <path d="M 31.9824 12.9395 L 90.4297 12.9395 C 102.686 12.9395 109.961 5.66406 109.961 -6.5918 L 109.961 -65.0391 C 109.961 -77.2949 102.686 -84.5703 90.4297 -84.5703 L 31.9824 -84.5703 C 19.7266 -84.5703 12.4512 -77.2949 12.4512 -65.0391 L 12.4512 -6.5918 C 12.4512 5.66406 19.7266 12.9395 31.9824 12.9395 Z M 34.9121 -5.37109 C 32.0801 -5.37109 30.7617 -6.44531 30.7617 -9.52148 L 30.7617 -62.1094 C 30.7617 -65.1855 32.0801 -66.3086 34.9121 -66.3086 L 87.5 -66.3086 C 90.332 -66.3086 91.6992 -65.1855 91.6992 -62.1094 L 91.6992 -9.52148 C 91.6992 -6.44531 90.332 -5.37109 87.5 -5.37109 Z M 37.8906 -30.127 C 37.8906 -19.1895 45.166 -11.8652 56.1035 -11.8652 L 62.9883 -11.8652 C 66.3086 -11.8652 68.4082 -13.8672 68.4082 -16.8945 C 68.4082 -19.7754 66.2598 -21.6797 62.8906 -21.6797 L 56.1035 -21.6797 C 51.1719 -21.6797 47.9004 -25.0977 47.9004 -30.0781 C 47.9004 -35.2051 51.2207 -38.7695 56.25 -38.7695 L 69.1406 -38.7695 L 71.5332 -39.0625 L 69.043 -37.4023 L 64.8926 -34.3262 C 63.916 -33.5938 63.4766 -32.5195 63.4766 -31.3965 C 63.4766 -29.1016 65.7227 -27.0508 67.9199 -27.0508 C 69.043 -27.0508 70.166 -27.3926 70.9473 -28.2227 L 83.3008 -40.5273 C 84.082 -41.3574 84.5215 -42.5293 84.5215 -43.5547 C 84.5215 -44.6777 84.1797 -45.752 83.3008 -46.6309 L 70.9473 -58.9355 C 70.166 -59.7656 69.0918 -60.2051 68.0176 -60.2051 C 65.8691 -60.2051 63.5742 -58.1055 63.5742 -55.7617 C 63.5742 -54.6875 63.9648 -53.6621 64.8926 -52.832 L 69.0918 -49.2188 L 71.5332 -47.5586 L 69.1406 -47.9004 L 56.25 -47.9004 C 45.2148 -47.9004 37.8906 -40.7227 37.8906 -30.127 Z"/>
  </g>
  <g id="Ultralight-L" transform="matrix(1 0 0 1 488.739 1556)">
   <path d="M 31.9824 18.9941 L 109.961 18.9941 C 120.361 18.9941 125.879 13.2812 125.879 3.07617 L 125.879 -74.8535 C 125.879 -85.1074 120.361 -90.8203 109.961 -90.8203 L 31.9824 -90.8203 C 21.6309 -90.8203 16.0645 -85.2539 16.0645 -74.8535 L 16.0645 3.07617 C 16.0645 13.4277 21.6309 18.9941 31.9824 18.9941 Z M 32.1289 16.4551 C 23.2422 16.4551 18.6523 11.8164 18.6523 2.92969 L 18.6523 -74.7559 C 18.6523 -83.6426 23.2422 -88.2324 32.1289 -88.2324 L 109.814 -88.2324 C 118.359 -88.2324 123.34 -83.6426 123.34 -74.7559 L 123.34 2.92969 C 123.34 11.8164 118.359 16.4551 109.814 16.4551 Z M 41.748 -28.8086 C 41.748 -16.4551 50.6836 -8.20312 64.1602 -8.20312 L 74.7559 -8.20312 C 75.5859 -8.20312 76.0742 -8.74023 76.0742 -9.52148 C 76.0742 -10.3027 75.5859 -10.8398 74.7559 -10.8398 L 64.1602 -10.8398 C 52.2949 -10.8398 44.3848 -18.0176 44.3848 -28.7598 C 44.3848 -39.5508 52.2461 -46.8262 64.1602 -46.8262 L 90.4785 -46.8262 L 96.9727 -46.9727 L 94.043 -44.5801 L 81.0059 -31.543 C 80.6152 -31.2012 80.3223 -30.8594 80.3223 -30.3711 C 80.3223 -29.5898 80.8594 -28.9551 81.7383 -28.9551 C 82.2266 -28.9551 82.5684 -29.1992 82.8613 -29.4434 L 99.5605 -46.4844 C 100 -46.9238 100.293 -47.5098 100.293 -48.1445 C 100.293 -48.8281 100 -49.3652 99.5605 -49.8047 L 82.8613 -66.8457 C 82.5684 -67.1387 82.2266 -67.334 81.7383 -67.334 C 80.8594 -67.334 80.3223 -66.748 80.3223 -65.918 C 80.3223 -65.4297 80.6152 -65.1367 80.957 -64.7461 L 94.1895 -51.6113 L 96.9727 -49.3652 L 90.4785 -49.5117 L 64.1602 -49.5117 C 50.6836 -49.5117 41.748 -41.2109 41.748 -28.8086 Z"/>
  </g>
  <g id="Thin-L" transform="matrix(1 0 0 1 784.889 1556)">
   <path d="M 32.7148 19.5312 L 110.4 19.5312 C 121.289 19.5312 127.002 13.6719 127.002 2.97852 L 127.002 -74.8047 C 127.002 -85.498 121.289 -91.3574 110.4 -91.3574 L 32.7148 -91.3574 C 21.8262 -91.3574 16.0645 -85.6445 16.0645 -74.8047 L 16.0645 2.97852 C 16.0645 13.8184 21.8262 19.5312 32.7148 19.5312 Z M 32.8613 15.625 C 24.4141 15.625 20.0195 11.2305 20.0195 2.73438 L 20.0195 -74.6094 C 20.0195 -83.0566 24.4141 -87.4512 32.8613 -87.4512 L 110.254 -87.4512 C 118.359 -87.4512 123.096 -83.0566 123.096 -74.6094 L 123.096 2.73438 C 123.096 11.2305 118.359 15.625 110.254 15.625 Z M 41.6992 -28.6621 C 41.6992 -15.7715 50.9766 -7.32422 64.6973 -7.32422 L 74.9512 -7.32422 C 76.123 -7.32422 76.9043 -8.05664 76.9043 -9.22852 C 76.9043 -10.4004 76.123 -11.1328 75 -11.1328 L 64.6973 -11.1328 C 53.2715 -11.1328 45.5566 -18.1152 45.5566 -28.7109 C 45.5566 -39.3066 53.2715 -46.2402 64.6973 -46.2402 L 89.6484 -46.2402 L 96.3379 -46.3867 L 93.3105 -43.9453 L 81.1523 -31.9336 C 80.7129 -31.4453 80.3711 -30.957 80.3711 -30.3711 C 80.3711 -29.1992 81.1523 -28.3691 82.3242 -28.3691 C 82.959 -28.3691 83.4473 -28.6133 83.8379 -29.0039 L 100.537 -46.0449 C 101.074 -46.6309 101.465 -47.3145 101.465 -48.0957 C 101.465 -48.9258 101.074 -49.6094 100.537 -50.1953 L 83.8379 -67.2363 C 83.4473 -67.627 82.959 -67.8711 82.3242 -67.8711 C 81.1523 -67.8711 80.3711 -66.9922 80.3711 -65.8691 C 80.3711 -65.2344 80.7129 -64.7461 81.1523 -64.3066 L 93.1641 -52.3926 L 96.3379 -49.8535 L 89.6484 -50 L 64.6973 -50 C 50.9766 -50 41.6992 -41.5527 41.6992 -28.6621 Z"/>
  </g>
  <g id="Light-L" transform="matrix(1 0 0 1 1080.5 1556)">
   <path d="M 34.082 20.6055 L 111.23 20.6055 C 123.096 20.6055 129.199 14.4531 129.199 2.7832 L 129.199 -74.6582 C 129.199 -86.3281 123.096 -92.4805 111.23 -92.4805 L 34.082 -92.4805 C 22.2168 -92.4805 16.0645 -86.4258 16.0645 -74.6582 L 16.0645 2.7832 C 16.0645 14.5508 22.2168 20.6055 34.082 20.6055 Z M 34.2285 14.0137 C 26.709 14.0137 22.7051 10.0586 22.7051 2.39258 L 22.7051 -74.3164 C 22.7051 -81.9336 26.709 -85.8887 34.2285 -85.8887 L 111.084 -85.8887 C 118.359 -85.8887 122.607 -81.9336 122.607 -74.3164 L 122.607 2.39258 C 122.607 10.0586 118.359 14.0137 111.084 14.0137 Z M 41.6504 -28.3691 C 41.6504 -14.502 51.6602 -5.61523 65.8203 -5.61523 L 75.3418 -5.61523 C 77.2461 -5.61523 78.5645 -6.73828 78.5645 -8.64258 C 78.5645 -10.5957 77.2461 -11.6699 75.4395 -11.6699 L 65.8203 -11.6699 C 55.1758 -11.6699 47.8516 -18.3105 47.8516 -28.6133 C 47.8516 -38.8184 55.2734 -45.0684 65.7715 -45.0684 L 88.0371 -45.0684 L 95.0684 -45.2637 L 91.748 -42.6758 L 81.4453 -32.6172 C 80.8105 -31.9824 80.4199 -31.1523 80.4199 -30.3223 C 80.4199 -28.5156 81.7383 -27.1973 83.4961 -27.1973 C 84.4238 -27.1973 85.1074 -27.5391 85.7422 -28.125 L 102.49 -45.2148 C 103.223 -45.9961 103.711 -46.9727 103.711 -48.0469 C 103.711 -49.1211 103.223 -50.1465 102.49 -50.8789 L 85.7422 -67.9199 C 85.1562 -68.5547 84.4238 -68.8477 83.4961 -68.8477 C 81.7383 -68.8477 80.4199 -67.5293 80.4199 -65.7715 C 80.4199 -64.8438 80.8594 -64.0625 81.4941 -63.4766 L 91.1133 -53.9551 L 95.0684 -50.8301 L 88.0371 -51.0254 L 65.7715 -51.0254 C 51.6113 -51.0254 41.6504 -42.2363 41.6504 -28.3691 Z"/>
  </g>
  <g id="Regular-L" transform="matrix(1 0 0 1 1376.36 1556)">
   <path d="M 35.1074 21.4355 L 111.865 21.4355 C 124.512 21.4355 130.859 15.0391 130.859 2.63672 L 130.859 -74.5605 C 130.859 -86.9629 124.512 -93.3594 111.865 -93.3594 L 35.1074 -93.3594 C 22.5098 -93.3594 16.0645 -87.0117 16.0645 -74.5605 L 16.0645 2.63672 C 16.0645 15.0879 22.5098 21.4355 35.1074 21.4355 Z M 35.2539 12.793 C 28.4668 12.793 24.7559 9.17969 24.7559 2.14844 L 24.7559 -74.0723 C 24.7559 -81.1035 28.4668 -84.7168 35.2539 -84.7168 L 111.67 -84.7168 C 118.359 -84.7168 122.217 -81.1035 122.217 -74.0723 L 122.217 2.14844 C 122.217 9.17969 118.359 12.793 111.67 12.793 Z M 41.6016 -28.1738 C 41.6016 -13.5742 52.1484 -4.3457 66.6504 -4.3457 L 75.6836 -4.3457 C 78.0762 -4.3457 79.834 -5.76172 79.834 -8.25195 C 79.834 -10.7422 78.0762 -12.1094 75.7812 -12.1094 L 66.6504 -12.1094 C 56.6406 -12.1094 49.5605 -18.457 49.5605 -28.5645 C 49.5605 -38.4766 56.7871 -44.1406 66.6016 -44.1406 L 86.8652 -44.1406 L 94.1406 -44.4336 L 90.625 -41.748 L 81.6895 -33.1055 C 80.9082 -32.373 80.4688 -31.2988 80.4688 -30.2734 C 80.4688 -28.0273 82.1777 -26.3184 84.3262 -26.3184 C 85.498 -26.3184 86.4258 -26.709 87.1582 -27.4414 L 103.955 -44.6289 C 104.883 -45.5566 105.42 -46.6797 105.42 -47.998 C 105.42 -49.3164 104.883 -50.4883 103.955 -51.416 L 87.207 -68.4082 C 86.4746 -69.2383 85.5469 -69.6289 84.4238 -69.6289 C 82.1777 -69.6289 80.4688 -67.9199 80.4688 -65.6738 C 80.4688 -64.502 81.0059 -63.5254 81.7383 -62.793 L 89.5996 -55.1758 L 94.1406 -51.5625 L 86.8652 -51.7578 L 66.6016 -51.7578 C 52.0996 -51.7578 41.6016 -42.7734 41.6016 -28.1738 Z"/>
  </g>
  <g id="Medium-L" transform="matrix(1 0 0 1 1672.31 1556)">
   <path d="M 35.9863 22.2168 L 112.549 22.2168 C 125.635 22.2168 132.422 15.4297 132.422 2.49023 L 132.422 -74.4141 C 132.422 -87.3535 125.635 -94.1406 112.549 -94.1406 L 35.9863 -94.1406 C 22.9004 -94.1406 16.0645 -87.4023 16.0645 -74.4141 L 16.0645 2.49023 C 16.0645 15.4785 22.9004 22.2168 35.9863 22.2168 Z M 36.6211 11.4746 C 30.2734 11.4746 26.8066 8.1543 26.8066 1.61133 L 26.8066 -73.5352 C 26.8066 -80.0781 30.2734 -83.3984 36.6211 -83.3984 L 111.914 -83.3984 C 118.164 -83.3984 121.68 -80.0781 121.68 -73.5352 L 121.68 1.61133 C 121.68 8.1543 118.164 11.4746 111.914 11.4746 Z M 42.5293 -28.2227 C 42.5293 -13.5742 52.9785 -4.3457 67.4316 -4.3457 L 76.416 -4.3457 C 79.1016 -4.3457 81.0059 -5.9082 81.0059 -8.64258 C 81.0059 -11.3281 79.1016 -12.8906 76.4648 -12.8906 L 67.4316 -12.8906 C 57.959 -12.8906 51.2695 -18.9453 51.2695 -28.5645 C 51.2695 -38.0371 58.1055 -43.5059 67.4316 -43.5059 L 87.0605 -43.5059 L 93.8477 -43.7988 L 90.332 -41.2109 L 81.9824 -33.3008 C 81.1035 -32.4707 80.6641 -31.3965 80.6641 -30.2734 C 80.6641 -27.8809 82.5684 -26.0254 84.8633 -26.0254 C 86.0352 -26.0254 87.0605 -26.416 87.8418 -27.2461 L 104.541 -44.2383 C 105.469 -45.166 106.055 -46.3867 106.055 -47.7539 C 106.055 -49.0723 105.469 -50.293 104.541 -51.2695 L 87.8906 -68.1152 C 87.0605 -68.9941 86.1328 -69.4336 84.9121 -69.4336 C 82.5684 -69.4336 80.7129 -67.5293 80.7129 -65.1367 C 80.7129 -63.9648 81.2012 -62.8906 82.0312 -62.1582 L 89.4043 -55.0293 L 93.8477 -51.5625 L 87.0605 -51.8066 L 67.4316 -51.8066 C 52.9297 -51.8066 42.5293 -42.7734 42.5293 -28.2227 Z"/>
  </g>
  <g id="Semibold-L" transform="matrix(1 0 0 1 1968.41 1556)">
   <path d="M 36.6699 22.8027 L 113.037 22.8027 C 126.514 22.8027 133.594 15.6738 133.594 2.39258 L 133.594 -74.3164 C 133.594 -87.6465 126.514 -94.7266 113.037 -94.7266 L 36.6699 -94.7266 C 23.2422 -94.7266 16.0645 -87.6953 16.0645 -74.3164 L 16.0645 2.39258 C 16.0645 15.7227 23.2422 22.8027 36.6699 22.8027 Z M 37.6465 10.4492 C 31.6406 10.4492 28.418 7.37305 28.418 1.17188 L 28.418 -73.0957 C 28.418 -79.3457 31.6406 -82.4219 37.6465 -82.4219 L 112.061 -82.4219 C 117.969 -82.4219 121.289 -79.3457 121.289 -73.0957 L 121.289 1.17188 C 121.289 7.37305 117.969 10.4492 112.061 10.4492 Z M 43.2129 -28.2227 C 43.2129 -13.623 53.6133 -4.3457 68.0664 -4.3457 L 76.9531 -4.3457 C 79.8828 -4.3457 81.9336 -6.00586 81.9336 -8.93555 C 81.9336 -11.7676 79.8828 -13.4766 77.0508 -13.4766 L 68.0664 -13.4766 C 58.9844 -13.4766 52.5879 -19.3359 52.5879 -28.5645 C 52.5879 -37.6953 59.1309 -43.0176 68.0664 -43.0176 L 87.207 -43.0176 L 93.6035 -43.3105 L 90.0879 -40.7715 L 82.2266 -33.3984 C 81.25 -32.5684 80.8105 -31.4453 80.8105 -30.2734 C 80.8105 -27.7832 82.8125 -25.7812 85.2051 -25.7812 C 86.4746 -25.7812 87.5488 -26.2207 88.3789 -27.0508 L 104.98 -43.9453 C 105.957 -44.9219 106.543 -46.1914 106.543 -47.5098 C 106.543 -48.9258 105.957 -50.1465 104.98 -51.1719 L 88.4277 -67.9199 C 87.5488 -68.7988 86.5234 -69.2383 85.3027 -69.2383 C 82.8613 -69.2383 80.8594 -67.2852 80.8594 -64.7461 C 80.8594 -63.5254 81.3965 -62.4023 82.2266 -61.6211 L 89.2578 -54.9316 L 93.6035 -51.5625 L 87.207 -51.8555 L 68.0664 -51.8555 C 53.6133 -51.8555 43.2129 -42.7246 43.2129 -28.2227 Z"/>
  </g>
  <g id="Bold-L" transform="matrix(1 0 0 1 2264.34 1556)">
   <path d="M 37.5488 23.584 L 113.721 23.584 C 127.686 23.584 135.205 16.0645 135.205 2.24609 L 135.205 -74.2188 C 135.205 -88.0371 127.686 -95.5078 113.721 -95.5078 L 37.5488 -95.5078 C 23.6328 -95.5078 16.0645 -88.0371 16.0645 -74.2188 L 16.0645 2.24609 C 16.0645 16.1133 23.6328 23.584 37.5488 23.584 Z M 38.9648 9.13086 C 33.4473 9.13086 30.5176 6.39648 30.5176 0.585938 L 30.5176 -72.5586 C 30.5176 -78.3203 33.4473 -81.1035 38.9648 -81.1035 L 112.256 -81.1035 C 117.725 -81.1035 120.752 -78.3203 120.752 -72.5586 L 120.752 0.585938 C 120.752 6.39648 117.725 9.13086 112.256 9.13086 Z M 44.1895 -28.2715 C 44.1895 -13.6719 54.4434 -4.29688 68.8965 -4.29688 L 77.7344 -4.29688 C 80.9082 -4.29688 83.1543 -6.20117 83.1543 -9.32617 C 83.1543 -12.3535 80.9082 -14.209 77.7832 -14.209 L 68.8965 -14.209 C 60.3516 -14.209 54.2969 -19.8242 54.2969 -28.5645 C 54.2969 -37.207 60.4492 -42.3828 68.8965 -42.3828 L 87.4023 -42.3828 L 93.2617 -42.7246 L 89.7949 -40.1855 L 82.4707 -33.5938 C 81.4941 -32.7148 81.0059 -31.4941 81.0059 -30.2734 C 81.0059 -27.6367 83.2031 -25.4883 85.7422 -25.4883 C 87.0117 -25.4883 88.1836 -25.9277 89.0625 -26.8555 L 105.566 -43.5547 C 106.543 -44.5801 107.129 -45.8984 107.129 -47.2656 C 107.129 -48.6816 106.592 -50 105.566 -51.0254 L 89.1113 -67.627 C 88.2324 -68.5547 87.1094 -69.043 85.8398 -69.043 C 83.252 -69.043 81.0547 -66.8945 81.0547 -64.2578 C 81.0547 -62.9395 81.5918 -61.7676 82.5195 -60.9375 L 89.0625 -54.7852 L 93.2617 -51.6113 L 87.4023 -51.9043 L 68.8965 -51.9043 C 54.4434 -51.9043 44.1895 -42.7246 44.1895 -28.2715 Z"/>
  </g>
  <g id="Heavy-L" transform="matrix(1 0 0 1 2559.91 1556)">
   <path d="M 38.8184 24.707 L 114.697 24.707 C 129.346 24.707 137.451 16.6016 137.451 2.05078 L 137.451 -74.0234 C 137.451 -88.5742 129.346 -96.6797 114.697 -96.6797 L 38.8184 -96.6797 C 24.2188 -96.6797 16.0645 -88.5742 16.0645 -74.0234 L 16.0645 2.05078 C 16.0645 16.6016 24.2188 24.707 38.8184 24.707 Z M 40.9668 7.17773 C 36.1328 7.17773 33.5938 4.88281 33.5938 -0.244141 L 33.5938 -71.7285 C 33.5938 -76.8555 36.1328 -79.1504 40.9668 -79.1504 L 112.598 -79.1504 C 117.383 -79.1504 119.971 -76.8555 119.971 -71.7285 L 119.971 -0.244141 C 119.971 4.88281 117.383 7.17773 112.598 7.17773 Z M 45.5566 -28.3203 C 45.5566 -13.7207 55.6641 -4.29688 70.0684 -4.29688 L 78.8086 -4.29688 C 82.4219 -4.29688 84.8633 -6.44531 84.8633 -9.86328 C 84.8633 -13.2324 82.373 -15.332 78.8086 -15.332 L 70.0684 -15.332 C 62.2559 -15.332 56.8359 -20.5078 56.8359 -28.5645 C 56.8359 -36.5723 62.4023 -41.4551 70.1172 -41.4551 L 87.6953 -41.4551 L 92.8223 -41.7969 L 89.4043 -39.4043 L 82.9102 -33.8379 C 81.7871 -32.9102 81.25 -31.5918 81.25 -30.2734 C 81.25 -27.4414 83.7402 -25.0977 86.4258 -25.0977 C 87.8418 -25.0977 89.1113 -25.5371 90.0879 -26.5137 L 106.396 -43.0176 C 107.471 -44.043 108.057 -45.459 108.057 -46.875 C 108.057 -48.3398 107.471 -49.707 106.396 -50.8301 L 90.1367 -67.1875 C 89.1602 -68.2129 87.8906 -68.7012 86.5723 -68.7012 C 83.8379 -68.7012 81.3477 -66.3574 81.3477 -63.4766 C 81.3477 -62.1582 81.8848 -60.8398 82.9102 -59.9121 L 88.7695 -54.5898 L 92.8223 -51.6113 L 87.6953 -51.9531 L 70.1172 -51.9531 C 55.6641 -51.9531 45.5566 -42.7246 45.5566 -28.3203 Z"/>
  </g>
  <g id="Black-L" transform="matrix(1 0 0 1 2855.62 1556)">
   <path d="M 39.9902 25.7324 L 115.576 25.7324 C 130.859 25.7324 139.502 17.0898 139.502 1.9043 L 139.502 -73.877 C 139.502 -89.0625 130.859 -97.7051 115.576 -97.7051 L 39.9902 -97.7051 C 24.7559 -97.7051 16.0645 -89.0625 16.0645 -73.877 L 16.0645 1.9043 C 16.0645 17.0898 24.7559 25.7324 39.9902 25.7324 Z M 42.7246 5.46875 C 38.4766 5.46875 36.3281 3.56445 36.3281 -0.976562 L 36.3281 -71.0449 C 36.3281 -75.5859 38.4766 -77.4414 42.7246 -77.4414 L 112.842 -77.4414 C 117.09 -77.4414 119.238 -75.5859 119.238 -71.0449 L 119.238 -0.976562 C 119.238 3.56445 117.09 5.46875 112.842 5.46875 Z M 46.7773 -28.3691 C 46.7773 -13.7695 56.7383 -4.24805 71.1426 -4.24805 L 79.7852 -4.24805 C 83.7891 -4.24805 86.4258 -6.64062 86.4258 -10.4004 C 86.4258 -14.0137 83.7402 -16.3574 79.7852 -16.3574 L 71.1426 -16.3574 C 64.0137 -16.3574 59.082 -21.1426 59.082 -28.5645 C 59.082 -35.9863 64.1602 -40.625 71.2402 -40.625 L 87.9395 -40.625 L 92.3828 -41.0156 L 89.0137 -38.6719 L 83.3008 -34.0332 C 82.0801 -33.0566 81.4941 -31.6895 81.4941 -30.2734 C 81.4941 -27.2461 84.2773 -24.707 87.1094 -24.707 C 88.5742 -24.707 89.9414 -25.1953 90.9668 -26.2207 L 107.178 -42.4805 C 108.252 -43.6035 108.838 -45.1172 108.838 -46.5332 C 108.838 -48.0469 108.301 -49.4629 107.178 -50.6348 L 91.0156 -66.8457 C 89.9902 -67.9199 88.623 -68.457 87.2559 -68.457 C 84.375 -68.457 81.6406 -65.8691 81.6406 -62.8418 C 81.6406 -61.4258 82.1777 -60.0586 83.3008 -59.0332 L 88.5254 -54.3945 L 92.3828 -51.6113 L 87.9395 -52.002 L 71.2402 -52.002 C 56.7871 -52.002 46.7773 -42.6758 46.7773 -28.3691 Z"/>
  </g>
 </g>
</svg>
