<?xml version="1.0" encoding="UTF-8"?>
<!--Generator: Apple Native CoreSVG 123-->
<!DOCTYPE svg
PUBLIC "-//W3C//DTD SVG 1.1//EN"
       "http://www.w3.org/Graphics/SVG/1.1/DTD/svg11.dtd">
<svg version="1.1" xmlns="http://www.w3.org/2000/svg" xmlns:xlink="http://www.w3.org/1999/xlink" width="3300" height="2200">
 <!--glyph: "uni10024E.medium", point size: 100.000000, font version: "Version 15.0d4e20", template writer version: "2"-->
 <g id="Notes">
  <rect height="2200" id="artboard" style="fill:white;opacity:1" width="3300" x="0" y="0"/>
  <line id="" style="fill:none;stroke:black;opacity:1;stroke-width:0.5;" x1="263" x2="3036" y1="292" y2="292"/>
  <text style="stroke:none;fill:black;font-family:-apple-system,&quot;SF Pro Display&quot;,&quot;SF Pro Text&quot;,Helvetica,sans-serif;font-weight:bold;" transform="matrix(1 0 0 1 263 322)">Weight/Scale Variations</text>
  <text style="stroke:none;fill:black;font-family:-apple-system,&quot;SF Pro Display&quot;,&quot;SF Pro Text&quot;,Helvetica,sans-serif;text-anchor:middle;" transform="matrix(1 0 0 1 559.711 322)">Ultralight</text>
  <text style="stroke:none;fill:black;font-family:-apple-system,&quot;SF Pro Display&quot;,&quot;SF Pro Text&quot;,Helvetica,sans-serif;text-anchor:middle;" transform="matrix(1 0 0 1 856.422 322)">Thin</text>
  <text style="stroke:none;fill:black;font-family:-apple-system,&quot;SF Pro Display&quot;,&quot;SF Pro Text&quot;,Helvetica,sans-serif;text-anchor:middle;" transform="matrix(1 0 0 1 1153.13 322)">Light</text>
  <text style="stroke:none;fill:black;font-family:-apple-system,&quot;SF Pro Display&quot;,&quot;SF Pro Text&quot;,Helvetica,sans-serif;text-anchor:middle;" transform="matrix(1 0 0 1 1449.84 322)">Regular</text>
  <text style="stroke:none;fill:black;font-family:-apple-system,&quot;SF Pro Display&quot;,&quot;SF Pro Text&quot;,Helvetica,sans-serif;text-anchor:middle;" transform="matrix(1 0 0 1 1746.56 322)">Medium</text>
  <text style="stroke:none;fill:black;font-family:-apple-system,&quot;SF Pro Display&quot;,&quot;SF Pro Text&quot;,Helvetica,sans-serif;text-anchor:middle;" transform="matrix(1 0 0 1 2043.27 322)">Semibold</text>
  <text style="stroke:none;fill:black;font-family:-apple-system,&quot;SF Pro Display&quot;,&quot;SF Pro Text&quot;,Helvetica,sans-serif;text-anchor:middle;" transform="matrix(1 0 0 1 2339.98 322)">Bold</text>
  <text style="stroke:none;fill:black;font-family:-apple-system,&quot;SF Pro Display&quot;,&quot;SF Pro Text&quot;,Helvetica,sans-serif;text-anchor:middle;" transform="matrix(1 0 0 1 2636.69 322)">Heavy</text>
  <text style="stroke:none;fill:black;font-family:-apple-system,&quot;SF Pro Display&quot;,&quot;SF Pro Text&quot;,Helvetica,sans-serif;text-anchor:middle;" transform="matrix(1 0 0 1 2933.4 322)">Black</text>
  <line id="" style="fill:none;stroke:black;opacity:1;stroke-width:0.5;" x1="263" x2="3036" y1="1903" y2="1903"/>
  <g id="" transform="matrix(1 0 0 1 263 1933)">
   <path d="M 9.24805 0.830078 C 13.5547 0.830078 17.1387 -2.74414 17.1387 -7.05078 C 17.1387 -11.3574 13.5449 -14.9316 9.23828 -14.9316 C 4.94141 -14.9316 1.36719 -11.3574 1.36719 -7.05078 C 1.36719 -2.74414 4.95117 0.830078 9.24805 0.830078 Z M 9.24805 -0.654297 C 5.70312 -0.654297 2.87109 -3.49609 2.87109 -7.05078 C 2.87109 -10.6055 5.69336 -13.4473 9.23828 -13.4473 C 12.793 -13.4473 15.6348 -10.6055 15.6445 -7.05078 C 15.6543 -3.49609 12.8027 -0.654297 9.24805 -0.654297 Z M 9.22852 -3.42773 C 9.69727 -3.42773 9.9707 -3.74023 9.9707 -4.25781 L 9.9707 -6.31836 L 12.1973 -6.31836 C 12.6953 -6.31836 13.0371 -6.57227 13.0371 -7.04102 C 13.0371 -7.51953 12.7148 -7.7832 12.1973 -7.7832 L 9.9707 -7.7832 L 9.9707 -10.0098 C 9.9707 -10.5273 9.69727 -10.8496 9.22852 -10.8496 C 8.75977 -10.8496 8.50586 -10.5078 8.50586 -10.0098 L 8.50586 -7.7832 L 6.29883 -7.7832 C 5.78125 -7.7832 5.44922 -7.51953 5.44922 -7.04102 C 5.44922 -6.57227 5.80078 -6.31836 6.29883 -6.31836 L 8.50586 -6.31836 L 8.50586 -4.25781 C 8.50586 -3.75977 8.75977 -3.42773 9.22852 -3.42773 Z"/>
  </g>
  <g id="" transform="matrix(1 0 0 1 281.506 1933)">
   <path d="M 11.709 2.91016 C 17.1484 2.91016 21.6699 -1.60156 21.6699 -7.05078 C 21.6699 -12.4902 17.1387 -17.0117 11.6992 -17.0117 C 6.25 -17.0117 1.74805 -12.4902 1.74805 -7.05078 C 1.74805 -1.60156 6.25977 2.91016 11.709 2.91016 Z M 11.709 1.25 C 7.09961 1.25 3.41797 -2.44141 3.41797 -7.05078 C 3.41797 -11.6504 7.08984 -15.3516 11.6992 -15.3516 C 16.2988 -15.3516 20 -11.6504 20.0098 -7.05078 C 20.0195 -2.44141 16.3086 1.25 11.709 1.25 Z M 11.6797 -2.41211 C 12.207 -2.41211 12.5195 -2.77344 12.5195 -3.33984 L 12.5195 -6.23047 L 15.5762 -6.23047 C 16.123 -6.23047 16.5039 -6.51367 16.5039 -7.03125 C 16.5039 -7.55859 16.1426 -7.86133 15.5762 -7.86133 L 12.5195 -7.86133 L 12.5195 -10.9277 C 12.5195 -11.5039 12.207 -11.8555 11.6797 -11.8555 C 11.1621 -11.8555 10.8789 -11.4844 10.8789 -10.9277 L 10.8789 -7.86133 L 7.83203 -7.86133 C 7.25586 -7.86133 6.89453 -7.55859 6.89453 -7.03125 C 6.89453 -6.51367 7.28516 -6.23047 7.83203 -6.23047 L 10.8789 -6.23047 L 10.8789 -3.33984 C 10.8789 -2.79297 11.1621 -2.41211 11.6797 -2.41211 Z"/>
  </g>
  <g id="" transform="matrix(1 0 0 1 304.914 1933)">
   <path d="M 14.9707 5.67383 C 21.9336 5.67383 27.6855 -0.078125 27.6855 -7.04102 C 27.6855 -14.0039 21.9238 -19.7559 14.9609 -19.7559 C 7.99805 -19.7559 2.25586 -14.0039 2.25586 -7.04102 C 2.25586 -0.078125 8.00781 5.67383 14.9707 5.67383 Z M 14.9707 3.85742 C 8.92578 3.85742 4.08203 -1.00586 4.08203 -7.04102 C 4.08203 -13.0762 8.91602 -17.9395 14.9609 -17.9395 C 20.9961 -17.9395 25.8594 -13.0762 25.8691 -7.04102 C 25.8789 -1.00586 21.0059 3.85742 14.9707 3.85742 Z M 14.9414 -1.06445 C 15.5176 -1.06445 15.8594 -1.45508 15.8594 -2.06055 L 15.8594 -6.13281 L 20.0977 -6.13281 C 20.6934 -6.13281 21.1133 -6.46484 21.1133 -7.02148 C 21.1133 -7.59766 20.7227 -7.93945 20.0977 -7.93945 L 15.8594 -7.93945 L 15.8594 -12.1875 C 15.8594 -12.8027 15.5176 -13.1934 14.9414 -13.1934 C 14.3848 -13.1934 14.0625 -12.7832 14.0625 -12.1875 L 14.0625 -7.93945 L 9.82422 -7.93945 C 9.20898 -7.93945 8.80859 -7.59766 8.80859 -7.02148 C 8.80859 -6.46484 9.23828 -6.13281 9.82422 -6.13281 L 14.0625 -6.13281 L 14.0625 -2.06055 C 14.0625 -1.47461 14.3848 -1.06445 14.9414 -1.06445 Z"/>
  </g>
  <text style="stroke:none;fill:black;font-family:-apple-system,&quot;SF Pro Display&quot;,&quot;SF Pro Text&quot;,Helvetica,sans-serif;font-weight:bold;" transform="matrix(1 0 0 1 263 1953)">Design Variations</text>
  <text style="stroke:none;fill:black;font-family:-apple-system,&quot;SF Pro Display&quot;,&quot;SF Pro Text&quot;,Helvetica,sans-serif;" transform="matrix(1 0 0 1 263 1971)">Symbols are supported in up to nine weights and three scales.</text>
  <text style="stroke:none;fill:black;font-family:-apple-system,&quot;SF Pro Display&quot;,&quot;SF Pro Text&quot;,Helvetica,sans-serif;" transform="matrix(1 0 0 1 263 1989)">For optimal layout with text and other symbols, vertically align</text>
  <text style="stroke:none;fill:black;font-family:-apple-system,&quot;SF Pro Display&quot;,&quot;SF Pro Text&quot;,Helvetica,sans-serif;" transform="matrix(1 0 0 1 263 2007)">symbols with the adjacent text.</text>
  <rect height="14" id="" style="fill:#00AEEF;stroke:none;opacity:0.4;" width="3" x="776" y="1919"/>
  <g id="" transform="matrix(1 0 0 1 779 1933)">
   <path d="M 10.5273 0 L 12.373 0 L 7.17773 -14.0918 L 5.43945 -14.0918 L 0.244141 0 L 2.08984 0 L 3.50586 -4.0332 L 9.11133 -4.0332 Z M 6.2793 -11.9531 L 6.33789 -11.9531 L 8.59375 -5.52734 L 4.02344 -5.52734 Z"/>
  </g>
  <rect height="14" id="" style="fill:#00AEEF;stroke:none;opacity:0.4;" width="3" x="791.617" y="1919"/>
  <text style="stroke:none;fill:black;font-family:-apple-system,&quot;SF Pro Display&quot;,&quot;SF Pro Text&quot;,Helvetica,sans-serif;font-weight:bold;" transform="matrix(1 0 0 1 776 1953)">Side Bearings</text>
  <text style="stroke:none;fill:black;font-family:-apple-system,&quot;SF Pro Display&quot;,&quot;SF Pro Text&quot;,Helvetica,sans-serif;" transform="matrix(1 0 0 1 776 1971)">Horizontal padding on the left and right side of each symbol</text>
  <text style="stroke:none;fill:black;font-family:-apple-system,&quot;SF Pro Display&quot;,&quot;SF Pro Text&quot;,Helvetica,sans-serif;" transform="matrix(1 0 0 1 776 1989)">can be adjusted by modifying the width of the blue rectangles.</text>
  <text style="stroke:none;fill:black;font-family:-apple-system,&quot;SF Pro Display&quot;,&quot;SF Pro Text&quot;,Helvetica,sans-serif;" transform="matrix(1 0 0 1 776 2007)">Modifications are automatically applied proportionally to all</text>
  <text style="stroke:none;fill:black;font-family:-apple-system,&quot;SF Pro Display&quot;,&quot;SF Pro Text&quot;,Helvetica,sans-serif;" transform="matrix(1 0 0 1 776 2025)">scales and weights.</text>
  <g id="" transform="matrix(1 0 0 1 1289 1933)">
   <path d="M 2.96875 2.35352 L 3.80859 3.19336 C 4.84375 4.22852 6.12305 4.15039 7.19727 2.97852 L 16.1621 -6.82617 C 16.5527 -6.74805 16.9629 -6.8457 17.4902 -7.02148 C 18.1738 -7.25586 18.2715 -7.25586 18.3887 -7.13867 C 18.5352 -7.01172 18.4863 -6.89453 18.2422 -6.25 C 17.8809 -5.33203 17.8125 -4.79492 18.5547 -4.02344 L 19.4238 -3.13477 C 20.2734 -2.24609 21.3281 -2.26562 22.2168 -3.14453 L 25.0586 -5.97656 C 25.9473 -6.86523 25.957 -7.92969 25.0781 -8.7793 L 24.1797 -9.64844 C 23.4082 -10.4004 22.8711 -10.3516 21.9629 -9.98047 C 21.3184 -9.72656 21.2012 -9.6875 21.0645 -9.81445 C 20.9375 -9.93164 20.9473 -10.0391 21.1816 -10.7129 C 21.5332 -11.6895 21.5723 -12.2852 20.752 -13.0957 L 19.3359 -14.5117 C 15.1953 -18.6133 11.2305 -18.7402 7.65625 -15.4395 C 7.08008 -14.9023 6.99219 -14.1504 7.53906 -13.6133 L 7.79297 -13.3594 C 8.22266 -12.9297 8.86719 -12.8418 9.41406 -13.1152 C 11.0645 -13.9453 12.2559 -14.0234 13.457 -12.9785 L 13.0273 -11.416 C 12.8516 -10.8008 12.793 -10.3418 12.9199 -9.93164 L 3.18359 -1.04492 C 2.02148 0.0292969 1.93359 1.32812 2.96875 2.35352 Z M 8.96484 -14.4922 C 8.89648 -14.5703 8.86719 -14.6582 8.99414 -14.7559 C 11.709 -17.2852 15.0391 -16.8457 18.3496 -13.5254 L 19.6973 -12.168 C 20.0879 -11.7773 20.0977 -11.582 19.8828 -10.8691 C 19.6582 -10.127 19.502 -9.53125 20.1465 -8.88672 C 20.8105 -8.22266 21.2891 -8.41797 22.207 -8.63281 C 22.9004 -8.79883 23.0664 -8.79883 23.4473 -8.41797 L 24.0918 -7.77344 C 24.4043 -7.48047 24.4141 -7.32422 24.0723 -6.97266 L 21.2207 -4.13086 C 20.8887 -3.79883 20.7227 -3.79883 20.4297 -4.10156 L 19.7852 -4.75586 C 19.4141 -5.13672 19.4141 -5.30273 19.5801 -6.01562 C 19.7852 -6.88477 19.9805 -7.38281 19.3262 -8.04688 C 18.6719 -8.7207 18.0762 -8.57422 17.3438 -8.33008 C 16.5625 -8.06641 16.3281 -8.06641 15.8984 -8.49609 L 14.6094 -9.78516 C 14.1699 -10.2246 14.1309 -10.4395 14.2676 -10.9082 L 15.0293 -13.3984 C 13.3887 -15.2832 11.4941 -15.5566 9.20898 -14.4434 C 9.11133 -14.3945 9.04297 -14.4141 8.96484 -14.4922 Z M 3.96484 1.36719 C 3.52539 0.927734 3.54492 0.537109 4.14062 -0.00976562 L 13.7402 -8.81836 L 15 -7.55859 L 6.17188 2.02148 C 5.625 2.60742 5.24414 2.64648 4.79492 2.19727 Z"/>
  </g>
  <text style="stroke:none;fill:black;font-family:-apple-system,&quot;SF Pro Display&quot;,&quot;SF Pro Text&quot;,Helvetica,sans-serif;font-weight:bold;" transform="matrix(1 0 0 1 1289 1953)">Exporting</text>
  <text style="stroke:none;fill:black;font-family:-apple-system,&quot;SF Pro Display&quot;,&quot;SF Pro Text&quot;,Helvetica,sans-serif;" transform="matrix(1 0 0 1 1289 1971)">Symbols should be outlined when exporting to ensure the</text>
  <text style="stroke:none;fill:black;font-family:-apple-system,&quot;SF Pro Display&quot;,&quot;SF Pro Text&quot;,Helvetica,sans-serif;" transform="matrix(1 0 0 1 1289 1989)">design is preserved when submitting to Xcode.</text>
  <text id="template-version" style="stroke:none;fill:black;font-family:-apple-system,&quot;SF Pro Display&quot;,&quot;SF Pro Text&quot;,Helvetica,sans-serif;text-anchor:end;" transform="matrix(1 0 0 1 3036 1933)">Template v.0.1</text>
  <text style="stroke:none;fill:black;font-family:-apple-system,&quot;SF Pro Display&quot;,&quot;SF Pro Text&quot;,Helvetica,sans-serif;text-anchor:end;" transform="matrix(1 0 0 1 3036 1951)">Generated from arrowshape.turn.up.left.circle</text>
  <text style="stroke:none;fill:black;font-family:-apple-system,&quot;SF Pro Display&quot;,&quot;SF Pro Text&quot;,Helvetica,sans-serif;text-anchor:end;" transform="matrix(1 0 0 1 3036 1969)">Typeset at 100 points</text>
  <text style="stroke:none;fill:black;font-family:-apple-system,&quot;SF Pro Display&quot;,&quot;SF Pro Text&quot;,Helvetica,sans-serif;" transform="matrix(1 0 0 1 263 726)">Small</text>
  <text style="stroke:none;fill:black;font-family:-apple-system,&quot;SF Pro Display&quot;,&quot;SF Pro Text&quot;,Helvetica,sans-serif;" transform="matrix(1 0 0 1 263 1156)">Medium</text>
  <text style="stroke:none;fill:black;font-family:-apple-system,&quot;SF Pro Display&quot;,&quot;SF Pro Text&quot;,Helvetica,sans-serif;" transform="matrix(1 0 0 1 263 1586)">Large</text>
 </g>
 <g id="Guides">
  <g id="H-reference" style="fill:#27AAE1;stroke:none;" transform="matrix(1 0 0 1 339 696)">
   <path d="M 54.9316 0 L 57.666 0 L 30.5664 -70.459 L 28.0762 -70.459 L 0.976562 0 L 3.66211 0 L 12.9395 -24.4629 L 45.7031 -24.4629 Z M 29.1992 -67.0898 L 29.4434 -67.0898 L 44.8242 -26.709 L 13.8184 -26.709 Z"/>
  </g>
  <line id="Baseline-S" style="fill:none;stroke:#27AAE1;opacity:1;stroke-width:0.577;" x1="263" x2="3036" y1="696" y2="696"/>
  <line id="Capline-S" style="fill:none;stroke:#27AAE1;opacity:1;stroke-width:0.577;" x1="263" x2="3036" y1="625.541" y2="625.541"/>
  <g id="H-reference" style="fill:#27AAE1;stroke:none;" transform="matrix(1 0 0 1 339 1126)">
   <path d="M 54.9316 0 L 57.666 0 L 30.5664 -70.459 L 28.0762 -70.459 L 0.976562 0 L 3.66211 0 L 12.9395 -24.4629 L 45.7031 -24.4629 Z M 29.1992 -67.0898 L 29.4434 -67.0898 L 44.8242 -26.709 L 13.8184 -26.709 Z"/>
  </g>
  <line id="Baseline-M" style="fill:none;stroke:#27AAE1;opacity:1;stroke-width:0.577;" x1="263" x2="3036" y1="1126" y2="1126"/>
  <line id="Capline-M" style="fill:none;stroke:#27AAE1;opacity:1;stroke-width:0.577;" x1="263" x2="3036" y1="1055.54" y2="1055.54"/>
  <g id="H-reference" style="fill:#27AAE1;stroke:none;" transform="matrix(1 0 0 1 339 1556)">
   <path d="M 54.9316 0 L 57.666 0 L 30.5664 -70.459 L 28.0762 -70.459 L 0.976562 0 L 3.66211 0 L 12.9395 -24.4629 L 45.7031 -24.4629 Z M 29.1992 -67.0898 L 29.4434 -67.0898 L 44.8242 -26.709 L 13.8184 -26.709 Z"/>
  </g>
  <line id="Baseline-L" style="fill:none;stroke:#27AAE1;opacity:1;stroke-width:0.577;" x1="263" x2="3036" y1="1556" y2="1556"/>
  <line id="Capline-L" style="fill:none;stroke:#27AAE1;opacity:1;stroke-width:0.577;" x1="263" x2="3036" y1="1485.54" y2="1485.54"/>
  <rect height="119.336" id="left-margin" style="fill:#00AEEF;stroke:none;opacity:0.4;" width="8.74023" x="1391.32" y="1030.79"/>
  <rect height="119.336" id="right-margin" style="fill:#00AEEF;stroke:none;opacity:0.4;" width="8.69141" x="1499.67" y="1030.79"/>
 </g>
 <g id="Symbols">
  <g id="Ultralight-S" transform="matrix(1 0 0 1 515.644 696)">
   <path d="M 44.043 2.05078 C 64.502 2.05078 81.2988 -14.6973 81.2988 -35.1562 C 81.2988 -55.6152 64.502 -72.3633 44.043 -72.3633 C 23.584 -72.3633 6.83594 -55.6152 6.83594 -35.1562 C 6.83594 -14.6973 23.584 2.05078 44.043 2.05078 Z M 44.043 -0.146484 C 24.7559 -0.146484 9.08203 -15.8691 9.08203 -35.1562 C 9.08203 -54.4434 24.7559 -70.166 44.043 -70.166 C 63.3789 -70.166 79.0527 -54.4434 79.0527 -35.1562 C 79.0527 -15.8691 63.3789 -0.146484 44.043 -0.146484 Z M 40.3809 -18.6035 C 41.3086 -18.6035 41.7969 -19.2871 41.7969 -20.166 L 41.7969 -29.6387 L 42.7734 -29.6387 C 53.1738 -29.6387 59.2285 -26.7578 62.3047 -19.8242 C 62.7441 -18.9453 63.1348 -18.6035 63.8184 -18.6035 C 64.5508 -18.6035 65.1855 -19.1895 65.1855 -20.166 C 65.1855 -37.9395 56.2012 -45.4102 42.7734 -45.4102 L 41.7969 -45.4102 L 41.7969 -55.0781 C 41.7969 -55.957 41.3086 -56.6406 40.3809 -56.6406 C 39.7461 -56.6406 39.209 -56.2988 38.7695 -55.8594 L 21.4844 -39.8438 C 20.3613 -38.8184 20.2148 -38.2324 20.2148 -37.6465 C 20.2148 -37.0117 20.4102 -36.4258 21.4844 -35.4004 L 38.7695 -19.3359 C 39.209 -18.9453 39.7461 -18.6035 40.3809 -18.6035 Z"/>
  </g>
  <g id="Thin-S" transform="matrix(1 0 0 1 811.867 696)">
   <path d="M 44.5801 2.53906 C 65.2832 2.53906 82.2754 -14.4531 82.2754 -35.2051 C 82.2754 -55.9082 65.2344 -72.9004 44.5312 -72.9004 C 23.8281 -72.9004 6.83594 -55.9082 6.83594 -35.2051 C 6.83594 -14.4531 23.877 2.53906 44.5801 2.53906 Z M 44.5801 -0.878906 C 25.5859 -0.878906 10.2539 -16.2109 10.2539 -35.2051 C 10.2539 -54.1504 25.5859 -69.4824 44.5312 -69.4824 C 63.5254 -69.4824 78.8574 -54.1504 78.8574 -35.2051 C 78.8574 -16.2109 63.5254 -0.878906 44.5801 -0.878906 Z M 40.918 -18.75 C 41.9434 -18.75 42.5781 -19.5312 42.5781 -20.5566 L 42.5781 -29.5898 L 43.457 -29.5898 C 53.2227 -29.5898 58.9355 -26.9531 62.207 -20.0684 C 62.6953 -19.043 63.2324 -18.75 63.9648 -18.75 C 64.7949 -18.75 65.5273 -19.4824 65.5273 -20.6543 C 65.5273 -37.6953 57.2754 -45.752 43.457 -45.752 L 42.5781 -45.752 L 42.5781 -54.8828 C 42.5781 -55.8594 41.9434 -56.7383 40.918 -56.7383 C 40.1367 -56.7383 39.5996 -56.3477 38.9648 -55.7617 L 21.9727 -39.9902 C 20.9473 -39.0137 20.752 -38.3789 20.752 -37.7441 C 20.752 -37.1094 20.9473 -36.4746 21.9727 -35.498 L 38.9648 -19.6777 C 39.5508 -19.1406 40.1855 -18.75 40.918 -18.75 Z"/>
  </g>
  <g id="Light-S" transform="matrix(1 0 0 1 1107.6 696)">
   <path d="M 45.5078 3.4668 C 66.6992 3.4668 84.2285 -14.0625 84.2285 -35.2051 C 84.2285 -56.3965 66.6504 -73.9258 45.5078 -73.9258 C 24.3164 -73.9258 6.83594 -56.3965 6.83594 -35.2051 C 6.83594 -14.0625 24.3652 3.4668 45.5078 3.4668 Z M 45.5078 -2.24609 C 27.2461 -2.24609 12.5977 -16.9434 12.5977 -35.2051 C 12.5977 -53.5156 27.1973 -68.2129 45.5078 -68.2129 C 63.7695 -68.2129 78.4668 -53.5156 78.5156 -35.2051 C 78.5156 -16.9434 63.8184 -2.24609 45.5078 -2.24609 Z M 41.9434 -19.043 C 43.2129 -19.043 44.1406 -20.0195 44.1406 -21.2891 L 44.1406 -29.4922 L 44.8242 -29.4922 C 53.2227 -29.4922 58.4473 -27.2949 61.9629 -20.5566 C 62.5977 -19.2871 63.4277 -19.043 64.2578 -19.043 C 65.2832 -19.043 66.2598 -19.9707 66.2598 -21.582 C 66.2598 -37.3047 59.3262 -46.3379 44.8242 -46.3379 L 44.1406 -46.3379 L 44.1406 -54.4922 C 44.1406 -55.7617 43.2129 -56.8359 41.8945 -56.8359 C 40.9668 -56.8359 40.332 -56.3965 39.3555 -55.5176 L 22.9004 -40.1367 C 22.0703 -39.3555 21.8262 -38.623 21.8262 -37.9395 C 21.8262 -37.2559 22.0703 -36.5234 22.9004 -35.7422 L 39.3555 -20.3125 C 40.2344 -19.4824 40.9668 -19.043 41.9434 -19.043 Z"/>
  </g>
  <g id="Regular-S" transform="matrix(1 0 0 1 1403.58 696)">
   <path d="M 46.2402 4.15039 C 67.7734 4.15039 85.6934 -13.7207 85.6934 -35.2539 C 85.6934 -56.7871 67.7246 -74.6582 46.1914 -74.6582 C 24.707 -74.6582 6.83594 -56.7871 6.83594 -35.2539 C 6.83594 -13.7207 24.7559 4.15039 46.2402 4.15039 Z M 46.2402 -3.27148 C 28.5156 -3.27148 14.3555 -17.4805 14.3555 -35.2539 C 14.3555 -53.0273 28.4668 -67.2363 46.1914 -67.2363 C 63.9648 -67.2363 78.1738 -53.0273 78.2227 -35.2539 C 78.2715 -17.4805 64.0137 -3.27148 46.2402 -3.27148 Z M 42.6758 -19.2871 C 44.1895 -19.2871 45.3125 -20.4102 45.3125 -21.875 L 45.3125 -29.3945 L 45.8008 -29.3945 C 53.2715 -29.3945 58.0566 -27.5879 61.7676 -20.8984 C 62.5 -19.4824 63.5742 -19.2871 64.502 -19.2871 C 65.6738 -19.2871 66.7969 -20.3613 66.7969 -22.2656 C 66.7969 -36.9629 60.8398 -46.7773 45.8008 -46.7773 L 45.3125 -46.7773 L 45.3125 -54.1992 C 45.3125 -55.6641 44.1895 -56.9336 42.627 -56.9336 C 41.5527 -56.9336 40.8691 -56.4453 39.6484 -55.3223 L 23.584 -40.2832 C 22.9004 -39.6484 22.6074 -38.8184 22.6074 -38.0859 C 22.6074 -37.4023 22.9004 -36.5723 23.584 -35.8887 L 39.6484 -20.752 C 40.7227 -19.7754 41.6016 -19.2871 42.6758 -19.2871 Z"/>
  </g>
  <g id="Medium-S" transform="matrix(1 0 0 1 1699.7 696)">
   <path d="M 46.8262 4.78516 C 68.75 4.78516 86.8652 -13.3301 86.8652 -35.2539 C 86.8652 -57.1289 68.7012 -75.2441 46.8262 -75.2441 C 24.9023 -75.2441 6.83594 -57.1289 6.83594 -35.2539 C 6.83594 -13.3301 24.9512 4.78516 46.8262 4.78516 Z M 46.8262 -4.19922 C 29.6387 -4.19922 15.8691 -18.0176 15.8691 -35.2539 C 15.8691 -52.4414 29.5898 -66.2598 46.8262 -66.2598 C 64.0137 -66.2598 77.832 -52.4414 77.8809 -35.2539 C 77.8809 -18.0176 64.0625 -4.19922 46.8262 -4.19922 Z M 43.457 -19.0918 C 45.1172 -19.0918 46.3867 -20.3613 46.3867 -22.0215 L 46.3867 -28.9062 L 46.8262 -28.9062 C 53.7109 -28.9062 57.959 -26.8555 61.084 -21.1426 C 61.9629 -19.5801 63.0371 -19.2383 64.1602 -19.2383 C 65.6738 -19.2383 66.8457 -20.6543 66.8457 -23.4375 C 66.8457 -37.5977 60.791 -46.6797 46.8262 -46.6797 L 46.3867 -46.6797 L 46.3867 -53.5156 C 46.3867 -55.1758 45.1172 -56.543 43.4082 -56.543 C 42.2852 -56.543 41.5039 -56.0547 40.2344 -54.8828 L 24.4629 -40.1855 C 23.7305 -39.502 23.3887 -38.623 23.3887 -37.8418 C 23.3887 -37.0605 23.7305 -36.1328 24.4629 -35.4492 L 40.2344 -20.6543 C 41.4062 -19.6289 42.2852 -19.0918 43.457 -19.0918 Z"/>
  </g>
  <g id="Semibold-S" transform="matrix(1 0 0 1 1995.98 696)">
   <path d="M 47.3145 5.22461 C 69.4824 5.22461 87.7441 -13.0371 87.7441 -35.2539 C 87.7441 -57.4219 69.4336 -75.6836 47.2656 -75.6836 C 25.0977 -75.6836 6.83594 -57.4219 6.83594 -35.2539 C 6.83594 -13.0371 25.0977 5.22461 47.3145 5.22461 Z M 47.3145 -4.93164 C 30.4688 -4.93164 17.041 -18.4082 17.041 -35.2539 C 17.041 -52.0508 30.4688 -65.5273 47.2656 -65.5273 C 64.0625 -65.5273 77.5879 -52.0508 77.5879 -35.2539 C 77.6367 -18.4082 64.1113 -4.93164 47.3145 -4.93164 Z M 44.043 -18.9941 C 45.8496 -18.9941 47.2168 -20.3125 47.2168 -22.1191 L 47.2168 -28.5156 L 47.5586 -28.5156 C 54.0527 -28.5156 57.8613 -26.3184 60.5957 -21.2891 C 61.5234 -19.6289 62.5977 -19.1895 63.8672 -19.1895 C 65.6738 -19.1895 66.8945 -20.8984 66.8945 -24.3164 C 66.8945 -38.0371 60.6934 -46.582 47.5586 -46.582 L 47.2168 -46.582 L 47.2168 -52.9785 C 47.2168 -54.7852 45.8496 -56.25 44.043 -56.25 C 42.8711 -56.25 41.9922 -55.7617 40.6738 -54.541 L 25.1465 -40.0879 C 24.4141 -39.4043 24.0234 -38.4766 24.0234 -37.5977 C 24.0234 -36.7676 24.3652 -35.791 25.1465 -35.1074 L 40.6738 -20.5566 C 41.8945 -19.4824 42.8223 -18.9941 44.043 -18.9941 Z"/>
  </g>
  <g id="Bold-S" transform="matrix(1 0 0 1 2292.1 696)">
   <path d="M 47.9004 5.81055 C 70.4102 5.81055 88.916 -12.6465 88.916 -35.2051 C 88.916 -57.7637 70.4102 -76.2695 47.8516 -76.2695 C 25.293 -76.2695 6.83594 -57.7637 6.83594 -35.2051 C 6.83594 -12.6465 25.3418 5.81055 47.9004 5.81055 Z M 47.9004 -5.85938 C 31.6406 -5.85938 18.5547 -18.9453 18.5547 -35.2051 C 18.5547 -51.4648 31.5918 -64.5508 47.8516 -64.5508 C 64.1113 -64.5508 77.1973 -51.4648 77.2461 -35.2051 C 77.2461 -18.9453 64.1602 -5.85938 47.9004 -5.85938 Z M 44.8242 -18.7988 C 46.8262 -18.7988 48.3398 -20.3125 48.3398 -22.2656 L 48.3398 -27.9785 L 48.584 -27.9785 C 54.4922 -27.9785 57.7148 -25.5371 59.9609 -21.5332 C 60.9863 -19.7266 62.0605 -19.0918 63.5254 -19.0918 C 65.6738 -19.0918 66.9434 -21.2402 66.9434 -25.4883 C 66.9434 -38.6719 60.6445 -46.4844 48.584 -46.4844 L 48.3398 -46.4844 L 48.3398 -52.2949 C 48.3398 -54.248 46.8262 -55.8105 44.8242 -55.8105 C 43.6035 -55.8105 42.6758 -55.3711 41.3086 -54.1016 L 26.0254 -39.9902 C 25.2441 -39.2578 24.8535 -38.2324 24.8535 -37.3047 C 24.8535 -36.4258 25.2441 -35.3027 26.0254 -34.6191 L 41.3086 -20.459 C 42.5293 -19.2871 43.5547 -18.7988 44.8242 -18.7988 Z"/>
  </g>
  <g id="Heavy-S" transform="matrix(1 0 0 1 2587.96 696)">
   <path d="M 48.7305 6.68945 C 71.8262 6.68945 90.625 -12.1094 90.625 -35.2051 C 90.625 -58.3008 71.8262 -77.0996 48.7305 -77.0996 C 25.6348 -77.0996 6.83594 -58.3008 6.83594 -35.2051 C 6.83594 -12.1094 25.6348 6.68945 48.7305 6.68945 Z M 48.7305 -7.22656 C 33.3008 -7.22656 20.752 -19.7266 20.752 -35.2051 C 20.752 -50.6836 33.3008 -63.1836 48.7305 -63.1836 C 64.209 -63.1836 76.709 -50.6836 76.709 -35.2051 C 76.709 -19.7266 64.209 -7.22656 48.7305 -7.22656 Z M 45.9961 -18.5059 C 48.2422 -18.5059 49.9512 -20.2637 49.9512 -22.4609 L 49.9512 -27.2461 L 50.0488 -27.2461 C 55.127 -27.2461 57.5684 -24.4629 59.0332 -21.875 C 60.1562 -19.873 61.2305 -18.9941 63.0371 -18.9941 C 65.6738 -18.9941 66.9922 -21.6797 66.9922 -27.1973 C 66.9922 -39.5508 60.498 -46.3379 50.0488 -46.3379 L 49.9512 -46.3379 L 49.9512 -51.3184 C 49.9512 -53.5156 48.2422 -55.2734 45.9961 -55.2734 C 44.6777 -55.2734 43.6035 -54.7852 42.1875 -53.4668 L 27.2949 -39.7949 C 26.5137 -39.0625 26.0254 -37.9395 26.0254 -36.8652 C 26.0254 -35.9375 26.4648 -34.668 27.2949 -33.9355 L 42.1875 -20.3125 C 43.5059 -19.043 44.5801 -18.5059 45.9961 -18.5059 Z"/>
  </g>
  <g id="Black-S" transform="matrix(1 0 0 1 2883.89 696)">
   <path d="M 49.5117 7.4707 C 73.0957 7.4707 92.1875 -11.6211 92.1875 -35.2051 C 92.1875 -58.7891 73.0957 -77.8809 49.5117 -77.8809 C 25.9277 -77.8809 6.83594 -58.7891 6.83594 -35.2051 C 6.83594 -11.6211 25.9277 7.4707 49.5117 7.4707 Z M 49.5117 -8.44727 C 34.7656 -8.44727 22.7539 -20.459 22.7539 -35.2051 C 22.7539 -49.9512 34.7656 -61.9141 49.5117 -61.9141 C 64.2578 -61.9141 76.2695 -49.9512 76.2207 -35.2051 C 76.2207 -20.459 64.2578 -8.44727 49.5117 -8.44727 Z M 47.0215 -18.2617 C 49.5117 -18.2617 51.3672 -20.2148 51.3672 -22.6562 L 51.3672 -26.5625 C 55.7129 -26.6113 57.373 -23.5352 58.1543 -22.2168 C 59.4238 -19.9707 60.498 -18.8965 62.5488 -18.8965 C 65.6738 -18.8965 67.0898 -22.1191 67.0898 -28.7109 C 67.0898 -40.332 60.4004 -46.1914 51.3672 -46.1914 L 51.3672 -50.3906 C 51.3672 -52.8809 49.5117 -54.7363 47.0215 -54.7363 C 45.6543 -54.7363 44.4824 -54.248 42.9199 -52.8809 L 28.418 -39.6484 C 27.5879 -38.8672 27.0508 -37.6953 27.0508 -36.5234 C 27.0508 -35.4492 27.5391 -34.082 28.418 -33.3008 L 42.9199 -20.166 C 44.3848 -18.8477 45.5078 -18.2617 47.0215 -18.2617 Z"/>
  </g>
  <g id="Ultralight-M" transform="matrix(1 0 0 1 503.656 1126)">
   <path d="M 56.0547 12.207 C 82.0801 12.207 103.369 -9.08203 103.369 -35.1562 C 103.369 -61.1816 82.0801 -82.4707 56.0547 -82.4707 C 30.0293 -82.4707 8.74023 -61.1816 8.74023 -35.1562 C 8.74023 -9.08203 30.0293 12.207 56.0547 12.207 Z M 56.0547 9.81445 C 31.25 9.81445 11.1328 -10.3516 11.1328 -35.1562 C 11.1328 -59.9121 31.25 -80.0781 56.0547 -80.0781 C 80.8105 -80.0781 100.977 -59.9121 100.977 -35.1562 C 100.977 -10.3516 80.8105 9.81445 56.0547 9.81445 Z M 51.3672 -13.916 C 52.4902 -13.916 53.0273 -14.7949 53.0273 -15.8203 L 53.0273 -28.0762 L 54.3457 -28.0762 C 67.8711 -28.0762 75.6836 -24.3164 79.5898 -15.4785 C 80.0781 -14.3555 80.5176 -13.916 81.3965 -13.916 C 82.3242 -13.916 83.0566 -14.6484 83.0566 -15.8203 C 83.0566 -38.7695 71.3379 -48.1445 54.3457 -48.1445 L 53.0273 -48.1445 L 53.0273 -60.6445 C 53.0273 -61.6699 52.4902 -62.5488 51.3672 -62.5488 C 50.5859 -62.5488 49.9023 -62.1094 49.4141 -61.6211 L 27.2461 -41.1133 C 25.7324 -39.7461 25.5859 -38.9648 25.5859 -38.2324 C 25.5859 -37.5 25.8301 -36.7676 27.2461 -35.3516 L 49.4141 -14.8438 C 49.9023 -14.3555 50.5859 -13.916 51.3672 -13.916 Z"/>
  </g>
  <g id="Thin-M" transform="matrix(1 0 0 1 799.806 1126)">
   <path d="M 56.5918 12.7441 C 82.9102 12.7441 104.492 -8.83789 104.492 -35.1562 C 104.492 -61.4746 82.9102 -83.0566 56.5918 -83.0566 C 30.3223 -83.0566 8.74023 -61.4746 8.74023 -35.1562 C 8.74023 -8.83789 30.3223 12.7441 56.5918 12.7441 Z M 56.5918 8.98438 C 32.2266 8.98438 12.4512 -10.791 12.4512 -35.1562 C 12.4512 -59.5215 32.2266 -79.2969 56.5918 -79.2969 C 80.957 -79.2969 100.781 -59.5215 100.781 -35.1562 C 100.781 -10.791 81.0059 8.98438 56.5918 8.98438 Z M 51.9531 -14.1113 C 53.2227 -14.1113 53.9062 -15.0879 53.9062 -16.2598 L 53.9062 -28.0273 L 55.127 -28.0273 C 67.8711 -28.0273 75.3906 -24.5605 79.4434 -15.7715 C 80.0293 -14.502 80.6152 -14.1113 81.543 -14.1113 C 82.5684 -14.1113 83.4473 -14.9414 83.4473 -16.3574 C 83.4473 -38.5254 72.5098 -48.4863 55.127 -48.4863 L 53.9062 -48.4863 L 53.9062 -60.4004 C 53.9062 -61.6211 53.2227 -62.5977 51.9531 -62.5977 C 51.0254 -62.5977 50.293 -62.1582 49.6094 -61.4746 L 27.7832 -41.2109 C 26.416 -39.9414 26.1719 -39.1602 26.1719 -38.3789 C 26.1719 -37.5977 26.4648 -36.7676 27.7832 -35.498 L 49.6094 -15.2344 C 50.293 -14.5996 51.0254 -14.1113 51.9531 -14.1113 Z"/>
  </g>
  <g id="Light-M" transform="matrix(1 0 0 1 1095.42 1126)">
   <path d="M 57.7148 13.7695 C 84.5215 13.7695 106.689 -8.39844 106.689 -35.2051 C 106.689 -62.0117 84.4727 -84.1797 57.666 -84.1797 C 30.8594 -84.1797 8.74023 -62.0117 8.74023 -35.2051 C 8.74023 -8.39844 30.8594 13.7695 57.7148 13.7695 Z M 57.7148 7.4707 C 34.082 7.4707 15.0879 -11.5723 15.0879 -35.2051 C 15.0879 -58.8379 34.0332 -77.832 57.666 -77.832 C 81.2988 -77.832 100.342 -58.8379 100.342 -35.2051 C 100.391 -11.5723 81.2988 7.4707 57.7148 7.4707 Z M 53.0762 -14.4531 C 54.6387 -14.4531 55.6641 -15.625 55.6641 -17.1387 L 55.6641 -27.9297 L 56.6406 -27.9297 C 67.9199 -27.9297 74.8047 -24.9512 79.1504 -16.2598 C 79.9316 -14.7949 80.8594 -14.4531 81.9336 -14.4531 C 83.1543 -14.4531 84.2773 -15.5273 84.2773 -17.4316 C 84.2773 -38.0371 74.8535 -49.1699 56.6406 -49.1699 L 55.6641 -49.1699 L 55.6641 -59.9609 C 55.6641 -61.4746 54.6387 -62.7441 53.0762 -62.7441 C 51.9043 -62.7441 51.123 -62.207 50.0488 -61.1816 L 28.8574 -41.4551 C 27.6855 -40.3809 27.3926 -39.4531 27.3926 -38.623 C 27.3926 -37.7441 27.6855 -36.8652 28.8574 -35.791 L 50.0488 -15.918 C 51.0254 -14.9902 51.9531 -14.4531 53.0762 -14.4531 Z"/>
  </g>
  <g id="Regular-M" transform="matrix(1 0 0 1 1391.32 1126)">
   <path d="M 58.5449 14.5508 C 85.7422 14.5508 108.35 -8.00781 108.35 -35.2539 C 108.35 -62.4512 85.6934 -85.0586 58.4961 -85.0586 C 31.25 -85.0586 8.74023 -62.4512 8.74023 -35.2539 C 8.74023 -8.00781 31.2988 14.5508 58.5449 14.5508 Z M 58.5449 6.25 C 35.498 6.25 17.0898 -12.207 17.0898 -35.2539 C 17.0898 -58.252 35.4492 -76.7578 58.4961 -76.7578 C 81.4941 -76.7578 100 -58.252 100.049 -35.2539 C 100.098 -12.207 81.543 6.25 58.5449 6.25 Z M 53.9551 -14.7461 C 55.7129 -14.7461 56.9824 -16.0156 56.9824 -17.7734 L 56.9824 -27.832 L 57.7637 -27.832 C 67.9688 -27.832 74.4141 -25.293 78.9551 -16.6992 C 79.834 -15.0391 81.0547 -14.7461 82.1777 -14.7461 C 83.5449 -14.7461 84.8633 -15.9668 84.8633 -18.2129 C 84.8633 -37.6953 76.6113 -49.6582 57.7637 -49.6582 L 56.9824 -49.6582 L 56.9824 -59.668 C 56.9824 -61.377 55.7129 -62.8418 53.9062 -62.8418 C 52.5879 -62.8418 51.7578 -62.2559 50.3906 -60.9863 L 29.6387 -41.6016 C 28.6133 -40.6738 28.3203 -39.6973 28.3203 -38.7695 C 28.3203 -37.8906 28.6621 -36.9141 29.6387 -35.9863 L 50.3906 -16.4551 C 51.6113 -15.332 52.6367 -14.7461 53.9551 -14.7461 Z"/>
  </g>
  <g id="Medium-M" transform="matrix(1 0 0 1 1687.33 1126)">
   <path d="M 59.2285 15.2832 C 86.8652 15.2832 109.717 -7.56836 109.717 -35.2051 C 109.717 -62.8906 86.8164 -85.7422 59.1797 -85.7422 C 31.543 -85.7422 8.74023 -62.8906 8.74023 -35.2051 C 8.74023 -7.56836 31.5918 15.2832 59.2285 15.2832 Z M 59.2285 5.17578 C 36.8164 5.17578 18.8477 -12.8418 18.8477 -35.2051 C 18.8477 -57.6172 36.7676 -75.6348 59.1797 -75.6348 C 81.5918 -75.6348 99.6094 -57.6172 99.6582 -35.2051 C 99.6582 -12.8418 81.6406 5.17578 59.2285 5.17578 Z M 54.834 -14.5508 C 56.8359 -14.5508 58.3008 -16.0645 58.3008 -18.0176 L 58.3008 -27.3438 L 58.9355 -27.3438 C 68.4082 -27.3438 74.2188 -24.5605 78.2715 -16.9434 C 79.248 -15.1367 80.5176 -14.6973 81.8359 -14.6973 C 83.5938 -14.6973 85.0098 -16.3574 85.0098 -19.4824 C 85.0098 -38.2324 76.709 -49.6094 58.9355 -49.6094 L 58.3008 -49.6094 L 58.3008 -58.9355 C 58.3008 -60.8398 56.8359 -62.4512 54.834 -62.4512 C 53.4668 -62.4512 52.4902 -61.8652 51.0254 -60.498 L 30.6152 -41.5039 C 29.5898 -40.5762 29.248 -39.502 29.248 -38.5254 C 29.248 -37.5488 29.5898 -36.4746 30.6152 -35.498 L 51.0254 -16.4062 C 52.3926 -15.1855 53.4668 -14.5508 54.834 -14.5508 Z"/>
  </g>
  <g id="Semibold-M" transform="matrix(1 0 0 1 1983.5 1126)">
   <path d="M 59.7656 15.8203 C 87.7441 15.8203 110.791 -7.22656 110.791 -35.2051 C 110.791 -63.1836 87.6953 -86.2793 59.7168 -86.2793 C 31.7383 -86.2793 8.74023 -63.1836 8.74023 -35.2051 C 8.74023 -7.22656 31.7871 15.8203 59.7656 15.8203 Z M 59.7656 4.3457 C 37.8418 4.3457 20.2148 -13.2812 20.2148 -35.2051 C 20.2148 -57.1289 37.793 -74.8047 59.7168 -74.8047 C 81.6406 -74.8047 99.3164 -57.1289 99.3164 -35.2051 C 99.3652 -13.2812 81.6895 4.3457 59.7656 4.3457 Z M 55.5176 -14.4531 C 57.666 -14.4531 59.2773 -16.0645 59.2773 -18.1641 L 59.2773 -26.9043 L 59.8145 -26.9043 C 68.75 -26.9043 74.0723 -24.0234 77.7344 -17.1875 C 78.8086 -15.2344 80.0781 -14.6484 81.5918 -14.6484 C 83.6426 -14.6484 85.1074 -16.6016 85.1074 -20.459 C 85.1074 -38.7207 76.8066 -49.5605 59.8145 -49.5605 L 59.2773 -49.5605 L 59.2773 -58.3496 C 59.2773 -60.4492 57.666 -62.1582 55.5176 -62.1582 C 54.1016 -62.1582 53.0762 -61.5723 51.5625 -60.1562 L 31.3477 -41.4062 C 30.3711 -40.4785 29.9316 -39.3555 29.9316 -38.3301 C 29.9316 -37.3047 30.3711 -36.084 31.3477 -35.1562 L 51.5625 -16.3574 C 52.9297 -15.0879 54.0527 -14.4531 55.5176 -14.4531 Z"/>
  </g>
  <g id="Bold-M" transform="matrix(1 0 0 1 2279.5 1126)">
   <path d="M 60.4492 16.5039 C 88.8672 16.5039 112.207 -6.78711 112.207 -35.2051 C 112.207 -63.623 88.8672 -86.9629 60.4492 -86.9629 C 32.0312 -86.9629 8.74023 -63.623 8.74023 -35.2051 C 8.74023 -6.78711 32.0801 16.5039 60.4492 16.5039 Z M 60.4492 3.22266 C 39.1602 3.22266 22.0215 -13.916 22.0215 -35.2051 C 22.0215 -56.4941 39.1602 -73.6816 60.4492 -73.6816 C 81.7383 -73.6816 98.877 -56.4941 98.9258 -35.2051 C 98.9258 -13.916 81.7871 3.22266 60.4492 3.22266 Z M 56.4453 -14.3066 C 58.7891 -14.3066 60.5469 -16.0645 60.5469 -18.4082 L 60.5469 -26.3672 L 60.9863 -26.3672 C 69.2383 -26.3672 73.877 -23.291 77.0508 -17.4805 C 78.2227 -15.332 79.541 -14.5996 81.25 -14.5996 C 83.6914 -14.5996 85.2539 -16.9922 85.2539 -21.7773 C 85.2539 -39.3066 76.9531 -49.5117 60.9863 -49.5117 L 60.5469 -49.5117 L 60.5469 -57.6172 C 60.5469 -59.9121 58.7891 -61.7676 56.4453 -61.7676 C 54.9316 -61.7676 53.8086 -61.1816 52.1973 -59.668 L 32.373 -41.3086 C 31.3477 -40.3809 30.8594 -39.1602 30.8594 -38.0371 C 30.8594 -36.9629 31.3477 -35.6445 32.373 -34.7168 L 52.1973 -16.3086 C 53.6621 -14.9414 54.8828 -14.3066 56.4453 -14.3066 Z"/>
  </g>
  <g id="Heavy-M" transform="matrix(1 0 0 1 2575.19 1126)">
   <path d="M 61.4746 17.5781 C 90.5273 17.5781 114.258 -6.15234 114.258 -35.2051 C 114.258 -64.2578 90.5273 -87.9883 61.4746 -87.9883 C 32.4219 -87.9883 8.74023 -64.2578 8.74023 -35.2051 C 8.74023 -6.15234 32.4707 17.5781 61.4746 17.5781 Z M 61.4746 1.66016 C 41.1133 1.66016 24.6582 -14.8438 24.6582 -35.2051 C 24.6582 -55.5664 41.1133 -72.0703 61.4746 -72.0703 C 81.8359 -72.0703 98.3398 -55.5664 98.3398 -35.2051 C 98.3398 -14.8438 81.8848 1.66016 61.4746 1.66016 Z M 57.7637 -14.0625 C 60.4492 -14.0625 62.4023 -16.1133 62.4023 -18.7012 L 62.4023 -25.5859 L 62.6953 -25.5859 C 69.873 -25.5859 73.6328 -22.2656 76.0254 -17.9199 C 77.3926 -15.4785 78.7109 -14.5508 80.7617 -14.5508 C 83.7402 -14.5508 85.4004 -17.5293 85.4004 -23.6328 C 85.4004 -40.1367 77.0996 -49.4629 62.6953 -49.4629 L 62.4023 -49.4629 L 62.4023 -56.4941 C 62.4023 -59.1309 60.4492 -61.2305 57.7637 -61.2305 C 56.1523 -61.2305 54.8828 -60.5957 53.125 -58.9844 L 33.7891 -41.1621 C 32.8125 -40.2344 32.2266 -38.916 32.2266 -37.6465 C 32.2266 -36.4746 32.7637 -34.9609 33.7891 -34.0332 L 53.125 -16.2598 C 54.7852 -14.7461 56.0547 -14.0625 57.7637 -14.0625 Z"/>
  </g>
  <g id="Black-M" transform="matrix(1 0 0 1 2871 1126)">
   <path d="M 62.4023 18.457 C 91.9922 18.457 116.064 -5.61523 116.064 -35.2051 C 116.064 -64.7949 91.9922 -88.8672 62.4023 -88.8672 C 32.8125 -88.8672 8.74023 -64.7949 8.74023 -35.2051 C 8.74023 -5.61523 32.8125 18.457 62.4023 18.457 Z M 62.4023 0.195312 C 42.8223 0.195312 27.002 -15.625 27.002 -35.2051 C 27.002 -54.7363 42.8223 -70.6055 62.4023 -70.6055 C 81.9824 -70.6055 97.8027 -54.7363 97.8027 -35.2051 C 97.8027 -15.625 81.9824 0.195312 62.4023 0.195312 Z M 58.9355 -13.8672 C 61.9141 -13.8672 64.1113 -16.1133 64.1113 -18.9941 L 64.1113 -24.9023 L 64.209 -24.9023 C 70.5078 -24.9023 73.3887 -21.3379 75.1465 -18.2617 C 76.6602 -15.625 78.0273 -14.502 80.3711 -14.502 C 83.8379 -14.502 85.5957 -18.0176 85.5957 -25.3418 C 85.5957 -40.8691 77.2461 -49.4141 64.209 -49.4141 L 64.1113 -49.4141 L 64.1113 -55.5664 C 64.1113 -58.4473 61.9141 -60.6934 58.9355 -60.6934 C 57.2266 -60.6934 55.8594 -60.0586 54.0039 -58.3984 L 35.0586 -41.0156 C 34.082 -40.0879 33.4473 -38.6719 33.4473 -37.2559 C 33.4473 -36.0352 34.0332 -34.375 35.0586 -33.4473 L 54.0039 -16.1621 C 55.7617 -14.5508 57.1289 -13.8672 58.9355 -13.8672 Z"/>
  </g>
  <g id="Ultralight-L" transform="matrix(1 0 0 1 487.641 1556)">
   <path d="M 72.0703 25.7324 C 105.566 25.7324 132.91 -1.61133 132.91 -35.1074 C 132.91 -68.5547 105.566 -95.8984 72.0703 -95.8984 C 38.623 -95.8984 11.2793 -68.5547 11.2793 -35.1074 C 11.2793 -1.61133 38.623 25.7324 72.0703 25.7324 Z M 72.0703 23.2422 C 39.9414 23.2422 13.7695 -2.97852 13.7695 -35.1074 C 13.7695 -67.2363 39.9414 -93.4082 72.0703 -93.4082 C 104.199 -93.4082 130.42 -67.2363 130.371 -35.1074 C 130.371 -2.97852 104.199 23.2422 72.0703 23.2422 Z M 66.0156 -7.66602 C 67.3828 -7.66602 68.0176 -8.74023 68.0176 -10.0098 L 68.0176 -26.0742 L 69.7754 -26.0742 C 87.5488 -26.0742 97.8027 -21.0938 102.783 -9.61914 C 103.369 -8.25195 103.857 -7.66602 104.932 -7.66602 C 106.104 -7.66602 106.982 -8.59375 106.982 -9.96094 C 106.982 -39.8926 91.5039 -51.709 69.7754 -51.709 L 68.0176 -51.709 L 68.0176 -68.1152 C 68.0176 -69.3848 67.3828 -70.459 66.0156 -70.459 C 65.0391 -70.459 64.209 -69.9219 63.6719 -69.3848 L 34.9121 -42.7734 C 32.959 -40.9668 32.7148 -39.9902 32.7148 -39.0625 C 32.7148 -38.1348 33.0078 -37.1582 34.9121 -35.3516 L 63.6719 -8.78906 C 64.209 -8.20312 65.0391 -7.66602 66.0156 -7.66602 Z"/>
  </g>
  <g id="Thin-L" transform="matrix(1 0 0 1 783.717 1556)">
   <path d="M 72.7051 26.3184 C 106.494 26.3184 134.131 -1.36719 134.131 -35.1074 C 134.131 -68.8965 106.445 -96.582 72.7051 -96.582 C 38.916 -96.582 11.2793 -68.8965 11.2793 -35.1074 C 11.2793 -1.36719 38.916 26.3184 72.7051 26.3184 Z M 72.7051 22.3145 C 41.0156 22.3145 15.2344 -3.41797 15.2344 -35.1074 C 15.2344 -66.8457 41.0156 -92.5781 72.7051 -92.5781 C 104.395 -92.5781 130.127 -66.8457 130.176 -35.1074 C 130.176 -3.41797 104.395 22.3145 72.7051 22.3145 Z M 66.6992 -7.86133 C 68.2129 -7.86133 69.043 -9.0332 69.043 -10.498 L 69.043 -25.9766 L 70.6543 -25.9766 C 87.5977 -25.9766 97.4609 -21.3379 102.588 -9.91211 C 103.32 -8.39844 103.955 -7.86133 105.127 -7.86133 C 106.396 -7.86133 107.422 -8.88672 107.422 -10.5469 C 107.422 -39.6484 92.8711 -52.0996 70.6543 -52.0996 L 69.043 -52.0996 L 69.043 -67.8711 C 69.043 -69.3359 68.2129 -70.5566 66.6992 -70.5566 C 65.5762 -70.5566 64.6484 -69.9707 63.916 -69.1895 L 35.5469 -42.8711 C 33.6914 -41.1621 33.3984 -40.1855 33.3984 -39.209 C 33.3984 -38.2324 33.7402 -37.207 35.5469 -35.498 L 63.916 -9.17969 C 64.6484 -8.44727 65.5762 -7.86133 66.6992 -7.86133 Z"/>
  </g>
  <g id="Light-L" transform="matrix(1 0 0 1 1079.21 1556)">
   <path d="M 73.9258 27.4902 C 108.301 27.4902 136.572 -0.830078 136.572 -35.1562 C 136.572 -69.5312 108.252 -97.8516 73.877 -97.8516 C 39.5508 -97.8516 11.2793 -69.5312 11.2793 -35.1562 C 11.2793 -0.830078 39.5508 27.4902 73.9258 27.4902 Z M 73.9258 20.6055 C 43.0664 20.6055 18.1641 -4.3457 18.1641 -35.1562 C 18.1641 -66.0156 43.0664 -90.918 73.877 -90.918 C 104.736 -90.918 129.639 -66.0156 129.688 -35.1562 C 129.736 -4.3457 104.785 20.6055 73.9258 20.6055 Z M 67.9688 -8.25195 C 69.8242 -8.25195 70.9961 -9.66797 70.9961 -11.4746 L 70.9961 -25.8789 L 72.3633 -25.8789 C 87.6465 -25.8789 96.8262 -21.7773 102.295 -10.498 C 103.174 -8.74023 104.248 -8.25195 105.518 -8.25195 C 107.031 -8.25195 108.35 -9.52148 108.35 -11.7676 C 108.35 -39.1113 95.459 -52.8809 72.3633 -52.8809 L 70.9961 -52.8809 L 70.9961 -67.3828 C 70.9961 -69.1895 69.8242 -70.7031 67.9199 -70.7031 C 66.5527 -70.7031 65.5762 -70.0195 64.4043 -68.8965 L 36.7188 -43.1152 C 35.1074 -41.6504 34.7656 -40.5273 34.7656 -39.4531 C 34.7656 -38.4277 35.1562 -37.3047 36.7188 -35.791 L 64.4043 -9.96094 C 65.4785 -8.93555 66.6016 -8.25195 67.9688 -8.25195 Z"/>
  </g>
  <g id="Regular-L" transform="matrix(1 0 0 1 1374.99 1556)">
   <path d="M 74.8535 28.3691 C 109.668 28.3691 138.428 -0.390625 138.428 -35.2051 C 138.428 -70.0195 109.619 -98.7793 74.8047 -98.7793 C 39.9902 -98.7793 11.2793 -70.0195 11.2793 -35.2051 C 11.2793 -0.390625 40.0391 28.3691 74.8535 28.3691 Z M 74.8535 19.2871 C 44.6289 19.2871 20.4102 -5.0293 20.4102 -35.2051 C 20.4102 -65.3809 44.5801 -89.6973 74.8047 -89.6973 C 104.98 -89.6973 129.297 -65.3809 129.346 -35.2051 C 129.395 -5.0293 105.029 19.2871 74.8535 19.2871 Z M 68.8965 -8.54492 C 70.9961 -8.54492 72.4609 -10.1074 72.4609 -12.207 L 72.4609 -25.7812 L 73.6328 -25.7812 C 87.6953 -25.7812 96.3379 -22.1191 102.051 -10.9863 C 103.076 -8.98438 104.443 -8.54492 105.811 -8.54492 C 107.471 -8.54492 109.033 -10.0098 109.033 -12.6465 C 109.033 -38.6719 97.4121 -53.4668 73.6328 -53.4668 L 72.4609 -53.4668 L 72.4609 -66.9922 C 72.4609 -69.0918 70.9961 -70.8008 68.8477 -70.8008 C 67.334 -70.8008 66.3086 -70.0684 64.7461 -68.6523 L 37.5977 -43.3105 C 36.1816 -41.9922 35.791 -40.7715 35.791 -39.6973 C 35.791 -38.5742 36.1816 -37.3535 37.5977 -36.0352 L 64.7461 -10.5469 C 66.1621 -9.27734 67.3828 -8.54492 68.8965 -8.54492 Z"/>
  </g>
  <g id="Medium-L" transform="matrix(1 0 0 1 1670.9 1556)">
   <path d="M 75.6348 29.1992 C 110.938 29.1992 140.039 0.0488281 140.039 -35.2051 C 140.039 -70.459 110.889 -99.6094 75.5859 -99.6094 C 40.332 -99.6094 11.2793 -70.459 11.2793 -35.2051 C 11.2793 0.0488281 40.3809 29.1992 75.6348 29.1992 Z M 75.6348 18.0664 C 46.1426 18.0664 22.4609 -5.71289 22.4609 -35.2051 C 22.4609 -64.6973 46.0938 -88.4766 75.5859 -88.4766 C 105.127 -88.4766 128.857 -64.6973 128.906 -35.2051 C 128.955 -5.71289 105.176 18.0664 75.6348 18.0664 Z M 69.9219 -8.44727 C 72.2168 -8.44727 73.9258 -10.2051 73.9258 -12.5 L 73.9258 -25.293 L 74.9023 -25.293 C 88.0859 -25.293 96.0938 -21.5332 101.367 -11.3281 C 102.539 -9.13086 104.004 -8.59375 105.566 -8.59375 C 107.617 -8.59375 109.277 -10.4492 109.277 -13.9648 C 109.277 -39.1602 97.8516 -53.5156 74.9023 -53.5156 L 73.9258 -53.5156 L 73.9258 -66.2598 C 73.9258 -68.5547 72.2168 -70.459 69.873 -70.459 C 68.2129 -70.459 67.0898 -69.7266 65.4297 -68.1641 L 38.6719 -43.2617 C 37.2559 -41.9922 36.8164 -40.6738 36.8164 -39.4531 C 36.8164 -38.2812 37.2559 -36.9629 38.6719 -35.6445 L 65.4297 -10.5957 C 66.9434 -9.22852 68.2617 -8.44727 69.9219 -8.44727 Z"/>
  </g>
  <g id="Semibold-L" transform="matrix(1 0 0 1 1967 1556)">
   <path d="M 76.2695 29.7852 C 111.914 29.7852 141.26 0.439453 141.26 -35.2051 C 141.26 -70.8496 111.865 -100.244 76.2207 -100.244 C 40.5762 -100.244 11.2793 -70.8496 11.2793 -35.2051 C 11.2793 0.439453 40.625 29.7852 76.2695 29.7852 Z M 76.2695 17.0898 C 47.3145 17.0898 24.0234 -6.25 24.0234 -35.2051 C 24.0234 -64.209 47.2656 -87.5 76.2207 -87.5 C 105.225 -87.5 128.516 -64.209 128.564 -35.2051 C 128.613 -6.25 105.273 17.0898 76.2695 17.0898 Z M 70.6543 -8.39844 C 73.1934 -8.39844 75 -10.3027 75 -12.793 L 75 -24.9023 L 75.8789 -24.9023 C 88.4277 -24.9023 95.8984 -21.0938 100.879 -11.5723 C 102.148 -9.22852 103.613 -8.59375 105.371 -8.59375 C 107.715 -8.59375 109.473 -10.791 109.473 -14.9902 C 109.473 -39.502 98.2422 -53.5645 75.8789 -53.5645 L 75 -53.5645 L 75 -65.7227 C 75 -68.1641 73.1934 -70.2148 70.6543 -70.2148 C 68.8965 -70.2148 67.7246 -69.4824 65.918 -67.8223 L 39.4531 -43.2129 C 38.0859 -41.9434 37.5977 -40.5762 37.5977 -39.3066 C 37.5977 -38.0859 38.0859 -36.6211 39.4531 -35.3516 L 65.918 -10.6445 C 67.5293 -9.17969 68.9453 -8.39844 70.6543 -8.39844 Z"/>
  </g>
  <g id="Bold-L" transform="matrix(1 0 0 1 2262.9 1556)">
   <path d="M 77.0996 30.6152 C 113.184 30.6152 142.92 0.878906 142.92 -35.2051 C 142.92 -71.3379 113.135 -101.025 77.0508 -101.025 C 40.918 -101.025 11.2793 -71.3379 11.2793 -35.2051 C 11.2793 0.878906 40.9668 30.6152 77.0996 30.6152 Z M 77.0996 15.8691 C 48.7793 15.8691 26.0742 -6.93359 26.0742 -35.2051 C 26.0742 -63.4766 48.7793 -86.2793 77.0508 -86.2793 C 105.322 -86.2793 128.125 -63.4766 128.125 -35.2051 C 128.174 -6.93359 105.371 15.8691 77.0996 15.8691 Z M 71.6797 -8.30078 C 74.4141 -8.30078 76.4648 -10.4004 76.4648 -13.1348 L 76.4648 -24.3652 L 77.1973 -24.3652 C 88.8672 -24.3652 95.6543 -20.5078 100.195 -11.9141 C 101.562 -9.375 103.174 -8.59375 105.127 -8.59375 C 107.812 -8.59375 109.668 -11.2305 109.668 -16.3086 C 109.668 -39.9414 98.6816 -53.6133 77.1973 -53.6133 L 76.4648 -53.6133 L 76.4648 -64.9414 C 76.4648 -67.6758 74.4141 -69.873 71.6309 -69.873 C 69.8242 -69.873 68.5059 -69.0918 66.6016 -67.334 L 40.5273 -43.1641 C 39.209 -41.8945 38.623 -40.4297 38.623 -39.0625 C 38.623 -37.793 39.1602 -36.2305 40.5273 -34.9609 L 66.6016 -10.7422 C 68.3594 -9.08203 69.8242 -8.30078 71.6797 -8.30078 Z"/>
  </g>
  <g id="Heavy-L" transform="matrix(1 0 0 1 2558.42 1556)">
   <path d="M 78.2715 31.7871 C 115.039 31.7871 145.264 1.61133 145.264 -35.2051 C 145.264 -72.0215 115.039 -102.197 78.2227 -102.197 C 41.4551 -102.197 11.2793 -72.0215 11.2793 -35.2051 C 11.2793 1.61133 41.4551 31.7871 78.2715 31.7871 Z M 78.2715 14.0137 C 50.9766 14.0137 29.0527 -7.95898 29.0527 -35.2051 C 29.0527 -62.5 50.9766 -84.4727 78.2227 -84.4727 C 105.518 -84.4727 127.49 -62.5 127.49 -35.2051 C 127.539 -7.95898 105.518 14.0137 78.2715 14.0137 Z M 73.1445 -8.1543 C 76.2695 -8.1543 78.5645 -10.5469 78.5645 -13.623 L 78.5645 -23.6328 L 79.1016 -23.6328 C 89.4531 -23.6328 95.2637 -19.6289 99.2188 -12.4023 C 100.781 -9.57031 102.49 -8.64258 104.785 -8.64258 C 108.008 -8.64258 110.059 -11.8164 110.059 -18.2617 C 110.059 -40.625 99.3652 -53.7109 79.1016 -53.7109 L 78.5645 -53.7109 L 78.5645 -63.8672 C 78.5645 -66.9434 76.2695 -69.3848 73.0957 -69.3848 C 71.1426 -69.3848 69.6777 -68.6035 67.5781 -66.6504 L 42.0898 -43.0664 C 40.7715 -41.8457 40.1367 -40.2832 40.1367 -38.7695 C 40.1367 -37.3535 40.7715 -35.6445 42.0898 -34.4238 L 67.5781 -10.8398 C 69.5312 -8.98438 71.0938 -8.1543 73.1445 -8.1543 Z"/>
  </g>
  <g id="Black-L" transform="matrix(1 0 0 1 2854.08 1556)">
   <path d="M 79.2969 32.8613 C 116.748 32.8613 147.363 2.19727 147.363 -35.2051 C 147.363 -72.6074 116.699 -103.271 79.2969 -103.271 C 41.8945 -103.271 11.2793 -72.6074 11.2793 -35.2051 C 11.2793 2.19727 41.8945 32.8613 79.2969 32.8613 Z M 79.2969 12.4023 C 52.9297 12.4023 31.7383 -8.83789 31.7383 -35.2051 C 31.7383 -61.5723 52.9297 -82.8125 79.2969 -82.8125 C 105.664 -82.8125 126.904 -61.5723 126.953 -35.2051 C 126.953 -8.83789 105.664 12.4023 79.2969 12.4023 Z M 74.4629 -8.05664 C 77.8809 -8.05664 80.4199 -10.6445 80.4199 -14.0137 L 80.4199 -22.998 L 80.7617 -22.998 C 90.0391 -22.998 94.9707 -18.8477 98.3398 -12.8906 C 100.098 -9.76562 101.855 -8.64258 104.443 -8.64258 C 108.203 -8.64258 110.352 -12.4023 110.352 -20.0195 C 110.352 -41.2109 100 -53.7598 80.7617 -53.7598 L 80.4199 -53.7598 L 80.4199 -62.8906 C 80.4199 -66.2598 77.8809 -68.9453 74.4141 -68.9453 C 72.3145 -68.9453 70.752 -68.1152 68.4082 -66.0156 L 43.457 -42.9688 C 42.2363 -41.8457 41.5039 -40.0879 41.5039 -38.4766 C 41.5039 -37.0117 42.1875 -35.1074 43.457 -33.9355 L 68.4082 -10.8887 C 70.5566 -8.93555 72.2656 -8.05664 74.4629 -8.05664 Z"/>
  </g>
 </g>
</svg>
