<?xml version="1.0" encoding="UTF-8"?>
<!--Generator: Apple Native CoreSVG 123-->
<!DOCTYPE svg
PUBLIC "-//W3C//DTD SVG 1.1//EN"
       "http://www.w3.org/Graphics/SVG/1.1/DTD/svg11.dtd">
<svg version="1.1" xmlns="http://www.w3.org/2000/svg" xmlns:xlink="http://www.w3.org/1999/xlink" width="3300" height="2200">
 <!--glyph: "uni10007F.medium", point size: 100.000000, font version: "Version 15.0d4e20", template writer version: "2"-->
 <g id="Notes">
  <rect height="2200" id="artboard" style="fill:white;opacity:1" width="3300" x="0" y="0"/>
  <line id="" style="fill:none;stroke:black;opacity:1;stroke-width:0.5;" x1="263" x2="3036" y1="292" y2="292"/>
  <text style="stroke:none;fill:black;font-family:-apple-system,&quot;SF Pro Display&quot;,&quot;SF Pro Text&quot;,Helvetica,sans-serif;font-weight:bold;" transform="matrix(1 0 0 1 263 322)">Weight/Scale Variations</text>
  <text style="stroke:none;fill:black;font-family:-apple-system,&quot;SF Pro Display&quot;,&quot;SF Pro Text&quot;,Helvetica,sans-serif;text-anchor:middle;" transform="matrix(1 0 0 1 559.711 322)">Ultralight</text>
  <text style="stroke:none;fill:black;font-family:-apple-system,&quot;SF Pro Display&quot;,&quot;SF Pro Text&quot;,Helvetica,sans-serif;text-anchor:middle;" transform="matrix(1 0 0 1 856.422 322)">Thin</text>
  <text style="stroke:none;fill:black;font-family:-apple-system,&quot;SF Pro Display&quot;,&quot;SF Pro Text&quot;,Helvetica,sans-serif;text-anchor:middle;" transform="matrix(1 0 0 1 1153.13 322)">Light</text>
  <text style="stroke:none;fill:black;font-family:-apple-system,&quot;SF Pro Display&quot;,&quot;SF Pro Text&quot;,Helvetica,sans-serif;text-anchor:middle;" transform="matrix(1 0 0 1 1449.84 322)">Regular</text>
  <text style="stroke:none;fill:black;font-family:-apple-system,&quot;SF Pro Display&quot;,&quot;SF Pro Text&quot;,Helvetica,sans-serif;text-anchor:middle;" transform="matrix(1 0 0 1 1746.56 322)">Medium</text>
  <text style="stroke:none;fill:black;font-family:-apple-system,&quot;SF Pro Display&quot;,&quot;SF Pro Text&quot;,Helvetica,sans-serif;text-anchor:middle;" transform="matrix(1 0 0 1 2043.27 322)">Semibold</text>
  <text style="stroke:none;fill:black;font-family:-apple-system,&quot;SF Pro Display&quot;,&quot;SF Pro Text&quot;,Helvetica,sans-serif;text-anchor:middle;" transform="matrix(1 0 0 1 2339.98 322)">Bold</text>
  <text style="stroke:none;fill:black;font-family:-apple-system,&quot;SF Pro Display&quot;,&quot;SF Pro Text&quot;,Helvetica,sans-serif;text-anchor:middle;" transform="matrix(1 0 0 1 2636.69 322)">Heavy</text>
  <text style="stroke:none;fill:black;font-family:-apple-system,&quot;SF Pro Display&quot;,&quot;SF Pro Text&quot;,Helvetica,sans-serif;text-anchor:middle;" transform="matrix(1 0 0 1 2933.4 322)">Black</text>
  <line id="" style="fill:none;stroke:black;opacity:1;stroke-width:0.5;" x1="263" x2="3036" y1="1903" y2="1903"/>
  <g id="" transform="matrix(1 0 0 1 263 1933)">
   <path d="M 9.24805 0.830078 C 13.5547 0.830078 17.1387 -2.74414 17.1387 -7.05078 C 17.1387 -11.3574 13.5449 -14.9316 9.23828 -14.9316 C 4.94141 -14.9316 1.36719 -11.3574 1.36719 -7.05078 C 1.36719 -2.74414 4.95117 0.830078 9.24805 0.830078 Z M 9.24805 -0.654297 C 5.70312 -0.654297 2.87109 -3.49609 2.87109 -7.05078 C 2.87109 -10.6055 5.69336 -13.4473 9.23828 -13.4473 C 12.793 -13.4473 15.6348 -10.6055 15.6445 -7.05078 C 15.6543 -3.49609 12.8027 -0.654297 9.24805 -0.654297 Z M 9.22852 -3.42773 C 9.69727 -3.42773 9.9707 -3.74023 9.9707 -4.25781 L 9.9707 -6.31836 L 12.1973 -6.31836 C 12.6953 -6.31836 13.0371 -6.57227 13.0371 -7.04102 C 13.0371 -7.51953 12.7148 -7.7832 12.1973 -7.7832 L 9.9707 -7.7832 L 9.9707 -10.0098 C 9.9707 -10.5273 9.69727 -10.8496 9.22852 -10.8496 C 8.75977 -10.8496 8.50586 -10.5078 8.50586 -10.0098 L 8.50586 -7.7832 L 6.29883 -7.7832 C 5.78125 -7.7832 5.44922 -7.51953 5.44922 -7.04102 C 5.44922 -6.57227 5.80078 -6.31836 6.29883 -6.31836 L 8.50586 -6.31836 L 8.50586 -4.25781 C 8.50586 -3.75977 8.75977 -3.42773 9.22852 -3.42773 Z"/>
  </g>
  <g id="" transform="matrix(1 0 0 1 281.506 1933)">
   <path d="M 11.709 2.91016 C 17.1484 2.91016 21.6699 -1.60156 21.6699 -7.05078 C 21.6699 -12.4902 17.1387 -17.0117 11.6992 -17.0117 C 6.25 -17.0117 1.74805 -12.4902 1.74805 -7.05078 C 1.74805 -1.60156 6.25977 2.91016 11.709 2.91016 Z M 11.709 1.25 C 7.09961 1.25 3.41797 -2.44141 3.41797 -7.05078 C 3.41797 -11.6504 7.08984 -15.3516 11.6992 -15.3516 C 16.2988 -15.3516 20 -11.6504 20.0098 -7.05078 C 20.0195 -2.44141 16.3086 1.25 11.709 1.25 Z M 11.6797 -2.41211 C 12.207 -2.41211 12.5195 -2.77344 12.5195 -3.33984 L 12.5195 -6.23047 L 15.5762 -6.23047 C 16.123 -6.23047 16.5039 -6.51367 16.5039 -7.03125 C 16.5039 -7.55859 16.1426 -7.86133 15.5762 -7.86133 L 12.5195 -7.86133 L 12.5195 -10.9277 C 12.5195 -11.5039 12.207 -11.8555 11.6797 -11.8555 C 11.1621 -11.8555 10.8789 -11.4844 10.8789 -10.9277 L 10.8789 -7.86133 L 7.83203 -7.86133 C 7.25586 -7.86133 6.89453 -7.55859 6.89453 -7.03125 C 6.89453 -6.51367 7.28516 -6.23047 7.83203 -6.23047 L 10.8789 -6.23047 L 10.8789 -3.33984 C 10.8789 -2.79297 11.1621 -2.41211 11.6797 -2.41211 Z"/>
  </g>
  <g id="" transform="matrix(1 0 0 1 304.914 1933)">
   <path d="M 14.9707 5.67383 C 21.9336 5.67383 27.6855 -0.078125 27.6855 -7.04102 C 27.6855 -14.0039 21.9238 -19.7559 14.9609 -19.7559 C 7.99805 -19.7559 2.25586 -14.0039 2.25586 -7.04102 C 2.25586 -0.078125 8.00781 5.67383 14.9707 5.67383 Z M 14.9707 3.85742 C 8.92578 3.85742 4.08203 -1.00586 4.08203 -7.04102 C 4.08203 -13.0762 8.91602 -17.9395 14.9609 -17.9395 C 20.9961 -17.9395 25.8594 -13.0762 25.8691 -7.04102 C 25.8789 -1.00586 21.0059 3.85742 14.9707 3.85742 Z M 14.9414 -1.06445 C 15.5176 -1.06445 15.8594 -1.45508 15.8594 -2.06055 L 15.8594 -6.13281 L 20.0977 -6.13281 C 20.6934 -6.13281 21.1133 -6.46484 21.1133 -7.02148 C 21.1133 -7.59766 20.7227 -7.93945 20.0977 -7.93945 L 15.8594 -7.93945 L 15.8594 -12.1875 C 15.8594 -12.8027 15.5176 -13.1934 14.9414 -13.1934 C 14.3848 -13.1934 14.0625 -12.7832 14.0625 -12.1875 L 14.0625 -7.93945 L 9.82422 -7.93945 C 9.20898 -7.93945 8.80859 -7.59766 8.80859 -7.02148 C 8.80859 -6.46484 9.23828 -6.13281 9.82422 -6.13281 L 14.0625 -6.13281 L 14.0625 -2.06055 C 14.0625 -1.47461 14.3848 -1.06445 14.9414 -1.06445 Z"/>
  </g>
  <text style="stroke:none;fill:black;font-family:-apple-system,&quot;SF Pro Display&quot;,&quot;SF Pro Text&quot;,Helvetica,sans-serif;font-weight:bold;" transform="matrix(1 0 0 1 263 1953)">Design Variations</text>
  <text style="stroke:none;fill:black;font-family:-apple-system,&quot;SF Pro Display&quot;,&quot;SF Pro Text&quot;,Helvetica,sans-serif;" transform="matrix(1 0 0 1 263 1971)">Symbols are supported in up to nine weights and three scales.</text>
  <text style="stroke:none;fill:black;font-family:-apple-system,&quot;SF Pro Display&quot;,&quot;SF Pro Text&quot;,Helvetica,sans-serif;" transform="matrix(1 0 0 1 263 1989)">For optimal layout with text and other symbols, vertically align</text>
  <text style="stroke:none;fill:black;font-family:-apple-system,&quot;SF Pro Display&quot;,&quot;SF Pro Text&quot;,Helvetica,sans-serif;" transform="matrix(1 0 0 1 263 2007)">symbols with the adjacent text.</text>
  <rect height="14" id="" style="fill:#00AEEF;stroke:none;opacity:0.4;" width="3" x="776" y="1919"/>
  <g id="" transform="matrix(1 0 0 1 779 1933)">
   <path d="M 10.5273 0 L 12.373 0 L 7.17773 -14.0918 L 5.43945 -14.0918 L 0.244141 0 L 2.08984 0 L 3.50586 -4.0332 L 9.11133 -4.0332 Z M 6.2793 -11.9531 L 6.33789 -11.9531 L 8.59375 -5.52734 L 4.02344 -5.52734 Z"/>
  </g>
  <rect height="14" id="" style="fill:#00AEEF;stroke:none;opacity:0.4;" width="3" x="791.617" y="1919"/>
  <text style="stroke:none;fill:black;font-family:-apple-system,&quot;SF Pro Display&quot;,&quot;SF Pro Text&quot;,Helvetica,sans-serif;font-weight:bold;" transform="matrix(1 0 0 1 776 1953)">Side Bearings</text>
  <text style="stroke:none;fill:black;font-family:-apple-system,&quot;SF Pro Display&quot;,&quot;SF Pro Text&quot;,Helvetica,sans-serif;" transform="matrix(1 0 0 1 776 1971)">Horizontal padding on the left and right side of each symbol</text>
  <text style="stroke:none;fill:black;font-family:-apple-system,&quot;SF Pro Display&quot;,&quot;SF Pro Text&quot;,Helvetica,sans-serif;" transform="matrix(1 0 0 1 776 1989)">can be adjusted by modifying the width of the blue rectangles.</text>
  <text style="stroke:none;fill:black;font-family:-apple-system,&quot;SF Pro Display&quot;,&quot;SF Pro Text&quot;,Helvetica,sans-serif;" transform="matrix(1 0 0 1 776 2007)">Modifications are automatically applied proportionally to all</text>
  <text style="stroke:none;fill:black;font-family:-apple-system,&quot;SF Pro Display&quot;,&quot;SF Pro Text&quot;,Helvetica,sans-serif;" transform="matrix(1 0 0 1 776 2025)">scales and weights.</text>
  <g id="" transform="matrix(1 0 0 1 1289 1933)">
   <path d="M 2.96875 2.35352 L 3.80859 3.19336 C 4.84375 4.22852 6.12305 4.15039 7.19727 2.97852 L 16.1621 -6.82617 C 16.5527 -6.74805 16.9629 -6.8457 17.4902 -7.02148 C 18.1738 -7.25586 18.2715 -7.25586 18.3887 -7.13867 C 18.5352 -7.01172 18.4863 -6.89453 18.2422 -6.25 C 17.8809 -5.33203 17.8125 -4.79492 18.5547 -4.02344 L 19.4238 -3.13477 C 20.2734 -2.24609 21.3281 -2.26562 22.2168 -3.14453 L 25.0586 -5.97656 C 25.9473 -6.86523 25.957 -7.92969 25.0781 -8.7793 L 24.1797 -9.64844 C 23.4082 -10.4004 22.8711 -10.3516 21.9629 -9.98047 C 21.3184 -9.72656 21.2012 -9.6875 21.0645 -9.81445 C 20.9375 -9.93164 20.9473 -10.0391 21.1816 -10.7129 C 21.5332 -11.6895 21.5723 -12.2852 20.752 -13.0957 L 19.3359 -14.5117 C 15.1953 -18.6133 11.2305 -18.7402 7.65625 -15.4395 C 7.08008 -14.9023 6.99219 -14.1504 7.53906 -13.6133 L 7.79297 -13.3594 C 8.22266 -12.9297 8.86719 -12.8418 9.41406 -13.1152 C 11.0645 -13.9453 12.2559 -14.0234 13.457 -12.9785 L 13.0273 -11.416 C 12.8516 -10.8008 12.793 -10.3418 12.9199 -9.93164 L 3.18359 -1.04492 C 2.02148 0.0292969 1.93359 1.32812 2.96875 2.35352 Z M 8.96484 -14.4922 C 8.89648 -14.5703 8.86719 -14.6582 8.99414 -14.7559 C 11.709 -17.2852 15.0391 -16.8457 18.3496 -13.5254 L 19.6973 -12.168 C 20.0879 -11.7773 20.0977 -11.582 19.8828 -10.8691 C 19.6582 -10.127 19.502 -9.53125 20.1465 -8.88672 C 20.8105 -8.22266 21.2891 -8.41797 22.207 -8.63281 C 22.9004 -8.79883 23.0664 -8.79883 23.4473 -8.41797 L 24.0918 -7.77344 C 24.4043 -7.48047 24.4141 -7.32422 24.0723 -6.97266 L 21.2207 -4.13086 C 20.8887 -3.79883 20.7227 -3.79883 20.4297 -4.10156 L 19.7852 -4.75586 C 19.4141 -5.13672 19.4141 -5.30273 19.5801 -6.01562 C 19.7852 -6.88477 19.9805 -7.38281 19.3262 -8.04688 C 18.6719 -8.7207 18.0762 -8.57422 17.3438 -8.33008 C 16.5625 -8.06641 16.3281 -8.06641 15.8984 -8.49609 L 14.6094 -9.78516 C 14.1699 -10.2246 14.1309 -10.4395 14.2676 -10.9082 L 15.0293 -13.3984 C 13.3887 -15.2832 11.4941 -15.5566 9.20898 -14.4434 C 9.11133 -14.3945 9.04297 -14.4141 8.96484 -14.4922 Z M 3.96484 1.36719 C 3.52539 0.927734 3.54492 0.537109 4.14062 -0.00976562 L 13.7402 -8.81836 L 15 -7.55859 L 6.17188 2.02148 C 5.625 2.60742 5.24414 2.64648 4.79492 2.19727 Z"/>
  </g>
  <text style="stroke:none;fill:black;font-family:-apple-system,&quot;SF Pro Display&quot;,&quot;SF Pro Text&quot;,Helvetica,sans-serif;font-weight:bold;" transform="matrix(1 0 0 1 1289 1953)">Exporting</text>
  <text style="stroke:none;fill:black;font-family:-apple-system,&quot;SF Pro Display&quot;,&quot;SF Pro Text&quot;,Helvetica,sans-serif;" transform="matrix(1 0 0 1 1289 1971)">Symbols should be outlined when exporting to ensure the</text>
  <text style="stroke:none;fill:black;font-family:-apple-system,&quot;SF Pro Display&quot;,&quot;SF Pro Text&quot;,Helvetica,sans-serif;" transform="matrix(1 0 0 1 1289 1989)">design is preserved when submitting to Xcode.</text>
  <text id="template-version" style="stroke:none;fill:black;font-family:-apple-system,&quot;SF Pro Display&quot;,&quot;SF Pro Text&quot;,Helvetica,sans-serif;text-anchor:end;" transform="matrix(1 0 0 1 3036 1933)">Template v.0.1</text>
  <text style="stroke:none;fill:black;font-family:-apple-system,&quot;SF Pro Display&quot;,&quot;SF Pro Text&quot;,Helvetica,sans-serif;text-anchor:end;" transform="matrix(1 0 0 1 3036 1951)">Generated from arrow.up.arrow.down.circle.fill</text>
  <text style="stroke:none;fill:black;font-family:-apple-system,&quot;SF Pro Display&quot;,&quot;SF Pro Text&quot;,Helvetica,sans-serif;text-anchor:end;" transform="matrix(1 0 0 1 3036 1969)">Typeset at 100 points</text>
  <text style="stroke:none;fill:black;font-family:-apple-system,&quot;SF Pro Display&quot;,&quot;SF Pro Text&quot;,Helvetica,sans-serif;" transform="matrix(1 0 0 1 263 726)">Small</text>
  <text style="stroke:none;fill:black;font-family:-apple-system,&quot;SF Pro Display&quot;,&quot;SF Pro Text&quot;,Helvetica,sans-serif;" transform="matrix(1 0 0 1 263 1156)">Medium</text>
  <text style="stroke:none;fill:black;font-family:-apple-system,&quot;SF Pro Display&quot;,&quot;SF Pro Text&quot;,Helvetica,sans-serif;" transform="matrix(1 0 0 1 263 1586)">Large</text>
 </g>
 <g id="Guides">
  <g id="H-reference" style="fill:#27AAE1;stroke:none;" transform="matrix(1 0 0 1 339 696)">
   <path d="M 54.9316 0 L 57.666 0 L 30.5664 -70.459 L 28.0762 -70.459 L 0.976562 0 L 3.66211 0 L 12.9395 -24.4629 L 45.7031 -24.4629 Z M 29.1992 -67.0898 L 29.4434 -67.0898 L 44.8242 -26.709 L 13.8184 -26.709 Z"/>
  </g>
  <line id="Baseline-S" style="fill:none;stroke:#27AAE1;opacity:1;stroke-width:0.577;" x1="263" x2="3036" y1="696" y2="696"/>
  <line id="Capline-S" style="fill:none;stroke:#27AAE1;opacity:1;stroke-width:0.577;" x1="263" x2="3036" y1="625.541" y2="625.541"/>
  <g id="H-reference" style="fill:#27AAE1;stroke:none;" transform="matrix(1 0 0 1 339 1126)">
   <path d="M 54.9316 0 L 57.666 0 L 30.5664 -70.459 L 28.0762 -70.459 L 0.976562 0 L 3.66211 0 L 12.9395 -24.4629 L 45.7031 -24.4629 Z M 29.1992 -67.0898 L 29.4434 -67.0898 L 44.8242 -26.709 L 13.8184 -26.709 Z"/>
  </g>
  <line id="Baseline-M" style="fill:none;stroke:#27AAE1;opacity:1;stroke-width:0.577;" x1="263" x2="3036" y1="1126" y2="1126"/>
  <line id="Capline-M" style="fill:none;stroke:#27AAE1;opacity:1;stroke-width:0.577;" x1="263" x2="3036" y1="1055.54" y2="1055.54"/>
  <g id="H-reference" style="fill:#27AAE1;stroke:none;" transform="matrix(1 0 0 1 339 1556)">
   <path d="M 54.9316 0 L 57.666 0 L 30.5664 -70.459 L 28.0762 -70.459 L 0.976562 0 L 3.66211 0 L 12.9395 -24.4629 L 45.7031 -24.4629 Z M 29.1992 -67.0898 L 29.4434 -67.0898 L 44.8242 -26.709 L 13.8184 -26.709 Z"/>
  </g>
  <line id="Baseline-L" style="fill:none;stroke:#27AAE1;opacity:1;stroke-width:0.577;" x1="263" x2="3036" y1="1556" y2="1556"/>
  <line id="Capline-L" style="fill:none;stroke:#27AAE1;opacity:1;stroke-width:0.577;" x1="263" x2="3036" y1="1485.54" y2="1485.54"/>
  <rect height="119.336" id="left-margin" style="fill:#00AEEF;stroke:none;opacity:0.4;" width="8.74023" x="1391.32" y="1030.79"/>
  <rect height="119.336" id="right-margin" style="fill:#00AEEF;stroke:none;opacity:0.4;" width="8.69141" x="1499.67" y="1030.79"/>
 </g>
 <g id="Symbols">
  <g id="Ultralight-S" transform="matrix(1 0 0 1 515.644 696)">
   <path d="M 44.043 2.05078 C 64.502 2.05078 81.2988 -14.6973 81.2988 -35.1562 C 81.2988 -55.6152 64.502 -72.3633 44.043 -72.3633 C 23.584 -72.3633 6.83594 -55.6152 6.83594 -35.1562 C 6.83594 -14.6973 23.584 2.05078 44.043 2.05078 Z M 31.3965 -15.1855 C 30.7129 -15.1855 30.2246 -15.625 30.2246 -16.4062 L 30.2246 -46.9238 L 30.3223 -52.4902 L 25.0488 -47.168 L 18.3105 -40.4785 C 18.0176 -40.1367 17.8711 -40.0391 17.4805 -40.0391 C 16.8457 -40.0391 16.3574 -40.5273 16.3574 -41.1133 C 16.3574 -41.4551 16.4551 -41.6992 16.6992 -41.9434 L 30.6152 -55.9082 C 30.8594 -56.1523 31.1035 -56.25 31.3965 -56.25 C 31.7383 -56.25 31.9824 -56.2012 32.2754 -55.9082 L 46.1914 -41.9434 C 46.3867 -41.6992 46.4844 -41.4551 46.4844 -41.1133 C 46.4844 -40.5273 46.0449 -40.0391 45.3613 -40.0391 C 45.0684 -40.0391 44.9219 -40.1367 44.5801 -40.4785 L 37.8906 -47.168 L 32.5195 -52.5391 L 32.6172 -46.9238 L 32.6172 -16.4062 C 32.6172 -15.625 32.1777 -15.1855 31.3965 -15.1855 Z M 56.7871 -15.1855 C 56.4941 -15.1855 56.1523 -15.2832 55.9082 -15.5273 L 42.0898 -29.4922 C 41.8457 -29.7363 41.748 -29.9805 41.748 -30.3223 C 41.748 -30.9082 42.1875 -31.3965 42.8711 -31.3965 C 43.1641 -31.3965 43.3594 -31.2988 43.6523 -30.957 L 50.3418 -24.2676 L 55.7129 -18.9453 L 55.5176 -24.5117 L 55.5176 -55.0293 C 55.5176 -55.8105 56.0547 -56.25 56.7871 -56.25 C 57.5684 -56.25 58.0078 -55.8105 58.0078 -55.0293 L 58.0078 -24.5117 L 57.8613 -18.8965 L 63.2324 -24.2676 L 69.9219 -30.957 C 70.2148 -31.2988 70.4102 -31.3965 70.752 -31.3965 C 71.4355 -31.3965 71.9238 -30.9082 71.9238 -30.3223 C 71.9238 -29.9805 71.7773 -29.7363 71.5332 -29.4922 L 57.666 -15.5273 C 57.373 -15.2344 57.0801 -15.1855 56.7871 -15.1855 Z"/>
  </g>
  <g id="Thin-S" transform="matrix(1 0 0 1 811.867 696)">
   <path d="M 44.5801 2.53906 C 65.2832 2.53906 82.2754 -14.4531 82.2754 -35.2051 C 82.2754 -55.9082 65.2344 -72.9004 44.5312 -72.9004 C 23.8281 -72.9004 6.83594 -55.9082 6.83594 -35.2051 C 6.83594 -14.4531 23.877 2.53906 44.5801 2.53906 Z M 31.8359 -15.3809 C 30.8594 -15.3809 30.1758 -16.0156 30.1758 -17.0898 L 30.1758 -45.166 L 30.3223 -50.9277 L 25.4395 -45.8008 L 19.7266 -39.9414 C 19.3359 -39.5996 19.043 -39.4043 18.5547 -39.4043 C 17.627 -39.4043 16.9434 -40.1367 16.9434 -40.9668 C 16.9434 -41.4551 17.0898 -41.7969 17.4316 -42.1387 L 30.5664 -55.4688 C 30.957 -55.8594 31.3965 -56.0547 31.8359 -56.0547 C 32.2754 -56.0547 32.7637 -55.9082 33.1543 -55.4688 L 46.2891 -42.1387 C 46.582 -41.8457 46.7285 -41.4551 46.7285 -40.9668 C 46.7285 -40.1367 46.0938 -39.4043 45.1172 -39.4043 C 44.7266 -39.4043 44.3848 -39.5996 44.043 -39.9414 L 38.3301 -45.8008 L 33.3496 -50.9766 L 33.4961 -45.166 L 33.4961 -17.0898 C 33.4961 -16.0156 32.8613 -15.3809 31.8359 -15.3809 Z M 57.3242 -15.3809 C 56.8848 -15.3809 56.3965 -15.5762 56.0059 -15.9668 L 42.9199 -29.2969 C 42.5781 -29.5898 42.4805 -29.9805 42.4805 -30.4688 C 42.4805 -31.2988 43.1152 -32.0312 44.043 -32.0312 C 44.4824 -32.0312 44.7754 -31.8359 45.1172 -31.4941 L 50.8789 -25.6348 L 55.8105 -20.5078 L 55.6152 -26.2695 L 55.6152 -54.3457 C 55.6152 -55.4199 56.3477 -56.0547 57.3242 -56.0547 C 58.3008 -56.0547 58.9844 -55.4199 58.9844 -54.3457 L 58.9844 -26.2695 L 58.8379 -20.459 L 63.7695 -25.6348 L 69.4824 -31.4941 C 69.7754 -31.8359 70.1172 -32.0312 70.6543 -32.0312 C 71.5332 -32.0312 72.2168 -31.2988 72.2168 -30.4688 C 72.2168 -29.9805 72.0703 -29.6387 71.7773 -29.2969 L 58.5938 -15.9668 C 58.2031 -15.5273 57.7637 -15.3809 57.3242 -15.3809 Z"/>
  </g>
  <g id="Light-S" transform="matrix(1 0 0 1 1107.6 696)">
   <path d="M 45.5078 3.4668 C 66.6992 3.4668 84.2285 -14.0625 84.2285 -35.2051 C 84.2285 -56.3965 66.6504 -73.9258 45.5078 -73.9258 C 24.3164 -73.9258 6.83594 -56.3965 6.83594 -35.2051 C 6.83594 -14.0625 24.3652 3.4668 45.5078 3.4668 Z M 32.6172 -15.8203 C 31.1523 -15.8203 30.0781 -16.8457 30.0781 -18.3594 L 30.0781 -41.6992 L 30.3223 -47.9492 L 26.2207 -43.2129 L 22.3633 -39.0137 C 21.875 -38.5254 21.3379 -38.2324 20.6055 -38.2324 C 19.1895 -38.2324 18.1152 -39.3066 18.1152 -40.7227 C 18.1152 -41.4062 18.3105 -41.9922 18.7988 -42.4805 L 30.5664 -54.6875 C 31.2012 -55.3711 31.8848 -55.6152 32.6172 -55.6152 C 33.3984 -55.6152 34.1797 -55.3711 34.8145 -54.6875 L 46.4844 -42.4805 C 46.9727 -41.9922 47.2168 -41.4062 47.2168 -40.7227 C 47.2168 -39.3066 46.1426 -38.2324 44.7266 -38.2324 C 43.9941 -38.2324 43.3594 -38.5254 42.9688 -39.0137 L 39.1602 -43.2129 L 34.9609 -47.998 L 35.2051 -41.6992 L 35.2051 -18.3594 C 35.2051 -16.8457 34.1309 -15.8203 32.6172 -15.8203 Z M 58.3496 -15.8203 C 57.6172 -15.8203 56.8848 -16.0645 56.2012 -16.748 L 44.4824 -28.9551 C 43.9941 -29.4434 43.7988 -30.0293 43.7988 -30.7129 C 43.7988 -32.1289 44.8242 -33.2031 46.2402 -33.2031 C 46.9727 -33.2031 47.5586 -32.9102 47.998 -32.4219 L 51.8555 -28.2227 L 56.0059 -23.4863 L 55.7617 -29.7363 L 55.7617 -53.0762 C 55.7617 -54.5898 56.8359 -55.6152 58.3496 -55.6152 C 59.8145 -55.6152 60.8398 -54.5898 60.8398 -53.0762 L 60.8398 -29.7363 L 60.6445 -23.4375 L 64.8438 -28.2227 L 68.6035 -32.4219 C 68.9941 -32.9102 69.6289 -33.2031 70.4102 -33.2031 C 71.7773 -33.2031 72.8516 -32.1289 72.8516 -30.7129 C 72.8516 -30.0293 72.6562 -29.4434 72.168 -28.9551 L 60.498 -16.748 C 59.8633 -16.0645 59.082 -15.8203 58.3496 -15.8203 Z"/>
  </g>
  <g id="Regular-S" transform="matrix(1 0 0 1 1403.58 696)">
   <path d="M 46.2402 4.15039 C 67.7734 4.15039 85.6934 -13.7207 85.6934 -35.2539 C 85.6934 -56.7871 67.7246 -74.6582 46.1914 -74.6582 C 24.707 -74.6582 6.83594 -56.7871 6.83594 -35.2539 C 6.83594 -13.7207 24.7559 4.15039 46.2402 4.15039 Z M 33.252 -16.1133 C 31.3477 -16.1133 30.0293 -17.4316 30.0293 -19.3359 L 30.0293 -39.1113 L 30.3223 -45.7031 L 26.8066 -41.2109 L 24.4141 -38.2812 C 23.8281 -37.6953 23.0957 -37.3047 22.1191 -37.3047 C 20.3613 -37.3047 18.9941 -38.7207 18.9941 -40.5273 C 18.9941 -41.4062 19.2871 -42.1387 19.8242 -42.7734 L 30.5176 -54.0527 C 31.3477 -54.9805 32.3242 -55.3223 33.252 -55.3223 C 34.2285 -55.3223 35.2539 -54.9316 36.084 -54.0527 L 46.6309 -42.7734 C 47.2656 -42.1387 47.5586 -41.4062 47.5586 -40.5273 C 47.5586 -38.7207 46.1914 -37.3047 44.3848 -37.3047 C 43.457 -37.3047 42.5781 -37.6953 42.1387 -38.2812 L 39.8438 -41.2109 L 36.1816 -45.752 L 36.4746 -39.1113 L 36.4746 -19.3359 C 36.4746 -17.4316 35.1074 -16.1133 33.252 -16.1133 Z M 59.082 -16.1133 C 58.1543 -16.1133 57.2266 -16.4551 56.3477 -17.3828 L 45.7031 -28.6621 C 45.0684 -29.2969 44.8242 -30.0293 44.8242 -30.9082 C 44.8242 -32.7148 46.1426 -34.1309 47.9492 -34.1309 C 48.877 -34.1309 49.6582 -33.7402 50.1953 -33.1543 L 52.5879 -30.2246 L 56.1523 -25.7324 L 55.8594 -32.3242 L 55.8594 -52.0996 C 55.8594 -54.0039 57.2266 -55.3223 59.082 -55.3223 C 60.9375 -55.3223 62.3047 -54.0039 62.3047 -52.0996 L 62.3047 -32.3242 L 62.0117 -25.6836 L 65.625 -30.2246 L 67.9199 -33.1543 C 68.3594 -33.7402 69.2383 -34.1309 70.2148 -34.1309 C 71.9727 -34.1309 73.3398 -32.7148 73.3398 -30.9082 C 73.3398 -30.0293 73.0469 -29.2969 72.5098 -28.6621 L 61.9141 -17.3828 C 61.1328 -16.5039 60.0586 -16.1133 59.082 -16.1133 Z"/>
  </g>
  <g id="Medium-S" transform="matrix(1 0 0 1 1699.7 696)">
   <path d="M 46.8262 4.78516 C 68.75 4.78516 86.8652 -13.3301 86.8652 -35.2539 C 86.8652 -57.1289 68.7012 -75.2441 46.8262 -75.2441 C 24.9023 -75.2441 6.83594 -57.1289 6.83594 -35.2539 C 6.83594 -13.3301 24.9512 4.78516 46.8262 4.78516 Z M 33.7402 -16.2109 C 31.6895 -16.2109 30.1758 -17.627 30.1758 -19.7266 L 30.1758 -38.6719 L 30.6152 -44.8242 L 27.4902 -40.625 L 25.3906 -38.0371 C 24.7559 -37.3535 23.9258 -37.0117 22.9492 -37.0117 C 21.0449 -37.0117 19.6289 -38.4766 19.6289 -40.3809 C 19.6289 -41.3086 19.9707 -42.1387 20.6055 -42.7734 L 30.8105 -53.7109 C 31.6895 -54.6387 32.666 -55.0293 33.7402 -55.0293 C 34.8633 -55.0293 35.9375 -54.6387 36.7676 -53.7109 L 46.9238 -42.7734 C 47.5586 -42.1387 47.9004 -41.3086 47.9004 -40.3809 C 47.9004 -38.4766 46.5332 -37.0117 44.5801 -37.0117 C 43.6035 -37.0117 42.6758 -37.3535 42.1387 -38.0371 L 40.1367 -40.625 L 36.8652 -44.873 L 37.3535 -38.6719 L 37.3535 -19.7266 C 37.3535 -17.627 35.8398 -16.2109 33.7402 -16.2109 Z M 59.8145 -16.2109 C 58.7402 -16.2109 57.7637 -16.5527 56.8359 -17.5293 L 46.6797 -28.418 C 45.9961 -29.1016 45.7031 -29.8828 45.7031 -30.8594 C 45.7031 -32.7637 47.0703 -34.2285 48.9746 -34.2285 C 50 -34.2285 50.8301 -33.8379 51.416 -33.2031 L 53.5156 -30.5664 L 56.6895 -26.3672 L 56.2012 -32.5684 L 56.2012 -51.5137 C 56.2012 -53.6133 57.7148 -55.0293 59.8145 -55.0293 C 61.8652 -55.0293 63.3789 -53.6133 63.3789 -51.5137 L 63.3789 -32.5684 L 62.9395 -26.3672 L 66.1621 -30.5664 L 68.2129 -33.2031 C 68.7012 -33.8379 69.6289 -34.2285 70.6543 -34.2285 C 72.5586 -34.2285 73.9258 -32.7637 73.9258 -30.8594 C 73.9258 -29.8828 73.584 -29.1016 72.998 -28.418 L 62.8418 -17.5293 C 62.0117 -16.6016 60.9375 -16.2109 59.8145 -16.2109 Z"/>
  </g>
  <g id="Semibold-S" transform="matrix(1 0 0 1 1995.98 696)">
   <path d="M 47.3145 5.22461 C 69.4824 5.22461 87.7441 -13.0371 87.7441 -35.2539 C 87.7441 -57.4219 69.4336 -75.6836 47.2656 -75.6836 C 25.0977 -75.6836 6.83594 -57.4219 6.83594 -35.2539 C 6.83594 -13.0371 25.0977 5.22461 47.3145 5.22461 Z M 34.1309 -16.2598 C 31.8848 -16.2598 30.2734 -17.7734 30.2734 -20.0195 L 30.2734 -38.3301 L 30.8594 -44.1895 L 28.0273 -40.1855 L 26.123 -37.8418 C 25.4883 -37.1094 24.5605 -36.7676 23.5352 -36.7676 C 21.5332 -36.7676 20.166 -38.2812 20.166 -40.2832 C 20.166 -41.2598 20.5078 -42.0898 21.1426 -42.8223 L 31.0547 -53.418 C 31.9336 -54.3945 32.959 -54.7852 34.1309 -54.7852 C 35.3027 -54.7852 36.4258 -54.3457 37.3047 -53.418 L 47.1191 -42.8223 C 47.8027 -42.0898 48.1445 -41.2598 48.1445 -40.2832 C 48.1445 -38.2812 46.7773 -36.7676 44.7754 -36.7676 C 43.7012 -36.7676 42.7246 -37.1094 42.1875 -37.8418 L 40.332 -40.1855 L 37.4512 -44.1895 L 38.0371 -38.3301 L 38.0371 -20.0195 C 38.0371 -17.7734 36.377 -16.2598 34.1309 -16.2598 Z M 60.4004 -16.2598 C 59.2285 -16.2598 58.1543 -16.6992 57.2754 -17.627 L 47.4121 -28.2715 C 46.7285 -28.9551 46.3867 -29.7852 46.3867 -30.7617 C 46.3867 -32.8125 47.7539 -34.2773 49.7559 -34.2773 C 50.8301 -34.2773 51.7578 -33.9355 52.3438 -33.2031 L 54.248 -30.8594 L 57.0801 -26.9043 L 56.4941 -32.7637 L 56.4941 -51.0254 C 56.4941 -53.2715 58.1543 -54.7852 60.4004 -54.7852 C 62.5977 -54.7852 64.2578 -53.2715 64.2578 -51.0254 L 64.2578 -32.7637 L 63.6719 -26.8555 L 66.5527 -30.8594 L 68.4082 -33.2031 C 68.9453 -33.9355 69.9707 -34.2773 70.9961 -34.2773 C 72.9492 -34.2773 74.3652 -32.8125 74.3652 -30.7617 C 74.3652 -29.7852 74.0234 -28.9551 73.3398 -28.2715 L 63.5254 -17.627 C 62.6953 -16.6992 61.5723 -16.2598 60.4004 -16.2598 Z"/>
  </g>
  <g id="Bold-S" transform="matrix(1 0 0 1 2292.1 696)">
   <path d="M 47.9004 5.81055 C 70.4102 5.81055 88.916 -12.6465 88.916 -35.2051 C 88.916 -57.7637 70.4102 -76.2695 47.8516 -76.2695 C 25.293 -76.2695 6.83594 -57.7637 6.83594 -35.2051 C 6.83594 -12.6465 25.3418 5.81055 47.9004 5.81055 Z M 34.6191 -16.4062 C 32.2266 -16.4062 30.4199 -18.0176 30.4199 -20.4102 L 30.4199 -37.8418 L 31.1523 -43.3105 L 28.7109 -39.5996 L 27.0996 -37.6465 C 26.4648 -36.8164 25.4395 -36.4746 24.3164 -36.4746 C 22.2168 -36.4746 20.8008 -37.9883 20.8008 -40.1367 C 20.8008 -41.2109 21.2402 -42.0898 21.9238 -42.8223 L 31.3477 -53.0273 C 32.2266 -54.0527 33.3496 -54.4434 34.6191 -54.4434 C 35.9375 -54.4434 37.1094 -54.0039 37.9883 -53.0273 L 47.3633 -42.8223 C 48.0957 -42.0898 48.5352 -41.2109 48.5352 -40.1367 C 48.5352 -37.9883 47.0703 -36.4746 44.9707 -36.4746 C 43.8477 -36.4746 42.8223 -36.8164 42.1875 -37.6465 L 40.625 -39.5996 L 38.1836 -43.3105 L 38.916 -37.8418 L 38.916 -20.4102 C 38.916 -18.0176 37.1094 -16.4062 34.6191 -16.4062 Z M 61.1328 -16.4062 C 59.8145 -16.4062 58.6914 -16.7969 57.8125 -17.8223 L 48.3887 -28.0273 C 47.6562 -28.7598 47.2656 -29.6387 47.2656 -30.7129 C 47.2656 -32.8613 48.6816 -34.375 50.8301 -34.375 C 51.9043 -34.375 52.9297 -34.0332 53.5645 -33.2031 L 55.1758 -31.25 L 57.5684 -27.5391 L 56.8359 -33.0078 L 56.8359 -50.4395 C 56.8359 -52.8809 58.6914 -54.4434 61.1328 -54.4434 C 63.5254 -54.4434 65.332 -52.8809 65.332 -50.4395 L 65.332 -33.0078 L 64.6484 -27.5391 L 67.0898 -31.25 L 68.6523 -33.2031 C 69.2871 -34.0332 70.3613 -34.375 71.4355 -34.375 C 73.5352 -34.375 74.9512 -32.8613 74.9512 -30.7129 C 74.9512 -29.6387 74.5605 -28.7598 73.8281 -28.0273 L 64.4531 -17.8223 C 63.5742 -16.7969 62.4512 -16.4062 61.1328 -16.4062 Z"/>
  </g>
  <g id="Heavy-S" transform="matrix(1 0 0 1 2587.96 696)">
   <path d="M 48.7305 6.68945 C 71.8262 6.68945 90.625 -12.1094 90.625 -35.2051 C 90.625 -58.3008 71.8262 -77.0996 48.7305 -77.0996 C 25.6348 -77.0996 6.83594 -58.3008 6.83594 -35.2051 C 6.83594 -12.1094 25.6348 6.68945 48.7305 6.68945 Z M 35.3516 -16.5527 C 32.666 -16.5527 30.6152 -18.3105 30.6152 -20.9961 L 30.6152 -37.1582 L 31.543 -42.041 L 29.6875 -38.7695 L 28.5156 -37.3047 C 27.832 -36.3281 26.6602 -35.9863 25.4883 -35.9863 C 23.2422 -35.9863 21.7773 -37.5977 21.7773 -39.9414 C 21.7773 -41.0645 22.2656 -42.041 23.0469 -42.8711 L 31.7383 -52.4902 C 32.666 -53.5645 33.8867 -54.0039 35.3516 -54.0039 C 36.8652 -54.0039 38.0859 -53.5156 39.0137 -52.4902 L 47.7539 -42.8711 C 48.5352 -42.041 49.0234 -41.0645 49.0234 -39.9414 C 49.0234 -37.5977 47.5586 -35.9863 45.2637 -35.9863 C 44.043 -35.9863 42.9199 -36.3281 42.2363 -37.3047 L 41.0645 -38.7695 L 39.2578 -42.041 L 40.1855 -37.1582 L 40.1855 -20.9961 C 40.1855 -18.3105 38.1348 -16.5527 35.3516 -16.5527 Z M 62.207 -16.5527 C 60.6934 -16.5527 59.5215 -16.9922 58.5938 -18.0176 L 49.8047 -27.6855 C 49.0234 -28.5156 48.5352 -29.4434 48.5352 -30.5664 C 48.5352 -32.9102 50 -34.5215 52.3438 -34.5215 C 53.5156 -34.5215 54.6387 -34.1797 55.3711 -33.2031 L 56.4941 -31.7871 L 58.3496 -28.5156 L 57.373 -33.3496 L 57.373 -49.5117 C 57.373 -52.2461 59.4727 -54.0039 62.207 -54.0039 C 64.8926 -54.0039 66.9922 -52.2461 66.9922 -49.5117 L 66.9922 -33.3496 L 66.0156 -28.5156 L 67.8711 -31.7871 L 69.043 -33.2031 C 69.7754 -34.1797 70.8984 -34.5215 72.0703 -34.5215 C 74.3652 -34.5215 75.7812 -32.9102 75.7812 -30.5664 C 75.7812 -29.4434 75.3418 -28.5156 74.5605 -27.6855 L 65.8203 -18.0176 C 64.8926 -16.9434 63.6719 -16.5527 62.207 -16.5527 Z"/>
  </g>
  <g id="Black-S" transform="matrix(1 0 0 1 2883.89 696)">
   <path d="M 49.5117 7.4707 C 73.0957 7.4707 92.1875 -11.6211 92.1875 -35.2051 C 92.1875 -58.7891 73.0957 -77.8809 49.5117 -77.8809 C 25.9277 -77.8809 6.83594 -58.7891 6.83594 -35.2051 C 6.83594 -11.6211 25.9277 7.4707 49.5117 7.4707 Z M 36.0352 -16.6504 C 33.1055 -16.6504 30.7617 -18.6035 30.7617 -21.5332 L 30.7617 -36.5723 L 31.9336 -40.8691 L 30.5664 -37.9883 L 29.834 -37.0117 C 29.1016 -35.9375 27.7344 -35.5957 26.5137 -35.5957 C 24.1211 -35.5957 22.6562 -37.2559 22.6562 -39.7949 C 22.6562 -40.9668 23.1934 -41.9922 24.0234 -42.8711 L 32.1289 -52.002 C 33.1055 -53.125 34.375 -53.6133 36.0352 -53.6133 C 37.6953 -53.6133 38.9648 -53.0762 39.8926 -52.002 L 48.0957 -42.8711 C 48.9258 -41.9922 49.4629 -40.9668 49.4629 -39.7949 C 49.4629 -37.2559 47.998 -35.5957 45.5078 -35.5957 C 44.2383 -35.5957 43.0664 -35.9375 42.2363 -37.0117 L 41.4551 -37.9883 L 40.1855 -40.8691 L 41.3574 -36.5723 L 41.3574 -21.5332 C 41.3574 -18.6035 39.0625 -16.6504 36.0352 -16.6504 Z M 63.1836 -16.6504 C 61.4746 -16.6504 60.2051 -17.1875 59.2773 -18.2129 L 51.0742 -27.3438 C 50.2441 -28.2715 49.707 -29.2969 49.707 -30.4688 C 49.707 -33.0078 51.1719 -34.668 53.6621 -34.668 C 54.9805 -34.668 56.1523 -34.3262 56.9336 -33.252 L 57.7148 -32.2754 L 59.0332 -29.3457 L 57.8613 -33.6914 L 57.8613 -48.7305 C 57.8613 -51.709 60.1562 -53.6133 63.1836 -53.6133 C 66.1133 -53.6133 68.4082 -51.709 68.4082 -48.7305 L 68.4082 -33.6914 L 67.2363 -29.3945 L 68.6035 -32.2754 L 69.3848 -33.252 C 70.2148 -34.3262 71.4355 -34.668 72.6562 -34.668 C 75.0977 -34.668 76.5625 -33.0078 76.5625 -30.4688 C 76.5625 -29.2969 76.0254 -28.2715 75.1953 -27.3438 L 67.041 -18.2129 C 66.0645 -17.1387 64.7949 -16.6504 63.1836 -16.6504 Z"/>
  </g>
  <g id="Ultralight-M" transform="matrix(1 0 0 1 503.656 1126)">
   <path d="M 56.0547 12.207 C 82.0801 12.207 103.369 -9.08203 103.369 -35.1562 C 103.369 -61.1816 82.0801 -82.4707 56.0547 -82.4707 C 30.0293 -82.4707 8.74023 -61.1816 8.74023 -35.1562 C 8.74023 -9.08203 30.0293 12.207 56.0547 12.207 Z M 39.8926 -9.57031 C 39.1113 -9.57031 38.5742 -10.0586 38.5742 -10.9375 L 38.5742 -50.8301 L 38.7207 -57.8613 L 31.7871 -50.9766 L 22.8516 -42.0898 C 22.5098 -41.748 22.3145 -41.6016 21.9238 -41.6016 C 21.1914 -41.6016 20.6543 -42.1387 20.6543 -42.8223 C 20.6543 -43.1641 20.752 -43.4082 21.0449 -43.7012 L 39.0625 -61.7676 C 39.3066 -62.0117 39.5996 -62.1582 39.8926 -62.1582 C 40.2832 -62.1582 40.5762 -62.1094 40.8691 -61.7676 L 58.8867 -43.7012 C 59.1309 -43.457 59.2285 -43.1641 59.2285 -42.8223 C 59.2285 -42.1387 58.7891 -41.6016 57.959 -41.6016 C 57.666 -41.6016 57.5195 -41.748 57.1289 -42.0898 L 48.1934 -50.9766 L 41.1621 -57.9102 L 41.3086 -50.8301 L 41.3086 -10.9375 C 41.3086 -10.0586 40.8203 -9.57031 39.8926 -9.57031 Z M 72.3145 -9.57031 C 71.9727 -9.57031 71.582 -9.66797 71.3379 -9.91211 L 53.418 -27.9785 C 53.1738 -28.2227 53.0273 -28.5156 53.0273 -28.9062 C 53.0273 -29.541 53.5156 -30.0781 54.2969 -30.0781 C 54.5898 -30.0781 54.7852 -29.9805 55.127 -29.5898 L 64.0625 -20.752 L 71.0449 -13.8672 L 70.8496 -20.8984 L 70.8496 -60.7422 C 70.8496 -61.6699 71.4844 -62.1582 72.3145 -62.1582 C 73.1445 -62.1582 73.6328 -61.6699 73.6328 -60.7422 L 73.6328 -20.8984 L 73.5352 -13.8184 L 80.4688 -20.752 L 89.4043 -29.5898 C 89.7949 -29.9805 89.9414 -30.0781 90.3809 -30.0781 C 91.1133 -30.0781 91.6504 -29.541 91.6504 -28.9062 C 91.6504 -28.5156 91.5039 -28.2715 91.2109 -27.9785 L 73.1934 -9.91211 C 72.9004 -9.61914 72.6074 -9.57031 72.3145 -9.57031 Z"/>
  </g>
  <g id="Thin-M" transform="matrix(1 0 0 1 799.806 1126)">
   <path d="M 56.5918 12.7441 C 82.9102 12.7441 104.492 -8.83789 104.492 -35.1562 C 104.492 -61.4746 82.9102 -83.0566 56.5918 -83.0566 C 30.3223 -83.0566 8.74023 -61.4746 8.74023 -35.1562 C 8.74023 -8.83789 30.3223 12.7441 56.5918 12.7441 Z M 40.3809 -9.81445 C 39.3066 -9.81445 38.5254 -10.498 38.5254 -11.7188 L 38.5254 -48.8281 L 38.7207 -56.1035 L 32.2754 -49.4629 L 24.4141 -41.5527 C 23.9746 -41.1133 23.6816 -40.918 23.0957 -40.918 C 22.0703 -40.918 21.2891 -41.6992 21.2891 -42.6758 C 21.2891 -43.1641 21.4844 -43.5547 21.875 -43.9453 L 39.0625 -61.3281 C 39.4531 -61.7188 39.8926 -61.9141 40.3809 -61.9141 C 40.918 -61.9141 41.4062 -61.7676 41.8457 -61.3281 L 59.0332 -43.9453 C 59.375 -43.6035 59.5215 -43.1641 59.5215 -42.6758 C 59.5215 -41.6992 58.7891 -40.918 57.7148 -40.918 C 57.2754 -40.918 56.9336 -41.1133 56.4941 -41.5527 L 48.6816 -49.4629 L 42.1387 -56.1523 L 42.2852 -48.8281 L 42.2852 -11.7188 C 42.2852 -10.498 41.5527 -9.81445 40.3809 -9.81445 Z M 72.9004 -9.81445 C 72.3633 -9.81445 71.875 -9.96094 71.4355 -10.4004 L 54.2969 -27.7832 C 53.9551 -28.125 53.8086 -28.5156 53.8086 -29.0527 C 53.8086 -30.0293 54.541 -30.8105 55.6152 -30.8105 C 56.0547 -30.8105 56.3965 -30.6152 56.8359 -30.1758 L 64.6484 -22.2656 L 71.1426 -15.5762 L 70.9473 -22.9004 L 70.9473 -60.0098 C 70.9473 -61.1816 71.7773 -61.9141 72.9004 -61.9141 C 74.0234 -61.9141 74.7559 -61.1816 74.7559 -60.0098 L 74.7559 -22.9004 L 74.5605 -15.5273 L 81.1035 -22.2656 L 88.916 -30.1758 C 89.3066 -30.6152 89.6484 -30.8105 90.2344 -30.8105 C 91.2598 -30.8105 92.041 -30.0293 92.041 -29.0527 C 92.041 -28.5156 91.8457 -28.1738 91.4551 -27.7832 L 74.3164 -10.4004 C 73.877 -9.91211 73.3887 -9.81445 72.9004 -9.81445 Z"/>
  </g>
  <g id="Light-M" transform="matrix(1 0 0 1 1095.42 1126)">
   <path d="M 57.7148 13.7695 C 84.5215 13.7695 106.689 -8.39844 106.689 -35.2051 C 106.689 -62.0117 84.4727 -84.1797 57.666 -84.1797 C 30.8594 -84.1797 8.74023 -62.0117 8.74023 -35.2051 C 8.74023 -8.39844 30.8594 13.7695 57.7148 13.7695 Z M 41.3086 -10.2539 C 39.5996 -10.2539 38.4277 -11.4258 38.4277 -13.1348 L 38.4277 -44.9707 L 38.7207 -52.7344 L 33.1543 -46.4844 L 27.4414 -40.4297 C 26.8555 -39.8926 26.2695 -39.5508 25.4395 -39.5508 C 23.8281 -39.5508 22.6074 -40.7715 22.6074 -42.334 C 22.6074 -43.1641 22.9004 -43.7988 23.4375 -44.3359 L 39.0137 -60.4004 C 39.6973 -61.1816 40.5273 -61.4258 41.3086 -61.4258 C 42.1387 -61.4258 43.0176 -61.1816 43.75 -60.4004 L 59.2285 -44.3359 C 59.8145 -43.7988 60.0586 -43.1641 60.0586 -42.334 C 60.0586 -40.7715 58.8867 -39.5508 57.2754 -39.5508 C 56.4453 -39.5508 55.7617 -39.8926 55.2734 -40.4297 L 49.6582 -46.4844 L 43.9453 -52.7832 L 44.2383 -44.9707 L 44.2383 -13.1348 C 44.2383 -11.4258 43.0664 -10.2539 41.3086 -10.2539 Z M 74.0234 -10.2539 C 73.1934 -10.2539 72.3633 -10.5469 71.6309 -11.3281 L 56.1035 -27.3438 C 55.5664 -27.8809 55.3711 -28.5645 55.3711 -29.3457 C 55.3711 -30.9082 56.4941 -32.1289 58.1055 -32.1289 C 58.8867 -32.1289 59.5703 -31.8359 60.1074 -31.25 L 65.7715 -25.1953 L 71.3867 -18.9941 L 71.0938 -26.7578 L 71.0938 -58.5449 C 71.0938 -60.3027 72.3145 -61.4258 74.0234 -61.4258 C 75.7324 -61.4258 76.9043 -60.3027 76.9043 -58.5449 L 76.9043 -26.7578 L 76.6113 -18.8965 L 82.2754 -25.1953 L 87.9395 -31.25 C 88.3789 -31.8359 89.1113 -32.1289 89.9414 -32.1289 C 91.5527 -32.1289 92.7246 -30.9082 92.7246 -29.3457 C 92.7246 -28.5645 92.4805 -27.9297 91.9434 -27.3438 L 76.416 -11.3281 C 75.7324 -10.5469 74.8535 -10.2539 74.0234 -10.2539 Z"/>
  </g>
  <g id="Regular-M" transform="matrix(1 0 0 1 1391.32 1126)">
   <path d="M 58.5449 14.5508 C 85.7422 14.5508 108.35 -8.00781 108.35 -35.2539 C 108.35 -62.4512 85.6934 -85.0586 58.4961 -85.0586 C 31.25 -85.0586 8.74023 -62.4512 8.74023 -35.2539 C 8.74023 -8.00781 31.2988 14.5508 58.5449 14.5508 Z M 41.9922 -10.5957 C 39.8926 -10.5957 38.3789 -12.0605 38.3789 -14.2578 L 38.3789 -42.041 L 38.7207 -50.1953 L 33.7891 -44.2383 L 29.7363 -39.5996 C 29.0527 -38.9648 28.2227 -38.5254 27.1973 -38.5254 C 25.1465 -38.5254 23.6328 -40.1367 23.6328 -42.1387 C 23.6328 -43.1152 23.9258 -43.9453 24.6094 -44.6777 L 38.9648 -59.7168 C 39.8926 -60.7422 40.9668 -61.084 41.9922 -61.084 C 43.1152 -61.084 44.2383 -60.6934 45.2148 -59.7168 L 59.4238 -44.6777 C 60.1074 -43.9941 60.4492 -43.1152 60.4492 -42.1387 C 60.4492 -40.1367 58.9355 -38.5254 56.8848 -38.5254 C 55.8594 -38.5254 54.8828 -38.9648 54.3457 -39.5996 L 50.3906 -44.2383 L 45.3125 -50.2441 L 45.6543 -42.041 L 45.6543 -14.2578 C 45.6543 -12.0605 44.1406 -10.5957 41.9922 -10.5957 Z M 74.9023 -10.5957 C 73.8281 -10.5957 72.8027 -10.9863 71.7773 -12.0117 L 57.4707 -27.0508 C 56.7871 -27.7344 56.4941 -28.5645 56.4941 -29.5898 C 56.4941 -31.5918 58.0078 -33.1543 60.0098 -33.1543 C 61.084 -33.1543 61.9141 -32.7637 62.5488 -32.0801 L 66.6016 -27.4414 L 71.582 -21.5332 L 71.1914 -29.6875 L 71.1914 -57.4707 C 71.1914 -59.6191 72.7539 -61.084 74.9023 -61.084 C 77.002 -61.084 78.5156 -59.6191 78.5156 -57.4707 L 78.5156 -29.6875 L 78.1738 -21.4844 L 83.2031 -27.4414 L 87.1582 -32.0801 C 87.6953 -32.7637 88.6719 -33.1543 89.7461 -33.1543 C 91.748 -33.1543 93.3105 -31.5918 93.3105 -29.5898 C 93.3105 -28.5645 92.9688 -27.7344 92.334 -27.0508 L 78.0273 -12.0117 C 77.1484 -11.0352 75.9766 -10.5957 74.9023 -10.5957 Z"/>
  </g>
  <g id="Medium-M" transform="matrix(1 0 0 1 1687.33 1126)">
   <path d="M 59.2285 15.2832 C 86.8652 15.2832 109.717 -7.56836 109.717 -35.2051 C 109.717 -62.8906 86.8164 -85.7422 59.1797 -85.7422 C 31.543 -85.7422 8.74023 -62.8906 8.74023 -35.2051 C 8.74023 -7.56836 31.5918 15.2832 59.2285 15.2832 Z M 42.5781 -10.7422 C 40.2344 -10.7422 38.5254 -12.3535 38.5254 -14.7949 L 38.5254 -41.2109 L 39.0137 -48.9746 L 34.5703 -43.4082 L 31.0059 -39.3066 C 30.2734 -38.5254 29.3457 -38.0859 28.1738 -38.0859 C 26.0254 -38.0859 24.4141 -39.7461 24.4141 -41.9434 C 24.4141 -43.0664 24.8047 -43.9453 25.4883 -44.7266 L 39.2578 -59.2285 C 40.2344 -60.3516 41.4062 -60.7422 42.5781 -60.7422 C 43.8477 -60.7422 45.0684 -60.3027 46.0449 -59.2285 L 59.7168 -44.7266 C 60.4492 -43.9453 60.8398 -43.0664 60.8398 -41.9434 C 60.8398 -39.7461 59.2773 -38.0859 57.0312 -38.0859 C 55.9082 -38.0859 54.8828 -38.5254 54.248 -39.3066 L 50.7812 -43.4082 L 46.1914 -49.0234 L 46.7285 -41.2109 L 46.7285 -14.7949 C 46.7285 -12.3535 45.0195 -10.7422 42.5781 -10.7422 Z M 75.7324 -10.7422 C 74.5117 -10.7422 73.3887 -11.1816 72.3633 -12.2559 L 58.6426 -26.7578 C 57.8613 -27.5391 57.5684 -28.4668 57.5684 -29.541 C 57.5684 -31.7383 59.082 -33.3984 61.2793 -33.3984 C 62.4512 -33.3984 63.4277 -32.959 64.1113 -32.1777 L 67.6758 -28.0762 L 72.1191 -22.5098 L 71.582 -30.2734 L 71.582 -56.6895 C 71.582 -59.1309 73.3398 -60.7422 75.7324 -60.7422 C 78.0762 -60.7422 79.834 -59.1309 79.834 -56.6895 L 79.834 -30.2734 L 79.3457 -22.4609 L 83.8379 -28.0762 L 87.3535 -32.1777 C 87.9395 -32.959 89.0137 -33.3984 90.1855 -33.3984 C 92.334 -33.3984 93.9453 -31.7383 93.9453 -29.541 C 93.9453 -28.4668 93.5547 -27.5391 92.8711 -26.7578 L 79.1504 -12.2559 C 78.2227 -11.1816 77.002 -10.7422 75.7324 -10.7422 Z"/>
  </g>
  <g id="Semibold-M" transform="matrix(1 0 0 1 1983.5 1126)">
   <path d="M 59.7656 15.8203 C 87.7441 15.8203 110.791 -7.22656 110.791 -35.2051 C 110.791 -63.1836 87.6953 -86.2793 59.7168 -86.2793 C 31.7383 -86.2793 8.74023 -63.1836 8.74023 -35.2051 C 8.74023 -7.22656 31.7871 15.8203 59.7656 15.8203 Z M 43.0664 -10.8398 C 40.4785 -10.8398 38.623 -12.5977 38.623 -15.1855 L 38.623 -40.5762 L 39.209 -48.0957 L 35.1562 -42.7246 L 31.9824 -39.0137 C 31.25 -38.1836 30.1758 -37.7441 28.9551 -37.7441 C 26.6602 -37.7441 25 -39.502 25 -41.8457 C 25 -42.9688 25.4395 -43.9453 26.2207 -44.7754 L 39.502 -58.8867 C 40.5273 -60.0098 41.6992 -60.4492 43.0664 -60.4492 C 44.4336 -60.4492 45.7031 -59.9609 46.7285 -58.8867 L 59.9609 -44.7754 C 60.7422 -43.9453 61.1328 -42.9688 61.1328 -41.8457 C 61.1328 -39.502 59.5215 -37.7441 57.1777 -37.7441 C 55.957 -37.7441 54.834 -38.1836 54.1992 -39.0137 L 51.0742 -42.7246 L 46.9238 -48.1445 L 47.5586 -40.5762 L 47.5586 -15.1855 C 47.5586 -12.5977 45.6543 -10.8398 43.0664 -10.8398 Z M 76.416 -10.8398 C 75.0488 -10.8398 73.8281 -11.3281 72.8027 -12.4512 L 59.5215 -26.5625 C 58.7402 -27.3438 58.3496 -28.3203 58.3496 -29.4922 C 58.3496 -31.8359 59.9609 -33.5449 62.3047 -33.5449 C 63.4766 -33.5449 64.5508 -33.1543 65.2832 -32.2754 L 68.457 -28.5645 L 72.5586 -23.2422 L 71.875 -30.7617 L 71.875 -56.1523 C 71.875 -58.7402 73.7793 -60.4492 76.416 -60.4492 C 78.9551 -60.4492 80.8594 -58.7402 80.8594 -56.1523 L 80.8594 -30.7617 L 80.2246 -23.1934 L 84.375 -28.5645 L 87.5 -32.2754 C 88.1348 -33.1543 89.3066 -33.5449 90.4785 -33.5449 C 92.8223 -33.5449 94.4336 -31.8359 94.4336 -29.4922 C 94.4336 -28.3203 94.043 -27.3926 93.2617 -26.5625 L 80.0293 -12.4512 C 79.0527 -11.3281 77.7832 -10.8398 76.416 -10.8398 Z"/>
  </g>
  <g id="Bold-M" transform="matrix(1 0 0 1 2279.5 1126)">
   <path d="M 60.4492 16.5039 C 88.8672 16.5039 112.207 -6.78711 112.207 -35.2051 C 112.207 -63.623 88.8672 -86.9629 60.4492 -86.9629 C 32.0312 -86.9629 8.74023 -63.623 8.74023 -35.2051 C 8.74023 -6.78711 32.0801 16.5039 60.4492 16.5039 Z M 43.6523 -10.9863 C 40.8203 -10.9863 38.7207 -12.8906 38.7207 -15.7227 L 38.7207 -39.7461 L 39.5508 -46.875 L 35.9375 -41.8945 L 33.252 -38.7207 C 32.4707 -37.7441 31.2988 -37.3047 29.9805 -37.3047 C 27.5391 -37.3047 25.8301 -39.1602 25.8301 -41.6504 C 25.8301 -42.9199 26.2695 -43.9453 27.0996 -44.8242 L 39.7949 -58.4473 C 40.8691 -59.6191 42.1387 -60.1074 43.6523 -60.1074 C 45.166 -60.1074 46.5332 -59.5703 47.6074 -58.4473 L 60.2539 -44.8242 C 61.084 -43.9453 61.5723 -42.9199 61.5723 -41.6504 C 61.5723 -39.1602 59.8633 -37.3047 57.3242 -37.3047 C 56.0547 -37.3047 54.834 -37.7441 54.1016 -38.7207 L 51.4648 -41.8945 L 47.8027 -46.9238 L 48.6328 -39.7461 L 48.6328 -15.7227 C 48.6328 -12.8906 46.5332 -10.9863 43.6523 -10.9863 Z M 77.2461 -10.9863 C 75.7324 -10.9863 74.4629 -11.5234 73.3398 -12.6953 L 60.6934 -26.2695 C 59.8145 -27.1484 59.375 -28.2227 59.375 -29.4434 C 59.375 -31.9824 61.0352 -33.7891 63.5742 -33.7891 C 64.8926 -33.7891 66.0156 -33.3496 66.7969 -32.4219 L 69.5312 -29.248 L 73.0957 -24.2188 L 72.2656 -31.3477 L 72.2656 -55.3711 C 72.2656 -58.252 74.4141 -60.1074 77.2461 -60.1074 C 80.0781 -60.1074 82.1777 -58.252 82.1777 -55.3711 L 82.1777 -31.3477 L 81.3965 -24.1699 L 85.0098 -29.248 L 87.6465 -32.4219 C 88.3789 -33.3496 89.6484 -33.7891 90.918 -33.7891 C 93.4082 -33.7891 95.1172 -31.9824 95.1172 -29.4434 C 95.1172 -28.2227 94.6289 -27.1484 93.7988 -26.2695 L 81.1523 -12.6953 C 80.127 -11.4746 78.7598 -10.9863 77.2461 -10.9863 Z"/>
  </g>
  <g id="Heavy-M" transform="matrix(1 0 0 1 2575.19 1126)">
   <path d="M 61.4746 17.5781 C 90.5273 17.5781 114.258 -6.15234 114.258 -35.2051 C 114.258 -64.2578 90.5273 -87.9883 61.4746 -87.9883 C 32.4219 -87.9883 8.74023 -64.2578 8.74023 -35.2051 C 8.74023 -6.15234 32.4707 17.5781 61.4746 17.5781 Z M 44.5312 -11.2305 C 41.3574 -11.2305 38.916 -13.3301 38.916 -16.5527 L 38.916 -38.5254 L 39.9902 -45.1172 L 37.1094 -40.625 L 35.1074 -38.2324 C 34.2773 -37.1094 32.9102 -36.6699 31.4941 -36.6699 C 28.7598 -36.6699 26.9531 -38.623 26.9531 -41.4551 C 26.9531 -42.7734 27.5391 -43.9453 28.4668 -44.9219 L 40.2344 -57.7637 C 41.3574 -59.0332 42.7734 -59.5703 44.5312 -59.5703 C 46.2891 -59.5703 47.7539 -58.9844 48.877 -57.7637 L 60.6445 -44.9219 C 61.5723 -43.9453 62.1582 -42.7734 62.1582 -41.4551 C 62.1582 -38.623 60.3516 -36.6699 57.5684 -36.6699 C 56.1523 -36.6699 54.834 -37.1094 53.9551 -38.2324 L 52.002 -40.625 L 49.1211 -45.1172 L 50.1953 -38.5254 L 50.1953 -16.5527 C 50.1953 -13.3301 47.7539 -11.2305 44.5312 -11.2305 Z M 78.5156 -11.2305 C 76.7578 -11.2305 75.3418 -11.7676 74.1699 -13.0371 L 62.3535 -25.8789 C 61.4258 -26.8555 60.8887 -28.0273 60.8887 -29.3457 C 60.8887 -32.1777 62.6953 -34.1309 65.4297 -34.1309 C 66.8945 -34.1309 68.2129 -33.6914 69.0918 -32.5684 L 71.0449 -30.1758 L 73.877 -25.6348 L 72.8516 -32.2266 L 72.8516 -54.248 C 72.8516 -57.4707 75.2441 -59.5703 78.5156 -59.5703 C 81.6895 -59.5703 84.1309 -57.4707 84.1309 -54.248 L 84.1309 -32.2266 L 83.0566 -25.6348 L 85.9863 -30.1758 L 87.9395 -32.5684 C 88.7695 -33.6914 90.1367 -34.1309 91.5527 -34.1309 C 94.2871 -34.1309 96.0449 -32.1777 96.0449 -29.3457 C 96.0449 -28.0273 95.5078 -26.8555 94.5801 -25.8789 L 82.8125 -13.0371 C 81.7383 -11.7188 80.2734 -11.2305 78.5156 -11.2305 Z"/>
  </g>
  <g id="Black-M" transform="matrix(1 0 0 1 2871 1126)">
   <path d="M 62.4023 18.457 C 91.9922 18.457 116.064 -5.61523 116.064 -35.2051 C 116.064 -64.7949 91.9922 -88.8672 62.4023 -88.8672 C 32.8125 -88.8672 8.74023 -64.7949 8.74023 -35.2051 C 8.74023 -5.61523 32.8125 18.457 62.4023 18.457 Z M 45.3125 -11.4258 C 41.7969 -11.4258 39.1113 -13.7207 39.1113 -17.2363 L 39.1113 -37.4512 L 40.3809 -43.5547 L 38.0859 -39.502 L 36.7676 -37.793 C 35.8887 -36.5234 34.3262 -36.084 32.8125 -36.084 C 29.8828 -36.084 28.0273 -38.1348 28.0273 -41.2109 C 28.0273 -42.6758 28.6133 -43.8965 29.6387 -44.9707 L 40.625 -57.1289 C 41.7969 -58.5449 43.3594 -59.082 45.3125 -59.082 C 47.2656 -59.082 48.8281 -58.4473 50 -57.1289 L 61.0352 -44.9707 C 62.0605 -43.8965 62.6953 -42.6758 62.6953 -41.2109 C 62.6953 -38.1348 60.791 -36.084 57.8125 -36.084 C 56.25 -36.084 54.7852 -36.5234 53.8574 -37.793 L 52.4902 -39.502 L 50.3418 -43.5547 L 51.6113 -37.4512 L 51.6113 -17.2363 C 51.6113 -13.7207 48.877 -11.4258 45.3125 -11.4258 Z M 79.6387 -11.4258 C 77.6855 -11.4258 76.123 -12.0117 74.9023 -13.3301 L 63.8672 -25.4883 C 62.8906 -26.5625 62.2559 -27.832 62.2559 -29.248 C 62.2559 -32.3242 64.1113 -34.375 67.1387 -34.375 C 68.7012 -34.375 70.1172 -33.9844 71.0938 -32.7148 L 72.4121 -31.0059 L 74.6094 -26.9043 L 73.3398 -33.0566 L 73.3398 -53.2715 C 73.3398 -56.8359 76.0254 -59.082 79.6387 -59.082 C 83.1543 -59.082 85.8398 -56.8359 85.8398 -53.2715 L 85.8398 -33.0566 L 84.5703 -26.9043 L 86.8164 -31.0059 L 88.1836 -32.7148 C 89.1113 -33.9844 90.625 -34.375 92.0898 -34.375 C 95.0684 -34.375 96.9238 -32.3242 96.9238 -29.248 C 96.9238 -27.832 96.2891 -26.5625 95.3125 -25.4883 L 84.3262 -13.3301 C 83.1543 -11.9629 81.5918 -11.4258 79.6387 -11.4258 Z"/>
  </g>
  <g id="Ultralight-L" transform="matrix(1 0 0 1 487.641 1556)">
   <path d="M 72.0703 25.7324 C 105.566 25.7324 132.91 -1.61133 132.91 -35.1074 C 132.91 -68.5547 105.566 -95.8984 72.0703 -95.8984 C 38.623 -95.8984 11.2793 -68.5547 11.2793 -35.1074 C 11.2793 -1.61133 38.623 25.7324 72.0703 25.7324 Z M 51.3184 -2.00195 C 50.3906 -2.00195 49.8047 -2.53906 49.8047 -3.56445 L 49.8047 -56.2012 L 49.9512 -65.1367 L 40.8691 -56.2012 L 28.8574 -44.3359 C 28.418 -43.8965 28.2227 -43.75 27.7344 -43.75 C 26.9531 -43.75 26.3184 -44.3848 26.3184 -45.0684 C 26.3184 -45.5078 26.4648 -45.752 26.8555 -46.0938 L 50.4395 -69.6777 C 50.6836 -69.9219 50.9766 -70.0684 51.3184 -70.0684 C 51.709 -70.0684 52.002 -70.0195 52.2949 -69.6777 L 75.9277 -46.0938 C 76.2207 -45.8008 76.3184 -45.5078 76.3184 -45.0684 C 76.3184 -44.3848 75.8301 -43.75 74.9023 -43.75 C 74.6094 -43.75 74.4629 -43.8965 74.0234 -44.3359 L 61.9629 -56.2012 L 52.7344 -65.2344 L 52.8809 -56.2012 L 52.8809 -3.56445 C 52.8809 -2.53906 52.3438 -2.00195 51.3184 -2.00195 Z M 93.0664 -2.00195 C 92.6758 -2.00195 92.2363 -2.14844 92.041 -2.34375 L 68.5059 -25.9766 C 68.2617 -26.2207 68.1152 -26.5625 68.1152 -27.002 C 68.1152 -27.6855 68.6035 -28.3203 69.5312 -28.3203 C 69.8242 -28.3203 69.9707 -28.1738 70.4102 -27.7344 L 82.4219 -15.8691 L 91.6016 -6.93359 L 91.4062 -15.8691 L 91.4062 -68.457 C 91.4062 -69.5312 92.0898 -70.0684 93.0664 -70.0684 C 94.043 -70.0684 94.5312 -69.5312 94.5312 -68.457 L 94.5312 -15.8691 L 94.3848 -6.83594 L 103.564 -15.8691 L 115.576 -27.7344 C 116.064 -28.1738 116.211 -28.3203 116.699 -28.3203 C 117.48 -28.3203 118.115 -27.6855 118.115 -27.002 C 118.115 -26.5625 117.969 -26.3184 117.578 -25.9766 L 93.9941 -2.34375 C 93.6523 -2.05078 93.3594 -2.00195 93.0664 -2.00195 Z"/>
  </g>
  <g id="Thin-L" transform="matrix(1 0 0 1 783.717 1556)">
   <path d="M 72.7051 26.3184 C 106.494 26.3184 134.131 -1.36719 134.131 -35.1074 C 134.131 -68.8965 106.445 -96.582 72.7051 -96.582 C 38.916 -96.582 11.2793 -68.8965 11.2793 -35.1074 C 11.2793 -1.36719 38.916 26.3184 72.7051 26.3184 Z M 51.8066 -2.29492 C 50.5859 -2.29492 49.7559 -3.02734 49.7559 -4.39453 L 49.7559 -54.0039 L 49.9512 -63.2324 L 41.3574 -54.4922 L 30.5664 -43.7012 C 30.0293 -43.2129 29.7363 -42.9688 29.0527 -42.9688 C 27.9297 -42.9688 27.0996 -43.8477 27.0996 -44.9219 C 27.0996 -45.459 27.2949 -45.8984 27.7344 -46.3379 L 50.3906 -69.1895 C 50.8301 -69.5801 51.3184 -69.7754 51.8066 -69.7754 C 52.3926 -69.7754 52.9297 -69.6777 53.418 -69.1895 L 76.0742 -46.3379 C 76.4648 -45.9473 76.6113 -45.459 76.6113 -44.9219 C 76.6113 -43.8477 75.8789 -42.9688 74.6582 -42.9688 C 74.1699 -42.9688 73.8281 -43.2129 73.291 -43.7012 L 62.5488 -54.4922 L 53.7598 -63.2812 L 53.9551 -54.0039 L 53.9551 -4.39453 C 53.9551 -3.02734 53.1738 -2.29492 51.8066 -2.29492 Z M 93.7012 -2.29492 C 93.1152 -2.29492 92.5781 -2.49023 92.1387 -2.88086 L 69.5312 -25.7324 C 69.1406 -26.123 68.9941 -26.6113 68.9941 -27.1484 C 68.9941 -28.2227 69.7266 -29.0527 70.9473 -29.0527 C 71.4355 -29.0527 71.7773 -28.8574 72.3145 -28.3691 L 83.1055 -17.5781 L 91.748 -8.83789 L 91.5039 -18.0664 L 91.5039 -67.6758 C 91.5039 -69.043 92.4316 -69.7754 93.7012 -69.7754 C 94.9707 -69.7754 95.752 -69.043 95.752 -67.6758 L 95.752 -18.0664 L 95.6055 -8.74023 L 104.248 -17.5781 L 115.039 -28.3691 C 115.527 -28.8574 115.869 -29.0527 116.504 -29.0527 C 117.676 -29.0527 118.506 -28.2227 118.506 -27.1484 C 118.506 -26.6113 118.311 -26.1719 117.871 -25.7324 L 95.2148 -2.88086 C 94.7266 -2.39258 94.1895 -2.29492 93.7012 -2.29492 Z"/>
  </g>
  <g id="Light-L" transform="matrix(1 0 0 1 1079.21 1556)">
   <path d="M 73.9258 27.4902 C 108.301 27.4902 136.572 -0.830078 136.572 -35.1562 C 136.572 -69.5312 108.252 -97.8516 73.877 -97.8516 C 39.5508 -97.8516 11.2793 -69.5312 11.2793 -35.1562 C 11.2793 -0.830078 39.5508 27.4902 73.9258 27.4902 Z M 52.832 -2.7832 C 50.9766 -2.7832 49.6582 -4.05273 49.6582 -6.00586 L 49.6582 -49.6582 L 49.9512 -59.4727 L 42.334 -51.2207 L 33.9355 -42.4805 C 33.252 -41.8457 32.6172 -41.4551 31.6895 -41.4551 C 29.8828 -41.4551 28.5645 -42.8711 28.5645 -44.5801 C 28.5645 -45.459 28.8574 -46.1426 29.4434 -46.7773 L 50.3418 -68.1641 C 51.123 -68.9453 52.002 -69.2871 52.832 -69.2871 C 53.8086 -69.2871 54.7363 -68.9941 55.5176 -68.1641 L 76.3184 -46.7773 C 76.9531 -46.1914 77.1973 -45.459 77.1973 -44.5801 C 77.1973 -42.8711 75.9277 -41.4551 74.1211 -41.4551 C 73.2422 -41.4551 72.5098 -41.8457 71.9238 -42.4805 L 63.623 -51.2207 L 55.8105 -59.5215 L 56.1035 -49.6582 L 56.1035 -6.00586 C 56.1035 -4.05273 54.834 -2.7832 52.832 -2.7832 Z M 94.9707 -2.7832 C 94.043 -2.7832 93.1641 -3.125 92.3828 -3.90625 L 71.5332 -25.293 C 70.9473 -25.8789 70.7031 -26.6113 70.7031 -27.4902 C 70.7031 -29.1992 71.9238 -30.6152 73.7793 -30.6152 C 74.6094 -30.6152 75.293 -30.2246 75.9277 -29.5898 L 84.3262 -20.8496 L 92.041 -12.5977 L 91.6504 -22.4121 L 91.6504 -66.0645 C 91.6504 -68.0176 93.0664 -69.2871 94.9707 -69.2871 C 96.875 -69.2871 98.1445 -68.0176 98.1445 -66.0645 L 98.1445 -22.4121 L 97.9004 -12.5488 L 105.615 -20.8496 L 113.916 -29.5898 C 114.502 -30.2246 115.234 -30.6152 116.211 -30.6152 C 117.969 -30.6152 119.336 -29.1992 119.336 -27.4902 C 119.336 -26.6113 119.043 -25.9277 118.408 -25.293 L 97.5586 -3.90625 C 96.7773 -3.07617 95.8496 -2.7832 94.9707 -2.7832 Z"/>
  </g>
  <g id="Regular-L" transform="matrix(1 0 0 1 1374.99 1556)">
   <path d="M 74.8535 28.3691 C 109.668 28.3691 138.428 -0.390625 138.428 -35.2051 C 138.428 -70.0195 109.619 -98.7793 74.8047 -98.7793 C 39.9902 -98.7793 11.2793 -70.0195 11.2793 -35.2051 C 11.2793 -0.390625 40.0391 28.3691 74.8535 28.3691 Z M 53.6133 -3.17383 C 51.2207 -3.17383 49.5605 -4.78516 49.5605 -7.22656 L 49.5605 -46.3867 L 49.9512 -56.5918 L 43.0664 -48.6816 L 36.4746 -41.5527 C 35.6934 -40.7715 34.8145 -40.332 33.6426 -40.332 C 31.3965 -40.332 29.6875 -42.0898 29.6875 -44.2871 C 29.6875 -45.4102 30.0293 -46.3379 30.7617 -47.168 L 50.3418 -67.3828 C 51.3184 -68.5059 52.4902 -68.8965 53.6133 -68.8965 C 54.834 -68.8965 56.1035 -68.457 57.1289 -67.3828 L 76.5625 -47.168 C 77.2949 -46.3867 77.6855 -45.4102 77.6855 -44.2871 C 77.6855 -42.0898 75.9766 -40.332 73.6816 -40.332 C 72.5586 -40.332 71.5332 -40.7715 70.8984 -41.5527 L 64.4043 -48.6816 L 57.3242 -56.6895 L 57.7637 -46.3867 L 57.7637 -7.22656 C 57.7637 -4.78516 56.0547 -3.17383 53.6133 -3.17383 Z M 95.9473 -3.17383 C 94.7754 -3.17383 93.6035 -3.56445 92.5293 -4.6875 L 73.0469 -24.9023 C 72.2656 -25.6836 71.9727 -26.6113 71.9727 -27.7344 C 71.9727 -29.9805 73.584 -31.7383 75.8789 -31.7383 C 77.0508 -31.7383 77.9785 -31.2988 78.7109 -30.5176 L 85.2539 -23.3398 L 92.2363 -15.4785 L 91.7969 -25.6836 L 91.7969 -64.8438 C 91.7969 -67.2852 93.5059 -68.8965 95.9473 -68.8965 C 98.291 -68.8965 100 -67.2852 100 -64.8438 L 100 -25.6836 L 99.6094 -15.3809 L 106.641 -23.3398 L 113.086 -30.5176 C 113.721 -31.2988 114.746 -31.7383 115.967 -31.7383 C 118.213 -31.7383 119.922 -29.9805 119.922 -27.7344 C 119.922 -26.6113 119.58 -25.7324 118.799 -24.9023 L 99.3652 -4.6875 C 98.3887 -3.61328 97.1191 -3.17383 95.9473 -3.17383 Z"/>
  </g>
  <g id="Medium-L" transform="matrix(1 0 0 1 1670.9 1556)">
   <path d="M 75.6348 29.1992 C 110.938 29.1992 140.039 0.0488281 140.039 -35.2051 C 140.039 -70.459 110.889 -99.6094 75.5859 -99.6094 C 40.332 -99.6094 11.2793 -70.459 11.2793 -35.2051 C 11.2793 0.0488281 40.3809 29.1992 75.6348 29.1992 Z M 54.2969 -3.36914 C 51.6113 -3.36914 49.707 -5.22461 49.707 -7.95898 L 49.707 -45.0195 L 50.1953 -55.0293 L 43.8965 -47.4609 L 38.1348 -41.1133 C 37.3047 -40.1855 36.2305 -39.6973 34.9121 -39.6973 C 32.4219 -39.6973 30.5664 -41.6504 30.5664 -44.0918 C 30.5664 -45.3613 31.0059 -46.3867 31.8359 -47.2656 L 50.5859 -66.7969 C 51.709 -68.0176 52.9785 -68.5059 54.2969 -68.5059 C 55.7129 -68.5059 57.0801 -68.0176 58.2031 -66.7969 L 76.8555 -47.2656 C 77.6855 -46.3867 78.125 -45.3613 78.125 -44.0918 C 78.125 -41.6504 76.3184 -39.6973 73.7793 -39.6973 C 72.5098 -39.6973 71.3379 -40.1855 70.6055 -41.1133 L 64.8926 -47.4609 L 58.4473 -55.0781 L 59.0332 -45.0195 L 59.0332 -7.95898 C 59.0332 -5.22461 57.0801 -3.36914 54.2969 -3.36914 Z M 96.875 -3.36914 C 95.5078 -3.36914 94.2383 -3.85742 93.0664 -5.07812 L 74.3652 -24.6094 C 73.5352 -25.4883 73.1445 -26.5137 73.1445 -27.7344 C 73.1445 -30.2246 74.9023 -32.1289 77.4414 -32.1289 C 78.7109 -32.1289 79.7852 -31.6895 80.6152 -30.7617 L 86.377 -24.4141 L 92.7734 -16.8457 L 92.1387 -26.8066 L 92.1387 -63.916 C 92.1387 -66.6504 94.1406 -68.5059 96.875 -68.5059 C 99.5605 -68.5059 101.514 -66.6504 101.514 -63.916 L 101.514 -26.8066 L 100.977 -16.7969 L 107.422 -24.4141 L 113.135 -30.7617 C 113.818 -31.6895 114.99 -32.1289 116.309 -32.1289 C 118.799 -32.1289 120.654 -30.2246 120.654 -27.7344 C 120.654 -26.5137 120.215 -25.4883 119.385 -24.6094 L 100.732 -5.07812 C 99.6582 -3.85742 98.291 -3.36914 96.875 -3.36914 Z"/>
  </g>
  <g id="Semibold-L" transform="matrix(1 0 0 1 1967 1556)">
   <path d="M 76.2695 29.7852 C 111.914 29.7852 141.26 0.439453 141.26 -35.2051 C 141.26 -70.8496 111.865 -100.244 76.2207 -100.244 C 40.5762 -100.244 11.2793 -70.8496 11.2793 -35.2051 C 11.2793 0.439453 40.625 29.7852 76.2695 29.7852 Z M 54.834 -3.51562 C 51.9043 -3.51562 49.7559 -5.51758 49.7559 -8.49609 L 49.7559 -43.9941 L 50.4395 -53.7598 L 44.5801 -46.5332 L 39.3555 -40.7227 C 38.4766 -39.7461 37.3047 -39.2578 35.8887 -39.2578 C 33.2031 -39.2578 31.2988 -41.2598 31.2988 -43.9453 C 31.2988 -45.3125 31.7871 -46.3867 32.666 -47.3633 L 50.7812 -66.4062 C 51.9531 -67.6758 53.3203 -68.1641 54.834 -68.1641 C 56.3965 -68.1641 57.8613 -67.6758 59.0332 -66.4062 L 77.0996 -47.3633 C 77.9785 -46.4355 78.4668 -45.3125 78.4668 -43.9453 C 78.4668 -41.2598 76.5625 -39.2578 73.8281 -39.2578 C 72.4609 -39.2578 71.1914 -39.7461 70.4102 -40.7227 L 65.2832 -46.5332 L 59.2773 -53.8574 L 60.0098 -43.9941 L 60.0098 -8.49609 C 60.0098 -5.51758 57.8613 -3.51562 54.834 -3.51562 Z M 97.6074 -3.51562 C 96.0938 -3.51562 94.6777 -4.05273 93.5059 -5.32227 L 75.3906 -24.3652 C 74.5117 -25.293 74.0723 -26.416 74.0723 -27.7344 C 74.0723 -30.4199 75.9277 -32.4707 78.6621 -32.4707 C 80.0293 -32.4707 81.2012 -31.9824 82.0801 -30.957 L 87.2559 -25.1953 L 93.1641 -17.9199 L 92.4316 -27.6855 L 92.4316 -63.1836 C 92.4316 -66.2109 94.6289 -68.1641 97.6074 -68.1641 C 100.537 -68.1641 102.686 -66.2109 102.686 -63.1836 L 102.686 -27.6855 L 102.051 -17.8711 L 108.008 -25.1953 L 113.135 -30.957 C 113.867 -31.9824 115.186 -32.4707 116.602 -32.4707 C 119.238 -32.4707 121.191 -30.4199 121.191 -27.7344 C 121.191 -26.416 120.703 -25.293 119.824 -24.3652 L 101.758 -5.32227 C 100.635 -4.05273 99.1699 -3.51562 97.6074 -3.51562 Z"/>
  </g>
  <g id="Bold-L" transform="matrix(1 0 0 1 2262.9 1556)">
   <path d="M 77.0996 30.6152 C 113.184 30.6152 142.92 0.878906 142.92 -35.2051 C 142.92 -71.3379 113.135 -101.025 77.0508 -101.025 C 40.918 -101.025 11.2793 -71.3379 11.2793 -35.2051 C 11.2793 0.878906 40.9668 30.6152 77.0996 30.6152 Z M 55.5176 -3.71094 C 52.2461 -3.71094 49.8535 -5.95703 49.8535 -9.22852 L 49.8535 -42.627 L 50.6836 -52.1484 L 45.4102 -45.2637 L 41.0156 -40.2832 C 40.0879 -39.1602 38.7207 -38.623 37.207 -38.623 C 34.2773 -38.623 32.2266 -40.8203 32.2266 -43.75 C 32.2266 -45.2148 32.7637 -46.4355 33.7402 -47.4609 L 51.0742 -65.8203 C 52.2949 -67.2363 53.8574 -67.7734 55.5176 -67.7734 C 57.2754 -67.7734 58.8867 -67.1875 60.1562 -65.8203 L 77.3926 -47.4609 C 78.3691 -46.4355 78.9062 -45.2148 78.9062 -43.75 C 78.9062 -40.8203 76.8555 -38.623 73.9258 -38.623 C 72.4121 -38.623 70.9961 -39.1602 70.166 -40.2832 L 65.8203 -45.2637 L 60.4004 -52.1973 L 61.2793 -42.627 L 61.2793 -9.22852 C 61.2793 -5.95703 58.8379 -3.71094 55.5176 -3.71094 Z M 98.584 -3.71094 C 96.875 -3.71094 95.3125 -4.29688 94.043 -5.71289 L 76.7578 -24.0234 C 75.7324 -25.0488 75.2441 -26.3184 75.2441 -27.7344 C 75.2441 -30.7129 77.2461 -32.8613 80.2246 -32.8613 C 81.7383 -32.8613 83.0566 -32.373 83.9844 -31.25 L 88.3789 -26.2207 L 93.7012 -19.3848 L 92.8223 -28.8574 L 92.8223 -62.2559 C 92.8223 -65.625 95.2637 -67.7734 98.584 -67.7734 C 101.807 -67.7734 104.248 -65.625 104.248 -62.2559 L 104.248 -28.8574 L 103.418 -19.2871 L 108.789 -26.2207 L 113.135 -31.25 C 113.965 -32.373 115.43 -32.8613 116.943 -32.8613 C 119.873 -32.8613 121.924 -30.7129 121.924 -27.7344 C 121.924 -26.3184 121.387 -25.0977 120.41 -24.0234 L 103.125 -5.71289 C 101.904 -4.29688 100.293 -3.71094 98.584 -3.71094 Z"/>
  </g>
  <g id="Heavy-L" transform="matrix(1 0 0 1 2558.42 1556)">
   <path d="M 78.2715 31.7871 C 115.039 31.7871 145.264 1.61133 145.264 -35.2051 C 145.264 -72.0215 115.039 -102.197 78.2227 -102.197 C 41.4551 -102.197 11.2793 -72.0215 11.2793 -35.2051 C 11.2793 1.61133 41.4551 31.7871 78.2715 31.7871 Z M 56.543 -4.05273 C 52.7832 -4.05273 50 -6.54297 50 -10.3027 L 50 -40.6738 L 51.123 -49.8047 L 46.6309 -43.457 L 43.3594 -39.5996 C 42.3828 -38.2812 40.7715 -37.7441 39.0625 -37.7441 C 35.791 -37.7441 33.5938 -40.1367 33.5938 -43.5059 C 33.5938 -45.1172 34.2285 -46.4844 35.3027 -47.6562 L 51.416 -64.9902 C 52.832 -66.5527 54.541 -67.1875 56.543 -67.1875 C 58.5449 -67.1875 60.3516 -66.5039 61.7188 -64.9902 L 77.832 -47.6562 C 78.9551 -46.4844 79.5898 -45.1172 79.5898 -43.5059 C 79.5898 -40.1367 77.3438 -37.7441 74.0234 -37.7441 C 72.3145 -37.7441 70.7031 -38.2812 69.7266 -39.5996 L 66.5527 -43.457 L 62.0117 -49.8535 L 63.1348 -40.6738 L 63.1348 -10.3027 C 63.1348 -6.54297 60.3516 -4.05273 56.543 -4.05273 Z M 100 -4.05273 C 97.998 -4.05273 96.2402 -4.6875 94.8242 -6.20117 L 78.7109 -23.584 C 77.5879 -24.7559 77.002 -26.123 77.002 -27.7344 C 77.002 -31.1035 79.1992 -33.4961 82.5195 -33.4961 C 84.2285 -33.4961 85.7422 -32.9102 86.7676 -31.6406 L 90.0391 -27.7832 L 94.4824 -21.4355 L 93.3594 -30.5664 L 93.3594 -60.9375 C 93.3594 -64.7461 96.1914 -67.1875 100 -67.1875 C 103.711 -67.1875 106.494 -64.7461 106.494 -60.9375 L 106.494 -30.5664 L 105.42 -21.3867 L 109.912 -27.7832 L 113.135 -31.6406 C 114.111 -32.9102 115.771 -33.4961 117.432 -33.4961 C 120.703 -33.4961 122.949 -31.1035 122.949 -27.7344 C 122.949 -26.123 122.314 -24.7559 121.24 -23.584 L 105.127 -6.20117 C 103.76 -4.6875 102.002 -4.05273 100 -4.05273 Z"/>
  </g>
  <g id="Black-L" transform="matrix(1 0 0 1 2854.08 1556)">
   <path d="M 79.2969 32.8613 C 116.748 32.8613 147.363 2.19727 147.363 -35.2051 C 147.363 -72.6074 116.699 -103.271 79.2969 -103.271 C 41.8945 -103.271 11.2793 -72.6074 11.2793 -35.2051 C 11.2793 2.19727 41.8945 32.8613 79.2969 32.8613 Z M 57.4219 -4.29688 C 53.2715 -4.29688 50.1465 -7.08008 50.1465 -11.2305 L 50.1465 -38.916 L 51.4648 -47.7051 L 47.7539 -41.8457 L 45.5078 -38.9648 C 44.4336 -37.5488 42.627 -36.9629 40.7715 -36.9629 C 37.207 -36.9629 34.8145 -39.5508 34.8145 -43.2129 C 34.8145 -44.9707 35.498 -46.5332 36.7188 -47.8027 L 51.7578 -64.2578 C 53.2715 -65.9668 55.1758 -66.6504 57.4219 -66.6504 C 59.7168 -66.6504 61.6699 -65.918 63.1836 -64.2578 L 78.2227 -47.8027 C 79.4434 -46.5332 80.1758 -44.9707 80.1758 -43.2129 C 80.1758 -39.5508 77.7832 -36.9629 74.1211 -36.9629 C 72.2168 -36.9629 70.459 -37.5488 69.3848 -38.9648 L 67.1875 -41.8457 L 63.4766 -47.7051 L 64.7949 -38.916 L 64.7949 -11.2305 C 64.7949 -7.08008 61.6699 -4.29688 57.4219 -4.29688 Z M 101.221 -4.29688 C 98.9746 -4.29688 97.0703 -5.0293 95.5566 -6.68945 L 80.4199 -23.1445 C 79.1992 -24.4629 78.5156 -25.9766 78.5156 -27.7344 C 78.5156 -31.4453 80.9082 -34.0332 84.5215 -34.0332 C 86.4258 -34.0332 88.1348 -33.4473 89.2578 -31.9824 L 91.5039 -29.1504 L 95.2148 -23.291 L 93.8477 -32.0312 L 93.8477 -59.7168 C 93.8477 -63.9648 97.0215 -66.6504 101.221 -66.6504 C 105.371 -66.6504 108.496 -63.9648 108.496 -59.7168 L 108.496 -32.0312 L 107.227 -23.2422 L 110.938 -29.1504 L 113.184 -31.9824 C 114.258 -33.4473 116.064 -34.0332 117.92 -34.0332 C 121.484 -34.0332 123.877 -31.4453 123.877 -27.7344 C 123.877 -25.9766 123.145 -24.4629 121.973 -23.1445 L 106.934 -6.68945 C 105.469 -4.98047 103.516 -4.29688 101.221 -4.29688 Z"/>
  </g>
 </g>
</svg>
