<?xml version="1.0" encoding="UTF-8"?>
<!--Generator: Apple Native CoreSVG 123-->
<!DOCTYPE svg
PUBLIC "-//W3C//DTD SVG 1.1//EN"
       "http://www.w3.org/Graphics/SVG/1.1/DTD/svg11.dtd">
<svg version="1.1" xmlns="http://www.w3.org/2000/svg" xmlns:xlink="http://www.w3.org/1999/xlink" width="3300" height="2200">
 <!--glyph: "uni100145.medium", point size: 100.000000, font version: "Version 15.0d4e20", template writer version: "2"-->
 <g id="Notes">
  <rect height="2200" id="artboard" style="fill:white;opacity:1" width="3300" x="0" y="0"/>
  <line id="" style="fill:none;stroke:black;opacity:1;stroke-width:0.5;" x1="263" x2="3036" y1="292" y2="292"/>
  <text style="stroke:none;fill:black;font-family:-apple-system,&quot;SF Pro Display&quot;,&quot;SF Pro Text&quot;,Helvetica,sans-serif;font-weight:bold;" transform="matrix(1 0 0 1 263 322)">Weight/Scale Variations</text>
  <text style="stroke:none;fill:black;font-family:-apple-system,&quot;SF Pro Display&quot;,&quot;SF Pro Text&quot;,Helvetica,sans-serif;text-anchor:middle;" transform="matrix(1 0 0 1 559.711 322)">Ultralight</text>
  <text style="stroke:none;fill:black;font-family:-apple-system,&quot;SF Pro Display&quot;,&quot;SF Pro Text&quot;,Helvetica,sans-serif;text-anchor:middle;" transform="matrix(1 0 0 1 856.422 322)">Thin</text>
  <text style="stroke:none;fill:black;font-family:-apple-system,&quot;SF Pro Display&quot;,&quot;SF Pro Text&quot;,Helvetica,sans-serif;text-anchor:middle;" transform="matrix(1 0 0 1 1153.13 322)">Light</text>
  <text style="stroke:none;fill:black;font-family:-apple-system,&quot;SF Pro Display&quot;,&quot;SF Pro Text&quot;,Helvetica,sans-serif;text-anchor:middle;" transform="matrix(1 0 0 1 1449.84 322)">Regular</text>
  <text style="stroke:none;fill:black;font-family:-apple-system,&quot;SF Pro Display&quot;,&quot;SF Pro Text&quot;,Helvetica,sans-serif;text-anchor:middle;" transform="matrix(1 0 0 1 1746.56 322)">Medium</text>
  <text style="stroke:none;fill:black;font-family:-apple-system,&quot;SF Pro Display&quot;,&quot;SF Pro Text&quot;,Helvetica,sans-serif;text-anchor:middle;" transform="matrix(1 0 0 1 2043.27 322)">Semibold</text>
  <text style="stroke:none;fill:black;font-family:-apple-system,&quot;SF Pro Display&quot;,&quot;SF Pro Text&quot;,Helvetica,sans-serif;text-anchor:middle;" transform="matrix(1 0 0 1 2339.98 322)">Bold</text>
  <text style="stroke:none;fill:black;font-family:-apple-system,&quot;SF Pro Display&quot;,&quot;SF Pro Text&quot;,Helvetica,sans-serif;text-anchor:middle;" transform="matrix(1 0 0 1 2636.69 322)">Heavy</text>
  <text style="stroke:none;fill:black;font-family:-apple-system,&quot;SF Pro Display&quot;,&quot;SF Pro Text&quot;,Helvetica,sans-serif;text-anchor:middle;" transform="matrix(1 0 0 1 2933.4 322)">Black</text>
  <line id="" style="fill:none;stroke:black;opacity:1;stroke-width:0.5;" x1="263" x2="3036" y1="1903" y2="1903"/>
  <g id="" transform="matrix(1 0 0 1 263 1933)">
   <path d="M 9.24805 0.830078 C 13.5547 0.830078 17.1387 -2.74414 17.1387 -7.05078 C 17.1387 -11.3574 13.5449 -14.9316 9.23828 -14.9316 C 4.94141 -14.9316 1.36719 -11.3574 1.36719 -7.05078 C 1.36719 -2.74414 4.95117 0.830078 9.24805 0.830078 Z M 9.24805 -0.654297 C 5.70312 -0.654297 2.87109 -3.49609 2.87109 -7.05078 C 2.87109 -10.6055 5.69336 -13.4473 9.23828 -13.4473 C 12.793 -13.4473 15.6348 -10.6055 15.6445 -7.05078 C 15.6543 -3.49609 12.8027 -0.654297 9.24805 -0.654297 Z M 9.22852 -3.42773 C 9.69727 -3.42773 9.9707 -3.74023 9.9707 -4.25781 L 9.9707 -6.31836 L 12.1973 -6.31836 C 12.6953 -6.31836 13.0371 -6.57227 13.0371 -7.04102 C 13.0371 -7.51953 12.7148 -7.7832 12.1973 -7.7832 L 9.9707 -7.7832 L 9.9707 -10.0098 C 9.9707 -10.5273 9.69727 -10.8496 9.22852 -10.8496 C 8.75977 -10.8496 8.50586 -10.5078 8.50586 -10.0098 L 8.50586 -7.7832 L 6.29883 -7.7832 C 5.78125 -7.7832 5.44922 -7.51953 5.44922 -7.04102 C 5.44922 -6.57227 5.80078 -6.31836 6.29883 -6.31836 L 8.50586 -6.31836 L 8.50586 -4.25781 C 8.50586 -3.75977 8.75977 -3.42773 9.22852 -3.42773 Z"/>
  </g>
  <g id="" transform="matrix(1 0 0 1 281.506 1933)">
   <path d="M 11.709 2.91016 C 17.1484 2.91016 21.6699 -1.60156 21.6699 -7.05078 C 21.6699 -12.4902 17.1387 -17.0117 11.6992 -17.0117 C 6.25 -17.0117 1.74805 -12.4902 1.74805 -7.05078 C 1.74805 -1.60156 6.25977 2.91016 11.709 2.91016 Z M 11.709 1.25 C 7.09961 1.25 3.41797 -2.44141 3.41797 -7.05078 C 3.41797 -11.6504 7.08984 -15.3516 11.6992 -15.3516 C 16.2988 -15.3516 20 -11.6504 20.0098 -7.05078 C 20.0195 -2.44141 16.3086 1.25 11.709 1.25 Z M 11.6797 -2.41211 C 12.207 -2.41211 12.5195 -2.77344 12.5195 -3.33984 L 12.5195 -6.23047 L 15.5762 -6.23047 C 16.123 -6.23047 16.5039 -6.51367 16.5039 -7.03125 C 16.5039 -7.55859 16.1426 -7.86133 15.5762 -7.86133 L 12.5195 -7.86133 L 12.5195 -10.9277 C 12.5195 -11.5039 12.207 -11.8555 11.6797 -11.8555 C 11.1621 -11.8555 10.8789 -11.4844 10.8789 -10.9277 L 10.8789 -7.86133 L 7.83203 -7.86133 C 7.25586 -7.86133 6.89453 -7.55859 6.89453 -7.03125 C 6.89453 -6.51367 7.28516 -6.23047 7.83203 -6.23047 L 10.8789 -6.23047 L 10.8789 -3.33984 C 10.8789 -2.79297 11.1621 -2.41211 11.6797 -2.41211 Z"/>
  </g>
  <g id="" transform="matrix(1 0 0 1 304.914 1933)">
   <path d="M 14.9707 5.67383 C 21.9336 5.67383 27.6855 -0.078125 27.6855 -7.04102 C 27.6855 -14.0039 21.9238 -19.7559 14.9609 -19.7559 C 7.99805 -19.7559 2.25586 -14.0039 2.25586 -7.04102 C 2.25586 -0.078125 8.00781 5.67383 14.9707 5.67383 Z M 14.9707 3.85742 C 8.92578 3.85742 4.08203 -1.00586 4.08203 -7.04102 C 4.08203 -13.0762 8.91602 -17.9395 14.9609 -17.9395 C 20.9961 -17.9395 25.8594 -13.0762 25.8691 -7.04102 C 25.8789 -1.00586 21.0059 3.85742 14.9707 3.85742 Z M 14.9414 -1.06445 C 15.5176 -1.06445 15.8594 -1.45508 15.8594 -2.06055 L 15.8594 -6.13281 L 20.0977 -6.13281 C 20.6934 -6.13281 21.1133 -6.46484 21.1133 -7.02148 C 21.1133 -7.59766 20.7227 -7.93945 20.0977 -7.93945 L 15.8594 -7.93945 L 15.8594 -12.1875 C 15.8594 -12.8027 15.5176 -13.1934 14.9414 -13.1934 C 14.3848 -13.1934 14.0625 -12.7832 14.0625 -12.1875 L 14.0625 -7.93945 L 9.82422 -7.93945 C 9.20898 -7.93945 8.80859 -7.59766 8.80859 -7.02148 C 8.80859 -6.46484 9.23828 -6.13281 9.82422 -6.13281 L 14.0625 -6.13281 L 14.0625 -2.06055 C 14.0625 -1.47461 14.3848 -1.06445 14.9414 -1.06445 Z"/>
  </g>
  <text style="stroke:none;fill:black;font-family:-apple-system,&quot;SF Pro Display&quot;,&quot;SF Pro Text&quot;,Helvetica,sans-serif;font-weight:bold;" transform="matrix(1 0 0 1 263 1953)">Design Variations</text>
  <text style="stroke:none;fill:black;font-family:-apple-system,&quot;SF Pro Display&quot;,&quot;SF Pro Text&quot;,Helvetica,sans-serif;" transform="matrix(1 0 0 1 263 1971)">Symbols are supported in up to nine weights and three scales.</text>
  <text style="stroke:none;fill:black;font-family:-apple-system,&quot;SF Pro Display&quot;,&quot;SF Pro Text&quot;,Helvetica,sans-serif;" transform="matrix(1 0 0 1 263 1989)">For optimal layout with text and other symbols, vertically align</text>
  <text style="stroke:none;fill:black;font-family:-apple-system,&quot;SF Pro Display&quot;,&quot;SF Pro Text&quot;,Helvetica,sans-serif;" transform="matrix(1 0 0 1 263 2007)">symbols with the adjacent text.</text>
  <rect height="14" id="" style="fill:#00AEEF;stroke:none;opacity:0.4;" width="3" x="776" y="1919"/>
  <g id="" transform="matrix(1 0 0 1 779 1933)">
   <path d="M 10.5273 0 L 12.373 0 L 7.17773 -14.0918 L 5.43945 -14.0918 L 0.244141 0 L 2.08984 0 L 3.50586 -4.0332 L 9.11133 -4.0332 Z M 6.2793 -11.9531 L 6.33789 -11.9531 L 8.59375 -5.52734 L 4.02344 -5.52734 Z"/>
  </g>
  <rect height="14" id="" style="fill:#00AEEF;stroke:none;opacity:0.4;" width="3" x="791.617" y="1919"/>
  <text style="stroke:none;fill:black;font-family:-apple-system,&quot;SF Pro Display&quot;,&quot;SF Pro Text&quot;,Helvetica,sans-serif;font-weight:bold;" transform="matrix(1 0 0 1 776 1953)">Side Bearings</text>
  <text style="stroke:none;fill:black;font-family:-apple-system,&quot;SF Pro Display&quot;,&quot;SF Pro Text&quot;,Helvetica,sans-serif;" transform="matrix(1 0 0 1 776 1971)">Horizontal padding on the left and right side of each symbol</text>
  <text style="stroke:none;fill:black;font-family:-apple-system,&quot;SF Pro Display&quot;,&quot;SF Pro Text&quot;,Helvetica,sans-serif;" transform="matrix(1 0 0 1 776 1989)">can be adjusted by modifying the width of the blue rectangles.</text>
  <text style="stroke:none;fill:black;font-family:-apple-system,&quot;SF Pro Display&quot;,&quot;SF Pro Text&quot;,Helvetica,sans-serif;" transform="matrix(1 0 0 1 776 2007)">Modifications are automatically applied proportionally to all</text>
  <text style="stroke:none;fill:black;font-family:-apple-system,&quot;SF Pro Display&quot;,&quot;SF Pro Text&quot;,Helvetica,sans-serif;" transform="matrix(1 0 0 1 776 2025)">scales and weights.</text>
  <g id="" transform="matrix(1 0 0 1 1289 1933)">
   <path d="M 2.96875 2.35352 L 3.80859 3.19336 C 4.84375 4.22852 6.12305 4.15039 7.19727 2.97852 L 16.1621 -6.82617 C 16.5527 -6.74805 16.9629 -6.8457 17.4902 -7.02148 C 18.1738 -7.25586 18.2715 -7.25586 18.3887 -7.13867 C 18.5352 -7.01172 18.4863 -6.89453 18.2422 -6.25 C 17.8809 -5.33203 17.8125 -4.79492 18.5547 -4.02344 L 19.4238 -3.13477 C 20.2734 -2.24609 21.3281 -2.26562 22.2168 -3.14453 L 25.0586 -5.97656 C 25.9473 -6.86523 25.957 -7.92969 25.0781 -8.7793 L 24.1797 -9.64844 C 23.4082 -10.4004 22.8711 -10.3516 21.9629 -9.98047 C 21.3184 -9.72656 21.2012 -9.6875 21.0645 -9.81445 C 20.9375 -9.93164 20.9473 -10.0391 21.1816 -10.7129 C 21.5332 -11.6895 21.5723 -12.2852 20.752 -13.0957 L 19.3359 -14.5117 C 15.1953 -18.6133 11.2305 -18.7402 7.65625 -15.4395 C 7.08008 -14.9023 6.99219 -14.1504 7.53906 -13.6133 L 7.79297 -13.3594 C 8.22266 -12.9297 8.86719 -12.8418 9.41406 -13.1152 C 11.0645 -13.9453 12.2559 -14.0234 13.457 -12.9785 L 13.0273 -11.416 C 12.8516 -10.8008 12.793 -10.3418 12.9199 -9.93164 L 3.18359 -1.04492 C 2.02148 0.0292969 1.93359 1.32812 2.96875 2.35352 Z M 8.96484 -14.4922 C 8.89648 -14.5703 8.86719 -14.6582 8.99414 -14.7559 C 11.709 -17.2852 15.0391 -16.8457 18.3496 -13.5254 L 19.6973 -12.168 C 20.0879 -11.7773 20.0977 -11.582 19.8828 -10.8691 C 19.6582 -10.127 19.502 -9.53125 20.1465 -8.88672 C 20.8105 -8.22266 21.2891 -8.41797 22.207 -8.63281 C 22.9004 -8.79883 23.0664 -8.79883 23.4473 -8.41797 L 24.0918 -7.77344 C 24.4043 -7.48047 24.4141 -7.32422 24.0723 -6.97266 L 21.2207 -4.13086 C 20.8887 -3.79883 20.7227 -3.79883 20.4297 -4.10156 L 19.7852 -4.75586 C 19.4141 -5.13672 19.4141 -5.30273 19.5801 -6.01562 C 19.7852 -6.88477 19.9805 -7.38281 19.3262 -8.04688 C 18.6719 -8.7207 18.0762 -8.57422 17.3438 -8.33008 C 16.5625 -8.06641 16.3281 -8.06641 15.8984 -8.49609 L 14.6094 -9.78516 C 14.1699 -10.2246 14.1309 -10.4395 14.2676 -10.9082 L 15.0293 -13.3984 C 13.3887 -15.2832 11.4941 -15.5566 9.20898 -14.4434 C 9.11133 -14.3945 9.04297 -14.4141 8.96484 -14.4922 Z M 3.96484 1.36719 C 3.52539 0.927734 3.54492 0.537109 4.14062 -0.00976562 L 13.7402 -8.81836 L 15 -7.55859 L 6.17188 2.02148 C 5.625 2.60742 5.24414 2.64648 4.79492 2.19727 Z"/>
  </g>
  <text style="stroke:none;fill:black;font-family:-apple-system,&quot;SF Pro Display&quot;,&quot;SF Pro Text&quot;,Helvetica,sans-serif;font-weight:bold;" transform="matrix(1 0 0 1 1289 1953)">Exporting</text>
  <text style="stroke:none;fill:black;font-family:-apple-system,&quot;SF Pro Display&quot;,&quot;SF Pro Text&quot;,Helvetica,sans-serif;" transform="matrix(1 0 0 1 1289 1971)">Symbols should be outlined when exporting to ensure the</text>
  <text style="stroke:none;fill:black;font-family:-apple-system,&quot;SF Pro Display&quot;,&quot;SF Pro Text&quot;,Helvetica,sans-serif;" transform="matrix(1 0 0 1 1289 1989)">design is preserved when submitting to Xcode.</text>
  <text id="template-version" style="stroke:none;fill:black;font-family:-apple-system,&quot;SF Pro Display&quot;,&quot;SF Pro Text&quot;,Helvetica,sans-serif;text-anchor:end;" transform="matrix(1 0 0 1 3036 1933)">Template v.0.1</text>
  <text style="stroke:none;fill:black;font-family:-apple-system,&quot;SF Pro Display&quot;,&quot;SF Pro Text&quot;,Helvetica,sans-serif;text-anchor:end;" transform="matrix(1 0 0 1 3036 1951)">Generated from arrow.left.to.line.alt</text>
  <text style="stroke:none;fill:black;font-family:-apple-system,&quot;SF Pro Display&quot;,&quot;SF Pro Text&quot;,Helvetica,sans-serif;text-anchor:end;" transform="matrix(1 0 0 1 3036 1969)">Typeset at 100 points</text>
  <text style="stroke:none;fill:black;font-family:-apple-system,&quot;SF Pro Display&quot;,&quot;SF Pro Text&quot;,Helvetica,sans-serif;" transform="matrix(1 0 0 1 263 726)">Small</text>
  <text style="stroke:none;fill:black;font-family:-apple-system,&quot;SF Pro Display&quot;,&quot;SF Pro Text&quot;,Helvetica,sans-serif;" transform="matrix(1 0 0 1 263 1156)">Medium</text>
  <text style="stroke:none;fill:black;font-family:-apple-system,&quot;SF Pro Display&quot;,&quot;SF Pro Text&quot;,Helvetica,sans-serif;" transform="matrix(1 0 0 1 263 1586)">Large</text>
 </g>
 <g id="Guides">
  <g id="H-reference" style="fill:#27AAE1;stroke:none;" transform="matrix(1 0 0 1 339 696)">
   <path d="M 54.9316 0 L 57.666 0 L 30.5664 -70.459 L 28.0762 -70.459 L 0.976562 0 L 3.66211 0 L 12.9395 -24.4629 L 45.7031 -24.4629 Z M 29.1992 -67.0898 L 29.4434 -67.0898 L 44.8242 -26.709 L 13.8184 -26.709 Z"/>
  </g>
  <line id="Baseline-S" style="fill:none;stroke:#27AAE1;opacity:1;stroke-width:0.577;" x1="263" x2="3036" y1="696" y2="696"/>
  <line id="Capline-S" style="fill:none;stroke:#27AAE1;opacity:1;stroke-width:0.577;" x1="263" x2="3036" y1="625.541" y2="625.541"/>
  <g id="H-reference" style="fill:#27AAE1;stroke:none;" transform="matrix(1 0 0 1 339 1126)">
   <path d="M 54.9316 0 L 57.666 0 L 30.5664 -70.459 L 28.0762 -70.459 L 0.976562 0 L 3.66211 0 L 12.9395 -24.4629 L 45.7031 -24.4629 Z M 29.1992 -67.0898 L 29.4434 -67.0898 L 44.8242 -26.709 L 13.8184 -26.709 Z"/>
  </g>
  <line id="Baseline-M" style="fill:none;stroke:#27AAE1;opacity:1;stroke-width:0.577;" x1="263" x2="3036" y1="1126" y2="1126"/>
  <line id="Capline-M" style="fill:none;stroke:#27AAE1;opacity:1;stroke-width:0.577;" x1="263" x2="3036" y1="1055.54" y2="1055.54"/>
  <g id="H-reference" style="fill:#27AAE1;stroke:none;" transform="matrix(1 0 0 1 339 1556)">
   <path d="M 54.9316 0 L 57.666 0 L 30.5664 -70.459 L 28.0762 -70.459 L 0.976562 0 L 3.66211 0 L 12.9395 -24.4629 L 45.7031 -24.4629 Z M 29.1992 -67.0898 L 29.4434 -67.0898 L 44.8242 -26.709 L 13.8184 -26.709 Z"/>
  </g>
  <line id="Baseline-L" style="fill:none;stroke:#27AAE1;opacity:1;stroke-width:0.577;" x1="263" x2="3036" y1="1556" y2="1556"/>
  <line id="Capline-L" style="fill:none;stroke:#27AAE1;opacity:1;stroke-width:0.577;" x1="263" x2="3036" y1="1485.54" y2="1485.54"/>
  <rect height="119.336" id="left-margin" style="fill:#00AEEF;stroke:none;opacity:0.4;" width="12.4512" x="1386.88" y="1030.79"/>
  <rect height="119.336" id="right-margin" style="fill:#00AEEF;stroke:none;opacity:0.4;" width="12.4512" x="1500.36" y="1030.79"/>
 </g>
 <g id="Symbols">
  <g id="Ultralight-S" transform="matrix(1 0 0 1 513.544 696)">
   <path d="M 10.8887 -8.54492 C 11.5234 -8.54492 12.0117 -9.0332 12.0117 -9.66797 L 12.0117 -35.791 C 12.0605 -35.6445 12.1582 -35.5469 12.2559 -35.4004 L 38.623 -8.88672 C 38.8672 -8.64258 39.0625 -8.54492 39.4043 -8.54492 C 40.0879 -8.54492 40.5273 -9.0332 40.5273 -9.61914 C 40.5273 -9.96094 40.4297 -10.2539 40.2344 -10.4492 L 23.6816 -27.0508 L 15.2832 -35.2539 L 23.3887 -35.1562 L 81.4941 -35.1562 C 82.0801 -35.1562 82.5684 -35.5957 82.5684 -36.2305 C 82.5684 -36.8164 82.0801 -37.3047 81.4941 -37.3047 L 23.3887 -37.3047 L 15.2832 -37.1582 L 23.6816 -45.4102 L 40.2344 -61.9629 C 40.4297 -62.1582 40.5273 -62.5 40.5273 -62.8418 C 40.5273 -63.3789 40.0879 -63.8672 39.4043 -63.8672 C 39.0625 -63.8672 38.8672 -63.7695 38.623 -63.5254 L 12.2559 -37.0117 C 12.1582 -36.9141 12.0605 -36.7676 12.0117 -36.6699 L 12.0117 -62.7441 C 12.0117 -63.3789 11.5234 -63.8672 10.8887 -63.8672 C 10.2539 -63.8672 9.76562 -63.3789 9.76562 -62.7441 L 9.76562 -9.66797 C 9.76562 -9.0332 10.2539 -8.54492 10.8887 -8.54492 Z"/>
  </g>
  <g id="Thin-S" transform="matrix(1 0 0 1 809.376 696)">
   <path d="M 11.5234 -8.10547 C 12.5488 -8.10547 13.2812 -8.83789 13.2812 -9.81445 L 13.2812 -35.6445 C 13.3789 -35.3516 13.5254 -35.1074 13.7695 -34.8633 L 39.8926 -8.64258 C 40.2832 -8.25195 40.6738 -8.10547 41.1621 -8.10547 C 42.1387 -8.10547 42.8711 -8.83789 42.8711 -9.81445 C 42.8711 -10.3027 42.7246 -10.791 42.4316 -11.084 L 28.0273 -25.4883 L 18.457 -34.5703 L 26.6602 -34.4238 L 82.6172 -34.4238 C 83.5938 -34.4238 84.3262 -35.1562 84.3262 -36.1328 C 84.3262 -37.1582 83.5938 -37.8906 82.6172 -37.8906 L 26.6602 -37.8906 L 18.457 -37.6953 L 28.0273 -46.8262 L 42.4316 -61.2305 C 42.7246 -61.5234 42.8711 -62.0117 42.8711 -62.5 C 42.8711 -63.4277 42.1387 -64.209 41.1621 -64.209 C 40.6738 -64.209 40.2832 -64.0137 39.8926 -63.6719 L 13.7695 -37.4512 C 13.5254 -37.207 13.3789 -36.9141 13.2812 -36.6211 L 13.2812 -62.4512 C 13.2812 -63.4277 12.5488 -64.209 11.5234 -64.209 C 10.5469 -64.209 9.76562 -63.4277 9.76562 -62.4512 L 9.76562 -9.81445 C 9.76562 -8.83789 10.5469 -8.10547 11.5234 -8.10547 Z"/>
  </g>
  <g id="Light-S" transform="matrix(1 0 0 1 1104.38 696)">
   <path d="M 12.7441 -7.27539 C 14.502 -7.27539 15.7715 -8.44727 15.7715 -10.1562 L 15.7715 -35.5957 C 15.8691 -34.9121 16.2109 -34.2773 16.748 -33.7891 L 42.334 -8.1543 C 43.0176 -7.51953 43.7012 -7.27539 44.5312 -7.27539 C 46.1914 -7.27539 47.4609 -8.49609 47.4609 -10.1562 C 47.4609 -10.9375 47.168 -11.7188 46.6309 -12.2559 L 36.5723 -22.4121 L 24.7559 -33.3008 L 32.959 -33.0078 L 84.7656 -33.0078 C 86.5234 -33.0078 87.7441 -34.2773 87.7441 -35.9863 C 87.7441 -37.7441 86.5234 -39.0137 84.7656 -39.0137 L 32.959 -39.0137 L 24.8047 -38.7207 L 36.5723 -49.6094 L 46.6309 -59.7656 C 47.168 -60.3027 47.4609 -61.084 47.4609 -61.8652 C 47.4609 -63.5254 46.1914 -64.7461 44.5312 -64.7461 C 43.7012 -64.7461 43.0176 -64.502 42.334 -63.8184 L 16.748 -38.2324 C 16.2109 -37.6953 15.8691 -37.1094 15.7715 -36.4746 L 15.7715 -61.8164 C 15.7715 -63.5254 14.502 -64.7461 12.7441 -64.7461 C 11.0352 -64.7461 9.76562 -63.5254 9.76562 -61.8164 L 9.76562 -10.1562 C 9.76562 -8.44727 11.0352 -7.27539 12.7441 -7.27539 Z"/>
  </g>
  <g id="Regular-S" transform="matrix(1 0 0 1 1399.8 696)">
   <path d="M 13.7207 -6.5918 C 16.0156 -6.5918 17.627 -8.1543 17.627 -10.4004 L 17.627 -35.7422 C 17.627 -34.8145 18.1152 -33.7891 18.9941 -32.959 L 44.1895 -7.8125 C 45.1172 -6.98242 46.0449 -6.5918 47.0703 -6.5918 C 49.2188 -6.5918 50.9277 -8.20312 50.9277 -10.4004 C 50.9277 -11.4258 50.5371 -12.4512 49.8535 -13.1836 L 43.0664 -20.1172 L 29.541 -32.2754 L 37.7441 -31.9824 L 86.4258 -31.9824 C 88.7207 -31.9824 90.332 -33.5938 90.332 -35.8887 C 90.332 -38.1836 88.7207 -39.8438 86.4258 -39.8438 L 37.7441 -39.8438 L 29.5898 -39.502 L 43.0664 -51.6602 L 49.8535 -58.6426 C 50.5371 -59.3262 50.9277 -60.4004 50.9277 -61.4258 C 50.9277 -63.623 49.2188 -65.1855 47.0703 -65.1855 C 46.0449 -65.1855 45.1172 -64.8438 44.1895 -63.9648 L 18.9941 -38.8672 C 18.1641 -38.0859 17.6758 -37.1094 17.627 -36.084 L 17.627 -61.3281 C 17.627 -63.623 16.0156 -65.1855 13.7207 -65.1855 C 11.4258 -65.1855 9.76562 -63.623 9.76562 -61.3281 L 9.76562 -10.4004 C 9.76562 -8.1543 11.4258 -6.5918 13.7207 -6.5918 Z"/>
  </g>
  <g id="Medium-S" transform="matrix(1 0 0 1 1695.51 696)">
   <path d="M 14.5508 -5.81055 C 17.2363 -5.81055 19.2871 -7.76367 19.2871 -10.4492 L 19.2871 -35.6934 C 19.2871 -34.5215 19.873 -33.2031 20.8496 -32.2266 L 45.8496 -7.27539 C 46.9238 -6.29883 48.0957 -5.81055 49.3652 -5.81055 C 52.0996 -5.81055 54.1016 -7.76367 54.1016 -10.4492 C 54.1016 -11.8164 53.5156 -12.9883 52.6367 -13.8672 L 45.3613 -21.2402 L 33.9844 -31.3477 L 42.2363 -31.0059 L 87.4023 -31.0059 C 90.332 -31.0059 92.334 -33.0078 92.334 -35.8398 C 92.334 -38.7207 90.332 -40.7227 87.4023 -40.7227 L 42.2363 -40.7227 L 34.0332 -40.3809 L 45.3613 -50.4395 L 52.6367 -57.8613 C 53.5156 -58.7402 54.1016 -59.9121 54.1016 -61.2793 C 54.1016 -63.9648 52.0996 -65.918 49.3652 -65.918 C 48.0957 -65.918 46.9238 -65.4297 45.8496 -64.4531 L 20.8496 -39.4531 C 19.9219 -38.5742 19.3359 -37.3047 19.2871 -36.0352 L 19.2871 -61.2305 C 19.2871 -63.916 17.2363 -65.918 14.5508 -65.918 C 11.8164 -65.918 9.76562 -63.916 9.76562 -61.2305 L 9.76562 -10.4492 C 9.76562 -7.76367 11.8164 -5.81055 14.5508 -5.81055 Z"/>
  </g>
  <g id="Semibold-S" transform="matrix(1 0 0 1 1991.44 696)">
   <path d="M 15.1855 -5.17578 C 18.2129 -5.17578 20.5566 -7.42188 20.5566 -10.498 L 20.5566 -35.6934 C 20.5566 -34.3262 21.1914 -32.7637 22.2656 -31.6895 L 47.168 -6.88477 C 48.3398 -5.76172 49.707 -5.17578 51.1719 -5.17578 C 54.2969 -5.17578 56.543 -7.42188 56.543 -10.4492 C 56.543 -12.1094 55.8594 -13.4277 54.834 -14.4531 L 47.168 -22.1191 L 37.4023 -30.6152 L 45.7031 -30.2246 L 88.1836 -30.2246 C 91.6016 -30.2246 93.8965 -32.5195 93.8965 -35.8398 C 93.8965 -39.1602 91.6016 -41.4062 88.1836 -41.4062 L 45.7031 -41.4062 L 37.4512 -41.0645 L 47.168 -49.5117 L 54.834 -57.2266 C 55.8594 -58.252 56.543 -59.5703 56.543 -61.1816 C 56.543 -64.209 54.2969 -66.5039 51.1719 -66.5039 C 49.707 -66.5039 48.3398 -65.918 47.168 -64.7461 L 22.2656 -39.9414 C 21.2402 -38.916 20.6055 -37.4512 20.5566 -35.9863 L 20.5566 -61.1328 C 20.5566 -64.209 18.2129 -66.5039 15.1855 -66.5039 C 12.1094 -66.5039 9.76562 -64.209 9.76562 -61.1328 L 9.76562 -10.498 C 9.76562 -7.42188 12.1094 -5.17578 15.1855 -5.17578 Z"/>
  </g>
  <g id="Bold-S" transform="matrix(1 0 0 1 2287.1 696)">
   <path d="M 16.0156 -4.3457 C 19.4824 -4.3457 22.2168 -7.03125 22.2168 -10.498 L 22.2168 -35.6445 C 22.2168 -34.0332 22.9492 -32.1777 24.1699 -31.0059 L 48.8281 -6.34766 C 50.1953 -5.0293 51.8066 -4.3457 53.5156 -4.3457 C 57.1777 -4.3457 59.7656 -6.98242 59.7656 -10.498 C 59.7656 -12.5 58.8867 -13.9648 57.666 -15.1367 L 49.5117 -23.2422 L 41.9922 -29.6387 L 50.2441 -29.248 L 89.1602 -29.248 C 93.2617 -29.248 95.9961 -31.8848 95.9961 -35.791 C 95.9961 -39.6973 93.2617 -42.2852 89.1602 -42.2852 L 50.2441 -42.2852 L 41.9922 -41.9434 L 49.5117 -48.291 L 57.666 -56.4453 C 58.8867 -57.6172 59.7656 -59.082 59.7656 -61.084 C 59.7656 -64.5996 57.1777 -67.2363 53.5156 -67.2363 C 51.8066 -67.2363 50.1953 -66.5527 48.8281 -65.2344 L 24.1699 -40.5762 C 22.998 -39.4531 22.2656 -37.6465 22.2168 -35.9375 L 22.2168 -61.0352 C 22.2168 -64.502 19.4824 -67.2363 16.0156 -67.2363 C 12.5488 -67.2363 9.76562 -64.502 9.76562 -61.0352 L 9.76562 -10.498 C 9.76562 -7.03125 12.5488 -4.3457 16.0156 -4.3457 Z"/>
  </g>
  <g id="Heavy-S" transform="matrix(1 0 0 1 2582.32 696)">
   <path d="M 17.2363 -3.125 C 21.2891 -3.125 24.6582 -6.44531 24.6582 -10.5957 L 24.6582 -35.6445 C 24.6582 -33.5938 25.5371 -31.2988 26.8555 -29.9316 L 51.2695 -5.56641 C 52.8809 -4.00391 54.834 -3.125 56.8848 -3.125 C 61.4258 -3.125 64.4531 -6.34766 64.4531 -10.5469 C 64.4531 -13.0371 63.2812 -14.7461 61.8164 -16.2109 L 52.9297 -24.9023 L 48.8281 -28.2227 L 56.8848 -27.832 L 90.625 -27.832 C 95.6543 -27.832 98.9746 -30.957 98.9746 -35.6934 C 98.9746 -40.4785 95.6543 -43.5547 90.625 -43.5547 L 56.8848 -43.5547 L 48.8281 -43.2129 L 52.9297 -46.4844 L 61.8164 -55.2734 C 63.2812 -56.6895 64.4531 -58.4473 64.4531 -60.9375 C 64.4531 -65.0879 61.4258 -68.3105 56.8848 -68.3105 C 54.834 -68.3105 52.8809 -67.4316 51.2695 -65.8691 L 26.8555 -41.4551 C 25.5371 -40.1367 24.707 -37.9395 24.6582 -35.8398 L 24.6582 -60.8887 C 24.6582 -64.9902 21.2891 -68.3105 17.2363 -68.3105 C 13.1348 -68.3105 9.76562 -64.9902 9.76562 -60.8887 L 9.76562 -10.5957 C 9.76562 -6.44531 13.1348 -3.125 17.2363 -3.125 Z"/>
  </g>
  <g id="Black-S" transform="matrix(1 0 0 1 2877.71 696)">
   <path d="M 59.9121 -2.05078 C 65.1855 -2.05078 68.6035 -5.76172 68.6035 -10.5957 C 68.6035 -13.5254 67.2363 -15.4785 65.4785 -17.1387 L 56.0059 -26.416 L 55.2734 -26.9043 L 62.793 -26.5625 L 91.8945 -26.5625 C 97.8027 -26.5625 101.611 -30.127 101.611 -35.6445 C 101.611 -41.1621 97.8027 -44.7266 91.8945 -44.7266 L 62.793 -44.7266 L 55.2734 -44.3848 L 56.0059 -44.873 L 65.4785 -54.1992 C 67.2363 -55.8594 68.6035 -57.8125 68.6035 -60.791 C 68.6035 -65.5762 65.1855 -69.2871 59.9121 -69.2871 C 57.5195 -69.2871 55.2734 -68.2617 53.4668 -66.4551 L 29.2969 -42.2852 C 27.832 -40.7715 26.8066 -38.0859 26.8066 -35.6445 C 26.8066 -33.2031 27.832 -30.5176 29.2969 -29.0039 L 53.4668 -4.88281 C 55.2734 -3.07617 57.5195 -2.05078 59.9121 -2.05078 Z M 18.3105 -2.05078 C 22.9492 -2.05078 26.8066 -5.9082 26.8066 -10.6445 L 26.8066 -60.7422 C 26.8066 -65.4297 22.9492 -69.2871 18.3105 -69.2871 C 13.6719 -69.2871 9.76562 -65.4297 9.76562 -60.7422 L 9.76562 -10.6445 C 9.76562 -5.9082 13.6719 -2.05078 18.3105 -2.05078 Z"/>
  </g>
  <g id="Ultralight-M" transform="matrix(1 0 0 1 501.117 1126)">
   <path d="M 13.6719 -1.31836 C 14.3066 -1.31836 14.8438 -1.85547 14.8438 -2.53906 L 14.8438 -35.9863 C 14.8926 -35.8887 14.9902 -35.791 15.0879 -35.6934 L 48.8281 -1.70898 C 49.0234 -1.46484 49.2676 -1.31836 49.6582 -1.31836 C 50.3418 -1.31836 50.8301 -1.85547 50.8301 -2.44141 C 50.8301 -2.83203 50.7324 -3.17383 50.5371 -3.36914 L 28.5156 -25.3906 L 18.3105 -35.498 L 28.6133 -35.4004 L 103.613 -35.4004 C 104.199 -35.4004 104.736 -35.8398 104.736 -36.5234 C 104.736 -37.1582 104.199 -37.6465 103.613 -37.6465 L 28.6133 -37.6465 L 18.3105 -37.5488 L 28.5156 -47.6562 L 50.5371 -69.6777 C 50.7324 -69.8242 50.8301 -70.2148 50.8301 -70.5566 C 50.8301 -71.1426 50.3418 -71.6797 49.6582 -71.6797 C 49.2676 -71.6797 49.0234 -71.582 48.8281 -71.3379 L 15.0879 -37.3535 C 14.9902 -37.2559 14.8926 -37.1582 14.8438 -37.0117 L 14.8438 -70.5078 C 14.8438 -71.1426 14.3066 -71.6797 13.6719 -71.6797 C 12.9883 -71.6797 12.4512 -71.1426 12.4512 -70.5078 L 12.4512 -2.53906 C 12.4512 -1.85547 12.9883 -1.31836 13.6719 -1.31836 Z"/>
  </g>
  <g id="Thin-M" transform="matrix(1 0 0 1 796.828 1126)">
   <path d="M 14.3555 -0.830078 C 15.4297 -0.830078 16.2598 -1.66016 16.2598 -2.73438 L 16.2598 -35.8398 C 16.3574 -35.5469 16.5527 -35.3027 16.7969 -35.0586 L 50.2441 -1.41602 C 50.6348 -1.02539 51.0742 -0.830078 51.6113 -0.830078 C 52.6855 -0.830078 53.4668 -1.66016 53.4668 -2.68555 C 53.4668 -3.22266 53.2715 -3.75977 52.9785 -4.05273 L 33.4473 -23.584 L 21.875 -34.7656 L 32.2754 -34.5703 L 104.883 -34.5703 C 105.908 -34.5703 106.689 -35.3516 106.689 -36.4258 C 106.689 -37.5 105.908 -38.2812 104.883 -38.2812 L 32.2754 -38.2812 L 21.875 -38.0859 L 33.4473 -49.2676 L 52.9785 -68.7988 C 53.2715 -69.1406 53.4668 -69.6777 53.4668 -70.2148 C 53.4668 -71.1914 52.6855 -72.0215 51.6113 -72.0215 C 51.0742 -72.0215 50.6348 -71.8262 50.2441 -71.4355 L 16.7969 -37.793 C 16.5527 -37.5977 16.3574 -37.3535 16.2598 -37.0605 L 16.2598 -70.1172 C 16.2598 -71.1914 15.4297 -72.0215 14.3555 -72.0215 C 13.2812 -72.0215 12.4512 -71.1914 12.4512 -70.1172 L 12.4512 -2.73438 C 12.4512 -1.66016 13.2812 -0.830078 14.3555 -0.830078 Z"/>
  </g>
  <g id="Light-M" transform="matrix(1 0 0 1 1091.61 1126)">
   <path d="M 15.7715 0.146484 C 17.6758 0.146484 19.0918 -1.2207 19.0918 -3.07617 L 19.0918 -35.6934 C 19.2383 -35.0098 19.5801 -34.375 20.1172 -33.8379 L 53.0273 -0.878906 C 53.7598 -0.195312 54.4922 0.146484 55.4199 0.146484 C 57.2266 0.146484 58.6426 -1.2207 58.6426 -3.07617 C 58.6426 -3.95508 58.3496 -4.83398 57.7637 -5.41992 L 43.1152 -20.166 L 28.9551 -33.3008 L 39.4043 -33.0078 L 107.324 -33.0078 C 109.18 -33.0078 110.547 -34.375 110.547 -36.2793 C 110.547 -38.1836 109.18 -39.5508 107.324 -39.5508 L 39.4043 -39.5508 L 29.0039 -39.2578 L 43.1152 -52.3926 L 57.7637 -67.1387 C 58.3496 -67.7246 58.6426 -68.6035 58.6426 -69.4824 C 58.6426 -71.3379 57.2266 -72.7051 55.4199 -72.7051 C 54.4922 -72.7051 53.7598 -72.3633 53.0273 -71.6797 L 20.1172 -38.7207 C 19.5801 -38.1836 19.2383 -37.5977 19.0918 -36.9141 L 19.0918 -69.4336 C 19.0918 -71.3379 17.6758 -72.7051 15.7715 -72.7051 C 13.8672 -72.7051 12.4512 -71.3379 12.4512 -69.4336 L 12.4512 -3.07617 C 12.4512 -1.2207 13.8672 0.146484 15.7715 0.146484 Z"/>
  </g>
  <g id="Regular-M" transform="matrix(1 0 0 1 1386.88 1126)">
   <path d="M 16.8457 0.830078 C 19.3848 0.830078 21.1914 -0.878906 21.1914 -3.36914 L 21.1914 -35.6934 C 21.3379 -34.668 21.8262 -33.6914 22.6562 -32.9102 L 55.127 -0.488281 C 56.1035 0.439453 57.1289 0.830078 58.3008 0.830078 C 60.6934 0.830078 62.5488 -0.927734 62.5488 -3.36914 C 62.5488 -4.49219 62.1582 -5.66406 61.377 -6.44531 L 50.4395 -17.5781 L 34.375 -32.1777 L 44.8242 -31.7871 L 109.18 -31.7871 C 111.719 -31.7871 113.477 -33.6426 113.477 -36.1816 C 113.477 -38.7207 111.719 -40.5273 109.18 -40.5273 L 44.8242 -40.5273 L 34.4238 -40.1367 L 50.4395 -54.7852 L 61.377 -65.8691 C 62.1582 -66.6504 62.5488 -67.8223 62.5488 -68.9941 C 62.5488 -71.3867 60.6934 -73.1934 58.3008 -73.1934 C 57.1289 -73.1934 56.1035 -72.7539 55.127 -71.8262 L 22.6562 -39.4531 C 21.8262 -38.623 21.3379 -37.6465 21.1914 -36.6211 L 21.1914 -68.8477 C 21.1914 -71.3867 19.3848 -73.1934 16.8457 -73.1934 C 14.3066 -73.1934 12.4512 -71.3867 12.4512 -68.8477 L 12.4512 -3.36914 C 12.4512 -0.878906 14.3066 0.830078 16.8457 0.830078 Z"/>
  </g>
  <g id="Medium-M" transform="matrix(1 0 0 1 1682.37 1126)">
   <path d="M 17.8223 1.75781 C 20.8496 1.75781 23.1445 -0.439453 23.1445 -3.4668 L 23.1445 -35.6445 C 23.291 -34.2773 23.877 -33.0078 24.8535 -32.0801 L 57.0801 0.0976562 C 58.252 1.2207 59.5703 1.75781 60.9863 1.75781 C 64.0625 1.75781 66.2598 -0.439453 66.2598 -3.41797 C 66.2598 -4.98047 65.6738 -6.29883 64.6973 -7.27539 L 53.6621 -18.4082 L 39.502 -31.0547 L 50.0977 -30.6641 L 110.4 -30.6641 C 113.672 -30.6641 115.918 -32.9102 115.918 -36.084 C 115.918 -39.3066 113.672 -41.5527 110.4 -41.5527 L 50.0977 -41.5527 L 39.5508 -41.1133 L 53.6621 -53.8086 L 64.6973 -64.9414 C 65.6738 -65.918 66.2598 -67.2363 66.2598 -68.7988 C 66.2598 -71.7773 64.0625 -73.9746 60.9863 -73.9746 C 59.5703 -73.9746 58.252 -73.4375 57.0801 -72.3145 L 24.8535 -40.1367 C 23.877 -39.1602 23.291 -37.8906 23.1445 -36.5723 L 23.1445 -68.7012 C 23.1445 -71.7285 20.8496 -73.9746 17.8223 -73.9746 C 14.7461 -73.9746 12.4512 -71.7285 12.4512 -68.7012 L 12.4512 -3.4668 C 12.4512 -0.439453 14.7461 1.75781 17.8223 1.75781 Z"/>
  </g>
  <g id="Semibold-M" transform="matrix(1 0 0 1 1978.15 1126)">
   <path d="M 18.5547 2.49023 C 21.9727 2.49023 24.6582 -0.0976562 24.6582 -3.51562 L 24.6582 -35.5957 C 24.7559 -34.0332 25.4395 -32.5195 26.5625 -31.4453 L 58.5938 0.537109 C 59.9121 1.85547 61.4258 2.49023 63.0859 2.49023 C 66.6016 2.49023 69.1406 -0.0976562 69.1406 -3.4668 C 69.1406 -5.32227 68.3594 -6.83594 67.2363 -7.95898 L 56.1523 -19.043 L 43.5059 -30.2246 L 54.1016 -29.7852 L 111.328 -29.7852 C 115.186 -29.7852 117.773 -32.3242 117.773 -36.0352 C 117.773 -39.7949 115.186 -42.334 111.328 -42.334 L 54.1016 -42.334 L 43.5547 -41.8945 L 56.1523 -53.0273 L 67.2363 -64.209 C 68.3594 -65.332 69.1406 -66.8457 69.1406 -68.6523 C 69.1406 -72.0703 66.6016 -74.6094 63.0859 -74.6094 C 61.4258 -74.6094 59.9121 -73.9746 58.5938 -72.6562 L 26.5625 -40.6738 C 25.4395 -39.5996 24.7559 -38.0859 24.6582 -36.5234 L 24.6582 -68.5547 C 24.6582 -72.0215 21.9727 -74.6094 18.5547 -74.6094 C 15.1367 -74.6094 12.4512 -72.0215 12.4512 -68.5547 L 12.4512 -3.51562 C 12.4512 -0.0976562 15.1367 2.49023 18.5547 2.49023 Z"/>
  </g>
  <g id="Bold-M" transform="matrix(1 0 0 1 2273.64 1126)">
   <path d="M 19.5312 3.41797 C 23.4863 3.41797 26.6113 0.390625 26.6113 -3.56445 L 26.6113 -35.5469 C 26.709 -33.6914 27.5391 -31.8359 28.7598 -30.5664 L 60.5469 1.12305 C 62.0605 2.63672 63.8672 3.41797 65.8203 3.41797 C 69.9707 3.41797 72.9004 0.390625 72.9004 -3.56445 C 72.9004 -5.76172 71.9238 -7.4707 70.5566 -8.78906 L 59.4727 -19.9219 L 48.7793 -29.1016 L 59.4238 -28.6621 L 112.598 -28.6621 C 117.139 -28.6621 120.215 -31.5918 120.215 -35.9863 C 120.215 -40.3809 117.139 -43.3594 112.598 -43.3594 L 59.4238 -43.3594 L 48.8281 -42.8711 L 59.4727 -52.0508 L 70.5566 -63.1836 C 71.9238 -64.5508 72.9004 -66.2598 72.9004 -68.457 C 72.9004 -72.4121 69.9707 -75.4395 65.8203 -75.4395 C 63.8672 -75.4395 62.0605 -74.6582 60.5469 -73.1445 L 28.7598 -41.4062 C 27.5391 -40.1367 26.709 -38.2812 26.6113 -36.4258 L 26.6113 -68.4082 C 26.6113 -72.3633 23.4863 -75.4395 19.5312 -75.4395 C 15.5762 -75.4395 12.4512 -72.3633 12.4512 -68.4082 L 12.4512 -3.56445 C 12.4512 0.390625 15.5762 3.41797 19.5312 3.41797 Z"/>
  </g>
  <g id="Heavy-M" transform="matrix(1 0 0 1 2568.57 1126)">
   <path d="M 20.9473 4.78516 C 25.6348 4.78516 29.4434 1.02539 29.4434 -3.71094 L 29.4434 -35.5957 C 29.541 -33.252 30.5176 -30.8594 32.0312 -29.3457 L 63.4277 2.00195 C 65.2344 3.80859 67.4316 4.78516 69.7754 4.78516 C 74.9023 4.78516 78.3691 1.12305 78.3691 -3.66211 C 78.3691 -6.44531 77.0996 -8.44727 75.4395 -10.0586 L 64.209 -21.1426 L 56.5918 -27.4414 L 67.1387 -26.9531 L 114.355 -26.9531 C 120.02 -26.9531 123.779 -30.5176 123.779 -35.8887 C 123.779 -41.2598 120.02 -44.8242 114.355 -44.8242 L 67.1387 -44.8242 L 56.6406 -44.3359 L 64.209 -50.6348 L 75.4395 -61.7676 C 77.0996 -63.4277 78.3691 -65.4297 78.3691 -68.2129 C 78.3691 -72.9492 74.9023 -76.6113 69.7754 -76.6113 C 67.4316 -76.6113 65.2344 -75.6348 63.4277 -73.8281 L 32.0312 -42.4316 C 30.5176 -40.9668 29.541 -38.5254 29.4434 -36.2305 L 29.4434 -68.1152 C 29.4434 -72.8516 25.6348 -76.6113 20.9473 -76.6113 C 16.2598 -76.6113 12.4512 -72.8516 12.4512 -68.1152 L 12.4512 -3.71094 C 12.4512 1.02539 16.2598 4.78516 20.9473 4.78516 Z"/>
  </g>
  <g id="Black-M" transform="matrix(1 0 0 1 2863.67 1126)">
   <path d="M 73.3398 6.00586 C 79.2969 6.00586 83.252 1.75781 83.252 -3.71094 C 83.252 -7.03125 81.7383 -9.27734 79.7852 -11.1816 L 68.457 -22.2656 L 63.7695 -25.9277 L 74.0234 -25.4883 L 115.967 -25.4883 C 122.607 -25.4883 126.953 -29.5898 126.953 -35.8398 C 126.953 -42.041 122.607 -46.1426 115.967 -46.1426 L 74.0234 -46.1426 L 63.7695 -45.7031 L 68.457 -49.3652 L 79.7852 -60.5469 C 81.7383 -62.4023 83.252 -64.6973 83.252 -67.9688 C 83.252 -73.4375 79.2969 -77.6855 73.3398 -77.6855 C 70.6543 -77.6855 68.0664 -76.5625 65.9668 -74.4629 L 34.9121 -43.3594 C 33.1543 -41.6016 31.9824 -38.5742 31.9824 -35.8398 C 31.9824 -33.0566 33.1543 -30.0293 34.9121 -28.2715 L 65.9668 2.7832 C 68.0664 4.83398 70.6543 6.00586 73.3398 6.00586 Z M 22.2168 6.00586 C 27.5879 6.00586 31.9824 1.61133 31.9824 -3.80859 L 31.9824 -67.9199 C 31.9824 -73.3398 27.5879 -77.6855 22.2168 -77.6855 C 16.8945 -77.6855 12.4512 -73.3398 12.4512 -67.9199 L 12.4512 -3.80859 C 12.4512 1.61133 16.8945 6.00586 22.2168 6.00586 Z"/>
  </g>
  <g id="Ultralight-L" transform="matrix(1 0 0 1 484.516 1556)">
   <path d="M 17.2852 8.30078 C 17.9688 8.30078 18.5059 7.71484 18.5059 7.03125 L 18.5059 -36.3281 C 18.5547 -36.2305 18.6523 -36.1816 18.7012 -36.084 L 62.3535 7.91016 C 62.5977 8.1543 62.8418 8.30078 63.1836 8.30078 C 63.9648 8.30078 64.4531 7.71484 64.4531 7.12891 C 64.4531 6.73828 64.3066 6.34766 64.1602 6.20117 L 34.668 -23.291 L 22.0703 -35.8887 L 35.3516 -35.791 L 133.154 -35.791 C 133.691 -35.791 134.277 -36.2793 134.277 -36.9141 C 134.277 -37.5977 133.691 -38.0371 133.154 -38.0371 L 35.3516 -38.0371 L 22.0703 -37.9395 L 34.668 -50.5859 L 64.1602 -80.0293 C 64.3066 -80.2246 64.4531 -80.6152 64.4531 -80.957 C 64.4531 -81.543 63.9648 -82.1289 63.1836 -82.1289 C 62.8418 -82.1289 62.5977 -82.0312 62.3535 -81.7871 L 18.7012 -37.7441 C 18.6523 -37.6953 18.5547 -37.5977 18.5059 -37.5488 L 18.5059 -80.9082 C 18.5059 -81.543 17.9688 -82.1289 17.2852 -82.1289 C 16.6504 -82.1289 16.0645 -81.543 16.0645 -80.9082 L 16.0645 7.03125 C 16.0645 7.71484 16.6504 8.30078 17.2852 8.30078 Z"/>
  </g>
  <g id="Thin-L" transform="matrix(1 0 0 1 780.128 1556)">
   <path d="M 18.1152 8.83789 C 19.2383 8.83789 20.1172 7.95898 20.1172 6.83594 L 20.1172 -36.084 C 20.2148 -35.8398 20.4102 -35.5957 20.6055 -35.4004 L 63.9648 8.25195 C 64.3555 8.64258 64.7949 8.83789 65.3809 8.83789 C 66.5527 8.83789 67.3828 7.95898 67.3828 6.93359 C 67.3828 6.34766 67.1875 5.76172 66.8945 5.41992 L 40.1855 -21.2891 L 26.0254 -35.0586 L 39.4043 -34.8633 L 134.521 -34.8633 C 135.596 -34.8633 136.475 -35.6934 136.475 -36.8164 C 136.475 -37.9395 135.596 -38.7695 134.521 -38.7695 L 39.4043 -38.7695 L 26.0254 -38.5742 L 40.1855 -52.3438 L 66.8945 -79.1016 C 67.1875 -79.3945 67.3828 -79.9805 67.3828 -80.5664 C 67.3828 -81.6406 66.5527 -82.5195 65.3809 -82.5195 C 64.7949 -82.5195 64.3555 -82.3242 63.9648 -81.8848 L 20.6055 -38.2812 C 20.4102 -38.0859 20.2148 -37.8418 20.1172 -37.5977 L 20.1172 -80.5176 C 20.1172 -81.6406 19.2383 -82.5195 18.1152 -82.5195 C 16.9922 -82.5195 16.0645 -81.6406 16.0645 -80.5176 L 16.0645 6.83594 C 16.0645 7.95898 16.9922 8.83789 18.1152 8.83789 Z"/>
  </g>
  <g id="Light-L" transform="matrix(1 0 0 1 1074.69 1556)">
   <path d="M 19.6777 9.91211 C 21.7285 9.91211 23.2422 8.44727 23.2422 6.44531 L 23.2422 -35.8398 C 23.4375 -35.1562 23.7793 -34.5703 24.3652 -34.0332 L 67.041 8.83789 C 67.8223 9.57031 68.6523 9.91211 69.6289 9.91211 C 71.6309 9.91211 73.1445 8.44727 73.1445 6.49414 C 73.1445 5.51758 72.8027 4.54102 72.2168 3.90625 L 50.9277 -17.4805 L 33.8867 -33.4473 L 47.4121 -33.1055 L 137.305 -33.1055 C 139.307 -33.1055 140.771 -34.6191 140.771 -36.6699 C 140.771 -38.7207 139.307 -40.1855 137.305 -40.1855 L 47.4121 -40.1855 L 33.9355 -39.8438 L 50.9277 -55.8594 L 72.2168 -77.2461 C 72.8027 -77.832 73.1445 -78.8086 73.1445 -79.7852 C 73.1445 -81.7383 71.6309 -83.252 69.6289 -83.252 C 68.6523 -83.252 67.8223 -82.9102 67.041 -82.1289 L 24.3652 -39.3066 C 23.7793 -38.7695 23.4375 -38.1836 23.2422 -37.5 L 23.2422 -79.6875 C 23.2422 -81.7383 21.7285 -83.252 19.6777 -83.252 C 17.627 -83.252 16.0645 -81.7383 16.0645 -79.6875 L 16.0645 6.44531 C 16.0645 8.44727 17.627 9.91211 19.6777 9.91211 Z"/>
  </g>
  <g id="Regular-L" transform="matrix(1 0 0 1 1369.79 1556)">
   <path d="M 20.8496 10.7422 C 23.6328 10.7422 25.6348 8.83789 25.6348 6.10352 L 25.6348 -35.791 C 25.7812 -34.7656 26.3184 -33.7891 27.1973 -33.0078 L 69.3848 9.27734 C 70.459 10.2539 71.582 10.7422 72.8516 10.7422 C 75.4883 10.7422 77.5391 8.78906 77.5391 6.15234 C 77.5391 4.88281 77.0508 3.61328 76.2207 2.7832 L 59.082 -14.5508 L 39.9414 -32.2266 L 53.418 -31.7871 L 139.355 -31.7871 C 142.09 -31.7871 144.043 -33.7891 144.043 -36.5234 C 144.043 -39.3066 142.09 -41.2598 139.355 -41.2598 L 53.418 -41.2598 L 39.9414 -40.8691 L 59.082 -58.4961 L 76.2207 -75.8301 C 77.0508 -76.6602 77.5391 -77.9297 77.5391 -79.1992 C 77.5391 -81.8359 75.4883 -83.7891 72.8516 -83.7891 C 71.582 -83.7891 70.459 -83.3496 69.3848 -82.3242 L 27.1973 -40.0879 C 26.3184 -39.2578 25.7812 -38.3301 25.6348 -37.2559 L 25.6348 -79.0527 C 25.6348 -81.8359 23.6328 -83.7891 20.8496 -83.7891 C 18.1152 -83.7891 16.0645 -81.8359 16.0645 -79.0527 L 16.0645 6.10352 C 16.0645 8.83789 18.1152 10.7422 20.8496 10.7422 Z"/>
  </g>
  <g id="Medium-L" transform="matrix(1 0 0 1 1665.09 1556)">
   <path d="M 21.9727 11.7188 C 25.293 11.7188 27.832 9.32617 27.832 6.00586 L 27.832 -35.6934 C 28.0273 -34.3262 28.6621 -33.0566 29.6875 -32.0312 L 71.6309 9.86328 C 72.9004 11.1328 74.3164 11.7188 75.9277 11.7188 C 79.248 11.7188 81.7383 9.27734 81.7383 6.00586 C 81.7383 4.3457 81.0547 2.83203 79.9805 1.75781 L 63.5742 -14.7949 L 45.7031 -31.0059 L 59.3262 -30.5176 L 140.869 -30.5176 C 144.385 -30.5176 146.875 -32.959 146.875 -36.4746 C 146.875 -39.9414 144.385 -42.3828 140.869 -42.3828 L 59.3262 -42.3828 L 45.752 -41.9434 L 63.5742 -58.1055 L 79.9805 -74.707 C 81.0547 -75.7324 81.7383 -77.2461 81.7383 -78.9551 C 81.7383 -82.1777 79.248 -84.6191 75.9277 -84.6191 C 74.3164 -84.6191 72.9004 -84.0332 71.6309 -82.8125 L 29.6875 -40.8691 C 28.6621 -39.8438 28.0273 -38.5742 27.832 -37.207 L 27.832 -78.8086 C 27.832 -82.1777 25.293 -84.6191 21.9727 -84.6191 C 18.6035 -84.6191 16.0645 -82.1777 16.0645 -78.8086 L 16.0645 6.00586 C 16.0645 9.32617 18.6035 11.7188 21.9727 11.7188 Z"/>
  </g>
  <g id="Semibold-L" transform="matrix(1 0 0 1 1960.72 1556)">
   <path d="M 22.8027 12.5 C 26.6113 12.5 29.541 9.66797 29.541 5.9082 L 29.541 -35.6445 C 29.6875 -34.0332 30.4688 -32.4707 31.6406 -31.2988 L 73.291 10.3516 C 74.8047 11.7676 76.4648 12.5 78.2715 12.5 C 82.1289 12.5 84.9609 9.66797 84.9609 5.9082 C 84.9609 3.95508 84.1309 2.24609 82.8613 1.02539 L 66.9434 -14.9902 L 50.1465 -30.0293 L 63.8184 -29.541 L 141.992 -29.541 C 146.143 -29.541 149.023 -32.3242 149.023 -36.377 C 149.023 -40.4785 146.143 -43.2617 141.992 -43.2617 L 63.8184 -43.2617 L 50.1953 -42.7734 L 66.9434 -57.7637 L 82.8613 -73.8281 C 84.1309 -75.0488 84.9609 -76.7578 84.9609 -78.7109 C 84.9609 -82.4707 82.1289 -85.3027 78.2715 -85.3027 C 76.4648 -85.3027 74.8047 -84.5703 73.291 -83.1543 L 31.6406 -41.4551 C 30.4688 -40.332 29.6875 -38.7695 29.541 -37.1582 L 29.541 -78.6133 C 29.541 -82.4219 26.6113 -85.3027 22.8027 -85.3027 C 18.9941 -85.3027 16.0645 -82.4219 16.0645 -78.6133 L 16.0645 5.9082 C 16.0645 9.66797 18.9941 12.5 22.8027 12.5 Z"/>
  </g>
  <g id="Bold-L" transform="matrix(1 0 0 1 2256.02 1556)">
   <path d="M 23.9258 13.4766 C 28.3203 13.4766 31.7383 10.1562 31.7383 5.76172 L 31.7383 -35.5957 C 31.9336 -33.6426 32.8125 -31.6895 34.1797 -30.3223 L 75.5371 10.9863 C 77.2461 12.6465 79.248 13.4766 81.3477 13.4766 C 85.9375 13.4766 89.209 10.1562 89.209 5.81055 C 89.209 3.41797 88.1836 1.46484 86.6699 0 L 71.4844 -15.2344 L 56.1035 -28.7598 L 69.8242 -28.2227 L 143.506 -28.2227 C 148.486 -28.2227 151.855 -31.4941 151.855 -36.3281 C 151.855 -41.1133 148.486 -44.3848 143.506 -44.3848 L 69.8242 -44.3848 L 56.1035 -43.8477 L 71.4844 -57.373 L 86.6699 -72.6562 C 88.1836 -74.1211 89.209 -76.0742 89.209 -78.4668 C 89.209 -82.8125 85.9375 -86.1328 81.3477 -86.1328 C 79.248 -86.1328 77.2461 -85.3027 75.5371 -83.6426 L 34.1797 -42.2852 C 32.8125 -40.918 31.9336 -38.9648 31.7383 -37.0117 L 31.7383 -78.3203 C 31.7383 -82.7637 28.3203 -86.1328 23.9258 -86.1328 C 19.5312 -86.1328 16.0645 -82.7637 16.0645 -78.3203 L 16.0645 5.76172 C 16.0645 10.1562 19.5312 13.4766 23.9258 13.4766 Z"/>
  </g>
  <g id="Heavy-L" transform="matrix(1 0 0 1 2550.65 1556)">
   <path d="M 25.5371 14.9414 C 30.8105 14.9414 35.0098 10.8398 35.0098 5.56641 L 35.0098 -35.6445 C 35.1074 -33.1543 36.1816 -30.6152 37.8906 -28.9551 L 78.8086 11.8652 C 80.8594 13.916 83.252 14.9414 85.8398 14.9414 C 91.4551 14.9414 95.3613 10.9375 95.3613 5.61523 C 95.3613 2.63672 94.043 0.341797 92.1875 -1.41602 L 77.9785 -15.625 L 64.7461 -26.9043 L 78.4668 -26.3184 L 145.703 -26.3184 C 151.855 -26.3184 155.957 -30.2734 155.957 -36.1816 C 155.957 -42.0898 151.855 -46.0449 145.703 -46.0449 L 78.4668 -46.0449 L 64.7949 -45.459 L 77.9785 -56.7383 L 92.1875 -70.9961 C 94.043 -72.8027 95.3613 -75.0488 95.3613 -78.0273 C 95.3613 -83.3496 91.4551 -87.3535 85.8398 -87.3535 C 83.252 -87.3535 80.8594 -86.3281 78.8086 -84.3262 L 37.8906 -43.457 C 36.1816 -41.748 35.1074 -39.209 35.0098 -36.7188 L 35.0098 -77.9297 C 35.0098 -83.252 30.8105 -87.3535 25.5371 -87.3535 C 20.2637 -87.3535 16.0645 -83.252 16.0645 -77.9297 L 16.0645 5.56641 C 16.0645 10.8398 20.2637 14.9414 25.5371 14.9414 Z"/>
  </g>
  <g id="Black-L" transform="matrix(1 0 0 1 2845.53 1556)">
   <path d="M 89.8926 16.2598 C 96.3867 16.2598 100.83 11.5723 100.83 5.46875 C 100.83 1.95312 99.2676 -0.634766 97.1191 -2.73438 L 83.8379 -15.9668 L 72.6074 -25.2441 L 86.1816 -24.6582 L 147.656 -24.6582 C 154.883 -24.6582 159.668 -29.1992 159.668 -36.084 C 159.668 -42.9199 154.883 -47.5098 147.656 -47.5098 L 86.1816 -47.5098 L 72.6562 -46.875 L 83.8379 -56.2012 L 97.1191 -69.4824 C 99.2676 -71.582 100.83 -74.1699 100.83 -77.6855 C 100.83 -83.7891 96.3867 -88.4766 89.8926 -88.4766 C 86.8652 -88.4766 84.0332 -87.2559 81.6895 -84.9121 L 41.2109 -44.4824 C 39.1602 -42.4316 37.8906 -39.1602 37.8906 -36.084 C 37.8906 -33.0078 39.1602 -29.7363 41.2109 -27.6855 L 81.6895 12.6953 C 84.0332 15.0391 86.8652 16.2598 89.8926 16.2598 Z M 27.002 16.2598 C 33.0078 16.2598 37.8906 11.4746 37.8906 5.41992 L 37.8906 -77.5879 C 37.8906 -83.6914 33.0078 -88.4766 27.002 -88.4766 C 20.9473 -88.4766 16.0645 -83.6914 16.0645 -77.5879 L 16.0645 5.41992 C 16.0645 11.4746 20.9473 16.2598 27.002 16.2598 Z"/>
  </g>
 </g>
</svg>
