<?xml version="1.0" encoding="UTF-8"?>
<!--Generator: Apple Native CoreSVG 123-->
<!DOCTYPE svg
PUBLIC "-//W3C//DTD SVG 1.1//EN"
       "http://www.w3.org/Graphics/SVG/1.1/DTD/svg11.dtd">
<svg version="1.1" xmlns="http://www.w3.org/2000/svg" xmlns:xlink="http://www.w3.org/1999/xlink" width="3300" height="2200">
 <!--glyph: "uni10065E.medium", point size: 100.000000, font version: "Version 15.0d4e20", template writer version: "2"-->
 <g id="Notes">
  <rect height="2200" id="artboard" style="fill:white;opacity:1" width="3300" x="0" y="0"/>
  <line id="" style="fill:none;stroke:black;opacity:1;stroke-width:0.5;" x1="263" x2="3036" y1="292" y2="292"/>
  <text style="stroke:none;fill:black;font-family:-apple-system,&quot;SF Pro Display&quot;,&quot;SF Pro Text&quot;,Helvetica,sans-serif;font-weight:bold;" transform="matrix(1 0 0 1 263 322)">Weight/Scale Variations</text>
  <text style="stroke:none;fill:black;font-family:-apple-system,&quot;SF Pro Display&quot;,&quot;SF Pro Text&quot;,Helvetica,sans-serif;text-anchor:middle;" transform="matrix(1 0 0 1 559.711 322)">Ultralight</text>
  <text style="stroke:none;fill:black;font-family:-apple-system,&quot;SF Pro Display&quot;,&quot;SF Pro Text&quot;,Helvetica,sans-serif;text-anchor:middle;" transform="matrix(1 0 0 1 856.422 322)">Thin</text>
  <text style="stroke:none;fill:black;font-family:-apple-system,&quot;SF Pro Display&quot;,&quot;SF Pro Text&quot;,Helvetica,sans-serif;text-anchor:middle;" transform="matrix(1 0 0 1 1153.13 322)">Light</text>
  <text style="stroke:none;fill:black;font-family:-apple-system,&quot;SF Pro Display&quot;,&quot;SF Pro Text&quot;,Helvetica,sans-serif;text-anchor:middle;" transform="matrix(1 0 0 1 1449.84 322)">Regular</text>
  <text style="stroke:none;fill:black;font-family:-apple-system,&quot;SF Pro Display&quot;,&quot;SF Pro Text&quot;,Helvetica,sans-serif;text-anchor:middle;" transform="matrix(1 0 0 1 1746.56 322)">Medium</text>
  <text style="stroke:none;fill:black;font-family:-apple-system,&quot;SF Pro Display&quot;,&quot;SF Pro Text&quot;,Helvetica,sans-serif;text-anchor:middle;" transform="matrix(1 0 0 1 2043.27 322)">Semibold</text>
  <text style="stroke:none;fill:black;font-family:-apple-system,&quot;SF Pro Display&quot;,&quot;SF Pro Text&quot;,Helvetica,sans-serif;text-anchor:middle;" transform="matrix(1 0 0 1 2339.98 322)">Bold</text>
  <text style="stroke:none;fill:black;font-family:-apple-system,&quot;SF Pro Display&quot;,&quot;SF Pro Text&quot;,Helvetica,sans-serif;text-anchor:middle;" transform="matrix(1 0 0 1 2636.69 322)">Heavy</text>
  <text style="stroke:none;fill:black;font-family:-apple-system,&quot;SF Pro Display&quot;,&quot;SF Pro Text&quot;,Helvetica,sans-serif;text-anchor:middle;" transform="matrix(1 0 0 1 2933.4 322)">Black</text>
  <line id="" style="fill:none;stroke:black;opacity:1;stroke-width:0.5;" x1="263" x2="3036" y1="1903" y2="1903"/>
  <g id="" transform="matrix(1 0 0 1 263 1933)">
   <path d="M 9.24805 0.830078 C 13.5547 0.830078 17.1387 -2.74414 17.1387 -7.05078 C 17.1387 -11.3574 13.5449 -14.9316 9.23828 -14.9316 C 4.94141 -14.9316 1.36719 -11.3574 1.36719 -7.05078 C 1.36719 -2.74414 4.95117 0.830078 9.24805 0.830078 Z M 9.24805 -0.654297 C 5.70312 -0.654297 2.87109 -3.49609 2.87109 -7.05078 C 2.87109 -10.6055 5.69336 -13.4473 9.23828 -13.4473 C 12.793 -13.4473 15.6348 -10.6055 15.6445 -7.05078 C 15.6543 -3.49609 12.8027 -0.654297 9.24805 -0.654297 Z M 9.22852 -3.42773 C 9.69727 -3.42773 9.9707 -3.74023 9.9707 -4.25781 L 9.9707 -6.31836 L 12.1973 -6.31836 C 12.6953 -6.31836 13.0371 -6.57227 13.0371 -7.04102 C 13.0371 -7.51953 12.7148 -7.7832 12.1973 -7.7832 L 9.9707 -7.7832 L 9.9707 -10.0098 C 9.9707 -10.5273 9.69727 -10.8496 9.22852 -10.8496 C 8.75977 -10.8496 8.50586 -10.5078 8.50586 -10.0098 L 8.50586 -7.7832 L 6.29883 -7.7832 C 5.78125 -7.7832 5.44922 -7.51953 5.44922 -7.04102 C 5.44922 -6.57227 5.80078 -6.31836 6.29883 -6.31836 L 8.50586 -6.31836 L 8.50586 -4.25781 C 8.50586 -3.75977 8.75977 -3.42773 9.22852 -3.42773 Z"/>
  </g>
  <g id="" transform="matrix(1 0 0 1 281.506 1933)">
   <path d="M 11.709 2.91016 C 17.1484 2.91016 21.6699 -1.60156 21.6699 -7.05078 C 21.6699 -12.4902 17.1387 -17.0117 11.6992 -17.0117 C 6.25 -17.0117 1.74805 -12.4902 1.74805 -7.05078 C 1.74805 -1.60156 6.25977 2.91016 11.709 2.91016 Z M 11.709 1.25 C 7.09961 1.25 3.41797 -2.44141 3.41797 -7.05078 C 3.41797 -11.6504 7.08984 -15.3516 11.6992 -15.3516 C 16.2988 -15.3516 20 -11.6504 20.0098 -7.05078 C 20.0195 -2.44141 16.3086 1.25 11.709 1.25 Z M 11.6797 -2.41211 C 12.207 -2.41211 12.5195 -2.77344 12.5195 -3.33984 L 12.5195 -6.23047 L 15.5762 -6.23047 C 16.123 -6.23047 16.5039 -6.51367 16.5039 -7.03125 C 16.5039 -7.55859 16.1426 -7.86133 15.5762 -7.86133 L 12.5195 -7.86133 L 12.5195 -10.9277 C 12.5195 -11.5039 12.207 -11.8555 11.6797 -11.8555 C 11.1621 -11.8555 10.8789 -11.4844 10.8789 -10.9277 L 10.8789 -7.86133 L 7.83203 -7.86133 C 7.25586 -7.86133 6.89453 -7.55859 6.89453 -7.03125 C 6.89453 -6.51367 7.28516 -6.23047 7.83203 -6.23047 L 10.8789 -6.23047 L 10.8789 -3.33984 C 10.8789 -2.79297 11.1621 -2.41211 11.6797 -2.41211 Z"/>
  </g>
  <g id="" transform="matrix(1 0 0 1 304.914 1933)">
   <path d="M 14.9707 5.67383 C 21.9336 5.67383 27.6855 -0.078125 27.6855 -7.04102 C 27.6855 -14.0039 21.9238 -19.7559 14.9609 -19.7559 C 7.99805 -19.7559 2.25586 -14.0039 2.25586 -7.04102 C 2.25586 -0.078125 8.00781 5.67383 14.9707 5.67383 Z M 14.9707 3.85742 C 8.92578 3.85742 4.08203 -1.00586 4.08203 -7.04102 C 4.08203 -13.0762 8.91602 -17.9395 14.9609 -17.9395 C 20.9961 -17.9395 25.8594 -13.0762 25.8691 -7.04102 C 25.8789 -1.00586 21.0059 3.85742 14.9707 3.85742 Z M 14.9414 -1.06445 C 15.5176 -1.06445 15.8594 -1.45508 15.8594 -2.06055 L 15.8594 -6.13281 L 20.0977 -6.13281 C 20.6934 -6.13281 21.1133 -6.46484 21.1133 -7.02148 C 21.1133 -7.59766 20.7227 -7.93945 20.0977 -7.93945 L 15.8594 -7.93945 L 15.8594 -12.1875 C 15.8594 -12.8027 15.5176 -13.1934 14.9414 -13.1934 C 14.3848 -13.1934 14.0625 -12.7832 14.0625 -12.1875 L 14.0625 -7.93945 L 9.82422 -7.93945 C 9.20898 -7.93945 8.80859 -7.59766 8.80859 -7.02148 C 8.80859 -6.46484 9.23828 -6.13281 9.82422 -6.13281 L 14.0625 -6.13281 L 14.0625 -2.06055 C 14.0625 -1.47461 14.3848 -1.06445 14.9414 -1.06445 Z"/>
  </g>
  <text style="stroke:none;fill:black;font-family:-apple-system,&quot;SF Pro Display&quot;,&quot;SF Pro Text&quot;,Helvetica,sans-serif;font-weight:bold;" transform="matrix(1 0 0 1 263 1953)">Design Variations</text>
  <text style="stroke:none;fill:black;font-family:-apple-system,&quot;SF Pro Display&quot;,&quot;SF Pro Text&quot;,Helvetica,sans-serif;" transform="matrix(1 0 0 1 263 1971)">Symbols are supported in up to nine weights and three scales.</text>
  <text style="stroke:none;fill:black;font-family:-apple-system,&quot;SF Pro Display&quot;,&quot;SF Pro Text&quot;,Helvetica,sans-serif;" transform="matrix(1 0 0 1 263 1989)">For optimal layout with text and other symbols, vertically align</text>
  <text style="stroke:none;fill:black;font-family:-apple-system,&quot;SF Pro Display&quot;,&quot;SF Pro Text&quot;,Helvetica,sans-serif;" transform="matrix(1 0 0 1 263 2007)">symbols with the adjacent text.</text>
  <rect height="14" id="" style="fill:#00AEEF;stroke:none;opacity:0.4;" width="3" x="776" y="1919"/>
  <g id="" transform="matrix(1 0 0 1 779 1933)">
   <path d="M 10.5273 0 L 12.373 0 L 7.17773 -14.0918 L 5.43945 -14.0918 L 0.244141 0 L 2.08984 0 L 3.50586 -4.0332 L 9.11133 -4.0332 Z M 6.2793 -11.9531 L 6.33789 -11.9531 L 8.59375 -5.52734 L 4.02344 -5.52734 Z"/>
  </g>
  <rect height="14" id="" style="fill:#00AEEF;stroke:none;opacity:0.4;" width="3" x="791.617" y="1919"/>
  <text style="stroke:none;fill:black;font-family:-apple-system,&quot;SF Pro Display&quot;,&quot;SF Pro Text&quot;,Helvetica,sans-serif;font-weight:bold;" transform="matrix(1 0 0 1 776 1953)">Side Bearings</text>
  <text style="stroke:none;fill:black;font-family:-apple-system,&quot;SF Pro Display&quot;,&quot;SF Pro Text&quot;,Helvetica,sans-serif;" transform="matrix(1 0 0 1 776 1971)">Horizontal padding on the left and right side of each symbol</text>
  <text style="stroke:none;fill:black;font-family:-apple-system,&quot;SF Pro Display&quot;,&quot;SF Pro Text&quot;,Helvetica,sans-serif;" transform="matrix(1 0 0 1 776 1989)">can be adjusted by modifying the width of the blue rectangles.</text>
  <text style="stroke:none;fill:black;font-family:-apple-system,&quot;SF Pro Display&quot;,&quot;SF Pro Text&quot;,Helvetica,sans-serif;" transform="matrix(1 0 0 1 776 2007)">Modifications are automatically applied proportionally to all</text>
  <text style="stroke:none;fill:black;font-family:-apple-system,&quot;SF Pro Display&quot;,&quot;SF Pro Text&quot;,Helvetica,sans-serif;" transform="matrix(1 0 0 1 776 2025)">scales and weights.</text>
  <g id="" transform="matrix(1 0 0 1 1289 1933)">
   <path d="M 2.96875 2.35352 L 3.80859 3.19336 C 4.84375 4.22852 6.12305 4.15039 7.19727 2.97852 L 16.1621 -6.82617 C 16.5527 -6.74805 16.9629 -6.8457 17.4902 -7.02148 C 18.1738 -7.25586 18.2715 -7.25586 18.3887 -7.13867 C 18.5352 -7.01172 18.4863 -6.89453 18.2422 -6.25 C 17.8809 -5.33203 17.8125 -4.79492 18.5547 -4.02344 L 19.4238 -3.13477 C 20.2734 -2.24609 21.3281 -2.26562 22.2168 -3.14453 L 25.0586 -5.97656 C 25.9473 -6.86523 25.957 -7.92969 25.0781 -8.7793 L 24.1797 -9.64844 C 23.4082 -10.4004 22.8711 -10.3516 21.9629 -9.98047 C 21.3184 -9.72656 21.2012 -9.6875 21.0645 -9.81445 C 20.9375 -9.93164 20.9473 -10.0391 21.1816 -10.7129 C 21.5332 -11.6895 21.5723 -12.2852 20.752 -13.0957 L 19.3359 -14.5117 C 15.1953 -18.6133 11.2305 -18.7402 7.65625 -15.4395 C 7.08008 -14.9023 6.99219 -14.1504 7.53906 -13.6133 L 7.79297 -13.3594 C 8.22266 -12.9297 8.86719 -12.8418 9.41406 -13.1152 C 11.0645 -13.9453 12.2559 -14.0234 13.457 -12.9785 L 13.0273 -11.416 C 12.8516 -10.8008 12.793 -10.3418 12.9199 -9.93164 L 3.18359 -1.04492 C 2.02148 0.0292969 1.93359 1.32812 2.96875 2.35352 Z M 8.96484 -14.4922 C 8.89648 -14.5703 8.86719 -14.6582 8.99414 -14.7559 C 11.709 -17.2852 15.0391 -16.8457 18.3496 -13.5254 L 19.6973 -12.168 C 20.0879 -11.7773 20.0977 -11.582 19.8828 -10.8691 C 19.6582 -10.127 19.502 -9.53125 20.1465 -8.88672 C 20.8105 -8.22266 21.2891 -8.41797 22.207 -8.63281 C 22.9004 -8.79883 23.0664 -8.79883 23.4473 -8.41797 L 24.0918 -7.77344 C 24.4043 -7.48047 24.4141 -7.32422 24.0723 -6.97266 L 21.2207 -4.13086 C 20.8887 -3.79883 20.7227 -3.79883 20.4297 -4.10156 L 19.7852 -4.75586 C 19.4141 -5.13672 19.4141 -5.30273 19.5801 -6.01562 C 19.7852 -6.88477 19.9805 -7.38281 19.3262 -8.04688 C 18.6719 -8.7207 18.0762 -8.57422 17.3438 -8.33008 C 16.5625 -8.06641 16.3281 -8.06641 15.8984 -8.49609 L 14.6094 -9.78516 C 14.1699 -10.2246 14.1309 -10.4395 14.2676 -10.9082 L 15.0293 -13.3984 C 13.3887 -15.2832 11.4941 -15.5566 9.20898 -14.4434 C 9.11133 -14.3945 9.04297 -14.4141 8.96484 -14.4922 Z M 3.96484 1.36719 C 3.52539 0.927734 3.54492 0.537109 4.14062 -0.00976562 L 13.7402 -8.81836 L 15 -7.55859 L 6.17188 2.02148 C 5.625 2.60742 5.24414 2.64648 4.79492 2.19727 Z"/>
  </g>
  <text style="stroke:none;fill:black;font-family:-apple-system,&quot;SF Pro Display&quot;,&quot;SF Pro Text&quot;,Helvetica,sans-serif;font-weight:bold;" transform="matrix(1 0 0 1 1289 1953)">Exporting</text>
  <text style="stroke:none;fill:black;font-family:-apple-system,&quot;SF Pro Display&quot;,&quot;SF Pro Text&quot;,Helvetica,sans-serif;" transform="matrix(1 0 0 1 1289 1971)">Symbols should be outlined when exporting to ensure the</text>
  <text style="stroke:none;fill:black;font-family:-apple-system,&quot;SF Pro Display&quot;,&quot;SF Pro Text&quot;,Helvetica,sans-serif;" transform="matrix(1 0 0 1 1289 1989)">design is preserved when submitting to Xcode.</text>
  <text id="template-version" style="stroke:none;fill:black;font-family:-apple-system,&quot;SF Pro Display&quot;,&quot;SF Pro Text&quot;,Helvetica,sans-serif;text-anchor:end;" transform="matrix(1 0 0 1 3036 1933)">Template v.0.1</text>
  <text style="stroke:none;fill:black;font-family:-apple-system,&quot;SF Pro Display&quot;,&quot;SF Pro Text&quot;,Helvetica,sans-serif;text-anchor:end;" transform="matrix(1 0 0 1 3036 1951)">Generated from arrow.up.right.diamond</text>
  <text style="stroke:none;fill:black;font-family:-apple-system,&quot;SF Pro Display&quot;,&quot;SF Pro Text&quot;,Helvetica,sans-serif;text-anchor:end;" transform="matrix(1 0 0 1 3036 1969)">Typeset at 100 points</text>
  <text style="stroke:none;fill:black;font-family:-apple-system,&quot;SF Pro Display&quot;,&quot;SF Pro Text&quot;,Helvetica,sans-serif;" transform="matrix(1 0 0 1 263 726)">Small</text>
  <text style="stroke:none;fill:black;font-family:-apple-system,&quot;SF Pro Display&quot;,&quot;SF Pro Text&quot;,Helvetica,sans-serif;" transform="matrix(1 0 0 1 263 1156)">Medium</text>
  <text style="stroke:none;fill:black;font-family:-apple-system,&quot;SF Pro Display&quot;,&quot;SF Pro Text&quot;,Helvetica,sans-serif;" transform="matrix(1 0 0 1 263 1586)">Large</text>
 </g>
 <g id="Guides">
  <g id="H-reference" style="fill:#27AAE1;stroke:none;" transform="matrix(1 0 0 1 339 696)">
   <path d="M 54.9316 0 L 57.666 0 L 30.5664 -70.459 L 28.0762 -70.459 L 0.976562 0 L 3.66211 0 L 12.9395 -24.4629 L 45.7031 -24.4629 Z M 29.1992 -67.0898 L 29.4434 -67.0898 L 44.8242 -26.709 L 13.8184 -26.709 Z"/>
  </g>
  <line id="Baseline-S" style="fill:none;stroke:#27AAE1;opacity:1;stroke-width:0.577;" x1="263" x2="3036" y1="696" y2="696"/>
  <line id="Capline-S" style="fill:none;stroke:#27AAE1;opacity:1;stroke-width:0.577;" x1="263" x2="3036" y1="625.541" y2="625.541"/>
  <g id="H-reference" style="fill:#27AAE1;stroke:none;" transform="matrix(1 0 0 1 339 1126)">
   <path d="M 54.9316 0 L 57.666 0 L 30.5664 -70.459 L 28.0762 -70.459 L 0.976562 0 L 3.66211 0 L 12.9395 -24.4629 L 45.7031 -24.4629 Z M 29.1992 -67.0898 L 29.4434 -67.0898 L 44.8242 -26.709 L 13.8184 -26.709 Z"/>
  </g>
  <line id="Baseline-M" style="fill:none;stroke:#27AAE1;opacity:1;stroke-width:0.577;" x1="263" x2="3036" y1="1126" y2="1126"/>
  <line id="Capline-M" style="fill:none;stroke:#27AAE1;opacity:1;stroke-width:0.577;" x1="263" x2="3036" y1="1055.54" y2="1055.54"/>
  <g id="H-reference" style="fill:#27AAE1;stroke:none;" transform="matrix(1 0 0 1 339 1556)">
   <path d="M 54.9316 0 L 57.666 0 L 30.5664 -70.459 L 28.0762 -70.459 L 0.976562 0 L 3.66211 0 L 12.9395 -24.4629 L 45.7031 -24.4629 Z M 29.1992 -67.0898 L 29.4434 -67.0898 L 44.8242 -26.709 L 13.8184 -26.709 Z"/>
  </g>
  <line id="Baseline-L" style="fill:none;stroke:#27AAE1;opacity:1;stroke-width:0.577;" x1="263" x2="3036" y1="1556" y2="1556"/>
  <line id="Capline-L" style="fill:none;stroke:#27AAE1;opacity:1;stroke-width:0.577;" x1="263" x2="3036" y1="1485.54" y2="1485.54"/>
  <rect height="119.336" id="left-margin" style="fill:#00AEEF;stroke:none;opacity:0.4;" width="9.96028" x="1385.81" y="1030.79"/>
  <rect height="119.336" id="right-margin" style="fill:#00AEEF;stroke:none;opacity:0.4;" width="9.991" x="1503.89" y="1030.79"/>
 </g>
 <g id="Symbols">
  <g id="Ultralight-S" transform="matrix(1 0 0 1 509.638 696)">
   <path d="M 56.2012 -74.8047 C 52.4902 -78.4668 47.3633 -78.3203 43.75 -74.707 L 10.5469 -41.6016 C 6.93359 -37.9395 6.88477 -32.7637 10.498 -29.1016 L 43.9453 4.29688 C 47.6562 7.95898 52.7832 7.86133 56.4453 4.19922 L 89.5996 -28.9551 C 93.2617 -32.6172 93.3105 -37.793 89.6484 -41.4551 Z M 55.1758 -72.8027 L 87.6953 -40.4297 C 90.7227 -37.3535 90.7715 -33.1543 87.7441 -30.0781 L 55.3223 2.39258 C 52.1973 5.46875 48.0957 5.41992 44.9707 2.34375 L 12.5 -30.127 C 9.42383 -33.1543 9.375 -37.4023 12.4512 -40.4785 L 44.873 -72.9004 C 47.9004 -75.9277 52.1484 -75.8789 55.1758 -72.8027 Z M 69.1895 -40.9668 C 70.2637 -41.8945 70.2637 -43.2129 69.1895 -44.0918 L 61.0352 -50.6836 C 59.9609 -51.5137 58.252 -51.1719 58.252 -49.5117 L 58.252 -43.6523 L 45.3125 -43.6523 C 39.1602 -43.6523 36.4746 -40.8691 36.4746 -34.4238 L 36.4746 -20.5566 C 36.4746 -19.873 36.8652 -19.3359 37.5 -19.3359 C 38.1836 -19.3359 38.5742 -19.873 38.5742 -20.5566 L 38.5742 -34.4238 C 38.5742 -39.5996 40.4297 -41.4062 45.4102 -41.4551 L 58.252 -41.5039 L 58.252 -35.5957 C 58.252 -33.9355 59.9609 -33.5449 61.0352 -34.4238 Z"/>
  </g>
  <g id="Thin-S" transform="matrix(1 0 0 1 806.325 696)">
   <path d="M 56.7871 -74.5605 C 52.7832 -78.5645 47.168 -78.4668 43.2129 -74.4629 L 10.8398 -42.1387 C 6.83594 -38.1836 6.78711 -32.5195 10.7422 -28.5645 L 43.4082 4.10156 C 47.4121 8.05664 53.0273 7.95898 56.9824 4.00391 L 89.4043 -28.418 C 93.3594 -32.373 93.4082 -38.0371 89.4531 -41.9922 Z M 54.9316 -71.875 L 86.7188 -40.1367 C 89.5996 -37.2559 89.6484 -33.252 86.7676 -30.3711 L 55.0293 1.41602 C 52.0996 4.3457 48.1934 4.29688 45.2637 1.36719 L 13.4766 -30.4199 C 10.5957 -33.252 10.5469 -37.2559 13.4277 -40.1367 L 45.166 -71.9238 C 48.0469 -74.8047 52.0508 -74.707 54.9316 -71.875 Z M 69.1406 -40.3809 C 70.6055 -41.5527 70.6055 -43.1641 69.1406 -44.3359 L 60.7422 -51.0254 C 59.4238 -52.0508 57.5195 -51.5137 57.5195 -49.6094 L 57.5195 -43.9941 L 45.2148 -43.9941 C 38.6719 -43.9941 35.7422 -41.0156 35.7422 -34.3262 L 35.7422 -21.582 C 35.7422 -20.459 36.3281 -19.7266 37.3535 -19.7266 C 38.4277 -19.7754 39.0137 -20.459 39.0137 -21.582 L 39.0137 -34.2285 C 39.0137 -38.916 40.7715 -40.6738 45.2637 -40.7227 L 57.5195 -40.7715 L 57.5195 -35.1074 C 57.5195 -33.2031 59.4238 -32.666 60.7422 -33.6914 Z"/>
  </g>
  <g id="Light-S" transform="matrix(1 0 0 1 1102.99 696)">
   <path d="M 57.9102 -74.1699 C 53.2715 -78.7598 46.7773 -78.6133 42.1875 -74.0234 L 11.3281 -43.2129 C 6.68945 -38.5742 6.5918 -32.0312 11.2305 -27.4414 L 42.334 3.66211 C 46.9727 8.30078 53.5156 8.20312 58.1055 3.56445 L 88.9648 -27.2949 C 93.6035 -31.8848 93.6523 -38.4277 89.0625 -43.0664 Z M 54.4434 -69.9707 L 84.9121 -39.5996 C 87.5 -37.0605 87.5 -33.4961 84.9609 -30.957 L 54.4434 -0.390625 C 51.9043 2.14844 48.3887 2.09961 45.8496 -0.439453 L 15.3809 -30.9082 C 12.8418 -33.4473 12.7441 -37.0117 15.2832 -39.5508 L 45.8008 -70.0684 C 48.3398 -72.6074 51.9043 -72.5098 54.4434 -69.9707 Z M 69.043 -39.2578 C 71.1914 -40.9668 71.1914 -43.0664 69.043 -44.7266 L 60.2051 -51.709 C 58.3984 -53.0762 56.0059 -52.1484 56.0059 -49.8047 L 56.0059 -44.7266 L 45.0195 -44.7266 C 37.793 -44.7266 34.4238 -41.3086 34.4238 -34.1309 L 34.4238 -23.584 C 34.4238 -21.6309 35.4004 -20.5078 37.1094 -20.5566 C 38.8184 -20.5566 39.7949 -21.6309 39.7949 -23.584 L 39.7949 -33.8867 C 39.7949 -37.6465 41.5039 -39.2578 45.1172 -39.3066 L 56.0059 -39.3066 L 56.0059 -34.2285 C 56.0059 -31.8848 58.3984 -30.9082 60.2051 -32.3242 Z"/>
  </g>
  <g id="Regular-S" transform="matrix(1 0 0 1 1399.65 696)">
   <path d="M 58.7891 -73.8281 C 53.7109 -78.9062 46.4844 -78.7598 41.4062 -73.6816 L 11.7188 -43.9941 C 6.5918 -38.916 6.44531 -31.6895 11.5723 -26.6113 L 41.5527 3.36914 C 46.6309 8.44727 53.8574 8.34961 58.9355 3.27148 L 88.6719 -26.4648 C 93.75 -31.543 93.8477 -38.7695 88.7695 -43.8477 Z M 54.1016 -68.5547 L 83.5449 -39.1602 C 85.8887 -36.9141 85.8887 -33.6426 83.5938 -31.3477 L 54.0527 -1.80664 C 51.7578 0.488281 48.5352 0.439453 46.2402 -1.85547 L 16.8457 -31.2988 C 14.5508 -33.5938 14.4531 -36.8164 16.748 -39.1113 L 46.2891 -68.6523 C 48.584 -70.9473 51.8066 -70.8008 54.1016 -68.5547 Z M 68.9941 -38.4277 C 71.6309 -40.5273 71.6309 -42.9688 68.9941 -45.0684 L 59.7656 -52.1973 C 57.666 -53.8574 54.8828 -52.6367 54.8828 -49.9512 L 54.8828 -45.2637 L 44.873 -45.2637 C 37.1094 -45.2637 33.3984 -41.5527 33.3984 -33.9844 L 33.3984 -25.0977 C 33.3984 -22.5586 34.668 -21.0938 36.9141 -21.1426 C 39.1602 -21.1914 40.4297 -22.5586 40.4297 -25.0977 L 40.4297 -33.5938 C 40.4297 -36.6699 42.041 -38.2324 44.9707 -38.2324 L 54.8828 -38.2324 L 54.8828 -33.4961 C 54.8828 -30.8594 57.666 -29.6387 59.7656 -31.2988 Z"/>
  </g>
  <g id="Medium-S" transform="matrix(1 0 0 1 1696.04 696)">
   <path d="M 59.2285 -74.0723 C 54.0527 -79.248 46.875 -79.1992 41.6504 -73.9258 L 11.8164 -44.0918 C 6.54297 -38.8672 6.44531 -31.6895 11.6699 -26.5137 L 41.7969 3.61328 C 46.9727 8.78906 54.1016 8.74023 59.375 3.51562 L 89.2578 -26.3672 C 94.4824 -31.5918 94.5312 -38.7695 89.3555 -43.9453 Z M 54.0039 -67.5293 L 82.8125 -38.7207 C 84.9609 -36.6699 84.9121 -33.7402 82.8613 -31.6406 L 54.1016 -2.88086 C 52.002 -0.78125 49.1211 -0.830078 47.0215 -2.92969 L 18.2129 -31.7383 C 16.1621 -33.7891 16.0645 -36.7188 18.1641 -38.8184 L 46.9238 -67.5781 C 49.0234 -69.6777 51.9531 -69.5801 54.0039 -67.5293 Z M 69.3359 -37.8906 C 71.8262 -39.8926 71.7773 -42.334 69.3359 -44.2871 L 59.7656 -51.8066 C 57.5684 -53.5645 54.7852 -52.3926 54.7852 -49.6582 L 54.7852 -44.9707 L 44.5801 -44.9707 C 37.4512 -44.9707 33.8379 -41.4551 33.8379 -34.4238 L 33.8379 -25.8789 C 33.8379 -23.1934 35.3027 -21.4844 37.793 -21.5332 C 40.2832 -21.582 41.6992 -23.1934 41.6992 -25.8789 L 41.6992 -33.1543 C 41.6992 -35.791 43.1152 -37.1094 45.5566 -37.1094 L 54.7852 -37.1094 L 54.7852 -32.5195 C 54.7852 -29.834 57.5684 -28.6621 59.7656 -30.4199 Z"/>
  </g>
  <g id="Semibold-S" transform="matrix(1 0 0 1 1992.49 696)">
   <path d="M 59.5703 -74.3164 C 54.2969 -79.541 47.168 -79.4922 41.8457 -74.1211 L 11.8652 -44.1895 C 6.49414 -38.8184 6.44531 -31.6895 11.7188 -26.416 L 41.9434 3.80859 C 47.2168 9.08203 54.3457 9.0332 59.7168 3.66211 L 89.6484 -26.3184 C 95.0684 -31.6406 95.0684 -38.7695 89.8438 -44.043 Z M 53.9551 -66.6992 L 82.2754 -38.4277 C 84.2285 -36.4746 84.1797 -33.7891 82.2754 -31.8359 L 54.1504 -3.71094 C 52.2461 -1.80664 49.5605 -1.80664 47.6074 -3.71094 L 19.2871 -32.0801 C 17.3828 -33.9844 17.334 -36.6699 19.2383 -38.623 L 47.3633 -66.748 C 49.3164 -68.6523 52.002 -68.6035 53.9551 -66.6992 Z M 69.5801 -37.5 C 71.9727 -39.4043 71.9238 -41.8457 69.5801 -43.7012 L 59.7656 -51.5137 C 57.4707 -53.3203 54.7363 -52.1973 54.7363 -49.4629 L 54.7363 -44.7754 L 44.3848 -44.7754 C 37.6465 -44.7754 34.2285 -41.3574 34.2285 -34.7656 L 34.2285 -26.5137 C 34.2285 -23.6816 35.8398 -21.8262 38.4766 -21.8262 C 41.1133 -21.875 42.7246 -23.6816 42.7246 -26.5137 L 42.7246 -32.7637 C 42.7246 -35.1074 43.9453 -36.2793 46.0449 -36.2793 L 54.7363 -36.2793 L 54.7363 -31.7871 C 54.7363 -29.0527 57.4707 -27.8809 59.7656 -29.7363 Z"/>
  </g>
  <g id="Bold-S" transform="matrix(1 0 0 1 2288.85 696)">
   <path d="M 60.0098 -74.5605 C 54.6387 -79.8828 47.6074 -79.8828 42.0898 -74.3652 L 11.9629 -44.2871 C 6.44531 -38.7695 6.44531 -31.6895 11.8164 -26.3184 L 42.1875 4.05273 C 47.5586 9.42383 54.6387 9.42383 60.1562 3.90625 L 90.2344 -26.2207 C 95.8008 -31.6895 95.752 -38.7695 90.4297 -44.1406 Z M 53.8574 -65.6738 L 81.543 -37.9395 C 83.3008 -36.2793 83.252 -33.8867 81.4941 -32.0801 L 54.248 -4.83398 C 52.4902 -3.07617 50.1465 -3.07617 48.3887 -4.78516 L 20.6543 -32.5195 C 18.9453 -34.2285 18.9453 -36.6211 20.7031 -38.3789 L 47.9492 -65.625 C 49.7559 -67.3828 52.1484 -67.3828 53.8574 -65.6738 Z M 69.9219 -36.9629 C 72.1191 -38.7695 72.0703 -41.2109 69.9219 -42.9199 L 59.7656 -51.0742 C 57.373 -52.9785 54.6387 -51.9531 54.6387 -49.1211 L 54.6387 -44.4824 L 44.1406 -44.4824 C 37.9883 -44.4824 34.7168 -41.2109 34.7168 -35.2051 L 34.7168 -27.2949 C 34.7168 -24.3652 36.4746 -22.2168 39.3555 -22.2656 C 42.2363 -22.2656 44.043 -24.3652 44.043 -27.2949 L 44.043 -32.3242 C 44.043 -34.2285 45.0195 -35.1562 46.6797 -35.1562 L 54.6387 -35.1562 L 54.6387 -30.8105 C 54.6387 -28.0273 57.373 -26.9043 59.7656 -28.8574 Z"/>
  </g>
  <g id="Heavy-S" transform="matrix(1 0 0 1 2585.08 696)">
   <path d="M 60.6445 -74.9512 C 55.1758 -80.3711 48.1445 -80.4688 42.4316 -74.707 L 12.1094 -44.4336 C 6.34766 -38.6719 6.44531 -31.6406 11.9629 -26.1719 L 42.5293 4.44336 C 48.0469 9.91211 55.0293 10.0098 60.791 4.24805 L 91.0645 -26.0742 C 96.8262 -31.7871 96.7285 -38.8184 91.3086 -44.2871 Z M 53.6621 -64.1113 L 80.5176 -37.3047 C 81.9336 -35.9375 81.8359 -33.9844 80.4199 -32.4707 L 54.3457 -6.44531 C 52.9297 -4.98047 50.9766 -4.93164 49.5117 -6.34766 L 22.7051 -33.1543 C 21.2891 -34.5703 21.3379 -36.5234 22.8027 -37.9883 L 48.8281 -64.0137 C 50.3418 -65.4785 52.2949 -65.5762 53.6621 -64.1113 Z M 70.3613 -36.2305 C 72.3633 -37.8418 72.2656 -40.2344 70.3613 -41.7969 L 59.7168 -50.4883 C 57.2266 -52.5391 54.4922 -51.6113 54.4922 -48.7305 L 54.4922 -44.0918 L 43.7988 -44.0918 C 38.4277 -44.0918 35.4004 -41.0156 35.4004 -35.8398 L 35.4004 -28.4668 C 35.4004 -25.293 37.4512 -22.8516 40.625 -22.8516 C 43.8477 -22.8516 45.9473 -25.293 45.9473 -28.4668 L 45.9473 -31.6406 C 45.9473 -32.9102 46.582 -33.5449 47.6074 -33.5449 L 54.4922 -33.5449 L 54.4922 -29.3945 C 54.4922 -26.5625 57.2266 -25.4883 59.7168 -27.5879 Z"/>
  </g>
  <g id="Black-S" transform="matrix(1 0 0 1 2881.37 696)">
   <path d="M 61.2305 -75.293 C 55.6152 -80.8105 48.6816 -81.0059 42.7734 -75 L 12.2559 -44.5801 C 6.29883 -38.5742 6.44531 -31.6406 12.0605 -26.0254 L 42.8223 4.73633 C 48.4375 10.3516 55.4199 10.498 61.377 4.54102 L 91.7969 -25.9277 C 97.8027 -31.8848 97.6562 -38.8184 92.0898 -44.4336 Z M 53.5645 -62.7441 L 79.541 -36.7188 C 80.7129 -35.5957 80.6152 -34.082 79.4434 -32.8125 L 54.4434 -7.86133 C 53.2715 -6.68945 51.709 -6.5918 50.5371 -7.71484 L 24.5117 -33.7402 C 23.3887 -34.9121 23.4863 -36.4746 24.6582 -37.6465 L 49.6094 -62.5977 C 50.8789 -63.7695 52.4414 -63.9648 53.5645 -62.7441 Z M 70.8008 -35.5469 C 72.6074 -37.0117 72.4609 -39.4043 70.8008 -40.8203 L 59.7168 -50 C 57.0801 -52.1484 54.3945 -51.3184 54.3945 -48.3398 L 54.3945 -43.75 L 43.457 -43.75 C 38.8184 -43.75 36.0352 -40.8691 36.0352 -36.4258 L 36.0352 -29.541 C 36.0352 -26.123 38.3301 -23.3887 41.7969 -23.3398 C 45.3125 -23.3398 47.6562 -26.123 47.6562 -29.541 L 47.6562 -31.0547 C 47.6562 -31.7383 47.998 -32.1289 48.4375 -32.1289 L 54.3945 -32.1289 L 54.3945 -28.0762 C 54.3945 -25.2441 57.0801 -24.2188 59.7168 -26.416 Z"/>
  </g>
  <g id="Ultralight-M" transform="matrix(1 0 0 1 495.795 1126)">
   <path d="M 71.4844 -85.8398 C 66.8945 -90.332 60.5469 -90.2344 56.0059 -85.6934 L 13.3789 -43.1152 C 8.83789 -38.623 8.78906 -32.1777 13.3301 -27.6367 L 56.3477 15.2832 C 60.8887 19.8242 67.2852 19.6777 71.8262 15.1855 L 114.453 -27.4414 C 118.945 -31.9824 119.043 -38.4277 114.502 -42.9199 Z M 70.5078 -83.5938 L 112.256 -41.9434 C 116.211 -38.0371 116.26 -32.5195 112.354 -28.5645 L 70.7031 13.1348 C 66.6992 17.1387 61.3281 17.0898 57.3242 13.0859 L 15.5762 -28.6133 C 11.6211 -32.5684 11.5723 -38.0859 15.4785 -42.041 L 57.1289 -83.6426 C 61.084 -87.5977 66.5527 -87.5488 70.5078 -83.5938 Z M 88.3301 -42.7734 C 89.5996 -43.8477 89.5996 -45.4102 88.3301 -46.4355 L 77.9785 -54.7852 C 76.709 -55.8594 74.6582 -55.4199 74.6582 -53.3691 L 74.6582 -45.8008 L 57.9102 -45.8008 C 50.1465 -45.8008 46.8262 -42.334 46.8262 -34.2773 L 46.8262 -16.1133 C 46.8262 -15.3809 47.2168 -14.7949 47.9492 -14.7949 C 48.6328 -14.7949 49.0723 -15.3809 49.0723 -16.1133 L 49.0723 -34.2773 C 49.0723 -41.0645 51.4648 -43.3594 57.959 -43.4082 L 74.6582 -43.5059 L 74.6582 -35.8887 C 74.6582 -33.8379 76.709 -33.3984 77.9785 -34.4727 Z"/>
  </g>
  <g id="Thin-M" transform="matrix(1 0 0 1 792.482 1126)">
   <path d="M 72.168 -85.5957 C 67.2363 -90.4785 60.3027 -90.332 55.4199 -85.4492 L 13.6719 -43.75 C 8.78906 -38.8672 8.69141 -31.8848 13.5742 -27.002 L 55.7129 15.0879 C 60.6445 19.9707 67.5781 19.8242 72.4609 14.9414 L 114.209 -26.8066 C 119.092 -31.6895 119.189 -38.6719 114.307 -43.5547 Z M 70.2637 -82.5195 L 111.23 -41.6504 C 114.99 -37.8906 115.039 -32.666 111.279 -28.9062 L 70.3613 12.0605 C 66.5527 15.8691 61.4258 15.8203 57.6172 12.0117 L 16.6504 -28.9062 C 12.8906 -32.666 12.8418 -37.9395 16.6016 -41.6504 L 57.4707 -82.5684 C 61.2305 -86.3281 66.5039 -86.2305 70.2637 -82.5195 Z M 88.2812 -42.1387 C 89.9414 -43.457 89.9414 -45.3613 88.2812 -46.7285 L 77.6855 -55.1758 C 76.123 -56.4453 73.8281 -55.8105 73.8281 -53.5156 L 73.8281 -46.2402 L 57.7637 -46.2402 C 49.6582 -46.2402 46.0449 -42.5293 46.0449 -34.1309 L 46.0449 -17.2363 C 46.0449 -16.0645 46.6797 -15.2344 47.8027 -15.2344 C 48.9258 -15.2344 49.5605 -16.0645 49.5605 -17.2363 L 49.5605 -34.082 C 49.5605 -40.332 51.8555 -42.5781 57.8613 -42.627 L 73.8281 -42.6758 L 73.8281 -35.3516 C 73.8281 -33.0566 76.123 -32.4219 77.6855 -33.6426 Z"/>
  </g>
  <g id="Light-M" transform="matrix(1 0 0 1 1089.14 1126)">
   <path d="M 73.4375 -85.1074 C 67.8223 -90.7227 59.8633 -90.5762 54.248 -84.9609 L 14.2578 -44.9707 C 8.64258 -39.3555 8.49609 -31.3477 14.1113 -25.7812 L 54.4922 14.5996 C 60.1562 20.2148 68.0664 20.1172 73.6816 14.502 L 113.77 -25.5859 C 119.385 -31.2012 119.482 -39.1602 113.867 -44.7754 Z M 69.7266 -80.3711 L 109.131 -41.0156 C 112.549 -37.6465 112.598 -32.9102 109.229 -29.541 L 69.7266 9.96094 C 66.3086 13.3789 61.6699 13.3301 58.252 9.91211 L 18.8477 -29.4922 C 15.4785 -32.8613 15.3809 -37.5977 18.75 -41.0156 L 58.2031 -80.4688 C 61.5723 -83.8379 66.3574 -83.7402 69.7266 -80.3711 Z M 88.1836 -40.8691 C 90.625 -42.8223 90.625 -45.2637 88.1836 -47.168 L 77.0508 -55.957 C 75 -57.6172 72.1191 -56.543 72.1191 -53.7598 L 72.1191 -47.0703 L 57.5684 -47.0703 C 48.6328 -47.0703 44.4824 -42.8711 44.4824 -33.8867 L 44.4824 -19.5312 C 44.4824 -17.4316 45.5566 -16.1133 47.4609 -16.1621 C 49.3652 -16.1621 50.4883 -17.4316 50.4883 -19.5312 L 50.4883 -33.6426 C 50.4883 -38.8672 52.6855 -40.9668 57.6172 -41.0156 L 72.1191 -41.0645 L 72.1191 -34.3262 C 72.1191 -31.4941 75 -30.4688 77.0508 -32.0801 Z"/>
  </g>
  <g id="Regular-M" transform="matrix(1 0 0 1 1385.81 1126)">
   <path d="M 74.4141 -84.7168 C 68.2617 -90.8691 59.5215 -90.7227 53.3691 -84.5703 L 14.6484 -45.8496 C 8.49609 -39.6973 8.34961 -30.957 14.502 -24.8047 L 53.6133 14.2578 C 59.7656 20.4102 68.457 20.3125 74.6582 14.1113 L 113.379 -24.6094 C 119.58 -30.8105 119.678 -39.502 113.525 -45.6543 Z M 69.3359 -78.7598 L 107.617 -40.5762 C 110.742 -37.4512 110.742 -33.1055 107.666 -30.0293 L 69.2383 8.39844 C 66.1621 11.5234 61.8652 11.4746 58.7402 8.34961 L 20.459 -29.9316 C 17.3828 -33.0078 17.2852 -37.4023 20.3613 -40.4785 L 58.7402 -78.8574 C 61.8652 -81.9824 66.2109 -81.8359 69.3359 -78.7598 Z M 88.1348 -39.8926 C 91.1133 -42.2852 91.1133 -45.166 88.1348 -47.5586 L 76.6113 -56.543 C 74.1211 -58.4961 70.8496 -57.1289 70.8496 -53.9551 L 70.8496 -47.6562 L 57.373 -47.6562 C 47.8516 -47.6562 43.3105 -43.1641 43.3105 -33.7402 L 43.3105 -21.1914 C 43.3105 -18.4082 44.7266 -16.748 47.2656 -16.7969 C 49.7559 -16.8457 51.1719 -18.4082 51.1719 -21.1914 L 51.1719 -33.3496 C 51.1719 -37.793 53.2715 -39.7949 57.4707 -39.7949 L 70.8496 -39.8438 L 70.8496 -33.5449 C 70.8496 -30.3711 74.1211 -29.0039 76.6113 -30.9082 Z"/>
  </g>
  <g id="Medium-M" transform="matrix(1 0 0 1 1682.18 1126)">
   <path d="M 75 -84.9609 C 68.6523 -91.2598 59.9121 -91.1621 53.5156 -84.7656 L 14.8438 -46.0938 C 8.44727 -39.6973 8.34961 -30.9082 14.6484 -24.6094 L 53.7109 14.4531 C 60.0586 20.8008 68.7988 20.7031 75.1953 14.3066 L 113.916 -24.4141 C 120.312 -30.8105 120.41 -39.5508 114.062 -45.8984 Z M 69.1895 -77.4902 L 106.689 -40.0391 C 109.57 -37.207 109.57 -33.2031 106.689 -30.3223 L 69.2871 7.12891 C 66.4062 9.96094 62.4512 9.91211 59.5703 7.08008 L 22.0703 -30.4199 C 19.2383 -33.3008 19.1406 -37.3047 22.0215 -40.1367 L 59.4238 -77.5879 C 62.3047 -80.4199 66.3086 -80.3223 69.1895 -77.4902 Z M 88.4277 -39.2578 C 91.3574 -41.6016 91.3574 -44.5312 88.4277 -46.8262 L 76.5137 -56.2012 C 73.9258 -58.252 70.6055 -56.9336 70.6055 -53.6621 L 70.6055 -47.4609 L 57.0801 -47.4609 C 48.0957 -47.4609 43.6523 -43.0664 43.6523 -34.1797 L 43.6523 -22.2168 C 43.6523 -19.1895 45.3125 -17.2852 48.0957 -17.334 C 50.9277 -17.334 52.5879 -19.1895 52.5879 -22.2168 L 52.5879 -32.8125 C 52.5879 -36.7188 54.4434 -38.5254 58.1055 -38.5254 L 70.6055 -38.5254 L 70.6055 -32.4219 C 70.6055 -29.1992 73.9258 -27.832 76.5137 -29.8828 Z"/>
  </g>
  <g id="Semibold-M" transform="matrix(1 0 0 1 1978.62 1126)">
   <path d="M 75.4395 -85.1074 C 68.9941 -91.5527 60.2051 -91.4551 53.6621 -84.9121 L 14.9414 -46.2402 C 8.39844 -39.6484 8.30078 -30.8594 14.7461 -24.4141 L 53.8086 14.6484 C 60.3027 21.0938 69.0918 21.0449 75.6348 14.4531 L 114.355 -24.2676 C 120.898 -30.8105 120.947 -39.5996 114.502 -46.0449 Z M 69.043 -76.5625 L 105.957 -39.6484 C 108.691 -37.0117 108.643 -33.3008 105.957 -30.5664 L 69.2871 6.10352 C 66.6016 8.78906 62.9395 8.78906 60.2539 6.10352 L 23.3398 -30.8105 C 20.6543 -33.4961 20.6055 -37.207 23.291 -39.8926 L 59.9609 -76.5625 C 62.6465 -79.248 66.4062 -79.1992 69.043 -76.5625 Z M 88.6719 -38.7695 C 91.5527 -41.0156 91.5039 -43.9941 88.6719 -46.2402 L 76.4648 -55.957 C 73.7793 -58.1055 70.4102 -56.7871 70.4102 -53.418 L 70.4102 -47.3145 L 56.8848 -47.3145 C 48.2422 -47.3145 43.9453 -42.9688 43.9453 -34.4727 L 43.9453 -22.998 C 43.9453 -19.7754 45.752 -17.6758 48.7793 -17.6758 C 51.8555 -17.7246 53.6621 -19.7754 53.6621 -22.998 L 53.6621 -32.4219 C 53.6621 -35.9375 55.3711 -37.5488 58.5449 -37.5488 L 70.4102 -37.5488 L 70.4102 -31.5918 C 70.4102 -28.2715 73.7793 -26.9043 76.4648 -29.1016 Z"/>
  </g>
  <g id="Bold-M" transform="matrix(1 0 0 1 2274.99 1126)">
   <path d="M 76.0254 -85.3516 C 69.3848 -91.9434 60.5469 -91.8945 53.8086 -85.1074 L 15.0879 -46.4355 C 8.30078 -39.6484 8.30078 -30.8105 14.8926 -24.2188 L 53.9551 14.8438 C 60.5469 21.4355 69.4336 21.4844 76.2207 14.6484 L 114.893 -24.0723 C 121.68 -30.8105 121.68 -39.6484 115.088 -46.2891 Z M 68.8965 -75.293 L 105.029 -39.1602 C 107.52 -36.7676 107.471 -33.3984 105.029 -30.9082 L 69.3359 4.78516 C 66.8945 7.22656 63.5254 7.22656 61.084 4.83398 L 24.9512 -31.2988 C 22.5586 -33.7402 22.5098 -37.1094 24.9512 -39.5508 L 60.6445 -75.2441 C 63.1348 -77.6855 66.5039 -77.6855 68.8965 -75.293 Z M 89.0137 -38.1348 C 91.7969 -40.332 91.748 -43.3105 89.0137 -45.5078 L 76.416 -55.6152 C 73.5352 -57.8613 70.166 -56.5918 70.166 -53.125 L 70.166 -47.0703 L 56.5918 -47.0703 C 48.4863 -47.0703 44.2871 -42.8711 44.2871 -34.9121 L 44.2871 -24.0723 C 44.2871 -20.6055 46.3379 -18.1641 49.6582 -18.1641 C 53.0273 -18.2129 55.0781 -20.6055 55.0781 -24.0723 L 55.0781 -31.9336 C 55.0781 -34.8633 56.543 -36.2793 59.1797 -36.2793 L 70.166 -36.2793 L 70.166 -30.5176 C 70.166 -27.0996 73.5352 -25.7324 76.416 -28.0273 Z"/>
  </g>
  <g id="Heavy-M" transform="matrix(1 0 0 1 2571.19 1126)">
   <path d="M 76.8555 -85.6934 C 70.0195 -92.4805 61.084 -92.5293 54.0039 -85.4004 L 15.332 -46.7773 C 8.20312 -39.6484 8.25195 -30.7129 15.0879 -23.877 L 54.1504 15.1855 C 60.9863 22.0215 69.9219 22.0703 77.0508 14.9414 L 115.674 -23.7305 C 122.803 -30.8105 122.754 -39.7461 115.918 -46.582 Z M 68.7012 -73.4375 L 103.711 -38.4277 C 105.811 -36.377 105.713 -33.5449 103.613 -31.3965 L 69.3359 2.88086 C 67.2363 4.98047 64.4043 5.0293 62.3047 2.97852 L 27.2949 -32.0312 C 25.2441 -34.1309 25.293 -37.0117 27.3926 -39.0625 L 61.6211 -73.3398 C 63.7695 -75.4395 66.6504 -75.4883 68.7012 -73.4375 Z M 89.502 -37.1582 C 92.1387 -39.3066 92.041 -42.334 89.502 -44.4336 L 76.3184 -55.0781 C 73.2422 -57.5684 69.8242 -56.3477 69.8242 -52.7344 L 69.8242 -46.7773 L 56.1523 -46.7773 C 48.7793 -46.7773 44.7754 -42.7246 44.7754 -35.5469 L 44.7754 -25.5371 C 44.7754 -21.7285 47.2168 -18.8965 50.9766 -18.8965 C 54.7363 -18.8965 57.1777 -21.7285 57.1777 -25.5371 L 57.1777 -31.2012 C 57.1777 -33.3496 58.252 -34.4238 60.1074 -34.4238 L 69.8242 -34.4238 L 69.8242 -28.9062 C 69.8242 -25.3906 73.2422 -24.0234 76.3184 -26.5137 Z"/>
  </g>
  <g id="Black-M" transform="matrix(1 0 0 1 2867.46 1126)">
   <path d="M 77.5879 -85.9863 C 70.5566 -92.9688 61.5723 -93.0664 54.1992 -85.6445 L 15.5273 -47.0703 C 8.10547 -39.5996 8.20312 -30.6641 15.2832 -23.584 L 54.2969 15.4297 C 61.377 22.5098 70.3613 22.6074 77.7832 15.1855 L 116.357 -23.4863 C 123.828 -30.8594 123.682 -39.7949 116.699 -46.875 Z M 68.5059 -71.7773 L 102.49 -37.7441 C 104.297 -36.0352 104.15 -33.6426 102.344 -31.7871 L 69.3848 1.17188 C 67.5781 2.97852 65.1855 3.02734 63.4277 1.31836 L 29.3945 -32.7148 C 27.6855 -34.4727 27.7832 -36.8652 29.541 -38.6719 L 62.5488 -71.6309 C 64.3555 -73.4375 66.748 -73.5352 68.5059 -71.7773 Z M 89.8926 -36.3281 C 92.4316 -38.3789 92.334 -41.4551 89.8926 -43.457 L 76.2207 -54.6387 C 72.9492 -57.2754 69.4824 -56.1035 69.4824 -52.3438 L 69.4824 -46.4844 L 55.8105 -46.4844 C 49.0723 -46.4844 45.2637 -42.5781 45.2637 -36.1328 L 45.2637 -26.9043 C 45.2637 -22.7539 47.9492 -19.5312 52.0996 -19.5312 C 56.2988 -19.5312 58.9844 -22.7539 58.9844 -26.9043 L 58.9844 -30.5176 C 58.9844 -31.9824 59.7656 -32.7637 60.9375 -32.7637 L 69.4824 -32.7637 L 69.4824 -27.4414 C 69.4824 -23.8281 72.9492 -22.4609 76.2207 -25.1953 Z"/>
  </g>
  <g id="Ultralight-L" transform="matrix(1 0 0 1 477.265 1556)">
   <path d="M 91.9434 -100.635 C 86.2305 -106.299 78.2227 -106.152 72.5586 -100.488 L 17.1387 -45.166 C 11.4746 -39.502 11.377 -31.3965 17.041 -25.7324 L 72.9492 30.0781 C 78.7109 35.7422 86.7188 35.5957 92.3828 29.9316 L 147.754 -25.4883 C 153.467 -31.1523 153.516 -39.2578 147.852 -44.9219 Z M 91.1133 -98.0957 L 145.312 -44.043 C 150.488 -38.8672 150.586 -31.6406 145.41 -26.5137 L 91.3574 27.6367 C 86.1328 32.8613 79.0527 32.8125 73.8281 27.5391 L 19.5801 -26.6113 C 14.4043 -31.7383 14.3555 -38.9648 19.5312 -44.1406 L 73.5352 -98.1934 C 78.7109 -103.32 85.9375 -103.271 91.1133 -98.0957 Z M 113.965 -45.2637 C 115.479 -46.4844 115.479 -48.3887 113.965 -49.6094 L 100.781 -60.3027 C 99.2188 -61.5723 96.7285 -61.1328 96.7285 -58.5938 L 96.7285 -48.7305 L 74.7559 -48.7305 C 64.9414 -48.7305 60.7422 -44.3359 60.7422 -34.0332 L 60.7422 -10.0586 C 60.7422 -9.32617 61.1816 -8.64258 61.9141 -8.64258 C 62.6953 -8.64258 63.1348 -9.32617 63.1348 -10.0586 L 63.1348 -34.082 C 63.1348 -43.0664 66.2109 -46.0938 74.8535 -46.1426 L 96.7285 -46.2891 L 96.7285 -36.2793 C 96.7285 -33.7402 99.2188 -33.3008 100.781 -34.5703 Z"/>
  </g>
  <g id="Thin-L" transform="matrix(1 0 0 1 773.927 1556)">
   <path d="M 92.7246 -100.342 C 86.5234 -106.445 77.9785 -106.25 71.875 -100.195 L 17.4805 -45.8496 C 11.377 -39.7461 11.2793 -31.1035 17.3828 -25 L 72.2656 29.834 C 78.418 35.8887 87.0117 35.7422 93.1152 29.6387 L 147.51 -24.7559 C 153.613 -30.8594 153.662 -39.502 147.607 -45.6055 Z M 90.8203 -96.875 L 144.141 -43.7012 C 149.121 -38.7207 149.17 -31.7871 144.238 -26.8555 L 91.0156 26.4648 C 85.9863 31.4941 79.1992 31.3965 74.1699 26.3672 L 20.8496 -26.9043 C 15.8691 -31.8848 15.7715 -38.8184 20.752 -43.75 L 73.9746 -96.9727 C 78.9062 -101.953 85.8398 -101.855 90.8203 -96.875 Z M 113.916 -44.5312 C 115.82 -46.0938 115.82 -48.3398 113.916 -49.9023 L 100.439 -60.7422 C 98.584 -62.2559 95.752 -61.5234 95.752 -58.7402 L 95.752 -49.1699 L 74.6582 -49.1699 C 64.3555 -49.1699 59.8633 -44.5312 59.8633 -33.9355 L 59.8633 -11.3281 C 59.8633 -10.1074 60.5469 -9.13086 61.7676 -9.17969 C 62.9395 -9.17969 63.623 -10.1074 63.623 -11.3281 L 63.623 -33.8379 C 63.623 -42.2363 66.6504 -45.166 74.707 -45.2637 L 95.752 -45.3613 L 95.752 -35.6934 C 95.752 -32.9102 98.584 -32.1777 100.439 -33.6914 Z"/>
  </g>
  <g id="Light-L" transform="matrix(1 0 0 1 1070.59 1556)">
   <path d="M 94.1406 -99.8047 C 87.207 -106.689 77.4902 -106.494 70.5566 -99.6094 L 18.1152 -47.168 C 11.1816 -40.2832 11.084 -30.5176 17.9688 -23.6328 L 70.8984 29.2969 C 77.8809 36.1816 87.5977 36.0352 94.4824 29.1504 L 147.021 -23.3887 C 153.906 -30.2734 154.004 -40.0391 147.119 -46.9238 Z M 90.2344 -94.5312 L 141.846 -43.0176 C 146.436 -38.4766 146.484 -32.0801 141.943 -27.5391 L 90.2832 24.1211 C 85.6934 28.7109 79.4922 28.6133 74.9023 24.0234 L 23.2422 -27.5391 C 18.7012 -32.0801 18.6035 -38.4766 23.1445 -43.0176 L 74.7559 -94.6289 C 79.2969 -99.1699 85.6934 -99.0234 90.2344 -94.5312 Z M 113.818 -43.1152 C 116.602 -45.3125 116.602 -48.2422 113.818 -50.4395 L 99.7559 -61.6211 C 97.3145 -63.5254 93.8965 -62.3535 93.8965 -59.0332 L 93.8965 -50.0977 L 74.3652 -50.0977 C 63.2324 -50.0977 58.1543 -44.9219 58.1543 -33.6426 L 58.1543 -13.8672 C 58.1543 -11.5723 59.3262 -10.1074 61.4258 -10.1562 C 63.4766 -10.2051 64.6484 -11.5723 64.6484 -13.8672 L 64.6484 -33.3984 C 64.6484 -40.625 67.5781 -43.4082 74.4629 -43.457 L 93.8965 -43.5547 L 93.8965 -34.5215 C 93.8965 -31.1523 97.3145 -30.0293 99.7559 -31.9336 Z"/>
  </g>
  <g id="Regular-L" transform="matrix(1 0 0 1 1367.25 1556)">
   <path d="M 95.2148 -99.4141 C 87.6953 -106.885 77.0996 -106.689 69.5801 -99.1699 L 18.5547 -48.1934 C 11.084 -40.7227 10.8887 -30.0781 18.4082 -22.5586 L 69.9219 28.9062 C 77.4414 36.4258 88.0371 36.2305 95.5566 28.7598 L 146.631 -22.3145 C 154.102 -29.834 154.248 -40.4785 146.729 -47.9492 Z M 89.7461 -92.7246 L 140.088 -42.4805 C 144.385 -38.2812 144.434 -32.3242 140.186 -28.0762 L 89.7461 22.3633 C 85.498 26.6113 79.6875 26.5625 75.4395 22.2656 L 25.0977 -28.0273 C 20.8496 -32.2754 20.7031 -38.1836 24.9512 -42.4316 L 75.3906 -92.8711 C 79.5898 -97.0703 85.5469 -96.9238 89.7461 -92.7246 Z M 113.77 -42.041 C 117.188 -44.7754 117.188 -48.1445 113.77 -50.8301 L 99.2188 -62.2559 C 96.3379 -64.502 92.4805 -62.9883 92.4805 -59.2285 L 92.4805 -50.7812 L 74.1699 -50.7812 C 62.4023 -50.7812 56.8359 -45.2148 56.8359 -33.4473 L 56.8359 -15.7715 C 56.8359 -12.6953 58.3984 -10.8887 61.1328 -10.9375 C 63.916 -10.9863 65.4297 -12.6953 65.4297 -15.7715 L 65.4297 -33.0566 C 65.4297 -39.4043 68.2617 -42.0898 74.3164 -42.1387 L 92.4805 -42.1387 L 92.4805 -33.6914 C 92.4805 -29.8828 96.3379 -28.3691 99.2188 -30.6152 Z"/>
  </g>
  <g id="Medium-L" transform="matrix(1 0 0 1 1663.65 1556)">
   <path d="M 95.9473 -99.5117 C 88.1836 -107.275 77.3438 -107.129 69.5312 -99.3164 L 18.7988 -48.584 C 10.9863 -40.7715 10.8398 -29.9316 18.6035 -22.168 L 69.8242 29.0527 C 77.6367 36.8164 88.4277 36.6699 96.2402 28.8574 L 147.021 -21.9238 C 154.834 -29.7363 154.932 -40.5762 147.217 -48.3398 Z M 89.5508 -91.2598 L 138.965 -41.9434 C 142.969 -37.9883 142.969 -32.4707 139.014 -28.4668 L 89.6973 20.8496 C 85.6934 24.8535 80.2734 24.7559 76.2695 20.8008 L 26.9043 -28.5645 C 22.9492 -32.5195 22.8516 -38.0859 26.8066 -42.041 L 76.123 -91.3574 C 80.0781 -95.3125 85.5957 -95.166 89.5508 -91.2598 Z M 114.062 -41.2598 C 117.48 -43.9941 117.48 -47.5098 114.062 -50.2441 L 99.0723 -62.0605 C 95.9961 -64.502 91.9922 -62.9395 91.9922 -58.9844 L 91.9922 -50.6836 L 73.877 -50.6836 C 62.4512 -50.6836 56.9336 -45.2148 56.9336 -33.7891 L 56.9336 -17.041 C 56.9336 -13.623 58.7891 -11.4746 61.9141 -11.5234 C 65.0391 -11.5723 66.8945 -13.623 66.8945 -17.041 L 66.8945 -32.5195 C 66.8945 -38.2324 69.4336 -40.6738 74.8535 -40.7227 L 91.9922 -40.7715 L 91.9922 -32.5195 C 91.9922 -28.5645 95.9961 -27.002 99.0723 -29.4434 Z"/>
  </g>
  <g id="Semibold-L" transform="matrix(1 0 0 1 1960.09 1556)">
   <path d="M 96.4844 -99.6094 C 88.5254 -107.568 77.5879 -107.422 69.5312 -99.3652 L 18.9941 -48.877 C 10.8887 -40.8203 10.791 -29.834 18.75 -21.875 L 69.7754 29.1504 C 77.7832 37.1094 88.7207 37.0117 96.7773 28.9551 L 147.363 -21.6309 C 155.42 -29.6875 155.469 -40.6738 147.559 -48.6328 Z M 89.4043 -90.1367 L 138.086 -41.5039 C 141.846 -37.793 141.846 -32.5684 138.086 -28.8086 L 89.6484 19.6777 C 85.8398 23.4863 80.7129 23.4375 76.9531 19.6777 L 28.2715 -29.0039 C 24.5605 -32.7148 24.4629 -37.9883 28.1738 -41.6992 L 76.6602 -90.1855 C 80.4199 -93.9453 85.6445 -93.7988 89.4043 -90.1367 Z M 114.258 -40.6738 C 117.725 -43.4082 117.725 -47.0215 114.258 -49.7559 L 98.9258 -61.9141 C 95.7031 -64.4531 91.6016 -62.8906 91.6016 -58.8379 L 91.6016 -50.6348 L 73.6328 -50.6348 C 62.4512 -50.6348 56.9824 -45.166 56.9824 -34.082 L 56.9824 -18.0176 C 56.9824 -14.3555 59.0332 -11.9141 62.5 -11.9629 C 65.918 -12.0117 67.9688 -14.3555 67.9688 -18.0176 L 67.9688 -32.1289 C 67.9688 -37.3047 70.3613 -39.5996 75.2441 -39.6484 L 91.6016 -39.6484 L 91.6016 -31.6406 C 91.6016 -27.5879 95.7031 -25.9766 98.9258 -28.5645 Z"/>
  </g>
  <g id="Bold-L" transform="matrix(1 0 0 1 2256.48 1556)">
   <path d="M 97.2168 -99.7559 C 89.0137 -107.959 77.832 -107.861 69.4824 -99.4629 L 19.1895 -49.2676 C 10.8398 -40.8691 10.7422 -29.6875 18.9941 -21.4844 L 69.7266 29.248 C 77.9297 37.5 89.1113 37.4512 97.5098 29.0527 L 147.754 -21.2402 C 156.152 -29.6387 156.201 -40.8203 147.998 -49.0234 Z M 89.1602 -88.623 L 136.914 -40.9668 C 140.381 -37.5 140.381 -32.666 136.914 -29.1992 L 89.5508 18.1641 C 86.084 21.6309 81.2988 21.6309 77.832 18.1641 L 30.0781 -29.541 C 26.6602 -33.0078 26.6113 -37.8418 30.0781 -41.3086 L 77.3926 -88.6719 C 80.9082 -92.0898 85.7422 -92.041 89.1602 -88.623 Z M 114.551 -39.8926 C 118.066 -42.6758 118.018 -46.3867 114.551 -49.1699 L 98.7793 -61.7188 C 95.3125 -64.4531 91.1133 -62.8418 91.1133 -58.5938 L 91.1133 -50.5859 L 73.3398 -50.5859 C 62.5 -50.5859 57.0801 -45.1172 57.0801 -34.4238 L 57.0801 -19.2871 C 57.0801 -15.2832 59.4238 -12.5 63.2324 -12.5488 C 67.0898 -12.5977 69.4336 -15.2832 69.4336 -19.2871 L 69.4336 -31.5918 C 69.4336 -36.1328 71.582 -38.1836 75.7812 -38.2324 L 91.1133 -38.2324 L 91.1133 -30.4688 C 91.1133 -26.2695 95.3125 -24.5605 98.7793 -27.3438 Z"/>
  </g>
  <g id="Heavy-L" transform="matrix(1 0 0 1 2552.73 1556)">
   <path d="M 98.291 -99.9512 C 89.6973 -108.496 78.2227 -108.496 69.4336 -99.6094 L 19.5312 -49.8047 C 10.6934 -40.9668 10.6934 -29.4922 19.2871 -20.8984 L 69.6289 29.4434 C 78.2227 38.0371 89.6973 38.0371 98.5352 29.1992 L 148.389 -20.7031 C 157.275 -29.541 157.227 -40.9668 148.682 -49.5605 Z M 88.8672 -86.4746 L 135.205 -40.1367 C 138.281 -37.1094 138.232 -32.8613 135.156 -29.7852 L 89.4531 15.9668 C 86.377 19.043 82.1777 19.043 79.1016 16.0156 L 32.7148 -30.3223 C 29.6875 -33.3984 29.6875 -37.6465 32.7637 -40.7227 L 78.4668 -86.4258 C 81.5918 -89.502 85.8398 -89.502 88.8672 -86.4746 Z M 114.941 -38.7207 C 118.555 -41.5527 118.457 -45.459 114.941 -48.291 L 98.5352 -61.4258 C 94.8242 -64.4043 90.4297 -62.793 90.4297 -58.252 L 90.4297 -50.4883 L 72.9004 -50.4883 C 62.5977 -50.4883 57.2266 -45.0684 57.2266 -34.9609 L 57.2266 -21.1914 C 57.2266 -16.6016 59.9609 -13.3789 64.3555 -13.4277 C 68.7988 -13.4277 71.5332 -16.6016 71.5332 -21.1914 L 71.5332 -30.8105 C 71.5332 -34.4238 73.3398 -36.1328 76.5625 -36.1328 L 90.4297 -36.1816 L 90.4297 -28.7598 C 90.4297 -24.3164 94.8242 -22.5586 98.5352 -25.5859 Z"/>
  </g>
  <g id="Black-L" transform="matrix(1 0 0 1 2849 1556)">
   <path d="M 99.2188 -100.146 C 90.2832 -108.984 78.5645 -109.033 69.3359 -99.7559 L 19.8242 -50.293 C 10.5469 -41.0156 10.5957 -29.2969 19.5312 -20.3613 L 69.5312 29.5898 C 78.4668 38.5254 90.1855 38.623 99.4629 29.3457 L 148.926 -20.2148 C 158.203 -29.4434 158.154 -41.1621 149.268 -50.0977 Z M 88.5742 -84.5215 L 133.691 -39.4043 C 136.426 -36.7676 136.279 -33.0566 133.594 -30.2734 L 89.3555 13.9648 C 86.6211 16.6992 82.959 16.748 80.2246 14.0625 L 35.1074 -31.0547 C 32.4707 -33.7402 32.4707 -37.4512 35.1562 -40.1855 L 79.4434 -84.4238 C 82.1777 -87.1582 85.8887 -87.207 88.5742 -84.5215 Z M 115.332 -37.6953 C 118.945 -40.5762 118.848 -44.6289 115.332 -47.4609 L 98.3398 -61.1816 C 94.3359 -64.4043 89.7949 -62.6953 89.7949 -57.959 L 89.7949 -50.3906 L 72.5586 -50.3906 C 62.6465 -50.3906 57.3242 -45.0195 57.3242 -35.4492 L 57.3242 -22.8516 C 57.3242 -17.8223 60.4004 -14.1602 65.332 -14.1602 C 70.3125 -14.209 73.3887 -17.8223 73.3887 -22.8516 L 73.3887 -30.127 C 73.3887 -32.8613 74.9023 -34.3262 77.2461 -34.3262 L 89.7949 -34.3262 L 89.7949 -27.2461 C 89.7949 -22.6074 94.3359 -20.752 98.3398 -24.0723 Z"/>
  </g>
 </g>
</svg>
