<?xml version="1.0" encoding="UTF-8"?>
<!--Generator: Apple Native CoreSVG 123-->
<!DOCTYPE svg
PUBLIC "-//W3C//DTD SVG 1.1//EN"
       "http://www.w3.org/Graphics/SVG/1.1/DTD/svg11.dtd">
<svg version="1.1" xmlns="http://www.w3.org/2000/svg" xmlns:xlink="http://www.w3.org/1999/xlink" width="3300" height="2200">
 <!--glyph: "uni100481.medium", point size: 100.000000, font version: "Version 15.0d4e20", template writer version: "2"-->
 <g id="Notes">
  <rect height="2200" id="artboard" style="fill:white;opacity:1" width="3300" x="0" y="0"/>
  <line id="" style="fill:none;stroke:black;opacity:1;stroke-width:0.5;" x1="263" x2="3036" y1="292" y2="292"/>
  <text style="stroke:none;fill:black;font-family:-apple-system,&quot;SF Pro Display&quot;,&quot;SF Pro Text&quot;,Helvetica,sans-serif;font-weight:bold;" transform="matrix(1 0 0 1 263 322)">Weight/Scale Variations</text>
  <text style="stroke:none;fill:black;font-family:-apple-system,&quot;SF Pro Display&quot;,&quot;SF Pro Text&quot;,Helvetica,sans-serif;text-anchor:middle;" transform="matrix(1 0 0 1 559.711 322)">Ultralight</text>
  <text style="stroke:none;fill:black;font-family:-apple-system,&quot;SF Pro Display&quot;,&quot;SF Pro Text&quot;,Helvetica,sans-serif;text-anchor:middle;" transform="matrix(1 0 0 1 856.422 322)">Thin</text>
  <text style="stroke:none;fill:black;font-family:-apple-system,&quot;SF Pro Display&quot;,&quot;SF Pro Text&quot;,Helvetica,sans-serif;text-anchor:middle;" transform="matrix(1 0 0 1 1153.13 322)">Light</text>
  <text style="stroke:none;fill:black;font-family:-apple-system,&quot;SF Pro Display&quot;,&quot;SF Pro Text&quot;,Helvetica,sans-serif;text-anchor:middle;" transform="matrix(1 0 0 1 1449.84 322)">Regular</text>
  <text style="stroke:none;fill:black;font-family:-apple-system,&quot;SF Pro Display&quot;,&quot;SF Pro Text&quot;,Helvetica,sans-serif;text-anchor:middle;" transform="matrix(1 0 0 1 1746.56 322)">Medium</text>
  <text style="stroke:none;fill:black;font-family:-apple-system,&quot;SF Pro Display&quot;,&quot;SF Pro Text&quot;,Helvetica,sans-serif;text-anchor:middle;" transform="matrix(1 0 0 1 2043.27 322)">Semibold</text>
  <text style="stroke:none;fill:black;font-family:-apple-system,&quot;SF Pro Display&quot;,&quot;SF Pro Text&quot;,Helvetica,sans-serif;text-anchor:middle;" transform="matrix(1 0 0 1 2339.98 322)">Bold</text>
  <text style="stroke:none;fill:black;font-family:-apple-system,&quot;SF Pro Display&quot;,&quot;SF Pro Text&quot;,Helvetica,sans-serif;text-anchor:middle;" transform="matrix(1 0 0 1 2636.69 322)">Heavy</text>
  <text style="stroke:none;fill:black;font-family:-apple-system,&quot;SF Pro Display&quot;,&quot;SF Pro Text&quot;,Helvetica,sans-serif;text-anchor:middle;" transform="matrix(1 0 0 1 2933.4 322)">Black</text>
  <line id="" style="fill:none;stroke:black;opacity:1;stroke-width:0.5;" x1="263" x2="3036" y1="1903" y2="1903"/>
  <g id="" transform="matrix(1 0 0 1 263 1933)">
   <path d="M 9.24805 0.830078 C 13.5547 0.830078 17.1387 -2.74414 17.1387 -7.05078 C 17.1387 -11.3574 13.5449 -14.9316 9.23828 -14.9316 C 4.94141 -14.9316 1.36719 -11.3574 1.36719 -7.05078 C 1.36719 -2.74414 4.95117 0.830078 9.24805 0.830078 Z M 9.24805 -0.654297 C 5.70312 -0.654297 2.87109 -3.49609 2.87109 -7.05078 C 2.87109 -10.6055 5.69336 -13.4473 9.23828 -13.4473 C 12.793 -13.4473 15.6348 -10.6055 15.6445 -7.05078 C 15.6543 -3.49609 12.8027 -0.654297 9.24805 -0.654297 Z M 9.22852 -3.42773 C 9.69727 -3.42773 9.9707 -3.74023 9.9707 -4.25781 L 9.9707 -6.31836 L 12.1973 -6.31836 C 12.6953 -6.31836 13.0371 -6.57227 13.0371 -7.04102 C 13.0371 -7.51953 12.7148 -7.7832 12.1973 -7.7832 L 9.9707 -7.7832 L 9.9707 -10.0098 C 9.9707 -10.5273 9.69727 -10.8496 9.22852 -10.8496 C 8.75977 -10.8496 8.50586 -10.5078 8.50586 -10.0098 L 8.50586 -7.7832 L 6.29883 -7.7832 C 5.78125 -7.7832 5.44922 -7.51953 5.44922 -7.04102 C 5.44922 -6.57227 5.80078 -6.31836 6.29883 -6.31836 L 8.50586 -6.31836 L 8.50586 -4.25781 C 8.50586 -3.75977 8.75977 -3.42773 9.22852 -3.42773 Z"/>
  </g>
  <g id="" transform="matrix(1 0 0 1 281.506 1933)">
   <path d="M 11.709 2.91016 C 17.1484 2.91016 21.6699 -1.60156 21.6699 -7.05078 C 21.6699 -12.4902 17.1387 -17.0117 11.6992 -17.0117 C 6.25 -17.0117 1.74805 -12.4902 1.74805 -7.05078 C 1.74805 -1.60156 6.25977 2.91016 11.709 2.91016 Z M 11.709 1.25 C 7.09961 1.25 3.41797 -2.44141 3.41797 -7.05078 C 3.41797 -11.6504 7.08984 -15.3516 11.6992 -15.3516 C 16.2988 -15.3516 20 -11.6504 20.0098 -7.05078 C 20.0195 -2.44141 16.3086 1.25 11.709 1.25 Z M 11.6797 -2.41211 C 12.207 -2.41211 12.5195 -2.77344 12.5195 -3.33984 L 12.5195 -6.23047 L 15.5762 -6.23047 C 16.123 -6.23047 16.5039 -6.51367 16.5039 -7.03125 C 16.5039 -7.55859 16.1426 -7.86133 15.5762 -7.86133 L 12.5195 -7.86133 L 12.5195 -10.9277 C 12.5195 -11.5039 12.207 -11.8555 11.6797 -11.8555 C 11.1621 -11.8555 10.8789 -11.4844 10.8789 -10.9277 L 10.8789 -7.86133 L 7.83203 -7.86133 C 7.25586 -7.86133 6.89453 -7.55859 6.89453 -7.03125 C 6.89453 -6.51367 7.28516 -6.23047 7.83203 -6.23047 L 10.8789 -6.23047 L 10.8789 -3.33984 C 10.8789 -2.79297 11.1621 -2.41211 11.6797 -2.41211 Z"/>
  </g>
  <g id="" transform="matrix(1 0 0 1 304.914 1933)">
   <path d="M 14.9707 5.67383 C 21.9336 5.67383 27.6855 -0.078125 27.6855 -7.04102 C 27.6855 -14.0039 21.9238 -19.7559 14.9609 -19.7559 C 7.99805 -19.7559 2.25586 -14.0039 2.25586 -7.04102 C 2.25586 -0.078125 8.00781 5.67383 14.9707 5.67383 Z M 14.9707 3.85742 C 8.92578 3.85742 4.08203 -1.00586 4.08203 -7.04102 C 4.08203 -13.0762 8.91602 -17.9395 14.9609 -17.9395 C 20.9961 -17.9395 25.8594 -13.0762 25.8691 -7.04102 C 25.8789 -1.00586 21.0059 3.85742 14.9707 3.85742 Z M 14.9414 -1.06445 C 15.5176 -1.06445 15.8594 -1.45508 15.8594 -2.06055 L 15.8594 -6.13281 L 20.0977 -6.13281 C 20.6934 -6.13281 21.1133 -6.46484 21.1133 -7.02148 C 21.1133 -7.59766 20.7227 -7.93945 20.0977 -7.93945 L 15.8594 -7.93945 L 15.8594 -12.1875 C 15.8594 -12.8027 15.5176 -13.1934 14.9414 -13.1934 C 14.3848 -13.1934 14.0625 -12.7832 14.0625 -12.1875 L 14.0625 -7.93945 L 9.82422 -7.93945 C 9.20898 -7.93945 8.80859 -7.59766 8.80859 -7.02148 C 8.80859 -6.46484 9.23828 -6.13281 9.82422 -6.13281 L 14.0625 -6.13281 L 14.0625 -2.06055 C 14.0625 -1.47461 14.3848 -1.06445 14.9414 -1.06445 Z"/>
  </g>
  <text style="stroke:none;fill:black;font-family:-apple-system,&quot;SF Pro Display&quot;,&quot;SF Pro Text&quot;,Helvetica,sans-serif;font-weight:bold;" transform="matrix(1 0 0 1 263 1953)">Design Variations</text>
  <text style="stroke:none;fill:black;font-family:-apple-system,&quot;SF Pro Display&quot;,&quot;SF Pro Text&quot;,Helvetica,sans-serif;" transform="matrix(1 0 0 1 263 1971)">Symbols are supported in up to nine weights and three scales.</text>
  <text style="stroke:none;fill:black;font-family:-apple-system,&quot;SF Pro Display&quot;,&quot;SF Pro Text&quot;,Helvetica,sans-serif;" transform="matrix(1 0 0 1 263 1989)">For optimal layout with text and other symbols, vertically align</text>
  <text style="stroke:none;fill:black;font-family:-apple-system,&quot;SF Pro Display&quot;,&quot;SF Pro Text&quot;,Helvetica,sans-serif;" transform="matrix(1 0 0 1 263 2007)">symbols with the adjacent text.</text>
  <rect height="14" id="" style="fill:#00AEEF;stroke:none;opacity:0.4;" width="3" x="776" y="1919"/>
  <g id="" transform="matrix(1 0 0 1 779 1933)">
   <path d="M 10.5273 0 L 12.373 0 L 7.17773 -14.0918 L 5.43945 -14.0918 L 0.244141 0 L 2.08984 0 L 3.50586 -4.0332 L 9.11133 -4.0332 Z M 6.2793 -11.9531 L 6.33789 -11.9531 L 8.59375 -5.52734 L 4.02344 -5.52734 Z"/>
  </g>
  <rect height="14" id="" style="fill:#00AEEF;stroke:none;opacity:0.4;" width="3" x="791.617" y="1919"/>
  <text style="stroke:none;fill:black;font-family:-apple-system,&quot;SF Pro Display&quot;,&quot;SF Pro Text&quot;,Helvetica,sans-serif;font-weight:bold;" transform="matrix(1 0 0 1 776 1953)">Side Bearings</text>
  <text style="stroke:none;fill:black;font-family:-apple-system,&quot;SF Pro Display&quot;,&quot;SF Pro Text&quot;,Helvetica,sans-serif;" transform="matrix(1 0 0 1 776 1971)">Horizontal padding on the left and right side of each symbol</text>
  <text style="stroke:none;fill:black;font-family:-apple-system,&quot;SF Pro Display&quot;,&quot;SF Pro Text&quot;,Helvetica,sans-serif;" transform="matrix(1 0 0 1 776 1989)">can be adjusted by modifying the width of the blue rectangles.</text>
  <text style="stroke:none;fill:black;font-family:-apple-system,&quot;SF Pro Display&quot;,&quot;SF Pro Text&quot;,Helvetica,sans-serif;" transform="matrix(1 0 0 1 776 2007)">Modifications are automatically applied proportionally to all</text>
  <text style="stroke:none;fill:black;font-family:-apple-system,&quot;SF Pro Display&quot;,&quot;SF Pro Text&quot;,Helvetica,sans-serif;" transform="matrix(1 0 0 1 776 2025)">scales and weights.</text>
  <g id="" transform="matrix(1 0 0 1 1289 1933)">
   <path d="M 2.96875 2.35352 L 3.80859 3.19336 C 4.84375 4.22852 6.12305 4.15039 7.19727 2.97852 L 16.1621 -6.82617 C 16.5527 -6.74805 16.9629 -6.8457 17.4902 -7.02148 C 18.1738 -7.25586 18.2715 -7.25586 18.3887 -7.13867 C 18.5352 -7.01172 18.4863 -6.89453 18.2422 -6.25 C 17.8809 -5.33203 17.8125 -4.79492 18.5547 -4.02344 L 19.4238 -3.13477 C 20.2734 -2.24609 21.3281 -2.26562 22.2168 -3.14453 L 25.0586 -5.97656 C 25.9473 -6.86523 25.957 -7.92969 25.0781 -8.7793 L 24.1797 -9.64844 C 23.4082 -10.4004 22.8711 -10.3516 21.9629 -9.98047 C 21.3184 -9.72656 21.2012 -9.6875 21.0645 -9.81445 C 20.9375 -9.93164 20.9473 -10.0391 21.1816 -10.7129 C 21.5332 -11.6895 21.5723 -12.2852 20.752 -13.0957 L 19.3359 -14.5117 C 15.1953 -18.6133 11.2305 -18.7402 7.65625 -15.4395 C 7.08008 -14.9023 6.99219 -14.1504 7.53906 -13.6133 L 7.79297 -13.3594 C 8.22266 -12.9297 8.86719 -12.8418 9.41406 -13.1152 C 11.0645 -13.9453 12.2559 -14.0234 13.457 -12.9785 L 13.0273 -11.416 C 12.8516 -10.8008 12.793 -10.3418 12.9199 -9.93164 L 3.18359 -1.04492 C 2.02148 0.0292969 1.93359 1.32812 2.96875 2.35352 Z M 8.96484 -14.4922 C 8.89648 -14.5703 8.86719 -14.6582 8.99414 -14.7559 C 11.709 -17.2852 15.0391 -16.8457 18.3496 -13.5254 L 19.6973 -12.168 C 20.0879 -11.7773 20.0977 -11.582 19.8828 -10.8691 C 19.6582 -10.127 19.502 -9.53125 20.1465 -8.88672 C 20.8105 -8.22266 21.2891 -8.41797 22.207 -8.63281 C 22.9004 -8.79883 23.0664 -8.79883 23.4473 -8.41797 L 24.0918 -7.77344 C 24.4043 -7.48047 24.4141 -7.32422 24.0723 -6.97266 L 21.2207 -4.13086 C 20.8887 -3.79883 20.7227 -3.79883 20.4297 -4.10156 L 19.7852 -4.75586 C 19.4141 -5.13672 19.4141 -5.30273 19.5801 -6.01562 C 19.7852 -6.88477 19.9805 -7.38281 19.3262 -8.04688 C 18.6719 -8.7207 18.0762 -8.57422 17.3438 -8.33008 C 16.5625 -8.06641 16.3281 -8.06641 15.8984 -8.49609 L 14.6094 -9.78516 C 14.1699 -10.2246 14.1309 -10.4395 14.2676 -10.9082 L 15.0293 -13.3984 C 13.3887 -15.2832 11.4941 -15.5566 9.20898 -14.4434 C 9.11133 -14.3945 9.04297 -14.4141 8.96484 -14.4922 Z M 3.96484 1.36719 C 3.52539 0.927734 3.54492 0.537109 4.14062 -0.00976562 L 13.7402 -8.81836 L 15 -7.55859 L 6.17188 2.02148 C 5.625 2.60742 5.24414 2.64648 4.79492 2.19727 Z"/>
  </g>
  <text style="stroke:none;fill:black;font-family:-apple-system,&quot;SF Pro Display&quot;,&quot;SF Pro Text&quot;,Helvetica,sans-serif;font-weight:bold;" transform="matrix(1 0 0 1 1289 1953)">Exporting</text>
  <text style="stroke:none;fill:black;font-family:-apple-system,&quot;SF Pro Display&quot;,&quot;SF Pro Text&quot;,Helvetica,sans-serif;" transform="matrix(1 0 0 1 1289 1971)">Symbols should be outlined when exporting to ensure the</text>
  <text style="stroke:none;fill:black;font-family:-apple-system,&quot;SF Pro Display&quot;,&quot;SF Pro Text&quot;,Helvetica,sans-serif;" transform="matrix(1 0 0 1 1289 1989)">design is preserved when submitting to Xcode.</text>
  <text id="template-version" style="stroke:none;fill:black;font-family:-apple-system,&quot;SF Pro Display&quot;,&quot;SF Pro Text&quot;,Helvetica,sans-serif;text-anchor:end;" transform="matrix(1 0 0 1 3036 1933)">Template v.0.1</text>
  <text style="stroke:none;fill:black;font-family:-apple-system,&quot;SF Pro Display&quot;,&quot;SF Pro Text&quot;,Helvetica,sans-serif;text-anchor:end;" transform="matrix(1 0 0 1 3036 1951)">Generated from arrow.left.and.right.square.fill</text>
  <text style="stroke:none;fill:black;font-family:-apple-system,&quot;SF Pro Display&quot;,&quot;SF Pro Text&quot;,Helvetica,sans-serif;text-anchor:end;" transform="matrix(1 0 0 1 3036 1969)">Typeset at 100 points</text>
  <text style="stroke:none;fill:black;font-family:-apple-system,&quot;SF Pro Display&quot;,&quot;SF Pro Text&quot;,Helvetica,sans-serif;" transform="matrix(1 0 0 1 263 726)">Small</text>
  <text style="stroke:none;fill:black;font-family:-apple-system,&quot;SF Pro Display&quot;,&quot;SF Pro Text&quot;,Helvetica,sans-serif;" transform="matrix(1 0 0 1 263 1156)">Medium</text>
  <text style="stroke:none;fill:black;font-family:-apple-system,&quot;SF Pro Display&quot;,&quot;SF Pro Text&quot;,Helvetica,sans-serif;" transform="matrix(1 0 0 1 263 1586)">Large</text>
 </g>
 <g id="Guides">
  <g id="H-reference" style="fill:#27AAE1;stroke:none;" transform="matrix(1 0 0 1 339 696)">
   <path d="M 54.9316 0 L 57.666 0 L 30.5664 -70.459 L 28.0762 -70.459 L 0.976562 0 L 3.66211 0 L 12.9395 -24.4629 L 45.7031 -24.4629 Z M 29.1992 -67.0898 L 29.4434 -67.0898 L 44.8242 -26.709 L 13.8184 -26.709 Z"/>
  </g>
  <line id="Baseline-S" style="fill:none;stroke:#27AAE1;opacity:1;stroke-width:0.577;" x1="263" x2="3036" y1="696" y2="696"/>
  <line id="Capline-S" style="fill:none;stroke:#27AAE1;opacity:1;stroke-width:0.577;" x1="263" x2="3036" y1="625.541" y2="625.541"/>
  <g id="H-reference" style="fill:#27AAE1;stroke:none;" transform="matrix(1 0 0 1 339 1126)">
   <path d="M 54.9316 0 L 57.666 0 L 30.5664 -70.459 L 28.0762 -70.459 L 0.976562 0 L 3.66211 0 L 12.9395 -24.4629 L 45.7031 -24.4629 Z M 29.1992 -67.0898 L 29.4434 -67.0898 L 44.8242 -26.709 L 13.8184 -26.709 Z"/>
  </g>
  <line id="Baseline-M" style="fill:none;stroke:#27AAE1;opacity:1;stroke-width:0.577;" x1="263" x2="3036" y1="1126" y2="1126"/>
  <line id="Capline-M" style="fill:none;stroke:#27AAE1;opacity:1;stroke-width:0.577;" x1="263" x2="3036" y1="1055.54" y2="1055.54"/>
  <g id="H-reference" style="fill:#27AAE1;stroke:none;" transform="matrix(1 0 0 1 339 1556)">
   <path d="M 54.9316 0 L 57.666 0 L 30.5664 -70.459 L 28.0762 -70.459 L 0.976562 0 L 3.66211 0 L 12.9395 -24.4629 L 45.7031 -24.4629 Z M 29.1992 -67.0898 L 29.4434 -67.0898 L 44.8242 -26.709 L 13.8184 -26.709 Z"/>
  </g>
  <line id="Baseline-L" style="fill:none;stroke:#27AAE1;opacity:1;stroke-width:0.577;" x1="263" x2="3036" y1="1556" y2="1556"/>
  <line id="Capline-L" style="fill:none;stroke:#27AAE1;opacity:1;stroke-width:0.577;" x1="263" x2="3036" y1="1485.54" y2="1485.54"/>
  <rect height="119.336" id="left-margin" style="fill:#00AEEF;stroke:none;opacity:0.4;" width="12.4512" x="1392.42" y="1030.79"/>
  <rect height="119.336" id="right-margin" style="fill:#00AEEF;stroke:none;opacity:0.4;" width="12.5" x="1494.77" y="1030.79"/>
 </g>
 <g id="Symbols">
  <g id="Ultralight-S" transform="matrix(1 0 0 1 516.352 696)">
   <path d="M 19.7754 -1.5625 L 66.9922 -1.5625 C 73.5352 -1.5625 76.9531 -5.12695 76.9531 -11.5234 L 76.9531 -58.7891 C 76.9531 -65.2344 73.5352 -68.75 66.9922 -68.75 L 19.7754 -68.75 C 13.2324 -68.75 9.76562 -65.2832 9.76562 -58.7891 L 9.76562 -11.5234 C 9.76562 -5.0293 13.2324 -1.5625 19.7754 -1.5625 Z M 21.0938 -35.2539 C 21.0938 -35.498 21.1914 -35.791 21.4355 -36.0352 L 36.377 -50.9277 C 36.5723 -51.123 36.8164 -51.3184 37.207 -51.3184 C 37.793 -51.3184 38.1836 -50.8789 38.1836 -50.293 C 38.1836 -49.9023 38.0371 -49.707 37.793 -49.4141 L 29.6387 -41.2598 L 24.6582 -36.2305 L 29.9805 -36.4258 L 60.2051 -36.4258 L 65.5762 -36.2305 L 60.5957 -41.2598 L 52.4414 -49.4141 C 52.1484 -49.707 52.002 -49.9023 52.002 -50.293 C 52.002 -50.8789 52.3926 -51.3184 53.0273 -51.3184 C 53.3691 -51.3184 53.6133 -51.123 53.8086 -50.9277 L 68.75 -36.0352 C 68.9941 -35.791 69.0918 -35.498 69.0918 -35.2539 C 69.0918 -34.9121 68.9453 -34.668 68.75 -34.4727 L 53.8086 -19.5801 C 53.6133 -19.3848 53.3691 -19.1895 53.0273 -19.1895 C 52.3926 -19.1895 52.002 -19.6777 52.002 -20.2148 C 52.002 -20.6055 52.1484 -20.8008 52.4414 -21.0938 L 60.5957 -29.248 L 65.5273 -34.2285 L 60.2051 -34.082 L 29.9805 -34.082 L 24.6582 -34.2285 L 29.6387 -29.248 L 37.793 -21.0938 C 38.0371 -20.8008 38.1836 -20.6055 38.1836 -20.2148 C 38.1836 -19.6777 37.793 -19.1895 37.207 -19.1895 C 36.8164 -19.1895 36.5723 -19.3848 36.377 -19.5801 L 21.4355 -34.4727 C 21.2402 -34.668 21.0938 -34.9121 21.0938 -35.2539 Z"/>
  </g>
  <g id="Thin-S" transform="matrix(1 0 0 1 812.599 696)">
   <path d="M 20.3125 -1.12305 L 67.334 -1.12305 C 74.2676 -1.12305 77.8809 -4.78516 77.8809 -11.6211 L 77.8809 -58.6914 C 77.8809 -65.5762 74.2676 -69.2383 67.334 -69.2383 L 20.3125 -69.2383 C 13.3789 -69.2383 9.76562 -65.625 9.76562 -58.6914 L 9.76562 -11.6211 C 9.76562 -4.6875 13.3789 -1.12305 20.3125 -1.12305 Z M 20.6543 -35.2539 C 20.6543 -35.6934 20.8496 -36.1328 21.2402 -36.5234 L 35.8887 -51.1719 C 36.1816 -51.4648 36.5723 -51.6602 37.1094 -51.6602 C 38.0371 -51.6602 38.6719 -50.9766 38.6719 -50.0977 C 38.6719 -49.5605 38.4277 -49.1699 38.0859 -48.8281 L 30.8105 -41.5527 L 25.8301 -36.7676 L 32.1289 -36.9629 L 58.5449 -36.9629 L 64.8438 -36.7676 L 59.8633 -41.5527 L 52.5879 -48.8281 C 52.2461 -49.1699 52.002 -49.5605 52.002 -50.0977 C 52.002 -50.9766 52.6855 -51.6602 53.5645 -51.6602 C 54.1016 -51.6602 54.4922 -51.4648 54.7852 -51.1719 L 69.4336 -36.5234 C 69.8242 -36.1328 70.0195 -35.6934 70.0195 -35.2539 C 70.0195 -34.7656 69.7754 -34.375 69.4336 -33.9844 L 54.7852 -19.3848 C 54.4922 -19.0918 54.1016 -18.8477 53.5645 -18.8477 C 52.6855 -18.8477 52.002 -19.5801 52.002 -20.459 C 52.002 -20.9961 52.2461 -21.3379 52.5879 -21.6797 L 59.8633 -28.9551 L 64.8438 -33.7402 L 58.5449 -33.5449 L 32.1289 -33.5449 L 25.8301 -33.7402 L 30.8105 -28.9551 L 38.0859 -21.6797 C 38.4766 -21.3379 38.6719 -20.9961 38.6719 -20.459 C 38.6719 -19.5801 38.0371 -18.8477 37.1094 -18.8477 C 36.5723 -18.8477 36.1816 -19.0918 35.8887 -19.3848 L 21.2402 -33.9844 C 20.8984 -34.375 20.6543 -34.7656 20.6543 -35.2539 Z"/>
  </g>
  <g id="Light-S" transform="matrix(1 0 0 1 1108.46 696)">
   <path d="M 21.3867 -0.292969 L 67.9688 -0.292969 C 75.7324 -0.292969 79.5898 -4.15039 79.5898 -11.7676 L 79.5898 -58.5938 C 79.5898 -66.2109 75.7324 -70.1172 67.9688 -70.1172 L 21.3867 -70.1172 C 13.6719 -70.1172 9.76562 -66.2598 9.76562 -58.5938 L 9.76562 -11.7676 C 9.76562 -4.15039 13.6719 -0.292969 21.3867 -0.292969 Z M 19.8242 -35.3027 C 19.8242 -36.0352 20.166 -36.6699 20.8984 -37.4023 L 35.0098 -51.5625 C 35.4492 -52.0508 36.1328 -52.3438 36.9141 -52.3438 C 38.4277 -52.3438 39.5508 -51.1719 39.5508 -49.6582 C 39.5508 -48.877 39.2578 -48.1934 38.7207 -47.7051 L 33.0566 -42.041 L 28.0762 -37.7441 L 36.2305 -38.0371 L 55.3711 -38.0371 L 63.5254 -37.7441 L 58.5449 -42.041 L 52.8809 -47.7051 C 52.3926 -48.1934 52.0508 -48.877 52.0508 -49.6582 C 52.0508 -51.1719 53.1738 -52.3438 54.6875 -52.3438 C 55.4688 -52.3438 56.1523 -52.0508 56.5918 -51.5625 L 70.7031 -37.4023 C 71.4355 -36.6699 71.7773 -36.0352 71.7773 -35.3027 C 71.7773 -34.4727 71.3867 -33.7891 70.7031 -33.1055 L 56.5918 -18.9941 C 56.1523 -18.5059 55.4688 -18.2129 54.6875 -18.2129 C 53.1738 -18.2129 52.0508 -19.4336 52.0508 -20.8984 C 52.0508 -21.7285 52.3438 -22.3633 52.8809 -22.8516 L 58.5449 -28.4668 L 63.5254 -32.8125 L 55.3711 -32.5195 L 36.2305 -32.5195 L 28.0762 -32.8125 L 33.0566 -28.4668 L 38.7207 -22.8516 C 39.2578 -22.3633 39.5508 -21.7285 39.5508 -20.8984 C 39.5508 -19.4336 38.4277 -18.2129 36.9141 -18.2129 C 36.1328 -18.2129 35.4492 -18.5059 35.0098 -18.9941 L 20.8984 -33.1055 C 20.2148 -33.7891 19.8242 -34.4727 19.8242 -35.3027 Z"/>
  </g>
  <g id="Regular-S" transform="matrix(1 0 0 1 1404.51 696)">
   <path d="M 22.2168 0.390625 L 68.457 0.390625 C 76.8066 0.390625 80.9082 -3.71094 80.9082 -11.9141 L 80.9082 -58.4961 C 80.9082 -66.6992 76.8066 -70.8008 68.457 -70.8008 L 22.2168 -70.8008 C 13.916 -70.8008 9.76562 -66.6992 9.76562 -58.4961 L 9.76562 -11.9141 C 9.76562 -3.71094 13.916 0.390625 22.2168 0.390625 Z M 19.1895 -35.3027 C 19.1895 -36.3281 19.6289 -37.1094 20.6055 -38.1348 L 34.2773 -51.9043 C 34.9121 -52.4902 35.791 -52.832 36.7676 -52.832 C 38.7695 -52.832 40.2832 -51.3184 40.2832 -49.3652 C 40.2832 -48.3398 39.8438 -47.4609 39.209 -46.8262 L 34.8145 -42.4805 L 29.834 -38.4766 L 39.4043 -38.8672 L 52.9297 -38.8672 L 62.5 -38.4766 L 57.5195 -42.4805 L 53.0762 -46.8262 C 52.4902 -47.4609 52.0508 -48.3398 52.0508 -49.3652 C 52.0508 -51.3184 53.5645 -52.832 55.5176 -52.832 C 56.4941 -52.832 57.373 -52.4902 58.0078 -51.9043 L 71.6797 -38.1348 C 72.7051 -37.1094 73.0957 -36.3281 73.0957 -35.3027 C 73.0957 -34.2285 72.6562 -33.3984 71.6797 -32.4219 L 58.0078 -18.7012 C 57.373 -18.1152 56.4941 -17.7246 55.5176 -17.7246 C 53.5645 -17.7246 52.0508 -19.2871 52.0508 -21.2402 C 52.0508 -22.2656 52.4414 -23.1445 53.0762 -23.7793 L 57.5195 -28.0762 L 62.5488 -32.1289 L 52.9297 -31.7383 L 39.4043 -31.7383 L 29.7852 -32.1289 L 34.8145 -28.0762 L 39.209 -23.7793 C 39.8926 -23.1445 40.2832 -22.2656 40.2832 -21.2402 C 40.2832 -19.2871 38.7695 -17.7246 36.7676 -17.7246 C 35.791 -17.7246 34.9121 -18.1152 34.2773 -18.7012 L 20.6055 -32.4219 C 19.6777 -33.3984 19.1895 -34.2285 19.1895 -35.3027 Z"/>
  </g>
  <g id="Medium-S" transform="matrix(1 0 0 1 1700.63 696)">
   <path d="M 22.8516 0.976562 L 68.9941 0.976562 C 77.6367 0.976562 82.0801 -3.4668 82.0801 -11.9629 L 82.0801 -58.3984 C 82.0801 -66.9434 77.6367 -71.3867 68.9941 -71.3867 L 22.8516 -71.3867 C 14.2578 -71.3867 9.76562 -66.9434 9.76562 -58.3984 L 9.76562 -11.9629 C 9.76562 -3.4668 14.2578 0.976562 22.8516 0.976562 Z M 19.873 -35.3027 C 19.873 -36.5234 20.3613 -37.5 21.3867 -38.4766 L 34.7168 -51.6113 C 35.4004 -52.2949 36.3281 -52.6855 37.4023 -52.6855 C 39.4531 -52.6855 41.0156 -51.123 41.0156 -48.9746 C 41.0156 -47.9004 40.5273 -46.9238 39.8438 -46.2891 L 35.6445 -42.2363 L 31.2012 -38.8672 L 39.9414 -39.2578 L 53.3691 -39.2578 L 62.1582 -38.8672 L 57.666 -42.2363 L 53.4668 -46.2891 C 52.7832 -46.9238 52.3438 -47.9004 52.3438 -48.9746 C 52.3438 -51.123 53.8574 -52.6855 55.957 -52.6855 C 57.0312 -52.6855 57.9102 -52.2949 58.6426 -51.6113 L 71.9727 -38.4766 C 72.998 -37.5 73.4863 -36.5234 73.4863 -35.3027 C 73.4863 -34.0332 72.9492 -33.0078 71.9727 -32.0312 L 58.6426 -18.9941 C 57.9102 -18.2617 57.0312 -17.8711 55.957 -17.8711 C 53.8574 -17.8711 52.3438 -19.4824 52.3438 -21.582 C 52.3438 -22.7051 52.7344 -23.6816 53.4668 -24.3164 L 57.7148 -28.2715 L 62.1582 -31.7383 L 53.3691 -31.2988 L 39.9414 -31.2988 L 31.1523 -31.7383 L 35.6445 -28.2715 L 39.8438 -24.3164 C 40.5762 -23.6816 41.0156 -22.7051 41.0156 -21.582 C 41.0156 -19.4824 39.4531 -17.8711 37.4023 -17.8711 C 36.3281 -17.8711 35.4004 -18.2617 34.7168 -18.9941 L 21.3867 -32.0312 C 20.3613 -33.0078 19.873 -34.0332 19.873 -35.3027 Z"/>
  </g>
  <g id="Semibold-S" transform="matrix(1 0 0 1 1996.9 696)">
   <path d="M 23.3398 1.41602 L 69.3848 1.41602 C 78.2227 1.41602 82.959 -3.32031 82.959 -12.0605 L 82.959 -58.3496 C 82.959 -67.0898 78.2227 -71.8262 69.3848 -71.8262 L 23.3398 -71.8262 C 14.5508 -71.8262 9.76562 -67.0898 9.76562 -58.3496 L 9.76562 -12.0605 C 9.76562 -3.32031 14.5508 1.41602 23.3398 1.41602 Z M 20.3613 -35.3027 C 20.3613 -36.6699 20.8984 -37.7441 21.9727 -38.7695 L 35.0098 -51.3672 C 35.791 -52.1484 36.7188 -52.5391 37.8906 -52.5391 C 39.9902 -52.5391 41.6016 -50.9277 41.6016 -48.6816 C 41.6016 -47.5586 41.1133 -46.5332 40.3809 -45.8496 L 36.3281 -42.0898 L 32.2754 -39.1113 L 40.3809 -39.5508 L 53.7109 -39.5508 L 61.8652 -39.1113 L 57.8125 -42.0898 L 53.7598 -45.8496 C 53.0273 -46.5332 52.5391 -47.5586 52.5391 -48.6816 C 52.5391 -50.9277 54.1016 -52.5391 56.25 -52.5391 C 57.4219 -52.5391 58.3008 -52.1484 59.1309 -51.3672 L 72.168 -38.7695 C 73.2422 -37.7441 73.7793 -36.6699 73.7793 -35.3027 C 73.7793 -33.8867 73.2422 -32.7637 72.168 -31.7383 L 59.1309 -19.1895 C 58.3008 -18.4082 57.4219 -18.0176 56.25 -18.0176 C 54.1016 -18.0176 52.5391 -19.6777 52.5391 -21.875 C 52.5391 -22.998 53.0273 -24.0723 53.7598 -24.707 L 57.8613 -28.418 L 61.9141 -31.4453 L 53.7109 -31.0059 L 40.3809 -31.0059 L 32.2266 -31.4453 L 36.2793 -28.418 L 40.3809 -24.707 C 41.1133 -24.0723 41.6016 -22.998 41.6016 -21.875 C 41.6016 -19.6777 39.9902 -18.0176 37.8906 -18.0176 C 36.7188 -18.0176 35.791 -18.4082 35.0098 -19.1895 L 21.9727 -31.7383 C 20.8984 -32.7637 20.3613 -33.8867 20.3613 -35.3027 Z"/>
  </g>
  <g id="Bold-S" transform="matrix(1 0 0 1 2293.01 696)">
   <path d="M 23.9746 2.00195 L 69.9219 2.00195 C 79.0527 2.00195 84.1797 -3.07617 84.1797 -12.1582 L 84.1797 -58.252 C 84.1797 -67.334 79.0527 -72.4121 69.9219 -72.4121 L 23.9746 -72.4121 C 14.8926 -72.4121 9.76562 -67.334 9.76562 -58.252 L 9.76562 -12.1582 C 9.76562 -3.07617 14.8926 2.00195 23.9746 2.00195 Z M 21.0449 -35.2539 C 21.0449 -36.8652 21.582 -38.0859 22.7539 -39.1602 L 35.4004 -51.0742 C 36.3281 -51.9531 37.207 -52.3438 38.4766 -52.3438 C 40.7227 -52.3438 42.334 -50.6836 42.334 -48.291 C 42.334 -47.1191 41.8457 -45.9961 41.0156 -45.3125 L 37.207 -41.8945 L 33.6426 -39.502 L 40.9668 -39.9902 L 54.1992 -39.9902 L 61.5234 -39.502 L 57.959 -41.8945 L 54.1504 -45.3125 C 53.3691 -45.9961 52.832 -47.1191 52.832 -48.291 C 52.832 -50.6836 54.4434 -52.3438 56.6895 -52.3438 C 57.959 -52.3438 58.8379 -51.9531 59.7656 -51.0742 L 72.4121 -39.1602 C 73.584 -38.0859 74.1211 -36.8652 74.1211 -35.2539 C 74.1211 -33.6914 73.5352 -32.4219 72.4121 -31.3477 L 59.7656 -19.4336 C 58.8379 -18.6035 57.959 -18.1641 56.6895 -18.1641 C 54.4434 -18.1641 52.832 -19.873 52.832 -22.2168 C 52.832 -23.4375 53.3203 -24.5605 54.1504 -25.2441 L 58.0566 -28.6133 L 61.5234 -31.0547 L 54.1992 -30.5664 L 40.9668 -30.5664 L 33.6426 -31.0547 L 37.1094 -28.6133 L 41.0156 -25.2441 C 41.8457 -24.5605 42.334 -23.4375 42.334 -22.2168 C 42.334 -19.873 40.7227 -18.1641 38.4766 -18.1641 C 37.207 -18.1641 36.3281 -18.6035 35.4004 -19.4336 L 22.7539 -31.3477 C 21.6309 -32.4219 21.0449 -33.6914 21.0449 -35.2539 Z"/>
  </g>
  <g id="Heavy-S" transform="matrix(1 0 0 1 2588.86 696)">
   <path d="M 24.9023 2.83203 L 70.7031 2.83203 C 80.2246 2.83203 85.8887 -2.7832 85.8887 -12.3047 L 85.8887 -58.1055 C 85.8887 -67.627 80.2246 -73.2422 70.7031 -73.2422 L 24.9023 -73.2422 C 15.3809 -73.2422 9.76562 -67.627 9.76562 -58.1055 L 9.76562 -12.3047 C 9.76562 -2.7832 15.3809 2.83203 24.9023 2.83203 Z M 22.0215 -35.2539 C 22.0215 -37.1094 22.6562 -38.623 23.9258 -39.7461 L 35.9863 -50.6348 C 37.0605 -51.6602 37.9395 -52.0996 39.4043 -52.0996 C 41.748 -52.0996 43.457 -50.3418 43.457 -47.7539 C 43.457 -46.4844 42.8711 -45.2148 41.9434 -44.4824 L 38.4766 -41.6016 L 35.6934 -40.0391 L 41.7969 -40.5762 L 54.8828 -40.5762 L 61.0352 -40.0391 L 58.2031 -41.6016 L 54.7363 -44.4824 C 53.8086 -45.2148 53.2227 -46.4844 53.2227 -47.7539 C 53.2227 -50.3418 54.9316 -52.0996 57.2754 -52.0996 C 58.7402 -52.0996 59.6191 -51.6602 60.7422 -50.6348 L 72.8027 -39.7461 C 74.0234 -38.623 74.6582 -37.1094 74.6582 -35.2539 C 74.6582 -33.3984 74.0234 -31.8848 72.8027 -30.7617 L 60.7422 -19.873 C 59.6191 -18.8477 58.7402 -18.4082 57.2754 -18.4082 C 54.9316 -18.4082 53.2227 -20.166 53.2227 -22.7539 C 53.2227 -24.0723 53.8086 -25.293 54.7363 -26.0254 L 58.3496 -28.9062 L 61.0352 -30.4688 L 54.8828 -29.9805 L 41.7969 -29.9805 L 35.6934 -30.4688 L 38.3301 -28.9062 L 41.9434 -26.0254 C 42.8711 -25.293 43.457 -24.0723 43.457 -22.7539 C 43.457 -20.166 41.748 -18.4082 39.4043 -18.4082 C 37.9395 -18.4082 37.0605 -18.8477 35.9863 -19.873 L 23.9258 -30.7617 C 22.6562 -31.8848 22.0215 -33.3984 22.0215 -35.2539 Z"/>
  </g>
  <g id="Black-S" transform="matrix(1 0 0 1 2884.82 696)">
   <path d="M 25.7324 3.61328 L 71.4355 3.61328 C 81.2988 3.61328 87.4023 -2.49023 87.4023 -12.4023 L 87.4023 -58.0078 C 87.4023 -67.9199 81.2988 -74.0234 71.4355 -74.0234 L 25.7324 -74.0234 C 15.8203 -74.0234 9.76562 -67.9199 9.76562 -58.0078 L 9.76562 -12.4023 C 9.76562 -2.49023 15.8203 3.61328 25.7324 3.61328 Z M 22.9004 -35.2539 C 22.9004 -37.3535 23.584 -39.0625 24.9023 -40.2344 L 36.4746 -50.293 C 37.7441 -51.416 38.623 -51.8555 40.1855 -51.8555 C 42.6758 -51.8555 44.4336 -50.0488 44.4336 -47.2656 C 44.4336 -45.9473 43.7988 -44.5312 42.8223 -43.75 L 39.5996 -41.3574 L 37.5 -40.4785 L 42.5781 -41.0645 L 55.4688 -41.0645 L 60.5469 -40.4785 L 58.4473 -41.3574 L 55.2246 -43.75 C 54.248 -44.5312 53.6133 -45.9473 53.6133 -47.2656 C 53.6133 -50.0488 55.3711 -51.8555 57.8613 -51.8555 C 59.4238 -51.8555 60.3027 -51.416 61.5723 -50.293 L 73.1445 -40.2344 C 74.4629 -39.0625 75.1465 -37.3535 75.1465 -35.2539 C 75.1465 -33.1055 74.4629 -31.4453 73.1445 -30.2734 L 61.5723 -20.2148 C 60.3027 -19.0918 59.4238 -18.6035 57.8613 -18.6035 C 55.3711 -18.6035 53.6133 -20.4102 53.6133 -23.2422 C 53.6133 -24.6094 54.248 -25.9766 55.2246 -26.7578 L 58.6426 -29.1504 L 60.5469 -29.9805 L 55.4688 -29.3945 L 42.5781 -29.3945 L 37.5 -29.9805 L 39.4043 -29.1504 L 42.8223 -26.7578 C 43.7988 -25.9766 44.4336 -24.6094 44.4336 -23.2422 C 44.4336 -20.4102 42.6758 -18.6035 40.1855 -18.6035 C 38.623 -18.6035 37.7441 -19.0918 36.4746 -20.2148 L 24.9023 -30.2734 C 23.584 -31.4453 22.9004 -33.1055 22.9004 -35.2539 Z"/>
  </g>
  <g id="Ultralight-M" transform="matrix(1 0 0 1 504.535 1126)">
   <path d="M 25 7.56836 L 85.3516 7.56836 C 93.5547 7.56836 97.9004 3.125 97.9004 -4.98047 L 97.9004 -65.2832 C 97.9004 -73.3887 93.5547 -77.832 85.3516 -77.832 L 25 -77.832 C 16.7969 -77.832 12.4512 -73.4863 12.4512 -65.2832 L 12.4512 -4.98047 C 12.4512 3.22266 16.7969 7.56836 25 7.56836 Z M 27.0996 -35.2539 C 27.0996 -35.498 27.1973 -35.8398 27.4414 -36.084 L 46.582 -55.1758 C 46.8262 -55.4199 47.0703 -55.6152 47.5098 -55.6152 C 48.1445 -55.6152 48.584 -55.127 48.584 -54.541 C 48.584 -54.1016 48.3887 -53.8574 48.0957 -53.5645 L 37.3535 -42.8223 L 31.0059 -36.3281 L 37.4512 -36.5234 L 77.4902 -36.5234 L 83.9355 -36.3281 L 77.5879 -42.8223 L 66.8457 -53.5645 C 66.5527 -53.8574 66.3574 -54.1016 66.3574 -54.541 C 66.3574 -55.127 66.7969 -55.6152 67.4316 -55.6152 C 67.8711 -55.6152 68.1152 -55.4199 68.3594 -55.1758 L 87.5 -36.084 C 87.7441 -35.8398 87.8418 -35.498 87.8418 -35.2539 C 87.8418 -34.9121 87.6953 -34.6191 87.5 -34.4238 L 68.3594 -15.332 C 68.1152 -15.0879 67.8711 -14.8926 67.4316 -14.8926 C 66.7969 -14.8926 66.3574 -15.3809 66.3574 -15.9668 C 66.3574 -16.4062 66.5527 -16.6504 66.8457 -16.9434 L 77.5879 -27.6855 L 83.8867 -34.1309 L 77.4902 -33.9844 L 37.4512 -33.9844 L 31.0547 -34.1309 L 37.3535 -27.6855 L 48.0957 -16.9434 C 48.3887 -16.6504 48.584 -16.4062 48.584 -15.9668 C 48.584 -15.3809 48.1445 -14.8926 47.5098 -14.8926 C 47.0703 -14.8926 46.8262 -15.0879 46.582 -15.332 L 27.4414 -34.4238 C 27.2461 -34.6191 27.0996 -34.9121 27.0996 -35.2539 Z"/>
  </g>
  <g id="Thin-M" transform="matrix(1 0 0 1 800.734 1126)">
   <path d="M 25.6348 8.05664 L 85.7422 8.05664 C 94.3848 8.05664 98.9258 3.4668 98.9258 -5.0293 L 98.9258 -65.2344 C 98.9258 -73.7305 94.3848 -78.3691 85.7422 -78.3691 L 25.6348 -78.3691 C 16.9922 -78.3691 12.4512 -73.877 12.4512 -65.2344 L 12.4512 -5.0293 C 12.4512 3.56445 16.9922 8.05664 25.6348 8.05664 Z M 26.6113 -35.2539 C 26.6113 -35.6934 26.8066 -36.1816 27.2461 -36.6211 L 46.0938 -55.4199 C 46.4355 -55.7617 46.8262 -56.0059 47.4121 -56.0059 C 48.3887 -56.0059 49.1211 -55.2734 49.1211 -54.2969 C 49.1211 -53.7109 48.8281 -53.3203 48.4375 -52.9297 L 38.6719 -43.1641 L 32.3242 -36.9141 L 39.8438 -37.1582 L 75.6348 -37.1582 L 83.1543 -36.9141 L 76.8066 -43.1641 L 67.041 -52.9297 C 66.6504 -53.3203 66.4062 -53.7109 66.4062 -54.2969 C 66.4062 -55.2734 67.0898 -56.0059 68.0664 -56.0059 C 68.6523 -56.0059 69.0918 -55.7617 69.4336 -55.4199 L 88.2324 -36.6211 C 88.6719 -36.1816 88.8672 -35.6934 88.8672 -35.2539 C 88.8672 -34.7168 88.623 -34.2773 88.2324 -33.9355 L 69.4336 -15.0879 C 69.0918 -14.7461 68.6523 -14.5508 68.0664 -14.5508 C 67.0898 -14.5508 66.4062 -15.2832 66.4062 -16.2598 C 66.4062 -16.8457 66.6016 -17.2363 67.041 -17.627 L 76.8066 -27.3926 L 83.1055 -33.5938 L 75.6348 -33.3984 L 39.8438 -33.3984 L 32.373 -33.5938 L 38.6719 -27.3926 L 48.4375 -17.627 C 48.877 -17.2363 49.1211 -16.8457 49.1211 -16.2598 C 49.1211 -15.2832 48.3887 -14.5508 47.4121 -14.5508 C 46.8262 -14.5508 46.4355 -14.7461 46.0938 -15.0879 L 27.2461 -33.9355 C 26.8555 -34.2773 26.6113 -34.7168 26.6113 -35.2539 Z"/>
  </g>
  <g id="Light-M" transform="matrix(1 0 0 1 1096.47 1126)">
   <path d="M 26.8555 9.0332 L 86.4746 9.0332 C 96.0449 9.0332 100.879 4.15039 100.879 -5.22461 L 100.879 -65.0879 C 100.879 -74.5117 96.0449 -79.3945 86.4746 -79.3945 L 26.8555 -79.3945 C 17.334 -79.3945 12.4512 -74.5605 12.4512 -65.0879 L 12.4512 -5.22461 C 12.4512 4.19922 17.334 9.0332 26.8555 9.0332 Z M 25.6836 -35.3027 C 25.6836 -36.1328 26.0254 -36.8652 26.8066 -37.6465 L 45.0195 -55.9082 C 45.5566 -56.4453 46.3379 -56.7871 47.2168 -56.7871 C 48.877 -56.7871 50.1465 -55.5176 50.1465 -53.8574 C 50.1465 -52.9297 49.7559 -52.1973 49.1699 -51.6113 L 41.2598 -43.75 L 34.9121 -38.0371 L 44.5312 -38.3789 L 71.9727 -38.3789 L 81.6406 -38.0371 L 75.293 -43.75 L 67.334 -51.6113 C 66.7969 -52.1973 66.4062 -52.9297 66.4062 -53.8574 C 66.4062 -55.5176 67.627 -56.7871 69.3359 -56.7871 C 70.2148 -56.7871 70.9473 -56.4453 71.4844 -55.9082 L 89.7461 -37.6465 C 90.5273 -36.8652 90.8691 -36.1328 90.8691 -35.3027 C 90.8691 -34.375 90.4785 -33.6426 89.7461 -32.9102 L 71.4844 -14.6484 C 70.9473 -14.1113 70.2148 -13.7695 69.3359 -13.7695 C 67.627 -13.7695 66.4062 -15.1367 66.4062 -16.748 C 66.4062 -17.6758 66.748 -18.4082 67.334 -18.9453 L 75.293 -26.8066 L 81.6406 -32.5195 L 71.9727 -32.2266 L 44.5312 -32.2266 L 34.9121 -32.5195 L 41.2598 -26.8066 L 49.1699 -18.9453 C 49.7559 -18.4082 50.1465 -17.6758 50.1465 -16.748 C 50.1465 -15.1367 48.877 -13.7695 47.2168 -13.7695 C 46.3379 -13.7695 45.5566 -14.1113 45.0195 -14.6484 L 26.8066 -32.9102 C 26.0742 -33.6426 25.6836 -34.375 25.6836 -35.3027 Z"/>
  </g>
  <g id="Regular-M" transform="matrix(1 0 0 1 1392.42 1126)">
   <path d="M 27.7832 9.76562 L 87.0605 9.76562 C 97.2656 9.76562 102.344 4.6875 102.344 -5.37109 L 102.344 -64.9902 C 102.344 -75.0488 97.2656 -80.127 87.0605 -80.127 L 27.7832 -80.127 C 17.627 -80.127 12.4512 -75.0977 12.4512 -64.9902 L 12.4512 -5.37109 C 12.4512 4.73633 17.627 9.76562 27.7832 9.76562 Z M 24.9512 -35.3027 C 24.9512 -36.4258 25.4395 -37.3535 26.5137 -38.4277 L 44.2383 -56.2988 C 44.9707 -56.9824 45.9473 -57.373 47.0703 -57.373 C 49.2676 -57.373 50.9277 -55.6641 50.9277 -53.5156 C 50.9277 -52.3438 50.4395 -51.3672 49.707 -50.6348 L 43.2129 -44.1895 L 36.8652 -38.8672 L 48.0957 -39.3066 L 69.2383 -39.3066 L 80.4688 -38.8672 L 74.1211 -44.1895 L 67.627 -50.6348 C 66.8945 -51.3672 66.4062 -52.3438 66.4062 -53.5156 C 66.4062 -55.6641 68.0664 -57.373 70.2637 -57.373 C 71.3867 -57.373 72.3633 -56.9824 73.0469 -56.2988 L 90.8203 -38.4277 C 91.8945 -37.3535 92.3828 -36.4258 92.3828 -35.3027 C 92.3828 -34.082 91.8457 -33.1543 90.8203 -32.1289 L 73.0469 -14.3555 C 72.3633 -13.6719 71.3867 -13.2324 70.2637 -13.2324 C 68.0664 -13.2324 66.4062 -14.9902 66.4062 -17.1387 C 66.4062 -18.3105 66.8457 -19.2871 67.627 -19.9707 L 74.1211 -26.3672 L 80.5176 -31.7383 L 69.2383 -31.2988 L 48.0957 -31.2988 L 36.8164 -31.7383 L 43.2129 -26.3672 L 49.707 -19.9707 C 50.4883 -19.2871 50.9277 -18.3105 50.9277 -17.1387 C 50.9277 -14.9902 49.2676 -13.2324 47.0703 -13.2324 C 45.9473 -13.2324 44.9707 -13.6719 44.2383 -14.3555 L 26.5137 -32.1289 C 25.4883 -33.1543 24.9512 -34.082 24.9512 -35.3027 Z"/>
  </g>
  <g id="Medium-M" transform="matrix(1 0 0 1 1688.45 1126)">
   <path d="M 28.5645 10.4492 L 87.6465 10.4492 C 98.2422 10.4492 103.711 4.98047 103.711 -5.46875 L 103.711 -64.8926 C 103.711 -75.3418 98.2422 -80.8105 87.6465 -80.8105 L 28.5645 -80.8105 C 17.9688 -80.8105 12.4512 -75.3906 12.4512 -64.8926 L 12.4512 -5.46875 C 12.4512 4.98047 17.9688 10.4492 28.5645 10.4492 Z M 25.5371 -35.3027 C 25.5371 -36.6699 26.0742 -37.7441 27.2461 -38.916 L 44.5801 -56.0059 C 45.4102 -56.8359 46.3867 -57.2266 47.6562 -57.2266 C 50 -57.2266 51.7578 -55.4688 51.7578 -53.0762 C 51.7578 -51.8066 51.2207 -50.6836 50.4395 -49.9512 L 44.3359 -44.043 L 38.5254 -39.3555 L 49.0723 -39.7949 L 69.3848 -39.7949 L 79.9805 -39.3555 L 74.1699 -44.043 L 68.0176 -49.9512 C 67.2363 -50.6836 66.6992 -51.8066 66.6992 -53.0762 C 66.6992 -55.4688 68.457 -57.2266 70.8008 -57.2266 C 72.0703 -57.2266 73.0957 -56.8359 73.9258 -56.0059 L 91.2109 -38.916 C 92.3828 -37.7441 92.9199 -36.6699 92.9199 -35.3027 C 92.9199 -33.8867 92.334 -32.7637 91.2109 -31.6406 L 73.9258 -14.5996 C 73.0957 -13.7695 72.0703 -13.3301 70.8008 -13.3301 C 68.457 -13.3301 66.6992 -15.1855 66.6992 -17.5293 C 66.6992 -18.7988 67.1875 -19.9219 68.0176 -20.6543 L 74.1699 -26.5137 L 80.0293 -31.25 L 69.3848 -30.7617 L 49.0723 -30.7617 L 38.4766 -31.25 L 44.2871 -26.5137 L 50.4395 -20.6543 C 51.2695 -19.9219 51.7578 -18.7988 51.7578 -17.5293 C 51.7578 -15.1855 50 -13.3301 47.6562 -13.3301 C 46.3867 -13.3301 45.4102 -13.7695 44.5801 -14.5996 L 27.2461 -31.6406 C 26.123 -32.7637 25.5371 -33.8867 25.5371 -35.3027 Z"/>
  </g>
  <g id="Semibold-M" transform="matrix(1 0 0 1 1984.65 1126)">
   <path d="M 29.1016 10.9863 L 88.1348 10.9863 C 98.9746 10.9863 104.785 5.17578 104.785 -5.56641 L 104.785 -64.8438 C 104.785 -75.5859 98.9746 -81.3477 88.1348 -81.3477 L 29.1016 -81.3477 C 18.3105 -81.3477 12.4512 -75.5859 12.4512 -64.8438 L 12.4512 -5.56641 C 12.4512 5.22461 18.3105 10.9863 29.1016 10.9863 Z M 26.0254 -35.3027 C 26.0254 -36.8652 26.5625 -38.0859 27.832 -39.2578 L 44.8242 -55.8105 C 45.752 -56.7383 46.7773 -57.1777 48.1445 -57.1777 C 50.5859 -57.1777 52.4414 -55.3223 52.4414 -52.7344 C 52.4414 -51.416 51.8555 -50.1953 51.0254 -49.4141 L 45.166 -43.8965 L 39.7461 -39.6973 L 49.8535 -40.2344 L 69.4824 -40.2344 L 79.5898 -39.6973 L 74.1699 -43.8965 L 68.3594 -49.4141 C 67.4805 -50.1953 66.9434 -51.416 66.9434 -52.7344 C 66.9434 -55.3223 68.75 -57.1777 71.2402 -57.1777 C 72.6074 -57.1777 73.6328 -56.7383 74.5605 -55.8105 L 91.5527 -39.2578 C 92.7734 -38.0859 93.3594 -36.8652 93.3594 -35.3027 C 93.3594 -33.6914 92.7246 -32.4219 91.5527 -31.2988 L 74.5605 -14.7461 C 73.6328 -13.8672 72.6074 -13.3789 71.2402 -13.3789 C 68.75 -13.3789 66.9434 -15.332 66.9434 -17.8711 C 66.9434 -19.1895 67.4805 -20.3613 68.3594 -21.1426 L 74.2188 -26.6602 L 79.6387 -30.8594 L 69.4824 -30.3711 L 49.8535 -30.3711 L 39.7461 -30.8594 L 45.1172 -26.6602 L 51.0254 -21.1426 C 51.9043 -20.3613 52.4414 -19.1895 52.4414 -17.8711 C 52.4414 -15.332 50.5859 -13.3789 48.1445 -13.3789 C 46.7773 -13.3789 45.752 -13.8672 44.8242 -14.7461 L 27.832 -31.2988 C 26.6113 -32.4219 26.0254 -33.6914 26.0254 -35.3027 Z"/>
  </g>
  <g id="Bold-M" transform="matrix(1 0 0 1 2280.65 1126)">
   <path d="M 29.8828 11.6699 L 88.7207 11.6699 C 100 11.6699 106.152 5.46875 106.152 -5.66406 L 106.152 -64.6973 C 106.152 -75.8789 100 -82.0312 88.7207 -82.0312 L 29.8828 -82.0312 C 18.6523 -82.0312 12.4512 -75.8789 12.4512 -64.6973 L 12.4512 -5.66406 C 12.4512 5.51758 18.6523 11.6699 29.8828 11.6699 Z M 26.6113 -35.3027 C 26.6113 -37.0605 27.2461 -38.5254 28.6133 -39.7461 L 45.1172 -55.5664 C 46.1914 -56.5918 47.2656 -57.0312 48.7305 -57.0312 C 51.3672 -57.0312 53.3203 -55.0781 53.3203 -52.2949 C 53.3203 -50.8789 52.6855 -49.5605 51.7578 -48.7305 L 46.2891 -43.75 L 41.4062 -40.1855 L 50.8789 -40.7227 L 69.6777 -40.7227 L 79.1016 -40.1855 L 74.2188 -43.75 L 68.7988 -48.7305 C 67.8223 -49.5605 67.2363 -50.8789 67.2363 -52.2949 C 67.2363 -55.0781 69.1406 -57.0312 71.7773 -57.0312 C 73.291 -57.0312 74.3164 -56.5918 75.3906 -55.5664 L 91.9434 -39.7461 C 93.2617 -38.5254 93.9453 -37.0605 93.9453 -35.3027 C 93.9453 -33.4473 93.2617 -31.9824 91.9434 -30.7617 L 75.3906 -14.9902 C 74.3164 -14.0137 73.291 -13.5254 71.7773 -13.5254 C 69.1406 -13.5254 67.2363 -15.5273 67.2363 -18.2617 C 67.2363 -19.6777 67.8223 -20.9961 68.7988 -21.8262 L 74.3164 -26.8066 L 79.1016 -30.3711 L 69.6777 -29.834 L 50.8789 -29.834 L 41.4062 -30.3711 L 46.2402 -26.8066 L 51.7578 -21.8262 C 52.6855 -20.9961 53.3203 -19.6777 53.3203 -18.2617 C 53.3203 -15.5273 51.3672 -13.5254 48.7305 -13.5254 C 47.2656 -13.5254 46.1914 -14.0137 45.1172 -14.9902 L 28.6133 -30.7617 C 27.2949 -31.9824 26.6113 -33.4473 26.6113 -35.3027 Z"/>
  </g>
  <g id="Heavy-M" transform="matrix(1 0 0 1 2576.36 1126)">
   <path d="M 31.0059 12.6465 L 89.6484 12.6465 C 101.416 12.6465 108.154 5.9082 108.154 -5.81055 L 108.154 -64.5508 C 108.154 -76.2695 101.416 -83.0566 89.6484 -83.0566 L 31.0059 -83.0566 C 19.2383 -83.0566 12.4512 -76.3184 12.4512 -64.5508 L 12.4512 -5.81055 C 12.4512 5.9082 19.2383 12.6465 31.0059 12.6465 Z M 27.4902 -35.2539 C 27.4902 -37.4023 28.2227 -39.1113 29.7363 -40.4785 L 45.6055 -55.1758 C 46.875 -56.3477 47.9492 -56.8848 49.6582 -56.8848 C 52.4902 -56.8848 54.541 -54.7852 54.541 -51.6602 C 54.541 -50.1465 53.8574 -48.6328 52.7832 -47.7539 L 47.9492 -43.5547 L 43.8477 -40.8691 L 52.3438 -41.5039 L 69.873 -41.5039 L 78.3691 -40.8691 L 74.2676 -43.5547 L 69.4336 -47.7539 C 68.3594 -48.6328 67.6758 -50.1465 67.6758 -51.6602 C 67.6758 -54.7852 69.7266 -56.8848 72.5586 -56.8848 C 74.2676 -56.8848 75.3418 -56.3477 76.6113 -55.1758 L 92.4805 -40.4785 C 93.9941 -39.1113 94.7266 -37.4023 94.7266 -35.2539 C 94.7266 -33.1055 93.9941 -31.3965 92.4805 -30.0781 L 76.6113 -15.332 C 75.3418 -14.1602 74.2676 -13.6719 72.5586 -13.6719 C 69.7266 -13.6719 67.6758 -15.7715 67.6758 -18.8965 C 67.6758 -20.459 68.3105 -21.9238 69.4336 -22.8027 L 74.4141 -27.002 L 78.3691 -29.6875 L 69.873 -29.0527 L 52.3438 -29.0527 L 43.8477 -29.6875 L 47.8027 -27.002 L 52.7832 -22.8027 C 53.9062 -21.9238 54.541 -20.459 54.541 -18.8965 C 54.541 -15.7715 52.4902 -13.6719 49.6582 -13.6719 C 47.9492 -13.6719 46.875 -14.1602 45.6055 -15.332 L 29.7363 -30.0781 C 28.2227 -31.3965 27.4902 -33.1055 27.4902 -35.2539 Z"/>
  </g>
  <g id="Black-M" transform="matrix(1 0 0 1 2872.19 1126)">
   <path d="M 31.9824 13.5742 L 90.4297 13.5742 C 102.686 13.5742 109.961 6.29883 109.961 -5.95703 L 109.961 -64.4043 C 109.961 -76.6602 102.686 -83.9355 90.4297 -83.9355 L 31.9824 -83.9355 C 19.7266 -83.9355 12.4512 -76.6602 12.4512 -64.4043 L 12.4512 -5.95703 C 12.4512 6.29883 19.7266 13.5742 31.9824 13.5742 Z M 28.2715 -35.2539 C 28.2715 -37.6953 29.1016 -39.6484 30.7129 -41.1133 L 45.9961 -54.834 C 47.4609 -56.1523 48.5352 -56.7383 50.4395 -56.7383 C 53.5156 -56.7383 55.7129 -54.4922 55.7129 -51.123 C 55.7129 -49.4629 54.9316 -47.8027 53.7598 -46.8262 L 49.4141 -43.3105 L 45.9961 -41.4551 L 53.6621 -42.1875 L 70.0684 -42.1875 L 77.7344 -41.4551 L 74.3164 -43.3105 L 69.9707 -46.8262 C 68.7988 -47.8027 68.0176 -49.4629 68.0176 -51.123 C 68.0176 -54.4922 70.2148 -56.7383 73.291 -56.7383 C 75.1465 -56.7383 76.2695 -56.1523 77.7344 -54.834 L 93.0176 -41.1133 C 94.6289 -39.6484 95.459 -37.6953 95.459 -35.2539 C 95.459 -32.8125 94.6289 -30.8594 93.0176 -29.3945 L 77.7344 -15.6738 C 76.2695 -14.3555 75.1465 -13.7695 73.291 -13.7695 C 70.2148 -13.7695 68.0176 -16.0156 68.0176 -19.4336 C 68.0176 -21.0938 68.7988 -22.7539 69.9707 -23.6816 L 74.5117 -27.1973 L 77.7344 -29.0527 L 70.0684 -28.3691 L 53.6621 -28.3691 L 45.9961 -29.0527 L 49.2188 -27.1973 L 53.7598 -23.6816 C 54.9316 -22.7539 55.7129 -21.0938 55.7129 -19.4336 C 55.7129 -16.0156 53.5156 -13.7695 50.4395 -13.7695 C 48.5352 -13.7695 47.4609 -14.3555 45.9961 -15.6738 L 30.7129 -29.3945 C 29.1016 -30.8594 28.2715 -32.8125 28.2715 -35.2539 Z"/>
  </g>
  <g id="Ultralight-L" transform="matrix(1 0 0 1 488.739 1556)">
   <path d="M 31.9824 19.7754 L 109.961 19.7754 C 120.361 19.7754 125.879 14.0625 125.879 3.85742 L 125.879 -74.0723 C 125.879 -84.2773 120.361 -89.9902 109.961 -89.9902 L 31.9824 -89.9902 C 21.6309 -89.9902 16.0645 -84.4727 16.0645 -74.0723 L 16.0645 3.85742 C 16.0645 14.2578 21.6309 19.7754 31.9824 19.7754 Z M 35.1562 -35.2539 C 35.1562 -35.498 35.3027 -35.8887 35.498 -36.1328 L 60.3516 -60.8887 C 60.6445 -61.1328 60.8398 -61.377 61.3281 -61.377 C 62.0117 -61.377 62.4512 -60.8398 62.4512 -60.2539 C 62.4512 -59.7656 62.2559 -59.5215 61.8652 -59.1797 L 47.6074 -44.9219 L 39.4043 -36.4258 L 47.2656 -36.6211 L 100.781 -36.6211 L 108.691 -36.4258 L 100.488 -44.9219 L 86.1816 -59.1797 C 85.8398 -59.5215 85.6445 -59.7656 85.6445 -60.2539 C 85.6445 -60.8398 86.0352 -61.377 86.7676 -61.377 C 87.207 -61.377 87.4512 -61.1328 87.7441 -60.8887 L 112.598 -36.1328 C 112.793 -35.8887 112.939 -35.498 112.939 -35.2539 C 112.939 -34.8633 112.744 -34.5703 112.598 -34.4238 L 87.7441 -9.66797 C 87.4512 -9.375 87.207 -9.17969 86.7676 -9.17969 C 86.0352 -9.17969 85.6445 -9.66797 85.6445 -10.3027 C 85.6445 -10.7422 85.8398 -10.9863 86.1816 -11.3281 L 100.488 -25.6348 L 108.594 -34.0332 L 100.781 -33.8867 L 47.2656 -33.8867 L 39.502 -34.0332 L 47.6074 -25.6348 L 61.8652 -11.3281 C 62.2559 -10.9863 62.4512 -10.7422 62.4512 -10.3027 C 62.4512 -9.66797 62.0117 -9.17969 61.3281 -9.17969 C 60.8398 -9.17969 60.6445 -9.375 60.3516 -9.66797 L 35.498 -34.4238 C 35.3516 -34.5703 35.1562 -34.8633 35.1562 -35.2539 Z"/>
  </g>
  <g id="Thin-L" transform="matrix(1 0 0 1 784.889 1556)">
   <path d="M 32.7148 20.3613 L 110.4 20.3613 C 121.289 20.3613 127.002 14.4531 127.002 3.75977 L 127.002 -73.9746 C 127.002 -84.7168 121.289 -90.5762 110.4 -90.5762 L 32.7148 -90.5762 C 21.8262 -90.5762 16.0645 -84.8633 16.0645 -73.9746 L 16.0645 3.75977 C 16.0645 14.6484 21.8262 20.3613 32.7148 20.3613 Z M 34.6191 -35.2539 C 34.6191 -35.6934 34.8145 -36.2793 35.2539 -36.7188 L 59.7656 -61.1328 C 60.1562 -61.5234 60.5469 -61.8164 61.2305 -61.8164 C 62.3047 -61.8164 63.0371 -60.9863 63.0371 -59.9609 C 63.0371 -59.3262 62.7441 -58.8867 62.3047 -58.4473 L 49.0723 -45.2637 L 40.918 -37.0605 L 49.9512 -37.3047 L 98.7305 -37.3047 L 107.812 -37.0605 L 99.6094 -45.2637 L 86.377 -58.4473 C 85.9375 -58.8867 85.6445 -59.3262 85.6445 -59.9609 C 85.6445 -60.9863 86.377 -61.8164 87.4512 -61.8164 C 88.1348 -61.8164 88.5254 -61.5234 88.916 -61.1328 L 113.428 -36.7188 C 113.867 -36.2793 114.062 -35.6934 114.062 -35.2539 C 114.062 -34.668 113.77 -34.1797 113.428 -33.8379 L 88.916 -9.42383 C 88.5254 -9.0332 88.1348 -8.74023 87.4512 -8.74023 C 86.377 -8.74023 85.6445 -9.57031 85.6445 -10.5469 C 85.6445 -11.2305 85.9375 -11.6699 86.377 -12.1094 L 99.6094 -25.293 L 107.715 -33.4473 L 98.7305 -33.252 L 49.9512 -33.252 L 40.9668 -33.4473 L 49.0723 -25.293 L 62.3047 -12.1094 C 62.7441 -11.6699 63.0371 -11.2305 63.0371 -10.5469 C 63.0371 -9.57031 62.3047 -8.74023 61.2305 -8.74023 C 60.5469 -8.74023 60.1562 -9.0332 59.7656 -9.42383 L 35.2539 -33.8379 C 34.9121 -34.1797 34.6191 -34.668 34.6191 -35.2539 Z"/>
  </g>
  <g id="Light-L" transform="matrix(1 0 0 1 1080.5 1556)">
   <path d="M 34.082 21.4355 L 111.23 21.4355 C 123.096 21.4355 129.199 15.2344 129.199 3.56445 L 129.199 -73.8281 C 129.199 -85.5469 123.096 -91.6992 111.23 -91.6992 L 34.082 -91.6992 C 22.2168 -91.6992 16.0645 -85.6445 16.0645 -73.8281 L 16.0645 3.56445 C 16.0645 15.3809 22.2168 21.4355 34.082 21.4355 Z M 33.5938 -35.3027 C 33.5938 -36.1816 33.9355 -37.0117 34.8145 -37.8418 L 58.6426 -61.6699 C 59.2285 -62.3047 60.0098 -62.6465 60.9863 -62.6465 C 62.8418 -62.6465 64.1602 -61.2793 64.1602 -59.4727 C 64.1602 -58.4473 63.7695 -57.666 63.0859 -57.0312 L 52.002 -45.8984 L 43.7988 -38.2812 L 55.1758 -38.6719 L 94.6777 -38.6719 L 106.104 -38.2812 L 97.9004 -45.8984 L 86.7676 -57.0312 C 86.084 -57.666 85.6934 -58.4473 85.6934 -59.4727 C 85.6934 -61.2793 87.0117 -62.6465 88.8672 -62.6465 C 89.8438 -62.6465 90.625 -62.3047 91.2598 -61.6699 L 115.039 -37.8418 C 115.918 -37.0117 116.309 -36.1816 116.309 -35.3027 C 116.309 -34.2773 115.82 -33.4961 115.039 -32.7148 L 91.2598 -8.93555 C 90.625 -8.30078 89.8438 -7.91016 88.8672 -7.91016 C 87.0117 -7.91016 85.6934 -9.375 85.6934 -11.1328 C 85.6934 -12.1582 86.084 -12.9395 86.7676 -13.5742 L 97.9004 -24.6582 L 106.055 -32.2754 L 94.6777 -31.9336 L 55.1758 -31.9336 L 43.7988 -32.2754 L 52.002 -24.6582 L 63.0859 -13.5742 C 63.7695 -12.9395 64.1602 -12.1582 64.1602 -11.1328 C 64.1602 -9.375 62.8418 -7.91016 60.9863 -7.91016 C 60.0098 -7.91016 59.2285 -8.30078 58.6426 -8.93555 L 34.8145 -32.7148 C 34.0332 -33.4961 33.5938 -34.2773 33.5938 -35.3027 Z"/>
  </g>
  <g id="Regular-L" transform="matrix(1 0 0 1 1376.36 1556)">
   <path d="M 35.1074 22.2168 L 111.865 22.2168 C 124.512 22.2168 130.859 15.8691 130.859 3.41797 L 130.859 -73.7305 C 130.859 -86.1816 124.512 -92.5293 111.865 -92.5293 L 35.1074 -92.5293 C 22.5098 -92.5293 16.0645 -86.2305 16.0645 -73.7305 L 16.0645 3.41797 C 16.0645 15.918 22.5098 22.2168 35.1074 22.2168 Z M 32.7637 -35.3027 C 32.7637 -36.5234 33.3008 -37.5488 34.4238 -38.7207 L 57.7637 -62.1094 C 58.4961 -62.8418 59.5703 -63.2812 60.8398 -63.2812 C 63.2324 -63.2812 65.0391 -61.4746 65.0391 -59.082 C 65.0391 -57.7637 64.502 -56.7383 63.7207 -55.9082 L 54.1504 -46.4355 L 45.9473 -39.2578 L 59.1309 -39.7461 L 91.6016 -39.7461 L 104.785 -39.2578 L 96.582 -46.4355 L 87.0117 -55.9082 C 86.2305 -56.7383 85.6934 -57.7637 85.6934 -59.082 C 85.6934 -61.4746 87.5 -63.2812 89.8926 -63.2812 C 91.1621 -63.2812 92.2363 -62.8418 93.0176 -62.1094 L 116.309 -38.7207 C 117.48 -37.5488 117.969 -36.5234 117.969 -35.3027 C 117.969 -33.9844 117.383 -32.959 116.309 -31.8848 L 93.0176 -8.54492 C 92.2363 -7.76367 91.1621 -7.27539 89.8926 -7.27539 C 87.5 -7.27539 85.6934 -9.22852 85.6934 -11.5723 C 85.6934 -12.8418 86.1816 -13.916 87.0117 -14.6973 L 96.582 -24.1699 L 104.785 -31.3477 L 91.6016 -30.9082 L 59.1309 -30.9082 L 45.9473 -31.3477 L 54.1504 -24.1699 L 63.7207 -14.6973 C 64.5508 -13.916 65.0391 -12.8418 65.0391 -11.5723 C 65.0391 -9.22852 63.2324 -7.27539 60.8398 -7.27539 C 59.5703 -7.27539 58.4961 -7.76367 57.7637 -8.54492 L 34.4238 -31.8848 C 33.3496 -32.959 32.7637 -33.9844 32.7637 -35.3027 Z"/>
  </g>
  <g id="Medium-L" transform="matrix(1 0 0 1 1672.31 1556)">
   <path d="M 35.9863 22.998 L 112.549 22.998 C 125.635 22.998 132.422 16.2109 132.422 3.27148 L 132.422 -73.6328 C 132.422 -86.5234 125.635 -93.3105 112.549 -93.3105 L 35.9863 -93.3105 C 22.9004 -93.3105 16.0645 -86.5723 16.0645 -73.6328 L 16.0645 3.27148 C 16.0645 16.2598 22.9004 22.998 35.9863 22.998 Z M 33.2031 -35.3027 C 33.2031 -36.8164 33.7891 -38.0371 35.0586 -39.3066 L 57.8613 -61.9141 C 58.7891 -62.8418 59.9121 -63.3301 61.377 -63.3301 C 64.0137 -63.3301 66.0156 -61.3281 66.0156 -58.5938 C 66.0156 -57.1777 65.3809 -55.957 64.502 -55.0781 L 55.5664 -46.3867 L 47.8516 -39.8438 L 60.791 -40.3809 L 91.1621 -40.3809 L 104.102 -39.8438 L 96.3867 -46.3867 L 87.4512 -55.0781 C 86.5723 -55.957 85.9863 -57.1777 85.9863 -58.5938 C 85.9863 -61.3281 87.9395 -63.3301 90.5762 -63.3301 C 92.041 -63.3301 93.1641 -62.8418 94.0918 -61.9141 L 116.895 -39.3066 C 118.213 -38.0371 118.799 -36.8164 118.799 -35.3027 C 118.799 -33.7402 118.115 -32.4707 116.895 -31.25 L 94.0918 -8.69141 C 93.1641 -7.8125 92.041 -7.27539 90.5762 -7.27539 C 87.9395 -7.27539 85.9863 -9.375 85.9863 -12.0117 C 85.9863 -13.4277 86.5234 -14.6484 87.4512 -15.5273 L 96.4355 -24.2188 L 104.102 -30.7617 L 91.1621 -30.2246 L 60.791 -30.2246 L 47.8516 -30.7617 L 55.5664 -24.2188 L 64.502 -15.5273 C 65.4297 -14.6484 66.0156 -13.4277 66.0156 -12.0117 C 66.0156 -9.375 64.0137 -7.27539 61.377 -7.27539 C 59.9121 -7.27539 58.7891 -7.8125 57.8613 -8.69141 L 35.0586 -31.25 C 33.8379 -32.4707 33.2031 -33.7402 33.2031 -35.3027 Z"/>
  </g>
  <g id="Semibold-L" transform="matrix(1 0 0 1 1968.41 1556)">
   <path d="M 36.6699 23.584 L 113.037 23.584 C 126.514 23.584 133.594 16.5039 133.594 3.17383 L 133.594 -73.5352 C 133.594 -86.8164 126.514 -93.9453 113.037 -93.9453 L 36.6699 -93.9453 C 23.2422 -93.9453 16.0645 -86.8652 16.0645 -73.5352 L 16.0645 3.17383 C 16.0645 16.5527 23.2422 23.584 36.6699 23.584 Z M 33.4961 -35.3027 C 33.4961 -37.0117 34.1309 -38.4277 35.5469 -39.7949 L 57.959 -61.8164 C 59.0332 -62.793 60.2051 -63.3301 61.7676 -63.3301 C 64.5996 -63.3301 66.6992 -61.1816 66.6992 -58.252 C 66.6992 -56.7383 66.0645 -55.3711 65.0879 -54.4434 L 56.6406 -46.3379 L 49.3164 -40.2832 L 62.0605 -40.8691 L 90.8691 -40.8691 L 103.564 -40.2832 L 96.2402 -46.3379 L 87.793 -54.4434 C 86.8164 -55.3711 86.1816 -56.7383 86.1816 -58.252 C 86.1816 -61.1816 88.2812 -63.3301 91.1133 -63.3301 C 92.6758 -63.3301 93.8965 -62.793 94.9219 -61.8164 L 117.334 -39.7949 C 118.75 -38.4277 119.385 -37.0117 119.385 -35.3027 C 119.385 -33.5449 118.701 -32.1289 117.334 -30.8105 L 94.9219 -8.83789 C 93.8965 -7.8125 92.6758 -7.27539 91.1133 -7.27539 C 88.2812 -7.27539 86.1816 -9.47266 86.1816 -12.3535 C 86.1816 -13.916 86.7676 -15.2344 87.793 -16.1621 L 96.2891 -24.2676 L 103.613 -30.3223 L 90.8691 -29.7363 L 62.0605 -29.7363 L 49.3164 -30.3223 L 56.5918 -24.2676 L 65.0879 -16.1621 C 66.1133 -15.2344 66.6992 -13.916 66.6992 -12.3535 C 66.6992 -9.47266 64.5996 -7.27539 61.7676 -7.27539 C 60.2051 -7.27539 59.0332 -7.8125 57.959 -8.83789 L 35.5469 -30.8105 C 34.1797 -32.1289 33.4961 -33.5449 33.4961 -35.3027 Z"/>
  </g>
  <g id="Bold-L" transform="matrix(1 0 0 1 2264.34 1556)">
   <path d="M 37.5488 24.3652 L 113.721 24.3652 C 127.686 24.3652 135.205 16.8945 135.205 3.07617 L 135.205 -73.3887 C 135.205 -87.207 127.686 -94.7266 113.721 -94.7266 L 37.5488 -94.7266 C 23.6328 -94.7266 16.0645 -87.2559 16.0645 -73.3887 L 16.0645 3.07617 C 16.0645 16.8945 23.6328 24.3652 37.5488 24.3652 Z M 33.8867 -35.3027 C 33.8867 -37.3047 34.6191 -38.916 36.1816 -40.3809 L 58.1055 -61.6211 C 59.2773 -62.793 60.5469 -63.3301 62.3047 -63.3301 C 65.3809 -63.3301 67.6758 -61.0352 67.6758 -57.8125 C 67.6758 -56.1523 66.9434 -54.5898 65.8691 -53.6133 L 58.1055 -46.2891 L 51.2207 -40.918 L 63.6719 -41.5527 L 90.4297 -41.5527 L 102.881 -40.918 L 96.0449 -46.2891 L 88.2812 -53.6133 C 87.1582 -54.5898 86.4258 -56.1523 86.4258 -57.8125 C 86.4258 -61.0352 88.7207 -63.3301 91.7969 -63.3301 C 93.5547 -63.3301 94.8242 -62.793 95.9961 -61.6211 L 117.92 -40.3809 C 119.482 -38.916 120.215 -37.3047 120.215 -35.3027 C 120.215 -33.252 119.434 -31.6406 117.92 -30.1758 L 95.9961 -8.98438 C 94.8242 -7.8125 93.5547 -7.22656 91.7969 -7.22656 C 88.7207 -7.22656 86.4258 -9.61914 86.4258 -12.8418 C 86.4258 -14.502 87.1094 -16.0156 88.2812 -16.9922 L 96.0938 -24.3164 L 102.881 -29.6875 L 90.4297 -29.0527 L 63.6719 -29.0527 L 51.2207 -29.6875 L 58.0078 -24.3164 L 65.8691 -16.9922 C 66.9922 -16.0156 67.6758 -14.502 67.6758 -12.8418 C 67.6758 -9.61914 65.3809 -7.22656 62.3047 -7.22656 C 60.5469 -7.22656 59.2773 -7.8125 58.1055 -8.98438 L 36.1816 -30.1758 C 34.668 -31.6406 33.8867 -33.252 33.8867 -35.3027 Z"/>
  </g>
  <g id="Heavy-L" transform="matrix(1 0 0 1 2559.91 1556)">
   <path d="M 38.8184 25.4883 L 114.697 25.4883 C 129.346 25.4883 137.451 17.4316 137.451 2.88086 L 137.451 -73.2422 C 137.451 -87.793 129.346 -95.8496 114.697 -95.8496 L 38.8184 -95.8496 C 24.2188 -95.8496 16.0645 -87.793 16.0645 -73.2422 L 16.0645 2.88086 C 16.0645 17.4316 24.2188 25.4883 38.8184 25.4883 Z M 34.4727 -35.3027 C 34.4727 -37.6953 35.3516 -39.5996 37.1094 -41.2598 L 58.3008 -61.4258 C 59.7168 -62.7441 61.084 -63.3789 63.0859 -63.3789 C 66.5527 -63.3789 69.043 -60.791 69.043 -57.1289 C 69.043 -55.2734 68.2617 -53.5156 66.9922 -52.4414 L 60.1562 -46.1914 L 54.0039 -41.7969 L 66.1133 -42.5293 L 89.7949 -42.5293 L 101.855 -41.7969 L 95.752 -46.1914 L 88.916 -52.4414 C 87.6465 -53.5156 86.8164 -55.2734 86.8164 -57.1289 C 86.8164 -60.791 89.3555 -63.3789 92.8223 -63.3789 C 94.8242 -63.3789 96.1914 -62.7441 97.6074 -61.4258 L 118.799 -41.2598 C 120.557 -39.5996 121.436 -37.6953 121.436 -35.3027 C 121.436 -32.8613 120.508 -30.9082 118.799 -29.2969 L 97.6074 -9.17969 C 96.1914 -7.86133 94.8242 -7.17773 92.8223 -7.17773 C 89.3555 -7.17773 86.8164 -9.81445 86.8164 -13.4766 C 86.8164 -15.3809 87.5977 -17.0898 88.916 -18.1641 L 95.8496 -24.3652 L 101.904 -28.8086 L 89.7949 -28.0762 L 66.1133 -28.0762 L 54.0039 -28.8086 L 60.0586 -24.3652 L 66.9922 -18.1641 C 68.2617 -17.0898 69.043 -15.3809 69.043 -13.4766 C 69.043 -9.81445 66.5527 -7.17773 63.0859 -7.17773 C 61.084 -7.17773 59.7168 -7.86133 58.3008 -9.17969 L 37.1094 -29.2969 C 35.3516 -30.9082 34.4727 -32.8613 34.4727 -35.3027 Z"/>
  </g>
  <g id="Black-L" transform="matrix(1 0 0 1 2855.62 1556)">
   <path d="M 39.9902 26.5137 L 115.576 26.5137 C 130.859 26.5137 139.502 17.8711 139.502 2.68555 L 139.502 -73.0957 C 139.502 -88.2812 130.859 -96.875 115.576 -96.875 L 39.9902 -96.875 C 24.7559 -96.875 16.0645 -88.2812 16.0645 -73.0957 L 16.0645 2.68555 C 16.0645 17.8711 24.7559 26.5137 39.9902 26.5137 Z M 35.0098 -35.3027 C 35.0098 -38.0371 35.9863 -40.2344 37.9395 -42.041 L 58.4473 -61.1816 C 60.1074 -62.6953 61.5723 -63.3789 63.7695 -63.3789 C 67.5781 -63.3789 70.3125 -60.5957 70.3125 -56.4941 C 70.3125 -54.4922 69.3848 -52.4902 68.0176 -51.3672 L 62.0117 -46.1426 L 56.4941 -42.5781 L 68.2129 -43.4082 L 89.2578 -43.4082 L 100.977 -42.5781 L 95.459 -46.1426 L 89.502 -51.3672 C 88.0859 -52.4902 87.207 -54.4922 87.207 -56.4941 C 87.207 -60.5957 89.9414 -63.3789 93.7012 -63.3789 C 95.9473 -63.3789 97.4121 -62.6953 99.0234 -61.1816 L 119.531 -42.041 C 121.533 -40.2344 122.461 -38.0371 122.461 -35.3027 C 122.461 -32.5195 121.484 -30.3223 119.531 -28.5156 L 99.0234 -9.375 C 97.4121 -7.86133 95.9473 -7.17773 93.7012 -7.17773 C 89.9414 -7.17773 87.207 -10.0098 87.207 -14.0625 C 87.207 -16.1621 88.0859 -18.0664 89.502 -19.2383 L 95.6543 -24.4141 L 101.025 -28.0273 L 89.2578 -27.1973 L 68.2129 -27.1973 L 56.4941 -28.0273 L 61.8652 -24.4141 L 68.0176 -19.2383 C 69.4336 -18.0664 70.3125 -16.1621 70.3125 -14.0625 C 70.3125 -10.0098 67.5781 -7.17773 63.7695 -7.17773 C 61.5723 -7.17773 60.1074 -7.86133 58.4473 -9.375 L 37.9395 -28.5156 C 35.9863 -30.3223 35.0098 -32.5195 35.0098 -35.3027 Z"/>
  </g>
 </g>
</svg>
