<?xml version="1.0" encoding="UTF-8"?>
<!--Generator: Apple Native CoreSVG 123-->
<!DOCTYPE svg
PUBLIC "-//W3C//DTD SVG 1.1//EN"
       "http://www.w3.org/Graphics/SVG/1.1/DTD/svg11.dtd">
<svg version="1.1" xmlns="http://www.w3.org/2000/svg" xmlns:xlink="http://www.w3.org/1999/xlink" width="3300" height="2200">
 <!--glyph: "uni100080.medium", point size: 100.000000, font version: "Version 15.0d4e20", template writer version: "2"-->
 <g id="Notes">
  <rect height="2200" id="artboard" style="fill:white;opacity:1" width="3300" x="0" y="0"/>
  <line id="" style="fill:none;stroke:black;opacity:1;stroke-width:0.5;" x1="263" x2="3036" y1="292" y2="292"/>
  <text style="stroke:none;fill:black;font-family:-apple-system,&quot;SF Pro Display&quot;,&quot;SF Pro Text&quot;,Helvetica,sans-serif;font-weight:bold;" transform="matrix(1 0 0 1 263 322)">Weight/Scale Variations</text>
  <text style="stroke:none;fill:black;font-family:-apple-system,&quot;SF Pro Display&quot;,&quot;SF Pro Text&quot;,Helvetica,sans-serif;text-anchor:middle;" transform="matrix(1 0 0 1 559.711 322)">Ultralight</text>
  <text style="stroke:none;fill:black;font-family:-apple-system,&quot;SF Pro Display&quot;,&quot;SF Pro Text&quot;,Helvetica,sans-serif;text-anchor:middle;" transform="matrix(1 0 0 1 856.422 322)">Thin</text>
  <text style="stroke:none;fill:black;font-family:-apple-system,&quot;SF Pro Display&quot;,&quot;SF Pro Text&quot;,Helvetica,sans-serif;text-anchor:middle;" transform="matrix(1 0 0 1 1153.13 322)">Light</text>
  <text style="stroke:none;fill:black;font-family:-apple-system,&quot;SF Pro Display&quot;,&quot;SF Pro Text&quot;,Helvetica,sans-serif;text-anchor:middle;" transform="matrix(1 0 0 1 1449.84 322)">Regular</text>
  <text style="stroke:none;fill:black;font-family:-apple-system,&quot;SF Pro Display&quot;,&quot;SF Pro Text&quot;,Helvetica,sans-serif;text-anchor:middle;" transform="matrix(1 0 0 1 1746.56 322)">Medium</text>
  <text style="stroke:none;fill:black;font-family:-apple-system,&quot;SF Pro Display&quot;,&quot;SF Pro Text&quot;,Helvetica,sans-serif;text-anchor:middle;" transform="matrix(1 0 0 1 2043.27 322)">Semibold</text>
  <text style="stroke:none;fill:black;font-family:-apple-system,&quot;SF Pro Display&quot;,&quot;SF Pro Text&quot;,Helvetica,sans-serif;text-anchor:middle;" transform="matrix(1 0 0 1 2339.98 322)">Bold</text>
  <text style="stroke:none;fill:black;font-family:-apple-system,&quot;SF Pro Display&quot;,&quot;SF Pro Text&quot;,Helvetica,sans-serif;text-anchor:middle;" transform="matrix(1 0 0 1 2636.69 322)">Heavy</text>
  <text style="stroke:none;fill:black;font-family:-apple-system,&quot;SF Pro Display&quot;,&quot;SF Pro Text&quot;,Helvetica,sans-serif;text-anchor:middle;" transform="matrix(1 0 0 1 2933.4 322)">Black</text>
  <line id="" style="fill:none;stroke:black;opacity:1;stroke-width:0.5;" x1="263" x2="3036" y1="1903" y2="1903"/>
  <g id="" transform="matrix(1 0 0 1 263 1933)">
   <path d="M 9.24805 0.830078 C 13.5547 0.830078 17.1387 -2.74414 17.1387 -7.05078 C 17.1387 -11.3574 13.5449 -14.9316 9.23828 -14.9316 C 4.94141 -14.9316 1.36719 -11.3574 1.36719 -7.05078 C 1.36719 -2.74414 4.95117 0.830078 9.24805 0.830078 Z M 9.24805 -0.654297 C 5.70312 -0.654297 2.87109 -3.49609 2.87109 -7.05078 C 2.87109 -10.6055 5.69336 -13.4473 9.23828 -13.4473 C 12.793 -13.4473 15.6348 -10.6055 15.6445 -7.05078 C 15.6543 -3.49609 12.8027 -0.654297 9.24805 -0.654297 Z M 9.22852 -3.42773 C 9.69727 -3.42773 9.9707 -3.74023 9.9707 -4.25781 L 9.9707 -6.31836 L 12.1973 -6.31836 C 12.6953 -6.31836 13.0371 -6.57227 13.0371 -7.04102 C 13.0371 -7.51953 12.7148 -7.7832 12.1973 -7.7832 L 9.9707 -7.7832 L 9.9707 -10.0098 C 9.9707 -10.5273 9.69727 -10.8496 9.22852 -10.8496 C 8.75977 -10.8496 8.50586 -10.5078 8.50586 -10.0098 L 8.50586 -7.7832 L 6.29883 -7.7832 C 5.78125 -7.7832 5.44922 -7.51953 5.44922 -7.04102 C 5.44922 -6.57227 5.80078 -6.31836 6.29883 -6.31836 L 8.50586 -6.31836 L 8.50586 -4.25781 C 8.50586 -3.75977 8.75977 -3.42773 9.22852 -3.42773 Z"/>
  </g>
  <g id="" transform="matrix(1 0 0 1 281.506 1933)">
   <path d="M 11.709 2.91016 C 17.1484 2.91016 21.6699 -1.60156 21.6699 -7.05078 C 21.6699 -12.4902 17.1387 -17.0117 11.6992 -17.0117 C 6.25 -17.0117 1.74805 -12.4902 1.74805 -7.05078 C 1.74805 -1.60156 6.25977 2.91016 11.709 2.91016 Z M 11.709 1.25 C 7.09961 1.25 3.41797 -2.44141 3.41797 -7.05078 C 3.41797 -11.6504 7.08984 -15.3516 11.6992 -15.3516 C 16.2988 -15.3516 20 -11.6504 20.0098 -7.05078 C 20.0195 -2.44141 16.3086 1.25 11.709 1.25 Z M 11.6797 -2.41211 C 12.207 -2.41211 12.5195 -2.77344 12.5195 -3.33984 L 12.5195 -6.23047 L 15.5762 -6.23047 C 16.123 -6.23047 16.5039 -6.51367 16.5039 -7.03125 C 16.5039 -7.55859 16.1426 -7.86133 15.5762 -7.86133 L 12.5195 -7.86133 L 12.5195 -10.9277 C 12.5195 -11.5039 12.207 -11.8555 11.6797 -11.8555 C 11.1621 -11.8555 10.8789 -11.4844 10.8789 -10.9277 L 10.8789 -7.86133 L 7.83203 -7.86133 C 7.25586 -7.86133 6.89453 -7.55859 6.89453 -7.03125 C 6.89453 -6.51367 7.28516 -6.23047 7.83203 -6.23047 L 10.8789 -6.23047 L 10.8789 -3.33984 C 10.8789 -2.79297 11.1621 -2.41211 11.6797 -2.41211 Z"/>
  </g>
  <g id="" transform="matrix(1 0 0 1 304.914 1933)">
   <path d="M 14.9707 5.67383 C 21.9336 5.67383 27.6855 -0.078125 27.6855 -7.04102 C 27.6855 -14.0039 21.9238 -19.7559 14.9609 -19.7559 C 7.99805 -19.7559 2.25586 -14.0039 2.25586 -7.04102 C 2.25586 -0.078125 8.00781 5.67383 14.9707 5.67383 Z M 14.9707 3.85742 C 8.92578 3.85742 4.08203 -1.00586 4.08203 -7.04102 C 4.08203 -13.0762 8.91602 -17.9395 14.9609 -17.9395 C 20.9961 -17.9395 25.8594 -13.0762 25.8691 -7.04102 C 25.8789 -1.00586 21.0059 3.85742 14.9707 3.85742 Z M 14.9414 -1.06445 C 15.5176 -1.06445 15.8594 -1.45508 15.8594 -2.06055 L 15.8594 -6.13281 L 20.0977 -6.13281 C 20.6934 -6.13281 21.1133 -6.46484 21.1133 -7.02148 C 21.1133 -7.59766 20.7227 -7.93945 20.0977 -7.93945 L 15.8594 -7.93945 L 15.8594 -12.1875 C 15.8594 -12.8027 15.5176 -13.1934 14.9414 -13.1934 C 14.3848 -13.1934 14.0625 -12.7832 14.0625 -12.1875 L 14.0625 -7.93945 L 9.82422 -7.93945 C 9.20898 -7.93945 8.80859 -7.59766 8.80859 -7.02148 C 8.80859 -6.46484 9.23828 -6.13281 9.82422 -6.13281 L 14.0625 -6.13281 L 14.0625 -2.06055 C 14.0625 -1.47461 14.3848 -1.06445 14.9414 -1.06445 Z"/>
  </g>
  <text style="stroke:none;fill:black;font-family:-apple-system,&quot;SF Pro Display&quot;,&quot;SF Pro Text&quot;,Helvetica,sans-serif;font-weight:bold;" transform="matrix(1 0 0 1 263 1953)">Design Variations</text>
  <text style="stroke:none;fill:black;font-family:-apple-system,&quot;SF Pro Display&quot;,&quot;SF Pro Text&quot;,Helvetica,sans-serif;" transform="matrix(1 0 0 1 263 1971)">Symbols are supported in up to nine weights and three scales.</text>
  <text style="stroke:none;fill:black;font-family:-apple-system,&quot;SF Pro Display&quot;,&quot;SF Pro Text&quot;,Helvetica,sans-serif;" transform="matrix(1 0 0 1 263 1989)">For optimal layout with text and other symbols, vertically align</text>
  <text style="stroke:none;fill:black;font-family:-apple-system,&quot;SF Pro Display&quot;,&quot;SF Pro Text&quot;,Helvetica,sans-serif;" transform="matrix(1 0 0 1 263 2007)">symbols with the adjacent text.</text>
  <rect height="14" id="" style="fill:#00AEEF;stroke:none;opacity:0.4;" width="3" x="776" y="1919"/>
  <g id="" transform="matrix(1 0 0 1 779 1933)">
   <path d="M 10.5273 0 L 12.373 0 L 7.17773 -14.0918 L 5.43945 -14.0918 L 0.244141 0 L 2.08984 0 L 3.50586 -4.0332 L 9.11133 -4.0332 Z M 6.2793 -11.9531 L 6.33789 -11.9531 L 8.59375 -5.52734 L 4.02344 -5.52734 Z"/>
  </g>
  <rect height="14" id="" style="fill:#00AEEF;stroke:none;opacity:0.4;" width="3" x="791.617" y="1919"/>
  <text style="stroke:none;fill:black;font-family:-apple-system,&quot;SF Pro Display&quot;,&quot;SF Pro Text&quot;,Helvetica,sans-serif;font-weight:bold;" transform="matrix(1 0 0 1 776 1953)">Side Bearings</text>
  <text style="stroke:none;fill:black;font-family:-apple-system,&quot;SF Pro Display&quot;,&quot;SF Pro Text&quot;,Helvetica,sans-serif;" transform="matrix(1 0 0 1 776 1971)">Horizontal padding on the left and right side of each symbol</text>
  <text style="stroke:none;fill:black;font-family:-apple-system,&quot;SF Pro Display&quot;,&quot;SF Pro Text&quot;,Helvetica,sans-serif;" transform="matrix(1 0 0 1 776 1989)">can be adjusted by modifying the width of the blue rectangles.</text>
  <text style="stroke:none;fill:black;font-family:-apple-system,&quot;SF Pro Display&quot;,&quot;SF Pro Text&quot;,Helvetica,sans-serif;" transform="matrix(1 0 0 1 776 2007)">Modifications are automatically applied proportionally to all</text>
  <text style="stroke:none;fill:black;font-family:-apple-system,&quot;SF Pro Display&quot;,&quot;SF Pro Text&quot;,Helvetica,sans-serif;" transform="matrix(1 0 0 1 776 2025)">scales and weights.</text>
  <g id="" transform="matrix(1 0 0 1 1289 1933)">
   <path d="M 2.96875 2.35352 L 3.80859 3.19336 C 4.84375 4.22852 6.12305 4.15039 7.19727 2.97852 L 16.1621 -6.82617 C 16.5527 -6.74805 16.9629 -6.8457 17.4902 -7.02148 C 18.1738 -7.25586 18.2715 -7.25586 18.3887 -7.13867 C 18.5352 -7.01172 18.4863 -6.89453 18.2422 -6.25 C 17.8809 -5.33203 17.8125 -4.79492 18.5547 -4.02344 L 19.4238 -3.13477 C 20.2734 -2.24609 21.3281 -2.26562 22.2168 -3.14453 L 25.0586 -5.97656 C 25.9473 -6.86523 25.957 -7.92969 25.0781 -8.7793 L 24.1797 -9.64844 C 23.4082 -10.4004 22.8711 -10.3516 21.9629 -9.98047 C 21.3184 -9.72656 21.2012 -9.6875 21.0645 -9.81445 C 20.9375 -9.93164 20.9473 -10.0391 21.1816 -10.7129 C 21.5332 -11.6895 21.5723 -12.2852 20.752 -13.0957 L 19.3359 -14.5117 C 15.1953 -18.6133 11.2305 -18.7402 7.65625 -15.4395 C 7.08008 -14.9023 6.99219 -14.1504 7.53906 -13.6133 L 7.79297 -13.3594 C 8.22266 -12.9297 8.86719 -12.8418 9.41406 -13.1152 C 11.0645 -13.9453 12.2559 -14.0234 13.457 -12.9785 L 13.0273 -11.416 C 12.8516 -10.8008 12.793 -10.3418 12.9199 -9.93164 L 3.18359 -1.04492 C 2.02148 0.0292969 1.93359 1.32812 2.96875 2.35352 Z M 8.96484 -14.4922 C 8.89648 -14.5703 8.86719 -14.6582 8.99414 -14.7559 C 11.709 -17.2852 15.0391 -16.8457 18.3496 -13.5254 L 19.6973 -12.168 C 20.0879 -11.7773 20.0977 -11.582 19.8828 -10.8691 C 19.6582 -10.127 19.502 -9.53125 20.1465 -8.88672 C 20.8105 -8.22266 21.2891 -8.41797 22.207 -8.63281 C 22.9004 -8.79883 23.0664 -8.79883 23.4473 -8.41797 L 24.0918 -7.77344 C 24.4043 -7.48047 24.4141 -7.32422 24.0723 -6.97266 L 21.2207 -4.13086 C 20.8887 -3.79883 20.7227 -3.79883 20.4297 -4.10156 L 19.7852 -4.75586 C 19.4141 -5.13672 19.4141 -5.30273 19.5801 -6.01562 C 19.7852 -6.88477 19.9805 -7.38281 19.3262 -8.04688 C 18.6719 -8.7207 18.0762 -8.57422 17.3438 -8.33008 C 16.5625 -8.06641 16.3281 -8.06641 15.8984 -8.49609 L 14.6094 -9.78516 C 14.1699 -10.2246 14.1309 -10.4395 14.2676 -10.9082 L 15.0293 -13.3984 C 13.3887 -15.2832 11.4941 -15.5566 9.20898 -14.4434 C 9.11133 -14.3945 9.04297 -14.4141 8.96484 -14.4922 Z M 3.96484 1.36719 C 3.52539 0.927734 3.54492 0.537109 4.14062 -0.00976562 L 13.7402 -8.81836 L 15 -7.55859 L 6.17188 2.02148 C 5.625 2.60742 5.24414 2.64648 4.79492 2.19727 Z"/>
  </g>
  <text style="stroke:none;fill:black;font-family:-apple-system,&quot;SF Pro Display&quot;,&quot;SF Pro Text&quot;,Helvetica,sans-serif;font-weight:bold;" transform="matrix(1 0 0 1 1289 1953)">Exporting</text>
  <text style="stroke:none;fill:black;font-family:-apple-system,&quot;SF Pro Display&quot;,&quot;SF Pro Text&quot;,Helvetica,sans-serif;" transform="matrix(1 0 0 1 1289 1971)">Symbols should be outlined when exporting to ensure the</text>
  <text style="stroke:none;fill:black;font-family:-apple-system,&quot;SF Pro Display&quot;,&quot;SF Pro Text&quot;,Helvetica,sans-serif;" transform="matrix(1 0 0 1 1289 1989)">design is preserved when submitting to Xcode.</text>
  <text id="template-version" style="stroke:none;fill:black;font-family:-apple-system,&quot;SF Pro Display&quot;,&quot;SF Pro Text&quot;,Helvetica,sans-serif;text-anchor:end;" transform="matrix(1 0 0 1 3036 1933)">Template v.0.1</text>
  <text style="stroke:none;fill:black;font-family:-apple-system,&quot;SF Pro Display&quot;,&quot;SF Pro Text&quot;,Helvetica,sans-serif;text-anchor:end;" transform="matrix(1 0 0 1 3036 1951)">Generated from arrow.right.arrow.left.circle</text>
  <text style="stroke:none;fill:black;font-family:-apple-system,&quot;SF Pro Display&quot;,&quot;SF Pro Text&quot;,Helvetica,sans-serif;text-anchor:end;" transform="matrix(1 0 0 1 3036 1969)">Typeset at 100 points</text>
  <text style="stroke:none;fill:black;font-family:-apple-system,&quot;SF Pro Display&quot;,&quot;SF Pro Text&quot;,Helvetica,sans-serif;" transform="matrix(1 0 0 1 263 726)">Small</text>
  <text style="stroke:none;fill:black;font-family:-apple-system,&quot;SF Pro Display&quot;,&quot;SF Pro Text&quot;,Helvetica,sans-serif;" transform="matrix(1 0 0 1 263 1156)">Medium</text>
  <text style="stroke:none;fill:black;font-family:-apple-system,&quot;SF Pro Display&quot;,&quot;SF Pro Text&quot;,Helvetica,sans-serif;" transform="matrix(1 0 0 1 263 1586)">Large</text>
 </g>
 <g id="Guides">
  <g id="H-reference" style="fill:#27AAE1;stroke:none;" transform="matrix(1 0 0 1 339 696)">
   <path d="M 54.9316 0 L 57.666 0 L 30.5664 -70.459 L 28.0762 -70.459 L 0.976562 0 L 3.66211 0 L 12.9395 -24.4629 L 45.7031 -24.4629 Z M 29.1992 -67.0898 L 29.4434 -67.0898 L 44.8242 -26.709 L 13.8184 -26.709 Z"/>
  </g>
  <line id="Baseline-S" style="fill:none;stroke:#27AAE1;opacity:1;stroke-width:0.577;" x1="263" x2="3036" y1="696" y2="696"/>
  <line id="Capline-S" style="fill:none;stroke:#27AAE1;opacity:1;stroke-width:0.577;" x1="263" x2="3036" y1="625.541" y2="625.541"/>
  <g id="H-reference" style="fill:#27AAE1;stroke:none;" transform="matrix(1 0 0 1 339 1126)">
   <path d="M 54.9316 0 L 57.666 0 L 30.5664 -70.459 L 28.0762 -70.459 L 0.976562 0 L 3.66211 0 L 12.9395 -24.4629 L 45.7031 -24.4629 Z M 29.1992 -67.0898 L 29.4434 -67.0898 L 44.8242 -26.709 L 13.8184 -26.709 Z"/>
  </g>
  <line id="Baseline-M" style="fill:none;stroke:#27AAE1;opacity:1;stroke-width:0.577;" x1="263" x2="3036" y1="1126" y2="1126"/>
  <line id="Capline-M" style="fill:none;stroke:#27AAE1;opacity:1;stroke-width:0.577;" x1="263" x2="3036" y1="1055.54" y2="1055.54"/>
  <g id="H-reference" style="fill:#27AAE1;stroke:none;" transform="matrix(1 0 0 1 339 1556)">
   <path d="M 54.9316 0 L 57.666 0 L 30.5664 -70.459 L 28.0762 -70.459 L 0.976562 0 L 3.66211 0 L 12.9395 -24.4629 L 45.7031 -24.4629 Z M 29.1992 -67.0898 L 29.4434 -67.0898 L 44.8242 -26.709 L 13.8184 -26.709 Z"/>
  </g>
  <line id="Baseline-L" style="fill:none;stroke:#27AAE1;opacity:1;stroke-width:0.577;" x1="263" x2="3036" y1="1556" y2="1556"/>
  <line id="Capline-L" style="fill:none;stroke:#27AAE1;opacity:1;stroke-width:0.577;" x1="263" x2="3036" y1="1485.54" y2="1485.54"/>
  <rect height="119.336" id="left-margin" style="fill:#00AEEF;stroke:none;opacity:0.4;" width="8.74023" x="1391.32" y="1030.79"/>
  <rect height="119.336" id="right-margin" style="fill:#00AEEF;stroke:none;opacity:0.4;" width="8.69141" x="1499.67" y="1030.79"/>
 </g>
 <g id="Symbols">
  <g id="Ultralight-S" transform="matrix(1 0 0 1 515.644 696)">
   <path d="M 44.043 2.05078 C 64.502 2.05078 81.2988 -14.6973 81.2988 -35.1562 C 81.2988 -55.6152 64.502 -72.3633 44.043 -72.3633 C 23.584 -72.3633 6.83594 -55.6152 6.83594 -35.1562 C 6.83594 -14.6973 23.584 2.05078 44.043 2.05078 Z M 44.043 -0.146484 C 24.7559 -0.146484 9.08203 -15.8691 9.08203 -35.1562 C 9.08203 -54.4434 24.7559 -70.166 44.043 -70.166 C 63.3789 -70.166 79.0527 -54.4434 79.0527 -35.1562 C 79.0527 -15.8691 63.3789 -0.146484 44.043 -0.146484 Z M 62.9883 -47.4609 C 62.9883 -48.0957 62.5488 -48.584 61.8652 -48.584 L 33.7891 -48.584 L 28.6621 -48.4863 L 33.5449 -53.3691 L 38.3301 -58.1055 C 38.5742 -58.3496 38.6719 -58.5938 38.6719 -58.9355 C 38.6719 -59.5215 38.2812 -59.9121 37.6953 -59.9121 C 37.4023 -59.9121 37.1582 -59.8145 36.9629 -59.6191 L 25.4883 -48.2422 C 25.293 -47.998 25.1953 -47.7539 25.1953 -47.4609 C 25.1953 -47.168 25.293 -46.9238 25.4883 -46.6797 L 36.9629 -35.2539 C 37.1582 -35.0586 37.4023 -34.9609 37.6953 -34.9609 C 38.2812 -34.9609 38.6719 -35.3516 38.6719 -35.9863 C 38.6719 -36.2793 38.5742 -36.5234 38.3301 -36.7676 L 33.5449 -41.5039 L 28.6133 -46.4355 L 33.7891 -46.3379 L 61.8652 -46.3379 C 62.5488 -46.3379 62.9883 -46.7773 62.9883 -47.4609 Z M 62.9883 -24.0234 C 62.9883 -24.3164 62.8906 -24.5605 62.6465 -24.8047 L 51.2207 -36.1816 C 50.9766 -36.377 50.7812 -36.4746 50.4395 -36.4746 C 49.9023 -36.4746 49.4629 -36.084 49.4629 -35.498 C 49.4629 -35.1562 49.5605 -34.9121 49.8535 -34.668 L 54.5898 -29.9316 L 59.5215 -25.0488 L 54.3945 -25.1465 L 26.2695 -25.1465 C 25.5859 -25.1465 25.1953 -24.6582 25.1953 -24.0234 C 25.1953 -23.3398 25.5859 -22.9004 26.2695 -22.9004 L 54.3945 -22.9004 L 59.5703 -22.998 L 54.5898 -18.0664 L 49.8535 -13.3301 C 49.5605 -13.0859 49.4629 -12.8418 49.4629 -12.5488 C 49.4629 -11.9141 49.9023 -11.5234 50.4395 -11.5234 C 50.7812 -11.5234 50.9766 -11.6211 51.2207 -11.8164 L 62.6465 -23.2422 C 62.8906 -23.4863 62.9883 -23.7305 62.9883 -24.0234 Z"/>
  </g>
  <g id="Thin-S" transform="matrix(1 0 0 1 811.867 696)">
   <path d="M 44.5801 2.53906 C 65.2832 2.53906 82.2754 -14.4531 82.2754 -35.2051 C 82.2754 -55.9082 65.2344 -72.9004 44.5312 -72.9004 C 23.8281 -72.9004 6.83594 -55.9082 6.83594 -35.2051 C 6.83594 -14.4531 23.877 2.53906 44.5801 2.53906 Z M 44.5801 -0.878906 C 25.5859 -0.878906 10.2539 -16.2109 10.2539 -35.2051 C 10.2539 -54.1504 25.5859 -69.4824 44.5312 -69.4824 C 63.5254 -69.4824 78.8574 -54.1504 78.8574 -35.2051 C 78.8574 -16.2109 63.5254 -0.878906 44.5801 -0.878906 Z M 63.2324 -47.4609 C 63.2324 -48.3398 62.6465 -48.9746 61.7188 -48.9746 L 35.9375 -48.9746 L 30.6152 -48.8281 L 35.3027 -53.3691 L 39.3555 -57.2754 C 39.6973 -57.5684 39.8438 -57.959 39.8438 -58.3984 C 39.8438 -59.1797 39.2578 -59.8145 38.4277 -59.8145 C 38.0371 -59.8145 37.6953 -59.668 37.4023 -59.375 L 26.4648 -48.6328 C 26.0742 -48.291 25.9277 -47.8516 25.9277 -47.4609 C 25.9277 -47.0215 26.0742 -46.6309 26.4648 -46.2891 L 37.4023 -35.498 C 37.6953 -35.2051 38.0371 -35.0586 38.4277 -35.0586 C 39.2578 -35.0586 39.8438 -35.6934 39.8438 -36.5234 C 39.8438 -36.9629 39.6973 -37.3047 39.3555 -37.5977 L 35.3027 -41.5039 L 30.5664 -46.0938 L 35.9375 -45.9473 L 61.7188 -45.9473 C 62.6465 -45.9473 63.2324 -46.5332 63.2324 -47.4609 Z M 63.2324 -24.0234 C 63.2324 -24.4141 63.0859 -24.8535 62.7441 -25.1953 L 51.7578 -35.9375 C 51.4648 -36.2305 51.1719 -36.377 50.7324 -36.377 C 49.9512 -36.377 49.3164 -35.7422 49.3164 -34.9609 C 49.3164 -34.5215 49.4629 -34.1309 49.8047 -33.8379 L 53.8574 -29.9316 L 58.5449 -25.3906 L 53.2227 -25.5371 L 27.4414 -25.5371 C 26.5137 -25.5371 25.9277 -24.9023 25.9277 -24.0234 C 25.9277 -23.0957 26.5137 -22.5098 27.4414 -22.5098 L 53.2227 -22.5098 L 58.5938 -22.6562 L 53.8574 -18.0664 L 49.8047 -14.1602 C 49.4629 -13.8672 49.3164 -13.5254 49.3164 -13.0859 C 49.3164 -12.2559 49.9512 -11.6211 50.7324 -11.6211 C 51.1719 -11.6211 51.4648 -11.7676 51.7578 -12.0605 L 62.7441 -22.8516 C 63.0859 -23.1445 63.2324 -23.584 63.2324 -24.0234 Z"/>
  </g>
  <g id="Light-S" transform="matrix(1 0 0 1 1107.6 696)">
   <path d="M 45.5078 3.4668 C 66.6992 3.4668 84.2285 -14.0625 84.2285 -35.2051 C 84.2285 -56.3965 66.6504 -73.9258 45.5078 -73.9258 C 24.3164 -73.9258 6.83594 -56.3965 6.83594 -35.2051 C 6.83594 -14.0625 24.3652 3.4668 45.5078 3.4668 Z M 45.5078 -2.24609 C 27.2461 -2.24609 12.5977 -16.9434 12.5977 -35.2051 C 12.5977 -53.5156 27.1973 -68.2129 45.5078 -68.2129 C 63.7695 -68.2129 78.4668 -53.5156 78.5156 -35.2051 C 78.5156 -16.9434 63.8184 -2.24609 45.5078 -2.24609 Z M 63.7207 -47.4609 C 63.7207 -48.8281 62.793 -49.8047 61.4258 -49.8047 L 40.0391 -49.8047 L 34.375 -49.5605 L 38.7207 -53.3203 L 41.4062 -55.7129 C 41.8945 -56.1035 42.0898 -56.6895 42.0898 -57.373 C 42.0898 -58.6426 41.1133 -59.5703 39.8438 -59.5703 C 39.209 -59.5703 38.6719 -59.375 38.2324 -58.9844 L 28.2715 -49.3652 C 27.6367 -48.7793 27.3926 -48.0957 27.3926 -47.4609 C 27.3926 -46.7773 27.6367 -46.0449 28.2715 -45.459 L 38.2324 -35.9375 C 38.6719 -35.498 39.209 -35.3027 39.8438 -35.3027 C 41.1133 -35.3027 42.0898 -36.2793 42.0898 -37.5488 C 42.0898 -38.2324 41.8945 -38.8672 41.4062 -39.209 L 38.7207 -41.5039 L 34.3262 -45.3613 L 40.0391 -45.1172 L 61.4258 -45.1172 C 62.793 -45.1172 63.7207 -46.0938 63.7207 -47.4609 Z M 63.7207 -24.0234 C 63.7207 -24.6582 63.4766 -25.3418 62.8418 -25.9277 L 52.832 -35.5469 C 52.4414 -35.9375 51.9043 -36.1328 51.2207 -36.1328 C 49.9512 -36.1328 49.0234 -35.2051 49.0234 -33.9355 C 49.0234 -33.252 49.2188 -32.6172 49.707 -32.2754 L 52.3926 -29.8828 L 56.7383 -26.123 L 51.0254 -26.3672 L 29.6875 -26.3672 C 28.3203 -26.3672 27.3926 -25.3906 27.3926 -24.0234 C 27.3926 -22.6562 28.3203 -21.6797 29.6875 -21.6797 L 51.0254 -21.6797 L 56.7871 -21.9238 L 52.3926 -18.0664 L 49.707 -15.7715 C 49.2188 -15.4297 49.0234 -14.7949 49.0234 -14.1113 C 49.0234 -12.8418 49.9512 -11.8652 51.2207 -11.8652 C 51.9043 -11.8652 52.4414 -12.0605 52.832 -12.5 L 62.8418 -22.0215 C 63.4277 -22.6074 63.7207 -23.3398 63.7207 -24.0234 Z"/>
  </g>
  <g id="Regular-S" transform="matrix(1 0 0 1 1403.58 696)">
   <path d="M 46.2402 4.15039 C 67.7734 4.15039 85.6934 -13.7207 85.6934 -35.2539 C 85.6934 -56.7871 67.7246 -74.6582 46.1914 -74.6582 C 24.707 -74.6582 6.83594 -56.7871 6.83594 -35.2539 C 6.83594 -13.7207 24.7559 4.15039 46.2402 4.15039 Z M 46.2402 -3.27148 C 28.5156 -3.27148 14.3555 -17.4805 14.3555 -35.2539 C 14.3555 -53.0273 28.4668 -67.2363 46.1914 -67.2363 C 63.9648 -67.2363 78.1738 -53.0273 78.2227 -35.2539 C 78.2715 -17.4805 64.0137 -3.27148 46.2402 -3.27148 Z M 64.1113 -47.4609 C 64.1113 -49.1699 62.8906 -50.3906 61.1816 -50.3906 L 43.2129 -50.3906 L 37.207 -50.0977 L 41.3086 -53.3203 L 42.9199 -54.4922 C 43.5547 -54.9316 43.7988 -55.7129 43.7988 -56.5918 C 43.7988 -58.2031 42.5781 -59.4238 40.918 -59.4238 C 40.1367 -59.4238 39.4043 -59.1797 38.916 -58.6426 L 29.6387 -49.9512 C 28.8086 -49.1699 28.4668 -48.291 28.4668 -47.4609 C 28.4668 -46.582 28.8574 -45.6543 29.6387 -44.873 L 38.916 -36.2793 C 39.4043 -35.7422 40.1367 -35.4492 40.918 -35.4492 C 42.5781 -35.4492 43.7988 -36.7188 43.7988 -38.3301 C 43.7988 -39.209 43.5547 -40.0391 42.9199 -40.4297 L 41.3086 -41.5039 L 37.1582 -44.8242 L 43.2129 -44.5312 L 61.1816 -44.5312 C 62.8906 -44.5312 64.1113 -45.752 64.1113 -47.4609 Z M 64.1113 -24.0234 C 64.1113 -24.8535 63.7695 -25.7812 62.9395 -26.5137 L 53.6621 -35.2051 C 53.125 -35.7422 52.4414 -35.9863 51.6602 -35.9863 C 50 -35.9863 48.7793 -34.7656 48.7793 -33.1543 C 48.7793 -32.2754 49.0723 -31.4453 49.6094 -31.0547 L 51.2695 -29.8828 L 55.3711 -26.6602 L 49.3652 -26.9531 L 31.3965 -26.9531 C 29.6875 -26.9531 28.4668 -25.7324 28.4668 -24.0234 C 28.4668 -22.3145 29.6875 -21.0938 31.3965 -21.0938 L 49.3652 -21.0938 L 55.4199 -21.3867 L 51.2695 -18.0664 L 49.6094 -16.9922 C 49.0723 -16.6504 48.7793 -15.7715 48.7793 -14.8926 C 48.7793 -13.2812 50 -12.0117 51.6602 -12.0117 C 52.4414 -12.0117 53.125 -12.3047 53.6621 -12.8418 L 62.9395 -21.4355 C 63.7207 -22.168 64.1113 -23.1445 64.1113 -24.0234 Z"/>
  </g>
  <g id="Medium-S" transform="matrix(1 0 0 1 1699.7 696)">
   <path d="M 46.8262 4.78516 C 68.75 4.78516 86.8652 -13.3301 86.8652 -35.2539 C 86.8652 -57.1289 68.7012 -75.2441 46.8262 -75.2441 C 24.9023 -75.2441 6.83594 -57.1289 6.83594 -35.2539 C 6.83594 -13.3301 24.9512 4.78516 46.8262 4.78516 Z M 46.8262 -4.19922 C 29.6387 -4.19922 15.8691 -18.0176 15.8691 -35.2539 C 15.8691 -52.4414 29.5898 -66.2598 46.8262 -66.2598 C 64.0137 -66.2598 77.832 -52.4414 77.8809 -35.2539 C 77.8809 -18.0176 64.0625 -4.19922 46.8262 -4.19922 Z M 64.502 -47.2656 C 64.502 -49.1211 63.1836 -50.4883 61.2793 -50.4883 L 44.0918 -50.4883 L 38.4766 -50.0977 L 42.2852 -52.9297 L 43.8477 -54.1016 C 44.5312 -54.5898 44.8242 -55.4199 44.8242 -56.2988 C 44.8242 -58.0566 43.5059 -59.2773 41.748 -59.2773 C 40.918 -59.2773 40.1855 -58.9844 39.5996 -58.4473 L 30.4688 -49.9023 C 29.5898 -49.1211 29.248 -48.1934 29.248 -47.2656 C 29.248 -46.2402 29.6387 -45.2637 30.4688 -44.4824 L 39.5996 -36.0352 C 40.1855 -35.498 40.918 -35.1562 41.748 -35.1562 C 43.5059 -35.1562 44.8242 -36.4746 44.8242 -38.1836 C 44.8242 -39.0625 44.5312 -39.9414 43.8477 -40.3809 L 42.2852 -41.5039 L 38.4277 -44.4336 L 44.0918 -43.9941 L 61.2793 -43.9941 C 63.1836 -43.9941 64.502 -45.3613 64.502 -47.2656 Z M 64.502 -24.0234 C 64.502 -25 64.1113 -25.9277 63.2812 -26.709 L 54.1504 -35.2051 C 53.5645 -35.7422 52.832 -36.0352 51.9531 -36.0352 C 50.1953 -36.0352 48.9258 -34.8145 48.9258 -33.1055 C 48.9258 -32.1777 49.2188 -31.2988 49.8535 -30.8594 L 51.416 -29.6875 L 55.2734 -26.8555 L 49.6094 -27.2461 L 32.4219 -27.2461 C 30.5664 -27.2461 29.248 -25.8789 29.248 -24.0234 C 29.248 -22.1191 30.5664 -20.752 32.4219 -20.752 L 49.6094 -20.752 L 55.2734 -21.1914 L 51.416 -18.2617 L 49.8535 -17.1875 C 49.2188 -16.748 48.9258 -15.8203 48.9258 -14.9414 C 48.9258 -13.2324 50.1953 -11.9141 51.9531 -11.9141 C 52.832 -11.9141 53.5645 -12.2559 54.1504 -12.8418 L 63.2812 -21.2891 C 64.1113 -22.0215 64.502 -22.998 64.502 -24.0234 Z"/>
  </g>
  <g id="Semibold-S" transform="matrix(1 0 0 1 1995.98 696)">
   <path d="M 47.3145 5.22461 C 69.4824 5.22461 87.7441 -13.0371 87.7441 -35.2539 C 87.7441 -57.4219 69.4336 -75.6836 47.2656 -75.6836 C 25.0977 -75.6836 6.83594 -57.4219 6.83594 -35.2539 C 6.83594 -13.0371 25.0977 5.22461 47.3145 5.22461 Z M 47.3145 -4.93164 C 30.4688 -4.93164 17.041 -18.4082 17.041 -35.2539 C 17.041 -52.0508 30.4688 -65.5273 47.2656 -65.5273 C 64.0625 -65.5273 77.5879 -52.0508 77.5879 -35.2539 C 77.6367 -18.4082 64.1113 -4.93164 47.3145 -4.93164 Z M 64.7949 -47.0703 C 64.7949 -49.1211 63.3789 -50.5859 61.377 -50.5859 L 44.8242 -50.5859 L 39.4531 -50.0488 L 43.0664 -52.6367 L 44.5801 -53.7598 C 45.3125 -54.2969 45.5566 -55.1758 45.5566 -56.1035 C 45.5566 -57.9102 44.2383 -59.1797 42.3828 -59.1797 C 41.5039 -59.1797 40.7227 -58.8379 40.0879 -58.252 L 31.1035 -49.9023 C 30.2246 -49.0723 29.834 -48.1445 29.834 -47.0703 C 29.834 -45.9961 30.2246 -45.0195 31.1035 -44.1895 L 40.0879 -35.8887 C 40.7227 -35.3027 41.5039 -34.9609 42.3828 -34.9609 C 44.2383 -34.9609 45.5566 -36.2305 45.5566 -38.0371 C 45.5566 -38.9648 45.3125 -39.8926 44.5801 -40.3809 L 43.0664 -41.4551 L 39.4043 -44.0918 L 44.8242 -43.5547 L 61.377 -43.5547 C 63.3789 -43.5547 64.7949 -45.0684 64.7949 -47.0703 Z M 64.7949 -24.0234 C 64.7949 -25.0488 64.4043 -26.0254 63.5254 -26.8066 L 54.4922 -35.2051 C 53.8574 -35.791 53.125 -36.1328 52.1973 -36.1328 C 50.3906 -36.1328 49.0234 -34.8633 49.0234 -33.0566 C 49.0234 -32.0801 49.3652 -31.2012 50.0488 -30.6641 L 51.5625 -29.5898 L 55.1758 -27.002 L 49.8047 -27.4902 L 33.252 -27.4902 C 31.2012 -27.4902 29.834 -26.0254 29.834 -24.0234 C 29.834 -21.9727 31.2012 -20.5078 33.252 -20.5078 L 49.8047 -20.5078 L 55.2246 -20.9961 L 51.5625 -18.4082 L 50.0488 -17.334 C 49.3652 -16.8457 49.0234 -15.918 49.0234 -14.9414 C 49.0234 -13.1836 50.3906 -11.8652 52.1973 -11.8652 C 53.125 -11.8652 53.8574 -12.207 54.4922 -12.793 L 63.5254 -21.1426 C 64.3555 -21.9238 64.7949 -22.9004 64.7949 -24.0234 Z"/>
  </g>
  <g id="Bold-S" transform="matrix(1 0 0 1 2292.1 696)">
   <path d="M 47.9004 5.81055 C 70.4102 5.81055 88.916 -12.6465 88.916 -35.2051 C 88.916 -57.7637 70.4102 -76.2695 47.8516 -76.2695 C 25.293 -76.2695 6.83594 -57.7637 6.83594 -35.2051 C 6.83594 -12.6465 25.3418 5.81055 47.9004 5.81055 Z M 47.9004 -5.85938 C 31.6406 -5.85938 18.5547 -18.9453 18.5547 -35.2051 C 18.5547 -51.4648 31.5918 -64.5508 47.8516 -64.5508 C 64.1113 -64.5508 77.1973 -51.4648 77.2461 -35.2051 C 77.2461 -18.9453 64.1602 -5.85938 47.9004 -5.85938 Z M 65.1855 -46.875 C 65.1855 -49.0723 63.6719 -50.7324 61.4746 -50.7324 L 45.7031 -50.7324 L 40.7227 -50.0488 L 44.0918 -52.2461 L 45.5078 -53.3203 C 46.2891 -53.9551 46.582 -54.8828 46.582 -55.8594 C 46.582 -57.7637 45.2148 -59.082 43.2129 -59.082 C 42.2852 -59.082 41.5039 -58.6914 40.8203 -58.0566 L 31.9336 -49.8535 C 31.0059 -49.0234 30.6152 -48.0469 30.6152 -46.875 C 30.6152 -45.6543 31.0547 -44.6777 31.9336 -43.8477 L 40.8203 -35.6934 C 41.5039 -35.0586 42.2852 -34.6191 43.2129 -34.6191 C 45.2148 -34.6191 46.582 -35.9863 46.582 -37.8906 C 46.582 -38.8672 46.2891 -39.8438 45.5078 -40.3809 L 44.0918 -41.4551 L 40.7227 -43.7012 L 45.7031 -43.0176 L 61.4746 -43.0176 C 63.6719 -43.0176 65.1855 -44.6777 65.1855 -46.875 Z M 65.1855 -23.9746 C 65.1855 -25.1465 64.7461 -26.1719 63.8672 -27.002 L 54.9805 -35.2051 C 54.2969 -35.791 53.4668 -36.1816 52.5391 -36.1816 C 50.5859 -36.1816 49.1699 -34.9121 49.1699 -32.959 C 49.1699 -31.9824 49.5117 -31.0547 50.293 -30.4688 L 51.709 -29.3945 L 55.0781 -27.1973 L 50.0488 -27.832 L 34.2773 -27.832 C 32.0801 -27.832 30.6152 -26.1719 30.6152 -23.9746 C 30.6152 -21.7773 32.0801 -20.166 34.2773 -20.166 L 50.0488 -20.166 L 55.0781 -20.8008 L 51.709 -18.5547 L 50.293 -17.5293 C 49.5117 -16.9434 49.1699 -15.9668 49.1699 -14.9902 C 49.1699 -13.0859 50.5859 -11.7676 52.5391 -11.7676 C 53.4668 -11.7676 54.2969 -12.1582 54.9805 -12.793 L 63.8672 -20.9473 C 64.7461 -21.7773 65.1855 -22.8027 65.1855 -23.9746 Z"/>
  </g>
  <g id="Heavy-S" transform="matrix(1 0 0 1 2587.96 696)">
   <path d="M 48.7305 6.68945 C 71.8262 6.68945 90.625 -12.1094 90.625 -35.2051 C 90.625 -58.3008 71.8262 -77.0996 48.7305 -77.0996 C 25.6348 -77.0996 6.83594 -58.3008 6.83594 -35.2051 C 6.83594 -12.1094 25.6348 6.68945 48.7305 6.68945 Z M 48.7305 -7.22656 C 33.3008 -7.22656 20.752 -19.7266 20.752 -35.2051 C 20.752 -50.6836 33.3008 -63.1836 48.7305 -63.1836 C 64.209 -63.1836 76.709 -50.6836 76.709 -35.2051 C 76.709 -19.7266 64.209 -7.22656 48.7305 -7.22656 Z M 65.7715 -46.5332 C 65.7715 -49.0234 64.1113 -50.8789 61.6699 -50.8789 L 47.0703 -50.8789 L 42.5781 -50.0488 L 45.5566 -51.709 L 46.875 -52.7344 C 47.7539 -53.418 48.0957 -54.3945 48.0957 -55.4688 C 48.0957 -57.5684 46.582 -58.8867 44.4336 -58.8867 C 43.457 -58.8867 42.5781 -58.4473 41.7969 -57.7637 L 33.1055 -49.8535 C 32.1777 -48.9746 31.7383 -47.9004 31.7383 -46.5332 C 31.7383 -45.2148 32.1777 -44.1406 33.1055 -43.2617 L 41.7969 -35.3516 C 42.5781 -34.668 43.457 -34.1797 44.4336 -34.1797 C 46.582 -34.1797 48.0957 -35.5469 48.0957 -37.6465 C 48.0957 -38.6719 47.7539 -39.6973 46.875 -40.3809 L 45.5566 -41.4062 L 42.5781 -43.0664 L 47.0703 -42.2363 L 61.6699 -42.2363 C 64.1113 -42.2363 65.7715 -44.0918 65.7715 -46.5332 Z M 65.7715 -23.9746 C 65.7715 -25.3418 65.2832 -26.3672 64.3555 -27.2461 L 55.6641 -35.1562 C 54.9316 -35.8398 54.0527 -36.3281 53.0273 -36.3281 C 50.9277 -36.3281 49.4141 -34.9609 49.4141 -32.9102 C 49.4141 -31.8359 49.7559 -30.8105 50.6348 -30.127 L 51.9531 -29.1016 L 54.8828 -27.4414 L 50.4395 -28.3203 L 35.791 -28.3203 C 33.3496 -28.3203 31.7383 -26.416 31.7383 -23.9746 C 31.7383 -21.5332 33.3496 -19.6289 35.791 -19.6289 L 50.4395 -19.6289 L 54.8828 -20.5078 L 51.9531 -18.8477 L 50.6348 -17.8223 C 49.7559 -17.1387 49.4141 -16.1133 49.4141 -15.0391 C 49.4141 -12.9883 50.9277 -11.6211 53.0273 -11.6211 C 54.0527 -11.6211 54.9316 -12.1094 55.6641 -12.793 L 64.3555 -20.7031 C 65.2832 -21.582 65.7715 -22.6074 65.7715 -23.9746 Z"/>
  </g>
  <g id="Black-S" transform="matrix(1 0 0 1 2883.89 696)">
   <path d="M 49.5117 7.4707 C 73.0957 7.4707 92.1875 -11.6211 92.1875 -35.2051 C 92.1875 -58.7891 73.0957 -77.8809 49.5117 -77.8809 C 25.9277 -77.8809 6.83594 -58.7891 6.83594 -35.2051 C 6.83594 -11.6211 25.9277 7.4707 49.5117 7.4707 Z M 49.5117 -8.44727 C 34.7656 -8.44727 22.7539 -20.459 22.7539 -35.2051 C 22.7539 -49.9512 34.7656 -61.9141 49.5117 -61.9141 C 64.2578 -61.9141 76.2695 -49.9512 76.2207 -35.2051 C 76.2207 -20.459 64.2578 -8.44727 49.5117 -8.44727 Z M 66.2598 -46.2891 C 66.2598 -48.9746 64.502 -51.0742 61.8164 -51.0742 L 48.2422 -51.0742 L 44.2383 -50 L 46.875 -51.2207 L 48.0957 -52.1973 C 49.0234 -52.9297 49.4141 -54.0039 49.4141 -55.127 C 49.4141 -57.373 47.8027 -58.7402 45.5566 -58.7402 C 44.4824 -58.7402 43.5547 -58.2031 42.6758 -57.4707 L 34.1797 -49.8047 C 33.252 -48.9258 32.7148 -47.8027 32.7148 -46.2891 C 32.7148 -44.7754 33.252 -43.7012 34.1797 -42.7734 L 42.6758 -35.0586 C 43.5547 -34.375 44.4824 -33.8379 45.5566 -33.8379 C 47.8027 -33.8379 49.4141 -35.2051 49.4141 -37.4023 C 49.4141 -38.5254 49.0234 -39.5996 48.0957 -40.3809 L 46.875 -41.3574 L 44.2383 -42.5293 L 48.2422 -41.5039 L 61.8164 -41.5039 C 64.502 -41.5039 66.2598 -43.6035 66.2598 -46.2891 Z M 66.2598 -23.9746 C 66.2598 -25.4883 65.7715 -26.5625 64.7949 -27.4902 L 56.2988 -35.1562 C 55.4688 -35.8887 54.541 -36.4258 53.4668 -36.4258 C 51.1719 -36.4258 49.6094 -35.0586 49.6094 -32.8125 C 49.6094 -31.6895 49.9512 -30.6152 50.9277 -29.8828 L 52.1484 -28.9062 L 54.7363 -27.6855 L 50.7812 -28.7598 L 37.1582 -28.7598 C 34.4727 -28.7598 32.7148 -26.6602 32.7148 -23.9746 C 32.7148 -21.2891 34.4727 -19.1895 37.1582 -19.1895 L 50.7812 -19.1895 L 54.7363 -20.2148 L 52.1484 -19.043 L 50.9277 -18.0664 C 49.9512 -17.2852 49.6094 -16.2109 49.6094 -15.0879 C 49.6094 -12.8906 51.1719 -11.5234 53.4668 -11.5234 C 54.541 -11.5234 55.4688 -12.0605 56.2988 -12.7441 L 64.7949 -20.459 C 65.7715 -21.3867 66.2598 -22.4609 66.2598 -23.9746 Z"/>
  </g>
  <g id="Ultralight-M" transform="matrix(1 0 0 1 503.656 1126)">
   <path d="M 56.0547 12.207 C 82.0801 12.207 103.369 -9.08203 103.369 -35.1562 C 103.369 -61.1816 82.0801 -82.4707 56.0547 -82.4707 C 30.0293 -82.4707 8.74023 -61.1816 8.74023 -35.1562 C 8.74023 -9.08203 30.0293 12.207 56.0547 12.207 Z M 56.0547 9.81445 C 31.25 9.81445 11.1328 -10.3516 11.1328 -35.1562 C 11.1328 -59.9121 31.25 -80.0781 56.0547 -80.0781 C 80.8105 -80.0781 100.977 -59.9121 100.977 -35.1562 C 100.977 -10.3516 80.8105 9.81445 56.0547 9.81445 Z M 80.3223 -50.8301 C 80.3223 -51.5625 79.834 -52.0996 79.0527 -52.0996 L 42.334 -52.0996 L 35.8398 -52.002 L 42.1387 -58.3984 L 48.5352 -64.7461 C 48.8281 -65.0391 48.9258 -65.2832 48.9258 -65.6738 C 48.9258 -66.3086 48.4375 -66.7969 47.8516 -66.7969 C 47.5098 -66.7969 47.2656 -66.6992 47.0215 -66.4551 L 32.1777 -51.6602 C 31.9824 -51.4648 31.8359 -51.123 31.8359 -50.8301 C 31.8359 -50.5371 31.9824 -50.2441 32.1777 -50 L 47.0215 -35.1562 C 47.2656 -34.9121 47.5098 -34.8145 47.8516 -34.8145 C 48.4375 -34.8145 48.9258 -35.3027 48.9258 -35.9375 C 48.9258 -36.3281 48.8281 -36.5723 48.5352 -36.8652 L 42.1387 -43.2617 L 35.791 -49.707 L 42.334 -49.5605 L 79.0527 -49.5605 C 79.834 -49.5605 80.3223 -50.0488 80.3223 -50.8301 Z M 80.3223 -20.9473 C 80.3223 -21.2402 80.1758 -21.5332 79.9805 -21.7773 L 65.1367 -36.5234 C 64.8926 -36.7676 64.6484 -36.9141 64.3066 -36.9141 C 63.6719 -36.9141 63.2324 -36.4258 63.2324 -35.7422 C 63.2324 -35.4004 63.3301 -35.1562 63.623 -34.8145 L 70.0195 -28.4668 L 76.3184 -22.0703 L 69.8242 -22.2168 L 33.1055 -22.2168 C 32.3242 -22.2168 31.8359 -21.6309 31.8359 -20.9473 C 31.8359 -20.1172 32.3242 -19.6777 33.1055 -19.6777 L 69.8242 -19.6777 L 76.3672 -19.7754 L 70.0195 -13.3301 L 63.623 -6.93359 C 63.3301 -6.64062 63.2324 -6.39648 63.2324 -6.05469 C 63.2324 -5.37109 63.6719 -4.88281 64.3066 -4.88281 C 64.6484 -4.88281 64.8926 -5.0293 65.1367 -5.27344 L 79.9805 -20.0684 C 80.1758 -20.3125 80.3223 -20.6055 80.3223 -20.9473 Z"/>
  </g>
  <g id="Thin-M" transform="matrix(1 0 0 1 799.806 1126)">
   <path d="M 56.5918 12.7441 C 82.9102 12.7441 104.492 -8.83789 104.492 -35.1562 C 104.492 -61.4746 82.9102 -83.0566 56.5918 -83.0566 C 30.3223 -83.0566 8.74023 -61.4746 8.74023 -35.1562 C 8.74023 -8.83789 30.3223 12.7441 56.5918 12.7441 Z M 56.5918 8.98438 C 32.2266 8.98438 12.4512 -10.791 12.4512 -35.1562 C 12.4512 -59.5215 32.2266 -79.2969 56.5918 -79.2969 C 80.957 -79.2969 100.781 -59.5215 100.781 -35.1562 C 100.781 -10.791 81.0059 8.98438 56.5918 8.98438 Z M 80.6152 -50.8301 C 80.6152 -51.8555 79.9316 -52.5879 78.8574 -52.5879 L 44.7266 -52.5879 L 38.0371 -52.3926 L 44.1406 -58.3496 L 49.707 -63.8184 C 50.0977 -64.209 50.2441 -64.5508 50.2441 -65.0879 C 50.2441 -65.9668 49.5605 -66.6504 48.6816 -66.6504 C 48.1934 -66.6504 47.8516 -66.5039 47.5098 -66.2109 L 33.252 -52.0996 C 32.8613 -51.709 32.666 -51.2695 32.666 -50.8301 C 32.666 -50.3906 32.8613 -49.9023 33.252 -49.5605 L 47.5098 -35.4492 C 47.8516 -35.1074 48.1934 -34.9609 48.6816 -34.9609 C 49.5605 -34.9609 50.2441 -35.6445 50.2441 -36.5723 C 50.2441 -37.0605 50.0977 -37.4512 49.707 -37.793 L 44.1406 -43.2617 L 37.9395 -49.2676 L 44.7266 -49.1211 L 78.8574 -49.1211 C 79.9316 -49.1211 80.6152 -49.8047 80.6152 -50.8301 Z M 80.6152 -20.9473 C 80.6152 -21.3867 80.4199 -21.8262 80.0293 -22.2168 L 65.7715 -36.2793 C 65.4297 -36.6211 65.0879 -36.7676 64.5996 -36.7676 C 63.7207 -36.7676 63.0371 -36.084 63.0371 -35.1562 C 63.0371 -34.668 63.1836 -34.2773 63.5742 -33.9355 L 69.1406 -28.4668 L 75.2441 -22.5098 L 68.5547 -22.6562 L 34.4238 -22.6562 C 33.3496 -22.6562 32.666 -21.9238 32.666 -20.9473 C 32.666 -19.873 33.3496 -19.1895 34.4238 -19.1895 L 68.5547 -19.1895 L 75.293 -19.3848 L 69.1406 -13.3301 L 63.5742 -7.86133 C 63.1836 -7.56836 63.0371 -7.12891 63.0371 -6.64062 C 63.0371 -5.71289 63.7207 -5.0293 64.5996 -5.0293 C 65.0879 -5.0293 65.4297 -5.17578 65.7715 -5.51758 L 80.0293 -19.6289 C 80.4199 -19.9707 80.6152 -20.459 80.6152 -20.9473 Z"/>
  </g>
  <g id="Light-M" transform="matrix(1 0 0 1 1095.42 1126)">
   <path d="M 57.7148 13.7695 C 84.5215 13.7695 106.689 -8.39844 106.689 -35.2051 C 106.689 -62.0117 84.4727 -84.1797 57.666 -84.1797 C 30.8594 -84.1797 8.74023 -62.0117 8.74023 -35.2051 C 8.74023 -8.39844 30.8594 13.7695 57.7148 13.7695 Z M 57.7148 7.4707 C 34.082 7.4707 15.0879 -11.5723 15.0879 -35.2051 C 15.0879 -58.8379 34.0332 -77.832 57.666 -77.832 C 81.2988 -77.832 100.342 -58.8379 100.342 -35.2051 C 100.391 -11.5723 81.2988 7.4707 57.7148 7.4707 Z M 81.1523 -50.8301 C 81.1523 -52.3438 80.0781 -53.4668 78.5156 -53.4668 L 49.4141 -53.4668 L 42.2852 -53.2227 L 47.998 -58.3496 L 52.002 -62.0117 C 52.5879 -62.4512 52.7832 -63.1348 52.7832 -63.916 C 52.7832 -65.332 51.709 -66.4062 50.293 -66.4062 C 49.5605 -66.4062 48.9258 -66.2109 48.4863 -65.7227 L 35.3027 -52.9785 C 34.6191 -52.2949 34.3262 -51.5625 34.3262 -50.8301 C 34.3262 -50.0977 34.668 -49.2676 35.3027 -48.6328 L 48.4863 -35.9375 C 48.9258 -35.4492 49.5605 -35.2051 50.293 -35.2051 C 51.709 -35.2051 52.7832 -36.3281 52.7832 -37.7441 C 52.7832 -38.5254 52.5879 -39.209 52.002 -39.5996 L 47.998 -43.2617 L 42.2363 -48.4863 L 49.4141 -48.1934 L 78.5156 -48.1934 C 80.0781 -48.1934 81.1523 -49.2676 81.1523 -50.8301 Z M 81.1523 -20.9473 C 81.1523 -21.6797 80.8594 -22.4121 80.1758 -23.0469 L 66.9922 -35.791 C 66.5039 -36.2793 65.918 -36.4746 65.1855 -36.4746 C 63.7695 -36.4746 62.6953 -35.4004 62.6953 -33.9844 C 62.6953 -33.252 62.9395 -32.5195 63.4766 -32.1289 L 67.4805 -28.418 L 73.1934 -23.291 L 66.0645 -23.5352 L 36.9629 -23.5352 C 35.4004 -23.5352 34.3262 -22.4609 34.3262 -20.9473 C 34.3262 -19.3848 35.4004 -18.3105 36.9629 -18.3105 L 66.0645 -18.3105 L 73.2422 -18.5547 L 67.4805 -13.3301 L 63.4766 -9.7168 C 62.9395 -9.32617 62.6953 -8.59375 62.6953 -7.8125 C 62.6953 -6.39648 63.7695 -5.27344 65.1855 -5.27344 C 65.918 -5.27344 66.5039 -5.56641 66.9922 -6.00586 L 80.1758 -18.75 C 80.8105 -19.3359 81.1523 -20.166 81.1523 -20.9473 Z"/>
  </g>
  <g id="Regular-M" transform="matrix(1 0 0 1 1391.32 1126)">
   <path d="M 58.5449 14.5508 C 85.7422 14.5508 108.35 -8.00781 108.35 -35.2539 C 108.35 -62.4512 85.6934 -85.0586 58.4961 -85.0586 C 31.25 -85.0586 8.74023 -62.4512 8.74023 -35.2539 C 8.74023 -8.00781 31.2988 14.5508 58.5449 14.5508 Z M 58.5449 6.25 C 35.498 6.25 17.0898 -12.207 17.0898 -35.2539 C 17.0898 -58.252 35.4492 -76.7578 58.4961 -76.7578 C 81.4941 -76.7578 100 -58.252 100.049 -35.2539 C 100.098 -12.207 81.543 6.25 58.5449 6.25 Z M 81.543 -50.8301 C 81.543 -52.7832 80.1758 -54.1504 78.2227 -54.1504 L 52.9297 -54.1504 L 45.5078 -53.8086 L 50.9277 -58.3496 L 53.7598 -60.6934 C 54.4434 -61.1816 54.6875 -62.0605 54.6875 -63.0371 C 54.6875 -64.8438 53.3203 -66.2109 51.5137 -66.2109 C 50.5859 -66.2109 49.8047 -65.918 49.2188 -65.332 L 36.8652 -53.6133 C 35.9375 -52.7344 35.5469 -51.8066 35.5469 -50.8301 C 35.5469 -49.8535 35.9863 -48.7793 36.8652 -47.9492 L 49.2188 -36.3281 C 49.8047 -35.7422 50.5859 -35.4004 51.5137 -35.4004 C 53.3203 -35.4004 54.6875 -36.8164 54.6875 -38.623 C 54.6875 -39.5996 54.4434 -40.5273 53.7598 -41.0156 L 50.9277 -43.2617 L 45.4102 -47.8516 L 52.9297 -47.5098 L 78.2227 -47.5098 C 80.1758 -47.5098 81.543 -48.9258 81.543 -50.8301 Z M 81.543 -20.9473 C 81.543 -21.875 81.2012 -22.8516 80.2734 -23.6816 L 67.9199 -35.4492 C 67.334 -36.0352 66.5527 -36.2793 65.625 -36.2793 C 63.7695 -36.2793 62.4023 -34.9121 62.4023 -33.1055 C 62.4023 -32.1289 62.7441 -31.2012 63.3789 -30.7617 L 66.2109 -28.418 L 71.6309 -23.9258 L 64.1602 -24.2188 L 38.8672 -24.2188 C 36.9629 -24.2188 35.5469 -22.8516 35.5469 -20.9473 C 35.5469 -18.9941 36.9629 -17.627 38.8672 -17.627 L 64.1602 -17.627 L 71.6797 -17.9199 L 66.2109 -13.3301 L 63.3789 -11.084 C 62.7441 -10.6445 62.4023 -9.66797 62.4023 -8.74023 C 62.4023 -6.93359 63.7695 -5.51758 65.625 -5.51758 C 66.5527 -5.51758 67.334 -5.81055 67.9199 -6.39648 L 80.2734 -18.0664 C 81.1523 -18.8477 81.543 -19.9219 81.543 -20.9473 Z"/>
  </g>
  <g id="Medium-M" transform="matrix(1 0 0 1 1687.33 1126)">
   <path d="M 59.2285 15.2832 C 86.8652 15.2832 109.717 -7.56836 109.717 -35.2051 C 109.717 -62.8906 86.8164 -85.7422 59.1797 -85.7422 C 31.543 -85.7422 8.74023 -62.8906 8.74023 -35.2051 C 8.74023 -7.56836 31.5918 15.2832 59.2285 15.2832 Z M 59.2285 5.17578 C 36.8164 5.17578 18.8477 -12.8418 18.8477 -35.2051 C 18.8477 -57.6172 36.7676 -75.6348 59.1797 -75.6348 C 81.5918 -75.6348 99.6094 -57.6172 99.6582 -35.2051 C 99.6582 -12.8418 81.6406 5.17578 59.2285 5.17578 Z M 82.0312 -50.6348 C 82.0312 -52.7832 80.5176 -54.3457 78.3203 -54.3457 L 54.2969 -54.3457 L 47.168 -53.9062 L 52.2949 -57.959 L 54.8828 -60.1074 C 55.6641 -60.6445 55.957 -61.6211 55.957 -62.6465 C 55.957 -64.5996 54.4922 -66.0645 52.4902 -66.0645 C 51.5137 -66.0645 50.6348 -65.7227 50 -65.0879 L 37.8906 -53.6621 C 36.9141 -52.7344 36.5234 -51.709 36.5234 -50.6348 C 36.5234 -49.5117 36.9629 -48.3887 37.8906 -47.5098 L 50 -36.1328 C 50.6348 -35.498 51.5137 -35.1074 52.4902 -35.1074 C 54.4922 -35.1074 55.957 -36.6211 55.957 -38.5742 C 55.957 -39.5996 55.6641 -40.625 54.8828 -41.1621 L 52.2949 -43.2129 L 47.1191 -47.3633 L 54.2969 -46.875 L 78.3203 -46.875 C 80.5176 -46.875 82.0312 -48.4863 82.0312 -50.6348 Z M 82.0312 -20.8984 C 82.0312 -22.0215 81.5918 -23.0469 80.6152 -23.9746 L 68.5059 -35.4004 C 67.8711 -36.0352 66.9922 -36.377 66.0156 -36.377 C 64.0137 -36.377 62.5488 -34.9121 62.5488 -32.959 C 62.5488 -31.9336 62.8906 -30.9082 63.623 -30.3711 L 66.2109 -28.2227 L 71.3379 -24.1699 L 64.209 -24.6582 L 40.1855 -24.6582 C 37.9883 -24.6582 36.5234 -23.0469 36.5234 -20.8984 C 36.5234 -18.75 37.9883 -17.1875 40.1855 -17.1875 L 64.209 -17.1875 L 71.3867 -17.627 L 66.2109 -13.5254 L 63.623 -11.4258 C 62.8906 -10.9375 62.5488 -9.91211 62.5488 -8.88672 C 62.5488 -6.88477 64.0137 -5.41992 66.0156 -5.41992 C 66.9922 -5.41992 67.8711 -5.81055 68.5059 -6.44531 L 80.6152 -17.7734 C 81.543 -18.6523 82.0312 -19.7754 82.0312 -20.8984 Z"/>
  </g>
  <g id="Semibold-M" transform="matrix(1 0 0 1 1983.5 1126)">
   <path d="M 59.7656 15.8203 C 87.7441 15.8203 110.791 -7.22656 110.791 -35.2051 C 110.791 -63.1836 87.6953 -86.2793 59.7168 -86.2793 C 31.7383 -86.2793 8.74023 -63.1836 8.74023 -35.2051 C 8.74023 -7.22656 31.7871 15.8203 59.7656 15.8203 Z M 59.7656 4.3457 C 37.8418 4.3457 20.2148 -13.2812 20.2148 -35.2051 C 20.2148 -57.1289 37.793 -74.8047 59.7168 -74.8047 C 81.6406 -74.8047 99.3164 -57.1289 99.3164 -35.2051 C 99.3652 -13.2812 81.6895 4.3457 59.7656 4.3457 Z M 82.373 -50.4395 C 82.373 -52.7832 80.7129 -54.4922 78.418 -54.4922 L 55.3223 -54.4922 L 48.4375 -53.9062 L 53.3203 -57.6172 L 55.7617 -59.6191 C 56.5918 -60.2539 56.9336 -61.2793 56.9336 -62.3535 C 56.9336 -64.4531 55.3711 -65.9668 53.2227 -65.9668 C 52.1973 -65.9668 51.3184 -65.5762 50.5859 -64.8926 L 38.6719 -53.7109 C 37.6465 -52.7344 37.207 -51.6602 37.207 -50.4395 C 37.207 -49.2188 37.6953 -48.0469 38.6719 -47.1191 L 50.5859 -36.0352 C 51.3184 -35.3516 52.1973 -34.9121 53.2227 -34.9121 C 55.3711 -34.9121 56.9336 -36.4258 56.9336 -38.5254 C 56.9336 -39.5996 56.5918 -40.6738 55.7617 -41.2598 L 53.3203 -43.2129 L 48.4375 -46.9727 L 55.3223 -46.3867 L 78.418 -46.3867 C 80.7129 -46.3867 82.373 -48.0957 82.373 -50.4395 Z M 82.373 -20.8984 C 82.373 -22.1191 81.8848 -23.2422 80.9082 -24.1699 L 68.9941 -35.3516 C 68.2617 -36.0352 67.3828 -36.4258 66.3086 -36.4258 C 64.209 -36.4258 62.6465 -34.9121 62.6465 -32.8125 C 62.6465 -31.7383 62.9883 -30.6641 63.7695 -30.0781 L 66.2598 -28.0762 L 71.0938 -24.3652 L 64.2578 -24.9512 L 41.1621 -24.9512 C 38.8184 -24.9512 37.207 -23.2422 37.207 -20.8984 C 37.207 -18.5547 38.8184 -16.8457 41.1621 -16.8457 L 64.2578 -16.8457 L 71.1426 -17.4316 L 66.2598 -13.623 L 63.7695 -11.7188 C 62.9883 -11.1816 62.6465 -10.0586 62.6465 -8.98438 C 62.6465 -6.88477 64.209 -5.37109 66.3086 -5.37109 C 67.3828 -5.37109 68.2617 -5.76172 68.9941 -6.44531 L 80.9082 -17.5781 C 81.8848 -18.5059 82.373 -19.6777 82.373 -20.8984 Z"/>
  </g>
  <g id="Bold-M" transform="matrix(1 0 0 1 2279.5 1126)">
   <path d="M 60.4492 16.5039 C 88.8672 16.5039 112.207 -6.78711 112.207 -35.2051 C 112.207 -63.623 88.8672 -86.9629 60.4492 -86.9629 C 32.0312 -86.9629 8.74023 -63.623 8.74023 -35.2051 C 8.74023 -6.78711 32.0801 16.5039 60.4492 16.5039 Z M 60.4492 3.22266 C 39.1602 3.22266 22.0215 -13.916 22.0215 -35.2051 C 22.0215 -56.4941 39.1602 -73.6816 60.4492 -73.6816 C 81.7383 -73.6816 98.877 -56.4941 98.9258 -35.2051 C 98.9258 -13.916 81.7871 3.22266 60.4492 3.22266 Z M 82.8125 -50.2441 C 82.8125 -52.7832 81.0547 -54.7363 78.4668 -54.7363 L 56.6895 -54.7363 L 50.1465 -54.0039 L 54.7363 -57.2266 L 56.9336 -59.0332 C 57.8613 -59.7168 58.2031 -60.8398 58.2031 -62.0117 C 58.2031 -64.2578 56.543 -65.8203 54.248 -65.8203 C 53.125 -65.8203 52.1973 -65.3809 51.3672 -64.6484 L 39.6973 -53.7598 C 38.6719 -52.7344 38.1348 -51.6113 38.1348 -50.2441 C 38.1348 -48.877 38.6719 -47.6562 39.6973 -46.6797 L 51.3672 -35.8398 C 52.1973 -35.1074 53.125 -34.6191 54.248 -34.6191 C 56.543 -34.6191 58.2031 -36.2305 58.2031 -38.4766 C 58.2031 -39.6484 57.8613 -40.7715 56.9336 -41.4062 L 54.7363 -43.1641 L 50.1465 -46.4844 L 56.6895 -45.752 L 78.4668 -45.752 C 81.0547 -45.752 82.8125 -47.6562 82.8125 -50.2441 Z M 82.8125 -20.8984 C 82.8125 -22.2656 82.3242 -23.4375 81.25 -24.4141 L 69.5801 -35.3027 C 68.7988 -36.0352 67.8223 -36.4746 66.6992 -36.4746 C 64.4043 -36.4746 62.7441 -34.9121 62.7441 -32.666 C 62.7441 -31.4941 63.1348 -30.3711 64.0137 -29.6875 L 66.2598 -27.8809 L 70.8008 -24.6582 L 64.2578 -25.3906 L 42.4805 -25.3906 C 39.8926 -25.3906 38.1348 -23.4375 38.1348 -20.8984 C 38.1348 -18.3105 39.8926 -16.4062 42.4805 -16.4062 L 64.2578 -16.4062 L 70.8496 -17.1387 L 66.2598 -13.8184 L 64.0137 -12.1094 C 63.1348 -11.4258 62.7441 -10.3027 62.7441 -9.13086 C 62.7441 -6.88477 64.4043 -5.27344 66.6992 -5.27344 C 67.8223 -5.27344 68.7988 -5.76172 69.5801 -6.49414 L 81.25 -17.334 C 82.2754 -18.2617 82.8125 -19.5312 82.8125 -20.8984 Z"/>
  </g>
  <g id="Heavy-M" transform="matrix(1 0 0 1 2575.19 1126)">
   <path d="M 61.4746 17.5781 C 90.5273 17.5781 114.258 -6.15234 114.258 -35.2051 C 114.258 -64.2578 90.5273 -87.9883 61.4746 -87.9883 C 32.4219 -87.9883 8.74023 -64.2578 8.74023 -35.2051 C 8.74023 -6.15234 32.4707 17.5781 61.4746 17.5781 Z M 61.4746 1.66016 C 41.1133 1.66016 24.6582 -14.8438 24.6582 -35.2051 C 24.6582 -55.5664 41.1133 -72.0703 61.4746 -72.0703 C 81.8359 -72.0703 98.3398 -55.5664 98.3398 -35.2051 C 98.3398 -14.8438 81.8848 1.66016 61.4746 1.66016 Z M 83.4961 -49.9023 C 83.4961 -52.832 81.543 -55.0293 78.6133 -55.0293 L 58.6914 -55.0293 L 52.6367 -54.0527 L 56.7383 -56.6895 L 58.6426 -58.1543 C 59.668 -58.9844 60.0586 -60.1562 60.0586 -61.4746 C 60.0586 -63.916 58.252 -65.5762 55.7129 -65.5762 C 54.4922 -65.5762 53.418 -65.0391 52.5391 -64.2578 L 41.2109 -53.8086 C 40.0879 -52.7344 39.502 -51.4648 39.502 -49.9023 C 39.502 -48.3398 40.0879 -47.0215 41.2109 -45.9961 L 52.5391 -35.5957 C 53.418 -34.7656 54.4922 -34.2285 55.7129 -34.2285 C 58.252 -34.2285 60.0586 -35.8887 60.0586 -38.3789 C 60.0586 -39.6484 59.668 -40.8691 58.6426 -41.6504 L 56.7383 -43.1641 L 52.5879 -45.752 L 58.6914 -44.8242 L 78.6133 -44.8242 C 81.543 -44.8242 83.4961 -47.0215 83.4961 -49.9023 Z M 83.4961 -20.8984 C 83.4961 -22.4609 82.9102 -23.7305 81.7871 -24.8047 L 70.459 -35.2051 C 69.5312 -36.0352 68.5059 -36.5723 67.2852 -36.5723 C 64.7461 -36.5723 62.9395 -34.9121 62.9395 -32.4219 C 62.9395 -31.1523 63.3301 -29.9316 64.3555 -29.1504 L 66.2598 -27.6367 L 70.3613 -25.0488 L 64.3066 -25.9766 L 44.3848 -25.9766 C 41.4551 -25.9766 39.502 -23.7793 39.502 -20.8984 C 39.502 -17.9688 41.4551 -15.7715 44.3848 -15.7715 L 64.3066 -15.7715 L 70.3613 -16.748 L 66.2598 -14.1113 L 64.3555 -12.5977 C 63.3301 -11.8652 62.9395 -10.5957 62.9395 -9.32617 C 62.9395 -6.83594 64.7461 -5.17578 67.2852 -5.17578 C 68.5059 -5.17578 69.5312 -5.71289 70.459 -6.54297 L 81.7871 -16.9434 C 82.9102 -17.9688 83.4961 -19.2871 83.4961 -20.8984 Z"/>
  </g>
  <g id="Black-M" transform="matrix(1 0 0 1 2871 1126)">
   <path d="M 62.4023 18.457 C 91.9922 18.457 116.064 -5.61523 116.064 -35.2051 C 116.064 -64.7949 91.9922 -88.8672 62.4023 -88.8672 C 32.8125 -88.8672 8.74023 -64.7949 8.74023 -35.2051 C 8.74023 -5.61523 32.8125 18.457 62.4023 18.457 Z M 62.4023 0.195312 C 42.8223 0.195312 27.002 -15.625 27.002 -35.2051 C 27.002 -54.7363 42.8223 -70.6055 62.4023 -70.6055 C 81.9824 -70.6055 97.8027 -54.7363 97.8027 -35.2051 C 97.8027 -15.625 81.9824 0.195312 62.4023 0.195312 Z M 84.082 -49.6094 C 84.082 -52.832 81.9336 -55.2734 78.7109 -55.2734 L 60.4492 -55.2734 L 54.834 -54.1504 L 58.5449 -56.1523 L 60.1562 -57.373 C 61.2793 -58.3008 61.7188 -59.5703 61.7188 -60.9863 C 61.7188 -63.6719 59.7656 -65.4297 57.0312 -65.4297 C 55.7129 -65.4297 54.5898 -64.7949 53.5645 -63.916 L 42.5293 -53.9062 C 41.3574 -52.7832 40.7227 -51.3672 40.7227 -49.6094 C 40.7227 -47.8516 41.3574 -46.4844 42.5293 -45.3613 L 53.5645 -35.3516 C 54.5898 -34.4727 55.7129 -33.8379 57.0312 -33.8379 C 59.7656 -33.8379 61.7188 -35.5957 61.7188 -38.2812 C 61.7188 -39.6484 61.2793 -40.9668 60.1562 -41.8457 L 58.5449 -43.1152 L 54.834 -45.1172 L 60.4492 -43.9941 L 78.7109 -43.9941 C 81.9336 -43.9941 84.082 -46.4355 84.082 -49.6094 Z M 84.082 -20.8496 C 84.082 -22.6074 83.4473 -23.9746 82.2754 -25.1465 L 71.2402 -35.1562 C 70.2148 -36.0352 69.0918 -36.6211 67.7734 -36.6211 C 65.0391 -36.6211 63.0859 -34.9121 63.0859 -32.2266 C 63.0859 -30.8105 63.5254 -29.4922 64.6484 -28.6133 L 66.2598 -27.3926 L 69.9707 -25.3906 L 64.3555 -26.5137 L 46.0449 -26.5137 C 42.8711 -26.5137 40.7227 -24.0723 40.7227 -20.8496 C 40.7227 -17.6758 42.8711 -15.2344 46.0449 -15.2344 L 64.3555 -15.2344 L 69.9707 -16.3574 L 66.2598 -14.3555 L 64.6484 -13.0859 C 63.5254 -12.207 63.0859 -10.8887 63.0859 -9.52148 C 63.0859 -6.83594 65.0391 -5.07812 67.7734 -5.07812 C 69.0918 -5.07812 70.2148 -5.71289 71.2402 -6.5918 L 82.2754 -16.6016 C 83.4473 -17.7246 84.082 -19.0918 84.082 -20.8496 Z"/>
  </g>
  <g id="Ultralight-L" transform="matrix(1 0 0 1 487.641 1556)">
   <path d="M 72.0703 25.7324 C 105.566 25.7324 132.91 -1.61133 132.91 -35.1074 C 132.91 -68.5547 105.566 -95.8984 72.0703 -95.8984 C 38.623 -95.8984 11.2793 -68.5547 11.2793 -35.1074 C 11.2793 -1.61133 38.623 25.7324 72.0703 25.7324 Z M 72.0703 23.2422 C 39.9414 23.2422 13.7695 -2.97852 13.7695 -35.1074 C 13.7695 -67.2363 39.9414 -93.4082 72.0703 -93.4082 C 104.199 -93.4082 130.42 -67.2363 130.371 -35.1074 C 130.371 -2.97852 104.199 23.2422 72.0703 23.2422 Z M 103.516 -55.3711 C 103.516 -56.2012 102.979 -56.8359 102.051 -56.8359 L 53.5645 -56.8359 L 45.3125 -56.6895 L 53.5645 -65.0879 L 62.1094 -73.7305 C 62.4512 -74.1211 62.5977 -74.3652 62.5977 -74.7559 C 62.5977 -75.4883 62.0605 -76.0254 61.4258 -76.0254 C 60.9863 -76.0254 60.7422 -75.8789 60.4492 -75.6348 L 41.1133 -56.25 C 40.8691 -56.0059 40.7227 -55.7129 40.7227 -55.3711 C 40.7227 -55.0781 40.8691 -54.7363 41.1133 -54.4922 L 60.4492 -35.0586 C 60.7422 -34.7656 60.9863 -34.6191 61.4258 -34.6191 C 62.0605 -34.6191 62.5977 -35.1562 62.5977 -35.8887 C 62.5977 -36.3281 62.4512 -36.5723 62.1094 -36.9629 L 53.5645 -45.5566 L 45.2148 -54.0527 L 53.5645 -53.9551 L 102.051 -53.9551 C 102.979 -53.9551 103.516 -54.4922 103.516 -55.3711 Z M 103.516 -16.7969 C 103.516 -17.0898 103.369 -17.4316 103.125 -17.6758 L 83.7891 -37.0117 C 83.4961 -37.3047 83.252 -37.4512 82.8125 -37.4512 C 82.1777 -37.4512 81.6406 -36.9141 81.6406 -36.1328 C 81.6406 -35.7422 81.7871 -35.498 82.1289 -35.1074 L 90.6738 -26.5137 L 98.9258 -18.0664 L 90.6738 -18.2129 L 42.1387 -18.2129 C 41.2598 -18.2129 40.7227 -17.5781 40.7227 -16.7969 C 40.7227 -15.8691 41.2598 -15.332 42.1387 -15.332 L 90.6738 -15.332 L 99.0234 -15.4785 L 90.6738 -6.98242 L 82.1289 1.66016 C 81.7871 2.05078 81.6406 2.29492 81.6406 2.68555 C 81.6406 3.41797 82.1777 3.95508 82.8125 3.95508 C 83.252 3.95508 83.4961 3.80859 83.7891 3.56445 L 103.125 -15.918 C 103.369 -16.1621 103.516 -16.4551 103.516 -16.7969 Z"/>
  </g>
  <g id="Thin-L" transform="matrix(1 0 0 1 783.717 1556)">
   <path d="M 72.7051 26.3184 C 106.494 26.3184 134.131 -1.36719 134.131 -35.1074 C 134.131 -68.8965 106.445 -96.582 72.7051 -96.582 C 38.916 -96.582 11.2793 -68.8965 11.2793 -35.1074 C 11.2793 -1.36719 38.916 26.3184 72.7051 26.3184 Z M 72.7051 22.3145 C 41.0156 22.3145 15.2344 -3.41797 15.2344 -35.1074 C 15.2344 -66.8457 41.0156 -92.5781 72.7051 -92.5781 C 104.395 -92.5781 130.127 -66.8457 130.176 -35.1074 C 130.176 -3.41797 104.395 22.3145 72.7051 22.3145 Z M 103.809 -55.3711 C 103.809 -56.4941 103.076 -57.3242 101.855 -57.3242 L 56.25 -57.3242 L 47.7539 -57.1289 L 55.7617 -65.0879 L 63.4277 -72.7051 C 63.8672 -73.1445 64.0625 -73.5352 64.0625 -74.0723 C 64.0625 -75.1465 63.2812 -75.8789 62.3047 -75.8789 C 61.7676 -75.8789 61.377 -75.6836 60.9863 -75.3418 L 42.2852 -56.7383 C 41.8457 -56.3477 41.6504 -55.8594 41.6504 -55.3711 C 41.6504 -54.8828 41.8457 -54.3945 42.2852 -54.0039 L 60.9863 -35.3516 C 61.377 -34.9609 61.7676 -34.7656 62.3047 -34.7656 C 63.2812 -34.7656 64.0625 -35.5469 64.0625 -36.5723 C 64.0625 -37.1582 63.8672 -37.5488 63.4277 -37.9883 L 55.7617 -45.5566 L 47.6562 -53.6133 L 56.25 -53.418 L 101.855 -53.418 C 103.076 -53.418 103.809 -54.1992 103.809 -55.3711 Z M 103.809 -16.7969 C 103.809 -17.2363 103.613 -17.7734 103.223 -18.1641 L 84.4727 -36.7188 C 84.1309 -37.1094 83.7402 -37.3047 83.1543 -37.3047 C 82.1777 -37.3047 81.4453 -36.5234 81.4453 -35.498 C 81.4453 -34.9121 81.6406 -34.5215 82.0801 -34.082 L 89.7461 -26.5137 L 97.7539 -18.5547 L 89.2578 -18.75 L 43.6035 -18.75 C 42.4316 -18.75 41.6504 -17.8711 41.6504 -16.7969 C 41.6504 -15.5762 42.4316 -14.7949 43.6035 -14.7949 L 89.2578 -14.7949 L 97.8027 -14.9902 L 89.7461 -6.98242 L 82.0801 0.634766 C 81.6406 1.02539 81.4453 1.46484 81.4453 2.00195 C 81.4453 3.02734 82.1777 3.80859 83.1543 3.80859 C 83.7402 3.80859 84.1309 3.61328 84.4727 3.27148 L 103.223 -15.3809 C 103.613 -15.7715 103.809 -16.2598 103.809 -16.7969 Z"/>
  </g>
  <g id="Light-L" transform="matrix(1 0 0 1 1079.21 1556)">
   <path d="M 73.9258 27.4902 C 108.301 27.4902 136.572 -0.830078 136.572 -35.1562 C 136.572 -69.5312 108.252 -97.8516 73.877 -97.8516 C 39.5508 -97.8516 11.2793 -69.5312 11.2793 -35.1562 C 11.2793 -0.830078 39.5508 27.4902 73.9258 27.4902 Z M 73.9258 20.6055 C 43.0664 20.6055 18.1641 -4.3457 18.1641 -35.1562 C 18.1641 -66.0156 43.0664 -90.918 73.877 -90.918 C 104.736 -90.918 129.639 -66.0156 129.688 -35.1562 C 129.736 -4.3457 104.785 20.6055 73.9258 20.6055 Z M 104.443 -55.3711 C 104.443 -57.0801 103.223 -58.3496 101.465 -58.3496 L 61.4746 -58.3496 L 52.4902 -58.0566 L 60.0586 -65.0879 L 65.9668 -70.7031 C 66.6016 -71.2402 66.8945 -71.9238 66.8945 -72.8027 C 66.8945 -74.4141 65.6738 -75.5859 64.1113 -75.5859 C 63.2812 -75.5859 62.5977 -75.3418 62.0605 -74.8047 L 44.5801 -57.7148 C 43.7988 -56.9824 43.5059 -56.2012 43.5059 -55.3711 C 43.5059 -54.541 43.8477 -53.6621 44.5801 -52.9785 L 62.0605 -35.8887 C 62.5977 -35.3516 63.2812 -35.0586 64.1113 -35.0586 C 65.6738 -35.0586 66.8945 -36.3281 66.8945 -37.8906 C 66.8945 -38.7695 66.6016 -39.502 65.9668 -39.9902 L 60.0586 -45.5566 L 52.3926 -52.6855 L 61.4746 -52.4414 L 101.465 -52.4414 C 103.223 -52.4414 104.443 -53.6133 104.443 -55.3711 Z M 104.443 -16.7969 C 104.443 -17.5781 104.102 -18.4082 103.369 -19.0918 L 85.8398 -36.1816 C 85.3027 -36.7188 84.668 -37.0117 83.8379 -37.0117 C 82.2754 -37.0117 81.0547 -35.791 81.0547 -34.1797 C 81.0547 -33.3496 81.3477 -32.5684 81.9336 -32.0801 L 87.8906 -26.4648 L 95.459 -19.4336 L 86.4746 -19.7266 L 46.4355 -19.7266 C 44.6777 -19.7266 43.5059 -18.457 43.5059 -16.7969 C 43.5059 -15.0391 44.6777 -13.8184 46.4355 -13.8184 L 86.4746 -13.8184 L 95.5078 -14.1113 L 87.8906 -6.98242 L 81.9336 -1.41602 C 81.3477 -0.927734 81.0547 -0.146484 81.0547 0.683594 C 81.0547 2.29492 82.2754 3.51562 83.8379 3.51562 C 84.668 3.51562 85.3027 3.22266 85.8398 2.68555 L 103.369 -14.3555 C 104.102 -15.0391 104.443 -15.918 104.443 -16.7969 Z"/>
  </g>
  <g id="Regular-L" transform="matrix(1 0 0 1 1374.99 1556)">
   <path d="M 74.8535 28.3691 C 109.668 28.3691 138.428 -0.390625 138.428 -35.2051 C 138.428 -70.0195 109.619 -98.7793 74.8047 -98.7793 C 39.9902 -98.7793 11.2793 -70.0195 11.2793 -35.2051 C 11.2793 -0.390625 40.0391 28.3691 74.8535 28.3691 Z M 74.8535 19.2871 C 44.6289 19.2871 20.4102 -5.0293 20.4102 -35.2051 C 20.4102 -65.3809 44.5801 -89.6973 74.8047 -89.6973 C 104.98 -89.6973 129.297 -65.3809 129.346 -35.2051 C 129.395 -5.0293 105.029 19.2871 74.8535 19.2871 Z M 104.883 -55.3711 C 104.883 -57.5195 103.369 -59.082 101.172 -59.082 L 65.4297 -59.082 L 56.0547 -58.7402 L 63.2812 -65.0391 L 67.9199 -69.1895 C 68.7012 -69.7754 69.043 -70.752 69.043 -71.8262 C 69.043 -73.8281 67.4805 -75.3906 65.4297 -75.3906 C 64.4043 -75.3906 63.5742 -75.0488 62.8906 -74.4141 L 46.2891 -58.4473 C 45.3125 -57.4707 44.873 -56.3965 44.873 -55.3711 C 44.873 -54.2969 45.3613 -53.125 46.2891 -52.2461 L 62.8906 -36.3281 C 63.5742 -35.6445 64.4043 -35.3027 65.4297 -35.3027 C 67.4805 -35.3027 69.043 -36.8652 69.043 -38.916 C 69.043 -39.9902 68.7012 -41.0156 67.9199 -41.5527 L 63.2812 -45.5566 L 56.0059 -52.002 L 65.4297 -51.6602 L 101.172 -51.6602 C 103.369 -51.6602 104.883 -53.1738 104.883 -55.3711 Z M 104.883 -16.7969 C 104.883 -17.8223 104.492 -18.8965 103.467 -19.8242 L 86.8652 -35.791 C 86.2305 -36.4746 85.3516 -36.7676 84.3262 -36.7676 C 82.2754 -36.7676 80.7617 -35.2539 80.7617 -33.2031 C 80.7617 -32.1289 81.1035 -31.1035 81.8848 -30.5664 L 86.4746 -26.4648 L 93.7012 -20.1172 L 84.375 -20.5078 L 48.584 -20.5078 C 46.4355 -20.5078 44.873 -18.9453 44.873 -16.7969 C 44.873 -14.5996 46.4355 -13.0371 48.584 -13.0371 L 84.375 -13.0371 L 93.7988 -13.4277 L 86.4746 -6.98242 L 81.8848 -2.92969 C 81.1035 -2.44141 80.7617 -1.36719 80.7617 -0.292969 C 80.7617 1.70898 82.2754 3.32031 84.3262 3.32031 C 85.3516 3.32031 86.2305 2.92969 86.8652 2.29492 L 103.467 -13.623 C 104.443 -14.502 104.883 -15.6738 104.883 -16.7969 Z"/>
  </g>
  <g id="Medium-L" transform="matrix(1 0 0 1 1670.9 1556)">
   <path d="M 75.6348 29.1992 C 110.938 29.1992 140.039 0.0488281 140.039 -35.2051 C 140.039 -70.459 110.889 -99.6094 75.5859 -99.6094 C 40.332 -99.6094 11.2793 -70.459 11.2793 -35.2051 C 11.2793 0.0488281 40.3809 29.1992 75.6348 29.1992 Z M 75.6348 18.0664 C 46.1426 18.0664 22.4609 -5.71289 22.4609 -35.2051 C 22.4609 -64.6973 46.0938 -88.4766 75.5859 -88.4766 C 105.127 -88.4766 128.857 -64.6973 128.906 -35.2051 C 128.955 -5.71289 105.176 18.0664 75.6348 18.0664 Z M 105.371 -55.1758 C 105.371 -57.6172 103.662 -59.4238 101.221 -59.4238 L 67.3828 -59.4238 L 58.252 -58.8867 L 65.1367 -64.6973 L 69.3359 -68.3594 C 70.2148 -69.043 70.5566 -70.1172 70.5566 -71.2891 C 70.5566 -73.5352 68.8965 -75.1953 66.6016 -75.1953 C 65.4785 -75.1953 64.502 -74.8047 63.7695 -74.0723 L 47.5586 -58.5938 C 46.4355 -57.5684 45.9961 -56.3965 45.9961 -55.1758 C 45.9961 -53.9062 46.4844 -52.6367 47.5586 -51.6602 L 63.7695 -36.2305 C 64.502 -35.498 65.4785 -35.0586 66.6016 -35.0586 C 68.8965 -35.0586 70.5566 -36.7676 70.5566 -39.0137 C 70.5566 -40.1855 70.2148 -41.3086 69.3359 -41.9434 L 65.1367 -45.5566 L 58.2031 -51.4648 L 67.3828 -50.9277 L 101.221 -50.9277 C 103.662 -50.9277 105.371 -52.6855 105.371 -55.1758 Z M 105.371 -16.748 C 105.371 -17.9688 104.932 -19.1895 103.809 -20.2148 L 87.5977 -35.6445 C 86.8652 -36.4258 85.8887 -36.7676 84.7656 -36.7676 C 82.5195 -36.7676 80.8105 -35.1074 80.8105 -32.9102 C 80.8105 -31.6895 81.2012 -30.5664 82.0312 -29.9316 L 86.2305 -26.2695 L 93.1152 -20.5078 L 83.9844 -20.9961 L 50.1465 -20.9961 C 47.7051 -20.9961 45.9961 -19.1895 45.9961 -16.748 C 45.9961 -14.3066 47.7051 -12.5488 50.1465 -12.5488 L 83.9844 -12.5488 L 93.2129 -13.0371 L 86.2305 -7.12891 L 82.0312 -3.56445 C 81.2012 -2.97852 80.8105 -1.80664 80.8105 -0.634766 C 80.8105 1.61133 82.5195 3.32031 84.7656 3.32031 C 85.8887 3.32031 86.8652 2.92969 87.5977 2.14844 L 103.809 -13.2324 C 104.883 -14.209 105.371 -15.4785 105.371 -16.748 Z"/>
  </g>
  <g id="Semibold-L" transform="matrix(1 0 0 1 1967 1556)">
   <path d="M 76.2695 29.7852 C 111.914 29.7852 141.26 0.439453 141.26 -35.2051 C 141.26 -70.8496 111.865 -100.244 76.2207 -100.244 C 40.5762 -100.244 11.2793 -70.8496 11.2793 -35.2051 C 11.2793 0.439453 40.625 29.7852 76.2695 29.7852 Z M 76.2695 17.0898 C 47.3145 17.0898 24.0234 -6.25 24.0234 -35.2051 C 24.0234 -64.209 47.2656 -87.5 76.2207 -87.5 C 105.225 -87.5 128.516 -64.209 128.564 -35.2051 C 128.613 -6.25 105.273 17.0898 76.2695 17.0898 Z M 105.762 -55.0293 C 105.762 -57.666 103.906 -59.668 101.221 -59.668 L 68.8477 -59.668 L 59.9121 -59.0332 L 66.5527 -64.4043 L 70.4102 -67.7246 C 71.3867 -68.457 71.7285 -69.6289 71.7285 -70.8984 C 71.7285 -73.3398 69.9219 -75.0488 67.4805 -75.0488 C 66.2598 -75.0488 65.2344 -74.6094 64.4043 -73.8281 L 48.4863 -58.7402 C 47.3633 -57.6172 46.8262 -56.3965 46.8262 -55.0293 C 46.8262 -53.6133 47.3633 -52.2949 48.4863 -51.2207 L 64.4043 -36.1816 C 65.2344 -35.4004 66.2598 -34.9121 67.4805 -34.9121 C 69.9219 -34.9121 71.7285 -36.7188 71.7285 -39.1113 C 71.7285 -40.3809 71.3867 -41.6016 70.4102 -42.2852 L 66.5527 -45.5078 L 59.8633 -51.0254 L 68.8477 -50.3906 L 101.221 -50.3906 C 103.906 -50.3906 105.762 -52.3438 105.762 -55.0293 Z M 105.762 -16.748 C 105.762 -18.1152 105.273 -19.3848 104.102 -20.459 L 88.1836 -35.5957 C 87.3535 -36.377 86.3281 -36.8164 85.1074 -36.8164 C 82.666 -36.8164 80.8594 -35.0586 80.8594 -32.6172 C 80.8594 -31.3477 81.25 -30.1758 82.2266 -29.4922 L 86.0352 -26.1719 L 92.6758 -20.752 L 83.7402 -21.3867 L 51.3672 -21.3867 C 48.6816 -21.3867 46.8262 -19.4336 46.8262 -16.748 C 46.8262 -14.0625 48.6816 -12.1094 51.3672 -12.1094 L 83.7402 -12.1094 L 92.7246 -12.7441 L 86.0352 -7.27539 L 82.2266 -4.00391 C 81.25 -3.36914 80.8594 -2.09961 80.8594 -0.830078 C 80.8594 1.5625 82.666 3.36914 85.1074 3.36914 C 86.3281 3.36914 87.3535 2.88086 88.1836 2.09961 L 104.102 -12.9395 C 105.225 -13.9648 105.762 -15.332 105.762 -16.748 Z"/>
  </g>
  <g id="Bold-L" transform="matrix(1 0 0 1 2262.9 1556)">
   <path d="M 77.0996 30.6152 C 113.184 30.6152 142.92 0.878906 142.92 -35.2051 C 142.92 -71.3379 113.135 -101.025 77.0508 -101.025 C 40.918 -101.025 11.2793 -71.3379 11.2793 -35.2051 C 11.2793 0.878906 40.9668 30.6152 77.0996 30.6152 Z M 77.0996 15.8691 C 48.7793 15.8691 26.0742 -6.93359 26.0742 -35.2051 C 26.0742 -63.4766 48.7793 -86.2793 77.0508 -86.2793 C 105.322 -86.2793 128.125 -63.4766 128.125 -35.2051 C 128.174 -6.93359 105.371 15.8691 77.0996 15.8691 Z M 106.299 -54.834 C 106.299 -57.7637 104.248 -60.0098 101.27 -60.0098 L 70.8496 -60.0098 L 62.1582 -59.2285 L 68.4082 -64.0625 L 71.8262 -66.8945 C 72.9004 -67.7246 73.291 -68.9941 73.291 -70.3613 C 73.291 -72.998 71.3379 -74.9023 68.6523 -74.9023 C 67.334 -74.9023 66.2109 -74.3652 65.2832 -73.5352 L 49.7559 -58.9355 C 48.5352 -57.7148 47.9492 -56.3477 47.9492 -54.834 C 47.9492 -53.2227 48.5352 -51.8066 49.7559 -50.6348 L 65.2832 -36.084 C 66.2109 -35.2539 67.334 -34.7168 68.6523 -34.7168 C 71.3379 -34.7168 73.291 -36.6211 73.291 -39.2578 C 73.291 -40.625 72.9004 -41.9434 71.8262 -42.7246 L 68.4082 -45.5078 L 62.1094 -50.4395 L 70.8496 -49.6582 L 101.27 -49.6582 C 104.248 -49.6582 106.299 -51.8555 106.299 -54.834 Z M 106.299 -16.748 C 106.299 -18.2617 105.713 -19.6777 104.443 -20.8496 L 88.916 -35.4492 C 87.9883 -36.3281 86.8652 -36.8164 85.5469 -36.8164 C 82.8613 -36.8164 80.9082 -34.9609 80.9082 -32.3242 C 80.9082 -30.9082 81.3477 -29.5898 82.373 -28.8574 L 85.791 -25.9766 L 92.0898 -21.1426 L 83.3984 -21.9238 L 52.9785 -21.9238 C 50 -21.9238 47.9492 -19.7266 47.9492 -16.748 C 47.9492 -13.7695 50 -11.5723 52.9785 -11.5723 L 83.3984 -11.5723 L 92.1387 -12.3535 L 85.791 -7.42188 L 82.373 -4.63867 C 81.3477 -3.90625 80.9082 -2.53906 80.9082 -1.17188 C 80.9082 1.46484 82.8613 3.36914 85.5469 3.36914 C 86.8652 3.36914 87.9883 2.83203 88.916 2.00195 L 104.443 -12.5977 C 105.664 -13.7207 106.299 -15.1855 106.299 -16.748 Z"/>
  </g>
  <g id="Heavy-L" transform="matrix(1 0 0 1 2558.42 1556)">
   <path d="M 78.2715 31.7871 C 115.039 31.7871 145.264 1.61133 145.264 -35.2051 C 145.264 -72.0215 115.039 -102.197 78.2227 -102.197 C 41.4551 -102.197 11.2793 -72.0215 11.2793 -35.2051 C 11.2793 1.61133 41.4551 31.7871 78.2715 31.7871 Z M 78.2715 14.0137 C 50.9766 14.0137 29.0527 -7.95898 29.0527 -35.2051 C 29.0527 -62.5 50.9766 -84.4727 78.2227 -84.4727 C 105.518 -84.4727 127.49 -62.5 127.49 -35.2051 C 127.539 -7.95898 105.518 14.0137 78.2715 14.0137 Z M 106.982 -54.541 C 106.982 -57.9102 104.688 -60.4492 101.27 -60.4492 L 73.6816 -60.4492 L 65.332 -59.4727 L 71.1426 -63.5254 L 73.877 -65.7227 C 75.0977 -66.6504 75.5859 -68.0664 75.5859 -69.6289 C 75.5859 -72.6074 73.3887 -74.6582 70.3613 -74.6582 C 68.8965 -74.6582 67.627 -74.0234 66.5527 -73.0469 L 51.6113 -59.1797 C 50.1953 -57.8613 49.5605 -56.3477 49.5605 -54.541 C 49.5605 -52.6855 50.2441 -51.123 51.6113 -49.8047 L 66.5527 -35.9863 C 67.627 -35.0098 68.8965 -34.375 70.3613 -34.375 C 73.3887 -34.375 75.5859 -36.4746 75.5859 -39.4043 C 75.5859 -40.9668 75.0977 -42.4316 73.877 -43.3105 L 71.1426 -45.459 L 65.332 -49.5605 L 73.6816 -48.584 L 101.27 -48.584 C 104.688 -48.584 106.982 -51.123 106.982 -54.541 Z M 106.982 -16.748 C 106.982 -18.5059 106.348 -20.0684 104.932 -21.3867 L 89.9902 -35.2539 C 88.9648 -36.2305 87.6953 -36.8164 86.2305 -36.8164 C 83.2031 -36.8164 81.0059 -34.8145 81.0059 -31.8359 C 81.0059 -30.2734 81.4941 -28.8086 82.666 -27.9297 L 85.4492 -25.7324 L 91.2109 -21.6797 L 82.8613 -22.6562 L 55.2734 -22.6562 C 51.8555 -22.6562 49.5605 -20.1172 49.5605 -16.748 C 49.5605 -13.3301 51.8555 -10.791 55.2734 -10.791 L 82.8613 -10.791 L 91.2598 -11.7676 L 85.4492 -7.66602 L 82.666 -5.51758 C 81.4941 -4.6875 81.0059 -3.17383 81.0059 -1.61133 C 81.0059 1.31836 83.2031 3.41797 86.2305 3.41797 C 87.6953 3.41797 88.9648 2.7832 89.9902 1.80664 L 104.932 -12.0117 C 106.299 -13.2812 106.982 -14.8926 106.982 -16.748 Z"/>
  </g>
  <g id="Black-L" transform="matrix(1 0 0 1 2854.08 1556)">
   <path d="M 79.2969 32.8613 C 116.748 32.8613 147.363 2.19727 147.363 -35.2051 C 147.363 -72.6074 116.699 -103.271 79.2969 -103.271 C 41.8945 -103.271 11.2793 -72.6074 11.2793 -35.2051 C 11.2793 2.19727 41.8945 32.8613 79.2969 32.8613 Z M 79.2969 12.4023 C 52.9297 12.4023 31.7383 -8.83789 31.7383 -35.2051 C 31.7383 -61.5723 52.9297 -82.8125 79.2969 -82.8125 C 105.664 -82.8125 126.904 -61.5723 126.953 -35.2051 C 126.953 -8.83789 105.664 12.4023 79.2969 12.4023 Z M 107.666 -54.248 C 107.666 -58.0566 105.078 -60.8887 101.318 -60.8887 L 76.2695 -60.8887 L 68.2129 -59.7168 L 73.5352 -63.0371 L 75.7324 -64.6484 C 77.0508 -65.6738 77.5879 -67.2852 77.5879 -68.9453 C 77.5879 -72.2168 75.1953 -74.4141 71.875 -74.4141 C 70.2637 -74.4141 68.8965 -73.7305 67.7246 -72.6562 L 53.2227 -59.4238 C 51.7578 -57.959 51.0254 -56.2988 51.0254 -54.248 C 51.0254 -52.1973 51.7578 -50.4883 53.2227 -49.0723 L 67.7246 -35.8887 C 68.8965 -34.8145 70.2637 -34.082 71.875 -34.082 C 75.1953 -34.082 77.5879 -36.3281 77.5879 -39.5996 C 77.5879 -41.2598 77.0508 -42.8711 75.7324 -43.8965 L 73.5352 -45.459 L 68.2129 -48.8281 L 76.2695 -47.6562 L 101.318 -47.6562 C 105.078 -47.6562 107.666 -50.4883 107.666 -54.248 Z M 107.666 -16.6992 C 107.666 -18.75 106.934 -20.459 105.42 -21.875 L 90.9668 -35.1074 C 89.7949 -36.1816 88.3789 -36.8652 86.8164 -36.8652 C 83.4473 -36.8652 81.0547 -34.668 81.0547 -31.3965 C 81.0547 -29.7363 81.6406 -28.0762 82.9102 -27.0996 L 85.1074 -25.4883 L 90.4297 -22.168 L 82.4219 -23.3398 L 57.3242 -23.3398 C 53.5645 -23.3398 51.0254 -20.5078 51.0254 -16.6992 C 51.0254 -12.9395 53.5645 -10.1074 57.3242 -10.1074 L 82.4219 -10.1074 L 90.4785 -11.2793 L 85.1074 -7.91016 L 82.9102 -6.34766 C 81.6406 -5.37109 81.0547 -3.71094 81.0547 -2.05078 C 81.0547 1.2207 83.4473 3.4668 86.8164 3.4668 C 88.3789 3.4668 89.7949 2.73438 90.9668 1.66016 L 105.42 -11.5234 C 106.885 -12.8906 107.666 -14.6484 107.666 -16.6992 Z"/>
  </g>
 </g>
</svg>
