<?xml version="1.0" encoding="UTF-8"?>
<!--Generator: Apple Native CoreSVG 123-->
<!DOCTYPE svg
PUBLIC "-//W3C//DTD SVG 1.1//EN"
       "http://www.w3.org/Graphics/SVG/1.1/DTD/svg11.dtd">
<svg version="1.1" xmlns="http://www.w3.org/2000/svg" xmlns:xlink="http://www.w3.org/1999/xlink" width="3300" height="2200">
 <!--glyph: "uni100132.medium", point size: 100.000000, font version: "Version 15.0d4e20", template writer version: "2"-->
 <g id="Notes">
  <rect height="2200" id="artboard" style="fill:white;opacity:1" width="3300" x="0" y="0"/>
  <line id="" style="fill:none;stroke:black;opacity:1;stroke-width:0.5;" x1="263" x2="3036" y1="292" y2="292"/>
  <text style="stroke:none;fill:black;font-family:-apple-system,&quot;SF Pro Display&quot;,&quot;SF Pro Text&quot;,Helvetica,sans-serif;font-weight:bold;" transform="matrix(1 0 0 1 263 322)">Weight/Scale Variations</text>
  <text style="stroke:none;fill:black;font-family:-apple-system,&quot;SF Pro Display&quot;,&quot;SF Pro Text&quot;,Helvetica,sans-serif;text-anchor:middle;" transform="matrix(1 0 0 1 559.711 322)">Ultralight</text>
  <text style="stroke:none;fill:black;font-family:-apple-system,&quot;SF Pro Display&quot;,&quot;SF Pro Text&quot;,Helvetica,sans-serif;text-anchor:middle;" transform="matrix(1 0 0 1 856.422 322)">Thin</text>
  <text style="stroke:none;fill:black;font-family:-apple-system,&quot;SF Pro Display&quot;,&quot;SF Pro Text&quot;,Helvetica,sans-serif;text-anchor:middle;" transform="matrix(1 0 0 1 1153.13 322)">Light</text>
  <text style="stroke:none;fill:black;font-family:-apple-system,&quot;SF Pro Display&quot;,&quot;SF Pro Text&quot;,Helvetica,sans-serif;text-anchor:middle;" transform="matrix(1 0 0 1 1449.84 322)">Regular</text>
  <text style="stroke:none;fill:black;font-family:-apple-system,&quot;SF Pro Display&quot;,&quot;SF Pro Text&quot;,Helvetica,sans-serif;text-anchor:middle;" transform="matrix(1 0 0 1 1746.56 322)">Medium</text>
  <text style="stroke:none;fill:black;font-family:-apple-system,&quot;SF Pro Display&quot;,&quot;SF Pro Text&quot;,Helvetica,sans-serif;text-anchor:middle;" transform="matrix(1 0 0 1 2043.27 322)">Semibold</text>
  <text style="stroke:none;fill:black;font-family:-apple-system,&quot;SF Pro Display&quot;,&quot;SF Pro Text&quot;,Helvetica,sans-serif;text-anchor:middle;" transform="matrix(1 0 0 1 2339.98 322)">Bold</text>
  <text style="stroke:none;fill:black;font-family:-apple-system,&quot;SF Pro Display&quot;,&quot;SF Pro Text&quot;,Helvetica,sans-serif;text-anchor:middle;" transform="matrix(1 0 0 1 2636.69 322)">Heavy</text>
  <text style="stroke:none;fill:black;font-family:-apple-system,&quot;SF Pro Display&quot;,&quot;SF Pro Text&quot;,Helvetica,sans-serif;text-anchor:middle;" transform="matrix(1 0 0 1 2933.4 322)">Black</text>
  <line id="" style="fill:none;stroke:black;opacity:1;stroke-width:0.5;" x1="263" x2="3036" y1="1903" y2="1903"/>
  <g id="" transform="matrix(1 0 0 1 263 1933)">
   <path d="M 9.24805 0.830078 C 13.5547 0.830078 17.1387 -2.74414 17.1387 -7.05078 C 17.1387 -11.3574 13.5449 -14.9316 9.23828 -14.9316 C 4.94141 -14.9316 1.36719 -11.3574 1.36719 -7.05078 C 1.36719 -2.74414 4.95117 0.830078 9.24805 0.830078 Z M 9.24805 -0.654297 C 5.70312 -0.654297 2.87109 -3.49609 2.87109 -7.05078 C 2.87109 -10.6055 5.69336 -13.4473 9.23828 -13.4473 C 12.793 -13.4473 15.6348 -10.6055 15.6445 -7.05078 C 15.6543 -3.49609 12.8027 -0.654297 9.24805 -0.654297 Z M 9.22852 -3.42773 C 9.69727 -3.42773 9.9707 -3.74023 9.9707 -4.25781 L 9.9707 -6.31836 L 12.1973 -6.31836 C 12.6953 -6.31836 13.0371 -6.57227 13.0371 -7.04102 C 13.0371 -7.51953 12.7148 -7.7832 12.1973 -7.7832 L 9.9707 -7.7832 L 9.9707 -10.0098 C 9.9707 -10.5273 9.69727 -10.8496 9.22852 -10.8496 C 8.75977 -10.8496 8.50586 -10.5078 8.50586 -10.0098 L 8.50586 -7.7832 L 6.29883 -7.7832 C 5.78125 -7.7832 5.44922 -7.51953 5.44922 -7.04102 C 5.44922 -6.57227 5.80078 -6.31836 6.29883 -6.31836 L 8.50586 -6.31836 L 8.50586 -4.25781 C 8.50586 -3.75977 8.75977 -3.42773 9.22852 -3.42773 Z"/>
  </g>
  <g id="" transform="matrix(1 0 0 1 281.506 1933)">
   <path d="M 11.709 2.91016 C 17.1484 2.91016 21.6699 -1.60156 21.6699 -7.05078 C 21.6699 -12.4902 17.1387 -17.0117 11.6992 -17.0117 C 6.25 -17.0117 1.74805 -12.4902 1.74805 -7.05078 C 1.74805 -1.60156 6.25977 2.91016 11.709 2.91016 Z M 11.709 1.25 C 7.09961 1.25 3.41797 -2.44141 3.41797 -7.05078 C 3.41797 -11.6504 7.08984 -15.3516 11.6992 -15.3516 C 16.2988 -15.3516 20 -11.6504 20.0098 -7.05078 C 20.0195 -2.44141 16.3086 1.25 11.709 1.25 Z M 11.6797 -2.41211 C 12.207 -2.41211 12.5195 -2.77344 12.5195 -3.33984 L 12.5195 -6.23047 L 15.5762 -6.23047 C 16.123 -6.23047 16.5039 -6.51367 16.5039 -7.03125 C 16.5039 -7.55859 16.1426 -7.86133 15.5762 -7.86133 L 12.5195 -7.86133 L 12.5195 -10.9277 C 12.5195 -11.5039 12.207 -11.8555 11.6797 -11.8555 C 11.1621 -11.8555 10.8789 -11.4844 10.8789 -10.9277 L 10.8789 -7.86133 L 7.83203 -7.86133 C 7.25586 -7.86133 6.89453 -7.55859 6.89453 -7.03125 C 6.89453 -6.51367 7.28516 -6.23047 7.83203 -6.23047 L 10.8789 -6.23047 L 10.8789 -3.33984 C 10.8789 -2.79297 11.1621 -2.41211 11.6797 -2.41211 Z"/>
  </g>
  <g id="" transform="matrix(1 0 0 1 304.914 1933)">
   <path d="M 14.9707 5.67383 C 21.9336 5.67383 27.6855 -0.078125 27.6855 -7.04102 C 27.6855 -14.0039 21.9238 -19.7559 14.9609 -19.7559 C 7.99805 -19.7559 2.25586 -14.0039 2.25586 -7.04102 C 2.25586 -0.078125 8.00781 5.67383 14.9707 5.67383 Z M 14.9707 3.85742 C 8.92578 3.85742 4.08203 -1.00586 4.08203 -7.04102 C 4.08203 -13.0762 8.91602 -17.9395 14.9609 -17.9395 C 20.9961 -17.9395 25.8594 -13.0762 25.8691 -7.04102 C 25.8789 -1.00586 21.0059 3.85742 14.9707 3.85742 Z M 14.9414 -1.06445 C 15.5176 -1.06445 15.8594 -1.45508 15.8594 -2.06055 L 15.8594 -6.13281 L 20.0977 -6.13281 C 20.6934 -6.13281 21.1133 -6.46484 21.1133 -7.02148 C 21.1133 -7.59766 20.7227 -7.93945 20.0977 -7.93945 L 15.8594 -7.93945 L 15.8594 -12.1875 C 15.8594 -12.8027 15.5176 -13.1934 14.9414 -13.1934 C 14.3848 -13.1934 14.0625 -12.7832 14.0625 -12.1875 L 14.0625 -7.93945 L 9.82422 -7.93945 C 9.20898 -7.93945 8.80859 -7.59766 8.80859 -7.02148 C 8.80859 -6.46484 9.23828 -6.13281 9.82422 -6.13281 L 14.0625 -6.13281 L 14.0625 -2.06055 C 14.0625 -1.47461 14.3848 -1.06445 14.9414 -1.06445 Z"/>
  </g>
  <text style="stroke:none;fill:black;font-family:-apple-system,&quot;SF Pro Display&quot;,&quot;SF Pro Text&quot;,Helvetica,sans-serif;font-weight:bold;" transform="matrix(1 0 0 1 263 1953)">Design Variations</text>
  <text style="stroke:none;fill:black;font-family:-apple-system,&quot;SF Pro Display&quot;,&quot;SF Pro Text&quot;,Helvetica,sans-serif;" transform="matrix(1 0 0 1 263 1971)">Symbols are supported in up to nine weights and three scales.</text>
  <text style="stroke:none;fill:black;font-family:-apple-system,&quot;SF Pro Display&quot;,&quot;SF Pro Text&quot;,Helvetica,sans-serif;" transform="matrix(1 0 0 1 263 1989)">For optimal layout with text and other symbols, vertically align</text>
  <text style="stroke:none;fill:black;font-family:-apple-system,&quot;SF Pro Display&quot;,&quot;SF Pro Text&quot;,Helvetica,sans-serif;" transform="matrix(1 0 0 1 263 2007)">symbols with the adjacent text.</text>
  <rect height="14" id="" style="fill:#00AEEF;stroke:none;opacity:0.4;" width="3" x="776" y="1919"/>
  <g id="" transform="matrix(1 0 0 1 779 1933)">
   <path d="M 10.5273 0 L 12.373 0 L 7.17773 -14.0918 L 5.43945 -14.0918 L 0.244141 0 L 2.08984 0 L 3.50586 -4.0332 L 9.11133 -4.0332 Z M 6.2793 -11.9531 L 6.33789 -11.9531 L 8.59375 -5.52734 L 4.02344 -5.52734 Z"/>
  </g>
  <rect height="14" id="" style="fill:#00AEEF;stroke:none;opacity:0.4;" width="3" x="791.617" y="1919"/>
  <text style="stroke:none;fill:black;font-family:-apple-system,&quot;SF Pro Display&quot;,&quot;SF Pro Text&quot;,Helvetica,sans-serif;font-weight:bold;" transform="matrix(1 0 0 1 776 1953)">Side Bearings</text>
  <text style="stroke:none;fill:black;font-family:-apple-system,&quot;SF Pro Display&quot;,&quot;SF Pro Text&quot;,Helvetica,sans-serif;" transform="matrix(1 0 0 1 776 1971)">Horizontal padding on the left and right side of each symbol</text>
  <text style="stroke:none;fill:black;font-family:-apple-system,&quot;SF Pro Display&quot;,&quot;SF Pro Text&quot;,Helvetica,sans-serif;" transform="matrix(1 0 0 1 776 1989)">can be adjusted by modifying the width of the blue rectangles.</text>
  <text style="stroke:none;fill:black;font-family:-apple-system,&quot;SF Pro Display&quot;,&quot;SF Pro Text&quot;,Helvetica,sans-serif;" transform="matrix(1 0 0 1 776 2007)">Modifications are automatically applied proportionally to all</text>
  <text style="stroke:none;fill:black;font-family:-apple-system,&quot;SF Pro Display&quot;,&quot;SF Pro Text&quot;,Helvetica,sans-serif;" transform="matrix(1 0 0 1 776 2025)">scales and weights.</text>
  <g id="" transform="matrix(1 0 0 1 1289 1933)">
   <path d="M 2.96875 2.35352 L 3.80859 3.19336 C 4.84375 4.22852 6.12305 4.15039 7.19727 2.97852 L 16.1621 -6.82617 C 16.5527 -6.74805 16.9629 -6.8457 17.4902 -7.02148 C 18.1738 -7.25586 18.2715 -7.25586 18.3887 -7.13867 C 18.5352 -7.01172 18.4863 -6.89453 18.2422 -6.25 C 17.8809 -5.33203 17.8125 -4.79492 18.5547 -4.02344 L 19.4238 -3.13477 C 20.2734 -2.24609 21.3281 -2.26562 22.2168 -3.14453 L 25.0586 -5.97656 C 25.9473 -6.86523 25.957 -7.92969 25.0781 -8.7793 L 24.1797 -9.64844 C 23.4082 -10.4004 22.8711 -10.3516 21.9629 -9.98047 C 21.3184 -9.72656 21.2012 -9.6875 21.0645 -9.81445 C 20.9375 -9.93164 20.9473 -10.0391 21.1816 -10.7129 C 21.5332 -11.6895 21.5723 -12.2852 20.752 -13.0957 L 19.3359 -14.5117 C 15.1953 -18.6133 11.2305 -18.7402 7.65625 -15.4395 C 7.08008 -14.9023 6.99219 -14.1504 7.53906 -13.6133 L 7.79297 -13.3594 C 8.22266 -12.9297 8.86719 -12.8418 9.41406 -13.1152 C 11.0645 -13.9453 12.2559 -14.0234 13.457 -12.9785 L 13.0273 -11.416 C 12.8516 -10.8008 12.793 -10.3418 12.9199 -9.93164 L 3.18359 -1.04492 C 2.02148 0.0292969 1.93359 1.32812 2.96875 2.35352 Z M 8.96484 -14.4922 C 8.89648 -14.5703 8.86719 -14.6582 8.99414 -14.7559 C 11.709 -17.2852 15.0391 -16.8457 18.3496 -13.5254 L 19.6973 -12.168 C 20.0879 -11.7773 20.0977 -11.582 19.8828 -10.8691 C 19.6582 -10.127 19.502 -9.53125 20.1465 -8.88672 C 20.8105 -8.22266 21.2891 -8.41797 22.207 -8.63281 C 22.9004 -8.79883 23.0664 -8.79883 23.4473 -8.41797 L 24.0918 -7.77344 C 24.4043 -7.48047 24.4141 -7.32422 24.0723 -6.97266 L 21.2207 -4.13086 C 20.8887 -3.79883 20.7227 -3.79883 20.4297 -4.10156 L 19.7852 -4.75586 C 19.4141 -5.13672 19.4141 -5.30273 19.5801 -6.01562 C 19.7852 -6.88477 19.9805 -7.38281 19.3262 -8.04688 C 18.6719 -8.7207 18.0762 -8.57422 17.3438 -8.33008 C 16.5625 -8.06641 16.3281 -8.06641 15.8984 -8.49609 L 14.6094 -9.78516 C 14.1699 -10.2246 14.1309 -10.4395 14.2676 -10.9082 L 15.0293 -13.3984 C 13.3887 -15.2832 11.4941 -15.5566 9.20898 -14.4434 C 9.11133 -14.3945 9.04297 -14.4141 8.96484 -14.4922 Z M 3.96484 1.36719 C 3.52539 0.927734 3.54492 0.537109 4.14062 -0.00976562 L 13.7402 -8.81836 L 15 -7.55859 L 6.17188 2.02148 C 5.625 2.60742 5.24414 2.64648 4.79492 2.19727 Z"/>
  </g>
  <text style="stroke:none;fill:black;font-family:-apple-system,&quot;SF Pro Display&quot;,&quot;SF Pro Text&quot;,Helvetica,sans-serif;font-weight:bold;" transform="matrix(1 0 0 1 1289 1953)">Exporting</text>
  <text style="stroke:none;fill:black;font-family:-apple-system,&quot;SF Pro Display&quot;,&quot;SF Pro Text&quot;,Helvetica,sans-serif;" transform="matrix(1 0 0 1 1289 1971)">Symbols should be outlined when exporting to ensure the</text>
  <text style="stroke:none;fill:black;font-family:-apple-system,&quot;SF Pro Display&quot;,&quot;SF Pro Text&quot;,Helvetica,sans-serif;" transform="matrix(1 0 0 1 1289 1989)">design is preserved when submitting to Xcode.</text>
  <text id="template-version" style="stroke:none;fill:black;font-family:-apple-system,&quot;SF Pro Display&quot;,&quot;SF Pro Text&quot;,Helvetica,sans-serif;text-anchor:end;" transform="matrix(1 0 0 1 3036 1933)">Template v.0.1</text>
  <text style="stroke:none;fill:black;font-family:-apple-system,&quot;SF Pro Display&quot;,&quot;SF Pro Text&quot;,Helvetica,sans-serif;text-anchor:end;" transform="matrix(1 0 0 1 3036 1951)">Generated from arrow.turn.right.up</text>
  <text style="stroke:none;fill:black;font-family:-apple-system,&quot;SF Pro Display&quot;,&quot;SF Pro Text&quot;,Helvetica,sans-serif;text-anchor:end;" transform="matrix(1 0 0 1 3036 1969)">Typeset at 100 points</text>
  <text style="stroke:none;fill:black;font-family:-apple-system,&quot;SF Pro Display&quot;,&quot;SF Pro Text&quot;,Helvetica,sans-serif;" transform="matrix(1 0 0 1 263 726)">Small</text>
  <text style="stroke:none;fill:black;font-family:-apple-system,&quot;SF Pro Display&quot;,&quot;SF Pro Text&quot;,Helvetica,sans-serif;" transform="matrix(1 0 0 1 263 1156)">Medium</text>
  <text style="stroke:none;fill:black;font-family:-apple-system,&quot;SF Pro Display&quot;,&quot;SF Pro Text&quot;,Helvetica,sans-serif;" transform="matrix(1 0 0 1 263 1586)">Large</text>
 </g>
 <g id="Guides">
  <g id="H-reference" style="fill:#27AAE1;stroke:none;" transform="matrix(1 0 0 1 339 696)">
   <path d="M 54.9316 0 L 57.666 0 L 30.5664 -70.459 L 28.0762 -70.459 L 0.976562 0 L 3.66211 0 L 12.9395 -24.4629 L 45.7031 -24.4629 Z M 29.1992 -67.0898 L 29.4434 -67.0898 L 44.8242 -26.709 L 13.8184 -26.709 Z"/>
  </g>
  <line id="Baseline-S" style="fill:none;stroke:#27AAE1;opacity:1;stroke-width:0.577;" x1="263" x2="3036" y1="696" y2="696"/>
  <line id="Capline-S" style="fill:none;stroke:#27AAE1;opacity:1;stroke-width:0.577;" x1="263" x2="3036" y1="625.541" y2="625.541"/>
  <g id="H-reference" style="fill:#27AAE1;stroke:none;" transform="matrix(1 0 0 1 339 1126)">
   <path d="M 54.9316 0 L 57.666 0 L 30.5664 -70.459 L 28.0762 -70.459 L 0.976562 0 L 3.66211 0 L 12.9395 -24.4629 L 45.7031 -24.4629 Z M 29.1992 -67.0898 L 29.4434 -67.0898 L 44.8242 -26.709 L 13.8184 -26.709 Z"/>
  </g>
  <line id="Baseline-M" style="fill:none;stroke:#27AAE1;opacity:1;stroke-width:0.577;" x1="263" x2="3036" y1="1126" y2="1126"/>
  <line id="Capline-M" style="fill:none;stroke:#27AAE1;opacity:1;stroke-width:0.577;" x1="263" x2="3036" y1="1055.54" y2="1055.54"/>
  <g id="H-reference" style="fill:#27AAE1;stroke:none;" transform="matrix(1 0 0 1 339 1556)">
   <path d="M 54.9316 0 L 57.666 0 L 30.5664 -70.459 L 28.0762 -70.459 L 0.976562 0 L 3.66211 0 L 12.9395 -24.4629 L 45.7031 -24.4629 Z M 29.1992 -67.0898 L 29.4434 -67.0898 L 44.8242 -26.709 L 13.8184 -26.709 Z"/>
  </g>
  <line id="Baseline-L" style="fill:none;stroke:#27AAE1;opacity:1;stroke-width:0.577;" x1="263" x2="3036" y1="1556" y2="1556"/>
  <line id="Capline-L" style="fill:none;stroke:#27AAE1;opacity:1;stroke-width:0.577;" x1="263" x2="3036" y1="1485.54" y2="1485.54"/>
  <rect height="119.336" id="left-margin" style="fill:#00AEEF;stroke:none;opacity:0.4;" width="12.4512" x="1399.28" y="1030.79"/>
  <rect height="119.336" id="right-margin" style="fill:#00AEEF;stroke:none;opacity:0.4;" width="12.4512" x="1487.95" y="1030.79"/>
 </g>
 <g id="Symbols">
  <g id="Ultralight-S" transform="matrix(1 0 0 1 522.211 696)">
   <path d="M 15.7715 0.0488281 C 32.0312 0.0488281 38.6719 -7.42188 38.6719 -23.3887 L 38.6719 -58.3984 L 38.5742 -67.1387 L 46.5332 -58.9844 L 63.3789 -42.1875 C 63.5254 -41.9922 63.8672 -41.8945 64.209 -41.8945 C 64.7461 -41.8945 65.2344 -42.334 65.2344 -43.0176 C 65.2344 -43.3594 65.1367 -43.6035 64.9414 -43.7988 L 38.3789 -70.166 C 38.1348 -70.4102 37.9395 -70.5078 37.5977 -70.5078 C 37.2559 -70.5078 37.0117 -70.4102 36.7676 -70.166 L 10.2539 -43.7988 C 10.0098 -43.6035 9.91211 -43.3594 9.91211 -43.0176 C 9.91211 -42.334 10.4004 -41.8945 10.9863 -41.8945 C 11.3281 -41.8945 11.6211 -41.9922 11.8164 -42.1875 L 28.6133 -58.9844 L 36.6211 -67.1387 L 36.5234 -58.3984 L 36.5234 -23.3887 C 36.5234 -8.88672 30.4688 -2.19727 15.5762 -2.19727 C 13.0371 -2.19727 11.4258 -2.29492 10.9375 -2.29492 C 10.2539 -2.29492 9.76562 -1.85547 9.76562 -1.17188 C 9.76562 -0.439453 10.2539 -0.146484 10.8887 -0.0488281 C 11.5234 0.0488281 13.5742 0.0488281 15.7715 0.0488281 Z"/>
  </g>
  <g id="Thin-S" transform="matrix(1 0 0 1 818.336 696)">
   <path d="M 16.3574 0.292969 C 33.0078 0.292969 40.0879 -7.08008 40.0879 -23.5352 L 40.0879 -56.2012 L 39.9414 -65.3809 L 47.8516 -57.1777 L 63.4766 -41.5527 C 63.7695 -41.2598 64.2578 -41.0645 64.7461 -41.0645 C 65.6738 -41.0645 66.4062 -41.7969 66.4062 -42.8223 C 66.4062 -43.3105 66.2598 -43.7012 65.8691 -44.0918 L 39.6484 -70.166 C 39.3066 -70.5566 38.8672 -70.752 38.3789 -70.752 C 37.8906 -70.752 37.4512 -70.5566 37.1094 -70.166 L 10.8887 -44.0918 C 10.498 -43.7012 10.3516 -43.3105 10.3516 -42.8223 C 10.3516 -41.7969 11.084 -41.0645 12.0117 -41.0645 C 12.5 -41.0645 12.9883 -41.2598 13.2812 -41.5527 L 28.9551 -57.1777 L 36.8164 -65.3809 L 36.6699 -56.2012 L 36.6699 -23.6328 C 36.6699 -9.32617 30.6641 -3.17383 16.1133 -3.17383 C 13.8184 -3.17383 12.2559 -3.27148 11.5723 -3.27148 C 10.5469 -3.27148 9.76562 -2.58789 9.76562 -1.5625 C 9.76562 -0.537109 10.498 -0.0488281 11.377 0.146484 C 12.1582 0.292969 14.1602 0.292969 16.3574 0.292969 Z"/>
  </g>
  <g id="Light-S" transform="matrix(1 0 0 1 1113.9 696)">
   <path d="M 17.4805 0.78125 C 34.8633 0.78125 42.9199 -6.39648 42.9199 -23.8281 L 42.9199 -51.9043 L 42.6758 -61.9629 L 50.3418 -53.6621 L 63.6719 -40.332 C 64.209 -39.7949 64.9902 -39.502 65.8203 -39.502 C 67.4805 -39.502 68.7012 -40.7715 68.7012 -42.4316 C 68.7012 -43.2129 68.4082 -43.9453 67.7734 -44.5801 L 42.1387 -70.2148 C 41.5039 -70.8496 40.7715 -71.2402 39.9414 -71.2402 C 39.1113 -71.2402 38.3301 -70.8496 37.6953 -70.2148 L 12.1094 -44.5801 C 11.4746 -43.9453 11.1816 -43.2129 11.1816 -42.4316 C 11.1816 -40.7715 12.4023 -39.502 14.0625 -39.502 C 14.8438 -39.502 15.6738 -39.7949 16.1621 -40.332 L 29.4922 -53.6621 L 37.2559 -62.0117 L 36.9629 -51.9043 L 36.9629 -24.1211 C 37.0117 -10.1562 31.0059 -5.12695 17.1387 -5.12695 C 15.2344 -5.12695 13.916 -5.22461 12.7441 -5.22461 C 11.0352 -5.22461 9.76562 -4.10156 9.76562 -2.34375 C 9.76562 -0.634766 10.9863 0.195312 12.3047 0.488281 C 13.3789 0.732422 15.2832 0.78125 17.4805 0.78125 Z"/>
  </g>
  <g id="Regular-S" transform="matrix(1 0 0 1 1409.76 696)">
   <path d="M 18.3105 1.12305 C 36.3281 1.12305 45.0195 -5.85938 45.0195 -24.0234 L 45.0195 -48.6816 L 44.7266 -59.375 L 52.2461 -50.9766 L 63.8184 -39.3555 C 64.5508 -38.6719 65.5762 -38.2812 66.6016 -38.2812 C 68.7988 -38.2812 70.4102 -39.9902 70.4102 -42.1387 C 70.4102 -43.1641 70.0195 -44.0918 69.1895 -45.0195 L 44.043 -70.2148 C 43.2129 -71.0938 42.1875 -71.582 41.1133 -71.582 C 40.0391 -71.582 39.0137 -71.0938 38.1348 -70.2148 L 13.0371 -45.0195 C 12.1582 -44.0918 11.8164 -43.1641 11.8164 -42.1387 C 11.8164 -39.9902 13.3789 -38.2812 15.5762 -38.2812 C 16.6504 -38.2812 17.6758 -38.6719 18.3594 -39.3555 L 29.9316 -50.9766 L 37.5488 -59.4238 L 37.1582 -48.6816 L 37.207 -24.4629 C 37.2559 -10.791 31.25 -6.5918 17.9199 -6.5918 C 16.3086 -6.5918 15.1855 -6.68945 13.6719 -6.68945 C 11.4258 -6.68945 9.76562 -5.22461 9.76562 -2.92969 C 9.76562 -0.732422 11.3281 0.390625 12.9883 0.78125 C 14.3066 1.07422 16.1133 1.12305 18.3105 1.12305 Z"/>
  </g>
  <g id="Medium-S" transform="matrix(1 0 0 1 1705.93 696)">
   <path d="M 20.0195 1.31836 C 37.4512 1.31836 46.2402 -5.85938 46.2402 -23.3887 L 46.2402 -46.6309 L 45.8984 -56.7383 L 52.4414 -49.3652 L 63.3789 -38.3789 C 64.2578 -37.5 65.4785 -36.9629 66.8457 -36.9629 C 69.4824 -36.9629 71.4844 -38.9648 71.4844 -41.748 C 71.4844 -42.9688 70.9961 -44.1406 69.9707 -45.166 L 45.0195 -70.2148 C 44.043 -71.1914 42.7246 -71.7773 41.4062 -71.7773 C 40.0879 -71.7773 38.7695 -71.1914 37.793 -70.2148 L 12.8418 -45.166 C 11.8164 -44.1406 11.3281 -42.9688 11.3281 -41.748 C 11.3281 -38.9648 13.3301 -36.9629 15.9668 -36.9629 C 17.334 -36.9629 18.5547 -37.5 19.4336 -38.3789 L 30.3711 -49.3652 L 36.9141 -56.7383 L 36.5234 -46.6309 L 36.5723 -24.0234 C 36.6211 -12.1094 31.4453 -8.30078 19.7754 -8.30078 C 17.6758 -8.30078 16.1621 -8.44727 14.5508 -8.44727 C 11.7676 -8.44727 9.76562 -6.64062 9.76562 -3.80859 C 9.76562 -0.878906 12.0605 0.537109 14.1113 0.927734 C 15.8691 1.2207 17.8223 1.31836 20.0195 1.31836 Z"/>
  </g>
  <g id="Semibold-S" transform="matrix(1 0 0 1 2002.23 696)">
   <path d="M 21.3379 1.46484 C 38.2812 1.46484 47.2168 -5.81055 47.2168 -22.9004 L 47.2168 -45.1172 L 46.8262 -54.6875 L 52.5879 -48.1445 L 63.0371 -37.6465 C 64.0625 -36.6211 65.3809 -35.9375 66.9922 -35.9375 C 70.0195 -35.9375 72.3145 -38.1836 72.3145 -41.4062 C 72.3145 -42.7734 71.7285 -44.1406 70.5566 -45.3125 L 45.752 -70.2148 C 44.6777 -71.2891 43.1152 -71.9238 41.6016 -71.9238 C 40.1367 -71.9238 38.5742 -71.2891 37.5 -70.2148 L 12.6953 -45.3125 C 11.5234 -44.1406 10.9863 -42.7734 10.9863 -41.4062 C 10.9863 -38.1836 13.2324 -35.9375 16.2598 -35.9375 C 17.9199 -35.9375 19.2383 -36.6211 20.2148 -37.6465 L 30.6641 -48.1445 L 36.4258 -54.6875 L 36.0352 -45.1172 L 36.084 -23.7305 C 36.084 -13.1348 31.543 -9.61914 21.1914 -9.61914 C 18.75 -9.61914 16.9434 -9.81445 15.2344 -9.81445 C 12.0117 -9.81445 9.76562 -7.76367 9.76562 -4.54102 C 9.76562 -0.976562 12.5977 0.585938 14.9902 1.02539 C 17.0898 1.36719 19.1406 1.46484 21.3379 1.46484 Z"/>
  </g>
  <g id="Bold-S" transform="matrix(1 0 0 1 2298.4 696)">
   <path d="M 23.0469 1.66016 C 39.4531 1.66016 48.4375 -5.81055 48.4375 -22.2656 L 48.4375 -43.0664 L 48.0469 -52.002 L 52.7832 -46.5332 L 62.5977 -36.6699 C 63.7695 -35.4492 65.2344 -34.5703 67.2363 -34.5703 C 70.752 -34.5703 73.3887 -37.1582 73.3887 -41.0156 C 73.3887 -42.5293 72.7051 -44.1406 71.3867 -45.5078 L 46.7285 -70.166 C 45.5566 -71.3867 43.7012 -72.1191 41.9434 -72.1191 C 40.1855 -72.1191 38.2812 -71.3867 37.1094 -70.166 L 12.5 -45.5078 C 11.1816 -44.1406 10.498 -42.5293 10.498 -41.0156 C 10.498 -37.1582 13.1348 -34.5703 16.6504 -34.5703 C 18.6523 -34.5703 20.1172 -35.4492 21.2891 -36.6699 L 31.0547 -46.5332 L 35.8398 -52.002 L 35.4004 -43.0664 L 35.4492 -23.3398 C 35.4492 -14.502 31.7383 -11.377 22.998 -11.377 C 20.166 -11.377 17.9688 -11.5723 16.1621 -11.5723 C 12.3535 -11.5723 9.76562 -9.22852 9.76562 -5.41992 C 9.76562 -1.12305 13.3301 0.683594 16.1133 1.17188 C 18.7012 1.5625 20.8496 1.66016 23.0469 1.66016 Z"/>
  </g>
  <g id="Heavy-S" transform="matrix(1 0 0 1 2594.33 696)">
   <path d="M 25.5859 1.9043 C 41.1133 1.9043 50.2441 -5.76172 50.2441 -21.2891 L 50.2441 -40.1367 L 49.8047 -48.0957 L 53.0762 -44.1406 L 61.9141 -35.2539 C 63.3301 -33.7402 65.0879 -32.6172 67.5781 -32.6172 C 71.7285 -32.6172 74.9512 -35.6445 74.9512 -40.3809 C 74.9512 -42.2363 74.1211 -44.1895 72.5098 -45.752 L 48.0957 -70.166 C 46.7773 -71.5332 44.4824 -72.4121 42.334 -72.4121 C 40.2344 -72.4121 37.9395 -71.5332 36.5723 -70.166 L 12.2559 -45.752 C 10.6445 -44.1895 9.81445 -42.2363 9.81445 -40.3809 C 9.81445 -35.6445 12.9883 -32.6172 17.1875 -32.6172 C 19.6777 -32.6172 21.4355 -33.7402 22.8516 -35.2539 L 31.6406 -44.1406 L 34.9121 -48.0957 L 34.4727 -40.1367 L 34.4727 -22.7539 C 34.4727 -16.5039 31.9824 -13.8672 25.7324 -13.8672 C 22.168 -13.8672 19.4336 -14.1602 17.4805 -14.1602 C 12.8418 -14.1602 9.76562 -11.3281 9.76562 -6.78711 C 9.76562 -1.36719 14.4043 0.878906 17.7734 1.36719 C 20.9961 1.80664 23.3887 1.9043 25.5859 1.9043 Z"/>
  </g>
  <g id="Black-S" transform="matrix(1 0 0 1 2890.33 696)">
   <path d="M 27.832 2.14844 C 42.5781 2.14844 51.8555 -5.76172 51.8555 -20.459 L 51.8555 -37.5 L 51.3672 -44.5801 L 53.3203 -42.0898 L 61.3281 -33.9844 C 62.9883 -32.2266 64.9414 -30.8594 67.8711 -30.8594 C 72.6562 -30.8594 76.3672 -34.2773 76.3672 -39.8438 C 76.3672 -41.8945 75.3906 -44.1895 73.5352 -45.9961 L 49.3652 -70.166 C 47.8516 -71.6309 45.166 -72.7051 42.7246 -72.7051 C 40.332 -72.7051 37.5977 -71.6309 36.1328 -70.166 L 12.0117 -45.9961 C 10.2051 -44.1895 9.17969 -41.8945 9.17969 -39.8438 C 9.17969 -34.2773 12.8906 -30.8594 17.6758 -30.8594 C 20.6055 -30.8594 22.5586 -32.2266 24.2188 -33.9844 L 32.1289 -42.0898 L 34.082 -44.5801 L 33.6426 -37.5 L 33.6426 -22.2168 C 33.6426 -18.2617 32.2266 -16.1133 28.125 -16.1133 C 23.9746 -16.1133 20.752 -16.5039 18.7012 -16.5039 C 13.2812 -16.5039 9.76562 -13.2324 9.76562 -7.95898 C 9.76562 -1.5625 15.3809 0.976562 19.2383 1.51367 C 23.0469 2.05078 25.6348 2.14844 27.832 2.14844 Z"/>
  </g>
  <g id="Ultralight-M" transform="matrix(1 0 0 1 512.055 1126)">
   <path d="M 19.873 9.7168 C 40.4785 9.7168 48.7793 0.0976562 48.7793 -20.0195 L 48.7793 -65.625 L 48.6816 -76.6113 L 58.8867 -66.2598 L 80.8105 -44.3359 C 81.0059 -44.1895 81.3477 -44.043 81.7383 -44.043 C 82.3242 -44.043 82.8613 -44.5312 82.8613 -45.2637 C 82.8613 -45.6055 82.7148 -45.8496 82.4707 -46.0938 L 48.4863 -79.834 C 48.2422 -80.0781 48.0469 -80.1758 47.6562 -80.1758 C 47.3145 -80.1758 47.0703 -80.0781 46.8262 -79.834 L 12.8418 -46.0938 C 12.5977 -45.8496 12.5 -45.6055 12.5 -45.2637 C 12.5 -44.5312 13.0371 -44.043 13.623 -44.043 C 13.9648 -44.043 14.3555 -44.1895 14.502 -44.3359 L 36.4258 -66.2598 L 46.6797 -76.6113 L 46.5332 -65.625 L 46.5332 -20.0195 C 46.5332 -1.46484 38.8184 7.32422 19.7266 7.32422 C 16.4062 7.32422 14.2578 7.22656 13.7207 7.22656 C 12.9883 7.22656 12.4512 7.66602 12.4512 8.39844 C 12.4512 9.17969 12.9883 9.47266 13.7207 9.61914 C 14.4531 9.7168 17.0898 9.7168 19.873 9.7168 Z"/>
  </g>
  <g id="Thin-M" transform="matrix(1 0 0 1 808.107 1126)">
   <path d="M 20.5566 9.96094 C 41.6016 9.96094 50.4395 0.488281 50.4395 -20.2148 L 50.4395 -63.1348 L 50.2441 -74.6582 L 60.3516 -64.209 L 80.957 -43.6523 C 81.25 -43.3105 81.7871 -43.1641 82.3242 -43.1641 C 83.3496 -43.1641 84.1797 -43.9453 84.1797 -45.0195 C 84.1797 -45.5566 83.9844 -45.9961 83.5938 -46.3867 L 49.9512 -79.834 C 49.5605 -80.2246 49.1211 -80.4199 48.584 -80.4199 C 47.998 -80.4199 47.5586 -80.2246 47.168 -79.834 L 13.5742 -46.3867 C 13.1348 -45.9961 12.9883 -45.5566 12.9883 -45.0195 C 12.9883 -43.9453 13.7695 -43.1641 14.7949 -43.1641 C 15.332 -43.1641 15.8691 -43.3105 16.1621 -43.6523 L 36.7676 -64.209 L 46.875 -74.6582 L 46.7285 -63.1348 L 46.7285 -20.3125 C 46.7285 -1.9043 39.0137 6.20117 20.3125 6.20117 C 17.2363 6.20117 15.2344 6.10352 14.4043 6.10352 C 13.2812 6.10352 12.4512 6.83594 12.4512 7.95898 C 12.4512 9.13086 13.2812 9.61914 14.2578 9.81445 C 15.1855 9.96094 17.7246 9.96094 20.5566 9.96094 Z"/>
  </g>
  <g id="Light-M" transform="matrix(1 0 0 1 1103.55 1126)">
   <path d="M 21.8262 10.498 C 43.75 10.498 53.6133 1.31836 53.6133 -20.5566 L 53.6133 -58.3008 L 53.3203 -70.8008 L 63.2324 -60.2051 L 81.2012 -42.2363 C 81.7871 -41.6504 82.666 -41.3574 83.5449 -41.3574 C 85.3516 -41.3574 86.7188 -42.7246 86.7188 -44.5801 C 86.7188 -45.459 86.4258 -46.2402 85.6934 -46.9727 L 52.7832 -79.834 C 52.0508 -80.5664 51.2207 -80.957 50.3418 -80.957 C 49.4141 -80.957 48.584 -80.5664 47.8516 -79.834 L 14.9414 -46.9727 C 14.209 -46.2402 13.916 -45.459 13.916 -44.5801 C 13.916 -42.7246 15.2832 -41.3574 17.0898 -41.3574 C 17.9688 -41.3574 18.8965 -41.6504 19.4336 -42.2363 L 37.4023 -60.2051 L 47.3633 -70.8008 L 47.0215 -58.3008 L 47.0703 -20.8496 C 47.1191 -2.88086 39.4043 4.00391 21.4844 4.00391 C 18.8477 4.00391 17.0898 3.90625 15.7715 3.90625 C 13.8672 3.90625 12.4512 5.12695 12.4512 7.08008 C 12.4512 8.98438 13.8184 9.91211 15.332 10.2051 C 16.5527 10.498 18.9941 10.498 21.8262 10.498 Z"/>
  </g>
  <g id="Regular-M" transform="matrix(1 0 0 1 1399.28 1126)">
   <path d="M 22.7539 10.8887 C 45.3613 10.8887 56.0059 1.9043 56.0059 -20.8008 L 56.0059 -54.6387 L 55.6152 -67.8711 L 65.3809 -57.1777 L 81.3477 -41.1621 C 82.1289 -40.3809 83.3008 -39.9902 84.4727 -39.9902 C 86.8652 -39.9902 88.6719 -41.8457 88.6719 -44.2383 C 88.6719 -45.4102 88.2324 -46.4355 87.3047 -47.4121 L 54.9316 -79.8828 C 53.9551 -80.8594 52.832 -81.3477 51.6602 -81.3477 C 50.4395 -81.3477 49.3164 -80.8594 48.3887 -79.8828 L 15.9668 -47.4121 C 15.0391 -46.4355 14.6484 -45.4102 14.6484 -44.2383 C 14.6484 -41.8457 16.4062 -39.9902 18.8477 -39.9902 C 19.9707 -39.9902 21.1426 -40.3809 21.9238 -41.1621 L 37.9395 -57.1777 L 47.7051 -67.9199 L 47.2656 -54.6387 L 47.3145 -21.2402 C 47.3633 -3.56445 39.6973 2.34375 22.3633 2.34375 C 20.0684 2.34375 18.5059 2.24609 16.7969 2.24609 C 14.3066 2.24609 12.4512 3.85742 12.4512 6.39648 C 12.4512 8.88672 14.209 10.1074 16.1133 10.5469 C 17.5781 10.8398 19.9707 10.8887 22.7539 10.8887 Z"/>
  </g>
  <g id="Medium-M" transform="matrix(1 0 0 1 1695.33 1126)">
   <path d="M 24.6582 11.1328 C 46.6797 11.1328 57.5195 2.00195 57.5195 -20.166 L 57.5195 -52.1484 L 57.1289 -64.7949 L 65.8203 -55.1758 L 80.9082 -40.0391 C 81.8848 -39.0625 83.252 -38.4277 84.8145 -38.4277 C 87.793 -38.4277 89.9902 -40.6738 89.9902 -43.7988 C 89.9902 -45.166 89.4531 -46.4844 88.3301 -47.6562 L 56.1523 -79.8828 C 55.0781 -81.0059 53.6133 -81.6406 52.0996 -81.6406 C 50.6348 -81.6406 49.1699 -81.0059 48.0469 -79.8828 L 15.918 -47.6562 C 14.7949 -46.4844 14.209 -45.166 14.209 -43.7988 C 14.209 -40.6738 16.4551 -38.4277 19.4336 -38.4277 C 20.9473 -38.4277 22.3145 -39.0625 23.291 -40.0391 L 38.3789 -55.1758 L 47.1191 -64.8438 L 46.6797 -52.1484 L 46.7285 -20.8496 C 46.7285 -5.0293 39.9414 0.390625 24.3164 0.390625 C 21.6309 0.390625 19.6777 0.244141 17.8223 0.244141 C 14.6973 0.244141 12.4512 2.24609 12.4512 5.41992 C 12.4512 8.74023 14.9902 10.2539 17.3828 10.6934 C 19.3359 11.084 21.8262 11.1328 24.6582 11.1328 Z"/>
  </g>
  <g id="Semibold-M" transform="matrix(1 0 0 1 1991.53 1126)">
   <path d="M 26.0742 11.3281 C 47.7051 11.3281 58.6914 2.05078 58.6914 -19.6777 L 58.6914 -50.2441 L 58.3008 -62.4512 L 66.1621 -53.6621 L 80.5664 -39.209 C 81.7383 -38.0371 83.2031 -37.2559 85.0586 -37.2559 C 88.4766 -37.2559 91.0156 -39.7949 91.0156 -43.457 C 91.0156 -44.9707 90.3809 -46.5332 89.0625 -47.8516 L 57.0801 -79.834 C 55.9082 -81.1035 54.1504 -81.8359 52.4414 -81.8359 C 50.7324 -81.8359 49.0234 -81.1035 47.8027 -79.834 L 15.8691 -47.8516 C 14.5508 -46.5332 13.916 -44.9707 13.916 -43.457 C 13.916 -39.7949 16.4551 -37.2559 19.873 -37.2559 C 21.7285 -37.2559 23.1934 -38.0371 24.3652 -39.209 L 38.7207 -53.6621 L 46.6797 -62.4512 L 46.1914 -50.2441 L 46.2402 -20.5566 C 46.2402 -6.15234 40.0879 -1.07422 25.8301 -1.07422 C 22.8027 -1.07422 20.6055 -1.31836 18.6523 -1.31836 C 14.9902 -1.31836 12.4512 0.976562 12.4512 4.63867 C 12.4512 8.59375 15.5762 10.3516 18.3105 10.8398 C 20.6543 11.2793 23.2422 11.3281 26.0742 11.3281 Z"/>
  </g>
  <g id="Bold-M" transform="matrix(1 0 0 1 2287.56 1126)">
   <path d="M 27.9785 11.5723 C 49.0723 11.5723 60.2539 2.14844 60.2539 -19.043 L 60.2539 -47.7051 L 59.8145 -59.3262 L 66.6504 -51.6113 L 80.127 -38.0371 C 81.4453 -36.7188 83.2031 -35.7422 85.4004 -35.7422 C 89.3555 -35.7422 92.3828 -38.623 92.3828 -42.9688 C 92.3828 -44.7266 91.6016 -46.5332 90.0879 -48.0957 L 58.3496 -79.834 C 56.9824 -81.2012 54.9316 -82.0801 52.9297 -82.0801 C 50.9277 -82.0801 48.8281 -81.2012 47.5098 -79.834 L 15.7715 -48.0957 C 14.3066 -46.5332 13.5254 -44.7266 13.5254 -42.9688 C 13.5254 -38.623 16.5039 -35.7422 20.459 -35.7422 C 22.7051 -35.7422 24.4141 -36.7188 25.7324 -38.0371 L 39.209 -51.6113 L 46.0449 -59.375 L 45.5566 -47.7051 L 45.6055 -20.2148 C 45.6055 -7.61719 40.2832 -3.07617 27.832 -3.07617 C 24.4141 -3.07617 21.8262 -3.32031 19.7266 -3.32031 C 15.3809 -3.32031 12.4512 -0.634766 12.4512 3.61328 C 12.4512 8.44727 16.4062 10.498 19.5801 11.0352 C 22.4121 11.4746 25.1465 11.5723 27.9785 11.5723 Z"/>
  </g>
  <g id="Heavy-M" transform="matrix(1 0 0 1 2583.3 1126)">
   <path d="M 30.7129 11.9141 C 51.0742 11.9141 62.5 2.24609 62.5 -18.1152 L 62.5 -44.043 L 62.0117 -54.834 L 67.2852 -48.6816 L 79.4922 -36.4258 C 81.1035 -34.7168 83.1055 -33.4961 85.8887 -33.4961 C 90.6738 -33.4961 94.2871 -36.9629 94.2871 -42.2852 C 94.2871 -44.3848 93.3594 -46.6309 91.5527 -48.4375 L 60.1562 -79.834 C 58.5938 -81.3965 56.0059 -82.4219 53.6133 -82.4219 C 51.1719 -82.4219 48.584 -81.3965 47.0215 -79.834 L 15.7227 -48.4375 C 13.8672 -46.6309 12.9395 -44.3848 12.9395 -42.2852 C 12.9395 -36.9629 16.5527 -33.4961 21.3379 -33.4961 C 24.1211 -33.4961 26.123 -34.7168 27.7344 -36.4258 L 39.8926 -48.6816 L 45.2148 -54.834 L 44.6777 -44.043 L 44.6777 -19.6777 C 44.6777 -9.76562 40.625 -5.95703 30.7617 -5.95703 C 26.6602 -5.95703 23.5352 -6.25 21.2402 -6.25 C 15.9668 -6.25 12.4512 -3.02734 12.4512 2.14844 C 12.4512 8.20312 17.5781 10.6934 21.3867 11.2793 C 25 11.8164 27.8809 11.9141 30.7129 11.9141 Z"/>
  </g>
  <g id="Black-M" transform="matrix(1 0 0 1 2879.13 1126)">
   <path d="M 33.1543 12.2559 C 52.832 12.2559 64.5508 2.39258 64.5508 -17.2852 L 64.5508 -40.8203 L 63.9648 -50.7812 L 67.8711 -46.0938 L 78.9062 -34.9609 C 80.8105 -33.0078 83.0566 -31.4453 86.3281 -31.4453 C 91.8457 -31.4453 96.0449 -35.4492 96.0449 -41.6992 C 96.0449 -44.0918 94.9219 -46.6797 92.8223 -48.7305 L 61.7676 -79.834 C 60.0098 -81.5918 56.9824 -82.7637 54.1992 -82.7637 C 51.416 -82.7637 48.3887 -81.5918 46.6309 -79.834 L 15.625 -48.7305 C 13.5254 -46.6797 12.4023 -44.0918 12.4023 -41.6992 C 12.4023 -35.4492 16.6016 -31.4453 22.1191 -31.4453 C 25.3906 -31.4453 27.6367 -33.0078 29.541 -34.9609 L 40.4785 -46.0938 L 44.4336 -50.7812 L 43.8477 -40.8203 L 43.8477 -19.1895 C 43.8477 -11.7188 40.918 -8.49609 33.3496 -8.49609 C 28.7109 -8.49609 25.1465 -8.88672 22.6074 -8.88672 C 16.5039 -8.88672 12.4512 -5.17578 12.4512 0.830078 C 12.4512 7.95898 18.6035 10.8887 22.998 11.5234 C 27.2461 12.1094 30.3223 12.2559 33.1543 12.2559 Z"/>
  </g>
  <g id="Ultralight-L" transform="matrix(1 0 0 1 498.505 1556)">
   <path d="M 25.3906 22.6562 C 51.7578 22.6562 62.2559 10.2051 62.2559 -15.5762 L 62.2559 -75.5371 L 62.1094 -89.502 L 75.3906 -76.1719 L 104.248 -47.3145 C 104.395 -47.168 104.785 -47.0215 105.176 -47.0215 C 105.762 -47.0215 106.348 -47.5098 106.348 -48.2422 C 106.348 -48.6328 106.201 -48.877 105.957 -49.1211 L 61.9629 -92.7734 C 61.7188 -93.0176 61.4746 -93.1152 61.1328 -93.1152 C 60.7422 -93.1152 60.5469 -93.0176 60.3027 -92.7734 L 16.2598 -49.1211 C 16.0156 -48.877 15.918 -48.6328 15.918 -48.2422 C 15.918 -47.5098 16.4551 -47.0215 17.041 -47.0215 C 17.4316 -47.0215 17.8223 -47.168 18.0176 -47.3145 L 46.875 -76.1719 L 60.1074 -89.502 L 59.9609 -75.5371 L 59.9609 -15.4785 C 59.9609 8.59375 50 20.166 25.1953 20.166 C 20.8008 20.166 17.9688 20.0195 17.3828 20.0195 C 16.6504 20.0195 16.0645 20.5078 16.0645 21.2891 C 16.0645 22.1191 16.6504 22.4121 17.4805 22.5098 C 18.3594 22.6562 21.7773 22.6562 25.3906 22.6562 Z"/>
  </g>
  <g id="Thin-L" transform="matrix(1 0 0 1 794.484 1556)">
   <path d="M 26.123 22.9492 C 52.9785 22.9492 64.0625 10.6445 64.0625 -15.7227 L 64.0625 -72.7539 L 63.8672 -87.3047 L 77.002 -73.877 L 104.395 -46.5332 C 104.688 -46.1914 105.273 -45.9961 105.859 -45.9961 C 106.934 -45.9961 107.812 -46.8262 107.812 -47.998 C 107.812 -48.584 107.617 -49.0234 107.178 -49.4141 L 63.5742 -92.7734 C 63.1348 -93.2129 62.6953 -93.4082 62.1094 -93.4082 C 61.5234 -93.4082 61.084 -93.2129 60.6934 -92.7734 L 17.041 -49.4141 C 16.6504 -49.0234 16.4551 -48.584 16.4551 -47.998 C 16.4551 -46.8262 17.334 -45.9961 18.3594 -45.9961 C 18.9453 -45.9961 19.5312 -46.1914 19.873 -46.5332 L 47.2168 -73.877 L 60.3516 -87.3047 L 60.1562 -72.7539 L 60.1562 -15.8203 C 60.2051 8.05664 50.1953 18.9453 25.8301 18.9453 C 21.7285 18.9453 19.043 18.75 18.1641 18.75 C 16.9922 18.75 16.0645 19.5801 16.0645 20.752 C 16.0645 22.0215 16.9434 22.5586 18.0664 22.7539 C 19.1406 22.9492 22.5098 22.9492 26.123 22.9492 Z"/>
  </g>
  <g id="Light-L" transform="matrix(1 0 0 1 1089.75 1556)">
   <path d="M 27.5391 23.5352 C 55.3711 23.5352 67.627 11.5234 67.627 -16.1133 L 67.627 -67.3828 L 67.2852 -83.0078 L 80.1758 -69.4336 L 104.639 -44.9707 C 105.273 -44.3359 106.25 -43.9941 107.227 -43.9941 C 109.18 -43.9941 110.645 -45.5078 110.645 -47.5098 C 110.645 -48.4863 110.303 -49.3164 109.57 -50.0977 L 66.6992 -92.8223 C 65.9668 -93.6035 65.0879 -93.9941 64.0625 -93.9941 C 63.0859 -93.9941 62.207 -93.6035 61.4258 -92.8223 L 18.6035 -50.0977 C 17.8223 -49.3164 17.4805 -48.4863 17.4805 -47.5098 C 17.4805 -45.5078 18.9941 -43.9941 20.9473 -43.9941 C 21.9238 -43.9941 22.9004 -44.3359 23.4863 -44.9707 L 47.9492 -69.4336 L 60.8887 -83.0078 L 60.5469 -67.3828 L 60.5469 -16.4062 C 60.5957 6.98242 50.6348 16.5039 27.1484 16.5039 C 23.5352 16.5039 21.1426 16.3086 19.6777 16.3086 C 17.627 16.3086 16.0645 17.6758 16.0645 19.7754 C 16.0645 21.875 17.5293 22.8516 19.2383 23.2422 C 20.7031 23.4863 23.9258 23.5352 27.5391 23.5352 Z"/>
  </g>
  <g id="Regular-L" transform="matrix(1 0 0 1 1385.39 1556)">
   <path d="M 28.6133 23.9746 C 57.1777 23.9746 70.3125 12.207 70.3125 -16.4062 L 70.3125 -63.2812 L 69.873 -79.7363 L 82.5684 -66.0156 L 104.834 -43.75 C 105.664 -42.9199 106.934 -42.4805 108.252 -42.4805 C 110.84 -42.4805 112.842 -44.4824 112.842 -47.168 C 112.842 -48.4375 112.354 -49.5117 111.328 -50.5859 L 69.0918 -92.8223 C 68.0664 -93.8965 66.8945 -94.4336 65.5762 -94.4336 C 64.209 -94.4336 63.0371 -93.8965 62.0117 -92.8223 L 19.7754 -50.5859 C 18.75 -49.5117 18.3105 -48.4375 18.3105 -47.168 C 18.3105 -44.4824 20.2637 -42.4805 22.9004 -42.4805 C 24.1699 -42.4805 25.4395 -42.9199 26.2695 -43.75 L 48.5352 -66.0156 L 61.2793 -79.7852 L 60.791 -63.2812 L 60.8398 -16.8457 C 60.9375 6.20117 50.9766 14.6484 28.125 14.6484 C 24.9023 14.6484 22.7051 14.4531 20.8496 14.4531 C 18.1152 14.4531 16.0645 16.2598 16.0645 19.043 C 16.0645 21.7773 18.0176 23.0957 20.166 23.584 C 21.8262 23.9258 25 23.9746 28.6133 23.9746 Z"/>
  </g>
  <g id="Medium-L" transform="matrix(1 0 0 1 1681.3 1556)">
   <path d="M 30.5176 24.2676 C 58.7402 24.2676 72.168 12.4023 72.168 -15.8691 L 72.168 -60.2539 L 71.7285 -76.3184 L 83.4473 -63.5742 L 104.492 -42.5293 C 105.518 -41.4551 107.031 -40.8203 108.74 -40.8203 C 111.963 -40.8203 114.453 -43.2617 114.453 -46.6797 C 114.453 -48.1934 113.818 -49.6094 112.598 -50.9277 L 70.6543 -92.8223 C 69.4824 -94.043 67.8711 -94.7266 66.2598 -94.7266 C 64.5996 -94.7266 63.0371 -94.043 61.8164 -92.8223 L 19.9219 -50.9277 C 18.6523 -49.6094 18.0664 -48.1934 18.0664 -46.6797 C 18.0664 -43.2617 20.5078 -40.8203 23.7793 -40.8203 C 25.4395 -40.8203 26.9531 -41.4551 28.0273 -42.5293 L 49.0723 -63.5742 L 60.791 -76.3672 L 60.3027 -60.2539 L 60.3516 -16.6016 C 60.4004 4.73633 51.2695 12.5 30.0781 12.5 C 26.5625 12.5 24.0723 12.3047 22.0215 12.3047 C 18.5547 12.3047 16.0645 14.502 16.0645 18.0176 C 16.0645 21.582 18.7988 23.291 21.4355 23.7793 C 23.6328 24.2188 26.9043 24.2676 30.5176 24.2676 Z"/>
  </g>
  <g id="Semibold-L" transform="matrix(1 0 0 1 1977.4 1556)">
   <path d="M 31.9336 24.5117 C 59.9609 24.5117 73.6328 12.5488 73.6328 -15.4785 L 73.6328 -57.959 L 73.1445 -73.7305 L 84.082 -61.7188 L 104.199 -41.6016 C 105.42 -40.332 107.129 -39.502 109.082 -39.502 C 112.842 -39.502 115.674 -42.334 115.674 -46.2891 C 115.674 -47.998 114.941 -49.6582 113.525 -51.123 L 71.875 -92.8223 C 70.5078 -94.1895 68.6523 -94.9707 66.748 -94.9707 C 64.8926 -94.9707 63.0371 -94.1895 61.6699 -92.8223 L 20.0195 -51.123 C 18.6035 -49.6582 17.9199 -47.998 17.9199 -46.2891 C 17.9199 -42.334 20.7031 -39.502 24.4629 -39.502 C 26.4648 -39.502 28.125 -40.332 29.3457 -41.6016 L 49.4629 -61.7188 L 60.4492 -73.7793 L 59.9121 -57.959 L 59.9609 -16.4062 C 60.0098 3.56445 51.4648 10.8887 31.6406 10.8887 C 27.832 10.8887 25.1465 10.6445 22.9004 10.6445 C 18.8965 10.6445 16.0645 13.1836 16.0645 17.1875 C 16.0645 21.4844 19.4336 23.3887 22.4609 23.9746 C 25.0488 24.4141 28.3203 24.5117 31.9336 24.5117 Z"/>
  </g>
  <g id="Bold-L" transform="matrix(1 0 0 1 2273.28 1556)">
   <path d="M 33.8867 24.8047 C 61.5234 24.8047 75.5371 12.7441 75.5371 -14.9414 L 75.5371 -54.8828 L 75 -70.2637 L 84.9609 -59.2773 L 103.809 -40.332 C 105.273 -38.8184 107.227 -37.8418 109.619 -37.8418 C 113.965 -37.8418 117.285 -41.0645 117.285 -45.8008 C 117.285 -47.7539 116.455 -49.7559 114.795 -51.4648 L 73.4375 -92.8223 C 71.9238 -94.3848 69.6777 -95.3125 67.4805 -95.3125 C 65.2832 -95.3125 63.0371 -94.3848 61.4746 -92.8223 L 20.166 -51.4648 C 18.5059 -49.7559 17.6758 -47.7539 17.6758 -45.8008 C 17.6758 -41.0645 20.9961 -37.8418 25.3418 -37.8418 C 27.7344 -37.8418 29.6875 -38.8184 31.1523 -40.332 L 50 -59.2773 L 59.9609 -70.3125 L 59.375 -54.8828 L 59.4238 -16.1133 C 59.4727 2.09961 51.709 8.74023 33.6426 8.74023 C 29.541 8.74023 26.5137 8.44727 24.0723 8.44727 C 19.3359 8.44727 16.0645 11.4258 16.0645 16.1133 C 16.0645 21.2891 20.2148 23.584 23.7305 24.1699 C 26.8555 24.707 30.2734 24.8047 33.8867 24.8047 Z"/>
  </g>
  <g id="Heavy-L" transform="matrix(1 0 0 1 2568.82 1556)">
   <path d="M 36.6699 25.2441 C 63.8184 25.2441 78.3203 13.0371 78.3203 -14.1602 L 78.3203 -50.4395 L 77.6855 -65.2832 L 86.1816 -55.6641 L 103.271 -38.5254 C 105.078 -36.6699 107.324 -35.3516 110.352 -35.3516 C 115.625 -35.3516 119.629 -39.2578 119.629 -45.0684 C 119.629 -47.4121 118.604 -49.8535 116.602 -51.9043 L 75.7324 -92.8223 C 73.9258 -94.6289 71.1426 -95.752 68.457 -95.752 C 65.8203 -95.752 63.0371 -94.6289 61.2305 -92.8223 L 20.4102 -51.9043 C 18.4082 -49.8535 17.334 -47.4121 17.334 -45.0684 C 17.334 -39.2578 21.3867 -35.3516 26.6602 -35.3516 C 29.6387 -35.3516 31.9336 -36.6699 33.7402 -38.5254 L 50.7324 -55.6641 L 59.2773 -65.332 L 58.6426 -50.4395 L 58.6426 -15.7715 C 58.6914 -0.0976562 52.0996 5.61523 36.5723 5.61523 C 31.9824 5.61523 28.5645 5.27344 25.7812 5.27344 C 20.0195 5.27344 16.0645 8.83789 16.0645 14.5508 C 16.0645 21.0449 21.4355 23.8281 25.6348 24.5117 C 29.4922 25.1465 33.0566 25.2441 36.6699 25.2441 Z"/>
  </g>
  <g id="Black-L" transform="matrix(1 0 0 1 2864.48 1556)">
   <path d="M 39.1602 25.6348 C 65.8203 25.6348 80.8105 13.2812 80.8105 -13.4766 L 80.8105 -46.4844 L 80.127 -60.8398 L 87.3047 -52.4902 L 102.783 -36.8652 C 104.883 -34.7168 107.471 -33.1543 110.986 -33.1543 C 117.09 -33.1543 121.777 -37.6465 121.777 -44.4336 C 121.777 -47.1191 120.557 -49.9512 118.213 -52.2949 L 77.7832 -92.7734 C 75.7324 -94.8242 72.4609 -96.1914 69.3848 -96.1914 C 66.3086 -96.1914 63.0371 -94.8242 60.9863 -92.7734 L 20.6055 -52.2949 C 18.2617 -49.9512 17.041 -47.1191 17.041 -44.4336 C 17.041 -37.6465 21.7285 -33.1543 27.832 -33.1543 C 31.3477 -33.1543 33.9355 -34.7168 36.0352 -36.8652 L 51.4648 -52.4902 L 58.6426 -60.8398 L 57.959 -46.4844 L 57.959 -15.4297 C 58.0078 -2.05078 52.4414 2.83203 39.1602 2.83203 C 34.1797 2.83203 30.3711 2.44141 27.2949 2.44141 C 20.6055 2.44141 16.0645 6.54297 16.0645 13.1836 C 16.0645 20.8496 22.4609 24.0234 27.3438 24.8047 C 31.8848 25.5371 35.5469 25.6348 39.1602 25.6348 Z"/>
  </g>
 </g>
</svg>
