<?xml version="1.0" encoding="UTF-8"?>
<!--Generator: Apple Native CoreSVG 123-->
<!DOCTYPE svg
PUBLIC "-//W3C//DTD SVG 1.1//EN"
       "http://www.w3.org/Graphics/SVG/1.1/DTD/svg11.dtd">
<svg version="1.1" xmlns="http://www.w3.org/2000/svg" xmlns:xlink="http://www.w3.org/1999/xlink" width="3300" height="2200">
 <!--glyph: "uni10047B.medium", point size: 100.000000, font version: "Version 15.0d4e20", template writer version: "2"-->
 <g id="Notes">
  <rect height="2200" id="artboard" style="fill:white;opacity:1" width="3300" x="0" y="0"/>
  <line id="" style="fill:none;stroke:black;opacity:1;stroke-width:0.5;" x1="263" x2="3036" y1="292" y2="292"/>
  <text style="stroke:none;fill:black;font-family:-apple-system,&quot;SF Pro Display&quot;,&quot;SF Pro Text&quot;,Helvetica,sans-serif;font-weight:bold;" transform="matrix(1 0 0 1 263 322)">Weight/Scale Variations</text>
  <text style="stroke:none;fill:black;font-family:-apple-system,&quot;SF Pro Display&quot;,&quot;SF Pro Text&quot;,Helvetica,sans-serif;text-anchor:middle;" transform="matrix(1 0 0 1 559.711 322)">Ultralight</text>
  <text style="stroke:none;fill:black;font-family:-apple-system,&quot;SF Pro Display&quot;,&quot;SF Pro Text&quot;,Helvetica,sans-serif;text-anchor:middle;" transform="matrix(1 0 0 1 856.422 322)">Thin</text>
  <text style="stroke:none;fill:black;font-family:-apple-system,&quot;SF Pro Display&quot;,&quot;SF Pro Text&quot;,Helvetica,sans-serif;text-anchor:middle;" transform="matrix(1 0 0 1 1153.13 322)">Light</text>
  <text style="stroke:none;fill:black;font-family:-apple-system,&quot;SF Pro Display&quot;,&quot;SF Pro Text&quot;,Helvetica,sans-serif;text-anchor:middle;" transform="matrix(1 0 0 1 1449.84 322)">Regular</text>
  <text style="stroke:none;fill:black;font-family:-apple-system,&quot;SF Pro Display&quot;,&quot;SF Pro Text&quot;,Helvetica,sans-serif;text-anchor:middle;" transform="matrix(1 0 0 1 1746.56 322)">Medium</text>
  <text style="stroke:none;fill:black;font-family:-apple-system,&quot;SF Pro Display&quot;,&quot;SF Pro Text&quot;,Helvetica,sans-serif;text-anchor:middle;" transform="matrix(1 0 0 1 2043.27 322)">Semibold</text>
  <text style="stroke:none;fill:black;font-family:-apple-system,&quot;SF Pro Display&quot;,&quot;SF Pro Text&quot;,Helvetica,sans-serif;text-anchor:middle;" transform="matrix(1 0 0 1 2339.98 322)">Bold</text>
  <text style="stroke:none;fill:black;font-family:-apple-system,&quot;SF Pro Display&quot;,&quot;SF Pro Text&quot;,Helvetica,sans-serif;text-anchor:middle;" transform="matrix(1 0 0 1 2636.69 322)">Heavy</text>
  <text style="stroke:none;fill:black;font-family:-apple-system,&quot;SF Pro Display&quot;,&quot;SF Pro Text&quot;,Helvetica,sans-serif;text-anchor:middle;" transform="matrix(1 0 0 1 2933.4 322)">Black</text>
  <line id="" style="fill:none;stroke:black;opacity:1;stroke-width:0.5;" x1="263" x2="3036" y1="1903" y2="1903"/>
  <g id="" transform="matrix(1 0 0 1 263 1933)">
   <path d="M 9.24805 0.830078 C 13.5547 0.830078 17.1387 -2.74414 17.1387 -7.05078 C 17.1387 -11.3574 13.5449 -14.9316 9.23828 -14.9316 C 4.94141 -14.9316 1.36719 -11.3574 1.36719 -7.05078 C 1.36719 -2.74414 4.95117 0.830078 9.24805 0.830078 Z M 9.24805 -0.654297 C 5.70312 -0.654297 2.87109 -3.49609 2.87109 -7.05078 C 2.87109 -10.6055 5.69336 -13.4473 9.23828 -13.4473 C 12.793 -13.4473 15.6348 -10.6055 15.6445 -7.05078 C 15.6543 -3.49609 12.8027 -0.654297 9.24805 -0.654297 Z M 9.22852 -3.42773 C 9.69727 -3.42773 9.9707 -3.74023 9.9707 -4.25781 L 9.9707 -6.31836 L 12.1973 -6.31836 C 12.6953 -6.31836 13.0371 -6.57227 13.0371 -7.04102 C 13.0371 -7.51953 12.7148 -7.7832 12.1973 -7.7832 L 9.9707 -7.7832 L 9.9707 -10.0098 C 9.9707 -10.5273 9.69727 -10.8496 9.22852 -10.8496 C 8.75977 -10.8496 8.50586 -10.5078 8.50586 -10.0098 L 8.50586 -7.7832 L 6.29883 -7.7832 C 5.78125 -7.7832 5.44922 -7.51953 5.44922 -7.04102 C 5.44922 -6.57227 5.80078 -6.31836 6.29883 -6.31836 L 8.50586 -6.31836 L 8.50586 -4.25781 C 8.50586 -3.75977 8.75977 -3.42773 9.22852 -3.42773 Z"/>
  </g>
  <g id="" transform="matrix(1 0 0 1 281.506 1933)">
   <path d="M 11.709 2.91016 C 17.1484 2.91016 21.6699 -1.60156 21.6699 -7.05078 C 21.6699 -12.4902 17.1387 -17.0117 11.6992 -17.0117 C 6.25 -17.0117 1.74805 -12.4902 1.74805 -7.05078 C 1.74805 -1.60156 6.25977 2.91016 11.709 2.91016 Z M 11.709 1.25 C 7.09961 1.25 3.41797 -2.44141 3.41797 -7.05078 C 3.41797 -11.6504 7.08984 -15.3516 11.6992 -15.3516 C 16.2988 -15.3516 20 -11.6504 20.0098 -7.05078 C 20.0195 -2.44141 16.3086 1.25 11.709 1.25 Z M 11.6797 -2.41211 C 12.207 -2.41211 12.5195 -2.77344 12.5195 -3.33984 L 12.5195 -6.23047 L 15.5762 -6.23047 C 16.123 -6.23047 16.5039 -6.51367 16.5039 -7.03125 C 16.5039 -7.55859 16.1426 -7.86133 15.5762 -7.86133 L 12.5195 -7.86133 L 12.5195 -10.9277 C 12.5195 -11.5039 12.207 -11.8555 11.6797 -11.8555 C 11.1621 -11.8555 10.8789 -11.4844 10.8789 -10.9277 L 10.8789 -7.86133 L 7.83203 -7.86133 C 7.25586 -7.86133 6.89453 -7.55859 6.89453 -7.03125 C 6.89453 -6.51367 7.28516 -6.23047 7.83203 -6.23047 L 10.8789 -6.23047 L 10.8789 -3.33984 C 10.8789 -2.79297 11.1621 -2.41211 11.6797 -2.41211 Z"/>
  </g>
  <g id="" transform="matrix(1 0 0 1 304.914 1933)">
   <path d="M 14.9707 5.67383 C 21.9336 5.67383 27.6855 -0.078125 27.6855 -7.04102 C 27.6855 -14.0039 21.9238 -19.7559 14.9609 -19.7559 C 7.99805 -19.7559 2.25586 -14.0039 2.25586 -7.04102 C 2.25586 -0.078125 8.00781 5.67383 14.9707 5.67383 Z M 14.9707 3.85742 C 8.92578 3.85742 4.08203 -1.00586 4.08203 -7.04102 C 4.08203 -13.0762 8.91602 -17.9395 14.9609 -17.9395 C 20.9961 -17.9395 25.8594 -13.0762 25.8691 -7.04102 C 25.8789 -1.00586 21.0059 3.85742 14.9707 3.85742 Z M 14.9414 -1.06445 C 15.5176 -1.06445 15.8594 -1.45508 15.8594 -2.06055 L 15.8594 -6.13281 L 20.0977 -6.13281 C 20.6934 -6.13281 21.1133 -6.46484 21.1133 -7.02148 C 21.1133 -7.59766 20.7227 -7.93945 20.0977 -7.93945 L 15.8594 -7.93945 L 15.8594 -12.1875 C 15.8594 -12.8027 15.5176 -13.1934 14.9414 -13.1934 C 14.3848 -13.1934 14.0625 -12.7832 14.0625 -12.1875 L 14.0625 -7.93945 L 9.82422 -7.93945 C 9.20898 -7.93945 8.80859 -7.59766 8.80859 -7.02148 C 8.80859 -6.46484 9.23828 -6.13281 9.82422 -6.13281 L 14.0625 -6.13281 L 14.0625 -2.06055 C 14.0625 -1.47461 14.3848 -1.06445 14.9414 -1.06445 Z"/>
  </g>
  <text style="stroke:none;fill:black;font-family:-apple-system,&quot;SF Pro Display&quot;,&quot;SF Pro Text&quot;,Helvetica,sans-serif;font-weight:bold;" transform="matrix(1 0 0 1 263 1953)">Design Variations</text>
  <text style="stroke:none;fill:black;font-family:-apple-system,&quot;SF Pro Display&quot;,&quot;SF Pro Text&quot;,Helvetica,sans-serif;" transform="matrix(1 0 0 1 263 1971)">Symbols are supported in up to nine weights and three scales.</text>
  <text style="stroke:none;fill:black;font-family:-apple-system,&quot;SF Pro Display&quot;,&quot;SF Pro Text&quot;,Helvetica,sans-serif;" transform="matrix(1 0 0 1 263 1989)">For optimal layout with text and other symbols, vertically align</text>
  <text style="stroke:none;fill:black;font-family:-apple-system,&quot;SF Pro Display&quot;,&quot;SF Pro Text&quot;,Helvetica,sans-serif;" transform="matrix(1 0 0 1 263 2007)">symbols with the adjacent text.</text>
  <rect height="14" id="" style="fill:#00AEEF;stroke:none;opacity:0.4;" width="3" x="776" y="1919"/>
  <g id="" transform="matrix(1 0 0 1 779 1933)">
   <path d="M 10.5273 0 L 12.373 0 L 7.17773 -14.0918 L 5.43945 -14.0918 L 0.244141 0 L 2.08984 0 L 3.50586 -4.0332 L 9.11133 -4.0332 Z M 6.2793 -11.9531 L 6.33789 -11.9531 L 8.59375 -5.52734 L 4.02344 -5.52734 Z"/>
  </g>
  <rect height="14" id="" style="fill:#00AEEF;stroke:none;opacity:0.4;" width="3" x="791.617" y="1919"/>
  <text style="stroke:none;fill:black;font-family:-apple-system,&quot;SF Pro Display&quot;,&quot;SF Pro Text&quot;,Helvetica,sans-serif;font-weight:bold;" transform="matrix(1 0 0 1 776 1953)">Side Bearings</text>
  <text style="stroke:none;fill:black;font-family:-apple-system,&quot;SF Pro Display&quot;,&quot;SF Pro Text&quot;,Helvetica,sans-serif;" transform="matrix(1 0 0 1 776 1971)">Horizontal padding on the left and right side of each symbol</text>
  <text style="stroke:none;fill:black;font-family:-apple-system,&quot;SF Pro Display&quot;,&quot;SF Pro Text&quot;,Helvetica,sans-serif;" transform="matrix(1 0 0 1 776 1989)">can be adjusted by modifying the width of the blue rectangles.</text>
  <text style="stroke:none;fill:black;font-family:-apple-system,&quot;SF Pro Display&quot;,&quot;SF Pro Text&quot;,Helvetica,sans-serif;" transform="matrix(1 0 0 1 776 2007)">Modifications are automatically applied proportionally to all</text>
  <text style="stroke:none;fill:black;font-family:-apple-system,&quot;SF Pro Display&quot;,&quot;SF Pro Text&quot;,Helvetica,sans-serif;" transform="matrix(1 0 0 1 776 2025)">scales and weights.</text>
  <g id="" transform="matrix(1 0 0 1 1289 1933)">
   <path d="M 2.96875 2.35352 L 3.80859 3.19336 C 4.84375 4.22852 6.12305 4.15039 7.19727 2.97852 L 16.1621 -6.82617 C 16.5527 -6.74805 16.9629 -6.8457 17.4902 -7.02148 C 18.1738 -7.25586 18.2715 -7.25586 18.3887 -7.13867 C 18.5352 -7.01172 18.4863 -6.89453 18.2422 -6.25 C 17.8809 -5.33203 17.8125 -4.79492 18.5547 -4.02344 L 19.4238 -3.13477 C 20.2734 -2.24609 21.3281 -2.26562 22.2168 -3.14453 L 25.0586 -5.97656 C 25.9473 -6.86523 25.957 -7.92969 25.0781 -8.7793 L 24.1797 -9.64844 C 23.4082 -10.4004 22.8711 -10.3516 21.9629 -9.98047 C 21.3184 -9.72656 21.2012 -9.6875 21.0645 -9.81445 C 20.9375 -9.93164 20.9473 -10.0391 21.1816 -10.7129 C 21.5332 -11.6895 21.5723 -12.2852 20.752 -13.0957 L 19.3359 -14.5117 C 15.1953 -18.6133 11.2305 -18.7402 7.65625 -15.4395 C 7.08008 -14.9023 6.99219 -14.1504 7.53906 -13.6133 L 7.79297 -13.3594 C 8.22266 -12.9297 8.86719 -12.8418 9.41406 -13.1152 C 11.0645 -13.9453 12.2559 -14.0234 13.457 -12.9785 L 13.0273 -11.416 C 12.8516 -10.8008 12.793 -10.3418 12.9199 -9.93164 L 3.18359 -1.04492 C 2.02148 0.0292969 1.93359 1.32812 2.96875 2.35352 Z M 8.96484 -14.4922 C 8.89648 -14.5703 8.86719 -14.6582 8.99414 -14.7559 C 11.709 -17.2852 15.0391 -16.8457 18.3496 -13.5254 L 19.6973 -12.168 C 20.0879 -11.7773 20.0977 -11.582 19.8828 -10.8691 C 19.6582 -10.127 19.502 -9.53125 20.1465 -8.88672 C 20.8105 -8.22266 21.2891 -8.41797 22.207 -8.63281 C 22.9004 -8.79883 23.0664 -8.79883 23.4473 -8.41797 L 24.0918 -7.77344 C 24.4043 -7.48047 24.4141 -7.32422 24.0723 -6.97266 L 21.2207 -4.13086 C 20.8887 -3.79883 20.7227 -3.79883 20.4297 -4.10156 L 19.7852 -4.75586 C 19.4141 -5.13672 19.4141 -5.30273 19.5801 -6.01562 C 19.7852 -6.88477 19.9805 -7.38281 19.3262 -8.04688 C 18.6719 -8.7207 18.0762 -8.57422 17.3438 -8.33008 C 16.5625 -8.06641 16.3281 -8.06641 15.8984 -8.49609 L 14.6094 -9.78516 C 14.1699 -10.2246 14.1309 -10.4395 14.2676 -10.9082 L 15.0293 -13.3984 C 13.3887 -15.2832 11.4941 -15.5566 9.20898 -14.4434 C 9.11133 -14.3945 9.04297 -14.4141 8.96484 -14.4922 Z M 3.96484 1.36719 C 3.52539 0.927734 3.54492 0.537109 4.14062 -0.00976562 L 13.7402 -8.81836 L 15 -7.55859 L 6.17188 2.02148 C 5.625 2.60742 5.24414 2.64648 4.79492 2.19727 Z"/>
  </g>
  <text style="stroke:none;fill:black;font-family:-apple-system,&quot;SF Pro Display&quot;,&quot;SF Pro Text&quot;,Helvetica,sans-serif;font-weight:bold;" transform="matrix(1 0 0 1 1289 1953)">Exporting</text>
  <text style="stroke:none;fill:black;font-family:-apple-system,&quot;SF Pro Display&quot;,&quot;SF Pro Text&quot;,Helvetica,sans-serif;" transform="matrix(1 0 0 1 1289 1971)">Symbols should be outlined when exporting to ensure the</text>
  <text style="stroke:none;fill:black;font-family:-apple-system,&quot;SF Pro Display&quot;,&quot;SF Pro Text&quot;,Helvetica,sans-serif;" transform="matrix(1 0 0 1 1289 1989)">design is preserved when submitting to Xcode.</text>
  <text id="template-version" style="stroke:none;fill:black;font-family:-apple-system,&quot;SF Pro Display&quot;,&quot;SF Pro Text&quot;,Helvetica,sans-serif;text-anchor:end;" transform="matrix(1 0 0 1 3036 1933)">Template v.0.1</text>
  <text style="stroke:none;fill:black;font-family:-apple-system,&quot;SF Pro Display&quot;,&quot;SF Pro Text&quot;,Helvetica,sans-serif;text-anchor:end;" transform="matrix(1 0 0 1 3036 1951)">Generated from arrow.up.and.down.circle.fill</text>
  <text style="stroke:none;fill:black;font-family:-apple-system,&quot;SF Pro Display&quot;,&quot;SF Pro Text&quot;,Helvetica,sans-serif;text-anchor:end;" transform="matrix(1 0 0 1 3036 1969)">Typeset at 100 points</text>
  <text style="stroke:none;fill:black;font-family:-apple-system,&quot;SF Pro Display&quot;,&quot;SF Pro Text&quot;,Helvetica,sans-serif;" transform="matrix(1 0 0 1 263 726)">Small</text>
  <text style="stroke:none;fill:black;font-family:-apple-system,&quot;SF Pro Display&quot;,&quot;SF Pro Text&quot;,Helvetica,sans-serif;" transform="matrix(1 0 0 1 263 1156)">Medium</text>
  <text style="stroke:none;fill:black;font-family:-apple-system,&quot;SF Pro Display&quot;,&quot;SF Pro Text&quot;,Helvetica,sans-serif;" transform="matrix(1 0 0 1 263 1586)">Large</text>
 </g>
 <g id="Guides">
  <g id="H-reference" style="fill:#27AAE1;stroke:none;" transform="matrix(1 0 0 1 339 696)">
   <path d="M 54.9316 0 L 57.666 0 L 30.5664 -70.459 L 28.0762 -70.459 L 0.976562 0 L 3.66211 0 L 12.9395 -24.4629 L 45.7031 -24.4629 Z M 29.1992 -67.0898 L 29.4434 -67.0898 L 44.8242 -26.709 L 13.8184 -26.709 Z"/>
  </g>
  <line id="Baseline-S" style="fill:none;stroke:#27AAE1;opacity:1;stroke-width:0.577;" x1="263" x2="3036" y1="696" y2="696"/>
  <line id="Capline-S" style="fill:none;stroke:#27AAE1;opacity:1;stroke-width:0.577;" x1="263" x2="3036" y1="625.541" y2="625.541"/>
  <g id="H-reference" style="fill:#27AAE1;stroke:none;" transform="matrix(1 0 0 1 339 1126)">
   <path d="M 54.9316 0 L 57.666 0 L 30.5664 -70.459 L 28.0762 -70.459 L 0.976562 0 L 3.66211 0 L 12.9395 -24.4629 L 45.7031 -24.4629 Z M 29.1992 -67.0898 L 29.4434 -67.0898 L 44.8242 -26.709 L 13.8184 -26.709 Z"/>
  </g>
  <line id="Baseline-M" style="fill:none;stroke:#27AAE1;opacity:1;stroke-width:0.577;" x1="263" x2="3036" y1="1126" y2="1126"/>
  <line id="Capline-M" style="fill:none;stroke:#27AAE1;opacity:1;stroke-width:0.577;" x1="263" x2="3036" y1="1055.54" y2="1055.54"/>
  <g id="H-reference" style="fill:#27AAE1;stroke:none;" transform="matrix(1 0 0 1 339 1556)">
   <path d="M 54.9316 0 L 57.666 0 L 30.5664 -70.459 L 28.0762 -70.459 L 0.976562 0 L 3.66211 0 L 12.9395 -24.4629 L 45.7031 -24.4629 Z M 29.1992 -67.0898 L 29.4434 -67.0898 L 44.8242 -26.709 L 13.8184 -26.709 Z"/>
  </g>
  <line id="Baseline-L" style="fill:none;stroke:#27AAE1;opacity:1;stroke-width:0.577;" x1="263" x2="3036" y1="1556" y2="1556"/>
  <line id="Capline-L" style="fill:none;stroke:#27AAE1;opacity:1;stroke-width:0.577;" x1="263" x2="3036" y1="1485.54" y2="1485.54"/>
  <rect height="119.336" id="left-margin" style="fill:#00AEEF;stroke:none;opacity:0.4;" width="8.74023" x="1391.32" y="1030.79"/>
  <rect height="119.336" id="right-margin" style="fill:#00AEEF;stroke:none;opacity:0.4;" width="8.69141" x="1499.67" y="1030.79"/>
 </g>
 <g id="Symbols">
  <g id="Ultralight-S" transform="matrix(1 0 0 1 515.644 696)">
   <path d="M 44.043 2.05078 C 64.502 2.05078 81.2988 -14.6973 81.2988 -35.1562 C 81.2988 -55.6152 64.502 -72.3633 44.043 -72.3633 C 23.584 -72.3633 6.83594 -55.6152 6.83594 -35.1562 C 6.83594 -14.6973 23.584 2.05078 44.043 2.05078 Z M 43.2129 -11.2305 C 42.8711 -11.2305 42.627 -11.377 42.4316 -11.5723 L 27.5391 -26.5137 C 27.3438 -26.709 27.1973 -26.9531 27.1973 -27.2949 C 27.1973 -27.9297 27.6367 -28.3203 28.1738 -28.3203 C 28.5645 -28.3203 28.8086 -28.1738 29.0527 -27.8809 L 37.207 -19.7266 L 42.1875 -14.7949 L 42.0898 -20.1172 L 42.0898 -50.3418 L 42.1875 -55.6641 L 37.207 -50.7324 L 29.0527 -42.5781 C 28.8086 -42.2852 28.5645 -42.1387 28.1738 -42.1387 C 27.6367 -42.1387 27.1973 -42.5293 27.1973 -43.1641 C 27.1973 -43.5059 27.3438 -43.75 27.5391 -43.9453 L 42.4316 -58.8867 C 42.627 -59.082 42.8711 -59.2285 43.2129 -59.2285 C 43.457 -59.2285 43.7988 -59.1309 43.9941 -58.8867 L 58.8867 -43.9453 C 59.1309 -43.75 59.2773 -43.5059 59.2773 -43.1641 C 59.2773 -42.5293 58.8379 -42.1387 58.252 -42.1387 C 57.8613 -42.1387 57.666 -42.2852 57.373 -42.5781 L 49.2188 -50.7324 L 44.2383 -55.7129 L 44.3848 -50.3418 L 44.3848 -20.1172 L 44.2383 -14.7461 L 49.2188 -19.7266 L 57.373 -27.8809 C 57.666 -28.1738 57.8613 -28.3203 58.252 -28.3203 C 58.8379 -28.3203 59.2773 -27.9297 59.2773 -27.2949 C 59.2773 -26.9531 59.1309 -26.709 58.8867 -26.5137 L 43.9941 -11.5723 C 43.7988 -11.3281 43.457 -11.2305 43.2129 -11.2305 Z"/>
  </g>
  <g id="Thin-S" transform="matrix(1 0 0 1 811.867 696)">
   <path d="M 44.5801 2.53906 C 65.2832 2.53906 82.2754 -14.4531 82.2754 -35.2051 C 82.2754 -55.9082 65.2344 -72.9004 44.5312 -72.9004 C 23.8281 -72.9004 6.83594 -55.9082 6.83594 -35.2051 C 6.83594 -14.4531 23.877 2.53906 44.5801 2.53906 Z M 43.8965 -10.5469 C 43.4082 -10.5469 43.0176 -10.791 42.6758 -11.1328 L 28.0273 -25.7812 C 27.7344 -26.0742 27.5391 -26.4648 27.5391 -27.002 C 27.5391 -27.8809 28.2227 -28.5645 29.1016 -28.5645 C 29.6387 -28.5645 29.9805 -28.3691 30.3223 -27.9785 L 37.6465 -20.7031 L 42.3828 -15.7227 L 42.2363 -22.0215 L 42.2363 -48.4375 L 42.3828 -54.7363 L 37.6465 -49.7559 L 30.3223 -42.4805 C 29.9805 -42.0898 29.6387 -41.8945 29.1016 -41.8945 C 28.2227 -41.8945 27.5391 -42.5781 27.5391 -43.457 C 27.5391 -43.9941 27.7344 -44.3848 28.0273 -44.6777 L 42.6758 -59.3262 C 43.0176 -59.668 43.4082 -59.9121 43.8965 -59.9121 C 44.3359 -59.9121 44.7754 -59.7168 45.166 -59.3262 L 59.8145 -44.6777 C 60.1074 -44.3848 60.3027 -43.9941 60.3027 -43.457 C 60.3027 -42.5781 59.6191 -41.8945 58.7402 -41.8945 C 58.2031 -41.8945 57.8125 -42.1387 57.4707 -42.4805 L 50.1953 -49.7559 L 45.4102 -54.7363 L 45.6055 -48.4375 L 45.6055 -22.0215 L 45.4102 -15.7227 L 50.1953 -20.7031 L 57.4707 -27.9785 C 57.8125 -28.3203 58.2031 -28.5645 58.7402 -28.5645 C 59.6191 -28.5645 60.3027 -27.8809 60.3027 -27.002 C 60.3027 -26.4648 60.1074 -26.0742 59.8145 -25.7812 L 45.166 -11.1328 C 44.7754 -10.7422 44.3359 -10.5469 43.8965 -10.5469 Z"/>
  </g>
  <g id="Light-S" transform="matrix(1 0 0 1 1107.6 696)">
   <path d="M 45.5078 3.4668 C 66.6992 3.4668 84.2285 -14.0625 84.2285 -35.2051 C 84.2285 -56.3965 66.6504 -73.9258 45.5078 -73.9258 C 24.3164 -73.9258 6.83594 -56.3965 6.83594 -35.2051 C 6.83594 -14.0625 24.3652 3.4668 45.5078 3.4668 Z M 45.2637 -9.27734 C 44.4336 -9.27734 43.75 -9.61914 43.0664 -10.3027 L 28.9551 -24.4141 C 28.4668 -24.9023 28.1738 -25.5859 28.1738 -26.3672 C 28.1738 -27.8809 29.3945 -29.0039 30.8594 -29.0039 C 31.6895 -29.0039 32.3242 -28.7109 32.8125 -28.1738 L 38.4277 -22.5098 L 42.7734 -17.5293 L 42.4805 -25.6836 L 42.4805 -44.7754 L 42.7734 -52.9297 L 38.4277 -47.9492 L 32.8125 -42.2852 C 32.3242 -41.748 31.6895 -41.4551 30.8594 -41.4551 C 29.3945 -41.4551 28.1738 -42.5781 28.1738 -44.0918 C 28.1738 -44.873 28.4668 -45.5566 28.9551 -46.0449 L 43.0664 -60.1562 C 43.75 -60.8398 44.4336 -61.1816 45.2637 -61.1816 C 45.9961 -61.1816 46.6309 -60.8887 47.3633 -60.1562 L 61.5234 -46.0449 C 62.0117 -45.5566 62.3047 -44.873 62.3047 -44.0918 C 62.3047 -42.5781 61.1328 -41.4551 59.6191 -41.4551 C 58.8379 -41.4551 58.1543 -41.7969 57.666 -42.2852 L 52.002 -47.9492 L 47.7051 -52.9297 L 47.998 -44.7754 L 47.998 -25.6836 L 47.7051 -17.5293 L 52.002 -22.5098 L 57.666 -28.1738 C 58.1543 -28.6621 58.8379 -29.0039 59.6191 -29.0039 C 61.1328 -29.0039 62.3047 -27.8809 62.3047 -26.3672 C 62.3047 -25.5859 62.0117 -24.9023 61.5234 -24.4141 L 47.3633 -10.3027 C 46.6309 -9.57031 45.9961 -9.27734 45.2637 -9.27734 Z"/>
  </g>
  <g id="Regular-S" transform="matrix(1 0 0 1 1403.58 696)">
   <path d="M 46.2402 4.15039 C 67.7734 4.15039 85.6934 -13.7207 85.6934 -35.2539 C 85.6934 -56.7871 67.7246 -74.6582 46.1914 -74.6582 C 24.707 -74.6582 6.83594 -56.7871 6.83594 -35.2539 C 6.83594 -13.7207 24.7559 4.15039 46.2402 4.15039 Z M 46.2402 -8.30078 C 45.166 -8.30078 44.3359 -8.74023 43.4082 -9.66797 L 29.6387 -23.3887 C 29.0527 -23.9746 28.6621 -24.8535 28.6621 -25.8789 C 28.6621 -27.832 30.2734 -29.3457 32.1777 -29.3457 C 33.2031 -29.3457 34.1309 -28.9551 34.7168 -28.3203 L 39.0625 -23.877 L 43.0664 -18.8477 L 42.6758 -28.4668 L 42.6758 -41.9922 L 43.0664 -51.6113 L 39.0625 -46.582 L 34.7168 -42.1387 C 34.1309 -41.5039 33.2031 -41.1133 32.1777 -41.1133 C 30.2734 -41.1133 28.6621 -42.627 28.6621 -44.5801 C 28.6621 -45.6055 29.0527 -46.4844 29.6387 -47.0703 L 43.4082 -60.791 C 44.3359 -61.7188 45.166 -62.1582 46.2402 -62.1582 C 47.2656 -62.1582 48.0957 -61.7676 49.0723 -60.791 L 62.8418 -47.0703 C 63.4766 -46.4844 63.8184 -45.6055 63.8184 -44.5801 C 63.8184 -42.627 62.3047 -41.1133 60.3516 -41.1133 C 59.2773 -41.1133 58.3984 -41.5527 57.8125 -42.1387 L 53.418 -46.582 L 49.4629 -51.5625 L 49.8047 -41.9922 L 49.8047 -28.4668 L 49.4629 -18.8965 L 53.418 -23.877 L 57.8125 -28.3203 C 58.3984 -28.9062 59.2773 -29.3457 60.3516 -29.3457 C 62.3047 -29.3457 63.8184 -27.832 63.8184 -25.8789 C 63.8184 -24.8535 63.4766 -23.9746 62.8418 -23.3887 L 49.0723 -9.66797 C 48.0957 -8.69141 47.2656 -8.30078 46.2402 -8.30078 Z"/>
  </g>
  <g id="Medium-S" transform="matrix(1 0 0 1 1699.7 696)">
   <path d="M 46.8262 4.78516 C 68.75 4.78516 86.8652 -13.3301 86.8652 -35.2539 C 86.8652 -57.1289 68.7012 -75.2441 46.8262 -75.2441 C 24.9023 -75.2441 6.83594 -57.1289 6.83594 -35.2539 C 6.83594 -13.3301 24.9512 4.78516 46.8262 4.78516 Z M 46.8262 -8.39844 C 45.5566 -8.39844 44.5801 -8.93555 43.6035 -9.91211 L 30.5176 -23.2422 C 29.834 -23.9746 29.4434 -24.8535 29.4434 -25.9277 C 29.4434 -28.0273 31.0547 -29.541 33.1543 -29.541 C 34.2285 -29.541 35.2051 -29.1504 35.8398 -28.418 L 39.8438 -24.1699 L 43.2617 -19.7266 L 42.8711 -28.5156 L 42.8711 -41.9434 L 43.2617 -50.7324 L 39.8438 -46.2402 L 35.8398 -42.041 C 35.2051 -41.3086 34.2285 -40.8691 33.1543 -40.8691 C 31.0547 -40.8691 29.4434 -42.4316 29.4434 -44.4824 C 29.4434 -45.6055 29.834 -46.4844 30.5176 -47.2168 L 43.6035 -60.498 C 44.5801 -61.5234 45.5566 -62.0117 46.8262 -62.0117 C 48.0469 -62.0117 49.0234 -61.5723 50.0488 -60.498 L 63.1348 -47.2168 C 63.8672 -46.4844 64.209 -45.6055 64.209 -44.4824 C 64.209 -42.4316 62.6465 -40.8691 60.5469 -40.8691 C 59.4727 -40.8691 58.4473 -41.3574 57.8125 -42.041 L 53.8086 -46.2402 L 50.3906 -50.6836 L 50.8301 -41.9434 L 50.8301 -28.5156 L 50.3906 -19.7754 L 53.8086 -24.2188 L 57.8125 -28.418 C 58.4473 -29.1016 59.4727 -29.541 60.5469 -29.541 C 62.6465 -29.541 64.209 -28.0273 64.209 -25.9277 C 64.209 -24.8535 63.8672 -23.9746 63.1348 -23.2422 L 50.0488 -9.91211 C 49.0234 -8.88672 48.0469 -8.39844 46.8262 -8.39844 Z"/>
  </g>
  <g id="Semibold-S" transform="matrix(1 0 0 1 1995.98 696)">
   <path d="M 47.3145 5.22461 C 69.4824 5.22461 87.7441 -13.0371 87.7441 -35.2539 C 87.7441 -57.4219 69.4336 -75.6836 47.2656 -75.6836 C 25.0977 -75.6836 6.83594 -57.4219 6.83594 -35.2539 C 6.83594 -13.0371 25.0977 5.22461 47.3145 5.22461 Z M 47.2656 -8.49609 C 45.8984 -8.49609 44.7754 -9.0332 43.75 -10.1074 L 31.2012 -23.1445 C 30.4199 -23.9746 30.0293 -24.8535 30.0293 -26.0254 C 30.0293 -28.1738 31.6406 -29.7363 33.8867 -29.7363 C 35.0098 -29.7363 36.0352 -29.248 36.7188 -28.5156 L 40.4297 -24.4141 L 43.457 -20.3613 L 43.0176 -28.5645 L 43.0176 -41.8945 L 43.457 -50.0488 L 40.4297 -45.9961 L 36.7188 -41.8945 C 36.0352 -41.1621 35.0098 -40.6738 33.8867 -40.6738 C 31.6406 -40.6738 30.0293 -42.2852 30.0293 -44.3848 C 30.0293 -45.6055 30.4199 -46.4844 31.2012 -47.2656 L 43.75 -60.3027 C 44.7754 -61.377 45.8984 -61.9141 47.2656 -61.9141 C 48.6816 -61.9141 49.7559 -61.377 50.7812 -60.3027 L 63.3789 -47.2656 C 64.1602 -46.4844 64.5508 -45.6055 64.5508 -44.3848 C 64.5508 -42.2852 62.9395 -40.6738 60.6934 -40.6738 C 59.5703 -40.6738 58.4961 -41.1621 57.8613 -41.8945 L 54.1016 -45.9473 L 51.123 -50 L 51.5625 -41.8945 L 51.5625 -28.5645 L 51.123 -20.4102 L 54.1016 -24.4629 L 57.8613 -28.5156 C 58.4961 -29.248 59.5703 -29.7363 60.6934 -29.7363 C 62.9395 -29.7363 64.5508 -28.1738 64.5508 -26.0254 C 64.5508 -24.8535 64.1602 -23.9746 63.3789 -23.1445 L 50.7812 -10.1074 C 49.7559 -9.0332 48.6816 -8.49609 47.2656 -8.49609 Z"/>
  </g>
  <g id="Bold-S" transform="matrix(1 0 0 1 2292.1 696)">
   <path d="M 47.9004 5.81055 C 70.4102 5.81055 88.916 -12.6465 88.916 -35.2051 C 88.916 -57.7637 70.4102 -76.2695 47.8516 -76.2695 C 25.293 -76.2695 6.83594 -57.7637 6.83594 -35.2051 C 6.83594 -12.6465 25.3418 5.81055 47.9004 5.81055 Z M 47.8516 -8.64258 C 46.2891 -8.64258 45.0195 -9.22852 43.9453 -10.3516 L 32.0801 -22.998 C 31.2012 -23.9258 30.7617 -24.8047 30.7617 -26.123 C 30.7617 -28.3203 32.4707 -29.9805 34.8145 -29.9805 C 36.0352 -29.9805 37.1582 -29.4434 37.8418 -28.6133 L 41.2109 -24.707 L 43.6523 -21.2402 L 43.1641 -28.5645 L 43.1641 -41.7969 L 43.6523 -49.1699 L 41.2109 -45.7031 L 37.8418 -41.7969 C 37.1582 -40.9668 36.0352 -40.4297 34.8145 -40.4297 C 32.4707 -40.4297 30.7617 -42.041 30.7617 -44.2871 C 30.7617 -45.5566 31.2012 -46.4355 32.0801 -47.4121 L 43.9453 -60.0098 C 45.0195 -61.1816 46.2891 -61.7188 47.8516 -61.7188 C 49.4629 -61.7188 50.7324 -61.1816 51.7578 -60.0098 L 63.6719 -47.4121 C 64.5508 -46.4355 64.9414 -45.5566 64.9414 -44.2871 C 64.9414 -42.041 63.2812 -40.4297 60.9375 -40.4297 C 59.7168 -40.4297 58.5938 -40.9668 57.9102 -41.7969 L 54.4922 -45.6055 L 52.0996 -49.1211 L 52.5879 -41.7969 L 52.5879 -28.5645 L 52.0996 -21.2891 L 54.4922 -24.8047 L 57.9102 -28.6133 C 58.5938 -29.4434 59.7168 -29.9805 60.9375 -29.9805 C 63.2812 -29.9805 64.9414 -28.3203 64.9414 -26.123 C 64.9414 -24.8047 64.5508 -23.9258 63.6719 -22.998 L 51.7578 -10.3516 C 50.7324 -9.22852 49.4629 -8.64258 47.8516 -8.64258 Z"/>
  </g>
  <g id="Heavy-S" transform="matrix(1 0 0 1 2587.96 696)">
   <path d="M 48.7305 6.68945 C 71.8262 6.68945 90.625 -12.1094 90.625 -35.2051 C 90.625 -58.3008 71.8262 -77.0996 48.7305 -77.0996 C 25.6348 -77.0996 6.83594 -58.3008 6.83594 -35.2051 C 6.83594 -12.1094 25.6348 6.68945 48.7305 6.68945 Z M 48.7305 -8.83789 C 46.875 -8.83789 45.3613 -9.47266 44.2383 -10.7422 L 33.3496 -22.8027 C 32.3242 -23.9258 31.8848 -24.8047 31.8848 -26.2207 C 31.8848 -28.6133 33.6426 -30.2734 36.2305 -30.2734 C 37.5488 -30.2734 38.7695 -29.6875 39.502 -28.8086 L 42.3828 -25.1465 L 43.9453 -22.5098 L 43.4082 -28.6621 L 43.4082 -41.6992 L 43.9453 -47.8516 L 42.3828 -45.2148 L 39.502 -41.5527 C 38.7695 -40.6738 37.5488 -40.0879 36.2305 -40.0879 C 33.6426 -40.0879 31.8848 -41.748 31.8848 -44.1406 C 31.8848 -45.5566 32.3242 -46.4355 33.3496 -47.5586 L 44.2383 -59.6191 C 45.3613 -60.8887 46.875 -61.5234 48.7305 -61.5234 C 50.5859 -61.5234 52.0996 -60.8887 53.2227 -59.6191 L 64.1113 -47.5586 C 65.1367 -46.4355 65.5762 -45.5566 65.5762 -44.1406 C 65.5762 -41.748 63.8184 -40.0879 61.2305 -40.0879 C 59.9609 -40.0879 58.6914 -40.6738 57.959 -41.5527 L 55.0781 -45.0684 L 53.5156 -47.8516 L 54.0039 -41.6992 L 54.0039 -28.6621 L 53.5156 -22.5098 L 55.0781 -25.293 L 57.959 -28.8086 C 58.6914 -29.6875 59.9609 -30.2734 61.2305 -30.2734 C 63.8184 -30.2734 65.5762 -28.6133 65.5762 -26.2207 C 65.5762 -24.8047 65.1367 -23.9258 64.1113 -22.8027 L 53.2227 -10.7422 C 52.0996 -9.47266 50.5859 -8.83789 48.7305 -8.83789 Z"/>
  </g>
  <g id="Black-S" transform="matrix(1 0 0 1 2883.89 696)">
   <path d="M 49.5117 7.4707 C 73.0957 7.4707 92.1875 -11.6211 92.1875 -35.2051 C 92.1875 -58.7891 73.0957 -77.8809 49.5117 -77.8809 C 25.9277 -77.8809 6.83594 -58.7891 6.83594 -35.2051 C 6.83594 -11.6211 25.9277 7.4707 49.5117 7.4707 Z M 49.5117 -9.0332 C 47.3633 -9.0332 45.7031 -9.7168 44.5312 -11.084 L 34.4727 -22.6562 C 33.3496 -23.877 32.8613 -24.7559 32.8613 -26.3672 C 32.8613 -28.8086 34.668 -30.5664 37.5 -30.5664 C 38.8672 -30.5664 40.2344 -29.9316 40.9668 -28.9551 L 43.4082 -25.5371 L 44.2383 -23.6328 L 43.6523 -28.7109 L 43.6523 -41.6504 L 44.2383 -46.6797 L 43.4082 -44.7754 L 40.9668 -41.4062 C 40.2344 -40.3809 38.8672 -39.7461 37.5 -39.7461 C 34.668 -39.7461 32.8613 -41.5039 32.8613 -43.9941 C 32.8613 -45.5566 33.3496 -46.4355 34.4727 -47.7051 L 44.5312 -59.2773 C 45.7031 -60.5957 47.3633 -61.2793 49.5117 -61.2793 C 51.6113 -61.2793 53.3203 -60.5957 54.4922 -59.2773 L 64.502 -47.7051 C 65.6738 -46.4355 66.1133 -45.5566 66.1133 -43.9941 C 66.1133 -41.5039 64.3066 -39.7461 61.5234 -39.7461 C 60.2051 -39.7461 58.7402 -40.3809 58.0078 -41.4062 L 55.6152 -44.5801 L 54.7363 -46.6797 L 55.3223 -41.6504 L 55.3223 -28.7109 L 54.7363 -23.6328 L 55.6152 -25.7324 L 58.0078 -28.9551 C 58.7402 -29.9316 60.2051 -30.5664 61.5234 -30.5664 C 64.3066 -30.5664 66.1133 -28.8086 66.1133 -26.3672 C 66.1133 -24.7559 65.6738 -23.877 64.502 -22.6562 L 54.4922 -11.084 C 53.3203 -9.7168 51.6113 -9.0332 49.5117 -9.0332 Z"/>
  </g>
  <g id="Ultralight-M" transform="matrix(1 0 0 1 503.656 1126)">
   <path d="M 56.0547 12.207 C 82.0801 12.207 103.369 -9.08203 103.369 -35.1562 C 103.369 -61.1816 82.0801 -82.4707 56.0547 -82.4707 C 30.0293 -82.4707 8.74023 -61.1816 8.74023 -35.1562 C 8.74023 -9.08203 30.0293 12.207 56.0547 12.207 Z M 54.8828 -4.83398 C 54.541 -4.83398 54.248 -5.0293 54.1016 -5.17578 L 34.9609 -24.3652 C 34.7656 -24.6094 34.5703 -24.8535 34.5703 -25.2441 C 34.5703 -25.9277 35.0098 -26.3184 35.6445 -26.3184 C 36.0352 -26.3184 36.2793 -26.123 36.5723 -25.8301 L 47.3145 -15.0879 L 53.7598 -8.83789 L 53.6621 -15.1855 L 53.6621 -55.2734 L 53.7598 -61.6211 L 47.3145 -55.3711 L 36.5723 -44.6289 C 36.2793 -44.3359 36.0352 -44.1406 35.6445 -44.1406 C 35.0098 -44.1406 34.5703 -44.5312 34.5703 -45.2148 C 34.5703 -45.6055 34.7656 -45.8496 34.9609 -46.0938 L 54.1016 -65.2832 C 54.248 -65.4297 54.541 -65.625 54.8828 -65.625 C 55.127 -65.625 55.5176 -65.4785 55.7617 -65.2832 L 74.8535 -46.0938 C 75.0488 -45.8496 75.2441 -45.6055 75.2441 -45.2148 C 75.2441 -44.5312 74.7559 -44.1406 74.1699 -44.1406 C 73.7793 -44.1406 73.5352 -44.3359 73.2422 -44.6289 L 62.5 -55.3711 L 56.0059 -61.7188 L 56.1523 -55.2734 L 56.1523 -15.1855 L 56.0059 -8.74023 L 62.5 -15.0879 L 73.2422 -25.8301 C 73.5352 -26.123 73.7793 -26.3184 74.1699 -26.3184 C 74.7559 -26.3184 75.2441 -25.9277 75.2441 -25.2441 C 75.2441 -24.8535 75.0488 -24.6094 74.8535 -24.3652 L 55.7617 -5.17578 C 55.5176 -4.98047 55.127 -4.83398 54.8828 -4.83398 Z"/>
  </g>
  <g id="Thin-M" transform="matrix(1 0 0 1 799.806 1126)">
   <path d="M 56.5918 12.7441 C 82.9102 12.7441 104.492 -8.83789 104.492 -35.1562 C 104.492 -61.4746 82.9102 -83.0566 56.5918 -83.0566 C 30.3223 -83.0566 8.74023 -61.4746 8.74023 -35.1562 C 8.74023 -8.83789 30.3223 12.7441 56.5918 12.7441 Z M 55.6641 -4.10156 C 55.127 -4.10156 54.6875 -4.3457 54.3457 -4.73633 L 35.498 -23.5352 C 35.1562 -23.9258 34.9609 -24.3164 34.9609 -24.9023 C 34.9609 -25.8789 35.6934 -26.5625 36.6699 -26.5625 C 37.2559 -26.5625 37.6465 -26.3672 38.0371 -25.9277 L 47.8027 -16.1621 L 54.0039 -9.86328 L 53.8086 -17.334 L 53.8086 -53.125 L 54.0039 -60.5957 L 47.8027 -54.2969 L 38.0371 -44.5312 C 37.6465 -44.0918 37.2559 -43.8965 36.6699 -43.8965 C 35.6934 -43.8965 34.9609 -44.5801 34.9609 -45.5566 C 34.9609 -46.1426 35.1562 -46.5332 35.498 -46.9238 L 54.3457 -65.7227 C 54.6875 -66.1133 55.127 -66.3574 55.6641 -66.3574 C 56.1035 -66.3574 56.5918 -66.1621 57.0312 -65.7227 L 75.8301 -46.9238 C 76.1719 -46.5332 76.416 -46.1426 76.416 -45.5566 C 76.416 -44.5801 75.6836 -43.8965 74.707 -43.8965 C 74.1211 -43.8965 73.7305 -44.1406 73.3398 -44.5312 L 63.5742 -54.2969 L 57.3242 -60.6445 L 57.5684 -53.125 L 57.5684 -17.334 L 57.3242 -9.81445 L 63.5742 -16.1621 L 73.3398 -25.9277 C 73.7305 -26.3184 74.1211 -26.5625 74.707 -26.5625 C 75.6836 -26.5625 76.416 -25.8789 76.416 -24.9023 C 76.416 -24.3164 76.1719 -23.9258 75.8301 -23.5352 L 57.0312 -4.73633 C 56.5918 -4.29688 56.1035 -4.10156 55.6641 -4.10156 Z"/>
  </g>
  <g id="Light-M" transform="matrix(1 0 0 1 1095.42 1126)">
   <path d="M 57.7148 13.7695 C 84.5215 13.7695 106.689 -8.39844 106.689 -35.2051 C 106.689 -62.0117 84.4727 -84.1797 57.666 -84.1797 C 30.8594 -84.1797 8.74023 -62.0117 8.74023 -35.2051 C 8.74023 -8.39844 30.8594 13.7695 57.7148 13.7695 Z M 57.1777 -2.63672 C 56.25 -2.63672 55.5176 -3.02734 54.7852 -3.75977 L 36.5723 -22.0215 C 36.0352 -22.5586 35.6934 -23.291 35.6934 -24.1699 C 35.6934 -25.8301 37.0117 -27.0996 38.623 -27.0996 C 39.5508 -27.0996 40.2832 -26.7578 40.8691 -26.123 L 48.7305 -18.2129 L 54.4434 -11.8652 L 54.1016 -21.4844 L 54.1016 -48.9746 L 54.4434 -58.5938 L 48.7305 -52.2461 L 40.8691 -44.3359 C 40.2832 -43.7012 39.5508 -43.3594 38.623 -43.3594 C 37.0117 -43.3594 35.6934 -44.6289 35.6934 -46.2891 C 35.6934 -47.168 36.0352 -47.9004 36.5723 -48.4375 L 54.7852 -66.6992 C 55.5176 -67.4316 56.25 -67.8223 57.1777 -67.8223 C 58.0078 -67.8223 58.7402 -67.4805 59.5703 -66.6992 L 77.832 -48.4375 C 78.3691 -47.9004 78.6621 -47.168 78.6621 -46.2891 C 78.6621 -44.6289 77.3926 -43.3594 75.7324 -43.3594 C 74.8047 -43.3594 74.0723 -43.75 73.5352 -44.3359 L 65.625 -52.2461 L 59.9121 -58.5938 L 60.2539 -48.9746 L 60.2539 -21.4844 L 59.9121 -11.8652 L 65.625 -18.2129 L 73.5352 -26.123 C 74.0723 -26.709 74.8047 -27.0996 75.7324 -27.0996 C 77.3926 -27.0996 78.6621 -25.8301 78.6621 -24.1699 C 78.6621 -23.291 78.3691 -22.5586 77.832 -22.0215 L 59.5703 -3.75977 C 58.7402 -2.97852 58.0078 -2.63672 57.1777 -2.63672 Z"/>
  </g>
  <g id="Regular-M" transform="matrix(1 0 0 1 1391.32 1126)">
   <path d="M 58.5449 14.5508 C 85.7422 14.5508 108.35 -8.00781 108.35 -35.2539 C 108.35 -62.4512 85.6934 -85.0586 58.4961 -85.0586 C 31.25 -85.0586 8.74023 -62.4512 8.74023 -35.2539 C 8.74023 -8.00781 31.2988 14.5508 58.5449 14.5508 Z M 58.3496 -1.51367 C 57.1289 -1.51367 56.2012 -2.05078 55.1758 -3.07617 L 37.3535 -20.8496 C 36.6699 -21.5332 36.2305 -22.5098 36.2305 -23.6328 C 36.2305 -25.8301 38.0371 -27.4902 40.1367 -27.4902 C 41.3086 -27.4902 42.2852 -27.0508 43.0176 -26.2695 L 49.4141 -19.7754 L 54.7852 -13.3789 L 54.3457 -24.6582 L 54.3457 -45.8008 L 54.7852 -57.0801 L 49.4141 -50.6836 L 43.0176 -44.1895 C 42.2852 -43.4082 41.3086 -42.9688 40.1367 -42.9688 C 38.0371 -42.9688 36.2305 -44.6289 36.2305 -46.8262 C 36.2305 -47.9492 36.6699 -48.9258 37.3535 -49.6094 L 55.1758 -67.3828 C 56.2012 -68.4082 57.1289 -68.9453 58.3496 -68.9453 C 59.4727 -68.9453 60.3516 -68.457 61.4746 -67.3828 L 79.2969 -49.6094 C 79.9805 -48.9258 80.3711 -47.9492 80.3711 -46.8262 C 80.3711 -44.6289 78.7109 -42.9688 76.5137 -42.9688 C 75.3418 -42.9688 74.3652 -43.457 73.6816 -44.1895 L 67.1875 -50.6836 L 61.9141 -57.0312 L 62.3535 -45.8008 L 62.3535 -24.6582 L 61.9141 -13.4277 L 67.1875 -19.7754 L 73.6816 -26.2695 C 74.3652 -27.002 75.3418 -27.4902 76.5137 -27.4902 C 78.7109 -27.4902 80.3711 -25.8301 80.3711 -23.6328 C 80.3711 -22.5098 79.9805 -21.5332 79.2969 -20.8496 L 61.4746 -3.07617 C 60.3516 -2.00195 59.4727 -1.51367 58.3496 -1.51367 Z"/>
  </g>
  <g id="Medium-M" transform="matrix(1 0 0 1 1687.33 1126)">
   <path d="M 59.2285 15.2832 C 86.8652 15.2832 109.717 -7.56836 109.717 -35.2051 C 109.717 -62.8906 86.8164 -85.7422 59.1797 -85.7422 C 31.543 -85.7422 8.74023 -62.8906 8.74023 -35.2051 C 8.74023 -7.56836 31.5918 15.2832 59.2285 15.2832 Z M 59.082 -1.51367 C 57.6172 -1.51367 56.4941 -2.09961 55.4199 -3.22266 L 38.3301 -20.5566 C 37.5488 -21.3867 37.1094 -22.3633 37.1094 -23.6328 C 37.1094 -25.9766 38.9648 -27.7344 41.3086 -27.7344 C 42.5781 -27.7344 43.6523 -27.2461 44.4336 -26.416 L 50.293 -20.2637 L 55.0293 -14.4531 L 54.541 -25.0488 L 54.541 -45.3613 L 55.0293 -56.0059 L 50.293 -50.1465 L 44.4336 -43.9941 C 43.6523 -43.1641 42.5781 -42.6758 41.3086 -42.6758 C 38.9648 -42.6758 37.1094 -44.4336 37.1094 -46.7773 C 37.1094 -48.0469 37.5488 -49.0723 38.3301 -49.9023 L 55.4199 -67.1875 C 56.4941 -68.3105 57.6172 -68.8965 59.082 -68.8965 C 60.4492 -68.8965 61.5234 -68.3594 62.6953 -67.1875 L 79.7852 -49.9023 C 80.6152 -49.0723 81.0059 -48.0469 81.0059 -46.7773 C 81.0059 -44.4336 79.248 -42.6758 76.8555 -42.6758 C 75.5859 -42.6758 74.4629 -43.2129 73.7305 -43.9941 L 67.7734 -50.1465 L 63.0859 -55.957 L 63.5742 -45.3613 L 63.5742 -25.0488 L 63.0859 -14.502 L 67.7734 -20.3125 L 73.7305 -26.416 C 74.4629 -27.1973 75.5859 -27.7344 76.8555 -27.7344 C 79.248 -27.7344 81.0059 -25.9766 81.0059 -23.6328 C 81.0059 -22.3633 80.6152 -21.3867 79.7852 -20.5566 L 62.6953 -3.22266 C 61.5234 -2.05078 60.4492 -1.51367 59.082 -1.51367 Z"/>
  </g>
  <g id="Semibold-M" transform="matrix(1 0 0 1 1983.5 1126)">
   <path d="M 59.7656 15.8203 C 87.7441 15.8203 110.791 -7.22656 110.791 -35.2051 C 110.791 -63.1836 87.6953 -86.2793 59.7168 -86.2793 C 31.7383 -86.2793 8.74023 -63.1836 8.74023 -35.2051 C 8.74023 -7.22656 31.7871 15.8203 59.7656 15.8203 Z M 59.6191 -1.51367 C 58.0078 -1.51367 56.7383 -2.14844 55.6152 -3.36914 L 39.1113 -20.3613 C 38.2324 -21.2891 37.7441 -22.3145 37.7441 -23.6328 C 37.7441 -26.123 39.6484 -27.9785 42.1875 -27.9785 C 43.5059 -27.9785 44.7266 -27.4414 45.5078 -26.5137 L 50.9766 -20.6543 L 55.2246 -15.2832 L 54.6875 -25.3906 L 54.6875 -45.0195 L 55.2246 -55.1758 L 50.9766 -49.7559 L 45.5078 -43.8965 C 44.7266 -43.0176 43.5059 -42.4805 42.1875 -42.4805 C 39.6484 -42.4805 37.7441 -44.2871 37.7441 -46.7773 C 37.7441 -48.1445 38.2324 -49.1699 39.1113 -50.0977 L 55.6152 -67.041 C 56.7383 -68.2617 58.0078 -68.8965 59.6191 -68.8965 C 61.1816 -68.8965 62.4023 -68.3105 63.623 -67.041 L 80.1758 -50.0977 C 81.0547 -49.1699 81.4941 -48.1445 81.4941 -46.7773 C 81.4941 -44.2871 79.6387 -42.4805 77.0508 -42.4805 C 75.7324 -42.4805 74.5605 -43.0176 73.7793 -43.8965 L 68.2617 -49.707 L 64.0137 -55.127 L 64.5508 -45.0195 L 64.5508 -25.3906 L 64.0137 -15.2832 L 68.2617 -20.7031 L 73.7793 -26.5137 C 74.5605 -27.3926 75.7324 -27.9785 77.0508 -27.9785 C 79.6387 -27.9785 81.4941 -26.123 81.4941 -23.6328 C 81.4941 -22.3145 81.0547 -21.2891 80.1758 -20.3613 L 63.623 -3.36914 C 62.4023 -2.09961 61.1816 -1.51367 59.6191 -1.51367 Z"/>
  </g>
  <g id="Bold-M" transform="matrix(1 0 0 1 2279.5 1126)">
   <path d="M 60.4492 16.5039 C 88.8672 16.5039 112.207 -6.78711 112.207 -35.2051 C 112.207 -63.623 88.8672 -86.9629 60.4492 -86.9629 C 32.0312 -86.9629 8.74023 -63.623 8.74023 -35.2051 C 8.74023 -6.78711 32.0801 16.5039 60.4492 16.5039 Z M 60.3516 -1.5625 C 58.5449 -1.5625 57.0801 -2.19727 55.8594 -3.51562 L 40.0879 -20.0684 C 39.0625 -21.1426 38.5742 -22.168 38.5742 -23.6816 C 38.5742 -26.3184 40.5762 -28.2227 43.3594 -28.2227 C 44.7754 -28.2227 46.0938 -27.6367 46.9238 -26.6602 L 51.8555 -21.1426 L 55.4688 -16.3574 L 54.9316 -25.8301 L 54.9316 -44.5801 L 55.4688 -54.0527 L 51.8555 -49.2676 L 46.9238 -43.75 C 46.0938 -42.7734 44.7754 -42.1387 43.3594 -42.1387 C 40.5762 -42.1387 38.5742 -44.0918 38.5742 -46.7285 C 38.5742 -48.1934 39.0625 -49.2676 40.0879 -50.3418 L 55.8594 -66.8457 C 57.0801 -68.1641 58.5449 -68.8477 60.3516 -68.8477 C 62.1582 -68.8477 63.5742 -68.2129 64.8438 -66.8457 L 80.6641 -50.3418 C 81.6406 -49.2676 82.1289 -48.1934 82.1289 -46.7285 C 82.1289 -44.0918 80.1758 -42.1387 77.3926 -42.1387 C 75.9766 -42.1387 74.6582 -42.7734 73.8281 -43.75 L 68.8477 -49.1699 L 65.2344 -54.0527 L 65.8203 -44.5801 L 65.8203 -25.8301 L 65.2344 -16.3574 L 68.8477 -21.2402 L 73.8281 -26.6602 C 74.6582 -27.6367 75.9766 -28.2227 77.3926 -28.2227 C 80.1758 -28.2227 82.1289 -26.3184 82.1289 -23.6816 C 82.1289 -22.168 81.6406 -21.1426 80.6641 -20.0684 L 64.8438 -3.51562 C 63.5742 -2.19727 62.1582 -1.5625 60.3516 -1.5625 Z"/>
  </g>
  <g id="Heavy-M" transform="matrix(1 0 0 1 2575.19 1126)">
   <path d="M 61.4746 17.5781 C 90.5273 17.5781 114.258 -6.15234 114.258 -35.2051 C 114.258 -64.2578 90.5273 -87.9883 61.4746 -87.9883 C 32.4219 -87.9883 8.74023 -64.2578 8.74023 -35.2051 C 8.74023 -6.15234 32.4707 17.5781 61.4746 17.5781 Z M 61.4258 -1.5625 C 59.2773 -1.5625 57.5684 -2.29492 56.25 -3.80859 L 41.5039 -19.6777 C 40.332 -20.9473 39.8438 -22.0215 39.8438 -23.7305 C 39.8438 -26.5625 41.9434 -28.6133 45.0684 -28.6133 C 46.6309 -28.6133 48.0957 -27.9785 48.9746 -26.8555 L 53.1738 -21.875 L 55.8594 -17.9199 L 55.2246 -26.416 L 55.2246 -43.9453 L 55.8594 -52.4414 L 53.1738 -48.4863 L 48.9746 -43.5059 C 48.0957 -42.3828 46.6309 -41.748 45.0684 -41.748 C 41.9434 -41.748 39.8438 -43.7988 39.8438 -46.6309 C 39.8438 -48.3398 40.332 -49.4141 41.5039 -50.6836 L 56.25 -66.5527 C 57.5684 -68.0664 59.2773 -68.7988 61.4258 -68.7988 C 63.5742 -68.7988 65.2832 -68.0664 66.6504 -66.5527 L 81.3477 -50.6836 C 82.5195 -49.4141 83.0566 -48.3398 83.0566 -46.6309 C 83.0566 -43.7988 80.957 -41.748 77.832 -41.748 C 76.3184 -41.748 74.8047 -42.4316 73.9258 -43.5059 L 69.7266 -48.3398 L 67.041 -52.4414 L 67.6758 -43.9453 L 67.6758 -26.416 L 67.041 -17.9199 L 69.7266 -22.0215 L 73.9258 -26.8555 C 74.8047 -27.9297 76.3184 -28.6133 77.832 -28.6133 C 80.957 -28.6133 83.0566 -26.5625 83.0566 -23.7305 C 83.0566 -22.0215 82.5195 -20.9473 81.3477 -19.6777 L 66.6504 -3.80859 C 65.2832 -2.29492 63.5742 -1.5625 61.4258 -1.5625 Z"/>
  </g>
  <g id="Black-M" transform="matrix(1 0 0 1 2871 1126)">
   <path d="M 62.4023 18.457 C 91.9922 18.457 116.064 -5.61523 116.064 -35.2051 C 116.064 -64.7949 91.9922 -88.8672 62.4023 -88.8672 C 32.8125 -88.8672 8.74023 -64.7949 8.74023 -35.2051 C 8.74023 -5.61523 32.8125 18.457 62.4023 18.457 Z M 62.4023 -1.5625 C 59.9609 -1.5625 58.0078 -2.39258 56.543 -4.00391 L 42.8223 -19.2871 C 41.5039 -20.752 40.918 -21.875 40.918 -23.7305 C 40.918 -26.8066 43.1641 -29.0039 46.5332 -29.0039 C 48.2422 -29.0039 49.8535 -28.2227 50.8301 -27.0508 L 54.3457 -22.5098 L 56.2012 -19.2871 L 55.4688 -26.9531 L 55.4688 -43.3594 L 56.2012 -51.0254 L 54.3457 -47.8027 L 50.8301 -43.2617 C 49.8535 -42.0898 48.2422 -41.3574 46.5332 -41.3574 C 43.1641 -41.3574 40.918 -43.5059 40.918 -46.582 C 40.918 -48.4863 41.5039 -49.6094 42.8223 -51.0254 L 56.543 -66.3086 C 58.0078 -67.9688 59.9609 -68.75 62.4023 -68.75 C 64.8438 -68.75 66.7969 -67.9688 68.2617 -66.3086 L 81.9824 -51.0254 C 83.3008 -49.6094 83.8867 -48.4863 83.8867 -46.582 C 83.8867 -43.5059 81.6406 -41.3574 78.2227 -41.3574 C 76.6113 -41.3574 74.9023 -42.0898 73.9746 -43.2617 L 70.459 -47.6074 L 68.6035 -51.0254 L 69.2871 -43.3594 L 69.2871 -26.9531 L 68.6035 -19.2871 L 70.459 -22.7051 L 73.9746 -27.0508 C 74.9023 -28.2227 76.6113 -29.0039 78.2227 -29.0039 C 81.6406 -29.0039 83.8867 -26.8066 83.8867 -23.7305 C 83.8867 -21.875 83.3008 -20.752 81.9824 -19.2871 L 68.2617 -4.00391 C 66.7969 -2.39258 64.8438 -1.5625 62.4023 -1.5625 Z"/>
  </g>
  <g id="Ultralight-L" transform="matrix(1 0 0 1 487.641 1556)">
   <path d="M 72.0703 25.7324 C 105.566 25.7324 132.91 -1.61133 132.91 -35.1074 C 132.91 -68.5547 105.566 -95.8984 72.0703 -95.8984 C 38.623 -95.8984 11.2793 -68.5547 11.2793 -35.1074 C 11.2793 -1.61133 38.623 25.7324 72.0703 25.7324 Z M 70.5078 3.66211 C 70.1172 3.66211 69.8242 3.4668 69.6777 3.32031 L 44.9219 -21.5332 C 44.6289 -21.8262 44.4336 -22.0215 44.4336 -22.5098 C 44.4336 -23.2422 44.9219 -23.6328 45.5078 -23.6328 C 45.9961 -23.6328 46.2402 -23.4375 46.582 -23.0957 L 60.8887 -8.78906 L 69.2871 -0.683594 L 69.1406 -8.44727 L 69.1406 -62.0117 L 69.2871 -69.7754 L 60.8887 -61.6699 L 46.582 -47.3633 C 46.2402 -47.0215 45.9961 -46.8262 45.5078 -46.8262 C 44.9219 -46.8262 44.4336 -47.2168 44.4336 -47.9492 C 44.4336 -48.4375 44.6289 -48.6328 44.9219 -48.9258 L 69.6777 -73.7793 C 69.8242 -73.9258 70.1172 -74.1211 70.5078 -74.1211 C 70.7031 -74.1211 71.1426 -73.9746 71.3379 -73.7793 L 96.1426 -48.9258 C 96.3867 -48.6328 96.582 -48.4375 96.582 -47.9492 C 96.582 -47.2168 96.0938 -46.8262 95.5078 -46.8262 C 95.0195 -46.8262 94.7754 -47.0215 94.4336 -47.3633 L 80.1758 -61.6699 L 71.6797 -69.873 L 71.875 -62.0117 L 71.875 -8.44727 L 71.6797 -0.585938 L 80.1758 -8.78906 L 94.4336 -23.0957 C 94.7754 -23.4375 95.0195 -23.6328 95.5078 -23.6328 C 96.0938 -23.6328 96.582 -23.2422 96.582 -22.5098 C 96.582 -22.0215 96.3867 -21.8262 96.1426 -21.5332 L 71.3379 3.32031 C 71.1426 3.51562 70.7031 3.66211 70.5078 3.66211 Z"/>
  </g>
  <g id="Thin-L" transform="matrix(1 0 0 1 783.717 1556)">
   <path d="M 72.7051 26.3184 C 106.494 26.3184 134.131 -1.36719 134.131 -35.1074 C 134.131 -68.8965 106.445 -96.582 72.7051 -96.582 C 38.916 -96.582 11.2793 -68.8965 11.2793 -35.1074 C 11.2793 -1.36719 38.916 26.3184 72.7051 26.3184 Z M 71.3867 4.49219 C 70.8008 4.49219 70.3125 4.19922 69.9707 3.85742 L 45.5078 -20.6543 C 45.1172 -21.0449 44.873 -21.4355 44.873 -22.1191 C 44.873 -23.1934 45.6543 -23.9258 46.6797 -23.9258 C 47.3145 -23.9258 47.7539 -23.6328 48.1934 -23.1934 L 61.377 -9.96094 L 69.5312 -1.85547 L 69.3359 -10.8398 L 69.3359 -59.6191 L 69.5312 -68.6035 L 61.377 -60.498 L 48.1934 -47.2656 C 47.7539 -46.8262 47.3145 -46.5332 46.6797 -46.5332 C 45.6543 -46.5332 44.873 -47.2656 44.873 -48.3398 C 44.873 -49.0234 45.1172 -49.4141 45.5078 -49.8047 L 69.9707 -74.3164 C 70.3125 -74.6582 70.8008 -74.9512 71.3867 -74.9512 C 71.8262 -74.9512 72.3633 -74.7559 72.8027 -74.3164 L 97.2656 -49.8047 C 97.6074 -49.4141 97.9004 -49.0234 97.9004 -48.3398 C 97.9004 -47.2656 97.1191 -46.5332 96.0938 -46.5332 C 95.4102 -46.5332 95.0195 -46.8262 94.5312 -47.2656 L 81.3477 -60.498 L 73.1445 -68.7012 L 73.4375 -59.6191 L 73.4375 -10.8398 L 73.1445 -1.75781 L 81.3477 -9.96094 L 94.5312 -23.1934 C 95.0195 -23.6328 95.4102 -23.9258 96.0938 -23.9258 C 97.1191 -23.9258 97.9004 -23.1934 97.9004 -22.1191 C 97.9004 -21.4355 97.6074 -21.0449 97.2656 -20.6543 L 72.8027 3.85742 C 72.3633 4.29688 71.8262 4.49219 71.3867 4.49219 Z"/>
  </g>
  <g id="Light-L" transform="matrix(1 0 0 1 1079.21 1556)">
   <path d="M 73.9258 27.4902 C 108.301 27.4902 136.572 -0.830078 136.572 -35.1562 C 136.572 -69.5312 108.252 -97.8516 73.877 -97.8516 C 39.5508 -97.8516 11.2793 -69.5312 11.2793 -35.1562 C 11.2793 -0.830078 39.5508 27.4902 73.9258 27.4902 Z M 73.0469 6.10352 C 72.0703 6.10352 71.2402 5.66406 70.5078 4.88281 L 46.6797 -18.8965 C 46.0938 -19.5312 45.7031 -20.3125 45.7031 -21.2891 C 45.7031 -23.1445 47.1191 -24.4629 48.877 -24.4629 C 49.9023 -24.4629 50.6836 -24.0723 51.3672 -23.3887 L 62.4023 -12.3047 L 70.0195 -4.10156 L 69.6777 -15.4785 L 69.6777 -54.9805 L 70.0195 -66.3574 L 62.4023 -58.1543 L 51.3672 -47.0703 C 50.6836 -46.3867 49.9023 -45.9961 48.877 -45.9961 C 47.1191 -45.9961 45.7031 -47.3145 45.7031 -49.1699 C 45.7031 -50.1465 46.0938 -50.9277 46.6797 -51.5625 L 70.5078 -75.3418 C 71.2402 -76.123 72.0703 -76.5625 73.0469 -76.5625 C 73.9258 -76.5625 74.7559 -76.2207 75.6348 -75.3418 L 99.4629 -51.5625 C 100.049 -50.9277 100.391 -50.1465 100.391 -49.1699 C 100.391 -47.3145 99.0234 -45.9961 97.2168 -45.9961 C 96.1914 -45.9961 95.4102 -46.3867 94.7754 -47.0703 L 83.6914 -58.1543 L 76.0742 -66.3574 L 76.4648 -54.9805 L 76.4648 -15.4785 L 76.0742 -4.10156 L 83.6914 -12.3047 L 94.7754 -23.3887 C 95.4102 -24.0723 96.1914 -24.4629 97.2168 -24.4629 C 99.0234 -24.4629 100.391 -23.1445 100.391 -21.2891 C 100.391 -20.3125 100.049 -19.5312 99.4629 -18.8965 L 75.6348 4.88281 C 74.7559 5.76172 73.9258 6.10352 73.0469 6.10352 Z"/>
  </g>
  <g id="Regular-L" transform="matrix(1 0 0 1 1374.99 1556)">
   <path d="M 74.8535 28.3691 C 109.668 28.3691 138.428 -0.390625 138.428 -35.2051 C 138.428 -70.0195 109.619 -98.7793 74.8047 -98.7793 C 39.9902 -98.7793 11.2793 -70.0195 11.2793 -35.2051 C 11.2793 -0.390625 40.0391 28.3691 74.8535 28.3691 Z M 74.3164 7.37305 C 72.998 7.37305 71.9727 6.78711 70.8984 5.71289 L 47.5586 -17.627 C 46.7773 -18.3594 46.2891 -19.4336 46.2891 -20.7031 C 46.2891 -23.0957 48.2422 -24.9023 50.5859 -24.9023 C 51.9043 -24.9023 52.9297 -24.4141 53.7598 -23.584 L 63.1836 -14.0137 L 70.4102 -5.81055 L 69.9219 -18.9941 L 69.9219 -51.4648 L 70.4102 -64.6484 L 63.1836 -56.4453 L 53.7598 -46.875 C 52.9297 -46.0449 51.9043 -45.5566 50.5859 -45.5566 C 48.2422 -45.5566 46.2891 -47.3633 46.2891 -49.7559 C 46.2891 -51.0254 46.7773 -52.0996 47.5586 -52.832 L 70.8984 -76.1719 C 71.9727 -77.2461 72.998 -77.832 74.3164 -77.832 C 75.5371 -77.832 76.5625 -77.2949 77.7344 -76.1719 L 101.123 -52.832 C 101.855 -52.0996 102.295 -51.0254 102.295 -49.7559 C 102.295 -47.3633 100.488 -45.5566 98.0957 -45.5566 C 96.7773 -45.5566 95.752 -46.0938 94.9219 -46.875 L 85.4492 -56.4453 L 78.2715 -64.6484 L 78.7598 -51.4648 L 78.7598 -18.9941 L 78.2715 -5.81055 L 85.4492 -14.0137 L 94.9219 -23.584 C 95.752 -24.3652 96.7773 -24.9023 98.0957 -24.9023 C 100.488 -24.9023 102.295 -23.0957 102.295 -20.7031 C 102.295 -19.4336 101.855 -18.3594 101.123 -17.627 L 77.7344 5.71289 C 76.5625 6.83594 75.5371 7.37305 74.3164 7.37305 Z"/>
  </g>
  <g id="Medium-L" transform="matrix(1 0 0 1 1670.9 1556)">
   <path d="M 75.6348 29.1992 C 110.938 29.1992 140.039 0.0488281 140.039 -35.2051 C 140.039 -70.459 110.889 -99.6094 75.5859 -99.6094 C 40.332 -99.6094 11.2793 -70.459 11.2793 -35.2051 C 11.2793 0.0488281 40.3809 29.1992 75.6348 29.1992 Z M 75.2441 7.56836 C 73.6328 7.56836 72.4121 6.93359 71.1914 5.66406 L 48.6328 -17.1387 C 47.7051 -18.0176 47.2168 -19.1895 47.2168 -20.6055 C 47.2168 -23.2422 49.2676 -25.2441 51.9531 -25.2441 C 53.3691 -25.2441 54.5898 -24.6582 55.4688 -23.7305 L 64.1602 -14.7949 L 70.7031 -7.08008 L 70.166 -20.0195 L 70.166 -50.4395 L 70.7031 -63.3789 L 64.1602 -55.6641 L 55.4688 -46.7285 C 54.5898 -45.752 53.3691 -45.2148 51.9531 -45.2148 C 49.2676 -45.2148 47.2168 -47.168 47.2168 -49.8535 C 47.2168 -51.2695 47.7051 -52.3926 48.6328 -53.3203 L 71.1914 -76.123 C 72.4121 -77.3438 73.6328 -78.0273 75.2441 -78.0273 C 76.709 -78.0273 77.9785 -77.4414 79.248 -76.123 L 101.855 -53.3203 C 102.734 -52.3926 103.223 -51.2695 103.223 -49.8535 C 103.223 -47.168 101.221 -45.2148 98.5352 -45.2148 C 97.1191 -45.2148 95.8984 -45.8008 95.0195 -46.7285 L 86.2793 -55.6152 L 79.7852 -63.3301 L 80.3223 -50.4395 L 80.3223 -20.0195 L 79.7852 -7.08008 L 86.2793 -14.7949 L 95.0195 -23.7305 C 95.8984 -24.6094 97.1191 -25.2441 98.5352 -25.2441 C 101.221 -25.2441 103.223 -23.2422 103.223 -20.6055 C 103.223 -19.1895 102.734 -18.0176 101.855 -17.1387 L 79.248 5.66406 C 77.9785 6.98242 76.709 7.56836 75.2441 7.56836 Z"/>
  </g>
  <g id="Semibold-L" transform="matrix(1 0 0 1 1967 1556)">
   <path d="M 76.2695 29.7852 C 111.914 29.7852 141.26 0.439453 141.26 -35.2051 C 141.26 -70.8496 111.865 -100.244 76.2207 -100.244 C 40.5762 -100.244 11.2793 -70.8496 11.2793 -35.2051 C 11.2793 0.439453 40.625 29.7852 76.2695 29.7852 Z M 75.9277 7.76367 C 74.1211 7.76367 72.7051 7.03125 71.4355 5.66406 L 49.4141 -16.748 C 48.4375 -17.7734 47.8516 -18.9941 47.8516 -20.5566 C 47.8516 -23.3887 50.0977 -25.4883 52.9785 -25.4883 C 54.541 -25.4883 55.8594 -24.8535 56.7871 -23.8281 L 64.8926 -15.3809 L 70.8984 -8.05664 L 70.3613 -20.8008 L 70.3613 -49.6094 L 70.8984 -62.3535 L 64.8926 -55.0293 L 56.7871 -46.582 C 55.8594 -45.5566 54.541 -44.9219 52.9785 -44.9219 C 50.0977 -44.9219 47.8516 -47.0215 47.8516 -49.9023 C 47.8516 -51.4648 48.4375 -52.6367 49.4141 -53.6621 L 71.4355 -76.0742 C 72.7051 -77.4414 74.1211 -78.1738 75.9277 -78.1738 C 77.6367 -78.1738 79.0527 -77.5391 80.3711 -76.0742 L 102.441 -53.6621 C 103.418 -52.6367 103.955 -51.4648 103.955 -49.9023 C 103.955 -47.0215 101.807 -44.9219 98.877 -44.9219 C 97.3633 -44.9219 95.9961 -45.6055 95.0684 -46.582 L 86.9629 -54.9805 L 80.9082 -62.3535 L 81.4941 -49.6094 L 81.4941 -20.8008 L 80.9082 -8.05664 L 86.9629 -15.4297 L 95.0684 -23.8281 C 95.9961 -24.8535 97.3633 -25.4883 98.877 -25.4883 C 101.807 -25.4883 103.955 -23.3887 103.955 -20.5566 C 103.955 -18.9941 103.418 -17.7734 102.441 -16.748 L 80.3711 5.66406 C 79.0527 7.08008 77.6367 7.76367 75.9277 7.76367 Z"/>
  </g>
  <g id="Bold-L" transform="matrix(1 0 0 1 2262.9 1556)">
   <path d="M 77.0996 30.6152 C 113.184 30.6152 142.92 0.878906 142.92 -35.2051 C 142.92 -71.3379 113.135 -101.025 77.0508 -101.025 C 40.918 -101.025 11.2793 -71.3379 11.2793 -35.2051 C 11.2793 0.878906 40.9668 30.6152 77.0996 30.6152 Z M 76.8555 7.95898 C 74.8047 7.95898 73.1445 7.17773 71.7285 5.66406 L 50.4883 -16.2598 C 49.3652 -17.4316 48.7793 -18.7012 48.7793 -20.459 C 48.7793 -23.5352 51.1719 -25.8301 54.3457 -25.8301 C 56.0547 -25.8301 57.5195 -25.1465 58.4961 -24.0234 L 65.8203 -16.1621 L 71.2402 -9.375 L 70.6055 -21.8262 L 70.6055 -48.584 L 71.2402 -61.0352 L 65.8203 -54.248 L 58.4961 -46.3867 C 57.5195 -45.2637 56.0547 -44.5801 54.3457 -44.5801 C 51.1719 -44.5801 48.7793 -46.875 48.7793 -49.9512 C 48.7793 -51.709 49.3652 -52.9785 50.4883 -54.1504 L 71.7285 -76.0742 C 73.1445 -77.5879 74.8047 -78.3691 76.8555 -78.3691 C 78.8086 -78.3691 80.4199 -77.6367 81.9336 -76.0742 L 103.174 -54.1504 C 104.297 -52.9785 104.883 -51.709 104.883 -49.9512 C 104.883 -46.875 102.539 -44.5801 99.3164 -44.5801 C 97.6562 -44.5801 96.1426 -45.3125 95.166 -46.3867 L 87.793 -54.1504 L 82.4219 -61.0352 L 83.1055 -48.584 L 83.1055 -21.8262 L 82.4219 -9.375 L 87.793 -16.2598 L 95.166 -24.0234 C 96.1426 -25.0977 97.6562 -25.8301 99.3164 -25.8301 C 102.539 -25.8301 104.883 -23.5352 104.883 -20.459 C 104.883 -18.7012 104.297 -17.4316 103.174 -16.2598 L 81.9336 5.66406 C 80.4199 7.22656 78.8086 7.95898 76.8555 7.95898 Z"/>
  </g>
  <g id="Heavy-L" transform="matrix(1 0 0 1 2558.42 1556)">
   <path d="M 78.2715 31.7871 C 115.039 31.7871 145.264 1.61133 145.264 -35.2051 C 145.264 -72.0215 115.039 -102.197 78.2227 -102.197 C 41.4551 -102.197 11.2793 -72.0215 11.2793 -35.2051 C 11.2793 1.61133 41.4551 31.7871 78.2715 31.7871 Z M 78.1738 8.30078 C 75.7324 8.30078 73.7793 7.37305 72.168 5.66406 L 52.0508 -15.5273 C 50.7324 -16.9434 50.0488 -18.3105 50.0488 -20.3125 C 50.0488 -23.7793 52.6855 -26.3184 56.3477 -26.3184 C 58.252 -26.3184 59.9609 -25.5371 61.0352 -24.2188 L 67.2363 -17.2852 L 71.6797 -11.2305 L 70.9473 -23.3398 L 70.9473 -47.0215 L 71.6797 -59.1309 L 67.2363 -53.0762 L 61.0352 -46.1426 C 59.9609 -44.873 58.252 -44.0918 56.3477 -44.0918 C 52.6855 -44.0918 50.0488 -46.582 50.0488 -50.0488 C 50.0488 -52.0508 50.7324 -53.418 52.0508 -54.834 L 72.168 -76.0254 C 73.7793 -77.7832 75.7324 -78.6621 78.1738 -78.6621 C 80.5664 -78.6621 82.4707 -77.7832 84.1309 -76.0254 L 104.248 -54.834 C 105.615 -53.418 106.25 -52.0508 106.25 -50.0488 C 106.25 -46.582 103.662 -44.0918 99.9512 -44.0918 C 98.1445 -44.0918 96.3379 -44.873 95.2637 -46.1426 L 89.0625 -52.9785 L 84.668 -59.1309 L 85.4004 -47.0215 L 85.4004 -23.3398 L 84.668 -11.2793 L 89.0625 -17.3828 L 95.2637 -24.2188 C 96.3379 -25.4883 98.1445 -26.3184 99.9512 -26.3184 C 103.662 -26.3184 106.25 -23.7793 106.25 -20.3125 C 106.25 -18.3105 105.615 -16.9434 104.248 -15.5273 L 84.1309 5.66406 C 82.4707 7.42188 80.5664 8.30078 78.1738 8.30078 Z"/>
  </g>
  <g id="Black-L" transform="matrix(1 0 0 1 2854.08 1556)">
   <path d="M 79.2969 32.8613 C 116.748 32.8613 147.363 2.19727 147.363 -35.2051 C 147.363 -72.6074 116.699 -103.271 79.2969 -103.271 C 41.8945 -103.271 11.2793 -72.6074 11.2793 -35.2051 C 11.2793 2.19727 41.8945 32.8613 79.2969 32.8613 Z M 79.3457 8.54492 C 76.5625 8.54492 74.3652 7.56836 72.5586 5.61523 L 53.418 -14.8926 C 51.9043 -16.5039 51.2207 -17.9688 51.2207 -20.2148 C 51.2207 -23.9746 54.0527 -26.709 58.1055 -26.709 C 60.2051 -26.709 62.1094 -25.8301 63.2812 -24.4141 L 68.457 -18.2617 L 72.0703 -12.8906 L 71.2402 -24.6582 L 71.2402 -45.7031 L 72.0703 -57.4219 L 68.457 -52.0508 L 63.2812 -45.8984 C 62.1094 -44.4824 60.2051 -43.6035 58.1055 -43.6035 C 54.0527 -43.6035 51.2207 -46.3379 51.2207 -50.1465 C 51.2207 -52.3438 51.9043 -53.8086 53.418 -55.4688 L 72.5586 -75.9766 C 74.3652 -77.9297 76.5625 -78.9062 79.3457 -78.9062 C 82.0801 -78.9062 84.2773 -77.9297 86.084 -75.9766 L 105.225 -55.4688 C 106.738 -53.8086 107.422 -52.3438 107.422 -50.1465 C 107.422 -46.3379 104.639 -43.6035 100.537 -43.6035 C 98.5352 -43.6035 96.5332 -44.5312 95.4102 -45.8984 L 90.1855 -51.9043 L 86.6211 -57.4219 L 87.4512 -45.7031 L 87.4512 -24.6582 L 86.6211 -12.9395 L 90.1855 -18.457 L 95.4102 -24.4141 C 96.5332 -25.8301 98.5352 -26.709 100.537 -26.709 C 104.639 -26.709 107.422 -23.9746 107.422 -20.2148 C 107.422 -17.9688 106.738 -16.5039 105.225 -14.8926 L 86.084 5.61523 C 84.2773 7.61719 82.0801 8.54492 79.3457 8.54492 Z"/>
  </g>
 </g>
</svg>
