<?xml version="1.0" encoding="UTF-8"?>
<!--Generator: Apple Native CoreSVG 123-->
<!DOCTYPE svg
PUBLIC "-//W3C//DTD SVG 1.1//EN"
       "http://www.w3.org/Graphics/SVG/1.1/DTD/svg11.dtd">
<svg version="1.1" xmlns="http://www.w3.org/2000/svg" xmlns:xlink="http://www.w3.org/1999/xlink" width="3300" height="2200">
 <!--glyph: "uni10011A.medium", point size: 100.000000, font version: "Version 15.0d4e20", template writer version: "2"-->
 <g id="Notes">
  <rect height="2200" id="artboard" style="fill:white;opacity:1" width="3300" x="0" y="0"/>
  <line id="" style="fill:none;stroke:black;opacity:1;stroke-width:0.5;" x1="263" x2="3036" y1="292" y2="292"/>
  <text style="stroke:none;fill:black;font-family:-apple-system,&quot;SF Pro Display&quot;,&quot;SF Pro Text&quot;,Helvetica,sans-serif;font-weight:bold;" transform="matrix(1 0 0 1 263 322)">Weight/Scale Variations</text>
  <text style="stroke:none;fill:black;font-family:-apple-system,&quot;SF Pro Display&quot;,&quot;SF Pro Text&quot;,Helvetica,sans-serif;text-anchor:middle;" transform="matrix(1 0 0 1 559.711 322)">Ultralight</text>
  <text style="stroke:none;fill:black;font-family:-apple-system,&quot;SF Pro Display&quot;,&quot;SF Pro Text&quot;,Helvetica,sans-serif;text-anchor:middle;" transform="matrix(1 0 0 1 856.422 322)">Thin</text>
  <text style="stroke:none;fill:black;font-family:-apple-system,&quot;SF Pro Display&quot;,&quot;SF Pro Text&quot;,Helvetica,sans-serif;text-anchor:middle;" transform="matrix(1 0 0 1 1153.13 322)">Light</text>
  <text style="stroke:none;fill:black;font-family:-apple-system,&quot;SF Pro Display&quot;,&quot;SF Pro Text&quot;,Helvetica,sans-serif;text-anchor:middle;" transform="matrix(1 0 0 1 1449.84 322)">Regular</text>
  <text style="stroke:none;fill:black;font-family:-apple-system,&quot;SF Pro Display&quot;,&quot;SF Pro Text&quot;,Helvetica,sans-serif;text-anchor:middle;" transform="matrix(1 0 0 1 1746.56 322)">Medium</text>
  <text style="stroke:none;fill:black;font-family:-apple-system,&quot;SF Pro Display&quot;,&quot;SF Pro Text&quot;,Helvetica,sans-serif;text-anchor:middle;" transform="matrix(1 0 0 1 2043.27 322)">Semibold</text>
  <text style="stroke:none;fill:black;font-family:-apple-system,&quot;SF Pro Display&quot;,&quot;SF Pro Text&quot;,Helvetica,sans-serif;text-anchor:middle;" transform="matrix(1 0 0 1 2339.98 322)">Bold</text>
  <text style="stroke:none;fill:black;font-family:-apple-system,&quot;SF Pro Display&quot;,&quot;SF Pro Text&quot;,Helvetica,sans-serif;text-anchor:middle;" transform="matrix(1 0 0 1 2636.69 322)">Heavy</text>
  <text style="stroke:none;fill:black;font-family:-apple-system,&quot;SF Pro Display&quot;,&quot;SF Pro Text&quot;,Helvetica,sans-serif;text-anchor:middle;" transform="matrix(1 0 0 1 2933.4 322)">Black</text>
  <line id="" style="fill:none;stroke:black;opacity:1;stroke-width:0.5;" x1="263" x2="3036" y1="1903" y2="1903"/>
  <g id="" transform="matrix(1 0 0 1 263 1933)">
   <path d="M 9.24805 0.830078 C 13.5547 0.830078 17.1387 -2.74414 17.1387 -7.05078 C 17.1387 -11.3574 13.5449 -14.9316 9.23828 -14.9316 C 4.94141 -14.9316 1.36719 -11.3574 1.36719 -7.05078 C 1.36719 -2.74414 4.95117 0.830078 9.24805 0.830078 Z M 9.24805 -0.654297 C 5.70312 -0.654297 2.87109 -3.49609 2.87109 -7.05078 C 2.87109 -10.6055 5.69336 -13.4473 9.23828 -13.4473 C 12.793 -13.4473 15.6348 -10.6055 15.6445 -7.05078 C 15.6543 -3.49609 12.8027 -0.654297 9.24805 -0.654297 Z M 9.22852 -3.42773 C 9.69727 -3.42773 9.9707 -3.74023 9.9707 -4.25781 L 9.9707 -6.31836 L 12.1973 -6.31836 C 12.6953 -6.31836 13.0371 -6.57227 13.0371 -7.04102 C 13.0371 -7.51953 12.7148 -7.7832 12.1973 -7.7832 L 9.9707 -7.7832 L 9.9707 -10.0098 C 9.9707 -10.5273 9.69727 -10.8496 9.22852 -10.8496 C 8.75977 -10.8496 8.50586 -10.5078 8.50586 -10.0098 L 8.50586 -7.7832 L 6.29883 -7.7832 C 5.78125 -7.7832 5.44922 -7.51953 5.44922 -7.04102 C 5.44922 -6.57227 5.80078 -6.31836 6.29883 -6.31836 L 8.50586 -6.31836 L 8.50586 -4.25781 C 8.50586 -3.75977 8.75977 -3.42773 9.22852 -3.42773 Z"/>
  </g>
  <g id="" transform="matrix(1 0 0 1 281.506 1933)">
   <path d="M 11.709 2.91016 C 17.1484 2.91016 21.6699 -1.60156 21.6699 -7.05078 C 21.6699 -12.4902 17.1387 -17.0117 11.6992 -17.0117 C 6.25 -17.0117 1.74805 -12.4902 1.74805 -7.05078 C 1.74805 -1.60156 6.25977 2.91016 11.709 2.91016 Z M 11.709 1.25 C 7.09961 1.25 3.41797 -2.44141 3.41797 -7.05078 C 3.41797 -11.6504 7.08984 -15.3516 11.6992 -15.3516 C 16.2988 -15.3516 20 -11.6504 20.0098 -7.05078 C 20.0195 -2.44141 16.3086 1.25 11.709 1.25 Z M 11.6797 -2.41211 C 12.207 -2.41211 12.5195 -2.77344 12.5195 -3.33984 L 12.5195 -6.23047 L 15.5762 -6.23047 C 16.123 -6.23047 16.5039 -6.51367 16.5039 -7.03125 C 16.5039 -7.55859 16.1426 -7.86133 15.5762 -7.86133 L 12.5195 -7.86133 L 12.5195 -10.9277 C 12.5195 -11.5039 12.207 -11.8555 11.6797 -11.8555 C 11.1621 -11.8555 10.8789 -11.4844 10.8789 -10.9277 L 10.8789 -7.86133 L 7.83203 -7.86133 C 7.25586 -7.86133 6.89453 -7.55859 6.89453 -7.03125 C 6.89453 -6.51367 7.28516 -6.23047 7.83203 -6.23047 L 10.8789 -6.23047 L 10.8789 -3.33984 C 10.8789 -2.79297 11.1621 -2.41211 11.6797 -2.41211 Z"/>
  </g>
  <g id="" transform="matrix(1 0 0 1 304.914 1933)">
   <path d="M 14.9707 5.67383 C 21.9336 5.67383 27.6855 -0.078125 27.6855 -7.04102 C 27.6855 -14.0039 21.9238 -19.7559 14.9609 -19.7559 C 7.99805 -19.7559 2.25586 -14.0039 2.25586 -7.04102 C 2.25586 -0.078125 8.00781 5.67383 14.9707 5.67383 Z M 14.9707 3.85742 C 8.92578 3.85742 4.08203 -1.00586 4.08203 -7.04102 C 4.08203 -13.0762 8.91602 -17.9395 14.9609 -17.9395 C 20.9961 -17.9395 25.8594 -13.0762 25.8691 -7.04102 C 25.8789 -1.00586 21.0059 3.85742 14.9707 3.85742 Z M 14.9414 -1.06445 C 15.5176 -1.06445 15.8594 -1.45508 15.8594 -2.06055 L 15.8594 -6.13281 L 20.0977 -6.13281 C 20.6934 -6.13281 21.1133 -6.46484 21.1133 -7.02148 C 21.1133 -7.59766 20.7227 -7.93945 20.0977 -7.93945 L 15.8594 -7.93945 L 15.8594 -12.1875 C 15.8594 -12.8027 15.5176 -13.1934 14.9414 -13.1934 C 14.3848 -13.1934 14.0625 -12.7832 14.0625 -12.1875 L 14.0625 -7.93945 L 9.82422 -7.93945 C 9.20898 -7.93945 8.80859 -7.59766 8.80859 -7.02148 C 8.80859 -6.46484 9.23828 -6.13281 9.82422 -6.13281 L 14.0625 -6.13281 L 14.0625 -2.06055 C 14.0625 -1.47461 14.3848 -1.06445 14.9414 -1.06445 Z"/>
  </g>
  <text style="stroke:none;fill:black;font-family:-apple-system,&quot;SF Pro Display&quot;,&quot;SF Pro Text&quot;,Helvetica,sans-serif;font-weight:bold;" transform="matrix(1 0 0 1 263 1953)">Design Variations</text>
  <text style="stroke:none;fill:black;font-family:-apple-system,&quot;SF Pro Display&quot;,&quot;SF Pro Text&quot;,Helvetica,sans-serif;" transform="matrix(1 0 0 1 263 1971)">Symbols are supported in up to nine weights and three scales.</text>
  <text style="stroke:none;fill:black;font-family:-apple-system,&quot;SF Pro Display&quot;,&quot;SF Pro Text&quot;,Helvetica,sans-serif;" transform="matrix(1 0 0 1 263 1989)">For optimal layout with text and other symbols, vertically align</text>
  <text style="stroke:none;fill:black;font-family:-apple-system,&quot;SF Pro Display&quot;,&quot;SF Pro Text&quot;,Helvetica,sans-serif;" transform="matrix(1 0 0 1 263 2007)">symbols with the adjacent text.</text>
  <rect height="14" id="" style="fill:#00AEEF;stroke:none;opacity:0.4;" width="3" x="776" y="1919"/>
  <g id="" transform="matrix(1 0 0 1 779 1933)">
   <path d="M 10.5273 0 L 12.373 0 L 7.17773 -14.0918 L 5.43945 -14.0918 L 0.244141 0 L 2.08984 0 L 3.50586 -4.0332 L 9.11133 -4.0332 Z M 6.2793 -11.9531 L 6.33789 -11.9531 L 8.59375 -5.52734 L 4.02344 -5.52734 Z"/>
  </g>
  <rect height="14" id="" style="fill:#00AEEF;stroke:none;opacity:0.4;" width="3" x="791.617" y="1919"/>
  <text style="stroke:none;fill:black;font-family:-apple-system,&quot;SF Pro Display&quot;,&quot;SF Pro Text&quot;,Helvetica,sans-serif;font-weight:bold;" transform="matrix(1 0 0 1 776 1953)">Side Bearings</text>
  <text style="stroke:none;fill:black;font-family:-apple-system,&quot;SF Pro Display&quot;,&quot;SF Pro Text&quot;,Helvetica,sans-serif;" transform="matrix(1 0 0 1 776 1971)">Horizontal padding on the left and right side of each symbol</text>
  <text style="stroke:none;fill:black;font-family:-apple-system,&quot;SF Pro Display&quot;,&quot;SF Pro Text&quot;,Helvetica,sans-serif;" transform="matrix(1 0 0 1 776 1989)">can be adjusted by modifying the width of the blue rectangles.</text>
  <text style="stroke:none;fill:black;font-family:-apple-system,&quot;SF Pro Display&quot;,&quot;SF Pro Text&quot;,Helvetica,sans-serif;" transform="matrix(1 0 0 1 776 2007)">Modifications are automatically applied proportionally to all</text>
  <text style="stroke:none;fill:black;font-family:-apple-system,&quot;SF Pro Display&quot;,&quot;SF Pro Text&quot;,Helvetica,sans-serif;" transform="matrix(1 0 0 1 776 2025)">scales and weights.</text>
  <g id="" transform="matrix(1 0 0 1 1289 1933)">
   <path d="M 2.96875 2.35352 L 3.80859 3.19336 C 4.84375 4.22852 6.12305 4.15039 7.19727 2.97852 L 16.1621 -6.82617 C 16.5527 -6.74805 16.9629 -6.8457 17.4902 -7.02148 C 18.1738 -7.25586 18.2715 -7.25586 18.3887 -7.13867 C 18.5352 -7.01172 18.4863 -6.89453 18.2422 -6.25 C 17.8809 -5.33203 17.8125 -4.79492 18.5547 -4.02344 L 19.4238 -3.13477 C 20.2734 -2.24609 21.3281 -2.26562 22.2168 -3.14453 L 25.0586 -5.97656 C 25.9473 -6.86523 25.957 -7.92969 25.0781 -8.7793 L 24.1797 -9.64844 C 23.4082 -10.4004 22.8711 -10.3516 21.9629 -9.98047 C 21.3184 -9.72656 21.2012 -9.6875 21.0645 -9.81445 C 20.9375 -9.93164 20.9473 -10.0391 21.1816 -10.7129 C 21.5332 -11.6895 21.5723 -12.2852 20.752 -13.0957 L 19.3359 -14.5117 C 15.1953 -18.6133 11.2305 -18.7402 7.65625 -15.4395 C 7.08008 -14.9023 6.99219 -14.1504 7.53906 -13.6133 L 7.79297 -13.3594 C 8.22266 -12.9297 8.86719 -12.8418 9.41406 -13.1152 C 11.0645 -13.9453 12.2559 -14.0234 13.457 -12.9785 L 13.0273 -11.416 C 12.8516 -10.8008 12.793 -10.3418 12.9199 -9.93164 L 3.18359 -1.04492 C 2.02148 0.0292969 1.93359 1.32812 2.96875 2.35352 Z M 8.96484 -14.4922 C 8.89648 -14.5703 8.86719 -14.6582 8.99414 -14.7559 C 11.709 -17.2852 15.0391 -16.8457 18.3496 -13.5254 L 19.6973 -12.168 C 20.0879 -11.7773 20.0977 -11.582 19.8828 -10.8691 C 19.6582 -10.127 19.502 -9.53125 20.1465 -8.88672 C 20.8105 -8.22266 21.2891 -8.41797 22.207 -8.63281 C 22.9004 -8.79883 23.0664 -8.79883 23.4473 -8.41797 L 24.0918 -7.77344 C 24.4043 -7.48047 24.4141 -7.32422 24.0723 -6.97266 L 21.2207 -4.13086 C 20.8887 -3.79883 20.7227 -3.79883 20.4297 -4.10156 L 19.7852 -4.75586 C 19.4141 -5.13672 19.4141 -5.30273 19.5801 -6.01562 C 19.7852 -6.88477 19.9805 -7.38281 19.3262 -8.04688 C 18.6719 -8.7207 18.0762 -8.57422 17.3438 -8.33008 C 16.5625 -8.06641 16.3281 -8.06641 15.8984 -8.49609 L 14.6094 -9.78516 C 14.1699 -10.2246 14.1309 -10.4395 14.2676 -10.9082 L 15.0293 -13.3984 C 13.3887 -15.2832 11.4941 -15.5566 9.20898 -14.4434 C 9.11133 -14.3945 9.04297 -14.4141 8.96484 -14.4922 Z M 3.96484 1.36719 C 3.52539 0.927734 3.54492 0.537109 4.14062 -0.00976562 L 13.7402 -8.81836 L 15 -7.55859 L 6.17188 2.02148 C 5.625 2.60742 5.24414 2.64648 4.79492 2.19727 Z"/>
  </g>
  <text style="stroke:none;fill:black;font-family:-apple-system,&quot;SF Pro Display&quot;,&quot;SF Pro Text&quot;,Helvetica,sans-serif;font-weight:bold;" transform="matrix(1 0 0 1 1289 1953)">Exporting</text>
  <text style="stroke:none;fill:black;font-family:-apple-system,&quot;SF Pro Display&quot;,&quot;SF Pro Text&quot;,Helvetica,sans-serif;" transform="matrix(1 0 0 1 1289 1971)">Symbols should be outlined when exporting to ensure the</text>
  <text style="stroke:none;fill:black;font-family:-apple-system,&quot;SF Pro Display&quot;,&quot;SF Pro Text&quot;,Helvetica,sans-serif;" transform="matrix(1 0 0 1 1289 1989)">design is preserved when submitting to Xcode.</text>
  <text id="template-version" style="stroke:none;fill:black;font-family:-apple-system,&quot;SF Pro Display&quot;,&quot;SF Pro Text&quot;,Helvetica,sans-serif;text-anchor:end;" transform="matrix(1 0 0 1 3036 1933)">Template v.0.1</text>
  <text style="stroke:none;fill:black;font-family:-apple-system,&quot;SF Pro Display&quot;,&quot;SF Pro Text&quot;,Helvetica,sans-serif;text-anchor:end;" transform="matrix(1 0 0 1 3036 1951)">Generated from arrow.uturn.up.square</text>
  <text style="stroke:none;fill:black;font-family:-apple-system,&quot;SF Pro Display&quot;,&quot;SF Pro Text&quot;,Helvetica,sans-serif;text-anchor:end;" transform="matrix(1 0 0 1 3036 1969)">Typeset at 100 points</text>
  <text style="stroke:none;fill:black;font-family:-apple-system,&quot;SF Pro Display&quot;,&quot;SF Pro Text&quot;,Helvetica,sans-serif;" transform="matrix(1 0 0 1 263 726)">Small</text>
  <text style="stroke:none;fill:black;font-family:-apple-system,&quot;SF Pro Display&quot;,&quot;SF Pro Text&quot;,Helvetica,sans-serif;" transform="matrix(1 0 0 1 263 1156)">Medium</text>
  <text style="stroke:none;fill:black;font-family:-apple-system,&quot;SF Pro Display&quot;,&quot;SF Pro Text&quot;,Helvetica,sans-serif;" transform="matrix(1 0 0 1 263 1586)">Large</text>
 </g>
 <g id="Guides">
  <g id="H-reference" style="fill:#27AAE1;stroke:none;" transform="matrix(1 0 0 1 339 696)">
   <path d="M 54.9316 0 L 57.666 0 L 30.5664 -70.459 L 28.0762 -70.459 L 0.976562 0 L 3.66211 0 L 12.9395 -24.4629 L 45.7031 -24.4629 Z M 29.1992 -67.0898 L 29.4434 -67.0898 L 44.8242 -26.709 L 13.8184 -26.709 Z"/>
  </g>
  <line id="Baseline-S" style="fill:none;stroke:#27AAE1;opacity:1;stroke-width:0.577;" x1="263" x2="3036" y1="696" y2="696"/>
  <line id="Capline-S" style="fill:none;stroke:#27AAE1;opacity:1;stroke-width:0.577;" x1="263" x2="3036" y1="625.541" y2="625.541"/>
  <g id="H-reference" style="fill:#27AAE1;stroke:none;" transform="matrix(1 0 0 1 339 1126)">
   <path d="M 54.9316 0 L 57.666 0 L 30.5664 -70.459 L 28.0762 -70.459 L 0.976562 0 L 3.66211 0 L 12.9395 -24.4629 L 45.7031 -24.4629 Z M 29.1992 -67.0898 L 29.4434 -67.0898 L 44.8242 -26.709 L 13.8184 -26.709 Z"/>
  </g>
  <line id="Baseline-M" style="fill:none;stroke:#27AAE1;opacity:1;stroke-width:0.577;" x1="263" x2="3036" y1="1126" y2="1126"/>
  <line id="Capline-M" style="fill:none;stroke:#27AAE1;opacity:1;stroke-width:0.577;" x1="263" x2="3036" y1="1055.54" y2="1055.54"/>
  <g id="H-reference" style="fill:#27AAE1;stroke:none;" transform="matrix(1 0 0 1 339 1556)">
   <path d="M 54.9316 0 L 57.666 0 L 30.5664 -70.459 L 28.0762 -70.459 L 0.976562 0 L 3.66211 0 L 12.9395 -24.4629 L 45.7031 -24.4629 Z M 29.1992 -67.0898 L 29.4434 -67.0898 L 44.8242 -26.709 L 13.8184 -26.709 Z"/>
  </g>
  <line id="Baseline-L" style="fill:none;stroke:#27AAE1;opacity:1;stroke-width:0.577;" x1="263" x2="3036" y1="1556" y2="1556"/>
  <line id="Capline-L" style="fill:none;stroke:#27AAE1;opacity:1;stroke-width:0.577;" x1="263" x2="3036" y1="1485.54" y2="1485.54"/>
  <rect height="119.336" id="left-margin" style="fill:#00AEEF;stroke:none;opacity:0.4;" width="12.4512" x="1392.42" y="1030.79"/>
  <rect height="119.336" id="right-margin" style="fill:#00AEEF;stroke:none;opacity:0.4;" width="12.5" x="1494.77" y="1030.79"/>
 </g>
 <g id="Symbols">
  <g id="Ultralight-S" transform="matrix(1 0 0 1 516.352 696)">
   <path d="M 19.7754 -2.00195 L 66.9922 -2.00195 C 73.5352 -2.00195 76.9531 -5.56641 76.9531 -12.0117 L 76.9531 -59.2285 C 76.9531 -65.6738 73.5352 -69.2383 66.9922 -69.2383 L 19.7754 -69.2383 C 13.2324 -69.2383 9.76562 -65.7715 9.76562 -59.2285 L 9.76562 -12.0117 C 9.76562 -5.46875 13.2324 -2.00195 19.7754 -2.00195 Z M 19.873 -4.24805 C 14.6484 -4.24805 11.9629 -6.93359 11.9629 -12.1094 L 11.9629 -59.1309 C 11.9629 -64.3066 14.6484 -67.041 19.873 -67.041 L 66.8945 -67.041 C 71.875 -67.041 74.7559 -64.3066 74.7559 -59.1309 L 74.7559 -12.1094 C 74.7559 -6.93359 71.875 -4.24805 66.8945 -4.24805 Z M 37.9395 -17.5781 C 45.7031 -17.5781 50.8301 -23.1934 50.8301 -31.4453 L 50.8301 -46.7773 L 50.7324 -50.8301 L 52.2461 -48.9746 L 59.6191 -41.5039 C 59.8633 -41.2598 60.1562 -41.0645 60.5469 -41.0645 C 61.1816 -41.0645 61.6699 -41.5039 61.6699 -42.1875 C 61.6699 -42.5293 61.5234 -42.8223 61.2793 -43.0176 L 50.9277 -53.1738 C 50.6348 -53.5156 50.1953 -53.7109 49.7559 -53.7109 C 49.2676 -53.7109 48.877 -53.5156 48.5352 -53.1738 L 38.1836 -43.0176 C 37.9883 -42.8223 37.8418 -42.5293 37.8418 -42.1875 C 37.8418 -41.5039 38.2812 -41.0645 38.9648 -41.0645 C 39.3066 -41.0645 39.5996 -41.2598 39.8438 -41.5039 L 47.2656 -49.0234 L 48.7793 -50.8301 L 48.6816 -46.7773 L 48.6816 -31.4453 C 48.6816 -24.4629 44.4336 -19.7754 37.9883 -19.7754 C 31.4941 -19.7754 27.2461 -24.4629 27.2461 -31.4941 L 27.2461 -37.7441 C 27.2461 -38.4277 26.8066 -38.8672 26.1719 -38.8672 C 25.4883 -38.8672 25.0977 -38.4277 25.0977 -37.7441 L 25.0977 -31.4941 C 25.0977 -23.1934 30.1758 -17.5781 37.9395 -17.5781 Z"/>
  </g>
  <g id="Thin-S" transform="matrix(1 0 0 1 812.599 696)">
   <path d="M 20.3125 -1.46484 L 67.334 -1.46484 C 74.2676 -1.46484 77.8809 -5.12695 77.8809 -11.9629 L 77.8809 -59.082 C 77.8809 -65.918 74.2676 -69.5801 67.334 -69.5801 L 20.3125 -69.5801 C 13.3789 -69.5801 9.76562 -66.0156 9.76562 -59.082 L 9.76562 -11.9629 C 9.76562 -5.07812 13.3789 -1.46484 20.3125 -1.46484 Z M 20.4102 -4.78516 C 15.625 -4.78516 13.0859 -7.32422 13.0859 -12.1582 L 13.0859 -58.8867 C 13.0859 -63.7695 15.625 -66.2598 20.4102 -66.2598 L 67.2363 -66.2598 C 71.875 -66.2598 74.5605 -63.7695 74.5605 -58.8867 L 74.5605 -12.1582 C 74.5605 -7.32422 71.875 -4.78516 67.2363 -4.78516 Z M 38.4277 -16.9922 C 46.582 -16.9922 51.8066 -22.9004 51.8066 -31.3477 L 51.8066 -45.6055 L 51.709 -49.7559 L 53.4668 -47.5586 L 59.8633 -41.1133 C 60.2051 -40.7715 60.5957 -40.5273 61.084 -40.5273 C 61.9629 -40.5273 62.6465 -41.1621 62.6465 -42.0898 C 62.6465 -42.5781 62.4512 -42.9688 62.1582 -43.2617 L 51.8066 -53.418 C 51.416 -53.8086 50.8789 -54.1016 50.293 -54.1016 C 49.707 -54.1016 49.2188 -53.8086 48.7793 -53.418 L 38.4277 -43.2617 C 38.1348 -42.9688 37.9395 -42.5781 37.9395 -42.0898 C 37.9395 -41.1621 38.623 -40.5273 39.502 -40.5273 C 39.9902 -40.5273 40.3809 -40.7227 40.7227 -41.0645 L 47.3633 -47.8516 L 48.877 -49.7559 L 48.7793 -45.6055 L 48.7793 -31.3477 C 48.7793 -24.7559 44.8242 -20.166 38.5254 -20.166 C 32.1777 -20.166 28.0762 -24.707 28.0762 -31.3477 L 28.0762 -37.4023 C 28.0762 -38.2812 27.4902 -38.9648 26.5137 -38.9648 C 25.5371 -38.9648 24.9512 -38.2812 24.9512 -37.3535 L 24.9512 -31.3477 C 24.9512 -22.9004 30.2734 -16.9922 38.4277 -16.9922 Z"/>
  </g>
  <g id="Light-S" transform="matrix(1 0 0 1 1108.46 696)">
   <path d="M 21.3867 -0.439453 L 67.9688 -0.439453 C 75.7324 -0.439453 79.5898 -4.3457 79.5898 -11.9629 L 79.5898 -58.7891 C 79.5898 -66.4062 75.7324 -70.2637 67.9688 -70.2637 L 21.3867 -70.2637 C 13.6719 -70.2637 9.76562 -66.4062 9.76562 -58.7891 L 9.76562 -11.9629 C 9.76562 -4.29688 13.6719 -0.439453 21.3867 -0.439453 Z M 21.4844 -5.85938 C 17.4316 -5.85938 15.1855 -8.05664 15.1855 -12.2559 L 15.1855 -58.4961 C 15.1855 -62.6953 17.4316 -64.8438 21.4844 -64.8438 L 67.8711 -64.8438 C 71.875 -64.8438 74.1699 -62.6953 74.1699 -58.4961 L 74.1699 -12.2559 C 74.1699 -8.05664 71.875 -5.85938 67.8711 -5.85938 Z M 39.3066 -15.8691 C 48.2422 -15.8691 53.7598 -22.3145 53.7598 -31.1523 L 53.7598 -43.2617 L 53.6133 -47.7051 L 55.8594 -44.9219 L 60.3516 -40.2832 C 60.7422 -39.8438 61.377 -39.502 62.1094 -39.502 C 63.5254 -39.502 64.5996 -40.5762 64.5996 -41.9434 C 64.5996 -42.6758 64.3555 -43.2617 63.8184 -43.75 L 53.5156 -53.9062 C 52.9297 -54.4434 52.1973 -54.834 51.3672 -54.834 C 50.5371 -54.834 49.8535 -54.4434 49.2676 -53.9062 L 38.8672 -43.7012 C 38.3789 -43.2129 38.1348 -42.6758 38.1348 -41.9434 C 38.1348 -40.5762 39.209 -39.502 40.625 -39.502 C 41.2598 -39.502 41.9434 -39.7949 42.3828 -40.2832 L 47.5098 -45.5566 L 49.1211 -47.7051 L 48.9746 -43.2617 L 48.9746 -31.1523 C 48.9746 -25.2441 45.5566 -20.8984 39.5996 -20.8984 C 33.4473 -20.8984 29.6387 -25.1953 29.6387 -31.2012 L 29.6387 -36.6699 C 29.6387 -38.1348 28.7598 -39.209 27.1973 -39.209 C 25.6348 -39.209 24.8047 -38.1348 24.8047 -36.6211 L 24.8047 -31.2012 C 24.8047 -22.3633 30.4199 -15.8691 39.3066 -15.8691 Z"/>
  </g>
  <g id="Regular-S" transform="matrix(1 0 0 1 1404.51 696)">
   <path d="M 22.2168 0.341797 L 68.457 0.341797 C 76.8066 0.341797 80.9082 -3.71094 80.9082 -11.9141 L 80.9082 -58.5449 C 80.9082 -66.748 76.8066 -70.8008 68.457 -70.8008 L 22.2168 -70.8008 C 13.916 -70.8008 9.76562 -66.748 9.76562 -58.5449 L 9.76562 -11.9141 C 9.76562 -3.71094 13.916 0.341797 22.2168 0.341797 Z M 22.3145 -6.68945 C 18.7988 -6.68945 16.7969 -8.59375 16.7969 -12.3047 L 16.7969 -58.1543 C 16.7969 -61.8652 18.7988 -63.7695 22.3145 -63.7695 L 68.3594 -63.7695 C 71.875 -63.7695 73.877 -61.8652 73.877 -58.1543 L 73.877 -12.3047 C 73.877 -8.59375 71.875 -6.68945 68.3594 -6.68945 Z M 40.0391 -15.0391 C 49.5117 -15.0391 55.2246 -21.9238 55.2246 -31.0059 L 55.2246 -41.5039 L 55.0781 -46.1914 L 57.666 -42.8711 L 60.6934 -39.6973 C 61.1816 -39.1602 62.0117 -38.7695 62.8906 -38.7695 C 64.6973 -38.7695 66.0645 -40.1367 66.0645 -41.8457 C 66.0645 -42.7734 65.7715 -43.457 65.0879 -44.0918 L 54.7852 -54.248 C 54.1016 -54.9316 53.1738 -55.3711 52.1973 -55.3711 C 51.2207 -55.3711 50.3418 -54.9316 49.6582 -54.248 L 39.209 -44.043 C 38.5742 -43.4082 38.2812 -42.7246 38.2812 -41.7969 C 38.2812 -40.1367 39.6484 -38.7695 41.4551 -38.7695 C 42.2363 -38.7695 43.1152 -39.0625 43.6523 -39.6484 L 47.6562 -43.8477 L 49.3164 -46.1914 L 49.1211 -41.5039 L 49.1211 -31.0059 C 49.1211 -25.6836 46.1426 -21.4355 40.3809 -21.4355 C 34.4238 -21.4355 30.8594 -25.5371 30.8594 -31.0547 L 30.8594 -36.1328 C 30.8594 -37.9883 29.7363 -39.4043 27.7344 -39.4043 C 25.7324 -39.4043 24.6582 -37.9883 24.6582 -36.0352 L 24.6582 -31.0547 C 24.6582 -21.9238 30.5176 -15.0391 40.0391 -15.0391 Z"/>
  </g>
  <g id="Medium-S" transform="matrix(1 0 0 1 1700.63 696)">
   <path d="M 22.8516 0.927734 L 68.9941 0.927734 C 77.6367 0.927734 82.0801 -3.51562 82.0801 -12.0117 L 82.0801 -58.4473 C 82.0801 -66.9434 77.6367 -71.3867 68.9941 -71.3867 L 22.8516 -71.3867 C 14.2578 -71.3867 9.76562 -66.9434 9.76562 -58.4473 L 9.76562 -12.0117 C 9.76562 -3.51562 14.2578 0.927734 22.8516 0.927734 Z M 23.4375 -7.71484 C 20.2148 -7.71484 18.4082 -9.375 18.4082 -12.793 L 18.4082 -57.6172 C 18.4082 -61.0352 20.2148 -62.6953 23.4375 -62.6953 L 68.4082 -62.6953 C 71.6309 -62.6953 73.4375 -61.0352 73.4375 -57.6172 L 73.4375 -12.793 C 73.4375 -9.375 71.6309 -7.71484 68.4082 -7.71484 Z M 40.7715 -15.4785 C 50 -15.4785 55.6641 -22.0703 55.6641 -31.0547 L 55.6641 -41.5039 L 55.5176 -45.5566 L 57.7637 -42.5781 L 60.791 -39.3555 C 61.3281 -38.7207 62.1094 -38.3789 63.0371 -38.3789 C 64.7949 -38.3789 66.2109 -39.8438 66.2109 -41.5527 C 66.2109 -42.4316 65.918 -43.1641 65.2832 -43.7988 L 55.127 -53.8574 C 54.4434 -54.541 53.5645 -54.9316 52.5879 -54.9316 C 51.6113 -54.9316 50.7324 -54.541 50.0488 -53.8574 L 39.7949 -43.75 C 39.1602 -43.1641 38.8672 -42.3828 38.8672 -41.5039 C 38.8672 -39.7949 40.332 -38.3789 42.0898 -38.3789 C 42.9199 -38.3789 43.75 -38.6719 44.3359 -39.3066 L 47.9492 -43.3105 L 49.5605 -45.5566 L 49.3652 -41.5039 L 49.3652 -31.0547 C 49.3652 -26.0254 46.3867 -22.168 41.0645 -22.168 C 35.5469 -22.168 32.1777 -25.9277 32.1777 -31.0547 L 32.1777 -36.2305 C 32.1777 -38.2324 30.957 -39.7461 28.9062 -39.7461 C 26.8066 -39.7461 25.6348 -38.2324 25.6348 -36.1816 L 25.6348 -31.0547 C 25.6348 -22.1191 31.4453 -15.4785 40.7715 -15.4785 Z"/>
  </g>
  <g id="Semibold-S" transform="matrix(1 0 0 1 1996.9 696)">
   <path d="M 23.3398 1.36719 L 69.3848 1.36719 C 78.2227 1.36719 82.959 -3.32031 82.959 -12.0605 L 82.959 -58.3496 C 82.959 -67.0898 78.2227 -71.8262 69.3848 -71.8262 L 23.3398 -71.8262 C 14.5508 -71.8262 9.76562 -67.1387 9.76562 -58.3496 L 9.76562 -12.0605 C 9.76562 -3.32031 14.5508 1.36719 23.3398 1.36719 Z M 24.3164 -8.54492 C 21.2891 -8.54492 19.6777 -10.0098 19.6777 -13.2324 L 19.6777 -57.2266 C 19.6777 -60.4492 21.2891 -61.9141 24.3164 -61.9141 L 68.457 -61.9141 C 71.4355 -61.9141 73.0469 -60.4492 73.0469 -57.2266 L 73.0469 -13.2324 C 73.0469 -10.0098 71.4355 -8.54492 68.457 -8.54492 Z M 41.3086 -15.8203 C 50.3418 -15.8203 56.0059 -22.2168 56.0059 -31.1035 L 56.0059 -41.5039 L 55.8105 -45.0684 L 57.8613 -42.334 L 60.8398 -39.0625 C 61.4258 -38.4277 62.2559 -38.0859 63.0859 -38.0859 C 64.8926 -38.0859 66.3574 -39.5996 66.3574 -41.3574 C 66.3574 -42.1875 66.0645 -42.9688 65.4297 -43.6035 L 55.3711 -53.5645 C 54.6875 -54.248 53.8086 -54.5898 52.8809 -54.5898 C 51.9531 -54.5898 51.0742 -54.1992 50.3906 -53.5645 L 40.2344 -43.5547 C 39.6484 -42.9199 39.3555 -42.1387 39.3555 -41.2598 C 39.3555 -39.5996 40.8203 -38.0371 42.5781 -38.0371 C 43.4082 -38.0371 44.2383 -38.3789 44.8242 -39.0625 L 48.1934 -42.8711 L 49.7559 -45.0684 L 49.5117 -41.5039 L 49.5117 -31.1035 C 49.5117 -26.3184 46.6309 -22.7539 41.5527 -22.7539 C 36.4258 -22.7539 33.1543 -26.2207 33.1543 -31.1035 L 33.1543 -36.2793 C 33.1543 -38.4277 31.9336 -39.9902 29.834 -39.9902 C 27.6855 -39.9902 26.416 -38.4766 26.416 -36.2793 L 26.416 -31.1035 C 26.416 -22.2168 32.1777 -15.8203 41.3086 -15.8203 Z"/>
  </g>
  <g id="Bold-S" transform="matrix(1 0 0 1 2293.01 696)">
   <path d="M 23.9746 2.00195 L 69.9219 2.00195 C 79.0527 2.00195 84.1797 -3.125 84.1797 -12.1582 L 84.1797 -58.252 C 84.1797 -67.334 79.0527 -72.4121 69.9219 -72.4121 L 23.9746 -72.4121 C 14.8926 -72.4121 9.76562 -67.334 9.76562 -58.252 L 9.76562 -12.1582 C 9.76562 -3.125 14.8926 2.00195 23.9746 2.00195 Z M 25.4395 -9.57031 C 22.7051 -9.57031 21.3379 -10.8398 21.3379 -13.7207 L 21.3379 -56.6895 C 21.3379 -59.6191 22.7051 -60.8398 25.4395 -60.8398 L 68.457 -60.8398 C 71.1914 -60.8398 72.6074 -59.6191 72.6074 -56.6895 L 72.6074 -13.7207 C 72.6074 -10.8398 71.1914 -9.57031 68.457 -9.57031 Z M 42.0898 -16.2598 C 50.8301 -16.2598 56.4453 -22.4121 56.4453 -31.2012 L 56.4453 -41.5039 L 56.25 -44.4336 L 58.0078 -41.9922 L 60.9375 -38.7207 C 61.5723 -38.0371 62.3535 -37.7441 63.2324 -37.7441 C 65.0391 -37.7441 66.5527 -39.3066 66.5527 -41.0645 C 66.5527 -41.8945 66.2109 -42.6758 65.5762 -43.3105 L 55.7129 -53.125 C 55.0293 -53.8086 54.1504 -54.1504 53.2227 -54.1504 C 52.3438 -54.1504 51.4648 -53.8086 50.7812 -53.125 L 40.8691 -43.2617 C 40.2344 -42.6758 39.9414 -41.8457 39.9414 -40.9668 C 39.9414 -39.2578 41.4551 -37.6465 43.2617 -37.6465 C 44.0918 -37.6465 44.9219 -37.9883 45.5078 -38.7207 L 48.5352 -42.334 L 49.9512 -44.4336 L 49.7559 -41.5039 L 49.7559 -31.2012 C 49.7559 -26.709 46.875 -23.5352 42.1875 -23.5352 C 37.5488 -23.5352 34.5215 -26.6602 34.5215 -31.1523 L 34.5215 -36.377 C 34.5215 -38.7207 33.1543 -40.332 31.0059 -40.332 C 28.7598 -40.332 27.3926 -38.7207 27.3926 -36.377 L 27.3926 -31.1523 C 27.3926 -22.3633 33.1543 -16.2598 42.0898 -16.2598 Z"/>
  </g>
  <g id="Heavy-S" transform="matrix(1 0 0 1 2588.86 696)">
   <path d="M 24.9023 2.83203 L 70.7031 2.83203 C 80.2246 2.83203 85.8887 -2.7832 85.8887 -12.3047 L 85.8887 -58.1055 C 85.8887 -67.627 80.2246 -73.2422 70.7031 -73.2422 L 24.9023 -73.2422 C 15.3809 -73.2422 9.76562 -67.627 9.76562 -58.1055 L 9.76562 -12.3047 C 9.76562 -2.7832 15.3809 2.83203 24.9023 2.83203 Z M 27.0996 -11.084 C 24.8047 -11.084 23.6816 -12.0117 23.6816 -14.502 L 23.6816 -55.9082 C 23.6816 -58.3984 24.8047 -59.3262 27.0996 -59.3262 L 68.5547 -59.3262 C 70.8496 -59.3262 71.9238 -58.3984 71.9238 -55.9082 L 71.9238 -14.502 C 71.9238 -12.0117 70.8496 -11.084 68.5547 -11.084 Z M 43.1641 -16.8945 C 51.5137 -16.8945 57.1289 -22.6562 57.1289 -31.2988 L 57.1289 -41.4551 L 56.8848 -43.5059 L 58.2031 -41.5039 L 61.1328 -38.1836 C 61.7188 -37.4512 62.5488 -37.1582 63.3789 -37.1582 C 65.2344 -37.1582 66.7969 -38.916 66.7969 -40.625 C 66.7969 -41.4551 66.5039 -42.2363 65.8691 -42.8711 L 56.1523 -52.5879 C 55.4688 -53.2227 54.6387 -53.5156 53.8086 -53.5156 C 52.9785 -53.5156 52.0508 -53.1738 51.416 -52.5879 L 41.6992 -42.8711 C 41.1133 -42.2363 40.8203 -41.4062 40.8203 -40.5273 C 40.8203 -38.8184 42.3828 -37.0605 44.1895 -37.0605 C 45.0684 -37.0605 45.8984 -37.4023 46.4844 -38.1836 L 48.9746 -41.5039 L 50.293 -43.5059 L 50.0488 -41.4551 L 50.0488 -31.2988 C 50.0488 -27.2949 47.2656 -24.6094 43.1641 -24.6094 C 39.1602 -24.6094 36.4258 -27.2461 36.4258 -31.2012 L 36.4258 -36.5234 C 36.4258 -39.1113 34.9609 -40.7715 32.7148 -40.7715 C 30.4199 -40.7715 28.8574 -39.1602 28.8574 -36.5723 L 28.8574 -31.2012 C 28.8574 -22.6074 34.5703 -16.8945 43.1641 -16.8945 Z"/>
  </g>
  <g id="Black-S" transform="matrix(1 0 0 1 2884.82 696)">
   <path d="M 25.7324 3.61328 L 71.4355 3.61328 C 81.2988 3.61328 87.4023 -2.49023 87.4023 -12.4023 L 87.4023 -58.0078 C 87.4023 -67.9199 81.2988 -74.0234 71.4355 -74.0234 L 25.7324 -74.0234 C 15.8203 -74.0234 9.76562 -67.9199 9.76562 -58.0078 L 9.76562 -12.4023 C 9.76562 -2.49023 15.8203 3.61328 25.7324 3.61328 Z M 28.5645 -12.4512 C 26.6602 -12.4512 25.8301 -13.0371 25.8301 -15.1855 L 25.8301 -55.2246 C 25.8301 -57.373 26.6602 -57.959 28.5645 -57.959 L 68.6035 -57.959 C 70.5078 -57.959 71.3379 -57.373 71.3379 -55.2246 L 71.3379 -15.1855 C 71.3379 -13.0371 70.5078 -12.4512 68.6035 -12.4512 Z M 44.1406 -17.4316 C 52.1484 -17.4316 57.7148 -22.9004 57.7148 -31.3965 L 57.7148 -41.4551 L 57.4219 -42.6758 L 58.3984 -41.1133 L 61.2305 -37.7441 C 61.9141 -36.9629 62.7441 -36.6699 63.5254 -36.6699 C 65.3809 -36.6699 67.041 -38.5254 67.041 -40.2344 C 67.041 -41.0156 66.6992 -41.8945 66.0645 -42.5293 L 56.5918 -52.0508 C 55.9082 -52.7344 55.127 -52.9785 54.2969 -52.9785 C 53.5156 -52.9785 52.5391 -52.6367 51.9531 -52.0508 L 42.4805 -42.5293 C 41.8457 -41.8945 41.5527 -40.9668 41.5527 -40.1367 C 41.5527 -38.4277 43.2617 -36.5723 45.0195 -36.5723 C 45.9473 -36.5723 46.7285 -36.9141 47.3145 -37.7441 L 49.4141 -40.8203 L 50.6348 -42.6758 L 50.3418 -41.4551 L 50.3418 -31.3965 C 50.3418 -27.7832 47.6074 -25.5859 44.043 -25.5859 C 40.625 -25.5859 38.1836 -27.7832 38.1836 -31.25 L 38.1836 -36.6699 C 38.1836 -39.4531 36.5234 -41.2109 34.2773 -41.2109 C 31.8359 -41.2109 30.1758 -39.502 30.1758 -36.7676 L 30.1758 -31.25 C 30.1758 -22.8027 35.8398 -17.4316 44.1406 -17.4316 Z"/>
  </g>
  <g id="Ultralight-M" transform="matrix(1 0 0 1 504.535 1126)">
   <path d="M 25 6.93359 L 85.3516 6.93359 C 93.5547 6.93359 97.9004 2.49023 97.9004 -5.61523 L 97.9004 -65.918 C 97.9004 -74.0234 93.5547 -78.4668 85.3516 -78.4668 L 25 -78.4668 C 16.7969 -78.4668 12.4512 -74.1211 12.4512 -65.918 L 12.4512 -5.61523 C 12.4512 2.58789 16.7969 6.93359 25 6.93359 Z M 25.1465 4.54102 C 18.3594 4.54102 14.8438 1.02539 14.8438 -5.71289 L 14.8438 -65.8203 C 14.8438 -72.5586 18.3594 -76.0742 25.1465 -76.0742 L 85.2051 -76.0742 C 91.748 -76.0742 95.5078 -72.5586 95.5078 -65.8203 L 95.5078 -5.71289 C 95.5078 1.02539 91.748 4.54102 85.2051 4.54102 Z M 48.2422 -12.9395 C 58.0078 -12.9395 64.4531 -19.9707 64.4531 -30.4688 L 64.4531 -50.4395 L 64.3555 -55.5664 L 66.2109 -53.2715 L 76.0254 -43.4082 C 76.3184 -43.1152 76.6113 -42.8711 77.0508 -42.8711 C 77.7832 -42.8711 78.3203 -43.3105 78.3203 -44.1406 C 78.3203 -44.5312 78.125 -44.8242 77.8809 -45.0684 L 64.6973 -58.0566 C 64.3066 -58.3984 63.8184 -58.6426 63.2812 -58.6426 C 62.7441 -58.6426 62.207 -58.3984 61.8652 -58.0566 L 48.6328 -45.0684 C 48.4375 -44.8242 48.2422 -44.5312 48.2422 -44.1406 C 48.2422 -43.3105 48.7793 -42.8711 49.5117 -42.8711 C 49.9023 -42.8711 50.2441 -43.1152 50.5371 -43.4082 L 60.3027 -53.2715 L 62.207 -55.5664 L 62.0605 -50.4395 L 62.0605 -30.4688 C 62.0605 -21.3867 56.543 -15.332 48.2422 -15.332 C 39.9414 -15.332 34.4727 -21.3867 34.4727 -30.4688 L 34.4727 -38.5742 C 34.4727 -39.3066 33.9844 -39.7949 33.252 -39.7949 C 32.5195 -39.7949 32.0312 -39.3066 32.0312 -38.623 L 32.0312 -30.4688 C 32.0312 -19.9707 38.5254 -12.9395 48.2422 -12.9395 Z"/>
  </g>
  <g id="Thin-M" transform="matrix(1 0 0 1 800.734 1126)">
   <path d="M 25.6348 7.56836 L 85.7422 7.56836 C 94.3848 7.56836 98.9258 2.92969 98.9258 -5.56641 L 98.9258 -65.7715 C 98.9258 -74.2676 94.3848 -78.9062 85.7422 -78.9062 L 25.6348 -78.9062 C 16.9922 -78.9062 12.4512 -74.3652 12.4512 -65.7715 L 12.4512 -5.56641 C 12.4512 3.02734 16.9922 7.56836 25.6348 7.56836 Z M 25.7324 3.90625 C 19.4336 3.90625 16.1133 0.634766 16.1133 -5.76172 L 16.1133 -65.5762 C 16.1133 -71.9727 19.4336 -75.2441 25.7324 -75.2441 L 85.5957 -75.2441 C 91.748 -75.2441 95.2637 -71.9727 95.2637 -65.5762 L 95.2637 -5.76172 C 95.2637 0.634766 91.748 3.90625 85.5957 3.90625 Z M 48.7793 -12.3047 C 58.9844 -12.3047 65.5762 -19.6289 65.5762 -30.3711 L 65.5762 -49.1211 L 65.4785 -54.3457 L 67.5781 -51.709 L 76.2695 -42.9199 C 76.6602 -42.5781 77.0996 -42.2852 77.6367 -42.2852 C 78.6621 -42.2852 79.4434 -42.9688 79.4434 -44.043 C 79.4434 -44.5801 79.1992 -45.0195 78.8574 -45.3613 L 65.6738 -58.3008 C 65.1855 -58.7891 64.5996 -59.082 63.916 -59.082 C 63.2324 -59.082 62.5977 -58.7891 62.1582 -58.3008 L 48.9258 -45.3613 C 48.584 -45.0195 48.3398 -44.5801 48.3398 -44.043 C 48.3398 -42.9688 49.1211 -42.2852 50.1465 -42.2852 C 50.6836 -42.2852 51.123 -42.5293 51.5137 -42.9199 L 60.4004 -51.9531 L 62.3535 -54.3457 L 62.207 -49.1211 L 62.207 -30.3711 C 62.207 -21.6797 56.9824 -15.7715 48.877 -15.7715 C 40.7227 -15.7715 35.3516 -21.6797 35.3516 -30.3711 L 35.3516 -38.1836 C 35.3516 -39.209 34.7168 -39.9414 33.6426 -39.9414 C 32.5684 -39.9414 31.9336 -39.209 31.9336 -38.1836 L 31.9336 -30.3711 C 31.9336 -19.6289 38.5742 -12.3047 48.7793 -12.3047 Z"/>
  </g>
  <g id="Light-M" transform="matrix(1 0 0 1 1096.47 1126)">
   <path d="M 26.8555 8.74023 L 86.4746 8.74023 C 96.0449 8.74023 100.879 3.85742 100.879 -5.51758 L 100.879 -65.4297 C 100.879 -74.8047 96.0449 -79.6875 86.4746 -79.6875 L 26.8555 -79.6875 C 17.334 -79.6875 12.4512 -74.8535 12.4512 -65.4297 L 12.4512 -5.51758 C 12.4512 3.90625 17.334 8.74023 26.8555 8.74023 Z M 27.002 2.68555 C 21.4844 2.68555 18.5059 -0.195312 18.5059 -5.85938 L 18.5059 -65.0879 C 18.5059 -70.7031 21.4844 -73.6328 27.002 -73.6328 L 86.377 -73.6328 C 91.748 -73.6328 94.8242 -70.7031 94.8242 -65.0879 L 94.8242 -5.85938 C 94.8242 -0.195312 91.748 2.68555 86.377 2.68555 Z M 49.8047 -11.0352 C 60.8887 -11.0352 67.7734 -18.9941 67.7734 -30.127 L 67.7734 -46.4844 L 67.627 -52.0508 L 70.2637 -48.6816 L 76.8066 -42.041 C 77.2949 -41.5039 78.0273 -41.1133 78.8574 -41.1133 C 80.4199 -41.1133 81.6406 -42.2852 81.6406 -43.8965 C 81.6406 -44.7266 81.3477 -45.3613 80.7617 -45.8984 L 67.5781 -58.8379 C 66.9434 -59.5215 66.0645 -59.9121 65.1367 -59.9121 C 64.1602 -59.9121 63.3789 -59.5215 62.6953 -58.8379 L 49.4141 -45.8496 C 48.877 -45.3125 48.584 -44.6777 48.584 -43.8477 C 48.584 -42.2852 49.8047 -41.1133 51.3672 -41.1133 C 52.1484 -41.1133 52.8809 -41.4551 53.418 -41.9922 L 60.5957 -49.3652 L 62.5977 -52.0508 L 62.4512 -46.4844 L 62.4512 -30.127 C 62.4512 -22.3145 57.8613 -16.6016 50.0977 -16.6016 C 42.1875 -16.6016 37.1582 -22.2168 37.1582 -30.127 L 37.1582 -37.3535 C 37.1582 -39.0137 36.1816 -40.2344 34.4238 -40.2344 C 32.7148 -40.2344 31.6895 -39.0137 31.6895 -37.3047 L 31.6895 -30.127 C 31.6895 -19.043 38.7207 -11.0352 49.8047 -11.0352 Z"/>
  </g>
  <g id="Regular-M" transform="matrix(1 0 0 1 1392.42 1126)">
   <path d="M 27.7832 9.61914 L 87.0605 9.61914 C 97.2656 9.61914 102.344 4.54102 102.344 -5.51758 L 102.344 -65.1367 C 102.344 -75.1953 97.2656 -80.2734 87.0605 -80.2734 L 27.7832 -80.2734 C 17.627 -80.2734 12.4512 -75.2441 12.4512 -65.1367 L 12.4512 -5.51758 C 12.4512 4.58984 17.627 9.61914 27.7832 9.61914 Z M 27.9297 1.75781 C 23.0469 1.75781 20.3125 -0.830078 20.3125 -5.9082 L 20.3125 -64.7461 C 20.3125 -69.7754 23.0469 -72.4121 27.9297 -72.4121 L 86.9141 -72.4121 C 91.748 -72.4121 94.4824 -69.7754 94.4824 -64.7461 L 94.4824 -5.9082 C 94.4824 -0.830078 91.748 1.75781 86.9141 1.75781 Z M 50.5859 -10.0586 C 62.3535 -10.0586 69.4336 -18.5059 69.4336 -29.9316 L 69.4336 -44.4824 L 69.2871 -50.293 L 72.3145 -46.4355 L 77.1973 -41.3574 C 77.832 -40.7227 78.7109 -40.2832 79.7363 -40.2832 C 81.7383 -40.2832 83.3008 -41.7969 83.3008 -43.75 C 83.3008 -44.7754 82.959 -45.6055 82.2266 -46.2891 L 69.043 -59.2285 C 68.2129 -60.0586 67.1875 -60.5469 66.0645 -60.5469 C 64.8926 -60.5469 63.916 -60.0586 63.0859 -59.2285 L 49.8047 -46.2402 C 49.1211 -45.5566 48.7793 -44.7266 48.7793 -43.7012 C 48.7793 -41.7969 50.293 -40.2832 52.3438 -40.2832 C 53.2715 -40.2832 54.1992 -40.625 54.834 -41.3086 L 60.7422 -47.4609 L 62.8418 -50.293 L 62.5977 -44.4824 L 62.5977 -29.9316 C 62.5977 -22.7539 58.4961 -17.2363 50.9766 -17.2363 C 43.2617 -17.2363 38.5254 -22.6074 38.5254 -29.9805 L 38.5254 -36.7676 C 38.5254 -38.8184 37.3047 -40.4297 35.0586 -40.4297 C 32.7637 -40.4297 31.543 -38.8184 31.543 -36.6699 L 31.543 -29.9805 C 31.543 -18.5547 38.8672 -10.0586 50.5859 -10.0586 Z"/>
  </g>
  <g id="Medium-M" transform="matrix(1 0 0 1 1688.45 1126)">
   <path d="M 28.5645 10.3516 L 87.6465 10.3516 C 98.2422 10.3516 103.711 4.88281 103.711 -5.56641 L 103.711 -64.9902 C 103.711 -75.4395 98.2422 -80.957 87.6465 -80.957 L 28.5645 -80.957 C 17.9688 -80.957 12.4512 -75.4883 12.4512 -64.9902 L 12.4512 -5.56641 C 12.4512 4.88281 17.9688 10.3516 28.5645 10.3516 Z M 29.1504 0.585938 C 24.6582 0.585938 22.2168 -1.75781 22.2168 -6.44531 L 22.2168 -64.1602 C 22.2168 -68.8477 24.6582 -71.1914 29.1504 -71.1914 L 87.0117 -71.1914 C 91.5039 -71.1914 93.9941 -68.8477 93.9941 -64.1602 L 93.9941 -6.44531 C 93.9941 -1.75781 91.5039 0.585938 87.0117 0.585938 Z M 51.4648 -10.4004 C 62.9883 -10.4004 70.1172 -18.6523 70.1172 -29.9805 L 70.1172 -44.2383 L 69.9219 -49.4141 L 72.7051 -45.8008 L 77.3438 -40.918 C 77.9785 -40.2344 78.9062 -39.7949 79.9316 -39.7949 C 82.0312 -39.7949 83.6426 -41.4551 83.6426 -43.457 C 83.6426 -44.4824 83.3008 -45.3125 82.5684 -46.0449 L 69.5312 -58.8867 C 68.75 -59.7168 67.6758 -60.2051 66.5527 -60.2051 C 65.4297 -60.2051 64.4043 -59.7168 63.5742 -58.8867 L 50.4395 -45.9961 C 49.7559 -45.3125 49.4141 -44.4336 49.4141 -43.4082 C 49.4141 -41.4062 51.0254 -39.7461 53.0762 -39.7461 C 54.0527 -39.7461 55.0293 -40.1367 55.7129 -40.8691 L 61.084 -46.6309 L 63.0859 -49.4141 L 62.8418 -44.2383 L 62.8418 -29.9805 C 62.8418 -23.1934 58.8379 -18.0664 51.7578 -18.0664 C 44.5312 -18.0664 40.0391 -23.0469 40.0391 -29.9805 L 40.0391 -36.7676 C 40.0391 -39.0625 38.6719 -40.8203 36.3281 -40.8203 C 33.9355 -40.8203 32.5684 -39.0625 32.5684 -36.7188 L 32.5684 -29.9805 C 32.5684 -18.6523 39.8438 -10.4004 51.4648 -10.4004 Z"/>
  </g>
  <g id="Semibold-M" transform="matrix(1 0 0 1 1984.65 1126)">
   <path d="M 29.1016 10.8887 L 88.1348 10.8887 C 98.9746 10.8887 104.785 5.12695 104.785 -5.66406 L 104.785 -64.8926 C 104.785 -75.6836 98.9746 -81.4453 88.1348 -81.4453 L 29.1016 -81.4453 C 18.3105 -81.4453 12.4512 -75.6836 12.4512 -64.8926 L 12.4512 -5.66406 C 12.4512 5.12695 18.3105 10.8887 29.1016 10.8887 Z M 30.127 -0.292969 C 25.9277 -0.292969 23.6328 -2.44141 23.6328 -6.88477 L 23.6328 -63.7207 C 23.6328 -68.1152 25.9277 -70.2637 30.127 -70.2637 L 87.1094 -70.2637 C 91.3086 -70.2637 93.6035 -68.1152 93.6035 -63.7207 L 93.6035 -6.88477 C 93.6035 -2.44141 91.3086 -0.292969 87.1094 -0.292969 Z M 52.0996 -10.6445 C 63.4766 -10.6445 70.6055 -18.75 70.6055 -30.0293 L 70.6055 -44.043 L 70.4102 -48.7793 L 72.998 -45.3613 L 77.4902 -40.5762 C 78.125 -39.8438 79.1016 -39.4043 80.127 -39.4043 C 82.2754 -39.4043 83.9355 -41.1621 83.9355 -43.2129 C 83.9355 -44.2383 83.5938 -45.1172 82.8125 -45.8496 L 69.9219 -58.5938 C 69.0918 -59.4238 68.0664 -59.9121 66.9434 -59.9121 C 65.8203 -59.9121 64.7461 -59.4238 63.9648 -58.5938 L 50.9766 -45.8008 C 50.2441 -45.1172 49.9023 -44.1895 49.9023 -43.1152 C 49.9023 -41.1133 51.5625 -39.3555 53.7109 -39.3555 C 54.6875 -39.3555 55.6641 -39.7461 56.3477 -40.5273 L 61.3281 -46.0449 L 63.2812 -48.7793 L 63.0371 -44.043 L 63.0371 -30.0293 C 63.0371 -23.5352 59.1309 -18.7012 52.3438 -18.7012 C 45.5078 -18.7012 41.2109 -23.3887 41.2109 -30.0293 L 41.2109 -36.8164 C 41.2109 -39.2578 39.7461 -41.0645 37.3047 -41.0645 C 34.7656 -41.0645 33.3008 -39.3066 33.3008 -36.7676 L 33.3008 -30.0293 C 33.3008 -18.75 40.625 -10.6445 52.0996 -10.6445 Z"/>
  </g>
  <g id="Bold-M" transform="matrix(1 0 0 1 2280.65 1126)">
   <path d="M 29.8828 11.5723 L 88.7207 11.5723 C 100 11.5723 106.152 5.41992 106.152 -5.76172 L 106.152 -64.7949 C 106.152 -75.9277 100 -82.1289 88.7207 -82.1289 L 29.8828 -82.1289 C 18.6523 -82.1289 12.4512 -75.9277 12.4512 -64.7949 L 12.4512 -5.76172 C 12.4512 5.41992 18.6523 11.5723 29.8828 11.5723 Z M 31.3965 -1.46484 C 27.5879 -1.46484 25.5371 -3.32031 25.5371 -7.42188 L 25.5371 -63.0859 C 25.5371 -67.1875 27.5879 -69.043 31.3965 -69.043 L 87.207 -69.043 C 91.0156 -69.043 93.1152 -67.1875 93.1152 -63.0859 L 93.1152 -7.42188 C 93.1152 -3.32031 91.0156 -1.46484 87.207 -1.46484 Z M 52.9785 -10.9863 C 64.1113 -10.9863 71.2891 -18.8477 71.2891 -30.0781 L 71.2891 -43.7988 L 71.0449 -47.9004 L 73.3887 -44.7266 L 77.6367 -40.1367 C 78.3203 -39.3066 79.2969 -38.916 80.3711 -38.916 C 82.5195 -38.916 84.3262 -40.8203 84.3262 -42.8711 C 84.3262 -43.9453 83.9355 -44.873 83.2031 -45.6055 L 70.459 -58.252 C 69.5801 -59.082 68.5547 -59.5215 67.4316 -59.5215 C 66.3086 -59.5215 65.2344 -59.082 64.4043 -58.252 L 51.6113 -45.6055 C 50.8789 -44.8242 50.4883 -43.8965 50.4883 -42.8223 C 50.4883 -40.7715 52.2949 -38.8672 54.4922 -38.8672 C 55.5176 -38.8672 56.4941 -39.2578 57.1777 -40.0879 L 61.6699 -45.2637 L 63.5742 -47.9004 L 63.2812 -43.7988 L 63.2812 -30.0781 C 63.2812 -23.9746 59.4727 -19.5801 53.125 -19.5801 C 46.7773 -19.5801 42.7246 -23.877 42.7246 -30.0293 L 42.7246 -36.8164 C 42.7246 -39.502 41.1133 -41.4062 38.5742 -41.4062 C 35.9375 -41.4062 34.3262 -39.5508 34.3262 -36.8164 L 34.3262 -30.0293 C 34.3262 -18.8477 41.6016 -10.9863 52.9785 -10.9863 Z"/>
  </g>
  <g id="Heavy-M" transform="matrix(1 0 0 1 2576.36 1126)">
   <path d="M 31.0059 12.6465 L 89.6484 12.6465 C 101.416 12.6465 108.154 5.85938 108.154 -5.85938 L 108.154 -64.5996 C 108.154 -76.3184 101.416 -83.1055 89.6484 -83.1055 L 31.0059 -83.1055 C 19.2383 -83.1055 12.4512 -76.3184 12.4512 -64.5996 L 12.4512 -5.85938 C 12.4512 5.85938 19.2383 12.6465 31.0059 12.6465 Z M 33.252 -3.22266 C 29.9805 -3.22266 28.2715 -4.63867 28.2715 -8.20312 L 28.2715 -62.2559 C 28.2715 -65.8203 29.9805 -67.2363 33.252 -67.2363 L 87.3535 -67.2363 C 90.6738 -67.2363 92.334 -65.8203 92.334 -62.2559 L 92.334 -8.20312 C 92.334 -4.63867 90.6738 -3.22266 87.3535 -3.22266 Z M 54.1992 -11.4746 C 65.0879 -11.4746 72.2168 -19.043 72.2168 -30.1758 L 72.2168 -43.457 L 71.9727 -46.6309 L 73.9258 -43.8477 L 77.832 -39.4531 C 78.6133 -38.623 79.6387 -38.2324 80.6641 -38.2324 C 82.959 -38.2324 84.9121 -40.2832 84.9121 -42.4316 C 84.9121 -43.457 84.4727 -44.4824 83.6914 -45.2637 L 71.1914 -57.7148 C 70.3125 -58.5938 69.2871 -58.9844 68.1641 -58.9844 C 67.0898 -58.9844 65.918 -58.5449 65.1367 -57.7148 L 52.5879 -45.2637 C 51.8066 -44.4824 51.416 -43.4082 51.416 -42.334 C 51.416 -40.1855 53.3691 -38.1348 55.6152 -38.1348 C 56.6895 -38.1348 57.7148 -38.5254 58.4473 -39.4531 L 62.1582 -44.0918 L 63.9648 -46.6309 L 63.6719 -43.457 L 63.6719 -30.1758 C 63.6719 -24.6094 59.9609 -20.8008 54.2969 -20.8008 C 48.6328 -20.8008 44.9219 -24.5605 44.9219 -30.0781 L 44.9219 -36.8652 C 44.9219 -39.8926 43.1641 -41.9434 40.4297 -41.9434 C 37.5977 -41.9434 35.791 -39.9414 35.791 -36.9141 L 35.791 -30.0781 C 35.791 -18.9941 43.0664 -11.4746 54.1992 -11.4746 Z"/>
  </g>
  <g id="Black-M" transform="matrix(1 0 0 1 2872.19 1126)">
   <path d="M 31.9824 13.5742 L 90.4297 13.5742 C 102.686 13.5742 109.961 6.29883 109.961 -5.95703 L 109.961 -64.4043 C 109.961 -76.6602 102.686 -83.9355 90.4297 -83.9355 L 31.9824 -83.9355 C 19.7266 -83.9355 12.4512 -76.6602 12.4512 -64.4043 L 12.4512 -5.95703 C 12.4512 6.29883 19.7266 13.5742 31.9824 13.5742 Z M 34.9121 -4.73633 C 32.0801 -4.73633 30.7617 -5.81055 30.7617 -8.88672 L 30.7617 -61.4746 C 30.7617 -64.5508 32.0801 -65.6738 34.9121 -65.6738 L 87.5 -65.6738 C 90.332 -65.6738 91.6992 -64.5508 91.6992 -61.4746 L 91.6992 -8.88672 C 91.6992 -5.81055 90.332 -4.73633 87.5 -4.73633 Z M 55.3223 -11.8652 C 65.918 -11.8652 73.0957 -19.1895 73.0957 -30.2246 L 73.0957 -43.1152 L 72.8027 -45.5078 L 74.4141 -43.0664 L 78.0273 -38.916 C 78.8574 -37.9395 79.9316 -37.5977 80.957 -37.5977 C 83.3496 -37.5977 85.4004 -39.8438 85.4004 -41.9922 C 85.4004 -43.0664 84.9609 -44.1406 84.1797 -44.9219 L 71.8262 -57.2754 C 70.9473 -58.1543 69.9219 -58.4961 68.7988 -58.4961 C 67.7246 -58.4961 66.5527 -58.0566 65.7227 -57.2754 L 53.418 -44.9219 C 52.6367 -44.1406 52.2461 -43.0176 52.2461 -41.8945 C 52.2461 -39.6973 54.2969 -37.4512 56.5918 -37.4512 C 57.7148 -37.4512 58.7891 -37.8906 59.5215 -38.916 L 62.5977 -43.0664 L 64.3066 -45.5078 L 63.9648 -43.1152 L 63.9648 -30.2246 C 63.9648 -25.1953 60.4492 -21.875 55.3223 -21.875 C 50.293 -21.875 46.9238 -25.1465 46.9238 -30.0781 L 46.9238 -36.9141 C 46.9238 -40.2344 44.9707 -42.4316 42.0898 -42.4316 C 39.1113 -42.4316 37.1094 -40.2832 37.1094 -36.9629 L 37.1094 -30.0781 C 37.1094 -19.1406 44.3848 -11.8652 55.3223 -11.8652 Z"/>
  </g>
  <g id="Ultralight-L" transform="matrix(1 0 0 1 488.739 1556)">
   <path d="M 31.9824 18.9453 L 109.961 18.9453 C 120.361 18.9453 125.879 13.2324 125.879 2.97852 L 125.879 -74.9512 C 125.879 -85.1562 120.361 -90.8691 109.961 -90.8691 L 31.9824 -90.8691 C 21.6309 -90.8691 16.0645 -85.3027 16.0645 -74.9512 L 16.0645 2.97852 C 16.0645 13.3789 21.6309 18.9453 31.9824 18.9453 Z M 32.1289 16.3574 C 23.2422 16.3574 18.6523 11.7676 18.6523 2.88086 L 18.6523 -74.8047 C 18.6523 -83.6914 23.2422 -88.3301 32.1289 -88.3301 L 109.814 -88.3301 C 118.359 -88.3301 123.34 -83.6914 123.34 -74.8047 L 123.34 2.88086 C 123.34 11.7676 118.359 16.3574 109.814 16.3574 Z M 62.0605 -6.73828 C 74.4141 -6.73828 82.7148 -15.6738 82.7148 -29.1504 L 82.7148 -55.4688 L 82.5684 -61.9629 L 84.8145 -59.1797 L 97.9492 -45.9961 C 98.3398 -45.6055 98.6816 -45.3125 99.1699 -45.3125 C 99.9512 -45.3125 100.586 -45.8496 100.586 -46.7285 C 100.586 -47.2168 100.342 -47.5586 100.098 -47.8516 L 83.0078 -64.5508 C 82.6172 -64.9902 82.0312 -65.2832 81.3477 -65.2832 C 80.7129 -65.2832 80.127 -64.9902 79.6875 -64.5508 L 62.6465 -47.8516 C 62.4023 -47.5586 62.1582 -47.2168 62.1582 -46.7285 C 62.1582 -45.8496 62.793 -45.3125 63.5742 -45.3125 C 64.1113 -45.3125 64.4043 -45.6055 64.7949 -45.9961 L 77.7832 -59.0332 L 80.1758 -61.9629 L 80.0293 -55.4688 L 80.0293 -29.1504 C 80.0293 -17.2363 72.8027 -9.375 62.0117 -9.375 C 51.2207 -9.375 44.043 -17.2852 44.043 -29.1504 L 44.043 -39.7461 C 44.043 -40.5762 43.5059 -41.0645 42.7246 -41.0645 C 41.9434 -41.0645 41.4062 -40.5762 41.4062 -39.7461 L 41.4062 -29.1504 C 41.4062 -15.6738 49.6582 -6.73828 62.0605 -6.73828 Z"/>
  </g>
  <g id="Thin-L" transform="matrix(1 0 0 1 784.889 1556)">
   <path d="M 32.7148 19.6289 L 110.4 19.6289 C 121.289 19.6289 127.002 13.7207 127.002 3.02734 L 127.002 -74.7559 C 127.002 -85.4492 121.289 -91.3086 110.4 -91.3086 L 32.7148 -91.3086 C 21.8262 -91.3086 16.0645 -85.5957 16.0645 -74.7559 L 16.0645 3.02734 C 16.0645 13.8672 21.8262 19.6289 32.7148 19.6289 Z M 32.8613 15.6738 C 24.4141 15.6738 20.0195 11.2793 20.0195 2.83203 L 20.0195 -74.5117 C 20.0195 -83.0078 24.4141 -87.4023 32.8613 -87.4023 L 110.254 -87.4023 C 118.359 -87.4023 123.096 -83.0078 123.096 -74.5117 L 123.096 2.83203 C 123.096 11.2793 118.359 15.6738 110.254 15.6738 Z M 62.6465 -6.00586 C 75.5371 -6.00586 83.9844 -15.2832 83.9844 -29.0039 L 83.9844 -53.9551 L 83.7891 -60.6445 L 86.377 -57.4707 L 98.291 -45.459 C 98.7305 -45.0195 99.1699 -44.6777 99.8535 -44.6777 C 100.977 -44.6777 101.807 -45.459 101.807 -46.6309 C 101.807 -47.2656 101.562 -47.7539 101.172 -48.1445 L 84.1309 -64.8438 C 83.5938 -65.3809 82.8613 -65.7715 82.0801 -65.7715 C 81.25 -65.7715 80.5664 -65.3809 80.0293 -64.8438 L 62.9395 -48.1445 C 62.5977 -47.7539 62.3047 -47.2656 62.3047 -46.6309 C 62.3047 -45.459 63.1836 -44.6777 64.3066 -44.6777 C 64.9414 -44.6777 65.4297 -45.0195 65.8691 -45.459 L 77.8809 -57.5684 L 80.3223 -60.6445 L 80.1758 -53.9551 L 80.1758 -29.0039 C 80.1758 -17.5781 73.291 -9.86328 62.6953 -9.86328 C 52.0508 -9.86328 45.0684 -17.5781 45.0684 -29.0039 L 45.0684 -39.3066 C 45.0684 -40.4297 44.3359 -41.2109 43.1641 -41.2109 C 41.9922 -41.2109 41.2598 -40.4297 41.2598 -39.2578 L 41.2598 -29.0039 C 41.2598 -15.2832 49.7559 -6.00586 62.6465 -6.00586 Z"/>
  </g>
  <g id="Light-L" transform="matrix(1 0 0 1 1080.5 1556)">
   <path d="M 34.082 20.9473 L 111.23 20.9473 C 123.096 20.9473 129.199 14.7461 129.199 3.07617 L 129.199 -74.3652 C 129.199 -86.0352 123.096 -92.1875 111.23 -92.1875 L 34.082 -92.1875 C 22.2168 -92.1875 16.0645 -86.1328 16.0645 -74.3652 L 16.0645 3.07617 C 16.0645 14.8438 22.2168 20.9473 34.082 20.9473 Z M 34.2285 14.3066 C 26.709 14.3066 22.7051 10.3516 22.7051 2.73438 L 22.7051 -73.9746 C 22.7051 -81.6406 26.709 -85.5957 34.2285 -85.5957 L 111.084 -85.5957 C 118.359 -85.5957 122.607 -81.6406 122.607 -73.9746 L 122.607 2.73438 C 122.607 10.3516 118.359 14.3066 111.084 14.3066 Z M 63.7695 -4.58984 C 77.6367 -4.58984 86.4258 -14.5996 86.4258 -28.7598 L 86.4258 -51.0254 L 86.2305 -58.0566 L 89.3555 -54.1016 L 98.877 -44.4336 C 99.4629 -43.8477 100.195 -43.4082 101.172 -43.4082 C 102.93 -43.4082 104.248 -44.6777 104.248 -46.4844 C 104.248 -47.4121 103.906 -48.0957 103.271 -48.7305 L 86.2793 -65.4297 C 85.498 -66.2109 84.5215 -66.6992 83.4473 -66.6992 C 82.3242 -66.6992 81.3965 -66.2109 80.6152 -65.4297 L 63.5254 -48.6816 C 62.9395 -48.0957 62.5977 -47.3633 62.5977 -46.4355 C 62.5977 -44.6777 63.916 -43.4082 65.6738 -43.4082 C 66.5527 -43.4082 67.3828 -43.7988 67.9688 -44.4336 L 78.0762 -54.7363 L 80.6641 -58.0566 L 80.4199 -51.0254 L 80.4199 -28.7598 C 80.4199 -18.2617 74.2188 -10.791 64.0137 -10.791 C 53.7109 -10.791 47.0703 -18.1641 47.0703 -28.7598 L 47.0703 -38.3789 C 47.0703 -40.1855 45.9961 -41.5527 44.043 -41.5527 C 42.1387 -41.5527 41.0156 -40.1855 41.0156 -38.3301 L 41.0156 -28.7598 C 41.0156 -14.5996 49.9023 -4.58984 63.7695 -4.58984 Z"/>
  </g>
  <g id="Regular-L" transform="matrix(1 0 0 1 1376.36 1556)">
   <path d="M 35.1074 21.9238 L 111.865 21.9238 C 124.512 21.9238 130.859 15.5273 130.859 3.125 L 130.859 -74.0234 C 130.859 -86.4746 124.512 -92.8711 111.865 -92.8711 L 35.1074 -92.8711 C 22.5098 -92.8711 16.0645 -86.5234 16.0645 -74.0234 L 16.0645 3.125 C 16.0645 15.625 22.5098 21.9238 35.1074 21.9238 Z M 35.2539 13.2812 C 28.4668 13.2812 24.7559 9.66797 24.7559 2.63672 L 24.7559 -73.584 C 24.7559 -80.6152 28.4668 -84.2285 35.2539 -84.2285 L 111.67 -84.2285 C 118.359 -84.2285 122.217 -80.6152 122.217 -73.584 L 122.217 2.63672 C 122.217 9.66797 118.359 13.2812 111.67 13.2812 Z M 64.6484 -3.51562 C 79.248 -3.51562 88.2324 -14.0625 88.2324 -28.5156 L 88.2324 -48.7793 L 88.0371 -56.1035 L 91.6504 -51.5137 L 99.3164 -43.7012 C 100 -42.9688 100.977 -42.4316 102.148 -42.4316 C 104.395 -42.4316 106.104 -44.0918 106.104 -46.3379 C 106.104 -47.5098 105.713 -48.3887 104.883 -49.1699 L 87.8906 -65.8691 C 86.9629 -66.7969 85.791 -67.3828 84.4727 -67.3828 C 83.1543 -67.3828 82.0312 -66.7969 81.1035 -65.8691 L 63.9648 -49.1211 C 63.1836 -48.3398 62.793 -47.4609 62.793 -46.2891 C 62.793 -44.0918 64.502 -42.4316 66.748 -42.4316 C 67.8223 -42.4316 68.8477 -42.8711 69.5801 -43.6523 L 78.2227 -52.5879 L 80.9082 -56.1035 L 80.6641 -48.7793 L 80.6641 -28.5156 C 80.6641 -18.75 74.9512 -11.4746 65.0391 -11.4746 C 54.9316 -11.4746 48.584 -18.6035 48.584 -28.5645 L 48.584 -37.6953 C 48.584 -39.9902 47.2168 -41.7969 44.7266 -41.7969 C 42.2363 -41.7969 40.8203 -39.9902 40.8203 -37.5977 L 40.8203 -28.5645 C 40.8203 -14.1113 50.0488 -3.51562 64.6484 -3.51562 Z"/>
  </g>
  <g id="Medium-L" transform="matrix(1 0 0 1 1672.31 1556)">
   <path d="M 35.9863 22.7539 L 112.549 22.7539 C 125.635 22.7539 132.422 15.9668 132.422 3.02734 L 132.422 -73.877 C 132.422 -86.8164 125.635 -93.6035 112.549 -93.6035 L 35.9863 -93.6035 C 22.9004 -93.6035 16.0645 -86.8652 16.0645 -73.877 L 16.0645 3.02734 C 16.0645 16.0156 22.9004 22.7539 35.9863 22.7539 Z M 36.6211 12.0117 C 30.2734 12.0117 26.8066 8.69141 26.8066 2.14844 L 26.8066 -72.998 C 26.8066 -79.541 30.2734 -82.8613 36.6211 -82.8613 L 111.914 -82.8613 C 118.164 -82.8613 121.68 -79.541 121.68 -72.998 L 121.68 2.14844 C 121.68 8.69141 118.164 12.0117 111.914 12.0117 Z M 65.5762 -3.66211 C 80.127 -3.66211 89.209 -14.0625 89.209 -28.5645 L 89.209 -48.1934 L 88.9648 -54.9316 L 92.3828 -50.5371 L 99.5117 -43.1641 C 100.293 -42.334 101.318 -41.7969 102.539 -41.7969 C 104.932 -41.7969 106.787 -43.7012 106.787 -46.0449 C 106.787 -47.2168 106.396 -48.1934 105.518 -49.0234 L 88.6719 -65.625 C 87.6953 -66.6016 86.4746 -67.1875 85.1074 -67.1875 C 83.7891 -67.1875 82.5684 -66.6016 81.5918 -65.625 L 64.5996 -48.9746 C 63.8184 -48.1445 63.3789 -47.168 63.3789 -45.9473 C 63.3789 -43.6523 65.2832 -41.7969 67.627 -41.7969 C 68.75 -41.7969 69.873 -42.2363 70.6543 -43.1152 L 78.5645 -51.4648 L 81.2012 -54.9316 L 80.9082 -48.1934 L 80.9082 -28.5645 C 80.9082 -19.2383 75.3906 -12.4023 65.918 -12.4023 C 56.2988 -12.4023 50.2441 -19.0918 50.2441 -28.5645 L 50.2441 -37.5977 C 50.2441 -40.1855 48.7305 -42.1387 45.9961 -42.1387 C 43.2617 -42.1387 41.6992 -40.1855 41.6992 -37.5 L 41.6992 -28.5645 C 41.6992 -14.1113 50.9766 -3.66211 65.5762 -3.66211 Z"/>
  </g>
  <g id="Semibold-L" transform="matrix(1 0 0 1 1968.41 1556)">
   <path d="M 36.6699 23.3887 L 113.037 23.3887 C 126.514 23.3887 133.594 16.3086 133.594 2.97852 L 133.594 -73.7305 C 133.594 -87.0605 126.514 -94.1406 113.037 -94.1406 L 36.6699 -94.1406 C 23.2422 -94.1406 16.0645 -87.1094 16.0645 -73.7305 L 16.0645 2.97852 C 16.0645 16.3086 23.2422 23.3887 36.6699 23.3887 Z M 37.6465 11.0352 C 31.6406 11.0352 28.418 7.95898 28.418 1.75781 L 28.418 -72.5098 C 28.418 -78.7598 31.6406 -81.7871 37.6465 -81.7871 L 112.061 -81.7871 C 117.969 -81.7871 121.289 -78.7598 121.289 -72.5098 L 121.289 1.75781 C 121.289 7.95898 117.969 11.0352 112.061 11.0352 Z M 66.3086 -3.71094 C 80.8105 -3.71094 89.8926 -14.0625 89.8926 -28.5645 L 89.8926 -47.7051 L 89.6484 -54.1016 L 92.9688 -49.7559 L 99.707 -42.7246 C 100.488 -41.8457 101.611 -41.3574 102.832 -41.3574 C 105.322 -41.3574 107.324 -43.3594 107.324 -45.8008 C 107.324 -47.0215 106.885 -48.0469 106.006 -48.9258 L 89.2578 -65.4785 C 88.2324 -66.4551 86.9629 -67.041 85.5957 -67.041 C 84.2285 -67.041 83.0078 -66.4551 82.0312 -65.4785 L 65.1367 -48.877 C 64.2578 -47.998 63.8672 -46.9727 63.8672 -45.7031 C 63.8672 -43.3105 65.8691 -41.3086 68.3105 -41.3086 C 69.5312 -41.3086 70.6543 -41.748 71.4844 -42.6758 L 78.8574 -50.5859 L 81.3965 -54.1016 L 81.1035 -47.7051 L 81.1035 -28.5645 C 81.1035 -19.6289 75.7324 -13.0859 66.6016 -13.0859 C 57.373 -13.0859 51.5137 -19.4824 51.5137 -28.5645 L 51.5137 -37.5488 C 51.5137 -40.332 49.8535 -42.4316 46.9727 -42.4316 C 44.0918 -42.4316 42.3828 -40.3809 42.3828 -37.4512 L 42.3828 -28.5645 C 42.3828 -14.1113 51.709 -3.71094 66.3086 -3.71094 Z"/>
  </g>
  <g id="Bold-L" transform="matrix(1 0 0 1 2264.34 1556)">
   <path d="M 37.5488 24.2188 L 113.721 24.2188 C 127.686 24.2188 135.205 16.6992 135.205 2.92969 L 135.205 -73.584 C 135.205 -87.3535 127.686 -94.873 113.721 -94.873 L 37.5488 -94.873 C 23.6328 -94.873 16.0645 -87.4023 16.0645 -73.584 L 16.0645 2.92969 C 16.0645 16.748 23.6328 24.2188 37.5488 24.2188 Z M 38.9648 9.76562 C 33.4473 9.76562 30.5176 7.03125 30.5176 1.26953 L 30.5176 -71.9238 C 30.5176 -77.6855 33.4473 -80.4199 38.9648 -80.4199 L 112.256 -80.4199 C 117.725 -80.4199 120.752 -77.6855 120.752 -71.9238 L 120.752 1.26953 C 120.752 7.03125 117.725 9.76562 112.256 9.76562 Z M 67.2363 -3.80859 C 81.6895 -3.80859 90.8691 -14.1113 90.8691 -28.5645 L 90.8691 -47.0703 L 90.5762 -52.9297 L 93.75 -48.7305 L 99.9023 -42.1875 C 100.732 -41.2598 101.953 -40.7227 103.223 -40.7227 C 105.859 -40.7227 108.008 -42.9199 108.008 -45.459 C 108.008 -46.7773 107.568 -47.8516 106.592 -48.7793 L 89.9902 -65.1855 C 88.9648 -66.2598 87.6465 -66.7969 86.2305 -66.7969 C 84.8633 -66.7969 83.5449 -66.2109 82.5195 -65.1855 L 65.8203 -48.7305 C 64.8926 -47.8516 64.502 -46.6797 64.502 -45.3613 C 64.502 -42.8711 66.6016 -40.6738 69.2383 -40.6738 C 70.459 -40.6738 71.6797 -41.1621 72.5586 -42.1387 L 79.1992 -49.4629 L 81.6895 -52.9297 L 81.3477 -47.0703 L 81.3477 -28.5645 C 81.3477 -20.1172 76.1719 -13.9648 67.5293 -13.9648 C 58.7891 -13.9648 53.2227 -20.0195 53.2227 -28.5645 L 53.2227 -37.4023 C 53.2227 -40.5273 51.3672 -42.8223 48.291 -42.8223 C 45.166 -42.8223 43.2617 -40.5762 43.2617 -37.4023 L 43.2617 -28.5645 C 43.2617 -14.1113 52.6367 -3.80859 67.2363 -3.80859 Z"/>
  </g>
  <g id="Heavy-L" transform="matrix(1 0 0 1 2559.91 1556)">
   <path d="M 38.8184 25.4395 L 114.697 25.4395 C 129.346 25.4395 137.451 17.334 137.451 2.7832 L 137.451 -73.291 C 137.451 -87.8418 129.346 -95.9473 114.697 -95.9473 L 38.8184 -95.9473 C 24.2188 -95.9473 16.0645 -87.8418 16.0645 -73.291 L 16.0645 2.7832 C 16.0645 17.334 24.2188 25.4395 38.8184 25.4395 Z M 40.9668 7.91016 C 36.1328 7.91016 33.5938 5.61523 33.5938 0.488281 L 33.5938 -70.9961 C 33.5938 -76.123 36.1328 -78.418 40.9668 -78.418 L 112.598 -78.418 C 117.383 -78.418 119.971 -76.123 119.971 -70.9961 L 119.971 0.488281 C 119.971 5.61523 117.383 7.91016 112.598 7.91016 Z M 68.6035 -4.00391 C 83.0078 -4.00391 92.2363 -14.1113 92.2363 -28.5645 L 92.2363 -46.1426 L 91.8945 -51.2695 L 94.873 -47.2168 L 100.244 -41.4062 C 101.172 -40.332 102.441 -39.7949 103.76 -39.7949 C 106.641 -39.7949 109.033 -42.2852 109.033 -45.0195 C 109.033 -46.3867 108.496 -47.6074 107.52 -48.584 L 91.1133 -64.8438 C 89.9902 -65.9668 88.6719 -66.5039 87.207 -66.5039 C 85.7422 -66.5039 84.3262 -65.918 83.3008 -64.8438 L 66.7969 -48.5352 C 65.8203 -47.5586 65.3809 -46.2891 65.3809 -44.9219 C 65.3809 -42.2363 67.7246 -39.7461 70.5566 -39.7461 C 71.875 -39.7461 73.1934 -40.2344 74.1211 -41.3574 L 79.6875 -47.8516 L 82.0801 -51.2695 L 81.7383 -46.1426 L 81.7383 -28.5645 C 81.7383 -20.8496 76.8555 -15.2832 68.8477 -15.2832 C 60.791 -15.2832 55.6152 -20.752 55.6152 -28.5156 L 55.6152 -37.2559 C 55.6152 -40.8203 53.5156 -43.3594 50.1953 -43.3594 C 46.7285 -43.3594 44.5801 -40.8691 44.5801 -37.2559 L 44.5801 -28.5156 C 44.5801 -14.1113 54.0039 -4.00391 68.6035 -4.00391 Z"/>
  </g>
  <g id="Black-L" transform="matrix(1 0 0 1 2855.62 1556)">
   <path d="M 39.9902 26.5137 L 115.576 26.5137 C 130.859 26.5137 139.502 17.8711 139.502 2.68555 L 139.502 -73.0957 C 139.502 -88.2812 130.859 -96.875 115.576 -96.875 L 39.9902 -96.875 C 24.7559 -96.875 16.0645 -88.2812 16.0645 -73.0957 L 16.0645 2.68555 C 16.0645 17.8711 24.7559 26.5137 39.9902 26.5137 Z M 42.7246 6.29883 C 38.4766 6.29883 36.3281 4.39453 36.3281 -0.146484 L 36.3281 -70.2148 C 36.3281 -74.7559 38.4766 -76.6602 42.7246 -76.6602 L 112.842 -76.6602 C 117.09 -76.6602 119.238 -74.7559 119.238 -70.2148 L 119.238 -0.146484 C 119.238 4.39453 117.09 6.29883 112.842 6.29883 Z M 69.8242 -4.15039 C 84.1797 -4.15039 93.457 -14.1602 93.457 -28.6133 L 93.457 -45.3125 L 93.1152 -49.7559 L 95.8496 -45.8984 L 100.488 -40.6738 C 101.514 -39.5508 102.881 -39.0137 104.297 -39.0137 C 107.324 -39.0137 109.912 -41.748 109.912 -44.6289 C 109.912 -45.9961 109.375 -47.3633 108.301 -48.3887 L 92.0898 -64.5508 C 90.9668 -65.6738 89.5508 -66.2109 88.0371 -66.2109 C 86.5723 -66.2109 85.0586 -65.625 83.9844 -64.5508 L 67.6758 -48.3887 C 66.6504 -47.3145 66.1621 -45.9473 66.1621 -44.4824 C 66.1621 -41.6504 68.75 -38.8672 71.7285 -38.8672 C 73.1445 -38.8672 74.5605 -39.4531 75.4883 -40.6738 L 80.127 -46.3867 L 82.4707 -49.7559 L 82.0801 -45.3125 L 82.0801 -28.6133 C 82.0801 -21.5332 77.4414 -16.4551 70.0195 -16.4551 C 62.6465 -16.4551 57.8125 -21.3867 57.8125 -28.5156 L 57.8125 -37.1582 C 57.8125 -41.1133 55.4688 -43.7988 51.8555 -43.7988 C 48.0957 -43.7988 45.752 -41.1621 45.752 -37.1582 L 45.752 -28.5156 C 45.752 -14.1113 55.2246 -4.15039 69.8242 -4.15039 Z"/>
  </g>
 </g>
</svg>
