<?xml version="1.0" encoding="UTF-8"?>
<!--Generator: Apple Native CoreSVG 123-->
<!DOCTYPE svg
PUBLIC "-//W3C//DTD SVG 1.1//EN"
       "http://www.w3.org/Graphics/SVG/1.1/DTD/svg11.dtd">
<svg version="1.1" xmlns="http://www.w3.org/2000/svg" xmlns:xlink="http://www.w3.org/1999/xlink" width="3300" height="2200">
 <!--glyph: "uni100087.medium", point size: 100.000000, font version: "Version 15.0d4e20", template writer version: "2"-->
 <g id="Notes">
  <rect height="2200" id="artboard" style="fill:white;opacity:1" width="3300" x="0" y="0"/>
  <line id="" style="fill:none;stroke:black;opacity:1;stroke-width:0.5;" x1="263" x2="3036" y1="292" y2="292"/>
  <text style="stroke:none;fill:black;font-family:-apple-system,&quot;SF Pro Display&quot;,&quot;SF Pro Text&quot;,Helvetica,sans-serif;font-weight:bold;" transform="matrix(1 0 0 1 263 322)">Weight/Scale Variations</text>
  <text style="stroke:none;fill:black;font-family:-apple-system,&quot;SF Pro Display&quot;,&quot;SF Pro Text&quot;,Helvetica,sans-serif;text-anchor:middle;" transform="matrix(1 0 0 1 559.711 322)">Ultralight</text>
  <text style="stroke:none;fill:black;font-family:-apple-system,&quot;SF Pro Display&quot;,&quot;SF Pro Text&quot;,Helvetica,sans-serif;text-anchor:middle;" transform="matrix(1 0 0 1 856.422 322)">Thin</text>
  <text style="stroke:none;fill:black;font-family:-apple-system,&quot;SF Pro Display&quot;,&quot;SF Pro Text&quot;,Helvetica,sans-serif;text-anchor:middle;" transform="matrix(1 0 0 1 1153.13 322)">Light</text>
  <text style="stroke:none;fill:black;font-family:-apple-system,&quot;SF Pro Display&quot;,&quot;SF Pro Text&quot;,Helvetica,sans-serif;text-anchor:middle;" transform="matrix(1 0 0 1 1449.84 322)">Regular</text>
  <text style="stroke:none;fill:black;font-family:-apple-system,&quot;SF Pro Display&quot;,&quot;SF Pro Text&quot;,Helvetica,sans-serif;text-anchor:middle;" transform="matrix(1 0 0 1 1746.56 322)">Medium</text>
  <text style="stroke:none;fill:black;font-family:-apple-system,&quot;SF Pro Display&quot;,&quot;SF Pro Text&quot;,Helvetica,sans-serif;text-anchor:middle;" transform="matrix(1 0 0 1 2043.27 322)">Semibold</text>
  <text style="stroke:none;fill:black;font-family:-apple-system,&quot;SF Pro Display&quot;,&quot;SF Pro Text&quot;,Helvetica,sans-serif;text-anchor:middle;" transform="matrix(1 0 0 1 2339.98 322)">Bold</text>
  <text style="stroke:none;fill:black;font-family:-apple-system,&quot;SF Pro Display&quot;,&quot;SF Pro Text&quot;,Helvetica,sans-serif;text-anchor:middle;" transform="matrix(1 0 0 1 2636.69 322)">Heavy</text>
  <text style="stroke:none;fill:black;font-family:-apple-system,&quot;SF Pro Display&quot;,&quot;SF Pro Text&quot;,Helvetica,sans-serif;text-anchor:middle;" transform="matrix(1 0 0 1 2933.4 322)">Black</text>
  <line id="" style="fill:none;stroke:black;opacity:1;stroke-width:0.5;" x1="263" x2="3036" y1="1903" y2="1903"/>
  <g id="" transform="matrix(1 0 0 1 263 1933)">
   <path d="M 9.24805 0.830078 C 13.5547 0.830078 17.1387 -2.74414 17.1387 -7.05078 C 17.1387 -11.3574 13.5449 -14.9316 9.23828 -14.9316 C 4.94141 -14.9316 1.36719 -11.3574 1.36719 -7.05078 C 1.36719 -2.74414 4.95117 0.830078 9.24805 0.830078 Z M 9.24805 -0.654297 C 5.70312 -0.654297 2.87109 -3.49609 2.87109 -7.05078 C 2.87109 -10.6055 5.69336 -13.4473 9.23828 -13.4473 C 12.793 -13.4473 15.6348 -10.6055 15.6445 -7.05078 C 15.6543 -3.49609 12.8027 -0.654297 9.24805 -0.654297 Z M 9.22852 -3.42773 C 9.69727 -3.42773 9.9707 -3.74023 9.9707 -4.25781 L 9.9707 -6.31836 L 12.1973 -6.31836 C 12.6953 -6.31836 13.0371 -6.57227 13.0371 -7.04102 C 13.0371 -7.51953 12.7148 -7.7832 12.1973 -7.7832 L 9.9707 -7.7832 L 9.9707 -10.0098 C 9.9707 -10.5273 9.69727 -10.8496 9.22852 -10.8496 C 8.75977 -10.8496 8.50586 -10.5078 8.50586 -10.0098 L 8.50586 -7.7832 L 6.29883 -7.7832 C 5.78125 -7.7832 5.44922 -7.51953 5.44922 -7.04102 C 5.44922 -6.57227 5.80078 -6.31836 6.29883 -6.31836 L 8.50586 -6.31836 L 8.50586 -4.25781 C 8.50586 -3.75977 8.75977 -3.42773 9.22852 -3.42773 Z"/>
  </g>
  <g id="" transform="matrix(1 0 0 1 281.506 1933)">
   <path d="M 11.709 2.91016 C 17.1484 2.91016 21.6699 -1.60156 21.6699 -7.05078 C 21.6699 -12.4902 17.1387 -17.0117 11.6992 -17.0117 C 6.25 -17.0117 1.74805 -12.4902 1.74805 -7.05078 C 1.74805 -1.60156 6.25977 2.91016 11.709 2.91016 Z M 11.709 1.25 C 7.09961 1.25 3.41797 -2.44141 3.41797 -7.05078 C 3.41797 -11.6504 7.08984 -15.3516 11.6992 -15.3516 C 16.2988 -15.3516 20 -11.6504 20.0098 -7.05078 C 20.0195 -2.44141 16.3086 1.25 11.709 1.25 Z M 11.6797 -2.41211 C 12.207 -2.41211 12.5195 -2.77344 12.5195 -3.33984 L 12.5195 -6.23047 L 15.5762 -6.23047 C 16.123 -6.23047 16.5039 -6.51367 16.5039 -7.03125 C 16.5039 -7.55859 16.1426 -7.86133 15.5762 -7.86133 L 12.5195 -7.86133 L 12.5195 -10.9277 C 12.5195 -11.5039 12.207 -11.8555 11.6797 -11.8555 C 11.1621 -11.8555 10.8789 -11.4844 10.8789 -10.9277 L 10.8789 -7.86133 L 7.83203 -7.86133 C 7.25586 -7.86133 6.89453 -7.55859 6.89453 -7.03125 C 6.89453 -6.51367 7.28516 -6.23047 7.83203 -6.23047 L 10.8789 -6.23047 L 10.8789 -3.33984 C 10.8789 -2.79297 11.1621 -2.41211 11.6797 -2.41211 Z"/>
  </g>
  <g id="" transform="matrix(1 0 0 1 304.914 1933)">
   <path d="M 14.9707 5.67383 C 21.9336 5.67383 27.6855 -0.078125 27.6855 -7.04102 C 27.6855 -14.0039 21.9238 -19.7559 14.9609 -19.7559 C 7.99805 -19.7559 2.25586 -14.0039 2.25586 -7.04102 C 2.25586 -0.078125 8.00781 5.67383 14.9707 5.67383 Z M 14.9707 3.85742 C 8.92578 3.85742 4.08203 -1.00586 4.08203 -7.04102 C 4.08203 -13.0762 8.91602 -17.9395 14.9609 -17.9395 C 20.9961 -17.9395 25.8594 -13.0762 25.8691 -7.04102 C 25.8789 -1.00586 21.0059 3.85742 14.9707 3.85742 Z M 14.9414 -1.06445 C 15.5176 -1.06445 15.8594 -1.45508 15.8594 -2.06055 L 15.8594 -6.13281 L 20.0977 -6.13281 C 20.6934 -6.13281 21.1133 -6.46484 21.1133 -7.02148 C 21.1133 -7.59766 20.7227 -7.93945 20.0977 -7.93945 L 15.8594 -7.93945 L 15.8594 -12.1875 C 15.8594 -12.8027 15.5176 -13.1934 14.9414 -13.1934 C 14.3848 -13.1934 14.0625 -12.7832 14.0625 -12.1875 L 14.0625 -7.93945 L 9.82422 -7.93945 C 9.20898 -7.93945 8.80859 -7.59766 8.80859 -7.02148 C 8.80859 -6.46484 9.23828 -6.13281 9.82422 -6.13281 L 14.0625 -6.13281 L 14.0625 -2.06055 C 14.0625 -1.47461 14.3848 -1.06445 14.9414 -1.06445 Z"/>
  </g>
  <text style="stroke:none;fill:black;font-family:-apple-system,&quot;SF Pro Display&quot;,&quot;SF Pro Text&quot;,Helvetica,sans-serif;font-weight:bold;" transform="matrix(1 0 0 1 263 1953)">Design Variations</text>
  <text style="stroke:none;fill:black;font-family:-apple-system,&quot;SF Pro Display&quot;,&quot;SF Pro Text&quot;,Helvetica,sans-serif;" transform="matrix(1 0 0 1 263 1971)">Symbols are supported in up to nine weights and three scales.</text>
  <text style="stroke:none;fill:black;font-family:-apple-system,&quot;SF Pro Display&quot;,&quot;SF Pro Text&quot;,Helvetica,sans-serif;" transform="matrix(1 0 0 1 263 1989)">For optimal layout with text and other symbols, vertically align</text>
  <text style="stroke:none;fill:black;font-family:-apple-system,&quot;SF Pro Display&quot;,&quot;SF Pro Text&quot;,Helvetica,sans-serif;" transform="matrix(1 0 0 1 263 2007)">symbols with the adjacent text.</text>
  <rect height="14" id="" style="fill:#00AEEF;stroke:none;opacity:0.4;" width="3" x="776" y="1919"/>
  <g id="" transform="matrix(1 0 0 1 779 1933)">
   <path d="M 10.5273 0 L 12.373 0 L 7.17773 -14.0918 L 5.43945 -14.0918 L 0.244141 0 L 2.08984 0 L 3.50586 -4.0332 L 9.11133 -4.0332 Z M 6.2793 -11.9531 L 6.33789 -11.9531 L 8.59375 -5.52734 L 4.02344 -5.52734 Z"/>
  </g>
  <rect height="14" id="" style="fill:#00AEEF;stroke:none;opacity:0.4;" width="3" x="791.617" y="1919"/>
  <text style="stroke:none;fill:black;font-family:-apple-system,&quot;SF Pro Display&quot;,&quot;SF Pro Text&quot;,Helvetica,sans-serif;font-weight:bold;" transform="matrix(1 0 0 1 776 1953)">Side Bearings</text>
  <text style="stroke:none;fill:black;font-family:-apple-system,&quot;SF Pro Display&quot;,&quot;SF Pro Text&quot;,Helvetica,sans-serif;" transform="matrix(1 0 0 1 776 1971)">Horizontal padding on the left and right side of each symbol</text>
  <text style="stroke:none;fill:black;font-family:-apple-system,&quot;SF Pro Display&quot;,&quot;SF Pro Text&quot;,Helvetica,sans-serif;" transform="matrix(1 0 0 1 776 1989)">can be adjusted by modifying the width of the blue rectangles.</text>
  <text style="stroke:none;fill:black;font-family:-apple-system,&quot;SF Pro Display&quot;,&quot;SF Pro Text&quot;,Helvetica,sans-serif;" transform="matrix(1 0 0 1 776 2007)">Modifications are automatically applied proportionally to all</text>
  <text style="stroke:none;fill:black;font-family:-apple-system,&quot;SF Pro Display&quot;,&quot;SF Pro Text&quot;,Helvetica,sans-serif;" transform="matrix(1 0 0 1 776 2025)">scales and weights.</text>
  <g id="" transform="matrix(1 0 0 1 1289 1933)">
   <path d="M 2.96875 2.35352 L 3.80859 3.19336 C 4.84375 4.22852 6.12305 4.15039 7.19727 2.97852 L 16.1621 -6.82617 C 16.5527 -6.74805 16.9629 -6.8457 17.4902 -7.02148 C 18.1738 -7.25586 18.2715 -7.25586 18.3887 -7.13867 C 18.5352 -7.01172 18.4863 -6.89453 18.2422 -6.25 C 17.8809 -5.33203 17.8125 -4.79492 18.5547 -4.02344 L 19.4238 -3.13477 C 20.2734 -2.24609 21.3281 -2.26562 22.2168 -3.14453 L 25.0586 -5.97656 C 25.9473 -6.86523 25.957 -7.92969 25.0781 -8.7793 L 24.1797 -9.64844 C 23.4082 -10.4004 22.8711 -10.3516 21.9629 -9.98047 C 21.3184 -9.72656 21.2012 -9.6875 21.0645 -9.81445 C 20.9375 -9.93164 20.9473 -10.0391 21.1816 -10.7129 C 21.5332 -11.6895 21.5723 -12.2852 20.752 -13.0957 L 19.3359 -14.5117 C 15.1953 -18.6133 11.2305 -18.7402 7.65625 -15.4395 C 7.08008 -14.9023 6.99219 -14.1504 7.53906 -13.6133 L 7.79297 -13.3594 C 8.22266 -12.9297 8.86719 -12.8418 9.41406 -13.1152 C 11.0645 -13.9453 12.2559 -14.0234 13.457 -12.9785 L 13.0273 -11.416 C 12.8516 -10.8008 12.793 -10.3418 12.9199 -9.93164 L 3.18359 -1.04492 C 2.02148 0.0292969 1.93359 1.32812 2.96875 2.35352 Z M 8.96484 -14.4922 C 8.89648 -14.5703 8.86719 -14.6582 8.99414 -14.7559 C 11.709 -17.2852 15.0391 -16.8457 18.3496 -13.5254 L 19.6973 -12.168 C 20.0879 -11.7773 20.0977 -11.582 19.8828 -10.8691 C 19.6582 -10.127 19.502 -9.53125 20.1465 -8.88672 C 20.8105 -8.22266 21.2891 -8.41797 22.207 -8.63281 C 22.9004 -8.79883 23.0664 -8.79883 23.4473 -8.41797 L 24.0918 -7.77344 C 24.4043 -7.48047 24.4141 -7.32422 24.0723 -6.97266 L 21.2207 -4.13086 C 20.8887 -3.79883 20.7227 -3.79883 20.4297 -4.10156 L 19.7852 -4.75586 C 19.4141 -5.13672 19.4141 -5.30273 19.5801 -6.01562 C 19.7852 -6.88477 19.9805 -7.38281 19.3262 -8.04688 C 18.6719 -8.7207 18.0762 -8.57422 17.3438 -8.33008 C 16.5625 -8.06641 16.3281 -8.06641 15.8984 -8.49609 L 14.6094 -9.78516 C 14.1699 -10.2246 14.1309 -10.4395 14.2676 -10.9082 L 15.0293 -13.3984 C 13.3887 -15.2832 11.4941 -15.5566 9.20898 -14.4434 C 9.11133 -14.3945 9.04297 -14.4141 8.96484 -14.4922 Z M 3.96484 1.36719 C 3.52539 0.927734 3.54492 0.537109 4.14062 -0.00976562 L 13.7402 -8.81836 L 15 -7.55859 L 6.17188 2.02148 C 5.625 2.60742 5.24414 2.64648 4.79492 2.19727 Z"/>
  </g>
  <text style="stroke:none;fill:black;font-family:-apple-system,&quot;SF Pro Display&quot;,&quot;SF Pro Text&quot;,Helvetica,sans-serif;font-weight:bold;" transform="matrix(1 0 0 1 1289 1953)">Exporting</text>
  <text style="stroke:none;fill:black;font-family:-apple-system,&quot;SF Pro Display&quot;,&quot;SF Pro Text&quot;,Helvetica,sans-serif;" transform="matrix(1 0 0 1 1289 1971)">Symbols should be outlined when exporting to ensure the</text>
  <text style="stroke:none;fill:black;font-family:-apple-system,&quot;SF Pro Display&quot;,&quot;SF Pro Text&quot;,Helvetica,sans-serif;" transform="matrix(1 0 0 1 1289 1989)">design is preserved when submitting to Xcode.</text>
  <text id="template-version" style="stroke:none;fill:black;font-family:-apple-system,&quot;SF Pro Display&quot;,&quot;SF Pro Text&quot;,Helvetica,sans-serif;text-anchor:end;" transform="matrix(1 0 0 1 3036 1933)">Template v.0.1</text>
  <text style="stroke:none;fill:black;font-family:-apple-system,&quot;SF Pro Display&quot;,&quot;SF Pro Text&quot;,Helvetica,sans-serif;text-anchor:end;" transform="matrix(1 0 0 1 3036 1951)">Generated from arrow.down.left.circle.fill</text>
  <text style="stroke:none;fill:black;font-family:-apple-system,&quot;SF Pro Display&quot;,&quot;SF Pro Text&quot;,Helvetica,sans-serif;text-anchor:end;" transform="matrix(1 0 0 1 3036 1969)">Typeset at 100 points</text>
  <text style="stroke:none;fill:black;font-family:-apple-system,&quot;SF Pro Display&quot;,&quot;SF Pro Text&quot;,Helvetica,sans-serif;" transform="matrix(1 0 0 1 263 726)">Small</text>
  <text style="stroke:none;fill:black;font-family:-apple-system,&quot;SF Pro Display&quot;,&quot;SF Pro Text&quot;,Helvetica,sans-serif;" transform="matrix(1 0 0 1 263 1156)">Medium</text>
  <text style="stroke:none;fill:black;font-family:-apple-system,&quot;SF Pro Display&quot;,&quot;SF Pro Text&quot;,Helvetica,sans-serif;" transform="matrix(1 0 0 1 263 1586)">Large</text>
 </g>
 <g id="Guides">
  <g id="H-reference" style="fill:#27AAE1;stroke:none;" transform="matrix(1 0 0 1 339 696)">
   <path d="M 54.9316 0 L 57.666 0 L 30.5664 -70.459 L 28.0762 -70.459 L 0.976562 0 L 3.66211 0 L 12.9395 -24.4629 L 45.7031 -24.4629 Z M 29.1992 -67.0898 L 29.4434 -67.0898 L 44.8242 -26.709 L 13.8184 -26.709 Z"/>
  </g>
  <line id="Baseline-S" style="fill:none;stroke:#27AAE1;opacity:1;stroke-width:0.577;" x1="263" x2="3036" y1="696" y2="696"/>
  <line id="Capline-S" style="fill:none;stroke:#27AAE1;opacity:1;stroke-width:0.577;" x1="263" x2="3036" y1="625.541" y2="625.541"/>
  <g id="H-reference" style="fill:#27AAE1;stroke:none;" transform="matrix(1 0 0 1 339 1126)">
   <path d="M 54.9316 0 L 57.666 0 L 30.5664 -70.459 L 28.0762 -70.459 L 0.976562 0 L 3.66211 0 L 12.9395 -24.4629 L 45.7031 -24.4629 Z M 29.1992 -67.0898 L 29.4434 -67.0898 L 44.8242 -26.709 L 13.8184 -26.709 Z"/>
  </g>
  <line id="Baseline-M" style="fill:none;stroke:#27AAE1;opacity:1;stroke-width:0.577;" x1="263" x2="3036" y1="1126" y2="1126"/>
  <line id="Capline-M" style="fill:none;stroke:#27AAE1;opacity:1;stroke-width:0.577;" x1="263" x2="3036" y1="1055.54" y2="1055.54"/>
  <g id="H-reference" style="fill:#27AAE1;stroke:none;" transform="matrix(1 0 0 1 339 1556)">
   <path d="M 54.9316 0 L 57.666 0 L 30.5664 -70.459 L 28.0762 -70.459 L 0.976562 0 L 3.66211 0 L 12.9395 -24.4629 L 45.7031 -24.4629 Z M 29.1992 -67.0898 L 29.4434 -67.0898 L 44.8242 -26.709 L 13.8184 -26.709 Z"/>
  </g>
  <line id="Baseline-L" style="fill:none;stroke:#27AAE1;opacity:1;stroke-width:0.577;" x1="263" x2="3036" y1="1556" y2="1556"/>
  <line id="Capline-L" style="fill:none;stroke:#27AAE1;opacity:1;stroke-width:0.577;" x1="263" x2="3036" y1="1485.54" y2="1485.54"/>
  <rect height="119.336" id="left-margin" style="fill:#00AEEF;stroke:none;opacity:0.4;" width="8.74023" x="1391.32" y="1030.79"/>
  <rect height="119.336" id="right-margin" style="fill:#00AEEF;stroke:none;opacity:0.4;" width="8.69141" x="1499.67" y="1030.79"/>
 </g>
 <g id="Symbols">
  <g id="Ultralight-S" transform="matrix(1 0 0 1 515.644 696)">
   <path d="M 44.043 2.05078 C 64.502 2.05078 81.2988 -14.6973 81.2988 -35.1562 C 81.2988 -55.6152 64.502 -72.3633 44.043 -72.3633 C 23.584 -72.3633 6.83594 -55.6152 6.83594 -35.1562 C 6.83594 -14.6973 23.584 2.05078 44.043 2.05078 Z M 28.5156 -45.0684 C 29.248 -45.0684 29.7363 -44.5801 29.7363 -43.75 L 29.7363 -31.0547 L 29.6875 -23.4375 L 33.7402 -27.5879 L 56.6406 -50.5371 C 56.9336 -50.7812 57.1777 -50.9766 57.666 -50.9766 C 58.3984 -50.9766 58.8379 -50.4883 58.8379 -49.7559 C 58.8379 -49.3652 58.6914 -49.0723 58.4473 -48.7793 L 35.4004 -25.8301 L 31.25 -21.7773 L 51.6602 -21.7773 C 52.4414 -21.7773 52.9785 -21.2891 52.9785 -20.6055 C 52.9785 -19.9219 52.4414 -19.4824 51.6602 -19.4824 L 28.5645 -19.4824 C 27.8809 -19.4824 27.3926 -19.9707 27.3926 -20.7031 L 27.3926 -43.75 C 27.3926 -44.5801 27.8809 -45.0684 28.5156 -45.0684 Z"/>
  </g>
  <g id="Thin-S" transform="matrix(1 0 0 1 811.867 696)">
   <path d="M 44.5801 2.53906 C 65.2832 2.53906 82.2754 -14.4531 82.2754 -35.2051 C 82.2754 -55.9082 65.2344 -72.9004 44.5312 -72.9004 C 23.8281 -72.9004 6.83594 -55.9082 6.83594 -35.2051 C 6.83594 -14.4531 23.877 2.53906 44.5801 2.53906 Z M 29.2969 -45.2148 C 30.3223 -45.2148 31.0059 -44.5312 31.0059 -43.3594 L 31.0059 -32.1777 L 30.8105 -24.8535 L 35.4004 -29.6387 L 56.25 -50.5371 C 56.6406 -50.9277 57.0312 -51.123 57.666 -51.123 C 58.6914 -51.123 59.375 -50.4395 59.375 -49.3652 C 59.375 -48.8281 59.1797 -48.4375 58.7891 -48.0469 L 37.8418 -27.1484 L 33.0566 -22.5098 L 38.9648 -22.7051 L 51.6113 -22.7051 C 52.7832 -22.7051 53.5156 -22.0215 53.5156 -20.9961 C 53.5156 -20.0195 52.7832 -19.3359 51.6602 -19.3359 L 29.4434 -19.3359 C 28.3203 -19.3359 27.5879 -19.9707 27.5879 -21.1914 L 27.5879 -43.3594 C 27.5879 -44.4824 28.2715 -45.2148 29.2969 -45.2148 Z"/>
  </g>
  <g id="Light-S" transform="matrix(1 0 0 1 1107.6 696)">
   <path d="M 45.5078 3.4668 C 66.6992 3.4668 84.2285 -14.0625 84.2285 -35.2051 C 84.2285 -56.3965 66.6504 -73.9258 45.5078 -73.9258 C 24.3164 -73.9258 6.83594 -56.3965 6.83594 -35.2051 C 6.83594 -14.0625 24.3652 3.4668 45.5078 3.4668 Z M 30.7129 -45.5566 C 32.373 -45.5566 33.4473 -44.4336 33.4473 -42.627 L 33.4473 -34.3262 L 32.959 -27.5879 L 38.6719 -33.6426 L 55.5176 -50.5371 C 56.1035 -51.0742 56.7383 -51.416 57.7148 -51.416 C 59.3262 -51.416 60.4004 -50.3418 60.4004 -48.6328 C 60.4004 -47.8516 60.0586 -47.168 59.5215 -46.582 L 42.627 -29.6875 L 36.4746 -23.9746 L 42.627 -24.5117 L 51.6113 -24.5117 C 53.3691 -24.5117 54.541 -23.4375 54.541 -21.7773 C 54.541 -20.1172 53.418 -19.043 51.6602 -19.043 L 31.1035 -19.043 C 29.1504 -19.043 28.0273 -19.9219 28.0273 -22.1191 L 28.0273 -42.5293 C 28.0273 -44.3359 29.1016 -45.5566 30.7129 -45.5566 Z"/>
  </g>
  <g id="Regular-S" transform="matrix(1 0 0 1 1403.58 696)">
   <path d="M 46.2402 4.15039 C 67.7734 4.15039 85.6934 -13.7207 85.6934 -35.2539 C 85.6934 -56.7871 67.7246 -74.6582 46.1914 -74.6582 C 24.707 -74.6582 6.83594 -56.7871 6.83594 -35.2539 C 6.83594 -13.7207 24.7559 4.15039 46.2402 4.15039 Z M 31.7871 -45.8008 C 33.9355 -45.8008 35.3027 -44.3359 35.3027 -42.0898 L 35.3027 -35.9863 L 34.5703 -29.6875 L 41.1133 -36.6699 L 54.9805 -50.5371 C 55.6641 -51.2207 56.543 -51.6113 57.7148 -51.6113 C 59.8145 -51.6113 61.1816 -50.2441 61.1816 -48.0469 C 61.1816 -47.1191 60.791 -46.1914 60.0586 -45.5078 L 46.1914 -31.6406 L 39.1113 -25.0488 L 45.4102 -25.8789 L 51.5625 -25.8789 C 53.8086 -25.8789 55.3223 -24.4629 55.3223 -22.3633 C 55.3223 -20.2148 53.8574 -18.8477 51.6602 -18.8477 L 32.3242 -18.8477 C 29.834 -18.8477 28.3203 -19.9219 28.3203 -22.8027 L 28.3203 -41.9434 C 28.3203 -44.1895 29.6875 -45.8008 31.7871 -45.8008 Z"/>
  </g>
  <g id="Medium-S" transform="matrix(1 0 0 1 1699.7 696)">
   <path d="M 46.8262 4.78516 C 68.75 4.78516 86.8652 -13.3301 86.8652 -35.2539 C 86.8652 -57.1289 68.7012 -75.2441 46.8262 -75.2441 C 24.9023 -75.2441 6.83594 -57.1289 6.83594 -35.2539 C 6.83594 -13.3301 24.9512 4.78516 46.8262 4.78516 Z M 32.666 -46.7285 C 35.1074 -46.7285 36.6211 -45.0195 36.6211 -42.4316 L 36.6211 -36.8164 L 35.8887 -31.0547 L 41.7969 -37.5488 L 55.0293 -50.7324 C 55.9082 -51.6602 56.9824 -52.0996 58.252 -52.0996 C 60.6934 -52.0996 62.4512 -50.4395 62.4512 -47.8516 C 62.4512 -46.7285 61.9629 -45.6543 61.1328 -44.8242 L 47.8516 -31.543 L 41.3086 -25.5859 L 46.9727 -26.416 L 52.7832 -26.416 C 55.3711 -26.416 57.0312 -24.8535 57.0312 -22.4609 C 57.0312 -20.0684 55.3711 -18.5547 52.832 -18.5547 L 33.6914 -18.5547 C 30.6152 -18.5547 28.8086 -20.0684 28.8086 -23.3887 L 28.8086 -42.3828 C 28.8086 -44.9219 30.3223 -46.7285 32.666 -46.7285 Z"/>
  </g>
  <g id="Semibold-S" transform="matrix(1 0 0 1 1995.98 696)">
   <path d="M 47.3145 5.22461 C 69.4824 5.22461 87.7441 -13.0371 87.7441 -35.2539 C 87.7441 -57.4219 69.4336 -75.6836 47.2656 -75.6836 C 25.0977 -75.6836 6.83594 -57.4219 6.83594 -35.2539 C 6.83594 -13.0371 25.0977 5.22461 47.3145 5.22461 Z M 33.3496 -47.4121 C 35.9863 -47.4121 37.5977 -45.5566 37.5977 -42.7246 L 37.5977 -37.4512 L 36.9141 -32.1777 L 42.334 -38.2324 L 55.0293 -50.9277 C 56.1035 -52.002 57.2754 -52.4414 58.6914 -52.4414 C 61.377 -52.4414 63.4277 -50.5859 63.4277 -47.7051 C 63.4277 -46.4844 62.8906 -45.2148 61.9141 -44.2871 L 49.1211 -31.4453 L 43.0176 -26.0254 L 48.1445 -26.8066 L 53.7109 -26.8066 C 56.543 -26.8066 58.3496 -25.1465 58.3496 -22.5586 C 58.3496 -19.9707 56.543 -18.3105 53.7109 -18.3105 L 34.7168 -18.3105 C 31.25 -18.3105 29.1504 -20.166 29.1504 -23.8281 L 29.1504 -42.6758 C 29.1504 -45.5078 30.7617 -47.4121 33.3496 -47.4121 Z"/>
  </g>
  <g id="Bold-S" transform="matrix(1 0 0 1 2292.1 696)">
   <path d="M 47.9004 5.81055 C 70.4102 5.81055 88.916 -12.6465 88.916 -35.2051 C 88.916 -57.7637 70.4102 -76.2695 47.8516 -76.2695 C 25.293 -76.2695 6.83594 -57.7637 6.83594 -35.2051 C 6.83594 -12.6465 25.3418 5.81055 47.9004 5.81055 Z M 34.2773 -48.3398 C 37.1582 -48.3398 38.916 -46.2402 38.916 -43.0664 L 38.916 -38.2324 L 38.2812 -33.5938 L 43.0176 -39.1113 L 55.0781 -51.123 C 56.3477 -52.3926 57.7148 -52.9297 59.2773 -52.9297 C 62.2559 -52.9297 64.7461 -50.7324 64.7461 -47.5098 C 64.7461 -46.0938 64.1113 -44.6777 62.9883 -43.5547 L 50.7812 -31.3477 L 45.2637 -26.5625 L 49.7559 -27.2949 L 54.9316 -27.2949 C 58.0566 -27.2949 60.1074 -25.5371 60.1074 -22.7051 C 60.1074 -19.8242 58.0566 -18.0176 54.8828 -18.0176 L 36.084 -18.0176 C 32.0801 -18.0176 29.6387 -20.3125 29.6387 -24.4141 L 29.6387 -43.1152 C 29.6387 -46.2402 31.3965 -48.3398 34.2773 -48.3398 Z"/>
  </g>
  <g id="Heavy-S" transform="matrix(1 0 0 1 2587.96 696)">
   <path d="M 48.7305 6.68945 C 71.8262 6.68945 90.625 -12.1094 90.625 -35.2051 C 90.625 -58.3008 71.8262 -77.0996 48.7305 -77.0996 C 25.6348 -77.0996 6.83594 -58.3008 6.83594 -35.2051 C 6.83594 -12.1094 25.6348 6.68945 48.7305 6.68945 Z M 35.5469 -49.6582 C 38.8184 -49.6582 40.8203 -47.2656 40.8203 -43.6035 L 40.8203 -39.4531 L 40.2344 -35.6445 L 44.043 -40.3809 L 55.127 -51.4648 C 56.7383 -53.0273 58.3496 -53.6133 60.1074 -53.6133 C 63.5742 -53.6133 66.6016 -51.0254 66.6016 -47.2656 C 66.6016 -45.5566 65.8691 -43.8477 64.5508 -42.5293 L 53.2227 -31.2012 L 48.4863 -27.3926 L 52.0508 -28.0762 L 56.6895 -28.0762 C 60.3027 -28.0762 62.6465 -26.0742 62.6465 -22.8516 C 62.6465 -19.5801 60.2539 -17.627 56.5918 -17.627 L 38.0859 -17.627 C 33.252 -17.627 30.3711 -20.5078 30.3711 -25.2441 L 30.3711 -43.75 C 30.3711 -47.3145 32.3242 -49.6582 35.5469 -49.6582 Z"/>
  </g>
  <g id="Black-S" transform="matrix(1 0 0 1 2883.89 696)">
   <path d="M 49.5117 7.4707 C 73.0957 7.4707 92.1875 -11.6211 92.1875 -35.2051 C 92.1875 -58.7891 73.0957 -77.8809 49.5117 -77.8809 C 25.9277 -77.8809 6.83594 -58.7891 6.83594 -35.2051 C 6.83594 -11.6211 25.9277 7.4707 49.5117 7.4707 Z M 36.7188 -50.8301 C 40.332 -50.8301 42.5293 -48.1445 42.5293 -44.043 L 42.5293 -40.5273 L 41.9922 -37.5 L 44.9219 -41.5039 L 55.1758 -51.709 C 57.0312 -53.5645 58.9355 -54.1992 60.8398 -54.1992 C 64.6973 -54.1992 68.2617 -51.2207 68.2617 -47.0215 C 68.2617 -45.1172 67.4316 -43.1152 65.9668 -41.6504 L 55.3711 -31.0547 L 51.416 -28.125 L 54.0527 -28.7598 L 58.3008 -28.7598 C 62.3535 -28.7598 64.8926 -26.6113 64.8926 -23.0469 C 64.8926 -19.3848 62.2559 -17.2363 58.1055 -17.2363 L 39.8926 -17.2363 C 34.2773 -17.2363 31.0059 -20.6543 31.0059 -26.0254 L 31.0059 -44.2871 C 31.0059 -48.2422 33.1543 -50.8301 36.7188 -50.8301 Z"/>
  </g>
  <g id="Ultralight-M" transform="matrix(1 0 0 1 503.656 1126)">
   <path d="M 56.0547 12.207 C 82.0801 12.207 103.369 -9.08203 103.369 -35.1562 C 103.369 -61.1816 82.0801 -82.4707 56.0547 -82.4707 C 30.0293 -82.4707 8.74023 -61.1816 8.74023 -35.1562 C 8.74023 -9.08203 30.0293 12.207 56.0547 12.207 Z M 36.1328 -47.7051 C 36.9141 -47.7051 37.4512 -47.168 37.4512 -46.2402 L 37.4512 -29.4922 L 37.5 -19.6289 L 42.4316 -24.6582 L 72.4609 -54.7852 C 72.7539 -55.0781 73.0469 -55.2734 73.584 -55.2734 C 74.3652 -55.2734 74.9512 -54.6875 74.9512 -53.9551 C 74.9512 -53.4668 74.7559 -53.125 74.4629 -52.832 L 44.2871 -22.7539 L 39.209 -17.7246 L 65.918 -17.7246 C 66.8457 -17.7246 67.3828 -17.1875 67.3828 -16.4062 C 67.3828 -15.6738 66.8457 -15.1855 65.918 -15.1855 L 36.1328 -15.1855 C 35.4004 -15.1855 34.8633 -15.7715 34.8633 -16.5039 L 34.8633 -46.2891 C 34.8633 -47.168 35.4492 -47.7051 36.1328 -47.7051 Z"/>
  </g>
  <g id="Thin-M" transform="matrix(1 0 0 1 799.806 1126)">
   <path d="M 56.5918 12.7441 C 82.9102 12.7441 104.492 -8.83789 104.492 -35.1562 C 104.492 -61.4746 82.9102 -83.0566 56.5918 -83.0566 C 30.3223 -83.0566 8.74023 -61.4746 8.74023 -35.1562 C 8.74023 -8.83789 30.3223 12.7441 56.5918 12.7441 Z M 36.9629 -47.9004 C 38.1348 -47.9004 38.8672 -47.1191 38.8672 -45.8496 L 38.8672 -30.7617 L 38.7207 -21.1914 L 44.2871 -27.002 L 72.0215 -54.7852 C 72.4609 -55.1758 72.9004 -55.4199 73.6328 -55.4199 C 74.7559 -55.4199 75.5371 -54.6387 75.5371 -53.5156 C 75.5371 -52.8809 75.293 -52.3926 74.8535 -52.002 L 47.0215 -24.2188 L 41.2109 -18.6035 L 48.7305 -18.75 L 65.918 -18.75 C 67.1875 -18.75 67.9688 -17.9688 67.9688 -16.8457 C 67.9688 -15.7715 67.1875 -15.0391 65.918 -15.0391 L 37.1094 -15.0391 C 35.9375 -15.0391 35.1074 -15.7227 35.1074 -17.041 L 35.1074 -45.8008 C 35.1074 -47.0703 35.8887 -47.9004 36.9629 -47.9004 Z"/>
  </g>
  <g id="Light-M" transform="matrix(1 0 0 1 1095.42 1126)">
   <path d="M 57.7148 13.7695 C 84.5215 13.7695 106.689 -8.39844 106.689 -35.2051 C 106.689 -62.0117 84.4727 -84.1797 57.666 -84.1797 C 30.8594 -84.1797 8.74023 -62.0117 8.74023 -35.2051 C 8.74023 -8.39844 30.8594 13.7695 57.7148 13.7695 Z M 38.5742 -48.291 C 40.4785 -48.291 41.6504 -47.0215 41.6504 -45.0195 L 41.6504 -33.2031 L 41.1621 -24.3164 L 47.998 -31.543 L 71.1914 -54.7852 C 71.8262 -55.4199 72.5586 -55.7617 73.6328 -55.7617 C 75.4883 -55.7617 76.6602 -54.541 76.6602 -52.6367 C 76.6602 -51.7578 76.3184 -50.9766 75.6836 -50.3418 L 52.3926 -27.0996 L 45.1172 -20.2148 L 52.8809 -20.8008 L 65.8691 -20.8008 C 67.8711 -20.8008 69.1895 -19.5801 69.1895 -17.7246 C 69.1895 -15.8691 67.9199 -14.6973 65.918 -14.6973 L 38.9648 -14.6973 C 36.8652 -14.6973 35.5957 -15.7227 35.5957 -18.1152 L 35.5957 -44.9219 C 35.5957 -46.9238 36.7676 -48.291 38.5742 -48.291 Z"/>
  </g>
  <g id="Regular-M" transform="matrix(1 0 0 1 1391.32 1126)">
   <path d="M 58.5449 14.5508 C 85.7422 14.5508 108.35 -8.00781 108.35 -35.2539 C 108.35 -62.4512 85.6934 -85.0586 58.4961 -85.0586 C 31.25 -85.0586 8.74023 -62.4512 8.74023 -35.2539 C 8.74023 -8.00781 31.2988 14.5508 58.5449 14.5508 Z M 39.8438 -48.5352 C 42.2363 -48.5352 43.7988 -46.9238 43.7988 -44.3848 L 43.7988 -35.0586 L 43.0176 -26.6602 L 50.7812 -34.9609 L 70.5566 -54.7852 C 71.3867 -55.5664 72.3145 -56.0059 73.6328 -56.0059 C 76.0254 -56.0059 77.5391 -54.4434 77.5391 -52.002 C 77.5391 -50.9277 77.0996 -49.9023 76.2695 -49.1211 L 56.4453 -29.2969 L 48.0957 -21.4844 L 56.0059 -22.3633 L 65.8203 -22.3633 C 68.4082 -22.3633 70.0684 -20.752 70.0684 -18.4082 C 70.0684 -15.9668 68.457 -14.4531 65.918 -14.4531 L 40.4297 -14.4531 C 37.5977 -14.4531 35.9375 -15.7227 35.9375 -18.8965 L 35.9375 -44.2383 C 35.9375 -46.7773 37.4512 -48.5352 39.8438 -48.5352 Z"/>
  </g>
  <g id="Medium-M" transform="matrix(1 0 0 1 1687.33 1126)">
   <path d="M 59.2285 15.2832 C 86.8652 15.2832 109.717 -7.56836 109.717 -35.2051 C 109.717 -62.8906 86.8164 -85.7422 59.1797 -85.7422 C 31.543 -85.7422 8.74023 -62.8906 8.74023 -35.2051 C 8.74023 -7.56836 31.5918 15.2832 59.2285 15.2832 Z M 40.8691 -49.5117 C 43.6523 -49.5117 45.3613 -47.6074 45.3613 -44.6777 L 45.3613 -36.1328 L 44.5801 -28.418 L 51.8066 -36.2305 L 70.5078 -54.9805 C 71.582 -56.0059 72.7051 -56.4941 74.2188 -56.4941 C 77.002 -56.4941 78.9551 -54.6387 78.9551 -51.709 C 78.9551 -50.4395 78.418 -49.2188 77.4414 -48.2422 L 58.6426 -29.4434 L 50.6836 -22.168 L 58.0078 -23.0469 L 67.0898 -23.0469 C 70.0195 -23.0469 71.9238 -21.2891 71.9238 -18.6035 C 71.9238 -15.8691 70.0195 -14.1602 67.1387 -14.1602 L 41.9434 -14.1602 C 38.5254 -14.1602 36.4746 -15.8203 36.4746 -19.5801 L 36.4746 -44.5801 C 36.4746 -47.5098 38.1836 -49.5117 40.8691 -49.5117 Z"/>
  </g>
  <g id="Semibold-M" transform="matrix(1 0 0 1 1983.5 1126)">
   <path d="M 59.7656 15.8203 C 87.7441 15.8203 110.791 -7.22656 110.791 -35.2051 C 110.791 -63.1836 87.6953 -86.2793 59.7168 -86.2793 C 31.7383 -86.2793 8.74023 -63.1836 8.74023 -35.2051 C 8.74023 -7.22656 31.7871 15.8203 59.7656 15.8203 Z M 41.6992 -50.2441 C 44.6777 -50.2441 46.582 -48.1445 46.582 -44.873 L 46.582 -36.9141 L 45.8008 -29.7363 L 52.5879 -37.2559 L 70.5078 -55.1758 C 71.7285 -56.3477 73.0469 -56.8848 74.6582 -56.8848 C 77.7344 -56.8848 80.0293 -54.7852 80.0293 -51.5137 C 80.0293 -50.0977 79.3945 -48.6816 78.3203 -47.6074 L 60.3027 -29.541 L 52.6855 -22.7051 L 59.5215 -23.584 L 68.0176 -23.584 C 71.2402 -23.584 73.3887 -21.6797 73.3887 -18.75 C 73.3887 -15.7227 71.2891 -13.8672 68.0176 -13.8672 L 43.1641 -13.8672 C 39.209 -13.8672 36.8652 -15.9668 36.8652 -20.1172 L 36.8652 -44.8242 C 36.8652 -48.0469 38.7207 -50.2441 41.6992 -50.2441 Z"/>
  </g>
  <g id="Bold-M" transform="matrix(1 0 0 1 2279.5 1126)">
   <path d="M 60.4492 16.5039 C 88.8672 16.5039 112.207 -6.78711 112.207 -35.2051 C 112.207 -63.623 88.8672 -86.9629 60.4492 -86.9629 C 32.0312 -86.9629 8.74023 -63.623 8.74023 -35.2051 C 8.74023 -6.78711 32.0801 16.5039 60.4492 16.5039 Z M 42.7246 -51.2207 C 46.0938 -51.2207 48.1445 -48.8281 48.1445 -45.166 L 48.1445 -37.9883 L 47.4121 -31.4453 L 53.6133 -38.5742 L 70.459 -55.3711 C 71.9238 -56.8359 73.4375 -57.4219 75.2441 -57.4219 C 78.7109 -57.4219 81.4453 -54.9316 81.4453 -51.2695 C 81.4453 -49.6094 80.7617 -47.9492 79.4922 -46.7285 L 62.5 -29.7363 L 55.3223 -23.4375 L 61.4746 -24.3164 L 69.2871 -24.3164 C 72.9004 -24.3164 75.2441 -22.2168 75.2441 -18.9453 C 75.2441 -15.625 72.9004 -13.5742 69.2383 -13.5742 L 44.7266 -13.5742 C 40.1367 -13.5742 37.4023 -16.0645 37.4023 -20.8008 L 37.4023 -45.2148 C 37.4023 -48.7793 39.4531 -51.2207 42.7246 -51.2207 Z"/>
  </g>
  <g id="Heavy-M" transform="matrix(1 0 0 1 2575.19 1126)">
   <path d="M 61.4746 17.5781 C 90.5273 17.5781 114.258 -6.15234 114.258 -35.2051 C 114.258 -64.2578 90.5273 -87.9883 61.4746 -87.9883 C 32.4219 -87.9883 8.74023 -64.2578 8.74023 -35.2051 C 8.74023 -6.15234 32.4707 17.5781 61.4746 17.5781 Z M 44.2871 -52.6367 C 48.1445 -52.6367 50.4395 -49.8535 50.4395 -45.6055 L 50.4395 -39.5508 L 49.707 -33.9844 L 55.127 -40.4785 L 70.4102 -55.7129 C 72.2168 -57.4707 74.0723 -58.1543 76.123 -58.1543 C 80.127 -58.1543 83.5449 -55.1758 83.5449 -50.8789 C 83.5449 -48.9258 82.666 -46.9727 81.2012 -45.459 L 65.6738 -29.9316 L 59.1797 -24.5117 L 64.3555 -25.3418 L 71.0938 -25.3418 C 75.293 -25.3418 77.9785 -22.998 77.9785 -19.2383 C 77.9785 -15.4297 75.2441 -13.0859 70.9473 -13.0859 L 47.0215 -13.0859 C 41.4551 -13.0859 38.1836 -16.2598 38.1836 -21.7773 L 38.1836 -45.7031 C 38.1836 -49.8535 40.5273 -52.6367 44.2871 -52.6367 Z"/>
  </g>
  <g id="Black-M" transform="matrix(1 0 0 1 2871 1126)">
   <path d="M 62.4023 18.457 C 91.9922 18.457 116.064 -5.61523 116.064 -35.2051 C 116.064 -64.7949 91.9922 -88.8672 62.4023 -88.8672 C 32.8125 -88.8672 8.74023 -64.7949 8.74023 -35.2051 C 8.74023 -5.61523 32.8125 18.457 62.4023 18.457 Z M 45.6543 -53.9062 C 49.9512 -53.9062 52.5391 -50.7324 52.5391 -45.9473 L 52.5391 -40.918 L 51.7578 -36.2305 L 56.4941 -42.1387 L 70.3613 -55.957 C 72.4609 -58.0566 74.6094 -58.8379 76.8555 -58.8379 C 81.3965 -58.8379 85.3516 -55.4199 85.3516 -50.4883 C 85.3516 -48.291 84.4238 -46.0449 82.7148 -44.3359 L 68.5059 -30.127 L 62.5977 -25.4395 L 66.9434 -26.2695 L 72.7051 -26.2695 C 77.4414 -26.2695 80.4199 -23.7305 80.4199 -19.4824 C 80.4199 -15.2344 77.3438 -12.6465 72.5098 -12.6465 L 49.0234 -12.6465 C 42.6758 -12.6465 38.916 -16.4551 38.916 -22.7051 L 38.916 -46.1426 C 38.916 -50.8301 41.4551 -53.9062 45.6543 -53.9062 Z"/>
  </g>
  <g id="Ultralight-L" transform="matrix(1 0 0 1 487.641 1556)">
   <path d="M 72.0703 25.7324 C 105.566 25.7324 132.91 -1.61133 132.91 -35.1074 C 132.91 -68.5547 105.566 -95.8984 72.0703 -95.8984 C 38.623 -95.8984 11.2793 -68.5547 11.2793 -35.1074 C 11.2793 -1.61133 38.623 25.7324 72.0703 25.7324 Z M 46.2891 -51.2695 C 47.1191 -51.2695 47.7051 -50.6836 47.7051 -49.6582 L 47.7051 -27.2949 L 47.8027 -14.4043 L 53.9062 -20.6055 L 93.7012 -60.4492 C 94.043 -60.791 94.3359 -60.9863 94.9707 -60.9863 C 95.8008 -60.9863 96.4355 -60.4004 96.4355 -59.5703 C 96.4355 -58.9844 96.2402 -58.6426 95.8984 -58.3008 L 55.957 -18.457 L 49.7559 -12.3047 L 59.2773 -12.207 L 85.1074 -12.207 C 86.084 -12.207 86.6699 -11.5723 86.6699 -10.7422 C 86.6699 -9.96094 86.084 -9.47266 85.1074 -9.47266 L 46.1914 -9.47266 C 45.5078 -9.47266 44.9219 -10.1074 44.9219 -10.8398 L 44.9219 -49.6582 C 44.9219 -50.6836 45.5078 -51.2695 46.2891 -51.2695 Z"/>
  </g>
  <g id="Thin-L" transform="matrix(1 0 0 1 783.717 1556)">
   <path d="M 72.7051 26.3184 C 106.494 26.3184 134.131 -1.36719 134.131 -35.1074 C 134.131 -68.8965 106.445 -96.582 72.7051 -96.582 C 38.916 -96.582 11.2793 -68.8965 11.2793 -35.1074 C 11.2793 -1.36719 38.916 26.3184 72.7051 26.3184 Z M 47.2168 -51.4648 C 48.4863 -51.4648 49.3164 -50.5859 49.3164 -49.1699 L 49.3164 -28.6621 L 49.2188 -16.1621 L 56.0059 -23.1934 L 93.2129 -60.4492 C 93.6523 -60.8887 94.1406 -61.1816 94.9707 -61.1816 C 96.2402 -61.1816 97.0703 -60.3516 97.0703 -59.082 C 97.0703 -58.3496 96.8262 -57.8613 96.3379 -57.373 L 58.9844 -20.1172 L 52.002 -13.2324 L 61.6211 -13.3301 L 85.0586 -13.3301 C 86.4746 -13.3301 87.3535 -12.5 87.3535 -11.2305 C 87.3535 -10.0586 86.4746 -9.27734 85.1074 -9.27734 L 47.2656 -9.27734 C 46.0449 -9.27734 45.166 -10.1074 45.166 -11.4746 L 45.166 -49.1699 C 45.166 -50.5859 46.0449 -51.4648 47.2168 -51.4648 Z"/>
  </g>
  <g id="Light-L" transform="matrix(1 0 0 1 1079.21 1556)">
   <path d="M 73.9258 27.4902 C 108.301 27.4902 136.572 -0.830078 136.572 -35.1562 C 136.572 -69.5312 108.252 -97.8516 73.877 -97.8516 C 39.5508 -97.8516 11.2793 -69.5312 11.2793 -35.1562 C 11.2793 -0.830078 39.5508 27.4902 73.9258 27.4902 Z M 49.0234 -51.8555 C 51.0742 -51.8555 52.4414 -50.4883 52.4414 -48.2422 L 52.4414 -31.3965 L 51.9043 -19.6289 L 60.1074 -28.2227 L 92.2852 -60.4492 C 92.9688 -61.1328 93.7988 -61.5723 95.0195 -61.5723 C 97.0215 -61.5723 98.3887 -60.2051 98.3887 -58.1055 C 98.3887 -57.0801 97.9492 -56.25 97.2656 -55.5664 L 64.9902 -23.3398 L 56.3477 -15.0879 L 66.2598 -15.625 L 85.0098 -15.625 C 87.2559 -15.625 88.6719 -14.2578 88.6719 -12.207 C 88.6719 -10.2051 87.2559 -8.88672 85.1074 -8.88672 L 49.3652 -8.88672 C 47.1191 -8.88672 45.7031 -10.0586 45.7031 -12.6465 L 45.7031 -48.1445 C 45.7031 -50.3906 47.0215 -51.8555 49.0234 -51.8555 Z"/>
  </g>
  <g id="Regular-L" transform="matrix(1 0 0 1 1374.99 1556)">
   <path d="M 74.8535 28.3691 C 109.668 28.3691 138.428 -0.390625 138.428 -35.2051 C 138.428 -70.0195 109.619 -98.7793 74.8047 -98.7793 C 39.9902 -98.7793 11.2793 -70.0195 11.2793 -35.2051 C 11.2793 -0.390625 40.0391 28.3691 74.8535 28.3691 Z M 50.3906 -52.1973 C 53.0762 -52.1973 54.7852 -50.3906 54.7852 -47.5586 L 54.7852 -33.4961 L 53.9551 -22.2656 L 63.2324 -32.0801 L 91.5527 -60.4492 C 92.4805 -61.3281 93.5059 -61.8164 95.0195 -61.8164 C 97.6562 -61.8164 99.3652 -60.1074 99.3652 -57.373 C 99.3652 -56.1523 98.8281 -55.0781 97.9492 -54.1504 L 69.5312 -25.7812 L 59.6191 -16.4551 L 69.7266 -17.334 L 85.0098 -17.334 C 87.8418 -17.334 89.6973 -15.5762 89.6973 -12.9395 C 89.6973 -10.3027 87.8906 -8.64258 85.1074 -8.64258 L 50.9766 -8.64258 C 47.9492 -8.64258 46.0938 -10.0586 46.0938 -13.5254 L 46.0938 -47.4121 C 46.0938 -50.2441 47.8027 -52.1973 50.3906 -52.1973 Z"/>
  </g>
  <g id="Medium-L" transform="matrix(1 0 0 1 1670.9 1556)">
   <path d="M 75.6348 29.1992 C 110.938 29.1992 140.039 0.0488281 140.039 -35.2051 C 140.039 -70.459 110.889 -99.6094 75.5859 -99.6094 C 40.332 -99.6094 11.2793 -70.459 11.2793 -35.2051 C 11.2793 0.0488281 40.3809 29.1992 75.6348 29.1992 Z M 51.6113 -53.125 C 54.6875 -53.125 56.6406 -50.9766 56.6406 -47.7051 L 56.6406 -34.8145 L 55.8105 -24.3164 L 64.7461 -33.9355 L 91.4062 -60.6445 C 92.5293 -61.7676 93.8477 -62.3535 95.5566 -62.3535 C 98.6328 -62.3535 100.83 -60.2539 100.83 -57.0312 C 100.83 -55.5664 100.195 -54.1992 99.1211 -53.125 L 72.3145 -26.3672 L 62.5977 -17.3828 L 72.168 -18.3105 L 86.1328 -18.3105 C 89.4043 -18.3105 91.5527 -16.3086 91.5527 -13.2812 C 91.5527 -10.2051 89.4531 -8.30078 86.1816 -8.30078 L 52.6855 -8.30078 C 48.9258 -8.30078 46.6309 -10.1562 46.6309 -14.3066 L 46.6309 -47.5586 C 46.6309 -50.8789 48.584 -53.125 51.6113 -53.125 Z"/>
  </g>
  <g id="Semibold-L" transform="matrix(1 0 0 1 1967 1556)">
   <path d="M 76.2695 29.7852 C 111.914 29.7852 141.26 0.439453 141.26 -35.2051 C 141.26 -70.8496 111.865 -100.244 76.2207 -100.244 C 40.5762 -100.244 11.2793 -70.8496 11.2793 -35.2051 C 11.2793 0.439453 40.625 29.7852 76.2695 29.7852 Z M 52.5391 -53.8574 C 55.9082 -53.8574 58.0566 -51.4648 58.0566 -47.8027 L 58.0566 -35.8398 L 57.1777 -25.8789 L 65.8691 -35.4004 L 91.3086 -60.791 C 92.627 -62.1094 94.0918 -62.7441 95.9473 -62.7441 C 99.4141 -62.7441 101.953 -60.3516 101.953 -56.7383 C 101.953 -55.0781 101.221 -53.5645 100 -52.3438 L 74.4629 -26.8066 L 64.8926 -18.0664 L 74.0234 -19.043 L 86.9629 -19.043 C 90.625 -19.043 93.0176 -16.8945 93.0176 -13.5254 C 93.0176 -10.1562 90.6738 -8.00781 87.0117 -8.00781 L 54.0039 -8.00781 C 49.6582 -8.00781 47.0703 -10.2539 47.0703 -14.8926 L 47.0703 -47.7051 C 47.0703 -51.3672 49.1699 -53.8574 52.5391 -53.8574 Z"/>
  </g>
  <g id="Bold-L" transform="matrix(1 0 0 1 2262.9 1556)">
   <path d="M 77.0996 30.6152 C 113.184 30.6152 142.92 0.878906 142.92 -35.2051 C 142.92 -71.3379 113.135 -101.025 77.0508 -101.025 C 40.918 -101.025 11.2793 -71.3379 11.2793 -35.2051 C 11.2793 0.878906 40.9668 30.6152 77.0996 30.6152 Z M 53.7598 -54.7852 C 57.5684 -54.7852 59.9609 -52.0996 59.9609 -47.9004 L 59.9609 -37.207 L 59.0332 -27.9785 L 67.4316 -37.3047 L 91.1133 -60.9863 C 92.7246 -62.5488 94.4336 -63.2324 96.4844 -63.2324 C 100.391 -63.2324 103.418 -60.498 103.418 -56.3477 C 103.418 -54.4922 102.637 -52.6855 101.221 -51.2695 L 77.3438 -27.3926 L 67.9199 -18.9453 L 76.5137 -20.0195 L 88.0859 -20.0195 C 92.2363 -20.0195 94.9219 -17.627 94.9219 -13.8184 C 94.9219 -10.0098 92.2363 -7.66602 88.0859 -7.66602 L 55.7129 -7.66602 C 50.6836 -7.66602 47.6074 -10.4004 47.6074 -15.6738 L 47.6074 -47.9004 C 47.6074 -52.002 50 -54.7852 53.7598 -54.7852 Z"/>
  </g>
  <g id="Heavy-L" transform="matrix(1 0 0 1 2558.42 1556)">
   <path d="M 78.2715 31.7871 C 115.039 31.7871 145.264 1.61133 145.264 -35.2051 C 145.264 -72.0215 115.039 -102.197 78.2227 -102.197 C 41.4551 -102.197 11.2793 -72.0215 11.2793 -35.2051 C 11.2793 1.61133 41.4551 31.7871 78.2715 31.7871 Z M 55.5176 -56.1523 C 59.9609 -56.1523 62.6953 -52.9785 62.6953 -48.0957 L 62.6953 -39.1602 L 61.6699 -30.957 L 69.6289 -40.0391 L 90.8691 -61.2793 C 92.8223 -63.2324 94.873 -64.0137 97.2656 -64.0137 C 101.855 -64.0137 105.566 -60.6934 105.566 -55.8105 C 105.566 -53.6133 104.639 -51.416 102.979 -49.7559 L 81.4453 -28.2227 L 72.3145 -20.2637 L 80.0781 -21.4355 L 89.7461 -21.4355 C 94.5801 -21.4355 97.7051 -18.6523 97.7051 -14.3066 C 97.7051 -9.86328 94.5801 -7.17773 89.6973 -7.17773 L 58.252 -7.17773 C 52.0996 -7.17773 48.4375 -10.5469 48.4375 -16.8457 L 48.4375 -48.1445 C 48.4375 -52.9297 51.1719 -56.1523 55.5176 -56.1523 Z"/>
  </g>
  <g id="Black-L" transform="matrix(1 0 0 1 2854.08 1556)">
   <path d="M 79.2969 32.8613 C 116.748 32.8613 147.363 2.19727 147.363 -35.2051 C 147.363 -72.6074 116.699 -103.271 79.2969 -103.271 C 41.8945 -103.271 11.2793 -72.6074 11.2793 -35.2051 C 11.2793 2.19727 41.8945 32.8613 79.2969 32.8613 Z M 57.1289 -57.373 C 62.1094 -57.373 65.1367 -53.8086 65.1367 -48.291 L 65.1367 -40.918 L 64.0625 -33.6914 L 71.582 -42.5293 L 90.6738 -61.5723 C 92.9199 -63.8184 95.3125 -64.6973 97.998 -64.6973 C 103.174 -64.6973 107.471 -60.8887 107.471 -55.3223 C 107.471 -52.832 106.396 -50.293 104.492 -48.3887 L 85.1074 -29.0039 L 76.2207 -21.4844 L 83.252 -22.7051 L 91.2109 -22.7051 C 96.6797 -22.7051 100.195 -19.6289 100.195 -14.7461 C 100.195 -9.7168 96.6309 -6.68945 91.1133 -6.68945 L 60.498 -6.68945 C 53.3691 -6.68945 49.1699 -10.7422 49.1699 -17.8711 L 49.1699 -48.3887 C 49.1699 -53.7598 52.1973 -57.373 57.1289 -57.373 Z"/>
  </g>
 </g>
</svg>
