<?xml version="1.0" encoding="UTF-8"?>
<!--Generator: Apple Native CoreSVG 123-->
<!DOCTYPE svg
PUBLIC "-//W3C//DTD SVG 1.1//EN"
       "http://www.w3.org/Graphics/SVG/1.1/DTD/svg11.dtd">
<svg version="1.1" xmlns="http://www.w3.org/2000/svg" xmlns:xlink="http://www.w3.org/1999/xlink" width="3300" height="2200">
 <!--glyph: "uni1005BA.medium", point size: 100.000000, font version: "Version 15.0d4e20", template writer version: "2"-->
 <g id="Notes">
  <rect height="2200" id="artboard" style="fill:white;opacity:1" width="3300" x="0" y="0"/>
  <line id="" style="fill:none;stroke:black;opacity:1;stroke-width:0.5;" x1="263" x2="3036" y1="292" y2="292"/>
  <text style="stroke:none;fill:black;font-family:-apple-system,&quot;SF Pro Display&quot;,&quot;SF Pro Text&quot;,Helvetica,sans-serif;font-weight:bold;" transform="matrix(1 0 0 1 263 322)">Weight/Scale Variations</text>
  <text style="stroke:none;fill:black;font-family:-apple-system,&quot;SF Pro Display&quot;,&quot;SF Pro Text&quot;,Helvetica,sans-serif;text-anchor:middle;" transform="matrix(1 0 0 1 559.711 322)">Ultralight</text>
  <text style="stroke:none;fill:black;font-family:-apple-system,&quot;SF Pro Display&quot;,&quot;SF Pro Text&quot;,Helvetica,sans-serif;text-anchor:middle;" transform="matrix(1 0 0 1 856.422 322)">Thin</text>
  <text style="stroke:none;fill:black;font-family:-apple-system,&quot;SF Pro Display&quot;,&quot;SF Pro Text&quot;,Helvetica,sans-serif;text-anchor:middle;" transform="matrix(1 0 0 1 1153.13 322)">Light</text>
  <text style="stroke:none;fill:black;font-family:-apple-system,&quot;SF Pro Display&quot;,&quot;SF Pro Text&quot;,Helvetica,sans-serif;text-anchor:middle;" transform="matrix(1 0 0 1 1449.84 322)">Regular</text>
  <text style="stroke:none;fill:black;font-family:-apple-system,&quot;SF Pro Display&quot;,&quot;SF Pro Text&quot;,Helvetica,sans-serif;text-anchor:middle;" transform="matrix(1 0 0 1 1746.56 322)">Medium</text>
  <text style="stroke:none;fill:black;font-family:-apple-system,&quot;SF Pro Display&quot;,&quot;SF Pro Text&quot;,Helvetica,sans-serif;text-anchor:middle;" transform="matrix(1 0 0 1 2043.27 322)">Semibold</text>
  <text style="stroke:none;fill:black;font-family:-apple-system,&quot;SF Pro Display&quot;,&quot;SF Pro Text&quot;,Helvetica,sans-serif;text-anchor:middle;" transform="matrix(1 0 0 1 2339.98 322)">Bold</text>
  <text style="stroke:none;fill:black;font-family:-apple-system,&quot;SF Pro Display&quot;,&quot;SF Pro Text&quot;,Helvetica,sans-serif;text-anchor:middle;" transform="matrix(1 0 0 1 2636.69 322)">Heavy</text>
  <text style="stroke:none;fill:black;font-family:-apple-system,&quot;SF Pro Display&quot;,&quot;SF Pro Text&quot;,Helvetica,sans-serif;text-anchor:middle;" transform="matrix(1 0 0 1 2933.4 322)">Black</text>
  <line id="" style="fill:none;stroke:black;opacity:1;stroke-width:0.5;" x1="263" x2="3036" y1="1903" y2="1903"/>
  <g id="" transform="matrix(1 0 0 1 263 1933)">
   <path d="M 9.24805 0.830078 C 13.5547 0.830078 17.1387 -2.74414 17.1387 -7.05078 C 17.1387 -11.3574 13.5449 -14.9316 9.23828 -14.9316 C 4.94141 -14.9316 1.36719 -11.3574 1.36719 -7.05078 C 1.36719 -2.74414 4.95117 0.830078 9.24805 0.830078 Z M 9.24805 -0.654297 C 5.70312 -0.654297 2.87109 -3.49609 2.87109 -7.05078 C 2.87109 -10.6055 5.69336 -13.4473 9.23828 -13.4473 C 12.793 -13.4473 15.6348 -10.6055 15.6445 -7.05078 C 15.6543 -3.49609 12.8027 -0.654297 9.24805 -0.654297 Z M 9.22852 -3.42773 C 9.69727 -3.42773 9.9707 -3.74023 9.9707 -4.25781 L 9.9707 -6.31836 L 12.1973 -6.31836 C 12.6953 -6.31836 13.0371 -6.57227 13.0371 -7.04102 C 13.0371 -7.51953 12.7148 -7.7832 12.1973 -7.7832 L 9.9707 -7.7832 L 9.9707 -10.0098 C 9.9707 -10.5273 9.69727 -10.8496 9.22852 -10.8496 C 8.75977 -10.8496 8.50586 -10.5078 8.50586 -10.0098 L 8.50586 -7.7832 L 6.29883 -7.7832 C 5.78125 -7.7832 5.44922 -7.51953 5.44922 -7.04102 C 5.44922 -6.57227 5.80078 -6.31836 6.29883 -6.31836 L 8.50586 -6.31836 L 8.50586 -4.25781 C 8.50586 -3.75977 8.75977 -3.42773 9.22852 -3.42773 Z"/>
  </g>
  <g id="" transform="matrix(1 0 0 1 281.506 1933)">
   <path d="M 11.709 2.91016 C 17.1484 2.91016 21.6699 -1.60156 21.6699 -7.05078 C 21.6699 -12.4902 17.1387 -17.0117 11.6992 -17.0117 C 6.25 -17.0117 1.74805 -12.4902 1.74805 -7.05078 C 1.74805 -1.60156 6.25977 2.91016 11.709 2.91016 Z M 11.709 1.25 C 7.09961 1.25 3.41797 -2.44141 3.41797 -7.05078 C 3.41797 -11.6504 7.08984 -15.3516 11.6992 -15.3516 C 16.2988 -15.3516 20 -11.6504 20.0098 -7.05078 C 20.0195 -2.44141 16.3086 1.25 11.709 1.25 Z M 11.6797 -2.41211 C 12.207 -2.41211 12.5195 -2.77344 12.5195 -3.33984 L 12.5195 -6.23047 L 15.5762 -6.23047 C 16.123 -6.23047 16.5039 -6.51367 16.5039 -7.03125 C 16.5039 -7.55859 16.1426 -7.86133 15.5762 -7.86133 L 12.5195 -7.86133 L 12.5195 -10.9277 C 12.5195 -11.5039 12.207 -11.8555 11.6797 -11.8555 C 11.1621 -11.8555 10.8789 -11.4844 10.8789 -10.9277 L 10.8789 -7.86133 L 7.83203 -7.86133 C 7.25586 -7.86133 6.89453 -7.55859 6.89453 -7.03125 C 6.89453 -6.51367 7.28516 -6.23047 7.83203 -6.23047 L 10.8789 -6.23047 L 10.8789 -3.33984 C 10.8789 -2.79297 11.1621 -2.41211 11.6797 -2.41211 Z"/>
  </g>
  <g id="" transform="matrix(1 0 0 1 304.914 1933)">
   <path d="M 14.9707 5.67383 C 21.9336 5.67383 27.6855 -0.078125 27.6855 -7.04102 C 27.6855 -14.0039 21.9238 -19.7559 14.9609 -19.7559 C 7.99805 -19.7559 2.25586 -14.0039 2.25586 -7.04102 C 2.25586 -0.078125 8.00781 5.67383 14.9707 5.67383 Z M 14.9707 3.85742 C 8.92578 3.85742 4.08203 -1.00586 4.08203 -7.04102 C 4.08203 -13.0762 8.91602 -17.9395 14.9609 -17.9395 C 20.9961 -17.9395 25.8594 -13.0762 25.8691 -7.04102 C 25.8789 -1.00586 21.0059 3.85742 14.9707 3.85742 Z M 14.9414 -1.06445 C 15.5176 -1.06445 15.8594 -1.45508 15.8594 -2.06055 L 15.8594 -6.13281 L 20.0977 -6.13281 C 20.6934 -6.13281 21.1133 -6.46484 21.1133 -7.02148 C 21.1133 -7.59766 20.7227 -7.93945 20.0977 -7.93945 L 15.8594 -7.93945 L 15.8594 -12.1875 C 15.8594 -12.8027 15.5176 -13.1934 14.9414 -13.1934 C 14.3848 -13.1934 14.0625 -12.7832 14.0625 -12.1875 L 14.0625 -7.93945 L 9.82422 -7.93945 C 9.20898 -7.93945 8.80859 -7.59766 8.80859 -7.02148 C 8.80859 -6.46484 9.23828 -6.13281 9.82422 -6.13281 L 14.0625 -6.13281 L 14.0625 -2.06055 C 14.0625 -1.47461 14.3848 -1.06445 14.9414 -1.06445 Z"/>
  </g>
  <text style="stroke:none;fill:black;font-family:-apple-system,&quot;SF Pro Display&quot;,&quot;SF Pro Text&quot;,Helvetica,sans-serif;font-weight:bold;" transform="matrix(1 0 0 1 263 1953)">Design Variations</text>
  <text style="stroke:none;fill:black;font-family:-apple-system,&quot;SF Pro Display&quot;,&quot;SF Pro Text&quot;,Helvetica,sans-serif;" transform="matrix(1 0 0 1 263 1971)">Symbols are supported in up to nine weights and three scales.</text>
  <text style="stroke:none;fill:black;font-family:-apple-system,&quot;SF Pro Display&quot;,&quot;SF Pro Text&quot;,Helvetica,sans-serif;" transform="matrix(1 0 0 1 263 1989)">For optimal layout with text and other symbols, vertically align</text>
  <text style="stroke:none;fill:black;font-family:-apple-system,&quot;SF Pro Display&quot;,&quot;SF Pro Text&quot;,Helvetica,sans-serif;" transform="matrix(1 0 0 1 263 2007)">symbols with the adjacent text.</text>
  <rect height="14" id="" style="fill:#00AEEF;stroke:none;opacity:0.4;" width="3" x="776" y="1919"/>
  <g id="" transform="matrix(1 0 0 1 779 1933)">
   <path d="M 10.5273 0 L 12.373 0 L 7.17773 -14.0918 L 5.43945 -14.0918 L 0.244141 0 L 2.08984 0 L 3.50586 -4.0332 L 9.11133 -4.0332 Z M 6.2793 -11.9531 L 6.33789 -11.9531 L 8.59375 -5.52734 L 4.02344 -5.52734 Z"/>
  </g>
  <rect height="14" id="" style="fill:#00AEEF;stroke:none;opacity:0.4;" width="3" x="791.617" y="1919"/>
  <text style="stroke:none;fill:black;font-family:-apple-system,&quot;SF Pro Display&quot;,&quot;SF Pro Text&quot;,Helvetica,sans-serif;font-weight:bold;" transform="matrix(1 0 0 1 776 1953)">Side Bearings</text>
  <text style="stroke:none;fill:black;font-family:-apple-system,&quot;SF Pro Display&quot;,&quot;SF Pro Text&quot;,Helvetica,sans-serif;" transform="matrix(1 0 0 1 776 1971)">Horizontal padding on the left and right side of each symbol</text>
  <text style="stroke:none;fill:black;font-family:-apple-system,&quot;SF Pro Display&quot;,&quot;SF Pro Text&quot;,Helvetica,sans-serif;" transform="matrix(1 0 0 1 776 1989)">can be adjusted by modifying the width of the blue rectangles.</text>
  <text style="stroke:none;fill:black;font-family:-apple-system,&quot;SF Pro Display&quot;,&quot;SF Pro Text&quot;,Helvetica,sans-serif;" transform="matrix(1 0 0 1 776 2007)">Modifications are automatically applied proportionally to all</text>
  <text style="stroke:none;fill:black;font-family:-apple-system,&quot;SF Pro Display&quot;,&quot;SF Pro Text&quot;,Helvetica,sans-serif;" transform="matrix(1 0 0 1 776 2025)">scales and weights.</text>
  <g id="" transform="matrix(1 0 0 1 1289 1933)">
   <path d="M 2.96875 2.35352 L 3.80859 3.19336 C 4.84375 4.22852 6.12305 4.15039 7.19727 2.97852 L 16.1621 -6.82617 C 16.5527 -6.74805 16.9629 -6.8457 17.4902 -7.02148 C 18.1738 -7.25586 18.2715 -7.25586 18.3887 -7.13867 C 18.5352 -7.01172 18.4863 -6.89453 18.2422 -6.25 C 17.8809 -5.33203 17.8125 -4.79492 18.5547 -4.02344 L 19.4238 -3.13477 C 20.2734 -2.24609 21.3281 -2.26562 22.2168 -3.14453 L 25.0586 -5.97656 C 25.9473 -6.86523 25.957 -7.92969 25.0781 -8.7793 L 24.1797 -9.64844 C 23.4082 -10.4004 22.8711 -10.3516 21.9629 -9.98047 C 21.3184 -9.72656 21.2012 -9.6875 21.0645 -9.81445 C 20.9375 -9.93164 20.9473 -10.0391 21.1816 -10.7129 C 21.5332 -11.6895 21.5723 -12.2852 20.752 -13.0957 L 19.3359 -14.5117 C 15.1953 -18.6133 11.2305 -18.7402 7.65625 -15.4395 C 7.08008 -14.9023 6.99219 -14.1504 7.53906 -13.6133 L 7.79297 -13.3594 C 8.22266 -12.9297 8.86719 -12.8418 9.41406 -13.1152 C 11.0645 -13.9453 12.2559 -14.0234 13.457 -12.9785 L 13.0273 -11.416 C 12.8516 -10.8008 12.793 -10.3418 12.9199 -9.93164 L 3.18359 -1.04492 C 2.02148 0.0292969 1.93359 1.32812 2.96875 2.35352 Z M 8.96484 -14.4922 C 8.89648 -14.5703 8.86719 -14.6582 8.99414 -14.7559 C 11.709 -17.2852 15.0391 -16.8457 18.3496 -13.5254 L 19.6973 -12.168 C 20.0879 -11.7773 20.0977 -11.582 19.8828 -10.8691 C 19.6582 -10.127 19.502 -9.53125 20.1465 -8.88672 C 20.8105 -8.22266 21.2891 -8.41797 22.207 -8.63281 C 22.9004 -8.79883 23.0664 -8.79883 23.4473 -8.41797 L 24.0918 -7.77344 C 24.4043 -7.48047 24.4141 -7.32422 24.0723 -6.97266 L 21.2207 -4.13086 C 20.8887 -3.79883 20.7227 -3.79883 20.4297 -4.10156 L 19.7852 -4.75586 C 19.4141 -5.13672 19.4141 -5.30273 19.5801 -6.01562 C 19.7852 -6.88477 19.9805 -7.38281 19.3262 -8.04688 C 18.6719 -8.7207 18.0762 -8.57422 17.3438 -8.33008 C 16.5625 -8.06641 16.3281 -8.06641 15.8984 -8.49609 L 14.6094 -9.78516 C 14.1699 -10.2246 14.1309 -10.4395 14.2676 -10.9082 L 15.0293 -13.3984 C 13.3887 -15.2832 11.4941 -15.5566 9.20898 -14.4434 C 9.11133 -14.3945 9.04297 -14.4141 8.96484 -14.4922 Z M 3.96484 1.36719 C 3.52539 0.927734 3.54492 0.537109 4.14062 -0.00976562 L 13.7402 -8.81836 L 15 -7.55859 L 6.17188 2.02148 C 5.625 2.60742 5.24414 2.64648 4.79492 2.19727 Z"/>
  </g>
  <text style="stroke:none;fill:black;font-family:-apple-system,&quot;SF Pro Display&quot;,&quot;SF Pro Text&quot;,Helvetica,sans-serif;font-weight:bold;" transform="matrix(1 0 0 1 1289 1953)">Exporting</text>
  <text style="stroke:none;fill:black;font-family:-apple-system,&quot;SF Pro Display&quot;,&quot;SF Pro Text&quot;,Helvetica,sans-serif;" transform="matrix(1 0 0 1 1289 1971)">Symbols should be outlined when exporting to ensure the</text>
  <text style="stroke:none;fill:black;font-family:-apple-system,&quot;SF Pro Display&quot;,&quot;SF Pro Text&quot;,Helvetica,sans-serif;" transform="matrix(1 0 0 1 1289 1989)">design is preserved when submitting to Xcode.</text>
  <text id="template-version" style="stroke:none;fill:black;font-family:-apple-system,&quot;SF Pro Display&quot;,&quot;SF Pro Text&quot;,Helvetica,sans-serif;text-anchor:end;" transform="matrix(1 0 0 1 3036 1933)">Template v.0.1</text>
  <text style="stroke:none;fill:black;font-family:-apple-system,&quot;SF Pro Display&quot;,&quot;SF Pro Text&quot;,Helvetica,sans-serif;text-anchor:end;" transform="matrix(1 0 0 1 3036 1951)">Generated from australsign.circle.fill</text>
  <text style="stroke:none;fill:black;font-family:-apple-system,&quot;SF Pro Display&quot;,&quot;SF Pro Text&quot;,Helvetica,sans-serif;text-anchor:end;" transform="matrix(1 0 0 1 3036 1969)">Typeset at 100 points</text>
  <text style="stroke:none;fill:black;font-family:-apple-system,&quot;SF Pro Display&quot;,&quot;SF Pro Text&quot;,Helvetica,sans-serif;" transform="matrix(1 0 0 1 263 726)">Small</text>
  <text style="stroke:none;fill:black;font-family:-apple-system,&quot;SF Pro Display&quot;,&quot;SF Pro Text&quot;,Helvetica,sans-serif;" transform="matrix(1 0 0 1 263 1156)">Medium</text>
  <text style="stroke:none;fill:black;font-family:-apple-system,&quot;SF Pro Display&quot;,&quot;SF Pro Text&quot;,Helvetica,sans-serif;" transform="matrix(1 0 0 1 263 1586)">Large</text>
 </g>
 <g id="Guides">
  <g id="H-reference" style="fill:#27AAE1;stroke:none;" transform="matrix(1 0 0 1 339 696)">
   <path d="M 54.9316 0 L 57.666 0 L 30.5664 -70.459 L 28.0762 -70.459 L 0.976562 0 L 3.66211 0 L 12.9395 -24.4629 L 45.7031 -24.4629 Z M 29.1992 -67.0898 L 29.4434 -67.0898 L 44.8242 -26.709 L 13.8184 -26.709 Z"/>
  </g>
  <line id="Baseline-S" style="fill:none;stroke:#27AAE1;opacity:1;stroke-width:0.577;" x1="263" x2="3036" y1="696" y2="696"/>
  <line id="Capline-S" style="fill:none;stroke:#27AAE1;opacity:1;stroke-width:0.577;" x1="263" x2="3036" y1="625.541" y2="625.541"/>
  <g id="H-reference" style="fill:#27AAE1;stroke:none;" transform="matrix(1 0 0 1 339 1126)">
   <path d="M 54.9316 0 L 57.666 0 L 30.5664 -70.459 L 28.0762 -70.459 L 0.976562 0 L 3.66211 0 L 12.9395 -24.4629 L 45.7031 -24.4629 Z M 29.1992 -67.0898 L 29.4434 -67.0898 L 44.8242 -26.709 L 13.8184 -26.709 Z"/>
  </g>
  <line id="Baseline-M" style="fill:none;stroke:#27AAE1;opacity:1;stroke-width:0.577;" x1="263" x2="3036" y1="1126" y2="1126"/>
  <line id="Capline-M" style="fill:none;stroke:#27AAE1;opacity:1;stroke-width:0.577;" x1="263" x2="3036" y1="1055.54" y2="1055.54"/>
  <g id="H-reference" style="fill:#27AAE1;stroke:none;" transform="matrix(1 0 0 1 339 1556)">
   <path d="M 54.9316 0 L 57.666 0 L 30.5664 -70.459 L 28.0762 -70.459 L 0.976562 0 L 3.66211 0 L 12.9395 -24.4629 L 45.7031 -24.4629 Z M 29.1992 -67.0898 L 29.4434 -67.0898 L 44.8242 -26.709 L 13.8184 -26.709 Z"/>
  </g>
  <line id="Baseline-L" style="fill:none;stroke:#27AAE1;opacity:1;stroke-width:0.577;" x1="263" x2="3036" y1="1556" y2="1556"/>
  <line id="Capline-L" style="fill:none;stroke:#27AAE1;opacity:1;stroke-width:0.577;" x1="263" x2="3036" y1="1485.54" y2="1485.54"/>
  <rect height="119.336" id="left-margin" style="fill:#00AEEF;stroke:none;opacity:0.4;" width="8.74023" x="1391.32" y="1030.79"/>
  <rect height="119.336" id="right-margin" style="fill:#00AEEF;stroke:none;opacity:0.4;" width="8.69141" x="1499.67" y="1030.79"/>
 </g>
 <g id="Symbols">
  <g id="Ultralight-S" transform="matrix(1 0 0 1 515.644 696)">
   <path d="M 44.043 2.05078 C 64.502 2.05078 81.2988 -14.6973 81.2988 -35.1562 C 81.2988 -55.6152 64.502 -72.3633 44.043 -72.3633 C 23.584 -72.3633 6.83594 -55.6152 6.83594 -35.1562 C 6.83594 -14.6973 23.584 2.05078 44.043 2.05078 Z M 30.6641 -28.3691 C 30.6641 -29.0039 31.0547 -29.4434 31.7383 -29.4434 L 35.1074 -29.4434 L 36.5234 -33.3984 L 31.7383 -33.3984 C 31.0547 -33.3984 30.6641 -33.8379 30.6641 -34.4727 C 30.6641 -35.0586 31.0547 -35.5469 31.7383 -35.5469 L 37.3047 -35.5469 L 42.8711 -51.0254 C 43.0664 -51.6602 43.5547 -51.9531 44.0918 -51.9531 C 44.6777 -51.9531 45.1172 -51.6602 45.3613 -51.0254 L 50.8789 -35.5469 L 56.3965 -35.5469 C 57.0312 -35.5469 57.4707 -35.0586 57.4707 -34.4727 C 57.4707 -33.8379 57.0312 -33.3984 56.3965 -33.3984 L 51.709 -33.3984 L 53.125 -29.4434 L 56.3965 -29.4434 C 57.0312 -29.4434 57.4707 -29.0039 57.4707 -28.3691 C 57.4707 -27.832 57.0312 -27.2949 56.3965 -27.2949 L 53.8574 -27.2949 L 56.8359 -19.0918 C 56.9336 -18.8965 56.9336 -18.6523 56.9336 -18.5059 C 56.9336 -17.7734 56.4453 -17.4805 55.8105 -17.4805 C 55.3223 -17.4805 55.0293 -17.7246 54.7852 -18.2129 L 51.5137 -27.2949 L 36.6699 -27.2949 L 33.4473 -18.2129 C 33.2031 -17.7246 32.8613 -17.4805 32.373 -17.4805 C 31.7383 -17.4805 31.25 -17.7734 31.25 -18.5059 C 31.25 -18.6523 31.2988 -18.8965 31.3965 -19.0918 L 34.3262 -27.2949 L 31.7383 -27.2949 C 31.0547 -27.2949 30.6641 -27.832 30.6641 -28.3691 Z M 39.5996 -35.5469 L 48.6328 -35.5469 L 44.0918 -48.1445 Z M 37.4512 -29.4434 L 50.7812 -29.4434 L 49.3652 -33.3984 L 38.8184 -33.3984 Z"/>
  </g>
  <g id="Thin-S" transform="matrix(1 0 0 1 811.867 696)">
   <path d="M 44.5801 2.53906 C 65.2832 2.53906 82.2754 -14.4531 82.2754 -35.2051 C 82.2754 -55.9082 65.2344 -72.9004 44.5312 -72.9004 C 23.8281 -72.9004 6.83594 -55.9082 6.83594 -35.2051 C 6.83594 -14.4531 23.877 2.53906 44.5801 2.53906 Z M 30.3711 -28.0273 C 30.3711 -28.7598 30.8594 -29.3457 31.6895 -29.3457 L 35.0586 -29.3457 L 36.377 -33.1055 L 31.6895 -33.1055 C 30.8594 -33.1055 30.3711 -33.6914 30.3711 -34.4238 C 30.3711 -35.1562 30.8594 -35.791 31.6895 -35.791 L 37.3535 -35.791 L 42.8223 -51.3672 C 43.1152 -52.1973 43.7012 -52.6855 44.5801 -52.6855 C 45.4102 -52.6855 46.0449 -52.1973 46.3379 -51.3672 L 51.8066 -35.791 L 57.4219 -35.791 C 58.2031 -35.791 58.7402 -35.1562 58.7402 -34.4238 C 58.7402 -33.6914 58.2031 -33.1055 57.4219 -33.1055 L 52.7344 -33.1055 L 54.0527 -29.3457 L 57.4219 -29.3457 C 58.2031 -29.3457 58.7402 -28.7598 58.7402 -28.0273 C 58.7402 -27.2949 58.2031 -26.709 57.4219 -26.709 L 54.9805 -26.709 L 57.666 -19.1406 C 57.7637 -18.7988 57.8125 -18.5547 57.8125 -18.3594 C 57.8125 -17.4805 57.1777 -16.9434 56.2988 -16.9434 C 55.5664 -16.9434 55.127 -17.2852 54.8828 -18.0176 L 51.8555 -26.709 L 37.3535 -26.709 L 34.3262 -18.0176 C 34.0332 -17.2852 33.5938 -16.9434 32.8613 -16.9434 C 31.9824 -16.9434 31.3477 -17.4805 31.3477 -18.3594 C 31.3477 -18.5547 31.3965 -18.7988 31.4941 -19.1406 L 34.1797 -26.709 L 31.6895 -26.709 C 30.8594 -26.709 30.3711 -27.2949 30.3711 -28.0273 Z M 40.3809 -35.791 L 48.7793 -35.791 L 44.5801 -47.8516 Z M 38.2324 -29.3457 L 50.9766 -29.3457 L 49.6582 -33.1055 L 39.502 -33.1055 Z"/>
  </g>
  <g id="Light-S" transform="matrix(1 0 0 1 1107.6 696)">
   <path d="M 45.5078 3.4668 C 66.6992 3.4668 84.2285 -14.0625 84.2285 -35.2051 C 84.2285 -56.3965 66.6504 -73.9258 45.5078 -73.9258 C 24.3164 -73.9258 6.83594 -56.3965 6.83594 -35.2051 C 6.83594 -14.0625 24.3652 3.4668 45.5078 3.4668 Z M 29.8828 -27.2949 C 29.8828 -28.3203 30.5176 -29.1016 31.5918 -29.1016 L 35.0586 -29.1016 L 36.2305 -32.6172 L 31.5918 -32.6172 C 30.5176 -32.6172 29.8828 -33.3496 29.8828 -34.375 C 29.8828 -35.4004 30.5176 -36.1816 31.5918 -36.1816 L 37.4512 -36.1816 L 42.7246 -52.0508 C 43.2129 -53.3203 44.043 -54.1016 45.5078 -54.1016 C 46.9238 -54.1016 47.8027 -53.2715 48.2422 -52.0508 L 53.5645 -36.1816 L 59.4238 -36.1816 C 60.498 -36.1816 61.1816 -35.4004 61.1816 -34.375 C 61.1816 -33.3496 60.498 -32.6172 59.4238 -32.6172 L 54.7852 -32.6172 L 55.957 -29.1016 L 59.4238 -29.1016 C 60.498 -29.1016 61.1816 -28.3203 61.1816 -27.2949 C 61.1816 -26.2695 60.498 -25.5371 59.4238 -25.5371 L 57.1289 -25.5371 L 59.2773 -19.2383 C 59.4238 -18.7012 59.5215 -18.3594 59.5215 -18.0664 C 59.5215 -16.8457 58.5938 -15.918 57.1777 -15.918 C 56.0547 -15.918 55.3223 -16.4551 54.9805 -17.627 L 52.3926 -25.5371 L 38.623 -25.5371 L 36.084 -17.6758 C 35.6934 -16.5039 34.9121 -15.918 33.8379 -15.918 C 32.4707 -15.918 31.4941 -16.8457 31.4941 -18.0664 C 31.4941 -18.3594 31.543 -18.7012 31.7383 -19.2383 L 33.8867 -25.5371 L 31.5918 -25.5371 C 30.5176 -25.5371 29.8828 -26.2695 29.8828 -27.2949 Z M 41.9434 -36.1816 L 49.0723 -36.1816 L 45.5078 -47.2168 Z M 39.6973 -29.1016 L 51.3184 -29.1016 L 50.1465 -32.6172 L 40.8691 -32.6172 Z"/>
  </g>
  <g id="Regular-S" transform="matrix(1 0 0 1 1403.58 696)">
   <path d="M 46.2402 4.15039 C 67.7734 4.15039 85.6934 -13.7207 85.6934 -35.2539 C 85.6934 -56.7871 67.7246 -74.6582 46.1914 -74.6582 C 24.707 -74.6582 6.83594 -56.7871 6.83594 -35.2539 C 6.83594 -13.7207 24.7559 4.15039 46.2402 4.15039 Z M 29.4434 -26.7578 C 29.4434 -27.9785 30.2734 -28.9551 31.543 -28.9551 L 35.0098 -28.9551 L 36.084 -32.1777 L 31.543 -32.1777 C 30.2734 -32.1777 29.4434 -33.1055 29.4434 -34.3262 C 29.4434 -35.5469 30.2734 -36.5234 31.543 -36.5234 L 37.5 -36.5234 L 42.6758 -52.5391 C 43.2617 -54.1504 44.2871 -55.127 46.1914 -55.127 C 48.0469 -55.127 49.1211 -54.1016 49.707 -52.5391 L 54.8828 -36.5234 L 60.9375 -36.5234 C 62.207 -36.5234 62.9883 -35.5469 62.9883 -34.3262 C 62.9883 -33.1055 62.207 -32.1777 60.9375 -32.1777 L 56.2988 -32.1777 L 57.373 -28.9551 L 60.9375 -28.9551 C 62.207 -28.9551 62.9883 -27.9785 62.9883 -26.7578 C 62.9883 -25.5371 62.207 -24.6094 60.9375 -24.6094 L 58.7402 -24.6094 L 60.498 -19.3359 C 60.6934 -18.6035 60.791 -18.2129 60.791 -17.8223 C 60.791 -16.3574 59.6191 -15.1855 57.9102 -15.1855 C 56.3965 -15.1855 55.4688 -15.8203 55.0781 -17.334 L 52.832 -24.6094 L 39.5996 -24.6094 L 37.3535 -17.3828 C 36.9629 -15.8691 35.9375 -15.1855 34.5215 -15.1855 C 32.8125 -15.1855 31.6406 -16.3574 31.6406 -17.8223 C 31.6406 -18.2129 31.6895 -18.6035 31.8848 -19.3359 L 33.6426 -24.6094 L 31.543 -24.6094 C 30.2734 -24.6094 29.4434 -25.5371 29.4434 -26.7578 Z M 43.1641 -36.5234 L 49.2676 -36.5234 L 46.1914 -46.7285 Z M 40.8691 -28.9551 L 51.5625 -28.9551 L 50.5859 -32.1777 L 41.8457 -32.1777 Z"/>
  </g>
  <g id="Medium-S" transform="matrix(1 0 0 1 1699.7 696)">
   <path d="M 46.8262 4.78516 C 68.75 4.78516 86.8652 -13.3301 86.8652 -35.2539 C 86.8652 -57.1289 68.7012 -75.2441 46.8262 -75.2441 C 24.9023 -75.2441 6.83594 -57.1289 6.83594 -35.2539 C 6.83594 -13.3301 24.9512 4.78516 46.8262 4.78516 Z M 29.6875 -26.6602 C 29.6875 -27.832 30.4688 -28.7109 31.6895 -28.7109 L 34.8145 -28.7109 L 35.8398 -31.8848 L 31.6895 -31.8848 C 30.4688 -31.8848 29.6875 -32.7637 29.6875 -33.9355 C 29.6875 -35.1074 30.4688 -35.9863 31.6895 -35.9863 L 37.1582 -35.9863 L 41.9922 -51.2695 C 42.7246 -53.5156 44.2871 -54.834 46.7773 -54.834 C 49.2188 -54.834 50.8301 -53.4668 51.5625 -51.2695 L 56.3965 -35.9863 L 61.9629 -35.9863 C 63.1836 -35.9863 63.9648 -35.1074 63.9648 -33.9355 C 63.9648 -32.7637 63.1836 -31.8848 61.9629 -31.8848 L 57.7148 -31.8848 L 58.6914 -28.7109 L 61.9629 -28.7109 C 63.1836 -28.7109 63.9648 -27.832 63.9648 -26.6602 C 63.9648 -25.4883 63.1836 -24.6582 61.9629 -24.6582 L 60.0098 -24.6582 L 61.377 -20.3613 C 61.6211 -19.6289 61.7188 -19.1406 61.7188 -18.7012 C 61.7188 -16.8457 60.3516 -15.5273 58.252 -15.5273 C 56.3965 -15.5273 55.3223 -16.3574 54.8828 -18.1152 L 52.9297 -24.6582 L 40.6738 -24.6582 L 38.7207 -18.1641 C 38.2324 -16.4062 37.1582 -15.5273 35.3516 -15.5273 C 33.252 -15.5273 31.8359 -16.8457 31.8359 -18.7012 C 31.8359 -19.1406 31.9336 -19.6289 32.1777 -20.3613 L 33.5449 -24.6582 L 31.6895 -24.6582 C 30.4688 -24.6582 29.6875 -25.4883 29.6875 -26.6602 Z M 43.9453 -35.9863 L 49.6094 -35.9863 L 46.7773 -45.6543 Z M 41.8457 -28.7109 L 51.7578 -28.7109 L 50.7812 -31.8848 L 42.7734 -31.8848 Z"/>
  </g>
  <g id="Semibold-S" transform="matrix(1 0 0 1 1995.98 696)">
   <path d="M 47.3145 5.22461 C 69.4824 5.22461 87.7441 -13.0371 87.7441 -35.2539 C 87.7441 -57.4219 69.4336 -75.6836 47.2656 -75.6836 C 25.0977 -75.6836 6.83594 -57.4219 6.83594 -35.2539 C 6.83594 -13.0371 25.0977 5.22461 47.3145 5.22461 Z M 29.8828 -26.6113 C 29.8828 -27.7344 30.6152 -28.5645 31.7871 -28.5645 L 34.7168 -28.5645 L 35.6445 -31.6895 L 31.7871 -31.6895 C 30.6152 -31.6895 29.8828 -32.4707 29.8828 -33.5938 C 29.8828 -34.7168 30.6152 -35.5469 31.7871 -35.5469 L 36.8652 -35.5469 L 41.5039 -50.293 C 42.2852 -52.9785 44.2871 -54.5898 47.2656 -54.5898 C 50.0977 -54.5898 52.0996 -52.9785 52.9297 -50.293 L 57.5684 -35.5469 L 62.7441 -35.5469 C 63.916 -35.5469 64.6484 -34.7168 64.6484 -33.5938 C 64.6484 -32.4707 63.916 -31.6895 62.7441 -31.6895 L 58.7891 -31.6895 L 59.7656 -28.5645 L 62.7441 -28.5645 C 63.916 -28.5645 64.6484 -27.7344 64.6484 -26.6113 C 64.6484 -25.4883 63.916 -24.707 62.7441 -24.707 L 60.9375 -24.707 L 62.1094 -21.1914 C 62.3047 -20.4102 62.4512 -19.873 62.4512 -19.3359 C 62.4512 -17.1875 60.8887 -15.7715 58.5449 -15.7715 C 56.3965 -15.7715 55.2246 -16.7969 54.6875 -18.75 L 52.9785 -24.707 L 41.5039 -24.707 L 39.7461 -18.75 C 39.2578 -16.8457 38.0859 -15.7715 35.9863 -15.7715 C 33.5938 -15.7715 32.0312 -17.1875 32.0312 -19.3359 C 32.0312 -19.873 32.1289 -20.4102 32.373 -21.1914 L 33.4961 -24.707 L 31.7871 -24.707 C 30.6152 -24.707 29.8828 -25.4883 29.8828 -26.6113 Z M 44.5801 -35.5469 L 49.9023 -35.5469 L 47.2656 -44.873 Z M 42.5781 -28.5645 L 51.9043 -28.5645 L 50.9766 -31.6895 L 43.5059 -31.6895 Z"/>
  </g>
  <g id="Bold-S" transform="matrix(1 0 0 1 2292.1 696)">
   <path d="M 47.9004 5.81055 C 70.4102 5.81055 88.916 -12.6465 88.916 -35.2051 C 88.916 -57.7637 70.4102 -76.2695 47.8516 -76.2695 C 25.293 -76.2695 6.83594 -57.7637 6.83594 -35.2051 C 6.83594 -12.6465 25.3418 5.81055 47.9004 5.81055 Z M 30.127 -26.5625 C 30.127 -27.5391 30.8105 -28.3691 31.8848 -28.3691 L 34.5215 -28.3691 L 35.4004 -31.3965 L 31.8848 -31.3965 C 30.8105 -31.3965 30.127 -32.1289 30.127 -33.1543 C 30.127 -34.2285 30.8105 -34.9609 31.8848 -34.9609 L 36.5234 -34.9609 L 40.8203 -49.0234 C 41.748 -52.3438 44.3359 -54.248 47.8516 -54.248 C 51.3184 -54.248 53.8574 -52.2949 54.834 -49.0234 L 59.082 -34.9609 L 63.8184 -34.9609 C 64.8926 -34.9609 65.625 -34.2285 65.625 -33.1543 C 65.625 -32.1289 64.8926 -31.3965 63.8184 -31.3965 L 60.2051 -31.3965 L 61.1328 -28.3691 L 63.8184 -28.3691 C 64.8926 -28.3691 65.625 -27.5391 65.625 -26.5625 C 65.625 -25.4883 64.8926 -24.7559 63.8184 -24.7559 L 62.207 -24.7559 L 63.0371 -22.2168 C 63.2324 -21.4355 63.3789 -20.8496 63.3789 -20.2148 C 63.3789 -17.6758 61.6211 -16.1133 58.9355 -16.1133 C 56.3965 -16.1133 55.0781 -17.334 54.4922 -19.5312 L 53.0273 -24.7559 L 42.5781 -24.7559 L 41.1133 -19.5312 C 40.5762 -17.3828 39.3066 -16.1133 36.7676 -16.1133 C 34.0332 -16.1133 32.2754 -17.6758 32.2754 -20.2148 C 32.2754 -20.8496 32.373 -21.4355 32.6172 -22.2168 L 33.3984 -24.7559 L 31.8848 -24.7559 C 30.8105 -24.7559 30.127 -25.4883 30.127 -26.5625 Z M 45.4102 -34.9609 L 50.2441 -34.9609 L 47.8516 -43.8477 Z M 43.5547 -28.3691 L 52.0996 -28.3691 L 51.2207 -31.3965 L 44.4336 -31.3965 Z"/>
  </g>
  <g id="Heavy-S" transform="matrix(1 0 0 1 2587.96 696)">
   <path d="M 48.7305 6.68945 C 71.8262 6.68945 90.625 -12.1094 90.625 -35.2051 C 90.625 -58.3008 71.8262 -77.0996 48.7305 -77.0996 C 25.6348 -77.0996 6.83594 -58.3008 6.83594 -35.2051 C 6.83594 -12.1094 25.6348 6.68945 48.7305 6.68945 Z M 30.4688 -26.4648 C 30.4688 -27.3438 31.1035 -28.0762 32.0801 -28.0762 L 34.2285 -28.0762 L 35.0586 -30.957 L 32.0801 -30.957 C 31.1035 -30.957 30.4688 -31.5918 30.4688 -32.5684 C 30.4688 -33.5449 31.1035 -34.1797 32.0801 -34.1797 L 36.0352 -34.1797 L 39.7949 -47.1191 C 40.9668 -51.3672 44.3359 -53.8086 48.6816 -53.8086 C 53.0273 -53.8086 56.2988 -51.3672 57.5195 -47.1191 L 61.3281 -34.1797 L 65.3809 -34.1797 C 66.3574 -34.1797 66.9922 -33.5449 66.9922 -32.5684 C 66.9922 -31.5918 66.3574 -30.957 65.3809 -30.957 L 62.2559 -30.957 L 63.0859 -28.0762 L 65.3809 -28.0762 C 66.3574 -28.0762 66.9922 -27.3438 66.9922 -26.4648 C 66.9922 -25.4883 66.3574 -24.8535 65.3809 -24.8535 L 64.0625 -24.8535 L 64.3555 -23.7793 C 64.5996 -22.9492 64.6973 -22.2656 64.6973 -21.4844 C 64.6973 -18.3594 62.6953 -16.6016 59.5215 -16.6016 C 56.4453 -16.6016 54.834 -18.1152 54.1992 -20.7031 L 53.1738 -24.8535 L 44.1895 -24.8535 L 43.1152 -20.7031 C 42.4805 -18.1641 41.1133 -16.6016 37.9883 -16.6016 C 34.7168 -16.6016 32.5684 -18.3594 32.5684 -21.4844 C 32.5684 -22.2656 32.7148 -22.9492 32.959 -23.7793 L 33.252 -24.8535 L 32.0801 -24.8535 C 31.1035 -24.8535 30.4688 -25.4883 30.4688 -26.4648 Z M 46.582 -34.1797 L 50.7324 -34.1797 L 48.6816 -42.334 Z M 44.9707 -28.0762 L 52.3438 -28.0762 L 51.5625 -30.957 L 45.752 -30.957 Z"/>
  </g>
  <g id="Black-S" transform="matrix(1 0 0 1 2883.89 696)">
   <path d="M 49.5117 7.4707 C 73.0957 7.4707 92.1875 -11.6211 92.1875 -35.2051 C 92.1875 -58.7891 73.0957 -77.8809 49.5117 -77.8809 C 25.9277 -77.8809 6.83594 -58.7891 6.83594 -35.2051 C 6.83594 -11.6211 25.9277 7.4707 49.5117 7.4707 Z M 30.7617 -26.3672 C 30.7617 -27.0996 31.3477 -27.7832 32.2266 -27.7832 L 34.0332 -27.7832 L 34.7168 -30.5664 L 32.2266 -30.5664 C 31.3477 -30.5664 30.7617 -31.1035 30.7617 -32.0312 C 30.7617 -32.9102 31.3477 -33.4473 32.2266 -33.4473 L 35.5469 -33.4473 L 38.916 -45.459 C 40.2832 -50.4883 44.3359 -53.3691 49.4629 -53.3691 C 54.541 -53.3691 58.5449 -50.4883 59.9121 -45.459 L 63.2812 -33.4473 L 66.748 -33.4473 C 67.627 -33.4473 68.2129 -32.9102 68.2129 -32.0312 C 68.2129 -31.1035 67.627 -30.5664 66.748 -30.5664 L 64.0625 -30.5664 L 64.8438 -27.7832 L 66.748 -27.7832 C 67.627 -27.7832 68.2129 -27.0996 68.2129 -26.3672 C 68.2129 -25.4395 67.627 -24.9023 66.748 -24.9023 L 65.7227 -24.9023 L 65.5762 -25.1465 C 65.8203 -24.2676 65.918 -23.5352 65.918 -22.6562 C 65.918 -18.9941 63.623 -17.041 60.0098 -17.041 C 56.4453 -17.041 54.6387 -18.8477 53.9551 -21.7285 L 53.2227 -24.9023 L 45.6055 -24.9023 L 44.9219 -21.6797 C 44.1895 -18.8965 42.6758 -17.041 39.0137 -17.041 C 35.3027 -17.041 32.9102 -18.9941 32.9102 -22.6562 C 32.9102 -23.5352 33.0566 -24.2676 33.3008 -25.1465 L 33.1543 -24.9023 L 32.2266 -24.9023 C 31.3477 -24.9023 30.7617 -25.4395 30.7617 -26.3672 Z M 47.6562 -33.4473 L 51.1719 -33.4473 L 49.4629 -40.9668 Z M 46.2402 -27.7832 L 52.5879 -27.7832 L 51.9043 -30.5664 L 46.9727 -30.5664 Z"/>
  </g>
  <g id="Ultralight-M" transform="matrix(1 0 0 1 503.656 1126)">
   <path d="M 56.0547 12.207 C 82.0801 12.207 103.369 -9.08203 103.369 -35.1562 C 103.369 -61.1816 82.0801 -82.4707 56.0547 -82.4707 C 30.0293 -82.4707 8.74023 -61.1816 8.74023 -35.1562 C 8.74023 -9.08203 30.0293 12.207 56.0547 12.207 Z M 39.209 -26.6113 C 39.209 -27.3438 39.6973 -27.9297 40.5273 -27.9297 L 44.8242 -27.9297 L 46.6309 -32.959 L 40.5273 -32.959 C 39.6973 -32.959 39.209 -33.5449 39.209 -34.2773 C 39.209 -34.9609 39.6973 -35.5469 40.5273 -35.5469 L 47.6074 -35.5469 L 54.7363 -55.2246 C 54.9805 -55.957 55.5176 -56.2988 56.1035 -56.2988 C 56.6895 -56.2988 57.2754 -55.957 57.5195 -55.2246 L 64.5996 -35.5469 L 71.582 -35.5469 C 72.3633 -35.5469 72.8516 -34.9609 72.8516 -34.2773 C 72.8516 -33.5449 72.3633 -32.959 71.582 -32.959 L 65.5762 -32.959 L 67.4316 -27.9297 L 71.582 -27.9297 C 72.3633 -27.9297 72.8516 -27.3438 72.8516 -26.6113 C 72.8516 -25.9766 72.3633 -25.3418 71.582 -25.3418 L 68.3105 -25.3418 L 72.2168 -14.6484 C 72.3633 -14.4043 72.3633 -14.1602 72.3633 -13.9648 C 72.3633 -13.0859 71.7773 -12.7441 71.0449 -12.7441 C 70.5078 -12.7441 70.166 -13.0371 69.9219 -13.5742 L 65.6738 -25.3418 L 46.582 -25.3418 L 42.3828 -13.5742 C 42.041 -13.0371 41.6992 -12.7441 41.1621 -12.7441 C 40.4297 -12.7441 39.8926 -13.0859 39.8926 -13.9648 C 39.8926 -14.1602 39.9414 -14.4043 39.9902 -14.6484 L 43.8965 -25.3418 L 40.5273 -25.3418 C 39.6973 -25.3418 39.209 -25.9766 39.209 -26.6113 Z M 50.2441 -35.5469 L 62.0117 -35.5469 L 56.1035 -51.8555 Z M 47.4609 -27.9297 L 64.7461 -27.9297 L 62.9395 -32.959 L 49.3164 -32.959 Z"/>
  </g>
  <g id="Thin-M" transform="matrix(1 0 0 1 799.806 1126)">
   <path d="M 56.5918 12.7441 C 82.9102 12.7441 104.492 -8.83789 104.492 -35.1562 C 104.492 -61.4746 82.9102 -83.0566 56.5918 -83.0566 C 30.3223 -83.0566 8.74023 -61.4746 8.74023 -35.1562 C 8.74023 -8.83789 30.3223 12.7441 56.5918 12.7441 Z M 38.916 -26.2207 C 38.916 -27.0996 39.502 -27.7832 40.4785 -27.7832 L 44.7754 -27.7832 L 46.5332 -32.666 L 40.4785 -32.666 C 39.502 -32.666 38.916 -33.3496 38.916 -34.2285 C 38.916 -35.0586 39.502 -35.791 40.4785 -35.791 L 47.6562 -35.791 L 54.6875 -55.6152 C 55.0293 -56.5918 55.7129 -57.1289 56.6406 -57.1289 C 57.5684 -57.1289 58.3008 -56.5918 58.5938 -55.6152 L 65.625 -35.791 L 72.7539 -35.791 C 73.6816 -35.791 74.2676 -35.0586 74.2676 -34.2285 C 74.2676 -33.3496 73.6816 -32.666 72.7539 -32.666 L 66.7969 -32.666 L 68.5059 -27.7832 L 72.7539 -27.7832 C 73.6816 -27.7832 74.2676 -27.0996 74.2676 -26.2207 C 74.2676 -25.3906 73.6816 -24.6582 72.7539 -24.6582 L 69.5801 -24.6582 L 73.1445 -14.6973 C 73.291 -14.3066 73.3398 -14.0137 73.3398 -13.7695 C 73.3398 -12.7441 72.6074 -12.1582 71.582 -12.1582 C 70.8008 -12.1582 70.3125 -12.5488 69.9707 -13.3789 L 66.0156 -24.6582 L 47.3145 -24.6582 L 43.3594 -13.3789 C 43.0176 -12.5977 42.4805 -12.1582 41.6992 -12.1582 C 40.6738 -12.1582 39.9902 -12.7441 39.9902 -13.7695 C 39.9902 -14.0137 40.0391 -14.3066 40.1367 -14.6973 L 43.7012 -24.6582 L 40.4785 -24.6582 C 39.502 -24.6582 38.916 -25.3906 38.916 -26.2207 Z M 51.123 -35.791 L 62.1582 -35.791 L 56.6406 -51.5137 Z M 48.3398 -27.7832 L 64.9414 -27.7832 L 63.2324 -32.666 L 50.0488 -32.666 Z"/>
  </g>
  <g id="Light-M" transform="matrix(1 0 0 1 1095.42 1126)">
   <path d="M 57.7148 13.7695 C 84.5215 13.7695 106.689 -8.39844 106.689 -35.2051 C 106.689 -62.0117 84.4727 -84.1797 57.666 -84.1797 C 30.8594 -84.1797 8.74023 -62.0117 8.74023 -35.2051 C 8.74023 -8.39844 30.8594 13.7695 57.7148 13.7695 Z M 38.3301 -25.3906 C 38.3301 -26.6113 39.1113 -27.5391 40.3809 -27.5391 L 44.7266 -27.5391 L 46.2891 -32.0801 L 40.3809 -32.0801 C 39.1113 -32.0801 38.3301 -32.959 38.3301 -34.1797 C 38.3301 -35.3516 39.1113 -36.2793 40.3809 -36.2793 L 47.7539 -36.2793 L 54.5898 -56.3965 C 55.0781 -57.8613 56.0547 -58.6914 57.7148 -58.6914 C 59.2773 -58.6914 60.2539 -57.8125 60.791 -56.3965 L 67.627 -36.2793 L 75 -36.2793 C 76.2695 -36.2793 77.0508 -35.3516 77.0508 -34.1797 C 77.0508 -32.959 76.2695 -32.0801 75 -32.0801 L 69.0918 -32.0801 L 70.6055 -27.5391 L 75 -27.5391 C 76.2695 -27.5391 77.0508 -26.6113 77.0508 -25.3906 C 77.0508 -24.2188 76.2695 -23.3398 75 -23.3398 L 72.0215 -23.3398 L 74.9512 -14.7949 C 75.1465 -14.209 75.2441 -13.7695 75.2441 -13.4277 C 75.2441 -12.0117 74.1699 -11.0352 72.6074 -11.0352 C 71.3379 -11.0352 70.5078 -11.6211 70.1172 -12.9395 L 66.6504 -23.3398 L 48.7305 -23.3398 L 45.3125 -12.9395 C 44.873 -11.6699 43.9941 -11.0352 42.7734 -11.0352 C 41.2109 -11.0352 40.1367 -12.0117 40.1367 -13.4277 C 40.1367 -13.7695 40.1855 -14.209 40.3809 -14.7949 L 43.3594 -23.3398 L 40.3809 -23.3398 C 39.1113 -23.3398 38.3301 -24.2188 38.3301 -25.3906 Z M 52.9297 -36.2793 L 62.5 -36.2793 L 57.7148 -50.7812 Z M 50.0488 -27.5391 L 65.332 -27.5391 L 63.8184 -32.0801 L 51.5625 -32.0801 Z"/>
  </g>
  <g id="Regular-M" transform="matrix(1 0 0 1 1391.32 1126)">
   <path d="M 58.5449 14.5508 C 85.7422 14.5508 108.35 -8.00781 108.35 -35.2539 C 108.35 -62.4512 85.6934 -85.0586 58.4961 -85.0586 C 31.25 -85.0586 8.74023 -62.4512 8.74023 -35.2539 C 8.74023 -8.00781 31.2988 14.5508 58.5449 14.5508 Z M 37.8906 -24.8047 C 37.8906 -26.2207 38.8184 -27.3438 40.332 -27.3438 L 44.7266 -27.3438 L 46.1426 -31.6406 L 40.332 -31.6406 C 38.8184 -31.6406 37.8906 -32.666 37.8906 -34.1309 C 37.8906 -35.5469 38.8184 -36.6699 40.332 -36.6699 L 47.8027 -36.6699 L 54.541 -56.9824 C 55.1758 -58.7891 56.3477 -59.9121 58.4961 -59.9121 C 60.5469 -59.9121 61.7676 -58.7402 62.4023 -56.9824 L 69.1406 -36.6699 L 76.709 -36.6699 C 78.1738 -36.6699 79.1504 -35.5469 79.1504 -34.1309 C 79.1504 -32.666 78.1738 -31.6406 76.709 -31.6406 L 70.8008 -31.6406 L 72.2168 -27.3438 L 76.709 -27.3438 C 78.1738 -27.3438 79.1504 -26.2207 79.1504 -24.8047 C 79.1504 -23.3887 78.1738 -22.3145 76.709 -22.3145 L 73.8281 -22.3145 L 76.3672 -14.8926 C 76.5625 -14.1113 76.709 -13.5742 76.709 -13.1836 C 76.709 -11.4746 75.3906 -10.1562 73.3887 -10.1562 C 71.7285 -10.1562 70.7031 -10.8887 70.2148 -12.5977 L 67.1387 -22.3145 L 49.8535 -22.3145 L 46.7773 -12.6465 C 46.2891 -10.9375 45.166 -10.1562 43.6035 -10.1562 C 41.6016 -10.1562 40.2832 -11.4746 40.2832 -13.1836 C 40.2832 -13.5742 40.332 -14.1113 40.5762 -14.8926 L 43.1152 -22.3145 L 40.332 -22.3145 C 38.8184 -22.3145 37.8906 -23.3887 37.8906 -24.8047 Z M 54.248 -36.6699 L 62.7441 -36.6699 L 58.4961 -50.2441 Z M 51.3672 -27.3438 L 65.625 -27.3438 L 64.2578 -31.6406 L 52.7344 -31.6406 Z"/>
  </g>
  <g id="Medium-M" transform="matrix(1 0 0 1 1687.33 1126)">
   <path d="M 59.2285 15.2832 C 86.8652 15.2832 109.717 -7.56836 109.717 -35.2051 C 109.717 -62.8906 86.8164 -85.7422 59.1797 -85.7422 C 31.543 -85.7422 8.74023 -62.8906 8.74023 -35.2051 C 8.74023 -7.56836 31.5918 15.2832 59.2285 15.2832 Z M 38.0859 -24.6582 C 38.0859 -26.0254 38.9648 -27.0996 40.4297 -27.0996 L 44.5312 -27.0996 L 45.8496 -31.2988 L 40.4297 -31.2988 C 38.9648 -31.2988 38.0859 -32.2754 38.0859 -33.6914 C 38.0859 -35.0586 38.9648 -36.1328 40.4297 -36.1328 L 47.4609 -36.1328 L 53.8086 -55.7617 C 54.6387 -58.252 56.3965 -59.7168 59.1797 -59.7168 C 61.8652 -59.7168 63.6719 -58.2031 64.502 -55.7617 L 70.8496 -36.1328 L 77.9785 -36.1328 C 79.4434 -36.1328 80.3223 -35.0586 80.3223 -33.6914 C 80.3223 -32.2754 79.4434 -31.2988 77.9785 -31.2988 L 72.4609 -31.2988 L 73.7793 -27.0996 L 77.9785 -27.0996 C 79.4434 -27.0996 80.3223 -26.0254 80.3223 -24.6582 C 80.3223 -23.2422 79.4434 -22.2656 77.9785 -22.2656 L 75.3418 -22.2656 L 77.4414 -15.9668 C 77.6855 -15.1367 77.832 -14.5508 77.832 -14.0137 C 77.832 -11.8652 76.2695 -10.4004 73.877 -10.4004 C 71.7773 -10.4004 70.5566 -11.377 70.0195 -13.3789 L 67.2852 -22.2656 L 51.0742 -22.2656 L 48.3398 -13.3789 C 47.8027 -11.4258 46.5332 -10.4004 44.5312 -10.4004 C 42.1387 -10.4004 40.5273 -11.8652 40.5273 -14.0137 C 40.5273 -14.5508 40.625 -15.1367 40.8691 -15.9668 L 42.9688 -22.2656 L 40.4297 -22.2656 C 38.9648 -22.2656 38.0859 -23.2422 38.0859 -24.6582 Z M 55.2246 -36.1328 L 63.1348 -36.1328 L 59.1797 -49.1211 Z M 52.4902 -27.0996 L 65.8691 -27.0996 L 64.5508 -31.2988 L 53.8086 -31.2988 Z"/>
  </g>
  <g id="Semibold-M" transform="matrix(1 0 0 1 1983.5 1126)">
   <path d="M 59.7656 15.8203 C 87.7441 15.8203 110.791 -7.22656 110.791 -35.2051 C 110.791 -63.1836 87.6953 -86.2793 59.7168 -86.2793 C 31.7383 -86.2793 8.74023 -63.1836 8.74023 -35.2051 C 8.74023 -7.22656 31.7871 15.8203 59.7656 15.8203 Z M 38.2324 -24.5117 C 38.2324 -25.8789 39.1113 -26.9043 40.5273 -26.9043 L 44.3848 -26.9043 L 45.6543 -31.0059 L 40.5273 -31.0059 C 39.1113 -31.0059 38.2324 -31.9824 38.2324 -33.3496 C 38.2324 -34.7168 39.1113 -35.7422 40.5273 -35.7422 L 47.2168 -35.7422 L 53.2715 -54.7852 C 54.1992 -57.8125 56.4453 -59.5703 59.7168 -59.5703 C 62.9395 -59.5703 65.1367 -57.7637 66.1133 -54.7852 L 72.168 -35.7422 L 78.9551 -35.7422 C 80.3711 -35.7422 81.25 -34.7168 81.25 -33.3496 C 81.25 -31.9824 80.3711 -31.0059 78.9551 -31.0059 L 73.6816 -31.0059 L 75 -26.9043 L 78.9551 -26.9043 C 80.3711 -26.9043 81.25 -25.8789 81.25 -24.5117 C 81.25 -23.1934 80.3711 -22.168 78.9551 -22.168 L 76.5137 -22.168 L 78.2715 -16.7969 C 78.5156 -15.918 78.6621 -15.2832 78.6621 -14.6973 C 78.6621 -12.207 76.9043 -10.5957 74.2676 -10.5957 C 71.8262 -10.5957 70.459 -11.7188 69.873 -13.9648 L 67.3828 -22.168 L 52.0508 -22.168 L 49.5605 -13.9648 C 48.9258 -11.8164 47.6074 -10.5957 45.2148 -10.5957 C 42.5293 -10.5957 40.7227 -12.207 40.7227 -14.6973 C 40.7227 -15.2832 40.8203 -15.918 41.1133 -16.7969 L 42.8711 -22.168 L 40.5273 -22.168 C 39.1113 -22.168 38.2324 -23.1934 38.2324 -24.5117 Z M 56.0059 -35.7422 L 63.4277 -35.7422 L 59.7168 -48.2422 Z M 53.3691 -26.9043 L 66.0156 -26.9043 L 64.7949 -31.0059 L 54.6387 -31.0059 Z"/>
  </g>
  <g id="Bold-M" transform="matrix(1 0 0 1 2279.5 1126)">
   <path d="M 60.4492 16.5039 C 88.8672 16.5039 112.207 -6.78711 112.207 -35.2051 C 112.207 -63.623 88.8672 -86.9629 60.4492 -86.9629 C 32.0312 -86.9629 8.74023 -63.623 8.74023 -35.2051 C 8.74023 -6.78711 32.0801 16.5039 60.4492 16.5039 Z M 38.4277 -24.3652 C 38.4277 -25.6348 39.2578 -26.6602 40.625 -26.6602 L 44.1895 -26.6602 L 45.4102 -30.6641 L 40.625 -30.6641 C 39.2578 -30.6641 38.4277 -31.5918 38.4277 -32.9102 C 38.4277 -34.2285 39.2578 -35.2051 40.625 -35.2051 L 46.8262 -35.2051 L 52.5879 -53.5645 C 53.6621 -57.2266 56.4941 -59.375 60.4004 -59.375 C 64.2578 -59.375 67.0898 -57.2266 68.2129 -53.5645 L 73.9258 -35.2051 L 80.2246 -35.2051 C 81.5918 -35.2051 82.4707 -34.2285 82.4707 -32.9102 C 82.4707 -31.5918 81.5918 -30.6641 80.2246 -30.6641 L 75.3418 -30.6641 L 76.6113 -26.6602 L 80.2246 -26.6602 C 81.5918 -26.6602 82.4707 -25.6348 82.4707 -24.3652 C 82.4707 -23.0469 81.5918 -22.1191 80.2246 -22.1191 L 78.0273 -22.1191 L 79.3945 -17.8711 C 79.6875 -16.9434 79.7852 -16.2598 79.7852 -15.5273 C 79.7852 -12.6465 77.832 -10.8398 74.7559 -10.8398 C 71.875 -10.8398 70.3613 -12.207 69.6777 -14.7461 L 67.5293 -22.1191 L 53.2715 -22.1191 L 51.123 -14.7461 C 50.4395 -12.2559 48.9746 -10.8398 46.1426 -10.8398 C 43.0176 -10.8398 40.9668 -12.6465 40.9668 -15.5273 C 40.9668 -16.2598 41.1133 -16.9434 41.3574 -17.8711 L 42.7734 -22.1191 L 40.625 -22.1191 C 39.2578 -22.1191 38.4277 -23.0469 38.4277 -24.3652 Z M 56.9824 -35.2051 L 63.8184 -35.2051 L 60.4004 -47.1191 Z M 54.541 -26.6602 L 66.2598 -26.6602 L 65.0879 -30.6641 L 55.7129 -30.6641 Z"/>
  </g>
  <g id="Heavy-M" transform="matrix(1 0 0 1 2575.19 1126)">
   <path d="M 61.4746 17.5781 C 90.5273 17.5781 114.258 -6.15234 114.258 -35.2051 C 114.258 -64.2578 90.5273 -87.9883 61.4746 -87.9883 C 32.4219 -87.9883 8.74023 -64.2578 8.74023 -35.2051 C 8.74023 -6.15234 32.4707 17.5781 61.4746 17.5781 Z M 38.6719 -24.1699 C 38.6719 -25.3418 39.502 -26.3184 40.8203 -26.3184 L 43.8965 -26.3184 L 45.0195 -30.127 L 40.8203 -30.127 C 39.502 -30.127 38.6719 -31.0059 38.6719 -32.2754 C 38.6719 -33.5449 39.502 -34.4238 40.8203 -34.4238 L 46.3379 -34.4238 L 51.5625 -51.709 C 52.8809 -56.3965 56.543 -59.1309 61.4258 -59.1309 C 66.2598 -59.1309 69.873 -56.3965 71.2402 -51.709 L 76.4648 -34.4238 L 82.1289 -34.4238 C 83.3984 -34.4238 84.2285 -33.5449 84.2285 -32.2754 C 84.2285 -31.0059 83.3984 -30.127 82.1289 -30.127 L 77.7344 -30.127 L 78.9062 -26.3184 L 82.1289 -26.3184 C 83.3984 -26.3184 84.2285 -25.3418 84.2285 -24.1699 C 84.2285 -22.9004 83.3984 -22.0215 82.1289 -22.0215 L 80.2246 -22.0215 L 81.0059 -19.4824 C 81.2988 -18.457 81.4453 -17.6758 81.4453 -16.7969 C 81.4453 -13.2812 79.1016 -11.1816 75.4395 -11.1816 C 71.9727 -11.1816 70.166 -12.8906 69.3848 -15.8691 L 67.7246 -22.0215 L 55.127 -22.0215 L 53.418 -15.8691 C 52.6855 -12.9883 51.0254 -11.1816 47.5098 -11.1816 C 43.75 -11.1816 41.3574 -13.2812 41.3574 -16.7969 C 41.3574 -17.6758 41.5039 -18.457 41.7969 -19.4824 L 42.5781 -22.0215 L 40.8203 -22.0215 C 39.502 -22.0215 38.6719 -22.9004 38.6719 -24.1699 Z M 58.4473 -34.4238 L 64.3555 -34.4238 L 61.4258 -45.459 Z M 56.2012 -26.3184 L 66.6016 -26.3184 L 65.5273 -30.127 L 57.2754 -30.127 Z"/>
  </g>
  <g id="Black-M" transform="matrix(1 0 0 1 2871 1126)">
   <path d="M 62.4023 18.457 C 91.9922 18.457 116.064 -5.61523 116.064 -35.2051 C 116.064 -64.7949 91.9922 -88.8672 62.4023 -88.8672 C 32.8125 -88.8672 8.74023 -64.7949 8.74023 -35.2051 C 8.74023 -5.61523 32.8125 18.457 62.4023 18.457 Z M 38.916 -23.9746 C 38.916 -25.0977 39.7461 -26.0254 40.9668 -26.0254 L 43.6523 -26.0254 L 44.6777 -29.6875 L 40.9668 -29.6875 C 39.7461 -29.6875 38.916 -30.4688 38.916 -31.7383 C 38.916 -32.959 39.7461 -33.7402 40.9668 -33.7402 L 45.8984 -33.7402 L 50.6348 -50.0977 C 52.1484 -55.6641 56.5918 -58.8867 62.3535 -58.8867 C 68.0176 -58.8867 72.4121 -55.6641 73.9746 -50.0977 L 78.7109 -33.7402 L 83.7891 -33.7402 C 85.0098 -33.7402 85.791 -32.959 85.791 -31.7383 C 85.791 -30.4688 85.0098 -29.6875 83.7891 -29.6875 L 79.8828 -29.6875 L 80.957 -26.0254 L 83.7891 -26.0254 C 85.0098 -26.0254 85.791 -25.0977 85.791 -23.9746 C 85.791 -22.7539 85.0098 -21.9238 83.7891 -21.9238 L 82.1777 -21.9238 L 82.4707 -20.8984 C 82.7637 -19.8242 82.8613 -18.9453 82.8613 -17.9199 C 82.8613 -13.8184 80.2246 -11.5234 76.0742 -11.5234 C 72.0703 -11.5234 69.9707 -13.5254 69.1406 -16.8457 L 67.8711 -21.9238 L 56.7383 -21.9238 L 55.4688 -16.8457 C 54.6387 -13.5742 52.832 -11.5234 48.7305 -11.5234 C 44.4336 -11.5234 41.6504 -13.8184 41.6504 -17.9199 C 41.6504 -18.9453 41.8457 -19.8242 42.1875 -20.8984 L 42.4316 -21.9238 L 40.9668 -21.9238 C 39.7461 -21.9238 38.916 -22.7539 38.916 -23.9746 Z M 59.7656 -33.7402 L 64.8438 -33.7402 L 62.3535 -43.9941 Z M 57.7148 -26.0254 L 66.8945 -26.0254 L 65.918 -29.6875 L 58.6914 -29.6875 Z"/>
  </g>
  <g id="Ultralight-L" transform="matrix(1 0 0 1 487.641 1556)">
   <path d="M 72.0703 25.7324 C 105.566 25.7324 132.91 -1.61133 132.91 -35.1074 C 132.91 -68.5547 105.566 -95.8984 72.0703 -95.8984 C 38.623 -95.8984 11.2793 -68.5547 11.2793 -35.1074 C 11.2793 -1.61133 38.623 25.7324 72.0703 25.7324 Z M 50.7324 -24.3164 C 50.7324 -25.1953 51.3184 -25.8301 52.2949 -25.8301 L 57.8125 -25.8301 L 60.2051 -32.4707 L 52.2949 -32.4707 C 51.3184 -32.4707 50.7324 -33.1055 50.7324 -33.9844 C 50.7324 -34.8145 51.3184 -35.5469 52.2949 -35.5469 L 61.4258 -35.5469 L 70.6543 -60.8887 C 70.8984 -61.7188 71.5332 -62.1094 72.168 -62.1094 C 72.8027 -62.1094 73.4375 -61.7188 73.7305 -60.8887 L 82.9102 -35.5469 L 91.8457 -35.5469 C 92.8223 -35.5469 93.4082 -34.8145 93.4082 -33.9844 C 93.4082 -33.1055 92.8223 -32.4707 91.8457 -32.4707 L 84.1309 -32.4707 L 86.5234 -25.8301 L 91.8457 -25.8301 C 92.8223 -25.8301 93.4082 -25.1953 93.4082 -24.3164 C 93.4082 -23.5352 92.8223 -22.7539 91.8457 -22.7539 L 87.6465 -22.7539 L 92.7734 -8.64258 C 92.9199 -8.34961 92.9199 -8.05664 92.9199 -7.86133 C 92.9199 -6.83594 92.2852 -6.49414 91.4551 -6.49414 C 90.8691 -6.49414 90.4785 -6.83594 90.1855 -7.42188 L 84.5703 -22.7539 L 59.7656 -22.7539 L 54.248 -7.42188 C 53.8574 -6.83594 53.4668 -6.49414 52.8809 -6.49414 C 52.0508 -6.49414 51.416 -6.83594 51.416 -7.86133 C 51.416 -8.05664 51.5137 -8.34961 51.5625 -8.64258 L 56.6895 -22.7539 L 52.2949 -22.7539 C 51.3184 -22.7539 50.7324 -23.5352 50.7324 -24.3164 Z M 64.4043 -35.5469 L 79.9316 -35.5469 L 72.168 -56.8848 Z M 60.8887 -25.8301 L 83.4473 -25.8301 L 81.0547 -32.4707 L 63.2812 -32.4707 Z"/>
  </g>
  <g id="Thin-L" transform="matrix(1 0 0 1 783.717 1556)">
   <path d="M 72.7051 26.3184 C 106.494 26.3184 134.131 -1.36719 134.131 -35.1074 C 134.131 -68.8965 106.445 -96.582 72.7051 -96.582 C 38.916 -96.582 11.2793 -68.8965 11.2793 -35.1074 C 11.2793 -1.36719 38.916 26.3184 72.7051 26.3184 Z M 50.3906 -23.8281 C 50.3906 -24.9023 51.123 -25.6836 52.2461 -25.6836 L 57.8125 -25.6836 L 60.1074 -32.1289 L 52.2461 -32.1289 C 51.123 -32.1289 50.3906 -32.9102 50.3906 -33.9844 C 50.3906 -34.9609 51.123 -35.791 52.2461 -35.791 L 61.4746 -35.791 L 70.6055 -61.3281 C 70.9473 -62.4023 71.7773 -62.9883 72.7539 -62.9883 C 73.7793 -62.9883 74.5605 -62.4023 74.9512 -61.3281 L 84.082 -35.791 L 93.1641 -35.791 C 94.2871 -35.791 94.9707 -34.9609 94.9707 -33.9844 C 94.9707 -32.9102 94.2871 -32.1289 93.1641 -32.1289 L 85.4492 -32.1289 L 87.7441 -25.6836 L 93.1641 -25.6836 C 94.2871 -25.6836 94.9707 -24.9023 94.9707 -23.8281 C 94.9707 -22.8516 94.2871 -22.0215 93.1641 -22.0215 L 89.0137 -22.0215 L 93.8477 -8.69141 C 93.9941 -8.30078 93.9941 -7.95898 93.9941 -7.66602 C 93.9941 -6.44531 93.2129 -5.81055 92.041 -5.81055 C 91.2109 -5.81055 90.625 -6.29883 90.2832 -7.17773 L 84.9609 -22.0215 L 60.5957 -22.0215 L 55.3223 -7.17773 C 54.9316 -6.29883 54.3457 -5.81055 53.4668 -5.81055 C 52.3438 -5.81055 51.5137 -6.44531 51.5137 -7.66602 C 51.5137 -7.95898 51.6113 -8.30078 51.709 -8.69141 L 56.4941 -22.0215 L 52.2461 -22.0215 C 51.123 -22.0215 50.3906 -22.8516 50.3906 -23.8281 Z M 65.4297 -35.791 L 80.127 -35.791 L 72.7539 -56.4453 Z M 61.8652 -25.6836 L 83.6914 -25.6836 L 81.3965 -32.1289 L 64.1602 -32.1289 Z"/>
  </g>
  <g id="Light-L" transform="matrix(1 0 0 1 1079.21 1556)">
   <path d="M 73.9258 27.4902 C 108.301 27.4902 136.572 -0.830078 136.572 -35.1562 C 136.572 -69.5312 108.252 -97.8516 73.877 -97.8516 C 39.5508 -97.8516 11.2793 -69.5312 11.2793 -35.1562 C 11.2793 -0.830078 39.5508 27.4902 73.9258 27.4902 Z M 49.7559 -22.9492 C 49.7559 -24.3652 50.6836 -25.3906 52.1484 -25.3906 L 57.7637 -25.3906 L 59.8633 -31.4453 L 52.1484 -31.4453 C 50.6836 -31.4453 49.7559 -32.4707 49.7559 -33.8867 C 49.7559 -35.2539 50.6836 -36.3281 52.1484 -36.3281 L 61.5723 -36.3281 L 70.5078 -62.1582 C 71.0449 -63.8184 72.168 -64.7461 73.9258 -64.7461 C 75.6348 -64.7461 76.8066 -63.7695 77.3926 -62.1582 L 86.2793 -36.3281 L 95.6543 -36.3281 C 97.168 -36.3281 98.0469 -35.2539 98.0469 -33.8867 C 98.0469 -32.4707 97.168 -31.4453 95.6543 -31.4453 L 87.9883 -31.4453 L 90.0879 -25.3906 L 95.6543 -25.3906 C 97.168 -25.3906 98.0469 -24.3652 98.0469 -22.9492 C 98.0469 -21.582 97.168 -20.5078 95.6543 -20.5078 L 91.748 -20.5078 L 95.8496 -8.78906 C 96.0938 -8.1543 96.1914 -7.66602 96.1914 -7.27539 C 96.1914 -5.61523 94.9707 -4.54102 93.2129 -4.54102 C 91.7969 -4.54102 90.8691 -5.22461 90.4297 -6.68945 L 85.6934 -20.5078 L 62.207 -20.5078 L 57.5195 -6.68945 C 56.9824 -5.27344 56.0547 -4.54102 54.6875 -4.54102 C 52.9297 -4.54102 51.709 -5.61523 51.709 -7.27539 C 51.709 -7.66602 51.8066 -8.1543 52.002 -8.78906 L 56.1035 -20.5078 L 52.1484 -20.5078 C 50.6836 -20.5078 49.7559 -21.582 49.7559 -22.9492 Z M 67.3828 -36.3281 L 80.4688 -36.3281 L 73.9258 -55.6641 Z M 63.7695 -25.3906 L 84.1309 -25.3906 L 82.0801 -31.4453 L 65.8203 -31.4453 Z"/>
  </g>
  <g id="Regular-L" transform="matrix(1 0 0 1 1374.99 1556)">
   <path d="M 74.8535 28.3691 C 109.668 28.3691 138.428 -0.390625 138.428 -35.2051 C 138.428 -70.0195 109.619 -98.7793 74.8047 -98.7793 C 39.9902 -98.7793 11.2793 -70.0195 11.2793 -35.2051 C 11.2793 -0.390625 40.0391 28.3691 74.8535 28.3691 Z M 49.2676 -22.2656 C 49.2676 -23.9258 50.3418 -25.1953 52.0996 -25.1953 L 57.7148 -25.1953 L 59.668 -30.957 L 52.0996 -30.957 C 50.3418 -30.957 49.2676 -32.1777 49.2676 -33.8379 C 49.2676 -35.4492 50.3418 -36.7676 52.0996 -36.7676 L 61.6211 -36.7676 L 70.4102 -62.793 C 71.1426 -64.8438 72.5098 -66.1133 74.8535 -66.1133 C 77.0508 -66.1133 78.4668 -64.7949 79.1992 -62.793 L 87.9883 -36.7676 L 97.5586 -36.7676 C 99.3164 -36.7676 100.391 -35.4492 100.391 -33.8379 C 100.391 -32.1777 99.3164 -30.957 97.5586 -30.957 L 89.9414 -30.957 L 91.8945 -25.1953 L 97.5586 -25.1953 C 99.3164 -25.1953 100.391 -23.9258 100.391 -22.2656 C 100.391 -20.6543 99.3164 -19.3848 97.5586 -19.3848 L 93.7988 -19.3848 L 97.3633 -8.88672 C 97.6562 -8.05664 97.8027 -7.4707 97.8027 -6.98242 C 97.8027 -5.0293 96.2891 -3.56445 94.0918 -3.56445 C 92.2363 -3.56445 91.1133 -4.44336 90.5273 -6.29883 L 86.2305 -19.3848 L 63.4277 -19.3848 L 59.1797 -6.34766 C 58.5449 -4.49219 57.3242 -3.56445 55.5664 -3.56445 C 53.3691 -3.56445 51.8555 -5.0293 51.8555 -6.98242 C 51.8555 -7.4707 51.9531 -8.05664 52.2461 -8.88672 L 55.8105 -19.3848 L 52.0996 -19.3848 C 50.3418 -19.3848 49.2676 -20.6543 49.2676 -22.2656 Z M 68.8965 -36.7676 L 80.7617 -36.7676 L 74.8535 -55.0293 Z M 65.2344 -25.1953 L 84.4238 -25.1953 L 82.5684 -30.957 L 67.0898 -30.957 Z"/>
  </g>
  <g id="Medium-L" transform="matrix(1 0 0 1 1670.9 1556)">
   <path d="M 75.6348 29.1992 C 110.938 29.1992 140.039 0.0488281 140.039 -35.2051 C 140.039 -70.459 110.889 -99.6094 75.5859 -99.6094 C 40.332 -99.6094 11.2793 -70.459 11.2793 -35.2051 C 11.2793 0.0488281 40.3809 29.1992 75.6348 29.1992 Z M 49.3164 -22.0215 C 49.3164 -23.6328 50.4395 -24.9512 52.1484 -24.9512 L 57.5195 -24.9512 L 59.375 -30.5664 L 52.1484 -30.5664 C 50.4395 -30.5664 49.3164 -31.7383 49.3164 -33.4473 C 49.3164 -35.0586 50.4395 -36.377 52.1484 -36.377 L 61.3281 -36.377 L 69.7754 -61.8164 C 70.6543 -64.5508 72.6074 -66.1621 75.6348 -66.1621 C 78.5645 -66.1621 80.5176 -64.502 81.4453 -61.8164 L 89.8438 -36.377 L 99.0723 -36.377 C 100.83 -36.377 101.904 -35.0586 101.904 -33.4473 C 101.904 -31.7383 100.83 -30.5664 99.0723 -30.5664 L 91.7969 -30.5664 L 93.6523 -24.9512 L 99.0723 -24.9512 C 100.83 -24.9512 101.904 -23.6328 101.904 -22.0215 C 101.904 -20.3613 100.83 -19.1406 99.0723 -19.1406 L 95.5078 -19.1406 L 98.6816 -9.91211 C 98.9746 -8.93555 99.1211 -8.30078 99.1211 -7.71484 C 99.1211 -5.27344 97.3145 -3.61328 94.6777 -3.61328 C 92.334 -3.61328 91.0156 -4.73633 90.3809 -6.93359 L 86.4746 -19.1406 L 64.7949 -19.1406 L 60.8887 -6.98242 C 60.2051 -4.78516 58.8379 -3.61328 56.5918 -3.61328 C 53.9062 -3.61328 52.0996 -5.27344 52.0996 -7.71484 C 52.0996 -8.30078 52.1973 -8.93555 52.5391 -9.91211 L 55.6641 -19.1406 L 52.1484 -19.1406 C 50.4395 -19.1406 49.3164 -20.3613 49.3164 -22.0215 Z M 70.0684 -36.377 L 81.1523 -36.377 L 75.6348 -53.9062 Z M 66.5039 -24.9512 L 84.7168 -24.9512 L 82.9102 -30.5664 L 68.3105 -30.5664 Z"/>
  </g>
  <g id="Semibold-L" transform="matrix(1 0 0 1 1967 1556)">
   <path d="M 76.2695 29.7852 C 111.914 29.7852 141.26 0.439453 141.26 -35.2051 C 141.26 -70.8496 111.865 -100.244 76.2207 -100.244 C 40.5762 -100.244 11.2793 -70.8496 11.2793 -35.2051 C 11.2793 0.439453 40.625 29.7852 76.2695 29.7852 Z M 49.4141 -21.8262 C 49.4141 -23.4375 50.4883 -24.7559 52.2461 -24.7559 L 57.4219 -24.7559 L 59.1797 -30.2246 L 52.2461 -30.2246 C 50.4883 -30.2246 49.4141 -31.4453 49.4141 -33.1055 C 49.4141 -34.7656 50.4883 -36.0352 52.2461 -36.0352 L 61.084 -36.0352 L 69.2383 -61.0352 C 70.2637 -64.3066 72.6562 -66.2109 76.2207 -66.2109 C 79.6875 -66.2109 82.1289 -64.2578 83.1543 -61.0352 L 91.3086 -36.0352 L 100.244 -36.0352 C 102.002 -36.0352 103.076 -34.7656 103.076 -33.1055 C 103.076 -31.4453 102.002 -30.2246 100.244 -30.2246 L 93.2129 -30.2246 L 95.0195 -24.7559 L 100.244 -24.7559 C 102.002 -24.7559 103.076 -23.4375 103.076 -21.8262 C 103.076 -20.166 102.002 -18.8965 100.244 -18.8965 L 96.875 -18.8965 L 99.6582 -10.6934 C 99.9512 -9.66797 100.098 -8.93555 100.098 -8.25195 C 100.098 -5.51758 98.1445 -3.66211 95.1172 -3.66211 C 92.4805 -3.66211 90.9668 -4.93164 90.2344 -7.42188 L 86.6211 -18.8965 L 65.8203 -18.8965 L 62.207 -7.4707 C 61.5234 -4.98047 59.9609 -3.66211 57.373 -3.66211 C 54.3457 -3.66211 52.2949 -5.51758 52.2949 -8.25195 C 52.2949 -8.93555 52.4414 -9.66797 52.7344 -10.6934 L 55.5176 -18.8965 L 52.2461 -18.8965 C 50.4883 -18.8965 49.4141 -20.166 49.4141 -21.8262 Z M 70.9961 -36.0352 L 81.4453 -36.0352 L 76.2207 -53.0273 Z M 67.5293 -24.7559 L 84.9121 -24.7559 L 83.2031 -30.2246 L 69.2383 -30.2246 Z"/>
  </g>
  <g id="Bold-L" transform="matrix(1 0 0 1 2262.9 1556)">
   <path d="M 77.0996 30.6152 C 113.184 30.6152 142.92 0.878906 142.92 -35.2051 C 142.92 -71.3379 113.135 -101.025 77.0508 -101.025 C 40.918 -101.025 11.2793 -71.3379 11.2793 -35.2051 C 11.2793 0.878906 40.9668 30.6152 77.0996 30.6152 Z M 49.4629 -21.5332 C 49.4629 -23.1934 50.5859 -24.4629 52.3438 -24.4629 L 57.2266 -24.4629 L 58.8867 -29.834 L 52.3438 -29.834 C 50.5859 -29.834 49.4629 -31.0059 49.4629 -32.7148 C 49.4629 -34.375 50.5859 -35.6445 52.3438 -35.6445 L 60.791 -35.6445 L 68.6035 -60.0098 C 69.7754 -63.9648 72.7539 -66.3086 77.0508 -66.3086 C 81.2012 -66.3086 84.1797 -63.916 85.4004 -60.0098 L 93.2129 -35.6445 L 101.758 -35.6445 C 103.516 -35.6445 104.639 -34.375 104.639 -32.7148 C 104.639 -31.0059 103.516 -29.834 101.758 -29.834 L 95.0684 -29.834 L 96.7773 -24.4629 L 101.758 -24.4629 C 103.516 -24.4629 104.639 -23.1934 104.639 -21.5332 C 104.639 -19.873 103.516 -18.6523 101.758 -18.6523 L 98.6328 -18.6523 L 100.977 -11.6699 C 101.27 -10.5957 101.416 -9.81445 101.416 -8.98438 C 101.416 -5.76172 99.1699 -3.71094 95.752 -3.71094 C 92.5781 -3.71094 90.8691 -5.22461 90.0879 -8.05664 L 86.8652 -18.6523 L 67.1875 -18.6523 L 63.9648 -8.10547 C 63.1836 -5.27344 61.4746 -3.71094 58.3984 -3.71094 C 54.8828 -3.71094 52.5879 -5.76172 52.5879 -8.98438 C 52.5879 -9.81445 52.7344 -10.5957 53.0273 -11.6699 L 55.3711 -18.6523 L 52.3438 -18.6523 C 50.5859 -18.6523 49.4629 -19.873 49.4629 -21.5332 Z M 72.168 -35.6445 L 81.8848 -35.6445 L 77.0508 -51.8555 Z M 68.8477 -24.4629 L 85.2051 -24.4629 L 83.5449 -29.834 L 70.459 -29.834 Z"/>
  </g>
  <g id="Heavy-L" transform="matrix(1 0 0 1 2558.42 1556)">
   <path d="M 78.2715 31.7871 C 115.039 31.7871 145.264 1.61133 145.264 -35.2051 C 145.264 -72.0215 115.039 -102.197 78.2227 -102.197 C 41.4551 -102.197 11.2793 -72.0215 11.2793 -35.2051 C 11.2793 1.61133 41.4551 31.7871 78.2715 31.7871 Z M 49.6094 -21.1426 C 49.6094 -22.8027 50.7324 -24.1211 52.4902 -24.1211 L 56.9824 -24.1211 L 58.4961 -29.1992 L 52.4902 -29.1992 C 50.7324 -29.1992 49.6094 -30.3711 49.6094 -32.1289 C 49.6094 -33.8379 50.7324 -35.0586 52.4902 -35.0586 L 60.3516 -35.0586 L 67.627 -58.4961 C 69.0918 -63.4766 72.9004 -66.4062 78.2227 -66.4062 C 83.3984 -66.4062 87.207 -63.4766 88.6719 -58.4961 L 95.9961 -35.0586 L 104.004 -35.0586 C 105.762 -35.0586 106.885 -33.8379 106.885 -32.1289 C 106.885 -30.3711 105.762 -29.1992 104.004 -29.1992 L 97.8027 -29.1992 L 99.3652 -24.1211 L 104.004 -24.1211 C 105.762 -24.1211 106.885 -22.8027 106.885 -21.1426 C 106.885 -19.4336 105.762 -18.2617 104.004 -18.2617 L 101.172 -18.2617 L 102.832 -13.1836 C 103.174 -11.9629 103.369 -11.0352 103.369 -10.0586 C 103.369 -6.20117 100.732 -3.80859 96.6309 -3.80859 C 92.7734 -3.80859 90.7227 -5.66406 89.8438 -8.98438 L 87.1582 -18.2617 L 69.1895 -18.2617 L 66.5039 -9.0332 C 65.625 -5.71289 63.6719 -3.80859 59.8633 -3.80859 C 55.6641 -3.80859 52.9297 -6.20117 52.9297 -10.0586 C 52.9297 -11.0352 53.125 -11.9629 53.4668 -13.1836 L 55.127 -18.2617 L 52.4902 -18.2617 C 50.7324 -18.2617 49.6094 -19.4336 49.6094 -21.1426 Z M 73.877 -35.0586 L 82.4707 -35.0586 L 78.2227 -50.1953 Z M 70.752 -24.1211 L 85.5957 -24.1211 L 84.082 -29.1992 L 72.2656 -29.1992 Z"/>
  </g>
  <g id="Black-L" transform="matrix(1 0 0 1 2854.08 1556)">
   <path d="M 79.2969 32.8613 C 116.748 32.8613 147.363 2.19727 147.363 -35.2051 C 147.363 -72.6074 116.699 -103.271 79.2969 -103.271 C 41.8945 -103.271 11.2793 -72.6074 11.2793 -35.2051 C 11.2793 2.19727 41.8945 32.8613 79.2969 32.8613 Z M 49.707 -20.8008 C 49.707 -22.4609 50.8301 -23.7793 52.5879 -23.7793 L 56.7383 -23.7793 L 58.1055 -28.6621 L 52.5879 -28.6621 C 50.8301 -28.6621 49.707 -29.834 49.707 -31.5918 C 49.707 -33.3008 50.8301 -34.5215 52.5879 -34.5215 L 59.9609 -34.5215 L 66.7969 -57.1777 C 68.457 -63.0859 72.998 -66.5039 79.248 -66.5039 C 85.3516 -66.5039 89.8926 -63.0371 91.6016 -57.1777 L 98.4375 -34.5215 L 105.957 -34.5215 C 107.715 -34.5215 108.838 -33.3008 108.838 -31.5918 C 108.838 -29.834 107.715 -28.6621 105.957 -28.6621 L 100.195 -28.6621 L 101.66 -23.7793 L 105.957 -23.7793 C 107.715 -23.7793 108.838 -22.4609 108.838 -20.8008 C 108.838 -19.0918 107.715 -17.9199 105.957 -17.9199 L 103.467 -17.9199 L 104.541 -14.502 C 104.883 -13.1836 105.078 -12.1582 105.078 -11.0352 C 105.078 -6.54297 102.1 -3.85742 97.4121 -3.85742 C 92.9688 -3.85742 90.625 -6.00586 89.6484 -9.81445 L 87.4512 -17.9199 L 70.9473 -17.9199 L 68.75 -9.86328 C 67.8223 -6.10352 65.625 -3.85742 61.1816 -3.85742 C 56.3965 -3.85742 53.2715 -6.54297 53.2715 -11.0352 C 53.2715 -12.1582 53.4668 -13.1836 53.8574 -14.502 L 54.9316 -17.9199 L 52.5879 -17.9199 C 50.8301 -17.9199 49.707 -19.0918 49.707 -20.8008 Z M 75.4395 -34.5215 L 82.959 -34.5215 L 79.248 -48.6816 Z M 72.4609 -23.7793 L 85.9375 -23.7793 L 84.5703 -28.6621 L 73.877 -28.6621 Z"/>
  </g>
 </g>
</svg>
