<?xml version="1.0" encoding="UTF-8"?>
<!--Generator: Apple Native CoreSVG 123-->
<!DOCTYPE svg
PUBLIC "-//W3C//DTD SVG 1.1//EN"
       "http://www.w3.org/Graphics/SVG/1.1/DTD/svg11.dtd">
<svg version="1.1" xmlns="http://www.w3.org/2000/svg" xmlns:xlink="http://www.w3.org/1999/xlink" width="3300" height="2200">
 <!--glyph: "uni1002D9.medium", point size: 100.000000, font version: "Version 15.0d4e20", template writer version: "2"-->
 <g id="Notes">
  <rect height="2200" id="artboard" style="fill:white;opacity:1" width="3300" x="0" y="0"/>
  <line id="" style="fill:none;stroke:black;opacity:1;stroke-width:0.5;" x1="263" x2="3036" y1="292" y2="292"/>
  <text style="stroke:none;fill:black;font-family:-apple-system,&quot;SF Pro Display&quot;,&quot;SF Pro Text&quot;,Helvetica,sans-serif;font-weight:bold;" transform="matrix(1 0 0 1 263 322)">Weight/Scale Variations</text>
  <text style="stroke:none;fill:black;font-family:-apple-system,&quot;SF Pro Display&quot;,&quot;SF Pro Text&quot;,Helvetica,sans-serif;text-anchor:middle;" transform="matrix(1 0 0 1 559.711 322)">Ultralight</text>
  <text style="stroke:none;fill:black;font-family:-apple-system,&quot;SF Pro Display&quot;,&quot;SF Pro Text&quot;,Helvetica,sans-serif;text-anchor:middle;" transform="matrix(1 0 0 1 856.422 322)">Thin</text>
  <text style="stroke:none;fill:black;font-family:-apple-system,&quot;SF Pro Display&quot;,&quot;SF Pro Text&quot;,Helvetica,sans-serif;text-anchor:middle;" transform="matrix(1 0 0 1 1153.13 322)">Light</text>
  <text style="stroke:none;fill:black;font-family:-apple-system,&quot;SF Pro Display&quot;,&quot;SF Pro Text&quot;,Helvetica,sans-serif;text-anchor:middle;" transform="matrix(1 0 0 1 1449.84 322)">Regular</text>
  <text style="stroke:none;fill:black;font-family:-apple-system,&quot;SF Pro Display&quot;,&quot;SF Pro Text&quot;,Helvetica,sans-serif;text-anchor:middle;" transform="matrix(1 0 0 1 1746.56 322)">Medium</text>
  <text style="stroke:none;fill:black;font-family:-apple-system,&quot;SF Pro Display&quot;,&quot;SF Pro Text&quot;,Helvetica,sans-serif;text-anchor:middle;" transform="matrix(1 0 0 1 2043.27 322)">Semibold</text>
  <text style="stroke:none;fill:black;font-family:-apple-system,&quot;SF Pro Display&quot;,&quot;SF Pro Text&quot;,Helvetica,sans-serif;text-anchor:middle;" transform="matrix(1 0 0 1 2339.98 322)">Bold</text>
  <text style="stroke:none;fill:black;font-family:-apple-system,&quot;SF Pro Display&quot;,&quot;SF Pro Text&quot;,Helvetica,sans-serif;text-anchor:middle;" transform="matrix(1 0 0 1 2636.69 322)">Heavy</text>
  <text style="stroke:none;fill:black;font-family:-apple-system,&quot;SF Pro Display&quot;,&quot;SF Pro Text&quot;,Helvetica,sans-serif;text-anchor:middle;" transform="matrix(1 0 0 1 2933.4 322)">Black</text>
  <line id="" style="fill:none;stroke:black;opacity:1;stroke-width:0.5;" x1="263" x2="3036" y1="1903" y2="1903"/>
  <g id="" transform="matrix(1 0 0 1 263 1933)">
   <path d="M 9.24805 0.830078 C 13.5547 0.830078 17.1387 -2.74414 17.1387 -7.05078 C 17.1387 -11.3574 13.5449 -14.9316 9.23828 -14.9316 C 4.94141 -14.9316 1.36719 -11.3574 1.36719 -7.05078 C 1.36719 -2.74414 4.95117 0.830078 9.24805 0.830078 Z M 9.24805 -0.654297 C 5.70312 -0.654297 2.87109 -3.49609 2.87109 -7.05078 C 2.87109 -10.6055 5.69336 -13.4473 9.23828 -13.4473 C 12.793 -13.4473 15.6348 -10.6055 15.6445 -7.05078 C 15.6543 -3.49609 12.8027 -0.654297 9.24805 -0.654297 Z M 9.22852 -3.42773 C 9.69727 -3.42773 9.9707 -3.74023 9.9707 -4.25781 L 9.9707 -6.31836 L 12.1973 -6.31836 C 12.6953 -6.31836 13.0371 -6.57227 13.0371 -7.04102 C 13.0371 -7.51953 12.7148 -7.7832 12.1973 -7.7832 L 9.9707 -7.7832 L 9.9707 -10.0098 C 9.9707 -10.5273 9.69727 -10.8496 9.22852 -10.8496 C 8.75977 -10.8496 8.50586 -10.5078 8.50586 -10.0098 L 8.50586 -7.7832 L 6.29883 -7.7832 C 5.78125 -7.7832 5.44922 -7.51953 5.44922 -7.04102 C 5.44922 -6.57227 5.80078 -6.31836 6.29883 -6.31836 L 8.50586 -6.31836 L 8.50586 -4.25781 C 8.50586 -3.75977 8.75977 -3.42773 9.22852 -3.42773 Z"/>
  </g>
  <g id="" transform="matrix(1 0 0 1 281.506 1933)">
   <path d="M 11.709 2.91016 C 17.1484 2.91016 21.6699 -1.60156 21.6699 -7.05078 C 21.6699 -12.4902 17.1387 -17.0117 11.6992 -17.0117 C 6.25 -17.0117 1.74805 -12.4902 1.74805 -7.05078 C 1.74805 -1.60156 6.25977 2.91016 11.709 2.91016 Z M 11.709 1.25 C 7.09961 1.25 3.41797 -2.44141 3.41797 -7.05078 C 3.41797 -11.6504 7.08984 -15.3516 11.6992 -15.3516 C 16.2988 -15.3516 20 -11.6504 20.0098 -7.05078 C 20.0195 -2.44141 16.3086 1.25 11.709 1.25 Z M 11.6797 -2.41211 C 12.207 -2.41211 12.5195 -2.77344 12.5195 -3.33984 L 12.5195 -6.23047 L 15.5762 -6.23047 C 16.123 -6.23047 16.5039 -6.51367 16.5039 -7.03125 C 16.5039 -7.55859 16.1426 -7.86133 15.5762 -7.86133 L 12.5195 -7.86133 L 12.5195 -10.9277 C 12.5195 -11.5039 12.207 -11.8555 11.6797 -11.8555 C 11.1621 -11.8555 10.8789 -11.4844 10.8789 -10.9277 L 10.8789 -7.86133 L 7.83203 -7.86133 C 7.25586 -7.86133 6.89453 -7.55859 6.89453 -7.03125 C 6.89453 -6.51367 7.28516 -6.23047 7.83203 -6.23047 L 10.8789 -6.23047 L 10.8789 -3.33984 C 10.8789 -2.79297 11.1621 -2.41211 11.6797 -2.41211 Z"/>
  </g>
  <g id="" transform="matrix(1 0 0 1 304.914 1933)">
   <path d="M 14.9707 5.67383 C 21.9336 5.67383 27.6855 -0.078125 27.6855 -7.04102 C 27.6855 -14.0039 21.9238 -19.7559 14.9609 -19.7559 C 7.99805 -19.7559 2.25586 -14.0039 2.25586 -7.04102 C 2.25586 -0.078125 8.00781 5.67383 14.9707 5.67383 Z M 14.9707 3.85742 C 8.92578 3.85742 4.08203 -1.00586 4.08203 -7.04102 C 4.08203 -13.0762 8.91602 -17.9395 14.9609 -17.9395 C 20.9961 -17.9395 25.8594 -13.0762 25.8691 -7.04102 C 25.8789 -1.00586 21.0059 3.85742 14.9707 3.85742 Z M 14.9414 -1.06445 C 15.5176 -1.06445 15.8594 -1.45508 15.8594 -2.06055 L 15.8594 -6.13281 L 20.0977 -6.13281 C 20.6934 -6.13281 21.1133 -6.46484 21.1133 -7.02148 C 21.1133 -7.59766 20.7227 -7.93945 20.0977 -7.93945 L 15.8594 -7.93945 L 15.8594 -12.1875 C 15.8594 -12.8027 15.5176 -13.1934 14.9414 -13.1934 C 14.3848 -13.1934 14.0625 -12.7832 14.0625 -12.1875 L 14.0625 -7.93945 L 9.82422 -7.93945 C 9.20898 -7.93945 8.80859 -7.59766 8.80859 -7.02148 C 8.80859 -6.46484 9.23828 -6.13281 9.82422 -6.13281 L 14.0625 -6.13281 L 14.0625 -2.06055 C 14.0625 -1.47461 14.3848 -1.06445 14.9414 -1.06445 Z"/>
  </g>
  <text style="stroke:none;fill:black;font-family:-apple-system,&quot;SF Pro Display&quot;,&quot;SF Pro Text&quot;,Helvetica,sans-serif;font-weight:bold;" transform="matrix(1 0 0 1 263 1953)">Design Variations</text>
  <text style="stroke:none;fill:black;font-family:-apple-system,&quot;SF Pro Display&quot;,&quot;SF Pro Text&quot;,Helvetica,sans-serif;" transform="matrix(1 0 0 1 263 1971)">Symbols are supported in up to nine weights and three scales.</text>
  <text style="stroke:none;fill:black;font-family:-apple-system,&quot;SF Pro Display&quot;,&quot;SF Pro Text&quot;,Helvetica,sans-serif;" transform="matrix(1 0 0 1 263 1989)">For optimal layout with text and other symbols, vertically align</text>
  <text style="stroke:none;fill:black;font-family:-apple-system,&quot;SF Pro Display&quot;,&quot;SF Pro Text&quot;,Helvetica,sans-serif;" transform="matrix(1 0 0 1 263 2007)">symbols with the adjacent text.</text>
  <rect height="14" id="" style="fill:#00AEEF;stroke:none;opacity:0.4;" width="3" x="776" y="1919"/>
  <g id="" transform="matrix(1 0 0 1 779 1933)">
   <path d="M 10.5273 0 L 12.373 0 L 7.17773 -14.0918 L 5.43945 -14.0918 L 0.244141 0 L 2.08984 0 L 3.50586 -4.0332 L 9.11133 -4.0332 Z M 6.2793 -11.9531 L 6.33789 -11.9531 L 8.59375 -5.52734 L 4.02344 -5.52734 Z"/>
  </g>
  <rect height="14" id="" style="fill:#00AEEF;stroke:none;opacity:0.4;" width="3" x="791.617" y="1919"/>
  <text style="stroke:none;fill:black;font-family:-apple-system,&quot;SF Pro Display&quot;,&quot;SF Pro Text&quot;,Helvetica,sans-serif;font-weight:bold;" transform="matrix(1 0 0 1 776 1953)">Side Bearings</text>
  <text style="stroke:none;fill:black;font-family:-apple-system,&quot;SF Pro Display&quot;,&quot;SF Pro Text&quot;,Helvetica,sans-serif;" transform="matrix(1 0 0 1 776 1971)">Horizontal padding on the left and right side of each symbol</text>
  <text style="stroke:none;fill:black;font-family:-apple-system,&quot;SF Pro Display&quot;,&quot;SF Pro Text&quot;,Helvetica,sans-serif;" transform="matrix(1 0 0 1 776 1989)">can be adjusted by modifying the width of the blue rectangles.</text>
  <text style="stroke:none;fill:black;font-family:-apple-system,&quot;SF Pro Display&quot;,&quot;SF Pro Text&quot;,Helvetica,sans-serif;" transform="matrix(1 0 0 1 776 2007)">Modifications are automatically applied proportionally to all</text>
  <text style="stroke:none;fill:black;font-family:-apple-system,&quot;SF Pro Display&quot;,&quot;SF Pro Text&quot;,Helvetica,sans-serif;" transform="matrix(1 0 0 1 776 2025)">scales and weights.</text>
  <g id="" transform="matrix(1 0 0 1 1289 1933)">
   <path d="M 2.96875 2.35352 L 3.80859 3.19336 C 4.84375 4.22852 6.12305 4.15039 7.19727 2.97852 L 16.1621 -6.82617 C 16.5527 -6.74805 16.9629 -6.8457 17.4902 -7.02148 C 18.1738 -7.25586 18.2715 -7.25586 18.3887 -7.13867 C 18.5352 -7.01172 18.4863 -6.89453 18.2422 -6.25 C 17.8809 -5.33203 17.8125 -4.79492 18.5547 -4.02344 L 19.4238 -3.13477 C 20.2734 -2.24609 21.3281 -2.26562 22.2168 -3.14453 L 25.0586 -5.97656 C 25.9473 -6.86523 25.957 -7.92969 25.0781 -8.7793 L 24.1797 -9.64844 C 23.4082 -10.4004 22.8711 -10.3516 21.9629 -9.98047 C 21.3184 -9.72656 21.2012 -9.6875 21.0645 -9.81445 C 20.9375 -9.93164 20.9473 -10.0391 21.1816 -10.7129 C 21.5332 -11.6895 21.5723 -12.2852 20.752 -13.0957 L 19.3359 -14.5117 C 15.1953 -18.6133 11.2305 -18.7402 7.65625 -15.4395 C 7.08008 -14.9023 6.99219 -14.1504 7.53906 -13.6133 L 7.79297 -13.3594 C 8.22266 -12.9297 8.86719 -12.8418 9.41406 -13.1152 C 11.0645 -13.9453 12.2559 -14.0234 13.457 -12.9785 L 13.0273 -11.416 C 12.8516 -10.8008 12.793 -10.3418 12.9199 -9.93164 L 3.18359 -1.04492 C 2.02148 0.0292969 1.93359 1.32812 2.96875 2.35352 Z M 8.96484 -14.4922 C 8.89648 -14.5703 8.86719 -14.6582 8.99414 -14.7559 C 11.709 -17.2852 15.0391 -16.8457 18.3496 -13.5254 L 19.6973 -12.168 C 20.0879 -11.7773 20.0977 -11.582 19.8828 -10.8691 C 19.6582 -10.127 19.502 -9.53125 20.1465 -8.88672 C 20.8105 -8.22266 21.2891 -8.41797 22.207 -8.63281 C 22.9004 -8.79883 23.0664 -8.79883 23.4473 -8.41797 L 24.0918 -7.77344 C 24.4043 -7.48047 24.4141 -7.32422 24.0723 -6.97266 L 21.2207 -4.13086 C 20.8887 -3.79883 20.7227 -3.79883 20.4297 -4.10156 L 19.7852 -4.75586 C 19.4141 -5.13672 19.4141 -5.30273 19.5801 -6.01562 C 19.7852 -6.88477 19.9805 -7.38281 19.3262 -8.04688 C 18.6719 -8.7207 18.0762 -8.57422 17.3438 -8.33008 C 16.5625 -8.06641 16.3281 -8.06641 15.8984 -8.49609 L 14.6094 -9.78516 C 14.1699 -10.2246 14.1309 -10.4395 14.2676 -10.9082 L 15.0293 -13.3984 C 13.3887 -15.2832 11.4941 -15.5566 9.20898 -14.4434 C 9.11133 -14.3945 9.04297 -14.4141 8.96484 -14.4922 Z M 3.96484 1.36719 C 3.52539 0.927734 3.54492 0.537109 4.14062 -0.00976562 L 13.7402 -8.81836 L 15 -7.55859 L 6.17188 2.02148 C 5.625 2.60742 5.24414 2.64648 4.79492 2.19727 Z"/>
  </g>
  <text style="stroke:none;fill:black;font-family:-apple-system,&quot;SF Pro Display&quot;,&quot;SF Pro Text&quot;,Helvetica,sans-serif;font-weight:bold;" transform="matrix(1 0 0 1 1289 1953)">Exporting</text>
  <text style="stroke:none;fill:black;font-family:-apple-system,&quot;SF Pro Display&quot;,&quot;SF Pro Text&quot;,Helvetica,sans-serif;" transform="matrix(1 0 0 1 1289 1971)">Symbols should be outlined when exporting to ensure the</text>
  <text style="stroke:none;fill:black;font-family:-apple-system,&quot;SF Pro Display&quot;,&quot;SF Pro Text&quot;,Helvetica,sans-serif;" transform="matrix(1 0 0 1 1289 1989)">design is preserved when submitting to Xcode.</text>
  <text id="template-version" style="stroke:none;fill:black;font-family:-apple-system,&quot;SF Pro Display&quot;,&quot;SF Pro Text&quot;,Helvetica,sans-serif;text-anchor:end;" transform="matrix(1 0 0 1 3036 1933)">Template v.0.1</text>
  <text style="stroke:none;fill:black;font-family:-apple-system,&quot;SF Pro Display&quot;,&quot;SF Pro Text&quot;,Helvetica,sans-serif;text-anchor:end;" transform="matrix(1 0 0 1 3036 1951)">Generated from bell</text>
  <text style="stroke:none;fill:black;font-family:-apple-system,&quot;SF Pro Display&quot;,&quot;SF Pro Text&quot;,Helvetica,sans-serif;text-anchor:end;" transform="matrix(1 0 0 1 3036 1969)">Typeset at 100 points</text>
  <text style="stroke:none;fill:black;font-family:-apple-system,&quot;SF Pro Display&quot;,&quot;SF Pro Text&quot;,Helvetica,sans-serif;" transform="matrix(1 0 0 1 263 726)">Small</text>
  <text style="stroke:none;fill:black;font-family:-apple-system,&quot;SF Pro Display&quot;,&quot;SF Pro Text&quot;,Helvetica,sans-serif;" transform="matrix(1 0 0 1 263 1156)">Medium</text>
  <text style="stroke:none;fill:black;font-family:-apple-system,&quot;SF Pro Display&quot;,&quot;SF Pro Text&quot;,Helvetica,sans-serif;" transform="matrix(1 0 0 1 263 1586)">Large</text>
 </g>
 <g id="Guides">
  <g id="H-reference" style="fill:#27AAE1;stroke:none;" transform="matrix(1 0 0 1 339 696)">
   <path d="M 54.9316 0 L 57.666 0 L 30.5664 -70.459 L 28.0762 -70.459 L 0.976562 0 L 3.66211 0 L 12.9395 -24.4629 L 45.7031 -24.4629 Z M 29.1992 -67.0898 L 29.4434 -67.0898 L 44.8242 -26.709 L 13.8184 -26.709 Z"/>
  </g>
  <line id="Baseline-S" style="fill:none;stroke:#27AAE1;opacity:1;stroke-width:0.577;" x1="263" x2="3036" y1="696" y2="696"/>
  <line id="Capline-S" style="fill:none;stroke:#27AAE1;opacity:1;stroke-width:0.577;" x1="263" x2="3036" y1="625.541" y2="625.541"/>
  <g id="H-reference" style="fill:#27AAE1;stroke:none;" transform="matrix(1 0 0 1 339 1126)">
   <path d="M 54.9316 0 L 57.666 0 L 30.5664 -70.459 L 28.0762 -70.459 L 0.976562 0 L 3.66211 0 L 12.9395 -24.4629 L 45.7031 -24.4629 Z M 29.1992 -67.0898 L 29.4434 -67.0898 L 44.8242 -26.709 L 13.8184 -26.709 Z"/>
  </g>
  <line id="Baseline-M" style="fill:none;stroke:#27AAE1;opacity:1;stroke-width:0.577;" x1="263" x2="3036" y1="1126" y2="1126"/>
  <line id="Capline-M" style="fill:none;stroke:#27AAE1;opacity:1;stroke-width:0.577;" x1="263" x2="3036" y1="1055.54" y2="1055.54"/>
  <g id="H-reference" style="fill:#27AAE1;stroke:none;" transform="matrix(1 0 0 1 339 1556)">
   <path d="M 54.9316 0 L 57.666 0 L 30.5664 -70.459 L 28.0762 -70.459 L 0.976562 0 L 3.66211 0 L 12.9395 -24.4629 L 45.7031 -24.4629 Z M 29.1992 -67.0898 L 29.4434 -67.0898 L 44.8242 -26.709 L 13.8184 -26.709 Z"/>
  </g>
  <line id="Baseline-L" style="fill:none;stroke:#27AAE1;opacity:1;stroke-width:0.577;" x1="263" x2="3036" y1="1556" y2="1556"/>
  <line id="Capline-L" style="fill:none;stroke:#27AAE1;opacity:1;stroke-width:0.577;" x1="263" x2="3036" y1="1485.54" y2="1485.54"/>
  <rect height="119.336" id="left-margin" style="fill:#00AEEF;stroke:none;opacity:0.4;" width="12.4512" x="1391.32" y="1030.79"/>
  <rect height="119.336" id="right-margin" style="fill:#00AEEF;stroke:none;opacity:0.4;" width="12.4512" x="1495.91" y="1030.79"/>
 </g>
 <g id="Symbols">
  <g id="Ultralight-S" transform="matrix(1 0 0 1 515.326 696)">
   <path d="M 11.9141 -10.3027 L 53.125 -10.3027 C 52.832 -4.49219 49.2676 -0.732422 44.3848 -0.732422 C 39.502 -0.732422 35.9375 -4.49219 35.6445 -10.3027 L 33.4473 -10.3027 C 33.5449 -3.56445 38.0371 1.36719 44.3848 1.36719 C 50.7324 1.36719 55.2246 -3.56445 55.3223 -10.3027 L 76.8555 -10.3027 C 78.125 -10.3027 79.0039 -11.1816 79.0039 -12.4512 C 79.0039 -16.3086 75.5371 -19.5312 72.5586 -22.9004 C 68.4082 -27.5391 68.75 -36.9629 67.4805 -45.8496 C 66.2109 -55.4199 62.4023 -63.0371 53.4668 -65.2832 C 52.7832 -70.6055 49.1211 -74.0723 44.3848 -74.0723 C 39.6484 -74.0723 35.9863 -70.6055 35.2539 -65.2832 C 26.3672 -63.0371 22.5586 -55.4199 21.2891 -45.8496 C 20.0195 -36.9629 20.3613 -27.5391 16.2109 -22.9004 C 13.2324 -19.5312 9.76562 -16.3086 9.76562 -12.4512 C 9.76562 -11.1816 10.6445 -10.3027 11.9141 -10.3027 Z M 12.2559 -12.5 L 12.2559 -12.8906 C 12.3047 -15.1855 15.3809 -18.7012 17.9199 -21.2891 C 22.6562 -26.2695 22.0703 -36.4258 23.4863 -45.4102 C 24.9512 -55.1758 28.3203 -60.9863 35.1074 -62.8418 C 36.5234 -63.2324 37.3047 -63.7207 37.5 -64.9902 C 38.0859 -68.7988 40.3809 -71.9238 44.3848 -71.9238 C 48.3398 -71.9238 50.6836 -68.7988 51.2695 -64.9902 C 51.4648 -63.7207 52.2461 -63.2324 53.6621 -62.8418 C 60.4492 -60.9863 63.8184 -55.1758 65.2832 -45.4102 C 66.6504 -36.4258 66.1133 -26.2695 70.8496 -21.2891 C 73.3887 -18.7012 76.4648 -15.1855 76.4648 -12.8906 L 76.4648 -12.5 Z"/>
  </g>
  <g id="Thin-S" transform="matrix(1 0 0 1 811.622 696)">
   <path d="M 12.8906 -10.1562 L 53.418 -10.1562 C 53.125 -4.54102 49.6094 -0.878906 44.7754 -0.878906 C 39.9902 -0.878906 36.4746 -4.54102 36.1816 -10.1562 L 32.959 -10.1562 C 33.1055 -3.22266 37.9395 2.09961 44.7754 2.09961 C 51.6113 2.09961 56.4453 -3.22266 56.6406 -10.1562 L 76.6602 -10.1562 C 78.6133 -10.1562 79.834 -11.2793 79.834 -12.9883 C 79.834 -16.8457 76.2695 -20.1172 73.1445 -23.4863 C 69.4824 -27.5879 69.5312 -35.8887 68.5059 -43.5547 C 67.5293 -54.6387 63.7207 -62.8418 54.4434 -65.4785 C 53.5645 -70.752 49.8047 -74.3164 44.7754 -74.3164 C 39.7949 -74.3164 36.0352 -70.752 35.1562 -65.4785 C 25.8789 -62.8418 22.0215 -54.6387 21.0449 -43.5547 C 20.0684 -35.8887 20.1172 -27.5879 16.4062 -23.4863 C 13.3301 -20.1172 9.76562 -16.8457 9.76562 -12.9883 C 9.76562 -11.2793 10.9863 -10.1562 12.8906 -10.1562 Z M 13.623 -13.3301 L 13.623 -13.7695 C 13.8672 -15.7227 16.6992 -18.8965 19.0918 -21.3867 C 23.291 -25.8301 23.2422 -34.5215 24.3164 -43.1152 C 25.4883 -54.7852 29.2969 -60.4492 36.0352 -62.3047 C 37.3047 -62.6465 38.0371 -63.1348 38.1836 -64.3066 C 38.623 -68.1641 40.918 -71.1914 44.7754 -71.1914 C 48.6328 -71.1914 50.9766 -68.1641 51.416 -64.3066 C 51.5625 -63.1348 52.2949 -62.6465 53.5645 -62.3047 C 60.3027 -60.4492 64.1113 -54.7852 65.2344 -43.1152 C 66.3574 -34.5215 66.3086 -25.8301 70.5078 -21.3867 C 72.8516 -18.8965 75.7324 -15.7227 75.9277 -13.7695 L 75.9277 -13.3301 Z"/>
  </g>
  <g id="Light-S" transform="matrix(1 0 0 1 1107.55 696)">
   <path d="M 14.8438 -9.86328 L 53.9062 -9.86328 C 53.6133 -4.54102 50.2441 -1.17188 45.6055 -1.17188 C 40.918 -1.17188 37.5488 -4.54102 37.2559 -9.86328 L 31.9824 -9.86328 C 32.2754 -2.58789 37.793 3.56445 45.6055 3.56445 C 53.3691 3.56445 58.8867 -2.58789 59.1797 -9.86328 L 76.3184 -9.86328 C 79.4922 -9.86328 81.3965 -11.5234 81.3965 -14.0137 C 81.3965 -17.8711 77.5879 -21.2402 74.3164 -24.6582 C 71.5332 -27.6855 70.9961 -33.8379 70.5566 -39.0625 C 70.0684 -53.125 66.2109 -62.4512 56.25 -65.8691 C 55.0781 -70.8984 51.0742 -74.8047 45.6055 -74.8047 C 40.0879 -74.8047 36.084 -70.8984 34.9121 -65.8691 C 24.9512 -62.4512 21.0938 -53.125 20.6055 -39.0625 C 20.166 -33.8379 19.6289 -27.6855 16.8457 -24.6582 C 13.5742 -21.2402 9.76562 -17.8711 9.76562 -14.0137 C 9.76562 -11.5234 11.6699 -9.86328 14.8438 -9.86328 Z M 16.3086 -14.9414 L 16.3086 -15.4297 C 16.8457 -16.748 19.2871 -19.2383 21.3867 -21.5332 C 24.5117 -24.9512 25.4395 -30.8105 25.9766 -38.5742 C 26.5137 -54.0039 31.1523 -59.4238 37.793 -61.2305 C 38.8184 -61.4746 39.4043 -61.9629 39.4531 -62.9883 C 39.6973 -66.9434 41.9434 -69.7754 45.6055 -69.7754 C 49.2188 -69.7754 51.4648 -66.9434 51.709 -62.9883 C 51.7578 -61.9629 52.3438 -61.4746 53.3691 -61.2305 C 60.0098 -59.4238 64.6484 -54.0039 65.1855 -38.5742 C 65.7227 -30.8105 66.6504 -24.9512 69.7754 -21.5332 C 71.875 -19.2383 74.3164 -16.748 74.8535 -15.4297 L 74.8535 -14.9414 Z"/>
  </g>
  <g id="Regular-S" transform="matrix(1 0 0 1 1403.65 696)">
   <path d="M 16.3574 -9.61914 L 54.2969 -9.61914 C 54.0039 -4.58984 50.7324 -1.41602 46.1914 -1.41602 C 41.6016 -1.41602 38.3789 -4.58984 38.0859 -9.61914 L 31.2988 -9.61914 C 31.6406 -2.14844 37.6953 4.6875 46.1914 4.6875 C 54.6387 4.6875 60.6934 -2.14844 61.084 -9.61914 L 76.0254 -9.61914 C 80.1758 -9.61914 82.6172 -11.6699 82.6172 -14.7949 C 82.6172 -18.6035 78.6133 -22.1191 75.2441 -25.5371 C 73.0469 -27.7344 72.168 -32.2754 72.0703 -35.6445 C 72.0215 -51.9531 68.1152 -62.1582 57.666 -66.1621 C 56.25 -71.0449 52.0508 -75.1465 46.1914 -75.1465 C 40.332 -75.1465 36.1328 -71.0449 34.7168 -66.1621 C 24.2676 -62.1582 20.3613 -51.9531 20.2637 -35.6445 C 20.2148 -32.2754 19.2871 -27.7344 17.1387 -25.5371 C 13.7207 -22.1191 9.76562 -18.6035 9.76562 -14.7949 C 9.76562 -11.6699 12.207 -9.61914 16.3574 -9.61914 Z M 18.3105 -16.2109 L 18.3105 -16.6504 C 19.1406 -17.5293 21.2402 -19.4824 23.1445 -21.6797 C 25.4395 -24.2676 27.1484 -28.0273 27.2461 -35.1562 C 27.2949 -53.418 32.6172 -58.6426 39.1113 -60.4004 C 39.9902 -60.5957 40.4297 -61.084 40.4297 -62.0117 C 40.4785 -66.0156 42.7246 -68.75 46.1914 -68.75 C 49.6094 -68.75 51.9043 -66.0156 51.9043 -62.0117 C 51.9043 -61.084 52.3926 -60.5957 53.2227 -60.4004 C 59.7656 -58.6426 65.0879 -53.418 65.1367 -35.1562 C 65.2344 -28.0273 66.9434 -24.2676 69.2383 -21.6797 C 71.1426 -19.4824 73.2422 -17.5293 74.0723 -16.6504 L 74.0723 -16.2109 Z"/>
  </g>
  <g id="Medium-S" transform="matrix(1 0 0 1 1699.05 696)">
   <path d="M 16.9922 -9.27734 L 31.6895 -9.27734 C 31.9824 -1.95312 38.2812 5.12695 47.5098 5.12695 C 56.7383 5.12695 62.9883 -1.9043 63.3301 -9.27734 L 78.0273 -9.27734 C 82.5195 -9.27734 85.2539 -11.7188 85.2539 -15.3809 C 85.2539 -19.5312 81.543 -23.0957 77.9785 -26.416 C 75.4395 -28.7109 74.6582 -33.252 74.2676 -38.1348 C 73.8281 -53.3203 69.4824 -63.3301 59.375 -67.1387 C 57.7637 -72.2168 53.3691 -76.0742 47.5098 -76.0742 C 41.6504 -76.0742 37.3047 -72.2168 35.6934 -67.1387 C 25.5371 -63.3301 21.2402 -53.3203 20.752 -38.1348 C 20.3613 -33.252 19.5801 -28.7109 17.0898 -26.416 C 13.5254 -23.0957 9.76562 -19.5312 9.76562 -15.3809 C 9.76562 -11.7188 12.5 -9.27734 16.9922 -9.27734 Z M 20.3613 -17.3828 L 20.3613 -17.8223 C 21.582 -18.7012 23.6328 -20.459 25.3906 -22.5586 C 27.6367 -25.2441 29.1992 -30.127 29.3945 -37.0605 C 29.7363 -53.2715 34.668 -58.3008 40.625 -59.9121 C 41.5039 -60.1074 41.9922 -60.5469 42.041 -61.5723 C 42.1875 -65.4785 44.2871 -67.9688 47.5098 -67.9688 C 50.7324 -67.9688 52.832 -65.4785 52.9785 -61.5723 C 53.0762 -60.5469 53.5156 -60.1074 54.3945 -59.9121 C 60.4004 -58.3008 65.332 -53.2715 65.625 -37.0605 C 65.8691 -30.127 67.3828 -25.2441 69.6289 -22.5586 C 71.3867 -20.459 73.3398 -18.7012 74.5605 -17.8223 L 74.5605 -17.3828 Z M 47.5098 -1.80664 C 43.3105 -1.80664 40.2832 -4.73633 40.0391 -9.27734 L 55.0293 -9.27734 C 54.7852 -4.83398 51.7578 -1.80664 47.5098 -1.80664 Z"/>
  </g>
  <g id="Semibold-S" transform="matrix(1 0 0 1 1994.73 696)">
   <path d="M 17.4805 -9.08203 L 32.0312 -9.08203 C 32.2266 -1.85547 38.6719 5.46875 48.5352 5.46875 C 58.3008 5.46875 64.7461 -1.70898 65.0391 -9.08203 L 79.5898 -9.08203 C 84.3262 -9.08203 87.3047 -11.7676 87.3047 -15.8203 C 87.3047 -20.2637 83.7402 -23.8281 80.0293 -27.0996 C 77.2949 -29.4922 76.5625 -34.0332 75.9277 -40.0879 C 75.1953 -54.3457 70.5566 -64.209 60.6445 -67.8711 C 58.8867 -73.0469 54.4434 -76.8066 48.5352 -76.8066 C 42.6758 -76.8066 38.1836 -73.0469 36.4258 -67.8711 C 26.5137 -64.209 21.875 -54.3457 21.1426 -40.0879 C 20.5078 -34.0332 19.7754 -29.4922 17.041 -27.0996 C 13.3301 -23.8281 9.76562 -20.2637 9.76562 -15.8203 C 9.76562 -11.7676 12.7441 -9.08203 17.4805 -9.08203 Z M 21.9727 -18.2617 L 21.9727 -18.7012 C 23.4375 -19.6289 25.4883 -21.2402 27.1484 -23.2422 C 29.3457 -25.9766 30.7129 -31.6895 31.1035 -38.5254 C 31.5918 -53.125 36.2305 -58.0078 41.7969 -59.5215 C 42.6758 -59.7168 43.1641 -60.1562 43.2617 -61.2793 C 43.5059 -65.0391 45.459 -67.334 48.5352 -67.334 C 51.6113 -67.334 53.6133 -65.0391 53.8086 -61.2793 C 53.9062 -60.1562 54.3945 -59.7168 55.2734 -59.5215 C 60.8398 -58.0078 65.5273 -53.125 66.0156 -38.5254 C 66.3574 -31.6895 67.7734 -25.9766 69.9219 -23.2422 C 71.582 -21.2402 73.4375 -19.6289 74.9023 -18.7012 L 74.9023 -18.2617 Z M 48.5352 -2.14844 C 44.6289 -2.14844 41.748 -4.88281 41.5039 -9.08203 L 55.5664 -9.08203 C 55.4199 -4.98047 52.5391 -2.14844 48.5352 -2.14844 Z"/>
  </g>
  <g id="Bold-S" transform="matrix(1 0 0 1 2290.1 696)">
   <path d="M 18.1152 -8.74023 L 32.4219 -8.74023 C 32.7637 -1.46484 39.4043 5.9082 49.9023 5.9082 C 60.4004 5.9082 66.9922 -1.46484 67.334 -8.74023 L 81.6406 -8.74023 C 86.7188 -8.74023 89.9902 -11.8164 89.9902 -16.4551 C 89.9902 -21.1914 86.6699 -24.8047 82.8125 -27.9785 C 79.6875 -30.4688 79.1016 -35.1074 78.125 -42.5781 C 77.002 -55.7129 71.9238 -65.3809 62.3535 -68.8477 C 60.4492 -74.2188 55.8105 -77.7832 49.9023 -77.7832 C 43.9941 -77.7832 39.3555 -74.2188 37.4023 -68.8477 C 27.832 -65.3809 22.7539 -55.7129 21.6309 -42.5781 C 20.6543 -35.1074 20.0684 -30.4688 16.9922 -27.9785 C 13.0859 -24.8047 9.76562 -21.1914 9.76562 -16.4551 C 9.76562 -11.8164 13.0371 -8.74023 18.1152 -8.74023 Z M 24.0723 -19.4336 L 24.0723 -19.873 C 25.9277 -20.8008 27.8809 -22.2168 29.4434 -24.1699 C 31.6406 -26.9531 32.7637 -33.7891 33.3008 -40.4297 C 34.0332 -52.9297 38.2812 -57.666 43.3594 -59.0332 C 44.1895 -59.2285 44.7266 -59.6191 44.873 -60.8398 C 45.2148 -64.4531 47.0215 -66.5527 49.9023 -66.5527 C 52.7344 -66.5527 54.5898 -64.4531 54.8828 -60.8398 C 55.0781 -59.6191 55.5664 -59.2285 56.3965 -59.0332 C 61.4746 -57.666 65.7715 -52.9297 66.5039 -40.4297 C 66.9922 -33.7891 68.2129 -26.9531 70.3613 -24.1699 C 71.8262 -22.2168 73.5352 -20.8008 75.3906 -19.873 L 75.3906 -19.4336 Z M 49.9023 -2.53906 C 46.3379 -2.53906 43.7012 -5.07812 43.457 -8.74023 L 56.3477 -8.74023 C 56.1035 -5.07812 53.418 -2.53906 49.9023 -2.53906 Z"/>
  </g>
  <g id="Heavy-S" transform="matrix(1 0 0 1 2584.86 696)">
   <path d="M 19.043 -8.30078 L 33.0566 -8.30078 C 33.3496 -1.12305 40.2832 6.54297 51.8555 6.54297 C 63.3789 6.54297 70.3125 -1.12305 70.6543 -8.30078 L 84.6191 -8.30078 C 90.1855 -8.30078 93.8965 -11.9141 93.8965 -17.2852 C 93.8965 -22.5098 90.918 -26.2207 86.8164 -29.248 C 83.2031 -31.9336 82.7637 -36.5723 81.2988 -46.2402 C 79.6387 -57.7148 73.9746 -67.0898 64.8438 -70.3125 C 62.6465 -75.8301 57.7637 -79.1992 51.8555 -79.1992 C 45.8984 -79.1992 41.0645 -75.8301 38.8184 -70.3125 C 29.7363 -67.0898 24.0723 -57.7148 22.3633 -46.2402 C 20.9473 -36.5723 20.5078 -31.9336 16.8945 -29.248 C 12.7441 -26.2207 9.76562 -22.5098 9.76562 -17.2852 C 9.76562 -11.9141 13.4766 -8.30078 19.043 -8.30078 Z M 27.0996 -21.1914 L 27.0996 -21.582 C 29.4922 -22.5586 31.3965 -23.6816 32.7637 -25.4883 C 34.9121 -28.3203 35.7422 -36.8652 36.4746 -43.2129 C 37.5488 -52.6855 41.3086 -57.1289 45.6055 -58.3008 C 46.4355 -58.4961 46.9727 -58.8379 47.2168 -60.2539 C 47.7051 -63.623 49.3164 -65.3809 51.8555 -65.3809 C 54.3457 -65.3809 56.0059 -63.623 56.4941 -60.2539 C 56.6895 -58.8379 57.2754 -58.4961 58.1055 -58.3008 C 62.4023 -57.1289 66.1133 -52.6855 67.1875 -43.2129 C 67.9199 -36.8652 68.8965 -28.3203 70.9473 -25.4883 C 72.2168 -23.6816 73.7305 -22.5586 76.123 -21.582 L 76.123 -21.1914 Z M 51.8555 -3.125 C 48.8281 -3.125 46.5332 -5.27344 46.2891 -8.30078 L 57.4219 -8.30078 C 57.1777 -5.32227 54.834 -3.125 51.8555 -3.125 Z"/>
  </g>
  <g id="Black-S" transform="matrix(1 0 0 1 2879.81 696)">
   <path d="M 19.9219 -7.91016 L 33.5938 -7.91016 C 33.8867 -0.78125 41.1133 7.12891 53.6133 7.12891 C 66.0645 7.12891 73.291 -0.78125 73.584 -7.91016 L 87.2559 -7.91016 C 93.3105 -7.91016 97.4121 -11.9629 97.4121 -18.0664 C 97.4121 -23.7305 94.7266 -27.4902 90.3809 -30.4199 C 86.3281 -33.2031 86.0352 -37.8906 84.1797 -49.5117 C 81.9824 -59.4727 75.7812 -68.6035 67.0898 -71.582 C 64.5996 -77.3438 59.5703 -80.4199 53.6133 -80.4199 C 47.6074 -80.4199 42.5781 -77.3438 40.0879 -71.582 C 31.4453 -68.6035 25.1953 -59.4727 23.0469 -49.5117 C 21.1426 -37.8906 20.8496 -33.2031 16.7969 -30.4199 C 12.4512 -27.4902 9.76562 -23.7305 9.76562 -18.0664 C 9.76562 -11.9629 13.8672 -7.91016 19.9219 -7.91016 Z M 29.834 -22.7051 L 29.834 -23.0957 C 32.7148 -24.1211 34.5703 -24.9512 35.7422 -26.6602 C 37.793 -29.5898 38.4277 -39.5996 39.3555 -45.6543 C 40.7227 -52.4414 43.9453 -56.6895 47.6074 -57.6172 C 48.4375 -57.8125 48.9746 -58.1543 49.3164 -59.7168 C 49.9023 -62.8906 51.3672 -64.3555 53.6133 -64.3555 C 55.8105 -64.3555 57.2754 -62.8906 57.8613 -59.7168 C 58.2031 -58.1543 58.7402 -57.8125 59.5703 -57.6172 C 63.2324 -56.6895 66.4551 -52.4414 67.8223 -45.6543 C 68.75 -39.5996 69.4824 -29.5898 71.4355 -26.6602 C 72.5586 -24.9512 73.877 -24.1211 76.7578 -23.0957 L 76.7578 -22.7051 Z M 53.6133 -3.66211 C 51.0742 -3.66211 49.0234 -5.51758 48.7793 -7.91016 L 58.3984 -7.91016 C 58.1055 -5.51758 56.1035 -3.66211 53.6133 -3.66211 Z"/>
  </g>
  <g id="Ultralight-M" transform="matrix(1 0 0 1 503.217 1126)">
   <path d="M 14.7949 -3.4668 L 67.7246 -3.4668 C 67.334 4.00391 62.7441 8.88672 56.4941 8.88672 C 50.2441 8.88672 45.6543 4.00391 45.2637 -3.4668 L 42.8711 -3.4668 C 42.9688 5.07812 48.5352 11.1816 56.4941 11.1816 C 64.4043 11.1816 70.0195 5.07812 70.1172 -3.4668 L 98.1934 -3.4668 C 99.5605 -3.4668 100.537 -4.44336 100.537 -5.9082 C 100.537 -10.8887 96.1426 -14.9414 92.3828 -19.2383 C 86.9141 -25.3906 87.4512 -37.8418 85.7422 -49.6582 C 84.0332 -61.3281 79.1504 -70.8008 67.9199 -73.4863 C 67.041 -80.3711 62.4512 -84.7168 56.4941 -84.7168 C 50.5371 -84.7168 45.9473 -80.3711 45.0684 -73.4863 C 33.8379 -70.8008 28.9551 -61.3281 27.2461 -49.6582 C 25.5371 -37.8418 26.0742 -25.3906 20.6055 -19.2383 C 16.7969 -14.9414 12.4512 -10.8887 12.4512 -5.9082 C 12.4512 -4.44336 13.4277 -3.4668 14.7949 -3.4668 Z M 15.1367 -5.9082 L 15.1367 -6.39648 C 15.1367 -9.42383 19.1406 -14.0625 22.4121 -17.4316 C 28.6621 -23.9746 27.7344 -37.5 29.6387 -49.1211 C 31.5918 -60.8398 35.7422 -68.3594 44.4824 -70.7031 C 46.2891 -71.1914 47.3633 -71.8262 47.6074 -73.4863 C 48.3887 -78.3203 51.3672 -82.3242 56.4941 -82.3242 C 61.6211 -82.3242 64.5996 -78.3203 65.3809 -73.4863 C 65.625 -71.8262 66.6992 -71.1914 68.5059 -70.7031 C 77.2461 -68.3594 81.3477 -60.8398 83.3496 -49.1211 C 85.2051 -37.5 84.3262 -23.9746 90.5762 -17.4316 C 93.8477 -14.0625 97.8516 -9.42383 97.8516 -6.39648 L 97.8516 -5.9082 Z"/>
  </g>
  <g id="Thin-M" transform="matrix(1 0 0 1 799.464 1126)">
   <path d="M 15.918 -3.32031 L 68.0176 -3.32031 C 67.627 4.00391 63.1348 8.69141 56.9336 8.69141 C 50.7812 8.69141 46.2402 4.00391 45.8984 -3.32031 L 42.334 -3.32031 C 42.4805 5.46875 48.4863 12.0117 56.9336 12.0117 C 65.4297 12.0117 71.3867 5.46875 71.582 -3.32031 L 97.9492 -3.32031 C 100.049 -3.32031 101.416 -4.58984 101.416 -6.54297 C 101.416 -11.4746 96.9727 -15.625 93.0664 -19.9219 C 88.0859 -25.4395 88.3301 -36.6699 86.9141 -47.0703 C 85.498 -60.4492 80.6152 -70.5566 68.9941 -73.7305 C 67.9199 -80.4688 63.1836 -85.0098 56.9336 -85.0098 C 50.7324 -85.0098 45.9473 -80.4688 44.9219 -73.7305 C 33.3008 -70.5566 28.418 -60.4492 27.002 -47.0703 C 25.5859 -36.6699 25.7812 -25.4395 20.8496 -19.9219 C 16.9434 -15.625 12.4512 -11.4746 12.4512 -6.54297 C 12.4512 -4.58984 13.8184 -3.32031 15.918 -3.32031 Z M 16.6992 -6.83594 L 16.6992 -7.37305 C 16.8457 -10.0098 20.6055 -14.2578 23.7305 -17.5293 C 29.3945 -23.4375 29.0527 -35.3516 30.6152 -46.4844 C 32.2266 -60.4004 36.8652 -67.7246 45.5078 -70.0684 C 47.168 -70.5566 48.1445 -71.1426 48.3887 -72.7051 C 48.9746 -77.6367 51.9531 -81.4941 56.9336 -81.4941 C 61.9141 -81.4941 64.8926 -77.6367 65.5273 -72.7051 C 65.7227 -71.1426 66.6992 -70.5566 68.4082 -70.0684 C 77.0508 -67.7246 81.6895 -60.4004 83.3008 -46.4844 C 84.8633 -35.3516 84.5215 -23.4375 90.1855 -17.5293 C 93.2617 -14.2578 97.0215 -10.0098 97.2168 -7.37305 L 97.2168 -6.83594 Z"/>
  </g>
  <g id="Light-M" transform="matrix(1 0 0 1 1095.27 1126)">
   <path d="M 18.1641 -2.97852 L 68.6035 -2.97852 C 68.2129 3.95508 63.8672 8.34961 57.8613 8.34961 C 51.8555 8.34961 47.5098 3.95508 47.1191 -2.97852 L 41.2598 -2.97852 C 41.5527 6.15234 48.3398 13.6719 57.8613 13.6719 C 67.3828 13.6719 74.1211 6.15234 74.4629 -2.97852 L 97.5586 -2.97852 C 101.074 -2.97852 103.223 -4.88281 103.223 -7.71484 C 103.223 -12.6465 98.4863 -16.8945 94.3848 -21.2402 C 90.4297 -25.5371 90.0391 -34.3262 89.209 -41.9922 C 88.3789 -58.6914 83.4473 -70.1172 71.0449 -74.1699 C 69.6777 -80.7129 64.6484 -85.498 57.8613 -85.498 C 51.0742 -85.498 46.0449 -80.7129 44.6289 -74.1699 C 32.2266 -70.1172 27.2949 -58.6914 26.5137 -41.9922 C 25.6836 -34.3262 25.293 -25.5371 21.2891 -21.2402 C 17.2363 -16.8945 12.4512 -12.6465 12.4512 -7.71484 C 12.4512 -4.88281 14.5996 -2.97852 18.1641 -2.97852 Z M 19.6777 -8.69141 L 19.6777 -9.22852 C 20.2637 -11.1816 23.5352 -14.6484 26.3184 -17.6758 C 30.7617 -22.4609 31.543 -31.1523 32.4707 -41.4062 C 33.3984 -59.5215 39.0137 -66.5527 47.5098 -68.8477 C 48.9258 -69.2383 49.707 -69.873 49.8535 -71.1914 C 50.1953 -76.2207 53.125 -79.9316 57.8613 -79.9316 C 62.5977 -79.9316 65.4785 -76.2207 65.8691 -71.1914 C 65.9668 -69.873 66.7969 -69.2383 68.2129 -68.8477 C 76.709 -66.5527 82.2754 -59.5215 83.252 -41.4062 C 84.1309 -31.1523 84.9609 -22.4609 89.3555 -17.6758 C 92.1387 -14.6484 95.4102 -11.1816 95.9961 -9.22852 L 95.9961 -8.69141 Z"/>
  </g>
  <g id="Regular-M" transform="matrix(1 0 0 1 1391.32 1126)">
   <path d="M 19.8242 -2.68555 L 68.9941 -2.68555 C 68.6523 3.90625 64.4043 8.10547 58.5449 8.10547 C 52.6367 8.10547 48.4375 3.90625 48.0469 -2.68555 L 40.4297 -2.68555 C 40.8203 6.68945 48.1934 14.9414 58.5449 14.9414 C 68.8477 14.9414 76.2207 6.68945 76.6113 -2.68555 L 97.2168 -2.68555 C 101.855 -2.68555 104.59 -5.07812 104.59 -8.59375 C 104.59 -13.4766 99.6582 -17.8711 95.4102 -22.2168 C 92.1875 -25.5859 91.3086 -32.5195 90.9668 -38.1348 C 90.5762 -57.373 85.6445 -69.8242 72.6074 -74.5117 C 70.9961 -80.8594 65.7227 -85.9375 58.5449 -85.9375 C 51.3184 -85.9375 46.0938 -80.8594 44.4336 -74.5117 C 31.4453 -69.8242 26.4648 -57.373 26.123 -38.1348 C 25.7324 -32.5195 24.9023 -25.5859 21.6309 -22.2168 C 17.4316 -17.8711 12.4512 -13.4766 12.4512 -8.59375 C 12.4512 -5.07812 15.2344 -2.68555 19.8242 -2.68555 Z M 21.9727 -10.0586 L 21.9727 -10.6445 C 22.8516 -12.1094 25.7324 -14.9414 28.3203 -17.8223 C 31.7871 -21.7285 33.4473 -27.9785 33.8867 -37.5488 C 34.2773 -58.8379 40.625 -65.6738 49.0234 -67.9199 C 50.2441 -68.2129 50.8789 -68.8477 50.9277 -70.0684 C 51.123 -75.1953 54.0039 -78.7598 58.5449 -78.7598 C 63.0371 -78.7598 65.9668 -75.1953 66.1133 -70.0684 C 66.1621 -68.8477 66.8457 -68.2129 68.0664 -67.9199 C 76.416 -65.6738 82.7637 -58.8379 83.2031 -37.5488 C 83.5938 -27.9785 85.2539 -21.7285 88.7695 -17.8223 C 91.3086 -14.9414 94.2383 -12.1094 95.1172 -10.6445 L 95.1172 -10.0586 Z"/>
  </g>
  <g id="Medium-M" transform="matrix(1 0 0 1 1686.57 1126)">
   <path d="M 20.7031 -2.34375 L 40.7715 -2.34375 C 41.1133 6.93359 48.7793 15.5273 59.9609 15.5273 C 71.1426 15.5273 78.8086 6.98242 79.1992 -2.34375 L 99.2676 -2.34375 C 104.346 -2.34375 107.471 -5.12695 107.471 -9.32617 C 107.471 -14.5508 102.734 -18.9941 98.291 -23.2422 C 94.8242 -26.6113 93.9941 -33.3496 93.3594 -40.2344 C 92.6758 -58.6426 87.3047 -70.9473 74.5605 -75.5371 C 72.6562 -82.0312 67.2363 -86.9629 59.9609 -86.9629 C 52.6855 -86.9629 47.2656 -82.0312 45.4102 -75.5371 C 32.666 -70.9473 27.2949 -58.6426 26.5625 -40.2344 C 25.9277 -33.3496 25.0977 -26.6113 21.6309 -23.2422 C 17.1875 -18.9941 12.4512 -14.5508 12.4512 -9.32617 C 12.4512 -5.12695 15.5762 -2.34375 20.7031 -2.34375 Z M 24.3652 -11.4258 L 24.3652 -12.0117 C 25.6348 -13.4277 28.4668 -16.0156 30.8594 -18.75 C 34.2285 -22.6074 35.791 -29.7363 36.2793 -39.0137 C 36.8652 -58.5938 42.9199 -65.1855 50.7324 -67.2852 C 51.9531 -67.627 52.5879 -68.2129 52.6855 -69.5312 C 52.9785 -74.4629 55.7129 -77.7832 59.9609 -77.7832 C 64.2578 -77.7832 66.9922 -74.4629 67.2363 -69.5312 C 67.334 -68.2129 68.0176 -67.627 69.1895 -67.2852 C 77.0508 -65.1855 83.0566 -58.5938 83.6914 -39.0137 C 84.1797 -29.7363 85.7422 -22.6074 89.0625 -18.75 C 91.4551 -16.0156 94.1895 -13.4277 95.5078 -12.0117 L 95.5078 -11.4258 Z M 59.9609 7.66602 C 54.4922 7.66602 50.4883 3.71094 50.1465 -2.34375 L 69.8242 -2.34375 C 69.5312 3.66211 65.5273 7.66602 59.9609 7.66602 Z"/>
  </g>
  <g id="Semibold-M" transform="matrix(1 0 0 1 1982.18 1126)">
   <path d="M 21.3379 -2.09961 L 41.0156 -2.09961 C 41.3086 7.08008 49.1699 16.0156 61.084 16.0156 C 72.9004 16.0156 80.7617 7.22656 81.1523 -2.09961 L 100.83 -2.09961 C 106.299 -2.09961 109.717 -5.17578 109.717 -9.86328 C 109.717 -15.332 105.127 -19.8242 100.537 -24.0234 C 96.875 -27.3926 96.0938 -33.9844 95.2148 -41.8457 C 94.2871 -59.5703 88.5742 -71.8262 76.0254 -76.3184 C 73.9746 -82.959 68.4082 -87.7441 61.084 -87.7441 C 53.7598 -87.7441 48.1934 -82.959 46.1426 -76.3184 C 33.5938 -71.8262 27.8809 -59.5703 26.9043 -41.8457 C 26.0742 -33.9844 25.293 -27.3926 21.6309 -24.0234 C 17.041 -19.8242 12.4512 -15.332 12.4512 -9.86328 C 12.4512 -5.17578 15.8691 -2.09961 21.3379 -2.09961 Z M 26.1719 -12.5 L 26.1719 -13.0371 C 27.7832 -14.4043 30.5664 -16.7969 32.8125 -19.4824 C 36.0352 -23.291 37.5488 -31.1035 38.1348 -40.1367 C 38.8672 -58.3984 44.6777 -64.8438 52.0508 -66.8457 C 53.2227 -67.1387 53.9062 -67.6758 54.0527 -69.0918 C 54.3945 -73.9258 56.9824 -77.0508 61.084 -77.0508 C 65.1855 -77.0508 67.7734 -73.9258 68.1152 -69.0918 C 68.2617 -67.6758 68.8965 -67.1387 70.0684 -66.8457 C 77.4902 -64.8438 83.3008 -58.3984 84.0332 -40.1367 C 84.6191 -31.1035 86.1328 -23.291 89.3555 -19.4824 C 91.6016 -16.7969 94.1895 -14.4043 95.8008 -13.0371 L 95.8008 -12.5 Z M 61.084 7.32422 C 55.8594 7.32422 52.0508 3.56445 51.709 -2.09961 L 70.459 -2.09961 C 70.2148 3.51562 66.3574 7.32422 61.084 7.32422 Z"/>
  </g>
  <g id="Bold-M" transform="matrix(1 0 0 1 2277.43 1126)">
   <path d="M 22.2168 -1.70898 L 41.3574 -1.70898 C 41.748 7.51953 49.8535 16.6016 62.5488 16.6016 C 75.1953 16.6016 83.3496 7.51953 83.7402 -1.70898 L 102.881 -1.70898 C 108.838 -1.70898 112.598 -5.27344 112.598 -10.5469 C 112.598 -16.4062 108.252 -20.9473 103.467 -25.0488 C 99.5117 -28.4668 98.8281 -34.8633 97.7051 -43.9941 C 96.3867 -60.8398 90.2344 -72.998 77.9785 -77.3926 C 75.6836 -84.1309 69.9219 -88.7695 62.5488 -88.7695 C 55.127 -88.7695 49.3652 -84.1309 47.1191 -77.3926 C 34.8633 -72.998 28.7109 -60.8398 27.3926 -43.9941 C 26.2695 -34.8633 25.5371 -28.4668 21.582 -25.0488 C 16.8457 -20.9473 12.4512 -16.4062 12.4512 -10.5469 C 12.4512 -5.27344 16.2598 -1.70898 22.2168 -1.70898 Z M 28.6133 -13.8672 L 28.6133 -14.4043 C 30.6152 -15.7227 33.3008 -17.8711 35.4004 -20.4102 C 38.4766 -24.2188 39.8438 -32.8613 40.5273 -41.6504 C 41.4551 -58.1543 46.9727 -64.3555 53.8086 -66.2109 C 54.9805 -66.5039 55.6641 -66.9922 55.8594 -68.5547 C 56.25 -73.2422 58.6914 -76.123 62.5488 -76.123 C 66.3574 -76.123 68.8477 -73.2422 69.2383 -68.5547 C 69.4336 -66.9922 70.1172 -66.5039 71.2402 -66.2109 C 78.125 -64.3555 83.6426 -58.1543 84.5215 -41.6504 C 85.2051 -32.8613 86.6699 -24.2188 89.6973 -20.4102 C 91.748 -17.8711 94.1406 -15.7227 96.1914 -14.4043 L 96.1914 -13.8672 Z M 62.5488 6.83594 C 57.7148 6.83594 54.1504 3.41797 53.8086 -1.70898 L 71.2402 -1.70898 C 70.9473 3.41797 67.334 6.83594 62.5488 6.83594 Z"/>
  </g>
  <g id="Heavy-M" transform="matrix(1 0 0 1 2572.04 1126)">
   <path d="M 23.4375 -1.2207 L 41.8457 -1.2207 C 42.2363 8.00781 50.7812 17.4805 64.6484 17.4805 C 78.5645 17.4805 87.1094 8.00781 87.5 -1.2207 L 105.859 -1.2207 C 112.5 -1.2207 116.846 -5.37109 116.846 -11.6211 C 116.846 -17.9199 112.793 -22.6074 107.764 -26.5625 C 103.418 -29.9316 102.783 -36.084 101.27 -47.0703 C 99.4629 -62.6465 92.6758 -74.6582 80.7617 -78.9062 C 78.1738 -85.8398 72.168 -90.2832 64.6484 -90.2832 C 57.1289 -90.2832 51.123 -85.8398 48.5352 -78.9062 C 36.6699 -74.6582 29.8828 -62.6465 28.0762 -47.0703 C 26.5137 -36.084 25.8789 -29.9316 21.582 -26.5625 C 16.5039 -22.6074 12.4512 -17.9199 12.4512 -11.6211 C 12.4512 -5.37109 16.7969 -1.2207 23.4375 -1.2207 Z M 32.0801 -15.8691 L 32.0801 -16.3574 C 34.7168 -17.6758 37.2559 -19.3848 39.1602 -21.8262 C 42.041 -25.4883 43.2617 -35.4492 44.0918 -43.7988 C 45.2637 -57.7637 50.293 -63.6719 56.3965 -65.2832 C 57.4707 -65.5762 58.1543 -66.0156 58.3984 -67.7246 C 58.9355 -72.2168 61.1816 -74.707 64.6484 -74.707 C 68.1152 -74.707 70.3613 -72.2168 70.8984 -67.7246 C 71.1426 -66.0156 71.8262 -65.5762 72.9492 -65.2832 C 79.0039 -63.6719 84.082 -57.7637 85.2539 -43.7988 C 86.084 -35.4492 87.4023 -25.4883 90.1855 -21.8262 C 91.9922 -19.3848 94.0918 -17.6758 96.7285 -16.3574 L 96.7285 -15.8691 Z M 64.6484 6.20117 C 60.4004 6.20117 57.1777 3.125 56.8848 -1.2207 L 72.4121 -1.2207 C 72.1191 3.125 68.8965 6.20117 64.6484 6.20117 Z"/>
  </g>
  <g id="Black-M" transform="matrix(1 0 0 1 2866.85 1126)">
   <path d="M 24.5605 -0.732422 L 42.2852 -0.732422 C 42.6758 8.39844 51.6113 18.2617 66.5527 18.2617 C 81.4941 18.2617 90.4297 8.39844 90.8203 -0.732422 L 108.545 -0.732422 C 115.82 -0.732422 120.654 -5.46875 120.654 -12.5488 C 120.654 -19.2871 116.895 -24.0234 111.572 -27.8809 C 106.885 -31.2988 106.348 -37.1582 104.443 -49.8047 C 102.197 -64.2578 94.873 -76.1719 83.3008 -80.2734 C 80.4199 -87.4023 74.1699 -91.6016 66.5527 -91.6016 C 58.9355 -91.6016 52.6855 -87.4023 49.8047 -80.2734 C 38.2812 -76.1719 30.9082 -64.2578 28.6621 -49.8047 C 26.7578 -37.1582 26.2207 -31.2988 21.5332 -27.8809 C 16.2109 -24.0234 12.4512 -19.2871 12.4512 -12.5488 C 12.4512 -5.46875 17.2852 -0.732422 24.5605 -0.732422 Z M 35.2539 -17.6758 L 35.2539 -18.1641 C 38.3789 -19.3848 40.8203 -20.752 42.4805 -23.0469 C 45.166 -26.6602 46.2402 -37.7441 47.2168 -45.752 C 48.6328 -57.4219 53.3203 -63.0859 58.6426 -64.502 C 59.7168 -64.7461 60.4004 -65.1855 60.7422 -66.9922 C 61.377 -71.2891 63.4277 -73.4863 66.5527 -73.4863 C 69.7266 -73.4863 71.7285 -71.2891 72.3633 -66.9922 C 72.7051 -65.1855 73.3887 -64.7461 74.4629 -64.502 C 79.7852 -63.0859 84.4727 -57.4219 85.8887 -45.752 C 86.8652 -37.7441 88.0859 -26.6602 90.625 -23.0469 C 92.2363 -20.752 94.043 -19.3848 97.2168 -18.1641 L 97.2168 -17.6758 Z M 66.5527 5.61523 C 62.8418 5.61523 59.9121 2.92969 59.6191 -0.732422 L 73.4863 -0.732422 C 73.1934 2.92969 70.2637 5.61523 66.5527 5.61523 Z"/>
  </g>
  <g id="Ultralight-L" transform="matrix(1 0 0 1 487.006 1556)">
   <path d="M 18.6035 5.66406 L 87.2559 5.66406 C 86.7676 15.4297 80.7617 21.7773 72.7051 21.7773 C 64.5996 21.7773 58.5938 15.4297 58.1055 5.66406 L 55.5664 5.66406 C 55.6641 16.6504 62.6953 24.2676 72.7051 24.2676 C 82.7148 24.2676 89.6973 16.6504 89.8438 5.66406 L 126.758 5.66406 C 128.223 5.66406 129.297 4.54102 129.297 2.83203 C 129.297 -3.61328 123.73 -8.78906 118.896 -14.3066 C 111.621 -22.5586 112.451 -39.1113 110.107 -55.0293 C 107.764 -69.2871 101.514 -81.25 87.1582 -84.5215 C 86.1328 -93.457 80.2734 -98.9746 72.7051 -98.9746 C 65.1367 -98.9746 59.2285 -93.457 58.2031 -84.5215 C 43.8965 -81.25 37.5977 -69.2871 35.3027 -55.0293 C 32.959 -39.1113 33.7402 -22.5586 26.5137 -14.3066 C 21.6309 -8.78906 16.0645 -3.61328 16.0645 2.83203 C 16.0645 4.54102 17.1387 5.66406 18.6035 5.66406 Z M 18.8965 3.02734 L 18.8965 2.39258 C 18.75 -1.66016 24.0234 -7.8125 28.3203 -12.207 C 36.6699 -20.8984 35.2539 -39.0625 37.8418 -54.2969 C 40.5273 -68.5059 45.6543 -78.2227 56.9336 -81.2988 C 59.375 -81.9336 60.791 -82.7637 61.1328 -84.9121 C 62.1582 -91.1621 66.0156 -96.3379 72.7051 -96.3379 C 79.3457 -96.3379 83.252 -91.1621 84.2773 -84.9121 C 84.6191 -82.7637 86.0352 -81.9336 88.4277 -81.2988 C 99.7559 -78.2227 104.883 -68.5059 107.52 -54.2969 C 110.156 -39.0625 108.691 -20.8984 117.09 -12.207 C 121.338 -7.8125 126.611 -1.66016 126.514 2.39258 L 126.514 3.02734 Z"/>
  </g>
  <g id="Thin-L" transform="matrix(1 0 0 1 783.204 1556)">
   <path d="M 19.873 5.85938 L 87.5977 5.85938 C 87.1094 15.3809 81.2012 21.582 73.1934 21.582 C 65.1855 21.582 59.3262 15.3809 58.8379 5.85938 L 54.9316 5.85938 C 55.127 17.041 62.5977 25.1953 73.1934 25.1953 C 83.7891 25.1953 91.2598 17.041 91.5039 5.85938 L 126.562 5.85938 C 128.809 5.85938 130.322 4.39453 130.322 2.19727 C 130.322 -4.24805 124.609 -9.52148 119.678 -15.0879 C 112.939 -22.6074 113.428 -37.793 111.426 -52.0996 C 109.424 -68.3105 103.125 -80.957 88.3301 -84.7656 C 87.1094 -93.5547 81.1035 -99.2676 73.1934 -99.2676 C 65.332 -99.2676 59.2773 -93.5547 58.0566 -84.7656 C 43.2617 -80.957 37.0117 -68.3105 35.0098 -52.0996 C 33.0078 -37.793 33.4473 -22.6074 26.7578 -15.0879 C 21.7773 -9.52148 16.0645 -4.24805 16.0645 2.19727 C 16.0645 4.39453 17.627 5.85938 19.873 5.85938 Z M 20.6055 2.00195 L 20.6055 1.31836 C 20.7031 -2.34375 25.7324 -8.05664 29.7852 -12.3047 C 37.5 -20.3613 36.6699 -36.6699 38.916 -51.3672 C 41.2109 -67.9688 46.875 -77.5391 58.1055 -80.5664 C 60.3516 -81.2012 61.6699 -82.0312 61.9629 -84.0332 C 62.8418 -90.332 66.6992 -95.459 73.1934 -95.459 C 79.7363 -95.459 83.5938 -90.332 84.4727 -84.0332 C 84.7656 -82.0312 86.084 -81.2012 88.3301 -80.5664 C 99.5605 -77.5391 105.225 -67.9688 107.52 -51.3672 C 109.717 -36.6699 108.936 -20.3613 116.602 -12.3047 C 120.703 -8.05664 125.684 -2.34375 125.83 1.31836 L 125.83 2.00195 Z"/>
  </g>
  <g id="Light-L" transform="matrix(1 0 0 1 1078.91 1556)">
   <path d="M 22.3633 6.25 L 88.2324 6.25 C 87.7441 15.332 82.0312 21.1914 74.2188 21.1914 C 66.4062 21.1914 60.6934 15.332 60.2051 6.25 L 53.7109 6.25 C 54.1016 17.8223 62.4512 27.0508 74.2188 27.0508 C 85.9863 27.0508 94.3359 17.8223 94.6777 6.25 L 126.074 6.25 C 129.932 6.25 132.324 4.10156 132.324 0.878906 C 132.324 -5.51758 126.318 -10.9375 121.143 -16.5527 C 115.527 -22.7051 115.332 -35.1562 113.965 -46.4355 C 112.646 -66.3574 106.299 -80.4688 90.6738 -85.2539 C 89.0625 -93.7988 82.7148 -99.8535 74.2188 -99.8535 C 65.7227 -99.8535 59.375 -93.7988 57.7637 -85.2539 C 42.0898 -80.4688 35.791 -66.3574 34.4238 -46.4355 C 33.1055 -35.1562 32.8613 -22.7051 27.2461 -16.5527 C 22.0703 -10.9375 16.0645 -5.51758 16.0645 0.878906 C 16.0645 4.10156 18.5059 6.25 22.3633 6.25 Z M 23.9258 -0.0488281 L 23.9258 -0.78125 C 24.5117 -3.66211 28.9551 -8.49609 32.7148 -12.5 C 39.0137 -19.2383 39.502 -32.0312 40.9668 -45.6543 C 42.5293 -66.9922 49.2676 -76.2207 60.3027 -79.1992 C 62.2559 -79.7363 63.3789 -80.5176 63.5742 -82.373 C 64.209 -88.8184 67.9688 -93.7012 74.2188 -93.7012 C 80.4199 -93.7012 84.2285 -88.8184 84.8145 -82.373 C 85.0098 -80.5176 86.1328 -79.7363 88.0859 -79.1992 C 99.1699 -76.2207 105.908 -66.9922 107.422 -45.6543 C 108.936 -32.0312 109.375 -19.2383 115.723 -12.5 C 119.434 -8.49609 123.926 -3.66211 124.463 -0.78125 L 124.463 -0.0488281 Z"/>
  </g>
  <g id="Regular-L" transform="matrix(1 0 0 1 1374.87 1556)">
   <path d="M 24.2188 6.54297 L 88.7207 6.54297 C 88.2324 15.2832 82.666 20.8984 74.9512 20.8984 C 67.2852 20.8984 61.7188 15.2832 61.2305 6.54297 L 52.832 6.54297 C 53.2715 18.4082 62.3047 28.4668 74.9512 28.4668 C 87.6465 28.4668 96.6309 18.4082 97.1191 6.54297 L 125.732 6.54297 C 130.762 6.54297 133.838 3.85742 133.838 -0.146484 C 133.838 -6.49414 127.637 -12.0605 122.266 -17.627 C 117.48 -22.7539 116.748 -33.2031 115.918 -42.1387 C 115.088 -64.8926 108.74 -80.127 92.4316 -85.6445 C 90.5273 -93.9941 83.9355 -100.293 74.9512 -100.293 C 66.0156 -100.293 59.4238 -93.9941 57.5195 -85.6445 C 41.2109 -80.127 34.8633 -64.8926 33.9844 -42.1387 C 33.1543 -33.2031 32.4219 -22.7539 27.6367 -17.627 C 22.3145 -12.0605 16.0645 -6.49414 16.0645 -0.146484 C 16.0645 3.85742 19.1406 6.54297 24.2188 6.54297 Z M 26.4648 -1.61133 L 26.4648 -2.34375 C 27.3438 -4.63867 31.3965 -8.83789 34.9121 -12.6465 C 40.1855 -18.4082 41.6504 -28.4668 42.5781 -41.3574 C 43.5059 -66.2598 51.0742 -75.2441 62.0117 -78.1738 C 63.7207 -78.6133 64.6973 -79.4434 64.8438 -81.1035 C 65.1855 -87.6465 68.9453 -92.334 74.9512 -92.334 C 80.957 -92.334 84.7168 -87.6465 85.1074 -81.1035 C 85.2051 -79.4434 86.1816 -78.6133 87.9395 -78.1738 C 98.8281 -75.2441 106.396 -66.2598 107.373 -41.3574 C 108.301 -28.4668 109.766 -18.4082 115.039 -12.6465 C 118.506 -8.83789 122.559 -4.63867 123.438 -2.34375 L 123.438 -1.61133 Z"/>
  </g>
  <g id="Medium-L" transform="matrix(1 0 0 1 1670.14 1556)">
   <path d="M 25.3418 6.88477 L 52.9785 6.88477 C 53.3691 18.75 62.793 29.2969 76.416 29.2969 C 90.0391 29.2969 99.4141 18.7988 99.9023 6.88477 L 127.539 6.88477 C 133.252 6.88477 136.768 3.75977 136.768 -0.976562 C 136.768 -7.61719 130.713 -13.2812 125.146 -18.7988 C 120.264 -23.7305 119.482 -33.5938 118.506 -43.3105 C 117.432 -65.7715 110.693 -81.1035 94.5312 -86.6699 C 92.334 -95.1172 85.5469 -101.318 76.416 -101.318 C 67.334 -101.318 60.498 -95.1172 58.3496 -86.6699 C 42.1875 -81.1035 35.4004 -65.7715 34.375 -43.3105 C 33.3496 -33.5938 32.5684 -23.7305 27.7344 -18.7988 C 22.168 -13.2812 16.0645 -7.61719 16.0645 -0.976562 C 16.0645 3.75977 19.6289 6.88477 25.3418 6.88477 Z M 29.1016 -3.17383 L 29.1016 -3.90625 C 30.4199 -6.00586 34.3262 -9.81445 37.6465 -13.5742 C 42.5781 -19.0918 44.1406 -29.4434 45.0195 -41.9434 C 46.0449 -65.918 53.5156 -74.6094 63.916 -77.4414 C 65.5762 -77.832 66.5039 -78.6133 66.6504 -80.3711 C 67.0898 -86.7676 70.7031 -91.2598 76.416 -91.2598 C 82.1777 -91.2598 85.791 -86.7676 86.1816 -80.3711 C 86.3281 -78.6133 87.3047 -77.832 88.9648 -77.4414 C 99.3652 -74.6094 106.787 -65.918 107.812 -41.9434 C 108.74 -29.4434 110.254 -19.0918 115.186 -13.5742 C 118.506 -9.81445 122.314 -6.00586 123.633 -3.90625 L 123.633 -3.17383 Z M 76.416 20.4102 C 69.0918 20.4102 63.7695 15.1367 63.3301 6.88477 L 89.502 6.88477 C 89.1113 15.0879 83.7891 20.4102 76.416 20.4102 Z"/>
  </g>
  <g id="Semibold-L" transform="matrix(1 0 0 1 1965.73 1556)">
   <path d="M 26.1719 7.17773 L 53.0762 7.17773 C 53.418 18.9941 63.1348 29.8828 77.5391 29.8828 C 91.8457 29.8828 101.562 19.0918 102.002 7.17773 L 128.906 7.17773 C 135.107 7.17773 139.014 3.66211 139.014 -1.61133 C 139.014 -8.49609 133.057 -14.209 127.344 -19.6289 C 122.412 -24.4141 121.582 -33.8867 120.459 -44.1406 C 119.238 -66.4062 112.158 -81.8359 96.0938 -87.4512 C 93.75 -95.9473 86.7676 -102.1 77.5391 -102.1 C 68.3105 -102.1 61.377 -95.9473 58.9844 -87.4512 C 42.9199 -81.8359 35.8398 -66.4062 34.6191 -44.1406 C 33.4961 -33.8867 32.666 -24.4141 27.7344 -19.6289 C 22.0215 -14.209 16.0645 -8.49609 16.0645 -1.61133 C 16.0645 3.66211 19.9707 7.17773 26.1719 7.17773 Z M 31.1523 -4.3457 L 31.1523 -5.0293 C 32.8125 -7.08008 36.5723 -10.5957 39.7461 -14.209 C 44.4336 -19.5801 46.0449 -30.1758 46.9238 -42.3828 C 47.998 -65.625 55.3711 -74.1699 65.332 -76.8555 C 66.9434 -77.2461 67.9199 -78.0273 68.0664 -79.834 C 68.5059 -86.1328 72.0215 -90.3809 77.5391 -90.3809 C 83.0566 -90.3809 86.5723 -86.1328 87.0117 -79.834 C 87.207 -78.0273 88.1348 -77.2461 89.7461 -76.8555 C 99.7559 -74.1699 107.08 -65.625 108.154 -42.3828 C 109.033 -30.1758 110.693 -19.5801 115.332 -14.209 C 118.457 -10.5957 122.07 -7.08008 123.779 -5.0293 L 123.779 -4.3457 Z M 77.5391 20.0684 C 70.5078 20.0684 65.3809 14.9902 64.9414 7.17773 L 90.1367 7.17773 C 89.7949 14.8926 84.6191 20.0684 77.5391 20.0684 Z"/>
  </g>
  <g id="Bold-L" transform="matrix(1 0 0 1 2260.95 1556)">
   <path d="M 27.3438 7.56836 L 53.2227 7.56836 C 53.7109 19.4824 63.7695 30.7129 79.0039 30.7129 C 94.2871 30.7129 104.346 19.4824 104.834 7.56836 L 130.713 7.56836 C 137.598 7.56836 141.943 3.56445 141.943 -2.44141 C 141.943 -9.61914 136.182 -15.4297 130.225 -20.8008 C 125.244 -25.3906 124.365 -34.3262 123.096 -45.3125 C 121.631 -67.2852 114.16 -82.8613 98.1934 -88.4766 C 95.5566 -97.0703 88.3789 -103.125 79.0039 -103.125 C 69.6289 -103.125 62.4512 -97.0703 59.8633 -88.4766 C 43.8965 -82.8613 36.4258 -67.2852 34.9609 -45.3125 C 33.6914 -34.3262 32.8125 -25.3906 27.7832 -20.8008 C 21.875 -15.4297 16.0645 -9.61914 16.0645 -2.44141 C 16.0645 3.56445 20.459 7.56836 27.3438 7.56836 Z M 33.8379 -5.85938 L 33.8379 -6.5918 C 35.9375 -8.49609 39.5508 -11.6211 42.5293 -15.1367 C 46.875 -20.2637 48.5352 -31.1523 49.4629 -42.9688 C 50.5859 -65.2344 57.8125 -73.5352 67.2852 -76.0742 C 68.7988 -76.4648 69.7266 -77.1973 69.9219 -79.1016 C 70.4102 -85.2539 73.7793 -89.2578 79.0039 -89.2578 C 84.2773 -89.2578 87.6465 -85.2539 88.0859 -79.1016 C 88.3301 -77.1973 89.209 -76.4648 90.7715 -76.0742 C 100.244 -73.5352 107.471 -65.2344 108.594 -42.9688 C 109.473 -31.1523 111.23 -20.2637 115.527 -15.1367 C 118.457 -11.6211 121.826 -8.49609 123.926 -6.5918 L 123.926 -5.85938 Z M 79.0039 19.6289 C 72.3633 19.6289 67.4805 14.7949 67.041 7.56836 L 90.9668 7.56836 C 90.6738 14.6973 85.7422 19.6289 79.0039 19.6289 Z"/>
  </g>
  <g id="Heavy-L" transform="matrix(1 0 0 1 2555.54 1556)">
   <path d="M 28.9551 8.10547 L 53.418 8.10547 C 53.9062 20.0684 64.5508 31.8848 81.1523 31.8848 C 97.8027 31.8848 108.398 20.0684 108.887 8.10547 L 133.35 8.10547 C 141.211 8.10547 146.24 3.41797 146.24 -3.66211 C 146.24 -11.2793 140.674 -17.1875 134.424 -22.4609 C 129.297 -26.8066 128.369 -34.9121 126.855 -47.0215 C 125.098 -68.5547 117.041 -84.2773 101.221 -89.9414 C 98.2422 -98.6816 90.7715 -104.639 81.1523 -104.639 C 71.582 -104.639 64.0625 -98.6816 61.084 -89.9414 C 45.3125 -84.2773 37.207 -68.5547 35.4492 -47.0215 C 33.9355 -34.9121 33.0078 -26.8066 27.8809 -22.4609 C 21.6309 -17.1875 16.0645 -11.2793 16.0645 -3.66211 C 16.0645 3.41797 21.0938 8.10547 28.9551 8.10547 Z M 37.6953 -8.10547 L 37.6953 -8.83789 C 40.4297 -10.498 43.8477 -13.1348 46.5332 -16.4062 C 50.4395 -21.2402 52.1973 -32.5684 53.0762 -43.7988 C 54.2969 -64.6973 61.3281 -72.6562 70.0195 -75 C 71.4844 -75.3418 72.3633 -76.0254 72.6074 -77.9785 C 73.1445 -84.0332 76.2695 -87.6465 81.1523 -87.6465 C 86.0352 -87.6465 89.1602 -84.0332 89.6973 -77.9785 C 89.9414 -76.0254 90.8203 -75.3418 92.2852 -75 C 100.977 -72.6562 108.008 -64.6973 109.229 -43.7988 C 110.107 -32.5684 111.963 -21.2402 115.82 -16.4062 C 118.408 -13.1348 121.436 -10.498 124.17 -8.83789 L 124.17 -8.10547 Z M 81.1523 18.9453 C 75.0488 18.9453 70.5078 14.5508 70.1172 8.10547 L 92.1875 8.10547 C 91.7969 14.5508 87.2559 18.9453 81.1523 18.9453 Z"/>
  </g>
  <g id="Black-L" transform="matrix(1 0 0 1 2850.32 1556)">
   <path d="M 30.4199 8.59375 L 53.6133 8.59375 C 54.1016 20.6055 65.2344 32.959 83.0566 32.959 C 100.928 32.959 112.012 20.6055 112.549 8.59375 L 135.693 8.59375 C 144.434 8.59375 150.049 3.27148 150.049 -4.73633 C 150.049 -12.7441 144.678 -18.7988 138.184 -23.9258 C 132.959 -28.0273 131.982 -35.4492 130.225 -48.4863 C 128.174 -69.6777 119.58 -85.5957 103.955 -91.2598 C 100.635 -100.146 92.8711 -105.957 83.0566 -105.957 C 73.291 -105.957 65.5273 -100.146 62.1582 -91.2598 C 46.582 -85.5957 37.9883 -69.6777 35.9375 -48.4863 C 34.1797 -35.4492 33.2031 -28.0273 27.9785 -23.9258 C 21.4355 -18.7988 16.0645 -12.7441 16.0645 -4.73633 C 16.0645 3.27148 21.7285 8.59375 30.4199 8.59375 Z M 41.1621 -10.1074 L 41.1621 -10.791 C 44.4824 -12.3535 47.7051 -14.4531 50.0977 -17.5781 C 53.5645 -22.1191 55.4688 -33.8379 56.3477 -44.5312 C 57.6172 -64.209 64.502 -71.875 72.5098 -73.9746 C 73.877 -74.3164 74.7559 -74.9512 75.0488 -77.0508 C 75.6348 -82.9102 78.5645 -86.1816 83.0566 -86.1816 C 87.5977 -86.1816 90.5273 -82.9102 91.1133 -77.0508 C 91.4062 -74.9512 92.2363 -74.3164 93.6035 -73.9746 C 101.611 -71.875 108.496 -64.209 109.814 -44.5312 C 110.645 -33.8379 112.695 -22.1191 116.016 -17.5781 C 118.408 -14.4531 121.045 -12.3535 124.365 -10.791 L 124.365 -10.1074 Z M 83.0566 18.3594 C 77.4902 18.3594 73.2422 14.3555 72.8516 8.59375 L 93.2617 8.59375 C 92.8711 14.3555 88.6719 18.3594 83.0566 18.3594 Z"/>
  </g>
 </g>
</svg>
