<?xml version="1.0" encoding="UTF-8"?>
<!--Generator: Apple Native CoreSVG 123-->
<!DOCTYPE svg
PUBLIC "-//W3C//DTD SVG 1.1//EN"
       "http://www.w3.org/Graphics/SVG/1.1/DTD/svg11.dtd">
<svg version="1.1" xmlns="http://www.w3.org/2000/svg" xmlns:xlink="http://www.w3.org/1999/xlink" width="3300" height="2200">
 <!--glyph: "uni100329.medium", point size: 100.000000, font version: "Version 15.0d4e20", template writer version: "2"-->
 <g id="Notes">
  <rect height="2200" id="artboard" style="fill:white;opacity:1" width="3300" x="0" y="0"/>
  <line id="" style="fill:none;stroke:black;opacity:1;stroke-width:0.5;" x1="263" x2="3036" y1="292" y2="292"/>
  <text style="stroke:none;fill:black;font-family:-apple-system,&quot;SF Pro Display&quot;,&quot;SF Pro Text&quot;,Helvetica,sans-serif;font-weight:bold;" transform="matrix(1 0 0 1 263 322)">Weight/Scale Variations</text>
  <text style="stroke:none;fill:black;font-family:-apple-system,&quot;SF Pro Display&quot;,&quot;SF Pro Text&quot;,Helvetica,sans-serif;text-anchor:middle;" transform="matrix(1 0 0 1 559.711 322)">Ultralight</text>
  <text style="stroke:none;fill:black;font-family:-apple-system,&quot;SF Pro Display&quot;,&quot;SF Pro Text&quot;,Helvetica,sans-serif;text-anchor:middle;" transform="matrix(1 0 0 1 856.422 322)">Thin</text>
  <text style="stroke:none;fill:black;font-family:-apple-system,&quot;SF Pro Display&quot;,&quot;SF Pro Text&quot;,Helvetica,sans-serif;text-anchor:middle;" transform="matrix(1 0 0 1 1153.13 322)">Light</text>
  <text style="stroke:none;fill:black;font-family:-apple-system,&quot;SF Pro Display&quot;,&quot;SF Pro Text&quot;,Helvetica,sans-serif;text-anchor:middle;" transform="matrix(1 0 0 1 1449.84 322)">Regular</text>
  <text style="stroke:none;fill:black;font-family:-apple-system,&quot;SF Pro Display&quot;,&quot;SF Pro Text&quot;,Helvetica,sans-serif;text-anchor:middle;" transform="matrix(1 0 0 1 1746.56 322)">Medium</text>
  <text style="stroke:none;fill:black;font-family:-apple-system,&quot;SF Pro Display&quot;,&quot;SF Pro Text&quot;,Helvetica,sans-serif;text-anchor:middle;" transform="matrix(1 0 0 1 2043.27 322)">Semibold</text>
  <text style="stroke:none;fill:black;font-family:-apple-system,&quot;SF Pro Display&quot;,&quot;SF Pro Text&quot;,Helvetica,sans-serif;text-anchor:middle;" transform="matrix(1 0 0 1 2339.98 322)">Bold</text>
  <text style="stroke:none;fill:black;font-family:-apple-system,&quot;SF Pro Display&quot;,&quot;SF Pro Text&quot;,Helvetica,sans-serif;text-anchor:middle;" transform="matrix(1 0 0 1 2636.69 322)">Heavy</text>
  <text style="stroke:none;fill:black;font-family:-apple-system,&quot;SF Pro Display&quot;,&quot;SF Pro Text&quot;,Helvetica,sans-serif;text-anchor:middle;" transform="matrix(1 0 0 1 2933.4 322)">Black</text>
  <line id="" style="fill:none;stroke:black;opacity:1;stroke-width:0.5;" x1="263" x2="3036" y1="1903" y2="1903"/>
  <g id="" transform="matrix(1 0 0 1 263 1933)">
   <path d="M 9.24805 0.830078 C 13.5547 0.830078 17.1387 -2.74414 17.1387 -7.05078 C 17.1387 -11.3574 13.5449 -14.9316 9.23828 -14.9316 C 4.94141 -14.9316 1.36719 -11.3574 1.36719 -7.05078 C 1.36719 -2.74414 4.95117 0.830078 9.24805 0.830078 Z M 9.24805 -0.654297 C 5.70312 -0.654297 2.87109 -3.49609 2.87109 -7.05078 C 2.87109 -10.6055 5.69336 -13.4473 9.23828 -13.4473 C 12.793 -13.4473 15.6348 -10.6055 15.6445 -7.05078 C 15.6543 -3.49609 12.8027 -0.654297 9.24805 -0.654297 Z M 9.22852 -3.42773 C 9.69727 -3.42773 9.9707 -3.74023 9.9707 -4.25781 L 9.9707 -6.31836 L 12.1973 -6.31836 C 12.6953 -6.31836 13.0371 -6.57227 13.0371 -7.04102 C 13.0371 -7.51953 12.7148 -7.7832 12.1973 -7.7832 L 9.9707 -7.7832 L 9.9707 -10.0098 C 9.9707 -10.5273 9.69727 -10.8496 9.22852 -10.8496 C 8.75977 -10.8496 8.50586 -10.5078 8.50586 -10.0098 L 8.50586 -7.7832 L 6.29883 -7.7832 C 5.78125 -7.7832 5.44922 -7.51953 5.44922 -7.04102 C 5.44922 -6.57227 5.80078 -6.31836 6.29883 -6.31836 L 8.50586 -6.31836 L 8.50586 -4.25781 C 8.50586 -3.75977 8.75977 -3.42773 9.22852 -3.42773 Z"/>
  </g>
  <g id="" transform="matrix(1 0 0 1 281.506 1933)">
   <path d="M 11.709 2.91016 C 17.1484 2.91016 21.6699 -1.60156 21.6699 -7.05078 C 21.6699 -12.4902 17.1387 -17.0117 11.6992 -17.0117 C 6.25 -17.0117 1.74805 -12.4902 1.74805 -7.05078 C 1.74805 -1.60156 6.25977 2.91016 11.709 2.91016 Z M 11.709 1.25 C 7.09961 1.25 3.41797 -2.44141 3.41797 -7.05078 C 3.41797 -11.6504 7.08984 -15.3516 11.6992 -15.3516 C 16.2988 -15.3516 20 -11.6504 20.0098 -7.05078 C 20.0195 -2.44141 16.3086 1.25 11.709 1.25 Z M 11.6797 -2.41211 C 12.207 -2.41211 12.5195 -2.77344 12.5195 -3.33984 L 12.5195 -6.23047 L 15.5762 -6.23047 C 16.123 -6.23047 16.5039 -6.51367 16.5039 -7.03125 C 16.5039 -7.55859 16.1426 -7.86133 15.5762 -7.86133 L 12.5195 -7.86133 L 12.5195 -10.9277 C 12.5195 -11.5039 12.207 -11.8555 11.6797 -11.8555 C 11.1621 -11.8555 10.8789 -11.4844 10.8789 -10.9277 L 10.8789 -7.86133 L 7.83203 -7.86133 C 7.25586 -7.86133 6.89453 -7.55859 6.89453 -7.03125 C 6.89453 -6.51367 7.28516 -6.23047 7.83203 -6.23047 L 10.8789 -6.23047 L 10.8789 -3.33984 C 10.8789 -2.79297 11.1621 -2.41211 11.6797 -2.41211 Z"/>
  </g>
  <g id="" transform="matrix(1 0 0 1 304.914 1933)">
   <path d="M 14.9707 5.67383 C 21.9336 5.67383 27.6855 -0.078125 27.6855 -7.04102 C 27.6855 -14.0039 21.9238 -19.7559 14.9609 -19.7559 C 7.99805 -19.7559 2.25586 -14.0039 2.25586 -7.04102 C 2.25586 -0.078125 8.00781 5.67383 14.9707 5.67383 Z M 14.9707 3.85742 C 8.92578 3.85742 4.08203 -1.00586 4.08203 -7.04102 C 4.08203 -13.0762 8.91602 -17.9395 14.9609 -17.9395 C 20.9961 -17.9395 25.8594 -13.0762 25.8691 -7.04102 C 25.8789 -1.00586 21.0059 3.85742 14.9707 3.85742 Z M 14.9414 -1.06445 C 15.5176 -1.06445 15.8594 -1.45508 15.8594 -2.06055 L 15.8594 -6.13281 L 20.0977 -6.13281 C 20.6934 -6.13281 21.1133 -6.46484 21.1133 -7.02148 C 21.1133 -7.59766 20.7227 -7.93945 20.0977 -7.93945 L 15.8594 -7.93945 L 15.8594 -12.1875 C 15.8594 -12.8027 15.5176 -13.1934 14.9414 -13.1934 C 14.3848 -13.1934 14.0625 -12.7832 14.0625 -12.1875 L 14.0625 -7.93945 L 9.82422 -7.93945 C 9.20898 -7.93945 8.80859 -7.59766 8.80859 -7.02148 C 8.80859 -6.46484 9.23828 -6.13281 9.82422 -6.13281 L 14.0625 -6.13281 L 14.0625 -2.06055 C 14.0625 -1.47461 14.3848 -1.06445 14.9414 -1.06445 Z"/>
  </g>
  <text style="stroke:none;fill:black;font-family:-apple-system,&quot;SF Pro Display&quot;,&quot;SF Pro Text&quot;,Helvetica,sans-serif;font-weight:bold;" transform="matrix(1 0 0 1 263 1953)">Design Variations</text>
  <text style="stroke:none;fill:black;font-family:-apple-system,&quot;SF Pro Display&quot;,&quot;SF Pro Text&quot;,Helvetica,sans-serif;" transform="matrix(1 0 0 1 263 1971)">Symbols are supported in up to nine weights and three scales.</text>
  <text style="stroke:none;fill:black;font-family:-apple-system,&quot;SF Pro Display&quot;,&quot;SF Pro Text&quot;,Helvetica,sans-serif;" transform="matrix(1 0 0 1 263 1989)">For optimal layout with text and other symbols, vertically align</text>
  <text style="stroke:none;fill:black;font-family:-apple-system,&quot;SF Pro Display&quot;,&quot;SF Pro Text&quot;,Helvetica,sans-serif;" transform="matrix(1 0 0 1 263 2007)">symbols with the adjacent text.</text>
  <rect height="14" id="" style="fill:#00AEEF;stroke:none;opacity:0.4;" width="3" x="776" y="1919"/>
  <g id="" transform="matrix(1 0 0 1 779 1933)">
   <path d="M 10.5273 0 L 12.373 0 L 7.17773 -14.0918 L 5.43945 -14.0918 L 0.244141 0 L 2.08984 0 L 3.50586 -4.0332 L 9.11133 -4.0332 Z M 6.2793 -11.9531 L 6.33789 -11.9531 L 8.59375 -5.52734 L 4.02344 -5.52734 Z"/>
  </g>
  <rect height="14" id="" style="fill:#00AEEF;stroke:none;opacity:0.4;" width="3" x="791.617" y="1919"/>
  <text style="stroke:none;fill:black;font-family:-apple-system,&quot;SF Pro Display&quot;,&quot;SF Pro Text&quot;,Helvetica,sans-serif;font-weight:bold;" transform="matrix(1 0 0 1 776 1953)">Side Bearings</text>
  <text style="stroke:none;fill:black;font-family:-apple-system,&quot;SF Pro Display&quot;,&quot;SF Pro Text&quot;,Helvetica,sans-serif;" transform="matrix(1 0 0 1 776 1971)">Horizontal padding on the left and right side of each symbol</text>
  <text style="stroke:none;fill:black;font-family:-apple-system,&quot;SF Pro Display&quot;,&quot;SF Pro Text&quot;,Helvetica,sans-serif;" transform="matrix(1 0 0 1 776 1989)">can be adjusted by modifying the width of the blue rectangles.</text>
  <text style="stroke:none;fill:black;font-family:-apple-system,&quot;SF Pro Display&quot;,&quot;SF Pro Text&quot;,Helvetica,sans-serif;" transform="matrix(1 0 0 1 776 2007)">Modifications are automatically applied proportionally to all</text>
  <text style="stroke:none;fill:black;font-family:-apple-system,&quot;SF Pro Display&quot;,&quot;SF Pro Text&quot;,Helvetica,sans-serif;" transform="matrix(1 0 0 1 776 2025)">scales and weights.</text>
  <g id="" transform="matrix(1 0 0 1 1289 1933)">
   <path d="M 2.96875 2.35352 L 3.80859 3.19336 C 4.84375 4.22852 6.12305 4.15039 7.19727 2.97852 L 16.1621 -6.82617 C 16.5527 -6.74805 16.9629 -6.8457 17.4902 -7.02148 C 18.1738 -7.25586 18.2715 -7.25586 18.3887 -7.13867 C 18.5352 -7.01172 18.4863 -6.89453 18.2422 -6.25 C 17.8809 -5.33203 17.8125 -4.79492 18.5547 -4.02344 L 19.4238 -3.13477 C 20.2734 -2.24609 21.3281 -2.26562 22.2168 -3.14453 L 25.0586 -5.97656 C 25.9473 -6.86523 25.957 -7.92969 25.0781 -8.7793 L 24.1797 -9.64844 C 23.4082 -10.4004 22.8711 -10.3516 21.9629 -9.98047 C 21.3184 -9.72656 21.2012 -9.6875 21.0645 -9.81445 C 20.9375 -9.93164 20.9473 -10.0391 21.1816 -10.7129 C 21.5332 -11.6895 21.5723 -12.2852 20.752 -13.0957 L 19.3359 -14.5117 C 15.1953 -18.6133 11.2305 -18.7402 7.65625 -15.4395 C 7.08008 -14.9023 6.99219 -14.1504 7.53906 -13.6133 L 7.79297 -13.3594 C 8.22266 -12.9297 8.86719 -12.8418 9.41406 -13.1152 C 11.0645 -13.9453 12.2559 -14.0234 13.457 -12.9785 L 13.0273 -11.416 C 12.8516 -10.8008 12.793 -10.3418 12.9199 -9.93164 L 3.18359 -1.04492 C 2.02148 0.0292969 1.93359 1.32812 2.96875 2.35352 Z M 8.96484 -14.4922 C 8.89648 -14.5703 8.86719 -14.6582 8.99414 -14.7559 C 11.709 -17.2852 15.0391 -16.8457 18.3496 -13.5254 L 19.6973 -12.168 C 20.0879 -11.7773 20.0977 -11.582 19.8828 -10.8691 C 19.6582 -10.127 19.502 -9.53125 20.1465 -8.88672 C 20.8105 -8.22266 21.2891 -8.41797 22.207 -8.63281 C 22.9004 -8.79883 23.0664 -8.79883 23.4473 -8.41797 L 24.0918 -7.77344 C 24.4043 -7.48047 24.4141 -7.32422 24.0723 -6.97266 L 21.2207 -4.13086 C 20.8887 -3.79883 20.7227 -3.79883 20.4297 -4.10156 L 19.7852 -4.75586 C 19.4141 -5.13672 19.4141 -5.30273 19.5801 -6.01562 C 19.7852 -6.88477 19.9805 -7.38281 19.3262 -8.04688 C 18.6719 -8.7207 18.0762 -8.57422 17.3438 -8.33008 C 16.5625 -8.06641 16.3281 -8.06641 15.8984 -8.49609 L 14.6094 -9.78516 C 14.1699 -10.2246 14.1309 -10.4395 14.2676 -10.9082 L 15.0293 -13.3984 C 13.3887 -15.2832 11.4941 -15.5566 9.20898 -14.4434 C 9.11133 -14.3945 9.04297 -14.4141 8.96484 -14.4922 Z M 3.96484 1.36719 C 3.52539 0.927734 3.54492 0.537109 4.14062 -0.00976562 L 13.7402 -8.81836 L 15 -7.55859 L 6.17188 2.02148 C 5.625 2.60742 5.24414 2.64648 4.79492 2.19727 Z"/>
  </g>
  <text style="stroke:none;fill:black;font-family:-apple-system,&quot;SF Pro Display&quot;,&quot;SF Pro Text&quot;,Helvetica,sans-serif;font-weight:bold;" transform="matrix(1 0 0 1 1289 1953)">Exporting</text>
  <text style="stroke:none;fill:black;font-family:-apple-system,&quot;SF Pro Display&quot;,&quot;SF Pro Text&quot;,Helvetica,sans-serif;" transform="matrix(1 0 0 1 1289 1971)">Symbols should be outlined when exporting to ensure the</text>
  <text style="stroke:none;fill:black;font-family:-apple-system,&quot;SF Pro Display&quot;,&quot;SF Pro Text&quot;,Helvetica,sans-serif;" transform="matrix(1 0 0 1 1289 1989)">design is preserved when submitting to Xcode.</text>
  <text id="template-version" style="stroke:none;fill:black;font-family:-apple-system,&quot;SF Pro Display&quot;,&quot;SF Pro Text&quot;,Helvetica,sans-serif;text-anchor:end;" transform="matrix(1 0 0 1 3036 1933)">Template v.0.1</text>
  <text style="stroke:none;fill:black;font-family:-apple-system,&quot;SF Pro Display&quot;,&quot;SF Pro Text&quot;,Helvetica,sans-serif;text-anchor:end;" transform="matrix(1 0 0 1 3036 1951)">Generated from bubble.right.fill</text>
  <text style="stroke:none;fill:black;font-family:-apple-system,&quot;SF Pro Display&quot;,&quot;SF Pro Text&quot;,Helvetica,sans-serif;text-anchor:end;" transform="matrix(1 0 0 1 3036 1969)">Typeset at 100 points</text>
  <text style="stroke:none;fill:black;font-family:-apple-system,&quot;SF Pro Display&quot;,&quot;SF Pro Text&quot;,Helvetica,sans-serif;" transform="matrix(1 0 0 1 263 726)">Small</text>
  <text style="stroke:none;fill:black;font-family:-apple-system,&quot;SF Pro Display&quot;,&quot;SF Pro Text&quot;,Helvetica,sans-serif;" transform="matrix(1 0 0 1 263 1156)">Medium</text>
  <text style="stroke:none;fill:black;font-family:-apple-system,&quot;SF Pro Display&quot;,&quot;SF Pro Text&quot;,Helvetica,sans-serif;" transform="matrix(1 0 0 1 263 1586)">Large</text>
 </g>
 <g id="Guides">
  <g id="H-reference" style="fill:#27AAE1;stroke:none;" transform="matrix(1 0 0 1 339 696)">
   <path d="M 54.9316 0 L 57.666 0 L 30.5664 -70.459 L 28.0762 -70.459 L 0.976562 0 L 3.66211 0 L 12.9395 -24.4629 L 45.7031 -24.4629 Z M 29.1992 -67.0898 L 29.4434 -67.0898 L 44.8242 -26.709 L 13.8184 -26.709 Z"/>
  </g>
  <line id="Baseline-S" style="fill:none;stroke:#27AAE1;opacity:1;stroke-width:0.577;" x1="263" x2="3036" y1="696" y2="696"/>
  <line id="Capline-S" style="fill:none;stroke:#27AAE1;opacity:1;stroke-width:0.577;" x1="263" x2="3036" y1="625.541" y2="625.541"/>
  <g id="H-reference" style="fill:#27AAE1;stroke:none;" transform="matrix(1 0 0 1 339 1126)">
   <path d="M 54.9316 0 L 57.666 0 L 30.5664 -70.459 L 28.0762 -70.459 L 0.976562 0 L 3.66211 0 L 12.9395 -24.4629 L 45.7031 -24.4629 Z M 29.1992 -67.0898 L 29.4434 -67.0898 L 44.8242 -26.709 L 13.8184 -26.709 Z"/>
  </g>
  <line id="Baseline-M" style="fill:none;stroke:#27AAE1;opacity:1;stroke-width:0.577;" x1="263" x2="3036" y1="1126" y2="1126"/>
  <line id="Capline-M" style="fill:none;stroke:#27AAE1;opacity:1;stroke-width:0.577;" x1="263" x2="3036" y1="1055.54" y2="1055.54"/>
  <g id="H-reference" style="fill:#27AAE1;stroke:none;" transform="matrix(1 0 0 1 339 1556)">
   <path d="M 54.9316 0 L 57.666 0 L 30.5664 -70.459 L 28.0762 -70.459 L 0.976562 0 L 3.66211 0 L 12.9395 -24.4629 L 45.7031 -24.4629 Z M 29.1992 -67.0898 L 29.4434 -67.0898 L 44.8242 -26.709 L 13.8184 -26.709 Z"/>
  </g>
  <line id="Baseline-L" style="fill:none;stroke:#27AAE1;opacity:1;stroke-width:0.577;" x1="263" x2="3036" y1="1556" y2="1556"/>
  <line id="Capline-L" style="fill:none;stroke:#27AAE1;opacity:1;stroke-width:0.577;" x1="263" x2="3036" y1="1485.54" y2="1485.54"/>
  <rect height="119.336" id="left-margin" style="fill:#00AEEF;stroke:none;opacity:0.4;" width="12.4512" x="1385.66" y="1030.79"/>
  <rect height="119.336" id="right-margin" style="fill:#00AEEF;stroke:none;opacity:0.4;" width="12.5" x="1501.53" y="1030.79"/>
 </g>
 <g id="Symbols">
  <g id="Ultralight-S" transform="matrix(1 0 0 1 509.638 696)">
   <path d="M 72.168 4.15039 C 73.0957 4.15039 73.7305 3.4668 73.7305 2.34375 L 73.7305 -8.69141 L 76.5137 -8.69141 C 84.9609 -8.69141 90.3809 -14.1113 90.3809 -22.5586 L 90.3809 -56.1035 C 90.3809 -64.5508 84.9609 -69.9219 76.5137 -69.9219 L 23.584 -69.9219 C 15.1367 -69.9219 9.76562 -64.4531 9.76562 -56.1035 L 9.76562 -22.5586 C 9.76562 -14.209 15.1367 -8.69141 23.584 -8.69141 L 56.3965 -8.69141 L 70.3125 3.22266 C 70.8984 3.71094 71.4844 4.15039 72.168 4.15039 Z"/>
  </g>
  <g id="Thin-S" transform="matrix(1 0 0 1 806.3 696)">
   <path d="M 71.0938 4.93164 C 72.3633 4.93164 73.1934 4.00391 73.1934 2.53906 L 73.1934 -8.49609 L 76.3672 -8.49609 C 84.9121 -8.49609 90.4785 -14.1113 90.4785 -22.7539 L 90.4785 -56.2012 C 90.4785 -64.8926 84.9121 -70.2637 76.3672 -70.2637 L 23.877 -70.2637 C 15.2344 -70.2637 9.76562 -64.7949 9.76562 -56.2012 L 9.76562 -22.7539 C 9.76562 -14.1602 15.2344 -8.49609 23.877 -8.49609 L 54.6387 -8.49609 L 68.5059 3.61328 C 69.4824 4.44336 70.166 4.93164 71.0938 4.93164 Z"/>
  </g>
  <g id="Light-S" transform="matrix(1 0 0 1 1102.89 696)">
   <path d="M 68.9941 6.49414 C 70.9473 6.49414 72.0703 5.07812 72.0703 2.97852 L 72.0703 -8.1543 L 76.0742 -8.1543 C 84.8145 -8.1543 90.7227 -14.1113 90.7227 -23.1445 L 90.7227 -56.3965 C 90.7227 -65.4297 84.8145 -70.8984 76.0742 -70.8984 L 24.3652 -70.8984 C 15.332 -70.8984 9.76562 -65.4297 9.76562 -56.3965 L 9.76562 -23.1445 C 9.76562 -14.1602 15.332 -8.1543 24.3652 -8.1543 L 51.2207 -8.1543 L 65.0879 4.3457 C 66.6504 5.76172 67.627 6.49414 68.9941 6.49414 Z"/>
  </g>
  <g id="Regular-S" transform="matrix(1 0 0 1 1399.53 696)">
   <path d="M 67.4316 7.66602 C 69.873 7.66602 71.2402 5.9082 71.2402 3.27148 L 71.2402 -7.91016 L 75.8789 -7.91016 C 84.7656 -7.91016 90.8691 -14.1113 90.8691 -23.4375 L 90.8691 -56.543 C 90.8691 -65.8691 84.7656 -71.3379 75.8789 -71.3379 L 24.8047 -71.3379 C 15.4297 -71.3379 9.76562 -65.8691 9.76562 -56.543 L 9.76562 -23.4375 C 9.76562 -14.1113 15.4297 -7.91016 24.8047 -7.91016 L 48.6328 -7.91016 L 62.4512 4.88281 C 64.5508 6.78711 65.7227 7.66602 67.4316 7.66602 Z"/>
  </g>
  <g id="Medium-S" transform="matrix(1 0 0 1 1695.55 696)">
   <path d="M 68.7012 8.00781 C 71.2402 8.00781 72.7539 6.20117 72.7539 3.41797 L 72.7539 -7.66602 L 77.1484 -7.66602 C 86.3281 -7.66602 92.2363 -13.5742 92.2363 -22.998 L 92.2363 -56.4941 C 92.1875 -66.0645 86.1816 -71.582 76.8066 -71.582 L 25.1953 -71.582 C 15.4297 -71.582 9.76562 -66.0645 9.76562 -56.4941 L 9.76562 -22.998 C 9.76562 -13.4766 15.4297 -7.66602 25.1953 -7.66602 L 49.3164 -7.66602 L 63.4766 5.22461 C 65.625 7.17773 66.9434 8.00781 68.7012 8.00781 Z"/>
  </g>
  <g id="Semibold-S" transform="matrix(1 0 0 1 1991.75 696)">
   <path d="M 69.6777 8.25195 C 72.3145 8.25195 73.877 6.44531 73.877 3.56445 L 73.877 -7.4707 L 78.0762 -7.4707 C 87.5 -7.4707 93.2617 -13.1836 93.2617 -22.6562 L 93.2617 -56.4453 C 93.2129 -66.1621 87.2559 -71.7773 77.4902 -71.7773 L 25.4883 -71.7773 C 15.4297 -71.7773 9.76562 -66.1621 9.76562 -56.4453 L 9.76562 -22.6562 C 9.76562 -12.9883 15.4297 -7.4707 25.4883 -7.4707 L 49.8535 -7.4707 L 64.2578 5.46875 C 66.4551 7.4707 67.8711 8.25195 69.6777 8.25195 Z"/>
  </g>
  <g id="Bold-S" transform="matrix(1 0 0 1 2287.8 696)">
   <path d="M 70.9961 8.59375 C 73.7305 8.59375 75.3906 6.73828 75.3906 3.71094 L 75.3906 -7.22656 L 79.3945 -7.22656 C 89.0625 -7.22656 94.5801 -12.6465 94.5801 -22.2168 L 94.5801 -56.3965 C 94.5312 -66.3574 88.7207 -72.0215 78.418 -72.0215 L 25.9277 -72.0215 C 15.4297 -72.0215 9.76562 -66.3086 9.76562 -56.3965 L 9.76562 -22.2168 C 9.76562 -12.3535 15.4297 -7.22656 25.9277 -7.22656 L 50.4883 -7.22656 L 65.2832 5.81055 C 67.5781 7.86133 69.0918 8.59375 70.9961 8.59375 Z"/>
  </g>
  <g id="Heavy-S" transform="matrix(1 0 0 1 2583.54 696)">
   <path d="M 72.9004 9.08203 C 75.7812 9.08203 77.5879 7.17773 77.5879 3.95508 L 77.5879 -6.88477 L 81.2012 -6.88477 C 91.3086 -6.88477 96.5332 -11.8652 96.5332 -21.582 L 96.5332 -56.3477 C 96.4844 -66.5527 90.7715 -72.3633 79.7363 -72.3633 L 26.5137 -72.3633 C 15.4785 -72.3633 9.76562 -66.5527 9.76562 -56.3477 L 9.76562 -21.582 C 9.76562 -11.4258 15.4785 -6.88477 26.5137 -6.88477 L 51.5137 -6.88477 L 66.748 6.29883 C 69.1406 8.39844 70.8984 9.08203 72.9004 9.08203 Z"/>
  </g>
  <g id="Black-S" transform="matrix(1 0 0 1 2879.37 696)">
   <path d="M 74.5605 9.52148 C 77.5879 9.52148 79.5898 7.56836 79.5898 4.19922 L 79.5898 -6.54297 L 82.8613 -6.54297 C 93.3105 -6.54297 98.291 -11.1816 98.291 -20.9961 L 98.291 -56.2988 C 98.2422 -66.7969 92.627 -72.7051 80.957 -72.7051 L 27.0508 -72.7051 C 15.4785 -72.7051 9.76562 -66.7969 9.76562 -56.2988 L 9.76562 -20.9961 C 9.76562 -10.5957 15.4785 -6.54297 27.0508 -6.54297 L 52.3926 -6.54297 L 68.0664 6.73828 C 70.6055 8.93555 72.5098 9.52148 74.5605 9.52148 Z"/>
  </g>
  <g id="Ultralight-M" transform="matrix(1 0 0 1 495.844 1126)">
   <path d="M 92.5293 14.6973 C 93.5547 14.6973 94.3359 13.916 94.3359 12.6465 L 94.3359 -1.41602 L 97.7539 -1.41602 C 108.447 -1.41602 115.283 -8.25195 115.283 -18.9941 L 115.283 -61.8652 C 115.283 -72.5586 108.447 -79.4434 97.7539 -79.4434 L 30.0293 -79.4434 C 19.3359 -79.4434 12.4512 -72.4609 12.4512 -61.8652 L 12.4512 -18.9941 C 12.4512 -8.39844 19.3359 -1.41602 30.0293 -1.41602 L 72.6562 -1.41602 L 90.4297 13.6719 C 91.0645 14.209 91.748 14.6973 92.5293 14.6973 Z"/>
  </g>
  <g id="Thin-M" transform="matrix(1 0 0 1 792.482 1126)">
   <path d="M 91.3086 15.625 C 92.7246 15.625 93.7012 14.5508 93.7012 12.8906 L 93.7012 -1.2207 L 97.5586 -1.2207 C 108.398 -1.2207 115.43 -8.25195 115.43 -19.1895 L 115.43 -61.9629 C 115.43 -72.9004 108.398 -79.7852 97.5586 -79.7852 L 30.3223 -79.7852 C 19.3848 -79.7852 12.4512 -72.8027 12.4512 -61.9629 L 12.4512 -19.1895 C 12.4512 -8.39844 19.3848 -1.2207 30.3223 -1.2207 L 70.6543 -1.2207 L 88.4277 14.1113 C 89.4531 14.9902 90.2832 15.625 91.3086 15.625 Z"/>
  </g>
  <g id="Light-M" transform="matrix(1 0 0 1 1089.05 1126)">
   <path d="M 88.9648 17.3828 C 91.1133 17.3828 92.4805 15.7715 92.4805 13.3301 L 92.4805 -0.830078 L 97.2168 -0.830078 C 108.301 -0.830078 115.674 -8.25195 115.674 -19.6289 L 115.674 -62.1582 C 115.674 -73.584 108.301 -80.4688 97.2168 -80.4688 L 30.9082 -80.4688 C 19.5312 -80.4688 12.4512 -73.4863 12.4512 -62.1582 L 12.4512 -19.6289 C 12.4512 -8.34961 19.5312 -0.830078 30.9082 -0.830078 L 66.7969 -0.830078 L 84.5215 14.9414 C 86.2793 16.5527 87.4023 17.3828 88.9648 17.3828 Z"/>
  </g>
  <g id="Regular-M" transform="matrix(1 0 0 1 1385.66 1126)">
   <path d="M 87.1582 18.7012 C 89.9414 18.7012 91.5039 16.6992 91.5039 13.6719 L 91.5039 -0.537109 L 96.9727 -0.537109 C 108.252 -0.537109 115.869 -8.25195 115.869 -19.9707 L 115.869 -62.3047 C 115.869 -74.0723 108.252 -81.0059 96.9727 -81.0059 L 31.3477 -81.0059 C 19.6289 -81.0059 12.4512 -74.0234 12.4512 -62.3047 L 12.4512 -19.9707 C 12.4512 -8.30078 19.6289 -0.537109 31.3477 -0.537109 L 63.916 -0.537109 L 81.543 15.5762 C 83.8379 17.7246 85.2051 18.7012 87.1582 18.7012 Z"/>
  </g>
  <g id="Medium-M" transform="matrix(1 0 0 1 1681.69 1126)">
   <path d="M 88.2812 19.1895 C 91.2109 19.1895 92.9199 17.1387 92.9199 13.916 L 92.9199 -0.244141 L 98.2422 -0.244141 C 109.814 -0.244141 117.285 -7.71484 117.285 -19.5801 L 117.285 -62.3047 C 117.236 -74.2676 109.668 -81.2988 97.9004 -81.2988 L 31.8359 -81.2988 C 19.6289 -81.2988 12.4512 -74.2676 12.4512 -62.3047 L 12.4512 -19.5801 C 12.4512 -7.66602 19.6289 -0.244141 31.8359 -0.244141 L 64.2578 -0.244141 L 82.2266 16.0156 C 84.668 18.2129 86.2305 19.1895 88.2812 19.1895 Z"/>
  </g>
  <g id="Semibold-M" transform="matrix(1 0 0 1 1977.86 1126)">
   <path d="M 89.1113 19.5801 C 92.1875 19.5801 94.043 17.4316 94.043 14.0625 L 94.043 -0.0488281 L 99.2188 -0.0488281 C 111.035 -0.0488281 118.311 -7.32422 118.311 -19.2383 L 118.311 -62.2559 C 118.311 -74.4629 110.791 -81.543 98.584 -81.543 L 32.1777 -81.543 C 19.6777 -81.543 12.4512 -74.4141 12.4512 -62.2559 L 12.4512 -19.2383 C 12.4512 -7.17773 19.6777 -0.0488281 32.1777 -0.0488281 L 64.502 -0.0488281 L 82.7637 16.3086 C 85.3027 18.6523 86.9629 19.5801 89.1113 19.5801 Z"/>
  </g>
  <g id="Bold-M" transform="matrix(1 0 0 1 2273.89 1126)">
   <path d="M 90.2344 20.0684 C 93.5059 20.0684 95.459 17.8711 95.459 14.2578 L 95.459 0.244141 L 100.488 0.244141 C 112.598 0.244141 119.727 -6.78711 119.727 -18.8477 L 119.727 -62.2559 C 119.678 -74.6582 112.256 -81.8848 99.5117 -81.8848 L 32.666 -81.8848 C 19.6777 -81.8848 12.4512 -74.6582 12.4512 -62.2559 L 12.4512 -18.8477 C 12.4512 -6.49414 19.6777 0.244141 32.666 0.244141 L 64.8438 0.244141 L 83.4473 16.748 C 86.1816 19.1895 87.9883 20.0684 90.2344 20.0684 Z"/>
  </g>
  <g id="Heavy-M" transform="matrix(1 0 0 1 2569.57 1126)">
   <path d="M 91.8457 20.8496 C 95.3613 20.8496 97.5586 18.457 97.5586 14.5996 L 97.5586 0.683594 L 102.344 0.683594 C 114.893 0.683594 121.777 -6.00586 121.777 -18.2129 L 121.777 -62.207 C 121.729 -75 114.355 -82.3242 100.83 -82.3242 L 33.3496 -82.3242 C 19.7266 -82.3242 12.4512 -75 12.4512 -62.207 L 12.4512 -18.2129 C 12.4512 -5.56641 19.7266 0.683594 33.3496 0.683594 L 65.332 0.683594 L 84.4727 17.334 C 87.4023 19.9219 89.4531 20.8496 91.8457 20.8496 Z"/>
  </g>
  <g id="Black-M" transform="matrix(1 0 0 1 2865.38 1126)">
   <path d="M 93.3105 21.4844 C 97.0215 21.4844 99.4141 18.9941 99.4141 14.8926 L 99.4141 1.02539 L 104.004 1.02539 C 116.943 1.02539 123.584 -5.27344 123.584 -17.6758 L 123.584 -62.1582 C 123.535 -75.293 116.26 -82.7148 102.002 -82.7148 L 33.9355 -82.7148 C 19.7754 -82.7148 12.4512 -75.293 12.4512 -62.1582 L 12.4512 -17.6758 C 12.4512 -4.6875 19.7754 1.02539 33.9355 1.02539 L 65.7715 1.02539 L 85.3516 17.8711 C 88.4766 20.6055 90.7227 21.4844 93.3105 21.4844 Z"/>
  </g>
  <g id="Ultralight-L" transform="matrix(1 0 0 1 477.314 1556)">
   <path d="M 119.922 28.8086 C 121.094 28.8086 122.021 27.9297 122.021 26.4648 L 122.021 8.30078 L 126.172 8.30078 C 139.941 8.30078 148.682 -0.439453 148.682 -14.1602 L 148.682 -69.5312 C 148.682 -83.252 139.941 -92.0898 126.172 -92.0898 L 38.623 -92.0898 C 24.9023 -92.0898 16.0645 -83.1055 16.0645 -69.5312 L 16.0645 -14.1602 C 16.0645 -0.634766 24.9023 8.30078 38.623 8.30078 L 94.5801 8.30078 L 117.529 27.7344 C 118.213 28.2227 118.994 28.8086 119.922 28.8086 Z"/>
  </g>
  <g id="Thin-L" transform="matrix(1 0 0 1 773.952 1556)">
   <path d="M 118.555 29.834 C 120.166 29.834 121.289 28.6133 121.289 26.709 L 121.289 8.49609 L 126.025 8.49609 C 139.893 8.49609 148.877 -0.439453 148.877 -14.4043 L 148.877 -69.6777 C 148.877 -83.6426 139.893 -92.4805 126.025 -92.4805 L 38.916 -92.4805 C 24.9512 -92.4805 16.0645 -83.4961 16.0645 -69.6777 L 16.0645 -14.4043 C 16.0645 -0.585938 24.9512 8.49609 38.916 8.49609 L 92.3828 8.49609 L 115.283 28.1738 C 116.406 29.1016 117.383 29.834 118.555 29.834 Z"/>
  </g>
  <g id="Light-L" transform="matrix(1 0 0 1 1070.52 1556)">
   <path d="M 115.918 31.7871 C 118.359 31.7871 119.922 29.9805 119.922 27.2461 L 119.922 8.93555 L 125.635 8.93555 C 139.795 8.93555 149.17 -0.439453 149.17 -14.8926 L 149.17 -69.873 C 149.17 -84.375 139.795 -93.2617 125.635 -93.2617 L 39.5996 -93.2617 C 25.0977 -93.2617 16.0645 -84.2773 16.0645 -69.873 L 16.0645 -14.8926 C 16.0645 -0.537109 25.0977 8.93555 39.5996 8.93555 L 88.0859 8.93555 L 110.938 29.1016 C 112.842 30.8105 114.16 31.7871 115.918 31.7871 Z"/>
  </g>
  <g id="Regular-L" transform="matrix(1 0 0 1 1367.13 1556)">
   <path d="M 113.916 33.252 C 117.041 33.252 118.848 31.0059 118.848 27.5879 L 118.848 9.27734 L 125.342 9.27734 C 139.746 9.27734 149.365 -0.439453 149.365 -15.2832 L 149.365 -70.0684 C 149.365 -84.9121 139.746 -93.8477 125.342 -93.8477 L 40.0879 -93.8477 C 25.2441 -93.8477 16.0645 -84.8633 16.0645 -70.0684 L 16.0645 -15.2832 C 16.0645 -0.488281 25.2441 9.27734 40.0879 9.27734 L 84.8145 9.27734 L 107.666 29.834 C 110.156 32.1289 111.768 33.252 113.916 33.252 Z"/>
  </g>
  <g id="Medium-L" transform="matrix(1 0 0 1 1663.18 1556)">
   <path d="M 114.6 33.9844 C 117.969 33.9844 119.971 31.5918 119.971 27.8809 L 119.971 9.61914 L 126.465 9.61914 C 141.162 9.61914 150.684 0.0488281 150.684 -14.9414 L 150.684 -70.0684 C 150.684 -85.2051 141.016 -94.2383 126.123 -94.2383 L 40.625 -94.2383 C 25.293 -94.2383 16.0645 -85.1562 16.0645 -70.0684 L 16.0645 -14.9414 C 16.0645 0.0976562 25.293 9.61914 40.625 9.61914 L 84.5703 9.61914 L 107.666 30.3223 C 110.449 32.8613 112.207 33.9844 114.6 33.9844 Z"/>
  </g>
  <g id="Semibold-L" transform="matrix(1 0 0 1 1959.38 1556)">
   <path d="M 115.088 34.5703 C 118.652 34.5703 120.801 32.0312 120.801 28.0762 L 120.801 9.86328 L 127.295 9.86328 C 142.236 9.86328 151.66 0.439453 151.66 -14.7461 L 151.66 -70.0684 C 151.66 -85.4492 142.041 -94.5312 126.709 -94.5312 L 41.0156 -94.5312 C 25.293 -94.5312 16.0645 -85.4004 16.0645 -70.0684 L 16.0645 -14.7461 C 16.0645 0.537109 25.293 9.86328 41.0156 9.86328 L 84.3262 9.86328 L 107.715 30.7129 C 110.645 33.3984 112.549 34.5703 115.088 34.5703 Z"/>
  </g>
  <g id="Bold-L" transform="matrix(1 0 0 1 2255.43 1556)">
   <path d="M 115.723 35.3027 C 119.58 35.3027 121.924 32.6172 121.924 28.3691 L 121.924 10.1562 L 128.418 10.1562 C 143.652 10.1562 152.979 0.927734 152.979 -14.4043 L 152.979 -70.0684 C 152.979 -85.791 143.359 -94.9707 127.539 -94.9707 L 41.5527 -94.9707 C 25.3418 -94.9707 16.0645 -85.7422 16.0645 -70.0684 L 16.0645 -14.4043 C 16.0645 1.17188 25.3418 10.1562 41.5527 10.1562 L 84.082 10.1562 L 107.715 31.2012 C 110.938 34.1309 113.037 35.3027 115.723 35.3027 Z"/>
  </g>
  <g id="Heavy-L" transform="matrix(1 0 0 1 2551.19 1556)">
   <path d="M 116.699 36.377 C 120.947 36.377 123.584 33.4473 123.584 28.7109 L 123.584 10.6445 L 130.029 10.6445 C 145.752 10.6445 154.932 1.66016 154.932 -13.9648 L 154.932 -70.0684 C 154.883 -86.2305 145.264 -95.5078 128.662 -95.5078 L 42.2852 -95.5078 C 25.3906 -95.5078 16.0645 -86.1816 16.0645 -70.0684 L 16.0645 -13.9648 C 16.0645 2.05078 25.3906 10.6445 42.2852 10.6445 L 83.6426 10.6445 L 107.764 31.9824 C 111.328 35.1562 113.721 36.377 116.699 36.377 Z"/>
  </g>
  <g id="Black-L" transform="matrix(1 0 0 1 2847.05 1556)">
   <path d="M 117.529 37.3047 C 122.168 37.3047 125.049 34.1797 125.049 29.1016 L 125.049 11.084 L 131.494 11.084 C 147.607 11.084 156.641 2.29492 156.641 -13.5742 L 156.641 -70.1172 C 156.592 -86.6211 146.973 -96.0449 129.688 -96.0449 L 42.9688 -96.0449 C 25.4883 -96.0449 16.0645 -86.6211 16.0645 -70.1172 L 16.0645 -13.5742 C 16.0645 2.83203 25.4883 11.084 42.9688 11.084 L 83.3008 11.084 L 107.812 32.6172 C 111.67 36.084 114.355 37.3047 117.529 37.3047 Z"/>
  </g>
 </g>
</svg>
