<?xml version="1.0" encoding="UTF-8"?>
<!--Generator: Apple Native CoreSVG 123-->
<!DOCTYPE svg
PUBLIC "-//W3C//DTD SVG 1.1//EN"
       "http://www.w3.org/Graphics/SVG/1.1/DTD/svg11.dtd">
<svg version="1.1" xmlns="http://www.w3.org/2000/svg" xmlns:xlink="http://www.w3.org/1999/xlink" width="3300" height="2200">
 <!--glyph: "uni1001A2.medium", point size: 100.000000, font version: "Version 15.0d4e20", template writer version: "2"-->
 <g id="Notes">
  <rect height="2200" id="artboard" style="fill:white;opacity:1" width="3300" x="0" y="0"/>
  <line id="" style="fill:none;stroke:black;opacity:1;stroke-width:0.5;" x1="263" x2="3036" y1="292" y2="292"/>
  <text style="stroke:none;fill:black;font-family:-apple-system,&quot;SF Pro Display&quot;,&quot;SF Pro Text&quot;,Helvetica,sans-serif;font-weight:bold;" transform="matrix(1 0 0 1 263 322)">Weight/Scale Variations</text>
  <text style="stroke:none;fill:black;font-family:-apple-system,&quot;SF Pro Display&quot;,&quot;SF Pro Text&quot;,Helvetica,sans-serif;text-anchor:middle;" transform="matrix(1 0 0 1 559.711 322)">Ultralight</text>
  <text style="stroke:none;fill:black;font-family:-apple-system,&quot;SF Pro Display&quot;,&quot;SF Pro Text&quot;,Helvetica,sans-serif;text-anchor:middle;" transform="matrix(1 0 0 1 856.422 322)">Thin</text>
  <text style="stroke:none;fill:black;font-family:-apple-system,&quot;SF Pro Display&quot;,&quot;SF Pro Text&quot;,Helvetica,sans-serif;text-anchor:middle;" transform="matrix(1 0 0 1 1153.13 322)">Light</text>
  <text style="stroke:none;fill:black;font-family:-apple-system,&quot;SF Pro Display&quot;,&quot;SF Pro Text&quot;,Helvetica,sans-serif;text-anchor:middle;" transform="matrix(1 0 0 1 1449.84 322)">Regular</text>
  <text style="stroke:none;fill:black;font-family:-apple-system,&quot;SF Pro Display&quot;,&quot;SF Pro Text&quot;,Helvetica,sans-serif;text-anchor:middle;" transform="matrix(1 0 0 1 1746.56 322)">Medium</text>
  <text style="stroke:none;fill:black;font-family:-apple-system,&quot;SF Pro Display&quot;,&quot;SF Pro Text&quot;,Helvetica,sans-serif;text-anchor:middle;" transform="matrix(1 0 0 1 2043.27 322)">Semibold</text>
  <text style="stroke:none;fill:black;font-family:-apple-system,&quot;SF Pro Display&quot;,&quot;SF Pro Text&quot;,Helvetica,sans-serif;text-anchor:middle;" transform="matrix(1 0 0 1 2339.98 322)">Bold</text>
  <text style="stroke:none;fill:black;font-family:-apple-system,&quot;SF Pro Display&quot;,&quot;SF Pro Text&quot;,Helvetica,sans-serif;text-anchor:middle;" transform="matrix(1 0 0 1 2636.69 322)">Heavy</text>
  <text style="stroke:none;fill:black;font-family:-apple-system,&quot;SF Pro Display&quot;,&quot;SF Pro Text&quot;,Helvetica,sans-serif;text-anchor:middle;" transform="matrix(1 0 0 1 2933.4 322)">Black</text>
  <line id="" style="fill:none;stroke:black;opacity:1;stroke-width:0.5;" x1="263" x2="3036" y1="1903" y2="1903"/>
  <g id="" transform="matrix(1 0 0 1 263 1933)">
   <path d="M 9.24805 0.830078 C 13.5547 0.830078 17.1387 -2.74414 17.1387 -7.05078 C 17.1387 -11.3574 13.5449 -14.9316 9.23828 -14.9316 C 4.94141 -14.9316 1.36719 -11.3574 1.36719 -7.05078 C 1.36719 -2.74414 4.95117 0.830078 9.24805 0.830078 Z M 9.24805 -0.654297 C 5.70312 -0.654297 2.87109 -3.49609 2.87109 -7.05078 C 2.87109 -10.6055 5.69336 -13.4473 9.23828 -13.4473 C 12.793 -13.4473 15.6348 -10.6055 15.6445 -7.05078 C 15.6543 -3.49609 12.8027 -0.654297 9.24805 -0.654297 Z M 9.22852 -3.42773 C 9.69727 -3.42773 9.9707 -3.74023 9.9707 -4.25781 L 9.9707 -6.31836 L 12.1973 -6.31836 C 12.6953 -6.31836 13.0371 -6.57227 13.0371 -7.04102 C 13.0371 -7.51953 12.7148 -7.7832 12.1973 -7.7832 L 9.9707 -7.7832 L 9.9707 -10.0098 C 9.9707 -10.5273 9.69727 -10.8496 9.22852 -10.8496 C 8.75977 -10.8496 8.50586 -10.5078 8.50586 -10.0098 L 8.50586 -7.7832 L 6.29883 -7.7832 C 5.78125 -7.7832 5.44922 -7.51953 5.44922 -7.04102 C 5.44922 -6.57227 5.80078 -6.31836 6.29883 -6.31836 L 8.50586 -6.31836 L 8.50586 -4.25781 C 8.50586 -3.75977 8.75977 -3.42773 9.22852 -3.42773 Z"/>
  </g>
  <g id="" transform="matrix(1 0 0 1 281.506 1933)">
   <path d="M 11.709 2.91016 C 17.1484 2.91016 21.6699 -1.60156 21.6699 -7.05078 C 21.6699 -12.4902 17.1387 -17.0117 11.6992 -17.0117 C 6.25 -17.0117 1.74805 -12.4902 1.74805 -7.05078 C 1.74805 -1.60156 6.25977 2.91016 11.709 2.91016 Z M 11.709 1.25 C 7.09961 1.25 3.41797 -2.44141 3.41797 -7.05078 C 3.41797 -11.6504 7.08984 -15.3516 11.6992 -15.3516 C 16.2988 -15.3516 20 -11.6504 20.0098 -7.05078 C 20.0195 -2.44141 16.3086 1.25 11.709 1.25 Z M 11.6797 -2.41211 C 12.207 -2.41211 12.5195 -2.77344 12.5195 -3.33984 L 12.5195 -6.23047 L 15.5762 -6.23047 C 16.123 -6.23047 16.5039 -6.51367 16.5039 -7.03125 C 16.5039 -7.55859 16.1426 -7.86133 15.5762 -7.86133 L 12.5195 -7.86133 L 12.5195 -10.9277 C 12.5195 -11.5039 12.207 -11.8555 11.6797 -11.8555 C 11.1621 -11.8555 10.8789 -11.4844 10.8789 -10.9277 L 10.8789 -7.86133 L 7.83203 -7.86133 C 7.25586 -7.86133 6.89453 -7.55859 6.89453 -7.03125 C 6.89453 -6.51367 7.28516 -6.23047 7.83203 -6.23047 L 10.8789 -6.23047 L 10.8789 -3.33984 C 10.8789 -2.79297 11.1621 -2.41211 11.6797 -2.41211 Z"/>
  </g>
  <g id="" transform="matrix(1 0 0 1 304.914 1933)">
   <path d="M 14.9707 5.67383 C 21.9336 5.67383 27.6855 -0.078125 27.6855 -7.04102 C 27.6855 -14.0039 21.9238 -19.7559 14.9609 -19.7559 C 7.99805 -19.7559 2.25586 -14.0039 2.25586 -7.04102 C 2.25586 -0.078125 8.00781 5.67383 14.9707 5.67383 Z M 14.9707 3.85742 C 8.92578 3.85742 4.08203 -1.00586 4.08203 -7.04102 C 4.08203 -13.0762 8.91602 -17.9395 14.9609 -17.9395 C 20.9961 -17.9395 25.8594 -13.0762 25.8691 -7.04102 C 25.8789 -1.00586 21.0059 3.85742 14.9707 3.85742 Z M 14.9414 -1.06445 C 15.5176 -1.06445 15.8594 -1.45508 15.8594 -2.06055 L 15.8594 -6.13281 L 20.0977 -6.13281 C 20.6934 -6.13281 21.1133 -6.46484 21.1133 -7.02148 C 21.1133 -7.59766 20.7227 -7.93945 20.0977 -7.93945 L 15.8594 -7.93945 L 15.8594 -12.1875 C 15.8594 -12.8027 15.5176 -13.1934 14.9414 -13.1934 C 14.3848 -13.1934 14.0625 -12.7832 14.0625 -12.1875 L 14.0625 -7.93945 L 9.82422 -7.93945 C 9.20898 -7.93945 8.80859 -7.59766 8.80859 -7.02148 C 8.80859 -6.46484 9.23828 -6.13281 9.82422 -6.13281 L 14.0625 -6.13281 L 14.0625 -2.06055 C 14.0625 -1.47461 14.3848 -1.06445 14.9414 -1.06445 Z"/>
  </g>
  <text style="stroke:none;fill:black;font-family:-apple-system,&quot;SF Pro Display&quot;,&quot;SF Pro Text&quot;,Helvetica,sans-serif;font-weight:bold;" transform="matrix(1 0 0 1 263 1953)">Design Variations</text>
  <text style="stroke:none;fill:black;font-family:-apple-system,&quot;SF Pro Display&quot;,&quot;SF Pro Text&quot;,Helvetica,sans-serif;" transform="matrix(1 0 0 1 263 1971)">Symbols are supported in up to nine weights and three scales.</text>
  <text style="stroke:none;fill:black;font-family:-apple-system,&quot;SF Pro Display&quot;,&quot;SF Pro Text&quot;,Helvetica,sans-serif;" transform="matrix(1 0 0 1 263 1989)">For optimal layout with text and other symbols, vertically align</text>
  <text style="stroke:none;fill:black;font-family:-apple-system,&quot;SF Pro Display&quot;,&quot;SF Pro Text&quot;,Helvetica,sans-serif;" transform="matrix(1 0 0 1 263 2007)">symbols with the adjacent text.</text>
  <rect height="14" id="" style="fill:#00AEEF;stroke:none;opacity:0.4;" width="3" x="776" y="1919"/>
  <g id="" transform="matrix(1 0 0 1 779 1933)">
   <path d="M 10.5273 0 L 12.373 0 L 7.17773 -14.0918 L 5.43945 -14.0918 L 0.244141 0 L 2.08984 0 L 3.50586 -4.0332 L 9.11133 -4.0332 Z M 6.2793 -11.9531 L 6.33789 -11.9531 L 8.59375 -5.52734 L 4.02344 -5.52734 Z"/>
  </g>
  <rect height="14" id="" style="fill:#00AEEF;stroke:none;opacity:0.4;" width="3" x="791.617" y="1919"/>
  <text style="stroke:none;fill:black;font-family:-apple-system,&quot;SF Pro Display&quot;,&quot;SF Pro Text&quot;,Helvetica,sans-serif;font-weight:bold;" transform="matrix(1 0 0 1 776 1953)">Side Bearings</text>
  <text style="stroke:none;fill:black;font-family:-apple-system,&quot;SF Pro Display&quot;,&quot;SF Pro Text&quot;,Helvetica,sans-serif;" transform="matrix(1 0 0 1 776 1971)">Horizontal padding on the left and right side of each symbol</text>
  <text style="stroke:none;fill:black;font-family:-apple-system,&quot;SF Pro Display&quot;,&quot;SF Pro Text&quot;,Helvetica,sans-serif;" transform="matrix(1 0 0 1 776 1989)">can be adjusted by modifying the width of the blue rectangles.</text>
  <text style="stroke:none;fill:black;font-family:-apple-system,&quot;SF Pro Display&quot;,&quot;SF Pro Text&quot;,Helvetica,sans-serif;" transform="matrix(1 0 0 1 776 2007)">Modifications are automatically applied proportionally to all</text>
  <text style="stroke:none;fill:black;font-family:-apple-system,&quot;SF Pro Display&quot;,&quot;SF Pro Text&quot;,Helvetica,sans-serif;" transform="matrix(1 0 0 1 776 2025)">scales and weights.</text>
  <g id="" transform="matrix(1 0 0 1 1289 1933)">
   <path d="M 2.96875 2.35352 L 3.80859 3.19336 C 4.84375 4.22852 6.12305 4.15039 7.19727 2.97852 L 16.1621 -6.82617 C 16.5527 -6.74805 16.9629 -6.8457 17.4902 -7.02148 C 18.1738 -7.25586 18.2715 -7.25586 18.3887 -7.13867 C 18.5352 -7.01172 18.4863 -6.89453 18.2422 -6.25 C 17.8809 -5.33203 17.8125 -4.79492 18.5547 -4.02344 L 19.4238 -3.13477 C 20.2734 -2.24609 21.3281 -2.26562 22.2168 -3.14453 L 25.0586 -5.97656 C 25.9473 -6.86523 25.957 -7.92969 25.0781 -8.7793 L 24.1797 -9.64844 C 23.4082 -10.4004 22.8711 -10.3516 21.9629 -9.98047 C 21.3184 -9.72656 21.2012 -9.6875 21.0645 -9.81445 C 20.9375 -9.93164 20.9473 -10.0391 21.1816 -10.7129 C 21.5332 -11.6895 21.5723 -12.2852 20.752 -13.0957 L 19.3359 -14.5117 C 15.1953 -18.6133 11.2305 -18.7402 7.65625 -15.4395 C 7.08008 -14.9023 6.99219 -14.1504 7.53906 -13.6133 L 7.79297 -13.3594 C 8.22266 -12.9297 8.86719 -12.8418 9.41406 -13.1152 C 11.0645 -13.9453 12.2559 -14.0234 13.457 -12.9785 L 13.0273 -11.416 C 12.8516 -10.8008 12.793 -10.3418 12.9199 -9.93164 L 3.18359 -1.04492 C 2.02148 0.0292969 1.93359 1.32812 2.96875 2.35352 Z M 8.96484 -14.4922 C 8.89648 -14.5703 8.86719 -14.6582 8.99414 -14.7559 C 11.709 -17.2852 15.0391 -16.8457 18.3496 -13.5254 L 19.6973 -12.168 C 20.0879 -11.7773 20.0977 -11.582 19.8828 -10.8691 C 19.6582 -10.127 19.502 -9.53125 20.1465 -8.88672 C 20.8105 -8.22266 21.2891 -8.41797 22.207 -8.63281 C 22.9004 -8.79883 23.0664 -8.79883 23.4473 -8.41797 L 24.0918 -7.77344 C 24.4043 -7.48047 24.4141 -7.32422 24.0723 -6.97266 L 21.2207 -4.13086 C 20.8887 -3.79883 20.7227 -3.79883 20.4297 -4.10156 L 19.7852 -4.75586 C 19.4141 -5.13672 19.4141 -5.30273 19.5801 -6.01562 C 19.7852 -6.88477 19.9805 -7.38281 19.3262 -8.04688 C 18.6719 -8.7207 18.0762 -8.57422 17.3438 -8.33008 C 16.5625 -8.06641 16.3281 -8.06641 15.8984 -8.49609 L 14.6094 -9.78516 C 14.1699 -10.2246 14.1309 -10.4395 14.2676 -10.9082 L 15.0293 -13.3984 C 13.3887 -15.2832 11.4941 -15.5566 9.20898 -14.4434 C 9.11133 -14.3945 9.04297 -14.4141 8.96484 -14.4922 Z M 3.96484 1.36719 C 3.52539 0.927734 3.54492 0.537109 4.14062 -0.00976562 L 13.7402 -8.81836 L 15 -7.55859 L 6.17188 2.02148 C 5.625 2.60742 5.24414 2.64648 4.79492 2.19727 Z"/>
  </g>
  <text style="stroke:none;fill:black;font-family:-apple-system,&quot;SF Pro Display&quot;,&quot;SF Pro Text&quot;,Helvetica,sans-serif;font-weight:bold;" transform="matrix(1 0 0 1 1289 1953)">Exporting</text>
  <text style="stroke:none;fill:black;font-family:-apple-system,&quot;SF Pro Display&quot;,&quot;SF Pro Text&quot;,Helvetica,sans-serif;" transform="matrix(1 0 0 1 1289 1971)">Symbols should be outlined when exporting to ensure the</text>
  <text style="stroke:none;fill:black;font-family:-apple-system,&quot;SF Pro Display&quot;,&quot;SF Pro Text&quot;,Helvetica,sans-serif;" transform="matrix(1 0 0 1 1289 1989)">design is preserved when submitting to Xcode.</text>
  <text id="template-version" style="stroke:none;fill:black;font-family:-apple-system,&quot;SF Pro Display&quot;,&quot;SF Pro Text&quot;,Helvetica,sans-serif;text-anchor:end;" transform="matrix(1 0 0 1 3036 1933)">Template v.0.1</text>
  <text style="stroke:none;fill:black;font-family:-apple-system,&quot;SF Pro Display&quot;,&quot;SF Pro Text&quot;,Helvetica,sans-serif;text-anchor:end;" transform="matrix(1 0 0 1 3036 1951)">Generated from capslock.fill</text>
  <text style="stroke:none;fill:black;font-family:-apple-system,&quot;SF Pro Display&quot;,&quot;SF Pro Text&quot;,Helvetica,sans-serif;text-anchor:end;" transform="matrix(1 0 0 1 3036 1969)">Typeset at 100 points</text>
  <text style="stroke:none;fill:black;font-family:-apple-system,&quot;SF Pro Display&quot;,&quot;SF Pro Text&quot;,Helvetica,sans-serif;" transform="matrix(1 0 0 1 263 726)">Small</text>
  <text style="stroke:none;fill:black;font-family:-apple-system,&quot;SF Pro Display&quot;,&quot;SF Pro Text&quot;,Helvetica,sans-serif;" transform="matrix(1 0 0 1 263 1156)">Medium</text>
  <text style="stroke:none;fill:black;font-family:-apple-system,&quot;SF Pro Display&quot;,&quot;SF Pro Text&quot;,Helvetica,sans-serif;" transform="matrix(1 0 0 1 263 1586)">Large</text>
 </g>
 <g id="Guides">
  <g id="H-reference" style="fill:#27AAE1;stroke:none;" transform="matrix(1 0 0 1 339 696)">
   <path d="M 54.9316 0 L 57.666 0 L 30.5664 -70.459 L 28.0762 -70.459 L 0.976562 0 L 3.66211 0 L 12.9395 -24.4629 L 45.7031 -24.4629 Z M 29.1992 -67.0898 L 29.4434 -67.0898 L 44.8242 -26.709 L 13.8184 -26.709 Z"/>
  </g>
  <line id="Baseline-S" style="fill:none;stroke:#27AAE1;opacity:1;stroke-width:0.577;" x1="263" x2="3036" y1="696" y2="696"/>
  <line id="Capline-S" style="fill:none;stroke:#27AAE1;opacity:1;stroke-width:0.577;" x1="263" x2="3036" y1="625.541" y2="625.541"/>
  <g id="H-reference" style="fill:#27AAE1;stroke:none;" transform="matrix(1 0 0 1 339 1126)">
   <path d="M 54.9316 0 L 57.666 0 L 30.5664 -70.459 L 28.0762 -70.459 L 0.976562 0 L 3.66211 0 L 12.9395 -24.4629 L 45.7031 -24.4629 Z M 29.1992 -67.0898 L 29.4434 -67.0898 L 44.8242 -26.709 L 13.8184 -26.709 Z"/>
  </g>
  <line id="Baseline-M" style="fill:none;stroke:#27AAE1;opacity:1;stroke-width:0.577;" x1="263" x2="3036" y1="1126" y2="1126"/>
  <line id="Capline-M" style="fill:none;stroke:#27AAE1;opacity:1;stroke-width:0.577;" x1="263" x2="3036" y1="1055.54" y2="1055.54"/>
  <g id="H-reference" style="fill:#27AAE1;stroke:none;" transform="matrix(1 0 0 1 339 1556)">
   <path d="M 54.9316 0 L 57.666 0 L 30.5664 -70.459 L 28.0762 -70.459 L 0.976562 0 L 3.66211 0 L 12.9395 -24.4629 L 45.7031 -24.4629 Z M 29.1992 -67.0898 L 29.4434 -67.0898 L 44.8242 -26.709 L 13.8184 -26.709 Z"/>
  </g>
  <line id="Baseline-L" style="fill:none;stroke:#27AAE1;opacity:1;stroke-width:0.577;" x1="263" x2="3036" y1="1556" y2="1556"/>
  <line id="Capline-L" style="fill:none;stroke:#27AAE1;opacity:1;stroke-width:0.577;" x1="263" x2="3036" y1="1485.54" y2="1485.54"/>
  <rect height="119.336" id="left-margin" style="fill:#00AEEF;stroke:none;opacity:0.4;" width="9.96094" x="1389.03" y="1030.79"/>
  <rect height="119.336" id="right-margin" style="fill:#00AEEF;stroke:none;opacity:0.4;" width="9.96094" x="1500.7" y="1030.79"/>
 </g>
 <g id="Symbols">
  <g id="Ultralight-S" transform="matrix(1 0 0 1 513.788 696)">
   <path d="M 32.1777 -18.75 L 59.7656 -18.75 C 63.0371 -18.75 65.2832 -20.9473 65.2832 -24.2676 L 65.2832 -33.9844 L 80.5664 -33.9844 C 82.5195 -33.9844 84.0332 -35.498 84.0332 -37.5 C 84.0332 -38.5254 83.6914 -39.3555 83.0078 -39.9902 L 49.1699 -69.9707 C 48.1445 -70.8984 47.0215 -71.3867 45.9473 -71.3867 C 44.8242 -71.3867 43.75 -70.8984 42.7246 -69.9707 L 8.88672 -39.9414 C 8.20312 -39.3066 7.8125 -38.4766 7.8125 -37.5 C 7.8125 -35.498 9.32617 -33.9844 11.3281 -33.9844 L 26.6113 -33.9844 L 26.6113 -24.2676 C 26.6113 -20.9473 28.8574 -18.75 32.1777 -18.75 Z M 31.9336 0.976562 L 60.0098 0.976562 C 63.2812 0.976562 65.2832 -1.2207 65.2832 -4.49219 L 65.2832 -7.12891 C 65.2832 -10.4004 63.2812 -12.5977 60.0098 -12.5977 L 31.9336 -12.5977 C 28.6133 -12.5977 26.6113 -10.4004 26.6113 -7.12891 L 26.6113 -4.49219 C 26.6113 -1.2207 28.6133 0.976562 31.9336 0.976562 Z"/>
  </g>
  <g id="Thin-S" transform="matrix(1 0 0 1 810.011 696)">
   <path d="M 33.1543 -18.8477 L 59.7168 -18.8477 C 63.5742 -18.8477 65.9668 -21.2402 65.9668 -25 L 65.9668 -33.9844 L 80.9082 -33.9844 C 83.2031 -33.9844 85.0098 -35.6445 85.0098 -37.8906 C 85.0098 -39.1113 84.5215 -40.0879 83.5938 -40.918 L 50 -70.7031 C 48.877 -71.7285 47.6562 -72.3633 46.4355 -72.3633 C 45.166 -72.3633 43.9453 -71.7285 42.8223 -70.7031 L 9.22852 -40.918 C 8.30078 -40.0879 7.8125 -39.0625 7.8125 -37.8906 C 7.8125 -35.6445 9.61914 -33.9844 11.9141 -33.9844 L 26.9043 -33.9844 L 26.9043 -25 C 26.9043 -21.2402 29.2969 -18.8477 33.1543 -18.8477 Z M 32.959 2.19727 L 59.9121 2.19727 C 63.7695 2.19727 66.0156 -0.146484 66.0156 -3.95508 L 66.0156 -6.83594 C 66.0156 -10.6934 63.7695 -12.9883 59.9121 -12.9883 L 32.959 -12.9883 C 29.1016 -12.9883 26.8555 -10.6445 26.8555 -6.83594 L 26.8555 -3.95508 C 26.8555 -0.146484 29.1016 2.19727 32.959 2.19727 Z"/>
  </g>
  <g id="Light-S" transform="matrix(1 0 0 1 1105.82 696)">
   <path d="M 35.0098 -18.9941 L 59.6191 -18.9941 C 64.502 -18.9941 67.2363 -21.8262 67.2363 -26.4648 L 67.2363 -34.0332 L 81.6406 -34.0332 C 84.5215 -34.0332 86.8164 -35.791 86.8164 -38.623 C 86.8164 -40.2344 86.1328 -41.5039 84.7656 -42.7246 L 51.6113 -72.168 C 50.3418 -73.291 48.877 -74.1699 47.3145 -74.1699 C 45.752 -74.1699 44.3359 -73.291 43.0664 -72.168 L 9.86328 -42.7246 C 8.49609 -41.5039 7.8125 -40.2344 7.8125 -38.623 C 7.8125 -35.791 10.1074 -34.0332 13.0371 -34.0332 L 27.4414 -34.0332 L 27.4414 -26.4648 C 27.4414 -21.8262 30.127 -18.9941 35.0098 -18.9941 Z M 34.9609 4.54102 L 59.7168 4.54102 C 64.6484 4.54102 67.4316 1.95312 67.4316 -2.88086 L 67.4316 -6.34766 C 67.4316 -11.1816 64.6484 -13.7695 59.7168 -13.7695 L 34.9609 -13.7695 C 30.0293 -13.7695 27.2461 -11.1328 27.2461 -6.34766 L 27.2461 -2.88086 C 27.2461 1.9043 30.0293 4.54102 34.9609 4.54102 Z"/>
  </g>
  <g id="Regular-S" transform="matrix(1 0 0 1 1401.82 696)">
   <path d="M 36.4746 -19.1406 L 59.5703 -19.1406 C 65.2344 -19.1406 68.2129 -22.2168 68.2129 -27.5391 L 68.2129 -34.0332 L 82.1777 -34.0332 C 85.498 -34.0332 88.2324 -35.9375 88.2324 -39.1602 C 88.2324 -41.1133 87.4023 -42.5781 85.6934 -44.0918 L 52.832 -73.291 C 51.416 -74.5117 49.8535 -75.5371 48.0469 -75.5371 C 46.1914 -75.5371 44.6289 -74.5117 43.2129 -73.291 L 10.3516 -44.0918 C 8.64258 -42.5781 7.8125 -41.1133 7.8125 -39.1602 C 7.8125 -35.9375 10.5469 -34.0332 13.8672 -34.0332 L 27.8809 -34.0332 L 27.8809 -27.5391 C 27.8809 -22.2168 30.8105 -19.1406 36.4746 -19.1406 Z M 36.4746 6.34766 L 59.5703 6.34766 C 65.332 6.34766 68.457 3.51562 68.457 -2.09961 L 68.457 -5.9082 C 68.457 -11.5723 65.332 -14.3555 59.5703 -14.3555 L 36.4746 -14.3555 C 30.7129 -14.3555 27.5879 -11.5234 27.5879 -5.9082 L 27.5879 -2.09961 C 27.5879 3.4668 30.7129 6.34766 36.4746 6.34766 Z"/>
  </g>
  <g id="Medium-S" transform="matrix(1 0 0 1 1698.02 696)">
   <path d="M 35.6934 -18.9453 L 61.377 -18.9453 C 67.0898 -18.9453 70.1172 -22.0215 70.1172 -27.4414 L 70.1172 -33.4961 L 82.7637 -33.4961 C 86.377 -33.4961 89.2578 -35.6445 89.2578 -39.0625 C 89.2578 -41.0645 88.3789 -42.8223 86.5234 -44.3848 L 54.1016 -72.7539 C 52.1973 -74.3164 50.5371 -75.293 48.5352 -75.293 C 46.5332 -75.293 44.873 -74.3164 42.9688 -72.7539 L 10.5469 -44.3848 C 8.69141 -42.7734 7.8125 -41.0645 7.8125 -39.0625 C 7.8125 -35.6445 10.6934 -33.4961 14.3066 -33.4961 L 26.9531 -33.4961 L 26.9531 -27.4414 C 26.9531 -22.0215 29.9805 -18.9453 35.6934 -18.9453 Z M 35.6934 7.56836 L 61.377 7.56836 C 67.041 7.56836 70.3613 4.58984 70.3613 -1.07422 L 70.3613 -5.76172 C 70.3613 -11.3281 67.041 -14.4043 61.377 -14.4043 L 35.6934 -14.4043 C 30.0293 -14.4043 26.709 -11.2793 26.709 -5.76172 L 26.709 -1.07422 C 26.709 4.54102 30.0293 7.56836 35.6934 7.56836 Z"/>
  </g>
  <g id="Semibold-S" transform="matrix(1 0 0 1 1994.34 696)">
   <path d="M 35.0586 -18.75 L 62.793 -18.75 C 68.5059 -18.75 71.6309 -21.8262 71.6309 -27.3438 L 71.6309 -33.1055 L 83.2031 -33.1055 C 87.0605 -33.1055 90.0391 -35.4004 90.0391 -38.9648 C 90.0391 -41.0156 89.1113 -42.9688 87.1582 -44.6289 L 55.127 -72.3145 C 52.832 -74.2188 51.0742 -75.1465 48.9258 -75.1465 C 46.8262 -75.1465 45.0195 -74.2188 42.7734 -72.3145 L 10.6934 -44.6289 C 8.74023 -42.9688 7.8125 -41.0156 7.8125 -38.9648 C 7.8125 -35.4004 10.8398 -33.1055 14.6484 -33.1055 L 26.2207 -33.1055 L 26.2207 -27.3438 C 26.2207 -21.8262 29.3457 -18.75 35.0586 -18.75 Z M 35.1562 8.49609 L 62.7441 8.49609 C 68.3594 8.49609 71.8262 5.41992 71.8262 -0.244141 L 71.8262 -5.66406 C 71.8262 -11.1328 68.3594 -14.4043 62.7441 -14.4043 L 35.1562 -14.4043 C 29.4922 -14.4043 26.0742 -11.1328 26.0742 -5.66406 L 26.0742 -0.244141 C 26.0742 5.37109 29.4922 8.49609 35.1562 8.49609 Z"/>
  </g>
  <g id="Bold-S" transform="matrix(1 0 0 1 2290.51 696)">
   <path d="M 34.2773 -18.5547 L 64.6484 -18.5547 C 70.3613 -18.5547 73.6328 -21.6309 73.6328 -27.1973 L 73.6328 -32.5684 L 83.7891 -32.5684 C 87.8906 -32.5684 91.1133 -35.1074 91.1133 -38.8672 C 91.1133 -40.9668 90.0879 -43.1641 88.0371 -44.9219 L 56.3965 -71.7285 C 53.6133 -74.0234 51.7578 -74.9023 49.4629 -74.9023 C 47.168 -74.9023 45.2637 -74.0234 42.4805 -71.7285 L 10.8887 -44.9219 C 8.78906 -43.1641 7.8125 -40.9668 7.8125 -38.8672 C 7.8125 -35.1074 10.9863 -32.5684 15.1367 -32.5684 L 25.293 -32.5684 L 25.293 -27.1973 C 25.293 -21.6309 28.5645 -18.5547 34.2773 -18.5547 Z M 34.4238 9.7168 L 64.502 9.7168 C 70.1172 9.7168 73.7305 6.49414 73.7305 0.78125 L 73.7305 -5.51758 C 73.7305 -10.8887 70.1172 -14.4531 64.502 -14.4531 L 34.4238 -14.4531 C 28.8086 -14.4531 25.1953 -10.8887 25.1953 -5.51758 L 25.1953 0.78125 C 25.1953 6.44531 28.8086 9.7168 34.4238 9.7168 Z"/>
  </g>
  <g id="Heavy-S" transform="matrix(1 0 0 1 2586.47 696)">
   <path d="M 33.1543 -18.2617 L 67.2852 -18.2617 C 73.0957 -18.2617 76.4648 -21.2891 76.4648 -27.002 L 76.4648 -31.7871 L 84.6191 -31.7871 C 89.1602 -31.7871 92.627 -34.668 92.627 -38.7207 C 92.627 -40.8691 91.5527 -43.5059 89.3066 -45.3125 L 58.3008 -70.8984 C 54.7852 -73.7793 52.7832 -74.5605 50.1953 -74.5605 C 47.6562 -74.5605 45.6055 -73.7793 42.0898 -70.8984 L 11.1328 -45.3125 C 8.88672 -43.5059 7.8125 -40.8691 7.8125 -38.7207 C 7.8125 -34.668 11.2305 -31.7871 15.7715 -31.7871 L 23.9746 -31.7871 L 23.9746 -27.002 C 23.9746 -21.2891 27.3438 -18.2617 33.1543 -18.2617 Z M 33.3008 11.5234 L 67.0898 11.5234 C 72.6562 11.5234 76.5137 8.05664 76.5137 2.29492 L 76.5137 -5.32227 C 76.5137 -10.5469 72.6562 -14.502 67.0898 -14.502 L 33.3008 -14.502 C 27.7832 -14.502 23.9258 -10.5469 23.9258 -5.32227 L 23.9258 2.29492 C 23.9258 8.05664 27.7832 11.5234 33.3008 11.5234 Z"/>
  </g>
  <g id="Black-S" transform="matrix(1 0 0 1 2882.52 696)">
   <path d="M 32.0801 -18.0176 L 69.6777 -18.0176 C 75.4883 -18.0176 79.0527 -20.9961 79.0527 -26.8555 L 79.0527 -31.1035 L 85.4004 -31.1035 C 90.332 -31.1035 93.9453 -34.2285 93.9453 -38.5742 C 93.9453 -40.8203 92.8223 -43.75 90.3809 -45.7031 L 60.0098 -70.166 C 55.8594 -73.584 53.6621 -74.2676 50.8789 -74.2676 C 48.0957 -74.2676 45.9473 -73.584 41.748 -70.166 L 11.377 -45.7031 C 8.93555 -43.75 7.8125 -40.8203 7.8125 -38.5742 C 7.8125 -34.2285 11.4746 -31.1035 16.4062 -31.1035 L 22.7539 -31.1035 L 22.7539 -26.8555 C 22.7539 -20.9961 26.2695 -18.0176 32.0801 -18.0176 Z M 32.373 13.1348 L 69.4336 13.1348 C 74.9023 13.1348 79.0039 9.42383 79.0039 3.66211 L 79.0039 -5.12695 C 79.0039 -10.2539 74.9023 -14.5996 69.4336 -14.5996 L 32.373 -14.5996 C 26.8555 -14.5996 22.7539 -10.2539 22.7539 -5.12695 L 22.7539 3.66211 C 22.7539 9.42383 26.8555 13.1348 32.373 13.1348 Z"/>
  </g>
  <g id="Ultralight-M" transform="matrix(1 0 0 1 501.264 1126)">
   <path d="M 40.6738 -14.209 L 76.2695 -14.209 C 80.2734 -14.209 83.0566 -16.8945 83.0566 -20.8984 L 83.0566 -33.6426 L 102.686 -33.6426 C 105.078 -33.6426 106.934 -35.5469 106.934 -37.9883 C 106.934 -39.209 106.494 -40.2344 105.713 -40.9668 L 62.4512 -79.248 C 61.1328 -80.4199 59.7656 -81.0547 58.4961 -81.0547 C 57.1289 -81.0547 55.7617 -80.4199 54.4434 -79.248 L 11.1816 -40.918 C 10.4004 -40.1855 9.96094 -39.1113 9.96094 -37.9883 C 9.96094 -35.5469 11.8164 -33.6426 14.209 -33.6426 L 33.8867 -33.6426 L 33.8867 -20.8984 C 33.8867 -16.8945 36.6699 -14.209 40.6738 -14.209 Z M 40.332 10.498 L 76.6113 10.498 C 80.6152 10.498 83.0566 7.76367 83.0566 3.75977 L 83.0566 0.537109 C 83.0566 -3.4668 80.6152 -6.20117 76.6113 -6.20117 L 40.332 -6.20117 C 36.377 -6.20117 33.8867 -3.4668 33.8867 0.537109 L 33.8867 3.75977 C 33.8867 7.76367 36.377 10.498 40.332 10.498 Z"/>
  </g>
  <g id="Thin-M" transform="matrix(1 0 0 1 797.438 1126)">
   <path d="M 41.748 -14.2578 L 76.2207 -14.2578 C 80.8594 -14.2578 83.8379 -17.2363 83.8379 -21.7773 L 83.8379 -33.6426 L 103.076 -33.6426 C 105.859 -33.6426 108.008 -35.6934 108.008 -38.3789 C 108.008 -39.8438 107.422 -41.0645 106.396 -41.9922 L 63.3789 -80.127 C 61.9629 -81.3477 60.498 -82.0801 58.9844 -82.0801 C 57.4707 -82.0801 56.0059 -81.3477 54.5898 -80.127 L 11.5723 -41.9434 C 10.498 -41.0156 9.96094 -39.7949 9.96094 -38.3789 C 9.96094 -35.6934 12.1094 -33.6426 14.8926 -33.6426 L 34.1797 -33.6426 L 34.1797 -21.7773 C 34.1797 -17.2363 37.1582 -14.2578 41.748 -14.2578 Z M 41.5039 11.8652 L 76.5137 11.8652 C 81.1035 11.8652 83.8867 8.98438 83.8867 4.39453 L 83.8867 0.830078 C 83.8867 -3.75977 81.1035 -6.64062 76.5137 -6.64062 L 41.5039 -6.64062 C 36.9141 -6.64062 34.1309 -3.71094 34.1309 0.830078 L 34.1309 4.39453 C 34.1309 8.98438 36.9141 11.8652 41.5039 11.8652 Z"/>
  </g>
  <g id="Light-M" transform="matrix(1 0 0 1 1093.1 1126)">
   <path d="M 43.8965 -14.4531 L 76.1719 -14.4531 C 81.9336 -14.4531 85.2539 -17.8711 85.2539 -23.3887 L 85.2539 -33.6914 L 103.906 -33.6914 C 107.324 -33.6914 110.059 -35.8887 110.059 -39.209 C 110.059 -41.1621 109.277 -42.6758 107.715 -44.043 L 65.1855 -81.7871 C 63.623 -83.1543 61.9141 -84.1797 60.0586 -84.1797 C 58.1543 -84.1797 56.4453 -83.1543 54.834 -81.7871 L 12.3047 -44.043 C 10.7422 -42.627 9.96094 -41.1133 9.96094 -39.209 C 9.96094 -35.8887 12.6953 -33.6914 16.1621 -33.6914 L 34.8145 -33.6914 L 34.8145 -23.3887 C 34.8145 -17.8711 38.1348 -14.4531 43.8965 -14.4531 Z M 43.75 14.5508 L 76.3184 14.5508 C 82.1289 14.5508 85.4492 11.3281 85.4492 5.56641 L 85.4492 1.46484 C 85.4492 -4.29688 82.1289 -7.51953 76.3184 -7.51953 L 43.75 -7.51953 C 37.9395 -7.51953 34.6191 -4.29688 34.6191 1.46484 L 34.6191 5.56641 C 34.6191 11.3281 37.9395 14.5508 43.75 14.5508 Z"/>
  </g>
  <g id="Regular-M" transform="matrix(1 0 0 1 1389.03 1126)">
   <path d="M 45.5566 -14.5996 L 76.0742 -14.5996 C 82.7637 -14.5996 86.377 -18.3594 86.377 -24.6582 L 86.377 -33.6914 L 104.492 -33.6914 C 108.447 -33.6914 111.67 -36.084 111.67 -39.8438 C 111.67 -42.1387 110.693 -43.8477 108.74 -45.6055 L 66.5527 -83.0566 C 64.8438 -84.5215 62.9395 -85.7422 60.8398 -85.7422 C 58.6426 -85.7422 56.7383 -84.5215 55.0781 -83.0566 L 12.8906 -45.6055 C 10.9375 -43.8477 9.96094 -42.1387 9.96094 -39.8438 C 9.96094 -36.084 13.1836 -33.6914 17.0898 -33.6914 L 35.2539 -33.6914 L 35.2539 -24.6582 C 35.2539 -18.3594 38.8672 -14.5996 45.5566 -14.5996 Z M 45.459 16.5527 L 76.1719 16.5527 C 82.9102 16.5527 86.6699 13.1348 86.6699 6.49414 L 86.6699 1.9043 C 86.6699 -4.73633 82.9102 -8.1543 76.1719 -8.1543 L 45.459 -8.1543 C 38.7207 -8.1543 34.9609 -4.6875 34.9609 1.9043 L 34.9609 6.49414 C 34.9609 13.0859 38.7207 16.5527 45.459 16.5527 Z"/>
  </g>
  <g id="Medium-M" transform="matrix(1 0 0 1 1685.13 1126)">
   <path d="M 44.9219 -14.4043 L 77.9297 -14.4043 C 84.7656 -14.4043 88.4766 -18.1641 88.4766 -24.6582 L 88.4766 -33.1543 L 105.176 -33.1543 C 109.473 -33.1543 112.891 -35.7422 112.891 -39.8438 C 112.891 -42.1875 111.865 -44.2383 109.717 -46.0938 L 68.0664 -82.6172 C 65.8203 -84.5215 63.7695 -85.6934 61.4258 -85.6934 C 59.082 -85.6934 57.0312 -84.5215 54.834 -82.6172 L 13.1348 -46.0449 C 11.0352 -44.2383 9.96094 -42.1875 9.96094 -39.8438 C 9.96094 -35.7422 13.3789 -33.1543 17.6758 -33.1543 L 34.375 -33.1543 L 34.375 -24.6582 C 34.375 -18.1641 38.1348 -14.4043 44.9219 -14.4043 Z M 44.9219 18.0664 L 77.9297 18.0664 C 84.7656 18.0664 88.7207 14.4531 88.7207 7.66602 L 88.7207 2.09961 C 88.7207 -4.54102 84.7656 -8.30078 77.9297 -8.30078 L 44.9219 -8.30078 C 38.1348 -8.30078 34.1309 -4.49219 34.1309 2.09961 L 34.1309 7.66602 C 34.1309 14.4043 38.1348 18.0664 44.9219 18.0664 Z"/>
  </g>
  <g id="Semibold-M" transform="matrix(1 0 0 1 1981.35 1126)">
   <path d="M 44.4824 -14.2578 L 79.3457 -14.2578 C 86.2793 -14.2578 90.1367 -18.0664 90.1367 -24.707 L 90.1367 -32.7148 L 105.713 -32.7148 C 110.254 -32.7148 113.818 -35.5469 113.818 -39.7949 C 113.818 -42.2363 112.744 -44.5312 110.498 -46.4355 L 69.1895 -82.2754 C 66.5527 -84.4727 64.4043 -85.6445 61.9141 -85.6445 C 59.375 -85.6445 57.2266 -84.4727 54.6387 -82.2754 L 13.3301 -46.4355 C 11.084 -44.4824 9.96094 -42.2363 9.96094 -39.7949 C 9.96094 -35.5469 13.5742 -32.7148 18.1152 -32.7148 L 33.6914 -32.7148 L 33.6914 -24.707 C 33.6914 -18.0664 37.5488 -14.2578 44.4824 -14.2578 Z M 44.4824 19.1895 L 79.3457 19.1895 C 86.1816 19.1895 90.332 15.4297 90.332 8.54492 L 90.332 2.24609 C 90.332 -4.39453 86.1816 -8.39844 79.3457 -8.39844 L 44.4824 -8.39844 C 37.6465 -8.39844 33.4961 -4.39453 33.4961 2.24609 L 33.4961 8.54492 C 33.4961 15.3809 37.6465 19.1895 44.4824 19.1895 Z"/>
  </g>
  <g id="Bold-M" transform="matrix(1 0 0 1 2277.45 1126)">
   <path d="M 43.8477 -14.0625 L 81.25 -14.0625 C 88.2812 -14.0625 92.2852 -17.8711 92.2852 -24.707 L 92.2852 -32.1777 L 106.348 -32.1777 C 111.279 -32.1777 115.088 -35.2539 115.088 -39.7461 C 115.088 -42.2852 113.916 -44.873 111.475 -46.9238 L 70.7031 -81.8359 C 67.5293 -84.4727 65.2832 -85.5957 62.5488 -85.5957 C 59.8145 -85.5957 57.5195 -84.4727 54.3945 -81.8359 L 13.5742 -46.9238 C 11.1328 -44.873 9.96094 -42.2852 9.96094 -39.7461 C 9.96094 -35.2539 13.7695 -32.1777 18.7012 -32.1777 L 32.8125 -32.1777 L 32.8125 -24.707 C 32.8125 -17.8711 36.7676 -14.0625 43.8477 -14.0625 Z M 43.9453 20.7031 L 81.1523 20.7031 C 88.0371 20.7031 92.4316 16.748 92.4316 9.76562 L 92.4316 2.44141 C 92.4316 -4.19922 88.0371 -8.49609 81.1523 -8.49609 L 43.9453 -8.49609 C 37.0117 -8.49609 32.6172 -4.19922 32.6172 2.44141 L 32.6172 9.76562 C 32.6172 16.6992 37.0117 20.7031 43.9453 20.7031 Z"/>
  </g>
  <g id="Heavy-M" transform="matrix(1 0 0 1 2573.24 1126)">
   <path d="M 42.9688 -13.7695 L 83.9355 -13.7695 C 91.2109 -13.7695 95.3613 -17.627 95.3613 -24.7559 L 95.3613 -31.3965 L 107.324 -31.3965 C 112.793 -31.3965 116.943 -34.8145 116.943 -39.6973 C 116.943 -42.3828 115.625 -45.4102 112.939 -47.6074 L 72.9004 -81.25 C 68.9453 -84.4727 66.5039 -85.498 63.4277 -85.498 C 60.4004 -85.498 57.959 -84.4727 54.0039 -81.25 L 13.9648 -47.6074 C 11.2305 -45.4102 9.96094 -42.3828 9.96094 -39.6973 C 9.96094 -34.8145 14.1113 -31.3965 19.5312 -31.3965 L 31.4941 -31.3965 L 31.4941 -24.7559 C 31.4941 -17.627 35.6934 -13.7695 42.9688 -13.7695 Z M 43.1152 22.9004 L 83.7891 22.9004 C 90.7715 22.9004 95.5078 18.6523 95.5078 11.4746 L 95.5078 2.73438 C 95.5078 -3.95508 90.7715 -8.69141 83.7891 -8.69141 L 43.1152 -8.69141 C 36.1328 -8.69141 31.3965 -3.90625 31.3965 2.73438 L 31.3965 11.4746 C 31.3965 18.6523 36.1328 22.9004 43.1152 22.9004 Z"/>
  </g>
  <g id="Black-M" transform="matrix(1 0 0 1 2869.14 1126)">
   <path d="M 42.1387 -13.5254 L 86.377 -13.5254 C 93.7988 -13.5254 98.1934 -17.3828 98.1934 -24.7559 L 98.1934 -30.7129 L 108.203 -30.7129 C 114.111 -30.7129 118.555 -34.4238 118.555 -39.6484 C 118.555 -42.4805 117.188 -45.8984 114.209 -48.2422 L 74.8535 -80.6641 C 70.2148 -84.4727 67.5781 -85.4492 64.2578 -85.4492 C 60.9375 -85.4492 58.3008 -84.4727 53.7109 -80.6641 L 14.3066 -48.2422 C 11.3281 -45.8984 9.96094 -42.4805 9.96094 -39.6484 C 9.96094 -34.4238 14.4043 -30.7129 20.3125 -30.7129 L 30.3711 -30.7129 L 30.3711 -24.7559 C 30.3711 -17.3828 34.7168 -13.5254 42.1387 -13.5254 Z M 42.3828 24.8535 L 86.1328 24.8535 C 93.2129 24.8535 98.2422 20.3613 98.2422 12.9883 L 98.2422 3.02734 C 98.2422 -3.71094 93.2129 -8.83789 86.1328 -8.83789 L 42.3828 -8.83789 C 35.3027 -8.83789 30.2734 -3.71094 30.2734 3.02734 L 30.2734 12.9883 C 30.2734 20.3613 35.3027 24.8535 42.3828 24.8535 Z"/>
  </g>
  <g id="Ultralight-L" transform="matrix(1 0 0 1 484.516 1556)">
   <path d="M 52.002 -8.05664 L 98.4375 -8.05664 C 103.369 -8.05664 106.885 -11.4746 106.885 -16.4062 L 106.885 -33.1543 L 132.324 -33.1543 C 135.254 -33.1543 137.5 -35.5957 137.5 -38.5742 C 137.5 -40.0391 137.012 -41.3574 136.084 -42.1875 L 80.1758 -91.6504 C 78.5156 -93.1641 76.8066 -93.8965 75.2441 -93.8965 C 73.5352 -93.8965 71.875 -93.1641 70.2148 -91.6504 L 14.2578 -42.0898 C 13.3789 -41.2598 12.8906 -39.9902 12.8906 -38.5742 C 12.8906 -35.5957 15.1367 -33.1543 18.0664 -33.1543 L 43.6035 -33.1543 L 43.6035 -16.4062 C 43.6035 -11.4746 47.1191 -8.05664 52.002 -8.05664 Z M 51.5625 23.1934 L 98.877 23.1934 C 103.809 23.1934 106.836 19.7266 106.836 14.8438 L 106.836 10.791 C 106.836 5.9082 103.809 2.44141 98.877 2.44141 L 51.5625 2.44141 C 46.6797 2.44141 43.6035 5.9082 43.6035 10.791 L 43.6035 14.8438 C 43.6035 19.7266 46.6797 23.1934 51.5625 23.1934 Z"/>
  </g>
  <g id="Thin-L" transform="matrix(1 0 0 1 780.641 1556)">
   <path d="M 53.2227 -8.1543 L 98.3887 -8.1543 C 104.004 -8.1543 107.715 -11.8164 107.715 -17.334 L 107.715 -33.2031 L 132.764 -33.2031 C 136.133 -33.2031 138.672 -35.7422 138.672 -39.0625 C 138.672 -40.8203 138.086 -42.2363 136.865 -43.3594 L 81.2012 -92.627 C 79.4434 -94.1895 77.6367 -95.0684 75.8301 -95.0684 C 73.9258 -95.0684 72.1191 -94.1895 70.3613 -92.627 L 14.6973 -43.2617 C 13.5254 -42.1875 12.8906 -40.7227 12.8906 -39.0625 C 12.8906 -35.7422 15.4785 -33.2031 18.7988 -33.2031 L 43.9453 -33.2031 L 43.9453 -17.334 C 43.9453 -11.8164 47.6562 -8.1543 53.2227 -8.1543 Z M 52.8809 24.707 L 98.7793 24.707 C 104.346 24.707 107.764 21.0938 107.764 15.5273 L 107.764 11.1328 C 107.764 5.56641 104.346 1.95312 98.7793 1.95312 L 52.8809 1.95312 C 47.2656 1.95312 43.8965 5.56641 43.8965 11.1328 L 43.8965 15.5273 C 43.8965 21.0938 47.2656 24.707 52.8809 24.707 Z"/>
  </g>
  <g id="Light-L" transform="matrix(1 0 0 1 1076.18 1556)">
   <path d="M 55.6152 -8.34961 L 98.291 -8.34961 C 105.225 -8.34961 109.326 -12.5 109.326 -19.1895 L 109.326 -33.2031 L 133.691 -33.2031 C 137.793 -33.2031 141.016 -35.9863 141.016 -39.9902 C 141.016 -42.2363 140.137 -44.043 138.379 -45.6055 L 83.252 -94.4824 C 81.2988 -96.1914 79.1992 -97.3633 76.9531 -97.3633 C 74.707 -97.3633 72.6074 -96.1914 70.6543 -94.4824 L 15.5273 -45.5566 C 13.7695 -43.9941 12.8906 -42.1875 12.8906 -39.9902 C 12.8906 -35.9863 16.1133 -33.2031 20.2148 -33.2031 L 44.6289 -33.2031 L 44.6289 -19.1895 C 44.6289 -12.5 48.7305 -8.34961 55.6152 -8.34961 Z M 55.3711 27.6855 L 98.5352 27.6855 C 105.469 27.6855 109.521 23.7305 109.521 16.8457 L 109.521 11.8164 C 109.521 4.93164 105.469 0.976562 98.5352 0.976562 L 55.3711 0.976562 C 48.4375 0.976562 44.4336 4.98047 44.4336 11.8164 L 44.4336 16.8457 C 44.4336 23.6816 48.4375 27.6855 55.3711 27.6855 Z"/>
  </g>
  <g id="Regular-L" transform="matrix(1 0 0 1 1372.01 1556)">
   <path d="M 57.4219 -8.49609 L 98.2422 -8.49609 C 106.152 -8.49609 110.547 -13.0371 110.547 -20.5566 L 110.547 -33.252 L 134.375 -33.252 C 139.014 -33.252 142.773 -36.1816 142.773 -40.6738 C 142.773 -43.3105 141.65 -45.4102 139.502 -47.3633 L 84.7656 -95.8984 C 82.666 -97.7051 80.3711 -99.1211 77.832 -99.1211 C 75.293 -99.1211 72.9492 -97.7051 70.8984 -95.8984 L 16.1621 -47.3145 C 13.9648 -45.3613 12.8906 -43.3105 12.8906 -40.6738 C 12.8906 -36.1816 16.6016 -33.252 21.2891 -33.252 L 45.1172 -33.252 L 45.1172 -20.5566 C 45.1172 -13.0371 49.5605 -8.49609 57.4219 -8.49609 Z M 57.2754 29.9316 L 98.3887 29.9316 C 106.348 29.9316 110.84 25.7324 110.84 17.8711 L 110.84 12.3047 C 110.84 4.44336 106.348 0.244141 98.3887 0.244141 L 57.2754 0.244141 C 49.3164 0.244141 44.8242 4.49219 44.8242 12.3047 L 44.8242 17.8711 C 44.8242 25.6836 49.3164 29.9316 57.2754 29.9316 Z"/>
  </g>
  <g id="Medium-L" transform="matrix(1 0 0 1 1668.02 1556)">
   <path d="M 57.2266 -8.34961 L 99.9023 -8.34961 C 108.105 -8.34961 112.695 -12.9883 112.695 -20.8496 L 112.695 -32.7637 L 135.107 -32.7637 C 140.186 -32.7637 144.238 -35.9375 144.238 -40.7715 C 144.238 -43.6035 143.018 -45.9473 140.576 -48.0957 L 86.4258 -95.752 C 83.7891 -97.998 81.3477 -99.3652 78.5645 -99.3652 C 75.7324 -99.3652 73.291 -97.998 70.7031 -95.752 L 16.5039 -48.0469 C 14.0625 -45.9473 12.8906 -43.5547 12.8906 -40.7715 C 12.8906 -35.9375 16.8945 -32.7637 22.0215 -32.7637 L 44.4336 -32.7637 L 44.4336 -20.8496 C 44.4336 -12.9883 49.0234 -8.34961 57.2266 -8.34961 Z M 57.1289 31.7383 L 100 31.7383 C 108.203 31.7383 112.988 27.2461 112.988 19.1406 L 112.988 12.5977 C 112.988 4.54102 108.203 0 100 0 L 57.1289 0 C 48.9258 0 44.1406 4.58984 44.1406 12.5977 L 44.1406 19.1406 C 44.1406 27.1973 48.9258 31.7383 57.1289 31.7383 Z"/>
  </g>
  <g id="Semibold-L" transform="matrix(1 0 0 1 1964.17 1556)">
   <path d="M 57.0312 -8.25195 L 101.221 -8.25195 C 109.619 -8.25195 114.355 -12.9395 114.355 -21.0449 L 114.355 -32.373 L 135.645 -32.373 C 141.064 -32.373 145.361 -35.7422 145.361 -40.8691 C 145.361 -43.7988 144.043 -46.3867 141.455 -48.6816 L 87.6465 -95.6543 C 84.668 -98.1934 82.0801 -99.5605 79.1016 -99.5605 C 76.123 -99.5605 73.5352 -98.1934 70.5566 -95.6543 L 16.748 -48.6328 C 14.1602 -46.3867 12.8906 -43.75 12.8906 -40.8691 C 12.8906 -35.7422 17.1387 -32.373 22.5586 -32.373 L 43.8477 -32.373 L 43.8477 -21.0449 C 43.8477 -12.9395 48.584 -8.25195 57.0312 -8.25195 Z M 56.9824 33.1055 L 101.221 33.1055 C 109.619 33.1055 114.648 28.4668 114.648 20.0684 L 114.648 12.793 C 114.648 4.58984 109.619 -0.195312 101.221 -0.195312 L 56.9824 -0.195312 C 48.6328 -0.195312 43.6035 4.63867 43.6035 12.793 L 43.6035 20.0684 C 43.6035 28.418 48.6328 33.1055 56.9824 33.1055 Z"/>
  </g>
  <g id="Bold-L" transform="matrix(1 0 0 1 2260.14 1556)">
   <path d="M 56.7871 -8.10547 L 102.881 -8.10547 C 111.621 -8.10547 116.553 -12.8906 116.553 -21.2891 L 116.553 -31.8848 L 136.377 -31.8848 C 142.236 -31.8848 146.826 -35.498 146.826 -40.9668 C 146.826 -44.043 145.41 -46.9727 142.578 -49.4141 L 89.3066 -95.5078 C 85.8398 -98.4375 83.0566 -99.8535 79.834 -99.8535 C 76.6113 -99.8535 73.877 -98.4375 70.3613 -95.5078 L 17.1387 -49.4141 C 14.2578 -46.9727 12.8906 -44.043 12.8906 -40.9668 C 12.8906 -35.498 17.4316 -31.8848 23.291 -31.8848 L 43.1641 -31.8848 L 43.1641 -21.2891 C 43.1641 -12.8906 48.0469 -8.10547 56.7871 -8.10547 Z M 56.8359 34.8633 L 102.881 34.8633 C 111.475 34.8633 116.797 30.0293 116.797 21.3379 L 116.797 13.0859 C 116.797 4.6875 111.475 -0.439453 102.881 -0.439453 L 56.8359 -0.439453 C 48.1934 -0.439453 42.9199 4.73633 42.9199 13.0859 L 42.9199 21.3379 C 42.9199 29.9805 48.1934 34.8633 56.8359 34.8633 Z"/>
  </g>
  <g id="Heavy-L" transform="matrix(1 0 0 1 2555.78 1556)">
   <path d="M 56.4453 -7.86133 L 105.371 -7.86133 C 114.551 -7.86133 119.727 -12.793 119.727 -21.7285 L 119.727 -31.1523 L 137.451 -31.1523 C 143.945 -31.1523 148.975 -35.1562 148.975 -41.1133 C 148.975 -44.4336 147.412 -47.8516 144.189 -50.5371 L 91.748 -95.3125 C 87.5 -98.8281 84.5215 -100.244 80.9082 -100.244 C 77.2949 -100.244 74.3164 -98.8281 70.1172 -95.3125 L 17.627 -50.5371 C 14.4043 -47.8027 12.8906 -44.4336 12.8906 -41.1133 C 12.8906 -35.1562 17.8711 -31.1523 24.3652 -31.1523 L 42.0898 -31.1523 L 42.0898 -21.7285 C 42.0898 -12.793 47.2656 -7.86133 56.4453 -7.86133 Z M 56.5918 37.5 L 105.225 37.5 C 114.209 37.5 119.971 32.2754 119.971 23.1934 L 119.971 13.4766 C 119.971 4.83398 114.209 -0.830078 105.225 -0.830078 L 56.5918 -0.830078 C 47.6074 -0.830078 41.8945 4.83398 41.8945 13.4766 L 41.8945 23.1934 C 41.8945 32.2754 47.6074 37.5 56.5918 37.5 Z"/>
  </g>
  <g id="Black-L" transform="matrix(1 0 0 1 2851.54 1556)">
   <path d="M 56.1523 -7.66602 L 107.568 -7.66602 C 117.139 -7.66602 122.559 -12.7441 122.559 -22.0703 L 122.559 -30.5176 L 138.428 -30.5176 C 145.459 -30.5176 150.879 -34.8633 150.879 -41.2109 C 150.879 -44.7754 149.17 -48.584 145.654 -51.5137 L 93.8965 -95.166 C 88.9648 -99.2188 85.791 -100.635 81.8848 -100.635 C 77.9297 -100.635 74.7559 -99.2188 69.873 -95.166 L 18.0664 -51.5137 C 14.5508 -48.584 12.8906 -44.7754 12.8906 -41.2109 C 12.8906 -34.8633 18.2617 -30.5176 25.293 -30.5176 L 41.1621 -30.5176 L 41.1621 -22.0703 C 41.1621 -12.7441 46.582 -7.66602 56.1523 -7.66602 Z M 56.3965 39.7949 L 107.324 39.7949 C 116.65 39.7949 122.754 34.3262 122.754 24.8535 L 122.754 13.8672 C 122.754 4.93164 116.65 -1.12305 107.324 -1.12305 L 56.3965 -1.12305 C 47.0703 -1.12305 40.9668 4.98047 40.9668 13.8672 L 40.9668 24.8535 C 40.9668 34.2773 47.0703 39.7949 56.3965 39.7949 Z"/>
  </g>
 </g>
</svg>
