<?xml version="1.0" encoding="UTF-8"?>
<!--Generator: Apple Native CoreSVG 123-->
<!DOCTYPE svg
PUBLIC "-//W3C//DTD SVG 1.1//EN"
       "http://www.w3.org/Graphics/SVG/1.1/DTD/svg11.dtd">
<svg version="1.1" xmlns="http://www.w3.org/2000/svg" xmlns:xlink="http://www.w3.org/1999/xlink" width="3300" height="2200">
 <!--glyph: "uni10043E.medium", point size: 100.000000, font version: "Version 15.0d4e20", template writer version: "2"-->
 <g id="Notes">
  <rect height="2200" id="artboard" style="fill:white;opacity:1" width="3300" x="0" y="0"/>
  <line id="" style="fill:none;stroke:black;opacity:1;stroke-width:0.5;" x1="263" x2="3036" y1="292" y2="292"/>
  <text style="stroke:none;fill:black;font-family:-apple-system,&quot;SF Pro Display&quot;,&quot;SF Pro Text&quot;,Helvetica,sans-serif;font-weight:bold;" transform="matrix(1 0 0 1 263 322)">Weight/Scale Variations</text>
  <text style="stroke:none;fill:black;font-family:-apple-system,&quot;SF Pro Display&quot;,&quot;SF Pro Text&quot;,Helvetica,sans-serif;text-anchor:middle;" transform="matrix(1 0 0 1 559.711 322)">Ultralight</text>
  <text style="stroke:none;fill:black;font-family:-apple-system,&quot;SF Pro Display&quot;,&quot;SF Pro Text&quot;,Helvetica,sans-serif;text-anchor:middle;" transform="matrix(1 0 0 1 856.422 322)">Thin</text>
  <text style="stroke:none;fill:black;font-family:-apple-system,&quot;SF Pro Display&quot;,&quot;SF Pro Text&quot;,Helvetica,sans-serif;text-anchor:middle;" transform="matrix(1 0 0 1 1153.13 322)">Light</text>
  <text style="stroke:none;fill:black;font-family:-apple-system,&quot;SF Pro Display&quot;,&quot;SF Pro Text&quot;,Helvetica,sans-serif;text-anchor:middle;" transform="matrix(1 0 0 1 1449.84 322)">Regular</text>
  <text style="stroke:none;fill:black;font-family:-apple-system,&quot;SF Pro Display&quot;,&quot;SF Pro Text&quot;,Helvetica,sans-serif;text-anchor:middle;" transform="matrix(1 0 0 1 1746.56 322)">Medium</text>
  <text style="stroke:none;fill:black;font-family:-apple-system,&quot;SF Pro Display&quot;,&quot;SF Pro Text&quot;,Helvetica,sans-serif;text-anchor:middle;" transform="matrix(1 0 0 1 2043.27 322)">Semibold</text>
  <text style="stroke:none;fill:black;font-family:-apple-system,&quot;SF Pro Display&quot;,&quot;SF Pro Text&quot;,Helvetica,sans-serif;text-anchor:middle;" transform="matrix(1 0 0 1 2339.98 322)">Bold</text>
  <text style="stroke:none;fill:black;font-family:-apple-system,&quot;SF Pro Display&quot;,&quot;SF Pro Text&quot;,Helvetica,sans-serif;text-anchor:middle;" transform="matrix(1 0 0 1 2636.69 322)">Heavy</text>
  <text style="stroke:none;fill:black;font-family:-apple-system,&quot;SF Pro Display&quot;,&quot;SF Pro Text&quot;,Helvetica,sans-serif;text-anchor:middle;" transform="matrix(1 0 0 1 2933.4 322)">Black</text>
  <line id="" style="fill:none;stroke:black;opacity:1;stroke-width:0.5;" x1="263" x2="3036" y1="1903" y2="1903"/>
  <g id="" transform="matrix(1 0 0 1 263 1933)">
   <path d="M 9.24805 0.830078 C 13.5547 0.830078 17.1387 -2.74414 17.1387 -7.05078 C 17.1387 -11.3574 13.5449 -14.9316 9.23828 -14.9316 C 4.94141 -14.9316 1.36719 -11.3574 1.36719 -7.05078 C 1.36719 -2.74414 4.95117 0.830078 9.24805 0.830078 Z M 9.24805 -0.654297 C 5.70312 -0.654297 2.87109 -3.49609 2.87109 -7.05078 C 2.87109 -10.6055 5.69336 -13.4473 9.23828 -13.4473 C 12.793 -13.4473 15.6348 -10.6055 15.6445 -7.05078 C 15.6543 -3.49609 12.8027 -0.654297 9.24805 -0.654297 Z M 9.22852 -3.42773 C 9.69727 -3.42773 9.9707 -3.74023 9.9707 -4.25781 L 9.9707 -6.31836 L 12.1973 -6.31836 C 12.6953 -6.31836 13.0371 -6.57227 13.0371 -7.04102 C 13.0371 -7.51953 12.7148 -7.7832 12.1973 -7.7832 L 9.9707 -7.7832 L 9.9707 -10.0098 C 9.9707 -10.5273 9.69727 -10.8496 9.22852 -10.8496 C 8.75977 -10.8496 8.50586 -10.5078 8.50586 -10.0098 L 8.50586 -7.7832 L 6.29883 -7.7832 C 5.78125 -7.7832 5.44922 -7.51953 5.44922 -7.04102 C 5.44922 -6.57227 5.80078 -6.31836 6.29883 -6.31836 L 8.50586 -6.31836 L 8.50586 -4.25781 C 8.50586 -3.75977 8.75977 -3.42773 9.22852 -3.42773 Z"/>
  </g>
  <g id="" transform="matrix(1 0 0 1 281.506 1933)">
   <path d="M 11.709 2.91016 C 17.1484 2.91016 21.6699 -1.60156 21.6699 -7.05078 C 21.6699 -12.4902 17.1387 -17.0117 11.6992 -17.0117 C 6.25 -17.0117 1.74805 -12.4902 1.74805 -7.05078 C 1.74805 -1.60156 6.25977 2.91016 11.709 2.91016 Z M 11.709 1.25 C 7.09961 1.25 3.41797 -2.44141 3.41797 -7.05078 C 3.41797 -11.6504 7.08984 -15.3516 11.6992 -15.3516 C 16.2988 -15.3516 20 -11.6504 20.0098 -7.05078 C 20.0195 -2.44141 16.3086 1.25 11.709 1.25 Z M 11.6797 -2.41211 C 12.207 -2.41211 12.5195 -2.77344 12.5195 -3.33984 L 12.5195 -6.23047 L 15.5762 -6.23047 C 16.123 -6.23047 16.5039 -6.51367 16.5039 -7.03125 C 16.5039 -7.55859 16.1426 -7.86133 15.5762 -7.86133 L 12.5195 -7.86133 L 12.5195 -10.9277 C 12.5195 -11.5039 12.207 -11.8555 11.6797 -11.8555 C 11.1621 -11.8555 10.8789 -11.4844 10.8789 -10.9277 L 10.8789 -7.86133 L 7.83203 -7.86133 C 7.25586 -7.86133 6.89453 -7.55859 6.89453 -7.03125 C 6.89453 -6.51367 7.28516 -6.23047 7.83203 -6.23047 L 10.8789 -6.23047 L 10.8789 -3.33984 C 10.8789 -2.79297 11.1621 -2.41211 11.6797 -2.41211 Z"/>
  </g>
  <g id="" transform="matrix(1 0 0 1 304.914 1933)">
   <path d="M 14.9707 5.67383 C 21.9336 5.67383 27.6855 -0.078125 27.6855 -7.04102 C 27.6855 -14.0039 21.9238 -19.7559 14.9609 -19.7559 C 7.99805 -19.7559 2.25586 -14.0039 2.25586 -7.04102 C 2.25586 -0.078125 8.00781 5.67383 14.9707 5.67383 Z M 14.9707 3.85742 C 8.92578 3.85742 4.08203 -1.00586 4.08203 -7.04102 C 4.08203 -13.0762 8.91602 -17.9395 14.9609 -17.9395 C 20.9961 -17.9395 25.8594 -13.0762 25.8691 -7.04102 C 25.8789 -1.00586 21.0059 3.85742 14.9707 3.85742 Z M 14.9414 -1.06445 C 15.5176 -1.06445 15.8594 -1.45508 15.8594 -2.06055 L 15.8594 -6.13281 L 20.0977 -6.13281 C 20.6934 -6.13281 21.1133 -6.46484 21.1133 -7.02148 C 21.1133 -7.59766 20.7227 -7.93945 20.0977 -7.93945 L 15.8594 -7.93945 L 15.8594 -12.1875 C 15.8594 -12.8027 15.5176 -13.1934 14.9414 -13.1934 C 14.3848 -13.1934 14.0625 -12.7832 14.0625 -12.1875 L 14.0625 -7.93945 L 9.82422 -7.93945 C 9.20898 -7.93945 8.80859 -7.59766 8.80859 -7.02148 C 8.80859 -6.46484 9.23828 -6.13281 9.82422 -6.13281 L 14.0625 -6.13281 L 14.0625 -2.06055 C 14.0625 -1.47461 14.3848 -1.06445 14.9414 -1.06445 Z"/>
  </g>
  <text style="stroke:none;fill:black;font-family:-apple-system,&quot;SF Pro Display&quot;,&quot;SF Pro Text&quot;,Helvetica,sans-serif;font-weight:bold;" transform="matrix(1 0 0 1 263 1953)">Design Variations</text>
  <text style="stroke:none;fill:black;font-family:-apple-system,&quot;SF Pro Display&quot;,&quot;SF Pro Text&quot;,Helvetica,sans-serif;" transform="matrix(1 0 0 1 263 1971)">Symbols are supported in up to nine weights and three scales.</text>
  <text style="stroke:none;fill:black;font-family:-apple-system,&quot;SF Pro Display&quot;,&quot;SF Pro Text&quot;,Helvetica,sans-serif;" transform="matrix(1 0 0 1 263 1989)">For optimal layout with text and other symbols, vertically align</text>
  <text style="stroke:none;fill:black;font-family:-apple-system,&quot;SF Pro Display&quot;,&quot;SF Pro Text&quot;,Helvetica,sans-serif;" transform="matrix(1 0 0 1 263 2007)">symbols with the adjacent text.</text>
  <rect height="14" id="" style="fill:#00AEEF;stroke:none;opacity:0.4;" width="3" x="776" y="1919"/>
  <g id="" transform="matrix(1 0 0 1 779 1933)">
   <path d="M 10.5273 0 L 12.373 0 L 7.17773 -14.0918 L 5.43945 -14.0918 L 0.244141 0 L 2.08984 0 L 3.50586 -4.0332 L 9.11133 -4.0332 Z M 6.2793 -11.9531 L 6.33789 -11.9531 L 8.59375 -5.52734 L 4.02344 -5.52734 Z"/>
  </g>
  <rect height="14" id="" style="fill:#00AEEF;stroke:none;opacity:0.4;" width="3" x="791.617" y="1919"/>
  <text style="stroke:none;fill:black;font-family:-apple-system,&quot;SF Pro Display&quot;,&quot;SF Pro Text&quot;,Helvetica,sans-serif;font-weight:bold;" transform="matrix(1 0 0 1 776 1953)">Side Bearings</text>
  <text style="stroke:none;fill:black;font-family:-apple-system,&quot;SF Pro Display&quot;,&quot;SF Pro Text&quot;,Helvetica,sans-serif;" transform="matrix(1 0 0 1 776 1971)">Horizontal padding on the left and right side of each symbol</text>
  <text style="stroke:none;fill:black;font-family:-apple-system,&quot;SF Pro Display&quot;,&quot;SF Pro Text&quot;,Helvetica,sans-serif;" transform="matrix(1 0 0 1 776 1989)">can be adjusted by modifying the width of the blue rectangles.</text>
  <text style="stroke:none;fill:black;font-family:-apple-system,&quot;SF Pro Display&quot;,&quot;SF Pro Text&quot;,Helvetica,sans-serif;" transform="matrix(1 0 0 1 776 2007)">Modifications are automatically applied proportionally to all</text>
  <text style="stroke:none;fill:black;font-family:-apple-system,&quot;SF Pro Display&quot;,&quot;SF Pro Text&quot;,Helvetica,sans-serif;" transform="matrix(1 0 0 1 776 2025)">scales and weights.</text>
  <g id="" transform="matrix(1 0 0 1 1289 1933)">
   <path d="M 2.96875 2.35352 L 3.80859 3.19336 C 4.84375 4.22852 6.12305 4.15039 7.19727 2.97852 L 16.1621 -6.82617 C 16.5527 -6.74805 16.9629 -6.8457 17.4902 -7.02148 C 18.1738 -7.25586 18.2715 -7.25586 18.3887 -7.13867 C 18.5352 -7.01172 18.4863 -6.89453 18.2422 -6.25 C 17.8809 -5.33203 17.8125 -4.79492 18.5547 -4.02344 L 19.4238 -3.13477 C 20.2734 -2.24609 21.3281 -2.26562 22.2168 -3.14453 L 25.0586 -5.97656 C 25.9473 -6.86523 25.957 -7.92969 25.0781 -8.7793 L 24.1797 -9.64844 C 23.4082 -10.4004 22.8711 -10.3516 21.9629 -9.98047 C 21.3184 -9.72656 21.2012 -9.6875 21.0645 -9.81445 C 20.9375 -9.93164 20.9473 -10.0391 21.1816 -10.7129 C 21.5332 -11.6895 21.5723 -12.2852 20.752 -13.0957 L 19.3359 -14.5117 C 15.1953 -18.6133 11.2305 -18.7402 7.65625 -15.4395 C 7.08008 -14.9023 6.99219 -14.1504 7.53906 -13.6133 L 7.79297 -13.3594 C 8.22266 -12.9297 8.86719 -12.8418 9.41406 -13.1152 C 11.0645 -13.9453 12.2559 -14.0234 13.457 -12.9785 L 13.0273 -11.416 C 12.8516 -10.8008 12.793 -10.3418 12.9199 -9.93164 L 3.18359 -1.04492 C 2.02148 0.0292969 1.93359 1.32812 2.96875 2.35352 Z M 8.96484 -14.4922 C 8.89648 -14.5703 8.86719 -14.6582 8.99414 -14.7559 C 11.709 -17.2852 15.0391 -16.8457 18.3496 -13.5254 L 19.6973 -12.168 C 20.0879 -11.7773 20.0977 -11.582 19.8828 -10.8691 C 19.6582 -10.127 19.502 -9.53125 20.1465 -8.88672 C 20.8105 -8.22266 21.2891 -8.41797 22.207 -8.63281 C 22.9004 -8.79883 23.0664 -8.79883 23.4473 -8.41797 L 24.0918 -7.77344 C 24.4043 -7.48047 24.4141 -7.32422 24.0723 -6.97266 L 21.2207 -4.13086 C 20.8887 -3.79883 20.7227 -3.79883 20.4297 -4.10156 L 19.7852 -4.75586 C 19.4141 -5.13672 19.4141 -5.30273 19.5801 -6.01562 C 19.7852 -6.88477 19.9805 -7.38281 19.3262 -8.04688 C 18.6719 -8.7207 18.0762 -8.57422 17.3438 -8.33008 C 16.5625 -8.06641 16.3281 -8.06641 15.8984 -8.49609 L 14.6094 -9.78516 C 14.1699 -10.2246 14.1309 -10.4395 14.2676 -10.9082 L 15.0293 -13.3984 C 13.3887 -15.2832 11.4941 -15.5566 9.20898 -14.4434 C 9.11133 -14.3945 9.04297 -14.4141 8.96484 -14.4922 Z M 3.96484 1.36719 C 3.52539 0.927734 3.54492 0.537109 4.14062 -0.00976562 L 13.7402 -8.81836 L 15 -7.55859 L 6.17188 2.02148 C 5.625 2.60742 5.24414 2.64648 4.79492 2.19727 Z"/>
  </g>
  <text style="stroke:none;fill:black;font-family:-apple-system,&quot;SF Pro Display&quot;,&quot;SF Pro Text&quot;,Helvetica,sans-serif;font-weight:bold;" transform="matrix(1 0 0 1 1289 1953)">Exporting</text>
  <text style="stroke:none;fill:black;font-family:-apple-system,&quot;SF Pro Display&quot;,&quot;SF Pro Text&quot;,Helvetica,sans-serif;" transform="matrix(1 0 0 1 1289 1971)">Symbols should be outlined when exporting to ensure the</text>
  <text style="stroke:none;fill:black;font-family:-apple-system,&quot;SF Pro Display&quot;,&quot;SF Pro Text&quot;,Helvetica,sans-serif;" transform="matrix(1 0 0 1 1289 1989)">design is preserved when submitting to Xcode.</text>
  <text id="template-version" style="stroke:none;fill:black;font-family:-apple-system,&quot;SF Pro Display&quot;,&quot;SF Pro Text&quot;,Helvetica,sans-serif;text-anchor:end;" transform="matrix(1 0 0 1 3036 1933)">Template v.0.1</text>
  <text style="stroke:none;fill:black;font-family:-apple-system,&quot;SF Pro Display&quot;,&quot;SF Pro Text&quot;,Helvetica,sans-serif;text-anchor:end;" transform="matrix(1 0 0 1 3036 1951)">Generated from chart.bar</text>
  <text style="stroke:none;fill:black;font-family:-apple-system,&quot;SF Pro Display&quot;,&quot;SF Pro Text&quot;,Helvetica,sans-serif;text-anchor:end;" transform="matrix(1 0 0 1 3036 1969)">Typeset at 100 points</text>
  <text style="stroke:none;fill:black;font-family:-apple-system,&quot;SF Pro Display&quot;,&quot;SF Pro Text&quot;,Helvetica,sans-serif;" transform="matrix(1 0 0 1 263 726)">Small</text>
  <text style="stroke:none;fill:black;font-family:-apple-system,&quot;SF Pro Display&quot;,&quot;SF Pro Text&quot;,Helvetica,sans-serif;" transform="matrix(1 0 0 1 263 1156)">Medium</text>
  <text style="stroke:none;fill:black;font-family:-apple-system,&quot;SF Pro Display&quot;,&quot;SF Pro Text&quot;,Helvetica,sans-serif;" transform="matrix(1 0 0 1 263 1586)">Large</text>
 </g>
 <g id="Guides">
  <g id="H-reference" style="fill:#27AAE1;stroke:none;" transform="matrix(1 0 0 1 339 696)">
   <path d="M 54.9316 0 L 57.666 0 L 30.5664 -70.459 L 28.0762 -70.459 L 0.976562 0 L 3.66211 0 L 12.9395 -24.4629 L 45.7031 -24.4629 Z M 29.1992 -67.0898 L 29.4434 -67.0898 L 44.8242 -26.709 L 13.8184 -26.709 Z"/>
  </g>
  <line id="Baseline-S" style="fill:none;stroke:#27AAE1;opacity:1;stroke-width:0.577;" x1="263" x2="3036" y1="696" y2="696"/>
  <line id="Capline-S" style="fill:none;stroke:#27AAE1;opacity:1;stroke-width:0.577;" x1="263" x2="3036" y1="625.541" y2="625.541"/>
  <g id="H-reference" style="fill:#27AAE1;stroke:none;" transform="matrix(1 0 0 1 339 1126)">
   <path d="M 54.9316 0 L 57.666 0 L 30.5664 -70.459 L 28.0762 -70.459 L 0.976562 0 L 3.66211 0 L 12.9395 -24.4629 L 45.7031 -24.4629 Z M 29.1992 -67.0898 L 29.4434 -67.0898 L 44.8242 -26.709 L 13.8184 -26.709 Z"/>
  </g>
  <line id="Baseline-M" style="fill:none;stroke:#27AAE1;opacity:1;stroke-width:0.577;" x1="263" x2="3036" y1="1126" y2="1126"/>
  <line id="Capline-M" style="fill:none;stroke:#27AAE1;opacity:1;stroke-width:0.577;" x1="263" x2="3036" y1="1055.54" y2="1055.54"/>
  <g id="H-reference" style="fill:#27AAE1;stroke:none;" transform="matrix(1 0 0 1 339 1556)">
   <path d="M 54.9316 0 L 57.666 0 L 30.5664 -70.459 L 28.0762 -70.459 L 0.976562 0 L 3.66211 0 L 12.9395 -24.4629 L 45.7031 -24.4629 Z M 29.1992 -67.0898 L 29.4434 -67.0898 L 44.8242 -26.709 L 13.8184 -26.709 Z"/>
  </g>
  <line id="Baseline-L" style="fill:none;stroke:#27AAE1;opacity:1;stroke-width:0.577;" x1="263" x2="3036" y1="1556" y2="1556"/>
  <line id="Capline-L" style="fill:none;stroke:#27AAE1;opacity:1;stroke-width:0.577;" x1="263" x2="3036" y1="1485.54" y2="1485.54"/>
  <rect height="119.336" id="left-margin" style="fill:#00AEEF;stroke:none;opacity:0.4;" width="12.4512" x="1375.36" y="1030.79"/>
  <rect height="119.336" id="right-margin" style="fill:#00AEEF;stroke:none;opacity:0.4;" width="12.4512" x="1511.88" y="1030.79"/>
 </g>
 <g id="Symbols">
  <g id="Ultralight-S" transform="matrix(1 0 0 1 504.438 696)">
   <path d="M 82.7637 0.0488281 L 94.4824 0.0488281 C 98.6816 0.0488281 100.781 -2.05078 100.781 -6.39648 L 100.781 -62.9883 C 100.781 -67.334 98.6816 -69.4336 94.4824 -69.4336 L 82.7637 -69.4336 C 78.6133 -69.4336 76.5137 -67.334 76.5137 -62.9883 L 76.5137 -6.39648 C 76.5137 -2.05078 78.6133 0.0488281 82.7637 0.0488281 Z M 82.8613 -2.14844 C 80.0293 -2.14844 78.7109 -3.56445 78.7109 -6.44531 L 78.7109 -62.9395 C 78.7109 -65.8203 80.0293 -67.2363 82.8613 -67.2363 L 94.4336 -67.2363 C 97.2168 -67.2363 98.584 -65.8203 98.584 -62.9395 L 98.584 -6.44531 C 98.584 -3.56445 97.2168 -2.14844 94.4336 -2.14844 Z M 49.4141 0.0488281 L 61.1328 0.0488281 C 65.2832 0.0488281 67.4316 -2.05078 67.4316 -6.39648 L 67.4316 -52.002 C 67.4316 -56.3477 65.2832 -58.4473 61.1328 -58.4473 L 49.4141 -58.4473 C 45.2637 -58.4473 43.1152 -56.3477 43.1152 -52.002 L 43.1152 -6.39648 C 43.1152 -2.05078 45.2637 0.0488281 49.4141 0.0488281 Z M 49.4629 -2.14844 C 46.6797 -2.14844 45.3125 -3.56445 45.3125 -6.44531 L 45.3125 -51.9531 C 45.3125 -54.834 46.6797 -56.25 49.4629 -56.25 L 61.084 -56.25 C 63.8672 -56.25 65.2344 -54.834 65.2344 -51.9531 L 65.2344 -6.44531 C 65.2344 -3.56445 63.8672 -2.14844 61.084 -2.14844 Z M 16.0645 0.0488281 L 27.7832 0.0488281 C 31.9336 0.0488281 34.0332 -2.05078 34.0332 -6.39648 L 34.0332 -41.2598 C 34.0332 -45.5566 31.9336 -47.6562 27.7832 -47.6562 L 16.0645 -47.6562 C 11.8652 -47.6562 9.76562 -45.5566 9.76562 -41.2598 L 9.76562 -6.39648 C 9.76562 -2.05078 11.8652 0.0488281 16.0645 0.0488281 Z M 16.1133 -2.14844 C 13.3301 -2.14844 11.9629 -3.56445 11.9629 -6.44531 L 11.9629 -41.1621 C 11.9629 -44.043 13.3301 -45.5078 16.1133 -45.5078 L 27.7344 -45.5078 C 30.5176 -45.5078 31.8359 -44.043 31.8359 -41.1621 L 31.8359 -6.44531 C 31.8359 -3.56445 30.5176 -2.14844 27.7344 -2.14844 Z"/>
  </g>
  <g id="Thin-S" transform="matrix(1 0 0 1 800.294 696)">
   <path d="M 84.1309 0.244141 L 95.459 0.244141 C 100.098 0.244141 102.49 -2.09961 102.49 -6.78711 L 102.49 -62.8418 C 102.49 -67.5293 100.098 -69.873 95.459 -69.873 L 84.1309 -69.873 C 79.4434 -69.873 77.0996 -67.5293 77.0996 -62.8418 L 77.0996 -6.78711 C 77.0996 -2.09961 79.4434 0.244141 84.1309 0.244141 Z M 84.4238 -2.92969 C 81.5918 -2.92969 80.3711 -4.24805 80.3711 -7.12891 L 80.3711 -62.5 C 80.3711 -65.3809 81.5918 -66.6992 84.4238 -66.6992 L 95.1172 -66.6992 C 97.9492 -66.6992 99.2188 -65.3809 99.2188 -62.5 L 99.2188 -7.12891 C 99.2188 -4.24805 97.9492 -2.92969 95.1172 -2.92969 Z M 50.4395 0.244141 L 61.8164 0.244141 C 66.4551 0.244141 68.8477 -2.09961 68.8477 -6.78711 L 68.8477 -51.8066 C 68.8477 -56.4941 66.4551 -58.8379 61.8164 -58.8379 L 50.4395 -58.8379 C 45.8008 -58.8379 43.4082 -56.4941 43.4082 -51.8066 L 43.4082 -6.78711 C 43.4082 -2.09961 45.8008 0.244141 50.4395 0.244141 Z M 50.7812 -2.92969 C 47.9492 -2.92969 46.6797 -4.24805 46.6797 -7.12891 L 46.6797 -51.416 C 46.6797 -54.2969 47.9492 -55.6152 50.7812 -55.6152 L 61.4746 -55.6152 C 64.3066 -55.6152 65.5762 -54.2969 65.5762 -51.416 L 65.5762 -7.12891 C 65.5762 -4.24805 64.3066 -2.92969 61.4746 -2.92969 Z M 16.7969 0.244141 L 28.125 0.244141 C 32.8125 0.244141 35.2051 -2.09961 35.2051 -6.78711 L 35.2051 -40.918 C 35.2051 -45.6543 32.8125 -47.9492 28.125 -47.9492 L 16.7969 -47.9492 C 12.1582 -47.9492 9.76562 -45.6543 9.76562 -40.918 L 9.76562 -6.78711 C 9.76562 -2.09961 12.1582 0.244141 16.7969 0.244141 Z M 17.1387 -2.92969 C 14.3066 -2.92969 13.0371 -4.24805 13.0371 -7.12891 L 13.0371 -40.5762 C 13.0371 -43.457 14.3066 -44.7754 17.1387 -44.7754 L 27.832 -44.7754 C 30.6641 -44.7754 31.9336 -43.457 31.9336 -40.5762 L 31.9336 -7.12891 C 31.9336 -4.24805 30.6641 -2.92969 27.832 -2.92969 Z"/>
  </g>
  <g id="Light-S" transform="matrix(1 0 0 1 1095.35 696)">
   <path d="M 86.7188 0.634766 L 97.2656 0.634766 C 102.93 0.634766 105.811 -2.09961 105.811 -7.51953 L 105.811 -62.5488 C 105.811 -67.9688 102.93 -70.7031 97.2656 -70.7031 L 86.7188 -70.7031 C 81.0547 -70.7031 78.2227 -67.9688 78.2227 -62.5488 L 78.2227 -7.51953 C 78.2227 -2.09961 81.0547 0.634766 86.7188 0.634766 Z M 87.5488 -4.49219 C 84.668 -4.49219 83.5449 -5.56641 83.5449 -8.44727 L 83.5449 -61.6211 C 83.5449 -64.502 84.668 -65.5762 87.5488 -65.5762 L 96.4844 -65.5762 C 99.3652 -65.5762 100.439 -64.502 100.439 -61.6211 L 100.439 -8.44727 C 100.439 -5.56641 99.3652 -4.49219 96.4844 -4.49219 Z M 52.4902 0.634766 L 63.0859 0.634766 C 68.7012 0.634766 71.6309 -2.09961 71.6309 -7.51953 L 71.6309 -51.3672 C 71.6309 -56.7871 68.7012 -59.5703 63.0859 -59.5703 L 52.4902 -59.5703 C 46.875 -59.5703 43.9941 -56.7871 43.9941 -51.3672 L 43.9941 -7.51953 C 43.9941 -2.09961 46.875 0.634766 52.4902 0.634766 Z M 53.3203 -4.49219 C 50.4395 -4.49219 49.3652 -5.56641 49.3652 -8.44727 L 49.3652 -50.4883 C 49.3652 -53.3691 50.4395 -54.4434 53.3203 -54.4434 L 62.2559 -54.4434 C 65.1367 -54.4434 66.2598 -53.3691 66.2598 -50.4883 L 66.2598 -8.44727 C 66.2598 -5.56641 65.1367 -4.49219 62.2559 -4.49219 Z M 18.2617 0.634766 L 28.8574 0.634766 C 34.4727 0.634766 37.4023 -2.09961 37.4023 -7.51953 L 37.4023 -40.332 C 37.4023 -45.752 34.4727 -48.4863 28.8574 -48.4863 L 18.2617 -48.4863 C 12.6465 -48.4863 9.76562 -45.752 9.76562 -40.332 L 9.76562 -7.51953 C 9.76562 -2.09961 12.6465 0.634766 18.2617 0.634766 Z M 19.1406 -4.49219 C 16.2109 -4.49219 15.1367 -5.56641 15.1367 -8.44727 L 15.1367 -39.4043 C 15.1367 -42.2852 16.2109 -43.3594 19.1406 -43.3594 L 28.0273 -43.3594 C 30.957 -43.3594 32.0312 -42.2852 32.0312 -39.4043 L 32.0312 -8.44727 C 32.0312 -5.56641 30.957 -4.49219 28.0273 -4.49219 Z"/>
  </g>
  <g id="Regular-S" transform="matrix(1 0 0 1 1390.79 696)">
   <path d="M 88.6719 0.927734 L 98.6816 0.927734 C 105.029 0.927734 108.35 -2.14844 108.35 -8.10547 L 108.35 -62.3047 C 108.35 -68.2617 105.029 -71.3379 98.6816 -71.3379 L 88.6719 -71.3379 C 82.3242 -71.3379 79.0527 -68.2617 79.0527 -62.3047 L 79.0527 -8.10547 C 79.0527 -2.14844 82.3242 0.927734 88.6719 0.927734 Z M 89.9414 -5.66406 C 86.9629 -5.66406 85.9863 -6.54297 85.9863 -9.42383 L 85.9863 -60.9375 C 85.9863 -63.8184 86.9629 -64.7461 89.9414 -64.7461 L 97.4609 -64.7461 C 100.439 -64.7461 101.416 -63.8184 101.416 -60.9375 L 101.416 -9.42383 C 101.416 -6.54297 100.439 -5.66406 97.4609 -5.66406 Z M 54.0039 0.927734 L 64.0625 0.927734 C 70.4102 0.927734 73.6816 -2.14844 73.6816 -8.10547 L 73.6816 -51.0742 C 73.6816 -57.0312 70.4102 -60.1074 64.0625 -60.1074 L 54.0039 -60.1074 C 47.6562 -60.1074 44.3848 -57.0312 44.3848 -51.0742 L 44.3848 -8.10547 C 44.3848 -2.14844 47.6562 0.927734 54.0039 0.927734 Z M 55.2734 -5.66406 C 52.2949 -5.66406 51.3672 -6.54297 51.3672 -9.42383 L 51.3672 -49.7559 C 51.3672 -52.6367 52.2949 -53.5156 55.2734 -53.5156 L 62.8418 -53.5156 C 65.8203 -53.5156 66.748 -52.6367 66.748 -49.7559 L 66.748 -9.42383 C 66.748 -6.54297 65.8203 -5.66406 62.8418 -5.66406 Z M 19.3848 0.927734 L 29.3945 0.927734 C 35.7422 0.927734 39.0625 -2.14844 39.0625 -8.10547 L 39.0625 -39.8926 C 39.0625 -45.8496 35.7422 -48.9258 29.3945 -48.9258 L 19.3848 -48.9258 C 13.0371 -48.9258 9.76562 -45.8496 9.76562 -39.8926 L 9.76562 -8.10547 C 9.76562 -2.14844 13.0371 0.927734 19.3848 0.927734 Z M 20.6543 -5.66406 C 17.6758 -5.66406 16.6992 -6.54297 16.6992 -9.42383 L 16.6992 -38.5254 C 16.6992 -41.4062 17.6758 -42.334 20.6543 -42.334 L 28.1738 -42.334 C 31.1523 -42.334 32.1289 -41.4062 32.1289 -38.5254 L 32.1289 -9.42383 C 32.1289 -6.54297 31.1523 -5.66406 28.1738 -5.66406 Z"/>
  </g>
  <g id="Medium-S" transform="matrix(1 0 0 1 1685.59 696)">
   <path d="M 92.2852 1.36719 L 101.367 1.36719 C 108.301 1.36719 112.158 -2.29492 112.158 -8.78906 L 112.158 -61.5234 C 112.158 -68.0176 108.301 -71.6797 101.367 -71.6797 L 92.2852 -71.6797 C 85.3516 -71.6797 81.543 -68.0176 81.543 -61.5234 L 81.543 -8.78906 C 81.543 -2.29492 85.3516 1.36719 92.2852 1.36719 Z M 93.7012 -6.39648 C 90.918 -6.39648 89.8926 -7.4707 89.8926 -10.1562 L 89.8926 -60.1562 C 89.8926 -62.8906 90.918 -63.916 93.7012 -63.916 L 99.9512 -63.916 C 102.734 -63.916 103.809 -62.8906 103.809 -60.1562 L 103.809 -10.1562 C 103.809 -7.4707 102.734 -6.39648 99.9512 -6.39648 Z M 56.3965 1.36719 L 65.4785 1.36719 C 72.4121 1.36719 76.2695 -2.29492 76.2695 -8.78906 L 76.2695 -50.3418 C 76.2695 -56.8359 72.4121 -60.498 65.4785 -60.498 L 56.3965 -60.498 C 49.4629 -60.498 45.6543 -56.8359 45.6543 -50.3418 L 45.6543 -8.78906 C 45.6543 -2.29492 49.4629 1.36719 56.3965 1.36719 Z M 57.8125 -6.39648 C 55.0293 -6.39648 54.0039 -7.4707 54.0039 -10.1562 L 54.0039 -48.9746 C 54.0039 -51.709 55.0293 -52.7344 57.8125 -52.7344 L 64.1113 -52.7344 C 66.8457 -52.7344 67.9199 -51.709 67.9199 -48.9746 L 67.9199 -10.1562 C 67.9199 -7.4707 66.8457 -6.39648 64.0625 -6.39648 Z M 20.5078 1.36719 L 29.6387 1.36719 C 36.5234 1.36719 40.3809 -2.29492 40.3809 -8.78906 L 40.3809 -39.1113 C 40.3809 -45.6055 36.5234 -49.2676 29.6387 -49.2676 L 20.5078 -49.2676 C 13.623 -49.2676 9.76562 -45.6055 9.76562 -39.0625 L 9.76562 -8.78906 C 9.76562 -2.29492 13.623 1.36719 20.5078 1.36719 Z M 21.9727 -6.39648 C 19.1895 -6.39648 18.1152 -7.4707 18.1152 -10.1562 L 18.1152 -37.7441 C 18.1152 -40.4297 19.1895 -41.4551 21.9727 -41.4551 L 28.2227 -41.4551 C 31.0059 -41.4551 32.0312 -40.4297 32.0312 -37.7441 L 32.0312 -10.1562 C 32.0312 -7.4707 31.0059 -6.39648 28.2227 -6.39648 Z"/>
  </g>
  <g id="Semibold-S" transform="matrix(1 0 0 1 1980.84 696)">
   <path d="M 95.0195 1.70898 L 103.418 1.70898 C 110.742 1.70898 115.088 -2.39258 115.088 -9.32617 L 115.088 -60.9375 C 115.088 -67.8711 110.742 -71.9727 103.418 -71.9727 L 95.0195 -71.9727 C 87.6953 -71.9727 83.3984 -67.8711 83.3984 -60.9375 L 83.3984 -9.32617 C 83.3984 -2.39258 87.6953 1.70898 95.0195 1.70898 Z M 96.6309 -7.03125 C 93.9941 -7.03125 92.8223 -8.10547 92.8223 -10.6934 L 92.8223 -59.5703 C 92.8223 -62.1094 93.9941 -63.2324 96.6309 -63.2324 L 101.904 -63.2324 C 104.492 -63.2324 105.664 -62.1094 105.664 -59.5703 L 105.664 -10.6934 C 105.664 -8.10547 104.492 -7.03125 101.855 -7.03125 Z M 58.2031 1.70898 L 66.6016 1.70898 C 73.9258 1.70898 78.2227 -2.39258 78.2227 -9.32617 L 78.2227 -49.7559 C 78.2227 -56.7383 73.9258 -60.791 66.6016 -60.791 L 58.2031 -60.791 C 50.8789 -60.791 46.582 -56.7383 46.582 -49.7559 L 46.582 -9.32617 C 46.582 -2.39258 50.8789 1.70898 58.2031 1.70898 Z M 59.7656 -7.03125 C 57.1777 -7.03125 56.0059 -8.10547 56.0059 -10.6934 L 56.0059 -48.3887 C 56.0059 -50.9766 57.1777 -52.0996 59.7656 -52.0996 L 65.0391 -52.0996 C 67.6758 -52.0996 68.8477 -50.9766 68.8477 -48.3887 L 68.8477 -10.6934 C 68.8477 -8.10547 67.6758 -7.03125 65.0391 -7.03125 Z M 21.3867 1.70898 L 29.7852 1.70898 C 37.1094 1.70898 41.4062 -2.39258 41.4062 -9.32617 L 41.4062 -38.4766 C 41.4062 -45.459 37.1094 -49.5117 29.7852 -49.5117 L 21.3867 -49.5117 C 14.0625 -49.5117 9.76562 -45.459 9.76562 -38.4766 L 9.76562 -9.32617 C 9.76562 -2.39258 14.0625 1.70898 21.3867 1.70898 Z M 22.9492 -7.03125 C 20.3125 -7.03125 19.1895 -8.10547 19.1895 -10.6934 L 19.1895 -37.1582 C 19.1895 -39.6973 20.3125 -40.8203 22.9492 -40.8203 L 28.2227 -40.8203 C 30.8594 -40.8203 31.9824 -39.6973 31.9824 -37.1582 L 31.9824 -10.6934 C 31.9824 -8.10547 30.8594 -7.03125 28.2227 -7.03125 Z"/>
  </g>
  <g id="Bold-S" transform="matrix(1 0 0 1 2275.62 696)">
   <path d="M 98.6816 2.14844 L 106.152 2.14844 C 114.014 2.14844 118.945 -2.53906 118.945 -10.0098 L 118.945 -60.1562 C 118.945 -67.6758 114.014 -72.3145 106.152 -72.3145 L 98.6816 -72.3145 C 90.8203 -72.3145 85.9375 -67.6758 85.9375 -60.1074 L 85.9375 -10.0098 C 85.9375 -2.53906 90.8203 2.14844 98.6816 2.14844 Z M 100.439 -7.76367 C 97.998 -7.76367 96.7773 -9.0332 96.7773 -11.4258 L 96.7773 -58.7891 C 96.7773 -61.1816 97.998 -62.4023 100.439 -62.4023 L 104.395 -62.4023 C 106.836 -62.4023 108.105 -61.1816 108.105 -58.7891 L 108.105 -11.4258 C 108.105 -9.0332 106.836 -7.76367 104.346 -7.76367 Z M 60.5957 2.14844 L 68.0664 2.14844 C 75.9277 2.14844 80.8594 -2.53906 80.8594 -10.0098 L 80.8594 -49.0234 C 80.8594 -56.543 75.9277 -61.1816 68.0664 -61.1816 L 60.5957 -61.1816 C 52.7344 -61.1816 47.8516 -56.543 47.8516 -48.9746 L 47.8516 -10.0098 C 47.8516 -2.53906 52.7344 2.14844 60.5957 2.14844 Z M 62.3535 -7.76367 C 59.9121 -7.76367 58.6914 -9.0332 58.6914 -11.4258 L 58.6914 -47.6562 C 58.6914 -50.0488 59.9121 -51.2695 62.3535 -51.2695 L 66.3086 -51.2695 C 68.75 -51.2695 70.0195 -50.0488 70.0195 -47.6562 L 70.0195 -11.4258 C 70.0195 -9.0332 68.75 -7.76367 66.3086 -7.76367 Z M 22.5098 2.14844 L 30.0293 2.14844 C 37.8906 2.14844 42.7734 -2.53906 42.7734 -10.0098 L 42.7734 -37.6953 C 42.7734 -45.2148 37.8906 -49.8535 30.0293 -49.8535 L 22.5098 -49.8535 C 14.6484 -49.8535 9.76562 -45.2148 9.76562 -37.6953 L 9.76562 -10.0098 C 9.76562 -2.53906 14.6484 2.14844 22.5098 2.14844 Z M 24.2676 -7.76367 C 21.8262 -7.76367 20.6055 -9.0332 20.6055 -11.4258 L 20.6055 -36.3281 C 20.6055 -38.7207 21.8262 -39.9414 24.2676 -39.9414 L 28.2227 -39.9414 C 30.6641 -39.9414 31.9336 -38.7207 31.9336 -36.3281 L 31.9336 -11.4258 C 31.9336 -9.0332 30.6641 -7.76367 28.2227 -7.76367 Z"/>
  </g>
  <g id="Heavy-S" transform="matrix(1 0 0 1 2569.55 696)">
   <path d="M 103.955 2.7832 L 110.107 2.7832 C 118.75 2.7832 124.512 -2.73438 124.512 -11.0352 L 124.512 -59.0332 C 124.512 -67.334 118.75 -72.8516 110.107 -72.8516 L 103.955 -72.8516 C 95.3125 -72.8516 89.5508 -67.334 89.5508 -58.9844 L 89.5508 -11.0352 C 89.5508 -2.73438 95.3125 2.7832 103.955 2.7832 Z M 64.0625 2.7832 L 70.2148 2.7832 C 78.8574 2.7832 84.6191 -2.73438 84.6191 -11.0352 L 84.6191 -47.9492 C 84.6191 -56.25 78.8574 -61.7676 70.2148 -61.7676 L 64.0625 -61.7676 C 55.4199 -61.7676 49.6582 -56.25 49.6582 -47.9004 L 49.6582 -11.0352 C 49.6582 -2.73438 55.4199 2.7832 64.0625 2.7832 Z M 106.006 -8.88672 C 103.857 -8.88672 102.441 -10.3027 102.441 -12.4512 L 102.441 -57.6172 C 102.441 -59.7656 103.857 -61.1328 106.006 -61.1328 L 108.057 -61.1328 C 110.205 -61.1328 111.621 -59.7656 111.621 -57.6172 L 111.621 -12.4512 C 111.621 -10.3027 110.205 -8.88672 108.008 -8.88672 Z M 24.1699 2.7832 L 30.3223 2.7832 C 38.9648 2.7832 44.7266 -2.73438 44.7266 -11.0352 L 44.7266 -36.5723 C 44.7266 -44.873 38.9648 -50.3906 30.3223 -50.3906 L 24.1699 -50.3906 C 15.4785 -50.3906 9.76562 -44.873 9.76562 -36.5234 L 9.76562 -11.0352 C 9.76562 -2.73438 15.4785 2.7832 24.1699 2.7832 Z M 66.1133 -8.88672 C 63.9648 -8.88672 62.5488 -10.3027 62.5488 -12.4512 L 62.5488 -46.5332 C 62.5488 -48.6816 63.9648 -50.0488 66.1133 -50.0488 L 68.1641 -50.0488 C 70.3125 -50.0488 71.7285 -48.6816 71.7285 -46.5332 L 71.7285 -12.4512 C 71.7285 -10.3027 70.3125 -8.88672 68.1152 -8.88672 Z M 26.2207 -8.88672 C 24.0723 -8.88672 22.6562 -10.3027 22.6562 -12.4512 L 22.6562 -35.1562 C 22.6562 -37.3047 24.0723 -38.7207 26.2207 -38.7207 L 28.2715 -38.7207 C 30.4199 -38.7207 31.8359 -37.3047 31.8359 -35.1562 L 31.8359 -12.4512 C 31.8359 -10.3027 30.4199 -8.88672 28.2227 -8.88672 Z"/>
  </g>
  <g id="Black-S" transform="matrix(1 0 0 1 2863.77 696)">
   <path d="M 108.691 3.36914 L 113.672 3.36914 C 122.998 3.36914 129.492 -2.88086 129.492 -11.9629 L 129.492 -58.0078 C 129.492 -67.041 122.998 -73.291 113.672 -73.291 L 108.691 -73.291 C 99.3164 -73.291 92.8223 -67.041 92.8223 -57.959 L 92.8223 -11.9629 C 92.8223 -2.88086 99.3164 3.36914 108.691 3.36914 Z M 67.1387 3.36914 L 72.1191 3.36914 C 81.4941 3.36914 87.9883 -2.88086 87.9883 -11.9629 L 87.9883 -46.9727 C 87.9883 -56.0059 81.4941 -62.2559 72.1191 -62.2559 L 67.1387 -62.2559 C 57.7637 -62.2559 51.2695 -56.0059 51.2695 -46.9238 L 51.2695 -11.9629 C 51.2695 -2.88086 57.7637 3.36914 67.1387 3.36914 Z M 110.986 -9.91211 C 109.082 -9.91211 107.52 -11.4746 107.52 -13.3789 L 107.52 -56.5918 C 107.52 -58.4961 109.082 -60.0586 110.986 -60.0586 L 111.328 -60.0586 C 113.232 -60.0586 114.795 -58.4961 114.795 -56.5918 L 114.795 -13.3789 C 114.795 -11.4746 113.232 -9.91211 111.279 -9.91211 Z M 25.6348 3.36914 L 30.6152 3.36914 C 39.9902 3.36914 46.4844 -2.88086 46.4844 -11.9629 L 46.4844 -35.5469 C 46.4844 -44.5801 39.9902 -50.8301 30.6152 -50.8301 L 25.6348 -50.8301 C 16.2598 -50.8301 9.76562 -44.5801 9.76562 -35.498 L 9.76562 -11.9629 C 9.76562 -2.88086 16.2598 3.36914 25.6348 3.36914 Z M 69.4824 -9.91211 C 67.5293 -9.91211 66.0156 -11.4746 66.0156 -13.3789 L 66.0156 -45.5566 C 66.0156 -47.4609 67.5293 -49.0234 69.4824 -49.0234 L 69.8242 -49.0234 C 71.7285 -49.0234 73.291 -47.4609 73.291 -45.5566 L 73.291 -13.3789 C 73.291 -11.4746 71.7285 -9.91211 69.7266 -9.91211 Z M 27.9297 -9.91211 C 26.0254 -9.91211 24.4629 -11.4746 24.4629 -13.3789 L 24.4629 -34.1309 C 24.4629 -36.0352 26.0254 -37.5977 27.9297 -37.5977 L 28.2715 -37.5977 C 30.2246 -37.5977 31.7383 -36.0352 31.7383 -34.1309 L 31.7383 -13.3789 C 31.7383 -11.4746 30.2246 -9.91211 28.2227 -9.91211 Z"/>
  </g>
  <g id="Ultralight-M" transform="matrix(1 0 0 1 489.496 1126)">
   <path d="M 105.127 9.7168 L 120.264 9.7168 C 125.391 9.7168 127.979 7.12891 127.979 1.70898 L 127.979 -70.752 C 127.979 -76.123 125.391 -78.7109 120.264 -78.7109 L 105.127 -78.7109 C 100 -78.7109 97.4121 -76.123 97.4121 -70.752 L 97.4121 1.70898 C 97.4121 7.12891 100 9.7168 105.127 9.7168 Z M 105.127 7.32422 C 101.562 7.32422 99.8047 5.41992 99.8047 1.75781 L 99.8047 -70.752 C 99.8047 -74.4629 101.562 -76.3184 105.127 -76.3184 L 120.264 -76.3184 C 123.828 -76.3184 125.586 -74.4629 125.586 -70.752 L 125.586 1.75781 C 125.586 5.41992 123.828 7.32422 120.264 7.32422 Z M 62.6465 9.7168 L 77.7832 9.7168 C 82.9102 9.7168 85.498 7.12891 85.498 1.70898 L 85.498 -56.7383 C 85.498 -62.1094 82.9102 -64.6973 77.7832 -64.6973 L 62.6465 -64.6973 C 57.5195 -64.6973 54.9316 -62.1094 54.9316 -56.7383 L 54.9316 1.70898 C 54.9316 7.12891 57.5195 9.7168 62.6465 9.7168 Z M 62.6465 7.32422 C 59.082 7.32422 57.3242 5.41992 57.3242 1.75781 L 57.3242 -56.7383 C 57.3242 -60.4004 59.082 -62.3047 62.6465 -62.3047 L 77.7832 -62.3047 C 81.3477 -62.3047 83.1055 -60.4004 83.1055 -56.7383 L 83.1055 1.75781 C 83.1055 5.41992 81.3477 7.32422 77.7832 7.32422 Z M 20.166 9.7168 L 35.3027 9.7168 C 40.4297 9.7168 43.0176 7.12891 43.0176 1.70898 L 43.0176 -43.0176 C 43.0176 -48.3887 40.4297 -51.0254 35.3027 -51.0254 L 20.166 -51.0254 C 15.0391 -51.0254 12.4512 -48.3887 12.4512 -43.0176 L 12.4512 1.70898 C 12.4512 7.12891 15.0391 9.7168 20.166 9.7168 Z M 20.166 7.32422 C 16.6016 7.32422 14.8438 5.41992 14.8438 1.75781 L 14.8438 -43.0664 C 14.8438 -46.7285 16.6016 -48.584 20.166 -48.584 L 35.3516 -48.584 C 38.8672 -48.584 40.625 -46.7285 40.625 -43.0664 L 40.625 1.75781 C 40.625 5.41992 38.8672 7.32422 35.3516 7.32422 Z"/>
  </g>
  <g id="Thin-M" transform="matrix(1 0 0 1 785.231 1126)">
   <path d="M 106.641 9.96094 L 121.338 9.96094 C 127.002 9.96094 129.932 7.08008 129.932 1.31836 L 129.932 -70.5566 C 129.932 -76.3672 127.002 -79.1992 121.338 -79.1992 L 106.641 -79.1992 C 100.977 -79.1992 98.0957 -76.3672 98.0957 -70.5566 L 98.0957 1.31836 C 98.0957 7.08008 100.977 9.96094 106.641 9.96094 Z M 106.934 6.39648 C 103.32 6.39648 101.66 4.6875 101.66 0.976562 L 101.66 -70.2637 C 101.66 -73.9258 103.32 -75.6836 106.934 -75.6836 L 121.045 -75.6836 C 124.658 -75.6836 126.318 -73.9258 126.318 -70.2637 L 126.318 0.976562 C 126.318 4.6875 124.658 6.39648 121.045 6.39648 Z M 63.8672 9.96094 L 78.5156 9.96094 C 84.2285 9.96094 87.1094 7.08008 87.1094 1.31836 L 87.1094 -56.4941 C 87.1094 -62.3047 84.2285 -65.1367 78.5156 -65.1367 L 63.8672 -65.1367 C 58.1543 -65.1367 55.2734 -62.3047 55.2734 -56.4941 L 55.2734 1.31836 C 55.2734 7.08008 58.1543 9.96094 63.8672 9.96094 Z M 64.1113 6.39648 C 60.5469 6.39648 58.8867 4.6875 58.8867 0.976562 L 58.8867 -56.2012 C 58.8867 -59.8633 60.5469 -61.6211 64.1113 -61.6211 L 78.2715 -61.6211 C 81.8359 -61.6211 83.4961 -59.8633 83.4961 -56.2012 L 83.4961 0.976562 C 83.4961 4.6875 81.8359 6.39648 78.2715 6.39648 Z M 21.0449 9.96094 L 35.7422 9.96094 C 41.4062 9.96094 44.2871 7.08008 44.2871 1.31836 L 44.2871 -42.6758 C 44.2871 -48.4863 41.4062 -51.3184 35.7422 -51.3184 L 21.0449 -51.3184 C 15.332 -51.3184 12.4512 -48.4863 12.4512 -42.6758 L 12.4512 1.31836 C 12.4512 7.08008 15.332 9.96094 21.0449 9.96094 Z M 21.3379 6.39648 C 17.7246 6.39648 16.0645 4.6875 16.0645 0.976562 L 16.0645 -42.3828 C 16.0645 -46.0449 17.7246 -47.8027 21.3379 -47.8027 L 35.4492 -47.8027 C 39.0625 -47.8027 40.6738 -46.0449 40.6738 -42.3828 L 40.6738 0.976562 C 40.6738 4.6875 39.0625 6.39648 35.4492 6.39648 Z"/>
  </g>
  <g id="Light-M" transform="matrix(1 0 0 1 1080.06 1126)">
   <path d="M 109.57 10.4004 L 123.389 10.4004 C 130.176 10.4004 133.691 7.03125 133.691 0.439453 L 133.691 -70.2148 C 133.691 -76.8066 130.176 -80.127 123.389 -80.127 L 109.57 -80.127 C 102.783 -80.127 99.3652 -76.8066 99.3652 -70.2148 L 99.3652 0.439453 C 99.3652 7.03125 102.783 10.4004 109.57 10.4004 Z M 110.449 4.6875 C 106.787 4.6875 105.322 3.17383 105.322 -0.488281 L 105.322 -69.2871 C 105.322 -72.9492 106.787 -74.4141 110.449 -74.4141 L 122.559 -74.4141 C 126.27 -74.4141 127.686 -72.9492 127.686 -69.2871 L 127.686 -0.488281 C 127.686 3.17383 126.27 4.6875 122.559 4.6875 Z M 66.1621 10.4004 L 79.9805 10.4004 C 86.7676 10.4004 90.2344 7.03125 90.2344 0.439453 L 90.2344 -56.0059 C 90.2344 -62.6465 86.7676 -65.9668 79.9805 -65.9668 L 66.1621 -65.9668 C 59.375 -65.9668 55.9082 -62.6465 55.9082 -56.0059 L 55.9082 0.439453 C 55.9082 7.03125 59.375 10.4004 66.1621 10.4004 Z M 66.9922 4.6875 C 63.3301 4.6875 61.8652 3.17383 61.8652 -0.488281 L 61.8652 -55.0781 C 61.8652 -58.7891 63.3301 -60.2539 66.9922 -60.2539 L 79.1504 -60.2539 C 82.8125 -60.2539 84.2773 -58.7891 84.2773 -55.0781 L 84.2773 -0.488281 C 84.2773 3.17383 82.8125 4.6875 79.1504 4.6875 Z M 22.7051 10.4004 L 36.5234 10.4004 C 43.3105 10.4004 46.8262 7.03125 46.8262 0.439453 L 46.8262 -41.9922 C 46.8262 -48.584 43.3105 -51.9531 36.5234 -51.9531 L 22.7051 -51.9531 C 15.918 -51.9531 12.4512 -48.584 12.4512 -41.9922 L 12.4512 0.439453 C 12.4512 7.03125 15.918 10.4004 22.7051 10.4004 Z M 23.584 4.6875 C 19.873 4.6875 18.457 3.17383 18.457 -0.488281 L 18.457 -41.0645 C 18.457 -44.7266 19.873 -46.1914 23.584 -46.1914 L 35.6934 -46.1914 C 39.3555 -46.1914 40.8203 -44.7266 40.8203 -41.0645 L 40.8203 -0.488281 C 40.8203 3.17383 39.3555 4.6875 35.6934 4.6875 Z"/>
  </g>
  <g id="Regular-M" transform="matrix(1 0 0 1 1375.36 1126)">
   <path d="M 111.816 10.6934 L 125 10.6934 C 132.617 10.6934 136.523 7.03125 136.523 -0.195312 L 136.523 -69.9219 C 136.523 -77.1484 132.617 -80.8594 125 -80.8594 L 111.816 -80.8594 C 104.199 -80.8594 100.293 -77.1484 100.293 -69.9219 L 100.293 -0.195312 C 100.293 7.03125 104.199 10.6934 111.816 10.6934 Z M 113.135 3.32031 C 109.375 3.32031 108.057 2.05078 108.057 -1.61133 L 108.057 -68.5059 C 108.057 -72.2168 109.375 -73.4863 113.135 -73.4863 L 123.73 -73.4863 C 127.441 -73.4863 128.76 -72.2168 128.76 -68.5059 L 128.76 -1.61133 C 128.76 2.05078 127.441 3.32031 123.73 3.32031 Z M 67.8711 10.6934 L 81.0547 10.6934 C 88.6719 10.6934 92.627 7.03125 92.627 -0.195312 L 92.627 -55.6641 C 92.627 -62.8906 88.6719 -66.6016 81.0547 -66.6016 L 67.8711 -66.6016 C 60.2539 -66.6016 56.3965 -62.8906 56.3965 -55.6641 L 56.3965 -0.195312 C 56.3965 7.03125 60.2539 10.6934 67.8711 10.6934 Z M 69.1895 3.32031 C 65.4785 3.32031 64.1602 2.05078 64.1602 -1.61133 L 64.1602 -54.248 C 64.1602 -57.959 65.4785 -59.2285 69.1895 -59.2285 L 79.7852 -59.2285 C 83.5449 -59.2285 84.8633 -57.959 84.8633 -54.248 L 84.8633 -1.61133 C 84.8633 2.05078 83.5449 3.32031 79.7852 3.32031 Z M 23.9746 10.6934 L 37.1582 10.6934 C 44.7754 10.6934 48.6816 7.03125 48.6816 -0.195312 L 48.6816 -41.4551 C 48.6816 -48.6816 44.7754 -52.3926 37.1582 -52.3926 L 23.9746 -52.3926 C 16.3574 -52.3926 12.4512 -48.6816 12.4512 -41.4551 L 12.4512 -0.195312 C 12.4512 7.03125 16.3574 10.6934 23.9746 10.6934 Z M 25.293 3.32031 C 21.5332 3.32031 20.2148 2.05078 20.2148 -1.61133 L 20.2148 -40.0391 C 20.2148 -43.75 21.5332 -45.0195 25.293 -45.0195 L 35.8887 -45.0195 C 39.5996 -45.0195 40.918 -43.75 40.918 -40.0391 L 40.918 -1.61133 C 40.918 2.05078 39.5996 3.32031 35.8887 3.32031 Z"/>
  </g>
  <g id="Medium-M" transform="matrix(1 0 0 1 1669.94 1126)">
   <path d="M 115.771 11.1816 L 127.93 11.1816 C 136.182 11.1816 140.771 6.88477 140.771 -0.976562 L 140.771 -69.1406 C 140.771 -77.002 136.182 -81.2988 127.93 -81.2988 L 115.771 -81.2988 C 107.471 -81.2988 102.93 -77.002 102.93 -69.0918 L 102.93 -0.976562 C 102.93 6.88477 107.471 11.1816 115.771 11.1816 Z M 117.334 2.39258 C 113.77 2.39258 112.354 1.02539 112.354 -2.49023 L 112.354 -67.627 C 112.354 -71.1426 113.77 -72.5098 117.334 -72.5098 L 126.416 -72.5098 C 129.98 -72.5098 131.348 -71.1426 131.348 -67.627 L 131.348 -2.49023 C 131.348 1.02539 129.98 2.39258 126.367 2.39258 Z M 70.5078 11.1816 L 82.666 11.1816 C 90.9668 11.1816 95.5078 6.88477 95.5078 -0.976562 L 95.5078 -54.8828 C 95.5078 -62.7441 90.9668 -67.0898 82.666 -67.0898 L 70.5078 -67.0898 C 62.2559 -67.0898 57.7148 -62.7441 57.7148 -54.8828 L 57.7148 -0.976562 C 57.7148 6.88477 62.2559 11.1816 70.5078 11.1816 Z M 72.0703 2.39258 C 68.5059 2.39258 67.0898 1.02539 67.0898 -2.49023 L 67.0898 -53.3691 C 67.0898 -56.8848 68.5059 -58.252 72.0703 -58.252 L 81.1523 -58.252 C 84.7168 -58.252 86.1328 -56.8848 86.1328 -53.3691 L 86.1328 -2.49023 C 86.1328 1.02539 84.7168 2.39258 81.1523 2.39258 Z M 25.2441 11.1816 L 37.4512 11.1816 C 45.7031 11.1816 50.293 6.88477 50.293 -0.976562 L 50.293 -40.625 C 50.293 -48.4863 45.7031 -52.832 37.4512 -52.832 L 25.2441 -52.832 C 16.9922 -52.832 12.4512 -48.4863 12.4512 -40.625 L 12.4512 -0.976562 C 12.4512 6.88477 16.9922 11.1816 25.2441 11.1816 Z M 26.8555 2.39258 C 23.291 2.39258 21.875 1.02539 21.875 -2.49023 L 21.875 -39.1113 C 21.875 -42.627 23.291 -43.9941 26.8555 -43.9941 L 35.8887 -43.9941 C 39.4531 -43.9941 40.8691 -42.627 40.8691 -39.1113 L 40.8691 -2.49023 C 40.8691 1.02539 39.4531 2.39258 35.8887 2.39258 Z"/>
  </g>
  <g id="Semibold-M" transform="matrix(1 0 0 1 1965.02 1126)">
   <path d="M 118.799 11.5723 L 130.176 11.5723 C 138.965 11.5723 143.994 6.78711 143.994 -1.61133 L 143.994 -68.5059 C 143.994 -76.8555 138.965 -81.6406 130.176 -81.6406 L 118.799 -81.6406 C 110.01 -81.6406 104.98 -76.8555 104.98 -68.457 L 104.98 -1.61133 C 104.98 6.78711 110.01 11.5723 118.799 11.5723 Z M 120.557 1.66016 C 117.139 1.66016 115.625 0.244141 115.625 -3.125 L 115.625 -66.9434 C 115.625 -70.3125 117.139 -71.7773 120.557 -71.7773 L 128.467 -71.7773 C 131.885 -71.7773 133.35 -70.3125 133.35 -66.9434 L 133.35 -3.125 C 133.35 0.244141 131.885 1.66016 128.418 1.66016 Z M 72.5098 11.5723 L 83.9355 11.5723 C 92.6758 11.5723 97.7539 6.78711 97.7539 -1.61133 L 97.7539 -54.248 C 97.7539 -62.6465 92.6758 -67.4316 83.9355 -67.4316 L 72.5098 -67.4316 C 63.7695 -67.4316 58.7402 -62.6465 58.7402 -54.248 L 58.7402 -1.61133 C 58.7402 6.78711 63.7695 11.5723 72.5098 11.5723 Z M 74.2676 1.66016 C 70.8496 1.66016 69.3848 0.244141 69.3848 -3.125 L 69.3848 -52.7344 C 69.3848 -56.0547 70.8496 -57.5195 74.2676 -57.5195 L 82.1777 -57.5195 C 85.5957 -57.5195 87.1094 -56.0547 87.1094 -52.7344 L 87.1094 -3.125 C 87.1094 0.244141 85.5957 1.66016 82.1777 1.66016 Z M 26.2695 11.5723 L 37.6465 11.5723 C 46.4355 11.5723 51.5137 6.78711 51.5137 -1.61133 L 51.5137 -39.9414 C 51.5137 -48.3398 46.4355 -53.125 37.6465 -53.125 L 26.2695 -53.125 C 17.4805 -53.125 12.4512 -48.3398 12.4512 -39.9414 L 12.4512 -1.61133 C 12.4512 6.78711 17.4805 11.5723 26.2695 11.5723 Z M 28.0273 1.66016 C 24.6094 1.66016 23.1445 0.244141 23.1445 -3.125 L 23.1445 -38.4277 C 23.1445 -41.7969 24.6094 -43.2129 28.0273 -43.2129 L 35.9375 -43.2129 C 39.3555 -43.2129 40.8203 -41.7969 40.8203 -38.4277 L 40.8203 -3.125 C 40.8203 0.244141 39.3555 1.66016 35.9375 1.66016 Z"/>
  </g>
  <g id="Bold-M" transform="matrix(1 0 0 1 2259.61 1126)">
   <path d="M 122.754 12.0605 L 133.154 12.0605 C 142.578 12.0605 148.291 6.64062 148.291 -2.39258 L 148.291 -67.6758 C 148.291 -76.6602 142.578 -82.1289 133.154 -82.1289 L 122.754 -82.1289 C 113.33 -82.1289 107.666 -76.6602 107.666 -67.627 L 107.666 -2.39258 C 107.666 6.64062 113.33 12.0605 122.754 12.0605 Z M 124.756 0.732422 C 121.533 0.732422 119.971 -0.830078 119.971 -4.00391 L 119.971 -66.0645 C 119.971 -69.2383 121.533 -70.752 124.756 -70.752 L 131.152 -70.752 C 134.424 -70.752 135.986 -69.2383 135.986 -66.0645 L 135.986 -4.00391 C 135.986 -0.830078 134.424 0.732422 131.152 0.732422 Z M 75.1465 12.0605 L 85.5469 12.0605 C 94.9707 12.0605 100.684 6.64062 100.684 -2.39258 L 100.684 -53.4668 C 100.684 -62.4512 94.9707 -67.9199 85.5469 -67.9199 L 75.1465 -67.9199 C 65.7715 -67.9199 60.0586 -62.4512 60.0586 -53.418 L 60.0586 -2.39258 C 60.0586 6.64062 65.7715 12.0605 75.1465 12.0605 Z M 77.1973 0.732422 C 73.9258 0.732422 72.3633 -0.830078 72.3633 -4.00391 L 72.3633 -51.8555 C 72.3633 -55.0293 73.9258 -56.5918 77.1973 -56.5918 L 83.5938 -56.5918 C 86.8164 -56.5918 88.3789 -55.0293 88.3789 -51.8555 L 88.3789 -4.00391 C 88.3789 -0.830078 86.8164 0.732422 83.5449 0.732422 Z M 27.5879 12.0605 L 37.9883 12.0605 C 47.4121 12.0605 53.125 6.64062 53.125 -2.39258 L 53.125 -39.1113 C 53.125 -48.0957 47.4121 -53.5645 37.9883 -53.5645 L 27.5879 -53.5645 C 18.1641 -53.5645 12.4512 -48.0957 12.4512 -39.0625 L 12.4512 -2.39258 C 12.4512 6.64062 18.1641 12.0605 27.5879 12.0605 Z M 29.5898 0.732422 C 26.3672 0.732422 24.8047 -0.830078 24.8047 -4.00391 L 24.8047 -37.5 C 24.8047 -40.6738 26.3672 -42.1875 29.5898 -42.1875 L 35.9863 -42.1875 C 39.209 -42.1875 40.7715 -40.6738 40.7715 -37.5 L 40.7715 -4.00391 C 40.7715 -0.830078 39.209 0.732422 35.9375 0.732422 Z"/>
  </g>
  <g id="Heavy-M" transform="matrix(1 0 0 1 2553.19 1126)">
   <path d="M 128.564 12.793 L 137.5 12.793 C 147.852 12.793 154.492 6.39648 154.492 -3.51562 L 154.492 -66.4551 C 154.492 -76.416 147.852 -82.7637 137.5 -82.7637 L 128.564 -82.7637 C 118.164 -82.7637 111.523 -76.416 111.523 -66.4062 L 111.523 -3.51562 C 111.523 6.39648 118.164 12.793 128.564 12.793 Z M 130.908 -0.634766 C 127.979 -0.634766 126.27 -2.34375 126.27 -5.27344 L 126.27 -64.7461 C 126.27 -67.627 127.979 -69.3359 130.908 -69.3359 L 135.107 -69.3359 C 138.086 -69.3359 139.795 -67.627 139.795 -64.7461 L 139.795 -5.27344 C 139.795 -2.34375 138.086 -0.634766 135.059 -0.634766 Z M 79.0039 12.793 L 87.9395 12.793 C 98.291 12.793 104.98 6.39648 104.98 -3.51562 L 104.98 -52.2949 C 104.98 -62.2559 98.291 -68.6035 87.9395 -68.6035 L 79.0039 -68.6035 C 68.6523 -68.6035 62.0117 -62.2559 62.0117 -52.2461 L 62.0117 -3.51562 C 62.0117 6.39648 68.6523 12.793 79.0039 12.793 Z M 81.3965 -0.634766 C 78.418 -0.634766 76.7578 -2.34375 76.7578 -5.27344 L 76.7578 -50.5859 C 76.7578 -53.4668 78.418 -55.1758 81.3965 -55.1758 L 85.5957 -55.1758 C 88.5254 -55.1758 90.2344 -53.4668 90.2344 -50.5859 L 90.2344 -5.27344 C 90.2344 -2.34375 88.5254 -0.634766 85.5469 -0.634766 Z M 29.4922 12.793 L 38.4277 12.793 C 48.7793 12.793 55.4199 6.39648 55.4199 -3.51562 L 55.4199 -37.8418 C 55.4199 -47.8027 48.7793 -54.1504 38.4277 -54.1504 L 29.4922 -54.1504 C 19.0918 -54.1504 12.4512 -47.8027 12.4512 -37.793 L 12.4512 -3.51562 C 12.4512 6.39648 19.0918 12.793 29.4922 12.793 Z M 31.8359 -0.634766 C 28.9062 -0.634766 27.1973 -2.34375 27.1973 -5.27344 L 27.1973 -36.1328 C 27.1973 -39.0137 28.9062 -40.7227 31.8359 -40.7227 L 36.0352 -40.7227 C 39.0137 -40.7227 40.6738 -39.0137 40.6738 -36.1328 L 40.6738 -5.27344 C 40.6738 -2.34375 39.0137 -0.634766 35.9863 -0.634766 Z"/>
  </g>
  <g id="Black-M" transform="matrix(1 0 0 1 2847.15 1126)">
   <path d="M 133.74 13.4277 L 141.357 13.4277 C 152.539 13.4277 160.059 6.25 160.059 -4.54102 L 160.059 -65.3809 C 160.059 -76.1719 152.539 -83.3496 141.357 -83.3496 L 133.74 -83.3496 C 122.51 -83.3496 114.99 -76.1719 114.99 -65.332 L 114.99 -4.54102 C 114.99 6.25 122.51 13.4277 133.74 13.4277 Z M 82.4707 13.4277 L 90.0879 13.4277 C 101.27 13.4277 108.789 6.25 108.789 -4.54102 L 108.789 -51.2207 C 108.789 -62.0117 101.27 -69.2383 90.0879 -69.2383 L 82.4707 -69.2383 C 71.2402 -69.2383 63.7207 -62.0117 63.7207 -51.1719 L 63.7207 -4.54102 C 63.7207 6.25 71.2402 13.4277 82.4707 13.4277 Z M 136.426 -1.9043 C 133.74 -1.9043 131.885 -3.71094 131.885 -6.34766 L 131.885 -63.5742 C 131.885 -66.2109 133.74 -68.0664 136.426 -68.0664 L 138.623 -68.0664 C 141.357 -68.0664 143.164 -66.2109 143.164 -63.5742 L 143.164 -6.34766 C 143.164 -3.71094 141.357 -1.9043 138.574 -1.9043 Z M 31.2012 13.4277 L 38.7695 13.4277 C 50 13.4277 57.5195 6.25 57.5195 -4.54102 L 57.5195 -36.7188 C 57.5195 -47.5098 50 -54.6875 38.7695 -54.6875 L 31.2012 -54.6875 C 19.9707 -54.6875 12.4512 -47.5098 12.4512 -36.6699 L 12.4512 -4.54102 C 12.4512 6.25 19.9707 13.4277 31.2012 13.4277 Z M 85.1562 -1.9043 C 82.4219 -1.9043 80.6152 -3.71094 80.6152 -6.34766 L 80.6152 -49.4141 C 80.6152 -52.0996 82.4219 -53.9062 85.1562 -53.9062 L 87.3535 -53.9062 C 90.0879 -53.9062 91.8945 -52.0996 91.8945 -49.4141 L 91.8945 -6.34766 C 91.8945 -3.71094 90.0879 -1.9043 87.3047 -1.9043 Z M 33.8867 -1.9043 C 31.1523 -1.9043 29.3457 -3.71094 29.3457 -6.34766 L 29.3457 -34.9121 C 29.3457 -37.5488 31.1523 -39.4043 33.8867 -39.4043 L 36.084 -39.4043 C 38.8184 -39.4043 40.625 -37.5488 40.625 -34.9121 L 40.625 -6.34766 C 40.625 -3.71094 38.8184 -1.9043 36.0352 -1.9043 Z"/>
  </g>
  <g id="Ultralight-L" transform="matrix(1 0 0 1 469.526 1556)">
   <path d="M 135.01 22.6562 L 154.736 22.6562 C 161.084 22.6562 164.307 19.4336 164.307 12.6465 L 164.307 -81.1035 C 164.307 -87.8906 161.084 -91.1621 154.736 -91.1621 L 135.01 -91.1621 C 128.662 -91.1621 125.439 -87.8906 125.439 -81.1035 L 125.439 12.6465 C 125.439 19.4336 128.662 22.6562 135.01 22.6562 Z M 134.863 20.0684 C 130.273 20.0684 127.979 17.5781 127.979 12.8418 L 127.979 -81.2988 C 127.979 -86.0352 130.273 -88.5254 134.863 -88.5254 L 154.883 -88.5254 C 159.424 -88.5254 161.719 -86.0352 161.719 -81.2988 L 161.719 12.8418 C 161.719 17.5781 159.424 20.0684 154.883 20.0684 Z M 80.3711 22.6562 L 100.049 22.6562 C 106.396 22.6562 109.619 19.4336 109.619 12.6465 L 109.619 -63.0371 C 109.619 -69.8242 106.396 -73.0957 100.049 -73.0957 L 80.3711 -73.0957 C 73.9746 -73.0957 70.752 -69.8242 70.752 -63.0371 L 70.752 12.6465 C 70.752 19.4336 73.9746 22.6562 80.3711 22.6562 Z M 80.1758 20.0684 C 75.6348 20.0684 73.3398 17.5781 73.3398 12.8418 L 73.3398 -63.2324 C 73.3398 -67.9688 75.6348 -70.459 80.1758 -70.459 L 100.195 -70.459 C 104.785 -70.459 107.08 -67.9688 107.08 -63.2324 L 107.08 12.8418 C 107.08 17.5781 104.785 20.0684 100.195 20.0684 Z M 25.6836 22.6562 L 45.3613 22.6562 C 51.7578 22.6562 54.9805 19.4336 54.9805 12.6465 L 54.9805 -45.4102 C 54.9805 -52.1973 51.7578 -55.4688 45.3613 -55.4688 L 25.6836 -55.4688 C 19.2871 -55.4688 16.0645 -52.1973 16.0645 -45.4102 L 16.0645 12.6465 C 16.0645 19.4336 19.2871 22.6562 25.6836 22.6562 Z M 25.5371 20.0684 C 20.9473 20.0684 18.6523 17.5781 18.6523 12.8418 L 18.6523 -45.6055 C 18.6523 -50.3418 20.9473 -52.832 25.5371 -52.832 L 45.5078 -52.832 C 50.0977 -52.832 52.3926 -50.3418 52.3926 -45.6055 L 52.3926 12.8418 C 52.3926 17.5781 50.0977 20.0684 45.5078 20.0684 Z"/>
  </g>
  <g id="Thin-L" transform="matrix(1 0 0 1 765.162 1556)">
   <path d="M 136.719 22.9004 L 155.908 22.9004 C 162.891 22.9004 166.455 19.3848 166.455 12.1582 L 166.455 -80.9082 C 166.455 -88.1836 162.891 -91.6992 155.908 -91.6992 L 136.719 -91.6992 C 129.688 -91.6992 126.172 -88.1836 126.172 -80.9082 L 126.172 12.1582 C 126.172 19.3848 129.688 22.9004 136.719 22.9004 Z M 136.865 19.043 C 132.275 19.043 130.078 16.748 130.078 11.9629 L 130.078 -80.7129 C 130.078 -85.498 132.275 -87.793 136.865 -87.793 L 155.762 -87.793 C 160.352 -87.793 162.549 -85.498 162.549 -80.7129 L 162.549 11.9629 C 162.549 16.748 160.352 19.043 155.762 19.043 Z M 81.6406 22.9004 L 100.879 22.9004 C 107.861 22.9004 111.426 19.3848 111.426 12.1582 L 111.426 -62.793 C 111.426 -70.0195 107.861 -73.5352 100.879 -73.5352 L 81.6406 -73.5352 C 74.6582 -73.5352 71.1426 -70.0195 71.1426 -62.793 L 71.1426 12.1582 C 71.1426 19.3848 74.6582 22.9004 81.6406 22.9004 Z M 81.8359 19.043 C 77.2461 19.043 75.0488 16.748 75.0488 11.9629 L 75.0488 -62.5977 C 75.0488 -67.334 77.2461 -69.6777 81.8359 -69.6777 L 100.684 -69.6777 C 105.322 -69.6777 107.52 -67.334 107.52 -62.5977 L 107.52 11.9629 C 107.52 16.748 105.322 19.043 100.684 19.043 Z M 26.6113 22.9004 L 45.8496 22.9004 C 52.832 22.9004 56.3965 19.3848 56.3965 12.1582 L 56.3965 -45.0195 C 56.3965 -52.2949 52.832 -55.8105 45.8496 -55.8105 L 26.6113 -55.8105 C 19.6289 -55.8105 16.0645 -52.2949 16.0645 -45.0195 L 16.0645 12.1582 C 16.0645 19.3848 19.6289 22.9004 26.6113 22.9004 Z M 26.8066 19.043 C 22.2168 19.043 20.0195 16.748 20.0195 11.9629 L 20.0195 -44.873 C 20.0195 -49.6094 22.2168 -51.9531 26.8066 -51.9531 L 45.6543 -51.9531 C 50.293 -51.9531 52.4902 -49.6094 52.4902 -44.873 L 52.4902 11.9629 C 52.4902 16.748 50.293 19.043 45.6543 19.043 Z"/>
  </g>
  <g id="Light-L" transform="matrix(1 0 0 1 1059.75 1556)">
   <path d="M 139.99 23.3887 L 158.252 23.3887 C 166.455 23.3887 170.654 19.3359 170.654 11.2305 L 170.654 -80.5176 C 170.654 -88.6719 166.455 -92.7246 158.252 -92.7246 L 139.99 -92.7246 C 131.738 -92.7246 127.588 -88.6719 127.588 -80.5176 L 127.588 11.2305 C 127.588 19.3359 131.738 23.3887 139.99 23.3887 Z M 140.82 17.0898 C 136.084 17.0898 134.131 15.0391 134.131 10.3027 L 134.131 -79.6387 C 134.131 -84.375 136.084 -86.4258 140.82 -86.4258 L 157.422 -86.4258 C 162.109 -86.4258 164.111 -84.375 164.111 -79.6387 L 164.111 10.3027 C 164.111 15.0391 162.109 17.0898 157.422 17.0898 Z M 84.2285 23.3887 L 102.49 23.3887 C 110.693 23.3887 114.941 19.3359 114.941 11.2305 L 114.941 -62.3047 C 114.941 -70.4102 110.693 -74.4629 102.49 -74.4629 L 84.2285 -74.4629 C 76.0254 -74.4629 71.8262 -70.4102 71.8262 -62.3047 L 71.8262 11.2305 C 71.8262 19.3359 76.0254 23.3887 84.2285 23.3887 Z M 85.0586 17.0898 C 80.3711 17.0898 78.3691 15.0391 78.3691 10.3027 L 78.3691 -61.377 C 78.3691 -66.1133 80.3711 -68.1641 85.0586 -68.1641 L 101.66 -68.1641 C 106.396 -68.1641 108.35 -66.1133 108.35 -61.377 L 108.35 10.3027 C 108.35 15.0391 106.396 17.0898 101.66 17.0898 Z M 28.4668 23.3887 L 46.7285 23.3887 C 54.9805 23.3887 59.1797 19.3359 59.1797 11.2305 L 59.1797 -44.2871 C 59.1797 -52.4414 54.9805 -56.4941 46.7285 -56.4941 L 28.4668 -56.4941 C 20.2637 -56.4941 16.0645 -52.4414 16.0645 -44.2871 L 16.0645 11.2305 C 16.0645 19.3359 20.2637 23.3887 28.4668 23.3887 Z M 29.3457 17.0898 C 24.6094 17.0898 22.6562 15.0391 22.6562 10.3027 L 22.6562 -43.4082 C 22.6562 -48.1445 24.6094 -50.1953 29.3457 -50.1953 L 45.9473 -50.1953 C 50.6348 -50.1953 52.6367 -48.1445 52.6367 -43.4082 L 52.6367 10.3027 C 52.6367 15.0391 50.6348 17.0898 45.9473 17.0898 Z"/>
  </g>
  <g id="Regular-L" transform="matrix(1 0 0 1 1354.87 1556)">
   <path d="M 142.432 23.7793 L 159.961 23.7793 C 169.141 23.7793 173.828 19.3359 173.828 10.498 L 173.828 -80.2246 C 173.828 -89.0625 169.141 -93.5059 159.961 -93.5059 L 142.432 -93.5059 C 133.301 -93.5059 128.662 -89.0625 128.662 -80.2246 L 128.662 10.498 C 128.662 19.3359 133.301 23.7793 142.432 23.7793 Z M 143.799 15.625 C 139.014 15.625 137.207 13.8184 137.207 9.08203 L 137.207 -78.8086 C 137.207 -83.5449 139.014 -85.3516 143.799 -85.3516 L 158.691 -85.3516 C 163.477 -85.3516 165.283 -83.5449 165.283 -78.8086 L 165.283 9.08203 C 165.283 13.8184 163.477 15.625 158.691 15.625 Z M 86.1816 23.7793 L 103.711 23.7793 C 112.842 23.7793 117.578 19.3359 117.578 10.498 L 117.578 -61.9141 C 117.578 -70.7031 112.842 -75.1953 103.711 -75.1953 L 86.1816 -75.1953 C 77.002 -75.1953 72.3633 -70.7031 72.3633 -61.9141 L 72.3633 10.498 C 72.3633 19.3359 77.002 23.7793 86.1816 23.7793 Z M 87.5 15.625 C 82.7148 15.625 80.9082 13.8184 80.9082 9.08203 L 80.9082 -60.4492 C 80.9082 -65.1855 82.7148 -67.041 87.5 -67.041 L 102.441 -67.041 C 107.227 -67.041 109.033 -65.1855 109.033 -60.4492 L 109.033 9.08203 C 109.033 13.8184 107.227 15.625 102.441 15.625 Z M 29.8828 23.7793 L 47.4121 23.7793 C 56.5918 23.7793 61.2793 19.3359 61.2793 10.498 L 61.2793 -43.7012 C 61.2793 -52.5391 56.5918 -56.9824 47.4121 -56.9824 L 29.8828 -56.9824 C 20.752 -56.9824 16.0645 -52.5391 16.0645 -43.7012 L 16.0645 10.498 C 16.0645 19.3359 20.752 23.7793 29.8828 23.7793 Z M 31.2012 15.625 C 26.4648 15.625 24.6582 13.8184 24.6582 9.08203 L 24.6582 -42.2852 C 24.6582 -47.0215 26.4648 -48.8281 31.2012 -48.8281 L 46.1426 -48.8281 C 50.9277 -48.8281 52.7344 -47.0215 52.7344 -42.2852 L 52.7344 9.08203 C 52.7344 13.8184 50.9277 15.625 46.1426 15.625 Z"/>
  </g>
  <g id="Medium-L" transform="matrix(1 0 0 1 1649.36 1556)">
   <path d="M 146.533 24.3164 L 162.988 24.3164 C 172.9 24.3164 178.271 19.1895 178.271 9.66797 L 178.271 -79.4434 C 178.271 -88.9648 172.9 -94.0918 162.988 -94.0918 L 146.533 -94.0918 C 136.621 -94.0918 131.25 -88.9648 131.25 -79.4434 L 131.25 9.66797 C 131.25 19.1895 136.621 24.3164 146.533 24.3164 Z M 148.145 14.502 C 143.555 14.502 141.65 12.6465 141.65 8.05664 L 141.65 -77.832 C 141.65 -82.4219 143.555 -84.2773 148.145 -84.2773 L 161.377 -84.2773 C 166.016 -84.2773 167.871 -82.4219 167.871 -77.832 L 167.871 8.05664 C 167.871 12.6465 166.016 14.502 161.377 14.502 Z M 88.916 24.3164 L 105.42 24.3164 C 115.332 24.3164 120.703 19.1895 120.703 9.66797 L 120.703 -61.084 C 120.703 -70.6543 115.332 -75.7324 105.42 -75.7324 L 88.916 -75.7324 C 79.0039 -75.7324 73.6816 -70.6543 73.6816 -61.084 L 73.6816 9.66797 C 73.6816 19.1895 79.0039 24.3164 88.916 24.3164 Z M 90.5762 14.502 C 85.9375 14.502 84.082 12.6465 84.082 8.05664 L 84.082 -59.5215 C 84.082 -64.0625 85.9375 -65.9668 90.5762 -65.9668 L 103.809 -65.9668 C 108.447 -65.9668 110.303 -64.0625 110.303 -59.5215 L 110.303 8.05664 C 110.303 12.6465 108.447 14.502 103.809 14.502 Z M 31.3477 24.3164 L 47.8027 24.3164 C 57.7148 24.3164 63.1348 19.1895 63.1348 9.66797 L 63.1348 -42.8223 C 63.1348 -52.3438 57.7148 -57.4707 47.8027 -57.4707 L 31.3477 -57.4707 C 21.4355 -57.4707 16.0645 -52.3438 16.0645 -42.8223 L 16.0645 9.66797 C 16.0645 19.1895 21.4355 24.3164 31.3477 24.3164 Z M 33.0078 14.502 C 28.3691 14.502 26.5137 12.6465 26.5137 8.05664 L 26.5137 -41.2109 C 26.5137 -45.8008 28.3691 -47.6562 33.0078 -47.6562 L 46.1914 -47.6562 C 50.8301 -47.6562 52.6855 -45.8008 52.6855 -41.2109 L 52.6855 8.05664 C 52.6855 12.6465 50.8301 14.502 46.1914 14.502 Z"/>
  </g>
  <g id="Semibold-L" transform="matrix(1 0 0 1 1944.37 1556)">
   <path d="M 149.609 24.707 L 165.283 24.707 C 175.781 24.707 181.689 19.0918 181.689 8.98438 L 181.689 -78.8086 C 181.689 -88.916 175.781 -94.5312 165.283 -94.5312 L 149.609 -94.5312 C 139.111 -94.5312 133.252 -88.916 133.252 -78.8086 L 133.252 8.98438 C 133.252 19.0918 139.111 24.707 149.609 24.707 Z M 151.514 13.623 C 147.021 13.623 145.117 11.7188 145.117 7.27539 L 145.117 -77.0996 C 145.117 -81.543 147.021 -83.4473 151.514 -83.4473 L 163.428 -83.4473 C 167.969 -83.4473 169.873 -81.543 169.873 -77.0996 L 169.873 7.27539 C 169.873 11.7188 167.969 13.623 163.428 13.623 Z M 91.0156 24.707 L 106.738 24.707 C 117.188 24.707 123.096 19.0918 123.096 8.98438 L 123.096 -60.498 C 123.096 -70.5566 117.188 -76.1719 106.738 -76.1719 L 91.0156 -76.1719 C 80.5176 -76.1719 74.6582 -70.5566 74.6582 -60.4492 L 74.6582 8.98438 C 74.6582 19.0918 80.5176 24.707 91.0156 24.707 Z M 92.9199 13.623 C 88.4277 13.623 86.5234 11.7188 86.5234 7.27539 L 86.5234 -58.7402 C 86.5234 -63.2324 88.4277 -65.1367 92.9199 -65.1367 L 104.834 -65.1367 C 109.375 -65.1367 111.279 -63.2324 111.279 -58.7402 L 111.279 7.27539 C 111.279 11.7188 109.375 13.623 104.834 13.623 Z M 32.4219 24.707 L 48.1445 24.707 C 58.5938 24.707 64.502 19.0918 64.502 8.98438 L 64.502 -42.1387 C 64.502 -52.2461 58.5938 -57.8125 48.1445 -57.8125 L 32.4219 -57.8125 C 21.9727 -57.8125 16.0645 -52.2461 16.0645 -42.1387 L 16.0645 8.98438 C 16.0645 19.0918 21.9727 24.707 32.4219 24.707 Z M 34.3262 13.623 C 29.834 13.623 27.9297 11.7188 27.9297 7.27539 L 27.9297 -40.4297 C 27.9297 -44.873 29.834 -46.7773 34.3262 -46.7773 L 46.2891 -46.7773 C 50.7812 -46.7773 52.6855 -44.873 52.6855 -40.4297 L 52.6855 7.27539 C 52.6855 11.7188 50.7812 13.623 46.2402 13.623 Z"/>
  </g>
  <g id="Bold-L" transform="matrix(1 0 0 1 2238.83 1556)">
   <path d="M 153.711 25.1953 L 168.359 25.1953 C 179.59 25.1953 186.182 18.9453 186.182 8.1543 L 186.182 -78.0273 C 186.182 -88.8184 179.59 -95.0684 168.359 -95.0684 L 153.711 -95.0684 C 142.48 -95.0684 135.889 -88.8184 135.889 -77.9785 L 135.889 8.1543 C 135.889 18.9453 142.48 25.1953 153.711 25.1953 Z M 155.957 12.5 C 151.611 12.5 149.658 10.5469 149.658 6.25 L 149.658 -76.123 C 149.658 -80.4199 151.611 -82.373 155.957 -82.373 L 166.162 -82.373 C 170.508 -82.373 172.461 -80.4199 172.461 -76.123 L 172.461 6.25 C 172.461 10.5469 170.508 12.5 166.113 12.5 Z M 93.7988 25.1953 L 108.447 25.1953 C 119.678 25.1953 126.27 18.9453 126.27 8.1543 L 126.27 -59.668 C 126.27 -70.459 119.678 -76.7578 108.447 -76.7578 L 93.7988 -76.7578 C 82.5684 -76.7578 75.9766 -70.459 75.9766 -59.668 L 75.9766 8.1543 C 75.9766 18.9453 82.5684 25.1953 93.7988 25.1953 Z M 96.0449 12.5 C 91.6992 12.5 89.7461 10.5469 89.7461 6.25 L 89.7461 -57.8125 C 89.7461 -62.0605 91.6992 -64.0137 96.0449 -64.0137 L 106.25 -64.0137 C 110.596 -64.0137 112.549 -62.0605 112.549 -57.8125 L 112.549 6.25 C 112.549 10.5469 110.596 12.5 106.201 12.5 Z M 33.8867 25.1953 L 48.5352 25.1953 C 59.7656 25.1953 66.3574 18.9453 66.3574 8.1543 L 66.3574 -41.2598 C 66.3574 -52.0508 59.7656 -58.3008 48.5352 -58.3008 L 33.8867 -58.3008 C 22.6562 -58.3008 16.0645 -52.0508 16.0645 -41.2109 L 16.0645 8.1543 C 16.0645 18.9453 22.6562 25.1953 33.8867 25.1953 Z M 36.1328 12.5 C 31.7871 12.5 29.834 10.5469 29.834 6.25 L 29.834 -39.3555 C 29.834 -43.6523 31.7871 -45.6055 36.1328 -45.6055 L 46.3379 -45.6055 C 50.6836 -45.6055 52.6367 -43.6523 52.6367 -39.3555 L 52.6367 6.25 C 52.6367 10.5469 50.6836 12.5 46.2891 12.5 Z"/>
  </g>
  <g id="Heavy-L" transform="matrix(1 0 0 1 2532.27 1556)">
   <path d="M 159.668 25.9277 L 172.754 25.9277 C 185.156 25.9277 192.725 18.75 192.725 6.88477 L 192.725 -76.8066 C 192.725 -88.6719 185.156 -95.8984 172.754 -95.8984 L 159.668 -95.8984 C 147.314 -95.8984 139.746 -88.6719 139.746 -76.7578 L 139.746 6.88477 C 139.746 18.75 147.314 25.9277 159.668 25.9277 Z M 162.354 10.8398 C 158.252 10.8398 156.201 8.78906 156.201 4.78516 L 156.201 -74.707 C 156.201 -78.7598 158.252 -80.7617 162.354 -80.7617 L 170.117 -80.7617 C 174.219 -80.7617 176.27 -78.7598 176.27 -74.707 L 176.27 4.78516 C 176.27 8.78906 174.219 10.8398 170.068 10.8398 Z M 97.8516 25.9277 L 110.938 25.9277 C 123.34 25.9277 130.908 18.75 130.908 6.88477 L 130.908 -58.4961 C 130.908 -70.3613 123.34 -77.5391 110.938 -77.5391 L 97.8516 -77.5391 C 85.4492 -77.5391 77.9297 -70.3613 77.9297 -58.4473 L 77.9297 6.88477 C 77.9297 18.75 85.4492 25.9277 97.8516 25.9277 Z M 100.537 10.8398 C 96.4355 10.8398 94.3848 8.78906 94.3848 4.78516 L 94.3848 -56.3965 C 94.3848 -60.4004 96.4355 -62.4512 100.537 -62.4512 L 108.301 -62.4512 C 112.402 -62.4512 114.453 -60.4004 114.453 -56.3965 L 114.453 4.78516 C 114.453 8.78906 112.402 10.8398 108.252 10.8398 Z M 36.0352 25.9277 L 49.1211 25.9277 C 61.4746 25.9277 69.0918 18.75 69.0918 6.88477 L 69.0918 -39.9414 C 69.0918 -51.8066 61.4746 -58.9844 49.1211 -58.9844 L 36.0352 -58.9844 C 23.6328 -58.9844 16.0645 -51.8066 16.0645 -39.8926 L 16.0645 6.88477 C 16.0645 18.75 23.6328 25.9277 36.0352 25.9277 Z M 38.7207 10.8398 C 34.5703 10.8398 32.5684 8.78906 32.5684 4.78516 L 32.5684 -37.8418 C 32.5684 -41.8457 34.5703 -43.8965 38.7207 -43.8965 L 46.4355 -43.8965 C 50.5859 -43.8965 52.5879 -41.8457 52.5879 -37.8418 L 52.5879 4.78516 C 52.5879 8.78906 50.5859 10.8398 46.3867 10.8398 Z"/>
  </g>
  <g id="Black-L" transform="matrix(1 0 0 1 2826.08 1556)">
   <path d="M 164.99 26.6113 L 176.709 26.6113 C 190.088 26.6113 198.584 18.5547 198.584 5.76172 L 198.584 -75.7812 C 198.584 -88.5254 190.088 -96.6309 176.709 -96.6309 L 164.99 -96.6309 C 151.611 -96.6309 143.164 -88.5254 143.164 -75.7324 L 143.164 5.76172 C 143.164 18.5547 151.611 26.6113 164.99 26.6113 Z M 168.115 9.32617 C 164.209 9.32617 162.061 7.27539 162.061 3.4668 L 162.061 -73.4375 C 162.061 -77.2461 164.209 -79.3457 168.115 -79.3457 L 173.633 -79.3457 C 177.539 -79.3457 179.639 -77.2461 179.639 -73.4375 L 179.639 3.4668 C 179.639 7.27539 177.539 9.32617 173.584 9.32617 Z M 101.465 26.6113 L 113.184 26.6113 C 126.562 26.6113 135.01 18.5547 135.01 5.76172 L 135.01 -57.4707 C 135.01 -70.2148 126.562 -78.2715 113.184 -78.2715 L 101.465 -78.2715 C 88.0859 -78.2715 79.6387 -70.2148 79.6387 -57.373 L 79.6387 5.76172 C 79.6387 18.5547 88.0859 26.6113 101.465 26.6113 Z M 104.541 9.32617 C 100.635 9.32617 98.5352 7.27539 98.5352 3.4668 L 98.5352 -55.127 C 98.5352 -58.9355 100.635 -61.0352 104.541 -61.0352 L 110.107 -61.0352 C 114.014 -61.0352 116.113 -58.9355 116.113 -55.127 L 116.113 3.4668 C 116.113 7.27539 114.014 9.32617 110.01 9.32617 Z M 37.8906 26.6113 L 49.6094 26.6113 C 62.9883 26.6113 71.4844 18.5547 71.4844 5.76172 L 71.4844 -38.7695 C 71.4844 -51.5625 62.9883 -59.6191 49.6094 -59.6191 L 37.8906 -59.6191 C 24.5117 -59.6191 16.0645 -51.5625 16.0645 -38.7207 L 16.0645 5.76172 C 16.0645 18.5547 24.5117 26.6113 37.8906 26.6113 Z M 41.0156 9.32617 C 37.1094 9.32617 35.0098 7.27539 35.0098 3.4668 L 35.0098 -36.4258 C 35.0098 -40.2344 37.1094 -42.334 41.0156 -42.334 L 46.5332 -42.334 C 50.4395 -42.334 52.5879 -40.2344 52.5879 -36.4258 L 52.5879 3.4668 C 52.5879 7.27539 50.4395 9.32617 46.4844 9.32617 Z"/>
  </g>
 </g>
</svg>
