<?xml version="1.0" encoding="UTF-8"?>
<!--Generator: Apple Native CoreSVG 123-->
<!DOCTYPE svg
PUBLIC "-//W3C//DTD SVG 1.1//EN"
       "http://www.w3.org/Graphics/SVG/1.1/DTD/svg11.dtd">
<svg version="1.1" xmlns="http://www.w3.org/2000/svg" xmlns:xlink="http://www.w3.org/1999/xlink" width="3300" height="2200">
 <!--glyph: "uni10018C.medium", point size: 100.000000, font version: "Version 15.0d4e20", template writer version: "2"-->
 <g id="Notes">
  <rect height="2200" id="artboard" style="fill:white;opacity:1" width="3300" x="0" y="0"/>
  <line id="" style="fill:none;stroke:black;opacity:1;stroke-width:0.5;" x1="263" x2="3036" y1="292" y2="292"/>
  <text style="stroke:none;fill:black;font-family:-apple-system,&quot;SF Pro Display&quot;,&quot;SF Pro Text&quot;,Helvetica,sans-serif;font-weight:bold;" transform="matrix(1 0 0 1 263 322)">Weight/Scale Variations</text>
  <text style="stroke:none;fill:black;font-family:-apple-system,&quot;SF Pro Display&quot;,&quot;SF Pro Text&quot;,Helvetica,sans-serif;text-anchor:middle;" transform="matrix(1 0 0 1 559.711 322)">Ultralight</text>
  <text style="stroke:none;fill:black;font-family:-apple-system,&quot;SF Pro Display&quot;,&quot;SF Pro Text&quot;,Helvetica,sans-serif;text-anchor:middle;" transform="matrix(1 0 0 1 856.422 322)">Thin</text>
  <text style="stroke:none;fill:black;font-family:-apple-system,&quot;SF Pro Display&quot;,&quot;SF Pro Text&quot;,Helvetica,sans-serif;text-anchor:middle;" transform="matrix(1 0 0 1 1153.13 322)">Light</text>
  <text style="stroke:none;fill:black;font-family:-apple-system,&quot;SF Pro Display&quot;,&quot;SF Pro Text&quot;,Helvetica,sans-serif;text-anchor:middle;" transform="matrix(1 0 0 1 1449.84 322)">Regular</text>
  <text style="stroke:none;fill:black;font-family:-apple-system,&quot;SF Pro Display&quot;,&quot;SF Pro Text&quot;,Helvetica,sans-serif;text-anchor:middle;" transform="matrix(1 0 0 1 1746.56 322)">Medium</text>
  <text style="stroke:none;fill:black;font-family:-apple-system,&quot;SF Pro Display&quot;,&quot;SF Pro Text&quot;,Helvetica,sans-serif;text-anchor:middle;" transform="matrix(1 0 0 1 2043.27 322)">Semibold</text>
  <text style="stroke:none;fill:black;font-family:-apple-system,&quot;SF Pro Display&quot;,&quot;SF Pro Text&quot;,Helvetica,sans-serif;text-anchor:middle;" transform="matrix(1 0 0 1 2339.98 322)">Bold</text>
  <text style="stroke:none;fill:black;font-family:-apple-system,&quot;SF Pro Display&quot;,&quot;SF Pro Text&quot;,Helvetica,sans-serif;text-anchor:middle;" transform="matrix(1 0 0 1 2636.69 322)">Heavy</text>
  <text style="stroke:none;fill:black;font-family:-apple-system,&quot;SF Pro Display&quot;,&quot;SF Pro Text&quot;,Helvetica,sans-serif;text-anchor:middle;" transform="matrix(1 0 0 1 2933.4 322)">Black</text>
  <line id="" style="fill:none;stroke:black;opacity:1;stroke-width:0.5;" x1="263" x2="3036" y1="1903" y2="1903"/>
  <g id="" transform="matrix(1 0 0 1 263 1933)">
   <path d="M 9.24805 0.830078 C 13.5547 0.830078 17.1387 -2.74414 17.1387 -7.05078 C 17.1387 -11.3574 13.5449 -14.9316 9.23828 -14.9316 C 4.94141 -14.9316 1.36719 -11.3574 1.36719 -7.05078 C 1.36719 -2.74414 4.95117 0.830078 9.24805 0.830078 Z M 9.24805 -0.654297 C 5.70312 -0.654297 2.87109 -3.49609 2.87109 -7.05078 C 2.87109 -10.6055 5.69336 -13.4473 9.23828 -13.4473 C 12.793 -13.4473 15.6348 -10.6055 15.6445 -7.05078 C 15.6543 -3.49609 12.8027 -0.654297 9.24805 -0.654297 Z M 9.22852 -3.42773 C 9.69727 -3.42773 9.9707 -3.74023 9.9707 -4.25781 L 9.9707 -6.31836 L 12.1973 -6.31836 C 12.6953 -6.31836 13.0371 -6.57227 13.0371 -7.04102 C 13.0371 -7.51953 12.7148 -7.7832 12.1973 -7.7832 L 9.9707 -7.7832 L 9.9707 -10.0098 C 9.9707 -10.5273 9.69727 -10.8496 9.22852 -10.8496 C 8.75977 -10.8496 8.50586 -10.5078 8.50586 -10.0098 L 8.50586 -7.7832 L 6.29883 -7.7832 C 5.78125 -7.7832 5.44922 -7.51953 5.44922 -7.04102 C 5.44922 -6.57227 5.80078 -6.31836 6.29883 -6.31836 L 8.50586 -6.31836 L 8.50586 -4.25781 C 8.50586 -3.75977 8.75977 -3.42773 9.22852 -3.42773 Z"/>
  </g>
  <g id="" transform="matrix(1 0 0 1 281.506 1933)">
   <path d="M 11.709 2.91016 C 17.1484 2.91016 21.6699 -1.60156 21.6699 -7.05078 C 21.6699 -12.4902 17.1387 -17.0117 11.6992 -17.0117 C 6.25 -17.0117 1.74805 -12.4902 1.74805 -7.05078 C 1.74805 -1.60156 6.25977 2.91016 11.709 2.91016 Z M 11.709 1.25 C 7.09961 1.25 3.41797 -2.44141 3.41797 -7.05078 C 3.41797 -11.6504 7.08984 -15.3516 11.6992 -15.3516 C 16.2988 -15.3516 20 -11.6504 20.0098 -7.05078 C 20.0195 -2.44141 16.3086 1.25 11.709 1.25 Z M 11.6797 -2.41211 C 12.207 -2.41211 12.5195 -2.77344 12.5195 -3.33984 L 12.5195 -6.23047 L 15.5762 -6.23047 C 16.123 -6.23047 16.5039 -6.51367 16.5039 -7.03125 C 16.5039 -7.55859 16.1426 -7.86133 15.5762 -7.86133 L 12.5195 -7.86133 L 12.5195 -10.9277 C 12.5195 -11.5039 12.207 -11.8555 11.6797 -11.8555 C 11.1621 -11.8555 10.8789 -11.4844 10.8789 -10.9277 L 10.8789 -7.86133 L 7.83203 -7.86133 C 7.25586 -7.86133 6.89453 -7.55859 6.89453 -7.03125 C 6.89453 -6.51367 7.28516 -6.23047 7.83203 -6.23047 L 10.8789 -6.23047 L 10.8789 -3.33984 C 10.8789 -2.79297 11.1621 -2.41211 11.6797 -2.41211 Z"/>
  </g>
  <g id="" transform="matrix(1 0 0 1 304.914 1933)">
   <path d="M 14.9707 5.67383 C 21.9336 5.67383 27.6855 -0.078125 27.6855 -7.04102 C 27.6855 -14.0039 21.9238 -19.7559 14.9609 -19.7559 C 7.99805 -19.7559 2.25586 -14.0039 2.25586 -7.04102 C 2.25586 -0.078125 8.00781 5.67383 14.9707 5.67383 Z M 14.9707 3.85742 C 8.92578 3.85742 4.08203 -1.00586 4.08203 -7.04102 C 4.08203 -13.0762 8.91602 -17.9395 14.9609 -17.9395 C 20.9961 -17.9395 25.8594 -13.0762 25.8691 -7.04102 C 25.8789 -1.00586 21.0059 3.85742 14.9707 3.85742 Z M 14.9414 -1.06445 C 15.5176 -1.06445 15.8594 -1.45508 15.8594 -2.06055 L 15.8594 -6.13281 L 20.0977 -6.13281 C 20.6934 -6.13281 21.1133 -6.46484 21.1133 -7.02148 C 21.1133 -7.59766 20.7227 -7.93945 20.0977 -7.93945 L 15.8594 -7.93945 L 15.8594 -12.1875 C 15.8594 -12.8027 15.5176 -13.1934 14.9414 -13.1934 C 14.3848 -13.1934 14.0625 -12.7832 14.0625 -12.1875 L 14.0625 -7.93945 L 9.82422 -7.93945 C 9.20898 -7.93945 8.80859 -7.59766 8.80859 -7.02148 C 8.80859 -6.46484 9.23828 -6.13281 9.82422 -6.13281 L 14.0625 -6.13281 L 14.0625 -2.06055 C 14.0625 -1.47461 14.3848 -1.06445 14.9414 -1.06445 Z"/>
  </g>
  <text style="stroke:none;fill:black;font-family:-apple-system,&quot;SF Pro Display&quot;,&quot;SF Pro Text&quot;,Helvetica,sans-serif;font-weight:bold;" transform="matrix(1 0 0 1 263 1953)">Design Variations</text>
  <text style="stroke:none;fill:black;font-family:-apple-system,&quot;SF Pro Display&quot;,&quot;SF Pro Text&quot;,Helvetica,sans-serif;" transform="matrix(1 0 0 1 263 1971)">Symbols are supported in up to nine weights and three scales.</text>
  <text style="stroke:none;fill:black;font-family:-apple-system,&quot;SF Pro Display&quot;,&quot;SF Pro Text&quot;,Helvetica,sans-serif;" transform="matrix(1 0 0 1 263 1989)">For optimal layout with text and other symbols, vertically align</text>
  <text style="stroke:none;fill:black;font-family:-apple-system,&quot;SF Pro Display&quot;,&quot;SF Pro Text&quot;,Helvetica,sans-serif;" transform="matrix(1 0 0 1 263 2007)">symbols with the adjacent text.</text>
  <rect height="14" id="" style="fill:#00AEEF;stroke:none;opacity:0.4;" width="3" x="776" y="1919"/>
  <g id="" transform="matrix(1 0 0 1 779 1933)">
   <path d="M 10.5273 0 L 12.373 0 L 7.17773 -14.0918 L 5.43945 -14.0918 L 0.244141 0 L 2.08984 0 L 3.50586 -4.0332 L 9.11133 -4.0332 Z M 6.2793 -11.9531 L 6.33789 -11.9531 L 8.59375 -5.52734 L 4.02344 -5.52734 Z"/>
  </g>
  <rect height="14" id="" style="fill:#00AEEF;stroke:none;opacity:0.4;" width="3" x="791.617" y="1919"/>
  <text style="stroke:none;fill:black;font-family:-apple-system,&quot;SF Pro Display&quot;,&quot;SF Pro Text&quot;,Helvetica,sans-serif;font-weight:bold;" transform="matrix(1 0 0 1 776 1953)">Side Bearings</text>
  <text style="stroke:none;fill:black;font-family:-apple-system,&quot;SF Pro Display&quot;,&quot;SF Pro Text&quot;,Helvetica,sans-serif;" transform="matrix(1 0 0 1 776 1971)">Horizontal padding on the left and right side of each symbol</text>
  <text style="stroke:none;fill:black;font-family:-apple-system,&quot;SF Pro Display&quot;,&quot;SF Pro Text&quot;,Helvetica,sans-serif;" transform="matrix(1 0 0 1 776 1989)">can be adjusted by modifying the width of the blue rectangles.</text>
  <text style="stroke:none;fill:black;font-family:-apple-system,&quot;SF Pro Display&quot;,&quot;SF Pro Text&quot;,Helvetica,sans-serif;" transform="matrix(1 0 0 1 776 2007)">Modifications are automatically applied proportionally to all</text>
  <text style="stroke:none;fill:black;font-family:-apple-system,&quot;SF Pro Display&quot;,&quot;SF Pro Text&quot;,Helvetica,sans-serif;" transform="matrix(1 0 0 1 776 2025)">scales and weights.</text>
  <g id="" transform="matrix(1 0 0 1 1289 1933)">
   <path d="M 2.96875 2.35352 L 3.80859 3.19336 C 4.84375 4.22852 6.12305 4.15039 7.19727 2.97852 L 16.1621 -6.82617 C 16.5527 -6.74805 16.9629 -6.8457 17.4902 -7.02148 C 18.1738 -7.25586 18.2715 -7.25586 18.3887 -7.13867 C 18.5352 -7.01172 18.4863 -6.89453 18.2422 -6.25 C 17.8809 -5.33203 17.8125 -4.79492 18.5547 -4.02344 L 19.4238 -3.13477 C 20.2734 -2.24609 21.3281 -2.26562 22.2168 -3.14453 L 25.0586 -5.97656 C 25.9473 -6.86523 25.957 -7.92969 25.0781 -8.7793 L 24.1797 -9.64844 C 23.4082 -10.4004 22.8711 -10.3516 21.9629 -9.98047 C 21.3184 -9.72656 21.2012 -9.6875 21.0645 -9.81445 C 20.9375 -9.93164 20.9473 -10.0391 21.1816 -10.7129 C 21.5332 -11.6895 21.5723 -12.2852 20.752 -13.0957 L 19.3359 -14.5117 C 15.1953 -18.6133 11.2305 -18.7402 7.65625 -15.4395 C 7.08008 -14.9023 6.99219 -14.1504 7.53906 -13.6133 L 7.79297 -13.3594 C 8.22266 -12.9297 8.86719 -12.8418 9.41406 -13.1152 C 11.0645 -13.9453 12.2559 -14.0234 13.457 -12.9785 L 13.0273 -11.416 C 12.8516 -10.8008 12.793 -10.3418 12.9199 -9.93164 L 3.18359 -1.04492 C 2.02148 0.0292969 1.93359 1.32812 2.96875 2.35352 Z M 8.96484 -14.4922 C 8.89648 -14.5703 8.86719 -14.6582 8.99414 -14.7559 C 11.709 -17.2852 15.0391 -16.8457 18.3496 -13.5254 L 19.6973 -12.168 C 20.0879 -11.7773 20.0977 -11.582 19.8828 -10.8691 C 19.6582 -10.127 19.502 -9.53125 20.1465 -8.88672 C 20.8105 -8.22266 21.2891 -8.41797 22.207 -8.63281 C 22.9004 -8.79883 23.0664 -8.79883 23.4473 -8.41797 L 24.0918 -7.77344 C 24.4043 -7.48047 24.4141 -7.32422 24.0723 -6.97266 L 21.2207 -4.13086 C 20.8887 -3.79883 20.7227 -3.79883 20.4297 -4.10156 L 19.7852 -4.75586 C 19.4141 -5.13672 19.4141 -5.30273 19.5801 -6.01562 C 19.7852 -6.88477 19.9805 -7.38281 19.3262 -8.04688 C 18.6719 -8.7207 18.0762 -8.57422 17.3438 -8.33008 C 16.5625 -8.06641 16.3281 -8.06641 15.8984 -8.49609 L 14.6094 -9.78516 C 14.1699 -10.2246 14.1309 -10.4395 14.2676 -10.9082 L 15.0293 -13.3984 C 13.3887 -15.2832 11.4941 -15.5566 9.20898 -14.4434 C 9.11133 -14.3945 9.04297 -14.4141 8.96484 -14.4922 Z M 3.96484 1.36719 C 3.52539 0.927734 3.54492 0.537109 4.14062 -0.00976562 L 13.7402 -8.81836 L 15 -7.55859 L 6.17188 2.02148 C 5.625 2.60742 5.24414 2.64648 4.79492 2.19727 Z"/>
  </g>
  <text style="stroke:none;fill:black;font-family:-apple-system,&quot;SF Pro Display&quot;,&quot;SF Pro Text&quot;,Helvetica,sans-serif;font-weight:bold;" transform="matrix(1 0 0 1 1289 1953)">Exporting</text>
  <text style="stroke:none;fill:black;font-family:-apple-system,&quot;SF Pro Display&quot;,&quot;SF Pro Text&quot;,Helvetica,sans-serif;" transform="matrix(1 0 0 1 1289 1971)">Symbols should be outlined when exporting to ensure the</text>
  <text style="stroke:none;fill:black;font-family:-apple-system,&quot;SF Pro Display&quot;,&quot;SF Pro Text&quot;,Helvetica,sans-serif;" transform="matrix(1 0 0 1 1289 1989)">design is preserved when submitting to Xcode.</text>
  <text id="template-version" style="stroke:none;fill:black;font-family:-apple-system,&quot;SF Pro Display&quot;,&quot;SF Pro Text&quot;,Helvetica,sans-serif;text-anchor:end;" transform="matrix(1 0 0 1 3036 1933)">Template v.0.1</text>
  <text style="stroke:none;fill:black;font-family:-apple-system,&quot;SF Pro Display&quot;,&quot;SF Pro Text&quot;,Helvetica,sans-serif;text-anchor:end;" transform="matrix(1 0 0 1 3036 1951)">Generated from chevron.right.2</text>
  <text style="stroke:none;fill:black;font-family:-apple-system,&quot;SF Pro Display&quot;,&quot;SF Pro Text&quot;,Helvetica,sans-serif;text-anchor:end;" transform="matrix(1 0 0 1 3036 1969)">Typeset at 100 points</text>
  <text style="stroke:none;fill:black;font-family:-apple-system,&quot;SF Pro Display&quot;,&quot;SF Pro Text&quot;,Helvetica,sans-serif;" transform="matrix(1 0 0 1 263 726)">Small</text>
  <text style="stroke:none;fill:black;font-family:-apple-system,&quot;SF Pro Display&quot;,&quot;SF Pro Text&quot;,Helvetica,sans-serif;" transform="matrix(1 0 0 1 263 1156)">Medium</text>
  <text style="stroke:none;fill:black;font-family:-apple-system,&quot;SF Pro Display&quot;,&quot;SF Pro Text&quot;,Helvetica,sans-serif;" transform="matrix(1 0 0 1 263 1586)">Large</text>
 </g>
 <g id="Guides">
  <g id="H-reference" style="fill:#27AAE1;stroke:none;" transform="matrix(1 0 0 1 339 696)">
   <path d="M 54.9316 0 L 57.666 0 L 30.5664 -70.459 L 28.0762 -70.459 L 0.976562 0 L 3.66211 0 L 12.9395 -24.4629 L 45.7031 -24.4629 Z M 29.1992 -67.0898 L 29.4434 -67.0898 L 44.8242 -26.709 L 13.8184 -26.709 Z"/>
  </g>
  <line id="Baseline-S" style="fill:none;stroke:#27AAE1;opacity:1;stroke-width:0.577;" x1="263" x2="3036" y1="696" y2="696"/>
  <line id="Capline-S" style="fill:none;stroke:#27AAE1;opacity:1;stroke-width:0.577;" x1="263" x2="3036" y1="625.541" y2="625.541"/>
  <g id="H-reference" style="fill:#27AAE1;stroke:none;" transform="matrix(1 0 0 1 339 1126)">
   <path d="M 54.9316 0 L 57.666 0 L 30.5664 -70.459 L 28.0762 -70.459 L 0.976562 0 L 3.66211 0 L 12.9395 -24.4629 L 45.7031 -24.4629 Z M 29.1992 -67.0898 L 29.4434 -67.0898 L 44.8242 -26.709 L 13.8184 -26.709 Z"/>
  </g>
  <line id="Baseline-M" style="fill:none;stroke:#27AAE1;opacity:1;stroke-width:0.577;" x1="263" x2="3036" y1="1126" y2="1126"/>
  <line id="Capline-M" style="fill:none;stroke:#27AAE1;opacity:1;stroke-width:0.577;" x1="263" x2="3036" y1="1055.54" y2="1055.54"/>
  <g id="H-reference" style="fill:#27AAE1;stroke:none;" transform="matrix(1 0 0 1 339 1556)">
   <path d="M 54.9316 0 L 57.666 0 L 30.5664 -70.459 L 28.0762 -70.459 L 0.976562 0 L 3.66211 0 L 12.9395 -24.4629 L 45.7031 -24.4629 Z M 29.1992 -67.0898 L 29.4434 -67.0898 L 44.8242 -26.709 L 13.8184 -26.709 Z"/>
  </g>
  <line id="Baseline-L" style="fill:none;stroke:#27AAE1;opacity:1;stroke-width:0.577;" x1="263" x2="3036" y1="1556" y2="1556"/>
  <line id="Capline-L" style="fill:none;stroke:#27AAE1;opacity:1;stroke-width:0.577;" x1="263" x2="3036" y1="1485.54" y2="1485.54"/>
  <rect height="119.336" id="left-margin" style="fill:#00AEEF;stroke:none;opacity:0.4;" width="12.4512" x="1391.69" y="1030.79"/>
  <rect height="119.336" id="right-margin" style="fill:#00AEEF;stroke:none;opacity:0.4;" width="12.4512" x="1495.55" y="1030.79"/>
 </g>
 <g id="Symbols">
  <g id="Ultralight-S" transform="matrix(1 0 0 1 516.108 696)">
   <path d="M 45.0684 -5.76172 C 45.4102 -5.76172 45.6543 -5.95703 45.8984 -6.20117 L 76.8066 -34.082 C 77.1973 -34.4727 77.4414 -34.7656 77.4414 -35.2539 C 77.4414 -35.7422 77.1484 -36.084 76.7578 -36.4746 L 45.8496 -64.4043 C 45.6055 -64.6484 45.4102 -64.7949 45.0684 -64.7949 C 44.4336 -64.7949 43.9453 -64.3066 43.9453 -63.6719 C 43.9453 -63.3789 43.9941 -63.0371 44.2383 -62.8418 L 74.6582 -35.3027 L 44.2383 -7.66602 C 43.9941 -7.51953 43.9453 -7.17773 43.9453 -6.88477 C 43.9453 -6.25 44.4336 -5.76172 45.0684 -5.76172 Z M 10.8887 -5.76172 C 11.2305 -5.76172 11.4746 -5.95703 11.7188 -6.20117 L 42.627 -34.082 C 43.0176 -34.4727 43.2617 -34.7656 43.2617 -35.2539 C 43.2617 -35.7422 42.9688 -36.084 42.5781 -36.4746 L 11.6699 -64.4043 C 11.4258 -64.6484 11.2305 -64.7949 10.8887 -64.7949 C 10.2539 -64.7949 9.76562 -64.3066 9.76562 -63.6719 C 9.76562 -63.3789 9.81445 -63.0371 10.0586 -62.8418 L 40.4785 -35.3027 L 10.0586 -7.66602 C 9.81445 -7.51953 9.76562 -7.17773 9.76562 -6.88477 C 9.76562 -6.25 10.2539 -5.76172 10.8887 -5.76172 Z"/>
  </g>
  <g id="Thin-S" transform="matrix(1 0 0 1 812.282 696)">
   <path d="M 45.752 -4.73633 C 46.2402 -4.73633 46.6309 -4.98047 47.0215 -5.32227 L 77.7832 -33.6914 C 78.2227 -34.1797 78.5156 -34.6191 78.5156 -35.2539 C 78.5156 -35.8887 78.2227 -36.4258 77.7344 -36.8652 L 46.9727 -65.2344 C 46.6309 -65.5762 46.2402 -65.8203 45.752 -65.8203 C 44.7266 -65.8203 43.9453 -65.0391 43.9453 -64.0137 C 43.9453 -63.5742 44.0918 -63.0859 44.4336 -62.7441 L 74.1211 -35.3027 L 44.4336 -7.76367 C 44.0918 -7.4707 43.9453 -6.98242 43.9453 -6.49414 C 43.9453 -5.51758 44.7266 -4.73633 45.752 -4.73633 Z M 11.5723 -4.73633 C 12.0605 -4.73633 12.4512 -4.98047 12.8418 -5.32227 L 43.6035 -33.6914 C 44.043 -34.1797 44.3359 -34.6191 44.3359 -35.2539 C 44.3359 -35.8887 44.043 -36.4258 43.5547 -36.8652 L 12.793 -65.2344 C 12.4512 -65.5762 12.0605 -65.8203 11.5723 -65.8203 C 10.5469 -65.8203 9.76562 -65.0391 9.76562 -64.0137 C 9.76562 -63.5742 9.91211 -63.0859 10.2539 -62.7441 L 39.9414 -35.3027 L 10.2539 -7.76367 C 9.91211 -7.4707 9.76562 -6.98242 9.76562 -6.49414 C 9.76562 -5.51758 10.5469 -4.73633 11.5723 -4.73633 Z"/>
  </g>
  <g id="Light-S" transform="matrix(1 0 0 1 1107.92 696)">
   <path d="M 47.0215 -2.73438 C 47.8516 -2.73438 48.584 -3.07617 49.1699 -3.66211 L 79.5898 -32.959 C 80.2734 -33.5938 80.6641 -34.375 80.6641 -35.2539 C 80.6641 -36.1328 80.2734 -36.9629 79.5898 -37.5977 L 49.1699 -66.8945 C 48.584 -67.4805 47.8516 -67.8223 47.0215 -67.8223 C 45.2637 -67.8223 43.9453 -66.5039 43.9453 -64.7461 C 43.9453 -63.916 44.2871 -63.1348 44.8242 -62.5488 L 73.1445 -35.2539 L 44.8242 -7.95898 C 44.2871 -7.37305 43.9453 -6.64062 43.9453 -5.76172 C 43.9453 -4.05273 45.2637 -2.73438 47.0215 -2.73438 Z M 12.8418 -2.73438 C 13.6719 -2.73438 14.4043 -3.07617 14.9902 -3.66211 L 45.4102 -32.959 C 46.0938 -33.5938 46.4844 -34.375 46.4844 -35.2539 C 46.4844 -36.1328 46.0938 -36.9629 45.4102 -37.5977 L 14.9902 -66.8945 C 14.4043 -67.4805 13.6719 -67.8223 12.8418 -67.8223 C 11.084 -67.8223 9.76562 -66.5039 9.76562 -64.7461 C 9.76562 -63.916 10.1074 -63.1348 10.6445 -62.5488 L 38.9648 -35.2539 L 10.6445 -7.95898 C 10.1074 -7.37305 9.76562 -6.64062 9.76562 -5.76172 C 9.76562 -4.05273 11.084 -2.73438 12.8418 -2.73438 Z"/>
  </g>
  <g id="Regular-S" transform="matrix(1 0 0 1 1403.85 696)">
   <path d="M 47.998 -1.17188 C 49.1211 -1.17188 50.0977 -1.61133 50.8301 -2.39258 L 81.0059 -32.373 C 81.7871 -33.2031 82.2266 -34.1797 82.2266 -35.2539 C 82.2266 -36.3281 81.7871 -37.4023 81.0059 -38.1348 L 50.8301 -68.1641 C 50.0977 -68.8965 49.1211 -69.3359 47.998 -69.3359 C 45.7031 -69.3359 43.9453 -67.5781 43.9453 -65.2832 C 43.9453 -64.209 44.4336 -63.1836 45.1172 -62.4023 L 72.4121 -35.2539 L 45.1172 -8.10547 C 44.4336 -7.32422 43.9453 -6.34766 43.9453 -5.22461 C 43.9453 -2.92969 45.7031 -1.17188 47.998 -1.17188 Z M 13.8184 -1.17188 C 14.9414 -1.17188 15.918 -1.61133 16.6504 -2.39258 L 46.8262 -32.373 C 47.6074 -33.2031 48.0469 -34.1797 48.0469 -35.2539 C 48.0469 -36.3281 47.6074 -37.4023 46.8262 -38.1348 L 16.6504 -68.1641 C 15.918 -68.8965 14.9414 -69.3359 13.8184 -69.3359 C 11.5234 -69.3359 9.76562 -67.5781 9.76562 -65.2832 C 9.76562 -64.209 10.2539 -63.1836 10.9375 -62.4023 L 38.2324 -35.2539 L 10.9375 -8.10547 C 10.2539 -7.32422 9.76562 -6.34766 9.76562 -5.22461 C 9.76562 -2.92969 11.5234 -1.17188 13.8184 -1.17188 Z"/>
  </g>
  <g id="Medium-S" transform="matrix(1 0 0 1 1699.63 696)">
   <path d="M 49.1699 -0.488281 C 50.5859 -0.488281 51.8066 -1.02539 52.7832 -2.00195 L 82.3242 -31.25 C 83.5449 -32.4219 84.082 -33.7402 84.082 -35.2539 C 84.082 -36.7676 83.4961 -38.1348 82.3242 -39.2578 L 52.7832 -68.5059 C 51.8066 -69.4824 50.5859 -69.9707 49.1699 -69.9707 C 46.2402 -69.9707 43.9453 -67.7246 43.9453 -64.7949 C 43.9453 -63.4277 44.5312 -62.0605 45.5566 -61.0352 L 71.6797 -35.2539 L 45.5566 -9.47266 C 44.5312 -8.44727 43.9453 -7.12891 43.9453 -5.71289 C 43.9453 -2.7832 46.2402 -0.488281 49.1699 -0.488281 Z M 14.9902 -0.488281 C 16.4062 -0.488281 17.627 -1.02539 18.6035 -2.00195 L 48.1445 -31.25 C 49.3652 -32.4219 49.9023 -33.7402 49.9023 -35.2539 C 49.9023 -36.7676 49.3164 -38.1348 48.1445 -39.2578 L 18.6035 -68.5059 C 17.627 -69.4824 16.4062 -69.9707 14.9902 -69.9707 C 12.0605 -69.9707 9.76562 -67.7246 9.76562 -64.7949 C 9.76562 -63.4277 10.3516 -62.0605 11.377 -61.0352 L 37.5 -35.2539 L 11.377 -9.47266 C 10.3516 -8.44727 9.76562 -7.12891 9.76562 -5.71289 C 9.76562 -2.7832 12.0605 -0.488281 14.9902 -0.488281 Z"/>
  </g>
  <g id="Semibold-S" transform="matrix(1 0 0 1 1995.61 696)">
   <path d="M 50.0488 0 C 51.709 0 53.125 -0.585938 54.2969 -1.70898 L 83.3496 -30.3711 C 84.8145 -31.8848 85.5469 -33.3984 85.5469 -35.2539 C 85.498 -37.1094 84.8145 -38.7207 83.3008 -40.1367 L 54.2969 -68.7988 C 53.125 -69.9219 51.7578 -70.5078 50.0488 -70.5078 C 46.6797 -70.5078 43.9453 -67.8223 43.9453 -64.4531 C 43.9453 -62.793 44.6289 -61.2305 45.8984 -60.0098 L 71.0938 -35.3027 L 45.8984 -10.498 C 44.6777 -9.27734 43.9453 -7.76367 43.9453 -6.05469 C 43.9453 -2.68555 46.6797 0 50.0488 0 Z M 15.8691 0 C 17.5293 0 18.9453 -0.585938 20.1172 -1.70898 L 49.1699 -30.3711 C 50.6348 -31.8848 51.3672 -33.3984 51.3672 -35.2539 C 51.3184 -37.1094 50.6348 -38.7207 49.1211 -40.1367 L 20.1172 -68.7988 C 18.9453 -69.9219 17.5781 -70.5078 15.8691 -70.5078 C 12.5 -70.5078 9.76562 -67.8223 9.76562 -64.4531 C 9.76562 -62.793 10.4492 -61.2305 11.7188 -60.0098 L 36.9141 -35.3027 L 11.7188 -10.498 C 10.498 -9.27734 9.76562 -7.76367 9.76562 -6.05469 C 9.76562 -2.68555 12.5 0 15.8691 0 Z"/>
  </g>
  <g id="Bold-S" transform="matrix(1 0 0 1 2291.39 696)">
   <path d="M 51.2695 0.732422 C 53.2227 0.732422 54.8828 0.0488281 56.2988 -1.31836 L 84.668 -29.1992 C 86.5723 -31.1035 87.4023 -32.959 87.4023 -35.2539 C 87.3535 -37.5977 86.5234 -39.4043 84.668 -41.3086 L 56.2988 -69.1406 C 54.8828 -70.5566 53.2715 -71.1914 51.2695 -71.1914 C 47.2656 -71.1914 43.9453 -67.9199 43.9453 -63.9648 C 43.9453 -62.0117 44.7754 -60.1074 46.3379 -58.5938 L 70.3613 -35.3027 L 46.3379 -11.9141 C 44.7754 -10.4004 43.9453 -8.54492 43.9453 -6.49414 C 43.9453 -2.53906 47.2656 0.732422 51.2695 0.732422 Z M 17.0898 0.732422 C 19.043 0.732422 20.7031 0.0488281 22.1191 -1.31836 L 50.4883 -29.1992 C 52.3926 -31.1035 53.2227 -32.959 53.2227 -35.2539 C 53.1738 -37.5977 52.3438 -39.4043 50.4883 -41.3086 L 22.1191 -69.1406 C 20.7031 -70.5566 19.0918 -71.1914 17.0898 -71.1914 C 13.0859 -71.1914 9.76562 -67.9199 9.76562 -63.9648 C 9.76562 -62.0117 10.5957 -60.1074 12.1582 -58.5938 L 36.1816 -35.3027 L 12.1582 -11.9141 C 10.5957 -10.4004 9.76562 -8.54492 9.76562 -6.49414 C 9.76562 -2.53906 13.0859 0.732422 17.0898 0.732422 Z"/>
  </g>
  <g id="Heavy-S" transform="matrix(1 0 0 1 2586.74 696)">
   <path d="M 53.0273 1.70898 C 55.4199 1.70898 57.373 0.927734 59.1797 -0.78125 L 86.5723 -27.5391 C 89.0625 -30.0293 90.1367 -32.3242 90.1367 -35.2539 C 90.0879 -38.2324 89.0137 -40.4785 86.5723 -42.9688 L 59.1797 -69.6777 C 57.4219 -71.4355 55.4688 -72.168 53.0273 -72.168 C 48.0469 -72.168 43.9453 -68.1152 43.9453 -63.2812 C 43.9453 -60.791 44.9707 -58.4961 46.9727 -56.5918 L 69.3359 -35.3027 L 46.9727 -13.916 C 45.0195 -12.0117 43.9453 -9.7168 43.9453 -7.17773 C 43.9453 -2.34375 48.0469 1.70898 53.0273 1.70898 Z M 18.8477 1.70898 C 21.2402 1.70898 23.1934 0.927734 25 -0.78125 L 52.3926 -27.5391 C 54.8828 -30.0293 55.957 -32.3242 55.957 -35.2539 C 55.9082 -38.2324 54.834 -40.4785 52.3926 -42.9688 L 25 -69.6777 C 23.2422 -71.4355 21.2891 -72.168 18.8477 -72.168 C 13.8672 -72.168 9.76562 -68.1152 9.76562 -63.2812 C 9.76562 -60.791 10.791 -58.4961 12.793 -56.5918 L 35.1562 -35.3027 L 12.793 -13.916 C 10.8398 -12.0117 9.76562 -9.7168 9.76562 -7.17773 C 9.76562 -2.34375 13.8672 1.70898 18.8477 1.70898 Z"/>
  </g>
  <g id="Black-S" transform="matrix(1 0 0 1 2882.23 696)">
   <path d="M 54.5898 2.63672 C 57.373 2.63672 59.6191 1.70898 61.7188 -0.292969 L 88.2812 -26.0254 C 91.3086 -29.0527 92.5781 -31.7383 92.5781 -35.2539 C 92.4805 -38.8184 91.2598 -41.4551 88.2812 -44.4824 L 61.7188 -70.166 C 59.7168 -72.2168 57.4219 -73.0957 54.5898 -73.0957 C 48.8281 -73.0957 43.9453 -68.2617 43.9453 -62.6465 C 43.9453 -59.7656 45.1172 -57.0801 47.5586 -54.7852 L 68.4082 -35.3516 L 47.5586 -15.7227 C 45.166 -13.4277 43.9453 -10.7422 43.9453 -7.8125 C 43.9453 -2.19727 48.8281 2.63672 54.5898 2.63672 Z M 20.4102 2.63672 C 23.1934 2.63672 25.4395 1.70898 27.5391 -0.292969 L 54.1016 -26.0254 C 57.1289 -29.0527 58.3984 -31.7383 58.3984 -35.2539 C 58.3008 -38.8184 57.0801 -41.4551 54.1016 -44.4824 L 27.5391 -70.166 C 25.5371 -72.2168 23.2422 -73.0957 20.4102 -73.0957 C 14.6484 -73.0957 9.76562 -68.2617 9.76562 -62.6465 C 9.76562 -59.7656 10.9375 -57.0801 13.3789 -54.7852 L 34.2285 -35.3516 L 13.3789 -15.7227 C 10.9863 -13.4277 9.76562 -10.7422 9.76562 -7.8125 C 9.76562 -2.19727 14.6484 2.63672 20.4102 2.63672 Z"/>
  </g>
  <g id="Ultralight-M" transform="matrix(1 0 0 1 504.267 1126)">
   <path d="M 57.2754 1.95312 C 57.6172 1.95312 57.8613 1.70898 58.1543 1.51367 L 97.7051 -33.9355 C 98.1445 -34.375 98.4375 -34.7168 98.4375 -35.2539 C 98.4375 -35.791 98.0469 -36.2305 97.6562 -36.6699 L 58.1055 -72.1191 C 57.8125 -72.3633 57.6172 -72.5586 57.2754 -72.5586 C 56.6406 -72.5586 56.1035 -72.0215 56.1035 -71.3867 C 56.1035 -71.0938 56.1523 -70.7031 56.3965 -70.459 L 95.5078 -35.3027 L 56.3965 -0.0488281 C 56.1523 0.146484 56.1035 0.488281 56.1035 0.78125 C 56.1035 1.46484 56.6406 1.95312 57.2754 1.95312 Z M 13.6719 1.95312 C 14.0137 1.95312 14.2578 1.70898 14.5508 1.51367 L 54.0527 -33.9355 C 54.4922 -34.375 54.7852 -34.7168 54.7852 -35.2539 C 54.7852 -35.791 54.4434 -36.2305 54.0039 -36.6699 L 14.502 -72.1191 C 14.1602 -72.3633 14.0137 -72.5586 13.6719 -72.5586 C 12.9883 -72.5586 12.4512 -72.0215 12.4512 -71.3867 C 12.4512 -71.0938 12.5 -70.7031 12.7441 -70.459 L 51.9043 -35.3027 L 12.7441 -0.0488281 C 12.5 0.146484 12.4512 0.488281 12.4512 0.78125 C 12.4512 1.46484 12.9883 1.95312 13.6719 1.95312 Z"/>
  </g>
  <g id="Thin-M" transform="matrix(1 0 0 1 800.368 1126)">
   <path d="M 58.0078 3.125 C 58.5938 3.125 58.9844 2.83203 59.4238 2.49023 L 98.7793 -33.4961 C 99.3164 -34.0332 99.6582 -34.5703 99.6582 -35.2539 C 99.6582 -35.9863 99.2676 -36.5723 98.7305 -37.1094 L 59.375 -73.0957 C 58.9355 -73.4863 58.5938 -73.7305 58.0078 -73.7305 C 56.9336 -73.7305 56.1035 -72.8516 56.1035 -71.7773 C 56.1035 -71.2891 56.25 -70.752 56.5918 -70.3613 L 94.9219 -35.3027 L 56.5918 -0.146484 C 56.25 0.195312 56.1035 0.732422 56.1035 1.2207 C 56.1035 2.29492 56.9336 3.125 58.0078 3.125 Z M 14.4043 3.125 C 14.9414 3.125 15.3809 2.83203 15.8203 2.49023 L 55.127 -33.4961 C 55.6641 -34.0332 56.0547 -34.5703 56.0547 -35.2539 C 56.0547 -35.9863 55.6152 -36.5723 55.0781 -37.1094 L 15.7715 -73.0957 C 15.332 -73.4863 14.9414 -73.7305 14.4043 -73.7305 C 13.3301 -73.7305 12.4512 -72.8516 12.4512 -71.7773 C 12.4512 -71.2891 12.5977 -70.752 12.9883 -70.3613 L 51.2695 -35.3027 L 12.9883 -0.146484 C 12.5977 0.195312 12.4512 0.732422 12.4512 1.2207 C 12.4512 2.29492 13.3301 3.125 14.4043 3.125 Z"/>
  </g>
  <g id="Light-M" transform="matrix(1 0 0 1 1095.88 1126)">
   <path d="M 59.4727 5.41992 C 60.4004 5.41992 61.2305 5.0293 61.8652 4.39453 L 100.83 -32.6172 C 101.611 -33.3984 102.051 -34.2285 102.051 -35.2539 C 102.051 -36.2793 101.562 -37.207 100.83 -37.9395 L 61.8652 -74.9512 C 61.1816 -75.5859 60.4004 -75.9766 59.4727 -75.9766 C 57.5684 -75.9766 56.1035 -74.5117 56.1035 -72.6074 C 56.1035 -71.7285 56.4453 -70.8008 57.0312 -70.166 L 93.75 -35.3027 L 57.0312 -0.341797 C 56.4453 0.244141 56.1035 1.12305 56.1035 2.05078 C 56.1035 3.95508 57.5684 5.41992 59.4727 5.41992 Z M 15.8203 5.41992 C 16.7969 5.41992 17.5781 5.0293 18.2617 4.39453 L 57.2266 -32.6172 C 57.959 -33.3984 58.3984 -34.2285 58.3984 -35.2539 C 58.3984 -36.2793 57.959 -37.207 57.1777 -37.9395 L 18.2129 -74.9512 C 17.5781 -75.5859 16.7969 -75.9766 15.8203 -75.9766 C 13.916 -75.9766 12.4512 -74.5117 12.4512 -72.6074 C 12.4512 -71.7285 12.793 -70.8008 13.4277 -70.166 L 50.1465 -35.3027 L 13.4277 -0.341797 C 12.793 0.244141 12.4512 1.12305 12.4512 2.05078 C 12.4512 3.95508 13.916 5.41992 15.8203 5.41992 Z"/>
  </g>
  <g id="Regular-M" transform="matrix(1 0 0 1 1391.69 1126)">
   <path d="M 60.5469 7.12891 C 61.8164 7.12891 62.8906 6.64062 63.7207 5.81055 L 102.441 -31.9824 C 103.369 -32.9102 103.857 -34.0332 103.857 -35.2539 C 103.857 -36.5234 103.32 -37.7441 102.393 -38.5254 L 63.7207 -76.3672 C 62.8906 -77.1973 61.8164 -77.6855 60.5469 -77.6855 C 58.0078 -77.6855 56.1035 -75.7324 56.1035 -73.1934 C 56.1035 -72.0215 56.5918 -70.8496 57.373 -70.0195 L 92.9199 -35.2539 L 57.373 -0.488281 C 56.5918 0.341797 56.1035 1.46484 56.1035 2.68555 C 56.1035 5.22461 58.0078 7.12891 60.5469 7.12891 Z M 16.9434 7.12891 C 18.1641 7.12891 19.2871 6.64062 20.1172 5.81055 L 58.7891 -31.9824 C 59.7168 -32.9102 60.2051 -34.0332 60.2051 -35.2539 C 60.2051 -36.5234 59.7168 -37.7441 58.7891 -38.5254 L 20.1172 -76.3672 C 19.2383 -77.1973 18.1641 -77.6855 16.9434 -77.6855 C 14.4043 -77.6855 12.4512 -75.7324 12.4512 -73.1934 C 12.4512 -72.0215 12.9883 -70.8496 13.7695 -70.0195 L 49.2676 -35.2539 L 13.7695 -0.488281 C 12.9883 0.341797 12.4512 1.46484 12.4512 2.68555 C 12.4512 5.22461 14.4043 7.12891 16.9434 7.12891 Z"/>
  </g>
  <g id="Medium-M" transform="matrix(1 0 0 1 1687.33 1126)">
   <path d="M 61.9141 8.05664 C 63.4766 8.05664 64.8438 7.4707 65.9668 6.39648 L 103.955 -30.7617 C 105.322 -32.0801 105.957 -33.5449 105.957 -35.2539 C 105.957 -36.9629 105.273 -38.5254 103.955 -39.7949 L 65.9668 -76.9043 C 64.8438 -77.9785 63.5254 -78.5645 61.9141 -78.5645 C 58.6426 -78.5645 56.1035 -76.0254 56.1035 -72.8027 C 56.1035 -71.2402 56.7383 -69.7266 57.8613 -68.6035 L 92.0898 -35.3027 L 57.8613 -1.9043 C 56.7383 -0.78125 56.1035 0.683594 56.1035 2.29492 C 56.1035 5.51758 58.6426 8.05664 61.9141 8.05664 Z M 18.2617 8.05664 C 19.873 8.05664 21.2402 7.4707 22.3145 6.39648 L 60.3027 -30.7617 C 61.6699 -32.0801 62.3535 -33.5449 62.3535 -35.2539 C 62.3535 -36.9629 61.6699 -38.5254 60.3027 -39.7949 L 22.3145 -76.9043 C 21.2402 -77.9785 19.873 -78.5645 18.2617 -78.5645 C 15.0391 -78.5645 12.4512 -76.0254 12.4512 -72.8027 C 12.4512 -71.2402 13.1348 -69.7266 14.2578 -68.6035 L 48.4375 -35.3027 L 14.2578 -1.9043 C 13.1348 -0.78125 12.4512 0.683594 12.4512 2.29492 C 12.4512 5.51758 15.0391 8.05664 18.2617 8.05664 Z"/>
  </g>
  <g id="Semibold-M" transform="matrix(1 0 0 1 1983.23 1126)">
   <path d="M 62.9395 8.74023 C 64.7949 8.74023 66.3574 8.05664 67.6758 6.78711 L 105.127 -29.7852 C 106.787 -31.4453 107.568 -33.2031 107.568 -35.2539 C 107.568 -37.3535 106.787 -39.1113 105.127 -40.7227 L 67.6758 -77.3438 C 66.3574 -78.6133 64.7949 -79.248 62.9395 -79.248 C 59.1309 -79.248 56.1035 -76.2207 56.1035 -72.4609 C 56.1035 -70.6543 56.8359 -68.8965 58.252 -67.5293 L 91.4062 -35.3027 L 58.252 -2.97852 C 56.8848 -1.66016 56.1035 0.0976562 56.1035 1.95312 C 56.1035 5.71289 59.1309 8.74023 62.9395 8.74023 Z M 19.2871 8.74023 C 21.1426 8.74023 22.7051 8.05664 24.0234 6.78711 L 61.4746 -29.7852 C 63.1836 -31.4453 63.9648 -33.2031 63.9648 -35.2539 C 63.9648 -37.3535 63.1348 -39.1113 61.4746 -40.7227 L 24.0234 -77.3438 C 22.7539 -78.6133 21.1914 -79.248 19.2871 -79.248 C 15.5273 -79.248 12.4512 -76.2207 12.4512 -72.4609 C 12.4512 -70.6543 13.2324 -68.8965 14.5996 -67.5293 L 47.8027 -35.3027 L 14.5996 -2.97852 C 13.2324 -1.66016 12.4512 0.0976562 12.4512 1.95312 C 12.4512 5.71289 15.5273 8.74023 19.2871 8.74023 Z"/>
  </g>
  <g id="Bold-M" transform="matrix(1 0 0 1 2278.87 1126)">
   <path d="M 64.3066 9.66797 C 66.5039 9.66797 68.3105 8.88672 69.9219 7.37305 L 106.689 -28.5156 C 108.789 -30.6152 109.717 -32.7148 109.717 -35.2539 C 109.717 -37.8418 108.74 -39.9414 106.689 -41.9922 L 69.9219 -77.8809 C 68.3594 -79.4434 66.5527 -80.1758 64.3066 -80.1758 C 59.7656 -80.1758 56.1035 -76.5137 56.1035 -72.0703 C 56.1035 -69.873 56.9824 -67.7734 58.7402 -66.0645 L 90.5762 -35.3027 L 58.7402 -4.44336 C 57.0312 -2.7832 56.1035 -0.683594 56.1035 1.5625 C 56.1035 6.00586 59.7656 9.66797 64.3066 9.66797 Z M 20.6543 9.66797 C 22.8516 9.66797 24.707 8.88672 26.3184 7.37305 L 63.0371 -28.5156 C 65.1367 -30.6152 66.1133 -32.7148 66.1133 -35.2539 C 66.0645 -37.8418 65.1367 -39.9414 63.0371 -41.9922 L 26.2695 -77.8809 C 24.707 -79.4434 22.9004 -80.1758 20.6543 -80.1758 C 16.1621 -80.1758 12.4512 -76.5137 12.4512 -72.0703 C 12.4512 -69.873 13.3789 -67.7734 15.0879 -66.0645 L 46.9727 -35.3027 L 15.0879 -4.44336 C 13.4277 -2.7832 12.4512 -0.683594 12.4512 1.5625 C 12.4512 6.00586 16.1621 9.66797 20.6543 9.66797 Z"/>
  </g>
  <g id="Heavy-M" transform="matrix(1 0 0 1 2574.04 1126)">
   <path d="M 66.2598 10.9863 C 68.9941 10.9863 71.1914 10.0586 73.1934 8.20312 L 108.936 -26.709 C 111.67 -29.4434 112.842 -32.0312 112.842 -35.2539 C 112.793 -38.5742 111.621 -41.1133 108.936 -43.7988 L 73.1934 -78.6621 C 71.2402 -80.6152 69.043 -81.4941 66.2598 -81.4941 C 60.6934 -81.4941 56.1035 -76.9043 56.1035 -71.4355 C 56.1035 -68.7012 57.2266 -66.1133 59.4238 -64.0137 L 89.3555 -35.3516 L 59.4238 -6.54297 C 57.2754 -4.39453 56.1035 -1.80664 56.1035 0.976562 C 56.1035 6.44531 60.6934 10.9863 66.2598 10.9863 Z M 22.6562 10.9863 C 25.3418 10.9863 27.5879 10.0586 29.541 8.20312 L 65.2832 -26.709 C 68.0176 -29.4434 69.1895 -32.0312 69.1895 -35.2539 C 69.1406 -38.5742 67.9688 -41.1133 65.2832 -43.7988 L 29.541 -78.6621 C 27.6367 -80.6152 25.3906 -81.4941 22.6562 -81.4941 C 17.0898 -81.4941 12.4512 -76.9043 12.4512 -71.4355 C 12.4512 -68.7012 13.5742 -66.1133 15.8203 -64.0137 L 45.7031 -35.3516 L 15.8203 -6.54297 C 13.623 -4.39453 12.4512 -1.80664 12.4512 0.976562 C 12.4512 6.44531 17.0898 10.9863 22.6562 10.9863 Z"/>
  </g>
  <g id="Black-M" transform="matrix(1 0 0 1 2869.36 1126)">
   <path d="M 68.0176 12.207 C 71.1914 12.207 73.7793 11.1328 76.123 8.88672 L 110.938 -25.0977 C 114.209 -28.3691 115.625 -31.3965 115.625 -35.2539 C 115.527 -39.1602 114.16 -42.1387 110.938 -45.459 L 76.123 -79.3457 C 73.8281 -81.6406 71.2402 -82.666 68.0176 -82.666 C 61.5234 -82.666 56.1035 -77.2949 56.1035 -70.8984 C 56.1035 -67.6758 57.4219 -64.6484 60.0586 -62.1094 L 88.2324 -35.3516 L 60.0586 -8.39844 C 57.4707 -5.85938 56.1035 -2.83203 56.1035 0.439453 C 56.1035 6.83594 61.5234 12.207 68.0176 12.207 Z M 24.4141 12.207 C 27.5391 12.207 30.127 11.1328 32.4707 8.88672 L 67.2852 -25.0977 C 70.6055 -28.3691 71.9727 -31.3965 71.9727 -35.2539 C 71.9238 -39.1602 70.5078 -42.1387 67.2852 -45.459 L 32.4707 -79.3457 C 30.2246 -81.6406 27.6367 -82.666 24.4141 -82.666 C 17.9199 -82.666 12.4512 -77.2949 12.4512 -70.8984 C 12.4512 -67.6758 13.7695 -64.6484 16.4551 -62.1094 L 44.6289 -35.3516 L 16.4551 -8.39844 C 13.8672 -5.85938 12.4512 -2.83203 12.4512 0.439453 C 12.4512 6.83594 17.9199 12.207 24.4141 12.207 Z"/>
  </g>
  <g id="Ultralight-L" transform="matrix(1 0 0 1 488.422 1556)">
   <path d="M 73.584 12.2559 C 73.9746 12.2559 74.1699 11.9629 74.5117 11.7188 L 125.586 -33.7402 C 126.123 -34.2285 126.465 -34.6191 126.465 -35.2539 C 126.465 -35.8887 126.025 -36.377 125.537 -36.9141 L 74.4141 -82.4219 C 74.0723 -82.7148 73.9746 -82.9102 73.584 -82.9102 C 72.9492 -82.9102 72.3633 -82.3242 72.3633 -81.6895 C 72.3633 -81.3965 72.4121 -81.0059 72.6562 -80.7617 L 123.535 -35.3516 L 72.6562 10.2051 C 72.4121 10.4004 72.3633 10.791 72.3633 11.084 C 72.3633 11.7188 72.9492 12.2559 73.584 12.2559 Z M 17.2852 12.2559 C 17.6758 12.2559 17.8711 11.9629 18.2129 11.7188 L 69.2871 -33.7402 C 69.8242 -34.2285 70.2148 -34.6191 70.2148 -35.2539 C 70.2148 -35.8887 69.7266 -36.377 69.2383 -36.9141 L 18.1152 -82.4219 C 17.8223 -82.7148 17.6758 -82.9102 17.2852 -82.9102 C 16.6504 -82.9102 16.0645 -82.3242 16.0645 -81.6895 C 16.0645 -81.3965 16.1133 -81.0059 16.3574 -80.7617 L 67.2363 -35.3516 L 16.3574 10.2051 C 16.1133 10.4004 16.0645 10.791 16.0645 11.084 C 16.0645 11.7188 16.6504 12.2559 17.2852 12.2559 Z"/>
  </g>
  <g id="Thin-L" transform="matrix(1 0 0 1 784.45 1556)">
   <path d="M 74.4141 13.5742 C 75 13.5742 75.4395 13.2324 75.9277 12.8418 L 126.807 -33.252 C 127.441 -33.8867 127.832 -34.4727 127.832 -35.2539 C 127.832 -36.084 127.344 -36.7676 126.709 -37.3535 L 75.8301 -83.4961 C 75.3906 -83.8867 75 -84.1797 74.4141 -84.1797 C 73.291 -84.1797 72.3633 -83.3008 72.3633 -82.1289 C 72.3633 -81.6406 72.5098 -81.0547 72.9004 -80.6641 L 122.852 -35.3516 L 72.9004 10.1074 C 72.5098 10.4492 72.3633 11.0352 72.3633 11.5234 C 72.3633 12.6465 73.291 13.5742 74.4141 13.5742 Z M 18.1152 13.5742 C 18.7012 13.5742 19.1406 13.2324 19.6289 12.8418 L 70.5078 -33.252 C 71.1426 -33.8867 71.5332 -34.4727 71.5332 -35.2539 C 71.5332 -36.084 71.0449 -36.7676 70.4102 -37.3535 L 19.5312 -83.4961 C 19.0918 -83.8867 18.7012 -84.1797 18.1152 -84.1797 C 16.9922 -84.1797 16.0645 -83.3008 16.0645 -82.1289 C 16.0645 -81.6406 16.2109 -81.0547 16.6016 -80.6641 L 66.5527 -35.3516 L 16.6016 10.1074 C 16.2109 10.4492 16.0645 11.0352 16.0645 11.5234 C 16.0645 12.6465 16.9922 13.5742 18.1152 13.5742 Z"/>
  </g>
  <g id="Light-L" transform="matrix(1 0 0 1 1079.84 1556)">
   <path d="M 76.0254 16.1133 C 77.0508 16.1133 77.9297 15.625 78.6621 14.9414 L 129.102 -32.2754 C 129.98 -33.1543 130.518 -34.1309 130.518 -35.2539 C 130.518 -36.4258 129.932 -37.5 129.053 -38.2812 L 78.6133 -85.5957 C 77.8809 -86.2793 77.0508 -86.7188 76.0254 -86.7188 C 73.9746 -86.7188 72.3633 -85.1074 72.3633 -83.0566 C 72.3633 -82.0801 72.7539 -81.1035 73.3887 -80.4199 L 121.533 -35.3027 L 73.3887 9.91211 C 72.7539 10.5469 72.3633 11.4746 72.3633 12.4512 C 72.3633 14.5508 73.9746 16.1133 76.0254 16.1133 Z M 19.7266 16.1133 C 20.752 16.1133 21.6309 15.625 22.3633 14.9414 L 72.8027 -32.2754 C 73.6816 -33.1543 74.2188 -34.1309 74.2188 -35.2539 C 74.2188 -36.4258 73.6328 -37.5 72.7539 -38.2812 L 22.3145 -85.5957 C 21.582 -86.2793 20.752 -86.7188 19.7266 -86.7188 C 17.6758 -86.7188 16.0645 -85.1074 16.0645 -83.0566 C 16.0645 -82.0801 16.4551 -81.1035 17.0898 -80.4199 L 65.2344 -35.3027 L 17.0898 9.91211 C 16.4551 10.5469 16.0645 11.4746 16.0645 12.4512 C 16.0645 14.5508 17.6758 16.1133 19.7266 16.1133 Z"/>
  </g>
  <g id="Regular-L" transform="matrix(1 0 0 1 1375.53 1556)">
   <path d="M 77.2461 18.0176 C 78.6133 18.0176 79.7852 17.4805 80.7129 16.5527 L 130.859 -31.5918 C 131.934 -32.6172 132.52 -33.8379 132.52 -35.2539 C 132.52 -36.6699 131.885 -38.0371 130.859 -39.0137 L 80.7129 -87.1582 C 79.7363 -88.0859 78.6133 -88.623 77.2461 -88.623 C 74.4629 -88.623 72.3633 -86.5234 72.3633 -83.7402 C 72.3633 -82.4707 72.9004 -81.2012 73.7793 -80.2734 L 120.557 -35.3027 L 73.7793 9.7168 C 72.9004 10.5957 72.3633 11.8164 72.3633 13.1836 C 72.3633 15.918 74.4629 18.0176 77.2461 18.0176 Z M 20.9473 18.0176 C 22.3145 18.0176 23.4863 17.4805 24.4141 16.5527 L 74.5605 -31.5918 C 75.6348 -32.6172 76.2207 -33.8379 76.2207 -35.2539 C 76.2207 -36.6699 75.5859 -38.0371 74.5605 -39.0137 L 24.4141 -87.1582 C 23.4375 -88.0859 22.3145 -88.623 20.9473 -88.623 C 18.2129 -88.623 16.0645 -86.5234 16.0645 -83.7402 C 16.0645 -82.4707 16.6016 -81.2012 17.4805 -80.2734 L 64.2578 -35.3027 L 17.4805 9.7168 C 16.6016 10.5957 16.0645 11.8164 16.0645 13.1836 C 16.0645 15.918 18.2129 18.0176 20.9473 18.0176 Z"/>
  </g>
  <g id="Medium-L" transform="matrix(1 0 0 1 1671.09 1556)">
   <path d="M 78.7109 19.2383 C 80.4199 19.2383 81.9336 18.5547 83.1543 17.334 L 132.568 -30.3223 C 134.082 -31.7871 134.814 -33.3984 134.814 -35.2539 C 134.814 -37.1582 134.033 -38.8672 132.568 -40.2832 L 83.1055 -87.9395 C 81.8848 -89.1113 80.4688 -89.7949 78.7109 -89.7949 C 75.1465 -89.7949 72.3633 -87.0117 72.3633 -83.4961 C 72.3633 -81.7871 73.0469 -80.1758 74.2676 -78.9062 L 119.629 -35.3027 L 74.2676 8.39844 C 73.0957 9.61914 72.3633 11.1816 72.3633 12.9395 C 72.3633 16.4551 75.1465 19.2383 78.7109 19.2383 Z M 22.4121 19.2383 C 24.1699 19.2383 25.6348 18.5547 26.8555 17.334 L 76.3184 -30.3223 C 77.7832 -31.7871 78.5156 -33.3984 78.5156 -35.2539 C 78.5156 -37.1582 77.7344 -38.8672 76.2695 -40.2832 L 26.8066 -87.9395 C 25.5859 -89.1113 24.1699 -89.7949 22.4121 -89.7949 C 18.8477 -89.7949 16.0645 -87.0117 16.0645 -83.4961 C 16.0645 -81.7871 16.7969 -80.1758 17.9688 -78.9062 L 63.3301 -35.3027 L 17.9688 8.39844 C 16.7969 9.61914 16.0645 11.1816 16.0645 12.9395 C 16.0645 16.4551 18.8477 19.2383 22.4121 19.2383 Z"/>
  </g>
  <g id="Semibold-L" transform="matrix(1 0 0 1 1966.92 1556)">
   <path d="M 79.834 20.1172 C 81.8359 20.1172 83.5449 19.3359 85.0098 17.9688 L 133.887 -29.3457 C 135.693 -31.1523 136.572 -33.0078 136.572 -35.2539 C 136.572 -37.5488 135.693 -39.502 133.887 -41.2109 L 84.9609 -88.5254 C 83.5449 -89.9414 81.8848 -90.6738 79.834 -90.6738 C 75.6836 -90.6738 72.3633 -87.4023 72.3633 -83.3008 C 72.3633 -81.2988 73.1934 -79.3945 74.6582 -77.9297 L 118.896 -35.3027 L 74.6582 7.37305 C 73.1934 8.83789 72.3633 10.6934 72.3633 12.7441 C 72.3633 16.8457 75.6836 20.1172 79.834 20.1172 Z M 23.5352 20.1172 C 25.5371 20.1172 27.2461 19.3359 28.7109 17.9688 L 77.6367 -29.3457 C 79.4434 -31.1523 80.3223 -33.0078 80.3223 -35.2539 C 80.2734 -37.5488 79.3945 -39.502 77.5879 -41.2109 L 28.6621 -88.5254 C 27.2461 -89.9414 25.5859 -90.6738 23.5352 -90.6738 C 19.3848 -90.6738 16.0645 -87.4023 16.0645 -83.3008 C 16.0645 -81.2988 16.8945 -79.3945 18.3594 -77.9297 L 62.6465 -35.3027 L 18.3594 7.37305 C 16.9434 8.83789 16.0645 10.6934 16.0645 12.7441 C 16.0645 16.8457 19.3848 20.1172 23.5352 20.1172 Z"/>
  </g>
  <g id="Bold-L" transform="matrix(1 0 0 1 2262.46 1556)">
   <path d="M 81.2988 21.3379 C 83.6914 21.3379 85.6934 20.459 87.4512 18.7988 L 135.645 -28.0273 C 137.891 -30.2734 138.916 -32.5195 138.916 -35.2539 C 138.916 -38.0371 137.842 -40.332 135.645 -42.5293 L 87.4023 -89.3066 C 85.6934 -91.0156 83.7402 -91.8457 81.2988 -91.8457 C 76.3672 -91.8457 72.3633 -87.8906 72.3633 -83.0078 C 72.3633 -80.6641 73.3398 -78.3691 75.1953 -76.5625 L 117.969 -35.3027 L 75.1953 6.00586 C 73.3887 7.8125 72.3633 10.0586 72.3633 12.5 C 72.3633 17.3828 76.3672 21.3379 81.2988 21.3379 Z M 25 21.3379 C 27.3926 21.3379 29.3945 20.459 31.1523 18.7988 L 79.3457 -28.0273 C 81.5918 -30.2734 82.6172 -32.5195 82.6172 -35.2539 C 82.6172 -38.0371 81.543 -40.332 79.3457 -42.5293 L 31.1035 -89.3066 C 29.3945 -91.0156 27.4414 -91.8457 25 -91.8457 C 20.0684 -91.8457 16.0645 -87.8906 16.0645 -83.0078 C 16.0645 -80.6641 17.0898 -78.3691 18.8965 -76.5625 L 61.6699 -35.3027 L 18.8965 6.00586 C 17.0898 7.8125 16.0645 10.0586 16.0645 12.5 C 16.0645 17.3828 20.0684 21.3379 25 21.3379 Z"/>
  </g>
  <g id="Heavy-L" transform="matrix(1 0 0 1 2557.49 1556)">
   <path d="M 83.3984 23.0469 C 86.377 23.0469 88.8184 22.0215 90.9668 19.9707 L 138.184 -26.1719 C 141.016 -29.0527 142.285 -31.8359 142.285 -35.2539 C 142.236 -38.7695 140.967 -41.5527 138.135 -44.3359 L 90.9668 -90.4785 C 88.8672 -92.5781 86.4258 -93.5547 83.3984 -93.5547 C 77.3438 -93.5547 72.3633 -88.623 72.3633 -82.666 C 72.3633 -79.6875 73.584 -76.8555 75.9277 -74.6094 L 116.602 -35.3516 L 75.9277 4.05273 C 73.6328 6.34766 72.3633 9.13086 72.3633 12.1582 C 72.3633 18.1152 77.3438 23.0469 83.3984 23.0469 Z M 27.0996 23.0469 C 30.0781 23.0469 32.5195 22.0215 34.668 19.9707 L 81.8848 -26.1719 C 84.7168 -29.0527 85.9863 -31.8359 85.9863 -35.2539 C 85.9375 -38.7695 84.668 -41.5527 81.8848 -44.3359 L 34.668 -90.4785 C 32.5684 -92.5781 30.127 -93.5547 27.0996 -93.5547 C 21.0449 -93.5547 16.0645 -88.623 16.0645 -82.666 C 16.0645 -79.6875 17.334 -76.8555 19.6289 -74.6094 L 60.3027 -35.3516 L 19.6289 4.05273 C 17.334 6.34766 16.0645 9.13086 16.0645 12.1582 C 16.0645 18.1152 21.0449 23.0469 27.0996 23.0469 Z"/>
  </g>
  <g id="Black-L" transform="matrix(1 0 0 1 2852.71 1556)">
   <path d="M 85.3027 24.6094 C 88.7695 24.6094 91.6016 23.3887 94.1406 20.9961 L 140.43 -24.5117 C 143.848 -27.9297 145.312 -31.2012 145.312 -35.2539 C 145.264 -39.4043 143.75 -42.627 140.43 -45.9961 L 94.1406 -91.5039 C 91.6504 -93.9453 88.8184 -95.0684 85.3027 -95.0684 C 78.2227 -95.0684 72.3633 -89.3066 72.3633 -82.3242 C 72.3633 -78.8574 73.8281 -75.5371 76.6113 -72.8516 L 115.381 -35.3516 L 76.6113 2.29492 C 73.877 5.0293 72.3633 8.25195 72.3633 11.8164 C 72.3633 18.7988 78.2227 24.6094 85.3027 24.6094 Z M 29.0039 24.6094 C 32.4707 24.6094 35.3027 23.3887 37.8418 20.9961 L 84.1309 -24.5117 C 87.5488 -27.9297 89.0137 -31.2012 89.0137 -35.2539 C 88.9648 -39.4043 87.5 -42.627 84.1309 -45.9961 L 37.8418 -91.5039 C 35.4004 -93.9453 32.5195 -95.0684 29.0039 -95.0684 C 21.9238 -95.0684 16.0645 -89.3066 16.0645 -82.3242 C 16.0645 -78.8574 17.5293 -75.5371 20.3125 -72.8516 L 59.082 -35.3516 L 20.3125 2.29492 C 17.5781 5.0293 16.0645 8.25195 16.0645 11.8164 C 16.0645 18.7988 21.9238 24.6094 29.0039 24.6094 Z"/>
  </g>
 </g>
</svg>
