<?xml version="1.0" encoding="UTF-8"?>
<!--Generator: Apple Native CoreSVG 123-->
<!DOCTYPE svg
PUBLIC "-//W3C//DTD SVG 1.1//EN"
       "http://www.w3.org/Graphics/SVG/1.1/DTD/svg11.dtd">
<svg version="1.1" xmlns="http://www.w3.org/2000/svg" xmlns:xlink="http://www.w3.org/1999/xlink" width="3300" height="2200">
 <!--glyph: "uni10016D.medium", point size: 100.000000, font version: "Version 15.0d4e20", template writer version: "2"-->
 <g id="Notes">
  <rect height="2200" id="artboard" style="fill:white;opacity:1" width="3300" x="0" y="0"/>
  <line id="" style="fill:none;stroke:black;opacity:1;stroke-width:0.5;" x1="263" x2="3036" y1="292" y2="292"/>
  <text style="stroke:none;fill:black;font-family:-apple-system,&quot;SF Pro Display&quot;,&quot;SF Pro Text&quot;,Helvetica,sans-serif;font-weight:bold;" transform="matrix(1 0 0 1 263 322)">Weight/Scale Variations</text>
  <text style="stroke:none;fill:black;font-family:-apple-system,&quot;SF Pro Display&quot;,&quot;SF Pro Text&quot;,Helvetica,sans-serif;text-anchor:middle;" transform="matrix(1 0 0 1 559.711 322)">Ultralight</text>
  <text style="stroke:none;fill:black;font-family:-apple-system,&quot;SF Pro Display&quot;,&quot;SF Pro Text&quot;,Helvetica,sans-serif;text-anchor:middle;" transform="matrix(1 0 0 1 856.422 322)">Thin</text>
  <text style="stroke:none;fill:black;font-family:-apple-system,&quot;SF Pro Display&quot;,&quot;SF Pro Text&quot;,Helvetica,sans-serif;text-anchor:middle;" transform="matrix(1 0 0 1 1153.13 322)">Light</text>
  <text style="stroke:none;fill:black;font-family:-apple-system,&quot;SF Pro Display&quot;,&quot;SF Pro Text&quot;,Helvetica,sans-serif;text-anchor:middle;" transform="matrix(1 0 0 1 1449.84 322)">Regular</text>
  <text style="stroke:none;fill:black;font-family:-apple-system,&quot;SF Pro Display&quot;,&quot;SF Pro Text&quot;,Helvetica,sans-serif;text-anchor:middle;" transform="matrix(1 0 0 1 1746.56 322)">Medium</text>
  <text style="stroke:none;fill:black;font-family:-apple-system,&quot;SF Pro Display&quot;,&quot;SF Pro Text&quot;,Helvetica,sans-serif;text-anchor:middle;" transform="matrix(1 0 0 1 2043.27 322)">Semibold</text>
  <text style="stroke:none;fill:black;font-family:-apple-system,&quot;SF Pro Display&quot;,&quot;SF Pro Text&quot;,Helvetica,sans-serif;text-anchor:middle;" transform="matrix(1 0 0 1 2339.98 322)">Bold</text>
  <text style="stroke:none;fill:black;font-family:-apple-system,&quot;SF Pro Display&quot;,&quot;SF Pro Text&quot;,Helvetica,sans-serif;text-anchor:middle;" transform="matrix(1 0 0 1 2636.69 322)">Heavy</text>
  <text style="stroke:none;fill:black;font-family:-apple-system,&quot;SF Pro Display&quot;,&quot;SF Pro Text&quot;,Helvetica,sans-serif;text-anchor:middle;" transform="matrix(1 0 0 1 2933.4 322)">Black</text>
  <line id="" style="fill:none;stroke:black;opacity:1;stroke-width:0.5;" x1="263" x2="3036" y1="1903" y2="1903"/>
  <g id="" transform="matrix(1 0 0 1 263 1933)">
   <path d="M 9.24805 0.830078 C 13.5547 0.830078 17.1387 -2.74414 17.1387 -7.05078 C 17.1387 -11.3574 13.5449 -14.9316 9.23828 -14.9316 C 4.94141 -14.9316 1.36719 -11.3574 1.36719 -7.05078 C 1.36719 -2.74414 4.95117 0.830078 9.24805 0.830078 Z M 9.24805 -0.654297 C 5.70312 -0.654297 2.87109 -3.49609 2.87109 -7.05078 C 2.87109 -10.6055 5.69336 -13.4473 9.23828 -13.4473 C 12.793 -13.4473 15.6348 -10.6055 15.6445 -7.05078 C 15.6543 -3.49609 12.8027 -0.654297 9.24805 -0.654297 Z M 9.22852 -3.42773 C 9.69727 -3.42773 9.9707 -3.74023 9.9707 -4.25781 L 9.9707 -6.31836 L 12.1973 -6.31836 C 12.6953 -6.31836 13.0371 -6.57227 13.0371 -7.04102 C 13.0371 -7.51953 12.7148 -7.7832 12.1973 -7.7832 L 9.9707 -7.7832 L 9.9707 -10.0098 C 9.9707 -10.5273 9.69727 -10.8496 9.22852 -10.8496 C 8.75977 -10.8496 8.50586 -10.5078 8.50586 -10.0098 L 8.50586 -7.7832 L 6.29883 -7.7832 C 5.78125 -7.7832 5.44922 -7.51953 5.44922 -7.04102 C 5.44922 -6.57227 5.80078 -6.31836 6.29883 -6.31836 L 8.50586 -6.31836 L 8.50586 -4.25781 C 8.50586 -3.75977 8.75977 -3.42773 9.22852 -3.42773 Z"/>
  </g>
  <g id="" transform="matrix(1 0 0 1 281.506 1933)">
   <path d="M 11.709 2.91016 C 17.1484 2.91016 21.6699 -1.60156 21.6699 -7.05078 C 21.6699 -12.4902 17.1387 -17.0117 11.6992 -17.0117 C 6.25 -17.0117 1.74805 -12.4902 1.74805 -7.05078 C 1.74805 -1.60156 6.25977 2.91016 11.709 2.91016 Z M 11.709 1.25 C 7.09961 1.25 3.41797 -2.44141 3.41797 -7.05078 C 3.41797 -11.6504 7.08984 -15.3516 11.6992 -15.3516 C 16.2988 -15.3516 20 -11.6504 20.0098 -7.05078 C 20.0195 -2.44141 16.3086 1.25 11.709 1.25 Z M 11.6797 -2.41211 C 12.207 -2.41211 12.5195 -2.77344 12.5195 -3.33984 L 12.5195 -6.23047 L 15.5762 -6.23047 C 16.123 -6.23047 16.5039 -6.51367 16.5039 -7.03125 C 16.5039 -7.55859 16.1426 -7.86133 15.5762 -7.86133 L 12.5195 -7.86133 L 12.5195 -10.9277 C 12.5195 -11.5039 12.207 -11.8555 11.6797 -11.8555 C 11.1621 -11.8555 10.8789 -11.4844 10.8789 -10.9277 L 10.8789 -7.86133 L 7.83203 -7.86133 C 7.25586 -7.86133 6.89453 -7.55859 6.89453 -7.03125 C 6.89453 -6.51367 7.28516 -6.23047 7.83203 -6.23047 L 10.8789 -6.23047 L 10.8789 -3.33984 C 10.8789 -2.79297 11.1621 -2.41211 11.6797 -2.41211 Z"/>
  </g>
  <g id="" transform="matrix(1 0 0 1 304.914 1933)">
   <path d="M 14.9707 5.67383 C 21.9336 5.67383 27.6855 -0.078125 27.6855 -7.04102 C 27.6855 -14.0039 21.9238 -19.7559 14.9609 -19.7559 C 7.99805 -19.7559 2.25586 -14.0039 2.25586 -7.04102 C 2.25586 -0.078125 8.00781 5.67383 14.9707 5.67383 Z M 14.9707 3.85742 C 8.92578 3.85742 4.08203 -1.00586 4.08203 -7.04102 C 4.08203 -13.0762 8.91602 -17.9395 14.9609 -17.9395 C 20.9961 -17.9395 25.8594 -13.0762 25.8691 -7.04102 C 25.8789 -1.00586 21.0059 3.85742 14.9707 3.85742 Z M 14.9414 -1.06445 C 15.5176 -1.06445 15.8594 -1.45508 15.8594 -2.06055 L 15.8594 -6.13281 L 20.0977 -6.13281 C 20.6934 -6.13281 21.1133 -6.46484 21.1133 -7.02148 C 21.1133 -7.59766 20.7227 -7.93945 20.0977 -7.93945 L 15.8594 -7.93945 L 15.8594 -12.1875 C 15.8594 -12.8027 15.5176 -13.1934 14.9414 -13.1934 C 14.3848 -13.1934 14.0625 -12.7832 14.0625 -12.1875 L 14.0625 -7.93945 L 9.82422 -7.93945 C 9.20898 -7.93945 8.80859 -7.59766 8.80859 -7.02148 C 8.80859 -6.46484 9.23828 -6.13281 9.82422 -6.13281 L 14.0625 -6.13281 L 14.0625 -2.06055 C 14.0625 -1.47461 14.3848 -1.06445 14.9414 -1.06445 Z"/>
  </g>
  <text style="stroke:none;fill:black;font-family:-apple-system,&quot;SF Pro Display&quot;,&quot;SF Pro Text&quot;,Helvetica,sans-serif;font-weight:bold;" transform="matrix(1 0 0 1 263 1953)">Design Variations</text>
  <text style="stroke:none;fill:black;font-family:-apple-system,&quot;SF Pro Display&quot;,&quot;SF Pro Text&quot;,Helvetica,sans-serif;" transform="matrix(1 0 0 1 263 1971)">Symbols are supported in up to nine weights and three scales.</text>
  <text style="stroke:none;fill:black;font-family:-apple-system,&quot;SF Pro Display&quot;,&quot;SF Pro Text&quot;,Helvetica,sans-serif;" transform="matrix(1 0 0 1 263 1989)">For optimal layout with text and other symbols, vertically align</text>
  <text style="stroke:none;fill:black;font-family:-apple-system,&quot;SF Pro Display&quot;,&quot;SF Pro Text&quot;,Helvetica,sans-serif;" transform="matrix(1 0 0 1 263 2007)">symbols with the adjacent text.</text>
  <rect height="14" id="" style="fill:#00AEEF;stroke:none;opacity:0.4;" width="3" x="776" y="1919"/>
  <g id="" transform="matrix(1 0 0 1 779 1933)">
   <path d="M 10.5273 0 L 12.373 0 L 7.17773 -14.0918 L 5.43945 -14.0918 L 0.244141 0 L 2.08984 0 L 3.50586 -4.0332 L 9.11133 -4.0332 Z M 6.2793 -11.9531 L 6.33789 -11.9531 L 8.59375 -5.52734 L 4.02344 -5.52734 Z"/>
  </g>
  <rect height="14" id="" style="fill:#00AEEF;stroke:none;opacity:0.4;" width="3" x="791.617" y="1919"/>
  <text style="stroke:none;fill:black;font-family:-apple-system,&quot;SF Pro Display&quot;,&quot;SF Pro Text&quot;,Helvetica,sans-serif;font-weight:bold;" transform="matrix(1 0 0 1 776 1953)">Side Bearings</text>
  <text style="stroke:none;fill:black;font-family:-apple-system,&quot;SF Pro Display&quot;,&quot;SF Pro Text&quot;,Helvetica,sans-serif;" transform="matrix(1 0 0 1 776 1971)">Horizontal padding on the left and right side of each symbol</text>
  <text style="stroke:none;fill:black;font-family:-apple-system,&quot;SF Pro Display&quot;,&quot;SF Pro Text&quot;,Helvetica,sans-serif;" transform="matrix(1 0 0 1 776 1989)">can be adjusted by modifying the width of the blue rectangles.</text>
  <text style="stroke:none;fill:black;font-family:-apple-system,&quot;SF Pro Display&quot;,&quot;SF Pro Text&quot;,Helvetica,sans-serif;" transform="matrix(1 0 0 1 776 2007)">Modifications are automatically applied proportionally to all</text>
  <text style="stroke:none;fill:black;font-family:-apple-system,&quot;SF Pro Display&quot;,&quot;SF Pro Text&quot;,Helvetica,sans-serif;" transform="matrix(1 0 0 1 776 2025)">scales and weights.</text>
  <g id="" transform="matrix(1 0 0 1 1289 1933)">
   <path d="M 2.96875 2.35352 L 3.80859 3.19336 C 4.84375 4.22852 6.12305 4.15039 7.19727 2.97852 L 16.1621 -6.82617 C 16.5527 -6.74805 16.9629 -6.8457 17.4902 -7.02148 C 18.1738 -7.25586 18.2715 -7.25586 18.3887 -7.13867 C 18.5352 -7.01172 18.4863 -6.89453 18.2422 -6.25 C 17.8809 -5.33203 17.8125 -4.79492 18.5547 -4.02344 L 19.4238 -3.13477 C 20.2734 -2.24609 21.3281 -2.26562 22.2168 -3.14453 L 25.0586 -5.97656 C 25.9473 -6.86523 25.957 -7.92969 25.0781 -8.7793 L 24.1797 -9.64844 C 23.4082 -10.4004 22.8711 -10.3516 21.9629 -9.98047 C 21.3184 -9.72656 21.2012 -9.6875 21.0645 -9.81445 C 20.9375 -9.93164 20.9473 -10.0391 21.1816 -10.7129 C 21.5332 -11.6895 21.5723 -12.2852 20.752 -13.0957 L 19.3359 -14.5117 C 15.1953 -18.6133 11.2305 -18.7402 7.65625 -15.4395 C 7.08008 -14.9023 6.99219 -14.1504 7.53906 -13.6133 L 7.79297 -13.3594 C 8.22266 -12.9297 8.86719 -12.8418 9.41406 -13.1152 C 11.0645 -13.9453 12.2559 -14.0234 13.457 -12.9785 L 13.0273 -11.416 C 12.8516 -10.8008 12.793 -10.3418 12.9199 -9.93164 L 3.18359 -1.04492 C 2.02148 0.0292969 1.93359 1.32812 2.96875 2.35352 Z M 8.96484 -14.4922 C 8.89648 -14.5703 8.86719 -14.6582 8.99414 -14.7559 C 11.709 -17.2852 15.0391 -16.8457 18.3496 -13.5254 L 19.6973 -12.168 C 20.0879 -11.7773 20.0977 -11.582 19.8828 -10.8691 C 19.6582 -10.127 19.502 -9.53125 20.1465 -8.88672 C 20.8105 -8.22266 21.2891 -8.41797 22.207 -8.63281 C 22.9004 -8.79883 23.0664 -8.79883 23.4473 -8.41797 L 24.0918 -7.77344 C 24.4043 -7.48047 24.4141 -7.32422 24.0723 -6.97266 L 21.2207 -4.13086 C 20.8887 -3.79883 20.7227 -3.79883 20.4297 -4.10156 L 19.7852 -4.75586 C 19.4141 -5.13672 19.4141 -5.30273 19.5801 -6.01562 C 19.7852 -6.88477 19.9805 -7.38281 19.3262 -8.04688 C 18.6719 -8.7207 18.0762 -8.57422 17.3438 -8.33008 C 16.5625 -8.06641 16.3281 -8.06641 15.8984 -8.49609 L 14.6094 -9.78516 C 14.1699 -10.2246 14.1309 -10.4395 14.2676 -10.9082 L 15.0293 -13.3984 C 13.3887 -15.2832 11.4941 -15.5566 9.20898 -14.4434 C 9.11133 -14.3945 9.04297 -14.4141 8.96484 -14.4922 Z M 3.96484 1.36719 C 3.52539 0.927734 3.54492 0.537109 4.14062 -0.00976562 L 13.7402 -8.81836 L 15 -7.55859 L 6.17188 2.02148 C 5.625 2.60742 5.24414 2.64648 4.79492 2.19727 Z"/>
  </g>
  <text style="stroke:none;fill:black;font-family:-apple-system,&quot;SF Pro Display&quot;,&quot;SF Pro Text&quot;,Helvetica,sans-serif;font-weight:bold;" transform="matrix(1 0 0 1 1289 1953)">Exporting</text>
  <text style="stroke:none;fill:black;font-family:-apple-system,&quot;SF Pro Display&quot;,&quot;SF Pro Text&quot;,Helvetica,sans-serif;" transform="matrix(1 0 0 1 1289 1971)">Symbols should be outlined when exporting to ensure the</text>
  <text style="stroke:none;fill:black;font-family:-apple-system,&quot;SF Pro Display&quot;,&quot;SF Pro Text&quot;,Helvetica,sans-serif;" transform="matrix(1 0 0 1 1289 1989)">design is preserved when submitting to Xcode.</text>
  <text id="template-version" style="stroke:none;fill:black;font-family:-apple-system,&quot;SF Pro Display&quot;,&quot;SF Pro Text&quot;,Helvetica,sans-serif;text-anchor:end;" transform="matrix(1 0 0 1 3036 1933)">Template v.0.1</text>
  <text style="stroke:none;fill:black;font-family:-apple-system,&quot;SF Pro Display&quot;,&quot;SF Pro Text&quot;,Helvetica,sans-serif;text-anchor:end;" transform="matrix(1 0 0 1 3036 1951)">Generated from f.cursive</text>
  <text style="stroke:none;fill:black;font-family:-apple-system,&quot;SF Pro Display&quot;,&quot;SF Pro Text&quot;,Helvetica,sans-serif;text-anchor:end;" transform="matrix(1 0 0 1 3036 1969)">Typeset at 100 points</text>
  <text style="stroke:none;fill:black;font-family:-apple-system,&quot;SF Pro Display&quot;,&quot;SF Pro Text&quot;,Helvetica,sans-serif;" transform="matrix(1 0 0 1 263 726)">Small</text>
  <text style="stroke:none;fill:black;font-family:-apple-system,&quot;SF Pro Display&quot;,&quot;SF Pro Text&quot;,Helvetica,sans-serif;" transform="matrix(1 0 0 1 263 1156)">Medium</text>
  <text style="stroke:none;fill:black;font-family:-apple-system,&quot;SF Pro Display&quot;,&quot;SF Pro Text&quot;,Helvetica,sans-serif;" transform="matrix(1 0 0 1 263 1586)">Large</text>
 </g>
 <g id="Guides">
  <g id="H-reference" style="fill:#27AAE1;stroke:none;" transform="matrix(1 0 0 1 339 696)">
   <path d="M 54.9316 0 L 57.666 0 L 30.5664 -70.459 L 28.0762 -70.459 L 0.976562 0 L 3.66211 0 L 12.9395 -24.4629 L 45.7031 -24.4629 Z M 29.1992 -67.0898 L 29.4434 -67.0898 L 44.8242 -26.709 L 13.8184 -26.709 Z"/>
  </g>
  <line id="Baseline-S" style="fill:none;stroke:#27AAE1;opacity:1;stroke-width:0.577;" x1="263" x2="3036" y1="696" y2="696"/>
  <line id="Capline-S" style="fill:none;stroke:#27AAE1;opacity:1;stroke-width:0.577;" x1="263" x2="3036" y1="625.541" y2="625.541"/>
  <g id="H-reference" style="fill:#27AAE1;stroke:none;" transform="matrix(1 0 0 1 339 1126)">
   <path d="M 54.9316 0 L 57.666 0 L 30.5664 -70.459 L 28.0762 -70.459 L 0.976562 0 L 3.66211 0 L 12.9395 -24.4629 L 45.7031 -24.4629 Z M 29.1992 -67.0898 L 29.4434 -67.0898 L 44.8242 -26.709 L 13.8184 -26.709 Z"/>
  </g>
  <line id="Baseline-M" style="fill:none;stroke:#27AAE1;opacity:1;stroke-width:0.577;" x1="263" x2="3036" y1="1126" y2="1126"/>
  <line id="Capline-M" style="fill:none;stroke:#27AAE1;opacity:1;stroke-width:0.577;" x1="263" x2="3036" y1="1055.54" y2="1055.54"/>
  <g id="H-reference" style="fill:#27AAE1;stroke:none;" transform="matrix(1 0 0 1 339 1556)">
   <path d="M 54.9316 0 L 57.666 0 L 30.5664 -70.459 L 28.0762 -70.459 L 0.976562 0 L 3.66211 0 L 12.9395 -24.4629 L 45.7031 -24.4629 Z M 29.1992 -67.0898 L 29.4434 -67.0898 L 44.8242 -26.709 L 13.8184 -26.709 Z"/>
  </g>
  <line id="Baseline-L" style="fill:none;stroke:#27AAE1;opacity:1;stroke-width:0.577;" x1="263" x2="3036" y1="1556" y2="1556"/>
  <line id="Capline-L" style="fill:none;stroke:#27AAE1;opacity:1;stroke-width:0.577;" x1="263" x2="3036" y1="1485.54" y2="1485.54"/>
  <rect height="119.336" id="left-margin" style="fill:#00AEEF;stroke:none;opacity:0.4;" width="12.4512" x="1406.66" y="1030.79"/>
  <rect height="119.336" id="right-margin" style="fill:#00AEEF;stroke:none;opacity:0.4;" width="12.4512" x="1480.58" y="1030.79"/>
 </g>
 <g id="Symbols">
  <g id="Ultralight-S" transform="matrix(1 0 0 1 528.534 696)">
   <path d="M 15.6738 -2.63672 C 23.4863 -2.63672 28.1738 -7.03125 29.541 -16.0156 L 32.5684 -35.8887 L 51.3184 -35.8887 C 52.0996 -35.8887 52.5391 -36.3281 52.5391 -37.0117 C 52.5391 -37.6465 52.0996 -38.1348 51.2695 -38.1348 L 32.9102 -38.1348 L 35.0586 -52.3926 C 36.2793 -60.2539 39.8438 -63.9648 46.1914 -63.9648 C 49.8047 -63.9648 51.0742 -63.4277 51.6602 -63.4277 C 52.2949 -63.4277 52.5879 -63.8184 52.5879 -64.3555 C 52.5879 -65.5762 49.1211 -66.1621 46.6797 -66.1621 C 38.8672 -66.1621 34.1797 -61.7676 32.8125 -52.7832 L 30.5664 -38.1348 L 14.0137 -38.1348 C 13.2812 -38.1348 12.8418 -37.6953 12.8418 -37.0117 C 12.8418 -36.377 13.2812 -35.8887 14.0625 -35.8887 L 30.2246 -35.8887 L 27.2461 -16.4062 C 26.0742 -8.54492 22.5098 -4.83398 16.1621 -4.83398 C 12.5488 -4.83398 11.2793 -5.37109 10.6445 -5.37109 C 10.0586 -5.37109 9.76562 -4.98047 9.76562 -4.44336 C 9.76562 -3.22266 13.2324 -2.63672 15.6738 -2.63672 Z"/>
  </g>
  <g id="Thin-S" transform="matrix(1 0 0 1 824.513 696)">
   <path d="M 16.5039 -2.29492 C 24.5605 -2.29492 29.541 -6.83594 30.9082 -16.1133 L 33.7891 -35.3516 L 52.0996 -35.3516 C 53.125 -35.3516 53.8086 -35.9863 53.8086 -37.0117 C 53.8086 -37.9883 53.125 -38.6719 52.0508 -38.6719 L 34.2773 -38.6719 L 36.2305 -52.0996 C 37.4023 -59.7168 40.8203 -63.1836 46.8262 -63.1836 C 50.5371 -63.1836 51.7578 -62.6953 52.6367 -62.6953 C 53.5156 -62.6953 54.0527 -63.2812 54.0527 -64.1602 C 54.0527 -65.8691 50.293 -66.5039 47.3145 -66.5039 C 39.2578 -66.5039 34.2773 -61.9629 32.9102 -52.6855 L 30.8105 -38.6719 L 14.7949 -38.6719 C 13.7207 -38.6719 13.0371 -38.0371 13.0371 -37.0117 C 13.0371 -36.0352 13.7207 -35.3516 14.8438 -35.3516 L 30.3223 -35.3516 L 27.5879 -16.6992 C 26.4648 -9.08203 23.0469 -5.61523 16.9922 -5.61523 C 13.3301 -5.61523 12.0605 -6.10352 11.1816 -6.10352 C 10.3027 -6.10352 9.76562 -5.51758 9.76562 -4.63867 C 9.76562 -2.92969 13.5254 -2.29492 16.5039 -2.29492 Z"/>
  </g>
  <g id="Light-S" transform="matrix(1 0 0 1 1119.78 696)">
   <path d="M 18.1152 -1.66016 C 26.6602 -1.66016 32.2266 -6.49414 33.5938 -16.3086 L 36.084 -34.3262 L 53.5156 -34.3262 C 55.127 -34.3262 56.2988 -35.4492 56.2988 -37.0117 C 56.2988 -38.5742 55.127 -39.6973 53.4668 -39.6973 L 36.8652 -39.6973 L 38.5254 -51.5137 C 39.502 -58.6914 42.627 -61.7676 48.0469 -61.7676 C 51.8555 -61.7676 53.0762 -61.2793 54.4434 -61.2793 C 55.9082 -61.2793 56.9336 -62.207 56.9336 -63.7695 C 56.9336 -66.4062 52.6367 -67.1387 48.5352 -67.1387 C 40.0391 -67.1387 34.4727 -62.3047 33.1055 -52.4902 L 31.2988 -39.6973 L 16.2109 -39.6973 C 14.5508 -39.6973 13.4277 -38.5742 13.4277 -37.0117 C 13.4277 -35.4492 14.5996 -34.3262 16.2598 -34.3262 L 30.5664 -34.3262 L 28.1738 -17.2852 C 27.1973 -10.1074 24.0723 -7.03125 18.6035 -7.03125 C 14.7949 -7.03125 13.623 -7.51953 12.207 -7.51953 C 10.791 -7.51953 9.76562 -6.5918 9.76562 -5.0293 C 9.76562 -2.39258 14.0625 -1.66016 18.1152 -1.66016 Z"/>
  </g>
  <g id="Regular-S" transform="matrix(1 0 0 1 1415.42 696)">
   <path d="M 19.3848 -1.17188 C 28.2227 -1.17188 34.2285 -6.25 35.5957 -16.4551 L 37.8906 -33.5449 L 54.5898 -33.5449 C 56.6895 -33.5449 58.1543 -35.0098 58.1543 -37.0117 C 58.1543 -39.0137 56.6406 -40.4785 54.541 -40.4785 L 38.8184 -40.4785 L 40.2344 -51.123 C 41.1133 -57.959 43.9941 -60.6934 49.0234 -60.6934 C 52.8809 -60.6934 54.0527 -60.2539 55.8594 -60.2539 C 57.7148 -60.2539 59.082 -61.377 59.082 -63.4766 C 59.082 -66.8457 54.3945 -67.627 49.5117 -67.627 C 40.625 -67.627 34.6191 -62.5488 33.252 -52.3438 L 31.6895 -40.4785 L 17.2852 -40.4785 C 15.2344 -40.4785 13.7207 -39.0137 13.7207 -37.0117 C 13.7207 -35.0098 15.2832 -33.5449 17.334 -33.5449 L 30.7617 -33.5449 L 28.6133 -17.6758 C 27.7344 -10.8398 24.8535 -8.10547 19.873 -8.10547 C 15.9668 -8.10547 14.7949 -8.54492 12.9883 -8.54492 C 11.1328 -8.54492 9.76562 -7.42188 9.76562 -5.32227 C 9.76562 -1.95312 14.502 -1.17188 19.3848 -1.17188 Z"/>
  </g>
  <g id="Medium-S" transform="matrix(1 0 0 1 1711.23 696)">
   <path d="M 20.2637 -1.17188 C 29.5898 -1.17188 35.8887 -6.5918 37.3535 -17.2363 L 39.502 -33.1055 L 55.4688 -33.1055 C 58.0566 -33.1055 59.9121 -34.9609 59.9121 -37.4512 C 59.9121 -39.9902 58.0078 -41.7969 55.4199 -41.7969 L 40.7227 -41.7969 L 41.9922 -50.9277 C 42.8711 -57.373 45.3613 -59.8145 49.9023 -59.8145 C 53.5645 -59.8145 55.0293 -59.375 56.7383 -59.375 C 59.1309 -59.375 60.8887 -60.8887 60.8887 -63.4766 C 60.8887 -67.3828 55.957 -68.5059 50.3906 -68.5059 C 41.0156 -68.5059 34.7656 -63.1348 33.3008 -52.4414 L 31.8359 -41.7969 L 18.1641 -41.7969 C 15.625 -41.7969 13.7207 -39.9902 13.7207 -37.4512 C 13.7207 -34.9609 15.6738 -33.1055 18.2129 -33.1055 L 30.6152 -33.1055 L 28.6621 -18.75 C 27.7832 -12.3047 25.293 -9.91211 20.752 -9.91211 C 17.0898 -9.91211 15.625 -10.3516 13.8672 -10.3516 C 11.4746 -10.3516 9.76562 -8.78906 9.76562 -6.25 C 9.76562 -2.34375 14.6973 -1.17188 20.2637 -1.17188 Z"/>
  </g>
  <g id="Semibold-S" transform="matrix(1 0 0 1 2007.28 696)">
   <path d="M 20.9473 -1.2207 C 30.6641 -1.2207 37.1582 -6.83594 38.6719 -17.8223 L 40.7715 -32.7637 L 56.1523 -32.7637 C 59.082 -32.7637 61.2793 -34.9121 61.2793 -37.793 C 61.2793 -40.6738 59.0332 -42.8223 56.1035 -42.8223 L 42.1875 -42.8223 L 43.3105 -50.8301 C 44.1895 -56.9824 46.4355 -59.1309 50.5859 -59.1309 C 54.0527 -59.1309 55.7129 -58.6914 57.4219 -58.6914 C 60.2539 -58.6914 62.207 -60.5469 62.207 -63.4766 C 62.207 -67.7734 57.1289 -69.1895 51.0742 -69.1895 C 41.3574 -69.1895 34.8633 -63.5742 33.3008 -52.5391 L 31.9336 -42.8223 L 18.8477 -42.8223 C 15.918 -42.8223 13.7207 -40.6738 13.7207 -37.793 C 13.7207 -34.9121 15.9668 -32.7637 18.8965 -32.7637 L 30.5176 -32.7637 L 28.6621 -19.5312 C 27.832 -13.4277 25.5859 -11.2793 21.4355 -11.2793 C 17.9688 -11.2793 16.2598 -11.7188 14.5508 -11.7188 C 11.7676 -11.7188 9.76562 -9.86328 9.76562 -6.93359 C 9.76562 -2.58789 14.8438 -1.2207 20.9473 -1.2207 Z"/>
  </g>
  <g id="Bold-S" transform="matrix(1 0 0 1 2303.09 696)">
   <path d="M 21.8262 -1.2207 C 32.0312 -1.2207 38.8184 -7.17773 40.4785 -18.6035 L 42.4316 -32.3242 L 57.0801 -32.3242 C 60.498 -32.3242 63.0859 -34.9121 63.0859 -38.2812 C 63.0859 -41.6504 60.4492 -44.1895 57.0312 -44.1895 L 44.1406 -44.1895 L 45.0684 -50.6836 C 45.8984 -56.3965 47.8027 -58.2031 51.4648 -58.2031 C 54.6875 -58.2031 56.6895 -57.7637 58.3496 -57.7637 C 61.6699 -57.7637 64.0137 -60.0586 64.0137 -63.4766 C 64.0137 -68.3594 58.6914 -70.0684 51.9531 -70.0684 C 41.748 -70.0684 34.9609 -64.1113 33.3008 -52.6855 L 32.0801 -44.1895 L 19.7754 -44.1895 C 16.3574 -44.1895 13.7207 -41.6504 13.7207 -38.2812 C 13.7207 -34.9121 16.4062 -32.3242 19.8242 -32.3242 L 30.3711 -32.3242 L 28.7109 -20.6055 C 27.9297 -14.8926 26.0254 -13.0859 22.3145 -13.0859 C 19.0918 -13.0859 17.0898 -13.5254 15.4297 -13.5254 C 12.1094 -13.5254 9.76562 -11.2305 9.76562 -7.86133 C 9.76562 -2.92969 15.0879 -1.2207 21.8262 -1.2207 Z"/>
  </g>
  <g id="Heavy-S" transform="matrix(1 0 0 1 2598.48 696)">
   <path d="M 23.1445 -1.26953 C 34.0332 -1.26953 41.2598 -7.66602 43.0664 -19.7266 L 44.8242 -31.7383 L 58.3496 -31.7383 C 62.5 -31.7383 65.6738 -34.8145 65.6738 -38.916 C 65.6738 -43.0176 62.4512 -46.1426 58.3008 -46.1426 L 47.0215 -46.1426 L 47.6562 -50.4883 C 48.4375 -55.6152 49.8047 -56.9336 52.7344 -56.9336 C 55.6641 -56.9336 58.0566 -56.4941 59.668 -56.4941 C 63.7695 -56.4941 66.6504 -59.375 66.6504 -63.4277 C 66.6504 -69.1895 60.9863 -71.3379 53.2227 -71.3379 C 42.3828 -71.3379 35.1562 -64.9902 33.3496 -52.8809 L 32.3242 -46.1426 L 21.0449 -46.1426 C 16.9434 -46.1426 13.7695 -43.0176 13.7695 -38.916 C 13.7695 -34.8145 16.9922 -31.7383 21.0938 -31.7383 L 30.1758 -31.7383 L 28.7598 -22.1191 C 27.9785 -17.041 26.6113 -15.6738 23.6328 -15.6738 C 20.752 -15.6738 18.3105 -16.1133 16.748 -16.1133 C 12.6465 -16.1133 9.76562 -13.2324 9.76562 -9.17969 C 9.76562 -3.4668 15.3809 -1.26953 23.1445 -1.26953 Z"/>
  </g>
  <g id="Black-S" transform="matrix(1 0 0 1 2894.04 696)">
   <path d="M 24.3164 -1.31836 C 35.8398 -1.31836 43.4082 -8.05664 45.3613 -20.752 L 46.9727 -31.1523 L 59.5215 -31.1523 C 64.3066 -31.1523 67.9688 -34.7656 67.9688 -39.502 C 67.9688 -44.2383 64.2578 -47.8516 59.4727 -47.8516 L 49.5605 -47.8516 L 49.9512 -50.293 C 50.6836 -54.8828 51.6113 -55.7617 53.9062 -55.7617 C 56.4941 -55.7617 59.3262 -55.3223 60.8398 -55.3223 C 65.625 -55.3223 68.9453 -58.7402 68.9453 -63.4277 C 68.9453 -69.873 63.0371 -72.4609 54.3945 -72.4609 C 42.9199 -72.4609 35.3027 -65.7227 33.3496 -53.0273 L 32.5684 -47.8516 L 22.2168 -47.8516 C 17.4316 -47.8516 13.7695 -44.2383 13.7695 -39.502 C 13.7695 -34.7656 17.4805 -31.1523 22.2656 -31.1523 L 29.9805 -31.1523 L 28.7598 -23.5352 C 28.0762 -18.9941 27.1973 -18.0176 24.8047 -18.0176 C 22.2168 -18.0176 19.4336 -18.457 17.8711 -18.457 C 13.1348 -18.457 9.76562 -15.0391 9.76562 -10.3516 C 9.76562 -3.90625 15.6738 -1.31836 24.3164 -1.31836 Z"/>
  </g>
  <g id="Ultralight-M" transform="matrix(1 0 0 1 520.209 1126)">
   <path d="M 19.6777 6.20117 C 29.5898 6.20117 35.4492 0.683594 37.207 -10.6445 L 41.1133 -36.3281 L 65.2344 -36.3281 C 66.1133 -36.3281 66.5527 -36.7188 66.5527 -37.5 C 66.5527 -38.2324 66.1133 -38.7207 65.1855 -38.7207 L 41.5039 -38.7207 L 44.3359 -57.2266 C 45.8984 -67.334 50.5371 -72.168 58.6914 -72.168 C 63.3301 -72.168 64.9414 -71.4844 65.625 -71.4844 C 66.2598 -71.4844 66.5527 -71.9727 66.5527 -72.5098 C 66.5527 -73.877 62.207 -74.5605 59.3262 -74.5605 C 49.4629 -74.5605 43.5547 -69.043 41.7969 -57.7148 L 38.916 -38.7207 L 17.627 -38.7207 C 16.7969 -38.7207 16.3086 -38.2812 16.3086 -37.5 C 16.3086 -36.7676 16.7969 -36.3281 17.6758 -36.3281 L 38.5254 -36.3281 L 34.668 -11.1328 C 33.1055 -0.976562 28.5156 3.80859 20.3125 3.80859 C 15.6738 3.80859 14.0625 3.125 13.4277 3.125 C 12.7441 3.125 12.4512 3.61328 12.4512 4.15039 C 12.4512 5.51758 16.7969 6.20117 19.6777 6.20117 Z"/>
  </g>
  <g id="Thin-M" transform="matrix(1 0 0 1 816.09 1126)">
   <path d="M 20.6055 6.5918 C 30.7617 6.5918 37.0117 0.878906 38.7207 -10.7422 L 42.4805 -35.6934 L 66.0645 -35.6934 C 67.2852 -35.6934 68.0176 -36.377 68.0176 -37.5 C 68.0176 -38.5742 67.2363 -39.3066 66.0156 -39.3066 L 43.0176 -39.3066 L 45.6543 -56.8848 C 47.1191 -66.748 51.5625 -71.3379 59.4238 -71.3379 C 64.1113 -71.3379 65.7227 -70.6543 66.6504 -70.6543 C 67.6758 -70.6543 68.2129 -71.3379 68.2129 -72.2656 C 68.2129 -74.1699 63.5742 -74.9512 60.0586 -74.9512 C 49.9023 -74.9512 43.7012 -69.2383 41.9434 -57.5684 L 39.209 -39.3066 L 18.457 -39.3066 C 17.2852 -39.3066 16.5527 -38.623 16.5527 -37.5 C 16.5527 -36.4258 17.2852 -35.6934 18.5059 -35.6934 L 38.6719 -35.6934 L 35.0586 -11.4258 C 33.5449 -1.5625 29.1016 2.97852 21.2402 2.97852 C 16.5527 2.97852 14.9902 2.34375 14.0137 2.34375 C 13.0371 2.34375 12.4512 2.97852 12.4512 3.90625 C 12.4512 5.85938 17.1387 6.5918 20.6055 6.5918 Z"/>
  </g>
  <g id="Light-M" transform="matrix(1 0 0 1 1111.17 1126)">
   <path d="M 22.4609 7.32422 C 33.1543 7.32422 39.9902 1.26953 41.748 -10.9863 L 45.1172 -34.5215 L 67.7246 -34.5215 C 69.5312 -34.5215 70.8008 -35.7422 70.8008 -37.5 C 70.8008 -39.2578 69.5312 -40.4785 67.627 -40.4785 L 45.9473 -40.4785 L 48.1934 -56.25 C 49.5605 -65.625 53.6133 -69.7266 60.8398 -69.7266 C 65.625 -69.7266 67.1875 -69.0918 68.75 -69.0918 C 70.3613 -69.0918 71.4355 -70.1172 71.4355 -71.8262 C 71.4355 -74.8047 66.2109 -75.6836 61.4746 -75.6836 C 50.7812 -75.6836 43.8965 -69.6289 42.1875 -57.3242 L 39.7461 -40.4785 L 20.0684 -40.4785 C 18.2617 -40.4785 16.9922 -39.2578 16.9922 -37.5 C 16.9922 -35.7422 18.2617 -34.5215 20.166 -34.5215 L 38.916 -34.5215 L 35.6934 -12.0605 C 34.375 -2.73438 30.2734 1.36719 23.0957 1.36719 C 18.2617 1.36719 16.748 0.732422 15.1855 0.732422 C 13.5742 0.732422 12.4512 1.75781 12.4512 3.4668 C 12.4512 6.44531 17.7246 7.32422 22.4609 7.32422 Z"/>
  </g>
  <g id="Regular-M" transform="matrix(1 0 0 1 1406.66 1126)">
   <path d="M 23.877 7.91016 C 34.9609 7.91016 42.2852 1.5625 43.9941 -11.1816 L 47.1191 -33.6426 L 68.9453 -33.6426 C 71.2402 -33.6426 72.9492 -35.2539 72.9492 -37.5 C 72.9492 -39.7461 71.1914 -41.4062 68.8477 -41.4062 L 48.1445 -41.4062 L 50.1465 -55.7617 C 51.3672 -64.7461 55.1758 -68.5059 61.9141 -68.5059 C 66.7969 -68.5059 68.3105 -67.8711 70.3125 -67.8711 C 72.4121 -67.8711 73.9258 -69.1895 73.9258 -71.4844 C 73.9258 -75.2441 68.1641 -76.2695 62.5 -76.2695 C 51.416 -76.2695 44.0918 -69.9219 42.334 -57.1777 L 40.1855 -41.4062 L 21.2891 -41.4062 C 18.9941 -41.4062 17.2852 -39.7949 17.2852 -37.5 C 17.2852 -35.2539 19.043 -33.6426 21.3867 -33.6426 L 39.1113 -33.6426 L 36.2305 -12.5488 C 35.0098 -3.56445 31.2012 0.146484 24.4629 0.146484 C 19.5801 0.146484 18.0664 -0.439453 16.0645 -0.439453 C 13.9648 -0.439453 12.4512 0.830078 12.4512 3.17383 C 12.4512 6.93359 18.2129 7.91016 23.877 7.91016 Z"/>
  </g>
  <g id="Medium-M" transform="matrix(1 0 0 1 1702.32 1126)">
   <path d="M 24.9512 7.95898 C 36.5234 7.95898 44.2383 1.26953 46.0938 -12.0117 L 49.0234 -33.0566 L 69.9707 -33.0566 C 72.8516 -33.0566 75 -35.1562 75 -37.9883 C 75 -40.7715 72.8027 -42.8711 69.9219 -42.8711 L 50.3906 -42.8711 L 52.1484 -55.5664 C 53.3203 -64.1113 56.7871 -67.4316 62.9395 -67.4316 C 67.5781 -67.4316 69.4336 -66.8457 71.4355 -66.8457 C 74.1211 -66.8457 76.0254 -68.5547 76.0254 -71.4355 C 76.0254 -75.8789 70.0195 -77.1973 63.5254 -77.1973 C 51.9531 -77.1973 44.2383 -70.5566 42.3828 -57.2754 L 40.3809 -42.8711 L 22.3633 -42.8711 C 19.4824 -42.8711 17.334 -40.7715 17.334 -37.9883 C 17.334 -35.1562 19.5312 -33.0566 22.4121 -33.0566 L 39.0137 -33.0566 L 36.3281 -13.6719 C 35.1562 -5.17578 31.6895 -1.80664 25.5371 -1.80664 C 20.8984 -1.80664 19.043 -2.39258 17.041 -2.39258 C 14.3555 -2.39258 12.4512 -0.683594 12.4512 2.19727 C 12.4512 6.64062 18.457 7.95898 24.9512 7.95898 Z"/>
  </g>
  <g id="Semibold-M" transform="matrix(1 0 0 1 1998.22 1126)">
   <path d="M 25.7812 7.95898 C 37.793 7.95898 45.752 1.02539 47.6562 -12.5977 L 50.4883 -32.666 L 70.8008 -32.666 C 74.1211 -32.666 76.5625 -35.0586 76.5625 -38.3301 C 76.5625 -41.5527 74.0723 -43.9941 70.7031 -43.9941 L 52.0996 -43.9941 L 53.7109 -55.4199 C 54.8828 -63.5742 58.0078 -66.6016 63.7207 -66.6016 C 68.2129 -66.6016 70.2637 -66.0645 72.2656 -66.0645 C 75.4395 -66.0645 77.6367 -68.1152 77.6367 -71.3867 C 77.6367 -76.3672 71.4355 -77.9297 64.3555 -77.9297 C 52.3438 -77.9297 44.3359 -70.9961 42.4316 -57.373 L 40.5273 -43.9941 L 23.1934 -43.9941 C 19.873 -43.9941 17.3828 -41.5527 17.3828 -38.3301 C 17.3828 -35.0586 19.9219 -32.666 23.2422 -32.666 L 38.916 -32.666 L 36.377 -14.5508 C 35.2539 -6.39648 32.1289 -3.32031 26.3672 -3.32031 C 21.875 -3.32031 19.8242 -3.90625 17.8223 -3.90625 C 14.6973 -3.90625 12.4512 -1.85547 12.4512 1.46484 C 12.4512 6.39648 18.7012 7.95898 25.7812 7.95898 Z"/>
  </g>
  <g id="Bold-M" transform="matrix(1 0 0 1 2293.86 1126)">
   <path d="M 26.8555 8.00781 C 39.4043 8.00781 47.7539 0.732422 49.7559 -13.4277 L 52.4414 -32.1289 L 71.875 -32.1289 C 75.7324 -32.1289 78.6621 -34.9609 78.6621 -38.7695 C 78.6621 -42.5781 75.6836 -45.459 71.7773 -45.459 L 54.3457 -45.459 L 55.7617 -55.2246 C 56.8848 -62.8906 59.6191 -65.5762 64.7461 -65.5762 C 69.043 -65.5762 71.3867 -64.9902 73.3887 -64.9902 C 77.1484 -64.9902 79.7852 -67.5293 79.7852 -71.3379 C 79.7852 -77.002 73.291 -78.9062 65.3809 -78.9062 C 52.832 -78.9062 44.4824 -71.6309 42.4805 -57.4707 L 40.7227 -45.459 L 24.2188 -45.459 C 20.3613 -45.459 17.4316 -42.5781 17.4316 -38.7695 C 17.4316 -34.9609 20.4102 -32.1289 24.3164 -32.1289 L 38.8184 -32.1289 L 36.4746 -15.6738 C 35.4004 -8.00781 32.666 -5.32227 27.4902 -5.32227 C 23.1934 -5.32227 20.8496 -5.9082 18.8477 -5.9082 C 15.0879 -5.9082 12.4512 -3.36914 12.4512 0.439453 C 12.4512 6.10352 18.9453 8.00781 26.8555 8.00781 Z"/>
  </g>
  <g id="Heavy-M" transform="matrix(1 0 0 1 2589.03 1126)">
   <path d="M 28.418 8.05664 C 41.748 8.05664 50.6348 0.292969 52.7832 -14.5996 L 55.2734 -31.2988 L 73.3887 -31.2988 C 78.0762 -31.2988 81.6895 -34.8145 81.6895 -39.4531 C 81.6895 -44.0918 78.0273 -47.6074 73.3398 -47.6074 L 57.666 -47.6074 L 58.7402 -54.8828 C 59.7656 -61.9141 61.9141 -64.0137 66.2598 -64.0137 C 70.2148 -64.0137 72.998 -63.4277 75 -63.4277 C 79.5898 -63.4277 82.8613 -66.6504 82.8613 -71.2891 C 82.8613 -77.8809 75.9766 -80.3223 66.8945 -80.3223 C 53.5645 -80.3223 44.7266 -72.5586 42.5293 -57.6172 L 41.0645 -47.6074 L 25.7812 -47.6074 C 21.0938 -47.6074 17.5293 -44.0918 17.5293 -39.4531 C 17.5293 -34.8145 21.1426 -31.2988 25.8301 -31.2988 L 38.6719 -31.2988 L 36.5723 -17.334 C 35.5957 -10.3516 33.4473 -8.25195 29.0527 -8.25195 C 25.0977 -8.25195 22.3633 -8.78906 20.3125 -8.78906 C 15.7227 -8.78906 12.4512 -5.61523 12.4512 -0.976562 C 12.4512 5.66406 19.3848 8.05664 28.418 8.05664 Z"/>
  </g>
  <g id="Black-M" transform="matrix(1 0 0 1 2884.35 1126)">
   <path d="M 29.834 8.10547 C 43.8477 8.10547 53.1738 -0.0976562 55.5176 -15.6738 L 57.7637 -30.6152 L 74.8047 -30.6152 C 80.2246 -30.6152 84.375 -34.7168 84.375 -40.0391 C 84.375 -45.4102 80.127 -49.5117 74.707 -49.5117 L 60.5957 -49.5117 L 61.377 -54.6387 C 62.3535 -61.0352 64.0137 -62.6465 67.627 -62.6465 C 71.2402 -62.6465 74.4141 -62.0605 76.4648 -62.0605 C 81.8359 -62.0605 85.5957 -65.8691 85.5957 -71.2402 C 85.5957 -78.7109 78.3691 -81.543 68.2129 -81.543 C 54.1992 -81.543 44.873 -73.3398 42.5781 -57.7637 L 41.3086 -49.5117 L 27.1484 -49.5117 C 21.7285 -49.5117 17.5781 -45.4102 17.5781 -40.0391 C 17.5781 -34.7168 21.8262 -30.6152 27.2461 -30.6152 L 38.4766 -30.6152 L 36.7188 -18.7988 C 35.791 -12.4512 34.1309 -10.8398 30.4688 -10.8398 C 26.8066 -10.8398 23.6816 -11.377 21.6309 -11.377 C 16.2598 -11.377 12.4512 -7.56836 12.4512 -2.24609 C 12.4512 5.27344 19.7266 8.10547 29.834 8.10547 Z"/>
  </g>
  <g id="Ultralight-L" transform="matrix(1 0 0 1 509.101 1556)">
   <path d="M 25 18.0664 C 37.6465 18.0664 45.0684 11.0352 47.3633 -3.41797 L 52.4902 -36.8652 L 83.8379 -36.8652 C 84.7656 -36.8652 85.2539 -37.3047 85.2539 -38.1836 C 85.2539 -38.9648 84.7656 -39.4531 83.7402 -39.4531 L 52.8809 -39.4531 L 56.6406 -63.7695 C 58.6914 -76.9043 64.7461 -83.252 75.4395 -83.252 C 81.3477 -83.252 83.4473 -82.3242 84.1797 -82.3242 C 84.9121 -82.3242 85.1562 -82.9102 85.1562 -83.3984 C 85.1562 -84.9609 79.6875 -85.791 76.2695 -85.791 C 63.623 -85.791 56.1523 -78.7598 53.9062 -64.3066 L 50.0488 -39.4531 L 22.4121 -39.4531 C 21.4355 -39.4531 20.9473 -39.0137 20.9473 -38.1836 C 20.9473 -37.4023 21.4355 -36.8652 22.4609 -36.8652 L 49.6582 -36.8652 L 44.6289 -3.95508 C 42.5781 9.17969 36.5234 15.5273 25.7812 15.5273 C 19.873 15.5273 17.7734 14.5996 17.041 14.5996 C 16.3574 14.5996 16.0645 15.1855 16.0645 15.6738 C 16.0645 17.2363 21.5332 18.0664 25 18.0664 Z"/>
  </g>
  <g id="Thin-L" transform="matrix(1 0 0 1 804.884 1556)">
   <path d="M 26.0254 18.5059 C 38.9648 18.5059 46.8262 11.2305 49.0723 -3.56445 L 54.0039 -36.2305 L 84.7656 -36.2305 C 86.084 -36.2305 86.8652 -36.9141 86.8652 -38.1836 C 86.8652 -39.3066 86.084 -40.1367 84.668 -40.1367 L 54.5898 -40.1367 L 58.1055 -63.3789 C 60.0586 -76.2695 65.918 -82.3242 76.2695 -82.3242 C 82.2266 -82.3242 84.3262 -81.4453 85.4004 -81.4453 C 86.4746 -81.4453 87.0117 -82.1777 87.0117 -83.1543 C 87.0117 -85.3027 81.2012 -86.2305 77.0508 -86.2305 C 64.1113 -86.2305 56.2988 -78.9551 54.0527 -64.1602 L 50.3906 -40.1367 L 23.3398 -40.1367 C 22.0215 -40.1367 21.1914 -39.4043 21.1914 -38.1836 C 21.1914 -37.0117 22.0215 -36.2305 23.3887 -36.2305 L 49.8047 -36.2305 L 44.9707 -4.3457 C 43.0176 8.54492 37.1582 14.5996 26.8555 14.5996 C 20.8496 14.5996 18.75 13.7207 17.7246 13.7207 C 16.6504 13.7207 16.0645 14.4531 16.0645 15.4297 C 16.0645 17.5781 21.875 18.5059 26.0254 18.5059 Z"/>
  </g>
  <g id="Light-L" transform="matrix(1 0 0 1 1099.79 1556)">
   <path d="M 28.0762 19.3359 C 41.6016 19.3359 50.1465 11.6699 52.3926 -3.85742 L 56.9336 -34.8633 L 86.5723 -34.8633 C 88.623 -34.8633 89.9902 -36.1816 89.9902 -38.1836 C 89.9902 -40.0879 88.5742 -41.4551 86.4746 -41.4551 L 57.8613 -41.4551 L 60.9375 -62.6953 C 62.7441 -75 68.2129 -80.5176 77.832 -80.5176 C 83.9355 -80.5176 85.9863 -79.6875 87.6953 -79.6875 C 89.502 -79.6875 90.625 -80.8105 90.625 -82.666 C 90.625 -85.9863 84.1309 -87.0605 78.6133 -87.0605 C 65.0879 -87.0605 56.543 -79.3945 54.2969 -63.8672 L 51.0254 -41.4551 L 25.1465 -41.4551 C 23.0957 -41.4551 21.6797 -40.1367 21.6797 -38.1836 C 21.6797 -36.2305 23.0957 -34.8633 25.1953 -34.8633 L 50.0977 -34.8633 L 45.752 -5.0293 C 43.9453 7.27539 38.5254 12.793 28.9062 12.793 C 22.7539 12.793 20.752 11.9629 18.9941 11.9629 C 17.2363 11.9629 16.0645 13.0859 16.0645 14.9414 C 16.0645 18.2617 22.5586 19.3359 28.0762 19.3359 Z"/>
  </g>
  <g id="Regular-L" transform="matrix(1 0 0 1 1395.13 1556)">
   <path d="M 29.6387 19.9707 C 43.6035 19.9707 52.6855 12.0117 54.9316 -4.05273 L 59.1309 -33.8867 L 87.9395 -33.8867 C 90.5273 -33.8867 92.3828 -35.6445 92.3828 -38.1836 C 92.3828 -40.6738 90.4785 -42.4316 87.8418 -42.4316 L 60.3516 -42.4316 L 63.1348 -62.1582 C 64.7949 -74.0234 69.9219 -79.1504 79.0039 -79.1504 C 85.2539 -79.1504 87.2559 -78.3691 89.4531 -78.3691 C 91.7969 -78.3691 93.3594 -79.7852 93.3594 -82.2754 C 93.3594 -86.5234 86.3281 -87.6953 79.7852 -87.6953 C 65.8203 -87.6953 56.7383 -79.7363 54.4922 -63.6719 L 51.5137 -42.4316 L 26.5137 -42.4316 C 23.877 -42.4316 22.0703 -40.6738 22.0703 -38.1836 C 22.0703 -35.6445 23.9258 -33.8867 26.5625 -33.8867 L 50.293 -33.8867 L 46.3379 -5.56641 C 44.6777 6.29883 39.502 11.4258 30.4688 11.4258 C 24.2188 11.4258 22.2168 10.6445 19.9707 10.6445 C 17.6758 10.6445 16.0645 12.0605 16.0645 14.5508 C 16.0645 18.7988 23.0957 19.9707 29.6387 19.9707 Z"/>
  </g>
  <g id="Medium-L" transform="matrix(1 0 0 1 1690.62 1556)">
   <path d="M 30.9082 20.1172 C 45.459 20.1172 54.9316 11.8164 57.2754 -4.83398 L 61.3281 -33.2031 L 89.1602 -33.2031 C 92.3828 -33.2031 94.6777 -35.4492 94.6777 -38.5742 C 94.6777 -41.6992 92.334 -43.9453 89.0625 -43.9453 L 62.8418 -43.9453 L 65.3809 -61.8652 C 66.9434 -73.2422 71.7285 -77.9297 80.1758 -77.9297 C 86.2305 -77.9297 88.4766 -77.1484 90.7715 -77.1484 C 93.75 -77.1484 95.8008 -79.0527 95.8008 -82.1777 C 95.8008 -87.1582 88.4277 -88.6719 80.957 -88.6719 C 66.4062 -88.6719 56.9336 -80.3711 54.5898 -63.7207 L 51.7578 -43.9453 L 27.6855 -43.9453 C 24.5117 -43.9453 22.168 -41.6992 22.168 -38.5742 C 22.168 -35.498 24.5605 -33.2031 27.7832 -33.2031 L 50.2441 -33.2031 L 46.5332 -6.68945 C 44.9219 4.6875 40.1855 9.375 31.7383 9.375 C 25.6348 9.375 23.3887 8.59375 21.0938 8.59375 C 18.1152 8.59375 16.0645 10.498 16.0645 13.623 C 16.0645 18.6035 23.4375 20.1172 30.9082 20.1172 Z"/>
  </g>
  <g id="Semibold-L" transform="matrix(1 0 0 1 1986.41 1556)">
   <path d="M 31.8848 20.2148 C 46.875 20.2148 56.6895 11.6211 59.082 -5.41992 L 62.9883 -32.666 L 90.0879 -32.666 C 93.75 -32.666 96.4355 -35.3027 96.4355 -38.916 C 96.4355 -42.4805 93.7012 -45.1172 89.9902 -45.1172 L 64.7461 -45.1172 L 67.0898 -61.6211 C 68.6523 -72.6562 73.0469 -77.002 81.0547 -77.002 C 86.9629 -77.002 89.4043 -76.2207 91.7969 -76.2207 C 95.2637 -76.2207 97.6562 -78.5156 97.6562 -82.0801 C 97.6562 -87.6953 90.0391 -89.4531 81.8359 -89.4531 C 66.8945 -89.4531 57.0312 -80.8594 54.6387 -63.7695 L 52.002 -45.1172 L 28.6133 -45.1172 C 24.9512 -45.1172 22.2656 -42.5293 22.2656 -38.916 C 22.2656 -35.3027 25 -32.666 28.7109 -32.666 L 50.1953 -32.666 L 46.6309 -7.56836 C 45.1172 3.41797 40.6738 7.8125 32.666 7.8125 C 26.7578 7.8125 24.3164 7.03125 21.9238 7.03125 C 18.5059 7.03125 16.0645 9.27734 16.0645 12.8906 C 16.0645 18.457 23.7305 20.2148 31.8848 20.2148 Z"/>
  </g>
  <g id="Bold-L" transform="matrix(1 0 0 1 2281.9 1556)">
   <path d="M 33.1543 20.3613 C 48.7305 20.3613 58.9355 11.4258 61.4746 -6.20117 L 65.1367 -31.9824 L 91.3086 -31.9824 C 95.6055 -31.9824 98.7793 -35.1074 98.7793 -39.3555 C 98.7793 -43.5547 95.5566 -46.6797 91.2109 -46.6797 L 67.2363 -46.6797 L 69.3359 -61.3281 C 70.8496 -71.875 74.8535 -75.7812 82.2266 -75.7812 C 87.9395 -75.7812 90.6738 -75 93.1641 -75 C 97.2168 -75 100.098 -77.7344 100.098 -81.9824 C 100.098 -88.3301 92.1387 -90.4297 83.0078 -90.4297 C 67.4805 -90.4297 57.2266 -81.4941 54.6875 -63.8672 L 52.2461 -46.6797 L 29.8828 -46.6797 C 25.5859 -46.6797 22.3633 -43.5547 22.3633 -39.3555 C 22.3633 -35.1074 25.6348 -31.9824 29.9316 -31.9824 L 50.1465 -31.9824 L 46.8262 -8.74023 C 45.3613 1.75781 41.3574 5.71289 33.9844 5.71289 C 28.2227 5.71289 25.5371 4.98047 23.0469 4.98047 C 18.9453 4.98047 16.0645 7.71484 16.0645 11.9141 C 16.0645 18.3105 24.0723 20.3613 33.1543 20.3613 Z"/>
  </g>
  <g id="Heavy-L" transform="matrix(1 0 0 1 2576.83 1556)">
   <path d="M 35.0098 20.6055 C 51.416 20.6055 62.2559 11.1328 64.9414 -7.32422 L 68.3105 -31.0059 L 93.0664 -31.0059 C 98.291 -31.0059 102.197 -34.8145 102.197 -39.9414 C 102.197 -45.0684 98.1934 -48.877 93.0176 -48.877 L 70.8984 -48.877 L 72.6074 -60.9375 C 74.0234 -70.7031 77.4414 -73.9746 83.8867 -73.9746 C 89.3555 -73.9746 92.4805 -73.2422 95.1172 -73.2422 C 100.098 -73.2422 103.662 -76.6602 103.662 -81.8359 C 103.662 -89.3066 95.166 -91.8945 84.7168 -91.8945 C 68.3594 -91.8945 57.4707 -82.4219 54.834 -63.9648 L 52.6367 -48.877 L 31.6406 -48.877 C 26.4648 -48.877 22.5098 -45.0684 22.5098 -39.9414 C 22.5098 -34.8633 26.5137 -31.0059 31.7383 -31.0059 L 50.0488 -31.0059 L 47.1191 -10.3516 C 45.752 -0.634766 42.334 2.68555 35.8398 2.68555 C 30.3711 2.68555 27.2949 1.95312 24.6582 1.95312 C 19.6289 1.95312 16.0645 5.37109 16.0645 10.5469 C 16.0645 18.0176 24.5605 20.6055 35.0098 20.6055 Z"/>
  </g>
  <g id="Black-L" transform="matrix(1 0 0 1 2871.95 1556)">
   <path d="M 36.6699 20.8008 C 53.8086 20.8008 65.2344 10.8398 68.0176 -8.34961 L 71.1426 -30.127 L 94.6777 -30.127 C 100.684 -30.127 105.225 -34.5703 105.225 -40.4785 C 105.225 -46.4355 100.586 -50.8789 94.5801 -50.8789 L 74.1699 -50.8789 L 75.5859 -60.5469 C 76.9043 -69.6777 79.7363 -72.4121 85.4004 -72.4121 C 90.625 -72.4121 94.0918 -71.6797 96.8262 -71.6797 C 102.686 -71.6797 106.836 -75.7324 106.836 -81.6895 C 106.836 -90.1855 97.9004 -93.1641 86.2305 -93.1641 C 69.0918 -93.1641 57.666 -83.2031 54.8828 -64.0137 L 52.9785 -50.8789 L 33.252 -50.8789 C 27.2461 -50.8789 22.6562 -46.4355 22.6562 -40.4785 C 22.6562 -34.5703 27.2949 -30.127 33.3008 -30.127 L 50 -30.127 L 47.3633 -11.8652 C 46.0938 -2.7832 43.2129 0 37.5 0 C 32.2754 0 28.8574 -0.732422 26.0742 -0.732422 C 20.2148 -0.732422 16.0645 3.32031 16.0645 9.27734 C 16.0645 17.7734 25 20.8008 36.6699 20.8008 Z"/>
  </g>
 </g>
</svg>
