<?xml version="1.0" encoding="UTF-8"?>
<!--Generator: Apple Native CoreSVG 123-->
<!DOCTYPE svg
PUBLIC "-//W3C//DTD SVG 1.1//EN"
       "http://www.w3.org/Graphics/SVG/1.1/DTD/svg11.dtd">
<svg version="1.1" xmlns="http://www.w3.org/2000/svg" xmlns:xlink="http://www.w3.org/1999/xlink" width="3300" height="2200">
 <!--glyph: "uni100380.medium", point size: 100.000000, font version: "Version 15.0d4e20", template writer version: "2"-->
 <g id="Notes">
  <rect height="2200" id="artboard" style="fill:white;opacity:1" width="3300" x="0" y="0"/>
  <line id="" style="fill:none;stroke:black;opacity:1;stroke-width:0.5;" x1="263" x2="3036" y1="292" y2="292"/>
  <text style="stroke:none;fill:black;font-family:-apple-system,&quot;SF Pro Display&quot;,&quot;SF Pro Text&quot;,Helvetica,sans-serif;font-weight:bold;" transform="matrix(1 0 0 1 263 322)">Weight/Scale Variations</text>
  <text style="stroke:none;fill:black;font-family:-apple-system,&quot;SF Pro Display&quot;,&quot;SF Pro Text&quot;,Helvetica,sans-serif;text-anchor:middle;" transform="matrix(1 0 0 1 559.711 322)">Ultralight</text>
  <text style="stroke:none;fill:black;font-family:-apple-system,&quot;SF Pro Display&quot;,&quot;SF Pro Text&quot;,Helvetica,sans-serif;text-anchor:middle;" transform="matrix(1 0 0 1 856.422 322)">Thin</text>
  <text style="stroke:none;fill:black;font-family:-apple-system,&quot;SF Pro Display&quot;,&quot;SF Pro Text&quot;,Helvetica,sans-serif;text-anchor:middle;" transform="matrix(1 0 0 1 1153.13 322)">Light</text>
  <text style="stroke:none;fill:black;font-family:-apple-system,&quot;SF Pro Display&quot;,&quot;SF Pro Text&quot;,Helvetica,sans-serif;text-anchor:middle;" transform="matrix(1 0 0 1 1449.84 322)">Regular</text>
  <text style="stroke:none;fill:black;font-family:-apple-system,&quot;SF Pro Display&quot;,&quot;SF Pro Text&quot;,Helvetica,sans-serif;text-anchor:middle;" transform="matrix(1 0 0 1 1746.56 322)">Medium</text>
  <text style="stroke:none;fill:black;font-family:-apple-system,&quot;SF Pro Display&quot;,&quot;SF Pro Text&quot;,Helvetica,sans-serif;text-anchor:middle;" transform="matrix(1 0 0 1 2043.27 322)">Semibold</text>
  <text style="stroke:none;fill:black;font-family:-apple-system,&quot;SF Pro Display&quot;,&quot;SF Pro Text&quot;,Helvetica,sans-serif;text-anchor:middle;" transform="matrix(1 0 0 1 2339.98 322)">Bold</text>
  <text style="stroke:none;fill:black;font-family:-apple-system,&quot;SF Pro Display&quot;,&quot;SF Pro Text&quot;,Helvetica,sans-serif;text-anchor:middle;" transform="matrix(1 0 0 1 2636.69 322)">Heavy</text>
  <text style="stroke:none;fill:black;font-family:-apple-system,&quot;SF Pro Display&quot;,&quot;SF Pro Text&quot;,Helvetica,sans-serif;text-anchor:middle;" transform="matrix(1 0 0 1 2933.4 322)">Black</text>
  <line id="" style="fill:none;stroke:black;opacity:1;stroke-width:0.5;" x1="263" x2="3036" y1="1903" y2="1903"/>
  <g id="" transform="matrix(1 0 0 1 263 1933)">
   <path d="M 9.24805 0.830078 C 13.5547 0.830078 17.1387 -2.74414 17.1387 -7.05078 C 17.1387 -11.3574 13.5449 -14.9316 9.23828 -14.9316 C 4.94141 -14.9316 1.36719 -11.3574 1.36719 -7.05078 C 1.36719 -2.74414 4.95117 0.830078 9.24805 0.830078 Z M 9.24805 -0.654297 C 5.70312 -0.654297 2.87109 -3.49609 2.87109 -7.05078 C 2.87109 -10.6055 5.69336 -13.4473 9.23828 -13.4473 C 12.793 -13.4473 15.6348 -10.6055 15.6445 -7.05078 C 15.6543 -3.49609 12.8027 -0.654297 9.24805 -0.654297 Z M 9.22852 -3.42773 C 9.69727 -3.42773 9.9707 -3.74023 9.9707 -4.25781 L 9.9707 -6.31836 L 12.1973 -6.31836 C 12.6953 -6.31836 13.0371 -6.57227 13.0371 -7.04102 C 13.0371 -7.51953 12.7148 -7.7832 12.1973 -7.7832 L 9.9707 -7.7832 L 9.9707 -10.0098 C 9.9707 -10.5273 9.69727 -10.8496 9.22852 -10.8496 C 8.75977 -10.8496 8.50586 -10.5078 8.50586 -10.0098 L 8.50586 -7.7832 L 6.29883 -7.7832 C 5.78125 -7.7832 5.44922 -7.51953 5.44922 -7.04102 C 5.44922 -6.57227 5.80078 -6.31836 6.29883 -6.31836 L 8.50586 -6.31836 L 8.50586 -4.25781 C 8.50586 -3.75977 8.75977 -3.42773 9.22852 -3.42773 Z"/>
  </g>
  <g id="" transform="matrix(1 0 0 1 281.506 1933)">
   <path d="M 11.709 2.91016 C 17.1484 2.91016 21.6699 -1.60156 21.6699 -7.05078 C 21.6699 -12.4902 17.1387 -17.0117 11.6992 -17.0117 C 6.25 -17.0117 1.74805 -12.4902 1.74805 -7.05078 C 1.74805 -1.60156 6.25977 2.91016 11.709 2.91016 Z M 11.709 1.25 C 7.09961 1.25 3.41797 -2.44141 3.41797 -7.05078 C 3.41797 -11.6504 7.08984 -15.3516 11.6992 -15.3516 C 16.2988 -15.3516 20 -11.6504 20.0098 -7.05078 C 20.0195 -2.44141 16.3086 1.25 11.709 1.25 Z M 11.6797 -2.41211 C 12.207 -2.41211 12.5195 -2.77344 12.5195 -3.33984 L 12.5195 -6.23047 L 15.5762 -6.23047 C 16.123 -6.23047 16.5039 -6.51367 16.5039 -7.03125 C 16.5039 -7.55859 16.1426 -7.86133 15.5762 -7.86133 L 12.5195 -7.86133 L 12.5195 -10.9277 C 12.5195 -11.5039 12.207 -11.8555 11.6797 -11.8555 C 11.1621 -11.8555 10.8789 -11.4844 10.8789 -10.9277 L 10.8789 -7.86133 L 7.83203 -7.86133 C 7.25586 -7.86133 6.89453 -7.55859 6.89453 -7.03125 C 6.89453 -6.51367 7.28516 -6.23047 7.83203 -6.23047 L 10.8789 -6.23047 L 10.8789 -3.33984 C 10.8789 -2.79297 11.1621 -2.41211 11.6797 -2.41211 Z"/>
  </g>
  <g id="" transform="matrix(1 0 0 1 304.914 1933)">
   <path d="M 14.9707 5.67383 C 21.9336 5.67383 27.6855 -0.078125 27.6855 -7.04102 C 27.6855 -14.0039 21.9238 -19.7559 14.9609 -19.7559 C 7.99805 -19.7559 2.25586 -14.0039 2.25586 -7.04102 C 2.25586 -0.078125 8.00781 5.67383 14.9707 5.67383 Z M 14.9707 3.85742 C 8.92578 3.85742 4.08203 -1.00586 4.08203 -7.04102 C 4.08203 -13.0762 8.91602 -17.9395 14.9609 -17.9395 C 20.9961 -17.9395 25.8594 -13.0762 25.8691 -7.04102 C 25.8789 -1.00586 21.0059 3.85742 14.9707 3.85742 Z M 14.9414 -1.06445 C 15.5176 -1.06445 15.8594 -1.45508 15.8594 -2.06055 L 15.8594 -6.13281 L 20.0977 -6.13281 C 20.6934 -6.13281 21.1133 -6.46484 21.1133 -7.02148 C 21.1133 -7.59766 20.7227 -7.93945 20.0977 -7.93945 L 15.8594 -7.93945 L 15.8594 -12.1875 C 15.8594 -12.8027 15.5176 -13.1934 14.9414 -13.1934 C 14.3848 -13.1934 14.0625 -12.7832 14.0625 -12.1875 L 14.0625 -7.93945 L 9.82422 -7.93945 C 9.20898 -7.93945 8.80859 -7.59766 8.80859 -7.02148 C 8.80859 -6.46484 9.23828 -6.13281 9.82422 -6.13281 L 14.0625 -6.13281 L 14.0625 -2.06055 C 14.0625 -1.47461 14.3848 -1.06445 14.9414 -1.06445 Z"/>
  </g>
  <text style="stroke:none;fill:black;font-family:-apple-system,&quot;SF Pro Display&quot;,&quot;SF Pro Text&quot;,Helvetica,sans-serif;font-weight:bold;" transform="matrix(1 0 0 1 263 1953)">Design Variations</text>
  <text style="stroke:none;fill:black;font-family:-apple-system,&quot;SF Pro Display&quot;,&quot;SF Pro Text&quot;,Helvetica,sans-serif;" transform="matrix(1 0 0 1 263 1971)">Symbols are supported in up to nine weights and three scales.</text>
  <text style="stroke:none;fill:black;font-family:-apple-system,&quot;SF Pro Display&quot;,&quot;SF Pro Text&quot;,Helvetica,sans-serif;" transform="matrix(1 0 0 1 263 1989)">For optimal layout with text and other symbols, vertically align</text>
  <text style="stroke:none;fill:black;font-family:-apple-system,&quot;SF Pro Display&quot;,&quot;SF Pro Text&quot;,Helvetica,sans-serif;" transform="matrix(1 0 0 1 263 2007)">symbols with the adjacent text.</text>
  <rect height="14" id="" style="fill:#00AEEF;stroke:none;opacity:0.4;" width="3" x="776" y="1919"/>
  <g id="" transform="matrix(1 0 0 1 779 1933)">
   <path d="M 10.5273 0 L 12.373 0 L 7.17773 -14.0918 L 5.43945 -14.0918 L 0.244141 0 L 2.08984 0 L 3.50586 -4.0332 L 9.11133 -4.0332 Z M 6.2793 -11.9531 L 6.33789 -11.9531 L 8.59375 -5.52734 L 4.02344 -5.52734 Z"/>
  </g>
  <rect height="14" id="" style="fill:#00AEEF;stroke:none;opacity:0.4;" width="3" x="791.617" y="1919"/>
  <text style="stroke:none;fill:black;font-family:-apple-system,&quot;SF Pro Display&quot;,&quot;SF Pro Text&quot;,Helvetica,sans-serif;font-weight:bold;" transform="matrix(1 0 0 1 776 1953)">Side Bearings</text>
  <text style="stroke:none;fill:black;font-family:-apple-system,&quot;SF Pro Display&quot;,&quot;SF Pro Text&quot;,Helvetica,sans-serif;" transform="matrix(1 0 0 1 776 1971)">Horizontal padding on the left and right side of each symbol</text>
  <text style="stroke:none;fill:black;font-family:-apple-system,&quot;SF Pro Display&quot;,&quot;SF Pro Text&quot;,Helvetica,sans-serif;" transform="matrix(1 0 0 1 776 1989)">can be adjusted by modifying the width of the blue rectangles.</text>
  <text style="stroke:none;fill:black;font-family:-apple-system,&quot;SF Pro Display&quot;,&quot;SF Pro Text&quot;,Helvetica,sans-serif;" transform="matrix(1 0 0 1 776 2007)">Modifications are automatically applied proportionally to all</text>
  <text style="stroke:none;fill:black;font-family:-apple-system,&quot;SF Pro Display&quot;,&quot;SF Pro Text&quot;,Helvetica,sans-serif;" transform="matrix(1 0 0 1 776 2025)">scales and weights.</text>
  <g id="" transform="matrix(1 0 0 1 1289 1933)">
   <path d="M 2.96875 2.35352 L 3.80859 3.19336 C 4.84375 4.22852 6.12305 4.15039 7.19727 2.97852 L 16.1621 -6.82617 C 16.5527 -6.74805 16.9629 -6.8457 17.4902 -7.02148 C 18.1738 -7.25586 18.2715 -7.25586 18.3887 -7.13867 C 18.5352 -7.01172 18.4863 -6.89453 18.2422 -6.25 C 17.8809 -5.33203 17.8125 -4.79492 18.5547 -4.02344 L 19.4238 -3.13477 C 20.2734 -2.24609 21.3281 -2.26562 22.2168 -3.14453 L 25.0586 -5.97656 C 25.9473 -6.86523 25.957 -7.92969 25.0781 -8.7793 L 24.1797 -9.64844 C 23.4082 -10.4004 22.8711 -10.3516 21.9629 -9.98047 C 21.3184 -9.72656 21.2012 -9.6875 21.0645 -9.81445 C 20.9375 -9.93164 20.9473 -10.0391 21.1816 -10.7129 C 21.5332 -11.6895 21.5723 -12.2852 20.752 -13.0957 L 19.3359 -14.5117 C 15.1953 -18.6133 11.2305 -18.7402 7.65625 -15.4395 C 7.08008 -14.9023 6.99219 -14.1504 7.53906 -13.6133 L 7.79297 -13.3594 C 8.22266 -12.9297 8.86719 -12.8418 9.41406 -13.1152 C 11.0645 -13.9453 12.2559 -14.0234 13.457 -12.9785 L 13.0273 -11.416 C 12.8516 -10.8008 12.793 -10.3418 12.9199 -9.93164 L 3.18359 -1.04492 C 2.02148 0.0292969 1.93359 1.32812 2.96875 2.35352 Z M 8.96484 -14.4922 C 8.89648 -14.5703 8.86719 -14.6582 8.99414 -14.7559 C 11.709 -17.2852 15.0391 -16.8457 18.3496 -13.5254 L 19.6973 -12.168 C 20.0879 -11.7773 20.0977 -11.582 19.8828 -10.8691 C 19.6582 -10.127 19.502 -9.53125 20.1465 -8.88672 C 20.8105 -8.22266 21.2891 -8.41797 22.207 -8.63281 C 22.9004 -8.79883 23.0664 -8.79883 23.4473 -8.41797 L 24.0918 -7.77344 C 24.4043 -7.48047 24.4141 -7.32422 24.0723 -6.97266 L 21.2207 -4.13086 C 20.8887 -3.79883 20.7227 -3.79883 20.4297 -4.10156 L 19.7852 -4.75586 C 19.4141 -5.13672 19.4141 -5.30273 19.5801 -6.01562 C 19.7852 -6.88477 19.9805 -7.38281 19.3262 -8.04688 C 18.6719 -8.7207 18.0762 -8.57422 17.3438 -8.33008 C 16.5625 -8.06641 16.3281 -8.06641 15.8984 -8.49609 L 14.6094 -9.78516 C 14.1699 -10.2246 14.1309 -10.4395 14.2676 -10.9082 L 15.0293 -13.3984 C 13.3887 -15.2832 11.4941 -15.5566 9.20898 -14.4434 C 9.11133 -14.3945 9.04297 -14.4141 8.96484 -14.4922 Z M 3.96484 1.36719 C 3.52539 0.927734 3.54492 0.537109 4.14062 -0.00976562 L 13.7402 -8.81836 L 15 -7.55859 L 6.17188 2.02148 C 5.625 2.60742 5.24414 2.64648 4.79492 2.19727 Z"/>
  </g>
  <text style="stroke:none;fill:black;font-family:-apple-system,&quot;SF Pro Display&quot;,&quot;SF Pro Text&quot;,Helvetica,sans-serif;font-weight:bold;" transform="matrix(1 0 0 1 1289 1953)">Exporting</text>
  <text style="stroke:none;fill:black;font-family:-apple-system,&quot;SF Pro Display&quot;,&quot;SF Pro Text&quot;,Helvetica,sans-serif;" transform="matrix(1 0 0 1 1289 1971)">Symbols should be outlined when exporting to ensure the</text>
  <text style="stroke:none;fill:black;font-family:-apple-system,&quot;SF Pro Display&quot;,&quot;SF Pro Text&quot;,Helvetica,sans-serif;" transform="matrix(1 0 0 1 1289 1989)">design is preserved when submitting to Xcode.</text>
  <text id="template-version" style="stroke:none;fill:black;font-family:-apple-system,&quot;SF Pro Display&quot;,&quot;SF Pro Text&quot;,Helvetica,sans-serif;text-anchor:end;" transform="matrix(1 0 0 1 3036 1933)">Template v.0.1</text>
  <text style="stroke:none;fill:black;font-family:-apple-system,&quot;SF Pro Display&quot;,&quot;SF Pro Text&quot;,Helvetica,sans-serif;text-anchor:end;" transform="matrix(1 0 0 1 3036 1951)">Generated from gobackward</text>
  <text style="stroke:none;fill:black;font-family:-apple-system,&quot;SF Pro Display&quot;,&quot;SF Pro Text&quot;,Helvetica,sans-serif;text-anchor:end;" transform="matrix(1 0 0 1 3036 1969)">Typeset at 100 points</text>
  <text style="stroke:none;fill:black;font-family:-apple-system,&quot;SF Pro Display&quot;,&quot;SF Pro Text&quot;,Helvetica,sans-serif;" transform="matrix(1 0 0 1 263 726)">Small</text>
  <text style="stroke:none;fill:black;font-family:-apple-system,&quot;SF Pro Display&quot;,&quot;SF Pro Text&quot;,Helvetica,sans-serif;" transform="matrix(1 0 0 1 263 1156)">Medium</text>
  <text style="stroke:none;fill:black;font-family:-apple-system,&quot;SF Pro Display&quot;,&quot;SF Pro Text&quot;,Helvetica,sans-serif;" transform="matrix(1 0 0 1 263 1586)">Large</text>
 </g>
 <g id="Guides">
  <g id="H-reference" style="fill:#27AAE1;stroke:none;" transform="matrix(1 0 0 1 339 696)">
   <path d="M 54.9316 0 L 57.666 0 L 30.5664 -70.459 L 28.0762 -70.459 L 0.976562 0 L 3.66211 0 L 12.9395 -24.4629 L 45.7031 -24.4629 Z M 29.1992 -67.0898 L 29.4434 -67.0898 L 44.8242 -26.709 L 13.8184 -26.709 Z"/>
  </g>
  <line id="Baseline-S" style="fill:none;stroke:#27AAE1;opacity:1;stroke-width:0.577;" x1="263" x2="3036" y1="696" y2="696"/>
  <line id="Capline-S" style="fill:none;stroke:#27AAE1;opacity:1;stroke-width:0.577;" x1="263" x2="3036" y1="625.541" y2="625.541"/>
  <g id="H-reference" style="fill:#27AAE1;stroke:none;" transform="matrix(1 0 0 1 339 1126)">
   <path d="M 54.9316 0 L 57.666 0 L 30.5664 -70.459 L 28.0762 -70.459 L 0.976562 0 L 3.66211 0 L 12.9395 -24.4629 L 45.7031 -24.4629 Z M 29.1992 -67.0898 L 29.4434 -67.0898 L 44.8242 -26.709 L 13.8184 -26.709 Z"/>
  </g>
  <line id="Baseline-M" style="fill:none;stroke:#27AAE1;opacity:1;stroke-width:0.577;" x1="263" x2="3036" y1="1126" y2="1126"/>
  <line id="Capline-M" style="fill:none;stroke:#27AAE1;opacity:1;stroke-width:0.577;" x1="263" x2="3036" y1="1055.54" y2="1055.54"/>
  <g id="H-reference" style="fill:#27AAE1;stroke:none;" transform="matrix(1 0 0 1 339 1556)">
   <path d="M 54.9316 0 L 57.666 0 L 30.5664 -70.459 L 28.0762 -70.459 L 0.976562 0 L 3.66211 0 L 12.9395 -24.4629 L 45.7031 -24.4629 Z M 29.1992 -67.0898 L 29.4434 -67.0898 L 44.8242 -26.709 L 13.8184 -26.709 Z"/>
  </g>
  <line id="Baseline-L" style="fill:none;stroke:#27AAE1;opacity:1;stroke-width:0.577;" x1="263" x2="3036" y1="1556" y2="1556"/>
  <line id="Capline-L" style="fill:none;stroke:#27AAE1;opacity:1;stroke-width:0.577;" x1="263" x2="3036" y1="1485.54" y2="1485.54"/>
  <rect height="119.336" id="left-margin" style="fill:#00AEEF;stroke:none;opacity:0.4;" width="8.74023" x="1392.62" y="1030.79"/>
  <rect height="119.336" id="right-margin" style="fill:#00AEEF;stroke:none;opacity:0.4;" width="8.74023" x="1498.33" y="1030.79"/>
 </g>
 <g id="Symbols">
  <g id="Ultralight-S" transform="matrix(1 0 0 1 516.547 696)">
   <path d="M 43.1641 1.07422 C 63.1348 1.07422 79.4922 -15.2832 79.4922 -35.2539 C 79.4922 -53.6621 65.5762 -68.9941 47.7539 -71.2891 L 47.7539 -76.4648 C 47.7539 -77.9297 46.1914 -78.4668 45.0195 -77.5391 L 36.4746 -71.0938 C 35.4492 -70.3613 35.4004 -68.8965 36.4746 -68.1152 L 45.0195 -61.6211 C 46.1914 -60.6934 47.7539 -61.2793 47.7539 -62.6953 L 47.7539 -68.9453 C 64.3555 -66.748 77.1973 -52.4414 77.1973 -35.2539 C 77.1973 -16.5039 61.9141 -1.2207 43.1641 -1.2207 C 24.4141 -1.2207 9.13086 -16.5039 9.13086 -35.2539 C 9.13086 -47.6074 15.7227 -58.5449 25.7324 -64.4531 C 26.3672 -64.8438 26.416 -65.5762 26.123 -66.0645 C 25.8301 -66.5527 25.1953 -66.7969 24.3652 -66.3086 C 13.916 -59.9609 6.83594 -48.3887 6.83594 -35.2539 C 6.83594 -15.2832 23.291 1.07422 43.1641 1.07422 Z"/>
  </g>
  <g id="Thin-S" transform="matrix(1 0 0 1 812.794 696)">
   <path d="M 43.6523 1.5625 C 63.8184 1.5625 80.4199 -15.0391 80.4199 -35.2539 C 80.4199 -53.7598 66.5039 -69.1895 48.6816 -71.6797 L 48.6816 -76.5137 C 48.6816 -78.3203 46.8262 -79.0039 45.4102 -77.8809 L 36.377 -71.0449 C 35.2539 -70.2148 35.2051 -68.6523 36.377 -67.7734 L 45.4102 -60.9863 C 46.8262 -59.9121 48.6816 -60.5469 48.6816 -62.3047 L 48.6816 -68.1641 C 64.6973 -65.7715 76.9531 -51.9531 76.9531 -35.2539 C 76.9531 -16.8457 62.0605 -1.95312 43.6523 -1.95312 C 25.2441 -1.9043 10.3027 -16.8457 10.3027 -35.2539 C 10.3027 -47.0703 16.4551 -57.5195 25.8301 -63.3789 C 26.8066 -64.0625 26.8555 -65.1367 26.416 -65.8203 C 25.9277 -66.5527 24.9023 -66.8945 23.7793 -66.1133 C 13.623 -59.668 6.83594 -48.1934 6.83594 -35.2539 C 6.83594 -15.1855 23.8281 1.5625 43.6523 1.5625 Z"/>
  </g>
  <g id="Light-S" transform="matrix(1 0 0 1 1108.6 696)">
   <path d="M 44.5312 2.44141 C 65.1367 2.44141 82.2266 -14.6484 82.2266 -35.2539 C 82.2266 -53.8574 68.3105 -69.5801 50.4395 -72.4609 L 50.4395 -76.6113 C 50.4395 -79.1016 48.0469 -79.9316 46.1426 -78.4668 L 36.1816 -71.0449 C 34.8633 -70.0684 34.8633 -68.1641 36.1816 -67.1875 L 46.1426 -59.7656 C 48.0469 -58.3496 50.4395 -59.1797 50.4395 -61.5723 L 50.4395 -66.6504 C 65.2832 -63.916 76.4648 -50.9277 76.4648 -35.2539 C 76.4648 -17.5293 62.207 -3.32031 44.5312 -3.27148 C 26.8066 -3.27148 12.5488 -17.5293 12.5488 -35.2051 C 12.5488 -45.9961 17.8711 -55.5176 26.0254 -61.2305 C 27.6367 -62.5 27.7344 -64.3066 26.9043 -65.4297 C 26.123 -66.5527 24.4141 -67.041 22.6074 -65.6738 C 13.1348 -59.082 6.83594 -47.7539 6.83594 -35.2051 C 6.83594 -14.9414 24.9023 2.44141 44.5312 2.44141 Z"/>
  </g>
  <g id="Regular-S" transform="matrix(1 0 0 1 1404.65 696)">
   <path d="M 45.2148 3.17383 C 66.1133 3.17383 83.5449 -14.3066 83.5449 -35.2539 C 83.5449 -53.9551 69.6777 -69.873 51.7578 -73.0469 L 51.7578 -76.709 C 51.7578 -79.6875 49.0234 -80.6641 46.6797 -78.9062 L 36.0352 -70.9961 C 34.5703 -69.9219 34.5703 -67.8223 36.0352 -66.748 L 46.6797 -58.8379 C 48.9746 -57.1289 51.7578 -58.1543 51.7578 -61.0352 L 51.7578 -65.4785 C 65.7715 -62.5 76.123 -50.1953 76.123 -35.2539 C 76.123 -18.0664 62.3535 -4.3457 45.2148 -4.29688 C 28.0273 -4.24805 14.2578 -18.0176 14.2578 -35.2051 C 14.2578 -45.2148 18.9453 -53.9551 26.1719 -59.668 C 28.3203 -61.3281 28.418 -63.623 27.3438 -65.0879 C 26.2695 -66.5527 24.0234 -67.1875 21.6797 -65.3809 C 12.6953 -58.6914 6.83594 -47.4609 6.83594 -35.2051 C 6.83594 -14.7461 25.6836 3.17383 45.2148 3.17383 Z"/>
  </g>
  <g id="Medium-S" transform="matrix(1 0 0 1 1700.54 696)">
   <path d="M 46.0449 3.95508 C 67.4805 3.95508 85.2051 -13.8184 85.2051 -35.2539 C 85.2051 -54.1992 71.3379 -70.2637 53.3203 -73.7305 L 53.3203 -77.7832 C 53.3203 -81.0059 50.2441 -82.0312 47.8516 -80.1758 L 35.8887 -71.0938 C 34.375 -69.9219 34.375 -67.7246 35.8887 -66.5527 L 47.8516 -57.5195 C 50.1953 -55.7129 53.3203 -56.6895 53.3203 -59.8633 L 53.3203 -64.5508 C 66.5527 -61.3281 76.2695 -49.5117 76.2695 -35.2539 C 76.2695 -18.457 62.793 -5.07812 46.0449 -5.0293 C 29.248 -4.98047 15.7715 -18.457 15.7715 -35.2051 C 15.7715 -44.5801 20.0195 -52.7344 26.6602 -58.3496 C 28.9551 -60.4004 29.248 -63.1836 27.6855 -65.0391 C 26.2207 -66.7969 23.584 -67.2363 20.8984 -65.0391 C 12.4023 -58.4961 6.83594 -46.9727 6.83594 -35.2051 C 6.83594 -14.1113 25.6836 3.95508 46.0449 3.95508 Z"/>
  </g>
  <g id="Semibold-S" transform="matrix(1 0 0 1 1996.61 696)">
   <path d="M 46.6797 4.58984 C 68.5059 4.58984 86.4746 -13.4277 86.4746 -35.2539 C 86.4746 -54.3945 72.6562 -70.5566 54.541 -74.2676 L 54.541 -78.6133 C 54.541 -82.0801 51.2207 -83.0566 48.7305 -81.1035 L 35.791 -71.1914 C 34.1797 -69.9707 34.1797 -67.627 35.791 -66.4062 L 48.7305 -56.543 C 51.1719 -54.6387 54.541 -55.6152 54.541 -58.9844 L 54.541 -63.8672 C 67.1387 -60.4492 76.3672 -48.9746 76.3672 -35.2539 C 76.3672 -18.7988 63.1348 -5.56641 46.6797 -5.56641 C 30.2246 -5.51758 16.9434 -18.75 16.9434 -35.2051 C 16.9434 -44.0918 20.8008 -51.7578 27.002 -57.373 C 29.3945 -59.7168 29.8828 -62.793 27.9785 -64.9414 C 26.1719 -66.9434 23.1934 -67.2363 20.2637 -64.7949 C 12.207 -58.3496 6.83594 -46.582 6.83594 -35.2051 C 6.83594 -13.6719 25.6836 4.58984 46.6797 4.58984 Z"/>
  </g>
  <g id="Bold-S" transform="matrix(1 0 0 1 2292.47 696)">
   <path d="M 47.5098 5.41992 C 69.8242 5.41992 88.1836 -12.8906 88.1836 -35.2539 C 88.1836 -54.6387 74.3652 -70.9961 56.1035 -75 L 56.1035 -79.6875 C 56.1035 -83.3984 52.4902 -84.375 49.9023 -82.373 L 35.6445 -71.2891 C 33.9844 -70.0195 33.9844 -67.4805 35.6445 -66.2109 L 49.9023 -55.1758 C 52.4414 -53.2227 56.1035 -54.1504 56.1035 -57.8125 L 56.1035 -62.9395 C 67.9688 -59.2773 76.4648 -48.291 76.4648 -35.2539 C 76.4648 -19.1895 63.5254 -6.29883 47.5098 -6.25 C 31.4453 -6.25 18.5059 -19.1895 18.5059 -35.2539 C 18.5059 -43.5059 21.875 -50.4883 27.4902 -56.0547 C 30.0293 -58.7891 30.7129 -62.3535 28.3203 -64.8926 C 26.1719 -67.1875 22.7051 -67.2852 19.4824 -64.4531 C 11.9141 -58.1543 6.83594 -46.0449 6.83594 -35.2539 C 6.83594 -13.0371 25.6836 5.41992 47.5098 5.41992 Z"/>
  </g>
  <g id="Heavy-S" transform="matrix(1 0 0 1 2587.98 696)">
   <path d="M 48.7305 6.64062 C 71.7773 6.64062 90.5762 -12.1582 90.5762 -35.2539 C 90.5762 -55.0293 76.8555 -71.582 58.4473 -75.9766 L 58.4473 -81.2988 C 58.4473 -85.4004 54.3457 -86.377 51.5625 -84.1797 L 35.4004 -71.4844 C 33.6914 -70.0684 33.6914 -67.334 35.4004 -65.918 L 51.5625 -53.2715 C 54.2969 -51.123 58.4473 -52.0508 58.4473 -56.1035 L 58.4473 -61.4746 C 69.0918 -57.5195 76.6602 -47.3145 76.6602 -35.2539 C 76.6602 -19.8242 64.1602 -7.32422 48.7305 -7.32422 C 33.252 -7.32422 20.752 -19.8242 20.752 -35.2539 C 20.752 -42.5781 23.4375 -48.6816 28.1738 -54.1504 C 30.957 -57.4219 31.9824 -61.6211 28.8574 -64.7461 C 26.123 -67.5293 22.0215 -67.3828 18.2617 -63.9648 C 11.4746 -57.8613 6.83594 -45.3125 6.83594 -35.2539 C 6.83594 -12.1582 25.6348 6.64062 48.7305 6.64062 Z"/>
  </g>
  <g id="Black-S" transform="matrix(1 0 0 1 2883.6 696)">
   <path d="M 49.8047 7.71484 C 73.5352 7.71484 92.7734 -11.5234 92.7734 -35.2539 C 92.7734 -55.3223 79.0527 -72.1191 60.498 -76.9043 L 60.498 -82.7148 C 60.498 -87.1582 55.957 -88.1348 53.0762 -85.791 L 35.2051 -71.6309 C 33.3984 -70.1172 33.3984 -67.1387 35.2051 -65.6738 L 53.0762 -51.5137 C 55.9082 -49.2676 60.498 -50.1465 60.498 -54.5898 L 60.498 -60.1074 C 70.1172 -55.957 76.8066 -46.3867 76.8066 -35.2539 C 76.8066 -20.3613 64.6973 -8.20312 49.8047 -8.25195 C 34.9121 -8.25195 22.8027 -20.3613 22.8027 -35.2539 C 22.8027 -41.748 24.8047 -47.0215 28.7598 -52.4414 C 31.7871 -56.2012 33.0566 -61.0352 29.3457 -64.6484 C 26.0742 -67.8223 21.4355 -67.4316 17.2363 -63.5254 C 11.084 -57.6172 6.83594 -44.6777 6.83594 -35.2539 C 6.83594 -11.377 25.6348 7.71484 49.8047 7.71484 Z"/>
  </g>
  <g id="Ultralight-M" transform="matrix(1 0 0 1 504.779 1126)">
   <path d="M 54.9316 10.9375 C 80.3223 10.9375 101.123 -9.86328 101.123 -35.2539 C 101.123 -58.7402 83.3496 -78.2715 60.6445 -81.1035 L 60.6445 -87.8418 C 60.6445 -89.5508 58.6914 -90.2344 57.3242 -89.1602 L 46.582 -81.0059 C 45.3125 -80.0781 45.2637 -78.2715 46.582 -77.2949 L 57.3242 -69.1406 C 58.6914 -68.0664 60.6445 -68.75 60.6445 -70.459 L 60.6445 -78.5645 C 82.0312 -75.8301 98.6328 -57.4219 98.6328 -35.2539 C 98.6328 -11.1816 79.0039 8.44727 54.9316 8.44727 C 30.8594 8.44727 11.2305 -11.1816 11.2305 -35.2539 C 11.2305 -51.2695 19.8242 -65.3809 32.7637 -72.9492 C 33.4961 -73.3398 33.5449 -74.1211 33.252 -74.6582 C 32.959 -75.1953 32.2266 -75.5371 31.3477 -75 C 17.8711 -66.8945 8.74023 -52.0996 8.74023 -35.2539 C 8.74023 -9.86328 29.4922 10.9375 54.9316 10.9375 Z"/>
  </g>
  <g id="Thin-M" transform="matrix(1 0 0 1 800.978 1126)">
   <path d="M 55.4688 11.4746 C 81.1035 11.4746 102.148 -9.61914 102.148 -35.2539 C 102.148 -58.8379 84.375 -78.4668 61.6211 -81.543 L 61.6211 -87.8906 C 61.6211 -90.0391 59.4238 -90.8203 57.7148 -89.502 L 46.4844 -81.0059 C 45.1172 -79.9805 45.0684 -78.0273 46.4844 -76.9531 L 57.7148 -68.457 C 59.4238 -67.1387 61.6211 -67.9199 61.6211 -70.0195 L 61.6211 -77.6855 C 82.373 -74.707 98.3398 -56.8359 98.3398 -35.2539 C 98.3398 -11.5723 79.1504 7.61719 55.4688 7.66602 C 31.7383 7.66602 12.5488 -11.5723 12.5488 -35.2539 C 12.5488 -50.6348 20.6543 -64.209 32.9102 -71.7285 C 33.9844 -72.4609 34.0332 -73.6328 33.5449 -74.4141 C 33.0566 -75.1953 31.9336 -75.5859 30.6641 -74.7559 C 17.5293 -66.5527 8.74023 -51.8555 8.74023 -35.2539 C 8.74023 -9.7168 30.127 11.4746 55.4688 11.4746 Z"/>
  </g>
  <g id="Light-M" transform="matrix(1 0 0 1 1096.69 1126)">
   <path d="M 56.4453 12.5 C 82.5684 12.5 104.199 -9.13086 104.199 -35.2539 C 104.199 -58.9355 86.4258 -78.9062 63.623 -82.4219 L 63.623 -88.0371 C 63.623 -90.918 60.8398 -91.8945 58.5449 -90.1855 L 46.2891 -80.957 C 44.6777 -79.7363 44.6289 -77.4902 46.2891 -76.2695 L 58.5449 -67.0898 C 60.791 -65.3809 63.623 -66.3574 63.623 -69.1895 L 63.623 -75.9766 C 83.1055 -72.6074 97.8027 -55.7129 97.8027 -35.2539 C 97.8027 -12.3535 79.3457 6.05469 56.4453 6.10352 C 33.5449 6.15234 15.0879 -12.3535 15.0879 -35.2051 C 15.0879 -49.4629 22.2168 -61.9629 33.1543 -69.3359 C 34.9609 -70.7031 35.0586 -72.6562 34.1309 -73.9258 C 33.252 -75.1953 31.3965 -75.7812 29.2969 -74.2676 C 16.9434 -65.918 8.74023 -51.416 8.74023 -35.2051 C 8.74023 -9.42383 31.2988 12.5 56.4453 12.5 Z"/>
  </g>
  <g id="Regular-M" transform="matrix(1 0 0 1 1392.62 1126)">
   <path d="M 57.2266 13.2812 C 83.7402 13.2812 105.713 -8.74023 105.713 -35.2539 C 105.713 -59.082 87.9395 -79.248 65.1367 -83.0566 L 65.1367 -88.0859 C 65.1367 -91.5527 61.9141 -92.7246 59.1797 -90.6738 L 46.0938 -80.9082 C 44.3359 -79.5898 44.3359 -77.0996 46.0938 -75.7324 L 59.1797 -66.0156 C 61.8652 -64.0137 65.1367 -65.1855 65.1367 -68.5547 L 65.1367 -74.6582 C 83.5938 -70.9961 97.4121 -54.834 97.4121 -35.2539 C 97.4121 -12.9395 79.4922 4.88281 57.2266 4.93164 C 34.9121 4.98047 16.9922 -12.8906 16.9922 -35.2051 C 16.9922 -48.5352 23.4375 -60.2051 33.3008 -67.5293 C 35.6934 -69.3848 35.791 -71.9238 34.6191 -73.584 C 33.3984 -75.1953 30.957 -75.9277 28.3203 -73.9258 C 16.5039 -65.4297 8.74023 -51.0742 8.74023 -35.2051 C 8.74023 -9.17969 32.2266 13.2812 57.2266 13.2812 Z"/>
  </g>
  <g id="Medium-M" transform="matrix(1 0 0 1 1688.4 1126)">
   <path d="M 58.1543 14.209 C 85.2051 14.209 107.568 -8.20312 107.568 -35.2539 C 107.568 -59.3262 89.8926 -79.6875 66.9434 -83.8867 L 66.9434 -89.209 C 66.9434 -93.0176 63.2812 -94.1895 60.4492 -91.9922 L 45.9473 -81.0059 C 44.0918 -79.5898 44.043 -76.9043 45.9473 -75.4883 L 60.4492 -64.5508 C 63.2324 -62.4023 66.9434 -63.5742 66.9434 -67.2852 L 66.9434 -73.584 C 84.4727 -69.6289 97.5098 -54.0527 97.5098 -35.2539 C 97.5098 -13.4277 79.9805 4.05273 58.1543 4.10156 C 36.3281 4.15039 18.7988 -13.4277 18.7988 -35.2051 C 18.7988 -47.8027 24.6582 -58.7402 33.8379 -65.9668 C 36.4258 -68.2617 36.7188 -71.3867 35.0098 -73.4375 C 33.3984 -75.4395 30.4199 -75.9766 27.3926 -73.5352 C 16.1621 -65.1855 8.74023 -50.4883 8.74023 -35.2051 C 8.74023 -8.54492 32.3242 14.209 58.1543 14.209 Z"/>
  </g>
  <g id="Semibold-M" transform="matrix(1 0 0 1 1984.4 1126)">
   <path d="M 58.8867 14.9414 C 86.377 14.9414 109.033 -7.76367 109.033 -35.2539 C 109.033 -59.5215 91.3574 -80.0293 68.3105 -84.5215 L 68.3105 -90.0879 C 68.3105 -94.1406 64.4043 -95.3125 61.4258 -93.0176 L 45.8008 -81.1035 C 43.8965 -79.6387 43.8965 -76.8066 45.8008 -75.293 L 61.4258 -63.4277 C 64.3066 -61.1816 68.3105 -62.3535 68.3105 -66.3086 L 68.3105 -72.7539 C 85.1562 -68.6035 97.5586 -53.4668 97.5586 -35.2539 C 97.5586 -13.8184 80.3223 3.41797 58.8867 3.41797 C 37.4512 3.4668 20.166 -13.7695 20.166 -35.2051 C 20.166 -47.2168 25.5859 -57.6172 34.1797 -64.7949 C 36.9629 -67.4316 37.4512 -70.9473 35.3516 -73.3398 C 33.3984 -75.6348 30.0293 -76.0254 26.6602 -73.2422 C 15.8691 -64.9902 8.74023 -50.0977 8.74023 -35.2051 C 8.74023 -8.05664 32.4219 14.9414 58.8867 14.9414 Z"/>
  </g>
  <g id="Bold-M" transform="matrix(1 0 0 1 2280.16 1126)">
   <path d="M 59.8145 15.8691 C 87.8906 15.8691 110.938 -7.22656 110.938 -35.2539 C 110.938 -59.8145 93.3105 -80.5176 70.1172 -85.3027 L 70.1172 -91.2109 C 70.1172 -95.6055 65.8203 -96.8262 62.6953 -94.3848 L 45.6543 -81.2012 C 43.6035 -79.6387 43.6035 -76.6113 45.6543 -75.0488 L 62.6953 -61.9141 C 65.7715 -59.5703 70.1172 -60.7422 70.1172 -65.0391 L 70.1172 -71.6309 C 86.0352 -67.1875 97.6562 -52.6367 97.6562 -35.2539 C 97.6562 -14.3066 80.7617 2.53906 59.8145 2.53906 C 38.8672 2.58789 22.0215 -14.3066 22.0215 -35.2539 C 22.0215 -46.4844 26.8555 -56.1035 34.7168 -63.2324 C 37.6953 -66.3086 38.4277 -70.3613 35.791 -73.2422 C 33.3496 -75.8301 29.4922 -76.0742 25.6836 -72.8516 C 15.5273 -64.7461 8.74023 -49.5117 8.74023 -35.2539 C 8.74023 -7.42188 32.5195 15.8691 59.8145 15.8691 Z"/>
  </g>
  <g id="Heavy-M" transform="matrix(1 0 0 1 2575.48 1126)">
   <path d="M 61.1816 17.2363 C 90.0879 17.2363 113.672 -6.39648 113.672 -35.2539 C 113.672 -60.2051 96.0938 -81.1523 72.7051 -86.4746 L 72.7051 -92.8223 C 72.7051 -97.7051 67.8711 -98.9746 64.502 -96.3379 L 45.4102 -81.3965 C 43.2617 -79.6875 43.2617 -76.3672 45.4102 -74.6582 L 64.502 -59.7656 C 67.8223 -57.1777 72.7051 -58.3496 72.7051 -63.1836 L 72.7051 -69.9707 C 87.3047 -65.1367 97.7539 -51.4648 97.7539 -35.2539 C 97.7539 -15.0391 81.4453 1.26953 61.1816 1.31836 C 40.9668 1.31836 24.6582 -15.0391 24.6582 -35.2539 C 24.6582 -45.3613 28.6133 -53.9551 35.4492 -60.9863 C 38.7695 -64.6973 39.7949 -69.5312 36.377 -73.0469 C 33.3496 -76.1719 28.6621 -76.1719 24.3164 -72.3145 C 14.9902 -64.3555 8.74023 -48.6816 8.74023 -35.2539 C 8.74023 -6.49414 32.666 17.2363 61.1816 17.2363 Z"/>
  </g>
  <g id="Black-M" transform="matrix(1 0 0 1 2870.97 1126)">
   <path d="M 62.4512 18.457 C 92.041 18.457 116.162 -5.66406 116.162 -35.2539 C 116.162 -60.5469 98.6328 -81.7871 75.0488 -87.4512 L 75.0488 -94.2871 C 75.0488 -99.6582 69.7266 -100.879 66.1621 -98.0469 L 45.166 -81.543 C 42.9199 -79.6875 42.9199 -76.123 45.166 -74.3164 L 66.1621 -57.8125 C 69.6777 -55.0781 75.0488 -56.25 75.0488 -61.5234 L 75.0488 -68.4082 C 88.4277 -63.2812 97.8516 -50.3906 97.8516 -35.2539 C 97.8516 -15.6738 82.0312 0.195312 62.4512 0.195312 C 42.8711 0.195312 27.002 -15.6738 27.002 -35.2539 C 27.002 -44.3848 30.2246 -52.002 36.084 -58.9844 C 39.6973 -63.2324 41.0645 -68.7988 36.9629 -72.9004 C 33.3496 -76.4648 27.9785 -76.2695 23.0957 -71.7773 C 14.5508 -64.0137 8.74023 -47.9492 8.74023 -35.2539 C 8.74023 -5.61523 32.7637 18.457 62.4512 18.457 Z"/>
  </g>
  <g id="Ultralight-L" transform="matrix(1 0 0 1 489.057 1556)">
   <path d="M 70.6543 24.1211 C 103.32 24.1211 130.029 -2.58789 130.029 -35.2539 C 130.029 -65.5273 107.129 -90.625 77.7832 -94.1895 L 77.7832 -103.125 C 77.7832 -105.176 75.4395 -105.957 73.7793 -104.639 L 60.1074 -94.2871 C 58.5938 -93.1641 58.4961 -90.918 60.1074 -89.6484 L 73.7793 -79.2969 C 75.4395 -77.9785 77.7832 -78.8086 77.7832 -80.8594 L 77.7832 -91.5039 C 105.664 -88.0371 127.393 -64.1113 127.393 -35.2539 C 127.393 -4.00391 101.904 21.4355 70.6543 21.4355 C 39.4043 21.4355 13.916 -4.00391 13.916 -35.2539 C 13.916 -56.2012 25.1953 -74.6582 42.2363 -84.4238 C 43.0176 -84.8145 43.0664 -85.6445 42.7734 -86.2305 C 42.4805 -86.8164 41.748 -87.1582 40.7227 -86.6211 C 23.1445 -76.2207 11.2793 -57.1289 11.2793 -35.2539 C 11.2793 -2.53906 37.793 24.1211 70.6543 24.1211 Z"/>
  </g>
  <g id="Thin-L" transform="matrix(1 0 0 1 785.182 1556)">
   <path d="M 71.2402 24.707 C 104.199 24.707 131.201 -2.29492 131.201 -35.2539 C 131.201 -65.625 108.252 -90.918 78.9062 -94.7266 L 78.9062 -103.174 C 78.9062 -105.664 76.2695 -106.592 74.2188 -105.029 L 60.0098 -94.2871 C 58.3496 -93.0176 58.252 -90.625 60.0098 -89.2578 L 74.2188 -78.5156 C 76.2207 -76.9531 78.9062 -77.9297 78.9062 -80.3711 L 78.9062 -90.5762 C 106.104 -86.8652 127.051 -63.4766 127.051 -35.2539 C 127.051 -4.44336 102.051 20.5566 71.2402 20.5566 C 40.4297 20.5566 15.3809 -4.44336 15.3809 -35.2539 C 15.3809 -55.5176 26.123 -73.3398 42.3828 -83.0566 C 43.5547 -83.7891 43.6523 -85.1074 43.1152 -85.9375 C 42.5781 -86.8164 41.4062 -87.2559 39.9902 -86.377 C 22.8027 -75.8789 11.2793 -56.8359 11.2793 -35.2539 C 11.2793 -2.39258 38.4766 24.707 71.2402 24.707 Z"/>
  </g>
  <g id="Light-L" transform="matrix(1 0 0 1 1080.77 1556)">
   <path d="M 72.3633 25.8789 C 105.859 25.8789 133.447 -1.75781 133.447 -35.2539 C 133.447 -65.7715 110.547 -91.3574 81.1523 -95.7031 L 81.1523 -103.32 C 81.1523 -106.641 77.832 -107.812 75.1465 -105.811 L 59.8145 -94.2383 C 57.8613 -92.7734 57.8125 -90.0391 59.8145 -88.5254 L 75.1465 -77.002 C 77.7832 -75 81.1523 -76.1719 81.1523 -79.4434 L 81.1523 -88.623 C 106.885 -84.4727 126.465 -62.207 126.465 -35.2539 C 126.465 -5.32227 102.295 18.8477 72.3633 18.8477 C 42.4316 18.8965 18.2129 -5.32227 18.2129 -35.2539 C 18.2129 -54.1504 27.9297 -70.8008 42.627 -80.3711 C 44.6289 -81.8359 44.7266 -84.0332 43.7988 -85.4004 C 42.8223 -86.8164 40.7715 -87.4512 38.4766 -85.8398 C 22.168 -75.1465 11.2793 -56.3477 11.2793 -35.2539 C 11.2793 -2.05078 39.8438 25.8789 72.3633 25.8789 Z"/>
  </g>
  <g id="Regular-L" transform="matrix(1 0 0 1 1376.65 1556)">
   <path d="M 73.1934 26.709 C 107.08 26.709 135.156 -1.36719 135.156 -35.2539 C 135.156 -65.918 112.256 -91.748 82.8125 -96.4355 L 82.8125 -103.369 C 82.8125 -107.373 79.0039 -108.74 75.8789 -106.348 L 59.6191 -94.1895 C 57.4707 -92.5781 57.4219 -89.5508 59.6191 -87.9395 L 75.8789 -75.8301 C 78.9551 -73.4863 82.8125 -74.8535 82.8125 -78.7598 L 82.8125 -87.1582 C 107.471 -82.7148 126.025 -61.2305 126.025 -35.2539 C 126.025 -6.00586 102.49 17.5293 73.1934 17.5781 C 43.9453 17.627 20.3613 -5.95703 20.3613 -35.2051 C 20.3613 -53.125 29.248 -68.8965 42.8223 -78.3691 C 45.459 -80.3711 45.5566 -83.2031 44.2871 -85.0098 C 42.9688 -86.8164 40.2832 -87.5977 37.3535 -85.4492 C 21.6797 -74.6094 11.2793 -55.957 11.2793 -35.2051 C 11.2793 -1.80664 40.8203 26.709 73.1934 26.709 Z"/>
  </g>
  <g id="Medium-L" transform="matrix(1 0 0 1 1672.34 1556)">
   <path d="M 74.2188 27.7344 C 108.691 27.7344 137.158 -0.78125 137.158 -35.2539 C 137.158 -66.1621 114.307 -92.2363 84.7656 -97.3145 L 84.7656 -104.443 C 84.7656 -108.838 80.5176 -110.254 77.1484 -107.666 L 59.4238 -94.2871 C 57.1777 -92.5781 57.1289 -89.3555 59.4238 -87.5977 L 77.1484 -74.2676 C 80.4688 -71.7285 84.7656 -73.1445 84.7656 -77.4414 L 84.7656 -85.9863 C 108.35 -81.1523 126.025 -60.3516 126.025 -35.2539 C 126.025 -6.5918 102.93 16.5039 74.2188 16.5527 C 45.5078 16.6016 22.4121 -6.54297 22.4121 -35.2051 C 22.4121 -52.2949 30.6152 -67.1875 43.3594 -76.6113 C 46.2402 -79.1016 46.582 -82.5195 44.7754 -84.8145 C 43.0176 -87.0117 39.6973 -87.6953 36.2793 -85.0586 C 21.2402 -74.2676 11.2793 -55.3711 11.2793 -35.2051 C 11.2793 -1.17188 41.1133 27.7344 74.2188 27.7344 Z"/>
  </g>
  <g id="Semibold-L" transform="matrix(1 0 0 1 1968.27 1556)">
   <path d="M 75 28.5156 C 109.912 28.5156 138.721 -0.341797 138.721 -35.2539 C 138.721 -66.3574 115.918 -92.5781 86.2305 -97.998 L 86.2305 -105.225 C 86.2305 -109.961 81.6406 -111.426 78.125 -108.691 L 59.2773 -94.3848 C 56.9336 -92.5781 56.9336 -89.1602 59.2773 -87.3535 L 78.125 -73.0469 C 81.5918 -70.4102 86.2305 -71.8262 86.2305 -76.4648 L 86.2305 -85.0098 C 109.082 -79.9316 126.025 -59.668 126.025 -35.2539 C 126.025 -7.03125 103.271 15.7227 75 15.7715 C 46.7285 15.8203 23.9746 -6.98242 23.9746 -35.2051 C 23.9746 -51.6113 31.6895 -65.8691 43.7012 -75.2441 C 46.875 -78.125 47.3633 -82.0312 45.1172 -84.668 C 43.0176 -87.207 39.2578 -87.793 35.498 -84.7168 C 20.9473 -74.0234 11.2793 -54.9316 11.2793 -35.2051 C 11.2793 -0.683594 41.3086 28.5156 75 28.5156 Z"/>
  </g>
  <g id="Bold-L" transform="matrix(1 0 0 1 2263.95 1556)">
   <path d="M 76.0254 29.541 C 111.523 29.541 140.771 0.244141 140.771 -35.2539 C 140.771 -66.6504 117.969 -93.0664 88.1836 -98.877 L 88.1836 -106.25 C 88.1836 -111.426 83.1543 -112.939 79.3945 -110.01 L 59.1309 -94.4824 C 56.6406 -92.5781 56.6406 -88.916 59.1309 -87.0117 L 79.3945 -71.4844 C 83.1055 -68.6523 88.1836 -70.1172 88.1836 -75.1953 L 88.1836 -83.7402 C 109.961 -78.3203 126.025 -58.7402 126.025 -35.2539 C 126.025 -7.56836 103.711 14.6973 76.0254 14.7461 C 48.3398 14.7461 26.0254 -7.56836 26.0254 -35.2539 C 26.0254 -50.7324 33.0566 -64.1602 44.1895 -73.4375 C 47.7051 -76.8066 48.3887 -81.3477 45.6055 -84.4727 C 43.0176 -87.4023 38.6719 -87.8418 34.375 -84.2773 C 20.5078 -73.6816 11.2793 -54.3457 11.2793 -35.2539 C 11.2793 -0.0488281 41.6016 29.541 76.0254 29.541 Z"/>
  </g>
  <g id="Heavy-L" transform="matrix(1 0 0 1 2559.17 1556)">
   <path d="M 77.4902 31.0059 C 113.867 31.0059 143.75 1.12305 143.75 -35.2539 C 143.75 -67.041 121.045 -93.7988 91.0645 -100.098 L 91.0645 -107.812 C 91.0645 -113.574 85.4004 -115.137 81.25 -111.963 L 58.8379 -94.5801 C 56.2012 -92.5293 56.2012 -88.5742 58.8379 -86.4746 L 81.25 -69.1895 C 85.3027 -66.0645 91.0645 -67.627 91.0645 -73.291 L 91.0645 -81.8359 C 111.279 -76.0254 126.025 -57.4219 126.025 -35.2539 C 126.025 -8.39844 104.346 13.1836 77.4902 13.2324 C 50.6348 13.2812 29.0039 -8.39844 29.0039 -35.2539 C 29.0039 -49.4629 35.0586 -61.6699 44.9219 -70.8496 C 48.877 -74.9512 49.9023 -80.3711 46.2891 -84.2285 C 43.0664 -87.6953 37.8418 -87.9883 32.8125 -83.6914 C 19.9219 -73.1934 11.2793 -53.4668 11.2793 -35.2539 C 11.2793 0.878906 41.9922 31.0059 77.4902 31.0059 Z"/>
  </g>
  <g id="Black-L" transform="matrix(1 0 0 1 2854.57 1556)">
   <path d="M 78.8574 32.3242 C 115.967 32.3242 146.436 1.9043 146.436 -35.2539 C 146.436 -67.3828 123.73 -94.4336 93.6035 -101.221 L 93.6035 -109.131 C 93.6035 -115.527 87.3535 -117.139 82.959 -113.672 L 58.5938 -94.7266 C 55.8105 -92.5293 55.8105 -88.2324 58.5938 -86.0352 L 82.959 -67.1387 C 87.2559 -63.7695 93.6035 -65.3809 93.6035 -71.6309 L 93.6035 -80.0781 C 112.451 -73.877 125.977 -56.25 125.977 -35.2539 C 125.977 -9.17969 104.932 11.8652 78.8574 11.9141 C 52.7344 11.9141 31.6895 -9.13086 31.6895 -35.2539 C 31.6895 -48.3398 36.8164 -59.4238 45.5566 -68.5059 C 49.9512 -73.291 51.2207 -79.4922 46.9238 -83.9844 C 43.0664 -87.9883 37.1094 -88.0859 31.4453 -83.1055 C 19.3848 -72.7539 11.2793 -52.7344 11.2793 -35.2539 C 11.2793 1.66016 42.3828 32.3242 78.8574 32.3242 Z"/>
  </g>
 </g>
</svg>
