<?xml version="1.0" encoding="UTF-8"?>
<!--Generator: Apple Native CoreSVG 123-->
<!DOCTYPE svg
PUBLIC "-//W3C//DTD SVG 1.1//EN"
       "http://www.w3.org/Graphics/SVG/1.1/DTD/svg11.dtd">
<svg version="1.1" xmlns="http://www.w3.org/2000/svg" xmlns:xlink="http://www.w3.org/1999/xlink" width="3300" height="2200">
 <!--glyph: "uni100387.medium", point size: 100.000000, font version: "Version 15.0d4e20", template writer version: "2"-->
 <g id="Notes">
  <rect height="2200" id="artboard" style="fill:white;opacity:1" width="3300" x="0" y="0"/>
  <line id="" style="fill:none;stroke:black;opacity:1;stroke-width:0.5;" x1="263" x2="3036" y1="292" y2="292"/>
  <text style="stroke:none;fill:black;font-family:-apple-system,&quot;SF Pro Display&quot;,&quot;SF Pro Text&quot;,Helvetica,sans-serif;font-weight:bold;" transform="matrix(1 0 0 1 263 322)">Weight/Scale Variations</text>
  <text style="stroke:none;fill:black;font-family:-apple-system,&quot;SF Pro Display&quot;,&quot;SF Pro Text&quot;,Helvetica,sans-serif;text-anchor:middle;" transform="matrix(1 0 0 1 559.711 322)">Ultralight</text>
  <text style="stroke:none;fill:black;font-family:-apple-system,&quot;SF Pro Display&quot;,&quot;SF Pro Text&quot;,Helvetica,sans-serif;text-anchor:middle;" transform="matrix(1 0 0 1 856.422 322)">Thin</text>
  <text style="stroke:none;fill:black;font-family:-apple-system,&quot;SF Pro Display&quot;,&quot;SF Pro Text&quot;,Helvetica,sans-serif;text-anchor:middle;" transform="matrix(1 0 0 1 1153.13 322)">Light</text>
  <text style="stroke:none;fill:black;font-family:-apple-system,&quot;SF Pro Display&quot;,&quot;SF Pro Text&quot;,Helvetica,sans-serif;text-anchor:middle;" transform="matrix(1 0 0 1 1449.84 322)">Regular</text>
  <text style="stroke:none;fill:black;font-family:-apple-system,&quot;SF Pro Display&quot;,&quot;SF Pro Text&quot;,Helvetica,sans-serif;text-anchor:middle;" transform="matrix(1 0 0 1 1746.56 322)">Medium</text>
  <text style="stroke:none;fill:black;font-family:-apple-system,&quot;SF Pro Display&quot;,&quot;SF Pro Text&quot;,Helvetica,sans-serif;text-anchor:middle;" transform="matrix(1 0 0 1 2043.27 322)">Semibold</text>
  <text style="stroke:none;fill:black;font-family:-apple-system,&quot;SF Pro Display&quot;,&quot;SF Pro Text&quot;,Helvetica,sans-serif;text-anchor:middle;" transform="matrix(1 0 0 1 2339.98 322)">Bold</text>
  <text style="stroke:none;fill:black;font-family:-apple-system,&quot;SF Pro Display&quot;,&quot;SF Pro Text&quot;,Helvetica,sans-serif;text-anchor:middle;" transform="matrix(1 0 0 1 2636.69 322)">Heavy</text>
  <text style="stroke:none;fill:black;font-family:-apple-system,&quot;SF Pro Display&quot;,&quot;SF Pro Text&quot;,Helvetica,sans-serif;text-anchor:middle;" transform="matrix(1 0 0 1 2933.4 322)">Black</text>
  <line id="" style="fill:none;stroke:black;opacity:1;stroke-width:0.5;" x1="263" x2="3036" y1="1903" y2="1903"/>
  <g id="" transform="matrix(1 0 0 1 263 1933)">
   <path d="M 9.24805 0.830078 C 13.5547 0.830078 17.1387 -2.74414 17.1387 -7.05078 C 17.1387 -11.3574 13.5449 -14.9316 9.23828 -14.9316 C 4.94141 -14.9316 1.36719 -11.3574 1.36719 -7.05078 C 1.36719 -2.74414 4.95117 0.830078 9.24805 0.830078 Z M 9.24805 -0.654297 C 5.70312 -0.654297 2.87109 -3.49609 2.87109 -7.05078 C 2.87109 -10.6055 5.69336 -13.4473 9.23828 -13.4473 C 12.793 -13.4473 15.6348 -10.6055 15.6445 -7.05078 C 15.6543 -3.49609 12.8027 -0.654297 9.24805 -0.654297 Z M 9.22852 -3.42773 C 9.69727 -3.42773 9.9707 -3.74023 9.9707 -4.25781 L 9.9707 -6.31836 L 12.1973 -6.31836 C 12.6953 -6.31836 13.0371 -6.57227 13.0371 -7.04102 C 13.0371 -7.51953 12.7148 -7.7832 12.1973 -7.7832 L 9.9707 -7.7832 L 9.9707 -10.0098 C 9.9707 -10.5273 9.69727 -10.8496 9.22852 -10.8496 C 8.75977 -10.8496 8.50586 -10.5078 8.50586 -10.0098 L 8.50586 -7.7832 L 6.29883 -7.7832 C 5.78125 -7.7832 5.44922 -7.51953 5.44922 -7.04102 C 5.44922 -6.57227 5.80078 -6.31836 6.29883 -6.31836 L 8.50586 -6.31836 L 8.50586 -4.25781 C 8.50586 -3.75977 8.75977 -3.42773 9.22852 -3.42773 Z"/>
  </g>
  <g id="" transform="matrix(1 0 0 1 281.506 1933)">
   <path d="M 11.709 2.91016 C 17.1484 2.91016 21.6699 -1.60156 21.6699 -7.05078 C 21.6699 -12.4902 17.1387 -17.0117 11.6992 -17.0117 C 6.25 -17.0117 1.74805 -12.4902 1.74805 -7.05078 C 1.74805 -1.60156 6.25977 2.91016 11.709 2.91016 Z M 11.709 1.25 C 7.09961 1.25 3.41797 -2.44141 3.41797 -7.05078 C 3.41797 -11.6504 7.08984 -15.3516 11.6992 -15.3516 C 16.2988 -15.3516 20 -11.6504 20.0098 -7.05078 C 20.0195 -2.44141 16.3086 1.25 11.709 1.25 Z M 11.6797 -2.41211 C 12.207 -2.41211 12.5195 -2.77344 12.5195 -3.33984 L 12.5195 -6.23047 L 15.5762 -6.23047 C 16.123 -6.23047 16.5039 -6.51367 16.5039 -7.03125 C 16.5039 -7.55859 16.1426 -7.86133 15.5762 -7.86133 L 12.5195 -7.86133 L 12.5195 -10.9277 C 12.5195 -11.5039 12.207 -11.8555 11.6797 -11.8555 C 11.1621 -11.8555 10.8789 -11.4844 10.8789 -10.9277 L 10.8789 -7.86133 L 7.83203 -7.86133 C 7.25586 -7.86133 6.89453 -7.55859 6.89453 -7.03125 C 6.89453 -6.51367 7.28516 -6.23047 7.83203 -6.23047 L 10.8789 -6.23047 L 10.8789 -3.33984 C 10.8789 -2.79297 11.1621 -2.41211 11.6797 -2.41211 Z"/>
  </g>
  <g id="" transform="matrix(1 0 0 1 304.914 1933)">
   <path d="M 14.9707 5.67383 C 21.9336 5.67383 27.6855 -0.078125 27.6855 -7.04102 C 27.6855 -14.0039 21.9238 -19.7559 14.9609 -19.7559 C 7.99805 -19.7559 2.25586 -14.0039 2.25586 -7.04102 C 2.25586 -0.078125 8.00781 5.67383 14.9707 5.67383 Z M 14.9707 3.85742 C 8.92578 3.85742 4.08203 -1.00586 4.08203 -7.04102 C 4.08203 -13.0762 8.91602 -17.9395 14.9609 -17.9395 C 20.9961 -17.9395 25.8594 -13.0762 25.8691 -7.04102 C 25.8789 -1.00586 21.0059 3.85742 14.9707 3.85742 Z M 14.9414 -1.06445 C 15.5176 -1.06445 15.8594 -1.45508 15.8594 -2.06055 L 15.8594 -6.13281 L 20.0977 -6.13281 C 20.6934 -6.13281 21.1133 -6.46484 21.1133 -7.02148 C 21.1133 -7.59766 20.7227 -7.93945 20.0977 -7.93945 L 15.8594 -7.93945 L 15.8594 -12.1875 C 15.8594 -12.8027 15.5176 -13.1934 14.9414 -13.1934 C 14.3848 -13.1934 14.0625 -12.7832 14.0625 -12.1875 L 14.0625 -7.93945 L 9.82422 -7.93945 C 9.20898 -7.93945 8.80859 -7.59766 8.80859 -7.02148 C 8.80859 -6.46484 9.23828 -6.13281 9.82422 -6.13281 L 14.0625 -6.13281 L 14.0625 -2.06055 C 14.0625 -1.47461 14.3848 -1.06445 14.9414 -1.06445 Z"/>
  </g>
  <text style="stroke:none;fill:black;font-family:-apple-system,&quot;SF Pro Display&quot;,&quot;SF Pro Text&quot;,Helvetica,sans-serif;font-weight:bold;" transform="matrix(1 0 0 1 263 1953)">Design Variations</text>
  <text style="stroke:none;fill:black;font-family:-apple-system,&quot;SF Pro Display&quot;,&quot;SF Pro Text&quot;,Helvetica,sans-serif;" transform="matrix(1 0 0 1 263 1971)">Symbols are supported in up to nine weights and three scales.</text>
  <text style="stroke:none;fill:black;font-family:-apple-system,&quot;SF Pro Display&quot;,&quot;SF Pro Text&quot;,Helvetica,sans-serif;" transform="matrix(1 0 0 1 263 1989)">For optimal layout with text and other symbols, vertically align</text>
  <text style="stroke:none;fill:black;font-family:-apple-system,&quot;SF Pro Display&quot;,&quot;SF Pro Text&quot;,Helvetica,sans-serif;" transform="matrix(1 0 0 1 263 2007)">symbols with the adjacent text.</text>
  <rect height="14" id="" style="fill:#00AEEF;stroke:none;opacity:0.4;" width="3" x="776" y="1919"/>
  <g id="" transform="matrix(1 0 0 1 779 1933)">
   <path d="M 10.5273 0 L 12.373 0 L 7.17773 -14.0918 L 5.43945 -14.0918 L 0.244141 0 L 2.08984 0 L 3.50586 -4.0332 L 9.11133 -4.0332 Z M 6.2793 -11.9531 L 6.33789 -11.9531 L 8.59375 -5.52734 L 4.02344 -5.52734 Z"/>
  </g>
  <rect height="14" id="" style="fill:#00AEEF;stroke:none;opacity:0.4;" width="3" x="791.617" y="1919"/>
  <text style="stroke:none;fill:black;font-family:-apple-system,&quot;SF Pro Display&quot;,&quot;SF Pro Text&quot;,Helvetica,sans-serif;font-weight:bold;" transform="matrix(1 0 0 1 776 1953)">Side Bearings</text>
  <text style="stroke:none;fill:black;font-family:-apple-system,&quot;SF Pro Display&quot;,&quot;SF Pro Text&quot;,Helvetica,sans-serif;" transform="matrix(1 0 0 1 776 1971)">Horizontal padding on the left and right side of each symbol</text>
  <text style="stroke:none;fill:black;font-family:-apple-system,&quot;SF Pro Display&quot;,&quot;SF Pro Text&quot;,Helvetica,sans-serif;" transform="matrix(1 0 0 1 776 1989)">can be adjusted by modifying the width of the blue rectangles.</text>
  <text style="stroke:none;fill:black;font-family:-apple-system,&quot;SF Pro Display&quot;,&quot;SF Pro Text&quot;,Helvetica,sans-serif;" transform="matrix(1 0 0 1 776 2007)">Modifications are automatically applied proportionally to all</text>
  <text style="stroke:none;fill:black;font-family:-apple-system,&quot;SF Pro Display&quot;,&quot;SF Pro Text&quot;,Helvetica,sans-serif;" transform="matrix(1 0 0 1 776 2025)">scales and weights.</text>
  <g id="" transform="matrix(1 0 0 1 1289 1933)">
   <path d="M 2.96875 2.35352 L 3.80859 3.19336 C 4.84375 4.22852 6.12305 4.15039 7.19727 2.97852 L 16.1621 -6.82617 C 16.5527 -6.74805 16.9629 -6.8457 17.4902 -7.02148 C 18.1738 -7.25586 18.2715 -7.25586 18.3887 -7.13867 C 18.5352 -7.01172 18.4863 -6.89453 18.2422 -6.25 C 17.8809 -5.33203 17.8125 -4.79492 18.5547 -4.02344 L 19.4238 -3.13477 C 20.2734 -2.24609 21.3281 -2.26562 22.2168 -3.14453 L 25.0586 -5.97656 C 25.9473 -6.86523 25.957 -7.92969 25.0781 -8.7793 L 24.1797 -9.64844 C 23.4082 -10.4004 22.8711 -10.3516 21.9629 -9.98047 C 21.3184 -9.72656 21.2012 -9.6875 21.0645 -9.81445 C 20.9375 -9.93164 20.9473 -10.0391 21.1816 -10.7129 C 21.5332 -11.6895 21.5723 -12.2852 20.752 -13.0957 L 19.3359 -14.5117 C 15.1953 -18.6133 11.2305 -18.7402 7.65625 -15.4395 C 7.08008 -14.9023 6.99219 -14.1504 7.53906 -13.6133 L 7.79297 -13.3594 C 8.22266 -12.9297 8.86719 -12.8418 9.41406 -13.1152 C 11.0645 -13.9453 12.2559 -14.0234 13.457 -12.9785 L 13.0273 -11.416 C 12.8516 -10.8008 12.793 -10.3418 12.9199 -9.93164 L 3.18359 -1.04492 C 2.02148 0.0292969 1.93359 1.32812 2.96875 2.35352 Z M 8.96484 -14.4922 C 8.89648 -14.5703 8.86719 -14.6582 8.99414 -14.7559 C 11.709 -17.2852 15.0391 -16.8457 18.3496 -13.5254 L 19.6973 -12.168 C 20.0879 -11.7773 20.0977 -11.582 19.8828 -10.8691 C 19.6582 -10.127 19.502 -9.53125 20.1465 -8.88672 C 20.8105 -8.22266 21.2891 -8.41797 22.207 -8.63281 C 22.9004 -8.79883 23.0664 -8.79883 23.4473 -8.41797 L 24.0918 -7.77344 C 24.4043 -7.48047 24.4141 -7.32422 24.0723 -6.97266 L 21.2207 -4.13086 C 20.8887 -3.79883 20.7227 -3.79883 20.4297 -4.10156 L 19.7852 -4.75586 C 19.4141 -5.13672 19.4141 -5.30273 19.5801 -6.01562 C 19.7852 -6.88477 19.9805 -7.38281 19.3262 -8.04688 C 18.6719 -8.7207 18.0762 -8.57422 17.3438 -8.33008 C 16.5625 -8.06641 16.3281 -8.06641 15.8984 -8.49609 L 14.6094 -9.78516 C 14.1699 -10.2246 14.1309 -10.4395 14.2676 -10.9082 L 15.0293 -13.3984 C 13.3887 -15.2832 11.4941 -15.5566 9.20898 -14.4434 C 9.11133 -14.3945 9.04297 -14.4141 8.96484 -14.4922 Z M 3.96484 1.36719 C 3.52539 0.927734 3.54492 0.537109 4.14062 -0.00976562 L 13.7402 -8.81836 L 15 -7.55859 L 6.17188 2.02148 C 5.625 2.60742 5.24414 2.64648 4.79492 2.19727 Z"/>
  </g>
  <text style="stroke:none;fill:black;font-family:-apple-system,&quot;SF Pro Display&quot;,&quot;SF Pro Text&quot;,Helvetica,sans-serif;font-weight:bold;" transform="matrix(1 0 0 1 1289 1953)">Exporting</text>
  <text style="stroke:none;fill:black;font-family:-apple-system,&quot;SF Pro Display&quot;,&quot;SF Pro Text&quot;,Helvetica,sans-serif;" transform="matrix(1 0 0 1 1289 1971)">Symbols should be outlined when exporting to ensure the</text>
  <text style="stroke:none;fill:black;font-family:-apple-system,&quot;SF Pro Display&quot;,&quot;SF Pro Text&quot;,Helvetica,sans-serif;" transform="matrix(1 0 0 1 1289 1989)">design is preserved when submitting to Xcode.</text>
  <text id="template-version" style="stroke:none;fill:black;font-family:-apple-system,&quot;SF Pro Display&quot;,&quot;SF Pro Text&quot;,Helvetica,sans-serif;text-anchor:end;" transform="matrix(1 0 0 1 3036 1933)">Template v.0.1</text>
  <text style="stroke:none;fill:black;font-family:-apple-system,&quot;SF Pro Display&quot;,&quot;SF Pro Text&quot;,Helvetica,sans-serif;text-anchor:end;" transform="matrix(1 0 0 1 3036 1951)">Generated from goforward.45</text>
  <text style="stroke:none;fill:black;font-family:-apple-system,&quot;SF Pro Display&quot;,&quot;SF Pro Text&quot;,Helvetica,sans-serif;text-anchor:end;" transform="matrix(1 0 0 1 3036 1969)">Typeset at 100 points</text>
  <text style="stroke:none;fill:black;font-family:-apple-system,&quot;SF Pro Display&quot;,&quot;SF Pro Text&quot;,Helvetica,sans-serif;" transform="matrix(1 0 0 1 263 726)">Small</text>
  <text style="stroke:none;fill:black;font-family:-apple-system,&quot;SF Pro Display&quot;,&quot;SF Pro Text&quot;,Helvetica,sans-serif;" transform="matrix(1 0 0 1 263 1156)">Medium</text>
  <text style="stroke:none;fill:black;font-family:-apple-system,&quot;SF Pro Display&quot;,&quot;SF Pro Text&quot;,Helvetica,sans-serif;" transform="matrix(1 0 0 1 263 1586)">Large</text>
 </g>
 <g id="Guides">
  <g id="H-reference" style="fill:#27AAE1;stroke:none;" transform="matrix(1 0 0 1 339 696)">
   <path d="M 54.9316 0 L 57.666 0 L 30.5664 -70.459 L 28.0762 -70.459 L 0.976562 0 L 3.66211 0 L 12.9395 -24.4629 L 45.7031 -24.4629 Z M 29.1992 -67.0898 L 29.4434 -67.0898 L 44.8242 -26.709 L 13.8184 -26.709 Z"/>
  </g>
  <line id="Baseline-S" style="fill:none;stroke:#27AAE1;opacity:1;stroke-width:0.577;" x1="263" x2="3036" y1="696" y2="696"/>
  <line id="Capline-S" style="fill:none;stroke:#27AAE1;opacity:1;stroke-width:0.577;" x1="263" x2="3036" y1="625.541" y2="625.541"/>
  <g id="H-reference" style="fill:#27AAE1;stroke:none;" transform="matrix(1 0 0 1 339 1126)">
   <path d="M 54.9316 0 L 57.666 0 L 30.5664 -70.459 L 28.0762 -70.459 L 0.976562 0 L 3.66211 0 L 12.9395 -24.4629 L 45.7031 -24.4629 Z M 29.1992 -67.0898 L 29.4434 -67.0898 L 44.8242 -26.709 L 13.8184 -26.709 Z"/>
  </g>
  <line id="Baseline-M" style="fill:none;stroke:#27AAE1;opacity:1;stroke-width:0.577;" x1="263" x2="3036" y1="1126" y2="1126"/>
  <line id="Capline-M" style="fill:none;stroke:#27AAE1;opacity:1;stroke-width:0.577;" x1="263" x2="3036" y1="1055.54" y2="1055.54"/>
  <g id="H-reference" style="fill:#27AAE1;stroke:none;" transform="matrix(1 0 0 1 339 1556)">
   <path d="M 54.9316 0 L 57.666 0 L 30.5664 -70.459 L 28.0762 -70.459 L 0.976562 0 L 3.66211 0 L 12.9395 -24.4629 L 45.7031 -24.4629 Z M 29.1992 -67.0898 L 29.4434 -67.0898 L 44.8242 -26.709 L 13.8184 -26.709 Z"/>
  </g>
  <line id="Baseline-L" style="fill:none;stroke:#27AAE1;opacity:1;stroke-width:0.577;" x1="263" x2="3036" y1="1556" y2="1556"/>
  <line id="Capline-L" style="fill:none;stroke:#27AAE1;opacity:1;stroke-width:0.577;" x1="263" x2="3036" y1="1485.54" y2="1485.54"/>
  <rect height="119.336" id="left-margin" style="fill:#00AEEF;stroke:none;opacity:0.4;" width="8.74023" x="1392.62" y="1030.79"/>
  <rect height="119.336" id="right-margin" style="fill:#00AEEF;stroke:none;opacity:0.4;" width="8.74023" x="1498.33" y="1030.79"/>
 </g>
 <g id="Symbols">
  <g id="Ultralight-S" transform="matrix(1 0 0 1 516.547 696)">
   <path d="M 43.1641 1.07422 C 63.0859 1.07422 79.4922 -15.2832 79.4922 -35.2539 C 79.4922 -48.3887 72.4609 -59.9609 61.9629 -66.3086 C 61.1816 -66.7969 60.498 -66.5527 60.2051 -66.0645 C 59.9121 -65.5762 59.9609 -64.8438 60.6445 -64.4531 C 70.6055 -58.5449 77.1973 -47.6074 77.1973 -35.2539 C 77.1973 -16.5039 61.9141 -1.2207 43.1641 -1.2207 C 24.4141 -1.2207 9.13086 -16.5039 9.13086 -35.2539 C 9.13086 -52.4414 21.9727 -66.748 38.5742 -68.9453 L 38.5742 -62.6953 C 38.5742 -61.2793 40.1367 -60.6934 41.3574 -61.6211 L 49.9023 -68.1152 C 50.9277 -68.8965 50.8789 -70.3613 49.9023 -71.0938 L 41.3574 -77.5391 C 40.1367 -78.4668 38.5742 -77.9297 38.5742 -76.4648 L 38.5742 -71.2891 C 20.752 -68.9941 6.83594 -53.6621 6.83594 -35.2539 C 6.83594 -15.2832 23.1934 1.07422 43.1641 1.07422 Z M 34.668 -19.9707 C 35.2539 -19.9707 35.7422 -20.4102 35.7422 -21.0938 L 35.7422 -27.1973 L 39.7461 -27.1973 C 40.332 -27.1973 40.7715 -27.5879 40.7715 -28.125 C 40.7715 -28.7109 40.332 -29.1504 39.7461 -29.1504 L 35.7422 -29.1504 L 35.7422 -48.4375 C 35.7422 -49.4629 35.1074 -50.0977 34.0332 -50.0977 C 32.959 -50.0977 32.373 -49.7559 31.6895 -48.7305 C 28.6133 -44.3359 22.0215 -34.375 19.3359 -30.0781 C 19.0918 -29.6387 18.9453 -29.1992 18.9453 -28.7109 C 18.9453 -27.7344 19.5312 -27.1973 20.7031 -27.1973 L 33.6426 -27.1973 L 33.6426 -21.0938 C 33.6426 -20.4102 34.0332 -19.9707 34.668 -19.9707 Z M 54.4922 -19.4824 C 60.6445 -19.4824 64.8438 -23.4863 64.8438 -29.3457 C 64.8438 -34.7656 60.9375 -38.8184 55.3223 -38.8184 C 52.4902 -38.8184 49.6582 -37.4512 48.1445 -35.3516 L 47.9492 -35.3516 L 48.9746 -47.3145 L 62.8418 -47.3145 C 63.4277 -47.3145 63.8672 -47.7539 63.8672 -48.3398 C 63.8672 -48.9258 63.4277 -49.2676 62.8418 -49.2676 L 48.4863 -49.2676 C 47.5098 -49.2676 46.9238 -48.7793 46.875 -47.7539 L 45.8496 -34.2773 C 45.8008 -33.3984 46.2402 -32.9102 47.0703 -32.9102 C 47.6562 -32.9102 47.9004 -33.1055 48.3887 -33.4961 C 50.5371 -35.9375 52.4902 -36.8164 55.0781 -36.8164 C 59.5215 -36.8164 62.6465 -33.7891 62.6465 -29.2969 C 62.6465 -24.7559 59.2285 -21.4844 54.6387 -21.4844 C 51.123 -21.4844 48.0957 -23.584 47.3633 -26.3672 C 47.168 -26.9531 46.8262 -27.2461 46.2402 -27.2461 C 45.6543 -27.2461 45.3125 -26.8555 45.3125 -26.2695 C 45.3125 -25.9766 45.3125 -25.7812 45.3613 -25.5859 C 46.2402 -22.0703 50.0488 -19.4824 54.4922 -19.4824 Z M 21.3379 -29.1504 L 21.3379 -29.2969 C 25.3418 -35.4492 29.3457 -41.6016 33.3984 -47.7539 L 33.6426 -47.7539 L 33.6426 -29.1504 Z"/>
  </g>
  <g id="Thin-S" transform="matrix(1 0 0 1 812.794 696)">
   <path d="M 43.6523 1.5625 C 63.4277 1.5625 80.4199 -15.1855 80.4199 -35.2539 C 80.4199 -48.1934 73.6328 -59.668 63.4766 -66.1133 C 62.3535 -66.8945 61.3281 -66.5527 60.8398 -65.8203 C 60.4004 -65.1367 60.4492 -64.0625 61.4258 -63.3789 C 70.8008 -57.5195 76.9531 -47.0703 76.9531 -35.2539 C 76.9531 -16.8457 62.0605 -1.9043 43.6523 -1.95312 C 25.2441 -1.95312 10.3027 -16.8457 10.3027 -35.2539 C 10.3027 -51.9531 22.5586 -65.7715 38.5742 -68.1641 L 38.5742 -62.3047 C 38.5742 -60.5469 40.4297 -59.9121 41.8945 -60.9863 L 50.8789 -67.7734 C 52.0508 -68.6523 52.002 -70.2148 50.8789 -71.0449 L 41.8945 -77.8809 C 40.4297 -79.0039 38.5742 -78.3203 38.5742 -76.5137 L 38.5742 -71.6797 C 20.752 -69.1895 6.83594 -53.7598 6.83594 -35.2539 C 6.83594 -15.0391 23.4375 1.5625 43.6523 1.5625 Z M 35.3516 -19.7754 C 36.2305 -19.7754 36.8164 -20.3613 36.8164 -21.3867 L 36.8164 -26.6602 L 40.2344 -26.6602 C 41.0156 -26.6602 41.5527 -27.1973 41.5527 -27.9297 C 41.5527 -28.7109 41.0156 -29.248 40.2344 -29.248 L 36.8164 -29.248 L 36.8164 -47.7051 C 36.8164 -49.1211 35.8887 -49.9023 34.5215 -49.9023 C 33.1543 -49.9023 32.4219 -49.4141 31.543 -48.1445 C 28.5645 -43.6523 22.9004 -34.8633 20.2148 -30.4199 C 19.873 -29.7852 19.6777 -29.2969 19.6777 -28.5645 C 19.6777 -27.3926 20.459 -26.6602 21.875 -26.6602 L 33.9844 -26.6602 L 33.9844 -21.3867 C 33.9844 -20.3613 34.5215 -19.7754 35.3516 -19.7754 Z M 55.0781 -19.3848 C 61.2793 -19.3848 65.4785 -23.3887 65.4785 -29.3457 C 65.4785 -34.8633 61.6211 -38.8672 56.0547 -38.8672 C 53.3203 -38.8672 50.5371 -37.5488 49.1699 -35.498 L 49.0723 -35.498 L 50 -46.5332 L 63.1836 -46.5332 C 63.9648 -46.5332 64.502 -47.1191 64.502 -47.9004 C 64.502 -48.6816 63.9648 -49.1699 63.1836 -49.1699 L 49.4629 -49.1699 C 48.1934 -49.1699 47.4609 -48.4863 47.3633 -47.168 L 46.3867 -34.375 C 46.3379 -33.2031 46.9238 -32.6172 47.9492 -32.6172 C 48.7305 -32.6172 49.0723 -32.8125 49.707 -33.3496 C 51.709 -35.4492 53.418 -36.2793 55.7129 -36.2793 C 59.7656 -36.2793 62.5488 -33.4473 62.5488 -29.2969 C 62.5488 -25.0977 59.4238 -22.0215 55.2246 -22.0215 C 52.0996 -22.0215 49.3164 -23.877 48.5352 -26.4648 C 48.2422 -27.1973 47.8027 -27.5391 47.1191 -27.5391 C 46.3379 -27.5391 45.8496 -27.002 45.8496 -26.2207 C 45.8496 -25.8789 45.8496 -25.5859 45.9473 -25.293 C 46.875 -21.9727 50.5859 -19.3848 55.0781 -19.3848 Z M 22.8027 -29.248 L 22.8027 -29.3945 C 26.4648 -35.2539 30.127 -41.0645 33.7402 -46.875 L 33.9844 -46.875 L 33.9844 -29.248 Z"/>
  </g>
  <g id="Light-S" transform="matrix(1 0 0 1 1108.6 696)">
   <path d="M 44.5312 2.44141 C 64.1602 2.44141 82.2266 -14.9414 82.2266 -35.2051 C 82.2266 -47.7539 75.9277 -59.082 66.4551 -65.6738 C 64.5996 -67.041 62.9395 -66.5527 62.1094 -65.4297 C 61.2793 -64.3066 61.377 -62.5 62.9883 -61.2305 C 71.1426 -55.5176 76.4648 -45.9961 76.4648 -35.2051 C 76.4648 -17.5293 62.207 -3.27148 44.5312 -3.27148 C 26.8066 -3.32031 12.5488 -17.5293 12.5488 -35.2539 C 12.5488 -50.9277 23.7305 -63.916 38.623 -66.6504 L 38.623 -61.5723 C 38.623 -59.1797 41.0156 -58.3496 42.9199 -59.7656 L 52.832 -67.1875 C 54.1992 -68.1641 54.1504 -70.0684 52.832 -71.0449 L 42.9199 -78.4668 C 40.9668 -79.9316 38.623 -79.1016 38.623 -76.6113 L 38.623 -72.4609 C 20.752 -69.5801 6.83594 -53.8574 6.83594 -35.2539 C 6.83594 -14.6484 23.9258 2.44141 44.5312 2.44141 Z M 36.7188 -19.3359 C 38.0371 -19.3359 38.8672 -20.3125 38.8672 -21.875 L 38.8672 -25.6348 L 41.1133 -25.6348 C 42.2852 -25.6348 43.0176 -26.3672 43.0176 -27.5879 C 43.0176 -28.7598 42.2852 -29.4922 41.1133 -29.4922 L 38.8672 -29.4922 L 38.8672 -46.2891 C 38.8672 -48.4375 37.4023 -49.4629 35.4004 -49.4629 C 33.5449 -49.4629 32.4707 -48.7793 31.3965 -46.9727 C 28.5645 -42.3828 24.5605 -35.7422 21.9238 -31.1035 C 21.3379 -30.0781 21.1914 -29.3945 21.1914 -28.418 C 21.1914 -26.709 22.2656 -25.6348 24.0723 -25.6348 L 34.6191 -25.6348 L 34.6191 -21.875 C 34.6191 -20.3125 35.4004 -19.3359 36.7188 -19.3359 Z M 56.2012 -19.1895 C 62.5 -19.1895 66.6992 -23.2422 66.6992 -29.3457 C 66.6992 -34.9609 62.8906 -38.9648 57.373 -38.9648 C 54.9805 -38.9648 52.4414 -37.8418 51.2695 -35.9863 L 52.002 -45.0195 L 63.8672 -45.0195 C 64.8926 -45.0195 65.7715 -45.8496 65.7715 -47.0215 C 65.7715 -48.1934 64.8926 -48.9258 63.8672 -48.9258 L 51.2695 -48.9258 C 49.4629 -48.9258 48.4375 -47.9004 48.291 -46.0449 L 47.4121 -34.6191 C 47.2656 -32.8613 48.1934 -32.0312 49.707 -32.0312 C 50.8301 -32.0312 51.3184 -32.2754 52.2949 -33.0566 C 53.9062 -34.5703 55.2246 -35.1562 56.9336 -35.1562 C 60.1562 -35.1562 62.3535 -32.8125 62.3535 -29.2969 C 62.3535 -25.7324 59.8145 -23.0957 56.3965 -23.0957 C 53.9062 -23.0957 51.7578 -24.5117 50.7812 -26.6602 C 50.293 -27.5879 49.6582 -28.0762 48.7793 -28.0762 C 47.6562 -28.0762 46.875 -27.2949 46.875 -26.123 C 46.875 -25.6348 46.9727 -25.1465 47.1191 -24.707 C 48.1445 -21.8262 51.6113 -19.1895 56.2012 -19.1895 Z M 25.6836 -29.4922 L 25.6836 -29.6387 C 28.6133 -34.8145 31.543 -40.0391 34.4727 -45.2148 L 34.6191 -45.2148 L 34.6191 -29.4922 Z"/>
  </g>
  <g id="Regular-S" transform="matrix(1 0 0 1 1404.65 696)">
   <path d="M 45.2148 3.125 C 64.6973 3.125 83.5449 -14.7461 83.5449 -35.2051 C 83.5449 -47.4609 77.6855 -58.6914 68.7012 -65.3809 C 66.3574 -67.1875 64.1602 -66.5527 63.0859 -65.0879 C 62.0117 -63.623 62.0605 -61.3281 64.209 -59.668 C 71.4355 -53.9551 76.123 -45.2148 76.123 -35.2051 C 76.123 -18.0176 62.3535 -4.24805 45.2148 -4.29688 C 28.0273 -4.3457 14.2578 -18.0664 14.2578 -35.2539 C 14.2578 -50.1953 24.6094 -62.5 38.623 -65.4785 L 38.623 -61.0352 C 38.623 -58.1543 41.4062 -57.1289 43.7012 -58.8379 L 54.3457 -66.748 C 55.8105 -67.8223 55.8105 -69.9219 54.3457 -70.9961 L 43.7012 -78.9062 C 41.4062 -80.6641 38.623 -79.6875 38.623 -76.709 L 38.623 -73.0469 C 20.752 -69.873 6.83594 -53.9551 6.83594 -35.2539 C 6.83594 -14.3066 24.2676 3.125 45.2148 3.125 Z M 37.6953 -19.043 C 39.4043 -19.043 40.3809 -20.2637 40.3809 -22.3145 L 40.3809 -24.8535 L 41.7969 -24.8535 C 43.2617 -24.8535 44.1895 -25.7812 44.1895 -27.2949 C 44.1895 -28.7598 43.2617 -29.6875 41.7969 -29.6875 L 40.3809 -29.6875 L 40.3809 -45.2637 C 40.3809 -47.9492 38.5742 -49.1699 36.1328 -49.1699 C 33.8379 -49.1699 32.5195 -48.291 31.25 -46.0449 C 28.5156 -41.4062 25.7812 -36.4258 23.1934 -31.6406 C 22.5098 -30.3223 22.3145 -29.4922 22.3145 -28.2715 C 22.3145 -26.2207 23.584 -24.8535 25.7324 -24.8535 L 35.1074 -24.8535 L 35.1074 -22.3145 C 35.1074 -20.2637 36.084 -19.043 37.6953 -19.043 Z M 57.0312 -19.043 C 63.4277 -19.043 67.627 -23.0957 67.627 -29.3457 C 67.627 -35.0586 63.8672 -39.0625 58.3984 -39.0625 C 56.2988 -39.0625 54.0039 -38.0859 52.9297 -36.5234 L 53.5156 -43.8477 L 64.4043 -43.8477 C 65.625 -43.8477 66.748 -44.873 66.748 -46.3379 C 66.748 -47.8027 65.625 -48.7793 64.4043 -48.7793 L 52.6367 -48.7793 C 50.4395 -48.7793 49.1699 -47.5098 48.9746 -45.2148 L 48.1934 -34.7656 C 47.998 -32.6172 49.1699 -31.6406 50.9766 -31.6406 C 52.3926 -31.6406 53.0273 -31.8359 54.248 -32.8125 C 55.5664 -33.8379 56.543 -34.3262 57.8613 -34.3262 C 60.498 -34.3262 62.207 -32.373 62.207 -29.2969 C 62.207 -26.1719 60.1074 -23.9258 57.2754 -23.9258 C 55.2734 -23.9258 53.5645 -25 52.5391 -26.8066 C 51.8555 -27.9297 51.123 -28.5156 50.0488 -28.5156 C 48.6328 -28.5156 47.6562 -27.4902 47.6562 -26.0254 C 47.6562 -25.4395 47.8027 -24.8535 48.0469 -24.3164 C 49.1211 -21.6797 52.3438 -19.043 57.0312 -19.043 Z M 27.8809 -29.6875 L 27.8809 -29.7852 C 30.2734 -34.5215 32.6172 -39.2578 35.0098 -43.9941 L 35.1074 -43.9941 L 35.1074 -29.6875 Z"/>
  </g>
  <g id="Medium-S" transform="matrix(1 0 0 1 1700.54 696)">
   <path d="M 46.0449 3.95508 C 66.3574 3.95508 85.2051 -14.1113 85.2051 -35.2051 C 85.2051 -46.9727 79.6387 -58.4961 71.1426 -65.0391 C 68.457 -67.2363 65.8203 -66.7969 64.3555 -65.0391 C 62.793 -63.1836 63.1348 -60.4004 65.3809 -58.3496 C 72.0215 -52.7344 76.2695 -44.5801 76.2695 -35.2051 C 76.2695 -18.457 62.793 -4.98047 46.0449 -5.0293 C 29.248 -5.07812 15.7715 -18.457 15.7715 -35.2539 C 15.7715 -49.5117 25.4883 -61.3281 38.7207 -64.5508 L 38.7207 -59.8633 C 38.7207 -56.6895 41.8457 -55.7129 44.2383 -57.5195 L 56.1523 -66.5527 C 57.666 -67.7246 57.666 -69.9219 56.1523 -71.0938 L 44.2383 -80.1758 C 41.7969 -82.0312 38.7207 -81.0059 38.7207 -77.7832 L 38.7207 -73.7305 C 20.7031 -70.2637 6.83594 -54.1992 6.83594 -35.2539 C 6.83594 -13.8184 24.5605 3.95508 46.0449 3.95508 Z M 38.5742 -18.7988 C 40.5273 -18.7988 41.6504 -20.166 41.6504 -22.4121 L 41.6504 -24.6094 L 42.7246 -24.6094 C 44.2871 -24.6094 45.2637 -25.6836 45.2637 -27.3438 C 45.2637 -28.9551 44.2383 -30.0293 42.7246 -30.0293 L 41.5527 -30.0293 L 41.5527 -44.8242 C 41.5527 -47.9004 39.6973 -49.3164 36.7188 -49.3164 C 34.2773 -49.3164 32.7148 -48.3398 31.4453 -45.9961 C 28.9551 -41.5527 26.5137 -36.8164 24.0723 -32.2266 C 23.3398 -30.7617 23.0957 -29.7852 23.0957 -28.2715 C 23.0957 -26.0742 24.5605 -24.6094 26.9531 -24.6094 L 35.5957 -24.6094 L 35.5957 -22.4121 C 35.5957 -20.166 36.6699 -18.7988 38.5742 -18.7988 Z M 57.8125 -18.7012 C 64.3066 -18.7012 68.5059 -22.8516 68.5059 -29.2969 C 68.5059 -35.0586 64.6973 -38.916 59.5215 -38.916 C 57.2754 -38.916 54.9805 -37.8906 53.9551 -36.1816 L 54.4922 -43.457 L 64.9414 -43.457 C 66.4551 -43.457 67.5781 -44.6289 67.5781 -46.2402 C 67.5781 -47.9004 66.4551 -48.9258 64.9414 -48.9258 L 53.125 -48.9258 C 50.8301 -48.9258 49.5117 -47.5586 49.3652 -45.1172 L 48.6328 -34.6191 C 48.4375 -32.373 49.707 -31.2012 51.709 -31.2012 C 53.2715 -31.2012 53.8574 -31.543 54.9316 -32.373 C 56.1523 -33.3496 57.1289 -33.8379 58.3984 -33.8379 C 60.9375 -33.8379 62.5488 -31.9336 62.5488 -29.1504 C 62.5488 -26.3184 60.5957 -24.1699 58.0078 -24.1699 C 56.0547 -24.1699 54.541 -25.293 53.5156 -26.9043 C 52.832 -27.9297 52.0996 -28.4668 50.9766 -28.4668 C 49.4141 -28.4668 48.291 -27.3438 48.291 -25.7324 C 48.291 -25.0977 48.3887 -24.5117 48.6816 -23.877 C 49.7559 -21.3867 53.0762 -18.7012 57.8125 -18.7012 Z M 29.248 -29.9805 L 29.248 -30.127 C 31.3965 -34.668 33.4961 -39.2578 35.6445 -43.7988 L 35.791 -43.7988 L 35.791 -29.9805 Z"/>
  </g>
  <g id="Semibold-S" transform="matrix(1 0 0 1 1996.61 696)">
   <path d="M 46.6797 4.58984 C 67.627 4.58984 86.4746 -13.6719 86.4746 -35.2051 C 86.4746 -46.582 81.1035 -58.3496 73.0469 -64.7949 C 70.1172 -67.2363 67.1387 -66.9434 65.3809 -64.9414 C 63.4277 -62.793 63.916 -59.7168 66.3086 -57.373 C 72.5098 -51.7578 76.3672 -44.0918 76.3672 -35.2051 C 76.3672 -18.75 63.1348 -5.51758 46.6797 -5.56641 C 30.2246 -5.56641 16.9434 -18.7988 16.9434 -35.2539 C 16.9434 -48.9746 26.1719 -60.4492 38.7695 -63.8672 L 38.7695 -58.9844 C 38.7695 -55.6152 42.1387 -54.6387 44.6289 -56.543 L 57.5195 -66.4062 C 59.1309 -67.627 59.1309 -69.9707 57.5195 -71.1914 L 44.6289 -81.1035 C 42.0898 -83.0566 38.7695 -82.0801 38.7695 -78.6133 L 38.7695 -74.2676 C 20.6543 -70.5566 6.83594 -54.3945 6.83594 -35.2539 C 6.83594 -13.4277 24.8535 4.58984 46.6797 4.58984 Z M 39.209 -18.6035 C 41.3574 -18.6035 42.5781 -20.0684 42.5781 -22.5098 L 42.5781 -24.4629 L 43.457 -24.4629 C 45.0684 -24.4629 46.0938 -25.5859 46.0938 -27.3438 C 46.0938 -29.1016 45.0195 -30.2734 43.457 -30.2734 L 42.4316 -30.2734 L 42.4316 -44.5312 C 42.4316 -47.8516 40.5762 -49.4141 37.207 -49.4141 C 34.6191 -49.4141 32.8613 -48.3887 31.5918 -45.9961 C 29.2969 -41.6504 27.002 -37.1094 24.7559 -32.7148 C 23.9746 -31.1035 23.6816 -30.0781 23.6816 -28.3203 C 23.6816 -25.9766 25.293 -24.4141 27.9297 -24.4141 L 35.9375 -24.4141 L 35.9375 -22.5098 C 35.9375 -20.0684 37.1094 -18.6035 39.209 -18.6035 Z M 58.3984 -18.457 C 64.9902 -18.457 69.1895 -22.6562 69.1895 -29.248 C 69.1895 -35.1074 65.332 -38.8184 60.3516 -38.8184 C 58.0566 -38.8184 55.7129 -37.7441 54.6875 -35.9375 L 55.2246 -43.1641 L 65.332 -43.1641 C 67.041 -43.1641 68.2617 -44.4336 68.2617 -46.1914 C 68.2617 -47.9492 67.0898 -49.0723 65.332 -49.0723 L 53.5156 -49.0723 C 51.123 -49.0723 49.8047 -47.6074 49.6094 -45.0195 L 48.9746 -34.5215 C 48.7793 -32.1777 50.0977 -30.9082 52.2461 -30.9082 C 53.9062 -30.9082 54.4434 -31.25 55.4688 -32.0801 C 56.5918 -32.959 57.5195 -33.4473 58.8379 -33.4473 C 61.2793 -33.4473 62.793 -31.6406 62.793 -29.0527 C 62.793 -26.416 60.9863 -24.4141 58.5449 -24.4141 C 56.6406 -24.4141 55.2734 -25.4883 54.248 -27.002 C 53.6133 -27.8809 52.8809 -28.4668 51.6602 -28.4668 C 49.9512 -28.4668 48.7793 -27.2461 48.7793 -25.5371 C 48.7793 -24.8535 48.877 -24.2676 49.1699 -23.584 C 50.2441 -21.1426 53.6133 -18.457 58.3984 -18.457 Z M 30.2734 -30.2246 L 30.2734 -30.3711 C 32.2266 -34.8145 34.1309 -39.2578 36.1328 -43.7012 L 36.2793 -43.7012 L 36.2793 -30.2246 Z"/>
  </g>
  <g id="Bold-S" transform="matrix(1 0 0 1 2292.47 696)">
   <path d="M 47.5098 5.41992 C 69.3359 5.41992 88.1836 -13.0371 88.1836 -35.2539 C 88.1836 -46.0449 83.1055 -58.1543 75.5371 -64.4531 C 72.2656 -67.2852 68.8477 -67.1875 66.6504 -64.8926 C 64.2578 -62.3535 64.9414 -58.7891 67.5293 -56.0547 C 73.0957 -50.4883 76.4648 -43.5059 76.4648 -35.2539 C 76.4648 -19.1895 63.5254 -6.25 47.5098 -6.25 C 31.4453 -6.29883 18.5059 -19.1895 18.5059 -35.2539 C 18.5059 -48.291 27.0508 -59.2773 38.8672 -62.9395 L 38.8672 -57.8125 C 38.8672 -54.1504 42.5781 -53.2227 45.1172 -55.1758 L 59.375 -66.2109 C 61.0352 -67.4805 61.0352 -70.0195 59.375 -71.2891 L 45.1172 -82.373 C 42.5293 -84.375 38.8672 -83.3984 38.8672 -79.6875 L 38.8672 -75 C 20.6055 -70.9961 6.83594 -54.6387 6.83594 -35.2539 C 6.83594 -12.8906 25.1465 5.41992 47.5098 5.41992 Z M 40.0879 -18.3594 C 42.4805 -18.3594 43.7988 -19.9219 43.7988 -22.6562 L 43.7988 -24.2676 L 44.4336 -24.2676 C 46.0938 -24.2676 47.168 -25.4395 47.168 -27.3438 C 47.168 -29.2969 46.0449 -30.5664 44.3848 -30.5664 L 43.6035 -30.5664 L 43.6035 -44.0918 C 43.6035 -47.7539 41.6992 -49.5117 37.8418 -49.5117 C 35.0586 -49.5117 33.0566 -48.4375 31.8359 -45.9473 C 29.7852 -41.7969 27.7344 -37.5 25.6836 -33.3008 C 24.8047 -31.543 24.4629 -30.3711 24.4629 -28.3203 C 24.4629 -25.8301 26.2695 -24.1699 29.1992 -24.1699 L 36.4258 -24.1699 L 36.4258 -22.6562 C 36.4258 -19.9219 37.7441 -18.3594 40.0879 -18.3594 Z M 59.1797 -18.1641 C 65.8691 -18.1641 70.1172 -22.4121 70.1172 -29.1992 C 70.1172 -35.1562 66.1621 -38.6719 61.4746 -38.6719 C 59.082 -38.6719 56.8848 -37.5977 55.8594 -35.7422 L 55.7617 -35.7422 L 56.25 -42.7734 L 65.8691 -42.7734 C 67.8711 -42.7734 69.1406 -44.1406 69.1406 -46.0938 C 69.1406 -47.998 67.8711 -49.2676 65.8691 -49.2676 L 54.0527 -49.2676 C 51.5625 -49.2676 50.1465 -47.7051 50 -44.873 L 49.4141 -34.375 C 49.2188 -31.9336 50.6836 -30.5176 52.9297 -30.5176 C 54.7852 -30.5176 55.2734 -30.9082 56.2012 -31.6406 C 57.2266 -32.4219 58.1055 -32.959 59.375 -32.959 C 61.7676 -32.959 63.1348 -31.2012 63.1348 -28.9062 C 63.1348 -26.5137 61.5234 -24.6582 59.3262 -24.6582 C 57.373 -24.6582 56.25 -25.7324 55.2246 -27.0996 C 54.5898 -27.8809 53.8574 -28.418 52.5391 -28.418 C 50.6836 -28.418 49.3652 -27.0996 49.3652 -25.2441 C 49.3652 -24.5605 49.4629 -23.9746 49.8535 -23.1445 C 50.8789 -20.8496 54.2969 -18.1641 59.1797 -18.1641 Z M 31.6406 -30.5176 L 31.6406 -30.7129 C 33.3496 -34.9609 35.0098 -39.2578 36.7676 -43.5059 L 36.9629 -43.5059 L 36.9629 -30.5176 Z"/>
  </g>
  <g id="Heavy-S" transform="matrix(1 0 0 1 2587.98 696)">
   <path d="M 48.7305 6.64062 C 71.7773 6.64062 90.5762 -12.1582 90.5762 -35.2539 C 90.5762 -45.3125 85.9863 -57.8613 79.1504 -63.9648 C 75.3906 -67.3828 71.2891 -67.5293 68.6035 -64.7461 C 65.4785 -61.6211 66.4551 -57.4219 69.2871 -54.1504 C 74.0234 -48.6816 76.6602 -42.5781 76.6602 -35.2539 C 76.6602 -19.8242 64.1602 -7.32422 48.7305 -7.32422 C 33.252 -7.32422 20.752 -19.8242 20.752 -35.2539 C 20.752 -47.3145 28.3691 -57.5195 39.0137 -61.4746 L 39.0137 -56.1035 C 39.0137 -52.0508 43.1641 -51.123 45.8496 -53.2715 L 62.0117 -65.918 C 63.7695 -67.334 63.7695 -70.0684 62.0117 -71.4844 L 45.8496 -84.1797 C 43.1152 -86.377 39.0137 -85.4004 39.0137 -81.2988 L 39.0137 -75.9766 C 20.5566 -71.582 6.83594 -55.0293 6.83594 -35.2539 C 6.83594 -12.1582 25.6348 6.64062 48.7305 6.64062 Z M 41.3086 -18.0176 C 44.0918 -18.0176 45.6055 -19.7266 45.6055 -22.8027 L 45.6055 -23.9258 L 45.8008 -23.9258 C 47.6074 -23.9258 48.7305 -25.293 48.7305 -27.3926 C 48.7305 -29.5898 47.5586 -31.0059 45.752 -31.0059 L 45.2637 -31.0059 L 45.2637 -43.5059 C 45.2637 -47.7051 43.3594 -49.707 38.7207 -49.707 C 35.6934 -49.707 33.3496 -48.4863 32.1777 -45.8984 C 30.4199 -41.9922 28.7598 -38.0859 26.9531 -34.1797 C 26.0254 -32.1777 25.5859 -30.8594 25.5859 -28.3691 C 25.5859 -25.6348 27.6855 -23.7793 31.0059 -23.7793 L 37.1582 -23.7793 L 37.1582 -22.8027 C 37.1582 -19.7266 38.623 -18.0176 41.3086 -18.0176 Z M 60.3027 -17.7246 C 67.1387 -17.7246 71.4355 -22.0703 71.4355 -29.1016 C 71.4355 -35.2051 67.3828 -38.4766 63.1348 -38.4766 C 60.6934 -38.4766 58.6914 -37.4512 57.5195 -35.6445 L 57.2754 -35.6445 L 57.7148 -42.2363 L 66.6016 -42.2363 C 69.043 -42.2363 70.4102 -43.75 70.4102 -45.9473 C 70.4102 -48.0957 69.0918 -49.5605 66.6016 -49.5605 L 54.7852 -49.5605 C 52.1484 -49.5605 50.6836 -47.8027 50.5371 -44.7266 L 50 -34.1797 C 49.8535 -31.5918 51.4648 -29.9316 53.9551 -29.9316 C 56.0059 -29.9316 56.4941 -30.4199 57.2266 -31.0059 C 58.0566 -31.6895 58.9355 -32.2754 60.2051 -32.2754 C 62.4512 -32.2754 63.5742 -30.6152 63.5742 -28.7109 C 63.5742 -26.6602 62.2559 -25.0488 60.4004 -25.0488 C 58.4961 -25.0488 57.666 -26.123 56.6406 -27.2461 C 56.0547 -27.8809 55.3223 -28.418 53.8574 -28.418 C 51.8066 -28.418 50.293 -26.9043 50.293 -24.8535 C 50.293 -24.1211 50.3418 -23.4863 50.7812 -22.5586 C 51.8066 -20.4102 55.3223 -17.7246 60.3027 -17.7246 Z M 33.5938 -30.9082 L 33.5938 -31.1523 C 34.9609 -35.2051 36.2793 -39.2578 37.6465 -43.2617 L 37.8906 -43.2617 L 37.8906 -30.9082 Z"/>
  </g>
  <g id="Black-S" transform="matrix(1 0 0 1 2883.6 696)">
   <path d="M 49.8047 7.71484 C 73.9746 7.71484 92.7734 -11.377 92.7734 -35.2539 C 92.7734 -44.6777 88.5254 -57.6172 82.373 -63.5254 C 78.1738 -67.4316 73.5352 -67.8223 70.2637 -64.6484 C 66.5527 -61.0352 67.8223 -56.2012 70.8496 -52.4414 C 74.8047 -47.0215 76.8066 -41.748 76.8066 -35.2539 C 76.8066 -20.3613 64.6973 -8.25195 49.8047 -8.25195 C 34.9121 -8.20312 22.8027 -20.3613 22.8027 -35.2539 C 22.8027 -46.3867 29.4922 -55.957 39.1113 -60.1074 L 39.1113 -54.5898 C 39.1113 -50.1465 43.7012 -49.2676 46.5332 -51.5137 L 64.4043 -65.6738 C 66.2109 -67.1387 66.2109 -70.1172 64.4043 -71.6309 L 46.5332 -85.791 C 43.6523 -88.1348 39.1113 -87.1582 39.1113 -82.7148 L 39.1113 -76.9043 C 20.5566 -72.1191 6.83594 -55.3223 6.83594 -35.2539 C 6.83594 -11.5234 26.0742 7.71484 49.8047 7.71484 Z M 42.4316 -17.6758 C 45.5078 -17.6758 47.2168 -19.5801 47.2168 -22.998 L 47.2168 -23.6328 L 47.0703 -23.6328 C 48.9746 -23.6328 50.1465 -25.1465 50.1465 -27.4414 C 50.1465 -29.834 48.877 -31.4453 47.0215 -31.4453 L 46.7773 -31.4453 L 46.7773 -42.9688 C 46.7773 -47.6074 44.8242 -49.8535 39.5508 -49.8535 C 36.2793 -49.8535 33.5938 -48.584 32.4707 -45.8496 C 31.0059 -42.1875 29.6387 -38.5742 28.125 -34.9609 C 27.1484 -32.7637 26.6113 -31.2988 26.6113 -28.418 C 26.6113 -25.4395 28.9551 -23.4375 32.6172 -23.4375 L 37.7441 -23.4375 L 37.7441 -22.998 C 37.7441 -19.5801 39.4043 -17.6758 42.4316 -17.6758 Z M 61.2793 -17.334 C 68.3105 -17.334 72.6562 -21.7285 72.6562 -29.0527 C 72.6562 -35.2539 68.5059 -38.3301 64.5996 -38.3301 C 62.1094 -38.3301 60.3027 -37.3535 59.082 -35.5469 L 58.5938 -35.5469 L 58.9844 -41.6992 L 67.334 -41.6992 C 70.0684 -41.6992 71.582 -43.4082 71.582 -45.8008 C 71.582 -48.1934 70.1172 -49.8047 67.334 -49.8047 L 55.4199 -49.8047 C 52.6855 -49.8047 51.123 -47.9004 50.9766 -44.5801 L 50.5859 -33.9844 C 50.4395 -31.25 52.1973 -29.4434 54.8828 -29.4434 C 57.1289 -29.4434 57.5684 -29.9805 58.1543 -30.4688 C 58.8379 -31.0059 59.668 -31.6406 60.9375 -31.6406 C 63.0371 -31.6406 64.0137 -30.0781 64.0137 -28.5645 C 64.0137 -26.8555 62.8906 -25.3906 61.377 -25.3906 C 59.5215 -25.3906 58.8867 -26.4648 57.9102 -27.3438 C 57.3242 -27.832 56.5918 -28.3691 55.0293 -28.3691 C 52.7832 -28.3691 51.123 -26.709 51.123 -24.4629 C 51.123 -23.7305 51.123 -23.0469 51.6113 -22.0215 C 52.6367 -20.0195 56.25 -17.334 61.2793 -17.334 Z M 35.4004 -31.2988 L 35.4004 -31.5918 C 36.4258 -35.4004 37.4512 -39.2578 38.4766 -43.0664 L 38.7695 -43.0664 L 38.7695 -31.2988 Z"/>
  </g>
  <g id="Ultralight-M" transform="matrix(1 0 0 1 504.779 1126)">
   <path d="M 54.9316 10.9375 C 80.3711 10.9375 101.123 -9.86328 101.123 -35.2539 C 101.123 -52.0996 91.9922 -66.8945 78.5156 -75 C 77.5879 -75.5371 76.9043 -75.1953 76.6113 -74.6582 C 76.3184 -74.1211 76.3672 -73.3398 77.0996 -72.9492 C 90.0391 -65.3809 98.6328 -51.2695 98.6328 -35.2539 C 98.6328 -11.1816 79.0039 8.44727 54.9316 8.44727 C 30.8594 8.44727 11.2305 -11.1816 11.2305 -35.2539 C 11.2305 -57.4219 27.832 -75.8301 49.2188 -78.5645 L 49.2188 -70.459 C 49.2188 -68.75 51.123 -68.0664 52.5391 -69.1406 L 63.2812 -77.2949 C 64.5996 -78.2715 64.5508 -80.0781 63.2812 -81.0059 L 52.5391 -89.1602 C 51.123 -90.2344 49.2188 -89.5508 49.2188 -87.8418 L 49.2188 -81.1035 C 26.5137 -78.2715 8.74023 -58.7402 8.74023 -35.2539 C 8.74023 -9.86328 29.541 10.9375 54.9316 10.9375 Z M 43.9941 -15.8203 C 44.6777 -15.8203 45.2148 -16.3086 45.2148 -17.0898 L 45.2148 -25.1465 L 50.5859 -25.1465 C 51.2207 -25.1465 51.709 -25.6348 51.709 -26.2207 C 51.709 -26.9043 51.2207 -27.3926 50.5859 -27.3926 L 45.2148 -27.3926 L 45.2148 -52.3438 C 45.2148 -53.5645 44.4824 -54.2969 43.2617 -54.2969 C 41.9922 -54.2969 41.3086 -53.9062 40.4785 -52.6855 C 36.5234 -47.1191 27.7832 -33.9844 24.3652 -28.5156 C 24.0723 -28.0273 23.877 -27.5391 23.877 -26.9043 C 23.877 -25.8301 24.6094 -25.1465 26.0254 -25.1465 L 42.7734 -25.1465 L 42.7734 -17.0898 C 42.7734 -16.3086 43.2617 -15.8203 43.9941 -15.8203 Z M 69.3359 -15.1855 C 77.1484 -15.1855 82.5195 -20.2637 82.5195 -27.7344 C 82.5195 -34.6191 77.5391 -39.7949 70.3613 -39.7949 C 66.6504 -39.7949 63.0371 -38.0371 61.0352 -35.3027 L 60.791 -35.3027 L 62.1094 -50.9766 L 80.0781 -50.9766 C 80.8105 -50.9766 81.25 -51.4648 81.25 -52.1484 C 81.25 -52.7832 80.8105 -53.2227 80.0781 -53.2227 L 61.5723 -53.2227 C 60.4004 -53.2227 59.7168 -52.6367 59.668 -51.4648 L 58.3496 -33.9355 C 58.3008 -32.959 58.7891 -32.373 59.7656 -32.373 C 60.4004 -32.373 60.7422 -32.6172 61.2793 -33.1055 C 64.1113 -36.2793 66.6504 -37.5 70.0684 -37.5 C 75.8789 -37.5 79.9805 -33.4961 79.9805 -27.6367 C 79.9805 -21.7773 75.5371 -17.4316 69.4824 -17.4316 C 64.9414 -17.4316 60.8887 -20.2148 59.9609 -23.8281 C 59.8145 -24.5605 59.375 -24.9512 58.6914 -24.9512 C 58.0078 -24.9512 57.6172 -24.4629 57.6172 -23.7793 C 57.6172 -23.4863 57.6172 -23.2422 57.666 -22.998 C 58.7891 -18.457 63.7207 -15.1855 69.3359 -15.1855 Z M 26.6602 -27.3926 L 26.6602 -27.5879 C 31.9336 -35.5957 37.207 -43.5547 42.4805 -51.5625 L 42.7734 -51.5625 L 42.7734 -27.3926 Z"/>
  </g>
  <g id="Thin-M" transform="matrix(1 0 0 1 800.978 1126)">
   <path d="M 55.4688 11.4746 C 80.7617 11.4746 102.148 -9.7168 102.148 -35.2539 C 102.148 -51.8555 93.3594 -66.5527 80.2246 -74.7559 C 78.9551 -75.5859 77.832 -75.1953 77.3438 -74.4141 C 76.8555 -73.6328 76.9043 -72.4609 77.9785 -71.7285 C 90.2344 -64.209 98.3398 -50.6348 98.3398 -35.2539 C 98.3398 -11.5723 79.1504 7.66602 55.4688 7.66602 C 31.7383 7.61719 12.5488 -11.5723 12.5488 -35.2539 C 12.5488 -56.8359 28.5156 -74.707 49.2676 -77.6855 L 49.2676 -70.0195 C 49.2676 -67.9199 51.4648 -67.1387 53.1738 -68.457 L 64.4043 -76.9531 C 65.8203 -78.0273 65.7715 -79.9805 64.4043 -81.0059 L 53.1738 -89.502 C 51.4648 -90.8203 49.2676 -90.0391 49.2676 -87.8906 L 49.2676 -81.543 C 26.5137 -78.4668 8.74023 -58.8379 8.74023 -35.2539 C 8.74023 -9.61914 29.7852 11.4746 55.4688 11.4746 Z M 44.7754 -15.5762 C 45.7031 -15.5762 46.3867 -16.2598 46.3867 -17.3828 L 46.3867 -24.5605 L 51.0742 -24.5605 C 51.9531 -24.5605 52.5879 -25.1953 52.5879 -26.0254 C 52.5879 -26.9043 51.9531 -27.5391 51.0742 -27.5391 L 46.3867 -27.5391 L 46.3867 -51.5137 C 46.3867 -53.1738 45.3613 -54.0527 43.7988 -54.0527 C 42.2363 -54.0527 41.3574 -53.5645 40.332 -52.002 C 36.5234 -46.3379 28.7598 -34.4727 25.3418 -28.9062 C 24.9023 -28.1738 24.707 -27.5879 24.707 -26.8066 C 24.707 -25.4395 25.6348 -24.5605 27.2949 -24.5605 L 43.1641 -24.5605 L 43.1641 -17.3828 C 43.1641 -16.2598 43.7988 -15.5762 44.7754 -15.5762 Z M 69.9707 -15.0879 C 77.8809 -15.0879 83.252 -20.166 83.252 -27.7344 C 83.252 -34.7168 78.2715 -39.8438 71.1426 -39.8438 C 67.5781 -39.8438 64.0137 -38.1348 62.207 -35.498 L 62.0605 -35.498 L 63.2812 -50.0977 L 80.4688 -50.0977 C 81.3477 -50.0977 81.9824 -50.7324 81.9824 -51.6113 C 81.9824 -52.5391 81.3477 -53.0762 80.4688 -53.0762 L 62.5977 -53.0762 C 61.1328 -53.0762 60.3027 -52.2949 60.2051 -50.7812 L 58.9355 -34.082 C 58.8379 -32.7637 59.5215 -32.0312 60.7422 -32.0312 C 61.6211 -32.0312 62.0117 -32.2754 62.7441 -32.9102 C 65.3809 -35.791 67.6758 -36.8652 70.752 -36.8652 C 76.123 -36.8652 79.8828 -33.1055 79.8828 -27.6367 C 79.8828 -22.1191 75.7324 -18.0664 70.166 -18.0664 C 65.9668 -18.0664 62.3047 -20.5566 61.2793 -23.9746 C 60.9863 -24.8535 60.4492 -25.2441 59.668 -25.2441 C 58.7891 -25.2441 58.2031 -24.6094 58.2031 -23.7305 C 58.2031 -23.3398 58.252 -22.998 58.3496 -22.7051 C 59.5215 -18.3594 64.3066 -15.0879 69.9707 -15.0879 Z M 28.3203 -27.5391 L 28.3203 -27.7344 C 33.2031 -35.3516 38.0371 -42.9199 42.8711 -50.5859 L 43.1641 -50.5859 L 43.1641 -27.5391 Z"/>
  </g>
  <g id="Light-M" transform="matrix(1 0 0 1 1096.69 1126)">
   <path d="M 56.4453 12.4512 C 81.5918 12.4512 104.199 -9.42383 104.199 -35.2051 C 104.199 -51.416 95.9473 -65.918 83.5938 -74.2676 C 81.543 -75.7812 79.6387 -75.1953 78.7598 -73.9258 C 77.8809 -72.6562 77.9785 -70.7031 79.7852 -69.3359 C 90.6738 -61.9629 97.8027 -49.4629 97.8027 -35.2051 C 97.8027 -12.3535 79.3457 6.15234 56.4453 6.10352 C 33.5449 6.05469 15.0879 -12.3535 15.0879 -35.2539 C 15.0879 -55.7129 29.834 -72.6074 49.2676 -75.9766 L 49.2676 -69.1895 C 49.2676 -66.3574 52.0996 -65.3809 54.3457 -67.0898 L 66.6504 -76.2695 C 68.2617 -77.4902 68.2617 -79.7363 66.6504 -80.957 L 54.3457 -90.1855 C 52.0508 -91.8945 49.2676 -90.918 49.2676 -88.0371 L 49.2676 -82.4219 C 26.4648 -78.9062 8.74023 -58.9355 8.74023 -35.2539 C 8.74023 -9.13086 30.3223 12.4512 56.4453 12.4512 Z M 46.2891 -15.1367 C 47.7539 -15.1367 48.7305 -16.2109 48.7305 -18.0176 L 48.7305 -23.3887 L 52.0996 -23.3887 C 53.418 -23.3887 54.2969 -24.2676 54.2969 -25.6348 C 54.2969 -26.9531 53.418 -27.832 52.0996 -27.832 L 48.7305 -27.832 L 48.7305 -49.9512 C 48.7305 -52.3926 47.1191 -53.6133 44.8242 -53.6133 C 42.627 -53.6133 41.4062 -52.7832 40.1367 -50.6836 C 36.4746 -44.9219 30.6152 -35.498 27.2461 -29.6875 C 26.6113 -28.5645 26.416 -27.7344 26.416 -26.6113 C 26.416 -24.6582 27.6367 -23.3887 29.7852 -23.3887 L 43.8965 -23.3887 L 43.8965 -18.0176 C 43.8965 -16.2109 44.7754 -15.1367 46.2891 -15.1367 Z M 71.2402 -14.8438 C 79.248 -14.8438 84.6191 -19.9707 84.6191 -27.7344 C 84.6191 -34.8145 79.7363 -39.9902 72.7051 -39.9902 C 69.4336 -39.9902 66.0645 -38.4277 64.502 -35.9375 L 65.5273 -48.3398 L 81.25 -48.3398 C 82.4219 -48.3398 83.4473 -49.3164 83.4473 -50.6348 C 83.4473 -51.9531 82.4219 -52.832 81.25 -52.832 L 64.6484 -52.832 C 62.5977 -52.832 61.4258 -51.6602 61.2305 -49.5117 L 60.1074 -34.3262 C 59.9609 -32.373 60.9375 -31.3965 62.6953 -31.3965 C 64.0137 -31.3965 64.5508 -31.6895 65.6738 -32.5684 C 67.8711 -34.7656 69.7266 -35.5957 72.168 -35.5957 C 76.6113 -35.5957 79.6875 -32.4219 79.6875 -27.6367 C 79.6875 -22.8516 76.1719 -19.2871 71.4844 -19.2871 C 68.0176 -19.2871 65.0391 -21.2891 63.8672 -24.2188 C 63.3301 -25.293 62.5977 -25.8789 61.5723 -25.8789 C 60.2539 -25.8789 59.375 -24.9512 59.375 -23.6328 C 59.375 -23.0469 59.4727 -22.5586 59.668 -22.0703 C 60.9375 -18.1641 65.4297 -14.8438 71.2402 -14.8438 Z M 31.5918 -27.832 L 31.5918 -27.9785 C 35.6445 -34.9121 39.6484 -41.7969 43.7012 -48.6816 L 43.8965 -48.6816 L 43.8965 -27.832 Z"/>
  </g>
  <g id="Regular-M" transform="matrix(1 0 0 1 1392.62 1126)">
   <path d="M 57.2266 13.2324 C 82.2266 13.2324 105.713 -9.17969 105.713 -35.2051 C 105.713 -51.0742 97.9004 -65.4297 86.1328 -73.9258 C 83.4961 -75.9277 81.0059 -75.1953 79.834 -73.584 C 78.6621 -71.9238 78.7598 -69.3848 81.1035 -67.5293 C 90.9668 -60.2051 97.4121 -48.5352 97.4121 -35.2051 C 97.4121 -12.8906 79.4922 4.98047 57.2266 4.93164 C 34.9121 4.88281 16.9922 -12.9395 16.9922 -35.2539 C 16.9922 -54.834 30.8105 -70.9961 49.2676 -74.6582 L 49.2676 -68.5547 C 49.2676 -65.1855 52.5879 -64.0137 55.2246 -66.0156 L 68.3105 -75.7324 C 70.1172 -77.0996 70.1172 -79.5898 68.3105 -80.9082 L 55.2246 -90.6738 C 52.5391 -92.7246 49.2676 -91.5527 49.2676 -88.0859 L 49.2676 -83.0566 C 26.4648 -79.248 8.74023 -59.082 8.74023 -35.2539 C 8.74023 -8.74023 30.7129 13.2324 57.2266 13.2324 Z M 47.4121 -14.7949 C 49.3164 -14.7949 50.4883 -16.1621 50.4883 -18.457 L 50.4883 -22.5098 L 52.832 -22.5098 C 54.4922 -22.5098 55.6152 -23.584 55.6152 -25.293 C 55.6152 -26.9531 54.4922 -28.0273 52.832 -28.0273 L 50.4883 -28.0273 L 50.4883 -48.7793 C 50.4883 -51.8066 48.4375 -53.2227 45.6055 -53.2227 C 42.9688 -53.2227 41.4551 -52.2461 39.9414 -49.6582 C 36.4258 -43.7988 32.0801 -36.2793 28.7109 -30.2734 C 27.9297 -28.8086 27.6855 -27.832 27.6855 -26.416 C 27.6855 -24.0723 29.1504 -22.5098 31.6895 -22.5098 L 44.4824 -22.5098 L 44.4824 -18.457 C 44.4824 -16.1621 45.5566 -14.7949 47.4121 -14.7949 Z M 72.2168 -14.6484 C 80.2734 -14.6484 85.6445 -19.873 85.6445 -27.7344 C 85.6445 -34.9121 80.8105 -40.0391 73.8281 -40.0391 C 70.9473 -40.0391 67.8223 -38.7207 66.4062 -36.5234 L 67.2363 -47.0703 L 81.8359 -47.0703 C 83.252 -47.0703 84.5215 -48.2422 84.5215 -49.9023 C 84.5215 -51.5625 83.252 -52.6367 81.8359 -52.6367 L 66.2109 -52.6367 C 63.6719 -52.6367 62.2559 -51.1719 62.0605 -48.584 L 60.9863 -34.5215 C 60.791 -32.0801 62.0605 -30.9082 64.1602 -30.9082 C 65.7715 -30.9082 66.5039 -31.2012 67.8711 -32.2754 C 69.7754 -33.9844 71.2402 -34.668 73.1934 -34.668 C 77.002 -34.668 79.541 -31.8848 79.541 -27.6367 C 79.541 -23.3398 76.5137 -20.2148 72.4609 -20.2148 C 69.5801 -20.2148 67.1387 -21.875 65.8203 -24.4141 C 65.1367 -25.6836 64.2578 -26.3672 63.0371 -26.3672 C 61.4258 -26.3672 60.3027 -25.1953 60.3027 -23.5352 C 60.3027 -22.8516 60.4492 -22.2168 60.6934 -21.582 C 62.0117 -18.0664 66.3086 -14.6484 72.2168 -14.6484 Z M 34.082 -28.0273 L 34.082 -28.1738 C 37.5 -34.5703 40.8691 -40.918 44.2871 -47.2656 L 44.4824 -47.2656 L 44.4824 -28.0273 Z"/>
  </g>
  <g id="Medium-M" transform="matrix(1 0 0 1 1688.4 1126)">
   <path d="M 58.1543 14.1602 C 83.9844 14.1602 107.568 -8.54492 107.568 -35.2051 C 107.568 -50.4883 100.146 -65.1855 88.916 -73.5352 C 85.8887 -75.9766 82.9102 -75.4395 81.2988 -73.4375 C 79.5898 -71.3867 79.8828 -68.2617 82.4707 -65.9668 C 91.6504 -58.7402 97.5098 -47.8027 97.5098 -35.2051 C 97.5098 -13.4277 79.9805 4.15039 58.1543 4.10156 C 36.3281 4.05273 18.7988 -13.4277 18.7988 -35.2539 C 18.7988 -54.0527 31.8359 -69.6289 49.3652 -73.584 L 49.3652 -67.2852 C 49.3652 -63.5742 53.0762 -62.4023 55.8594 -64.5508 L 70.3613 -75.4883 C 72.2656 -76.9043 72.2168 -79.5898 70.3613 -81.0059 L 55.8594 -91.9922 C 53.0273 -94.1895 49.3652 -93.0176 49.3652 -89.209 L 49.3652 -83.8867 C 26.416 -79.6875 8.74023 -59.3262 8.74023 -35.2539 C 8.74023 -8.20312 31.1035 14.1602 58.1543 14.1602 Z M 48.4375 -14.502 C 50.6348 -14.502 51.9531 -16.0156 51.9531 -18.6035 L 51.9531 -22.168 L 53.9062 -22.168 C 55.7129 -22.168 56.8359 -23.3887 56.8359 -25.293 C 56.8359 -27.1484 55.6641 -28.3691 53.9062 -28.3691 L 51.8555 -28.3691 L 51.8555 -48.1934 C 51.8555 -51.6602 49.707 -53.3203 46.3379 -53.3203 C 43.457 -53.3203 41.6504 -52.2461 40.1855 -49.5117 C 36.8652 -43.8477 32.9102 -36.7676 29.7852 -30.957 C 28.9551 -29.2969 28.6133 -28.1738 28.6133 -26.416 C 28.6133 -23.877 30.3223 -22.168 33.1543 -22.168 L 45.0195 -22.168 L 45.0195 -18.6035 C 45.0195 -16.0156 46.2891 -14.502 48.4375 -14.502 Z M 73.0957 -14.3066 C 81.2988 -14.3066 86.7188 -19.5801 86.7188 -27.6855 C 86.7188 -34.9609 81.7871 -39.9414 75.0977 -39.9414 C 72.1191 -39.9414 69.043 -38.5254 67.627 -36.2305 L 68.457 -46.4844 L 82.4707 -46.4844 C 84.1797 -46.4844 85.5469 -47.8516 85.5469 -49.707 C 85.5469 -51.5625 84.1797 -52.7832 82.4707 -52.7832 L 66.9434 -52.7832 C 64.209 -52.7832 62.6953 -51.1719 62.5 -48.3398 L 61.5234 -34.4238 C 61.3281 -31.7871 62.7441 -30.4688 65.0879 -30.4688 C 66.8457 -30.4688 67.5293 -30.8105 68.8477 -31.8359 C 70.6055 -33.3496 71.9727 -34.0332 73.877 -34.0332 C 77.4902 -34.0332 79.834 -31.3965 79.834 -27.5391 C 79.834 -23.5352 77.0508 -20.6055 73.3398 -20.6055 C 70.5566 -20.6055 68.3594 -22.168 67.041 -24.5117 C 66.3086 -25.6836 65.4297 -26.3672 64.1113 -26.3672 C 62.3047 -26.3672 61.0352 -25.0977 61.0352 -23.2422 C 61.0352 -22.5098 61.1328 -21.8262 61.4746 -21.0938 C 62.793 -17.7246 67.0898 -14.3066 73.0957 -14.3066 Z M 35.7422 -28.3691 L 35.7422 -28.5156 C 38.8672 -34.668 41.8945 -40.7715 45.0195 -46.9238 L 45.2148 -46.9238 L 45.2148 -28.3691 Z"/>
  </g>
  <g id="Semibold-M" transform="matrix(1 0 0 1 1984.4 1126)">
   <path d="M 58.8867 14.8926 C 85.3516 14.8926 109.033 -8.05664 109.033 -35.2051 C 109.033 -50.0977 101.855 -64.9902 91.1133 -73.2422 C 87.7441 -76.0254 84.375 -75.6348 82.4219 -73.3398 C 80.2734 -70.9473 80.7617 -67.4316 83.5449 -64.7949 C 92.1387 -57.6172 97.5586 -47.2168 97.5586 -35.2051 C 97.5586 -13.7695 80.3223 3.4668 58.8867 3.41797 C 37.4512 3.41797 20.166 -13.8184 20.166 -35.2539 C 20.166 -53.4668 32.6172 -68.6035 49.4629 -72.7539 L 49.4629 -66.3086 C 49.4629 -62.3535 53.418 -61.1816 56.3477 -63.4277 L 71.9238 -75.293 C 73.877 -76.8066 73.877 -79.6387 71.9238 -81.1035 L 56.3477 -93.0176 C 53.3691 -95.3125 49.4629 -94.1406 49.4629 -90.0879 L 49.4629 -84.5215 C 26.416 -80.0293 8.74023 -59.5215 8.74023 -35.2539 C 8.74023 -7.76367 31.3965 14.8926 58.8867 14.8926 Z M 49.2188 -14.2578 C 51.6602 -14.2578 53.0762 -15.918 53.0762 -18.75 L 53.0762 -21.9238 L 54.7363 -21.9238 C 56.5918 -21.9238 57.8125 -23.2422 57.8125 -25.293 C 57.8125 -27.2949 56.5918 -28.6621 54.7363 -28.6621 L 52.9297 -28.6621 L 52.9297 -47.7539 C 52.9297 -51.5625 50.7324 -53.418 46.875 -53.418 C 43.8477 -53.418 41.8457 -52.1973 40.332 -49.4141 C 37.207 -43.8477 33.5938 -37.1094 30.6152 -31.4941 C 29.6875 -29.6387 29.3457 -28.418 29.3457 -26.416 C 29.3457 -23.6816 31.25 -21.875 34.3262 -21.875 L 45.459 -21.875 L 45.459 -18.75 C 45.459 -15.918 46.8262 -14.2578 49.2188 -14.2578 Z M 73.7793 -14.0625 C 82.1289 -14.0625 87.5 -19.3848 87.5 -27.6367 C 87.5 -35.0098 82.5684 -39.8438 76.0742 -39.8438 C 73.0469 -39.8438 69.9707 -38.3789 68.6035 -36.0352 L 69.3848 -46.0938 L 82.9102 -46.0938 C 84.9121 -46.0938 86.3281 -47.5098 86.3281 -49.5605 C 86.3281 -51.6113 84.9121 -52.9297 82.9102 -52.9297 L 67.4805 -52.9297 C 64.6484 -52.9297 63.0859 -51.2207 62.8418 -48.1445 L 61.9629 -34.3262 C 61.7188 -31.5918 63.2812 -30.0781 65.7715 -30.0781 C 67.6758 -30.0781 68.3594 -30.5176 69.6289 -31.4941 C 71.2402 -32.8613 72.5586 -33.5938 74.4141 -33.5938 C 77.8809 -33.5938 80.0781 -31.0547 80.0781 -27.3926 C 80.0781 -23.6816 77.4902 -20.8984 74.0234 -20.8984 C 71.2891 -20.8984 69.2871 -22.4609 67.9688 -24.6094 C 67.2363 -25.7324 66.3574 -26.416 64.9414 -26.416 C 62.9883 -26.416 61.5723 -25 61.5723 -22.998 C 61.5723 -22.2656 61.7188 -21.5332 62.0605 -20.752 C 63.3789 -17.4805 67.7246 -14.0625 73.7793 -14.0625 Z M 37.0117 -28.6133 L 37.0117 -28.8086 C 39.8926 -34.7656 42.7246 -40.7227 45.5566 -46.6797 L 45.8008 -46.6797 L 45.8008 -28.6133 Z"/>
  </g>
  <g id="Bold-M" transform="matrix(1 0 0 1 2280.16 1126)">
   <path d="M 59.8145 15.8203 C 87.1582 15.8203 110.938 -7.42188 110.938 -35.2539 C 110.938 -49.5117 104.102 -64.7461 93.9453 -72.8516 C 90.1855 -76.0742 86.2793 -75.8301 83.8867 -73.2422 C 81.2012 -70.3613 81.9336 -66.3086 84.9609 -63.2324 C 92.8223 -56.1035 97.6562 -46.4844 97.6562 -35.2539 C 97.6562 -14.3066 80.7617 2.58789 59.8145 2.53906 C 38.8672 2.53906 22.0215 -14.3066 22.0215 -35.2539 C 22.0215 -52.6367 33.6426 -67.1875 49.5605 -71.6309 L 49.5605 -65.0391 C 49.5605 -60.7422 53.9062 -59.5703 56.9824 -61.9141 L 74.0234 -75.0488 C 76.0254 -76.6113 76.0254 -79.6387 74.0234 -81.2012 L 56.9824 -94.3848 C 53.8574 -96.8262 49.5605 -95.6055 49.5605 -91.2109 L 49.5605 -85.3027 C 26.3672 -80.5176 8.74023 -59.8145 8.74023 -35.2539 C 8.74023 -7.22656 31.7871 15.8203 59.8145 15.8203 Z M 50.2441 -13.9648 C 52.9785 -13.9648 54.541 -15.8203 54.541 -18.9453 L 54.541 -21.6309 L 55.8105 -21.6309 C 57.8125 -21.6309 59.082 -23.0469 59.082 -25.2441 C 59.082 -27.4902 57.7637 -29.0039 55.7617 -29.0039 L 54.3457 -29.0039 L 54.3457 -47.168 C 54.3457 -51.4648 52.0508 -53.4668 47.6074 -53.4668 C 44.3359 -53.4668 42.041 -52.1973 40.5273 -49.2188 C 37.6953 -43.8477 34.4727 -37.6465 31.7383 -32.1777 C 30.7129 -30.127 30.3223 -28.8086 30.3223 -26.4648 C 30.3223 -23.4863 32.4219 -21.5332 35.8398 -21.5332 L 45.9961 -21.5332 L 45.9961 -18.9453 C 45.9961 -15.8203 47.5098 -13.9648 50.2441 -13.9648 Z M 74.707 -13.7207 C 83.1543 -13.7207 88.5742 -19.0918 88.5742 -27.5391 C 88.5742 -35.0586 83.5449 -39.6973 77.3926 -39.6973 C 74.2676 -39.6973 71.3379 -38.2812 69.9707 -35.8887 L 69.873 -35.8887 L 70.6055 -45.5078 L 83.5449 -45.5078 C 85.791 -45.5078 87.3535 -47.1191 87.3535 -49.3652 C 87.3535 -51.6113 85.8398 -53.0762 83.5449 -53.0762 L 68.1641 -53.0762 C 65.1855 -53.0762 63.5254 -51.2207 63.3301 -47.9004 L 62.5 -34.1797 C 62.3047 -31.2988 63.9648 -29.6387 66.6504 -29.6387 C 68.7988 -29.6387 69.4336 -30.0781 70.6055 -31.0059 C 72.0703 -32.2266 73.3398 -32.959 75.0977 -32.959 C 78.418 -32.959 80.3711 -30.5664 80.3711 -27.2949 C 80.3711 -23.877 78.0762 -21.2891 74.9023 -21.2891 C 72.2656 -21.2891 70.5078 -22.7539 69.2383 -24.707 C 68.5059 -25.7812 67.5781 -26.416 66.0156 -26.416 C 63.8672 -26.416 62.3535 -24.9023 62.3535 -22.7051 C 62.3535 -21.875 62.4512 -21.1914 62.8418 -20.2637 C 64.1602 -17.1387 68.5547 -13.7207 74.707 -13.7207 Z M 38.7207 -28.9062 L 38.7207 -29.1504 C 41.2598 -34.8633 43.75 -40.625 46.2891 -46.3379 L 46.5332 -46.3379 L 46.5332 -28.9062 Z"/>
  </g>
  <g id="Heavy-M" transform="matrix(1 0 0 1 2575.48 1126)">
   <path d="M 61.1816 17.2363 C 89.7461 17.2363 113.672 -6.49414 113.672 -35.2539 C 113.672 -48.6816 107.373 -64.3555 98.0957 -72.3145 C 93.7012 -76.1719 89.0625 -76.1719 86.0352 -73.0469 C 82.5684 -69.5312 83.6426 -64.6973 86.9629 -60.9863 C 93.75 -53.9551 97.7539 -45.3613 97.7539 -35.2539 C 97.7539 -15.0391 81.4453 1.31836 61.1816 1.31836 C 40.9668 1.26953 24.6582 -15.0391 24.6582 -35.2539 C 24.6582 -51.4648 35.1074 -65.1367 49.707 -69.9707 L 49.707 -63.1836 C 49.707 -58.3496 54.5898 -57.1777 57.9102 -59.7656 L 77.002 -74.6582 C 79.1504 -76.3672 79.1504 -79.6875 77.002 -81.3965 L 57.9102 -96.3379 C 54.541 -98.9746 49.707 -97.7051 49.707 -92.8223 L 49.707 -86.4746 C 26.3184 -81.1523 8.74023 -60.2051 8.74023 -35.2539 C 8.74023 -6.39648 32.3242 17.2363 61.1816 17.2363 Z M 51.709 -13.5254 C 54.8828 -13.5254 56.6895 -15.5762 56.6895 -19.1895 L 56.6895 -21.1426 L 57.373 -21.1426 C 59.5215 -21.1426 60.8887 -22.7539 60.8887 -25.2441 C 60.8887 -27.7832 59.4727 -29.4922 57.3242 -29.4922 L 56.3477 -29.4922 L 56.3477 -46.3379 C 56.3477 -51.2695 53.9551 -53.6133 48.6816 -53.6133 C 45.0195 -53.6133 42.334 -52.1973 40.8203 -48.9746 C 38.3789 -43.8477 35.791 -38.3301 33.3008 -33.2031 C 32.1777 -30.8105 31.6895 -29.2969 31.6895 -26.4648 C 31.6895 -23.1934 34.1309 -20.9961 38.0371 -20.9961 L 46.8262 -20.9961 L 46.8262 -19.1895 C 46.8262 -15.5762 48.584 -13.5254 51.709 -13.5254 Z M 76.0254 -13.2324 C 84.668 -13.2324 90.0879 -18.7012 90.0879 -27.4902 C 90.0879 -35.1562 85.0098 -39.502 79.248 -39.502 C 76.123 -39.502 73.4375 -38.1348 72.0215 -35.8398 L 71.7773 -35.8398 L 72.4121 -44.7266 L 84.4238 -44.7266 C 87.1582 -44.7266 88.8184 -46.5332 88.8184 -49.0723 C 88.8184 -51.6602 87.207 -53.3203 84.4238 -53.3203 L 69.1895 -53.3203 C 66.0156 -53.3203 64.209 -51.2695 64.0137 -47.5586 L 63.2812 -34.0332 C 63.0859 -30.8594 64.9902 -28.9551 67.9688 -28.9551 C 70.3613 -28.9551 70.9961 -29.4922 72.0215 -30.3223 C 73.291 -31.3477 74.4141 -32.0801 76.123 -32.0801 C 79.1504 -32.0801 80.8594 -29.834 80.8594 -27.0508 C 80.8594 -24.1211 78.8574 -21.8262 76.1719 -21.8262 C 73.6816 -21.8262 72.3145 -23.2422 70.9961 -24.9023 C 70.2637 -25.8301 69.3359 -26.4648 67.627 -26.4648 C 65.1855 -26.4648 63.4277 -24.707 63.4277 -22.2656 C 63.4277 -21.3867 63.5254 -20.6055 64.0137 -19.5801 C 65.332 -16.6504 69.7754 -13.2324 76.0254 -13.2324 Z M 41.1621 -29.3945 L 41.1621 -29.6875 C 43.2617 -35.0586 45.2637 -40.4297 47.3145 -45.8496 L 47.6074 -45.8496 L 47.6074 -29.3945 Z"/>
  </g>
  <g id="Black-M" transform="matrix(1 0 0 1 2870.97 1126)">
   <path d="M 62.4512 18.457 C 92.0898 18.457 116.162 -5.61523 116.162 -35.2539 C 116.162 -47.9492 110.303 -64.0137 101.807 -71.7773 C 96.875 -76.2695 91.5527 -76.4648 87.9395 -72.9004 C 83.7891 -68.7988 85.1562 -63.2324 88.7695 -58.9844 C 94.6289 -52.002 97.8516 -44.3848 97.8516 -35.2539 C 97.8516 -15.6738 82.0312 0.195312 62.4512 0.195312 C 42.8711 0.195312 27.002 -15.6738 27.002 -35.2539 C 27.002 -50.3906 36.4746 -63.2812 49.8047 -68.4082 L 49.8047 -61.5234 C 49.8047 -56.25 55.2246 -55.0781 58.6914 -57.8125 L 79.6875 -74.3164 C 81.9336 -76.123 81.9336 -79.6875 79.6875 -81.543 L 58.6914 -98.0469 C 55.127 -100.879 49.8047 -99.6582 49.8047 -94.2871 L 49.8047 -87.4512 C 26.2695 -81.7871 8.74023 -60.5469 8.74023 -35.2539 C 8.74023 -5.66406 32.8125 18.457 62.4512 18.457 Z M 53.0273 -13.1836 C 56.5918 -13.1836 58.6426 -15.4297 58.6426 -19.4336 L 58.6426 -20.7031 L 58.7891 -20.7031 C 61.084 -20.7031 62.5488 -22.4609 62.5488 -25.2441 C 62.5488 -28.0762 61.0352 -29.9316 58.6914 -29.9316 L 58.1543 -29.9316 L 58.1543 -45.6055 C 58.1543 -51.0742 55.6641 -53.7109 49.6094 -53.7109 C 45.7031 -53.7109 42.5781 -52.1484 41.1133 -48.7793 C 38.9648 -43.8965 36.9141 -38.9648 34.7168 -34.082 C 33.4961 -31.4453 32.959 -29.7363 32.959 -26.4648 C 32.959 -22.9004 35.6445 -20.5078 39.9902 -20.5078 L 47.5586 -20.5078 L 47.5586 -19.4336 C 47.5586 -15.4297 49.5117 -13.1836 53.0273 -13.1836 Z M 77.1973 -12.793 C 85.9863 -12.793 91.5039 -18.3594 91.5039 -27.3926 C 91.5039 -35.2051 86.3281 -39.3555 80.9082 -39.3555 C 77.7832 -39.3555 75.3418 -38.0371 73.8281 -35.7422 L 73.4375 -35.7422 L 73.9746 -43.9941 L 85.2051 -43.9941 C 88.3789 -43.9941 90.1855 -45.9961 90.1855 -48.8281 C 90.1855 -51.6602 88.4277 -53.5645 85.2051 -53.5645 L 70.1172 -53.5645 C 66.748 -53.5645 64.7949 -51.2695 64.5996 -47.2656 L 64.0137 -33.8867 C 63.8184 -30.4688 65.8691 -28.3691 69.1406 -28.3691 C 71.7773 -28.3691 72.4121 -29.0039 73.3398 -29.7363 C 74.3652 -30.5176 75.4395 -31.25 77.0508 -31.25 C 79.834 -31.25 81.25 -29.248 81.25 -26.9043 C 81.25 -24.3652 79.5898 -22.3145 77.2949 -22.3145 C 74.9512 -22.3145 73.9258 -23.6816 72.6074 -25.0488 C 71.875 -25.8301 70.9473 -26.5137 69.043 -26.5137 C 66.3574 -26.5137 64.4043 -24.5605 64.4043 -21.875 C 64.4043 -20.9473 64.4531 -20.1172 65.0391 -18.9453 C 66.3086 -16.2109 70.8496 -12.793 77.1973 -12.793 Z M 43.3594 -29.834 L 43.3594 -30.127 C 45.0195 -35.2051 46.6309 -40.332 48.2422 -45.4102 L 48.584 -45.4102 L 48.584 -29.834 Z"/>
  </g>
  <g id="Ultralight-L" transform="matrix(1 0 0 1 489.057 1556)">
   <path d="M 70.6543 24.1211 C 103.516 24.1211 130.029 -2.53906 130.029 -35.2539 C 130.029 -57.1289 118.164 -76.2207 100.586 -86.6211 C 99.5605 -87.1582 98.8281 -86.8164 98.5352 -86.2305 C 98.2422 -85.6445 98.291 -84.8145 99.0723 -84.4238 C 116.113 -74.6582 127.393 -56.2012 127.393 -35.2539 C 127.393 -4.00391 101.904 21.4355 70.6543 21.4355 C 39.4043 21.4355 13.916 -4.00391 13.916 -35.2539 C 13.916 -64.1113 35.6445 -88.0371 63.5254 -91.5039 L 63.5254 -80.8594 C 63.5254 -78.8086 65.8691 -77.9785 67.5293 -79.2969 L 81.1523 -89.6484 C 82.8125 -90.918 82.7148 -93.1641 81.1523 -94.2871 L 67.5293 -104.639 C 65.8691 -105.957 63.5254 -105.176 63.5254 -103.125 L 63.5254 -94.1895 C 34.1797 -90.625 11.2793 -65.5273 11.2793 -35.2539 C 11.2793 -2.58789 37.9883 24.1211 70.6543 24.1211 Z M 56.4453 -10.3027 C 57.1777 -10.3027 57.8125 -10.8398 57.8125 -11.7188 L 57.8125 -22.4609 L 65.0391 -22.4609 C 65.7715 -22.4609 66.3574 -23.0469 66.3574 -23.7305 C 66.3574 -24.5117 65.7715 -25.0488 65.0391 -25.0488 L 57.8125 -25.0488 L 57.8125 -57.666 C 57.8125 -59.0332 57.0312 -59.9121 55.6152 -59.9121 C 54.1016 -59.9121 53.3203 -59.5215 52.2461 -58.0566 C 47.1191 -50.8789 35.4492 -33.3984 31.0059 -26.3672 C 30.6641 -25.8301 30.4199 -25.2441 30.4199 -24.5605 C 30.4199 -23.2422 31.2988 -22.4609 33.0078 -22.4609 L 55.0293 -22.4609 L 55.0293 -11.7188 C 55.0293 -10.8398 55.6152 -10.3027 56.4453 -10.3027 Z M 89.1602 -9.42383 C 99.2676 -9.42383 106.152 -15.918 106.152 -25.5371 C 106.152 -34.4238 99.707 -41.1133 90.4297 -41.1133 C 85.6445 -41.1133 80.957 -38.8184 78.2715 -35.2539 L 77.8809 -35.2539 L 79.6387 -55.9082 L 103.125 -55.9082 C 104.004 -55.9082 104.541 -56.4941 104.541 -57.2754 C 104.541 -58.0078 104.004 -58.4961 103.125 -58.4961 L 78.9551 -58.4961 C 77.5879 -58.4961 76.8066 -57.8125 76.7578 -56.4453 L 75.0488 -33.4961 C 74.9512 -32.4219 75.5371 -31.6895 76.6602 -31.6895 C 77.4414 -31.6895 77.7832 -31.9824 78.418 -32.5684 C 82.1289 -36.8164 85.5957 -38.4277 90.0879 -38.4277 C 97.8027 -38.4277 103.223 -33.1543 103.223 -25.4395 C 103.223 -17.7246 97.3633 -12.0117 89.4043 -12.0117 C 83.3008 -12.0117 77.9785 -15.6738 76.8066 -20.5078 C 76.6602 -21.3867 76.123 -21.8262 75.293 -21.8262 C 74.5605 -21.8262 74.0723 -21.2891 74.0723 -20.5078 C 74.0723 -20.166 74.0234 -19.873 74.1211 -19.5801 C 75.5371 -13.623 81.9336 -9.42383 89.1602 -9.42383 Z M 33.6914 -25.0488 L 33.6914 -25.293 C 40.6738 -35.791 47.6562 -46.1914 54.6387 -56.6895 L 55.0293 -56.6895 L 55.0293 -25.0488 Z"/>
  </g>
  <g id="Thin-L" transform="matrix(1 0 0 1 785.182 1556)">
   <path d="M 71.2402 24.707 C 104.004 24.707 131.201 -2.39258 131.201 -35.2539 C 131.201 -56.8359 119.629 -75.8789 102.49 -86.377 C 101.025 -87.2559 99.8535 -86.8164 99.3164 -85.9375 C 98.8281 -85.1074 98.9258 -83.7891 100.098 -83.0566 C 116.309 -73.3398 127.051 -55.5176 127.051 -35.2539 C 127.051 -4.44336 102.051 20.5566 71.2402 20.5566 C 40.4297 20.5566 15.3809 -4.44336 15.3809 -35.2539 C 15.3809 -63.4766 36.377 -86.8652 63.5254 -90.5762 L 63.5254 -80.3711 C 63.5254 -77.9297 66.2109 -76.9531 68.2129 -78.5156 L 82.4219 -89.2578 C 84.1797 -90.625 84.1309 -93.0176 82.4219 -94.2871 L 68.2129 -105.029 C 66.2109 -106.592 63.5254 -105.664 63.5254 -103.174 L 63.5254 -94.7266 C 34.1797 -90.918 11.2793 -65.625 11.2793 -35.2539 C 11.2793 -2.29492 38.2812 24.707 71.2402 24.707 Z M 57.3242 -10.0586 C 58.3496 -10.0586 59.1309 -10.791 59.1309 -12.0605 L 59.1309 -21.8262 L 65.5762 -21.8262 C 66.6016 -21.8262 67.334 -22.5586 67.334 -23.4863 C 67.334 -24.5117 66.6016 -25.2441 65.5762 -25.2441 L 59.1309 -25.2441 L 59.1309 -56.7383 C 59.1309 -58.5938 58.0078 -59.668 56.2012 -59.668 C 54.3457 -59.668 53.3203 -59.082 52.1484 -57.3242 C 47.1191 -50.0488 36.5234 -33.9355 32.0801 -26.8066 C 31.6406 -26.0254 31.3965 -25.3418 31.3965 -24.4141 C 31.3965 -22.8027 32.4219 -21.8262 34.4238 -21.8262 L 55.4688 -21.8262 L 55.4688 -12.0605 C 55.4688 -10.791 56.2012 -10.0586 57.3242 -10.0586 Z M 89.8926 -9.32617 C 100.049 -9.32617 106.982 -15.8203 106.982 -25.5371 C 106.982 -34.5215 100.537 -41.1621 91.3086 -41.1621 C 86.6699 -41.1621 82.0312 -38.9648 79.541 -35.4492 L 79.2969 -35.4492 L 80.9082 -54.9316 L 103.564 -54.9316 C 104.639 -54.9316 105.371 -55.6641 105.371 -56.6895 C 105.371 -57.7148 104.639 -58.3496 103.564 -58.3496 L 80.127 -58.3496 C 78.418 -58.3496 77.4414 -57.4219 77.3438 -55.7129 L 75.6836 -33.6426 C 75.5859 -32.1777 76.3672 -31.2988 77.7832 -31.2988 C 78.8086 -31.2988 79.248 -31.6406 80.0781 -32.373 C 83.5938 -36.2305 86.7188 -37.6953 90.8691 -37.6953 C 98.0957 -37.6953 103.125 -32.7148 103.125 -25.4395 C 103.125 -18.1152 97.6074 -12.6953 90.1367 -12.6953 C 84.4727 -12.6953 79.541 -16.1133 78.2715 -20.6055 C 77.9785 -21.6797 77.3438 -22.168 76.416 -22.168 C 75.3906 -22.168 74.7559 -21.4355 74.7559 -20.459 C 74.7559 -19.9707 74.7559 -19.6289 74.8535 -19.2383 C 76.3184 -13.5254 82.6172 -9.32617 89.8926 -9.32617 Z M 35.5469 -25.2441 L 35.5469 -25.4395 C 42.041 -35.5469 48.584 -45.5566 55.0781 -55.6152 L 55.4688 -55.6152 L 55.4688 -25.2441 Z"/>
  </g>
  <g id="Light-L" transform="matrix(1 0 0 1 1080.77 1556)">
   <path d="M 72.3633 25.8301 C 104.883 25.8301 133.447 -2.05078 133.447 -35.2539 C 133.447 -56.3477 122.559 -75.1465 106.201 -85.8398 C 103.955 -87.4512 101.904 -86.8164 100.928 -85.4004 C 99.9512 -84.0332 100.098 -81.8359 102.051 -80.3711 C 116.797 -70.8008 126.465 -54.1504 126.465 -35.2539 C 126.465 -5.32227 102.295 18.8965 72.3633 18.8477 C 42.4316 18.8477 18.2129 -5.32227 18.2129 -35.2539 C 18.2129 -62.207 37.8418 -84.4727 63.5742 -88.623 L 63.5742 -79.4434 C 63.5742 -76.1719 66.9434 -75 69.5312 -77.002 L 84.9121 -88.5254 C 86.9141 -90.0391 86.8652 -92.7734 84.9121 -94.2383 L 69.5312 -105.811 C 66.8945 -107.812 63.5742 -106.641 63.5742 -103.32 L 63.5742 -95.7031 C 34.1797 -91.3574 11.2793 -65.7715 11.2793 -35.2539 C 11.2793 -1.75781 38.8672 25.8301 72.3633 25.8301 Z M 58.9844 -9.52148 C 60.6445 -9.52148 61.7188 -10.7422 61.7188 -12.6953 L 61.7188 -20.5078 L 66.6992 -20.5078 C 68.2129 -20.5078 69.2383 -21.5332 69.2383 -22.998 C 69.2383 -24.5117 68.2129 -25.5371 66.6992 -25.5371 L 61.7188 -25.5371 L 61.7188 -54.9805 C 61.7188 -57.7637 59.9609 -59.1309 57.3242 -59.1309 C 54.834 -59.1309 53.418 -58.252 51.9043 -55.8105 C 47.0703 -48.4375 38.623 -35.1074 34.2285 -27.6855 C 33.5449 -26.416 33.252 -25.4883 33.252 -24.1699 C 33.252 -21.9727 34.668 -20.5078 37.207 -20.5078 L 56.2988 -20.5078 L 56.2988 -12.6953 C 56.2988 -10.7422 57.3242 -9.52148 58.9844 -9.52148 Z M 91.3086 -9.0332 C 101.611 -9.0332 108.496 -15.625 108.496 -25.5371 C 108.496 -34.668 102.148 -41.3086 93.0176 -41.3086 C 88.6719 -41.3086 84.1797 -39.1602 82.0312 -35.791 L 83.4473 -53.0273 L 104.443 -53.0273 C 105.859 -53.0273 106.934 -54.1016 106.934 -55.6152 C 106.934 -57.0801 105.859 -58.0566 104.443 -58.0566 L 82.4219 -58.0566 C 80.0293 -58.0566 78.7109 -56.7383 78.5156 -54.2969 L 77.002 -33.9355 C 76.8066 -31.7383 77.9785 -30.6152 79.9316 -30.6152 C 81.4453 -30.6152 82.0801 -30.957 83.3496 -31.9824 C 86.377 -35.1074 88.9648 -36.3281 92.4316 -36.3281 C 98.6328 -36.3281 102.881 -31.9336 102.881 -25.4395 C 102.881 -18.8965 98.0957 -14.0625 91.6016 -14.0625 C 86.7676 -14.0625 82.6172 -16.8945 81.1523 -20.8984 C 80.6152 -22.2168 79.7363 -22.8516 78.5156 -22.8516 C 77.0508 -22.8516 76.0742 -21.8262 76.0742 -20.3125 C 76.0742 -19.6777 76.1719 -19.0918 76.3672 -18.5059 C 77.9297 -13.3301 83.8867 -9.0332 91.3086 -9.0332 Z M 39.209 -25.5371 L 39.209 -25.7324 C 44.7754 -35.0098 50.3906 -44.2383 56.0059 -53.5156 L 56.2988 -53.5156 L 56.2988 -25.5371 Z"/>
  </g>
  <g id="Regular-L" transform="matrix(1 0 0 1 1376.65 1556)">
   <path d="M 73.1934 26.6602 C 105.566 26.6602 135.156 -1.80664 135.156 -35.2051 C 135.156 -55.957 124.756 -74.6094 109.033 -85.4492 C 106.104 -87.5977 103.418 -86.8164 102.148 -85.0098 C 100.83 -83.2031 100.977 -80.3711 103.564 -78.3691 C 117.139 -68.8965 126.025 -53.125 126.025 -35.2051 C 126.025 -5.95703 102.49 17.627 73.1934 17.5781 C 43.9453 17.5293 20.3613 -6.00586 20.3613 -35.2539 C 20.3613 -61.2305 38.9648 -82.7148 63.5742 -87.1582 L 63.5742 -78.7598 C 63.5742 -74.8535 67.4805 -73.4863 70.5566 -75.8301 L 86.7676 -87.9395 C 88.9648 -89.5508 88.916 -92.5781 86.7676 -94.1895 L 70.5566 -106.348 C 67.4316 -108.74 63.5742 -107.373 63.5742 -103.369 L 63.5742 -96.4355 C 34.1797 -91.748 11.2793 -65.918 11.2793 -35.2539 C 11.2793 -1.36719 39.3066 26.6602 73.1934 26.6602 Z M 60.2539 -9.13086 C 62.4023 -9.13086 63.7207 -10.6934 63.7207 -13.1836 L 63.7207 -19.5312 L 67.5781 -19.5312 C 69.4336 -19.5312 70.7031 -20.8008 70.7031 -22.6562 C 70.7031 -24.5605 69.4336 -25.7812 67.5781 -25.7812 L 63.7207 -25.7812 L 63.7207 -53.6621 C 63.7207 -57.0801 61.4258 -58.7402 58.2031 -58.7402 C 55.1758 -58.7402 53.4668 -57.6172 51.709 -54.6875 C 47.0215 -47.2168 40.1855 -35.9375 35.8887 -28.3691 C 34.9609 -26.709 34.668 -25.5859 34.668 -24.0234 C 34.668 -21.3379 36.377 -19.5312 39.3066 -19.5312 L 56.9336 -19.5312 L 56.9336 -13.1836 C 56.9336 -10.6934 58.1543 -9.13086 60.2539 -9.13086 Z M 92.3828 -8.83789 C 102.734 -8.83789 109.668 -15.4785 109.668 -25.5371 C 109.668 -34.7656 103.369 -41.4062 94.3359 -41.4062 C 90.332 -41.4062 86.084 -39.4531 84.1309 -36.4258 L 85.3516 -51.5625 L 105.127 -51.5625 C 106.787 -51.5625 108.154 -52.8809 108.154 -54.7363 C 108.154 -56.6406 106.787 -57.8613 105.127 -57.8613 L 84.1797 -57.8613 C 81.25 -57.8613 79.6387 -56.2012 79.3945 -53.2227 L 77.9785 -34.1797 C 77.7344 -31.3965 79.1992 -30.0781 81.5918 -30.0781 C 83.4473 -30.0781 84.2285 -30.4199 85.791 -31.6406 C 88.4766 -34.2285 90.6738 -35.2539 93.6035 -35.2539 C 99.0234 -35.2539 102.734 -31.3477 102.734 -25.4395 C 102.734 -19.4824 98.4375 -15.1367 92.7246 -15.1367 C 88.5254 -15.1367 84.9121 -17.5293 83.3496 -21.0938 C 82.5684 -22.6074 81.543 -23.3887 80.127 -23.3887 C 78.3203 -23.3887 77.0508 -22.1191 77.0508 -20.2148 C 77.0508 -19.4336 77.1973 -18.7012 77.4902 -18.0176 C 79.1504 -13.1836 84.8145 -8.83789 92.3828 -8.83789 Z M 41.9434 -25.7812 L 41.9434 -25.9766 C 46.875 -34.6191 51.7578 -43.2617 56.6895 -51.9531 L 56.9336 -51.9531 L 56.9336 -25.7812 Z"/>
  </g>
  <g id="Medium-L" transform="matrix(1 0 0 1 1672.34 1556)">
   <path d="M 74.2188 27.6855 C 107.324 27.6855 137.158 -1.17188 137.158 -35.2051 C 137.158 -55.3711 127.197 -74.2676 112.158 -85.0586 C 108.74 -87.6953 105.42 -87.0117 103.662 -84.8145 C 101.855 -82.5195 102.197 -79.1016 105.078 -76.6113 C 117.822 -67.1875 126.025 -52.2949 126.025 -35.2051 C 126.025 -6.54297 102.93 16.6016 74.2188 16.5527 C 45.5078 16.5039 22.4121 -6.5918 22.4121 -35.2539 C 22.4121 -60.3516 40.0391 -81.1523 63.6719 -85.9863 L 63.6719 -77.4414 C 63.6719 -73.1445 67.9688 -71.7285 71.2891 -74.2676 L 89.0137 -87.5977 C 91.2598 -89.3555 91.2598 -92.5781 89.0137 -94.2871 L 71.2891 -107.666 C 67.9199 -110.254 63.6719 -108.838 63.6719 -104.443 L 63.6719 -97.3145 C 34.1309 -92.2363 11.2793 -66.1621 11.2793 -35.2539 C 11.2793 -0.78125 39.7461 27.6855 74.2188 27.6855 Z M 61.4258 -8.78906 C 63.916 -8.78906 65.3809 -10.5469 65.3809 -13.4766 L 65.3809 -19.0918 L 68.7012 -19.0918 C 70.752 -19.0918 72.0703 -20.459 72.0703 -22.6074 C 72.0703 -24.707 70.752 -26.123 68.7012 -26.123 L 65.332 -26.123 L 65.332 -52.9297 C 65.332 -56.8848 62.8418 -58.7891 59.0332 -58.7891 C 55.7129 -58.7891 53.6621 -57.5195 51.8555 -54.3457 C 47.4609 -47.0215 41.3086 -36.5234 37.1582 -29.1016 C 36.1816 -27.1973 35.791 -25.9277 35.791 -23.9746 C 35.791 -20.9961 37.7441 -19.043 41.0645 -19.043 L 57.5684 -19.043 L 57.5684 -13.4766 C 57.5684 -10.5469 58.9844 -8.78906 61.4258 -8.78906 Z M 93.4082 -8.49609 C 103.906 -8.49609 110.84 -15.2344 110.84 -25.4883 C 110.84 -34.8145 104.492 -41.3086 95.752 -41.3086 C 91.6992 -41.3086 87.5488 -39.3555 85.6445 -36.2793 L 86.8164 -50.7812 L 105.811 -50.7812 C 107.764 -50.7812 109.326 -52.2949 109.326 -54.4434 C 109.326 -56.543 107.812 -57.959 105.811 -57.959 L 85.1562 -57.959 C 81.9824 -57.959 80.2246 -56.1035 79.9805 -52.832 L 78.6621 -34.082 C 78.418 -31.1035 80.0293 -29.541 82.7148 -29.541 C 84.7656 -29.541 85.5957 -29.9805 87.1094 -31.2012 C 89.5996 -33.4961 91.6504 -34.5215 94.4336 -34.5215 C 99.5605 -34.5215 102.979 -30.8105 102.979 -25.3418 C 102.979 -19.7754 99.0234 -15.6738 93.7012 -15.6738 C 89.6973 -15.6738 86.4258 -17.9199 84.8633 -21.2402 C 84.0332 -22.7051 83.0078 -23.4863 81.3965 -23.4863 C 79.3457 -23.4863 77.9297 -22.0215 77.9297 -19.9219 C 77.9297 -19.0918 78.0762 -18.3105 78.418 -17.4805 C 80.0781 -12.8418 85.7422 -8.49609 93.4082 -8.49609 Z M 43.9941 -26.123 L 43.9941 -26.3184 C 48.4863 -34.668 52.9297 -42.9688 57.4707 -51.3184 L 57.7148 -51.3184 L 57.7148 -26.123 Z"/>
  </g>
  <g id="Semibold-L" transform="matrix(1 0 0 1 1968.27 1556)">
   <path d="M 75 28.4668 C 108.643 28.4668 138.721 -0.683594 138.721 -35.2051 C 138.721 -54.9316 129.053 -74.0234 114.502 -84.7168 C 110.693 -87.793 106.982 -87.207 104.883 -84.668 C 102.637 -82.0312 103.125 -78.125 106.25 -75.2441 C 118.311 -65.8691 126.025 -51.6113 126.025 -35.2051 C 126.025 -6.98242 103.271 15.8203 75 15.7715 C 46.7285 15.7227 23.9746 -7.03125 23.9746 -35.2539 C 23.9746 -59.668 40.918 -79.9316 63.7207 -85.0098 L 63.7207 -76.4648 C 63.7207 -71.8262 68.4082 -70.4102 71.875 -73.0469 L 90.6738 -87.3535 C 93.0664 -89.1602 93.0664 -92.5781 90.6738 -94.3848 L 71.875 -108.691 C 68.3105 -111.426 63.7207 -109.961 63.7207 -105.225 L 63.7207 -97.998 C 34.082 -92.5781 11.2793 -66.3574 11.2793 -35.2539 C 11.2793 -0.341797 40.0391 28.4668 75 28.4668 Z M 62.3047 -8.54492 C 65.0391 -8.54492 66.6992 -10.4492 66.6992 -13.6719 L 66.6992 -18.7012 L 69.5801 -18.7012 C 71.7285 -18.7012 73.1445 -20.2148 73.1445 -22.5586 C 73.1445 -24.8535 71.7285 -26.416 69.5312 -26.416 L 66.5527 -26.416 L 66.5527 -52.3438 C 66.5527 -56.6895 63.9648 -58.7891 59.668 -58.7891 C 56.1035 -58.7891 53.8086 -57.4219 51.9531 -54.0527 C 47.7539 -46.8262 42.1387 -37.0117 38.1348 -29.6875 C 37.0605 -27.5879 36.6699 -26.1719 36.6699 -23.9746 C 36.6699 -20.752 38.8184 -18.6523 42.4316 -18.6523 L 58.0078 -18.6523 L 58.0078 -13.6719 C 58.0078 -10.4492 59.5703 -8.54492 62.3047 -8.54492 Z M 94.1895 -8.20312 C 104.785 -8.20312 111.719 -14.9902 111.719 -25.4395 C 111.719 -34.8633 105.371 -41.2109 96.8262 -41.2109 C 92.7734 -41.2109 88.6719 -39.3066 86.8164 -36.1816 L 87.9395 -50.1953 L 106.299 -50.1953 C 108.545 -50.1953 110.205 -51.8555 110.205 -54.1992 C 110.205 -56.4941 108.545 -58.0566 106.299 -58.0566 L 85.8887 -58.0566 C 82.5684 -58.0566 80.6641 -56.0547 80.4199 -52.4902 L 79.1504 -34.0332 C 78.9062 -30.8594 80.6641 -29.1504 83.5938 -29.1504 C 85.791 -29.1504 86.6211 -29.5898 88.1348 -30.8105 C 90.4785 -32.959 92.4316 -33.9355 95.0684 -33.9355 C 100 -33.9355 103.174 -30.3711 103.174 -25.2441 C 103.174 -19.9707 99.4629 -16.0645 94.4824 -16.0645 C 90.625 -16.0645 87.6465 -18.2617 86.0352 -21.3379 C 85.1562 -22.8027 84.082 -23.584 82.4219 -23.584 C 80.1758 -23.584 78.5645 -22.0215 78.5645 -19.7266 C 78.5645 -18.7988 78.7109 -17.9688 79.1016 -17.041 C 80.7617 -12.5977 86.4746 -8.20312 94.1895 -8.20312 Z M 45.5078 -26.3672 L 45.5078 -26.6113 C 49.707 -34.7168 53.8574 -42.7734 58.0566 -50.8789 L 58.3008 -50.8789 L 58.3008 -26.3672 Z"/>
  </g>
  <g id="Bold-L" transform="matrix(1 0 0 1 2263.95 1556)">
   <path d="M 76.0254 29.4922 C 110.449 29.4922 140.771 -0.0488281 140.771 -35.2539 C 140.771 -54.3457 131.543 -73.6816 117.627 -84.2773 C 113.33 -87.8418 108.984 -87.4023 106.445 -84.4727 C 103.662 -81.3477 104.346 -76.8066 107.812 -73.4375 C 118.994 -64.1602 126.025 -50.7324 126.025 -35.2539 C 126.025 -7.56836 103.711 14.7461 76.0254 14.7461 C 48.3398 14.6973 26.0254 -7.56836 26.0254 -35.2539 C 26.0254 -58.7402 42.041 -78.3203 63.8184 -83.7402 L 63.8184 -75.1953 C 63.8184 -70.1172 68.9453 -68.6523 72.6562 -71.4844 L 92.9199 -87.0117 C 95.4102 -88.916 95.4102 -92.5781 92.9199 -94.4824 L 72.6562 -110.01 C 68.8477 -112.939 63.8184 -111.426 63.8184 -106.25 L 63.8184 -98.877 C 34.0332 -93.0664 11.2793 -66.6504 11.2793 -35.2539 C 11.2793 0.244141 40.4785 29.4922 76.0254 29.4922 Z M 63.4766 -8.20312 C 66.6016 -8.20312 68.4082 -10.3027 68.4082 -13.916 L 68.4082 -18.2129 L 70.7031 -18.2129 C 73.0469 -18.2129 74.5605 -19.873 74.5605 -22.4609 C 74.5605 -25.0488 73.0469 -26.7578 70.7031 -26.7578 L 68.2129 -26.7578 L 68.2129 -51.5625 C 68.2129 -56.4453 65.4785 -58.7891 60.498 -58.7891 C 56.5918 -58.7891 54.0039 -57.2754 52.1484 -53.7109 C 48.1445 -46.6309 43.2129 -37.5977 39.4043 -30.4199 C 38.2812 -28.0762 37.793 -26.5137 37.793 -23.9258 C 37.793 -20.459 40.2344 -18.1152 44.1895 -18.1152 L 58.6426 -18.1152 L 58.6426 -13.916 C 58.6426 -10.3027 60.4004 -8.20312 63.4766 -8.20312 Z M 95.2148 -7.86133 C 105.957 -7.86133 112.939 -14.7461 112.939 -25.3906 C 112.939 -34.9609 106.494 -41.1133 98.2422 -41.1133 C 94.1895 -41.1133 90.1855 -39.209 88.4277 -36.084 L 88.3789 -36.084 L 89.4043 -49.4141 L 106.982 -49.4141 C 109.57 -49.4141 111.377 -51.2695 111.377 -53.8574 C 111.377 -56.4453 109.57 -58.1543 106.982 -58.1543 L 86.8164 -58.1543 C 83.3008 -58.1543 81.2988 -55.957 81.0547 -52.0996 L 79.834 -33.9844 C 79.5898 -30.5176 81.543 -28.6133 84.7168 -28.6133 C 87.1582 -28.6133 87.9883 -29.1504 89.502 -30.3223 C 91.6504 -32.2266 93.457 -33.2031 95.9473 -33.2031 C 100.537 -33.2031 103.418 -29.834 103.418 -25.0977 C 103.418 -20.2148 100.049 -16.6016 95.459 -16.6016 C 91.8457 -16.6016 89.1602 -18.6523 87.5488 -21.4844 C 86.6699 -22.9004 85.5469 -23.7305 83.6914 -23.7305 C 81.2012 -23.7305 79.4434 -21.9727 79.4434 -19.4336 C 79.4434 -18.457 79.5898 -17.5781 80.0293 -16.5039 C 81.6895 -12.2559 87.4023 -7.86133 95.2148 -7.86133 Z M 47.5586 -26.709 L 47.5586 -26.9531 C 51.3672 -34.7656 55.0781 -42.4805 58.8379 -50.293 L 59.1309 -50.293 L 59.1309 -26.709 Z"/>
  </g>
  <g id="Heavy-L" transform="matrix(1 0 0 1 2559.17 1556)">
   <path d="M 77.4902 30.957 C 112.988 30.957 143.75 0.878906 143.75 -35.2539 C 143.75 -53.4668 135.107 -73.1934 122.168 -83.6914 C 117.188 -87.9883 111.963 -87.6953 108.691 -84.2285 C 105.127 -80.3711 106.104 -74.9512 110.059 -70.8496 C 119.971 -61.6699 126.025 -49.4629 126.025 -35.2539 C 126.025 -8.39844 104.346 13.2812 77.4902 13.2324 C 50.6348 13.1836 29.0039 -8.39844 29.0039 -35.2539 C 29.0039 -57.4219 43.75 -76.0254 63.9648 -81.8359 L 63.9648 -73.291 C 63.9648 -67.627 69.7266 -66.0645 73.7305 -69.1895 L 96.1914 -86.4746 C 98.8281 -88.5742 98.8281 -92.5293 96.1914 -94.5801 L 73.7305 -111.963 C 69.6289 -115.137 63.9648 -113.574 63.9648 -107.812 L 63.9648 -100.098 C 33.9844 -93.7988 11.2793 -67.041 11.2793 -35.2539 C 11.2793 1.12305 41.1133 30.957 77.4902 30.957 Z M 65.1367 -7.71484 C 68.7988 -7.71484 70.8984 -10.1074 70.8984 -14.3066 L 70.8984 -17.5293 L 72.3633 -17.5293 C 75 -17.5293 76.6602 -19.3848 76.6602 -22.3633 C 76.6602 -25.3418 74.9512 -27.2949 72.3145 -27.2949 L 70.6055 -27.2949 L 70.6055 -50.4395 C 70.6055 -56.1035 67.627 -58.7891 61.6699 -58.7891 C 57.373 -58.7891 54.2969 -57.0801 52.3438 -53.2227 C 48.7793 -46.3379 44.8242 -38.4766 41.3086 -31.543 C 39.9902 -28.8086 39.4531 -27.0508 39.4531 -23.877 C 39.4531 -20.0195 42.2363 -17.3828 46.7773 -17.3828 L 59.5703 -17.3828 L 59.5703 -14.3066 C 59.5703 -10.1074 61.5723 -7.71484 65.1367 -7.71484 Z M 96.6797 -7.37305 C 107.617 -7.37305 114.648 -14.3066 114.648 -25.293 C 114.648 -35.0586 108.154 -40.9668 100.293 -40.9668 C 96.2891 -40.9668 92.5781 -39.1602 90.7715 -36.084 L 90.625 -36.084 L 91.5527 -48.291 L 107.959 -48.291 C 111.035 -48.291 113.037 -50.3906 113.037 -53.3691 C 113.037 -56.3477 111.084 -58.3008 107.959 -58.3008 L 88.2324 -58.3008 C 84.3262 -58.3008 82.1289 -55.8594 81.8848 -51.5137 L 80.8105 -33.8867 C 80.5664 -30.0293 82.8125 -27.832 86.3281 -27.832 C 89.1602 -27.832 89.9902 -28.4668 91.4551 -29.6387 C 93.3105 -31.1523 94.9219 -32.0801 97.168 -32.0801 C 101.367 -32.0801 103.809 -29.0527 103.809 -24.9023 C 103.809 -20.6543 100.879 -17.3828 96.9238 -17.3828 C 93.6035 -17.3828 91.4551 -19.2871 89.7461 -21.7285 C 88.8184 -23.0469 87.6465 -23.9258 85.5957 -23.9258 C 82.7148 -23.9258 80.7129 -21.875 80.7129 -18.9941 C 80.7129 -17.9199 80.8105 -16.9434 81.3965 -15.7227 C 83.0566 -11.7676 88.7695 -7.37305 96.6797 -7.37305 Z M 50.5371 -27.1973 L 50.5371 -27.4902 C 53.7109 -34.8145 56.7871 -42.0898 59.9609 -49.4141 L 60.2539 -49.4141 L 60.2539 -27.1973 Z"/>
  </g>
  <g id="Black-L" transform="matrix(1 0 0 1 2854.57 1556)">
   <path d="M 78.8574 32.3242 C 115.283 32.3242 146.436 1.66016 146.436 -35.2539 C 146.436 -52.7344 138.281 -72.7539 126.221 -83.1055 C 120.557 -88.0859 114.6 -87.9883 110.742 -83.9844 C 106.445 -79.4922 107.715 -73.291 112.109 -68.5059 C 120.85 -59.4238 125.977 -48.3398 125.977 -35.2539 C 125.977 -9.13086 104.932 11.9141 78.8574 11.9141 C 52.7344 11.8652 31.6895 -9.17969 31.6895 -35.2539 C 31.6895 -56.25 45.2148 -73.877 64.0625 -80.0781 L 64.0625 -71.6309 C 64.0625 -65.3809 70.4102 -63.7695 74.707 -67.1387 L 99.0723 -86.0352 C 101.855 -88.2324 101.855 -92.5293 99.0723 -94.7266 L 74.707 -113.672 C 70.3125 -117.139 64.0625 -115.527 64.0625 -109.131 L 64.0625 -101.221 C 33.9355 -94.4336 11.2793 -67.3828 11.2793 -35.2539 C 11.2793 1.9043 41.6992 32.3242 78.8574 32.3242 Z M 66.6504 -7.27539 C 70.8008 -7.27539 73.1445 -9.96094 73.1445 -14.5996 L 73.1445 -16.8945 L 73.8281 -16.8945 C 76.709 -16.8945 78.4668 -18.9941 78.4668 -22.2656 C 78.4668 -25.5859 76.6113 -27.7832 73.7793 -27.7832 L 72.7051 -27.7832 L 72.7051 -49.4629 C 72.7051 -55.7617 69.5312 -58.7891 62.7441 -58.7891 C 58.0078 -58.7891 54.541 -56.9336 52.5391 -52.7344 C 49.3164 -46.0449 46.2402 -39.3066 42.9688 -32.5195 C 41.5527 -29.4434 40.918 -27.4902 40.918 -23.877 C 40.918 -19.5801 44.043 -16.748 49.0723 -16.748 L 60.4004 -16.748 L 60.4004 -14.5996 C 60.4004 -9.96094 62.6465 -7.27539 66.6504 -7.27539 Z M 98.0469 -6.93359 C 109.131 -6.93359 116.162 -13.9648 116.162 -25.2441 C 116.162 -35.1074 109.619 -40.8203 102.1 -40.8203 C 98.1445 -40.8203 94.6289 -39.0625 92.8711 -36.084 L 92.6758 -36.084 L 93.457 -47.3145 L 108.887 -47.3145 C 112.354 -47.3145 114.551 -49.6582 114.551 -52.9785 C 114.551 -56.25 112.402 -58.4473 108.887 -58.4473 L 89.502 -58.4473 C 85.3027 -58.4473 82.9102 -55.7617 82.666 -50.9766 L 81.7383 -33.7891 C 81.4453 -29.6387 83.8867 -27.1484 87.793 -27.1484 C 90.918 -27.1484 91.7969 -27.8809 93.2617 -29.0039 C 94.8242 -30.2246 96.1914 -31.1035 98.291 -31.1035 C 102.051 -31.1035 104.15 -28.3203 104.15 -24.7559 C 104.15 -20.9961 101.66 -18.0664 98.2422 -18.0664 C 95.166 -18.0664 93.457 -19.8242 91.748 -21.9238 C 90.7227 -23.1934 89.502 -24.0723 87.2559 -24.0723 C 84.082 -24.0723 81.8359 -21.8262 81.8359 -18.6035 C 81.8359 -17.4316 81.9336 -16.4062 82.5684 -15.0391 C 84.2773 -11.3281 89.9414 -6.93359 98.0469 -6.93359 Z M 53.2227 -27.6367 L 53.2227 -27.9785 C 55.8105 -34.8633 58.3496 -41.748 60.9863 -48.6328 L 61.3281 -48.6328 L 61.3281 -27.6367 Z"/>
  </g>
 </g>
</svg>
