<?xml version="1.0" encoding="UTF-8"?>
<!--Generator: Apple Native CoreSVG 123-->
<!DOCTYPE svg
PUBLIC "-//W3C//DTD SVG 1.1//EN"
       "http://www.w3.org/Graphics/SVG/1.1/DTD/svg11.dtd">
<svg version="1.1" xmlns="http://www.w3.org/2000/svg" xmlns:xlink="http://www.w3.org/1999/xlink" width="3300" height="2200">
 <!--glyph: "uni1005F4.medium", point size: 100.000000, font version: "Version 15.0d4e20", template writer version: "2"-->
 <g id="Notes">
  <rect height="2200" id="artboard" style="fill:white;opacity:1" width="3300" x="0" y="0"/>
  <line id="" style="fill:none;stroke:black;opacity:1;stroke-width:0.5;" x1="263" x2="3036" y1="292" y2="292"/>
  <text style="stroke:none;fill:black;font-family:-apple-system,&quot;SF Pro Display&quot;,&quot;SF Pro Text&quot;,Helvetica,sans-serif;font-weight:bold;" transform="matrix(1 0 0 1 263 322)">Weight/Scale Variations</text>
  <text style="stroke:none;fill:black;font-family:-apple-system,&quot;SF Pro Display&quot;,&quot;SF Pro Text&quot;,Helvetica,sans-serif;text-anchor:middle;" transform="matrix(1 0 0 1 559.711 322)">Ultralight</text>
  <text style="stroke:none;fill:black;font-family:-apple-system,&quot;SF Pro Display&quot;,&quot;SF Pro Text&quot;,Helvetica,sans-serif;text-anchor:middle;" transform="matrix(1 0 0 1 856.422 322)">Thin</text>
  <text style="stroke:none;fill:black;font-family:-apple-system,&quot;SF Pro Display&quot;,&quot;SF Pro Text&quot;,Helvetica,sans-serif;text-anchor:middle;" transform="matrix(1 0 0 1 1153.13 322)">Light</text>
  <text style="stroke:none;fill:black;font-family:-apple-system,&quot;SF Pro Display&quot;,&quot;SF Pro Text&quot;,Helvetica,sans-serif;text-anchor:middle;" transform="matrix(1 0 0 1 1449.84 322)">Regular</text>
  <text style="stroke:none;fill:black;font-family:-apple-system,&quot;SF Pro Display&quot;,&quot;SF Pro Text&quot;,Helvetica,sans-serif;text-anchor:middle;" transform="matrix(1 0 0 1 1746.56 322)">Medium</text>
  <text style="stroke:none;fill:black;font-family:-apple-system,&quot;SF Pro Display&quot;,&quot;SF Pro Text&quot;,Helvetica,sans-serif;text-anchor:middle;" transform="matrix(1 0 0 1 2043.27 322)">Semibold</text>
  <text style="stroke:none;fill:black;font-family:-apple-system,&quot;SF Pro Display&quot;,&quot;SF Pro Text&quot;,Helvetica,sans-serif;text-anchor:middle;" transform="matrix(1 0 0 1 2339.98 322)">Bold</text>
  <text style="stroke:none;fill:black;font-family:-apple-system,&quot;SF Pro Display&quot;,&quot;SF Pro Text&quot;,Helvetica,sans-serif;text-anchor:middle;" transform="matrix(1 0 0 1 2636.69 322)">Heavy</text>
  <text style="stroke:none;fill:black;font-family:-apple-system,&quot;SF Pro Display&quot;,&quot;SF Pro Text&quot;,Helvetica,sans-serif;text-anchor:middle;" transform="matrix(1 0 0 1 2933.4 322)">Black</text>
  <line id="" style="fill:none;stroke:black;opacity:1;stroke-width:0.5;" x1="263" x2="3036" y1="1903" y2="1903"/>
  <g id="" transform="matrix(1 0 0 1 263 1933)">
   <path d="M 9.24805 0.830078 C 13.5547 0.830078 17.1387 -2.74414 17.1387 -7.05078 C 17.1387 -11.3574 13.5449 -14.9316 9.23828 -14.9316 C 4.94141 -14.9316 1.36719 -11.3574 1.36719 -7.05078 C 1.36719 -2.74414 4.95117 0.830078 9.24805 0.830078 Z M 9.24805 -0.654297 C 5.70312 -0.654297 2.87109 -3.49609 2.87109 -7.05078 C 2.87109 -10.6055 5.69336 -13.4473 9.23828 -13.4473 C 12.793 -13.4473 15.6348 -10.6055 15.6445 -7.05078 C 15.6543 -3.49609 12.8027 -0.654297 9.24805 -0.654297 Z M 9.22852 -3.42773 C 9.69727 -3.42773 9.9707 -3.74023 9.9707 -4.25781 L 9.9707 -6.31836 L 12.1973 -6.31836 C 12.6953 -6.31836 13.0371 -6.57227 13.0371 -7.04102 C 13.0371 -7.51953 12.7148 -7.7832 12.1973 -7.7832 L 9.9707 -7.7832 L 9.9707 -10.0098 C 9.9707 -10.5273 9.69727 -10.8496 9.22852 -10.8496 C 8.75977 -10.8496 8.50586 -10.5078 8.50586 -10.0098 L 8.50586 -7.7832 L 6.29883 -7.7832 C 5.78125 -7.7832 5.44922 -7.51953 5.44922 -7.04102 C 5.44922 -6.57227 5.80078 -6.31836 6.29883 -6.31836 L 8.50586 -6.31836 L 8.50586 -4.25781 C 8.50586 -3.75977 8.75977 -3.42773 9.22852 -3.42773 Z"/>
  </g>
  <g id="" transform="matrix(1 0 0 1 281.506 1933)">
   <path d="M 11.709 2.91016 C 17.1484 2.91016 21.6699 -1.60156 21.6699 -7.05078 C 21.6699 -12.4902 17.1387 -17.0117 11.6992 -17.0117 C 6.25 -17.0117 1.74805 -12.4902 1.74805 -7.05078 C 1.74805 -1.60156 6.25977 2.91016 11.709 2.91016 Z M 11.709 1.25 C 7.09961 1.25 3.41797 -2.44141 3.41797 -7.05078 C 3.41797 -11.6504 7.08984 -15.3516 11.6992 -15.3516 C 16.2988 -15.3516 20 -11.6504 20.0098 -7.05078 C 20.0195 -2.44141 16.3086 1.25 11.709 1.25 Z M 11.6797 -2.41211 C 12.207 -2.41211 12.5195 -2.77344 12.5195 -3.33984 L 12.5195 -6.23047 L 15.5762 -6.23047 C 16.123 -6.23047 16.5039 -6.51367 16.5039 -7.03125 C 16.5039 -7.55859 16.1426 -7.86133 15.5762 -7.86133 L 12.5195 -7.86133 L 12.5195 -10.9277 C 12.5195 -11.5039 12.207 -11.8555 11.6797 -11.8555 C 11.1621 -11.8555 10.8789 -11.4844 10.8789 -10.9277 L 10.8789 -7.86133 L 7.83203 -7.86133 C 7.25586 -7.86133 6.89453 -7.55859 6.89453 -7.03125 C 6.89453 -6.51367 7.28516 -6.23047 7.83203 -6.23047 L 10.8789 -6.23047 L 10.8789 -3.33984 C 10.8789 -2.79297 11.1621 -2.41211 11.6797 -2.41211 Z"/>
  </g>
  <g id="" transform="matrix(1 0 0 1 304.914 1933)">
   <path d="M 14.9707 5.67383 C 21.9336 5.67383 27.6855 -0.078125 27.6855 -7.04102 C 27.6855 -14.0039 21.9238 -19.7559 14.9609 -19.7559 C 7.99805 -19.7559 2.25586 -14.0039 2.25586 -7.04102 C 2.25586 -0.078125 8.00781 5.67383 14.9707 5.67383 Z M 14.9707 3.85742 C 8.92578 3.85742 4.08203 -1.00586 4.08203 -7.04102 C 4.08203 -13.0762 8.91602 -17.9395 14.9609 -17.9395 C 20.9961 -17.9395 25.8594 -13.0762 25.8691 -7.04102 C 25.8789 -1.00586 21.0059 3.85742 14.9707 3.85742 Z M 14.9414 -1.06445 C 15.5176 -1.06445 15.8594 -1.45508 15.8594 -2.06055 L 15.8594 -6.13281 L 20.0977 -6.13281 C 20.6934 -6.13281 21.1133 -6.46484 21.1133 -7.02148 C 21.1133 -7.59766 20.7227 -7.93945 20.0977 -7.93945 L 15.8594 -7.93945 L 15.8594 -12.1875 C 15.8594 -12.8027 15.5176 -13.1934 14.9414 -13.1934 C 14.3848 -13.1934 14.0625 -12.7832 14.0625 -12.1875 L 14.0625 -7.93945 L 9.82422 -7.93945 C 9.20898 -7.93945 8.80859 -7.59766 8.80859 -7.02148 C 8.80859 -6.46484 9.23828 -6.13281 9.82422 -6.13281 L 14.0625 -6.13281 L 14.0625 -2.06055 C 14.0625 -1.47461 14.3848 -1.06445 14.9414 -1.06445 Z"/>
  </g>
  <text style="stroke:none;fill:black;font-family:-apple-system,&quot;SF Pro Display&quot;,&quot;SF Pro Text&quot;,Helvetica,sans-serif;font-weight:bold;" transform="matrix(1 0 0 1 263 1953)">Design Variations</text>
  <text style="stroke:none;fill:black;font-family:-apple-system,&quot;SF Pro Display&quot;,&quot;SF Pro Text&quot;,Helvetica,sans-serif;" transform="matrix(1 0 0 1 263 1971)">Symbols are supported in up to nine weights and three scales.</text>
  <text style="stroke:none;fill:black;font-family:-apple-system,&quot;SF Pro Display&quot;,&quot;SF Pro Text&quot;,Helvetica,sans-serif;" transform="matrix(1 0 0 1 263 1989)">For optimal layout with text and other symbols, vertically align</text>
  <text style="stroke:none;fill:black;font-family:-apple-system,&quot;SF Pro Display&quot;,&quot;SF Pro Text&quot;,Helvetica,sans-serif;" transform="matrix(1 0 0 1 263 2007)">symbols with the adjacent text.</text>
  <rect height="14" id="" style="fill:#00AEEF;stroke:none;opacity:0.4;" width="3" x="776" y="1919"/>
  <g id="" transform="matrix(1 0 0 1 779 1933)">
   <path d="M 10.5273 0 L 12.373 0 L 7.17773 -14.0918 L 5.43945 -14.0918 L 0.244141 0 L 2.08984 0 L 3.50586 -4.0332 L 9.11133 -4.0332 Z M 6.2793 -11.9531 L 6.33789 -11.9531 L 8.59375 -5.52734 L 4.02344 -5.52734 Z"/>
  </g>
  <rect height="14" id="" style="fill:#00AEEF;stroke:none;opacity:0.4;" width="3" x="791.617" y="1919"/>
  <text style="stroke:none;fill:black;font-family:-apple-system,&quot;SF Pro Display&quot;,&quot;SF Pro Text&quot;,Helvetica,sans-serif;font-weight:bold;" transform="matrix(1 0 0 1 776 1953)">Side Bearings</text>
  <text style="stroke:none;fill:black;font-family:-apple-system,&quot;SF Pro Display&quot;,&quot;SF Pro Text&quot;,Helvetica,sans-serif;" transform="matrix(1 0 0 1 776 1971)">Horizontal padding on the left and right side of each symbol</text>
  <text style="stroke:none;fill:black;font-family:-apple-system,&quot;SF Pro Display&quot;,&quot;SF Pro Text&quot;,Helvetica,sans-serif;" transform="matrix(1 0 0 1 776 1989)">can be adjusted by modifying the width of the blue rectangles.</text>
  <text style="stroke:none;fill:black;font-family:-apple-system,&quot;SF Pro Display&quot;,&quot;SF Pro Text&quot;,Helvetica,sans-serif;" transform="matrix(1 0 0 1 776 2007)">Modifications are automatically applied proportionally to all</text>
  <text style="stroke:none;fill:black;font-family:-apple-system,&quot;SF Pro Display&quot;,&quot;SF Pro Text&quot;,Helvetica,sans-serif;" transform="matrix(1 0 0 1 776 2025)">scales and weights.</text>
  <g id="" transform="matrix(1 0 0 1 1289 1933)">
   <path d="M 2.96875 2.35352 L 3.80859 3.19336 C 4.84375 4.22852 6.12305 4.15039 7.19727 2.97852 L 16.1621 -6.82617 C 16.5527 -6.74805 16.9629 -6.8457 17.4902 -7.02148 C 18.1738 -7.25586 18.2715 -7.25586 18.3887 -7.13867 C 18.5352 -7.01172 18.4863 -6.89453 18.2422 -6.25 C 17.8809 -5.33203 17.8125 -4.79492 18.5547 -4.02344 L 19.4238 -3.13477 C 20.2734 -2.24609 21.3281 -2.26562 22.2168 -3.14453 L 25.0586 -5.97656 C 25.9473 -6.86523 25.957 -7.92969 25.0781 -8.7793 L 24.1797 -9.64844 C 23.4082 -10.4004 22.8711 -10.3516 21.9629 -9.98047 C 21.3184 -9.72656 21.2012 -9.6875 21.0645 -9.81445 C 20.9375 -9.93164 20.9473 -10.0391 21.1816 -10.7129 C 21.5332 -11.6895 21.5723 -12.2852 20.752 -13.0957 L 19.3359 -14.5117 C 15.1953 -18.6133 11.2305 -18.7402 7.65625 -15.4395 C 7.08008 -14.9023 6.99219 -14.1504 7.53906 -13.6133 L 7.79297 -13.3594 C 8.22266 -12.9297 8.86719 -12.8418 9.41406 -13.1152 C 11.0645 -13.9453 12.2559 -14.0234 13.457 -12.9785 L 13.0273 -11.416 C 12.8516 -10.8008 12.793 -10.3418 12.9199 -9.93164 L 3.18359 -1.04492 C 2.02148 0.0292969 1.93359 1.32812 2.96875 2.35352 Z M 8.96484 -14.4922 C 8.89648 -14.5703 8.86719 -14.6582 8.99414 -14.7559 C 11.709 -17.2852 15.0391 -16.8457 18.3496 -13.5254 L 19.6973 -12.168 C 20.0879 -11.7773 20.0977 -11.582 19.8828 -10.8691 C 19.6582 -10.127 19.502 -9.53125 20.1465 -8.88672 C 20.8105 -8.22266 21.2891 -8.41797 22.207 -8.63281 C 22.9004 -8.79883 23.0664 -8.79883 23.4473 -8.41797 L 24.0918 -7.77344 C 24.4043 -7.48047 24.4141 -7.32422 24.0723 -6.97266 L 21.2207 -4.13086 C 20.8887 -3.79883 20.7227 -3.79883 20.4297 -4.10156 L 19.7852 -4.75586 C 19.4141 -5.13672 19.4141 -5.30273 19.5801 -6.01562 C 19.7852 -6.88477 19.9805 -7.38281 19.3262 -8.04688 C 18.6719 -8.7207 18.0762 -8.57422 17.3438 -8.33008 C 16.5625 -8.06641 16.3281 -8.06641 15.8984 -8.49609 L 14.6094 -9.78516 C 14.1699 -10.2246 14.1309 -10.4395 14.2676 -10.9082 L 15.0293 -13.3984 C 13.3887 -15.2832 11.4941 -15.5566 9.20898 -14.4434 C 9.11133 -14.3945 9.04297 -14.4141 8.96484 -14.4922 Z M 3.96484 1.36719 C 3.52539 0.927734 3.54492 0.537109 4.14062 -0.00976562 L 13.7402 -8.81836 L 15 -7.55859 L 6.17188 2.02148 C 5.625 2.60742 5.24414 2.64648 4.79492 2.19727 Z"/>
  </g>
  <text style="stroke:none;fill:black;font-family:-apple-system,&quot;SF Pro Display&quot;,&quot;SF Pro Text&quot;,Helvetica,sans-serif;font-weight:bold;" transform="matrix(1 0 0 1 1289 1953)">Exporting</text>
  <text style="stroke:none;fill:black;font-family:-apple-system,&quot;SF Pro Display&quot;,&quot;SF Pro Text&quot;,Helvetica,sans-serif;" transform="matrix(1 0 0 1 1289 1971)">Symbols should be outlined when exporting to ensure the</text>
  <text style="stroke:none;fill:black;font-family:-apple-system,&quot;SF Pro Display&quot;,&quot;SF Pro Text&quot;,Helvetica,sans-serif;" transform="matrix(1 0 0 1 1289 1989)">design is preserved when submitting to Xcode.</text>
  <text id="template-version" style="stroke:none;fill:black;font-family:-apple-system,&quot;SF Pro Display&quot;,&quot;SF Pro Text&quot;,Helvetica,sans-serif;text-anchor:end;" transform="matrix(1 0 0 1 3036 1933)">Template v.0.1</text>
  <text style="stroke:none;fill:black;font-family:-apple-system,&quot;SF Pro Display&quot;,&quot;SF Pro Text&quot;,Helvetica,sans-serif;text-anchor:end;" transform="matrix(1 0 0 1 3036 1951)">Generated from kipsign.square.fill</text>
  <text style="stroke:none;fill:black;font-family:-apple-system,&quot;SF Pro Display&quot;,&quot;SF Pro Text&quot;,Helvetica,sans-serif;text-anchor:end;" transform="matrix(1 0 0 1 3036 1969)">Typeset at 100 points</text>
  <text style="stroke:none;fill:black;font-family:-apple-system,&quot;SF Pro Display&quot;,&quot;SF Pro Text&quot;,Helvetica,sans-serif;" transform="matrix(1 0 0 1 263 726)">Small</text>
  <text style="stroke:none;fill:black;font-family:-apple-system,&quot;SF Pro Display&quot;,&quot;SF Pro Text&quot;,Helvetica,sans-serif;" transform="matrix(1 0 0 1 263 1156)">Medium</text>
  <text style="stroke:none;fill:black;font-family:-apple-system,&quot;SF Pro Display&quot;,&quot;SF Pro Text&quot;,Helvetica,sans-serif;" transform="matrix(1 0 0 1 263 1586)">Large</text>
 </g>
 <g id="Guides">
  <g id="H-reference" style="fill:#27AAE1;stroke:none;" transform="matrix(1 0 0 1 339 696)">
   <path d="M 54.9316 0 L 57.666 0 L 30.5664 -70.459 L 28.0762 -70.459 L 0.976562 0 L 3.66211 0 L 12.9395 -24.4629 L 45.7031 -24.4629 Z M 29.1992 -67.0898 L 29.4434 -67.0898 L 44.8242 -26.709 L 13.8184 -26.709 Z"/>
  </g>
  <line id="Baseline-S" style="fill:none;stroke:#27AAE1;opacity:1;stroke-width:0.577;" x1="263" x2="3036" y1="696" y2="696"/>
  <line id="Capline-S" style="fill:none;stroke:#27AAE1;opacity:1;stroke-width:0.577;" x1="263" x2="3036" y1="625.541" y2="625.541"/>
  <g id="H-reference" style="fill:#27AAE1;stroke:none;" transform="matrix(1 0 0 1 339 1126)">
   <path d="M 54.9316 0 L 57.666 0 L 30.5664 -70.459 L 28.0762 -70.459 L 0.976562 0 L 3.66211 0 L 12.9395 -24.4629 L 45.7031 -24.4629 Z M 29.1992 -67.0898 L 29.4434 -67.0898 L 44.8242 -26.709 L 13.8184 -26.709 Z"/>
  </g>
  <line id="Baseline-M" style="fill:none;stroke:#27AAE1;opacity:1;stroke-width:0.577;" x1="263" x2="3036" y1="1126" y2="1126"/>
  <line id="Capline-M" style="fill:none;stroke:#27AAE1;opacity:1;stroke-width:0.577;" x1="263" x2="3036" y1="1055.54" y2="1055.54"/>
  <g id="H-reference" style="fill:#27AAE1;stroke:none;" transform="matrix(1 0 0 1 339 1556)">
   <path d="M 54.9316 0 L 57.666 0 L 30.5664 -70.459 L 28.0762 -70.459 L 0.976562 0 L 3.66211 0 L 12.9395 -24.4629 L 45.7031 -24.4629 Z M 29.1992 -67.0898 L 29.4434 -67.0898 L 44.8242 -26.709 L 13.8184 -26.709 Z"/>
  </g>
  <line id="Baseline-L" style="fill:none;stroke:#27AAE1;opacity:1;stroke-width:0.577;" x1="263" x2="3036" y1="1556" y2="1556"/>
  <line id="Capline-L" style="fill:none;stroke:#27AAE1;opacity:1;stroke-width:0.577;" x1="263" x2="3036" y1="1485.54" y2="1485.54"/>
  <rect height="119.336" id="left-margin" style="fill:#00AEEF;stroke:none;opacity:0.4;" width="12.4512" x="1392.42" y="1030.79"/>
  <rect height="119.336" id="right-margin" style="fill:#00AEEF;stroke:none;opacity:0.4;" width="12.5" x="1494.77" y="1030.79"/>
 </g>
 <g id="Symbols">
  <g id="Ultralight-S" transform="matrix(1 0 0 1 516.352 696)">
   <path d="M 19.7754 -1.5625 L 66.9922 -1.5625 C 73.5352 -1.5625 76.9531 -5.12695 76.9531 -11.5234 L 76.9531 -58.7891 C 76.9531 -65.2344 73.5352 -68.75 66.9922 -68.75 L 19.7754 -68.75 C 13.2324 -68.75 9.76562 -65.2832 9.76562 -58.7891 L 9.76562 -11.5234 C 9.76562 -5.0293 13.2324 -1.5625 19.7754 -1.5625 Z M 30.8594 -34.668 C 30.8594 -35.2539 31.2988 -35.7422 31.9824 -35.7422 L 34.7168 -35.7422 L 34.7168 -50.8301 C 34.7168 -51.5137 35.1562 -51.9531 35.8398 -51.9531 C 36.4746 -51.9531 36.9629 -51.5137 36.9629 -50.8301 L 36.9629 -35.7422 L 39.209 -35.7422 L 53.0762 -51.3672 C 53.3203 -51.709 53.6133 -51.9043 54.0039 -51.9043 C 54.6387 -51.9043 55.0781 -51.4648 55.0781 -50.8789 C 55.0781 -50.6836 55.0293 -50.293 54.7363 -50.0488 L 41.9922 -35.7422 L 54.7852 -35.7422 C 55.4688 -35.7422 55.9082 -35.2539 55.9082 -34.668 C 55.9082 -34.1309 55.4688 -33.5938 54.7852 -33.5938 L 41.9434 -33.5938 L 54.6875 -19.3848 C 54.9805 -19.0918 55.0293 -18.75 55.0293 -18.457 C 55.0293 -17.8711 54.541 -17.4316 53.9551 -17.4316 C 53.7109 -17.4316 53.3691 -17.5781 53.1738 -17.8223 L 39.1113 -33.5938 L 36.9629 -33.5938 L 36.9629 -18.5547 C 36.9629 -17.8711 36.4746 -17.4316 35.8398 -17.4316 C 35.2539 -17.4316 34.7168 -17.8711 34.7168 -18.5547 L 34.7168 -33.5938 L 31.9824 -33.5938 C 31.2988 -33.5938 30.8594 -34.1309 30.8594 -34.668 Z"/>
  </g>
  <g id="Thin-S" transform="matrix(1 0 0 1 812.599 696)">
   <path d="M 20.3125 -1.12305 L 67.334 -1.12305 C 74.2676 -1.12305 77.8809 -4.78516 77.8809 -11.6211 L 77.8809 -58.6914 C 77.8809 -65.5762 74.2676 -69.2383 67.334 -69.2383 L 20.3125 -69.2383 C 13.3789 -69.2383 9.76562 -65.625 9.76562 -58.6914 L 9.76562 -11.6211 C 9.76562 -4.6875 13.3789 -1.12305 20.3125 -1.12305 Z M 30.6152 -34.7168 C 30.6152 -35.4492 31.2012 -36.084 31.9824 -36.084 L 34.6191 -36.084 L 34.6191 -50.9766 C 34.6191 -51.9043 35.2539 -52.4902 36.1816 -52.4902 C 37.0605 -52.4902 37.6953 -51.9043 37.6953 -50.9766 L 37.6953 -36.084 L 39.8438 -36.084 L 53.418 -51.7578 C 53.8086 -52.2461 54.1992 -52.4902 54.6875 -52.4902 C 55.5176 -52.4902 56.1523 -51.9043 56.1523 -51.0742 C 56.1523 -50.7812 56.0059 -50.3418 55.7129 -50 L 43.5059 -36.084 L 55.6152 -36.084 C 56.4453 -36.084 56.9824 -35.4492 56.9824 -34.7168 C 56.9824 -34.0332 56.4453 -33.3984 55.6152 -33.3984 L 43.5059 -33.3984 L 55.6641 -19.4824 C 56.0059 -19.0918 56.1035 -18.6523 56.1035 -18.3105 C 56.1035 -17.5293 55.4688 -16.8945 54.6387 -16.8945 C 54.248 -16.8945 53.8574 -17.0898 53.4668 -17.5293 L 39.7949 -33.3984 L 37.6953 -33.3984 L 37.6953 -18.457 C 37.6953 -17.4805 37.0605 -16.8945 36.1816 -16.8945 C 35.3516 -16.8945 34.6191 -17.4805 34.6191 -18.457 L 34.6191 -33.3984 L 31.9824 -33.3984 C 31.2012 -33.3984 30.6152 -34.0332 30.6152 -34.7168 Z"/>
  </g>
  <g id="Light-S" transform="matrix(1 0 0 1 1108.46 696)">
   <path d="M 21.3867 -0.292969 L 67.9688 -0.292969 C 75.7324 -0.292969 79.5898 -4.15039 79.5898 -11.7676 L 79.5898 -58.5938 C 79.5898 -66.2109 75.7324 -70.1172 67.9688 -70.1172 L 21.3867 -70.1172 C 13.6719 -70.1172 9.76562 -66.2598 9.76562 -58.5938 L 9.76562 -11.7676 C 9.76562 -4.15039 13.6719 -0.292969 21.3867 -0.292969 Z M 30.1758 -34.8145 C 30.1758 -35.8887 30.957 -36.6211 31.9336 -36.6211 L 34.5215 -36.6211 L 34.5215 -51.2695 C 34.5215 -52.7344 35.4492 -53.5645 36.8652 -53.5645 C 38.2324 -53.5645 39.1602 -52.7344 39.1602 -51.2695 L 39.1602 -36.6211 L 41.0156 -36.6211 L 54.1016 -52.4902 C 54.6875 -53.3203 55.3223 -53.6133 56.0059 -53.6133 C 57.2754 -53.6133 58.2031 -52.6855 58.2031 -51.5137 C 58.2031 -51.0254 57.959 -50.4395 57.5684 -49.9512 L 46.4844 -36.6211 L 57.2754 -36.6211 C 58.3008 -36.6211 59.0332 -35.8887 59.0332 -34.8145 C 59.0332 -33.8379 58.3008 -33.0078 57.2754 -33.0078 L 46.4844 -33.0078 L 57.5684 -19.5801 C 58.0078 -19.043 58.2031 -18.457 58.2031 -18.0176 C 58.2031 -16.7969 57.2266 -15.8691 56.0059 -15.8691 C 55.3223 -15.8691 54.7363 -16.2109 54.1016 -16.9434 L 41.0645 -33.0078 L 39.1602 -33.0078 L 39.1602 -18.2129 C 39.1602 -16.748 38.1836 -15.8691 36.8652 -15.8691 C 35.498 -15.8691 34.5215 -16.748 34.5215 -18.2129 L 34.5215 -33.0078 L 31.9336 -33.0078 C 30.957 -33.0078 30.1758 -33.8379 30.1758 -34.8145 Z"/>
  </g>
  <g id="Regular-S" transform="matrix(1 0 0 1 1404.51 696)">
   <path d="M 22.2168 0.390625 L 68.457 0.390625 C 76.8066 0.390625 80.9082 -3.71094 80.9082 -11.9141 L 80.9082 -58.4961 C 80.9082 -66.6992 76.8066 -70.8008 68.457 -70.8008 L 22.2168 -70.8008 C 13.916 -70.8008 9.76562 -66.6992 9.76562 -58.4961 L 9.76562 -11.9141 C 9.76562 -3.71094 13.916 0.390625 22.2168 0.390625 Z M 29.834 -34.9121 C 29.834 -36.1816 30.8105 -37.0605 31.9336 -37.0605 L 34.4238 -37.0605 L 34.4238 -51.4648 C 34.4238 -53.3203 35.5957 -54.3945 37.3535 -54.3945 C 39.1113 -54.3945 40.2344 -53.3203 40.2344 -51.4648 L 40.2344 -37.0605 L 41.9434 -37.0605 L 54.5898 -53.0762 C 55.4199 -54.1016 56.2012 -54.4922 56.9824 -54.4922 C 58.5449 -54.4922 59.7168 -53.3203 59.7168 -51.8066 C 59.7168 -51.2207 59.4727 -50.5371 58.9844 -49.9023 L 48.7305 -37.0605 L 58.5449 -37.0605 C 59.7656 -37.0605 60.5957 -36.1816 60.5957 -34.9121 C 60.5957 -33.6914 59.7656 -32.7148 58.5449 -32.7148 L 48.7793 -32.7148 L 59.0332 -19.6777 C 59.5215 -19.043 59.7656 -18.3105 59.7656 -17.7734 C 59.7656 -16.2598 58.5449 -15.0879 56.9824 -15.0879 C 56.1523 -15.0879 55.4199 -15.4785 54.5898 -16.5527 L 42.041 -32.7148 L 40.2344 -32.7148 L 40.2344 -18.0664 C 40.2344 -16.2109 39.0625 -15.0879 37.3535 -15.0879 C 35.6445 -15.0879 34.4238 -16.2109 34.4238 -18.0664 L 34.4238 -32.7148 L 31.9336 -32.7148 C 30.8105 -32.7148 29.834 -33.6914 29.834 -34.9121 Z"/>
  </g>
  <g id="Medium-S" transform="matrix(1 0 0 1 1700.63 696)">
   <path d="M 22.8516 0.976562 L 68.9941 0.976562 C 77.6367 0.976562 82.0801 -3.4668 82.0801 -11.9629 L 82.0801 -58.3984 C 82.0801 -66.9434 77.6367 -71.3867 68.9941 -71.3867 L 22.8516 -71.3867 C 14.2578 -71.3867 9.76562 -66.9434 9.76562 -58.3984 L 9.76562 -11.9629 C 9.76562 -3.4668 14.2578 0.976562 22.8516 0.976562 Z M 29.7852 -35.2539 C 29.7852 -36.4746 30.6641 -37.3047 31.7383 -37.3047 L 34.2773 -37.3047 L 34.2773 -50.6348 C 34.2773 -52.8809 35.6934 -54.248 37.8418 -54.248 C 39.9902 -54.248 41.4062 -52.8809 41.4062 -50.6348 L 41.4062 -37.3535 L 42.7246 -37.3535 L 54.2969 -52.5391 C 55.1758 -53.7598 56.2012 -54.2969 57.2266 -54.2969 C 59.1797 -54.2969 60.5469 -52.9785 60.5469 -51.1719 C 60.5469 -50.4883 60.2539 -49.6094 59.7168 -48.9258 L 50.5859 -37.3047 L 59.668 -37.3047 C 60.791 -37.3047 61.6211 -36.4746 61.6211 -35.2539 C 61.6211 -34.1309 60.791 -33.2031 59.668 -33.2031 L 50.5371 -33.2031 L 59.7656 -21.1914 C 60.3027 -20.4102 60.6445 -19.4336 60.6445 -18.7012 C 60.6445 -16.7969 59.1797 -15.4297 57.2266 -15.4297 C 56.1035 -15.4297 55.0293 -16.0645 54.1504 -17.334 L 42.8223 -32.959 L 41.4062 -32.959 L 41.4062 -19.0918 C 41.4062 -16.8457 39.9414 -15.4297 37.8418 -15.4297 C 35.7422 -15.4297 34.2773 -16.8457 34.2773 -19.0918 L 34.2773 -33.2031 L 31.7383 -33.2031 C 30.6641 -33.2031 29.7852 -34.1309 29.7852 -35.2539 Z"/>
  </g>
  <g id="Semibold-S" transform="matrix(1 0 0 1 1996.9 696)">
   <path d="M 23.3398 1.41602 L 69.3848 1.41602 C 78.2227 1.41602 82.959 -3.32031 82.959 -12.0605 L 82.959 -58.3496 C 82.959 -67.0898 78.2227 -71.8262 69.3848 -71.8262 L 23.3398 -71.8262 C 14.5508 -71.8262 9.76562 -67.0898 9.76562 -58.3496 L 9.76562 -12.0605 C 9.76562 -3.32031 14.5508 1.41602 23.3398 1.41602 Z M 29.7363 -35.498 C 29.7363 -36.6699 30.5664 -37.4512 31.6406 -37.4512 L 34.1797 -37.4512 L 34.1797 -50 C 34.1797 -52.5391 35.791 -54.1504 38.1836 -54.1504 C 40.6738 -54.1504 42.2852 -52.5391 42.2852 -50 L 42.2852 -37.5488 L 43.3105 -37.5488 L 54.0527 -52.1484 C 54.9805 -53.4668 56.25 -54.1504 57.4219 -54.1504 C 59.6191 -54.1504 61.1816 -52.6855 61.1816 -50.6836 C 61.1816 -49.9023 60.8398 -48.9258 60.3027 -48.1445 L 51.9531 -37.4512 L 60.498 -37.4512 C 61.6211 -37.4512 62.4023 -36.6699 62.4023 -35.498 C 62.4023 -34.4238 61.6211 -33.5938 60.498 -33.5938 L 51.8555 -33.5938 L 60.3027 -22.3145 C 60.9375 -21.4355 61.3281 -20.2637 61.3281 -19.3848 C 61.3281 -17.2363 59.7168 -15.7227 57.4219 -15.7227 C 56.0547 -15.7227 54.7363 -16.5039 53.8574 -17.9199 L 43.4082 -33.1543 L 42.2852 -33.1543 L 42.2852 -19.873 C 42.2852 -17.334 40.625 -15.7227 38.1836 -15.7227 C 35.791 -15.7227 34.1797 -17.334 34.1797 -19.873 L 34.1797 -33.5938 L 31.6406 -33.5938 C 30.5664 -33.5938 29.7363 -34.4238 29.7363 -35.498 Z"/>
  </g>
  <g id="Bold-S" transform="matrix(1 0 0 1 2293.01 696)">
   <path d="M 23.9746 2.00195 L 69.9219 2.00195 C 79.0527 2.00195 84.1797 -3.07617 84.1797 -12.1582 L 84.1797 -58.252 C 84.1797 -67.334 79.0527 -72.4121 69.9219 -72.4121 L 23.9746 -72.4121 C 14.8926 -72.4121 9.76562 -67.334 9.76562 -58.252 L 9.76562 -12.1582 C 9.76562 -3.07617 14.8926 2.00195 23.9746 2.00195 Z M 29.6387 -35.8887 C 29.6387 -36.9629 30.4199 -37.6953 31.4453 -37.6953 L 34.0332 -37.6953 L 34.0332 -49.1699 C 34.0332 -52.0996 35.8887 -54.0527 38.6719 -54.0527 C 41.5527 -54.0527 43.457 -52.0996 43.457 -49.1699 L 43.457 -37.793 L 44.0918 -37.793 L 53.7598 -51.6113 C 54.7852 -53.0762 56.25 -53.9551 57.666 -53.9551 C 60.2539 -53.9551 62.0117 -52.3438 62.0117 -50 C 62.0117 -49.1211 61.6211 -47.998 61.0352 -47.168 L 53.8086 -37.6953 L 61.6699 -37.6953 C 62.6953 -37.6953 63.4277 -36.9629 63.4277 -35.8887 C 63.4277 -34.8145 62.6953 -34.082 61.6699 -34.082 L 53.6133 -34.082 L 61.0352 -23.8281 C 61.7676 -22.8027 62.207 -21.3867 62.207 -20.3125 C 62.207 -17.8223 60.3516 -16.0645 57.666 -16.0645 C 55.957 -16.0645 54.3457 -17.0898 53.418 -18.75 L 44.1406 -33.3984 L 43.457 -33.3984 L 43.457 -20.9473 C 43.457 -18.0176 41.5527 -16.0645 38.6719 -16.0645 C 35.9375 -16.0645 34.0332 -18.0176 34.0332 -20.9473 L 34.0332 -34.082 L 31.4453 -34.082 C 30.4199 -34.082 29.6387 -34.8145 29.6387 -35.8887 Z"/>
  </g>
  <g id="Heavy-S" transform="matrix(1 0 0 1 2588.86 696)">
   <path d="M 24.9023 2.83203 L 70.7031 2.83203 C 80.2246 2.83203 85.8887 -2.7832 85.8887 -12.3047 L 85.8887 -58.1055 C 85.8887 -67.627 80.2246 -73.2422 70.7031 -73.2422 L 24.9023 -73.2422 C 15.3809 -73.2422 9.76562 -67.627 9.76562 -58.1055 L 9.76562 -12.3047 C 9.76562 -2.7832 15.3809 2.83203 24.9023 2.83203 Z M 29.541 -36.377 C 29.541 -37.3535 30.2246 -37.9883 31.1523 -37.9883 L 33.8379 -37.9883 L 33.8379 -47.998 C 33.8379 -51.4648 36.084 -53.8574 39.4043 -53.8574 C 42.8223 -53.8574 45.166 -51.4648 45.166 -47.998 L 45.166 -38.1836 L 45.2637 -38.1836 L 53.3203 -50.8301 C 54.4434 -52.5391 56.2988 -53.7109 58.0078 -53.7109 C 61.1328 -53.7109 63.1836 -51.8555 63.1836 -49.0723 C 63.1836 -47.998 62.7441 -46.6797 62.1094 -45.7031 L 56.4941 -37.9883 L 63.3301 -37.9883 C 64.2578 -37.9883 64.9414 -37.3535 64.9414 -36.377 C 64.9414 -35.4004 64.2578 -34.7656 63.3301 -34.7656 L 56.2012 -34.7656 L 62.1094 -26.0742 C 62.9395 -24.8047 63.5254 -22.998 63.5254 -21.6309 C 63.5254 -18.6035 61.3281 -16.6016 58.0078 -16.6016 C 55.8594 -16.6016 53.8086 -17.9199 52.7832 -19.9219 L 45.2637 -33.7891 L 45.166 -33.7891 L 45.166 -22.4609 C 45.166 -18.9453 42.8223 -16.6016 39.4043 -16.6016 C 36.084 -16.6016 33.8379 -18.9453 33.8379 -22.4609 L 33.8379 -34.7656 L 31.1523 -34.7656 C 30.2246 -34.7656 29.541 -35.4004 29.541 -36.377 Z"/>
  </g>
  <g id="Black-S" transform="matrix(1 0 0 1 2884.82 696)">
   <path d="M 25.7324 3.61328 L 71.4355 3.61328 C 81.2988 3.61328 87.4023 -2.49023 87.4023 -12.4023 L 87.4023 -58.0078 C 87.4023 -67.9199 81.2988 -74.0234 71.4355 -74.0234 L 25.7324 -74.0234 C 15.8203 -74.0234 9.76562 -67.9199 9.76562 -58.0078 L 9.76562 -12.4023 C 9.76562 -2.49023 15.8203 3.61328 25.7324 3.61328 Z M 29.4922 -36.8652 C 29.4922 -37.7441 30.0781 -38.2812 30.957 -38.2812 L 33.6914 -38.2812 L 33.6914 -46.875 C 33.6914 -50.9277 36.2305 -53.6621 39.9902 -53.6621 C 43.9941 -53.6621 46.6797 -50.9277 46.6797 -46.875 L 46.6797 -39.209 L 46.2891 -38.5254 L 46.6797 -38.5254 L 46.6797 -39.209 L 52.9297 -50.0977 C 54.1504 -52.0508 56.3477 -53.4668 58.3008 -53.4668 C 61.9141 -53.4668 64.2578 -51.416 64.2578 -48.2422 C 64.2578 -47.0215 63.7695 -45.5078 63.0859 -44.4336 L 58.9355 -38.2812 L 64.7949 -38.2812 C 65.625 -38.2812 66.2598 -37.7441 66.2598 -36.8652 C 66.2598 -35.9375 65.625 -35.4004 64.7949 -35.4004 L 58.4473 -35.4004 L 63.0859 -28.0273 C 64.0137 -26.6113 64.6973 -24.4141 64.6973 -22.8516 C 64.6973 -19.3359 62.1582 -17.041 58.3008 -17.041 C 55.8105 -17.041 53.3203 -18.7012 52.1973 -20.9473 L 46.6797 -33.1543 L 46.6797 -34.082 L 46.2402 -34.082 L 46.6797 -33.1543 L 46.6797 -23.8281 C 46.6797 -19.7754 43.9941 -17.041 39.9902 -17.041 C 36.2305 -17.041 33.6914 -19.7754 33.6914 -23.8281 L 33.6914 -35.4004 L 30.957 -35.4004 C 30.0781 -35.4004 29.4922 -35.9375 29.4922 -36.8652 Z"/>
  </g>
  <g id="Ultralight-M" transform="matrix(1 0 0 1 504.535 1126)">
   <path d="M 25 7.56836 L 85.3516 7.56836 C 93.5547 7.56836 97.9004 3.125 97.9004 -4.98047 L 97.9004 -65.2832 C 97.9004 -73.3887 93.5547 -77.832 85.3516 -77.832 L 25 -77.832 C 16.7969 -77.832 12.4512 -73.4863 12.4512 -65.2832 L 12.4512 -4.98047 C 12.4512 3.22266 16.7969 7.56836 25 7.56836 Z M 39.4531 -34.5215 C 39.4531 -35.1562 40.0391 -35.791 40.8203 -35.791 L 44.3359 -35.791 L 44.3359 -55.0781 C 44.3359 -55.8594 44.873 -56.3477 45.6055 -56.3477 C 46.3379 -56.3477 46.875 -55.8594 46.875 -55.0781 L 46.875 -35.791 L 49.8047 -35.791 L 67.5781 -55.6641 C 67.8711 -56.0059 68.2129 -56.25 68.7012 -56.25 C 69.4336 -56.25 69.873 -55.8105 69.873 -55.127 C 69.873 -54.8828 69.8242 -54.4434 69.5312 -54.1504 L 53.0273 -35.791 L 69.5801 -35.791 C 70.4102 -35.791 70.9473 -35.1562 70.9473 -34.5215 C 70.9473 -33.8379 70.4102 -33.2031 69.5801 -33.2031 L 52.9785 -33.2031 L 69.3848 -14.9902 C 69.7754 -14.6484 69.8242 -14.209 69.8242 -13.916 C 69.8242 -13.2324 69.2871 -12.7441 68.6035 -12.7441 C 68.3105 -12.7441 67.9688 -12.8906 67.7246 -13.0859 L 49.6582 -33.2031 L 46.875 -33.2031 L 46.875 -14.0137 C 46.875 -13.2324 46.3379 -12.7441 45.6055 -12.7441 C 44.9707 -12.7441 44.3359 -13.2324 44.3359 -14.0137 L 44.3359 -33.2031 L 40.8203 -33.2031 C 40.0391 -33.2031 39.4531 -33.8379 39.4531 -34.5215 Z"/>
  </g>
  <g id="Thin-M" transform="matrix(1 0 0 1 800.734 1126)">
   <path d="M 25.6348 8.05664 L 85.7422 8.05664 C 94.3848 8.05664 98.9258 3.4668 98.9258 -5.0293 L 98.9258 -65.2344 C 98.9258 -73.7305 94.3848 -78.3691 85.7422 -78.3691 L 25.6348 -78.3691 C 16.9922 -78.3691 12.4512 -73.877 12.4512 -65.2344 L 12.4512 -5.0293 C 12.4512 3.56445 16.9922 8.05664 25.6348 8.05664 Z M 39.209 -34.5703 C 39.209 -35.4004 39.8926 -36.1328 40.8203 -36.1328 L 44.2383 -36.1328 L 44.2383 -55.2246 C 44.2383 -56.2988 44.9707 -56.9824 45.9961 -56.9824 C 46.9727 -56.9824 47.7051 -56.2988 47.7051 -55.2246 L 47.7051 -36.1328 L 50.4883 -36.1328 L 67.9688 -56.1035 C 68.4082 -56.6406 68.8477 -56.9336 69.4336 -56.9336 C 70.4102 -56.9336 71.0938 -56.25 71.0938 -55.3711 C 71.0938 -55.0293 70.9473 -54.4922 70.6055 -54.1016 L 54.7363 -36.1328 L 70.5566 -36.1328 C 71.4844 -36.1328 72.168 -35.4004 72.168 -34.5703 C 72.168 -33.7402 71.4844 -33.0078 70.5566 -33.0078 L 54.6875 -33.0078 L 70.5078 -15.0879 C 70.9473 -14.5996 71.0449 -14.1113 71.0449 -13.7207 C 71.0449 -12.793 70.3125 -12.1582 69.3848 -12.1582 C 68.9453 -12.1582 68.457 -12.3535 68.0664 -12.793 L 50.4395 -33.0078 L 47.7051 -33.0078 L 47.7051 -13.8672 C 47.7051 -12.793 46.9727 -12.1582 45.9961 -12.1582 C 45.0684 -12.1582 44.2383 -12.793 44.2383 -13.8672 L 44.2383 -33.0078 L 40.8203 -33.0078 C 39.8926 -33.0078 39.209 -33.7402 39.209 -34.5703 Z"/>
  </g>
  <g id="Light-M" transform="matrix(1 0 0 1 1096.47 1126)">
   <path d="M 26.8555 9.0332 L 86.4746 9.0332 C 96.0449 9.0332 100.879 4.15039 100.879 -5.22461 L 100.879 -65.0879 C 100.879 -74.5117 96.0449 -79.3945 86.4746 -79.3945 L 26.8555 -79.3945 C 17.334 -79.3945 12.4512 -74.5605 12.4512 -65.0879 L 12.4512 -5.22461 C 12.4512 4.19922 17.334 9.0332 26.8555 9.0332 Z M 38.7207 -34.668 C 38.7207 -35.8887 39.6484 -36.7676 40.7715 -36.7676 L 44.1406 -36.7676 L 44.1406 -55.5664 C 44.1406 -57.2266 45.166 -58.2031 46.7285 -58.2031 C 48.291 -58.2031 49.3652 -57.2266 49.3652 -55.5664 L 49.3652 -36.7676 L 51.8555 -36.7676 L 68.75 -56.9824 C 69.4336 -57.8613 70.166 -58.252 70.9473 -58.252 C 72.3633 -58.252 73.3887 -57.1777 73.3887 -55.8105 C 73.3887 -55.3223 73.1934 -54.6387 72.7051 -54.0527 L 58.1055 -36.7676 L 72.4121 -36.7676 C 73.6328 -36.7676 74.5117 -35.8887 74.5117 -34.668 C 74.5117 -33.5449 73.6328 -32.5684 72.4121 -32.5684 L 58.1055 -32.5684 L 72.7051 -15.1855 C 73.1934 -14.5996 73.3887 -13.916 73.3887 -13.3789 C 73.3887 -12.0117 72.3145 -10.9375 70.8984 -10.9375 C 70.166 -10.9375 69.4824 -11.3281 68.7988 -12.1582 L 51.9043 -32.5684 L 49.3652 -32.5684 L 49.3652 -13.623 C 49.3652 -11.9629 48.291 -10.9375 46.7285 -10.9375 C 45.2637 -10.9375 44.1406 -11.9629 44.1406 -13.623 L 44.1406 -32.5684 L 40.7715 -32.5684 C 39.6484 -32.5684 38.7207 -33.5449 38.7207 -34.668 Z"/>
  </g>
  <g id="Regular-M" transform="matrix(1 0 0 1 1392.42 1126)">
   <path d="M 27.7832 9.76562 L 87.0605 9.76562 C 97.2656 9.76562 102.344 4.6875 102.344 -5.37109 L 102.344 -64.9902 C 102.344 -75.0488 97.2656 -80.127 87.0605 -80.127 L 27.7832 -80.127 C 17.627 -80.127 12.4512 -75.0977 12.4512 -64.9902 L 12.4512 -5.37109 C 12.4512 4.73633 17.627 9.76562 27.7832 9.76562 Z M 38.3301 -34.7656 C 38.3301 -36.2305 39.4043 -37.3047 40.7715 -37.3047 L 44.043 -37.3047 L 44.043 -55.8105 C 44.043 -57.9102 45.3125 -59.1309 47.3145 -59.1309 C 49.3164 -59.1309 50.5859 -57.9102 50.5859 -55.8105 L 50.5859 -37.3047 L 52.8809 -37.3047 L 69.3359 -57.6172 C 70.2148 -58.7402 71.1426 -59.2285 72.0703 -59.2285 C 73.8281 -59.2285 75.1465 -57.8613 75.1465 -56.1523 C 75.1465 -55.5176 74.8535 -54.6875 74.3164 -54.0039 L 60.6445 -37.3047 L 73.8281 -37.3047 C 75.293 -37.3047 76.2695 -36.2305 76.2695 -34.7656 C 76.2695 -33.3984 75.293 -32.2266 73.8281 -32.2266 L 60.6445 -32.2266 L 74.3164 -15.2832 C 74.9023 -14.5996 75.1953 -13.7695 75.1953 -13.0859 C 75.1953 -11.377 73.8281 -10.0586 72.0703 -10.0586 C 71.0938 -10.0586 70.2637 -10.5469 69.3359 -11.6699 L 53.0273 -32.2266 L 50.5859 -32.2266 L 50.5859 -13.4277 C 50.5859 -11.3281 49.2676 -10.0586 47.3145 -10.0586 C 45.4102 -10.0586 44.043 -11.3281 44.043 -13.4277 L 44.043 -32.2266 L 40.7715 -32.2266 C 39.4043 -32.2266 38.3301 -33.3984 38.3301 -34.7656 Z"/>
  </g>
  <g id="Medium-M" transform="matrix(1 0 0 1 1688.45 1126)">
   <path d="M 28.5645 10.4492 L 87.6465 10.4492 C 98.2422 10.4492 103.711 4.98047 103.711 -5.46875 L 103.711 -64.8926 C 103.711 -75.3418 98.2422 -80.8105 87.6465 -80.8105 L 28.5645 -80.8105 C 17.9688 -80.8105 12.4512 -75.3906 12.4512 -64.8926 L 12.4512 -5.46875 C 12.4512 4.98047 17.9688 10.4492 28.5645 10.4492 Z M 38.2324 -35.1074 C 38.2324 -36.5723 39.2578 -37.5488 40.5762 -37.5488 L 43.8477 -37.5488 L 43.8477 -54.9805 C 43.8477 -57.5195 45.459 -59.082 47.9004 -59.082 C 50.293 -59.082 51.9043 -57.5195 51.9043 -54.9805 L 51.9043 -37.5977 L 53.8086 -37.5977 L 69.0918 -57.1289 C 70.0684 -58.4961 71.2891 -59.1309 72.4121 -59.1309 C 74.6094 -59.1309 76.2207 -57.6172 76.2207 -55.5664 C 76.2207 -54.7852 75.8301 -53.7598 75.2441 -52.9785 L 62.793 -37.5488 L 75.1465 -37.5488 C 76.5625 -37.5488 77.5391 -36.5723 77.5391 -35.1074 C 77.5391 -33.7891 76.5625 -32.666 75.1465 -32.666 L 62.7441 -32.666 L 75.2441 -16.8457 C 75.9277 -15.9668 76.3184 -14.8438 76.3184 -14.0137 C 76.3184 -11.8652 74.6582 -10.3027 72.4121 -10.3027 C 71.1426 -10.3027 69.9707 -11.0352 68.9941 -12.4023 L 53.9062 -32.4219 L 51.9043 -32.4219 L 51.9043 -14.4531 C 51.9043 -11.9141 50.293 -10.3027 47.9004 -10.3027 C 45.5078 -10.3027 43.8477 -11.9141 43.8477 -14.4531 L 43.8477 -32.666 L 40.5762 -32.666 C 39.2578 -32.666 38.2324 -33.7891 38.2324 -35.1074 Z"/>
  </g>
  <g id="Semibold-M" transform="matrix(1 0 0 1 1984.65 1126)">
   <path d="M 29.1016 10.9863 L 88.1348 10.9863 C 98.9746 10.9863 104.785 5.17578 104.785 -5.56641 L 104.785 -64.8438 C 104.785 -75.5859 98.9746 -81.3477 88.1348 -81.3477 L 29.1016 -81.3477 C 18.3105 -81.3477 12.4512 -75.5859 12.4512 -64.8438 L 12.4512 -5.56641 C 12.4512 5.22461 18.3105 10.9863 29.1016 10.9863 Z M 38.1348 -35.4004 C 38.1348 -36.8164 39.1602 -37.793 40.4297 -37.793 L 43.75 -37.793 L 43.75 -54.3945 C 43.75 -57.2754 45.5566 -59.082 48.291 -59.082 C 51.0742 -59.082 52.9297 -57.2754 52.9297 -54.3945 L 52.9297 -37.8418 L 54.4922 -37.8418 L 68.8965 -56.7871 C 69.9707 -58.3008 71.3867 -59.082 72.7051 -59.082 C 75.2441 -59.082 77.002 -57.4219 77.002 -55.0781 C 77.002 -54.1992 76.6113 -53.0762 75.9766 -52.1973 L 64.4531 -37.793 L 76.1719 -37.793 C 77.5391 -37.793 78.4668 -36.8164 78.4668 -35.4004 C 78.4668 -34.082 77.5391 -33.0566 76.1719 -33.0566 L 64.3555 -33.0566 L 75.9766 -18.0664 C 76.709 -17.041 77.1484 -15.7227 77.1484 -14.6973 C 77.1484 -12.2559 75.293 -10.498 72.7051 -10.498 C 71.1914 -10.498 69.7266 -11.4258 68.7012 -12.9883 L 54.5898 -32.6172 L 52.9297 -32.6172 L 52.9297 -15.2832 C 52.9297 -12.4023 51.0742 -10.498 48.291 -10.498 C 45.6055 -10.498 43.75 -12.4023 43.75 -15.2832 L 43.75 -33.0566 L 40.4297 -33.0566 C 39.1602 -33.0566 38.1348 -34.082 38.1348 -35.4004 Z"/>
  </g>
  <g id="Bold-M" transform="matrix(1 0 0 1 2280.65 1126)">
   <path d="M 29.8828 11.6699 L 88.7207 11.6699 C 100 11.6699 106.152 5.46875 106.152 -5.66406 L 106.152 -64.6973 C 106.152 -75.8789 100 -82.0312 88.7207 -82.0312 L 29.8828 -82.0312 C 18.6523 -82.0312 12.4512 -75.8789 12.4512 -64.6973 L 12.4512 -5.66406 C 12.4512 5.51758 18.6523 11.6699 29.8828 11.6699 Z M 38.0371 -35.791 C 38.0371 -37.1094 39.0137 -38.0859 40.2344 -38.0859 L 43.6035 -38.0859 L 43.6035 -53.5645 C 43.6035 -56.8848 45.7031 -59.0332 48.877 -59.0332 C 52.1484 -59.0332 54.2969 -56.8848 54.2969 -53.5645 L 54.2969 -38.1836 L 55.4199 -38.1836 L 68.6523 -56.2988 C 69.8242 -58.0078 71.5332 -58.9844 73.0957 -58.9844 C 76.0254 -58.9844 78.0273 -57.1289 78.0273 -54.4434 C 78.0273 -53.4668 77.6367 -52.1484 76.9531 -51.1719 L 66.6992 -38.0859 L 77.4902 -38.0859 C 78.8086 -38.0859 79.7363 -37.1094 79.7363 -35.791 C 79.7363 -34.4727 78.8086 -33.4961 77.4902 -33.4961 L 66.4551 -33.4961 L 76.9531 -19.6289 C 77.7832 -18.457 78.2715 -16.8457 78.2715 -15.625 C 78.2715 -12.793 76.123 -10.791 73.0957 -10.791 C 71.2402 -10.791 69.4336 -11.9141 68.3105 -13.7695 L 55.5176 -32.8125 L 54.2969 -32.8125 L 54.2969 -16.3086 C 54.2969 -12.9883 52.0996 -10.791 48.877 -10.791 C 45.752 -10.791 43.6035 -12.9883 43.6035 -16.3086 L 43.6035 -33.4961 L 40.2344 -33.4961 C 39.0137 -33.4961 38.0371 -34.4727 38.0371 -35.791 Z"/>
  </g>
  <g id="Heavy-M" transform="matrix(1 0 0 1 2576.36 1126)">
   <path d="M 31.0059 12.6465 L 89.6484 12.6465 C 101.416 12.6465 108.154 5.9082 108.154 -5.81055 L 108.154 -64.5508 C 108.154 -76.2695 101.416 -83.0566 89.6484 -83.0566 L 31.0059 -83.0566 C 19.2383 -83.0566 12.4512 -76.3184 12.4512 -64.5508 L 12.4512 -5.81055 C 12.4512 5.9082 19.2383 12.6465 31.0059 12.6465 Z M 37.8418 -36.3281 C 37.8418 -37.5977 38.7695 -38.4766 39.9902 -38.4766 L 43.3594 -38.4766 L 43.3594 -52.3438 C 43.3594 -56.3477 45.8984 -59.0332 49.707 -59.0332 C 53.6133 -59.0332 56.25 -56.3477 56.25 -52.3438 L 56.25 -38.6719 L 56.7871 -38.6719 L 68.3105 -55.6152 C 69.6289 -57.6172 71.7285 -58.8867 73.6328 -58.8867 C 77.1973 -58.8867 79.5898 -56.7383 79.5898 -53.5645 C 79.5898 -52.3438 79.0527 -50.7812 78.3203 -49.6582 L 69.873 -38.4766 L 79.4434 -38.4766 C 80.6641 -38.4766 81.5918 -37.5977 81.5918 -36.3281 C 81.5918 -35.0586 80.6641 -34.1797 79.4434 -34.1797 L 69.5312 -34.1797 L 78.3203 -21.875 C 79.2969 -20.459 79.9316 -18.457 79.9316 -16.9434 C 79.9316 -13.4766 77.3926 -11.1816 73.6328 -11.1816 C 71.2891 -11.1816 68.9941 -12.6465 67.7246 -14.8926 L 56.8359 -33.1543 L 56.25 -33.1543 L 56.25 -17.8223 C 56.25 -13.8184 53.6133 -11.1816 49.707 -11.1816 C 45.8984 -11.1816 43.3594 -13.8184 43.3594 -17.8223 L 43.3594 -34.1797 L 39.9902 -34.1797 C 38.7695 -34.1797 37.8418 -35.0586 37.8418 -36.3281 Z"/>
  </g>
  <g id="Black-M" transform="matrix(1 0 0 1 2872.19 1126)">
   <path d="M 31.9824 13.5742 L 90.4297 13.5742 C 102.686 13.5742 109.961 6.29883 109.961 -5.95703 L 109.961 -64.4043 C 109.961 -76.6602 102.686 -83.9355 90.4297 -83.9355 L 31.9824 -83.9355 C 19.7266 -83.9355 12.4512 -76.6602 12.4512 -64.4043 L 12.4512 -5.95703 C 12.4512 6.29883 19.7266 13.5742 31.9824 13.5742 Z M 37.6953 -36.8164 C 37.6953 -38.0371 38.5742 -38.8184 39.7461 -38.8184 L 43.1641 -38.8184 L 43.1641 -51.2695 C 43.1641 -55.9082 46.0938 -58.9844 50.4395 -58.9844 C 54.9805 -58.9844 58.0078 -55.9082 58.0078 -51.2695 L 58.0078 -39.1113 L 68.0176 -55.0293 C 69.4336 -57.2754 71.9238 -58.7891 74.1211 -58.7891 C 78.2227 -58.7891 80.957 -56.3965 80.957 -52.7344 C 80.957 -51.3672 80.3711 -49.6094 79.541 -48.3398 L 72.7051 -38.8184 L 81.1523 -38.8184 C 82.3242 -38.8184 83.2031 -38.0371 83.2031 -36.8164 C 83.2031 -35.5469 82.3242 -34.7656 81.1523 -34.7656 L 72.2656 -34.7656 L 79.541 -23.9258 C 80.6152 -22.3145 81.3965 -19.873 81.3965 -18.1152 C 81.3965 -14.1602 78.4668 -11.5234 74.1211 -11.5234 C 71.3379 -11.5234 68.6523 -13.2812 67.2363 -15.8691 L 58.0078 -33.4473 L 58.0078 -19.1895 C 58.0078 -14.5996 54.9805 -11.5234 50.4395 -11.5234 C 46.0938 -11.5234 43.1641 -14.5996 43.1641 -19.1895 L 43.1641 -34.7656 L 39.7461 -34.7656 C 38.5742 -34.7656 37.6953 -35.5469 37.6953 -36.8164 Z"/>
  </g>
  <g id="Ultralight-L" transform="matrix(1 0 0 1 488.739 1556)">
   <path d="M 31.9824 19.7754 L 109.961 19.7754 C 120.361 19.7754 125.879 14.0625 125.879 3.85742 L 125.879 -74.0723 C 125.879 -84.2773 120.361 -89.9902 109.961 -89.9902 L 31.9824 -89.9902 C 21.6309 -89.9902 16.0645 -84.4727 16.0645 -74.0723 L 16.0645 3.85742 C 16.0645 14.2578 21.6309 19.7754 31.9824 19.7754 Z M 51.0254 -34.2773 C 51.0254 -35.0586 51.709 -35.791 52.6855 -35.791 L 57.2266 -35.791 L 57.2266 -60.7422 C 57.2266 -61.6211 57.8613 -62.207 58.6426 -62.207 C 59.4727 -62.207 60.1074 -61.6211 60.1074 -60.7422 L 60.1074 -35.791 L 63.9648 -35.791 L 87.0605 -61.4258 C 87.3535 -61.8164 87.6953 -62.1094 88.2812 -62.1094 C 89.1113 -62.1094 89.6484 -61.5723 89.6484 -60.791 C 89.6484 -60.5469 89.5996 -60.0098 89.2578 -59.668 L 67.6758 -35.791 L 89.4043 -35.791 C 90.3809 -35.791 91.0156 -35.0586 91.0156 -34.2773 C 91.0156 -33.4961 90.3809 -32.7148 89.4043 -32.7148 L 67.5781 -32.7148 L 89.0625 -9.08203 C 89.5508 -8.64258 89.5996 -8.1543 89.5996 -7.76367 C 89.5996 -7.03125 88.9648 -6.49414 88.1836 -6.49414 C 87.8906 -6.49414 87.4512 -6.5918 87.207 -6.83594 L 63.7695 -32.7148 L 60.1074 -32.7148 L 60.1074 -7.91016 C 60.1074 -7.03125 59.4727 -6.49414 58.6426 -6.49414 C 58.0078 -6.49414 57.2266 -7.03125 57.2266 -7.91016 L 57.2266 -32.7148 L 52.6855 -32.7148 C 51.709 -32.7148 51.0254 -33.4961 51.0254 -34.2773 Z"/>
  </g>
  <g id="Thin-L" transform="matrix(1 0 0 1 784.889 1556)">
   <path d="M 32.7148 20.3613 L 110.4 20.3613 C 121.289 20.3613 127.002 14.4531 127.002 3.75977 L 127.002 -73.9746 C 127.002 -84.7168 121.289 -90.5762 110.4 -90.5762 L 32.7148 -90.5762 C 21.8262 -90.5762 16.0645 -84.8633 16.0645 -73.9746 L 16.0645 3.75977 C 16.0645 14.6484 21.8262 20.3613 32.7148 20.3613 Z M 50.7812 -34.3262 C 50.7812 -35.3027 51.5625 -36.1816 52.6855 -36.1816 L 57.1289 -36.1816 L 57.1289 -60.9375 C 57.1289 -62.1582 57.959 -62.8906 59.082 -62.8906 C 60.2051 -62.8906 61.0352 -62.1582 61.0352 -60.9375 L 61.0352 -36.1816 L 64.7461 -36.1816 L 87.5 -61.9141 C 87.9395 -62.5 88.4277 -62.8418 89.1602 -62.8418 C 90.2344 -62.8418 91.0156 -62.0605 91.0156 -61.084 C 91.0156 -60.6934 90.8691 -60.0586 90.4297 -59.6191 L 69.5801 -36.1816 L 90.4785 -36.1816 C 91.6016 -36.1816 92.3828 -35.3027 92.3828 -34.3262 C 92.3828 -33.3496 91.6016 -32.4707 90.4785 -32.4707 L 69.5312 -32.4707 L 90.332 -9.17969 C 90.8203 -8.64258 90.918 -8.00781 90.918 -7.56836 C 90.918 -6.54297 90.0879 -5.81055 89.0625 -5.81055 C 88.5742 -5.81055 88.0371 -6.00586 87.6465 -6.44531 L 64.5996 -32.4707 L 61.0352 -32.4707 L 61.0352 -7.76367 C 61.0352 -6.54297 60.2051 -5.81055 59.082 -5.81055 C 58.1055 -5.81055 57.1289 -6.54297 57.1289 -7.76367 L 57.1289 -32.4707 L 52.6855 -32.4707 C 51.5625 -32.4707 50.7812 -33.3496 50.7812 -34.3262 Z"/>
  </g>
  <g id="Light-L" transform="matrix(1 0 0 1 1080.5 1556)">
   <path d="M 34.082 21.4355 L 111.23 21.4355 C 123.096 21.4355 129.199 15.2344 129.199 3.56445 L 129.199 -73.8281 C 129.199 -85.5469 123.096 -91.6992 111.23 -91.6992 L 34.082 -91.6992 C 22.2168 -91.6992 16.0645 -85.6445 16.0645 -73.8281 L 16.0645 3.56445 C 16.0645 15.3809 22.2168 21.4355 34.082 21.4355 Z M 50.1953 -34.4727 C 50.1953 -35.8398 51.2695 -36.9141 52.6367 -36.9141 L 56.9824 -36.9141 L 56.9824 -61.3281 C 56.9824 -63.1348 58.2031 -64.2578 59.9609 -64.2578 C 61.6699 -64.2578 62.8906 -63.1348 62.8906 -61.3281 L 62.8906 -36.9141 L 66.2598 -36.9141 L 88.3301 -62.8418 C 89.1113 -63.8184 89.8926 -64.2578 90.8203 -64.2578 C 92.4316 -64.2578 93.6035 -63.0859 93.6035 -61.5723 C 93.6035 -60.9863 93.3594 -60.2051 92.7734 -59.5215 L 73.3398 -36.9141 L 92.5293 -36.9141 C 93.9941 -36.9141 94.9707 -35.8398 94.9707 -34.4727 C 94.9707 -33.1543 93.9941 -31.9824 92.5293 -31.9824 L 73.291 -31.9824 L 92.7246 -9.32617 C 93.3594 -8.64258 93.5547 -7.8125 93.5547 -7.17773 C 93.5547 -5.66406 92.334 -4.49219 90.7715 -4.49219 C 89.9414 -4.49219 89.1602 -4.88281 88.4277 -5.76172 L 66.2598 -31.9824 L 62.8906 -31.9824 L 62.8906 -7.4707 C 62.8906 -5.61523 61.6699 -4.49219 59.9609 -4.49219 C 58.3008 -4.49219 56.9824 -5.61523 56.9824 -7.4707 L 56.9824 -31.9824 L 52.6367 -31.9824 C 51.2695 -31.9824 50.1953 -33.1543 50.1953 -34.4727 Z"/>
  </g>
  <g id="Regular-L" transform="matrix(1 0 0 1 1376.36 1556)">
   <path d="M 35.1074 22.2168 L 111.865 22.2168 C 124.512 22.2168 130.859 15.8691 130.859 3.41797 L 130.859 -73.7305 C 130.859 -86.1816 124.512 -92.5293 111.865 -92.5293 L 35.1074 -92.5293 C 22.5098 -92.5293 16.0645 -86.2305 16.0645 -73.7305 L 16.0645 3.41797 C 16.0645 15.918 22.5098 22.2168 35.1074 22.2168 Z M 49.7559 -34.5703 C 49.7559 -36.2305 51.0254 -37.5 52.6367 -37.5 L 56.8848 -37.5 L 56.8848 -61.5723 C 56.8848 -63.916 58.3496 -65.2832 60.5957 -65.2832 C 62.793 -65.2832 64.2578 -63.916 64.2578 -61.5723 L 64.2578 -37.5 L 67.3828 -37.5 L 88.9648 -63.5742 C 89.9902 -64.8438 90.9668 -65.3809 92.041 -65.3809 C 94.043 -65.3809 95.5566 -63.8672 95.5566 -61.9629 C 95.5566 -61.2305 95.2148 -60.3027 94.5801 -59.4727 L 76.1719 -37.5 L 94.0918 -37.5 C 95.8008 -37.5 96.9727 -36.2305 96.9727 -34.5703 C 96.9727 -32.959 95.8008 -31.6406 94.0918 -31.6406 L 76.1719 -31.6406 L 94.5801 -9.42383 C 95.2637 -8.59375 95.5566 -7.66602 95.5566 -6.88477 C 95.5566 -4.98047 93.9941 -3.4668 92.041 -3.4668 C 90.9668 -3.4668 89.9902 -4.00391 89.0625 -5.22461 L 67.4805 -31.6406 L 64.2578 -31.6406 L 64.2578 -7.27539 C 64.2578 -4.93164 62.7441 -3.4668 60.5957 -3.4668 C 58.4473 -3.4668 56.8848 -4.93164 56.8848 -7.27539 L 56.8848 -31.6406 L 52.6367 -31.6406 C 51.0254 -31.6406 49.7559 -32.959 49.7559 -34.5703 Z"/>
  </g>
  <g id="Medium-L" transform="matrix(1 0 0 1 1672.31 1556)">
   <path d="M 35.9863 22.998 L 112.549 22.998 C 125.635 22.998 132.422 16.2109 132.422 3.27148 L 132.422 -73.6328 C 132.422 -86.5234 125.635 -93.3105 112.549 -93.3105 L 35.9863 -93.3105 C 22.9004 -93.3105 16.0645 -86.5723 16.0645 -73.6328 L 16.0645 3.27148 C 16.0645 16.2598 22.9004 22.998 35.9863 22.998 Z M 49.6094 -34.9121 C 49.6094 -36.5723 50.8301 -37.8418 52.4414 -37.8418 L 56.7383 -37.8418 L 56.7383 -60.8887 C 56.7383 -63.7207 58.4961 -65.4785 61.2305 -65.4785 C 63.916 -65.4785 65.7227 -63.7207 65.7227 -60.8887 L 65.7227 -37.8906 L 68.457 -37.8906 L 88.8672 -63.2812 C 89.9902 -64.7949 91.3086 -65.4785 92.627 -65.4785 C 95.0684 -65.4785 96.875 -63.7695 96.875 -61.4746 C 96.875 -60.5957 96.4844 -59.4727 95.752 -58.5449 L 78.6621 -37.8418 L 95.6055 -37.8418 C 97.2656 -37.8418 98.4863 -36.5723 98.4863 -34.9121 C 98.4863 -33.3008 97.2656 -31.9824 95.6055 -31.9824 L 78.6133 -31.9824 L 95.752 -10.8887 C 96.5332 -9.86328 96.9238 -8.64258 96.9238 -7.66602 C 96.9238 -5.32227 95.0684 -3.56445 92.627 -3.56445 C 91.2109 -3.56445 89.8926 -4.29688 88.8184 -5.81055 L 68.5547 -31.7383 L 65.7227 -31.7383 L 65.7227 -8.1543 C 65.7227 -5.32227 63.8672 -3.56445 61.2305 -3.56445 C 58.5938 -3.56445 56.7383 -5.32227 56.7383 -8.1543 L 56.7383 -31.9824 L 52.4414 -31.9824 C 50.8301 -31.9824 49.6094 -33.3008 49.6094 -34.9121 Z"/>
  </g>
  <g id="Semibold-L" transform="matrix(1 0 0 1 1968.41 1556)">
   <path d="M 36.6699 23.584 L 113.037 23.584 C 126.514 23.584 133.594 16.5039 133.594 3.17383 L 133.594 -73.5352 C 133.594 -86.8164 126.514 -93.9453 113.037 -93.9453 L 36.6699 -93.9453 C 23.2422 -93.9453 16.0645 -86.8652 16.0645 -73.5352 L 16.0645 3.17383 C 16.0645 16.5527 23.2422 23.584 36.6699 23.584 Z M 49.4629 -35.1562 C 49.4629 -36.8652 50.7324 -38.0859 52.2949 -38.0859 L 56.5918 -38.0859 L 56.5918 -60.3516 C 56.5918 -63.5742 58.6426 -65.5762 61.7188 -65.5762 C 64.7949 -65.5762 66.8457 -63.5742 66.8457 -60.3516 L 66.8457 -38.1836 L 69.2383 -38.1836 L 88.8184 -63.0371 C 90.0391 -64.7461 91.5527 -65.5762 93.0664 -65.5762 C 95.8496 -65.5762 97.8516 -63.7207 97.8516 -61.084 C 97.8516 -60.1074 97.4121 -58.8379 96.6797 -57.8125 L 80.5664 -38.0859 L 96.7285 -38.0859 C 98.4375 -38.0859 99.6094 -36.8652 99.6094 -35.1562 C 99.6094 -33.5449 98.4375 -32.2266 96.7285 -32.2266 L 80.4688 -32.2266 L 96.6797 -11.9629 C 97.5098 -10.8398 97.998 -9.375 97.998 -8.25195 C 97.998 -5.56641 95.8984 -3.56445 93.0664 -3.56445 C 91.4062 -3.56445 89.7949 -4.54102 88.623 -6.25 L 69.3359 -31.8359 L 66.8457 -31.8359 L 66.8457 -8.88672 C 66.8457 -5.66406 64.7461 -3.56445 61.7188 -3.56445 C 58.6914 -3.56445 56.5918 -5.66406 56.5918 -8.88672 L 56.5918 -32.2266 L 52.2949 -32.2266 C 50.7324 -32.2266 49.4629 -33.5449 49.4629 -35.1562 Z"/>
  </g>
  <g id="Bold-L" transform="matrix(1 0 0 1 2264.34 1556)">
   <path d="M 37.5488 24.3652 L 113.721 24.3652 C 127.686 24.3652 135.205 16.8945 135.205 3.07617 L 135.205 -73.3887 C 135.205 -87.207 127.686 -94.7266 113.721 -94.7266 L 37.5488 -94.7266 C 23.6328 -94.7266 16.0645 -87.2559 16.0645 -73.3887 L 16.0645 3.07617 C 16.0645 16.8945 23.6328 24.3652 37.5488 24.3652 Z M 49.2676 -35.5469 C 49.2676 -37.2559 50.5371 -38.4766 52.1484 -38.4766 L 56.4453 -38.4766 L 56.4453 -59.668 C 56.4453 -63.3789 58.7891 -65.7715 62.3535 -65.7715 C 65.9668 -65.7715 68.3594 -63.3789 68.3594 -59.668 L 68.3594 -38.5742 L 70.3125 -38.5742 L 88.7207 -62.7441 C 90.0879 -64.6973 91.8945 -65.7227 93.6523 -65.7227 C 96.9238 -65.7227 99.1699 -63.623 99.1699 -60.5957 C 99.1699 -59.4727 98.6816 -58.0078 97.8516 -56.8848 L 83.1055 -38.4766 L 98.2422 -38.4766 C 99.9512 -38.4766 101.123 -37.2559 101.123 -35.5469 C 101.123 -33.8867 99.9512 -32.6172 98.2422 -32.6172 L 82.9102 -32.6172 L 97.8516 -13.4277 C 98.8281 -12.1094 99.4141 -10.3516 99.4141 -9.0332 C 99.4141 -5.9082 96.9727 -3.66211 93.6035 -3.66211 C 91.6016 -3.66211 89.6973 -4.83398 88.3789 -6.88477 L 70.4102 -31.9824 L 68.3594 -31.9824 L 68.3594 -9.76562 C 68.3594 -6.05469 65.918 -3.66211 62.3535 -3.66211 C 58.8379 -3.66211 56.4453 -6.05469 56.4453 -9.76562 L 56.4453 -32.6172 L 52.1484 -32.6172 C 50.5371 -32.6172 49.2676 -33.8867 49.2676 -35.5469 Z"/>
  </g>
  <g id="Heavy-L" transform="matrix(1 0 0 1 2559.91 1556)">
   <path d="M 38.8184 25.4883 L 114.697 25.4883 C 129.346 25.4883 137.451 17.4316 137.451 2.88086 L 137.451 -73.2422 C 137.451 -87.793 129.346 -95.8496 114.697 -95.8496 L 38.8184 -95.8496 C 24.2188 -95.8496 16.0645 -87.793 16.0645 -73.2422 L 16.0645 2.88086 C 16.0645 17.4316 24.2188 25.4883 38.8184 25.4883 Z M 49.0234 -36.0352 C 49.0234 -37.793 50.2441 -39.0137 51.9043 -39.0137 L 56.2012 -39.0137 L 56.2012 -58.6426 C 56.2012 -63.0859 58.9844 -66.0156 63.2324 -66.0156 C 67.627 -66.0156 70.5078 -63.0859 70.5078 -58.6426 L 70.5078 -39.1602 L 71.875 -39.1602 L 88.5742 -62.3047 C 90.0879 -64.5996 92.3828 -65.918 94.4824 -65.918 C 98.3887 -65.918 101.074 -63.4277 101.074 -59.8633 C 101.074 -58.4961 100.537 -56.7871 99.6094 -55.4688 L 86.7676 -39.0137 L 100.439 -39.0137 C 102.148 -39.0137 103.32 -37.793 103.32 -36.0352 C 103.32 -34.375 102.148 -33.1055 100.439 -33.1055 L 86.4746 -33.1055 L 99.6094 -15.5273 C 100.732 -13.9648 101.416 -11.8164 101.416 -10.1562 C 101.416 -6.39648 98.584 -3.71094 94.4824 -3.71094 C 91.9434 -3.71094 89.5508 -5.22461 88.0371 -7.71484 L 71.9238 -32.1777 L 70.5078 -32.1777 L 70.5078 -11.1328 C 70.5078 -6.64062 67.5781 -3.71094 63.2324 -3.71094 C 59.0332 -3.71094 56.2012 -6.64062 56.2012 -11.1328 L 56.2012 -33.1055 L 51.9043 -33.1055 C 50.2441 -33.1055 49.0234 -34.375 49.0234 -36.0352 Z"/>
  </g>
  <g id="Black-L" transform="matrix(1 0 0 1 2855.62 1556)">
   <path d="M 39.9902 26.5137 L 115.576 26.5137 C 130.859 26.5137 139.502 17.8711 139.502 2.68555 L 139.502 -73.0957 C 139.502 -88.2812 130.859 -96.875 115.576 -96.875 L 39.9902 -96.875 C 24.7559 -96.875 16.0645 -88.2812 16.0645 -73.0957 L 16.0645 2.68555 C 16.0645 17.8711 24.7559 26.5137 39.9902 26.5137 Z M 48.7793 -36.5234 C 48.7793 -38.2812 50 -39.4531 51.6602 -39.4531 L 56.0059 -39.4531 L 56.0059 -57.7148 C 56.0059 -62.8418 59.2285 -66.2109 64.0625 -66.2109 C 69.0918 -66.2109 72.4121 -62.8418 72.4121 -57.7148 L 72.4121 -39.6973 L 73.2422 -39.6973 L 88.4277 -61.9141 C 90.1367 -64.502 92.8223 -66.0645 95.2148 -66.0645 C 99.7559 -66.0645 102.832 -63.3301 102.832 -59.2285 C 102.832 -57.666 102.148 -55.7129 101.172 -54.248 L 90.0879 -39.4531 L 102.393 -39.4531 C 104.102 -39.4531 105.322 -38.2812 105.322 -36.5234 C 105.322 -34.8145 104.102 -33.5938 102.393 -33.5938 L 89.6973 -33.5938 L 101.172 -17.4316 C 102.393 -15.625 103.223 -13.0859 103.223 -11.1816 C 103.223 -6.78711 100 -3.80859 95.2148 -3.80859 C 92.2363 -3.80859 89.4043 -5.61523 87.7441 -8.49609 L 73.291 -32.373 L 72.4121 -32.373 L 72.4121 -12.3047 C 72.4121 -7.17773 69.0918 -3.80859 64.0625 -3.80859 C 59.2285 -3.80859 56.0059 -7.17773 56.0059 -12.3047 L 56.0059 -33.5938 L 51.6602 -33.5938 C 50 -33.5938 48.7793 -34.8145 48.7793 -36.5234 Z"/>
  </g>
 </g>
</svg>
