<?xml version="1.0" encoding="UTF-8"?>
<!--Generator: Apple Native CoreSVG 123-->
<!DOCTYPE svg
PUBLIC "-//W3C//DTD SVG 1.1//EN"
       "http://www.w3.org/Graphics/SVG/1.1/DTD/svg11.dtd">
<svg version="1.1" xmlns="http://www.w3.org/2000/svg" xmlns:xlink="http://www.w3.org/1999/xlink" width="3300" height="2200">
 <!--glyph: "uni1002D2.medium", point size: 100.000000, font version: "Version 15.0d4e20", template writer version: "2"-->
 <g id="Notes">
  <rect height="2200" id="artboard" style="fill:white;opacity:1" width="3300" x="0" y="0"/>
  <line id="" style="fill:none;stroke:black;opacity:1;stroke-width:0.5;" x1="263" x2="3036" y1="292" y2="292"/>
  <text style="stroke:none;fill:black;font-family:-apple-system,&quot;SF Pro Display&quot;,&quot;SF Pro Text&quot;,Helvetica,sans-serif;font-weight:bold;" transform="matrix(1 0 0 1 263 322)">Weight/Scale Variations</text>
  <text style="stroke:none;fill:black;font-family:-apple-system,&quot;SF Pro Display&quot;,&quot;SF Pro Text&quot;,Helvetica,sans-serif;text-anchor:middle;" transform="matrix(1 0 0 1 559.711 322)">Ultralight</text>
  <text style="stroke:none;fill:black;font-family:-apple-system,&quot;SF Pro Display&quot;,&quot;SF Pro Text&quot;,Helvetica,sans-serif;text-anchor:middle;" transform="matrix(1 0 0 1 856.422 322)">Thin</text>
  <text style="stroke:none;fill:black;font-family:-apple-system,&quot;SF Pro Display&quot;,&quot;SF Pro Text&quot;,Helvetica,sans-serif;text-anchor:middle;" transform="matrix(1 0 0 1 1153.13 322)">Light</text>
  <text style="stroke:none;fill:black;font-family:-apple-system,&quot;SF Pro Display&quot;,&quot;SF Pro Text&quot;,Helvetica,sans-serif;text-anchor:middle;" transform="matrix(1 0 0 1 1449.84 322)">Regular</text>
  <text style="stroke:none;fill:black;font-family:-apple-system,&quot;SF Pro Display&quot;,&quot;SF Pro Text&quot;,Helvetica,sans-serif;text-anchor:middle;" transform="matrix(1 0 0 1 1746.56 322)">Medium</text>
  <text style="stroke:none;fill:black;font-family:-apple-system,&quot;SF Pro Display&quot;,&quot;SF Pro Text&quot;,Helvetica,sans-serif;text-anchor:middle;" transform="matrix(1 0 0 1 2043.27 322)">Semibold</text>
  <text style="stroke:none;fill:black;font-family:-apple-system,&quot;SF Pro Display&quot;,&quot;SF Pro Text&quot;,Helvetica,sans-serif;text-anchor:middle;" transform="matrix(1 0 0 1 2339.98 322)">Bold</text>
  <text style="stroke:none;fill:black;font-family:-apple-system,&quot;SF Pro Display&quot;,&quot;SF Pro Text&quot;,Helvetica,sans-serif;text-anchor:middle;" transform="matrix(1 0 0 1 2636.69 322)">Heavy</text>
  <text style="stroke:none;fill:black;font-family:-apple-system,&quot;SF Pro Display&quot;,&quot;SF Pro Text&quot;,Helvetica,sans-serif;text-anchor:middle;" transform="matrix(1 0 0 1 2933.4 322)">Black</text>
  <line id="" style="fill:none;stroke:black;opacity:1;stroke-width:0.5;" x1="263" x2="3036" y1="1903" y2="1903"/>
  <g id="" transform="matrix(1 0 0 1 263 1933)">
   <path d="M 9.24805 0.830078 C 13.5547 0.830078 17.1387 -2.74414 17.1387 -7.05078 C 17.1387 -11.3574 13.5449 -14.9316 9.23828 -14.9316 C 4.94141 -14.9316 1.36719 -11.3574 1.36719 -7.05078 C 1.36719 -2.74414 4.95117 0.830078 9.24805 0.830078 Z M 9.24805 -0.654297 C 5.70312 -0.654297 2.87109 -3.49609 2.87109 -7.05078 C 2.87109 -10.6055 5.69336 -13.4473 9.23828 -13.4473 C 12.793 -13.4473 15.6348 -10.6055 15.6445 -7.05078 C 15.6543 -3.49609 12.8027 -0.654297 9.24805 -0.654297 Z M 9.22852 -3.42773 C 9.69727 -3.42773 9.9707 -3.74023 9.9707 -4.25781 L 9.9707 -6.31836 L 12.1973 -6.31836 C 12.6953 -6.31836 13.0371 -6.57227 13.0371 -7.04102 C 13.0371 -7.51953 12.7148 -7.7832 12.1973 -7.7832 L 9.9707 -7.7832 L 9.9707 -10.0098 C 9.9707 -10.5273 9.69727 -10.8496 9.22852 -10.8496 C 8.75977 -10.8496 8.50586 -10.5078 8.50586 -10.0098 L 8.50586 -7.7832 L 6.29883 -7.7832 C 5.78125 -7.7832 5.44922 -7.51953 5.44922 -7.04102 C 5.44922 -6.57227 5.80078 -6.31836 6.29883 -6.31836 L 8.50586 -6.31836 L 8.50586 -4.25781 C 8.50586 -3.75977 8.75977 -3.42773 9.22852 -3.42773 Z"/>
  </g>
  <g id="" transform="matrix(1 0 0 1 281.506 1933)">
   <path d="M 11.709 2.91016 C 17.1484 2.91016 21.6699 -1.60156 21.6699 -7.05078 C 21.6699 -12.4902 17.1387 -17.0117 11.6992 -17.0117 C 6.25 -17.0117 1.74805 -12.4902 1.74805 -7.05078 C 1.74805 -1.60156 6.25977 2.91016 11.709 2.91016 Z M 11.709 1.25 C 7.09961 1.25 3.41797 -2.44141 3.41797 -7.05078 C 3.41797 -11.6504 7.08984 -15.3516 11.6992 -15.3516 C 16.2988 -15.3516 20 -11.6504 20.0098 -7.05078 C 20.0195 -2.44141 16.3086 1.25 11.709 1.25 Z M 11.6797 -2.41211 C 12.207 -2.41211 12.5195 -2.77344 12.5195 -3.33984 L 12.5195 -6.23047 L 15.5762 -6.23047 C 16.123 -6.23047 16.5039 -6.51367 16.5039 -7.03125 C 16.5039 -7.55859 16.1426 -7.86133 15.5762 -7.86133 L 12.5195 -7.86133 L 12.5195 -10.9277 C 12.5195 -11.5039 12.207 -11.8555 11.6797 -11.8555 C 11.1621 -11.8555 10.8789 -11.4844 10.8789 -10.9277 L 10.8789 -7.86133 L 7.83203 -7.86133 C 7.25586 -7.86133 6.89453 -7.55859 6.89453 -7.03125 C 6.89453 -6.51367 7.28516 -6.23047 7.83203 -6.23047 L 10.8789 -6.23047 L 10.8789 -3.33984 C 10.8789 -2.79297 11.1621 -2.41211 11.6797 -2.41211 Z"/>
  </g>
  <g id="" transform="matrix(1 0 0 1 304.914 1933)">
   <path d="M 14.9707 5.67383 C 21.9336 5.67383 27.6855 -0.078125 27.6855 -7.04102 C 27.6855 -14.0039 21.9238 -19.7559 14.9609 -19.7559 C 7.99805 -19.7559 2.25586 -14.0039 2.25586 -7.04102 C 2.25586 -0.078125 8.00781 5.67383 14.9707 5.67383 Z M 14.9707 3.85742 C 8.92578 3.85742 4.08203 -1.00586 4.08203 -7.04102 C 4.08203 -13.0762 8.91602 -17.9395 14.9609 -17.9395 C 20.9961 -17.9395 25.8594 -13.0762 25.8691 -7.04102 C 25.8789 -1.00586 21.0059 3.85742 14.9707 3.85742 Z M 14.9414 -1.06445 C 15.5176 -1.06445 15.8594 -1.45508 15.8594 -2.06055 L 15.8594 -6.13281 L 20.0977 -6.13281 C 20.6934 -6.13281 21.1133 -6.46484 21.1133 -7.02148 C 21.1133 -7.59766 20.7227 -7.93945 20.0977 -7.93945 L 15.8594 -7.93945 L 15.8594 -12.1875 C 15.8594 -12.8027 15.5176 -13.1934 14.9414 -13.1934 C 14.3848 -13.1934 14.0625 -12.7832 14.0625 -12.1875 L 14.0625 -7.93945 L 9.82422 -7.93945 C 9.20898 -7.93945 8.80859 -7.59766 8.80859 -7.02148 C 8.80859 -6.46484 9.23828 -6.13281 9.82422 -6.13281 L 14.0625 -6.13281 L 14.0625 -2.06055 C 14.0625 -1.47461 14.3848 -1.06445 14.9414 -1.06445 Z"/>
  </g>
  <text style="stroke:none;fill:black;font-family:-apple-system,&quot;SF Pro Display&quot;,&quot;SF Pro Text&quot;,Helvetica,sans-serif;font-weight:bold;" transform="matrix(1 0 0 1 263 1953)">Design Variations</text>
  <text style="stroke:none;fill:black;font-family:-apple-system,&quot;SF Pro Display&quot;,&quot;SF Pro Text&quot;,Helvetica,sans-serif;" transform="matrix(1 0 0 1 263 1971)">Symbols are supported in up to nine weights and three scales.</text>
  <text style="stroke:none;fill:black;font-family:-apple-system,&quot;SF Pro Display&quot;,&quot;SF Pro Text&quot;,Helvetica,sans-serif;" transform="matrix(1 0 0 1 263 1989)">For optimal layout with text and other symbols, vertically align</text>
  <text style="stroke:none;fill:black;font-family:-apple-system,&quot;SF Pro Display&quot;,&quot;SF Pro Text&quot;,Helvetica,sans-serif;" transform="matrix(1 0 0 1 263 2007)">symbols with the adjacent text.</text>
  <rect height="14" id="" style="fill:#00AEEF;stroke:none;opacity:0.4;" width="3" x="776" y="1919"/>
  <g id="" transform="matrix(1 0 0 1 779 1933)">
   <path d="M 10.5273 0 L 12.373 0 L 7.17773 -14.0918 L 5.43945 -14.0918 L 0.244141 0 L 2.08984 0 L 3.50586 -4.0332 L 9.11133 -4.0332 Z M 6.2793 -11.9531 L 6.33789 -11.9531 L 8.59375 -5.52734 L 4.02344 -5.52734 Z"/>
  </g>
  <rect height="14" id="" style="fill:#00AEEF;stroke:none;opacity:0.4;" width="3" x="791.617" y="1919"/>
  <text style="stroke:none;fill:black;font-family:-apple-system,&quot;SF Pro Display&quot;,&quot;SF Pro Text&quot;,Helvetica,sans-serif;font-weight:bold;" transform="matrix(1 0 0 1 776 1953)">Side Bearings</text>
  <text style="stroke:none;fill:black;font-family:-apple-system,&quot;SF Pro Display&quot;,&quot;SF Pro Text&quot;,Helvetica,sans-serif;" transform="matrix(1 0 0 1 776 1971)">Horizontal padding on the left and right side of each symbol</text>
  <text style="stroke:none;fill:black;font-family:-apple-system,&quot;SF Pro Display&quot;,&quot;SF Pro Text&quot;,Helvetica,sans-serif;" transform="matrix(1 0 0 1 776 1989)">can be adjusted by modifying the width of the blue rectangles.</text>
  <text style="stroke:none;fill:black;font-family:-apple-system,&quot;SF Pro Display&quot;,&quot;SF Pro Text&quot;,Helvetica,sans-serif;" transform="matrix(1 0 0 1 776 2007)">Modifications are automatically applied proportionally to all</text>
  <text style="stroke:none;fill:black;font-family:-apple-system,&quot;SF Pro Display&quot;,&quot;SF Pro Text&quot;,Helvetica,sans-serif;" transform="matrix(1 0 0 1 776 2025)">scales and weights.</text>
  <g id="" transform="matrix(1 0 0 1 1289 1933)">
   <path d="M 2.96875 2.35352 L 3.80859 3.19336 C 4.84375 4.22852 6.12305 4.15039 7.19727 2.97852 L 16.1621 -6.82617 C 16.5527 -6.74805 16.9629 -6.8457 17.4902 -7.02148 C 18.1738 -7.25586 18.2715 -7.25586 18.3887 -7.13867 C 18.5352 -7.01172 18.4863 -6.89453 18.2422 -6.25 C 17.8809 -5.33203 17.8125 -4.79492 18.5547 -4.02344 L 19.4238 -3.13477 C 20.2734 -2.24609 21.3281 -2.26562 22.2168 -3.14453 L 25.0586 -5.97656 C 25.9473 -6.86523 25.957 -7.92969 25.0781 -8.7793 L 24.1797 -9.64844 C 23.4082 -10.4004 22.8711 -10.3516 21.9629 -9.98047 C 21.3184 -9.72656 21.2012 -9.6875 21.0645 -9.81445 C 20.9375 -9.93164 20.9473 -10.0391 21.1816 -10.7129 C 21.5332 -11.6895 21.5723 -12.2852 20.752 -13.0957 L 19.3359 -14.5117 C 15.1953 -18.6133 11.2305 -18.7402 7.65625 -15.4395 C 7.08008 -14.9023 6.99219 -14.1504 7.53906 -13.6133 L 7.79297 -13.3594 C 8.22266 -12.9297 8.86719 -12.8418 9.41406 -13.1152 C 11.0645 -13.9453 12.2559 -14.0234 13.457 -12.9785 L 13.0273 -11.416 C 12.8516 -10.8008 12.793 -10.3418 12.9199 -9.93164 L 3.18359 -1.04492 C 2.02148 0.0292969 1.93359 1.32812 2.96875 2.35352 Z M 8.96484 -14.4922 C 8.89648 -14.5703 8.86719 -14.6582 8.99414 -14.7559 C 11.709 -17.2852 15.0391 -16.8457 18.3496 -13.5254 L 19.6973 -12.168 C 20.0879 -11.7773 20.0977 -11.582 19.8828 -10.8691 C 19.6582 -10.127 19.502 -9.53125 20.1465 -8.88672 C 20.8105 -8.22266 21.2891 -8.41797 22.207 -8.63281 C 22.9004 -8.79883 23.0664 -8.79883 23.4473 -8.41797 L 24.0918 -7.77344 C 24.4043 -7.48047 24.4141 -7.32422 24.0723 -6.97266 L 21.2207 -4.13086 C 20.8887 -3.79883 20.7227 -3.79883 20.4297 -4.10156 L 19.7852 -4.75586 C 19.4141 -5.13672 19.4141 -5.30273 19.5801 -6.01562 C 19.7852 -6.88477 19.9805 -7.38281 19.3262 -8.04688 C 18.6719 -8.7207 18.0762 -8.57422 17.3438 -8.33008 C 16.5625 -8.06641 16.3281 -8.06641 15.8984 -8.49609 L 14.6094 -9.78516 C 14.1699 -10.2246 14.1309 -10.4395 14.2676 -10.9082 L 15.0293 -13.3984 C 13.3887 -15.2832 11.4941 -15.5566 9.20898 -14.4434 C 9.11133 -14.3945 9.04297 -14.4141 8.96484 -14.4922 Z M 3.96484 1.36719 C 3.52539 0.927734 3.54492 0.537109 4.14062 -0.00976562 L 13.7402 -8.81836 L 15 -7.55859 L 6.17188 2.02148 C 5.625 2.60742 5.24414 2.64648 4.79492 2.19727 Z"/>
  </g>
  <text style="stroke:none;fill:black;font-family:-apple-system,&quot;SF Pro Display&quot;,&quot;SF Pro Text&quot;,Helvetica,sans-serif;font-weight:bold;" transform="matrix(1 0 0 1 1289 1953)">Exporting</text>
  <text style="stroke:none;fill:black;font-family:-apple-system,&quot;SF Pro Display&quot;,&quot;SF Pro Text&quot;,Helvetica,sans-serif;" transform="matrix(1 0 0 1 1289 1971)">Symbols should be outlined when exporting to ensure the</text>
  <text style="stroke:none;fill:black;font-family:-apple-system,&quot;SF Pro Display&quot;,&quot;SF Pro Text&quot;,Helvetica,sans-serif;" transform="matrix(1 0 0 1 1289 1989)">design is preserved when submitting to Xcode.</text>
  <text id="template-version" style="stroke:none;fill:black;font-family:-apple-system,&quot;SF Pro Display&quot;,&quot;SF Pro Text&quot;,Helvetica,sans-serif;text-anchor:end;" transform="matrix(1 0 0 1 3036 1933)">Template v.0.1</text>
  <text style="stroke:none;fill:black;font-family:-apple-system,&quot;SF Pro Display&quot;,&quot;SF Pro Text&quot;,Helvetica,sans-serif;text-anchor:end;" transform="matrix(1 0 0 1 3036 1951)">Generated from location.fill</text>
  <text style="stroke:none;fill:black;font-family:-apple-system,&quot;SF Pro Display&quot;,&quot;SF Pro Text&quot;,Helvetica,sans-serif;text-anchor:end;" transform="matrix(1 0 0 1 3036 1969)">Typeset at 100 points</text>
  <text style="stroke:none;fill:black;font-family:-apple-system,&quot;SF Pro Display&quot;,&quot;SF Pro Text&quot;,Helvetica,sans-serif;" transform="matrix(1 0 0 1 263 726)">Small</text>
  <text style="stroke:none;fill:black;font-family:-apple-system,&quot;SF Pro Display&quot;,&quot;SF Pro Text&quot;,Helvetica,sans-serif;" transform="matrix(1 0 0 1 263 1156)">Medium</text>
  <text style="stroke:none;fill:black;font-family:-apple-system,&quot;SF Pro Display&quot;,&quot;SF Pro Text&quot;,Helvetica,sans-serif;" transform="matrix(1 0 0 1 263 1586)">Large</text>
 </g>
 <g id="Guides">
  <g id="H-reference" style="fill:#27AAE1;stroke:none;" transform="matrix(1 0 0 1 339 696)">
   <path d="M 54.9316 0 L 57.666 0 L 30.5664 -70.459 L 28.0762 -70.459 L 0.976562 0 L 3.66211 0 L 12.9395 -24.4629 L 45.7031 -24.4629 Z M 29.1992 -67.0898 L 29.4434 -67.0898 L 44.8242 -26.709 L 13.8184 -26.709 Z"/>
  </g>
  <line id="Baseline-S" style="fill:none;stroke:#27AAE1;opacity:1;stroke-width:0.577;" x1="263" x2="3036" y1="696" y2="696"/>
  <line id="Capline-S" style="fill:none;stroke:#27AAE1;opacity:1;stroke-width:0.577;" x1="263" x2="3036" y1="625.541" y2="625.541"/>
  <g id="H-reference" style="fill:#27AAE1;stroke:none;" transform="matrix(1 0 0 1 339 1126)">
   <path d="M 54.9316 0 L 57.666 0 L 30.5664 -70.459 L 28.0762 -70.459 L 0.976562 0 L 3.66211 0 L 12.9395 -24.4629 L 45.7031 -24.4629 Z M 29.1992 -67.0898 L 29.4434 -67.0898 L 44.8242 -26.709 L 13.8184 -26.709 Z"/>
  </g>
  <line id="Baseline-M" style="fill:none;stroke:#27AAE1;opacity:1;stroke-width:0.577;" x1="263" x2="3036" y1="1126" y2="1126"/>
  <line id="Capline-M" style="fill:none;stroke:#27AAE1;opacity:1;stroke-width:0.577;" x1="263" x2="3036" y1="1055.54" y2="1055.54"/>
  <g id="H-reference" style="fill:#27AAE1;stroke:none;" transform="matrix(1 0 0 1 339 1556)">
   <path d="M 54.9316 0 L 57.666 0 L 30.5664 -70.459 L 28.0762 -70.459 L 0.976562 0 L 3.66211 0 L 12.9395 -24.4629 L 45.7031 -24.4629 Z M 29.1992 -67.0898 L 29.4434 -67.0898 L 44.8242 -26.709 L 13.8184 -26.709 Z"/>
  </g>
  <line id="Baseline-L" style="fill:none;stroke:#27AAE1;opacity:1;stroke-width:0.577;" x1="263" x2="3036" y1="1556" y2="1556"/>
  <line id="Capline-L" style="fill:none;stroke:#27AAE1;opacity:1;stroke-width:0.577;" x1="263" x2="3036" y1="1485.54" y2="1485.54"/>
  <rect height="119.336" id="left-margin" style="fill:#00AEEF;stroke:none;opacity:0.4;" width="9.95163" x="1390.69" y="1030.79"/>
  <rect height="119.336" id="right-margin" style="fill:#00AEEF;stroke:none;opacity:0.4;" width="9.99135" x="1499.01" y="1030.79"/>
 </g>
 <g id="Symbols">
  <g id="Ultralight-S" transform="matrix(1 0 0 1 515.912 696)">
   <path d="M 8.30078 -36.084 C 8.78906 -35.5957 9.47266 -35.3516 10.3516 -35.3516 L 42.6758 -35.0098 C 42.9688 -35.0098 43.1152 -34.9609 43.2129 -34.8633 C 43.3594 -34.7168 43.4082 -34.5703 43.4082 -34.2773 L 43.75 -2.00195 C 43.75 -1.07422 43.9941 -0.390625 44.4824 0.0488281 C 45.2637 0.830078 46.582 0.732422 47.4609 -0.0976562 C 47.7539 -0.439453 47.998 -0.878906 48.2422 -1.36719 L 79.2969 -67.3828 C 79.9316 -68.7988 79.9805 -69.9219 79.1504 -70.752 C 78.2715 -71.582 77.1973 -71.5332 75.7812 -70.8984 L 9.76562 -39.8438 C 9.22852 -39.5996 8.83789 -39.3555 8.49609 -39.0625 C 7.66602 -38.1836 7.51953 -36.8652 8.30078 -36.084 Z"/>
  </g>
  <g id="Thin-S" transform="matrix(1 0 0 1 811.915 696)">
   <path d="M 8.54492 -35.6445 C 9.22852 -34.9609 10.2539 -34.6191 11.4746 -34.6191 L 42.5293 -34.3262 C 42.9199 -34.3262 43.1152 -34.2773 43.2617 -34.1309 C 43.4082 -33.9844 43.457 -33.7891 43.457 -33.3984 L 43.75 -2.34375 C 43.75 -1.12305 44.0918 -0.0976562 44.7754 0.585938 C 45.8984 1.70898 47.7051 1.51367 48.8281 0.390625 C 49.3652 -0.146484 49.707 -0.878906 50.1465 -1.80664 L 80.5664 -66.8457 C 81.4453 -68.75 81.3965 -70.166 80.3223 -71.1914 C 79.2969 -72.2656 77.8809 -72.3145 75.9766 -71.4355 L 10.9375 -41.0156 C 10.0098 -40.5762 9.27734 -40.2344 8.74023 -39.6973 C 7.61719 -38.5742 7.42188 -36.7676 8.54492 -35.6445 Z"/>
  </g>
  <g id="Light-S" transform="matrix(1 0 0 1 1107.26 696)">
   <path d="M 8.93555 -34.8633 C 10.0586 -33.7402 11.8164 -33.1543 13.6719 -33.1543 L 42.2852 -33.0078 C 42.8223 -33.0078 43.1641 -32.959 43.3594 -32.7637 C 43.5547 -32.5684 43.6035 -32.2754 43.6035 -31.6895 L 43.75 -3.07617 C 43.75 -1.2207 44.2871 0.537109 45.459 1.66016 C 47.1191 3.32031 49.8535 3.02734 51.5137 1.41602 C 52.4414 0.488281 53.0762 -0.927734 53.9062 -2.73438 L 83.0566 -65.7227 C 84.375 -68.6523 84.1309 -70.7031 82.7148 -72.1191 C 81.2988 -73.5352 79.248 -73.7793 76.3184 -72.4609 L 13.2812 -43.3105 C 11.5234 -42.5293 10.1074 -41.8457 9.17969 -40.918 C 7.51953 -39.3066 7.27539 -36.5234 8.93555 -34.8633 Z"/>
  </g>
  <g id="Regular-S" transform="matrix(1 0 0 1 1402.92 696)">
   <path d="M 9.22852 -34.2285 C 10.6934 -32.7637 12.9883 -32.0312 15.332 -32.0312 L 42.0898 -32.0312 C 42.7734 -32.0312 43.1641 -31.9336 43.4082 -31.7383 C 43.6523 -31.4941 43.7012 -31.1035 43.7012 -30.4199 L 43.7012 -3.66211 C 43.7012 -1.31836 44.4336 1.02539 45.8984 2.49023 C 47.998 4.58984 51.5137 4.19922 53.5156 2.19727 C 54.7852 0.927734 55.6152 -0.976562 56.7383 -3.36914 L 84.9121 -64.8926 C 86.5723 -68.5547 86.2305 -71.0938 84.4727 -72.8027 C 82.7637 -74.5117 80.2246 -74.9023 76.5625 -73.2422 L 15.0879 -45.0684 C 12.6465 -43.9453 10.7422 -43.1152 9.47266 -41.8457 C 7.4707 -39.8438 7.12891 -36.3281 9.22852 -34.2285 Z"/>
  </g>
  <g id="Medium-S" transform="matrix(1 0 0 1 1698.63 696)">
   <path d="M 9.47266 -33.7402 C 11.084 -32.1777 13.6719 -31.3477 16.3574 -31.3965 L 42.7246 -31.4453 C 43.3594 -31.4941 43.7012 -31.3965 43.9453 -31.1523 C 44.1895 -30.957 44.2383 -30.5664 44.2383 -29.9316 L 44.1406 -3.61328 C 44.1406 -0.878906 44.9219 1.70898 46.5332 3.27148 C 48.9258 5.66406 52.7344 5.41992 55.127 3.07617 C 56.4941 1.70898 57.4219 -0.341797 58.6426 -2.92969 L 86.7188 -64.0625 C 88.5742 -68.2129 88.4766 -71.3379 86.2793 -73.5352 C 84.082 -75.6836 81.0059 -75.8301 76.8555 -73.9258 L 15.7227 -45.8496 C 13.0859 -44.6777 11.084 -43.7012 9.7168 -42.334 C 7.32422 -39.9414 7.08008 -36.1328 9.47266 -33.7402 Z"/>
  </g>
  <g id="Semibold-S" transform="matrix(1 0 0 1 1994.56 696)">
   <path d="M 9.66797 -33.3984 C 11.377 -31.6895 14.1602 -30.8594 17.1387 -30.8594 L 43.2129 -31.0547 C 43.75 -31.0547 44.1406 -31.0059 44.3359 -30.7617 C 44.5801 -30.5176 44.6777 -30.1758 44.6289 -29.5898 L 44.4824 -3.56445 C 44.4336 -0.585938 45.3125 2.19727 46.9727 3.90625 C 49.6094 6.54297 53.6621 6.34766 56.3477 3.71094 C 57.7637 2.24609 58.7891 0.146484 60.0586 -2.58789 L 88.0859 -63.4277 C 90.1367 -67.9199 90.1855 -71.4844 87.6465 -74.0234 C 85.1074 -76.5625 81.543 -76.5137 77.0508 -74.4629 L 16.2109 -46.4844 C 13.4277 -45.2148 11.3281 -44.1895 9.91211 -42.7246 C 7.22656 -40.0391 7.08008 -35.9863 9.66797 -33.3984 Z"/>
  </g>
  <g id="Bold-S" transform="matrix(1 0 0 1 2290.25 696)">
   <path d="M 9.96094 -32.9102 C 11.8164 -31.0547 14.8438 -30.1758 18.2129 -30.2246 L 43.7988 -30.4688 C 44.3359 -30.5176 44.6777 -30.4199 44.9219 -30.1758 C 45.166 -29.9805 45.2148 -29.6387 45.166 -29.1016 L 44.9219 -3.51562 C 44.873 -0.146484 45.752 2.88086 47.6074 4.73633 C 50.5371 7.66602 54.8828 7.61719 57.9102 4.58984 C 59.5215 3.02734 60.6445 0.830078 61.9629 -2.14844 L 89.8438 -62.5977 C 92.1387 -67.5781 92.4805 -71.7285 89.4531 -74.7559 C 86.4258 -77.7832 82.3242 -77.4414 77.2949 -75.1465 L 16.8945 -47.2656 C 13.916 -45.8984 11.7188 -44.7754 10.1074 -43.2129 C 7.08008 -40.1855 7.08008 -35.791 9.96094 -32.9102 Z"/>
  </g>
  <g id="Heavy-S" transform="matrix(1 0 0 1 2585.47 696)">
   <path d="M 10.3516 -32.1777 C 12.4023 -30.1758 15.8691 -29.1504 19.7266 -29.248 L 44.7266 -29.6875 C 45.166 -29.6875 45.459 -29.6387 45.7031 -29.3945 C 45.9473 -29.1504 45.9961 -28.8574 45.9961 -28.418 L 45.5566 -3.41797 C 45.459 0.439453 46.4844 3.90625 48.4863 5.95703 C 51.8555 9.27734 56.6895 9.42383 60.2539 5.85938 C 62.0117 4.10156 63.2324 1.75781 64.7461 -1.51367 L 92.4805 -61.377 C 95.0684 -67.0898 95.8008 -72.0703 92.0898 -75.7812 C 88.3789 -79.4922 83.3984 -78.8086 77.6855 -76.1719 L 17.8223 -48.4375 C 14.5508 -46.9238 12.207 -45.7031 10.4492 -43.9453 C 6.88477 -40.3809 7.03125 -35.5469 10.3516 -32.1777 Z"/>
  </g>
  <g id="Black-S" transform="matrix(1 0 0 1 2880.84 696)">
   <path d="M 10.6934 -31.5918 C 12.9395 -29.3457 16.748 -28.2715 21.0938 -28.3691 L 45.5566 -28.9551 C 45.9473 -29.0039 46.1426 -28.9062 46.3867 -28.6621 C 46.6309 -28.418 46.7285 -28.1738 46.6797 -27.832 L 46.0938 -3.36914 C 45.9961 1.02539 47.0703 4.78516 49.3164 7.03125 C 53.0273 10.7422 58.3008 11.0352 62.3535 6.98242 C 64.209 5.07812 65.625 2.58789 67.2363 -0.927734 L 94.7754 -60.3027 C 97.7051 -66.6016 98.7305 -72.3633 94.4336 -76.709 C 90.0879 -81.0059 84.375 -80.0293 78.0273 -77.0508 L 18.7012 -49.5117 C 15.1367 -47.8516 12.6465 -46.4844 10.791 -44.5801 C 6.73828 -40.5273 6.98242 -35.3027 10.6934 -31.5918 Z"/>
  </g>
  <g id="Ultralight-M" transform="matrix(1 0 0 1 504.096 1126)">
   <path d="M 10.5469 -36.4746 C 11.0352 -35.9863 11.7676 -35.6934 12.793 -35.6934 L 54.541 -35.2051 C 54.8828 -35.2051 55.0293 -35.1562 55.1758 -35.0098 C 55.2734 -34.8633 55.3711 -34.7168 55.3711 -34.375 L 55.8105 7.37305 C 55.8105 8.39844 56.1035 9.08203 56.6406 9.61914 C 57.5195 10.498 59.0332 10.4004 60.0098 9.375 C 60.3516 9.0332 60.5957 8.64258 60.8398 8.1543 L 100.684 -76.5137 C 101.416 -78.0762 101.514 -79.3945 100.537 -80.3711 C 99.5605 -81.3965 98.2422 -81.2988 96.6797 -80.5664 L 12.0117 -40.6738 C 11.5234 -40.4297 11.084 -40.1855 10.791 -39.8438 C 9.76562 -38.8672 9.66797 -37.4023 10.5469 -36.4746 Z"/>
  </g>
  <g id="Thin-M" transform="matrix(1 0 0 1 800.001 1126)">
   <path d="M 10.791 -35.9863 C 11.5234 -35.2539 12.6953 -34.8145 14.0625 -34.8145 L 54.3945 -34.4727 C 54.834 -34.4727 55.0293 -34.375 55.2246 -34.2285 C 55.3711 -34.0332 55.4688 -33.8379 55.4688 -33.3984 L 55.8105 6.93359 C 55.8105 8.30078 56.25 9.47266 56.9824 10.2051 C 58.252 11.4746 60.3027 11.2793 61.5723 9.96094 C 62.1582 9.42383 62.5488 8.59375 63.0371 7.66602 L 102.148 -75.8789 C 103.125 -78.0273 103.125 -79.6875 101.904 -80.9082 C 100.684 -82.1289 99.0234 -82.1289 96.875 -81.1523 L 13.3301 -42.041 C 12.4023 -41.5527 11.5723 -41.1621 11.0352 -40.5762 C 9.7168 -39.3066 9.52148 -37.2559 10.791 -35.9863 Z"/>
  </g>
  <g id="Light-M" transform="matrix(1 0 0 1 1095.15 1126)">
   <path d="M 11.2305 -35.1074 C 12.5 -33.8379 14.4531 -33.2031 16.5527 -33.2031 L 54.1016 -32.959 C 54.6875 -32.959 55.0781 -32.8613 55.2734 -32.666 C 55.5176 -32.4219 55.6152 -32.0801 55.6152 -31.4453 L 55.8105 6.10352 C 55.8105 8.20312 56.4453 10.1562 57.7148 11.4258 C 59.6191 13.2812 62.7441 12.9883 64.5996 11.1328 C 65.625 10.1074 66.3574 8.54492 67.2363 6.64062 L 104.98 -74.6094 C 106.445 -77.9297 106.25 -80.2734 104.59 -81.9336 C 102.93 -83.5938 100.537 -83.8379 97.2656 -82.3242 L 16.0156 -44.5801 C 14.0625 -43.7012 12.5488 -43.0176 11.5234 -41.9434 C 9.66797 -40.0879 9.32617 -36.9629 11.2305 -35.1074 Z"/>
  </g>
  <g id="Regular-M" transform="matrix(1 0 0 1 1390.69 1126)">
   <path d="M 11.5723 -34.375 C 13.1836 -32.7637 15.7715 -31.9336 18.4082 -31.9336 L 53.8574 -31.8359 C 54.6387 -31.8359 55.0781 -31.7383 55.3711 -31.4941 C 55.6152 -31.2012 55.7129 -30.7617 55.7129 -29.9805 L 55.8105 5.46875 C 55.8105 8.10547 56.6406 10.6934 58.252 12.3047 C 60.6445 14.6973 64.5996 14.3066 66.8945 12.0117 C 68.2617 10.5957 69.2383 8.49609 70.4102 5.9082 L 107.08 -73.6816 C 108.984 -77.832 108.594 -80.7617 106.592 -82.7148 C 104.639 -84.7168 101.709 -85.1074 97.5586 -83.2031 L 18.0176 -46.5332 C 15.3809 -45.3613 13.2812 -44.3848 11.8652 -43.0176 C 9.57031 -40.7227 9.17969 -36.7676 11.5723 -34.375 Z"/>
  </g>
  <g id="Medium-M" transform="matrix(1 0 0 1 1686.23 1126)">
   <path d="M 11.8652 -33.8379 C 13.6719 -31.9824 16.6016 -31.1035 19.6777 -31.1035 L 54.4922 -31.1523 C 55.2246 -31.1523 55.6641 -31.0547 55.9082 -30.7617 C 56.2012 -30.5176 56.2988 -30.0781 56.2988 -29.3457 L 56.25 5.46875 C 56.25 8.54492 57.1289 11.4746 58.9844 13.2812 C 61.6699 16.0156 66.0645 15.7227 68.7988 12.9883 C 70.3125 11.4258 71.4355 9.17969 72.7539 6.25 L 109.18 -72.7051 C 111.328 -77.4414 111.182 -81.0059 108.691 -83.5449 C 106.152 -86.0352 102.637 -86.1816 97.8516 -84.0332 L 18.8965 -47.6074 C 15.9668 -46.2891 13.7207 -45.2148 12.1582 -43.6523 C 9.42383 -40.918 9.13086 -36.5723 11.8652 -33.8379 Z"/>
  </g>
  <g id="Semibold-M" transform="matrix(1 0 0 1 1982.04 1126)">
   <path d="M 12.1094 -33.3984 C 14.0625 -31.3965 17.2363 -30.4688 20.6543 -30.4688 L 54.9316 -30.6152 C 55.6641 -30.6152 56.0547 -30.5176 56.3477 -30.2246 C 56.6406 -29.9805 56.7383 -29.541 56.6895 -28.8574 L 56.5918 5.41992 C 56.543 8.83789 57.5195 12.0605 59.4727 14.0137 C 62.5 16.9922 67.1875 16.7969 70.2637 13.7207 C 71.9238 12.0605 73.0957 9.66797 74.5117 6.54297 L 110.742 -71.9727 C 113.135 -77.1973 113.135 -81.25 110.254 -84.1309 C 107.373 -87.0605 103.32 -87.0117 98.0957 -84.6191 L 19.5801 -48.3887 C 16.4551 -46.9727 14.0625 -45.8008 12.3535 -44.1406 C 9.32617 -41.0645 9.13086 -36.377 12.1094 -33.3984 Z"/>
  </g>
  <g id="Bold-M" transform="matrix(1 0 0 1 2277.55 1126)">
   <path d="M 12.4512 -32.8125 C 14.5996 -30.6641 18.1152 -29.5898 21.9727 -29.6387 L 55.5664 -29.8828 C 56.25 -29.9316 56.6406 -29.834 56.9336 -29.541 C 57.2266 -29.248 57.2754 -28.8574 57.2754 -28.1738 L 57.0312 5.41992 C 56.9824 9.27734 58.0566 12.793 60.2051 14.9414 C 63.5742 18.3105 68.7012 18.2129 72.168 14.7461 C 73.9746 12.8906 75.293 10.3516 76.8555 6.88477 L 112.842 -70.9961 C 115.479 -76.8066 115.771 -81.543 112.354 -84.9609 C 108.936 -88.3789 104.199 -88.1348 98.3887 -85.4492 L 20.5078 -49.4629 C 17.041 -47.9004 14.502 -46.582 12.6465 -44.7754 C 9.17969 -41.3086 9.08203 -36.1816 12.4512 -32.8125 Z"/>
  </g>
  <g id="Heavy-M" transform="matrix(1 0 0 1 2572.53 1126)">
   <path d="M 12.8906 -31.9336 C 15.332 -29.541 19.3359 -28.3691 23.8281 -28.418 L 56.4453 -28.8574 C 57.0801 -28.9062 57.4219 -28.8086 57.7637 -28.5156 C 58.0566 -28.2227 58.1055 -27.832 58.1055 -27.1973 L 57.666 5.37109 C 57.6172 9.91211 58.7891 13.916 61.1816 16.3574 C 65.0879 20.2148 70.8496 20.2637 74.9512 16.1621 C 77.002 14.1113 78.4668 11.2793 80.2734 7.42188 L 115.869 -69.6289 C 118.945 -76.2695 119.58 -81.9336 115.381 -86.1328 C 111.182 -90.332 105.518 -89.6973 98.8281 -86.6211 L 21.8262 -51.0254 C 17.9688 -49.2188 15.1367 -47.7539 13.0859 -45.7031 C 8.93555 -41.6016 8.98438 -35.8398 12.8906 -31.9336 Z"/>
  </g>
  <g id="Black-M" transform="matrix(1 0 0 1 2867.7 1126)">
   <path d="M 13.3301 -31.2012 C 15.9668 -28.5645 20.459 -27.2461 25.5371 -27.3438 L 57.2754 -27.9297 C 57.8125 -27.9785 58.1543 -27.8809 58.4961 -27.5879 C 58.7891 -27.2949 58.8867 -26.9043 58.8379 -26.3672 L 58.252 5.37109 C 58.1543 10.4492 59.4238 14.9414 62.1094 17.5781 C 66.4551 21.9238 72.7539 22.1191 77.4414 17.4805 C 79.6875 15.1855 81.3477 12.1582 83.3008 7.91016 L 118.555 -68.3594 C 121.973 -75.7812 122.949 -82.3242 118.066 -87.207 C 113.232 -92.041 106.689 -91.1621 99.2676 -87.6953 L 22.998 -52.3926 C 18.75 -50.4395 15.7227 -48.7793 13.4277 -46.5332 C 8.74023 -41.8457 8.93555 -35.5469 13.3301 -31.2012 Z"/>
  </g>
  <g id="Ultralight-L" transform="matrix(1 0 0 1 488.276 1556)">
   <path d="M 13.5254 -37.0605 C 14.0625 -36.5234 14.7949 -36.1816 15.9668 -36.1816 L 70.4102 -35.5469 C 70.8008 -35.5469 70.9961 -35.4492 71.1426 -35.3027 C 71.2891 -35.1562 71.4355 -34.9609 71.4355 -34.5215 L 72.0215 19.9219 C 72.0215 21.0938 72.3633 21.8262 72.9004 22.3633 C 73.9258 23.3887 75.6348 23.2422 76.7578 22.0703 C 77.0996 21.7773 77.3438 21.3867 77.5879 20.9961 L 129.297 -88.7695 C 130.127 -90.5762 130.322 -92.0898 129.15 -93.2617 C 127.93 -94.4336 126.416 -94.2871 124.658 -93.457 L 14.8926 -41.6992 C 14.4531 -41.5039 14.1113 -41.2109 13.7695 -40.918 C 12.6465 -39.7461 12.5 -38.0859 13.5254 -37.0605 Z"/>
  </g>
  <g id="Thin-L" transform="matrix(1 0 0 1 784.108 1556)">
   <path d="M 13.7695 -36.5234 C 14.5996 -35.6934 15.8203 -35.2051 17.3828 -35.2051 L 70.2637 -34.7168 C 70.752 -34.7168 70.9961 -34.5703 71.1914 -34.4238 C 71.3867 -34.2285 71.5332 -33.9355 71.5332 -33.4473 L 72.0215 19.4336 C 72.0215 20.9961 72.5098 22.2168 73.3398 23.0469 C 74.707 24.4141 77.0508 24.2188 78.5156 22.7539 C 79.1016 22.168 79.541 21.3867 79.9805 20.4102 L 130.908 -88.0371 C 132.031 -90.4785 132.08 -92.4316 130.664 -93.8477 C 129.199 -95.2637 127.295 -95.2148 124.854 -94.1406 L 16.4062 -43.1641 C 15.4297 -42.7246 14.6484 -42.2852 14.0625 -41.6992 C 12.5977 -40.2344 12.4023 -37.8906 13.7695 -36.5234 Z"/>
  </g>
  <g id="Light-L" transform="matrix(1 0 0 1 1079.09 1556)">
   <path d="M 14.2578 -35.498 C 15.625 -34.1309 17.7734 -33.3984 20.1172 -33.3984 L 69.9219 -33.0566 C 70.6543 -33.0566 71.0449 -32.9102 71.2891 -32.666 C 71.582 -32.4219 71.6797 -31.9824 71.6797 -31.2988 L 72.0215 18.5059 C 72.0215 20.8496 72.7539 22.998 74.1211 24.3652 C 76.2695 26.5137 79.7852 26.1719 81.8848 24.0234 C 83.0078 22.9004 83.7891 21.2891 84.7168 19.2871 L 134.082 -86.6699 C 135.742 -90.3809 135.547 -93.0664 133.643 -95.0195 C 131.738 -96.9238 129.004 -97.1191 125.293 -95.4102 L 19.3359 -46.0449 C 17.334 -45.1172 15.7227 -44.3359 14.5996 -43.2617 C 12.5 -41.1133 12.1582 -37.5977 14.2578 -35.498 Z"/>
  </g>
  <g id="Regular-L" transform="matrix(1 0 0 1 1374.48 1556)">
   <path d="M 14.6484 -34.7168 C 16.4551 -32.9102 19.2383 -31.9824 22.2168 -31.9824 L 69.6777 -31.7871 C 70.5566 -31.7871 71.0449 -31.6406 71.3867 -31.3477 C 71.6797 -31.0547 71.8262 -30.5176 71.8262 -29.6387 L 72.0215 17.8223 C 72.0215 20.752 72.9492 23.584 74.7559 25.3906 C 77.3926 28.0762 81.8359 27.5879 84.4238 25 C 85.9375 23.4863 86.9629 21.2402 88.2812 18.457 L 136.426 -85.5957 C 138.574 -90.2832 138.184 -93.6035 135.889 -95.8496 C 133.594 -98.1445 130.322 -98.5352 125.635 -96.4355 L 21.582 -48.2422 C 18.75 -46.9727 16.5039 -45.8984 15.0391 -44.4336 C 12.4023 -41.7969 11.9629 -37.4023 14.6484 -34.7168 Z"/>
  </g>
  <g id="Medium-L" transform="matrix(1 0 0 1 1669.87 1556)">
   <path d="M 14.9902 -34.0332 C 17.041 -31.9824 20.3125 -30.957 23.7793 -31.0059 L 70.2148 -30.9082 C 71.0938 -30.9082 71.582 -30.8105 71.9238 -30.4688 C 72.2168 -30.127 72.3633 -29.6387 72.3145 -28.7598 L 72.4121 17.6758 C 72.4121 21.1426 73.4375 24.4141 75.4883 26.4648 C 78.5645 29.541 83.5449 29.1504 86.6211 26.0742 C 88.3789 24.3652 89.5508 21.8262 91.0156 18.6035 L 138.77 -84.5703 C 141.211 -89.8926 141.016 -93.9453 138.184 -96.7773 C 135.352 -99.6094 131.348 -99.8047 125.977 -97.3145 L 22.8027 -49.6094 C 19.5801 -48.1445 17.0898 -46.9238 15.332 -45.2148 C 12.2559 -42.1387 11.9141 -37.1582 14.9902 -34.0332 Z"/>
  </g>
  <g id="Semibold-L" transform="matrix(1 0 0 1 1965.58 1556)">
   <path d="M 15.2832 -33.5449 C 17.4805 -31.2988 21.0938 -30.1758 24.9512 -30.2246 L 70.6055 -30.2246 C 71.4844 -30.2734 71.9727 -30.127 72.3145 -29.7852 C 72.6562 -29.4434 72.7539 -28.9551 72.7539 -28.0762 L 72.7051 17.5293 C 72.7051 21.4355 73.8281 25 76.0742 27.2461 C 79.4434 30.6641 84.8633 30.3711 88.3301 26.9043 C 90.1855 25 91.5527 22.3145 93.1641 18.75 L 140.527 -83.7402 C 143.262 -89.6484 143.213 -94.1895 139.941 -97.4609 C 136.719 -100.684 132.178 -100.732 126.221 -98.0469 L 23.7793 -50.6348 C 20.2148 -49.0234 17.4805 -47.7051 15.625 -45.8008 C 12.1582 -42.3828 11.8652 -36.9629 15.2832 -33.5449 Z"/>
  </g>
  <g id="Bold-L" transform="matrix(1 0 0 1 2260.95 1556)">
   <path d="M 15.625 -32.8613 C 18.1152 -30.3711 22.168 -29.1504 26.5137 -29.1992 L 71.0938 -29.3457 C 71.9727 -29.3945 72.5098 -29.248 72.8516 -28.9062 C 73.1934 -28.5645 73.291 -28.0273 73.291 -27.1973 L 73.1445 17.3828 C 73.0957 21.7773 74.3164 25.8301 76.8066 28.3203 C 80.6641 32.1289 86.6211 31.9336 90.5273 27.9785 C 92.627 25.8789 94.1406 22.9004 95.9473 18.9453 L 142.871 -82.666 C 145.947 -89.2578 146.094 -94.5801 142.285 -98.3398 C 138.477 -102.148 133.252 -102.002 126.562 -98.9746 L 25 -52.002 C 21.0449 -50.1953 18.0664 -48.7305 15.9668 -46.6309 C 12.0117 -42.6758 11.7676 -36.7188 15.625 -32.8613 Z"/>
  </g>
  <g id="Heavy-L" transform="matrix(1 0 0 1 2555.73 1556)">
   <path d="M 16.1621 -31.8848 C 18.9941 -29.0527 23.6816 -27.6367 28.8086 -27.7344 L 71.875 -28.0762 C 72.7051 -28.125 73.2422 -27.9785 73.6328 -27.6367 C 73.9746 -27.2461 74.1211 -26.709 74.0723 -25.8789 L 73.7305 17.1875 C 73.6328 22.3145 75.0488 27.002 77.8809 29.834 C 82.373 34.3262 89.1113 34.2285 93.75 29.541 C 96.1914 27.1484 97.9004 23.7305 100 19.1895 L 146.289 -81.1035 C 149.805 -88.7695 150.244 -95.0684 145.654 -99.6582 C 141.064 -104.248 134.766 -103.857 127.1 -100.293 L 26.8066 -54.0039 C 22.2656 -51.9043 18.8477 -50.1953 16.4551 -47.7539 C 11.7676 -43.1152 11.6699 -36.377 16.1621 -31.8848 Z"/>
  </g>
  <g id="Black-L" transform="matrix(1 0 0 1 2850.73 1556)">
   <path d="M 16.6016 -31.0059 C 19.7754 -27.832 25.0488 -26.3184 30.8594 -26.416 L 72.5586 -26.9531 C 73.3887 -26.9531 73.9258 -26.8555 74.3164 -26.4648 C 74.707 -26.0742 74.8047 -25.5371 74.7559 -24.707 L 74.2188 16.9922 C 74.1699 22.8027 75.6836 28.0762 78.8574 31.2012 C 83.8867 36.2305 91.4062 36.2305 96.6797 30.957 C 99.3652 28.2715 101.27 24.5117 103.613 19.4336 L 149.316 -79.6875 C 153.32 -88.2812 153.955 -95.5566 148.682 -100.83 C 143.408 -106.152 136.182 -105.518 127.539 -101.514 L 28.418 -55.7617 C 23.3398 -53.4668 19.5801 -51.5137 16.8457 -48.8281 C 11.6211 -43.5547 11.5723 -36.0352 16.6016 -31.0059 Z"/>
  </g>
 </g>
</svg>
