<?xml version="1.0" encoding="UTF-8"?>
<!--Generator: Apple Native CoreSVG 123-->
<!DOCTYPE svg
PUBLIC "-//W3C//DTD SVG 1.1//EN"
       "http://www.w3.org/Graphics/SVG/1.1/DTD/svg11.dtd">
<svg version="1.1" xmlns="http://www.w3.org/2000/svg" xmlns:xlink="http://www.w3.org/1999/xlink" width="3300" height="2200">
 <!--glyph: "uni100022.medium", point size: 100.000000, font version: "Version 15.0d4e20", template writer version: "2"-->
 <g id="Notes">
  <rect height="2200" id="artboard" style="fill:white;opacity:1" width="3300" x="0" y="0"/>
  <line id="" style="fill:none;stroke:black;opacity:1;stroke-width:0.5;" x1="263" x2="3036" y1="292" y2="292"/>
  <text style="stroke:none;fill:black;font-family:-apple-system,&quot;SF Pro Display&quot;,&quot;SF Pro Text&quot;,Helvetica,sans-serif;font-weight:bold;" transform="matrix(1 0 0 1 263 322)">Weight/Scale Variations</text>
  <text style="stroke:none;fill:black;font-family:-apple-system,&quot;SF Pro Display&quot;,&quot;SF Pro Text&quot;,Helvetica,sans-serif;text-anchor:middle;" transform="matrix(1 0 0 1 559.711 322)">Ultralight</text>
  <text style="stroke:none;fill:black;font-family:-apple-system,&quot;SF Pro Display&quot;,&quot;SF Pro Text&quot;,Helvetica,sans-serif;text-anchor:middle;" transform="matrix(1 0 0 1 856.422 322)">Thin</text>
  <text style="stroke:none;fill:black;font-family:-apple-system,&quot;SF Pro Display&quot;,&quot;SF Pro Text&quot;,Helvetica,sans-serif;text-anchor:middle;" transform="matrix(1 0 0 1 1153.13 322)">Light</text>
  <text style="stroke:none;fill:black;font-family:-apple-system,&quot;SF Pro Display&quot;,&quot;SF Pro Text&quot;,Helvetica,sans-serif;text-anchor:middle;" transform="matrix(1 0 0 1 1449.84 322)">Regular</text>
  <text style="stroke:none;fill:black;font-family:-apple-system,&quot;SF Pro Display&quot;,&quot;SF Pro Text&quot;,Helvetica,sans-serif;text-anchor:middle;" transform="matrix(1 0 0 1 1746.56 322)">Medium</text>
  <text style="stroke:none;fill:black;font-family:-apple-system,&quot;SF Pro Display&quot;,&quot;SF Pro Text&quot;,Helvetica,sans-serif;text-anchor:middle;" transform="matrix(1 0 0 1 2043.27 322)">Semibold</text>
  <text style="stroke:none;fill:black;font-family:-apple-system,&quot;SF Pro Display&quot;,&quot;SF Pro Text&quot;,Helvetica,sans-serif;text-anchor:middle;" transform="matrix(1 0 0 1 2339.98 322)">Bold</text>
  <text style="stroke:none;fill:black;font-family:-apple-system,&quot;SF Pro Display&quot;,&quot;SF Pro Text&quot;,Helvetica,sans-serif;text-anchor:middle;" transform="matrix(1 0 0 1 2636.69 322)">Heavy</text>
  <text style="stroke:none;fill:black;font-family:-apple-system,&quot;SF Pro Display&quot;,&quot;SF Pro Text&quot;,Helvetica,sans-serif;text-anchor:middle;" transform="matrix(1 0 0 1 2933.4 322)">Black</text>
  <line id="" style="fill:none;stroke:black;opacity:1;stroke-width:0.5;" x1="263" x2="3036" y1="1903" y2="1903"/>
  <g id="" transform="matrix(1 0 0 1 263 1933)">
   <path d="M 9.24805 0.830078 C 13.5547 0.830078 17.1387 -2.74414 17.1387 -7.05078 C 17.1387 -11.3574 13.5449 -14.9316 9.23828 -14.9316 C 4.94141 -14.9316 1.36719 -11.3574 1.36719 -7.05078 C 1.36719 -2.74414 4.95117 0.830078 9.24805 0.830078 Z M 9.24805 -0.654297 C 5.70312 -0.654297 2.87109 -3.49609 2.87109 -7.05078 C 2.87109 -10.6055 5.69336 -13.4473 9.23828 -13.4473 C 12.793 -13.4473 15.6348 -10.6055 15.6445 -7.05078 C 15.6543 -3.49609 12.8027 -0.654297 9.24805 -0.654297 Z M 9.22852 -3.42773 C 9.69727 -3.42773 9.9707 -3.74023 9.9707 -4.25781 L 9.9707 -6.31836 L 12.1973 -6.31836 C 12.6953 -6.31836 13.0371 -6.57227 13.0371 -7.04102 C 13.0371 -7.51953 12.7148 -7.7832 12.1973 -7.7832 L 9.9707 -7.7832 L 9.9707 -10.0098 C 9.9707 -10.5273 9.69727 -10.8496 9.22852 -10.8496 C 8.75977 -10.8496 8.50586 -10.5078 8.50586 -10.0098 L 8.50586 -7.7832 L 6.29883 -7.7832 C 5.78125 -7.7832 5.44922 -7.51953 5.44922 -7.04102 C 5.44922 -6.57227 5.80078 -6.31836 6.29883 -6.31836 L 8.50586 -6.31836 L 8.50586 -4.25781 C 8.50586 -3.75977 8.75977 -3.42773 9.22852 -3.42773 Z"/>
  </g>
  <g id="" transform="matrix(1 0 0 1 281.506 1933)">
   <path d="M 11.709 2.91016 C 17.1484 2.91016 21.6699 -1.60156 21.6699 -7.05078 C 21.6699 -12.4902 17.1387 -17.0117 11.6992 -17.0117 C 6.25 -17.0117 1.74805 -12.4902 1.74805 -7.05078 C 1.74805 -1.60156 6.25977 2.91016 11.709 2.91016 Z M 11.709 1.25 C 7.09961 1.25 3.41797 -2.44141 3.41797 -7.05078 C 3.41797 -11.6504 7.08984 -15.3516 11.6992 -15.3516 C 16.2988 -15.3516 20 -11.6504 20.0098 -7.05078 C 20.0195 -2.44141 16.3086 1.25 11.709 1.25 Z M 11.6797 -2.41211 C 12.207 -2.41211 12.5195 -2.77344 12.5195 -3.33984 L 12.5195 -6.23047 L 15.5762 -6.23047 C 16.123 -6.23047 16.5039 -6.51367 16.5039 -7.03125 C 16.5039 -7.55859 16.1426 -7.86133 15.5762 -7.86133 L 12.5195 -7.86133 L 12.5195 -10.9277 C 12.5195 -11.5039 12.207 -11.8555 11.6797 -11.8555 C 11.1621 -11.8555 10.8789 -11.4844 10.8789 -10.9277 L 10.8789 -7.86133 L 7.83203 -7.86133 C 7.25586 -7.86133 6.89453 -7.55859 6.89453 -7.03125 C 6.89453 -6.51367 7.28516 -6.23047 7.83203 -6.23047 L 10.8789 -6.23047 L 10.8789 -3.33984 C 10.8789 -2.79297 11.1621 -2.41211 11.6797 -2.41211 Z"/>
  </g>
  <g id="" transform="matrix(1 0 0 1 304.914 1933)">
   <path d="M 14.9707 5.67383 C 21.9336 5.67383 27.6855 -0.078125 27.6855 -7.04102 C 27.6855 -14.0039 21.9238 -19.7559 14.9609 -19.7559 C 7.99805 -19.7559 2.25586 -14.0039 2.25586 -7.04102 C 2.25586 -0.078125 8.00781 5.67383 14.9707 5.67383 Z M 14.9707 3.85742 C 8.92578 3.85742 4.08203 -1.00586 4.08203 -7.04102 C 4.08203 -13.0762 8.91602 -17.9395 14.9609 -17.9395 C 20.9961 -17.9395 25.8594 -13.0762 25.8691 -7.04102 C 25.8789 -1.00586 21.0059 3.85742 14.9707 3.85742 Z M 14.9414 -1.06445 C 15.5176 -1.06445 15.8594 -1.45508 15.8594 -2.06055 L 15.8594 -6.13281 L 20.0977 -6.13281 C 20.6934 -6.13281 21.1133 -6.46484 21.1133 -7.02148 C 21.1133 -7.59766 20.7227 -7.93945 20.0977 -7.93945 L 15.8594 -7.93945 L 15.8594 -12.1875 C 15.8594 -12.8027 15.5176 -13.1934 14.9414 -13.1934 C 14.3848 -13.1934 14.0625 -12.7832 14.0625 -12.1875 L 14.0625 -7.93945 L 9.82422 -7.93945 C 9.20898 -7.93945 8.80859 -7.59766 8.80859 -7.02148 C 8.80859 -6.46484 9.23828 -6.13281 9.82422 -6.13281 L 14.0625 -6.13281 L 14.0625 -2.06055 C 14.0625 -1.47461 14.3848 -1.06445 14.9414 -1.06445 Z"/>
  </g>
  <text style="stroke:none;fill:black;font-family:-apple-system,&quot;SF Pro Display&quot;,&quot;SF Pro Text&quot;,Helvetica,sans-serif;font-weight:bold;" transform="matrix(1 0 0 1 263 1953)">Design Variations</text>
  <text style="stroke:none;fill:black;font-family:-apple-system,&quot;SF Pro Display&quot;,&quot;SF Pro Text&quot;,Helvetica,sans-serif;" transform="matrix(1 0 0 1 263 1971)">Symbols are supported in up to nine weights and three scales.</text>
  <text style="stroke:none;fill:black;font-family:-apple-system,&quot;SF Pro Display&quot;,&quot;SF Pro Text&quot;,Helvetica,sans-serif;" transform="matrix(1 0 0 1 263 1989)">For optimal layout with text and other symbols, vertically align</text>
  <text style="stroke:none;fill:black;font-family:-apple-system,&quot;SF Pro Display&quot;,&quot;SF Pro Text&quot;,Helvetica,sans-serif;" transform="matrix(1 0 0 1 263 2007)">symbols with the adjacent text.</text>
  <rect height="14" id="" style="fill:#00AEEF;stroke:none;opacity:0.4;" width="3" x="776" y="1919"/>
  <g id="" transform="matrix(1 0 0 1 779 1933)">
   <path d="M 10.5273 0 L 12.373 0 L 7.17773 -14.0918 L 5.43945 -14.0918 L 0.244141 0 L 2.08984 0 L 3.50586 -4.0332 L 9.11133 -4.0332 Z M 6.2793 -11.9531 L 6.33789 -11.9531 L 8.59375 -5.52734 L 4.02344 -5.52734 Z"/>
  </g>
  <rect height="14" id="" style="fill:#00AEEF;stroke:none;opacity:0.4;" width="3" x="791.617" y="1919"/>
  <text style="stroke:none;fill:black;font-family:-apple-system,&quot;SF Pro Display&quot;,&quot;SF Pro Text&quot;,Helvetica,sans-serif;font-weight:bold;" transform="matrix(1 0 0 1 776 1953)">Side Bearings</text>
  <text style="stroke:none;fill:black;font-family:-apple-system,&quot;SF Pro Display&quot;,&quot;SF Pro Text&quot;,Helvetica,sans-serif;" transform="matrix(1 0 0 1 776 1971)">Horizontal padding on the left and right side of each symbol</text>
  <text style="stroke:none;fill:black;font-family:-apple-system,&quot;SF Pro Display&quot;,&quot;SF Pro Text&quot;,Helvetica,sans-serif;" transform="matrix(1 0 0 1 776 1989)">can be adjusted by modifying the width of the blue rectangles.</text>
  <text style="stroke:none;fill:black;font-family:-apple-system,&quot;SF Pro Display&quot;,&quot;SF Pro Text&quot;,Helvetica,sans-serif;" transform="matrix(1 0 0 1 776 2007)">Modifications are automatically applied proportionally to all</text>
  <text style="stroke:none;fill:black;font-family:-apple-system,&quot;SF Pro Display&quot;,&quot;SF Pro Text&quot;,Helvetica,sans-serif;" transform="matrix(1 0 0 1 776 2025)">scales and weights.</text>
  <g id="" transform="matrix(1 0 0 1 1289 1933)">
   <path d="M 2.96875 2.35352 L 3.80859 3.19336 C 4.84375 4.22852 6.12305 4.15039 7.19727 2.97852 L 16.1621 -6.82617 C 16.5527 -6.74805 16.9629 -6.8457 17.4902 -7.02148 C 18.1738 -7.25586 18.2715 -7.25586 18.3887 -7.13867 C 18.5352 -7.01172 18.4863 -6.89453 18.2422 -6.25 C 17.8809 -5.33203 17.8125 -4.79492 18.5547 -4.02344 L 19.4238 -3.13477 C 20.2734 -2.24609 21.3281 -2.26562 22.2168 -3.14453 L 25.0586 -5.97656 C 25.9473 -6.86523 25.957 -7.92969 25.0781 -8.7793 L 24.1797 -9.64844 C 23.4082 -10.4004 22.8711 -10.3516 21.9629 -9.98047 C 21.3184 -9.72656 21.2012 -9.6875 21.0645 -9.81445 C 20.9375 -9.93164 20.9473 -10.0391 21.1816 -10.7129 C 21.5332 -11.6895 21.5723 -12.2852 20.752 -13.0957 L 19.3359 -14.5117 C 15.1953 -18.6133 11.2305 -18.7402 7.65625 -15.4395 C 7.08008 -14.9023 6.99219 -14.1504 7.53906 -13.6133 L 7.79297 -13.3594 C 8.22266 -12.9297 8.86719 -12.8418 9.41406 -13.1152 C 11.0645 -13.9453 12.2559 -14.0234 13.457 -12.9785 L 13.0273 -11.416 C 12.8516 -10.8008 12.793 -10.3418 12.9199 -9.93164 L 3.18359 -1.04492 C 2.02148 0.0292969 1.93359 1.32812 2.96875 2.35352 Z M 8.96484 -14.4922 C 8.89648 -14.5703 8.86719 -14.6582 8.99414 -14.7559 C 11.709 -17.2852 15.0391 -16.8457 18.3496 -13.5254 L 19.6973 -12.168 C 20.0879 -11.7773 20.0977 -11.582 19.8828 -10.8691 C 19.6582 -10.127 19.502 -9.53125 20.1465 -8.88672 C 20.8105 -8.22266 21.2891 -8.41797 22.207 -8.63281 C 22.9004 -8.79883 23.0664 -8.79883 23.4473 -8.41797 L 24.0918 -7.77344 C 24.4043 -7.48047 24.4141 -7.32422 24.0723 -6.97266 L 21.2207 -4.13086 C 20.8887 -3.79883 20.7227 -3.79883 20.4297 -4.10156 L 19.7852 -4.75586 C 19.4141 -5.13672 19.4141 -5.30273 19.5801 -6.01562 C 19.7852 -6.88477 19.9805 -7.38281 19.3262 -8.04688 C 18.6719 -8.7207 18.0762 -8.57422 17.3438 -8.33008 C 16.5625 -8.06641 16.3281 -8.06641 15.8984 -8.49609 L 14.6094 -9.78516 C 14.1699 -10.2246 14.1309 -10.4395 14.2676 -10.9082 L 15.0293 -13.3984 C 13.3887 -15.2832 11.4941 -15.5566 9.20898 -14.4434 C 9.11133 -14.3945 9.04297 -14.4141 8.96484 -14.4922 Z M 3.96484 1.36719 C 3.52539 0.927734 3.54492 0.537109 4.14062 -0.00976562 L 13.7402 -8.81836 L 15 -7.55859 L 6.17188 2.02148 C 5.625 2.60742 5.24414 2.64648 4.79492 2.19727 Z"/>
  </g>
  <text style="stroke:none;fill:black;font-family:-apple-system,&quot;SF Pro Display&quot;,&quot;SF Pro Text&quot;,Helvetica,sans-serif;font-weight:bold;" transform="matrix(1 0 0 1 1289 1953)">Exporting</text>
  <text style="stroke:none;fill:black;font-family:-apple-system,&quot;SF Pro Display&quot;,&quot;SF Pro Text&quot;,Helvetica,sans-serif;" transform="matrix(1 0 0 1 1289 1971)">Symbols should be outlined when exporting to ensure the</text>
  <text style="stroke:none;fill:black;font-family:-apple-system,&quot;SF Pro Display&quot;,&quot;SF Pro Text&quot;,Helvetica,sans-serif;" transform="matrix(1 0 0 1 1289 1989)">design is preserved when submitting to Xcode.</text>
  <text id="template-version" style="stroke:none;fill:black;font-family:-apple-system,&quot;SF Pro Display&quot;,&quot;SF Pro Text&quot;,Helvetica,sans-serif;text-anchor:end;" transform="matrix(1 0 0 1 3036 1933)">Template v.0.1</text>
  <text style="stroke:none;fill:black;font-family:-apple-system,&quot;SF Pro Display&quot;,&quot;SF Pro Text&quot;,Helvetica,sans-serif;text-anchor:end;" transform="matrix(1 0 0 1 3036 1951)">Generated from p.circle</text>
  <text style="stroke:none;fill:black;font-family:-apple-system,&quot;SF Pro Display&quot;,&quot;SF Pro Text&quot;,Helvetica,sans-serif;text-anchor:end;" transform="matrix(1 0 0 1 3036 1969)">Typeset at 100 points</text>
  <text style="stroke:none;fill:black;font-family:-apple-system,&quot;SF Pro Display&quot;,&quot;SF Pro Text&quot;,Helvetica,sans-serif;" transform="matrix(1 0 0 1 263 726)">Small</text>
  <text style="stroke:none;fill:black;font-family:-apple-system,&quot;SF Pro Display&quot;,&quot;SF Pro Text&quot;,Helvetica,sans-serif;" transform="matrix(1 0 0 1 263 1156)">Medium</text>
  <text style="stroke:none;fill:black;font-family:-apple-system,&quot;SF Pro Display&quot;,&quot;SF Pro Text&quot;,Helvetica,sans-serif;" transform="matrix(1 0 0 1 263 1586)">Large</text>
 </g>
 <g id="Guides">
  <g id="H-reference" style="fill:#27AAE1;stroke:none;" transform="matrix(1 0 0 1 339 696)">
   <path d="M 54.9316 0 L 57.666 0 L 30.5664 -70.459 L 28.0762 -70.459 L 0.976562 0 L 3.66211 0 L 12.9395 -24.4629 L 45.7031 -24.4629 Z M 29.1992 -67.0898 L 29.4434 -67.0898 L 44.8242 -26.709 L 13.8184 -26.709 Z"/>
  </g>
  <line id="Baseline-S" style="fill:none;stroke:#27AAE1;opacity:1;stroke-width:0.577;" x1="263" x2="3036" y1="696" y2="696"/>
  <line id="Capline-S" style="fill:none;stroke:#27AAE1;opacity:1;stroke-width:0.577;" x1="263" x2="3036" y1="625.541" y2="625.541"/>
  <g id="H-reference" style="fill:#27AAE1;stroke:none;" transform="matrix(1 0 0 1 339 1126)">
   <path d="M 54.9316 0 L 57.666 0 L 30.5664 -70.459 L 28.0762 -70.459 L 0.976562 0 L 3.66211 0 L 12.9395 -24.4629 L 45.7031 -24.4629 Z M 29.1992 -67.0898 L 29.4434 -67.0898 L 44.8242 -26.709 L 13.8184 -26.709 Z"/>
  </g>
  <line id="Baseline-M" style="fill:none;stroke:#27AAE1;opacity:1;stroke-width:0.577;" x1="263" x2="3036" y1="1126" y2="1126"/>
  <line id="Capline-M" style="fill:none;stroke:#27AAE1;opacity:1;stroke-width:0.577;" x1="263" x2="3036" y1="1055.54" y2="1055.54"/>
  <g id="H-reference" style="fill:#27AAE1;stroke:none;" transform="matrix(1 0 0 1 339 1556)">
   <path d="M 54.9316 0 L 57.666 0 L 30.5664 -70.459 L 28.0762 -70.459 L 0.976562 0 L 3.66211 0 L 12.9395 -24.4629 L 45.7031 -24.4629 Z M 29.1992 -67.0898 L 29.4434 -67.0898 L 44.8242 -26.709 L 13.8184 -26.709 Z"/>
  </g>
  <line id="Baseline-L" style="fill:none;stroke:#27AAE1;opacity:1;stroke-width:0.577;" x1="263" x2="3036" y1="1556" y2="1556"/>
  <line id="Capline-L" style="fill:none;stroke:#27AAE1;opacity:1;stroke-width:0.577;" x1="263" x2="3036" y1="1485.54" y2="1485.54"/>
  <rect height="119.336" id="left-margin" style="fill:#00AEEF;stroke:none;opacity:0.4;" width="8.74023" x="1391.32" y="1030.79"/>
  <rect height="119.336" id="right-margin" style="fill:#00AEEF;stroke:none;opacity:0.4;" width="8.69141" x="1499.67" y="1030.79"/>
 </g>
 <g id="Symbols">
  <g id="Ultralight-S" transform="matrix(1 0 0 1 515.644 696)">
   <path d="M 44.043 2.05078 C 64.502 2.05078 81.2988 -14.6973 81.2988 -35.1562 C 81.2988 -55.6152 64.502 -72.3633 44.043 -72.3633 C 23.584 -72.3633 6.83594 -55.6152 6.83594 -35.1562 C 6.83594 -14.6973 23.584 2.05078 44.043 2.05078 Z M 44.043 -0.146484 C 24.7559 -0.146484 9.08203 -15.8691 9.08203 -35.1562 C 9.08203 -54.4434 24.7559 -70.166 44.043 -70.166 C 63.3789 -70.166 79.0527 -54.4434 79.0527 -35.1562 C 79.0527 -15.8691 63.3789 -0.146484 44.043 -0.146484 Z M 35.791 -18.0176 C 36.5234 -18.0176 36.9629 -18.5059 36.9629 -19.1895 L 36.9629 -31.4453 L 46.3867 -31.4453 C 52.3926 -31.4453 56.7383 -35.7422 56.7383 -41.6992 C 56.7383 -47.6562 52.3438 -52.002 46.3867 -52.002 L 35.6934 -52.002 C 35.0586 -52.002 34.668 -51.5137 34.668 -50.7812 L 34.668 -19.1895 C 34.668 -18.5059 35.1562 -18.0176 35.791 -18.0176 Z M 36.9629 -33.5449 L 36.9629 -49.9023 L 46.4355 -49.9023 C 51.0742 -49.9023 54.4434 -46.4355 54.4434 -41.6992 C 54.4434 -37.0117 51.0254 -33.5449 46.4355 -33.5449 Z"/>
  </g>
  <g id="Thin-S" transform="matrix(1 0 0 1 811.867 696)">
   <path d="M 44.5801 2.53906 C 65.2832 2.53906 82.2754 -14.4531 82.2754 -35.2051 C 82.2754 -55.9082 65.2344 -72.9004 44.5312 -72.9004 C 23.8281 -72.9004 6.83594 -55.9082 6.83594 -35.2051 C 6.83594 -14.4531 23.877 2.53906 44.5801 2.53906 Z M 44.5801 -0.878906 C 25.5859 -0.878906 10.2539 -16.2109 10.2539 -35.2051 C 10.2539 -54.1504 25.5859 -69.4824 44.5312 -69.4824 C 63.5254 -69.4824 78.8574 -54.1504 78.8574 -35.2051 C 78.8574 -16.2109 63.5254 -0.878906 44.5801 -0.878906 Z M 36.3281 -17.9199 C 37.4023 -17.9199 37.9883 -18.6523 37.9883 -19.7266 L 37.9883 -30.9082 L 46.9238 -30.9082 C 53.3203 -30.9082 57.8613 -35.3027 57.8613 -41.6016 C 57.8613 -47.8027 53.2715 -52.2949 46.9238 -52.2949 L 36.2305 -52.2949 C 35.2051 -52.2949 34.6191 -51.5625 34.6191 -50.4395 L 34.6191 -19.7266 C 34.6191 -18.6523 35.3027 -17.9199 36.3281 -17.9199 Z M 37.9883 -33.7402 L 37.9883 -49.4629 L 46.7285 -49.4629 C 51.3184 -49.4629 54.541 -46.1914 54.541 -41.6016 C 54.541 -36.9629 51.2695 -33.7402 46.7285 -33.7402 Z"/>
  </g>
  <g id="Light-S" transform="matrix(1 0 0 1 1107.6 696)">
   <path d="M 45.5078 3.4668 C 66.6992 3.4668 84.2285 -14.0625 84.2285 -35.2051 C 84.2285 -56.3965 66.6504 -73.9258 45.5078 -73.9258 C 24.3164 -73.9258 6.83594 -56.3965 6.83594 -35.2051 C 6.83594 -14.0625 24.3652 3.4668 45.5078 3.4668 Z M 45.5078 -2.24609 C 27.2461 -2.24609 12.5977 -16.9434 12.5977 -35.2051 C 12.5977 -53.5156 27.1973 -68.2129 45.5078 -68.2129 C 63.7695 -68.2129 78.4668 -53.5156 78.5156 -35.2051 C 78.5156 -16.9434 63.8184 -2.24609 45.5078 -2.24609 Z M 37.2559 -17.7734 C 39.0625 -17.7734 39.9902 -18.9453 39.9902 -20.8008 L 39.9902 -29.8828 L 47.9004 -29.8828 C 55.127 -29.8828 59.9609 -34.4727 59.9609 -41.3574 C 59.9609 -48.1445 55.0781 -52.832 47.9492 -52.832 L 37.2559 -52.832 C 35.498 -52.832 34.6191 -51.6113 34.6191 -49.8047 L 34.6191 -20.8008 C 34.6191 -18.9941 35.5469 -17.7734 37.2559 -17.7734 Z M 39.9902 -34.082 L 39.9902 -48.6328 L 47.2168 -48.6328 C 51.709 -48.6328 54.6387 -45.8008 54.6387 -41.3574 C 54.6387 -36.9141 51.7578 -34.082 47.2168 -34.082 Z"/>
  </g>
  <g id="Regular-S" transform="matrix(1 0 0 1 1403.58 696)">
   <path d="M 46.2402 4.15039 C 67.7734 4.15039 85.6934 -13.7207 85.6934 -35.2539 C 85.6934 -56.7871 67.7246 -74.6582 46.1914 -74.6582 C 24.707 -74.6582 6.83594 -56.7871 6.83594 -35.2539 C 6.83594 -13.7207 24.7559 4.15039 46.2402 4.15039 Z M 46.2402 -3.27148 C 28.5156 -3.27148 14.3555 -17.4805 14.3555 -35.2539 C 14.3555 -53.0273 28.4668 -67.2363 46.1914 -67.2363 C 63.9648 -67.2363 78.1738 -53.0273 78.2227 -35.2539 C 78.2715 -17.4805 64.0137 -3.27148 46.2402 -3.27148 Z M 37.9883 -17.627 C 40.2832 -17.627 41.5527 -19.1406 41.5527 -21.582 L 41.5527 -29.1016 L 48.6328 -29.1016 C 56.4453 -29.1016 61.5723 -33.8379 61.5723 -41.1621 C 61.5723 -48.3887 56.3965 -53.2715 48.6816 -53.2715 L 37.9883 -53.2715 C 35.7422 -53.2715 34.5703 -51.6602 34.5703 -49.3164 L 34.5703 -21.582 C 34.5703 -19.2383 35.7422 -17.627 37.9883 -17.627 Z M 41.5527 -34.3262 L 41.5527 -47.998 L 47.6074 -47.998 C 52.0508 -47.998 54.7363 -45.459 54.7363 -41.1621 C 54.7363 -36.8652 52.0996 -34.3262 47.6074 -34.3262 Z"/>
  </g>
  <g id="Medium-S" transform="matrix(1 0 0 1 1699.7 696)">
   <path d="M 46.8262 4.78516 C 68.75 4.78516 86.8652 -13.3301 86.8652 -35.2539 C 86.8652 -57.1289 68.7012 -75.2441 46.8262 -75.2441 C 24.9023 -75.2441 6.83594 -57.1289 6.83594 -35.2539 C 6.83594 -13.3301 24.9512 4.78516 46.8262 4.78516 Z M 46.8262 -4.19922 C 29.6387 -4.19922 15.8691 -18.0176 15.8691 -35.2539 C 15.8691 -52.4414 29.5898 -66.2598 46.8262 -66.2598 C 64.0137 -66.2598 77.832 -52.4414 77.8809 -35.2539 C 77.8809 -18.0176 64.0625 -4.19922 46.8262 -4.19922 Z M 38.5254 -17.6758 C 41.2109 -17.6758 42.7246 -19.4336 42.7246 -22.3633 L 42.7246 -28.3203 L 49.0723 -28.3203 C 56.9824 -28.3203 62.1094 -33.1543 62.1094 -40.625 C 62.1094 -47.998 56.9824 -52.9297 49.1211 -52.9297 L 38.7207 -52.9297 C 35.8398 -52.9297 34.375 -51.123 34.375 -48.1445 L 34.375 -22.3633 C 34.375 -19.5312 35.8398 -17.6758 38.5254 -17.6758 Z M 42.7246 -34.4727 L 42.7246 -46.7773 L 47.8516 -46.7773 C 51.8066 -46.7773 54.1016 -44.5312 54.1016 -40.5762 C 54.1016 -36.7188 51.8066 -34.4727 47.8516 -34.4727 Z"/>
  </g>
  <g id="Semibold-S" transform="matrix(1 0 0 1 1995.98 696)">
   <path d="M 47.3145 5.22461 C 69.4824 5.22461 87.7441 -13.0371 87.7441 -35.2539 C 87.7441 -57.4219 69.4336 -75.6836 47.2656 -75.6836 C 25.0977 -75.6836 6.83594 -57.4219 6.83594 -35.2539 C 6.83594 -13.0371 25.0977 5.22461 47.3145 5.22461 Z M 47.3145 -4.93164 C 30.4688 -4.93164 17.041 -18.4082 17.041 -35.2539 C 17.041 -52.0508 30.4688 -65.5273 47.2656 -65.5273 C 64.0625 -65.5273 77.5879 -52.0508 77.5879 -35.2539 C 77.6367 -18.4082 64.1113 -4.93164 47.3145 -4.93164 Z M 38.916 -17.7246 C 41.9434 -17.7246 43.6523 -19.6777 43.6523 -22.9492 L 43.6523 -27.7344 L 49.3652 -27.7344 C 57.373 -27.7344 62.5488 -32.6172 62.5488 -40.1855 C 62.5488 -47.7539 57.373 -52.6367 49.5117 -52.6367 L 39.2578 -52.6367 C 35.9375 -52.6367 34.2285 -50.6836 34.2285 -47.3145 L 34.2285 -22.9492 C 34.2285 -19.7266 35.8887 -17.7246 38.916 -17.7246 Z M 43.6523 -34.5703 L 43.6523 -45.8008 L 48.0469 -45.8008 C 51.6113 -45.8008 53.6133 -43.7988 53.6133 -40.1855 C 53.6133 -36.5723 51.6113 -34.5703 48.0469 -34.5703 Z"/>
  </g>
  <g id="Bold-S" transform="matrix(1 0 0 1 2292.1 696)">
   <path d="M 47.9004 5.81055 C 70.4102 5.81055 88.916 -12.6465 88.916 -35.2051 C 88.916 -57.7637 70.4102 -76.2695 47.8516 -76.2695 C 25.293 -76.2695 6.83594 -57.7637 6.83594 -35.2051 C 6.83594 -12.6465 25.3418 5.81055 47.9004 5.81055 Z M 47.9004 -5.85938 C 31.6406 -5.85938 18.5547 -18.9453 18.5547 -35.2051 C 18.5547 -51.4648 31.5918 -64.5508 47.8516 -64.5508 C 64.1113 -64.5508 77.1973 -51.4648 77.2461 -35.2051 C 77.2461 -18.9453 64.1602 -5.85938 47.9004 -5.85938 Z M 39.4043 -17.7246 C 42.8711 -17.7246 44.8242 -19.9707 44.8242 -23.7305 L 44.8242 -26.9531 L 49.8047 -26.9531 C 57.8613 -26.9531 63.0859 -31.8848 63.0859 -39.6484 C 63.0859 -47.3633 57.959 -52.2949 49.9512 -52.2949 L 39.9902 -52.2949 C 36.0352 -52.2949 34.0332 -50.1465 34.0332 -46.1426 L 34.0332 -23.7305 C 34.0332 -19.9707 35.9375 -17.7246 39.4043 -17.7246 Z M 44.8242 -34.7168 L 44.8242 -44.5312 L 48.3398 -44.5312 C 51.3672 -44.5312 52.9785 -42.8711 52.9785 -39.5996 C 52.9785 -36.4258 51.3672 -34.7168 48.3398 -34.7168 Z"/>
  </g>
  <g id="Heavy-S" transform="matrix(1 0 0 1 2587.96 696)">
   <path d="M 48.7305 6.68945 C 71.8262 6.68945 90.625 -12.1094 90.625 -35.2051 C 90.625 -58.3008 71.8262 -77.0996 48.7305 -77.0996 C 25.6348 -77.0996 6.83594 -58.3008 6.83594 -35.2051 C 6.83594 -12.1094 25.6348 6.68945 48.7305 6.68945 Z M 48.7305 -7.22656 C 33.3008 -7.22656 20.752 -19.7266 20.752 -35.2051 C 20.752 -50.6836 33.3008 -63.1836 48.7305 -63.1836 C 64.209 -63.1836 76.709 -50.6836 76.709 -35.2051 C 76.709 -19.7266 64.209 -7.22656 48.7305 -7.22656 Z M 40.1367 -17.7734 C 44.1895 -17.7734 46.582 -20.4102 46.582 -24.8535 L 46.582 -25.7812 L 50.4395 -25.7812 C 58.6426 -25.7812 63.916 -30.8594 63.916 -38.8184 C 63.916 -46.8262 58.7891 -51.8066 50.5859 -51.8066 L 41.0156 -51.8066 C 36.1816 -51.8066 33.6914 -49.3164 33.6914 -44.4824 L 33.6914 -24.8535 C 33.6914 -20.3613 36.084 -17.7734 40.1367 -17.7734 Z M 46.582 -34.9121 L 46.582 -42.6758 L 48.7305 -42.6758 C 51.0254 -42.6758 52.0508 -41.4551 52.0508 -38.7695 C 52.0508 -36.1816 50.9766 -34.9121 48.7305 -34.9121 Z"/>
  </g>
  <g id="Black-S" transform="matrix(1 0 0 1 2883.89 696)">
   <path d="M 49.5117 7.4707 C 73.0957 7.4707 92.1875 -11.6211 92.1875 -35.2051 C 92.1875 -58.7891 73.0957 -77.8809 49.5117 -77.8809 C 25.9277 -77.8809 6.83594 -58.7891 6.83594 -35.2051 C 6.83594 -11.6211 25.9277 7.4707 49.5117 7.4707 Z M 49.5117 -8.44727 C 34.7656 -8.44727 22.7539 -20.459 22.7539 -35.2051 C 22.7539 -49.9512 34.7656 -61.9141 49.5117 -61.9141 C 64.2578 -61.9141 76.2695 -49.9512 76.2207 -35.2051 C 76.2207 -20.459 64.2578 -8.44727 49.5117 -8.44727 Z M 40.8203 -17.8223 C 45.4102 -17.8223 48.1445 -20.8008 48.1445 -25.8301 L 48.1445 -24.7559 L 50.9766 -24.7559 C 59.3262 -24.7559 64.5996 -29.9316 64.5996 -38.1348 C 64.5996 -46.3379 59.5215 -51.3672 51.2207 -51.3672 L 41.9434 -51.3672 C 36.2793 -51.3672 33.4473 -48.584 33.4473 -42.9688 L 33.4473 -25.8301 C 33.4473 -20.7031 36.1816 -17.8223 40.8203 -17.8223 Z M 48.1445 -35.1074 L 48.1445 -41.0156 L 49.0723 -41.0156 C 50.7324 -41.0156 51.2207 -40.2344 51.2207 -38.0371 C 51.2207 -35.9863 50.6348 -35.1074 49.0723 -35.1074 Z"/>
  </g>
  <g id="Ultralight-M" transform="matrix(1 0 0 1 503.656 1126)">
   <path d="M 56.0547 12.207 C 82.0801 12.207 103.369 -9.08203 103.369 -35.1562 C 103.369 -61.1816 82.0801 -82.4707 56.0547 -82.4707 C 30.0293 -82.4707 8.74023 -61.1816 8.74023 -35.1562 C 8.74023 -9.08203 30.0293 12.207 56.0547 12.207 Z M 56.0547 9.81445 C 31.25 9.81445 11.1328 -10.3516 11.1328 -35.1562 C 11.1328 -59.9121 31.25 -80.0781 56.0547 -80.0781 C 80.8105 -80.0781 100.977 -59.9121 100.977 -35.1562 C 100.977 -10.3516 80.8105 9.81445 56.0547 9.81445 Z M 45.5078 -13.2812 C 46.2891 -13.2812 46.7773 -13.8184 46.7773 -14.502 L 46.7773 -30.5664 L 59.0332 -30.5664 C 66.5527 -30.5664 72.0215 -36.0352 72.0215 -43.5547 C 72.0215 -51.0254 66.4551 -56.543 59.0332 -56.543 L 45.4102 -56.543 C 44.6777 -56.543 44.2383 -56.0059 44.2383 -55.2246 L 44.2383 -14.502 C 44.2383 -13.8184 44.7754 -13.2812 45.5078 -13.2812 Z M 46.7773 -33.0078 L 46.7773 -54.1016 L 59.1797 -54.1016 C 65.0879 -54.1016 69.4824 -49.6094 69.4824 -43.5547 C 69.4824 -37.5 65.0391 -33.0078 59.1797 -33.0078 Z"/>
  </g>
  <g id="Thin-M" transform="matrix(1 0 0 1 799.806 1126)">
   <path d="M 56.5918 12.7441 C 82.9102 12.7441 104.492 -8.83789 104.492 -35.1562 C 104.492 -61.4746 82.9102 -83.0566 56.5918 -83.0566 C 30.3223 -83.0566 8.74023 -61.4746 8.74023 -35.1562 C 8.74023 -8.83789 30.3223 12.7441 56.5918 12.7441 Z M 56.5918 8.98438 C 32.2266 8.98438 12.4512 -10.791 12.4512 -35.1562 C 12.4512 -59.5215 32.2266 -79.2969 56.5918 -79.2969 C 80.957 -79.2969 100.781 -59.5215 100.781 -35.1562 C 100.781 -10.791 81.0059 8.98438 56.5918 8.98438 Z M 46.0938 -13.1836 C 47.2656 -13.1836 47.9492 -13.9648 47.9492 -15.1367 L 47.9492 -29.9805 L 59.6191 -29.9805 C 67.5781 -29.9805 73.2422 -35.5469 73.2422 -43.4082 C 73.2422 -51.2207 67.5293 -56.8848 59.6191 -56.8848 L 45.9473 -56.8848 C 44.873 -56.8848 44.2383 -56.0547 44.2383 -54.834 L 44.2383 -15.1367 C 44.2383 -14.0137 44.9707 -13.1836 46.0938 -13.1836 Z M 47.9492 -33.2031 L 47.9492 -53.6621 L 59.4727 -53.6621 C 65.332 -53.6621 69.5312 -49.3652 69.5312 -43.4082 C 69.5312 -37.4512 65.332 -33.2031 59.4727 -33.2031 Z"/>
  </g>
  <g id="Light-M" transform="matrix(1 0 0 1 1095.42 1126)">
   <path d="M 57.7148 13.7695 C 84.5215 13.7695 106.689 -8.39844 106.689 -35.2051 C 106.689 -62.0117 84.4727 -84.1797 57.666 -84.1797 C 30.8594 -84.1797 8.74023 -62.0117 8.74023 -35.2051 C 8.74023 -8.39844 30.8594 13.7695 57.7148 13.7695 Z M 57.7148 7.4707 C 34.082 7.4707 15.0879 -11.5723 15.0879 -35.2051 C 15.0879 -58.8379 34.0332 -77.832 57.666 -77.832 C 81.2988 -77.832 100.342 -58.8379 100.342 -35.2051 C 100.391 -11.5723 81.2988 7.4707 57.7148 7.4707 Z M 47.168 -12.9883 C 49.1211 -12.9883 50.1953 -14.3066 50.1953 -16.3574 L 50.1953 -28.8086 L 60.7422 -28.8086 C 69.5801 -28.8086 75.6348 -34.6191 75.6348 -43.1152 C 75.6348 -51.5625 69.5312 -57.4707 60.7422 -57.4707 L 47.1191 -57.4707 C 45.2148 -57.4707 44.1895 -56.1035 44.1895 -54.1016 L 44.1895 -16.3574 C 44.1895 -14.3555 45.2637 -12.9883 47.168 -12.9883 Z M 50.1953 -33.5938 L 50.1953 -52.6855 L 60.0586 -52.6855 C 65.8203 -52.6855 69.6777 -48.877 69.6777 -43.1152 C 69.6777 -37.4023 65.8203 -33.5938 60.0586 -33.5938 Z"/>
  </g>
  <g id="Regular-M" transform="matrix(1 0 0 1 1391.32 1126)">
   <path d="M 58.5449 14.5508 C 85.7422 14.5508 108.35 -8.00781 108.35 -35.2539 C 108.35 -62.4512 85.6934 -85.0586 58.4961 -85.0586 C 31.25 -85.0586 8.74023 -62.4512 8.74023 -35.2539 C 8.74023 -8.00781 31.2988 14.5508 58.5449 14.5508 Z M 58.5449 6.25 C 35.498 6.25 17.0898 -12.207 17.0898 -35.2539 C 17.0898 -58.252 35.4492 -76.7578 58.4961 -76.7578 C 81.4941 -76.7578 100 -58.252 100.049 -35.2539 C 100.098 -12.207 81.543 6.25 58.5449 6.25 Z M 47.998 -12.8906 C 50.5859 -12.8906 51.9531 -14.5508 51.9531 -17.2363 L 51.9531 -27.9297 L 61.5723 -27.9297 C 71.0938 -27.9297 77.4902 -33.8867 77.4902 -42.9199 C 77.4902 -51.8555 71.0449 -57.959 61.6211 -57.959 L 47.9492 -57.959 C 45.459 -57.959 44.1406 -56.1523 44.1406 -53.5645 L 44.1406 -17.2363 C 44.1406 -14.6484 45.5078 -12.8906 47.998 -12.8906 Z M 51.9531 -33.8867 L 51.9531 -52.002 L 60.498 -52.002 C 66.2109 -52.002 69.7754 -48.5352 69.7754 -42.9199 C 69.7754 -37.3535 66.2598 -33.8867 60.498 -33.8867 Z"/>
  </g>
  <g id="Medium-M" transform="matrix(1 0 0 1 1687.33 1126)">
   <path d="M 59.2285 15.2832 C 86.8652 15.2832 109.717 -7.56836 109.717 -35.2051 C 109.717 -62.8906 86.8164 -85.7422 59.1797 -85.7422 C 31.543 -85.7422 8.74023 -62.8906 8.74023 -35.2051 C 8.74023 -7.56836 31.5918 15.2832 59.2285 15.2832 Z M 59.2285 5.17578 C 36.8164 5.17578 18.8477 -12.8418 18.8477 -35.2051 C 18.8477 -57.6172 36.7676 -75.6348 59.1797 -75.6348 C 81.5918 -75.6348 99.6094 -57.6172 99.6582 -35.2051 C 99.6582 -12.8418 81.6406 5.17578 59.2285 5.17578 Z M 48.6328 -12.8906 C 51.6602 -12.8906 53.3691 -14.8926 53.3691 -18.1641 L 53.3691 -27.0508 L 62.1094 -27.0508 C 71.8262 -27.0508 78.2715 -33.1055 78.2715 -42.334 C 78.2715 -51.5137 71.8262 -57.666 62.207 -57.666 L 48.7793 -57.666 C 45.6055 -57.666 43.9453 -55.6152 43.9453 -52.2949 L 43.9453 -18.1641 C 43.9453 -14.9414 45.6055 -12.8906 48.6328 -12.8906 Z M 53.3691 -34.082 L 53.3691 -50.6348 L 60.791 -50.6348 C 66.0156 -50.6348 69.1406 -47.5098 69.1406 -42.334 C 69.1406 -37.207 66.0156 -34.082 60.791 -34.082 Z"/>
  </g>
  <g id="Semibold-M" transform="matrix(1 0 0 1 1983.5 1126)">
   <path d="M 59.7656 15.8203 C 87.7441 15.8203 110.791 -7.22656 110.791 -35.2051 C 110.791 -63.1836 87.6953 -86.2793 59.7168 -86.2793 C 31.7383 -86.2793 8.74023 -63.1836 8.74023 -35.2051 C 8.74023 -7.22656 31.7871 15.8203 59.7656 15.8203 Z M 59.7656 4.3457 C 37.8418 4.3457 20.2148 -13.2812 20.2148 -35.2051 C 20.2148 -57.1289 37.793 -74.8047 59.7168 -74.8047 C 81.6406 -74.8047 99.3164 -57.1289 99.3164 -35.2051 C 99.3652 -13.2812 81.6895 4.3457 59.7656 4.3457 Z M 49.0723 -12.8906 C 52.5391 -12.8906 54.4434 -15.1367 54.4434 -18.8477 L 54.4434 -26.3672 L 62.5 -26.3672 C 72.3633 -26.3672 78.8574 -32.4707 78.8574 -41.8945 C 78.8574 -51.2207 72.3633 -57.4219 62.5977 -57.4219 L 49.4141 -57.4219 C 45.7031 -57.4219 43.7988 -55.1758 43.7988 -51.3672 L 43.7988 -18.8477 C 43.7988 -15.1855 45.6543 -12.8906 49.0723 -12.8906 Z M 54.4434 -34.2285 L 54.4434 -49.5605 L 61.0352 -49.5605 C 65.8691 -49.5605 68.6523 -46.7285 68.6523 -41.8457 C 68.6523 -37.0605 65.8691 -34.2285 61.0352 -34.2285 Z"/>
  </g>
  <g id="Bold-M" transform="matrix(1 0 0 1 2279.5 1126)">
   <path d="M 60.4492 16.5039 C 88.8672 16.5039 112.207 -6.78711 112.207 -35.2051 C 112.207 -63.623 88.8672 -86.9629 60.4492 -86.9629 C 32.0312 -86.9629 8.74023 -63.623 8.74023 -35.2051 C 8.74023 -6.78711 32.0801 16.5039 60.4492 16.5039 Z M 60.4492 3.22266 C 39.1602 3.22266 22.0215 -13.916 22.0215 -35.2051 C 22.0215 -56.4941 39.1602 -73.6816 60.4492 -73.6816 C 81.7383 -73.6816 98.877 -56.4941 98.9258 -35.2051 C 98.9258 -13.916 81.7871 3.22266 60.4492 3.22266 Z M 49.707 -12.8906 C 53.6133 -12.8906 55.9082 -15.4785 55.9082 -19.7266 L 55.9082 -25.4395 L 63.0371 -25.4395 C 73.0957 -25.4395 79.6387 -31.6895 79.6387 -41.3086 C 79.6387 -50.8789 73.1445 -57.1289 63.1836 -57.1289 L 50.293 -57.1289 C 45.8496 -57.1289 43.5547 -54.6387 43.5547 -50.1465 L 43.5547 -19.7266 C 43.5547 -15.4785 45.8008 -12.8906 49.707 -12.8906 Z M 55.9082 -34.4238 L 55.9082 -48.1934 L 61.377 -48.1934 C 65.625 -48.1934 68.0176 -45.7031 68.0176 -41.2598 C 68.0176 -36.9141 65.625 -34.4238 61.377 -34.4238 Z"/>
  </g>
  <g id="Heavy-M" transform="matrix(1 0 0 1 2575.19 1126)">
   <path d="M 61.4746 17.5781 C 90.5273 17.5781 114.258 -6.15234 114.258 -35.2051 C 114.258 -64.2578 90.5273 -87.9883 61.4746 -87.9883 C 32.4219 -87.9883 8.74023 -64.2578 8.74023 -35.2051 C 8.74023 -6.15234 32.4707 17.5781 61.4746 17.5781 Z M 61.4746 1.66016 C 41.1133 1.66016 24.6582 -14.8438 24.6582 -35.2051 C 24.6582 -55.5664 41.1133 -72.0703 61.4746 -72.0703 C 81.8359 -72.0703 98.3398 -55.5664 98.3398 -35.2051 C 98.3398 -14.8438 81.8848 1.66016 61.4746 1.66016 Z M 50.6348 -12.9395 C 55.2734 -12.9395 58.0078 -15.9668 58.0078 -21.0449 L 58.0078 -24.1211 L 63.8184 -24.1211 C 74.1211 -24.1211 80.7617 -30.4688 80.7617 -40.4297 C 80.7617 -50.3906 74.2676 -56.7383 64.0137 -56.7383 L 51.4648 -56.7383 C 46.0449 -56.7383 43.2617 -53.8086 43.2617 -48.3398 L 43.2617 -21.0449 C 43.2617 -15.9668 45.9473 -12.9395 50.6348 -12.9395 Z M 58.0078 -34.668 L 58.0078 -46.1914 L 61.8652 -46.1914 C 65.3809 -46.1914 67.1387 -44.2383 67.1387 -40.3809 C 67.1387 -36.6211 65.332 -34.668 61.8652 -34.668 Z"/>
  </g>
  <g id="Black-M" transform="matrix(1 0 0 1 2871 1126)">
   <path d="M 62.4023 18.457 C 91.9922 18.457 116.064 -5.61523 116.064 -35.2051 C 116.064 -64.7949 91.9922 -88.8672 62.4023 -88.8672 C 32.8125 -88.8672 8.74023 -64.7949 8.74023 -35.2051 C 8.74023 -5.61523 32.8125 18.457 62.4023 18.457 Z M 62.4023 0.195312 C 42.8223 0.195312 27.002 -15.625 27.002 -35.2051 C 27.002 -54.7363 42.8223 -70.6055 62.4023 -70.6055 C 81.9824 -70.6055 97.8027 -54.7363 97.8027 -35.2051 C 97.8027 -15.625 81.9824 0.195312 62.4023 0.195312 Z M 51.416 -12.9395 C 56.6895 -12.9395 59.8633 -16.4062 59.8633 -22.2168 L 59.8633 -22.9492 L 64.502 -22.9492 C 75.0488 -22.9492 81.7871 -29.4434 81.7871 -39.6973 C 81.7871 -49.9023 75.2441 -56.3477 64.7461 -56.3477 L 52.5879 -56.3477 C 46.1914 -56.3477 42.9688 -53.0762 42.9688 -46.6797 L 42.9688 -22.2168 C 42.9688 -16.3574 46.0449 -12.9395 51.416 -12.9395 Z M 59.8633 -34.9121 L 59.8633 -44.3848 L 62.3047 -44.3848 C 65.0879 -44.3848 66.3086 -42.9199 66.3086 -39.5996 C 66.3086 -36.4258 65.0391 -34.9121 62.3047 -34.9121 Z"/>
  </g>
  <g id="Ultralight-L" transform="matrix(1 0 0 1 487.641 1556)">
   <path d="M 72.0703 25.7324 C 105.566 25.7324 132.91 -1.61133 132.91 -35.1074 C 132.91 -68.5547 105.566 -95.8984 72.0703 -95.8984 C 38.623 -95.8984 11.2793 -68.5547 11.2793 -35.1074 C 11.2793 -1.61133 38.623 25.7324 72.0703 25.7324 Z M 72.0703 23.2422 C 39.9414 23.2422 13.7695 -2.97852 13.7695 -35.1074 C 13.7695 -67.2363 39.9414 -93.4082 72.0703 -93.4082 C 104.199 -93.4082 130.42 -67.2363 130.371 -35.1074 C 130.371 -2.97852 104.199 23.2422 72.0703 23.2422 Z M 58.4961 -6.93359 C 59.3262 -6.93359 59.8633 -7.51953 59.8633 -8.25195 L 59.8633 -29.4922 L 75.9277 -29.4922 C 85.4004 -29.4922 92.3828 -36.4746 92.3828 -46.0449 C 92.3828 -55.5176 85.3516 -62.5977 75.9277 -62.5977 L 58.3008 -62.5977 C 57.5684 -62.5977 57.1289 -62.0117 57.1289 -61.2305 L 57.1289 -8.25195 C 57.1289 -7.51953 57.7148 -6.93359 58.4961 -6.93359 Z M 59.8633 -32.2754 L 59.8633 -59.8145 L 76.2207 -59.8145 C 83.8867 -59.8145 89.6484 -53.9062 89.6484 -46.0449 C 89.6484 -38.1836 83.7891 -32.2754 76.2207 -32.2754 Z"/>
  </g>
  <g id="Thin-L" transform="matrix(1 0 0 1 783.717 1556)">
   <path d="M 72.7051 26.3184 C 106.494 26.3184 134.131 -1.36719 134.131 -35.1074 C 134.131 -68.8965 106.445 -96.582 72.7051 -96.582 C 38.916 -96.582 11.2793 -68.8965 11.2793 -35.1074 C 11.2793 -1.36719 38.916 26.3184 72.7051 26.3184 Z M 72.7051 22.3145 C 41.0156 22.3145 15.2344 -3.41797 15.2344 -35.1074 C 15.2344 -66.8457 41.0156 -92.5781 72.7051 -92.5781 C 104.395 -92.5781 130.127 -66.8457 130.176 -35.1074 C 130.176 -3.41797 104.395 22.3145 72.7051 22.3145 Z M 59.1309 -6.83594 C 60.4004 -6.83594 61.1328 -7.71484 61.1328 -8.93555 L 61.1328 -28.8086 L 76.5625 -28.8086 C 86.5723 -28.8086 93.75 -35.9375 93.75 -45.8984 C 93.75 -55.7129 86.4746 -62.9395 76.5625 -62.9395 L 58.9844 -62.9395 C 57.7637 -62.9395 57.0801 -62.0605 57.0801 -60.791 L 57.0801 -8.93555 C 57.0801 -7.71484 57.9102 -6.83594 59.1309 -6.83594 Z M 61.1328 -32.4707 L 61.1328 -59.2773 L 76.5625 -59.2773 C 84.1797 -59.2773 89.6973 -53.6133 89.6973 -45.8984 C 89.6973 -38.1348 84.1309 -32.4707 76.5625 -32.4707 Z"/>
  </g>
  <g id="Light-L" transform="matrix(1 0 0 1 1079.21 1556)">
   <path d="M 73.9258 27.4902 C 108.301 27.4902 136.572 -0.830078 136.572 -35.1562 C 136.572 -69.5312 108.252 -97.8516 73.877 -97.8516 C 39.5508 -97.8516 11.2793 -69.5312 11.2793 -35.1562 C 11.2793 -0.830078 39.5508 27.4902 73.9258 27.4902 Z M 73.9258 20.6055 C 43.0664 20.6055 18.1641 -4.3457 18.1641 -35.1562 C 18.1641 -66.0156 43.0664 -90.918 73.877 -90.918 C 104.736 -90.918 129.639 -66.0156 129.688 -35.1562 C 129.736 -4.3457 104.785 20.6055 73.9258 20.6055 Z M 60.3516 -6.64062 C 62.5 -6.64062 63.6719 -8.05664 63.6719 -10.2539 L 63.6719 -27.5391 L 77.832 -27.5391 C 88.8184 -27.5391 96.4355 -34.9121 96.4355 -45.5566 C 96.4355 -56.1523 88.7207 -63.623 77.832 -63.623 L 60.2539 -63.623 C 58.1543 -63.623 57.0312 -62.1582 57.0312 -59.9609 L 57.0312 -10.2539 C 57.0312 -8.1543 58.252 -6.64062 60.3516 -6.64062 Z M 63.6719 -32.9102 L 63.6719 -58.2031 L 77.1973 -58.2031 C 84.7168 -58.2031 89.8438 -53.0762 89.8438 -45.5566 C 89.8438 -38.0859 84.7168 -32.9102 77.1973 -32.9102 Z"/>
  </g>
  <g id="Regular-L" transform="matrix(1 0 0 1 1374.99 1556)">
   <path d="M 74.8535 28.3691 C 109.668 28.3691 138.428 -0.390625 138.428 -35.2051 C 138.428 -70.0195 109.619 -98.7793 74.8047 -98.7793 C 39.9902 -98.7793 11.2793 -70.0195 11.2793 -35.2051 C 11.2793 -0.390625 40.0391 28.3691 74.8535 28.3691 Z M 74.8535 19.2871 C 44.6289 19.2871 20.4102 -5.0293 20.4102 -35.2051 C 20.4102 -65.3809 44.5801 -89.6973 74.8047 -89.6973 C 104.98 -89.6973 129.297 -65.3809 129.346 -35.2051 C 129.395 -5.0293 105.029 19.2871 74.8535 19.2871 Z M 61.2793 -6.49414 C 64.0625 -6.49414 65.625 -8.34961 65.625 -11.2793 L 65.625 -26.5625 L 78.7598 -26.5625 C 90.5273 -26.5625 98.4863 -34.1309 98.4863 -45.3125 C 98.4863 -56.4453 90.4297 -64.1602 78.8086 -64.1602 L 61.1816 -64.1602 C 58.4473 -64.1602 56.9824 -62.207 56.9824 -59.3262 L 56.9824 -11.2793 C 56.9824 -8.44727 58.4961 -6.49414 61.2793 -6.49414 Z M 65.625 -33.252 L 65.625 -57.4219 L 77.6855 -57.4219 C 85.1074 -57.4219 89.9414 -52.6855 89.9414 -45.3125 C 89.9414 -38.0371 85.1562 -33.252 77.6855 -33.252 Z"/>
  </g>
  <g id="Medium-L" transform="matrix(1 0 0 1 1670.9 1556)">
   <path d="M 75.6348 29.1992 C 110.938 29.1992 140.039 0.0488281 140.039 -35.2051 C 140.039 -70.459 110.889 -99.6094 75.5859 -99.6094 C 40.332 -99.6094 11.2793 -70.459 11.2793 -35.2051 C 11.2793 0.0488281 40.3809 29.1992 75.6348 29.1992 Z M 75.6348 18.0664 C 46.1426 18.0664 22.4609 -5.71289 22.4609 -35.2051 C 22.4609 -64.6973 46.0938 -88.4766 75.5859 -88.4766 C 105.127 -88.4766 128.857 -64.6973 128.906 -35.2051 C 128.955 -5.71289 105.176 18.0664 75.6348 18.0664 Z M 62.0117 -6.49414 C 65.3809 -6.49414 67.2852 -8.69141 67.2852 -12.3047 L 67.2852 -25.5371 L 79.3945 -25.5371 C 91.4551 -25.5371 99.5605 -33.252 99.5605 -44.7266 C 99.5605 -56.2012 91.4551 -63.9648 79.4922 -63.9648 L 62.1094 -63.9648 C 58.6426 -63.9648 56.7871 -61.7188 56.7871 -58.1055 L 56.7871 -12.3047 C 56.7871 -8.78906 58.6426 -6.49414 62.0117 -6.49414 Z M 67.2852 -33.4961 L 67.2852 -56.0547 L 78.0762 -56.0547 C 85.0098 -56.0547 89.4043 -51.6602 89.4043 -44.7266 C 89.4043 -37.8418 85.0098 -33.4961 78.0762 -33.4961 Z"/>
  </g>
  <g id="Semibold-L" transform="matrix(1 0 0 1 1967 1556)">
   <path d="M 76.2695 29.7852 C 111.914 29.7852 141.26 0.439453 141.26 -35.2051 C 141.26 -70.8496 111.865 -100.244 76.2207 -100.244 C 40.5762 -100.244 11.2793 -70.8496 11.2793 -35.2051 C 11.2793 0.439453 40.625 29.7852 76.2695 29.7852 Z M 76.2695 17.0898 C 47.3145 17.0898 24.0234 -6.25 24.0234 -35.2051 C 24.0234 -64.209 47.2656 -87.5 76.2207 -87.5 C 105.225 -87.5 128.516 -64.209 128.564 -35.2051 C 128.613 -6.25 105.273 17.0898 76.2695 17.0898 Z M 62.5488 -6.44531 C 66.3574 -6.44531 68.5547 -8.98438 68.5547 -13.0371 L 68.5547 -24.7559 L 79.9316 -24.7559 C 92.1875 -24.7559 100.391 -32.5684 100.391 -44.2871 C 100.391 -56.0059 92.1875 -63.8672 80.0293 -63.8672 L 62.8418 -63.8672 C 58.7402 -63.8672 56.6406 -61.3281 56.6406 -57.1289 L 56.6406 -13.0371 C 56.6406 -9.0332 58.7402 -6.44531 62.5488 -6.44531 Z M 68.5547 -33.6426 L 68.5547 -54.9805 L 78.3691 -54.9805 C 84.9121 -54.9805 88.9648 -50.9277 88.9648 -44.2871 C 88.9648 -37.7441 84.9121 -33.6426 78.3691 -33.6426 Z"/>
  </g>
  <g id="Bold-L" transform="matrix(1 0 0 1 2262.9 1556)">
   <path d="M 77.0996 30.6152 C 113.184 30.6152 142.92 0.878906 142.92 -35.2051 C 142.92 -71.3379 113.135 -101.025 77.0508 -101.025 C 40.918 -101.025 11.2793 -71.3379 11.2793 -35.2051 C 11.2793 0.878906 40.9668 30.6152 77.0996 30.6152 Z M 77.0996 15.8691 C 48.7793 15.8691 26.0742 -6.93359 26.0742 -35.2051 C 26.0742 -63.4766 48.7793 -86.2793 77.0508 -86.2793 C 105.322 -86.2793 128.125 -63.4766 128.125 -35.2051 C 128.174 -6.93359 105.371 15.8691 77.0996 15.8691 Z M 63.2812 -6.44531 C 67.6758 -6.44531 70.2148 -9.32617 70.2148 -14.0625 L 70.2148 -23.7793 L 80.5664 -23.7793 C 93.1641 -23.7793 101.465 -31.6406 101.465 -43.7012 C 101.465 -55.7129 93.2129 -63.6719 80.7129 -63.6719 L 63.7695 -63.6719 C 58.9355 -63.6719 56.4453 -60.791 56.4453 -55.8594 L 56.4453 -14.0625 C 56.4453 -9.375 58.8867 -6.44531 63.2812 -6.44531 Z M 70.2148 -33.8867 L 70.2148 -53.5645 L 78.7598 -53.5645 C 84.8145 -53.5645 88.4277 -49.9023 88.4277 -43.7012 C 88.4277 -37.5488 84.8145 -33.8867 78.7598 -33.8867 Z"/>
  </g>
  <g id="Heavy-L" transform="matrix(1 0 0 1 2558.42 1556)">
   <path d="M 78.2715 31.7871 C 115.039 31.7871 145.264 1.61133 145.264 -35.2051 C 145.264 -72.0215 115.039 -102.197 78.2227 -102.197 C 41.4551 -102.197 11.2793 -72.0215 11.2793 -35.2051 C 11.2793 1.61133 41.4551 31.7871 78.2715 31.7871 Z M 78.2715 14.0137 C 50.9766 14.0137 29.0527 -7.95898 29.0527 -35.2051 C 29.0527 -62.5 50.9766 -84.4727 78.2227 -84.4727 C 105.518 -84.4727 127.49 -62.5 127.49 -35.2051 C 127.539 -7.95898 105.518 14.0137 78.2715 14.0137 Z M 64.3555 -6.44531 C 69.5801 -6.44531 72.6074 -9.86328 72.6074 -15.5273 L 72.6074 -22.3145 L 81.543 -22.3145 C 94.5801 -22.3145 103.027 -30.3711 103.027 -42.8711 C 103.027 -55.3223 94.6777 -63.4277 81.7383 -63.4277 L 65.1367 -63.4277 C 59.1797 -63.4277 56.1523 -60.0586 56.1523 -54.0527 L 56.1523 -15.5273 C 56.1523 -9.86328 59.1309 -6.44531 64.3555 -6.44531 Z M 72.6074 -34.2285 L 72.6074 -51.5137 L 79.3457 -51.5137 C 84.668 -51.5137 87.5977 -48.4375 87.5977 -42.8223 C 87.5977 -37.3047 84.6191 -34.2285 79.3457 -34.2285 Z"/>
  </g>
  <g id="Black-L" transform="matrix(1 0 0 1 2854.08 1556)">
   <path d="M 79.2969 32.8613 C 116.748 32.8613 147.363 2.19727 147.363 -35.2051 C 147.363 -72.6074 116.699 -103.271 79.2969 -103.271 C 41.8945 -103.271 11.2793 -72.6074 11.2793 -35.2051 C 11.2793 2.19727 41.8945 32.8613 79.2969 32.8613 Z M 79.2969 12.4023 C 52.9297 12.4023 31.7383 -8.83789 31.7383 -35.2051 C 31.7383 -61.5723 52.9297 -82.8125 79.2969 -82.8125 C 105.664 -82.8125 126.904 -61.5723 126.953 -35.2051 C 126.953 -8.83789 105.664 12.4023 79.2969 12.4023 Z M 65.332 -6.39648 C 71.2891 -6.39648 74.8047 -10.3516 74.8047 -16.8457 L 74.8047 -20.9961 L 82.373 -20.9961 C 95.8008 -20.9961 104.443 -29.1992 104.443 -42.1387 C 104.443 -54.9805 95.9961 -63.2324 82.6172 -63.2324 L 66.3574 -63.2324 C 59.4238 -63.2324 55.9082 -59.4238 55.9082 -52.4414 L 55.9082 -16.8457 C 55.9082 -10.3027 59.2773 -6.39648 65.332 -6.39648 Z M 74.8047 -34.5215 L 74.8047 -49.6582 L 79.834 -49.6582 C 84.5215 -49.6582 86.8652 -47.168 86.8652 -42.041 C 86.8652 -37.1094 84.4727 -34.5215 79.834 -34.5215 Z"/>
  </g>
 </g>
</svg>
