<?xml version="1.0" encoding="UTF-8"?>
<!--Generator: Apple Native CoreSVG 123-->
<!DOCTYPE svg
PUBLIC "-//W3C//DTD SVG 1.1//EN"
       "http://www.w3.org/Graphics/SVG/1.1/DTD/svg11.dtd">
<svg version="1.1" xmlns="http://www.w3.org/2000/svg" xmlns:xlink="http://www.w3.org/1999/xlink" width="3300" height="2200">
 <!--glyph: "uni100023.medium", point size: 100.000000, font version: "Version 15.0d4e20", template writer version: "2"-->
 <g id="Notes">
  <rect height="2200" id="artboard" style="fill:white;opacity:1" width="3300" x="0" y="0"/>
  <line id="" style="fill:none;stroke:black;opacity:1;stroke-width:0.5;" x1="263" x2="3036" y1="292" y2="292"/>
  <text style="stroke:none;fill:black;font-family:-apple-system,&quot;SF Pro Display&quot;,&quot;SF Pro Text&quot;,Helvetica,sans-serif;font-weight:bold;" transform="matrix(1 0 0 1 263 322)">Weight/Scale Variations</text>
  <text style="stroke:none;fill:black;font-family:-apple-system,&quot;SF Pro Display&quot;,&quot;SF Pro Text&quot;,Helvetica,sans-serif;text-anchor:middle;" transform="matrix(1 0 0 1 559.711 322)">Ultralight</text>
  <text style="stroke:none;fill:black;font-family:-apple-system,&quot;SF Pro Display&quot;,&quot;SF Pro Text&quot;,Helvetica,sans-serif;text-anchor:middle;" transform="matrix(1 0 0 1 856.422 322)">Thin</text>
  <text style="stroke:none;fill:black;font-family:-apple-system,&quot;SF Pro Display&quot;,&quot;SF Pro Text&quot;,Helvetica,sans-serif;text-anchor:middle;" transform="matrix(1 0 0 1 1153.13 322)">Light</text>
  <text style="stroke:none;fill:black;font-family:-apple-system,&quot;SF Pro Display&quot;,&quot;SF Pro Text&quot;,Helvetica,sans-serif;text-anchor:middle;" transform="matrix(1 0 0 1 1449.84 322)">Regular</text>
  <text style="stroke:none;fill:black;font-family:-apple-system,&quot;SF Pro Display&quot;,&quot;SF Pro Text&quot;,Helvetica,sans-serif;text-anchor:middle;" transform="matrix(1 0 0 1 1746.56 322)">Medium</text>
  <text style="stroke:none;fill:black;font-family:-apple-system,&quot;SF Pro Display&quot;,&quot;SF Pro Text&quot;,Helvetica,sans-serif;text-anchor:middle;" transform="matrix(1 0 0 1 2043.27 322)">Semibold</text>
  <text style="stroke:none;fill:black;font-family:-apple-system,&quot;SF Pro Display&quot;,&quot;SF Pro Text&quot;,Helvetica,sans-serif;text-anchor:middle;" transform="matrix(1 0 0 1 2339.98 322)">Bold</text>
  <text style="stroke:none;fill:black;font-family:-apple-system,&quot;SF Pro Display&quot;,&quot;SF Pro Text&quot;,Helvetica,sans-serif;text-anchor:middle;" transform="matrix(1 0 0 1 2636.69 322)">Heavy</text>
  <text style="stroke:none;fill:black;font-family:-apple-system,&quot;SF Pro Display&quot;,&quot;SF Pro Text&quot;,Helvetica,sans-serif;text-anchor:middle;" transform="matrix(1 0 0 1 2933.4 322)">Black</text>
  <line id="" style="fill:none;stroke:black;opacity:1;stroke-width:0.5;" x1="263" x2="3036" y1="1903" y2="1903"/>
  <g id="" transform="matrix(1 0 0 1 263 1933)">
   <path d="M 9.24805 0.830078 C 13.5547 0.830078 17.1387 -2.74414 17.1387 -7.05078 C 17.1387 -11.3574 13.5449 -14.9316 9.23828 -14.9316 C 4.94141 -14.9316 1.36719 -11.3574 1.36719 -7.05078 C 1.36719 -2.74414 4.95117 0.830078 9.24805 0.830078 Z M 9.24805 -0.654297 C 5.70312 -0.654297 2.87109 -3.49609 2.87109 -7.05078 C 2.87109 -10.6055 5.69336 -13.4473 9.23828 -13.4473 C 12.793 -13.4473 15.6348 -10.6055 15.6445 -7.05078 C 15.6543 -3.49609 12.8027 -0.654297 9.24805 -0.654297 Z M 9.22852 -3.42773 C 9.69727 -3.42773 9.9707 -3.74023 9.9707 -4.25781 L 9.9707 -6.31836 L 12.1973 -6.31836 C 12.6953 -6.31836 13.0371 -6.57227 13.0371 -7.04102 C 13.0371 -7.51953 12.7148 -7.7832 12.1973 -7.7832 L 9.9707 -7.7832 L 9.9707 -10.0098 C 9.9707 -10.5273 9.69727 -10.8496 9.22852 -10.8496 C 8.75977 -10.8496 8.50586 -10.5078 8.50586 -10.0098 L 8.50586 -7.7832 L 6.29883 -7.7832 C 5.78125 -7.7832 5.44922 -7.51953 5.44922 -7.04102 C 5.44922 -6.57227 5.80078 -6.31836 6.29883 -6.31836 L 8.50586 -6.31836 L 8.50586 -4.25781 C 8.50586 -3.75977 8.75977 -3.42773 9.22852 -3.42773 Z"/>
  </g>
  <g id="" transform="matrix(1 0 0 1 281.506 1933)">
   <path d="M 11.709 2.91016 C 17.1484 2.91016 21.6699 -1.60156 21.6699 -7.05078 C 21.6699 -12.4902 17.1387 -17.0117 11.6992 -17.0117 C 6.25 -17.0117 1.74805 -12.4902 1.74805 -7.05078 C 1.74805 -1.60156 6.25977 2.91016 11.709 2.91016 Z M 11.709 1.25 C 7.09961 1.25 3.41797 -2.44141 3.41797 -7.05078 C 3.41797 -11.6504 7.08984 -15.3516 11.6992 -15.3516 C 16.2988 -15.3516 20 -11.6504 20.0098 -7.05078 C 20.0195 -2.44141 16.3086 1.25 11.709 1.25 Z M 11.6797 -2.41211 C 12.207 -2.41211 12.5195 -2.77344 12.5195 -3.33984 L 12.5195 -6.23047 L 15.5762 -6.23047 C 16.123 -6.23047 16.5039 -6.51367 16.5039 -7.03125 C 16.5039 -7.55859 16.1426 -7.86133 15.5762 -7.86133 L 12.5195 -7.86133 L 12.5195 -10.9277 C 12.5195 -11.5039 12.207 -11.8555 11.6797 -11.8555 C 11.1621 -11.8555 10.8789 -11.4844 10.8789 -10.9277 L 10.8789 -7.86133 L 7.83203 -7.86133 C 7.25586 -7.86133 6.89453 -7.55859 6.89453 -7.03125 C 6.89453 -6.51367 7.28516 -6.23047 7.83203 -6.23047 L 10.8789 -6.23047 L 10.8789 -3.33984 C 10.8789 -2.79297 11.1621 -2.41211 11.6797 -2.41211 Z"/>
  </g>
  <g id="" transform="matrix(1 0 0 1 304.914 1933)">
   <path d="M 14.9707 5.67383 C 21.9336 5.67383 27.6855 -0.078125 27.6855 -7.04102 C 27.6855 -14.0039 21.9238 -19.7559 14.9609 -19.7559 C 7.99805 -19.7559 2.25586 -14.0039 2.25586 -7.04102 C 2.25586 -0.078125 8.00781 5.67383 14.9707 5.67383 Z M 14.9707 3.85742 C 8.92578 3.85742 4.08203 -1.00586 4.08203 -7.04102 C 4.08203 -13.0762 8.91602 -17.9395 14.9609 -17.9395 C 20.9961 -17.9395 25.8594 -13.0762 25.8691 -7.04102 C 25.8789 -1.00586 21.0059 3.85742 14.9707 3.85742 Z M 14.9414 -1.06445 C 15.5176 -1.06445 15.8594 -1.45508 15.8594 -2.06055 L 15.8594 -6.13281 L 20.0977 -6.13281 C 20.6934 -6.13281 21.1133 -6.46484 21.1133 -7.02148 C 21.1133 -7.59766 20.7227 -7.93945 20.0977 -7.93945 L 15.8594 -7.93945 L 15.8594 -12.1875 C 15.8594 -12.8027 15.5176 -13.1934 14.9414 -13.1934 C 14.3848 -13.1934 14.0625 -12.7832 14.0625 -12.1875 L 14.0625 -7.93945 L 9.82422 -7.93945 C 9.20898 -7.93945 8.80859 -7.59766 8.80859 -7.02148 C 8.80859 -6.46484 9.23828 -6.13281 9.82422 -6.13281 L 14.0625 -6.13281 L 14.0625 -2.06055 C 14.0625 -1.47461 14.3848 -1.06445 14.9414 -1.06445 Z"/>
  </g>
  <text style="stroke:none;fill:black;font-family:-apple-system,&quot;SF Pro Display&quot;,&quot;SF Pro Text&quot;,Helvetica,sans-serif;font-weight:bold;" transform="matrix(1 0 0 1 263 1953)">Design Variations</text>
  <text style="stroke:none;fill:black;font-family:-apple-system,&quot;SF Pro Display&quot;,&quot;SF Pro Text&quot;,Helvetica,sans-serif;" transform="matrix(1 0 0 1 263 1971)">Symbols are supported in up to nine weights and three scales.</text>
  <text style="stroke:none;fill:black;font-family:-apple-system,&quot;SF Pro Display&quot;,&quot;SF Pro Text&quot;,Helvetica,sans-serif;" transform="matrix(1 0 0 1 263 1989)">For optimal layout with text and other symbols, vertically align</text>
  <text style="stroke:none;fill:black;font-family:-apple-system,&quot;SF Pro Display&quot;,&quot;SF Pro Text&quot;,Helvetica,sans-serif;" transform="matrix(1 0 0 1 263 2007)">symbols with the adjacent text.</text>
  <rect height="14" id="" style="fill:#00AEEF;stroke:none;opacity:0.4;" width="3" x="776" y="1919"/>
  <g id="" transform="matrix(1 0 0 1 779 1933)">
   <path d="M 10.5273 0 L 12.373 0 L 7.17773 -14.0918 L 5.43945 -14.0918 L 0.244141 0 L 2.08984 0 L 3.50586 -4.0332 L 9.11133 -4.0332 Z M 6.2793 -11.9531 L 6.33789 -11.9531 L 8.59375 -5.52734 L 4.02344 -5.52734 Z"/>
  </g>
  <rect height="14" id="" style="fill:#00AEEF;stroke:none;opacity:0.4;" width="3" x="791.617" y="1919"/>
  <text style="stroke:none;fill:black;font-family:-apple-system,&quot;SF Pro Display&quot;,&quot;SF Pro Text&quot;,Helvetica,sans-serif;font-weight:bold;" transform="matrix(1 0 0 1 776 1953)">Side Bearings</text>
  <text style="stroke:none;fill:black;font-family:-apple-system,&quot;SF Pro Display&quot;,&quot;SF Pro Text&quot;,Helvetica,sans-serif;" transform="matrix(1 0 0 1 776 1971)">Horizontal padding on the left and right side of each symbol</text>
  <text style="stroke:none;fill:black;font-family:-apple-system,&quot;SF Pro Display&quot;,&quot;SF Pro Text&quot;,Helvetica,sans-serif;" transform="matrix(1 0 0 1 776 1989)">can be adjusted by modifying the width of the blue rectangles.</text>
  <text style="stroke:none;fill:black;font-family:-apple-system,&quot;SF Pro Display&quot;,&quot;SF Pro Text&quot;,Helvetica,sans-serif;" transform="matrix(1 0 0 1 776 2007)">Modifications are automatically applied proportionally to all</text>
  <text style="stroke:none;fill:black;font-family:-apple-system,&quot;SF Pro Display&quot;,&quot;SF Pro Text&quot;,Helvetica,sans-serif;" transform="matrix(1 0 0 1 776 2025)">scales and weights.</text>
  <g id="" transform="matrix(1 0 0 1 1289 1933)">
   <path d="M 2.96875 2.35352 L 3.80859 3.19336 C 4.84375 4.22852 6.12305 4.15039 7.19727 2.97852 L 16.1621 -6.82617 C 16.5527 -6.74805 16.9629 -6.8457 17.4902 -7.02148 C 18.1738 -7.25586 18.2715 -7.25586 18.3887 -7.13867 C 18.5352 -7.01172 18.4863 -6.89453 18.2422 -6.25 C 17.8809 -5.33203 17.8125 -4.79492 18.5547 -4.02344 L 19.4238 -3.13477 C 20.2734 -2.24609 21.3281 -2.26562 22.2168 -3.14453 L 25.0586 -5.97656 C 25.9473 -6.86523 25.957 -7.92969 25.0781 -8.7793 L 24.1797 -9.64844 C 23.4082 -10.4004 22.8711 -10.3516 21.9629 -9.98047 C 21.3184 -9.72656 21.2012 -9.6875 21.0645 -9.81445 C 20.9375 -9.93164 20.9473 -10.0391 21.1816 -10.7129 C 21.5332 -11.6895 21.5723 -12.2852 20.752 -13.0957 L 19.3359 -14.5117 C 15.1953 -18.6133 11.2305 -18.7402 7.65625 -15.4395 C 7.08008 -14.9023 6.99219 -14.1504 7.53906 -13.6133 L 7.79297 -13.3594 C 8.22266 -12.9297 8.86719 -12.8418 9.41406 -13.1152 C 11.0645 -13.9453 12.2559 -14.0234 13.457 -12.9785 L 13.0273 -11.416 C 12.8516 -10.8008 12.793 -10.3418 12.9199 -9.93164 L 3.18359 -1.04492 C 2.02148 0.0292969 1.93359 1.32812 2.96875 2.35352 Z M 8.96484 -14.4922 C 8.89648 -14.5703 8.86719 -14.6582 8.99414 -14.7559 C 11.709 -17.2852 15.0391 -16.8457 18.3496 -13.5254 L 19.6973 -12.168 C 20.0879 -11.7773 20.0977 -11.582 19.8828 -10.8691 C 19.6582 -10.127 19.502 -9.53125 20.1465 -8.88672 C 20.8105 -8.22266 21.2891 -8.41797 22.207 -8.63281 C 22.9004 -8.79883 23.0664 -8.79883 23.4473 -8.41797 L 24.0918 -7.77344 C 24.4043 -7.48047 24.4141 -7.32422 24.0723 -6.97266 L 21.2207 -4.13086 C 20.8887 -3.79883 20.7227 -3.79883 20.4297 -4.10156 L 19.7852 -4.75586 C 19.4141 -5.13672 19.4141 -5.30273 19.5801 -6.01562 C 19.7852 -6.88477 19.9805 -7.38281 19.3262 -8.04688 C 18.6719 -8.7207 18.0762 -8.57422 17.3438 -8.33008 C 16.5625 -8.06641 16.3281 -8.06641 15.8984 -8.49609 L 14.6094 -9.78516 C 14.1699 -10.2246 14.1309 -10.4395 14.2676 -10.9082 L 15.0293 -13.3984 C 13.3887 -15.2832 11.4941 -15.5566 9.20898 -14.4434 C 9.11133 -14.3945 9.04297 -14.4141 8.96484 -14.4922 Z M 3.96484 1.36719 C 3.52539 0.927734 3.54492 0.537109 4.14062 -0.00976562 L 13.7402 -8.81836 L 15 -7.55859 L 6.17188 2.02148 C 5.625 2.60742 5.24414 2.64648 4.79492 2.19727 Z"/>
  </g>
  <text style="stroke:none;fill:black;font-family:-apple-system,&quot;SF Pro Display&quot;,&quot;SF Pro Text&quot;,Helvetica,sans-serif;font-weight:bold;" transform="matrix(1 0 0 1 1289 1953)">Exporting</text>
  <text style="stroke:none;fill:black;font-family:-apple-system,&quot;SF Pro Display&quot;,&quot;SF Pro Text&quot;,Helvetica,sans-serif;" transform="matrix(1 0 0 1 1289 1971)">Symbols should be outlined when exporting to ensure the</text>
  <text style="stroke:none;fill:black;font-family:-apple-system,&quot;SF Pro Display&quot;,&quot;SF Pro Text&quot;,Helvetica,sans-serif;" transform="matrix(1 0 0 1 1289 1989)">design is preserved when submitting to Xcode.</text>
  <text id="template-version" style="stroke:none;fill:black;font-family:-apple-system,&quot;SF Pro Display&quot;,&quot;SF Pro Text&quot;,Helvetica,sans-serif;text-anchor:end;" transform="matrix(1 0 0 1 3036 1933)">Template v.0.1</text>
  <text style="stroke:none;fill:black;font-family:-apple-system,&quot;SF Pro Display&quot;,&quot;SF Pro Text&quot;,Helvetica,sans-serif;text-anchor:end;" transform="matrix(1 0 0 1 3036 1951)">Generated from p.circle.fill</text>
  <text style="stroke:none;fill:black;font-family:-apple-system,&quot;SF Pro Display&quot;,&quot;SF Pro Text&quot;,Helvetica,sans-serif;text-anchor:end;" transform="matrix(1 0 0 1 3036 1969)">Typeset at 100 points</text>
  <text style="stroke:none;fill:black;font-family:-apple-system,&quot;SF Pro Display&quot;,&quot;SF Pro Text&quot;,Helvetica,sans-serif;" transform="matrix(1 0 0 1 263 726)">Small</text>
  <text style="stroke:none;fill:black;font-family:-apple-system,&quot;SF Pro Display&quot;,&quot;SF Pro Text&quot;,Helvetica,sans-serif;" transform="matrix(1 0 0 1 263 1156)">Medium</text>
  <text style="stroke:none;fill:black;font-family:-apple-system,&quot;SF Pro Display&quot;,&quot;SF Pro Text&quot;,Helvetica,sans-serif;" transform="matrix(1 0 0 1 263 1586)">Large</text>
 </g>
 <g id="Guides">
  <g id="H-reference" style="fill:#27AAE1;stroke:none;" transform="matrix(1 0 0 1 339 696)">
   <path d="M 54.9316 0 L 57.666 0 L 30.5664 -70.459 L 28.0762 -70.459 L 0.976562 0 L 3.66211 0 L 12.9395 -24.4629 L 45.7031 -24.4629 Z M 29.1992 -67.0898 L 29.4434 -67.0898 L 44.8242 -26.709 L 13.8184 -26.709 Z"/>
  </g>
  <line id="Baseline-S" style="fill:none;stroke:#27AAE1;opacity:1;stroke-width:0.577;" x1="263" x2="3036" y1="696" y2="696"/>
  <line id="Capline-S" style="fill:none;stroke:#27AAE1;opacity:1;stroke-width:0.577;" x1="263" x2="3036" y1="625.541" y2="625.541"/>
  <g id="H-reference" style="fill:#27AAE1;stroke:none;" transform="matrix(1 0 0 1 339 1126)">
   <path d="M 54.9316 0 L 57.666 0 L 30.5664 -70.459 L 28.0762 -70.459 L 0.976562 0 L 3.66211 0 L 12.9395 -24.4629 L 45.7031 -24.4629 Z M 29.1992 -67.0898 L 29.4434 -67.0898 L 44.8242 -26.709 L 13.8184 -26.709 Z"/>
  </g>
  <line id="Baseline-M" style="fill:none;stroke:#27AAE1;opacity:1;stroke-width:0.577;" x1="263" x2="3036" y1="1126" y2="1126"/>
  <line id="Capline-M" style="fill:none;stroke:#27AAE1;opacity:1;stroke-width:0.577;" x1="263" x2="3036" y1="1055.54" y2="1055.54"/>
  <g id="H-reference" style="fill:#27AAE1;stroke:none;" transform="matrix(1 0 0 1 339 1556)">
   <path d="M 54.9316 0 L 57.666 0 L 30.5664 -70.459 L 28.0762 -70.459 L 0.976562 0 L 3.66211 0 L 12.9395 -24.4629 L 45.7031 -24.4629 Z M 29.1992 -67.0898 L 29.4434 -67.0898 L 44.8242 -26.709 L 13.8184 -26.709 Z"/>
  </g>
  <line id="Baseline-L" style="fill:none;stroke:#27AAE1;opacity:1;stroke-width:0.577;" x1="263" x2="3036" y1="1556" y2="1556"/>
  <line id="Capline-L" style="fill:none;stroke:#27AAE1;opacity:1;stroke-width:0.577;" x1="263" x2="3036" y1="1485.54" y2="1485.54"/>
  <rect height="119.336" id="left-margin" style="fill:#00AEEF;stroke:none;opacity:0.4;" width="8.74023" x="1391.32" y="1030.79"/>
  <rect height="119.336" id="right-margin" style="fill:#00AEEF;stroke:none;opacity:0.4;" width="8.69141" x="1499.67" y="1030.79"/>
 </g>
 <g id="Symbols">
  <g id="Ultralight-S" transform="matrix(1 0 0 1 515.644 696)">
   <path d="M 44.043 2.05078 C 64.502 2.05078 81.2988 -14.6973 81.2988 -35.1562 C 81.2988 -55.6152 64.502 -72.3633 44.043 -72.3633 C 23.584 -72.3633 6.83594 -55.6152 6.83594 -35.1562 C 6.83594 -14.6973 23.584 2.05078 44.043 2.05078 Z M 35.3027 -17.2363 C 34.6191 -17.2363 34.1309 -17.7734 34.1309 -18.5059 L 34.1309 -51.6602 C 34.1309 -52.4414 34.5215 -52.9297 35.2051 -52.9297 L 46.4355 -52.9297 C 52.6855 -52.9297 57.2754 -48.3887 57.2754 -42.1387 C 57.2754 -35.8887 52.7344 -31.2988 46.4355 -31.2988 L 36.5234 -31.2988 L 36.5234 -18.5059 C 36.5234 -17.7734 36.084 -17.2363 35.3027 -17.2363 Z M 36.5234 -33.5449 L 46.4844 -33.5449 C 51.3184 -33.5449 54.8828 -37.207 54.8828 -42.1387 C 54.8828 -47.1191 51.3672 -50.7324 46.4844 -50.7324 L 36.5234 -50.7324 Z"/>
  </g>
  <g id="Thin-S" transform="matrix(1 0 0 1 811.867 696)">
   <path d="M 44.5801 2.53906 C 65.2832 2.53906 82.2754 -14.4531 82.2754 -35.2051 C 82.2754 -55.9082 65.2344 -72.9004 44.5312 -72.9004 C 23.8281 -72.9004 6.83594 -55.9082 6.83594 -35.2051 C 6.83594 -14.4531 23.877 2.53906 44.5801 2.53906 Z M 35.791 -17.1387 C 34.7168 -17.1387 34.0332 -17.9199 34.0332 -19.043 L 34.0332 -51.2695 C 34.0332 -52.4414 34.6191 -53.2227 35.7422 -53.2227 L 46.9727 -53.2227 C 53.6133 -53.2227 58.3984 -48.5352 58.3984 -41.9922 C 58.3984 -35.4004 53.6621 -30.7129 46.9727 -30.7129 L 37.5488 -30.7129 L 37.5488 -19.043 C 37.5488 -17.8711 36.9629 -17.1387 35.791 -17.1387 Z M 37.5488 -33.6914 L 46.7285 -33.6914 C 51.5137 -33.6914 54.9316 -37.1094 54.9316 -41.9922 C 54.9316 -46.8262 51.5625 -50.2441 46.7285 -50.2441 L 37.5488 -50.2441 Z"/>
  </g>
  <g id="Light-S" transform="matrix(1 0 0 1 1107.6 696)">
   <path d="M 45.5078 3.4668 C 66.6992 3.4668 84.2285 -14.0625 84.2285 -35.2051 C 84.2285 -56.3965 66.6504 -73.9258 45.5078 -73.9258 C 24.3164 -73.9258 6.83594 -56.3965 6.83594 -35.2051 C 6.83594 -14.0625 24.3652 3.4668 45.5078 3.4668 Z M 36.7676 -16.9434 C 34.9121 -16.9434 33.9355 -18.2129 33.9355 -20.1172 L 33.9355 -50.5371 C 33.9355 -52.4902 34.8633 -53.7109 36.7188 -53.7109 L 47.9492 -53.7109 C 55.4199 -53.7109 60.5469 -48.8281 60.5469 -41.6992 C 60.5469 -34.4727 55.4688 -29.5898 47.9004 -29.5898 L 39.5996 -29.5898 L 39.5996 -20.1172 C 39.5996 -18.1152 38.623 -16.9434 36.7676 -16.9434 Z M 39.5996 -34.0332 L 47.168 -34.0332 C 51.9531 -34.0332 54.9805 -37.0117 54.9805 -41.6992 C 54.9805 -46.3379 51.9043 -49.3652 47.168 -49.3652 L 39.5996 -49.3652 Z"/>
  </g>
  <g id="Regular-S" transform="matrix(1 0 0 1 1403.58 696)">
   <path d="M 46.2402 4.15039 C 67.7734 4.15039 85.6934 -13.7207 85.6934 -35.2539 C 85.6934 -56.7871 67.7246 -74.6582 46.1914 -74.6582 C 24.707 -74.6582 6.83594 -56.7871 6.83594 -35.2539 C 6.83594 -13.7207 24.7559 4.15039 46.2402 4.15039 Z M 37.4512 -16.7969 C 35.0586 -16.7969 33.8379 -18.4082 33.8379 -20.8984 L 33.8379 -50 C 33.8379 -52.4902 35.0586 -54.1504 37.4512 -54.1504 L 48.6816 -54.1504 C 56.7871 -54.1504 62.207 -49.0234 62.207 -41.4551 C 62.207 -33.7891 56.8359 -28.7598 48.6328 -28.7598 L 41.1133 -28.7598 L 41.1133 -20.8984 C 41.1133 -18.3105 39.8438 -16.7969 37.4512 -16.7969 Z M 41.1133 -34.2773 L 47.5098 -34.2773 C 52.2461 -34.2773 55.0293 -36.9141 55.0293 -41.4551 C 55.0293 -45.9473 52.1973 -48.6328 47.5098 -48.6328 L 41.1133 -48.6328 Z"/>
  </g>
  <g id="Medium-S" transform="matrix(1 0 0 1 1699.7 696)">
   <path d="M 46.8262 4.78516 C 68.75 4.78516 86.8652 -13.3301 86.8652 -35.2539 C 86.8652 -57.1289 68.7012 -75.2441 46.8262 -75.2441 C 24.9023 -75.2441 6.83594 -57.1289 6.83594 -35.2539 C 6.83594 -13.3301 24.9512 4.78516 46.8262 4.78516 Z M 38.2324 -16.7969 C 35.4004 -16.7969 33.8867 -18.7012 33.8867 -21.7285 L 33.8867 -48.8281 C 33.8867 -51.9043 35.4004 -53.7598 38.4277 -53.7598 L 49.4141 -53.7598 C 57.6172 -53.7598 63.0371 -48.6328 63.0371 -40.8691 C 63.0371 -33.0566 57.6172 -27.9785 49.3164 -27.9785 L 42.627 -27.9785 L 42.627 -21.7285 C 42.627 -18.6523 41.0645 -16.7969 38.2324 -16.7969 Z M 42.627 -34.4238 L 48.0469 -34.4238 C 52.1973 -34.4238 54.5898 -36.7676 54.5898 -40.8691 C 54.5898 -44.9707 52.1973 -47.3633 48.0469 -47.3633 L 42.627 -47.3633 Z"/>
  </g>
  <g id="Semibold-S" transform="matrix(1 0 0 1 1995.98 696)">
   <path d="M 47.3145 5.22461 C 69.4824 5.22461 87.7441 -13.0371 87.7441 -35.2539 C 87.7441 -57.4219 69.4336 -75.6836 47.2656 -75.6836 C 25.0977 -75.6836 6.83594 -57.4219 6.83594 -35.2539 C 6.83594 -13.0371 25.0977 5.22461 47.3145 5.22461 Z M 38.8184 -16.8457 C 35.6445 -16.8457 33.8867 -18.9453 33.8867 -22.3145 L 33.8867 -47.9004 C 33.8867 -51.4648 35.6934 -53.5156 39.209 -53.5156 L 49.9512 -53.5156 C 58.252 -53.5156 63.6719 -48.3398 63.6719 -40.4297 C 63.6719 -32.4707 58.2031 -27.3438 49.8535 -27.3438 L 43.7988 -27.3438 L 43.7988 -22.3145 C 43.7988 -18.8965 41.9922 -16.8457 38.8184 -16.8457 Z M 43.7988 -34.5703 L 48.4375 -34.5703 C 52.1973 -34.5703 54.248 -36.6699 54.248 -40.4297 C 54.248 -44.2383 52.1973 -46.3379 48.4375 -46.3379 L 43.7988 -46.3379 Z"/>
  </g>
  <g id="Bold-S" transform="matrix(1 0 0 1 2292.1 696)">
   <path d="M 47.9004 5.81055 C 70.4102 5.81055 88.916 -12.6465 88.916 -35.2051 C 88.916 -57.7637 70.4102 -76.2695 47.8516 -76.2695 C 25.293 -76.2695 6.83594 -57.7637 6.83594 -35.2051 C 6.83594 -12.6465 25.3418 5.81055 47.9004 5.81055 Z M 39.5996 -16.8945 C 35.9863 -16.8945 33.8867 -19.2383 33.8867 -23.1445 L 33.8867 -46.7285 C 33.8867 -50.8789 36.0352 -53.1738 40.1855 -53.1738 L 50.6836 -53.1738 C 59.082 -53.1738 64.4531 -47.9492 64.4531 -39.8438 C 64.4531 -31.7383 58.9844 -26.5137 50.5371 -26.5137 L 45.3125 -26.5137 L 45.3125 -23.1445 C 45.3125 -19.2383 43.2129 -16.8945 39.5996 -16.8945 Z M 45.3125 -34.7168 L 48.9746 -34.7168 C 52.1484 -34.7168 53.8574 -36.4746 53.8574 -39.8438 C 53.8574 -43.2617 52.1484 -45.0195 48.9746 -45.0195 L 45.3125 -45.0195 Z"/>
  </g>
  <g id="Heavy-S" transform="matrix(1 0 0 1 2587.96 696)">
   <path d="M 48.7305 6.68945 C 71.8262 6.68945 90.625 -12.1094 90.625 -35.2051 C 90.625 -58.3008 71.8262 -77.0996 48.7305 -77.0996 C 25.6348 -77.0996 6.83594 -58.3008 6.83594 -35.2051 C 6.83594 -12.1094 25.6348 6.68945 48.7305 6.68945 Z M 40.7227 -16.9434 C 36.4258 -16.9434 33.9355 -19.6289 33.9355 -24.3652 L 33.9355 -44.9707 C 33.9355 -50.0488 36.5234 -52.6367 41.6016 -52.6367 L 51.709 -52.6367 C 60.2539 -52.6367 65.6738 -47.4121 65.6738 -39.0137 C 65.6738 -30.6641 60.1074 -25.3418 51.5137 -25.3418 L 47.5098 -25.3418 L 47.5098 -24.3652 C 47.5098 -19.6777 44.9219 -16.9434 40.7227 -16.9434 Z M 47.5098 -34.9121 L 49.7559 -34.9121 C 52.0996 -34.9121 53.2227 -36.2305 53.2227 -38.9648 C 53.2227 -41.7969 52.1484 -43.0664 49.7559 -43.0664 L 47.5098 -43.0664 Z"/>
  </g>
  <g id="Black-S" transform="matrix(1 0 0 1 2883.89 696)">
   <path d="M 49.5117 7.4707 C 73.0957 7.4707 92.1875 -11.6211 92.1875 -35.2051 C 92.1875 -58.7891 73.0957 -77.8809 49.5117 -77.8809 C 25.9277 -77.8809 6.83594 -58.7891 6.83594 -35.2051 C 6.83594 -11.6211 25.9277 7.4707 49.5117 7.4707 Z M 41.6992 -16.9922 C 36.8652 -16.9922 33.9844 -20.0195 33.9844 -25.3906 L 33.9844 -43.4082 C 33.9844 -49.3164 36.9629 -52.1973 42.9199 -52.1973 L 52.6367 -52.1973 C 61.3281 -52.1973 66.748 -46.875 66.748 -38.2812 C 66.748 -29.7363 61.1328 -24.3164 52.3926 -24.3164 L 49.4629 -24.3164 L 49.4629 -25.3906 C 49.4629 -20.1172 46.5332 -16.9922 41.6992 -16.9922 Z M 49.4629 -35.1562 L 50.4395 -35.1562 C 52.0508 -35.1562 52.6367 -36.0352 52.6367 -38.2324 C 52.6367 -40.5273 52.0996 -41.3574 50.4395 -41.3574 L 49.4629 -41.3574 Z"/>
  </g>
  <g id="Ultralight-M" transform="matrix(1 0 0 1 503.656 1126)">
   <path d="M 56.0547 12.207 C 82.0801 12.207 103.369 -9.08203 103.369 -35.1562 C 103.369 -61.1816 82.0801 -82.4707 56.0547 -82.4707 C 30.0293 -82.4707 8.74023 -61.1816 8.74023 -35.1562 C 8.74023 -9.08203 30.0293 12.207 56.0547 12.207 Z M 44.873 -12.3535 C 44.0918 -12.3535 43.5547 -12.8906 43.5547 -13.623 L 43.5547 -56.3477 C 43.5547 -57.1777 43.9941 -57.7148 44.7754 -57.7148 L 59.082 -57.7148 C 66.8945 -57.7148 72.7051 -51.9531 72.7051 -44.1406 C 72.7051 -36.2305 66.9922 -30.4688 59.082 -30.4688 L 46.1914 -30.4688 L 46.1914 -13.623 C 46.1914 -12.8906 45.752 -12.3535 44.873 -12.3535 Z M 46.1914 -33.0078 L 59.2285 -33.0078 C 65.4297 -33.0078 70.0684 -37.7441 70.0684 -44.1406 C 70.0684 -50.4883 65.4785 -55.1758 59.2285 -55.1758 L 46.1914 -55.1758 Z"/>
  </g>
  <g id="Thin-M" transform="matrix(1 0 0 1 799.806 1126)">
   <path d="M 56.5918 12.7441 C 82.9102 12.7441 104.492 -8.83789 104.492 -35.1562 C 104.492 -61.4746 82.9102 -83.0566 56.5918 -83.0566 C 30.3223 -83.0566 8.74023 -61.4746 8.74023 -35.1562 C 8.74023 -8.83789 30.3223 12.7441 56.5918 12.7441 Z M 45.459 -12.207 C 44.2383 -12.207 43.5059 -13.0371 43.5059 -14.2578 L 43.5059 -55.957 C 43.5059 -57.2266 44.1406 -58.0566 45.3613 -58.0566 L 59.668 -58.0566 C 67.9688 -58.0566 73.9258 -52.0996 73.9258 -43.9453 C 73.9258 -35.6934 68.0176 -29.7852 59.668 -29.7852 L 47.4121 -29.7852 L 47.4121 -14.2578 C 47.4121 -13.0371 46.6797 -12.207 45.459 -12.207 Z M 47.4121 -33.2031 L 59.5215 -33.2031 C 65.6738 -33.2031 70.0684 -37.6953 70.0684 -43.9453 C 70.0684 -50.1953 65.7227 -54.6387 59.5215 -54.6387 L 47.4121 -54.6387 Z"/>
  </g>
  <g id="Light-M" transform="matrix(1 0 0 1 1095.42 1126)">
   <path d="M 57.7148 13.7695 C 84.5215 13.7695 106.689 -8.39844 106.689 -35.2051 C 106.689 -62.0117 84.4727 -84.1797 57.666 -84.1797 C 30.8594 -84.1797 8.74023 -62.0117 8.74023 -35.2051 C 8.74023 -8.39844 30.8594 13.7695 57.7148 13.7695 Z M 46.5332 -11.9629 C 44.4824 -11.9629 43.3594 -13.3789 43.3594 -15.4785 L 43.3594 -55.0781 C 43.3594 -57.2266 44.4336 -58.6426 46.4355 -58.6426 L 60.791 -58.6426 C 70.0195 -58.6426 76.416 -52.4414 76.416 -43.6035 C 76.416 -34.668 70.0684 -28.5156 60.7422 -28.5156 L 49.707 -28.5156 L 49.707 -15.4785 C 49.707 -13.2812 48.584 -11.9629 46.5332 -11.9629 Z M 49.707 -33.5449 L 60.0098 -33.5449 C 66.1133 -33.5449 70.166 -37.5488 70.166 -43.6035 C 70.166 -49.6094 66.1133 -53.6133 60.0098 -53.6133 L 49.707 -53.6133 Z"/>
  </g>
  <g id="Regular-M" transform="matrix(1 0 0 1 1391.32 1126)">
   <path d="M 58.5449 14.5508 C 85.7422 14.5508 108.35 -8.00781 108.35 -35.2539 C 108.35 -62.4512 85.6934 -85.0586 58.4961 -85.0586 C 31.25 -85.0586 8.74023 -62.4512 8.74023 -35.2539 C 8.74023 -8.00781 31.2988 14.5508 58.5449 14.5508 Z M 47.3145 -11.7676 C 44.6777 -11.7676 43.2617 -13.623 43.2617 -16.3574 L 43.2617 -54.4922 C 43.2617 -57.2266 44.6289 -59.082 47.3145 -59.082 L 61.6211 -59.082 C 71.5332 -59.082 78.2715 -52.6855 78.2715 -43.3105 C 78.2715 -33.8379 71.582 -27.5879 61.5723 -27.5879 L 51.416 -27.5879 L 51.416 -16.3574 C 51.416 -13.5254 50 -11.7676 47.3145 -11.7676 Z M 51.416 -33.8379 L 60.4004 -33.8379 C 66.4551 -33.8379 70.2148 -37.4512 70.2148 -43.3105 C 70.2148 -49.2188 66.4062 -52.832 60.4004 -52.832 L 51.416 -52.832 Z"/>
  </g>
  <g id="Medium-M" transform="matrix(1 0 0 1 1687.33 1126)">
   <path d="M 59.2285 15.2832 C 86.8652 15.2832 109.717 -7.56836 109.717 -35.2051 C 109.717 -62.8906 86.8164 -85.7422 59.1797 -85.7422 C 31.543 -85.7422 8.74023 -62.8906 8.74023 -35.2051 C 8.74023 -7.56836 31.5918 15.2832 59.2285 15.2832 Z M 48.1934 -11.8164 C 45.0195 -11.8164 43.2617 -13.9648 43.2617 -17.334 L 43.2617 -53.1738 C 43.2617 -56.6406 45.0195 -58.7891 48.3887 -58.7891 L 62.4512 -58.7891 C 72.5586 -58.7891 79.2969 -52.3438 79.2969 -42.7246 C 79.2969 -33.0078 72.5586 -26.6113 62.3535 -26.6113 L 53.1738 -26.6113 L 53.1738 -17.334 C 53.1738 -13.8672 51.416 -11.8164 48.1934 -11.8164 Z M 53.1738 -34.0332 L 60.9863 -34.0332 C 66.4551 -34.0332 69.7754 -37.3047 69.7754 -42.7246 C 69.7754 -48.1445 66.4551 -51.416 60.9863 -51.416 L 53.1738 -51.416 Z"/>
  </g>
  <g id="Semibold-M" transform="matrix(1 0 0 1 1983.5 1126)">
   <path d="M 59.7656 15.8203 C 87.7441 15.8203 110.791 -7.22656 110.791 -35.2051 C 110.791 -63.1836 87.6953 -86.2793 59.7168 -86.2793 C 31.7383 -86.2793 8.74023 -63.1836 8.74023 -35.2051 C 8.74023 -7.22656 31.7871 15.8203 59.7656 15.8203 Z M 48.877 -11.8164 C 45.2637 -11.8164 43.3105 -14.209 43.3105 -18.0176 L 43.3105 -52.1973 C 43.3105 -56.2012 45.3125 -58.5449 49.2676 -58.5449 L 63.0859 -58.5449 C 73.3398 -58.5449 80.127 -52.0508 80.127 -42.2363 C 80.127 -32.373 73.3398 -25.9277 62.9883 -25.9277 L 54.4922 -25.9277 L 54.4922 -18.0176 C 54.4922 -14.1602 52.4902 -11.8164 48.877 -11.8164 Z M 54.4922 -34.1797 L 61.4258 -34.1797 C 66.4551 -34.1797 69.4336 -37.1582 69.4336 -42.2363 C 69.4336 -47.3633 66.4551 -50.293 61.4258 -50.293 L 54.4922 -50.293 Z"/>
  </g>
  <g id="Bold-M" transform="matrix(1 0 0 1 2279.5 1126)">
   <path d="M 60.4492 16.5039 C 88.8672 16.5039 112.207 -6.78711 112.207 -35.2051 C 112.207 -63.623 88.8672 -86.9629 60.4492 -86.9629 C 32.0312 -86.9629 8.74023 -63.623 8.74023 -35.2051 C 8.74023 -6.78711 32.0801 16.5039 60.4492 16.5039 Z M 49.7559 -11.8652 C 45.6543 -11.8652 43.3105 -14.502 43.3105 -18.9941 L 43.3105 -50.8789 C 43.3105 -55.6152 45.7031 -58.252 50.3418 -58.252 L 63.916 -58.252 C 74.3652 -58.252 81.2012 -51.6602 81.2012 -41.6016 C 81.2012 -31.4941 74.3164 -24.9512 63.7695 -24.9512 L 56.25 -24.9512 L 56.25 -18.9941 C 56.25 -14.502 53.8574 -11.8652 49.7559 -11.8652 Z M 56.25 -34.375 L 62.0117 -34.375 C 66.5039 -34.375 68.9941 -36.9629 68.9941 -41.6016 C 68.9941 -46.2891 66.5039 -48.877 62.0117 -48.877 L 56.25 -48.877 Z"/>
  </g>
  <g id="Heavy-M" transform="matrix(1 0 0 1 2575.19 1126)">
   <path d="M 61.4746 17.5781 C 90.5273 17.5781 114.258 -6.15234 114.258 -35.2051 C 114.258 -64.2578 90.5273 -87.9883 61.4746 -87.9883 C 32.4219 -87.9883 8.74023 -64.2578 8.74023 -35.2051 C 8.74023 -6.15234 32.4707 17.5781 61.4746 17.5781 Z M 51.0742 -11.8652 C 46.1426 -11.8652 43.3105 -14.9902 43.3105 -20.3613 L 43.3105 -49.0234 C 43.3105 -54.7852 46.2402 -57.8125 51.9531 -57.8125 L 65.1367 -57.8125 C 75.8789 -57.8125 82.7148 -51.123 82.7148 -40.7227 C 82.7148 -30.2734 75.7324 -23.584 64.9414 -23.584 L 58.7891 -23.584 L 58.7891 -20.3613 C 58.7891 -15.0391 55.9082 -11.8652 51.0742 -11.8652 Z M 58.7891 -34.668 L 62.8906 -34.668 C 66.5039 -34.668 68.3594 -36.7188 68.3594 -40.6738 C 68.3594 -44.7266 66.5527 -46.7773 62.8906 -46.7773 L 58.7891 -46.7773 Z"/>
  </g>
  <g id="Black-M" transform="matrix(1 0 0 1 2871 1126)">
   <path d="M 62.4023 18.457 C 91.9922 18.457 116.064 -5.61523 116.064 -35.2051 C 116.064 -64.7949 91.9922 -88.8672 62.4023 -88.8672 C 32.8125 -88.8672 8.74023 -64.7949 8.74023 -35.2051 C 8.74023 -5.61523 32.8125 18.457 62.4023 18.457 Z M 52.1973 -11.9141 C 46.582 -11.9141 43.3105 -15.4297 43.3105 -21.582 L 43.3105 -47.3145 C 43.3105 -54.0039 46.7285 -57.4219 53.418 -57.4219 L 66.2109 -57.4219 C 77.1973 -57.4219 84.1309 -50.6836 84.1309 -39.9414 C 84.1309 -29.1992 77.002 -22.3633 65.9668 -22.3633 L 61.084 -22.3633 L 61.084 -21.582 C 61.084 -15.4785 57.7637 -11.9141 52.1973 -11.9141 Z M 61.084 -34.9121 L 63.623 -34.9121 C 66.5039 -34.9121 67.8223 -36.4746 67.8223 -39.8438 C 67.8223 -43.3594 66.5527 -44.873 63.623 -44.873 L 61.084 -44.873 Z"/>
  </g>
  <g id="Ultralight-L" transform="matrix(1 0 0 1 487.641 1556)">
   <path d="M 72.0703 25.7324 C 105.566 25.7324 132.91 -1.61133 132.91 -35.1074 C 132.91 -68.5547 105.566 -95.8984 72.0703 -95.8984 C 38.623 -95.8984 11.2793 -68.5547 11.2793 -35.1074 C 11.2793 -1.61133 38.623 25.7324 72.0703 25.7324 Z M 57.666 -5.76172 C 56.8848 -5.76172 56.25 -6.29883 56.25 -7.12891 L 56.25 -62.6953 C 56.25 -63.5742 56.6895 -64.1602 57.5195 -64.1602 L 76.0254 -64.1602 C 85.8887 -64.1602 93.2617 -56.7383 93.2617 -46.7773 C 93.2617 -36.7676 85.9863 -29.3457 76.0254 -29.3457 L 59.1309 -29.3457 L 59.1309 -7.12891 C 59.1309 -6.29883 58.5938 -5.76172 57.666 -5.76172 Z M 59.1309 -32.2754 L 76.3184 -32.2754 C 84.3262 -32.2754 90.3809 -38.5254 90.3809 -46.7773 C 90.3809 -55.0293 84.4238 -61.2305 76.3184 -61.2305 L 59.1309 -61.2305 Z"/>
  </g>
  <g id="Thin-L" transform="matrix(1 0 0 1 783.717 1556)">
   <path d="M 72.7051 26.3184 C 106.494 26.3184 134.131 -1.36719 134.131 -35.1074 C 134.131 -68.8965 106.445 -96.582 72.7051 -96.582 C 38.916 -96.582 11.2793 -68.8965 11.2793 -35.1074 C 11.2793 -1.36719 38.916 26.3184 72.7051 26.3184 Z M 58.3008 -5.61523 C 57.0312 -5.61523 56.1523 -6.49414 56.1523 -7.8125 L 56.1523 -62.207 C 56.1523 -63.5742 56.8848 -64.4531 58.1543 -64.4531 L 76.6602 -64.4531 C 87.0605 -64.4531 94.6777 -56.9336 94.6777 -46.582 C 94.6777 -36.1816 87.1582 -28.6133 76.6602 -28.6133 L 60.4492 -28.6133 L 60.4492 -7.8125 C 60.4492 -6.49414 59.668 -5.61523 58.3008 -5.61523 Z M 60.4492 -32.4707 L 76.6113 -32.4707 C 84.5703 -32.4707 90.4297 -38.4277 90.4297 -46.582 C 90.4297 -54.7363 84.668 -60.5957 76.6113 -60.5957 L 60.4492 -60.5957 Z"/>
  </g>
  <g id="Light-L" transform="matrix(1 0 0 1 1079.21 1556)">
   <path d="M 73.9258 27.4902 C 108.301 27.4902 136.572 -0.830078 136.572 -35.1562 C 136.572 -69.5312 108.252 -97.8516 73.877 -97.8516 C 39.5508 -97.8516 11.2793 -69.5312 11.2793 -35.1562 C 11.2793 -0.830078 39.5508 27.4902 73.9258 27.4902 Z M 59.5215 -5.32227 C 57.2754 -5.32227 56.0059 -6.88477 56.0059 -9.13086 L 56.0059 -61.2793 C 56.0059 -63.623 57.1777 -65.1367 59.375 -65.1367 L 77.8809 -65.1367 C 89.3066 -65.1367 97.4121 -57.2754 97.4121 -46.1914 C 97.4121 -35.0098 89.4043 -27.1973 77.8809 -27.1973 L 62.9883 -27.1973 L 62.9883 -9.13086 C 62.9883 -6.78711 61.7676 -5.32227 59.5215 -5.32227 Z M 62.9883 -32.9102 L 77.1973 -32.9102 C 85.1074 -32.9102 90.4785 -38.2812 90.4785 -46.1914 C 90.4785 -54.1016 85.1074 -59.4727 77.1973 -59.4727 L 62.9883 -59.4727 Z"/>
  </g>
  <g id="Regular-L" transform="matrix(1 0 0 1 1374.99 1556)">
   <path d="M 74.8535 28.3691 C 109.668 28.3691 138.428 -0.390625 138.428 -35.2051 C 138.428 -70.0195 109.619 -98.7793 74.8047 -98.7793 C 39.9902 -98.7793 11.2793 -70.0195 11.2793 -35.2051 C 11.2793 -0.390625 40.0391 28.3691 74.8535 28.3691 Z M 60.4004 -5.12695 C 57.4707 -5.12695 55.9082 -7.12891 55.9082 -10.1562 L 55.9082 -60.5957 C 55.9082 -63.623 57.4219 -65.625 60.3516 -65.625 L 78.8574 -65.625 C 91.0645 -65.625 99.4629 -57.5684 99.4629 -45.8984 C 99.4629 -34.082 91.1133 -26.123 78.8086 -26.123 L 64.9414 -26.123 L 64.9414 -10.1562 C 64.9414 -7.03125 63.3789 -5.12695 60.4004 -5.12695 Z M 64.9414 -33.2031 L 77.6367 -33.2031 C 85.498 -33.2031 90.5273 -38.1836 90.5273 -45.8984 C 90.5273 -53.6133 85.4492 -58.5938 77.6367 -58.5938 L 64.9414 -58.5938 Z"/>
  </g>
  <g id="Medium-L" transform="matrix(1 0 0 1 1670.9 1556)">
   <path d="M 75.6348 29.1992 C 110.938 29.1992 140.039 0.0488281 140.039 -35.2051 C 140.039 -70.459 110.889 -99.6094 75.5859 -99.6094 C 40.332 -99.6094 11.2793 -70.459 11.2793 -35.2051 C 11.2793 0.0488281 40.3809 29.1992 75.6348 29.1992 Z M 61.377 -5.12695 C 57.8125 -5.12695 55.9082 -7.4707 55.9082 -11.1816 L 55.9082 -59.2773 C 55.9082 -63.0859 57.8125 -65.4297 61.5234 -65.4297 L 79.7852 -65.4297 C 92.2852 -65.4297 100.781 -57.2754 100.781 -45.2637 C 100.781 -33.1543 92.334 -25.0977 79.6875 -25.0977 L 66.8945 -25.0977 L 66.8945 -11.1816 C 66.8945 -7.42188 64.9414 -5.12695 61.377 -5.12695 Z M 66.8945 -33.4473 L 78.2227 -33.4473 C 85.5469 -33.4473 90.1367 -37.9883 90.1367 -45.2637 C 90.1367 -52.5391 85.5469 -57.1289 78.2227 -57.1289 L 66.8945 -57.1289 Z"/>
  </g>
  <g id="Semibold-L" transform="matrix(1 0 0 1 1967 1556)">
   <path d="M 76.2695 29.7852 C 111.914 29.7852 141.26 0.439453 141.26 -35.2051 C 141.26 -70.8496 111.865 -100.244 76.2207 -100.244 C 40.5762 -100.244 11.2793 -70.8496 11.2793 -35.2051 C 11.2793 0.439453 40.625 29.7852 76.2695 29.7852 Z M 62.1094 -5.07812 C 58.1055 -5.07812 55.9082 -7.76367 55.9082 -12.0117 L 55.9082 -58.252 C 55.9082 -62.6953 58.1055 -65.2832 62.4023 -65.2832 L 80.4688 -65.2832 C 93.2617 -65.2832 101.855 -57.0801 101.855 -44.8242 C 101.855 -32.4707 93.2617 -24.2676 80.3711 -24.2676 L 68.3594 -24.2676 L 68.3594 -12.0117 C 68.3594 -7.66602 66.1133 -5.07812 62.1094 -5.07812 Z M 68.3594 -33.6426 L 78.7109 -33.6426 C 85.5957 -33.6426 89.8438 -37.8906 89.8438 -44.7754 C 89.8438 -51.7578 85.5957 -56.0059 78.7109 -56.0059 L 68.3594 -56.0059 Z"/>
  </g>
  <g id="Bold-L" transform="matrix(1 0 0 1 2262.9 1556)">
   <path d="M 77.0996 30.6152 C 113.184 30.6152 142.92 0.878906 142.92 -35.2051 C 142.92 -71.3379 113.135 -101.025 77.0508 -101.025 C 40.918 -101.025 11.2793 -71.3379 11.2793 -35.2051 C 11.2793 0.878906 40.9668 30.6152 77.0996 30.6152 Z M 63.0859 -5.07812 C 58.4473 -5.07812 55.8594 -8.10547 55.8594 -13.0371 L 55.8594 -56.9336 C 55.8594 -62.1582 58.4961 -65.1367 63.623 -65.1367 L 81.3965 -65.1367 C 94.4824 -65.1367 103.174 -56.7871 103.174 -44.1895 C 103.174 -31.543 94.4824 -23.1934 81.25 -23.1934 L 70.3125 -23.1934 L 70.3125 -13.0371 C 70.3125 -8.05664 67.6758 -5.07812 63.0859 -5.07812 Z M 70.3125 -33.8379 L 79.2969 -33.8379 C 85.6934 -33.8379 89.4531 -37.6953 89.4531 -44.1406 C 89.4531 -50.6836 85.6934 -54.4922 79.2969 -54.4922 L 70.3125 -54.4922 Z"/>
  </g>
  <g id="Heavy-L" transform="matrix(1 0 0 1 2558.42 1556)">
   <path d="M 78.2715 31.7871 C 115.039 31.7871 145.264 1.61133 145.264 -35.2051 C 145.264 -72.0215 115.039 -102.197 78.2227 -102.197 C 41.4551 -102.197 11.2793 -72.0215 11.2793 -35.2051 C 11.2793 1.61133 41.4551 31.7871 78.2715 31.7871 Z M 64.502 -5.0293 C 58.9844 -5.0293 55.8594 -8.59375 55.8594 -14.5996 L 55.8594 -55.0293 C 55.8594 -61.377 59.082 -64.8438 65.332 -64.8438 L 82.7637 -64.8438 C 96.3379 -64.8438 105.176 -56.3477 105.176 -43.3105 C 105.176 -30.1758 96.2402 -21.6797 82.5684 -21.6797 L 73.1934 -21.6797 L 73.1934 -14.5996 C 73.1934 -8.59375 69.9707 -5.0293 64.502 -5.0293 Z M 73.1934 -34.1797 L 80.2246 -34.1797 C 85.791 -34.1797 88.916 -37.4023 88.916 -43.2617 C 88.916 -49.1699 85.8398 -52.3438 80.2246 -52.3438 L 73.1934 -52.3438 Z"/>
  </g>
  <g id="Black-L" transform="matrix(1 0 0 1 2854.08 1556)">
   <path d="M 79.2969 32.8613 C 116.748 32.8613 147.363 2.19727 147.363 -35.2051 C 147.363 -72.6074 116.699 -103.271 79.2969 -103.271 C 41.8945 -103.271 11.2793 -72.6074 11.2793 -35.2051 C 11.2793 2.19727 41.8945 32.8613 79.2969 32.8613 Z M 65.7715 -5.0293 C 59.4727 -5.0293 55.8594 -9.08203 55.8594 -15.9668 L 55.8594 -53.3203 C 55.8594 -60.6934 59.5703 -64.5996 66.8945 -64.5996 L 83.9844 -64.5996 C 97.9492 -64.5996 106.885 -56.0059 106.885 -42.4805 C 106.885 -28.9551 97.8027 -20.3125 83.7402 -20.3125 L 75.7324 -20.3125 L 75.7324 -15.9668 C 75.7324 -9.08203 72.0215 -5.0293 65.7715 -5.0293 Z M 75.7324 -34.5215 L 81.0059 -34.5215 C 85.8887 -34.5215 88.4277 -37.207 88.4277 -42.4316 C 88.4277 -47.7539 85.9375 -50.4395 81.0059 -50.4395 L 75.7324 -50.4395 Z"/>
  </g>
 </g>
</svg>
