<?xml version="1.0" encoding="UTF-8"?>
<!--Generator: Apple Native CoreSVG 123-->
<!DOCTYPE svg
PUBLIC "-//W3C//DTD SVG 1.1//EN"
       "http://www.w3.org/Graphics/SVG/1.1/DTD/svg11.dtd">
<svg version="1.1" xmlns="http://www.w3.org/2000/svg" xmlns:xlink="http://www.w3.org/1999/xlink" width="3300" height="2200">
 <!--glyph: "uni100392.medium", point size: 100.000000, font version: "Version 15.0d4e20", template writer version: "2"-->
 <g id="Notes">
  <rect height="2200" id="artboard" style="fill:white;opacity:1" width="3300" x="0" y="0"/>
  <line id="" style="fill:none;stroke:black;opacity:1;stroke-width:0.5;" x1="263" x2="3036" y1="292" y2="292"/>
  <text style="stroke:none;fill:black;font-family:-apple-system,&quot;SF Pro Display&quot;,&quot;SF Pro Text&quot;,Helvetica,sans-serif;font-weight:bold;" transform="matrix(1 0 0 1 263 322)">Weight/Scale Variations</text>
  <text style="stroke:none;fill:black;font-family:-apple-system,&quot;SF Pro Display&quot;,&quot;SF Pro Text&quot;,Helvetica,sans-serif;text-anchor:middle;" transform="matrix(1 0 0 1 559.711 322)">Ultralight</text>
  <text style="stroke:none;fill:black;font-family:-apple-system,&quot;SF Pro Display&quot;,&quot;SF Pro Text&quot;,Helvetica,sans-serif;text-anchor:middle;" transform="matrix(1 0 0 1 856.422 322)">Thin</text>
  <text style="stroke:none;fill:black;font-family:-apple-system,&quot;SF Pro Display&quot;,&quot;SF Pro Text&quot;,Helvetica,sans-serif;text-anchor:middle;" transform="matrix(1 0 0 1 1153.13 322)">Light</text>
  <text style="stroke:none;fill:black;font-family:-apple-system,&quot;SF Pro Display&quot;,&quot;SF Pro Text&quot;,Helvetica,sans-serif;text-anchor:middle;" transform="matrix(1 0 0 1 1449.84 322)">Regular</text>
  <text style="stroke:none;fill:black;font-family:-apple-system,&quot;SF Pro Display&quot;,&quot;SF Pro Text&quot;,Helvetica,sans-serif;text-anchor:middle;" transform="matrix(1 0 0 1 1746.56 322)">Medium</text>
  <text style="stroke:none;fill:black;font-family:-apple-system,&quot;SF Pro Display&quot;,&quot;SF Pro Text&quot;,Helvetica,sans-serif;text-anchor:middle;" transform="matrix(1 0 0 1 2043.27 322)">Semibold</text>
  <text style="stroke:none;fill:black;font-family:-apple-system,&quot;SF Pro Display&quot;,&quot;SF Pro Text&quot;,Helvetica,sans-serif;text-anchor:middle;" transform="matrix(1 0 0 1 2339.98 322)">Bold</text>
  <text style="stroke:none;fill:black;font-family:-apple-system,&quot;SF Pro Display&quot;,&quot;SF Pro Text&quot;,Helvetica,sans-serif;text-anchor:middle;" transform="matrix(1 0 0 1 2636.69 322)">Heavy</text>
  <text style="stroke:none;fill:black;font-family:-apple-system,&quot;SF Pro Display&quot;,&quot;SF Pro Text&quot;,Helvetica,sans-serif;text-anchor:middle;" transform="matrix(1 0 0 1 2933.4 322)">Black</text>
  <line id="" style="fill:none;stroke:black;opacity:1;stroke-width:0.5;" x1="263" x2="3036" y1="1903" y2="1903"/>
  <g id="" transform="matrix(1 0 0 1 263 1933)">
   <path d="M 9.24805 0.830078 C 13.5547 0.830078 17.1387 -2.74414 17.1387 -7.05078 C 17.1387 -11.3574 13.5449 -14.9316 9.23828 -14.9316 C 4.94141 -14.9316 1.36719 -11.3574 1.36719 -7.05078 C 1.36719 -2.74414 4.95117 0.830078 9.24805 0.830078 Z M 9.24805 -0.654297 C 5.70312 -0.654297 2.87109 -3.49609 2.87109 -7.05078 C 2.87109 -10.6055 5.69336 -13.4473 9.23828 -13.4473 C 12.793 -13.4473 15.6348 -10.6055 15.6445 -7.05078 C 15.6543 -3.49609 12.8027 -0.654297 9.24805 -0.654297 Z M 9.22852 -3.42773 C 9.69727 -3.42773 9.9707 -3.74023 9.9707 -4.25781 L 9.9707 -6.31836 L 12.1973 -6.31836 C 12.6953 -6.31836 13.0371 -6.57227 13.0371 -7.04102 C 13.0371 -7.51953 12.7148 -7.7832 12.1973 -7.7832 L 9.9707 -7.7832 L 9.9707 -10.0098 C 9.9707 -10.5273 9.69727 -10.8496 9.22852 -10.8496 C 8.75977 -10.8496 8.50586 -10.5078 8.50586 -10.0098 L 8.50586 -7.7832 L 6.29883 -7.7832 C 5.78125 -7.7832 5.44922 -7.51953 5.44922 -7.04102 C 5.44922 -6.57227 5.80078 -6.31836 6.29883 -6.31836 L 8.50586 -6.31836 L 8.50586 -4.25781 C 8.50586 -3.75977 8.75977 -3.42773 9.22852 -3.42773 Z"/>
  </g>
  <g id="" transform="matrix(1 0 0 1 281.506 1933)">
   <path d="M 11.709 2.91016 C 17.1484 2.91016 21.6699 -1.60156 21.6699 -7.05078 C 21.6699 -12.4902 17.1387 -17.0117 11.6992 -17.0117 C 6.25 -17.0117 1.74805 -12.4902 1.74805 -7.05078 C 1.74805 -1.60156 6.25977 2.91016 11.709 2.91016 Z M 11.709 1.25 C 7.09961 1.25 3.41797 -2.44141 3.41797 -7.05078 C 3.41797 -11.6504 7.08984 -15.3516 11.6992 -15.3516 C 16.2988 -15.3516 20 -11.6504 20.0098 -7.05078 C 20.0195 -2.44141 16.3086 1.25 11.709 1.25 Z M 11.6797 -2.41211 C 12.207 -2.41211 12.5195 -2.77344 12.5195 -3.33984 L 12.5195 -6.23047 L 15.5762 -6.23047 C 16.123 -6.23047 16.5039 -6.51367 16.5039 -7.03125 C 16.5039 -7.55859 16.1426 -7.86133 15.5762 -7.86133 L 12.5195 -7.86133 L 12.5195 -10.9277 C 12.5195 -11.5039 12.207 -11.8555 11.6797 -11.8555 C 11.1621 -11.8555 10.8789 -11.4844 10.8789 -10.9277 L 10.8789 -7.86133 L 7.83203 -7.86133 C 7.25586 -7.86133 6.89453 -7.55859 6.89453 -7.03125 C 6.89453 -6.51367 7.28516 -6.23047 7.83203 -6.23047 L 10.8789 -6.23047 L 10.8789 -3.33984 C 10.8789 -2.79297 11.1621 -2.41211 11.6797 -2.41211 Z"/>
  </g>
  <g id="" transform="matrix(1 0 0 1 304.914 1933)">
   <path d="M 14.9707 5.67383 C 21.9336 5.67383 27.6855 -0.078125 27.6855 -7.04102 C 27.6855 -14.0039 21.9238 -19.7559 14.9609 -19.7559 C 7.99805 -19.7559 2.25586 -14.0039 2.25586 -7.04102 C 2.25586 -0.078125 8.00781 5.67383 14.9707 5.67383 Z M 14.9707 3.85742 C 8.92578 3.85742 4.08203 -1.00586 4.08203 -7.04102 C 4.08203 -13.0762 8.91602 -17.9395 14.9609 -17.9395 C 20.9961 -17.9395 25.8594 -13.0762 25.8691 -7.04102 C 25.8789 -1.00586 21.0059 3.85742 14.9707 3.85742 Z M 14.9414 -1.06445 C 15.5176 -1.06445 15.8594 -1.45508 15.8594 -2.06055 L 15.8594 -6.13281 L 20.0977 -6.13281 C 20.6934 -6.13281 21.1133 -6.46484 21.1133 -7.02148 C 21.1133 -7.59766 20.7227 -7.93945 20.0977 -7.93945 L 15.8594 -7.93945 L 15.8594 -12.1875 C 15.8594 -12.8027 15.5176 -13.1934 14.9414 -13.1934 C 14.3848 -13.1934 14.0625 -12.7832 14.0625 -12.1875 L 14.0625 -7.93945 L 9.82422 -7.93945 C 9.20898 -7.93945 8.80859 -7.59766 8.80859 -7.02148 C 8.80859 -6.46484 9.23828 -6.13281 9.82422 -6.13281 L 14.0625 -6.13281 L 14.0625 -2.06055 C 14.0625 -1.47461 14.3848 -1.06445 14.9414 -1.06445 Z"/>
  </g>
  <text style="stroke:none;fill:black;font-family:-apple-system,&quot;SF Pro Display&quot;,&quot;SF Pro Text&quot;,Helvetica,sans-serif;font-weight:bold;" transform="matrix(1 0 0 1 263 1953)">Design Variations</text>
  <text style="stroke:none;fill:black;font-family:-apple-system,&quot;SF Pro Display&quot;,&quot;SF Pro Text&quot;,Helvetica,sans-serif;" transform="matrix(1 0 0 1 263 1971)">Symbols are supported in up to nine weights and three scales.</text>
  <text style="stroke:none;fill:black;font-family:-apple-system,&quot;SF Pro Display&quot;,&quot;SF Pro Text&quot;,Helvetica,sans-serif;" transform="matrix(1 0 0 1 263 1989)">For optimal layout with text and other symbols, vertically align</text>
  <text style="stroke:none;fill:black;font-family:-apple-system,&quot;SF Pro Display&quot;,&quot;SF Pro Text&quot;,Helvetica,sans-serif;" transform="matrix(1 0 0 1 263 2007)">symbols with the adjacent text.</text>
  <rect height="14" id="" style="fill:#00AEEF;stroke:none;opacity:0.4;" width="3" x="776" y="1919"/>
  <g id="" transform="matrix(1 0 0 1 779 1933)">
   <path d="M 10.5273 0 L 12.373 0 L 7.17773 -14.0918 L 5.43945 -14.0918 L 0.244141 0 L 2.08984 0 L 3.50586 -4.0332 L 9.11133 -4.0332 Z M 6.2793 -11.9531 L 6.33789 -11.9531 L 8.59375 -5.52734 L 4.02344 -5.52734 Z"/>
  </g>
  <rect height="14" id="" style="fill:#00AEEF;stroke:none;opacity:0.4;" width="3" x="791.617" y="1919"/>
  <text style="stroke:none;fill:black;font-family:-apple-system,&quot;SF Pro Display&quot;,&quot;SF Pro Text&quot;,Helvetica,sans-serif;font-weight:bold;" transform="matrix(1 0 0 1 776 1953)">Side Bearings</text>
  <text style="stroke:none;fill:black;font-family:-apple-system,&quot;SF Pro Display&quot;,&quot;SF Pro Text&quot;,Helvetica,sans-serif;" transform="matrix(1 0 0 1 776 1971)">Horizontal padding on the left and right side of each symbol</text>
  <text style="stroke:none;fill:black;font-family:-apple-system,&quot;SF Pro Display&quot;,&quot;SF Pro Text&quot;,Helvetica,sans-serif;" transform="matrix(1 0 0 1 776 1989)">can be adjusted by modifying the width of the blue rectangles.</text>
  <text style="stroke:none;fill:black;font-family:-apple-system,&quot;SF Pro Display&quot;,&quot;SF Pro Text&quot;,Helvetica,sans-serif;" transform="matrix(1 0 0 1 776 2007)">Modifications are automatically applied proportionally to all</text>
  <text style="stroke:none;fill:black;font-family:-apple-system,&quot;SF Pro Display&quot;,&quot;SF Pro Text&quot;,Helvetica,sans-serif;" transform="matrix(1 0 0 1 776 2025)">scales and weights.</text>
  <g id="" transform="matrix(1 0 0 1 1289 1933)">
   <path d="M 2.96875 2.35352 L 3.80859 3.19336 C 4.84375 4.22852 6.12305 4.15039 7.19727 2.97852 L 16.1621 -6.82617 C 16.5527 -6.74805 16.9629 -6.8457 17.4902 -7.02148 C 18.1738 -7.25586 18.2715 -7.25586 18.3887 -7.13867 C 18.5352 -7.01172 18.4863 -6.89453 18.2422 -6.25 C 17.8809 -5.33203 17.8125 -4.79492 18.5547 -4.02344 L 19.4238 -3.13477 C 20.2734 -2.24609 21.3281 -2.26562 22.2168 -3.14453 L 25.0586 -5.97656 C 25.9473 -6.86523 25.957 -7.92969 25.0781 -8.7793 L 24.1797 -9.64844 C 23.4082 -10.4004 22.8711 -10.3516 21.9629 -9.98047 C 21.3184 -9.72656 21.2012 -9.6875 21.0645 -9.81445 C 20.9375 -9.93164 20.9473 -10.0391 21.1816 -10.7129 C 21.5332 -11.6895 21.5723 -12.2852 20.752 -13.0957 L 19.3359 -14.5117 C 15.1953 -18.6133 11.2305 -18.7402 7.65625 -15.4395 C 7.08008 -14.9023 6.99219 -14.1504 7.53906 -13.6133 L 7.79297 -13.3594 C 8.22266 -12.9297 8.86719 -12.8418 9.41406 -13.1152 C 11.0645 -13.9453 12.2559 -14.0234 13.457 -12.9785 L 13.0273 -11.416 C 12.8516 -10.8008 12.793 -10.3418 12.9199 -9.93164 L 3.18359 -1.04492 C 2.02148 0.0292969 1.93359 1.32812 2.96875 2.35352 Z M 8.96484 -14.4922 C 8.89648 -14.5703 8.86719 -14.6582 8.99414 -14.7559 C 11.709 -17.2852 15.0391 -16.8457 18.3496 -13.5254 L 19.6973 -12.168 C 20.0879 -11.7773 20.0977 -11.582 19.8828 -10.8691 C 19.6582 -10.127 19.502 -9.53125 20.1465 -8.88672 C 20.8105 -8.22266 21.2891 -8.41797 22.207 -8.63281 C 22.9004 -8.79883 23.0664 -8.79883 23.4473 -8.41797 L 24.0918 -7.77344 C 24.4043 -7.48047 24.4141 -7.32422 24.0723 -6.97266 L 21.2207 -4.13086 C 20.8887 -3.79883 20.7227 -3.79883 20.4297 -4.10156 L 19.7852 -4.75586 C 19.4141 -5.13672 19.4141 -5.30273 19.5801 -6.01562 C 19.7852 -6.88477 19.9805 -7.38281 19.3262 -8.04688 C 18.6719 -8.7207 18.0762 -8.57422 17.3438 -8.33008 C 16.5625 -8.06641 16.3281 -8.06641 15.8984 -8.49609 L 14.6094 -9.78516 C 14.1699 -10.2246 14.1309 -10.4395 14.2676 -10.9082 L 15.0293 -13.3984 C 13.3887 -15.2832 11.4941 -15.5566 9.20898 -14.4434 C 9.11133 -14.3945 9.04297 -14.4141 8.96484 -14.4922 Z M 3.96484 1.36719 C 3.52539 0.927734 3.54492 0.537109 4.14062 -0.00976562 L 13.7402 -8.81836 L 15 -7.55859 L 6.17188 2.02148 C 5.625 2.60742 5.24414 2.64648 4.79492 2.19727 Z"/>
  </g>
  <text style="stroke:none;fill:black;font-family:-apple-system,&quot;SF Pro Display&quot;,&quot;SF Pro Text&quot;,Helvetica,sans-serif;font-weight:bold;" transform="matrix(1 0 0 1 1289 1953)">Exporting</text>
  <text style="stroke:none;fill:black;font-family:-apple-system,&quot;SF Pro Display&quot;,&quot;SF Pro Text&quot;,Helvetica,sans-serif;" transform="matrix(1 0 0 1 1289 1971)">Symbols should be outlined when exporting to ensure the</text>
  <text style="stroke:none;fill:black;font-family:-apple-system,&quot;SF Pro Display&quot;,&quot;SF Pro Text&quot;,Helvetica,sans-serif;" transform="matrix(1 0 0 1 1289 1989)">design is preserved when submitting to Xcode.</text>
  <text id="template-version" style="stroke:none;fill:black;font-family:-apple-system,&quot;SF Pro Display&quot;,&quot;SF Pro Text&quot;,Helvetica,sans-serif;text-anchor:end;" transform="matrix(1 0 0 1 3036 1933)">Template v.0.1</text>
  <text style="stroke:none;fill:black;font-family:-apple-system,&quot;SF Pro Display&quot;,&quot;SF Pro Text&quot;,Helvetica,sans-serif;text-anchor:end;" transform="matrix(1 0 0 1 3036 1951)">Generated from paintbrush.fill</text>
  <text style="stroke:none;fill:black;font-family:-apple-system,&quot;SF Pro Display&quot;,&quot;SF Pro Text&quot;,Helvetica,sans-serif;text-anchor:end;" transform="matrix(1 0 0 1 3036 1969)">Typeset at 100 points</text>
  <text style="stroke:none;fill:black;font-family:-apple-system,&quot;SF Pro Display&quot;,&quot;SF Pro Text&quot;,Helvetica,sans-serif;" transform="matrix(1 0 0 1 263 726)">Small</text>
  <text style="stroke:none;fill:black;font-family:-apple-system,&quot;SF Pro Display&quot;,&quot;SF Pro Text&quot;,Helvetica,sans-serif;" transform="matrix(1 0 0 1 263 1156)">Medium</text>
  <text style="stroke:none;fill:black;font-family:-apple-system,&quot;SF Pro Display&quot;,&quot;SF Pro Text&quot;,Helvetica,sans-serif;" transform="matrix(1 0 0 1 263 1586)">Large</text>
 </g>
 <g id="Guides">
  <g id="H-reference" style="fill:#27AAE1;stroke:none;" transform="matrix(1 0 0 1 339 696)">
   <path d="M 54.9316 0 L 57.666 0 L 30.5664 -70.459 L 28.0762 -70.459 L 0.976562 0 L 3.66211 0 L 12.9395 -24.4629 L 45.7031 -24.4629 Z M 29.1992 -67.0898 L 29.4434 -67.0898 L 44.8242 -26.709 L 13.8184 -26.709 Z"/>
  </g>
  <line id="Baseline-S" style="fill:none;stroke:#27AAE1;opacity:1;stroke-width:0.577;" x1="263" x2="3036" y1="696" y2="696"/>
  <line id="Capline-S" style="fill:none;stroke:#27AAE1;opacity:1;stroke-width:0.577;" x1="263" x2="3036" y1="625.541" y2="625.541"/>
  <g id="H-reference" style="fill:#27AAE1;stroke:none;" transform="matrix(1 0 0 1 339 1126)">
   <path d="M 54.9316 0 L 57.666 0 L 30.5664 -70.459 L 28.0762 -70.459 L 0.976562 0 L 3.66211 0 L 12.9395 -24.4629 L 45.7031 -24.4629 Z M 29.1992 -67.0898 L 29.4434 -67.0898 L 44.8242 -26.709 L 13.8184 -26.709 Z"/>
  </g>
  <line id="Baseline-M" style="fill:none;stroke:#27AAE1;opacity:1;stroke-width:0.577;" x1="263" x2="3036" y1="1126" y2="1126"/>
  <line id="Capline-M" style="fill:none;stroke:#27AAE1;opacity:1;stroke-width:0.577;" x1="263" x2="3036" y1="1055.54" y2="1055.54"/>
  <g id="H-reference" style="fill:#27AAE1;stroke:none;" transform="matrix(1 0 0 1 339 1556)">
   <path d="M 54.9316 0 L 57.666 0 L 30.5664 -70.459 L 28.0762 -70.459 L 0.976562 0 L 3.66211 0 L 12.9395 -24.4629 L 45.7031 -24.4629 Z M 29.1992 -67.0898 L 29.4434 -67.0898 L 44.8242 -26.709 L 13.8184 -26.709 Z"/>
  </g>
  <line id="Baseline-L" style="fill:none;stroke:#27AAE1;opacity:1;stroke-width:0.577;" x1="263" x2="3036" y1="1556" y2="1556"/>
  <line id="Capline-L" style="fill:none;stroke:#27AAE1;opacity:1;stroke-width:0.577;" x1="263" x2="3036" y1="1485.54" y2="1485.54"/>
  <rect height="119.336" id="left-margin" style="fill:#00AEEF;stroke:none;opacity:0.4;" width="11.2305" x="1386.54" y="1030.79"/>
  <rect height="119.336" id="right-margin" style="fill:#00AEEF;stroke:none;opacity:0.4;" width="11.2305" x="1501.92" y="1030.79"/>
 </g>
 <g id="Symbols">
  <g id="Ultralight-S" transform="matrix(1 0 0 1 511.445 696)">
   <path d="M 81.7383 -55.6152 C 79.248 -51.5625 69.2383 -41.3086 67.2852 -41.3086 C 66.6992 -41.3086 66.4062 -41.6992 66.4062 -42.1875 C 66.4062 -42.3828 66.6016 -42.5781 66.6992 -42.7734 C 68.8965 -46.0449 74.3652 -54.9805 74.3652 -59.7168 C 74.3652 -60.9375 74.0723 -62.207 73.1445 -63.0371 L 54.1504 -79.5898 C 52.3926 -81.1523 51.3184 -81.8848 49.6094 -81.8848 C 47.7539 -81.8848 46.4355 -80.2246 45.8496 -76.2207 C 44.5312 -66.7969 44.3848 -62.0605 36.6699 -53.5645 C 35.498 -52.2949 34.9121 -51.2207 34.9121 -49.9023 C 34.9121 -48.291 35.9375 -46.8262 38.0859 -44.6777 L 60.498 -22.2656 C 61.0352 -21.7285 62.0605 -20.9473 63.5254 -20.9473 C 64.9414 -20.9473 66.2109 -21.8262 67.9199 -23.584 C 75.293 -31.25 83.6914 -34.1797 86.9629 -42.334 C 87.5488 -43.6523 87.7441 -45.166 87.7441 -46.582 C 87.7441 -48.7793 85.9375 -51.8555 82.959 -54.4922 Z M 59.0332 -18.8477 L 32.1777 -45.7031 C 29.1504 -48.7305 26.2207 -48.7305 23.3398 -45.8496 L 21.3867 -43.8477 C 18.5059 -40.918 18.5059 -38.0371 21.5332 -35.0098 L 31.7871 -24.707 C 19.9219 -19.5801 13.9648 -16.1621 12.0605 -14.3066 C 9.86328 -12.1582 8.78906 -9.47266 8.78906 -6.54297 C 8.78906 -0.195312 13.5742 4.58984 19.9219 4.58984 C 22.8516 4.58984 25.5371 3.51562 27.6855 1.26953 C 29.541 -0.634766 32.9102 -6.5918 38.0859 -18.457 L 48.3887 -8.1543 C 51.3672 -5.12695 54.3945 -5.17578 57.2266 -8.00781 L 59.1797 -10.0098 C 62.0117 -12.8418 62.0117 -15.8691 59.0332 -18.8477 Z M 18.75 -3.02734 C 17.4805 -3.02734 16.4062 -4.05273 16.4062 -5.41992 C 16.4062 -6.68945 17.4805 -7.71484 18.75 -7.71484 C 20.0195 -7.71484 21.0938 -6.68945 21.0938 -5.41992 C 21.0938 -4.05273 20.0195 -3.02734 18.75 -3.02734 Z"/>
  </g>
  <g id="Thin-S" transform="matrix(1 0 0 1 807.789 696)">
   <path d="M 82.0312 -56.1523 C 78.8086 -51.4648 69.1406 -41.6992 67.1387 -41.6992 C 66.5039 -41.6992 66.2109 -42.0898 66.2109 -42.5781 C 66.2109 -42.8223 66.4062 -43.0176 66.5039 -43.2129 C 68.7988 -46.6309 74.4141 -55.2734 74.4141 -60.3516 C 74.4141 -61.7188 74.0723 -62.9883 73.1445 -63.8672 L 54.4922 -80.0781 C 52.6855 -81.6895 51.416 -82.4707 49.707 -82.4707 C 47.6562 -82.4707 46.0938 -80.8105 45.5566 -76.9531 C 44.1895 -67.6758 44.043 -62.5488 36.4746 -54.248 C 35.3027 -52.9785 34.6191 -51.7578 34.6191 -50.4395 C 34.6191 -48.6328 35.6445 -47.2656 37.8906 -45.0195 L 60.6934 -22.3145 C 61.4746 -21.5332 62.5977 -20.6055 64.1602 -20.6055 C 65.6738 -20.6055 66.9434 -21.582 68.8477 -23.6328 C 76.0254 -31.1035 84.4727 -34.1309 87.6953 -42.1875 C 88.2812 -43.6523 88.4766 -45.1172 88.4766 -46.4844 C 88.4766 -48.7793 86.7188 -52.002 83.6914 -54.6875 Z M 59.3262 -18.3105 L 31.8359 -45.8496 C 28.7598 -48.877 25.6836 -49.0234 22.7539 -45.9473 L 20.8984 -44.043 C 18.0176 -41.0156 18.0664 -38.0371 21.0938 -35.0098 L 31.3965 -24.5605 C 20.8496 -19.8242 14.3066 -16.3086 11.9629 -14.0137 C 9.76562 -11.9141 8.78906 -9.17969 8.78906 -6.44531 C 8.78906 -0.0488281 13.8672 4.93164 20.166 4.93164 C 22.9492 4.93164 25.6836 3.90625 27.832 1.66016 C 30.0781 -0.683594 33.4473 -7.12891 38.2324 -17.8223 L 48.6328 -7.42188 C 51.6602 -4.39453 54.8828 -4.44336 57.666 -7.32422 L 59.5215 -9.27734 C 62.3535 -12.3047 62.3047 -15.332 59.3262 -18.3105 Z M 19.2383 -2.97852 C 17.8711 -2.92969 16.748 -4.10156 16.748 -5.51758 C 16.748 -6.93359 17.8711 -8.05664 19.2383 -8.00781 C 20.5566 -8.05664 21.7285 -6.93359 21.7285 -5.51758 C 21.7285 -4.10156 20.5566 -2.92969 19.2383 -2.97852 Z"/>
  </g>
  <g id="Light-S" transform="matrix(1 0 0 1 1103.79 696)">
   <path d="M 82.5684 -57.2266 C 78.0273 -51.3184 68.8965 -42.4316 66.8457 -42.4316 C 66.1133 -42.4316 65.7715 -42.8223 65.7715 -43.4082 C 65.7715 -43.6523 65.9668 -43.7988 66.1621 -44.043 C 68.6523 -47.7539 74.4141 -55.7617 74.4141 -61.5723 C 74.4141 -63.1836 74.0234 -64.502 73.0957 -65.4297 L 55.127 -81.0059 C 53.1738 -82.7148 51.6113 -83.5938 49.8535 -83.5938 C 47.4609 -83.5938 45.459 -81.9824 44.9219 -78.418 C 43.6523 -69.3359 43.3594 -63.5254 36.084 -55.5176 C 34.9609 -54.2969 33.9844 -52.832 33.9844 -51.4648 C 33.9844 -49.2676 35.1562 -48.0957 37.5488 -45.752 L 61.084 -22.3145 C 62.3047 -21.0938 63.623 -19.9707 65.3809 -20.0195 C 67.041 -20.0684 68.3594 -21.1426 70.6543 -23.6328 C 77.3926 -30.957 85.9863 -34.1309 89.1113 -42.041 C 89.7461 -43.6035 89.8926 -45.0684 89.8926 -46.3379 C 89.8926 -48.7793 88.2812 -52.2461 85.0586 -55.0781 Z M 59.8633 -17.2852 L 31.1035 -46.1426 C 28.0273 -49.2188 24.6582 -49.5117 21.6309 -46.1914 L 20.0195 -44.3848 C 17.1387 -41.2109 17.2363 -38.0371 20.2148 -34.9609 L 30.6152 -24.2676 C 22.6074 -20.3125 14.8926 -16.6504 11.7676 -13.5254 C 9.61914 -11.4258 8.78906 -8.69141 8.78906 -6.25 C 8.78906 0.195312 14.4043 5.61523 20.6055 5.61523 C 23.1934 5.61523 25.9277 4.63867 28.0762 2.39258 C 31.2012 -0.78125 34.375 -8.25195 38.4766 -16.6504 L 49.0234 -6.10352 C 52.1484 -2.92969 55.8594 -3.02734 58.4473 -6.05469 L 60.0586 -7.86133 C 62.9883 -11.2305 62.793 -14.3555 59.8633 -17.2852 Z M 20.1172 -2.88086 C 18.6523 -2.83203 17.2852 -4.19922 17.334 -5.76172 C 17.334 -7.32422 18.6035 -8.59375 20.1172 -8.59375 C 21.6309 -8.59375 22.9492 -7.32422 22.9492 -5.76172 C 22.9492 -4.19922 21.6309 -2.83203 20.1172 -2.88086 Z"/>
  </g>
  <g id="Regular-S" transform="matrix(1 0 0 1 1399.97 696)">
   <path d="M 83.0078 -58.0566 C 77.3926 -51.1719 68.7012 -42.9688 66.6016 -42.9688 C 65.8203 -42.9688 65.4785 -43.4082 65.4785 -43.9941 C 65.4785 -44.2871 65.6738 -44.4336 65.8691 -44.7266 C 68.5059 -48.6328 74.4629 -56.2012 74.4629 -62.5488 C 74.4629 -64.3555 74.0234 -65.6738 73.0957 -66.6504 L 55.5664 -81.6895 C 53.6133 -83.4961 51.7578 -84.4727 49.9512 -84.4727 C 47.3145 -84.4727 44.9707 -82.9102 44.4336 -79.541 C 43.2129 -70.5566 42.8223 -64.209 35.791 -56.4941 C 34.7168 -55.2734 33.4961 -53.6133 33.4961 -52.1973 C 33.4961 -49.707 34.7168 -48.7793 37.2559 -46.2891 L 61.377 -22.3633 C 62.9395 -20.8008 64.4043 -19.5312 66.3086 -19.5801 C 68.0664 -19.6289 69.4336 -20.8008 72.0215 -23.6816 C 78.418 -30.8105 87.1582 -34.082 90.1367 -41.8945 C 90.8203 -43.6035 90.9668 -45.0195 90.9668 -46.2402 C 90.9668 -48.7793 89.4531 -52.4414 86.084 -55.3711 Z M 60.3027 -16.5527 L 30.5664 -46.3867 C 27.4902 -49.4629 23.877 -49.9023 20.8008 -46.3379 L 19.3359 -44.6777 C 16.4551 -41.3574 16.5527 -38.0371 19.5312 -34.9609 L 30.0293 -24.0723 C 23.9258 -20.7031 15.332 -16.8945 11.6211 -13.1348 C 9.52148 -11.084 8.78906 -8.30078 8.78906 -6.10352 C 8.78906 0.390625 14.8438 6.10352 20.9473 6.10352 C 23.3398 6.10352 26.123 5.17578 28.2715 2.97852 C 32.0312 -0.878906 35.1074 -9.08203 38.6719 -15.7227 L 49.3652 -5.07812 C 52.5879 -1.85547 56.543 -2.00195 59.082 -5.07812 L 60.498 -6.83594 C 63.4277 -10.4004 63.2324 -13.623 60.3027 -16.5527 Z M 20.8496 -2.83203 C 19.2383 -2.73438 17.7246 -4.24805 17.7734 -5.95703 C 17.7734 -7.66602 19.1895 -9.0332 20.8496 -8.98438 C 22.4609 -9.0332 23.877 -7.66602 23.877 -5.95703 C 23.9258 -4.24805 22.4121 -2.73438 20.8496 -2.83203 Z"/>
  </g>
  <g id="Medium-S" transform="matrix(1 0 0 1 1696.48 696)">
   <path d="M 83.6914 -57.666 C 77.832 -50.4395 69.1406 -42.3828 66.8457 -42.3828 C 66.0156 -42.3828 65.625 -42.8711 65.625 -43.5059 C 65.625 -43.7988 65.8203 -43.9941 66.0645 -44.3359 C 68.8965 -48.4375 74.6094 -56.4453 74.6094 -62.6465 C 74.6094 -64.4043 74.2188 -65.9668 72.9492 -67.2363 L 55.8594 -81.9336 C 53.7109 -83.8379 51.709 -84.9121 49.8047 -84.9121 C 46.9727 -84.9121 44.4336 -83.252 43.8477 -79.6387 C 42.627 -70.8008 43.0176 -64.7461 35.791 -56.8359 C 34.668 -55.6152 33.5938 -53.9551 33.5938 -52.4902 C 33.5938 -49.8047 34.9121 -48.7305 37.5 -46.1426 L 61.6699 -22.1191 C 63.4277 -20.3613 64.9902 -19.2383 66.8457 -19.2383 C 68.7012 -19.2871 70.0195 -20.5566 72.4609 -23.2422 C 79.0039 -30.5664 87.5 -33.6914 90.5273 -41.3574 C 91.2598 -43.2129 91.3574 -44.5312 91.3574 -45.8496 C 91.3574 -48.4863 89.7949 -52.3926 86.2793 -55.4199 Z M 60.1074 -15.9668 L 30.3223 -45.9473 C 27.002 -49.2188 23.291 -49.4629 20.0684 -45.8984 L 18.6035 -44.2383 C 15.5273 -40.8691 15.6738 -37.3047 18.7988 -34.0332 L 29.0039 -23.3887 C 22.5586 -19.8242 15.0391 -16.5039 11.7188 -13.1836 C 9.61914 -11.0352 8.78906 -8.30078 8.78906 -6.00586 C 8.78906 0.634766 14.9902 6.49414 21.2402 6.49414 C 23.7305 6.49414 26.5137 5.51758 28.7109 3.27148 C 32.0801 -0.195312 34.7656 -7.42188 38.3789 -14.3066 L 48.7305 -4.00391 C 52.002 -0.732422 56.25 -0.732422 58.9355 -4.00391 L 60.3516 -5.76172 C 63.3301 -9.375 63.3301 -12.7441 60.1074 -15.9668 Z M 21.1914 -2.88086 C 19.5801 -2.83203 18.1152 -4.29688 18.1152 -6.00586 C 18.1641 -7.71484 19.5312 -9.08203 21.1914 -9.08203 C 22.8027 -9.08203 24.2188 -7.71484 24.2188 -6.00586 C 24.2676 -4.29688 22.8027 -2.7832 21.1914 -2.88086 Z"/>
  </g>
  <g id="Semibold-S" transform="matrix(1 0 0 1 1993.05 696)">
   <path d="M 84.1797 -57.373 C 78.2227 -49.9023 69.4336 -41.9434 67.041 -41.9434 C 66.1133 -41.9434 65.7227 -42.4316 65.7227 -43.1152 C 65.7227 -43.457 65.918 -43.7012 66.1621 -43.9941 C 69.2383 -48.2422 74.7559 -56.6406 74.7559 -62.7441 C 74.7559 -64.4531 74.4141 -66.2109 72.8516 -67.6758 L 56.0547 -82.1289 C 53.8086 -84.082 51.709 -85.2051 49.6582 -85.2051 C 46.7285 -85.2051 43.9941 -83.4961 43.4082 -79.6875 C 42.1875 -70.9961 43.1641 -65.1367 35.791 -57.0801 C 34.668 -55.8594 33.6914 -54.1992 33.6914 -52.7344 C 33.6914 -49.9023 35.0586 -48.6816 37.6953 -46.0449 L 61.9141 -21.9238 C 63.8184 -20.0195 65.4297 -18.9941 67.2852 -19.043 C 69.1895 -19.043 70.459 -20.3125 72.8027 -22.9492 C 79.4434 -30.3711 87.793 -33.3496 90.8203 -40.9668 C 91.6016 -42.8711 91.6504 -44.1895 91.6504 -45.5078 C 91.6504 -48.291 90.0879 -52.2949 86.4258 -55.4688 Z M 59.9609 -15.5273 L 30.0781 -45.5566 C 26.6602 -49.0234 22.8516 -49.1699 19.4824 -45.5566 L 17.9688 -43.9453 C 14.7949 -40.5273 14.9902 -36.7676 18.2129 -33.3496 L 28.2227 -22.8516 C 21.5332 -19.1895 14.8438 -16.2598 11.7676 -13.1836 C 9.66797 -11.0352 8.78906 -8.30078 8.78906 -5.95703 C 8.78906 0.78125 15.1367 6.78711 21.5332 6.78711 C 24.0234 6.78711 26.8066 5.76172 29.0527 3.4668 C 32.0801 0.292969 34.5215 -6.15234 38.1836 -13.2324 L 48.2422 -3.22266 C 51.6113 0.146484 56.0059 0.195312 58.8379 -3.22266 L 60.2539 -4.98047 C 63.2812 -8.59375 63.4277 -12.1094 59.9609 -15.5273 Z M 21.4355 -2.88086 C 19.8242 -2.88086 18.3594 -4.29688 18.4082 -6.05469 C 18.4082 -7.76367 19.7754 -9.13086 21.4355 -9.13086 C 23.0957 -9.13086 24.4629 -7.76367 24.5117 -6.05469 C 24.5117 -4.29688 23.0469 -2.83203 21.4355 -2.88086 Z"/>
  </g>
  <g id="Bold-S" transform="matrix(1 0 0 1 2289.56 696)">
   <path d="M 84.9121 -57.0312 C 78.6621 -49.1699 69.873 -41.3574 67.2363 -41.3574 C 66.3086 -41.3574 65.8691 -41.8945 65.8691 -42.627 C 65.8691 -42.9688 66.0645 -43.2617 66.3574 -43.6035 C 69.6289 -48.0469 74.9023 -56.8848 74.9023 -62.8418 C 74.9023 -64.5508 74.6094 -66.5527 72.7051 -68.2617 L 56.2988 -82.3242 C 53.9551 -84.4238 51.6602 -85.6445 49.5605 -85.6445 C 46.3867 -85.6445 43.457 -83.8379 42.8711 -79.7852 C 41.6016 -71.2402 43.3594 -65.6738 35.791 -57.4219 C 34.6191 -56.1523 33.7891 -54.541 33.7891 -53.0273 C 33.7891 -50 35.2539 -48.6328 37.9395 -45.9473 L 62.207 -21.6797 C 64.3066 -19.5801 66.0645 -18.7012 67.8711 -18.7012 C 69.873 -18.75 71.0449 -20.0684 73.2422 -22.5098 C 80.0293 -30.127 88.1348 -32.9102 91.1621 -40.4785 C 91.9922 -42.4805 92.041 -43.7012 92.041 -45.0684 C 92.041 -48.0469 90.4297 -52.2461 86.5723 -55.5664 Z M 59.8145 -14.9414 L 29.834 -45.1172 C 26.1719 -48.7305 22.3145 -48.7793 18.7012 -45.0684 L 17.1875 -43.5059 C 13.8184 -40.0391 14.1113 -35.9863 17.4805 -32.4219 L 27.1973 -22.168 C 20.1172 -18.3105 14.5508 -15.8691 11.9141 -13.1836 C 9.76562 -10.9863 8.78906 -8.25195 8.78906 -5.85938 C 8.78906 1.02539 15.2832 7.17773 21.8262 7.17773 C 24.4141 7.17773 27.1484 6.05469 29.4434 3.75977 C 32.1289 0.976562 34.1797 -4.49219 37.8906 -11.8164 L 47.6074 -2.14844 C 51.0254 1.26953 55.7129 1.41602 58.6914 -2.14844 L 60.1074 -3.90625 C 63.1836 -7.56836 63.5254 -11.2305 59.8145 -14.9414 Z M 21.7773 -2.92969 C 20.166 -2.92969 18.7012 -4.3457 18.75 -6.10352 C 18.75 -7.8125 20.166 -9.17969 21.7773 -9.17969 C 23.4375 -9.17969 24.8047 -7.86133 24.8535 -6.10352 C 24.8535 -4.3457 23.4375 -2.88086 21.7773 -2.92969 Z"/>
  </g>
  <g id="Heavy-S" transform="matrix(1 0 0 1 2586.01 696)">
   <path d="M 85.8887 -56.4453 C 79.3457 -48.0957 70.5078 -40.5273 67.627 -40.5273 C 66.5527 -40.5273 66.0645 -41.1133 66.0645 -41.9434 C 66.0645 -42.2852 66.3086 -42.627 66.6016 -43.0176 C 70.166 -47.7539 75.1465 -57.2754 75.1465 -62.9883 C 75.1465 -64.6484 74.9512 -66.9922 72.4609 -69.1406 L 56.6895 -82.666 C 54.1016 -84.9121 51.6602 -86.2305 49.3164 -86.2305 C 45.8984 -86.2305 42.6758 -84.375 42.041 -79.8828 C 40.7715 -71.6309 43.6523 -66.4062 35.791 -57.959 C 34.5703 -56.6406 33.9355 -55.0293 33.9355 -53.4668 C 33.9355 -50.0977 35.498 -48.584 38.2812 -45.752 L 62.6465 -21.2891 C 64.9902 -18.8965 66.8945 -18.2617 68.7012 -18.2617 C 70.8008 -18.2617 71.875 -19.6777 73.877 -21.9238 C 80.9082 -29.7852 88.623 -32.3242 91.6992 -39.6973 C 92.627 -41.8945 92.5781 -43.0176 92.5781 -44.4336 C 92.5781 -47.6562 90.918 -52.0996 86.8652 -55.6641 Z M 59.5703 -14.1113 L 29.4434 -44.4336 C 25.4883 -48.3398 21.4844 -48.1934 17.5781 -44.3848 L 16.0645 -42.9199 C 12.4512 -39.3555 12.793 -34.9609 16.3574 -31.1035 L 25.6836 -21.1914 C 18.1152 -17.0898 14.1113 -15.332 12.0605 -13.1836 C 9.86328 -10.8887 8.78906 -8.20312 8.78906 -5.76172 C 8.78906 1.31836 15.5273 7.76367 22.3145 7.76367 C 24.9512 7.76367 27.6855 6.54297 30.0781 4.15039 C 32.1289 1.95312 33.6914 -2.05078 37.4512 -9.76562 L 46.6797 -0.634766 C 50.2441 2.92969 55.2734 3.27148 58.4961 -0.634766 L 59.9121 -2.34375 C 63.0371 -6.10352 63.6719 -9.96094 59.5703 -14.1113 Z M 22.3145 -2.97852 C 20.6543 -3.02734 19.2383 -4.44336 19.2383 -6.20117 C 19.2871 -7.91016 20.6543 -9.27734 22.3145 -9.27734 C 23.9746 -9.27734 25.3418 -7.95898 25.3906 -6.20117 C 25.3906 -4.44336 23.9746 -2.97852 22.3145 -2.97852 Z"/>
  </g>
  <g id="Black-S" transform="matrix(1 0 0 1 2882.45 696)">
   <path d="M 86.8164 -55.957 C 79.9316 -47.1191 71.0938 -39.7461 67.9199 -39.7461 C 66.748 -39.7461 66.2598 -40.3809 66.2598 -41.3086 C 66.2598 -41.6504 66.5039 -42.0898 66.7969 -42.5293 C 70.7031 -47.4609 75.3418 -57.6172 75.3418 -63.1348 C 75.3418 -64.7461 75.1953 -67.4316 72.2656 -69.9219 L 57.0312 -82.959 C 54.2969 -85.3516 51.6113 -86.8164 49.1211 -86.8164 C 45.459 -86.8164 41.9434 -84.8145 41.2598 -79.9805 C 39.9902 -71.9238 43.8965 -67.0898 35.791 -58.3984 C 34.5215 -57.0312 34.082 -55.4688 34.082 -53.8574 C 34.082 -50.2441 35.7422 -48.4863 38.5742 -45.5566 L 63.0371 -20.9961 C 65.6738 -18.3105 67.6758 -17.8711 69.4336 -17.8711 C 71.6309 -17.8711 72.6074 -19.3359 74.4629 -21.3867 C 81.6895 -29.4434 89.1113 -31.7871 92.1875 -39.0625 C 93.2129 -41.3574 93.1152 -42.3828 93.1152 -43.8477 C 93.1152 -47.2656 91.4062 -52.002 87.1094 -55.7129 Z M 59.375 -13.3301 L 29.1016 -43.7988 C 24.9023 -47.998 20.752 -47.6562 16.6016 -43.75 L 15.0391 -42.334 C 11.1816 -38.7207 11.6699 -33.9844 15.3809 -29.9316 L 24.3164 -20.2637 C 16.3086 -15.9668 13.7695 -14.8438 12.207 -13.2324 C 9.96094 -10.8398 8.78906 -8.20312 8.78906 -5.66406 C 8.78906 1.61133 15.7715 8.25195 22.7539 8.25195 C 25.4395 8.25195 28.1738 6.93359 30.6152 4.49219 C 32.1777 2.7832 33.252 0.146484 37.1094 -7.91016 L 45.8496 0.732422 C 49.5117 4.39453 54.8828 4.88281 58.3008 0.732422 L 59.7168 -0.976562 C 62.8906 -4.78516 63.8672 -8.83789 59.375 -13.3301 Z M 22.7539 -3.02734 C 21.0938 -3.125 19.6777 -4.49219 19.6777 -6.25 C 19.7266 -7.95898 21.0938 -9.32617 22.7539 -9.32617 C 24.4141 -9.32617 25.7812 -8.00781 25.8301 -6.25 C 25.8301 -4.49219 24.4141 -3.02734 22.7539 -3.02734 Z"/>
  </g>
  <g id="Ultralight-M" transform="matrix(1 0 0 1 498.237 1126)">
   <path d="M 104.248 -61.0352 C 101.318 -56.1035 88.4277 -42.8223 85.9375 -42.8223 C 85.2051 -42.8223 84.8633 -43.3105 84.8633 -43.9453 C 84.8633 -44.1895 85.1074 -44.4336 85.2051 -44.6777 C 87.9395 -48.7793 94.9219 -60.3516 94.9219 -66.2598 C 94.9219 -67.7246 94.5312 -69.3359 93.3594 -70.4102 L 69.043 -91.6992 C 66.7969 -93.6035 65.4785 -94.5312 63.3301 -94.5312 C 60.9375 -94.5312 59.4238 -92.4316 58.6914 -87.2559 C 56.9336 -75.1953 56.7871 -69.2871 46.875 -58.3984 C 45.4102 -56.7871 44.7266 -55.4199 44.7266 -53.8086 C 44.7266 -51.8066 45.9473 -49.8535 48.6816 -47.1191 L 77.1484 -18.7012 C 77.7344 -18.0664 78.9551 -17.0898 80.8594 -17.0898 C 82.6172 -17.0898 84.2773 -18.2129 86.377 -20.3613 C 95.8496 -30.1758 106.494 -33.8867 110.742 -44.2871 C 111.426 -45.9961 111.719 -47.9004 111.719 -49.707 C 111.719 -52.5391 109.375 -56.3965 105.615 -59.7168 Z M 75.2441 -14.502 L 41.2109 -48.5352 C 37.3535 -52.3926 33.6914 -52.3926 30.0293 -48.7305 L 27.4414 -46.1426 C 23.7793 -42.4805 23.7793 -38.8184 27.6367 -34.9609 L 40.7227 -21.875 C 25.0977 -15.1855 17.7246 -10.791 15.4785 -8.59375 C 12.5977 -5.85938 11.2305 -2.44141 11.2305 1.31836 C 11.2305 9.42383 17.2363 15.4297 25.3418 15.4297 C 29.1016 15.4297 32.5195 14.0625 35.2539 11.1816 C 37.4512 8.93555 41.8457 1.5625 48.5352 -14.0625 L 61.6699 -0.927734 C 65.4785 2.88086 69.2383 2.88086 72.9004 -0.732422 L 75.4395 -3.27148 C 79.0527 -6.88477 79.0527 -10.6934 75.2441 -14.502 Z M 23.7793 5.85938 C 22.168 5.85938 20.8496 4.58984 20.8496 2.88086 C 20.8496 1.26953 22.168 0 23.7793 0 C 25.293 0 26.6602 1.26953 26.6602 2.88086 C 26.6602 4.58984 25.293 5.85938 23.7793 5.85938 Z"/>
  </g>
  <g id="Thin-M" transform="matrix(1 0 0 1 794.533 1126)">
   <path d="M 104.541 -61.6211 C 100.83 -56.0059 88.2812 -43.2617 85.791 -43.2617 C 85.0098 -43.2617 84.6191 -43.75 84.6191 -44.3848 C 84.6191 -44.6777 84.8633 -44.9219 85.0098 -45.166 C 87.8418 -49.4629 94.9219 -60.6445 94.9219 -66.9434 C 94.9219 -68.6035 94.5312 -70.2148 93.3594 -71.3379 L 69.3848 -92.2363 C 67.0898 -94.2383 65.5762 -95.2148 63.3789 -95.2148 C 60.8398 -95.2148 59.0332 -93.1152 58.3008 -88.0859 C 56.5918 -76.1719 56.3965 -69.873 46.6797 -59.1309 C 45.166 -57.5195 44.3359 -56.0059 44.3359 -54.3457 C 44.3359 -52.1484 45.6543 -50.3418 48.4863 -47.5586 L 77.3438 -18.7012 C 78.2227 -17.8223 79.5898 -16.748 81.543 -16.748 C 83.4473 -16.748 85.0586 -17.9688 87.4023 -20.4102 C 96.6309 -30.0293 107.373 -33.8867 111.572 -44.1895 C 112.256 -45.9473 112.549 -47.9004 112.549 -49.6582 C 112.549 -52.5391 110.254 -56.543 106.445 -59.9609 Z M 75.5859 -13.916 L 40.8203 -48.6816 C 36.9629 -52.5879 33.1055 -52.6855 29.3945 -48.8281 L 26.9531 -46.3867 C 23.291 -42.5781 23.291 -38.8184 27.1484 -34.9609 L 40.2832 -21.7285 C 26.123 -15.4297 18.0664 -10.9863 15.332 -8.30078 C 12.5 -5.61523 11.2305 -2.14844 11.2305 1.41602 C 11.2305 9.57031 17.5293 15.8203 25.5859 15.8203 C 29.248 15.8203 32.666 14.502 35.4004 11.6211 C 38.0859 8.88672 42.3828 0.927734 48.6816 -13.3789 L 61.9141 -0.146484 C 65.7715 3.71094 69.8242 3.71094 73.3398 0 L 75.7812 -2.49023 C 79.4434 -6.25 79.3457 -10.1074 75.5859 -13.916 Z M 24.3164 5.9082 C 22.6074 5.95703 21.1914 4.54102 21.1914 2.73438 C 21.1914 1.02539 22.6074 -0.341797 24.3164 -0.341797 C 25.9277 -0.341797 27.3926 1.02539 27.3926 2.73438 C 27.3926 4.54102 25.9277 5.95703 24.3164 5.9082 Z"/>
  </g>
  <g id="Light-M" transform="matrix(1 0 0 1 1090.44 1126)">
   <path d="M 105.176 -62.8906 C 99.9023 -55.8105 88.0371 -44.0918 85.4492 -44.0918 C 84.5703 -44.0918 84.1309 -44.6289 84.1309 -45.3125 C 84.1309 -45.6055 84.375 -45.8496 84.5703 -46.1426 C 87.6953 -50.7324 94.9707 -61.2305 94.9707 -68.3594 C 94.9707 -70.3125 94.5312 -71.9727 93.3105 -73.0957 L 70.0684 -93.2617 C 67.6758 -95.4102 65.7715 -96.4844 63.5254 -96.4844 C 60.6445 -96.4844 58.3008 -94.4336 57.5684 -89.7461 C 55.957 -78.0273 55.6152 -70.9473 46.2402 -60.5957 C 44.7754 -59.0332 43.6035 -57.2266 43.6035 -55.5176 C 43.6035 -52.8809 45.0684 -51.3184 48.0469 -48.3398 L 77.7832 -18.75 C 79.1504 -17.3828 80.7617 -16.0156 82.9102 -16.0645 C 85.0098 -16.1133 86.6699 -17.4316 89.4531 -20.4102 C 98.1934 -29.834 109.131 -33.8379 113.135 -43.9941 C 113.916 -45.9473 114.16 -47.8027 114.16 -49.5117 C 114.16 -52.5391 112.012 -56.8359 108.008 -60.4004 Z M 76.1719 -12.7441 L 39.9902 -49.0723 C 36.084 -52.9297 31.9336 -53.2227 28.125 -49.1211 L 25.9277 -46.7773 C 22.2656 -42.7734 22.3145 -38.8184 26.1719 -34.9121 L 39.4043 -21.3867 C 28.125 -16.0156 18.75 -11.377 15.0879 -7.76367 C 12.3535 -5.07812 11.2305 -1.5625 11.2305 1.66016 C 11.2305 9.86328 18.1641 16.6016 26.123 16.6016 C 29.4922 16.6016 33.0078 15.332 35.7422 12.5 C 39.3555 8.78906 43.5059 -0.341797 49.0234 -12.0117 L 62.4023 1.41602 C 66.3574 5.37109 70.8984 5.27344 74.2676 1.46484 L 76.4648 -0.927734 C 80.127 -5.0293 79.9805 -8.98438 76.1719 -12.7441 Z M 25.3418 6.00586 C 23.4863 6.05469 21.8262 4.44336 21.875 2.44141 C 21.875 0.537109 23.4375 -1.02539 25.3418 -0.976562 C 27.1484 -1.02539 28.7598 0.537109 28.7598 2.44141 C 28.8086 4.44336 27.1484 6.05469 25.3418 6.00586 Z"/>
  </g>
  <g id="Regular-M" transform="matrix(1 0 0 1 1386.54 1126)">
   <path d="M 105.615 -63.8184 C 99.2188 -55.6641 87.793 -44.7266 85.1562 -44.7266 C 84.2285 -44.7266 83.7891 -45.2637 83.7891 -45.9961 C 83.7891 -46.3379 84.0332 -46.5332 84.2773 -46.875 C 87.5488 -51.709 95.0195 -61.7188 95.0195 -69.4336 C 95.0195 -71.582 94.4824 -73.291 93.3105 -74.4629 L 70.6055 -94.0918 C 68.1152 -96.2891 65.918 -97.4609 63.6719 -97.4609 C 60.498 -97.4609 57.7148 -95.459 57.0312 -91.0156 C 55.4199 -79.4922 55.0293 -71.7285 45.8984 -61.6699 C 44.4824 -60.1562 43.0664 -58.1543 43.0664 -56.3477 C 43.0664 -53.418 44.6289 -52.0508 47.7539 -48.9746 L 78.125 -18.7988 C 79.8828 -17.041 81.6406 -15.4785 83.9844 -15.5273 C 86.1816 -15.5762 87.8906 -17.041 90.9668 -20.459 C 99.3652 -29.6387 110.449 -33.7891 114.307 -43.7988 C 115.137 -45.9473 115.381 -47.7539 115.381 -49.3652 C 115.381 -52.5391 113.33 -57.0801 109.18 -60.7422 Z M 76.6602 -11.9141 L 39.4043 -49.3164 C 35.498 -53.2227 31.0059 -53.6621 27.1484 -49.3164 L 25.1953 -47.0703 C 21.4844 -42.9199 21.582 -38.8184 25.3906 -34.9121 L 38.7695 -21.1426 C 29.6387 -16.4062 19.2871 -11.6699 14.9414 -7.32422 C 12.2559 -4.6875 11.2305 -1.12305 11.2305 1.85547 C 11.2305 10.1074 18.6523 17.1875 26.4648 17.1875 C 29.6875 17.1875 33.2031 15.9668 35.9375 13.1348 C 40.2832 8.69141 44.3359 -1.26953 49.2188 -10.9863 L 62.793 2.53906 C 66.7969 6.5918 71.6797 6.44531 74.9512 2.58789 L 76.9531 0.292969 C 80.6641 -4.10156 80.4199 -8.1543 76.6602 -11.9141 Z M 26.123 6.05469 C 24.1211 6.15234 22.3633 4.3457 22.4121 2.24609 C 22.4121 0.195312 24.0723 -1.51367 26.123 -1.46484 C 28.0762 -1.51367 29.834 0.195312 29.834 2.24609 C 29.8828 4.3457 28.0273 6.15234 26.123 6.05469 Z"/>
  </g>
  <g id="Medium-M" transform="matrix(1 0 0 1 1682.98 1126)">
   <path d="M 106.396 -63.5254 C 99.6094 -54.9316 88.2324 -44.1895 85.4004 -44.1895 C 84.375 -44.1895 83.8867 -44.7754 83.8867 -45.5566 C 83.8867 -45.9473 84.1797 -46.1914 84.4238 -46.582 C 87.9395 -51.6113 95.166 -62.0117 95.166 -69.6777 C 95.166 -71.8262 94.7266 -73.7305 93.1641 -75.2441 L 70.9473 -94.3848 C 68.3105 -96.7285 65.918 -97.998 63.5254 -97.998 C 60.1562 -97.998 57.1289 -95.8984 56.3965 -91.2598 C 54.7852 -79.8828 55.127 -72.3633 45.8496 -62.1582 C 44.4336 -60.5957 43.1152 -58.5938 43.1152 -56.7871 C 43.1152 -53.5645 44.7266 -52.0996 47.9492 -48.9258 L 78.4668 -18.5547 C 80.4688 -16.5527 82.373 -15.1367 84.668 -15.1855 C 86.9629 -15.2344 88.623 -16.748 91.6016 -20.0195 C 100.098 -29.3945 110.938 -33.3496 114.844 -43.2617 C 115.723 -45.5078 115.918 -47.2656 115.918 -48.9258 C 115.918 -52.2461 113.867 -57.0312 109.473 -60.8398 Z M 76.5625 -11.2305 L 39.0625 -48.877 C 34.9121 -52.9785 30.3223 -53.3203 26.2695 -48.877 L 24.3164 -46.7285 C 20.459 -42.4805 20.6055 -38.0859 24.5605 -33.9844 L 37.5977 -20.4102 C 28.3691 -15.5762 19.043 -11.3281 14.9902 -7.27539 C 12.3047 -4.58984 11.2305 -1.07422 11.2305 1.95312 C 11.2305 10.3516 18.8477 17.627 26.8555 17.627 C 30.0781 17.627 33.6426 16.3574 36.4258 13.4766 C 40.4297 9.32617 44.0918 0.292969 48.9746 -9.42383 L 62.1582 3.75977 C 66.3086 7.91016 71.4844 7.86133 74.9023 3.80859 L 76.8555 1.51367 C 80.6152 -2.97852 80.5664 -7.17773 76.5625 -11.2305 Z M 26.5625 6.05469 C 24.5605 6.10352 22.7539 4.29688 22.8027 2.14844 C 22.8027 0.0976562 24.5117 -1.61133 26.5625 -1.5625 C 28.5645 -1.61133 30.2734 0.0976562 30.3223 2.14844 C 30.3223 4.29688 28.5156 6.10352 26.5625 6.05469 Z"/>
  </g>
  <g id="Semibold-M" transform="matrix(1 0 0 1 1979.5 1126)">
   <path d="M 106.982 -63.2812 C 99.9023 -54.3457 88.5254 -43.7988 85.5469 -43.7988 C 84.4727 -43.7988 83.9844 -44.4336 83.9844 -45.2637 C 83.9844 -45.6055 84.2285 -45.9473 84.5215 -46.3379 C 88.2324 -51.5625 95.3125 -62.2559 95.3125 -69.8242 C 95.3125 -71.9727 94.873 -74.1211 93.0664 -75.8301 L 71.1914 -94.6289 C 68.457 -97.0703 65.918 -98.4375 63.4277 -98.4375 C 59.8633 -98.4375 56.6406 -96.2891 55.9082 -91.4062 C 54.2969 -80.2246 55.2734 -72.8516 45.8496 -62.5 C 44.3848 -60.9375 43.1641 -58.9355 43.1641 -57.0801 C 43.1641 -53.6621 44.8242 -52.0996 48.0957 -48.877 L 78.7598 -18.3594 C 80.9082 -16.1621 82.9102 -14.8438 85.2051 -14.8926 C 87.5488 -14.9414 89.1602 -16.5039 92.0898 -19.7266 C 100.684 -29.1992 111.328 -33.0078 115.234 -42.8711 C 116.211 -45.2148 116.309 -46.9238 116.309 -48.584 C 116.309 -52.0508 114.258 -56.9824 109.717 -60.9375 Z M 76.4648 -10.6934 L 38.7695 -48.5352 C 34.5215 -52.832 29.834 -53.0273 25.5859 -48.4863 L 23.6328 -46.3867 C 19.6289 -42.1387 19.8242 -37.5 23.877 -33.252 L 36.7676 -19.8242 C 27.4414 -14.9414 18.8477 -11.0352 15.0879 -7.22656 C 12.3535 -4.49219 11.2305 -1.02539 11.2305 2.05078 C 11.2305 10.5469 19.043 18.0176 27.1484 18.0176 C 30.4199 18.0176 33.9355 16.6504 36.7676 13.7695 C 40.5273 9.86328 43.8965 1.51367 48.7793 -8.20312 L 61.7188 4.6875 C 65.918 8.88672 71.3379 8.93555 74.8535 4.73633 L 76.8066 2.44141 C 80.5664 -2.09961 80.7129 -6.44531 76.4648 -10.6934 Z M 26.9043 6.00586 C 24.9023 6.05469 23.0957 4.24805 23.0957 2.09961 C 23.1445 0 24.8535 -1.70898 26.9043 -1.66016 C 28.9062 -1.70898 30.6641 0 30.6641 2.09961 C 30.7129 4.24805 28.9062 6.10352 26.9043 6.00586 Z"/>
  </g>
  <g id="Bold-M" transform="matrix(1 0 0 1 2275.94 1126)">
   <path d="M 107.764 -63.0371 C 100.293 -53.5645 88.9648 -43.2617 85.7422 -43.2617 C 84.6191 -43.2617 84.082 -43.9453 84.082 -44.8242 C 84.082 -45.2148 84.375 -45.5566 84.668 -45.9961 C 88.623 -51.4648 95.459 -62.5977 95.459 -70.0684 C 95.459 -72.2168 95.1172 -74.6094 92.8711 -76.6113 L 71.5332 -94.9707 C 68.6523 -97.5098 65.918 -98.9746 63.2812 -98.9746 C 59.4727 -98.9746 56.0059 -96.7773 55.2734 -91.6504 C 53.6621 -80.6152 55.3711 -73.4863 45.8008 -62.9883 C 44.2871 -61.377 43.2129 -59.375 43.2129 -57.4707 C 43.2129 -53.8574 44.9707 -52.1484 48.3398 -48.8281 L 79.1016 -18.1152 C 81.4941 -15.625 83.6426 -14.502 85.9375 -14.502 C 88.3789 -14.5508 89.8926 -16.1621 92.7246 -19.2871 C 101.416 -28.9062 111.865 -32.6172 115.771 -42.2852 C 116.797 -44.7754 116.846 -46.3867 116.846 -48.0957 C 116.846 -51.7578 114.795 -56.9336 110.059 -61.0352 Z M 76.3184 -10.0098 L 38.4277 -48.0957 C 33.9355 -52.5879 29.1016 -52.6855 24.6582 -48.0469 L 22.7051 -45.9961 C 18.5547 -41.6504 18.8477 -36.7188 23.0469 -32.3242 L 35.5957 -19.0918 C 26.2207 -14.1113 18.6035 -10.6934 15.1855 -7.22656 C 12.4023 -4.39453 11.2305 -0.927734 11.2305 2.14844 C 11.2305 10.791 19.2871 18.457 27.5391 18.457 C 30.8105 18.457 34.3262 17.0898 37.2559 14.1113 C 40.6738 10.5469 43.6523 3.125 48.4863 -6.64062 L 61.084 5.9082 C 65.4297 10.2051 71.0938 10.3516 74.8047 5.9082 L 76.709 3.66211 C 80.5664 -0.927734 80.8594 -5.46875 76.3184 -10.0098 Z M 27.3438 6.00586 C 25.293 6.00586 23.4863 4.19922 23.5352 2.05078 C 23.5352 -0.0976562 25.293 -1.80664 27.3438 -1.80664 C 29.3945 -1.80664 31.1523 -0.0976562 31.1523 2.05078 C 31.2012 4.19922 29.3945 6.05469 27.3438 6.00586 Z"/>
  </g>
  <g id="Heavy-M" transform="matrix(1 0 0 1 2572.26 1126)">
   <path d="M 108.838 -62.5977 C 100.83 -52.4414 89.5508 -42.5293 86.084 -42.5293 C 84.8145 -42.5293 84.2285 -43.2129 84.2285 -44.2383 C 84.2285 -44.6289 84.5215 -45.0684 84.8633 -45.5078 C 89.1602 -51.3184 95.7031 -63.0371 95.7031 -70.4102 C 95.7031 -72.5586 95.4102 -75.293 92.6758 -77.7344 L 72.0215 -95.459 C 68.8965 -98.1445 65.918 -99.8047 63.0859 -99.8047 C 58.9355 -99.8047 55.0781 -97.4609 54.2969 -91.9922 C 52.6855 -81.25 55.5664 -74.4141 45.752 -63.7207 C 44.1895 -62.0605 43.2617 -60.0098 43.2617 -58.0566 C 43.2617 -54.0527 45.166 -52.1973 48.6328 -48.7305 L 79.5898 -17.7246 C 82.373 -14.8926 84.668 -13.9648 86.9629 -13.9648 C 89.5508 -13.9648 90.9668 -15.7227 93.6523 -18.7012 C 102.49 -28.5156 112.598 -31.9824 116.553 -41.5039 C 117.627 -44.1895 117.627 -45.7031 117.627 -47.4609 C 117.627 -51.3672 115.527 -56.8359 110.547 -61.1816 Z M 76.1719 -8.98438 L 37.9395 -47.4121 C 33.1543 -52.2461 28.125 -52.1484 23.3887 -47.3633 L 21.4355 -45.459 C 16.9922 -40.9668 17.3828 -35.6445 21.7773 -30.957 L 33.9355 -18.0664 C 24.4141 -12.8906 18.2617 -10.1562 15.2832 -7.12891 C 12.5 -4.29688 11.2305 -0.830078 11.2305 2.24609 C 11.2305 11.1816 19.5801 19.1406 28.0762 19.1406 C 31.4453 19.1406 34.9121 17.6758 37.8906 14.6484 C 40.8691 11.5234 43.2617 5.46875 48.0957 -4.3457 L 60.2051 7.66602 C 64.6484 12.1094 70.8008 12.4023 74.707 7.66602 L 76.5625 5.46875 C 80.5176 0.78125 81.1035 -4.00391 76.1719 -8.98438 Z M 27.9785 5.95703 C 25.9277 5.95703 24.1211 4.15039 24.1211 1.9043 C 24.1699 -0.244141 25.9277 -1.95312 27.9785 -1.95312 C 30.0781 -1.95312 31.8359 -0.292969 31.8848 1.9043 C 31.8848 4.15039 30.0781 6.00586 27.9785 5.95703 Z"/>
  </g>
  <g id="Black-M" transform="matrix(1 0 0 1 2868.63 1126)">
   <path d="M 109.863 -62.2559 C 101.318 -51.416 90.1367 -41.8457 86.377 -41.8457 C 84.9609 -41.8457 84.3262 -42.5781 84.3262 -43.6523 C 84.3262 -44.0918 84.668 -44.6289 85.0586 -45.1172 C 89.6973 -51.1719 95.9473 -63.4766 95.9473 -70.752 C 95.9473 -72.8516 95.7031 -75.9277 92.4805 -78.7109 L 72.4609 -95.8496 C 69.1406 -98.7305 65.918 -100.488 62.9395 -100.488 C 58.4961 -100.488 54.2969 -98.0469 53.4668 -92.2852 C 51.8555 -81.7871 55.7617 -75.1953 45.7031 -64.3555 C 44.1406 -62.6465 43.3105 -60.5957 43.3105 -58.5938 C 43.3105 -54.2969 45.3125 -52.2461 48.877 -48.6328 L 80.0781 -17.3828 C 83.1543 -14.2578 85.5957 -13.4766 87.8906 -13.4766 C 90.5762 -13.4766 91.9434 -15.2832 94.4824 -18.1152 C 103.467 -28.1738 113.281 -31.3965 117.236 -40.8203 C 118.408 -43.6035 118.359 -45.0195 118.359 -46.875 C 118.359 -50.9766 116.211 -56.7383 110.938 -61.3281 Z M 76.0254 -8.05664 L 37.5 -46.875 C 32.4219 -51.9043 27.2461 -51.6602 22.2168 -46.7773 L 20.2637 -44.9219 C 15.5762 -40.3809 16.0645 -34.668 20.6543 -29.7363 L 32.4707 -17.0898 C 22.8027 -11.8164 17.9688 -9.7168 15.4297 -7.08008 C 12.5977 -4.15039 11.2305 -0.732422 11.2305 2.39258 C 11.2305 11.5234 19.9219 19.7754 28.5645 19.7754 C 31.9824 19.7754 35.4492 18.2129 38.5254 15.1367 C 41.0645 12.4023 42.9688 7.51953 47.7539 -2.29492 L 59.4238 9.22852 C 64.0137 13.8184 70.5078 14.2578 74.6582 9.22852 L 76.4648 7.08008 C 80.4688 2.24609 81.3477 -2.73438 76.0254 -8.05664 Z M 28.5645 5.9082 C 26.4648 5.85938 24.6582 4.05273 24.6582 1.80664 C 24.707 -0.341797 26.4648 -2.09961 28.5645 -2.09961 C 30.7129 -2.09961 32.4707 -0.439453 32.5195 1.80664 C 32.5195 4.05273 30.7129 5.9082 28.5645 5.9082 Z"/>
  </g>
  <g id="Ultralight-L" transform="matrix(1 0 0 1 480.561 1556)">
   <path d="M 134.375 -68.2129 C 130.957 -62.1582 114.209 -44.873 110.986 -44.873 C 110.059 -44.873 109.57 -45.5078 109.57 -46.2891 C 109.57 -46.582 109.912 -46.9238 110.059 -47.2168 C 113.525 -52.4414 122.461 -67.5293 122.461 -74.9512 C 122.461 -76.7578 122.021 -78.8574 120.459 -80.2246 L 88.916 -107.861 C 86.0352 -110.303 84.4727 -111.475 81.6406 -111.475 C 78.7109 -111.475 76.8555 -108.74 75.8789 -101.953 C 73.584 -86.377 73.4863 -78.9551 60.5957 -64.7949 C 58.6426 -62.6953 57.8613 -60.9863 57.8613 -58.9355 C 57.8613 -56.4453 59.4238 -53.9062 62.9395 -50.3906 L 99.4629 -13.8672 C 100.098 -13.1836 101.66 -11.9629 104.004 -11.9629 C 106.299 -11.9629 108.35 -13.3789 110.986 -16.0156 C 123.34 -28.7598 137.061 -33.4961 142.529 -46.9727 C 143.408 -49.1211 143.848 -51.6113 143.848 -53.9551 C 143.848 -57.5684 140.723 -62.4512 135.986 -66.748 Z M 96.9727 -8.74023 L 53.3691 -52.2949 C 48.3887 -57.2754 43.75 -57.2266 39.0137 -52.5879 L 35.6445 -49.2188 C 30.9082 -44.5312 30.9082 -39.8438 35.8887 -34.8633 L 52.7344 -18.0664 C 31.9336 -9.22852 22.7539 -3.66211 20.0195 -1.02539 C 16.3086 2.53906 14.4531 6.93359 14.4531 11.8652 C 14.4531 22.3145 22.1191 29.9805 32.5684 29.9805 C 37.5 29.9805 41.8945 28.1738 45.4102 24.5117 C 48.0469 21.7773 53.7598 12.5 62.5488 -8.20312 L 79.4922 8.69141 C 84.375 13.5742 89.1113 13.5742 93.8477 8.93555 L 97.2168 5.61523 C 101.855 1.07422 101.904 -3.80859 96.9727 -8.74023 Z M 30.4199 17.7734 C 28.3691 17.7734 26.7578 16.1621 26.7578 14.0137 C 26.7578 12.0117 28.418 10.3516 30.4199 10.3516 C 32.373 10.3516 34.1309 12.0117 34.1309 14.0137 C 34.1309 16.1621 32.4219 17.7734 30.4199 17.7734 Z"/>
  </g>
  <g id="Thin-L" transform="matrix(1 0 0 1 776.808 1556)">
   <path d="M 134.717 -68.9453 C 130.42 -62.0605 114.014 -45.3125 110.791 -45.3125 C 109.814 -45.3125 109.326 -45.9961 109.326 -46.7773 C 109.326 -47.1191 109.619 -47.4609 109.814 -47.8027 C 113.428 -53.1738 122.51 -67.8711 122.51 -75.7324 C 122.51 -77.7344 121.973 -79.834 120.459 -81.25 L 89.3066 -108.447 C 86.377 -110.986 84.5703 -112.207 81.7383 -112.207 C 78.6133 -112.207 76.416 -109.473 75.4395 -102.93 C 73.2422 -87.4512 73.0469 -79.5898 60.3516 -65.625 C 58.4473 -63.5254 57.4707 -61.6699 57.4707 -59.5703 C 57.4707 -56.8848 59.082 -54.4434 62.6953 -50.8789 L 99.707 -13.8672 C 100.635 -12.9395 102.344 -11.5723 104.785 -11.5723 C 107.178 -11.5723 109.277 -13.0859 112.158 -16.0645 C 124.219 -28.6133 138.037 -33.4961 143.457 -46.875 C 144.336 -49.0723 144.727 -51.5625 144.727 -53.8574 C 144.727 -57.5684 141.748 -62.6465 136.865 -66.9922 Z M 97.3145 -8.05664 L 52.9297 -52.4902 C 47.9492 -57.5195 43.0664 -57.5684 38.3301 -52.7344 L 35.1074 -49.4629 C 30.3223 -44.6777 30.3711 -39.8438 35.3516 -34.8633 L 52.2461 -17.8711 C 33.0566 -9.52148 23.1445 -3.85742 19.873 -0.683594 C 16.2109 2.83203 14.4531 7.27539 14.4531 12.0117 C 14.4531 22.4609 22.4609 30.4199 32.8613 30.4199 C 37.6465 30.4199 42.0898 28.6621 45.6055 25 C 48.7793 21.7285 54.3457 11.8164 62.7441 -7.42188 L 79.7363 9.57031 C 84.7168 14.502 89.7461 14.502 94.3848 9.81445 L 97.5586 6.54297 C 102.246 1.75781 102.246 -3.17383 97.3145 -8.05664 Z M 31.0059 17.8223 C 28.9062 17.8223 27.1484 16.1133 27.1484 13.8672 C 27.1484 11.7188 28.9062 9.96094 31.0059 9.96094 C 33.1055 9.96094 34.9121 11.7188 34.9121 13.8672 C 34.9121 16.1133 33.1055 17.8223 31.0059 17.8223 Z"/>
  </g>
  <g id="Light-L" transform="matrix(1 0 0 1 1072.64 1556)">
   <path d="M 135.4 -70.3125 C 129.395 -61.8652 113.721 -46.2402 110.4 -46.2402 C 109.326 -46.2402 108.789 -46.9238 108.789 -47.8027 C 108.789 -48.1934 109.131 -48.4863 109.326 -48.877 C 113.232 -54.6387 122.559 -68.5059 122.559 -77.2949 C 122.559 -79.6387 121.973 -81.7871 120.459 -83.252 L 90.0879 -109.619 C 87.0605 -112.305 84.8145 -113.672 81.9336 -113.672 C 78.3691 -113.672 75.5859 -110.986 74.6582 -104.785 C 72.5098 -89.5508 72.168 -80.7617 59.8633 -67.2363 C 58.0078 -65.1855 56.6406 -63.0371 56.6406 -60.8398 C 56.6406 -57.666 58.4473 -55.5176 62.207 -51.7578 L 100.195 -13.916 C 101.709 -12.4023 103.662 -10.791 106.348 -10.8398 C 108.936 -10.8398 111.084 -12.5 114.404 -16.1133 C 125.977 -28.3691 139.941 -33.4473 145.215 -46.6309 C 146.191 -49.0723 146.533 -51.5137 146.533 -53.7109 C 146.533 -57.5684 143.701 -62.9883 138.574 -67.4805 Z M 97.998 -6.78711 L 52.002 -52.8809 C 46.9727 -57.9102 41.748 -58.2031 36.8652 -53.0273 L 33.9844 -49.9512 C 29.1992 -44.873 29.2969 -39.8438 34.2285 -34.8145 L 51.2695 -17.5293 C 35.3027 -10.1562 23.877 -4.24805 19.5801 -0.0488281 C 16.0156 3.41797 14.4531 7.91016 14.4531 12.2559 C 14.4531 22.8027 23.1445 31.25 33.4473 31.25 C 37.9395 31.25 42.4316 29.5898 45.9473 25.9277 C 50.1953 21.582 55.5664 10.4004 63.0859 -5.9082 L 80.2734 11.2793 C 85.3516 16.3574 90.918 16.2598 95.4102 11.4258 L 98.3398 8.30078 C 103.027 3.125 102.881 -1.9043 97.998 -6.78711 Z M 32.1777 17.9199 C 29.8828 17.9688 27.8809 16.0156 27.8809 13.5254 C 27.8809 11.1816 29.834 9.22852 32.1777 9.27734 C 34.4727 9.22852 36.4258 11.1816 36.4258 13.5254 C 36.4746 16.0156 34.4238 17.9688 32.1777 17.9199 Z"/>
  </g>
  <g id="Regular-L" transform="matrix(1 0 0 1 1368.67 1556)">
   <path d="M 135.938 -71.3379 C 128.613 -61.7188 113.477 -46.9727 110.107 -46.9727 C 108.936 -46.9727 108.398 -47.6562 108.398 -48.5352 C 108.398 -48.9746 108.74 -49.2676 108.984 -49.6582 C 113.086 -55.7129 122.559 -68.9941 122.559 -78.4668 C 122.559 -81.1035 121.924 -83.252 120.41 -84.7656 L 90.6738 -110.498 C 87.5488 -113.281 84.9609 -114.746 82.0312 -114.746 C 78.2227 -114.746 74.9512 -112.109 74.0234 -106.152 C 71.9238 -91.1621 71.4844 -81.6895 59.4727 -68.457 C 57.666 -66.4551 56.0547 -64.0625 56.0547 -61.8164 C 56.0547 -58.252 57.959 -56.3477 61.8652 -52.4414 L 100.537 -13.9648 C 102.49 -12.0605 104.639 -10.2051 107.52 -10.2539 C 110.205 -10.3027 112.402 -12.1094 116.113 -16.1621 C 127.295 -28.1738 141.406 -33.3984 146.533 -46.4355 C 147.559 -49.0723 147.9 -51.4648 147.9 -53.5645 C 147.9 -57.5684 145.166 -63.2324 139.893 -67.8711 Z M 98.5352 -5.85938 L 51.3184 -53.1738 C 46.2891 -58.2031 40.7715 -58.6914 35.8398 -53.2227 L 33.1055 -50.293 C 28.3691 -45.0195 28.4668 -39.8438 33.3984 -34.8145 L 50.5371 -17.2363 C 36.9629 -10.5957 24.4629 -4.58984 19.3848 0.439453 C 15.918 3.85742 14.4531 8.39844 14.4531 12.5 C 14.4531 23.0957 23.6816 31.9336 33.8867 31.9336 C 38.1348 31.9336 42.6758 30.3223 46.1914 26.6602 C 51.2207 21.4844 56.4941 9.375 63.3301 -4.78516 L 80.7129 12.5977 C 85.8398 17.7246 91.8457 17.5781 96.1426 12.6953 L 98.877 9.61914 C 103.613 4.15039 103.369 -0.976562 98.5352 -5.85938 Z M 33.0566 18.0176 C 30.6152 18.1152 28.418 15.918 28.4668 13.2812 C 28.4668 10.791 30.5664 8.69141 33.0566 8.74023 C 35.498 8.69141 37.5977 10.791 37.5977 13.2812 C 37.6465 15.918 35.4492 18.1152 33.0566 18.0176 Z"/>
  </g>
  <g id="Medium-L" transform="matrix(1 0 0 1 1665.01 1556)">
   <path d="M 136.719 -71.2402 C 128.809 -60.9863 113.818 -46.6309 110.254 -46.6309 C 108.984 -46.6309 108.447 -47.3633 108.447 -48.291 C 108.447 -48.7305 108.789 -49.0723 109.033 -49.5117 C 113.379 -55.8105 122.754 -69.3848 122.754 -78.9062 C 122.754 -81.5918 122.119 -83.9355 120.264 -85.7422 L 91.1133 -110.938 C 87.793 -113.867 85.0098 -115.43 81.9336 -115.43 C 77.832 -115.43 74.2676 -112.744 73.3398 -106.641 C 71.2402 -91.7969 71.4844 -82.4219 59.375 -69.0918 C 57.5195 -67.0898 55.957 -64.6484 55.957 -62.3535 C 55.957 -58.4961 57.959 -56.543 62.0117 -52.5391 L 100.928 -13.7695 C 103.174 -11.5234 105.469 -9.76562 108.35 -9.81445 C 111.182 -9.86328 113.33 -11.7188 117.041 -15.7715 C 128.174 -27.8809 142.139 -33.0078 147.266 -45.8984 C 148.34 -48.6816 148.633 -50.9766 148.633 -53.125 C 148.633 -57.2754 145.898 -63.2324 140.43 -68.0176 Z M 98.5352 -5.0293 L 50.8789 -52.832 C 45.6543 -58.0566 39.9414 -58.4473 34.8145 -52.8809 L 32.1289 -50 C 27.2461 -44.6289 27.3926 -39.1602 32.4707 -33.9844 L 49.3652 -16.5039 C 36.1816 -9.96094 24.3164 -4.3457 19.4336 0.537109 C 15.918 4.05273 14.4531 8.54492 14.4531 12.5977 C 14.4531 23.3398 23.9746 32.4707 34.2773 32.4707 C 38.5742 32.4707 43.0664 30.8105 46.6797 27.0996 C 51.5625 22.0703 56.4453 10.6445 63.1348 -3.125 L 80.2246 13.916 C 85.498 19.1895 91.7969 19.0918 96.2402 14.0137 L 98.877 10.9863 C 103.711 5.41992 103.613 0.0976562 98.5352 -5.0293 Z M 33.5938 18.0176 C 31.1035 18.0664 28.9062 15.8691 28.9551 13.1836 C 28.9551 10.5957 31.0547 8.49609 33.5938 8.54492 C 36.1328 8.49609 38.2812 10.5957 38.2812 13.1836 C 38.3301 15.8691 36.084 18.0664 33.5938 18.0176 Z"/>
  </g>
  <g id="Semibold-L" transform="matrix(1 0 0 1 1961.43 1556)">
   <path d="M 137.305 -71.1914 C 128.955 -60.4492 114.062 -46.3379 110.352 -46.3379 C 109.033 -46.3379 108.447 -47.1191 108.447 -48.1445 C 108.447 -48.584 108.789 -48.9258 109.082 -49.4141 C 113.672 -55.9082 122.852 -69.6777 122.852 -79.248 C 122.852 -81.9336 122.314 -84.4727 120.166 -86.4746 L 91.4062 -111.328 C 87.9883 -114.307 85.0098 -115.967 81.8848 -115.967 C 77.5391 -115.967 73.7305 -113.232 72.8027 -106.982 C 70.7031 -92.334 71.4844 -82.959 59.3262 -69.6289 C 57.4219 -67.5781 55.9082 -65.0879 55.9082 -62.7441 C 55.9082 -58.6914 58.0078 -56.6406 62.1094 -52.5879 L 101.221 -13.5742 C 103.711 -11.084 106.104 -9.42383 109.033 -9.47266 C 111.914 -9.52148 114.014 -11.4258 117.725 -15.4785 C 128.906 -27.6855 142.725 -32.7148 147.803 -45.5078 C 148.975 -48.3887 149.17 -50.6348 149.17 -52.7832 C 149.17 -57.0801 146.484 -63.2324 140.82 -68.1641 Z M 98.4863 -4.39453 L 50.5371 -52.5879 C 45.166 -57.959 39.3555 -58.252 34.0332 -52.5879 L 31.3965 -49.7559 C 26.3672 -44.3359 26.6113 -38.623 31.7383 -33.3008 L 48.4863 -15.9668 C 35.5469 -9.42383 24.2676 -4.10156 19.4824 0.634766 C 15.9668 4.15039 14.4531 8.69141 14.4531 12.6953 C 14.4531 23.584 24.2188 32.8613 34.6191 32.8613 C 38.8672 32.8613 43.4082 31.1523 47.0215 27.4414 C 51.8066 22.5586 56.3965 11.5723 62.9883 -1.9043 L 79.8828 14.9414 C 85.2051 20.2637 91.7969 20.2637 96.3379 14.9902 L 98.9258 12.0117 C 103.76 6.34766 103.809 0.878906 98.4863 -4.39453 Z M 34.0332 17.9688 C 31.543 18.0664 29.2969 15.8203 29.2969 13.0859 C 29.3457 10.498 31.4941 8.34961 34.0332 8.39844 C 36.5723 8.34961 38.7695 10.4492 38.7695 13.0859 C 38.8184 15.8203 36.5234 18.0664 34.0332 17.9688 Z"/>
  </g>
  <g id="Bold-L" transform="matrix(1 0 0 1 2257.78 1556)">
   <path d="M 138.135 -71.1426 C 129.199 -59.7168 114.404 -45.9961 110.498 -45.9961 C 109.082 -45.9961 108.447 -46.7773 108.447 -47.8516 C 108.447 -48.3398 108.838 -48.7793 109.18 -49.2676 C 113.965 -56.0059 122.998 -70.0684 122.998 -79.6875 C 122.998 -82.4219 122.51 -85.2051 120.02 -87.4512 L 91.8457 -111.768 C 88.2324 -114.893 85.0586 -116.699 81.7871 -116.699 C 77.1973 -116.699 73.0469 -113.867 72.1191 -107.471 C 70.0195 -93.0176 71.4844 -83.7402 59.2285 -70.2637 C 57.3242 -68.2617 55.8594 -65.6738 55.8594 -63.3301 C 55.8594 -58.9355 58.0078 -56.8359 62.207 -52.6367 L 101.611 -13.3789 C 104.395 -10.5957 106.934 -8.98438 109.863 -9.0332 C 112.891 -9.0332 114.941 -11.084 118.604 -15.0879 C 129.785 -27.3926 143.457 -32.2754 148.535 -44.9707 C 149.756 -47.998 149.902 -50.1953 149.902 -52.3438 C 149.902 -56.8359 147.217 -63.1836 141.357 -68.3105 Z M 98.4863 -3.61328 L 50.0977 -52.1973 C 44.5312 -57.7637 38.5254 -58.0078 33.0078 -52.1973 L 30.4199 -49.4629 C 25.2441 -43.9453 25.5371 -37.9395 30.8105 -32.4219 L 47.2656 -15.2344 C 34.7168 -8.74023 24.1211 -3.85742 19.5312 0.78125 C 16.0156 4.3457 14.4531 8.83789 14.4531 12.8418 C 14.4531 23.877 24.5117 33.4473 35.0586 33.4473 C 39.3066 33.4473 43.7988 31.6895 47.5098 27.9297 C 52.0996 23.1445 56.3477 12.8418 62.793 -0.244141 L 79.3945 16.3086 C 84.8145 21.7285 91.748 21.8262 96.3867 16.3574 L 98.9258 13.3789 C 103.857 7.61719 104.053 1.95312 98.4863 -3.61328 Z M 34.6191 17.9688 C 32.0312 18.0176 29.7852 15.7227 29.7852 12.9883 C 29.834 10.3027 32.0312 8.1543 34.6191 8.1543 C 37.207 8.1543 39.4043 10.3027 39.4531 12.9883 C 39.4531 15.7227 37.1582 18.0664 34.6191 17.9688 Z"/>
  </g>
  <g id="Heavy-L" transform="matrix(1 0 0 1 2553.95 1556)">
   <path d="M 139.258 -71.0449 C 129.492 -58.6426 114.893 -45.5078 110.693 -45.5078 C 109.18 -45.5078 108.496 -46.3379 108.496 -47.5098 C 108.496 -48.0469 108.887 -48.4863 109.277 -49.0723 C 114.453 -56.2012 123.242 -70.6543 123.242 -80.3223 C 123.242 -83.1055 122.754 -86.2305 119.824 -88.8672 L 92.4316 -112.451 C 88.623 -115.771 85.1074 -117.725 81.6406 -117.725 C 76.6602 -117.725 72.0703 -114.795 71.0938 -108.154 C 68.9941 -93.9941 71.4844 -84.8145 59.082 -71.2402 C 57.1289 -69.1895 55.7617 -66.5527 55.7617 -64.1113 C 55.7617 -59.3262 58.0566 -57.1289 62.4023 -52.7344 L 102.197 -13.0371 C 105.371 -9.81445 108.154 -8.34961 111.133 -8.34961 C 114.307 -8.39844 116.309 -10.5469 119.922 -14.5508 C 131.152 -27.002 144.531 -31.6895 149.609 -44.1895 C 150.928 -47.4121 150.977 -49.5117 150.977 -51.709 C 150.977 -56.4941 148.291 -63.1836 142.139 -68.5547 Z M 98.4863 -2.44141 L 49.4629 -51.709 C 43.6035 -57.5684 37.3535 -57.6172 31.543 -51.6602 L 29.0527 -49.0234 C 23.584 -43.3594 23.9746 -36.9629 29.4434 -31.2012 L 45.5566 -14.209 C 33.4961 -7.76367 23.9746 -3.4668 19.5801 0.976562 C 16.0645 4.58984 14.4531 9.0332 14.4531 12.9883 C 14.4531 24.2676 24.9512 34.2285 35.6445 34.2285 C 39.8926 34.2285 44.4336 32.4219 48.1934 28.6133 C 52.5879 24.0234 56.25 14.6973 62.5 2.19727 L 78.6621 18.2617 C 84.2773 23.8281 91.6992 24.0723 96.5332 18.2617 L 98.9746 15.3809 C 103.955 9.42383 104.443 3.51562 98.4863 -2.44141 Z M 35.4492 17.9688 C 32.8125 17.9688 30.4688 15.625 30.5176 12.8418 C 30.5664 10.0586 32.7637 7.86133 35.4492 7.86133 C 38.1348 7.86133 40.332 10.0098 40.3809 12.8418 C 40.4297 15.625 38.0859 18.0176 35.4492 17.9688 Z"/>
  </g>
  <g id="Black-L" transform="matrix(1 0 0 1 2850.2 1556)">
   <path d="M 140.283 -70.9473 C 129.736 -57.666 115.332 -45.0195 110.889 -45.0195 C 109.277 -45.0195 108.545 -45.9473 108.545 -47.2168 C 108.545 -47.7539 108.887 -48.291 109.326 -48.877 C 114.893 -56.2988 123.438 -71.1426 123.438 -80.8594 C 123.438 -83.6914 123.047 -87.1582 119.629 -90.1855 L 92.9688 -113.037 C 88.9648 -116.553 85.1074 -118.604 81.4941 -118.604 C 76.1719 -118.604 71.1426 -115.625 70.166 -108.789 C 68.0664 -94.873 71.4844 -85.791 58.9355 -72.1191 C 56.9824 -70.0195 55.6641 -67.334 55.6641 -64.7949 C 55.6641 -59.668 58.1055 -57.373 62.5488 -52.832 L 102.686 -12.7441 C 106.299 -9.13086 109.229 -7.76367 112.256 -7.76367 C 115.576 -7.8125 117.48 -10.0586 121.045 -14.0625 C 132.324 -26.6602 145.508 -31.2012 150.537 -43.5059 C 151.953 -46.9238 151.953 -48.877 151.953 -51.123 C 151.953 -56.1523 149.268 -63.1836 142.871 -68.7988 Z M 98.4863 -1.36719 L 48.877 -51.2207 C 42.7734 -57.373 36.2793 -57.3242 30.2246 -51.1719 L 27.7832 -48.6328 C 22.0703 -42.8711 22.6074 -36.0352 28.2227 -30.0781 L 44.043 -13.2812 C 32.4707 -6.88477 23.8281 -3.125 19.6289 1.12305 C 16.1133 4.78516 14.4531 9.27734 14.4531 13.1836 C 14.4531 24.6094 25.3418 34.9121 36.2305 34.9121 C 40.4297 34.9121 44.9707 33.0566 48.8281 29.1992 C 52.9785 24.8047 56.2012 16.3574 62.2559 4.3457 L 78.0762 20.0195 C 83.7891 25.7324 91.6504 26.0742 96.6309 20.0195 L 98.9746 17.1875 C 104.053 11.0352 104.736 4.93164 98.4863 -1.36719 Z M 36.1816 17.9688 C 33.4961 17.9199 31.1035 15.5762 31.1035 12.6465 C 31.2012 9.86328 33.4473 7.56836 36.1816 7.61719 C 38.916 7.56836 41.2109 9.81445 41.2598 12.6465 C 41.2598 15.5762 38.916 18.0176 36.1816 17.9688 Z"/>
  </g>
 </g>
</svg>
