<?xml version="1.0" encoding="UTF-8"?>
<!--Generator: Apple Native CoreSVG 123-->
<!DOCTYPE svg
PUBLIC "-//W3C//DTD SVG 1.1//EN"
       "http://www.w3.org/Graphics/SVG/1.1/DTD/svg11.dtd">
<svg version="1.1" xmlns="http://www.w3.org/2000/svg" xmlns:xlink="http://www.w3.org/1999/xlink" width="3300" height="2200">
 <!--glyph: "uni100262.medium", point size: 100.000000, font version: "Version 15.0d4e20", template writer version: "2"-->
 <g id="Notes">
  <rect height="2200" id="artboard" style="fill:white;opacity:1" width="3300" x="0" y="0"/>
  <line id="" style="fill:none;stroke:black;opacity:1;stroke-width:0.5;" x1="263" x2="3036" y1="292" y2="292"/>
  <text style="stroke:none;fill:black;font-family:-apple-system,&quot;SF Pro Display&quot;,&quot;SF Pro Text&quot;,Helvetica,sans-serif;font-weight:bold;" transform="matrix(1 0 0 1 263 322)">Weight/Scale Variations</text>
  <text style="stroke:none;fill:black;font-family:-apple-system,&quot;SF Pro Display&quot;,&quot;SF Pro Text&quot;,Helvetica,sans-serif;text-anchor:middle;" transform="matrix(1 0 0 1 559.711 322)">Ultralight</text>
  <text style="stroke:none;fill:black;font-family:-apple-system,&quot;SF Pro Display&quot;,&quot;SF Pro Text&quot;,Helvetica,sans-serif;text-anchor:middle;" transform="matrix(1 0 0 1 856.422 322)">Thin</text>
  <text style="stroke:none;fill:black;font-family:-apple-system,&quot;SF Pro Display&quot;,&quot;SF Pro Text&quot;,Helvetica,sans-serif;text-anchor:middle;" transform="matrix(1 0 0 1 1153.13 322)">Light</text>
  <text style="stroke:none;fill:black;font-family:-apple-system,&quot;SF Pro Display&quot;,&quot;SF Pro Text&quot;,Helvetica,sans-serif;text-anchor:middle;" transform="matrix(1 0 0 1 1449.84 322)">Regular</text>
  <text style="stroke:none;fill:black;font-family:-apple-system,&quot;SF Pro Display&quot;,&quot;SF Pro Text&quot;,Helvetica,sans-serif;text-anchor:middle;" transform="matrix(1 0 0 1 1746.56 322)">Medium</text>
  <text style="stroke:none;fill:black;font-family:-apple-system,&quot;SF Pro Display&quot;,&quot;SF Pro Text&quot;,Helvetica,sans-serif;text-anchor:middle;" transform="matrix(1 0 0 1 2043.27 322)">Semibold</text>
  <text style="stroke:none;fill:black;font-family:-apple-system,&quot;SF Pro Display&quot;,&quot;SF Pro Text&quot;,Helvetica,sans-serif;text-anchor:middle;" transform="matrix(1 0 0 1 2339.98 322)">Bold</text>
  <text style="stroke:none;fill:black;font-family:-apple-system,&quot;SF Pro Display&quot;,&quot;SF Pro Text&quot;,Helvetica,sans-serif;text-anchor:middle;" transform="matrix(1 0 0 1 2636.69 322)">Heavy</text>
  <text style="stroke:none;fill:black;font-family:-apple-system,&quot;SF Pro Display&quot;,&quot;SF Pro Text&quot;,Helvetica,sans-serif;text-anchor:middle;" transform="matrix(1 0 0 1 2933.4 322)">Black</text>
  <line id="" style="fill:none;stroke:black;opacity:1;stroke-width:0.5;" x1="263" x2="3036" y1="1903" y2="1903"/>
  <g id="" transform="matrix(1 0 0 1 263 1933)">
   <path d="M 9.24805 0.830078 C 13.5547 0.830078 17.1387 -2.74414 17.1387 -7.05078 C 17.1387 -11.3574 13.5449 -14.9316 9.23828 -14.9316 C 4.94141 -14.9316 1.36719 -11.3574 1.36719 -7.05078 C 1.36719 -2.74414 4.95117 0.830078 9.24805 0.830078 Z M 9.24805 -0.654297 C 5.70312 -0.654297 2.87109 -3.49609 2.87109 -7.05078 C 2.87109 -10.6055 5.69336 -13.4473 9.23828 -13.4473 C 12.793 -13.4473 15.6348 -10.6055 15.6445 -7.05078 C 15.6543 -3.49609 12.8027 -0.654297 9.24805 -0.654297 Z M 9.22852 -3.42773 C 9.69727 -3.42773 9.9707 -3.74023 9.9707 -4.25781 L 9.9707 -6.31836 L 12.1973 -6.31836 C 12.6953 -6.31836 13.0371 -6.57227 13.0371 -7.04102 C 13.0371 -7.51953 12.7148 -7.7832 12.1973 -7.7832 L 9.9707 -7.7832 L 9.9707 -10.0098 C 9.9707 -10.5273 9.69727 -10.8496 9.22852 -10.8496 C 8.75977 -10.8496 8.50586 -10.5078 8.50586 -10.0098 L 8.50586 -7.7832 L 6.29883 -7.7832 C 5.78125 -7.7832 5.44922 -7.51953 5.44922 -7.04102 C 5.44922 -6.57227 5.80078 -6.31836 6.29883 -6.31836 L 8.50586 -6.31836 L 8.50586 -4.25781 C 8.50586 -3.75977 8.75977 -3.42773 9.22852 -3.42773 Z"/>
  </g>
  <g id="" transform="matrix(1 0 0 1 281.506 1933)">
   <path d="M 11.709 2.91016 C 17.1484 2.91016 21.6699 -1.60156 21.6699 -7.05078 C 21.6699 -12.4902 17.1387 -17.0117 11.6992 -17.0117 C 6.25 -17.0117 1.74805 -12.4902 1.74805 -7.05078 C 1.74805 -1.60156 6.25977 2.91016 11.709 2.91016 Z M 11.709 1.25 C 7.09961 1.25 3.41797 -2.44141 3.41797 -7.05078 C 3.41797 -11.6504 7.08984 -15.3516 11.6992 -15.3516 C 16.2988 -15.3516 20 -11.6504 20.0098 -7.05078 C 20.0195 -2.44141 16.3086 1.25 11.709 1.25 Z M 11.6797 -2.41211 C 12.207 -2.41211 12.5195 -2.77344 12.5195 -3.33984 L 12.5195 -6.23047 L 15.5762 -6.23047 C 16.123 -6.23047 16.5039 -6.51367 16.5039 -7.03125 C 16.5039 -7.55859 16.1426 -7.86133 15.5762 -7.86133 L 12.5195 -7.86133 L 12.5195 -10.9277 C 12.5195 -11.5039 12.207 -11.8555 11.6797 -11.8555 C 11.1621 -11.8555 10.8789 -11.4844 10.8789 -10.9277 L 10.8789 -7.86133 L 7.83203 -7.86133 C 7.25586 -7.86133 6.89453 -7.55859 6.89453 -7.03125 C 6.89453 -6.51367 7.28516 -6.23047 7.83203 -6.23047 L 10.8789 -6.23047 L 10.8789 -3.33984 C 10.8789 -2.79297 11.1621 -2.41211 11.6797 -2.41211 Z"/>
  </g>
  <g id="" transform="matrix(1 0 0 1 304.914 1933)">
   <path d="M 14.9707 5.67383 C 21.9336 5.67383 27.6855 -0.078125 27.6855 -7.04102 C 27.6855 -14.0039 21.9238 -19.7559 14.9609 -19.7559 C 7.99805 -19.7559 2.25586 -14.0039 2.25586 -7.04102 C 2.25586 -0.078125 8.00781 5.67383 14.9707 5.67383 Z M 14.9707 3.85742 C 8.92578 3.85742 4.08203 -1.00586 4.08203 -7.04102 C 4.08203 -13.0762 8.91602 -17.9395 14.9609 -17.9395 C 20.9961 -17.9395 25.8594 -13.0762 25.8691 -7.04102 C 25.8789 -1.00586 21.0059 3.85742 14.9707 3.85742 Z M 14.9414 -1.06445 C 15.5176 -1.06445 15.8594 -1.45508 15.8594 -2.06055 L 15.8594 -6.13281 L 20.0977 -6.13281 C 20.6934 -6.13281 21.1133 -6.46484 21.1133 -7.02148 C 21.1133 -7.59766 20.7227 -7.93945 20.0977 -7.93945 L 15.8594 -7.93945 L 15.8594 -12.1875 C 15.8594 -12.8027 15.5176 -13.1934 14.9414 -13.1934 C 14.3848 -13.1934 14.0625 -12.7832 14.0625 -12.1875 L 14.0625 -7.93945 L 9.82422 -7.93945 C 9.20898 -7.93945 8.80859 -7.59766 8.80859 -7.02148 C 8.80859 -6.46484 9.23828 -6.13281 9.82422 -6.13281 L 14.0625 -6.13281 L 14.0625 -2.06055 C 14.0625 -1.47461 14.3848 -1.06445 14.9414 -1.06445 Z"/>
  </g>
  <text style="stroke:none;fill:black;font-family:-apple-system,&quot;SF Pro Display&quot;,&quot;SF Pro Text&quot;,Helvetica,sans-serif;font-weight:bold;" transform="matrix(1 0 0 1 263 1953)">Design Variations</text>
  <text style="stroke:none;fill:black;font-family:-apple-system,&quot;SF Pro Display&quot;,&quot;SF Pro Text&quot;,Helvetica,sans-serif;" transform="matrix(1 0 0 1 263 1971)">Symbols are supported in up to nine weights and three scales.</text>
  <text style="stroke:none;fill:black;font-family:-apple-system,&quot;SF Pro Display&quot;,&quot;SF Pro Text&quot;,Helvetica,sans-serif;" transform="matrix(1 0 0 1 263 1989)">For optimal layout with text and other symbols, vertically align</text>
  <text style="stroke:none;fill:black;font-family:-apple-system,&quot;SF Pro Display&quot;,&quot;SF Pro Text&quot;,Helvetica,sans-serif;" transform="matrix(1 0 0 1 263 2007)">symbols with the adjacent text.</text>
  <rect height="14" id="" style="fill:#00AEEF;stroke:none;opacity:0.4;" width="3" x="776" y="1919"/>
  <g id="" transform="matrix(1 0 0 1 779 1933)">
   <path d="M 10.5273 0 L 12.373 0 L 7.17773 -14.0918 L 5.43945 -14.0918 L 0.244141 0 L 2.08984 0 L 3.50586 -4.0332 L 9.11133 -4.0332 Z M 6.2793 -11.9531 L 6.33789 -11.9531 L 8.59375 -5.52734 L 4.02344 -5.52734 Z"/>
  </g>
  <rect height="14" id="" style="fill:#00AEEF;stroke:none;opacity:0.4;" width="3" x="791.617" y="1919"/>
  <text style="stroke:none;fill:black;font-family:-apple-system,&quot;SF Pro Display&quot;,&quot;SF Pro Text&quot;,Helvetica,sans-serif;font-weight:bold;" transform="matrix(1 0 0 1 776 1953)">Side Bearings</text>
  <text style="stroke:none;fill:black;font-family:-apple-system,&quot;SF Pro Display&quot;,&quot;SF Pro Text&quot;,Helvetica,sans-serif;" transform="matrix(1 0 0 1 776 1971)">Horizontal padding on the left and right side of each symbol</text>
  <text style="stroke:none;fill:black;font-family:-apple-system,&quot;SF Pro Display&quot;,&quot;SF Pro Text&quot;,Helvetica,sans-serif;" transform="matrix(1 0 0 1 776 1989)">can be adjusted by modifying the width of the blue rectangles.</text>
  <text style="stroke:none;fill:black;font-family:-apple-system,&quot;SF Pro Display&quot;,&quot;SF Pro Text&quot;,Helvetica,sans-serif;" transform="matrix(1 0 0 1 776 2007)">Modifications are automatically applied proportionally to all</text>
  <text style="stroke:none;fill:black;font-family:-apple-system,&quot;SF Pro Display&quot;,&quot;SF Pro Text&quot;,Helvetica,sans-serif;" transform="matrix(1 0 0 1 776 2025)">scales and weights.</text>
  <g id="" transform="matrix(1 0 0 1 1289 1933)">
   <path d="M 2.96875 2.35352 L 3.80859 3.19336 C 4.84375 4.22852 6.12305 4.15039 7.19727 2.97852 L 16.1621 -6.82617 C 16.5527 -6.74805 16.9629 -6.8457 17.4902 -7.02148 C 18.1738 -7.25586 18.2715 -7.25586 18.3887 -7.13867 C 18.5352 -7.01172 18.4863 -6.89453 18.2422 -6.25 C 17.8809 -5.33203 17.8125 -4.79492 18.5547 -4.02344 L 19.4238 -3.13477 C 20.2734 -2.24609 21.3281 -2.26562 22.2168 -3.14453 L 25.0586 -5.97656 C 25.9473 -6.86523 25.957 -7.92969 25.0781 -8.7793 L 24.1797 -9.64844 C 23.4082 -10.4004 22.8711 -10.3516 21.9629 -9.98047 C 21.3184 -9.72656 21.2012 -9.6875 21.0645 -9.81445 C 20.9375 -9.93164 20.9473 -10.0391 21.1816 -10.7129 C 21.5332 -11.6895 21.5723 -12.2852 20.752 -13.0957 L 19.3359 -14.5117 C 15.1953 -18.6133 11.2305 -18.7402 7.65625 -15.4395 C 7.08008 -14.9023 6.99219 -14.1504 7.53906 -13.6133 L 7.79297 -13.3594 C 8.22266 -12.9297 8.86719 -12.8418 9.41406 -13.1152 C 11.0645 -13.9453 12.2559 -14.0234 13.457 -12.9785 L 13.0273 -11.416 C 12.8516 -10.8008 12.793 -10.3418 12.9199 -9.93164 L 3.18359 -1.04492 C 2.02148 0.0292969 1.93359 1.32812 2.96875 2.35352 Z M 8.96484 -14.4922 C 8.89648 -14.5703 8.86719 -14.6582 8.99414 -14.7559 C 11.709 -17.2852 15.0391 -16.8457 18.3496 -13.5254 L 19.6973 -12.168 C 20.0879 -11.7773 20.0977 -11.582 19.8828 -10.8691 C 19.6582 -10.127 19.502 -9.53125 20.1465 -8.88672 C 20.8105 -8.22266 21.2891 -8.41797 22.207 -8.63281 C 22.9004 -8.79883 23.0664 -8.79883 23.4473 -8.41797 L 24.0918 -7.77344 C 24.4043 -7.48047 24.4141 -7.32422 24.0723 -6.97266 L 21.2207 -4.13086 C 20.8887 -3.79883 20.7227 -3.79883 20.4297 -4.10156 L 19.7852 -4.75586 C 19.4141 -5.13672 19.4141 -5.30273 19.5801 -6.01562 C 19.7852 -6.88477 19.9805 -7.38281 19.3262 -8.04688 C 18.6719 -8.7207 18.0762 -8.57422 17.3438 -8.33008 C 16.5625 -8.06641 16.3281 -8.06641 15.8984 -8.49609 L 14.6094 -9.78516 C 14.1699 -10.2246 14.1309 -10.4395 14.2676 -10.9082 L 15.0293 -13.3984 C 13.3887 -15.2832 11.4941 -15.5566 9.20898 -14.4434 C 9.11133 -14.3945 9.04297 -14.4141 8.96484 -14.4922 Z M 3.96484 1.36719 C 3.52539 0.927734 3.54492 0.537109 4.14062 -0.00976562 L 13.7402 -8.81836 L 15 -7.55859 L 6.17188 2.02148 C 5.625 2.60742 5.24414 2.64648 4.79492 2.19727 Z"/>
  </g>
  <text style="stroke:none;fill:black;font-family:-apple-system,&quot;SF Pro Display&quot;,&quot;SF Pro Text&quot;,Helvetica,sans-serif;font-weight:bold;" transform="matrix(1 0 0 1 1289 1953)">Exporting</text>
  <text style="stroke:none;fill:black;font-family:-apple-system,&quot;SF Pro Display&quot;,&quot;SF Pro Text&quot;,Helvetica,sans-serif;" transform="matrix(1 0 0 1 1289 1971)">Symbols should be outlined when exporting to ensure the</text>
  <text style="stroke:none;fill:black;font-family:-apple-system,&quot;SF Pro Display&quot;,&quot;SF Pro Text&quot;,Helvetica,sans-serif;" transform="matrix(1 0 0 1 1289 1989)">design is preserved when submitting to Xcode.</text>
  <text id="template-version" style="stroke:none;fill:black;font-family:-apple-system,&quot;SF Pro Display&quot;,&quot;SF Pro Text&quot;,Helvetica,sans-serif;text-anchor:end;" transform="matrix(1 0 0 1 3036 1933)">Template v.0.1</text>
  <text style="stroke:none;fill:black;font-family:-apple-system,&quot;SF Pro Display&quot;,&quot;SF Pro Text&quot;,Helvetica,sans-serif;text-anchor:end;" transform="matrix(1 0 0 1 3036 1951)">Generated from paperclip</text>
  <text style="stroke:none;fill:black;font-family:-apple-system,&quot;SF Pro Display&quot;,&quot;SF Pro Text&quot;,Helvetica,sans-serif;text-anchor:end;" transform="matrix(1 0 0 1 3036 1969)">Typeset at 100 points</text>
  <text style="stroke:none;fill:black;font-family:-apple-system,&quot;SF Pro Display&quot;,&quot;SF Pro Text&quot;,Helvetica,sans-serif;" transform="matrix(1 0 0 1 263 726)">Small</text>
  <text style="stroke:none;fill:black;font-family:-apple-system,&quot;SF Pro Display&quot;,&quot;SF Pro Text&quot;,Helvetica,sans-serif;" transform="matrix(1 0 0 1 263 1156)">Medium</text>
  <text style="stroke:none;fill:black;font-family:-apple-system,&quot;SF Pro Display&quot;,&quot;SF Pro Text&quot;,Helvetica,sans-serif;" transform="matrix(1 0 0 1 263 1586)">Large</text>
 </g>
 <g id="Guides">
  <g id="H-reference" style="fill:#27AAE1;stroke:none;" transform="matrix(1 0 0 1 339 696)">
   <path d="M 54.9316 0 L 57.666 0 L 30.5664 -70.459 L 28.0762 -70.459 L 0.976562 0 L 3.66211 0 L 12.9395 -24.4629 L 45.7031 -24.4629 Z M 29.1992 -67.0898 L 29.4434 -67.0898 L 44.8242 -26.709 L 13.8184 -26.709 Z"/>
  </g>
  <line id="Baseline-S" style="fill:none;stroke:#27AAE1;opacity:1;stroke-width:0.577;" x1="263" x2="3036" y1="696" y2="696"/>
  <line id="Capline-S" style="fill:none;stroke:#27AAE1;opacity:1;stroke-width:0.577;" x1="263" x2="3036" y1="625.541" y2="625.541"/>
  <g id="H-reference" style="fill:#27AAE1;stroke:none;" transform="matrix(1 0 0 1 339 1126)">
   <path d="M 54.9316 0 L 57.666 0 L 30.5664 -70.459 L 28.0762 -70.459 L 0.976562 0 L 3.66211 0 L 12.9395 -24.4629 L 45.7031 -24.4629 Z M 29.1992 -67.0898 L 29.4434 -67.0898 L 44.8242 -26.709 L 13.8184 -26.709 Z"/>
  </g>
  <line id="Baseline-M" style="fill:none;stroke:#27AAE1;opacity:1;stroke-width:0.577;" x1="263" x2="3036" y1="1126" y2="1126"/>
  <line id="Capline-M" style="fill:none;stroke:#27AAE1;opacity:1;stroke-width:0.577;" x1="263" x2="3036" y1="1055.54" y2="1055.54"/>
  <g id="H-reference" style="fill:#27AAE1;stroke:none;" transform="matrix(1 0 0 1 339 1556)">
   <path d="M 54.9316 0 L 57.666 0 L 30.5664 -70.459 L 28.0762 -70.459 L 0.976562 0 L 3.66211 0 L 12.9395 -24.4629 L 45.7031 -24.4629 Z M 29.1992 -67.0898 L 29.4434 -67.0898 L 44.8242 -26.709 L 13.8184 -26.709 Z"/>
  </g>
  <line id="Baseline-L" style="fill:none;stroke:#27AAE1;opacity:1;stroke-width:0.577;" x1="263" x2="3036" y1="1556" y2="1556"/>
  <line id="Capline-L" style="fill:none;stroke:#27AAE1;opacity:1;stroke-width:0.577;" x1="263" x2="3036" y1="1485.54" y2="1485.54"/>
  <rect height="119.336" id="left-margin" style="fill:#00AEEF;stroke:none;opacity:0.4;" width="11.2408" x="1392.08" y="1030.79"/>
  <rect height="119.336" id="right-margin" style="fill:#00AEEF;stroke:none;opacity:0.4;" width="11.1871" x="1496.42" y="1030.79"/>
 </g>
 <g id="Symbols">
  <g id="Ultralight-S" transform="matrix(1 0 0 1 517.109 696)">
   <path d="M 70.5566 -32.9102 L 40.7715 -3.125 C 33.1543 4.44336 22.9004 3.27148 16.3574 -3.27148 C 9.86328 -9.76562 8.69141 -20.0684 16.2598 -27.6367 L 54.541 -65.8691 C 60.0098 -71.4355 66.9922 -69.9707 70.8008 -66.1133 C 74.6582 -62.3535 76.0742 -55.3711 70.6055 -49.8535 L 33.1055 -12.3535 C 30.5176 -9.86328 27.3926 -10.2051 25.3418 -12.207 C 23.291 -14.2578 22.9492 -17.4316 25.4395 -19.9707 L 53.2715 -47.7539 C 53.8574 -48.3398 53.7109 -48.9746 53.3203 -49.3652 C 52.9297 -49.7559 52.3438 -49.9023 51.709 -49.2676 L 23.9258 -21.4844 C 20.459 -17.9688 20.8496 -13.3789 23.6816 -10.5957 C 26.5137 -7.71484 31.1035 -7.32422 34.5703 -10.8398 L 72.1191 -48.3398 C 78.6621 -54.9316 76.9043 -63.0859 72.3145 -67.6758 C 67.7246 -72.2656 59.5703 -74.0723 52.9785 -67.4316 L 14.8926 -29.3457 C 5.85938 -20.3613 7.66602 -8.88672 14.8438 -1.70898 C 22.0215 5.46875 33.4961 7.17773 42.4805 -1.75781 L 72.0703 -31.3965 C 72.6074 -31.8848 72.5586 -32.6172 72.168 -33.0078 C 71.7773 -33.3984 71.0938 -33.4473 70.5566 -32.9102 Z"/>
  </g>
  <g id="Thin-S" transform="matrix(1 0 0 1 813.087 696)">
   <path d="M 70.7031 -32.9102 L 41.4062 -3.61328 C 33.8867 3.90625 23.7305 2.88086 17.2852 -3.61328 C 10.791 -10.0586 9.76562 -20.2148 17.2852 -27.7344 L 55.5664 -66.0156 C 60.7422 -71.1914 67.5781 -70.3125 71.5332 -66.4062 C 75.4395 -62.5 76.3184 -55.6641 71.1426 -50.4395 L 33.6426 -12.9395 C 31.25 -10.5957 28.3691 -11.0352 26.5137 -12.8418 C 24.707 -14.6973 24.2676 -17.5781 26.6113 -19.9707 L 54.0039 -47.2656 C 54.7363 -47.998 54.6387 -48.9746 54.0527 -49.5605 C 53.4668 -50.1465 52.5879 -50.1953 51.8066 -49.4629 L 24.4141 -22.0703 C 20.8496 -18.457 21.1914 -13.5254 24.1699 -10.498 C 27.2461 -7.42188 32.1289 -7.12891 35.7422 -10.7422 L 73.291 -48.291 C 80.0293 -55.0293 78.6621 -63.5742 73.6328 -68.6035 C 68.6035 -73.6328 60.1074 -75.0488 53.3203 -68.2617 L 15.0879 -30.0293 C 5.95703 -20.8984 7.4707 -8.88672 14.9902 -1.31836 C 22.5586 6.20117 34.6191 7.66602 43.7012 -1.41602 L 72.9492 -30.6641 C 73.6328 -31.3477 73.6328 -32.4219 72.998 -33.0078 C 72.4121 -33.6426 71.4355 -33.5938 70.7031 -32.9102 Z"/>
  </g>
  <g id="Light-S" transform="matrix(1 0 0 1 1108.36 696)">
   <path d="M 71.0449 -32.9102 L 42.627 -4.49219 C 35.2539 2.88086 25.3418 2.05078 19.043 -4.29688 C 12.6953 -10.5957 11.8652 -20.459 19.2383 -27.8809 L 57.5684 -66.1621 C 62.1582 -70.8008 68.75 -70.9961 72.8516 -66.8945 C 77.002 -62.7441 76.7578 -56.2012 72.168 -51.6113 L 34.7168 -14.1113 C 32.666 -12.0605 30.2246 -12.5977 28.7598 -14.0137 C 27.3438 -15.4785 26.8555 -17.8711 28.8574 -19.9219 L 55.3223 -46.3867 C 56.3965 -47.4609 56.4453 -48.9258 55.4688 -49.9023 C 54.4922 -50.8789 52.9785 -50.8301 51.9531 -49.8047 L 25.3906 -23.2422 C 21.582 -19.3848 21.7285 -13.6719 25.0977 -10.3516 C 28.6621 -6.78711 34.1309 -6.78711 37.9883 -10.5957 L 75.6348 -48.2422 C 82.666 -55.2734 82.0801 -64.4531 76.1719 -70.4102 C 70.3613 -76.2207 61.0352 -76.9043 54.0039 -69.873 L 15.5273 -31.3477 C 6.15234 -21.9727 7.03125 -8.83789 15.332 -0.585938 C 23.6328 7.66602 36.7676 8.59375 46.0938 -0.732422 L 74.6582 -29.2969 C 75.6836 -30.2734 75.6836 -32.0801 74.6582 -33.0078 C 73.6816 -34.0332 72.0703 -33.8867 71.0449 -32.9102 Z"/>
  </g>
  <g id="Regular-S" transform="matrix(1 0 0 1 1403.99 696)">
   <path d="M 71.2891 -32.9102 L 43.5547 -5.17578 C 36.2793 2.14844 26.6113 1.46484 20.3613 -4.78516 C 14.1113 -11.0352 13.4277 -20.6543 20.752 -27.9785 L 59.1309 -66.3086 C 63.2324 -70.459 69.6289 -71.5332 73.877 -67.2852 C 78.1738 -62.9395 77.0996 -56.6406 72.9492 -52.4902 L 35.498 -14.9902 C 33.7402 -13.1836 31.6895 -13.8184 30.5176 -14.9414 C 29.3945 -16.1133 28.8086 -18.1152 30.5664 -19.9219 L 56.3477 -45.7031 C 57.6172 -47.0215 57.7637 -48.9258 56.4941 -50.1953 C 55.2246 -51.416 53.3203 -51.3184 52.0508 -50.0488 L 26.0742 -24.1211 C 22.1191 -20.0684 22.168 -13.8184 25.7812 -10.2051 C 29.7363 -6.29883 35.6934 -6.49414 39.6973 -10.498 L 77.3926 -48.1934 C 84.668 -55.4688 84.668 -65.1855 78.0762 -71.7285 C 71.6309 -78.1738 61.7676 -78.3691 54.4922 -71.0938 L 15.8203 -32.3242 C 6.29883 -22.8027 6.73828 -8.83789 15.5762 0 C 24.4141 8.78906 38.3789 9.27734 47.9004 -0.244141 L 75.9277 -28.2715 C 77.1973 -29.4922 77.1973 -31.7871 75.9277 -33.0078 C 74.6582 -34.375 72.5586 -34.1309 71.2891 -32.9102 Z"/>
  </g>
  <g id="Medium-S" transform="matrix(1 0 0 1 1699.85 696)">
   <path d="M 72.0215 -33.252 L 43.9941 -5.22461 C 36.9141 1.9043 27.3926 1.26953 21.2891 -4.88281 C 15.1855 -10.9863 14.5508 -20.4102 21.6797 -27.5879 L 60.4492 -66.3086 C 64.4043 -70.2637 70.5566 -71.3867 74.6582 -67.2363 C 78.8086 -63.0859 77.6855 -56.9824 73.6816 -53.0273 L 35.6934 -14.9414 C 34.1309 -13.3789 32.373 -13.916 31.3477 -14.8926 C 30.3711 -15.918 29.8828 -17.6758 31.3965 -19.2383 L 57.666 -45.459 C 59.1309 -46.9727 59.2285 -49.2188 57.7637 -50.6836 C 56.2988 -52.0996 54.0527 -52.0508 52.5879 -50.5371 L 26.1719 -24.1699 C 21.9727 -19.9219 22.0703 -13.2812 25.9277 -9.42383 C 30.0781 -5.27344 36.3281 -5.46875 40.625 -9.7168 L 78.8574 -47.998 C 86.4258 -55.5664 86.4258 -65.625 79.5898 -72.4609 C 72.9004 -79.1504 62.6465 -79.3457 55.0781 -71.7773 L 16.0156 -32.7148 C 6.20117 -22.8516 6.68945 -8.44727 15.7715 0.634766 C 24.9023 9.7168 39.3066 10.2539 49.1699 0.439453 L 77.3926 -27.832 C 78.8574 -29.248 78.8574 -31.9336 77.3438 -33.3496 C 75.9277 -34.8633 73.4863 -34.668 72.0215 -33.252 Z"/>
  </g>
  <g id="Semibold-S" transform="matrix(1 0 0 1 1995.9 696)">
   <path d="M 72.5586 -33.4961 L 44.3848 -5.32227 C 37.4023 1.70898 28.0273 1.12305 22.0215 -4.93164 C 15.9668 -10.9375 15.4297 -20.2637 22.4609 -27.2949 L 61.4258 -66.2598 C 65.2832 -70.0684 71.2402 -71.2891 75.2441 -67.2363 C 79.2969 -63.1836 78.0762 -57.2754 74.2676 -53.418 L 35.8398 -14.8926 C 34.4727 -13.5254 32.8613 -13.9648 31.9336 -14.8438 C 31.1035 -15.7227 30.6641 -17.2852 32.0312 -18.7012 L 58.6426 -45.2637 C 60.3027 -46.9238 60.3516 -49.4141 58.7402 -51.0254 C 57.1289 -52.6367 54.6387 -52.5879 52.9785 -50.9277 L 26.2695 -24.2188 C 21.8262 -19.7754 21.9727 -12.8418 25.9766 -8.83789 C 30.3223 -4.49219 36.8652 -4.6875 41.3086 -9.13086 L 80.0293 -47.8027 C 87.793 -55.6152 87.7441 -65.9668 80.7129 -72.998 C 73.8281 -79.8828 63.2812 -80.127 55.5176 -72.3145 L 16.2109 -32.959 C 6.15234 -22.9004 6.64062 -8.1543 15.9668 1.17188 C 25.293 10.4492 40.0391 10.9863 50.0977 0.927734 L 78.5156 -27.4902 C 80.127 -29.0527 80.127 -32.0312 78.4668 -33.5938 C 76.9043 -35.2539 74.2188 -35.1074 72.5586 -33.4961 Z"/>
  </g>
  <g id="Bold-S" transform="matrix(1 0 0 1 2291.76 696)">
   <path d="M 73.291 -33.8379 L 44.873 -5.41992 C 38.0371 1.46484 28.9062 0.927734 22.998 -4.98047 C 17.041 -10.8887 16.5527 -20.0195 23.4375 -26.8555 L 62.7441 -66.2109 C 66.4062 -69.873 72.168 -71.0938 76.0254 -67.2363 C 79.9316 -63.2812 78.6621 -57.6172 75 -53.9551 L 35.9863 -14.8926 C 34.8633 -13.7207 33.5449 -14.0625 32.7637 -14.7949 C 32.0801 -15.5273 31.7383 -16.8457 32.9102 -17.9688 L 59.9121 -45.0195 C 61.8164 -46.9238 61.8652 -49.707 60.0098 -51.5137 C 58.2031 -53.3203 55.3711 -53.2715 53.5156 -51.416 L 26.3672 -24.2676 C 21.6797 -19.5801 21.875 -12.2559 26.0742 -8.05664 C 30.6641 -3.51562 37.5488 -3.61328 42.2363 -8.30078 L 81.543 -47.6074 C 89.5996 -55.6641 89.5508 -66.4062 82.2266 -73.7305 C 75.0488 -80.8594 64.1602 -81.1035 56.0547 -73.0469 L 16.4062 -33.3008 C 6.05469 -22.9492 6.54297 -7.76367 16.1621 1.80664 C 25.7812 11.4258 40.9668 11.9629 51.3184 1.61133 L 80.0293 -27.0996 C 81.8359 -28.8086 81.7871 -32.1777 79.9316 -33.9355 C 78.1738 -35.791 75.1465 -35.6445 73.291 -33.8379 Z"/>
  </g>
  <g id="Heavy-S" transform="matrix(1 0 0 1 2587.23 696)">
   <path d="M 74.3652 -34.2773 L 45.5566 -5.51758 C 38.9648 1.12305 30.0781 0.683594 24.3652 -5.07812 C 18.6035 -10.8398 18.1641 -19.6289 24.8535 -26.3184 L 64.6973 -66.1621 C 68.1152 -69.5801 73.4863 -70.8984 77.1973 -67.2363 C 80.9082 -63.4766 79.541 -58.1543 76.123 -54.7363 L 36.2793 -14.7949 C 35.4492 -14.0137 34.5215 -14.209 33.9844 -14.6973 C 33.4961 -15.2344 33.3008 -16.1621 34.1309 -16.9434 L 61.7676 -44.6289 C 64.0137 -46.8262 64.0137 -50.0977 61.8652 -52.2461 C 59.7656 -54.2969 56.4453 -54.2969 54.2969 -52.1484 L 26.4648 -24.3164 C 21.4355 -19.2871 21.7285 -11.4258 26.2207 -6.93359 C 31.1035 -2.05078 38.5254 -2.09961 43.6035 -7.17773 L 83.6914 -47.2656 C 92.2363 -55.8105 92.0898 -67.0898 84.4238 -74.7559 C 76.8555 -82.2266 65.4297 -82.5684 56.8848 -74.1211 L 16.6992 -33.7891 C 5.95703 -22.998 6.44531 -7.22656 16.4551 2.7832 C 26.5137 12.793 42.334 13.3301 53.125 2.58789 L 82.1777 -26.4648 C 84.2285 -28.4668 84.1797 -32.373 82.0312 -34.375 C 80.0781 -36.5234 76.5625 -36.4258 74.3652 -34.2773 Z"/>
  </g>
  <g id="Black-S" transform="matrix(1 0 0 1 2882.84 696)">
   <path d="M 75.3418 -34.7168 L 46.1914 -5.66406 C 39.7949 0.830078 31.1523 0.439453 25.5859 -5.17578 C 19.9707 -10.791 19.6289 -19.3359 26.123 -25.7812 L 66.4062 -66.1133 C 69.6289 -69.2871 74.707 -70.7031 78.1738 -67.1875 C 81.7383 -63.623 80.2734 -58.6426 77.0996 -55.4688 L 36.5234 -14.7461 C 35.9863 -14.2578 35.4492 -14.3066 35.0586 -14.6484 C 34.8145 -14.9414 34.7168 -15.5273 35.2051 -16.0645 L 63.4766 -44.2871 C 65.9668 -46.7773 65.918 -50.4883 63.5742 -52.8809 C 61.1816 -55.1758 57.4219 -55.2246 54.9805 -52.7832 L 26.6113 -24.4141 C 21.2402 -19.043 21.582 -10.6934 26.3672 -5.9082 C 31.543 -0.732422 39.4531 -0.78125 44.7754 -6.15234 L 85.6934 -47.0215 C 94.5801 -55.9082 94.3848 -67.6758 86.4258 -75.7324 C 78.4668 -83.4961 66.5527 -83.8379 57.666 -75.0488 L 16.9922 -34.2773 C 5.85938 -23.0957 6.39648 -6.73828 16.748 3.66211 C 27.1973 14.0137 43.5547 14.5996 54.7363 3.4668 L 84.082 -25.8789 C 86.4258 -28.1738 86.3281 -32.5684 83.9355 -34.8145 C 81.7383 -37.1582 77.7832 -37.1094 75.3418 -34.7168 Z"/>
  </g>
  <g id="Ultralight-M" transform="matrix(1 0 0 1 505.61 1126)">
   <path d="M 89.9902 -32.2754 L 51.8066 5.9082 C 42.0898 15.5762 28.9062 14.0625 20.5566 5.71289 C 12.207 -2.63672 10.6934 -15.8203 20.3613 -25.5371 L 69.1895 -74.3164 C 76.3672 -81.543 85.2539 -79.3945 90.1367 -74.5605 C 94.9707 -69.7754 97.0215 -60.8398 89.8926 -53.6621 L 42.041 -5.81055 C 38.7207 -2.53906 34.5703 -2.97852 31.8848 -5.61523 C 29.248 -8.30078 28.8086 -12.4512 32.0312 -15.7715 L 67.7246 -51.3672 C 68.4082 -52.0508 68.2129 -52.7832 67.8223 -53.1738 C 67.3828 -53.6133 66.748 -53.8086 66.0156 -53.0762 L 30.3711 -17.4316 C 25.9766 -13.0371 26.5137 -7.32422 30.0781 -3.80859 C 33.5938 -0.244141 39.3066 0.292969 43.7012 -4.10156 L 91.5527 -51.9531 C 99.9023 -60.3027 97.5098 -70.6055 91.7969 -76.3184 C 86.1328 -81.9824 75.8789 -84.4238 67.4805 -76.0254 L 18.9453 -27.4902 C 7.4707 -16.0156 9.86328 -1.61133 18.8477 7.37305 C 27.8809 16.4062 42.334 18.75 53.7109 7.32422 L 91.6504 -30.5664 C 92.2852 -31.2012 92.1875 -31.9824 91.7969 -32.373 C 91.3574 -32.8125 90.5762 -32.8613 89.9902 -32.2754 Z"/>
  </g>
  <g id="Thin-M" transform="matrix(1 0 0 1 801.491 1126)">
   <path d="M 90.1855 -32.2754 L 52.4902 5.41992 C 42.8711 14.9902 29.834 13.623 21.582 5.32227 C 13.2812 -2.92969 11.9141 -15.9668 21.4844 -25.5859 L 70.3613 -74.4629 C 77.1484 -81.2988 85.9375 -79.834 90.918 -74.8535 C 95.8496 -69.9219 97.2656 -61.1816 90.4785 -54.3457 L 42.627 -6.44531 C 39.502 -3.36914 35.6445 -3.90625 33.2031 -6.29883 C 30.7617 -8.78906 30.2734 -12.5977 33.3496 -15.7227 L 68.5547 -50.8789 C 69.3848 -51.709 69.2383 -52.7832 68.6035 -53.418 C 67.9688 -54.0527 66.9922 -54.1504 66.0645 -53.2715 L 30.9082 -18.1152 C 26.3672 -13.5742 26.8555 -7.42188 30.6152 -3.71094 C 34.4238 0.0976562 40.4785 0.537109 45.0195 -4.00391 L 92.9199 -51.9531 C 101.416 -60.4492 99.4629 -71.1426 93.2617 -77.3438 C 87.1094 -83.4961 76.416 -85.498 67.8711 -76.9531 L 19.1406 -28.2227 C 7.56836 -16.6504 9.61914 -1.61133 19.043 7.8125 C 28.4668 17.2363 43.6035 19.2871 55.127 7.71484 L 92.627 -29.7852 C 93.457 -30.5664 93.4082 -31.7383 92.7246 -32.373 C 92.0898 -33.0566 90.9668 -33.0566 90.1855 -32.2754 Z"/>
  </g>
  <g id="Light-M" transform="matrix(1 0 0 1 1096.59 1126)">
   <path d="M 90.5273 -32.2754 L 53.9062 4.39453 C 44.4336 13.8672 31.6895 12.6953 23.584 4.54102 C 15.3809 -3.56445 14.2578 -16.2598 23.7305 -25.7812 L 72.6562 -74.6582 C 78.7598 -80.8105 87.2559 -80.6152 92.4316 -75.4395 C 97.6074 -70.2637 97.8027 -61.7676 91.6504 -55.6641 L 43.8477 -7.76367 C 41.1133 -5.0293 37.793 -5.66406 35.791 -7.66602 C 33.7891 -9.66797 33.2031 -12.9883 35.8887 -15.7227 L 70.0684 -49.8535 C 71.2891 -51.0742 71.2891 -52.7344 70.2148 -53.8086 C 69.0918 -54.8828 67.4805 -54.8828 66.2109 -53.6621 L 31.9824 -19.4336 C 27.1973 -14.5996 27.5391 -7.66602 31.6406 -3.51562 C 35.9863 0.830078 42.7246 0.927734 47.5586 -3.85742 L 95.5566 -51.8555 C 104.395 -60.7422 103.32 -72.168 96.1426 -79.3457 C 89.0625 -86.4258 77.5391 -87.6465 68.6035 -78.7598 L 19.6289 -29.7363 C 7.76367 -17.8711 9.17969 -1.5625 19.4336 8.69141 C 29.6875 18.8965 45.9961 20.3125 57.8613 8.49609 L 94.5801 -28.2227 C 95.752 -29.3945 95.7031 -31.3477 94.6289 -32.373 C 93.5059 -33.5449 91.6992 -33.3984 90.5273 -32.2754 Z"/>
  </g>
  <g id="Regular-M" transform="matrix(1 0 0 1 1392.08 1126)">
   <path d="M 90.8203 -32.2754 L 54.9316 3.61328 C 45.6055 12.9883 33.0566 12.0605 25.0488 3.95508 C 16.9922 -4.05273 16.0645 -16.5039 25.4395 -25.8789 L 74.3652 -74.8047 C 79.9805 -80.4199 88.2324 -81.2012 93.6035 -75.8789 C 98.9258 -70.459 98.1445 -62.2559 92.5781 -56.6406 L 44.7754 -8.78906 C 42.334 -6.29883 39.4531 -7.03125 37.7441 -8.69141 C 36.084 -10.4004 35.4004 -13.2324 37.8418 -15.7227 L 71.2402 -49.0723 C 72.7051 -50.5859 72.8027 -52.7344 71.3867 -54.1504 C 69.9707 -55.5176 67.8223 -55.4199 66.3574 -53.9551 L 32.8125 -20.4102 C 27.832 -15.4297 28.0273 -7.8125 32.4219 -3.41797 C 37.207 1.36719 44.4824 1.26953 49.4629 -3.75977 L 97.5586 -51.8066 C 106.689 -60.9375 106.25 -72.9492 98.3398 -80.9082 C 90.5273 -88.6719 78.3691 -89.2578 69.1895 -80.127 L 19.9707 -30.8594 C 7.91016 -18.7988 8.83789 -1.5625 19.7266 9.32617 C 30.6152 20.166 47.8516 21.0938 59.9121 9.08203 L 96.0449 -27.0508 C 97.5098 -28.4668 97.4609 -31.0547 95.9961 -32.373 C 94.5801 -33.8867 92.2852 -33.6914 90.8203 -32.2754 Z"/>
  </g>
  <g id="Medium-M" transform="matrix(1 0 0 1 1687.77 1126)">
   <path d="M 91.6016 -32.6172 L 55.5176 3.4668 C 46.3867 12.6465 34.082 11.7676 26.2207 3.85742 C 18.2617 -4.05273 17.3828 -16.2598 26.6113 -25.4883 L 75.9277 -74.8047 C 81.2988 -80.1758 89.3066 -81.1035 94.5312 -75.8789 C 99.7559 -70.6055 98.7793 -62.6465 93.457 -57.3242 L 45.0684 -8.83789 C 42.8711 -6.64062 40.332 -7.27539 38.8184 -8.74023 C 37.3535 -10.2539 36.7676 -12.793 38.916 -14.9902 L 72.6562 -48.7305 C 74.4141 -50.4883 74.4629 -53.0273 72.8027 -54.6875 C 71.1914 -56.25 68.6035 -56.2012 66.8945 -54.4922 L 33.0078 -20.6055 C 27.7344 -15.332 27.9785 -7.27539 32.666 -2.58789 C 37.6953 2.49023 45.3613 2.34375 50.6348 -2.92969 L 99.3164 -51.6113 C 108.74 -61.0352 108.398 -73.4863 100.098 -81.7871 C 91.9922 -89.8926 79.3457 -90.4785 69.873 -81.0059 L 20.2148 -31.3477 C 7.86133 -18.9453 8.69141 -1.17188 19.9707 10.1074 C 31.2012 21.2891 49.0234 22.168 61.377 9.81445 L 97.7051 -26.4648 C 99.3652 -28.125 99.3652 -31.1523 97.6562 -32.7148 C 96.0449 -34.4727 93.3105 -34.2285 91.6016 -32.6172 Z"/>
  </g>
  <g id="Semibold-M" transform="matrix(1 0 0 1 1983.7 1126)">
   <path d="M 92.1875 -32.8613 L 56.0059 3.32031 C 46.9727 12.4023 34.8633 11.5723 27.0996 3.71094 C 19.2383 -4.05273 18.457 -16.1133 27.5391 -25.1953 L 77.0996 -74.8047 C 82.2754 -79.9805 90.0879 -81.0547 95.2637 -75.9277 C 100.391 -70.752 99.2676 -62.9883 94.0918 -57.8125 L 45.2637 -8.88672 C 43.3105 -6.93359 41.0156 -7.4707 39.5996 -8.78906 C 38.3301 -10.1562 37.793 -12.4512 39.7461 -14.4531 L 73.7793 -48.4863 C 75.6836 -50.3906 75.7812 -53.2227 73.9258 -55.0781 C 72.0703 -56.8848 69.2383 -56.8359 67.334 -54.9316 L 33.1543 -20.7031 C 27.6855 -15.2344 27.9297 -6.83594 32.8125 -1.95312 C 38.0371 3.32031 46.0449 3.17383 51.5137 -2.29492 L 100.635 -51.416 C 110.352 -61.1328 110.01 -73.9258 101.465 -82.5195 C 93.0664 -90.8691 80.0781 -91.4062 70.3613 -81.6895 L 20.4102 -31.6895 C 7.8125 -19.0918 8.64258 -0.878906 20.166 10.6445 C 31.6895 22.168 49.9023 22.998 62.5488 10.4004 L 98.9746 -26.0254 C 100.83 -27.832 100.83 -31.2012 98.9258 -32.959 C 97.1191 -34.9121 94.0918 -34.7168 92.1875 -32.8613 Z"/>
  </g>
  <g id="Bold-M" transform="matrix(1 0 0 1 2279.38 1126)">
   <path d="M 92.9688 -33.2031 L 56.6406 3.125 C 47.7539 12.0605 35.8887 11.2793 28.2227 3.56445 C 20.5566 -4.05273 19.8242 -15.8691 28.7109 -24.8047 L 78.7109 -74.7559 C 83.6426 -79.6875 91.1621 -80.957 96.1914 -75.9766 C 101.221 -70.8984 99.9023 -63.4277 94.9707 -58.4961 L 45.5566 -8.98438 C 43.8965 -7.27539 41.8945 -7.76367 40.7227 -8.88672 C 39.5996 -10.0098 39.1602 -12.0117 40.8203 -13.7207 L 75.2441 -48.0957 C 77.4414 -50.293 77.4902 -53.5156 75.3906 -55.6152 C 73.291 -57.6172 70.0684 -57.6172 67.8711 -55.4688 L 33.3496 -20.8984 C 27.5879 -15.1367 27.8809 -6.25 33.0078 -1.12305 C 38.5254 4.39453 46.9727 4.29688 52.7344 -1.46484 L 102.441 -51.1719 C 112.451 -61.2305 112.207 -74.4629 103.271 -83.3984 C 94.5312 -92.1387 81.0547 -92.627 70.9961 -82.6172 L 20.7031 -32.2266 C 7.76367 -19.2383 8.54492 -0.488281 20.4102 11.4258 C 32.3242 23.291 51.123 24.0723 64.0625 11.1816 L 100.684 -25.4395 C 102.783 -27.4902 102.734 -31.2988 100.586 -33.3008 C 98.584 -35.4492 95.1172 -35.3027 92.9688 -33.2031 Z"/>
  </g>
  <g id="Heavy-M" transform="matrix(1 0 0 1 2574.63 1126)">
   <path d="M 94.1406 -33.6914 L 57.5195 2.88086 C 48.9258 11.5234 37.3535 10.8887 29.9316 3.36914 C 22.4121 -4.05273 21.8262 -15.5762 30.4688 -24.2676 L 80.957 -74.7559 C 85.5469 -79.3457 92.7246 -80.8594 97.5586 -76.0254 C 102.393 -71.0938 100.83 -64.0625 96.2402 -59.4727 L 45.9961 -9.08203 C 44.6777 -7.76367 43.1641 -8.1543 42.2852 -8.98438 C 41.4551 -9.86328 41.1133 -11.3281 42.4316 -12.6465 L 77.3438 -47.6074 C 79.9316 -50.1465 79.9316 -53.9551 77.4902 -56.3965 C 75.0488 -58.7891 71.2402 -58.7402 68.7012 -56.25 L 33.5938 -21.1426 C 27.4414 -14.9902 27.7832 -5.41992 33.3008 0.0488281 C 39.2578 6.00586 48.291 5.9082 54.4434 -0.292969 L 105.029 -50.8789 C 115.527 -61.377 115.332 -75.293 105.908 -84.7656 C 96.6309 -93.9453 82.4707 -94.3848 71.9727 -83.9355 L 21.0449 -32.9102 C 7.66602 -19.4824 8.34961 0.0976562 20.752 12.5 C 33.2031 24.9023 52.832 25.6836 66.2598 12.2559 L 103.125 -24.6094 C 105.566 -26.9531 105.518 -31.4453 102.979 -33.7891 C 100.684 -36.2793 96.6309 -36.1328 94.1406 -33.6914 Z"/>
  </g>
  <g id="Black-M" transform="matrix(1 0 0 1 2870 1126)">
   <path d="M 95.166 -34.1309 L 58.3496 2.63672 C 49.9512 11.084 38.6719 10.5469 31.3965 3.17383 C 24.0723 -4.10156 23.584 -15.2832 32.0312 -23.7305 L 83.0078 -74.707 C 87.2559 -79.0039 94.0918 -80.7129 98.7793 -76.0742 C 103.467 -71.2891 101.66 -64.5996 97.3633 -60.3027 L 46.3867 -9.17969 C 45.4102 -8.25195 44.3359 -8.44727 43.6523 -9.08203 C 43.1152 -9.66797 42.8711 -10.7422 43.8477 -11.7188 L 79.248 -47.1191 C 82.1777 -50.0488 82.1289 -54.2969 79.3945 -57.0801 C 76.6113 -59.7656 72.2656 -59.7656 69.4336 -56.9336 L 33.8379 -21.3867 C 27.3438 -14.8438 27.7344 -4.6875 33.5449 1.12305 C 39.8438 7.42188 49.4629 7.32422 55.957 0.830078 L 107.324 -50.5859 C 118.262 -61.5234 118.164 -76.0254 108.252 -85.9375 C 98.4863 -95.6055 83.7402 -95.9473 72.8027 -85.1074 L 21.3867 -33.5449 C 7.61719 -19.6777 8.20312 0.634766 21.0938 13.5254 C 34.0332 26.3672 54.3457 27.0508 68.2129 13.2324 L 105.322 -23.877 C 108.057 -26.5137 107.959 -31.5918 105.127 -34.2285 C 102.588 -37.0117 97.998 -36.9141 95.166 -34.1309 Z"/>
  </g>
  <g id="Ultralight-L" transform="matrix(1 0 0 1 490.278 1556)">
   <path d="M 116.016 -31.3965 L 66.5527 18.0664 C 53.9551 30.5664 36.8652 28.6133 26.0742 17.7734 C 15.2344 6.98242 13.2812 -10.1074 25.7812 -22.7051 L 88.8184 -85.6445 C 98.1445 -95.0684 109.717 -92.0898 115.967 -85.8398 C 122.168 -79.7363 125.098 -68.1641 115.723 -58.6914 L 53.9551 3.02734 C 49.5605 7.32422 44.1406 6.78711 40.5273 3.32031 C 37.0605 -0.292969 36.5234 -5.76172 40.7715 -10.1074 L 87.0605 -56.2988 C 87.8418 -57.0801 87.5977 -57.8613 87.1582 -58.3008 C 86.7188 -58.7402 85.9863 -59.0332 85.1074 -58.1543 L 38.9648 -12.0117 C 33.3008 -6.34766 34.082 0.830078 38.5742 5.27344 C 42.9688 9.7168 50.1953 10.5469 55.8105 4.88281 L 117.578 -56.8359 C 128.271 -67.5293 124.951 -80.6641 117.822 -87.793 C 110.693 -94.9219 97.6562 -98.1934 86.8652 -87.4512 L 24.3164 -24.9023 C 9.61914 -10.1562 12.8418 8.1543 24.2676 19.5801 C 35.6934 31.0059 54.1016 34.1797 68.75 19.5312 L 117.822 -29.5898 C 118.555 -30.2734 118.457 -31.1035 118.018 -31.5918 C 117.578 -31.9824 116.748 -32.1289 116.016 -31.3965 Z"/>
  </g>
  <g id="Thin-L" transform="matrix(1 0 0 1 786.061 1556)">
   <path d="M 116.26 -31.3965 L 67.334 17.5293 C 54.834 29.9316 37.9395 28.0762 27.1973 17.334 C 16.4551 6.5918 14.5996 -10.2539 27.0508 -22.7539 L 90.0879 -85.7422 C 99.0723 -94.7754 110.498 -92.5293 116.797 -86.1816 C 123.145 -79.9316 125.342 -68.5059 116.406 -59.4727 L 54.6387 2.29492 C 50.4883 6.39648 45.3613 5.76172 42.041 2.53906 C 38.7695 -0.78125 38.1836 -5.95703 42.2363 -10.1074 L 87.9395 -55.7129 C 88.916 -56.6895 88.7207 -57.8613 88.0371 -58.5449 C 87.3535 -59.2285 86.2793 -59.4727 85.2051 -58.3984 L 39.5508 -12.7441 C 33.7891 -6.93359 34.4727 0.683594 39.1602 5.37109 C 43.8965 10.1562 51.5137 10.791 57.2754 4.98047 L 119.092 -56.7871 C 129.932 -67.6758 127.148 -81.25 119.482 -88.9648 C 111.816 -96.6309 98.291 -99.4141 87.3047 -88.4766 L 24.5605 -25.7324 C 9.7168 -10.8398 12.5488 8.1543 24.4629 20.0684 C 36.377 31.9824 55.4688 34.7656 70.2637 19.9707 L 118.945 -28.7109 C 119.873 -29.5898 119.775 -30.9082 119.092 -31.5918 C 118.408 -32.2754 117.139 -32.3242 116.26 -31.3965 Z"/>
  </g>
  <g id="Light-L" transform="matrix(1 0 0 1 1080.97 1556)">
   <path d="M 116.65 -31.3965 L 68.8477 16.4062 C 56.543 28.6621 39.9902 27.0508 29.4434 16.5039 C 18.8477 5.9082 17.2363 -10.5957 29.541 -22.9492 L 92.627 -85.9863 C 100.83 -94.2383 111.963 -93.4082 118.555 -86.8164 C 125.098 -80.2734 125.928 -69.1895 117.725 -60.9375 L 56.0059 0.830078 C 52.2949 4.54102 47.7539 3.75977 44.9219 1.02539 C 42.1387 -1.80664 41.4062 -6.34766 45.0684 -10.0586 L 89.6484 -54.5898 C 91.0645 -55.957 90.9668 -57.8125 89.7949 -59.0332 C 88.623 -60.1562 86.8164 -60.2539 85.4004 -58.8379 L 40.7715 -14.209 C 34.7168 -8.10547 35.2051 0.439453 40.332 5.56641 C 45.7031 10.9375 54.0527 11.2305 60.1074 5.17578 L 122.021 -56.7383 C 133.301 -68.0176 131.445 -82.4219 122.656 -91.2109 C 113.965 -99.9023 99.5117 -101.855 88.1836 -90.5273 L 25.0977 -27.3926 C 9.91211 -12.2559 12.0605 8.20312 24.9023 21.0449 C 37.7441 33.8379 58.2031 35.9375 73.3398 20.8008 L 121.094 -26.9531 C 122.412 -28.2715 122.363 -30.4199 121.191 -31.5918 C 119.971 -32.8125 117.969 -32.7148 116.65 -31.3965 Z"/>
  </g>
  <g id="Regular-L" transform="matrix(1 0 0 1 1376.31 1556)">
   <path d="M 116.943 -31.3965 L 70.0195 15.5273 C 57.8613 27.6855 41.5527 26.3184 31.1035 15.8203 C 20.6543 5.41992 19.2383 -10.8887 31.3965 -23.0469 L 94.5801 -86.1816 C 102.197 -93.8477 113.037 -94.043 119.824 -87.3047 C 126.611 -80.5176 126.367 -69.7266 118.701 -62.0605 L 56.9824 -0.292969 C 53.6133 3.125 49.5605 2.24609 47.0703 -0.146484 C 44.6777 -2.58789 43.8965 -6.64062 47.2168 -10.0586 L 90.9668 -53.7598 C 92.627 -55.4199 92.6758 -57.8125 91.1133 -59.375 C 89.5996 -60.8887 87.207 -60.8887 85.498 -59.1797 L 41.6504 -15.332 C 35.4004 -9.0332 35.7422 0.244141 41.2109 5.76172 C 47.0215 11.5723 55.957 11.5723 62.2559 5.27344 L 124.219 -56.6895 C 135.791 -68.2617 134.717 -83.252 125.098 -92.8711 C 115.625 -102.344 100.439 -103.662 88.8184 -92.041 L 25.4883 -28.6621 C 10.1074 -13.2812 11.6699 8.20312 25.1953 21.7285 C 38.7695 35.2539 60.2539 36.8164 75.5859 21.4844 L 122.705 -25.6348 C 124.365 -27.2461 124.316 -30.0781 122.754 -31.5918 C 121.191 -33.2031 118.604 -33.0078 116.943 -31.3965 Z"/>
  </g>
  <g id="Medium-L" transform="matrix(1 0 0 1 1671.85 1556)">
   <path d="M 117.725 -31.7383 L 70.8008 15.2344 C 58.8379 27.1973 42.7734 25.9277 32.4707 15.5762 C 22.1191 5.32227 20.8496 -10.6934 32.8613 -22.7539 L 96.3379 -86.1816 C 103.662 -93.5547 114.209 -94.0918 120.898 -87.4023 C 127.588 -80.7129 127.002 -70.166 119.678 -62.8418 L 57.4707 -0.537109 C 54.3945 2.53906 50.6836 1.75781 48.4375 -0.390625 C 46.3379 -2.63672 45.5566 -6.25 48.6328 -9.375 L 92.5293 -53.2715 C 94.4824 -55.2246 94.5312 -58.0566 92.6758 -59.9121 C 90.8691 -61.7188 88.0371 -61.6699 86.0352 -59.7168 L 41.9922 -15.6738 C 35.4492 -9.08203 35.791 0.732422 41.5527 6.49414 C 47.7051 12.6465 57.1289 12.6465 63.7207 6.05469 L 126.221 -56.4453 C 138.184 -68.3594 137.256 -83.9355 127.148 -94.043 C 117.236 -103.955 101.465 -105.078 89.5508 -93.1152 L 25.7812 -29.3457 C 10.0586 -13.623 11.5234 8.59375 25.4883 22.5586 C 39.502 36.5234 61.6699 37.9883 77.3926 22.2656 L 124.561 -24.9023 C 126.465 -26.7578 126.416 -30.0781 124.512 -31.8848 C 122.705 -33.7891 119.678 -33.5938 117.725 -31.7383 Z"/>
  </g>
  <g id="Semibold-L" transform="matrix(1 0 0 1 1967.66 1556)">
   <path d="M 118.311 -31.9336 L 71.3867 14.9902 C 59.5703 26.8555 43.6523 25.6348 33.4961 15.3809 C 23.2422 5.22461 22.0703 -10.5957 33.9355 -22.5098 L 97.7051 -86.2305 C 104.736 -93.3105 115.137 -94.1406 121.729 -87.5 C 128.369 -80.8594 127.49 -70.5566 120.459 -63.4766 L 57.8125 -0.732422 C 54.9805 2.09961 51.5625 1.36719 49.5117 -0.634766 C 47.5586 -2.63672 46.8262 -6.00586 49.6582 -8.88672 L 93.7012 -52.8809 C 95.8984 -55.0781 95.9473 -58.252 93.8965 -60.3516 C 91.8457 -62.3535 88.623 -62.3047 86.4746 -60.1562 L 42.2363 -15.9668 C 35.498 -9.13086 35.8398 1.12305 41.7969 7.08008 C 48.2422 13.5254 58.0078 13.4766 64.8438 6.64062 L 127.783 -56.2988 C 139.99 -68.457 139.209 -84.4238 128.76 -94.9219 C 118.457 -105.176 102.295 -106.152 90.0879 -93.9941 L 26.0254 -29.834 C 10.0586 -13.8672 11.377 8.83789 25.7324 23.1934 C 40.0879 37.5 62.793 38.8184 78.7598 22.9004 L 125.977 -24.3164 C 128.076 -26.3672 128.027 -30.127 125.879 -32.1289 C 123.877 -34.2773 120.459 -34.0332 118.311 -31.9336 Z"/>
  </g>
  <g id="Bold-L" transform="matrix(1 0 0 1 2263.17 1556)">
   <path d="M 119.092 -32.2754 L 72.168 14.6484 C 60.498 26.3184 44.873 25.2441 34.8633 15.1367 C 24.7559 5.12695 23.6816 -10.4492 35.4004 -22.168 L 99.4629 -86.2305 C 106.201 -92.9688 116.309 -94.1895 122.852 -87.6465 C 129.395 -81.0059 128.174 -71.0449 121.436 -64.3066 L 58.252 -1.02539 C 55.7129 1.51367 52.7344 0.830078 50.8789 -0.878906 C 49.2188 -2.68555 48.5352 -5.66406 51.0742 -8.20312 L 95.2637 -52.4414 C 97.7539 -54.8828 97.8027 -58.5449 95.459 -60.8887 C 93.1152 -63.1836 89.4531 -63.1348 87.0117 -60.6934 L 42.5781 -16.3086 C 35.5469 -9.17969 35.8887 1.61133 42.1387 7.86133 C 48.9258 14.6484 59.2285 14.5508 66.3086 7.42188 L 129.834 -56.0547 C 142.383 -68.6035 141.797 -85.1074 130.859 -96.0938 C 120.117 -106.787 103.369 -107.617 90.8203 -95.0684 L 26.3184 -30.5176 C 10.0098 -14.209 11.1816 9.22852 25.9766 24.0234 C 40.8203 38.7695 64.2578 39.9902 80.5664 23.6816 L 127.783 -23.5352 C 130.176 -25.8301 130.127 -30.1758 127.686 -32.4219 C 125.439 -34.8633 121.533 -34.6191 119.092 -32.2754 Z"/>
  </g>
  <g id="Heavy-L" transform="matrix(1 0 0 1 2558.15 1556)">
   <path d="M 120.215 -32.7148 L 73.291 14.1602 C 61.9141 25.6348 46.6797 24.6582 36.8652 14.7949 C 26.9531 4.98047 26.0254 -10.2051 37.5 -21.6797 L 102.051 -86.2305 C 108.35 -92.5293 118.018 -94.2383 124.414 -87.8418 C 130.908 -81.2988 129.15 -71.7285 122.852 -65.4785 L 58.9355 -1.41602 C 56.8359 0.683594 54.3945 0.0976562 52.9297 -1.26953 C 51.5625 -2.68555 51.0254 -5.12695 53.0762 -7.27539 L 97.5586 -51.709 C 100.488 -54.6387 100.537 -58.8867 97.7539 -61.6699 C 94.9707 -64.4043 90.625 -64.3555 87.793 -61.5234 L 43.1152 -16.8457 C 35.5957 -9.27734 35.9375 2.29492 42.6758 8.98438 C 49.9023 16.2598 60.9375 16.1133 68.457 8.59375 L 132.764 -55.7617 C 145.85 -68.7988 145.557 -86.084 133.887 -97.7539 C 122.461 -109.131 104.932 -109.717 91.8457 -96.6797 L 26.8066 -31.4941 C 10.0098 -14.6973 10.9375 9.76562 26.416 25.1953 C 41.9434 40.625 66.3574 41.6504 83.2031 24.9023 L 130.469 -22.4121 C 133.252 -25.0977 133.203 -30.1758 130.322 -32.8613 C 127.686 -35.6934 123.096 -35.498 120.215 -32.7148 Z"/>
  </g>
  <g id="Black-L" transform="matrix(1 0 0 1 2853.32 1556)">
   <path d="M 121.24 -33.1055 L 74.3164 13.7695 C 63.1836 25 48.2422 24.1699 38.623 14.4531 C 28.9062 4.83398 28.125 -10.0098 39.3555 -21.2402 L 104.395 -86.2793 C 110.254 -92.1387 119.531 -94.2871 125.83 -87.9883 C 132.227 -81.543 129.98 -72.3633 124.121 -66.5039 L 59.5215 -1.80664 C 57.8125 -0.0488281 55.8594 -0.585938 54.7363 -1.66016 C 53.7109 -2.73438 53.2227 -4.6875 54.9316 -6.39648 L 99.6094 -51.0742 C 102.881 -54.3945 102.979 -59.2285 99.8047 -62.4023 C 96.6309 -65.4785 91.6992 -65.4297 88.4766 -62.207 L 43.5547 -17.2852 C 35.6445 -9.375 36.0352 2.92969 43.1152 10.0098 C 50.8301 17.7246 62.4512 17.4805 70.3613 9.57031 L 135.4 -55.4688 C 148.926 -68.9941 148.877 -86.9629 136.621 -99.2676 C 124.561 -111.182 106.299 -111.572 92.7734 -98.1445 L 27.1973 -32.4219 C 9.96094 -15.1367 10.7422 10.2051 26.8066 26.2695 C 42.9199 42.334 68.2617 43.1641 85.5469 25.9277 L 132.861 -21.3867 C 135.986 -24.4141 135.938 -30.2246 132.666 -33.252 C 129.688 -36.4746 124.463 -36.2305 121.24 -33.1055 Z"/>
  </g>
 </g>
</svg>
