<?xml version="1.0" encoding="UTF-8"?>
<!--Generator: Apple Native CoreSVG 123-->
<!DOCTYPE svg
PUBLIC "-//W3C//DTD SVG 1.1//EN"
       "http://www.w3.org/Graphics/SVG/1.1/DTD/svg11.dtd">
<svg version="1.1" xmlns="http://www.w3.org/2000/svg" xmlns:xlink="http://www.w3.org/1999/xlink" width="3300" height="2200">
 <!--glyph: "uni100298.medium", point size: 100.000000, font version: "Version 15.0d4e20", template writer version: "2"-->
 <g id="Notes">
  <rect height="2200" id="artboard" style="fill:white;opacity:1" width="3300" x="0" y="0"/>
  <line id="" style="fill:none;stroke:black;opacity:1;stroke-width:0.5;" x1="263" x2="3036" y1="292" y2="292"/>
  <text style="stroke:none;fill:black;font-family:-apple-system,&quot;SF Pro Display&quot;,&quot;SF Pro Text&quot;,Helvetica,sans-serif;font-weight:bold;" transform="matrix(1 0 0 1 263 322)">Weight/Scale Variations</text>
  <text style="stroke:none;fill:black;font-family:-apple-system,&quot;SF Pro Display&quot;,&quot;SF Pro Text&quot;,Helvetica,sans-serif;text-anchor:middle;" transform="matrix(1 0 0 1 559.711 322)">Ultralight</text>
  <text style="stroke:none;fill:black;font-family:-apple-system,&quot;SF Pro Display&quot;,&quot;SF Pro Text&quot;,Helvetica,sans-serif;text-anchor:middle;" transform="matrix(1 0 0 1 856.422 322)">Thin</text>
  <text style="stroke:none;fill:black;font-family:-apple-system,&quot;SF Pro Display&quot;,&quot;SF Pro Text&quot;,Helvetica,sans-serif;text-anchor:middle;" transform="matrix(1 0 0 1 1153.13 322)">Light</text>
  <text style="stroke:none;fill:black;font-family:-apple-system,&quot;SF Pro Display&quot;,&quot;SF Pro Text&quot;,Helvetica,sans-serif;text-anchor:middle;" transform="matrix(1 0 0 1 1449.84 322)">Regular</text>
  <text style="stroke:none;fill:black;font-family:-apple-system,&quot;SF Pro Display&quot;,&quot;SF Pro Text&quot;,Helvetica,sans-serif;text-anchor:middle;" transform="matrix(1 0 0 1 1746.56 322)">Medium</text>
  <text style="stroke:none;fill:black;font-family:-apple-system,&quot;SF Pro Display&quot;,&quot;SF Pro Text&quot;,Helvetica,sans-serif;text-anchor:middle;" transform="matrix(1 0 0 1 2043.27 322)">Semibold</text>
  <text style="stroke:none;fill:black;font-family:-apple-system,&quot;SF Pro Display&quot;,&quot;SF Pro Text&quot;,Helvetica,sans-serif;text-anchor:middle;" transform="matrix(1 0 0 1 2339.98 322)">Bold</text>
  <text style="stroke:none;fill:black;font-family:-apple-system,&quot;SF Pro Display&quot;,&quot;SF Pro Text&quot;,Helvetica,sans-serif;text-anchor:middle;" transform="matrix(1 0 0 1 2636.69 322)">Heavy</text>
  <text style="stroke:none;fill:black;font-family:-apple-system,&quot;SF Pro Display&quot;,&quot;SF Pro Text&quot;,Helvetica,sans-serif;text-anchor:middle;" transform="matrix(1 0 0 1 2933.4 322)">Black</text>
  <line id="" style="fill:none;stroke:black;opacity:1;stroke-width:0.5;" x1="263" x2="3036" y1="1903" y2="1903"/>
  <g id="" transform="matrix(1 0 0 1 263 1933)">
   <path d="M 9.24805 0.830078 C 13.5547 0.830078 17.1387 -2.74414 17.1387 -7.05078 C 17.1387 -11.3574 13.5449 -14.9316 9.23828 -14.9316 C 4.94141 -14.9316 1.36719 -11.3574 1.36719 -7.05078 C 1.36719 -2.74414 4.95117 0.830078 9.24805 0.830078 Z M 9.24805 -0.654297 C 5.70312 -0.654297 2.87109 -3.49609 2.87109 -7.05078 C 2.87109 -10.6055 5.69336 -13.4473 9.23828 -13.4473 C 12.793 -13.4473 15.6348 -10.6055 15.6445 -7.05078 C 15.6543 -3.49609 12.8027 -0.654297 9.24805 -0.654297 Z M 9.22852 -3.42773 C 9.69727 -3.42773 9.9707 -3.74023 9.9707 -4.25781 L 9.9707 -6.31836 L 12.1973 -6.31836 C 12.6953 -6.31836 13.0371 -6.57227 13.0371 -7.04102 C 13.0371 -7.51953 12.7148 -7.7832 12.1973 -7.7832 L 9.9707 -7.7832 L 9.9707 -10.0098 C 9.9707 -10.5273 9.69727 -10.8496 9.22852 -10.8496 C 8.75977 -10.8496 8.50586 -10.5078 8.50586 -10.0098 L 8.50586 -7.7832 L 6.29883 -7.7832 C 5.78125 -7.7832 5.44922 -7.51953 5.44922 -7.04102 C 5.44922 -6.57227 5.80078 -6.31836 6.29883 -6.31836 L 8.50586 -6.31836 L 8.50586 -4.25781 C 8.50586 -3.75977 8.75977 -3.42773 9.22852 -3.42773 Z"/>
  </g>
  <g id="" transform="matrix(1 0 0 1 281.506 1933)">
   <path d="M 11.709 2.91016 C 17.1484 2.91016 21.6699 -1.60156 21.6699 -7.05078 C 21.6699 -12.4902 17.1387 -17.0117 11.6992 -17.0117 C 6.25 -17.0117 1.74805 -12.4902 1.74805 -7.05078 C 1.74805 -1.60156 6.25977 2.91016 11.709 2.91016 Z M 11.709 1.25 C 7.09961 1.25 3.41797 -2.44141 3.41797 -7.05078 C 3.41797 -11.6504 7.08984 -15.3516 11.6992 -15.3516 C 16.2988 -15.3516 20 -11.6504 20.0098 -7.05078 C 20.0195 -2.44141 16.3086 1.25 11.709 1.25 Z M 11.6797 -2.41211 C 12.207 -2.41211 12.5195 -2.77344 12.5195 -3.33984 L 12.5195 -6.23047 L 15.5762 -6.23047 C 16.123 -6.23047 16.5039 -6.51367 16.5039 -7.03125 C 16.5039 -7.55859 16.1426 -7.86133 15.5762 -7.86133 L 12.5195 -7.86133 L 12.5195 -10.9277 C 12.5195 -11.5039 12.207 -11.8555 11.6797 -11.8555 C 11.1621 -11.8555 10.8789 -11.4844 10.8789 -10.9277 L 10.8789 -7.86133 L 7.83203 -7.86133 C 7.25586 -7.86133 6.89453 -7.55859 6.89453 -7.03125 C 6.89453 -6.51367 7.28516 -6.23047 7.83203 -6.23047 L 10.8789 -6.23047 L 10.8789 -3.33984 C 10.8789 -2.79297 11.1621 -2.41211 11.6797 -2.41211 Z"/>
  </g>
  <g id="" transform="matrix(1 0 0 1 304.914 1933)">
   <path d="M 14.9707 5.67383 C 21.9336 5.67383 27.6855 -0.078125 27.6855 -7.04102 C 27.6855 -14.0039 21.9238 -19.7559 14.9609 -19.7559 C 7.99805 -19.7559 2.25586 -14.0039 2.25586 -7.04102 C 2.25586 -0.078125 8.00781 5.67383 14.9707 5.67383 Z M 14.9707 3.85742 C 8.92578 3.85742 4.08203 -1.00586 4.08203 -7.04102 C 4.08203 -13.0762 8.91602 -17.9395 14.9609 -17.9395 C 20.9961 -17.9395 25.8594 -13.0762 25.8691 -7.04102 C 25.8789 -1.00586 21.0059 3.85742 14.9707 3.85742 Z M 14.9414 -1.06445 C 15.5176 -1.06445 15.8594 -1.45508 15.8594 -2.06055 L 15.8594 -6.13281 L 20.0977 -6.13281 C 20.6934 -6.13281 21.1133 -6.46484 21.1133 -7.02148 C 21.1133 -7.59766 20.7227 -7.93945 20.0977 -7.93945 L 15.8594 -7.93945 L 15.8594 -12.1875 C 15.8594 -12.8027 15.5176 -13.1934 14.9414 -13.1934 C 14.3848 -13.1934 14.0625 -12.7832 14.0625 -12.1875 L 14.0625 -7.93945 L 9.82422 -7.93945 C 9.20898 -7.93945 8.80859 -7.59766 8.80859 -7.02148 C 8.80859 -6.46484 9.23828 -6.13281 9.82422 -6.13281 L 14.0625 -6.13281 L 14.0625 -2.06055 C 14.0625 -1.47461 14.3848 -1.06445 14.9414 -1.06445 Z"/>
  </g>
  <text style="stroke:none;fill:black;font-family:-apple-system,&quot;SF Pro Display&quot;,&quot;SF Pro Text&quot;,Helvetica,sans-serif;font-weight:bold;" transform="matrix(1 0 0 1 263 1953)">Design Variations</text>
  <text style="stroke:none;fill:black;font-family:-apple-system,&quot;SF Pro Display&quot;,&quot;SF Pro Text&quot;,Helvetica,sans-serif;" transform="matrix(1 0 0 1 263 1971)">Symbols are supported in up to nine weights and three scales.</text>
  <text style="stroke:none;fill:black;font-family:-apple-system,&quot;SF Pro Display&quot;,&quot;SF Pro Text&quot;,Helvetica,sans-serif;" transform="matrix(1 0 0 1 263 1989)">For optimal layout with text and other symbols, vertically align</text>
  <text style="stroke:none;fill:black;font-family:-apple-system,&quot;SF Pro Display&quot;,&quot;SF Pro Text&quot;,Helvetica,sans-serif;" transform="matrix(1 0 0 1 263 2007)">symbols with the adjacent text.</text>
  <rect height="14" id="" style="fill:#00AEEF;stroke:none;opacity:0.4;" width="3" x="776" y="1919"/>
  <g id="" transform="matrix(1 0 0 1 779 1933)">
   <path d="M 10.5273 0 L 12.373 0 L 7.17773 -14.0918 L 5.43945 -14.0918 L 0.244141 0 L 2.08984 0 L 3.50586 -4.0332 L 9.11133 -4.0332 Z M 6.2793 -11.9531 L 6.33789 -11.9531 L 8.59375 -5.52734 L 4.02344 -5.52734 Z"/>
  </g>
  <rect height="14" id="" style="fill:#00AEEF;stroke:none;opacity:0.4;" width="3" x="791.617" y="1919"/>
  <text style="stroke:none;fill:black;font-family:-apple-system,&quot;SF Pro Display&quot;,&quot;SF Pro Text&quot;,Helvetica,sans-serif;font-weight:bold;" transform="matrix(1 0 0 1 776 1953)">Side Bearings</text>
  <text style="stroke:none;fill:black;font-family:-apple-system,&quot;SF Pro Display&quot;,&quot;SF Pro Text&quot;,Helvetica,sans-serif;" transform="matrix(1 0 0 1 776 1971)">Horizontal padding on the left and right side of each symbol</text>
  <text style="stroke:none;fill:black;font-family:-apple-system,&quot;SF Pro Display&quot;,&quot;SF Pro Text&quot;,Helvetica,sans-serif;" transform="matrix(1 0 0 1 776 1989)">can be adjusted by modifying the width of the blue rectangles.</text>
  <text style="stroke:none;fill:black;font-family:-apple-system,&quot;SF Pro Display&quot;,&quot;SF Pro Text&quot;,Helvetica,sans-serif;" transform="matrix(1 0 0 1 776 2007)">Modifications are automatically applied proportionally to all</text>
  <text style="stroke:none;fill:black;font-family:-apple-system,&quot;SF Pro Display&quot;,&quot;SF Pro Text&quot;,Helvetica,sans-serif;" transform="matrix(1 0 0 1 776 2025)">scales and weights.</text>
  <g id="" transform="matrix(1 0 0 1 1289 1933)">
   <path d="M 2.96875 2.35352 L 3.80859 3.19336 C 4.84375 4.22852 6.12305 4.15039 7.19727 2.97852 L 16.1621 -6.82617 C 16.5527 -6.74805 16.9629 -6.8457 17.4902 -7.02148 C 18.1738 -7.25586 18.2715 -7.25586 18.3887 -7.13867 C 18.5352 -7.01172 18.4863 -6.89453 18.2422 -6.25 C 17.8809 -5.33203 17.8125 -4.79492 18.5547 -4.02344 L 19.4238 -3.13477 C 20.2734 -2.24609 21.3281 -2.26562 22.2168 -3.14453 L 25.0586 -5.97656 C 25.9473 -6.86523 25.957 -7.92969 25.0781 -8.7793 L 24.1797 -9.64844 C 23.4082 -10.4004 22.8711 -10.3516 21.9629 -9.98047 C 21.3184 -9.72656 21.2012 -9.6875 21.0645 -9.81445 C 20.9375 -9.93164 20.9473 -10.0391 21.1816 -10.7129 C 21.5332 -11.6895 21.5723 -12.2852 20.752 -13.0957 L 19.3359 -14.5117 C 15.1953 -18.6133 11.2305 -18.7402 7.65625 -15.4395 C 7.08008 -14.9023 6.99219 -14.1504 7.53906 -13.6133 L 7.79297 -13.3594 C 8.22266 -12.9297 8.86719 -12.8418 9.41406 -13.1152 C 11.0645 -13.9453 12.2559 -14.0234 13.457 -12.9785 L 13.0273 -11.416 C 12.8516 -10.8008 12.793 -10.3418 12.9199 -9.93164 L 3.18359 -1.04492 C 2.02148 0.0292969 1.93359 1.32812 2.96875 2.35352 Z M 8.96484 -14.4922 C 8.89648 -14.5703 8.86719 -14.6582 8.99414 -14.7559 C 11.709 -17.2852 15.0391 -16.8457 18.3496 -13.5254 L 19.6973 -12.168 C 20.0879 -11.7773 20.0977 -11.582 19.8828 -10.8691 C 19.6582 -10.127 19.502 -9.53125 20.1465 -8.88672 C 20.8105 -8.22266 21.2891 -8.41797 22.207 -8.63281 C 22.9004 -8.79883 23.0664 -8.79883 23.4473 -8.41797 L 24.0918 -7.77344 C 24.4043 -7.48047 24.4141 -7.32422 24.0723 -6.97266 L 21.2207 -4.13086 C 20.8887 -3.79883 20.7227 -3.79883 20.4297 -4.10156 L 19.7852 -4.75586 C 19.4141 -5.13672 19.4141 -5.30273 19.5801 -6.01562 C 19.7852 -6.88477 19.9805 -7.38281 19.3262 -8.04688 C 18.6719 -8.7207 18.0762 -8.57422 17.3438 -8.33008 C 16.5625 -8.06641 16.3281 -8.06641 15.8984 -8.49609 L 14.6094 -9.78516 C 14.1699 -10.2246 14.1309 -10.4395 14.2676 -10.9082 L 15.0293 -13.3984 C 13.3887 -15.2832 11.4941 -15.5566 9.20898 -14.4434 C 9.11133 -14.3945 9.04297 -14.4141 8.96484 -14.4922 Z M 3.96484 1.36719 C 3.52539 0.927734 3.54492 0.537109 4.14062 -0.00976562 L 13.7402 -8.81836 L 15 -7.55859 L 6.17188 2.02148 C 5.625 2.60742 5.24414 2.64648 4.79492 2.19727 Z"/>
  </g>
  <text style="stroke:none;fill:black;font-family:-apple-system,&quot;SF Pro Display&quot;,&quot;SF Pro Text&quot;,Helvetica,sans-serif;font-weight:bold;" transform="matrix(1 0 0 1 1289 1953)">Exporting</text>
  <text style="stroke:none;fill:black;font-family:-apple-system,&quot;SF Pro Display&quot;,&quot;SF Pro Text&quot;,Helvetica,sans-serif;" transform="matrix(1 0 0 1 1289 1971)">Symbols should be outlined when exporting to ensure the</text>
  <text style="stroke:none;fill:black;font-family:-apple-system,&quot;SF Pro Display&quot;,&quot;SF Pro Text&quot;,Helvetica,sans-serif;" transform="matrix(1 0 0 1 1289 1989)">design is preserved when submitting to Xcode.</text>
  <text id="template-version" style="stroke:none;fill:black;font-family:-apple-system,&quot;SF Pro Display&quot;,&quot;SF Pro Text&quot;,Helvetica,sans-serif;text-anchor:end;" transform="matrix(1 0 0 1 3036 1933)">Template v.0.1</text>
  <text style="stroke:none;fill:black;font-family:-apple-system,&quot;SF Pro Display&quot;,&quot;SF Pro Text&quot;,Helvetica,sans-serif;text-anchor:end;" transform="matrix(1 0 0 1 3036 1951)">Generated from pause.circle.fill</text>
  <text style="stroke:none;fill:black;font-family:-apple-system,&quot;SF Pro Display&quot;,&quot;SF Pro Text&quot;,Helvetica,sans-serif;text-anchor:end;" transform="matrix(1 0 0 1 3036 1969)">Typeset at 100 points</text>
  <text style="stroke:none;fill:black;font-family:-apple-system,&quot;SF Pro Display&quot;,&quot;SF Pro Text&quot;,Helvetica,sans-serif;" transform="matrix(1 0 0 1 263 726)">Small</text>
  <text style="stroke:none;fill:black;font-family:-apple-system,&quot;SF Pro Display&quot;,&quot;SF Pro Text&quot;,Helvetica,sans-serif;" transform="matrix(1 0 0 1 263 1156)">Medium</text>
  <text style="stroke:none;fill:black;font-family:-apple-system,&quot;SF Pro Display&quot;,&quot;SF Pro Text&quot;,Helvetica,sans-serif;" transform="matrix(1 0 0 1 263 1586)">Large</text>
 </g>
 <g id="Guides">
  <g id="H-reference" style="fill:#27AAE1;stroke:none;" transform="matrix(1 0 0 1 339 696)">
   <path d="M 54.9316 0 L 57.666 0 L 30.5664 -70.459 L 28.0762 -70.459 L 0.976562 0 L 3.66211 0 L 12.9395 -24.4629 L 45.7031 -24.4629 Z M 29.1992 -67.0898 L 29.4434 -67.0898 L 44.8242 -26.709 L 13.8184 -26.709 Z"/>
  </g>
  <line id="Baseline-S" style="fill:none;stroke:#27AAE1;opacity:1;stroke-width:0.577;" x1="263" x2="3036" y1="696" y2="696"/>
  <line id="Capline-S" style="fill:none;stroke:#27AAE1;opacity:1;stroke-width:0.577;" x1="263" x2="3036" y1="625.541" y2="625.541"/>
  <g id="H-reference" style="fill:#27AAE1;stroke:none;" transform="matrix(1 0 0 1 339 1126)">
   <path d="M 54.9316 0 L 57.666 0 L 30.5664 -70.459 L 28.0762 -70.459 L 0.976562 0 L 3.66211 0 L 12.9395 -24.4629 L 45.7031 -24.4629 Z M 29.1992 -67.0898 L 29.4434 -67.0898 L 44.8242 -26.709 L 13.8184 -26.709 Z"/>
  </g>
  <line id="Baseline-M" style="fill:none;stroke:#27AAE1;opacity:1;stroke-width:0.577;" x1="263" x2="3036" y1="1126" y2="1126"/>
  <line id="Capline-M" style="fill:none;stroke:#27AAE1;opacity:1;stroke-width:0.577;" x1="263" x2="3036" y1="1055.54" y2="1055.54"/>
  <g id="H-reference" style="fill:#27AAE1;stroke:none;" transform="matrix(1 0 0 1 339 1556)">
   <path d="M 54.9316 0 L 57.666 0 L 30.5664 -70.459 L 28.0762 -70.459 L 0.976562 0 L 3.66211 0 L 12.9395 -24.4629 L 45.7031 -24.4629 Z M 29.1992 -67.0898 L 29.4434 -67.0898 L 44.8242 -26.709 L 13.8184 -26.709 Z"/>
  </g>
  <line id="Baseline-L" style="fill:none;stroke:#27AAE1;opacity:1;stroke-width:0.577;" x1="263" x2="3036" y1="1556" y2="1556"/>
  <line id="Capline-L" style="fill:none;stroke:#27AAE1;opacity:1;stroke-width:0.577;" x1="263" x2="3036" y1="1485.54" y2="1485.54"/>
  <rect height="119.336" id="left-margin" style="fill:#00AEEF;stroke:none;opacity:0.4;" width="8.74023" x="1391.32" y="1030.79"/>
  <rect height="119.336" id="right-margin" style="fill:#00AEEF;stroke:none;opacity:0.4;" width="8.69141" x="1499.67" y="1030.79"/>
 </g>
 <g id="Symbols">
  <g id="Ultralight-S" transform="matrix(1 0 0 1 515.644 696)">
   <path d="M 44.043 2.05078 C 64.502 2.05078 81.2988 -14.6973 81.2988 -35.1562 C 81.2988 -55.6152 64.502 -72.3633 44.043 -72.3633 C 23.584 -72.3633 6.83594 -55.6152 6.83594 -35.1562 C 6.83594 -14.6973 23.584 2.05078 44.043 2.05078 Z M 34.2773 -21.4355 C 32.8613 -21.4355 32.1289 -22.2168 32.1289 -23.3887 L 32.1289 -46.6797 C 32.1289 -47.8516 32.8613 -48.6328 34.2773 -48.6328 L 37.9883 -48.6328 C 39.4531 -48.6328 40.0879 -47.8516 40.0879 -46.6797 L 40.0879 -23.3887 C 40.0879 -22.2168 39.4531 -21.4355 37.9883 -21.4355 Z M 50.0977 -21.4355 C 48.6816 -21.4355 47.998 -22.2168 47.998 -23.3887 L 47.998 -46.6797 C 47.998 -47.8516 48.6816 -48.6328 50.0977 -48.6328 L 53.8086 -48.6328 C 55.2246 -48.6328 55.9082 -47.8516 55.9082 -46.6797 L 55.9082 -23.3887 C 55.9082 -22.2168 55.2246 -21.4355 53.8086 -21.4355 Z"/>
  </g>
  <g id="Thin-S" transform="matrix(1 0 0 1 811.867 696)">
   <path d="M 44.5801 2.53906 C 65.2832 2.53906 82.2754 -14.4531 82.2754 -35.2051 C 82.2754 -55.9082 65.2344 -72.9004 44.5312 -72.9004 C 23.8281 -72.9004 6.83594 -55.9082 6.83594 -35.2051 C 6.83594 -14.4531 23.877 2.53906 44.5801 2.53906 Z M 34.7168 -21.4355 C 33.2031 -21.4355 32.4707 -22.2656 32.4707 -23.5352 L 32.4707 -46.6797 C 32.4707 -47.9492 33.2031 -48.7793 34.7168 -48.7793 L 38.3789 -48.7793 C 39.8926 -48.7793 40.5762 -47.9492 40.5762 -46.6797 L 40.5762 -23.5352 C 40.5762 -22.2656 39.8926 -21.4355 38.3789 -21.4355 Z M 50.7324 -21.4355 C 49.2188 -21.4355 48.5352 -22.2656 48.5352 -23.5352 L 48.5352 -46.6797 C 48.5352 -47.9492 49.2188 -48.7793 50.7324 -48.7793 L 54.3457 -48.7793 C 55.8594 -48.7793 56.5918 -47.9492 56.5918 -46.6797 L 56.5918 -23.5352 C 56.5918 -22.2656 55.8594 -21.4355 54.3457 -21.4355 Z"/>
  </g>
  <g id="Light-S" transform="matrix(1 0 0 1 1107.6 696)">
   <path d="M 45.5078 3.4668 C 66.6992 3.4668 84.2285 -14.0625 84.2285 -35.2051 C 84.2285 -56.3965 66.6504 -73.9258 45.5078 -73.9258 C 24.3164 -73.9258 6.83594 -56.3965 6.83594 -35.2051 C 6.83594 -14.0625 24.3652 3.4668 45.5078 3.4668 Z M 35.5469 -21.4355 C 33.8867 -21.4355 33.1055 -22.3633 33.1055 -23.6816 L 33.1055 -46.6797 C 33.1055 -48.0469 33.8867 -48.9258 35.5469 -48.9258 L 39.1113 -48.9258 C 40.7715 -48.9258 41.5527 -48.0469 41.5527 -46.6797 L 41.5527 -23.6816 C 41.5527 -22.3633 40.7715 -21.4355 39.1113 -21.4355 Z M 51.9531 -21.4355 C 50.293 -21.4355 49.4629 -22.3633 49.4629 -23.6816 L 49.4629 -46.6797 C 49.4629 -48.0469 50.293 -48.9258 51.9531 -48.9258 L 55.4688 -48.9258 C 57.1289 -48.9258 57.9102 -48.0469 57.9102 -46.6797 L 57.9102 -23.6816 C 57.9102 -22.3633 57.1289 -21.4355 55.4688 -21.4355 Z"/>
  </g>
  <g id="Regular-S" transform="matrix(1 0 0 1 1403.58 696)">
   <path d="M 46.2402 4.15039 C 67.7734 4.15039 85.6934 -13.7207 85.6934 -35.2539 C 85.6934 -56.7871 67.7246 -74.6582 46.1914 -74.6582 C 24.707 -74.6582 6.83594 -56.7871 6.83594 -35.2539 C 6.83594 -13.7207 24.7559 4.15039 46.2402 4.15039 Z M 36.2305 -21.4355 C 34.375 -21.4355 33.5449 -22.4121 33.5449 -23.8281 L 33.5449 -46.6797 C 33.5449 -48.1445 34.375 -49.0723 36.2305 -49.0723 L 39.6484 -49.0723 C 41.4551 -49.0723 42.2363 -48.1445 42.2363 -46.6797 L 42.2363 -23.8281 C 42.2363 -22.4121 41.4551 -21.4355 39.6484 -21.4355 Z M 52.8809 -21.4355 C 51.0742 -21.4355 50.1953 -22.4121 50.1953 -23.8281 L 50.1953 -46.6797 C 50.1953 -48.1445 51.0742 -49.0723 52.8809 -49.0723 L 56.2988 -49.0723 C 58.1055 -49.0723 58.8867 -48.1445 58.8867 -46.6797 L 58.8867 -23.8281 C 58.8867 -22.4121 58.1055 -21.4355 56.2988 -21.4355 Z"/>
  </g>
  <g id="Medium-S" transform="matrix(1 0 0 1 1699.7 696)">
   <path d="M 46.8262 4.78516 C 68.75 4.78516 86.8652 -13.3301 86.8652 -35.2539 C 86.8652 -57.1289 68.7012 -75.2441 46.8262 -75.2441 C 24.9023 -75.2441 6.83594 -57.1289 6.83594 -35.2539 C 6.83594 -13.3301 24.9512 4.78516 46.8262 4.78516 Z M 36.3281 -21.0938 C 34.4238 -21.0938 33.4961 -22.168 33.4961 -23.7305 L 33.4961 -46.7773 C 33.4961 -48.3398 34.4238 -49.4141 36.3281 -49.4141 L 40.0879 -49.4141 C 41.9922 -49.4141 42.9199 -48.3398 42.9199 -46.7773 L 42.9199 -23.7305 C 42.9199 -22.168 41.9922 -21.0938 40.0879 -21.0938 Z M 53.5645 -21.0938 C 51.709 -21.0938 50.7324 -22.168 50.7324 -23.7305 L 50.7324 -46.7773 C 50.7324 -48.3398 51.709 -49.4141 53.5645 -49.4141 L 57.3242 -49.4141 C 59.2285 -49.4141 60.1562 -48.3398 60.1562 -46.7773 L 60.1562 -23.7305 C 60.1562 -22.168 59.2285 -21.0938 57.3242 -21.0938 Z"/>
  </g>
  <g id="Semibold-S" transform="matrix(1 0 0 1 1995.98 696)">
   <path d="M 47.3145 5.22461 C 69.4824 5.22461 87.7441 -13.0371 87.7441 -35.2539 C 87.7441 -57.4219 69.4336 -75.6836 47.2656 -75.6836 C 25.0977 -75.6836 6.83594 -57.4219 6.83594 -35.2539 C 6.83594 -13.0371 25.0977 5.22461 47.3145 5.22461 Z M 36.4258 -20.8496 C 34.4727 -20.8496 33.4473 -21.9727 33.4473 -23.6816 L 33.4473 -46.8262 C 33.4473 -48.5352 34.4727 -49.6582 36.4258 -49.6582 L 40.4297 -49.6582 C 42.3828 -49.6582 43.4082 -48.5352 43.4082 -46.8262 L 43.4082 -23.6816 C 43.4082 -21.9727 42.3828 -20.8496 40.4297 -20.8496 Z M 54.1504 -20.8496 C 52.1973 -20.8496 51.123 -21.9727 51.123 -23.6816 L 51.123 -46.8262 C 51.123 -48.5352 52.1973 -49.6582 54.1504 -49.6582 L 58.1543 -49.6582 C 60.1074 -49.6582 61.084 -48.5352 61.084 -46.8262 L 61.084 -23.6816 C 61.084 -21.9727 60.1074 -20.8496 58.1543 -20.8496 Z"/>
  </g>
  <g id="Bold-S" transform="matrix(1 0 0 1 2292.1 696)">
   <path d="M 47.9004 5.81055 C 70.4102 5.81055 88.916 -12.6465 88.916 -35.2051 C 88.916 -57.7637 70.4102 -76.2695 47.8516 -76.2695 C 25.293 -76.2695 6.83594 -57.7637 6.83594 -35.2051 C 6.83594 -12.6465 25.3418 5.81055 47.9004 5.81055 Z M 36.5723 -20.5078 C 34.4727 -20.5078 33.3984 -21.7285 33.3984 -23.5352 L 33.3984 -46.9238 C 33.3984 -48.7793 34.4727 -49.9512 36.5723 -49.9512 L 40.918 -49.9512 C 42.9688 -49.9512 44.043 -48.7793 44.043 -46.9238 L 44.043 -23.5352 C 44.043 -21.7285 42.9688 -20.5078 40.918 -20.5078 Z M 54.834 -20.5078 C 52.7832 -20.5078 51.6602 -21.7285 51.6602 -23.5352 L 51.6602 -46.9238 C 51.6602 -48.7793 52.7832 -49.9512 54.834 -49.9512 L 59.2285 -49.9512 C 61.2793 -49.9512 62.3535 -48.7793 62.3535 -46.9238 L 62.3535 -23.5352 C 62.3535 -21.7285 61.2793 -20.5078 59.2285 -20.5078 Z"/>
  </g>
  <g id="Heavy-S" transform="matrix(1 0 0 1 2587.96 696)">
   <path d="M 48.7305 6.68945 C 71.8262 6.68945 90.625 -12.1094 90.625 -35.2051 C 90.625 -58.3008 71.8262 -77.0996 48.7305 -77.0996 C 25.6348 -77.0996 6.83594 -58.3008 6.83594 -35.2051 C 6.83594 -12.1094 25.6348 6.68945 48.7305 6.68945 Z M 36.7188 -20.0684 C 34.5703 -20.0684 33.3008 -21.3379 33.3008 -23.3887 L 33.3008 -47.0703 C 33.3008 -49.0723 34.5703 -50.3906 36.7188 -50.3906 L 41.6016 -50.3906 C 43.75 -50.3906 45.0195 -49.0723 45.0195 -47.0703 L 45.0195 -23.3887 C 45.0195 -21.3379 43.75 -20.0684 41.6016 -20.0684 Z M 55.9082 -20.0684 C 53.7109 -20.0684 52.4414 -21.3379 52.4414 -23.3887 L 52.4414 -47.0703 C 52.4414 -49.0723 53.7109 -50.3906 55.9082 -50.3906 L 60.7422 -50.3906 C 62.9395 -50.3906 64.209 -49.0723 64.209 -47.0703 L 64.209 -23.3887 C 64.209 -21.3379 62.9395 -20.0684 60.7422 -20.0684 Z"/>
  </g>
  <g id="Black-S" transform="matrix(1 0 0 1 2883.89 696)">
   <path d="M 49.5117 7.4707 C 73.0957 7.4707 92.1875 -11.6211 92.1875 -35.2051 C 92.1875 -58.7891 73.0957 -77.8809 49.5117 -77.8809 C 25.9277 -77.8809 6.83594 -58.7891 6.83594 -35.2051 C 6.83594 -11.6211 25.9277 7.4707 49.5117 7.4707 Z M 36.9141 -19.6289 C 34.6191 -19.6289 33.2031 -21.0449 33.2031 -23.2422 L 33.2031 -47.168 C 33.2031 -49.4141 34.6191 -50.8301 36.9141 -50.8301 L 42.1875 -50.8301 C 44.4824 -50.8301 45.8984 -49.4141 45.8984 -47.168 L 45.8984 -23.2422 C 45.8984 -21.0449 44.4824 -19.6289 42.1875 -19.6289 Z M 56.8359 -19.6289 C 54.541 -19.6289 53.1738 -21.0449 53.1738 -23.2422 L 53.1738 -47.168 C 53.1738 -49.4141 54.541 -50.8301 56.8359 -50.8301 L 62.1094 -50.8301 C 64.4531 -50.8301 65.8203 -49.4141 65.8203 -47.168 L 65.8203 -23.2422 C 65.8203 -21.0449 64.4531 -19.6289 62.1094 -19.6289 Z"/>
  </g>
  <g id="Ultralight-M" transform="matrix(1 0 0 1 503.656 1126)">
   <path d="M 56.0547 12.207 C 82.0801 12.207 103.369 -9.08203 103.369 -35.1562 C 103.369 -61.1816 82.0801 -82.4707 56.0547 -82.4707 C 30.0293 -82.4707 8.74023 -61.1816 8.74023 -35.1562 C 8.74023 -9.08203 30.0293 12.207 56.0547 12.207 Z M 43.6035 -17.627 C 41.7969 -17.627 40.918 -18.6035 40.918 -20.1172 L 40.918 -49.8535 C 40.918 -51.3184 41.7969 -52.3438 43.6035 -52.3438 L 48.3398 -52.3438 C 50.1953 -52.3438 50.9766 -51.3184 50.9766 -49.8535 L 50.9766 -20.1172 C 50.9766 -18.6035 50.1953 -17.627 48.3398 -17.627 Z M 63.7207 -17.627 C 61.9141 -17.627 61.084 -18.6035 61.084 -20.1172 L 61.084 -49.8535 C 61.084 -51.3184 61.9141 -52.3438 63.7207 -52.3438 L 68.457 -52.3438 C 70.2637 -52.3438 71.0938 -51.3184 71.0938 -49.8535 L 71.0938 -20.1172 C 71.0938 -18.6035 70.2637 -17.627 68.457 -17.627 Z"/>
  </g>
  <g id="Thin-M" transform="matrix(1 0 0 1 799.806 1126)">
   <path d="M 56.5918 12.7441 C 82.9102 12.7441 104.492 -8.83789 104.492 -35.1562 C 104.492 -61.4746 82.9102 -83.0566 56.5918 -83.0566 C 30.3223 -83.0566 8.74023 -61.4746 8.74023 -35.1562 C 8.74023 -8.83789 30.3223 12.7441 56.5918 12.7441 Z M 44.0918 -17.627 C 42.1875 -17.627 41.2598 -18.6523 41.2598 -20.2148 L 41.2598 -49.8535 C 41.2598 -51.416 42.1875 -52.4414 44.0918 -52.4414 L 48.7793 -52.4414 C 50.6836 -52.4414 51.5625 -51.416 51.5625 -49.8535 L 51.5625 -20.2148 C 51.5625 -18.6523 50.6836 -17.627 48.7793 -17.627 Z M 64.4043 -17.627 C 62.5 -17.627 61.6699 -18.6523 61.6699 -20.2148 L 61.6699 -49.8535 C 61.6699 -51.416 62.5 -52.4414 64.4043 -52.4414 L 69.0918 -52.4414 C 70.9961 -52.4414 71.875 -51.416 71.875 -49.8535 L 71.875 -20.2148 C 71.875 -18.6523 70.9961 -17.627 69.0918 -17.627 Z"/>
  </g>
  <g id="Light-M" transform="matrix(1 0 0 1 1095.42 1126)">
   <path d="M 57.7148 13.7695 C 84.5215 13.7695 106.689 -8.39844 106.689 -35.2051 C 106.689 -62.0117 84.4727 -84.1797 57.666 -84.1797 C 30.8594 -84.1797 8.74023 -62.0117 8.74023 -35.2051 C 8.74023 -8.39844 30.8594 13.7695 57.7148 13.7695 Z M 45.0684 -17.627 C 42.9688 -17.627 41.9922 -18.75 41.9922 -20.459 L 41.9922 -49.8535 C 41.9922 -51.5137 42.9688 -52.6367 45.0684 -52.6367 L 49.6094 -52.6367 C 51.6602 -52.6367 52.6367 -51.5137 52.6367 -49.8535 L 52.6367 -20.459 C 52.6367 -18.75 51.6602 -17.627 49.6094 -17.627 Z M 65.7715 -17.627 C 63.7207 -17.627 62.7441 -18.75 62.7441 -20.459 L 62.7441 -49.8535 C 62.7441 -51.5137 63.7207 -52.6367 65.7715 -52.6367 L 70.3125 -52.6367 C 72.4121 -52.6367 73.3887 -51.5137 73.3887 -49.8535 L 73.3887 -20.459 C 73.3887 -18.75 72.4121 -17.627 70.3125 -17.627 Z"/>
  </g>
  <g id="Regular-M" transform="matrix(1 0 0 1 1391.32 1126)">
   <path d="M 58.5449 14.5508 C 85.7422 14.5508 108.35 -8.00781 108.35 -35.2539 C 108.35 -62.4512 85.6934 -85.0586 58.4961 -85.0586 C 31.25 -85.0586 8.74023 -62.4512 8.74023 -35.2539 C 8.74023 -8.00781 31.2988 14.5508 58.5449 14.5508 Z M 45.752 -17.627 C 43.5059 -17.627 42.5293 -18.7988 42.5293 -20.6055 L 42.5293 -49.8535 C 42.5293 -51.6113 43.5059 -52.832 45.752 -52.832 L 50.1953 -52.832 C 52.4414 -52.832 53.418 -51.6113 53.418 -49.8535 L 53.418 -20.6055 C 53.418 -18.7988 52.4414 -17.627 50.1953 -17.627 Z M 66.8457 -17.627 C 64.6484 -17.627 63.5742 -18.7988 63.5742 -20.6055 L 63.5742 -49.8535 C 63.5742 -51.6113 64.6484 -52.832 66.8457 -52.832 L 71.2891 -52.832 C 73.4863 -52.832 74.5117 -51.6113 74.5117 -49.8535 L 74.5117 -20.6055 C 74.5117 -18.7988 73.4863 -17.627 71.2891 -17.627 Z"/>
  </g>
  <g id="Medium-M" transform="matrix(1 0 0 1 1687.33 1126)">
   <path d="M 59.2285 15.2832 C 86.8652 15.2832 109.717 -7.56836 109.717 -35.2051 C 109.717 -62.8906 86.8164 -85.7422 59.1797 -85.7422 C 31.543 -85.7422 8.74023 -62.8906 8.74023 -35.2051 C 8.74023 -7.56836 31.5918 15.2832 59.2285 15.2832 Z M 45.9961 -17.2852 C 43.6523 -17.2852 42.5293 -18.5547 42.5293 -20.5078 L 42.5293 -49.9512 C 42.5293 -51.8555 43.6523 -53.1738 45.9961 -53.1738 L 50.7812 -53.1738 C 53.0762 -53.1738 54.1992 -51.8555 54.1992 -49.9512 L 54.1992 -20.5078 C 54.1992 -18.5547 53.0762 -17.2852 50.7812 -17.2852 Z M 67.6758 -17.2852 C 65.3809 -17.2852 64.209 -18.5547 64.209 -20.5078 L 64.209 -49.9512 C 64.209 -51.8555 65.3809 -53.1738 67.6758 -53.1738 L 72.4609 -53.1738 C 74.7559 -53.1738 75.8789 -51.8555 75.8789 -49.9512 L 75.8789 -20.5078 C 75.8789 -18.5547 74.7559 -17.2852 72.4609 -17.2852 Z"/>
  </g>
  <g id="Semibold-M" transform="matrix(1 0 0 1 1983.5 1126)">
   <path d="M 59.7656 15.8203 C 87.7441 15.8203 110.791 -7.22656 110.791 -35.2051 C 110.791 -63.1836 87.6953 -86.2793 59.7168 -86.2793 C 31.7383 -86.2793 8.74023 -63.1836 8.74023 -35.2051 C 8.74023 -7.22656 31.7871 15.8203 59.7656 15.8203 Z M 46.1426 -17.041 C 43.7012 -17.041 42.4805 -18.4082 42.4805 -20.459 L 42.4805 -50 C 42.4805 -52.0508 43.7012 -53.418 46.1426 -53.418 L 51.1719 -53.418 C 53.5645 -53.418 54.7852 -52.0508 54.7852 -50 L 54.7852 -20.459 C 54.7852 -18.4082 53.5645 -17.041 51.1719 -17.041 Z M 68.3594 -17.041 C 65.9668 -17.041 64.6973 -18.4082 64.6973 -20.459 L 64.6973 -50 C 64.6973 -52.0508 65.9668 -53.418 68.3594 -53.418 L 73.3887 -53.418 C 75.7812 -53.418 77.002 -52.0508 77.002 -50 L 77.002 -20.459 C 77.002 -18.4082 75.7812 -17.041 73.3887 -17.041 Z"/>
  </g>
  <g id="Bold-M" transform="matrix(1 0 0 1 2279.5 1126)">
   <path d="M 60.4492 16.5039 C 88.8672 16.5039 112.207 -6.78711 112.207 -35.2051 C 112.207 -63.623 88.8672 -86.9629 60.4492 -86.9629 C 32.0312 -86.9629 8.74023 -63.623 8.74023 -35.2051 C 8.74023 -6.78711 32.0801 16.5039 60.4492 16.5039 Z M 46.3379 -16.6992 C 43.8477 -16.6992 42.4805 -18.1641 42.4805 -20.3613 L 42.4805 -50.0977 C 42.4805 -52.2949 43.8477 -53.7598 46.3379 -53.7598 L 51.709 -53.7598 C 54.248 -53.7598 55.5664 -52.2949 55.5664 -50.0977 L 55.5664 -20.3613 C 55.5664 -18.1641 54.248 -16.6992 51.709 -16.6992 Z M 69.1895 -16.6992 C 66.6992 -16.6992 65.332 -18.1641 65.332 -20.3613 L 65.332 -50.0977 C 65.332 -52.2949 66.6992 -53.7598 69.1895 -53.7598 L 74.5605 -53.7598 C 77.0508 -53.7598 78.418 -52.2949 78.418 -50.0977 L 78.418 -20.3613 C 78.418 -18.1641 77.0508 -16.6992 74.5605 -16.6992 Z"/>
  </g>
  <g id="Heavy-M" transform="matrix(1 0 0 1 2575.19 1126)">
   <path d="M 61.4746 17.5781 C 90.5273 17.5781 114.258 -6.15234 114.258 -35.2051 C 114.258 -64.2578 90.5273 -87.9883 61.4746 -87.9883 C 32.4219 -87.9883 8.74023 -64.2578 8.74023 -35.2051 C 8.74023 -6.15234 32.4707 17.5781 61.4746 17.5781 Z M 46.6797 -16.2109 C 43.9941 -16.2109 42.4805 -17.7734 42.4805 -20.2148 L 42.4805 -50.2441 C 42.4805 -52.6855 43.9941 -54.248 46.6797 -54.248 L 52.4902 -54.248 C 55.1758 -54.248 56.6895 -52.6855 56.6895 -50.2441 L 56.6895 -20.2148 C 56.6895 -17.7734 55.1758 -16.2109 52.4902 -16.2109 Z M 70.459 -16.2109 C 67.7734 -16.2109 66.3086 -17.7734 66.3086 -20.2148 L 66.3086 -50.2441 C 66.3086 -52.6855 67.7734 -54.248 70.459 -54.248 L 76.3184 -54.248 C 78.9551 -54.248 80.4688 -52.6855 80.4688 -50.2441 L 80.4688 -20.2148 C 80.4688 -17.7734 78.9551 -16.2109 76.3184 -16.2109 Z"/>
  </g>
  <g id="Black-M" transform="matrix(1 0 0 1 2871 1126)">
   <path d="M 62.4023 18.457 C 91.9922 18.457 116.064 -5.61523 116.064 -35.2051 C 116.064 -64.7949 91.9922 -88.8672 62.4023 -88.8672 C 32.8125 -88.8672 8.74023 -64.7949 8.74023 -35.2051 C 8.74023 -5.61523 32.8125 18.457 62.4023 18.457 Z M 46.9238 -15.7715 C 44.1406 -15.7715 42.4805 -17.4805 42.4805 -20.1172 L 42.4805 -50.3418 C 42.4805 -52.9785 44.1406 -54.6875 46.9238 -54.6875 L 53.2227 -54.6875 C 56.0547 -54.6875 57.666 -52.9785 57.666 -50.3418 L 57.666 -20.1172 C 57.666 -17.4805 56.0547 -15.7715 53.2227 -15.7715 Z M 71.582 -15.7715 C 68.75 -15.7715 67.1387 -17.4805 67.1387 -20.1172 L 67.1387 -50.3418 C 67.1387 -52.9785 68.75 -54.6875 71.582 -54.6875 L 77.8809 -54.6875 C 80.6641 -54.6875 82.3242 -52.9785 82.3242 -50.3418 L 82.3242 -20.1172 C 82.3242 -17.4805 80.6641 -15.7715 77.8809 -15.7715 Z"/>
  </g>
  <g id="Ultralight-L" transform="matrix(1 0 0 1 487.641 1556)">
   <path d="M 72.0703 25.7324 C 105.566 25.7324 132.91 -1.61133 132.91 -35.1074 C 132.91 -68.5547 105.566 -95.8984 72.0703 -95.8984 C 38.623 -95.8984 11.2793 -68.5547 11.2793 -35.1074 C 11.2793 -1.61133 38.623 25.7324 72.0703 25.7324 Z M 56.0059 -12.5 C 53.7598 -12.5 52.6367 -13.7695 52.6367 -15.6738 L 52.6367 -54.1016 C 52.6367 -56.0059 53.7598 -57.2266 56.0059 -57.2266 L 62.1582 -57.2266 C 64.5508 -57.2266 65.5762 -56.0059 65.5762 -54.1016 L 65.5762 -15.6738 C 65.5762 -13.7695 64.5508 -12.5 62.1582 -12.5 Z M 81.8848 -12.5 C 79.5898 -12.5 78.6133 -13.7695 78.6133 -15.6738 L 78.6133 -54.1016 C 78.6133 -56.0059 79.5898 -57.2266 81.8848 -57.2266 L 88.0371 -57.2266 C 90.332 -57.2266 91.4062 -56.0059 91.4062 -54.1016 L 91.4062 -15.6738 C 91.4062 -13.7695 90.332 -12.5 88.0371 -12.5 Z"/>
  </g>
  <g id="Thin-L" transform="matrix(1 0 0 1 783.717 1556)">
   <path d="M 72.7051 26.3184 C 106.494 26.3184 134.131 -1.36719 134.131 -35.1074 C 134.131 -68.8965 106.445 -96.582 72.7051 -96.582 C 38.916 -96.582 11.2793 -68.8965 11.2793 -35.1074 C 11.2793 -1.36719 38.916 26.3184 72.7051 26.3184 Z M 56.5918 -12.5 C 54.1992 -12.5 53.0273 -13.8184 53.0273 -15.7715 L 53.0273 -54.1016 C 53.0273 -56.0547 54.1992 -57.373 56.5918 -57.373 L 62.6465 -57.373 C 65.0879 -57.373 66.1621 -56.0547 66.1621 -54.1016 L 66.1621 -15.7715 C 66.1621 -13.8184 65.0879 -12.5 62.6465 -12.5 Z M 82.666 -12.5 C 80.2734 -12.5 79.1992 -13.8184 79.1992 -15.7715 L 79.1992 -54.1016 C 79.1992 -56.0547 80.2734 -57.373 82.666 -57.373 L 88.7695 -57.373 C 91.1133 -57.373 92.2852 -56.0547 92.2852 -54.1016 L 92.2852 -15.7715 C 92.2852 -13.8184 91.1133 -12.5 88.7695 -12.5 Z"/>
  </g>
  <g id="Light-L" transform="matrix(1 0 0 1 1079.21 1556)">
   <path d="M 73.9258 27.4902 C 108.301 27.4902 136.572 -0.830078 136.572 -35.1562 C 136.572 -69.5312 108.252 -97.8516 73.877 -97.8516 C 39.5508 -97.8516 11.2793 -69.5312 11.2793 -35.1562 C 11.2793 -0.830078 39.5508 27.4902 73.9258 27.4902 Z M 57.666 -12.5 C 55.0293 -12.5 53.8086 -13.916 53.8086 -16.0156 L 53.8086 -54.1016 C 53.8086 -56.2012 55.0293 -57.6172 57.666 -57.6172 L 63.5742 -57.6172 C 66.2109 -57.6172 67.3828 -56.2012 67.3828 -54.1016 L 67.3828 -16.0156 C 67.3828 -13.916 66.2109 -12.5 63.5742 -12.5 Z M 84.2285 -12.5 C 81.6406 -12.5 80.4199 -13.916 80.4199 -16.0156 L 80.4199 -54.1016 C 80.4199 -56.2012 81.6406 -57.6172 84.2285 -57.6172 L 90.1367 -57.6172 C 92.7246 -57.6172 93.9453 -56.2012 93.9453 -54.1016 L 93.9453 -16.0156 C 93.9453 -13.916 92.7246 -12.5 90.1367 -12.5 Z"/>
  </g>
  <g id="Regular-L" transform="matrix(1 0 0 1 1374.99 1556)">
   <path d="M 74.8535 28.3691 C 109.668 28.3691 138.428 -0.390625 138.428 -35.2051 C 138.428 -70.0195 109.619 -98.7793 74.8047 -98.7793 C 39.9902 -98.7793 11.2793 -70.0195 11.2793 -35.2051 C 11.2793 -0.390625 40.0391 28.3691 74.8535 28.3691 Z M 58.4473 -12.5 C 55.7129 -12.5 54.3945 -14.0137 54.3945 -16.2109 L 54.3945 -54.1016 C 54.3945 -56.2988 55.7129 -57.8125 58.4473 -57.8125 L 64.3066 -57.8125 C 67.041 -57.8125 68.2617 -56.2988 68.2617 -54.1016 L 68.2617 -16.2109 C 68.2617 -14.0137 67.041 -12.5 64.3066 -12.5 Z M 85.4004 -12.5 C 82.666 -12.5 81.3477 -14.0137 81.3477 -16.2109 L 81.3477 -54.1016 C 81.3477 -56.2988 82.666 -57.8125 85.4004 -57.8125 L 91.2109 -57.8125 C 93.9453 -57.8125 95.2148 -56.2988 95.2148 -54.1016 L 95.2148 -16.2109 C 95.2148 -14.0137 93.9453 -12.5 91.2109 -12.5 Z"/>
  </g>
  <g id="Medium-L" transform="matrix(1 0 0 1 1670.9 1556)">
   <path d="M 75.6348 29.1992 C 110.938 29.1992 140.039 0.0488281 140.039 -35.2051 C 140.039 -70.459 110.889 -99.6094 75.5859 -99.6094 C 40.332 -99.6094 11.2793 -70.459 11.2793 -35.2051 C 11.2793 0.0488281 40.3809 29.1992 75.6348 29.1992 Z M 58.7891 -12.207 C 55.9082 -12.207 54.541 -13.7695 54.541 -16.1621 L 54.541 -54.1504 C 54.541 -56.543 55.9082 -58.1543 58.7891 -58.1543 L 64.8926 -58.1543 C 67.7734 -58.1543 69.1406 -56.543 69.1406 -54.1504 L 69.1406 -16.1621 C 69.1406 -13.7695 67.7734 -12.207 64.8926 -12.207 Z M 86.377 -12.207 C 83.4961 -12.207 82.1289 -13.7695 82.1289 -16.1621 L 82.1289 -54.1504 C 82.1289 -56.543 83.4961 -58.1543 86.377 -58.1543 L 92.4805 -58.1543 C 95.3125 -58.1543 96.7285 -56.543 96.7285 -54.1504 L 96.7285 -16.1621 C 96.7285 -13.7695 95.3125 -12.207 92.4805 -12.207 Z"/>
  </g>
  <g id="Semibold-L" transform="matrix(1 0 0 1 1967 1556)">
   <path d="M 76.2695 29.7852 C 111.914 29.7852 141.26 0.439453 141.26 -35.2051 C 141.26 -70.8496 111.865 -100.244 76.2207 -100.244 C 40.5762 -100.244 11.2793 -70.8496 11.2793 -35.2051 C 11.2793 0.439453 40.625 29.7852 76.2695 29.7852 Z M 59.082 -11.9629 C 56.0547 -11.9629 54.5898 -13.623 54.5898 -16.1133 L 54.5898 -54.248 C 54.5898 -56.7383 56.0547 -58.3984 59.082 -58.3984 L 65.3809 -58.3984 C 68.3594 -58.3984 69.8242 -56.7383 69.8242 -54.248 L 69.8242 -16.1133 C 69.8242 -13.623 68.3594 -11.9629 65.3809 -11.9629 Z M 87.1582 -11.9629 C 84.1797 -11.9629 82.7148 -13.623 82.7148 -16.1133 L 82.7148 -54.248 C 82.7148 -56.7383 84.1797 -58.3984 87.1582 -58.3984 L 93.457 -58.3984 C 96.3867 -58.3984 97.8516 -56.7383 97.8516 -54.248 L 97.8516 -16.1133 C 97.8516 -13.623 96.3867 -11.9629 93.457 -11.9629 Z"/>
  </g>
  <g id="Bold-L" transform="matrix(1 0 0 1 2262.9 1556)">
   <path d="M 77.0996 30.6152 C 113.184 30.6152 142.92 0.878906 142.92 -35.2051 C 142.92 -71.3379 113.135 -101.025 77.0508 -101.025 C 40.918 -101.025 11.2793 -71.3379 11.2793 -35.2051 C 11.2793 0.878906 40.9668 30.6152 77.0996 30.6152 Z M 59.4238 -11.6699 C 56.2988 -11.6699 54.6875 -13.4277 54.6875 -16.0645 L 54.6875 -54.3457 C 54.6875 -56.9824 56.2988 -58.7402 59.4238 -58.7402 L 66.0156 -58.7402 C 69.0918 -58.7402 70.7031 -56.9824 70.7031 -54.3457 L 70.7031 -16.0645 C 70.7031 -13.4277 69.0918 -11.6699 66.0156 -11.6699 Z M 88.1348 -11.6699 C 85.0586 -11.6699 83.4473 -13.4277 83.4473 -16.0645 L 83.4473 -54.3457 C 83.4473 -56.9824 85.0586 -58.7402 88.1348 -58.7402 L 94.7266 -58.7402 C 97.8027 -58.7402 99.4141 -56.9824 99.4141 -54.3457 L 99.4141 -16.0645 C 99.4141 -13.4277 97.8027 -11.6699 94.7266 -11.6699 Z"/>
  </g>
  <g id="Heavy-L" transform="matrix(1 0 0 1 2558.42 1556)">
   <path d="M 78.2715 31.7871 C 115.039 31.7871 145.264 1.61133 145.264 -35.2051 C 145.264 -72.0215 115.039 -102.197 78.2227 -102.197 C 41.4551 -102.197 11.2793 -72.0215 11.2793 -35.2051 C 11.2793 1.61133 41.4551 31.7871 78.2715 31.7871 Z M 59.9121 -11.2305 C 56.5918 -11.2305 54.8828 -13.0859 54.8828 -16.0156 L 54.8828 -54.4434 C 54.8828 -57.373 56.5918 -59.2285 59.9121 -59.2285 L 66.9434 -59.2285 C 70.2148 -59.2285 71.9238 -57.373 71.9238 -54.4434 L 71.9238 -16.0156 C 71.9238 -13.0859 70.2148 -11.2305 66.9434 -11.2305 Z M 89.5996 -11.2305 C 86.3281 -11.2305 84.5703 -13.0859 84.5703 -16.0156 L 84.5703 -54.4434 C 84.5703 -57.373 86.3281 -59.2285 89.5996 -59.2285 L 96.6309 -59.2285 C 99.9023 -59.2285 101.611 -57.373 101.611 -54.4434 L 101.611 -16.0156 C 101.611 -13.0859 99.9023 -11.2305 96.6309 -11.2305 Z"/>
  </g>
  <g id="Black-L" transform="matrix(1 0 0 1 2854.08 1556)">
   <path d="M 79.2969 32.8613 C 116.748 32.8613 147.363 2.19727 147.363 -35.2051 C 147.363 -72.6074 116.699 -103.271 79.2969 -103.271 C 41.8945 -103.271 11.2793 -72.6074 11.2793 -35.2051 C 11.2793 2.19727 41.8945 32.8613 79.2969 32.8613 Z M 60.3516 -10.8398 C 56.8848 -10.8398 54.9805 -12.8418 54.9805 -15.9668 L 54.9805 -54.541 C 54.9805 -57.666 56.8848 -59.668 60.3516 -59.668 L 67.7246 -59.668 C 71.1914 -59.668 73.0957 -57.666 73.0957 -54.541 L 73.0957 -15.9668 C 73.0957 -12.8418 71.1914 -10.8398 67.7246 -10.8398 Z M 90.918 -10.8398 C 87.4512 -10.8398 85.5469 -12.8418 85.5469 -15.9668 L 85.5469 -54.541 C 85.5469 -57.666 87.4512 -59.668 90.918 -59.668 L 98.291 -59.668 C 101.709 -59.668 103.613 -57.666 103.613 -54.541 L 103.613 -15.9668 C 103.613 -12.8418 101.709 -10.8398 98.291 -10.8398 Z"/>
  </g>
 </g>
</svg>
