<?xml version="1.0" encoding="UTF-8"?>
<!--Generator: Apple Native CoreSVG 123-->
<!DOCTYPE svg
PUBLIC "-//W3C//DTD SVG 1.1//EN"
       "http://www.w3.org/Graphics/SVG/1.1/DTD/svg11.dtd">
<svg version="1.1" xmlns="http://www.w3.org/2000/svg" xmlns:xlink="http://www.w3.org/1999/xlink" width="3300" height="2200">
 <!--glyph: "uni1003D0.medium", point size: 100.000000, font version: "Version 15.0d4e20", template writer version: "2"-->
 <g id="Notes">
  <rect height="2200" id="artboard" style="fill:white;opacity:1" width="3300" x="0" y="0"/>
  <line id="" style="fill:none;stroke:black;opacity:1;stroke-width:0.5;" x1="263" x2="3036" y1="292" y2="292"/>
  <text style="stroke:none;fill:black;font-family:-apple-system,&quot;SF Pro Display&quot;,&quot;SF Pro Text&quot;,Helvetica,sans-serif;font-weight:bold;" transform="matrix(1 0 0 1 263 322)">Weight/Scale Variations</text>
  <text style="stroke:none;fill:black;font-family:-apple-system,&quot;SF Pro Display&quot;,&quot;SF Pro Text&quot;,Helvetica,sans-serif;text-anchor:middle;" transform="matrix(1 0 0 1 559.711 322)">Ultralight</text>
  <text style="stroke:none;fill:black;font-family:-apple-system,&quot;SF Pro Display&quot;,&quot;SF Pro Text&quot;,Helvetica,sans-serif;text-anchor:middle;" transform="matrix(1 0 0 1 856.422 322)">Thin</text>
  <text style="stroke:none;fill:black;font-family:-apple-system,&quot;SF Pro Display&quot;,&quot;SF Pro Text&quot;,Helvetica,sans-serif;text-anchor:middle;" transform="matrix(1 0 0 1 1153.13 322)">Light</text>
  <text style="stroke:none;fill:black;font-family:-apple-system,&quot;SF Pro Display&quot;,&quot;SF Pro Text&quot;,Helvetica,sans-serif;text-anchor:middle;" transform="matrix(1 0 0 1 1449.84 322)">Regular</text>
  <text style="stroke:none;fill:black;font-family:-apple-system,&quot;SF Pro Display&quot;,&quot;SF Pro Text&quot;,Helvetica,sans-serif;text-anchor:middle;" transform="matrix(1 0 0 1 1746.56 322)">Medium</text>
  <text style="stroke:none;fill:black;font-family:-apple-system,&quot;SF Pro Display&quot;,&quot;SF Pro Text&quot;,Helvetica,sans-serif;text-anchor:middle;" transform="matrix(1 0 0 1 2043.27 322)">Semibold</text>
  <text style="stroke:none;fill:black;font-family:-apple-system,&quot;SF Pro Display&quot;,&quot;SF Pro Text&quot;,Helvetica,sans-serif;text-anchor:middle;" transform="matrix(1 0 0 1 2339.98 322)">Bold</text>
  <text style="stroke:none;fill:black;font-family:-apple-system,&quot;SF Pro Display&quot;,&quot;SF Pro Text&quot;,Helvetica,sans-serif;text-anchor:middle;" transform="matrix(1 0 0 1 2636.69 322)">Heavy</text>
  <text style="stroke:none;fill:black;font-family:-apple-system,&quot;SF Pro Display&quot;,&quot;SF Pro Text&quot;,Helvetica,sans-serif;text-anchor:middle;" transform="matrix(1 0 0 1 2933.4 322)">Black</text>
  <line id="" style="fill:none;stroke:black;opacity:1;stroke-width:0.5;" x1="263" x2="3036" y1="1903" y2="1903"/>
  <g id="" transform="matrix(1 0 0 1 263 1933)">
   <path d="M 9.24805 0.830078 C 13.5547 0.830078 17.1387 -2.74414 17.1387 -7.05078 C 17.1387 -11.3574 13.5449 -14.9316 9.23828 -14.9316 C 4.94141 -14.9316 1.36719 -11.3574 1.36719 -7.05078 C 1.36719 -2.74414 4.95117 0.830078 9.24805 0.830078 Z M 9.24805 -0.654297 C 5.70312 -0.654297 2.87109 -3.49609 2.87109 -7.05078 C 2.87109 -10.6055 5.69336 -13.4473 9.23828 -13.4473 C 12.793 -13.4473 15.6348 -10.6055 15.6445 -7.05078 C 15.6543 -3.49609 12.8027 -0.654297 9.24805 -0.654297 Z M 9.22852 -3.42773 C 9.69727 -3.42773 9.9707 -3.74023 9.9707 -4.25781 L 9.9707 -6.31836 L 12.1973 -6.31836 C 12.6953 -6.31836 13.0371 -6.57227 13.0371 -7.04102 C 13.0371 -7.51953 12.7148 -7.7832 12.1973 -7.7832 L 9.9707 -7.7832 L 9.9707 -10.0098 C 9.9707 -10.5273 9.69727 -10.8496 9.22852 -10.8496 C 8.75977 -10.8496 8.50586 -10.5078 8.50586 -10.0098 L 8.50586 -7.7832 L 6.29883 -7.7832 C 5.78125 -7.7832 5.44922 -7.51953 5.44922 -7.04102 C 5.44922 -6.57227 5.80078 -6.31836 6.29883 -6.31836 L 8.50586 -6.31836 L 8.50586 -4.25781 C 8.50586 -3.75977 8.75977 -3.42773 9.22852 -3.42773 Z"/>
  </g>
  <g id="" transform="matrix(1 0 0 1 281.506 1933)">
   <path d="M 11.709 2.91016 C 17.1484 2.91016 21.6699 -1.60156 21.6699 -7.05078 C 21.6699 -12.4902 17.1387 -17.0117 11.6992 -17.0117 C 6.25 -17.0117 1.74805 -12.4902 1.74805 -7.05078 C 1.74805 -1.60156 6.25977 2.91016 11.709 2.91016 Z M 11.709 1.25 C 7.09961 1.25 3.41797 -2.44141 3.41797 -7.05078 C 3.41797 -11.6504 7.08984 -15.3516 11.6992 -15.3516 C 16.2988 -15.3516 20 -11.6504 20.0098 -7.05078 C 20.0195 -2.44141 16.3086 1.25 11.709 1.25 Z M 11.6797 -2.41211 C 12.207 -2.41211 12.5195 -2.77344 12.5195 -3.33984 L 12.5195 -6.23047 L 15.5762 -6.23047 C 16.123 -6.23047 16.5039 -6.51367 16.5039 -7.03125 C 16.5039 -7.55859 16.1426 -7.86133 15.5762 -7.86133 L 12.5195 -7.86133 L 12.5195 -10.9277 C 12.5195 -11.5039 12.207 -11.8555 11.6797 -11.8555 C 11.1621 -11.8555 10.8789 -11.4844 10.8789 -10.9277 L 10.8789 -7.86133 L 7.83203 -7.86133 C 7.25586 -7.86133 6.89453 -7.55859 6.89453 -7.03125 C 6.89453 -6.51367 7.28516 -6.23047 7.83203 -6.23047 L 10.8789 -6.23047 L 10.8789 -3.33984 C 10.8789 -2.79297 11.1621 -2.41211 11.6797 -2.41211 Z"/>
  </g>
  <g id="" transform="matrix(1 0 0 1 304.914 1933)">
   <path d="M 14.9707 5.67383 C 21.9336 5.67383 27.6855 -0.078125 27.6855 -7.04102 C 27.6855 -14.0039 21.9238 -19.7559 14.9609 -19.7559 C 7.99805 -19.7559 2.25586 -14.0039 2.25586 -7.04102 C 2.25586 -0.078125 8.00781 5.67383 14.9707 5.67383 Z M 14.9707 3.85742 C 8.92578 3.85742 4.08203 -1.00586 4.08203 -7.04102 C 4.08203 -13.0762 8.91602 -17.9395 14.9609 -17.9395 C 20.9961 -17.9395 25.8594 -13.0762 25.8691 -7.04102 C 25.8789 -1.00586 21.0059 3.85742 14.9707 3.85742 Z M 14.9414 -1.06445 C 15.5176 -1.06445 15.8594 -1.45508 15.8594 -2.06055 L 15.8594 -6.13281 L 20.0977 -6.13281 C 20.6934 -6.13281 21.1133 -6.46484 21.1133 -7.02148 C 21.1133 -7.59766 20.7227 -7.93945 20.0977 -7.93945 L 15.8594 -7.93945 L 15.8594 -12.1875 C 15.8594 -12.8027 15.5176 -13.1934 14.9414 -13.1934 C 14.3848 -13.1934 14.0625 -12.7832 14.0625 -12.1875 L 14.0625 -7.93945 L 9.82422 -7.93945 C 9.20898 -7.93945 8.80859 -7.59766 8.80859 -7.02148 C 8.80859 -6.46484 9.23828 -6.13281 9.82422 -6.13281 L 14.0625 -6.13281 L 14.0625 -2.06055 C 14.0625 -1.47461 14.3848 -1.06445 14.9414 -1.06445 Z"/>
  </g>
  <text style="stroke:none;fill:black;font-family:-apple-system,&quot;SF Pro Display&quot;,&quot;SF Pro Text&quot;,Helvetica,sans-serif;font-weight:bold;" transform="matrix(1 0 0 1 263 1953)">Design Variations</text>
  <text style="stroke:none;fill:black;font-family:-apple-system,&quot;SF Pro Display&quot;,&quot;SF Pro Text&quot;,Helvetica,sans-serif;" transform="matrix(1 0 0 1 263 1971)">Symbols are supported in up to nine weights and three scales.</text>
  <text style="stroke:none;fill:black;font-family:-apple-system,&quot;SF Pro Display&quot;,&quot;SF Pro Text&quot;,Helvetica,sans-serif;" transform="matrix(1 0 0 1 263 1989)">For optimal layout with text and other symbols, vertically align</text>
  <text style="stroke:none;fill:black;font-family:-apple-system,&quot;SF Pro Display&quot;,&quot;SF Pro Text&quot;,Helvetica,sans-serif;" transform="matrix(1 0 0 1 263 2007)">symbols with the adjacent text.</text>
  <rect height="14" id="" style="fill:#00AEEF;stroke:none;opacity:0.4;" width="3" x="776" y="1919"/>
  <g id="" transform="matrix(1 0 0 1 779 1933)">
   <path d="M 10.5273 0 L 12.373 0 L 7.17773 -14.0918 L 5.43945 -14.0918 L 0.244141 0 L 2.08984 0 L 3.50586 -4.0332 L 9.11133 -4.0332 Z M 6.2793 -11.9531 L 6.33789 -11.9531 L 8.59375 -5.52734 L 4.02344 -5.52734 Z"/>
  </g>
  <rect height="14" id="" style="fill:#00AEEF;stroke:none;opacity:0.4;" width="3" x="791.617" y="1919"/>
  <text style="stroke:none;fill:black;font-family:-apple-system,&quot;SF Pro Display&quot;,&quot;SF Pro Text&quot;,Helvetica,sans-serif;font-weight:bold;" transform="matrix(1 0 0 1 776 1953)">Side Bearings</text>
  <text style="stroke:none;fill:black;font-family:-apple-system,&quot;SF Pro Display&quot;,&quot;SF Pro Text&quot;,Helvetica,sans-serif;" transform="matrix(1 0 0 1 776 1971)">Horizontal padding on the left and right side of each symbol</text>
  <text style="stroke:none;fill:black;font-family:-apple-system,&quot;SF Pro Display&quot;,&quot;SF Pro Text&quot;,Helvetica,sans-serif;" transform="matrix(1 0 0 1 776 1989)">can be adjusted by modifying the width of the blue rectangles.</text>
  <text style="stroke:none;fill:black;font-family:-apple-system,&quot;SF Pro Display&quot;,&quot;SF Pro Text&quot;,Helvetica,sans-serif;" transform="matrix(1 0 0 1 776 2007)">Modifications are automatically applied proportionally to all</text>
  <text style="stroke:none;fill:black;font-family:-apple-system,&quot;SF Pro Display&quot;,&quot;SF Pro Text&quot;,Helvetica,sans-serif;" transform="matrix(1 0 0 1 776 2025)">scales and weights.</text>
  <g id="" transform="matrix(1 0 0 1 1289 1933)">
   <path d="M 2.96875 2.35352 L 3.80859 3.19336 C 4.84375 4.22852 6.12305 4.15039 7.19727 2.97852 L 16.1621 -6.82617 C 16.5527 -6.74805 16.9629 -6.8457 17.4902 -7.02148 C 18.1738 -7.25586 18.2715 -7.25586 18.3887 -7.13867 C 18.5352 -7.01172 18.4863 -6.89453 18.2422 -6.25 C 17.8809 -5.33203 17.8125 -4.79492 18.5547 -4.02344 L 19.4238 -3.13477 C 20.2734 -2.24609 21.3281 -2.26562 22.2168 -3.14453 L 25.0586 -5.97656 C 25.9473 -6.86523 25.957 -7.92969 25.0781 -8.7793 L 24.1797 -9.64844 C 23.4082 -10.4004 22.8711 -10.3516 21.9629 -9.98047 C 21.3184 -9.72656 21.2012 -9.6875 21.0645 -9.81445 C 20.9375 -9.93164 20.9473 -10.0391 21.1816 -10.7129 C 21.5332 -11.6895 21.5723 -12.2852 20.752 -13.0957 L 19.3359 -14.5117 C 15.1953 -18.6133 11.2305 -18.7402 7.65625 -15.4395 C 7.08008 -14.9023 6.99219 -14.1504 7.53906 -13.6133 L 7.79297 -13.3594 C 8.22266 -12.9297 8.86719 -12.8418 9.41406 -13.1152 C 11.0645 -13.9453 12.2559 -14.0234 13.457 -12.9785 L 13.0273 -11.416 C 12.8516 -10.8008 12.793 -10.3418 12.9199 -9.93164 L 3.18359 -1.04492 C 2.02148 0.0292969 1.93359 1.32812 2.96875 2.35352 Z M 8.96484 -14.4922 C 8.89648 -14.5703 8.86719 -14.6582 8.99414 -14.7559 C 11.709 -17.2852 15.0391 -16.8457 18.3496 -13.5254 L 19.6973 -12.168 C 20.0879 -11.7773 20.0977 -11.582 19.8828 -10.8691 C 19.6582 -10.127 19.502 -9.53125 20.1465 -8.88672 C 20.8105 -8.22266 21.2891 -8.41797 22.207 -8.63281 C 22.9004 -8.79883 23.0664 -8.79883 23.4473 -8.41797 L 24.0918 -7.77344 C 24.4043 -7.48047 24.4141 -7.32422 24.0723 -6.97266 L 21.2207 -4.13086 C 20.8887 -3.79883 20.7227 -3.79883 20.4297 -4.10156 L 19.7852 -4.75586 C 19.4141 -5.13672 19.4141 -5.30273 19.5801 -6.01562 C 19.7852 -6.88477 19.9805 -7.38281 19.3262 -8.04688 C 18.6719 -8.7207 18.0762 -8.57422 17.3438 -8.33008 C 16.5625 -8.06641 16.3281 -8.06641 15.8984 -8.49609 L 14.6094 -9.78516 C 14.1699 -10.2246 14.1309 -10.4395 14.2676 -10.9082 L 15.0293 -13.3984 C 13.3887 -15.2832 11.4941 -15.5566 9.20898 -14.4434 C 9.11133 -14.3945 9.04297 -14.4141 8.96484 -14.4922 Z M 3.96484 1.36719 C 3.52539 0.927734 3.54492 0.537109 4.14062 -0.00976562 L 13.7402 -8.81836 L 15 -7.55859 L 6.17188 2.02148 C 5.625 2.60742 5.24414 2.64648 4.79492 2.19727 Z"/>
  </g>
  <text style="stroke:none;fill:black;font-family:-apple-system,&quot;SF Pro Display&quot;,&quot;SF Pro Text&quot;,Helvetica,sans-serif;font-weight:bold;" transform="matrix(1 0 0 1 1289 1953)">Exporting</text>
  <text style="stroke:none;fill:black;font-family:-apple-system,&quot;SF Pro Display&quot;,&quot;SF Pro Text&quot;,Helvetica,sans-serif;" transform="matrix(1 0 0 1 1289 1971)">Symbols should be outlined when exporting to ensure the</text>
  <text style="stroke:none;fill:black;font-family:-apple-system,&quot;SF Pro Display&quot;,&quot;SF Pro Text&quot;,Helvetica,sans-serif;" transform="matrix(1 0 0 1 1289 1989)">design is preserved when submitting to Xcode.</text>
  <text id="template-version" style="stroke:none;fill:black;font-family:-apple-system,&quot;SF Pro Display&quot;,&quot;SF Pro Text&quot;,Helvetica,sans-serif;text-anchor:end;" transform="matrix(1 0 0 1 3036 1933)">Template v.0.1</text>
  <text style="stroke:none;fill:black;font-family:-apple-system,&quot;SF Pro Display&quot;,&quot;SF Pro Text&quot;,Helvetica,sans-serif;text-anchor:end;" transform="matrix(1 0 0 1 3036 1951)">Generated from person.crop.rectangle.fill</text>
  <text style="stroke:none;fill:black;font-family:-apple-system,&quot;SF Pro Display&quot;,&quot;SF Pro Text&quot;,Helvetica,sans-serif;text-anchor:end;" transform="matrix(1 0 0 1 3036 1969)">Typeset at 100 points</text>
  <text style="stroke:none;fill:black;font-family:-apple-system,&quot;SF Pro Display&quot;,&quot;SF Pro Text&quot;,Helvetica,sans-serif;" transform="matrix(1 0 0 1 263 726)">Small</text>
  <text style="stroke:none;fill:black;font-family:-apple-system,&quot;SF Pro Display&quot;,&quot;SF Pro Text&quot;,Helvetica,sans-serif;" transform="matrix(1 0 0 1 263 1156)">Medium</text>
  <text style="stroke:none;fill:black;font-family:-apple-system,&quot;SF Pro Display&quot;,&quot;SF Pro Text&quot;,Helvetica,sans-serif;" transform="matrix(1 0 0 1 263 1586)">Large</text>
 </g>
 <g id="Guides">
  <g id="H-reference" style="fill:#27AAE1;stroke:none;" transform="matrix(1 0 0 1 339 696)">
   <path d="M 54.9316 0 L 57.666 0 L 30.5664 -70.459 L 28.0762 -70.459 L 0.976562 0 L 3.66211 0 L 12.9395 -24.4629 L 45.7031 -24.4629 Z M 29.1992 -67.0898 L 29.4434 -67.0898 L 44.8242 -26.709 L 13.8184 -26.709 Z"/>
  </g>
  <line id="Baseline-S" style="fill:none;stroke:#27AAE1;opacity:1;stroke-width:0.577;" x1="263" x2="3036" y1="696" y2="696"/>
  <line id="Capline-S" style="fill:none;stroke:#27AAE1;opacity:1;stroke-width:0.577;" x1="263" x2="3036" y1="625.541" y2="625.541"/>
  <g id="H-reference" style="fill:#27AAE1;stroke:none;" transform="matrix(1 0 0 1 339 1126)">
   <path d="M 54.9316 0 L 57.666 0 L 30.5664 -70.459 L 28.0762 -70.459 L 0.976562 0 L 3.66211 0 L 12.9395 -24.4629 L 45.7031 -24.4629 Z M 29.1992 -67.0898 L 29.4434 -67.0898 L 44.8242 -26.709 L 13.8184 -26.709 Z"/>
  </g>
  <line id="Baseline-M" style="fill:none;stroke:#27AAE1;opacity:1;stroke-width:0.577;" x1="263" x2="3036" y1="1126" y2="1126"/>
  <line id="Capline-M" style="fill:none;stroke:#27AAE1;opacity:1;stroke-width:0.577;" x1="263" x2="3036" y1="1055.54" y2="1055.54"/>
  <g id="H-reference" style="fill:#27AAE1;stroke:none;" transform="matrix(1 0 0 1 339 1556)">
   <path d="M 54.9316 0 L 57.666 0 L 30.5664 -70.459 L 28.0762 -70.459 L 0.976562 0 L 3.66211 0 L 12.9395 -24.4629 L 45.7031 -24.4629 Z M 29.1992 -67.0898 L 29.4434 -67.0898 L 44.8242 -26.709 L 13.8184 -26.709 Z"/>
  </g>
  <line id="Baseline-L" style="fill:none;stroke:#27AAE1;opacity:1;stroke-width:0.577;" x1="263" x2="3036" y1="1556" y2="1556"/>
  <line id="Capline-L" style="fill:none;stroke:#27AAE1;opacity:1;stroke-width:0.577;" x1="263" x2="3036" y1="1485.54" y2="1485.54"/>
  <rect height="119.336" id="left-margin" style="fill:#00AEEF;stroke:none;opacity:0.4;" width="12.4512" x="1379.8" y="1030.79"/>
  <rect height="119.336" id="right-margin" style="fill:#00AEEF;stroke:none;opacity:0.4;" width="12.4512" x="1507.44" y="1030.79"/>
 </g>
 <g id="Symbols">
  <g id="Ultralight-S" transform="matrix(1 0 0 1 505.707 696)">
   <path d="M 19.7754 -1.5625 L 88.2812 -1.5625 C 94.8242 -1.5625 98.2422 -5.12695 98.2422 -11.5234 L 98.2422 -58.7891 C 98.2422 -65.2344 94.8242 -68.75 88.2812 -68.75 L 19.7754 -68.75 C 13.2324 -68.75 9.76562 -65.2832 9.76562 -58.7891 L 9.76562 -11.5234 C 9.76562 -5.0293 13.2324 -1.5625 19.7754 -1.5625 Z M 54.0039 -27.1973 C 47.3633 -27.1973 42.041 -32.9102 42.041 -40.3809 C 42.041 -47.4121 47.3633 -53.1738 54.0039 -53.1738 C 60.6445 -53.1738 66.0156 -47.4121 66.0156 -40.3809 C 66.0156 -32.9102 60.6445 -27.1973 54.0039 -27.1973 Z M 54.0527 -21.4844 C 67.2852 -21.4844 76.6602 -14.8926 81.0059 -3.75977 L 27.0508 -3.75977 C 31.3965 -14.8438 40.8691 -21.4844 54.0527 -21.4844 Z"/>
  </g>
  <g id="Thin-S" transform="matrix(1 0 0 1 802.174 696)">
   <path d="M 20.3125 -1.12305 L 88.1836 -1.12305 C 95.1172 -1.12305 98.7305 -4.78516 98.7305 -11.6211 L 98.7305 -58.6914 C 98.7305 -65.5762 95.1172 -69.2383 88.1836 -69.2383 L 20.3125 -69.2383 C 13.3789 -69.2383 9.76562 -65.625 9.76562 -58.6914 L 9.76562 -11.6211 C 9.76562 -4.6875 13.3789 -1.12305 20.3125 -1.12305 Z M 54.248 -27.1973 C 47.5586 -27.1973 42.1875 -32.959 42.1875 -40.4785 C 42.1875 -47.6074 47.5586 -53.418 54.248 -53.418 C 60.9863 -53.418 66.3574 -47.6074 66.3574 -40.4785 C 66.3574 -32.959 60.9863 -27.1973 54.248 -27.1973 Z M 54.2969 -21.3867 C 66.9922 -21.3867 76.3184 -15.332 80.8594 -4.44336 L 27.6367 -4.44336 C 32.1777 -15.2832 41.6016 -21.3867 54.2969 -21.3867 Z"/>
  </g>
  <g id="Light-S" transform="matrix(1 0 0 1 1098.42 696)">
   <path d="M 21.3867 -0.292969 L 88.0371 -0.292969 C 95.752 -0.292969 99.6582 -4.15039 99.6582 -11.7676 L 99.6582 -58.5938 C 99.6582 -66.2109 95.752 -70.1172 88.0371 -70.1172 L 21.3867 -70.1172 C 13.6719 -70.1172 9.76562 -66.2598 9.76562 -58.5938 L 9.76562 -11.7676 C 9.76562 -4.15039 13.6719 -0.292969 21.3867 -0.292969 Z M 54.7363 -27.2461 C 47.9004 -27.2461 42.4316 -33.0566 42.4316 -40.7227 C 42.4316 -47.9492 47.9004 -53.8086 54.7363 -53.8086 C 61.5234 -53.8086 66.9922 -47.9492 66.9922 -40.7227 C 66.9922 -33.0566 61.5234 -27.2461 54.7363 -27.2461 Z M 54.7363 -21.2891 C 66.4062 -21.2891 75.6836 -16.1133 80.6152 -5.71289 L 28.8086 -5.71289 C 33.7402 -16.1133 43.0664 -21.2891 54.7363 -21.2891 Z"/>
  </g>
  <g id="Regular-S" transform="matrix(1 0 0 1 1394.79 696)">
   <path d="M 22.2168 0.390625 L 87.8906 0.390625 C 96.2402 0.390625 100.342 -3.71094 100.342 -11.9141 L 100.342 -58.4961 C 100.342 -66.6992 96.2402 -70.8008 87.8906 -70.8008 L 22.2168 -70.8008 C 13.916 -70.8008 9.76562 -66.6992 9.76562 -58.4961 L 9.76562 -11.9141 C 9.76562 -3.71094 13.916 0.390625 22.2168 0.390625 Z M 55.0781 -27.2461 C 48.1445 -27.2461 42.627 -33.1055 42.627 -40.8691 C 42.627 -48.1934 48.1445 -54.1504 55.0781 -54.1504 C 61.9629 -54.1504 67.4805 -48.1934 67.4805 -40.8691 C 67.4805 -33.1055 61.9629 -27.2461 55.0781 -27.2461 Z M 55.0781 -21.1914 C 66.0156 -21.1914 75.1953 -16.748 80.4199 -6.68945 L 29.7363 -6.68945 C 34.9609 -16.748 44.1406 -21.1914 55.0781 -21.1914 Z"/>
  </g>
  <g id="Medium-S" transform="matrix(1 0 0 1 1691.26 696)">
   <path d="M 22.8516 0.976562 L 87.7441 0.976562 C 96.3379 0.976562 100.83 -3.4668 100.83 -11.9629 L 100.83 -58.3984 C 100.83 -66.9434 96.3379 -71.3867 87.7441 -71.3867 L 22.8516 -71.3867 C 14.2578 -71.3867 9.76562 -66.9434 9.76562 -58.3984 L 9.76562 -11.9629 C 9.76562 -3.4668 14.2578 0.976562 22.8516 0.976562 Z M 55.2734 -27.832 C 48.291 -27.832 42.8223 -33.7402 42.8223 -41.4551 C 42.8223 -48.7305 48.3398 -54.7852 55.2734 -54.7852 C 62.2559 -54.7852 67.7246 -48.7305 67.7246 -41.4551 C 67.7246 -33.7402 62.2559 -27.832 55.2734 -27.832 Z M 55.3711 -21.7285 C 65.918 -21.7285 75.1465 -17.1875 79.8828 -7.61719 L 30.6641 -7.61719 C 35.5469 -17.1875 44.7754 -21.7285 55.3711 -21.7285 Z"/>
  </g>
  <g id="Semibold-S" transform="matrix(1 0 0 1 1987.8 696)">
   <path d="M 23.3398 1.41602 L 87.5977 1.41602 C 96.4355 1.41602 101.172 -3.32031 101.172 -12.0605 L 101.172 -58.3496 C 101.172 -67.0898 96.4355 -71.8262 87.5977 -71.8262 L 23.3398 -71.8262 C 14.5508 -71.8262 9.76562 -67.0898 9.76562 -58.3496 L 9.76562 -12.0605 C 9.76562 -3.32031 14.5508 1.41602 23.3398 1.41602 Z M 55.4688 -28.2715 C 48.4375 -28.2715 42.9688 -34.2285 42.9688 -41.8945 C 42.9688 -49.1699 48.4863 -55.2734 55.4688 -55.2734 C 62.4512 -55.2734 67.9199 -49.1699 67.9199 -41.8945 C 67.9199 -34.2285 62.5 -28.2715 55.4688 -28.2715 Z M 55.5664 -22.1191 C 65.8203 -22.1191 75.1465 -17.5293 79.4922 -8.30078 L 31.4453 -8.30078 C 35.9863 -17.4805 45.3125 -22.1191 55.5664 -22.1191 Z"/>
  </g>
  <g id="Bold-S" transform="matrix(1 0 0 1 2284.29 696)">
   <path d="M 23.9746 2.00195 L 87.4023 2.00195 C 96.5332 2.00195 101.611 -3.07617 101.611 -12.1582 L 101.611 -58.252 C 101.611 -67.334 96.5332 -72.4121 87.4023 -72.4121 L 23.9746 -72.4121 C 14.8926 -72.4121 9.76562 -67.334 9.76562 -58.252 L 9.76562 -12.1582 C 9.76562 -3.07617 14.8926 2.00195 23.9746 2.00195 Z M 55.7129 -28.8574 C 48.584 -28.8574 43.1641 -34.8633 43.1641 -42.4805 C 43.1641 -49.707 48.6816 -55.9082 55.7129 -55.9082 C 62.6953 -55.9082 68.2129 -49.707 68.2129 -42.4805 C 68.2129 -34.8633 62.793 -28.8574 55.7129 -28.8574 Z M 55.8594 -22.6074 C 65.7227 -22.6074 75.1465 -17.9688 79.0039 -9.22852 L 32.373 -9.22852 C 36.5723 -17.9688 45.9473 -22.6074 55.8594 -22.6074 Z"/>
  </g>
  <g id="Heavy-S" transform="matrix(1 0 0 1 2580.66 696)">
   <path d="M 24.9023 2.83203 L 87.1094 2.83203 C 96.6309 2.83203 102.295 -2.7832 102.295 -12.3047 L 102.295 -58.1055 C 102.295 -67.627 96.6309 -73.2422 87.1094 -73.2422 L 24.9023 -73.2422 C 15.3809 -73.2422 9.76562 -67.627 9.76562 -58.1055 L 9.76562 -12.3047 C 9.76562 -2.7832 15.3809 2.83203 24.9023 2.83203 Z M 56.0059 -29.6875 C 48.7793 -29.6875 43.457 -35.791 43.457 -43.3594 C 43.457 -50.5371 48.9258 -56.7871 56.0059 -56.7871 C 63.0859 -56.7871 68.5547 -50.5371 68.5547 -43.3594 C 68.5547 -35.791 63.2324 -29.6875 56.0059 -29.6875 Z M 56.25 -23.3398 C 65.625 -23.3398 75.0977 -18.6035 78.2227 -10.5957 L 33.7891 -10.5957 C 37.4023 -18.6035 46.9238 -23.3398 56.25 -23.3398 Z"/>
  </g>
  <g id="Black-S" transform="matrix(1 0 0 1 2877.08 696)">
   <path d="M 25.7324 3.61328 L 86.9141 3.61328 C 96.7773 3.61328 102.881 -2.49023 102.881 -12.4023 L 102.881 -58.0078 C 102.881 -67.9199 96.7773 -74.0234 86.9141 -74.0234 L 25.7324 -74.0234 C 15.8203 -74.0234 9.76562 -67.9199 9.76562 -58.0078 L 9.76562 -12.4023 C 9.76562 -2.49023 15.8203 3.61328 25.7324 3.61328 Z M 56.2988 -30.4199 C 49.0234 -30.4199 43.75 -36.6211 43.75 -44.0918 C 43.75 -51.2207 49.1699 -57.6172 56.2988 -57.6172 C 63.4277 -57.6172 68.8965 -51.2207 68.8965 -44.0918 C 68.8965 -36.6211 63.623 -30.4199 56.2988 -30.4199 Z M 56.6406 -24.0234 C 65.4785 -24.0234 75.0977 -19.1406 77.5879 -11.8164 L 35.0586 -11.8164 C 38.1348 -19.1406 47.7539 -24.0234 56.6406 -24.0234 Z"/>
  </g>
  <g id="Ultralight-M" transform="matrix(1 0 0 1 490.863 1126)">
   <path d="M 25 7.56836 L 112.695 7.56836 C 120.898 7.56836 125.244 3.125 125.244 -4.98047 L 125.244 -65.2832 C 125.244 -73.3887 120.898 -77.832 112.695 -77.832 L 25 -77.832 C 16.7969 -77.832 12.4512 -73.4863 12.4512 -65.2832 L 12.4512 -4.98047 C 12.4512 3.22266 16.7969 7.56836 25 7.56836 Z M 68.8477 -25 C 60.3516 -25 53.5645 -32.2754 53.5645 -41.748 C 53.5645 -50.6836 60.3516 -58.0566 68.8477 -58.0566 C 77.2949 -58.0566 84.1309 -50.6836 84.1309 -41.748 C 84.1309 -32.2754 77.2949 -25 68.8477 -25 Z M 68.8965 -17.6758 C 85.9863 -17.6758 97.998 -9.13086 103.467 5.17578 L 34.2773 5.17578 C 39.7461 -9.0332 51.8555 -17.6758 68.8965 -17.6758 Z"/>
  </g>
  <g id="Thin-M" transform="matrix(1 0 0 1 787.306 1126)">
   <path d="M 25.6348 8.05664 L 112.598 8.05664 C 121.24 8.05664 125.781 3.4668 125.781 -5.0293 L 125.781 -65.2344 C 125.781 -73.7305 121.24 -78.3691 112.598 -78.3691 L 25.6348 -78.3691 C 16.9922 -78.3691 12.4512 -73.877 12.4512 -65.2344 L 12.4512 -5.0293 C 12.4512 3.56445 16.9922 8.05664 25.6348 8.05664 Z M 69.0918 -25 C 60.5957 -25 53.7598 -32.3242 53.7598 -41.8457 C 53.7598 -50.8789 60.5957 -58.3008 69.0918 -58.3008 C 77.6367 -58.3008 84.4727 -50.8789 84.4727 -41.8457 C 84.4727 -32.3242 77.6367 -25 69.0918 -25 Z M 69.1895 -17.627 C 85.6445 -17.627 97.6074 -9.57031 103.32 4.44336 L 34.9609 4.44336 C 40.6738 -9.52148 52.6855 -17.627 69.1895 -17.627 Z"/>
  </g>
  <g id="Light-M" transform="matrix(1 0 0 1 1083.48 1126)">
   <path d="M 26.8555 9.0332 L 112.402 9.0332 C 121.973 9.0332 126.807 4.15039 126.807 -5.22461 L 126.807 -65.0879 C 126.807 -74.5117 121.973 -79.3945 112.402 -79.3945 L 26.8555 -79.3945 C 17.334 -79.3945 12.4512 -74.5605 12.4512 -65.0879 L 12.4512 -5.22461 C 12.4512 4.19922 17.334 9.0332 26.8555 9.0332 Z M 69.6289 -25 C 60.9863 -25 54.0527 -32.4219 54.0527 -42.1387 C 54.0527 -51.3184 60.9863 -58.7891 69.6289 -58.7891 C 78.3203 -58.7891 85.2539 -51.3184 85.2539 -42.1387 C 85.2539 -32.4219 78.3203 -25 69.6289 -25 Z M 69.6777 -17.4805 C 85.0098 -17.4805 96.875 -10.498 103.027 2.97852 L 36.3281 2.97852 C 42.4316 -10.4492 54.3457 -17.4805 69.6777 -17.4805 Z"/>
  </g>
  <g id="Regular-M" transform="matrix(1 0 0 1 1379.8 1126)">
   <path d="M 27.7832 9.76562 L 112.305 9.76562 C 122.51 9.76562 127.637 4.6875 127.637 -5.37109 L 127.637 -64.9902 C 127.637 -75.0488 122.51 -80.127 112.305 -80.127 L 27.7832 -80.127 C 17.627 -80.127 12.4512 -75.0977 12.4512 -64.9902 L 12.4512 -5.37109 C 12.4512 4.73633 17.627 9.76562 27.7832 9.76562 Z M 70.0195 -25.0488 C 61.2793 -25.0488 54.2969 -32.4707 54.2969 -42.334 C 54.2969 -51.6113 61.2793 -59.1309 70.0195 -59.1309 C 78.8086 -59.1309 85.791 -51.6113 85.791 -42.334 C 85.791 -32.4707 78.8086 -25.0488 70.0195 -25.0488 Z M 70.0684 -17.3828 C 84.5215 -17.3828 96.3379 -11.1816 102.783 1.9043 L 37.3047 1.9043 C 43.7988 -11.1816 55.5664 -17.3828 70.0684 -17.3828 Z"/>
  </g>
  <g id="Medium-M" transform="matrix(1 0 0 1 1676.24 1126)">
   <path d="M 28.5645 10.4492 L 112.109 10.4492 C 122.656 10.4492 128.174 4.98047 128.174 -5.46875 L 128.174 -64.8926 C 128.174 -75.3418 122.656 -80.8105 112.109 -80.8105 L 28.5645 -80.8105 C 17.9688 -80.8105 12.4512 -75.3906 12.4512 -64.8926 L 12.4512 -5.46875 C 12.4512 4.98047 17.9688 10.4492 28.5645 10.4492 Z M 70.3125 -25.6348 C 61.4746 -25.6348 54.4922 -33.1055 54.4922 -42.9199 C 54.4922 -52.1973 61.4746 -59.8145 70.3125 -59.8145 C 79.1504 -59.8145 86.1328 -52.1973 86.1328 -42.9199 C 86.1328 -33.1055 79.1504 -25.6348 70.3125 -25.6348 Z M 70.3613 -17.8711 C 84.375 -17.8711 96.2402 -11.7188 102.246 0.830078 L 38.4277 0.830078 C 44.5312 -11.7188 56.3965 -17.8711 70.3613 -17.8711 Z"/>
  </g>
  <g id="Semibold-M" transform="matrix(1 0 0 1 1972.73 1126)">
   <path d="M 29.1016 10.9863 L 111.914 10.9863 C 122.803 10.9863 128.613 5.17578 128.613 -5.56641 L 128.613 -64.8438 C 128.613 -75.5859 122.803 -81.3477 111.914 -81.3477 L 29.1016 -81.3477 C 18.3105 -81.3477 12.4512 -75.5859 12.4512 -64.8438 L 12.4512 -5.56641 C 12.4512 5.22461 18.3105 10.9863 29.1016 10.9863 Z M 70.5078 -26.0742 C 61.6211 -26.0742 54.6875 -33.6426 54.6875 -43.4082 C 54.6875 -52.6367 61.6699 -60.3516 70.5078 -60.3516 C 79.3945 -60.3516 86.377 -52.6367 86.377 -43.4082 C 86.377 -33.6426 79.4434 -26.0742 70.5078 -26.0742 Z M 70.6543 -18.2617 C 84.2773 -18.2617 96.1914 -12.1094 101.807 0 L 39.2578 0 C 45.1172 -12.1094 57.0312 -18.2617 70.6543 -18.2617 Z"/>
  </g>
  <g id="Bold-M" transform="matrix(1 0 0 1 2269.18 1126)">
   <path d="M 29.8828 11.6699 L 111.719 11.6699 C 122.949 11.6699 129.15 5.46875 129.15 -5.66406 L 129.15 -64.6973 C 129.15 -75.8789 122.949 -82.0312 111.719 -82.0312 L 29.8828 -82.0312 C 18.6523 -82.0312 12.4512 -75.8789 12.4512 -64.6973 L 12.4512 -5.66406 C 12.4512 5.51758 18.6523 11.6699 29.8828 11.6699 Z M 70.8008 -26.6602 C 61.8164 -26.6602 54.9316 -34.2773 54.9316 -44.043 C 54.9316 -53.2715 61.9141 -61.0352 70.8008 -61.0352 C 79.7363 -61.0352 86.7188 -53.2715 86.7188 -44.043 C 86.7188 -34.2773 79.7852 -26.6602 70.8008 -26.6602 Z M 70.9961 -18.7988 C 84.1309 -18.7988 96.0938 -12.6465 101.221 -1.07422 L 40.3809 -1.07422 C 45.8496 -12.6465 57.8613 -18.7988 70.9961 -18.7988 Z"/>
  </g>
  <g id="Heavy-M" transform="matrix(1 0 0 1 2565.47 1126)">
   <path d="M 31.0059 12.6465 L 111.426 12.6465 C 123.193 12.6465 129.98 5.9082 129.98 -5.81055 L 129.98 -64.5508 C 129.98 -76.2695 123.193 -83.0566 111.426 -83.0566 L 31.0059 -83.0566 C 19.2383 -83.0566 12.4512 -76.3184 12.4512 -64.5508 L 12.4512 -5.81055 C 12.4512 5.9082 19.2383 12.6465 31.0059 12.6465 Z M 71.1914 -27.5391 C 62.1094 -27.5391 55.2734 -35.2539 55.2734 -44.9219 C 55.2734 -54.1016 62.2559 -62.0605 71.1914 -62.0605 C 80.1758 -62.0605 87.1582 -54.1016 87.1582 -44.9219 C 87.1582 -35.2539 80.3223 -27.5391 71.1914 -27.5391 Z M 71.4844 -19.5312 C 83.8867 -19.5312 95.9473 -13.4277 100.439 -2.68555 L 41.9922 -2.68555 C 46.9727 -13.4277 59.0332 -19.5312 71.4844 -19.5312 Z"/>
  </g>
  <g id="Black-M" transform="matrix(1 0 0 1 2861.82 1126)">
   <path d="M 31.9824 13.5742 L 111.182 13.5742 C 123.389 13.5742 130.713 6.29883 130.713 -5.95703 L 130.713 -64.4043 C 130.713 -76.6602 123.389 -83.9355 111.182 -83.9355 L 31.9824 -83.9355 C 19.7266 -83.9355 12.4512 -76.6602 12.4512 -64.4043 L 12.4512 -5.95703 C 12.4512 6.29883 19.7266 13.5742 31.9824 13.5742 Z M 71.582 -28.2715 C 62.3535 -28.2715 55.5664 -36.084 55.5664 -45.752 C 55.5664 -54.8828 62.5488 -62.9395 71.582 -62.9395 C 80.6152 -62.9395 87.5977 -54.8828 87.5977 -45.752 C 87.5977 -36.084 80.8105 -28.2715 71.582 -28.2715 Z M 71.875 -20.166 C 83.6914 -20.166 95.8496 -14.1113 99.707 -4.10156 L 43.457 -4.10156 C 47.9492 -14.1113 60.1074 -20.166 71.875 -20.166 Z"/>
  </g>
  <g id="Ultralight-L" transform="matrix(1 0 0 1 470.99 1556)">
   <path d="M 31.9824 19.7754 L 145.459 19.7754 C 155.811 19.7754 161.377 14.0625 161.377 3.85742 L 161.377 -74.0723 C 161.377 -84.2773 155.811 -89.9902 145.459 -89.9902 L 31.9824 -89.9902 C 21.6309 -89.9902 16.0645 -84.4727 16.0645 -74.0723 L 16.0645 3.85742 C 16.0645 14.2578 21.6309 19.7754 31.9824 19.7754 Z M 88.7207 -21.9727 C 77.832 -21.9727 69.0918 -31.3965 69.0918 -43.5547 C 69.0918 -55.127 77.832 -64.5508 88.7207 -64.5508 C 99.6094 -64.5508 108.35 -55.127 108.35 -43.5547 C 108.35 -31.3965 99.6094 -21.9727 88.7207 -21.9727 Z M 88.8184 -12.6465 C 111.084 -12.6465 126.611 -1.31836 133.594 17.2363 L 43.9453 17.2363 C 50.8789 -1.2207 66.5527 -12.6465 88.8184 -12.6465 Z"/>
  </g>
  <g id="Thin-L" transform="matrix(1 0 0 1 767.409 1556)">
   <path d="M 32.7148 20.3613 L 145.361 20.3613 C 156.25 20.3613 161.963 14.4531 161.963 3.75977 L 161.963 -73.9746 C 161.963 -84.7168 156.25 -90.5762 145.361 -90.5762 L 32.7148 -90.5762 C 21.8262 -90.5762 16.0645 -84.8633 16.0645 -73.9746 L 16.0645 3.75977 C 16.0645 14.6484 21.8262 20.3613 32.7148 20.3613 Z M 89.0137 -22.0215 C 78.0273 -22.0215 69.2383 -31.4453 69.2383 -43.7012 C 69.2383 -55.3223 78.0273 -64.8438 89.0137 -64.8438 C 100 -64.8438 108.789 -55.3223 108.789 -43.7012 C 108.789 -31.4453 100 -22.0215 89.0137 -22.0215 Z M 89.1113 -12.5488 C 110.693 -12.5488 126.221 -1.85547 133.398 16.4062 L 44.7266 16.4062 C 51.9043 -1.75781 67.4805 -12.5488 89.1113 -12.5488 Z"/>
  </g>
  <g id="Light-L" transform="matrix(1 0 0 1 1063.53 1556)">
   <path d="M 34.082 21.4355 L 145.166 21.4355 C 157.031 21.4355 163.135 15.2344 163.135 3.56445 L 163.135 -73.8281 C 163.135 -85.5469 157.031 -91.6992 145.166 -91.6992 L 34.082 -91.6992 C 22.2168 -91.6992 16.0645 -85.6445 16.0645 -73.8281 L 16.0645 3.56445 C 16.0645 15.3809 22.2168 21.4355 34.082 21.4355 Z M 89.5996 -22.0215 C 78.4668 -22.0215 69.5801 -31.543 69.5801 -43.9941 C 69.5801 -55.7617 78.4668 -65.3809 89.5996 -65.3809 C 100.732 -65.3809 109.619 -55.7617 109.619 -43.9941 C 109.619 -31.543 100.732 -22.0215 89.5996 -22.0215 Z M 89.6484 -12.4023 C 110.01 -12.4023 125.391 -2.88086 133.057 14.7949 L 46.1914 14.7949 C 53.9062 -2.83203 69.2871 -12.4023 89.6484 -12.4023 Z"/>
  </g>
  <g id="Regular-L" transform="matrix(1 0 0 1 1359.81 1556)">
   <path d="M 35.1074 22.2168 L 145.02 22.2168 C 157.666 22.2168 164.014 15.8691 164.014 3.41797 L 164.014 -73.7305 C 164.014 -86.1816 157.666 -92.5293 145.02 -92.5293 L 35.1074 -92.5293 C 22.5098 -92.5293 16.0645 -86.2305 16.0645 -73.7305 L 16.0645 3.41797 C 16.0645 15.918 22.5098 22.2168 35.1074 22.2168 Z M 90.0391 -22.0703 C 78.8086 -22.0703 69.873 -31.5918 69.873 -44.2383 C 69.873 -56.1035 78.8086 -65.7715 90.0391 -65.7715 C 101.27 -65.7715 110.254 -56.1035 110.254 -44.2383 C 110.254 -31.5918 101.27 -22.0703 90.0391 -22.0703 Z M 90.0879 -12.3047 C 109.473 -12.3047 124.756 -3.66211 132.812 13.5742 L 47.3145 13.5742 C 55.3711 -3.61328 70.7031 -12.3047 90.0879 -12.3047 Z"/>
  </g>
  <g id="Medium-L" transform="matrix(1 0 0 1 1656.17 1556)">
   <path d="M 35.9863 22.998 L 144.775 22.998 C 157.91 22.998 164.697 16.2109 164.697 3.27148 L 164.697 -73.6328 C 164.697 -86.5234 157.91 -93.3105 144.775 -93.3105 L 35.9863 -93.3105 C 22.9004 -93.3105 16.0645 -86.5723 16.0645 -73.6328 L 16.0645 3.27148 C 16.0645 16.2598 22.9004 22.998 35.9863 22.998 Z M 90.3809 -22.6074 C 79.0527 -22.6074 70.1172 -32.2266 70.1172 -44.8242 C 70.1172 -56.6895 79.1016 -66.5039 90.3809 -66.5039 C 101.66 -66.5039 110.645 -56.6895 110.645 -44.8242 C 110.645 -32.2266 101.709 -22.6074 90.3809 -22.6074 Z M 90.4785 -12.7441 C 109.229 -12.7441 124.561 -4.24805 132.275 12.3535 L 48.5352 12.3535 C 56.3477 -4.24805 71.6797 -12.7441 90.4785 -12.7441 Z"/>
  </g>
  <g id="Semibold-L" transform="matrix(1 0 0 1 1952.62 1556)">
   <path d="M 36.6699 23.584 L 144.629 23.584 C 158.105 23.584 165.186 16.5039 165.186 3.17383 L 165.186 -73.5352 C 165.186 -86.8164 158.105 -93.9453 144.629 -93.9453 L 36.6699 -93.9453 C 23.2422 -93.9453 16.0645 -86.8652 16.0645 -73.5352 L 16.0645 3.17383 C 16.0645 16.5527 23.2422 23.584 36.6699 23.584 Z M 90.625 -22.998 C 79.248 -22.998 70.3125 -32.666 70.3125 -45.3125 C 70.3125 -57.1777 79.2969 -67.041 90.625 -67.041 C 102.002 -67.041 110.986 -57.1777 110.986 -45.3125 C 110.986 -32.666 102.051 -22.998 90.625 -22.998 Z M 90.7715 -13.0859 C 109.033 -13.0859 124.414 -4.73633 131.836 11.4258 L 49.4629 11.4258 C 57.0801 -4.73633 72.4609 -13.0859 90.7715 -13.0859 Z"/>
  </g>
  <g id="Bold-L" transform="matrix(1 0 0 1 2249.01 1556)">
   <path d="M 37.5488 24.3652 L 144.434 24.3652 C 158.35 24.3652 165.869 16.8945 165.869 3.07617 L 165.869 -73.3887 C 165.869 -87.207 158.35 -94.7266 144.434 -94.7266 L 37.5488 -94.7266 C 23.6328 -94.7266 16.0645 -87.2559 16.0645 -73.3887 L 16.0645 3.07617 C 16.0645 16.8945 23.6328 24.3652 37.5488 24.3652 Z M 90.9668 -23.5352 C 79.4922 -23.5352 70.5566 -33.3008 70.5566 -45.8984 C 70.5566 -57.7637 79.541 -67.7246 90.9668 -67.7246 C 102.393 -67.7246 111.377 -57.7637 111.377 -45.8984 C 111.377 -33.3008 102.49 -23.5352 90.9668 -23.5352 Z M 91.1621 -13.5254 C 108.789 -13.5254 124.219 -5.37109 131.25 10.2051 L 50.6836 10.2051 C 58.0566 -5.37109 73.4863 -13.5254 91.1621 -13.5254 Z"/>
  </g>
  <g id="Heavy-L" transform="matrix(1 0 0 1 2545.23 1556)">
   <path d="M 38.8184 25.4883 L 144.092 25.4883 C 158.74 25.4883 166.846 17.4316 166.846 2.88086 L 166.846 -73.2422 C 166.846 -87.793 158.74 -95.8496 144.092 -95.8496 L 38.8184 -95.8496 C 24.2188 -95.8496 16.0645 -87.793 16.0645 -73.2422 L 16.0645 2.88086 C 16.0645 17.4316 24.2188 25.4883 38.8184 25.4883 Z M 91.4551 -24.3652 C 79.834 -24.3652 70.9473 -34.1797 70.9473 -46.7773 C 70.9473 -58.6914 79.9805 -68.75 91.4551 -68.75 C 102.979 -68.75 112.012 -58.6914 112.012 -46.7773 C 112.012 -34.1797 103.125 -24.3652 91.4551 -24.3652 Z M 91.6992 -14.1602 C 108.447 -14.1602 123.926 -6.29883 130.469 8.44727 L 52.4902 8.44727 C 59.4727 -6.29883 74.9023 -14.1602 91.6992 -14.1602 Z"/>
  </g>
  <g id="Black-L" transform="matrix(1 0 0 1 2841.51 1556)">
   <path d="M 39.9902 26.5137 L 143.799 26.5137 C 159.082 26.5137 167.725 17.8711 167.725 2.68555 L 167.725 -73.0957 C 167.725 -88.2812 159.082 -96.875 143.799 -96.875 L 39.9902 -96.875 C 24.7559 -96.875 16.0645 -88.2812 16.0645 -73.0957 L 16.0645 2.68555 C 16.0645 17.8711 24.7559 26.5137 39.9902 26.5137 Z M 91.8945 -25.0488 C 80.127 -25.0488 71.2891 -35.0098 71.2891 -47.5586 C 71.2891 -59.4727 80.3223 -69.6777 91.8945 -69.6777 C 103.516 -69.6777 112.549 -59.4727 112.549 -47.5586 C 112.549 -35.0098 103.662 -25.0488 91.8945 -25.0488 Z M 92.1875 -14.7461 C 108.154 -14.7461 123.682 -7.12891 129.736 6.88477 L 54.0527 6.88477 C 60.6934 -7.12891 76.2207 -14.7461 92.1875 -14.7461 Z"/>
  </g>
 </g>
</svg>
