<?xml version="1.0" encoding="UTF-8"?>
<!--Generator: Apple Native CoreSVG 123-->
<!DOCTYPE svg
PUBLIC "-//W3C//DTD SVG 1.1//EN"
       "http://www.w3.org/Graphics/SVG/1.1/DTD/svg11.dtd">
<svg version="1.1" xmlns="http://www.w3.org/2000/svg" xmlns:xlink="http://www.w3.org/1999/xlink" width="3300" height="2200">
 <!--glyph: "uni10026B.medium", point size: 100.000000, font version: "Version 15.0d4e20", template writer version: "2"-->
 <g id="Notes">
  <rect height="2200" id="artboard" style="fill:white;opacity:1" width="3300" x="0" y="0"/>
  <line id="" style="fill:none;stroke:black;opacity:1;stroke-width:0.5;" x1="263" x2="3036" y1="292" y2="292"/>
  <text style="stroke:none;fill:black;font-family:-apple-system,&quot;SF Pro Display&quot;,&quot;SF Pro Text&quot;,Helvetica,sans-serif;font-weight:bold;" transform="matrix(1 0 0 1 263 322)">Weight/Scale Variations</text>
  <text style="stroke:none;fill:black;font-family:-apple-system,&quot;SF Pro Display&quot;,&quot;SF Pro Text&quot;,Helvetica,sans-serif;text-anchor:middle;" transform="matrix(1 0 0 1 559.711 322)">Ultralight</text>
  <text style="stroke:none;fill:black;font-family:-apple-system,&quot;SF Pro Display&quot;,&quot;SF Pro Text&quot;,Helvetica,sans-serif;text-anchor:middle;" transform="matrix(1 0 0 1 856.422 322)">Thin</text>
  <text style="stroke:none;fill:black;font-family:-apple-system,&quot;SF Pro Display&quot;,&quot;SF Pro Text&quot;,Helvetica,sans-serif;text-anchor:middle;" transform="matrix(1 0 0 1 1153.13 322)">Light</text>
  <text style="stroke:none;fill:black;font-family:-apple-system,&quot;SF Pro Display&quot;,&quot;SF Pro Text&quot;,Helvetica,sans-serif;text-anchor:middle;" transform="matrix(1 0 0 1 1449.84 322)">Regular</text>
  <text style="stroke:none;fill:black;font-family:-apple-system,&quot;SF Pro Display&quot;,&quot;SF Pro Text&quot;,Helvetica,sans-serif;text-anchor:middle;" transform="matrix(1 0 0 1 1746.56 322)">Medium</text>
  <text style="stroke:none;fill:black;font-family:-apple-system,&quot;SF Pro Display&quot;,&quot;SF Pro Text&quot;,Helvetica,sans-serif;text-anchor:middle;" transform="matrix(1 0 0 1 2043.27 322)">Semibold</text>
  <text style="stroke:none;fill:black;font-family:-apple-system,&quot;SF Pro Display&quot;,&quot;SF Pro Text&quot;,Helvetica,sans-serif;text-anchor:middle;" transform="matrix(1 0 0 1 2339.98 322)">Bold</text>
  <text style="stroke:none;fill:black;font-family:-apple-system,&quot;SF Pro Display&quot;,&quot;SF Pro Text&quot;,Helvetica,sans-serif;text-anchor:middle;" transform="matrix(1 0 0 1 2636.69 322)">Heavy</text>
  <text style="stroke:none;fill:black;font-family:-apple-system,&quot;SF Pro Display&quot;,&quot;SF Pro Text&quot;,Helvetica,sans-serif;text-anchor:middle;" transform="matrix(1 0 0 1 2933.4 322)">Black</text>
  <line id="" style="fill:none;stroke:black;opacity:1;stroke-width:0.5;" x1="263" x2="3036" y1="1903" y2="1903"/>
  <g id="" transform="matrix(1 0 0 1 263 1933)">
   <path d="M 9.24805 0.830078 C 13.5547 0.830078 17.1387 -2.74414 17.1387 -7.05078 C 17.1387 -11.3574 13.5449 -14.9316 9.23828 -14.9316 C 4.94141 -14.9316 1.36719 -11.3574 1.36719 -7.05078 C 1.36719 -2.74414 4.95117 0.830078 9.24805 0.830078 Z M 9.24805 -0.654297 C 5.70312 -0.654297 2.87109 -3.49609 2.87109 -7.05078 C 2.87109 -10.6055 5.69336 -13.4473 9.23828 -13.4473 C 12.793 -13.4473 15.6348 -10.6055 15.6445 -7.05078 C 15.6543 -3.49609 12.8027 -0.654297 9.24805 -0.654297 Z M 9.22852 -3.42773 C 9.69727 -3.42773 9.9707 -3.74023 9.9707 -4.25781 L 9.9707 -6.31836 L 12.1973 -6.31836 C 12.6953 -6.31836 13.0371 -6.57227 13.0371 -7.04102 C 13.0371 -7.51953 12.7148 -7.7832 12.1973 -7.7832 L 9.9707 -7.7832 L 9.9707 -10.0098 C 9.9707 -10.5273 9.69727 -10.8496 9.22852 -10.8496 C 8.75977 -10.8496 8.50586 -10.5078 8.50586 -10.0098 L 8.50586 -7.7832 L 6.29883 -7.7832 C 5.78125 -7.7832 5.44922 -7.51953 5.44922 -7.04102 C 5.44922 -6.57227 5.80078 -6.31836 6.29883 -6.31836 L 8.50586 -6.31836 L 8.50586 -4.25781 C 8.50586 -3.75977 8.75977 -3.42773 9.22852 -3.42773 Z"/>
  </g>
  <g id="" transform="matrix(1 0 0 1 281.506 1933)">
   <path d="M 11.709 2.91016 C 17.1484 2.91016 21.6699 -1.60156 21.6699 -7.05078 C 21.6699 -12.4902 17.1387 -17.0117 11.6992 -17.0117 C 6.25 -17.0117 1.74805 -12.4902 1.74805 -7.05078 C 1.74805 -1.60156 6.25977 2.91016 11.709 2.91016 Z M 11.709 1.25 C 7.09961 1.25 3.41797 -2.44141 3.41797 -7.05078 C 3.41797 -11.6504 7.08984 -15.3516 11.6992 -15.3516 C 16.2988 -15.3516 20 -11.6504 20.0098 -7.05078 C 20.0195 -2.44141 16.3086 1.25 11.709 1.25 Z M 11.6797 -2.41211 C 12.207 -2.41211 12.5195 -2.77344 12.5195 -3.33984 L 12.5195 -6.23047 L 15.5762 -6.23047 C 16.123 -6.23047 16.5039 -6.51367 16.5039 -7.03125 C 16.5039 -7.55859 16.1426 -7.86133 15.5762 -7.86133 L 12.5195 -7.86133 L 12.5195 -10.9277 C 12.5195 -11.5039 12.207 -11.8555 11.6797 -11.8555 C 11.1621 -11.8555 10.8789 -11.4844 10.8789 -10.9277 L 10.8789 -7.86133 L 7.83203 -7.86133 C 7.25586 -7.86133 6.89453 -7.55859 6.89453 -7.03125 C 6.89453 -6.51367 7.28516 -6.23047 7.83203 -6.23047 L 10.8789 -6.23047 L 10.8789 -3.33984 C 10.8789 -2.79297 11.1621 -2.41211 11.6797 -2.41211 Z"/>
  </g>
  <g id="" transform="matrix(1 0 0 1 304.914 1933)">
   <path d="M 14.9707 5.67383 C 21.9336 5.67383 27.6855 -0.078125 27.6855 -7.04102 C 27.6855 -14.0039 21.9238 -19.7559 14.9609 -19.7559 C 7.99805 -19.7559 2.25586 -14.0039 2.25586 -7.04102 C 2.25586 -0.078125 8.00781 5.67383 14.9707 5.67383 Z M 14.9707 3.85742 C 8.92578 3.85742 4.08203 -1.00586 4.08203 -7.04102 C 4.08203 -13.0762 8.91602 -17.9395 14.9609 -17.9395 C 20.9961 -17.9395 25.8594 -13.0762 25.8691 -7.04102 C 25.8789 -1.00586 21.0059 3.85742 14.9707 3.85742 Z M 14.9414 -1.06445 C 15.5176 -1.06445 15.8594 -1.45508 15.8594 -2.06055 L 15.8594 -6.13281 L 20.0977 -6.13281 C 20.6934 -6.13281 21.1133 -6.46484 21.1133 -7.02148 C 21.1133 -7.59766 20.7227 -7.93945 20.0977 -7.93945 L 15.8594 -7.93945 L 15.8594 -12.1875 C 15.8594 -12.8027 15.5176 -13.1934 14.9414 -13.1934 C 14.3848 -13.1934 14.0625 -12.7832 14.0625 -12.1875 L 14.0625 -7.93945 L 9.82422 -7.93945 C 9.20898 -7.93945 8.80859 -7.59766 8.80859 -7.02148 C 8.80859 -6.46484 9.23828 -6.13281 9.82422 -6.13281 L 14.0625 -6.13281 L 14.0625 -2.06055 C 14.0625 -1.47461 14.3848 -1.06445 14.9414 -1.06445 Z"/>
  </g>
  <text style="stroke:none;fill:black;font-family:-apple-system,&quot;SF Pro Display&quot;,&quot;SF Pro Text&quot;,Helvetica,sans-serif;font-weight:bold;" transform="matrix(1 0 0 1 263 1953)">Design Variations</text>
  <text style="stroke:none;fill:black;font-family:-apple-system,&quot;SF Pro Display&quot;,&quot;SF Pro Text&quot;,Helvetica,sans-serif;" transform="matrix(1 0 0 1 263 1971)">Symbols are supported in up to nine weights and three scales.</text>
  <text style="stroke:none;fill:black;font-family:-apple-system,&quot;SF Pro Display&quot;,&quot;SF Pro Text&quot;,Helvetica,sans-serif;" transform="matrix(1 0 0 1 263 1989)">For optimal layout with text and other symbols, vertically align</text>
  <text style="stroke:none;fill:black;font-family:-apple-system,&quot;SF Pro Display&quot;,&quot;SF Pro Text&quot;,Helvetica,sans-serif;" transform="matrix(1 0 0 1 263 2007)">symbols with the adjacent text.</text>
  <rect height="14" id="" style="fill:#00AEEF;stroke:none;opacity:0.4;" width="3" x="776" y="1919"/>
  <g id="" transform="matrix(1 0 0 1 779 1933)">
   <path d="M 10.5273 0 L 12.373 0 L 7.17773 -14.0918 L 5.43945 -14.0918 L 0.244141 0 L 2.08984 0 L 3.50586 -4.0332 L 9.11133 -4.0332 Z M 6.2793 -11.9531 L 6.33789 -11.9531 L 8.59375 -5.52734 L 4.02344 -5.52734 Z"/>
  </g>
  <rect height="14" id="" style="fill:#00AEEF;stroke:none;opacity:0.4;" width="3" x="791.617" y="1919"/>
  <text style="stroke:none;fill:black;font-family:-apple-system,&quot;SF Pro Display&quot;,&quot;SF Pro Text&quot;,Helvetica,sans-serif;font-weight:bold;" transform="matrix(1 0 0 1 776 1953)">Side Bearings</text>
  <text style="stroke:none;fill:black;font-family:-apple-system,&quot;SF Pro Display&quot;,&quot;SF Pro Text&quot;,Helvetica,sans-serif;" transform="matrix(1 0 0 1 776 1971)">Horizontal padding on the left and right side of each symbol</text>
  <text style="stroke:none;fill:black;font-family:-apple-system,&quot;SF Pro Display&quot;,&quot;SF Pro Text&quot;,Helvetica,sans-serif;" transform="matrix(1 0 0 1 776 1989)">can be adjusted by modifying the width of the blue rectangles.</text>
  <text style="stroke:none;fill:black;font-family:-apple-system,&quot;SF Pro Display&quot;,&quot;SF Pro Text&quot;,Helvetica,sans-serif;" transform="matrix(1 0 0 1 776 2007)">Modifications are automatically applied proportionally to all</text>
  <text style="stroke:none;fill:black;font-family:-apple-system,&quot;SF Pro Display&quot;,&quot;SF Pro Text&quot;,Helvetica,sans-serif;" transform="matrix(1 0 0 1 776 2025)">scales and weights.</text>
  <g id="" transform="matrix(1 0 0 1 1289 1933)">
   <path d="M 2.96875 2.35352 L 3.80859 3.19336 C 4.84375 4.22852 6.12305 4.15039 7.19727 2.97852 L 16.1621 -6.82617 C 16.5527 -6.74805 16.9629 -6.8457 17.4902 -7.02148 C 18.1738 -7.25586 18.2715 -7.25586 18.3887 -7.13867 C 18.5352 -7.01172 18.4863 -6.89453 18.2422 -6.25 C 17.8809 -5.33203 17.8125 -4.79492 18.5547 -4.02344 L 19.4238 -3.13477 C 20.2734 -2.24609 21.3281 -2.26562 22.2168 -3.14453 L 25.0586 -5.97656 C 25.9473 -6.86523 25.957 -7.92969 25.0781 -8.7793 L 24.1797 -9.64844 C 23.4082 -10.4004 22.8711 -10.3516 21.9629 -9.98047 C 21.3184 -9.72656 21.2012 -9.6875 21.0645 -9.81445 C 20.9375 -9.93164 20.9473 -10.0391 21.1816 -10.7129 C 21.5332 -11.6895 21.5723 -12.2852 20.752 -13.0957 L 19.3359 -14.5117 C 15.1953 -18.6133 11.2305 -18.7402 7.65625 -15.4395 C 7.08008 -14.9023 6.99219 -14.1504 7.53906 -13.6133 L 7.79297 -13.3594 C 8.22266 -12.9297 8.86719 -12.8418 9.41406 -13.1152 C 11.0645 -13.9453 12.2559 -14.0234 13.457 -12.9785 L 13.0273 -11.416 C 12.8516 -10.8008 12.793 -10.3418 12.9199 -9.93164 L 3.18359 -1.04492 C 2.02148 0.0292969 1.93359 1.32812 2.96875 2.35352 Z M 8.96484 -14.4922 C 8.89648 -14.5703 8.86719 -14.6582 8.99414 -14.7559 C 11.709 -17.2852 15.0391 -16.8457 18.3496 -13.5254 L 19.6973 -12.168 C 20.0879 -11.7773 20.0977 -11.582 19.8828 -10.8691 C 19.6582 -10.127 19.502 -9.53125 20.1465 -8.88672 C 20.8105 -8.22266 21.2891 -8.41797 22.207 -8.63281 C 22.9004 -8.79883 23.0664 -8.79883 23.4473 -8.41797 L 24.0918 -7.77344 C 24.4043 -7.48047 24.4141 -7.32422 24.0723 -6.97266 L 21.2207 -4.13086 C 20.8887 -3.79883 20.7227 -3.79883 20.4297 -4.10156 L 19.7852 -4.75586 C 19.4141 -5.13672 19.4141 -5.30273 19.5801 -6.01562 C 19.7852 -6.88477 19.9805 -7.38281 19.3262 -8.04688 C 18.6719 -8.7207 18.0762 -8.57422 17.3438 -8.33008 C 16.5625 -8.06641 16.3281 -8.06641 15.8984 -8.49609 L 14.6094 -9.78516 C 14.1699 -10.2246 14.1309 -10.4395 14.2676 -10.9082 L 15.0293 -13.3984 C 13.3887 -15.2832 11.4941 -15.5566 9.20898 -14.4434 C 9.11133 -14.3945 9.04297 -14.4141 8.96484 -14.4922 Z M 3.96484 1.36719 C 3.52539 0.927734 3.54492 0.537109 4.14062 -0.00976562 L 13.7402 -8.81836 L 15 -7.55859 L 6.17188 2.02148 C 5.625 2.60742 5.24414 2.64648 4.79492 2.19727 Z"/>
  </g>
  <text style="stroke:none;fill:black;font-family:-apple-system,&quot;SF Pro Display&quot;,&quot;SF Pro Text&quot;,Helvetica,sans-serif;font-weight:bold;" transform="matrix(1 0 0 1 1289 1953)">Exporting</text>
  <text style="stroke:none;fill:black;font-family:-apple-system,&quot;SF Pro Display&quot;,&quot;SF Pro Text&quot;,Helvetica,sans-serif;" transform="matrix(1 0 0 1 1289 1971)">Symbols should be outlined when exporting to ensure the</text>
  <text style="stroke:none;fill:black;font-family:-apple-system,&quot;SF Pro Display&quot;,&quot;SF Pro Text&quot;,Helvetica,sans-serif;" transform="matrix(1 0 0 1 1289 1989)">design is preserved when submitting to Xcode.</text>
  <text id="template-version" style="stroke:none;fill:black;font-family:-apple-system,&quot;SF Pro Display&quot;,&quot;SF Pro Text&quot;,Helvetica,sans-serif;text-anchor:end;" transform="matrix(1 0 0 1 3036 1933)">Template v.0.1</text>
  <text style="stroke:none;fill:black;font-family:-apple-system,&quot;SF Pro Display&quot;,&quot;SF Pro Text&quot;,Helvetica,sans-serif;text-anchor:end;" transform="matrix(1 0 0 1 3036 1951)">Generated from person.and.person</text>
  <text style="stroke:none;fill:black;font-family:-apple-system,&quot;SF Pro Display&quot;,&quot;SF Pro Text&quot;,Helvetica,sans-serif;text-anchor:end;" transform="matrix(1 0 0 1 3036 1969)">Typeset at 100 points</text>
  <text style="stroke:none;fill:black;font-family:-apple-system,&quot;SF Pro Display&quot;,&quot;SF Pro Text&quot;,Helvetica,sans-serif;" transform="matrix(1 0 0 1 263 726)">Small</text>
  <text style="stroke:none;fill:black;font-family:-apple-system,&quot;SF Pro Display&quot;,&quot;SF Pro Text&quot;,Helvetica,sans-serif;" transform="matrix(1 0 0 1 263 1156)">Medium</text>
  <text style="stroke:none;fill:black;font-family:-apple-system,&quot;SF Pro Display&quot;,&quot;SF Pro Text&quot;,Helvetica,sans-serif;" transform="matrix(1 0 0 1 263 1586)">Large</text>
 </g>
 <g id="Guides">
  <g id="H-reference" style="fill:#27AAE1;stroke:none;" transform="matrix(1 0 0 1 339 696)">
   <path d="M 54.9316 0 L 57.666 0 L 30.5664 -70.459 L 28.0762 -70.459 L 0.976562 0 L 3.66211 0 L 12.9395 -24.4629 L 45.7031 -24.4629 Z M 29.1992 -67.0898 L 29.4434 -67.0898 L 44.8242 -26.709 L 13.8184 -26.709 Z"/>
  </g>
  <line id="Baseline-S" style="fill:none;stroke:#27AAE1;opacity:1;stroke-width:0.577;" x1="263" x2="3036" y1="696" y2="696"/>
  <line id="Capline-S" style="fill:none;stroke:#27AAE1;opacity:1;stroke-width:0.577;" x1="263" x2="3036" y1="625.541" y2="625.541"/>
  <g id="H-reference" style="fill:#27AAE1;stroke:none;" transform="matrix(1 0 0 1 339 1126)">
   <path d="M 54.9316 0 L 57.666 0 L 30.5664 -70.459 L 28.0762 -70.459 L 0.976562 0 L 3.66211 0 L 12.9395 -24.4629 L 45.7031 -24.4629 Z M 29.1992 -67.0898 L 29.4434 -67.0898 L 44.8242 -26.709 L 13.8184 -26.709 Z"/>
  </g>
  <line id="Baseline-M" style="fill:none;stroke:#27AAE1;opacity:1;stroke-width:0.577;" x1="263" x2="3036" y1="1126" y2="1126"/>
  <line id="Capline-M" style="fill:none;stroke:#27AAE1;opacity:1;stroke-width:0.577;" x1="263" x2="3036" y1="1055.54" y2="1055.54"/>
  <g id="H-reference" style="fill:#27AAE1;stroke:none;" transform="matrix(1 0 0 1 339 1556)">
   <path d="M 54.9316 0 L 57.666 0 L 30.5664 -70.459 L 28.0762 -70.459 L 0.976562 0 L 3.66211 0 L 12.9395 -24.4629 L 45.7031 -24.4629 Z M 29.1992 -67.0898 L 29.4434 -67.0898 L 44.8242 -26.709 L 13.8184 -26.709 Z"/>
  </g>
  <line id="Baseline-L" style="fill:none;stroke:#27AAE1;opacity:1;stroke-width:0.577;" x1="263" x2="3036" y1="1556" y2="1556"/>
  <line id="Capline-L" style="fill:none;stroke:#27AAE1;opacity:1;stroke-width:0.577;" x1="263" x2="3036" y1="1485.54" y2="1485.54"/>
  <rect height="119.336" id="left-margin" style="fill:#00AEEF;stroke:none;opacity:0.4;" width="12.4512" x="1369.38" y="1030.79"/>
  <rect height="119.336" id="right-margin" style="fill:#00AEEF;stroke:none;opacity:0.4;" width="12.5" x="1517.81" y="1030.79"/>
 </g>
 <g id="Symbols">
  <g id="Ultralight-S" transform="matrix(1 0 0 1 497.846 696)">
   <path d="M 81.8848 -34.9609 C 90.5273 -34.9609 97.168 -42.334 97.168 -51.9043 C 97.168 -61.0352 90.2832 -68.5547 81.8848 -68.5547 C 73.4375 -68.5547 66.5527 -60.9863 66.6504 -51.9043 C 66.748 -42.334 73.291 -34.9609 81.8848 -34.9609 Z M 81.8848 -37.1582 C 74.5605 -37.1582 68.8477 -43.5547 68.8477 -51.9043 C 68.75 -59.8145 74.6582 -66.3574 81.8848 -66.3574 C 89.0625 -66.3574 94.9707 -59.8633 94.9707 -51.9043 C 94.9707 -43.5547 89.2578 -37.1582 81.8848 -37.1582 Z M 37.8418 -34.1309 C 45.4102 -34.1309 51.2207 -40.5273 51.2207 -48.9258 C 51.2207 -56.8848 45.166 -63.4277 37.8418 -63.4277 C 30.5176 -63.4277 24.4629 -56.8359 24.5605 -48.9258 C 24.6582 -40.5273 30.3223 -34.1309 37.8418 -34.1309 Z M 37.8418 -36.3281 C 31.543 -36.3281 26.709 -41.748 26.709 -48.9258 C 26.709 -55.6641 31.6895 -61.2793 37.8418 -61.2793 C 43.9941 -61.2793 49.0234 -55.7129 49.0234 -48.9258 C 49.0234 -41.748 44.1406 -36.3281 37.8418 -36.3281 Z M 15.2832 -0.488281 L 49.4629 -0.488281 C 48.6816 -0.878906 47.8516 -1.66016 47.4609 -2.63672 L 15.2832 -2.63672 C 12.8418 -2.63672 11.9629 -3.4668 11.9629 -5.61523 C 11.9629 -17.1875 23.6816 -26.9043 37.7441 -26.9043 C 44.7754 -26.9043 51.0254 -24.8535 55.7129 -20.8008 C 56.25 -21.2891 56.7871 -21.7773 57.3242 -22.2656 C 52.0508 -26.709 45.2637 -29.0527 37.7441 -29.0527 C 20.6543 -29.0527 9.76562 -16.6992 9.76562 -5.61523 C 9.76562 -2.14844 11.5723 -0.488281 15.2832 -0.488281 Z M 55.957 -0.488281 L 107.666 -0.488281 C 111.963 -0.488281 113.965 -2.00195 113.965 -5.32227 C 113.965 -15.1855 101.611 -28.9062 81.7871 -28.9062 C 62.0117 -28.9062 49.6582 -15.1855 49.6582 -5.32227 C 49.6582 -2.00195 51.6602 -0.488281 55.957 -0.488281 Z M 55.8594 -2.68555 C 52.7832 -2.68555 51.8555 -3.36914 51.8555 -5.37109 C 51.8555 -14.3066 63.0371 -26.709 81.7871 -26.709 C 100.586 -26.709 111.768 -14.3066 111.768 -5.37109 C 111.768 -3.36914 110.84 -2.68555 107.764 -2.68555 Z"/>
  </g>
  <g id="Thin-S" transform="matrix(1 0 0 1 794.24 696)">
   <path d="M 82.1777 -35.0098 C 90.918 -35.0098 97.8027 -42.5781 97.8027 -52.2461 C 97.8027 -61.5723 90.7715 -69.0918 82.1777 -69.0918 C 73.584 -69.0918 66.5039 -61.4746 66.5527 -52.2461 C 66.6504 -42.5781 73.4375 -35.0098 82.1777 -35.0098 Z M 82.1777 -38.1836 C 75.293 -38.1836 69.873 -44.2871 69.873 -52.2461 C 69.7754 -59.7656 75.3906 -65.918 82.1777 -65.918 C 88.9648 -65.918 94.4824 -59.8145 94.4824 -52.2461 C 94.4824 -44.2871 89.0625 -38.1836 82.1777 -38.1836 Z M 38.1348 -34.1797 C 45.752 -34.1797 51.7578 -40.7715 51.7578 -49.2676 C 51.7578 -57.3242 45.6055 -63.9648 38.1348 -63.9648 C 30.6152 -63.9648 24.4629 -57.2754 24.5117 -49.2188 C 24.6094 -40.7227 30.5176 -34.1797 38.1348 -34.1797 Z M 38.1348 -37.3047 C 32.2754 -37.3047 27.6855 -42.4805 27.6855 -49.2188 C 27.6855 -55.5664 32.373 -60.8398 38.1348 -60.8398 C 43.8965 -60.8398 48.584 -55.6152 48.584 -49.2676 C 48.584 -42.4805 43.9941 -37.3047 38.1348 -37.3047 Z M 15.918 -0.146484 L 48.9258 -0.146484 C 47.8516 -0.683594 46.875 -1.9043 46.6797 -3.22266 L 15.625 -3.22266 C 13.6719 -3.22266 12.9395 -3.95508 12.9395 -5.71289 C 12.9395 -16.6504 24.4141 -26.1719 38.0371 -26.1719 C 44.4336 -26.1719 50.1465 -24.3652 54.5898 -20.8496 C 55.2734 -21.6309 56.0547 -22.3145 56.9336 -22.998 C 51.7578 -27.1484 45.2148 -29.2969 38.0371 -29.2969 C 21.2402 -29.2969 9.76562 -17.1387 9.76562 -5.56641 C 9.76562 -1.9043 11.8164 -0.146484 15.918 -0.146484 Z M 56.7383 -0.146484 L 107.471 -0.146484 C 112.305 -0.146484 114.6 -1.75781 114.6 -5.32227 C 114.6 -15.2344 102.148 -29.1504 82.1289 -29.1504 C 62.0605 -29.1504 49.6094 -15.2344 49.6094 -5.32227 C 49.6094 -1.75781 51.9043 -0.146484 56.7383 -0.146484 Z M 56.1523 -3.32031 C 53.7109 -3.32031 52.8809 -3.90625 52.8809 -5.56641 C 52.8809 -13.7695 63.6719 -25.9766 82.1289 -25.9766 C 100.537 -25.9766 111.328 -13.7695 111.328 -5.56641 C 111.328 -3.90625 110.498 -3.32031 108.057 -3.32031 Z"/>
  </g>
  <g id="Light-S" transform="matrix(1 0 0 1 1090.32 696)">
   <path d="M 82.7148 -35.1074 C 91.748 -35.1074 99.0234 -43.0664 99.0234 -52.8809 C 99.0234 -62.5 91.748 -70.166 82.7148 -70.166 C 73.7305 -70.166 66.4062 -62.4023 66.4062 -52.7832 C 66.4551 -43.0176 73.7305 -35.1074 82.7148 -35.1074 Z M 82.7148 -40.1855 C 76.8066 -40.1855 71.875 -45.752 71.875 -52.7832 C 71.8262 -59.668 76.7578 -65.0879 82.7148 -65.0879 C 88.7207 -65.0879 93.6035 -59.7656 93.6035 -52.8809 C 93.6035 -45.8008 88.6719 -40.1855 82.7148 -40.1855 Z M 38.623 -34.2285 C 46.4844 -34.2285 52.832 -41.1621 52.832 -49.8047 C 52.832 -58.2031 46.4844 -64.9902 38.623 -64.9902 C 30.8594 -64.9902 24.4629 -58.1055 24.5117 -49.7559 C 24.5117 -41.1621 30.8594 -34.2285 38.623 -34.2285 Z M 38.623 -39.2578 C 33.6914 -39.2578 29.541 -43.9453 29.541 -49.7559 C 29.541 -55.3711 33.6426 -59.9609 38.623 -59.9609 C 43.7012 -59.9609 47.8027 -55.4688 47.8027 -49.8047 C 47.8027 -43.9453 43.6523 -39.2578 38.623 -39.2578 Z M 17.1387 0.585938 L 47.9004 0.585938 C 46.2891 -0.341797 45.0195 -2.34375 45.1172 -4.39453 L 16.3574 -4.39453 C 15.2832 -4.39453 14.7949 -4.83398 14.7949 -5.85938 C 14.7949 -15.7227 25.8301 -24.707 38.623 -24.707 C 43.7988 -24.707 48.4863 -23.3887 52.3926 -20.8984 C 53.4668 -22.2168 54.7363 -23.3887 56.2012 -24.4629 C 51.2207 -27.9297 45.1172 -29.7363 38.623 -29.7363 C 22.3633 -29.7363 9.76562 -17.9688 9.76562 -5.56641 C 9.76562 -1.41602 12.207 0.585938 17.1387 0.585938 Z M 58.3008 0.585938 L 107.031 0.585938 C 113.037 0.585938 115.869 -1.26953 115.869 -5.27344 C 115.869 -15.2832 103.271 -29.6387 82.666 -29.6387 C 62.1094 -29.6387 49.5117 -15.2832 49.5117 -5.27344 C 49.5117 -1.26953 52.3438 0.585938 58.3008 0.585938 Z M 56.7871 -4.54102 C 55.4199 -4.54102 54.9316 -4.88281 54.9316 -5.9082 C 54.9316 -12.6953 64.8926 -24.5117 82.666 -24.5117 C 100.439 -24.5117 110.449 -12.6953 110.449 -5.9082 C 110.449 -4.88281 109.961 -4.54102 108.545 -4.54102 Z"/>
  </g>
  <g id="Regular-S" transform="matrix(1 0 0 1 1386.54 696)">
   <path d="M 83.1543 -35.1562 C 92.334 -35.1562 99.9512 -43.4082 99.9512 -53.3203 C 99.9512 -63.2324 92.4316 -70.9961 83.1543 -70.9961 C 73.877 -70.9961 66.3086 -63.0859 66.3086 -53.2227 C 66.3086 -43.3594 73.9258 -35.1562 83.1543 -35.1562 Z M 39.0625 -34.2773 C 47.0215 -34.2773 53.6133 -41.5039 53.6133 -50.2441 C 53.6133 -58.8867 47.168 -65.7715 39.0625 -65.7715 C 31.0547 -65.7715 24.4629 -58.7402 24.4629 -50.1953 C 24.4629 -41.4551 31.1035 -34.2773 39.0625 -34.2773 Z M 83.1543 -41.748 C 77.9297 -41.748 73.3887 -46.8262 73.3887 -53.2227 C 73.3398 -59.6191 77.7832 -64.4043 83.1543 -64.4043 C 88.5254 -64.4043 92.8711 -59.7168 92.8711 -53.3203 C 92.8711 -46.9238 88.3789 -41.748 83.1543 -41.748 Z M 39.0625 -40.7715 C 34.7168 -40.7715 30.957 -45.0195 30.957 -50.1953 C 30.957 -55.2246 34.6191 -59.2773 39.0625 -59.2773 C 43.5547 -59.2773 47.168 -55.3223 47.168 -50.2441 C 47.168 -45.0195 43.4082 -40.7715 39.0625 -40.7715 Z M 18.0664 1.12305 L 47.168 1.12305 C 45.0684 -0.0488281 43.5547 -2.68555 43.9453 -5.32227 L 16.8945 -5.32227 C 16.5039 -5.32227 16.2598 -5.51758 16.2598 -5.95703 C 16.2598 -14.9902 26.8555 -23.6328 39.0137 -23.6328 C 43.3594 -23.6328 47.2656 -22.7051 50.7324 -20.9473 C 52.0996 -22.6562 53.7109 -24.2188 55.6641 -25.5859 C 50.7812 -28.5645 45.0684 -30.0781 39.0137 -30.0781 C 23.2422 -30.0781 9.76562 -18.6035 9.76562 -5.51758 C 9.76562 -1.07422 12.5488 1.12305 18.0664 1.12305 Z M 59.5215 1.12305 L 106.738 1.12305 C 113.574 1.12305 116.846 -0.878906 116.846 -5.27344 C 116.846 -15.332 104.102 -30.0293 83.1055 -30.0293 C 62.1582 -30.0293 49.4141 -15.332 49.4141 -5.27344 C 49.4141 -0.878906 52.6855 1.12305 59.5215 1.12305 Z M 57.2754 -5.46875 C 56.7383 -5.46875 56.4453 -5.61523 56.4453 -6.15234 C 56.4453 -11.8652 65.8691 -23.4375 83.1055 -23.4375 C 100.391 -23.4375 109.766 -11.8652 109.766 -6.15234 C 109.766 -5.61523 109.521 -5.46875 108.984 -5.46875 Z"/>
  </g>
  <g id="Medium-S" transform="matrix(1 0 0 1 1682.86 696)">
   <path d="M 83.7402 -34.8145 C 93.1152 -34.8145 100.732 -43.1152 100.732 -53.2227 C 100.732 -63.2324 93.1641 -71.1914 83.7402 -71.1914 C 74.3652 -71.1914 66.6992 -63.1348 66.6992 -53.1738 C 66.6992 -43.0664 74.3652 -34.8145 83.7402 -34.8145 Z M 39.3066 -33.9355 C 47.4609 -33.9355 54.1016 -41.2598 54.1016 -50.1465 C 54.1016 -58.8867 47.5098 -65.918 39.3066 -65.918 C 31.2012 -65.918 24.4629 -58.7402 24.4629 -50.0977 C 24.4629 -41.2109 31.1523 -33.9355 39.3066 -33.9355 Z M 83.7402 -42.334 C 78.8086 -42.334 74.5605 -47.0703 74.5605 -53.1738 C 74.5605 -59.1309 78.7598 -63.623 83.7402 -63.623 C 88.7207 -63.623 92.8711 -59.1797 92.8711 -53.2227 C 92.8711 -47.168 88.6719 -42.334 83.7402 -42.334 Z M 39.3066 -41.3574 C 35.3027 -41.3574 31.8848 -45.2637 31.8848 -50.0977 C 31.8848 -54.7363 35.3027 -58.5449 39.3066 -58.5449 C 43.4082 -58.5449 46.7285 -54.834 46.7285 -50.1465 C 46.7285 -45.2637 43.3105 -41.3574 39.3066 -41.3574 Z M 18.5059 1.46484 L 47.4609 1.46484 C 45.1172 0.0976562 43.6035 -3.07617 43.9941 -5.9082 L 18.1641 -5.9082 C 17.7246 -5.9082 17.5293 -6.10352 17.5293 -6.54297 C 17.5293 -14.7461 27.4902 -22.8516 39.3066 -22.8516 C 43.0176 -22.8516 47.0215 -21.9238 50.0488 -20.5078 C 51.4648 -22.6074 53.2715 -24.4141 55.6152 -25.9766 C 50.8789 -28.7109 44.9219 -30.1758 39.3066 -30.1758 C 23.2422 -30.1758 9.76562 -18.75 9.76562 -5.81055 C 9.76562 -1.02539 12.6953 1.46484 18.5059 1.46484 Z M 60.2539 1.46484 L 107.227 1.46484 C 114.258 1.46484 117.627 -0.732422 117.627 -5.46875 C 117.627 -16.1133 104.346 -30.1758 83.7402 -30.1758 C 63.1348 -30.1758 49.8047 -16.1133 49.8047 -5.46875 C 49.8047 -0.732422 53.2227 1.46484 60.2539 1.46484 Z M 58.8867 -6.05469 C 58.3984 -6.05469 58.1543 -6.25 58.1543 -6.73828 C 58.1543 -12.0117 67.2852 -22.6562 83.7402 -22.6562 C 100.195 -22.6562 109.326 -12.0117 109.326 -6.73828 C 109.326 -6.25 109.082 -6.05469 108.545 -6.05469 Z"/>
  </g>
  <g id="Semibold-S" transform="matrix(1 0 0 1 1979.25 696)">
   <path d="M 84.1797 -34.5703 C 93.7012 -34.5703 101.367 -42.9199 101.367 -53.125 C 101.367 -63.2324 93.7012 -71.2891 84.1797 -71.2891 C 74.7559 -71.2891 66.9922 -63.1348 66.9922 -53.0762 C 67.041 -42.8711 74.6582 -34.5703 84.1797 -34.5703 Z M 39.502 -33.7402 C 47.7539 -33.7402 54.4922 -41.0156 54.4922 -50.0488 C 54.4922 -58.8867 47.7539 -66.0645 39.502 -66.0645 C 31.25 -66.0645 24.4629 -58.7402 24.4629 -50 C 24.5117 -40.9668 31.2012 -33.7402 39.502 -33.7402 Z M 84.1797 -42.8223 C 79.541 -42.8223 75.5371 -47.2656 75.5371 -53.125 C 75.4883 -58.6914 79.4922 -63.0371 84.1797 -63.0371 C 88.916 -63.0371 92.8711 -58.7891 92.8711 -53.125 C 92.8711 -47.3633 88.916 -42.8223 84.1797 -42.8223 Z M 39.502 -41.8457 C 35.791 -41.8457 32.5684 -45.459 32.5684 -50 C 32.5684 -54.3945 35.791 -57.9102 39.502 -57.9102 C 43.2617 -57.9102 46.3867 -54.4434 46.3867 -50.0488 C 46.3867 -45.459 43.2129 -41.8457 39.502 -41.8457 Z M 18.8965 1.75781 L 47.7051 1.75781 C 45.1172 0.195312 43.6523 -3.36914 44.043 -6.34766 L 19.1406 -6.34766 C 18.6523 -6.34766 18.5059 -6.5918 18.5059 -6.98242 C 18.5059 -14.5508 27.9785 -22.2168 39.4531 -22.2168 C 42.8223 -22.2168 46.8262 -21.3867 49.5117 -20.166 C 50.9277 -22.5586 52.8809 -24.6094 55.6152 -26.3184 C 50.9277 -28.8086 44.8242 -30.2734 39.4531 -30.2734 C 23.2422 -30.2734 9.76562 -18.8965 9.76562 -6.00586 C 9.76562 -0.927734 12.793 1.75781 18.8965 1.75781 Z M 60.791 1.70898 L 107.568 1.70898 C 114.746 1.70898 118.262 -0.634766 118.262 -5.61523 C 118.262 -16.748 104.492 -30.2734 84.1797 -30.2734 C 63.8672 -30.2734 50.0977 -16.748 50.0977 -5.61523 C 50.0977 -0.634766 53.6133 1.70898 60.791 1.70898 Z M 60.1562 -6.49414 C 59.6191 -6.49414 59.4238 -6.78711 59.4238 -7.17773 C 59.4238 -12.1582 68.3594 -22.0215 84.1797 -22.0215 C 100 -22.0215 108.936 -12.1582 108.936 -7.17773 C 108.936 -6.78711 108.74 -6.49414 108.203 -6.49414 Z"/>
  </g>
  <g id="Bold-S" transform="matrix(1 0 0 1 2275.55 696)">
   <path d="M 84.7656 -34.2285 C 94.4824 -34.2285 102.197 -42.627 102.197 -53.0273 C 102.197 -63.1836 94.3848 -71.4844 84.7656 -71.4844 C 75.2441 -71.4844 67.334 -63.1348 67.3828 -52.9785 C 67.4316 -42.5781 75.0977 -34.2285 84.7656 -34.2285 Z M 39.7461 -33.3984 C 48.1934 -33.3984 54.9805 -40.7715 54.9805 -49.9512 C 54.9805 -58.8867 48.0957 -66.2109 39.7461 -66.2109 C 31.3477 -66.2109 24.4141 -58.7891 24.4629 -49.9512 C 24.5117 -40.7227 31.2988 -33.3984 39.7461 -33.3984 Z M 84.7656 -43.457 C 80.4199 -43.457 76.7578 -47.5586 76.7578 -53.0273 C 76.709 -58.2031 80.4688 -62.2559 84.7656 -62.2559 C 89.1602 -62.2559 92.8223 -58.2031 92.8223 -53.0273 C 92.8223 -47.6074 89.209 -43.457 84.7656 -43.457 Z M 39.7461 -42.4316 C 36.377 -42.4316 33.4961 -45.7031 33.4961 -49.9512 C 33.4961 -53.9062 36.4258 -57.1289 39.7461 -57.1289 C 43.0664 -57.1289 45.9473 -53.9062 45.9473 -49.9512 C 45.9473 -45.7031 43.1152 -42.4316 39.7461 -42.4316 Z M 61.5234 2.09961 L 108.008 2.09961 C 115.381 2.09961 119.092 -0.488281 119.092 -5.85938 C 119.092 -17.5781 104.736 -30.4199 84.7656 -30.4199 C 64.8438 -30.4199 50.4883 -17.5781 50.4883 -5.85938 C 50.4883 -0.488281 54.1504 2.09961 61.5234 2.09961 Z M 19.3359 2.09961 L 47.998 2.09961 C 45.166 0.341797 43.7012 -3.71094 44.0918 -6.93359 L 20.4102 -6.93359 C 19.9219 -6.93359 19.7754 -7.22656 19.7754 -7.56836 C 19.7754 -14.3555 28.6621 -21.4355 39.7461 -21.4355 C 42.4805 -21.4355 46.582 -20.6055 48.8281 -19.7266 C 50.293 -22.5098 52.4414 -24.8047 55.5664 -26.709 C 51.0254 -29.0039 44.6777 -30.4199 39.7461 -30.4199 C 23.2422 -30.4199 9.76562 -19.043 9.76562 -6.25 C 9.76562 -0.878906 12.9395 2.09961 19.3359 2.09961 Z M 61.7676 -7.12891 C 61.2793 -7.12891 61.084 -7.42188 61.084 -7.8125 C 61.084 -12.3047 69.8242 -21.2402 84.7656 -21.2402 C 99.7559 -21.2402 108.496 -12.3047 108.496 -7.8125 C 108.496 -7.42188 108.301 -7.12891 107.764 -7.12891 Z"/>
  </g>
  <g id="Heavy-S" transform="matrix(1 0 0 1 2571.65 696)">
   <path d="M 85.6445 -33.7891 C 95.6055 -33.7891 103.418 -42.1875 103.418 -52.8809 C 103.418 -63.1348 95.4102 -71.7285 85.6445 -71.7285 C 75.9277 -71.7285 67.8711 -63.1348 67.9199 -52.8809 C 67.9688 -42.1875 75.7324 -33.7891 85.6445 -33.7891 Z M 40.0879 -32.959 C 48.8281 -32.959 55.7129 -40.3809 55.7129 -49.8047 C 55.7129 -58.8379 48.6328 -66.4062 40.0879 -66.4062 C 31.543 -66.4062 24.4141 -58.7891 24.4629 -49.8047 C 24.5117 -40.332 31.3965 -32.959 40.0879 -32.959 Z M 85.6445 -44.3359 C 81.7383 -44.3359 78.5156 -47.9492 78.5156 -52.9297 C 78.4668 -57.4219 81.8848 -61.1328 85.6445 -61.1328 C 89.502 -61.1328 92.8223 -57.4219 92.8223 -52.8809 C 92.8223 -47.998 89.6484 -44.3359 85.6445 -44.3359 Z M 40.0879 -43.3594 C 37.2559 -43.3594 34.8633 -46.0449 34.8633 -49.8047 C 34.8145 -53.1738 37.3535 -56.0059 40.0879 -56.0059 C 42.7734 -56.0059 45.3125 -53.1738 45.3125 -49.8047 C 45.3125 -46.0449 42.9688 -43.3594 40.0879 -43.3594 Z M 62.6465 2.58789 L 108.691 2.58789 C 116.357 2.58789 120.312 -0.292969 120.312 -6.15234 C 120.312 -18.75 105.078 -30.6152 85.6445 -30.6152 C 66.2598 -30.6152 51.0254 -18.75 51.0254 -6.15234 C 51.0254 -0.292969 54.9805 2.58789 62.6465 2.58789 Z M 20.0195 2.63672 L 48.4375 2.63672 C 45.2148 0.537109 43.7988 -4.29688 44.1406 -7.8125 L 22.2656 -7.8125 C 21.7285 -7.8125 21.6309 -8.1543 21.6309 -8.44727 C 21.6309 -14.0137 29.5898 -20.2637 40.0879 -20.2637 C 42.041 -20.2637 46.1914 -19.5312 47.8027 -19.0918 C 49.3164 -22.4121 51.8066 -25.1465 55.5176 -27.2949 C 51.123 -29.1992 44.4824 -30.5664 40.0879 -30.5664 C 23.2422 -30.5664 9.76562 -19.2871 9.76562 -6.64062 C 9.76562 -0.732422 13.1348 2.63672 20.0195 2.63672 Z M 64.1602 -8.00781 C 63.6719 -8.00781 63.5254 -8.34961 63.5254 -8.69141 C 63.5254 -12.5488 71.875 -20.0684 85.6445 -20.0684 C 99.4629 -20.0684 107.812 -12.5488 107.812 -8.69141 C 107.812 -8.34961 107.666 -8.00781 107.178 -8.00781 Z"/>
  </g>
  <g id="Black-S" transform="matrix(1 0 0 1 2867.85 696)">
   <path d="M 86.4258 -33.3496 C 96.6309 -33.3496 104.443 -41.8457 104.443 -52.7344 C 104.443 -63.1348 96.3379 -71.9727 86.4258 -71.9727 C 76.5625 -71.9727 68.3594 -63.1836 68.4082 -52.7832 C 68.5059 -41.8457 76.2695 -33.3496 86.4258 -33.3496 Z M 40.4297 -32.5195 C 49.3652 -32.5195 56.3965 -40.0391 56.3965 -49.6582 C 56.3965 -58.8379 49.0723 -66.6016 40.4297 -66.6016 C 31.6895 -66.6016 24.4141 -58.8379 24.4629 -49.707 C 24.5117 -39.9902 31.4453 -32.5195 40.4297 -32.5195 Z M 86.4258 -45.166 C 82.9102 -45.166 80.127 -48.291 80.127 -52.832 C 80.0781 -56.7383 83.1543 -60.1074 86.4258 -60.1074 C 89.7949 -60.1074 92.7734 -56.7383 92.7734 -52.7344 C 92.7734 -48.291 90.0391 -45.166 86.4258 -45.166 Z M 40.4297 -44.1406 C 38.0371 -44.1406 36.084 -46.3379 36.084 -49.707 C 35.9863 -52.5391 38.1836 -54.9805 40.4297 -54.9805 C 42.5781 -54.9805 44.7754 -52.5391 44.7754 -49.6582 C 44.7754 -46.3379 42.8711 -44.1406 40.4297 -44.1406 Z M 63.5742 3.02734 L 109.326 3.02734 C 117.236 3.02734 121.338 -0.0976562 121.338 -6.39648 C 121.338 -19.8242 105.371 -30.8105 86.4258 -30.8105 C 67.5293 -30.8105 51.5137 -19.8242 51.5137 -6.39648 C 51.5137 -0.0976562 55.6641 3.02734 63.5742 3.02734 Z M 20.6543 3.07617 L 48.8281 3.07617 C 45.2637 0.732422 43.8965 -4.78516 44.1895 -8.59375 L 23.9258 -8.59375 C 23.3887 -8.59375 23.291 -8.98438 23.291 -9.17969 C 23.291 -13.7207 30.4199 -19.1895 40.4297 -19.1895 C 41.6504 -19.1895 45.8984 -18.5547 46.875 -18.5059 C 48.4863 -22.3145 51.2207 -25.4395 55.5176 -27.832 C 51.2207 -29.3945 44.3359 -30.7617 40.4297 -30.7617 C 23.2422 -30.7617 9.76562 -19.5312 9.76562 -7.03125 C 9.76562 -0.634766 13.3301 3.07617 20.6543 3.07617 Z M 66.3086 -8.78906 C 65.7715 -8.78906 65.7227 -9.17969 65.7227 -9.42383 C 65.7227 -12.793 73.7305 -18.9941 86.4258 -18.9941 C 99.1211 -18.9941 107.178 -12.793 107.178 -9.42383 C 107.178 -9.17969 107.129 -8.78906 106.592 -8.78906 Z"/>
  </g>
  <g id="Ultralight-M" transform="matrix(1 0 0 1 480.878 1126)">
   <path d="M 104.443 -34.8633 C 115.381 -34.8633 123.779 -44.1895 123.779 -56.4453 C 123.779 -68.0176 115.088 -77.5391 104.443 -77.5391 C 93.75 -77.5391 84.9609 -67.9199 85.0586 -56.4453 C 85.2051 -44.2383 93.457 -34.8633 104.443 -34.8633 Z M 104.443 -37.3047 C 94.873 -37.3047 87.4512 -45.5566 87.4512 -56.4453 C 87.3535 -66.6016 95.0195 -75.1465 104.443 -75.1465 C 113.77 -75.1465 121.387 -66.6504 121.387 -56.4453 C 121.387 -45.5566 114.014 -37.3047 104.443 -37.3047 Z M 48.1934 -33.8379 C 57.8125 -33.8379 65.1367 -41.8945 65.1367 -52.6367 C 65.1367 -62.6953 57.4707 -71.0449 48.1934 -71.0449 C 38.8672 -71.0449 31.2012 -62.6465 31.3477 -52.6367 C 31.4941 -41.8945 38.623 -33.8379 48.1934 -33.8379 Z M 48.1934 -36.2305 C 39.9902 -36.2305 33.7402 -43.2129 33.7402 -52.6367 C 33.7402 -61.3281 40.1855 -68.6523 48.1934 -68.6523 C 56.1523 -68.6523 62.7441 -61.377 62.7441 -52.6367 C 62.7441 -43.2129 56.3965 -36.2305 48.1934 -36.2305 Z M 19.2871 8.93555 L 63.3301 8.93555 C 62.4512 8.54492 61.4746 7.71484 60.8887 6.5918 L 19.3359 6.5918 C 16.0645 6.5918 14.8926 5.46875 14.8926 2.58789 C 14.8926 -12.3535 29.9805 -24.9023 48.0957 -24.9023 C 57.2266 -24.9023 65.4785 -22.168 71.5332 -16.7969 C 72.1191 -17.334 72.7539 -17.8223 73.3398 -18.3594 C 66.5039 -24.1699 57.7637 -27.2461 48.0957 -27.2461 C 26.123 -27.2461 12.4512 -11.4258 12.4512 2.58789 C 12.4512 6.93359 14.6973 8.93555 19.2871 8.93555 Z M 71.0938 8.93555 L 137.5 8.93555 C 142.773 8.93555 145.215 7.08008 145.215 2.92969 C 145.215 -9.61914 129.443 -27.0508 104.297 -27.0508 C 79.1504 -27.0508 63.3789 -9.61914 63.3789 2.92969 C 63.3789 7.08008 65.8691 8.93555 71.0938 8.93555 Z M 71.1426 6.54297 C 67.041 6.54297 65.7715 5.61523 65.7715 2.97852 C 65.7715 -8.74023 80.2246 -24.6582 104.297 -24.6582 C 128.369 -24.6582 142.822 -8.74023 142.822 2.97852 C 142.822 5.61523 141.553 6.54297 137.451 6.54297 Z"/>
  </g>
  <g id="Thin-M" transform="matrix(1 0 0 1 777.223 1126)">
   <path d="M 104.736 -34.9121 C 115.869 -34.9121 124.512 -44.4824 124.512 -56.7871 C 124.512 -68.5547 115.625 -78.1738 104.736 -78.1738 C 93.8477 -78.1738 84.9121 -68.457 85.0098 -56.7383 C 85.1074 -44.4824 93.6523 -34.9121 104.736 -34.9121 Z M 104.736 -38.4766 C 95.7031 -38.4766 88.623 -46.3867 88.623 -56.7383 C 88.5254 -66.5527 95.8496 -74.6094 104.736 -74.6094 C 113.623 -74.6094 120.85 -66.6504 120.85 -56.7871 C 120.85 -46.3867 113.77 -38.4766 104.736 -38.4766 Z M 48.5352 -33.8379 C 58.2031 -33.8379 65.7715 -42.1387 65.7715 -52.9785 C 65.7715 -63.2324 58.0078 -71.6309 48.5352 -71.6309 C 39.0137 -71.6309 31.2012 -63.1348 31.3477 -52.9297 C 31.4453 -42.1387 38.8184 -33.8379 48.5352 -33.8379 Z M 48.5352 -37.3535 C 40.8203 -37.3535 34.8145 -44.0918 34.8145 -52.9297 C 34.8145 -61.2305 40.9668 -68.1641 48.5352 -68.1641 C 56.0547 -68.1641 62.2559 -61.2793 62.2559 -52.9785 C 62.2559 -44.0918 56.25 -37.3535 48.5352 -37.3535 Z M 19.9707 9.375 L 62.7441 9.375 C 61.5234 8.74023 60.4004 7.42188 60.0098 5.9082 L 19.7754 5.9082 C 16.9922 5.9082 15.9668 4.98047 15.9668 2.49023 C 15.9668 -11.8164 30.7617 -24.0723 48.4375 -24.0723 C 56.8848 -24.0723 64.502 -21.582 70.2637 -16.8457 C 71.0938 -17.6758 71.9238 -18.457 72.9004 -19.2383 C 66.2109 -24.6582 57.7148 -27.5391 48.4375 -27.5391 C 26.8066 -27.5391 12.4512 -11.9141 12.4512 2.58789 C 12.4512 7.17773 14.9414 9.375 19.9707 9.375 Z M 72.0215 9.375 L 137.256 9.375 C 143.164 9.375 145.947 7.37305 145.947 2.97852 C 145.947 -9.66797 130.078 -27.3438 104.639 -27.3438 C 79.1992 -27.3438 63.3301 -9.66797 63.3301 2.97852 C 63.3301 7.37305 66.1133 9.375 72.0215 9.375 Z M 71.5332 5.85938 C 68.0664 5.85938 66.9434 5.0293 66.9434 2.73438 C 66.9434 -8.1543 80.957 -23.8281 104.639 -23.8281 C 128.369 -23.8281 142.334 -8.1543 142.334 2.73438 C 142.334 5.0293 141.211 5.85938 137.744 5.85938 Z"/>
  </g>
  <g id="Light-M" transform="matrix(1 0 0 1 1073.23 1126)">
   <path d="M 105.371 -35.0098 C 116.748 -35.0098 125.879 -45.0195 125.879 -57.4707 C 125.879 -69.6777 116.699 -79.3945 105.371 -79.3945 C 94.043 -79.3945 84.7656 -69.5312 84.8633 -57.4219 C 84.9121 -44.9707 93.9941 -35.0098 105.371 -35.0098 Z M 105.371 -40.7227 C 97.4121 -40.7227 90.8691 -48.0469 90.8691 -57.4219 C 90.8203 -66.5039 97.4121 -73.6816 105.371 -73.6816 C 113.33 -73.6816 119.824 -66.5527 119.824 -57.4707 C 119.824 -48.0957 113.33 -40.7227 105.371 -40.7227 Z M 49.1211 -33.9355 C 59.0332 -33.9355 66.9434 -42.627 66.9434 -53.6133 C 66.9434 -64.209 58.9844 -72.8027 49.1211 -72.8027 C 39.3066 -72.8027 31.2012 -64.0625 31.2988 -53.5645 C 31.3477 -42.627 39.209 -33.9355 49.1211 -33.9355 Z M 49.1211 -39.5996 C 42.3828 -39.5996 36.9141 -45.7031 36.9141 -53.5645 C 36.9141 -61.0352 42.4316 -67.1387 49.1211 -67.1387 C 55.8594 -67.1387 61.3281 -61.1328 61.3281 -53.6133 C 61.3281 -45.7031 55.8594 -39.5996 49.1211 -39.5996 Z M 21.3379 10.2051 L 61.5723 10.2051 C 59.7656 9.17969 58.252 6.93359 58.252 4.58984 L 20.5566 4.58984 C 18.7988 4.58984 18.1152 3.95508 18.1152 2.34375 C 18.1152 -10.6934 32.373 -22.4121 49.0723 -22.4121 C 56.2012 -22.4121 62.5977 -20.5078 67.7734 -16.8945 C 68.9941 -18.3594 70.4102 -19.6777 72.0703 -20.8984 C 65.5762 -25.5859 57.666 -28.0273 49.0723 -28.0273 C 28.0762 -28.0273 12.4512 -12.8418 12.4512 2.63672 C 12.4512 7.71484 15.4297 10.2051 21.3379 10.2051 Z M 73.7793 10.2051 L 136.816 10.2051 C 143.994 10.2051 147.363 7.91016 147.363 2.97852 C 147.363 -9.76562 131.348 -27.8809 105.273 -27.8809 C 79.248 -27.8809 63.2324 -9.76562 63.2324 2.97852 C 63.2324 7.91016 66.6016 10.2051 73.7793 10.2051 Z M 72.2168 4.44336 C 70.0195 4.44336 69.2383 3.90625 69.2383 2.34375 C 69.2383 -6.88477 82.3242 -22.168 105.273 -22.168 C 128.271 -22.168 141.357 -6.88477 141.357 2.34375 C 141.357 3.90625 140.576 4.44336 138.379 4.44336 Z"/>
  </g>
  <g id="Regular-M" transform="matrix(1 0 0 1 1369.38 1126)">
   <path d="M 105.811 -35.0586 C 117.432 -35.0586 126.904 -45.4102 126.904 -58.0078 C 126.904 -70.459 117.48 -80.3223 105.811 -80.3223 C 94.2383 -80.3223 84.7168 -70.3125 84.7168 -57.9102 C 84.7656 -45.3613 94.2383 -35.0586 105.811 -35.0586 Z M 49.5605 -33.9844 C 59.6191 -33.9844 67.8711 -43.0176 67.8711 -54.1016 C 67.8711 -64.9414 59.7168 -73.6816 49.5605 -73.6816 C 39.502 -73.6816 31.2012 -64.7949 31.25 -54.0039 C 31.2988 -42.9688 39.502 -33.9844 49.5605 -33.9844 Z M 105.811 -42.4316 C 98.6816 -42.4316 92.5781 -49.2676 92.5781 -57.9102 C 92.5781 -66.4062 98.584 -72.9492 105.811 -72.9492 C 113.086 -72.9492 119.043 -66.5039 119.043 -58.0078 C 119.043 -49.3652 113.037 -42.4316 105.811 -42.4316 Z M 49.5605 -41.2598 C 43.6035 -41.2598 38.5254 -46.9727 38.5254 -54.0039 C 38.5254 -60.8887 43.5547 -66.4062 49.5605 -66.4062 C 55.7129 -66.4062 60.6445 -60.9863 60.6445 -54.1016 C 60.6445 -46.9727 55.5664 -41.2598 49.5605 -41.2598 Z M 22.4121 10.791 L 60.7422 10.791 C 58.3984 9.47266 56.5918 6.54297 56.9336 3.56445 L 21.1914 3.56445 C 20.2148 3.56445 19.7266 3.17383 19.7266 2.24609 C 19.7266 -9.86328 33.5449 -21.1914 49.5117 -21.1914 C 55.6641 -21.1914 61.1816 -19.7266 65.918 -16.9434 C 67.4805 -18.8965 69.2383 -20.6055 71.4355 -22.1191 C 65.1367 -26.2695 57.5684 -28.418 49.5117 -28.418 C 29.0527 -28.418 12.4512 -13.5742 12.4512 2.68555 C 12.4512 8.10547 15.7715 10.791 22.4121 10.791 Z M 75.1465 10.791 L 136.475 10.791 C 144.58 10.791 148.438 8.34961 148.438 2.97852 C 148.438 -9.81445 132.275 -28.3203 105.811 -28.3203 C 79.2969 -28.3203 63.1348 -9.81445 63.1348 2.97852 C 63.1348 8.34961 66.9922 10.791 75.1465 10.791 Z M 72.8027 3.41797 C 71.5332 3.41797 70.9961 3.07617 70.9961 2.05078 C 70.9961 -5.95703 83.3984 -20.9473 105.811 -20.9473 C 128.174 -20.9473 140.576 -5.95703 140.576 2.05078 C 140.576 3.07617 140.088 3.41797 138.818 3.41797 Z"/>
  </g>
  <g id="Medium-M" transform="matrix(1 0 0 1 1665.62 1126)">
   <path d="M 106.494 -34.7656 C 118.311 -34.7656 127.881 -45.166 127.881 -57.959 C 127.881 -70.5566 118.311 -80.6152 106.494 -80.6152 C 94.7266 -80.6152 85.0586 -70.4102 85.1074 -57.8613 C 85.1562 -45.1172 94.6777 -34.7656 106.494 -34.7656 Z M 49.8535 -33.6426 C 60.1562 -33.6426 68.5059 -42.7734 68.5059 -54.0527 C 68.5059 -65.0391 60.1562 -73.9258 49.8535 -73.9258 C 39.6484 -73.9258 31.2012 -64.8926 31.25 -54.0039 C 31.2988 -42.7246 39.5996 -33.6426 49.8535 -33.6426 Z M 106.494 -43.3105 C 99.7559 -43.3105 94.043 -49.6582 94.043 -57.9102 C 93.9941 -65.8691 99.707 -72.0703 106.494 -72.0703 C 113.33 -72.0703 118.945 -65.9668 118.945 -57.959 C 118.945 -49.7559 113.281 -43.3105 106.494 -43.3105 Z M 49.8535 -42.0898 C 44.3359 -42.0898 39.6484 -47.3633 39.6484 -54.0039 C 39.6484 -60.3516 44.3359 -65.5273 49.8535 -65.5273 C 55.5176 -65.5273 60.1074 -60.4492 60.1074 -54.0527 C 60.1074 -47.3633 55.4199 -42.0898 49.8535 -42.0898 Z M 22.998 11.2305 L 60.9375 11.2305 C 58.252 9.66797 56.4941 6.10352 56.7871 2.88086 L 22.5586 2.88086 C 21.6309 2.88086 21.2402 2.44141 21.2402 1.61133 C 21.2402 -9.57031 34.3262 -20.2148 49.8535 -20.2148 C 55.2734 -20.2148 60.7422 -18.8477 64.9902 -16.5039 C 66.6016 -18.8965 68.6523 -20.9473 71.3379 -22.7051 C 65.1367 -26.5137 57.4219 -28.5645 49.8535 -28.5645 C 29.1992 -28.5645 12.4512 -13.8184 12.4512 2.39258 C 12.4512 8.25195 15.9668 11.2305 22.998 11.2305 Z M 76.0254 11.2305 L 136.914 11.2305 C 145.312 11.2305 149.414 8.54492 149.414 2.7832 C 149.414 -10.6445 132.617 -28.5156 106.445 -28.5156 C 80.2734 -28.5156 63.5254 -10.6445 63.5254 2.7832 C 63.5254 8.54492 67.5781 11.2305 76.0254 11.2305 Z M 74.5117 2.68555 C 73.3398 2.68555 72.9004 2.29492 72.9004 1.41602 C 72.9004 -6.05469 84.9609 -19.9707 106.445 -19.9707 C 127.93 -19.9707 140.039 -6.05469 140.039 1.41602 C 140.039 2.29492 139.6 2.68555 138.428 2.68555 Z"/>
  </g>
  <g id="Semibold-M" transform="matrix(1 0 0 1 1961.97 1126)">
   <path d="M 106.982 -34.5215 C 118.945 -34.5215 128.613 -44.9707 128.613 -57.9102 C 128.613 -70.6055 118.945 -80.8105 106.982 -80.8105 C 95.1172 -80.8105 85.3516 -70.5078 85.4004 -57.8613 C 85.4492 -44.9707 95.0195 -34.5215 106.982 -34.5215 Z M 50.0977 -33.3984 C 60.5469 -33.3984 68.9453 -42.627 68.9453 -54.0039 C 68.9453 -65.0879 60.498 -74.1211 50.0977 -74.1211 C 39.7461 -74.1211 31.2012 -64.9902 31.25 -53.9551 C 31.2988 -42.5781 39.6973 -33.3984 50.0977 -33.3984 Z M 106.982 -43.9453 C 100.586 -43.9453 95.166 -50 95.166 -57.8613 C 95.1172 -65.4785 100.586 -71.3867 106.982 -71.3867 C 113.477 -71.3867 118.848 -65.5273 118.848 -57.9102 C 118.848 -50.0977 113.477 -43.9453 106.982 -43.9453 Z M 50.0977 -42.6758 C 44.9219 -42.6758 40.5273 -47.6562 40.5273 -53.9551 C 40.5273 -59.9609 44.9219 -64.8438 50.0977 -64.8438 C 55.3711 -64.8438 59.7168 -60.0586 59.7168 -54.0039 C 59.7168 -47.6562 55.3223 -42.6758 50.0977 -42.6758 Z M 23.4375 11.5723 L 61.084 11.5723 C 58.1543 9.81445 56.3477 5.81055 56.7383 2.29492 L 23.584 2.29492 C 22.7051 2.29492 22.3633 1.9043 22.3633 1.12305 C 22.3633 -9.32617 34.9609 -19.4824 50.0977 -19.4824 C 54.9805 -19.4824 60.4492 -18.2129 64.2578 -16.1621 C 65.9668 -18.8965 68.2129 -21.1914 71.2402 -23.1445 C 65.1855 -26.709 57.3242 -28.7109 50.0977 -28.7109 C 29.248 -28.7109 12.4512 -14.0137 12.4512 2.19727 C 12.4512 8.34961 16.1133 11.5723 23.4375 11.5723 Z M 76.7578 11.5234 L 137.207 11.5234 C 145.898 11.5234 150.146 8.69141 150.146 2.63672 C 150.146 -11.2793 132.91 -28.6621 106.982 -28.6621 C 81.0547 -28.6621 63.8184 -11.2793 63.8184 2.63672 C 63.8184 8.69141 68.0664 11.5234 76.7578 11.5234 Z M 75.8301 2.09961 C 74.7559 2.09961 74.3652 1.75781 74.3652 0.927734 C 74.3652 -6.10352 86.1816 -19.2383 106.982 -19.2383 C 127.783 -19.2383 139.6 -6.10352 139.6 0.927734 C 139.6 1.75781 139.209 2.09961 138.135 2.09961 Z"/>
  </g>
  <g id="Bold-M" transform="matrix(1 0 0 1 2258.19 1126)">
   <path d="M 107.666 -34.1797 C 119.824 -34.1797 129.59 -44.7266 129.59 -57.8613 C 129.59 -70.7031 119.727 -81.1035 107.666 -81.1035 C 95.6543 -81.1035 85.7422 -70.6055 85.791 -57.8125 C 85.791 -44.7266 95.5078 -34.1797 107.666 -34.1797 Z M 50.3906 -33.1055 C 61.0352 -33.1055 69.5801 -42.3828 69.5801 -53.9551 C 69.5801 -65.1855 60.9375 -74.4141 50.3906 -74.4141 C 39.8926 -74.4141 31.2012 -65.0879 31.25 -53.9062 C 31.2988 -42.334 39.7949 -33.1055 50.3906 -33.1055 Z M 107.666 -44.7754 C 101.66 -44.7754 96.6309 -50.3906 96.6309 -57.8613 C 96.582 -64.9414 101.709 -70.5078 107.666 -70.5078 C 113.672 -70.5078 118.75 -64.9902 118.75 -57.8613 C 118.75 -50.4883 113.721 -44.7754 107.666 -44.7754 Z M 50.3906 -43.5059 C 45.6543 -43.5059 41.6504 -48.0469 41.6504 -53.9062 C 41.6504 -59.4238 45.7031 -63.9648 50.3906 -63.9648 C 55.127 -63.9648 59.1797 -59.4727 59.1797 -53.9551 C 59.1797 -48.0469 55.2246 -43.5059 50.3906 -43.5059 Z M 24.0723 12.0117 L 61.2793 12.0117 C 58.0078 10.0098 56.25 5.37109 56.5918 1.5625 L 25 1.5625 C 24.1699 1.5625 23.877 1.17188 23.877 0.537109 C 23.877 -8.98438 35.7422 -18.5059 50.3906 -18.5059 C 54.5898 -18.5059 60.0098 -17.334 63.3301 -15.7227 C 65.0879 -18.8965 67.5781 -21.5332 71.1426 -23.7305 C 65.1855 -26.9531 57.1777 -28.8574 50.3906 -28.8574 C 29.3945 -28.8574 12.4512 -14.2578 12.4512 1.9043 C 12.4512 8.44727 16.3086 12.0117 24.0723 12.0117 Z M 77.6367 11.9629 L 137.646 11.9629 C 146.68 11.9629 151.123 8.88672 151.123 2.44141 C 151.123 -12.1094 133.252 -28.8574 107.666 -28.8574 C 82.0801 -28.8574 64.209 -12.1094 64.209 2.44141 C 64.209 8.88672 68.6523 11.9629 77.6367 11.9629 Z M 77.5879 1.36719 C 76.6113 1.36719 76.3184 0.976562 76.3184 0.292969 C 76.3184 -6.15234 87.793 -18.2617 107.666 -18.2617 C 127.539 -18.2617 139.014 -6.15234 139.014 0.292969 C 139.014 0.976562 138.672 1.36719 137.744 1.36719 Z"/>
  </g>
  <g id="Heavy-M" transform="matrix(1 0 0 1 2554.19 1126)">
   <path d="M 108.643 -33.6914 C 121.094 -33.6914 130.957 -44.3848 130.957 -57.8125 C 130.957 -70.8008 120.947 -81.543 108.643 -81.543 C 96.3867 -81.543 86.2793 -70.752 86.3281 -57.7637 C 86.377 -44.3848 96.1914 -33.6914 108.643 -33.6914 Z M 50.8789 -32.6172 C 61.7676 -32.6172 70.5078 -42.041 70.5078 -53.9062 C 70.5078 -65.332 61.6211 -74.7559 50.8789 -74.7559 C 40.0879 -74.7559 31.1523 -65.2344 31.25 -53.8574 C 31.2988 -41.9922 39.9414 -32.6172 50.8789 -32.6172 Z M 108.643 -45.9961 C 103.223 -45.9961 98.7305 -51.0254 98.7305 -57.8125 C 98.6816 -64.1113 103.369 -69.2383 108.643 -69.2383 C 114.014 -69.2383 118.555 -64.1602 118.555 -57.8125 C 118.555 -51.0742 114.111 -45.9961 108.643 -45.9961 Z M 50.8789 -44.7266 C 46.7773 -44.7266 43.3105 -48.6328 43.3105 -53.8574 C 43.2617 -58.6914 46.875 -62.6953 50.8789 -62.6953 C 54.834 -62.6953 58.3984 -58.6914 58.3984 -53.9062 C 58.3984 -48.6328 55.0293 -44.7266 50.8789 -44.7266 Z M 79.0039 12.5977 L 138.281 12.5977 C 147.754 12.5977 152.539 9.17969 152.539 2.14844 C 152.539 -13.3301 133.74 -29.1504 108.643 -29.1504 C 83.5449 -29.1504 64.7461 -13.3301 64.7461 2.14844 C 64.7461 9.17969 69.5312 12.5977 79.0039 12.5977 Z M 24.9512 12.6465 L 61.6211 12.6465 C 57.8125 10.2539 56.0547 4.6875 56.4453 0.537109 L 27.002 0.537109 C 26.2695 0.537109 26.0742 0.0976562 26.0742 -0.390625 C 26.0742 -8.49609 36.9141 -17.0898 50.8301 -17.0898 C 54.0527 -17.0898 59.4238 -16.1133 61.9629 -15.0879 C 63.8672 -18.8477 66.748 -22.0215 70.9961 -24.5605 C 65.2344 -27.2949 56.9336 -29.1504 50.8301 -29.1504 C 29.5898 -29.1504 12.4512 -14.6484 12.4512 1.51367 C 12.4512 8.64258 16.6016 12.6465 24.9512 12.6465 Z M 80.0781 0.292969 C 79.3457 0.292969 79.1016 -0.146484 79.1016 -0.634766 C 79.1016 -6.25 90.0879 -16.8457 108.643 -16.8457 C 127.197 -16.8457 138.184 -6.25 138.184 -0.634766 C 138.184 -0.146484 137.939 0.292969 137.158 0.292969 Z"/>
  </g>
  <g id="Black-M" transform="matrix(1 0 0 1 2850.27 1126)">
   <path d="M 109.521 -33.3008 C 122.266 -33.3008 132.227 -44.0918 132.227 -57.7637 C 132.227 -70.8984 122.021 -81.8848 109.521 -81.8848 C 97.0215 -81.8848 86.7676 -70.8984 86.8164 -57.7637 C 86.8652 -44.0918 96.7773 -33.3008 109.521 -33.3008 Z M 51.2695 -32.2266 C 62.4512 -32.2266 71.2891 -41.748 71.2891 -53.8086 C 71.2891 -65.4297 62.1582 -75.0977 51.2695 -75.0977 C 40.2832 -75.0977 31.1523 -65.3809 31.2012 -53.8086 C 31.2988 -41.6992 40.0879 -32.2266 51.2695 -32.2266 Z M 109.521 -47.1191 C 104.639 -47.1191 100.635 -51.5625 100.635 -57.8125 C 100.537 -63.4277 104.834 -68.0664 109.521 -68.0664 C 114.258 -68.0664 118.408 -63.4277 118.408 -57.7637 C 118.408 -51.6113 114.453 -47.1191 109.521 -47.1191 Z M 51.2695 -45.8008 C 47.7539 -45.8008 44.8242 -49.1211 44.8242 -53.8086 C 44.7266 -58.0078 47.9004 -61.5234 51.2695 -61.5234 C 54.5898 -61.5234 57.7148 -58.0078 57.7148 -53.8086 C 57.7148 -49.1211 54.834 -45.8008 51.2695 -45.8008 Z M 80.1758 13.1348 L 138.867 13.1348 C 148.73 13.1348 153.809 9.42383 153.809 1.85547 C 153.809 -14.4531 134.229 -29.4434 109.521 -29.4434 C 84.8145 -29.4434 65.2344 -14.4531 65.2344 1.85547 C 65.2344 9.42383 70.3125 13.1348 80.1758 13.1348 Z M 25.7324 13.2324 L 61.8652 13.2324 C 57.666 10.498 55.8594 4.15039 56.2988 -0.439453 L 28.7598 -0.439453 C 28.125 -0.439453 28.0273 -0.878906 28.0273 -1.17188 C 28.0273 -8.05664 37.9883 -15.8203 51.2695 -15.8203 C 53.5645 -15.8203 58.8867 -14.9902 60.7422 -14.502 C 62.7441 -18.8477 65.9668 -22.4609 70.8496 -25.293 C 65.2832 -27.6367 56.7383 -29.3457 51.2695 -29.3457 C 29.7363 -29.3457 12.4512 -14.9414 12.4512 1.17188 C 12.4512 8.78906 16.8457 13.2324 25.7324 13.2324 Z M 82.373 -0.683594 C 81.7383 -0.683594 81.5918 -1.12305 81.5918 -1.51367 C 81.5918 -6.29883 92.1875 -15.5762 109.521 -15.5762 C 126.855 -15.5762 137.402 -6.29883 137.402 -1.51367 C 137.402 -1.12305 137.305 -0.683594 136.67 -0.683594 Z"/>
  </g>
  <g id="Ultralight-L" transform="matrix(1 0 0 1 458.124 1556)">
   <path d="M 134.619 -34.7656 C 148.682 -34.7656 159.424 -46.7285 159.424 -62.4023 C 159.424 -77.2461 148.242 -89.5508 134.619 -89.5508 C 120.898 -89.5508 109.619 -77.1973 109.814 -62.4512 C 110.01 -46.7285 120.557 -34.7656 134.619 -34.7656 Z M 134.619 -37.3535 C 122.021 -37.3535 112.354 -48.1445 112.354 -62.4512 C 112.207 -75.7324 122.314 -86.9141 134.619 -86.9141 C 146.826 -86.9141 156.885 -75.8301 156.885 -62.4023 C 156.885 -48.1445 147.217 -37.3535 134.619 -37.3535 Z M 62.0605 -33.3984 C 74.4141 -33.3984 83.7891 -43.75 83.7891 -57.5195 C 83.7891 -70.459 73.9746 -81.2012 62.0605 -81.2012 C 50.0977 -81.2012 40.2832 -70.4102 40.4785 -57.5195 C 40.625 -43.75 49.7559 -33.3984 62.0605 -33.3984 Z M 62.0605 -36.0352 C 51.2695 -36.0352 43.0664 -45.2148 43.0664 -57.5195 C 43.0664 -68.9453 51.5625 -78.5645 62.0605 -78.5645 C 72.5098 -78.5645 81.1523 -68.9941 81.1523 -57.5195 C 81.1523 -45.2148 72.9004 -36.0352 62.0605 -36.0352 Z M 24.5605 21.582 L 81.9336 21.582 C 81.0059 21.1426 79.7852 20.2637 78.9551 19.043 L 24.8047 19.043 C 20.3125 19.043 18.7012 17.5293 18.7012 13.5742 C 18.7012 -5.95703 38.3301 -22.3145 61.9141 -22.3145 C 74.0234 -22.3145 84.8633 -18.6035 92.8223 -11.4258 C 93.5547 -12.0117 94.1895 -12.5 94.8242 -13.0859 C 85.9863 -20.8008 74.5605 -24.8535 61.9141 -24.8535 C 33.3984 -24.8535 16.0645 -4.29688 16.0645 13.5254 C 16.0645 19.043 18.8477 21.582 24.5605 21.582 Z M 91.3574 21.582 L 177.539 21.582 C 184.033 21.582 187.061 19.2871 187.061 14.0137 C 187.061 -2.19727 166.748 -24.5605 134.424 -24.5605 C 102.1 -24.5605 81.8359 -2.19727 81.8359 14.0137 C 81.8359 19.2871 84.8633 21.582 91.3574 21.582 Z M 91.6504 18.9941 C 86.084 18.9941 84.375 17.7246 84.375 14.1602 C 84.375 -1.36719 103.174 -21.9727 134.424 -21.9727 C 165.674 -21.9727 184.521 -1.36719 184.521 14.1602 C 184.521 17.7246 182.812 18.9941 177.246 18.9941 Z"/>
  </g>
  <g id="Thin-L" transform="matrix(1 0 0 1 754.445 1556)">
   <path d="M 134.961 -34.8145 C 149.219 -34.8145 160.205 -47.0215 160.205 -62.8418 C 160.205 -77.8809 148.877 -90.2344 134.961 -90.2344 C 120.996 -90.2344 109.57 -77.7832 109.717 -62.793 C 109.863 -47.0215 120.703 -34.8145 134.961 -34.8145 Z M 134.961 -38.6719 C 122.998 -38.6719 113.672 -49.1211 113.672 -62.793 C 113.525 -75.6836 123.193 -86.377 134.961 -86.377 C 146.68 -86.377 156.25 -75.7812 156.25 -62.8418 C 156.25 -49.1211 146.973 -38.6719 134.961 -38.6719 Z M 62.4023 -33.4473 C 74.8535 -33.4473 84.4727 -43.9941 84.4727 -57.9102 C 84.4727 -71.0449 74.5117 -81.8359 62.4023 -81.8359 C 50.2441 -81.8359 40.2832 -70.9473 40.4297 -57.9102 C 40.5762 -43.9941 50 -33.4473 62.4023 -33.4473 Z M 62.4023 -37.3047 C 52.1973 -37.3047 44.2871 -46.1426 44.2871 -57.9102 C 44.2871 -68.8477 52.3926 -78.0273 62.4023 -78.0273 C 72.4121 -78.0273 80.6152 -68.8965 80.6152 -57.9102 C 80.6152 -46.1426 72.6562 -37.3047 62.4023 -37.3047 Z M 25.3418 22.0703 L 81.2988 22.0703 C 79.9805 21.3867 78.5645 19.9707 77.9785 18.3105 L 25.2441 18.3105 C 21.3867 18.3105 19.9219 16.9434 19.9219 13.4766 C 19.9219 -5.37109 39.209 -21.3379 62.2559 -21.3379 C 73.6328 -21.3379 83.7891 -17.9688 91.4062 -11.4746 C 92.334 -12.4023 93.3105 -13.1836 94.3359 -14.0625 C 85.6445 -21.2891 74.5117 -25.1465 62.2559 -25.1465 C 34.1797 -25.1465 16.0645 -4.83398 16.0645 13.5742 C 16.0645 19.3359 19.1406 22.0703 25.3418 22.0703 Z M 92.3828 22.0703 L 177.246 22.0703 C 184.473 22.0703 187.891 19.5801 187.891 14.0137 C 187.891 -2.24609 167.48 -24.9023 134.814 -24.9023 C 102.148 -24.9023 81.7383 -2.24609 81.7383 14.0137 C 81.7383 19.5801 85.1562 22.0703 92.3828 22.0703 Z M 92.041 18.2129 C 87.207 18.2129 85.6934 17.0898 85.6934 13.916 C 85.6934 -0.634766 104.004 -21.0449 134.814 -21.0449 C 165.625 -21.0449 183.936 -0.634766 183.936 13.916 C 183.936 17.0898 182.422 18.2129 177.588 18.2129 Z"/>
  </g>
  <g id="Light-L" transform="matrix(1 0 0 1 1050.35 1556)">
   <path d="M 135.645 -34.9121 C 150.195 -34.9121 161.719 -47.6074 161.719 -63.623 C 161.719 -79.1016 150.049 -91.6016 135.645 -91.6016 C 121.24 -91.6016 109.473 -78.9551 109.57 -63.5254 C 109.668 -47.5586 121.094 -34.9121 135.645 -34.9121 Z M 135.645 -41.2109 C 124.854 -41.2109 116.162 -50.9277 116.162 -63.5254 C 116.064 -75.5859 124.902 -85.3027 135.645 -85.3027 C 146.387 -85.3027 155.127 -75.7324 155.127 -63.623 C 155.127 -50.9766 146.484 -41.2109 135.645 -41.2109 Z M 63.0859 -33.4961 C 75.7812 -33.4961 85.8398 -44.5312 85.8398 -58.6426 C 85.8398 -72.1191 75.6348 -83.1543 63.0859 -83.1543 C 50.5859 -83.1543 40.2832 -71.9727 40.3809 -58.5938 C 40.4785 -44.5312 50.4395 -33.4961 63.0859 -33.4961 Z M 63.0859 -39.7461 C 53.9551 -39.7461 46.6309 -47.9492 46.6309 -58.5938 C 46.6309 -68.6035 54.0039 -76.9043 63.0859 -76.9043 C 72.168 -76.9043 79.5898 -68.7012 79.5898 -58.6426 C 79.5898 -47.9492 72.2656 -39.7461 63.0859 -39.7461 Z M 26.8555 22.9492 L 80.0293 22.9492 C 77.9785 21.875 76.1719 19.4336 76.0254 16.7969 L 26.1719 16.7969 C 23.3887 16.7969 22.3145 15.8203 22.3145 13.3301 C 22.3145 -4.15039 40.9668 -19.5312 62.9883 -19.5312 C 72.8516 -19.5312 81.6895 -16.7969 88.6719 -11.5723 C 90.0391 -13.1348 91.6016 -14.5508 93.4082 -15.918 C 84.9609 -22.3145 74.4141 -25.6836 62.9883 -25.6836 C 35.5957 -25.6836 16.0645 -5.85938 16.0645 13.623 C 16.0645 19.9219 19.6777 22.9492 26.8555 22.9492 Z M 94.3359 22.9492 L 176.758 22.9492 C 185.4 22.9492 189.453 20.166 189.453 14.0625 C 189.453 -2.29492 168.896 -25.4883 135.547 -25.4883 C 102.246 -25.4883 81.6406 -2.29492 81.6406 14.0625 C 81.6406 20.166 85.6934 22.9492 94.3359 22.9492 Z M 92.8711 16.6504 C 89.4043 16.6504 88.2324 15.8203 88.2324 13.4766 C 88.2324 0.732422 105.566 -19.1895 135.547 -19.1895 C 165.527 -19.1895 182.861 0.732422 182.861 13.4766 C 182.861 15.8203 181.689 16.6504 178.223 16.6504 Z"/>
  </g>
  <g id="Regular-L" transform="matrix(1 0 0 1 1346.48 1556)">
   <path d="M 136.182 -34.9609 C 150.977 -34.9609 162.891 -48.0469 162.891 -64.209 C 162.891 -80.0293 150.977 -92.627 136.182 -92.627 C 121.436 -92.627 109.375 -79.8828 109.424 -64.1113 C 109.473 -47.998 121.387 -34.9609 136.182 -34.9609 Z M 136.182 -43.1641 C 126.27 -43.1641 118.066 -52.3438 118.066 -64.1113 C 118.018 -75.5371 126.221 -84.4727 136.182 -84.4727 C 146.143 -84.4727 154.248 -75.6348 154.248 -64.209 C 154.248 -52.4414 146.094 -43.1641 136.182 -43.1641 Z M 63.5742 -33.5449 C 76.4648 -33.5449 86.8164 -44.9707 86.8164 -59.1797 C 86.8164 -72.9492 76.4648 -84.1309 63.5742 -84.1309 C 50.8301 -84.1309 40.2832 -72.8027 40.332 -59.082 C 40.4297 -44.9219 50.7324 -33.5449 63.5742 -33.5449 Z M 63.5742 -41.6504 C 55.2734 -41.6504 48.3887 -49.3652 48.3887 -59.082 C 48.3887 -68.457 55.2734 -76.0742 63.5742 -76.0742 C 72.0215 -76.0742 78.8086 -68.5547 78.8086 -59.1797 C 78.8086 -49.3652 71.9238 -41.6504 63.5742 -41.6504 Z M 28.0273 23.6328 L 79.0527 23.6328 C 76.4648 22.2168 74.3652 18.9941 74.5605 15.6738 L 26.8555 15.6738 C 24.9512 15.6738 24.1211 14.9902 24.1211 13.1836 C 24.1211 -3.22266 42.334 -18.1152 63.5254 -18.1152 C 72.2656 -18.1152 80.127 -15.8691 86.5723 -11.6211 C 88.3301 -13.7207 90.332 -15.5762 92.6758 -17.334 C 84.4238 -23.0957 74.3652 -26.123 63.5254 -26.123 C 36.6699 -26.123 16.0645 -6.68945 16.0645 13.623 C 16.0645 20.3613 20.0684 23.6328 28.0273 23.6328 Z M 95.8496 23.6328 L 176.367 23.6328 C 186.084 23.6328 190.674 20.6543 190.674 14.0625 C 190.674 -2.34375 169.922 -25.9766 136.084 -25.9766 C 102.295 -25.9766 81.543 -2.34375 81.543 14.0625 C 81.543 20.6543 86.1328 23.6328 95.8496 23.6328 Z M 93.457 15.4785 C 91.0645 15.4785 90.1855 14.8926 90.1855 13.1348 C 90.1855 1.75781 106.738 -17.8223 136.084 -17.8223 C 165.479 -17.8223 182.031 1.75781 182.031 13.1348 C 182.031 14.8926 181.152 15.4785 178.76 15.4785 Z"/>
  </g>
  <g id="Medium-L" transform="matrix(1 0 0 1 1642.62 1556)">
   <path d="M 136.865 -34.7168 C 151.904 -34.7168 164.014 -47.9004 164.014 -64.2578 C 164.014 -80.2734 151.855 -93.0664 136.865 -93.0664 C 121.924 -93.0664 109.668 -80.127 109.766 -64.1602 C 109.814 -47.8516 121.826 -34.7168 136.865 -34.7168 Z M 63.9648 -33.3008 C 77.0508 -33.3008 87.5977 -44.8242 87.5977 -59.2285 C 87.5977 -73.1934 77.002 -84.5215 63.9648 -84.5215 C 50.9766 -84.5215 40.2832 -72.998 40.332 -59.1309 C 40.3809 -44.7754 50.8789 -33.3008 63.9648 -33.3008 Z M 136.865 -44.2383 C 127.539 -44.2383 119.727 -52.9297 119.727 -64.1602 C 119.678 -75 127.49 -83.5449 136.865 -83.5449 C 146.289 -83.5449 154.004 -75.1465 154.004 -64.2578 C 154.004 -53.0762 146.289 -44.2383 136.865 -44.2383 Z M 63.9648 -42.7246 C 56.2012 -42.7246 49.7559 -49.9512 49.7559 -59.1309 C 49.7559 -67.9199 56.2012 -75.0977 63.9648 -75.0977 C 71.7773 -75.0977 78.2227 -68.0664 78.2227 -59.2285 C 78.2227 -49.9512 71.7773 -42.7246 63.9648 -42.7246 Z M 28.8086 24.1699 L 79.0527 24.1699 C 76.0742 22.4121 73.9258 18.5059 74.1699 14.7949 L 28.2227 14.7949 C 26.5137 14.7949 25.8301 14.1602 25.8301 12.5977 C 25.8301 -2.73438 43.3105 -16.9922 63.916 -16.9922 C 71.7773 -16.9922 79.4434 -14.9414 85.3516 -11.2305 C 87.207 -13.8184 89.5508 -16.1133 92.4805 -18.0664 C 84.375 -23.4863 74.2188 -26.3672 63.916 -26.3672 C 37.0117 -26.3672 16.0645 -7.03125 16.0645 13.3789 C 16.0645 20.5566 20.3125 24.1699 28.8086 24.1699 Z M 96.9238 24.1699 L 176.709 24.1699 C 186.865 24.1699 191.748 20.8984 191.748 13.916 C 191.748 -3.125 170.459 -26.2207 136.816 -26.2207 C 103.223 -26.2207 81.8848 -3.125 81.8848 13.916 C 81.8848 20.8984 86.7676 24.1699 96.9238 24.1699 Z M 95.166 14.5996 C 93.0664 14.5996 92.2852 14.0137 92.2852 12.5 C 92.2852 1.9043 108.398 -16.6992 136.816 -16.6992 C 165.234 -16.6992 181.348 1.9043 181.348 12.5 C 181.348 14.0137 180.615 14.5996 178.467 14.5996 Z"/>
  </g>
  <g id="Semibold-L" transform="matrix(1 0 0 1 1938.92 1556)">
   <path d="M 137.402 -34.4727 C 152.588 -34.4727 164.844 -47.8027 164.844 -64.3066 C 164.844 -80.4688 152.539 -93.457 137.402 -93.457 C 122.314 -93.457 109.912 -80.3223 110.01 -64.209 C 110.059 -47.7539 122.217 -34.4727 137.402 -34.4727 Z M 64.2578 -33.0566 C 77.4902 -33.0566 88.1348 -44.7266 88.1348 -59.2773 C 88.1348 -73.3887 77.4414 -84.8633 64.2578 -84.8633 C 51.123 -84.8633 40.2832 -73.1934 40.332 -59.1797 C 40.3809 -44.6777 51.0254 -33.0566 64.2578 -33.0566 Z M 137.402 -45.1172 C 128.467 -45.1172 121.045 -53.418 121.045 -64.2578 C 120.947 -74.6094 128.467 -82.8125 137.402 -82.8125 C 146.387 -82.8125 153.809 -74.7559 153.809 -64.3066 C 153.809 -53.5156 146.387 -45.1172 137.402 -45.1172 Z M 64.2578 -43.5547 C 56.8848 -43.5547 50.8301 -50.4395 50.8301 -59.1797 C 50.7812 -67.5293 56.9336 -74.3652 64.2578 -74.3652 C 71.6309 -74.3652 77.7344 -67.6758 77.7344 -59.2773 C 77.7344 -50.4395 71.6309 -43.5547 64.2578 -43.5547 Z M 29.3945 24.5605 L 79.1016 24.5605 C 75.7324 22.6074 73.584 18.1641 73.877 14.1602 L 29.248 14.1602 C 27.7344 14.1602 27.1484 13.5254 27.1484 12.1582 C 27.1484 -2.39258 44.043 -16.1133 64.209 -16.1133 C 71.4355 -16.1133 78.9062 -14.209 84.4238 -10.9375 C 86.377 -13.916 88.916 -16.4551 92.2852 -18.6523 C 84.2773 -23.7305 74.0723 -26.5137 64.209 -26.5137 C 37.2559 -26.5137 16.0645 -7.32422 16.0645 13.2324 C 16.0645 20.7031 20.5078 24.5605 29.3945 24.5605 Z M 97.8027 24.5605 L 176.953 24.5605 C 187.5 24.5605 192.627 21.1426 192.627 13.7695 C 192.627 -3.71094 170.801 -26.416 137.354 -26.416 C 103.906 -26.416 82.1289 -3.71094 82.1289 13.7695 C 82.1289 21.1426 87.2559 24.5605 97.8027 24.5605 Z M 96.4355 13.916 C 94.5801 13.916 93.8965 13.3789 93.8965 12.0117 C 93.8965 2.00195 109.668 -15.8203 137.354 -15.8203 C 165.039 -15.8203 180.811 2.00195 180.811 12.0117 C 180.811 13.3789 180.176 13.916 178.271 13.916 Z"/>
  </g>
  <g id="Bold-L" transform="matrix(1 0 0 1 2235.07 1556)">
   <path d="M 138.135 -34.1797 C 153.564 -34.1797 165.918 -47.6562 165.918 -64.3555 C 165.918 -80.7129 153.467 -93.8965 138.135 -93.8965 C 122.852 -93.8965 110.254 -80.5664 110.303 -64.3066 C 110.352 -47.6074 122.705 -34.1797 138.135 -34.1797 Z M 64.5996 -32.8125 C 78.0762 -32.8125 88.916 -44.5801 88.916 -59.3262 C 88.916 -73.584 77.9785 -85.2539 64.5996 -85.2539 C 51.2695 -85.2539 40.2832 -73.4375 40.332 -59.2773 C 40.3809 -44.5312 51.1719 -32.8125 64.5996 -32.8125 Z M 138.135 -46.2402 C 129.736 -46.2402 122.705 -54.0527 122.705 -64.3066 C 122.656 -74.1211 129.736 -81.8359 138.135 -81.8359 C 146.533 -81.8359 153.516 -74.2188 153.516 -64.3555 C 153.516 -54.1504 146.582 -46.2402 138.135 -46.2402 Z M 64.5996 -44.6289 C 57.8613 -44.6289 52.1973 -51.0254 52.1973 -59.2773 C 52.1484 -67.041 57.8613 -73.4375 64.5996 -73.4375 C 71.3867 -73.4375 77.0996 -67.1387 77.0996 -59.3262 C 77.0996 -51.0254 71.4355 -44.6289 64.5996 -44.6289 Z M 30.1758 25.0977 L 79.1016 25.0977 C 75.3418 22.8516 73.0957 17.6758 73.4863 13.2812 L 30.6641 13.2812 C 29.3457 13.2812 28.8574 12.6953 28.8574 11.5723 C 28.8574 -1.9043 45.0195 -14.9902 64.5996 -14.9902 C 70.9961 -14.9902 78.2715 -13.2324 83.1543 -10.498 C 85.3027 -14.0137 88.1348 -16.9434 92.0898 -19.4336 C 84.2285 -24.1211 73.9258 -26.7578 64.5996 -26.7578 C 37.5488 -26.7578 16.0645 -7.71484 16.0645 12.9883 C 16.0645 20.8984 20.752 25.0977 30.1758 25.0977 Z M 98.9258 25.0977 L 177.246 25.0977 C 188.33 25.0977 193.701 21.3867 193.701 13.5742 C 193.701 -4.49219 171.338 -26.709 138.086 -26.709 C 104.834 -26.709 82.4707 -4.49219 82.4707 13.5742 C 82.4707 21.3867 87.8906 25.0977 98.9258 25.0977 Z M 98.1445 13.0371 C 96.582 13.0371 96.0449 12.5 96.0449 11.3281 C 96.0449 2.14844 111.377 -14.6484 138.086 -14.6484 C 164.844 -14.6484 180.176 2.14844 180.176 11.3281 C 180.176 12.5 179.59 13.0371 178.027 13.0371 Z"/>
  </g>
  <g id="Heavy-L" transform="matrix(1 0 0 1 2530.98 1556)">
   <path d="M 139.16 -33.7891 C 154.932 -33.7891 167.529 -47.4609 167.529 -64.4531 C 167.529 -81.0547 154.785 -94.5312 139.16 -94.5312 C 123.535 -94.5312 110.742 -80.957 110.791 -64.4043 C 110.84 -47.4121 123.389 -33.7891 139.16 -33.7891 Z M 65.1367 -32.373 C 78.9551 -32.373 89.9902 -44.4336 89.9902 -59.4238 C 89.9902 -73.9258 78.8086 -85.8887 65.1367 -85.8887 C 51.5137 -85.8887 40.2344 -73.7793 40.2832 -59.375 C 40.3809 -44.3359 51.416 -32.373 65.1367 -32.373 Z M 139.16 -47.9004 C 131.543 -47.9004 125.146 -54.9805 125.146 -64.4531 C 125.098 -73.3887 131.592 -80.4688 139.16 -80.4688 C 146.777 -80.4688 153.125 -73.4375 153.125 -64.4531 C 153.125 -55.0781 146.826 -47.9004 139.16 -47.9004 Z M 65.1367 -46.2402 C 59.2285 -46.2402 54.1504 -51.9531 54.1504 -59.375 C 54.1016 -66.3086 59.2773 -72.0215 65.1367 -72.0215 C 71.0938 -72.0215 76.1719 -66.3574 76.1719 -59.4238 C 76.1719 -51.9531 71.1914 -46.2402 65.1367 -46.2402 Z M 31.2988 25.8789 L 79.1016 25.8789 C 74.7559 23.1934 72.4609 16.9922 72.9492 12.0117 L 32.666 12.0117 C 31.6895 12.0117 31.3477 11.4746 31.3477 10.6934 C 31.3477 -1.2207 46.4355 -13.3301 65.1367 -13.3301 C 70.3125 -13.3301 77.2949 -11.8652 81.3477 -9.96094 C 83.6914 -14.1602 87.0117 -17.6758 91.748 -20.6055 C 84.1309 -24.6582 73.7305 -27.0996 65.1367 -27.0996 C 37.9883 -27.0996 16.0645 -8.25195 16.0645 12.5977 C 16.0645 21.1914 21.1426 25.8789 31.2988 25.8789 Z M 100.537 25.8301 L 177.734 25.8301 C 189.502 25.8301 195.312 21.7773 195.312 13.2812 C 195.312 -5.66406 172.07 -27.0996 139.16 -27.0996 C 106.201 -27.0996 82.959 -5.66406 82.959 13.2812 C 82.959 21.7773 88.7695 25.8301 100.537 25.8301 Z M 100.635 11.7188 C 99.4629 11.7188 99.1211 11.2305 99.1211 10.4004 C 99.1211 2.34375 113.77 -12.9883 139.16 -12.9883 C 164.502 -12.9883 179.15 2.34375 179.15 10.4004 C 179.15 11.2305 178.809 11.7188 177.637 11.7188 Z"/>
  </g>
  <g id="Black-L" transform="matrix(1 0 0 1 2826.98 1556)">
   <path d="M 140.088 -33.3984 C 156.152 -33.3984 168.945 -47.2656 168.945 -64.5508 C 168.945 -81.3477 155.957 -95.1172 140.088 -95.1172 C 124.219 -95.1172 111.133 -81.2988 111.182 -64.502 C 111.23 -47.2168 123.975 -33.3984 140.088 -33.3984 Z M 65.625 -32.0312 C 79.6875 -32.0312 91.0156 -44.2383 91.0156 -59.4727 C 91.0156 -74.2188 79.541 -86.4258 65.625 -86.4258 C 51.7578 -86.4258 40.2344 -74.1211 40.2832 -59.4238 C 40.332 -44.1406 51.6113 -32.0312 65.625 -32.0312 Z M 140.088 -49.3652 C 133.154 -49.3652 127.344 -55.8105 127.344 -64.5508 C 127.295 -72.7051 133.301 -79.1992 140.088 -79.1992 C 146.924 -79.1992 152.783 -72.7539 152.783 -64.5508 C 152.783 -55.9082 147.07 -49.3652 140.088 -49.3652 Z M 65.625 -47.6562 C 60.4004 -47.6562 55.957 -52.7344 55.957 -59.4238 C 55.9082 -65.6738 60.498 -70.752 65.625 -70.752 C 70.8008 -70.752 75.3418 -65.6738 75.3418 -59.4727 C 75.3418 -52.7344 70.9473 -47.6562 65.625 -47.6562 Z M 101.953 26.5137 L 178.174 26.5137 C 190.527 26.5137 196.777 22.1191 196.777 13.0371 C 196.777 -6.64062 172.754 -27.4414 140.088 -27.4414 C 107.422 -27.4414 83.3496 -6.64062 83.3496 13.0371 C 83.3496 22.1191 89.5996 26.5137 101.953 26.5137 Z M 32.2754 26.5625 L 79.1504 26.5625 C 74.2676 23.4863 71.875 16.3574 72.4609 10.8887 L 34.4727 10.8887 C 33.7402 10.8887 33.5449 10.4004 33.5449 9.96094 C 33.5449 -0.585938 47.7051 -11.8164 65.625 -11.8164 C 69.7266 -11.8164 76.416 -10.6445 79.7363 -9.42383 C 82.2754 -14.2578 85.9863 -18.3105 91.4551 -21.582 C 84.0332 -25.0977 73.5352 -27.3926 65.625 -27.3926 C 38.4277 -27.3926 16.0645 -8.78906 16.0645 12.3047 C 16.0645 21.4355 21.4355 26.5625 32.2754 26.5625 Z M 102.832 10.5469 C 102.1 10.5469 101.855 10.1074 101.855 9.52148 C 101.855 2.49023 115.967 -11.5234 140.088 -11.5234 C 164.16 -11.5234 178.271 2.49023 178.271 9.52148 C 178.271 10.1074 178.076 10.5469 177.295 10.5469 Z"/>
  </g>
 </g>
</svg>
