<?xml version="1.0" encoding="UTF-8"?>
<!--Generator: Apple Native CoreSVG 123-->
<!DOCTYPE svg
PUBLIC "-//W3C//DTD SVG 1.1//EN"
       "http://www.w3.org/Graphics/SVG/1.1/DTD/svg11.dtd">
<svg version="1.1" xmlns="http://www.w3.org/2000/svg" xmlns:xlink="http://www.w3.org/1999/xlink" width="3300" height="2200">
 <!--glyph: "uni100264.medium", point size: 100.000000, font version: "Version 15.0d4e20", template writer version: "2"-->
 <g id="Notes">
  <rect height="2200" id="artboard" style="fill:white;opacity:1" width="3300" x="0" y="0"/>
  <line id="" style="fill:none;stroke:black;opacity:1;stroke-width:0.5;" x1="263" x2="3036" y1="292" y2="292"/>
  <text style="stroke:none;fill:black;font-family:-apple-system,&quot;SF Pro Display&quot;,&quot;SF Pro Text&quot;,Helvetica,sans-serif;font-weight:bold;" transform="matrix(1 0 0 1 263 322)">Weight/Scale Variations</text>
  <text style="stroke:none;fill:black;font-family:-apple-system,&quot;SF Pro Display&quot;,&quot;SF Pro Text&quot;,Helvetica,sans-serif;text-anchor:middle;" transform="matrix(1 0 0 1 559.711 322)">Ultralight</text>
  <text style="stroke:none;fill:black;font-family:-apple-system,&quot;SF Pro Display&quot;,&quot;SF Pro Text&quot;,Helvetica,sans-serif;text-anchor:middle;" transform="matrix(1 0 0 1 856.422 322)">Thin</text>
  <text style="stroke:none;fill:black;font-family:-apple-system,&quot;SF Pro Display&quot;,&quot;SF Pro Text&quot;,Helvetica,sans-serif;text-anchor:middle;" transform="matrix(1 0 0 1 1153.13 322)">Light</text>
  <text style="stroke:none;fill:black;font-family:-apple-system,&quot;SF Pro Display&quot;,&quot;SF Pro Text&quot;,Helvetica,sans-serif;text-anchor:middle;" transform="matrix(1 0 0 1 1449.84 322)">Regular</text>
  <text style="stroke:none;fill:black;font-family:-apple-system,&quot;SF Pro Display&quot;,&quot;SF Pro Text&quot;,Helvetica,sans-serif;text-anchor:middle;" transform="matrix(1 0 0 1 1746.56 322)">Medium</text>
  <text style="stroke:none;fill:black;font-family:-apple-system,&quot;SF Pro Display&quot;,&quot;SF Pro Text&quot;,Helvetica,sans-serif;text-anchor:middle;" transform="matrix(1 0 0 1 2043.27 322)">Semibold</text>
  <text style="stroke:none;fill:black;font-family:-apple-system,&quot;SF Pro Display&quot;,&quot;SF Pro Text&quot;,Helvetica,sans-serif;text-anchor:middle;" transform="matrix(1 0 0 1 2339.98 322)">Bold</text>
  <text style="stroke:none;fill:black;font-family:-apple-system,&quot;SF Pro Display&quot;,&quot;SF Pro Text&quot;,Helvetica,sans-serif;text-anchor:middle;" transform="matrix(1 0 0 1 2636.69 322)">Heavy</text>
  <text style="stroke:none;fill:black;font-family:-apple-system,&quot;SF Pro Display&quot;,&quot;SF Pro Text&quot;,Helvetica,sans-serif;text-anchor:middle;" transform="matrix(1 0 0 1 2933.4 322)">Black</text>
  <line id="" style="fill:none;stroke:black;opacity:1;stroke-width:0.5;" x1="263" x2="3036" y1="1903" y2="1903"/>
  <g id="" transform="matrix(1 0 0 1 263 1933)">
   <path d="M 9.24805 0.830078 C 13.5547 0.830078 17.1387 -2.74414 17.1387 -7.05078 C 17.1387 -11.3574 13.5449 -14.9316 9.23828 -14.9316 C 4.94141 -14.9316 1.36719 -11.3574 1.36719 -7.05078 C 1.36719 -2.74414 4.95117 0.830078 9.24805 0.830078 Z M 9.24805 -0.654297 C 5.70312 -0.654297 2.87109 -3.49609 2.87109 -7.05078 C 2.87109 -10.6055 5.69336 -13.4473 9.23828 -13.4473 C 12.793 -13.4473 15.6348 -10.6055 15.6445 -7.05078 C 15.6543 -3.49609 12.8027 -0.654297 9.24805 -0.654297 Z M 9.22852 -3.42773 C 9.69727 -3.42773 9.9707 -3.74023 9.9707 -4.25781 L 9.9707 -6.31836 L 12.1973 -6.31836 C 12.6953 -6.31836 13.0371 -6.57227 13.0371 -7.04102 C 13.0371 -7.51953 12.7148 -7.7832 12.1973 -7.7832 L 9.9707 -7.7832 L 9.9707 -10.0098 C 9.9707 -10.5273 9.69727 -10.8496 9.22852 -10.8496 C 8.75977 -10.8496 8.50586 -10.5078 8.50586 -10.0098 L 8.50586 -7.7832 L 6.29883 -7.7832 C 5.78125 -7.7832 5.44922 -7.51953 5.44922 -7.04102 C 5.44922 -6.57227 5.80078 -6.31836 6.29883 -6.31836 L 8.50586 -6.31836 L 8.50586 -4.25781 C 8.50586 -3.75977 8.75977 -3.42773 9.22852 -3.42773 Z"/>
  </g>
  <g id="" transform="matrix(1 0 0 1 281.506 1933)">
   <path d="M 11.709 2.91016 C 17.1484 2.91016 21.6699 -1.60156 21.6699 -7.05078 C 21.6699 -12.4902 17.1387 -17.0117 11.6992 -17.0117 C 6.25 -17.0117 1.74805 -12.4902 1.74805 -7.05078 C 1.74805 -1.60156 6.25977 2.91016 11.709 2.91016 Z M 11.709 1.25 C 7.09961 1.25 3.41797 -2.44141 3.41797 -7.05078 C 3.41797 -11.6504 7.08984 -15.3516 11.6992 -15.3516 C 16.2988 -15.3516 20 -11.6504 20.0098 -7.05078 C 20.0195 -2.44141 16.3086 1.25 11.709 1.25 Z M 11.6797 -2.41211 C 12.207 -2.41211 12.5195 -2.77344 12.5195 -3.33984 L 12.5195 -6.23047 L 15.5762 -6.23047 C 16.123 -6.23047 16.5039 -6.51367 16.5039 -7.03125 C 16.5039 -7.55859 16.1426 -7.86133 15.5762 -7.86133 L 12.5195 -7.86133 L 12.5195 -10.9277 C 12.5195 -11.5039 12.207 -11.8555 11.6797 -11.8555 C 11.1621 -11.8555 10.8789 -11.4844 10.8789 -10.9277 L 10.8789 -7.86133 L 7.83203 -7.86133 C 7.25586 -7.86133 6.89453 -7.55859 6.89453 -7.03125 C 6.89453 -6.51367 7.28516 -6.23047 7.83203 -6.23047 L 10.8789 -6.23047 L 10.8789 -3.33984 C 10.8789 -2.79297 11.1621 -2.41211 11.6797 -2.41211 Z"/>
  </g>
  <g id="" transform="matrix(1 0 0 1 304.914 1933)">
   <path d="M 14.9707 5.67383 C 21.9336 5.67383 27.6855 -0.078125 27.6855 -7.04102 C 27.6855 -14.0039 21.9238 -19.7559 14.9609 -19.7559 C 7.99805 -19.7559 2.25586 -14.0039 2.25586 -7.04102 C 2.25586 -0.078125 8.00781 5.67383 14.9707 5.67383 Z M 14.9707 3.85742 C 8.92578 3.85742 4.08203 -1.00586 4.08203 -7.04102 C 4.08203 -13.0762 8.91602 -17.9395 14.9609 -17.9395 C 20.9961 -17.9395 25.8594 -13.0762 25.8691 -7.04102 C 25.8789 -1.00586 21.0059 3.85742 14.9707 3.85742 Z M 14.9414 -1.06445 C 15.5176 -1.06445 15.8594 -1.45508 15.8594 -2.06055 L 15.8594 -6.13281 L 20.0977 -6.13281 C 20.6934 -6.13281 21.1133 -6.46484 21.1133 -7.02148 C 21.1133 -7.59766 20.7227 -7.93945 20.0977 -7.93945 L 15.8594 -7.93945 L 15.8594 -12.1875 C 15.8594 -12.8027 15.5176 -13.1934 14.9414 -13.1934 C 14.3848 -13.1934 14.0625 -12.7832 14.0625 -12.1875 L 14.0625 -7.93945 L 9.82422 -7.93945 C 9.20898 -7.93945 8.80859 -7.59766 8.80859 -7.02148 C 8.80859 -6.46484 9.23828 -6.13281 9.82422 -6.13281 L 14.0625 -6.13281 L 14.0625 -2.06055 C 14.0625 -1.47461 14.3848 -1.06445 14.9414 -1.06445 Z"/>
  </g>
  <text style="stroke:none;fill:black;font-family:-apple-system,&quot;SF Pro Display&quot;,&quot;SF Pro Text&quot;,Helvetica,sans-serif;font-weight:bold;" transform="matrix(1 0 0 1 263 1953)">Design Variations</text>
  <text style="stroke:none;fill:black;font-family:-apple-system,&quot;SF Pro Display&quot;,&quot;SF Pro Text&quot;,Helvetica,sans-serif;" transform="matrix(1 0 0 1 263 1971)">Symbols are supported in up to nine weights and three scales.</text>
  <text style="stroke:none;fill:black;font-family:-apple-system,&quot;SF Pro Display&quot;,&quot;SF Pro Text&quot;,Helvetica,sans-serif;" transform="matrix(1 0 0 1 263 1989)">For optimal layout with text and other symbols, vertically align</text>
  <text style="stroke:none;fill:black;font-family:-apple-system,&quot;SF Pro Display&quot;,&quot;SF Pro Text&quot;,Helvetica,sans-serif;" transform="matrix(1 0 0 1 263 2007)">symbols with the adjacent text.</text>
  <rect height="14" id="" style="fill:#00AEEF;stroke:none;opacity:0.4;" width="3" x="776" y="1919"/>
  <g id="" transform="matrix(1 0 0 1 779 1933)">
   <path d="M 10.5273 0 L 12.373 0 L 7.17773 -14.0918 L 5.43945 -14.0918 L 0.244141 0 L 2.08984 0 L 3.50586 -4.0332 L 9.11133 -4.0332 Z M 6.2793 -11.9531 L 6.33789 -11.9531 L 8.59375 -5.52734 L 4.02344 -5.52734 Z"/>
  </g>
  <rect height="14" id="" style="fill:#00AEEF;stroke:none;opacity:0.4;" width="3" x="791.617" y="1919"/>
  <text style="stroke:none;fill:black;font-family:-apple-system,&quot;SF Pro Display&quot;,&quot;SF Pro Text&quot;,Helvetica,sans-serif;font-weight:bold;" transform="matrix(1 0 0 1 776 1953)">Side Bearings</text>
  <text style="stroke:none;fill:black;font-family:-apple-system,&quot;SF Pro Display&quot;,&quot;SF Pro Text&quot;,Helvetica,sans-serif;" transform="matrix(1 0 0 1 776 1971)">Horizontal padding on the left and right side of each symbol</text>
  <text style="stroke:none;fill:black;font-family:-apple-system,&quot;SF Pro Display&quot;,&quot;SF Pro Text&quot;,Helvetica,sans-serif;" transform="matrix(1 0 0 1 776 1989)">can be adjusted by modifying the width of the blue rectangles.</text>
  <text style="stroke:none;fill:black;font-family:-apple-system,&quot;SF Pro Display&quot;,&quot;SF Pro Text&quot;,Helvetica,sans-serif;" transform="matrix(1 0 0 1 776 2007)">Modifications are automatically applied proportionally to all</text>
  <text style="stroke:none;fill:black;font-family:-apple-system,&quot;SF Pro Display&quot;,&quot;SF Pro Text&quot;,Helvetica,sans-serif;" transform="matrix(1 0 0 1 776 2025)">scales and weights.</text>
  <g id="" transform="matrix(1 0 0 1 1289 1933)">
   <path d="M 2.96875 2.35352 L 3.80859 3.19336 C 4.84375 4.22852 6.12305 4.15039 7.19727 2.97852 L 16.1621 -6.82617 C 16.5527 -6.74805 16.9629 -6.8457 17.4902 -7.02148 C 18.1738 -7.25586 18.2715 -7.25586 18.3887 -7.13867 C 18.5352 -7.01172 18.4863 -6.89453 18.2422 -6.25 C 17.8809 -5.33203 17.8125 -4.79492 18.5547 -4.02344 L 19.4238 -3.13477 C 20.2734 -2.24609 21.3281 -2.26562 22.2168 -3.14453 L 25.0586 -5.97656 C 25.9473 -6.86523 25.957 -7.92969 25.0781 -8.7793 L 24.1797 -9.64844 C 23.4082 -10.4004 22.8711 -10.3516 21.9629 -9.98047 C 21.3184 -9.72656 21.2012 -9.6875 21.0645 -9.81445 C 20.9375 -9.93164 20.9473 -10.0391 21.1816 -10.7129 C 21.5332 -11.6895 21.5723 -12.2852 20.752 -13.0957 L 19.3359 -14.5117 C 15.1953 -18.6133 11.2305 -18.7402 7.65625 -15.4395 C 7.08008 -14.9023 6.99219 -14.1504 7.53906 -13.6133 L 7.79297 -13.3594 C 8.22266 -12.9297 8.86719 -12.8418 9.41406 -13.1152 C 11.0645 -13.9453 12.2559 -14.0234 13.457 -12.9785 L 13.0273 -11.416 C 12.8516 -10.8008 12.793 -10.3418 12.9199 -9.93164 L 3.18359 -1.04492 C 2.02148 0.0292969 1.93359 1.32812 2.96875 2.35352 Z M 8.96484 -14.4922 C 8.89648 -14.5703 8.86719 -14.6582 8.99414 -14.7559 C 11.709 -17.2852 15.0391 -16.8457 18.3496 -13.5254 L 19.6973 -12.168 C 20.0879 -11.7773 20.0977 -11.582 19.8828 -10.8691 C 19.6582 -10.127 19.502 -9.53125 20.1465 -8.88672 C 20.8105 -8.22266 21.2891 -8.41797 22.207 -8.63281 C 22.9004 -8.79883 23.0664 -8.79883 23.4473 -8.41797 L 24.0918 -7.77344 C 24.4043 -7.48047 24.4141 -7.32422 24.0723 -6.97266 L 21.2207 -4.13086 C 20.8887 -3.79883 20.7227 -3.79883 20.4297 -4.10156 L 19.7852 -4.75586 C 19.4141 -5.13672 19.4141 -5.30273 19.5801 -6.01562 C 19.7852 -6.88477 19.9805 -7.38281 19.3262 -8.04688 C 18.6719 -8.7207 18.0762 -8.57422 17.3438 -8.33008 C 16.5625 -8.06641 16.3281 -8.06641 15.8984 -8.49609 L 14.6094 -9.78516 C 14.1699 -10.2246 14.1309 -10.4395 14.2676 -10.9082 L 15.0293 -13.3984 C 13.3887 -15.2832 11.4941 -15.5566 9.20898 -14.4434 C 9.11133 -14.3945 9.04297 -14.4141 8.96484 -14.4922 Z M 3.96484 1.36719 C 3.52539 0.927734 3.54492 0.537109 4.14062 -0.00976562 L 13.7402 -8.81836 L 15 -7.55859 L 6.17188 2.02148 C 5.625 2.60742 5.24414 2.64648 4.79492 2.19727 Z"/>
  </g>
  <text style="stroke:none;fill:black;font-family:-apple-system,&quot;SF Pro Display&quot;,&quot;SF Pro Text&quot;,Helvetica,sans-serif;font-weight:bold;" transform="matrix(1 0 0 1 1289 1953)">Exporting</text>
  <text style="stroke:none;fill:black;font-family:-apple-system,&quot;SF Pro Display&quot;,&quot;SF Pro Text&quot;,Helvetica,sans-serif;" transform="matrix(1 0 0 1 1289 1971)">Symbols should be outlined when exporting to ensure the</text>
  <text style="stroke:none;fill:black;font-family:-apple-system,&quot;SF Pro Display&quot;,&quot;SF Pro Text&quot;,Helvetica,sans-serif;" transform="matrix(1 0 0 1 1289 1989)">design is preserved when submitting to Xcode.</text>
  <text id="template-version" style="stroke:none;fill:black;font-family:-apple-system,&quot;SF Pro Display&quot;,&quot;SF Pro Text&quot;,Helvetica,sans-serif;text-anchor:end;" transform="matrix(1 0 0 1 3036 1933)">Template v.0.1</text>
  <text style="stroke:none;fill:black;font-family:-apple-system,&quot;SF Pro Display&quot;,&quot;SF Pro Text&quot;,Helvetica,sans-serif;text-anchor:end;" transform="matrix(1 0 0 1 3036 1951)">Generated from personalhotspot</text>
  <text style="stroke:none;fill:black;font-family:-apple-system,&quot;SF Pro Display&quot;,&quot;SF Pro Text&quot;,Helvetica,sans-serif;text-anchor:end;" transform="matrix(1 0 0 1 3036 1969)">Typeset at 100 points</text>
  <text style="stroke:none;fill:black;font-family:-apple-system,&quot;SF Pro Display&quot;,&quot;SF Pro Text&quot;,Helvetica,sans-serif;" transform="matrix(1 0 0 1 263 726)">Small</text>
  <text style="stroke:none;fill:black;font-family:-apple-system,&quot;SF Pro Display&quot;,&quot;SF Pro Text&quot;,Helvetica,sans-serif;" transform="matrix(1 0 0 1 263 1156)">Medium</text>
  <text style="stroke:none;fill:black;font-family:-apple-system,&quot;SF Pro Display&quot;,&quot;SF Pro Text&quot;,Helvetica,sans-serif;" transform="matrix(1 0 0 1 263 1586)">Large</text>
 </g>
 <g id="Guides">
  <g id="H-reference" style="fill:#27AAE1;stroke:none;" transform="matrix(1 0 0 1 339 696)">
   <path d="M 54.9316 0 L 57.666 0 L 30.5664 -70.459 L 28.0762 -70.459 L 0.976562 0 L 3.66211 0 L 12.9395 -24.4629 L 45.7031 -24.4629 Z M 29.1992 -67.0898 L 29.4434 -67.0898 L 44.8242 -26.709 L 13.8184 -26.709 Z"/>
  </g>
  <line id="Baseline-S" style="fill:none;stroke:#27AAE1;opacity:1;stroke-width:0.577;" x1="263" x2="3036" y1="696" y2="696"/>
  <line id="Capline-S" style="fill:none;stroke:#27AAE1;opacity:1;stroke-width:0.577;" x1="263" x2="3036" y1="625.541" y2="625.541"/>
  <g id="H-reference" style="fill:#27AAE1;stroke:none;" transform="matrix(1 0 0 1 339 1126)">
   <path d="M 54.9316 0 L 57.666 0 L 30.5664 -70.459 L 28.0762 -70.459 L 0.976562 0 L 3.66211 0 L 12.9395 -24.4629 L 45.7031 -24.4629 Z M 29.1992 -67.0898 L 29.4434 -67.0898 L 44.8242 -26.709 L 13.8184 -26.709 Z"/>
  </g>
  <line id="Baseline-M" style="fill:none;stroke:#27AAE1;opacity:1;stroke-width:0.577;" x1="263" x2="3036" y1="1126" y2="1126"/>
  <line id="Capline-M" style="fill:none;stroke:#27AAE1;opacity:1;stroke-width:0.577;" x1="263" x2="3036" y1="1055.54" y2="1055.54"/>
  <g id="H-reference" style="fill:#27AAE1;stroke:none;" transform="matrix(1 0 0 1 339 1556)">
   <path d="M 54.9316 0 L 57.666 0 L 30.5664 -70.459 L 28.0762 -70.459 L 0.976562 0 L 3.66211 0 L 12.9395 -24.4629 L 45.7031 -24.4629 Z M 29.1992 -67.0898 L 29.4434 -67.0898 L 44.8242 -26.709 L 13.8184 -26.709 Z"/>
  </g>
  <line id="Baseline-L" style="fill:none;stroke:#27AAE1;opacity:1;stroke-width:0.577;" x1="263" x2="3036" y1="1556" y2="1556"/>
  <line id="Capline-L" style="fill:none;stroke:#27AAE1;opacity:1;stroke-width:0.577;" x1="263" x2="3036" y1="1485.54" y2="1485.54"/>
  <rect height="119.336" id="left-margin" style="fill:#00AEEF;stroke:none;opacity:0.4;" width="8.74023" x="1371.99" y="1030.79"/>
  <rect height="119.336" id="right-margin" style="fill:#00AEEF;stroke:none;opacity:0.4;" width="8.74023" x="1518.96" y="1030.79"/>
 </g>
 <g id="Symbols">
  <g id="Ultralight-S" transform="matrix(1 0 0 1 500.702 696)">
   <path d="M 25.2441 -25.8789 L 34.8145 -25.8789 C 34.8145 -26.6602 34.8145 -27.3926 34.9121 -28.125 L 25.6836 -28.125 C 16.0156 -28.125 9.08203 -34.8633 9.08203 -44.3359 C 9.08203 -53.7598 16.0645 -60.5469 25.6836 -60.5469 L 59.9121 -60.5469 C 69.4824 -60.5469 76.5137 -53.7598 76.5137 -44.3359 C 76.5137 -34.8633 69.5312 -28.125 59.9121 -28.125 L 46.1914 -28.125 C 45.9961 -27.4902 45.9961 -26.5137 46.0449 -25.8789 L 60.3516 -25.8789 C 70.8984 -25.8789 78.7109 -33.4473 78.7109 -44.3359 C 78.7109 -55.2246 70.8984 -62.793 60.3516 -62.793 L 25.2441 -62.793 C 14.6484 -62.793 6.83594 -55.2246 6.83594 -44.3359 C 6.83594 -33.4473 14.6484 -25.8789 25.2441 -25.8789 Z M 57.7148 -7.56836 L 92.8223 -7.56836 C 103.369 -7.56836 111.182 -15.1367 111.182 -26.0254 C 111.182 -36.9141 103.369 -44.4824 92.8223 -44.4824 L 83.2031 -44.4824 C 83.252 -43.7012 83.252 -42.9688 83.1055 -42.2363 L 92.3828 -42.2363 C 102.002 -42.2363 108.984 -35.498 108.984 -26.0254 C 108.984 -16.6016 101.953 -9.81445 92.3828 -9.81445 L 58.1543 -9.81445 C 48.5352 -9.81445 41.5527 -16.6016 41.5527 -26.0254 C 41.5527 -35.498 48.4863 -42.2363 58.1543 -42.2363 L 71.8262 -42.2363 C 72.0215 -42.8711 72.0703 -43.8477 72.0215 -44.4824 L 57.7148 -44.4824 C 47.1191 -44.4824 39.3066 -36.9141 39.3066 -26.0254 C 39.3066 -15.1367 47.1191 -7.56836 57.7148 -7.56836 Z"/>
  </g>
  <g id="Thin-S" transform="matrix(1 0 0 1 796.852 696)">
   <path d="M 25.7812 -25.3418 L 34.5215 -25.3418 C 34.4727 -26.4648 34.4727 -27.5879 34.668 -28.6621 L 26.2207 -28.6621 C 16.9434 -28.6621 10.2539 -35.2051 10.2539 -44.3359 C 10.2539 -53.418 16.9922 -60.0098 26.2207 -60.0098 L 60.4492 -60.0098 C 69.6777 -60.0098 76.3672 -53.418 76.3672 -44.3359 C 76.3672 -35.2051 69.7266 -28.6621 60.4492 -28.6621 L 47.9004 -28.6621 C 47.4121 -27.832 47.4121 -26.2695 47.6562 -25.3418 L 60.8887 -25.3418 C 71.8262 -25.3418 79.834 -33.1055 79.834 -44.3359 C 79.834 -55.5664 71.8262 -63.3301 60.8887 -63.3301 L 25.7812 -63.3301 C 14.8438 -63.3301 6.83594 -55.5664 6.83594 -44.3359 C 6.83594 -33.1055 14.8438 -25.3418 25.7812 -25.3418 Z M 58.252 -7.03125 L 93.3594 -7.03125 C 104.297 -7.03125 112.305 -14.7949 112.305 -26.0254 C 112.305 -37.2559 104.297 -45.0195 93.3594 -45.0195 L 84.5703 -45.0195 C 84.668 -43.8965 84.668 -42.7734 84.4727 -41.6992 L 92.9199 -41.6992 C 102.197 -41.6992 108.838 -35.1562 108.838 -26.0254 C 108.838 -16.9434 102.148 -10.3516 92.9199 -10.3516 L 58.6914 -10.3516 C 49.4629 -10.3516 42.7246 -16.9434 42.7246 -26.0254 C 42.7246 -35.1562 49.4141 -41.6992 58.6914 -41.6992 L 71.1914 -41.6992 C 71.6797 -42.5293 71.7285 -44.0918 71.4844 -45.0195 L 58.252 -45.0195 C 47.3145 -45.0195 39.3066 -37.2559 39.3066 -26.0254 C 39.3066 -14.7949 47.3145 -7.03125 58.252 -7.03125 Z"/>
  </g>
  <g id="Light-S" transform="matrix(1 0 0 1 1092.51 696)">
   <path d="M 26.8555 -24.2676 L 34.0332 -24.2676 C 33.8379 -26.0254 33.8379 -27.9785 34.1797 -29.7363 L 27.2949 -29.7363 C 18.75 -29.7363 12.5977 -35.7422 12.5977 -44.3359 C 12.5977 -52.8809 18.75 -58.9355 27.2949 -58.9355 L 61.5234 -58.9355 C 70.0195 -58.9355 76.2207 -52.8809 76.2207 -44.3359 C 76.2207 -35.7422 70.0684 -29.7363 61.5234 -29.7363 L 51.2695 -29.7363 C 50.2441 -28.3691 50.1465 -25.8301 50.7812 -24.2676 L 61.9629 -24.2676 C 73.584 -24.2676 81.9336 -32.5195 81.9336 -44.3359 C 81.9336 -56.1523 73.584 -64.4043 61.9629 -64.4043 L 26.8555 -64.4043 C 15.1855 -64.4043 6.83594 -56.1523 6.83594 -44.3359 C 6.83594 -32.5195 15.1855 -24.2676 26.8555 -24.2676 Z M 59.3262 -5.95703 L 94.4336 -5.95703 C 106.055 -5.95703 114.404 -14.209 114.404 -26.0254 C 114.404 -37.8418 106.055 -46.0938 94.4336 -46.0938 L 87.207 -46.0938 C 87.4023 -44.3359 87.4023 -42.3828 87.0605 -40.625 L 93.9941 -40.625 C 102.539 -40.625 108.691 -34.6191 108.691 -26.0254 C 108.691 -17.4805 102.49 -11.4258 93.9941 -11.4258 L 59.7656 -11.4258 C 51.2207 -11.4258 45.0684 -17.4805 45.0684 -26.0254 C 45.0684 -34.6191 51.2207 -40.625 59.7656 -40.625 L 69.9707 -40.625 C 70.9961 -41.9922 71.0938 -44.5312 70.459 -46.0938 L 59.3262 -46.0938 C 47.6562 -46.0938 39.3066 -37.8418 39.3066 -26.0254 C 39.3066 -14.209 47.6562 -5.95703 59.3262 -5.95703 Z"/>
  </g>
  <g id="Regular-S" transform="matrix(1 0 0 1 1388.42 696)">
   <path d="M 27.6367 -23.4863 L 33.6426 -23.4863 C 33.3984 -25.7324 33.3984 -28.2715 33.8379 -30.5176 L 28.0762 -30.5176 C 20.0684 -30.5176 14.3555 -36.1816 14.3555 -44.3359 C 14.3555 -52.4414 20.0684 -58.1543 28.0762 -58.1543 L 62.3047 -58.1543 C 70.3125 -58.1543 76.0742 -52.4414 76.0742 -44.3359 C 76.0742 -36.1816 70.3125 -30.5176 62.3047 -30.5176 L 53.8086 -30.5176 C 52.3438 -28.8086 52.2461 -25.4883 53.1738 -23.4863 L 62.7441 -23.4863 C 74.9023 -23.4863 83.5449 -32.0801 83.5449 -44.3359 C 83.5449 -56.5918 74.9023 -65.1855 62.7441 -65.1855 L 27.6367 -65.1855 C 15.4785 -65.1855 6.83594 -56.5918 6.83594 -44.3359 C 6.83594 -32.0801 15.4785 -23.4863 27.6367 -23.4863 Z M 60.1074 -5.17578 L 95.2148 -5.17578 C 107.373 -5.17578 116.016 -13.7695 116.016 -26.0254 C 116.016 -38.2812 107.373 -46.875 95.2148 -46.875 L 89.209 -46.875 C 89.502 -44.6289 89.502 -42.0898 89.0137 -39.8438 L 94.7754 -39.8438 C 102.783 -39.8438 108.545 -34.1797 108.545 -26.0254 C 108.545 -17.9199 102.783 -12.207 94.7754 -12.207 L 60.5469 -12.207 C 52.5391 -12.207 46.8262 -17.9199 46.8262 -26.0254 C 46.8262 -34.1797 52.5391 -39.8438 60.5469 -39.8438 L 69.043 -39.8438 C 70.5078 -41.5527 70.6543 -44.873 69.6777 -46.875 L 60.1074 -46.875 C 47.9492 -46.875 39.3066 -38.2812 39.3066 -26.0254 C 39.3066 -13.7695 47.9492 -5.17578 60.1074 -5.17578 Z"/>
  </g>
  <g id="Medium-S" transform="matrix(1 0 0 1 1684.54 696)">
   <path d="M 28.2227 -22.8027 L 33.8867 -22.8027 C 33.4473 -25.7324 33.4961 -28.5645 34.0332 -31.0059 L 28.6621 -31.0059 C 20.9961 -31.0059 15.5273 -36.4258 15.5273 -44.2383 C 15.5273 -52.002 20.9961 -57.4707 28.6621 -57.4707 L 62.8906 -57.4707 C 70.5566 -57.4707 76.0254 -52.002 76.0254 -44.2383 C 76.0254 -36.4258 70.6055 -31.0059 62.8906 -31.0059 L 55.957 -31.0059 C 53.0762 -29.6875 52.9785 -24.3164 55.4688 -22.8027 L 63.3301 -22.8027 C 75.8301 -22.8027 84.7168 -31.6406 84.7168 -44.2383 C 84.7168 -56.8359 75.8301 -65.6738 63.3301 -65.6738 L 28.2227 -65.6738 C 15.7227 -65.6738 6.83594 -56.8359 6.83594 -44.2383 C 6.83594 -31.6406 15.7227 -22.8027 28.2227 -22.8027 Z M 60.6934 -4.6875 L 95.8008 -4.6875 C 108.301 -4.6875 117.188 -13.5254 117.188 -26.123 C 117.188 -38.7207 108.301 -47.5586 95.8008 -47.5586 L 90.1367 -47.5586 C 90.5762 -44.6289 90.5273 -41.7969 89.9902 -39.3555 L 95.3613 -39.3555 C 103.076 -39.3555 108.496 -33.9355 108.496 -26.123 C 108.496 -18.3594 103.027 -12.8906 95.3613 -12.8906 L 61.1328 -12.8906 C 53.4668 -12.8906 47.998 -18.3594 47.998 -26.123 C 47.998 -33.9355 53.4668 -39.3555 61.1328 -39.3555 L 68.1152 -39.3555 C 70.9473 -40.6738 71.0449 -46.0449 68.5547 -47.5586 L 60.6934 -47.5586 C 48.1934 -47.5586 39.3066 -38.7207 39.3066 -26.123 C 39.3066 -13.5254 48.1934 -4.6875 60.6934 -4.6875 Z"/>
  </g>
  <g id="Semibold-S" transform="matrix(1 0 0 1 1980.79 696)">
   <path d="M 28.6621 -22.2656 L 34.082 -22.2656 C 33.4961 -25.7812 33.5938 -28.8086 34.2285 -31.3477 L 29.1016 -31.3477 C 21.6797 -31.3477 16.4062 -36.5723 16.4062 -44.1406 C 16.4062 -51.6602 21.6797 -56.9336 29.1016 -56.9336 L 63.3301 -56.9336 C 70.8008 -56.9336 76.0254 -51.6602 76.0254 -44.1406 C 76.0254 -36.5723 70.8008 -31.3477 63.3301 -31.3477 L 57.5684 -31.3477 C 53.6621 -30.3711 53.5645 -23.4375 57.2266 -22.2656 L 63.7695 -22.2656 C 76.5137 -22.2656 85.6445 -31.2988 85.6445 -44.1406 C 85.6445 -56.9824 76.5137 -66.0156 63.7695 -66.0156 L 28.6621 -66.0156 C 15.918 -66.0156 6.83594 -56.9824 6.83594 -44.1406 C 6.83594 -31.2988 15.918 -22.2656 28.6621 -22.2656 Z M 61.1328 -4.3457 L 96.2402 -4.3457 C 108.984 -4.3457 118.115 -13.3789 118.115 -26.2207 C 118.115 -39.0625 108.984 -48.0957 96.2402 -48.0957 L 90.8203 -48.0957 C 91.4551 -44.5801 91.3574 -41.5527 90.7227 -39.0137 L 95.8008 -39.0137 C 103.271 -39.0137 108.496 -33.7891 108.496 -26.2207 C 108.496 -18.7012 103.271 -13.4277 95.8008 -13.4277 L 61.5723 -13.4277 C 54.1504 -13.4277 48.877 -18.7012 48.877 -26.2207 C 48.877 -33.7891 54.1504 -39.0137 61.5723 -39.0137 L 67.3828 -39.0137 C 71.2891 -39.9902 71.3867 -46.9238 67.7246 -48.0957 L 61.1328 -48.0957 C 48.3887 -48.0957 39.3066 -39.0625 39.3066 -26.2207 C 39.3066 -13.3789 48.3887 -4.3457 61.1328 -4.3457 Z"/>
  </g>
  <g id="Bold-S" transform="matrix(1 0 0 1 2276.92 696)">
   <path d="M 29.248 -21.5332 L 34.3262 -21.5332 C 33.5449 -25.7812 33.7402 -29.1016 34.4238 -31.8359 L 29.6875 -31.8359 C 22.6074 -31.8359 17.627 -36.8164 17.627 -44.043 C 17.627 -51.2207 22.6074 -56.2012 29.6875 -56.2012 L 63.916 -56.2012 C 71.0449 -56.2012 76.0254 -51.2207 76.0254 -44.043 C 76.0254 -36.8164 71.0449 -31.8359 63.916 -31.8359 L 59.7168 -31.8359 C 54.3945 -31.25 54.3457 -22.2656 59.5215 -21.5332 L 64.3555 -21.5332 C 77.4414 -21.5332 86.8164 -30.8594 86.8164 -44.043 C 86.8164 -57.1777 77.4414 -66.5039 64.3555 -66.5039 L 29.248 -66.5039 C 16.2109 -66.5039 6.83594 -57.1777 6.83594 -44.043 C 6.83594 -30.8594 16.2109 -21.5332 29.248 -21.5332 Z M 61.7188 -3.85742 L 96.8262 -3.85742 C 109.912 -3.85742 119.287 -13.1836 119.287 -26.3184 C 119.287 -39.502 109.912 -48.8281 96.8262 -48.8281 L 91.7969 -48.8281 C 92.5781 -44.5801 92.3828 -41.2598 91.6992 -38.5254 L 96.3867 -38.5254 C 103.516 -38.5254 108.496 -33.5449 108.496 -26.3184 C 108.496 -19.1406 103.516 -14.1602 96.3867 -14.1602 L 62.1582 -14.1602 C 55.0781 -14.1602 50.0977 -19.1406 50.0977 -26.3184 C 50.0977 -33.5449 55.0781 -38.5254 62.1582 -38.5254 L 66.4062 -38.5254 C 71.7285 -39.1113 71.7773 -48.0957 66.6016 -48.8281 L 61.7188 -48.8281 C 48.6816 -48.8281 39.3066 -39.502 39.3066 -26.3184 C 39.3066 -13.1836 48.6816 -3.85742 61.7188 -3.85742 Z"/>
  </g>
  <g id="Heavy-S" transform="matrix(1 0 0 1 2572.77 696)">
   <path d="M 30.127 -20.5078 L 34.7168 -20.5078 C 33.5938 -25.7812 33.8867 -29.541 34.7168 -32.5195 L 30.5664 -32.5195 C 23.9258 -32.5195 19.3359 -37.1094 19.3359 -43.8477 C 19.3359 -50.5371 23.9258 -55.1758 30.5664 -55.1758 L 64.7949 -55.1758 C 71.4355 -55.1758 76.0254 -50.5371 76.0254 -43.8477 C 76.0254 -37.1094 71.4355 -32.5195 64.7949 -32.5195 L 62.8418 -32.5195 C 55.4688 -32.5195 55.4688 -20.5566 62.8418 -20.5078 L 65.2344 -20.5078 C 78.8086 -20.5078 88.5254 -30.2246 88.5254 -43.8477 C 88.5254 -57.4707 78.8086 -67.1875 65.2344 -67.1875 L 30.127 -67.1875 C 16.5527 -67.1875 6.83594 -57.4707 6.83594 -43.8477 C 6.83594 -30.2246 16.5527 -20.5078 30.127 -20.5078 Z M 62.5977 -3.17383 L 97.7051 -3.17383 C 111.279 -3.17383 120.996 -12.8906 120.996 -26.5137 C 120.996 -40.1367 111.279 -49.8535 97.7051 -49.8535 L 93.1152 -49.8535 C 94.2383 -44.5801 93.9453 -40.8203 93.1152 -37.8418 L 97.2656 -37.8418 C 103.906 -37.8418 108.496 -33.252 108.496 -26.5137 C 108.496 -19.8242 103.906 -15.1855 97.2656 -15.1855 L 63.0371 -15.1855 C 56.3965 -15.1855 51.8066 -19.8242 51.8066 -26.5137 C 51.8066 -33.252 56.3965 -37.8418 63.0371 -37.8418 L 64.9902 -37.8418 C 72.3633 -37.8418 72.3633 -49.8047 64.9902 -49.8535 L 62.5977 -49.8535 C 49.0234 -49.8535 39.3066 -40.1367 39.3066 -26.5137 C 39.3066 -12.8906 49.0234 -3.17383 62.5977 -3.17383 Z"/>
  </g>
  <g id="Black-S" transform="matrix(1 0 0 1 2868.7 696)">
   <path d="M 30.9082 -19.5801 L 35.0098 -19.5801 C 33.6914 -25.8301 34.0332 -29.9316 34.9609 -33.1543 L 31.3477 -33.1543 C 25.0977 -33.1543 20.8984 -37.4023 20.8984 -43.7012 C 20.8984 -49.9512 25.0977 -54.248 31.3477 -54.248 L 65.5762 -54.248 C 71.7773 -54.248 76.0254 -49.9512 76.0254 -43.7012 C 76.0254 -37.4512 71.8262 -33.2031 65.6738 -33.1543 C 56.3965 -33.6426 56.4453 -18.9941 65.8203 -19.5801 L 66.0156 -19.5801 C 80.0293 -19.5801 90.0879 -29.6875 90.0879 -43.7012 C 90.0879 -57.7637 80.0293 -67.8223 66.0156 -67.8223 L 30.9082 -67.8223 C 16.8945 -67.8223 6.83594 -57.7637 6.83594 -43.7012 C 6.83594 -29.6875 16.8945 -19.5801 30.9082 -19.5801 Z M 63.3789 -2.53906 L 98.4863 -2.53906 C 112.5 -2.53906 122.559 -12.5977 122.559 -26.6602 C 122.559 -40.6738 112.5 -50.7812 98.4863 -50.7812 L 94.3359 -50.7812 C 95.7031 -44.5312 95.3125 -40.4297 94.4336 -37.207 L 98.0469 -37.207 C 104.248 -37.207 108.496 -32.959 108.496 -26.6602 C 108.496 -20.4102 104.248 -16.1133 98.0469 -16.1133 L 63.8184 -16.1133 C 57.5684 -16.1133 53.3691 -20.4102 53.3691 -26.6602 C 53.3691 -32.9102 57.5684 -37.1582 63.7207 -37.207 C 72.9492 -36.7188 72.9492 -51.3672 63.5254 -50.7812 L 63.3789 -50.7812 C 49.3652 -50.7812 39.3066 -40.6738 39.3066 -26.6602 C 39.3066 -12.5977 49.3652 -2.53906 63.3789 -2.53906 Z"/>
  </g>
  <g id="Ultralight-M" transform="matrix(1 0 0 1 484.589 1126)">
   <path d="M 31.9824 -23.5352 L 44.5312 -23.5352 C 44.5312 -24.3652 44.5312 -25.1465 44.6289 -25.9277 L 32.5684 -25.9277 C 20.1172 -25.9277 11.1328 -34.668 11.1328 -46.875 C 11.1328 -58.9844 20.166 -67.7734 32.5684 -67.7734 L 76.2207 -67.7734 C 88.623 -67.7734 97.6562 -58.9844 97.6562 -46.875 C 97.6562 -34.668 88.6719 -25.9277 76.2207 -25.9277 L 58.3008 -25.9277 C 58.1543 -25.2441 58.1543 -24.1699 58.1055 -23.5352 L 76.8066 -23.5352 C 90.1855 -23.5352 100.049 -33.0566 100.049 -46.875 C 100.049 -60.6445 90.1855 -70.166 76.8066 -70.166 L 31.9824 -70.166 C 18.6035 -70.166 8.74023 -60.6445 8.74023 -46.875 C 8.74023 -33.0566 18.6035 -23.5352 31.9824 -23.5352 Z M 73.4375 -0.146484 L 118.262 -0.146484 C 131.592 -0.146484 141.504 -9.66797 141.504 -23.4863 C 141.504 -37.3047 131.592 -46.8262 118.262 -46.8262 L 105.713 -46.8262 C 105.713 -45.9473 105.713 -45.166 105.566 -44.4336 L 117.676 -44.4336 C 130.127 -44.4336 139.111 -35.6445 139.111 -23.4863 C 139.111 -11.377 130.029 -2.53906 117.676 -2.53906 L 73.9746 -2.53906 C 61.6211 -2.53906 52.5391 -11.377 52.5391 -23.4863 C 52.5391 -35.6445 61.5723 -44.4336 73.9746 -44.4336 L 91.9434 -44.4336 C 92.0898 -45.0684 92.0898 -46.1426 92.0898 -46.8262 L 73.4375 -46.8262 C 60.0586 -46.8262 50.1953 -37.3047 50.1953 -23.4863 C 50.1953 -9.66797 60.0586 -0.146484 73.4375 -0.146484 Z"/>
  </g>
  <g id="Thin-M" transform="matrix(1 0 0 1 780.69 1126)">
   <path d="M 32.6172 -22.9004 L 44.2383 -22.9004 C 44.1895 -24.1211 44.1895 -25.3906 44.3848 -26.5625 L 33.1543 -26.5625 C 21.1426 -26.5625 12.4512 -35.0098 12.4512 -46.875 C 12.4512 -58.6426 21.1914 -67.1875 33.1543 -67.1875 L 76.8555 -67.1875 C 88.8184 -67.1875 97.5586 -58.6426 97.5586 -46.875 C 97.5586 -35.0098 88.8672 -26.5625 76.8555 -26.5625 L 60.2539 -26.5625 C 59.7656 -25.5859 59.7168 -23.9258 59.9609 -22.9004 L 77.3926 -22.9004 C 91.1621 -22.9004 101.27 -32.7148 101.27 -46.875 C 101.27 -60.9863 91.1621 -70.8008 77.3926 -70.8008 L 32.6172 -70.8008 C 18.8477 -70.8008 8.74023 -60.9863 8.74023 -46.875 C 8.74023 -32.7148 18.8477 -22.9004 32.6172 -22.9004 Z M 74.0234 0.439453 L 118.848 0.439453 C 132.617 0.439453 142.725 -9.32617 142.725 -23.4863 C 142.725 -37.6465 132.617 -47.4121 118.848 -47.4121 L 107.227 -47.4121 C 107.275 -46.1914 107.275 -44.9707 107.08 -43.7988 L 118.311 -43.7988 C 130.322 -43.7988 139.014 -35.3027 139.014 -23.4863 C 139.014 -11.7188 130.273 -3.17383 118.311 -3.17383 L 74.6094 -3.17383 C 62.6465 -3.17383 53.9062 -11.7188 53.9062 -23.4863 C 53.9062 -35.3027 62.5977 -43.7988 74.6094 -43.7988 L 91.2109 -43.7988 C 91.6992 -44.7266 91.6992 -46.3867 91.5039 -47.4121 L 74.0234 -47.4121 C 60.2539 -47.4121 50.1953 -37.6465 50.1953 -23.4863 C 50.1953 -9.32617 60.2539 0.439453 74.0234 0.439453 Z"/>
  </g>
  <g id="Light-M" transform="matrix(1 0 0 1 1076.2 1126)">
   <path d="M 33.7891 -21.7285 L 43.6523 -21.7285 C 43.457 -23.6816 43.457 -25.8301 43.8477 -27.7344 L 34.375 -27.7344 C 23.1445 -27.7344 15.0879 -35.6445 15.0879 -46.875 C 15.0879 -57.959 23.1934 -65.9668 34.375 -65.9668 L 78.0762 -65.9668 C 89.2578 -65.9668 97.3633 -57.959 97.3633 -46.875 C 97.3633 -35.6445 89.2578 -27.7344 78.0762 -27.7344 L 64.0137 -27.7344 C 62.9395 -26.2695 62.8418 -23.4375 63.5254 -21.7285 L 78.6133 -21.7285 C 93.1641 -21.7285 103.711 -32.0312 103.711 -46.875 C 103.711 -61.6699 93.1641 -72.0215 78.6133 -72.0215 L 33.7891 -72.0215 C 19.2383 -72.0215 8.74023 -61.6699 8.74023 -46.875 C 8.74023 -32.0312 19.2383 -21.7285 33.7891 -21.7285 Z M 75.2441 1.66016 L 120.068 1.66016 C 134.619 1.66016 145.166 -8.64258 145.166 -23.4863 C 145.166 -38.3301 134.619 -48.6328 120.068 -48.6328 L 110.205 -48.6328 C 110.4 -46.6797 110.4 -44.5312 110.01 -42.5781 L 119.482 -42.5781 C 130.713 -42.5781 138.77 -34.668 138.77 -23.4863 C 138.77 -12.3535 130.664 -4.39453 119.482 -4.39453 L 75.8301 -4.39453 C 64.6484 -4.39453 56.543 -12.3535 56.543 -23.4863 C 56.543 -34.668 64.5996 -42.5781 75.8301 -42.5781 L 89.8438 -42.5781 C 90.918 -44.0918 91.0156 -46.9238 90.332 -48.6328 L 75.2441 -48.6328 C 60.6934 -48.6328 50.1953 -38.3301 50.1953 -23.4863 C 50.1953 -8.64258 60.6934 1.66016 75.2441 1.66016 Z"/>
  </g>
  <g id="Regular-M" transform="matrix(1 0 0 1 1371.99 1126)">
   <path d="M 34.7168 -20.8008 L 43.2129 -20.8008 C 42.9199 -23.3398 42.9199 -26.123 43.457 -28.6621 L 35.3027 -28.6621 C 24.6582 -28.6621 17.0898 -36.1816 17.0898 -46.875 C 17.0898 -57.4707 24.707 -65.0391 35.3027 -65.0391 L 78.9551 -65.0391 C 89.5508 -65.0391 97.168 -57.4707 97.168 -46.875 C 97.168 -36.1816 89.5508 -28.6621 78.9551 -28.6621 L 66.8945 -28.6621 C 65.332 -26.7578 65.1855 -23.0469 66.2109 -20.8008 L 79.541 -20.8008 C 94.6777 -20.8008 105.518 -31.4941 105.518 -46.875 C 105.518 -62.207 94.6777 -72.9004 79.541 -72.9004 L 34.7168 -72.9004 C 19.5801 -72.9004 8.74023 -62.207 8.74023 -46.875 C 8.74023 -31.4941 19.5801 -20.8008 34.7168 -20.8008 Z M 76.1719 2.58789 L 120.996 2.58789 C 136.133 2.58789 146.973 -8.1543 146.973 -23.4863 C 146.973 -38.8184 136.133 -49.5605 120.996 -49.5605 L 112.451 -49.5605 C 112.744 -47.0215 112.744 -44.1895 112.256 -41.6992 L 120.41 -41.6992 C 131.006 -41.6992 138.623 -34.1797 138.623 -23.4863 C 138.623 -12.8418 131.006 -5.27344 120.41 -5.27344 L 76.709 -5.27344 C 66.1621 -5.27344 58.4961 -12.8418 58.4961 -23.4863 C 58.4961 -34.1797 66.1133 -41.6992 76.709 -41.6992 L 88.7695 -41.6992 C 90.332 -43.6035 90.4785 -47.2656 89.4531 -49.5605 L 76.1719 -49.5605 C 60.9863 -49.5605 50.1953 -38.8184 50.1953 -23.4863 C 50.1953 -8.1543 60.9863 2.58789 76.1719 2.58789 Z"/>
  </g>
  <g id="Medium-M" transform="matrix(1 0 0 1 1667.99 1126)">
   <path d="M 35.4492 -19.9707 L 43.4082 -19.9707 C 42.9199 -23.291 43.0176 -26.4648 43.6035 -29.248 L 35.9863 -29.248 C 25.7812 -29.248 18.5059 -36.4258 18.5059 -46.7285 C 18.5059 -56.9824 25.7812 -64.209 35.9863 -64.209 L 79.6875 -64.209 C 89.8438 -64.209 97.168 -56.9824 97.168 -46.7285 C 97.168 -36.4258 89.8926 -29.248 79.6875 -29.248 L 69.4336 -29.248 C 66.3574 -27.6855 66.2598 -21.8262 68.8965 -19.9707 L 80.2246 -19.9707 C 95.8008 -19.9707 106.934 -31.0059 106.934 -46.7285 C 106.934 -62.4512 95.8008 -73.4863 80.2246 -73.4863 L 35.4492 -73.4863 C 19.873 -73.4863 8.74023 -62.4512 8.74023 -46.7285 C 8.74023 -31.0059 19.873 -19.9707 35.4492 -19.9707 Z M 76.8555 3.17383 L 121.68 3.17383 C 137.256 3.17383 148.389 -7.86133 148.389 -23.584 C 148.389 -39.3066 137.256 -50.3418 121.68 -50.3418 L 113.672 -50.3418 C 114.16 -47.0215 114.111 -43.8477 113.477 -41.0645 L 121.143 -41.0645 C 131.299 -41.0645 138.574 -33.8867 138.574 -23.584 C 138.574 -13.3789 131.299 -6.10352 121.143 -6.10352 L 77.4414 -6.10352 C 67.2363 -6.10352 59.9609 -13.3789 59.9609 -23.584 C 59.9609 -33.8867 67.2363 -41.0645 77.4414 -41.0645 L 87.6953 -41.0645 C 90.7227 -42.627 90.8691 -48.5352 88.2324 -50.3418 L 76.8555 -50.3418 C 61.3281 -50.3418 50.1953 -39.3066 50.1953 -23.584 C 50.1953 -7.86133 61.3281 3.17383 76.8555 3.17383 Z"/>
  </g>
  <g id="Semibold-M" transform="matrix(1 0 0 1 1964.17 1126)">
   <path d="M 35.9863 -19.3359 L 43.6035 -19.3359 C 42.9199 -23.291 43.0664 -26.7578 43.75 -29.6875 L 36.5234 -29.6875 C 26.6602 -29.6875 19.6289 -36.6699 19.6289 -46.6309 C 19.6289 -56.5918 26.6602 -63.5742 36.5234 -63.5742 L 80.2246 -63.5742 C 90.0879 -63.5742 97.1191 -56.5918 97.1191 -46.6309 C 97.1191 -36.6699 90.0879 -29.6875 80.2246 -29.6875 L 71.3379 -29.6875 C 67.1875 -28.418 67.0898 -20.8496 70.8984 -19.3359 L 80.7617 -19.3359 C 96.6797 -19.3359 108.008 -30.6152 108.008 -46.6309 C 108.008 -62.6953 96.6797 -73.9746 80.7617 -73.9746 L 35.9863 -73.9746 C 20.0684 -73.9746 8.74023 -62.6953 8.74023 -46.6309 C 8.74023 -30.6152 20.0684 -19.3359 35.9863 -19.3359 Z M 77.3926 3.61328 L 122.217 3.61328 C 138.086 3.61328 149.463 -7.66602 149.463 -23.6816 C 149.463 -39.6973 138.086 -50.9766 122.217 -50.9766 L 114.6 -50.9766 C 115.283 -47.0703 115.137 -43.6035 114.453 -40.625 L 121.68 -40.625 C 131.543 -40.625 138.574 -33.6914 138.574 -23.6816 C 138.574 -13.7695 131.543 -6.73828 121.68 -6.73828 L 77.9785 -6.73828 C 68.1152 -6.73828 61.084 -13.7695 61.084 -23.6816 C 61.084 -33.6914 68.0664 -40.625 77.9785 -40.625 L 86.8164 -40.625 C 91.0156 -41.8945 91.1133 -49.4629 87.3047 -50.9766 L 77.3926 -50.9766 C 61.5234 -50.9766 50.1953 -39.6973 50.1953 -23.6816 C 50.1953 -7.66602 61.5234 3.61328 77.3926 3.61328 Z"/>
  </g>
  <g id="Bold-M" transform="matrix(1 0 0 1 2260.17 1126)">
   <path d="M 36.6699 -18.5059 L 43.7988 -18.5059 C 42.9199 -23.2422 43.1152 -27.0996 43.8965 -30.3223 L 37.2559 -30.3223 C 27.7832 -30.3223 21.0938 -36.9629 21.0938 -46.5332 C 21.0938 -56.0547 27.7832 -62.7441 37.2559 -62.7441 L 80.957 -62.7441 C 90.4297 -62.7441 97.1191 -56.0547 97.1191 -46.5332 C 97.1191 -36.9629 90.4297 -30.3223 80.957 -30.3223 L 73.9258 -30.3223 C 68.2129 -29.3945 68.1641 -19.5801 73.584 -18.5059 L 81.4941 -18.5059 C 97.8027 -18.5059 109.473 -30.127 109.473 -46.5332 C 109.473 -62.9395 97.8027 -74.5605 81.4941 -74.5605 L 36.6699 -74.5605 C 20.4102 -74.5605 8.74023 -62.9395 8.74023 -46.5332 C 8.74023 -30.127 20.4102 -18.5059 36.6699 -18.5059 Z M 78.125 4.19922 L 122.949 4.19922 C 139.258 4.19922 150.928 -7.37305 150.928 -23.7793 C 150.928 -40.2344 139.258 -51.8066 122.949 -51.8066 L 115.82 -51.8066 C 116.699 -47.0703 116.504 -43.2129 115.723 -40.0391 L 122.363 -40.0391 C 131.885 -40.0391 138.574 -33.3984 138.574 -23.7793 C 138.574 -14.2578 131.885 -7.56836 122.363 -7.56836 L 78.7109 -7.56836 C 69.2383 -7.56836 62.5 -14.2578 62.5 -23.7793 C 62.5 -33.3984 69.1895 -40.0391 78.7109 -40.0391 L 85.6934 -40.0391 C 91.4062 -40.9668 91.5039 -50.7324 86.0352 -51.8066 L 78.125 -51.8066 C 61.8164 -51.8066 50.1953 -40.2344 50.1953 -23.7793 C 50.1953 -7.37305 61.8164 4.19922 78.125 4.19922 Z"/>
  </g>
  <g id="Heavy-M" transform="matrix(1 0 0 1 2555.83 1126)">
   <path d="M 37.7441 -17.2852 L 44.0918 -17.2852 C 42.9199 -23.1934 43.2129 -27.6367 44.1406 -31.2012 L 38.2812 -31.2012 C 29.3945 -31.2012 23.1934 -37.3535 23.1934 -46.3867 C 23.1934 -55.3223 29.3945 -61.5723 38.2812 -61.5723 L 81.9824 -61.5723 C 90.8691 -61.5723 97.0703 -55.3223 97.0703 -46.3867 C 97.0703 -37.3535 90.8691 -31.2012 81.9824 -31.2012 L 77.6367 -31.2012 C 69.7266 -30.7617 69.6777 -17.7734 77.4902 -17.2852 L 82.5195 -17.2852 C 99.4141 -17.2852 111.523 -29.3945 111.523 -46.3867 C 111.523 -63.3301 99.4141 -75.4395 82.5195 -75.4395 L 37.7441 -75.4395 C 20.8496 -75.4395 8.74023 -63.3301 8.74023 -46.3867 C 8.74023 -29.3945 20.8496 -17.2852 37.7441 -17.2852 Z M 79.1504 5.07812 L 123.975 5.07812 C 140.869 5.07812 152.979 -6.98242 152.979 -23.9746 C 152.979 -40.9668 140.869 -53.0273 123.975 -53.0273 L 117.627 -53.0273 C 118.799 -47.1191 118.506 -42.7246 117.578 -39.1602 L 123.438 -39.1602 C 132.324 -39.1602 138.525 -32.959 138.525 -23.9746 C 138.525 -15.0391 132.324 -8.78906 123.438 -8.78906 L 79.7363 -8.78906 C 70.8496 -8.78906 64.6484 -15.0391 64.6484 -23.9746 C 64.6484 -32.959 70.8496 -39.1602 79.7363 -39.1602 L 84.082 -39.1602 C 91.9922 -39.5508 91.9922 -52.5391 84.2285 -53.0273 L 79.1504 -53.0273 C 62.2559 -53.0273 50.1953 -40.9668 50.1953 -23.9746 C 50.1953 -6.98242 62.2559 5.07812 79.1504 5.07812 Z"/>
  </g>
  <g id="Black-M" transform="matrix(1 0 0 1 2851.61 1126)">
   <path d="M 38.6719 -16.2109 L 44.3359 -16.2109 C 42.8711 -23.1934 43.2617 -28.0762 44.3359 -31.9336 L 39.209 -31.9336 C 30.8594 -31.9336 25.0977 -37.6953 25.0977 -46.1914 C 25.0977 -54.6387 30.8594 -60.4492 39.209 -60.4492 L 82.9102 -60.4492 C 91.2598 -60.4492 97.0215 -54.6387 97.0215 -46.1914 C 97.0215 -37.6953 91.2598 -31.9336 82.9102 -31.9336 L 80.9082 -31.9336 C 71.0938 -32.0312 71.0938 -16.1621 80.957 -16.2109 L 83.4473 -16.2109 C 100.879 -16.2109 113.379 -28.7109 113.379 -46.1914 C 113.379 -63.7207 100.879 -76.2207 83.4473 -76.2207 L 38.6719 -76.2207 C 21.2402 -76.2207 8.74023 -63.7207 8.74023 -46.1914 C 8.74023 -28.7109 21.2402 -16.2109 38.6719 -16.2109 Z M 80.0781 5.85938 L 124.902 5.85938 C 142.334 5.85938 154.834 -6.64062 154.834 -24.1211 C 154.834 -41.6016 142.334 -54.1016 124.902 -54.1016 L 119.238 -54.1016 C 120.654 -47.168 120.312 -42.2852 119.238 -38.3789 L 124.365 -38.3789 C 132.715 -38.3789 138.477 -32.6172 138.477 -24.1211 C 138.477 -15.6738 132.715 -9.86328 124.365 -9.86328 L 80.6641 -9.86328 C 72.2656 -9.86328 66.5039 -15.6738 66.5039 -24.1211 C 66.5039 -32.6172 72.2656 -38.3789 80.6641 -38.3789 L 82.6172 -38.3789 C 92.4805 -38.3301 92.4805 -54.1992 82.6172 -54.1016 L 80.0781 -54.1016 C 62.6465 -54.1016 50.1953 -41.6016 50.1953 -24.1211 C 50.1953 -6.64062 62.6465 5.85938 80.0781 5.85938 Z"/>
  </g>
  <g id="Ultralight-L" transform="matrix(1 0 0 1 463.056 1556)">
   <path d="M 41.0156 -20.4102 L 57.5684 -20.4102 C 57.6172 -21.3379 57.6172 -22.1191 57.7148 -22.9492 L 41.748 -22.9492 C 25.4883 -22.9492 13.7695 -34.375 13.7695 -50.2441 C 13.7695 -66.0156 25.5859 -77.4902 41.748 -77.4902 L 98.0957 -77.4902 C 114.258 -77.4902 126.074 -66.0156 126.074 -50.2441 C 126.074 -34.375 114.307 -22.9492 98.0957 -22.9492 L 74.3652 -22.9492 C 74.3164 -22.2168 74.3164 -21.0938 74.2188 -20.4102 L 98.8281 -20.4102 C 115.918 -20.4102 128.564 -32.5684 128.564 -50.2441 C 128.564 -67.8711 115.918 -80.0293 98.8281 -80.0293 L 41.0156 -80.0293 C 23.9258 -80.0293 11.2793 -67.8711 11.2793 -50.2441 C 11.2793 -32.5684 23.9258 -20.4102 41.0156 -20.4102 Z M 94.4824 9.76562 L 152.295 9.76562 C 169.385 9.76562 182.031 -2.39258 182.031 -20.0684 C 182.031 -37.7441 169.385 -49.9023 152.295 -49.9023 L 135.742 -49.9023 C 135.693 -48.9746 135.693 -48.1934 135.596 -47.3633 L 151.562 -47.3633 C 167.822 -47.3633 179.541 -35.9375 179.541 -20.0684 C 179.541 -4.29688 167.725 7.22656 151.562 7.22656 L 95.2148 7.22656 C 79.0527 7.22656 67.2363 -4.29688 67.2363 -20.0684 C 67.2363 -35.9375 78.9551 -47.3633 95.2148 -47.3633 L 118.896 -47.3633 C 118.994 -48.0957 118.994 -49.2188 119.092 -49.9023 L 94.4824 -49.9023 C 77.3926 -49.9023 64.7461 -37.7441 64.7461 -20.0684 C 64.7461 -2.39258 77.3926 9.76562 94.4824 9.76562 Z"/>
  </g>
  <g id="Thin-L" transform="matrix(1 0 0 1 759.083 1556)">
   <path d="M 41.6992 -19.7266 L 57.2754 -19.7266 C 57.2266 -21.0449 57.2266 -22.3633 57.4219 -23.6328 L 42.4316 -23.6328 C 26.6602 -23.6328 15.2344 -34.7168 15.2344 -50.2441 C 15.2344 -65.625 26.709 -76.8066 42.4316 -76.8066 L 98.7793 -76.8066 C 114.502 -76.8066 125.977 -65.625 125.977 -50.2441 C 125.977 -34.7168 114.551 -23.6328 98.7793 -23.6328 L 76.5625 -23.6328 C 76.123 -22.6074 76.123 -20.8008 76.2695 -19.7266 L 99.5117 -19.7266 C 117.041 -19.7266 129.932 -32.1777 129.932 -50.2441 C 129.932 -68.2617 117.041 -80.7617 99.5117 -80.7617 L 41.6992 -80.7617 C 24.1699 -80.7617 11.2793 -68.2617 11.2793 -50.2441 C 11.2793 -32.1777 24.1699 -19.7266 41.6992 -19.7266 Z M 95.166 10.4492 L 152.979 10.4492 C 170.508 10.4492 183.447 -2.00195 183.447 -20.0684 C 183.447 -38.1348 170.508 -50.5859 152.979 -50.5859 L 137.451 -50.5859 C 137.451 -49.2188 137.451 -47.9492 137.256 -46.6309 L 152.246 -46.6309 C 168.018 -46.6309 179.443 -35.5469 179.443 -20.0684 C 179.443 -4.6875 167.969 6.49414 152.246 6.49414 L 95.8984 6.49414 C 80.2246 6.49414 68.75 -4.6875 68.75 -20.0684 C 68.75 -35.5469 80.127 -46.6309 95.8984 -46.6309 L 118.115 -46.6309 C 118.555 -47.7051 118.555 -49.5117 118.457 -50.5859 L 95.166 -50.5859 C 77.6367 -50.5859 64.7461 -38.1348 64.7461 -20.0684 C 64.7461 -2.00195 77.6367 10.4492 95.166 10.4492 Z"/>
  </g>
  <g id="Light-L" transform="matrix(1 0 0 1 1054.45 1556)">
   <path d="M 43.0176 -18.3594 L 56.5918 -18.3594 C 56.4453 -20.5566 56.4453 -22.8516 56.8359 -25 L 43.75 -25 C 28.9062 -25 18.1641 -35.4492 18.1641 -50.2441 C 18.1641 -64.8926 28.9551 -75.4883 43.75 -75.4883 L 100.146 -75.4883 C 114.941 -75.4883 125.732 -64.8926 125.732 -50.2441 C 125.732 -35.4492 114.99 -25 100.146 -25 L 80.7617 -25 C 79.6875 -23.3398 79.5898 -20.2637 80.2246 -18.3594 L 100.879 -18.3594 C 119.238 -18.3594 132.617 -31.3965 132.617 -50.2441 C 132.617 -69.043 119.238 -82.0801 100.879 -82.0801 L 43.0176 -82.0801 C 24.6094 -82.0801 11.2793 -69.043 11.2793 -50.2441 C 11.2793 -31.3965 24.6094 -18.3594 43.0176 -18.3594 Z M 96.5332 11.7676 L 154.346 11.7676 C 172.754 11.7676 186.133 -1.26953 186.133 -20.0684 C 186.133 -38.8672 172.754 -51.9043 154.346 -51.9043 L 140.771 -51.9043 C 140.967 -49.7559 140.967 -47.4609 140.527 -45.3125 L 153.613 -45.3125 C 168.457 -45.3125 179.199 -34.8145 179.199 -20.0684 C 179.199 -5.41992 168.408 5.17578 153.613 5.17578 L 97.2168 5.17578 C 82.4219 5.17578 71.6797 -5.41992 71.6797 -20.0684 C 71.6797 -34.8145 82.373 -45.3125 97.2168 -45.3125 L 116.602 -45.3125 C 117.676 -46.9727 117.773 -50.0488 117.139 -51.9043 L 96.5332 -51.9043 C 78.125 -51.9043 64.7461 -38.8672 64.7461 -20.0684 C 64.7461 -1.26953 78.125 11.7676 96.5332 11.7676 Z"/>
  </g>
  <g id="Regular-L" transform="matrix(1 0 0 1 1350.14 1556)">
   <path d="M 44.043 -17.334 L 56.1523 -17.334 C 55.8594 -20.166 55.8594 -23.2422 56.3965 -26.0254 L 44.7754 -26.0254 C 30.6152 -26.0254 20.4102 -36.0352 20.4102 -50.2441 C 20.4102 -64.3555 30.6152 -74.4629 44.7754 -74.4629 L 101.172 -74.4629 C 115.283 -74.4629 125.537 -64.3555 125.537 -50.2441 C 125.537 -36.0352 115.332 -26.0254 101.172 -26.0254 L 83.9844 -26.0254 C 82.373 -23.877 82.2266 -19.8242 83.252 -17.334 L 101.855 -17.334 C 120.947 -17.334 134.668 -30.8594 134.668 -50.2441 C 134.668 -69.6289 120.947 -83.1055 101.855 -83.1055 L 44.043 -83.1055 C 25 -83.1055 11.2793 -69.6289 11.2793 -50.2441 C 11.2793 -30.8594 25 -17.334 44.043 -17.334 Z M 97.5098 12.793 L 155.371 12.793 C 174.414 12.793 188.135 -0.683594 188.135 -20.0684 C 188.135 -39.4531 174.414 -52.9297 155.371 -52.9297 L 143.262 -52.9297 C 143.555 -50.1465 143.555 -47.0703 143.018 -44.2871 L 154.639 -44.2871 C 168.799 -44.2871 179.004 -34.2773 179.004 -20.0684 C 179.004 -5.95703 168.799 4.15039 154.639 4.15039 L 98.2422 4.15039 C 84.1309 4.15039 73.877 -5.95703 73.877 -20.0684 C 73.877 -34.2773 84.082 -44.2871 98.2422 -44.2871 L 115.43 -44.2871 C 117.041 -46.4355 117.188 -50.4883 116.162 -52.9297 L 97.5098 -52.9297 C 78.4668 -52.9297 64.7461 -39.4531 64.7461 -20.0684 C 64.7461 -0.683594 78.4668 12.793 97.5098 12.793 Z"/>
  </g>
  <g id="Medium-L" transform="matrix(1 0 0 1 1646.02 1556)">
   <path d="M 44.873 -16.4062 L 56.25 -16.4062 C 55.7129 -20.0684 55.8105 -23.6328 56.4453 -26.709 L 45.6055 -26.709 C 31.9336 -26.709 22.1191 -36.377 22.1191 -50.1465 C 22.1191 -63.7695 31.9336 -73.5352 45.6055 -73.5352 L 102.002 -73.5352 C 115.625 -73.5352 125.488 -63.7695 125.488 -50.1465 C 125.488 -36.377 115.674 -26.709 102.002 -26.709 L 86.8652 -26.709 C 83.7891 -24.8535 83.6426 -18.6035 86.2305 -16.4062 L 102.686 -16.4062 C 122.266 -16.4062 136.328 -30.2734 136.328 -50.1465 C 136.328 -69.9707 122.266 -83.8379 102.686 -83.8379 L 44.873 -83.8379 C 25.3418 -83.8379 11.2793 -69.9707 11.2793 -50.1465 C 11.2793 -30.2734 25.3418 -16.4062 44.873 -16.4062 Z M 98.3887 13.5254 L 156.201 13.5254 C 175.732 13.5254 189.795 -0.341797 189.795 -20.166 C 189.795 -40.0391 175.732 -53.9062 156.201 -53.9062 L 144.824 -53.9062 C 145.361 -50.2441 145.264 -46.6797 144.629 -43.5547 L 155.469 -43.5547 C 169.141 -43.5547 178.955 -33.9355 178.955 -20.166 C 178.955 -6.49414 169.141 3.22266 155.469 3.22266 L 99.0723 3.22266 C 85.4492 3.22266 75.5859 -6.49414 75.5859 -20.166 C 75.5859 -33.9355 85.4004 -43.5547 99.0723 -43.5547 L 114.209 -43.5547 C 117.285 -45.459 117.432 -51.709 114.844 -53.9062 L 98.3887 -53.9062 C 78.8086 -53.9062 64.7461 -40.0391 64.7461 -20.166 C 64.7461 -0.341797 78.8086 13.5254 98.3887 13.5254 Z"/>
  </g>
  <g id="Semibold-L" transform="matrix(1 0 0 1 1942.09 1556)">
   <path d="M 45.5078 -15.6738 L 56.2988 -15.6738 C 55.6152 -19.9707 55.7617 -23.9258 56.4941 -27.2949 L 46.2402 -27.2949 C 32.959 -27.2949 23.4375 -36.6699 23.4375 -50.0488 C 23.4375 -63.3301 32.959 -72.8027 46.2402 -72.8027 L 102.637 -72.8027 C 115.918 -72.8027 125.439 -63.3301 125.439 -50.0488 C 125.439 -36.6699 115.918 -27.2949 102.637 -27.2949 L 89.0625 -27.2949 C 84.8633 -25.5859 84.7656 -17.6758 88.4766 -15.6738 L 103.369 -15.6738 C 123.291 -15.6738 137.598 -29.834 137.598 -50.0488 C 137.598 -70.2148 123.291 -84.375 103.369 -84.375 L 45.5078 -84.375 C 25.5859 -84.375 11.2793 -70.2148 11.2793 -50.0488 C 11.2793 -29.834 25.5859 -15.6738 45.5078 -15.6738 Z M 99.0234 14.1113 L 156.836 14.1113 C 176.758 14.1113 191.113 -0.0488281 191.113 -20.2637 C 191.113 -40.4297 176.758 -54.5898 156.836 -54.5898 L 146.045 -54.5898 C 146.729 -50.293 146.582 -46.3867 145.85 -43.0176 L 156.104 -43.0176 C 169.434 -43.0176 178.906 -33.6426 178.906 -20.2637 C 178.906 -6.93359 169.385 2.49023 156.104 2.49023 L 99.707 2.49023 C 86.4258 2.49023 76.9043 -6.93359 76.9043 -20.2637 C 76.9043 -33.6426 86.4258 -43.0176 99.707 -43.0176 L 113.281 -43.0176 C 117.48 -44.7266 117.578 -52.6367 113.867 -54.5898 L 99.0234 -54.5898 C 79.0527 -54.5898 64.7461 -40.4297 64.7461 -20.2637 C 64.7461 -0.0488281 79.0527 14.1113 99.0234 14.1113 Z"/>
  </g>
  <g id="Bold-L" transform="matrix(1 0 0 1 2237.95 1556)">
   <path d="M 46.3867 -14.7461 L 56.3965 -14.7461 C 55.5176 -19.873 55.7129 -24.3164 56.5918 -28.0273 L 47.0703 -28.0273 C 34.2773 -28.0273 25.1953 -37.0117 25.1953 -49.9512 C 25.1953 -62.793 34.2773 -71.8262 47.0703 -71.8262 L 103.467 -71.8262 C 116.26 -71.8262 125.391 -62.793 125.391 -49.9512 C 125.391 -37.0117 116.26 -28.0273 103.467 -28.0273 L 91.9922 -28.0273 C 86.3281 -26.5625 86.2305 -16.4551 91.5039 -14.7461 L 104.199 -14.7461 C 124.609 -14.7461 139.307 -29.2969 139.307 -49.9512 C 139.307 -70.6055 124.609 -85.1074 104.199 -85.1074 L 46.3867 -85.1074 C 25.9277 -85.1074 11.2793 -70.6055 11.2793 -49.9512 C 11.2793 -29.2969 25.9277 -14.7461 46.3867 -14.7461 Z M 99.8535 14.8438 L 157.666 14.8438 C 178.125 14.8438 192.773 0.292969 192.773 -20.3613 C 192.773 -41.0156 178.125 -55.5664 157.666 -55.5664 L 147.607 -55.5664 C 148.535 -50.3906 148.34 -45.9961 147.461 -42.2852 L 156.934 -42.2852 C 169.775 -42.2852 178.857 -33.3008 178.857 -20.3613 C 178.857 -7.51953 169.727 1.5625 156.934 1.5625 L 100.586 1.5625 C 87.793 1.5625 78.6621 -7.51953 78.6621 -20.3613 C 78.6621 -33.3008 87.7441 -42.2852 100.586 -42.2852 L 112.012 -42.2852 C 117.725 -43.75 117.822 -53.8574 112.549 -55.5664 L 99.8535 -55.5664 C 79.3945 -55.5664 64.7461 -41.0156 64.7461 -20.3613 C 64.7461 0.292969 79.3945 14.8438 99.8535 14.8438 Z"/>
  </g>
  <g id="Heavy-L" transform="matrix(1 0 0 1 2533.44 1556)">
   <path d="M 47.6074 -13.3789 L 56.543 -13.3789 C 55.3711 -19.7266 55.6152 -24.8535 56.6895 -29.1016 L 48.291 -29.1016 C 36.2305 -29.1016 27.6855 -37.5488 27.6855 -49.8047 C 27.6855 -61.9629 36.2305 -70.459 48.291 -70.459 L 104.688 -70.459 C 116.748 -70.459 125.293 -61.9629 125.293 -49.8047 C 125.293 -37.5488 116.797 -29.1016 104.688 -29.1016 L 96.2402 -29.1016 C 88.4277 -27.9785 88.3301 -14.6973 95.8496 -13.3789 L 105.42 -13.3789 C 126.562 -13.3789 141.748 -28.4668 141.748 -49.8047 C 141.748 -71.0938 126.562 -86.1816 105.42 -86.1816 L 47.6074 -86.1816 C 26.416 -86.1816 11.2793 -71.0938 11.2793 -49.8047 C 11.2793 -28.4668 26.416 -13.3789 47.6074 -13.3789 Z M 101.074 15.8691 L 158.887 15.8691 C 180.078 15.8691 195.215 0.830078 195.215 -20.5078 C 195.215 -41.8457 180.078 -56.9336 158.887 -56.9336 L 149.951 -56.9336 C 151.123 -50.5371 150.879 -45.4102 149.805 -41.2109 L 158.154 -41.2109 C 170.264 -41.2109 178.76 -32.7637 178.76 -20.5078 C 178.76 -8.34961 170.264 0.195312 158.154 0.195312 L 101.807 0.195312 C 89.6973 0.195312 81.2012 -8.34961 81.2012 -20.5078 C 81.2012 -32.7637 89.6973 -41.2109 101.807 -41.2109 L 110.254 -41.2109 C 118.066 -42.334 118.115 -55.6152 110.645 -56.9336 L 101.074 -56.9336 C 79.8828 -56.9336 64.7461 -41.8457 64.7461 -20.5078 C 64.7461 0.830078 79.8828 15.8691 101.074 15.8691 Z"/>
  </g>
  <g id="Black-L" transform="matrix(1 0 0 1 2829.08 1556)">
   <path d="M 48.6816 -12.1582 L 56.6895 -12.1582 C 55.1758 -19.6289 55.5664 -25.3906 56.7383 -30.0293 L 49.4141 -30.0293 C 37.9395 -30.0293 29.9805 -37.9883 29.9805 -49.6582 C 29.9805 -61.1816 37.9395 -69.2383 49.4141 -69.2383 L 105.762 -69.2383 C 117.236 -69.2383 125.195 -61.1816 125.195 -49.6582 C 125.195 -37.9883 117.236 -30.0293 105.762 -30.0293 L 100.049 -30.0293 C 90.2832 -29.248 90.2344 -13.0859 99.7559 -12.1582 L 106.494 -12.1582 C 128.32 -12.1582 143.945 -27.7344 143.945 -49.6582 C 143.945 -71.582 128.32 -87.1582 106.494 -87.1582 L 48.6816 -87.1582 C 26.8555 -87.1582 11.2793 -71.582 11.2793 -49.6582 C 11.2793 -27.7344 26.8555 -12.1582 48.6816 -12.1582 Z M 102.148 16.8457 L 159.961 16.8457 C 181.787 16.8457 197.412 1.26953 197.412 -20.6543 C 197.412 -42.5781 181.787 -58.1543 159.961 -58.1543 L 152.002 -58.1543 C 153.467 -50.6836 153.125 -44.9219 151.904 -40.2344 L 159.277 -40.2344 C 170.703 -40.2344 178.711 -32.2754 178.711 -20.6543 C 178.711 -9.08203 170.703 -1.07422 159.277 -1.07422 L 102.881 -1.07422 C 91.4551 -1.07422 83.4473 -9.08203 83.4473 -20.6543 C 83.4473 -32.2754 91.4551 -40.2344 102.881 -40.2344 L 108.643 -40.2344 C 118.359 -41.0645 118.408 -57.2266 108.887 -58.1543 L 102.148 -58.1543 C 80.3223 -58.1543 64.7461 -42.5781 64.7461 -20.6543 C 64.7461 1.26953 80.3223 16.8457 102.148 16.8457 Z"/>
  </g>
 </g>
</svg>
