<?xml version="1.0" encoding="UTF-8"?>
<!--Generator: Apple Native CoreSVG 123-->
<!DOCTYPE svg
PUBLIC "-//W3C//DTD SVG 1.1//EN"
       "http://www.w3.org/Graphics/SVG/1.1/DTD/svg11.dtd">
<svg version="1.1" xmlns="http://www.w3.org/2000/svg" xmlns:xlink="http://www.w3.org/1999/xlink" width="3300" height="2200">
 <!--glyph: "uni1003A6.medium", point size: 100.000000, font version: "Version 15.0d4e20", template writer version: "2"-->
 <g id="Notes">
  <rect height="2200" id="artboard" style="fill:white;opacity:1" width="3300" x="0" y="0"/>
  <line id="" style="fill:none;stroke:black;opacity:1;stroke-width:0.5;" x1="263" x2="3036" y1="292" y2="292"/>
  <text style="stroke:none;fill:black;font-family:-apple-system,&quot;SF Pro Display&quot;,&quot;SF Pro Text&quot;,Helvetica,sans-serif;font-weight:bold;" transform="matrix(1 0 0 1 263 322)">Weight/Scale Variations</text>
  <text style="stroke:none;fill:black;font-family:-apple-system,&quot;SF Pro Display&quot;,&quot;SF Pro Text&quot;,Helvetica,sans-serif;text-anchor:middle;" transform="matrix(1 0 0 1 559.711 322)">Ultralight</text>
  <text style="stroke:none;fill:black;font-family:-apple-system,&quot;SF Pro Display&quot;,&quot;SF Pro Text&quot;,Helvetica,sans-serif;text-anchor:middle;" transform="matrix(1 0 0 1 856.422 322)">Thin</text>
  <text style="stroke:none;fill:black;font-family:-apple-system,&quot;SF Pro Display&quot;,&quot;SF Pro Text&quot;,Helvetica,sans-serif;text-anchor:middle;" transform="matrix(1 0 0 1 1153.13 322)">Light</text>
  <text style="stroke:none;fill:black;font-family:-apple-system,&quot;SF Pro Display&quot;,&quot;SF Pro Text&quot;,Helvetica,sans-serif;text-anchor:middle;" transform="matrix(1 0 0 1 1449.84 322)">Regular</text>
  <text style="stroke:none;fill:black;font-family:-apple-system,&quot;SF Pro Display&quot;,&quot;SF Pro Text&quot;,Helvetica,sans-serif;text-anchor:middle;" transform="matrix(1 0 0 1 1746.56 322)">Medium</text>
  <text style="stroke:none;fill:black;font-family:-apple-system,&quot;SF Pro Display&quot;,&quot;SF Pro Text&quot;,Helvetica,sans-serif;text-anchor:middle;" transform="matrix(1 0 0 1 2043.27 322)">Semibold</text>
  <text style="stroke:none;fill:black;font-family:-apple-system,&quot;SF Pro Display&quot;,&quot;SF Pro Text&quot;,Helvetica,sans-serif;text-anchor:middle;" transform="matrix(1 0 0 1 2339.98 322)">Bold</text>
  <text style="stroke:none;fill:black;font-family:-apple-system,&quot;SF Pro Display&quot;,&quot;SF Pro Text&quot;,Helvetica,sans-serif;text-anchor:middle;" transform="matrix(1 0 0 1 2636.69 322)">Heavy</text>
  <text style="stroke:none;fill:black;font-family:-apple-system,&quot;SF Pro Display&quot;,&quot;SF Pro Text&quot;,Helvetica,sans-serif;text-anchor:middle;" transform="matrix(1 0 0 1 2933.4 322)">Black</text>
  <line id="" style="fill:none;stroke:black;opacity:1;stroke-width:0.5;" x1="263" x2="3036" y1="1903" y2="1903"/>
  <g id="" transform="matrix(1 0 0 1 263 1933)">
   <path d="M 9.24805 0.830078 C 13.5547 0.830078 17.1387 -2.74414 17.1387 -7.05078 C 17.1387 -11.3574 13.5449 -14.9316 9.23828 -14.9316 C 4.94141 -14.9316 1.36719 -11.3574 1.36719 -7.05078 C 1.36719 -2.74414 4.95117 0.830078 9.24805 0.830078 Z M 9.24805 -0.654297 C 5.70312 -0.654297 2.87109 -3.49609 2.87109 -7.05078 C 2.87109 -10.6055 5.69336 -13.4473 9.23828 -13.4473 C 12.793 -13.4473 15.6348 -10.6055 15.6445 -7.05078 C 15.6543 -3.49609 12.8027 -0.654297 9.24805 -0.654297 Z M 9.22852 -3.42773 C 9.69727 -3.42773 9.9707 -3.74023 9.9707 -4.25781 L 9.9707 -6.31836 L 12.1973 -6.31836 C 12.6953 -6.31836 13.0371 -6.57227 13.0371 -7.04102 C 13.0371 -7.51953 12.7148 -7.7832 12.1973 -7.7832 L 9.9707 -7.7832 L 9.9707 -10.0098 C 9.9707 -10.5273 9.69727 -10.8496 9.22852 -10.8496 C 8.75977 -10.8496 8.50586 -10.5078 8.50586 -10.0098 L 8.50586 -7.7832 L 6.29883 -7.7832 C 5.78125 -7.7832 5.44922 -7.51953 5.44922 -7.04102 C 5.44922 -6.57227 5.80078 -6.31836 6.29883 -6.31836 L 8.50586 -6.31836 L 8.50586 -4.25781 C 8.50586 -3.75977 8.75977 -3.42773 9.22852 -3.42773 Z"/>
  </g>
  <g id="" transform="matrix(1 0 0 1 281.506 1933)">
   <path d="M 11.709 2.91016 C 17.1484 2.91016 21.6699 -1.60156 21.6699 -7.05078 C 21.6699 -12.4902 17.1387 -17.0117 11.6992 -17.0117 C 6.25 -17.0117 1.74805 -12.4902 1.74805 -7.05078 C 1.74805 -1.60156 6.25977 2.91016 11.709 2.91016 Z M 11.709 1.25 C 7.09961 1.25 3.41797 -2.44141 3.41797 -7.05078 C 3.41797 -11.6504 7.08984 -15.3516 11.6992 -15.3516 C 16.2988 -15.3516 20 -11.6504 20.0098 -7.05078 C 20.0195 -2.44141 16.3086 1.25 11.709 1.25 Z M 11.6797 -2.41211 C 12.207 -2.41211 12.5195 -2.77344 12.5195 -3.33984 L 12.5195 -6.23047 L 15.5762 -6.23047 C 16.123 -6.23047 16.5039 -6.51367 16.5039 -7.03125 C 16.5039 -7.55859 16.1426 -7.86133 15.5762 -7.86133 L 12.5195 -7.86133 L 12.5195 -10.9277 C 12.5195 -11.5039 12.207 -11.8555 11.6797 -11.8555 C 11.1621 -11.8555 10.8789 -11.4844 10.8789 -10.9277 L 10.8789 -7.86133 L 7.83203 -7.86133 C 7.25586 -7.86133 6.89453 -7.55859 6.89453 -7.03125 C 6.89453 -6.51367 7.28516 -6.23047 7.83203 -6.23047 L 10.8789 -6.23047 L 10.8789 -3.33984 C 10.8789 -2.79297 11.1621 -2.41211 11.6797 -2.41211 Z"/>
  </g>
  <g id="" transform="matrix(1 0 0 1 304.914 1933)">
   <path d="M 14.9707 5.67383 C 21.9336 5.67383 27.6855 -0.078125 27.6855 -7.04102 C 27.6855 -14.0039 21.9238 -19.7559 14.9609 -19.7559 C 7.99805 -19.7559 2.25586 -14.0039 2.25586 -7.04102 C 2.25586 -0.078125 8.00781 5.67383 14.9707 5.67383 Z M 14.9707 3.85742 C 8.92578 3.85742 4.08203 -1.00586 4.08203 -7.04102 C 4.08203 -13.0762 8.91602 -17.9395 14.9609 -17.9395 C 20.9961 -17.9395 25.8594 -13.0762 25.8691 -7.04102 C 25.8789 -1.00586 21.0059 3.85742 14.9707 3.85742 Z M 14.9414 -1.06445 C 15.5176 -1.06445 15.8594 -1.45508 15.8594 -2.06055 L 15.8594 -6.13281 L 20.0977 -6.13281 C 20.6934 -6.13281 21.1133 -6.46484 21.1133 -7.02148 C 21.1133 -7.59766 20.7227 -7.93945 20.0977 -7.93945 L 15.8594 -7.93945 L 15.8594 -12.1875 C 15.8594 -12.8027 15.5176 -13.1934 14.9414 -13.1934 C 14.3848 -13.1934 14.0625 -12.7832 14.0625 -12.1875 L 14.0625 -7.93945 L 9.82422 -7.93945 C 9.20898 -7.93945 8.80859 -7.59766 8.80859 -7.02148 C 8.80859 -6.46484 9.23828 -6.13281 9.82422 -6.13281 L 14.0625 -6.13281 L 14.0625 -2.06055 C 14.0625 -1.47461 14.3848 -1.06445 14.9414 -1.06445 Z"/>
  </g>
  <text style="stroke:none;fill:black;font-family:-apple-system,&quot;SF Pro Display&quot;,&quot;SF Pro Text&quot;,Helvetica,sans-serif;font-weight:bold;" transform="matrix(1 0 0 1 263 1953)">Design Variations</text>
  <text style="stroke:none;fill:black;font-family:-apple-system,&quot;SF Pro Display&quot;,&quot;SF Pro Text&quot;,Helvetica,sans-serif;" transform="matrix(1 0 0 1 263 1971)">Symbols are supported in up to nine weights and three scales.</text>
  <text style="stroke:none;fill:black;font-family:-apple-system,&quot;SF Pro Display&quot;,&quot;SF Pro Text&quot;,Helvetica,sans-serif;" transform="matrix(1 0 0 1 263 1989)">For optimal layout with text and other symbols, vertically align</text>
  <text style="stroke:none;fill:black;font-family:-apple-system,&quot;SF Pro Display&quot;,&quot;SF Pro Text&quot;,Helvetica,sans-serif;" transform="matrix(1 0 0 1 263 2007)">symbols with the adjacent text.</text>
  <rect height="14" id="" style="fill:#00AEEF;stroke:none;opacity:0.4;" width="3" x="776" y="1919"/>
  <g id="" transform="matrix(1 0 0 1 779 1933)">
   <path d="M 10.5273 0 L 12.373 0 L 7.17773 -14.0918 L 5.43945 -14.0918 L 0.244141 0 L 2.08984 0 L 3.50586 -4.0332 L 9.11133 -4.0332 Z M 6.2793 -11.9531 L 6.33789 -11.9531 L 8.59375 -5.52734 L 4.02344 -5.52734 Z"/>
  </g>
  <rect height="14" id="" style="fill:#00AEEF;stroke:none;opacity:0.4;" width="3" x="791.617" y="1919"/>
  <text style="stroke:none;fill:black;font-family:-apple-system,&quot;SF Pro Display&quot;,&quot;SF Pro Text&quot;,Helvetica,sans-serif;font-weight:bold;" transform="matrix(1 0 0 1 776 1953)">Side Bearings</text>
  <text style="stroke:none;fill:black;font-family:-apple-system,&quot;SF Pro Display&quot;,&quot;SF Pro Text&quot;,Helvetica,sans-serif;" transform="matrix(1 0 0 1 776 1971)">Horizontal padding on the left and right side of each symbol</text>
  <text style="stroke:none;fill:black;font-family:-apple-system,&quot;SF Pro Display&quot;,&quot;SF Pro Text&quot;,Helvetica,sans-serif;" transform="matrix(1 0 0 1 776 1989)">can be adjusted by modifying the width of the blue rectangles.</text>
  <text style="stroke:none;fill:black;font-family:-apple-system,&quot;SF Pro Display&quot;,&quot;SF Pro Text&quot;,Helvetica,sans-serif;" transform="matrix(1 0 0 1 776 2007)">Modifications are automatically applied proportionally to all</text>
  <text style="stroke:none;fill:black;font-family:-apple-system,&quot;SF Pro Display&quot;,&quot;SF Pro Text&quot;,Helvetica,sans-serif;" transform="matrix(1 0 0 1 776 2025)">scales and weights.</text>
  <g id="" transform="matrix(1 0 0 1 1289 1933)">
   <path d="M 2.96875 2.35352 L 3.80859 3.19336 C 4.84375 4.22852 6.12305 4.15039 7.19727 2.97852 L 16.1621 -6.82617 C 16.5527 -6.74805 16.9629 -6.8457 17.4902 -7.02148 C 18.1738 -7.25586 18.2715 -7.25586 18.3887 -7.13867 C 18.5352 -7.01172 18.4863 -6.89453 18.2422 -6.25 C 17.8809 -5.33203 17.8125 -4.79492 18.5547 -4.02344 L 19.4238 -3.13477 C 20.2734 -2.24609 21.3281 -2.26562 22.2168 -3.14453 L 25.0586 -5.97656 C 25.9473 -6.86523 25.957 -7.92969 25.0781 -8.7793 L 24.1797 -9.64844 C 23.4082 -10.4004 22.8711 -10.3516 21.9629 -9.98047 C 21.3184 -9.72656 21.2012 -9.6875 21.0645 -9.81445 C 20.9375 -9.93164 20.9473 -10.0391 21.1816 -10.7129 C 21.5332 -11.6895 21.5723 -12.2852 20.752 -13.0957 L 19.3359 -14.5117 C 15.1953 -18.6133 11.2305 -18.7402 7.65625 -15.4395 C 7.08008 -14.9023 6.99219 -14.1504 7.53906 -13.6133 L 7.79297 -13.3594 C 8.22266 -12.9297 8.86719 -12.8418 9.41406 -13.1152 C 11.0645 -13.9453 12.2559 -14.0234 13.457 -12.9785 L 13.0273 -11.416 C 12.8516 -10.8008 12.793 -10.3418 12.9199 -9.93164 L 3.18359 -1.04492 C 2.02148 0.0292969 1.93359 1.32812 2.96875 2.35352 Z M 8.96484 -14.4922 C 8.89648 -14.5703 8.86719 -14.6582 8.99414 -14.7559 C 11.709 -17.2852 15.0391 -16.8457 18.3496 -13.5254 L 19.6973 -12.168 C 20.0879 -11.7773 20.0977 -11.582 19.8828 -10.8691 C 19.6582 -10.127 19.502 -9.53125 20.1465 -8.88672 C 20.8105 -8.22266 21.2891 -8.41797 22.207 -8.63281 C 22.9004 -8.79883 23.0664 -8.79883 23.4473 -8.41797 L 24.0918 -7.77344 C 24.4043 -7.48047 24.4141 -7.32422 24.0723 -6.97266 L 21.2207 -4.13086 C 20.8887 -3.79883 20.7227 -3.79883 20.4297 -4.10156 L 19.7852 -4.75586 C 19.4141 -5.13672 19.4141 -5.30273 19.5801 -6.01562 C 19.7852 -6.88477 19.9805 -7.38281 19.3262 -8.04688 C 18.6719 -8.7207 18.0762 -8.57422 17.3438 -8.33008 C 16.5625 -8.06641 16.3281 -8.06641 15.8984 -8.49609 L 14.6094 -9.78516 C 14.1699 -10.2246 14.1309 -10.4395 14.2676 -10.9082 L 15.0293 -13.3984 C 13.3887 -15.2832 11.4941 -15.5566 9.20898 -14.4434 C 9.11133 -14.3945 9.04297 -14.4141 8.96484 -14.4922 Z M 3.96484 1.36719 C 3.52539 0.927734 3.54492 0.537109 4.14062 -0.00976562 L 13.7402 -8.81836 L 15 -7.55859 L 6.17188 2.02148 C 5.625 2.60742 5.24414 2.64648 4.79492 2.19727 Z"/>
  </g>
  <text style="stroke:none;fill:black;font-family:-apple-system,&quot;SF Pro Display&quot;,&quot;SF Pro Text&quot;,Helvetica,sans-serif;font-weight:bold;" transform="matrix(1 0 0 1 1289 1953)">Exporting</text>
  <text style="stroke:none;fill:black;font-family:-apple-system,&quot;SF Pro Display&quot;,&quot;SF Pro Text&quot;,Helvetica,sans-serif;" transform="matrix(1 0 0 1 1289 1971)">Symbols should be outlined when exporting to ensure the</text>
  <text style="stroke:none;fill:black;font-family:-apple-system,&quot;SF Pro Display&quot;,&quot;SF Pro Text&quot;,Helvetica,sans-serif;" transform="matrix(1 0 0 1 1289 1989)">design is preserved when submitting to Xcode.</text>
  <text id="template-version" style="stroke:none;fill:black;font-family:-apple-system,&quot;SF Pro Display&quot;,&quot;SF Pro Text&quot;,Helvetica,sans-serif;text-anchor:end;" transform="matrix(1 0 0 1 3036 1933)">Template v.0.1</text>
  <text style="stroke:none;fill:black;font-family:-apple-system,&quot;SF Pro Display&quot;,&quot;SF Pro Text&quot;,Helvetica,sans-serif;text-anchor:end;" transform="matrix(1 0 0 1 3036 1951)">Generated from pin</text>
  <text style="stroke:none;fill:black;font-family:-apple-system,&quot;SF Pro Display&quot;,&quot;SF Pro Text&quot;,Helvetica,sans-serif;text-anchor:end;" transform="matrix(1 0 0 1 3036 1969)">Typeset at 100 points</text>
  <text style="stroke:none;fill:black;font-family:-apple-system,&quot;SF Pro Display&quot;,&quot;SF Pro Text&quot;,Helvetica,sans-serif;" transform="matrix(1 0 0 1 263 726)">Small</text>
  <text style="stroke:none;fill:black;font-family:-apple-system,&quot;SF Pro Display&quot;,&quot;SF Pro Text&quot;,Helvetica,sans-serif;" transform="matrix(1 0 0 1 263 1156)">Medium</text>
  <text style="stroke:none;fill:black;font-family:-apple-system,&quot;SF Pro Display&quot;,&quot;SF Pro Text&quot;,Helvetica,sans-serif;" transform="matrix(1 0 0 1 263 1586)">Large</text>
 </g>
 <g id="Guides">
  <g id="H-reference" style="fill:#27AAE1;stroke:none;" transform="matrix(1 0 0 1 339 696)">
   <path d="M 54.9316 0 L 57.666 0 L 30.5664 -70.459 L 28.0762 -70.459 L 0.976562 0 L 3.66211 0 L 12.9395 -24.4629 L 45.7031 -24.4629 Z M 29.1992 -67.0898 L 29.4434 -67.0898 L 44.8242 -26.709 L 13.8184 -26.709 Z"/>
  </g>
  <line id="Baseline-S" style="fill:none;stroke:#27AAE1;opacity:1;stroke-width:0.577;" x1="263" x2="3036" y1="696" y2="696"/>
  <line id="Capline-S" style="fill:none;stroke:#27AAE1;opacity:1;stroke-width:0.577;" x1="263" x2="3036" y1="625.541" y2="625.541"/>
  <g id="H-reference" style="fill:#27AAE1;stroke:none;" transform="matrix(1 0 0 1 339 1126)">
   <path d="M 54.9316 0 L 57.666 0 L 30.5664 -70.459 L 28.0762 -70.459 L 0.976562 0 L 3.66211 0 L 12.9395 -24.4629 L 45.7031 -24.4629 Z M 29.1992 -67.0898 L 29.4434 -67.0898 L 44.8242 -26.709 L 13.8184 -26.709 Z"/>
  </g>
  <line id="Baseline-M" style="fill:none;stroke:#27AAE1;opacity:1;stroke-width:0.577;" x1="263" x2="3036" y1="1126" y2="1126"/>
  <line id="Capline-M" style="fill:none;stroke:#27AAE1;opacity:1;stroke-width:0.577;" x1="263" x2="3036" y1="1055.54" y2="1055.54"/>
  <g id="H-reference" style="fill:#27AAE1;stroke:none;" transform="matrix(1 0 0 1 339 1556)">
   <path d="M 54.9316 0 L 57.666 0 L 30.5664 -70.459 L 28.0762 -70.459 L 0.976562 0 L 3.66211 0 L 12.9395 -24.4629 L 45.7031 -24.4629 Z M 29.1992 -67.0898 L 29.4434 -67.0898 L 44.8242 -26.709 L 13.8184 -26.709 Z"/>
  </g>
  <line id="Baseline-L" style="fill:none;stroke:#27AAE1;opacity:1;stroke-width:0.577;" x1="263" x2="3036" y1="1556" y2="1556"/>
  <line id="Capline-L" style="fill:none;stroke:#27AAE1;opacity:1;stroke-width:0.577;" x1="263" x2="3036" y1="1485.54" y2="1485.54"/>
  <rect height="119.336" id="left-margin" style="fill:#00AEEF;stroke:none;opacity:0.4;" width="9.96094" x="1402.63" y="1030.79"/>
  <rect height="119.336" id="right-margin" style="fill:#00AEEF;stroke:none;opacity:0.4;" width="9.96094" x="1487.1" y="1030.79"/>
 </g>
 <g id="Symbols">
  <g id="Ultralight-S" transform="matrix(1 0 0 1 524.457 696)">
   <path d="M 11.7676 -20.8984 L 33.6426 -20.8984 L 33.6426 4.6875 C 33.6426 7.66602 34.7168 10.4004 35.2051 10.4004 C 35.7422 10.4004 36.8164 7.66602 36.8164 4.6875 L 36.8164 -20.8984 L 58.7891 -20.8984 C 60.3027 -20.8984 61.5234 -21.7285 61.5234 -23.3887 C 61.5234 -24.4629 60.9863 -25.3906 60.2539 -26.123 L 47.9004 -39.1602 C 47.4609 -39.5996 47.2168 -40.0879 47.3145 -40.8203 L 49.707 -59.3262 C 49.8047 -60.0098 49.8535 -60.6445 50.293 -60.9375 L 61.1816 -68.7012 C 62.2559 -69.4824 62.6953 -70.5078 62.6953 -71.4844 C 62.6953 -72.9492 61.5234 -74.3164 59.5703 -74.3164 L 10.9375 -74.3164 C 8.98438 -74.3164 7.8125 -72.9492 7.8125 -71.4844 C 7.8125 -70.5078 8.30078 -69.4824 9.375 -68.7012 L 20.2148 -60.9375 C 20.6543 -60.6445 20.7031 -60.0098 20.8008 -59.3262 L 23.2422 -40.8203 C 23.3398 -40.0879 23.0957 -39.5996 22.6074 -39.1602 L 10.3027 -26.123 C 9.52148 -25.3906 9.0332 -24.4629 9.0332 -23.3887 C 9.0332 -21.7285 10.2051 -20.8984 11.7676 -20.8984 Z M 12.3535 -23.0957 C 11.9141 -23.0957 11.6211 -23.3887 11.6211 -23.8281 C 11.6211 -24.2676 11.8652 -24.5605 12.1582 -24.9023 L 24.3164 -37.6465 C 25.293 -38.6719 25.5859 -39.502 25.4395 -40.7715 L 22.998 -59.375 C 22.8516 -60.6934 23.0469 -61.6211 21.875 -62.4512 L 10.791 -70.2637 C 10.4004 -70.5566 10.2051 -70.8984 10.2051 -71.2402 C 10.2051 -71.7773 10.5957 -72.1191 11.1328 -72.1191 L 59.4238 -72.1191 C 59.9121 -72.1191 60.3027 -71.7773 60.3027 -71.2402 C 60.3027 -70.8984 60.1074 -70.5566 59.7656 -70.2637 L 48.6328 -62.4512 C 47.4609 -61.6211 47.6562 -60.6934 47.5098 -59.375 L 45.0684 -40.7715 C 44.9219 -39.502 45.2637 -38.6719 46.1914 -37.6465 L 58.3496 -24.9023 C 58.6914 -24.5605 58.9355 -24.2676 58.9355 -23.8281 C 58.9355 -23.3887 58.6426 -23.0957 58.2031 -23.0957 Z"/>
  </g>
  <g id="Thin-S" transform="matrix(1 0 0 1 820.68 696)">
   <path d="M 12.1582 -20.5566 L 33.6426 -20.5566 L 33.6426 3.41797 C 33.6426 7.17773 35.1074 10.498 35.7422 10.498 C 36.377 10.498 37.793 7.17773 37.793 3.41797 L 37.793 -20.5566 L 59.3262 -20.5566 C 61.1816 -20.5566 62.5977 -21.6309 62.5977 -23.4863 C 62.5977 -24.7559 62.0605 -25.7324 61.1816 -26.6113 L 49.0723 -39.502 C 48.4863 -40.0879 48.1934 -40.625 48.291 -41.6016 L 50.5859 -58.7891 C 50.6836 -59.5215 50.7324 -60.1074 51.2695 -60.4492 L 61.7188 -67.9688 C 63.0859 -68.9453 63.6719 -70.2148 63.6719 -71.3867 C 63.6719 -73.1934 62.2559 -74.8047 60.0098 -74.8047 L 11.4746 -74.8047 C 9.22852 -74.8047 7.8125 -73.1934 7.8125 -71.3867 C 7.8125 -70.2148 8.39844 -68.9453 9.76562 -67.9688 L 20.2148 -60.4492 C 20.752 -60.1074 20.8008 -59.5215 20.8984 -58.7891 L 23.1934 -41.6016 C 23.3398 -40.625 22.998 -40.0879 22.4121 -39.502 L 10.3027 -26.6113 C 9.42383 -25.7324 8.88672 -24.7559 8.88672 -23.4863 C 8.88672 -21.6309 10.3027 -20.5566 12.1582 -20.5566 Z M 13.9648 -23.877 C 13.5254 -23.877 13.2812 -24.1211 13.2812 -24.5117 C 13.2812 -24.9023 13.4766 -25.1953 13.7695 -25.4883 L 25.293 -37.5488 C 26.3184 -38.623 26.6602 -39.5996 26.5137 -40.918 L 24.1211 -59.4727 C 23.9258 -60.8398 23.9746 -61.8164 22.8027 -62.6465 L 12.4512 -69.7754 C 12.1094 -70.0684 11.9629 -70.3613 11.9629 -70.7031 C 11.9629 -71.1914 12.3047 -71.4844 12.793 -71.4844 L 58.6914 -71.4844 C 59.1797 -71.4844 59.5215 -71.1914 59.5215 -70.7031 C 59.5215 -70.3613 59.375 -70.0684 59.0332 -69.7754 L 48.6816 -62.6465 C 47.5586 -61.8164 47.5586 -60.8398 47.3633 -59.4727 L 44.9707 -40.918 C 44.8242 -39.5996 45.166 -38.623 46.1914 -37.5488 L 57.7148 -25.4883 C 58.0078 -25.1953 58.2031 -24.9023 58.2031 -24.5117 C 58.2031 -24.1211 57.959 -23.877 57.5195 -23.877 Z"/>
  </g>
  <g id="Light-S" transform="matrix(1 0 0 1 1116.46 696)">
   <path d="M 12.9395 -19.873 L 33.6426 -19.873 L 33.6426 0.927734 C 33.6426 6.20117 35.8398 10.6934 36.6699 10.6934 C 37.5488 10.6934 39.7461 6.20117 39.7461 0.927734 L 39.7461 -19.873 L 60.4004 -19.873 C 62.8418 -19.873 64.6484 -21.3867 64.6484 -23.7305 C 64.6484 -25.2441 64.1113 -26.3672 63.0859 -27.4902 L 51.2695 -40.2344 C 50.5371 -41.0156 50.0488 -41.6016 50.2441 -43.0176 L 52.2949 -57.8125 C 52.3926 -58.5938 52.4902 -59.082 53.125 -59.5703 L 62.793 -66.5039 C 64.6973 -67.9199 65.5273 -69.6289 65.5273 -71.2402 C 65.5273 -73.584 63.6719 -75.6836 60.8398 -75.6836 L 12.5 -75.6836 C 9.7168 -75.6836 7.8125 -73.584 7.8125 -71.2402 C 7.8125 -69.6289 8.64258 -67.9199 10.5469 -66.5039 L 20.2148 -59.5703 C 20.8984 -59.082 20.9473 -58.5938 21.0449 -57.8125 L 23.0957 -43.0176 C 23.291 -41.6016 22.8027 -41.0156 22.0703 -40.2344 L 10.2539 -27.4902 C 9.22852 -26.3672 8.74023 -25.2441 8.74023 -23.7305 C 8.74023 -21.3867 10.498 -19.873 12.9395 -19.873 Z M 17.0898 -25.293 C 16.748 -25.293 16.5039 -25.5371 16.5039 -25.8789 C 16.5039 -26.123 16.6504 -26.3672 16.8945 -26.6113 L 27.0996 -37.3047 C 28.3203 -38.5254 28.8086 -39.7949 28.6133 -41.2109 L 26.2207 -59.668 C 26.0742 -61.1328 25.6836 -62.207 24.5605 -62.9883 L 15.7227 -68.8965 C 15.4297 -69.0918 15.3809 -69.3359 15.3809 -69.6289 C 15.3809 -70.0195 15.625 -70.2637 16.0156 -70.2637 L 57.3242 -70.2637 C 57.7148 -70.2637 57.959 -70.0195 57.959 -69.6289 C 57.959 -69.3359 57.9102 -69.0918 57.6172 -68.8965 L 48.7793 -62.9883 C 47.6562 -62.207 47.3145 -61.1328 47.1191 -59.668 L 44.7266 -41.2109 C 44.5801 -39.7949 45.0195 -38.5254 46.2402 -37.3047 L 56.4941 -26.6113 C 56.6895 -26.3672 56.8359 -26.123 56.8359 -25.8789 C 56.8359 -25.5371 56.5918 -25.293 56.25 -25.293 Z"/>
  </g>
  <g id="Regular-S" transform="matrix(1 0 0 1 1412.47 696)">
   <path d="M 13.5254 -19.3359 L 33.6426 -19.3359 L 33.6426 -0.976562 C 33.6426 5.51758 36.377 10.8398 37.4023 10.8398 C 38.4766 10.8398 41.2109 5.51758 41.2109 -0.976562 L 41.2109 -19.3359 L 61.2305 -19.3359 C 64.1113 -19.3359 66.1621 -21.1914 66.1621 -23.9258 C 66.1621 -25.6836 65.6738 -26.8555 64.502 -28.1738 L 52.9297 -40.7715 C 52.0508 -41.6992 51.5137 -42.334 51.7578 -44.0918 L 53.5645 -57.0801 C 53.6621 -57.9102 53.7598 -58.3496 54.541 -58.8379 L 63.623 -65.4297 C 65.9668 -67.1387 66.9434 -69.2383 66.9434 -71.0938 C 66.9434 -73.9258 64.6973 -76.3672 61.5234 -76.3672 L 13.2324 -76.3672 C 10.0586 -76.3672 7.8125 -73.9258 7.8125 -71.0938 C 7.8125 -69.2383 8.78906 -67.1387 11.1328 -65.4297 L 20.2148 -58.8379 C 20.9961 -58.3496 21.0938 -57.9102 21.1914 -57.0801 L 22.998 -44.0918 C 23.291 -42.334 22.6562 -41.6992 21.8262 -40.7715 L 10.2539 -28.1738 C 9.08203 -26.8555 8.59375 -25.6836 8.59375 -23.9258 C 8.59375 -21.1914 10.6445 -19.3359 13.5254 -19.3359 Z M 19.4336 -26.3672 C 19.1406 -26.3672 18.9453 -26.5625 18.9453 -26.8555 C 18.9453 -27.0996 19.043 -27.2949 19.2383 -27.4414 L 28.5156 -37.1582 C 29.834 -38.4766 30.3711 -39.9414 30.1758 -41.4062 L 27.832 -59.8145 C 27.6367 -61.3281 27.002 -62.5 25.8789 -63.2324 L 18.2129 -68.2129 C 17.9688 -68.4082 17.9688 -68.6035 17.9688 -68.7988 C 17.9688 -69.0918 18.1641 -69.2871 18.457 -69.2871 L 56.2988 -69.2871 C 56.5918 -69.2871 56.7871 -69.0918 56.7871 -68.7988 C 56.7871 -68.6035 56.7871 -68.4082 56.543 -68.2129 L 48.877 -63.2324 C 47.7539 -62.5 47.1191 -61.3281 46.9238 -59.8145 L 44.5801 -41.4062 C 44.3848 -39.9414 44.9219 -38.4766 46.2402 -37.1582 L 55.5176 -27.4414 C 55.7129 -27.2949 55.8105 -27.0996 55.8105 -26.8555 C 55.8105 -26.5625 55.6152 -26.3672 55.2734 -26.3672 Z"/>
  </g>
  <g id="Medium-S" transform="matrix(1 0 0 1 1707.96 696)">
   <path d="M 14.3066 -18.6523 L 34.375 -18.6523 L 34.375 0.0976562 C 34.375 5.76172 37.4512 11.7676 38.623 11.7676 C 39.7949 11.7676 42.8223 5.76172 42.8223 0.0976562 L 42.8223 -18.6523 L 62.8906 -18.6523 C 66.0156 -18.6523 68.3594 -20.8984 68.3594 -23.9746 C 68.3594 -25.8301 67.7734 -27.3438 66.4062 -28.8574 L 54.834 -41.4062 C 54.1016 -42.2363 53.6621 -42.8223 53.8574 -44.2871 L 55.4199 -56.3965 C 55.5176 -57.2754 55.7129 -57.666 56.4453 -58.2031 L 65.625 -64.7461 C 68.3594 -66.6992 69.3848 -68.9941 69.3848 -71.1914 C 69.3848 -74.3652 66.9434 -77.1484 63.2812 -77.1484 L 13.8672 -77.1484 C 10.2539 -77.1484 7.8125 -74.3652 7.8125 -71.1914 C 7.8125 -68.9941 8.78906 -66.6992 11.5723 -64.7461 L 20.752 -58.2031 C 21.4844 -57.666 21.6309 -57.2754 21.7285 -56.3965 L 23.3398 -44.2871 C 23.5352 -42.8223 23.0957 -42.2363 22.3633 -41.4062 L 10.791 -28.8574 C 9.375 -27.3438 8.83789 -25.8301 8.83789 -23.9746 C 8.83789 -20.8984 11.1816 -18.6523 14.3066 -18.6523 Z M 21.6309 -26.9043 C 21.2891 -26.9043 21.0938 -27.0996 21.0938 -27.4414 C 21.0938 -27.6367 21.1914 -27.832 21.3379 -27.9785 L 30.3223 -37.1582 C 31.543 -38.3789 32.0312 -39.6973 31.8359 -41.1621 L 29.834 -59.5703 C 29.6387 -61.1328 29.1016 -62.207 27.7832 -63.0859 L 20.6055 -67.7734 C 20.3613 -67.9688 20.3125 -68.1641 20.3125 -68.4082 C 20.3125 -68.7012 20.5566 -68.9453 20.8984 -68.9453 L 56.2988 -68.9453 C 56.6406 -68.9453 56.8359 -68.7012 56.8359 -68.4082 C 56.8359 -68.1641 56.8359 -67.9688 56.543 -67.7734 L 49.4141 -63.0859 C 48.0957 -62.207 47.5098 -61.1328 47.3633 -59.5703 L 45.3125 -41.1621 C 45.166 -39.6973 45.6543 -38.3789 46.875 -37.1582 L 55.8105 -27.9785 C 55.957 -27.832 56.1035 -27.6367 56.1035 -27.4414 C 56.1035 -27.0996 55.8594 -26.9043 55.5176 -26.9043 Z"/>
  </g>
  <g id="Semibold-S" transform="matrix(1 0 0 1 2003.74 696)">
   <path d="M 14.8926 -18.1641 L 34.9609 -18.1641 L 34.9609 0.927734 C 34.9609 5.95703 38.2812 12.4512 39.502 12.4512 C 40.7715 12.4512 44.0918 5.95703 44.0918 0.927734 L 44.0918 -18.1641 L 64.1602 -18.1641 C 67.4316 -18.1641 70.0195 -20.7031 70.0195 -24.0234 C 70.0195 -25.9766 69.4336 -27.6855 67.8711 -29.3457 L 56.2988 -41.8945 C 55.6152 -42.6758 55.3223 -43.1641 55.4688 -44.4336 L 56.8848 -55.9082 C 56.9824 -56.7871 57.1777 -57.1777 57.9102 -57.7148 L 67.1387 -64.209 C 70.2148 -66.3574 71.2402 -68.8477 71.2402 -71.2402 C 71.2402 -74.6582 68.6523 -77.7344 64.6484 -77.7344 L 14.3555 -77.7344 C 10.4004 -77.7344 7.8125 -74.6582 7.8125 -71.2402 C 7.8125 -68.8477 8.83789 -66.3574 11.9141 -64.209 L 21.1426 -57.7148 C 21.875 -57.1777 22.0703 -56.7871 22.168 -55.9082 L 23.584 -44.4336 C 23.7305 -43.1641 23.3887 -42.6758 22.7539 -41.8945 L 11.1816 -29.3457 C 9.61914 -27.6855 9.0332 -25.9766 9.0332 -24.0234 C 9.0332 -20.6543 11.6211 -18.1641 14.8926 -18.1641 Z M 23.3398 -27.2949 C 22.9492 -27.2949 22.7539 -27.5391 22.7539 -27.832 C 22.7539 -28.0273 22.8516 -28.2715 22.998 -28.418 L 31.6895 -37.1094 C 32.8613 -38.3301 33.252 -39.5508 33.1543 -40.918 L 31.3477 -59.375 C 31.2012 -60.9863 30.6641 -62.0117 29.1992 -62.9883 L 22.4609 -67.4805 C 22.2168 -67.627 22.168 -67.8711 22.168 -68.0664 C 22.168 -68.4082 22.4121 -68.6523 22.7539 -68.6523 L 56.2988 -68.6523 C 56.6406 -68.6523 56.8848 -68.4082 56.8848 -68.0664 C 56.8848 -67.8711 56.8359 -67.627 56.5918 -67.4805 L 49.8535 -62.9883 C 48.3398 -62.0117 47.8516 -60.9863 47.7051 -59.375 L 45.8984 -40.918 C 45.752 -39.5508 46.1914 -38.3301 47.3633 -37.1094 L 56.0547 -28.418 C 56.2012 -28.2715 56.2988 -28.0273 56.2988 -27.832 C 56.2988 -27.5391 56.0547 -27.2949 55.7129 -27.2949 Z"/>
  </g>
  <g id="Bold-S" transform="matrix(1 0 0 1 2299.23 696)">
   <path d="M 15.6738 -17.5293 L 35.7422 -17.5293 L 35.7422 2.00195 C 35.7422 6.25 39.3555 13.3789 40.7227 13.3789 C 42.0898 13.3789 45.7031 6.25 45.7031 2.00195 L 45.7031 -17.5293 L 65.8203 -17.5293 C 69.3359 -17.5293 72.168 -20.4102 72.168 -24.0723 C 72.168 -26.123 71.5332 -28.1738 69.7754 -30.0293 L 58.2031 -42.5781 C 57.666 -43.1641 57.5195 -43.6523 57.6172 -44.6777 L 58.7402 -55.2734 C 58.8379 -56.1523 59.082 -56.543 59.8633 -57.0312 L 69.1406 -63.4766 C 72.6562 -65.918 73.6816 -68.6035 73.6816 -71.2891 C 73.6816 -75.0977 70.8984 -78.5645 66.4551 -78.5645 L 15.0391 -78.5645 C 10.5957 -78.5645 7.8125 -75.0977 7.8125 -71.2891 C 7.8125 -68.6035 8.83789 -65.918 12.3535 -63.4766 L 21.6309 -57.0312 C 22.4121 -56.543 22.6562 -56.1523 22.7539 -55.2734 L 23.877 -44.6777 C 24.0234 -43.6523 23.8281 -43.1641 23.291 -42.5781 L 11.7188 -30.0293 C 9.96094 -28.1738 9.32617 -26.123 9.32617 -24.0723 C 9.32617 -20.3613 12.1582 -17.5293 15.6738 -17.5293 Z M 25.5371 -27.832 C 25.1465 -27.832 24.9023 -28.0762 24.9023 -28.418 C 24.9023 -28.6133 25 -28.8086 25.1465 -29.0039 L 33.4961 -37.1094 C 34.5703 -38.2324 34.9121 -39.3066 34.8145 -40.6738 L 33.3496 -59.1309 C 33.2031 -60.791 32.7637 -61.7676 31.1035 -62.8906 L 24.9023 -67.041 C 24.6094 -67.1875 24.5605 -67.4316 24.5605 -67.6758 C 24.5605 -68.0176 24.8047 -68.2617 25.1465 -68.2617 L 56.2988 -68.2617 C 56.6895 -68.2617 56.9336 -68.0176 56.9336 -67.6758 C 56.9336 -67.4316 56.8848 -67.1875 56.5918 -67.041 L 50.3906 -62.8906 C 48.7305 -61.7676 48.291 -60.791 48.1445 -59.1309 L 46.6797 -40.6738 C 46.582 -39.3066 46.875 -38.2324 47.998 -37.1094 L 56.3477 -29.0039 C 56.4941 -28.8086 56.5918 -28.6133 56.5918 -28.418 C 56.5918 -28.0762 56.3477 -27.832 55.957 -27.832 Z"/>
  </g>
  <g id="Heavy-S" transform="matrix(1 0 0 1 2594.16 696)">
   <path d="M 16.7969 -16.5527 L 36.8164 -16.5527 L 36.8164 3.56445 C 36.8164 6.64062 40.918 14.6973 42.4805 14.6973 C 44.043 14.6973 48.0957 6.64062 48.0957 3.56445 L 48.0957 -16.5527 L 68.2617 -16.5527 C 72.0703 -16.5527 75.3418 -20.0195 75.3418 -24.1699 C 75.3418 -26.3672 74.6094 -28.8574 72.5586 -31.0547 L 61.0352 -43.5059 C 60.6445 -43.9453 60.6445 -44.2871 60.6934 -44.9707 L 61.4746 -54.2969 C 61.5723 -55.2246 61.9141 -55.5664 62.6465 -56.0547 L 72.0703 -62.4512 C 76.2207 -65.2832 77.2461 -68.3105 77.2461 -71.3867 C 77.2461 -75.7324 74.1699 -79.7363 69.0918 -79.7363 L 15.9668 -79.7363 C 10.8398 -79.7363 7.8125 -75.7324 7.8125 -71.3867 C 7.8125 -68.3105 8.83789 -65.2832 12.9883 -62.4512 L 22.4121 -56.0547 C 23.1445 -55.5664 23.4863 -55.2246 23.584 -54.2969 L 24.3164 -44.9707 C 24.3652 -44.2871 24.4141 -43.9453 24.0234 -43.5059 L 12.5 -31.0547 C 10.4004 -28.8574 9.7168 -26.3672 9.7168 -24.1699 C 9.7168 -19.9707 12.9883 -16.5527 16.7969 -16.5527 Z M 28.7598 -28.5645 C 28.3203 -28.5645 28.0762 -28.8574 28.0762 -29.1992 C 28.0762 -29.3945 28.1738 -29.6387 28.3203 -29.7852 L 36.084 -37.1094 C 37.1094 -38.0859 37.3047 -38.916 37.2559 -40.2344 L 36.2793 -58.7891 C 36.1816 -60.498 35.8398 -61.3281 33.8379 -62.6953 L 28.418 -66.3574 C 28.125 -66.5527 28.0273 -66.7969 28.0273 -67.0898 C 28.0273 -67.4316 28.3203 -67.7246 28.7109 -67.7246 L 56.3477 -67.7246 C 56.7383 -67.7246 57.0312 -67.4316 57.0312 -67.0898 C 57.0312 -66.7969 56.9336 -66.5527 56.6406 -66.3574 L 51.2207 -62.6953 C 49.2188 -61.3281 48.877 -60.498 48.7793 -58.7891 L 47.8027 -40.2344 C 47.7051 -38.916 47.9492 -38.0859 48.9746 -37.1094 L 56.7383 -29.7852 C 56.8848 -29.6387 56.9824 -29.3945 56.9824 -29.1992 C 56.9824 -28.8574 56.7383 -28.5645 56.2988 -28.5645 Z"/>
  </g>
  <g id="Black-S" transform="matrix(1 0 0 1 2889.28 696)">
   <path d="M 17.8223 -15.6738 L 37.8418 -15.6738 L 37.8418 4.98047 C 37.8418 6.98242 42.334 15.8691 44.043 15.8691 C 45.752 15.8691 50.2441 6.98242 50.2441 4.98047 L 50.2441 -15.6738 L 70.4102 -15.6738 C 74.5117 -15.6738 78.1738 -19.6289 78.1738 -24.2188 C 78.1738 -26.6113 77.3926 -29.4434 75.0488 -31.9336 L 63.5254 -44.3848 C 63.2812 -44.6777 63.4766 -44.9219 63.4766 -45.2148 L 63.916 -53.418 C 64.0137 -54.3945 64.4043 -54.6875 65.1367 -55.1758 L 74.707 -61.5723 C 79.3945 -64.6973 80.4199 -68.0176 80.4199 -71.4844 C 80.4199 -76.2695 77.0996 -80.7617 71.4355 -80.7617 L 16.7969 -80.7617 C 11.084 -80.7617 7.8125 -76.2695 7.8125 -71.4844 C 7.8125 -68.0176 8.83789 -64.6973 13.5254 -61.5723 L 23.0957 -55.1758 C 23.8281 -54.6875 24.2188 -54.3945 24.3164 -53.418 L 24.7559 -45.2148 C 24.707 -44.9219 24.9512 -44.6777 24.707 -44.3848 L 13.1836 -31.9336 C 10.8398 -29.4434 10.0586 -26.6113 10.0586 -24.2188 C 10.0586 -19.5801 13.7207 -15.6738 17.8223 -15.6738 Z M 31.5918 -29.248 C 31.1035 -29.248 30.8594 -29.5898 30.8594 -29.9316 C 30.8594 -30.127 30.957 -30.3711 31.1035 -30.5176 L 38.4277 -37.1094 C 39.3555 -37.9883 39.4531 -38.623 39.4531 -39.8926 L 38.8672 -58.4961 C 38.7695 -60.2539 38.5254 -60.9863 36.2793 -62.5488 L 31.5918 -65.8203 C 31.25 -66.0156 31.1523 -66.2598 31.1523 -66.5527 C 31.1523 -66.8945 31.4453 -67.1875 31.8848 -67.1875 L 56.3477 -67.1875 C 56.7871 -67.1875 57.0801 -66.8945 57.0801 -66.5527 C 57.0801 -66.2598 56.9824 -66.0156 56.6406 -65.8203 L 51.9531 -62.5488 C 49.707 -60.9863 49.4629 -60.2539 49.3652 -58.4961 L 48.7793 -39.8926 C 48.7793 -38.623 48.877 -37.9883 49.8047 -37.1094 L 57.1289 -30.5176 C 57.2754 -30.3711 57.373 -30.127 57.373 -29.9316 C 57.373 -29.5898 57.1289 -29.248 56.6406 -29.248 Z"/>
  </g>
  <g id="Ultralight-M" transform="matrix(1 0 0 1 514.887 1126)">
   <path d="M 14.8438 -17.0898 L 42.9199 -17.0898 L 42.9199 16.2109 C 42.9199 19.6777 44.1406 22.9492 44.7754 22.9492 C 45.3613 22.9492 46.582 19.6777 46.582 16.2109 L 46.582 -17.0898 L 74.8047 -17.0898 C 76.6602 -17.0898 78.125 -18.0664 78.125 -20.0195 C 78.125 -21.3867 77.4414 -22.5098 76.5137 -23.4375 L 60.7422 -40.0879 C 60.1562 -40.625 59.8633 -41.2598 60.0098 -42.0898 L 63.1348 -66.1621 C 63.2324 -67.041 63.2812 -67.8223 63.8672 -68.2129 L 77.832 -78.2715 C 79.1504 -79.1992 79.6875 -80.3711 79.6875 -81.4941 C 79.6875 -83.3008 78.2715 -84.9609 75.8789 -84.9609 L 13.7695 -84.9609 C 11.377 -84.9609 9.96094 -83.3008 9.96094 -81.4941 C 9.96094 -80.3711 10.498 -79.1992 11.8164 -78.2715 L 25.7812 -68.2129 C 26.3672 -67.8223 26.416 -67.041 26.5625 -66.1621 L 29.6875 -42.0898 C 29.7852 -41.2598 29.4922 -40.625 28.9551 -40.0879 L 13.1348 -23.4375 C 12.207 -22.5098 11.5234 -21.3867 11.5234 -20.0195 C 11.5234 -18.0664 13.0371 -17.0898 14.8438 -17.0898 Z M 15.1367 -19.4824 C 14.5508 -19.4824 14.1602 -19.873 14.1602 -20.4102 C 14.1602 -20.9961 14.502 -21.3867 14.9414 -21.8262 L 30.7129 -38.3789 C 31.8848 -39.6484 32.2266 -40.625 32.0801 -42.2363 L 28.9551 -66.0645 C 28.7598 -67.6758 29.1016 -68.8477 27.5879 -69.873 L 13.1348 -80.127 C 12.5977 -80.4688 12.3535 -80.9082 12.3535 -81.4453 C 12.3535 -82.1289 12.8906 -82.5684 13.5742 -82.5684 L 76.123 -82.5684 C 76.8066 -82.5684 77.2949 -82.1289 77.2949 -81.4453 C 77.2949 -80.9082 77.0508 -80.4688 76.5625 -80.127 L 62.0605 -69.873 C 60.5957 -68.8477 60.8887 -67.6758 60.6934 -66.0645 L 57.6172 -42.2363 C 57.4219 -40.625 57.7637 -39.6484 58.9355 -38.3789 L 74.707 -21.8262 C 75.1465 -21.3867 75.4883 -20.9961 75.4883 -20.4102 C 75.4883 -19.873 75.0977 -19.4824 74.5605 -19.4824 Z"/>
  </g>
  <g id="Thin-M" transform="matrix(1 0 0 1 811.061 1126)">
   <path d="M 15.332 -16.6992 L 42.9199 -16.6992 L 42.9199 14.7461 C 42.9199 19.1406 44.5801 23.0469 45.3125 23.0469 C 46.0938 23.0469 47.7051 19.1406 47.7051 14.7461 L 47.7051 -16.6992 L 75.4395 -16.6992 C 77.6367 -16.6992 79.2969 -17.9199 79.2969 -20.166 C 79.2969 -21.6797 78.6133 -22.9004 77.5879 -23.9746 L 62.0117 -40.5273 C 61.3281 -41.1621 60.9863 -41.8457 61.1328 -42.9199 L 64.1113 -65.5762 C 64.209 -66.5039 64.3066 -67.2363 64.9414 -67.6758 L 78.4668 -77.4414 C 80.0781 -78.5645 80.7617 -80.0293 80.7617 -81.4453 C 80.7617 -83.5449 79.1016 -85.4492 76.3672 -85.4492 L 14.3555 -85.4492 C 11.6699 -85.4492 9.96094 -83.5449 9.96094 -81.4453 C 9.96094 -80.0293 10.6445 -78.5645 12.2559 -77.4414 L 25.7812 -67.6758 C 26.416 -67.2363 26.5137 -66.5039 26.6113 -65.5762 L 29.6387 -42.9199 C 29.7852 -41.8457 29.3945 -41.1621 28.7109 -40.5273 L 13.1348 -23.9746 C 12.1094 -22.9004 11.4258 -21.6797 11.4258 -20.166 C 11.4258 -17.9199 13.1348 -16.6992 15.332 -16.6992 Z M 16.9434 -20.3125 C 16.4062 -20.3125 16.0645 -20.6543 16.0645 -21.1914 C 16.0645 -21.7285 16.3574 -22.0703 16.748 -22.4609 L 31.7871 -38.2324 C 33.0566 -39.5996 33.4473 -40.7227 33.252 -42.3828 L 30.1758 -66.1621 C 29.9805 -67.8223 30.0781 -69.043 28.6133 -70.1172 L 15.0391 -79.5898 C 14.5508 -79.9316 14.3555 -80.3223 14.3555 -80.8105 C 14.3555 -81.4453 14.7949 -81.8359 15.4297 -81.8359 L 75.293 -81.8359 C 75.9277 -81.8359 76.416 -81.4453 76.416 -80.8105 C 76.416 -80.3223 76.1719 -79.9316 75.7324 -79.5898 L 62.1094 -70.1172 C 60.6445 -69.043 60.7422 -67.8223 60.5469 -66.1621 L 57.4707 -42.3828 C 57.2754 -40.7227 57.7148 -39.5996 58.9844 -38.2324 L 74.0234 -22.4609 C 74.4141 -22.0703 74.6582 -21.7285 74.6582 -21.1914 C 74.6582 -20.6543 74.3164 -20.3125 73.7793 -20.3125 Z"/>
  </g>
  <g id="Light-M" transform="matrix(1 0 0 1 1106.72 1126)">
   <path d="M 16.1621 -15.918 L 42.9199 -15.918 L 42.9199 11.9141 C 42.9199 18.0664 45.4102 23.291 46.4355 23.291 C 47.4121 23.291 49.9023 18.0664 49.9023 11.9141 L 49.9023 -15.918 L 76.6602 -15.918 C 79.541 -15.918 81.6406 -17.627 81.6406 -20.459 C 81.6406 -22.3145 80.957 -23.6328 79.7363 -24.9512 L 64.502 -41.3086 C 63.6719 -42.2363 63.1348 -42.9688 63.3301 -44.5801 L 66.0156 -64.4531 C 66.1621 -65.4297 66.2598 -66.1133 67.041 -66.6504 L 79.6875 -75.7812 C 81.9336 -77.3926 82.8613 -79.3945 82.8613 -81.25 C 82.8613 -84.0332 80.6641 -86.4746 77.3438 -86.4746 L 15.5273 -86.4746 C 12.1582 -86.4746 9.96094 -84.0332 9.96094 -81.25 C 9.96094 -79.3945 10.9375 -77.3926 13.1348 -75.7812 L 25.7812 -66.6504 C 26.6113 -66.1133 26.6602 -65.4297 26.8066 -64.4531 L 29.4922 -44.5801 C 29.7363 -42.9688 29.1992 -42.2363 28.3203 -41.3086 L 13.1348 -24.9512 C 11.8652 -23.6328 11.2305 -22.3145 11.2305 -20.459 C 11.2305 -17.627 13.3301 -15.918 16.1621 -15.918 Z M 20.5078 -21.9238 C 20.0195 -21.9238 19.7266 -22.2656 19.7266 -22.7051 C 19.7266 -23.0957 19.9219 -23.4375 20.2148 -23.7305 L 33.8379 -37.9883 C 35.3027 -39.502 35.8398 -40.9668 35.6445 -42.7246 L 32.5684 -66.3574 C 32.373 -68.1641 32.0801 -69.4824 30.6152 -70.5078 L 18.7012 -78.6133 C 18.3105 -78.8574 18.2129 -79.1992 18.2129 -79.5898 C 18.2129 -80.0781 18.5547 -80.4199 19.0918 -80.4199 L 73.7305 -80.4199 C 74.2676 -80.4199 74.6582 -80.0781 74.6582 -79.5898 C 74.6582 -79.1992 74.5117 -78.8574 74.1211 -78.6133 L 62.2559 -70.5078 C 60.791 -69.4824 60.4492 -68.1641 60.2539 -66.3574 L 57.1777 -42.7246 C 56.9824 -40.9668 57.5684 -39.502 58.9844 -37.9883 L 72.6074 -23.7305 C 72.9004 -23.4375 73.1445 -23.0957 73.1445 -22.7051 C 73.1445 -22.2656 72.8027 -21.9238 72.3633 -21.9238 Z"/>
  </g>
  <g id="Regular-M" transform="matrix(1 0 0 1 1402.63 1126)">
   <path d="M 16.8457 -15.2832 L 42.9199 -15.2832 L 42.9199 9.81445 C 42.9199 17.2363 46.0449 23.4863 47.2656 23.4863 C 48.4375 23.4863 51.5625 17.2363 51.5625 9.81445 L 51.5625 -15.2832 L 77.5879 -15.2832 C 80.957 -15.2832 83.3984 -17.4316 83.3984 -20.7031 C 83.3984 -22.7539 82.7637 -24.2188 81.3477 -25.7324 L 66.4062 -41.9434 C 65.3809 -43.0176 64.7461 -43.7988 64.9902 -45.8008 L 67.4805 -63.623 C 67.627 -64.6484 67.7246 -65.2344 68.6523 -65.8691 L 80.6152 -74.5605 C 83.3008 -76.5137 84.4727 -78.9062 84.4727 -81.1035 C 84.4727 -84.375 81.8359 -87.2559 78.0762 -87.2559 L 16.3574 -87.2559 C 12.5977 -87.2559 9.96094 -84.375 9.96094 -81.1035 C 9.96094 -78.9062 11.1328 -76.5137 13.7695 -74.5605 L 25.7812 -65.8691 C 26.709 -65.2344 26.8066 -64.6484 26.9531 -63.623 L 29.4434 -45.8008 C 29.7363 -43.7988 29.0527 -43.0176 28.0273 -41.9434 L 13.0859 -25.7324 C 11.6699 -24.2188 11.0352 -22.7539 11.0352 -20.7031 C 11.0352 -17.4316 13.4766 -15.2832 16.8457 -15.2832 Z M 23.1934 -23.1445 C 22.7539 -23.1445 22.4609 -23.4375 22.4609 -23.877 C 22.4609 -24.1699 22.6562 -24.4629 22.9004 -24.707 L 35.4004 -37.793 C 37.0117 -39.4043 37.6465 -41.1621 37.4512 -42.9688 L 34.4238 -66.5039 C 34.1797 -68.4082 33.5449 -69.8242 32.1289 -70.8008 L 21.5332 -77.832 C 21.1914 -78.0762 21.0938 -78.3203 21.0938 -78.6621 C 21.0938 -79.1016 21.4355 -79.3945 21.875 -79.3945 L 72.5586 -79.3945 C 72.998 -79.3945 73.3398 -79.1016 73.3398 -78.6621 C 73.3398 -78.3203 73.2422 -78.0762 72.9004 -77.832 L 62.3047 -70.8008 C 60.8887 -69.8242 60.2539 -68.4082 60.0098 -66.5039 L 56.9824 -42.9688 C 56.7871 -41.1621 57.4219 -39.4043 58.9844 -37.793 L 71.5332 -24.707 C 71.7773 -24.4629 71.9238 -24.1699 71.9238 -23.877 C 71.9238 -23.4375 71.6797 -23.1445 71.2402 -23.1445 Z"/>
  </g>
  <g id="Medium-M" transform="matrix(1 0 0 1 1698 1126)">
   <path d="M 17.7246 -14.5508 L 43.7012 -14.5508 L 43.7012 10.6445 C 43.7012 17.4316 47.2168 24.4141 48.584 24.4141 C 49.9023 24.4141 53.418 17.4316 53.418 10.6445 L 53.418 -14.5508 L 79.3945 -14.5508 C 83.0566 -14.5508 85.791 -17.1387 85.791 -20.752 C 85.791 -22.9492 85.1074 -24.7559 83.4473 -26.5137 L 68.5547 -42.6758 C 67.6758 -43.6523 67.1387 -44.3848 67.3828 -46.1426 L 69.5801 -62.8418 C 69.6777 -63.916 69.873 -64.502 70.752 -65.0879 L 82.7637 -73.6816 C 85.9375 -75.9277 87.1094 -78.6133 87.1094 -81.1523 C 87.1094 -84.8633 84.2773 -88.1348 79.9805 -88.1348 L 17.1387 -88.1348 C 12.8418 -88.1348 9.96094 -84.8633 9.96094 -81.1523 C 9.96094 -78.6133 11.1328 -75.9277 14.3066 -73.6816 L 26.3184 -65.0879 C 27.2461 -64.502 27.3926 -63.916 27.5391 -62.8418 L 29.7363 -46.1426 C 29.9805 -44.3848 29.4434 -43.6523 28.5156 -42.6758 L 13.623 -26.5137 C 11.9629 -24.7559 11.2793 -22.9492 11.2793 -20.752 C 11.2793 -17.0898 14.0625 -14.5508 17.7246 -14.5508 Z M 25.7324 -23.8281 C 25.293 -23.8281 25 -24.1211 25 -24.5605 C 25 -24.8535 25.1465 -25.1465 25.3906 -25.3906 L 37.4512 -37.7441 C 38.9648 -39.3066 39.5508 -40.918 39.3555 -42.7246 L 36.6699 -66.2598 C 36.4258 -68.2129 35.8398 -69.5801 34.2285 -70.7031 L 24.3164 -77.2949 C 23.9746 -77.5391 23.877 -77.832 23.877 -78.125 C 23.877 -78.5645 24.2188 -78.8574 24.6582 -78.8574 L 72.4609 -78.8574 C 72.9004 -78.8574 73.1934 -78.5645 73.1934 -78.125 C 73.1934 -77.832 73.1445 -77.5391 72.8027 -77.2949 L 62.8906 -70.7031 C 61.2305 -69.5801 60.6445 -68.2129 60.4492 -66.2598 L 57.7637 -42.7246 C 57.5684 -40.918 58.1543 -39.3066 59.668 -37.7441 L 71.7285 -25.3906 C 71.9238 -25.1465 72.1191 -24.8535 72.1191 -24.5605 C 72.1191 -24.1211 71.8262 -23.8281 71.3867 -23.8281 Z"/>
  </g>
  <g id="Semibold-M" transform="matrix(1 0 0 1 1993.68 1126)">
   <path d="M 18.3594 -14.0137 L 44.2871 -14.0137 L 44.2871 11.2793 C 44.2871 17.5781 48.0957 25.1465 49.5605 25.1465 C 51.0254 25.1465 54.834 17.5781 54.834 11.2793 L 54.834 -14.0137 L 80.7617 -14.0137 C 84.668 -14.0137 87.6465 -16.8945 87.6465 -20.8008 C 87.6465 -23.1445 86.9141 -25.1465 85.1074 -27.0996 L 70.2148 -43.2129 C 69.3848 -44.1406 68.9941 -44.8242 69.1895 -46.4355 L 71.1426 -62.2559 C 71.2891 -63.3301 71.4844 -63.916 72.4121 -64.502 L 84.4238 -72.998 C 87.9883 -75.5371 89.1602 -78.418 89.1602 -81.2012 C 89.1602 -85.2539 86.1328 -88.8184 81.4453 -88.8184 L 17.7246 -88.8184 C 12.9883 -88.8184 9.96094 -85.2539 9.96094 -81.2012 C 9.96094 -78.418 11.1816 -75.5371 14.6973 -72.998 L 26.7578 -64.502 C 27.6367 -63.916 27.8809 -63.3301 27.9785 -62.2559 L 29.9805 -46.4355 C 30.2246 -44.8242 29.7363 -44.1406 28.9062 -43.2129 L 14.0625 -27.0996 C 12.207 -25.1465 11.4746 -23.1445 11.4746 -20.8008 C 11.4746 -16.8457 14.502 -14.0137 18.3594 -14.0137 Z M 27.6855 -24.3652 C 27.2461 -24.3652 26.9531 -24.6582 26.9531 -25.0977 C 26.9531 -25.3906 27.0996 -25.6836 27.2949 -25.8789 L 38.9648 -37.7441 C 40.4785 -39.2578 41.0156 -40.7715 40.8203 -42.5293 L 38.3789 -66.1133 C 38.1836 -68.1152 37.5977 -69.3848 35.791 -70.6055 L 26.4648 -76.8555 C 26.0742 -77.0996 26.0254 -77.3926 26.0254 -77.7344 C 26.0254 -78.1738 26.3184 -78.4668 26.8066 -78.4668 L 72.3633 -78.4668 C 72.8027 -78.4668 73.1445 -78.1738 73.1445 -77.7344 C 73.1445 -77.3926 73.0469 -77.0996 72.7051 -76.8555 L 63.3301 -70.6055 C 61.5234 -69.3848 60.9863 -68.1152 60.791 -66.1133 L 58.3496 -42.5293 C 58.1543 -40.7715 58.6914 -39.2578 60.1562 -37.7441 L 71.8262 -25.8789 C 72.0703 -25.6836 72.2168 -25.3906 72.2168 -25.0977 C 72.2168 -24.6582 71.9238 -24.3652 71.4844 -24.3652 Z"/>
  </g>
  <g id="Bold-M" transform="matrix(1 0 0 1 2289.05 1126)">
   <path d="M 19.2383 -13.2324 L 45.0684 -13.2324 L 45.0684 12.1582 C 45.0684 17.7734 49.3164 26.123 50.9277 26.123 C 52.5391 26.123 56.7383 17.7734 56.7383 12.1582 L 56.7383 -13.2324 L 82.5684 -13.2324 C 86.7676 -13.2324 90.0879 -16.5527 90.0879 -20.8984 C 90.0879 -23.3887 89.3066 -25.7324 87.2559 -27.9297 L 72.4121 -43.9453 C 71.6797 -44.7754 71.3867 -45.3613 71.582 -46.7773 L 73.2422 -61.4746 C 73.3887 -62.5977 73.6816 -63.1348 74.5605 -63.7207 L 86.6211 -72.168 C 90.625 -74.9512 91.8945 -78.125 91.8945 -81.25 C 91.8945 -85.6934 88.623 -89.7461 83.3496 -89.7461 L 18.457 -89.7461 C 13.2324 -89.7461 9.96094 -85.6934 9.96094 -81.25 C 9.96094 -78.125 11.1816 -74.9512 15.2344 -72.168 L 27.2949 -63.7207 C 28.1738 -63.1348 28.4668 -62.5977 28.6133 -61.4746 L 30.2734 -46.7773 C 30.4688 -45.3613 30.1758 -44.7754 29.3945 -43.9453 L 14.5996 -27.9297 C 12.5488 -25.7324 11.7188 -23.3887 11.7188 -20.8984 C 11.7188 -16.5527 15.0879 -13.2324 19.2383 -13.2324 Z M 30.2734 -25.0488 C 29.7852 -25.0488 29.4922 -25.3418 29.4922 -25.7812 C 29.4922 -26.0742 29.6387 -26.3672 29.834 -26.5625 L 41.0156 -37.6953 C 42.4316 -39.1602 42.9199 -40.5273 42.7734 -42.2852 L 40.625 -65.8691 C 40.4785 -67.9199 39.9414 -69.1895 37.9395 -70.5078 L 29.2969 -76.3184 C 28.9062 -76.5625 28.8086 -76.8555 28.8086 -77.1973 C 28.8086 -77.6367 29.1504 -77.9785 29.6387 -77.9785 L 72.2168 -77.9785 C 72.7051 -77.9785 73.0469 -77.6367 73.0469 -77.1973 C 73.0469 -76.8555 72.9492 -76.5625 72.5586 -76.3184 L 63.916 -70.5078 C 61.9141 -69.1895 61.377 -67.9199 61.1816 -65.8691 L 59.082 -42.2852 C 58.9355 -40.5273 59.375 -39.1602 60.8398 -37.6953 L 72.0215 -26.5625 C 72.2168 -26.3672 72.3633 -26.0742 72.3633 -25.7812 C 72.3633 -25.3418 72.0703 -25.0488 71.582 -25.0488 Z"/>
  </g>
  <g id="Heavy-M" transform="matrix(1 0 0 1 2583.81 1126)">
   <path d="M 20.5078 -12.1582 L 46.1914 -12.1582 L 46.1914 13.3789 C 46.1914 18.0176 51.0254 27.4902 52.832 27.4902 C 54.6387 27.4902 59.4727 18.0176 59.4727 13.3789 L 59.4727 -12.1582 L 85.2539 -12.1582 C 89.7949 -12.1582 93.6523 -16.1133 93.6523 -20.9961 C 93.6523 -23.6816 92.7734 -26.5137 90.3809 -29.1016 L 75.6348 -45.0195 C 75 -45.7031 74.9023 -46.2402 75.0488 -47.2656 L 76.3184 -60.3516 C 76.416 -61.5234 76.8066 -62.0117 77.7344 -62.5977 L 89.7461 -70.8984 C 94.5312 -74.1211 95.8008 -77.7344 95.8008 -81.3477 C 95.8008 -86.4258 92.1387 -91.0645 86.1816 -91.0645 L 19.5801 -91.0645 C 13.623 -91.0645 9.96094 -86.4258 9.96094 -81.3477 C 9.96094 -77.7344 11.2305 -74.1211 16.0156 -70.8984 L 28.0273 -62.5977 C 28.9551 -62.0117 29.3457 -61.5234 29.4434 -60.3516 L 30.7129 -47.2656 C 30.8594 -46.2402 30.7617 -45.7031 30.127 -45.0195 L 15.3809 -29.1016 C 12.9883 -26.5137 12.1094 -23.6816 12.1094 -20.9961 C 12.1094 -16.0645 15.9668 -12.1582 20.5078 -12.1582 Z M 34.0332 -26.0254 C 33.4961 -26.0254 33.2031 -26.3672 33.2031 -26.8066 C 33.2031 -27.0996 33.3008 -27.3926 33.4961 -27.5879 L 43.9453 -37.6465 C 45.3125 -39.0137 45.6543 -40.1855 45.5566 -41.8945 L 43.9453 -65.5762 C 43.7988 -67.6758 43.3105 -68.7988 41.0156 -70.4102 L 33.3496 -75.5371 C 33.0078 -75.7812 32.8613 -76.123 32.8613 -76.416 C 32.8613 -76.8555 33.252 -77.1973 33.7402 -77.1973 L 72.0215 -77.1973 C 72.5098 -77.1973 72.9004 -76.8555 72.9004 -76.416 C 72.9004 -76.123 72.7539 -75.7812 72.4121 -75.5371 L 64.7461 -70.4102 C 62.4512 -68.7988 61.9629 -67.6758 61.8164 -65.5762 L 60.2051 -41.8945 C 60.1074 -40.1855 60.4492 -39.0137 61.8164 -37.6465 L 72.2656 -27.5879 C 72.4609 -27.3926 72.5586 -27.0996 72.5586 -26.8066 C 72.5586 -26.3672 72.2656 -26.0254 71.7285 -26.0254 Z"/>
  </g>
  <g id="Black-M" transform="matrix(1 0 0 1 2878.76 1126)">
   <path d="M 21.6797 -11.1816 L 47.2168 -11.1816 L 47.2168 14.502 C 47.2168 18.2617 52.5391 28.7598 54.5898 28.7598 C 56.5918 28.7598 61.9141 18.2617 61.9141 14.502 L 61.9141 -11.1816 L 87.5977 -11.1816 C 92.5293 -11.1816 96.8262 -15.7227 96.8262 -21.1426 C 96.8262 -24.0234 95.8984 -27.1973 93.1641 -30.127 L 78.4668 -45.9961 C 77.9785 -46.5332 78.0762 -46.9727 78.125 -47.7539 L 79.0039 -59.375 C 79.1504 -60.5469 79.5898 -60.9863 80.5176 -61.6211 L 92.5781 -69.7754 C 97.998 -73.3887 99.3164 -77.3438 99.3164 -81.3965 C 99.3164 -87.0605 95.3613 -92.2852 88.6719 -92.2852 L 20.6055 -92.2852 C 13.916 -92.2852 9.96094 -87.0605 9.96094 -81.3965 C 9.96094 -77.3438 11.2793 -73.3887 16.6992 -69.7754 L 28.7598 -61.6211 C 29.6875 -60.9863 30.127 -60.5469 30.2246 -59.375 L 31.1523 -47.7539 C 31.2012 -46.9727 31.2988 -46.5332 30.8105 -45.9961 L 16.1133 -30.127 C 13.3789 -27.1973 12.4512 -24.0234 12.4512 -21.1426 C 12.4512 -15.6738 16.6992 -11.1816 21.6797 -11.1816 Z M 37.3535 -26.9043 C 36.8164 -26.9043 36.4746 -27.2949 36.4746 -27.7344 C 36.4746 -27.9785 36.6211 -28.2715 36.8164 -28.4668 L 46.582 -37.6465 C 47.9004 -38.8672 48.1445 -39.8926 48.0957 -41.6016 L 46.875 -65.2832 C 46.7773 -67.4316 46.3379 -68.5059 43.75 -70.2637 L 37.0117 -74.8535 C 36.6699 -75.0977 36.5234 -75.3906 36.5234 -75.7324 C 36.5234 -76.1719 36.9141 -76.5137 37.4023 -76.5137 L 71.875 -76.5137 C 72.3633 -76.5137 72.7539 -76.1719 72.7539 -75.7324 C 72.7539 -75.3906 72.6074 -75.0977 72.2656 -74.8535 L 65.5273 -70.2637 C 62.9395 -68.5059 62.5 -67.4316 62.4023 -65.2832 L 61.1816 -41.6016 C 61.1328 -39.8926 61.377 -38.8672 62.6465 -37.6465 L 72.4609 -28.4668 C 72.6562 -28.2715 72.7539 -27.9785 72.7539 -27.7344 C 72.7539 -27.2949 72.4609 -26.9043 71.875 -26.9043 Z"/>
  </g>
  <g id="Ultralight-L" transform="matrix(1 0 0 1 502.094 1556)">
   <path d="M 18.9941 -12.0117 L 55.4199 -12.0117 L 55.4199 31.7871 C 55.4199 35.8887 56.7871 39.7949 57.5195 39.7949 C 58.252 39.7949 59.6191 35.8887 59.6191 31.7871 L 59.6191 -12.0117 L 96.2402 -12.0117 C 98.4863 -12.0117 100.293 -13.1348 100.293 -15.5762 C 100.293 -17.2363 99.4141 -18.6523 98.2422 -19.7754 L 77.7832 -41.3086 C 77.1484 -41.9922 76.7578 -42.7734 76.9043 -43.75 L 81.0059 -75.3906 C 81.1523 -76.5137 81.25 -77.5391 81.9336 -78.0273 L 100.195 -91.1133 C 101.709 -92.1875 102.344 -93.6035 102.344 -94.9707 C 102.344 -97.1191 100.635 -99.1699 97.7051 -99.1699 L 17.5293 -99.1699 C 14.5508 -99.1699 12.8906 -97.1191 12.8906 -94.9707 C 12.8906 -93.6035 13.5254 -92.1875 15.0391 -91.1133 L 33.3008 -78.0273 C 33.9844 -77.5391 34.0332 -76.5137 34.2285 -75.3906 L 38.3301 -43.75 C 38.4277 -42.7734 38.0859 -41.9922 37.4023 -41.3086 L 16.9922 -19.7754 C 15.8203 -18.6523 14.9414 -17.2363 14.9414 -15.5762 C 14.9414 -13.1348 16.748 -12.0117 18.9941 -12.0117 Z M 18.7012 -14.5508 C 17.9688 -14.5508 17.4805 -15.0391 17.4805 -15.7715 C 17.4805 -16.5527 17.9199 -17.041 18.5059 -17.627 L 39.1602 -39.3555 C 40.625 -40.918 41.0645 -42.1387 40.8203 -44.1895 L 36.8164 -74.9512 C 36.5723 -77.002 37.1094 -78.5156 35.1562 -79.8828 L 16.1133 -93.3594 C 15.4297 -93.8477 15.0879 -94.4336 15.0879 -95.1172 C 15.0879 -96.0449 15.7715 -96.6309 16.6992 -96.6309 L 98.5352 -96.6309 C 99.4629 -96.6309 100.146 -96.0449 100.146 -95.1172 C 100.146 -94.4336 99.7559 -93.8477 99.1211 -93.3594 L 80.0781 -79.8828 C 78.125 -78.5156 78.6621 -77.002 78.418 -74.9512 L 74.3652 -44.1895 C 74.1211 -42.1387 74.6094 -40.918 76.0742 -39.3555 L 96.7285 -17.627 C 97.3145 -17.041 97.7539 -16.5527 97.7539 -15.7715 C 97.7539 -15.0391 97.2656 -14.5508 96.4844 -14.5508 Z"/>
  </g>
  <g id="Thin-L" transform="matrix(1 0 0 1 798.219 1556)">
   <path d="M 19.4824 -11.5723 L 55.4199 -11.5723 L 55.4199 30.1758 C 55.4199 35.2539 57.2754 39.8926 58.1543 39.8926 C 59.0332 39.8926 60.8887 35.2539 60.8887 30.1758 L 60.8887 -11.5723 L 96.9238 -11.5723 C 99.5605 -11.5723 101.611 -12.9883 101.611 -15.7227 C 101.611 -17.5781 100.732 -19.0918 99.4629 -20.3613 L 79.248 -41.7969 C 78.4668 -42.5781 77.9785 -43.4082 78.1738 -44.6777 L 82.1289 -74.7559 C 82.2754 -75.8789 82.373 -76.9043 83.1543 -77.4414 L 100.879 -90.1855 C 102.734 -91.5527 103.564 -93.2129 103.564 -94.873 C 103.564 -97.4121 101.562 -99.7559 98.2422 -99.7559 L 18.2129 -99.7559 C 14.8926 -99.7559 12.8906 -97.4121 12.8906 -94.873 C 12.8906 -93.2129 13.6719 -91.5527 15.5273 -90.1855 L 33.3008 -77.4414 C 34.082 -76.9043 34.1309 -75.8789 34.3262 -74.7559 L 38.2324 -44.6777 C 38.4277 -43.4082 37.9883 -42.5781 37.207 -41.7969 L 16.9434 -20.3613 C 15.6738 -19.0918 14.7949 -17.5781 14.7949 -15.7227 C 14.7949 -12.9883 16.8457 -11.5723 19.4824 -11.5723 Z M 20.752 -15.4785 C 20.0684 -15.4785 19.5801 -15.9668 19.5801 -16.6504 C 19.5801 -17.334 19.9707 -17.8223 20.5078 -18.3594 L 40.332 -39.209 C 41.9434 -40.8691 42.4316 -42.2363 42.1875 -44.3848 L 38.1836 -75.0488 C 37.9395 -77.1973 38.2324 -78.7598 36.2793 -80.0781 L 18.2129 -92.7734 C 17.5781 -93.2617 17.2852 -93.7988 17.2852 -94.4336 C 17.2852 -95.2637 17.9199 -95.8008 18.75 -95.8008 L 97.6562 -95.8008 C 98.4863 -95.8008 99.1211 -95.2637 99.1211 -94.4336 C 99.1211 -93.7988 98.8281 -93.2617 98.1934 -92.7734 L 80.127 -80.0781 C 78.2227 -78.7598 78.4668 -77.1973 78.2227 -75.0488 L 74.2188 -44.3848 C 73.9746 -42.2363 74.5117 -40.8691 76.0742 -39.209 L 95.9473 -18.3594 C 96.4844 -17.8223 96.8262 -17.334 96.8262 -16.6504 C 96.8262 -15.9668 96.3867 -15.4785 95.6543 -15.4785 Z"/>
  </g>
  <g id="Light-L" transform="matrix(1 0 0 1 1093.76 1556)">
   <path d="M 20.459 -10.6934 L 55.4199 -10.6934 L 55.4199 27.002 C 55.4199 34.082 58.2031 40.1855 59.375 40.1855 C 60.5469 40.1855 63.3301 34.082 63.3301 27.002 L 63.3301 -10.6934 L 98.3398 -10.6934 C 101.709 -10.6934 104.199 -12.6953 104.199 -16.0645 C 104.199 -18.2617 103.369 -19.9219 101.855 -21.4844 L 82.0312 -42.6758 C 81.0059 -43.75 80.3711 -44.6289 80.6641 -46.4844 L 84.2773 -73.4863 C 84.4238 -74.707 84.5215 -75.6348 85.498 -76.2695 L 102.246 -88.3789 C 104.834 -90.2344 105.908 -92.5293 105.908 -94.6777 C 105.908 -97.9492 103.32 -100.879 99.3164 -100.879 L 19.4824 -100.879 C 15.4785 -100.879 12.8906 -97.9492 12.8906 -94.6777 C 12.8906 -92.5293 13.9648 -90.2344 16.5039 -88.3789 L 33.3008 -76.2695 C 34.2285 -75.6348 34.3262 -74.707 34.5215 -73.4863 L 38.1348 -46.4844 C 38.4277 -44.6289 37.7441 -43.75 36.7676 -42.6758 L 16.9434 -21.4844 C 15.4297 -19.9219 14.5508 -18.2617 14.5508 -16.0645 C 14.5508 -12.6953 17.0898 -10.6934 20.459 -10.6934 Z M 24.707 -17.2852 C 24.0723 -17.2852 23.6816 -17.7246 23.6816 -18.3594 C 23.6816 -18.8965 23.9746 -19.3359 24.4141 -19.7754 L 42.6758 -38.916 C 44.4336 -40.7715 45.1172 -42.5293 44.8242 -44.7266 L 40.8691 -75.293 C 40.625 -77.5391 40.4297 -79.248 38.5254 -80.5176 L 22.3633 -91.6504 C 21.8262 -92.041 21.6309 -92.5293 21.6309 -93.0664 C 21.6309 -93.7988 22.1191 -94.2383 22.8516 -94.2383 L 95.8984 -94.2383 C 96.6309 -94.2383 97.168 -93.7988 97.168 -93.0664 C 97.168 -92.5293 96.9727 -92.041 96.4355 -91.6504 L 80.2734 -80.5176 C 78.3691 -79.248 78.1738 -77.5391 77.8809 -75.293 L 73.9258 -44.7266 C 73.6816 -42.5293 74.3164 -40.7715 76.123 -38.916 L 94.3848 -19.7754 C 94.8242 -19.3359 95.1172 -18.8965 95.1172 -18.3594 C 95.1172 -17.7246 94.6777 -17.2852 94.043 -17.2852 Z"/>
  </g>
  <g id="Regular-L" transform="matrix(1 0 0 1 1389.57 1556)">
   <path d="M 21.1914 -10.0098 L 55.4199 -10.0098 L 55.4199 24.6094 C 55.4199 33.1543 58.8867 40.3809 60.3027 40.3809 C 61.6699 40.3809 65.1855 33.1543 65.1855 24.6094 L 65.1855 -10.0098 L 99.3652 -10.0098 C 103.271 -10.0098 106.152 -12.4512 106.152 -16.3086 C 106.152 -18.75 105.322 -20.5566 103.613 -22.3633 L 84.1309 -43.3594 C 82.959 -44.6289 82.2266 -45.6055 82.5195 -47.8516 L 85.8887 -72.5586 C 86.0352 -73.8281 86.1816 -74.6582 87.2559 -75.3906 L 103.271 -86.9629 C 106.348 -89.209 107.666 -91.9922 107.666 -94.5312 C 107.666 -98.3398 104.639 -101.709 100.146 -101.709 L 20.4102 -101.709 C 15.918 -101.709 12.8906 -98.3398 12.8906 -94.5312 C 12.8906 -91.9922 14.1602 -89.209 17.2363 -86.9629 L 33.3008 -75.3906 C 34.375 -74.6582 34.4727 -73.8281 34.668 -72.5586 L 38.0371 -47.8516 C 38.3789 -45.6055 37.5977 -44.6289 36.4258 -43.3594 L 16.9434 -22.3633 C 15.2344 -20.5566 14.4043 -18.75 14.4043 -16.3086 C 14.4043 -12.4512 17.2363 -10.0098 21.1914 -10.0098 Z M 27.6855 -18.6523 C 27.1484 -18.6523 26.7578 -19.043 26.7578 -19.6289 C 26.7578 -20.1172 27.002 -20.459 27.3438 -20.8496 L 44.4336 -38.7207 C 46.3379 -40.7227 47.1191 -42.7246 46.8262 -45.0195 L 42.9199 -75.4395 C 42.627 -77.832 42.0898 -79.5898 40.1855 -80.8594 L 25.4883 -90.8203 C 25 -91.1621 24.8535 -91.5527 24.8535 -91.9922 C 24.8535 -92.6758 25.293 -93.0664 25.9277 -93.0664 L 94.6289 -93.0664 C 95.2637 -93.0664 95.7031 -92.6758 95.7031 -91.9922 C 95.7031 -91.5527 95.5566 -91.1621 95.0684 -90.8203 L 80.3223 -80.8594 C 78.4668 -79.5898 77.9297 -77.832 77.6367 -75.4395 L 73.7305 -45.0195 C 73.4375 -42.7246 74.2188 -40.7227 76.123 -38.7207 L 93.1641 -20.8496 C 93.5547 -20.459 93.7988 -20.1172 93.7988 -19.6289 C 93.7988 -19.043 93.4082 -18.6523 92.8223 -18.6523 Z"/>
  </g>
  <g id="Medium-L" transform="matrix(1 0 0 1 1684.91 1556)">
   <path d="M 22.1191 -9.22852 L 56.1035 -9.22852 L 56.1035 24.9512 C 56.1035 33.1543 60.1074 41.3086 61.6699 41.3086 C 63.2324 41.3086 67.2363 33.1543 67.2363 24.9512 L 67.2363 -9.22852 L 101.172 -9.22852 C 105.518 -9.22852 108.74 -12.1094 108.74 -16.4062 C 108.74 -19.043 107.861 -21.1426 105.908 -23.2422 L 86.4746 -44.1895 C 85.4004 -45.3613 84.7168 -46.2891 85.0098 -48.4375 L 88.0859 -71.6797 C 88.2324 -72.998 88.4277 -73.7793 89.5508 -74.5605 L 105.42 -85.9375 C 109.082 -88.5254 110.449 -91.6504 110.449 -94.5801 C 110.449 -98.877 107.129 -102.686 102.002 -102.686 L 21.2891 -102.686 C 16.2109 -102.686 12.8906 -98.877 12.8906 -94.5801 C 12.8906 -91.6504 14.2578 -88.5254 17.8711 -85.9375 L 33.7891 -74.5605 C 34.8633 -73.7793 35.0586 -72.998 35.2051 -71.6797 L 38.2812 -48.4375 C 38.623 -46.2891 37.9395 -45.3613 36.8164 -44.1895 L 17.4316 -23.2422 C 15.4785 -21.1426 14.5996 -19.043 14.5996 -16.4062 C 14.5996 -12.1094 17.8223 -9.22852 22.1191 -9.22852 Z M 30.5664 -19.5312 C 29.9805 -19.5312 29.5898 -19.9219 29.5898 -20.5078 C 29.5898 -20.9473 29.834 -21.3379 30.1758 -21.6797 L 46.582 -38.623 C 48.4863 -40.5762 49.2188 -42.5781 48.9258 -44.8242 L 45.3125 -75.293 C 45.0684 -77.7344 44.4824 -79.4434 42.4316 -80.8594 L 28.6133 -90.1855 C 28.125 -90.4785 27.9785 -90.918 27.9785 -91.3574 C 27.9785 -91.9434 28.418 -92.3828 29.0527 -92.3828 L 94.2383 -92.3828 C 94.873 -92.3828 95.3125 -91.9434 95.3125 -91.3574 C 95.3125 -90.918 95.2148 -90.4785 94.7266 -90.1855 L 80.9082 -80.8594 C 78.8086 -79.4434 78.2715 -77.7344 77.9785 -75.293 L 74.3652 -44.8242 C 74.1211 -42.5781 74.8047 -40.5762 76.709 -38.623 L 93.1152 -21.6797 C 93.457 -21.3379 93.7012 -20.9473 93.7012 -20.5078 C 93.7012 -19.9219 93.3105 -19.5312 92.7246 -19.5312 Z"/>
  </g>
  <g id="Semibold-L" transform="matrix(1 0 0 1 1980.55 1556)">
   <path d="M 22.8516 -8.59375 L 56.6406 -8.59375 L 56.6406 25.2441 C 56.6406 33.1543 61.0352 41.9922 62.6953 41.9922 C 64.4043 41.9922 68.7988 33.1543 68.7988 25.2441 L 68.7988 -8.59375 L 102.588 -8.59375 C 107.178 -8.59375 110.693 -11.8652 110.693 -16.5039 C 110.693 -19.2871 109.766 -21.6309 107.666 -23.877 L 88.3301 -44.7754 C 87.2559 -45.9473 86.6699 -46.8262 86.9141 -48.877 L 89.7461 -70.9961 C 89.9414 -72.3633 90.1855 -73.1445 91.2598 -73.877 L 107.08 -85.1562 C 111.133 -87.9883 112.549 -91.3574 112.549 -94.5801 C 112.549 -99.2676 108.984 -103.467 103.467 -103.467 L 21.9727 -103.467 C 16.4551 -103.467 12.8906 -99.2676 12.8906 -94.5801 C 12.8906 -91.3574 14.3066 -87.9883 18.3594 -85.1562 L 34.1309 -73.877 C 35.2539 -73.1445 35.498 -72.3633 35.6445 -70.9961 L 38.5254 -48.877 C 38.8184 -46.8262 38.1836 -45.9473 37.1094 -44.7754 L 17.7734 -23.877 C 15.625 -21.6309 14.7461 -19.2871 14.7461 -16.5039 C 14.7461 -11.8164 18.2617 -8.59375 22.8516 -8.59375 Z M 32.8125 -20.166 C 32.1777 -20.166 31.8359 -20.6055 31.8359 -21.1426 C 31.8359 -21.582 32.0312 -21.9727 32.373 -22.2656 L 48.2422 -38.5742 C 50.1465 -40.5273 50.8301 -42.4316 50.5859 -44.6777 L 47.168 -75.1465 C 46.9238 -77.6367 46.3379 -79.3457 44.1406 -80.8105 L 31.0059 -89.6973 C 30.5176 -89.9902 30.3711 -90.3809 30.3711 -90.8203 C 30.3711 -91.4551 30.8105 -91.8457 31.4453 -91.8457 L 93.9941 -91.8457 C 94.5801 -91.8457 95.0684 -91.4551 95.0684 -90.8203 C 95.0684 -90.3809 94.9219 -89.9902 94.4336 -89.6973 L 81.2988 -80.8105 C 79.1016 -79.3457 78.5156 -77.6367 78.2227 -75.1465 L 74.8535 -44.6777 C 74.6094 -42.4316 75.293 -40.5273 77.1973 -38.5742 L 93.0664 -22.2656 C 93.4082 -21.9727 93.6035 -21.582 93.6035 -21.1426 C 93.6035 -20.6055 93.2617 -20.166 92.627 -20.166 Z"/>
  </g>
  <g id="Bold-L" transform="matrix(1 0 0 1 2275.87 1556)">
   <path d="M 23.7793 -7.76367 L 57.373 -7.76367 L 57.373 25.5859 C 57.373 33.1543 62.207 42.8711 64.1113 42.8711 C 65.9668 42.8711 70.8496 33.1543 70.8496 25.5859 L 70.8496 -7.76367 L 104.443 -7.76367 C 109.424 -7.76367 113.281 -11.5234 113.281 -16.6016 C 113.281 -19.5801 112.354 -22.2168 109.961 -24.7559 L 90.7227 -45.5566 C 89.6973 -46.6797 89.209 -47.5098 89.4531 -49.4141 L 91.9922 -70.1172 C 92.1387 -71.5332 92.4316 -72.2168 93.6035 -72.998 L 109.277 -84.082 C 113.867 -87.3047 115.381 -91.0156 115.381 -94.5801 C 115.381 -99.8047 111.475 -104.443 105.371 -104.443 L 22.8516 -104.443 C 16.748 -104.443 12.8906 -99.8047 12.8906 -94.5801 C 12.8906 -91.0156 14.3555 -87.3047 18.9453 -84.082 L 34.6191 -72.998 C 35.791 -72.2168 36.084 -71.5332 36.2305 -70.1172 L 38.7695 -49.4141 C 39.0625 -47.5098 38.5254 -46.6797 37.5 -45.5566 L 18.2617 -24.7559 C 15.918 -22.2168 14.9414 -19.5801 14.9414 -16.6016 C 14.9414 -11.5234 18.7988 -7.76367 23.7793 -7.76367 Z M 35.6934 -21.0449 C 35.1074 -21.0449 34.7168 -21.4844 34.7168 -22.0215 C 34.7168 -22.4121 34.9121 -22.8027 35.2051 -23.0957 L 50.4395 -38.5254 C 52.2949 -40.4297 52.9297 -42.2363 52.7344 -44.5312 L 49.6582 -74.9512 C 49.4141 -77.5391 48.7793 -79.1992 46.3867 -80.8105 L 34.1309 -89.0137 C 33.6426 -89.3555 33.5449 -89.7461 33.5449 -90.1367 C 33.5449 -90.7227 33.9844 -91.1621 34.6191 -91.1621 L 93.6035 -91.1621 C 94.2383 -91.1621 94.6777 -90.7227 94.6777 -90.1367 C 94.6777 -89.7461 94.5801 -89.3555 94.0918 -89.0137 L 81.8359 -80.8105 C 79.4434 -79.1992 78.8574 -77.5391 78.5645 -74.9512 L 75.5371 -44.5312 C 75.293 -42.2363 75.9277 -40.4297 77.7832 -38.5254 L 93.0176 -23.0957 C 93.3105 -22.8027 93.5059 -22.4121 93.5059 -22.0215 C 93.5059 -21.4844 93.1152 -21.0449 92.5293 -21.0449 Z"/>
  </g>
  <g id="Heavy-L" transform="matrix(1 0 0 1 2570.55 1556)">
   <path d="M 25.1465 -6.5918 L 58.3984 -6.5918 L 58.3984 26.0742 C 58.3984 33.1543 64.0137 44.2383 66.1133 44.2383 C 68.2617 44.2383 73.8281 33.1543 73.8281 26.0742 L 73.8281 -6.5918 L 107.129 -6.5918 C 112.646 -6.5918 117.041 -11.0352 117.041 -16.7969 C 117.041 -20.0195 116.016 -23.1445 113.281 -26.0742 L 94.1895 -46.7285 C 93.2617 -47.8027 92.9199 -48.5352 93.1152 -50.293 L 95.2148 -68.8477 C 95.3613 -70.2637 95.752 -70.9473 96.9238 -71.7285 L 112.451 -82.5684 C 117.822 -86.2793 119.434 -90.4785 119.434 -94.6289 C 119.434 -100.537 115.088 -105.908 108.154 -105.908 L 24.1211 -105.908 C 17.1875 -105.908 12.8906 -100.537 12.8906 -94.6289 C 12.8906 -90.4785 14.4531 -86.2793 19.873 -82.5684 L 35.3516 -71.7285 C 36.5234 -70.9473 36.9141 -70.2637 37.0605 -68.8477 L 39.1602 -50.293 C 39.4043 -48.5352 39.0137 -47.8027 38.0859 -46.7285 L 18.9941 -26.0742 C 16.2598 -23.1445 15.2344 -20.0195 15.2344 -16.7969 C 15.2344 -10.9863 19.6289 -6.5918 25.1465 -6.5918 Z M 39.9414 -22.3145 C 39.3066 -22.3145 38.916 -22.7539 38.916 -23.291 C 38.916 -23.6816 39.1113 -24.0234 39.3555 -24.3164 L 53.5645 -38.4277 C 55.4199 -40.2344 56.0059 -41.9922 55.8105 -44.2383 L 53.1738 -74.707 C 52.9785 -77.3926 52.2949 -78.9551 49.6094 -80.7617 L 38.7207 -88.0859 C 38.2324 -88.3789 38.1348 -88.7695 38.1348 -89.1602 C 38.1348 -89.7461 38.5742 -90.1855 39.1602 -90.1855 L 93.1152 -90.1855 C 93.7012 -90.1855 94.1406 -89.7461 94.1406 -89.1602 C 94.1406 -88.7695 94.043 -88.3789 93.5547 -88.0859 L 82.666 -80.7617 C 79.9805 -78.9551 79.2969 -77.3926 79.1016 -74.707 L 76.4648 -44.2383 C 76.2695 -41.9922 76.8555 -40.2344 78.7109 -38.4277 L 92.9199 -24.3164 C 93.1641 -24.0234 93.3594 -23.6816 93.3594 -23.291 C 93.3594 -22.7539 92.9688 -22.3145 92.334 -22.3145 Z"/>
  </g>
  <g id="Black-L" transform="matrix(1 0 0 1 2865.46 1556)">
   <path d="M 26.3672 -5.56641 L 59.3262 -5.56641 L 59.3262 26.5137 C 59.3262 33.1543 65.5762 45.4102 67.9199 45.4102 C 70.2637 45.4102 76.5137 33.1543 76.5137 26.5137 L 76.5137 -5.56641 L 109.57 -5.56641 C 115.527 -5.56641 120.41 -10.6445 120.41 -16.9434 C 120.41 -20.4102 119.336 -23.9258 116.26 -27.1973 L 97.3145 -47.8027 C 96.4355 -48.7305 96.2402 -49.4629 96.3867 -51.0254 L 98.0957 -67.7246 C 98.2422 -69.1895 98.6816 -69.7754 99.9023 -70.6055 L 115.234 -81.2012 C 121.338 -85.4004 123.047 -90.0391 123.047 -94.6289 C 123.047 -101.221 118.311 -107.178 110.645 -107.178 L 25.2441 -107.178 C 17.5781 -107.178 12.8906 -101.221 12.8906 -94.6289 C 12.8906 -90.0391 14.5508 -85.4004 20.6543 -81.2012 L 35.9863 -70.6055 C 37.207 -69.7754 37.6465 -69.1895 37.8418 -67.7246 L 39.502 -51.0254 C 39.6973 -49.4629 39.4531 -48.7305 38.623 -47.8027 L 19.6289 -27.1973 C 16.5527 -23.9258 15.4785 -20.4102 15.4785 -16.9434 C 15.4785 -10.5469 20.4102 -5.56641 26.3672 -5.56641 Z M 43.7012 -23.4863 C 43.0664 -23.4863 42.6758 -23.9258 42.6758 -24.4629 C 42.6758 -24.7559 42.8223 -25.1465 43.0664 -25.3906 L 56.3965 -38.3301 C 58.252 -40.0879 58.7402 -41.7969 58.5938 -44.043 L 56.3477 -74.5117 C 56.1523 -77.2461 55.4688 -78.7598 52.5391 -80.7129 L 42.8223 -87.207 C 42.334 -87.5488 42.2363 -87.8906 42.2363 -88.2812 C 42.2363 -88.8184 42.6758 -89.2578 43.2617 -89.2578 L 92.627 -89.2578 C 93.2129 -89.2578 93.6523 -88.8184 93.6523 -88.2812 C 93.6523 -87.8906 93.5547 -87.5488 93.1152 -87.207 L 83.3496 -80.7129 C 80.4688 -78.7598 79.7363 -77.2461 79.541 -74.5117 L 77.2949 -44.043 C 77.1484 -41.7969 77.6855 -40.0879 79.4922 -38.3301 L 92.8223 -25.3906 C 93.0664 -25.1465 93.2129 -24.7559 93.2129 -24.4629 C 93.2129 -23.9258 92.8711 -23.4863 92.1875 -23.4863 Z"/>
  </g>
 </g>
</svg>
