<?xml version="1.0" encoding="UTF-8"?>
<!--Generator: Apple Native CoreSVG 123-->
<!DOCTYPE svg
PUBLIC "-//W3C//DTD SVG 1.1//EN"
       "http://www.w3.org/Graphics/SVG/1.1/DTD/svg11.dtd">
<svg version="1.1" xmlns="http://www.w3.org/2000/svg" xmlns:xlink="http://www.w3.org/1999/xlink" width="3300" height="2200">
 <!--glyph: "uni10044E.medium", point size: 100.000000, font version: "Version 15.0d4e20", template writer version: "2"-->
 <g id="Notes">
  <rect height="2200" id="artboard" style="fill:white;opacity:1" width="3300" x="0" y="0"/>
  <line id="" style="fill:none;stroke:black;opacity:1;stroke-width:0.5;" x1="263" x2="3036" y1="292" y2="292"/>
  <text style="stroke:none;fill:black;font-family:-apple-system,&quot;SF Pro Display&quot;,&quot;SF Pro Text&quot;,Helvetica,sans-serif;font-weight:bold;" transform="matrix(1 0 0 1 263 322)">Weight/Scale Variations</text>
  <text style="stroke:none;fill:black;font-family:-apple-system,&quot;SF Pro Display&quot;,&quot;SF Pro Text&quot;,Helvetica,sans-serif;text-anchor:middle;" transform="matrix(1 0 0 1 559.711 322)">Ultralight</text>
  <text style="stroke:none;fill:black;font-family:-apple-system,&quot;SF Pro Display&quot;,&quot;SF Pro Text&quot;,Helvetica,sans-serif;text-anchor:middle;" transform="matrix(1 0 0 1 856.422 322)">Thin</text>
  <text style="stroke:none;fill:black;font-family:-apple-system,&quot;SF Pro Display&quot;,&quot;SF Pro Text&quot;,Helvetica,sans-serif;text-anchor:middle;" transform="matrix(1 0 0 1 1153.13 322)">Light</text>
  <text style="stroke:none;fill:black;font-family:-apple-system,&quot;SF Pro Display&quot;,&quot;SF Pro Text&quot;,Helvetica,sans-serif;text-anchor:middle;" transform="matrix(1 0 0 1 1449.84 322)">Regular</text>
  <text style="stroke:none;fill:black;font-family:-apple-system,&quot;SF Pro Display&quot;,&quot;SF Pro Text&quot;,Helvetica,sans-serif;text-anchor:middle;" transform="matrix(1 0 0 1 1746.56 322)">Medium</text>
  <text style="stroke:none;fill:black;font-family:-apple-system,&quot;SF Pro Display&quot;,&quot;SF Pro Text&quot;,Helvetica,sans-serif;text-anchor:middle;" transform="matrix(1 0 0 1 2043.27 322)">Semibold</text>
  <text style="stroke:none;fill:black;font-family:-apple-system,&quot;SF Pro Display&quot;,&quot;SF Pro Text&quot;,Helvetica,sans-serif;text-anchor:middle;" transform="matrix(1 0 0 1 2339.98 322)">Bold</text>
  <text style="stroke:none;fill:black;font-family:-apple-system,&quot;SF Pro Display&quot;,&quot;SF Pro Text&quot;,Helvetica,sans-serif;text-anchor:middle;" transform="matrix(1 0 0 1 2636.69 322)">Heavy</text>
  <text style="stroke:none;fill:black;font-family:-apple-system,&quot;SF Pro Display&quot;,&quot;SF Pro Text&quot;,Helvetica,sans-serif;text-anchor:middle;" transform="matrix(1 0 0 1 2933.4 322)">Black</text>
  <line id="" style="fill:none;stroke:black;opacity:1;stroke-width:0.5;" x1="263" x2="3036" y1="1903" y2="1903"/>
  <g id="" transform="matrix(1 0 0 1 263 1933)">
   <path d="M 9.24805 0.830078 C 13.5547 0.830078 17.1387 -2.74414 17.1387 -7.05078 C 17.1387 -11.3574 13.5449 -14.9316 9.23828 -14.9316 C 4.94141 -14.9316 1.36719 -11.3574 1.36719 -7.05078 C 1.36719 -2.74414 4.95117 0.830078 9.24805 0.830078 Z M 9.24805 -0.654297 C 5.70312 -0.654297 2.87109 -3.49609 2.87109 -7.05078 C 2.87109 -10.6055 5.69336 -13.4473 9.23828 -13.4473 C 12.793 -13.4473 15.6348 -10.6055 15.6445 -7.05078 C 15.6543 -3.49609 12.8027 -0.654297 9.24805 -0.654297 Z M 9.22852 -3.42773 C 9.69727 -3.42773 9.9707 -3.74023 9.9707 -4.25781 L 9.9707 -6.31836 L 12.1973 -6.31836 C 12.6953 -6.31836 13.0371 -6.57227 13.0371 -7.04102 C 13.0371 -7.51953 12.7148 -7.7832 12.1973 -7.7832 L 9.9707 -7.7832 L 9.9707 -10.0098 C 9.9707 -10.5273 9.69727 -10.8496 9.22852 -10.8496 C 8.75977 -10.8496 8.50586 -10.5078 8.50586 -10.0098 L 8.50586 -7.7832 L 6.29883 -7.7832 C 5.78125 -7.7832 5.44922 -7.51953 5.44922 -7.04102 C 5.44922 -6.57227 5.80078 -6.31836 6.29883 -6.31836 L 8.50586 -6.31836 L 8.50586 -4.25781 C 8.50586 -3.75977 8.75977 -3.42773 9.22852 -3.42773 Z"/>
  </g>
  <g id="" transform="matrix(1 0 0 1 281.506 1933)">
   <path d="M 11.709 2.91016 C 17.1484 2.91016 21.6699 -1.60156 21.6699 -7.05078 C 21.6699 -12.4902 17.1387 -17.0117 11.6992 -17.0117 C 6.25 -17.0117 1.74805 -12.4902 1.74805 -7.05078 C 1.74805 -1.60156 6.25977 2.91016 11.709 2.91016 Z M 11.709 1.25 C 7.09961 1.25 3.41797 -2.44141 3.41797 -7.05078 C 3.41797 -11.6504 7.08984 -15.3516 11.6992 -15.3516 C 16.2988 -15.3516 20 -11.6504 20.0098 -7.05078 C 20.0195 -2.44141 16.3086 1.25 11.709 1.25 Z M 11.6797 -2.41211 C 12.207 -2.41211 12.5195 -2.77344 12.5195 -3.33984 L 12.5195 -6.23047 L 15.5762 -6.23047 C 16.123 -6.23047 16.5039 -6.51367 16.5039 -7.03125 C 16.5039 -7.55859 16.1426 -7.86133 15.5762 -7.86133 L 12.5195 -7.86133 L 12.5195 -10.9277 C 12.5195 -11.5039 12.207 -11.8555 11.6797 -11.8555 C 11.1621 -11.8555 10.8789 -11.4844 10.8789 -10.9277 L 10.8789 -7.86133 L 7.83203 -7.86133 C 7.25586 -7.86133 6.89453 -7.55859 6.89453 -7.03125 C 6.89453 -6.51367 7.28516 -6.23047 7.83203 -6.23047 L 10.8789 -6.23047 L 10.8789 -3.33984 C 10.8789 -2.79297 11.1621 -2.41211 11.6797 -2.41211 Z"/>
  </g>
  <g id="" transform="matrix(1 0 0 1 304.914 1933)">
   <path d="M 14.9707 5.67383 C 21.9336 5.67383 27.6855 -0.078125 27.6855 -7.04102 C 27.6855 -14.0039 21.9238 -19.7559 14.9609 -19.7559 C 7.99805 -19.7559 2.25586 -14.0039 2.25586 -7.04102 C 2.25586 -0.078125 8.00781 5.67383 14.9707 5.67383 Z M 14.9707 3.85742 C 8.92578 3.85742 4.08203 -1.00586 4.08203 -7.04102 C 4.08203 -13.0762 8.91602 -17.9395 14.9609 -17.9395 C 20.9961 -17.9395 25.8594 -13.0762 25.8691 -7.04102 C 25.8789 -1.00586 21.0059 3.85742 14.9707 3.85742 Z M 14.9414 -1.06445 C 15.5176 -1.06445 15.8594 -1.45508 15.8594 -2.06055 L 15.8594 -6.13281 L 20.0977 -6.13281 C 20.6934 -6.13281 21.1133 -6.46484 21.1133 -7.02148 C 21.1133 -7.59766 20.7227 -7.93945 20.0977 -7.93945 L 15.8594 -7.93945 L 15.8594 -12.1875 C 15.8594 -12.8027 15.5176 -13.1934 14.9414 -13.1934 C 14.3848 -13.1934 14.0625 -12.7832 14.0625 -12.1875 L 14.0625 -7.93945 L 9.82422 -7.93945 C 9.20898 -7.93945 8.80859 -7.59766 8.80859 -7.02148 C 8.80859 -6.46484 9.23828 -6.13281 9.82422 -6.13281 L 14.0625 -6.13281 L 14.0625 -2.06055 C 14.0625 -1.47461 14.3848 -1.06445 14.9414 -1.06445 Z"/>
  </g>
  <text style="stroke:none;fill:black;font-family:-apple-system,&quot;SF Pro Display&quot;,&quot;SF Pro Text&quot;,Helvetica,sans-serif;font-weight:bold;" transform="matrix(1 0 0 1 263 1953)">Design Variations</text>
  <text style="stroke:none;fill:black;font-family:-apple-system,&quot;SF Pro Display&quot;,&quot;SF Pro Text&quot;,Helvetica,sans-serif;" transform="matrix(1 0 0 1 263 1971)">Symbols are supported in up to nine weights and three scales.</text>
  <text style="stroke:none;fill:black;font-family:-apple-system,&quot;SF Pro Display&quot;,&quot;SF Pro Text&quot;,Helvetica,sans-serif;" transform="matrix(1 0 0 1 263 1989)">For optimal layout with text and other symbols, vertically align</text>
  <text style="stroke:none;fill:black;font-family:-apple-system,&quot;SF Pro Display&quot;,&quot;SF Pro Text&quot;,Helvetica,sans-serif;" transform="matrix(1 0 0 1 263 2007)">symbols with the adjacent text.</text>
  <rect height="14" id="" style="fill:#00AEEF;stroke:none;opacity:0.4;" width="3" x="776" y="1919"/>
  <g id="" transform="matrix(1 0 0 1 779 1933)">
   <path d="M 10.5273 0 L 12.373 0 L 7.17773 -14.0918 L 5.43945 -14.0918 L 0.244141 0 L 2.08984 0 L 3.50586 -4.0332 L 9.11133 -4.0332 Z M 6.2793 -11.9531 L 6.33789 -11.9531 L 8.59375 -5.52734 L 4.02344 -5.52734 Z"/>
  </g>
  <rect height="14" id="" style="fill:#00AEEF;stroke:none;opacity:0.4;" width="3" x="791.617" y="1919"/>
  <text style="stroke:none;fill:black;font-family:-apple-system,&quot;SF Pro Display&quot;,&quot;SF Pro Text&quot;,Helvetica,sans-serif;font-weight:bold;" transform="matrix(1 0 0 1 776 1953)">Side Bearings</text>
  <text style="stroke:none;fill:black;font-family:-apple-system,&quot;SF Pro Display&quot;,&quot;SF Pro Text&quot;,Helvetica,sans-serif;" transform="matrix(1 0 0 1 776 1971)">Horizontal padding on the left and right side of each symbol</text>
  <text style="stroke:none;fill:black;font-family:-apple-system,&quot;SF Pro Display&quot;,&quot;SF Pro Text&quot;,Helvetica,sans-serif;" transform="matrix(1 0 0 1 776 1989)">can be adjusted by modifying the width of the blue rectangles.</text>
  <text style="stroke:none;fill:black;font-family:-apple-system,&quot;SF Pro Display&quot;,&quot;SF Pro Text&quot;,Helvetica,sans-serif;" transform="matrix(1 0 0 1 776 2007)">Modifications are automatically applied proportionally to all</text>
  <text style="stroke:none;fill:black;font-family:-apple-system,&quot;SF Pro Display&quot;,&quot;SF Pro Text&quot;,Helvetica,sans-serif;" transform="matrix(1 0 0 1 776 2025)">scales and weights.</text>
  <g id="" transform="matrix(1 0 0 1 1289 1933)">
   <path d="M 2.96875 2.35352 L 3.80859 3.19336 C 4.84375 4.22852 6.12305 4.15039 7.19727 2.97852 L 16.1621 -6.82617 C 16.5527 -6.74805 16.9629 -6.8457 17.4902 -7.02148 C 18.1738 -7.25586 18.2715 -7.25586 18.3887 -7.13867 C 18.5352 -7.01172 18.4863 -6.89453 18.2422 -6.25 C 17.8809 -5.33203 17.8125 -4.79492 18.5547 -4.02344 L 19.4238 -3.13477 C 20.2734 -2.24609 21.3281 -2.26562 22.2168 -3.14453 L 25.0586 -5.97656 C 25.9473 -6.86523 25.957 -7.92969 25.0781 -8.7793 L 24.1797 -9.64844 C 23.4082 -10.4004 22.8711 -10.3516 21.9629 -9.98047 C 21.3184 -9.72656 21.2012 -9.6875 21.0645 -9.81445 C 20.9375 -9.93164 20.9473 -10.0391 21.1816 -10.7129 C 21.5332 -11.6895 21.5723 -12.2852 20.752 -13.0957 L 19.3359 -14.5117 C 15.1953 -18.6133 11.2305 -18.7402 7.65625 -15.4395 C 7.08008 -14.9023 6.99219 -14.1504 7.53906 -13.6133 L 7.79297 -13.3594 C 8.22266 -12.9297 8.86719 -12.8418 9.41406 -13.1152 C 11.0645 -13.9453 12.2559 -14.0234 13.457 -12.9785 L 13.0273 -11.416 C 12.8516 -10.8008 12.793 -10.3418 12.9199 -9.93164 L 3.18359 -1.04492 C 2.02148 0.0292969 1.93359 1.32812 2.96875 2.35352 Z M 8.96484 -14.4922 C 8.89648 -14.5703 8.86719 -14.6582 8.99414 -14.7559 C 11.709 -17.2852 15.0391 -16.8457 18.3496 -13.5254 L 19.6973 -12.168 C 20.0879 -11.7773 20.0977 -11.582 19.8828 -10.8691 C 19.6582 -10.127 19.502 -9.53125 20.1465 -8.88672 C 20.8105 -8.22266 21.2891 -8.41797 22.207 -8.63281 C 22.9004 -8.79883 23.0664 -8.79883 23.4473 -8.41797 L 24.0918 -7.77344 C 24.4043 -7.48047 24.4141 -7.32422 24.0723 -6.97266 L 21.2207 -4.13086 C 20.8887 -3.79883 20.7227 -3.79883 20.4297 -4.10156 L 19.7852 -4.75586 C 19.4141 -5.13672 19.4141 -5.30273 19.5801 -6.01562 C 19.7852 -6.88477 19.9805 -7.38281 19.3262 -8.04688 C 18.6719 -8.7207 18.0762 -8.57422 17.3438 -8.33008 C 16.5625 -8.06641 16.3281 -8.06641 15.8984 -8.49609 L 14.6094 -9.78516 C 14.1699 -10.2246 14.1309 -10.4395 14.2676 -10.9082 L 15.0293 -13.3984 C 13.3887 -15.2832 11.4941 -15.5566 9.20898 -14.4434 C 9.11133 -14.3945 9.04297 -14.4141 8.96484 -14.4922 Z M 3.96484 1.36719 C 3.52539 0.927734 3.54492 0.537109 4.14062 -0.00976562 L 13.7402 -8.81836 L 15 -7.55859 L 6.17188 2.02148 C 5.625 2.60742 5.24414 2.64648 4.79492 2.19727 Z"/>
  </g>
  <text style="stroke:none;fill:black;font-family:-apple-system,&quot;SF Pro Display&quot;,&quot;SF Pro Text&quot;,Helvetica,sans-serif;font-weight:bold;" transform="matrix(1 0 0 1 1289 1953)">Exporting</text>
  <text style="stroke:none;fill:black;font-family:-apple-system,&quot;SF Pro Display&quot;,&quot;SF Pro Text&quot;,Helvetica,sans-serif;" transform="matrix(1 0 0 1 1289 1971)">Symbols should be outlined when exporting to ensure the</text>
  <text style="stroke:none;fill:black;font-family:-apple-system,&quot;SF Pro Display&quot;,&quot;SF Pro Text&quot;,Helvetica,sans-serif;" transform="matrix(1 0 0 1 1289 1989)">design is preserved when submitting to Xcode.</text>
  <text id="template-version" style="stroke:none;fill:black;font-family:-apple-system,&quot;SF Pro Display&quot;,&quot;SF Pro Text&quot;,Helvetica,sans-serif;text-anchor:end;" transform="matrix(1 0 0 1 3036 1933)">Template v.0.1</text>
  <text style="stroke:none;fill:black;font-family:-apple-system,&quot;SF Pro Display&quot;,&quot;SF Pro Text&quot;,Helvetica,sans-serif;text-anchor:end;" transform="matrix(1 0 0 1 3036 1951)">Generated from plus.app.fill</text>
  <text style="stroke:none;fill:black;font-family:-apple-system,&quot;SF Pro Display&quot;,&quot;SF Pro Text&quot;,Helvetica,sans-serif;text-anchor:end;" transform="matrix(1 0 0 1 3036 1969)">Typeset at 100 points</text>
  <text style="stroke:none;fill:black;font-family:-apple-system,&quot;SF Pro Display&quot;,&quot;SF Pro Text&quot;,Helvetica,sans-serif;" transform="matrix(1 0 0 1 263 726)">Small</text>
  <text style="stroke:none;fill:black;font-family:-apple-system,&quot;SF Pro Display&quot;,&quot;SF Pro Text&quot;,Helvetica,sans-serif;" transform="matrix(1 0 0 1 263 1156)">Medium</text>
  <text style="stroke:none;fill:black;font-family:-apple-system,&quot;SF Pro Display&quot;,&quot;SF Pro Text&quot;,Helvetica,sans-serif;" transform="matrix(1 0 0 1 263 1586)">Large</text>
 </g>
 <g id="Guides">
  <g id="H-reference" style="fill:#27AAE1;stroke:none;" transform="matrix(1 0 0 1 339 696)">
   <path d="M 54.9316 0 L 57.666 0 L 30.5664 -70.459 L 28.0762 -70.459 L 0.976562 0 L 3.66211 0 L 12.9395 -24.4629 L 45.7031 -24.4629 Z M 29.1992 -67.0898 L 29.4434 -67.0898 L 44.8242 -26.709 L 13.8184 -26.709 Z"/>
  </g>
  <line id="Baseline-S" style="fill:none;stroke:#27AAE1;opacity:1;stroke-width:0.577;" x1="263" x2="3036" y1="696" y2="696"/>
  <line id="Capline-S" style="fill:none;stroke:#27AAE1;opacity:1;stroke-width:0.577;" x1="263" x2="3036" y1="625.541" y2="625.541"/>
  <g id="H-reference" style="fill:#27AAE1;stroke:none;" transform="matrix(1 0 0 1 339 1126)">
   <path d="M 54.9316 0 L 57.666 0 L 30.5664 -70.459 L 28.0762 -70.459 L 0.976562 0 L 3.66211 0 L 12.9395 -24.4629 L 45.7031 -24.4629 Z M 29.1992 -67.0898 L 29.4434 -67.0898 L 44.8242 -26.709 L 13.8184 -26.709 Z"/>
  </g>
  <line id="Baseline-M" style="fill:none;stroke:#27AAE1;opacity:1;stroke-width:0.577;" x1="263" x2="3036" y1="1126" y2="1126"/>
  <line id="Capline-M" style="fill:none;stroke:#27AAE1;opacity:1;stroke-width:0.577;" x1="263" x2="3036" y1="1055.54" y2="1055.54"/>
  <g id="H-reference" style="fill:#27AAE1;stroke:none;" transform="matrix(1 0 0 1 339 1556)">
   <path d="M 54.9316 0 L 57.666 0 L 30.5664 -70.459 L 28.0762 -70.459 L 0.976562 0 L 3.66211 0 L 12.9395 -24.4629 L 45.7031 -24.4629 Z M 29.1992 -67.0898 L 29.4434 -67.0898 L 44.8242 -26.709 L 13.8184 -26.709 Z"/>
  </g>
  <line id="Baseline-L" style="fill:none;stroke:#27AAE1;opacity:1;stroke-width:0.577;" x1="263" x2="3036" y1="1556" y2="1556"/>
  <line id="Capline-L" style="fill:none;stroke:#27AAE1;opacity:1;stroke-width:0.577;" x1="263" x2="3036" y1="1485.54" y2="1485.54"/>
  <rect height="119.336" id="left-margin" style="fill:#00AEEF;stroke:none;opacity:0.4;" width="12.4512" x="1392.96" y="1030.79"/>
  <rect height="119.336" id="right-margin" style="fill:#00AEEF;stroke:none;opacity:0.4;" width="12.4512" x="1494.28" y="1030.79"/>
 </g>
 <g id="Symbols">
  <g id="Ultralight-S" transform="matrix(1 0 0 1 516.84 696)">
   <path d="M 72.1191 -64.3555 C 69.1406 -67.2363 65.2344 -68.2617 57.6172 -68.2617 L 27.6855 -68.2617 C 20.6055 -68.2617 16.6016 -67.1875 13.7207 -64.3066 C 10.791 -61.377 9.76562 -57.4707 9.76562 -50.3418 L 9.76562 -20.459 C 9.76562 -12.7441 10.7422 -8.83789 13.6719 -6.00586 C 16.6016 -3.07617 20.5078 -2.05078 28.1738 -2.05078 L 57.6172 -2.05078 C 65.2344 -2.05078 69.1895 -3.07617 72.1191 -6.00586 C 75 -8.88672 75.9766 -12.7441 75.9766 -20.459 L 75.9766 -49.9023 C 75.9766 -57.5684 75 -61.4746 72.1191 -64.3555 Z M 42.8223 -13.2324 C 42.1875 -13.2324 41.6992 -13.8184 41.6992 -14.4043 L 41.6992 -33.9844 L 22.168 -33.9844 C 21.5332 -33.9844 20.9473 -34.5215 20.9473 -35.1074 C 20.9473 -35.8398 21.5332 -36.377 22.168 -36.377 L 41.6992 -36.377 L 41.6992 -55.8594 C 41.6992 -56.543 42.1875 -57.1289 42.8223 -57.1289 C 43.6035 -57.1289 44.0918 -56.543 44.0918 -55.8594 L 44.0918 -36.377 L 63.623 -36.377 C 64.2578 -36.377 64.8438 -35.8398 64.8438 -35.1074 C 64.8438 -34.5215 64.2578 -33.9844 63.623 -33.9844 L 44.0918 -33.9844 L 44.0918 -14.4043 C 44.0918 -13.8184 43.6035 -13.2324 42.8223 -13.2324 Z"/>
  </g>
  <g id="Thin-S" transform="matrix(1 0 0 1 813.063 696)">
   <path d="M 72.9004 -64.6973 C 69.6777 -67.8711 65.332 -68.7988 58.0078 -68.7988 L 28.3691 -68.7988 C 21.4355 -68.7988 17.041 -67.8223 13.8672 -64.6484 C 10.6934 -61.4746 9.76562 -57.1289 9.76562 -50.1953 L 9.76562 -20.5566 C 9.76562 -13.1836 10.6445 -8.83789 13.8184 -5.71289 C 17.041 -2.53906 21.3867 -1.61133 28.7109 -1.61133 L 58.0078 -1.61133 C 65.332 -1.61133 69.7266 -2.53906 72.9004 -5.71289 C 76.0742 -8.88672 76.9531 -13.1836 76.9531 -20.5566 L 76.9531 -49.8047 C 76.9531 -57.1777 76.0742 -61.5234 72.9004 -64.6973 Z M 43.3105 -13.0859 C 42.3828 -13.0859 41.6504 -13.916 41.6504 -14.7949 L 41.6504 -33.4961 L 22.998 -33.4961 C 22.0703 -33.4961 21.2891 -34.2773 21.2891 -35.1562 C 21.2891 -36.1328 22.0703 -36.9141 22.998 -36.9141 L 41.6504 -36.9141 L 41.6504 -55.5664 C 41.6504 -56.4941 42.3828 -57.2754 43.3105 -57.2754 C 44.3359 -57.2754 45.0684 -56.4941 45.0684 -55.5664 L 45.0684 -36.9141 L 63.7207 -36.9141 C 64.6484 -36.9141 65.4297 -36.1328 65.4297 -35.1562 C 65.4297 -34.2773 64.6484 -33.4961 63.7207 -33.4961 L 45.0684 -33.4961 L 45.0684 -14.7949 C 45.0684 -13.916 44.3359 -13.0859 43.3105 -13.0859 Z"/>
  </g>
  <g id="Light-S" transform="matrix(1 0 0 1 1108.87 696)">
   <path d="M 74.3652 -65.332 C 70.6543 -69.043 65.4785 -69.7266 58.7402 -69.7266 L 29.6387 -69.7266 C 23.0957 -69.7266 17.8711 -69.043 14.1602 -65.332 C 10.4492 -61.6211 9.76562 -56.4453 9.76562 -49.9023 L 9.76562 -20.8008 C 9.76562 -14.0137 10.4004 -8.88672 14.1113 -5.17578 C 17.8711 -1.46484 23.0469 -0.78125 29.7852 -0.78125 L 58.7402 -0.78125 C 65.4785 -0.78125 70.6543 -1.46484 74.3652 -5.17578 C 78.125 -8.88672 78.7598 -14.0137 78.7598 -20.8008 L 78.7598 -49.707 C 78.7598 -56.4453 78.125 -61.6211 74.3652 -65.332 Z M 44.2383 -12.9395 C 42.7246 -12.9395 41.5527 -14.1113 41.5527 -15.5762 L 41.5527 -32.5684 L 24.6094 -32.5684 C 23.1445 -32.5684 21.9238 -33.7891 21.9238 -35.2539 C 21.9238 -36.6699 23.1445 -37.9395 24.6094 -37.9395 L 41.5527 -37.9395 L 41.5527 -54.9316 C 41.5527 -56.3965 42.7246 -57.6172 44.2383 -57.6172 C 45.8008 -57.6172 46.9238 -56.3965 46.9238 -54.9316 L 46.9238 -37.9395 L 63.916 -37.9395 C 65.4297 -37.9395 66.6016 -36.6699 66.6016 -35.2539 C 66.6016 -33.7891 65.4297 -32.5684 63.916 -32.5684 L 46.9238 -32.5684 L 46.9238 -15.5762 C 46.9238 -14.1113 45.8008 -12.9395 44.2383 -12.9395 Z"/>
  </g>
  <g id="Regular-S" transform="matrix(1 0 0 1 1404.9 696)">
   <path d="M 75.5371 -65.8203 C 71.3867 -69.9707 65.5762 -70.459 59.2773 -70.459 L 30.6152 -70.459 C 24.3652 -70.459 18.5059 -69.9707 14.3555 -65.8203 C 10.2539 -61.7188 9.76562 -55.9082 9.76562 -49.6582 L 9.76562 -20.9473 C 9.76562 -14.6973 10.2539 -8.88672 14.3555 -4.73633 C 18.5059 -0.634766 24.3164 -0.0976562 30.6152 -0.0976562 L 59.2773 -0.0976562 C 65.5762 -0.0976562 71.3867 -0.634766 75.5371 -4.73633 C 79.6387 -8.88672 80.127 -14.6973 80.127 -20.9473 L 80.127 -49.6094 C 80.127 -55.9082 79.6387 -61.7188 75.5371 -65.8203 Z M 44.9219 -12.793 C 43.0176 -12.793 41.5039 -14.2578 41.5039 -16.1621 L 41.5039 -31.8848 L 25.8789 -31.8848 C 23.9258 -31.8848 22.4121 -33.4473 22.4121 -35.3027 C 22.4121 -37.1094 23.9258 -38.7207 25.8789 -38.7207 L 41.5039 -38.7207 L 41.5039 -54.4434 C 41.5039 -56.3477 43.0176 -57.8613 44.9219 -57.8613 C 46.875 -57.8613 48.3887 -56.3477 48.3887 -54.4434 L 48.3887 -38.7207 L 64.0625 -38.7207 C 66.0156 -38.7207 67.5293 -37.1094 67.5293 -35.3027 C 67.5293 -33.4473 66.0156 -31.8848 64.0625 -31.8848 L 48.3887 -31.8848 L 48.3887 -16.1621 C 48.3887 -14.2578 46.875 -12.793 44.9219 -12.793 Z"/>
  </g>
  <g id="Medium-S" transform="matrix(1 0 0 1 1701.05 696)">
   <path d="M 76.4648 -66.1621 C 72.3145 -70.2637 66.6504 -70.9961 59.7168 -70.9961 L 31.2988 -70.9961 C 24.3652 -70.9961 18.7012 -70.2637 14.5508 -66.1621 C 10.4492 -62.0605 9.76562 -56.4453 9.76562 -49.4629 L 9.76562 -21.0938 C 9.76562 -14.1113 10.4492 -8.49609 14.5508 -4.39453 C 18.7012 -0.292969 24.3652 0.488281 31.2988 0.488281 L 59.7168 0.488281 C 66.6504 0.488281 72.3145 -0.292969 76.4648 -4.39453 C 80.5664 -8.49609 81.25 -14.1113 81.25 -21.0938 L 81.25 -49.4629 C 81.25 -56.4453 80.5664 -62.0605 76.4648 -66.1621 Z M 45.5078 -13.3301 C 43.4082 -13.3301 41.748 -14.9902 41.748 -17.041 L 41.748 -31.543 L 27.3438 -31.543 C 25.2441 -31.543 23.584 -33.3008 23.584 -35.2539 C 23.584 -37.2559 25.2441 -39.0137 27.3438 -39.0137 L 41.748 -39.0137 L 41.748 -53.4668 C 41.748 -55.6152 43.4082 -57.2266 45.5078 -57.2266 C 47.6074 -57.2266 49.2676 -55.6152 49.2676 -53.4668 L 49.2676 -39.0137 L 63.7207 -39.0137 C 65.8203 -39.0137 67.4805 -37.2559 67.4805 -35.2539 C 67.4805 -33.3008 65.8203 -31.543 63.7207 -31.543 L 49.2676 -31.543 L 49.2676 -17.041 C 49.2676 -14.9902 47.6074 -13.3301 45.5078 -13.3301 Z"/>
  </g>
  <g id="Semibold-S" transform="matrix(1 0 0 1 1997.32 696)">
   <path d="M 77.1484 -66.4062 C 73.0469 -70.5078 67.4805 -71.4355 60.0098 -71.4355 L 31.8359 -71.4355 C 24.4141 -71.4355 18.8477 -70.5078 14.7461 -66.4062 C 10.6445 -62.3047 9.76562 -56.8359 9.76562 -49.3652 L 9.76562 -21.1914 C 9.76562 -13.6719 10.6445 -8.1543 14.7461 -4.10156 C 18.8477 0 24.4141 0.927734 31.8359 0.927734 L 60.0098 0.927734 C 67.4805 0.927734 73.0469 0 77.1484 -4.10156 C 81.25 -8.20312 82.1289 -13.6719 82.1289 -21.1914 L 82.1289 -49.3652 C 82.1289 -56.8359 81.25 -62.3535 77.1484 -66.4062 Z M 45.9473 -13.7695 C 43.7012 -13.7695 41.9434 -15.5273 41.9434 -17.7734 L 41.9434 -31.25 L 28.4668 -31.25 C 26.2207 -31.25 24.4629 -33.1543 24.4629 -35.2539 C 24.4629 -37.3535 26.2207 -39.2578 28.4668 -39.2578 L 41.9434 -39.2578 L 41.9434 -52.7344 C 41.9434 -55.0293 43.7012 -56.7871 45.9473 -56.7871 C 48.1934 -56.7871 49.9512 -55.0293 49.9512 -52.7344 L 49.9512 -39.2578 L 63.4277 -39.2578 C 65.6738 -39.2578 67.4316 -37.3535 67.4316 -35.2539 C 67.4316 -33.1543 65.6738 -31.25 63.4277 -31.25 L 49.9512 -31.25 L 49.9512 -17.7734 C 49.9512 -15.5273 48.1934 -13.7695 45.9473 -13.7695 Z"/>
  </g>
  <g id="Bold-S" transform="matrix(1 0 0 1 2293.47 696)">
   <path d="M 78.0762 -66.748 C 73.9746 -70.8008 68.5547 -71.9727 60.4492 -71.9727 L 32.5684 -71.9727 C 24.4629 -71.9727 18.9941 -70.8008 14.9414 -66.748 C 10.8887 -62.6953 9.76562 -57.373 9.76562 -49.1699 L 9.76562 -21.2891 C 9.76562 -13.1348 10.8887 -7.76367 14.9414 -3.71094 C 19.043 0.341797 24.4629 1.51367 32.5684 1.51367 L 60.4492 1.51367 C 68.5547 1.51367 73.9746 0.341797 78.0762 -3.71094 C 82.1289 -7.8125 83.252 -13.1348 83.252 -21.2891 L 83.252 -49.1699 C 83.252 -57.373 82.1289 -62.6953 78.0762 -66.748 Z M 46.4844 -14.3555 C 44.0918 -14.3555 42.1875 -16.2598 42.1875 -18.6523 L 42.1875 -30.9082 L 29.9805 -30.9082 C 27.5391 -30.9082 25.6348 -33.0078 25.6348 -35.2539 C 25.6348 -37.5 27.5391 -39.5508 29.9805 -39.5508 L 42.1875 -39.5508 L 42.1875 -51.8066 C 42.1875 -54.248 44.0918 -56.1523 46.4844 -56.1523 C 48.9258 -56.1523 50.8301 -54.248 50.8301 -51.8066 L 50.8301 -39.5508 L 63.0371 -39.5508 C 65.4785 -39.5508 67.3828 -37.5 67.3828 -35.2539 C 67.3828 -33.0078 65.4785 -30.9082 63.0371 -30.9082 L 50.8301 -30.9082 L 50.8301 -18.6523 C 50.8301 -16.2598 48.9258 -14.3555 46.4844 -14.3555 Z"/>
  </g>
  <g id="Heavy-S" transform="matrix(1 0 0 1 2589.35 696)">
   <path d="M 79.3945 -67.2363 C 75.293 -71.2891 70.166 -72.7539 61.084 -72.7539 L 33.5938 -72.7539 C 24.5117 -72.7539 19.2871 -71.2891 15.2344 -67.2363 C 11.2305 -63.1836 9.76562 -58.1055 9.76562 -48.9746 L 9.76562 -21.4844 C 9.76562 -12.3047 11.2305 -7.17773 15.2344 -3.17383 C 19.3359 0.878906 24.5117 2.34375 33.5938 2.34375 L 61.084 2.34375 C 70.166 2.34375 75.3418 0.878906 79.3945 -3.17383 C 83.4473 -7.22656 84.9121 -12.3047 84.9121 -21.4844 L 84.9121 -48.9258 C 84.9121 -58.1055 83.4473 -63.2324 79.3945 -67.2363 Z M 47.3145 -15.1855 C 44.6289 -15.1855 42.5781 -17.2852 42.5781 -20.0195 L 42.5781 -30.4199 L 32.1777 -30.4199 C 29.4922 -30.4199 27.3438 -32.7637 27.3438 -35.2051 C 27.3438 -37.6953 29.4922 -39.9902 32.1777 -39.9902 L 42.5781 -39.9902 L 42.5781 -50.3906 C 42.5781 -53.125 44.6289 -55.2246 47.3145 -55.2246 C 50.0488 -55.2246 52.0996 -53.125 52.0996 -50.3906 L 52.0996 -39.9902 L 62.5 -39.9902 C 65.1855 -39.9902 67.2852 -37.6953 67.2852 -35.2051 C 67.2852 -32.7637 65.1855 -30.4199 62.5 -30.4199 L 52.0996 -30.4199 L 52.0996 -20.0195 C 52.0996 -17.2852 50.0488 -15.1855 47.3145 -15.1855 Z"/>
  </g>
  <g id="Black-S" transform="matrix(1 0 0 1 2885.33 696)">
   <path d="M 80.6152 -67.6758 C 76.5137 -71.6797 71.582 -73.4863 61.6211 -73.4863 L 34.5215 -73.4863 C 24.5605 -73.4863 19.5312 -71.6797 15.5273 -67.6758 C 11.5234 -63.6719 9.76562 -58.7891 9.76562 -48.7305 L 9.76562 -21.6309 C 9.76562 -11.5723 11.5234 -6.64062 15.5273 -2.68555 C 19.5801 1.31836 24.5605 3.125 34.5215 3.125 L 61.6211 3.125 C 71.582 3.125 76.6113 1.31836 80.6152 -2.68555 C 84.6191 -6.68945 86.377 -11.5723 86.377 -21.6309 L 86.377 -48.7305 C 86.377 -58.7891 84.6191 -63.7207 80.6152 -67.6758 Z M 48.0469 -15.918 C 45.1172 -15.918 42.8711 -18.2617 42.8711 -21.1914 L 42.8711 -29.9805 L 34.1309 -29.9805 C 31.2012 -29.9805 28.8574 -32.5195 28.8574 -35.1562 C 28.8574 -37.8906 31.2012 -40.3809 34.1309 -40.3809 L 42.8711 -40.3809 L 42.8711 -49.1699 C 42.8711 -52.0996 45.1172 -54.3945 48.0469 -54.3945 C 51.0254 -54.3945 53.2715 -52.0996 53.2715 -49.1699 L 53.2715 -40.3809 L 62.0117 -40.3809 C 64.9414 -40.3809 67.2363 -37.8906 67.2363 -35.1562 C 67.2363 -32.5195 64.9414 -29.9805 62.0117 -29.9805 L 53.2715 -29.9805 L 53.2715 -21.1914 C 53.2715 -18.2617 51.0254 -15.918 48.0469 -15.918 Z"/>
  </g>
  <g id="Ultralight-M" transform="matrix(1 0 0 1 505.17 1126)">
   <path d="M 91.748 -72.2656 C 88.0859 -75.8301 83.252 -77.1973 73.3887 -77.1973 L 35.1074 -77.1973 C 25.9766 -77.1973 21.0449 -75.7812 17.4316 -72.168 C 13.8672 -68.6035 12.4512 -63.7695 12.4512 -54.5898 L 12.4512 -16.3086 C 12.4512 -6.34766 13.7695 -1.5625 17.3828 2.00195 C 21.0449 5.56641 25.8301 6.93359 35.7422 6.93359 L 73.3887 6.93359 C 83.252 6.93359 88.1348 5.56641 91.748 2.00195 C 95.3125 -1.61133 96.6309 -6.34766 96.6309 -16.3086 L 96.6309 -53.9551 C 96.6309 -63.916 95.3125 -68.7012 91.748 -72.2656 Z M 54.4922 -7.17773 C 53.7598 -7.17773 53.2227 -7.8125 53.2227 -8.49609 L 53.2227 -33.7891 L 27.9785 -33.7891 C 27.2461 -33.7891 26.5625 -34.4238 26.5625 -35.0586 C 26.5625 -35.9375 27.2461 -36.4746 27.9785 -36.4746 L 53.2227 -36.4746 L 53.2227 -61.7188 C 53.2227 -62.4512 53.7598 -63.0859 54.4922 -63.0859 C 55.3223 -63.0859 55.8594 -62.4512 55.8594 -61.7188 L 55.8594 -36.4746 L 81.1523 -36.4746 C 81.8359 -36.4746 82.5195 -35.9375 82.5195 -35.0586 C 82.5195 -34.4238 81.8359 -33.7891 81.1523 -33.7891 L 55.8594 -33.7891 L 55.8594 -8.49609 C 55.8594 -7.8125 55.3223 -7.17773 54.4922 -7.17773 Z"/>
  </g>
  <g id="Thin-M" transform="matrix(1 0 0 1 801.344 1126)">
   <path d="M 92.627 -72.6562 C 88.6719 -76.5137 83.3496 -77.7832 73.8281 -77.7832 L 35.8398 -77.7832 C 26.9043 -77.7832 21.5332 -76.4648 17.627 -72.5586 C 13.7207 -68.6523 12.4512 -63.3789 12.4512 -54.3945 L 12.4512 -16.4551 C 12.4512 -6.83594 13.6719 -1.5625 17.5293 2.29492 C 21.5332 6.20117 26.8066 7.4707 36.3281 7.4707 L 73.8281 7.4707 C 83.3496 7.4707 88.7207 6.20117 92.627 2.29492 C 96.5332 -1.61133 97.7051 -6.83594 97.7051 -16.4551 L 97.7051 -53.9062 C 97.7051 -63.4766 96.5332 -68.7988 92.627 -72.6562 Z M 55.0293 -7.03125 C 54.0039 -7.03125 53.1738 -7.95898 53.1738 -8.93555 L 53.1738 -33.252 L 28.9062 -33.252 C 27.8809 -33.252 26.9531 -34.1309 26.9531 -35.1074 C 26.9531 -36.2305 27.8809 -37.0605 28.9062 -37.0605 L 53.1738 -37.0605 L 53.1738 -61.3281 C 53.1738 -62.4023 54.0039 -63.2812 55.0293 -63.2812 C 56.2012 -63.2812 56.9824 -62.4023 56.9824 -61.3281 L 56.9824 -37.0605 L 81.25 -37.0605 C 82.3242 -37.0605 83.2031 -36.2305 83.2031 -35.1074 C 83.2031 -34.1309 82.3242 -33.252 81.25 -33.252 L 56.9824 -33.252 L 56.9824 -8.93555 C 56.9824 -7.95898 56.2012 -7.03125 55.0293 -7.03125 Z"/>
  </g>
  <g id="Light-M" transform="matrix(1 0 0 1 1097.03 1126)">
   <path d="M 94.3359 -73.3887 C 89.7461 -77.8809 83.4961 -78.8574 74.6582 -78.8574 L 37.2559 -78.8574 C 28.8086 -78.8574 22.4609 -77.8809 17.9199 -73.3398 C 13.4277 -68.8477 12.4512 -62.5977 12.4512 -54.0527 L 12.4512 -16.6992 C 12.4512 -7.8125 13.3789 -1.5625 17.9199 2.92969 C 22.4609 7.42188 28.7109 8.39844 37.5977 8.39844 L 74.6582 8.39844 C 83.4961 8.39844 89.7949 7.42188 94.3359 2.92969 C 98.8281 -1.61133 99.7559 -7.8125 99.7559 -16.6992 L 99.7559 -53.7598 C 99.7559 -62.6465 98.8281 -68.8965 94.3359 -73.3887 Z M 56.1035 -6.83594 C 54.3945 -6.83594 53.0762 -8.20312 53.0762 -9.81445 L 53.0762 -32.2266 L 30.7617 -32.2266 C 29.0527 -32.2266 27.6855 -33.5938 27.6855 -35.2051 C 27.6855 -36.8652 29.0527 -38.2324 30.7617 -38.2324 L 53.0762 -38.2324 L 53.0762 -60.6445 C 53.0762 -62.3047 54.3945 -63.6719 56.1035 -63.6719 C 57.8125 -63.6719 59.1309 -62.3047 59.1309 -60.6445 L 59.1309 -38.2324 L 81.4941 -38.2324 C 83.2031 -38.2324 84.5215 -36.8652 84.5215 -35.2051 C 84.5215 -33.5938 83.2031 -32.2266 81.4941 -32.2266 L 59.1309 -32.2266 L 59.1309 -9.81445 C 59.1309 -8.20312 57.8125 -6.83594 56.1035 -6.83594 Z"/>
  </g>
  <g id="Regular-M" transform="matrix(1 0 0 1 1392.96 1126)">
   <path d="M 95.6055 -73.9258 C 90.625 -78.9062 83.5938 -79.6875 75.293 -79.6875 L 38.3789 -79.6875 C 30.1758 -79.6875 23.1445 -78.9062 18.1641 -73.9258 C 13.1836 -68.9453 12.4512 -61.9629 12.4512 -53.8086 L 12.4512 -16.8945 C 12.4512 -8.54492 13.1836 -1.61133 18.1641 3.36914 C 23.1445 8.34961 30.1758 9.13086 38.5254 9.13086 L 75.293 9.13086 C 83.5938 9.13086 90.625 8.34961 95.6055 3.36914 C 100.586 -1.61133 101.318 -8.54492 101.318 -16.8945 L 101.318 -53.6621 C 101.318 -62.0117 100.586 -68.9941 95.6055 -73.9258 Z M 56.8848 -6.64062 C 54.7363 -6.64062 53.0273 -8.39844 53.0273 -10.498 L 53.0273 -31.4453 L 32.1289 -31.4453 C 29.9805 -31.4453 28.2715 -33.2031 28.2715 -35.2539 C 28.2715 -37.3047 29.9805 -39.1602 32.1289 -39.1602 L 53.0273 -39.1602 L 53.0273 -60.0586 C 53.0273 -62.2559 54.7363 -63.9648 56.8848 -63.9648 C 59.082 -63.9648 60.7422 -62.2559 60.7422 -60.0586 L 60.7422 -39.1602 L 81.6895 -39.1602 C 83.8379 -39.1602 85.5469 -37.3047 85.5469 -35.2539 C 85.5469 -33.2031 83.8379 -31.4453 81.6895 -31.4453 L 60.7422 -31.4453 L 60.7422 -10.498 C 60.7422 -8.39844 59.082 -6.64062 56.8848 -6.64062 Z"/>
  </g>
  <g id="Medium-M" transform="matrix(1 0 0 1 1689.01 1126)">
   <path d="M 96.6797 -74.3652 C 91.6504 -79.3457 84.7168 -80.3711 75.7812 -80.3711 L 39.209 -80.3711 C 30.4199 -80.3711 23.4375 -79.3457 18.4082 -74.3164 C 13.4277 -69.3359 12.4512 -62.4512 12.4512 -53.6133 L 12.4512 -17.041 C 12.4512 -8.05664 13.3789 -1.17188 18.4082 3.80859 C 23.4375 8.83789 30.3711 9.81445 39.3555 9.81445 L 75.7812 9.81445 C 84.7168 9.81445 91.6992 8.83789 96.6797 3.80859 C 101.709 -1.2207 102.637 -8.05664 102.637 -17.041 L 102.637 -53.4668 C 102.637 -62.4512 101.709 -69.3359 96.6797 -74.3652 Z M 57.5684 -7.22656 C 55.127 -7.22656 53.2715 -9.13086 53.2715 -11.4746 L 53.2715 -31.0059 L 33.8379 -31.0059 C 31.4453 -31.0059 29.541 -33.0078 29.541 -35.2539 C 29.541 -37.5 31.4453 -39.5508 33.8379 -39.5508 L 53.2715 -39.5508 L 53.2715 -59.0332 C 53.2715 -61.4258 55.127 -63.3301 57.5684 -63.3301 C 59.9609 -63.3301 61.8164 -61.4258 61.8164 -59.0332 L 61.8164 -39.5508 L 81.2988 -39.5508 C 83.7402 -39.5508 85.6445 -37.5 85.6445 -35.2539 C 85.6445 -33.0078 83.7402 -31.0059 81.2988 -31.0059 L 61.8164 -31.0059 L 61.8164 -11.4746 C 61.8164 -9.13086 59.9609 -7.22656 57.5684 -7.22656 Z"/>
  </g>
  <g id="Semibold-M" transform="matrix(1 0 0 1 1985.21 1126)">
   <path d="M 97.5098 -74.6582 C 92.4805 -79.6875 85.5957 -80.8594 76.1719 -80.8594 L 39.8926 -80.8594 C 30.5664 -80.8594 23.6328 -79.6875 18.6035 -74.6582 C 13.5742 -69.6289 12.4512 -62.793 12.4512 -53.4668 L 12.4512 -17.1387 C 12.4512 -7.66602 13.5742 -0.878906 18.6035 4.15039 C 23.6816 9.17969 30.5664 10.3516 39.9902 10.3516 L 76.1719 10.3516 C 85.5957 10.3516 92.4805 9.17969 97.5098 4.15039 C 102.588 -0.878906 103.662 -7.66602 103.662 -17.1387 L 103.662 -53.3691 C 103.662 -62.8418 102.588 -69.6289 97.5098 -74.6582 Z M 58.0566 -7.66602 C 55.4688 -7.66602 53.4668 -9.7168 53.4668 -12.2559 L 53.4668 -30.6641 L 35.1074 -30.6641 C 32.5195 -30.6641 30.4688 -32.8125 30.4688 -35.2539 C 30.4688 -37.6953 32.5195 -39.8438 35.1074 -39.8438 L 53.4668 -39.8438 L 53.4668 -58.252 C 53.4668 -60.8398 55.4688 -62.8906 58.0566 -62.8906 C 60.6445 -62.8906 62.6953 -60.8398 62.6953 -58.252 L 62.6953 -39.8438 L 81.0547 -39.8438 C 83.6426 -39.8438 85.6934 -37.6953 85.6934 -35.2539 C 85.6934 -32.8125 83.6426 -30.6641 81.0547 -30.6641 L 62.6953 -30.6641 L 62.6953 -12.2559 C 62.6953 -9.7168 60.6445 -7.66602 58.0566 -7.66602 Z"/>
  </g>
  <g id="Bold-M" transform="matrix(1 0 0 1 2281.24 1126)">
   <path d="M 98.6328 -75.0488 C 93.5059 -80.127 86.7188 -81.4941 76.6602 -81.4941 L 40.7227 -81.4941 C 30.7617 -81.4941 23.9258 -80.127 18.8477 -75.0488 C 13.7695 -69.9707 12.4512 -63.2812 12.4512 -53.2227 L 12.4512 -17.2852 C 12.4512 -7.17773 13.7695 -0.439453 18.8477 4.58984 C 23.9746 9.66797 30.7617 11.0352 40.8203 11.0352 L 76.6602 11.0352 C 86.7188 11.0352 93.5547 9.66797 98.6328 4.58984 C 103.711 -0.488281 105.029 -7.17773 105.029 -17.2852 L 105.029 -53.1738 C 105.029 -63.2812 103.711 -70.0195 98.6328 -75.0488 Z M 58.7402 -8.20312 C 55.9082 -8.20312 53.7109 -10.4492 53.7109 -13.2812 L 53.7109 -30.2246 L 36.8164 -30.2246 C 33.9844 -30.2246 31.7383 -32.6172 31.7383 -35.2539 C 31.7383 -37.8906 33.9844 -40.2832 36.8164 -40.2832 L 53.7109 -40.2832 L 53.7109 -57.2266 C 53.7109 -60.0586 55.9082 -62.2559 58.7402 -62.2559 C 61.5723 -62.2559 63.7695 -60.0586 63.7695 -57.2266 L 63.7695 -40.2832 L 80.6641 -40.2832 C 83.4961 -40.2832 85.7422 -37.8906 85.7422 -35.2539 C 85.7422 -32.6172 83.4961 -30.2246 80.6641 -30.2246 L 63.7695 -30.2246 L 63.7695 -13.2812 C 63.7695 -10.4492 61.5723 -8.20312 58.7402 -8.20312 Z"/>
  </g>
  <g id="Heavy-M" transform="matrix(1 0 0 1 2576.97 1126)">
   <path d="M 100.244 -75.6348 C 95.0684 -80.7617 88.3789 -82.4707 77.4414 -82.4707 L 41.9922 -82.4707 C 31.0547 -82.4707 24.3164 -80.7617 19.2383 -75.6348 C 14.1113 -70.5078 12.4512 -63.9648 12.4512 -52.9297 L 12.4512 -17.5293 C 12.4512 -6.49414 14.1113 0.146484 19.1895 5.22461 C 24.3652 10.3516 31.0547 12.0117 41.9922 12.0117 L 77.4414 12.0117 C 88.3789 12.0117 95.1172 10.3516 100.244 5.22461 C 105.322 0.0976562 106.982 -6.49414 106.982 -17.5293 L 106.982 -52.9297 C 106.982 -63.9648 105.322 -70.6055 100.244 -75.6348 Z M 59.7168 -9.0332 C 56.543 -9.0332 54.0527 -11.5723 54.0527 -14.7461 L 54.0527 -29.541 L 39.3066 -29.541 C 36.1328 -29.541 33.5938 -32.2754 33.5938 -35.2051 C 33.5938 -38.1836 36.1328 -40.8691 39.3066 -40.8691 L 54.0527 -40.8691 L 54.0527 -55.6641 C 54.0527 -58.8867 56.543 -61.377 59.7168 -61.377 C 62.8906 -61.377 65.3809 -58.8867 65.3809 -55.6641 L 65.3809 -40.8691 L 80.127 -40.8691 C 83.3496 -40.8691 85.8398 -38.1836 85.8398 -35.2051 C 85.8398 -32.2754 83.3496 -29.541 80.127 -29.541 L 65.3809 -29.541 L 65.3809 -14.7461 C 65.3809 -11.5723 62.8906 -9.0332 59.7168 -9.0332 Z"/>
  </g>
  <g id="Black-M" transform="matrix(1 0 0 1 2872.8 1126)">
   <path d="M 101.66 -76.1719 C 96.4355 -81.3477 89.8438 -83.3008 78.0762 -83.3008 L 43.1152 -83.3008 C 31.3477 -83.3008 24.707 -81.3477 19.5312 -76.1719 C 14.3555 -70.9961 12.4512 -64.5508 12.4512 -52.6855 L 12.4512 -17.7246 C 12.4512 -5.81055 14.3555 0.683594 19.5312 5.81055 C 24.7559 10.9863 31.3477 12.9395 43.1152 12.9395 L 78.0762 12.9395 C 89.8438 12.9395 96.4844 10.9863 101.66 5.81055 C 106.836 0.634766 108.691 -5.81055 108.691 -17.7246 L 108.691 -52.6855 C 108.691 -64.5508 106.836 -71.0938 101.66 -76.1719 Z M 60.5957 -9.76562 C 57.0801 -9.76562 54.3945 -12.5488 54.3945 -16.0645 L 54.3945 -29.0039 L 41.5039 -29.0039 C 37.9883 -29.0039 35.2539 -31.9824 35.2539 -35.2051 C 35.2539 -38.4766 37.9883 -41.4062 41.5039 -41.4062 L 54.3945 -41.4062 L 54.3945 -54.3457 C 54.3945 -57.8613 57.0801 -60.5957 60.5957 -60.5957 C 64.1113 -60.5957 66.7969 -57.8613 66.7969 -54.3457 L 66.7969 -41.4062 L 79.6387 -41.4062 C 83.1543 -41.4062 85.9375 -38.4766 85.9375 -35.2051 C 85.9375 -31.9824 83.1543 -29.0039 79.6387 -29.0039 L 66.7969 -29.0039 L 66.7969 -16.0645 C 66.7969 -12.5488 64.1113 -9.76562 60.5957 -9.76562 Z"/>
  </g>
  <g id="Ultralight-L" transform="matrix(1 0 0 1 489.545 1556)">
   <path d="M 117.969 -82.8125 C 113.428 -87.3047 107.422 -89.1602 94.4824 -89.1602 L 44.9707 -89.1602 C 33.1055 -89.1602 26.9043 -87.2559 22.4121 -82.7637 C 17.9199 -78.2715 16.0645 -72.2168 16.0645 -60.3027 L 16.0645 -10.7422 C 16.0645 2.24609 17.8223 8.25195 22.3633 12.6465 C 26.9043 17.1387 32.9102 18.9941 45.8008 18.9941 L 94.4824 18.9941 C 107.422 18.9941 113.477 17.1387 117.969 12.6465 C 122.461 8.1543 124.268 2.24609 124.268 -10.7422 L 124.268 -59.4238 C 124.268 -72.4121 122.461 -78.418 117.969 -82.8125 Z M 70.0684 0.927734 C 69.2871 0.927734 68.7012 0.195312 68.7012 -0.537109 L 68.7012 -33.6426 L 35.6934 -33.6426 C 34.9121 -33.6426 34.1309 -34.2773 34.1309 -35.0098 C 34.1309 -35.9863 34.9121 -36.5723 35.6934 -36.5723 L 68.7012 -36.5723 L 68.7012 -69.5801 C 68.7012 -70.3613 69.2871 -71.0938 70.0684 -71.0938 C 71.0449 -71.0938 71.6309 -70.3613 71.6309 -69.5801 L 71.6309 -36.5723 L 104.639 -36.5723 C 105.42 -36.5723 106.201 -35.9863 106.201 -35.0098 C 106.201 -34.2773 105.42 -33.6426 104.639 -33.6426 L 71.6309 -33.6426 L 71.6309 -0.537109 C 71.6309 0.195312 71.0449 0.927734 70.0684 0.927734 Z"/>
  </g>
  <g id="Thin-L" transform="matrix(1 0 0 1 785.67 1556)">
   <path d="M 118.945 -83.252 C 114.062 -88.0859 107.471 -89.7949 94.9707 -89.7949 L 45.8008 -89.7949 C 34.1797 -89.7949 27.4414 -88.0371 22.6074 -83.2031 C 17.7734 -78.3203 16.0645 -71.7773 16.0645 -60.1074 L 16.0645 -10.8887 C 16.0645 1.66016 17.6758 8.25195 22.5586 12.9883 C 27.4414 17.8711 34.0332 19.5312 46.5332 19.5312 L 94.9707 19.5312 C 107.471 19.5312 114.111 17.8711 118.945 12.9883 C 123.828 8.1543 125.439 1.66016 125.439 -10.8887 L 125.439 -59.375 C 125.439 -71.9238 123.828 -78.4668 118.945 -83.252 Z M 70.6543 1.07422 C 69.5312 1.07422 68.6523 0.0488281 68.6523 -1.02539 L 68.6523 -33.0078 L 36.7188 -33.0078 C 35.5957 -33.0078 34.5703 -33.9844 34.5703 -35.0586 C 34.5703 -36.3281 35.5957 -37.207 36.7188 -37.207 L 68.6523 -37.207 L 68.6523 -69.1406 C 68.6523 -70.3125 69.5312 -71.3379 70.6543 -71.3379 C 71.9727 -71.3379 72.8516 -70.3125 72.8516 -69.1406 L 72.8516 -37.207 L 104.785 -37.207 C 105.908 -37.207 106.934 -36.3281 106.934 -35.0586 C 106.934 -33.9844 105.908 -33.0078 104.785 -33.0078 L 72.8516 -33.0078 L 72.8516 -1.02539 C 72.8516 0.0488281 71.9727 1.07422 70.6543 1.07422 Z"/>
  </g>
  <g id="Light-L" transform="matrix(1 0 0 1 1081.23 1556)">
   <path d="M 120.85 -84.082 C 115.283 -89.5996 107.666 -91.0156 95.8984 -91.0156 L 47.4121 -91.0156 C 36.2305 -91.0156 28.5156 -89.5508 22.998 -84.0332 C 17.4316 -78.5156 16.0645 -70.8984 16.0645 -59.7168 L 16.0645 -11.1816 C 16.0645 0.585938 17.3828 8.20312 22.9492 13.6719 C 28.5156 19.2383 36.1328 20.6055 47.9004 20.6055 L 95.8984 20.6055 C 107.666 20.6055 115.332 19.2383 120.85 13.6719 C 126.416 8.1543 127.734 0.585938 127.734 -11.1816 L 127.734 -59.2285 C 127.734 -70.9961 126.416 -78.6133 120.85 -84.082 Z M 71.875 1.31836 C 69.9707 1.31836 68.5547 -0.244141 68.5547 -2.00195 L 68.5547 -31.8359 L 38.7695 -31.8359 C 36.9141 -31.8359 35.4004 -33.3984 35.4004 -35.1562 C 35.4004 -37.0117 36.9141 -38.5254 38.7695 -38.5254 L 68.5547 -38.5254 L 68.5547 -68.3594 C 68.5547 -70.2148 69.9707 -71.7285 71.875 -71.7285 C 73.8281 -71.7285 75.2441 -70.2148 75.2441 -68.3594 L 75.2441 -38.5254 L 105.029 -38.5254 C 106.885 -38.5254 108.447 -37.0117 108.447 -35.1562 C 108.447 -33.3984 106.885 -31.8359 105.029 -31.8359 L 75.2441 -31.8359 L 75.2441 -2.00195 C 75.2441 -0.244141 73.8281 1.31836 71.875 1.31836 Z"/>
  </g>
  <g id="Regular-L" transform="matrix(1 0 0 1 1377.07 1556)">
   <path d="M 122.314 -84.7168 C 116.211 -90.7715 107.764 -91.9434 96.6309 -91.9434 L 48.6328 -91.9434 C 37.793 -91.9434 29.2969 -90.7227 23.2422 -84.668 C 17.1875 -78.6621 16.0645 -70.2637 16.0645 -59.4238 L 16.0645 -11.4258 C 16.0645 -0.195312 17.1875 8.20312 23.2422 14.209 C 29.2969 20.2637 37.7441 21.4355 48.9258 21.4355 L 96.6309 21.4355 C 107.764 21.4355 116.26 20.2637 122.314 14.209 C 128.369 8.1543 129.443 -0.195312 129.443 -11.4258 L 129.443 -59.082 C 129.443 -70.3125 128.369 -78.7109 122.314 -84.7168 Z M 72.7539 1.51367 C 70.3613 1.51367 68.457 -0.439453 68.457 -2.73438 L 68.457 -30.957 L 40.332 -30.957 C 37.9395 -30.957 36.0352 -32.959 36.0352 -35.2051 C 36.0352 -37.5488 37.9395 -39.5508 40.332 -39.5508 L 68.457 -39.5508 L 68.457 -67.7246 C 68.457 -70.1172 70.3613 -72.0703 72.7539 -72.0703 C 75.1953 -72.0703 77.0508 -70.1172 77.0508 -67.7246 L 77.0508 -39.5508 L 105.273 -39.5508 C 107.666 -39.5508 109.57 -37.5488 109.57 -35.2051 C 109.57 -32.959 107.666 -30.957 105.273 -30.957 L 77.0508 -30.957 L 77.0508 -2.73438 C 77.0508 -0.439453 75.1953 1.51367 72.7539 1.51367 Z"/>
  </g>
  <g id="Medium-L" transform="matrix(1 0 0 1 1673.02 1556)">
   <path d="M 123.584 -85.2051 C 117.383 -91.3574 108.838 -92.7246 97.2168 -92.7246 L 49.6094 -92.7246 C 38.2812 -92.7246 29.6875 -91.3574 23.5352 -85.1562 C 17.3828 -79.0039 16.0645 -70.5566 16.0645 -59.1797 L 16.0645 -11.5723 C 16.0645 0.0976562 17.334 8.54492 23.4863 14.6973 C 29.7363 20.8496 38.2324 22.2168 49.8535 22.2168 L 97.2168 22.2168 C 108.838 22.2168 117.383 20.8496 123.584 14.6973 C 129.736 8.54492 131.006 0.0976562 131.006 -11.5723 L 131.006 -58.9355 C 131.006 -70.6055 129.736 -79.0527 123.584 -85.2051 Z M 73.5352 1.02539 C 70.8008 1.02539 68.7012 -1.17188 68.7012 -3.80859 L 68.7012 -30.4199 L 42.1875 -30.4199 C 39.4531 -30.4199 37.3047 -32.666 37.3047 -35.2051 C 37.3047 -37.8418 39.4531 -40.0879 42.1875 -40.0879 L 68.7012 -40.0879 L 68.7012 -66.6992 C 68.7012 -69.3848 70.8008 -71.582 73.5352 -71.582 C 76.2695 -71.582 78.3691 -69.3848 78.3691 -66.6992 L 78.3691 -40.0879 L 104.932 -40.0879 C 107.666 -40.0879 109.814 -37.8418 109.814 -35.2051 C 109.814 -32.666 107.666 -30.4199 104.932 -30.4199 L 78.3691 -30.4199 L 78.3691 -3.80859 C 78.3691 -1.17188 76.2695 1.02539 73.5352 1.02539 Z"/>
  </g>
  <g id="Semibold-L" transform="matrix(1 0 0 1 1969.15 1556)">
   <path d="M 124.512 -85.5957 C 118.213 -91.8457 109.619 -93.3105 97.6562 -93.3105 L 50.3906 -93.3105 C 38.6719 -93.3105 30.0293 -91.7969 23.7305 -85.5469 C 17.4805 -79.2969 16.0645 -70.8008 16.0645 -58.9844 L 16.0645 -11.7188 C 16.0645 0.341797 17.4316 8.83789 23.7305 15.0879 C 30.0293 21.3379 38.623 22.8027 50.5859 22.8027 L 97.6562 22.8027 C 109.619 22.8027 118.262 21.3379 124.512 15.0879 C 130.811 8.78906 132.178 0.341797 132.178 -11.7188 L 132.178 -58.7891 C 132.178 -70.8008 130.811 -79.3457 124.512 -85.5957 Z M 74.1211 0.634766 C 71.1426 0.634766 68.8477 -1.70898 68.8477 -4.58984 L 68.8477 -29.9805 L 43.5547 -29.9805 C 40.625 -29.9805 38.2324 -32.4707 38.2324 -35.2051 C 38.2324 -38.0371 40.625 -40.5273 43.5547 -40.5273 L 68.8477 -40.5273 L 68.8477 -65.8691 C 68.8477 -68.8477 71.1426 -71.1914 74.1211 -71.1914 C 77.0996 -71.1914 79.3945 -68.8477 79.3945 -65.8691 L 79.3945 -40.5273 L 104.736 -40.5273 C 107.666 -40.5273 110.059 -38.0371 110.059 -35.2051 C 110.059 -32.4707 107.666 -29.9805 104.736 -29.9805 L 79.3945 -29.9805 L 79.3945 -4.58984 C 79.3945 -1.70898 77.0996 0.634766 74.1211 0.634766 Z"/>
  </g>
  <g id="Bold-L" transform="matrix(1 0 0 1 2265.08 1556)">
   <path d="M 125.781 -86.084 C 119.385 -92.4805 110.693 -94.043 98.2422 -94.043 L 51.416 -94.043 C 39.1113 -94.043 30.4199 -92.4316 24.0234 -86.0352 C 17.627 -79.6387 16.0645 -71.0938 16.0645 -58.7402 L 16.0645 -11.9141 C 16.0645 0.634766 17.627 9.22852 24.0234 15.5762 C 30.4199 21.9727 39.1113 23.584 51.5625 23.584 L 98.2422 23.584 C 110.693 23.584 119.385 21.9727 125.781 15.5762 C 132.178 9.17969 133.74 0.634766 133.74 -11.9141 L 133.74 -58.5938 C 133.74 -71.0938 132.178 -79.7363 125.781 -86.084 Z M 74.9023 0.146484 C 71.582 0.146484 69.043 -2.44141 69.043 -5.66406 L 69.043 -29.3945 L 45.4102 -29.3945 C 42.1387 -29.3945 39.502 -32.1777 39.502 -35.2539 C 39.502 -38.3301 42.1387 -41.0645 45.4102 -41.0645 L 69.043 -41.0645 L 69.043 -64.7949 C 69.043 -68.0664 71.582 -70.7031 74.9023 -70.7031 C 78.2227 -70.7031 80.7617 -68.0664 80.7617 -64.7949 L 80.7617 -41.0645 L 104.443 -41.0645 C 107.715 -41.0645 110.303 -38.3301 110.303 -35.2539 C 110.303 -32.1777 107.715 -29.3945 104.443 -29.3945 L 80.7617 -29.3945 L 80.7617 -5.66406 C 80.7617 -2.44141 78.2227 0.146484 74.9023 0.146484 Z"/>
  </g>
  <g id="Heavy-L" transform="matrix(1 0 0 1 2560.66 1556)">
   <path d="M 127.637 -86.7676 C 120.996 -93.3594 112.256 -95.166 99.1211 -95.166 L 52.8809 -95.166 C 39.8438 -95.166 31.0059 -93.3594 24.4141 -86.7676 C 17.8223 -80.1758 16.0645 -71.5332 16.0645 -58.3984 L 16.0645 -12.1582 C 16.0645 1.07422 17.8223 9.76562 24.4141 16.3086 C 31.0547 22.8516 39.7949 24.707 52.9297 24.707 L 99.1211 24.707 C 112.256 24.707 121.045 22.8516 127.637 16.3086 C 134.229 9.7168 135.986 1.07422 135.986 -12.1582 L 135.986 -58.3496 C 135.986 -71.5332 134.229 -80.2246 127.637 -86.7676 Z M 76.0254 -0.537109 C 72.2656 -0.537109 69.3848 -3.51562 69.3848 -7.22656 L 69.3848 -28.5645 L 48.0957 -28.5645 C 44.3359 -28.5645 41.3574 -31.7871 41.3574 -35.2539 C 41.3574 -38.7207 44.3359 -41.8945 48.0957 -41.8945 L 69.3848 -41.8945 L 69.3848 -63.2324 C 69.3848 -66.9922 72.2656 -69.9707 76.0254 -69.9707 C 79.7852 -69.9707 82.666 -66.9922 82.666 -63.2324 L 82.666 -41.8945 L 104.004 -41.8945 C 107.764 -41.8945 110.693 -38.7207 110.693 -35.2539 C 110.693 -31.7871 107.764 -28.5645 104.004 -28.5645 L 82.666 -28.5645 L 82.666 -7.22656 C 82.666 -3.51562 79.7852 -0.537109 76.0254 -0.537109 Z"/>
  </g>
  <g id="Black-L" transform="matrix(1 0 0 1 2856.37 1556)">
   <path d="M 129.297 -87.4023 C 122.51 -94.1406 113.623 -96.1914 99.9023 -96.1914 L 54.1504 -96.1914 C 40.4297 -96.1914 31.4941 -94.1406 24.7559 -87.4023 C 18.0176 -80.6641 16.0645 -71.9238 16.0645 -58.1055 L 16.0645 -12.3535 C 16.0645 1.46484 18.0176 10.2539 24.7559 16.9434 C 31.5918 23.6816 40.4297 25.7324 54.1504 25.7324 L 99.9023 25.7324 C 113.623 25.7324 122.559 23.6816 129.297 16.9434 C 136.035 10.2051 137.988 1.46484 137.988 -12.3535 L 137.988 -58.1055 C 137.988 -71.9238 136.035 -80.7129 129.297 -87.4023 Z M 77.0508 -1.17188 C 72.8516 -1.17188 69.6289 -4.44336 69.6289 -8.59375 L 69.6289 -27.832 L 50.4883 -27.832 C 46.2891 -27.832 43.0176 -31.3965 43.0176 -35.2539 C 43.0176 -39.1113 46.2891 -42.627 50.4883 -42.627 L 69.6289 -42.627 L 69.6289 -61.8652 C 69.6289 -66.0156 72.8516 -69.3359 77.0508 -69.3359 C 81.2012 -69.3359 84.4238 -66.0156 84.4238 -61.8652 L 84.4238 -42.627 L 103.613 -42.627 C 107.764 -42.627 111.035 -39.1113 111.035 -35.2539 C 111.035 -31.3965 107.764 -27.832 103.613 -27.832 L 84.4238 -27.832 L 84.4238 -8.59375 C 84.4238 -4.44336 81.2012 -1.17188 77.0508 -1.17188 Z"/>
  </g>
 </g>
</svg>
