<?xml version="1.0" encoding="UTF-8"?>
<!--Generator: Apple Native CoreSVG 123-->
<!DOCTYPE svg
PUBLIC "-//W3C//DTD SVG 1.1//EN"
       "http://www.w3.org/Graphics/SVG/1.1/DTD/svg11.dtd">
<svg version="1.1" xmlns="http://www.w3.org/2000/svg" xmlns:xlink="http://www.w3.org/1999/xlink" width="3300" height="2200">
 <!--glyph: "uni100690.medium", point size: 100.000000, font version: "Version 15.0d4e20", template writer version: "2"-->
 <g id="Notes">
  <rect height="2200" id="artboard" style="fill:white;opacity:1" width="3300" x="0" y="0"/>
  <line id="" style="fill:none;stroke:black;opacity:1;stroke-width:0.5;" x1="263" x2="3036" y1="292" y2="292"/>
  <text style="stroke:none;fill:black;font-family:-apple-system,&quot;SF Pro Display&quot;,&quot;SF Pro Text&quot;,Helvetica,sans-serif;font-weight:bold;" transform="matrix(1 0 0 1 263 322)">Weight/Scale Variations</text>
  <text style="stroke:none;fill:black;font-family:-apple-system,&quot;SF Pro Display&quot;,&quot;SF Pro Text&quot;,Helvetica,sans-serif;text-anchor:middle;" transform="matrix(1 0 0 1 559.711 322)">Ultralight</text>
  <text style="stroke:none;fill:black;font-family:-apple-system,&quot;SF Pro Display&quot;,&quot;SF Pro Text&quot;,Helvetica,sans-serif;text-anchor:middle;" transform="matrix(1 0 0 1 856.422 322)">Thin</text>
  <text style="stroke:none;fill:black;font-family:-apple-system,&quot;SF Pro Display&quot;,&quot;SF Pro Text&quot;,Helvetica,sans-serif;text-anchor:middle;" transform="matrix(1 0 0 1 1153.13 322)">Light</text>
  <text style="stroke:none;fill:black;font-family:-apple-system,&quot;SF Pro Display&quot;,&quot;SF Pro Text&quot;,Helvetica,sans-serif;text-anchor:middle;" transform="matrix(1 0 0 1 1449.84 322)">Regular</text>
  <text style="stroke:none;fill:black;font-family:-apple-system,&quot;SF Pro Display&quot;,&quot;SF Pro Text&quot;,Helvetica,sans-serif;text-anchor:middle;" transform="matrix(1 0 0 1 1746.56 322)">Medium</text>
  <text style="stroke:none;fill:black;font-family:-apple-system,&quot;SF Pro Display&quot;,&quot;SF Pro Text&quot;,Helvetica,sans-serif;text-anchor:middle;" transform="matrix(1 0 0 1 2043.27 322)">Semibold</text>
  <text style="stroke:none;fill:black;font-family:-apple-system,&quot;SF Pro Display&quot;,&quot;SF Pro Text&quot;,Helvetica,sans-serif;text-anchor:middle;" transform="matrix(1 0 0 1 2339.98 322)">Bold</text>
  <text style="stroke:none;fill:black;font-family:-apple-system,&quot;SF Pro Display&quot;,&quot;SF Pro Text&quot;,Helvetica,sans-serif;text-anchor:middle;" transform="matrix(1 0 0 1 2636.69 322)">Heavy</text>
  <text style="stroke:none;fill:black;font-family:-apple-system,&quot;SF Pro Display&quot;,&quot;SF Pro Text&quot;,Helvetica,sans-serif;text-anchor:middle;" transform="matrix(1 0 0 1 2933.4 322)">Black</text>
  <line id="" style="fill:none;stroke:black;opacity:1;stroke-width:0.5;" x1="263" x2="3036" y1="1903" y2="1903"/>
  <g id="" transform="matrix(1 0 0 1 263 1933)">
   <path d="M 9.24805 0.830078 C 13.5547 0.830078 17.1387 -2.74414 17.1387 -7.05078 C 17.1387 -11.3574 13.5449 -14.9316 9.23828 -14.9316 C 4.94141 -14.9316 1.36719 -11.3574 1.36719 -7.05078 C 1.36719 -2.74414 4.95117 0.830078 9.24805 0.830078 Z M 9.24805 -0.654297 C 5.70312 -0.654297 2.87109 -3.49609 2.87109 -7.05078 C 2.87109 -10.6055 5.69336 -13.4473 9.23828 -13.4473 C 12.793 -13.4473 15.6348 -10.6055 15.6445 -7.05078 C 15.6543 -3.49609 12.8027 -0.654297 9.24805 -0.654297 Z M 9.22852 -3.42773 C 9.69727 -3.42773 9.9707 -3.74023 9.9707 -4.25781 L 9.9707 -6.31836 L 12.1973 -6.31836 C 12.6953 -6.31836 13.0371 -6.57227 13.0371 -7.04102 C 13.0371 -7.51953 12.7148 -7.7832 12.1973 -7.7832 L 9.9707 -7.7832 L 9.9707 -10.0098 C 9.9707 -10.5273 9.69727 -10.8496 9.22852 -10.8496 C 8.75977 -10.8496 8.50586 -10.5078 8.50586 -10.0098 L 8.50586 -7.7832 L 6.29883 -7.7832 C 5.78125 -7.7832 5.44922 -7.51953 5.44922 -7.04102 C 5.44922 -6.57227 5.80078 -6.31836 6.29883 -6.31836 L 8.50586 -6.31836 L 8.50586 -4.25781 C 8.50586 -3.75977 8.75977 -3.42773 9.22852 -3.42773 Z"/>
  </g>
  <g id="" transform="matrix(1 0 0 1 281.506 1933)">
   <path d="M 11.709 2.91016 C 17.1484 2.91016 21.6699 -1.60156 21.6699 -7.05078 C 21.6699 -12.4902 17.1387 -17.0117 11.6992 -17.0117 C 6.25 -17.0117 1.74805 -12.4902 1.74805 -7.05078 C 1.74805 -1.60156 6.25977 2.91016 11.709 2.91016 Z M 11.709 1.25 C 7.09961 1.25 3.41797 -2.44141 3.41797 -7.05078 C 3.41797 -11.6504 7.08984 -15.3516 11.6992 -15.3516 C 16.2988 -15.3516 20 -11.6504 20.0098 -7.05078 C 20.0195 -2.44141 16.3086 1.25 11.709 1.25 Z M 11.6797 -2.41211 C 12.207 -2.41211 12.5195 -2.77344 12.5195 -3.33984 L 12.5195 -6.23047 L 15.5762 -6.23047 C 16.123 -6.23047 16.5039 -6.51367 16.5039 -7.03125 C 16.5039 -7.55859 16.1426 -7.86133 15.5762 -7.86133 L 12.5195 -7.86133 L 12.5195 -10.9277 C 12.5195 -11.5039 12.207 -11.8555 11.6797 -11.8555 C 11.1621 -11.8555 10.8789 -11.4844 10.8789 -10.9277 L 10.8789 -7.86133 L 7.83203 -7.86133 C 7.25586 -7.86133 6.89453 -7.55859 6.89453 -7.03125 C 6.89453 -6.51367 7.28516 -6.23047 7.83203 -6.23047 L 10.8789 -6.23047 L 10.8789 -3.33984 C 10.8789 -2.79297 11.1621 -2.41211 11.6797 -2.41211 Z"/>
  </g>
  <g id="" transform="matrix(1 0 0 1 304.914 1933)">
   <path d="M 14.9707 5.67383 C 21.9336 5.67383 27.6855 -0.078125 27.6855 -7.04102 C 27.6855 -14.0039 21.9238 -19.7559 14.9609 -19.7559 C 7.99805 -19.7559 2.25586 -14.0039 2.25586 -7.04102 C 2.25586 -0.078125 8.00781 5.67383 14.9707 5.67383 Z M 14.9707 3.85742 C 8.92578 3.85742 4.08203 -1.00586 4.08203 -7.04102 C 4.08203 -13.0762 8.91602 -17.9395 14.9609 -17.9395 C 20.9961 -17.9395 25.8594 -13.0762 25.8691 -7.04102 C 25.8789 -1.00586 21.0059 3.85742 14.9707 3.85742 Z M 14.9414 -1.06445 C 15.5176 -1.06445 15.8594 -1.45508 15.8594 -2.06055 L 15.8594 -6.13281 L 20.0977 -6.13281 C 20.6934 -6.13281 21.1133 -6.46484 21.1133 -7.02148 C 21.1133 -7.59766 20.7227 -7.93945 20.0977 -7.93945 L 15.8594 -7.93945 L 15.8594 -12.1875 C 15.8594 -12.8027 15.5176 -13.1934 14.9414 -13.1934 C 14.3848 -13.1934 14.0625 -12.7832 14.0625 -12.1875 L 14.0625 -7.93945 L 9.82422 -7.93945 C 9.20898 -7.93945 8.80859 -7.59766 8.80859 -7.02148 C 8.80859 -6.46484 9.23828 -6.13281 9.82422 -6.13281 L 14.0625 -6.13281 L 14.0625 -2.06055 C 14.0625 -1.47461 14.3848 -1.06445 14.9414 -1.06445 Z"/>
  </g>
  <text style="stroke:none;fill:black;font-family:-apple-system,&quot;SF Pro Display&quot;,&quot;SF Pro Text&quot;,Helvetica,sans-serif;font-weight:bold;" transform="matrix(1 0 0 1 263 1953)">Design Variations</text>
  <text style="stroke:none;fill:black;font-family:-apple-system,&quot;SF Pro Display&quot;,&quot;SF Pro Text&quot;,Helvetica,sans-serif;" transform="matrix(1 0 0 1 263 1971)">Symbols are supported in up to nine weights and three scales.</text>
  <text style="stroke:none;fill:black;font-family:-apple-system,&quot;SF Pro Display&quot;,&quot;SF Pro Text&quot;,Helvetica,sans-serif;" transform="matrix(1 0 0 1 263 1989)">For optimal layout with text and other symbols, vertically align</text>
  <text style="stroke:none;fill:black;font-family:-apple-system,&quot;SF Pro Display&quot;,&quot;SF Pro Text&quot;,Helvetica,sans-serif;" transform="matrix(1 0 0 1 263 2007)">symbols with the adjacent text.</text>
  <rect height="14" id="" style="fill:#00AEEF;stroke:none;opacity:0.4;" width="3" x="776" y="1919"/>
  <g id="" transform="matrix(1 0 0 1 779 1933)">
   <path d="M 10.5273 0 L 12.373 0 L 7.17773 -14.0918 L 5.43945 -14.0918 L 0.244141 0 L 2.08984 0 L 3.50586 -4.0332 L 9.11133 -4.0332 Z M 6.2793 -11.9531 L 6.33789 -11.9531 L 8.59375 -5.52734 L 4.02344 -5.52734 Z"/>
  </g>
  <rect height="14" id="" style="fill:#00AEEF;stroke:none;opacity:0.4;" width="3" x="791.617" y="1919"/>
  <text style="stroke:none;fill:black;font-family:-apple-system,&quot;SF Pro Display&quot;,&quot;SF Pro Text&quot;,Helvetica,sans-serif;font-weight:bold;" transform="matrix(1 0 0 1 776 1953)">Side Bearings</text>
  <text style="stroke:none;fill:black;font-family:-apple-system,&quot;SF Pro Display&quot;,&quot;SF Pro Text&quot;,Helvetica,sans-serif;" transform="matrix(1 0 0 1 776 1971)">Horizontal padding on the left and right side of each symbol</text>
  <text style="stroke:none;fill:black;font-family:-apple-system,&quot;SF Pro Display&quot;,&quot;SF Pro Text&quot;,Helvetica,sans-serif;" transform="matrix(1 0 0 1 776 1989)">can be adjusted by modifying the width of the blue rectangles.</text>
  <text style="stroke:none;fill:black;font-family:-apple-system,&quot;SF Pro Display&quot;,&quot;SF Pro Text&quot;,Helvetica,sans-serif;" transform="matrix(1 0 0 1 776 2007)">Modifications are automatically applied proportionally to all</text>
  <text style="stroke:none;fill:black;font-family:-apple-system,&quot;SF Pro Display&quot;,&quot;SF Pro Text&quot;,Helvetica,sans-serif;" transform="matrix(1 0 0 1 776 2025)">scales and weights.</text>
  <g id="" transform="matrix(1 0 0 1 1289 1933)">
   <path d="M 2.96875 2.35352 L 3.80859 3.19336 C 4.84375 4.22852 6.12305 4.15039 7.19727 2.97852 L 16.1621 -6.82617 C 16.5527 -6.74805 16.9629 -6.8457 17.4902 -7.02148 C 18.1738 -7.25586 18.2715 -7.25586 18.3887 -7.13867 C 18.5352 -7.01172 18.4863 -6.89453 18.2422 -6.25 C 17.8809 -5.33203 17.8125 -4.79492 18.5547 -4.02344 L 19.4238 -3.13477 C 20.2734 -2.24609 21.3281 -2.26562 22.2168 -3.14453 L 25.0586 -5.97656 C 25.9473 -6.86523 25.957 -7.92969 25.0781 -8.7793 L 24.1797 -9.64844 C 23.4082 -10.4004 22.8711 -10.3516 21.9629 -9.98047 C 21.3184 -9.72656 21.2012 -9.6875 21.0645 -9.81445 C 20.9375 -9.93164 20.9473 -10.0391 21.1816 -10.7129 C 21.5332 -11.6895 21.5723 -12.2852 20.752 -13.0957 L 19.3359 -14.5117 C 15.1953 -18.6133 11.2305 -18.7402 7.65625 -15.4395 C 7.08008 -14.9023 6.99219 -14.1504 7.53906 -13.6133 L 7.79297 -13.3594 C 8.22266 -12.9297 8.86719 -12.8418 9.41406 -13.1152 C 11.0645 -13.9453 12.2559 -14.0234 13.457 -12.9785 L 13.0273 -11.416 C 12.8516 -10.8008 12.793 -10.3418 12.9199 -9.93164 L 3.18359 -1.04492 C 2.02148 0.0292969 1.93359 1.32812 2.96875 2.35352 Z M 8.96484 -14.4922 C 8.89648 -14.5703 8.86719 -14.6582 8.99414 -14.7559 C 11.709 -17.2852 15.0391 -16.8457 18.3496 -13.5254 L 19.6973 -12.168 C 20.0879 -11.7773 20.0977 -11.582 19.8828 -10.8691 C 19.6582 -10.127 19.502 -9.53125 20.1465 -8.88672 C 20.8105 -8.22266 21.2891 -8.41797 22.207 -8.63281 C 22.9004 -8.79883 23.0664 -8.79883 23.4473 -8.41797 L 24.0918 -7.77344 C 24.4043 -7.48047 24.4141 -7.32422 24.0723 -6.97266 L 21.2207 -4.13086 C 20.8887 -3.79883 20.7227 -3.79883 20.4297 -4.10156 L 19.7852 -4.75586 C 19.4141 -5.13672 19.4141 -5.30273 19.5801 -6.01562 C 19.7852 -6.88477 19.9805 -7.38281 19.3262 -8.04688 C 18.6719 -8.7207 18.0762 -8.57422 17.3438 -8.33008 C 16.5625 -8.06641 16.3281 -8.06641 15.8984 -8.49609 L 14.6094 -9.78516 C 14.1699 -10.2246 14.1309 -10.4395 14.2676 -10.9082 L 15.0293 -13.3984 C 13.3887 -15.2832 11.4941 -15.5566 9.20898 -14.4434 C 9.11133 -14.3945 9.04297 -14.4141 8.96484 -14.4922 Z M 3.96484 1.36719 C 3.52539 0.927734 3.54492 0.537109 4.14062 -0.00976562 L 13.7402 -8.81836 L 15 -7.55859 L 6.17188 2.02148 C 5.625 2.60742 5.24414 2.64648 4.79492 2.19727 Z"/>
  </g>
  <text style="stroke:none;fill:black;font-family:-apple-system,&quot;SF Pro Display&quot;,&quot;SF Pro Text&quot;,Helvetica,sans-serif;font-weight:bold;" transform="matrix(1 0 0 1 1289 1953)">Exporting</text>
  <text style="stroke:none;fill:black;font-family:-apple-system,&quot;SF Pro Display&quot;,&quot;SF Pro Text&quot;,Helvetica,sans-serif;" transform="matrix(1 0 0 1 1289 1971)">Symbols should be outlined when exporting to ensure the</text>
  <text style="stroke:none;fill:black;font-family:-apple-system,&quot;SF Pro Display&quot;,&quot;SF Pro Text&quot;,Helvetica,sans-serif;" transform="matrix(1 0 0 1 1289 1989)">design is preserved when submitting to Xcode.</text>
  <text id="template-version" style="stroke:none;fill:black;font-family:-apple-system,&quot;SF Pro Display&quot;,&quot;SF Pro Text&quot;,Helvetica,sans-serif;text-anchor:end;" transform="matrix(1 0 0 1 3036 1933)">Template v.0.1</text>
  <text style="stroke:none;fill:black;font-family:-apple-system,&quot;SF Pro Display&quot;,&quot;SF Pro Text&quot;,Helvetica,sans-serif;text-anchor:end;" transform="matrix(1 0 0 1 3036 1951)">Generated from purchased</text>
  <text style="stroke:none;fill:black;font-family:-apple-system,&quot;SF Pro Display&quot;,&quot;SF Pro Text&quot;,Helvetica,sans-serif;text-anchor:end;" transform="matrix(1 0 0 1 3036 1969)">Typeset at 100 points</text>
  <text style="stroke:none;fill:black;font-family:-apple-system,&quot;SF Pro Display&quot;,&quot;SF Pro Text&quot;,Helvetica,sans-serif;" transform="matrix(1 0 0 1 263 726)">Small</text>
  <text style="stroke:none;fill:black;font-family:-apple-system,&quot;SF Pro Display&quot;,&quot;SF Pro Text&quot;,Helvetica,sans-serif;" transform="matrix(1 0 0 1 263 1156)">Medium</text>
  <text style="stroke:none;fill:black;font-family:-apple-system,&quot;SF Pro Display&quot;,&quot;SF Pro Text&quot;,Helvetica,sans-serif;" transform="matrix(1 0 0 1 263 1586)">Large</text>
 </g>
 <g id="Guides">
  <g id="H-reference" style="fill:#27AAE1;stroke:none;" transform="matrix(1 0 0 1 339 696)">
   <path d="M 54.9316 0 L 57.666 0 L 30.5664 -70.459 L 28.0762 -70.459 L 0.976562 0 L 3.66211 0 L 12.9395 -24.4629 L 45.7031 -24.4629 Z M 29.1992 -67.0898 L 29.4434 -67.0898 L 44.8242 -26.709 L 13.8184 -26.709 Z"/>
  </g>
  <line id="Baseline-S" style="fill:none;stroke:#27AAE1;opacity:1;stroke-width:0.577;" x1="263" x2="3036" y1="696" y2="696"/>
  <line id="Capline-S" style="fill:none;stroke:#27AAE1;opacity:1;stroke-width:0.577;" x1="263" x2="3036" y1="625.541" y2="625.541"/>
  <g id="H-reference" style="fill:#27AAE1;stroke:none;" transform="matrix(1 0 0 1 339 1126)">
   <path d="M 54.9316 0 L 57.666 0 L 30.5664 -70.459 L 28.0762 -70.459 L 0.976562 0 L 3.66211 0 L 12.9395 -24.4629 L 45.7031 -24.4629 Z M 29.1992 -67.0898 L 29.4434 -67.0898 L 44.8242 -26.709 L 13.8184 -26.709 Z"/>
  </g>
  <line id="Baseline-M" style="fill:none;stroke:#27AAE1;opacity:1;stroke-width:0.577;" x1="263" x2="3036" y1="1126" y2="1126"/>
  <line id="Capline-M" style="fill:none;stroke:#27AAE1;opacity:1;stroke-width:0.577;" x1="263" x2="3036" y1="1055.54" y2="1055.54"/>
  <g id="H-reference" style="fill:#27AAE1;stroke:none;" transform="matrix(1 0 0 1 339 1556)">
   <path d="M 54.9316 0 L 57.666 0 L 30.5664 -70.459 L 28.0762 -70.459 L 0.976562 0 L 3.66211 0 L 12.9395 -24.4629 L 45.7031 -24.4629 Z M 29.1992 -67.0898 L 29.4434 -67.0898 L 44.8242 -26.709 L 13.8184 -26.709 Z"/>
  </g>
  <line id="Baseline-L" style="fill:none;stroke:#27AAE1;opacity:1;stroke-width:0.577;" x1="263" x2="3036" y1="1556" y2="1556"/>
  <line id="Capline-L" style="fill:none;stroke:#27AAE1;opacity:1;stroke-width:0.577;" x1="263" x2="3036" y1="1485.54" y2="1485.54"/>
  <rect height="119.336" id="left-margin" style="fill:#00AEEF;stroke:none;opacity:0.4;" width="12.4512" x="1403.85" y="1030.79"/>
  <rect height="119.336" id="right-margin" style="fill:#00AEEF;stroke:none;opacity:0.4;" width="8.69141" x="1487.15" y="1030.79"/>
 </g>
 <g id="Symbols">
  <g id="Ultralight-S" transform="matrix(1 0 0 1 525.385 696)">
   <path d="M 9.76562 -14.7461 C 9.76562 -14.3555 9.86328 -14.1113 10.1562 -13.8184 L 23.4863 -0.537109 C 23.9258 -0.0976562 24.4141 0.0488281 24.9023 0.0488281 C 25.4395 0.0488281 25.9277 -0.146484 26.3184 -0.537109 L 39.6484 -13.8184 C 39.9414 -14.1113 40.0391 -14.3555 40.0391 -14.7461 C 40.0391 -15.332 39.5508 -15.8691 38.916 -15.8691 C 38.5254 -15.8691 38.2324 -15.6738 38.0371 -15.4785 L 34.1309 -11.5723 L 25.9277 -3.22266 L 26.0742 -18.0664 L 26.0742 -48.2422 C 26.0742 -60.0098 32.7148 -67.2852 42.8223 -67.2852 C 52.832 -67.2852 59.5215 -60.2539 59.5215 -49.707 C 59.5215 -39.9414 53.2227 -33.0566 43.75 -33.0566 C 40.5762 -33.0566 39.9902 -34.0332 39.0137 -34.0332 C 38.4277 -34.0332 37.9883 -33.6426 37.9883 -33.0566 C 37.9883 -32.7148 38.1836 -32.4219 38.4766 -32.1289 C 39.4043 -31.25 41.7969 -30.8594 43.75 -30.8594 C 54.6387 -30.8594 61.8164 -38.623 61.8164 -49.707 C 61.8164 -61.5723 54.1992 -69.5312 42.8223 -69.5312 C 31.3477 -69.5312 23.7305 -61.4746 23.7305 -48.291 L 23.7305 -18.0664 L 23.877 -3.22266 L 15.6738 -11.5723 L 11.7676 -15.4785 C 11.5723 -15.6738 11.2793 -15.8691 10.8887 -15.8691 C 10.2539 -15.8691 9.76562 -15.332 9.76562 -14.7461 Z"/>
  </g>
  <g id="Thin-S" transform="matrix(1 0 0 1 821.608 696)">
   <path d="M 9.76562 -14.9414 C 9.76562 -14.4531 9.96094 -14.0137 10.3516 -13.623 L 23.4375 -0.585938 C 24.0723 0.0976562 24.8047 0.390625 25.5371 0.390625 C 26.3184 0.390625 27.0508 0.0488281 27.6367 -0.585938 L 40.7715 -13.623 C 41.1621 -14.0137 41.3086 -14.4531 41.3086 -14.9902 C 41.3086 -15.8691 40.5762 -16.6016 39.6973 -16.6016 C 39.1113 -16.6016 38.7207 -16.3574 38.3789 -16.0645 L 34.668 -12.3535 L 27.0996 -4.39453 L 27.2949 -18.6035 L 27.2949 -48.4375 C 27.2949 -59.6191 33.5938 -66.6992 43.3594 -66.6992 C 52.8809 -66.6992 59.3262 -60.0098 59.3262 -50 C 59.3262 -40.5762 53.1738 -33.9844 44.1895 -33.9844 C 41.1133 -33.9844 40.5273 -34.8633 39.4531 -34.8633 C 38.5742 -34.8633 37.8906 -34.2773 37.8906 -33.3984 C 37.8906 -32.8125 38.1836 -32.3242 38.623 -31.9336 C 39.7461 -30.957 42.1387 -30.5664 44.1406 -30.5664 C 55.3711 -30.5664 62.793 -38.5254 62.793 -50 C 62.793 -62.0605 54.9805 -70.1172 43.3594 -70.1172 C 31.6406 -70.1172 23.7793 -62.0117 23.7793 -48.4375 L 23.7793 -18.6035 L 23.9746 -4.39453 L 16.4551 -12.3047 L 12.7441 -16.0156 C 12.4023 -16.3574 12.0117 -16.6016 11.377 -16.6016 C 10.498 -16.6016 9.76562 -15.8691 9.76562 -14.9414 Z"/>
  </g>
  <g id="Light-S" transform="matrix(1 0 0 1 1117.42 696)">
   <path d="M 9.76562 -15.3809 C 9.76562 -14.5508 10.1074 -13.8184 10.6934 -13.2812 L 23.3398 -0.634766 C 24.4141 0.439453 25.6348 0.976562 26.8066 0.976562 C 27.9785 0.976562 29.1504 0.439453 30.2246 -0.634766 L 42.9199 -13.2812 C 43.5059 -13.8672 43.7988 -14.5996 43.7988 -15.3809 C 43.7988 -16.8945 42.627 -18.0664 41.2598 -18.0664 C 40.2344 -18.0664 39.5996 -17.7246 39.0625 -17.1875 L 35.6445 -13.7695 L 29.3457 -6.73828 L 29.6875 -19.5801 L 29.6875 -48.8281 C 29.6875 -58.8867 35.2539 -65.5273 44.3848 -65.5273 C 52.9785 -65.5273 58.9355 -59.5215 58.9355 -50.4883 C 58.9355 -41.8457 53.1738 -35.791 45.0195 -35.791 C 42.2363 -35.791 41.5527 -36.4258 40.2832 -36.4258 C 38.8672 -36.4258 37.6953 -35.4492 37.6953 -33.9355 C 37.6953 -32.959 38.1836 -32.1777 38.916 -31.5918 C 40.2832 -30.4688 42.7246 -30.0781 44.873 -30.0781 C 56.8359 -30.0781 64.5996 -38.4277 64.5996 -50.4883 C 64.5996 -62.9395 56.3965 -71.2891 44.3848 -71.2891 C 32.1289 -71.2891 23.877 -63.0371 23.877 -48.584 L 23.877 -19.5312 L 24.2188 -6.73828 L 17.9199 -13.7207 L 14.5508 -17.1387 C 14.0137 -17.6758 13.3301 -18.0664 12.3535 -18.0664 C 10.9863 -18.0664 9.76562 -16.8945 9.76562 -15.3809 Z"/>
  </g>
  <g id="Regular-S" transform="matrix(1 0 0 1 1413.42 696)">
   <path d="M 9.76562 -15.6738 C 9.76562 -14.6484 10.2539 -13.6719 10.9375 -12.9883 L 23.2422 -0.683594 C 24.6582 0.732422 26.2207 1.41602 27.7832 1.41602 C 29.248 1.41602 30.7617 0.732422 32.1777 -0.683594 L 44.5312 -13.0371 C 45.3125 -13.7695 45.7031 -14.7461 45.7031 -15.7227 C 45.7031 -17.6758 44.1406 -19.1895 42.4316 -19.1895 C 41.1133 -19.1895 40.2832 -18.7012 39.5508 -18.0176 L 36.377 -14.8438 L 31.0547 -8.54492 L 31.4941 -20.3125 L 31.4941 -49.1211 C 31.4941 -58.3008 36.5234 -64.6484 45.166 -64.6484 C 53.0762 -64.6484 58.6426 -59.1309 58.6426 -50.8789 C 58.6426 -42.8223 53.125 -37.1094 45.7031 -37.1094 C 43.0664 -37.1094 42.334 -37.6465 40.9668 -37.6465 C 39.0625 -37.6465 37.5488 -36.377 37.5488 -34.375 C 37.5488 -33.0566 38.1836 -32.0312 39.1602 -31.2988 C 40.7227 -30.0781 43.1641 -29.6387 45.459 -29.6387 C 57.9102 -29.6387 66.0156 -38.3301 66.0156 -50.8789 C 66.0156 -63.6719 57.4707 -72.168 45.166 -72.168 C 32.5684 -72.168 23.9746 -63.8184 23.9746 -48.7305 L 23.9746 -20.2637 L 24.3652 -8.54492 L 19.0918 -14.7949 L 15.918 -17.9688 C 15.2344 -18.6523 14.3555 -19.1406 13.0371 -19.1406 C 11.3281 -19.1406 9.76562 -17.627 9.76562 -15.6738 Z"/>
  </g>
  <g id="Medium-S" transform="matrix(1 0 0 1 1708.69 696)">
   <path d="M 9.76562 -15.9668 C 9.76562 -14.5996 10.3027 -13.5254 11.3281 -12.5 L 23.7793 -0.195312 C 25.293 1.26953 27.1484 2.09961 28.9551 2.09961 C 30.7129 2.09961 32.5195 1.26953 34.0332 -0.195312 L 46.4844 -12.5488 C 47.5586 -13.5742 48.0957 -14.6973 48.0957 -16.0156 C 48.0957 -18.5059 46.0938 -20.3125 43.8965 -20.3125 C 42.2852 -20.3125 41.2598 -19.7754 40.2832 -18.6523 L 37.5488 -15.8691 L 32.959 -10.4004 L 33.4961 -20.9473 L 33.4961 -48.291 C 33.4961 -57.9102 38.5742 -63.9648 46.9727 -63.9648 C 54.5898 -63.9648 59.9609 -58.7402 59.9609 -50.8789 C 59.9609 -43.3105 54.834 -38.0371 47.8027 -38.0371 C 45.2148 -38.0371 44.3848 -38.4766 43.0664 -38.4766 C 40.7227 -38.4766 39.0137 -36.8652 39.0137 -34.5703 C 39.0137 -32.9102 39.8438 -31.6895 41.1133 -30.7617 C 42.7734 -29.5898 45.2637 -29.1016 47.6562 -29.1016 C 60.498 -29.1016 68.8965 -37.9395 68.8965 -50.8789 C 68.8965 -64.1113 59.9609 -73.0957 46.9727 -73.0957 C 33.252 -73.0957 24.2676 -64.209 24.2676 -48.5352 L 24.2676 -20.8984 L 24.8535 -10.4004 L 20.3125 -15.8203 L 17.5781 -18.6523 C 16.6016 -19.7266 15.5762 -20.2637 13.9648 -20.2637 C 11.7676 -20.2637 9.76562 -18.457 9.76562 -15.9668 Z"/>
  </g>
  <g id="Semibold-S" transform="matrix(1 0 0 1 2004.28 696)">
   <path d="M 9.76562 -16.2109 C 9.76562 -14.5996 10.3516 -13.3789 11.6699 -12.1582 L 24.1699 0.195312 C 25.7324 1.70898 27.832 2.63672 29.834 2.63672 C 31.8359 2.63672 33.8867 1.70898 35.4492 0.195312 L 47.998 -12.1582 C 49.3164 -13.4277 49.9023 -14.6484 49.9023 -16.2598 C 49.9023 -19.1406 47.5586 -21.1426 44.9707 -21.1426 C 43.1641 -21.1426 41.9922 -20.5566 40.8203 -19.1895 L 38.4277 -16.6504 L 34.4238 -11.8164 L 35.1074 -21.4355 L 35.1074 -47.6074 C 35.1074 -57.6172 40.1367 -63.4766 48.291 -63.4766 C 55.7617 -63.4766 60.9375 -58.3984 60.9375 -50.8789 C 60.9375 -43.75 56.1035 -38.7695 49.4141 -38.7695 C 46.9238 -38.7695 45.8984 -39.1602 44.7266 -39.1602 C 41.9922 -39.1602 40.1367 -37.2559 40.1367 -34.7168 C 40.1367 -32.8613 41.1133 -31.3477 42.627 -30.3223 C 44.3359 -29.1504 46.8262 -28.6621 49.3652 -28.6621 C 62.5 -28.6621 71.1426 -37.6465 71.1426 -50.8789 C 71.1426 -64.4531 61.8652 -73.7793 48.291 -73.7793 C 33.7891 -73.7793 24.5605 -64.5508 24.5605 -48.3887 L 24.5605 -21.3867 L 25.1953 -11.8164 L 21.2402 -16.6016 L 18.8477 -19.1406 C 17.627 -20.5566 16.5039 -21.0938 14.6484 -21.0938 C 12.1094 -21.0938 9.76562 -19.0918 9.76562 -16.2109 Z"/>
  </g>
  <g id="Bold-S" transform="matrix(1 0 0 1 2299.52 696)">
   <path d="M 9.76562 -16.5527 C 9.76562 -14.5508 10.4492 -13.2324 12.0605 -11.6699 L 24.707 0.683594 C 26.3672 2.29492 28.7598 3.32031 31.0059 3.32031 C 33.3008 3.32031 35.6445 2.29492 37.3535 0.683594 L 50 -11.6699 C 51.6113 -13.2324 52.2949 -14.5996 52.2949 -16.5527 C 52.2949 -19.9219 49.5117 -22.2656 46.4355 -22.2656 C 44.3359 -22.2656 43.0176 -21.6309 41.5527 -19.8242 L 39.5996 -17.6758 L 36.377 -13.7207 L 37.1582 -22.0703 L 37.1582 -46.7773 C 37.1582 -57.1777 42.1875 -62.793 50.0977 -62.793 C 57.3242 -62.793 62.2559 -58.0078 62.2559 -50.8789 C 62.2559 -44.2383 57.8613 -39.7461 51.5625 -39.7461 C 49.1211 -39.7461 47.9492 -39.9902 46.875 -39.9902 C 43.6523 -39.9902 41.6504 -37.7441 41.6504 -34.9121 C 41.6504 -32.7148 42.7734 -30.957 44.6289 -29.7852 C 46.3867 -28.6133 48.877 -28.0762 51.6113 -28.0762 C 65.1367 -28.0762 74.0723 -37.2559 74.0723 -50.8789 C 74.0723 -64.8926 64.4043 -74.7559 50.0977 -74.7559 C 34.4727 -74.7559 24.8535 -64.9414 24.8535 -48.1445 L 24.8535 -22.0215 L 25.6348 -13.7207 L 22.4609 -17.627 L 20.5078 -19.8242 C 19.043 -21.582 17.7246 -22.2168 15.5762 -22.2168 C 12.5488 -22.2168 9.76562 -19.9219 9.76562 -16.5527 Z"/>
  </g>
  <g id="Heavy-S" transform="matrix(1 0 0 1 2594.11 696)">
   <path d="M 9.76562 -16.9922 C 9.76562 -14.502 10.5469 -12.9395 12.6465 -10.9375 L 25.4395 1.36719 C 27.2949 3.125 30.127 4.29688 32.7637 4.29688 C 35.4004 4.29688 38.2324 3.125 40.0879 1.36719 L 52.8809 -10.9375 C 54.9805 -12.9395 55.7617 -14.502 55.7617 -16.9922 C 55.7617 -21.1426 52.3438 -23.877 48.584 -23.877 C 46.0449 -23.877 44.4336 -23.1445 42.5781 -20.8008 L 41.2598 -19.1406 L 39.209 -16.5039 L 40.1367 -22.9492 L 40.1367 -45.5566 C 40.1367 -56.5918 45.166 -61.7676 52.7344 -61.7676 C 59.5703 -61.7676 64.1113 -57.373 64.1113 -50.9277 C 64.1113 -45.0195 60.3027 -41.1133 54.6387 -41.1133 C 52.2949 -41.1133 50.9277 -41.2598 50 -41.2598 C 46.0449 -41.2598 43.8477 -38.4766 43.8477 -35.2051 C 43.8477 -32.5684 45.2148 -30.4199 47.5098 -28.9551 C 49.3652 -27.832 51.9043 -27.2461 54.8828 -27.2461 C 68.9453 -27.2461 78.3203 -36.7188 78.3203 -50.9277 C 78.3203 -65.5762 68.0664 -76.0742 52.7344 -76.0742 C 35.498 -76.0742 25.3418 -65.5762 25.3418 -47.8027 L 25.3418 -22.9492 L 26.3184 -16.5039 L 24.2676 -19.1406 L 22.9004 -20.8008 C 21.0449 -23.1445 19.4824 -23.877 16.9434 -23.877 C 13.1836 -23.877 9.76562 -21.1426 9.76562 -16.9922 Z"/>
  </g>
  <g id="Black-S" transform="matrix(1 0 0 1 2888.92 696)">
   <path d="M 9.76562 -17.4316 C 9.76562 -14.4531 10.6445 -12.7441 13.1836 -10.3027 L 26.123 2.00195 C 28.0762 3.85742 31.2988 5.17578 34.2773 5.17578 C 37.3047 5.17578 40.5273 3.85742 42.4805 2.00195 L 55.4199 -10.3027 C 57.959 -12.6953 58.8379 -14.4531 58.8379 -17.3828 C 58.8379 -22.168 54.834 -25.293 50.4883 -25.293 C 47.5586 -25.293 45.752 -24.5117 43.5059 -21.6797 L 42.7734 -20.459 L 41.6992 -18.9453 L 42.8223 -23.7793 L 42.8223 -44.4336 C 42.8223 -56.1035 47.8027 -60.8887 55.0293 -60.8887 C 61.5723 -60.8887 65.8203 -56.8359 65.8203 -50.9277 C 65.8203 -45.7031 62.5488 -42.334 57.4219 -42.334 C 55.127 -42.334 53.5645 -42.3828 52.7832 -42.3828 C 48.2422 -42.3828 45.8008 -39.1602 45.8008 -35.4492 C 45.8008 -32.4219 47.3633 -29.9316 50.0488 -28.2715 C 52.0508 -27.1484 54.6387 -26.4648 57.7637 -26.4648 C 72.3145 -26.4648 82.1289 -36.2305 82.1289 -50.9277 C 82.1289 -66.1621 71.3379 -77.2949 55.0293 -77.2949 C 36.4258 -77.2949 25.7812 -66.0645 25.7812 -47.5098 L 25.7812 -23.7793 L 26.9043 -18.9453 L 25.8301 -20.459 L 25.0977 -21.6797 C 22.8516 -24.5117 21.0449 -25.3418 18.1152 -25.3418 C 13.7695 -25.3418 9.76562 -22.2168 9.76562 -17.4316 Z"/>
  </g>
  <g id="Ultralight-M" transform="matrix(1 0 0 1 516.059 1126)">
   <path d="M 12.4512 -8.98438 C 12.4512 -8.59375 12.5977 -8.30078 12.8906 -7.95898 L 29.9805 9.0332 C 30.4688 9.52148 31.0059 9.7168 31.543 9.7168 C 32.1289 9.7168 32.666 9.47266 33.1055 9.0332 L 50.1953 -7.95898 C 50.4883 -8.30078 50.6348 -8.59375 50.6348 -8.98438 C 50.6348 -9.66797 50.0977 -10.2051 49.3652 -10.2051 C 48.9258 -10.2051 48.6328 -10.0098 48.3887 -9.76562 L 43.4082 -4.78516 L 32.666 6.10352 L 32.8125 -13.1348 L 32.8125 -51.7578 C 32.8125 -67.041 41.4062 -76.3672 54.4434 -76.3672 C 67.4316 -76.3672 76.0742 -67.2363 76.0742 -53.6133 C 76.0742 -41.0156 67.9199 -32.1289 55.6641 -32.1289 C 51.5625 -32.1289 50.8789 -33.3984 49.6094 -33.3984 C 48.9746 -33.3984 48.584 -32.959 48.584 -32.373 C 48.584 -32.0312 48.7305 -31.6406 49.0234 -31.3477 C 50.1953 -30.2246 53.2715 -29.7363 55.6641 -29.7363 C 69.4336 -29.7363 78.5645 -39.5508 78.5645 -53.6133 C 78.5645 -68.7012 68.9453 -78.7598 54.4434 -78.7598 C 39.9414 -78.7598 30.2734 -68.5059 30.2734 -51.9043 L 30.2734 -13.1348 L 30.4199 6.10352 L 19.6777 -4.78516 L 14.6973 -9.76562 C 14.4531 -10.0098 14.1602 -10.2051 13.7207 -10.2051 C 12.9883 -10.2051 12.4512 -9.66797 12.4512 -8.98438 Z"/>
  </g>
  <g id="Thin-M" transform="matrix(1 0 0 1 812.233 1126)">
   <path d="M 12.4512 -9.22852 C 12.4512 -8.64258 12.6953 -8.20312 13.0859 -7.76367 L 29.9316 9.0332 C 30.6641 9.76562 31.4453 10.0586 32.2754 10.0586 C 33.1055 10.0586 33.9355 9.7168 34.5703 9.0332 L 51.416 -7.76367 C 51.8555 -8.20312 52.0508 -8.69141 52.0508 -9.22852 C 52.0508 -10.2539 51.2695 -11.0352 50.2441 -11.0352 C 49.6094 -11.0352 49.1699 -10.791 48.7793 -10.4492 L 43.9453 -5.61523 L 33.9844 4.73633 L 34.1797 -13.7207 L 34.1797 -52.002 C 34.1797 -66.6016 42.3828 -75.7324 55.0293 -75.7324 C 67.4805 -75.7324 75.8301 -66.9922 75.8301 -53.9062 C 75.8301 -41.748 67.9199 -33.1543 56.1523 -33.1543 C 52.1973 -33.1543 51.4648 -34.2773 50.1465 -34.2773 C 49.1211 -34.2773 48.4375 -33.6426 48.4375 -32.7148 C 48.4375 -32.0801 48.7305 -31.543 49.2188 -31.1523 C 50.5371 -29.9316 53.6133 -29.4434 56.1035 -29.4434 C 70.2637 -29.4434 79.6387 -39.502 79.6387 -53.9062 C 79.6387 -69.1895 69.7754 -79.4434 55.0293 -79.4434 C 40.2344 -79.4434 30.3223 -69.0918 30.3223 -52.002 L 30.3223 -13.7207 L 30.5176 4.73633 L 20.5566 -5.61523 L 15.7227 -10.4004 C 15.3809 -10.791 14.9414 -11.0352 14.2578 -11.0352 C 13.2812 -11.0352 12.4512 -10.2539 12.4512 -9.22852 Z"/>
  </g>
  <g id="Light-M" transform="matrix(1 0 0 1 1107.92 1126)">
   <path d="M 12.4512 -9.7168 C 12.4512 -8.78906 12.8418 -8.00781 13.4766 -7.37305 L 29.834 8.93555 C 31.0059 10.1562 32.373 10.7422 33.6914 10.7422 C 35.0098 10.7422 36.3281 10.1562 37.5 8.93555 L 53.8574 -7.37305 C 54.541 -8.05664 54.8828 -8.83789 54.8828 -9.7168 C 54.8828 -11.4258 53.5645 -12.6953 52.002 -12.6953 C 50.8789 -12.6953 50.1465 -12.3047 49.5605 -11.7188 L 45.0684 -7.22656 L 36.5234 2.09961 L 36.8652 -14.8438 L 36.8652 -52.4414 C 36.8652 -65.7227 44.3359 -74.4141 56.2012 -74.4141 C 67.5781 -74.4141 75.3906 -66.4062 75.3906 -54.4922 C 75.3906 -43.1641 67.8711 -35.1562 57.1289 -35.1562 C 53.418 -35.1562 52.6367 -36.084 51.0742 -36.084 C 49.4629 -36.084 48.1934 -35.0098 48.1934 -33.3496 C 48.1934 -32.2266 48.7305 -31.3965 49.5605 -30.7129 C 51.2207 -29.3945 54.2969 -28.8574 56.9824 -28.8574 C 71.9238 -28.8574 81.7383 -39.3555 81.7383 -54.4922 C 81.7383 -70.2637 71.3867 -80.7617 56.2012 -80.7617 C 40.8203 -80.7617 30.4688 -70.2637 30.4688 -52.2461 L 30.4688 -14.7949 L 30.8105 2.09961 L 22.2656 -7.17773 L 17.8223 -11.6699 C 17.1875 -12.2559 16.4551 -12.6953 15.332 -12.6953 C 13.8184 -12.6953 12.4512 -11.377 12.4512 -9.7168 Z"/>
  </g>
  <g id="Regular-M" transform="matrix(1 0 0 1 1403.85 1126)">
   <path d="M 12.4512 -10.0586 C 12.4512 -8.88672 12.9883 -7.8125 13.7695 -7.03125 L 29.7363 8.88672 C 31.2988 10.498 33.0566 11.2305 34.7656 11.2305 C 36.4746 11.2305 38.1348 10.4492 39.6973 8.88672 L 55.7129 -7.08008 C 56.543 -7.91016 57.0312 -8.98438 57.0312 -10.1074 C 57.0312 -12.3047 55.2734 -13.9648 53.3203 -13.9648 C 51.8555 -13.9648 50.9277 -13.4277 50.1465 -12.6465 L 45.9473 -8.44727 L 38.4277 0.0976562 L 38.916 -15.6738 L 38.916 -52.7344 C 38.916 -65.0879 45.752 -73.3887 57.1289 -73.3887 C 67.6758 -73.3887 75.0488 -66.0156 75.0488 -54.9316 C 75.0488 -44.2383 67.8223 -36.7188 57.8613 -36.7188 C 54.3945 -36.7188 53.5156 -37.4512 51.8066 -37.4512 C 49.707 -37.4512 47.998 -36.0352 47.998 -33.8379 C 47.998 -32.373 48.7305 -31.25 49.8535 -30.4199 C 51.709 -28.9551 54.7852 -28.418 57.6172 -28.418 C 73.1445 -28.418 83.3008 -39.2578 83.3008 -54.9316 C 83.3008 -71.0449 72.6074 -81.7383 57.1289 -81.7383 C 41.2598 -81.7383 30.5176 -71.1914 30.5176 -52.3926 L 30.5176 -15.625 L 31.0059 0.0976562 L 23.584 -8.39844 L 19.3359 -12.5977 C 18.5547 -13.3789 17.627 -13.916 16.1621 -13.916 C 14.209 -13.916 12.4512 -12.2559 12.4512 -10.0586 Z"/>
  </g>
  <g id="Medium-M" transform="matrix(1 0 0 1 1698.97 1126)">
   <path d="M 12.4512 -10.4004 C 12.4512 -8.83789 13.0859 -7.61719 14.209 -6.49414 L 30.2734 9.375 C 31.9824 11.084 34.0332 12.0117 36.084 12.0117 C 38.1348 12.0117 40.1855 11.084 41.8945 9.375 L 57.959 -6.54297 C 59.1309 -7.71484 59.7168 -8.93555 59.7168 -10.4492 C 59.7168 -13.2324 57.4707 -15.2344 54.9805 -15.2344 C 53.1738 -15.2344 52.002 -14.6484 50.9277 -13.4277 L 47.2168 -9.61914 L 40.625 -2.05078 L 41.2598 -16.4062 L 41.2598 -51.9043 C 41.2598 -64.5996 47.998 -72.6074 59.0332 -72.6074 C 69.2383 -72.6074 76.3672 -65.5273 76.3672 -54.9805 C 76.3672 -44.873 69.5801 -37.8418 60.1074 -37.8418 C 56.7383 -37.8418 55.6641 -38.4766 54.1016 -38.4766 C 51.416 -38.4766 49.5117 -36.6699 49.5117 -34.1309 C 49.5117 -32.2754 50.4395 -30.8594 51.8555 -29.7852 C 53.8574 -28.3691 56.9824 -27.7344 59.9609 -27.7344 C 75.9766 -27.7344 86.4258 -38.8672 86.4258 -54.9805 C 86.4258 -71.582 75.293 -82.8125 59.0332 -82.8125 C 42.041 -82.8125 30.8594 -71.6797 30.8594 -52.1973 L 30.8594 -16.3574 L 31.4941 -2.05078 L 24.9512 -9.61914 L 21.2402 -13.4277 C 20.1172 -14.5996 18.9941 -15.2344 17.1875 -15.2344 C 14.6973 -15.2344 12.4512 -13.1836 12.4512 -10.4004 Z"/>
  </g>
  <g id="Semibold-M" transform="matrix(1 0 0 1 1994.49 1126)">
   <path d="M 12.4512 -10.6934 C 12.4512 -8.83789 13.1348 -7.4707 14.5508 -6.10352 L 30.6641 9.76562 C 32.4707 11.5723 34.8633 12.5977 37.1094 12.5977 C 39.3555 12.5977 41.6992 11.5234 43.5059 9.76562 L 59.6191 -6.15234 C 61.084 -7.56836 61.7676 -8.88672 61.7676 -10.7422 C 61.7676 -13.9648 59.1309 -16.2109 56.25 -16.2109 C 54.1504 -16.2109 52.8809 -15.5762 51.5625 -14.0625 L 48.1934 -10.5469 L 42.334 -3.71094 L 43.0176 -16.9922 L 43.0176 -51.3184 C 43.0176 -64.209 49.707 -71.9727 60.498 -71.9727 C 70.459 -71.9727 77.3438 -65.1855 77.3438 -55.0293 C 77.3438 -45.4102 70.8984 -38.7207 61.8164 -38.7207 C 58.4961 -38.7207 57.3242 -39.3066 55.8105 -39.3066 C 52.7344 -39.3066 50.6836 -37.1582 50.6836 -34.3262 C 50.6836 -32.1777 51.709 -30.5176 53.418 -29.3457 C 55.4688 -27.8809 58.6426 -27.2461 61.7676 -27.2461 C 78.125 -27.2461 88.8672 -38.5742 88.8672 -55.0293 C 88.8672 -71.9727 77.3926 -83.6426 60.498 -83.6426 C 42.627 -83.6426 31.1523 -72.1191 31.1523 -52.002 L 31.1523 -16.9434 L 31.8848 -3.71094 L 26.0254 -10.498 L 22.6562 -14.0137 C 21.3379 -15.5273 20.0195 -16.2109 17.9688 -16.2109 C 15.0879 -16.2109 12.4512 -13.916 12.4512 -10.6934 Z"/>
  </g>
  <g id="Bold-M" transform="matrix(1 0 0 1 2289.59 1126)">
   <path d="M 12.4512 -11.0352 C 12.4512 -8.83789 13.2324 -7.27539 15.0391 -5.56641 L 31.1523 10.2539 C 33.1543 12.1582 35.8887 13.3301 38.4766 13.3301 C 41.0645 13.3301 43.75 12.1582 45.7031 10.2539 L 61.9141 -5.56641 C 63.7207 -7.32422 64.4531 -8.88672 64.4531 -11.084 C 64.4531 -14.8926 61.3281 -17.5293 57.9102 -17.5293 C 55.4688 -17.5293 53.9551 -16.7969 52.3438 -14.8438 L 49.4629 -11.7188 L 44.5312 -5.9082 L 45.4102 -17.7246 L 45.4102 -50.4395 C 45.4102 -63.7207 52.002 -71.1426 62.4512 -71.1426 C 72.0703 -71.1426 78.6133 -64.6973 78.6133 -55.0781 C 78.6133 -46.0938 72.6562 -39.8926 64.1113 -39.8926 C 60.8887 -39.8926 59.5703 -40.332 58.1055 -40.332 C 54.4922 -40.332 52.1973 -37.793 52.1973 -34.5703 C 52.1973 -32.0801 53.418 -30.127 55.4688 -28.7598 C 57.666 -27.2949 60.8398 -26.6113 64.1602 -26.6113 C 80.957 -26.6113 92.041 -38.1348 92.041 -55.0781 C 92.041 -72.5586 80.0781 -84.7168 62.4512 -84.7168 C 43.4082 -84.7168 31.4941 -72.6074 31.4941 -51.8066 L 31.4941 -17.6758 L 32.373 -5.9082 L 27.4414 -11.7188 L 24.5605 -14.7949 C 22.9492 -16.748 21.4355 -17.4805 18.9941 -17.4805 C 15.5762 -17.4805 12.4512 -14.8438 12.4512 -11.0352 Z"/>
  </g>
  <g id="Heavy-M" transform="matrix(1 0 0 1 2584 1126)">
   <path d="M 12.4512 -11.5723 C 12.4512 -8.78906 13.3789 -7.03125 15.6738 -4.78516 L 31.9336 10.9863 C 34.1309 13.0859 37.3535 14.4531 40.4297 14.4531 C 43.457 14.4531 46.6797 13.0371 48.877 10.9863 L 65.1367 -4.78516 C 67.4805 -7.03125 68.3594 -8.83789 68.3594 -11.5723 C 68.3594 -16.2598 64.502 -19.3848 60.3027 -19.3848 C 57.4219 -19.3848 55.5664 -18.5547 53.5156 -16.0156 L 51.3184 -13.4766 L 47.7539 -9.08203 L 48.8281 -18.7988 L 48.8281 -49.2676 C 48.8281 -63.0371 55.2734 -69.9707 65.2832 -69.9707 C 74.3652 -69.9707 80.5176 -64.0137 80.5176 -55.1758 C 80.5176 -47.0703 75.1953 -41.5527 67.3828 -41.5527 C 64.3066 -41.5527 62.7441 -41.8457 61.4258 -41.8457 C 56.9824 -41.8457 54.3945 -38.7207 54.3945 -34.9609 C 54.3945 -31.9336 55.9082 -29.4922 58.4961 -27.8809 C 60.791 -26.416 64.0137 -25.6836 67.5781 -25.6836 C 85.0586 -25.6836 96.6797 -37.5488 96.6797 -55.1758 C 96.6797 -73.3398 84.0332 -86.2793 65.2832 -86.2793 C 44.5312 -86.2793 31.9824 -73.3887 31.9824 -51.5137 L 31.9824 -18.7988 L 33.0566 -9.08203 L 29.4922 -13.4766 L 27.2949 -15.9668 C 25.2441 -18.5547 23.4375 -19.3848 20.5078 -19.3848 C 16.3086 -19.3848 12.4512 -16.2598 12.4512 -11.5723 Z"/>
  </g>
  <g id="Black-M" transform="matrix(1 0 0 1 2878.64 1126)">
   <path d="M 12.4512 -12.0605 C 12.4512 -8.78906 13.4766 -6.73828 16.2598 -4.10156 L 32.6172 11.6211 C 34.9609 13.8672 38.7207 15.4297 42.1387 15.4297 C 45.6055 15.4297 49.3652 13.8672 51.709 11.6211 L 68.0664 -4.10156 C 70.8496 -6.73828 71.875 -8.78906 71.875 -12.0605 C 71.875 -17.4805 67.3828 -21.0938 62.4512 -21.0938 C 59.1309 -21.0938 57.0312 -20.1172 54.5898 -17.041 L 53.0273 -14.9902 L 50.6348 -11.8652 L 51.8555 -19.7754 L 51.8555 -48.1934 C 51.8555 -62.4023 58.252 -68.8965 67.7734 -68.8965 C 76.416 -68.8965 82.1777 -63.3789 82.1777 -55.2734 C 82.1777 -47.9004 77.4414 -43.0664 70.3125 -43.0664 C 67.334 -43.0664 65.5762 -43.2129 64.4043 -43.2129 C 59.2285 -43.2129 56.3477 -39.5508 56.3477 -35.3027 C 56.3477 -31.8359 58.1055 -28.9551 61.1328 -27.0996 C 63.5742 -25.6348 66.8457 -24.8535 70.6543 -24.8535 C 88.7207 -24.8535 100.781 -37.0117 100.781 -55.2734 C 100.781 -74.0723 87.5977 -87.6953 67.7734 -87.6953 C 45.5078 -87.6953 32.4707 -74.0723 32.4707 -51.2695 L 32.4707 -19.7754 L 33.7402 -11.8652 L 31.2988 -15.0391 L 29.7363 -17.041 C 27.2949 -20.1172 25.1953 -21.0938 21.875 -21.0938 C 16.9434 -21.0938 12.4512 -17.4805 12.4512 -12.0605 Z"/>
  </g>
  <g id="Ultralight-L" transform="matrix(1 0 0 1 503.632 1556)">
   <path d="M 16.0645 -1.26953 C 16.0645 -0.830078 16.2109 -0.488281 16.5527 -0.146484 L 38.7207 21.9238 C 39.209 22.4609 39.7949 22.6074 40.3809 22.6074 C 41.0645 22.6074 41.6504 22.3633 42.041 21.9238 L 64.209 -0.146484 C 64.5508 -0.488281 64.6973 -0.78125 64.6973 -1.26953 C 64.6973 -1.95312 64.1113 -2.53906 63.2812 -2.53906 C 62.8418 -2.53906 62.5488 -2.34375 62.2559 -2.09961 L 55.7617 4.44336 L 41.6016 18.7012 L 41.6992 -6.49414 L 41.6992 -56.4453 C 41.6992 -76.416 53.0273 -88.623 69.9707 -88.623 C 86.9629 -88.623 98.2422 -76.6602 98.2422 -58.8379 C 98.2422 -42.334 87.6465 -30.7617 71.6309 -30.7617 C 66.2598 -30.7617 65.3809 -32.4219 63.8184 -32.4219 C 63.1348 -32.4219 62.6953 -31.9824 62.6953 -31.3965 C 62.6953 -31.0547 62.8906 -30.6641 63.1836 -30.3223 C 64.6484 -28.9062 68.5547 -28.2715 71.6797 -28.2715 C 89.209 -28.2715 100.928 -40.8691 100.928 -58.8379 C 100.928 -78.1738 88.5742 -91.1133 69.9707 -91.1133 C 51.3672 -91.1133 39.0625 -77.8809 39.0625 -56.6895 L 39.0625 -6.49414 L 39.1602 18.7012 L 25 4.39453 L 18.5059 -2.09961 C 18.2129 -2.39258 17.9199 -2.58789 17.4805 -2.58789 C 16.6504 -2.58789 16.0645 -2.00195 16.0645 -1.26953 Z"/>
  </g>
  <g id="Thin-L" transform="matrix(1 0 0 1 799.733 1556)">
   <path d="M 16.0645 -1.5625 C 16.0645 -0.878906 16.3086 -0.390625 16.748 0.0976562 L 38.6719 21.875 C 39.4531 22.6562 40.332 22.998 41.2109 22.998 C 42.1387 22.998 43.0176 22.6074 43.7012 21.875 L 65.625 0.0488281 C 66.1133 -0.390625 66.3086 -0.878906 66.3086 -1.5625 C 66.3086 -2.63672 65.4297 -3.51562 64.3066 -3.51562 C 63.5742 -3.51562 63.0859 -3.22266 62.6953 -2.83203 L 56.3965 3.51562 L 43.0664 17.1875 L 43.2617 -7.12891 L 43.2617 -56.6895 C 43.2617 -75.9277 54.1016 -87.8906 70.6543 -87.8906 C 87.0605 -87.8906 97.998 -76.3672 97.998 -59.1797 C 97.998 -43.1641 87.6465 -31.9336 72.168 -31.9336 C 66.9434 -31.9336 66.0645 -33.4473 64.3555 -33.4473 C 63.3301 -33.4473 62.5977 -32.7637 62.5977 -31.7871 C 62.5977 -31.1523 62.8906 -30.5664 63.3789 -30.0781 C 64.9902 -28.5645 68.9453 -27.9297 72.168 -27.9297 C 90.1367 -27.9297 102.1 -40.7715 102.1 -59.1797 C 102.1 -78.7598 89.502 -91.8945 70.6543 -91.8945 C 51.709 -91.8945 39.1113 -78.5645 39.1113 -56.7871 L 39.1113 -7.12891 L 39.3066 17.1875 L 25.9766 3.51562 L 19.6777 -2.83203 C 19.2871 -3.22266 18.7988 -3.51562 18.0664 -3.51562 C 16.9434 -3.51562 16.0645 -2.63672 16.0645 -1.5625 Z"/>
  </g>
  <g id="Light-L" transform="matrix(1 0 0 1 1095.3 1556)">
   <path d="M 16.0645 -2.05078 C 16.0645 -1.02539 16.5039 -0.146484 17.1875 0.537109 L 38.5254 21.8262 C 39.8438 23.1445 41.3086 23.7305 42.7734 23.7305 C 44.2871 23.7305 45.7031 23.0957 46.9727 21.8262 L 68.3105 0.488281 C 69.0918 -0.244141 69.4336 -1.07422 69.4336 -2.09961 C 69.4336 -3.95508 67.9688 -5.37109 66.2598 -5.37109 C 65.0391 -5.37109 64.209 -4.93164 63.5742 -4.24805 L 57.6172 1.70898 L 45.8984 14.209 L 46.2891 -8.39844 L 46.2891 -57.1777 C 46.2891 -75 56.25 -86.4258 71.9727 -86.4258 C 87.1582 -86.4258 97.5098 -75.7324 97.5098 -59.8145 C 97.5098 -44.7754 87.5977 -34.1797 73.2422 -34.1797 C 68.3594 -34.1797 67.334 -35.4492 65.4785 -35.4492 C 63.6719 -35.4492 62.3047 -34.2773 62.3047 -32.5195 C 62.3047 -31.2988 62.8906 -30.3711 63.7695 -29.6387 C 65.7227 -27.9297 69.7266 -27.2949 73.0957 -27.2949 C 91.9922 -27.2949 104.443 -40.625 104.443 -59.8145 C 104.443 -79.9316 91.3086 -93.3594 71.9727 -93.3594 C 52.3926 -93.3594 39.2578 -79.8828 39.2578 -57.0312 L 39.2578 -8.34961 L 39.5996 14.209 L 27.8809 1.70898 L 21.9727 -4.19922 C 21.2891 -4.88281 20.5078 -5.32227 19.2871 -5.32227 C 17.5293 -5.32227 16.0645 -3.90625 16.0645 -2.05078 Z"/>
  </g>
  <g id="Regular-L" transform="matrix(1 0 0 1 1391.13 1556)">
   <path d="M 16.0645 -2.44141 C 16.0645 -1.12305 16.6504 0 17.5293 0.878906 L 38.4277 21.7773 C 40.1855 23.4863 42.0898 24.3164 43.9941 24.3164 C 45.8984 24.3164 47.7539 23.4375 49.4141 21.7773 L 70.3613 0.830078 C 71.3379 -0.0976562 71.8262 -1.26953 71.8262 -2.49023 C 71.8262 -4.93164 69.9219 -6.78711 67.7246 -6.78711 C 66.1133 -6.78711 65.0879 -6.20117 64.209 -5.32227 L 58.5938 0.341797 L 48.0469 12.0117 L 48.5352 -9.32617 L 48.5352 -57.5684 C 48.5352 -74.2676 57.8613 -85.3027 72.9492 -85.3027 C 87.2559 -85.3027 97.1191 -75.293 97.1191 -60.2539 C 97.1191 -45.9473 87.5488 -35.8887 74.0723 -35.8887 C 69.3848 -35.8887 68.3105 -37.0117 66.2598 -37.0117 C 63.9648 -37.0117 62.1094 -35.4492 62.1094 -33.0566 C 62.1094 -31.4453 62.8906 -30.2246 64.0625 -29.248 C 66.3086 -27.4902 70.3125 -26.7578 73.8281 -26.7578 C 93.3594 -26.7578 106.201 -40.5273 106.201 -60.2539 C 106.201 -80.7617 92.6758 -94.4336 72.9492 -94.4336 C 52.8809 -94.4336 39.3555 -80.8594 39.3555 -57.2266 L 39.3555 -9.27734 L 39.8438 12.0117 L 29.3457 0.390625 L 23.6816 -5.27344 C 22.8516 -6.15234 21.7773 -6.73828 20.2148 -6.73828 C 18.0176 -6.73828 16.0645 -4.88281 16.0645 -2.44141 Z"/>
  </g>
  <g id="Medium-L" transform="matrix(1 0 0 1 1686.23 1556)">
   <path d="M 16.0645 -2.83203 C 16.0645 -1.17188 16.748 0.195312 18.0176 1.46484 L 38.8672 22.2168 C 40.8203 24.1211 43.1641 25.0977 45.4102 25.0977 C 47.6562 25.0977 49.9512 24.0723 51.8555 22.2168 L 72.8027 1.41602 C 74.0723 0.0976562 74.707 -1.2207 74.707 -2.88086 C 74.707 -5.95703 72.2656 -8.20312 69.4824 -8.20312 C 67.5293 -8.20312 66.2598 -7.51953 65.0391 -6.25 L 59.9121 -1.02539 L 50.4395 9.61914 L 51.0742 -10.1562 L 51.0742 -56.8848 C 51.0742 -73.6816 60.2051 -84.375 74.9023 -84.375 C 88.7207 -84.375 98.2422 -74.7559 98.2422 -60.4004 C 98.2422 -46.7773 89.1113 -37.207 76.2695 -37.207 C 71.7285 -37.207 70.5078 -38.2324 68.5059 -38.2324 C 65.5762 -38.2324 63.4277 -36.2305 63.4277 -33.3984 C 63.4277 -31.3477 64.4531 -29.7852 66.0156 -28.6621 C 68.3594 -26.8555 72.3633 -26.123 76.123 -26.123 C 96.1914 -26.123 109.375 -40.1367 109.375 -60.4004 C 109.375 -81.4453 95.4102 -95.6055 74.9023 -95.6055 C 53.6621 -95.6055 39.6484 -81.543 39.6484 -57.0801 L 39.6484 -10.1074 L 40.332 9.61914 L 30.9082 -0.976562 L 25.7324 -6.20117 C 24.5605 -7.4707 23.291 -8.1543 21.2891 -8.1543 C 18.5059 -8.1543 16.0645 -5.9082 16.0645 -2.83203 Z"/>
  </g>
  <g id="Semibold-L" transform="matrix(1 0 0 1 1981.72 1556)">
   <path d="M 16.0645 -3.17383 C 16.0645 -1.17188 16.8457 0.341797 18.3594 1.85547 L 39.2578 22.5098 C 41.3574 24.6094 43.9453 25.7324 46.5332 25.7324 C 49.0723 25.7324 51.6602 24.5605 53.7109 22.5098 L 74.6582 1.80664 C 76.2207 0.292969 76.9043 -1.2207 76.9043 -3.22266 C 76.9043 -6.73828 74.0723 -9.27734 70.8496 -9.27734 C 68.6035 -9.27734 67.1387 -8.54492 65.7227 -6.93359 L 60.9375 -2.05078 L 52.2461 7.8125 L 53.0273 -10.791 L 53.0273 -56.3477 C 53.0273 -73.2422 62.0117 -83.6426 76.3672 -83.6426 C 89.8438 -83.6426 99.0723 -74.3652 99.0723 -60.5469 C 99.0723 -47.4121 90.332 -38.2812 77.9785 -38.2812 C 73.5352 -38.2812 72.168 -39.1602 70.2148 -39.1602 C 66.7969 -39.1602 64.4531 -36.8164 64.4531 -33.6426 C 64.4531 -31.2988 65.625 -29.4922 67.4805 -28.1738 C 69.9219 -26.3672 73.9746 -25.5859 77.832 -25.5859 C 98.3398 -25.5859 111.816 -39.8438 111.816 -60.5469 C 111.816 -81.9336 97.4609 -96.5332 76.3672 -96.5332 C 54.2969 -96.5332 39.9414 -82.0312 39.9414 -56.9824 L 39.9414 -10.791 L 40.7227 7.8125 L 32.0801 -2.00195 L 27.2949 -6.88477 C 25.8789 -8.49609 24.4141 -9.22852 22.168 -9.22852 C 18.9453 -9.22852 16.0645 -6.68945 16.0645 -3.17383 Z"/>
  </g>
  <g id="Bold-L" transform="matrix(1 0 0 1 2276.82 1556)">
   <path d="M 16.0645 -3.56445 C 16.0645 -1.17188 16.9434 0.585938 18.8477 2.39258 L 39.6973 22.9492 C 41.9922 25.1953 45.0684 26.5137 47.9492 26.5137 C 50.8789 26.5137 53.8574 25.1953 56.1523 22.9492 L 77.0508 2.39258 C 79.0039 0.488281 79.834 -1.2207 79.834 -3.61328 C 79.834 -7.76367 76.416 -10.7422 72.6562 -10.7422 C 69.9707 -10.7422 68.3105 -9.86328 66.5527 -7.86133 L 62.3047 -3.36914 L 54.6875 5.37109 L 55.6152 -11.6699 L 55.6152 -55.6641 C 55.6152 -72.6562 64.3555 -82.666 78.3691 -82.666 C 91.3086 -82.666 100.195 -73.8281 100.195 -60.6934 C 100.195 -48.2422 91.9434 -39.6484 80.1758 -39.6484 C 75.8789 -39.6484 74.3652 -40.3809 72.4609 -40.3809 C 68.457 -40.3809 65.8203 -37.6465 65.8203 -33.9844 C 65.8203 -31.25 67.1875 -29.1016 69.4336 -27.5879 C 72.0215 -25.7324 76.0742 -24.9023 80.127 -24.9023 C 101.172 -24.9023 115.088 -39.4531 115.088 -60.6934 C 115.088 -82.6172 100.244 -97.7051 78.3691 -97.7051 C 55.0781 -97.7051 40.2344 -82.7148 40.2344 -56.7871 L 40.2344 -11.6211 L 41.2109 5.37109 L 33.6426 -3.32031 L 29.3457 -7.8125 C 27.5879 -9.86328 25.9277 -10.6934 23.2422 -10.6934 C 19.4824 -10.6934 16.0645 -7.76367 16.0645 -3.56445 Z"/>
  </g>
  <g id="Heavy-L" transform="matrix(1 0 0 1 2571.19 1556)">
   <path d="M 16.0645 -4.15039 C 16.0645 -1.17188 17.0898 0.878906 19.5312 3.22266 L 40.3809 23.584 C 42.9688 26.123 46.6309 27.6855 50.0977 27.6855 C 53.5156 27.6855 57.1289 26.123 59.7168 23.584 L 80.6152 3.17383 C 83.0566 0.830078 84.0332 -1.2207 84.0332 -4.19922 C 84.0332 -9.27734 79.8828 -12.793 75.2441 -12.793 C 72.0215 -12.793 70.0195 -11.8164 67.8223 -9.17969 L 64.2578 -5.32227 L 58.2031 1.9043 L 59.375 -12.8906 L 59.375 -54.6387 C 59.375 -71.8262 67.8223 -81.2988 81.2012 -81.2988 C 93.457 -81.2988 101.807 -73.0957 101.807 -60.8887 C 101.807 -49.4629 94.2383 -41.6016 83.3984 -41.6016 C 79.2969 -41.6016 77.5391 -42.1875 75.6836 -42.1875 C 70.8008 -42.1875 67.7734 -38.7695 67.7734 -34.4727 C 67.7734 -31.1523 69.4336 -28.5156 72.2168 -26.6602 C 75.0488 -24.8047 79.1504 -23.9258 83.4961 -23.9258 C 105.322 -23.9258 119.775 -38.8672 119.775 -60.8887 C 119.775 -83.5938 104.199 -99.4629 81.2012 -99.4629 C 56.25 -99.4629 40.7227 -83.6914 40.7227 -56.5918 L 40.7227 -12.8418 L 41.8945 1.9043 L 35.8887 -5.27344 L 32.3242 -9.17969 C 30.127 -11.8164 28.0762 -12.793 24.9023 -12.793 C 20.2637 -12.793 16.0645 -9.27734 16.0645 -4.15039 Z"/>
  </g>
  <g id="Black-L" transform="matrix(1 0 0 1 2865.8 1556)">
   <path d="M 16.0645 -4.6875 C 16.0645 -1.17188 17.2363 1.17188 20.1172 3.95508 L 40.9668 24.1699 C 43.8477 26.9531 47.998 28.7109 51.9531 28.7109 C 55.8594 28.7109 60.0098 26.9531 62.8906 24.1699 L 83.7402 3.90625 C 86.6699 1.12305 87.793 -1.2207 87.793 -4.6875 C 87.793 -10.6445 82.959 -14.6973 77.5879 -14.6973 C 73.877 -14.6973 71.5332 -13.5742 68.9453 -10.4004 L 66.0156 -7.08008 L 61.3281 -1.2207 L 62.6953 -14.0137 L 62.6953 -53.7598 C 62.6953 -71.0938 70.8984 -80.0293 83.7402 -80.0293 C 95.3613 -80.0293 103.271 -72.4121 103.271 -61.084 C 103.271 -50.5371 96.3379 -43.4082 86.2793 -43.4082 C 82.3242 -43.4082 80.3711 -43.7988 78.6133 -43.7988 C 72.9492 -43.7988 69.5312 -39.7949 69.5312 -34.9121 C 69.5312 -31.0547 71.4844 -27.9785 74.7559 -25.8789 C 77.7344 -23.9746 81.8848 -22.998 86.4746 -22.998 C 109.033 -22.998 123.975 -38.3301 123.975 -61.084 C 123.975 -84.4727 107.764 -100.977 83.7402 -100.977 C 57.2754 -100.977 41.1621 -84.5215 41.1621 -56.3965 L 41.1621 -13.9648 L 42.5293 -1.2207 L 37.8906 -7.03125 L 34.9609 -10.3516 C 32.373 -13.5742 30.0293 -14.6484 26.3184 -14.6484 C 20.9473 -14.6484 16.0645 -10.6445 16.0645 -4.6875 Z"/>
  </g>
 </g>
</svg>
