<?xml version="1.0" encoding="UTF-8"?>
<!--Generator: Apple Native CoreSVG 123-->
<!DOCTYPE svg
PUBLIC "-//W3C//DTD SVG 1.1//EN"
       "http://www.w3.org/Graphics/SVG/1.1/DTD/svg11.dtd">
<svg version="1.1" xmlns="http://www.w3.org/2000/svg" xmlns:xlink="http://www.w3.org/1999/xlink" width="3300" height="2200">
 <!--glyph: "uni1001EF.medium", point size: 100.000000, font version: "Version 15.0d4e20", template writer version: "2"-->
 <g id="Notes">
  <rect height="2200" id="artboard" style="fill:white;opacity:1" width="3300" x="0" y="0"/>
  <line id="" style="fill:none;stroke:black;opacity:1;stroke-width:0.5;" x1="263" x2="3036" y1="292" y2="292"/>
  <text style="stroke:none;fill:black;font-family:-apple-system,&quot;SF Pro Display&quot;,&quot;SF Pro Text&quot;,Helvetica,sans-serif;font-weight:bold;" transform="matrix(1 0 0 1 263 322)">Weight/Scale Variations</text>
  <text style="stroke:none;fill:black;font-family:-apple-system,&quot;SF Pro Display&quot;,&quot;SF Pro Text&quot;,Helvetica,sans-serif;text-anchor:middle;" transform="matrix(1 0 0 1 559.711 322)">Ultralight</text>
  <text style="stroke:none;fill:black;font-family:-apple-system,&quot;SF Pro Display&quot;,&quot;SF Pro Text&quot;,Helvetica,sans-serif;text-anchor:middle;" transform="matrix(1 0 0 1 856.422 322)">Thin</text>
  <text style="stroke:none;fill:black;font-family:-apple-system,&quot;SF Pro Display&quot;,&quot;SF Pro Text&quot;,Helvetica,sans-serif;text-anchor:middle;" transform="matrix(1 0 0 1 1153.13 322)">Light</text>
  <text style="stroke:none;fill:black;font-family:-apple-system,&quot;SF Pro Display&quot;,&quot;SF Pro Text&quot;,Helvetica,sans-serif;text-anchor:middle;" transform="matrix(1 0 0 1 1449.84 322)">Regular</text>
  <text style="stroke:none;fill:black;font-family:-apple-system,&quot;SF Pro Display&quot;,&quot;SF Pro Text&quot;,Helvetica,sans-serif;text-anchor:middle;" transform="matrix(1 0 0 1 1746.56 322)">Medium</text>
  <text style="stroke:none;fill:black;font-family:-apple-system,&quot;SF Pro Display&quot;,&quot;SF Pro Text&quot;,Helvetica,sans-serif;text-anchor:middle;" transform="matrix(1 0 0 1 2043.27 322)">Semibold</text>
  <text style="stroke:none;fill:black;font-family:-apple-system,&quot;SF Pro Display&quot;,&quot;SF Pro Text&quot;,Helvetica,sans-serif;text-anchor:middle;" transform="matrix(1 0 0 1 2339.98 322)">Bold</text>
  <text style="stroke:none;fill:black;font-family:-apple-system,&quot;SF Pro Display&quot;,&quot;SF Pro Text&quot;,Helvetica,sans-serif;text-anchor:middle;" transform="matrix(1 0 0 1 2636.69 322)">Heavy</text>
  <text style="stroke:none;fill:black;font-family:-apple-system,&quot;SF Pro Display&quot;,&quot;SF Pro Text&quot;,Helvetica,sans-serif;text-anchor:middle;" transform="matrix(1 0 0 1 2933.4 322)">Black</text>
  <line id="" style="fill:none;stroke:black;opacity:1;stroke-width:0.5;" x1="263" x2="3036" y1="1903" y2="1903"/>
  <g id="" transform="matrix(1 0 0 1 263 1933)">
   <path d="M 9.24805 0.830078 C 13.5547 0.830078 17.1387 -2.74414 17.1387 -7.05078 C 17.1387 -11.3574 13.5449 -14.9316 9.23828 -14.9316 C 4.94141 -14.9316 1.36719 -11.3574 1.36719 -7.05078 C 1.36719 -2.74414 4.95117 0.830078 9.24805 0.830078 Z M 9.24805 -0.654297 C 5.70312 -0.654297 2.87109 -3.49609 2.87109 -7.05078 C 2.87109 -10.6055 5.69336 -13.4473 9.23828 -13.4473 C 12.793 -13.4473 15.6348 -10.6055 15.6445 -7.05078 C 15.6543 -3.49609 12.8027 -0.654297 9.24805 -0.654297 Z M 9.22852 -3.42773 C 9.69727 -3.42773 9.9707 -3.74023 9.9707 -4.25781 L 9.9707 -6.31836 L 12.1973 -6.31836 C 12.6953 -6.31836 13.0371 -6.57227 13.0371 -7.04102 C 13.0371 -7.51953 12.7148 -7.7832 12.1973 -7.7832 L 9.9707 -7.7832 L 9.9707 -10.0098 C 9.9707 -10.5273 9.69727 -10.8496 9.22852 -10.8496 C 8.75977 -10.8496 8.50586 -10.5078 8.50586 -10.0098 L 8.50586 -7.7832 L 6.29883 -7.7832 C 5.78125 -7.7832 5.44922 -7.51953 5.44922 -7.04102 C 5.44922 -6.57227 5.80078 -6.31836 6.29883 -6.31836 L 8.50586 -6.31836 L 8.50586 -4.25781 C 8.50586 -3.75977 8.75977 -3.42773 9.22852 -3.42773 Z"/>
  </g>
  <g id="" transform="matrix(1 0 0 1 281.506 1933)">
   <path d="M 11.709 2.91016 C 17.1484 2.91016 21.6699 -1.60156 21.6699 -7.05078 C 21.6699 -12.4902 17.1387 -17.0117 11.6992 -17.0117 C 6.25 -17.0117 1.74805 -12.4902 1.74805 -7.05078 C 1.74805 -1.60156 6.25977 2.91016 11.709 2.91016 Z M 11.709 1.25 C 7.09961 1.25 3.41797 -2.44141 3.41797 -7.05078 C 3.41797 -11.6504 7.08984 -15.3516 11.6992 -15.3516 C 16.2988 -15.3516 20 -11.6504 20.0098 -7.05078 C 20.0195 -2.44141 16.3086 1.25 11.709 1.25 Z M 11.6797 -2.41211 C 12.207 -2.41211 12.5195 -2.77344 12.5195 -3.33984 L 12.5195 -6.23047 L 15.5762 -6.23047 C 16.123 -6.23047 16.5039 -6.51367 16.5039 -7.03125 C 16.5039 -7.55859 16.1426 -7.86133 15.5762 -7.86133 L 12.5195 -7.86133 L 12.5195 -10.9277 C 12.5195 -11.5039 12.207 -11.8555 11.6797 -11.8555 C 11.1621 -11.8555 10.8789 -11.4844 10.8789 -10.9277 L 10.8789 -7.86133 L 7.83203 -7.86133 C 7.25586 -7.86133 6.89453 -7.55859 6.89453 -7.03125 C 6.89453 -6.51367 7.28516 -6.23047 7.83203 -6.23047 L 10.8789 -6.23047 L 10.8789 -3.33984 C 10.8789 -2.79297 11.1621 -2.41211 11.6797 -2.41211 Z"/>
  </g>
  <g id="" transform="matrix(1 0 0 1 304.914 1933)">
   <path d="M 14.9707 5.67383 C 21.9336 5.67383 27.6855 -0.078125 27.6855 -7.04102 C 27.6855 -14.0039 21.9238 -19.7559 14.9609 -19.7559 C 7.99805 -19.7559 2.25586 -14.0039 2.25586 -7.04102 C 2.25586 -0.078125 8.00781 5.67383 14.9707 5.67383 Z M 14.9707 3.85742 C 8.92578 3.85742 4.08203 -1.00586 4.08203 -7.04102 C 4.08203 -13.0762 8.91602 -17.9395 14.9609 -17.9395 C 20.9961 -17.9395 25.8594 -13.0762 25.8691 -7.04102 C 25.8789 -1.00586 21.0059 3.85742 14.9707 3.85742 Z M 14.9414 -1.06445 C 15.5176 -1.06445 15.8594 -1.45508 15.8594 -2.06055 L 15.8594 -6.13281 L 20.0977 -6.13281 C 20.6934 -6.13281 21.1133 -6.46484 21.1133 -7.02148 C 21.1133 -7.59766 20.7227 -7.93945 20.0977 -7.93945 L 15.8594 -7.93945 L 15.8594 -12.1875 C 15.8594 -12.8027 15.5176 -13.1934 14.9414 -13.1934 C 14.3848 -13.1934 14.0625 -12.7832 14.0625 -12.1875 L 14.0625 -7.93945 L 9.82422 -7.93945 C 9.20898 -7.93945 8.80859 -7.59766 8.80859 -7.02148 C 8.80859 -6.46484 9.23828 -6.13281 9.82422 -6.13281 L 14.0625 -6.13281 L 14.0625 -2.06055 C 14.0625 -1.47461 14.3848 -1.06445 14.9414 -1.06445 Z"/>
  </g>
  <text style="stroke:none;fill:black;font-family:-apple-system,&quot;SF Pro Display&quot;,&quot;SF Pro Text&quot;,Helvetica,sans-serif;font-weight:bold;" transform="matrix(1 0 0 1 263 1953)">Design Variations</text>
  <text style="stroke:none;fill:black;font-family:-apple-system,&quot;SF Pro Display&quot;,&quot;SF Pro Text&quot;,Helvetica,sans-serif;" transform="matrix(1 0 0 1 263 1971)">Symbols are supported in up to nine weights and three scales.</text>
  <text style="stroke:none;fill:black;font-family:-apple-system,&quot;SF Pro Display&quot;,&quot;SF Pro Text&quot;,Helvetica,sans-serif;" transform="matrix(1 0 0 1 263 1989)">For optimal layout with text and other symbols, vertically align</text>
  <text style="stroke:none;fill:black;font-family:-apple-system,&quot;SF Pro Display&quot;,&quot;SF Pro Text&quot;,Helvetica,sans-serif;" transform="matrix(1 0 0 1 263 2007)">symbols with the adjacent text.</text>
  <rect height="14" id="" style="fill:#00AEEF;stroke:none;opacity:0.4;" width="3" x="776" y="1919"/>
  <g id="" transform="matrix(1 0 0 1 779 1933)">
   <path d="M 10.5273 0 L 12.373 0 L 7.17773 -14.0918 L 5.43945 -14.0918 L 0.244141 0 L 2.08984 0 L 3.50586 -4.0332 L 9.11133 -4.0332 Z M 6.2793 -11.9531 L 6.33789 -11.9531 L 8.59375 -5.52734 L 4.02344 -5.52734 Z"/>
  </g>
  <rect height="14" id="" style="fill:#00AEEF;stroke:none;opacity:0.4;" width="3" x="791.617" y="1919"/>
  <text style="stroke:none;fill:black;font-family:-apple-system,&quot;SF Pro Display&quot;,&quot;SF Pro Text&quot;,Helvetica,sans-serif;font-weight:bold;" transform="matrix(1 0 0 1 776 1953)">Side Bearings</text>
  <text style="stroke:none;fill:black;font-family:-apple-system,&quot;SF Pro Display&quot;,&quot;SF Pro Text&quot;,Helvetica,sans-serif;" transform="matrix(1 0 0 1 776 1971)">Horizontal padding on the left and right side of each symbol</text>
  <text style="stroke:none;fill:black;font-family:-apple-system,&quot;SF Pro Display&quot;,&quot;SF Pro Text&quot;,Helvetica,sans-serif;" transform="matrix(1 0 0 1 776 1989)">can be adjusted by modifying the width of the blue rectangles.</text>
  <text style="stroke:none;fill:black;font-family:-apple-system,&quot;SF Pro Display&quot;,&quot;SF Pro Text&quot;,Helvetica,sans-serif;" transform="matrix(1 0 0 1 776 2007)">Modifications are automatically applied proportionally to all</text>
  <text style="stroke:none;fill:black;font-family:-apple-system,&quot;SF Pro Display&quot;,&quot;SF Pro Text&quot;,Helvetica,sans-serif;" transform="matrix(1 0 0 1 776 2025)">scales and weights.</text>
  <g id="" transform="matrix(1 0 0 1 1289 1933)">
   <path d="M 2.96875 2.35352 L 3.80859 3.19336 C 4.84375 4.22852 6.12305 4.15039 7.19727 2.97852 L 16.1621 -6.82617 C 16.5527 -6.74805 16.9629 -6.8457 17.4902 -7.02148 C 18.1738 -7.25586 18.2715 -7.25586 18.3887 -7.13867 C 18.5352 -7.01172 18.4863 -6.89453 18.2422 -6.25 C 17.8809 -5.33203 17.8125 -4.79492 18.5547 -4.02344 L 19.4238 -3.13477 C 20.2734 -2.24609 21.3281 -2.26562 22.2168 -3.14453 L 25.0586 -5.97656 C 25.9473 -6.86523 25.957 -7.92969 25.0781 -8.7793 L 24.1797 -9.64844 C 23.4082 -10.4004 22.8711 -10.3516 21.9629 -9.98047 C 21.3184 -9.72656 21.2012 -9.6875 21.0645 -9.81445 C 20.9375 -9.93164 20.9473 -10.0391 21.1816 -10.7129 C 21.5332 -11.6895 21.5723 -12.2852 20.752 -13.0957 L 19.3359 -14.5117 C 15.1953 -18.6133 11.2305 -18.7402 7.65625 -15.4395 C 7.08008 -14.9023 6.99219 -14.1504 7.53906 -13.6133 L 7.79297 -13.3594 C 8.22266 -12.9297 8.86719 -12.8418 9.41406 -13.1152 C 11.0645 -13.9453 12.2559 -14.0234 13.457 -12.9785 L 13.0273 -11.416 C 12.8516 -10.8008 12.793 -10.3418 12.9199 -9.93164 L 3.18359 -1.04492 C 2.02148 0.0292969 1.93359 1.32812 2.96875 2.35352 Z M 8.96484 -14.4922 C 8.89648 -14.5703 8.86719 -14.6582 8.99414 -14.7559 C 11.709 -17.2852 15.0391 -16.8457 18.3496 -13.5254 L 19.6973 -12.168 C 20.0879 -11.7773 20.0977 -11.582 19.8828 -10.8691 C 19.6582 -10.127 19.502 -9.53125 20.1465 -8.88672 C 20.8105 -8.22266 21.2891 -8.41797 22.207 -8.63281 C 22.9004 -8.79883 23.0664 -8.79883 23.4473 -8.41797 L 24.0918 -7.77344 C 24.4043 -7.48047 24.4141 -7.32422 24.0723 -6.97266 L 21.2207 -4.13086 C 20.8887 -3.79883 20.7227 -3.79883 20.4297 -4.10156 L 19.7852 -4.75586 C 19.4141 -5.13672 19.4141 -5.30273 19.5801 -6.01562 C 19.7852 -6.88477 19.9805 -7.38281 19.3262 -8.04688 C 18.6719 -8.7207 18.0762 -8.57422 17.3438 -8.33008 C 16.5625 -8.06641 16.3281 -8.06641 15.8984 -8.49609 L 14.6094 -9.78516 C 14.1699 -10.2246 14.1309 -10.4395 14.2676 -10.9082 L 15.0293 -13.3984 C 13.3887 -15.2832 11.4941 -15.5566 9.20898 -14.4434 C 9.11133 -14.3945 9.04297 -14.4141 8.96484 -14.4922 Z M 3.96484 1.36719 C 3.52539 0.927734 3.54492 0.537109 4.14062 -0.00976562 L 13.7402 -8.81836 L 15 -7.55859 L 6.17188 2.02148 C 5.625 2.60742 5.24414 2.64648 4.79492 2.19727 Z"/>
  </g>
  <text style="stroke:none;fill:black;font-family:-apple-system,&quot;SF Pro Display&quot;,&quot;SF Pro Text&quot;,Helvetica,sans-serif;font-weight:bold;" transform="matrix(1 0 0 1 1289 1953)">Exporting</text>
  <text style="stroke:none;fill:black;font-family:-apple-system,&quot;SF Pro Display&quot;,&quot;SF Pro Text&quot;,Helvetica,sans-serif;" transform="matrix(1 0 0 1 1289 1971)">Symbols should be outlined when exporting to ensure the</text>
  <text style="stroke:none;fill:black;font-family:-apple-system,&quot;SF Pro Display&quot;,&quot;SF Pro Text&quot;,Helvetica,sans-serif;" transform="matrix(1 0 0 1 1289 1989)">design is preserved when submitting to Xcode.</text>
  <text id="template-version" style="stroke:none;fill:black;font-family:-apple-system,&quot;SF Pro Display&quot;,&quot;SF Pro Text&quot;,Helvetica,sans-serif;text-anchor:end;" transform="matrix(1 0 0 1 3036 1933)">Template v.0.1</text>
  <text style="stroke:none;fill:black;font-family:-apple-system,&quot;SF Pro Display&quot;,&quot;SF Pro Text&quot;,Helvetica,sans-serif;text-anchor:end;" transform="matrix(1 0 0 1 3036 1951)">Generated from rays</text>
  <text style="stroke:none;fill:black;font-family:-apple-system,&quot;SF Pro Display&quot;,&quot;SF Pro Text&quot;,Helvetica,sans-serif;text-anchor:end;" transform="matrix(1 0 0 1 3036 1969)">Typeset at 100 points</text>
  <text style="stroke:none;fill:black;font-family:-apple-system,&quot;SF Pro Display&quot;,&quot;SF Pro Text&quot;,Helvetica,sans-serif;" transform="matrix(1 0 0 1 263 726)">Small</text>
  <text style="stroke:none;fill:black;font-family:-apple-system,&quot;SF Pro Display&quot;,&quot;SF Pro Text&quot;,Helvetica,sans-serif;" transform="matrix(1 0 0 1 263 1156)">Medium</text>
  <text style="stroke:none;fill:black;font-family:-apple-system,&quot;SF Pro Display&quot;,&quot;SF Pro Text&quot;,Helvetica,sans-serif;" transform="matrix(1 0 0 1 263 1586)">Large</text>
 </g>
 <g id="Guides">
  <g id="H-reference" style="fill:#27AAE1;stroke:none;" transform="matrix(1 0 0 1 339 696)">
   <path d="M 54.9316 0 L 57.666 0 L 30.5664 -70.459 L 28.0762 -70.459 L 0.976562 0 L 3.66211 0 L 12.9395 -24.4629 L 45.7031 -24.4629 Z M 29.1992 -67.0898 L 29.4434 -67.0898 L 44.8242 -26.709 L 13.8184 -26.709 Z"/>
  </g>
  <line id="Baseline-S" style="fill:none;stroke:#27AAE1;opacity:1;stroke-width:0.577;" x1="263" x2="3036" y1="696" y2="696"/>
  <line id="Capline-S" style="fill:none;stroke:#27AAE1;opacity:1;stroke-width:0.577;" x1="263" x2="3036" y1="625.541" y2="625.541"/>
  <g id="H-reference" style="fill:#27AAE1;stroke:none;" transform="matrix(1 0 0 1 339 1126)">
   <path d="M 54.9316 0 L 57.666 0 L 30.5664 -70.459 L 28.0762 -70.459 L 0.976562 0 L 3.66211 0 L 12.9395 -24.4629 L 45.7031 -24.4629 Z M 29.1992 -67.0898 L 29.4434 -67.0898 L 44.8242 -26.709 L 13.8184 -26.709 Z"/>
  </g>
  <line id="Baseline-M" style="fill:none;stroke:#27AAE1;opacity:1;stroke-width:0.577;" x1="263" x2="3036" y1="1126" y2="1126"/>
  <line id="Capline-M" style="fill:none;stroke:#27AAE1;opacity:1;stroke-width:0.577;" x1="263" x2="3036" y1="1055.54" y2="1055.54"/>
  <g id="H-reference" style="fill:#27AAE1;stroke:none;" transform="matrix(1 0 0 1 339 1556)">
   <path d="M 54.9316 0 L 57.666 0 L 30.5664 -70.459 L 28.0762 -70.459 L 0.976562 0 L 3.66211 0 L 12.9395 -24.4629 L 45.7031 -24.4629 Z M 29.1992 -67.0898 L 29.4434 -67.0898 L 44.8242 -26.709 L 13.8184 -26.709 Z"/>
  </g>
  <line id="Baseline-L" style="fill:none;stroke:#27AAE1;opacity:1;stroke-width:0.577;" x1="263" x2="3036" y1="1556" y2="1556"/>
  <line id="Capline-L" style="fill:none;stroke:#27AAE1;opacity:1;stroke-width:0.577;" x1="263" x2="3036" y1="1485.54" y2="1485.54"/>
  <rect height="119.336" id="left-margin" style="fill:#00AEEF;stroke:none;opacity:0.4;" width="8.74023" x="1388.13" y="1030.79"/>
  <rect height="119.336" id="right-margin" style="fill:#00AEEF;stroke:none;opacity:0.4;" width="8.74023" x="1502.82" y="1030.79"/>
 </g>
 <g id="Symbols">
  <g id="Ultralight-S" transform="matrix(1 0 0 1 512.299 696)">
   <path d="M 48.6816 -74.7559 C 48.6816 -75.3906 48.0957 -75.9766 47.4121 -75.9766 C 46.7773 -75.9766 46.1914 -75.3906 46.1914 -74.7559 L 46.1914 -62.8418 C 46.1914 -62.1582 46.7773 -61.5723 47.4121 -61.5723 C 48.0957 -61.5723 48.6816 -62.1582 48.6816 -62.8418 Z M 27.1484 -53.9062 C 27.5879 -53.3691 28.418 -53.3691 28.9062 -53.9062 C 29.3945 -54.3457 29.3945 -55.127 28.9062 -55.6152 L 20.5078 -64.0625 C 20.0684 -64.5508 19.2383 -64.5508 18.75 -64.0625 C 18.2617 -63.623 18.2617 -62.793 18.75 -62.3047 Z M 65.8691 -55.6152 C 65.3809 -55.127 65.3809 -54.3457 65.8691 -53.8574 C 66.3574 -53.3691 67.1387 -53.3691 67.627 -53.8574 L 76.0742 -62.3047 C 76.5625 -62.793 76.5625 -63.5742 76.0742 -64.0625 C 75.5859 -64.5508 74.8047 -64.5508 74.3164 -64.0625 Z M 86.7676 -34.1309 C 87.4023 -34.1309 87.9883 -34.7656 87.9883 -35.4004 C 87.9883 -36.0352 87.4023 -36.6699 86.7676 -36.6699 L 74.8535 -36.6699 C 74.1699 -36.6699 73.584 -36.0352 73.584 -35.4004 C 73.584 -34.7656 74.1699 -34.1309 74.8535 -34.1309 Z M 8.10547 -36.6699 C 7.42188 -36.6699 6.83594 -36.0352 6.83594 -35.4004 C 6.83594 -34.7656 7.42188 -34.1309 8.10547 -34.1309 L 20.0195 -34.1309 C 20.6543 -34.1309 21.2402 -34.7656 21.2402 -35.4004 C 21.2402 -36.0352 20.6543 -36.6699 20.0195 -36.6699 Z M 67.627 -16.9434 C 67.1387 -17.4316 66.3574 -17.4316 65.8691 -16.9434 C 65.3809 -16.4551 65.3809 -15.6738 65.8691 -15.1855 L 74.3164 -6.73828 C 74.8047 -6.25 75.5859 -6.25 76.0742 -6.73828 C 76.5625 -7.22656 76.5625 -8.00781 76.0742 -8.49609 Z M 18.7012 -8.49609 C 18.2129 -8.05664 18.2129 -7.22656 18.7012 -6.73828 C 19.1406 -6.25 19.9707 -6.25 20.459 -6.73828 L 28.9062 -15.1367 C 29.3945 -15.5762 29.3945 -16.4062 28.9062 -16.8945 C 28.4668 -17.3828 27.6367 -17.3828 27.1484 -16.8945 Z M 48.6816 -7.95898 C 48.6816 -8.64258 48.0957 -9.22852 47.4121 -9.22852 C 46.7773 -9.22852 46.1914 -8.64258 46.1914 -7.95898 L 46.1914 3.95508 C 46.1914 4.58984 46.7773 5.17578 47.4121 5.17578 C 48.0957 5.17578 48.6816 4.58984 48.6816 3.95508 Z"/>
  </g>
  <g id="Thin-S" transform="matrix(1 0 0 1 808.742 696)">
   <path d="M 49.5117 -74.4141 C 49.5117 -75.3906 48.6816 -76.2695 47.7051 -76.2695 C 46.6797 -76.2695 45.8496 -75.3906 45.8496 -74.4141 L 45.8496 -62.5488 C 45.8496 -61.5723 46.6797 -60.6934 47.7051 -60.6934 C 48.6816 -60.6934 49.5117 -61.5723 49.5117 -62.5488 Z M 27.0996 -53.3691 C 27.7832 -52.6367 28.9551 -52.6367 29.6875 -53.3691 C 30.3711 -54.0039 30.3711 -55.2246 29.6875 -55.9082 L 21.3379 -64.3555 C 20.6543 -65.0391 19.4824 -65.0391 18.75 -64.3555 C 18.0176 -63.6719 18.0176 -62.5 18.75 -61.7676 Z M 65.5273 -55.8105 C 64.7949 -55.0781 64.7949 -53.9551 65.5273 -53.2227 C 66.2109 -52.5391 67.3828 -52.5391 68.1152 -53.2227 L 76.5137 -61.6211 C 77.1973 -62.3535 77.1973 -63.5254 76.5137 -64.209 C 75.7812 -64.9414 74.6582 -64.9414 73.9258 -64.209 Z M 86.6699 -33.5449 C 87.6953 -33.5449 88.5254 -34.4238 88.5254 -35.4004 C 88.5254 -36.377 87.6953 -37.2559 86.6699 -37.2559 L 74.8047 -37.2559 C 73.8281 -37.2559 72.998 -36.377 72.998 -35.4004 C 72.998 -34.4238 73.8281 -33.5449 74.8047 -33.5449 Z M 8.69141 -37.2559 C 7.71484 -37.2559 6.83594 -36.377 6.83594 -35.4004 C 6.83594 -34.4238 7.71484 -33.5449 8.69141 -33.5449 L 20.5566 -33.5449 C 21.5332 -33.5449 22.4121 -34.4238 22.4121 -35.4004 C 22.4121 -36.377 21.5332 -37.2559 20.5566 -37.2559 Z M 68.1152 -17.5781 C 67.3828 -18.2617 66.2109 -18.2617 65.5273 -17.5781 C 64.7949 -16.8457 64.7949 -15.7227 65.5273 -14.9902 L 73.9258 -6.5918 C 74.6582 -5.85938 75.7812 -5.85938 76.5137 -6.5918 C 77.1973 -7.27539 77.1973 -8.44727 76.5137 -9.17969 Z M 18.8477 -9.17969 C 18.1152 -8.49609 18.1152 -7.32422 18.7988 -6.5918 C 19.4824 -5.85938 20.7031 -5.85938 21.3867 -6.5918 L 29.7852 -14.9414 C 30.5176 -15.625 30.5176 -16.7969 29.7852 -17.5293 C 29.1504 -18.2129 27.9297 -18.2129 27.2461 -17.5293 Z M 49.5117 -8.25195 C 49.5117 -9.22852 48.6816 -10.1074 47.7051 -10.1074 C 46.6797 -10.1074 45.8496 -9.22852 45.8496 -8.25195 L 45.8496 3.61328 C 45.8496 4.58984 46.6797 5.46875 47.7051 5.46875 C 48.6816 5.46875 49.5117 4.58984 49.5117 3.61328 Z"/>
  </g>
  <g id="Light-S" transform="matrix(1 0 0 1 1104.94 696)">
   <path d="M 51.123 -73.7793 C 51.123 -75.3906 49.8047 -76.7578 48.1934 -76.7578 C 46.582 -76.7578 45.2148 -75.3906 45.2148 -73.7793 L 45.2148 -61.9629 C 45.2148 -60.4004 46.582 -59.0332 48.1934 -59.0332 C 49.8047 -59.0332 51.123 -60.4004 51.123 -61.9629 Z M 27.0508 -52.3438 C 28.1738 -51.1719 30.0781 -51.1719 31.2012 -52.3438 C 32.3242 -53.4668 32.3242 -55.3711 31.2012 -56.4941 L 22.9004 -64.8438 C 21.7773 -65.9668 19.873 -66.0156 18.75 -64.8438 C 17.627 -63.7695 17.627 -61.8652 18.75 -60.6934 Z M 64.7949 -56.1523 C 63.6719 -55.0293 63.6719 -53.125 64.7949 -52.002 C 65.918 -50.8789 67.8711 -50.8789 68.9941 -52.002 L 77.3438 -60.3516 C 78.4668 -61.5234 78.4668 -63.4277 77.3438 -64.5508 C 76.2207 -65.6738 74.3164 -65.6738 73.1934 -64.5508 Z M 86.5723 -32.4219 C 88.1836 -32.4219 89.5508 -33.7891 89.5508 -35.4004 C 89.5508 -37.0117 88.1836 -38.3789 86.5723 -38.3789 L 74.7559 -38.3789 C 73.1445 -38.3789 71.8262 -37.0117 71.8262 -35.4004 C 71.8262 -33.7891 73.1445 -32.4219 74.7559 -32.4219 Z M 9.81445 -38.3789 C 8.20312 -38.3789 6.83594 -37.0117 6.83594 -35.4004 C 6.83594 -33.7891 8.20312 -32.4219 9.81445 -32.4219 L 21.6309 -32.4219 C 23.2422 -32.4219 24.6094 -33.7891 24.6094 -35.4004 C 24.6094 -37.0117 23.2422 -38.3789 21.6309 -38.3789 Z M 68.9941 -18.7988 C 67.8711 -19.9219 65.918 -19.9219 64.7949 -18.7988 C 63.6719 -17.6758 63.6719 -15.7715 64.7949 -14.6484 L 73.1934 -6.25 C 74.3164 -5.12695 76.2207 -5.12695 77.3438 -6.25 C 78.4668 -7.37305 78.4668 -9.27734 77.3438 -10.4492 Z M 18.9941 -10.4492 C 17.8711 -9.32617 17.8711 -7.42188 18.9941 -6.29883 C 20.1172 -5.12695 22.0215 -5.12695 23.1934 -6.25 L 31.543 -14.5996 C 32.666 -15.7227 32.666 -17.627 31.543 -18.75 C 30.4199 -19.873 28.5156 -19.873 27.3926 -18.75 Z M 51.123 -8.83789 C 51.123 -10.4004 49.8047 -11.7676 48.1934 -11.7676 C 46.582 -11.7676 45.2148 -10.4004 45.2148 -8.83789 L 45.2148 2.97852 C 45.2148 4.58984 46.582 5.95703 48.1934 5.95703 C 49.8047 5.95703 51.123 4.58984 51.123 2.97852 Z"/>
  </g>
  <g id="Regular-S" transform="matrix(1 0 0 1 1401.28 696)">
   <path d="M 52.3926 -73.3398 C 52.3926 -75.3906 50.6348 -77.1484 48.584 -77.1484 C 46.4844 -77.1484 44.7754 -75.3906 44.7754 -73.3398 L 44.7754 -61.5723 C 44.7754 -59.4727 46.4844 -57.7637 48.584 -57.7637 C 50.6348 -57.7637 52.3926 -59.4727 52.3926 -61.5723 Z M 27.002 -51.5625 C 28.4668 -50.0977 30.9082 -50.0977 32.373 -51.5625 C 33.8379 -53.0273 33.8379 -55.4688 32.373 -56.8848 L 24.1211 -65.2344 C 22.6562 -66.6504 20.2148 -66.6992 18.75 -65.2832 C 17.2852 -63.8184 17.2852 -61.377 18.75 -59.9121 Z M 64.2578 -56.4453 C 62.793 -54.9805 62.793 -52.5391 64.2578 -51.0742 C 65.7227 -49.6094 68.2129 -49.6094 69.6777 -51.0742 L 77.9785 -59.375 C 79.4434 -60.8398 79.4434 -63.3301 77.9785 -64.7949 C 76.5137 -66.2598 74.0723 -66.2598 72.6074 -64.7949 Z M 86.4746 -31.5918 C 88.5742 -31.5918 90.2832 -33.3496 90.2832 -35.4004 C 90.2832 -37.4512 88.5742 -39.209 86.4746 -39.209 L 74.707 -39.209 C 72.6562 -39.209 70.8984 -37.4512 70.8984 -35.4004 C 70.8984 -33.3496 72.6562 -31.5918 74.707 -31.5918 Z M 10.6445 -39.209 C 8.59375 -39.209 6.83594 -37.4512 6.83594 -35.4004 C 6.83594 -33.3496 8.59375 -31.5918 10.6445 -31.5918 L 22.4609 -31.5918 C 24.5117 -31.5918 26.2695 -33.3496 26.2695 -35.4004 C 26.2695 -37.4512 24.5117 -39.209 22.4609 -39.209 Z M 69.6777 -19.7266 C 68.2129 -21.1914 65.7227 -21.1914 64.2578 -19.7266 C 62.793 -18.2617 62.793 -15.8203 64.2578 -14.3555 L 72.6074 -6.00586 C 74.0723 -4.58984 76.5137 -4.58984 77.9785 -6.00586 C 79.4434 -7.4707 79.4434 -9.96094 77.9785 -11.4258 Z M 19.1406 -11.4258 C 17.7246 -9.96094 17.7246 -7.51953 19.1406 -6.05469 C 20.5566 -4.58984 23.0469 -4.58984 24.5117 -6.00586 L 32.8125 -14.3066 C 34.2773 -15.7715 34.2773 -18.2129 32.8125 -19.6777 C 31.3965 -21.1426 28.9062 -21.1426 27.4902 -19.6777 Z M 52.3926 -9.22852 C 52.3926 -11.3281 50.6348 -13.0371 48.584 -13.0371 C 46.4844 -13.0371 44.7754 -11.3281 44.7754 -9.22852 L 44.7754 2.53906 C 44.7754 4.58984 46.4844 6.34766 48.584 6.34766 C 50.6348 6.34766 52.3926 4.58984 52.3926 2.53906 Z"/>
  </g>
  <g id="Medium-S" transform="matrix(1 0 0 1 1696.46 696)">
   <path d="M 54.4434 -74.2676 C 54.4434 -76.6113 52.4902 -78.6133 50.0977 -78.6133 C 47.7051 -78.6133 45.7031 -76.6113 45.7031 -74.2676 L 45.7031 -62.5488 C 45.7031 -60.1562 47.7051 -58.1543 50.0977 -58.1543 C 52.4902 -58.1543 54.4434 -60.1562 54.4434 -62.5488 Z M 27.3926 -51.8555 C 29.0527 -50.1953 31.8848 -50.1953 33.5449 -51.8555 C 35.2051 -53.5156 35.2051 -56.3477 33.5938 -58.0078 L 25.4883 -66.1621 C 23.7793 -67.8223 20.9473 -67.8711 19.3359 -66.2109 C 17.627 -64.5508 17.627 -61.7188 19.2871 -60.0586 Z M 66.2109 -57.666 C 64.5508 -56.0059 64.5996 -53.1738 66.2598 -51.4648 C 67.9199 -49.8047 70.8008 -49.8535 72.4609 -51.5137 L 80.6152 -59.668 C 82.2266 -61.3281 82.2266 -64.209 80.5664 -65.8691 C 78.9062 -67.5293 76.0742 -67.5293 74.4141 -65.8203 Z M 88.9648 -31.0059 C 91.3574 -31.0059 93.3594 -33.0078 93.3594 -35.4004 C 93.3594 -37.793 91.3574 -39.7949 88.9648 -39.7949 L 77.2949 -39.7949 C 74.9023 -39.7949 72.9004 -37.793 72.9004 -35.4004 C 72.9004 -33.0078 74.9023 -31.0059 77.2949 -31.0059 Z M 11.2305 -39.7949 C 8.83789 -39.7949 6.83594 -37.793 6.83594 -35.4004 C 6.83594 -33.0078 8.83789 -31.0059 11.2305 -31.0059 L 22.9492 -31.0059 C 25.3418 -31.0059 27.3438 -33.0078 27.3438 -35.4004 C 27.3438 -37.793 25.3418 -39.7949 22.9492 -39.7949 Z M 72.4121 -19.2871 C 70.752 -20.9473 67.9199 -20.9473 66.2109 -19.2871 C 64.5508 -17.627 64.5996 -14.7949 66.2598 -13.1348 L 74.4629 -4.93164 C 76.123 -3.32031 78.9551 -3.32031 80.6152 -4.98047 C 82.2754 -6.64062 82.2754 -9.47266 80.5664 -11.1816 Z M 19.6289 -11.1816 C 17.9199 -9.47266 17.9199 -6.64062 19.5312 -5.0293 C 21.1914 -3.32031 24.0723 -3.32031 25.7324 -4.93164 L 33.8867 -13.0859 C 35.5957 -14.7461 35.5957 -17.5781 33.9355 -19.2383 C 32.2754 -20.8984 29.3945 -20.9473 27.7344 -19.2871 Z M 54.4434 -8.25195 C 54.4434 -10.6445 52.4902 -12.6465 50.0977 -12.6465 C 47.7051 -12.6465 45.7031 -10.6445 45.7031 -8.25195 L 45.7031 3.4668 C 45.7031 5.81055 47.7051 7.8125 50.0977 7.8125 C 52.4902 7.8125 54.4434 5.81055 54.4434 3.4668 Z"/>
  </g>
  <g id="Semibold-S" transform="matrix(1 0 0 1 1992 696)">
   <path d="M 56.0547 -74.9512 C 56.0547 -77.5879 53.8574 -79.7852 51.2695 -79.7852 C 48.6816 -79.7852 46.4355 -77.5879 46.4355 -74.9512 L 46.4355 -63.3301 C 46.4355 -60.6934 48.6816 -58.4961 51.2695 -58.4961 C 53.8574 -58.4961 56.0547 -60.6934 56.0547 -63.3301 Z M 27.6855 -52.0996 C 29.4922 -50.293 32.6172 -50.2441 34.4238 -52.0508 C 36.2793 -53.9062 36.3281 -57.0312 34.4727 -58.8379 L 26.5137 -66.8945 C 24.707 -68.7012 21.5332 -68.7988 19.7266 -66.9922 C 17.8711 -65.1367 17.8711 -62.0117 19.6777 -60.1562 Z M 67.7246 -58.5938 C 65.918 -56.7871 65.9668 -53.6621 67.7734 -51.8066 C 69.6289 -50 72.7539 -50 74.6094 -51.8555 L 82.6172 -59.8633 C 84.4238 -61.6699 84.375 -64.8438 82.5684 -66.6992 C 80.7129 -68.5059 77.5879 -68.457 75.7812 -66.6504 Z M 90.8691 -30.6152 C 93.5059 -30.6152 95.7031 -32.8125 95.7031 -35.4004 C 95.7031 -37.9883 93.5059 -40.1855 90.8691 -40.1855 L 79.248 -40.1855 C 76.6113 -40.1855 74.4141 -37.9883 74.4141 -35.4004 C 74.4141 -32.8125 76.6113 -30.6152 79.248 -30.6152 Z M 11.6211 -40.1855 C 9.0332 -40.1855 6.83594 -37.9883 6.83594 -35.4004 C 6.83594 -32.8125 9.0332 -30.6152 11.6211 -30.6152 L 23.3398 -30.6152 C 25.9277 -30.6152 28.125 -32.8125 28.125 -35.4004 C 28.125 -37.9883 25.9277 -40.1855 23.3398 -40.1855 Z M 74.5605 -18.9941 C 72.7539 -20.8008 69.5801 -20.8008 67.7246 -18.9453 C 65.918 -17.1387 65.9668 -14.0137 67.7734 -12.1582 L 75.8301 -4.10156 C 77.6855 -2.34375 80.8105 -2.34375 82.666 -4.19922 C 84.4727 -6.00586 84.4238 -9.13086 82.5684 -10.9863 Z M 19.9219 -10.9863 C 18.1152 -9.13086 18.0664 -6.00586 19.873 -4.19922 C 21.7285 -2.34375 24.8535 -2.34375 26.6602 -4.10156 L 34.7168 -12.1094 C 36.5723 -13.9648 36.5723 -17.0898 34.7656 -18.8965 C 32.959 -20.752 29.7852 -20.752 27.9785 -18.9453 Z M 56.0547 -7.4707 C 56.0547 -10.1074 53.8574 -12.3047 51.2695 -12.3047 C 48.6816 -12.3047 46.4355 -10.1074 46.4355 -7.4707 L 46.4355 4.15039 C 46.4355 6.78711 48.6816 8.98438 51.2695 8.98438 C 53.8574 8.98438 56.0547 6.78711 56.0547 4.15039 Z"/>
  </g>
  <g id="Bold-S" transform="matrix(1 0 0 1 2287.15 696)">
   <path d="M 58.2031 -75.9277 C 58.2031 -78.8086 55.7129 -81.2988 52.832 -81.2988 C 49.9023 -81.2988 47.4121 -78.8086 47.4121 -75.9277 L 47.4121 -64.3066 C 47.4121 -61.377 49.9023 -58.9355 52.832 -58.9355 C 55.7129 -58.9355 58.2031 -61.377 58.2031 -64.3066 Z M 28.0273 -52.4414 C 30.0781 -50.3906 33.5938 -50.3418 35.5957 -52.3438 C 37.6953 -54.4434 37.7441 -57.959 35.6934 -59.9609 L 27.8809 -67.8223 C 25.8301 -69.873 22.3145 -69.9707 20.3125 -67.9688 C 18.2129 -65.8691 18.2129 -62.3535 20.2148 -60.3516 Z M 69.7266 -59.8145 C 67.7246 -57.8125 67.7246 -54.248 69.8242 -52.1973 C 71.8262 -50.1953 75.3906 -50.1953 77.4414 -52.2949 L 85.2539 -60.1562 C 87.2559 -62.1582 87.2559 -65.7227 85.1562 -67.7734 C 83.1543 -69.8242 79.6387 -69.7266 77.5879 -67.6758 Z M 93.4082 -30.0293 C 96.3379 -30.0293 98.8281 -32.4707 98.8281 -35.4004 C 98.8281 -38.3301 96.3379 -40.7715 93.4082 -40.7715 L 81.8359 -40.7715 C 78.9062 -40.7715 76.4648 -38.3301 76.4648 -35.4004 C 76.4648 -32.4707 78.9062 -30.0293 81.8359 -30.0293 Z M 12.207 -40.7715 C 9.27734 -40.7715 6.83594 -38.3301 6.83594 -35.4004 C 6.83594 -32.4707 9.27734 -30.0293 12.207 -30.0293 L 23.8281 -30.0293 C 26.709 -30.0293 29.248 -32.4707 29.248 -35.4004 C 29.248 -38.3301 26.709 -40.7715 23.8281 -40.7715 Z M 77.3438 -18.5547 C 75.3418 -20.6055 71.8262 -20.5566 69.7266 -18.5059 C 67.7246 -16.4551 67.7246 -12.9395 69.8242 -10.8887 L 77.6855 -3.02734 C 79.7363 -1.02539 83.252 -1.07422 85.3027 -3.125 C 87.3535 -5.17578 87.3047 -8.69141 85.2051 -10.7422 Z M 20.4102 -10.7422 C 18.3105 -8.69141 18.2617 -5.17578 20.2637 -3.17383 C 22.3633 -1.07422 25.8789 -1.02539 27.9297 -3.02734 L 35.791 -10.8887 C 37.8418 -12.9395 37.8906 -16.4551 35.8887 -18.457 C 33.8379 -20.5566 30.2734 -20.5566 28.2715 -18.5547 Z M 58.2031 -6.49414 C 58.2031 -9.42383 55.7129 -11.8652 52.832 -11.8652 C 49.9023 -11.8652 47.4121 -9.42383 47.4121 -6.49414 L 47.4121 5.12695 C 47.4121 8.00781 49.9023 10.498 52.832 10.498 C 55.7129 10.498 58.2031 8.00781 58.2031 5.12695 Z"/>
  </g>
  <g id="Heavy-S" transform="matrix(1 0 0 1 2581.61 696)">
   <path d="M 61.2793 -77.2461 C 61.2793 -80.6152 58.3984 -83.5449 55.0293 -83.5449 C 51.6602 -83.5449 48.8281 -80.6152 48.8281 -77.2461 L 48.8281 -65.7715 C 48.8281 -62.4023 51.6602 -59.5703 55.0293 -59.5703 C 58.3984 -59.5703 61.2793 -62.4023 61.2793 -65.7715 Z M 28.5645 -52.9297 C 30.957 -50.5371 35.0098 -50.4883 37.3535 -52.7832 C 39.7461 -55.1758 39.7949 -59.2773 37.5 -61.5723 L 29.8828 -69.2383 C 27.5391 -71.582 23.4375 -71.6797 21.1426 -69.3848 C 18.75 -66.9434 18.7012 -62.8906 20.9961 -60.5469 Z M 72.6074 -61.5723 C 70.3125 -59.2773 70.3613 -55.1758 72.7539 -52.7832 C 75.0977 -50.4883 79.1504 -50.5371 81.543 -52.9297 L 89.1113 -60.5469 C 91.4062 -62.8906 91.3574 -66.9434 88.9648 -69.3848 C 86.6699 -71.6797 82.5684 -71.582 80.2246 -69.2383 Z M 97.0703 -29.1992 C 100.439 -29.1992 103.32 -32.0312 103.32 -35.4004 C 103.32 -38.7695 100.439 -41.6016 97.0703 -41.6016 L 85.5957 -41.6016 C 82.2266 -41.6016 79.3457 -38.7695 79.3457 -35.4004 C 79.3457 -32.0312 82.2266 -29.1992 85.5957 -29.1992 Z M 13.0371 -41.6016 C 9.66797 -41.6016 6.83594 -38.7695 6.83594 -35.4004 C 6.83594 -32.0312 9.66797 -29.1992 13.0371 -29.1992 L 24.5117 -29.1992 C 27.8809 -29.1992 30.7617 -32.0312 30.7617 -35.4004 C 30.7617 -38.7695 27.8809 -41.6016 24.5117 -41.6016 Z M 81.4453 -17.9688 C 79.1016 -20.2637 75.0488 -20.2148 72.6074 -17.8223 C 70.3125 -15.5273 70.3613 -11.4258 72.7539 -9.08203 L 80.4199 -1.46484 C 82.7148 0.830078 86.8164 0.78125 89.209 -1.61133 C 91.5039 -3.95508 91.4551 -8.00781 89.0625 -10.4004 Z M 21.0449 -10.4004 C 18.6523 -8.00781 18.6035 -3.95508 20.8984 -1.61133 C 23.291 0.78125 27.3926 0.830078 29.6875 -1.46484 L 37.3535 -9.08203 C 39.7461 -11.4258 39.7949 -15.5273 37.5 -17.8223 C 35.0586 -20.2148 31.0059 -20.2637 28.6621 -17.9688 Z M 61.2793 -5.0293 C 61.2793 -8.39844 58.3984 -11.2305 55.0293 -11.2305 C 51.6602 -11.2305 48.8281 -8.39844 48.8281 -5.0293 L 48.8281 6.44531 C 48.8281 9.81445 51.6602 12.7441 55.0293 12.7441 C 58.3984 12.7441 61.2793 9.81445 61.2793 6.44531 Z"/>
  </g>
  <g id="Black-S" transform="matrix(1 0 0 1 2876.32 696)">
   <path d="M 64.0137 -78.4668 C 64.0137 -82.2754 60.8398 -85.498 57.0801 -85.498 C 53.2715 -85.498 50.0977 -82.2754 50.0977 -78.4668 L 50.0977 -67.0898 C 50.0977 -63.3301 53.2715 -60.1562 57.0801 -60.1562 C 60.8398 -60.1562 64.0137 -63.3301 64.0137 -67.0898 Z M 75.1953 -63.1836 C 72.6074 -60.5957 72.7051 -56.0059 75.3906 -53.3203 C 77.9785 -50.7324 82.5684 -50.7812 85.2051 -53.4668 L 92.5293 -60.9375 C 95.1172 -63.4766 95.0684 -68.0664 92.3828 -70.752 C 89.7949 -73.3398 85.2051 -73.2422 82.5684 -70.6055 Z M 29.0527 -53.3691 C 31.6895 -50.6348 36.2793 -50.5859 38.8672 -53.1738 C 41.5527 -55.8594 41.6504 -60.4492 39.0625 -63.0371 L 31.6895 -70.459 C 29.0527 -73.0957 24.4629 -73.1934 21.875 -70.6543 C 19.1895 -67.9199 19.0918 -63.3301 21.6797 -60.7422 Z M 100.342 -28.4668 C 104.102 -28.4668 107.324 -31.6406 107.324 -35.4004 C 107.324 -39.1602 104.102 -42.334 100.342 -42.334 L 88.916 -42.334 C 85.1562 -42.334 81.9824 -39.1602 81.9824 -35.4004 C 81.9824 -31.6406 85.1562 -28.4668 88.916 -28.4668 Z M 13.7695 -42.334 C 10.0098 -42.334 6.83594 -39.1602 6.83594 -35.4004 C 6.83594 -31.6406 10.0098 -28.4668 13.7695 -28.4668 L 25.1465 -28.4668 C 28.9551 -28.4668 32.1777 -31.6406 32.1777 -35.4004 C 32.1777 -39.1602 28.9551 -42.334 25.1465 -42.334 Z M 21.6309 -10.0586 C 18.9453 -7.42188 18.8477 -2.83203 21.4355 -0.244141 C 24.1699 2.44141 28.7109 2.49023 31.2988 -0.0976562 L 38.7207 -7.4707 C 41.4551 -10.1074 41.5039 -14.6973 38.916 -17.2852 C 36.2305 -19.9707 31.6406 -20.0195 29.0527 -17.4316 Z M 85.0586 -17.4316 C 82.4707 -20.0195 77.8809 -19.9707 75.1953 -17.2363 C 72.6074 -14.6973 72.7051 -10.0586 75.3906 -7.42188 L 82.8125 -0.0976562 C 85.4004 2.49023 89.9902 2.44141 92.6758 -0.292969 C 95.2637 -2.83203 95.166 -7.42188 92.4805 -10.0586 Z M 64.0137 -3.71094 C 64.0137 -7.4707 60.8398 -10.6445 57.0801 -10.6445 C 53.2715 -10.6445 50.0977 -7.4707 50.0977 -3.71094 L 50.0977 7.66602 C 50.0977 11.4746 53.2715 14.6973 57.0801 14.6973 C 60.8398 14.6973 64.0137 11.4746 64.0137 7.66602 Z"/>
  </g>
  <g id="Ultralight-M" transform="matrix(1 0 0 1 499.286 1126)">
   <path d="M 61.8164 -85.791 C 61.8164 -86.4746 61.1328 -87.1582 60.4492 -87.1582 C 59.7168 -87.1582 59.0332 -86.4746 59.0332 -85.791 L 59.0332 -70.5566 C 59.0332 -69.8242 59.7168 -69.1895 60.4492 -69.1895 C 61.1328 -69.1895 61.8164 -69.8242 61.8164 -70.5566 Z M 84.2285 -61.1816 C 83.6914 -60.6445 83.6914 -59.8145 84.2285 -59.2285 C 84.7656 -58.6914 85.5957 -58.6914 86.1328 -59.2285 L 96.9238 -70.0195 C 97.4609 -70.5566 97.4609 -71.4355 96.9238 -71.9727 C 96.3867 -72.5098 95.5566 -72.5098 95.0195 -71.9727 Z M 34.668 -59.2285 C 35.1562 -58.6914 36.0352 -58.6914 36.5723 -59.2285 C 37.1094 -59.7168 37.1094 -60.6445 36.5723 -61.1816 L 25.8301 -71.9238 C 25.3906 -72.5098 24.4629 -72.5098 23.9258 -71.9238 C 23.3887 -71.4844 23.3887 -70.5566 23.9258 -70.0195 Z M 110.742 -34.082 C 111.475 -34.082 112.158 -34.7168 112.158 -35.4492 C 112.158 -36.1816 111.475 -36.8164 110.742 -36.8164 L 95.5566 -36.8164 C 94.8242 -36.8164 94.1895 -36.1816 94.1895 -35.4492 C 94.1895 -34.7168 94.8242 -34.082 95.5566 -34.082 Z M 10.1074 -36.8164 C 9.375 -36.8164 8.74023 -36.1816 8.74023 -35.4492 C 8.74023 -34.7168 9.375 -34.082 10.1074 -34.082 L 25.293 -34.082 C 26.0254 -34.082 26.709 -34.7168 26.709 -35.4492 C 26.709 -36.1816 26.0254 -36.8164 25.293 -36.8164 Z M 86.1328 -11.6211 C 85.5957 -12.207 84.7656 -12.207 84.2285 -11.6211 C 83.6914 -11.084 83.6914 -10.2539 84.2285 -9.7168 L 95.0195 1.07422 C 95.5566 1.61133 96.3867 1.61133 96.9238 1.07422 C 97.4609 0.537109 97.4609 -0.341797 96.9238 -0.878906 Z M 23.877 -0.878906 C 23.3398 -0.390625 23.3398 0.537109 23.877 1.07422 C 24.3164 1.61133 25.2441 1.61133 25.7812 1.07422 L 36.5723 -9.66797 C 37.1094 -10.1562 37.1094 -11.0352 36.5723 -11.5723 C 36.084 -12.1094 35.2051 -12.1094 34.668 -11.5723 Z M 61.8164 -0.341797 C 61.8164 -1.07422 61.1328 -1.70898 60.4492 -1.70898 C 59.7168 -1.70898 59.0332 -1.07422 59.0332 -0.341797 L 59.0332 14.8926 C 59.0332 15.5762 59.7168 16.2598 60.4492 16.2598 C 61.1328 16.2598 61.8164 15.5762 61.8164 14.8926 Z"/>
  </g>
  <g id="Thin-M" transform="matrix(1 0 0 1 795.704 1126)">
   <path d="M 62.7441 -85.4004 C 62.7441 -86.4746 61.8164 -87.4512 60.7422 -87.4512 C 59.668 -87.4512 58.6914 -86.4746 58.6914 -85.4004 L 58.6914 -70.2148 C 58.6914 -69.1406 59.668 -68.2129 60.7422 -68.2129 C 61.8164 -68.2129 62.7441 -69.1406 62.7441 -70.2148 Z M 34.6191 -58.6426 C 35.3516 -57.8613 36.6699 -57.8613 37.4512 -58.6426 C 38.2324 -59.375 38.2324 -60.6934 37.4512 -61.4746 L 26.7578 -72.2168 C 26.0254 -73.0469 24.707 -73.0469 23.9258 -72.2656 C 23.1445 -71.5332 23.1445 -70.2148 23.9258 -69.3848 Z M 83.8379 -61.377 C 83.0078 -60.5957 83.0078 -59.3262 83.8379 -58.5449 C 84.6191 -57.7637 85.8887 -57.7637 86.6699 -58.5449 L 97.4121 -69.2871 C 98.1934 -70.0684 98.1934 -71.3379 97.4121 -72.168 C 96.6309 -72.9492 95.3613 -72.9492 94.5801 -72.168 Z M 110.693 -33.3984 C 111.768 -33.3984 112.744 -34.375 112.744 -35.4492 C 112.744 -36.5234 111.768 -37.5 110.693 -37.5 L 95.5078 -37.5 C 94.4336 -37.5 93.457 -36.5234 93.457 -35.4492 C 93.457 -34.375 94.4336 -33.3984 95.5078 -33.3984 Z M 10.7422 -37.5 C 9.66797 -37.5 8.74023 -36.5234 8.74023 -35.4492 C 8.74023 -34.375 9.66797 -33.3984 10.7422 -33.3984 L 25.9277 -33.3984 C 27.002 -33.3984 27.9785 -34.375 27.9785 -35.4492 C 27.9785 -36.5234 27.002 -37.5 25.9277 -37.5 Z M 86.6699 -12.3535 C 85.8887 -13.1348 84.6191 -13.1348 83.8379 -12.3535 C 83.0078 -11.5723 83.0078 -10.3027 83.8379 -9.52148 L 94.5801 1.26953 C 95.3613 2.05078 96.6309 2.05078 97.4121 1.26953 C 98.1934 0.439453 98.1934 -0.830078 97.4121 -1.61133 Z M 23.9746 -1.61133 C 23.1934 -0.878906 23.1934 0.439453 23.9746 1.2207 C 24.707 2.05078 26.0254 2.05078 26.8066 1.26953 L 37.5488 -9.47266 C 38.3301 -10.2051 38.3301 -11.5234 37.5488 -12.3047 C 36.8164 -13.0859 35.498 -13.0859 34.7168 -12.3047 Z M 62.7441 -0.634766 C 62.7441 -1.75781 61.8164 -2.68555 60.7422 -2.68555 C 59.668 -2.68555 58.6914 -1.75781 58.6914 -0.634766 L 58.6914 14.502 C 58.6914 15.5762 59.668 16.5527 60.7422 16.5527 C 61.8164 16.5527 62.7441 15.5762 62.7441 14.502 Z"/>
  </g>
  <g id="Light-M" transform="matrix(1 0 0 1 1091.83 1126)">
   <path d="M 64.5996 -84.7168 C 64.5996 -86.4746 63.0859 -88.0371 61.2793 -88.0371 C 59.5215 -88.0371 58.0078 -86.4746 58.0078 -84.7168 L 58.0078 -69.5801 C 58.0078 -67.8223 59.5215 -66.3086 61.2793 -66.3086 C 63.0859 -66.3086 64.5996 -67.8223 64.5996 -69.5801 Z M 34.5703 -57.4707 C 35.791 -56.2012 37.9395 -56.2012 39.209 -57.4707 C 40.4785 -58.7402 40.4785 -60.8398 39.209 -62.1094 L 28.5645 -72.8027 C 27.3438 -74.0723 25.1953 -74.1211 23.9258 -72.8516 C 22.6562 -71.582 22.6562 -69.4824 23.9258 -68.2129 Z M 83.0078 -61.8164 C 81.7383 -60.5469 81.7383 -58.4473 83.0078 -57.1777 C 84.2773 -55.9082 86.4258 -55.9082 87.6953 -57.1777 L 98.3398 -67.8711 C 99.6094 -69.1406 99.6094 -71.2402 98.3398 -72.5098 C 97.0703 -73.7793 95.0195 -73.7793 93.7012 -72.5098 Z M 110.547 -32.1289 C 112.354 -32.1289 113.867 -33.6914 113.867 -35.4492 C 113.867 -37.207 112.354 -38.7695 110.547 -38.7695 L 95.459 -38.7695 C 93.6523 -38.7695 92.1387 -37.207 92.1387 -35.4492 C 92.1387 -33.6914 93.6523 -32.1289 95.459 -32.1289 Z M 12.0117 -38.7695 C 10.2539 -38.7695 8.74023 -37.207 8.74023 -35.4492 C 8.74023 -33.6914 10.2539 -32.1289 12.0117 -32.1289 L 27.1484 -32.1289 C 28.9551 -32.1289 30.4688 -33.6914 30.4688 -35.4492 C 30.4688 -37.207 28.9551 -38.7695 27.1484 -38.7695 Z M 87.6953 -13.7207 C 86.4258 -14.9902 84.2773 -14.9902 83.0078 -13.7207 C 81.7383 -12.4512 81.7383 -10.3516 83.0078 -9.08203 L 93.7012 1.61133 C 95.0195 2.88086 97.0703 2.88086 98.3398 1.61133 C 99.6094 0.341797 99.6094 -1.75781 98.3398 -3.02734 Z M 24.1699 -3.02734 C 22.9004 -1.80664 22.9004 0.341797 24.1699 1.61133 C 25.3906 2.88086 27.5391 2.88086 28.8086 1.61133 L 39.502 -9.0332 C 40.7715 -10.2539 40.7715 -12.4023 39.502 -13.6719 C 38.3301 -14.9414 36.1328 -14.9414 34.8633 -13.6719 Z M 64.5996 -1.26953 C 64.5996 -3.07617 63.0859 -4.58984 61.2793 -4.58984 C 59.5215 -4.58984 58.0078 -3.07617 58.0078 -1.26953 L 58.0078 13.8184 C 58.0078 15.5762 59.5215 17.1387 61.2793 17.1387 C 63.0859 17.1387 64.5996 15.5762 64.5996 13.8184 Z"/>
  </g>
  <g id="Regular-M" transform="matrix(1 0 0 1 1388.13 1126)">
   <path d="M 65.9668 -84.1797 C 65.9668 -86.4746 64.0137 -88.4277 61.7188 -88.4277 C 59.4238 -88.4277 57.4707 -86.4746 57.4707 -84.1797 L 57.4707 -69.1406 C 57.4707 -66.7969 59.4238 -64.8438 61.7188 -64.8438 C 64.0137 -64.8438 65.9668 -66.7969 65.9668 -69.1406 Z M 34.5215 -56.5918 C 36.1328 -54.9805 38.8672 -54.9805 40.4785 -56.5918 C 42.1387 -58.252 42.1387 -60.9863 40.4785 -62.5977 L 29.9316 -73.2422 C 28.3203 -74.8535 25.5859 -74.9023 23.9258 -73.291 C 22.3145 -71.6797 22.3145 -68.9453 23.9258 -67.2852 Z M 82.373 -62.1094 C 80.7617 -60.498 80.7617 -57.7637 82.373 -56.1035 C 84.0332 -54.4922 86.8164 -54.4922 88.4277 -56.1035 L 99.0723 -66.748 C 100.732 -68.4082 100.732 -71.1426 99.0723 -72.8027 C 97.4609 -74.4141 94.7266 -74.4141 93.0664 -72.8027 Z M 110.449 -31.2012 C 112.744 -31.2012 114.697 -33.1543 114.697 -35.4492 C 114.697 -37.7441 112.744 -39.6973 110.449 -39.6973 L 95.4102 -39.6973 C 93.0664 -39.6973 91.1133 -37.7441 91.1133 -35.4492 C 91.1133 -33.1543 93.0664 -31.2012 95.4102 -31.2012 Z M 12.9883 -39.6973 C 10.6934 -39.6973 8.74023 -37.7441 8.74023 -35.4492 C 8.74023 -33.1543 10.6934 -31.2012 12.9883 -31.2012 L 28.0762 -31.2012 C 30.4199 -31.2012 32.373 -33.1543 32.373 -35.4492 C 32.373 -37.7441 30.4199 -39.6973 28.0762 -39.6973 Z M 88.4277 -14.7949 C 86.8164 -16.4062 84.0332 -16.4062 82.373 -14.7949 C 80.7617 -13.1348 80.7617 -10.4004 82.373 -8.78906 L 93.0664 1.9043 C 94.7266 3.4668 97.4609 3.4668 99.0723 1.9043 C 100.732 0.292969 100.732 -2.49023 99.0723 -4.15039 Z M 24.3652 -4.15039 C 22.7051 -2.53906 22.7051 0.244141 24.3164 1.85547 C 25.9277 3.4668 28.7109 3.4668 30.3711 1.9043 L 40.9668 -8.74023 C 42.627 -10.3516 42.627 -13.0859 40.9668 -14.6973 C 39.4043 -16.3574 36.6211 -16.3574 35.0098 -14.6973 Z M 65.9668 -1.75781 C 65.9668 -4.10156 64.0137 -6.05469 61.7188 -6.05469 C 59.4238 -6.05469 57.4707 -4.10156 57.4707 -1.75781 L 57.4707 13.2812 C 57.4707 15.5762 59.4238 17.5293 61.7188 17.5293 C 64.0137 17.5293 65.9668 15.5762 65.9668 13.2812 Z"/>
  </g>
  <g id="Medium-M" transform="matrix(1 0 0 1 1683.2 1126)">
   <path d="M 68.3105 -85.0586 C 68.3105 -87.7441 66.0156 -90.0391 63.3301 -90.0391 C 60.6445 -90.0391 58.3984 -87.7441 58.3984 -85.0586 L 58.3984 -70.0684 C 58.3984 -67.3828 60.6445 -65.1367 63.3301 -65.1367 C 66.0156 -65.1367 68.3105 -67.3828 68.3105 -70.0684 Z M 34.8633 -56.8359 C 36.7676 -54.9316 39.9902 -54.9316 41.8457 -56.7871 C 43.75 -58.6914 43.75 -61.9141 41.8945 -63.7695 L 31.4941 -74.2676 C 29.5898 -76.1719 26.3672 -76.2207 24.5117 -74.3164 C 22.6074 -72.4121 22.6074 -69.2383 24.4629 -67.334 Z M 84.3262 -63.3789 C 82.4707 -61.5234 82.4707 -58.3008 84.375 -56.3965 C 86.2793 -54.541 89.502 -54.541 91.4062 -56.4453 L 101.855 -66.8945 C 103.711 -68.7988 103.711 -72.0215 101.807 -73.9258 C 99.9512 -75.8301 96.7285 -75.7812 94.8242 -73.877 Z M 112.988 -30.4688 C 115.674 -30.4688 117.969 -32.7637 117.969 -35.4492 C 117.969 -38.1348 115.674 -40.3809 112.988 -40.3809 L 97.998 -40.3809 C 95.3125 -40.3809 93.0664 -38.1348 93.0664 -35.4492 C 93.0664 -32.7637 95.3125 -30.4688 97.998 -30.4688 Z M 13.6719 -40.3809 C 10.9863 -40.3809 8.74023 -38.1348 8.74023 -35.4492 C 8.74023 -32.7637 10.9863 -30.4688 13.6719 -30.4688 L 28.7109 -30.4688 C 31.3965 -30.4688 33.6914 -32.7637 33.6914 -35.4492 C 33.6914 -38.1348 31.3965 -40.3809 28.7109 -40.3809 Z M 91.3574 -14.502 C 89.502 -16.3574 86.2305 -16.3574 84.3262 -14.4531 C 82.4707 -12.5488 82.4707 -9.375 84.375 -7.4707 L 94.873 3.02734 C 96.7773 4.88281 99.9512 4.83398 101.855 2.97852 C 103.76 1.12305 103.76 -2.14844 101.855 -4.00391 Z M 24.8535 -4.00391 C 22.9004 -2.14844 22.9004 1.07422 24.7559 2.92969 C 26.6602 4.83398 29.8828 4.88281 31.7871 3.02734 L 42.2363 -7.42188 C 44.1406 -9.32617 44.1895 -12.5 42.2852 -14.4043 C 40.4297 -16.3086 37.1582 -16.3086 35.3027 -14.4531 Z M 68.3105 -0.830078 C 68.3105 -3.51562 66.0156 -5.76172 63.3301 -5.76172 C 60.6445 -5.76172 58.3984 -3.51562 58.3984 -0.830078 L 58.3984 14.1602 C 58.3984 16.8457 60.6445 19.1406 63.3301 19.1406 C 66.0156 19.1406 68.3105 16.8457 68.3105 14.1602 Z"/>
  </g>
  <g id="Semibold-M" transform="matrix(1 0 0 1 1978.69 1126)">
   <path d="M 70.0684 -85.7422 C 70.0684 -88.7207 67.5293 -91.2598 64.5996 -91.2598 C 61.6211 -91.2598 59.082 -88.7207 59.082 -85.7422 L 59.082 -70.8008 C 59.082 -67.8711 61.6211 -65.332 64.5996 -65.332 C 67.5293 -65.332 70.0684 -67.8711 70.0684 -70.8008 Z M 35.1562 -57.0312 C 37.2559 -54.8828 40.8203 -54.8828 42.8711 -56.9336 C 45.0195 -59.0332 45.0195 -62.6465 42.9688 -64.6973 L 32.666 -75.0488 C 30.6152 -77.1484 27.002 -77.1973 24.9512 -75.1465 C 22.8516 -73.0469 22.8027 -69.4336 24.9023 -67.3828 Z M 85.8398 -64.3555 C 83.7402 -62.3047 83.7891 -58.7402 85.8887 -56.6406 C 87.9883 -54.541 91.5527 -54.541 93.6523 -56.6895 L 103.955 -67.041 C 106.055 -69.0918 106.006 -72.7051 103.906 -74.8047 C 101.855 -76.8555 98.291 -76.8555 96.1914 -74.7559 Z M 114.941 -29.9805 C 117.92 -29.9805 120.459 -32.4707 120.459 -35.4492 C 120.459 -38.4277 117.92 -40.918 114.941 -40.918 L 100 -40.918 C 97.0215 -40.918 94.5312 -38.4277 94.5312 -35.4492 C 94.5312 -32.4707 97.0215 -29.9805 100 -29.9805 Z M 14.209 -40.918 C 11.2305 -40.918 8.74023 -38.4277 8.74023 -35.4492 C 8.74023 -32.4707 11.2305 -29.9805 14.209 -29.9805 L 29.1504 -29.9805 C 32.1289 -29.9805 34.668 -32.4707 34.668 -35.4492 C 34.668 -38.4277 32.1289 -40.918 29.1504 -40.918 Z M 93.6035 -14.2578 C 91.5527 -16.3086 87.9395 -16.3086 85.8398 -14.209 C 83.7402 -12.1094 83.7891 -8.54492 85.8887 -6.44531 L 96.2402 3.90625 C 98.3398 5.9082 101.904 5.9082 104.004 3.80859 C 106.104 1.75781 106.055 -1.85547 103.955 -3.95508 Z M 25.1953 -3.95508 C 23.0957 -1.85547 23.0469 1.70898 25.0977 3.80859 C 27.1973 5.9082 30.8105 5.9082 32.8613 3.90625 L 43.2129 -6.44531 C 45.3125 -8.49609 45.3613 -12.0605 43.2617 -14.1602 C 41.2109 -16.2598 37.5977 -16.3086 35.5469 -14.209 Z M 70.0684 -0.0488281 C 70.0684 -3.02734 67.5293 -5.56641 64.5996 -5.56641 C 61.6211 -5.56641 59.082 -3.02734 59.082 -0.0488281 L 59.082 14.8438 C 59.082 17.8223 61.6211 20.3613 64.5996 20.3613 C 67.5293 20.3613 70.0684 17.8223 70.0684 14.8438 Z"/>
  </g>
  <g id="Bold-M" transform="matrix(1 0 0 1 2273.74 1126)">
   <path d="M 72.4121 -86.6699 C 72.4121 -89.9902 69.5801 -92.8711 66.2109 -92.8711 C 62.8418 -92.8711 60.0098 -89.9902 60.0098 -86.6699 L 60.0098 -71.7773 C 60.0098 -68.457 62.8418 -65.625 66.2109 -65.625 C 69.5801 -65.625 72.4121 -68.457 72.4121 -71.7773 Z M 35.5469 -57.2266 C 37.8906 -54.834 41.9434 -54.834 44.2383 -57.1289 C 46.6309 -59.5215 46.6797 -63.5742 44.3359 -65.918 L 34.2285 -76.0742 C 31.8848 -78.418 27.832 -78.5156 25.5371 -76.1719 C 23.1445 -73.7793 23.0957 -69.7754 25.4395 -67.4316 Z M 87.793 -65.6738 C 85.4492 -63.3301 85.498 -59.2773 87.8906 -56.8848 C 90.2344 -54.5898 94.2871 -54.5898 96.6309 -56.9824 L 106.787 -67.1875 C 109.082 -69.4824 109.082 -73.5352 106.689 -75.9277 C 104.346 -78.2715 100.293 -78.2227 97.9492 -75.8301 Z M 117.48 -29.248 C 120.85 -29.248 123.73 -32.0801 123.73 -35.4492 C 123.73 -38.8184 120.85 -41.6504 117.48 -41.6504 L 102.637 -41.6504 C 99.3164 -41.6504 96.4844 -38.8184 96.4844 -35.4492 C 96.4844 -32.0801 99.3164 -29.248 102.637 -29.248 Z M 14.8926 -41.6504 C 11.5723 -41.6504 8.74023 -38.8184 8.74023 -35.4492 C 8.74023 -32.0801 11.5723 -29.248 14.8926 -29.248 L 29.7852 -29.248 C 33.1543 -29.248 35.9863 -32.0801 35.9863 -35.4492 C 35.9863 -38.8184 33.1543 -41.6504 29.7852 -41.6504 Z M 96.582 -13.9648 C 94.2383 -16.2598 90.1855 -16.2598 87.793 -13.8672 C 85.4492 -11.5234 85.498 -7.51953 87.8906 -5.12695 L 98.0957 5.0293 C 100.391 7.32422 104.443 7.27539 106.836 4.93164 C 109.18 2.58789 109.131 -1.46484 106.738 -3.80859 Z M 25.6836 -3.80859 C 23.291 -1.46484 23.2422 2.58789 25.5371 4.88281 C 27.9297 7.27539 31.9824 7.32422 34.3262 5.0293 L 44.4824 -5.12695 C 46.875 -7.4707 46.9238 -11.5234 44.5801 -13.8184 C 42.2363 -16.2109 38.1836 -16.2598 35.8398 -13.916 Z M 72.4121 0.878906 C 72.4121 -2.44141 69.5801 -5.27344 66.2109 -5.27344 C 62.8418 -5.27344 60.0098 -2.44141 60.0098 0.878906 L 60.0098 15.7715 C 60.0098 19.0918 62.8418 21.9727 66.2109 21.9727 C 69.5801 21.9727 72.4121 19.0918 72.4121 15.7715 Z"/>
  </g>
  <g id="Heavy-M" transform="matrix(1 0 0 1 2568.09 1126)">
   <path d="M 75.7812 -87.9395 C 75.7812 -91.8457 72.5098 -95.2148 68.5547 -95.2148 C 64.6484 -95.2148 61.377 -91.8457 61.377 -87.9395 L 61.377 -73.1934 C 61.377 -69.2871 64.6484 -66.0156 68.5547 -66.0156 C 72.5098 -66.0156 75.7812 -69.2871 75.7812 -73.1934 Z M 36.084 -57.5684 C 38.8184 -54.7852 43.5547 -54.7363 46.2402 -57.4219 C 49.0234 -60.2051 49.0723 -64.9414 46.3867 -67.627 L 36.5234 -77.5391 C 33.7891 -80.2734 29.0527 -80.4199 26.3672 -77.7344 C 23.584 -74.9512 23.5352 -70.2148 26.2207 -67.4805 Z M 90.625 -67.5293 C 87.9395 -64.8438 87.9883 -60.1074 90.7715 -57.3242 C 93.5059 -54.6387 98.2422 -54.6875 100.977 -57.4707 L 110.84 -67.3828 C 113.525 -70.0684 113.477 -74.8047 110.693 -77.5879 C 108.008 -80.3223 103.271 -80.2246 100.537 -77.4414 Z M 121.24 -28.2227 C 125.146 -28.2227 128.467 -31.543 128.467 -35.4492 C 128.467 -39.3555 125.146 -42.6758 121.24 -42.6758 L 106.494 -42.6758 C 102.588 -42.6758 99.2676 -39.3555 99.2676 -35.4492 C 99.2676 -31.543 102.588 -28.2227 106.494 -28.2227 Z M 15.918 -42.6758 C 12.0117 -42.6758 8.74023 -39.3555 8.74023 -35.4492 C 8.74023 -31.543 12.0117 -28.2227 15.918 -28.2227 L 30.6641 -28.2227 C 34.5703 -28.2227 37.9395 -31.543 37.9395 -35.4492 C 37.9395 -39.3555 34.5703 -42.6758 30.6641 -42.6758 Z M 100.879 -13.5254 C 98.1934 -16.2109 93.457 -16.1621 90.625 -13.3789 C 87.9395 -10.6934 87.9883 -5.95703 90.7715 -3.22266 L 100.732 6.64062 C 103.418 9.32617 108.154 9.27734 110.938 6.54297 C 113.623 3.80859 113.574 -0.927734 110.791 -3.66211 Z M 26.3672 -3.66211 C 23.584 -0.927734 23.5352 3.80859 26.2207 6.49414 C 29.0039 9.27734 33.7402 9.32617 36.4258 6.64062 L 46.3379 -3.22266 C 49.1211 -5.95703 49.1699 -10.6934 46.4844 -13.3789 C 43.7012 -16.1621 38.9648 -16.2109 36.2793 -13.5254 Z M 75.7812 2.29492 C 75.7812 -1.61133 72.5098 -4.88281 68.5547 -4.88281 C 64.6484 -4.88281 61.377 -1.61133 61.377 2.29492 L 61.377 17.041 C 61.377 20.9473 64.6484 24.3164 68.5547 24.3164 C 72.5098 24.3164 75.7812 20.9473 75.7812 17.041 Z"/>
  </g>
  <g id="Black-M" transform="matrix(1 0 0 1 2862.67 1126)">
   <path d="M 78.8086 -89.1113 C 78.8086 -93.5059 75.0977 -97.2656 70.7031 -97.2656 C 66.3086 -97.2656 62.5977 -93.5059 62.5977 -89.1113 L 62.5977 -74.4629 C 62.5977 -70.0684 66.3086 -66.3574 70.7031 -66.3574 C 75.0977 -66.3574 78.8086 -70.0684 78.8086 -74.4629 Z M 93.2129 -69.1895 C 90.1855 -66.1621 90.2344 -60.8398 93.4082 -57.7148 C 96.3867 -54.6875 101.758 -54.7363 104.834 -57.8613 L 114.453 -67.5781 C 117.48 -70.6055 117.432 -75.9277 114.258 -79.1016 C 111.279 -82.1289 105.908 -81.9824 102.832 -78.9062 Z M 36.5723 -57.8613 C 39.6484 -54.7363 45.0195 -54.6387 47.998 -57.666 C 51.1719 -60.8398 51.2207 -66.1621 48.1934 -69.1895 L 38.5742 -78.9062 C 35.498 -81.9824 30.127 -82.0801 27.1484 -79.1016 C 23.9746 -75.9277 23.9258 -70.6055 26.9531 -67.5781 Z M 124.561 -27.3438 C 128.955 -27.3438 132.715 -31.0547 132.715 -35.4492 C 132.715 -39.8438 128.955 -43.5547 124.561 -43.5547 L 109.912 -43.5547 C 105.518 -43.5547 101.807 -39.8438 101.807 -35.4492 C 101.807 -31.0547 105.518 -27.3438 109.912 -27.3438 Z M 16.8457 -43.5547 C 12.4512 -43.5547 8.74023 -39.8438 8.74023 -35.4492 C 8.74023 -31.0547 12.4512 -27.3438 16.8457 -27.3438 L 31.4941 -27.3438 C 35.8887 -27.3438 39.6484 -31.0547 39.6484 -35.4492 C 39.6484 -39.8438 35.8887 -43.5547 31.4941 -43.5547 Z M 27.002 -3.51562 C 23.8281 -0.439453 23.7793 4.93164 26.8066 7.95898 C 29.9316 11.084 35.3027 11.1328 38.2812 8.1543 L 47.998 -1.51367 C 51.1719 -4.58984 51.2207 -9.91211 48.1934 -12.9395 C 45.0684 -16.1133 39.6973 -16.1621 36.6699 -13.1348 Z M 104.688 -13.1348 C 101.709 -16.1621 96.3379 -16.1133 93.2129 -12.9395 C 90.1855 -9.91211 90.2344 -4.58984 93.4082 -1.51367 L 103.076 8.1543 C 106.104 11.1328 111.475 11.084 114.6 7.95898 C 117.627 4.93164 117.529 -0.439453 114.404 -3.51562 Z M 78.8086 3.56445 C 78.8086 -0.830078 75.0977 -4.54102 70.7031 -4.54102 C 66.3086 -4.54102 62.5977 -0.830078 62.5977 3.56445 L 62.5977 18.2129 C 62.5977 22.6074 66.3086 26.416 70.7031 26.416 C 75.0977 26.416 78.8086 22.6074 78.8086 18.2129 Z"/>
  </g>
  <g id="Ultralight-L" transform="matrix(1 0 0 1 481.855 1556)">
   <path d="M 79.3457 -100.586 C 79.3457 -101.367 78.6133 -102.1 77.832 -102.1 C 77.0996 -102.1 76.3672 -101.367 76.3672 -100.586 L 76.3672 -80.957 C 76.3672 -80.1758 77.0996 -79.4434 77.832 -79.4434 C 78.6133 -79.4434 79.3457 -80.1758 79.3457 -80.957 Z M 108.887 -68.6035 C 108.301 -68.0176 108.301 -67.1387 108.887 -66.5527 C 109.473 -65.918 110.352 -65.918 110.938 -66.5527 L 124.854 -80.4688 C 125.488 -81.0547 125.488 -81.9336 124.854 -82.5195 C 124.268 -83.1055 123.389 -83.1055 122.803 -82.5195 Z M 44.7266 -66.4551 C 45.2148 -65.8691 46.2402 -65.8691 46.8262 -66.4551 C 47.4121 -66.9922 47.4121 -67.9688 46.8262 -68.5547 L 32.959 -82.4707 C 32.4707 -83.0566 31.4941 -83.0566 30.8594 -82.4707 C 30.2734 -81.9824 30.2734 -81.0059 30.8594 -80.4199 Z M 142.92 -34.0332 C 143.701 -34.0332 144.434 -34.7168 144.434 -35.498 C 144.434 -36.2793 143.701 -37.0117 142.92 -37.0117 L 123.291 -37.0117 C 122.51 -37.0117 121.826 -36.2793 121.826 -35.498 C 121.826 -34.7168 122.51 -34.0332 123.291 -34.0332 Z M 12.7441 -37.0117 C 11.9629 -37.0117 11.2793 -36.2793 11.2793 -35.498 C 11.2793 -34.7168 11.9629 -34.0332 12.7441 -34.0332 L 32.373 -34.0332 C 33.1543 -34.0332 33.8867 -34.7168 33.8867 -35.498 C 33.8867 -36.2793 33.1543 -37.0117 32.373 -37.0117 Z M 110.938 -4.49219 C 110.352 -5.07812 109.473 -5.07812 108.887 -4.49219 C 108.301 -3.90625 108.301 -3.02734 108.887 -2.39258 L 122.803 11.5234 C 123.389 12.1094 124.268 12.1094 124.854 11.5234 C 125.488 10.9375 125.488 10.0098 124.854 9.42383 Z M 30.7617 9.42383 C 30.127 9.96094 30.127 10.9375 30.7617 11.5234 C 31.25 12.1094 32.2266 12.1094 32.8125 11.5234 L 46.7285 -2.34375 C 47.3633 -2.83203 47.3633 -3.80859 46.7285 -4.39453 C 46.2402 -4.98047 45.2637 -4.98047 44.6777 -4.39453 Z M 79.3457 9.96094 C 79.3457 9.17969 78.6133 8.44727 77.832 8.44727 C 77.0996 8.44727 76.3672 9.17969 76.3672 9.96094 L 76.3672 29.5898 C 76.3672 30.3711 77.0996 31.1035 77.832 31.1035 C 78.6133 31.1035 79.3457 30.3711 79.3457 29.5898 Z"/>
  </g>
  <g id="Thin-L" transform="matrix(1 0 0 1 778.248 1556)">
   <path d="M 80.4199 -100.195 C 80.4199 -101.367 79.3457 -102.441 78.1738 -102.441 C 77.002 -102.441 75.9277 -101.367 75.9277 -100.195 L 75.9277 -80.6152 C 75.9277 -79.4434 77.002 -78.3691 78.1738 -78.3691 C 79.3457 -78.3691 80.4199 -79.4434 80.4199 -80.6152 Z M 44.6777 -65.8203 C 45.5078 -64.9414 46.9238 -64.9414 47.8027 -65.8203 C 48.6816 -66.6016 48.6816 -68.0664 47.8027 -68.8965 L 33.9844 -82.8125 C 33.2031 -83.6914 31.7383 -83.6914 30.8594 -82.8125 C 30.0293 -82.0312 30.0293 -80.5664 30.8594 -79.6875 Z M 108.398 -68.8477 C 107.52 -67.9688 107.52 -66.6016 108.398 -65.7227 C 109.277 -64.8926 110.645 -64.8926 111.523 -65.7227 L 125.391 -79.6387 C 126.27 -80.5176 126.27 -81.8848 125.391 -82.7637 C 124.561 -83.5938 123.193 -83.5938 122.314 -82.7637 Z M 142.871 -33.3008 C 144.043 -33.3008 145.068 -34.3262 145.068 -35.498 C 145.068 -36.6699 144.043 -37.7441 142.871 -37.7441 L 123.242 -37.7441 C 122.07 -37.7441 121.045 -36.6699 121.045 -35.498 C 121.045 -34.3262 122.07 -33.3008 123.242 -33.3008 Z M 13.4766 -37.7441 C 12.3047 -37.7441 11.2793 -36.6699 11.2793 -35.498 C 11.2793 -34.3262 12.3047 -33.3008 13.4766 -33.3008 L 33.1055 -33.3008 C 34.2773 -33.3008 35.3027 -34.3262 35.3027 -35.498 C 35.3027 -36.6699 34.2773 -37.7441 33.1055 -37.7441 Z M 111.523 -5.27344 C 110.645 -6.15234 109.277 -6.15234 108.398 -5.27344 C 107.52 -4.39453 107.52 -3.02734 108.398 -2.19727 L 122.314 11.7188 C 123.193 12.5977 124.561 12.5977 125.391 11.7188 C 126.27 10.8398 126.27 9.47266 125.391 8.59375 Z M 30.8594 8.59375 C 29.9805 9.42383 29.9805 10.8398 30.8594 11.7188 C 31.6406 12.5977 33.1055 12.5977 33.9844 11.7188 L 47.8516 -2.09961 C 48.7305 -2.88086 48.7305 -4.3457 47.8516 -5.17578 C 47.0703 -6.05469 45.6055 -6.05469 44.7754 -5.17578 Z M 80.4199 9.57031 C 80.4199 8.39844 79.3457 7.37305 78.1738 7.37305 C 77.002 7.37305 75.9277 8.39844 75.9277 9.57031 L 75.9277 29.1992 C 75.9277 30.3711 77.002 31.3965 78.1738 31.3965 C 79.3457 31.3965 80.4199 30.3711 80.4199 29.1992 Z"/>
  </g>
  <g id="Light-L" transform="matrix(1 0 0 1 1074.32 1556)">
   <path d="M 82.4707 -99.4141 C 82.4707 -101.367 80.7617 -103.076 78.8086 -103.076 C 76.8555 -103.076 75.1465 -101.367 75.1465 -99.4141 L 75.1465 -79.8828 C 75.1465 -77.9297 76.8555 -76.2695 78.8086 -76.2695 C 80.7617 -76.2695 82.4707 -77.9297 82.4707 -79.8828 Z M 44.6289 -64.502 C 45.9961 -63.0859 48.3398 -63.0859 49.707 -64.502 C 51.123 -65.8691 51.123 -68.2129 49.707 -69.6289 L 35.9863 -83.4473 C 34.6191 -84.8633 32.2754 -84.8633 30.8594 -83.4961 C 29.4922 -82.1289 29.4922 -79.7852 30.8594 -78.3691 Z M 107.52 -69.3359 C 106.104 -67.9199 106.104 -65.625 107.52 -64.209 C 108.887 -62.793 111.23 -62.793 112.646 -64.209 L 126.465 -78.0273 C 127.881 -79.4434 127.881 -81.7383 126.465 -83.1543 C 125.049 -84.5703 122.754 -84.5703 121.338 -83.1543 Z M 142.725 -31.8848 C 144.678 -31.8848 146.387 -33.5449 146.387 -35.498 C 146.387 -37.4512 144.678 -39.1602 142.725 -39.1602 L 123.193 -39.1602 C 121.24 -39.1602 119.531 -37.4512 119.531 -35.498 C 119.531 -33.5449 121.24 -31.8848 123.193 -31.8848 Z M 14.8926 -39.1602 C 12.9395 -39.1602 11.2793 -37.4512 11.2793 -35.498 C 11.2793 -33.5449 12.9395 -31.8848 14.8926 -31.8848 L 34.4727 -31.8848 C 36.4258 -31.8848 38.0859 -33.5449 38.0859 -35.498 C 38.0859 -37.4512 36.4258 -39.1602 34.4727 -39.1602 Z M 112.646 -6.83594 C 111.23 -8.20312 108.887 -8.20312 107.52 -6.83594 C 106.104 -5.41992 106.104 -3.125 107.52 -1.70898 L 121.338 12.1582 C 122.754 13.5254 125.049 13.5254 126.465 12.1582 C 127.881 10.7422 127.881 8.39844 126.465 6.98242 Z M 31.1035 6.98242 C 29.6875 8.34961 29.6875 10.6934 31.1035 12.1094 C 32.4219 13.5254 34.8145 13.5254 36.2305 12.1582 L 50.0488 -1.61133 C 51.4648 -2.97852 51.4648 -5.32227 50.0488 -6.73828 C 48.7305 -8.1543 46.3379 -8.1543 44.9219 -6.73828 Z M 82.4707 8.88672 C 82.4707 6.93359 80.7617 5.22461 78.8086 5.22461 C 76.8555 5.22461 75.1465 6.93359 75.1465 8.88672 L 75.1465 28.418 C 75.1465 30.3711 76.8555 32.0312 78.8086 32.0312 C 80.7617 32.0312 82.4707 30.3711 82.4707 28.418 Z"/>
  </g>
  <g id="Regular-L" transform="matrix(1 0 0 1 1370.55 1556)">
   <path d="M 83.9844 -98.8281 C 83.9844 -101.367 81.8359 -103.564 79.2969 -103.564 C 76.7578 -103.564 74.5605 -101.367 74.5605 -98.8281 L 74.5605 -79.3457 C 74.5605 -76.8066 76.7578 -74.6582 79.2969 -74.6582 C 81.8359 -74.6582 83.9844 -76.8066 83.9844 -79.3457 Z M 44.5801 -63.5254 C 46.3379 -61.7188 49.3652 -61.7188 51.1719 -63.5254 C 52.9785 -65.332 52.9785 -68.3594 51.1719 -70.166 L 37.5 -83.9355 C 35.7422 -85.7422 32.7148 -85.791 30.8594 -83.9844 C 29.0527 -82.1777 29.0527 -79.1504 30.8594 -77.3438 Z M 106.836 -69.6777 C 105.029 -67.8711 105.029 -64.8438 106.836 -63.0371 C 108.643 -61.2305 111.67 -61.2305 113.477 -63.0371 L 127.246 -76.8066 C 129.053 -78.6133 129.053 -81.6895 127.246 -83.4961 C 125.439 -85.3027 122.461 -85.3027 120.654 -83.4961 Z M 142.627 -30.8105 C 145.166 -30.8105 147.314 -32.959 147.314 -35.498 C 147.314 -38.0371 145.166 -40.2344 142.627 -40.2344 L 123.145 -40.2344 C 120.605 -40.2344 118.408 -38.0371 118.408 -35.498 C 118.408 -32.959 120.605 -30.8105 123.145 -30.8105 Z M 15.9668 -40.2344 C 13.4277 -40.2344 11.2793 -38.0371 11.2793 -35.498 C 11.2793 -32.959 13.4277 -30.8105 15.9668 -30.8105 L 35.498 -30.8105 C 38.0371 -30.8105 40.2344 -32.959 40.2344 -35.498 C 40.2344 -38.0371 38.0371 -40.2344 35.498 -40.2344 Z M 113.477 -8.00781 C 111.67 -9.81445 108.643 -9.81445 106.836 -8.00781 C 105.029 -6.15234 105.029 -3.17383 106.836 -1.36719 L 120.654 12.4512 C 122.461 14.209 125.439 14.209 127.246 12.4512 C 129.053 10.6445 129.053 7.56836 127.246 5.76172 Z M 31.2988 5.76172 C 29.4922 7.56836 29.4922 10.5957 31.25 12.4023 C 33.0078 14.209 36.1328 14.209 37.9395 12.4512 L 51.6602 -1.26953 C 53.5156 -3.07617 53.5156 -6.10352 51.6602 -7.91016 C 49.9512 -9.7168 46.875 -9.7168 45.0684 -7.91016 Z M 83.9844 8.34961 C 83.9844 5.81055 81.8359 3.61328 79.2969 3.61328 C 76.7578 3.61328 74.5605 5.81055 74.5605 8.34961 L 74.5605 27.7832 C 74.5605 30.3711 76.7578 32.5195 79.2969 32.5195 C 81.8359 32.5195 83.9844 30.3711 83.9844 27.7832 Z"/>
  </g>
  <g id="Medium-L" transform="matrix(1 0 0 1 1665.7 1556)">
   <path d="M 86.377 -99.5117 C 86.377 -102.539 83.8379 -105.078 80.8594 -105.078 C 77.8809 -105.078 75.293 -102.539 75.293 -99.5117 L 75.293 -80.127 C 75.293 -77.1484 77.8809 -74.6094 80.8594 -74.6094 C 83.8379 -74.6094 86.377 -77.1484 86.377 -80.127 Z M 44.873 -63.5742 C 46.9727 -61.4258 50.5859 -61.4258 52.6855 -63.5254 C 54.834 -65.625 54.834 -69.2383 52.7344 -71.3379 L 39.209 -84.9609 C 37.1094 -87.0605 33.4961 -87.1094 31.3965 -85.0098 C 29.2969 -82.9102 29.248 -79.2969 31.3965 -77.1973 Z M 108.496 -70.8984 C 106.348 -68.7988 106.348 -65.2344 108.496 -63.0859 C 110.596 -60.9863 114.209 -60.9863 116.357 -63.1348 L 129.932 -76.709 C 132.031 -78.8086 132.031 -82.4219 129.883 -84.5703 C 127.783 -86.6699 124.219 -86.6699 122.119 -84.5215 Z M 144.922 -29.9805 C 147.9 -29.9805 150.488 -32.5195 150.488 -35.498 C 150.488 -38.5254 147.9 -41.0645 144.922 -41.0645 L 125.537 -41.0645 C 122.51 -41.0645 119.971 -38.5254 119.971 -35.498 C 119.971 -32.5195 122.51 -29.9805 125.537 -29.9805 Z M 16.7969 -41.0645 C 13.8184 -41.0645 11.2793 -38.5254 11.2793 -35.498 C 11.2793 -32.5195 13.8184 -29.9805 16.7969 -29.9805 L 36.2305 -29.9805 C 39.2578 -29.9805 41.7969 -32.5195 41.7969 -35.498 C 41.7969 -38.5254 39.2578 -41.0645 36.2305 -41.0645 Z M 116.309 -7.91016 C 114.209 -10.0586 110.596 -10.0098 108.496 -7.91016 C 106.348 -5.76172 106.348 -2.19727 108.496 -0.0976562 L 122.168 13.5254 C 124.268 15.625 127.832 15.5762 129.98 13.5254 C 132.08 11.377 132.08 7.76367 129.932 5.66406 Z M 31.7383 5.66406 C 29.6387 7.76367 29.6387 11.3281 31.6895 13.4766 C 33.7891 15.5762 37.4023 15.625 39.5508 13.5254 L 53.125 -0.0488281 C 55.2734 -2.09961 55.2734 -5.71289 53.1738 -7.8125 C 51.123 -9.96094 47.4609 -9.96094 45.3613 -7.86133 Z M 86.377 9.13086 C 86.377 6.10352 83.8379 3.56445 80.8594 3.56445 C 77.8809 3.56445 75.293 6.10352 75.293 9.13086 L 75.293 28.5156 C 75.293 31.4941 77.8809 34.082 80.8594 34.082 C 83.8379 34.082 86.377 31.4941 86.377 28.5156 Z"/>
  </g>
  <g id="Semibold-L" transform="matrix(1 0 0 1 1961.21 1556)">
   <path d="M 88.2324 -100.098 C 88.2324 -103.418 85.4004 -106.25 82.0312 -106.25 C 78.7109 -106.25 75.8789 -103.418 75.8789 -100.098 L 75.8789 -80.7617 C 75.8789 -77.3926 78.7109 -74.5605 82.0312 -74.5605 C 85.4004 -74.5605 88.2324 -77.3926 88.2324 -80.7617 Z M 45.166 -63.5742 C 47.5098 -61.1816 51.5137 -61.1816 53.8574 -63.5254 C 56.2012 -65.8691 56.25 -69.9219 53.9062 -72.2656 L 40.5273 -85.7422 C 38.1836 -88.0859 34.1309 -88.1836 31.7871 -85.8398 C 29.4434 -83.4473 29.3945 -79.4434 31.7383 -77.0996 Z M 109.766 -71.8262 C 107.422 -69.4824 107.422 -65.5273 109.814 -63.1348 C 112.158 -60.791 116.162 -60.791 118.555 -63.1836 L 131.982 -76.6602 C 134.326 -79.0039 134.326 -83.0078 131.934 -85.4004 C 129.59 -87.7441 125.586 -87.6953 123.242 -85.3516 Z M 146.68 -29.3457 C 150 -29.3457 152.881 -32.1777 152.881 -35.498 C 152.881 -38.8672 150 -41.6992 146.68 -41.6992 L 127.344 -41.6992 C 123.975 -41.6992 121.143 -38.8672 121.143 -35.498 C 121.143 -32.1777 123.975 -29.3457 127.344 -29.3457 Z M 17.4316 -41.6992 C 14.1113 -41.6992 11.2793 -38.8672 11.2793 -35.498 C 11.2793 -32.1777 14.1113 -29.3457 17.4316 -29.3457 L 36.8164 -29.3457 C 40.1367 -29.3457 43.0176 -32.1777 43.0176 -35.498 C 43.0176 -38.8672 40.1367 -41.6992 36.8164 -41.6992 Z M 118.506 -7.86133 C 116.162 -10.2051 112.109 -10.2051 109.766 -7.8125 C 107.422 -5.46875 107.422 -1.51367 109.814 0.878906 L 123.291 14.3555 C 125.635 16.6504 129.639 16.6504 132.031 14.3066 C 134.375 11.9629 134.375 7.95898 131.982 5.56641 Z M 32.1289 5.56641 C 29.7363 7.91016 29.7363 11.9141 32.0312 14.2578 C 34.375 16.6504 38.4277 16.6504 40.7715 14.3555 L 54.248 0.927734 C 56.6406 -1.41602 56.6406 -5.41992 54.2969 -7.76367 C 52.002 -10.1562 47.9492 -10.1562 45.6055 -7.8125 Z M 88.2324 9.7168 C 88.2324 6.39648 85.4004 3.51562 82.0312 3.51562 C 78.7109 3.51562 75.8789 6.39648 75.8789 9.7168 L 75.8789 29.0527 C 75.8789 32.373 78.7109 35.2539 82.0312 35.2539 C 85.4004 35.2539 88.2324 32.373 88.2324 29.0527 Z"/>
  </g>
  <g id="Bold-L" transform="matrix(1 0 0 1 2256.34 1556)">
   <path d="M 90.6738 -100.781 C 90.6738 -104.59 87.4512 -107.812 83.6426 -107.812 C 79.834 -107.812 76.6113 -104.59 76.6113 -100.781 L 76.6113 -81.543 C 76.6113 -77.7344 79.834 -74.5117 83.6426 -74.5117 C 87.4512 -74.5117 90.6738 -77.7344 90.6738 -81.543 Z M 45.459 -63.623 C 48.1445 -60.8887 52.7344 -60.8887 55.3711 -63.5254 C 58.0566 -66.2109 58.1055 -70.8008 55.4688 -73.4375 L 42.2363 -86.7676 C 39.5508 -89.4043 35.0098 -89.502 32.3242 -86.8652 C 29.6387 -84.1797 29.5898 -79.5898 32.2754 -76.9531 Z M 111.426 -73.0957 C 108.789 -70.4102 108.789 -65.8691 111.523 -63.1836 C 114.16 -60.5469 118.75 -60.5469 121.436 -63.2812 L 134.717 -76.5625 C 137.354 -79.1992 137.305 -83.7891 134.619 -86.5234 C 131.982 -89.1602 127.393 -89.1113 124.707 -86.4258 Z M 149.023 -28.5156 C 152.783 -28.5156 156.055 -31.6895 156.055 -35.498 C 156.055 -39.3066 152.783 -42.5293 149.023 -42.5293 L 129.736 -42.5293 C 125.928 -42.5293 122.754 -39.3066 122.754 -35.498 C 122.754 -31.6895 125.928 -28.5156 129.736 -28.5156 Z M 18.2617 -42.5293 C 14.4531 -42.5293 11.2793 -39.3066 11.2793 -35.498 C 11.2793 -31.6895 14.4531 -28.5156 18.2617 -28.5156 L 37.5488 -28.5156 C 41.3574 -28.5156 44.6289 -31.6895 44.6289 -35.498 C 44.6289 -39.3066 41.3574 -42.5293 37.5488 -42.5293 Z M 121.338 -7.8125 C 118.701 -10.4492 114.111 -10.4492 111.426 -7.71484 C 108.789 -5.07812 108.789 -0.537109 111.523 2.14844 L 124.854 15.4785 C 127.49 18.0664 132.031 18.0664 134.766 15.3809 C 137.402 12.7441 137.354 8.1543 134.668 5.46875 Z M 32.5684 5.46875 C 29.8828 8.10547 29.834 12.6953 32.4707 15.332 C 35.1562 18.0664 39.7461 18.0664 42.4316 15.4785 L 55.7129 2.19727 C 58.4473 -0.439453 58.4473 -5.0293 55.8105 -7.66602 C 53.1738 -10.4004 48.5352 -10.4004 45.8984 -7.76367 Z M 90.6738 10.498 C 90.6738 6.68945 87.4512 3.51562 83.6426 3.51562 C 79.834 3.51562 76.6113 6.68945 76.6113 10.498 L 76.6113 29.7852 C 76.6113 33.5449 79.834 36.8164 83.6426 36.8164 C 87.4512 36.8164 90.6738 33.5449 90.6738 29.7852 Z"/>
  </g>
  <g id="Heavy-L" transform="matrix(1 0 0 1 2550.73 1556)">
   <path d="M 94.1406 -101.807 C 94.1406 -106.299 90.3809 -110.107 85.9375 -110.107 C 81.4453 -110.107 77.6855 -106.299 77.6855 -101.807 L 77.6855 -82.666 C 77.6855 -78.2227 81.4453 -74.4629 85.9375 -74.4629 C 90.3809 -74.4629 94.1406 -78.2227 94.1406 -82.666 Z M 45.9473 -63.6719 C 49.0723 -60.498 54.4922 -60.4492 57.5684 -63.5254 C 60.7422 -66.6992 60.791 -72.0703 57.7148 -75.1953 L 44.7266 -88.2324 C 41.6016 -91.3574 36.1816 -91.5039 33.1055 -88.4277 C 29.9316 -85.2539 29.8828 -79.834 32.959 -76.7578 Z M 113.818 -74.9023 C 110.742 -71.7773 110.791 -66.4062 113.965 -63.2324 C 117.041 -60.1562 122.461 -60.2051 125.586 -63.3789 L 138.623 -76.4648 C 141.699 -79.541 141.699 -84.9609 138.477 -88.1348 C 135.4 -91.2109 130.029 -91.1133 126.904 -87.9883 Z M 152.393 -27.2949 C 156.836 -27.2949 160.645 -31.0547 160.645 -35.498 C 160.645 -39.9902 156.836 -43.75 152.393 -43.75 L 133.252 -43.75 C 128.76 -43.75 125 -39.9902 125 -35.498 C 125 -31.0547 128.76 -27.2949 133.252 -27.2949 Z M 19.4824 -43.75 C 15.0391 -43.75 11.2793 -39.9902 11.2793 -35.498 C 11.2793 -31.0547 15.0391 -27.2949 19.4824 -27.2949 L 38.6719 -27.2949 C 43.1152 -27.2949 46.9238 -31.0547 46.9238 -35.498 C 46.9238 -39.9902 43.1152 -43.75 38.6719 -43.75 Z M 125.537 -7.71484 C 122.412 -10.8398 117.041 -10.791 113.818 -7.61719 C 110.742 -4.49219 110.791 0.878906 113.965 4.00391 L 127.051 17.041 C 130.176 20.1172 135.547 20.0684 138.721 16.8945 C 141.797 13.8184 141.748 8.44727 138.574 5.27344 Z M 33.252 5.27344 C 30.0781 8.39844 30.0293 13.8184 33.1055 16.8945 C 36.2793 20.0684 41.6992 20.1172 44.7754 17.041 L 57.8613 4.05273 C 61.0352 0.927734 61.084 -4.49219 58.0078 -7.56836 C 54.834 -10.7422 49.4141 -10.791 46.3379 -7.71484 Z M 94.1406 11.6699 C 94.1406 7.17773 90.3809 3.41797 85.9375 3.41797 C 81.4453 3.41797 77.6855 7.17773 77.6855 11.6699 L 77.6855 30.8105 C 77.6855 35.2539 81.4453 39.0625 85.9375 39.0625 C 90.3809 39.0625 94.1406 35.2539 94.1406 30.8105 Z"/>
  </g>
  <g id="Black-L" transform="matrix(1 0 0 1 2845.39 1556)">
   <path d="M 97.3145 -102.734 C 97.3145 -107.812 93.0176 -112.109 87.9883 -112.109 C 82.9102 -112.109 78.6621 -107.812 78.6621 -102.734 L 78.6621 -83.6914 C 78.6621 -78.6621 82.9102 -74.4141 87.9883 -74.4141 C 93.0176 -74.4141 97.3145 -78.6621 97.3145 -83.6914 Z M 46.3867 -63.7207 C 49.9512 -60.1074 56.0547 -60.0586 59.5215 -63.5254 C 63.1348 -67.1387 63.1836 -73.2422 59.7168 -76.709 L 46.9238 -89.5996 C 43.4082 -93.1152 37.3047 -93.2617 33.7891 -89.7949 C 30.1758 -86.1816 30.127 -80.0781 33.6426 -76.5625 Z M 116.016 -76.5137 C 112.5 -72.998 112.598 -66.8945 116.162 -63.2812 C 119.678 -59.8145 125.781 -59.8633 129.346 -63.4766 L 142.139 -76.3184 C 145.605 -79.834 145.557 -85.9375 141.943 -89.5508 C 138.477 -93.0176 132.373 -92.9199 128.809 -89.3555 Z M 155.371 -26.1719 C 160.449 -26.1719 164.746 -30.4688 164.746 -35.498 C 164.746 -40.5762 160.449 -44.8242 155.371 -44.8242 L 136.377 -44.8242 C 131.299 -44.8242 127.051 -40.5762 127.051 -35.498 C 127.051 -30.4688 131.299 -26.1719 136.377 -26.1719 Z M 20.5566 -44.8242 C 15.5273 -44.8242 11.2793 -40.5762 11.2793 -35.498 C 11.2793 -30.4688 15.5273 -26.1719 20.5566 -26.1719 L 39.6484 -26.1719 C 44.6777 -26.1719 49.0234 -30.4688 49.0234 -35.498 C 49.0234 -40.5762 44.6777 -44.8242 39.6484 -44.8242 Z M 129.248 -7.66602 C 125.732 -11.1328 119.629 -11.084 116.016 -7.4707 C 112.5 -4.00391 112.598 2.09961 116.162 5.66406 L 129.053 18.457 C 132.568 21.9238 138.672 21.875 142.236 18.3105 C 145.752 14.7949 145.703 8.69141 142.09 5.12695 Z M 33.8867 5.12695 C 30.2734 8.69141 30.2246 14.7949 33.6914 18.2617 C 37.3047 21.875 43.4082 21.9238 46.9238 18.457 L 59.7656 5.66406 C 63.3789 2.14844 63.4277 -3.95508 59.9121 -7.4707 C 56.3477 -11.084 50.2441 -11.1328 46.7285 -7.61719 Z M 97.3145 12.6953 C 97.3145 7.61719 93.0176 3.36914 87.9883 3.36914 C 82.9102 3.36914 78.6621 7.61719 78.6621 12.6953 L 78.6621 31.7383 C 78.6621 36.7676 82.9102 41.1133 87.9883 41.1133 C 93.0176 41.1133 97.3145 36.7676 97.3145 31.7383 Z"/>
  </g>
 </g>
</svg>
