<?xml version="1.0" encoding="UTF-8"?>
<!--Generator: Apple Native CoreSVG 123-->
<!DOCTYPE svg
PUBLIC "-//W3C//DTD SVG 1.1//EN"
       "http://www.w3.org/Graphics/SVG/1.1/DTD/svg11.dtd">
<svg version="1.1" xmlns="http://www.w3.org/2000/svg" xmlns:xlink="http://www.w3.org/1999/xlink" width="3300" height="2200">
 <!--glyph: "uni10046F.medium", point size: 100.000000, font version: "Version 15.0d4e20", template writer version: "2"-->
 <g id="Notes">
  <rect height="2200" id="artboard" style="fill:white;opacity:1" width="3300" x="0" y="0"/>
  <line id="" style="fill:none;stroke:black;opacity:1;stroke-width:0.5;" x1="263" x2="3036" y1="292" y2="292"/>
  <text style="stroke:none;fill:black;font-family:-apple-system,&quot;SF Pro Display&quot;,&quot;SF Pro Text&quot;,Helvetica,sans-serif;font-weight:bold;" transform="matrix(1 0 0 1 263 322)">Weight/Scale Variations</text>
  <text style="stroke:none;fill:black;font-family:-apple-system,&quot;SF Pro Display&quot;,&quot;SF Pro Text&quot;,Helvetica,sans-serif;text-anchor:middle;" transform="matrix(1 0 0 1 559.711 322)">Ultralight</text>
  <text style="stroke:none;fill:black;font-family:-apple-system,&quot;SF Pro Display&quot;,&quot;SF Pro Text&quot;,Helvetica,sans-serif;text-anchor:middle;" transform="matrix(1 0 0 1 856.422 322)">Thin</text>
  <text style="stroke:none;fill:black;font-family:-apple-system,&quot;SF Pro Display&quot;,&quot;SF Pro Text&quot;,Helvetica,sans-serif;text-anchor:middle;" transform="matrix(1 0 0 1 1153.13 322)">Light</text>
  <text style="stroke:none;fill:black;font-family:-apple-system,&quot;SF Pro Display&quot;,&quot;SF Pro Text&quot;,Helvetica,sans-serif;text-anchor:middle;" transform="matrix(1 0 0 1 1449.84 322)">Regular</text>
  <text style="stroke:none;fill:black;font-family:-apple-system,&quot;SF Pro Display&quot;,&quot;SF Pro Text&quot;,Helvetica,sans-serif;text-anchor:middle;" transform="matrix(1 0 0 1 1746.56 322)">Medium</text>
  <text style="stroke:none;fill:black;font-family:-apple-system,&quot;SF Pro Display&quot;,&quot;SF Pro Text&quot;,Helvetica,sans-serif;text-anchor:middle;" transform="matrix(1 0 0 1 2043.27 322)">Semibold</text>
  <text style="stroke:none;fill:black;font-family:-apple-system,&quot;SF Pro Display&quot;,&quot;SF Pro Text&quot;,Helvetica,sans-serif;text-anchor:middle;" transform="matrix(1 0 0 1 2339.98 322)">Bold</text>
  <text style="stroke:none;fill:black;font-family:-apple-system,&quot;SF Pro Display&quot;,&quot;SF Pro Text&quot;,Helvetica,sans-serif;text-anchor:middle;" transform="matrix(1 0 0 1 2636.69 322)">Heavy</text>
  <text style="stroke:none;fill:black;font-family:-apple-system,&quot;SF Pro Display&quot;,&quot;SF Pro Text&quot;,Helvetica,sans-serif;text-anchor:middle;" transform="matrix(1 0 0 1 2933.4 322)">Black</text>
  <line id="" style="fill:none;stroke:black;opacity:1;stroke-width:0.5;" x1="263" x2="3036" y1="1903" y2="1903"/>
  <g id="" transform="matrix(1 0 0 1 263 1933)">
   <path d="M 9.24805 0.830078 C 13.5547 0.830078 17.1387 -2.74414 17.1387 -7.05078 C 17.1387 -11.3574 13.5449 -14.9316 9.23828 -14.9316 C 4.94141 -14.9316 1.36719 -11.3574 1.36719 -7.05078 C 1.36719 -2.74414 4.95117 0.830078 9.24805 0.830078 Z M 9.24805 -0.654297 C 5.70312 -0.654297 2.87109 -3.49609 2.87109 -7.05078 C 2.87109 -10.6055 5.69336 -13.4473 9.23828 -13.4473 C 12.793 -13.4473 15.6348 -10.6055 15.6445 -7.05078 C 15.6543 -3.49609 12.8027 -0.654297 9.24805 -0.654297 Z M 9.22852 -3.42773 C 9.69727 -3.42773 9.9707 -3.74023 9.9707 -4.25781 L 9.9707 -6.31836 L 12.1973 -6.31836 C 12.6953 -6.31836 13.0371 -6.57227 13.0371 -7.04102 C 13.0371 -7.51953 12.7148 -7.7832 12.1973 -7.7832 L 9.9707 -7.7832 L 9.9707 -10.0098 C 9.9707 -10.5273 9.69727 -10.8496 9.22852 -10.8496 C 8.75977 -10.8496 8.50586 -10.5078 8.50586 -10.0098 L 8.50586 -7.7832 L 6.29883 -7.7832 C 5.78125 -7.7832 5.44922 -7.51953 5.44922 -7.04102 C 5.44922 -6.57227 5.80078 -6.31836 6.29883 -6.31836 L 8.50586 -6.31836 L 8.50586 -4.25781 C 8.50586 -3.75977 8.75977 -3.42773 9.22852 -3.42773 Z"/>
  </g>
  <g id="" transform="matrix(1 0 0 1 281.506 1933)">
   <path d="M 11.709 2.91016 C 17.1484 2.91016 21.6699 -1.60156 21.6699 -7.05078 C 21.6699 -12.4902 17.1387 -17.0117 11.6992 -17.0117 C 6.25 -17.0117 1.74805 -12.4902 1.74805 -7.05078 C 1.74805 -1.60156 6.25977 2.91016 11.709 2.91016 Z M 11.709 1.25 C 7.09961 1.25 3.41797 -2.44141 3.41797 -7.05078 C 3.41797 -11.6504 7.08984 -15.3516 11.6992 -15.3516 C 16.2988 -15.3516 20 -11.6504 20.0098 -7.05078 C 20.0195 -2.44141 16.3086 1.25 11.709 1.25 Z M 11.6797 -2.41211 C 12.207 -2.41211 12.5195 -2.77344 12.5195 -3.33984 L 12.5195 -6.23047 L 15.5762 -6.23047 C 16.123 -6.23047 16.5039 -6.51367 16.5039 -7.03125 C 16.5039 -7.55859 16.1426 -7.86133 15.5762 -7.86133 L 12.5195 -7.86133 L 12.5195 -10.9277 C 12.5195 -11.5039 12.207 -11.8555 11.6797 -11.8555 C 11.1621 -11.8555 10.8789 -11.4844 10.8789 -10.9277 L 10.8789 -7.86133 L 7.83203 -7.86133 C 7.25586 -7.86133 6.89453 -7.55859 6.89453 -7.03125 C 6.89453 -6.51367 7.28516 -6.23047 7.83203 -6.23047 L 10.8789 -6.23047 L 10.8789 -3.33984 C 10.8789 -2.79297 11.1621 -2.41211 11.6797 -2.41211 Z"/>
  </g>
  <g id="" transform="matrix(1 0 0 1 304.914 1933)">
   <path d="M 14.9707 5.67383 C 21.9336 5.67383 27.6855 -0.078125 27.6855 -7.04102 C 27.6855 -14.0039 21.9238 -19.7559 14.9609 -19.7559 C 7.99805 -19.7559 2.25586 -14.0039 2.25586 -7.04102 C 2.25586 -0.078125 8.00781 5.67383 14.9707 5.67383 Z M 14.9707 3.85742 C 8.92578 3.85742 4.08203 -1.00586 4.08203 -7.04102 C 4.08203 -13.0762 8.91602 -17.9395 14.9609 -17.9395 C 20.9961 -17.9395 25.8594 -13.0762 25.8691 -7.04102 C 25.8789 -1.00586 21.0059 3.85742 14.9707 3.85742 Z M 14.9414 -1.06445 C 15.5176 -1.06445 15.8594 -1.45508 15.8594 -2.06055 L 15.8594 -6.13281 L 20.0977 -6.13281 C 20.6934 -6.13281 21.1133 -6.46484 21.1133 -7.02148 C 21.1133 -7.59766 20.7227 -7.93945 20.0977 -7.93945 L 15.8594 -7.93945 L 15.8594 -12.1875 C 15.8594 -12.8027 15.5176 -13.1934 14.9414 -13.1934 C 14.3848 -13.1934 14.0625 -12.7832 14.0625 -12.1875 L 14.0625 -7.93945 L 9.82422 -7.93945 C 9.20898 -7.93945 8.80859 -7.59766 8.80859 -7.02148 C 8.80859 -6.46484 9.23828 -6.13281 9.82422 -6.13281 L 14.0625 -6.13281 L 14.0625 -2.06055 C 14.0625 -1.47461 14.3848 -1.06445 14.9414 -1.06445 Z"/>
  </g>
  <text style="stroke:none;fill:black;font-family:-apple-system,&quot;SF Pro Display&quot;,&quot;SF Pro Text&quot;,Helvetica,sans-serif;font-weight:bold;" transform="matrix(1 0 0 1 263 1953)">Design Variations</text>
  <text style="stroke:none;fill:black;font-family:-apple-system,&quot;SF Pro Display&quot;,&quot;SF Pro Text&quot;,Helvetica,sans-serif;" transform="matrix(1 0 0 1 263 1971)">Symbols are supported in up to nine weights and three scales.</text>
  <text style="stroke:none;fill:black;font-family:-apple-system,&quot;SF Pro Display&quot;,&quot;SF Pro Text&quot;,Helvetica,sans-serif;" transform="matrix(1 0 0 1 263 1989)">For optimal layout with text and other symbols, vertically align</text>
  <text style="stroke:none;fill:black;font-family:-apple-system,&quot;SF Pro Display&quot;,&quot;SF Pro Text&quot;,Helvetica,sans-serif;" transform="matrix(1 0 0 1 263 2007)">symbols with the adjacent text.</text>
  <rect height="14" id="" style="fill:#00AEEF;stroke:none;opacity:0.4;" width="3" x="776" y="1919"/>
  <g id="" transform="matrix(1 0 0 1 779 1933)">
   <path d="M 10.5273 0 L 12.373 0 L 7.17773 -14.0918 L 5.43945 -14.0918 L 0.244141 0 L 2.08984 0 L 3.50586 -4.0332 L 9.11133 -4.0332 Z M 6.2793 -11.9531 L 6.33789 -11.9531 L 8.59375 -5.52734 L 4.02344 -5.52734 Z"/>
  </g>
  <rect height="14" id="" style="fill:#00AEEF;stroke:none;opacity:0.4;" width="3" x="791.617" y="1919"/>
  <text style="stroke:none;fill:black;font-family:-apple-system,&quot;SF Pro Display&quot;,&quot;SF Pro Text&quot;,Helvetica,sans-serif;font-weight:bold;" transform="matrix(1 0 0 1 776 1953)">Side Bearings</text>
  <text style="stroke:none;fill:black;font-family:-apple-system,&quot;SF Pro Display&quot;,&quot;SF Pro Text&quot;,Helvetica,sans-serif;" transform="matrix(1 0 0 1 776 1971)">Horizontal padding on the left and right side of each symbol</text>
  <text style="stroke:none;fill:black;font-family:-apple-system,&quot;SF Pro Display&quot;,&quot;SF Pro Text&quot;,Helvetica,sans-serif;" transform="matrix(1 0 0 1 776 1989)">can be adjusted by modifying the width of the blue rectangles.</text>
  <text style="stroke:none;fill:black;font-family:-apple-system,&quot;SF Pro Display&quot;,&quot;SF Pro Text&quot;,Helvetica,sans-serif;" transform="matrix(1 0 0 1 776 2007)">Modifications are automatically applied proportionally to all</text>
  <text style="stroke:none;fill:black;font-family:-apple-system,&quot;SF Pro Display&quot;,&quot;SF Pro Text&quot;,Helvetica,sans-serif;" transform="matrix(1 0 0 1 776 2025)">scales and weights.</text>
  <g id="" transform="matrix(1 0 0 1 1289 1933)">
   <path d="M 2.96875 2.35352 L 3.80859 3.19336 C 4.84375 4.22852 6.12305 4.15039 7.19727 2.97852 L 16.1621 -6.82617 C 16.5527 -6.74805 16.9629 -6.8457 17.4902 -7.02148 C 18.1738 -7.25586 18.2715 -7.25586 18.3887 -7.13867 C 18.5352 -7.01172 18.4863 -6.89453 18.2422 -6.25 C 17.8809 -5.33203 17.8125 -4.79492 18.5547 -4.02344 L 19.4238 -3.13477 C 20.2734 -2.24609 21.3281 -2.26562 22.2168 -3.14453 L 25.0586 -5.97656 C 25.9473 -6.86523 25.957 -7.92969 25.0781 -8.7793 L 24.1797 -9.64844 C 23.4082 -10.4004 22.8711 -10.3516 21.9629 -9.98047 C 21.3184 -9.72656 21.2012 -9.6875 21.0645 -9.81445 C 20.9375 -9.93164 20.9473 -10.0391 21.1816 -10.7129 C 21.5332 -11.6895 21.5723 -12.2852 20.752 -13.0957 L 19.3359 -14.5117 C 15.1953 -18.6133 11.2305 -18.7402 7.65625 -15.4395 C 7.08008 -14.9023 6.99219 -14.1504 7.53906 -13.6133 L 7.79297 -13.3594 C 8.22266 -12.9297 8.86719 -12.8418 9.41406 -13.1152 C 11.0645 -13.9453 12.2559 -14.0234 13.457 -12.9785 L 13.0273 -11.416 C 12.8516 -10.8008 12.793 -10.3418 12.9199 -9.93164 L 3.18359 -1.04492 C 2.02148 0.0292969 1.93359 1.32812 2.96875 2.35352 Z M 8.96484 -14.4922 C 8.89648 -14.5703 8.86719 -14.6582 8.99414 -14.7559 C 11.709 -17.2852 15.0391 -16.8457 18.3496 -13.5254 L 19.6973 -12.168 C 20.0879 -11.7773 20.0977 -11.582 19.8828 -10.8691 C 19.6582 -10.127 19.502 -9.53125 20.1465 -8.88672 C 20.8105 -8.22266 21.2891 -8.41797 22.207 -8.63281 C 22.9004 -8.79883 23.0664 -8.79883 23.4473 -8.41797 L 24.0918 -7.77344 C 24.4043 -7.48047 24.4141 -7.32422 24.0723 -6.97266 L 21.2207 -4.13086 C 20.8887 -3.79883 20.7227 -3.79883 20.4297 -4.10156 L 19.7852 -4.75586 C 19.4141 -5.13672 19.4141 -5.30273 19.5801 -6.01562 C 19.7852 -6.88477 19.9805 -7.38281 19.3262 -8.04688 C 18.6719 -8.7207 18.0762 -8.57422 17.3438 -8.33008 C 16.5625 -8.06641 16.3281 -8.06641 15.8984 -8.49609 L 14.6094 -9.78516 C 14.1699 -10.2246 14.1309 -10.4395 14.2676 -10.9082 L 15.0293 -13.3984 C 13.3887 -15.2832 11.4941 -15.5566 9.20898 -14.4434 C 9.11133 -14.3945 9.04297 -14.4141 8.96484 -14.4922 Z M 3.96484 1.36719 C 3.52539 0.927734 3.54492 0.537109 4.14062 -0.00976562 L 13.7402 -8.81836 L 15 -7.55859 L 6.17188 2.02148 C 5.625 2.60742 5.24414 2.64648 4.79492 2.19727 Z"/>
  </g>
  <text style="stroke:none;fill:black;font-family:-apple-system,&quot;SF Pro Display&quot;,&quot;SF Pro Text&quot;,Helvetica,sans-serif;font-weight:bold;" transform="matrix(1 0 0 1 1289 1953)">Exporting</text>
  <text style="stroke:none;fill:black;font-family:-apple-system,&quot;SF Pro Display&quot;,&quot;SF Pro Text&quot;,Helvetica,sans-serif;" transform="matrix(1 0 0 1 1289 1971)">Symbols should be outlined when exporting to ensure the</text>
  <text style="stroke:none;fill:black;font-family:-apple-system,&quot;SF Pro Display&quot;,&quot;SF Pro Text&quot;,Helvetica,sans-serif;" transform="matrix(1 0 0 1 1289 1989)">design is preserved when submitting to Xcode.</text>
  <text id="template-version" style="stroke:none;fill:black;font-family:-apple-system,&quot;SF Pro Display&quot;,&quot;SF Pro Text&quot;,Helvetica,sans-serif;text-anchor:end;" transform="matrix(1 0 0 1 3036 1933)">Template v.0.1</text>
  <text style="stroke:none;fill:black;font-family:-apple-system,&quot;SF Pro Display&quot;,&quot;SF Pro Text&quot;,Helvetica,sans-serif;text-anchor:end;" transform="matrix(1 0 0 1 3036 1951)">Generated from rectangle.on.rectangle.angled</text>
  <text style="stroke:none;fill:black;font-family:-apple-system,&quot;SF Pro Display&quot;,&quot;SF Pro Text&quot;,Helvetica,sans-serif;text-anchor:end;" transform="matrix(1 0 0 1 3036 1969)">Typeset at 100 points</text>
  <text style="stroke:none;fill:black;font-family:-apple-system,&quot;SF Pro Display&quot;,&quot;SF Pro Text&quot;,Helvetica,sans-serif;" transform="matrix(1 0 0 1 263 726)">Small</text>
  <text style="stroke:none;fill:black;font-family:-apple-system,&quot;SF Pro Display&quot;,&quot;SF Pro Text&quot;,Helvetica,sans-serif;" transform="matrix(1 0 0 1 263 1156)">Medium</text>
  <text style="stroke:none;fill:black;font-family:-apple-system,&quot;SF Pro Display&quot;,&quot;SF Pro Text&quot;,Helvetica,sans-serif;" transform="matrix(1 0 0 1 263 1586)">Large</text>
 </g>
 <g id="Guides">
  <g id="H-reference" style="fill:#27AAE1;stroke:none;" transform="matrix(1 0 0 1 339 696)">
   <path d="M 54.9316 0 L 57.666 0 L 30.5664 -70.459 L 28.0762 -70.459 L 0.976562 0 L 3.66211 0 L 12.9395 -24.4629 L 45.7031 -24.4629 Z M 29.1992 -67.0898 L 29.4434 -67.0898 L 44.8242 -26.709 L 13.8184 -26.709 Z"/>
  </g>
  <line id="Baseline-S" style="fill:none;stroke:#27AAE1;opacity:1;stroke-width:0.577;" x1="263" x2="3036" y1="696" y2="696"/>
  <line id="Capline-S" style="fill:none;stroke:#27AAE1;opacity:1;stroke-width:0.577;" x1="263" x2="3036" y1="625.541" y2="625.541"/>
  <g id="H-reference" style="fill:#27AAE1;stroke:none;" transform="matrix(1 0 0 1 339 1126)">
   <path d="M 54.9316 0 L 57.666 0 L 30.5664 -70.459 L 28.0762 -70.459 L 0.976562 0 L 3.66211 0 L 12.9395 -24.4629 L 45.7031 -24.4629 Z M 29.1992 -67.0898 L 29.4434 -67.0898 L 44.8242 -26.709 L 13.8184 -26.709 Z"/>
  </g>
  <line id="Baseline-M" style="fill:none;stroke:#27AAE1;opacity:1;stroke-width:0.577;" x1="263" x2="3036" y1="1126" y2="1126"/>
  <line id="Capline-M" style="fill:none;stroke:#27AAE1;opacity:1;stroke-width:0.577;" x1="263" x2="3036" y1="1055.54" y2="1055.54"/>
  <g id="H-reference" style="fill:#27AAE1;stroke:none;" transform="matrix(1 0 0 1 339 1556)">
   <path d="M 54.9316 0 L 57.666 0 L 30.5664 -70.459 L 28.0762 -70.459 L 0.976562 0 L 3.66211 0 L 12.9395 -24.4629 L 45.7031 -24.4629 Z M 29.1992 -67.0898 L 29.4434 -67.0898 L 44.8242 -26.709 L 13.8184 -26.709 Z"/>
  </g>
  <line id="Baseline-L" style="fill:none;stroke:#27AAE1;opacity:1;stroke-width:0.577;" x1="263" x2="3036" y1="1556" y2="1556"/>
  <line id="Capline-L" style="fill:none;stroke:#27AAE1;opacity:1;stroke-width:0.577;" x1="263" x2="3036" y1="1485.54" y2="1485.54"/>
  <rect height="119.336" id="left-margin" style="fill:#00AEEF;stroke:none;opacity:0.4;" width="12.4797" x="1370.82" y="1030.79"/>
  <rect height="119.336" id="right-margin" style="fill:#00AEEF;stroke:none;opacity:0.4;" width="12.4512" x="1516.42" y="1030.79"/>
 </g>
 <g id="Symbols">
  <g id="Ultralight-S" transform="matrix(1 0 0 1 499.164 696)">
   <path d="M 28.7598 -8.05664 L 30.6641 -8.39844 L 30.6641 -6.5918 C 30.6641 -0.0976562 34.1309 3.36914 40.625 3.36914 L 101.318 3.36914 C 107.861 3.36914 111.328 -0.195312 111.328 -6.5918 L 111.328 -47.998 C 111.328 -54.3945 107.861 -57.959 101.318 -57.959 L 91.748 -57.959 L 89.4531 -70.8984 C 88.3301 -77.2461 84.3262 -80.127 77.8809 -79.0039 L 18.1152 -68.457 C 11.6699 -67.2852 8.88672 -63.2812 10.0098 -56.8848 L 17.1875 -16.1621 C 18.3105 -9.7168 22.3145 -6.93359 28.7598 -8.05664 Z M 19.3359 -16.6504 L 12.207 -57.1289 C 11.2793 -62.3047 13.4766 -65.4297 18.6035 -66.3086 L 78.1738 -76.8066 C 83.0566 -77.6855 86.377 -75.4883 87.3047 -70.4102 L 89.4531 -57.959 L 40.625 -57.959 C 34.1309 -57.959 30.6641 -54.4922 30.6641 -47.998 L 30.6641 -10.6445 L 28.4668 -10.2539 C 23.3887 -9.375 20.2637 -11.5723 19.3359 -16.6504 Z M 40.7227 1.17188 C 35.5469 1.17188 32.8613 -1.51367 32.8613 -6.73828 L 32.8613 -47.8516 C 32.8613 -53.0762 35.5469 -55.7617 40.7227 -55.7617 L 101.221 -55.7617 C 106.201 -55.7617 109.082 -53.0762 109.082 -47.8516 L 109.082 -6.73828 C 109.082 -1.51367 106.201 1.17188 101.221 1.17188 Z"/>
  </g>
  <g id="Thin-S" transform="matrix(1 0 0 1 795.509 696)">
   <path d="M 29.3457 -8.10547 L 31.0547 -8.39844 L 31.0547 -6.49414 C 31.0547 0.439453 34.668 4.00391 41.6016 4.00391 L 101.514 4.00391 C 108.447 4.00391 112.061 0.341797 112.061 -6.49414 L 112.061 -47.6562 C 112.061 -54.4922 108.447 -58.1543 101.514 -58.1543 L 92.1387 -58.1543 L 89.8438 -71.0938 C 88.623 -77.832 84.4727 -80.8594 77.6367 -79.6387 L 18.6035 -69.1895 C 11.7676 -67.9688 8.83789 -63.8184 10.0586 -57.0312 L 17.1387 -16.6016 C 18.3594 -9.81445 22.5098 -6.88477 29.3457 -8.10547 Z M 20.3613 -17.3828 L 13.3301 -57.4219 C 12.4512 -62.207 14.502 -65.1367 19.2871 -65.9668 L 78.0762 -76.3672 C 82.666 -77.1484 85.7422 -75.1465 86.6211 -70.3613 L 88.7695 -58.1543 L 41.6016 -58.1543 C 34.668 -58.1543 31.0547 -54.5898 31.0547 -47.6562 L 31.0547 -11.7676 L 28.9062 -11.377 C 24.1699 -10.5469 21.2402 -12.5977 20.3613 -17.3828 Z M 41.6992 0.683594 C 36.8652 0.683594 34.3262 -1.80664 34.3262 -6.64062 L 34.3262 -47.4609 C 34.3262 -52.3438 36.8652 -54.834 41.6992 -54.834 L 101.416 -54.834 C 106.104 -54.834 108.789 -52.3438 108.789 -47.4609 L 108.789 -6.64062 C 108.789 -1.80664 106.104 0.683594 101.416 0.683594 Z"/>
  </g>
  <g id="Light-S" transform="matrix(1 0 0 1 1091.46 696)">
   <path d="M 30.5176 -8.1543 L 31.7871 -8.34961 L 31.7871 -6.25 C 31.7871 1.36719 35.6934 5.22461 43.4082 5.22461 L 101.953 5.22461 C 109.619 5.22461 113.574 1.36719 113.574 -6.25 L 113.574 -47.0215 C 113.574 -54.6387 109.619 -58.5449 101.953 -58.5449 L 92.8711 -58.5449 L 90.5762 -71.5332 C 89.2578 -79.0039 84.7168 -82.1777 77.1484 -80.8594 L 19.5312 -70.6543 C 11.9141 -69.3359 8.74023 -64.8438 10.0586 -57.3242 L 17.0898 -17.4805 C 18.457 -9.96094 22.9492 -6.78711 30.5176 -8.1543 Z M 22.3633 -18.7012 L 15.4785 -57.959 C 14.7461 -62.1094 16.5527 -64.6484 20.5566 -65.332 L 77.9785 -75.4883 C 81.9336 -76.1719 84.5703 -74.4141 85.3027 -70.2637 L 87.3535 -58.5449 L 43.4082 -58.5449 C 35.6934 -58.5449 31.7871 -54.6875 31.7871 -47.0215 L 31.7871 -13.916 L 29.6875 -13.5254 C 25.6836 -12.793 23.0957 -14.5996 22.3633 -18.7012 Z M 43.5059 -0.195312 C 39.4531 -0.195312 37.207 -2.34375 37.207 -6.54297 L 37.207 -46.7285 C 37.207 -50.9277 39.4531 -53.125 43.5059 -53.125 L 101.855 -53.125 C 105.859 -53.125 108.154 -50.9277 108.154 -46.7285 L 108.154 -6.54297 C 108.154 -2.34375 105.859 -0.195312 101.855 -0.195312 Z"/>
  </g>
  <g id="Regular-S" transform="matrix(1 0 0 1 1387.61 696)">
   <path d="M 31.4453 -8.20312 L 32.373 -8.34961 L 32.373 -6.10352 C 32.373 2.09961 36.4746 6.20117 44.8242 6.20117 L 102.246 6.20117 C 110.547 6.20117 114.697 2.09961 114.697 -6.10352 L 114.697 -46.582 C 114.697 -54.7852 110.547 -58.8379 102.246 -58.8379 L 93.4082 -58.8379 L 91.1621 -71.8262 C 89.7461 -79.9316 84.9121 -83.2031 76.7578 -81.7871 L 20.2148 -71.7773 C 12.0117 -70.3125 8.64258 -65.625 10.1074 -57.5195 L 17.041 -18.1641 C 18.5059 -10.0586 23.2422 -6.73828 31.4453 -8.20312 Z M 23.9258 -19.7266 L 17.0898 -58.3984 C 16.4551 -62.0117 18.0664 -64.2578 21.5332 -64.8926 L 77.8809 -74.8047 C 81.3477 -75.4395 83.6426 -73.877 84.3262 -70.2148 L 86.3281 -58.8379 L 44.8242 -58.8379 C 36.4746 -58.8379 32.373 -54.7852 32.373 -46.582 L 32.373 -15.5273 L 30.3223 -15.1367 C 26.8555 -14.5508 24.5605 -16.1133 23.9258 -19.7266 Z M 44.9219 -0.878906 C 41.4062 -0.878906 39.4043 -2.7832 39.4043 -6.44531 L 39.4043 -46.1914 C 39.4043 -49.9023 41.4062 -51.8066 44.9219 -51.8066 L 102.148 -51.8066 C 105.664 -51.8066 107.666 -49.9023 107.666 -46.1914 L 107.666 -6.44531 C 107.666 -2.7832 105.664 -0.878906 102.148 -0.878906 Z"/>
  </g>
  <g id="Medium-S" transform="matrix(1 0 0 1 1683.35 696)">
   <path d="M 32.2266 -7.42188 L 33.3008 -7.61719 L 33.3008 -5.61523 C 33.3008 2.88086 37.793 7.32422 46.3867 7.32422 L 103.564 7.32422 C 112.158 7.32422 116.65 2.88086 116.65 -5.61523 L 116.65 -46.2891 C 116.65 -54.834 112.158 -59.2285 103.564 -59.2285 L 94.3848 -59.2285 L 92.1387 -72.1191 C 90.6738 -80.5176 85.4492 -84.1309 77.002 -82.6172 L 20.752 -72.6562 C 12.2559 -71.1914 8.59375 -66.0645 10.1074 -57.666 L 17.0898 -17.9199 C 18.6035 -9.52148 23.7793 -5.95703 32.2266 -7.42188 Z M 25.4883 -20.2637 L 18.75 -58.3496 C 18.1641 -61.7188 19.6289 -63.7207 22.8516 -64.2578 L 77.9297 -73.9746 C 81.1035 -74.5117 83.1543 -73.1934 83.7891 -69.8242 L 85.6445 -59.2285 L 46.3867 -59.2285 C 37.793 -59.2285 33.3008 -54.834 33.3008 -46.2891 L 33.3008 -16.4551 L 31.2988 -16.0645 C 28.125 -15.5273 26.0742 -16.8945 25.4883 -20.2637 Z M 47.0215 -1.31836 C 43.75 -1.31836 41.9922 -2.97852 41.9922 -6.39648 L 41.9922 -45.5078 C 41.9922 -48.9258 43.75 -50.5859 47.0215 -50.5859 L 102.979 -50.5859 C 106.201 -50.5859 108.008 -48.9258 108.008 -45.5078 L 108.008 -6.39648 C 108.008 -2.97852 106.201 -1.31836 102.979 -1.31836 Z"/>
  </g>
  <g id="Semibold-S" transform="matrix(1 0 0 1 1979.3 696)">
   <path d="M 32.8613 -6.88477 L 34.0332 -7.08008 L 34.0332 -5.22461 C 34.0332 3.51562 38.7695 8.20312 47.6074 8.20312 L 104.59 8.20312 C 113.379 8.20312 118.164 3.51562 118.164 -5.22461 L 118.164 -46.0938 C 118.164 -54.834 113.379 -59.5703 104.59 -59.5703 L 95.166 -59.5703 L 92.9199 -72.3633 C 91.4062 -81.0059 85.8887 -84.8145 77.1973 -83.252 L 21.1426 -73.3887 C 12.4023 -71.8262 8.59375 -66.3574 10.1074 -57.7637 L 17.1387 -17.7734 C 18.7012 -9.13086 24.1699 -5.32227 32.8613 -6.88477 Z M 26.709 -20.6543 L 20.0684 -58.3496 C 19.4824 -61.5234 20.8496 -63.2812 23.8281 -63.7695 L 77.9785 -73.3398 C 80.957 -73.877 82.8125 -72.6562 83.3496 -69.5312 L 85.1074 -59.5703 L 47.6074 -59.5703 C 38.7695 -59.5703 34.0332 -54.834 34.0332 -46.0938 L 34.0332 -17.1387 L 32.0801 -16.7969 C 29.1016 -16.2598 27.2949 -17.4805 26.709 -20.6543 Z M 48.584 -1.70898 C 45.6055 -1.70898 43.9453 -3.17383 43.9453 -6.39648 L 43.9453 -44.9707 C 43.9453 -48.1445 45.6055 -49.6582 48.584 -49.6582 L 103.613 -49.6582 C 106.592 -49.6582 108.252 -48.1445 108.252 -44.9707 L 108.252 -6.39648 C 108.252 -3.17383 106.592 -1.70898 103.613 -1.70898 Z"/>
  </g>
  <g id="Bold-S" transform="matrix(1 0 0 1 2275.04 696)">
   <path d="M 33.6426 -6.10352 L 35.0098 -6.34766 L 35.0098 -4.73633 C 35.0098 4.29688 40.0879 9.375 49.2188 9.375 L 105.908 9.375 C 114.99 9.375 120.117 4.29688 120.117 -4.73633 L 120.117 -45.8496 C 120.117 -54.8828 114.99 -59.9609 105.908 -59.9609 L 96.1914 -59.9609 L 93.9453 -72.6562 C 92.3828 -81.5918 86.4258 -85.6934 77.4414 -84.1309 L 21.6309 -74.2676 C 12.6465 -72.7051 8.54492 -66.7969 10.1074 -57.8613 L 17.1875 -17.5781 C 18.7988 -8.64258 24.707 -4.54102 33.6426 -6.10352 Z M 28.3203 -21.1426 L 21.7285 -58.3008 C 21.1914 -61.2305 22.4121 -62.6953 25.0977 -63.1348 L 78.0273 -72.5098 C 80.7129 -72.9492 82.2754 -71.9727 82.8125 -69.0918 L 84.4238 -59.9609 L 49.2188 -59.9609 C 40.0879 -59.9609 35.0098 -54.8828 35.0098 -45.8496 L 35.0098 -18.1152 L 33.0566 -17.7734 C 30.4199 -17.2852 28.8086 -18.2617 28.3203 -21.1426 Z M 50.6836 -2.14844 C 47.9492 -2.14844 46.582 -3.41797 46.582 -6.34766 L 46.582 -44.2871 C 46.582 -47.168 47.9492 -48.4375 50.6836 -48.4375 L 104.443 -48.4375 C 107.178 -48.4375 108.594 -47.168 108.594 -44.2871 L 108.594 -6.34766 C 108.594 -3.41797 107.178 -2.14844 104.443 -2.14844 Z"/>
  </g>
  <g id="Heavy-S" transform="matrix(1 0 0 1 2570.31 696)">
   <path d="M 34.8633 -5.0293 L 36.4258 -5.27344 L 36.4258 -4.05273 C 36.4258 5.46875 42.041 11.084 51.5625 11.084 L 107.861 11.084 C 117.383 11.084 122.998 5.46875 122.998 -4.05273 L 122.998 -45.459 C 122.998 -54.9805 117.383 -60.5957 107.861 -60.5957 L 97.6074 -60.5957 L 95.3613 -73.0957 C 93.75 -82.4707 87.207 -87.0117 77.832 -85.3516 L 22.3633 -75.5859 C 12.9883 -73.9258 8.44727 -67.4316 10.1074 -58.0566 L 17.2852 -17.2852 C 18.9453 -7.91016 25.4883 -3.36914 34.8633 -5.0293 Z M 30.6152 -21.875 L 24.1699 -58.3008 C 23.7305 -60.791 24.707 -61.8652 27.002 -62.2559 L 78.125 -71.2402 C 80.3711 -71.6309 81.5918 -70.9473 82.0312 -68.5059 L 83.4473 -60.5957 L 51.5625 -60.5957 C 42.041 -60.5957 36.4258 -54.9805 36.4258 -45.459 L 36.4258 -19.4336 L 34.5215 -19.1406 C 32.2754 -18.75 31.1035 -19.4336 30.6152 -21.875 Z M 53.7598 -2.83203 C 51.416 -2.83203 50.3418 -3.75977 50.3418 -6.25 L 50.3418 -43.2617 C 50.3418 -45.752 51.416 -46.6797 53.7598 -46.6797 L 105.664 -46.6797 C 107.959 -46.6797 109.082 -45.752 109.082 -43.2617 L 109.082 -6.25 C 109.082 -3.75977 107.959 -2.83203 105.664 -2.83203 Z"/>
  </g>
  <g id="Black-S" transform="matrix(1 0 0 1 2865.72 696)">
   <path d="M 35.8887 -4.00391 L 37.6465 -4.3457 L 37.6465 -3.41797 C 37.6465 6.49414 43.75 12.5977 53.6133 12.5977 L 109.619 12.5977 C 119.482 12.5977 125.586 6.49414 125.586 -3.41797 L 125.586 -45.1172 C 125.586 -55.0293 119.482 -61.1328 109.619 -61.1328 L 98.9258 -61.1328 L 96.6797 -73.4863 C 94.9707 -83.252 87.8906 -88.1836 78.125 -86.4746 L 23.0469 -76.7578 C 13.3301 -75.0488 8.39844 -67.9688 10.1074 -58.2031 L 17.334 -16.9922 C 19.0918 -7.27539 26.1719 -2.29492 35.8887 -4.00391 Z M 32.7148 -22.5586 L 26.3672 -58.252 C 25.9766 -60.4004 26.709 -61.084 28.6621 -61.4258 L 78.1738 -70.166 C 80.0781 -70.5078 80.957 -70.0195 81.3477 -67.9688 L 82.5684 -61.1328 L 53.6133 -61.1328 C 43.75 -61.1328 37.6465 -55.0293 37.6465 -45.1172 L 37.6465 -20.6543 L 35.8398 -20.3613 C 33.9844 -20.0195 33.1055 -20.459 32.7148 -22.5586 Z M 56.4453 -3.4668 C 54.541 -3.4668 53.7109 -4.10156 53.7109 -6.20117 L 53.7109 -42.334 C 53.7109 -44.4824 54.541 -45.0684 56.4453 -45.0684 L 106.738 -45.0684 C 108.691 -45.0684 109.521 -44.4824 109.521 -42.334 L 109.521 -6.20117 C 109.521 -4.10156 108.691 -3.4668 106.738 -3.4668 Z"/>
  </g>
  <g id="Ultralight-M" transform="matrix(1 0 0 1 482.587 1126)">
   <path d="M 36.4746 -0.537109 L 38.9648 -0.976562 L 38.9648 1.26953 C 38.9648 9.42383 43.3105 13.7695 51.5137 13.7695 L 129.248 13.7695 C 137.451 13.7695 141.797 9.32617 141.797 1.26953 L 141.797 -51.6113 C 141.797 -59.668 137.451 -64.1602 129.248 -64.1602 L 116.943 -64.1602 L 114.014 -80.6641 C 112.598 -88.623 107.568 -92.2852 99.5117 -90.8691 L 22.9492 -77.3438 C 14.8926 -75.8789 11.3281 -70.8496 12.793 -62.793 L 21.9238 -10.7422 C 23.3887 -2.63672 28.418 0.878906 36.4746 -0.537109 Z M 24.2676 -11.2793 L 15.1855 -63.0859 C 13.9648 -69.7754 16.7969 -73.877 23.4863 -75 L 99.8047 -88.4766 C 106.152 -89.5996 110.498 -86.7676 111.67 -80.127 L 114.502 -64.1602 L 51.5137 -64.1602 C 43.3105 -64.1602 38.9648 -59.8145 38.9648 -51.6113 L 38.9648 -3.41797 L 36.1816 -2.92969 C 29.541 -1.75781 25.4395 -4.63867 24.2676 -11.2793 Z M 51.6602 11.377 C 44.873 11.377 41.3574 7.91016 41.3574 1.12305 L 41.3574 -51.5137 C 41.3574 -58.252 44.873 -61.7676 51.6602 -61.7676 L 129.102 -61.7676 C 135.645 -61.7676 139.404 -58.252 139.404 -51.5137 L 139.404 1.12305 C 139.404 7.91016 135.645 11.377 129.102 11.377 Z"/>
  </g>
  <g id="Thin-M" transform="matrix(1 0 0 1 778.859 1126)">
   <path d="M 37.1582 -0.585938 L 39.4043 -0.976562 L 39.4043 1.36719 C 39.4043 10.0098 43.9453 14.502 52.5879 14.502 L 129.492 14.502 C 138.135 14.502 142.627 9.91211 142.627 1.36719 L 142.627 -51.2695 C 142.627 -59.7656 138.135 -64.4043 129.492 -64.4043 L 117.383 -64.4043 L 114.453 -80.9082 C 112.939 -89.3066 107.715 -93.0664 99.2188 -91.5527 L 23.4863 -78.1738 C 14.9902 -76.6602 11.2793 -71.4355 12.793 -62.9395 L 21.9238 -11.2305 C 23.3887 -2.73438 28.6133 0.927734 37.1582 -0.585938 Z M 25.4395 -12.0605 L 16.4062 -63.4277 C 15.2832 -69.7266 17.9688 -73.584 24.2676 -74.6094 L 99.707 -87.9395 C 105.713 -89.0137 109.814 -86.377 110.938 -80.0781 L 113.672 -64.4043 L 52.5879 -64.4043 C 43.9453 -64.4043 39.4043 -59.8633 39.4043 -51.2695 L 39.4043 -4.6875 L 36.6211 -4.19922 C 30.4199 -3.07617 26.5625 -5.76172 25.4395 -12.0605 Z M 52.6855 10.8887 C 46.3867 10.8887 43.0664 7.56836 43.0664 1.2207 L 43.0664 -51.0742 C 43.0664 -57.4707 46.3867 -60.7422 52.6855 -60.7422 L 129.346 -60.7422 C 135.498 -60.7422 139.014 -57.4707 139.014 -51.0742 L 139.014 1.2207 C 139.014 7.56836 135.498 10.8887 129.346 10.8887 Z"/>
  </g>
  <g id="Light-M" transform="matrix(1 0 0 1 1074.74 1126)">
   <path d="M 38.4766 -0.634766 L 40.2832 -0.976562 L 40.2832 1.66016 C 40.2832 11.084 45.1172 15.918 54.6875 15.918 L 129.932 15.918 C 139.453 15.918 144.336 11.0352 144.336 1.66016 L 144.336 -50.5371 C 144.336 -59.9609 139.453 -64.8438 129.932 -64.8438 L 118.213 -64.8438 L 115.332 -81.3477 C 113.672 -90.625 108.008 -94.6289 98.6816 -92.9688 L 24.5605 -79.834 C 15.1367 -78.1738 11.1816 -72.6074 12.8418 -63.2812 L 21.8262 -12.207 C 23.4863 -2.88086 29.1016 1.02539 38.4766 -0.634766 Z M 27.7344 -13.5742 L 18.8477 -64.0137 C 17.8711 -69.5801 20.2637 -72.998 25.7324 -73.9258 L 99.6094 -86.9629 C 104.883 -87.8906 108.447 -85.5469 109.424 -80.0293 L 112.109 -64.8438 L 54.6875 -64.8438 C 45.1172 -64.8438 40.2832 -60.0098 40.2832 -50.5371 L 40.2832 -7.08008 L 37.5488 -6.64062 C 32.1289 -5.66406 28.7109 -8.05664 27.7344 -13.5742 Z M 54.7852 9.86328 C 49.2676 9.86328 46.2891 6.98242 46.2891 1.31836 L 46.2891 -50.2441 C 46.2891 -55.8594 49.2676 -58.7891 54.7852 -58.7891 L 129.834 -58.7891 C 135.205 -58.7891 138.281 -55.8594 138.281 -50.2441 L 138.281 1.31836 C 138.281 6.98242 135.205 9.86328 129.834 9.86328 Z"/>
  </g>
  <g id="Regular-M" transform="matrix(1 0 0 1 1370.82 1126)">
   <path d="M 39.502 -0.683594 L 40.918 -0.927734 L 40.918 1.85547 C 40.918 11.9141 45.9961 16.9922 56.25 16.9922 L 130.273 16.9922 C 140.479 16.9922 145.605 11.9141 145.605 1.85547 L 145.605 -50.0488 C 145.605 -60.0586 140.479 -65.1367 130.273 -65.1367 L 118.848 -65.1367 L 115.967 -81.7383 C 114.209 -91.6504 108.252 -95.752 98.2422 -93.9941 L 25.3418 -81.1035 C 15.2344 -79.3457 11.084 -73.4863 12.8906 -63.5254 L 21.7773 -12.9395 C 23.584 -3.02734 29.4434 1.07422 39.502 -0.683594 Z M 29.4434 -14.7461 L 20.7031 -64.502 C 19.7754 -69.4824 22.0215 -72.5586 26.8066 -73.3887 L 99.5117 -86.2305 C 104.248 -87.0605 107.422 -84.9121 108.301 -79.9316 L 110.938 -65.1367 L 56.25 -65.1367 C 45.9961 -65.1367 40.918 -60.1074 40.918 -50.0488 L 40.918 -8.93555 L 38.2812 -8.44727 C 33.4473 -7.61719 30.3223 -9.76562 29.4434 -14.7461 Z M 56.3477 9.13086 C 51.4648 9.13086 48.7793 6.49414 48.7793 1.41602 L 48.7793 -49.6094 C 48.7793 -54.6875 51.4648 -57.2754 56.3477 -57.2754 L 130.176 -57.2754 C 134.961 -57.2754 137.744 -54.6875 137.744 -49.6094 L 137.744 1.41602 C 137.744 6.49414 134.961 9.13086 130.176 9.13086 Z"/>
  </g>
  <g id="Medium-M" transform="matrix(1 0 0 1 1666.45 1126)">
   <path d="M 40.4297 0.0488281 L 41.9434 -0.195312 L 41.9434 2.34375 C 41.9434 12.8418 47.4609 18.2617 58.0566 18.2617 L 131.689 18.2617 C 142.236 18.2617 147.754 12.793 147.754 2.34375 L 147.754 -49.707 C 147.754 -60.1562 142.236 -65.625 131.689 -65.625 L 119.922 -65.625 L 117.041 -82.0801 C 115.234 -92.3828 108.838 -96.8262 98.4375 -94.9707 L 25.9277 -82.1777 C 15.4785 -80.3223 11.0352 -74.0234 12.8906 -63.6719 L 21.8262 -12.8418 C 23.6816 -2.49023 30.0293 1.9043 40.4297 0.0488281 Z M 31.25 -15.3809 L 22.6074 -64.502 C 21.7773 -69.1895 23.8281 -71.9238 28.2715 -72.7051 L 99.5117 -85.3027 C 103.906 -86.0352 106.787 -84.1309 107.617 -79.4922 L 110.059 -65.625 L 58.0566 -65.625 C 47.4609 -65.625 41.9434 -60.1562 41.9434 -49.707 L 41.9434 -10.1074 L 39.3555 -9.61914 C 34.9121 -8.83789 32.0801 -10.7422 31.25 -15.3809 Z M 58.6914 8.54492 C 54.1504 8.54492 51.709 6.20117 51.709 1.51367 L 51.709 -48.8281 C 51.709 -53.5645 54.1504 -55.8594 58.6914 -55.8594 L 131.055 -55.8594 C 135.498 -55.8594 138.037 -53.5645 138.037 -48.8281 L 138.037 1.51367 C 138.037 6.20117 135.498 8.54492 131.055 8.54492 Z"/>
  </g>
  <g id="Semibold-M" transform="matrix(1 0 0 1 1962.33 1126)">
   <path d="M 41.1621 0.634766 L 42.7734 0.390625 L 42.7734 2.73438 C 42.7734 13.5254 48.584 19.2871 59.4238 19.2871 L 132.764 19.2871 C 143.604 19.2871 149.414 13.5254 149.414 2.73438 L 149.414 -49.4629 C 149.414 -60.2051 143.604 -65.9668 132.764 -65.9668 L 120.752 -65.9668 L 117.871 -82.3242 C 116.016 -92.9688 109.277 -97.6074 98.6328 -95.752 L 26.416 -83.0078 C 15.6738 -81.1035 10.9863 -74.4141 12.8906 -63.8184 L 21.875 -12.7441 C 23.7793 -2.09961 30.4688 2.53906 41.1621 0.634766 Z M 32.666 -15.918 L 24.0723 -64.5508 C 23.291 -68.9453 25.1953 -71.4355 29.3457 -72.168 L 99.5605 -84.5703 C 103.662 -85.2539 106.299 -83.5449 107.08 -79.1992 L 109.424 -65.9668 L 59.4238 -65.9668 C 48.584 -65.9668 42.7734 -60.2051 42.7734 -49.4629 L 42.7734 -10.9863 L 40.1855 -10.5469 C 36.0352 -9.81445 33.4473 -11.5234 32.666 -15.918 Z M 60.4492 8.10547 C 56.2012 8.10547 53.9551 5.95703 53.9551 1.51367 L 53.9551 -48.2422 C 53.9551 -52.6855 56.2012 -54.7852 60.4492 -54.7852 L 131.738 -54.7852 C 135.938 -54.7852 138.232 -52.6855 138.232 -48.2422 L 138.232 1.51367 C 138.232 5.95703 135.938 8.10547 131.738 8.10547 Z"/>
  </g>
  <g id="Bold-M" transform="matrix(1 0 0 1 2257.95 1126)">
   <path d="M 42.0898 1.41602 L 43.8477 1.12305 L 43.8477 3.27148 C 43.8477 14.4531 50 20.6055 61.2793 20.6055 L 134.18 20.6055 C 145.361 20.6055 151.611 14.4043 151.611 3.27148 L 151.611 -49.1211 C 151.611 -60.2539 145.361 -66.4551 134.18 -66.4551 L 121.875 -66.4551 L 118.994 -82.7148 C 117.09 -93.7012 109.863 -98.6816 98.8281 -96.7285 L 27.0508 -84.082 C 15.9668 -82.1289 10.9375 -74.9512 12.8906 -63.9648 L 21.9238 -12.6465 C 23.877 -1.61133 31.0547 3.36914 42.0898 1.41602 Z M 34.5215 -16.5527 L 26.0254 -64.5996 C 25.293 -68.6035 27.002 -70.8008 30.8105 -71.4355 L 99.6094 -83.5938 C 103.369 -84.2773 105.664 -82.7637 106.396 -78.7598 L 108.594 -66.4551 L 61.2793 -66.4551 C 50 -66.4551 43.8477 -60.2539 43.8477 -49.1211 L 43.8477 -12.1582 L 41.3086 -11.7188 C 37.5488 -11.084 35.2539 -12.5488 34.5215 -16.5527 Z M 62.793 7.51953 C 58.9355 7.51953 56.8848 5.66406 56.8848 1.61133 L 56.8848 -47.4609 C 56.8848 -51.5137 58.9355 -53.3691 62.793 -53.3691 L 132.617 -53.3691 C 136.475 -53.3691 138.525 -51.5137 138.525 -47.4609 L 138.525 1.61133 C 138.525 5.66406 136.475 7.51953 132.617 7.51953 Z"/>
  </g>
  <g id="Heavy-M" transform="matrix(1 0 0 1 2553.1 1126)">
   <path d="M 43.5059 2.53906 L 45.3613 2.19727 L 45.3613 4.00391 C 45.3613 15.7715 52.1484 22.5098 63.916 22.5098 L 136.23 22.5098 C 147.949 22.5098 154.736 15.7715 154.736 4.00391 L 154.736 -48.6328 C 154.736 -60.3516 147.949 -67.1387 136.23 -67.1387 L 123.486 -67.1387 L 120.605 -83.2031 C 118.555 -94.7754 110.693 -100.244 99.1211 -98.1934 L 27.9297 -85.6445 C 16.3574 -83.5938 10.8398 -75.7324 12.8906 -64.1602 L 22.0215 -12.4512 C 24.0234 -0.878906 31.8848 4.58984 43.5059 2.53906 Z M 37.207 -17.5293 L 28.8574 -64.6484 C 28.2227 -68.1641 29.6387 -69.873 32.959 -70.459 L 99.6582 -82.1777 C 102.881 -82.7637 104.785 -81.6406 105.42 -78.125 L 107.373 -67.1387 L 63.916 -67.1387 C 52.1484 -67.1387 45.3613 -60.3516 45.3613 -48.6328 L 45.3613 -13.8672 L 42.9199 -13.4766 C 39.6973 -12.8906 37.8418 -14.0137 37.207 -17.5293 Z M 66.1621 6.68945 C 62.8418 6.68945 61.1816 5.22461 61.1816 1.70898 L 61.1816 -46.2891 C 61.1816 -49.8535 62.8418 -51.2695 66.1621 -51.2695 L 133.936 -51.2695 C 137.256 -51.2695 138.916 -49.8535 138.916 -46.2891 L 138.916 1.70898 C 138.916 5.22461 137.256 6.68945 133.936 6.68945 Z"/>
  </g>
  <g id="Black-M" transform="matrix(1 0 0 1 2848.39 1126)">
   <path d="M 44.7266 3.56445 L 46.7285 3.17383 L 46.7285 4.6875 C 46.7285 16.9434 54.0039 24.2188 66.2598 24.2188 L 138.037 24.2188 C 150.293 24.2188 157.568 16.9434 157.568 4.6875 L 157.568 -48.1934 C 157.568 -60.4492 150.293 -67.7246 138.037 -67.7246 L 124.902 -67.7246 L 122.021 -83.6426 C 119.922 -95.752 111.426 -101.611 99.3652 -99.5117 L 28.7109 -87.0605 C 16.6504 -84.9121 10.791 -76.4648 12.8906 -64.4043 L 22.0703 -12.3047 C 24.2188 -0.244141 32.666 5.66406 44.7266 3.56445 Z M 39.5996 -18.3594 L 31.3965 -64.6973 C 30.8105 -67.7734 31.9824 -69.043 34.8145 -69.5312 L 99.707 -80.957 C 102.49 -81.4453 103.955 -80.6152 104.492 -77.5879 L 106.25 -67.7246 L 66.2598 -67.7246 C 54.0039 -67.7246 46.7285 -60.4492 46.7285 -48.1934 L 46.7285 -15.4297 L 44.3848 -14.9902 C 41.6016 -14.502 40.1367 -15.332 39.5996 -18.3594 Z M 69.1895 5.95703 C 66.3574 5.95703 65.0391 4.83398 65.0391 1.75781 L 65.0391 -45.2637 C 65.0391 -48.3398 66.3574 -49.4141 69.1895 -49.4141 L 135.107 -49.4141 C 137.939 -49.4141 139.258 -48.3398 139.258 -45.2637 L 139.258 1.75781 C 139.258 4.83398 137.939 5.95703 135.107 5.95703 Z"/>
  </g>
  <g id="Ultralight-L" transform="matrix(1 0 0 1 460.395 1556)">
   <path d="M 46.7773 9.52148 L 50.0977 8.93555 L 50.0977 11.7676 C 50.0977 22.168 55.6641 27.7344 66.0156 27.7344 L 166.65 27.7344 C 177.051 27.7344 182.568 21.9727 182.568 11.7676 L 182.568 -56.543 C 182.568 -66.748 177.051 -72.4609 166.65 -72.4609 L 150.732 -72.4609 L 146.924 -93.75 C 145.117 -103.809 138.721 -108.496 128.516 -106.689 L 29.3945 -89.1602 C 19.1895 -87.3535 14.6484 -80.957 16.4551 -70.7031 L 28.3203 -3.36914 C 30.127 6.83594 36.5234 11.3281 46.7773 9.52148 Z M 30.8105 -3.95508 L 19.043 -71.0449 C 17.4805 -79.8828 21.1426 -85.2051 29.9805 -86.6699 L 128.809 -104.15 C 137.207 -105.615 142.871 -101.904 144.434 -93.2129 L 148.047 -72.4609 L 66.0156 -72.4609 C 55.6641 -72.4609 50.0977 -66.8945 50.0977 -56.543 L 50.0977 6.34766 L 46.4844 6.98242 C 37.7441 8.54492 32.373 4.73633 30.8105 -3.95508 Z M 66.1621 25.1465 C 57.2754 25.1465 52.6367 20.5566 52.6367 11.6699 L 52.6367 -56.3965 C 52.6367 -65.2832 57.2754 -69.9219 66.1621 -69.9219 L 166.504 -69.9219 C 175.049 -69.9219 180.029 -65.2832 180.029 -56.3965 L 180.029 11.6699 C 180.029 20.5566 175.049 25.1465 166.504 25.1465 Z"/>
  </g>
  <g id="Thin-L" transform="matrix(1 0 0 1 756.618 1556)">
   <path d="M 47.5098 9.52148 L 50.5859 8.98438 L 50.5859 11.9141 C 50.5859 22.8027 56.2988 28.5156 67.1875 28.5156 L 166.943 28.5156 C 177.783 28.5156 183.545 22.6562 183.545 11.9141 L 183.545 -56.1523 C 183.545 -66.8457 177.783 -72.7051 166.943 -72.7051 L 151.172 -72.7051 L 147.412 -94.043 C 145.557 -104.59 138.916 -109.375 128.174 -107.471 L 29.9805 -90.1367 C 19.2871 -88.2324 14.5996 -81.5918 16.5039 -70.8984 L 28.2715 -3.95508 C 30.1758 6.73828 36.8164 11.377 47.5098 9.52148 Z M 32.1289 -4.83398 L 20.4102 -71.3867 C 18.9453 -79.7852 22.4609 -84.8633 30.8105 -86.2793 L 128.711 -103.564 C 136.719 -104.98 142.09 -101.465 143.604 -93.1641 L 147.168 -72.7051 L 67.1875 -72.7051 C 56.2988 -72.7051 50.5859 -66.9922 50.5859 -56.1523 L 50.5859 4.93164 L 46.9727 5.56641 C 38.7207 7.08008 33.5938 3.4668 32.1289 -4.83398 Z M 67.3828 24.6094 C 58.9355 24.6094 54.541 20.2148 54.541 11.7188 L 54.541 -55.957 C 54.541 -64.4043 58.9355 -68.7988 67.3828 -68.7988 L 166.748 -68.7988 C 174.902 -68.7988 179.59 -64.4043 179.59 -55.957 L 179.59 11.7188 C 179.59 20.2148 174.902 24.6094 166.748 24.6094 Z"/>
  </g>
  <g id="Light-L" transform="matrix(1 0 0 1 1052.38 1556)">
   <path d="M 49.0234 9.42383 L 51.5625 8.98438 L 51.5625 12.207 C 51.5625 24.0234 57.666 30.0781 69.5312 30.0781 L 167.432 30.0781 C 179.297 30.0781 185.4 23.9258 185.4 12.207 L 185.4 -55.3711 C 185.4 -67.041 179.297 -73.1934 167.432 -73.1934 L 152.148 -73.1934 L 148.389 -94.5312 C 146.338 -106.055 139.258 -111.084 127.588 -109.033 L 31.1523 -91.9922 C 19.4336 -89.9414 14.502 -82.9102 16.5527 -71.2891 L 28.2227 -5.07812 C 30.2734 6.5918 37.3047 11.4746 49.0234 9.42383 Z M 34.668 -6.54297 L 23.1445 -72.0703 C 21.7773 -79.6387 25.0488 -84.2285 32.4707 -85.498 L 128.564 -102.49 C 135.742 -103.76 140.576 -100.537 141.943 -93.0664 L 145.41 -73.1934 L 69.5312 -73.1934 C 57.666 -73.1934 51.5625 -67.1387 51.5625 -55.3711 L 51.5625 2.24609 L 48.0469 2.88086 C 40.625 4.19922 35.9863 0.927734 34.668 -6.54297 Z M 69.6777 23.4863 C 62.1582 23.4863 58.1543 19.5312 58.1543 11.8652 L 58.1543 -54.9805 C 58.1543 -62.6465 62.1582 -66.6016 69.6777 -66.6016 L 167.285 -66.6016 C 174.609 -66.6016 178.809 -62.6465 178.809 -54.9805 L 178.809 11.8652 C 178.809 19.5312 174.609 23.4863 167.285 23.4863 Z"/>
  </g>
  <g id="Regular-L" transform="matrix(1 0 0 1 1348.38 1556)">
   <path d="M 50.1465 9.375 L 52.2461 8.98438 L 52.2461 12.4512 C 52.2461 24.9512 58.6426 31.25 71.2891 31.25 L 167.822 31.25 C 180.42 31.25 186.816 24.9023 186.816 12.4512 L 186.816 -54.7363 C 186.816 -67.1875 180.42 -73.584 167.822 -73.584 L 152.832 -73.584 L 149.072 -94.9219 C 146.973 -107.227 139.502 -112.402 127.1 -110.205 L 32.0312 -93.4082 C 19.5801 -91.2109 14.4043 -83.8867 16.6016 -71.5332 L 28.1738 -5.9082 C 30.3711 6.44531 37.6953 11.5723 50.1465 9.375 Z M 36.5723 -7.86133 L 25.1953 -72.6074 C 23.9746 -79.541 27.002 -83.7891 33.6914 -84.9121 L 128.467 -101.66 C 135.01 -102.783 139.453 -99.8535 140.674 -92.9688 L 144.092 -73.584 L 71.2891 -73.584 C 58.6426 -73.584 52.2461 -67.2363 52.2461 -54.7363 L 52.2461 0.195312 L 48.7793 0.830078 C 42.0898 2.00195 37.793 -0.976562 36.5723 -7.86133 Z M 71.4355 22.6074 C 64.6484 22.6074 60.9375 18.9941 60.9375 12.0117 L 60.9375 -54.2969 C 60.9375 -61.3281 64.6484 -64.9414 71.4355 -64.9414 L 167.676 -64.9414 C 174.365 -64.9414 178.174 -61.3281 178.174 -54.2969 L 178.174 12.0117 C 178.174 18.9941 174.365 22.6074 167.676 22.6074 Z"/>
  </g>
  <g id="Medium-L" transform="matrix(1 0 0 1 1643.97 1556)">
   <path d="M 51.2207 10.0586 L 53.3691 9.66797 L 53.3691 12.9395 C 53.3691 25.9277 60.1562 32.666 73.2422 32.666 L 169.189 32.666 C 182.227 32.666 189.062 25.8789 189.062 12.9395 L 189.062 -54.3457 C 189.062 -67.2852 182.227 -74.0723 169.189 -74.0723 L 153.955 -74.0723 L 150.244 -95.3125 C 147.998 -108.057 140.088 -113.574 127.197 -111.328 L 32.7637 -94.6289 C 19.8242 -92.334 14.3066 -84.5703 16.6016 -71.7285 L 28.1738 -5.9082 C 30.4688 6.88477 38.3301 12.3535 51.2207 10.0586 Z M 38.623 -8.69141 L 27.3438 -72.7051 C 26.1719 -79.1992 28.9551 -83.1055 35.2539 -84.1797 L 128.467 -100.635 C 134.619 -101.709 138.672 -99.0234 139.844 -92.5781 L 143.066 -74.0723 L 73.2422 -74.0723 C 60.1562 -74.0723 53.3691 -67.334 53.3691 -54.3457 L 53.3691 -1.2207 L 49.9512 -0.634766 C 43.7012 0.488281 39.7461 -2.19727 38.623 -8.69141 Z M 73.877 21.9238 C 67.5293 21.9238 64.1113 18.6523 64.1113 12.0605 L 64.1113 -53.4668 C 64.1113 -60.0098 67.5293 -63.3301 73.877 -63.3301 L 168.555 -63.3301 C 174.805 -63.3301 178.32 -60.0098 178.32 -53.4668 L 178.32 12.0605 C 178.32 18.6523 174.805 21.9238 168.555 21.9238 Z"/>
  </g>
  <g id="Semibold-L" transform="matrix(1 0 0 1 1939.85 1556)">
   <path d="M 52.002 10.5957 L 54.1992 10.2051 L 54.1992 13.3301 C 54.1992 26.709 61.2793 33.7402 74.7559 33.7402 L 170.215 33.7402 C 183.643 33.7402 190.771 26.6602 190.771 13.3301 L 190.771 -54.0527 C 190.771 -67.334 183.643 -74.4629 170.215 -74.4629 L 154.834 -74.4629 L 151.074 -95.6055 C 148.779 -108.74 140.527 -114.502 127.295 -112.158 L 33.3008 -95.5566 C 20.0195 -93.2129 14.2578 -85.0586 16.6016 -71.875 L 28.2227 -5.95703 C 30.5664 7.22656 38.7695 12.9395 52.002 10.5957 Z M 40.1367 -9.32617 L 28.9551 -72.8027 C 27.8809 -79.0039 30.5176 -82.5684 36.4258 -83.5938 L 128.467 -99.8535 C 134.277 -100.879 138.086 -98.3887 139.16 -92.2852 L 142.334 -74.4629 L 74.7559 -74.4629 C 61.2793 -74.4629 54.1992 -67.3828 54.1992 -54.0527 L 54.1992 -2.34375 L 50.8301 -1.75781 C 44.9219 -0.683594 41.2598 -3.17383 40.1367 -9.32617 Z M 75.7324 21.4355 C 69.7754 21.4355 66.5527 18.3594 66.5527 12.1094 L 66.5527 -52.832 C 66.5527 -59.0332 69.7754 -62.1094 75.7324 -62.1094 L 169.238 -62.1094 C 175.146 -62.1094 178.418 -59.0332 178.418 -52.832 L 178.418 12.1094 C 178.418 18.3594 175.146 21.4355 169.238 21.4355 Z"/>
  </g>
  <g id="Bold-L" transform="matrix(1 0 0 1 2235.41 1556)">
   <path d="M 53.125 11.2793 L 55.3223 10.8887 L 55.3223 13.8672 C 55.3223 27.6855 62.793 35.1562 76.7578 35.1562 L 171.582 35.1562 C 185.498 35.1562 193.018 27.6855 193.018 13.8672 L 193.018 -53.6133 C 193.018 -67.4316 185.498 -74.9512 171.582 -74.9512 L 155.957 -74.9512 L 152.246 -95.9961 C 149.854 -109.619 141.064 -115.723 127.393 -113.33 L 34.0332 -96.8262 C 20.2637 -94.3848 14.209 -85.7422 16.6016 -72.0703 L 28.2715 -6.00586 C 30.6641 7.66602 39.3555 13.7207 53.125 11.2793 Z M 42.1875 -10.1562 L 31.1035 -72.9492 C 30.0781 -78.6621 32.5195 -81.8848 37.9883 -82.8613 L 128.516 -98.8281 C 133.887 -99.7559 137.305 -97.5586 138.281 -91.8457 L 141.309 -74.9512 L 76.7578 -74.9512 C 62.793 -74.9512 55.3223 -67.4805 55.3223 -53.6133 L 55.3223 -3.80859 L 52.002 -3.22266 C 46.582 -2.24609 43.2129 -4.49219 42.1875 -10.1562 Z M 78.2227 20.752 C 72.7051 20.752 69.7266 17.9688 69.7266 12.207 L 69.7266 -51.9531 C 69.7266 -57.7148 72.7051 -60.498 78.2227 -60.498 L 170.117 -60.498 C 175.586 -60.498 178.564 -57.7148 178.564 -51.9531 L 178.564 12.207 C 178.564 17.9688 175.586 20.752 170.117 20.752 Z"/>
  </g>
  <g id="Heavy-L" transform="matrix(1 0 0 1 2530.49 1556)">
   <path d="M 54.6875 12.3047 L 56.8848 11.9141 L 56.8848 14.5996 C 56.8848 29.1504 64.9902 37.2559 79.6387 37.2559 L 173.535 37.2559 C 188.135 37.2559 196.289 29.1504 196.289 14.5996 L 196.289 -53.0273 C 196.289 -67.5781 188.135 -75.6348 173.535 -75.6348 L 157.617 -75.6348 L 153.906 -96.582 C 151.367 -110.938 141.943 -117.48 127.539 -114.941 L 35.1074 -98.6328 C 20.6543 -96.0938 14.1113 -86.7188 16.6504 -72.3633 L 28.3203 -6.05469 C 30.8594 8.30078 40.2832 14.8438 54.6875 12.3047 Z M 45.166 -11.377 L 34.2285 -73.1445 C 33.3496 -78.2227 35.4492 -80.9082 40.2344 -81.7383 L 128.516 -97.3145 C 133.252 -98.1445 136.133 -96.3379 137.061 -91.2598 L 139.844 -75.6348 L 79.6387 -75.6348 C 64.9902 -75.6348 56.8848 -67.5781 56.8848 -53.0273 L 56.8848 -5.9082 L 53.6621 -5.32227 C 48.9258 -4.49219 46.0938 -6.34766 45.166 -11.377 Z M 81.7871 19.7266 C 76.9531 19.7266 74.4141 17.4316 74.4141 12.3047 L 74.4141 -50.7324 C 74.4141 -55.8594 76.9531 -58.1543 81.7871 -58.1543 L 171.436 -58.1543 C 176.221 -58.1543 178.809 -55.8594 178.809 -50.7324 L 178.809 12.3047 C 178.809 17.4316 176.221 19.7266 171.436 19.7266 Z"/>
  </g>
  <g id="Black-L" transform="matrix(1 0 0 1 2825.76 1556)">
   <path d="M 56.0547 13.1836 L 58.3496 12.793 L 58.3496 15.2832 C 58.3496 30.4688 66.9922 39.1113 82.2266 39.1113 L 175.293 39.1113 C 190.527 39.1113 199.219 30.4688 199.219 15.2832 L 199.219 -52.4902 C 199.219 -67.6758 190.527 -76.3184 175.293 -76.3184 L 159.082 -76.3184 L 155.371 -97.1191 C 152.783 -112.061 142.676 -119.043 127.686 -116.406 L 36.0352 -100.244 C 20.9961 -97.6074 14.0137 -87.5977 16.6504 -72.6074 L 28.3691 -6.10352 C 31.0059 8.83789 41.0645 15.8203 56.0547 13.1836 Z M 47.8027 -12.4512 L 37.0605 -73.291 C 36.2305 -77.832 38.0859 -80.0293 42.2852 -80.7617 L 128.564 -95.9961 C 132.715 -96.7285 135.107 -95.2148 135.938 -90.7715 L 138.525 -76.3184 L 82.2266 -76.3184 C 66.9922 -76.3184 58.3496 -67.6758 58.3496 -52.4902 L 58.3496 -7.8125 L 55.1758 -7.22656 C 51.0254 -6.49414 48.6328 -8.00781 47.8027 -12.4512 Z M 84.9609 18.8477 C 80.7129 18.8477 78.5645 16.9434 78.5645 12.4023 L 78.5645 -49.6094 C 78.5645 -54.1504 80.7129 -56.0547 84.9609 -56.0547 L 172.559 -56.0547 C 176.807 -56.0547 178.955 -54.1504 178.955 -49.6094 L 178.955 12.4023 C 178.955 16.9434 176.807 18.8477 172.559 18.8477 Z"/>
  </g>
 </g>
</svg>
