<?xml version="1.0" encoding="UTF-8"?>
<!--Generator: Apple Native CoreSVG 123-->
<!DOCTYPE svg
PUBLIC "-//W3C//DTD SVG 1.1//EN"
       "http://www.w3.org/Graphics/SVG/1.1/DTD/svg11.dtd">
<svg version="1.1" xmlns="http://www.w3.org/2000/svg" xmlns:xlink="http://www.w3.org/1999/xlink" width="3300" height="2200">
 <!--glyph: "uni1001F4.medium", point size: 100.000000, font version: "Version 15.0d4e20", template writer version: "2"-->
 <g id="Notes">
  <rect height="2200" id="artboard" style="fill:white;opacity:1" width="3300" x="0" y="0"/>
  <line id="" style="fill:none;stroke:black;opacity:1;stroke-width:0.5;" x1="263" x2="3036" y1="292" y2="292"/>
  <text style="stroke:none;fill:black;font-family:-apple-system,&quot;SF Pro Display&quot;,&quot;SF Pro Text&quot;,Helvetica,sans-serif;font-weight:bold;" transform="matrix(1 0 0 1 263 322)">Weight/Scale Variations</text>
  <text style="stroke:none;fill:black;font-family:-apple-system,&quot;SF Pro Display&quot;,&quot;SF Pro Text&quot;,Helvetica,sans-serif;text-anchor:middle;" transform="matrix(1 0 0 1 559.711 322)">Ultralight</text>
  <text style="stroke:none;fill:black;font-family:-apple-system,&quot;SF Pro Display&quot;,&quot;SF Pro Text&quot;,Helvetica,sans-serif;text-anchor:middle;" transform="matrix(1 0 0 1 856.422 322)">Thin</text>
  <text style="stroke:none;fill:black;font-family:-apple-system,&quot;SF Pro Display&quot;,&quot;SF Pro Text&quot;,Helvetica,sans-serif;text-anchor:middle;" transform="matrix(1 0 0 1 1153.13 322)">Light</text>
  <text style="stroke:none;fill:black;font-family:-apple-system,&quot;SF Pro Display&quot;,&quot;SF Pro Text&quot;,Helvetica,sans-serif;text-anchor:middle;" transform="matrix(1 0 0 1 1449.84 322)">Regular</text>
  <text style="stroke:none;fill:black;font-family:-apple-system,&quot;SF Pro Display&quot;,&quot;SF Pro Text&quot;,Helvetica,sans-serif;text-anchor:middle;" transform="matrix(1 0 0 1 1746.56 322)">Medium</text>
  <text style="stroke:none;fill:black;font-family:-apple-system,&quot;SF Pro Display&quot;,&quot;SF Pro Text&quot;,Helvetica,sans-serif;text-anchor:middle;" transform="matrix(1 0 0 1 2043.27 322)">Semibold</text>
  <text style="stroke:none;fill:black;font-family:-apple-system,&quot;SF Pro Display&quot;,&quot;SF Pro Text&quot;,Helvetica,sans-serif;text-anchor:middle;" transform="matrix(1 0 0 1 2339.98 322)">Bold</text>
  <text style="stroke:none;fill:black;font-family:-apple-system,&quot;SF Pro Display&quot;,&quot;SF Pro Text&quot;,Helvetica,sans-serif;text-anchor:middle;" transform="matrix(1 0 0 1 2636.69 322)">Heavy</text>
  <text style="stroke:none;fill:black;font-family:-apple-system,&quot;SF Pro Display&quot;,&quot;SF Pro Text&quot;,Helvetica,sans-serif;text-anchor:middle;" transform="matrix(1 0 0 1 2933.4 322)">Black</text>
  <line id="" style="fill:none;stroke:black;opacity:1;stroke-width:0.5;" x1="263" x2="3036" y1="1903" y2="1903"/>
  <g id="" transform="matrix(1 0 0 1 263 1933)">
   <path d="M 9.24805 0.830078 C 13.5547 0.830078 17.1387 -2.74414 17.1387 -7.05078 C 17.1387 -11.3574 13.5449 -14.9316 9.23828 -14.9316 C 4.94141 -14.9316 1.36719 -11.3574 1.36719 -7.05078 C 1.36719 -2.74414 4.95117 0.830078 9.24805 0.830078 Z M 9.24805 -0.654297 C 5.70312 -0.654297 2.87109 -3.49609 2.87109 -7.05078 C 2.87109 -10.6055 5.69336 -13.4473 9.23828 -13.4473 C 12.793 -13.4473 15.6348 -10.6055 15.6445 -7.05078 C 15.6543 -3.49609 12.8027 -0.654297 9.24805 -0.654297 Z M 9.22852 -3.42773 C 9.69727 -3.42773 9.9707 -3.74023 9.9707 -4.25781 L 9.9707 -6.31836 L 12.1973 -6.31836 C 12.6953 -6.31836 13.0371 -6.57227 13.0371 -7.04102 C 13.0371 -7.51953 12.7148 -7.7832 12.1973 -7.7832 L 9.9707 -7.7832 L 9.9707 -10.0098 C 9.9707 -10.5273 9.69727 -10.8496 9.22852 -10.8496 C 8.75977 -10.8496 8.50586 -10.5078 8.50586 -10.0098 L 8.50586 -7.7832 L 6.29883 -7.7832 C 5.78125 -7.7832 5.44922 -7.51953 5.44922 -7.04102 C 5.44922 -6.57227 5.80078 -6.31836 6.29883 -6.31836 L 8.50586 -6.31836 L 8.50586 -4.25781 C 8.50586 -3.75977 8.75977 -3.42773 9.22852 -3.42773 Z"/>
  </g>
  <g id="" transform="matrix(1 0 0 1 281.506 1933)">
   <path d="M 11.709 2.91016 C 17.1484 2.91016 21.6699 -1.60156 21.6699 -7.05078 C 21.6699 -12.4902 17.1387 -17.0117 11.6992 -17.0117 C 6.25 -17.0117 1.74805 -12.4902 1.74805 -7.05078 C 1.74805 -1.60156 6.25977 2.91016 11.709 2.91016 Z M 11.709 1.25 C 7.09961 1.25 3.41797 -2.44141 3.41797 -7.05078 C 3.41797 -11.6504 7.08984 -15.3516 11.6992 -15.3516 C 16.2988 -15.3516 20 -11.6504 20.0098 -7.05078 C 20.0195 -2.44141 16.3086 1.25 11.709 1.25 Z M 11.6797 -2.41211 C 12.207 -2.41211 12.5195 -2.77344 12.5195 -3.33984 L 12.5195 -6.23047 L 15.5762 -6.23047 C 16.123 -6.23047 16.5039 -6.51367 16.5039 -7.03125 C 16.5039 -7.55859 16.1426 -7.86133 15.5762 -7.86133 L 12.5195 -7.86133 L 12.5195 -10.9277 C 12.5195 -11.5039 12.207 -11.8555 11.6797 -11.8555 C 11.1621 -11.8555 10.8789 -11.4844 10.8789 -10.9277 L 10.8789 -7.86133 L 7.83203 -7.86133 C 7.25586 -7.86133 6.89453 -7.55859 6.89453 -7.03125 C 6.89453 -6.51367 7.28516 -6.23047 7.83203 -6.23047 L 10.8789 -6.23047 L 10.8789 -3.33984 C 10.8789 -2.79297 11.1621 -2.41211 11.6797 -2.41211 Z"/>
  </g>
  <g id="" transform="matrix(1 0 0 1 304.914 1933)">
   <path d="M 14.9707 5.67383 C 21.9336 5.67383 27.6855 -0.078125 27.6855 -7.04102 C 27.6855 -14.0039 21.9238 -19.7559 14.9609 -19.7559 C 7.99805 -19.7559 2.25586 -14.0039 2.25586 -7.04102 C 2.25586 -0.078125 8.00781 5.67383 14.9707 5.67383 Z M 14.9707 3.85742 C 8.92578 3.85742 4.08203 -1.00586 4.08203 -7.04102 C 4.08203 -13.0762 8.91602 -17.9395 14.9609 -17.9395 C 20.9961 -17.9395 25.8594 -13.0762 25.8691 -7.04102 C 25.8789 -1.00586 21.0059 3.85742 14.9707 3.85742 Z M 14.9414 -1.06445 C 15.5176 -1.06445 15.8594 -1.45508 15.8594 -2.06055 L 15.8594 -6.13281 L 20.0977 -6.13281 C 20.6934 -6.13281 21.1133 -6.46484 21.1133 -7.02148 C 21.1133 -7.59766 20.7227 -7.93945 20.0977 -7.93945 L 15.8594 -7.93945 L 15.8594 -12.1875 C 15.8594 -12.8027 15.5176 -13.1934 14.9414 -13.1934 C 14.3848 -13.1934 14.0625 -12.7832 14.0625 -12.1875 L 14.0625 -7.93945 L 9.82422 -7.93945 C 9.20898 -7.93945 8.80859 -7.59766 8.80859 -7.02148 C 8.80859 -6.46484 9.23828 -6.13281 9.82422 -6.13281 L 14.0625 -6.13281 L 14.0625 -2.06055 C 14.0625 -1.47461 14.3848 -1.06445 14.9414 -1.06445 Z"/>
  </g>
  <text style="stroke:none;fill:black;font-family:-apple-system,&quot;SF Pro Display&quot;,&quot;SF Pro Text&quot;,Helvetica,sans-serif;font-weight:bold;" transform="matrix(1 0 0 1 263 1953)">Design Variations</text>
  <text style="stroke:none;fill:black;font-family:-apple-system,&quot;SF Pro Display&quot;,&quot;SF Pro Text&quot;,Helvetica,sans-serif;" transform="matrix(1 0 0 1 263 1971)">Symbols are supported in up to nine weights and three scales.</text>
  <text style="stroke:none;fill:black;font-family:-apple-system,&quot;SF Pro Display&quot;,&quot;SF Pro Text&quot;,Helvetica,sans-serif;" transform="matrix(1 0 0 1 263 1989)">For optimal layout with text and other symbols, vertically align</text>
  <text style="stroke:none;fill:black;font-family:-apple-system,&quot;SF Pro Display&quot;,&quot;SF Pro Text&quot;,Helvetica,sans-serif;" transform="matrix(1 0 0 1 263 2007)">symbols with the adjacent text.</text>
  <rect height="14" id="" style="fill:#00AEEF;stroke:none;opacity:0.4;" width="3" x="776" y="1919"/>
  <g id="" transform="matrix(1 0 0 1 779 1933)">
   <path d="M 10.5273 0 L 12.373 0 L 7.17773 -14.0918 L 5.43945 -14.0918 L 0.244141 0 L 2.08984 0 L 3.50586 -4.0332 L 9.11133 -4.0332 Z M 6.2793 -11.9531 L 6.33789 -11.9531 L 8.59375 -5.52734 L 4.02344 -5.52734 Z"/>
  </g>
  <rect height="14" id="" style="fill:#00AEEF;stroke:none;opacity:0.4;" width="3" x="791.617" y="1919"/>
  <text style="stroke:none;fill:black;font-family:-apple-system,&quot;SF Pro Display&quot;,&quot;SF Pro Text&quot;,Helvetica,sans-serif;font-weight:bold;" transform="matrix(1 0 0 1 776 1953)">Side Bearings</text>
  <text style="stroke:none;fill:black;font-family:-apple-system,&quot;SF Pro Display&quot;,&quot;SF Pro Text&quot;,Helvetica,sans-serif;" transform="matrix(1 0 0 1 776 1971)">Horizontal padding on the left and right side of each symbol</text>
  <text style="stroke:none;fill:black;font-family:-apple-system,&quot;SF Pro Display&quot;,&quot;SF Pro Text&quot;,Helvetica,sans-serif;" transform="matrix(1 0 0 1 776 1989)">can be adjusted by modifying the width of the blue rectangles.</text>
  <text style="stroke:none;fill:black;font-family:-apple-system,&quot;SF Pro Display&quot;,&quot;SF Pro Text&quot;,Helvetica,sans-serif;" transform="matrix(1 0 0 1 776 2007)">Modifications are automatically applied proportionally to all</text>
  <text style="stroke:none;fill:black;font-family:-apple-system,&quot;SF Pro Display&quot;,&quot;SF Pro Text&quot;,Helvetica,sans-serif;" transform="matrix(1 0 0 1 776 2025)">scales and weights.</text>
  <g id="" transform="matrix(1 0 0 1 1289 1933)">
   <path d="M 2.96875 2.35352 L 3.80859 3.19336 C 4.84375 4.22852 6.12305 4.15039 7.19727 2.97852 L 16.1621 -6.82617 C 16.5527 -6.74805 16.9629 -6.8457 17.4902 -7.02148 C 18.1738 -7.25586 18.2715 -7.25586 18.3887 -7.13867 C 18.5352 -7.01172 18.4863 -6.89453 18.2422 -6.25 C 17.8809 -5.33203 17.8125 -4.79492 18.5547 -4.02344 L 19.4238 -3.13477 C 20.2734 -2.24609 21.3281 -2.26562 22.2168 -3.14453 L 25.0586 -5.97656 C 25.9473 -6.86523 25.957 -7.92969 25.0781 -8.7793 L 24.1797 -9.64844 C 23.4082 -10.4004 22.8711 -10.3516 21.9629 -9.98047 C 21.3184 -9.72656 21.2012 -9.6875 21.0645 -9.81445 C 20.9375 -9.93164 20.9473 -10.0391 21.1816 -10.7129 C 21.5332 -11.6895 21.5723 -12.2852 20.752 -13.0957 L 19.3359 -14.5117 C 15.1953 -18.6133 11.2305 -18.7402 7.65625 -15.4395 C 7.08008 -14.9023 6.99219 -14.1504 7.53906 -13.6133 L 7.79297 -13.3594 C 8.22266 -12.9297 8.86719 -12.8418 9.41406 -13.1152 C 11.0645 -13.9453 12.2559 -14.0234 13.457 -12.9785 L 13.0273 -11.416 C 12.8516 -10.8008 12.793 -10.3418 12.9199 -9.93164 L 3.18359 -1.04492 C 2.02148 0.0292969 1.93359 1.32812 2.96875 2.35352 Z M 8.96484 -14.4922 C 8.89648 -14.5703 8.86719 -14.6582 8.99414 -14.7559 C 11.709 -17.2852 15.0391 -16.8457 18.3496 -13.5254 L 19.6973 -12.168 C 20.0879 -11.7773 20.0977 -11.582 19.8828 -10.8691 C 19.6582 -10.127 19.502 -9.53125 20.1465 -8.88672 C 20.8105 -8.22266 21.2891 -8.41797 22.207 -8.63281 C 22.9004 -8.79883 23.0664 -8.79883 23.4473 -8.41797 L 24.0918 -7.77344 C 24.4043 -7.48047 24.4141 -7.32422 24.0723 -6.97266 L 21.2207 -4.13086 C 20.8887 -3.79883 20.7227 -3.79883 20.4297 -4.10156 L 19.7852 -4.75586 C 19.4141 -5.13672 19.4141 -5.30273 19.5801 -6.01562 C 19.7852 -6.88477 19.9805 -7.38281 19.3262 -8.04688 C 18.6719 -8.7207 18.0762 -8.57422 17.3438 -8.33008 C 16.5625 -8.06641 16.3281 -8.06641 15.8984 -8.49609 L 14.6094 -9.78516 C 14.1699 -10.2246 14.1309 -10.4395 14.2676 -10.9082 L 15.0293 -13.3984 C 13.3887 -15.2832 11.4941 -15.5566 9.20898 -14.4434 C 9.11133 -14.3945 9.04297 -14.4141 8.96484 -14.4922 Z M 3.96484 1.36719 C 3.52539 0.927734 3.54492 0.537109 4.14062 -0.00976562 L 13.7402 -8.81836 L 15 -7.55859 L 6.17188 2.02148 C 5.625 2.60742 5.24414 2.64648 4.79492 2.19727 Z"/>
  </g>
  <text style="stroke:none;fill:black;font-family:-apple-system,&quot;SF Pro Display&quot;,&quot;SF Pro Text&quot;,Helvetica,sans-serif;font-weight:bold;" transform="matrix(1 0 0 1 1289 1953)">Exporting</text>
  <text style="stroke:none;fill:black;font-family:-apple-system,&quot;SF Pro Display&quot;,&quot;SF Pro Text&quot;,Helvetica,sans-serif;" transform="matrix(1 0 0 1 1289 1971)">Symbols should be outlined when exporting to ensure the</text>
  <text style="stroke:none;fill:black;font-family:-apple-system,&quot;SF Pro Display&quot;,&quot;SF Pro Text&quot;,Helvetica,sans-serif;" transform="matrix(1 0 0 1 1289 1989)">design is preserved when submitting to Xcode.</text>
  <text id="template-version" style="stroke:none;fill:black;font-family:-apple-system,&quot;SF Pro Display&quot;,&quot;SF Pro Text&quot;,Helvetica,sans-serif;text-anchor:end;" transform="matrix(1 0 0 1 3036 1933)">Template v.0.1</text>
  <text style="stroke:none;fill:black;font-family:-apple-system,&quot;SF Pro Display&quot;,&quot;SF Pro Text&quot;,Helvetica,sans-serif;text-anchor:end;" transform="matrix(1 0 0 1 3036 1951)">Generated from rectangle.3.offgrid</text>
  <text style="stroke:none;fill:black;font-family:-apple-system,&quot;SF Pro Display&quot;,&quot;SF Pro Text&quot;,Helvetica,sans-serif;text-anchor:end;" transform="matrix(1 0 0 1 3036 1969)">Typeset at 100 points</text>
  <text style="stroke:none;fill:black;font-family:-apple-system,&quot;SF Pro Display&quot;,&quot;SF Pro Text&quot;,Helvetica,sans-serif;" transform="matrix(1 0 0 1 263 726)">Small</text>
  <text style="stroke:none;fill:black;font-family:-apple-system,&quot;SF Pro Display&quot;,&quot;SF Pro Text&quot;,Helvetica,sans-serif;" transform="matrix(1 0 0 1 263 1156)">Medium</text>
  <text style="stroke:none;fill:black;font-family:-apple-system,&quot;SF Pro Display&quot;,&quot;SF Pro Text&quot;,Helvetica,sans-serif;" transform="matrix(1 0 0 1 263 1586)">Large</text>
 </g>
 <g id="Guides">
  <g id="H-reference" style="fill:#27AAE1;stroke:none;" transform="matrix(1 0 0 1 339 696)">
   <path d="M 54.9316 0 L 57.666 0 L 30.5664 -70.459 L 28.0762 -70.459 L 0.976562 0 L 3.66211 0 L 12.9395 -24.4629 L 45.7031 -24.4629 Z M 29.1992 -67.0898 L 29.4434 -67.0898 L 44.8242 -26.709 L 13.8184 -26.709 Z"/>
  </g>
  <line id="Baseline-S" style="fill:none;stroke:#27AAE1;opacity:1;stroke-width:0.577;" x1="263" x2="3036" y1="696" y2="696"/>
  <line id="Capline-S" style="fill:none;stroke:#27AAE1;opacity:1;stroke-width:0.577;" x1="263" x2="3036" y1="625.541" y2="625.541"/>
  <g id="H-reference" style="fill:#27AAE1;stroke:none;" transform="matrix(1 0 0 1 339 1126)">
   <path d="M 54.9316 0 L 57.666 0 L 30.5664 -70.459 L 28.0762 -70.459 L 0.976562 0 L 3.66211 0 L 12.9395 -24.4629 L 45.7031 -24.4629 Z M 29.1992 -67.0898 L 29.4434 -67.0898 L 44.8242 -26.709 L 13.8184 -26.709 Z"/>
  </g>
  <line id="Baseline-M" style="fill:none;stroke:#27AAE1;opacity:1;stroke-width:0.577;" x1="263" x2="3036" y1="1126" y2="1126"/>
  <line id="Capline-M" style="fill:none;stroke:#27AAE1;opacity:1;stroke-width:0.577;" x1="263" x2="3036" y1="1055.54" y2="1055.54"/>
  <g id="H-reference" style="fill:#27AAE1;stroke:none;" transform="matrix(1 0 0 1 339 1556)">
   <path d="M 54.9316 0 L 57.666 0 L 30.5664 -70.459 L 28.0762 -70.459 L 0.976562 0 L 3.66211 0 L 12.9395 -24.4629 L 45.7031 -24.4629 Z M 29.1992 -67.0898 L 29.4434 -67.0898 L 44.8242 -26.709 L 13.8184 -26.709 Z"/>
  </g>
  <line id="Baseline-L" style="fill:none;stroke:#27AAE1;opacity:1;stroke-width:0.577;" x1="263" x2="3036" y1="1556" y2="1556"/>
  <line id="Capline-L" style="fill:none;stroke:#27AAE1;opacity:1;stroke-width:0.577;" x1="263" x2="3036" y1="1485.54" y2="1485.54"/>
  <rect height="119.336" id="left-margin" style="fill:#00AEEF;stroke:none;opacity:0.4;" width="12.4512" x="1367.81" y="1030.79"/>
  <rect height="119.336" id="right-margin" style="fill:#00AEEF;stroke:none;opacity:0.4;" width="12.5" x="1519.38" y="1030.79"/>
 </g>
 <g id="Symbols">
  <g id="Ultralight-S" transform="matrix(1 0 0 1 497.333 696)">
   <path d="M 14.9902 -38.5742 L 53.6133 -38.5742 C 56.9824 -38.5742 58.8379 -40.1367 58.8379 -43.7988 L 58.8379 -63.5742 C 58.8379 -67.1875 56.9824 -68.75 53.6133 -68.75 L 14.9902 -68.75 C 11.5723 -68.75 9.76562 -67.1875 9.76562 -63.5742 L 9.76562 -43.7988 C 9.76562 -40.1367 11.5723 -38.5742 14.9902 -38.5742 Z M 15.0879 -40.7715 C 12.8418 -40.7715 11.9629 -41.6504 11.9629 -43.8965 L 11.9629 -63.4277 C 11.9629 -65.6738 12.8418 -66.5527 15.0879 -66.5527 L 53.5156 -66.5527 C 55.7617 -66.5527 56.6406 -65.6738 56.6406 -63.4277 L 56.6406 -43.8965 C 56.6406 -41.6504 55.7617 -40.7715 53.5156 -40.7715 Z M 81.3965 -6.83594 L 109.766 -6.83594 C 113.135 -6.83594 114.99 -8.34961 114.99 -12.0117 L 114.99 -57.7148 C 114.99 -61.377 113.135 -62.9395 109.766 -62.9395 L 81.3965 -62.9395 C 77.9785 -62.9395 76.1719 -61.377 76.1719 -57.7148 L 76.1719 -12.0117 C 76.1719 -8.34961 77.9785 -6.83594 81.3965 -6.83594 Z M 81.4941 -8.98438 C 79.248 -8.98438 78.3691 -9.91211 78.3691 -12.1582 L 78.3691 -57.5684 C 78.3691 -59.8633 79.248 -60.7422 81.4941 -60.7422 L 109.668 -60.7422 C 111.914 -60.7422 112.793 -59.8633 112.793 -57.5684 L 112.793 -12.1582 C 112.793 -9.91211 111.914 -8.98438 109.668 -8.98438 Z M 24.7559 -1.5625 L 58.4961 -1.5625 C 61.8652 -1.5625 63.7207 -3.125 63.7207 -6.78711 L 63.7207 -21.6797 C 63.7207 -25.293 61.8652 -26.8555 58.4961 -26.8555 L 24.7559 -26.8555 C 21.3379 -26.8555 19.5312 -25.293 19.5312 -21.6797 L 19.5312 -6.78711 C 19.5312 -3.125 21.3379 -1.5625 24.7559 -1.5625 Z M 24.8535 -3.75977 C 22.6074 -3.75977 21.7285 -4.63867 21.7285 -6.88477 L 21.7285 -21.5332 C 21.7285 -23.7793 22.6074 -24.6582 24.8535 -24.6582 L 58.3984 -24.6582 C 60.6445 -24.6582 61.5234 -23.7793 61.5234 -21.5332 L 61.5234 -6.88477 C 61.5234 -4.63867 60.6445 -3.75977 58.3984 -3.75977 Z"/>
  </g>
  <g id="Thin-S" transform="matrix(1 0 0 1 793.532 696)">
   <path d="M 15.9668 -38.1836 L 53.6621 -38.1836 C 57.7148 -38.1836 59.8633 -40.0879 59.8633 -44.3848 L 59.8633 -63.0371 C 59.8633 -67.334 57.7148 -69.2383 53.6621 -69.2383 L 15.9668 -69.2383 C 11.9141 -69.2383 9.76562 -67.334 9.76562 -63.0371 L 9.76562 -44.3848 C 9.76562 -40.0879 11.9141 -38.1836 15.9668 -38.1836 Z M 16.1621 -41.3574 C 13.916 -41.3574 12.9395 -42.334 12.9395 -44.6289 L 12.9395 -62.793 C 12.9395 -65.0879 13.916 -66.0156 16.1621 -66.0156 L 53.418 -66.0156 C 55.7129 -66.0156 56.6895 -65.0879 56.6895 -62.793 L 56.6895 -44.6289 C 56.6895 -42.334 55.7129 -41.3574 53.418 -41.3574 Z M 82.373 -6.29883 L 109.814 -6.29883 C 113.916 -6.29883 116.016 -8.20312 116.016 -12.5 L 116.016 -57.3242 C 116.016 -61.5723 113.916 -63.4766 109.814 -63.4766 L 82.373 -63.4766 C 78.3203 -63.4766 76.1719 -61.5723 76.1719 -57.3242 L 76.1719 -12.5 C 76.1719 -8.20312 78.3203 -6.29883 82.373 -6.29883 Z M 82.5684 -9.52148 C 80.3223 -9.52148 79.3457 -10.498 79.3457 -12.7441 L 79.3457 -57.0312 C 79.3457 -59.3262 80.3223 -60.3027 82.5684 -60.3027 L 109.619 -60.3027 C 111.865 -60.3027 112.842 -59.3262 112.842 -57.0312 L 112.842 -12.7441 C 112.842 -10.498 111.865 -9.52148 109.619 -9.52148 Z M 25.7324 -1.2207 L 58.4961 -1.2207 C 62.5488 -1.2207 64.6973 -3.125 64.6973 -7.37305 L 64.6973 -21.1426 C 64.6973 -25.3906 62.5488 -27.2949 58.4961 -27.2949 L 25.7324 -27.2949 C 21.6797 -27.2949 19.5312 -25.3906 19.5312 -21.1426 L 19.5312 -7.37305 C 19.5312 -3.125 21.6797 -1.2207 25.7324 -1.2207 Z M 25.9277 -4.39453 C 23.6816 -4.39453 22.7051 -5.37109 22.7051 -7.66602 L 22.7051 -20.8496 C 22.7051 -23.1445 23.6816 -24.1211 25.9277 -24.1211 L 58.252 -24.1211 C 60.5469 -24.1211 61.5234 -23.1445 61.5234 -20.8496 L 61.5234 -7.66602 C 61.5234 -5.37109 60.5469 -4.39453 58.252 -4.39453 Z"/>
  </g>
  <g id="Light-S" transform="matrix(1 0 0 1 1089.22 696)">
   <path d="M 17.9199 -37.4023 L 53.7598 -37.4023 C 59.1309 -37.4023 61.8652 -39.9902 61.8652 -45.5078 L 61.8652 -62.0605 C 61.8652 -67.4805 59.1309 -70.1172 53.7598 -70.1172 L 17.9199 -70.1172 C 12.5 -70.1172 9.76562 -67.4805 9.76562 -62.0605 L 9.76562 -45.5078 C 9.76562 -39.9902 12.5 -37.4023 17.9199 -37.4023 Z M 18.3105 -42.5293 C 16.0645 -42.5293 14.8926 -43.6523 14.8926 -45.9961 L 14.8926 -61.5234 C 14.8926 -63.916 16.0645 -64.9902 18.3105 -64.9902 L 53.3203 -64.9902 C 55.6152 -64.9902 56.7871 -63.916 56.7871 -61.5234 L 56.7871 -45.9961 C 56.7871 -43.6523 55.6152 -42.5293 53.3203 -42.5293 Z M 84.3262 -5.37109 L 109.912 -5.37109 C 115.332 -5.37109 118.066 -7.95898 118.066 -13.4277 L 118.066 -56.4941 C 118.066 -61.9629 115.332 -64.5508 109.912 -64.5508 L 84.3262 -64.5508 C 78.9062 -64.5508 76.1719 -61.9629 76.1719 -56.4941 L 76.1719 -13.4277 C 76.1719 -7.95898 78.9062 -5.37109 84.3262 -5.37109 Z M 84.7168 -10.4492 C 82.4707 -10.4492 81.2988 -11.6211 81.2988 -13.916 L 81.2988 -55.957 C 81.2988 -58.3496 82.4707 -59.4727 84.7168 -59.4727 L 109.521 -59.4727 C 111.768 -59.4727 112.939 -58.3496 112.939 -55.957 L 112.939 -13.916 C 112.939 -11.6211 111.768 -10.4492 109.521 -10.4492 Z M 27.6855 -0.488281 L 58.4961 -0.488281 C 63.916 -0.488281 66.6504 -3.07617 66.6504 -8.54492 L 66.6504 -20.1172 C 66.6504 -25.5371 63.916 -28.125 58.4961 -28.125 L 27.6855 -28.125 C 22.2656 -28.125 19.5312 -25.5371 19.5312 -20.1172 L 19.5312 -8.54492 C 19.5312 -3.07617 22.2656 -0.488281 27.6855 -0.488281 Z M 28.0762 -5.61523 C 25.8301 -5.61523 24.6582 -6.73828 24.6582 -9.08203 L 24.6582 -19.5801 C 24.6582 -21.9238 25.8301 -23.0469 28.0762 -23.0469 L 58.1055 -23.0469 C 60.3516 -23.0469 61.5234 -21.9238 61.5234 -19.5801 L 61.5234 -9.08203 C 61.5234 -6.73828 60.3516 -5.61523 58.1055 -5.61523 Z"/>
  </g>
  <g id="Regular-S" transform="matrix(1 0 0 1 1385.17 696)">
   <path d="M 19.3848 -36.8164 L 53.8086 -36.8164 C 60.2051 -36.8164 63.4277 -39.9414 63.4277 -46.3379 L 63.4277 -61.3281 C 63.4277 -67.627 60.2051 -70.8008 53.8086 -70.8008 L 19.3848 -70.8008 C 12.9395 -70.8008 9.76562 -67.627 9.76562 -61.3281 L 9.76562 -46.3379 C 9.76562 -39.9414 12.9395 -36.8164 19.3848 -36.8164 Z M 85.791 -4.63867 L 110.01 -4.63867 C 116.406 -4.63867 119.58 -7.76367 119.58 -14.1113 L 119.58 -55.9082 C 119.58 -62.2559 116.406 -65.3809 110.01 -65.3809 L 85.791 -65.3809 C 79.3457 -65.3809 76.1719 -62.2559 76.1719 -55.9082 L 76.1719 -14.1113 C 76.1719 -7.76367 79.3457 -4.63867 85.791 -4.63867 Z M 19.873 -43.4082 C 17.627 -43.4082 16.3574 -44.6289 16.3574 -47.0215 L 16.3574 -60.5469 C 16.3574 -62.9883 17.627 -64.209 19.873 -64.209 L 53.2227 -64.209 C 55.5176 -64.209 56.8359 -62.9883 56.8359 -60.5469 L 56.8359 -47.0215 C 56.8359 -44.6289 55.5176 -43.4082 53.2227 -43.4082 Z M 86.2793 -11.1816 C 84.0332 -11.1816 82.7637 -12.4512 82.7637 -14.8438 L 82.7637 -55.1758 C 82.7637 -57.6172 84.0332 -58.7891 86.2793 -58.7891 L 109.424 -58.7891 C 111.719 -58.7891 113.037 -57.6172 113.037 -55.1758 L 113.037 -14.8438 C 113.037 -12.4512 111.719 -11.1816 109.424 -11.1816 Z M 29.1504 0.0488281 L 58.4961 0.0488281 C 64.8926 0.0488281 68.1152 -3.07617 68.1152 -9.47266 L 68.1152 -19.3359 C 68.1152 -25.6836 64.8926 -28.8086 58.4961 -28.8086 L 29.1504 -28.8086 C 22.7051 -28.8086 19.5312 -25.6836 19.5312 -19.3359 L 19.5312 -9.47266 C 19.5312 -3.07617 22.7051 0.0488281 29.1504 0.0488281 Z M 29.6387 -6.54297 C 27.3926 -6.54297 26.123 -7.76367 26.123 -10.1562 L 26.123 -18.6035 C 26.123 -20.9961 27.3926 -22.2168 29.6387 -22.2168 L 57.959 -22.2168 C 60.2051 -22.2168 61.5234 -20.9961 61.5234 -18.6035 L 61.5234 -10.1562 C 61.5234 -7.76367 60.2051 -6.54297 57.959 -6.54297 Z"/>
  </g>
  <g id="Medium-S" transform="matrix(1 0 0 1 1681.44 696)">
   <path d="M 20.0684 -36.4746 L 53.8086 -36.4746 C 60.7422 -36.4746 64.1113 -39.7949 64.1113 -46.7285 L 64.1113 -61.1328 C 64.1113 -68.0176 60.7422 -71.3867 53.8086 -71.3867 L 20.0684 -71.3867 C 13.1348 -71.3867 9.76562 -68.0176 9.76562 -61.1328 L 9.76562 -46.7285 C 9.76562 -39.7949 13.1348 -36.4746 20.0684 -36.4746 Z M 86.3281 -3.80859 L 110.156 -3.80859 C 117.09 -3.80859 120.459 -7.12891 120.459 -14.0625 L 120.459 -55.8594 C 120.459 -62.7441 117.09 -66.0645 110.156 -66.0645 L 86.3281 -66.0645 C 79.3457 -66.0645 75.9766 -62.7441 75.9766 -55.8594 L 75.9766 -14.0625 C 75.9766 -7.12891 79.3457 -3.80859 86.3281 -3.80859 Z M 20.459 -43.9941 C 18.4082 -43.9941 17.2852 -45.1172 17.2852 -47.2656 L 17.2852 -60.5957 C 17.2852 -62.793 18.4082 -63.8184 20.459 -63.8184 L 53.3691 -63.8184 C 55.4688 -63.8184 56.5918 -62.793 56.5918 -60.5957 L 56.5918 -47.2656 C 56.5918 -45.1172 55.4688 -43.9941 53.3691 -43.9941 Z M 86.6699 -11.3281 C 84.668 -11.3281 83.4961 -12.4512 83.4961 -14.5996 L 83.4961 -55.3223 C 83.4961 -57.5195 84.668 -58.5449 86.6699 -58.5449 L 109.717 -58.5449 C 111.816 -58.5449 112.939 -57.5195 112.939 -55.3223 L 112.939 -14.5996 C 112.939 -12.4512 111.816 -11.3281 109.717 -11.3281 Z M 29.1992 0.732422 L 58.3008 0.732422 C 65.2832 0.732422 68.6523 -2.63672 68.6523 -9.57031 L 68.6523 -18.8965 C 68.6523 -25.7812 65.2832 -29.1504 58.3008 -29.1504 L 29.1992 -29.1504 C 22.2168 -29.1504 18.8477 -25.7812 18.8477 -18.8965 L 18.8477 -9.57031 C 18.8477 -2.63672 22.2168 0.732422 29.1992 0.732422 Z M 29.541 -6.83594 C 27.4902 -6.83594 26.3672 -7.91016 26.3672 -10.0586 L 26.3672 -18.3594 C 26.3672 -20.5566 27.4902 -21.582 29.541 -21.582 L 57.9102 -21.582 C 60.0098 -21.582 61.1328 -20.5566 61.1328 -18.3594 L 61.1328 -10.0586 C 61.1328 -7.91016 60.0098 -6.83594 57.9102 -6.83594 Z"/>
  </g>
  <g id="Semibold-S" transform="matrix(1 0 0 1 1977.81 696)">
   <path d="M 20.6543 -36.2305 L 53.8086 -36.2305 C 61.1816 -36.2305 64.6973 -39.6973 64.6973 -47.0703 L 64.6973 -61.0352 C 64.6973 -68.3105 61.1816 -71.8262 53.8086 -71.8262 L 20.6543 -71.8262 C 13.2812 -71.8262 9.76562 -68.3105 9.76562 -61.0352 L 9.76562 -47.0703 C 9.76562 -39.6973 13.2812 -36.2305 20.6543 -36.2305 Z M 86.7188 -3.17383 L 110.254 -3.17383 C 117.627 -3.17383 121.143 -6.68945 121.143 -14.0137 L 121.143 -55.8105 C 121.143 -63.1348 117.627 -66.6016 110.254 -66.6016 L 86.7188 -66.6016 C 79.3457 -66.6016 75.8301 -63.1348 75.8301 -55.8105 L 75.8301 -14.0137 C 75.8301 -6.68945 79.3457 -3.17383 86.7188 -3.17383 Z M 20.8984 -44.4824 C 18.9941 -44.4824 18.0176 -45.459 18.0176 -47.4121 L 18.0176 -60.5957 C 18.0176 -62.5977 18.9941 -63.5742 20.8984 -63.5742 L 53.5156 -63.5742 C 55.4199 -63.5742 56.4453 -62.5977 56.4453 -60.5957 L 56.4453 -47.4121 C 56.4453 -45.459 55.4199 -44.4824 53.5156 -44.4824 Z M 87.0117 -11.4258 C 85.1074 -11.4258 84.082 -12.4023 84.082 -14.4043 L 84.082 -55.4199 C 84.082 -57.4219 85.1074 -58.3496 87.0117 -58.3496 L 109.961 -58.3496 C 111.865 -58.3496 112.891 -57.4219 112.891 -55.4199 L 112.891 -14.4043 C 112.891 -12.4023 111.865 -11.4258 109.961 -11.4258 Z M 29.1992 1.2207 L 58.1543 1.2207 C 65.5273 1.2207 69.043 -2.24609 69.043 -9.61914 L 69.043 -18.6035 C 69.043 -25.9277 65.5273 -29.3945 58.1543 -29.3945 L 29.1992 -29.3945 C 21.875 -29.3945 18.3594 -25.9277 18.3594 -18.6035 L 18.3594 -9.61914 C 18.3594 -2.24609 21.875 1.2207 29.1992 1.2207 Z M 29.4922 -7.03125 C 27.5879 -7.03125 26.6113 -8.00781 26.6113 -9.96094 L 26.6113 -18.1641 C 26.6113 -20.166 27.5879 -21.1426 29.4922 -21.1426 L 57.9102 -21.1426 C 59.8145 -21.1426 60.791 -20.166 60.791 -18.1641 L 60.791 -9.96094 C 60.791 -8.00781 59.8145 -7.03125 57.9102 -7.03125 Z"/>
  </g>
  <g id="Bold-S" transform="matrix(1 0 0 1 2274.08 696)">
   <path d="M 21.3867 -35.8887 L 53.8086 -35.8887 C 61.7188 -35.8887 65.4297 -39.5508 65.4297 -47.4609 L 65.4297 -60.8398 C 65.4297 -68.7012 61.7188 -72.4121 53.8086 -72.4121 L 21.3867 -72.4121 C 13.4766 -72.4121 9.76562 -68.7012 9.76562 -60.8398 L 9.76562 -47.4609 C 9.76562 -39.5508 13.4766 -35.8887 21.3867 -35.8887 Z M 87.2559 -2.39258 L 110.4 -2.39258 C 118.311 -2.39258 122.021 -6.05469 122.021 -13.9648 L 122.021 -55.7617 C 122.021 -63.6719 118.311 -67.334 110.4 -67.334 L 87.2559 -67.334 C 79.3945 -67.334 75.6836 -63.6719 75.6836 -55.7617 L 75.6836 -13.9648 C 75.6836 -6.05469 79.3945 -2.39258 87.2559 -2.39258 Z M 21.4844 -45.1172 C 19.8242 -45.1172 18.9453 -45.8984 18.9453 -47.6562 L 18.9453 -60.6445 C 18.9453 -62.4023 19.8242 -63.1836 21.4844 -63.1836 L 53.6621 -63.1836 C 55.3711 -63.1836 56.2012 -62.4023 56.2012 -60.6445 L 56.2012 -47.6562 C 56.2012 -45.8984 55.3711 -45.1172 53.6621 -45.1172 Z M 87.4023 -11.5723 C 85.6934 -11.5723 84.8633 -12.4023 84.8633 -14.1113 L 84.8633 -55.5664 C 84.8633 -57.3242 85.6934 -58.1055 87.4023 -58.1055 L 110.254 -58.1055 C 111.963 -58.1055 112.793 -57.3242 112.793 -55.5664 L 112.793 -14.1113 C 112.793 -12.4023 111.963 -11.5723 110.254 -11.5723 Z M 29.248 1.85547 L 58.0078 1.85547 C 65.918 1.85547 69.5801 -1.80664 69.5801 -9.7168 L 69.5801 -18.1641 C 69.5801 -26.0254 65.918 -29.7363 58.0078 -29.7363 L 29.248 -29.7363 C 21.3379 -29.7363 17.6758 -26.0254 17.6758 -18.1641 L 17.6758 -9.7168 C 17.6758 -1.80664 21.3379 1.85547 29.248 1.85547 Z M 29.3945 -7.32422 C 27.6855 -7.32422 26.8555 -8.1543 26.8555 -9.86328 L 26.8555 -17.9688 C 26.8555 -19.7266 27.6855 -20.5078 29.3945 -20.5078 L 57.8613 -20.5078 C 59.5703 -20.5078 60.4004 -19.7266 60.4004 -17.9688 L 60.4004 -9.86328 C 60.4004 -8.1543 59.5703 -7.32422 57.8613 -7.32422 Z"/>
  </g>
  <g id="Heavy-S" transform="matrix(1 0 0 1 2570.16 696)">
   <path d="M 22.4121 -35.4004 L 53.8086 -35.4004 C 62.5 -35.4004 66.4551 -39.3555 66.4551 -48.0469 L 66.4551 -60.5957 C 66.4551 -69.2871 62.5 -73.2422 53.8086 -73.2422 L 22.4121 -73.2422 C 13.7207 -73.2422 9.76562 -69.2871 9.76562 -60.5957 L 9.76562 -48.0469 C 9.76562 -39.3555 13.7207 -35.4004 22.4121 -35.4004 Z M 88.0859 -1.17188 L 110.645 -1.17188 C 119.336 -1.17188 123.291 -5.12695 123.291 -13.8672 L 123.291 -55.7129 C 123.291 -64.4043 119.336 -68.3594 110.645 -68.3594 L 88.0859 -68.3594 C 79.3945 -68.3594 75.3906 -64.4043 75.3906 -55.7129 L 75.3906 -13.8672 C 75.3906 -5.12695 79.3945 -1.17188 88.0859 -1.17188 Z M 22.3633 -45.9961 C 20.9473 -45.9961 20.3613 -46.582 20.3613 -47.998 L 20.3613 -60.6934 C 20.3613 -62.0605 20.9473 -62.6465 22.3633 -62.6465 L 53.9062 -62.6465 C 55.2734 -62.6465 55.8594 -62.0605 55.8594 -60.6934 L 55.8594 -47.998 C 55.8594 -46.582 55.2734 -45.9961 53.9062 -45.9961 Z M 87.9883 -11.7676 C 86.5723 -11.7676 85.9863 -12.3535 85.9863 -13.7695 L 85.9863 -55.7617 C 85.9863 -57.1777 86.5723 -57.7637 87.9883 -57.7637 L 110.693 -57.7637 C 112.109 -57.7637 112.695 -57.1777 112.695 -55.7617 L 112.695 -13.7695 C 112.695 -12.3535 112.109 -11.7676 110.693 -11.7676 Z M 29.3457 2.83203 L 57.7148 2.83203 C 66.4062 2.83203 70.4102 -1.12305 70.4102 -9.81445 L 70.4102 -17.5293 C 70.4102 -26.2695 66.4062 -30.2246 57.7148 -30.2246 L 29.3457 -30.2246 C 20.6543 -30.2246 16.6504 -26.2695 16.6504 -17.5293 L 16.6504 -9.81445 C 16.6504 -1.12305 20.6543 2.83203 29.3457 2.83203 Z M 29.248 -7.76367 C 27.8809 -7.76367 27.2461 -8.34961 27.2461 -9.7168 L 27.2461 -17.627 C 27.2461 -19.043 27.8809 -19.6289 29.248 -19.6289 L 57.8125 -19.6289 C 59.2285 -19.6289 59.8145 -19.043 59.8145 -17.627 L 59.8145 -9.7168 C 59.8145 -8.34961 59.2285 -7.76367 57.8125 -7.76367 Z"/>
  </g>
  <g id="Black-S" transform="matrix(1 0 0 1 2866.31 696)">
   <path d="M 23.3887 -34.9609 L 53.8086 -34.9609 C 63.2324 -34.9609 67.4316 -39.209 67.4316 -48.584 L 67.4316 -60.3516 C 67.4316 -69.7754 63.2324 -74.0234 53.8086 -74.0234 L 23.3887 -74.0234 C 13.9648 -74.0234 9.76562 -69.7754 9.76562 -60.3516 L 9.76562 -48.584 C 9.76562 -39.209 13.9648 -34.9609 23.3887 -34.9609 Z M 88.7695 -0.146484 L 110.84 -0.146484 C 120.215 -0.146484 124.414 -4.3457 124.414 -13.7695 L 124.414 -55.6152 C 124.414 -65.0391 120.215 -69.2871 110.84 -69.2871 L 88.7695 -69.2871 C 79.3945 -69.2871 75.1953 -65.0391 75.1953 -55.6152 L 75.1953 -13.7695 C 75.1953 -4.3457 79.3945 -0.146484 88.7695 -0.146484 Z M 23.0957 -46.7773 C 21.9727 -46.7773 21.582 -47.2168 21.582 -48.291 L 21.582 -60.6934 C 21.582 -61.7676 21.9727 -62.207 23.0957 -62.207 L 54.1016 -62.207 C 55.2246 -62.207 55.5664 -61.7676 55.5664 -60.6934 L 55.5664 -48.291 C 55.5664 -47.2168 55.2246 -46.7773 54.1016 -46.7773 Z M 88.5254 -11.9629 C 87.4023 -11.9629 87.0117 -12.3535 87.0117 -13.4277 L 87.0117 -55.957 C 87.0117 -57.0312 87.4023 -57.4219 88.5254 -57.4219 L 111.133 -57.4219 C 112.207 -57.4219 112.598 -57.0312 112.598 -55.957 L 112.598 -13.4277 C 112.598 -12.3535 112.207 -11.9629 111.133 -11.9629 Z M 29.3945 3.71094 L 57.5195 3.71094 C 66.8945 3.71094 71.0938 -0.537109 71.0938 -9.91211 L 71.0938 -16.9922 C 71.0938 -26.416 66.8945 -30.6641 57.5195 -30.6641 L 29.3945 -30.6641 C 20.0195 -30.6641 15.7715 -26.416 15.7715 -16.9922 L 15.7715 -9.91211 C 15.7715 -0.537109 20.0195 3.71094 29.3945 3.71094 Z M 29.1016 -8.10547 C 27.9785 -8.10547 27.6367 -8.54492 27.6367 -9.61914 L 27.6367 -17.334 C 27.6367 -18.4082 27.9785 -18.8477 29.1016 -18.8477 L 57.7637 -18.8477 C 58.8867 -18.8477 59.2773 -18.4082 59.2773 -17.334 L 59.2773 -9.61914 C 59.2773 -8.54492 58.8867 -8.10547 57.7637 -8.10547 Z"/>
  </g>
  <g id="Ultralight-M" transform="matrix(1 0 0 1 480.292 1126)">
   <path d="M 18.75 -39.6484 L 68.4082 -39.6484 C 72.4609 -39.6484 74.707 -41.5039 74.707 -45.9473 L 74.707 -71.582 C 74.707 -76.0254 72.4609 -77.832 68.4082 -77.832 L 18.75 -77.832 C 14.6973 -77.832 12.4512 -76.0254 12.4512 -71.582 L 12.4512 -45.9473 C 12.4512 -41.5039 14.6973 -39.6484 18.75 -39.6484 Z M 18.8477 -42.041 C 15.9668 -42.041 14.8438 -43.1641 14.8438 -46.0449 L 14.8438 -71.4844 C 14.8438 -74.3164 15.9668 -75.4395 18.8477 -75.4395 L 68.3105 -75.4395 C 71.1914 -75.4395 72.3145 -74.3164 72.3145 -71.4844 L 72.3145 -46.0449 C 72.3145 -43.1641 71.1914 -42.041 68.3105 -42.041 Z M 103.516 0.830078 L 140.088 0.830078 C 144.141 0.830078 146.387 -0.976562 146.387 -5.41992 L 146.387 -64.1113 C 146.387 -68.5059 144.141 -70.3613 140.088 -70.3613 L 103.516 -70.3613 C 99.4629 -70.3613 97.2168 -68.5059 97.2168 -64.1113 L 97.2168 -5.41992 C 97.2168 -0.976562 99.4629 0.830078 103.516 0.830078 Z M 103.613 -1.5625 C 100.732 -1.5625 99.6094 -2.68555 99.6094 -5.51758 L 99.6094 -63.9648 C 99.6094 -66.8457 100.732 -67.9688 103.613 -67.9688 L 139.99 -67.9688 C 142.871 -67.9688 143.945 -66.8457 143.945 -63.9648 L 143.945 -5.51758 C 143.945 -2.68555 142.871 -1.5625 139.99 -1.5625 Z M 31.2012 7.56836 L 74.6582 7.56836 C 78.7109 7.56836 80.9082 5.76172 80.9082 1.31836 L 80.9082 -18.1152 C 80.9082 -22.5586 78.7109 -24.3652 74.6582 -24.3652 L 31.2012 -24.3652 C 27.1484 -24.3652 24.9512 -22.5586 24.9512 -18.1152 L 24.9512 1.31836 C 24.9512 5.76172 27.1484 7.56836 31.2012 7.56836 Z M 31.2988 5.17578 C 28.4668 5.17578 27.3438 4.05273 27.3438 1.2207 L 27.3438 -18.0176 C 27.3438 -20.8496 28.4668 -21.9727 31.2988 -21.9727 L 74.5605 -21.9727 C 77.3926 -21.9727 78.5156 -20.8496 78.5156 -18.0176 L 78.5156 1.2207 C 78.5156 4.05273 77.3926 5.17578 74.5605 5.17578 Z"/>
  </g>
  <g id="Thin-M" transform="matrix(1 0 0 1 776.417 1126)">
   <path d="M 19.873 -39.209 L 68.457 -39.209 C 73.291 -39.209 75.8789 -41.4551 75.8789 -46.582 L 75.8789 -70.9961 C 75.8789 -76.123 73.291 -78.3691 68.457 -78.3691 L 19.873 -78.3691 C 15.0391 -78.3691 12.4512 -76.123 12.4512 -70.9961 L 12.4512 -46.582 C 12.4512 -41.4551 15.0391 -39.209 19.873 -39.209 Z M 20.0684 -42.7246 C 17.1875 -42.7246 15.9668 -43.9453 15.9668 -46.8262 L 15.9668 -70.752 C 15.9668 -73.6328 17.1875 -74.8535 20.0684 -74.8535 L 68.2617 -74.8535 C 71.1426 -74.8535 72.3145 -73.6328 72.3145 -70.752 L 72.3145 -46.8262 C 72.3145 -43.9453 71.1426 -42.7246 68.2617 -42.7246 Z M 104.59 1.41602 L 140.137 1.41602 C 144.971 1.41602 147.559 -0.830078 147.559 -5.95703 L 147.559 -63.623 C 147.559 -68.75 144.971 -70.9961 140.137 -70.9961 L 104.59 -70.9961 C 99.8047 -70.9961 97.2168 -68.75 97.2168 -63.623 L 97.2168 -5.95703 C 97.2168 -0.830078 99.8047 1.41602 104.59 1.41602 Z M 104.834 -2.09961 C 101.953 -2.09961 100.732 -3.32031 100.732 -6.20117 L 100.732 -63.3789 C 100.732 -66.2598 101.953 -67.4805 104.834 -67.4805 L 139.941 -67.4805 C 142.822 -67.4805 144.043 -66.2598 144.043 -63.3789 L 144.043 -6.20117 C 144.043 -3.32031 142.822 -2.09961 139.941 -2.09961 Z M 32.3242 8.00781 L 74.6582 8.00781 C 79.4922 8.00781 82.0312 5.76172 82.0312 0.634766 L 82.0312 -17.5293 C 82.0312 -22.6074 79.4922 -24.8535 74.6582 -24.8535 L 32.3242 -24.8535 C 27.4902 -24.8535 24.9512 -22.6074 24.9512 -17.5293 L 24.9512 0.634766 C 24.9512 5.76172 27.4902 8.00781 32.3242 8.00781 Z M 32.5195 4.49219 C 29.6875 4.49219 28.4668 3.27148 28.4668 0.390625 L 28.4668 -17.2363 C 28.4668 -20.166 29.6875 -21.3379 32.5195 -21.3379 L 74.4141 -21.3379 C 77.2949 -21.3379 78.5156 -20.166 78.5156 -17.2363 L 78.5156 0.390625 C 78.5156 3.27148 77.2949 4.49219 74.4141 4.49219 Z"/>
  </g>
  <g id="Light-M" transform="matrix(1 0 0 1 1071.98 1126)">
   <path d="M 22.0215 -38.3301 L 68.5547 -38.3301 C 74.9023 -38.3301 78.125 -41.3574 78.125 -47.8516 L 78.125 -69.873 C 78.125 -76.3672 74.9023 -79.3945 68.5547 -79.3945 L 22.0215 -79.3945 C 15.7227 -79.3945 12.4512 -76.3672 12.4512 -69.873 L 12.4512 -47.8516 C 12.4512 -41.3574 15.7227 -38.3301 22.0215 -38.3301 Z M 22.4609 -44.043 C 19.5801 -44.043 18.1641 -45.4102 18.1641 -48.3887 L 18.1641 -69.3359 C 18.1641 -72.3145 19.5801 -73.6328 22.4609 -73.6328 L 68.1152 -73.6328 C 70.9961 -73.6328 72.4121 -72.3145 72.4121 -69.3359 L 72.4121 -48.3887 C 72.4121 -45.4102 70.9961 -44.043 68.1152 -44.043 Z M 106.787 2.49023 L 140.283 2.49023 C 146.582 2.49023 149.854 -0.537109 149.854 -7.03125 L 149.854 -62.7441 C 149.854 -69.1895 146.582 -72.2168 140.283 -72.2168 L 106.787 -72.2168 C 100.488 -72.2168 97.2168 -69.1895 97.2168 -62.7441 L 97.2168 -7.03125 C 97.2168 -0.537109 100.488 2.49023 106.787 2.49023 Z M 107.227 -3.22266 C 104.346 -3.22266 102.93 -4.58984 102.93 -7.56836 L 102.93 -62.1582 C 102.93 -65.1367 104.346 -66.5039 107.227 -66.5039 L 139.795 -66.5039 C 142.725 -66.5039 144.141 -65.1367 144.141 -62.1582 L 144.141 -7.56836 C 144.141 -4.58984 142.725 -3.22266 139.795 -3.22266 Z M 34.5215 8.78906 L 74.6582 8.78906 C 81.0059 8.78906 84.2285 5.76172 84.2285 -0.683594 L 84.2285 -16.3574 C 84.2285 -22.8027 81.0059 -25.8301 74.6582 -25.8301 L 34.5215 -25.8301 C 28.1738 -25.8301 24.9512 -22.8027 24.9512 -16.3574 L 24.9512 -0.683594 C 24.9512 5.76172 28.1738 8.78906 34.5215 8.78906 Z M 34.9121 3.07617 C 32.0801 3.07617 30.6641 1.70898 30.6641 -1.26953 L 30.6641 -15.7715 C 30.6641 -18.75 32.0801 -20.1172 34.9121 -20.1172 L 74.2188 -20.1172 C 77.0996 -20.1172 78.5156 -18.75 78.5156 -15.7715 L 78.5156 -1.26953 C 78.5156 1.70898 77.0996 3.07617 74.2188 3.07617 Z"/>
  </g>
  <g id="Regular-M" transform="matrix(1 0 0 1 1367.81 1126)">
   <path d="M 23.6816 -37.6953 L 68.6035 -37.6953 C 76.123 -37.6953 79.8828 -41.3086 79.8828 -48.8281 L 79.8828 -69.043 C 79.8828 -76.5137 76.123 -80.127 68.6035 -80.127 L 23.6816 -80.127 C 16.2109 -80.127 12.4512 -76.5137 12.4512 -69.043 L 12.4512 -48.8281 C 12.4512 -41.3086 16.2109 -37.6953 23.6816 -37.6953 Z M 108.447 3.32031 L 140.332 3.32031 C 147.852 3.32031 151.562 -0.292969 151.562 -7.8125 L 151.562 -62.0605 C 151.562 -69.5312 147.852 -73.1445 140.332 -73.1445 L 108.447 -73.1445 C 100.977 -73.1445 97.2168 -69.5312 97.2168 -62.0605 L 97.2168 -7.8125 C 97.2168 -0.292969 100.977 3.32031 108.447 3.32031 Z M 24.2676 -45.0684 C 21.3867 -45.0684 19.8242 -46.5332 19.8242 -49.5605 L 19.8242 -68.2129 C 19.8242 -71.2891 21.3867 -72.7539 24.2676 -72.7539 L 68.0176 -72.7539 C 70.9473 -72.7539 72.5098 -71.2891 72.5098 -68.2129 L 72.5098 -49.5605 C 72.5098 -46.5332 70.9473 -45.0684 68.0176 -45.0684 Z M 109.033 -4.05273 C 106.152 -4.05273 104.59 -5.56641 104.59 -8.59375 L 104.59 -61.2305 C 104.59 -64.3066 106.152 -65.7715 109.033 -65.7715 L 139.746 -65.7715 C 142.676 -65.7715 144.189 -64.3066 144.189 -61.2305 L 144.189 -8.59375 C 144.189 -5.56641 142.676 -4.05273 139.746 -4.05273 Z M 36.1816 9.42383 L 74.6582 9.42383 C 82.1289 9.42383 85.8887 5.81055 85.8887 -1.70898 L 85.8887 -15.4785 C 85.8887 -22.9492 82.1289 -26.5625 74.6582 -26.5625 L 36.1816 -26.5625 C 28.6621 -26.5625 24.9512 -22.9492 24.9512 -15.4785 L 24.9512 -1.70898 C 24.9512 5.81055 28.6621 9.42383 36.1816 9.42383 Z M 36.7188 2.05078 C 33.8867 2.05078 32.3242 0.537109 32.3242 -2.49023 L 32.3242 -14.6484 C 32.3242 -17.7246 33.8867 -19.1895 36.7188 -19.1895 L 74.0723 -19.1895 C 76.9531 -19.1895 78.5156 -17.7246 78.5156 -14.6484 L 78.5156 -2.49023 C 78.5156 0.537109 76.9531 2.05078 74.0723 2.05078 Z"/>
  </g>
  <g id="Medium-M" transform="matrix(1 0 0 1 1663.99 1126)">
   <path d="M 24.6582 -37.2559 L 68.6523 -37.2559 C 76.8066 -37.2559 80.8105 -41.1621 80.8105 -49.3652 L 80.8105 -68.75 C 80.8105 -76.9043 76.8066 -80.8105 68.6523 -80.8105 L 24.6582 -80.8105 C 16.4551 -80.8105 12.4512 -76.9043 12.4512 -68.75 L 12.4512 -49.3652 C 12.4512 -41.1621 16.4551 -37.2559 24.6582 -37.2559 Z M 109.229 4.24805 L 140.527 4.24805 C 148.682 4.24805 152.686 0.341797 152.686 -7.86133 L 152.686 -61.9141 C 152.686 -70.0684 148.682 -73.9746 140.527 -73.9746 L 109.229 -73.9746 C 101.025 -73.9746 97.0215 -70.0684 97.0215 -61.9141 L 97.0215 -7.86133 C 97.0215 0.341797 101.025 4.24805 109.229 4.24805 Z M 25.0488 -45.8008 C 22.4121 -45.8008 20.9961 -47.168 20.9961 -49.9512 L 20.9961 -68.1152 C 20.9961 -70.9473 22.4121 -72.2656 25.0488 -72.2656 L 68.1641 -72.2656 C 70.8496 -72.2656 72.2656 -70.9473 72.2656 -68.1152 L 72.2656 -49.9512 C 72.2656 -47.168 70.8496 -45.8008 68.1641 -45.8008 Z M 109.668 -4.29688 C 106.982 -4.29688 105.566 -5.66406 105.566 -8.44727 L 105.566 -61.2793 C 105.566 -64.1113 106.982 -65.4297 109.668 -65.4297 L 140.039 -65.4297 C 142.725 -65.4297 144.141 -64.1113 144.141 -61.2793 L 144.141 -8.44727 C 144.141 -5.66406 142.725 -4.29688 140.039 -4.29688 Z M 36.4258 10.1562 L 74.4629 10.1562 C 82.666 10.1562 86.6699 6.25 86.6699 -1.9043 L 86.6699 -14.9414 C 86.6699 -23.0957 82.666 -27.002 74.4629 -27.002 L 36.4258 -27.002 C 28.2227 -27.002 24.2188 -23.0957 24.2188 -14.9414 L 24.2188 -1.9043 C 24.2188 6.25 28.2227 10.1562 36.4258 10.1562 Z M 36.8652 1.61133 C 34.1797 1.61133 32.7637 0.244141 32.7637 -2.53906 L 32.7637 -14.3066 C 32.7637 -17.1387 34.1797 -18.457 36.8652 -18.457 L 74.0234 -18.457 C 76.709 -18.457 78.125 -17.1387 78.125 -14.3066 L 78.125 -2.53906 C 78.125 0.244141 76.709 1.61133 74.0234 1.61133 Z"/>
  </g>
  <g id="Semibold-M" transform="matrix(1 0 0 1 1960.28 1126)">
   <path d="M 25.3418 -36.9141 L 68.6523 -36.9141 C 77.3438 -36.9141 81.543 -41.0156 81.543 -49.7559 L 81.543 -68.5547 C 81.543 -77.2461 77.3438 -81.3477 68.6523 -81.3477 L 25.3418 -81.3477 C 16.6504 -81.3477 12.4512 -77.2461 12.4512 -68.5547 L 12.4512 -49.7559 C 12.4512 -41.0156 16.6504 -36.9141 25.3418 -36.9141 Z M 109.766 4.98047 L 140.625 4.98047 C 149.316 4.98047 153.516 0.878906 153.516 -7.86133 L 153.516 -61.8164 C 153.516 -70.5078 149.316 -74.6094 140.625 -74.6094 L 109.766 -74.6094 C 101.074 -74.6094 96.9238 -70.5078 96.9238 -61.8164 L 96.9238 -7.86133 C 96.9238 0.878906 101.074 4.98047 109.766 4.98047 Z M 25.6836 -46.3379 C 23.1934 -46.3379 21.875 -47.6074 21.875 -50.2441 L 21.875 -68.0664 C 21.875 -70.7031 23.1934 -71.9238 25.6836 -71.9238 L 68.2617 -71.9238 C 70.8008 -71.9238 72.1191 -70.7031 72.1191 -68.0664 L 72.1191 -50.2441 C 72.1191 -47.6074 70.8008 -46.3379 68.2617 -46.3379 Z M 110.107 -4.44336 C 107.617 -4.44336 106.348 -5.71289 106.348 -8.34961 L 106.348 -61.3281 C 106.348 -63.9648 107.617 -65.1855 110.107 -65.1855 L 140.283 -65.1855 C 142.773 -65.1855 144.092 -63.9648 144.092 -61.3281 L 144.092 -8.34961 C 144.092 -5.71289 142.773 -4.44336 140.283 -4.44336 Z M 36.6211 10.7422 L 74.3164 10.7422 C 83.0078 10.7422 87.207 6.64062 87.207 -2.09961 L 87.207 -14.5508 C 87.207 -23.1934 83.0078 -27.3438 74.3164 -27.3438 L 36.6211 -27.3438 C 27.9297 -27.3438 23.7305 -23.1934 23.7305 -14.5508 L 23.7305 -2.09961 C 23.7305 6.64062 27.9297 10.7422 36.6211 10.7422 Z M 36.9141 1.31836 C 34.4238 1.31836 33.1543 0.0488281 33.1543 -2.53906 L 33.1543 -14.0137 C 33.1543 -16.6504 34.4238 -17.8711 36.9141 -17.8711 L 73.9746 -17.8711 C 76.5137 -17.8711 77.7832 -16.6504 77.7832 -14.0137 L 77.7832 -2.53906 C 77.7832 0.0488281 76.5137 1.31836 73.9746 1.31836 Z"/>
  </g>
  <g id="Bold-M" transform="matrix(1 0 0 1 2256.43 1126)">
   <path d="M 26.2695 -36.5234 L 68.6523 -36.5234 C 78.0273 -36.5234 82.4707 -40.8691 82.4707 -50.293 L 82.4707 -68.2617 C 82.4707 -77.6855 78.0273 -82.0312 68.6523 -82.0312 L 26.2695 -82.0312 C 16.8945 -82.0312 12.4512 -77.6855 12.4512 -68.2617 L 12.4512 -50.293 C 12.4512 -40.8691 16.8945 -36.5234 26.2695 -36.5234 Z M 110.547 5.9082 L 140.82 5.9082 C 150.195 5.9082 154.639 1.51367 154.639 -7.86133 L 154.639 -61.6699 C 154.639 -71.0449 150.195 -75.4395 140.82 -75.4395 L 110.547 -75.4395 C 101.172 -75.4395 96.7285 -71.0449 96.7285 -61.6699 L 96.7285 -7.86133 C 96.7285 1.51367 101.172 5.9082 110.547 5.9082 Z M 26.5137 -47.1191 C 24.2188 -47.1191 23.0469 -48.2422 23.0469 -50.5859 L 23.0469 -67.9688 C 23.0469 -70.3613 24.2188 -71.4355 26.5137 -71.4355 L 68.4082 -71.4355 C 70.752 -71.4355 71.875 -70.3613 71.875 -67.9688 L 71.875 -50.5859 C 71.875 -48.2422 70.752 -47.1191 68.4082 -47.1191 Z M 110.742 -4.6875 C 108.447 -4.6875 107.324 -5.81055 107.324 -8.20312 L 107.324 -61.377 C 107.324 -63.7207 108.447 -64.8438 110.742 -64.8438 L 140.576 -64.8438 C 142.871 -64.8438 144.043 -63.7207 144.043 -61.377 L 144.043 -8.20312 C 144.043 -5.81055 142.871 -4.6875 140.576 -4.6875 Z M 36.8652 11.4746 L 74.1699 11.4746 C 83.5449 11.4746 87.9883 7.12891 87.9883 -2.29492 L 87.9883 -14.0137 C 87.9883 -23.3887 83.5449 -27.7344 74.1699 -27.7344 L 36.8652 -27.7344 C 27.4414 -27.7344 22.998 -23.3887 22.998 -14.0137 L 22.998 -2.29492 C 22.998 7.12891 27.4414 11.4746 36.8652 11.4746 Z M 37.0605 0.878906 C 34.7656 0.878906 33.5938 -0.244141 33.5938 -2.58789 L 33.5938 -13.6719 C 33.5938 -16.0645 34.7656 -17.1387 37.0605 -17.1387 L 73.9258 -17.1387 C 76.2207 -17.1387 77.3926 -16.0645 77.3926 -13.6719 L 77.3926 -2.58789 C 77.3926 -0.244141 76.2207 0.878906 73.9258 0.878906 Z"/>
  </g>
  <g id="Heavy-M" transform="matrix(1 0 0 1 2552.34 1126)">
   <path d="M 27.6855 -35.8887 L 68.6523 -35.8887 C 79.0527 -35.8887 83.8867 -40.6738 83.8867 -51.0742 L 83.8867 -67.8711 C 83.8867 -78.2715 79.0527 -83.0566 68.6523 -83.0566 L 27.6855 -83.0566 C 17.2852 -83.0566 12.4512 -78.2715 12.4512 -67.8711 L 12.4512 -51.0742 C 12.4512 -40.6738 17.2852 -35.8887 27.6855 -35.8887 Z M 111.621 7.27539 L 141.016 7.27539 C 151.416 7.27539 156.25 2.49023 156.25 -7.91016 L 156.25 -61.4746 C 156.25 -71.875 151.416 -76.6602 141.016 -76.6602 L 111.621 -76.6602 C 101.27 -76.6602 96.4355 -71.875 96.4355 -61.4746 L 96.4355 -7.91016 C 96.4355 2.49023 101.27 7.27539 111.621 7.27539 Z M 27.6855 -48.1934 C 25.6836 -48.1934 24.7559 -49.1211 24.7559 -51.123 L 24.7559 -67.8223 C 24.7559 -69.8242 25.6836 -70.752 27.6855 -70.752 L 68.6523 -70.752 C 70.6543 -70.752 71.5332 -69.8242 71.5332 -67.8223 L 71.5332 -51.123 C 71.5332 -49.1211 70.6543 -48.1934 68.6523 -48.1934 Z M 111.67 -5.0293 C 109.668 -5.0293 108.74 -5.95703 108.74 -7.95898 L 108.74 -61.4258 C 108.74 -63.4277 109.668 -64.3555 111.67 -64.3555 L 141.016 -64.3555 C 143.018 -64.3555 143.945 -63.4277 143.945 -61.4258 L 143.945 -7.95898 C 143.945 -5.95703 143.018 -5.0293 141.016 -5.0293 Z M 37.207 12.5977 L 73.877 12.5977 C 84.2773 12.5977 89.0625 7.8125 89.0625 -2.58789 L 89.0625 -13.2324 C 89.0625 -23.584 84.2773 -28.3691 73.877 -28.3691 L 37.207 -28.3691 C 26.8066 -28.3691 22.0215 -23.584 22.0215 -13.2324 L 22.0215 -2.58789 C 22.0215 7.8125 26.8066 12.5977 37.207 12.5977 Z M 37.207 0.292969 C 35.2539 0.292969 34.3262 -0.634766 34.3262 -2.63672 L 34.3262 -13.1348 C 34.3262 -15.1855 35.2539 -16.0645 37.207 -16.0645 L 73.8281 -16.0645 C 75.8301 -16.0645 76.7578 -15.1855 76.7578 -13.1348 L 76.7578 -2.63672 C 76.7578 -0.634766 75.8301 0.292969 73.8281 0.292969 Z"/>
  </g>
  <g id="Black-M" transform="matrix(1 0 0 1 2848.34 1126)">
   <path d="M 28.9062 -35.3516 L 68.7012 -35.3516 C 79.9805 -35.3516 85.1074 -40.4785 85.1074 -51.7578 L 85.1074 -67.5293 C 85.1074 -78.8086 79.9805 -83.9355 68.7012 -83.9355 L 28.9062 -83.9355 C 17.5781 -83.9355 12.4512 -78.8086 12.4512 -67.5293 L 12.4512 -51.7578 C 12.4512 -40.4785 17.5781 -35.3516 28.9062 -35.3516 Z M 112.646 8.49609 L 141.26 8.49609 C 152.539 8.49609 157.666 3.32031 157.666 -7.95898 L 157.666 -61.3281 C 157.666 -72.6074 152.539 -77.7344 141.26 -77.7344 L 112.646 -77.7344 C 101.318 -77.7344 96.1914 -72.6074 96.1914 -61.3281 L 96.1914 -7.95898 C 96.1914 3.32031 101.318 8.49609 112.646 8.49609 Z M 28.7598 -49.1699 C 27.002 -49.1699 26.3184 -49.9023 26.3184 -51.6113 L 26.3184 -67.6758 C 26.3184 -69.3848 27.002 -70.1172 28.7598 -70.1172 L 68.8477 -70.1172 C 70.5566 -70.1172 71.2891 -69.3848 71.2891 -67.6758 L 71.2891 -51.6113 C 71.2891 -49.9023 70.5566 -49.1699 68.8477 -49.1699 Z M 112.5 -5.37109 C 110.742 -5.37109 110.059 -6.10352 110.059 -7.8125 L 110.059 -61.4746 C 110.059 -63.1836 110.742 -63.916 112.5 -63.916 L 141.406 -63.916 C 143.115 -63.916 143.848 -63.1836 143.848 -61.4746 L 143.848 -7.8125 C 143.848 -6.10352 143.115 -5.37109 141.406 -5.37109 Z M 37.5 13.5742 L 73.6328 13.5742 C 84.9121 13.5742 90.0391 8.44727 90.0391 -2.88086 L 90.0391 -12.5 C 90.0391 -23.8281 84.9121 -28.9551 73.6328 -28.9551 L 37.5 -28.9551 C 26.2207 -28.9551 21.0938 -23.8281 21.0938 -12.5 L 21.0938 -2.88086 C 21.0938 8.44727 26.2207 13.5742 37.5 13.5742 Z M 37.3535 -0.292969 C 35.6445 -0.292969 34.9121 -0.976562 34.9121 -2.68555 L 34.9121 -12.6953 C 34.9121 -14.4043 35.6445 -15.1367 37.3535 -15.1367 L 73.7793 -15.1367 C 75.4883 -15.1367 76.2207 -14.4043 76.2207 -12.6953 L 76.2207 -2.68555 C 76.2207 -0.976562 75.4883 -0.292969 73.7793 -0.292969 Z"/>
  </g>
  <g id="Ultralight-L" transform="matrix(1 0 0 1 457.489 1556)">
   <path d="M 23.6816 -41.1621 L 88.2812 -41.1621 C 93.1641 -41.1621 95.8984 -43.3594 95.8984 -48.7305 L 95.8984 -82.373 C 95.8984 -87.793 93.1641 -89.9902 88.2812 -89.9902 L 23.6816 -89.9902 C 18.7988 -89.9902 16.0645 -87.793 16.0645 -82.373 L 16.0645 -48.7305 C 16.0645 -43.3594 18.7988 -41.1621 23.6816 -41.1621 Z M 23.7793 -43.75 C 20.0684 -43.75 18.7012 -45.166 18.7012 -48.8281 L 18.7012 -82.3242 C 18.7012 -85.9863 20.0684 -87.4023 23.7793 -87.4023 L 88.1836 -87.4023 C 91.8457 -87.4023 93.2617 -85.9863 93.2617 -82.3242 L 93.2617 -48.8281 C 93.2617 -45.166 91.8457 -43.75 88.1836 -43.75 Z M 133.057 11.084 L 180.762 11.084 C 185.645 11.084 188.33 8.88672 188.33 3.4668 L 188.33 -72.6562 C 188.33 -78.0762 185.645 -80.2734 180.762 -80.2734 L 133.057 -80.2734 C 128.174 -80.2734 125.439 -78.0762 125.439 -72.6562 L 125.439 3.4668 C 125.439 8.88672 128.174 11.084 133.057 11.084 Z M 133.154 8.44727 C 129.443 8.44727 128.076 7.08008 128.076 3.36914 L 128.076 -72.6074 C 128.076 -76.2695 129.443 -77.6855 133.154 -77.6855 L 180.664 -77.6855 C 184.326 -77.6855 185.742 -76.2695 185.742 -72.6074 L 185.742 3.36914 C 185.742 7.08008 184.326 8.44727 180.664 8.44727 Z M 39.7461 19.8242 L 96.3379 19.8242 C 101.221 19.8242 103.955 17.627 103.955 12.207 L 103.955 -13.3789 C 103.955 -18.7988 101.221 -20.9961 96.3379 -20.9961 L 39.7461 -20.9961 C 34.8633 -20.9961 32.1777 -18.7988 32.1777 -13.3789 L 32.1777 12.207 C 32.1777 17.627 34.8633 19.8242 39.7461 19.8242 Z M 39.8926 17.2363 C 36.1816 17.2363 34.7656 15.8203 34.7656 12.1582 L 34.7656 -13.3301 C 34.7656 -16.9922 36.1816 -18.4082 39.8926 -18.4082 L 96.2402 -18.4082 C 99.9512 -18.4082 101.318 -16.9922 101.318 -13.3301 L 101.318 12.1582 C 101.318 15.8203 99.9512 17.2363 96.2402 17.2363 Z"/>
  </g>
  <g id="Thin-L" transform="matrix(1 0 0 1 753.541 1556)">
   <path d="M 24.9512 -40.625 L 88.3301 -40.625 C 94.0918 -40.625 97.168 -43.2617 97.168 -49.4629 L 97.168 -81.7383 C 97.168 -87.9395 94.0918 -90.5762 88.3301 -90.5762 L 24.9512 -90.5762 C 19.1895 -90.5762 16.0645 -87.9395 16.0645 -81.7383 L 16.0645 -49.4629 C 16.0645 -43.2617 19.1895 -40.625 24.9512 -40.625 Z M 25.1465 -44.4824 C 21.4355 -44.4824 19.9707 -45.9961 19.9707 -49.707 L 19.9707 -81.4941 C 19.9707 -85.2051 21.4355 -86.7188 25.1465 -86.7188 L 88.0859 -86.7188 C 91.7969 -86.7188 93.3105 -85.2051 93.3105 -81.4941 L 93.3105 -49.707 C 93.3105 -45.9961 91.7969 -44.4824 88.0859 -44.4824 Z M 134.326 11.7188 L 180.811 11.7188 C 186.572 11.7188 189.648 9.0332 189.648 2.88086 L 189.648 -72.168 C 189.648 -78.3203 186.572 -81.0059 180.811 -81.0059 L 134.326 -81.0059 C 128.564 -81.0059 125.439 -78.3203 125.439 -72.168 L 125.439 2.88086 C 125.439 9.0332 128.564 11.7188 134.326 11.7188 Z M 134.521 7.8125 C 130.811 7.8125 129.297 6.34766 129.297 2.63672 L 129.297 -71.9238 C 129.297 -75.6348 130.811 -77.1484 134.521 -77.1484 L 180.566 -77.1484 C 184.277 -77.1484 185.791 -75.6348 185.791 -71.9238 L 185.791 2.63672 C 185.791 6.34766 184.277 7.8125 180.566 7.8125 Z M 41.0156 20.3125 L 96.3379 20.3125 C 102.1 20.3125 105.176 17.6758 105.176 11.4746 L 105.176 -12.7441 C 105.176 -18.8965 102.1 -21.582 96.3379 -21.582 L 41.0156 -21.582 C 35.2539 -21.582 32.1777 -18.8965 32.1777 -12.7441 L 32.1777 11.4746 C 32.1777 17.6758 35.2539 20.3125 41.0156 20.3125 Z M 41.2598 16.4551 C 37.5488 16.4551 36.0352 14.9414 36.0352 11.2305 L 36.0352 -12.5 C 36.0352 -16.2109 37.5488 -17.6758 41.2598 -17.6758 L 96.0938 -17.6758 C 99.8047 -17.6758 101.318 -16.2109 101.318 -12.5 L 101.318 11.2305 C 101.318 14.9414 99.8047 16.4551 96.0938 16.4551 Z"/>
  </g>
  <g id="Light-L" transform="matrix(1 0 0 1 1048.98 1556)">
   <path d="M 27.3926 -39.6484 L 88.4277 -39.6484 C 95.8496 -39.6484 99.707 -43.1641 99.707 -50.8789 L 99.707 -80.5176 C 99.707 -88.1836 95.8496 -91.6992 88.4277 -91.6992 L 27.3926 -91.6992 C 19.9219 -91.6992 16.0645 -88.1836 16.0645 -80.5176 L 16.0645 -50.8789 C 16.0645 -43.1641 19.9219 -39.6484 27.3926 -39.6484 Z M 27.832 -45.9473 C 24.1211 -45.9473 22.4121 -47.6562 22.4121 -51.4648 L 22.4121 -79.8828 C 22.4121 -83.7402 24.1211 -85.4004 27.832 -85.4004 L 87.9395 -85.4004 C 91.6992 -85.4004 93.4082 -83.7402 93.4082 -79.8828 L 93.4082 -51.4648 C 93.4082 -47.6562 91.6992 -45.9473 87.9395 -45.9473 Z M 136.768 12.9395 L 180.957 12.9395 C 188.379 12.9395 192.236 9.375 192.236 1.70898 L 192.236 -71.1426 C 192.236 -78.8086 188.379 -82.373 180.957 -82.373 L 136.768 -82.373 C 129.297 -82.373 125.439 -78.8086 125.439 -71.1426 L 125.439 1.70898 C 125.439 9.375 129.297 12.9395 136.768 12.9395 Z M 137.207 6.5918 C 133.496 6.5918 131.787 4.93164 131.787 1.12305 L 131.787 -70.5566 C 131.787 -74.3652 133.496 -76.0254 137.207 -76.0254 L 180.469 -76.0254 C 184.18 -76.0254 185.938 -74.3652 185.938 -70.5566 L 185.938 1.12305 C 185.938 4.93164 184.18 6.5918 180.469 6.5918 Z M 43.457 21.1914 L 96.3379 21.1914 C 103.809 21.1914 107.617 17.6758 107.617 9.96094 L 107.617 -11.4258 C 107.617 -19.0918 103.809 -22.6562 96.3379 -22.6562 L 43.457 -22.6562 C 36.0352 -22.6562 32.1777 -19.0918 32.1777 -11.4258 L 32.1777 9.96094 C 32.1777 17.6758 36.0352 21.1914 43.457 21.1914 Z M 43.8965 14.8926 C 40.1855 14.8926 38.4766 13.1836 38.4766 9.42383 L 38.4766 -10.8398 C 38.4766 -14.6484 40.1855 -16.3086 43.8965 -16.3086 L 95.8496 -16.3086 C 99.6094 -16.3086 101.318 -14.6484 101.318 -10.8398 L 101.318 9.42383 C 101.318 13.1836 99.6094 14.8926 95.8496 14.8926 Z"/>
  </g>
  <g id="Regular-L" transform="matrix(1 0 0 1 1344.72 1556)">
   <path d="M 29.248 -38.916 L 88.4766 -38.916 C 97.2168 -38.916 101.66 -43.1152 101.66 -51.9531 L 101.66 -79.541 C 101.66 -88.3789 97.2168 -92.5293 88.4766 -92.5293 L 29.248 -92.5293 C 20.5078 -92.5293 16.0645 -88.3789 16.0645 -79.541 L 16.0645 -51.9531 C 16.0645 -43.1152 20.5078 -38.916 29.248 -38.916 Z M 29.834 -47.0703 C 26.123 -47.0703 24.2188 -48.9258 24.2188 -52.7832 L 24.2188 -78.7109 C 24.2188 -82.6172 26.123 -84.375 29.834 -84.375 L 87.8418 -84.375 C 91.6016 -84.375 93.5059 -82.6172 93.5059 -78.7109 L 93.5059 -52.7832 C 93.5059 -48.9258 91.6016 -47.0703 87.8418 -47.0703 Z M 138.574 13.8672 L 181.055 13.8672 C 189.746 13.8672 194.189 9.66797 194.189 0.78125 L 194.189 -70.4102 C 194.189 -79.1992 189.746 -83.3984 181.055 -83.3984 L 138.574 -83.3984 C 129.883 -83.3984 125.439 -79.1992 125.439 -70.4102 L 125.439 0.78125 C 125.439 9.66797 129.883 13.8672 138.574 13.8672 Z M 139.209 5.66406 C 135.498 5.66406 133.594 3.85742 133.594 0 L 133.594 -69.5312 C 133.594 -73.4375 135.498 -75.2441 139.209 -75.2441 L 180.371 -75.2441 C 184.131 -75.2441 186.035 -73.4375 186.035 -69.5312 L 186.035 0 C 186.035 3.85742 184.131 5.66406 180.371 5.66406 Z M 45.3125 21.875 L 96.3379 21.875 C 105.078 21.875 109.473 17.6758 109.473 8.83789 L 109.473 -10.4492 C 109.473 -19.2383 105.078 -23.4375 96.3379 -23.4375 L 45.3125 -23.4375 C 36.5723 -23.4375 32.1777 -19.2383 32.1777 -10.4492 L 32.1777 8.83789 C 32.1777 17.6758 36.5723 21.875 45.3125 21.875 Z M 45.8984 13.7207 C 42.2363 13.7207 40.332 11.8652 40.332 8.05664 L 40.332 -9.61914 C 40.332 -13.4766 42.2363 -15.2832 45.8984 -15.2832 L 95.7031 -15.2832 C 99.4141 -15.2832 101.318 -13.4766 101.318 -9.61914 L 101.318 8.05664 C 101.318 11.8652 99.4141 13.7207 95.7031 13.7207 Z"/>
  </g>
  <g id="Medium-L" transform="matrix(1 0 0 1 1640.75 1556)">
   <path d="M 30.4199 -38.4277 L 88.5254 -38.4277 C 98.0957 -38.4277 102.832 -42.9688 102.832 -52.6367 L 102.832 -79.1504 C 102.832 -88.7695 98.0957 -93.3105 88.5254 -93.3105 L 30.4199 -93.3105 C 20.8496 -93.3105 16.0645 -88.7695 16.0645 -79.1504 L 16.0645 -52.6367 C 16.0645 -42.9688 20.8496 -38.4277 30.4199 -38.4277 Z M 139.6 14.8438 L 181.201 14.8438 C 190.771 14.8438 195.508 10.3027 195.508 0.634766 L 195.508 -70.1172 C 195.508 -79.7852 190.771 -84.3262 181.201 -84.3262 L 139.6 -84.3262 C 130.029 -84.3262 125.293 -79.7852 125.293 -70.1172 L 125.293 0.634766 C 125.293 10.3027 130.029 14.8438 139.6 14.8438 Z M 30.957 -47.9492 C 27.4414 -47.9492 25.6348 -49.707 25.6348 -53.3691 L 25.6348 -78.3691 C 25.6348 -82.0801 27.4414 -83.7891 30.957 -83.7891 L 87.9395 -83.7891 C 91.5039 -83.7891 93.3105 -82.0801 93.3105 -78.3691 L 93.3105 -53.3691 C 93.3105 -49.707 91.5039 -47.9492 87.9395 -47.9492 Z M 140.137 5.32227 C 136.621 5.32227 134.863 3.56445 134.863 -0.0976562 L 134.863 -69.3848 C 134.863 -73.0957 136.621 -74.7559 140.137 -74.7559 L 180.615 -74.7559 C 184.18 -74.7559 185.986 -73.0957 185.986 -69.3848 L 185.986 -0.0976562 C 185.986 3.56445 184.18 5.32227 180.615 5.32227 Z M 45.8496 22.7051 L 96.1914 22.7051 C 105.762 22.7051 110.498 18.1152 110.498 8.44727 L 110.498 -9.81445 C 110.498 -19.4336 105.762 -23.9746 96.1914 -23.9746 L 45.8496 -23.9746 C 36.2793 -23.9746 31.543 -19.4336 31.543 -9.81445 L 31.543 8.44727 C 31.543 18.1152 36.2793 22.7051 45.8496 22.7051 Z M 46.3867 13.1348 C 42.8711 13.1348 41.1133 11.377 41.1133 7.76367 L 41.1133 -9.0332 C 41.1133 -12.7441 42.8711 -14.4531 46.3867 -14.4531 L 95.6055 -14.4531 C 99.1699 -14.4531 100.928 -12.7441 100.928 -9.0332 L 100.928 7.76367 C 100.928 11.377 99.1699 13.1348 95.6055 13.1348 Z"/>
  </g>
  <g id="Semibold-L" transform="matrix(1 0 0 1 1936.94 1556)">
   <path d="M 31.3477 -37.9883 L 88.5254 -37.9883 C 98.7793 -37.9883 103.76 -42.8711 103.76 -53.1738 L 103.76 -78.8086 C 103.76 -89.1113 98.7793 -93.9453 88.5254 -93.9453 L 31.3477 -93.9453 C 21.0938 -93.9453 16.0645 -89.1113 16.0645 -78.8086 L 16.0645 -53.1738 C 16.0645 -42.8711 21.0938 -37.9883 31.3477 -37.9883 Z M 140.381 15.625 L 181.299 15.625 C 191.553 15.625 196.582 10.791 196.582 0.488281 L 196.582 -69.9219 C 196.582 -80.2246 191.553 -85.0586 181.299 -85.0586 L 140.381 -85.0586 C 130.176 -85.0586 125.146 -80.2246 125.146 -69.9219 L 125.146 0.488281 C 125.146 10.791 130.176 15.625 140.381 15.625 Z M 31.7871 -48.6328 C 28.418 -48.6328 26.709 -50.293 26.709 -53.8086 L 26.709 -78.1738 C 26.709 -81.6895 28.418 -83.3008 31.7871 -83.3008 L 88.0371 -83.3008 C 91.4551 -83.3008 93.1641 -81.6895 93.1641 -78.1738 L 93.1641 -53.8086 C 93.1641 -50.293 91.4551 -48.6328 88.0371 -48.6328 Z M 140.869 5.0293 C 137.5 5.0293 135.791 3.36914 135.791 -0.146484 L 135.791 -69.2871 C 135.791 -72.8027 137.5 -74.4141 140.869 -74.4141 L 180.811 -74.4141 C 184.229 -74.4141 185.938 -72.8027 185.938 -69.2871 L 185.938 -0.146484 C 185.938 3.36914 184.229 5.0293 180.811 5.0293 Z M 46.2891 23.291 L 96.0449 23.291 C 106.299 23.291 111.279 18.457 111.279 8.1543 L 111.279 -9.27734 C 111.279 -19.5801 106.299 -24.4141 96.0449 -24.4141 L 46.2891 -24.4141 C 36.084 -24.4141 31.0547 -19.5801 31.0547 -9.27734 L 31.0547 8.1543 C 31.0547 18.457 36.084 23.291 46.2891 23.291 Z M 46.7285 12.6953 C 43.4082 12.6953 41.6992 11.0352 41.6992 7.51953 L 41.6992 -8.64258 C 41.6992 -12.1582 43.4082 -13.7695 46.7285 -13.7695 L 95.5566 -13.7695 C 98.9746 -13.7695 100.684 -12.1582 100.684 -8.64258 L 100.684 7.51953 C 100.684 11.0352 98.9746 12.6953 95.5566 12.6953 Z"/>
  </g>
  <g id="Bold-L" transform="matrix(1 0 0 1 2232.97 1556)">
   <path d="M 32.5195 -37.5 L 88.5742 -37.5 C 99.6582 -37.5 105.029 -42.7246 105.029 -53.8574 L 105.029 -78.3691 C 105.029 -89.502 99.6582 -94.7266 88.5742 -94.7266 L 32.5195 -94.7266 C 21.4355 -94.7266 16.0645 -89.502 16.0645 -78.3691 L 16.0645 -53.8574 C 16.0645 -42.7246 21.4355 -37.5 32.5195 -37.5 Z M 141.455 16.6504 L 181.494 16.6504 C 192.578 16.6504 197.949 11.4258 197.949 0.292969 L 197.949 -69.6777 C 197.949 -80.8105 192.578 -86.0352 181.494 -86.0352 L 141.455 -86.0352 C 130.322 -86.0352 125 -80.8105 125 -69.6777 L 125 0.292969 C 125 11.4258 130.322 16.6504 141.455 16.6504 Z M 32.9102 -49.5117 C 29.7363 -49.5117 28.125 -51.0742 28.125 -54.3457 L 28.125 -77.832 C 28.125 -81.1523 29.7363 -82.666 32.9102 -82.666 L 88.1836 -82.666 C 91.3574 -82.666 92.9688 -81.1523 92.9688 -77.832 L 92.9688 -54.3457 C 92.9688 -51.0742 91.3574 -49.5117 88.1836 -49.5117 Z M 141.797 4.63867 C 138.623 4.63867 137.012 3.07617 137.012 -0.195312 L 137.012 -69.1406 C 137.012 -72.4609 138.623 -73.9746 141.797 -73.9746 L 181.104 -73.9746 C 184.277 -73.9746 185.889 -72.4609 185.889 -69.1406 L 185.889 -0.195312 C 185.889 3.07617 184.277 4.63867 181.104 4.63867 Z M 46.875 24.1211 L 95.8984 24.1211 C 106.982 24.1211 112.305 18.8965 112.305 7.76367 L 112.305 -8.59375 C 112.305 -19.7266 106.982 -24.9512 95.8984 -24.9512 L 46.875 -24.9512 C 35.7422 -24.9512 30.4199 -19.7266 30.4199 -8.59375 L 30.4199 7.76367 C 30.4199 18.8965 35.7422 24.1211 46.875 24.1211 Z M 47.2168 12.0605 C 44.043 12.0605 42.4805 10.5469 42.4805 7.22656 L 42.4805 -8.05664 C 42.4805 -11.377 44.043 -12.8906 47.2168 -12.8906 L 95.459 -12.8906 C 98.6816 -12.8906 100.293 -11.377 100.293 -8.05664 L 100.293 7.22656 C 100.293 10.5469 98.6816 12.0605 95.459 12.0605 Z"/>
  </g>
  <g id="Heavy-L" transform="matrix(1 0 0 1 2528.68 1556)">
   <path d="M 34.2773 -36.7188 L 88.5742 -36.7188 C 100.977 -36.7188 106.787 -42.4805 106.787 -54.8828 L 106.787 -77.7832 C 106.787 -90.1367 100.977 -95.8496 88.5742 -95.8496 L 34.2773 -95.8496 C 21.9238 -95.8496 16.0645 -90.1367 16.0645 -77.7832 L 16.0645 -54.8828 C 16.0645 -42.4805 21.9238 -36.7188 34.2773 -36.7188 Z M 142.92 18.1641 L 181.738 18.1641 C 194.092 18.1641 199.902 12.4023 199.902 0 L 199.902 -69.2871 C 199.902 -81.6406 194.092 -87.4023 181.738 -87.4023 L 142.92 -87.4023 C 130.566 -87.4023 124.756 -81.6406 124.756 -69.2871 L 124.756 0 C 124.756 12.4023 130.566 18.1641 142.92 18.1641 Z M 34.5215 -50.8301 C 31.6406 -50.8301 30.1758 -52.2461 30.1758 -55.2246 L 30.1758 -77.3926 C 30.1758 -80.3711 31.6406 -81.7871 34.5215 -81.7871 L 88.3301 -81.7871 C 91.2598 -81.7871 92.6758 -80.3711 92.6758 -77.3926 L 92.6758 -55.2246 C 92.6758 -52.2461 91.2598 -50.8301 88.3301 -50.8301 Z M 143.164 4.05273 C 140.283 4.05273 138.818 2.63672 138.818 -0.341797 L 138.818 -68.8965 C 138.818 -71.9238 140.283 -73.291 143.164 -73.291 L 181.445 -73.291 C 184.375 -73.291 185.84 -71.9238 185.84 -68.8965 L 185.84 -0.341797 C 185.84 2.63672 184.375 4.05273 181.445 4.05273 Z M 47.7051 25.293 L 95.6055 25.293 C 108.008 25.293 113.818 19.5312 113.818 7.17773 L 113.818 -7.61719 C 113.818 -19.9707 108.008 -25.7324 95.6055 -25.7324 L 47.7051 -25.7324 C 35.3027 -25.7324 29.4922 -19.9707 29.4922 -7.61719 L 29.4922 7.17773 C 29.4922 19.5312 35.3027 25.293 47.7051 25.293 Z M 47.9004 11.2305 C 45.0195 11.2305 43.6035 9.81445 43.6035 6.83594 L 43.6035 -7.27539 C 43.6035 -10.2539 45.0195 -11.6699 47.9004 -11.6699 L 95.3613 -11.6699 C 98.291 -11.6699 99.707 -10.2539 99.707 -7.27539 L 99.707 6.83594 C 99.707 9.81445 98.291 11.2305 95.3613 11.2305 Z"/>
  </g>
  <g id="Black-L" transform="matrix(1 0 0 1 2824.51 1556)">
   <path d="M 35.8398 -36.0352 L 88.623 -36.0352 C 102.1 -36.0352 108.35 -42.2852 108.35 -55.7617 L 108.35 -77.1973 C 108.35 -90.6738 102.1 -96.875 88.623 -96.875 L 35.8398 -96.875 C 22.3633 -96.875 16.0645 -90.6738 16.0645 -77.1973 L 16.0645 -55.7617 C 16.0645 -42.2852 22.3633 -36.0352 35.8398 -36.0352 Z M 144.287 19.4824 L 181.934 19.4824 C 195.41 19.4824 201.709 13.2324 201.709 -0.244141 L 201.709 -68.9453 C 201.709 -82.373 195.41 -88.623 181.934 -88.623 L 144.287 -88.623 C 130.762 -88.623 124.512 -82.373 124.512 -68.9453 L 124.512 -0.244141 C 124.512 13.2324 130.762 19.4824 144.287 19.4824 Z M 35.9375 -52.002 C 33.3008 -52.002 32.0312 -53.2715 32.0312 -55.957 L 32.0312 -77.002 C 32.0312 -79.7363 33.3008 -80.957 35.9375 -80.957 L 88.4766 -80.957 C 91.1621 -80.957 92.4316 -79.7363 92.4316 -77.002 L 92.4316 -55.957 C 92.4316 -53.2715 91.1621 -52.002 88.4766 -52.002 Z M 144.385 3.56445 C 141.748 3.56445 140.43 2.29492 140.43 -0.439453 L 140.43 -68.7012 C 140.43 -71.4355 141.748 -72.7051 144.385 -72.7051 L 181.787 -72.7051 C 184.473 -72.7051 185.742 -71.4355 185.742 -68.7012 L 185.742 -0.439453 C 185.742 2.29492 184.473 3.56445 181.787 3.56445 Z M 48.3887 26.3672 L 95.4102 26.3672 C 108.887 26.3672 115.137 20.1172 115.137 6.64062 L 115.137 -6.78711 C 115.137 -20.2148 108.887 -26.4648 95.4102 -26.4648 L 48.3887 -26.4648 C 34.9121 -26.4648 28.6621 -20.2148 28.6621 -6.78711 L 28.6621 6.64062 C 28.6621 20.1172 34.9121 26.3672 48.3887 26.3672 Z M 48.5352 10.4492 C 45.8984 10.4492 44.5801 9.17969 44.5801 6.44531 L 44.5801 -6.54297 C 44.5801 -9.27734 45.8984 -10.498 48.5352 -10.498 L 95.2637 -10.498 C 97.9492 -10.498 99.2188 -9.27734 99.2188 -6.54297 L 99.2188 6.44531 C 99.2188 9.17969 97.9492 10.4492 95.2637 10.4492 Z"/>
  </g>
 </g>
</svg>
