<?xml version="1.0" encoding="UTF-8"?>
<!--Generator: Apple Native CoreSVG 123-->
<!DOCTYPE svg
PUBLIC "-//W3C//DTD SVG 1.1//EN"
       "http://www.w3.org/Graphics/SVG/1.1/DTD/svg11.dtd">
<svg version="1.1" xmlns="http://www.w3.org/2000/svg" xmlns:xlink="http://www.w3.org/1999/xlink" width="3300" height="2200">
 <!--glyph: "uni100689.medium", point size: 100.000000, font version: "Version 15.0d4e20", template writer version: "2"-->
 <g id="Notes">
  <rect height="2200" id="artboard" style="fill:white;opacity:1" width="3300" x="0" y="0"/>
  <line id="" style="fill:none;stroke:black;opacity:1;stroke-width:0.5;" x1="263" x2="3036" y1="292" y2="292"/>
  <text style="stroke:none;fill:black;font-family:-apple-system,&quot;SF Pro Display&quot;,&quot;SF Pro Text&quot;,Helvetica,sans-serif;font-weight:bold;" transform="matrix(1 0 0 1 263 322)">Weight/Scale Variations</text>
  <text style="stroke:none;fill:black;font-family:-apple-system,&quot;SF Pro Display&quot;,&quot;SF Pro Text&quot;,Helvetica,sans-serif;text-anchor:middle;" transform="matrix(1 0 0 1 559.711 322)">Ultralight</text>
  <text style="stroke:none;fill:black;font-family:-apple-system,&quot;SF Pro Display&quot;,&quot;SF Pro Text&quot;,Helvetica,sans-serif;text-anchor:middle;" transform="matrix(1 0 0 1 856.422 322)">Thin</text>
  <text style="stroke:none;fill:black;font-family:-apple-system,&quot;SF Pro Display&quot;,&quot;SF Pro Text&quot;,Helvetica,sans-serif;text-anchor:middle;" transform="matrix(1 0 0 1 1153.13 322)">Light</text>
  <text style="stroke:none;fill:black;font-family:-apple-system,&quot;SF Pro Display&quot;,&quot;SF Pro Text&quot;,Helvetica,sans-serif;text-anchor:middle;" transform="matrix(1 0 0 1 1449.84 322)">Regular</text>
  <text style="stroke:none;fill:black;font-family:-apple-system,&quot;SF Pro Display&quot;,&quot;SF Pro Text&quot;,Helvetica,sans-serif;text-anchor:middle;" transform="matrix(1 0 0 1 1746.56 322)">Medium</text>
  <text style="stroke:none;fill:black;font-family:-apple-system,&quot;SF Pro Display&quot;,&quot;SF Pro Text&quot;,Helvetica,sans-serif;text-anchor:middle;" transform="matrix(1 0 0 1 2043.27 322)">Semibold</text>
  <text style="stroke:none;fill:black;font-family:-apple-system,&quot;SF Pro Display&quot;,&quot;SF Pro Text&quot;,Helvetica,sans-serif;text-anchor:middle;" transform="matrix(1 0 0 1 2339.98 322)">Bold</text>
  <text style="stroke:none;fill:black;font-family:-apple-system,&quot;SF Pro Display&quot;,&quot;SF Pro Text&quot;,Helvetica,sans-serif;text-anchor:middle;" transform="matrix(1 0 0 1 2636.69 322)">Heavy</text>
  <text style="stroke:none;fill:black;font-family:-apple-system,&quot;SF Pro Display&quot;,&quot;SF Pro Text&quot;,Helvetica,sans-serif;text-anchor:middle;" transform="matrix(1 0 0 1 2933.4 322)">Black</text>
  <line id="" style="fill:none;stroke:black;opacity:1;stroke-width:0.5;" x1="263" x2="3036" y1="1903" y2="1903"/>
  <g id="" transform="matrix(1 0 0 1 263 1933)">
   <path d="M 9.24805 0.830078 C 13.5547 0.830078 17.1387 -2.74414 17.1387 -7.05078 C 17.1387 -11.3574 13.5449 -14.9316 9.23828 -14.9316 C 4.94141 -14.9316 1.36719 -11.3574 1.36719 -7.05078 C 1.36719 -2.74414 4.95117 0.830078 9.24805 0.830078 Z M 9.24805 -0.654297 C 5.70312 -0.654297 2.87109 -3.49609 2.87109 -7.05078 C 2.87109 -10.6055 5.69336 -13.4473 9.23828 -13.4473 C 12.793 -13.4473 15.6348 -10.6055 15.6445 -7.05078 C 15.6543 -3.49609 12.8027 -0.654297 9.24805 -0.654297 Z M 9.22852 -3.42773 C 9.69727 -3.42773 9.9707 -3.74023 9.9707 -4.25781 L 9.9707 -6.31836 L 12.1973 -6.31836 C 12.6953 -6.31836 13.0371 -6.57227 13.0371 -7.04102 C 13.0371 -7.51953 12.7148 -7.7832 12.1973 -7.7832 L 9.9707 -7.7832 L 9.9707 -10.0098 C 9.9707 -10.5273 9.69727 -10.8496 9.22852 -10.8496 C 8.75977 -10.8496 8.50586 -10.5078 8.50586 -10.0098 L 8.50586 -7.7832 L 6.29883 -7.7832 C 5.78125 -7.7832 5.44922 -7.51953 5.44922 -7.04102 C 5.44922 -6.57227 5.80078 -6.31836 6.29883 -6.31836 L 8.50586 -6.31836 L 8.50586 -4.25781 C 8.50586 -3.75977 8.75977 -3.42773 9.22852 -3.42773 Z"/>
  </g>
  <g id="" transform="matrix(1 0 0 1 281.506 1933)">
   <path d="M 11.709 2.91016 C 17.1484 2.91016 21.6699 -1.60156 21.6699 -7.05078 C 21.6699 -12.4902 17.1387 -17.0117 11.6992 -17.0117 C 6.25 -17.0117 1.74805 -12.4902 1.74805 -7.05078 C 1.74805 -1.60156 6.25977 2.91016 11.709 2.91016 Z M 11.709 1.25 C 7.09961 1.25 3.41797 -2.44141 3.41797 -7.05078 C 3.41797 -11.6504 7.08984 -15.3516 11.6992 -15.3516 C 16.2988 -15.3516 20 -11.6504 20.0098 -7.05078 C 20.0195 -2.44141 16.3086 1.25 11.709 1.25 Z M 11.6797 -2.41211 C 12.207 -2.41211 12.5195 -2.77344 12.5195 -3.33984 L 12.5195 -6.23047 L 15.5762 -6.23047 C 16.123 -6.23047 16.5039 -6.51367 16.5039 -7.03125 C 16.5039 -7.55859 16.1426 -7.86133 15.5762 -7.86133 L 12.5195 -7.86133 L 12.5195 -10.9277 C 12.5195 -11.5039 12.207 -11.8555 11.6797 -11.8555 C 11.1621 -11.8555 10.8789 -11.4844 10.8789 -10.9277 L 10.8789 -7.86133 L 7.83203 -7.86133 C 7.25586 -7.86133 6.89453 -7.55859 6.89453 -7.03125 C 6.89453 -6.51367 7.28516 -6.23047 7.83203 -6.23047 L 10.8789 -6.23047 L 10.8789 -3.33984 C 10.8789 -2.79297 11.1621 -2.41211 11.6797 -2.41211 Z"/>
  </g>
  <g id="" transform="matrix(1 0 0 1 304.914 1933)">
   <path d="M 14.9707 5.67383 C 21.9336 5.67383 27.6855 -0.078125 27.6855 -7.04102 C 27.6855 -14.0039 21.9238 -19.7559 14.9609 -19.7559 C 7.99805 -19.7559 2.25586 -14.0039 2.25586 -7.04102 C 2.25586 -0.078125 8.00781 5.67383 14.9707 5.67383 Z M 14.9707 3.85742 C 8.92578 3.85742 4.08203 -1.00586 4.08203 -7.04102 C 4.08203 -13.0762 8.91602 -17.9395 14.9609 -17.9395 C 20.9961 -17.9395 25.8594 -13.0762 25.8691 -7.04102 C 25.8789 -1.00586 21.0059 3.85742 14.9707 3.85742 Z M 14.9414 -1.06445 C 15.5176 -1.06445 15.8594 -1.45508 15.8594 -2.06055 L 15.8594 -6.13281 L 20.0977 -6.13281 C 20.6934 -6.13281 21.1133 -6.46484 21.1133 -7.02148 C 21.1133 -7.59766 20.7227 -7.93945 20.0977 -7.93945 L 15.8594 -7.93945 L 15.8594 -12.1875 C 15.8594 -12.8027 15.5176 -13.1934 14.9414 -13.1934 C 14.3848 -13.1934 14.0625 -12.7832 14.0625 -12.1875 L 14.0625 -7.93945 L 9.82422 -7.93945 C 9.20898 -7.93945 8.80859 -7.59766 8.80859 -7.02148 C 8.80859 -6.46484 9.23828 -6.13281 9.82422 -6.13281 L 14.0625 -6.13281 L 14.0625 -2.06055 C 14.0625 -1.47461 14.3848 -1.06445 14.9414 -1.06445 Z"/>
  </g>
  <text style="stroke:none;fill:black;font-family:-apple-system,&quot;SF Pro Display&quot;,&quot;SF Pro Text&quot;,Helvetica,sans-serif;font-weight:bold;" transform="matrix(1 0 0 1 263 1953)">Design Variations</text>
  <text style="stroke:none;fill:black;font-family:-apple-system,&quot;SF Pro Display&quot;,&quot;SF Pro Text&quot;,Helvetica,sans-serif;" transform="matrix(1 0 0 1 263 1971)">Symbols are supported in up to nine weights and three scales.</text>
  <text style="stroke:none;fill:black;font-family:-apple-system,&quot;SF Pro Display&quot;,&quot;SF Pro Text&quot;,Helvetica,sans-serif;" transform="matrix(1 0 0 1 263 1989)">For optimal layout with text and other symbols, vertically align</text>
  <text style="stroke:none;fill:black;font-family:-apple-system,&quot;SF Pro Display&quot;,&quot;SF Pro Text&quot;,Helvetica,sans-serif;" transform="matrix(1 0 0 1 263 2007)">symbols with the adjacent text.</text>
  <rect height="14" id="" style="fill:#00AEEF;stroke:none;opacity:0.4;" width="3" x="776" y="1919"/>
  <g id="" transform="matrix(1 0 0 1 779 1933)">
   <path d="M 10.5273 0 L 12.373 0 L 7.17773 -14.0918 L 5.43945 -14.0918 L 0.244141 0 L 2.08984 0 L 3.50586 -4.0332 L 9.11133 -4.0332 Z M 6.2793 -11.9531 L 6.33789 -11.9531 L 8.59375 -5.52734 L 4.02344 -5.52734 Z"/>
  </g>
  <rect height="14" id="" style="fill:#00AEEF;stroke:none;opacity:0.4;" width="3" x="791.617" y="1919"/>
  <text style="stroke:none;fill:black;font-family:-apple-system,&quot;SF Pro Display&quot;,&quot;SF Pro Text&quot;,Helvetica,sans-serif;font-weight:bold;" transform="matrix(1 0 0 1 776 1953)">Side Bearings</text>
  <text style="stroke:none;fill:black;font-family:-apple-system,&quot;SF Pro Display&quot;,&quot;SF Pro Text&quot;,Helvetica,sans-serif;" transform="matrix(1 0 0 1 776 1971)">Horizontal padding on the left and right side of each symbol</text>
  <text style="stroke:none;fill:black;font-family:-apple-system,&quot;SF Pro Display&quot;,&quot;SF Pro Text&quot;,Helvetica,sans-serif;" transform="matrix(1 0 0 1 776 1989)">can be adjusted by modifying the width of the blue rectangles.</text>
  <text style="stroke:none;fill:black;font-family:-apple-system,&quot;SF Pro Display&quot;,&quot;SF Pro Text&quot;,Helvetica,sans-serif;" transform="matrix(1 0 0 1 776 2007)">Modifications are automatically applied proportionally to all</text>
  <text style="stroke:none;fill:black;font-family:-apple-system,&quot;SF Pro Display&quot;,&quot;SF Pro Text&quot;,Helvetica,sans-serif;" transform="matrix(1 0 0 1 776 2025)">scales and weights.</text>
  <g id="" transform="matrix(1 0 0 1 1289 1933)">
   <path d="M 2.96875 2.35352 L 3.80859 3.19336 C 4.84375 4.22852 6.12305 4.15039 7.19727 2.97852 L 16.1621 -6.82617 C 16.5527 -6.74805 16.9629 -6.8457 17.4902 -7.02148 C 18.1738 -7.25586 18.2715 -7.25586 18.3887 -7.13867 C 18.5352 -7.01172 18.4863 -6.89453 18.2422 -6.25 C 17.8809 -5.33203 17.8125 -4.79492 18.5547 -4.02344 L 19.4238 -3.13477 C 20.2734 -2.24609 21.3281 -2.26562 22.2168 -3.14453 L 25.0586 -5.97656 C 25.9473 -6.86523 25.957 -7.92969 25.0781 -8.7793 L 24.1797 -9.64844 C 23.4082 -10.4004 22.8711 -10.3516 21.9629 -9.98047 C 21.3184 -9.72656 21.2012 -9.6875 21.0645 -9.81445 C 20.9375 -9.93164 20.9473 -10.0391 21.1816 -10.7129 C 21.5332 -11.6895 21.5723 -12.2852 20.752 -13.0957 L 19.3359 -14.5117 C 15.1953 -18.6133 11.2305 -18.7402 7.65625 -15.4395 C 7.08008 -14.9023 6.99219 -14.1504 7.53906 -13.6133 L 7.79297 -13.3594 C 8.22266 -12.9297 8.86719 -12.8418 9.41406 -13.1152 C 11.0645 -13.9453 12.2559 -14.0234 13.457 -12.9785 L 13.0273 -11.416 C 12.8516 -10.8008 12.793 -10.3418 12.9199 -9.93164 L 3.18359 -1.04492 C 2.02148 0.0292969 1.93359 1.32812 2.96875 2.35352 Z M 8.96484 -14.4922 C 8.89648 -14.5703 8.86719 -14.6582 8.99414 -14.7559 C 11.709 -17.2852 15.0391 -16.8457 18.3496 -13.5254 L 19.6973 -12.168 C 20.0879 -11.7773 20.0977 -11.582 19.8828 -10.8691 C 19.6582 -10.127 19.502 -9.53125 20.1465 -8.88672 C 20.8105 -8.22266 21.2891 -8.41797 22.207 -8.63281 C 22.9004 -8.79883 23.0664 -8.79883 23.4473 -8.41797 L 24.0918 -7.77344 C 24.4043 -7.48047 24.4141 -7.32422 24.0723 -6.97266 L 21.2207 -4.13086 C 20.8887 -3.79883 20.7227 -3.79883 20.4297 -4.10156 L 19.7852 -4.75586 C 19.4141 -5.13672 19.4141 -5.30273 19.5801 -6.01562 C 19.7852 -6.88477 19.9805 -7.38281 19.3262 -8.04688 C 18.6719 -8.7207 18.0762 -8.57422 17.3438 -8.33008 C 16.5625 -8.06641 16.3281 -8.06641 15.8984 -8.49609 L 14.6094 -9.78516 C 14.1699 -10.2246 14.1309 -10.4395 14.2676 -10.9082 L 15.0293 -13.3984 C 13.3887 -15.2832 11.4941 -15.5566 9.20898 -14.4434 C 9.11133 -14.3945 9.04297 -14.4141 8.96484 -14.4922 Z M 3.96484 1.36719 C 3.52539 0.927734 3.54492 0.537109 4.14062 -0.00976562 L 13.7402 -8.81836 L 15 -7.55859 L 6.17188 2.02148 C 5.625 2.60742 5.24414 2.64648 4.79492 2.19727 Z"/>
  </g>
  <text style="stroke:none;fill:black;font-family:-apple-system,&quot;SF Pro Display&quot;,&quot;SF Pro Text&quot;,Helvetica,sans-serif;font-weight:bold;" transform="matrix(1 0 0 1 1289 1953)">Exporting</text>
  <text style="stroke:none;fill:black;font-family:-apple-system,&quot;SF Pro Display&quot;,&quot;SF Pro Text&quot;,Helvetica,sans-serif;" transform="matrix(1 0 0 1 1289 1971)">Symbols should be outlined when exporting to ensure the</text>
  <text style="stroke:none;fill:black;font-family:-apple-system,&quot;SF Pro Display&quot;,&quot;SF Pro Text&quot;,Helvetica,sans-serif;" transform="matrix(1 0 0 1 1289 1989)">design is preserved when submitting to Xcode.</text>
  <text id="template-version" style="stroke:none;fill:black;font-family:-apple-system,&quot;SF Pro Display&quot;,&quot;SF Pro Text&quot;,Helvetica,sans-serif;text-anchor:end;" transform="matrix(1 0 0 1 3036 1933)">Template v.0.1</text>
  <text style="stroke:none;fill:black;font-family:-apple-system,&quot;SF Pro Display&quot;,&quot;SF Pro Text&quot;,Helvetica,sans-serif;text-anchor:end;" transform="matrix(1 0 0 1 3036 1951)">Generated from rectangle.grid.1x2.fill</text>
  <text style="stroke:none;fill:black;font-family:-apple-system,&quot;SF Pro Display&quot;,&quot;SF Pro Text&quot;,Helvetica,sans-serif;text-anchor:end;" transform="matrix(1 0 0 1 3036 1969)">Typeset at 100 points</text>
  <text style="stroke:none;fill:black;font-family:-apple-system,&quot;SF Pro Display&quot;,&quot;SF Pro Text&quot;,Helvetica,sans-serif;" transform="matrix(1 0 0 1 263 726)">Small</text>
  <text style="stroke:none;fill:black;font-family:-apple-system,&quot;SF Pro Display&quot;,&quot;SF Pro Text&quot;,Helvetica,sans-serif;" transform="matrix(1 0 0 1 263 1156)">Medium</text>
  <text style="stroke:none;fill:black;font-family:-apple-system,&quot;SF Pro Display&quot;,&quot;SF Pro Text&quot;,Helvetica,sans-serif;" transform="matrix(1 0 0 1 263 1586)">Large</text>
 </g>
 <g id="Guides">
  <g id="H-reference" style="fill:#27AAE1;stroke:none;" transform="matrix(1 0 0 1 339 696)">
   <path d="M 54.9316 0 L 57.666 0 L 30.5664 -70.459 L 28.0762 -70.459 L 0.976562 0 L 3.66211 0 L 12.9395 -24.4629 L 45.7031 -24.4629 Z M 29.1992 -67.0898 L 29.4434 -67.0898 L 44.8242 -26.709 L 13.8184 -26.709 Z"/>
  </g>
  <line id="Baseline-S" style="fill:none;stroke:#27AAE1;opacity:1;stroke-width:0.577;" x1="263" x2="3036" y1="696" y2="696"/>
  <line id="Capline-S" style="fill:none;stroke:#27AAE1;opacity:1;stroke-width:0.577;" x1="263" x2="3036" y1="625.541" y2="625.541"/>
  <g id="H-reference" style="fill:#27AAE1;stroke:none;" transform="matrix(1 0 0 1 339 1126)">
   <path d="M 54.9316 0 L 57.666 0 L 30.5664 -70.459 L 28.0762 -70.459 L 0.976562 0 L 3.66211 0 L 12.9395 -24.4629 L 45.7031 -24.4629 Z M 29.1992 -67.0898 L 29.4434 -67.0898 L 44.8242 -26.709 L 13.8184 -26.709 Z"/>
  </g>
  <line id="Baseline-M" style="fill:none;stroke:#27AAE1;opacity:1;stroke-width:0.577;" x1="263" x2="3036" y1="1126" y2="1126"/>
  <line id="Capline-M" style="fill:none;stroke:#27AAE1;opacity:1;stroke-width:0.577;" x1="263" x2="3036" y1="1055.54" y2="1055.54"/>
  <g id="H-reference" style="fill:#27AAE1;stroke:none;" transform="matrix(1 0 0 1 339 1556)">
   <path d="M 54.9316 0 L 57.666 0 L 30.5664 -70.459 L 28.0762 -70.459 L 0.976562 0 L 3.66211 0 L 12.9395 -24.4629 L 45.7031 -24.4629 Z M 29.1992 -67.0898 L 29.4434 -67.0898 L 44.8242 -26.709 L 13.8184 -26.709 Z"/>
  </g>
  <line id="Baseline-L" style="fill:none;stroke:#27AAE1;opacity:1;stroke-width:0.577;" x1="263" x2="3036" y1="1556" y2="1556"/>
  <line id="Capline-L" style="fill:none;stroke:#27AAE1;opacity:1;stroke-width:0.577;" x1="263" x2="3036" y1="1485.54" y2="1485.54"/>
  <rect height="119.336" id="left-margin" style="fill:#00AEEF;stroke:none;opacity:0.4;" width="12.4512" x="1384.61" y="1030.79"/>
  <rect height="119.336" id="right-margin" style="fill:#00AEEF;stroke:none;opacity:0.4;" width="12.5" x="1502.58" y="1030.79"/>
 </g>
 <g id="Symbols">
  <g id="Ultralight-S" transform="matrix(1 0 0 1 509.516 696)">
   <path d="M 14.9902 -38.6719 L 85.4492 -38.6719 C 88.8184 -38.6719 90.625 -40.1855 90.625 -43.8477 L 90.625 -63.5742 C 90.625 -67.1875 88.8184 -68.75 85.4492 -68.75 L 14.9902 -68.75 C 11.5723 -68.75 9.76562 -67.1875 9.76562 -63.5742 L 9.76562 -43.8477 C 9.76562 -40.1855 11.5723 -38.6719 14.9902 -38.6719 Z M 14.9902 -1.5625 L 85.4492 -1.5625 C 88.8184 -1.5625 90.625 -3.125 90.625 -6.78711 L 90.625 -26.4648 C 90.625 -30.127 88.8184 -31.6406 85.4492 -31.6406 L 14.9902 -31.6406 C 11.5723 -31.6406 9.76562 -30.127 9.76562 -26.4648 L 9.76562 -6.78711 C 9.76562 -3.125 11.5723 -1.5625 14.9902 -1.5625 Z"/>
  </g>
  <g id="Thin-S" transform="matrix(1 0 0 1 805.958 696)">
   <path d="M 15.9668 -38.5742 L 84.9121 -38.5742 C 89.0137 -38.5742 91.1621 -40.4785 91.1621 -44.7754 L 91.1621 -63.0371 C 91.1621 -67.334 89.0137 -69.2383 84.9121 -69.2383 L 15.9668 -69.2383 C 11.9141 -69.2383 9.76562 -67.334 9.76562 -63.0371 L 9.76562 -44.7754 C 9.76562 -40.4785 11.9141 -38.5742 15.9668 -38.5742 Z M 15.9668 -1.12305 L 84.9121 -1.12305 C 89.0137 -1.12305 91.1621 -3.02734 91.1621 -7.32422 L 91.1621 -25.5859 C 91.1621 -29.834 89.0137 -31.7871 84.9121 -31.7871 L 15.9668 -31.7871 C 11.9141 -31.7871 9.76562 -29.834 9.76562 -25.5859 L 9.76562 -7.32422 C 9.76562 -3.02734 11.9141 -1.12305 15.9668 -1.12305 Z"/>
  </g>
  <g id="Light-S" transform="matrix(1 0 0 1 1102.21 696)">
   <path d="M 17.9199 -38.4277 L 83.9844 -38.4277 C 89.3555 -38.4277 92.0898 -41.0156 92.0898 -46.4844 L 92.0898 -62.0605 C 92.0898 -67.4805 89.3555 -70.1172 83.9844 -70.1172 L 17.9199 -70.1172 C 12.5 -70.1172 9.76562 -67.4805 9.76562 -62.0605 L 9.76562 -46.4844 C 9.76562 -41.0156 12.5 -38.4277 17.9199 -38.4277 Z M 17.9199 -0.292969 L 83.9844 -0.292969 C 89.3555 -0.292969 92.0898 -2.88086 92.0898 -8.34961 L 92.0898 -23.9258 C 92.0898 -29.3457 89.3555 -31.9336 83.9844 -31.9336 L 17.9199 -31.9336 C 12.5 -31.9336 9.76562 -29.3457 9.76562 -23.9258 L 9.76562 -8.34961 C 9.76562 -2.88086 12.5 -0.292969 17.9199 -0.292969 Z"/>
  </g>
  <g id="Regular-S" transform="matrix(1 0 0 1 1398.55 696)">
   <path d="M 19.3848 -38.2812 L 83.252 -38.2812 C 89.6484 -38.2812 92.8223 -41.4551 92.8223 -47.8027 L 92.8223 -61.3281 C 92.8223 -67.627 89.6484 -70.8008 83.252 -70.8008 L 19.3848 -70.8008 C 12.9395 -70.8008 9.76562 -67.627 9.76562 -61.3281 L 9.76562 -47.8027 C 9.76562 -41.4551 12.9395 -38.2812 19.3848 -38.2812 Z M 19.3848 0.390625 L 83.252 0.390625 C 89.6484 0.390625 92.8223 -2.73438 92.8223 -9.13086 L 92.8223 -22.6562 C 92.8223 -28.9551 89.6484 -32.0801 83.252 -32.0801 L 19.3848 -32.0801 C 12.9395 -32.0801 9.76562 -28.9551 9.76562 -22.6562 L 9.76562 -9.13086 C 9.76562 -2.73438 12.9395 0.390625 19.3848 0.390625 Z"/>
  </g>
  <g id="Medium-S" transform="matrix(1 0 0 1 1693.53 696)">
   <path d="M 20.0684 -38.0859 L 85.9863 -38.0859 C 92.9199 -38.0859 96.2891 -41.4062 96.2891 -48.3398 L 96.2891 -61.1328 C 96.2891 -68.0176 92.9199 -71.3867 85.9863 -71.3867 L 20.0684 -71.3867 C 13.1348 -71.3867 9.76562 -68.0176 9.76562 -61.1328 L 9.76562 -48.3398 C 9.76562 -41.4062 13.1348 -38.0859 20.0684 -38.0859 Z M 20.0684 0.976562 L 85.9863 0.976562 C 92.9199 0.976562 96.2891 -2.39258 96.2891 -9.27734 L 96.2891 -22.1191 C 96.2891 -29.0039 92.9199 -32.3242 85.9863 -32.3242 L 20.0684 -32.3242 C 13.1348 -32.3242 9.76562 -29.0039 9.76562 -22.1191 L 9.76562 -9.27734 C 9.76562 -2.39258 13.1348 0.976562 20.0684 0.976562 Z"/>
  </g>
  <g id="Semibold-S" transform="matrix(1 0 0 1 1988.9 696)">
   <path d="M 20.6543 -37.8906 L 88.0859 -37.8906 C 95.459 -37.8906 98.9746 -41.3574 98.9746 -48.7305 L 98.9746 -61.0352 C 98.9746 -68.3105 95.459 -71.8262 88.0859 -71.8262 L 20.6543 -71.8262 C 13.2812 -71.8262 9.76562 -68.3105 9.76562 -61.0352 L 9.76562 -48.7305 C 9.76562 -41.3574 13.2812 -37.8906 20.6543 -37.8906 Z M 20.6543 1.41602 L 88.0859 1.41602 C 95.459 1.41602 98.9746 -2.05078 98.9746 -9.42383 L 98.9746 -21.7285 C 98.9746 -29.0527 95.459 -32.5195 88.0859 -32.5195 L 20.6543 -32.5195 C 13.2812 -32.5195 9.76562 -29.0527 9.76562 -21.7285 L 9.76562 -9.42383 C 9.76562 -2.05078 13.2812 1.41602 20.6543 1.41602 Z"/>
  </g>
  <g id="Bold-S" transform="matrix(1 0 0 1 2283.87 696)">
   <path d="M 21.3867 -37.6465 L 90.8203 -37.6465 C 98.7305 -37.6465 102.441 -41.3574 102.441 -49.2188 L 102.441 -60.8398 C 102.441 -68.7012 98.7305 -72.4121 90.8203 -72.4121 L 21.3867 -72.4121 C 13.4766 -72.4121 9.76562 -68.7012 9.76562 -60.8398 L 9.76562 -49.2188 C 9.76562 -41.3574 13.4766 -37.6465 21.3867 -37.6465 Z M 21.3867 2.00195 L 90.8203 2.00195 C 98.7305 2.00195 102.441 -1.66016 102.441 -9.57031 L 102.441 -21.1914 C 102.441 -29.0527 98.7305 -32.7637 90.8203 -32.7637 L 21.3867 -32.7637 C 13.4766 -32.7637 9.76562 -29.0527 9.76562 -21.1914 L 9.76562 -9.57031 C 9.76562 -1.66016 13.4766 2.00195 21.3867 2.00195 Z"/>
  </g>
  <g id="Heavy-S" transform="matrix(1 0 0 1 2578.05 696)">
   <path d="M 22.4121 -37.3535 L 94.873 -37.3535 C 103.564 -37.3535 107.52 -41.3086 107.52 -50 L 107.52 -60.5957 C 107.52 -69.2871 103.564 -73.2422 94.873 -73.2422 L 22.4121 -73.2422 C 13.7207 -73.2422 9.76562 -69.2871 9.76562 -60.5957 L 9.76562 -50 C 9.76562 -41.3086 13.7207 -37.3535 22.4121 -37.3535 Z M 22.4121 2.83203 L 94.873 2.83203 C 103.564 2.83203 107.52 -1.12305 107.52 -9.81445 L 107.52 -20.4102 C 107.52 -29.1016 103.564 -33.0566 94.873 -33.0566 L 22.4121 -33.0566 C 13.7207 -33.0566 9.76562 -29.1016 9.76562 -20.4102 L 9.76562 -9.81445 C 9.76562 -1.12305 13.7207 2.83203 22.4121 2.83203 Z"/>
  </g>
  <g id="Black-S" transform="matrix(1 0 0 1 2872.49 696)">
   <path d="M 23.3887 -37.0117 L 98.4375 -37.0117 C 107.861 -37.0117 112.061 -41.2598 112.061 -50.6836 L 112.061 -60.3516 C 112.061 -69.7754 107.861 -74.0234 98.4375 -74.0234 L 23.3887 -74.0234 C 13.9648 -74.0234 9.76562 -69.7754 9.76562 -60.3516 L 9.76562 -50.6836 C 9.76562 -41.2598 13.9648 -37.0117 23.3887 -37.0117 Z M 23.3887 3.61328 L 98.4375 3.61328 C 107.861 3.61328 112.061 -0.634766 112.061 -10.0098 L 112.061 -19.7266 C 112.061 -29.1504 107.861 -33.3984 98.4375 -33.3984 L 23.3887 -33.3984 C 13.9648 -33.3984 9.76562 -29.1504 9.76562 -19.7266 L 9.76562 -10.0098 C 9.76562 -0.634766 13.9648 3.61328 23.3887 3.61328 Z"/>
  </g>
  <g id="Ultralight-M" transform="matrix(1 0 0 1 495.722 1126)">
   <path d="M 18.75 -39.6484 L 109.229 -39.6484 C 113.281 -39.6484 115.527 -41.4551 115.527 -45.8984 L 115.527 -71.582 C 115.527 -76.0254 113.281 -77.832 109.229 -77.832 L 18.75 -77.832 C 14.6973 -77.832 12.4512 -76.0254 12.4512 -71.582 L 12.4512 -45.8984 C 12.4512 -41.4551 14.6973 -39.6484 18.75 -39.6484 Z M 18.75 7.56836 L 109.229 7.56836 C 113.281 7.56836 115.527 5.76172 115.527 1.31836 L 115.527 -24.3652 C 115.527 -28.8086 113.281 -30.6152 109.229 -30.6152 L 18.75 -30.6152 C 14.6973 -30.6152 12.4512 -28.8086 12.4512 -24.3652 L 12.4512 1.31836 C 12.4512 5.76172 14.6973 7.56836 18.75 7.56836 Z"/>
  </g>
  <g id="Thin-M" transform="matrix(1 0 0 1 792.164 1126)">
   <path d="M 19.873 -39.5508 L 108.691 -39.5508 C 113.525 -39.5508 116.064 -41.7969 116.064 -46.9238 L 116.064 -70.9961 C 116.064 -76.123 113.525 -78.3691 108.691 -78.3691 L 19.873 -78.3691 C 15.0391 -78.3691 12.4512 -76.123 12.4512 -70.9961 L 12.4512 -46.9238 C 12.4512 -41.7969 15.0391 -39.5508 19.873 -39.5508 Z M 19.873 8.05664 L 108.691 8.05664 C 113.525 8.05664 116.064 5.81055 116.064 0.683594 L 116.064 -23.3887 C 116.064 -28.5156 113.525 -30.7617 108.691 -30.7617 L 19.873 -30.7617 C 15.0391 -30.7617 12.4512 -28.5156 12.4512 -23.3887 L 12.4512 0.683594 C 12.4512 5.81055 15.0391 8.05664 19.873 8.05664 Z"/>
  </g>
  <g id="Light-M" transform="matrix(1 0 0 1 1088.31 1126)">
   <path d="M 22.0215 -39.3555 L 107.568 -39.3555 C 113.916 -39.3555 117.139 -42.3828 117.139 -48.877 L 117.139 -69.873 C 117.139 -76.3672 113.916 -79.3945 107.568 -79.3945 L 22.0215 -79.3945 C 15.7227 -79.3945 12.4512 -76.3672 12.4512 -69.873 L 12.4512 -48.877 C 12.4512 -42.3828 15.7227 -39.3555 22.0215 -39.3555 Z M 22.0215 9.0332 L 107.568 9.0332 C 113.916 9.0332 117.139 6.00586 117.139 -0.488281 L 117.139 -21.4844 C 117.139 -27.9297 113.916 -30.957 107.568 -30.957 L 22.0215 -30.957 C 15.7227 -30.957 12.4512 -27.9297 12.4512 -21.4844 L 12.4512 -0.488281 C 12.4512 6.00586 15.7227 9.0332 22.0215 9.0332 Z"/>
  </g>
  <g id="Regular-M" transform="matrix(1 0 0 1 1384.61 1126)">
   <path d="M 23.6816 -39.209 L 106.738 -39.209 C 114.209 -39.209 117.969 -42.8711 117.969 -50.3906 L 117.969 -69.043 C 117.969 -76.5137 114.209 -80.127 106.738 -80.127 L 23.6816 -80.127 C 16.2109 -80.127 12.4512 -76.5137 12.4512 -69.043 L 12.4512 -50.3906 C 12.4512 -42.8711 16.2109 -39.209 23.6816 -39.209 Z M 23.6816 9.76562 L 106.738 9.76562 C 114.209 9.76562 117.969 6.15234 117.969 -1.36719 L 117.969 -20.0684 C 117.969 -27.4902 114.209 -31.1523 106.738 -31.1523 L 23.6816 -31.1523 C 16.2109 -31.1523 12.4512 -27.4902 12.4512 -20.0684 L 12.4512 -1.36719 C 12.4512 6.15234 16.2109 9.76562 23.6816 9.76562 Z"/>
  </g>
  <g id="Medium-M" transform="matrix(1 0 0 1 1679.51 1126)">
   <path d="M 24.6582 -38.9648 L 109.473 -38.9648 C 117.627 -38.9648 121.631 -42.8711 121.631 -51.0742 L 121.631 -68.75 C 121.631 -76.9043 117.627 -80.8105 109.473 -80.8105 L 24.6582 -80.8105 C 16.4551 -80.8105 12.4512 -76.9043 12.4512 -68.75 L 12.4512 -51.0742 C 12.4512 -42.8711 16.4551 -38.9648 24.6582 -38.9648 Z M 24.6582 10.4492 L 109.473 10.4492 C 117.627 10.4492 121.631 6.54297 121.631 -1.66016 L 121.631 -19.3359 C 121.631 -27.4902 117.627 -31.3965 109.473 -31.3965 L 24.6582 -31.3965 C 16.4551 -31.3965 12.4512 -27.4902 12.4512 -19.3359 L 12.4512 -1.66016 C 12.4512 6.54297 16.4551 10.4492 24.6582 10.4492 Z"/>
  </g>
  <g id="Semibold-M" transform="matrix(1 0 0 1 1974.83 1126)">
   <path d="M 25.3418 -38.7695 L 111.523 -38.7695 C 120.215 -38.7695 124.414 -42.9199 124.414 -51.6113 L 124.414 -68.5547 C 124.414 -77.2461 120.215 -81.3477 111.523 -81.3477 L 25.3418 -81.3477 C 16.6504 -81.3477 12.4512 -77.2461 12.4512 -68.5547 L 12.4512 -51.6113 C 12.4512 -42.9199 16.6504 -38.7695 25.3418 -38.7695 Z M 25.3418 10.9863 L 111.523 10.9863 C 120.215 10.9863 124.414 6.88477 124.414 -1.85547 L 124.414 -18.7988 C 124.414 -27.4902 120.215 -31.5918 111.523 -31.5918 L 25.3418 -31.5918 C 16.6504 -31.5918 12.4512 -27.4902 12.4512 -18.7988 L 12.4512 -1.85547 C 12.4512 6.88477 16.6504 10.9863 25.3418 10.9863 Z"/>
  </g>
  <g id="Bold-M" transform="matrix(1 0 0 1 2269.69 1126)">
   <path d="M 26.2695 -38.5254 L 114.258 -38.5254 C 123.633 -38.5254 128.076 -42.9199 128.076 -52.3438 L 128.076 -68.2617 C 128.076 -77.6855 123.633 -82.0312 114.258 -82.0312 L 26.2695 -82.0312 C 16.8945 -82.0312 12.4512 -77.6855 12.4512 -68.2617 L 12.4512 -52.3438 C 12.4512 -42.9199 16.8945 -38.5254 26.2695 -38.5254 Z M 26.2695 11.6699 L 114.258 11.6699 C 123.633 11.6699 128.076 7.27539 128.076 -2.09961 L 128.076 -18.0664 C 128.076 -27.4414 123.633 -31.8359 114.258 -31.8359 L 26.2695 -31.8359 C 16.8945 -31.8359 12.4512 -27.4414 12.4512 -18.0664 L 12.4512 -2.09961 C 12.4512 7.27539 16.8945 11.6699 26.2695 11.6699 Z"/>
  </g>
  <g id="Heavy-M" transform="matrix(1 0 0 1 2563.74 1126)">
   <path d="M 27.6855 -38.1836 L 118.213 -38.1836 C 128.613 -38.1836 133.447 -42.9688 133.447 -53.3691 L 133.447 -67.8711 C 133.447 -78.2715 128.613 -83.0566 118.213 -83.0566 L 27.6855 -83.0566 C 17.2852 -83.0566 12.4512 -78.2715 12.4512 -67.8711 L 12.4512 -53.3691 C 12.4512 -42.9688 17.2852 -38.1836 27.6855 -38.1836 Z M 27.6855 12.6465 L 118.213 12.6465 C 128.613 12.6465 133.447 7.86133 133.447 -2.53906 L 133.447 -17.041 C 133.447 -27.4414 128.613 -32.2266 118.213 -32.2266 L 27.6855 -32.2266 C 17.2852 -32.2266 12.4512 -27.4414 12.4512 -17.041 L 12.4512 -2.53906 C 12.4512 7.86133 17.2852 12.6465 27.6855 12.6465 Z"/>
  </g>
  <g id="Black-M" transform="matrix(1 0 0 1 2858.06 1126)">
   <path d="M 28.9062 -37.8418 L 121.777 -37.8418 C 133.057 -37.8418 138.184 -42.9688 138.184 -54.248 L 138.184 -67.5293 C 138.184 -78.8086 133.057 -83.9355 121.777 -83.9355 L 28.9062 -83.9355 C 17.5781 -83.9355 12.4512 -78.8086 12.4512 -67.5293 L 12.4512 -54.248 C 12.4512 -42.9688 17.5781 -37.8418 28.9062 -37.8418 Z M 28.9062 13.5742 L 121.777 13.5742 C 133.057 13.5742 138.184 8.39844 138.184 -2.88086 L 138.184 -16.1133 C 138.184 -27.3926 133.057 -32.5684 121.777 -32.5684 L 28.9062 -32.5684 C 17.5781 -32.5684 12.4512 -27.3926 12.4512 -16.1133 L 12.4512 -2.88086 C 12.4512 8.39844 17.5781 13.5742 28.9062 13.5742 Z"/>
  </g>
  <g id="Ultralight-L" transform="matrix(1 0 0 1 477.265 1556)">
   <path d="M 23.6816 -40.9668 L 141.211 -40.9668 C 146.094 -40.9668 148.779 -43.1641 148.779 -48.5352 L 148.779 -82.373 C 148.779 -87.793 146.094 -89.9902 141.211 -89.9902 L 23.6816 -89.9902 C 18.7988 -89.9902 16.0645 -87.793 16.0645 -82.373 L 16.0645 -48.5352 C 16.0645 -43.1641 18.7988 -40.9668 23.6816 -40.9668 Z M 23.6816 19.7754 L 141.211 19.7754 C 146.094 19.7754 148.779 17.5781 148.779 12.207 L 148.779 -21.6309 C 148.779 -27.0508 146.094 -29.248 141.211 -29.248 L 23.6816 -29.248 C 18.7988 -29.248 16.0645 -27.0508 16.0645 -21.6309 L 16.0645 12.207 C 16.0645 17.5781 18.7988 19.7754 23.6816 19.7754 Z"/>
  </g>
  <g id="Thin-L" transform="matrix(1 0 0 1 773.659 1556)">
   <path d="M 24.9512 -40.8691 L 140.576 -40.8691 C 146.338 -40.8691 149.414 -43.5059 149.414 -49.707 L 149.414 -81.7383 C 149.414 -87.9395 146.338 -90.5762 140.576 -90.5762 L 24.9512 -90.5762 C 19.1895 -90.5762 16.0645 -87.9395 16.0645 -81.7383 L 16.0645 -49.707 C 16.0645 -43.5059 19.1895 -40.8691 24.9512 -40.8691 Z M 24.9512 20.3613 L 140.576 20.3613 C 146.338 20.3613 149.414 17.6758 149.414 11.5234 L 149.414 -20.5566 C 149.414 -26.7578 146.338 -29.3945 140.576 -29.3945 L 24.9512 -29.3945 C 19.1895 -29.3945 16.0645 -26.7578 16.0645 -20.5566 L 16.0645 11.5234 C 16.0645 17.6758 19.1895 20.3613 24.9512 20.3613 Z"/>
  </g>
  <g id="Light-L" transform="matrix(1 0 0 1 1069.76 1556)">
   <path d="M 27.3926 -40.6738 L 139.355 -40.6738 C 146.777 -40.6738 150.635 -44.1895 150.635 -51.9043 L 150.635 -80.5176 C 150.635 -88.1836 146.777 -91.6992 139.355 -91.6992 L 27.3926 -91.6992 C 19.9219 -91.6992 16.0645 -88.1836 16.0645 -80.5176 L 16.0645 -51.9043 C 16.0645 -44.1895 19.9219 -40.6738 27.3926 -40.6738 Z M 27.3926 21.4355 L 139.355 21.4355 C 146.777 21.4355 150.635 17.8711 150.635 10.2051 L 150.635 -18.4082 C 150.635 -26.123 146.777 -29.6387 139.355 -29.6387 L 27.3926 -29.6387 C 19.9219 -29.6387 16.0645 -26.123 16.0645 -18.4082 L 16.0645 10.2051 C 16.0645 17.8711 19.9219 21.4355 27.3926 21.4355 Z"/>
  </g>
  <g id="Regular-L" transform="matrix(1 0 0 1 1366.01 1556)">
   <path d="M 29.248 -40.5273 L 138.428 -40.5273 C 147.119 -40.5273 151.562 -44.6777 151.562 -53.5645 L 151.562 -79.541 C 151.562 -88.3789 147.119 -92.5293 138.428 -92.5293 L 29.248 -92.5293 C 20.5078 -92.5293 16.0645 -88.3789 16.0645 -79.541 L 16.0645 -53.5645 C 16.0645 -44.6777 20.5078 -40.5273 29.248 -40.5273 Z M 29.248 22.2168 L 138.428 22.2168 C 147.119 22.2168 151.562 18.0176 151.562 9.17969 L 151.562 -16.7969 C 151.562 -25.6348 147.119 -29.834 138.428 -29.834 L 29.248 -29.834 C 20.5078 -29.834 16.0645 -25.6348 16.0645 -16.7969 L 16.0645 9.17969 C 16.0645 18.0176 20.5078 22.2168 29.248 22.2168 Z"/>
  </g>
  <g id="Medium-L" transform="matrix(1 0 0 1 1660.98 1556)">
   <path d="M 30.4199 -40.2344 L 140.723 -40.2344 C 150.293 -40.2344 155.078 -44.8242 155.078 -54.4922 L 155.078 -79.1504 C 155.078 -88.7695 150.293 -93.3105 140.723 -93.3105 L 30.4199 -93.3105 C 20.8496 -93.3105 16.0645 -88.7695 16.0645 -79.1504 L 16.0645 -54.4922 C 16.0645 -44.8242 20.8496 -40.2344 30.4199 -40.2344 Z M 30.4199 22.998 L 140.723 22.998 C 150.293 22.998 155.078 18.457 155.078 8.74023 L 155.078 -15.8691 C 155.078 -25.5371 150.293 -30.0781 140.723 -30.0781 L 30.4199 -30.0781 C 20.8496 -30.0781 16.0645 -25.5371 16.0645 -15.8691 L 16.0645 8.74023 C 16.0645 18.457 20.8496 22.998 30.4199 22.998 Z"/>
  </g>
  <g id="Semibold-L" transform="matrix(1 0 0 1 1956.35 1556)">
   <path d="M 31.3477 -40.0391 L 142.48 -40.0391 C 152.734 -40.0391 157.764 -44.873 157.764 -55.2246 L 157.764 -78.8086 C 157.764 -89.1113 152.734 -93.9453 142.48 -93.9453 L 31.3477 -93.9453 C 21.0938 -93.9453 16.0645 -89.1113 16.0645 -78.8086 L 16.0645 -55.2246 C 16.0645 -44.873 21.0938 -40.0391 31.3477 -40.0391 Z M 31.3477 23.584 L 142.48 23.584 C 152.734 23.584 157.764 18.75 157.764 8.44727 L 157.764 -15.1367 C 157.764 -25.4395 152.734 -30.2734 142.48 -30.2734 L 31.3477 -30.2734 C 21.0938 -30.2734 16.0645 -25.4395 16.0645 -15.1367 L 16.0645 8.44727 C 16.0645 18.75 21.0938 23.584 31.3477 23.584 Z"/>
  </g>
  <g id="Bold-L" transform="matrix(1 0 0 1 2251.31 1556)">
   <path d="M 32.5195 -39.7949 L 144.824 -39.7949 C 155.957 -39.7949 161.279 -45.0195 161.279 -56.1523 L 161.279 -78.3691 C 161.279 -89.502 155.957 -94.7266 144.824 -94.7266 L 32.5195 -94.7266 C 21.4355 -94.7266 16.0645 -89.502 16.0645 -78.3691 L 16.0645 -56.1523 C 16.0645 -45.0195 21.4355 -39.7949 32.5195 -39.7949 Z M 32.5195 24.3652 L 144.824 24.3652 C 155.957 24.3652 161.279 19.1406 161.279 8.00781 L 161.279 -14.209 C 161.279 -25.3418 155.957 -30.5664 144.824 -30.5664 L 32.5195 -30.5664 C 21.4355 -30.5664 16.0645 -25.3418 16.0645 -14.209 L 16.0645 8.00781 C 16.0645 19.1406 21.4355 24.3652 32.5195 24.3652 Z"/>
  </g>
  <g id="Heavy-L" transform="matrix(1 0 0 1 2545.45 1556)">
   <path d="M 34.2773 -39.4043 L 148.242 -39.4043 C 160.596 -39.4043 166.406 -45.166 166.406 -57.5684 L 166.406 -77.7832 C 166.406 -90.1367 160.596 -95.8496 148.242 -95.8496 L 34.2773 -95.8496 C 21.9238 -95.8496 16.0645 -90.1367 16.0645 -77.7832 L 16.0645 -57.5684 C 16.0645 -45.166 21.9238 -39.4043 34.2773 -39.4043 Z M 34.2773 25.4883 L 148.242 25.4883 C 160.596 25.4883 166.406 19.7266 166.406 7.37305 L 166.406 -12.8418 C 166.406 -25.1953 160.596 -30.957 148.242 -30.957 L 34.2773 -30.957 C 21.9238 -30.957 16.0645 -25.1953 16.0645 -12.8418 L 16.0645 7.37305 C 16.0645 19.7266 21.9238 25.4883 34.2773 25.4883 Z"/>
  </g>
  <g id="Black-L" transform="matrix(1 0 0 1 2839.87 1556)">
   <path d="M 35.8398 -39.1113 L 151.221 -39.1113 C 164.746 -39.1113 170.996 -45.3125 170.996 -58.7891 L 170.996 -77.1973 C 170.996 -90.6738 164.746 -96.875 151.221 -96.875 L 35.8398 -96.875 C 22.3633 -96.875 16.0645 -90.6738 16.0645 -77.1973 L 16.0645 -58.7891 C 16.0645 -45.3125 22.3633 -39.1113 35.8398 -39.1113 Z M 35.8398 26.5137 L 151.221 26.5137 C 164.746 26.5137 170.996 20.2637 170.996 6.83594 L 170.996 -11.6211 C 170.996 -25.0488 164.746 -31.2988 151.221 -31.2988 L 35.8398 -31.2988 C 22.3633 -31.2988 16.0645 -25.0488 16.0645 -11.6211 L 16.0645 6.83594 C 16.0645 20.2637 22.3633 26.5137 35.8398 26.5137 Z"/>
  </g>
 </g>
</svg>
