<?xml version="1.0" encoding="UTF-8"?>
<!--Generator: Apple Native CoreSVG 123-->
<!DOCTYPE svg
PUBLIC "-//W3C//DTD SVG 1.1//EN"
       "http://www.w3.org/Graphics/SVG/1.1/DTD/svg11.dtd">
<svg version="1.1" xmlns="http://www.w3.org/2000/svg" xmlns:xlink="http://www.w3.org/1999/xlink" width="3300" height="2200">
 <!--glyph: "uni100412.medium", point size: 100.000000, font version: "Version 15.0d4e20", template writer version: "2"-->
 <g id="Notes">
  <rect height="2200" id="artboard" style="fill:white;opacity:1" width="3300" x="0" y="0"/>
  <line id="" style="fill:none;stroke:black;opacity:1;stroke-width:0.5;" x1="263" x2="3036" y1="292" y2="292"/>
  <text style="stroke:none;fill:black;font-family:-apple-system,&quot;SF Pro Display&quot;,&quot;SF Pro Text&quot;,Helvetica,sans-serif;font-weight:bold;" transform="matrix(1 0 0 1 263 322)">Weight/Scale Variations</text>
  <text style="stroke:none;fill:black;font-family:-apple-system,&quot;SF Pro Display&quot;,&quot;SF Pro Text&quot;,Helvetica,sans-serif;text-anchor:middle;" transform="matrix(1 0 0 1 559.711 322)">Ultralight</text>
  <text style="stroke:none;fill:black;font-family:-apple-system,&quot;SF Pro Display&quot;,&quot;SF Pro Text&quot;,Helvetica,sans-serif;text-anchor:middle;" transform="matrix(1 0 0 1 856.422 322)">Thin</text>
  <text style="stroke:none;fill:black;font-family:-apple-system,&quot;SF Pro Display&quot;,&quot;SF Pro Text&quot;,Helvetica,sans-serif;text-anchor:middle;" transform="matrix(1 0 0 1 1153.13 322)">Light</text>
  <text style="stroke:none;fill:black;font-family:-apple-system,&quot;SF Pro Display&quot;,&quot;SF Pro Text&quot;,Helvetica,sans-serif;text-anchor:middle;" transform="matrix(1 0 0 1 1449.84 322)">Regular</text>
  <text style="stroke:none;fill:black;font-family:-apple-system,&quot;SF Pro Display&quot;,&quot;SF Pro Text&quot;,Helvetica,sans-serif;text-anchor:middle;" transform="matrix(1 0 0 1 1746.56 322)">Medium</text>
  <text style="stroke:none;fill:black;font-family:-apple-system,&quot;SF Pro Display&quot;,&quot;SF Pro Text&quot;,Helvetica,sans-serif;text-anchor:middle;" transform="matrix(1 0 0 1 2043.27 322)">Semibold</text>
  <text style="stroke:none;fill:black;font-family:-apple-system,&quot;SF Pro Display&quot;,&quot;SF Pro Text&quot;,Helvetica,sans-serif;text-anchor:middle;" transform="matrix(1 0 0 1 2339.98 322)">Bold</text>
  <text style="stroke:none;fill:black;font-family:-apple-system,&quot;SF Pro Display&quot;,&quot;SF Pro Text&quot;,Helvetica,sans-serif;text-anchor:middle;" transform="matrix(1 0 0 1 2636.69 322)">Heavy</text>
  <text style="stroke:none;fill:black;font-family:-apple-system,&quot;SF Pro Display&quot;,&quot;SF Pro Text&quot;,Helvetica,sans-serif;text-anchor:middle;" transform="matrix(1 0 0 1 2933.4 322)">Black</text>
  <line id="" style="fill:none;stroke:black;opacity:1;stroke-width:0.5;" x1="263" x2="3036" y1="1903" y2="1903"/>
  <g id="" transform="matrix(1 0 0 1 263 1933)">
   <path d="M 9.24805 0.830078 C 13.5547 0.830078 17.1387 -2.74414 17.1387 -7.05078 C 17.1387 -11.3574 13.5449 -14.9316 9.23828 -14.9316 C 4.94141 -14.9316 1.36719 -11.3574 1.36719 -7.05078 C 1.36719 -2.74414 4.95117 0.830078 9.24805 0.830078 Z M 9.24805 -0.654297 C 5.70312 -0.654297 2.87109 -3.49609 2.87109 -7.05078 C 2.87109 -10.6055 5.69336 -13.4473 9.23828 -13.4473 C 12.793 -13.4473 15.6348 -10.6055 15.6445 -7.05078 C 15.6543 -3.49609 12.8027 -0.654297 9.24805 -0.654297 Z M 9.22852 -3.42773 C 9.69727 -3.42773 9.9707 -3.74023 9.9707 -4.25781 L 9.9707 -6.31836 L 12.1973 -6.31836 C 12.6953 -6.31836 13.0371 -6.57227 13.0371 -7.04102 C 13.0371 -7.51953 12.7148 -7.7832 12.1973 -7.7832 L 9.9707 -7.7832 L 9.9707 -10.0098 C 9.9707 -10.5273 9.69727 -10.8496 9.22852 -10.8496 C 8.75977 -10.8496 8.50586 -10.5078 8.50586 -10.0098 L 8.50586 -7.7832 L 6.29883 -7.7832 C 5.78125 -7.7832 5.44922 -7.51953 5.44922 -7.04102 C 5.44922 -6.57227 5.80078 -6.31836 6.29883 -6.31836 L 8.50586 -6.31836 L 8.50586 -4.25781 C 8.50586 -3.75977 8.75977 -3.42773 9.22852 -3.42773 Z"/>
  </g>
  <g id="" transform="matrix(1 0 0 1 281.506 1933)">
   <path d="M 11.709 2.91016 C 17.1484 2.91016 21.6699 -1.60156 21.6699 -7.05078 C 21.6699 -12.4902 17.1387 -17.0117 11.6992 -17.0117 C 6.25 -17.0117 1.74805 -12.4902 1.74805 -7.05078 C 1.74805 -1.60156 6.25977 2.91016 11.709 2.91016 Z M 11.709 1.25 C 7.09961 1.25 3.41797 -2.44141 3.41797 -7.05078 C 3.41797 -11.6504 7.08984 -15.3516 11.6992 -15.3516 C 16.2988 -15.3516 20 -11.6504 20.0098 -7.05078 C 20.0195 -2.44141 16.3086 1.25 11.709 1.25 Z M 11.6797 -2.41211 C 12.207 -2.41211 12.5195 -2.77344 12.5195 -3.33984 L 12.5195 -6.23047 L 15.5762 -6.23047 C 16.123 -6.23047 16.5039 -6.51367 16.5039 -7.03125 C 16.5039 -7.55859 16.1426 -7.86133 15.5762 -7.86133 L 12.5195 -7.86133 L 12.5195 -10.9277 C 12.5195 -11.5039 12.207 -11.8555 11.6797 -11.8555 C 11.1621 -11.8555 10.8789 -11.4844 10.8789 -10.9277 L 10.8789 -7.86133 L 7.83203 -7.86133 C 7.25586 -7.86133 6.89453 -7.55859 6.89453 -7.03125 C 6.89453 -6.51367 7.28516 -6.23047 7.83203 -6.23047 L 10.8789 -6.23047 L 10.8789 -3.33984 C 10.8789 -2.79297 11.1621 -2.41211 11.6797 -2.41211 Z"/>
  </g>
  <g id="" transform="matrix(1 0 0 1 304.914 1933)">
   <path d="M 14.9707 5.67383 C 21.9336 5.67383 27.6855 -0.078125 27.6855 -7.04102 C 27.6855 -14.0039 21.9238 -19.7559 14.9609 -19.7559 C 7.99805 -19.7559 2.25586 -14.0039 2.25586 -7.04102 C 2.25586 -0.078125 8.00781 5.67383 14.9707 5.67383 Z M 14.9707 3.85742 C 8.92578 3.85742 4.08203 -1.00586 4.08203 -7.04102 C 4.08203 -13.0762 8.91602 -17.9395 14.9609 -17.9395 C 20.9961 -17.9395 25.8594 -13.0762 25.8691 -7.04102 C 25.8789 -1.00586 21.0059 3.85742 14.9707 3.85742 Z M 14.9414 -1.06445 C 15.5176 -1.06445 15.8594 -1.45508 15.8594 -2.06055 L 15.8594 -6.13281 L 20.0977 -6.13281 C 20.6934 -6.13281 21.1133 -6.46484 21.1133 -7.02148 C 21.1133 -7.59766 20.7227 -7.93945 20.0977 -7.93945 L 15.8594 -7.93945 L 15.8594 -12.1875 C 15.8594 -12.8027 15.5176 -13.1934 14.9414 -13.1934 C 14.3848 -13.1934 14.0625 -12.7832 14.0625 -12.1875 L 14.0625 -7.93945 L 9.82422 -7.93945 C 9.20898 -7.93945 8.80859 -7.59766 8.80859 -7.02148 C 8.80859 -6.46484 9.23828 -6.13281 9.82422 -6.13281 L 14.0625 -6.13281 L 14.0625 -2.06055 C 14.0625 -1.47461 14.3848 -1.06445 14.9414 -1.06445 Z"/>
  </g>
  <text style="stroke:none;fill:black;font-family:-apple-system,&quot;SF Pro Display&quot;,&quot;SF Pro Text&quot;,Helvetica,sans-serif;font-weight:bold;" transform="matrix(1 0 0 1 263 1953)">Design Variations</text>
  <text style="stroke:none;fill:black;font-family:-apple-system,&quot;SF Pro Display&quot;,&quot;SF Pro Text&quot;,Helvetica,sans-serif;" transform="matrix(1 0 0 1 263 1971)">Symbols are supported in up to nine weights and three scales.</text>
  <text style="stroke:none;fill:black;font-family:-apple-system,&quot;SF Pro Display&quot;,&quot;SF Pro Text&quot;,Helvetica,sans-serif;" transform="matrix(1 0 0 1 263 1989)">For optimal layout with text and other symbols, vertically align</text>
  <text style="stroke:none;fill:black;font-family:-apple-system,&quot;SF Pro Display&quot;,&quot;SF Pro Text&quot;,Helvetica,sans-serif;" transform="matrix(1 0 0 1 263 2007)">symbols with the adjacent text.</text>
  <rect height="14" id="" style="fill:#00AEEF;stroke:none;opacity:0.4;" width="3" x="776" y="1919"/>
  <g id="" transform="matrix(1 0 0 1 779 1933)">
   <path d="M 10.5273 0 L 12.373 0 L 7.17773 -14.0918 L 5.43945 -14.0918 L 0.244141 0 L 2.08984 0 L 3.50586 -4.0332 L 9.11133 -4.0332 Z M 6.2793 -11.9531 L 6.33789 -11.9531 L 8.59375 -5.52734 L 4.02344 -5.52734 Z"/>
  </g>
  <rect height="14" id="" style="fill:#00AEEF;stroke:none;opacity:0.4;" width="3" x="791.617" y="1919"/>
  <text style="stroke:none;fill:black;font-family:-apple-system,&quot;SF Pro Display&quot;,&quot;SF Pro Text&quot;,Helvetica,sans-serif;font-weight:bold;" transform="matrix(1 0 0 1 776 1953)">Side Bearings</text>
  <text style="stroke:none;fill:black;font-family:-apple-system,&quot;SF Pro Display&quot;,&quot;SF Pro Text&quot;,Helvetica,sans-serif;" transform="matrix(1 0 0 1 776 1971)">Horizontal padding on the left and right side of each symbol</text>
  <text style="stroke:none;fill:black;font-family:-apple-system,&quot;SF Pro Display&quot;,&quot;SF Pro Text&quot;,Helvetica,sans-serif;" transform="matrix(1 0 0 1 776 1989)">can be adjusted by modifying the width of the blue rectangles.</text>
  <text style="stroke:none;fill:black;font-family:-apple-system,&quot;SF Pro Display&quot;,&quot;SF Pro Text&quot;,Helvetica,sans-serif;" transform="matrix(1 0 0 1 776 2007)">Modifications are automatically applied proportionally to all</text>
  <text style="stroke:none;fill:black;font-family:-apple-system,&quot;SF Pro Display&quot;,&quot;SF Pro Text&quot;,Helvetica,sans-serif;" transform="matrix(1 0 0 1 776 2025)">scales and weights.</text>
  <g id="" transform="matrix(1 0 0 1 1289 1933)">
   <path d="M 2.96875 2.35352 L 3.80859 3.19336 C 4.84375 4.22852 6.12305 4.15039 7.19727 2.97852 L 16.1621 -6.82617 C 16.5527 -6.74805 16.9629 -6.8457 17.4902 -7.02148 C 18.1738 -7.25586 18.2715 -7.25586 18.3887 -7.13867 C 18.5352 -7.01172 18.4863 -6.89453 18.2422 -6.25 C 17.8809 -5.33203 17.8125 -4.79492 18.5547 -4.02344 L 19.4238 -3.13477 C 20.2734 -2.24609 21.3281 -2.26562 22.2168 -3.14453 L 25.0586 -5.97656 C 25.9473 -6.86523 25.957 -7.92969 25.0781 -8.7793 L 24.1797 -9.64844 C 23.4082 -10.4004 22.8711 -10.3516 21.9629 -9.98047 C 21.3184 -9.72656 21.2012 -9.6875 21.0645 -9.81445 C 20.9375 -9.93164 20.9473 -10.0391 21.1816 -10.7129 C 21.5332 -11.6895 21.5723 -12.2852 20.752 -13.0957 L 19.3359 -14.5117 C 15.1953 -18.6133 11.2305 -18.7402 7.65625 -15.4395 C 7.08008 -14.9023 6.99219 -14.1504 7.53906 -13.6133 L 7.79297 -13.3594 C 8.22266 -12.9297 8.86719 -12.8418 9.41406 -13.1152 C 11.0645 -13.9453 12.2559 -14.0234 13.457 -12.9785 L 13.0273 -11.416 C 12.8516 -10.8008 12.793 -10.3418 12.9199 -9.93164 L 3.18359 -1.04492 C 2.02148 0.0292969 1.93359 1.32812 2.96875 2.35352 Z M 8.96484 -14.4922 C 8.89648 -14.5703 8.86719 -14.6582 8.99414 -14.7559 C 11.709 -17.2852 15.0391 -16.8457 18.3496 -13.5254 L 19.6973 -12.168 C 20.0879 -11.7773 20.0977 -11.582 19.8828 -10.8691 C 19.6582 -10.127 19.502 -9.53125 20.1465 -8.88672 C 20.8105 -8.22266 21.2891 -8.41797 22.207 -8.63281 C 22.9004 -8.79883 23.0664 -8.79883 23.4473 -8.41797 L 24.0918 -7.77344 C 24.4043 -7.48047 24.4141 -7.32422 24.0723 -6.97266 L 21.2207 -4.13086 C 20.8887 -3.79883 20.7227 -3.79883 20.4297 -4.10156 L 19.7852 -4.75586 C 19.4141 -5.13672 19.4141 -5.30273 19.5801 -6.01562 C 19.7852 -6.88477 19.9805 -7.38281 19.3262 -8.04688 C 18.6719 -8.7207 18.0762 -8.57422 17.3438 -8.33008 C 16.5625 -8.06641 16.3281 -8.06641 15.8984 -8.49609 L 14.6094 -9.78516 C 14.1699 -10.2246 14.1309 -10.4395 14.2676 -10.9082 L 15.0293 -13.3984 C 13.3887 -15.2832 11.4941 -15.5566 9.20898 -14.4434 C 9.11133 -14.3945 9.04297 -14.4141 8.96484 -14.4922 Z M 3.96484 1.36719 C 3.52539 0.927734 3.54492 0.537109 4.14062 -0.00976562 L 13.7402 -8.81836 L 15 -7.55859 L 6.17188 2.02148 C 5.625 2.60742 5.24414 2.64648 4.79492 2.19727 Z"/>
  </g>
  <text style="stroke:none;fill:black;font-family:-apple-system,&quot;SF Pro Display&quot;,&quot;SF Pro Text&quot;,Helvetica,sans-serif;font-weight:bold;" transform="matrix(1 0 0 1 1289 1953)">Exporting</text>
  <text style="stroke:none;fill:black;font-family:-apple-system,&quot;SF Pro Display&quot;,&quot;SF Pro Text&quot;,Helvetica,sans-serif;" transform="matrix(1 0 0 1 1289 1971)">Symbols should be outlined when exporting to ensure the</text>
  <text style="stroke:none;fill:black;font-family:-apple-system,&quot;SF Pro Display&quot;,&quot;SF Pro Text&quot;,Helvetica,sans-serif;" transform="matrix(1 0 0 1 1289 1989)">design is preserved when submitting to Xcode.</text>
  <text id="template-version" style="stroke:none;fill:black;font-family:-apple-system,&quot;SF Pro Display&quot;,&quot;SF Pro Text&quot;,Helvetica,sans-serif;text-anchor:end;" transform="matrix(1 0 0 1 3036 1933)">Template v.0.1</text>
  <text style="stroke:none;fill:black;font-family:-apple-system,&quot;SF Pro Display&quot;,&quot;SF Pro Text&quot;,Helvetica,sans-serif;text-anchor:end;" transform="matrix(1 0 0 1 3036 1951)">Generated from square.fill.and.line.vertical.square.fill</text>
  <text style="stroke:none;fill:black;font-family:-apple-system,&quot;SF Pro Display&quot;,&quot;SF Pro Text&quot;,Helvetica,sans-serif;text-anchor:end;" transform="matrix(1 0 0 1 3036 1969)">Typeset at 100 points</text>
  <text style="stroke:none;fill:black;font-family:-apple-system,&quot;SF Pro Display&quot;,&quot;SF Pro Text&quot;,Helvetica,sans-serif;" transform="matrix(1 0 0 1 263 726)">Small</text>
  <text style="stroke:none;fill:black;font-family:-apple-system,&quot;SF Pro Display&quot;,&quot;SF Pro Text&quot;,Helvetica,sans-serif;" transform="matrix(1 0 0 1 263 1156)">Medium</text>
  <text style="stroke:none;fill:black;font-family:-apple-system,&quot;SF Pro Display&quot;,&quot;SF Pro Text&quot;,Helvetica,sans-serif;" transform="matrix(1 0 0 1 263 1586)">Large</text>
 </g>
 <g id="Guides">
  <g id="H-reference" style="fill:#27AAE1;stroke:none;" transform="matrix(1 0 0 1 339 696)">
   <path d="M 54.9316 0 L 57.666 0 L 30.5664 -70.459 L 28.0762 -70.459 L 0.976562 0 L 3.66211 0 L 12.9395 -24.4629 L 45.7031 -24.4629 Z M 29.1992 -67.0898 L 29.4434 -67.0898 L 44.8242 -26.709 L 13.8184 -26.709 Z"/>
  </g>
  <line id="Baseline-S" style="fill:none;stroke:#27AAE1;opacity:1;stroke-width:0.577;" x1="263" x2="3036" y1="696" y2="696"/>
  <line id="Capline-S" style="fill:none;stroke:#27AAE1;opacity:1;stroke-width:0.577;" x1="263" x2="3036" y1="625.541" y2="625.541"/>
  <g id="H-reference" style="fill:#27AAE1;stroke:none;" transform="matrix(1 0 0 1 339 1126)">
   <path d="M 54.9316 0 L 57.666 0 L 30.5664 -70.459 L 28.0762 -70.459 L 0.976562 0 L 3.66211 0 L 12.9395 -24.4629 L 45.7031 -24.4629 Z M 29.1992 -67.0898 L 29.4434 -67.0898 L 44.8242 -26.709 L 13.8184 -26.709 Z"/>
  </g>
  <line id="Baseline-M" style="fill:none;stroke:#27AAE1;opacity:1;stroke-width:0.577;" x1="263" x2="3036" y1="1126" y2="1126"/>
  <line id="Capline-M" style="fill:none;stroke:#27AAE1;opacity:1;stroke-width:0.577;" x1="263" x2="3036" y1="1055.54" y2="1055.54"/>
  <g id="H-reference" style="fill:#27AAE1;stroke:none;" transform="matrix(1 0 0 1 339 1556)">
   <path d="M 54.9316 0 L 57.666 0 L 30.5664 -70.459 L 28.0762 -70.459 L 0.976562 0 L 3.66211 0 L 12.9395 -24.4629 L 45.7031 -24.4629 Z M 29.1992 -67.0898 L 29.4434 -67.0898 L 44.8242 -26.709 L 13.8184 -26.709 Z"/>
  </g>
  <line id="Baseline-L" style="fill:none;stroke:#27AAE1;opacity:1;stroke-width:0.577;" x1="263" x2="3036" y1="1556" y2="1556"/>
  <line id="Capline-L" style="fill:none;stroke:#27AAE1;opacity:1;stroke-width:0.577;" x1="263" x2="3036" y1="1485.54" y2="1485.54"/>
  <rect height="119.336" id="left-margin" style="fill:#00AEEF;stroke:none;opacity:0.4;" width="12.4512" x="1361.78" y="1030.79"/>
  <rect height="119.336" id="right-margin" style="fill:#00AEEF;stroke:none;opacity:0.4;" width="12.5" x="1525.41" y="1030.79"/>
 </g>
 <g id="Symbols">
  <g id="Ultralight-S" transform="matrix(1 0 0 1 494.892 696)">
   <path d="M 63.7207 -72.1191 L 63.7207 1.75781 C 63.7207 2.39258 64.209 2.88086 64.7949 2.88086 C 65.4297 2.88086 65.918 2.39258 65.918 1.75781 L 65.918 -72.1191 C 65.918 -72.7051 65.4297 -73.1934 64.7949 -73.1934 C 64.209 -73.1934 63.7207 -72.7051 63.7207 -72.1191 Z M 14.9902 -14.5508 L 45.8008 -14.5508 C 49.1699 -14.5508 51.0254 -16.0645 51.0254 -19.7266 L 51.0254 -50.5859 C 51.0254 -54.248 49.1699 -55.7617 45.8008 -55.7617 L 14.9902 -55.7617 C 11.5723 -55.7617 9.76562 -54.248 9.76562 -50.5859 L 9.76562 -19.7266 C 9.76562 -16.0645 11.5723 -14.5508 14.9902 -14.5508 Z M 83.8379 -14.5508 L 114.648 -14.5508 C 118.018 -14.5508 119.873 -16.0645 119.873 -19.7266 L 119.873 -50.5859 C 119.873 -54.248 118.018 -55.7617 114.648 -55.7617 L 83.8379 -55.7617 C 80.4688 -55.7617 78.6133 -54.248 78.6133 -50.5859 L 78.6133 -19.7266 C 78.6133 -16.0645 80.4688 -14.5508 83.8379 -14.5508 Z"/>
  </g>
  <g id="Thin-S" transform="matrix(1 0 0 1 790.455 696)">
   <path d="M 64.4043 -72.2168 L 64.4043 1.9043 C 64.4043 2.73438 65.1367 3.41797 65.9668 3.41797 C 66.7969 3.41797 67.5293 2.73438 67.5293 1.9043 L 67.5293 -72.2168 C 67.5293 -73.0469 66.7969 -73.7305 65.9668 -73.7305 C 65.1367 -73.7305 64.4043 -73.0469 64.4043 -72.2168 Z M 15.9668 -14.0625 L 45.8008 -14.0625 C 49.8535 -14.0625 52.002 -15.9668 52.002 -20.2148 L 52.002 -50.0977 C 52.002 -54.3945 49.8535 -56.2988 45.8008 -56.2988 L 15.9668 -56.2988 C 11.9141 -56.2988 9.76562 -54.3945 9.76562 -50.0977 L 9.76562 -20.2148 C 9.76562 -15.9668 11.9141 -14.0625 15.9668 -14.0625 Z M 86.1328 -14.0625 L 115.967 -14.0625 C 120.02 -14.0625 122.168 -15.9668 122.168 -20.2148 L 122.168 -50.0977 C 122.168 -54.3945 120.02 -56.2988 115.967 -56.2988 L 86.1328 -56.2988 C 82.0801 -56.2988 79.9316 -54.3945 79.9316 -50.0977 L 79.9316 -20.2148 C 79.9316 -15.9668 82.0801 -14.0625 86.1328 -14.0625 Z"/>
  </g>
  <g id="Light-S" transform="matrix(1 0 0 1 1084.92 696)">
   <path d="M 65.7227 -72.4609 L 65.7227 2.05078 C 65.7227 3.41797 66.8945 4.44336 68.2129 4.44336 C 69.5312 4.44336 70.7031 3.41797 70.7031 2.05078 L 70.7031 -72.4609 C 70.7031 -73.7793 69.5312 -74.8047 68.2129 -74.8047 C 66.8945 -74.8047 65.7227 -73.7793 65.7227 -72.4609 Z M 17.9199 -13.0859 L 45.8008 -13.0859 C 51.2207 -13.0859 53.9551 -15.7227 53.9551 -21.1914 L 53.9551 -49.2188 C 53.9551 -54.6875 51.2207 -57.2754 45.8008 -57.2754 L 17.9199 -57.2754 C 12.5 -57.2754 9.76562 -54.6875 9.76562 -49.2188 L 9.76562 -21.1914 C 9.76562 -15.7227 12.5 -13.0859 17.9199 -13.0859 Z M 90.625 -13.0859 L 118.506 -13.0859 C 123.926 -13.0859 126.66 -15.7227 126.66 -21.1914 L 126.66 -49.2188 C 126.66 -54.6875 123.926 -57.2754 118.506 -57.2754 L 90.625 -57.2754 C 85.2051 -57.2754 82.4707 -54.6875 82.4707 -49.2188 L 82.4707 -21.1914 C 82.4707 -15.7227 85.2051 -13.0859 90.625 -13.0859 Z"/>
  </g>
  <g id="Regular-S" transform="matrix(1 0 0 1 1379.92 696)">
   <path d="M 66.6992 -72.6074 L 66.6992 2.19727 C 66.6992 3.90625 68.2129 5.22461 69.9219 5.22461 C 71.6309 5.22461 73.0957 3.90625 73.0957 2.19727 L 73.0957 -72.6074 C 73.0957 -74.3164 71.6309 -75.6348 69.9219 -75.6348 C 68.2129 -75.6348 66.6992 -74.3164 66.6992 -72.6074 Z M 19.3848 -12.4023 L 45.8008 -12.4023 C 52.1973 -12.4023 55.4199 -15.5273 55.4199 -21.875 L 55.4199 -48.5352 C 55.4199 -54.8828 52.1973 -58.0078 45.8008 -58.0078 L 19.3848 -58.0078 C 12.9395 -58.0078 9.76562 -54.8828 9.76562 -48.5352 L 9.76562 -21.875 C 9.76562 -15.5273 12.9395 -12.4023 19.3848 -12.4023 Z M 94.043 -12.4023 L 120.459 -12.4023 C 126.855 -12.4023 130.078 -15.5273 130.078 -21.875 L 130.078 -48.5352 C 130.078 -54.8828 126.855 -58.0078 120.459 -58.0078 L 94.043 -58.0078 C 87.5977 -58.0078 84.4238 -54.8828 84.4238 -48.5352 L 84.4238 -21.875 C 84.4238 -15.5273 87.5977 -12.4023 94.043 -12.4023 Z"/>
  </g>
  <g id="Medium-S" transform="matrix(1 0 0 1 1674.85 696)">
   <path d="M 67.9199 -72.6074 L 67.9199 2.19727 C 67.9199 4.29688 69.6777 5.81055 71.6797 5.81055 C 73.7305 5.81055 75.4883 4.29688 75.4883 2.19727 L 75.4883 -72.6074 C 75.4883 -74.707 73.7305 -76.2207 71.6797 -76.2207 C 69.7266 -76.2207 67.9199 -74.707 67.9199 -72.6074 Z M 20.0684 -11.5723 L 46.6797 -11.5723 C 53.6621 -11.5723 57.0312 -14.8926 57.0312 -21.8262 L 57.0312 -48.6328 C 57.0312 -55.5176 53.6621 -58.8379 46.6797 -58.8379 L 20.0684 -58.8379 C 13.1348 -58.8379 9.76562 -55.5176 9.76562 -48.6328 L 9.76562 -21.8262 C 9.76562 -14.8926 13.1348 -11.5723 20.0684 -11.5723 Z M 96.6797 -11.5723 L 123.291 -11.5723 C 130.273 -11.5723 133.643 -14.8926 133.643 -21.8262 L 133.643 -48.6328 C 133.643 -55.5176 130.273 -58.8379 123.291 -58.8379 L 96.6797 -58.8379 C 89.7461 -58.8379 86.377 -55.5176 86.377 -48.6328 L 86.377 -21.8262 C 86.377 -14.8926 89.7461 -11.5723 96.6797 -11.5723 Z"/>
  </g>
  <g id="Semibold-S" transform="matrix(1 0 0 1 1970.2 696)">
   <path d="M 68.7988 -72.6074 L 68.7988 2.19727 C 68.7988 4.58984 70.8008 6.25 73.0469 6.25 C 75.3906 6.25 77.3438 4.63867 77.3438 2.19727 L 77.3438 -72.6074 C 77.3438 -75 75.3418 -76.6602 73.0469 -76.6602 C 70.8496 -76.6602 68.7988 -75 68.7988 -72.6074 Z M 20.6543 -10.9375 L 47.4121 -10.9375 C 54.7363 -10.9375 58.252 -14.4531 58.252 -21.7773 L 58.252 -48.6328 C 58.252 -55.957 54.7363 -59.4727 47.4121 -59.4727 L 20.6543 -59.4727 C 13.2812 -59.4727 9.76562 -55.957 9.76562 -48.6328 L 9.76562 -21.7773 C 9.76562 -14.4531 13.2812 -10.9375 20.6543 -10.9375 Z M 98.7305 -10.9375 L 125.488 -10.9375 C 132.861 -10.9375 136.377 -14.4531 136.377 -21.7773 L 136.377 -48.6328 C 136.377 -55.957 132.861 -59.4727 125.488 -59.4727 L 98.7305 -59.4727 C 91.4062 -59.4727 87.8906 -55.957 87.8906 -48.6328 L 87.8906 -21.7773 C 87.8906 -14.4531 91.4062 -10.9375 98.7305 -10.9375 Z"/>
  </g>
  <g id="Bold-S" transform="matrix(1 0 0 1 2265.1 696)">
   <path d="M 69.9707 -72.6074 L 69.9707 2.19727 C 69.9707 4.98047 72.3145 6.88477 74.8535 6.88477 C 77.5391 6.88477 79.7363 5.0293 79.7363 2.19727 L 79.7363 -72.6074 C 79.7363 -75.3906 77.4902 -77.2461 74.8535 -77.2461 C 72.3633 -77.2461 69.9707 -75.3418 69.9707 -72.6074 Z M 21.3867 -10.1562 L 48.291 -10.1562 C 56.2012 -10.1562 59.9121 -13.8184 59.9121 -21.7285 L 59.9121 -48.7305 C 59.9121 -56.5918 56.2012 -60.2539 48.291 -60.2539 L 21.3867 -60.2539 C 13.4766 -60.2539 9.76562 -56.5918 9.76562 -48.7305 L 9.76562 -21.7285 C 9.76562 -13.8184 13.4766 -10.1562 21.3867 -10.1562 Z M 101.465 -10.1562 L 128.369 -10.1562 C 136.279 -10.1562 139.99 -13.8184 139.99 -21.7285 L 139.99 -48.7305 C 139.99 -56.5918 136.279 -60.2539 128.369 -60.2539 L 101.465 -60.2539 C 93.5547 -60.2539 89.8438 -56.5918 89.8438 -48.7305 L 89.8438 -21.7285 C 89.8438 -13.8184 93.5547 -10.1562 101.465 -10.1562 Z"/>
  </g>
  <g id="Heavy-S" transform="matrix(1 0 0 1 2559.2 696)">
   <path d="M 71.7285 -72.6074 L 71.7285 2.19727 C 71.7285 5.56641 74.4629 7.71484 77.4902 7.71484 C 80.6641 7.71484 83.252 5.61523 83.252 2.19727 L 83.252 -72.6074 C 83.252 -75.9766 80.5664 -78.125 77.4902 -78.125 C 74.5605 -78.125 71.7285 -75.9277 71.7285 -72.6074 Z M 22.4121 -8.93555 L 49.6094 -8.93555 C 58.3008 -8.93555 62.2559 -12.8906 62.2559 -21.6309 L 62.2559 -48.7793 C 62.2559 -57.5195 58.3008 -61.4746 49.6094 -61.4746 L 22.4121 -61.4746 C 13.7207 -61.4746 9.76562 -57.5195 9.76562 -48.7793 L 9.76562 -21.6309 C 9.76562 -12.8906 13.7207 -8.93555 22.4121 -8.93555 Z M 105.371 -8.93555 L 132.52 -8.93555 C 141.26 -8.93555 145.215 -12.8906 145.215 -21.6309 L 145.215 -48.7793 C 145.215 -57.5195 141.26 -61.4746 132.52 -61.4746 L 105.371 -61.4746 C 96.6797 -61.4746 92.6758 -57.5195 92.6758 -48.7793 L 92.6758 -21.6309 C 92.6758 -12.8906 96.6797 -8.93555 105.371 -8.93555 Z"/>
  </g>
  <g id="Black-S" transform="matrix(1 0 0 1 2853.57 696)">
   <path d="M 73.2422 -72.6074 L 73.2422 2.19727 C 73.2422 6.05469 76.3672 8.49609 79.834 8.49609 C 83.4473 8.49609 86.377 6.10352 86.377 2.19727 L 86.377 -72.6074 C 86.377 -76.4648 83.3496 -78.9062 79.834 -78.9062 C 76.5137 -78.9062 73.2422 -76.416 73.2422 -72.6074 Z M 23.3887 -7.91016 L 50.7812 -7.91016 C 60.2051 -7.91016 64.4043 -12.1094 64.4043 -21.5332 L 64.4043 -48.877 C 64.4043 -58.3008 60.2051 -62.5 50.7812 -62.5 L 23.3887 -62.5 C 13.9648 -62.5 9.76562 -58.3008 9.76562 -48.877 L 9.76562 -21.5332 C 9.76562 -12.1094 13.9648 -7.91016 23.3887 -7.91016 Z M 108.838 -7.91016 L 136.279 -7.91016 C 145.654 -7.91016 149.902 -12.1094 149.902 -21.5332 L 149.902 -48.877 C 149.902 -58.3008 145.654 -62.5 136.279 -62.5 L 108.838 -62.5 C 99.4629 -62.5 95.2637 -58.3008 95.2637 -48.877 L 95.2637 -21.5332 C 95.2637 -12.1094 99.4629 -7.91016 108.838 -7.91016 Z"/>
  </g>
  <g id="Ultralight-M" transform="matrix(1 0 0 1 477.436 1126)">
   <path d="M 81.1035 -82.2266 L 81.1035 11.9629 C 81.1035 12.6465 81.6406 13.1836 82.2754 13.1836 C 82.959 13.1836 83.4961 12.6465 83.4961 11.9629 L 83.4961 -82.2266 C 83.4961 -82.9102 82.959 -83.4473 82.2754 -83.4473 C 81.6406 -83.4473 81.1035 -82.9102 81.1035 -82.2266 Z M 18.75 -8.98438 L 58.4473 -8.98438 C 62.5 -8.98438 64.7461 -10.8398 64.7461 -15.2832 L 64.7461 -54.9805 C 64.7461 -59.4238 62.5 -61.2793 58.4473 -61.2793 L 18.75 -61.2793 C 14.6973 -61.2793 12.4512 -59.4238 12.4512 -54.9805 L 12.4512 -15.2832 C 12.4512 -10.8398 14.6973 -8.98438 18.75 -8.98438 Z M 106.104 -8.98438 L 145.85 -8.98438 C 149.902 -8.98438 152.1 -10.8398 152.1 -15.2832 L 152.1 -54.9805 C 152.1 -59.4238 149.902 -61.2793 145.85 -61.2793 L 106.104 -61.2793 C 102.051 -61.2793 99.8535 -59.4238 99.8535 -54.9805 L 99.8535 -15.2832 C 99.8535 -10.8398 102.051 -8.98438 106.104 -8.98438 Z"/>
  </g>
  <g id="Thin-M" transform="matrix(1 0 0 1 772.828 1126)">
   <path d="M 81.8359 -82.373 L 81.8359 12.0605 C 81.8359 13.0371 82.666 13.7695 83.5938 13.7695 C 84.5215 13.7695 85.3516 13.0371 85.3516 12.0605 L 85.3516 -82.373 C 85.3516 -83.3008 84.5215 -84.082 83.5938 -84.082 C 82.666 -84.082 81.8359 -83.3008 81.8359 -82.373 Z M 19.873 -8.44727 L 58.4473 -8.44727 C 63.2812 -8.44727 65.8691 -10.6934 65.8691 -15.8203 L 65.8691 -54.4922 C 65.8691 -59.6191 63.2812 -61.8164 58.4473 -61.8164 L 19.873 -61.8164 C 15.0391 -61.8164 12.4512 -59.6191 12.4512 -54.4922 L 12.4512 -15.8203 C 12.4512 -10.6934 15.0391 -8.44727 19.873 -8.44727 Z M 108.74 -8.44727 L 147.314 -8.44727 C 152.148 -8.44727 154.736 -10.6934 154.736 -15.8203 L 154.736 -54.4922 C 154.736 -59.6191 152.148 -61.8164 147.314 -61.8164 L 108.74 -61.8164 C 103.906 -61.8164 101.318 -59.6191 101.318 -54.4922 L 101.318 -15.8203 C 101.318 -10.6934 103.906 -8.44727 108.74 -8.44727 Z"/>
  </g>
  <g id="Light-M" transform="matrix(1 0 0 1 1067 1126)">
   <path d="M 83.3496 -82.6172 L 83.3496 12.3047 C 83.3496 13.8184 84.6191 14.9902 86.1328 14.9902 C 87.6465 14.9902 88.916 13.8184 88.916 12.3047 L 88.916 -82.6172 C 88.916 -84.1309 87.6465 -85.3027 86.1328 -85.3027 C 84.6191 -85.3027 83.3496 -84.1309 83.3496 -82.6172 Z M 22.0215 -7.37305 L 58.4473 -7.37305 C 64.7949 -7.37305 68.0176 -10.4004 68.0176 -16.8945 L 68.0176 -53.4668 C 68.0176 -59.9121 64.7949 -62.9395 58.4473 -62.9395 L 22.0215 -62.9395 C 15.7227 -62.9395 12.4512 -59.9121 12.4512 -53.4668 L 12.4512 -16.8945 C 12.4512 -10.4004 15.7227 -7.37305 22.0215 -7.37305 Z M 113.818 -7.37305 L 150.195 -7.37305 C 156.543 -7.37305 159.814 -10.4004 159.814 -16.8945 L 159.814 -53.4668 C 159.814 -59.9121 156.543 -62.9395 150.195 -62.9395 L 113.818 -62.9395 C 107.471 -62.9395 104.199 -59.9121 104.199 -53.4668 L 104.199 -16.8945 C 104.199 -10.4004 107.471 -7.37305 113.818 -7.37305 Z"/>
  </g>
  <g id="Regular-M" transform="matrix(1 0 0 1 1361.78 1126)">
   <path d="M 84.4727 -82.8613 L 84.4727 12.4512 C 84.4727 14.3555 86.1328 15.8691 88.0371 15.8691 C 89.9414 15.8691 91.6504 14.3555 91.6504 12.4512 L 91.6504 -82.8613 C 91.6504 -84.7656 89.9414 -86.2305 88.0371 -86.2305 C 86.1328 -86.2305 84.4727 -84.7656 84.4727 -82.8613 Z M 23.6816 -6.5918 L 58.4473 -6.5918 C 65.918 -6.5918 69.6777 -10.2051 69.6777 -17.7246 L 69.6777 -52.7344 C 69.6777 -60.1562 65.918 -63.8184 58.4473 -63.8184 L 23.6816 -63.8184 C 16.2109 -63.8184 12.4512 -60.1562 12.4512 -52.7344 L 12.4512 -17.7246 C 12.4512 -10.2051 16.2109 -6.5918 23.6816 -6.5918 Z M 117.627 -6.5918 L 152.393 -6.5918 C 159.863 -6.5918 163.623 -10.2051 163.623 -17.7246 L 163.623 -52.7344 C 163.623 -60.1562 159.863 -63.8184 152.393 -63.8184 L 117.627 -63.8184 C 110.156 -63.8184 106.396 -60.1562 106.396 -52.7344 L 106.396 -17.7246 C 106.396 -10.2051 110.156 -6.5918 117.627 -6.5918 Z"/>
  </g>
  <g id="Medium-M" transform="matrix(1 0 0 1 1656.44 1126)">
   <path d="M 85.791 -82.8613 L 85.791 12.5 C 85.791 14.8438 87.8418 16.5527 90.0879 16.5527 C 92.4316 16.5527 94.3848 14.8438 94.3848 12.5 L 94.3848 -82.8613 C 94.3848 -85.2051 92.3828 -86.9629 90.0879 -86.9629 C 87.8418 -86.9629 85.791 -85.2051 85.791 -82.8613 Z M 24.6582 -5.66406 L 59.375 -5.66406 C 67.5293 -5.66406 71.5332 -9.52148 71.5332 -17.7246 L 71.5332 -52.6855 C 71.5332 -60.8398 67.5293 -64.7461 59.375 -64.7461 L 24.6582 -64.7461 C 16.4551 -64.7461 12.4512 -60.8398 12.4512 -52.6855 L 12.4512 -17.7246 C 12.4512 -9.52148 16.4551 -5.66406 24.6582 -5.66406 Z M 120.85 -5.66406 L 155.566 -5.66406 C 163.721 -5.66406 167.725 -9.52148 167.725 -17.7246 L 167.725 -52.6855 C 167.725 -60.8398 163.721 -64.7461 155.566 -64.7461 L 120.85 -64.7461 C 112.646 -64.7461 108.643 -60.8398 108.643 -52.6855 L 108.643 -17.7246 C 108.643 -9.52148 112.646 -5.66406 120.85 -5.66406 Z"/>
  </g>
  <g id="Semibold-M" transform="matrix(1 0 0 1 1951.59 1126)">
   <path d="M 86.8164 -82.8613 L 86.8164 12.5 C 86.8164 15.1855 89.1113 17.0898 91.6992 17.0898 C 94.2871 17.0898 96.5332 15.2344 96.5332 12.5 L 96.5332 -82.8613 C 96.5332 -85.5957 94.2383 -87.5 91.6992 -87.5 C 89.1602 -87.5 86.8164 -85.5469 86.8164 -82.8613 Z M 25.3418 -4.93164 L 60.1074 -4.93164 C 68.7988 -4.93164 72.9492 -9.0332 72.9492 -17.7734 L 72.9492 -52.6367 C 72.9492 -61.3281 68.7988 -65.4297 60.1074 -65.4297 L 25.3418 -65.4297 C 16.6504 -65.4297 12.4512 -61.3281 12.4512 -52.6367 L 12.4512 -17.7734 C 12.4512 -9.0332 16.6504 -4.93164 25.3418 -4.93164 Z M 123.291 -4.93164 L 158.008 -4.93164 C 166.699 -4.93164 170.898 -9.0332 170.898 -17.7734 L 170.898 -52.6367 C 170.898 -61.3281 166.699 -65.4297 158.008 -65.4297 L 123.291 -65.4297 C 114.6 -65.4297 110.4 -61.3281 110.4 -52.6367 L 110.4 -17.7734 C 110.4 -9.0332 114.6 -4.93164 123.291 -4.93164 Z"/>
  </g>
  <g id="Bold-M" transform="matrix(1 0 0 1 2246.23 1126)">
   <path d="M 88.1836 -82.9102 L 88.1836 12.5 C 88.1836 15.6738 90.8203 17.8223 93.75 17.8223 C 96.7773 17.8223 99.3164 15.6738 99.3164 12.5 L 99.3164 -82.9102 C 99.3164 -86.0352 96.7285 -88.1836 93.75 -88.1836 C 90.8691 -88.1836 88.1836 -86.0352 88.1836 -82.9102 Z M 26.2695 -4.00391 L 61.0352 -4.00391 C 70.4102 -4.00391 74.8535 -8.39844 74.8535 -17.7734 L 74.8535 -52.6367 C 74.8535 -62.0117 70.4102 -66.3574 61.0352 -66.3574 L 26.2695 -66.3574 C 16.8945 -66.3574 12.4512 -62.0117 12.4512 -52.6367 L 12.4512 -17.7734 C 12.4512 -8.39844 16.8945 -4.00391 26.2695 -4.00391 Z M 126.514 -4.00391 L 161.23 -4.00391 C 170.605 -4.00391 175.049 -8.39844 175.049 -17.7734 L 175.049 -52.6367 C 175.049 -62.0117 170.605 -66.3574 161.23 -66.3574 L 126.514 -66.3574 C 117.09 -66.3574 112.646 -62.0117 112.646 -52.6367 L 112.646 -17.7734 C 112.646 -8.39844 117.09 -4.00391 126.514 -4.00391 Z"/>
  </g>
  <g id="Heavy-M" transform="matrix(1 0 0 1 2539.94 1126)">
   <path d="M 90.1367 -82.9102 L 90.1367 12.5 C 90.1367 16.3574 93.2617 18.8477 96.7773 18.8477 C 100.391 18.8477 103.369 16.4062 103.369 12.5 L 103.369 -82.9102 C 103.369 -86.7188 100.293 -89.2578 96.7773 -89.2578 C 93.3594 -89.2578 90.1367 -86.6699 90.1367 -82.9102 Z M 27.6855 -2.63672 L 62.3535 -2.63672 C 72.7539 -2.63672 77.5391 -7.42188 77.5391 -17.8223 L 77.5391 -52.5879 C 77.5391 -62.9395 72.7539 -67.7246 62.3535 -67.7246 L 27.6855 -67.7246 C 17.2852 -67.7246 12.4512 -62.9395 12.4512 -52.5879 L 12.4512 -17.8223 C 12.4512 -7.42188 17.2852 -2.63672 27.6855 -2.63672 Z M 131.152 -2.63672 L 165.869 -2.63672 C 176.27 -2.63672 181.055 -7.42188 181.055 -17.8223 L 181.055 -52.5879 C 181.055 -62.9395 176.27 -67.7246 165.869 -67.7246 L 131.152 -67.7246 C 120.801 -67.7246 115.967 -62.9395 115.967 -52.5879 L 115.967 -17.8223 C 115.967 -7.42188 120.801 -2.63672 131.152 -2.63672 Z"/>
  </g>
  <g id="Black-M" transform="matrix(1 0 0 1 2833.94 1126)">
   <path d="M 91.8945 -82.959 L 91.8945 12.5488 C 91.8945 16.9434 95.5078 19.7754 99.4629 19.7754 C 103.613 19.7754 107.031 17.041 107.031 12.5488 L 107.031 -82.959 C 107.031 -87.3535 103.467 -90.1855 99.4629 -90.1855 C 95.6055 -90.1855 91.8945 -87.3047 91.8945 -82.959 Z M 28.9062 -1.41602 L 63.5742 -1.41602 C 74.8535 -1.41602 79.9805 -6.5918 79.9805 -17.8711 L 79.9805 -52.5391 C 79.9805 -63.8184 74.8535 -68.9453 63.5742 -68.9453 L 28.9062 -68.9453 C 17.5781 -68.9453 12.4512 -63.8184 12.4512 -52.5391 L 12.4512 -17.8711 C 12.4512 -6.5918 17.5781 -1.41602 28.9062 -1.41602 Z M 135.352 -1.41602 L 170.02 -1.41602 C 181.299 -1.41602 186.426 -6.5918 186.426 -17.8711 L 186.426 -52.5391 C 186.426 -63.8184 181.299 -68.9453 170.02 -68.9453 L 135.352 -68.9453 C 124.072 -68.9453 118.945 -63.8184 118.945 -52.5391 L 118.945 -17.8711 C 118.945 -6.5918 124.072 -1.41602 135.352 -1.41602 Z"/>
  </g>
  <g id="Ultralight-L" transform="matrix(1 0 0 1 454.096 1556)">
   <path d="M 104.297 -95.8496 L 104.297 25.6348 C 104.297 26.3672 104.883 26.9531 105.615 26.9531 C 106.348 26.9531 106.934 26.3672 106.934 25.6348 L 106.934 -95.8496 C 106.934 -96.582 106.348 -97.168 105.615 -97.168 C 104.883 -97.168 104.297 -96.582 104.297 -95.8496 Z M 23.6816 -1.61133 L 75.4395 -1.61133 C 80.3223 -1.61133 83.0566 -3.80859 83.0566 -9.22852 L 83.0566 -60.9375 C 83.0566 -66.4062 80.3223 -68.5547 75.4395 -68.5547 L 23.6816 -68.5547 C 18.7988 -68.5547 16.0645 -66.4062 16.0645 -60.9375 L 16.0645 -9.22852 C 16.0645 -3.80859 18.7988 -1.61133 23.6816 -1.61133 Z M 135.791 -1.61133 L 187.549 -1.61133 C 192.432 -1.61133 195.166 -3.80859 195.166 -9.22852 L 195.166 -60.9375 C 195.166 -66.4062 192.432 -68.5547 187.549 -68.5547 L 135.791 -68.5547 C 130.908 -68.5547 128.174 -66.4062 128.174 -60.9375 L 128.174 -9.22852 C 128.174 -3.80859 130.908 -1.61133 135.791 -1.61133 Z"/>
  </g>
  <g id="Thin-L" transform="matrix(1 0 0 1 749.367 1556)">
   <path d="M 105.127 -95.9961 L 105.127 25.7324 C 105.127 26.8066 106.006 27.6367 107.08 27.6367 C 108.105 27.6367 108.984 26.8066 108.984 25.7324 L 108.984 -95.9961 C 108.984 -97.0215 108.105 -97.9004 107.08 -97.9004 C 106.006 -97.9004 105.127 -97.0215 105.127 -95.9961 Z M 24.9512 -1.02539 L 75.4395 -1.02539 C 81.2012 -1.02539 84.2773 -3.66211 84.2773 -9.86328 L 84.2773 -60.4004 C 84.2773 -66.5527 81.2012 -69.2383 75.4395 -69.2383 L 24.9512 -69.2383 C 19.1895 -69.2383 16.0645 -66.5527 16.0645 -60.4004 L 16.0645 -9.86328 C 16.0645 -3.66211 19.1895 -1.02539 24.9512 -1.02539 Z M 138.721 -1.02539 L 189.209 -1.02539 C 194.971 -1.02539 198.047 -3.66211 198.047 -9.86328 L 198.047 -60.4004 C 198.047 -66.5527 194.971 -69.2383 189.209 -69.2383 L 138.721 -69.2383 C 132.959 -69.2383 129.834 -66.5527 129.834 -60.4004 L 129.834 -9.86328 C 129.834 -3.66211 132.959 -1.02539 138.721 -1.02539 Z"/>
  </g>
  <g id="Light-L" transform="matrix(1 0 0 1 1043.22 1556)">
   <path d="M 106.787 -96.2891 L 106.787 25.9766 C 106.787 27.6367 108.252 28.9551 109.912 28.9551 C 111.572 28.9551 112.988 27.6367 112.988 25.9766 L 112.988 -96.2891 C 112.988 -97.9492 111.572 -99.2676 109.912 -99.2676 C 108.252 -99.2676 106.787 -97.9492 106.787 -96.2891 Z M 27.3926 0.195312 L 75.4395 0.195312 C 82.8613 0.195312 86.7188 -3.32031 86.7188 -11.0352 L 86.7188 -59.2773 C 86.7188 -66.9434 82.8613 -70.459 75.4395 -70.459 L 27.3926 -70.459 C 19.9219 -70.459 16.0645 -66.9434 16.0645 -59.2773 L 16.0645 -11.0352 C 16.0645 -3.32031 19.9219 0.195312 27.3926 0.195312 Z M 144.385 0.195312 L 192.432 0.195312 C 199.854 0.195312 203.711 -3.32031 203.711 -11.0352 L 203.711 -59.2773 C 203.711 -66.9434 199.854 -70.459 192.432 -70.459 L 144.385 -70.459 C 136.914 -70.459 133.057 -66.9434 133.057 -59.2773 L 133.057 -11.0352 C 133.057 -3.32031 136.914 0.195312 144.385 0.195312 Z"/>
  </g>
  <g id="Regular-L" transform="matrix(1 0 0 1 1337.81 1556)">
   <path d="M 108.057 -96.4844 L 108.057 26.1719 C 108.057 28.3203 109.912 29.9805 112.061 29.9805 C 114.16 29.9805 116.016 28.3203 116.016 26.1719 L 116.016 -96.4844 C 116.016 -98.6328 114.16 -100.293 112.061 -100.293 C 109.912 -100.293 108.057 -98.6328 108.057 -96.4844 Z M 29.248 1.07422 L 75.4395 1.07422 C 84.1309 1.07422 88.5742 -3.125 88.5742 -11.9629 L 88.5742 -58.3984 C 88.5742 -67.2363 84.1309 -71.3867 75.4395 -71.3867 L 29.248 -71.3867 C 20.5078 -71.3867 16.0645 -67.2363 16.0645 -58.3984 L 16.0645 -11.9629 C 16.0645 -3.125 20.5078 1.07422 29.248 1.07422 Z M 148.682 1.07422 L 194.873 1.07422 C 203.564 1.07422 208.008 -3.125 208.008 -11.9629 L 208.008 -58.3984 C 208.008 -67.2363 203.564 -71.3867 194.873 -71.3867 L 148.682 -71.3867 C 139.941 -71.3867 135.498 -67.2363 135.498 -58.3984 L 135.498 -11.9629 C 135.498 -3.125 139.941 1.07422 148.682 1.07422 Z"/>
  </g>
  <g id="Medium-L" transform="matrix(1 0 0 1 1632.25 1556)">
   <path d="M 109.521 -96.5332 L 109.521 26.2207 C 109.521 28.8574 111.768 30.8105 114.307 30.8105 C 116.895 30.8105 119.092 28.8574 119.092 26.2207 L 119.092 -96.5332 C 119.092 -99.1699 116.846 -101.123 114.307 -101.123 C 111.768 -101.123 109.521 -99.1699 109.521 -96.5332 Z M 30.4199 2.09961 L 76.2695 2.09961 C 85.8398 2.09961 90.625 -2.44141 90.625 -12.1582 L 90.625 -58.2031 C 90.625 -67.8711 85.8398 -72.4121 76.2695 -72.4121 L 30.4199 -72.4121 C 20.8496 -72.4121 16.0645 -67.8711 16.0645 -58.2031 L 16.0645 -12.1582 C 16.0645 -2.44141 20.8496 2.09961 30.4199 2.09961 Z M 152.344 2.09961 L 198.193 2.09961 C 207.764 2.09961 212.549 -2.44141 212.549 -12.1582 L 212.549 -58.2031 C 212.549 -67.8711 207.764 -72.4121 198.193 -72.4121 L 152.344 -72.4121 C 142.773 -72.4121 138.037 -67.8711 138.037 -58.2031 L 138.037 -12.1582 C 138.037 -2.44141 142.773 2.09961 152.344 2.09961 Z"/>
  </g>
  <g id="Semibold-L" transform="matrix(1 0 0 1 1927.23 1556)">
   <path d="M 110.645 -96.582 L 110.645 26.2695 C 110.645 29.248 113.184 31.4453 116.064 31.4453 C 118.994 31.4453 121.484 29.2969 121.484 26.2695 L 121.484 -96.582 C 121.484 -99.6094 118.945 -101.758 116.064 -101.758 C 113.232 -101.758 110.645 -99.5605 110.645 -96.582 Z M 31.3477 2.88086 L 76.9043 2.88086 C 87.1582 2.88086 92.1875 -1.95312 92.1875 -12.3047 L 92.1875 -58.1055 C 92.1875 -68.3594 87.1582 -73.1934 76.9043 -73.1934 L 31.3477 -73.1934 C 21.0938 -73.1934 16.0645 -68.3594 16.0645 -58.1055 L 16.0645 -12.3047 C 16.0645 -1.95312 21.0938 2.88086 31.3477 2.88086 Z M 155.176 2.88086 L 200.781 2.88086 C 210.986 2.88086 216.016 -1.95312 216.016 -12.3047 L 216.016 -58.1055 C 216.016 -68.3594 210.986 -73.1934 200.781 -73.1934 L 155.176 -73.1934 C 144.971 -73.1934 139.941 -68.3594 139.941 -58.1055 L 139.941 -12.3047 C 139.941 -1.95312 144.971 2.88086 155.176 2.88086 Z"/>
  </g>
  <g id="Bold-L" transform="matrix(1 0 0 1 2221.64 1556)">
   <path d="M 112.109 -96.6797 L 112.109 26.3184 C 112.109 29.7852 115.039 32.2754 118.359 32.2754 C 121.729 32.2754 124.561 29.834 124.561 26.3184 L 124.561 -96.6797 C 124.561 -100.146 121.68 -102.588 118.359 -102.588 C 115.088 -102.588 112.109 -100.146 112.109 -96.6797 Z M 32.5195 3.90625 L 77.7832 3.90625 C 88.8672 3.90625 94.2383 -1.31836 94.2383 -12.5 L 94.2383 -57.9102 C 94.2383 -69.043 88.8672 -74.2188 77.7832 -74.2188 L 32.5195 -74.2188 C 21.4355 -74.2188 16.0645 -69.043 16.0645 -57.9102 L 16.0645 -12.5 C 16.0645 -1.31836 21.4355 3.90625 32.5195 3.90625 Z M 158.936 3.90625 L 204.15 3.90625 C 215.234 3.90625 220.605 -1.31836 220.605 -12.5 L 220.605 -57.9102 C 220.605 -69.043 215.234 -74.2188 204.15 -74.2188 L 158.936 -74.2188 C 147.803 -74.2188 142.48 -69.043 142.48 -57.9102 L 142.48 -12.5 C 142.48 -1.31836 147.803 3.90625 158.936 3.90625 Z"/>
  </g>
  <g id="Heavy-L" transform="matrix(1 0 0 1 2515.03 1556)">
   <path d="M 114.209 -96.7285 L 114.209 26.3672 C 114.209 30.6152 117.773 33.4961 121.68 33.4961 C 125.732 33.4961 129.102 30.6641 129.102 26.3672 L 129.102 -96.7285 C 129.102 -100.977 125.635 -103.857 121.68 -103.857 C 117.822 -103.857 114.209 -100.928 114.209 -96.7285 Z M 34.2773 5.37109 L 79.0039 5.37109 C 91.3574 5.37109 97.2168 -0.390625 97.2168 -12.7441 L 97.2168 -57.6172 C 97.2168 -69.9707 91.3574 -75.7324 79.0039 -75.7324 L 34.2773 -75.7324 C 21.9238 -75.7324 16.0645 -69.9707 16.0645 -57.6172 L 16.0645 -12.7441 C 16.0645 -0.390625 21.9238 5.37109 34.2773 5.37109 Z M 164.307 5.37109 L 209.082 5.37109 C 221.436 5.37109 227.246 -0.390625 227.246 -12.7441 L 227.246 -57.6172 C 227.246 -69.9707 221.436 -75.7324 209.082 -75.7324 L 164.307 -75.7324 C 151.953 -75.7324 146.143 -69.9707 146.143 -57.6172 L 146.143 -12.7441 C 146.143 -0.390625 151.953 5.37109 164.307 5.37109 Z"/>
  </g>
  <g id="Black-L" transform="matrix(1 0 0 1 2808.77 1556)">
   <path d="M 116.113 -96.8262 L 116.113 26.416 C 116.113 31.2988 120.166 34.5703 124.658 34.5703 C 129.297 34.5703 133.154 31.3965 133.154 26.416 L 133.154 -96.8262 C 133.154 -101.709 129.15 -104.932 124.658 -104.932 C 120.264 -104.932 116.113 -101.611 116.113 -96.8262 Z M 35.8398 6.68945 L 80.127 6.68945 C 93.6035 6.68945 99.8535 0.439453 99.8535 -12.9883 L 99.8535 -57.373 C 99.8535 -70.8496 93.6035 -77.0508 80.127 -77.0508 L 35.8398 -77.0508 C 22.3633 -77.0508 16.0645 -70.8496 16.0645 -57.373 L 16.0645 -12.9883 C 16.0645 0.439453 22.3633 6.68945 35.8398 6.68945 Z M 169.189 6.68945 L 213.428 6.68945 C 226.904 6.68945 233.203 0.439453 233.203 -12.9883 L 233.203 -57.373 C 233.203 -70.8496 226.904 -77.0508 213.428 -77.0508 L 169.189 -77.0508 C 155.664 -77.0508 149.414 -70.8496 149.414 -57.373 L 149.414 -12.9883 C 149.414 0.439453 155.664 6.68945 169.189 6.68945 Z"/>
  </g>
 </g>
</svg>
