<?xml version="1.0" encoding="UTF-8"?>
<!--Generator: Apple Native CoreSVG 123-->
<!DOCTYPE svg
PUBLIC "-//W3C//DTD SVG 1.1//EN"
       "http://www.w3.org/Graphics/SVG/1.1/DTD/svg11.dtd">
<svg version="1.1" xmlns="http://www.w3.org/2000/svg" xmlns:xlink="http://www.w3.org/1999/xlink" width="3300" height="2200">
 <!--glyph: "uni1002E2.medium", point size: 100.000000, font version: "Version 15.0d4e20", template writer version: "2"-->
 <g id="Notes">
  <rect height="2200" id="artboard" style="fill:white;opacity:1" width="3300" x="0" y="0"/>
  <line id="" style="fill:none;stroke:black;opacity:1;stroke-width:0.5;" x1="263" x2="3036" y1="292" y2="292"/>
  <text style="stroke:none;fill:black;font-family:-apple-system,&quot;SF Pro Display&quot;,&quot;SF Pro Text&quot;,Helvetica,sans-serif;font-weight:bold;" transform="matrix(1 0 0 1 263 322)">Weight/Scale Variations</text>
  <text style="stroke:none;fill:black;font-family:-apple-system,&quot;SF Pro Display&quot;,&quot;SF Pro Text&quot;,Helvetica,sans-serif;text-anchor:middle;" transform="matrix(1 0 0 1 559.711 322)">Ultralight</text>
  <text style="stroke:none;fill:black;font-family:-apple-system,&quot;SF Pro Display&quot;,&quot;SF Pro Text&quot;,Helvetica,sans-serif;text-anchor:middle;" transform="matrix(1 0 0 1 856.422 322)">Thin</text>
  <text style="stroke:none;fill:black;font-family:-apple-system,&quot;SF Pro Display&quot;,&quot;SF Pro Text&quot;,Helvetica,sans-serif;text-anchor:middle;" transform="matrix(1 0 0 1 1153.13 322)">Light</text>
  <text style="stroke:none;fill:black;font-family:-apple-system,&quot;SF Pro Display&quot;,&quot;SF Pro Text&quot;,Helvetica,sans-serif;text-anchor:middle;" transform="matrix(1 0 0 1 1449.84 322)">Regular</text>
  <text style="stroke:none;fill:black;font-family:-apple-system,&quot;SF Pro Display&quot;,&quot;SF Pro Text&quot;,Helvetica,sans-serif;text-anchor:middle;" transform="matrix(1 0 0 1 1746.56 322)">Medium</text>
  <text style="stroke:none;fill:black;font-family:-apple-system,&quot;SF Pro Display&quot;,&quot;SF Pro Text&quot;,Helvetica,sans-serif;text-anchor:middle;" transform="matrix(1 0 0 1 2043.27 322)">Semibold</text>
  <text style="stroke:none;fill:black;font-family:-apple-system,&quot;SF Pro Display&quot;,&quot;SF Pro Text&quot;,Helvetica,sans-serif;text-anchor:middle;" transform="matrix(1 0 0 1 2339.98 322)">Bold</text>
  <text style="stroke:none;fill:black;font-family:-apple-system,&quot;SF Pro Display&quot;,&quot;SF Pro Text&quot;,Helvetica,sans-serif;text-anchor:middle;" transform="matrix(1 0 0 1 2636.69 322)">Heavy</text>
  <text style="stroke:none;fill:black;font-family:-apple-system,&quot;SF Pro Display&quot;,&quot;SF Pro Text&quot;,Helvetica,sans-serif;text-anchor:middle;" transform="matrix(1 0 0 1 2933.4 322)">Black</text>
  <line id="" style="fill:none;stroke:black;opacity:1;stroke-width:0.5;" x1="263" x2="3036" y1="1903" y2="1903"/>
  <g id="" transform="matrix(1 0 0 1 263 1933)">
   <path d="M 9.24805 0.830078 C 13.5547 0.830078 17.1387 -2.74414 17.1387 -7.05078 C 17.1387 -11.3574 13.5449 -14.9316 9.23828 -14.9316 C 4.94141 -14.9316 1.36719 -11.3574 1.36719 -7.05078 C 1.36719 -2.74414 4.95117 0.830078 9.24805 0.830078 Z M 9.24805 -0.654297 C 5.70312 -0.654297 2.87109 -3.49609 2.87109 -7.05078 C 2.87109 -10.6055 5.69336 -13.4473 9.23828 -13.4473 C 12.793 -13.4473 15.6348 -10.6055 15.6445 -7.05078 C 15.6543 -3.49609 12.8027 -0.654297 9.24805 -0.654297 Z M 9.22852 -3.42773 C 9.69727 -3.42773 9.9707 -3.74023 9.9707 -4.25781 L 9.9707 -6.31836 L 12.1973 -6.31836 C 12.6953 -6.31836 13.0371 -6.57227 13.0371 -7.04102 C 13.0371 -7.51953 12.7148 -7.7832 12.1973 -7.7832 L 9.9707 -7.7832 L 9.9707 -10.0098 C 9.9707 -10.5273 9.69727 -10.8496 9.22852 -10.8496 C 8.75977 -10.8496 8.50586 -10.5078 8.50586 -10.0098 L 8.50586 -7.7832 L 6.29883 -7.7832 C 5.78125 -7.7832 5.44922 -7.51953 5.44922 -7.04102 C 5.44922 -6.57227 5.80078 -6.31836 6.29883 -6.31836 L 8.50586 -6.31836 L 8.50586 -4.25781 C 8.50586 -3.75977 8.75977 -3.42773 9.22852 -3.42773 Z"/>
  </g>
  <g id="" transform="matrix(1 0 0 1 281.506 1933)">
   <path d="M 11.709 2.91016 C 17.1484 2.91016 21.6699 -1.60156 21.6699 -7.05078 C 21.6699 -12.4902 17.1387 -17.0117 11.6992 -17.0117 C 6.25 -17.0117 1.74805 -12.4902 1.74805 -7.05078 C 1.74805 -1.60156 6.25977 2.91016 11.709 2.91016 Z M 11.709 1.25 C 7.09961 1.25 3.41797 -2.44141 3.41797 -7.05078 C 3.41797 -11.6504 7.08984 -15.3516 11.6992 -15.3516 C 16.2988 -15.3516 20 -11.6504 20.0098 -7.05078 C 20.0195 -2.44141 16.3086 1.25 11.709 1.25 Z M 11.6797 -2.41211 C 12.207 -2.41211 12.5195 -2.77344 12.5195 -3.33984 L 12.5195 -6.23047 L 15.5762 -6.23047 C 16.123 -6.23047 16.5039 -6.51367 16.5039 -7.03125 C 16.5039 -7.55859 16.1426 -7.86133 15.5762 -7.86133 L 12.5195 -7.86133 L 12.5195 -10.9277 C 12.5195 -11.5039 12.207 -11.8555 11.6797 -11.8555 C 11.1621 -11.8555 10.8789 -11.4844 10.8789 -10.9277 L 10.8789 -7.86133 L 7.83203 -7.86133 C 7.25586 -7.86133 6.89453 -7.55859 6.89453 -7.03125 C 6.89453 -6.51367 7.28516 -6.23047 7.83203 -6.23047 L 10.8789 -6.23047 L 10.8789 -3.33984 C 10.8789 -2.79297 11.1621 -2.41211 11.6797 -2.41211 Z"/>
  </g>
  <g id="" transform="matrix(1 0 0 1 304.914 1933)">
   <path d="M 14.9707 5.67383 C 21.9336 5.67383 27.6855 -0.078125 27.6855 -7.04102 C 27.6855 -14.0039 21.9238 -19.7559 14.9609 -19.7559 C 7.99805 -19.7559 2.25586 -14.0039 2.25586 -7.04102 C 2.25586 -0.078125 8.00781 5.67383 14.9707 5.67383 Z M 14.9707 3.85742 C 8.92578 3.85742 4.08203 -1.00586 4.08203 -7.04102 C 4.08203 -13.0762 8.91602 -17.9395 14.9609 -17.9395 C 20.9961 -17.9395 25.8594 -13.0762 25.8691 -7.04102 C 25.8789 -1.00586 21.0059 3.85742 14.9707 3.85742 Z M 14.9414 -1.06445 C 15.5176 -1.06445 15.8594 -1.45508 15.8594 -2.06055 L 15.8594 -6.13281 L 20.0977 -6.13281 C 20.6934 -6.13281 21.1133 -6.46484 21.1133 -7.02148 C 21.1133 -7.59766 20.7227 -7.93945 20.0977 -7.93945 L 15.8594 -7.93945 L 15.8594 -12.1875 C 15.8594 -12.8027 15.5176 -13.1934 14.9414 -13.1934 C 14.3848 -13.1934 14.0625 -12.7832 14.0625 -12.1875 L 14.0625 -7.93945 L 9.82422 -7.93945 C 9.20898 -7.93945 8.80859 -7.59766 8.80859 -7.02148 C 8.80859 -6.46484 9.23828 -6.13281 9.82422 -6.13281 L 14.0625 -6.13281 L 14.0625 -2.06055 C 14.0625 -1.47461 14.3848 -1.06445 14.9414 -1.06445 Z"/>
  </g>
  <text style="stroke:none;fill:black;font-family:-apple-system,&quot;SF Pro Display&quot;,&quot;SF Pro Text&quot;,Helvetica,sans-serif;font-weight:bold;" transform="matrix(1 0 0 1 263 1953)">Design Variations</text>
  <text style="stroke:none;fill:black;font-family:-apple-system,&quot;SF Pro Display&quot;,&quot;SF Pro Text&quot;,Helvetica,sans-serif;" transform="matrix(1 0 0 1 263 1971)">Symbols are supported in up to nine weights and three scales.</text>
  <text style="stroke:none;fill:black;font-family:-apple-system,&quot;SF Pro Display&quot;,&quot;SF Pro Text&quot;,Helvetica,sans-serif;" transform="matrix(1 0 0 1 263 1989)">For optimal layout with text and other symbols, vertically align</text>
  <text style="stroke:none;fill:black;font-family:-apple-system,&quot;SF Pro Display&quot;,&quot;SF Pro Text&quot;,Helvetica,sans-serif;" transform="matrix(1 0 0 1 263 2007)">symbols with the adjacent text.</text>
  <rect height="14" id="" style="fill:#00AEEF;stroke:none;opacity:0.4;" width="3" x="776" y="1919"/>
  <g id="" transform="matrix(1 0 0 1 779 1933)">
   <path d="M 10.5273 0 L 12.373 0 L 7.17773 -14.0918 L 5.43945 -14.0918 L 0.244141 0 L 2.08984 0 L 3.50586 -4.0332 L 9.11133 -4.0332 Z M 6.2793 -11.9531 L 6.33789 -11.9531 L 8.59375 -5.52734 L 4.02344 -5.52734 Z"/>
  </g>
  <rect height="14" id="" style="fill:#00AEEF;stroke:none;opacity:0.4;" width="3" x="791.617" y="1919"/>
  <text style="stroke:none;fill:black;font-family:-apple-system,&quot;SF Pro Display&quot;,&quot;SF Pro Text&quot;,Helvetica,sans-serif;font-weight:bold;" transform="matrix(1 0 0 1 776 1953)">Side Bearings</text>
  <text style="stroke:none;fill:black;font-family:-apple-system,&quot;SF Pro Display&quot;,&quot;SF Pro Text&quot;,Helvetica,sans-serif;" transform="matrix(1 0 0 1 776 1971)">Horizontal padding on the left and right side of each symbol</text>
  <text style="stroke:none;fill:black;font-family:-apple-system,&quot;SF Pro Display&quot;,&quot;SF Pro Text&quot;,Helvetica,sans-serif;" transform="matrix(1 0 0 1 776 1989)">can be adjusted by modifying the width of the blue rectangles.</text>
  <text style="stroke:none;fill:black;font-family:-apple-system,&quot;SF Pro Display&quot;,&quot;SF Pro Text&quot;,Helvetica,sans-serif;" transform="matrix(1 0 0 1 776 2007)">Modifications are automatically applied proportionally to all</text>
  <text style="stroke:none;fill:black;font-family:-apple-system,&quot;SF Pro Display&quot;,&quot;SF Pro Text&quot;,Helvetica,sans-serif;" transform="matrix(1 0 0 1 776 2025)">scales and weights.</text>
  <g id="" transform="matrix(1 0 0 1 1289 1933)">
   <path d="M 2.96875 2.35352 L 3.80859 3.19336 C 4.84375 4.22852 6.12305 4.15039 7.19727 2.97852 L 16.1621 -6.82617 C 16.5527 -6.74805 16.9629 -6.8457 17.4902 -7.02148 C 18.1738 -7.25586 18.2715 -7.25586 18.3887 -7.13867 C 18.5352 -7.01172 18.4863 -6.89453 18.2422 -6.25 C 17.8809 -5.33203 17.8125 -4.79492 18.5547 -4.02344 L 19.4238 -3.13477 C 20.2734 -2.24609 21.3281 -2.26562 22.2168 -3.14453 L 25.0586 -5.97656 C 25.9473 -6.86523 25.957 -7.92969 25.0781 -8.7793 L 24.1797 -9.64844 C 23.4082 -10.4004 22.8711 -10.3516 21.9629 -9.98047 C 21.3184 -9.72656 21.2012 -9.6875 21.0645 -9.81445 C 20.9375 -9.93164 20.9473 -10.0391 21.1816 -10.7129 C 21.5332 -11.6895 21.5723 -12.2852 20.752 -13.0957 L 19.3359 -14.5117 C 15.1953 -18.6133 11.2305 -18.7402 7.65625 -15.4395 C 7.08008 -14.9023 6.99219 -14.1504 7.53906 -13.6133 L 7.79297 -13.3594 C 8.22266 -12.9297 8.86719 -12.8418 9.41406 -13.1152 C 11.0645 -13.9453 12.2559 -14.0234 13.457 -12.9785 L 13.0273 -11.416 C 12.8516 -10.8008 12.793 -10.3418 12.9199 -9.93164 L 3.18359 -1.04492 C 2.02148 0.0292969 1.93359 1.32812 2.96875 2.35352 Z M 8.96484 -14.4922 C 8.89648 -14.5703 8.86719 -14.6582 8.99414 -14.7559 C 11.709 -17.2852 15.0391 -16.8457 18.3496 -13.5254 L 19.6973 -12.168 C 20.0879 -11.7773 20.0977 -11.582 19.8828 -10.8691 C 19.6582 -10.127 19.502 -9.53125 20.1465 -8.88672 C 20.8105 -8.22266 21.2891 -8.41797 22.207 -8.63281 C 22.9004 -8.79883 23.0664 -8.79883 23.4473 -8.41797 L 24.0918 -7.77344 C 24.4043 -7.48047 24.4141 -7.32422 24.0723 -6.97266 L 21.2207 -4.13086 C 20.8887 -3.79883 20.7227 -3.79883 20.4297 -4.10156 L 19.7852 -4.75586 C 19.4141 -5.13672 19.4141 -5.30273 19.5801 -6.01562 C 19.7852 -6.88477 19.9805 -7.38281 19.3262 -8.04688 C 18.6719 -8.7207 18.0762 -8.57422 17.3438 -8.33008 C 16.5625 -8.06641 16.3281 -8.06641 15.8984 -8.49609 L 14.6094 -9.78516 C 14.1699 -10.2246 14.1309 -10.4395 14.2676 -10.9082 L 15.0293 -13.3984 C 13.3887 -15.2832 11.4941 -15.5566 9.20898 -14.4434 C 9.11133 -14.3945 9.04297 -14.4141 8.96484 -14.4922 Z M 3.96484 1.36719 C 3.52539 0.927734 3.54492 0.537109 4.14062 -0.00976562 L 13.7402 -8.81836 L 15 -7.55859 L 6.17188 2.02148 C 5.625 2.60742 5.24414 2.64648 4.79492 2.19727 Z"/>
  </g>
  <text style="stroke:none;fill:black;font-family:-apple-system,&quot;SF Pro Display&quot;,&quot;SF Pro Text&quot;,Helvetica,sans-serif;font-weight:bold;" transform="matrix(1 0 0 1 1289 1953)">Exporting</text>
  <text style="stroke:none;fill:black;font-family:-apple-system,&quot;SF Pro Display&quot;,&quot;SF Pro Text&quot;,Helvetica,sans-serif;" transform="matrix(1 0 0 1 1289 1971)">Symbols should be outlined when exporting to ensure the</text>
  <text style="stroke:none;fill:black;font-family:-apple-system,&quot;SF Pro Display&quot;,&quot;SF Pro Text&quot;,Helvetica,sans-serif;" transform="matrix(1 0 0 1 1289 1989)">design is preserved when submitting to Xcode.</text>
  <text id="template-version" style="stroke:none;fill:black;font-family:-apple-system,&quot;SF Pro Display&quot;,&quot;SF Pro Text&quot;,Helvetica,sans-serif;text-anchor:end;" transform="matrix(1 0 0 1 3036 1933)">Template v.0.1</text>
  <text style="stroke:none;fill:black;font-family:-apple-system,&quot;SF Pro Display&quot;,&quot;SF Pro Text&quot;,Helvetica,sans-serif;text-anchor:end;" transform="matrix(1 0 0 1 3036 1951)">Generated from tag.fill</text>
  <text style="stroke:none;fill:black;font-family:-apple-system,&quot;SF Pro Display&quot;,&quot;SF Pro Text&quot;,Helvetica,sans-serif;text-anchor:end;" transform="matrix(1 0 0 1 3036 1969)">Typeset at 100 points</text>
  <text style="stroke:none;fill:black;font-family:-apple-system,&quot;SF Pro Display&quot;,&quot;SF Pro Text&quot;,Helvetica,sans-serif;" transform="matrix(1 0 0 1 263 726)">Small</text>
  <text style="stroke:none;fill:black;font-family:-apple-system,&quot;SF Pro Display&quot;,&quot;SF Pro Text&quot;,Helvetica,sans-serif;" transform="matrix(1 0 0 1 263 1156)">Medium</text>
  <text style="stroke:none;fill:black;font-family:-apple-system,&quot;SF Pro Display&quot;,&quot;SF Pro Text&quot;,Helvetica,sans-serif;" transform="matrix(1 0 0 1 263 1586)">Large</text>
 </g>
 <g id="Guides">
  <g id="H-reference" style="fill:#27AAE1;stroke:none;" transform="matrix(1 0 0 1 339 696)">
   <path d="M 54.9316 0 L 57.666 0 L 30.5664 -70.459 L 28.0762 -70.459 L 0.976562 0 L 3.66211 0 L 12.9395 -24.4629 L 45.7031 -24.4629 Z M 29.1992 -67.0898 L 29.4434 -67.0898 L 44.8242 -26.709 L 13.8184 -26.709 Z"/>
  </g>
  <line id="Baseline-S" style="fill:none;stroke:#27AAE1;opacity:1;stroke-width:0.577;" x1="263" x2="3036" y1="696" y2="696"/>
  <line id="Capline-S" style="fill:none;stroke:#27AAE1;opacity:1;stroke-width:0.577;" x1="263" x2="3036" y1="625.541" y2="625.541"/>
  <g id="H-reference" style="fill:#27AAE1;stroke:none;" transform="matrix(1 0 0 1 339 1126)">
   <path d="M 54.9316 0 L 57.666 0 L 30.5664 -70.459 L 28.0762 -70.459 L 0.976562 0 L 3.66211 0 L 12.9395 -24.4629 L 45.7031 -24.4629 Z M 29.1992 -67.0898 L 29.4434 -67.0898 L 44.8242 -26.709 L 13.8184 -26.709 Z"/>
  </g>
  <line id="Baseline-M" style="fill:none;stroke:#27AAE1;opacity:1;stroke-width:0.577;" x1="263" x2="3036" y1="1126" y2="1126"/>
  <line id="Capline-M" style="fill:none;stroke:#27AAE1;opacity:1;stroke-width:0.577;" x1="263" x2="3036" y1="1055.54" y2="1055.54"/>
  <g id="H-reference" style="fill:#27AAE1;stroke:none;" transform="matrix(1 0 0 1 339 1556)">
   <path d="M 54.9316 0 L 57.666 0 L 30.5664 -70.459 L 28.0762 -70.459 L 0.976562 0 L 3.66211 0 L 12.9395 -24.4629 L 45.7031 -24.4629 Z M 29.1992 -67.0898 L 29.4434 -67.0898 L 44.8242 -26.709 L 13.8184 -26.709 Z"/>
  </g>
  <line id="Baseline-L" style="fill:none;stroke:#27AAE1;opacity:1;stroke-width:0.577;" x1="263" x2="3036" y1="1556" y2="1556"/>
  <line id="Capline-L" style="fill:none;stroke:#27AAE1;opacity:1;stroke-width:0.577;" x1="263" x2="3036" y1="1485.54" y2="1485.54"/>
  <rect height="119.336" id="left-margin" style="fill:#00AEEF;stroke:none;opacity:0.4;" width="11.2305" x="1384.07" y="1030.79"/>
  <rect height="119.336" id="right-margin" style="fill:#00AEEF;stroke:none;opacity:0.4;" width="11.2366" x="1504.38" y="1030.79"/>
 </g>
 <g id="Symbols">
  <g id="Ultralight-S" transform="matrix(1 0 0 1 509.638 696)">
   <path d="M 49.2188 5.17578 C 53.7598 9.76562 58.6914 9.81445 63.3301 5.17578 L 87.8906 -19.3359 C 92.4805 -23.9746 92.5293 -28.8574 87.8906 -33.4961 L 49.707 -71.3379 C 47.5098 -73.5352 46.6797 -73.8281 42.5781 -73.8281 L 28.0273 -73.8281 C 24.9512 -73.8281 24.0723 -73.5352 21.1426 -70.6055 L 12.0117 -61.4258 C 9.08203 -58.5449 8.78906 -57.666 8.78906 -54.5898 L 8.78906 -40.0391 C 8.78906 -35.9375 9.08203 -35.1074 11.2793 -32.9102 Z M 34.082 -46.875 C 31.9824 -46.875 30.4688 -48.4375 30.4688 -50.4883 C 30.4688 -52.5391 31.9824 -54.1016 34.082 -54.1016 C 36.1328 -54.1016 37.6953 -52.5391 37.6953 -50.4883 C 37.6953 -48.4375 36.1328 -46.875 34.082 -46.875 Z"/>
  </g>
  <g id="Thin-S" transform="matrix(1 0 0 1 805.958 696)">
   <path d="M 49.1699 5.22461 C 54.0039 10.0586 59.1309 10.1074 64.0625 5.22461 L 88.4766 -19.2383 C 93.3594 -24.1211 93.3594 -29.1992 88.5254 -34.082 L 50.5371 -71.7773 C 48.1445 -74.1699 47.1191 -74.4141 43.0176 -74.4141 L 28.4668 -74.4141 C 25.1465 -74.4141 24.1699 -73.9746 21.2402 -71.0449 L 12.207 -61.9629 C 9.27734 -59.082 8.78906 -58.1055 8.78906 -54.7363 L 8.78906 -40.1855 C 8.78906 -36.1328 9.0332 -35.0586 11.4258 -32.666 Z M 34.6191 -46.4844 C 32.3242 -46.4844 30.5664 -48.2422 30.5664 -50.5371 C 30.5664 -52.832 32.3242 -54.6387 34.6191 -54.6387 C 36.9629 -54.6387 38.6719 -52.832 38.6719 -50.5371 C 38.6719 -48.2422 36.9629 -46.4844 34.6191 -46.4844 Z"/>
  </g>
  <g id="Light-S" transform="matrix(1 0 0 1 1101.89 696)">
   <path d="M 49.1699 5.27344 C 54.4922 10.5957 59.9609 10.6445 65.3809 5.22461 L 89.6484 -18.9941 C 95.1172 -24.4141 95.0195 -29.9316 89.6973 -35.2539 L 52.1484 -72.6562 C 49.4141 -75.3906 47.9492 -75.5859 43.8965 -75.5859 L 29.3457 -75.5859 C 25.4883 -75.5859 24.3164 -74.7559 21.3867 -71.875 L 12.5488 -62.9883 C 9.61914 -60.1074 8.78906 -58.9355 8.78906 -55.0293 L 8.78906 -40.4785 C 8.78906 -36.4746 8.98438 -34.9609 11.7188 -32.2266 Z M 35.6934 -45.7031 C 32.8613 -45.7031 30.7617 -47.9004 30.7617 -50.6348 C 30.7617 -53.418 32.8613 -55.5664 35.6934 -55.5664 C 38.5254 -55.5664 40.625 -53.418 40.625 -50.6348 C 40.625 -47.9004 38.5254 -45.7031 35.6934 -45.7031 Z"/>
  </g>
  <g id="Regular-S" transform="matrix(1 0 0 1 1397.99 696)">
   <path d="M 49.1211 5.32227 C 54.834 11.0352 60.5957 11.084 66.4062 5.27344 L 90.5762 -18.8477 C 96.3867 -24.6094 96.2891 -30.4688 90.625 -36.1328 L 53.418 -73.3398 C 50.3906 -76.3672 48.584 -76.5137 44.5801 -76.5137 L 30.0293 -76.5137 C 25.7324 -76.5137 24.4141 -75.3906 21.5332 -72.5098 L 12.793 -63.7695 C 9.91211 -60.8887 8.78906 -59.5703 8.78906 -55.2734 L 8.78906 -40.7227 C 8.78906 -36.7188 8.93555 -34.9121 11.9629 -31.8848 Z M 36.5234 -45.1172 C 33.3008 -45.1172 30.9082 -47.6074 30.9082 -50.7324 C 30.9082 -53.8086 33.3008 -56.2988 36.5234 -56.2988 C 39.7461 -56.2988 42.1387 -53.8086 42.1387 -50.7324 C 42.1387 -47.6074 39.7461 -45.1172 36.5234 -45.1172 Z"/>
  </g>
  <g id="Medium-S" transform="matrix(1 0 0 1 1693.72 696)">
   <path d="M 49.707 6.78711 C 55.6152 12.7441 61.9141 12.7441 67.9688 6.73828 L 92.334 -17.627 C 98.3887 -23.6328 98.291 -29.9805 92.3828 -35.8887 L 54.8828 -73.3398 C 51.7578 -76.5137 49.8535 -76.8555 45.459 -76.8555 L 30.9082 -76.8555 C 26.5137 -76.8555 24.9023 -75.7324 21.7773 -72.5586 L 13.0859 -63.8672 C 9.91211 -60.7422 8.78906 -59.1309 8.78906 -54.7363 L 8.78906 -40.1855 C 8.78906 -35.791 9.08203 -33.8379 12.2559 -30.7129 Z M 37.793 -43.9941 C 34.4727 -43.9941 31.9824 -46.582 31.9824 -49.8047 C 31.9824 -53.0762 34.4727 -55.6641 37.793 -55.6641 C 41.1621 -55.6641 43.6523 -53.0762 43.6523 -49.8047 C 43.6523 -46.582 41.1621 -43.9941 37.793 -43.9941 Z"/>
  </g>
  <g id="Semibold-S" transform="matrix(1 0 0 1 1989.7 696)">
   <path d="M 50.0977 7.91016 C 56.25 14.0137 62.8906 14.0625 69.1406 7.86133 L 93.7012 -16.6992 C 99.9512 -22.9004 99.8535 -29.5898 93.75 -35.6934 L 56.0547 -73.3887 C 52.7832 -76.6113 50.8301 -77.1484 46.0938 -77.1484 L 31.5918 -77.1484 C 27.0996 -77.1484 25.293 -75.9766 21.9727 -72.6074 L 13.2812 -63.9648 C 9.91211 -60.5957 8.78906 -58.8379 8.78906 -54.2969 L 8.78906 -39.7949 C 8.78906 -35.1074 9.22852 -33.0566 12.4512 -29.7852 Z M 38.7695 -43.1152 C 35.3516 -43.1152 32.7637 -45.752 32.7637 -49.1211 C 32.7637 -52.4902 35.3516 -55.1758 38.7695 -55.1758 C 42.2363 -55.1758 44.8242 -52.4902 44.8242 -49.1211 C 44.8242 -45.752 42.2363 -43.1152 38.7695 -43.1152 Z"/>
  </g>
  <g id="Bold-S" transform="matrix(1 0 0 1 2285.44 696)">
   <path d="M 50.6836 9.375 C 57.0801 15.7715 64.209 15.7715 70.6543 9.375 L 95.5078 -15.4785 C 101.953 -21.875 101.904 -29.1016 95.5078 -35.4492 L 57.5684 -73.3887 C 54.1992 -76.7578 52.0996 -77.4902 46.9727 -77.4902 L 32.5195 -77.4902 C 27.832 -77.4902 25.8301 -76.3184 22.2168 -72.7051 L 13.5742 -64.0625 C 9.96094 -60.4492 8.78906 -58.4473 8.78906 -53.7598 L 8.78906 -39.3066 C 8.78906 -34.1309 9.375 -31.9336 12.7441 -28.6133 Z M 40.0879 -41.9434 C 36.5234 -41.9434 33.7891 -44.7266 33.7891 -48.2422 C 33.7891 -51.7578 36.5234 -54.4922 40.0879 -54.4922 C 43.6523 -54.4922 46.3867 -51.7578 46.3867 -48.2422 C 46.3867 -44.7266 43.6523 -41.9434 40.0879 -41.9434 Z"/>
  </g>
  <g id="Heavy-S" transform="matrix(1 0 0 1 2580.71 696)">
   <path d="M 51.5137 11.5234 C 58.252 18.2617 66.1621 18.2617 72.9004 11.5234 L 98.1445 -13.7207 C 104.883 -20.459 104.883 -28.3691 98.1445 -35.1074 L 59.7656 -73.4375 C 56.2012 -77.002 54.0039 -78.0273 48.291 -78.0273 L 33.8867 -78.0273 C 28.9551 -78.0273 26.6113 -76.8555 22.5586 -72.8027 L 13.9648 -64.209 C 9.96094 -60.2051 8.78906 -57.8125 8.78906 -52.9297 L 8.78906 -38.5254 C 8.78906 -32.8125 9.61914 -30.3711 13.1348 -26.8555 Z M 41.9922 -40.2832 C 38.2324 -40.2832 35.3516 -43.1641 35.3516 -46.9238 C 35.3516 -50.6348 38.2324 -53.5645 41.9922 -53.5645 C 45.7031 -53.5645 48.6328 -50.6348 48.6328 -46.9238 C 48.6328 -43.1641 45.7031 -40.2832 41.9922 -40.2832 Z"/>
  </g>
  <g id="Black-S" transform="matrix(1 0 0 1 2876.15 696)">
   <path d="M 52.2461 13.4277 C 59.3262 20.5078 67.8711 20.5078 74.9023 13.4277 L 100.439 -12.1094 C 107.471 -19.1895 107.52 -27.6855 100.439 -34.7656 L 61.7188 -73.4863 C 58.0078 -77.1973 55.6641 -78.4668 49.4141 -78.4668 L 35.0586 -78.4668 C 29.9805 -78.4668 27.2949 -77.2949 22.9004 -72.9004 L 14.3555 -64.3555 C 9.96094 -59.9609 8.78906 -57.2754 8.78906 -52.1973 L 8.78906 -37.8418 C 8.78906 -31.5918 9.81445 -29.0039 13.5254 -25.293 Z M 43.6523 -38.7695 C 39.7461 -38.7695 36.7188 -41.7969 36.7188 -45.752 C 36.7188 -49.6582 39.7461 -52.6855 43.6523 -52.6855 C 47.5586 -52.6855 50.6348 -49.6582 50.6348 -45.752 C 50.6348 -41.7969 47.5586 -38.7695 43.6523 -38.7695 Z"/>
  </g>
  <g id="Ultralight-M" transform="matrix(1 0 0 1 495.966 1126)">
   <path d="M 62.8418 16.3574 C 68.5547 22.1191 74.7559 22.168 80.5664 16.3574 L 111.963 -15.0391 C 117.725 -20.8008 117.773 -26.9531 111.963 -32.7637 L 63.1348 -81.1523 C 60.4004 -83.8867 59.4238 -84.2773 54.1992 -84.2773 L 35.5957 -84.2773 C 31.7871 -84.2773 30.7129 -83.9355 27.002 -80.2246 L 15.2344 -68.5059 C 11.5234 -64.7461 11.2305 -63.7207 11.2305 -59.8633 L 11.2305 -41.3086 C 11.2305 -36.0352 11.5723 -35.0586 14.3066 -32.373 Z M 43.2617 -50.2441 C 40.7227 -50.2441 38.8184 -52.1484 38.8184 -54.6875 C 38.8184 -57.2266 40.7227 -59.1309 43.2617 -59.1309 C 45.8008 -59.1309 47.7051 -57.2266 47.7051 -54.6875 C 47.7051 -52.1484 45.8008 -50.2441 43.2617 -50.2441 Z"/>
  </g>
  <g id="Thin-M" transform="matrix(1 0 0 1 792.213 1126)">
   <path d="M 62.793 16.3574 C 68.7988 22.4121 75.2441 22.5098 81.3477 16.3574 L 112.646 -14.8926 C 118.701 -20.9473 118.75 -27.3438 112.646 -33.4473 L 64.0625 -81.6406 C 61.1328 -84.6191 59.9121 -84.9609 54.6875 -84.9609 L 36.1328 -84.9609 C 31.9824 -84.9609 30.8105 -84.4238 27.0508 -80.7129 L 15.4785 -69.0918 C 11.7188 -65.3809 11.2305 -64.209 11.2305 -60.0586 L 11.2305 -41.4551 C 11.2305 -36.2793 11.5723 -35.0098 14.502 -32.0801 Z M 43.8965 -49.8047 C 41.0645 -49.8047 38.9648 -51.9531 38.9648 -54.7363 C 38.9648 -57.5684 41.0645 -59.7168 43.8965 -59.7168 C 46.7285 -59.7168 48.8281 -57.5684 48.8281 -54.7363 C 48.8281 -51.9531 46.7285 -49.8047 43.8965 -49.8047 Z"/>
  </g>
  <g id="Light-M" transform="matrix(1 0 0 1 1088.05 1126)">
   <path d="M 62.7441 16.4551 C 69.3359 23.0469 76.1719 23.0957 82.9102 16.4062 L 113.965 -14.5996 C 120.654 -21.2891 120.605 -28.1738 114.014 -34.7656 L 65.918 -82.666 C 62.5488 -85.9863 60.8398 -86.2793 55.6641 -86.2793 L 37.1094 -86.2793 C 32.373 -86.2793 30.957 -85.3516 27.2461 -81.6406 L 15.8691 -70.2637 C 12.1582 -66.5527 11.2305 -65.1367 11.2305 -60.4004 L 11.2305 -41.8457 C 11.2305 -36.6699 11.4746 -34.9609 14.8438 -31.5918 Z M 45.1172 -48.9258 C 41.748 -48.9258 39.1602 -51.5625 39.1602 -54.8828 C 39.1602 -58.2031 41.748 -60.791 45.1172 -60.791 C 48.5352 -60.791 51.0742 -58.2031 51.0742 -54.8828 C 51.0742 -51.5625 48.5352 -48.9258 45.1172 -48.9258 Z"/>
  </g>
  <g id="Regular-M" transform="matrix(1 0 0 1 1384.07 1126)">
   <path d="M 62.7441 16.5039 C 69.7266 23.4863 76.9043 23.584 84.082 16.4551 L 114.99 -14.4043 C 122.119 -21.5332 122.021 -28.7598 115.039 -35.7422 L 67.2852 -83.3984 C 63.623 -87.0605 61.5723 -87.3047 56.3965 -87.3047 L 37.8418 -87.3047 C 32.666 -87.3047 31.0547 -86.0352 27.3926 -82.373 L 16.1621 -71.1426 C 12.4512 -67.4316 11.2305 -65.8203 11.2305 -60.6445 L 11.2305 -42.0898 C 11.2305 -36.9629 11.4258 -34.8633 15.1367 -31.2012 Z M 46.0449 -48.2422 C 42.2363 -48.2422 39.3555 -51.2207 39.3555 -54.9316 C 39.3555 -58.6914 42.2363 -61.6211 46.0449 -61.6211 C 49.8535 -61.6211 52.7344 -58.6914 52.7344 -54.9316 C 52.7344 -51.2207 49.8535 -48.2422 46.0449 -48.2422 Z"/>
  </g>
  <g id="Medium-M" transform="matrix(1 0 0 1 1679.71 1126)">
   <path d="M 63.2812 17.9688 C 70.6055 25.293 78.3203 25.3418 85.7422 17.9688 L 116.895 -13.1836 C 124.365 -20.5566 124.268 -28.3203 116.943 -35.6445 L 68.9941 -83.4961 C 65.1855 -87.3535 62.9395 -87.7441 57.4219 -87.7441 L 38.8672 -87.7441 C 33.4961 -87.7441 31.5918 -86.4746 27.6367 -82.5195 L 16.4551 -71.3379 C 12.5 -67.3828 11.2305 -65.5273 11.2305 -60.1074 L 11.2305 -41.6016 C 11.2305 -36.0352 11.6211 -33.7891 15.4297 -29.9316 Z M 47.4609 -47.0215 C 43.457 -47.0215 40.4297 -50.0977 40.4297 -54.0527 C 40.4297 -57.959 43.457 -61.084 47.4609 -61.084 C 51.4648 -61.084 54.4922 -57.959 54.4922 -54.0527 C 54.4922 -50.0977 51.4648 -47.0215 47.4609 -47.0215 Z"/>
  </g>
  <g id="Semibold-M" transform="matrix(1 0 0 1 1975.59 1126)">
   <path d="M 63.7207 19.1406 C 71.2891 26.709 79.3945 26.7578 87.0605 19.0918 L 118.408 -12.207 C 126.074 -19.8242 125.977 -27.9785 118.457 -35.5469 L 70.3125 -83.5938 C 66.3574 -87.5488 64.0137 -88.1348 58.1543 -88.1348 L 39.6484 -88.1348 C 34.082 -88.1348 32.0312 -86.8164 27.8809 -82.666 L 16.6992 -71.4844 C 12.5488 -67.334 11.2305 -65.2344 11.2305 -59.7168 L 11.2305 -41.2109 C 11.2305 -35.3516 11.7188 -32.9102 15.6738 -28.9551 Z M 48.584 -46.0449 C 44.4336 -46.0449 41.2598 -49.2676 41.2598 -53.3691 C 41.2598 -57.4219 44.4336 -60.6445 48.584 -60.6445 C 52.6855 -60.6445 55.8594 -57.4219 55.8594 -53.3691 C 55.8594 -49.2676 52.6855 -46.0449 48.584 -46.0449 Z"/>
  </g>
  <g id="Bold-M" transform="matrix(1 0 0 1 2271.23 1126)">
   <path d="M 64.3066 20.6543 C 72.168 28.5156 80.8594 28.5645 88.7695 20.6543 L 120.361 -10.9375 C 128.271 -18.8477 128.223 -27.5391 120.41 -35.4004 L 72.0215 -83.7402 C 67.9199 -87.8418 65.4297 -88.623 59.1309 -88.623 L 40.6738 -88.623 C 34.9121 -88.623 32.5684 -87.2559 28.125 -82.8125 L 17.041 -71.7285 C 12.5977 -67.2363 11.2305 -64.9414 11.2305 -59.1797 L 11.2305 -40.6738 C 11.2305 -34.4238 11.8652 -31.8359 15.9668 -27.6855 Z M 50 -44.8242 C 45.7031 -44.8242 42.3828 -48.1445 42.3828 -52.4414 C 42.3828 -56.6895 45.7031 -60.0586 50 -60.0586 C 54.3457 -60.0586 57.6172 -56.6895 57.6172 -52.4414 C 57.6172 -48.1445 54.3457 -44.8242 50 -44.8242 Z"/>
  </g>
  <g id="Heavy-M" transform="matrix(1 0 0 1 2566.35 1126)">
   <path d="M 65.1367 22.8516 C 73.4375 31.1523 82.959 31.1523 91.2598 22.8516 L 123.193 -9.08203 C 131.543 -17.3828 131.494 -26.9043 123.242 -35.2051 L 74.5117 -83.8867 C 70.166 -88.2812 67.4805 -89.3555 60.5957 -89.3555 L 42.1875 -89.3555 C 36.1328 -89.3555 33.3984 -87.8906 28.5156 -83.0566 L 17.4805 -72.0215 C 12.6465 -67.1875 11.2305 -64.4531 11.2305 -58.3984 L 11.2305 -39.9414 C 11.2305 -33.1055 12.1094 -30.2246 16.4551 -25.8301 Z M 52.0996 -42.9688 C 47.5098 -42.9688 43.9453 -46.5332 43.9453 -51.123 C 43.9453 -55.6641 47.5098 -59.2285 52.0996 -59.2285 C 56.6895 -59.2285 60.2051 -55.6641 60.2051 -51.123 C 60.2051 -46.5332 56.6895 -42.9688 52.0996 -42.9688 Z"/>
  </g>
  <g id="Black-M" transform="matrix(1 0 0 1 2861.67 1126)">
   <path d="M 65.8691 24.8535 C 74.6094 33.5449 84.8145 33.5449 93.5059 24.8535 L 125.781 -7.42188 C 134.473 -16.1133 134.473 -26.3184 125.781 -35.0586 L 76.709 -84.082 C 72.168 -88.623 69.2871 -89.9414 61.8652 -89.9414 L 43.5059 -89.9414 C 37.207 -89.9414 34.082 -88.4766 28.9062 -83.252 L 17.9199 -72.3145 C 12.6953 -67.0898 11.2305 -64.0137 11.2305 -57.666 L 11.2305 -39.3066 C 11.2305 -31.8848 12.3047 -28.7598 16.8457 -24.1699 Z M 53.9551 -41.3574 C 49.1211 -41.3574 45.4102 -45.0684 45.4102 -49.9023 C 45.4102 -54.7363 49.1211 -58.4961 53.9551 -58.4961 C 58.7891 -58.4961 62.5488 -54.7363 62.5488 -49.9023 C 62.5488 -45.0684 58.7891 -41.3574 53.9551 -41.3574 Z"/>
  </g>
  <g id="Ultralight-L" transform="matrix(1 0 0 1 477.655 1556)">
   <path d="M 81.0547 31.2988 C 88.3301 38.623 96.2402 38.7207 103.662 31.2988 L 144.141 -9.22852 C 151.465 -16.5039 151.562 -24.3652 144.141 -31.7871 L 81.0547 -94.2871 C 77.6367 -97.7051 76.4648 -98.1934 69.6777 -98.1934 L 45.752 -98.1934 C 40.918 -98.1934 39.5996 -97.9004 34.7656 -93.0664 L 19.5801 -77.8809 C 14.7461 -73.0469 14.4531 -71.7773 14.4531 -66.9434 L 14.4531 -42.9688 C 14.4531 -36.2305 14.9902 -35.0586 18.4082 -31.6406 Z M 55.5664 -54.834 C 52.3926 -54.834 50.0488 -57.1777 50.0488 -60.3516 C 50.0488 -63.4766 52.3926 -65.8691 55.5664 -65.8691 C 58.6914 -65.8691 61.084 -63.4766 61.084 -60.3516 C 61.084 -57.1777 58.6914 -54.834 55.5664 -54.834 Z"/>
  </g>
  <g id="Thin-L" transform="matrix(1 0 0 1 773.854 1556)">
   <path d="M 81.0547 31.3477 C 88.623 38.9648 96.7773 39.0625 104.541 31.3477 L 144.922 -9.0332 C 152.588 -16.6992 152.637 -24.8047 144.922 -32.5195 L 82.0801 -94.8242 C 78.418 -98.4863 77.002 -98.9746 70.2637 -98.9746 L 46.2891 -98.9746 C 41.1133 -98.9746 39.6973 -98.4375 34.8633 -93.6035 L 19.8242 -78.5645 C 14.9902 -73.7305 14.4531 -72.3145 14.4531 -67.1387 L 14.4531 -43.1641 C 14.4531 -36.4258 14.9414 -35.0098 18.6035 -31.3477 Z M 56.25 -54.2969 C 52.7832 -54.2969 50.1953 -56.9336 50.1953 -60.4004 C 50.1953 -63.8672 52.7832 -66.4551 56.25 -66.4551 C 59.7168 -66.4551 62.3535 -63.8672 62.3535 -60.4004 C 62.3535 -56.9336 59.7168 -54.2969 56.25 -54.2969 Z"/>
  </g>
  <g id="Light-L" transform="matrix(1 0 0 1 1069.56 1556)">
   <path d="M 81.0059 31.3965 C 89.209 39.6484 97.8516 39.7461 106.25 31.3965 L 146.387 -8.74023 C 154.736 -17.0898 154.688 -25.7324 146.436 -33.9844 L 84.1309 -95.9473 C 80.0293 -100.049 78.0273 -100.439 71.3379 -100.439 L 47.4121 -100.439 C 41.5527 -100.439 39.8438 -99.4629 35.0586 -94.6777 L 20.2637 -79.834 C 15.4785 -75.0488 14.4531 -73.3398 14.4531 -67.5293 L 14.4531 -43.5547 C 14.4531 -36.8652 14.8438 -34.9121 18.9941 -30.7617 Z M 57.6172 -53.3203 C 53.5156 -53.3203 50.4395 -56.4941 50.4395 -60.498 C 50.4395 -64.5508 53.5156 -67.6758 57.6172 -67.6758 C 61.7188 -67.6758 64.7949 -64.5508 64.7949 -60.498 C 64.7949 -56.4941 61.7188 -53.3203 57.6172 -53.3203 Z"/>
  </g>
  <g id="Regular-L" transform="matrix(1 0 0 1 1365.54 1556)">
   <path d="M 80.957 31.4453 C 89.6484 40.1855 98.6328 40.2832 107.52 31.3965 L 147.51 -8.54492 C 156.396 -17.334 156.25 -26.416 147.559 -35.1074 L 85.6934 -96.7773 C 81.2012 -101.221 78.8574 -101.562 72.168 -101.562 L 48.2422 -101.562 C 41.8945 -101.562 39.9902 -100.244 35.2051 -95.459 L 20.6055 -80.8105 C 15.8203 -76.0742 14.4531 -74.1699 14.4531 -67.8223 L 14.4531 -43.8477 C 14.4531 -37.207 14.7949 -34.8145 19.2871 -30.3711 Z M 58.6426 -52.5879 C 54.0527 -52.5879 50.6348 -56.1035 50.6348 -60.5957 C 50.6348 -65.0879 54.0527 -68.6035 58.6426 -68.6035 C 63.2324 -68.6035 66.6504 -65.0879 66.6504 -60.5957 C 66.6504 -56.1035 63.2324 -52.5879 58.6426 -52.5879 Z"/>
  </g>
  <g id="Medium-L" transform="matrix(1 0 0 1 1661.13 1556)">
   <path d="M 81.4941 32.8613 C 90.5273 41.9434 100.098 41.9922 109.326 32.8125 L 149.512 -7.32422 C 158.74 -16.5039 158.594 -26.123 149.561 -35.1562 L 87.5488 -97.0215 C 82.8613 -101.709 80.2734 -102.197 73.2422 -102.197 L 49.3164 -102.197 C 42.7246 -102.197 40.5273 -100.781 35.498 -95.752 L 20.9473 -81.2012 C 15.918 -76.1719 14.4531 -73.9746 14.4531 -67.3828 L 14.4531 -43.457 C 14.4531 -36.4258 14.9414 -33.7891 19.6289 -29.1016 Z M 60.1562 -51.3184 C 55.3223 -51.3184 51.6602 -55.0293 51.6602 -59.8145 C 51.6602 -64.5508 55.3223 -68.2617 60.1562 -68.2617 C 64.9902 -68.2617 68.6035 -64.5508 68.6035 -59.8145 C 68.6035 -55.0293 64.9902 -51.3184 60.1562 -51.3184 Z"/>
  </g>
  <g id="Semibold-L" transform="matrix(1 0 0 1 1956.99 1556)">
   <path d="M 81.8848 33.8867 C 91.2109 43.2617 101.172 43.3105 110.693 33.8867 L 151.025 -6.44531 C 160.498 -15.8691 160.4 -25.9277 151.074 -35.2539 L 88.916 -97.2168 C 84.082 -102.051 81.3477 -102.734 74.0234 -102.734 L 50.1465 -102.734 C 43.3105 -102.734 40.918 -101.172 35.6934 -95.9961 L 21.1914 -81.4941 C 16.0156 -76.2695 14.4531 -73.877 14.4531 -67.041 L 14.4531 -43.1641 C 14.4531 -35.8398 15.0391 -33.0078 19.873 -28.1738 Z M 61.2793 -50.3418 C 56.25 -50.3418 52.4414 -54.248 52.4414 -59.1797 C 52.4414 -64.1113 56.25 -68.0176 61.2793 -68.0176 C 66.3086 -68.0176 70.1172 -64.1113 70.1172 -59.1797 C 70.1172 -54.248 66.3086 -50.3418 61.2793 -50.3418 Z"/>
  </g>
  <g id="Bold-L" transform="matrix(1 0 0 1 2252.55 1556)">
   <path d="M 82.373 35.3027 C 92.0898 45.0195 102.637 45.0684 112.5 35.2539 L 153.027 -5.22461 C 162.842 -15.0391 162.744 -25.6348 153.076 -35.3516 L 90.7715 -97.5098 C 85.7422 -102.539 82.7637 -103.369 75.0977 -103.369 L 51.2207 -103.369 C 44.1406 -103.369 41.4551 -101.709 35.9863 -96.2891 L 21.582 -81.8359 C 16.1133 -76.416 14.4531 -73.6816 14.4531 -66.6016 L 14.4531 -42.7246 C 14.4531 -35.0586 15.1855 -31.9824 20.2148 -26.9531 Z M 62.793 -49.0723 C 57.5195 -49.0723 53.5156 -53.125 53.5156 -58.3496 C 53.5156 -63.5742 57.5195 -67.627 62.793 -67.627 C 68.0664 -67.627 72.0703 -63.5742 72.0703 -58.3496 C 72.0703 -53.125 68.0664 -49.0723 62.793 -49.0723 Z"/>
  </g>
  <g id="Heavy-L" transform="matrix(1 0 0 1 2547.63 1556)">
   <path d="M 83.1543 37.3535 C 93.4082 47.5586 104.785 47.6074 115.137 37.3047 L 155.957 -3.4668 C 166.26 -13.7695 166.162 -25.2441 155.957 -35.4492 L 93.5059 -97.8516 C 88.1348 -103.223 84.8633 -104.297 76.6602 -104.297 L 52.832 -104.297 C 45.3125 -104.297 42.1875 -102.539 36.377 -96.6797 L 22.0703 -82.4219 C 16.2598 -76.5625 14.4531 -73.4863 14.4531 -65.9668 L 14.4531 -42.1387 C 14.4531 -33.9355 15.3809 -30.5176 20.752 -25.1465 Z M 64.9902 -47.168 C 59.3262 -47.168 55.0293 -51.5625 55.0293 -57.1777 C 55.0293 -62.7441 59.3262 -67.1387 64.9902 -67.1387 C 70.6055 -67.1387 74.9512 -62.7441 74.9512 -57.1777 C 74.9512 -51.5625 70.6055 -47.168 64.9902 -47.168 Z"/>
  </g>
  <g id="Black-L" transform="matrix(1 0 0 1 2842.87 1556)">
   <path d="M 83.8379 39.1602 C 94.5312 49.8535 106.689 49.9023 117.48 39.1113 L 158.545 -1.9043 C 169.336 -12.6953 169.238 -24.8535 158.545 -35.5469 L 95.8984 -98.1934 C 90.2344 -103.857 86.7188 -105.176 78.0273 -105.176 L 54.248 -105.176 C 46.3867 -105.176 42.9199 -103.223 36.7676 -97.0703 L 22.5586 -82.8613 C 16.4062 -76.7578 14.4531 -73.2422 14.4531 -65.3809 L 14.4531 -41.6016 C 14.4531 -32.9102 15.5273 -29.1504 21.1914 -23.4863 Z M 66.9434 -45.5078 C 60.9863 -45.5078 56.3477 -50.1465 56.3477 -56.1035 C 56.3477 -62.0117 60.9863 -66.6504 66.9434 -66.6504 C 72.9004 -66.6504 77.4902 -62.0117 77.4902 -56.1035 C 77.4902 -50.1465 72.9004 -45.5078 66.9434 -45.5078 Z"/>
  </g>
 </g>
</svg>
