<?xml version="1.0" encoding="UTF-8"?>
<!--Generator: Apple Native CoreSVG 123-->
<!DOCTYPE svg
PUBLIC "-//W3C//DTD SVG 1.1//EN"
       "http://www.w3.org/Graphics/SVG/1.1/DTD/svg11.dtd">
<svg version="1.1" xmlns="http://www.w3.org/2000/svg" xmlns:xlink="http://www.w3.org/1999/xlink" width="3300" height="2200">
 <!--glyph: "uni100150.medium", point size: 100.000000, font version: "Version 15.0d4e20", template writer version: "2"-->
 <g id="Notes">
  <rect height="2200" id="artboard" style="fill:white;opacity:1" width="3300" x="0" y="0"/>
  <line id="" style="fill:none;stroke:black;opacity:1;stroke-width:0.5;" x1="263" x2="3036" y1="292" y2="292"/>
  <text style="stroke:none;fill:black;font-family:-apple-system,&quot;SF Pro Display&quot;,&quot;SF Pro Text&quot;,Helvetica,sans-serif;font-weight:bold;" transform="matrix(1 0 0 1 263 322)">Weight/Scale Variations</text>
  <text style="stroke:none;fill:black;font-family:-apple-system,&quot;SF Pro Display&quot;,&quot;SF Pro Text&quot;,Helvetica,sans-serif;text-anchor:middle;" transform="matrix(1 0 0 1 559.711 322)">Ultralight</text>
  <text style="stroke:none;fill:black;font-family:-apple-system,&quot;SF Pro Display&quot;,&quot;SF Pro Text&quot;,Helvetica,sans-serif;text-anchor:middle;" transform="matrix(1 0 0 1 856.422 322)">Thin</text>
  <text style="stroke:none;fill:black;font-family:-apple-system,&quot;SF Pro Display&quot;,&quot;SF Pro Text&quot;,Helvetica,sans-serif;text-anchor:middle;" transform="matrix(1 0 0 1 1153.13 322)">Light</text>
  <text style="stroke:none;fill:black;font-family:-apple-system,&quot;SF Pro Display&quot;,&quot;SF Pro Text&quot;,Helvetica,sans-serif;text-anchor:middle;" transform="matrix(1 0 0 1 1449.84 322)">Regular</text>
  <text style="stroke:none;fill:black;font-family:-apple-system,&quot;SF Pro Display&quot;,&quot;SF Pro Text&quot;,Helvetica,sans-serif;text-anchor:middle;" transform="matrix(1 0 0 1 1746.56 322)">Medium</text>
  <text style="stroke:none;fill:black;font-family:-apple-system,&quot;SF Pro Display&quot;,&quot;SF Pro Text&quot;,Helvetica,sans-serif;text-anchor:middle;" transform="matrix(1 0 0 1 2043.27 322)">Semibold</text>
  <text style="stroke:none;fill:black;font-family:-apple-system,&quot;SF Pro Display&quot;,&quot;SF Pro Text&quot;,Helvetica,sans-serif;text-anchor:middle;" transform="matrix(1 0 0 1 2339.98 322)">Bold</text>
  <text style="stroke:none;fill:black;font-family:-apple-system,&quot;SF Pro Display&quot;,&quot;SF Pro Text&quot;,Helvetica,sans-serif;text-anchor:middle;" transform="matrix(1 0 0 1 2636.69 322)">Heavy</text>
  <text style="stroke:none;fill:black;font-family:-apple-system,&quot;SF Pro Display&quot;,&quot;SF Pro Text&quot;,Helvetica,sans-serif;text-anchor:middle;" transform="matrix(1 0 0 1 2933.4 322)">Black</text>
  <line id="" style="fill:none;stroke:black;opacity:1;stroke-width:0.5;" x1="263" x2="3036" y1="1903" y2="1903"/>
  <g id="" transform="matrix(1 0 0 1 263 1933)">
   <path d="M 9.24805 0.830078 C 13.5547 0.830078 17.1387 -2.74414 17.1387 -7.05078 C 17.1387 -11.3574 13.5449 -14.9316 9.23828 -14.9316 C 4.94141 -14.9316 1.36719 -11.3574 1.36719 -7.05078 C 1.36719 -2.74414 4.95117 0.830078 9.24805 0.830078 Z M 9.24805 -0.654297 C 5.70312 -0.654297 2.87109 -3.49609 2.87109 -7.05078 C 2.87109 -10.6055 5.69336 -13.4473 9.23828 -13.4473 C 12.793 -13.4473 15.6348 -10.6055 15.6445 -7.05078 C 15.6543 -3.49609 12.8027 -0.654297 9.24805 -0.654297 Z M 9.22852 -3.42773 C 9.69727 -3.42773 9.9707 -3.74023 9.9707 -4.25781 L 9.9707 -6.31836 L 12.1973 -6.31836 C 12.6953 -6.31836 13.0371 -6.57227 13.0371 -7.04102 C 13.0371 -7.51953 12.7148 -7.7832 12.1973 -7.7832 L 9.9707 -7.7832 L 9.9707 -10.0098 C 9.9707 -10.5273 9.69727 -10.8496 9.22852 -10.8496 C 8.75977 -10.8496 8.50586 -10.5078 8.50586 -10.0098 L 8.50586 -7.7832 L 6.29883 -7.7832 C 5.78125 -7.7832 5.44922 -7.51953 5.44922 -7.04102 C 5.44922 -6.57227 5.80078 -6.31836 6.29883 -6.31836 L 8.50586 -6.31836 L 8.50586 -4.25781 C 8.50586 -3.75977 8.75977 -3.42773 9.22852 -3.42773 Z"/>
  </g>
  <g id="" transform="matrix(1 0 0 1 281.506 1933)">
   <path d="M 11.709 2.91016 C 17.1484 2.91016 21.6699 -1.60156 21.6699 -7.05078 C 21.6699 -12.4902 17.1387 -17.0117 11.6992 -17.0117 C 6.25 -17.0117 1.74805 -12.4902 1.74805 -7.05078 C 1.74805 -1.60156 6.25977 2.91016 11.709 2.91016 Z M 11.709 1.25 C 7.09961 1.25 3.41797 -2.44141 3.41797 -7.05078 C 3.41797 -11.6504 7.08984 -15.3516 11.6992 -15.3516 C 16.2988 -15.3516 20 -11.6504 20.0098 -7.05078 C 20.0195 -2.44141 16.3086 1.25 11.709 1.25 Z M 11.6797 -2.41211 C 12.207 -2.41211 12.5195 -2.77344 12.5195 -3.33984 L 12.5195 -6.23047 L 15.5762 -6.23047 C 16.123 -6.23047 16.5039 -6.51367 16.5039 -7.03125 C 16.5039 -7.55859 16.1426 -7.86133 15.5762 -7.86133 L 12.5195 -7.86133 L 12.5195 -10.9277 C 12.5195 -11.5039 12.207 -11.8555 11.6797 -11.8555 C 11.1621 -11.8555 10.8789 -11.4844 10.8789 -10.9277 L 10.8789 -7.86133 L 7.83203 -7.86133 C 7.25586 -7.86133 6.89453 -7.55859 6.89453 -7.03125 C 6.89453 -6.51367 7.28516 -6.23047 7.83203 -6.23047 L 10.8789 -6.23047 L 10.8789 -3.33984 C 10.8789 -2.79297 11.1621 -2.41211 11.6797 -2.41211 Z"/>
  </g>
  <g id="" transform="matrix(1 0 0 1 304.914 1933)">
   <path d="M 14.9707 5.67383 C 21.9336 5.67383 27.6855 -0.078125 27.6855 -7.04102 C 27.6855 -14.0039 21.9238 -19.7559 14.9609 -19.7559 C 7.99805 -19.7559 2.25586 -14.0039 2.25586 -7.04102 C 2.25586 -0.078125 8.00781 5.67383 14.9707 5.67383 Z M 14.9707 3.85742 C 8.92578 3.85742 4.08203 -1.00586 4.08203 -7.04102 C 4.08203 -13.0762 8.91602 -17.9395 14.9609 -17.9395 C 20.9961 -17.9395 25.8594 -13.0762 25.8691 -7.04102 C 25.8789 -1.00586 21.0059 3.85742 14.9707 3.85742 Z M 14.9414 -1.06445 C 15.5176 -1.06445 15.8594 -1.45508 15.8594 -2.06055 L 15.8594 -6.13281 L 20.0977 -6.13281 C 20.6934 -6.13281 21.1133 -6.46484 21.1133 -7.02148 C 21.1133 -7.59766 20.7227 -7.93945 20.0977 -7.93945 L 15.8594 -7.93945 L 15.8594 -12.1875 C 15.8594 -12.8027 15.5176 -13.1934 14.9414 -13.1934 C 14.3848 -13.1934 14.0625 -12.7832 14.0625 -12.1875 L 14.0625 -7.93945 L 9.82422 -7.93945 C 9.20898 -7.93945 8.80859 -7.59766 8.80859 -7.02148 C 8.80859 -6.46484 9.23828 -6.13281 9.82422 -6.13281 L 14.0625 -6.13281 L 14.0625 -2.06055 C 14.0625 -1.47461 14.3848 -1.06445 14.9414 -1.06445 Z"/>
  </g>
  <text style="stroke:none;fill:black;font-family:-apple-system,&quot;SF Pro Display&quot;,&quot;SF Pro Text&quot;,Helvetica,sans-serif;font-weight:bold;" transform="matrix(1 0 0 1 263 1953)">Design Variations</text>
  <text style="stroke:none;fill:black;font-family:-apple-system,&quot;SF Pro Display&quot;,&quot;SF Pro Text&quot;,Helvetica,sans-serif;" transform="matrix(1 0 0 1 263 1971)">Symbols are supported in up to nine weights and three scales.</text>
  <text style="stroke:none;fill:black;font-family:-apple-system,&quot;SF Pro Display&quot;,&quot;SF Pro Text&quot;,Helvetica,sans-serif;" transform="matrix(1 0 0 1 263 1989)">For optimal layout with text and other symbols, vertically align</text>
  <text style="stroke:none;fill:black;font-family:-apple-system,&quot;SF Pro Display&quot;,&quot;SF Pro Text&quot;,Helvetica,sans-serif;" transform="matrix(1 0 0 1 263 2007)">symbols with the adjacent text.</text>
  <rect height="14" id="" style="fill:#00AEEF;stroke:none;opacity:0.4;" width="3" x="776" y="1919"/>
  <g id="" transform="matrix(1 0 0 1 779 1933)">
   <path d="M 10.5273 0 L 12.373 0 L 7.17773 -14.0918 L 5.43945 -14.0918 L 0.244141 0 L 2.08984 0 L 3.50586 -4.0332 L 9.11133 -4.0332 Z M 6.2793 -11.9531 L 6.33789 -11.9531 L 8.59375 -5.52734 L 4.02344 -5.52734 Z"/>
  </g>
  <rect height="14" id="" style="fill:#00AEEF;stroke:none;opacity:0.4;" width="3" x="791.617" y="1919"/>
  <text style="stroke:none;fill:black;font-family:-apple-system,&quot;SF Pro Display&quot;,&quot;SF Pro Text&quot;,Helvetica,sans-serif;font-weight:bold;" transform="matrix(1 0 0 1 776 1953)">Side Bearings</text>
  <text style="stroke:none;fill:black;font-family:-apple-system,&quot;SF Pro Display&quot;,&quot;SF Pro Text&quot;,Helvetica,sans-serif;" transform="matrix(1 0 0 1 776 1971)">Horizontal padding on the left and right side of each symbol</text>
  <text style="stroke:none;fill:black;font-family:-apple-system,&quot;SF Pro Display&quot;,&quot;SF Pro Text&quot;,Helvetica,sans-serif;" transform="matrix(1 0 0 1 776 1989)">can be adjusted by modifying the width of the blue rectangles.</text>
  <text style="stroke:none;fill:black;font-family:-apple-system,&quot;SF Pro Display&quot;,&quot;SF Pro Text&quot;,Helvetica,sans-serif;" transform="matrix(1 0 0 1 776 2007)">Modifications are automatically applied proportionally to all</text>
  <text style="stroke:none;fill:black;font-family:-apple-system,&quot;SF Pro Display&quot;,&quot;SF Pro Text&quot;,Helvetica,sans-serif;" transform="matrix(1 0 0 1 776 2025)">scales and weights.</text>
  <g id="" transform="matrix(1 0 0 1 1289 1933)">
   <path d="M 2.96875 2.35352 L 3.80859 3.19336 C 4.84375 4.22852 6.12305 4.15039 7.19727 2.97852 L 16.1621 -6.82617 C 16.5527 -6.74805 16.9629 -6.8457 17.4902 -7.02148 C 18.1738 -7.25586 18.2715 -7.25586 18.3887 -7.13867 C 18.5352 -7.01172 18.4863 -6.89453 18.2422 -6.25 C 17.8809 -5.33203 17.8125 -4.79492 18.5547 -4.02344 L 19.4238 -3.13477 C 20.2734 -2.24609 21.3281 -2.26562 22.2168 -3.14453 L 25.0586 -5.97656 C 25.9473 -6.86523 25.957 -7.92969 25.0781 -8.7793 L 24.1797 -9.64844 C 23.4082 -10.4004 22.8711 -10.3516 21.9629 -9.98047 C 21.3184 -9.72656 21.2012 -9.6875 21.0645 -9.81445 C 20.9375 -9.93164 20.9473 -10.0391 21.1816 -10.7129 C 21.5332 -11.6895 21.5723 -12.2852 20.752 -13.0957 L 19.3359 -14.5117 C 15.1953 -18.6133 11.2305 -18.7402 7.65625 -15.4395 C 7.08008 -14.9023 6.99219 -14.1504 7.53906 -13.6133 L 7.79297 -13.3594 C 8.22266 -12.9297 8.86719 -12.8418 9.41406 -13.1152 C 11.0645 -13.9453 12.2559 -14.0234 13.457 -12.9785 L 13.0273 -11.416 C 12.8516 -10.8008 12.793 -10.3418 12.9199 -9.93164 L 3.18359 -1.04492 C 2.02148 0.0292969 1.93359 1.32812 2.96875 2.35352 Z M 8.96484 -14.4922 C 8.89648 -14.5703 8.86719 -14.6582 8.99414 -14.7559 C 11.709 -17.2852 15.0391 -16.8457 18.3496 -13.5254 L 19.6973 -12.168 C 20.0879 -11.7773 20.0977 -11.582 19.8828 -10.8691 C 19.6582 -10.127 19.502 -9.53125 20.1465 -8.88672 C 20.8105 -8.22266 21.2891 -8.41797 22.207 -8.63281 C 22.9004 -8.79883 23.0664 -8.79883 23.4473 -8.41797 L 24.0918 -7.77344 C 24.4043 -7.48047 24.4141 -7.32422 24.0723 -6.97266 L 21.2207 -4.13086 C 20.8887 -3.79883 20.7227 -3.79883 20.4297 -4.10156 L 19.7852 -4.75586 C 19.4141 -5.13672 19.4141 -5.30273 19.5801 -6.01562 C 19.7852 -6.88477 19.9805 -7.38281 19.3262 -8.04688 C 18.6719 -8.7207 18.0762 -8.57422 17.3438 -8.33008 C 16.5625 -8.06641 16.3281 -8.06641 15.8984 -8.49609 L 14.6094 -9.78516 C 14.1699 -10.2246 14.1309 -10.4395 14.2676 -10.9082 L 15.0293 -13.3984 C 13.3887 -15.2832 11.4941 -15.5566 9.20898 -14.4434 C 9.11133 -14.3945 9.04297 -14.4141 8.96484 -14.4922 Z M 3.96484 1.36719 C 3.52539 0.927734 3.54492 0.537109 4.14062 -0.00976562 L 13.7402 -8.81836 L 15 -7.55859 L 6.17188 2.02148 C 5.625 2.60742 5.24414 2.64648 4.79492 2.19727 Z"/>
  </g>
  <text style="stroke:none;fill:black;font-family:-apple-system,&quot;SF Pro Display&quot;,&quot;SF Pro Text&quot;,Helvetica,sans-serif;font-weight:bold;" transform="matrix(1 0 0 1 1289 1953)">Exporting</text>
  <text style="stroke:none;fill:black;font-family:-apple-system,&quot;SF Pro Display&quot;,&quot;SF Pro Text&quot;,Helvetica,sans-serif;" transform="matrix(1 0 0 1 1289 1971)">Symbols should be outlined when exporting to ensure the</text>
  <text style="stroke:none;fill:black;font-family:-apple-system,&quot;SF Pro Display&quot;,&quot;SF Pro Text&quot;,Helvetica,sans-serif;" transform="matrix(1 0 0 1 1289 1989)">design is preserved when submitting to Xcode.</text>
  <text id="template-version" style="stroke:none;fill:black;font-family:-apple-system,&quot;SF Pro Display&quot;,&quot;SF Pro Text&quot;,Helvetica,sans-serif;text-anchor:end;" transform="matrix(1 0 0 1 3036 1933)">Template v.0.1</text>
  <text style="stroke:none;fill:black;font-family:-apple-system,&quot;SF Pro Display&quot;,&quot;SF Pro Text&quot;,Helvetica,sans-serif;text-anchor:end;" transform="matrix(1 0 0 1 3036 1951)">Generated from textformat.size</text>
  <text style="stroke:none;fill:black;font-family:-apple-system,&quot;SF Pro Display&quot;,&quot;SF Pro Text&quot;,Helvetica,sans-serif;text-anchor:end;" transform="matrix(1 0 0 1 3036 1969)">Typeset at 100 points</text>
  <text style="stroke:none;fill:black;font-family:-apple-system,&quot;SF Pro Display&quot;,&quot;SF Pro Text&quot;,Helvetica,sans-serif;" transform="matrix(1 0 0 1 263 726)">Small</text>
  <text style="stroke:none;fill:black;font-family:-apple-system,&quot;SF Pro Display&quot;,&quot;SF Pro Text&quot;,Helvetica,sans-serif;" transform="matrix(1 0 0 1 263 1156)">Medium</text>
  <text style="stroke:none;fill:black;font-family:-apple-system,&quot;SF Pro Display&quot;,&quot;SF Pro Text&quot;,Helvetica,sans-serif;" transform="matrix(1 0 0 1 263 1586)">Large</text>
 </g>
 <g id="Guides">
  <g id="H-reference" style="fill:#27AAE1;stroke:none;" transform="matrix(1 0 0 1 339 696)">
   <path d="M 54.9316 0 L 57.666 0 L 30.5664 -70.459 L 28.0762 -70.459 L 0.976562 0 L 3.66211 0 L 12.9395 -24.4629 L 45.7031 -24.4629 Z M 29.1992 -67.0898 L 29.4434 -67.0898 L 44.8242 -26.709 L 13.8184 -26.709 Z"/>
  </g>
  <line id="Baseline-S" style="fill:none;stroke:#27AAE1;opacity:1;stroke-width:0.577;" x1="263" x2="3036" y1="696" y2="696"/>
  <line id="Capline-S" style="fill:none;stroke:#27AAE1;opacity:1;stroke-width:0.577;" x1="263" x2="3036" y1="625.541" y2="625.541"/>
  <g id="H-reference" style="fill:#27AAE1;stroke:none;" transform="matrix(1 0 0 1 339 1126)">
   <path d="M 54.9316 0 L 57.666 0 L 30.5664 -70.459 L 28.0762 -70.459 L 0.976562 0 L 3.66211 0 L 12.9395 -24.4629 L 45.7031 -24.4629 Z M 29.1992 -67.0898 L 29.4434 -67.0898 L 44.8242 -26.709 L 13.8184 -26.709 Z"/>
  </g>
  <line id="Baseline-M" style="fill:none;stroke:#27AAE1;opacity:1;stroke-width:0.577;" x1="263" x2="3036" y1="1126" y2="1126"/>
  <line id="Capline-M" style="fill:none;stroke:#27AAE1;opacity:1;stroke-width:0.577;" x1="263" x2="3036" y1="1055.54" y2="1055.54"/>
  <g id="H-reference" style="fill:#27AAE1;stroke:none;" transform="matrix(1 0 0 1 339 1556)">
   <path d="M 54.9316 0 L 57.666 0 L 30.5664 -70.459 L 28.0762 -70.459 L 0.976562 0 L 3.66211 0 L 12.9395 -24.4629 L 45.7031 -24.4629 Z M 29.1992 -67.0898 L 29.4434 -67.0898 L 44.8242 -26.709 L 13.8184 -26.709 Z"/>
  </g>
  <line id="Baseline-L" style="fill:none;stroke:#27AAE1;opacity:1;stroke-width:0.577;" x1="263" x2="3036" y1="1556" y2="1556"/>
  <line id="Capline-L" style="fill:none;stroke:#27AAE1;opacity:1;stroke-width:0.577;" x1="263" x2="3036" y1="1485.54" y2="1485.54"/>
  <rect height="119.336" id="left-margin" style="fill:#00AEEF;stroke:none;opacity:0.4;" width="12.4512" x="1383.24" y="1030.79"/>
  <rect height="119.336" id="right-margin" style="fill:#00AEEF;stroke:none;opacity:0.4;" width="12.4512" x="1503.99" y="1030.79"/>
 </g>
 <g id="Symbols">
  <g id="Ultralight-S" transform="matrix(1 0 0 1 509.003 696)">
   <path d="M 47.8516 -7.08008 C 48.3887 -7.08008 48.6816 -7.37305 48.9746 -8.00781 L 56.2012 -26.7578 L 82.1289 -26.7578 L 89.3555 -8.00781 C 89.5996 -7.37305 89.8926 -7.08008 90.5273 -7.08008 C 91.2109 -7.08008 91.6504 -7.4707 91.6504 -8.1543 C 91.6504 -8.34961 91.6016 -8.64258 91.5039 -8.88672 L 70.5566 -62.3535 C 70.3125 -62.9395 69.9219 -63.3789 69.1895 -63.3789 C 68.457 -63.3789 67.9688 -62.9883 67.7246 -62.3535 L 46.8262 -8.88672 C 46.7285 -8.64258 46.6797 -8.30078 46.6797 -8.10547 C 46.6797 -7.4707 47.1191 -7.08008 47.8516 -7.08008 Z M 56.9336 -28.8086 L 69.0918 -60.0586 L 69.2383 -60.0586 L 81.3477 -28.8086 Z M 10.8887 -7.08008 C 11.5234 -7.08008 11.7676 -7.37305 12.0605 -8.00781 L 17.041 -21.0449 L 33.4961 -21.0449 L 38.4766 -8.00781 C 38.7695 -7.37305 39.0137 -7.08008 39.6973 -7.08008 C 40.2832 -7.08008 40.7715 -7.4707 40.7715 -8.10547 C 40.7715 -8.34961 40.7227 -8.64258 40.625 -8.88672 L 26.6113 -44.873 C 26.3672 -45.459 25.9766 -45.8496 25.2441 -45.8496 C 24.5605 -45.8496 24.1699 -45.459 23.9258 -44.873 L 9.91211 -8.88672 C 9.81445 -8.64258 9.76562 -8.34961 9.76562 -8.10547 C 9.76562 -7.4707 10.2051 -7.08008 10.8887 -7.08008 Z M 17.8223 -23.0469 L 25.1953 -42.1875 L 25.3418 -42.1875 L 32.7148 -23.0469 Z"/>
  </g>
  <g id="Thin-S" transform="matrix(1 0 0 1 805.299 696)">
   <path d="M 48.877 -7.03125 C 49.8047 -7.03125 50.293 -7.4707 50.6836 -8.54492 L 57.2754 -25.8301 L 82.2754 -25.8301 L 88.8184 -8.54492 C 89.2578 -7.4707 89.6973 -7.03125 90.7227 -7.03125 C 91.748 -7.03125 92.4805 -7.66602 92.4805 -8.69141 C 92.4805 -9.0332 92.3828 -9.375 92.2363 -9.81445 L 72.1191 -61.6699 C 71.7285 -62.793 70.9961 -63.4277 69.7754 -63.4277 C 68.6035 -63.4277 67.8223 -62.793 67.3828 -61.7188 L 47.3145 -9.81445 C 47.168 -9.375 47.0703 -8.98438 47.0703 -8.64258 C 47.0703 -7.66602 47.7539 -7.03125 48.877 -7.03125 Z M 58.3496 -28.9551 L 69.6777 -58.6426 L 69.8242 -58.6426 L 81.1523 -28.9551 Z M 11.4746 -7.03125 C 12.3535 -7.03125 12.8418 -7.4707 13.2324 -8.49609 L 17.6758 -20.3613 L 33.4473 -20.3613 L 37.9395 -8.49609 C 38.3301 -7.4707 38.7695 -7.03125 39.7461 -7.03125 C 40.6738 -7.03125 41.4062 -7.66602 41.4062 -8.64258 C 41.4062 -8.98438 41.3086 -9.375 41.1621 -9.86328 L 27.8809 -44.2383 C 27.4902 -45.3125 26.7578 -45.9473 25.5859 -45.9473 C 24.4141 -45.9473 23.6816 -45.3125 23.291 -44.2383 L 10.0098 -9.86328 C 9.81445 -9.375 9.76562 -8.98438 9.76562 -8.64258 C 9.76562 -7.66602 10.4492 -7.03125 11.4746 -7.03125 Z M 18.75 -23.2422 L 25.4883 -41.2598 L 25.6836 -41.2598 L 32.4219 -23.2422 Z"/>
  </g>
  <g id="Light-S" transform="matrix(1 0 0 1 1101.23 696)">
   <path d="M 50.8301 -7.03125 C 52.4902 -7.03125 53.3203 -7.71484 54.0039 -9.57031 L 59.3262 -24.0234 L 82.5195 -24.0234 L 87.8906 -9.57031 C 88.5254 -7.71484 89.3555 -7.03125 91.0645 -7.03125 C 92.8711 -7.03125 94.043 -8.10547 94.043 -9.76562 C 94.043 -10.3516 93.9453 -10.8887 93.7012 -11.6211 L 75.1953 -60.4004 C 74.4141 -62.4512 73.0469 -63.4766 70.9473 -63.4766 C 68.8477 -63.4766 67.4805 -62.4512 66.748 -60.4492 L 48.2422 -11.5723 C 47.9492 -10.8398 47.9004 -10.3027 47.9004 -9.7168 C 47.9004 -8.05664 48.9746 -7.03125 50.8301 -7.03125 Z M 60.9863 -29.1992 L 70.8008 -55.957 L 70.9961 -55.957 L 80.8105 -29.1992 Z M 12.6465 -7.03125 C 14.0137 -7.03125 14.9414 -7.71484 15.5273 -9.47266 L 18.9453 -19.043 L 33.3984 -19.043 L 36.8164 -9.47266 C 37.4512 -7.66602 38.3789 -7.03125 39.7461 -7.03125 C 41.4551 -7.03125 42.627 -8.10547 42.627 -9.66797 C 42.627 -10.2539 42.4805 -10.8887 42.1875 -11.6699 L 30.3223 -43.0664 C 29.5898 -44.9707 28.2227 -46.1914 26.123 -46.1914 C 24.1211 -46.1914 22.8027 -44.9707 22.0703 -43.0664 L 10.1562 -11.6699 C 9.86328 -10.8887 9.76562 -10.2539 9.76562 -9.66797 C 9.76562 -8.10547 10.9375 -7.03125 12.6465 -7.03125 Z M 20.5078 -23.6816 L 25.9766 -39.3555 L 26.3672 -39.3555 L 31.8848 -23.6816 Z"/>
  </g>
  <g id="Regular-S" transform="matrix(1 0 0 1 1397.33 696)">
   <path d="M 52.3438 -6.98242 C 54.541 -6.98242 55.6641 -7.86133 56.4941 -10.3027 L 60.8887 -22.7051 L 82.7148 -22.7051 L 87.1582 -10.3027 C 87.9883 -7.86133 89.1113 -6.98242 91.3086 -6.98242 C 93.7012 -6.98242 95.2637 -8.39844 95.2637 -10.5957 C 95.2637 -11.3281 95.1172 -12.0117 94.7754 -12.9395 L 77.4902 -59.4238 C 76.4648 -62.207 74.6094 -63.5254 71.8262 -63.5254 C 69.043 -63.5254 67.2363 -62.207 66.2598 -59.4727 L 48.9258 -12.8906 C 48.584 -11.9629 48.4863 -11.2793 48.4863 -10.5469 C 48.4863 -8.34961 49.9512 -6.98242 52.3438 -6.98242 Z M 63.0371 -29.3945 L 71.6797 -53.9062 L 71.9238 -53.9062 L 80.5664 -29.3945 Z M 13.5254 -6.98242 C 15.2832 -6.98242 16.5039 -7.86133 17.2852 -10.1562 L 19.9219 -18.0664 L 33.3496 -18.0664 L 35.9863 -10.1562 C 36.7676 -7.8125 38.0371 -6.98242 39.7949 -6.98242 C 42.041 -6.98242 43.5547 -8.39844 43.5547 -10.4492 C 43.5547 -11.2305 43.4082 -12.0117 42.9688 -13.0859 L 32.1289 -42.1387 C 31.2012 -44.7266 29.3945 -46.3379 26.5625 -46.3379 C 23.877 -46.3379 22.0703 -44.7266 21.1426 -42.1387 L 10.3027 -13.0859 C 9.86328 -12.0117 9.76562 -11.2305 9.76562 -10.4492 C 9.76562 -8.39844 11.2793 -6.98242 13.5254 -6.98242 Z M 21.8262 -23.9746 L 26.3672 -37.9395 L 26.9043 -37.9395 L 31.4453 -23.9746 Z"/>
  </g>
  <g id="Medium-S" transform="matrix(1 0 0 1 1691.87 696)">
   <path d="M 55.5664 -6.49414 C 58.3496 -6.49414 59.7656 -7.66602 60.6934 -10.6445 L 64.502 -21.5332 L 85.6934 -21.5332 L 89.502 -10.6445 C 90.4785 -7.66602 91.8945 -6.49414 94.6289 -6.49414 C 97.6562 -6.49414 99.6094 -8.30078 99.6094 -11.0352 C 99.6094 -12.0605 99.4629 -12.8906 99.0234 -14.0625 L 82.7148 -58.6426 C 81.3965 -62.2559 79.0039 -63.9648 75.1465 -63.9648 C 71.4355 -63.9648 69.043 -62.207 67.7734 -58.6914 L 51.3184 -13.8672 C 50.9277 -12.7441 50.7812 -11.8652 50.7812 -10.9375 C 50.7812 -8.20312 52.5879 -6.49414 55.5664 -6.49414 Z M 66.8945 -29.4434 L 74.9512 -53.2715 L 75.2441 -53.2715 L 83.3008 -29.4434 Z M 14.3066 -6.49414 C 16.5527 -6.49414 18.0176 -7.66602 18.8965 -10.5469 L 21.0449 -17.1387 L 34.6191 -17.1387 L 36.7676 -10.498 C 37.6953 -7.56836 39.1113 -6.49414 41.4551 -6.49414 C 44.0918 -6.49414 45.9473 -8.25195 45.9473 -10.7422 C 45.9473 -11.7188 45.8008 -12.6465 45.3125 -13.916 L 34.7168 -42.5293 C 33.4961 -45.8984 31.2988 -47.7539 27.7344 -47.7539 C 24.3652 -47.7539 22.2168 -45.8496 20.9961 -42.5293 L 10.4004 -13.916 C 9.96094 -12.6953 9.76562 -11.6211 9.76562 -10.7422 C 9.76562 -8.1543 11.5234 -6.49414 14.3066 -6.49414 Z M 23.0957 -24.1211 L 27.5391 -38.4277 L 28.0273 -38.4277 L 32.5195 -24.1211 Z"/>
  </g>
  <g id="Semibold-S" transform="matrix(1 0 0 1 1986.92 696)">
   <path d="M 58.1055 -6.10352 C 61.2793 -6.10352 62.8906 -7.51953 63.9648 -10.8887 L 67.2852 -20.6055 L 87.9883 -20.6055 L 91.3086 -10.8887 C 92.3828 -7.51953 94.043 -6.10352 97.2168 -6.10352 C 100.684 -6.10352 102.93 -8.20312 102.93 -11.377 C 102.93 -12.5977 102.783 -13.623 102.295 -14.9414 L 86.6699 -58.0078 C 85.1562 -62.2559 82.3242 -64.2578 77.6855 -64.2578 C 73.291 -64.2578 70.459 -62.2559 68.9941 -58.0566 L 53.1738 -14.5996 C 52.7344 -13.3301 52.5391 -12.3047 52.5391 -11.2793 C 52.5391 -8.10547 54.6387 -6.10352 58.1055 -6.10352 Z M 69.8242 -29.4434 L 77.4902 -52.7344 L 77.7344 -52.7344 L 85.4004 -29.4434 Z M 14.9414 -6.10352 C 17.5293 -6.10352 19.1406 -7.4707 20.1172 -10.8398 L 21.9238 -16.4062 L 35.5957 -16.4062 L 37.4023 -10.7422 C 38.3789 -7.42188 39.9414 -6.10352 42.7246 -6.10352 C 45.7031 -6.10352 47.8027 -8.10547 47.8027 -10.9863 C 47.8027 -12.1094 47.6074 -13.1348 47.0703 -14.502 L 36.6699 -42.7734 C 35.2539 -46.7773 32.7637 -48.8281 28.6621 -48.8281 C 24.7559 -48.8281 22.3145 -46.7285 20.8984 -42.7734 L 10.498 -14.502 C 10.0098 -13.1836 9.76562 -11.9141 9.76562 -10.9863 C 9.76562 -8.00781 11.7676 -6.10352 14.9414 -6.10352 Z M 24.0723 -24.2188 L 28.418 -38.8184 L 28.9062 -38.8184 L 33.3496 -24.2188 Z"/>
  </g>
  <g id="Bold-S" transform="matrix(1 0 0 1 2281.41 696)">
   <path d="M 61.377 -5.61523 C 65.1367 -5.61523 67.041 -7.32422 68.2129 -11.2305 L 70.9473 -19.4336 L 91.0156 -19.4336 L 93.7012 -11.2305 C 94.9219 -7.32422 96.875 -5.61523 100.586 -5.61523 C 104.688 -5.61523 107.373 -8.05664 107.373 -11.8652 C 107.373 -13.3301 107.178 -14.502 106.641 -16.0645 L 91.9434 -57.2266 C 90.1855 -62.3047 86.7676 -64.6973 81.0547 -64.6973 C 75.7324 -64.6973 72.3145 -62.2559 70.5566 -57.2266 L 55.6152 -15.5273 C 55.0781 -14.1602 54.8828 -12.8418 54.8828 -11.6699 C 54.8828 -7.95898 57.3242 -5.61523 61.377 -5.61523 Z M 73.7305 -29.4922 L 80.8105 -52.0508 L 81.1035 -52.0508 L 88.1836 -29.4922 Z M 15.7715 -5.61523 C 18.8477 -5.61523 20.6055 -7.22656 21.7285 -11.2305 L 23.0957 -15.4785 L 36.8652 -15.4785 L 38.2324 -11.0352 C 39.2578 -7.17773 41.0645 -5.61523 44.3848 -5.61523 C 47.8027 -5.61523 50.2441 -7.95898 50.2441 -11.3281 C 50.2441 -12.5977 50.0488 -13.7695 49.4629 -15.332 L 39.3066 -43.1641 C 37.5488 -47.998 34.7168 -50.1953 29.834 -50.1953 C 25.2441 -50.1953 22.4121 -47.9004 20.752 -43.1641 L 10.6445 -15.332 C 10.0586 -13.8672 9.76562 -12.3535 9.76562 -11.3281 C 9.76562 -7.76367 12.0605 -5.61523 15.7715 -5.61523 Z M 25.3906 -24.3164 L 29.5898 -39.3066 L 30.0293 -39.3066 L 34.4238 -24.3164 Z"/>
  </g>
  <g id="Heavy-S" transform="matrix(1 0 0 1 2574.92 696)">
   <path d="M 66.1621 -4.88281 C 70.7031 -4.88281 73.0469 -6.98242 74.4141 -11.7188 L 76.2207 -17.7246 L 95.4102 -17.7246 L 97.2168 -11.7188 C 98.584 -6.98242 100.928 -4.88281 105.469 -4.88281 C 110.498 -4.88281 113.77 -7.91016 113.77 -12.5 C 113.77 -14.3555 113.525 -15.8203 112.891 -17.7246 L 99.6094 -56.0059 C 97.4121 -62.3535 93.1641 -65.332 85.9375 -65.332 C 79.248 -65.332 75 -62.3047 72.8027 -56.0059 L 59.082 -16.9434 C 58.5449 -15.2832 58.252 -13.6719 58.252 -12.2559 C 58.252 -7.71484 61.2793 -4.88281 66.1621 -4.88281 Z M 16.9434 -4.88281 C 20.7031 -4.88281 22.8027 -6.88477 24.0723 -11.7676 L 24.7559 -14.1602 L 38.7207 -14.1602 L 39.4043 -11.5234 C 40.5762 -6.78711 42.627 -4.88281 46.7773 -4.88281 C 50.8301 -4.88281 53.8086 -7.71484 53.8086 -11.7676 C 53.8086 -13.3301 53.5156 -14.6973 52.832 -16.5039 L 43.0664 -43.7012 C 40.918 -49.707 37.5488 -52.2461 31.543 -52.2461 C 25.9766 -52.2461 22.5586 -49.5605 20.5078 -43.7012 L 10.8398 -16.5039 C 10.2051 -14.8438 9.76562 -12.9395 9.76562 -11.7676 C 9.76562 -7.42188 12.4512 -4.88281 16.9434 -4.88281 Z M 79.3457 -29.541 L 85.5957 -51.0742 L 85.9375 -51.0742 L 92.1875 -29.541 Z M 27.2461 -24.5117 L 31.2988 -39.9902 L 31.6406 -39.9902 L 35.9863 -24.5117 Z"/>
  </g>
  <g id="Black-S" transform="matrix(1 0 0 1 2868.78 696)">
   <path d="M 70.4102 -4.24805 C 75.7324 -4.24805 78.3691 -6.73828 79.9805 -12.1582 L 80.957 -16.1621 L 99.3164 -16.1621 L 100.293 -12.1582 C 101.855 -6.73828 104.59 -4.24805 109.814 -4.24805 C 115.674 -4.24805 119.482 -7.76367 119.482 -13.1348 C 119.482 -15.2832 119.189 -16.9922 118.506 -19.1895 L 106.445 -54.9805 C 103.906 -62.4023 98.877 -65.918 90.332 -65.918 C 82.373 -65.918 77.4414 -62.3535 74.8535 -54.9805 L 62.2559 -18.2129 C 61.6211 -16.3574 61.2305 -14.4043 61.2305 -12.793 C 61.2305 -7.51953 64.7461 -4.24805 70.4102 -4.24805 Z M 17.9688 -4.24805 C 22.4121 -4.24805 24.707 -6.5918 26.1719 -12.2559 L 26.2695 -12.9395 L 40.3809 -12.9395 L 40.4785 -11.9141 C 41.748 -6.49414 44.043 -4.24805 48.9746 -4.24805 C 53.5645 -4.24805 56.9824 -7.51953 56.9824 -12.1582 C 56.9824 -14.0137 56.6406 -15.5273 55.9082 -17.5781 L 46.4355 -44.1895 C 43.8965 -51.2207 40.0879 -54.0527 33.1055 -54.0527 C 26.6602 -54.0527 22.7051 -51.0254 20.3125 -44.1895 L 10.9863 -17.5781 C 10.3027 -15.7227 9.76562 -13.4766 9.76562 -12.1582 C 9.76562 -7.12891 12.8418 -4.24805 17.9688 -4.24805 Z M 84.4238 -29.5898 L 89.9414 -50.1953 L 90.2832 -50.1953 L 95.8008 -29.5898 Z M 28.9551 -24.707 L 32.8613 -40.625 L 33.1055 -40.625 L 37.4023 -24.707 Z"/>
  </g>
  <g id="Ultralight-M" transform="matrix(1 0 0 1 495.16 1126)">
   <path d="M 60.6934 0.683594 C 61.2793 0.683594 61.5723 0.390625 61.8652 -0.292969 L 71.3379 -24.7559 L 104.736 -24.7559 L 114.209 -0.292969 C 114.502 0.390625 114.795 0.683594 115.479 0.683594 C 116.162 0.683594 116.65 0.292969 116.65 -0.439453 C 116.65 -0.683594 116.602 -0.976562 116.455 -1.26953 L 89.502 -70.1172 C 89.2578 -70.6543 88.8184 -71.1426 88.0859 -71.1426 C 87.3047 -71.1426 86.8164 -70.752 86.6211 -70.1172 L 59.6191 -1.26953 C 59.4727 -0.976562 59.4238 -0.585938 59.4238 -0.390625 C 59.4238 0.292969 59.9121 0.683594 60.6934 0.683594 Z M 72.168 -26.9531 L 87.9395 -67.4316 L 88.1348 -67.4316 L 103.906 -26.9531 Z M 13.6719 0.683594 C 14.4043 0.683594 14.5996 0.390625 14.8926 -0.292969 L 21.4844 -17.3828 L 42.7734 -17.3828 L 49.3652 -0.292969 C 49.6582 0.390625 49.9023 0.683594 50.6836 0.683594 C 51.2695 0.683594 51.8066 0.292969 51.8066 -0.439453 C 51.8066 -0.683594 51.7578 -0.976562 51.6113 -1.26953 L 33.4961 -47.8027 C 33.252 -48.3887 32.8125 -48.7305 32.1289 -48.7305 C 31.4453 -48.7305 31.0059 -48.3887 30.7617 -47.8027 L 12.6465 -1.26953 C 12.5488 -0.976562 12.4512 -0.683594 12.4512 -0.439453 C 12.4512 0.292969 12.9395 0.683594 13.6719 0.683594 Z M 22.4121 -19.5801 L 32.0801 -44.5312 L 32.1777 -44.5312 L 41.8457 -19.5801 Z"/>
  </g>
  <g id="Thin-M" transform="matrix(1 0 0 1 791.408 1126)">
   <path d="M 61.8164 0.732422 C 62.8418 0.732422 63.3301 0.244141 63.7695 -0.878906 L 72.5098 -23.7305 L 104.932 -23.7305 L 113.672 -0.878906 C 114.111 0.244141 114.6 0.732422 115.674 0.732422 C 116.846 0.732422 117.578 0.0488281 117.578 -1.07422 C 117.578 -1.41602 117.48 -1.85547 117.334 -2.29492 L 91.2598 -69.3359 C 90.8203 -70.5078 90.0391 -71.1914 88.7695 -71.1914 C 87.4512 -71.1914 86.6211 -70.5566 86.2305 -69.3848 L 60.1562 -2.29492 C 59.9609 -1.80664 59.8633 -1.36719 59.8633 -0.976562 C 59.8633 0.0488281 60.5957 0.732422 61.8164 0.732422 Z M 73.7305 -27.0996 L 88.623 -65.8691 L 88.8184 -65.8691 L 103.711 -27.0996 Z M 14.3066 0.732422 C 15.332 0.732422 15.8203 0.244141 16.2598 -0.878906 L 22.2168 -16.6016 L 42.7246 -16.6016 L 48.7305 -0.878906 C 49.1699 0.292969 49.6094 0.732422 50.6836 0.732422 C 51.709 0.732422 52.4902 0.0488281 52.4902 -1.02539 C 52.4902 -1.41602 52.4414 -1.85547 52.2461 -2.34375 L 34.9121 -47.0703 C 34.4727 -48.1934 33.6914 -48.8281 32.4707 -48.8281 C 31.25 -48.8281 30.4688 -48.1934 30.0781 -47.0703 L 12.7441 -2.34375 C 12.5488 -1.85547 12.4512 -1.41602 12.4512 -1.02539 C 12.4512 0.0488281 13.2324 0.732422 14.3066 0.732422 Z M 23.4375 -19.8242 L 32.373 -43.4082 L 32.6172 -43.4082 L 41.5527 -19.8242 Z"/>
  </g>
  <g id="Light-M" transform="matrix(1 0 0 1 1087.22 1126)">
   <path d="M 64.0625 0.78125 C 65.8691 0.78125 66.7969 0 67.5293 -2.05078 L 74.8535 -21.6797 L 105.225 -21.6797 L 112.549 -2.05078 C 113.281 0 114.209 0.78125 116.064 0.78125 C 118.066 0.78125 119.385 -0.390625 119.385 -2.29492 C 119.385 -2.92969 119.238 -3.51562 118.945 -4.3457 L 94.6777 -67.9199 C 93.8477 -70.1172 92.3828 -71.2402 90.0391 -71.2402 C 87.7441 -71.2402 86.2793 -70.166 85.4492 -67.9199 L 61.1816 -4.29688 C 60.8887 -3.51562 60.791 -2.88086 60.791 -2.24609 C 60.791 -0.390625 62.0117 0.78125 64.0625 0.78125 Z M 76.7578 -27.4414 L 89.8926 -62.793 L 90.1367 -62.793 L 103.32 -27.4414 Z M 15.625 0.78125 C 17.1875 0.78125 18.2129 0 18.8477 -1.95312 L 23.6816 -15.1367 L 42.6758 -15.1367 L 47.4609 -1.95312 C 48.1445 0.0488281 49.1699 0.78125 50.7324 0.78125 C 52.5879 0.78125 53.9062 -0.390625 53.9062 -2.19727 C 53.9062 -2.83203 53.7598 -3.51562 53.418 -4.39453 L 37.6465 -45.7031 C 36.8652 -47.8027 35.4004 -49.1211 33.1055 -49.1211 C 30.9082 -49.1211 29.4434 -47.8027 28.7109 -45.7031 L 12.8906 -4.39453 C 12.5488 -3.51562 12.4512 -2.83203 12.4512 -2.19727 C 12.4512 -0.390625 13.7207 0.78125 15.625 0.78125 Z M 25.4395 -20.3125 L 32.959 -41.3086 L 33.3984 -41.3086 L 40.918 -20.3125 Z"/>
  </g>
  <g id="Regular-M" transform="matrix(1 0 0 1 1383.24 1126)">
   <path d="M 65.7227 0.78125 C 68.1641 0.78125 69.4336 -0.195312 70.3613 -2.88086 L 76.6602 -20.166 L 105.469 -20.166 L 111.719 -2.88086 C 112.695 -0.195312 113.916 0.78125 116.357 0.78125 C 118.994 0.78125 120.752 -0.78125 120.752 -3.22266 C 120.752 -4.05273 120.557 -4.78516 120.215 -5.85938 L 97.2656 -66.7969 C 96.1426 -69.8242 94.1406 -71.2891 91.0645 -71.2891 C 87.9883 -71.2891 85.9863 -69.8242 84.9121 -66.8457 L 61.9629 -5.81055 C 61.5723 -4.73633 61.4746 -4.00391 61.4746 -3.17383 C 61.4746 -0.732422 63.0859 0.78125 65.7227 0.78125 Z M 79.0527 -27.6367 L 90.8691 -60.498 L 91.1621 -60.498 L 103.027 -27.6367 Z M 16.6504 0.78125 C 18.6035 0.78125 19.9707 -0.195312 20.8496 -2.73438 L 24.7559 -14.0137 L 42.627 -14.0137 L 46.5332 -2.73438 C 47.4121 -0.146484 48.7793 0.78125 50.7812 0.78125 C 53.2227 0.78125 54.9316 -0.78125 54.9316 -3.07617 C 54.9316 -3.90625 54.7852 -4.78516 54.2969 -6.00586 L 39.7461 -44.6777 C 38.7207 -47.5098 36.7188 -49.3164 33.6426 -49.3164 C 30.6152 -49.3164 28.6621 -47.5098 27.6367 -44.6777 L 13.0371 -6.00586 C 12.5977 -4.78516 12.4512 -3.90625 12.4512 -3.07617 C 12.4512 -0.78125 14.1113 0.78125 16.6504 0.78125 Z M 26.9531 -20.6543 L 33.3496 -39.6973 L 33.9844 -39.6973 L 40.4297 -20.6543 Z"/>
  </g>
  <g id="Medium-M" transform="matrix(1 0 0 1 1677.63 1126)">
   <path d="M 69.2871 1.31836 C 72.3633 1.31836 73.9258 0 75 -3.32031 L 80.5664 -18.7988 L 108.545 -18.7988 L 114.062 -3.32031 C 115.186 0 116.748 1.31836 119.824 1.31836 C 123.193 1.31836 125.342 -0.683594 125.342 -3.80859 C 125.342 -4.88281 125.195 -5.85938 124.707 -7.17773 L 102.93 -65.8691 C 101.465 -69.8242 98.8281 -71.7285 94.5801 -71.7285 C 90.4785 -71.7285 87.8418 -69.8242 86.4258 -65.918 L 64.5508 -6.93359 C 64.0625 -5.71289 63.8672 -4.6875 63.8672 -3.66211 C 63.8672 -0.585938 65.918 1.31836 69.2871 1.31836 Z M 83.252 -27.7344 L 94.3359 -59.5703 L 94.6777 -59.5703 L 105.811 -27.7344 Z M 17.5781 1.31836 C 20.0684 1.31836 21.6797 0 22.7051 -3.22266 L 26.0254 -12.9395 L 43.8965 -12.9395 L 47.2168 -3.17383 C 48.2422 0.0976562 49.8535 1.31836 52.4414 1.31836 C 55.4688 1.31836 57.5195 -0.634766 57.5195 -3.4668 C 57.5195 -4.54102 57.3242 -5.61523 56.7871 -6.98242 L 42.627 -44.9707 C 41.2598 -48.6816 38.8184 -50.7324 34.8633 -50.7324 C 31.1035 -50.7324 28.7109 -48.6328 27.3926 -44.9707 L 13.1836 -6.98242 C 12.6465 -5.61523 12.4512 -4.44336 12.4512 -3.4668 C 12.4512 -0.585938 14.4531 1.31836 17.5781 1.31836 Z M 28.418 -20.8008 L 34.6191 -39.9902 L 35.2051 -39.9902 L 41.5039 -20.8008 Z"/>
  </g>
  <g id="Semibold-M" transform="matrix(1 0 0 1 1972.59 1126)">
   <path d="M 71.9727 1.70898 C 75.5371 1.70898 77.3438 0.146484 78.5645 -3.66211 L 83.5449 -17.7246 L 110.889 -17.7246 L 115.869 -3.66211 C 117.09 0.146484 118.896 1.70898 122.461 1.70898 C 126.367 1.70898 128.906 -0.634766 128.906 -4.24805 C 128.906 -5.56641 128.711 -6.68945 128.174 -8.20312 L 107.275 -65.1367 C 105.566 -69.8242 102.393 -72.0703 97.2656 -72.0703 C 92.3828 -72.0703 89.2578 -69.8242 87.5977 -65.1855 L 66.4551 -7.8125 C 65.9668 -6.44531 65.7715 -5.22461 65.7715 -4.10156 C 65.7715 -0.537109 68.1152 1.70898 71.9727 1.70898 Z M 86.4746 -27.7344 L 97.0215 -58.8379 L 97.3633 -58.8379 L 107.91 -27.7344 Z M 18.3105 1.70898 C 21.2402 1.70898 22.998 0.195312 24.1211 -3.61328 L 27.002 -12.1094 L 44.873 -12.1094 L 47.7539 -3.4668 C 48.877 0.244141 50.6836 1.70898 53.7598 1.70898 C 57.1289 1.70898 59.5215 -0.537109 59.5215 -3.80859 C 59.5215 -5.0293 59.2773 -6.20117 58.6914 -7.76367 L 44.8242 -45.166 C 43.2129 -49.5605 40.4785 -51.8555 35.8398 -51.8555 C 31.4941 -51.8555 28.7109 -49.5117 27.1484 -45.166 L 13.2812 -7.76367 C 12.7441 -6.25 12.4512 -4.88281 12.4512 -3.80859 C 12.4512 -0.439453 14.7461 1.70898 18.3105 1.70898 Z M 29.541 -20.9473 L 35.5469 -40.2344 L 36.1328 -40.2344 L 42.2852 -20.9473 Z"/>
  </g>
  <g id="Bold-M" transform="matrix(1 0 0 1 2266.96 1126)">
   <path d="M 75.5859 2.19727 C 79.7852 2.19727 81.8848 0.341797 83.3008 -4.10156 L 87.5 -16.3086 L 114.014 -16.3086 L 118.213 -4.10156 C 119.58 0.341797 121.729 2.19727 125.928 2.19727 C 130.566 2.19727 133.594 -0.537109 133.594 -4.78516 C 133.594 -6.44531 133.35 -7.76367 132.764 -9.52148 L 112.988 -64.1602 C 110.938 -69.8242 107.129 -72.5586 100.83 -72.5586 C 94.873 -72.5586 91.1133 -69.8242 89.1113 -64.209 L 69.043 -8.98438 C 68.457 -7.42188 68.2129 -5.95703 68.2129 -4.63867 C 68.2129 -0.390625 70.9961 2.19727 75.5859 2.19727 Z M 90.7227 -27.832 L 100.537 -57.8613 L 100.879 -57.8613 L 110.693 -27.832 Z M 19.2383 2.19727 C 22.7051 2.19727 24.7559 0.390625 26.0254 -4.05273 L 28.3203 -11.0352 L 46.1914 -11.0352 L 48.4863 -3.90625 C 49.707 0.488281 51.7578 2.19727 55.4688 2.19727 C 59.375 2.19727 62.1582 -0.439453 62.1582 -4.24805 C 62.1582 -5.66406 61.8652 -7.03125 61.2305 -8.78906 L 47.7539 -45.4102 C 45.8008 -50.7324 42.627 -53.3203 37.1094 -53.3203 C 31.9824 -53.3203 28.7598 -50.6836 26.8555 -45.4102 L 13.4277 -8.78906 C 12.793 -7.12891 12.4512 -5.41992 12.4512 -4.24805 C 12.4512 -0.244141 15.0391 2.19727 19.2383 2.19727 Z M 31.0547 -21.1426 L 36.8164 -40.5273 L 37.3535 -40.5273 L 43.3105 -21.1426 Z"/>
  </g>
  <g id="Heavy-M" transform="matrix(1 0 0 1 2560.27 1126)">
   <path d="M 80.7617 2.97852 C 85.8887 2.97852 88.5254 0.585938 90.1367 -4.73633 L 93.2129 -14.3066 L 118.506 -14.3066 L 121.631 -4.73633 C 123.242 0.585938 125.879 2.97852 131.006 2.97852 C 136.67 2.97852 140.381 -0.439453 140.381 -5.66406 C 140.381 -7.66602 140.088 -9.375 139.355 -11.4746 L 121.24 -62.793 C 118.75 -69.873 114.014 -73.1934 106.006 -73.1934 C 98.5352 -73.1934 93.7988 -69.8242 91.3574 -62.793 L 72.7539 -10.6934 C 72.1191 -8.78906 71.7773 -6.98242 71.7773 -5.37109 C 71.7773 -0.244141 75.1953 2.97852 80.7617 2.97852 Z M 96.875 -27.8809 L 105.615 -56.4453 L 106.055 -56.4453 L 114.795 -27.8809 Z M 20.6055 2.97852 C 24.9023 2.97852 27.2949 0.683594 28.8086 -4.78516 L 30.2246 -9.42383 L 48.0957 -9.42383 L 49.5605 -4.54102 C 50.8789 0.830078 53.2715 2.97852 57.959 2.97852 C 62.5977 2.97852 65.9668 -0.244141 65.9668 -4.83398 C 65.9668 -6.64062 65.625 -8.20312 64.8438 -10.3027 L 51.9531 -45.752 C 49.5605 -52.4414 45.7031 -55.4199 38.9648 -55.4199 C 32.666 -55.4199 28.7598 -52.2949 26.4648 -45.752 L 13.6719 -10.3027 C 12.9395 -8.34961 12.4512 -6.25 12.4512 -4.83398 C 12.4512 0.0488281 15.5762 2.97852 20.6055 2.97852 Z M 33.252 -21.3867 L 38.6719 -40.9668 L 39.1113 -40.9668 L 44.8242 -21.3867 Z"/>
  </g>
  <g id="Black-M" transform="matrix(1 0 0 1 2853.96 1126)">
   <path d="M 85.4004 3.61328 C 91.3574 3.61328 94.3848 0.830078 96.2402 -5.32227 L 98.3398 -12.5 L 122.559 -12.5 L 124.658 -5.32227 C 126.465 0.830078 129.59 3.61328 135.498 3.61328 C 142.139 3.61328 146.436 -0.341797 146.436 -6.39648 C 146.436 -8.78906 146.094 -10.7422 145.312 -13.2324 L 128.662 -61.5234 C 125.732 -69.873 120.117 -73.7793 110.645 -73.7793 C 101.807 -73.7793 96.2402 -69.7754 93.3105 -61.5234 L 76.123 -12.207 C 75.3418 -10.0586 74.9512 -7.91016 74.9512 -6.10352 C 74.9512 -0.0976562 78.9551 3.61328 85.4004 3.61328 Z M 21.875 3.61328 C 26.8555 3.61328 29.541 0.976562 31.25 -5.37109 L 31.9336 -8.00781 L 49.8047 -8.00781 L 50.4883 -5.07812 C 51.9531 1.12305 54.6875 3.61328 60.1562 3.61328 C 65.4785 3.61328 69.3848 -0.0976562 69.3848 -5.37109 C 69.3848 -7.4707 68.9941 -9.22852 68.1152 -11.6211 L 55.7617 -46.0938 C 52.8809 -54.0039 48.4863 -57.3242 40.625 -57.3242 C 33.3008 -57.3242 28.8086 -53.8086 26.0742 -46.0938 L 13.8672 -11.6211 C 13.0371 -9.42383 12.4512 -6.93359 12.4512 -5.37109 C 12.4512 0.292969 16.0156 3.61328 21.875 3.61328 Z M 102.393 -27.9785 L 110.205 -55.1758 L 110.645 -55.1758 L 118.408 -27.9785 Z M 35.2051 -21.6309 L 40.2832 -41.3574 L 40.7227 -41.3574 L 46.1914 -21.6309 Z"/>
  </g>
  <g id="Ultralight-L" transform="matrix(1 0 0 1 476.606 1556)">
   <path d="M 77.7832 11.1328 C 78.3691 11.1328 78.6621 10.791 79.0039 10.0586 L 91.5039 -22.168 L 135.107 -22.168 L 147.607 10.0586 C 147.949 10.791 148.242 11.1328 148.926 11.1328 C 149.658 11.1328 150.146 10.6934 150.146 9.96094 C 150.146 9.7168 150.049 9.32617 149.951 9.0332 L 114.697 -80.5664 C 114.502 -81.0547 114.111 -81.5918 113.33 -81.5918 C 112.598 -81.5918 112.109 -81.1523 111.914 -80.5176 L 76.6602 9.0332 C 76.5625 9.32617 76.4648 9.76562 76.4648 10.0098 C 76.4648 10.6934 76.9531 11.1328 77.7832 11.1328 Z M 92.4316 -24.5117 L 113.184 -77.4414 L 113.428 -77.4414 L 134.18 -24.5117 Z M 17.334 11.1328 C 18.1641 11.1328 18.3105 10.791 18.6523 10.0586 L 27.4414 -12.5 L 55.1758 -12.5 L 63.9648 10.0586 C 64.3066 10.791 64.4531 11.1328 65.3809 11.1328 C 65.9668 11.1328 66.5527 10.6934 66.5527 9.91211 C 66.5527 9.66797 66.4551 9.32617 66.3574 9.0332 L 42.5781 -51.709 C 42.3828 -52.2461 41.9922 -52.5879 41.3086 -52.5879 C 40.625 -52.5879 40.2344 -52.2461 40.0391 -51.709 L 16.2598 9.0332 C 16.1621 9.32617 16.0645 9.66797 16.0645 9.91211 C 16.0645 10.6934 16.6016 11.1328 17.334 11.1328 Z M 28.4668 -14.9414 L 41.2598 -47.6562 L 41.3574 -47.6562 L 54.1504 -14.9414 Z"/>
  </g>
  <g id="Thin-L" transform="matrix(1 0 0 1 772.804 1556)">
   <path d="M 79.0527 11.1328 C 80.127 11.1328 80.6152 10.6445 81.1035 9.42383 L 92.8711 -20.9961 L 135.254 -20.9961 L 147.021 9.42383 C 147.51 10.6445 147.998 11.1328 149.121 11.1328 C 150.342 11.1328 151.172 10.4492 151.172 9.22852 C 151.172 8.83789 151.074 8.39844 150.879 7.86133 L 116.65 -79.7363 C 116.211 -80.8594 115.43 -81.5918 114.111 -81.5918 C 112.744 -81.5918 111.914 -80.9082 111.475 -79.7363 L 77.2949 7.91016 C 77.0508 8.39844 77.002 8.93555 77.002 9.32617 C 77.002 10.4492 77.7832 11.1328 79.0527 11.1328 Z M 94.1895 -24.6582 L 113.916 -75.6836 L 114.209 -75.6836 L 133.936 -24.6582 Z M 18.0664 11.1328 C 19.1895 11.1328 19.6777 10.6445 20.166 9.42383 L 28.2227 -11.6699 L 55.127 -11.6699 L 63.2324 9.42383 C 63.7207 10.6445 64.209 11.1328 65.3809 11.1328 C 66.4551 11.1328 67.334 10.4492 67.334 9.27734 C 67.334 8.83789 67.2363 8.39844 67.041 7.86133 L 44.1406 -50.9766 C 43.75 -52.0508 42.9688 -52.7344 41.6992 -52.7344 C 40.4297 -52.7344 39.6484 -52.0508 39.2578 -50.9766 L 16.3574 7.86133 C 16.1621 8.39844 16.0645 8.83789 16.0645 9.27734 C 16.0645 10.4492 16.8945 11.1328 18.0664 11.1328 Z M 29.6387 -15.2344 L 41.6016 -46.4844 L 41.7969 -46.4844 L 53.7598 -15.2344 Z"/>
  </g>
  <g id="Light-L" transform="matrix(1 0 0 1 1068.51 1556)">
   <path d="M 81.543 11.1816 C 83.4961 11.1816 84.5215 10.3516 85.3027 8.1543 L 95.459 -18.75 L 135.596 -18.75 L 145.801 8.1543 C 146.582 10.3516 147.559 11.1816 149.561 11.1816 C 151.758 11.1816 153.174 9.91211 153.174 7.86133 C 153.174 7.17773 153.027 6.49414 152.686 5.61523 L 120.508 -78.125 C 119.629 -80.4199 118.066 -81.6895 115.576 -81.6895 C 113.086 -81.6895 111.523 -80.4688 110.645 -78.125 L 78.4668 5.66406 C 78.0762 6.54297 77.9785 7.27539 77.9785 7.95898 C 77.9785 9.96094 79.3457 11.1816 81.543 11.1816 Z M 97.5586 -25 L 115.381 -72.3145 L 115.674 -72.3145 L 133.496 -25 Z M 19.5312 11.1816 C 21.2891 11.1816 22.3145 10.3516 23.0469 8.25195 L 29.834 -10.0098 L 55.0781 -10.0098 L 61.8652 8.25195 C 62.6465 10.4004 63.6719 11.1816 65.4297 11.1816 C 67.4316 11.1816 68.8477 9.91211 68.8477 7.95898 C 68.8477 7.27539 68.7012 6.49414 68.3594 5.51758 L 47.2656 -49.4141 C 46.4355 -51.6113 44.873 -53.0273 42.4316 -53.0273 C 40.0391 -53.0273 38.5254 -51.6113 37.6953 -49.4141 L 16.5527 5.51758 C 16.2109 6.49414 16.0645 7.27539 16.0645 7.95898 C 16.0645 9.91211 17.4805 11.1816 19.5312 11.1816 Z M 31.8359 -15.7227 L 42.2363 -44.0918 L 42.6758 -44.0918 L 53.0762 -15.7227 Z"/>
  </g>
  <g id="Regular-L" transform="matrix(1 0 0 1 1364.47 1556)">
   <path d="M 83.4473 11.2305 C 86.084 11.2305 87.4023 10.1562 88.4766 7.17773 L 97.4609 -17.041 L 135.889 -17.041 L 144.873 7.17773 C 145.898 10.1562 147.266 11.2305 149.902 11.2305 C 152.783 11.2305 154.688 9.52148 154.688 6.83594 C 154.688 5.9082 154.492 5.07812 154.102 3.95508 L 123.389 -76.9043 C 122.168 -80.127 120.068 -81.7383 116.699 -81.7383 C 113.379 -81.7383 111.182 -80.127 110.01 -76.9531 L 79.3457 4.00391 C 78.8574 5.12695 78.7598 6.00586 78.7598 6.93359 C 78.7598 9.57031 80.5176 11.2305 83.4473 11.2305 Z M 100.098 -25.2441 L 116.455 -69.7266 L 116.797 -69.7266 L 133.154 -25.2441 Z M 20.6543 11.2305 C 22.8516 11.2305 24.3164 10.1562 25.2441 7.32422 L 31.0547 -8.74023 L 55.0293 -8.74023 L 60.791 7.32422 C 61.7676 10.2051 63.2324 11.2305 65.4785 11.2305 C 68.1641 11.2305 70.0195 9.52148 70.0195 6.98242 C 70.0195 6.05469 69.8242 5.07812 69.3359 3.80859 L 49.5605 -48.291 C 48.4375 -51.3184 46.3379 -53.2227 42.9688 -53.2227 C 39.7461 -53.2227 37.6465 -51.3184 36.5234 -48.291 L 16.6992 3.80859 C 16.2109 5.07812 16.0645 6.05469 16.0645 6.98242 C 16.0645 9.52148 17.9199 11.2305 20.6543 11.2305 Z M 33.5449 -16.1133 L 42.7246 -42.2852 L 43.3594 -42.2852 L 52.5879 -16.1133 Z"/>
  </g>
  <g id="Medium-L" transform="matrix(1 0 0 1 1658.93 1556)">
   <path d="M 87.0117 11.7188 C 90.3809 11.7188 92.0898 10.2539 93.3105 6.64062 L 101.367 -15.4785 L 138.721 -15.4785 L 146.826 6.64062 C 148.047 10.2539 149.756 11.7188 153.125 11.7188 C 156.787 11.7188 159.18 9.52148 159.18 6.10352 C 159.18 4.93164 158.984 3.85742 158.496 2.39258 L 129.102 -75.7812 C 127.539 -80.0781 124.658 -82.1777 120.117 -82.1777 C 115.674 -82.1777 112.793 -80.0781 111.279 -75.8301 L 81.8359 2.63672 C 81.2988 4.00391 81.1035 5.12695 81.1035 6.25 C 81.1035 9.61914 83.3496 11.7188 87.0117 11.7188 Z M 104.395 -25.3418 L 119.824 -68.4082 L 120.215 -68.4082 L 135.645 -25.3418 Z M 21.7285 11.7188 C 24.5117 11.7188 26.2695 10.3027 27.3926 6.73828 L 32.4219 -7.51953 L 56.2012 -7.51953 L 61.2793 6.78711 C 62.4023 10.3516 64.1602 11.7188 67.041 11.7188 C 70.3125 11.7188 72.6074 9.57031 72.6074 6.44531 C 72.6074 5.27344 72.4121 4.10156 71.7773 2.53906 L 52.6367 -48.291 C 51.1719 -52.3438 48.5352 -54.5898 44.2383 -54.5898 C 40.1367 -54.5898 37.5 -52.2949 36.084 -48.291 L 16.8945 2.53906 C 16.3086 4.05273 16.0645 5.37109 16.0645 6.44531 C 16.0645 9.61914 18.3105 11.7188 21.7285 11.7188 Z M 35.2051 -16.3574 L 43.9453 -42.2363 L 44.5801 -42.2363 L 53.418 -16.3574 Z"/>
  </g>
  <g id="Semibold-L" transform="matrix(1 0 0 1 1953.91 1556)">
   <path d="M 89.7461 12.0605 C 93.6523 12.0605 95.6055 10.3516 97.0215 6.20117 L 104.395 -14.2578 L 140.918 -14.2578 L 148.34 6.20117 C 149.707 10.3516 151.709 12.0605 155.566 12.0605 C 159.863 12.0605 162.646 9.52148 162.646 5.56641 C 162.646 4.15039 162.402 2.88086 161.816 1.2207 L 133.447 -74.9512 C 131.641 -80.0293 128.223 -82.4707 122.754 -82.4707 C 117.432 -82.4707 114.062 -80.0293 112.256 -75 L 83.7402 1.5625 C 83.1543 3.125 82.9102 4.44336 82.9102 5.71289 C 82.9102 9.66797 85.498 12.0605 89.7461 12.0605 Z M 107.715 -25.4395 L 122.412 -67.3828 L 122.852 -67.3828 L 137.549 -25.4395 Z M 22.5098 12.0605 C 25.7324 12.0605 27.7344 10.4004 29.0039 6.29883 L 33.4961 -6.5918 L 57.0801 -6.5918 L 61.6211 6.39648 C 62.8418 10.498 64.8438 12.0605 68.2129 12.0605 C 71.9727 12.0605 74.6094 9.61914 74.6094 6.00586 C 74.6094 4.63867 74.3652 3.32031 73.6816 1.5625 L 54.9805 -48.3398 C 53.2227 -53.0762 50.1953 -55.6152 45.166 -55.6152 C 40.4297 -55.6152 37.4023 -53.0273 35.6934 -48.3398 L 16.9922 1.5625 C 16.3574 3.27148 16.0645 4.78516 16.0645 6.00586 C 16.0645 9.7168 18.6035 12.0605 22.5098 12.0605 Z M 36.4746 -16.5527 L 44.873 -42.2363 L 45.5078 -42.2363 L 54.1016 -16.5527 Z"/>
  </g>
  <g id="Bold-L" transform="matrix(1 0 0 1 2248.33 1556)">
   <path d="M 93.3594 12.5488 C 97.998 12.5488 100.342 10.498 101.904 5.61523 L 108.35 -12.6953 L 143.848 -12.6953 L 150.293 5.61523 C 151.855 10.498 154.248 12.5488 158.838 12.5488 C 163.916 12.5488 167.188 9.52148 167.188 4.88281 C 167.188 3.125 166.943 1.61133 166.26 -0.292969 L 139.209 -73.8281 C 137.012 -79.9805 132.91 -82.9102 126.172 -82.9102 C 119.775 -82.9102 115.723 -79.9316 113.574 -73.877 L 86.2305 0.195312 C 85.5957 2.00195 85.3027 3.56445 85.3027 5.07812 C 85.3027 9.66797 88.3789 12.5488 93.3594 12.5488 Z M 112.109 -25.5371 L 125.83 -66.0156 L 126.27 -66.0156 L 140.039 -25.5371 Z M 23.584 12.5488 C 27.3926 12.5488 29.6875 10.5469 31.1523 5.66406 L 34.9121 -5.37109 L 58.252 -5.37109 L 62.0605 5.81055 C 63.4766 10.6445 65.7227 12.5488 69.8242 12.5488 C 74.1211 12.5488 77.1973 9.66797 77.1973 5.41992 C 77.1973 3.85742 76.9043 2.34375 76.1719 0.341797 L 58.0566 -48.3398 C 55.957 -54.1016 52.4414 -57.0312 46.4355 -57.0312 C 40.8203 -57.0312 37.2559 -54.0527 35.2539 -48.3398 L 17.1875 0.341797 C 16.4551 2.24609 16.0645 4.05273 16.0645 5.41992 C 16.0645 9.81445 18.9941 12.5488 23.584 12.5488 Z M 38.1348 -16.748 L 46.0938 -42.1875 L 46.7773 -42.1875 L 54.9316 -16.748 Z"/>
  </g>
  <g id="Heavy-L" transform="matrix(1 0 0 1 2541.74 1556)">
   <path d="M 98.6328 13.2324 C 104.297 13.2324 107.129 10.6934 108.984 4.73633 L 114.111 -10.3516 L 148.047 -10.3516 L 153.174 4.73633 C 155.029 10.6934 157.91 13.2324 163.525 13.2324 C 169.775 13.2324 173.779 9.52148 173.779 3.80859 C 173.779 1.61133 173.486 -0.195312 172.705 -2.53906 L 147.559 -72.2168 C 144.873 -79.8828 139.697 -83.4961 131.201 -83.4961 C 123.193 -83.4961 118.115 -79.834 115.43 -72.2656 L 89.8926 -1.80664 C 89.1113 0.341797 88.7695 2.29492 88.7695 4.05273 C 88.7695 9.7168 92.5293 13.2324 98.6328 13.2324 Z M 118.408 -25.6836 L 130.811 -64.0137 L 131.299 -64.0137 L 143.652 -25.6836 Z M 25.1465 13.2324 C 29.834 13.2324 32.5195 10.791 34.2285 4.78516 L 37.0117 -3.61328 L 60.0098 -3.61328 L 62.7441 5.0293 C 64.3555 10.8887 67.041 13.2324 72.0703 13.2324 C 77.2949 13.2324 81.0059 9.7168 81.0059 4.63867 C 81.0059 2.63672 80.6641 0.878906 79.7852 -1.51367 L 62.5488 -48.3887 C 59.9609 -55.6152 55.6641 -58.9844 48.291 -58.9844 C 41.3574 -58.9844 37.0605 -55.4688 34.5703 -48.3887 L 17.3828 -1.51367 C 16.5527 0.732422 16.0645 3.02734 16.0645 4.63867 C 16.0645 9.96094 19.5312 13.2324 25.1465 13.2324 Z M 40.5762 -17.0898 L 47.9004 -42.0898 L 48.584 -42.0898 L 56.2012 -17.0898 Z"/>
  </g>
  <g id="Black-L" transform="matrix(1 0 0 1 2835.5 1556)">
   <path d="M 103.32 13.8672 C 109.912 13.8672 113.232 10.8887 115.332 4.00391 L 119.287 -8.30078 L 151.807 -8.30078 L 155.762 4.00391 C 157.861 10.8887 161.23 13.8672 167.773 13.8672 C 175 13.8672 179.688 9.52148 179.688 2.88086 C 179.688 0.292969 179.346 -1.80664 178.418 -4.54102 L 155.029 -70.8008 C 151.855 -79.834 145.801 -84.0332 135.693 -84.0332 C 126.221 -84.0332 120.215 -79.7363 117.09 -70.8496 L 93.1641 -3.56445 C 92.2852 -1.12305 91.8945 1.17188 91.8945 3.17383 C 91.8945 9.76562 96.2402 13.8672 103.32 13.8672 Z M 124.072 -25.8301 L 135.254 -62.2559 L 135.742 -62.2559 L 146.924 -25.8301 Z M 26.5625 13.8672 C 31.9824 13.8672 35.0586 10.9863 37.0117 4.00391 L 38.8184 -2.00195 L 61.5234 -2.00195 L 63.3301 4.29688 C 65.1367 11.1328 68.2129 13.8672 74.1211 13.8672 C 80.0781 13.8672 84.4238 9.76562 84.4238 3.90625 C 84.4238 1.61133 83.9844 -0.390625 83.0078 -3.125 L 66.5527 -48.3887 C 63.4766 -56.9336 58.5449 -60.791 49.9023 -60.791 C 41.8945 -60.791 36.9141 -56.7383 33.9355 -48.3887 L 17.627 -3.125 C 16.6504 -0.585938 16.0645 2.05078 16.0645 3.90625 C 16.0645 10.1074 20.0684 13.8672 26.5625 13.8672 Z M 42.7734 -17.4316 L 49.5117 -42.041 L 50.1953 -42.041 L 57.3242 -17.4316 Z"/>
  </g>
 </g>
</svg>
