<?xml version="1.0" encoding="UTF-8"?>
<!--Generator: Apple Native CoreSVG 123-->
<!DOCTYPE svg
PUBLIC "-//W3C//DTD SVG 1.1//EN"
       "http://www.w3.org/Graphics/SVG/1.1/DTD/svg11.dtd">
<svg version="1.1" xmlns="http://www.w3.org/2000/svg" xmlns:xlink="http://www.w3.org/1999/xlink" width="3300" height="2200">
 <!--glyph: "uni100301.medium", point size: 100.000000, font version: "Version 15.0d4e20", template writer version: "2"-->
 <g id="Notes">
  <rect height="2200" id="artboard" style="fill:white;opacity:1" width="3300" x="0" y="0"/>
  <line id="" style="fill:none;stroke:black;opacity:1;stroke-width:0.5;" x1="263" x2="3036" y1="292" y2="292"/>
  <text style="stroke:none;fill:black;font-family:-apple-system,&quot;SF Pro Display&quot;,&quot;SF Pro Text&quot;,Helvetica,sans-serif;font-weight:bold;" transform="matrix(1 0 0 1 263 322)">Weight/Scale Variations</text>
  <text style="stroke:none;fill:black;font-family:-apple-system,&quot;SF Pro Display&quot;,&quot;SF Pro Text&quot;,Helvetica,sans-serif;text-anchor:middle;" transform="matrix(1 0 0 1 559.711 322)">Ultralight</text>
  <text style="stroke:none;fill:black;font-family:-apple-system,&quot;SF Pro Display&quot;,&quot;SF Pro Text&quot;,Helvetica,sans-serif;text-anchor:middle;" transform="matrix(1 0 0 1 856.422 322)">Thin</text>
  <text style="stroke:none;fill:black;font-family:-apple-system,&quot;SF Pro Display&quot;,&quot;SF Pro Text&quot;,Helvetica,sans-serif;text-anchor:middle;" transform="matrix(1 0 0 1 1153.13 322)">Light</text>
  <text style="stroke:none;fill:black;font-family:-apple-system,&quot;SF Pro Display&quot;,&quot;SF Pro Text&quot;,Helvetica,sans-serif;text-anchor:middle;" transform="matrix(1 0 0 1 1449.84 322)">Regular</text>
  <text style="stroke:none;fill:black;font-family:-apple-system,&quot;SF Pro Display&quot;,&quot;SF Pro Text&quot;,Helvetica,sans-serif;text-anchor:middle;" transform="matrix(1 0 0 1 1746.56 322)">Medium</text>
  <text style="stroke:none;fill:black;font-family:-apple-system,&quot;SF Pro Display&quot;,&quot;SF Pro Text&quot;,Helvetica,sans-serif;text-anchor:middle;" transform="matrix(1 0 0 1 2043.27 322)">Semibold</text>
  <text style="stroke:none;fill:black;font-family:-apple-system,&quot;SF Pro Display&quot;,&quot;SF Pro Text&quot;,Helvetica,sans-serif;text-anchor:middle;" transform="matrix(1 0 0 1 2339.98 322)">Bold</text>
  <text style="stroke:none;fill:black;font-family:-apple-system,&quot;SF Pro Display&quot;,&quot;SF Pro Text&quot;,Helvetica,sans-serif;text-anchor:middle;" transform="matrix(1 0 0 1 2636.69 322)">Heavy</text>
  <text style="stroke:none;fill:black;font-family:-apple-system,&quot;SF Pro Display&quot;,&quot;SF Pro Text&quot;,Helvetica,sans-serif;text-anchor:middle;" transform="matrix(1 0 0 1 2933.4 322)">Black</text>
  <line id="" style="fill:none;stroke:black;opacity:1;stroke-width:0.5;" x1="263" x2="3036" y1="1903" y2="1903"/>
  <g id="" transform="matrix(1 0 0 1 263 1933)">
   <path d="M 9.24805 0.830078 C 13.5547 0.830078 17.1387 -2.74414 17.1387 -7.05078 C 17.1387 -11.3574 13.5449 -14.9316 9.23828 -14.9316 C 4.94141 -14.9316 1.36719 -11.3574 1.36719 -7.05078 C 1.36719 -2.74414 4.95117 0.830078 9.24805 0.830078 Z M 9.24805 -0.654297 C 5.70312 -0.654297 2.87109 -3.49609 2.87109 -7.05078 C 2.87109 -10.6055 5.69336 -13.4473 9.23828 -13.4473 C 12.793 -13.4473 15.6348 -10.6055 15.6445 -7.05078 C 15.6543 -3.49609 12.8027 -0.654297 9.24805 -0.654297 Z M 9.22852 -3.42773 C 9.69727 -3.42773 9.9707 -3.74023 9.9707 -4.25781 L 9.9707 -6.31836 L 12.1973 -6.31836 C 12.6953 -6.31836 13.0371 -6.57227 13.0371 -7.04102 C 13.0371 -7.51953 12.7148 -7.7832 12.1973 -7.7832 L 9.9707 -7.7832 L 9.9707 -10.0098 C 9.9707 -10.5273 9.69727 -10.8496 9.22852 -10.8496 C 8.75977 -10.8496 8.50586 -10.5078 8.50586 -10.0098 L 8.50586 -7.7832 L 6.29883 -7.7832 C 5.78125 -7.7832 5.44922 -7.51953 5.44922 -7.04102 C 5.44922 -6.57227 5.80078 -6.31836 6.29883 -6.31836 L 8.50586 -6.31836 L 8.50586 -4.25781 C 8.50586 -3.75977 8.75977 -3.42773 9.22852 -3.42773 Z"/>
  </g>
  <g id="" transform="matrix(1 0 0 1 281.506 1933)">
   <path d="M 11.709 2.91016 C 17.1484 2.91016 21.6699 -1.60156 21.6699 -7.05078 C 21.6699 -12.4902 17.1387 -17.0117 11.6992 -17.0117 C 6.25 -17.0117 1.74805 -12.4902 1.74805 -7.05078 C 1.74805 -1.60156 6.25977 2.91016 11.709 2.91016 Z M 11.709 1.25 C 7.09961 1.25 3.41797 -2.44141 3.41797 -7.05078 C 3.41797 -11.6504 7.08984 -15.3516 11.6992 -15.3516 C 16.2988 -15.3516 20 -11.6504 20.0098 -7.05078 C 20.0195 -2.44141 16.3086 1.25 11.709 1.25 Z M 11.6797 -2.41211 C 12.207 -2.41211 12.5195 -2.77344 12.5195 -3.33984 L 12.5195 -6.23047 L 15.5762 -6.23047 C 16.123 -6.23047 16.5039 -6.51367 16.5039 -7.03125 C 16.5039 -7.55859 16.1426 -7.86133 15.5762 -7.86133 L 12.5195 -7.86133 L 12.5195 -10.9277 C 12.5195 -11.5039 12.207 -11.8555 11.6797 -11.8555 C 11.1621 -11.8555 10.8789 -11.4844 10.8789 -10.9277 L 10.8789 -7.86133 L 7.83203 -7.86133 C 7.25586 -7.86133 6.89453 -7.55859 6.89453 -7.03125 C 6.89453 -6.51367 7.28516 -6.23047 7.83203 -6.23047 L 10.8789 -6.23047 L 10.8789 -3.33984 C 10.8789 -2.79297 11.1621 -2.41211 11.6797 -2.41211 Z"/>
  </g>
  <g id="" transform="matrix(1 0 0 1 304.914 1933)">
   <path d="M 14.9707 5.67383 C 21.9336 5.67383 27.6855 -0.078125 27.6855 -7.04102 C 27.6855 -14.0039 21.9238 -19.7559 14.9609 -19.7559 C 7.99805 -19.7559 2.25586 -14.0039 2.25586 -7.04102 C 2.25586 -0.078125 8.00781 5.67383 14.9707 5.67383 Z M 14.9707 3.85742 C 8.92578 3.85742 4.08203 -1.00586 4.08203 -7.04102 C 4.08203 -13.0762 8.91602 -17.9395 14.9609 -17.9395 C 20.9961 -17.9395 25.8594 -13.0762 25.8691 -7.04102 C 25.8789 -1.00586 21.0059 3.85742 14.9707 3.85742 Z M 14.9414 -1.06445 C 15.5176 -1.06445 15.8594 -1.45508 15.8594 -2.06055 L 15.8594 -6.13281 L 20.0977 -6.13281 C 20.6934 -6.13281 21.1133 -6.46484 21.1133 -7.02148 C 21.1133 -7.59766 20.7227 -7.93945 20.0977 -7.93945 L 15.8594 -7.93945 L 15.8594 -12.1875 C 15.8594 -12.8027 15.5176 -13.1934 14.9414 -13.1934 C 14.3848 -13.1934 14.0625 -12.7832 14.0625 -12.1875 L 14.0625 -7.93945 L 9.82422 -7.93945 C 9.20898 -7.93945 8.80859 -7.59766 8.80859 -7.02148 C 8.80859 -6.46484 9.23828 -6.13281 9.82422 -6.13281 L 14.0625 -6.13281 L 14.0625 -2.06055 C 14.0625 -1.47461 14.3848 -1.06445 14.9414 -1.06445 Z"/>
  </g>
  <text style="stroke:none;fill:black;font-family:-apple-system,&quot;SF Pro Display&quot;,&quot;SF Pro Text&quot;,Helvetica,sans-serif;font-weight:bold;" transform="matrix(1 0 0 1 263 1953)">Design Variations</text>
  <text style="stroke:none;fill:black;font-family:-apple-system,&quot;SF Pro Display&quot;,&quot;SF Pro Text&quot;,Helvetica,sans-serif;" transform="matrix(1 0 0 1 263 1971)">Symbols are supported in up to nine weights and three scales.</text>
  <text style="stroke:none;fill:black;font-family:-apple-system,&quot;SF Pro Display&quot;,&quot;SF Pro Text&quot;,Helvetica,sans-serif;" transform="matrix(1 0 0 1 263 1989)">For optimal layout with text and other symbols, vertically align</text>
  <text style="stroke:none;fill:black;font-family:-apple-system,&quot;SF Pro Display&quot;,&quot;SF Pro Text&quot;,Helvetica,sans-serif;" transform="matrix(1 0 0 1 263 2007)">symbols with the adjacent text.</text>
  <rect height="14" id="" style="fill:#00AEEF;stroke:none;opacity:0.4;" width="3" x="776" y="1919"/>
  <g id="" transform="matrix(1 0 0 1 779 1933)">
   <path d="M 10.5273 0 L 12.373 0 L 7.17773 -14.0918 L 5.43945 -14.0918 L 0.244141 0 L 2.08984 0 L 3.50586 -4.0332 L 9.11133 -4.0332 Z M 6.2793 -11.9531 L 6.33789 -11.9531 L 8.59375 -5.52734 L 4.02344 -5.52734 Z"/>
  </g>
  <rect height="14" id="" style="fill:#00AEEF;stroke:none;opacity:0.4;" width="3" x="791.617" y="1919"/>
  <text style="stroke:none;fill:black;font-family:-apple-system,&quot;SF Pro Display&quot;,&quot;SF Pro Text&quot;,Helvetica,sans-serif;font-weight:bold;" transform="matrix(1 0 0 1 776 1953)">Side Bearings</text>
  <text style="stroke:none;fill:black;font-family:-apple-system,&quot;SF Pro Display&quot;,&quot;SF Pro Text&quot;,Helvetica,sans-serif;" transform="matrix(1 0 0 1 776 1971)">Horizontal padding on the left and right side of each symbol</text>
  <text style="stroke:none;fill:black;font-family:-apple-system,&quot;SF Pro Display&quot;,&quot;SF Pro Text&quot;,Helvetica,sans-serif;" transform="matrix(1 0 0 1 776 1989)">can be adjusted by modifying the width of the blue rectangles.</text>
  <text style="stroke:none;fill:black;font-family:-apple-system,&quot;SF Pro Display&quot;,&quot;SF Pro Text&quot;,Helvetica,sans-serif;" transform="matrix(1 0 0 1 776 2007)">Modifications are automatically applied proportionally to all</text>
  <text style="stroke:none;fill:black;font-family:-apple-system,&quot;SF Pro Display&quot;,&quot;SF Pro Text&quot;,Helvetica,sans-serif;" transform="matrix(1 0 0 1 776 2025)">scales and weights.</text>
  <g id="" transform="matrix(1 0 0 1 1289 1933)">
   <path d="M 2.96875 2.35352 L 3.80859 3.19336 C 4.84375 4.22852 6.12305 4.15039 7.19727 2.97852 L 16.1621 -6.82617 C 16.5527 -6.74805 16.9629 -6.8457 17.4902 -7.02148 C 18.1738 -7.25586 18.2715 -7.25586 18.3887 -7.13867 C 18.5352 -7.01172 18.4863 -6.89453 18.2422 -6.25 C 17.8809 -5.33203 17.8125 -4.79492 18.5547 -4.02344 L 19.4238 -3.13477 C 20.2734 -2.24609 21.3281 -2.26562 22.2168 -3.14453 L 25.0586 -5.97656 C 25.9473 -6.86523 25.957 -7.92969 25.0781 -8.7793 L 24.1797 -9.64844 C 23.4082 -10.4004 22.8711 -10.3516 21.9629 -9.98047 C 21.3184 -9.72656 21.2012 -9.6875 21.0645 -9.81445 C 20.9375 -9.93164 20.9473 -10.0391 21.1816 -10.7129 C 21.5332 -11.6895 21.5723 -12.2852 20.752 -13.0957 L 19.3359 -14.5117 C 15.1953 -18.6133 11.2305 -18.7402 7.65625 -15.4395 C 7.08008 -14.9023 6.99219 -14.1504 7.53906 -13.6133 L 7.79297 -13.3594 C 8.22266 -12.9297 8.86719 -12.8418 9.41406 -13.1152 C 11.0645 -13.9453 12.2559 -14.0234 13.457 -12.9785 L 13.0273 -11.416 C 12.8516 -10.8008 12.793 -10.3418 12.9199 -9.93164 L 3.18359 -1.04492 C 2.02148 0.0292969 1.93359 1.32812 2.96875 2.35352 Z M 8.96484 -14.4922 C 8.89648 -14.5703 8.86719 -14.6582 8.99414 -14.7559 C 11.709 -17.2852 15.0391 -16.8457 18.3496 -13.5254 L 19.6973 -12.168 C 20.0879 -11.7773 20.0977 -11.582 19.8828 -10.8691 C 19.6582 -10.127 19.502 -9.53125 20.1465 -8.88672 C 20.8105 -8.22266 21.2891 -8.41797 22.207 -8.63281 C 22.9004 -8.79883 23.0664 -8.79883 23.4473 -8.41797 L 24.0918 -7.77344 C 24.4043 -7.48047 24.4141 -7.32422 24.0723 -6.97266 L 21.2207 -4.13086 C 20.8887 -3.79883 20.7227 -3.79883 20.4297 -4.10156 L 19.7852 -4.75586 C 19.4141 -5.13672 19.4141 -5.30273 19.5801 -6.01562 C 19.7852 -6.88477 19.9805 -7.38281 19.3262 -8.04688 C 18.6719 -8.7207 18.0762 -8.57422 17.3438 -8.33008 C 16.5625 -8.06641 16.3281 -8.06641 15.8984 -8.49609 L 14.6094 -9.78516 C 14.1699 -10.2246 14.1309 -10.4395 14.2676 -10.9082 L 15.0293 -13.3984 C 13.3887 -15.2832 11.4941 -15.5566 9.20898 -14.4434 C 9.11133 -14.3945 9.04297 -14.4141 8.96484 -14.4922 Z M 3.96484 1.36719 C 3.52539 0.927734 3.54492 0.537109 4.14062 -0.00976562 L 13.7402 -8.81836 L 15 -7.55859 L 6.17188 2.02148 C 5.625 2.60742 5.24414 2.64648 4.79492 2.19727 Z"/>
  </g>
  <text style="stroke:none;fill:black;font-family:-apple-system,&quot;SF Pro Display&quot;,&quot;SF Pro Text&quot;,Helvetica,sans-serif;font-weight:bold;" transform="matrix(1 0 0 1 1289 1953)">Exporting</text>
  <text style="stroke:none;fill:black;font-family:-apple-system,&quot;SF Pro Display&quot;,&quot;SF Pro Text&quot;,Helvetica,sans-serif;" transform="matrix(1 0 0 1 1289 1971)">Symbols should be outlined when exporting to ensure the</text>
  <text style="stroke:none;fill:black;font-family:-apple-system,&quot;SF Pro Display&quot;,&quot;SF Pro Text&quot;,Helvetica,sans-serif;" transform="matrix(1 0 0 1 1289 1989)">design is preserved when submitting to Xcode.</text>
  <text id="template-version" style="stroke:none;fill:black;font-family:-apple-system,&quot;SF Pro Display&quot;,&quot;SF Pro Text&quot;,Helvetica,sans-serif;text-anchor:end;" transform="matrix(1 0 0 1 3036 1933)">Template v.0.1</text>
  <text style="stroke:none;fill:black;font-family:-apple-system,&quot;SF Pro Display&quot;,&quot;SF Pro Text&quot;,Helvetica,sans-serif;text-anchor:end;" transform="matrix(1 0 0 1 3036 1951)">Generated from text.aligncenter</text>
  <text style="stroke:none;fill:black;font-family:-apple-system,&quot;SF Pro Display&quot;,&quot;SF Pro Text&quot;,Helvetica,sans-serif;text-anchor:end;" transform="matrix(1 0 0 1 3036 1969)">Typeset at 100 points</text>
  <text style="stroke:none;fill:black;font-family:-apple-system,&quot;SF Pro Display&quot;,&quot;SF Pro Text&quot;,Helvetica,sans-serif;" transform="matrix(1 0 0 1 263 726)">Small</text>
  <text style="stroke:none;fill:black;font-family:-apple-system,&quot;SF Pro Display&quot;,&quot;SF Pro Text&quot;,Helvetica,sans-serif;" transform="matrix(1 0 0 1 263 1156)">Medium</text>
  <text style="stroke:none;fill:black;font-family:-apple-system,&quot;SF Pro Display&quot;,&quot;SF Pro Text&quot;,Helvetica,sans-serif;" transform="matrix(1 0 0 1 263 1586)">Large</text>
 </g>
 <g id="Guides">
  <g id="H-reference" style="fill:#27AAE1;stroke:none;" transform="matrix(1 0 0 1 339 696)">
   <path d="M 54.9316 0 L 57.666 0 L 30.5664 -70.459 L 28.0762 -70.459 L 0.976562 0 L 3.66211 0 L 12.9395 -24.4629 L 45.7031 -24.4629 Z M 29.1992 -67.0898 L 29.4434 -67.0898 L 44.8242 -26.709 L 13.8184 -26.709 Z"/>
  </g>
  <line id="Baseline-S" style="fill:none;stroke:#27AAE1;opacity:1;stroke-width:0.577;" x1="263" x2="3036" y1="696" y2="696"/>
  <line id="Capline-S" style="fill:none;stroke:#27AAE1;opacity:1;stroke-width:0.577;" x1="263" x2="3036" y1="625.541" y2="625.541"/>
  <g id="H-reference" style="fill:#27AAE1;stroke:none;" transform="matrix(1 0 0 1 339 1126)">
   <path d="M 54.9316 0 L 57.666 0 L 30.5664 -70.459 L 28.0762 -70.459 L 0.976562 0 L 3.66211 0 L 12.9395 -24.4629 L 45.7031 -24.4629 Z M 29.1992 -67.0898 L 29.4434 -67.0898 L 44.8242 -26.709 L 13.8184 -26.709 Z"/>
  </g>
  <line id="Baseline-M" style="fill:none;stroke:#27AAE1;opacity:1;stroke-width:0.577;" x1="263" x2="3036" y1="1126" y2="1126"/>
  <line id="Capline-M" style="fill:none;stroke:#27AAE1;opacity:1;stroke-width:0.577;" x1="263" x2="3036" y1="1055.54" y2="1055.54"/>
  <g id="H-reference" style="fill:#27AAE1;stroke:none;" transform="matrix(1 0 0 1 339 1556)">
   <path d="M 54.9316 0 L 57.666 0 L 30.5664 -70.459 L 28.0762 -70.459 L 0.976562 0 L 3.66211 0 L 12.9395 -24.4629 L 45.7031 -24.4629 Z M 29.1992 -67.0898 L 29.4434 -67.0898 L 44.8242 -26.709 L 13.8184 -26.709 Z"/>
  </g>
  <line id="Baseline-L" style="fill:none;stroke:#27AAE1;opacity:1;stroke-width:0.577;" x1="263" x2="3036" y1="1556" y2="1556"/>
  <line id="Capline-L" style="fill:none;stroke:#27AAE1;opacity:1;stroke-width:0.577;" x1="263" x2="3036" y1="1485.54" y2="1485.54"/>
  <rect height="119.336" id="left-margin" style="fill:#00AEEF;stroke:none;opacity:0.4;" width="12.4512" x="1388.2" y="1030.79"/>
  <rect height="119.336" id="right-margin" style="fill:#00AEEF;stroke:none;opacity:0.4;" width="12.4512" x="1499.04" y="1030.79"/>
 </g>
 <g id="Symbols">
  <g id="Ultralight-S" transform="matrix(1 0 0 1 513.202 696)">
   <path d="M 10.8398 -64.3066 L 82.1289 -64.3066 C 82.8125 -64.3066 83.252 -64.7461 83.252 -65.3809 C 83.252 -66.0156 82.8125 -66.4551 82.1289 -66.4551 L 10.8398 -66.4551 C 10.2051 -66.4551 9.76562 -66.0156 9.76562 -65.3809 C 9.76562 -64.7461 10.2051 -64.3066 10.8398 -64.3066 Z M 23.1934 -44.1895 L 69.8242 -44.1895 C 70.459 -44.1895 70.8984 -44.6289 70.8984 -45.2637 C 70.8984 -45.8984 70.459 -46.3379 69.8242 -46.3379 L 23.1934 -46.3379 C 22.5098 -46.3379 22.0703 -45.8984 22.0703 -45.2637 C 22.0703 -44.6289 22.5098 -44.1895 23.1934 -44.1895 Z M 10.8398 -24.0723 L 82.1289 -24.0723 C 82.8125 -24.0723 83.252 -24.5117 83.252 -25.1465 C 83.252 -25.7812 82.8125 -26.2695 82.1289 -26.2695 L 10.8398 -26.2695 C 10.2051 -26.2695 9.76562 -25.7812 9.76562 -25.1465 C 9.76562 -24.5117 10.2051 -24.0723 10.8398 -24.0723 Z M 23.1934 -3.95508 L 69.8242 -3.95508 C 70.459 -3.95508 70.8984 -4.39453 70.8984 -5.0293 C 70.8984 -5.71289 70.459 -6.15234 69.8242 -6.15234 L 23.1934 -6.15234 C 22.5098 -6.15234 22.0703 -5.71289 22.0703 -5.0293 C 22.0703 -4.39453 22.5098 -3.95508 23.1934 -3.95508 Z"/>
  </g>
  <g id="Thin-S" transform="matrix(1 0 0 1 809.425 696)">
   <path d="M 11.377 -63.8184 L 82.6172 -63.8184 C 83.5449 -63.8184 84.2285 -64.4531 84.2285 -65.3809 C 84.2285 -66.3086 83.5449 -66.9922 82.6172 -66.9922 L 11.377 -66.9922 C 10.4492 -66.9922 9.76562 -66.3086 9.76562 -65.3809 C 9.76562 -64.4531 10.4492 -63.8184 11.377 -63.8184 Z M 24.1699 -43.7012 L 69.8242 -43.7012 C 70.752 -43.7012 71.4355 -44.3848 71.4355 -45.3125 C 71.4355 -46.2402 70.752 -46.875 69.8242 -46.875 L 24.1699 -46.875 C 23.2422 -46.875 22.6074 -46.2402 22.6074 -45.3125 C 22.6074 -44.3848 23.2422 -43.7012 24.1699 -43.7012 Z M 11.377 -23.6328 L 82.6172 -23.6328 C 83.5449 -23.6328 84.2285 -24.2676 84.2285 -25.1953 C 84.2285 -26.123 83.5449 -26.8066 82.6172 -26.8066 L 11.377 -26.8066 C 10.4492 -26.8066 9.76562 -26.123 9.76562 -25.1953 C 9.76562 -24.2676 10.4492 -23.6328 11.377 -23.6328 Z M 24.1699 -3.51562 L 69.8242 -3.51562 C 70.752 -3.51562 71.4355 -4.19922 71.4355 -5.12695 C 71.4355 -6.05469 70.752 -6.68945 69.8242 -6.68945 L 24.1699 -6.68945 C 23.2422 -6.68945 22.6074 -6.05469 22.6074 -5.12695 C 22.6074 -4.19922 23.2422 -3.51562 24.1699 -3.51562 Z"/>
  </g>
  <g id="Light-S" transform="matrix(1 0 0 1 1105.16 696)">
   <path d="M 12.3047 -62.8418 L 83.5938 -62.8418 C 85.0098 -62.8418 86.1816 -63.9648 86.1816 -65.4297 C 86.1816 -66.8457 85.0098 -67.9688 83.5938 -67.9688 L 12.3047 -67.9688 C 10.8887 -67.9688 9.76562 -66.8457 9.76562 -65.4297 C 9.76562 -63.9648 10.8887 -62.8418 12.3047 -62.8418 Z M 26.123 -42.8223 L 69.7754 -42.8223 C 71.2402 -42.8223 72.3633 -43.8965 72.3633 -45.3613 C 72.3633 -46.7773 71.2402 -47.9004 69.7754 -47.9004 L 26.123 -47.9004 C 24.6582 -47.9004 23.5352 -46.7773 23.5352 -45.3613 C 23.5352 -43.8965 24.6582 -42.8223 26.123 -42.8223 Z M 12.3047 -22.7539 L 83.5938 -22.7539 C 85.0098 -22.7539 86.1816 -23.877 86.1816 -25.293 C 86.1816 -26.7578 85.0098 -27.8809 83.5938 -27.8809 L 12.3047 -27.8809 C 10.8887 -27.8809 9.76562 -26.7578 9.76562 -25.293 C 9.76562 -23.877 10.8887 -22.7539 12.3047 -22.7539 Z M 26.123 -2.68555 L 69.7754 -2.68555 C 71.2402 -2.68555 72.3633 -3.80859 72.3633 -5.27344 C 72.3633 -6.68945 71.2402 -7.8125 69.7754 -7.8125 L 26.123 -7.8125 C 24.6582 -7.8125 23.5352 -6.68945 23.5352 -5.27344 C 23.5352 -3.80859 24.6582 -2.68555 26.123 -2.68555 Z"/>
  </g>
  <g id="Regular-S" transform="matrix(1 0 0 1 1401.14 696)">
   <path d="M 13.0371 -62.1582 L 84.2773 -62.1582 C 86.1328 -62.1582 87.6465 -63.5742 87.6465 -65.4297 C 87.6465 -67.2852 86.1328 -68.7012 84.2773 -68.7012 L 13.0371 -68.7012 C 11.2305 -68.7012 9.76562 -67.2852 9.76562 -65.4297 C 9.76562 -63.5742 11.2305 -62.1582 13.0371 -62.1582 Z M 27.5879 -42.0898 L 69.7754 -42.0898 C 71.6309 -42.0898 73.0957 -43.5547 73.0957 -45.4102 C 73.0957 -47.2168 71.6309 -48.6816 69.7754 -48.6816 L 27.5879 -48.6816 C 25.7324 -48.6816 24.2676 -47.2168 24.2676 -45.4102 C 24.2676 -43.5547 25.7324 -42.0898 27.5879 -42.0898 Z M 13.0371 -22.0703 L 84.2773 -22.0703 C 86.1328 -22.0703 87.6465 -23.5352 87.6465 -25.3906 C 87.6465 -27.1973 86.1328 -28.6621 84.2773 -28.6621 L 13.0371 -28.6621 C 11.2305 -28.6621 9.76562 -27.1973 9.76562 -25.3906 C 9.76562 -23.5352 11.2305 -22.0703 13.0371 -22.0703 Z M 27.5879 -2.05078 L 69.7754 -2.05078 C 71.6309 -2.05078 73.0957 -3.51562 73.0957 -5.37109 C 73.0957 -7.17773 71.6309 -8.64258 69.7754 -8.64258 L 27.5879 -8.64258 C 25.7324 -8.64258 24.2676 -7.17773 24.2676 -5.37109 C 24.2676 -3.51562 25.7324 -2.05078 27.5879 -2.05078 Z"/>
  </g>
  <g id="Medium-S" transform="matrix(1 0 0 1 1696.7 696)">
   <path d="M 13.623 -61.5723 L 86.0352 -61.5723 C 88.1836 -61.5723 89.9414 -63.2812 89.9414 -65.4297 C 89.9414 -67.5781 88.1836 -69.2871 86.0352 -69.2871 L 13.623 -69.2871 C 11.4746 -69.2871 9.76562 -67.5781 9.76562 -65.4297 C 9.76562 -63.2812 11.4746 -61.5723 13.623 -61.5723 Z M 28.7109 -41.5527 L 70.9473 -41.5527 C 73.0957 -41.5527 74.8047 -43.2617 74.8047 -45.4102 C 74.8047 -47.5586 73.0957 -49.2676 70.9473 -49.2676 L 28.7109 -49.2676 C 26.5625 -49.2676 24.8535 -47.5586 24.8535 -45.4102 C 24.8535 -43.2617 26.5625 -41.5527 28.7109 -41.5527 Z M 13.623 -21.5332 L 86.0352 -21.5332 C 88.1836 -21.5332 89.9414 -23.2422 89.9414 -25.3906 C 89.9414 -27.5391 88.1836 -29.1992 86.0352 -29.1992 L 13.623 -29.1992 C 11.4746 -29.1992 9.76562 -27.5391 9.76562 -25.3906 C 9.76562 -23.2422 11.4746 -21.5332 13.623 -21.5332 Z M 28.7109 -1.51367 L 70.9473 -1.51367 C 73.0957 -1.51367 74.8047 -3.22266 74.8047 -5.37109 C 74.8047 -7.51953 73.0957 -9.17969 70.9473 -9.17969 L 28.7109 -9.17969 C 26.5625 -9.17969 24.8535 -7.51953 24.8535 -5.37109 C 24.8535 -3.22266 26.5625 -1.51367 28.7109 -1.51367 Z"/>
  </g>
  <g id="Semibold-S" transform="matrix(1 0 0 1 1992.53 696)">
   <path d="M 14.0137 -61.1816 L 87.4023 -61.1816 C 89.7461 -61.1816 91.6992 -63.0371 91.6992 -65.4297 C 91.6992 -67.8223 89.7461 -69.6777 87.4023 -69.6777 L 14.0137 -69.6777 C 11.6699 -69.6777 9.76562 -67.8223 9.76562 -65.4297 C 9.76562 -63.0371 11.6699 -61.1816 14.0137 -61.1816 Z M 29.5898 -41.1621 L 71.8262 -41.1621 C 74.2188 -41.1621 76.123 -43.0176 76.123 -45.4102 C 76.123 -47.7539 74.2188 -49.6582 71.8262 -49.6582 L 29.5898 -49.6582 C 27.1973 -49.6582 25.3418 -47.7539 25.3418 -45.4102 C 25.3418 -43.0176 27.1973 -41.1621 29.5898 -41.1621 Z M 14.0137 -21.1426 L 87.4023 -21.1426 C 89.7461 -21.1426 91.6992 -22.998 91.6992 -25.3906 C 91.6992 -27.7344 89.7461 -29.6387 87.4023 -29.6387 L 14.0137 -29.6387 C 11.6699 -29.6387 9.76562 -27.7344 9.76562 -25.3906 C 9.76562 -22.998 11.6699 -21.1426 14.0137 -21.1426 Z M 29.5898 -1.07422 L 71.8262 -1.07422 C 74.2188 -1.07422 76.123 -2.97852 76.123 -5.37109 C 76.123 -7.71484 74.2188 -9.61914 71.8262 -9.61914 L 29.5898 -9.61914 C 27.1973 -9.61914 25.3418 -7.71484 25.3418 -5.37109 C 25.3418 -2.97852 27.1973 -1.07422 29.5898 -1.07422 Z"/>
  </g>
  <g id="Bold-S" transform="matrix(1 0 0 1 2288.1 696)">
   <path d="M 14.5996 -60.5957 L 89.1602 -60.5957 C 91.8457 -60.5957 93.9941 -62.7441 93.9941 -65.4297 C 93.9941 -68.1152 91.8457 -70.2637 89.1602 -70.2637 L 14.5996 -70.2637 C 11.9141 -70.2637 9.76562 -68.1152 9.76562 -65.4297 C 9.76562 -62.7441 11.9141 -60.5957 14.5996 -60.5957 Z M 30.7129 -40.5762 L 72.998 -40.5762 C 75.6836 -40.5762 77.8809 -42.7246 77.8809 -45.4102 C 77.8809 -48.0957 75.6836 -50.2441 72.998 -50.2441 L 30.7129 -50.2441 C 28.0273 -50.2441 25.9277 -48.0957 25.9277 -45.4102 C 25.9277 -42.7246 28.0273 -40.5762 30.7129 -40.5762 Z M 14.5996 -20.5566 L 89.1602 -20.5566 C 91.8457 -20.5566 93.9941 -22.7051 93.9941 -25.3906 C 93.9941 -28.0762 91.8457 -30.2246 89.1602 -30.2246 L 14.5996 -30.2246 C 11.9141 -30.2246 9.76562 -28.0762 9.76562 -25.3906 C 9.76562 -22.7051 11.9141 -20.5566 14.5996 -20.5566 Z M 30.7129 -0.537109 L 72.998 -0.537109 C 75.6836 -0.537109 77.8809 -2.68555 77.8809 -5.37109 C 77.8809 -8.05664 75.6836 -10.2051 72.998 -10.2051 L 30.7129 -10.2051 C 28.0273 -10.2051 25.9277 -8.05664 25.9277 -5.37109 C 25.9277 -2.68555 28.0273 -0.537109 30.7129 -0.537109 Z"/>
  </g>
  <g id="Heavy-S" transform="matrix(1 0 0 1 2583.12 696)">
   <path d="M 15.3809 -59.8145 L 91.748 -59.8145 C 94.873 -59.8145 97.3633 -62.3047 97.3633 -65.4297 C 97.3633 -68.5547 94.873 -71.0449 91.748 -71.0449 L 15.3809 -71.0449 C 12.2559 -71.0449 9.76562 -68.5547 9.76562 -65.4297 C 9.76562 -62.3047 12.2559 -59.8145 15.3809 -59.8145 Z M 32.373 -39.7949 L 74.7559 -39.7949 C 77.8809 -39.7949 80.3711 -42.2852 80.3711 -45.4102 C 80.3711 -48.5352 77.8809 -51.0254 74.7559 -51.0254 L 32.373 -51.0254 C 29.248 -51.0254 26.7578 -48.5352 26.7578 -45.4102 C 26.7578 -42.2852 29.248 -39.7949 32.373 -39.7949 Z M 15.3809 -19.7754 L 91.748 -19.7754 C 94.873 -19.7754 97.3633 -22.2656 97.3633 -25.3906 C 97.3633 -28.5156 94.873 -31.0059 91.748 -31.0059 L 15.3809 -31.0059 C 12.2559 -31.0059 9.76562 -28.5156 9.76562 -25.3906 C 9.76562 -22.2656 12.2559 -19.7754 15.3809 -19.7754 Z M 32.373 0.244141 L 74.7559 0.244141 C 77.8809 0.244141 80.3711 -2.24609 80.3711 -5.37109 C 80.3711 -8.49609 77.8809 -10.9863 74.7559 -10.9863 L 32.373 -10.9863 C 29.248 -10.9863 26.7578 -8.49609 26.7578 -5.37109 C 26.7578 -2.24609 29.248 0.244141 32.373 0.244141 Z"/>
  </g>
  <g id="Black-S" transform="matrix(1 0 0 1 2878.32 696)">
   <path d="M 16.1133 -59.082 L 94.043 -59.082 C 97.5586 -59.082 100.391 -61.9141 100.391 -65.4297 C 100.391 -68.9453 97.5586 -71.7773 94.043 -71.7773 L 16.1133 -71.7773 C 12.5977 -71.7773 9.76562 -68.9453 9.76562 -65.4297 C 9.76562 -61.9141 12.5977 -59.082 16.1133 -59.082 Z M 33.8867 -39.0625 L 76.2695 -39.0625 C 79.7852 -39.0625 82.6172 -41.8945 82.6172 -45.4102 C 82.6172 -48.9258 79.7852 -51.7578 76.2695 -51.7578 L 33.8867 -51.7578 C 30.3711 -51.7578 27.5391 -48.9258 27.5391 -45.4102 C 27.5391 -41.8945 30.3711 -39.0625 33.8867 -39.0625 Z M 16.1133 -19.043 L 94.043 -19.043 C 97.5586 -19.043 100.391 -21.875 100.391 -25.3906 C 100.391 -28.9062 97.5586 -31.7383 94.043 -31.7383 L 16.1133 -31.7383 C 12.5977 -31.7383 9.76562 -28.9062 9.76562 -25.3906 C 9.76562 -21.875 12.5977 -19.043 16.1133 -19.043 Z M 33.8867 0.976562 L 76.2695 0.976562 C 79.7852 0.976562 82.6172 -1.85547 82.6172 -5.37109 C 82.6172 -8.88672 79.7852 -11.7188 76.2695 -11.7188 L 33.8867 -11.7188 C 30.3711 -11.7188 27.5391 -8.88672 27.5391 -5.37109 C 27.5391 -1.85547 30.3711 0.976562 33.8867 0.976562 Z"/>
  </g>
  <g id="Ultralight-M" transform="matrix(1 0 0 1 500.556 1126)">
   <path d="M 13.6719 -72.5098 L 104.639 -72.5098 C 105.371 -72.5098 105.859 -72.998 105.859 -73.7305 C 105.859 -74.4141 105.371 -74.9023 104.639 -74.9023 L 13.6719 -74.9023 C 12.9395 -74.9023 12.4512 -74.4141 12.4512 -73.7305 C 12.4512 -72.998 12.9395 -72.5098 13.6719 -72.5098 Z M 29.1992 -46.8262 L 89.1113 -46.8262 C 89.8438 -46.8262 90.332 -47.3145 90.332 -48.0469 C 90.332 -48.7793 89.8438 -49.2188 89.1113 -49.2188 L 29.1992 -49.2188 C 28.4668 -49.2188 27.9785 -48.7793 27.9785 -48.0469 C 27.9785 -47.3145 28.4668 -46.8262 29.1992 -46.8262 Z M 13.6719 -21.1426 L 104.639 -21.1426 C 105.371 -21.1426 105.859 -21.6309 105.859 -22.3633 C 105.859 -23.0957 105.371 -23.5352 104.639 -23.5352 L 13.6719 -23.5352 C 12.9395 -23.5352 12.4512 -23.0957 12.4512 -22.3633 C 12.4512 -21.6309 12.9395 -21.1426 13.6719 -21.1426 Z M 29.1992 4.54102 L 89.1113 4.54102 C 89.8438 4.54102 90.332 4.05273 90.332 3.32031 C 90.332 2.58789 89.8438 2.09961 89.1113 2.09961 L 29.1992 2.09961 C 28.4668 2.09961 27.9785 2.58789 27.9785 3.32031 C 27.9785 4.05273 28.4668 4.54102 29.1992 4.54102 Z"/>
  </g>
  <g id="Thin-M" transform="matrix(1 0 0 1 796.705 1126)">
   <path d="M 14.209 -71.9727 L 105.225 -71.9727 C 106.25 -71.9727 106.982 -72.7051 106.982 -73.7305 C 106.982 -74.7559 106.25 -75.4883 105.225 -75.4883 L 14.209 -75.4883 C 13.1836 -75.4883 12.4512 -74.7559 12.4512 -73.7305 C 12.4512 -72.7051 13.1836 -71.9727 14.209 -71.9727 Z M 30.3223 -46.2891 L 89.1113 -46.2891 C 90.1367 -46.2891 90.8691 -47.0215 90.8691 -48.0469 C 90.8691 -49.0723 90.1367 -49.8535 89.1113 -49.8535 L 30.3223 -49.8535 C 29.2969 -49.8535 28.5645 -49.0723 28.5645 -48.0469 C 28.5645 -47.0215 29.2969 -46.2891 30.3223 -46.2891 Z M 14.209 -20.6543 L 105.225 -20.6543 C 106.25 -20.6543 106.982 -21.3867 106.982 -22.4121 C 106.982 -23.4375 106.25 -24.1699 105.225 -24.1699 L 14.209 -24.1699 C 13.1836 -24.1699 12.4512 -23.4375 12.4512 -22.4121 C 12.4512 -21.3867 13.1836 -20.6543 14.209 -20.6543 Z M 30.3223 5.0293 L 89.1113 5.0293 C 90.1367 5.0293 90.8691 4.24805 90.8691 3.22266 C 90.8691 2.19727 90.1367 1.46484 89.1113 1.46484 L 30.3223 1.46484 C 29.2969 1.46484 28.5645 2.19727 28.5645 3.22266 C 28.5645 4.24805 29.2969 5.0293 30.3223 5.0293 Z"/>
  </g>
  <g id="Light-M" transform="matrix(1 0 0 1 1092.32 1126)">
   <path d="M 15.332 -70.8984 L 106.299 -70.8984 C 107.91 -70.8984 109.18 -72.1191 109.18 -73.7305 C 109.18 -75.3418 107.91 -76.6113 106.299 -76.6113 L 15.332 -76.6113 C 13.7207 -76.6113 12.4512 -75.3418 12.4512 -73.7305 C 12.4512 -72.1191 13.7207 -70.8984 15.332 -70.8984 Z M 32.5195 -45.2637 L 89.1113 -45.2637 C 90.7227 -45.2637 91.9922 -46.5332 91.9922 -48.1445 C 91.9922 -49.7559 90.7227 -50.9766 89.1113 -50.9766 L 32.5195 -50.9766 C 30.9082 -50.9766 29.6387 -49.7559 29.6387 -48.1445 C 29.6387 -46.5332 30.9082 -45.2637 32.5195 -45.2637 Z M 15.332 -19.6777 L 106.299 -19.6777 C 107.91 -19.6777 109.18 -20.8984 109.18 -22.5098 C 109.18 -24.1211 107.91 -25.3906 106.299 -25.3906 L 15.332 -25.3906 C 13.7207 -25.3906 12.4512 -24.1211 12.4512 -22.5098 C 12.4512 -20.8984 13.7207 -19.6777 15.332 -19.6777 Z M 32.5195 5.95703 L 89.1113 5.95703 C 90.7227 5.95703 91.9922 4.6875 91.9922 3.07617 C 91.9922 1.46484 90.7227 0.244141 89.1113 0.244141 L 32.5195 0.244141 C 30.9082 0.244141 29.6387 1.46484 29.6387 3.07617 C 29.6387 4.6875 30.9082 5.95703 32.5195 5.95703 Z"/>
  </g>
  <g id="Regular-M" transform="matrix(1 0 0 1 1388.2 1126)">
   <path d="M 16.1621 -70.0684 L 107.08 -70.0684 C 109.18 -70.0684 110.84 -71.6797 110.84 -73.7793 C 110.84 -75.8301 109.18 -77.4414 107.08 -77.4414 L 16.1621 -77.4414 C 14.0625 -77.4414 12.4512 -75.8301 12.4512 -73.7793 C 12.4512 -71.6797 14.0625 -70.0684 16.1621 -70.0684 Z M 34.1797 -44.4824 L 89.0625 -44.4824 C 91.1621 -44.4824 92.8223 -46.0938 92.8223 -48.1934 C 92.8223 -50.2441 91.1621 -51.8555 89.0625 -51.8555 L 34.1797 -51.8555 C 32.1289 -51.8555 30.4688 -50.2441 30.4688 -48.1934 C 30.4688 -46.0938 32.1289 -44.4824 34.1797 -44.4824 Z M 16.1621 -18.8965 L 107.08 -18.8965 C 109.18 -18.8965 110.84 -20.5566 110.84 -22.6074 C 110.84 -24.6582 109.18 -26.2695 107.08 -26.2695 L 16.1621 -26.2695 C 14.0625 -26.2695 12.4512 -24.6582 12.4512 -22.6074 C 12.4512 -20.5566 14.0625 -18.8965 16.1621 -18.8965 Z M 34.1797 6.64062 L 89.0625 6.64062 C 91.1621 6.64062 92.8223 5.0293 92.8223 2.97852 C 92.8223 0.927734 91.1621 -0.732422 89.0625 -0.732422 L 34.1797 -0.732422 C 32.1289 -0.732422 30.4688 0.927734 30.4688 2.97852 C 30.4688 5.0293 32.1289 6.64062 34.1797 6.64062 Z"/>
  </g>
  <g id="Medium-M" transform="matrix(1 0 0 1 1683.64 1126)">
   <path d="M 16.7969 -69.4336 L 108.984 -69.4336 C 111.426 -69.4336 113.379 -71.3379 113.379 -73.7793 C 113.379 -76.1719 111.426 -78.125 108.984 -78.125 L 16.7969 -78.125 C 14.4043 -78.125 12.4512 -76.1719 12.4512 -73.7793 C 12.4512 -71.3379 14.4043 -69.4336 16.7969 -69.4336 Z M 35.5469 -43.8477 L 90.2832 -43.8477 C 92.6758 -43.8477 94.6777 -45.752 94.6777 -48.1934 C 94.6777 -50.6348 92.6758 -52.5391 90.2832 -52.5391 L 35.5469 -52.5391 C 33.1055 -52.5391 31.2012 -50.6348 31.2012 -48.1934 C 31.2012 -45.752 33.1055 -43.8477 35.5469 -43.8477 Z M 16.7969 -18.2617 L 108.984 -18.2617 C 111.426 -18.2617 113.379 -20.166 113.379 -22.6074 C 113.379 -25.0488 111.426 -26.9531 108.984 -26.9531 L 16.7969 -26.9531 C 14.4043 -26.9531 12.4512 -25.0488 12.4512 -22.6074 C 12.4512 -20.166 14.4043 -18.2617 16.7969 -18.2617 Z M 35.5469 7.32422 L 90.2832 7.32422 C 92.6758 7.32422 94.6777 5.37109 94.6777 2.97852 C 94.6777 0.537109 92.6758 -1.36719 90.2832 -1.36719 L 35.5469 -1.36719 C 33.1055 -1.36719 31.2012 0.537109 31.2012 2.97852 C 31.2012 5.37109 33.1055 7.32422 35.5469 7.32422 Z"/>
  </g>
  <g id="Semibold-M" transform="matrix(1 0 0 1 1979.38 1126)">
   <path d="M 17.334 -68.8965 L 110.449 -68.8965 C 113.135 -68.8965 115.332 -71.0449 115.332 -73.7793 C 115.332 -76.4648 113.135 -78.6133 110.449 -78.6133 L 17.334 -78.6133 C 14.5996 -78.6133 12.4512 -76.4648 12.4512 -73.7793 C 12.4512 -71.0449 14.5996 -68.8965 17.334 -68.8965 Z M 36.5723 -43.3594 L 91.1621 -43.3594 C 93.8965 -43.3594 96.0938 -45.5078 96.0938 -48.1934 C 96.0938 -50.9277 93.8965 -53.0762 91.1621 -53.0762 L 36.5723 -53.0762 C 33.8867 -53.0762 31.7383 -50.9277 31.7383 -48.1934 C 31.7383 -45.5078 33.8867 -43.3594 36.5723 -43.3594 Z M 17.334 -17.7734 L 110.449 -17.7734 C 113.135 -17.7734 115.332 -19.9219 115.332 -22.6074 C 115.332 -25.3418 113.135 -27.4902 110.449 -27.4902 L 17.334 -27.4902 C 14.5996 -27.4902 12.4512 -25.3418 12.4512 -22.6074 C 12.4512 -19.9219 14.5996 -17.7734 17.334 -17.7734 Z M 36.5723 7.8125 L 91.1621 7.8125 C 93.8965 7.8125 96.0938 5.66406 96.0938 2.92969 C 96.0938 0.244141 93.8965 -1.9043 91.1621 -1.9043 L 36.5723 -1.9043 C 33.8867 -1.9043 31.7383 0.244141 31.7383 2.92969 C 31.7383 5.66406 33.8867 7.8125 36.5723 7.8125 Z"/>
  </g>
  <g id="Bold-M" transform="matrix(1 0 0 1 2274.79 1126)">
   <path d="M 17.9688 -68.2617 L 112.354 -68.2617 C 115.43 -68.2617 117.871 -70.7031 117.871 -73.7793 C 117.871 -76.8555 115.43 -79.2969 112.354 -79.2969 L 17.9688 -79.2969 C 14.8926 -79.2969 12.4512 -76.8555 12.4512 -73.7793 C 12.4512 -70.7031 14.8926 -68.2617 17.9688 -68.2617 Z M 37.9395 -42.6758 L 92.3828 -42.6758 C 95.459 -42.6758 97.9492 -45.1172 97.9492 -48.1934 C 97.9492 -51.2695 95.459 -53.7109 92.3828 -53.7109 L 37.9395 -53.7109 C 34.8633 -53.7109 32.4219 -51.2695 32.4219 -48.1934 C 32.4219 -45.1172 34.8633 -42.6758 37.9395 -42.6758 Z M 17.9688 -17.0898 L 112.354 -17.0898 C 115.43 -17.0898 117.871 -19.5801 117.871 -22.6562 C 117.871 -25.7324 115.43 -28.1738 112.354 -28.1738 L 17.9688 -28.1738 C 14.8926 -28.1738 12.4512 -25.7324 12.4512 -22.6562 C 12.4512 -19.5801 14.8926 -17.0898 17.9688 -17.0898 Z M 37.9395 8.44727 L 92.3828 8.44727 C 95.459 8.44727 97.9492 6.00586 97.9492 2.92969 C 97.9492 -0.146484 95.459 -2.58789 92.3828 -2.58789 L 37.9395 -2.58789 C 34.8633 -2.58789 32.4219 -0.146484 32.4219 2.92969 C 32.4219 6.00586 34.8633 8.44727 37.9395 8.44727 Z"/>
  </g>
  <g id="Heavy-M" transform="matrix(1 0 0 1 2569.65 1126)">
   <path d="M 18.9453 -67.2852 L 115.137 -67.2852 C 118.75 -67.2852 121.631 -70.166 121.631 -73.7793 C 121.631 -77.3926 118.75 -80.2734 115.137 -80.2734 L 18.9453 -80.2734 C 15.332 -80.2734 12.4512 -77.3926 12.4512 -73.7793 C 12.4512 -70.166 15.332 -67.2852 18.9453 -67.2852 Z M 39.9414 -41.6992 L 94.1406 -41.6992 C 97.7539 -41.6992 100.635 -44.5801 100.635 -48.1934 C 100.635 -51.8066 97.7539 -54.6875 94.1406 -54.6875 L 39.9414 -54.6875 C 36.3281 -54.6875 33.4473 -51.8066 33.4473 -48.1934 C 33.4473 -44.5801 36.3281 -41.6992 39.9414 -41.6992 Z M 18.9453 -16.1621 L 115.137 -16.1621 C 118.75 -16.1621 121.631 -19.043 121.631 -22.6562 C 121.631 -26.2695 118.75 -29.1504 115.137 -29.1504 L 18.9453 -29.1504 C 15.332 -29.1504 12.4512 -26.2695 12.4512 -22.6562 C 12.4512 -19.043 15.332 -16.1621 18.9453 -16.1621 Z M 39.9414 9.42383 L 94.1406 9.42383 C 97.7539 9.42383 100.635 6.49414 100.635 2.88086 C 100.635 -0.732422 97.7539 -3.61328 94.1406 -3.61328 L 39.9414 -3.61328 C 36.3281 -3.61328 33.4473 -0.732422 33.4473 2.88086 C 33.4473 6.49414 36.3281 9.42383 39.9414 9.42383 Z"/>
  </g>
  <g id="Black-M" transform="matrix(1 0 0 1 2864.7 1126)">
   <path d="M 19.8242 -66.4062 L 117.578 -66.4062 C 121.68 -66.4062 124.951 -69.6777 124.951 -73.7793 C 124.951 -77.8809 121.68 -81.1523 117.578 -81.1523 L 19.8242 -81.1523 C 15.7227 -81.1523 12.4512 -77.8809 12.4512 -73.7793 C 12.4512 -69.6777 15.7227 -66.4062 19.8242 -66.4062 Z M 41.6992 -40.8691 L 95.7031 -40.8691 C 99.8047 -40.8691 103.076 -44.1406 103.076 -48.2422 C 103.076 -52.2949 99.8047 -55.5664 95.7031 -55.5664 L 41.6992 -55.5664 C 37.6465 -55.5664 34.375 -52.2949 34.375 -48.2422 C 34.375 -44.1406 37.6465 -40.8691 41.6992 -40.8691 Z M 19.8242 -15.2832 L 117.578 -15.2832 C 121.68 -15.2832 124.951 -18.6035 124.951 -22.6562 C 124.951 -26.7578 121.68 -30.0293 117.578 -30.0293 L 19.8242 -30.0293 C 15.7227 -30.0293 12.4512 -26.7578 12.4512 -22.6562 C 12.4512 -18.6035 15.7227 -15.2832 19.8242 -15.2832 Z M 41.6992 10.2539 L 95.7031 10.2539 C 99.8047 10.2539 103.076 6.98242 103.076 2.88086 C 103.076 -1.2207 99.8047 -4.49219 95.7031 -4.49219 L 41.6992 -4.49219 C 37.6465 -4.49219 34.375 -1.2207 34.375 2.88086 C 34.375 6.98242 37.6465 10.2539 41.6992 10.2539 Z"/>
  </g>
  <g id="Ultralight-L" transform="matrix(1 0 0 1 483.612 1556)">
   <path d="M 17.3828 -83.5938 L 134.814 -83.5938 C 135.596 -83.5938 136.133 -84.082 136.133 -84.8633 C 136.133 -85.6934 135.596 -86.1816 134.814 -86.1816 L 17.3828 -86.1816 C 16.6016 -86.1816 16.0645 -85.6934 16.0645 -84.8633 C 16.0645 -84.082 16.6016 -83.5938 17.3828 -83.5938 Z M 37.207 -50.4395 L 114.99 -50.4395 C 115.82 -50.4395 116.309 -50.9277 116.309 -51.7578 C 116.309 -52.5391 115.82 -53.0273 114.99 -53.0273 L 37.207 -53.0273 C 36.377 -53.0273 35.8887 -52.5391 35.8887 -51.7578 C 35.8887 -50.9277 36.377 -50.4395 37.207 -50.4395 Z M 17.3828 -17.2852 L 134.814 -17.2852 C 135.596 -17.2852 136.133 -17.7734 136.133 -18.6035 C 136.133 -19.3848 135.596 -19.9219 134.814 -19.9219 L 17.3828 -19.9219 C 16.6016 -19.9219 16.0645 -19.3848 16.0645 -18.6035 C 16.0645 -17.7734 16.6016 -17.2852 17.3828 -17.2852 Z M 37.207 15.8691 L 114.99 15.8691 C 115.82 15.8691 116.309 15.332 116.309 14.5508 C 116.309 13.7695 115.82 13.2324 114.99 13.2324 L 37.207 13.2324 C 36.377 13.2324 35.8887 13.7695 35.8887 14.5508 C 35.8887 15.332 36.377 15.8691 37.207 15.8691 Z"/>
  </g>
  <g id="Thin-L" transform="matrix(1 0 0 1 779.689 1556)">
   <path d="M 18.0176 -82.959 L 135.4 -82.959 C 136.572 -82.959 137.354 -83.7402 137.354 -84.9121 C 137.354 -86.0352 136.572 -86.8164 135.4 -86.8164 L 18.0176 -86.8164 C 16.8945 -86.8164 16.0645 -86.0352 16.0645 -84.9121 C 16.0645 -83.7402 16.8945 -82.959 18.0176 -82.959 Z M 38.4277 -49.8535 L 114.99 -49.8535 C 116.113 -49.8535 116.943 -50.6348 116.943 -51.7578 C 116.943 -52.9297 116.113 -53.7109 114.99 -53.7109 L 38.4277 -53.7109 C 37.3047 -53.7109 36.5234 -52.9297 36.5234 -51.7578 C 36.5234 -50.6348 37.3047 -49.8535 38.4277 -49.8535 Z M 18.0176 -16.6992 L 135.4 -16.6992 C 136.572 -16.6992 137.354 -17.5293 137.354 -18.6523 C 137.354 -19.7754 136.572 -20.6055 135.4 -20.6055 L 18.0176 -20.6055 C 16.8945 -20.6055 16.0645 -19.7754 16.0645 -18.6523 C 16.0645 -17.5293 16.8945 -16.6992 18.0176 -16.6992 Z M 38.4277 16.4062 L 114.99 16.4062 C 116.113 16.4062 116.943 15.625 116.943 14.4531 C 116.943 13.3301 116.113 12.5488 114.99 12.5488 L 38.4277 12.5488 C 37.3047 12.5488 36.5234 13.3301 36.5234 14.4531 C 36.5234 15.625 37.3047 16.4062 38.4277 16.4062 Z"/>
  </g>
  <g id="Light-L" transform="matrix(1 0 0 1 1075.18 1556)">
   <path d="M 19.2383 -81.7871 L 136.621 -81.7871 C 138.428 -81.7871 139.795 -83.1055 139.795 -84.9121 C 139.795 -86.7188 138.428 -88.0859 136.621 -88.0859 L 19.2383 -88.0859 C 17.4316 -88.0859 16.0645 -86.7188 16.0645 -84.9121 C 16.0645 -83.1055 17.4316 -81.7871 19.2383 -81.7871 Z M 40.8691 -48.6816 L 114.99 -48.6816 C 116.748 -48.6816 118.164 -50.0488 118.164 -51.8555 C 118.164 -53.6621 116.748 -54.9805 114.99 -54.9805 L 40.8691 -54.9805 C 39.1113 -54.9805 37.7441 -53.6621 37.7441 -51.8555 C 37.7441 -50.0488 39.1113 -48.6816 40.8691 -48.6816 Z M 19.2383 -15.625 L 136.621 -15.625 C 138.428 -15.625 139.795 -16.9922 139.795 -18.7988 C 139.795 -20.5566 138.428 -21.9238 136.621 -21.9238 L 19.2383 -21.9238 C 17.4316 -21.9238 16.0645 -20.5566 16.0645 -18.7988 C 16.0645 -16.9922 17.4316 -15.625 19.2383 -15.625 Z M 40.8691 17.4316 L 114.99 17.4316 C 116.748 17.4316 118.164 16.1133 118.164 14.3066 C 118.164 12.5 116.748 11.1328 114.99 11.1328 L 40.8691 11.1328 C 39.1113 11.1328 37.7441 12.5 37.7441 14.3066 C 37.7441 16.1133 39.1113 17.4316 40.8691 17.4316 Z"/>
  </g>
  <g id="Regular-L" transform="matrix(1 0 0 1 1370.99 1556)">
   <path d="M 20.166 -80.8594 L 137.549 -80.8594 C 139.844 -80.8594 141.65 -82.6172 141.65 -84.9609 C 141.65 -87.2559 139.844 -89.0137 137.549 -89.0137 L 20.166 -89.0137 C 17.8711 -89.0137 16.0645 -87.2559 16.0645 -84.9609 C 16.0645 -82.6172 17.8711 -80.8594 20.166 -80.8594 Z M 42.7246 -47.8027 L 114.941 -47.8027 C 117.236 -47.8027 119.092 -49.6094 119.092 -51.9043 C 119.092 -54.1992 117.236 -56.0059 114.941 -56.0059 L 42.7246 -56.0059 C 40.4297 -56.0059 38.6719 -54.1992 38.6719 -51.9043 C 38.6719 -49.6094 40.4297 -47.8027 42.7246 -47.8027 Z M 20.166 -14.7949 L 137.549 -14.7949 C 139.844 -14.7949 141.65 -16.5527 141.65 -18.8477 C 141.65 -21.1914 139.844 -22.9492 137.549 -22.9492 L 20.166 -22.9492 C 17.8711 -22.9492 16.0645 -21.1914 16.0645 -18.8477 C 16.0645 -16.5527 17.8711 -14.7949 20.166 -14.7949 Z M 42.7246 18.2617 L 114.941 18.2617 C 117.236 18.2617 119.092 16.4551 119.092 14.1602 C 119.092 11.8652 117.236 10.1074 114.941 10.1074 L 42.7246 10.1074 C 40.4297 10.1074 38.6719 11.8652 38.6719 14.1602 C 38.6719 16.4551 40.4297 18.2617 42.7246 18.2617 Z"/>
  </g>
  <g id="Medium-L" transform="matrix(1 0 0 1 1666.36 1556)">
   <path d="M 20.9473 -80.0781 L 139.404 -80.0781 C 142.139 -80.0781 144.336 -82.2266 144.336 -84.9609 C 144.336 -87.6465 142.139 -89.7949 139.404 -89.7949 L 20.9473 -89.7949 C 18.2129 -89.7949 16.0645 -87.6465 16.0645 -84.9609 C 16.0645 -82.2266 18.2129 -80.0781 20.9473 -80.0781 Z M 44.3359 -47.0703 L 116.016 -47.0703 C 118.75 -47.0703 120.947 -49.2188 120.947 -51.9043 C 120.947 -54.6387 118.75 -56.7871 116.016 -56.7871 L 44.3359 -56.7871 C 41.6016 -56.7871 39.4531 -54.6387 39.4531 -51.9043 C 39.4531 -49.2188 41.6016 -47.0703 44.3359 -47.0703 Z M 20.9473 -14.0625 L 139.404 -14.0625 C 142.139 -14.0625 144.336 -16.1621 144.336 -18.8965 C 144.336 -21.6309 142.139 -23.7305 139.404 -23.7305 L 20.9473 -23.7305 C 18.2129 -23.7305 16.0645 -21.6309 16.0645 -18.8965 C 16.0645 -16.1621 18.2129 -14.0625 20.9473 -14.0625 Z M 44.3359 18.9941 L 116.016 18.9941 C 118.75 18.9941 120.947 16.8457 120.947 14.1113 C 120.947 11.4258 118.75 9.27734 116.016 9.27734 L 44.3359 9.27734 C 41.6016 9.27734 39.4531 11.4258 39.4531 14.1113 C 39.4531 16.8457 41.6016 18.9941 44.3359 18.9941 Z"/>
  </g>
  <g id="Semibold-L" transform="matrix(1 0 0 1 1962.04 1556)">
   <path d="M 21.5332 -79.4922 L 140.869 -79.4922 C 143.896 -79.4922 146.338 -81.8848 146.338 -84.9609 C 146.338 -87.9883 143.896 -90.3809 140.869 -90.3809 L 21.5332 -90.3809 C 18.457 -90.3809 16.0645 -87.9883 16.0645 -84.9609 C 16.0645 -81.8848 18.457 -79.4922 21.5332 -79.4922 Z M 45.5078 -46.4844 L 116.895 -46.4844 C 119.922 -46.4844 122.363 -48.877 122.363 -51.9531 C 122.363 -54.9805 119.922 -57.373 116.895 -57.373 L 45.5078 -57.373 C 42.4805 -57.373 40.0879 -54.9805 40.0879 -51.9531 C 40.0879 -48.877 42.4805 -46.4844 45.5078 -46.4844 Z M 21.5332 -13.4766 L 140.869 -13.4766 C 143.896 -13.4766 146.338 -15.8691 146.338 -18.8965 C 146.338 -21.9727 143.896 -24.3652 140.869 -24.3652 L 21.5332 -24.3652 C 18.457 -24.3652 16.0645 -21.9727 16.0645 -18.8965 C 16.0645 -15.8691 18.457 -13.4766 21.5332 -13.4766 Z M 45.5078 19.5312 L 116.895 19.5312 C 119.922 19.5312 122.363 17.1387 122.363 14.1113 C 122.363 11.0352 119.922 8.64258 116.895 8.64258 L 45.5078 8.64258 C 42.4805 8.64258 40.0879 11.0352 40.0879 14.1113 C 40.0879 17.1387 42.4805 19.5312 45.5078 19.5312 Z"/>
  </g>
  <g id="Bold-L" transform="matrix(1 0 0 1 2257.41 1556)">
   <path d="M 22.3145 -78.7109 L 142.773 -78.7109 C 146.24 -78.7109 149.023 -81.4941 149.023 -84.9609 C 149.023 -88.4277 146.24 -91.1621 142.773 -91.1621 L 22.3145 -91.1621 C 18.8477 -91.1621 16.0645 -88.4277 16.0645 -84.9609 C 16.0645 -81.4941 18.8477 -78.7109 22.3145 -78.7109 Z M 47.1191 -45.7031 L 117.969 -45.7031 C 121.436 -45.7031 124.219 -48.4863 124.219 -51.9531 C 124.219 -55.4199 121.436 -58.1543 117.969 -58.1543 L 47.1191 -58.1543 C 43.6523 -58.1543 40.918 -55.4199 40.918 -51.9531 C 40.918 -48.4863 43.6523 -45.7031 47.1191 -45.7031 Z M 22.3145 -12.7441 L 142.773 -12.7441 C 146.24 -12.7441 149.023 -15.4785 149.023 -18.9453 C 149.023 -22.4121 146.24 -25.1953 142.773 -25.1953 L 22.3145 -25.1953 C 18.8477 -25.1953 16.0645 -22.4121 16.0645 -18.9453 C 16.0645 -15.4785 18.8477 -12.7441 22.3145 -12.7441 Z M 47.1191 20.2637 L 117.969 20.2637 C 121.436 20.2637 124.219 17.5293 124.219 14.0625 C 124.219 10.5957 121.436 7.8125 117.969 7.8125 L 47.1191 7.8125 C 43.6523 7.8125 40.918 10.5957 40.918 14.0625 C 40.918 17.5293 43.6523 20.2637 47.1191 20.2637 Z"/>
  </g>
  <g id="Heavy-L" transform="matrix(1 0 0 1 2552.17 1556)">
   <path d="M 23.4375 -77.5879 L 145.557 -77.5879 C 149.658 -77.5879 152.93 -80.8594 152.93 -84.9609 C 152.93 -89.0625 149.658 -92.334 145.557 -92.334 L 23.4375 -92.334 C 19.3359 -92.334 16.0645 -89.0625 16.0645 -84.9609 C 16.0645 -80.8594 19.3359 -77.5879 23.4375 -77.5879 Z M 49.4141 -44.6289 L 119.58 -44.6289 C 123.682 -44.6289 126.953 -47.9004 126.953 -51.9531 C 126.953 -56.0547 123.682 -59.3262 119.58 -59.3262 L 49.4141 -59.3262 C 45.3125 -59.3262 42.0898 -56.0547 42.0898 -51.9531 C 42.0898 -47.9004 45.3125 -44.6289 49.4141 -44.6289 Z M 23.4375 -11.6211 L 145.557 -11.6211 C 149.658 -11.6211 152.93 -14.8926 152.93 -18.9941 C 152.93 -23.0957 149.658 -26.3672 145.557 -26.3672 L 23.4375 -26.3672 C 19.3359 -26.3672 16.0645 -23.0957 16.0645 -18.9941 C 16.0645 -14.8926 19.3359 -11.6211 23.4375 -11.6211 Z M 49.4141 21.3379 L 119.58 21.3379 C 123.682 21.3379 126.953 18.1152 126.953 14.0137 C 126.953 9.91211 123.682 6.64062 119.58 6.64062 L 49.4141 6.64062 C 45.3125 6.64062 42.0898 9.91211 42.0898 14.0137 C 42.0898 18.1152 45.3125 21.3379 49.4141 21.3379 Z"/>
  </g>
  <g id="Black-L" transform="matrix(1 0 0 1 2847.15 1556)">
   <path d="M 24.4629 -76.6113 L 148.047 -76.6113 C 152.686 -76.6113 156.445 -80.3223 156.445 -84.9609 C 156.445 -89.6484 152.686 -93.3594 148.047 -93.3594 L 24.4629 -93.3594 C 19.8242 -93.3594 16.0645 -89.6484 16.0645 -84.9609 C 16.0645 -80.3223 19.8242 -76.6113 24.4629 -76.6113 Z M 51.5137 -43.6035 L 120.996 -43.6035 C 125.635 -43.6035 129.395 -47.3633 129.395 -52.002 C 129.395 -56.6406 125.635 -60.3516 120.996 -60.3516 L 51.5137 -60.3516 C 46.8262 -60.3516 43.1152 -56.6406 43.1152 -52.002 C 43.1152 -47.3633 46.8262 -43.6035 51.5137 -43.6035 Z M 24.4629 -10.6445 L 148.047 -10.6445 C 152.686 -10.6445 156.445 -14.3555 156.445 -19.043 C 156.445 -23.6816 152.686 -27.3926 148.047 -27.3926 L 24.4629 -27.3926 C 19.8242 -27.3926 16.0645 -23.6816 16.0645 -19.043 C 16.0645 -14.3555 19.8242 -10.6445 24.4629 -10.6445 Z M 51.5137 22.3145 L 120.996 22.3145 C 125.635 22.3145 129.395 18.6035 129.395 13.9648 C 129.395 9.27734 125.635 5.56641 120.996 5.56641 L 51.5137 5.56641 C 46.8262 5.56641 43.1152 9.27734 43.1152 13.9648 C 43.1152 18.6035 46.8262 22.3145 51.5137 22.3145 Z"/>
  </g>
 </g>
</svg>
