<?xml version="1.0" encoding="UTF-8"?>
<!--Generator: Apple Native CoreSVG 123-->
<!DOCTYPE svg
PUBLIC "-//W3C//DTD SVG 1.1//EN"
       "http://www.w3.org/Graphics/SVG/1.1/DTD/svg11.dtd">
<svg version="1.1" xmlns="http://www.w3.org/2000/svg" xmlns:xlink="http://www.w3.org/1999/xlink" width="3300" height="2200">
 <!--glyph: "uni1000BC.medium", point size: 100.000000, font version: "Version 15.0d4e20", template writer version: "2"-->
 <g id="Notes">
  <rect height="2200" id="artboard" style="fill:white;opacity:1" width="3300" x="0" y="0"/>
  <line id="" style="fill:none;stroke:black;opacity:1;stroke-width:0.5;" x1="263" x2="3036" y1="292" y2="292"/>
  <text style="stroke:none;fill:black;font-family:-apple-system,&quot;SF Pro Display&quot;,&quot;SF Pro Text&quot;,Helvetica,sans-serif;font-weight:bold;" transform="matrix(1 0 0 1 263 322)">Weight/Scale Variations</text>
  <text style="stroke:none;fill:black;font-family:-apple-system,&quot;SF Pro Display&quot;,&quot;SF Pro Text&quot;,Helvetica,sans-serif;text-anchor:middle;" transform="matrix(1 0 0 1 559.711 322)">Ultralight</text>
  <text style="stroke:none;fill:black;font-family:-apple-system,&quot;SF Pro Display&quot;,&quot;SF Pro Text&quot;,Helvetica,sans-serif;text-anchor:middle;" transform="matrix(1 0 0 1 856.422 322)">Thin</text>
  <text style="stroke:none;fill:black;font-family:-apple-system,&quot;SF Pro Display&quot;,&quot;SF Pro Text&quot;,Helvetica,sans-serif;text-anchor:middle;" transform="matrix(1 0 0 1 1153.13 322)">Light</text>
  <text style="stroke:none;fill:black;font-family:-apple-system,&quot;SF Pro Display&quot;,&quot;SF Pro Text&quot;,Helvetica,sans-serif;text-anchor:middle;" transform="matrix(1 0 0 1 1449.84 322)">Regular</text>
  <text style="stroke:none;fill:black;font-family:-apple-system,&quot;SF Pro Display&quot;,&quot;SF Pro Text&quot;,Helvetica,sans-serif;text-anchor:middle;" transform="matrix(1 0 0 1 1746.56 322)">Medium</text>
  <text style="stroke:none;fill:black;font-family:-apple-system,&quot;SF Pro Display&quot;,&quot;SF Pro Text&quot;,Helvetica,sans-serif;text-anchor:middle;" transform="matrix(1 0 0 1 2043.27 322)">Semibold</text>
  <text style="stroke:none;fill:black;font-family:-apple-system,&quot;SF Pro Display&quot;,&quot;SF Pro Text&quot;,Helvetica,sans-serif;text-anchor:middle;" transform="matrix(1 0 0 1 2339.98 322)">Bold</text>
  <text style="stroke:none;fill:black;font-family:-apple-system,&quot;SF Pro Display&quot;,&quot;SF Pro Text&quot;,Helvetica,sans-serif;text-anchor:middle;" transform="matrix(1 0 0 1 2636.69 322)">Heavy</text>
  <text style="stroke:none;fill:black;font-family:-apple-system,&quot;SF Pro Display&quot;,&quot;SF Pro Text&quot;,Helvetica,sans-serif;text-anchor:middle;" transform="matrix(1 0 0 1 2933.4 322)">Black</text>
  <line id="" style="fill:none;stroke:black;opacity:1;stroke-width:0.5;" x1="263" x2="3036" y1="1903" y2="1903"/>
  <g id="" transform="matrix(1 0 0 1 263 1933)">
   <path d="M 9.24805 0.830078 C 13.5547 0.830078 17.1387 -2.74414 17.1387 -7.05078 C 17.1387 -11.3574 13.5449 -14.9316 9.23828 -14.9316 C 4.94141 -14.9316 1.36719 -11.3574 1.36719 -7.05078 C 1.36719 -2.74414 4.95117 0.830078 9.24805 0.830078 Z M 9.24805 -0.654297 C 5.70312 -0.654297 2.87109 -3.49609 2.87109 -7.05078 C 2.87109 -10.6055 5.69336 -13.4473 9.23828 -13.4473 C 12.793 -13.4473 15.6348 -10.6055 15.6445 -7.05078 C 15.6543 -3.49609 12.8027 -0.654297 9.24805 -0.654297 Z M 9.22852 -3.42773 C 9.69727 -3.42773 9.9707 -3.74023 9.9707 -4.25781 L 9.9707 -6.31836 L 12.1973 -6.31836 C 12.6953 -6.31836 13.0371 -6.57227 13.0371 -7.04102 C 13.0371 -7.51953 12.7148 -7.7832 12.1973 -7.7832 L 9.9707 -7.7832 L 9.9707 -10.0098 C 9.9707 -10.5273 9.69727 -10.8496 9.22852 -10.8496 C 8.75977 -10.8496 8.50586 -10.5078 8.50586 -10.0098 L 8.50586 -7.7832 L 6.29883 -7.7832 C 5.78125 -7.7832 5.44922 -7.51953 5.44922 -7.04102 C 5.44922 -6.57227 5.80078 -6.31836 6.29883 -6.31836 L 8.50586 -6.31836 L 8.50586 -4.25781 C 8.50586 -3.75977 8.75977 -3.42773 9.22852 -3.42773 Z"/>
  </g>
  <g id="" transform="matrix(1 0 0 1 281.506 1933)">
   <path d="M 11.709 2.91016 C 17.1484 2.91016 21.6699 -1.60156 21.6699 -7.05078 C 21.6699 -12.4902 17.1387 -17.0117 11.6992 -17.0117 C 6.25 -17.0117 1.74805 -12.4902 1.74805 -7.05078 C 1.74805 -1.60156 6.25977 2.91016 11.709 2.91016 Z M 11.709 1.25 C 7.09961 1.25 3.41797 -2.44141 3.41797 -7.05078 C 3.41797 -11.6504 7.08984 -15.3516 11.6992 -15.3516 C 16.2988 -15.3516 20 -11.6504 20.0098 -7.05078 C 20.0195 -2.44141 16.3086 1.25 11.709 1.25 Z M 11.6797 -2.41211 C 12.207 -2.41211 12.5195 -2.77344 12.5195 -3.33984 L 12.5195 -6.23047 L 15.5762 -6.23047 C 16.123 -6.23047 16.5039 -6.51367 16.5039 -7.03125 C 16.5039 -7.55859 16.1426 -7.86133 15.5762 -7.86133 L 12.5195 -7.86133 L 12.5195 -10.9277 C 12.5195 -11.5039 12.207 -11.8555 11.6797 -11.8555 C 11.1621 -11.8555 10.8789 -11.4844 10.8789 -10.9277 L 10.8789 -7.86133 L 7.83203 -7.86133 C 7.25586 -7.86133 6.89453 -7.55859 6.89453 -7.03125 C 6.89453 -6.51367 7.28516 -6.23047 7.83203 -6.23047 L 10.8789 -6.23047 L 10.8789 -3.33984 C 10.8789 -2.79297 11.1621 -2.41211 11.6797 -2.41211 Z"/>
  </g>
  <g id="" transform="matrix(1 0 0 1 304.914 1933)">
   <path d="M 14.9707 5.67383 C 21.9336 5.67383 27.6855 -0.078125 27.6855 -7.04102 C 27.6855 -14.0039 21.9238 -19.7559 14.9609 -19.7559 C 7.99805 -19.7559 2.25586 -14.0039 2.25586 -7.04102 C 2.25586 -0.078125 8.00781 5.67383 14.9707 5.67383 Z M 14.9707 3.85742 C 8.92578 3.85742 4.08203 -1.00586 4.08203 -7.04102 C 4.08203 -13.0762 8.91602 -17.9395 14.9609 -17.9395 C 20.9961 -17.9395 25.8594 -13.0762 25.8691 -7.04102 C 25.8789 -1.00586 21.0059 3.85742 14.9707 3.85742 Z M 14.9414 -1.06445 C 15.5176 -1.06445 15.8594 -1.45508 15.8594 -2.06055 L 15.8594 -6.13281 L 20.0977 -6.13281 C 20.6934 -6.13281 21.1133 -6.46484 21.1133 -7.02148 C 21.1133 -7.59766 20.7227 -7.93945 20.0977 -7.93945 L 15.8594 -7.93945 L 15.8594 -12.1875 C 15.8594 -12.8027 15.5176 -13.1934 14.9414 -13.1934 C 14.3848 -13.1934 14.0625 -12.7832 14.0625 -12.1875 L 14.0625 -7.93945 L 9.82422 -7.93945 C 9.20898 -7.93945 8.80859 -7.59766 8.80859 -7.02148 C 8.80859 -6.46484 9.23828 -6.13281 9.82422 -6.13281 L 14.0625 -6.13281 L 14.0625 -2.06055 C 14.0625 -1.47461 14.3848 -1.06445 14.9414 -1.06445 Z"/>
  </g>
  <text style="stroke:none;fill:black;font-family:-apple-system,&quot;SF Pro Display&quot;,&quot;SF Pro Text&quot;,Helvetica,sans-serif;font-weight:bold;" transform="matrix(1 0 0 1 263 1953)">Design Variations</text>
  <text style="stroke:none;fill:black;font-family:-apple-system,&quot;SF Pro Display&quot;,&quot;SF Pro Text&quot;,Helvetica,sans-serif;" transform="matrix(1 0 0 1 263 1971)">Symbols are supported in up to nine weights and three scales.</text>
  <text style="stroke:none;fill:black;font-family:-apple-system,&quot;SF Pro Display&quot;,&quot;SF Pro Text&quot;,Helvetica,sans-serif;" transform="matrix(1 0 0 1 263 1989)">For optimal layout with text and other symbols, vertically align</text>
  <text style="stroke:none;fill:black;font-family:-apple-system,&quot;SF Pro Display&quot;,&quot;SF Pro Text&quot;,Helvetica,sans-serif;" transform="matrix(1 0 0 1 263 2007)">symbols with the adjacent text.</text>
  <rect height="14" id="" style="fill:#00AEEF;stroke:none;opacity:0.4;" width="3" x="776" y="1919"/>
  <g id="" transform="matrix(1 0 0 1 779 1933)">
   <path d="M 10.5273 0 L 12.373 0 L 7.17773 -14.0918 L 5.43945 -14.0918 L 0.244141 0 L 2.08984 0 L 3.50586 -4.0332 L 9.11133 -4.0332 Z M 6.2793 -11.9531 L 6.33789 -11.9531 L 8.59375 -5.52734 L 4.02344 -5.52734 Z"/>
  </g>
  <rect height="14" id="" style="fill:#00AEEF;stroke:none;opacity:0.4;" width="3" x="791.617" y="1919"/>
  <text style="stroke:none;fill:black;font-family:-apple-system,&quot;SF Pro Display&quot;,&quot;SF Pro Text&quot;,Helvetica,sans-serif;font-weight:bold;" transform="matrix(1 0 0 1 776 1953)">Side Bearings</text>
  <text style="stroke:none;fill:black;font-family:-apple-system,&quot;SF Pro Display&quot;,&quot;SF Pro Text&quot;,Helvetica,sans-serif;" transform="matrix(1 0 0 1 776 1971)">Horizontal padding on the left and right side of each symbol</text>
  <text style="stroke:none;fill:black;font-family:-apple-system,&quot;SF Pro Display&quot;,&quot;SF Pro Text&quot;,Helvetica,sans-serif;" transform="matrix(1 0 0 1 776 1989)">can be adjusted by modifying the width of the blue rectangles.</text>
  <text style="stroke:none;fill:black;font-family:-apple-system,&quot;SF Pro Display&quot;,&quot;SF Pro Text&quot;,Helvetica,sans-serif;" transform="matrix(1 0 0 1 776 2007)">Modifications are automatically applied proportionally to all</text>
  <text style="stroke:none;fill:black;font-family:-apple-system,&quot;SF Pro Display&quot;,&quot;SF Pro Text&quot;,Helvetica,sans-serif;" transform="matrix(1 0 0 1 776 2025)">scales and weights.</text>
  <g id="" transform="matrix(1 0 0 1 1289 1933)">
   <path d="M 2.96875 2.35352 L 3.80859 3.19336 C 4.84375 4.22852 6.12305 4.15039 7.19727 2.97852 L 16.1621 -6.82617 C 16.5527 -6.74805 16.9629 -6.8457 17.4902 -7.02148 C 18.1738 -7.25586 18.2715 -7.25586 18.3887 -7.13867 C 18.5352 -7.01172 18.4863 -6.89453 18.2422 -6.25 C 17.8809 -5.33203 17.8125 -4.79492 18.5547 -4.02344 L 19.4238 -3.13477 C 20.2734 -2.24609 21.3281 -2.26562 22.2168 -3.14453 L 25.0586 -5.97656 C 25.9473 -6.86523 25.957 -7.92969 25.0781 -8.7793 L 24.1797 -9.64844 C 23.4082 -10.4004 22.8711 -10.3516 21.9629 -9.98047 C 21.3184 -9.72656 21.2012 -9.6875 21.0645 -9.81445 C 20.9375 -9.93164 20.9473 -10.0391 21.1816 -10.7129 C 21.5332 -11.6895 21.5723 -12.2852 20.752 -13.0957 L 19.3359 -14.5117 C 15.1953 -18.6133 11.2305 -18.7402 7.65625 -15.4395 C 7.08008 -14.9023 6.99219 -14.1504 7.53906 -13.6133 L 7.79297 -13.3594 C 8.22266 -12.9297 8.86719 -12.8418 9.41406 -13.1152 C 11.0645 -13.9453 12.2559 -14.0234 13.457 -12.9785 L 13.0273 -11.416 C 12.8516 -10.8008 12.793 -10.3418 12.9199 -9.93164 L 3.18359 -1.04492 C 2.02148 0.0292969 1.93359 1.32812 2.96875 2.35352 Z M 8.96484 -14.4922 C 8.89648 -14.5703 8.86719 -14.6582 8.99414 -14.7559 C 11.709 -17.2852 15.0391 -16.8457 18.3496 -13.5254 L 19.6973 -12.168 C 20.0879 -11.7773 20.0977 -11.582 19.8828 -10.8691 C 19.6582 -10.127 19.502 -9.53125 20.1465 -8.88672 C 20.8105 -8.22266 21.2891 -8.41797 22.207 -8.63281 C 22.9004 -8.79883 23.0664 -8.79883 23.4473 -8.41797 L 24.0918 -7.77344 C 24.4043 -7.48047 24.4141 -7.32422 24.0723 -6.97266 L 21.2207 -4.13086 C 20.8887 -3.79883 20.7227 -3.79883 20.4297 -4.10156 L 19.7852 -4.75586 C 19.4141 -5.13672 19.4141 -5.30273 19.5801 -6.01562 C 19.7852 -6.88477 19.9805 -7.38281 19.3262 -8.04688 C 18.6719 -8.7207 18.0762 -8.57422 17.3438 -8.33008 C 16.5625 -8.06641 16.3281 -8.06641 15.8984 -8.49609 L 14.6094 -9.78516 C 14.1699 -10.2246 14.1309 -10.4395 14.2676 -10.9082 L 15.0293 -13.3984 C 13.3887 -15.2832 11.4941 -15.5566 9.20898 -14.4434 C 9.11133 -14.3945 9.04297 -14.4141 8.96484 -14.4922 Z M 3.96484 1.36719 C 3.52539 0.927734 3.54492 0.537109 4.14062 -0.00976562 L 13.7402 -8.81836 L 15 -7.55859 L 6.17188 2.02148 C 5.625 2.60742 5.24414 2.64648 4.79492 2.19727 Z"/>
  </g>
  <text style="stroke:none;fill:black;font-family:-apple-system,&quot;SF Pro Display&quot;,&quot;SF Pro Text&quot;,Helvetica,sans-serif;font-weight:bold;" transform="matrix(1 0 0 1 1289 1953)">Exporting</text>
  <text style="stroke:none;fill:black;font-family:-apple-system,&quot;SF Pro Display&quot;,&quot;SF Pro Text&quot;,Helvetica,sans-serif;" transform="matrix(1 0 0 1 1289 1971)">Symbols should be outlined when exporting to ensure the</text>
  <text style="stroke:none;fill:black;font-family:-apple-system,&quot;SF Pro Display&quot;,&quot;SF Pro Text&quot;,Helvetica,sans-serif;" transform="matrix(1 0 0 1 1289 1989)">design is preserved when submitting to Xcode.</text>
  <text id="template-version" style="stroke:none;fill:black;font-family:-apple-system,&quot;SF Pro Display&quot;,&quot;SF Pro Text&quot;,Helvetica,sans-serif;text-anchor:end;" transform="matrix(1 0 0 1 3036 1933)">Template v.0.1</text>
  <text style="stroke:none;fill:black;font-family:-apple-system,&quot;SF Pro Display&quot;,&quot;SF Pro Text&quot;,Helvetica,sans-serif;text-anchor:end;" transform="matrix(1 0 0 1 3036 1951)">Generated from u.square</text>
  <text style="stroke:none;fill:black;font-family:-apple-system,&quot;SF Pro Display&quot;,&quot;SF Pro Text&quot;,Helvetica,sans-serif;text-anchor:end;" transform="matrix(1 0 0 1 3036 1969)">Typeset at 100 points</text>
  <text style="stroke:none;fill:black;font-family:-apple-system,&quot;SF Pro Display&quot;,&quot;SF Pro Text&quot;,Helvetica,sans-serif;" transform="matrix(1 0 0 1 263 726)">Small</text>
  <text style="stroke:none;fill:black;font-family:-apple-system,&quot;SF Pro Display&quot;,&quot;SF Pro Text&quot;,Helvetica,sans-serif;" transform="matrix(1 0 0 1 263 1156)">Medium</text>
  <text style="stroke:none;fill:black;font-family:-apple-system,&quot;SF Pro Display&quot;,&quot;SF Pro Text&quot;,Helvetica,sans-serif;" transform="matrix(1 0 0 1 263 1586)">Large</text>
 </g>
 <g id="Guides">
  <g id="H-reference" style="fill:#27AAE1;stroke:none;" transform="matrix(1 0 0 1 339 696)">
   <path d="M 54.9316 0 L 57.666 0 L 30.5664 -70.459 L 28.0762 -70.459 L 0.976562 0 L 3.66211 0 L 12.9395 -24.4629 L 45.7031 -24.4629 Z M 29.1992 -67.0898 L 29.4434 -67.0898 L 44.8242 -26.709 L 13.8184 -26.709 Z"/>
  </g>
  <line id="Baseline-S" style="fill:none;stroke:#27AAE1;opacity:1;stroke-width:0.577;" x1="263" x2="3036" y1="696" y2="696"/>
  <line id="Capline-S" style="fill:none;stroke:#27AAE1;opacity:1;stroke-width:0.577;" x1="263" x2="3036" y1="625.541" y2="625.541"/>
  <g id="H-reference" style="fill:#27AAE1;stroke:none;" transform="matrix(1 0 0 1 339 1126)">
   <path d="M 54.9316 0 L 57.666 0 L 30.5664 -70.459 L 28.0762 -70.459 L 0.976562 0 L 3.66211 0 L 12.9395 -24.4629 L 45.7031 -24.4629 Z M 29.1992 -67.0898 L 29.4434 -67.0898 L 44.8242 -26.709 L 13.8184 -26.709 Z"/>
  </g>
  <line id="Baseline-M" style="fill:none;stroke:#27AAE1;opacity:1;stroke-width:0.577;" x1="263" x2="3036" y1="1126" y2="1126"/>
  <line id="Capline-M" style="fill:none;stroke:#27AAE1;opacity:1;stroke-width:0.577;" x1="263" x2="3036" y1="1055.54" y2="1055.54"/>
  <g id="H-reference" style="fill:#27AAE1;stroke:none;" transform="matrix(1 0 0 1 339 1556)">
   <path d="M 54.9316 0 L 57.666 0 L 30.5664 -70.459 L 28.0762 -70.459 L 0.976562 0 L 3.66211 0 L 12.9395 -24.4629 L 45.7031 -24.4629 Z M 29.1992 -67.0898 L 29.4434 -67.0898 L 44.8242 -26.709 L 13.8184 -26.709 Z"/>
  </g>
  <line id="Baseline-L" style="fill:none;stroke:#27AAE1;opacity:1;stroke-width:0.577;" x1="263" x2="3036" y1="1556" y2="1556"/>
  <line id="Capline-L" style="fill:none;stroke:#27AAE1;opacity:1;stroke-width:0.577;" x1="263" x2="3036" y1="1485.54" y2="1485.54"/>
  <rect height="119.336" id="left-margin" style="fill:#00AEEF;stroke:none;opacity:0.4;" width="12.4512" x="1392.42" y="1030.79"/>
  <rect height="119.336" id="right-margin" style="fill:#00AEEF;stroke:none;opacity:0.4;" width="12.5" x="1494.77" y="1030.79"/>
 </g>
 <g id="Symbols">
  <g id="Ultralight-S" transform="matrix(1 0 0 1 516.352 696)">
   <path d="M 19.7754 -1.5625 L 66.9922 -1.5625 C 73.5352 -1.5625 76.9531 -5.12695 76.9531 -11.5234 L 76.9531 -58.7891 C 76.9531 -65.2344 73.5352 -68.75 66.9922 -68.75 L 19.7754 -68.75 C 13.2324 -68.75 9.76562 -65.2832 9.76562 -58.7891 L 9.76562 -11.5234 C 9.76562 -5.0293 13.2324 -1.5625 19.7754 -1.5625 Z M 19.873 -3.75977 C 14.6484 -3.75977 11.9629 -6.44531 11.9629 -11.6699 L 11.9629 -58.6426 C 11.9629 -63.8672 14.6484 -66.5527 19.873 -66.5527 L 66.8945 -66.5527 C 71.875 -66.5527 74.7559 -63.8672 74.7559 -58.6426 L 74.7559 -11.6699 C 74.7559 -6.44531 71.875 -3.75977 66.8945 -3.75977 Z M 43.3594 -17.8223 C 50.7324 -17.8223 56.25 -22.4121 56.25 -29.7852 L 56.25 -51.2207 C 56.25 -51.9043 55.8105 -52.3438 55.0781 -52.3438 C 54.4434 -52.3438 53.9551 -51.9043 53.9551 -51.2207 L 53.9551 -29.834 C 53.9551 -23.9258 49.3652 -19.9707 43.3594 -19.9707 C 37.3535 -19.9707 32.7637 -23.9258 32.7637 -29.834 L 32.7637 -51.2207 C 32.7637 -51.9043 32.3242 -52.3438 31.6406 -52.3438 C 30.957 -52.3438 30.4688 -51.9043 30.4688 -51.2207 L 30.4688 -29.7852 C 30.4688 -22.4121 35.9863 -17.8223 43.3594 -17.8223 Z"/>
  </g>
  <g id="Thin-S" transform="matrix(1 0 0 1 812.599 696)">
   <path d="M 20.3125 -1.12305 L 67.334 -1.12305 C 74.2676 -1.12305 77.8809 -4.78516 77.8809 -11.6211 L 77.8809 -58.6914 C 77.8809 -65.5762 74.2676 -69.2383 67.334 -69.2383 L 20.3125 -69.2383 C 13.3789 -69.2383 9.76562 -65.625 9.76562 -58.6914 L 9.76562 -11.6211 C 9.76562 -4.6875 13.3789 -1.12305 20.3125 -1.12305 Z M 20.4102 -4.44336 C 15.625 -4.44336 13.0859 -6.93359 13.0859 -11.8164 L 13.0859 -58.5449 C 13.0859 -63.3789 15.625 -65.918 20.4102 -65.918 L 67.2363 -65.918 C 71.875 -65.918 74.5605 -63.3789 74.5605 -58.5449 L 74.5605 -11.8164 C 74.5605 -6.93359 71.875 -4.44336 67.2363 -4.44336 Z M 43.7988 -17.6758 C 51.6113 -17.6758 57.2754 -22.4609 57.2754 -29.9805 L 57.2754 -50.8789 C 57.2754 -52.002 56.6406 -52.6855 55.5664 -52.6855 C 54.5898 -52.6855 53.9062 -52.002 53.9062 -50.8789 L 53.9062 -30.1758 C 53.9062 -24.4629 49.6582 -20.6543 43.7988 -20.6543 C 37.9883 -20.6543 33.6914 -24.4629 33.6914 -30.1758 L 33.6914 -50.8789 C 33.6914 -52.002 33.1055 -52.6855 32.0312 -52.6855 C 31.0059 -52.6855 30.3711 -52.002 30.3711 -50.8789 L 30.3711 -29.9805 C 30.3711 -22.4609 35.9863 -17.6758 43.7988 -17.6758 Z"/>
  </g>
  <g id="Light-S" transform="matrix(1 0 0 1 1108.46 696)">
   <path d="M 21.3867 -0.292969 L 67.9688 -0.292969 C 75.7324 -0.292969 79.5898 -4.15039 79.5898 -11.7676 L 79.5898 -58.5938 C 79.5898 -66.2109 75.7324 -70.1172 67.9688 -70.1172 L 21.3867 -70.1172 C 13.6719 -70.1172 9.76562 -66.2598 9.76562 -58.5938 L 9.76562 -11.7676 C 9.76562 -4.15039 13.6719 -0.292969 21.3867 -0.292969 Z M 21.4844 -5.71289 C 17.4316 -5.71289 15.1855 -7.86133 15.1855 -12.0605 L 15.1855 -58.3008 C 15.1855 -62.5 17.4316 -64.6973 21.4844 -64.6973 L 67.8711 -64.6973 C 71.875 -64.6973 74.1699 -62.5 74.1699 -58.3008 L 74.1699 -12.0605 C 74.1699 -7.86133 71.875 -5.71289 67.8711 -5.71289 Z M 44.6777 -17.3828 C 53.3691 -17.3828 59.2773 -22.4609 59.2773 -30.3711 L 59.2773 -50.2441 C 59.2773 -52.1484 58.252 -53.2715 56.543 -53.2715 C 54.8828 -53.2715 53.8574 -52.1484 53.8574 -50.2441 L 53.8574 -30.8594 C 53.8574 -25.3906 50.1465 -21.9238 44.6777 -21.9238 C 39.209 -21.9238 35.498 -25.3906 35.498 -30.8594 L 35.498 -50.2441 C 35.498 -52.1484 34.5215 -53.2715 32.7637 -53.2715 C 31.1035 -53.2715 30.127 -52.1484 30.127 -50.2441 L 30.127 -30.3711 C 30.127 -22.4609 36.0352 -17.3828 44.6777 -17.3828 Z"/>
  </g>
  <g id="Regular-S" transform="matrix(1 0 0 1 1404.51 696)">
   <path d="M 22.2168 0.390625 L 68.457 0.390625 C 76.8066 0.390625 80.9082 -3.71094 80.9082 -11.9141 L 80.9082 -58.4961 C 80.9082 -66.6992 76.8066 -70.8008 68.457 -70.8008 L 22.2168 -70.8008 C 13.916 -70.8008 9.76562 -66.6992 9.76562 -58.4961 L 9.76562 -11.9141 C 9.76562 -3.71094 13.916 0.390625 22.2168 0.390625 Z M 22.3145 -6.68945 C 18.7988 -6.68945 16.7969 -8.54492 16.7969 -12.2559 L 16.7969 -58.1543 C 16.7969 -61.8164 18.7988 -63.7207 22.3145 -63.7207 L 68.3594 -63.7207 C 71.875 -63.7207 73.877 -61.8164 73.877 -58.1543 L 73.877 -12.2559 C 73.877 -8.54492 71.875 -6.68945 68.3594 -6.68945 Z M 45.3613 -17.1875 C 54.6387 -17.1875 60.791 -22.5098 60.791 -30.6641 L 60.791 -49.8047 C 60.791 -52.2949 59.5215 -53.7109 57.2266 -53.7109 C 55.0781 -53.7109 53.8086 -52.2949 53.8086 -49.8047 L 53.8086 -31.3477 C 53.8086 -26.123 50.5859 -22.9004 45.3613 -22.9004 C 40.1367 -22.9004 36.8652 -26.123 36.8652 -31.3477 L 36.8652 -49.8047 C 36.8652 -52.2949 35.5957 -53.7109 33.3496 -53.7109 C 31.2012 -53.7109 29.9316 -52.2949 29.9316 -49.8047 L 29.9316 -30.6641 C 29.9316 -22.5098 36.0352 -17.1875 45.3613 -17.1875 Z"/>
  </g>
  <g id="Medium-S" transform="matrix(1 0 0 1 1700.63 696)">
   <path d="M 22.8516 0.976562 L 68.9941 0.976562 C 77.6367 0.976562 82.0801 -3.4668 82.0801 -11.9629 L 82.0801 -58.3984 C 82.0801 -66.9434 77.6367 -71.3867 68.9941 -71.3867 L 22.8516 -71.3867 C 14.2578 -71.3867 9.76562 -66.9434 9.76562 -58.3984 L 9.76562 -11.9629 C 9.76562 -3.4668 14.2578 0.976562 22.8516 0.976562 Z M 23.4375 -7.71484 C 20.2148 -7.71484 18.4082 -9.375 18.4082 -12.793 L 18.4082 -57.6172 C 18.4082 -61.0352 20.2148 -62.6953 23.4375 -62.6953 L 68.4082 -62.6953 C 71.6309 -62.6953 73.4375 -61.0352 73.4375 -57.6172 L 73.4375 -12.793 C 73.4375 -9.375 71.6309 -7.71484 68.4082 -7.71484 Z M 45.9473 -17.334 C 55.2246 -17.334 61.4258 -22.6074 61.4258 -30.5664 L 61.4258 -48.8281 C 61.4258 -51.7578 59.9609 -53.4668 57.2754 -53.4668 C 54.6875 -53.4668 53.1738 -51.7578 53.1738 -48.8281 L 53.1738 -31.3477 C 53.1738 -26.9043 50.3418 -24.0723 45.9473 -24.0723 C 41.5039 -24.0723 38.6719 -26.9043 38.6719 -31.3477 L 38.6719 -48.8281 C 38.6719 -51.7578 37.1582 -53.4668 34.5215 -53.4668 C 31.9336 -53.4668 30.4199 -51.7578 30.4199 -48.8281 L 30.4199 -30.5664 C 30.4199 -22.6074 36.6211 -17.334 45.9473 -17.334 Z"/>
  </g>
  <g id="Semibold-S" transform="matrix(1 0 0 1 1996.9 696)">
   <path d="M 23.3398 1.41602 L 69.3848 1.41602 C 78.2227 1.41602 82.959 -3.32031 82.959 -12.0605 L 82.959 -58.3496 C 82.959 -67.0898 78.2227 -71.8262 69.3848 -71.8262 L 23.3398 -71.8262 C 14.5508 -71.8262 9.76562 -67.0898 9.76562 -58.3496 L 9.76562 -12.0605 C 9.76562 -3.32031 14.5508 1.41602 23.3398 1.41602 Z M 24.3164 -8.49609 C 21.2891 -8.49609 19.6777 -10.0098 19.6777 -13.1836 L 19.6777 -57.2266 C 19.6777 -60.4004 21.2891 -61.9141 24.3164 -61.9141 L 68.457 -61.9141 C 71.4355 -61.9141 73.0469 -60.4004 73.0469 -57.2266 L 73.0469 -13.1836 C 73.0469 -10.0098 71.4355 -8.49609 68.457 -8.49609 Z M 46.3867 -17.4316 C 55.6641 -17.4316 61.9629 -22.6562 61.9629 -30.4688 L 61.9629 -48.0957 C 61.9629 -51.3672 60.3027 -53.2227 57.2754 -53.2227 C 54.3457 -53.2227 52.6855 -51.3672 52.6855 -48.0957 L 52.6855 -31.3477 C 52.6855 -27.4902 50.1953 -25 46.3867 -25 C 42.5293 -25 40.0391 -27.4902 40.0391 -31.3477 L 40.0391 -48.0957 C 40.0391 -51.3672 38.3789 -53.2227 35.4004 -53.2227 C 32.4707 -53.2227 30.7617 -51.3672 30.7617 -48.0957 L 30.7617 -30.4688 C 30.7617 -22.6562 37.0605 -17.4316 46.3867 -17.4316 Z"/>
  </g>
  <g id="Bold-S" transform="matrix(1 0 0 1 2293.01 696)">
   <path d="M 23.9746 2.00195 L 69.9219 2.00195 C 79.0527 2.00195 84.1797 -3.07617 84.1797 -12.1582 L 84.1797 -58.252 C 84.1797 -67.334 79.0527 -72.4121 69.9219 -72.4121 L 23.9746 -72.4121 C 14.8926 -72.4121 9.76562 -67.334 9.76562 -58.252 L 9.76562 -12.1582 C 9.76562 -3.07617 14.8926 2.00195 23.9746 2.00195 Z M 25.4395 -9.57031 C 22.7051 -9.57031 21.3379 -10.791 21.3379 -13.7207 L 21.3379 -56.6895 C 21.3379 -59.5703 22.7051 -60.8398 25.4395 -60.8398 L 68.457 -60.8398 C 71.1914 -60.8398 72.6074 -59.5703 72.6074 -56.6895 L 72.6074 -13.7207 C 72.6074 -10.791 71.1914 -9.57031 68.457 -9.57031 Z M 46.9727 -17.5781 C 56.25 -17.5781 62.6465 -22.7051 62.6465 -30.3223 L 62.6465 -47.168 C 62.6465 -50.8789 60.7422 -52.9785 57.3242 -52.9785 C 53.9551 -52.9785 52.0508 -50.8301 52.0508 -47.168 L 52.0508 -31.3477 C 52.0508 -28.2715 50 -26.2207 46.9727 -26.2207 C 43.8965 -26.2207 41.8945 -28.2715 41.8945 -31.3477 L 41.8945 -47.168 C 41.8945 -50.8301 39.9902 -52.9785 36.5723 -52.9785 C 33.2031 -52.9785 31.25 -50.8789 31.25 -47.168 L 31.25 -30.3223 C 31.25 -22.7051 37.6465 -17.5781 46.9727 -17.5781 Z"/>
  </g>
  <g id="Heavy-S" transform="matrix(1 0 0 1 2588.86 696)">
   <path d="M 24.9023 2.83203 L 70.7031 2.83203 C 80.2246 2.83203 85.8887 -2.7832 85.8887 -12.3047 L 85.8887 -58.1055 C 85.8887 -67.627 80.2246 -73.2422 70.7031 -73.2422 L 24.9023 -73.2422 C 15.3809 -73.2422 9.76562 -67.627 9.76562 -58.1055 L 9.76562 -12.3047 C 9.76562 -2.7832 15.3809 2.83203 24.9023 2.83203 Z M 27.0996 -11.084 C 24.8047 -11.084 23.6816 -12.0117 23.6816 -14.502 L 23.6816 -55.9082 C 23.6816 -58.3984 24.8047 -59.3262 27.0996 -59.3262 L 68.5547 -59.3262 C 70.8496 -59.3262 71.9238 -58.3984 71.9238 -55.9082 L 71.9238 -14.502 C 71.9238 -12.0117 70.8496 -11.084 68.5547 -11.084 Z M 47.8027 -17.7734 C 57.1289 -17.7734 63.623 -22.8516 63.623 -30.1758 L 63.623 -45.752 C 63.623 -50.1465 61.377 -52.5391 57.3242 -52.5391 C 53.3691 -52.5391 51.0742 -50.0977 51.0742 -45.752 L 51.0742 -31.3965 C 51.0742 -29.4434 49.707 -27.9785 47.8027 -27.9785 C 45.8984 -27.9785 44.5312 -29.4434 44.5312 -31.3965 L 44.5312 -45.752 C 44.5312 -50.0977 42.2852 -52.5391 38.2812 -52.5391 C 34.2285 -52.5391 31.9824 -50.1465 31.9824 -45.752 L 31.9824 -30.1758 C 31.9824 -22.8516 38.5254 -17.7734 47.8027 -17.7734 Z"/>
  </g>
  <g id="Black-S" transform="matrix(1 0 0 1 2884.82 696)">
   <path d="M 25.7324 3.61328 L 71.4355 3.61328 C 81.2988 3.61328 87.4023 -2.49023 87.4023 -12.4023 L 87.4023 -58.0078 C 87.4023 -67.9199 81.2988 -74.0234 71.4355 -74.0234 L 25.7324 -74.0234 C 15.8203 -74.0234 9.76562 -67.9199 9.76562 -58.0078 L 9.76562 -12.4023 C 9.76562 -2.49023 15.8203 3.61328 25.7324 3.61328 Z M 28.5645 -12.4512 C 26.6602 -12.4512 25.8301 -13.0371 25.8301 -15.1855 L 25.8301 -55.2246 C 25.8301 -57.373 26.6602 -57.959 28.5645 -57.959 L 68.6035 -57.959 C 70.5078 -57.959 71.3379 -57.373 71.3379 -55.2246 L 71.3379 -15.1855 C 71.3379 -13.0371 70.5078 -12.4512 68.6035 -12.4512 Z M 48.584 -17.9688 C 57.8613 -17.9688 64.5508 -22.9492 64.5508 -30.0293 L 64.5508 -44.5312 C 64.5508 -49.5117 61.9629 -52.1973 57.373 -52.1973 C 52.832 -52.1973 50.2441 -49.4141 50.2441 -44.5312 L 50.2441 -31.3965 C 50.2441 -30.4688 49.4629 -29.541 48.584 -29.541 C 47.7051 -29.541 46.9238 -30.4688 46.9238 -31.3965 L 46.9238 -44.5312 C 46.9238 -49.4141 44.3359 -52.1973 39.7949 -52.1973 C 35.2051 -52.1973 32.6172 -49.5117 32.6172 -44.5312 L 32.6172 -30.0293 C 32.6172 -22.9492 39.2578 -17.9688 48.584 -17.9688 Z"/>
  </g>
  <g id="Ultralight-M" transform="matrix(1 0 0 1 504.535 1126)">
   <path d="M 25 7.56836 L 85.3516 7.56836 C 93.5547 7.56836 97.9004 3.125 97.9004 -4.98047 L 97.9004 -65.2832 C 97.9004 -73.3887 93.5547 -77.832 85.3516 -77.832 L 25 -77.832 C 16.7969 -77.832 12.4512 -73.4863 12.4512 -65.2832 L 12.4512 -4.98047 C 12.4512 3.22266 16.7969 7.56836 25 7.56836 Z M 25.1465 5.17578 C 18.3594 5.17578 14.8438 1.66016 14.8438 -5.07812 L 14.8438 -65.1855 C 14.8438 -71.9727 18.3594 -75.4395 25.1465 -75.4395 L 85.2051 -75.4395 C 91.748 -75.4395 95.5078 -71.9727 95.5078 -65.1855 L 95.5078 -5.07812 C 95.5078 1.66016 91.748 5.17578 85.2051 5.17578 Z M 55.1758 -13.0859 C 64.4043 -13.0859 71.3867 -18.8477 71.3867 -28.2227 L 71.3867 -55.7129 C 71.3867 -56.4941 70.8984 -56.9824 70.1172 -56.9824 C 69.4336 -56.9824 68.8477 -56.4941 68.8477 -55.7129 L 68.8477 -28.1738 C 68.8477 -20.6543 62.9395 -15.5273 55.1758 -15.5273 C 47.4121 -15.5273 41.5039 -20.6543 41.5039 -28.1738 L 41.5039 -55.7129 C 41.5039 -56.4941 41.0156 -56.9824 40.2344 -56.9824 C 39.502 -56.9824 38.9648 -56.4941 38.9648 -55.7129 L 38.9648 -28.2227 C 38.9648 -18.8477 45.9473 -13.0859 55.1758 -13.0859 Z"/>
  </g>
  <g id="Thin-M" transform="matrix(1 0 0 1 800.734 1126)">
   <path d="M 25.6348 8.05664 L 85.7422 8.05664 C 94.3848 8.05664 98.9258 3.4668 98.9258 -5.0293 L 98.9258 -65.2344 C 98.9258 -73.7305 94.3848 -78.3691 85.7422 -78.3691 L 25.6348 -78.3691 C 16.9922 -78.3691 12.4512 -73.877 12.4512 -65.2344 L 12.4512 -5.0293 C 12.4512 3.56445 16.9922 8.05664 25.6348 8.05664 Z M 25.7324 4.44336 C 19.4336 4.44336 16.1133 1.12305 16.1133 -5.22461 L 16.1133 -65.0391 C 16.1133 -71.4355 19.4336 -74.7559 25.7324 -74.7559 L 85.5957 -74.7559 C 91.748 -74.7559 95.2637 -71.4355 95.2637 -65.0391 L 95.2637 -5.22461 C 95.2637 1.12305 91.748 4.44336 85.5957 4.44336 Z M 55.6641 -12.9395 C 65.4297 -12.9395 72.5586 -18.8965 72.5586 -28.418 L 72.5586 -55.3711 C 72.5586 -56.5918 71.875 -57.3242 70.7031 -57.3242 C 69.5801 -57.3242 68.8477 -56.5918 68.8477 -55.3711 L 68.8477 -28.5645 C 68.8477 -21.1914 63.2324 -16.2598 55.6641 -16.2598 C 48.1445 -16.2598 42.5293 -21.1914 42.5293 -28.5645 L 42.5293 -55.3711 C 42.5293 -56.5918 41.8457 -57.3242 40.6738 -57.3242 C 39.5508 -57.3242 38.8184 -56.5918 38.8184 -55.3711 L 38.8184 -28.418 C 38.8184 -18.8965 45.9473 -12.9395 55.6641 -12.9395 Z"/>
  </g>
  <g id="Light-M" transform="matrix(1 0 0 1 1096.47 1126)">
   <path d="M 26.8555 9.0332 L 86.4746 9.0332 C 96.0449 9.0332 100.879 4.15039 100.879 -5.22461 L 100.879 -65.0879 C 100.879 -74.5117 96.0449 -79.3945 86.4746 -79.3945 L 26.8555 -79.3945 C 17.334 -79.3945 12.4512 -74.5605 12.4512 -65.0879 L 12.4512 -5.22461 C 12.4512 4.19922 17.334 9.0332 26.8555 9.0332 Z M 27.002 2.97852 C 21.4844 2.97852 18.5059 0.0976562 18.5059 -5.56641 L 18.5059 -64.7949 C 18.5059 -70.4102 21.4844 -73.3398 27.002 -73.3398 L 86.377 -73.3398 C 91.748 -73.3398 94.8242 -70.4102 94.8242 -64.7949 L 94.8242 -5.56641 C 94.8242 0.0976562 91.748 2.97852 86.377 2.97852 Z M 56.6895 -12.5977 C 67.3828 -12.5977 74.8047 -18.9453 74.8047 -28.8574 L 74.8047 -54.6875 C 74.8047 -56.7871 73.6816 -58.0078 71.7773 -58.0078 C 69.9219 -58.0078 68.75 -56.7871 68.75 -54.6875 L 68.75 -29.3457 C 68.75 -22.2656 63.8184 -17.6758 56.6895 -17.6758 C 49.5117 -17.6758 44.5801 -22.2656 44.5801 -29.3457 L 44.5801 -54.6875 C 44.5801 -56.7871 43.457 -58.0078 41.5039 -58.0078 C 39.6973 -58.0078 38.5254 -56.7871 38.5254 -54.6875 L 38.5254 -28.8574 C 38.5254 -18.9453 45.9473 -12.5977 56.6895 -12.5977 Z"/>
  </g>
  <g id="Regular-M" transform="matrix(1 0 0 1 1392.42 1126)">
   <path d="M 27.7832 9.76562 L 87.0605 9.76562 C 97.2656 9.76562 102.344 4.6875 102.344 -5.37109 L 102.344 -64.9902 C 102.344 -75.0488 97.2656 -80.127 87.0605 -80.127 L 27.7832 -80.127 C 17.627 -80.127 12.4512 -75.0977 12.4512 -64.9902 L 12.4512 -5.37109 C 12.4512 4.73633 17.627 9.76562 27.7832 9.76562 Z M 27.9297 1.9043 C 23.0469 1.9043 20.3125 -0.683594 20.3125 -5.76172 L 20.3125 -64.5996 C 20.3125 -69.6777 23.0469 -72.2656 27.9297 -72.2656 L 86.9141 -72.2656 C 91.748 -72.2656 94.4824 -69.6777 94.4824 -64.5996 L 94.4824 -5.76172 C 94.4824 -0.683594 91.748 1.9043 86.9141 1.9043 Z M 57.4219 -12.3535 C 68.8477 -12.3535 76.5137 -18.9453 76.5137 -29.1992 L 76.5137 -54.1504 C 76.5137 -56.8848 75.0977 -58.5449 72.5586 -58.5449 C 70.166 -58.5449 68.7012 -56.8848 68.7012 -54.1504 L 68.7012 -29.9316 C 68.7012 -23.0957 64.2578 -18.7988 57.4219 -18.7988 C 50.5859 -18.7988 46.0938 -23.0957 46.0938 -29.9316 L 46.0938 -54.1504 C 46.0938 -56.8848 44.6777 -58.5449 42.1875 -58.5449 C 39.7461 -58.5449 38.3301 -56.8848 38.3301 -54.1504 L 38.3301 -29.1992 C 38.3301 -18.9453 45.9961 -12.3535 57.4219 -12.3535 Z"/>
  </g>
  <g id="Medium-M" transform="matrix(1 0 0 1 1688.45 1126)">
   <path d="M 28.5645 10.4492 L 87.6465 10.4492 C 98.2422 10.4492 103.711 4.98047 103.711 -5.46875 L 103.711 -64.8926 C 103.711 -75.3418 98.2422 -80.8105 87.6465 -80.8105 L 28.5645 -80.8105 C 17.9688 -80.8105 12.4512 -75.3906 12.4512 -64.8926 L 12.4512 -5.46875 C 12.4512 4.98047 17.9688 10.4492 28.5645 10.4492 Z M 29.1504 0.732422 C 24.6582 0.732422 22.2168 -1.61133 22.2168 -6.34766 L 22.2168 -64.0137 C 22.2168 -68.75 24.6582 -71.0938 29.1504 -71.0938 L 87.0117 -71.0938 C 91.5039 -71.0938 93.9941 -68.75 93.9941 -64.0137 L 93.9941 -6.34766 C 93.9941 -1.61133 91.5039 0.732422 87.0117 0.732422 Z M 58.1055 -12.4512 C 69.6289 -12.4512 77.3926 -19.043 77.3926 -29.1016 L 77.3926 -53.125 C 77.3926 -56.3965 75.6836 -58.3008 72.7051 -58.3008 C 69.7754 -58.3008 68.0664 -56.3965 68.0664 -53.125 L 68.0664 -29.9805 C 68.0664 -24.0234 64.1113 -20.166 58.1055 -20.166 C 52.0996 -20.166 48.1445 -24.0234 48.1445 -29.9805 L 48.1445 -53.125 C 48.1445 -56.3965 46.4355 -58.3008 43.4082 -58.3008 C 40.5273 -58.3008 38.7695 -56.3965 38.7695 -53.125 L 38.7695 -29.1016 C 38.7695 -19.043 46.582 -12.4512 58.1055 -12.4512 Z"/>
  </g>
  <g id="Semibold-M" transform="matrix(1 0 0 1 1984.65 1126)">
   <path d="M 29.1016 10.9863 L 88.1348 10.9863 C 98.9746 10.9863 104.785 5.17578 104.785 -5.56641 L 104.785 -64.8438 C 104.785 -75.5859 98.9746 -81.3477 88.1348 -81.3477 L 29.1016 -81.3477 C 18.3105 -81.3477 12.4512 -75.5859 12.4512 -64.8438 L 12.4512 -5.56641 C 12.4512 5.22461 18.3105 10.9863 29.1016 10.9863 Z M 30.127 -0.195312 C 25.9277 -0.195312 23.6328 -2.34375 23.6328 -6.78711 L 23.6328 -63.623 C 23.6328 -68.0664 25.9277 -70.166 30.127 -70.166 L 87.1094 -70.166 C 91.3086 -70.166 93.6035 -68.0664 93.6035 -63.623 L 93.6035 -6.78711 C 93.6035 -2.34375 91.3086 -0.195312 87.1094 -0.195312 Z M 58.6426 -12.5488 C 70.2148 -12.5488 78.0762 -19.1406 78.0762 -29.0527 L 78.0762 -52.2949 C 78.0762 -56.0059 76.1719 -58.1543 72.8027 -58.1543 C 69.4824 -58.1543 67.5293 -56.0059 67.5293 -52.2949 L 67.5293 -30.0781 C 67.5293 -24.707 64.0137 -21.1914 58.6426 -21.1914 C 53.2715 -21.1914 49.707 -24.707 49.707 -30.0781 L 49.707 -52.2949 C 49.707 -56.0059 47.8027 -58.1543 44.3848 -58.1543 C 41.0645 -58.1543 39.1602 -56.0059 39.1602 -52.2949 L 39.1602 -29.0527 C 39.1602 -19.1406 47.0215 -12.5488 58.6426 -12.5488 Z"/>
  </g>
  <g id="Bold-M" transform="matrix(1 0 0 1 2280.65 1126)">
   <path d="M 29.8828 11.6699 L 88.7207 11.6699 C 100 11.6699 106.152 5.46875 106.152 -5.66406 L 106.152 -64.6973 C 106.152 -75.8789 100 -82.0312 88.7207 -82.0312 L 29.8828 -82.0312 C 18.6523 -82.0312 12.4512 -75.8789 12.4512 -64.6973 L 12.4512 -5.66406 C 12.4512 5.51758 18.6523 11.6699 29.8828 11.6699 Z M 31.3965 -1.41602 C 27.5879 -1.41602 25.5371 -3.27148 25.5371 -7.32422 L 25.5371 -63.0371 C 25.5371 -67.1387 27.5879 -68.9453 31.3965 -68.9453 L 87.207 -68.9453 C 91.0156 -68.9453 93.1152 -67.1387 93.1152 -63.0371 L 93.1152 -7.32422 C 93.1152 -3.27148 91.0156 -1.41602 87.207 -1.41602 Z M 59.3262 -12.6465 C 70.9961 -12.6465 79.0039 -19.1895 79.0039 -28.9551 L 79.0039 -51.2695 C 79.0039 -55.5176 76.8066 -57.9102 72.9004 -57.9102 C 69.0918 -57.9102 66.8945 -55.4688 66.8945 -51.2695 L 66.8945 -30.127 C 66.8945 -25.5859 63.8184 -22.5586 59.3262 -22.5586 C 54.7852 -22.5586 51.7578 -25.5859 51.7578 -30.127 L 51.7578 -51.2695 C 51.7578 -55.4688 49.5605 -57.9102 45.7031 -57.9102 C 41.8457 -57.9102 39.6484 -55.5176 39.6484 -51.2695 L 39.6484 -28.9551 C 39.6484 -19.1895 47.6562 -12.6465 59.3262 -12.6465 Z"/>
  </g>
  <g id="Heavy-M" transform="matrix(1 0 0 1 2576.36 1126)">
   <path d="M 31.0059 12.6465 L 89.6484 12.6465 C 101.416 12.6465 108.154 5.9082 108.154 -5.81055 L 108.154 -64.5508 C 108.154 -76.2695 101.416 -83.0566 89.6484 -83.0566 L 31.0059 -83.0566 C 19.2383 -83.0566 12.4512 -76.3184 12.4512 -64.5508 L 12.4512 -5.81055 C 12.4512 5.9082 19.2383 12.6465 31.0059 12.6465 Z M 33.252 -3.17383 C 29.9805 -3.17383 28.2715 -4.63867 28.2715 -8.1543 L 28.2715 -62.207 C 28.2715 -65.7715 29.9805 -67.2363 33.252 -67.2363 L 87.3535 -67.2363 C 90.6738 -67.2363 92.334 -65.7715 92.334 -62.207 L 92.334 -8.1543 C 92.334 -4.63867 90.6738 -3.17383 87.3535 -3.17383 Z M 60.3027 -12.8418 C 72.1191 -12.8418 80.3223 -19.3359 80.3223 -28.8574 L 80.3223 -49.7559 C 80.3223 -54.7852 77.7344 -57.5684 73.0957 -57.5684 C 68.5059 -57.5684 65.918 -54.7363 65.918 -49.7559 L 65.918 -30.2246 C 65.918 -26.9043 63.623 -24.5605 60.3027 -24.5605 C 57.0312 -24.5605 54.7363 -26.9043 54.7363 -30.2246 L 54.7363 -49.7559 C 54.7363 -54.7363 52.1484 -57.5684 47.5586 -57.5684 C 42.9199 -57.5684 40.332 -54.7852 40.332 -49.7559 L 40.332 -28.8574 C 40.332 -19.3359 48.5352 -12.8418 60.3027 -12.8418 Z"/>
  </g>
  <g id="Black-M" transform="matrix(1 0 0 1 2872.19 1126)">
   <path d="M 31.9824 13.5742 L 90.4297 13.5742 C 102.686 13.5742 109.961 6.29883 109.961 -5.95703 L 109.961 -64.4043 C 109.961 -76.6602 102.686 -83.9355 90.4297 -83.9355 L 31.9824 -83.9355 C 19.7266 -83.9355 12.4512 -76.6602 12.4512 -64.4043 L 12.4512 -5.95703 C 12.4512 6.29883 19.7266 13.5742 31.9824 13.5742 Z M 34.9121 -4.73633 C 32.0801 -4.73633 30.7617 -5.81055 30.7617 -8.88672 L 30.7617 -61.4746 C 30.7617 -64.5508 32.0801 -65.6738 34.9121 -65.6738 L 87.5 -65.6738 C 90.332 -65.6738 91.6992 -64.5508 91.6992 -61.4746 L 91.6992 -8.88672 C 91.6992 -5.81055 90.332 -4.73633 87.5 -4.73633 Z M 61.2305 -12.9883 C 73.0957 -12.9883 81.4941 -19.4336 81.4941 -28.7598 L 81.4941 -48.3887 C 81.4941 -54.1504 78.5156 -57.2754 73.2422 -57.2754 C 68.0176 -57.2754 65.0391 -54.0527 65.0391 -48.3887 L 65.0391 -30.3223 C 65.0391 -28.0762 63.4277 -26.3184 61.2305 -26.3184 C 59.0332 -26.3184 57.373 -28.0762 57.373 -30.3223 L 57.373 -48.3887 C 57.373 -54.0527 54.4434 -57.2754 49.2188 -57.2754 C 43.8965 -57.2754 40.9668 -54.1504 40.9668 -48.3887 L 40.9668 -28.7598 C 40.9668 -19.4336 49.3164 -12.9883 61.2305 -12.9883 Z"/>
  </g>
  <g id="Ultralight-L" transform="matrix(1 0 0 1 488.739 1556)">
   <path d="M 31.9824 19.7754 L 109.961 19.7754 C 120.361 19.7754 125.879 14.0625 125.879 3.85742 L 125.879 -74.0723 C 125.879 -84.2773 120.361 -89.9902 109.961 -89.9902 L 31.9824 -89.9902 C 21.6309 -89.9902 16.0645 -84.4727 16.0645 -74.0723 L 16.0645 3.85742 C 16.0645 14.2578 21.6309 19.7754 31.9824 19.7754 Z M 32.1289 17.2363 C 23.2422 17.2363 18.6523 12.6465 18.6523 3.75977 L 18.6523 -73.9258 C 18.6523 -82.8125 23.2422 -87.4512 32.1289 -87.4512 L 109.814 -87.4512 C 118.359 -87.4512 123.34 -82.8125 123.34 -73.9258 L 123.34 3.75977 C 123.34 12.6465 118.359 17.2363 109.814 17.2363 Z M 70.9961 -6.73828 C 82.7148 -6.73828 91.6016 -14.1113 91.6016 -26.0742 L 91.6016 -61.8652 C 91.6016 -62.6465 91.1133 -63.1348 90.2344 -63.1348 C 89.502 -63.1348 88.8672 -62.6465 88.8672 -61.8652 L 88.8672 -25.9766 C 88.8672 -16.1621 81.0547 -9.47266 70.9961 -9.47266 C 60.8887 -9.47266 53.0762 -16.1621 53.0762 -25.9766 L 53.0762 -61.8652 C 53.0762 -62.6465 52.5391 -63.1348 51.709 -63.1348 C 50.9766 -63.1348 50.3418 -62.6465 50.3418 -61.8652 L 50.3418 -26.0742 C 50.3418 -14.1113 59.2773 -6.73828 70.9961 -6.73828 Z"/>
  </g>
  <g id="Thin-L" transform="matrix(1 0 0 1 784.889 1556)">
   <path d="M 32.7148 20.3613 L 110.4 20.3613 C 121.289 20.3613 127.002 14.4531 127.002 3.75977 L 127.002 -73.9746 C 127.002 -84.7168 121.289 -90.5762 110.4 -90.5762 L 32.7148 -90.5762 C 21.8262 -90.5762 16.0645 -84.8633 16.0645 -73.9746 L 16.0645 3.75977 C 16.0645 14.6484 21.8262 20.3613 32.7148 20.3613 Z M 32.8613 16.4062 C 24.4141 16.4062 20.0195 12.0117 20.0195 3.56445 L 20.0195 -73.7793 C 20.0195 -82.2754 24.4141 -86.6699 32.8613 -86.6699 L 110.254 -86.6699 C 118.359 -86.6699 123.096 -82.2754 123.096 -73.7793 L 123.096 3.56445 C 123.096 12.0117 118.359 16.4062 110.254 16.4062 Z M 71.5332 -6.54297 C 83.7891 -6.54297 92.9199 -14.1113 92.9199 -26.3184 L 92.9199 -61.4258 C 92.9199 -62.7441 92.1387 -63.5254 90.8691 -63.5254 C 89.6973 -63.5254 88.8672 -62.7441 88.8672 -61.4258 L 88.8672 -26.416 C 88.8672 -16.7969 81.3965 -10.3027 71.5332 -10.3027 C 61.6699 -10.3027 54.248 -16.7969 54.248 -26.416 L 54.248 -61.4258 C 54.248 -62.7441 53.4668 -63.5254 52.1973 -63.5254 C 51.0254 -63.5254 50.1953 -62.7441 50.1953 -61.4258 L 50.1953 -26.3184 C 50.1953 -14.1113 59.2773 -6.54297 71.5332 -6.54297 Z"/>
  </g>
  <g id="Light-L" transform="matrix(1 0 0 1 1080.5 1556)">
   <path d="M 34.082 21.4355 L 111.23 21.4355 C 123.096 21.4355 129.199 15.2344 129.199 3.56445 L 129.199 -73.8281 C 129.199 -85.5469 123.096 -91.6992 111.23 -91.6992 L 34.082 -91.6992 C 22.2168 -91.6992 16.0645 -85.6445 16.0645 -73.8281 L 16.0645 3.56445 C 16.0645 15.3809 22.2168 21.4355 34.082 21.4355 Z M 34.2285 14.7949 C 26.709 14.7949 22.7051 10.8398 22.7051 3.22266 L 22.7051 -73.4863 C 22.7051 -81.1523 26.709 -85.0586 34.2285 -85.0586 L 111.084 -85.0586 C 118.359 -85.0586 122.607 -81.1523 122.607 -73.4863 L 122.607 3.22266 C 122.607 10.8398 118.359 14.7949 111.084 14.7949 Z M 72.6562 -6.15234 C 85.9863 -6.15234 95.4102 -14.1602 95.4102 -26.8066 L 95.4102 -60.6445 C 95.4102 -62.9395 94.1895 -64.3066 92.0898 -64.3066 C 90.0391 -64.3066 88.7695 -62.9395 88.7695 -60.6445 L 88.7695 -27.2461 C 88.7695 -18.0176 82.0801 -11.9141 72.6562 -11.9141 C 63.2324 -11.9141 56.4941 -18.0176 56.4941 -27.2461 L 56.4941 -60.6445 C 56.4941 -62.9395 55.2734 -64.3066 53.1738 -64.3066 C 51.123 -64.3066 49.8535 -62.9395 49.8535 -60.6445 L 49.8535 -26.8066 C 49.8535 -14.1602 59.2773 -6.15234 72.6562 -6.15234 Z"/>
  </g>
  <g id="Regular-L" transform="matrix(1 0 0 1 1376.36 1556)">
   <path d="M 35.1074 22.2168 L 111.865 22.2168 C 124.512 22.2168 130.859 15.8691 130.859 3.41797 L 130.859 -73.7305 C 130.859 -86.1816 124.512 -92.5293 111.865 -92.5293 L 35.1074 -92.5293 C 22.5098 -92.5293 16.0645 -86.2305 16.0645 -73.7305 L 16.0645 3.41797 C 16.0645 15.918 22.5098 22.2168 35.1074 22.2168 Z M 35.2539 13.5742 C 28.4668 13.5742 24.7559 9.96094 24.7559 2.97852 L 24.7559 -73.291 C 24.7559 -80.2734 28.4668 -83.8867 35.2539 -83.8867 L 111.67 -83.8867 C 118.359 -83.8867 122.217 -80.2734 122.217 -73.291 L 122.217 2.97852 C 122.217 9.96094 118.359 13.5742 111.67 13.5742 Z M 73.4863 -5.9082 C 87.6465 -5.9082 97.3145 -14.209 97.3145 -27.1484 L 97.3145 -60.0586 C 97.3145 -63.0859 95.752 -64.8438 92.9688 -64.8438 C 90.332 -64.8438 88.7207 -63.0859 88.7207 -60.0586 L 88.7207 -27.9297 C 88.7207 -18.9453 82.5684 -13.1348 73.4863 -13.1348 C 64.4043 -13.1348 58.252 -18.9453 58.252 -27.9297 L 58.252 -60.0586 C 58.252 -63.0859 56.6406 -64.8438 53.8574 -64.8438 C 51.2207 -64.8438 49.6094 -63.0859 49.6094 -60.0586 L 49.6094 -27.1484 C 49.6094 -14.209 59.3262 -5.9082 73.4863 -5.9082 Z"/>
  </g>
  <g id="Medium-L" transform="matrix(1 0 0 1 1672.31 1556)">
   <path d="M 35.9863 22.998 L 112.549 22.998 C 125.635 22.998 132.422 16.2109 132.422 3.27148 L 132.422 -73.6328 C 132.422 -86.5234 125.635 -93.3105 112.549 -93.3105 L 35.9863 -93.3105 C 22.9004 -93.3105 16.0645 -86.5723 16.0645 -73.6328 L 16.0645 3.27148 C 16.0645 16.2598 22.9004 22.998 35.9863 22.998 Z M 36.6211 12.2559 C 30.2734 12.2559 26.8066 8.98438 26.8066 2.39258 L 26.8066 -72.7051 C 26.8066 -79.2969 30.2734 -82.6172 36.6211 -82.6172 L 111.914 -82.6172 C 118.164 -82.6172 121.68 -79.2969 121.68 -72.7051 L 121.68 2.39258 C 121.68 8.98438 118.164 12.2559 111.914 12.2559 Z M 74.2676 -5.95703 C 88.623 -5.95703 98.4863 -14.3066 98.4863 -27.1484 L 98.4863 -59.0332 C 98.4863 -62.6465 96.582 -64.7461 93.2617 -64.7461 C 90.0391 -64.7461 88.0859 -62.6465 88.0859 -59.0332 L 88.0859 -28.0762 C 88.0859 -19.9219 82.5195 -14.5996 74.2676 -14.5996 C 66.0156 -14.5996 60.4004 -19.9219 60.4004 -28.0762 L 60.4004 -59.0332 C 60.4004 -62.6465 58.4961 -64.7461 55.1758 -64.7461 C 51.9531 -64.7461 50 -62.6465 50 -59.0332 L 50 -27.1484 C 50 -14.3066 59.8633 -5.95703 74.2676 -5.95703 Z"/>
  </g>
  <g id="Semibold-L" transform="matrix(1 0 0 1 1968.41 1556)">
   <path d="M 36.6699 23.584 L 113.037 23.584 C 126.514 23.584 133.594 16.5039 133.594 3.17383 L 133.594 -73.5352 C 133.594 -86.8164 126.514 -93.9453 113.037 -93.9453 L 36.6699 -93.9453 C 23.2422 -93.9453 16.0645 -86.8652 16.0645 -73.5352 L 16.0645 3.17383 C 16.0645 16.5527 23.2422 23.584 36.6699 23.584 Z M 37.6465 11.2793 C 31.6406 11.2793 28.418 8.20312 28.418 1.95312 L 28.418 -72.3145 C 28.418 -78.5156 31.6406 -81.5918 37.6465 -81.5918 L 112.061 -81.5918 C 117.969 -81.5918 121.289 -78.5156 121.289 -72.3145 L 121.289 1.95312 C 121.289 8.20312 117.969 11.2793 112.061 11.2793 Z M 74.8535 -6.00586 C 89.4043 -6.00586 99.3652 -14.3555 99.3652 -27.1484 L 99.3652 -58.2031 C 99.3652 -62.3535 97.2656 -64.6973 93.457 -64.6973 C 89.7949 -64.6973 87.6465 -62.3047 87.6465 -58.2031 L 87.6465 -28.2227 C 87.6465 -20.6543 82.4707 -15.7227 74.8535 -15.7227 C 67.2363 -15.7227 62.0605 -20.6543 62.0605 -28.2227 L 62.0605 -58.2031 C 62.0605 -62.3047 59.9121 -64.6973 56.1523 -64.6973 C 52.4902 -64.6973 50.293 -62.3535 50.293 -58.2031 L 50.293 -27.1484 C 50.293 -14.3555 60.3027 -6.00586 74.8535 -6.00586 Z"/>
  </g>
  <g id="Bold-L" transform="matrix(1 0 0 1 2264.34 1556)">
   <path d="M 37.5488 24.3652 L 113.721 24.3652 C 127.686 24.3652 135.205 16.8945 135.205 3.07617 L 135.205 -73.3887 C 135.205 -87.207 127.686 -94.7266 113.721 -94.7266 L 37.5488 -94.7266 C 23.6328 -94.7266 16.0645 -87.2559 16.0645 -73.3887 L 16.0645 3.07617 C 16.0645 16.8945 23.6328 24.3652 37.5488 24.3652 Z M 38.9648 9.91211 C 33.4473 9.91211 30.5176 7.17773 30.5176 1.41602 L 30.5176 -71.7285 C 30.5176 -77.5391 33.4473 -80.2734 38.9648 -80.2734 L 112.256 -80.2734 C 117.725 -80.2734 120.752 -77.5391 120.752 -71.7285 L 120.752 1.41602 C 120.752 7.17773 117.725 9.91211 112.256 9.91211 Z M 75.6348 -6.05469 C 90.4297 -6.05469 100.586 -14.4531 100.586 -27.1484 L 100.586 -57.1289 C 100.586 -61.9141 98.0957 -64.5996 93.75 -64.5996 C 89.502 -64.5996 87.0117 -61.8652 87.0117 -57.1289 L 87.0117 -28.418 C 87.0117 -21.6309 82.4219 -17.1875 75.6348 -17.1875 C 68.8477 -17.1875 64.2578 -21.6309 64.2578 -28.418 L 64.2578 -57.1289 C 64.2578 -61.8652 61.8164 -64.5996 57.4707 -64.5996 C 53.1738 -64.5996 50.6836 -61.9141 50.6836 -57.1289 L 50.6836 -27.1484 C 50.6836 -14.4531 60.8398 -6.05469 75.6348 -6.05469 Z"/>
  </g>
  <g id="Heavy-L" transform="matrix(1 0 0 1 2559.91 1556)">
   <path d="M 38.8184 25.4883 L 114.697 25.4883 C 129.346 25.4883 137.451 17.4316 137.451 2.88086 L 137.451 -73.2422 C 137.451 -87.793 129.346 -95.8496 114.697 -95.8496 L 38.8184 -95.8496 C 24.2188 -95.8496 16.0645 -87.793 16.0645 -73.2422 L 16.0645 2.88086 C 16.0645 17.4316 24.2188 25.4883 38.8184 25.4883 Z M 40.9668 8.00781 C 36.1328 8.00781 33.5938 5.71289 33.5938 0.585938 L 33.5938 -70.9473 C 33.5938 -76.0742 36.1328 -78.3691 40.9668 -78.3691 L 112.598 -78.3691 C 117.383 -78.3691 119.971 -76.0742 119.971 -70.9473 L 119.971 0.585938 C 119.971 5.71289 117.383 8.00781 112.598 8.00781 Z M 76.7578 -6.10352 C 91.8945 -6.10352 102.246 -14.5996 102.246 -27.1484 L 102.246 -55.6152 C 102.246 -61.2793 99.3652 -64.4531 94.1406 -64.4531 C 89.0137 -64.4531 86.084 -61.2305 86.084 -55.6152 L 86.084 -28.7109 C 86.084 -23.0957 82.373 -19.3359 76.7578 -19.3359 C 71.1914 -19.3359 67.4316 -23.0957 67.4316 -28.7109 L 67.4316 -55.6152 C 67.4316 -61.2305 64.502 -64.4531 59.375 -64.4531 C 54.1992 -64.4531 51.2695 -61.2793 51.2695 -55.6152 L 51.2695 -27.1484 C 51.2695 -14.5996 61.6699 -6.10352 76.7578 -6.10352 Z"/>
  </g>
  <g id="Black-L" transform="matrix(1 0 0 1 2855.62 1556)">
   <path d="M 39.9902 26.5137 L 115.576 26.5137 C 130.859 26.5137 139.502 17.8711 139.502 2.68555 L 139.502 -73.0957 C 139.502 -88.2812 130.859 -96.875 115.576 -96.875 L 39.9902 -96.875 C 24.7559 -96.875 16.0645 -88.2812 16.0645 -73.0957 L 16.0645 2.68555 C 16.0645 17.8711 24.7559 26.5137 39.9902 26.5137 Z M 42.7246 6.29883 C 38.4766 6.29883 36.3281 4.39453 36.3281 -0.146484 L 36.3281 -70.2148 C 36.3281 -74.7559 38.4766 -76.6602 42.7246 -76.6602 L 112.842 -76.6602 C 117.09 -76.6602 119.238 -74.7559 119.238 -70.2148 L 119.238 -0.146484 C 119.238 4.39453 117.09 6.29883 112.842 6.29883 Z M 77.7832 -6.20117 C 93.2129 -6.20117 103.809 -14.6973 103.809 -27.1484 L 103.809 -54.248 C 103.809 -60.6934 100.439 -64.3066 94.4824 -64.3066 C 88.623 -64.3066 85.3027 -60.6445 85.3027 -54.248 L 85.3027 -28.9551 C 85.3027 -24.3652 82.2754 -21.2402 77.7832 -21.2402 C 73.291 -21.2402 70.3125 -24.3652 70.3125 -28.9551 L 70.3125 -54.248 C 70.3125 -60.6445 66.9434 -64.3066 61.0352 -64.3066 C 55.127 -64.3066 51.8066 -60.6934 51.8066 -54.248 L 51.8066 -27.1484 C 51.8066 -14.6973 62.4023 -6.20117 77.7832 -6.20117 Z"/>
  </g>
 </g>
</svg>
