<?xml version="1.0" encoding="UTF-8"?>
<!--Generator: Apple Native CoreSVG 123-->
<!DOCTYPE svg
PUBLIC "-//W3C//DTD SVG 1.1//EN"
       "http://www.w3.org/Graphics/SVG/1.1/DTD/svg11.dtd">
<svg version="1.1" xmlns="http://www.w3.org/2000/svg" xmlns:xlink="http://www.w3.org/1999/xlink" width="3300" height="2200">
 <!--glyph: "uni1000BF.medium", point size: 100.000000, font version: "Version 15.0d4e20", template writer version: "2"-->
 <g id="Notes">
  <rect height="2200" id="artboard" style="fill:white;opacity:1" width="3300" x="0" y="0"/>
  <line id="" style="fill:none;stroke:black;opacity:1;stroke-width:0.5;" x1="263" x2="3036" y1="292" y2="292"/>
  <text style="stroke:none;fill:black;font-family:-apple-system,&quot;SF Pro Display&quot;,&quot;SF Pro Text&quot;,Helvetica,sans-serif;font-weight:bold;" transform="matrix(1 0 0 1 263 322)">Weight/Scale Variations</text>
  <text style="stroke:none;fill:black;font-family:-apple-system,&quot;SF Pro Display&quot;,&quot;SF Pro Text&quot;,Helvetica,sans-serif;text-anchor:middle;" transform="matrix(1 0 0 1 559.711 322)">Ultralight</text>
  <text style="stroke:none;fill:black;font-family:-apple-system,&quot;SF Pro Display&quot;,&quot;SF Pro Text&quot;,Helvetica,sans-serif;text-anchor:middle;" transform="matrix(1 0 0 1 856.422 322)">Thin</text>
  <text style="stroke:none;fill:black;font-family:-apple-system,&quot;SF Pro Display&quot;,&quot;SF Pro Text&quot;,Helvetica,sans-serif;text-anchor:middle;" transform="matrix(1 0 0 1 1153.13 322)">Light</text>
  <text style="stroke:none;fill:black;font-family:-apple-system,&quot;SF Pro Display&quot;,&quot;SF Pro Text&quot;,Helvetica,sans-serif;text-anchor:middle;" transform="matrix(1 0 0 1 1449.84 322)">Regular</text>
  <text style="stroke:none;fill:black;font-family:-apple-system,&quot;SF Pro Display&quot;,&quot;SF Pro Text&quot;,Helvetica,sans-serif;text-anchor:middle;" transform="matrix(1 0 0 1 1746.56 322)">Medium</text>
  <text style="stroke:none;fill:black;font-family:-apple-system,&quot;SF Pro Display&quot;,&quot;SF Pro Text&quot;,Helvetica,sans-serif;text-anchor:middle;" transform="matrix(1 0 0 1 2043.27 322)">Semibold</text>
  <text style="stroke:none;fill:black;font-family:-apple-system,&quot;SF Pro Display&quot;,&quot;SF Pro Text&quot;,Helvetica,sans-serif;text-anchor:middle;" transform="matrix(1 0 0 1 2339.98 322)">Bold</text>
  <text style="stroke:none;fill:black;font-family:-apple-system,&quot;SF Pro Display&quot;,&quot;SF Pro Text&quot;,Helvetica,sans-serif;text-anchor:middle;" transform="matrix(1 0 0 1 2636.69 322)">Heavy</text>
  <text style="stroke:none;fill:black;font-family:-apple-system,&quot;SF Pro Display&quot;,&quot;SF Pro Text&quot;,Helvetica,sans-serif;text-anchor:middle;" transform="matrix(1 0 0 1 2933.4 322)">Black</text>
  <line id="" style="fill:none;stroke:black;opacity:1;stroke-width:0.5;" x1="263" x2="3036" y1="1903" y2="1903"/>
  <g id="" transform="matrix(1 0 0 1 263 1933)">
   <path d="M 9.24805 0.830078 C 13.5547 0.830078 17.1387 -2.74414 17.1387 -7.05078 C 17.1387 -11.3574 13.5449 -14.9316 9.23828 -14.9316 C 4.94141 -14.9316 1.36719 -11.3574 1.36719 -7.05078 C 1.36719 -2.74414 4.95117 0.830078 9.24805 0.830078 Z M 9.24805 -0.654297 C 5.70312 -0.654297 2.87109 -3.49609 2.87109 -7.05078 C 2.87109 -10.6055 5.69336 -13.4473 9.23828 -13.4473 C 12.793 -13.4473 15.6348 -10.6055 15.6445 -7.05078 C 15.6543 -3.49609 12.8027 -0.654297 9.24805 -0.654297 Z M 9.22852 -3.42773 C 9.69727 -3.42773 9.9707 -3.74023 9.9707 -4.25781 L 9.9707 -6.31836 L 12.1973 -6.31836 C 12.6953 -6.31836 13.0371 -6.57227 13.0371 -7.04102 C 13.0371 -7.51953 12.7148 -7.7832 12.1973 -7.7832 L 9.9707 -7.7832 L 9.9707 -10.0098 C 9.9707 -10.5273 9.69727 -10.8496 9.22852 -10.8496 C 8.75977 -10.8496 8.50586 -10.5078 8.50586 -10.0098 L 8.50586 -7.7832 L 6.29883 -7.7832 C 5.78125 -7.7832 5.44922 -7.51953 5.44922 -7.04102 C 5.44922 -6.57227 5.80078 -6.31836 6.29883 -6.31836 L 8.50586 -6.31836 L 8.50586 -4.25781 C 8.50586 -3.75977 8.75977 -3.42773 9.22852 -3.42773 Z"/>
  </g>
  <g id="" transform="matrix(1 0 0 1 281.506 1933)">
   <path d="M 11.709 2.91016 C 17.1484 2.91016 21.6699 -1.60156 21.6699 -7.05078 C 21.6699 -12.4902 17.1387 -17.0117 11.6992 -17.0117 C 6.25 -17.0117 1.74805 -12.4902 1.74805 -7.05078 C 1.74805 -1.60156 6.25977 2.91016 11.709 2.91016 Z M 11.709 1.25 C 7.09961 1.25 3.41797 -2.44141 3.41797 -7.05078 C 3.41797 -11.6504 7.08984 -15.3516 11.6992 -15.3516 C 16.2988 -15.3516 20 -11.6504 20.0098 -7.05078 C 20.0195 -2.44141 16.3086 1.25 11.709 1.25 Z M 11.6797 -2.41211 C 12.207 -2.41211 12.5195 -2.77344 12.5195 -3.33984 L 12.5195 -6.23047 L 15.5762 -6.23047 C 16.123 -6.23047 16.5039 -6.51367 16.5039 -7.03125 C 16.5039 -7.55859 16.1426 -7.86133 15.5762 -7.86133 L 12.5195 -7.86133 L 12.5195 -10.9277 C 12.5195 -11.5039 12.207 -11.8555 11.6797 -11.8555 C 11.1621 -11.8555 10.8789 -11.4844 10.8789 -10.9277 L 10.8789 -7.86133 L 7.83203 -7.86133 C 7.25586 -7.86133 6.89453 -7.55859 6.89453 -7.03125 C 6.89453 -6.51367 7.28516 -6.23047 7.83203 -6.23047 L 10.8789 -6.23047 L 10.8789 -3.33984 C 10.8789 -2.79297 11.1621 -2.41211 11.6797 -2.41211 Z"/>
  </g>
  <g id="" transform="matrix(1 0 0 1 304.914 1933)">
   <path d="M 14.9707 5.67383 C 21.9336 5.67383 27.6855 -0.078125 27.6855 -7.04102 C 27.6855 -14.0039 21.9238 -19.7559 14.9609 -19.7559 C 7.99805 -19.7559 2.25586 -14.0039 2.25586 -7.04102 C 2.25586 -0.078125 8.00781 5.67383 14.9707 5.67383 Z M 14.9707 3.85742 C 8.92578 3.85742 4.08203 -1.00586 4.08203 -7.04102 C 4.08203 -13.0762 8.91602 -17.9395 14.9609 -17.9395 C 20.9961 -17.9395 25.8594 -13.0762 25.8691 -7.04102 C 25.8789 -1.00586 21.0059 3.85742 14.9707 3.85742 Z M 14.9414 -1.06445 C 15.5176 -1.06445 15.8594 -1.45508 15.8594 -2.06055 L 15.8594 -6.13281 L 20.0977 -6.13281 C 20.6934 -6.13281 21.1133 -6.46484 21.1133 -7.02148 C 21.1133 -7.59766 20.7227 -7.93945 20.0977 -7.93945 L 15.8594 -7.93945 L 15.8594 -12.1875 C 15.8594 -12.8027 15.5176 -13.1934 14.9414 -13.1934 C 14.3848 -13.1934 14.0625 -12.7832 14.0625 -12.1875 L 14.0625 -7.93945 L 9.82422 -7.93945 C 9.20898 -7.93945 8.80859 -7.59766 8.80859 -7.02148 C 8.80859 -6.46484 9.23828 -6.13281 9.82422 -6.13281 L 14.0625 -6.13281 L 14.0625 -2.06055 C 14.0625 -1.47461 14.3848 -1.06445 14.9414 -1.06445 Z"/>
  </g>
  <text style="stroke:none;fill:black;font-family:-apple-system,&quot;SF Pro Display&quot;,&quot;SF Pro Text&quot;,Helvetica,sans-serif;font-weight:bold;" transform="matrix(1 0 0 1 263 1953)">Design Variations</text>
  <text style="stroke:none;fill:black;font-family:-apple-system,&quot;SF Pro Display&quot;,&quot;SF Pro Text&quot;,Helvetica,sans-serif;" transform="matrix(1 0 0 1 263 1971)">Symbols are supported in up to nine weights and three scales.</text>
  <text style="stroke:none;fill:black;font-family:-apple-system,&quot;SF Pro Display&quot;,&quot;SF Pro Text&quot;,Helvetica,sans-serif;" transform="matrix(1 0 0 1 263 1989)">For optimal layout with text and other symbols, vertically align</text>
  <text style="stroke:none;fill:black;font-family:-apple-system,&quot;SF Pro Display&quot;,&quot;SF Pro Text&quot;,Helvetica,sans-serif;" transform="matrix(1 0 0 1 263 2007)">symbols with the adjacent text.</text>
  <rect height="14" id="" style="fill:#00AEEF;stroke:none;opacity:0.4;" width="3" x="776" y="1919"/>
  <g id="" transform="matrix(1 0 0 1 779 1933)">
   <path d="M 10.5273 0 L 12.373 0 L 7.17773 -14.0918 L 5.43945 -14.0918 L 0.244141 0 L 2.08984 0 L 3.50586 -4.0332 L 9.11133 -4.0332 Z M 6.2793 -11.9531 L 6.33789 -11.9531 L 8.59375 -5.52734 L 4.02344 -5.52734 Z"/>
  </g>
  <rect height="14" id="" style="fill:#00AEEF;stroke:none;opacity:0.4;" width="3" x="791.617" y="1919"/>
  <text style="stroke:none;fill:black;font-family:-apple-system,&quot;SF Pro Display&quot;,&quot;SF Pro Text&quot;,Helvetica,sans-serif;font-weight:bold;" transform="matrix(1 0 0 1 776 1953)">Side Bearings</text>
  <text style="stroke:none;fill:black;font-family:-apple-system,&quot;SF Pro Display&quot;,&quot;SF Pro Text&quot;,Helvetica,sans-serif;" transform="matrix(1 0 0 1 776 1971)">Horizontal padding on the left and right side of each symbol</text>
  <text style="stroke:none;fill:black;font-family:-apple-system,&quot;SF Pro Display&quot;,&quot;SF Pro Text&quot;,Helvetica,sans-serif;" transform="matrix(1 0 0 1 776 1989)">can be adjusted by modifying the width of the blue rectangles.</text>
  <text style="stroke:none;fill:black;font-family:-apple-system,&quot;SF Pro Display&quot;,&quot;SF Pro Text&quot;,Helvetica,sans-serif;" transform="matrix(1 0 0 1 776 2007)">Modifications are automatically applied proportionally to all</text>
  <text style="stroke:none;fill:black;font-family:-apple-system,&quot;SF Pro Display&quot;,&quot;SF Pro Text&quot;,Helvetica,sans-serif;" transform="matrix(1 0 0 1 776 2025)">scales and weights.</text>
  <g id="" transform="matrix(1 0 0 1 1289 1933)">
   <path d="M 2.96875 2.35352 L 3.80859 3.19336 C 4.84375 4.22852 6.12305 4.15039 7.19727 2.97852 L 16.1621 -6.82617 C 16.5527 -6.74805 16.9629 -6.8457 17.4902 -7.02148 C 18.1738 -7.25586 18.2715 -7.25586 18.3887 -7.13867 C 18.5352 -7.01172 18.4863 -6.89453 18.2422 -6.25 C 17.8809 -5.33203 17.8125 -4.79492 18.5547 -4.02344 L 19.4238 -3.13477 C 20.2734 -2.24609 21.3281 -2.26562 22.2168 -3.14453 L 25.0586 -5.97656 C 25.9473 -6.86523 25.957 -7.92969 25.0781 -8.7793 L 24.1797 -9.64844 C 23.4082 -10.4004 22.8711 -10.3516 21.9629 -9.98047 C 21.3184 -9.72656 21.2012 -9.6875 21.0645 -9.81445 C 20.9375 -9.93164 20.9473 -10.0391 21.1816 -10.7129 C 21.5332 -11.6895 21.5723 -12.2852 20.752 -13.0957 L 19.3359 -14.5117 C 15.1953 -18.6133 11.2305 -18.7402 7.65625 -15.4395 C 7.08008 -14.9023 6.99219 -14.1504 7.53906 -13.6133 L 7.79297 -13.3594 C 8.22266 -12.9297 8.86719 -12.8418 9.41406 -13.1152 C 11.0645 -13.9453 12.2559 -14.0234 13.457 -12.9785 L 13.0273 -11.416 C 12.8516 -10.8008 12.793 -10.3418 12.9199 -9.93164 L 3.18359 -1.04492 C 2.02148 0.0292969 1.93359 1.32812 2.96875 2.35352 Z M 8.96484 -14.4922 C 8.89648 -14.5703 8.86719 -14.6582 8.99414 -14.7559 C 11.709 -17.2852 15.0391 -16.8457 18.3496 -13.5254 L 19.6973 -12.168 C 20.0879 -11.7773 20.0977 -11.582 19.8828 -10.8691 C 19.6582 -10.127 19.502 -9.53125 20.1465 -8.88672 C 20.8105 -8.22266 21.2891 -8.41797 22.207 -8.63281 C 22.9004 -8.79883 23.0664 -8.79883 23.4473 -8.41797 L 24.0918 -7.77344 C 24.4043 -7.48047 24.4141 -7.32422 24.0723 -6.97266 L 21.2207 -4.13086 C 20.8887 -3.79883 20.7227 -3.79883 20.4297 -4.10156 L 19.7852 -4.75586 C 19.4141 -5.13672 19.4141 -5.30273 19.5801 -6.01562 C 19.7852 -6.88477 19.9805 -7.38281 19.3262 -8.04688 C 18.6719 -8.7207 18.0762 -8.57422 17.3438 -8.33008 C 16.5625 -8.06641 16.3281 -8.06641 15.8984 -8.49609 L 14.6094 -9.78516 C 14.1699 -10.2246 14.1309 -10.4395 14.2676 -10.9082 L 15.0293 -13.3984 C 13.3887 -15.2832 11.4941 -15.5566 9.20898 -14.4434 C 9.11133 -14.3945 9.04297 -14.4141 8.96484 -14.4922 Z M 3.96484 1.36719 C 3.52539 0.927734 3.54492 0.537109 4.14062 -0.00976562 L 13.7402 -8.81836 L 15 -7.55859 L 6.17188 2.02148 C 5.625 2.60742 5.24414 2.64648 4.79492 2.19727 Z"/>
  </g>
  <text style="stroke:none;fill:black;font-family:-apple-system,&quot;SF Pro Display&quot;,&quot;SF Pro Text&quot;,Helvetica,sans-serif;font-weight:bold;" transform="matrix(1 0 0 1 1289 1953)">Exporting</text>
  <text style="stroke:none;fill:black;font-family:-apple-system,&quot;SF Pro Display&quot;,&quot;SF Pro Text&quot;,Helvetica,sans-serif;" transform="matrix(1 0 0 1 1289 1971)">Symbols should be outlined when exporting to ensure the</text>
  <text style="stroke:none;fill:black;font-family:-apple-system,&quot;SF Pro Display&quot;,&quot;SF Pro Text&quot;,Helvetica,sans-serif;" transform="matrix(1 0 0 1 1289 1989)">design is preserved when submitting to Xcode.</text>
  <text id="template-version" style="stroke:none;fill:black;font-family:-apple-system,&quot;SF Pro Display&quot;,&quot;SF Pro Text&quot;,Helvetica,sans-serif;text-anchor:end;" transform="matrix(1 0 0 1 3036 1933)">Template v.0.1</text>
  <text style="stroke:none;fill:black;font-family:-apple-system,&quot;SF Pro Display&quot;,&quot;SF Pro Text&quot;,Helvetica,sans-serif;text-anchor:end;" transform="matrix(1 0 0 1 3036 1951)">Generated from v.square.fill</text>
  <text style="stroke:none;fill:black;font-family:-apple-system,&quot;SF Pro Display&quot;,&quot;SF Pro Text&quot;,Helvetica,sans-serif;text-anchor:end;" transform="matrix(1 0 0 1 3036 1969)">Typeset at 100 points</text>
  <text style="stroke:none;fill:black;font-family:-apple-system,&quot;SF Pro Display&quot;,&quot;SF Pro Text&quot;,Helvetica,sans-serif;" transform="matrix(1 0 0 1 263 726)">Small</text>
  <text style="stroke:none;fill:black;font-family:-apple-system,&quot;SF Pro Display&quot;,&quot;SF Pro Text&quot;,Helvetica,sans-serif;" transform="matrix(1 0 0 1 263 1156)">Medium</text>
  <text style="stroke:none;fill:black;font-family:-apple-system,&quot;SF Pro Display&quot;,&quot;SF Pro Text&quot;,Helvetica,sans-serif;" transform="matrix(1 0 0 1 263 1586)">Large</text>
 </g>
 <g id="Guides">
  <g id="H-reference" style="fill:#27AAE1;stroke:none;" transform="matrix(1 0 0 1 339 696)">
   <path d="M 54.9316 0 L 57.666 0 L 30.5664 -70.459 L 28.0762 -70.459 L 0.976562 0 L 3.66211 0 L 12.9395 -24.4629 L 45.7031 -24.4629 Z M 29.1992 -67.0898 L 29.4434 -67.0898 L 44.8242 -26.709 L 13.8184 -26.709 Z"/>
  </g>
  <line id="Baseline-S" style="fill:none;stroke:#27AAE1;opacity:1;stroke-width:0.577;" x1="263" x2="3036" y1="696" y2="696"/>
  <line id="Capline-S" style="fill:none;stroke:#27AAE1;opacity:1;stroke-width:0.577;" x1="263" x2="3036" y1="625.541" y2="625.541"/>
  <g id="H-reference" style="fill:#27AAE1;stroke:none;" transform="matrix(1 0 0 1 339 1126)">
   <path d="M 54.9316 0 L 57.666 0 L 30.5664 -70.459 L 28.0762 -70.459 L 0.976562 0 L 3.66211 0 L 12.9395 -24.4629 L 45.7031 -24.4629 Z M 29.1992 -67.0898 L 29.4434 -67.0898 L 44.8242 -26.709 L 13.8184 -26.709 Z"/>
  </g>
  <line id="Baseline-M" style="fill:none;stroke:#27AAE1;opacity:1;stroke-width:0.577;" x1="263" x2="3036" y1="1126" y2="1126"/>
  <line id="Capline-M" style="fill:none;stroke:#27AAE1;opacity:1;stroke-width:0.577;" x1="263" x2="3036" y1="1055.54" y2="1055.54"/>
  <g id="H-reference" style="fill:#27AAE1;stroke:none;" transform="matrix(1 0 0 1 339 1556)">
   <path d="M 54.9316 0 L 57.666 0 L 30.5664 -70.459 L 28.0762 -70.459 L 0.976562 0 L 3.66211 0 L 12.9395 -24.4629 L 45.7031 -24.4629 Z M 29.1992 -67.0898 L 29.4434 -67.0898 L 44.8242 -26.709 L 13.8184 -26.709 Z"/>
  </g>
  <line id="Baseline-L" style="fill:none;stroke:#27AAE1;opacity:1;stroke-width:0.577;" x1="263" x2="3036" y1="1556" y2="1556"/>
  <line id="Capline-L" style="fill:none;stroke:#27AAE1;opacity:1;stroke-width:0.577;" x1="263" x2="3036" y1="1485.54" y2="1485.54"/>
  <rect height="119.336" id="left-margin" style="fill:#00AEEF;stroke:none;opacity:0.4;" width="12.4512" x="1392.42" y="1030.79"/>
  <rect height="119.336" id="right-margin" style="fill:#00AEEF;stroke:none;opacity:0.4;" width="12.5" x="1494.77" y="1030.79"/>
 </g>
 <g id="Symbols">
  <g id="Ultralight-S" transform="matrix(1 0 0 1 516.352 696)">
   <path d="M 19.7754 -1.5625 L 66.9922 -1.5625 C 73.5352 -1.5625 76.9531 -5.12695 76.9531 -11.5234 L 76.9531 -58.7891 C 76.9531 -65.2344 73.5352 -68.75 66.9922 -68.75 L 19.7754 -68.75 C 13.2324 -68.75 9.76562 -65.2832 9.76562 -58.7891 L 9.76562 -11.5234 C 9.76562 -5.0293 13.2324 -1.5625 19.7754 -1.5625 Z M 43.4082 -17.1875 C 42.2852 -17.1875 41.748 -17.7246 41.4062 -18.6035 L 28.9062 -51.3672 C 28.8086 -51.6113 28.7598 -51.9043 28.7598 -52.1484 C 28.7598 -52.7344 29.1992 -53.2227 29.9805 -53.2227 C 30.5664 -53.2227 30.957 -52.9785 31.2012 -52.1973 L 43.3105 -20.1172 L 43.5059 -20.1172 L 55.6152 -52.1973 C 55.8594 -52.9297 56.25 -53.2227 56.8848 -53.2227 C 57.6172 -53.2227 58.0566 -52.7832 58.0566 -52.1484 C 58.0566 -51.9043 58.0078 -51.6602 57.9102 -51.3672 L 45.459 -18.6035 C 45.166 -17.7734 44.5312 -17.1875 43.4082 -17.1875 Z"/>
  </g>
  <g id="Thin-S" transform="matrix(1 0 0 1 812.599 696)">
   <path d="M 20.3125 -1.12305 L 67.334 -1.12305 C 74.2676 -1.12305 77.8809 -4.78516 77.8809 -11.6211 L 77.8809 -58.6914 C 77.8809 -65.5762 74.2676 -69.2383 67.334 -69.2383 L 20.3125 -69.2383 C 13.3789 -69.2383 9.76562 -65.625 9.76562 -58.6914 L 9.76562 -11.6211 C 9.76562 -4.6875 13.3789 -1.12305 20.3125 -1.12305 Z M 43.8477 -16.9922 C 42.3828 -16.9922 41.6504 -17.627 41.0645 -19.043 L 28.9551 -50.8789 C 28.7598 -51.2207 28.7109 -51.5625 28.7109 -51.9043 C 28.7109 -52.832 29.4434 -53.5645 30.5176 -53.5645 C 31.4453 -53.5645 31.9824 -53.125 32.373 -52.0508 L 43.75 -21.2402 L 43.9453 -21.2402 L 55.3223 -52.0508 C 55.7129 -53.0762 56.2988 -53.5645 57.2266 -53.5645 C 58.252 -53.5645 58.9844 -52.8809 58.9844 -51.9043 C 58.9844 -51.5625 58.9355 -51.2695 58.7891 -50.8789 L 46.6309 -19.0918 C 46.1426 -17.7246 45.3125 -16.9922 43.8477 -16.9922 Z"/>
  </g>
  <g id="Light-S" transform="matrix(1 0 0 1 1108.46 696)">
   <path d="M 21.3867 -0.292969 L 67.9688 -0.292969 C 75.7324 -0.292969 79.5898 -4.15039 79.5898 -11.7676 L 79.5898 -58.5938 C 79.5898 -66.2109 75.7324 -70.1172 67.9688 -70.1172 L 21.3867 -70.1172 C 13.6719 -70.1172 9.76562 -66.2598 9.76562 -58.5938 L 9.76562 -11.7676 C 9.76562 -4.15039 13.6719 -0.292969 21.3867 -0.292969 Z M 44.7266 -16.5527 C 42.5293 -16.5527 41.4062 -17.4805 40.4785 -19.9219 L 28.9551 -49.9023 C 28.7598 -50.4883 28.7109 -50.9277 28.7109 -51.4648 C 28.7109 -53.0273 29.8828 -54.1504 31.543 -54.1504 C 33.1055 -54.1504 33.9844 -53.418 34.5703 -51.7578 L 44.5801 -23.3887 L 44.8242 -23.3887 L 54.834 -51.7578 C 55.4199 -53.418 56.2988 -54.1504 57.8613 -54.1504 C 59.5215 -54.1504 60.6934 -53.0273 60.6934 -51.4648 C 60.6934 -50.9277 60.6445 -50.4883 60.4492 -49.9023 L 48.9746 -19.9707 C 48.0957 -17.6758 46.8262 -16.5527 44.7266 -16.5527 Z"/>
  </g>
  <g id="Regular-S" transform="matrix(1 0 0 1 1404.51 696)">
   <path d="M 22.2168 0.390625 L 68.457 0.390625 C 76.8066 0.390625 80.9082 -3.71094 80.9082 -11.9141 L 80.9082 -58.4961 C 80.9082 -66.6992 76.8066 -70.8008 68.457 -70.8008 L 22.2168 -70.8008 C 13.916 -70.8008 9.76562 -66.6992 9.76562 -58.4961 L 9.76562 -11.9141 C 9.76562 -3.71094 13.916 0.390625 22.2168 0.390625 Z M 45.4102 -16.2598 C 42.6758 -16.2598 41.2109 -17.3828 40.0391 -20.6055 L 29.0039 -49.2188 C 28.7109 -49.9023 28.6621 -50.4883 28.6621 -51.123 C 28.6621 -53.1738 30.2246 -54.5898 32.3242 -54.5898 C 34.3262 -54.5898 35.5469 -53.6621 36.2305 -51.5137 L 45.2148 -25 L 45.5078 -25 L 54.4434 -51.5137 C 55.1758 -53.6621 56.3477 -54.5898 58.3496 -54.5898 C 60.498 -54.5898 62.0117 -53.1738 62.0117 -51.123 C 62.0117 -50.4883 61.9629 -49.9023 61.6699 -49.2188 L 50.7324 -20.6543 C 49.6094 -17.627 47.998 -16.2598 45.4102 -16.2598 Z"/>
  </g>
  <g id="Medium-S" transform="matrix(1 0 0 1 1700.63 696)">
   <path d="M 22.8516 0.976562 L 68.9941 0.976562 C 77.6367 0.976562 82.0801 -3.4668 82.0801 -11.9629 L 82.0801 -58.3984 C 82.0801 -66.9434 77.6367 -71.3867 68.9941 -71.3867 L 22.8516 -71.3867 C 14.2578 -71.3867 9.76562 -66.9434 9.76562 -58.3984 L 9.76562 -11.9629 C 9.76562 -3.4668 14.2578 0.976562 22.8516 0.976562 Z M 46.0449 -16.4062 C 42.4805 -16.4062 40.625 -17.8711 39.3555 -21.6309 L 29.5898 -47.8516 C 29.248 -48.7305 29.1992 -49.3652 29.1992 -50.1465 C 29.1992 -52.5879 31.0059 -54.3457 33.6426 -54.3457 C 36.084 -54.3457 37.4512 -53.1738 38.1836 -50.4883 L 45.8496 -25.9277 L 46.1914 -25.9277 L 53.8574 -50.4883 C 54.6387 -53.1738 55.957 -54.3457 58.4473 -54.3457 C 61.0352 -54.3457 62.8906 -52.6367 62.8906 -50.1465 C 62.8906 -49.4141 62.8418 -48.7305 62.5 -47.8516 L 52.7832 -21.7285 C 51.5137 -18.1152 49.5117 -16.4062 46.0449 -16.4062 Z"/>
  </g>
  <g id="Semibold-S" transform="matrix(1 0 0 1 1996.9 696)">
   <path d="M 23.3398 1.41602 L 69.3848 1.41602 C 78.2227 1.41602 82.959 -3.32031 82.959 -12.0605 L 82.959 -58.3496 C 82.959 -67.0898 78.2227 -71.8262 69.3848 -71.8262 L 23.3398 -71.8262 C 14.5508 -71.8262 9.76562 -67.0898 9.76562 -58.3496 L 9.76562 -12.0605 C 9.76562 -3.32031 14.5508 1.41602 23.3398 1.41602 Z M 46.5332 -16.5039 C 42.2852 -16.5039 40.1855 -18.2617 38.8184 -22.4121 L 30.0293 -46.8262 C 29.6875 -47.8027 29.5898 -48.4863 29.5898 -49.3652 C 29.5898 -52.1973 31.6406 -54.1016 34.6191 -54.1016 C 37.4023 -54.1016 38.916 -52.832 39.6484 -49.6582 L 46.3867 -26.6602 L 46.7285 -26.6602 L 53.418 -49.6582 C 54.1992 -52.832 55.6641 -54.1016 58.4961 -54.1016 C 61.4746 -54.1016 63.5742 -52.1973 63.5742 -49.4141 C 63.5742 -48.584 63.4766 -47.8516 63.1348 -46.8262 L 54.3457 -22.5586 C 52.9785 -18.457 50.7324 -16.5039 46.5332 -16.5039 Z"/>
  </g>
  <g id="Bold-S" transform="matrix(1 0 0 1 2293.01 696)">
   <path d="M 23.9746 2.00195 L 69.9219 2.00195 C 79.0527 2.00195 84.1797 -3.07617 84.1797 -12.1582 L 84.1797 -58.252 C 84.1797 -67.334 79.0527 -72.4121 69.9219 -72.4121 L 23.9746 -72.4121 C 14.8926 -72.4121 9.76562 -67.334 9.76562 -58.252 L 9.76562 -12.1582 C 9.76562 -3.07617 14.8926 2.00195 23.9746 2.00195 Z M 47.168 -16.6504 C 42.0898 -16.6504 39.5996 -18.75 38.0859 -23.4375 L 30.6152 -45.459 C 30.2246 -46.582 30.0781 -47.3633 30.0781 -48.3398 C 30.0781 -51.6113 32.4219 -53.8574 35.9375 -53.8574 C 39.1602 -53.8574 40.8203 -52.2949 41.6016 -48.6328 L 47.0703 -27.5879 L 47.4121 -27.5879 L 52.832 -48.6328 C 53.6621 -52.3438 55.2734 -53.8574 58.5449 -53.8574 C 62.0605 -53.8574 64.4531 -51.6602 64.4531 -48.4375 C 64.4531 -47.4609 64.3555 -46.6309 63.916 -45.459 L 56.4453 -23.6816 C 54.8828 -18.8965 52.2949 -16.6504 47.168 -16.6504 Z"/>
  </g>
  <g id="Heavy-S" transform="matrix(1 0 0 1 2588.86 696)">
   <path d="M 24.9023 2.83203 L 70.7031 2.83203 C 80.2246 2.83203 85.8887 -2.7832 85.8887 -12.3047 L 85.8887 -58.1055 C 85.8887 -67.627 80.2246 -73.2422 70.7031 -73.2422 L 24.9023 -73.2422 C 15.3809 -73.2422 9.76562 -67.627 9.76562 -58.1055 L 9.76562 -12.3047 C 9.76562 -2.7832 15.3809 2.83203 24.9023 2.83203 Z M 48.0957 -16.8945 C 41.7969 -16.8945 38.7695 -19.4336 37.1094 -24.9023 L 31.4453 -43.457 C 31.0059 -44.8242 30.8594 -45.7031 30.8594 -46.8262 C 30.8594 -50.8301 33.5938 -53.418 37.8418 -53.418 C 41.6992 -53.418 43.6523 -51.6113 44.4824 -47.0703 L 48.0469 -28.9551 L 48.4375 -28.9551 L 52.002 -47.0703 C 52.832 -51.6602 54.7363 -53.418 58.6426 -53.418 C 62.8906 -53.418 65.7227 -50.8789 65.7227 -46.9727 C 65.7227 -45.8984 65.5762 -44.9219 65.0879 -43.457 L 59.4727 -25.293 C 57.7148 -19.5801 54.541 -16.8945 48.0957 -16.8945 Z"/>
  </g>
  <g id="Black-S" transform="matrix(1 0 0 1 2884.82 696)">
   <path d="M 25.7324 3.61328 L 71.4355 3.61328 C 81.2988 3.61328 87.4023 -2.49023 87.4023 -12.4023 L 87.4023 -58.0078 C 87.4023 -67.9199 81.2988 -74.0234 71.4355 -74.0234 L 25.7324 -74.0234 C 15.8203 -74.0234 9.76562 -67.9199 9.76562 -58.0078 L 9.76562 -12.4023 C 9.76562 -2.49023 15.8203 3.61328 25.7324 3.61328 Z M 48.9258 -17.0898 C 41.5527 -17.0898 38.0371 -20.0684 36.1816 -26.2695 L 32.1777 -41.6992 C 31.6895 -43.2617 31.543 -44.2383 31.543 -45.5078 C 31.543 -50.0977 34.6191 -53.0762 39.502 -53.0762 C 43.9941 -53.0762 46.1426 -50.9766 47.0215 -45.7031 L 48.9258 -30.1758 L 49.3652 -30.1758 L 51.2207 -45.7031 C 52.1484 -51.0254 54.248 -53.0762 58.7402 -53.0762 C 63.623 -53.0762 66.8945 -50.1953 66.8945 -45.7031 C 66.8945 -44.4824 66.6992 -43.3594 66.1621 -41.6992 L 62.207 -26.7578 C 60.2051 -20.166 56.543 -17.0898 48.9258 -17.0898 Z"/>
  </g>
  <g id="Ultralight-M" transform="matrix(1 0 0 1 504.535 1126)">
   <path d="M 25 7.56836 L 85.3516 7.56836 C 93.5547 7.56836 97.9004 3.125 97.9004 -4.98047 L 97.9004 -65.2832 C 97.9004 -73.3887 93.5547 -77.832 85.3516 -77.832 L 25 -77.832 C 16.7969 -77.832 12.4512 -73.4863 12.4512 -65.2832 L 12.4512 -4.98047 C 12.4512 3.22266 16.7969 7.56836 25 7.56836 Z M 55.2246 -12.3047 C 53.9551 -12.3047 53.3691 -12.8906 52.9297 -13.8184 L 36.9141 -56.0059 C 36.7676 -56.2988 36.7188 -56.5918 36.7188 -56.8848 C 36.7188 -57.5684 37.207 -58.1055 38.0371 -58.1055 C 38.6719 -58.1055 39.1113 -57.8125 39.4043 -56.9824 L 55.127 -15.5273 L 55.3711 -15.5273 L 71.0938 -56.9824 C 71.3867 -57.7637 71.7773 -58.1055 72.4609 -58.1055 C 73.291 -58.1055 73.7793 -57.6172 73.7793 -56.8848 C 73.7793 -56.5918 73.7305 -56.3477 73.584 -56.0059 L 57.5195 -13.8184 C 57.2266 -12.9395 56.4941 -12.3047 55.2246 -12.3047 Z"/>
  </g>
  <g id="Thin-M" transform="matrix(1 0 0 1 800.734 1126)">
   <path d="M 25.6348 8.05664 L 85.7422 8.05664 C 94.3848 8.05664 98.9258 3.4668 98.9258 -5.0293 L 98.9258 -65.2344 C 98.9258 -73.7305 94.3848 -78.3691 85.7422 -78.3691 L 25.6348 -78.3691 C 16.9922 -78.3691 12.4512 -73.877 12.4512 -65.2344 L 12.4512 -5.0293 C 12.4512 3.56445 16.9922 8.05664 25.6348 8.05664 Z M 55.7617 -12.0605 C 54.0527 -12.0605 53.2227 -12.793 52.5879 -14.3555 L 36.9141 -55.4688 C 36.7676 -55.8594 36.6699 -56.25 36.6699 -56.6406 C 36.6699 -57.666 37.4512 -58.4473 38.623 -58.4473 C 39.6484 -58.4473 40.2832 -58.0078 40.6738 -56.7871 L 55.6152 -16.7969 L 55.8594 -16.7969 L 70.8008 -56.7871 C 71.1914 -57.959 71.8262 -58.4473 72.8516 -58.4473 C 74.0234 -58.4473 74.8047 -57.7148 74.8047 -56.6406 C 74.8047 -56.25 74.707 -55.9082 74.5605 -55.4688 L 58.8867 -14.3555 C 58.3984 -12.9395 57.4219 -12.0605 55.7617 -12.0605 Z"/>
  </g>
  <g id="Light-M" transform="matrix(1 0 0 1 1096.47 1126)">
   <path d="M 26.8555 9.0332 L 86.4746 9.0332 C 96.0449 9.0332 100.879 4.15039 100.879 -5.22461 L 100.879 -65.0879 C 100.879 -74.5117 96.0449 -79.3945 86.4746 -79.3945 L 26.8555 -79.3945 C 17.334 -79.3945 12.4512 -74.5605 12.4512 -65.0879 L 12.4512 -5.22461 C 12.4512 4.19922 17.334 9.0332 26.8555 9.0332 Z M 56.7383 -11.5723 C 54.248 -11.5723 52.9297 -12.6465 51.9043 -15.332 L 36.9629 -54.3945 C 36.7188 -55.0293 36.6211 -55.5664 36.6211 -56.1523 C 36.6211 -57.8613 37.9395 -59.1309 39.8438 -59.1309 C 41.5527 -59.1309 42.5293 -58.3496 43.1641 -56.4453 L 56.543 -19.1895 L 56.8359 -19.1895 L 70.2148 -56.4453 C 70.8496 -58.3008 71.875 -59.1309 73.584 -59.1309 C 75.4395 -59.1309 76.7578 -57.9102 76.7578 -56.1523 C 76.7578 -55.5664 76.709 -55.0293 76.416 -54.3945 L 61.5234 -15.3809 C 60.5957 -12.8418 59.1309 -11.5723 56.7383 -11.5723 Z"/>
  </g>
  <g id="Regular-M" transform="matrix(1 0 0 1 1392.42 1126)">
   <path d="M 27.7832 9.76562 L 87.0605 9.76562 C 97.2656 9.76562 102.344 4.6875 102.344 -5.37109 L 102.344 -64.9902 C 102.344 -75.0488 97.2656 -80.127 87.0605 -80.127 L 27.7832 -80.127 C 17.627 -80.127 12.4512 -75.0977 12.4512 -64.9902 L 12.4512 -5.37109 C 12.4512 4.73633 17.627 9.76562 27.7832 9.76562 Z M 57.4707 -11.2305 C 54.3457 -11.2305 52.7344 -12.5488 51.416 -16.0645 L 37.0117 -53.5645 C 36.6699 -54.3457 36.6211 -55.0293 36.6211 -55.7617 C 36.6211 -58.0078 38.3301 -59.668 40.7227 -59.668 C 42.9688 -59.668 44.2871 -58.5938 45.0684 -56.1523 L 57.2754 -21.0449 L 57.6172 -21.0449 L 69.7754 -56.1523 C 70.5566 -58.5938 71.875 -59.668 74.1211 -59.668 C 76.5137 -59.668 78.2227 -58.0078 78.2227 -55.7617 C 78.2227 -55.0293 78.1738 -54.3945 77.8809 -53.5645 L 63.5254 -16.1133 C 62.2559 -12.793 60.4492 -11.2305 57.4707 -11.2305 Z"/>
  </g>
  <g id="Medium-M" transform="matrix(1 0 0 1 1688.45 1126)">
   <path d="M 28.5645 10.4492 L 87.6465 10.4492 C 98.2422 10.4492 103.711 4.98047 103.711 -5.46875 L 103.711 -64.8926 C 103.711 -75.3418 98.2422 -80.8105 87.6465 -80.8105 L 28.5645 -80.8105 C 17.9688 -80.8105 12.4512 -75.3906 12.4512 -64.8926 L 12.4512 -5.46875 C 12.4512 4.98047 17.9688 10.4492 28.5645 10.4492 Z M 58.2031 -11.3281 C 54.1992 -11.3281 52.0996 -13.0371 50.6348 -17.1875 L 37.5977 -52.0996 C 37.207 -53.0762 37.1582 -53.8086 37.1582 -54.6875 C 37.1582 -57.4707 39.209 -59.4238 42.1387 -59.4238 C 44.9219 -59.4238 46.4355 -58.1543 47.2656 -55.0781 L 58.0078 -22.2168 L 58.3984 -22.2168 L 69.1406 -55.0781 C 69.9707 -58.1543 71.5332 -59.4238 74.2676 -59.4238 C 77.2461 -59.4238 79.2969 -57.4707 79.2969 -54.7363 C 79.2969 -53.8574 79.248 -53.0762 78.8574 -52.0996 L 65.8691 -17.334 C 64.4043 -13.2812 62.1582 -11.3281 58.2031 -11.3281 Z"/>
  </g>
  <g id="Semibold-M" transform="matrix(1 0 0 1 1984.65 1126)">
   <path d="M 29.1016 10.9863 L 88.1348 10.9863 C 98.9746 10.9863 104.785 5.17578 104.785 -5.56641 L 104.785 -64.8438 C 104.785 -75.5859 98.9746 -81.3477 88.1348 -81.3477 L 29.1016 -81.3477 C 18.3105 -81.3477 12.4512 -75.5859 12.4512 -64.8438 L 12.4512 -5.56641 C 12.4512 5.22461 18.3105 10.9863 29.1016 10.9863 Z M 58.7891 -11.4258 C 54.0527 -11.4258 51.6602 -13.3789 50.0488 -18.0664 L 38.0371 -50.9766 C 37.6465 -52.0508 37.5488 -52.8809 37.5488 -53.8574 C 37.5488 -57.0801 39.8438 -59.2285 43.2617 -59.2285 C 46.3867 -59.2285 48.0957 -57.7637 48.9746 -54.248 L 58.5938 -23.0957 L 59.0332 -23.0957 L 68.6523 -54.248 C 69.5312 -57.8125 71.1914 -59.2285 74.4141 -59.2285 C 77.7832 -59.2285 80.127 -57.0801 80.127 -53.9062 C 80.127 -52.9297 80.0293 -52.0996 79.6387 -50.9766 L 67.6758 -18.2617 C 66.0645 -13.623 63.5254 -11.4258 58.7891 -11.4258 Z"/>
  </g>
  <g id="Bold-M" transform="matrix(1 0 0 1 2280.65 1126)">
   <path d="M 29.8828 11.6699 L 88.7207 11.6699 C 100 11.6699 106.152 5.46875 106.152 -5.66406 L 106.152 -64.6973 C 106.152 -75.8789 100 -82.0312 88.7207 -82.0312 L 29.8828 -82.0312 C 18.6523 -82.0312 12.4512 -75.8789 12.4512 -64.6973 L 12.4512 -5.66406 C 12.4512 5.51758 18.6523 11.6699 29.8828 11.6699 Z M 59.5215 -11.5234 C 53.8574 -11.5234 51.0254 -13.8672 49.2676 -19.2383 L 38.623 -49.4629 C 38.1836 -50.7324 38.0859 -51.6602 38.0859 -52.7832 C 38.0859 -56.4941 40.7227 -59.0332 44.6777 -59.0332 C 48.3887 -59.0332 50.293 -57.3242 51.2207 -53.125 L 59.375 -24.2676 L 59.8145 -24.2676 L 67.9688 -53.125 C 68.9453 -57.3242 70.8008 -59.0332 74.5117 -59.0332 C 78.5156 -59.0332 81.2012 -56.543 81.2012 -52.8809 C 81.2012 -51.7578 81.1035 -50.8301 80.6152 -49.4629 L 70.0195 -19.4824 C 68.2617 -14.1113 65.2344 -11.5234 59.5215 -11.5234 Z"/>
  </g>
  <g id="Heavy-M" transform="matrix(1 0 0 1 2576.36 1126)">
   <path d="M 31.0059 12.6465 L 89.6484 12.6465 C 101.416 12.6465 108.154 5.9082 108.154 -5.81055 L 108.154 -64.5508 C 108.154 -76.2695 101.416 -83.0566 89.6484 -83.0566 L 31.0059 -83.0566 C 19.2383 -83.0566 12.4512 -76.3184 12.4512 -64.5508 L 12.4512 -5.81055 C 12.4512 5.9082 19.2383 12.6465 31.0059 12.6465 Z M 60.6445 -11.7188 C 53.5645 -11.7188 50.1465 -14.5508 48.1445 -20.8984 L 39.502 -47.3145 C 39.0137 -48.8281 38.8184 -49.8535 38.8184 -51.1719 C 38.8184 -55.7129 41.9922 -58.6914 46.7773 -58.6914 C 51.2207 -58.6914 53.4668 -56.6406 54.4434 -51.5137 L 60.5469 -25.9766 L 60.9863 -25.9766 L 67.041 -51.5137 C 68.0664 -56.6895 70.2637 -58.6914 74.7559 -58.6914 C 79.541 -58.6914 82.7637 -55.7617 82.7637 -51.3184 C 82.7637 -50.0488 82.6172 -48.9258 82.0801 -47.3145 L 73.4863 -21.2891 C 71.3867 -14.7949 67.8223 -11.7188 60.6445 -11.7188 Z"/>
  </g>
  <g id="Black-M" transform="matrix(1 0 0 1 2872.19 1126)">
   <path d="M 31.9824 13.5742 L 90.4297 13.5742 C 102.686 13.5742 109.961 6.29883 109.961 -5.95703 L 109.961 -64.4043 C 109.961 -76.6602 102.686 -83.9355 90.4297 -83.9355 L 31.9824 -83.9355 C 19.7266 -83.9355 12.4512 -76.6602 12.4512 -64.4043 L 12.4512 -5.95703 C 12.4512 6.29883 19.7266 13.5742 31.9824 13.5742 Z M 61.6211 -11.8652 C 53.3203 -11.8652 49.3652 -15.1855 47.168 -22.3633 L 40.2832 -45.3613 C 39.6973 -47.1191 39.502 -48.2422 39.502 -49.7559 C 39.502 -55.0293 43.1152 -58.3984 48.6816 -58.3984 C 53.7598 -58.3984 56.2988 -56.0059 57.3242 -50.0977 L 61.5234 -27.5391 L 62.0605 -27.5391 L 66.1621 -50.0977 C 67.2852 -56.0547 69.7754 -58.3984 74.9023 -58.3984 C 80.4688 -58.3984 84.1797 -55.0781 84.1797 -49.9512 C 84.1797 -48.5352 83.9844 -47.2656 83.3496 -45.3613 L 76.5625 -22.9004 C 74.2188 -15.3809 70.0684 -11.8652 61.6211 -11.8652 Z"/>
  </g>
  <g id="Ultralight-L" transform="matrix(1 0 0 1 488.739 1556)">
   <path d="M 31.9824 19.7754 L 109.961 19.7754 C 120.361 19.7754 125.879 14.0625 125.879 3.85742 L 125.879 -74.0723 C 125.879 -84.2773 120.361 -89.9902 109.961 -89.9902 L 31.9824 -89.9902 C 21.6309 -89.9902 16.0645 -84.4727 16.0645 -74.0723 L 16.0645 3.85742 C 16.0645 14.2578 21.6309 19.7754 31.9824 19.7754 Z M 71.0449 -5.71289 C 69.5801 -5.71289 68.8965 -6.44531 68.457 -7.42188 L 47.6074 -62.2559 C 47.4609 -62.5977 47.3633 -62.9883 47.3633 -63.3301 C 47.3633 -64.0137 47.8516 -64.5996 48.8281 -64.5996 C 49.5117 -64.5996 49.9512 -64.3066 50.293 -63.3301 L 70.8984 -9.27734 L 71.2402 -9.27734 L 91.8457 -63.3301 C 92.1875 -64.209 92.627 -64.5996 93.3105 -64.5996 C 94.2383 -64.5996 94.7754 -64.1113 94.7754 -63.3301 C 94.7754 -62.9883 94.6777 -62.6953 94.5312 -62.2559 L 73.6816 -7.42188 C 73.3887 -6.49414 72.5586 -5.71289 71.0449 -5.71289 Z"/>
  </g>
  <g id="Thin-L" transform="matrix(1 0 0 1 784.889 1556)">
   <path d="M 32.7148 20.3613 L 110.4 20.3613 C 121.289 20.3613 127.002 14.4531 127.002 3.75977 L 127.002 -73.9746 C 127.002 -84.7168 121.289 -90.5762 110.4 -90.5762 L 32.7148 -90.5762 C 21.8262 -90.5762 16.0645 -84.8633 16.0645 -73.9746 L 16.0645 3.75977 C 16.0645 14.6484 21.8262 20.3613 32.7148 20.3613 Z M 71.6309 -5.46875 C 69.6777 -5.46875 68.75 -6.34766 68.0664 -7.95898 L 47.6074 -61.6699 C 47.4121 -62.1094 47.3633 -62.5488 47.3633 -63.0371 C 47.3633 -64.1113 48.1445 -64.9902 49.4629 -64.9902 C 50.5859 -64.9902 51.2695 -64.502 51.709 -63.1348 L 71.4355 -10.6445 L 71.7773 -10.6445 L 91.5039 -63.1348 C 91.9922 -64.4043 92.6758 -64.9902 93.75 -64.9902 C 95.0684 -64.9902 95.8984 -64.209 95.8984 -63.0371 C 95.8984 -62.5488 95.8008 -62.207 95.6055 -61.6699 L 75.1465 -8.00781 C 74.6582 -6.44531 73.5352 -5.46875 71.6309 -5.46875 Z"/>
  </g>
  <g id="Light-L" transform="matrix(1 0 0 1 1080.5 1556)">
   <path d="M 34.082 21.4355 L 111.23 21.4355 C 123.096 21.4355 129.199 15.2344 129.199 3.56445 L 129.199 -73.8281 C 129.199 -85.5469 123.096 -91.6992 111.23 -91.6992 L 34.082 -91.6992 C 22.2168 -91.6992 16.0645 -85.6445 16.0645 -73.8281 L 16.0645 3.56445 C 16.0645 15.3809 22.2168 21.4355 34.082 21.4355 Z M 72.7051 -4.93164 C 69.873 -4.93164 68.457 -6.20117 67.334 -9.08203 L 47.6562 -60.4492 C 47.3633 -61.1816 47.3145 -61.7676 47.3145 -62.4512 C 47.3145 -64.3555 48.7305 -65.7227 50.8301 -65.7227 C 52.6855 -65.7227 53.8086 -64.8926 54.4922 -62.7441 L 72.5098 -13.3789 L 72.9004 -13.3789 L 90.8691 -62.7441 C 91.6016 -64.8438 92.7246 -65.7227 94.5801 -65.7227 C 96.6797 -65.7227 98.0957 -64.4043 98.0957 -62.4512 C 98.0957 -61.7676 97.998 -61.2305 97.7051 -60.4492 L 78.0762 -9.13086 C 77.0996 -6.39648 75.4883 -4.93164 72.7051 -4.93164 Z"/>
  </g>
  <g id="Regular-L" transform="matrix(1 0 0 1 1376.36 1556)">
   <path d="M 35.1074 22.2168 L 111.865 22.2168 C 124.512 22.2168 130.859 15.8691 130.859 3.41797 L 130.859 -73.7305 C 130.859 -86.1816 124.512 -92.5293 111.865 -92.5293 L 35.1074 -92.5293 C 22.5098 -92.5293 16.0645 -86.2305 16.0645 -73.7305 L 16.0645 3.41797 C 16.0645 15.918 22.5098 22.2168 35.1074 22.2168 Z M 73.5352 -4.54102 C 70.0195 -4.54102 68.2129 -6.05469 66.748 -9.91211 L 47.7051 -59.5703 C 47.3633 -60.4492 47.2656 -61.1816 47.2656 -62.0605 C 47.2656 -64.502 49.1699 -66.3086 51.8066 -66.3086 C 54.248 -66.3086 55.7129 -65.1855 56.6406 -62.4512 L 73.291 -15.4297 L 73.7305 -15.4297 L 90.3809 -62.4512 C 91.3086 -65.1367 92.7246 -66.3086 95.2148 -66.3086 C 97.8516 -66.3086 99.7559 -64.5508 99.7559 -62.0605 C 99.7559 -61.1816 99.6582 -60.498 99.3164 -59.5703 L 80.3223 -9.96094 C 78.9551 -6.34766 76.9043 -4.54102 73.5352 -4.54102 Z"/>
  </g>
  <g id="Medium-L" transform="matrix(1 0 0 1 1672.31 1556)">
   <path d="M 35.9863 22.998 L 112.549 22.998 C 125.635 22.998 132.422 16.2109 132.422 3.27148 L 132.422 -73.6328 C 132.422 -86.5234 125.635 -93.3105 112.549 -93.3105 L 35.9863 -93.3105 C 22.9004 -93.3105 16.0645 -86.5723 16.0645 -73.6328 L 16.0645 3.27148 C 16.0645 16.2598 22.9004 22.998 35.9863 22.998 Z M 74.3652 -4.58984 C 69.873 -4.58984 67.5781 -6.44531 65.918 -11.084 L 48.2422 -58.0566 C 47.8516 -59.1309 47.7539 -59.9609 47.7539 -60.9863 C 47.7539 -64.0625 50 -66.2109 53.2715 -66.2109 C 56.3477 -66.2109 58.0566 -64.7949 59.0332 -61.4258 L 74.1699 -16.8457 L 74.6094 -16.8457 L 89.6973 -61.4258 C 90.6738 -64.7949 92.3828 -66.2109 95.459 -66.2109 C 98.7305 -66.2109 101.025 -64.0625 101.025 -60.9863 C 101.025 -60.0098 100.928 -59.1797 100.488 -58.0566 L 82.8613 -11.2305 C 81.2988 -6.73828 78.7598 -4.58984 74.3652 -4.58984 Z"/>
  </g>
  <g id="Semibold-L" transform="matrix(1 0 0 1 1968.41 1556)">
   <path d="M 36.6699 23.584 L 113.037 23.584 C 126.514 23.584 133.594 16.5039 133.594 3.17383 L 133.594 -73.5352 C 133.594 -86.8164 126.514 -93.9453 113.037 -93.9453 L 36.6699 -93.9453 C 23.2422 -93.9453 16.0645 -86.8652 16.0645 -73.5352 L 16.0645 3.17383 C 16.0645 16.5527 23.2422 23.584 36.6699 23.584 Z M 75 -4.58984 C 69.7754 -4.58984 67.1387 -6.78711 65.332 -12.0117 L 48.6816 -56.8848 C 48.2422 -58.1055 48.0957 -59.0332 48.0957 -60.1562 C 48.0957 -63.6719 50.6836 -66.1621 54.4434 -66.1621 C 57.9102 -66.1621 59.8145 -64.502 60.8398 -60.5957 L 74.8047 -17.9688 L 75.293 -17.9688 L 89.209 -60.5957 C 90.2344 -64.502 92.1387 -66.1621 95.6543 -66.1621 C 99.4141 -66.1621 102.002 -63.7207 102.002 -60.2051 C 102.002 -59.1309 101.904 -58.1543 101.416 -56.8848 L 84.8145 -12.207 C 83.0566 -7.08008 80.1758 -4.58984 75 -4.58984 Z"/>
  </g>
  <g id="Bold-L" transform="matrix(1 0 0 1 2264.34 1556)">
   <path d="M 37.5488 24.3652 L 113.721 24.3652 C 127.686 24.3652 135.205 16.8945 135.205 3.07617 L 135.205 -73.3887 C 135.205 -87.207 127.686 -94.7266 113.721 -94.7266 L 37.5488 -94.7266 C 23.6328 -94.7266 16.0645 -87.2559 16.0645 -73.3887 L 16.0645 3.07617 C 16.0645 16.8945 23.6328 24.3652 37.5488 24.3652 Z M 75.8789 -4.63867 C 69.6289 -4.63867 66.5527 -7.17773 64.502 -13.1836 L 49.2188 -55.3223 C 48.7305 -56.7871 48.584 -57.8125 48.584 -59.082 C 48.584 -63.2324 51.5625 -66.0156 55.957 -66.0156 C 60.0098 -66.0156 62.207 -64.1113 63.2812 -59.5215 L 75.6348 -19.4336 L 76.1719 -19.4336 L 88.5254 -59.5215 C 89.6484 -64.1602 91.7969 -66.0156 95.8984 -66.0156 C 100.293 -66.0156 103.32 -63.2812 103.32 -59.1797 C 103.32 -57.9102 103.174 -56.8359 102.637 -55.3223 L 87.4023 -13.4766 C 85.4004 -7.4707 82.0801 -4.63867 75.8789 -4.63867 Z"/>
  </g>
  <g id="Heavy-L" transform="matrix(1 0 0 1 2559.91 1556)">
   <path d="M 38.8184 25.4883 L 114.697 25.4883 C 129.346 25.4883 137.451 17.4316 137.451 2.88086 L 137.451 -73.2422 C 137.451 -87.793 129.346 -95.8496 114.697 -95.8496 L 38.8184 -95.8496 C 24.2188 -95.8496 16.0645 -87.793 16.0645 -73.2422 L 16.0645 2.88086 C 16.0645 17.4316 24.2188 25.4883 38.8184 25.4883 Z M 77.0996 -4.6875 C 69.4336 -4.6875 65.6738 -7.8125 63.3301 -14.9414 L 50.0488 -53.125 C 49.4629 -54.834 49.2676 -56.0059 49.2676 -57.5195 C 49.2676 -62.5488 52.832 -65.8691 58.1055 -65.8691 C 63.0371 -65.8691 65.5762 -63.5742 66.7969 -57.959 L 76.9043 -21.5332 L 77.4414 -21.5332 L 87.5 -57.959 C 88.7695 -63.623 91.2598 -65.8691 96.2402 -65.8691 C 101.562 -65.8691 105.176 -62.5977 105.176 -57.666 C 105.176 -56.2012 105.029 -54.9316 104.395 -53.125 L 91.1621 -15.332 C 88.7695 -8.10547 84.7656 -4.6875 77.0996 -4.6875 Z"/>
  </g>
  <g id="Black-L" transform="matrix(1 0 0 1 2855.62 1556)">
   <path d="M 39.9902 26.5137 L 115.576 26.5137 C 130.859 26.5137 139.502 17.8711 139.502 2.68555 L 139.502 -73.0957 C 139.502 -88.2812 130.859 -96.875 115.576 -96.875 L 39.9902 -96.875 C 24.7559 -96.875 16.0645 -88.2812 16.0645 -73.0957 L 16.0645 2.68555 C 16.0645 17.8711 24.7559 26.5137 39.9902 26.5137 Z M 78.1738 -4.73633 C 69.2383 -4.73633 64.8926 -8.34961 62.2559 -16.5039 L 50.7324 -51.123 C 50.0977 -53.125 49.9023 -54.3945 49.9023 -56.1035 C 49.9023 -61.9141 53.9551 -65.7715 60.0586 -65.7715 C 65.7715 -65.7715 68.6523 -63.0859 69.9707 -56.5918 L 78.0273 -23.4375 L 78.6133 -23.4375 L 86.6211 -56.5918 C 87.9883 -63.1348 90.8203 -65.7715 96.5332 -65.7715 C 102.686 -65.7715 106.836 -61.9629 106.836 -56.2988 C 106.836 -54.6387 106.641 -53.2227 105.957 -51.123 L 94.4824 -16.9922 C 91.7969 -8.64258 87.207 -4.73633 78.1738 -4.73633 Z"/>
  </g>
 </g>
</svg>
