<?xml version="1.0" encoding="UTF-8"?>
<!--Generator: Apple Native CoreSVG 123-->
<!DOCTYPE svg
PUBLIC "-//W3C//DTD SVG 1.1//EN"
       "http://www.w3.org/Graphics/SVG/1.1/DTD/svg11.dtd">
<svg version="1.1" xmlns="http://www.w3.org/2000/svg" xmlns:xlink="http://www.w3.org/1999/xlink" width="3300" height="2200">
 <!--glyph: "uni100030.medium", point size: 100.000000, font version: "Version 15.0d4e20", template writer version: "2"-->
 <g id="Notes">
  <rect height="2200" id="artboard" style="fill:white;opacity:1" width="3300" x="0" y="0"/>
  <line id="" style="fill:none;stroke:black;opacity:1;stroke-width:0.5;" x1="263" x2="3036" y1="292" y2="292"/>
  <text style="stroke:none;fill:black;font-family:-apple-system,&quot;SF Pro Display&quot;,&quot;SF Pro Text&quot;,Helvetica,sans-serif;font-weight:bold;" transform="matrix(1 0 0 1 263 322)">Weight/Scale Variations</text>
  <text style="stroke:none;fill:black;font-family:-apple-system,&quot;SF Pro Display&quot;,&quot;SF Pro Text&quot;,Helvetica,sans-serif;text-anchor:middle;" transform="matrix(1 0 0 1 559.711 322)">Ultralight</text>
  <text style="stroke:none;fill:black;font-family:-apple-system,&quot;SF Pro Display&quot;,&quot;SF Pro Text&quot;,Helvetica,sans-serif;text-anchor:middle;" transform="matrix(1 0 0 1 856.422 322)">Thin</text>
  <text style="stroke:none;fill:black;font-family:-apple-system,&quot;SF Pro Display&quot;,&quot;SF Pro Text&quot;,Helvetica,sans-serif;text-anchor:middle;" transform="matrix(1 0 0 1 1153.13 322)">Light</text>
  <text style="stroke:none;fill:black;font-family:-apple-system,&quot;SF Pro Display&quot;,&quot;SF Pro Text&quot;,Helvetica,sans-serif;text-anchor:middle;" transform="matrix(1 0 0 1 1449.84 322)">Regular</text>
  <text style="stroke:none;fill:black;font-family:-apple-system,&quot;SF Pro Display&quot;,&quot;SF Pro Text&quot;,Helvetica,sans-serif;text-anchor:middle;" transform="matrix(1 0 0 1 1746.56 322)">Medium</text>
  <text style="stroke:none;fill:black;font-family:-apple-system,&quot;SF Pro Display&quot;,&quot;SF Pro Text&quot;,Helvetica,sans-serif;text-anchor:middle;" transform="matrix(1 0 0 1 2043.27 322)">Semibold</text>
  <text style="stroke:none;fill:black;font-family:-apple-system,&quot;SF Pro Display&quot;,&quot;SF Pro Text&quot;,Helvetica,sans-serif;text-anchor:middle;" transform="matrix(1 0 0 1 2339.98 322)">Bold</text>
  <text style="stroke:none;fill:black;font-family:-apple-system,&quot;SF Pro Display&quot;,&quot;SF Pro Text&quot;,Helvetica,sans-serif;text-anchor:middle;" transform="matrix(1 0 0 1 2636.69 322)">Heavy</text>
  <text style="stroke:none;fill:black;font-family:-apple-system,&quot;SF Pro Display&quot;,&quot;SF Pro Text&quot;,Helvetica,sans-serif;text-anchor:middle;" transform="matrix(1 0 0 1 2933.4 322)">Black</text>
  <line id="" style="fill:none;stroke:black;opacity:1;stroke-width:0.5;" x1="263" x2="3036" y1="1903" y2="1903"/>
  <g id="" transform="matrix(1 0 0 1 263 1933)">
   <path d="M 9.24805 0.830078 C 13.5547 0.830078 17.1387 -2.74414 17.1387 -7.05078 C 17.1387 -11.3574 13.5449 -14.9316 9.23828 -14.9316 C 4.94141 -14.9316 1.36719 -11.3574 1.36719 -7.05078 C 1.36719 -2.74414 4.95117 0.830078 9.24805 0.830078 Z M 9.24805 -0.654297 C 5.70312 -0.654297 2.87109 -3.49609 2.87109 -7.05078 C 2.87109 -10.6055 5.69336 -13.4473 9.23828 -13.4473 C 12.793 -13.4473 15.6348 -10.6055 15.6445 -7.05078 C 15.6543 -3.49609 12.8027 -0.654297 9.24805 -0.654297 Z M 9.22852 -3.42773 C 9.69727 -3.42773 9.9707 -3.74023 9.9707 -4.25781 L 9.9707 -6.31836 L 12.1973 -6.31836 C 12.6953 -6.31836 13.0371 -6.57227 13.0371 -7.04102 C 13.0371 -7.51953 12.7148 -7.7832 12.1973 -7.7832 L 9.9707 -7.7832 L 9.9707 -10.0098 C 9.9707 -10.5273 9.69727 -10.8496 9.22852 -10.8496 C 8.75977 -10.8496 8.50586 -10.5078 8.50586 -10.0098 L 8.50586 -7.7832 L 6.29883 -7.7832 C 5.78125 -7.7832 5.44922 -7.51953 5.44922 -7.04102 C 5.44922 -6.57227 5.80078 -6.31836 6.29883 -6.31836 L 8.50586 -6.31836 L 8.50586 -4.25781 C 8.50586 -3.75977 8.75977 -3.42773 9.22852 -3.42773 Z"/>
  </g>
  <g id="" transform="matrix(1 0 0 1 281.506 1933)">
   <path d="M 11.709 2.91016 C 17.1484 2.91016 21.6699 -1.60156 21.6699 -7.05078 C 21.6699 -12.4902 17.1387 -17.0117 11.6992 -17.0117 C 6.25 -17.0117 1.74805 -12.4902 1.74805 -7.05078 C 1.74805 -1.60156 6.25977 2.91016 11.709 2.91016 Z M 11.709 1.25 C 7.09961 1.25 3.41797 -2.44141 3.41797 -7.05078 C 3.41797 -11.6504 7.08984 -15.3516 11.6992 -15.3516 C 16.2988 -15.3516 20 -11.6504 20.0098 -7.05078 C 20.0195 -2.44141 16.3086 1.25 11.709 1.25 Z M 11.6797 -2.41211 C 12.207 -2.41211 12.5195 -2.77344 12.5195 -3.33984 L 12.5195 -6.23047 L 15.5762 -6.23047 C 16.123 -6.23047 16.5039 -6.51367 16.5039 -7.03125 C 16.5039 -7.55859 16.1426 -7.86133 15.5762 -7.86133 L 12.5195 -7.86133 L 12.5195 -10.9277 C 12.5195 -11.5039 12.207 -11.8555 11.6797 -11.8555 C 11.1621 -11.8555 10.8789 -11.4844 10.8789 -10.9277 L 10.8789 -7.86133 L 7.83203 -7.86133 C 7.25586 -7.86133 6.89453 -7.55859 6.89453 -7.03125 C 6.89453 -6.51367 7.28516 -6.23047 7.83203 -6.23047 L 10.8789 -6.23047 L 10.8789 -3.33984 C 10.8789 -2.79297 11.1621 -2.41211 11.6797 -2.41211 Z"/>
  </g>
  <g id="" transform="matrix(1 0 0 1 304.914 1933)">
   <path d="M 14.9707 5.67383 C 21.9336 5.67383 27.6855 -0.078125 27.6855 -7.04102 C 27.6855 -14.0039 21.9238 -19.7559 14.9609 -19.7559 C 7.99805 -19.7559 2.25586 -14.0039 2.25586 -7.04102 C 2.25586 -0.078125 8.00781 5.67383 14.9707 5.67383 Z M 14.9707 3.85742 C 8.92578 3.85742 4.08203 -1.00586 4.08203 -7.04102 C 4.08203 -13.0762 8.91602 -17.9395 14.9609 -17.9395 C 20.9961 -17.9395 25.8594 -13.0762 25.8691 -7.04102 C 25.8789 -1.00586 21.0059 3.85742 14.9707 3.85742 Z M 14.9414 -1.06445 C 15.5176 -1.06445 15.8594 -1.45508 15.8594 -2.06055 L 15.8594 -6.13281 L 20.0977 -6.13281 C 20.6934 -6.13281 21.1133 -6.46484 21.1133 -7.02148 C 21.1133 -7.59766 20.7227 -7.93945 20.0977 -7.93945 L 15.8594 -7.93945 L 15.8594 -12.1875 C 15.8594 -12.8027 15.5176 -13.1934 14.9414 -13.1934 C 14.3848 -13.1934 14.0625 -12.7832 14.0625 -12.1875 L 14.0625 -7.93945 L 9.82422 -7.93945 C 9.20898 -7.93945 8.80859 -7.59766 8.80859 -7.02148 C 8.80859 -6.46484 9.23828 -6.13281 9.82422 -6.13281 L 14.0625 -6.13281 L 14.0625 -2.06055 C 14.0625 -1.47461 14.3848 -1.06445 14.9414 -1.06445 Z"/>
  </g>
  <text style="stroke:none;fill:black;font-family:-apple-system,&quot;SF Pro Display&quot;,&quot;SF Pro Text&quot;,Helvetica,sans-serif;font-weight:bold;" transform="matrix(1 0 0 1 263 1953)">Design Variations</text>
  <text style="stroke:none;fill:black;font-family:-apple-system,&quot;SF Pro Display&quot;,&quot;SF Pro Text&quot;,Helvetica,sans-serif;" transform="matrix(1 0 0 1 263 1971)">Symbols are supported in up to nine weights and three scales.</text>
  <text style="stroke:none;fill:black;font-family:-apple-system,&quot;SF Pro Display&quot;,&quot;SF Pro Text&quot;,Helvetica,sans-serif;" transform="matrix(1 0 0 1 263 1989)">For optimal layout with text and other symbols, vertically align</text>
  <text style="stroke:none;fill:black;font-family:-apple-system,&quot;SF Pro Display&quot;,&quot;SF Pro Text&quot;,Helvetica,sans-serif;" transform="matrix(1 0 0 1 263 2007)">symbols with the adjacent text.</text>
  <rect height="14" id="" style="fill:#00AEEF;stroke:none;opacity:0.4;" width="3" x="776" y="1919"/>
  <g id="" transform="matrix(1 0 0 1 779 1933)">
   <path d="M 10.5273 0 L 12.373 0 L 7.17773 -14.0918 L 5.43945 -14.0918 L 0.244141 0 L 2.08984 0 L 3.50586 -4.0332 L 9.11133 -4.0332 Z M 6.2793 -11.9531 L 6.33789 -11.9531 L 8.59375 -5.52734 L 4.02344 -5.52734 Z"/>
  </g>
  <rect height="14" id="" style="fill:#00AEEF;stroke:none;opacity:0.4;" width="3" x="791.617" y="1919"/>
  <text style="stroke:none;fill:black;font-family:-apple-system,&quot;SF Pro Display&quot;,&quot;SF Pro Text&quot;,Helvetica,sans-serif;font-weight:bold;" transform="matrix(1 0 0 1 776 1953)">Side Bearings</text>
  <text style="stroke:none;fill:black;font-family:-apple-system,&quot;SF Pro Display&quot;,&quot;SF Pro Text&quot;,Helvetica,sans-serif;" transform="matrix(1 0 0 1 776 1971)">Horizontal padding on the left and right side of each symbol</text>
  <text style="stroke:none;fill:black;font-family:-apple-system,&quot;SF Pro Display&quot;,&quot;SF Pro Text&quot;,Helvetica,sans-serif;" transform="matrix(1 0 0 1 776 1989)">can be adjusted by modifying the width of the blue rectangles.</text>
  <text style="stroke:none;fill:black;font-family:-apple-system,&quot;SF Pro Display&quot;,&quot;SF Pro Text&quot;,Helvetica,sans-serif;" transform="matrix(1 0 0 1 776 2007)">Modifications are automatically applied proportionally to all</text>
  <text style="stroke:none;fill:black;font-family:-apple-system,&quot;SF Pro Display&quot;,&quot;SF Pro Text&quot;,Helvetica,sans-serif;" transform="matrix(1 0 0 1 776 2025)">scales and weights.</text>
  <g id="" transform="matrix(1 0 0 1 1289 1933)">
   <path d="M 2.96875 2.35352 L 3.80859 3.19336 C 4.84375 4.22852 6.12305 4.15039 7.19727 2.97852 L 16.1621 -6.82617 C 16.5527 -6.74805 16.9629 -6.8457 17.4902 -7.02148 C 18.1738 -7.25586 18.2715 -7.25586 18.3887 -7.13867 C 18.5352 -7.01172 18.4863 -6.89453 18.2422 -6.25 C 17.8809 -5.33203 17.8125 -4.79492 18.5547 -4.02344 L 19.4238 -3.13477 C 20.2734 -2.24609 21.3281 -2.26562 22.2168 -3.14453 L 25.0586 -5.97656 C 25.9473 -6.86523 25.957 -7.92969 25.0781 -8.7793 L 24.1797 -9.64844 C 23.4082 -10.4004 22.8711 -10.3516 21.9629 -9.98047 C 21.3184 -9.72656 21.2012 -9.6875 21.0645 -9.81445 C 20.9375 -9.93164 20.9473 -10.0391 21.1816 -10.7129 C 21.5332 -11.6895 21.5723 -12.2852 20.752 -13.0957 L 19.3359 -14.5117 C 15.1953 -18.6133 11.2305 -18.7402 7.65625 -15.4395 C 7.08008 -14.9023 6.99219 -14.1504 7.53906 -13.6133 L 7.79297 -13.3594 C 8.22266 -12.9297 8.86719 -12.8418 9.41406 -13.1152 C 11.0645 -13.9453 12.2559 -14.0234 13.457 -12.9785 L 13.0273 -11.416 C 12.8516 -10.8008 12.793 -10.3418 12.9199 -9.93164 L 3.18359 -1.04492 C 2.02148 0.0292969 1.93359 1.32812 2.96875 2.35352 Z M 8.96484 -14.4922 C 8.89648 -14.5703 8.86719 -14.6582 8.99414 -14.7559 C 11.709 -17.2852 15.0391 -16.8457 18.3496 -13.5254 L 19.6973 -12.168 C 20.0879 -11.7773 20.0977 -11.582 19.8828 -10.8691 C 19.6582 -10.127 19.502 -9.53125 20.1465 -8.88672 C 20.8105 -8.22266 21.2891 -8.41797 22.207 -8.63281 C 22.9004 -8.79883 23.0664 -8.79883 23.4473 -8.41797 L 24.0918 -7.77344 C 24.4043 -7.48047 24.4141 -7.32422 24.0723 -6.97266 L 21.2207 -4.13086 C 20.8887 -3.79883 20.7227 -3.79883 20.4297 -4.10156 L 19.7852 -4.75586 C 19.4141 -5.13672 19.4141 -5.30273 19.5801 -6.01562 C 19.7852 -6.88477 19.9805 -7.38281 19.3262 -8.04688 C 18.6719 -8.7207 18.0762 -8.57422 17.3438 -8.33008 C 16.5625 -8.06641 16.3281 -8.06641 15.8984 -8.49609 L 14.6094 -9.78516 C 14.1699 -10.2246 14.1309 -10.4395 14.2676 -10.9082 L 15.0293 -13.3984 C 13.3887 -15.2832 11.4941 -15.5566 9.20898 -14.4434 C 9.11133 -14.3945 9.04297 -14.4141 8.96484 -14.4922 Z M 3.96484 1.36719 C 3.52539 0.927734 3.54492 0.537109 4.14062 -0.00976562 L 13.7402 -8.81836 L 15 -7.55859 L 6.17188 2.02148 C 5.625 2.60742 5.24414 2.64648 4.79492 2.19727 Z"/>
  </g>
  <text style="stroke:none;fill:black;font-family:-apple-system,&quot;SF Pro Display&quot;,&quot;SF Pro Text&quot;,Helvetica,sans-serif;font-weight:bold;" transform="matrix(1 0 0 1 1289 1953)">Exporting</text>
  <text style="stroke:none;fill:black;font-family:-apple-system,&quot;SF Pro Display&quot;,&quot;SF Pro Text&quot;,Helvetica,sans-serif;" transform="matrix(1 0 0 1 1289 1971)">Symbols should be outlined when exporting to ensure the</text>
  <text style="stroke:none;fill:black;font-family:-apple-system,&quot;SF Pro Display&quot;,&quot;SF Pro Text&quot;,Helvetica,sans-serif;" transform="matrix(1 0 0 1 1289 1989)">design is preserved when submitting to Xcode.</text>
  <text id="template-version" style="stroke:none;fill:black;font-family:-apple-system,&quot;SF Pro Display&quot;,&quot;SF Pro Text&quot;,Helvetica,sans-serif;text-anchor:end;" transform="matrix(1 0 0 1 3036 1933)">Template v.0.1</text>
  <text style="stroke:none;fill:black;font-family:-apple-system,&quot;SF Pro Display&quot;,&quot;SF Pro Text&quot;,Helvetica,sans-serif;text-anchor:end;" transform="matrix(1 0 0 1 3036 1951)">Generated from w.circle</text>
  <text style="stroke:none;fill:black;font-family:-apple-system,&quot;SF Pro Display&quot;,&quot;SF Pro Text&quot;,Helvetica,sans-serif;text-anchor:end;" transform="matrix(1 0 0 1 3036 1969)">Typeset at 100 points</text>
  <text style="stroke:none;fill:black;font-family:-apple-system,&quot;SF Pro Display&quot;,&quot;SF Pro Text&quot;,Helvetica,sans-serif;" transform="matrix(1 0 0 1 263 726)">Small</text>
  <text style="stroke:none;fill:black;font-family:-apple-system,&quot;SF Pro Display&quot;,&quot;SF Pro Text&quot;,Helvetica,sans-serif;" transform="matrix(1 0 0 1 263 1156)">Medium</text>
  <text style="stroke:none;fill:black;font-family:-apple-system,&quot;SF Pro Display&quot;,&quot;SF Pro Text&quot;,Helvetica,sans-serif;" transform="matrix(1 0 0 1 263 1586)">Large</text>
 </g>
 <g id="Guides">
  <g id="H-reference" style="fill:#27AAE1;stroke:none;" transform="matrix(1 0 0 1 339 696)">
   <path d="M 54.9316 0 L 57.666 0 L 30.5664 -70.459 L 28.0762 -70.459 L 0.976562 0 L 3.66211 0 L 12.9395 -24.4629 L 45.7031 -24.4629 Z M 29.1992 -67.0898 L 29.4434 -67.0898 L 44.8242 -26.709 L 13.8184 -26.709 Z"/>
  </g>
  <line id="Baseline-S" style="fill:none;stroke:#27AAE1;opacity:1;stroke-width:0.577;" x1="263" x2="3036" y1="696" y2="696"/>
  <line id="Capline-S" style="fill:none;stroke:#27AAE1;opacity:1;stroke-width:0.577;" x1="263" x2="3036" y1="625.541" y2="625.541"/>
  <g id="H-reference" style="fill:#27AAE1;stroke:none;" transform="matrix(1 0 0 1 339 1126)">
   <path d="M 54.9316 0 L 57.666 0 L 30.5664 -70.459 L 28.0762 -70.459 L 0.976562 0 L 3.66211 0 L 12.9395 -24.4629 L 45.7031 -24.4629 Z M 29.1992 -67.0898 L 29.4434 -67.0898 L 44.8242 -26.709 L 13.8184 -26.709 Z"/>
  </g>
  <line id="Baseline-M" style="fill:none;stroke:#27AAE1;opacity:1;stroke-width:0.577;" x1="263" x2="3036" y1="1126" y2="1126"/>
  <line id="Capline-M" style="fill:none;stroke:#27AAE1;opacity:1;stroke-width:0.577;" x1="263" x2="3036" y1="1055.54" y2="1055.54"/>
  <g id="H-reference" style="fill:#27AAE1;stroke:none;" transform="matrix(1 0 0 1 339 1556)">
   <path d="M 54.9316 0 L 57.666 0 L 30.5664 -70.459 L 28.0762 -70.459 L 0.976562 0 L 3.66211 0 L 12.9395 -24.4629 L 45.7031 -24.4629 Z M 29.1992 -67.0898 L 29.4434 -67.0898 L 44.8242 -26.709 L 13.8184 -26.709 Z"/>
  </g>
  <line id="Baseline-L" style="fill:none;stroke:#27AAE1;opacity:1;stroke-width:0.577;" x1="263" x2="3036" y1="1556" y2="1556"/>
  <line id="Capline-L" style="fill:none;stroke:#27AAE1;opacity:1;stroke-width:0.577;" x1="263" x2="3036" y1="1485.54" y2="1485.54"/>
  <rect height="119.336" id="left-margin" style="fill:#00AEEF;stroke:none;opacity:0.4;" width="8.74023" x="1391.32" y="1030.79"/>
  <rect height="119.336" id="right-margin" style="fill:#00AEEF;stroke:none;opacity:0.4;" width="8.69141" x="1499.67" y="1030.79"/>
 </g>
 <g id="Symbols">
  <g id="Ultralight-S" transform="matrix(1 0 0 1 515.644 696)">
   <path d="M 44.043 2.05078 C 64.502 2.05078 81.2988 -14.6973 81.2988 -35.1562 C 81.2988 -55.6152 64.502 -72.3633 44.043 -72.3633 C 23.584 -72.3633 6.83594 -55.6152 6.83594 -35.1562 C 6.83594 -14.6973 23.584 2.05078 44.043 2.05078 Z M 44.043 -0.146484 C 24.7559 -0.146484 9.08203 -15.8691 9.08203 -35.1562 C 9.08203 -54.4434 24.7559 -70.166 44.043 -70.166 C 63.3789 -70.166 79.0527 -54.4434 79.0527 -35.1562 C 79.0527 -15.8691 63.3789 -0.146484 44.043 -0.146484 Z M 34.375 -17.9688 C 35.4492 -17.9688 35.9863 -18.457 36.2305 -19.4336 L 43.9453 -48.3887 L 44.1406 -48.3887 L 51.8555 -19.4336 C 52.1484 -18.457 52.6855 -17.9688 53.7109 -17.9688 C 54.7363 -17.9688 55.2734 -18.457 55.5664 -19.4824 L 63.3789 -50.7812 C 63.4277 -50.9766 63.4277 -51.0742 63.4277 -51.2207 C 63.4277 -51.8555 62.9883 -52.2461 62.3047 -52.2461 C 61.6699 -52.2461 61.377 -51.9531 61.1816 -51.2695 L 53.8086 -21.2402 L 53.6133 -21.2402 L 45.5078 -50.9277 C 45.2637 -51.709 44.873 -52.0508 44.043 -52.0508 C 43.3105 -52.0508 42.8223 -51.709 42.627 -50.9277 L 34.5215 -21.2402 L 34.3262 -21.2402 L 26.9043 -51.2695 C 26.7578 -51.9531 26.416 -52.2461 25.7812 -52.2461 C 25.0977 -52.2461 24.6582 -51.8555 24.6582 -51.2207 C 24.6582 -51.0742 24.6582 -50.9766 24.707 -50.7812 L 32.5684 -19.4824 C 32.8125 -18.457 33.3496 -17.9688 34.375 -17.9688 Z"/>
  </g>
  <g id="Thin-S" transform="matrix(1 0 0 1 811.867 696)">
   <path d="M 44.5801 2.53906 C 65.2832 2.53906 82.2754 -14.4531 82.2754 -35.2051 C 82.2754 -55.9082 65.2344 -72.9004 44.5312 -72.9004 C 23.8281 -72.9004 6.83594 -55.9082 6.83594 -35.2051 C 6.83594 -14.4531 23.877 2.53906 44.5801 2.53906 Z M 44.5801 -0.878906 C 25.5859 -0.878906 10.2539 -16.2109 10.2539 -35.2051 C 10.2539 -54.1504 25.5859 -69.4824 44.5312 -69.4824 C 63.5254 -69.4824 78.8574 -54.1504 78.8574 -35.2051 C 78.8574 -16.2109 63.5254 -0.878906 44.5801 -0.878906 Z M 34.7168 -17.7734 C 36.0352 -17.7734 36.8164 -18.4082 37.1094 -19.6777 L 44.4336 -47.2656 L 44.6289 -47.2656 L 51.9531 -19.6777 C 52.2461 -18.4082 53.0273 -17.7734 54.3457 -17.7734 C 55.6641 -17.7734 56.3965 -18.4082 56.7383 -19.7266 L 64.502 -50.3906 C 64.5996 -50.6836 64.5996 -50.8301 64.5996 -51.0254 C 64.5996 -52.002 63.9648 -52.5879 62.9395 -52.5879 C 62.0117 -52.5879 61.5723 -52.1484 61.2793 -51.0254 L 54.3457 -22.6074 L 54.1504 -22.6074 L 46.4844 -50.8789 C 46.2402 -51.9531 45.6055 -52.3926 44.5312 -52.3926 C 43.5059 -52.3926 42.8223 -51.9531 42.5781 -50.8789 L 34.9609 -22.6074 L 34.7168 -22.6074 L 27.7832 -51.0254 C 27.5391 -52.1484 27.0508 -52.5879 26.123 -52.5879 C 25.1465 -52.5879 24.4629 -52.002 24.4629 -51.0254 C 24.4629 -50.8301 24.5117 -50.6836 24.5605 -50.3906 L 32.3242 -19.7266 C 32.666 -18.4082 33.3984 -17.7734 34.7168 -17.7734 Z"/>
  </g>
  <g id="Light-S" transform="matrix(1 0 0 1 1107.6 696)">
   <path d="M 45.5078 3.4668 C 66.6992 3.4668 84.2285 -14.0625 84.2285 -35.2051 C 84.2285 -56.3965 66.6504 -73.9258 45.5078 -73.9258 C 24.3164 -73.9258 6.83594 -56.3965 6.83594 -35.2051 C 6.83594 -14.0625 24.3652 3.4668 45.5078 3.4668 Z M 45.5078 -2.24609 C 27.2461 -2.24609 12.5977 -16.9434 12.5977 -35.2051 C 12.5977 -53.5156 27.1973 -68.2129 45.5078 -68.2129 C 63.7695 -68.2129 78.4668 -53.5156 78.5156 -35.2051 C 78.5156 -16.9434 63.8184 -2.24609 45.5078 -2.24609 Z M 35.3516 -17.4316 C 37.207 -17.4316 38.4277 -18.3594 38.8672 -20.1172 L 45.3125 -45.166 L 45.6055 -45.166 L 52.0996 -20.1172 C 52.4902 -18.3594 53.7109 -17.4316 55.5664 -17.4316 C 57.4219 -17.4316 58.5449 -18.4082 59.0332 -20.2148 L 66.6504 -49.6582 C 66.7969 -50.0488 66.7969 -50.3418 66.7969 -50.6836 C 66.7969 -52.1484 65.7715 -53.2227 64.209 -53.2227 C 62.6465 -53.2227 61.9141 -52.4902 61.4746 -50.5371 L 55.4199 -25.1953 L 55.1758 -25.1953 L 48.4375 -50.8789 C 48.0469 -52.3926 47.0703 -53.125 45.459 -53.125 C 43.8477 -53.125 42.8711 -52.3926 42.4805 -50.8789 L 35.7422 -25.1953 L 35.498 -25.1953 L 29.4922 -50.5371 C 29.0527 -52.4902 28.3203 -53.2227 26.7578 -53.2227 C 25.1465 -53.2227 24.1211 -52.1484 24.1211 -50.6836 C 24.1211 -50.3418 24.1699 -50.0488 24.2676 -49.6582 L 31.8848 -20.2148 C 32.373 -18.4082 33.4961 -17.4316 35.3516 -17.4316 Z"/>
  </g>
  <g id="Regular-S" transform="matrix(1 0 0 1 1403.58 696)">
   <path d="M 46.2402 4.15039 C 67.7734 4.15039 85.6934 -13.7207 85.6934 -35.2539 C 85.6934 -56.7871 67.7246 -74.6582 46.1914 -74.6582 C 24.707 -74.6582 6.83594 -56.7871 6.83594 -35.2539 C 6.83594 -13.7207 24.7559 4.15039 46.2402 4.15039 Z M 46.2402 -3.27148 C 28.5156 -3.27148 14.3555 -17.4805 14.3555 -35.2539 C 14.3555 -53.0273 28.4668 -67.2363 46.1914 -67.2363 C 63.9648 -67.2363 78.1738 -53.0273 78.2227 -35.2539 C 78.2715 -17.4805 64.0137 -3.27148 46.2402 -3.27148 Z M 35.791 -17.1875 C 38.0859 -17.1875 39.6484 -18.3105 40.1367 -20.459 L 46.0449 -43.5547 L 46.2891 -43.5547 L 52.1973 -20.459 C 52.6855 -18.3105 54.248 -17.1875 56.543 -17.1875 C 58.7402 -17.1875 60.2051 -18.3594 60.791 -20.5566 L 68.3105 -49.0723 C 68.457 -49.5605 68.5059 -49.9512 68.5059 -50.3906 C 68.5059 -52.2949 67.1875 -53.6621 65.1855 -53.6621 C 63.0859 -53.6621 62.1582 -52.7344 61.6211 -50.1953 L 56.25 -27.1484 L 55.957 -27.1484 L 49.9512 -50.8301 C 49.4141 -52.7344 48.1934 -53.6621 46.1426 -53.6621 C 44.1406 -53.6621 42.8711 -52.7344 42.3828 -50.8301 L 36.377 -27.1484 L 36.084 -27.1484 L 30.7617 -50.1953 C 30.2246 -52.7344 29.2969 -53.6621 27.1973 -53.6621 C 25.1953 -53.6621 23.877 -52.2949 23.877 -50.3906 C 23.877 -49.9512 23.9258 -49.5605 24.0723 -49.0723 L 31.543 -20.5566 C 32.1289 -18.3594 33.5938 -17.1875 35.791 -17.1875 Z"/>
  </g>
  <g id="Medium-S" transform="matrix(1 0 0 1 1699.7 696)">
   <path d="M 46.8262 4.78516 C 68.75 4.78516 86.8652 -13.3301 86.8652 -35.2539 C 86.8652 -57.1289 68.7012 -75.2441 46.8262 -75.2441 C 24.9023 -75.2441 6.83594 -57.1289 6.83594 -35.2539 C 6.83594 -13.3301 24.9512 4.78516 46.8262 4.78516 Z M 46.8262 -4.19922 C 29.6387 -4.19922 15.8691 -18.0176 15.8691 -35.2539 C 15.8691 -52.4414 29.5898 -66.2598 46.8262 -66.2598 C 64.0137 -66.2598 77.832 -52.4414 77.8809 -35.2539 C 77.8809 -18.0176 64.0625 -4.19922 46.8262 -4.19922 Z M 36.7676 -17.334 C 39.3066 -17.334 41.0156 -18.6523 41.5527 -21.1914 L 46.6309 -41.748 L 46.9238 -41.748 L 51.9531 -21.1914 C 52.5391 -18.6523 54.248 -17.334 56.7871 -17.334 C 59.3262 -17.334 60.9375 -18.6523 61.5234 -21.1914 L 68.2617 -48.4375 C 68.4082 -48.9258 68.457 -49.3164 68.457 -49.7559 C 68.457 -51.9043 66.9922 -53.418 64.7461 -53.418 C 62.5 -53.418 61.377 -52.2949 60.8398 -49.6094 L 56.3477 -28.0762 L 56.0547 -28.0762 L 50.7812 -50.0977 C 50.293 -52.1973 48.9746 -53.2227 46.7773 -53.2227 C 44.5801 -53.2227 43.2617 -52.1973 42.7734 -50.0977 L 37.5 -28.0762 L 37.207 -28.0762 L 32.7148 -49.6094 C 32.2266 -52.2949 31.1035 -53.418 28.8086 -53.418 C 26.6113 -53.418 25.1465 -51.9043 25.1465 -49.7559 C 25.1465 -49.3164 25.1465 -48.9258 25.293 -48.4375 L 32.0312 -21.1914 C 32.6172 -18.6523 34.1797 -17.334 36.7676 -17.334 Z"/>
  </g>
  <g id="Semibold-S" transform="matrix(1 0 0 1 1995.98 696)">
   <path d="M 47.3145 5.22461 C 69.4824 5.22461 87.7441 -13.0371 87.7441 -35.2539 C 87.7441 -57.4219 69.4336 -75.6836 47.2656 -75.6836 C 25.0977 -75.6836 6.83594 -57.4219 6.83594 -35.2539 C 6.83594 -13.0371 25.0977 5.22461 47.3145 5.22461 Z M 47.3145 -4.93164 C 30.4688 -4.93164 17.041 -18.4082 17.041 -35.2539 C 17.041 -52.0508 30.4688 -65.5273 47.2656 -65.5273 C 64.0625 -65.5273 77.5879 -52.0508 77.5879 -35.2539 C 77.6367 -18.4082 64.1113 -4.93164 47.3145 -4.93164 Z M 37.5 -17.4316 C 40.2344 -17.4316 42.041 -18.8965 42.6758 -21.7773 L 47.0703 -40.3809 L 47.4121 -40.3809 L 51.8066 -21.7773 C 52.3926 -18.8965 54.1992 -17.4316 56.9824 -17.4316 C 59.8145 -17.4316 61.4746 -18.8477 62.1094 -21.7285 L 68.2617 -47.998 C 68.3594 -48.4375 68.4082 -48.877 68.4082 -49.2676 C 68.4082 -51.5625 66.8457 -53.2227 64.4531 -53.2227 C 62.0605 -53.2227 60.7422 -51.9043 60.2539 -49.1211 L 56.3965 -28.7598 L 56.1035 -28.7598 L 51.416 -49.5605 C 50.9277 -51.7578 49.5605 -52.8809 47.2168 -52.8809 C 44.9219 -52.8809 43.5547 -51.8066 43.0664 -49.5605 L 38.3789 -28.7598 L 38.0371 -28.7598 L 34.2285 -49.1211 C 33.7402 -51.9043 32.4707 -53.2227 30.0781 -53.2227 C 27.6855 -53.2227 26.123 -51.5625 26.123 -49.2676 C 26.123 -48.877 26.123 -48.4375 26.2695 -47.998 L 32.373 -21.7285 C 32.959 -18.8477 34.668 -17.4316 37.5 -17.4316 Z"/>
  </g>
  <g id="Bold-S" transform="matrix(1 0 0 1 2292.1 696)">
   <path d="M 47.9004 5.81055 C 70.4102 5.81055 88.916 -12.6465 88.916 -35.2051 C 88.916 -57.7637 70.4102 -76.2695 47.8516 -76.2695 C 25.293 -76.2695 6.83594 -57.7637 6.83594 -35.2051 C 6.83594 -12.6465 25.3418 5.81055 47.9004 5.81055 Z M 47.9004 -5.85938 C 31.6406 -5.85938 18.5547 -18.9453 18.5547 -35.2051 C 18.5547 -51.4648 31.5918 -64.5508 47.8516 -64.5508 C 64.1113 -64.5508 77.1973 -51.4648 77.2461 -35.2051 C 77.2461 -18.9453 64.1602 -5.85938 47.9004 -5.85938 Z M 38.4766 -17.5781 C 41.5039 -17.5781 43.457 -19.2383 44.0918 -22.5098 L 47.6562 -38.5254 L 48.0469 -38.5254 L 51.6113 -22.5098 C 52.2461 -19.2383 54.1992 -17.5781 57.2266 -17.5781 C 60.4004 -17.5781 62.207 -19.1406 62.8418 -22.3633 L 68.2129 -47.3633 C 68.3105 -47.8027 68.3594 -48.2422 68.3594 -48.6328 C 68.3594 -51.123 66.6016 -52.9297 64.0137 -52.9297 C 61.4258 -52.9297 59.9609 -51.4648 59.5215 -48.4863 L 56.4941 -29.7363 L 56.1523 -29.7363 L 52.2461 -48.8281 C 51.8066 -51.2207 50.3418 -52.4414 47.8516 -52.4414 C 45.3613 -52.4414 43.9453 -51.2695 43.457 -48.8281 L 39.5508 -29.7363 L 39.209 -29.7363 L 36.1816 -48.4863 C 35.791 -51.4648 34.2773 -52.9297 31.6895 -52.9297 C 29.1016 -52.9297 27.3926 -51.123 27.3926 -48.6328 C 27.3926 -48.2422 27.3926 -47.8027 27.4902 -47.3633 L 32.8125 -22.3633 C 33.4961 -19.1406 35.3027 -17.5781 38.4766 -17.5781 Z"/>
  </g>
  <g id="Heavy-S" transform="matrix(1 0 0 1 2587.96 696)">
   <path d="M 48.7305 6.68945 C 71.8262 6.68945 90.625 -12.1094 90.625 -35.2051 C 90.625 -58.3008 71.8262 -77.0996 48.7305 -77.0996 C 25.6348 -77.0996 6.83594 -58.3008 6.83594 -35.2051 C 6.83594 -12.1094 25.6348 6.68945 48.7305 6.68945 Z M 48.7305 -7.22656 C 33.3008 -7.22656 20.752 -19.7266 20.752 -35.2051 C 20.752 -50.6836 33.3008 -63.1836 48.7305 -63.1836 C 64.209 -63.1836 76.709 -50.6836 76.709 -35.2051 C 76.709 -19.7266 64.209 -7.22656 48.7305 -7.22656 Z M 39.8926 -17.7734 C 43.3105 -17.7734 45.459 -19.7266 46.1914 -23.584 L 48.5352 -35.8887 L 48.9258 -35.8887 L 51.2695 -23.584 C 52.002 -19.7266 54.1992 -17.7734 57.6172 -17.7734 C 61.2793 -17.7734 63.2812 -19.5312 63.9648 -23.3398 L 68.1641 -46.4844 C 68.2617 -46.9238 68.2617 -47.3145 68.2617 -47.7051 C 68.2617 -50.4883 66.3086 -52.5391 63.4277 -52.5391 C 60.5469 -52.5391 58.7402 -50.7812 58.3984 -47.6074 L 56.6406 -31.1035 L 56.25 -31.1035 L 53.4668 -47.7539 C 53.0273 -50.4395 51.4648 -51.8066 48.7305 -51.8066 C 46.0449 -51.8066 44.5312 -50.5371 44.043 -47.8027 L 41.2109 -31.1035 L 40.8203 -31.1035 L 39.0625 -47.6074 C 38.7207 -50.7812 36.9141 -52.5391 34.0332 -52.5391 C 31.1523 -52.5391 29.248 -50.4883 29.248 -47.7051 C 29.248 -47.3145 29.248 -46.9238 29.3457 -46.4844 L 33.4961 -23.3398 C 34.1797 -19.5312 36.2305 -17.7734 39.8926 -17.7734 Z"/>
  </g>
  <g id="Black-S" transform="matrix(1 0 0 1 2883.89 696)">
   <path d="M 49.5117 7.4707 C 73.0957 7.4707 92.1875 -11.6211 92.1875 -35.2051 C 92.1875 -58.7891 73.0957 -77.8809 49.5117 -77.8809 C 25.9277 -77.8809 6.83594 -58.7891 6.83594 -35.2051 C 6.83594 -11.6211 25.9277 7.4707 49.5117 7.4707 Z M 49.5117 -8.44727 C 34.7656 -8.44727 22.7539 -20.459 22.7539 -35.2051 C 22.7539 -49.9512 34.7656 -61.9141 49.5117 -61.9141 C 64.2578 -61.9141 76.2695 -49.9512 76.2207 -35.2051 C 76.2207 -20.459 64.2578 -8.44727 49.5117 -8.44727 Z M 41.1133 -17.9688 C 44.9219 -17.9688 47.2656 -20.166 48.0469 -24.5605 L 49.3164 -33.5449 L 49.7559 -33.5449 L 51.0254 -24.5605 C 51.8066 -20.166 54.1504 -17.9688 57.959 -17.9688 C 62.0605 -17.9688 64.2578 -19.9219 64.9414 -24.2188 L 68.1152 -45.6543 C 68.2129 -46.0938 68.1641 -46.4844 68.1641 -46.8262 C 68.1641 -49.9023 66.0645 -52.1973 62.8906 -52.1973 C 59.7656 -52.1973 57.7148 -50.1465 57.4219 -46.7773 L 56.7871 -32.2754 L 56.3477 -32.2754 L 54.541 -46.7773 C 54.1504 -49.707 52.4414 -51.2695 49.5117 -51.2695 C 46.6309 -51.2695 45.0684 -49.8535 44.5801 -46.8262 L 42.7246 -32.2754 L 42.2852 -32.2754 L 41.6016 -46.7773 C 41.3574 -50.1465 39.3066 -52.1973 36.1328 -52.1973 C 33.0078 -52.1973 30.8594 -49.9023 30.8594 -46.8262 C 30.8594 -46.4844 30.8594 -46.0938 30.957 -45.6543 L 34.1309 -24.2188 C 34.8145 -19.9219 37.0117 -17.9688 41.1133 -17.9688 Z"/>
  </g>
  <g id="Ultralight-M" transform="matrix(1 0 0 1 503.656 1126)">
   <path d="M 56.0547 12.207 C 82.0801 12.207 103.369 -9.08203 103.369 -35.1562 C 103.369 -61.1816 82.0801 -82.4707 56.0547 -82.4707 C 30.0293 -82.4707 8.74023 -61.1816 8.74023 -35.1562 C 8.74023 -9.08203 30.0293 12.207 56.0547 12.207 Z M 56.0547 9.81445 C 31.25 9.81445 11.1328 -10.3516 11.1328 -35.1562 C 11.1328 -59.9121 31.25 -80.0781 56.0547 -80.0781 C 80.8105 -80.0781 100.977 -59.9121 100.977 -35.1562 C 100.977 -10.3516 80.8105 9.81445 56.0547 9.81445 Z M 43.7988 -13.2812 C 45.0195 -13.2812 45.6055 -13.8184 45.8984 -14.9902 L 55.9082 -52.4414 L 56.1523 -52.4414 L 66.1621 -14.9902 C 66.5039 -13.8184 67.0898 -13.2812 68.3105 -13.2812 C 69.5312 -13.2812 70.1172 -13.8184 70.459 -15.0391 L 80.4688 -55.2246 C 80.5664 -55.4688 80.5664 -55.5176 80.5664 -55.7129 C 80.5664 -56.4453 80.0781 -56.8359 79.2969 -56.8359 C 78.6133 -56.8359 78.2715 -56.4941 78.0762 -55.8105 L 68.457 -16.8945 L 68.2129 -16.8945 L 57.666 -55.2734 C 57.4219 -56.2012 56.9336 -56.543 56.0547 -56.543 C 55.2246 -56.543 54.6387 -56.2012 54.3945 -55.2734 L 43.8965 -16.8945 L 43.6523 -16.8945 L 34.0332 -55.8105 C 33.8379 -56.4941 33.4473 -56.8359 32.8125 -56.8359 C 32.0312 -56.8359 31.543 -56.4453 31.543 -55.7129 C 31.543 -55.5176 31.543 -55.4688 31.5918 -55.2246 L 41.6504 -15.0391 C 41.9434 -13.8184 42.5781 -13.2812 43.7988 -13.2812 Z"/>
  </g>
  <g id="Thin-M" transform="matrix(1 0 0 1 799.806 1126)">
   <path d="M 56.5918 12.7441 C 82.9102 12.7441 104.492 -8.83789 104.492 -35.1562 C 104.492 -61.4746 82.9102 -83.0566 56.5918 -83.0566 C 30.3223 -83.0566 8.74023 -61.4746 8.74023 -35.1562 C 8.74023 -8.83789 30.3223 12.7441 56.5918 12.7441 Z M 56.5918 8.98438 C 32.2266 8.98438 12.4512 -10.791 12.4512 -35.1562 C 12.4512 -59.5215 32.2266 -79.2969 56.5918 -79.2969 C 80.957 -79.2969 100.781 -59.5215 100.781 -35.1562 C 100.781 -10.791 81.0059 8.98438 56.5918 8.98438 Z M 44.1406 -13.0859 C 45.7031 -13.0859 46.5332 -13.7695 46.9238 -15.2344 L 56.4453 -51.2207 L 56.7383 -51.2207 L 66.2598 -15.2344 C 66.6504 -13.7695 67.4805 -13.0859 69.043 -13.0859 C 70.5566 -13.0859 71.3867 -13.8184 71.7773 -15.332 L 81.7383 -54.7852 C 81.8359 -55.127 81.8359 -55.2734 81.8359 -55.5176 C 81.8359 -56.543 81.1523 -57.2266 80.0293 -57.2266 C 79.0039 -57.2266 78.4668 -56.6895 78.1738 -55.5176 L 69.0918 -18.3594 L 68.7988 -18.3594 L 58.8379 -55.2246 C 58.4961 -56.4453 57.8125 -56.9336 56.5918 -56.9336 C 55.4199 -56.9336 54.6875 -56.4453 54.3457 -55.2246 L 44.3848 -18.3594 L 44.0918 -18.3594 L 35.0098 -55.5176 C 34.7168 -56.6895 34.1797 -57.2266 33.1543 -57.2266 C 32.0312 -57.2266 31.3477 -56.543 31.3477 -55.5176 C 31.3477 -55.2734 31.3477 -55.127 31.4453 -54.7852 L 41.4062 -15.332 C 41.7969 -13.8184 42.627 -13.0859 44.1406 -13.0859 Z"/>
  </g>
  <g id="Light-M" transform="matrix(1 0 0 1 1095.42 1126)">
   <path d="M 57.7148 13.7695 C 84.5215 13.7695 106.689 -8.39844 106.689 -35.2051 C 106.689 -62.0117 84.4727 -84.1797 57.666 -84.1797 C 30.8594 -84.1797 8.74023 -62.0117 8.74023 -35.2051 C 8.74023 -8.39844 30.8594 13.7695 57.7148 13.7695 Z M 57.7148 7.4707 C 34.082 7.4707 15.0879 -11.5723 15.0879 -35.2051 C 15.0879 -58.8379 34.0332 -77.832 57.666 -77.832 C 81.2988 -77.832 100.342 -58.8379 100.342 -35.2051 C 100.391 -11.5723 81.2988 7.4707 57.7148 7.4707 Z M 44.8242 -12.6953 C 46.9727 -12.6953 48.3398 -13.7207 48.877 -15.7227 L 57.4707 -48.7793 L 57.8125 -48.7793 L 66.4062 -15.7227 C 66.8945 -13.7207 68.2617 -12.6953 70.4102 -12.6953 C 72.5586 -12.6953 73.8281 -13.7695 74.3652 -15.8203 L 84.1797 -53.9551 C 84.3262 -54.3945 84.375 -54.6875 84.375 -55.0781 C 84.375 -56.7871 83.2031 -57.9102 81.4453 -57.9102 C 79.6875 -57.9102 78.8574 -57.0801 78.3691 -54.9805 L 70.3125 -21.3379 L 69.9707 -21.3379 L 61.0352 -55.2246 C 60.5469 -56.9336 59.4727 -57.7637 57.6172 -57.7637 C 55.8105 -57.7637 54.6875 -56.9336 54.248 -55.2246 L 45.3125 -21.3379 L 44.9707 -21.3379 L 36.9141 -54.9805 C 36.4746 -57.0801 35.6445 -57.9102 33.8867 -57.9102 C 32.0801 -57.9102 30.957 -56.7871 30.957 -55.0781 C 30.957 -54.6875 31.0059 -54.3945 31.1035 -53.9551 L 40.8691 -15.8203 C 41.4062 -13.7695 42.7246 -12.6953 44.8242 -12.6953 Z"/>
  </g>
  <g id="Regular-M" transform="matrix(1 0 0 1 1391.32 1126)">
   <path d="M 58.5449 14.5508 C 85.7422 14.5508 108.35 -8.00781 108.35 -35.2539 C 108.35 -62.4512 85.6934 -85.0586 58.4961 -85.0586 C 31.25 -85.0586 8.74023 -62.4512 8.74023 -35.2539 C 8.74023 -8.00781 31.2988 14.5508 58.5449 14.5508 Z M 58.5449 6.25 C 35.498 6.25 17.0898 -12.207 17.0898 -35.2539 C 17.0898 -58.252 35.4492 -76.7578 58.4961 -76.7578 C 81.4941 -76.7578 100 -58.252 100.049 -35.2539 C 100.098 -12.207 81.543 6.25 58.5449 6.25 Z M 45.3613 -12.4023 C 47.998 -12.4023 49.7559 -13.6719 50.3418 -16.1133 L 58.252 -46.9727 L 58.5938 -46.9727 L 66.5527 -16.1133 C 67.1387 -13.6719 68.8965 -12.4023 71.4844 -12.4023 C 74.0723 -12.4023 75.6836 -13.7207 76.3672 -16.2598 L 86.0352 -53.3203 C 86.2305 -53.8574 86.2793 -54.2969 86.2793 -54.7852 C 86.2793 -56.9336 84.7656 -58.4473 82.5195 -58.4473 C 80.2246 -58.4473 79.1504 -57.373 78.5156 -54.5898 L 71.2402 -23.5352 L 70.8984 -23.5352 L 62.6953 -55.1758 C 62.1094 -57.3242 60.7422 -58.3984 58.4473 -58.3984 C 56.1523 -58.3984 54.6875 -57.3242 54.1504 -55.1758 L 45.9961 -23.5352 L 45.6543 -23.5352 L 38.3789 -54.5898 C 37.7441 -57.373 36.7188 -58.4473 34.4238 -58.4473 C 32.1289 -58.4473 30.6641 -56.9336 30.6641 -54.7852 C 30.6641 -54.2969 30.7129 -53.8574 30.8594 -53.3203 L 40.5273 -16.2598 C 41.1621 -13.7207 42.8223 -12.4023 45.3613 -12.4023 Z"/>
  </g>
  <g id="Medium-M" transform="matrix(1 0 0 1 1687.33 1126)">
   <path d="M 59.2285 15.2832 C 86.8652 15.2832 109.717 -7.56836 109.717 -35.2051 C 109.717 -62.8906 86.8164 -85.7422 59.1797 -85.7422 C 31.543 -85.7422 8.74023 -62.8906 8.74023 -35.2051 C 8.74023 -7.56836 31.5918 15.2832 59.2285 15.2832 Z M 59.2285 5.17578 C 36.8164 5.17578 18.8477 -12.8418 18.8477 -35.2051 C 18.8477 -57.6172 36.7676 -75.6348 59.1797 -75.6348 C 81.5918 -75.6348 99.6094 -57.6172 99.6582 -35.2051 C 99.6582 -12.8418 81.6406 5.17578 59.2285 5.17578 Z M 46.4355 -12.5 C 49.3652 -12.5 51.3184 -14.0137 51.9531 -16.9434 L 58.9844 -44.9219 L 59.3262 -44.9219 L 66.3086 -16.9434 C 66.9922 -14.0137 68.9453 -12.5 71.875 -12.5 C 74.8535 -12.5 76.6602 -14.0137 77.3438 -16.9434 L 86.2305 -52.5879 C 86.377 -53.125 86.4258 -53.6133 86.4258 -54.1016 C 86.4258 -56.4941 84.7656 -58.252 82.2266 -58.252 C 79.6387 -58.252 78.3691 -56.9336 77.7832 -53.9062 L 71.4355 -24.7559 L 71.0449 -24.7559 L 63.7695 -54.3945 C 63.1836 -56.8359 61.6699 -58.0078 59.1309 -58.0078 C 56.6406 -58.0078 55.127 -56.8359 54.541 -54.4434 L 47.2168 -24.7559 L 46.875 -24.7559 L 40.5762 -53.9062 C 39.9414 -56.9336 38.6719 -58.252 36.1328 -58.252 C 33.5938 -58.252 31.9336 -56.4941 31.9336 -54.1016 C 31.9336 -53.6133 31.9336 -53.125 32.1289 -52.5879 L 40.918 -16.9434 C 41.6504 -14.0137 43.457 -12.5 46.4355 -12.5 Z"/>
  </g>
  <g id="Semibold-M" transform="matrix(1 0 0 1 1983.5 1126)">
   <path d="M 59.7656 15.8203 C 87.7441 15.8203 110.791 -7.22656 110.791 -35.2051 C 110.791 -63.1836 87.6953 -86.2793 59.7168 -86.2793 C 31.7383 -86.2793 8.74023 -63.1836 8.74023 -35.2051 C 8.74023 -7.22656 31.7871 15.8203 59.7656 15.8203 Z M 59.7656 4.3457 C 37.8418 4.3457 20.2148 -13.2812 20.2148 -35.2051 C 20.2148 -57.1289 37.793 -74.8047 59.7168 -74.8047 C 81.6406 -74.8047 99.3164 -57.1289 99.3164 -35.2051 C 99.3652 -13.2812 81.6895 4.3457 59.7656 4.3457 Z M 47.2168 -12.5488 C 50.4395 -12.5488 52.4902 -14.2578 53.2227 -17.5293 L 59.5215 -43.3105 L 59.9121 -43.3105 L 66.1621 -17.5293 C 66.8945 -14.2578 68.9941 -12.5488 72.168 -12.5488 C 75.4395 -12.5488 77.3926 -14.209 78.125 -17.5293 L 86.377 -52.0508 C 86.5234 -52.5879 86.5723 -53.0762 86.5723 -53.5645 C 86.5723 -56.2012 84.7656 -58.0566 81.9824 -58.0566 C 79.248 -58.0566 77.7832 -56.6406 77.1973 -53.418 L 71.582 -25.6836 L 71.1914 -25.6836 L 64.5508 -53.8574 C 63.9648 -56.4453 62.4023 -57.7148 59.7168 -57.7148 C 57.0312 -57.7148 55.4199 -56.4453 54.834 -53.8574 L 48.1934 -25.6836 L 47.8027 -25.6836 L 42.2363 -53.418 C 41.6504 -56.6406 40.1855 -58.0566 37.4512 -58.0566 C 34.668 -58.0566 32.8613 -56.2012 32.8613 -53.5645 C 32.8613 -53.0762 32.9102 -52.5879 33.0566 -52.0508 L 41.2598 -17.5293 C 41.9922 -14.209 43.9453 -12.5488 47.2168 -12.5488 Z"/>
  </g>
  <g id="Bold-M" transform="matrix(1 0 0 1 2279.5 1126)">
   <path d="M 60.4492 16.5039 C 88.8672 16.5039 112.207 -6.78711 112.207 -35.2051 C 112.207 -63.623 88.8672 -86.9629 60.4492 -86.9629 C 32.0312 -86.9629 8.74023 -63.623 8.74023 -35.2051 C 8.74023 -6.78711 32.0801 16.5039 60.4492 16.5039 Z M 60.4492 3.22266 C 39.1602 3.22266 22.0215 -13.916 22.0215 -35.2051 C 22.0215 -56.4941 39.1602 -73.6816 60.4492 -73.6816 C 81.7383 -73.6816 98.877 -56.4941 98.9258 -35.2051 C 98.9258 -13.916 81.7871 3.22266 60.4492 3.22266 Z M 48.291 -12.6953 C 51.8066 -12.6953 54.1016 -14.5996 54.8828 -18.3594 L 60.2051 -41.2598 L 60.6445 -41.2598 L 65.9668 -18.3594 C 66.748 -14.5996 69.043 -12.6953 72.5586 -12.6953 C 76.2207 -12.6953 78.3691 -14.502 79.1504 -18.2617 L 86.5723 -51.3672 C 86.6699 -51.9043 86.7188 -52.3926 86.7188 -52.8809 C 86.7188 -55.7617 84.7168 -57.8613 81.6895 -57.8613 C 78.6621 -57.8613 77.002 -56.1523 76.4648 -52.6855 L 71.7773 -26.9043 L 71.3867 -26.9043 L 65.625 -53.0762 C 65.0391 -55.9082 63.3301 -57.373 60.4004 -57.373 C 57.5195 -57.373 55.8105 -55.957 55.2246 -53.125 L 49.4629 -26.9043 L 49.0234 -26.9043 L 44.3848 -52.6855 C 43.8965 -56.1523 42.1875 -57.8613 39.1602 -57.8613 C 36.1328 -57.8613 34.1309 -55.7617 34.1309 -52.8809 C 34.1309 -52.3926 34.1797 -51.9043 34.3262 -51.3672 L 41.6992 -18.2617 C 42.4805 -14.502 44.5801 -12.6953 48.291 -12.6953 Z"/>
  </g>
  <g id="Heavy-M" transform="matrix(1 0 0 1 2575.19 1126)">
   <path d="M 61.4746 17.5781 C 90.5273 17.5781 114.258 -6.15234 114.258 -35.2051 C 114.258 -64.2578 90.5273 -87.9883 61.4746 -87.9883 C 32.4219 -87.9883 8.74023 -64.2578 8.74023 -35.2051 C 8.74023 -6.15234 32.4707 17.5781 61.4746 17.5781 Z M 61.4746 1.66016 C 41.1133 1.66016 24.6582 -14.8438 24.6582 -35.2051 C 24.6582 -55.5664 41.1133 -72.0703 61.4746 -72.0703 C 81.8359 -72.0703 98.3398 -55.5664 98.3398 -35.2051 C 98.3398 -14.8438 81.8848 1.66016 61.4746 1.66016 Z M 49.8047 -12.8418 C 53.8086 -12.8418 56.3965 -15.0879 57.2754 -19.5312 L 61.2305 -38.2324 L 61.7188 -38.2324 L 65.6738 -19.5312 C 66.5527 -15.0879 69.0918 -12.8418 73.1445 -12.8418 C 77.3926 -12.8418 79.7852 -14.9414 80.6152 -19.3359 L 86.8164 -50.293 C 86.9629 -50.8789 86.9629 -51.3672 86.9629 -51.8555 C 86.9629 -55.127 84.7168 -57.5684 81.2988 -57.5684 C 77.8809 -57.5684 75.8301 -55.5176 75.3418 -51.709 L 72.1191 -28.6621 L 71.6309 -28.6621 L 67.1387 -52.002 C 66.6016 -55.1758 64.6973 -56.8359 61.4746 -56.8359 C 58.252 -56.8359 56.4453 -55.2734 55.8105 -52.0508 L 51.3184 -28.6621 L 50.8301 -28.6621 L 47.6074 -51.709 C 47.1191 -55.5176 45.0684 -57.5684 41.6504 -57.5684 C 38.2324 -57.5684 35.9863 -55.127 35.9863 -51.8555 C 35.9863 -51.3672 35.9863 -50.8789 36.1328 -50.293 L 42.334 -19.3359 C 43.1641 -14.9414 45.5566 -12.8418 49.8047 -12.8418 Z"/>
  </g>
  <g id="Black-M" transform="matrix(1 0 0 1 2871 1126)">
   <path d="M 62.4023 18.457 C 91.9922 18.457 116.064 -5.61523 116.064 -35.2051 C 116.064 -64.7949 91.9922 -88.8672 62.4023 -88.8672 C 32.8125 -88.8672 8.74023 -64.7949 8.74023 -35.2051 C 8.74023 -5.61523 32.8125 18.457 62.4023 18.457 Z M 62.4023 0.195312 C 42.8223 0.195312 27.002 -15.625 27.002 -35.2051 C 27.002 -54.7363 42.8223 -70.6055 62.4023 -70.6055 C 81.9824 -70.6055 97.8027 -54.7363 97.8027 -35.2051 C 97.8027 -15.625 81.9824 0.195312 62.4023 0.195312 Z M 51.1719 -12.9883 C 55.6152 -12.9883 58.4473 -15.5273 59.375 -20.6055 L 62.1582 -35.498 L 62.6465 -35.498 L 65.4297 -20.6055 C 66.3574 -15.5273 69.1895 -12.9883 73.6328 -12.9883 C 78.418 -12.9883 81.0547 -15.2832 81.9336 -20.2637 L 87.0605 -49.4141 C 87.1582 -49.9512 87.1582 -50.4395 87.1582 -50.9277 C 87.1582 -54.5898 84.668 -57.2754 80.9082 -57.2754 C 77.1484 -57.2754 74.8047 -54.9316 74.3652 -50.8301 L 72.3633 -30.2734 L 71.875 -30.2734 L 68.5547 -50.9766 C 67.9688 -54.4922 65.918 -56.3477 62.4023 -56.3477 C 58.8867 -56.3477 56.9336 -54.6387 56.3477 -51.0742 L 52.9297 -30.2734 L 52.4414 -30.2734 L 50.4395 -50.8301 C 50 -54.9316 47.6562 -57.2754 43.8965 -57.2754 C 40.1367 -57.2754 37.6465 -54.5898 37.6465 -50.9277 C 37.6465 -50.4395 37.6465 -49.9512 37.7441 -49.4141 L 42.8711 -20.2637 C 43.75 -15.2832 46.3867 -12.9883 51.1719 -12.9883 Z"/>
  </g>
  <g id="Ultralight-L" transform="matrix(1 0 0 1 487.641 1556)">
   <path d="M 72.0703 25.7324 C 105.566 25.7324 132.91 -1.61133 132.91 -35.1074 C 132.91 -68.5547 105.566 -95.8984 72.0703 -95.8984 C 38.623 -95.8984 11.2793 -68.5547 11.2793 -35.1074 C 11.2793 -1.61133 38.623 25.7324 72.0703 25.7324 Z M 72.0703 23.2422 C 39.9414 23.2422 13.7695 -2.97852 13.7695 -35.1074 C 13.7695 -67.2363 39.9414 -93.4082 72.0703 -93.4082 C 104.199 -93.4082 130.42 -67.2363 130.371 -35.1074 C 130.371 -2.97852 104.199 23.2422 72.0703 23.2422 Z M 56.3477 -6.98242 C 57.7637 -6.98242 58.4473 -7.61719 58.7891 -8.98438 L 71.9238 -57.959 L 72.2656 -57.959 L 85.3516 -8.98438 C 85.7422 -7.61719 86.377 -6.98242 87.8418 -6.98242 C 89.2578 -6.98242 89.9414 -7.61719 90.332 -9.08203 L 103.32 -61.2305 C 103.369 -61.5234 103.369 -61.5723 103.369 -61.7676 C 103.369 -62.5488 102.832 -62.9883 102.002 -62.9883 C 101.318 -62.9883 100.879 -62.5977 100.732 -61.8652 L 88.0371 -10.8887 L 87.7441 -10.8887 L 73.9258 -61.084 C 73.6816 -62.1582 73.1445 -62.5488 72.0703 -62.5488 C 71.1426 -62.5488 70.5078 -62.1582 70.2148 -61.084 L 56.4453 -10.8887 L 56.1523 -10.8887 L 43.457 -61.8652 C 43.2617 -62.5977 42.8711 -62.9883 42.1875 -62.9883 C 41.3086 -62.9883 40.8203 -62.5488 40.8203 -61.7676 C 40.8203 -61.5723 40.7715 -61.5234 40.8691 -61.2305 L 53.8574 -9.08203 C 54.1992 -7.61719 54.8828 -6.98242 56.3477 -6.98242 Z"/>
  </g>
  <g id="Thin-L" transform="matrix(1 0 0 1 783.717 1556)">
   <path d="M 72.7051 26.3184 C 106.494 26.3184 134.131 -1.36719 134.131 -35.1074 C 134.131 -68.8965 106.445 -96.582 72.7051 -96.582 C 38.916 -96.582 11.2793 -68.8965 11.2793 -35.1074 C 11.2793 -1.36719 38.916 26.3184 72.7051 26.3184 Z M 72.7051 22.3145 C 41.0156 22.3145 15.2344 -3.41797 15.2344 -35.1074 C 15.2344 -66.8457 41.0156 -92.5781 72.7051 -92.5781 C 104.395 -92.5781 130.127 -66.8457 130.176 -35.1074 C 130.176 -3.41797 104.395 22.3145 72.7051 22.3145 Z M 56.7383 -6.78711 C 58.5449 -6.78711 59.4727 -7.56836 59.9121 -9.27734 L 72.5098 -56.5918 L 72.8516 -56.5918 L 85.4492 -9.27734 C 85.8887 -7.56836 86.8652 -6.78711 88.623 -6.78711 C 90.4297 -6.78711 91.3574 -7.56836 91.7969 -9.375 L 104.688 -60.7422 C 104.785 -61.1328 104.785 -61.2305 104.785 -61.5234 C 104.785 -62.6953 104.053 -63.3789 102.783 -63.3789 C 101.709 -63.3789 101.123 -62.793 100.83 -61.5723 L 88.7207 -12.5977 L 88.4277 -12.5977 L 75.1953 -61.084 C 74.8535 -62.4512 74.0723 -63.0371 72.7051 -63.0371 C 71.3867 -63.0371 70.5566 -62.4512 70.166 -61.084 L 56.9824 -12.5977 L 56.6406 -12.5977 L 44.5801 -61.5723 C 44.2383 -62.793 43.7012 -63.3789 42.5781 -63.3789 C 41.3574 -63.3789 40.5762 -62.6953 40.5762 -61.5234 C 40.5762 -61.2305 40.5762 -61.1328 40.6738 -60.7422 L 53.5645 -9.375 C 54.0039 -7.56836 54.9805 -6.78711 56.7383 -6.78711 Z"/>
  </g>
  <g id="Light-L" transform="matrix(1 0 0 1 1079.21 1556)">
   <path d="M 73.9258 27.4902 C 108.301 27.4902 136.572 -0.830078 136.572 -35.1562 C 136.572 -69.5312 108.252 -97.8516 73.877 -97.8516 C 39.5508 -97.8516 11.2793 -69.5312 11.2793 -35.1562 C 11.2793 -0.830078 39.5508 27.4902 73.9258 27.4902 Z M 73.9258 20.6055 C 43.0664 20.6055 18.1641 -4.3457 18.1641 -35.1562 C 18.1641 -66.0156 43.0664 -90.918 73.877 -90.918 C 104.736 -90.918 129.639 -66.0156 129.688 -35.1562 C 129.736 -4.3457 104.785 20.6055 73.9258 20.6055 Z M 57.5195 -6.34766 C 60.0098 -6.34766 61.5234 -7.51953 62.1094 -9.86328 L 73.6816 -53.9062 L 74.0723 -53.9062 L 85.6445 -9.86328 C 86.2305 -7.51953 87.7441 -6.34766 90.1855 -6.34766 C 92.627 -6.34766 94.0918 -7.51953 94.7266 -9.96094 L 107.422 -59.8145 C 107.568 -60.3027 107.617 -60.6445 107.617 -61.084 C 107.617 -62.9395 106.348 -64.1602 104.395 -64.1602 C 102.49 -64.1602 101.562 -63.2324 101.025 -60.9863 L 90.1367 -15.8691 L 89.7461 -15.8691 L 77.6855 -61.0352 C 77.1484 -62.9883 75.9277 -63.916 73.877 -63.916 C 71.8262 -63.916 70.5566 -62.9883 70.0684 -61.0352 L 58.0078 -15.8691 L 57.6172 -15.8691 L 46.7285 -60.9863 C 46.1914 -63.2324 45.2637 -64.1602 43.3594 -64.1602 C 41.4062 -64.1602 40.1367 -62.9395 40.1367 -61.084 C 40.1367 -60.6445 40.1855 -60.3027 40.332 -59.8145 L 53.0273 -9.96094 C 53.6133 -7.51953 55.0781 -6.34766 57.5195 -6.34766 Z"/>
  </g>
  <g id="Regular-L" transform="matrix(1 0 0 1 1374.99 1556)">
   <path d="M 74.8535 28.3691 C 109.668 28.3691 138.428 -0.390625 138.428 -35.2051 C 138.428 -70.0195 109.619 -98.7793 74.8047 -98.7793 C 39.9902 -98.7793 11.2793 -70.0195 11.2793 -35.2051 C 11.2793 -0.390625 40.0391 28.3691 74.8535 28.3691 Z M 74.8535 19.2871 C 44.6289 19.2871 20.4102 -5.0293 20.4102 -35.2051 C 20.4102 -65.3809 44.5801 -89.6973 74.8047 -89.6973 C 104.98 -89.6973 129.297 -65.3809 129.346 -35.2051 C 129.395 -5.0293 105.029 19.2871 74.8535 19.2871 Z M 58.1055 -6.00586 C 61.084 -6.00586 63.0371 -7.4707 63.7695 -10.2539 L 74.5605 -51.8555 L 74.9512 -51.8555 L 85.7422 -10.2539 C 86.4746 -7.4707 88.3789 -6.00586 91.4062 -6.00586 C 94.3359 -6.00586 96.1426 -7.51953 96.9238 -10.4004 L 109.521 -59.082 C 109.717 -59.7168 109.766 -60.1562 109.766 -60.6934 C 109.766 -63.0859 108.105 -64.7461 105.566 -64.7461 C 103.076 -64.7461 101.904 -63.5742 101.221 -60.5469 L 91.1621 -18.3105 L 90.7227 -18.3105 L 79.541 -60.9863 C 78.8574 -63.4277 77.3438 -64.5996 74.7559 -64.5996 C 72.168 -64.5996 70.5566 -63.4277 69.9707 -60.9863 L 58.7891 -18.3105 L 58.3496 -18.3105 L 48.3398 -60.5469 C 47.6562 -63.5742 46.4844 -64.7461 43.9453 -64.7461 C 41.4551 -64.7461 39.7949 -63.0859 39.7949 -60.6934 C 39.7949 -60.1562 39.8438 -59.7168 40.0391 -59.082 L 52.5879 -10.4004 C 53.3203 -7.51953 55.1758 -6.00586 58.1055 -6.00586 Z"/>
  </g>
  <g id="Medium-L" transform="matrix(1 0 0 1 1670.9 1556)">
   <path d="M 75.6348 29.1992 C 110.938 29.1992 140.039 0.0488281 140.039 -35.2051 C 140.039 -70.459 110.889 -99.6094 75.5859 -99.6094 C 40.332 -99.6094 11.2793 -70.459 11.2793 -35.2051 C 11.2793 0.0488281 40.3809 29.1992 75.6348 29.1992 Z M 75.6348 18.0664 C 46.1426 18.0664 22.4609 -5.71289 22.4609 -35.2051 C 22.4609 -64.6973 46.0938 -88.4766 75.5859 -88.4766 C 105.127 -88.4766 128.857 -64.6973 128.906 -35.2051 C 128.955 -5.71289 105.176 18.0664 75.6348 18.0664 Z M 59.1797 -6.00586 C 62.5488 -6.00586 64.7461 -7.76367 65.5273 -11.084 L 75.3418 -49.6094 L 75.7812 -49.6094 L 85.5957 -11.084 C 86.377 -7.76367 88.5742 -6.00586 91.9434 -6.00586 C 95.3613 -6.00586 97.4121 -7.76367 98.2422 -11.1328 L 110.059 -58.3008 C 110.254 -58.9355 110.303 -59.4727 110.303 -60.0098 C 110.303 -62.7441 108.398 -64.6484 105.518 -64.6484 C 102.686 -64.6484 101.221 -63.2324 100.537 -59.8633 L 91.5039 -19.873 L 91.0645 -19.873 L 80.8594 -60.3027 C 80.1758 -63.0371 78.4668 -64.4043 75.5859 -64.4043 C 72.7051 -64.4043 70.9473 -63.0371 70.3125 -60.3027 L 60.0586 -19.873 L 59.6191 -19.873 L 50.6348 -59.8633 C 49.9512 -63.2324 48.4863 -64.6484 45.6543 -64.6484 C 42.7734 -64.6484 40.8691 -62.7441 40.8691 -60.0098 C 40.8691 -59.4727 40.918 -58.9355 41.1133 -58.3008 L 52.8809 -11.1328 C 53.7109 -7.76367 55.7617 -6.00586 59.1797 -6.00586 Z"/>
  </g>
  <g id="Semibold-L" transform="matrix(1 0 0 1 1967 1556)">
   <path d="M 76.2695 29.7852 C 111.914 29.7852 141.26 0.439453 141.26 -35.2051 C 141.26 -70.8496 111.865 -100.244 76.2207 -100.244 C 40.5762 -100.244 11.2793 -70.8496 11.2793 -35.2051 C 11.2793 0.439453 40.625 29.7852 76.2695 29.7852 Z M 76.2695 17.0898 C 47.3145 17.0898 24.0234 -6.25 24.0234 -35.2051 C 24.0234 -64.209 47.2656 -87.5 76.2207 -87.5 C 105.225 -87.5 128.516 -64.209 128.564 -35.2051 C 128.613 -6.25 105.273 17.0898 76.2695 17.0898 Z M 60.0098 -6.05469 C 63.6719 -6.05469 66.0645 -8.00781 66.8945 -11.7188 L 75.9277 -47.9004 L 76.416 -47.9004 L 85.4492 -11.7188 C 86.2793 -8.00781 88.6719 -6.05469 92.3828 -6.05469 C 96.1426 -6.05469 98.3887 -7.95898 99.2188 -11.7188 L 110.449 -57.7148 C 110.645 -58.3496 110.693 -58.8867 110.693 -59.4727 C 110.693 -62.5 108.643 -64.5996 105.518 -64.5996 C 102.344 -64.5996 100.732 -62.9883 100.049 -59.3262 L 91.7969 -21.0938 L 91.3574 -21.0938 L 81.8359 -59.7656 C 81.1523 -62.7441 79.2969 -64.209 76.1719 -64.209 C 73.0957 -64.209 71.2402 -62.793 70.5566 -59.7656 L 61.0352 -21.0938 L 60.5469 -21.0938 L 52.3438 -59.3262 C 51.6602 -62.9883 50.0488 -64.5996 46.9238 -64.5996 C 43.7988 -64.5996 41.748 -62.5 41.748 -59.4727 C 41.748 -58.8867 41.748 -58.3496 41.9434 -57.7148 L 53.125 -11.7188 C 54.0039 -7.95898 56.25 -6.05469 60.0098 -6.05469 Z"/>
  </g>
  <g id="Bold-L" transform="matrix(1 0 0 1 2262.9 1556)">
   <path d="M 77.0996 30.6152 C 113.184 30.6152 142.92 0.878906 142.92 -35.2051 C 142.92 -71.3379 113.135 -101.025 77.0508 -101.025 C 40.918 -101.025 11.2793 -71.3379 11.2793 -35.2051 C 11.2793 0.878906 40.9668 30.6152 77.0996 30.6152 Z M 77.0996 15.8691 C 48.7793 15.8691 26.0742 -6.93359 26.0742 -35.2051 C 26.0742 -63.4766 48.7793 -86.2793 77.0508 -86.2793 C 105.322 -86.2793 128.125 -63.4766 128.125 -35.2051 C 128.174 -6.93359 105.371 15.8691 77.0996 15.8691 Z M 61.084 -6.10352 C 65.1855 -6.10352 67.8223 -8.30078 68.7012 -12.5 L 76.7578 -45.6055 L 77.2461 -45.6055 L 85.3027 -12.5 C 86.2305 -8.30078 88.8672 -6.10352 92.9688 -6.10352 C 97.168 -6.10352 99.6582 -8.20312 100.586 -12.4512 L 111.035 -56.9336 C 111.182 -57.6172 111.23 -58.1543 111.23 -58.7891 C 111.23 -62.1094 108.936 -64.502 105.469 -64.502 C 101.953 -64.502 100.049 -62.6465 99.4141 -58.5938 L 92.1875 -22.6562 L 91.6992 -22.6562 L 83.1543 -59.0332 C 82.4219 -62.3535 80.4199 -64.0137 77.002 -64.0137 C 73.6328 -64.0137 71.6309 -62.4023 70.8984 -59.082 L 62.3535 -22.6562 L 61.8164 -22.6562 L 54.6875 -58.5938 C 54.0039 -62.6465 52.0996 -64.502 48.584 -64.502 C 45.1172 -64.502 42.8223 -62.1094 42.8223 -58.7891 C 42.8223 -58.1543 42.8711 -57.6172 43.0176 -56.9336 L 53.4668 -12.4512 C 54.3457 -8.20312 56.8359 -6.10352 61.084 -6.10352 Z"/>
  </g>
  <g id="Heavy-L" transform="matrix(1 0 0 1 2558.42 1556)">
   <path d="M 78.2715 31.7871 C 115.039 31.7871 145.264 1.61133 145.264 -35.2051 C 145.264 -72.0215 115.039 -102.197 78.2227 -102.197 C 41.4551 -102.197 11.2793 -72.0215 11.2793 -35.2051 C 11.2793 1.61133 41.4551 31.7871 78.2715 31.7871 Z M 78.2715 14.0137 C 50.9766 14.0137 29.0527 -7.95898 29.0527 -35.2051 C 29.0527 -62.5 50.9766 -84.4727 78.2227 -84.4727 C 105.518 -84.4727 127.49 -62.5 127.49 -35.2051 C 127.539 -7.95898 105.518 14.0137 78.2715 14.0137 Z M 62.6465 -6.15234 C 67.2852 -6.15234 70.3125 -8.74023 71.3379 -13.7207 L 77.9297 -42.2852 L 78.4668 -42.2852 L 85.0586 -13.7207 C 86.084 -8.74023 89.1113 -6.15234 93.7988 -6.15234 C 98.6816 -6.15234 101.514 -8.59375 102.49 -13.5742 L 111.816 -55.8105 C 112.012 -56.4941 112.012 -57.1289 112.012 -57.7637 C 112.012 -61.6211 109.375 -64.4043 105.371 -64.4043 C 101.367 -64.4043 99.1211 -62.1582 98.4375 -57.5684 L 92.7246 -24.9512 L 92.1875 -24.9512 L 85.0586 -58.0566 C 84.3262 -61.7676 82.0312 -63.6719 78.2227 -63.6719 C 74.3652 -63.6719 72.168 -61.8652 71.3867 -58.1055 L 64.209 -24.9512 L 63.6719 -24.9512 L 58.0078 -57.5684 C 57.3242 -62.1582 55.0781 -64.4043 51.0742 -64.4043 C 47.0703 -64.4043 44.4336 -61.6211 44.4336 -57.7637 C 44.4336 -57.1289 44.4336 -56.4941 44.6289 -55.8105 L 53.9062 -13.5742 C 54.9316 -8.59375 57.7637 -6.15234 62.6465 -6.15234 Z"/>
  </g>
  <g id="Black-L" transform="matrix(1 0 0 1 2854.08 1556)">
   <path d="M 79.2969 32.8613 C 116.748 32.8613 147.363 2.19727 147.363 -35.2051 C 147.363 -72.6074 116.699 -103.271 79.2969 -103.271 C 41.8945 -103.271 11.2793 -72.6074 11.2793 -35.2051 C 11.2793 2.19727 41.8945 32.8613 79.2969 32.8613 Z M 79.2969 12.4023 C 52.9297 12.4023 31.7383 -8.83789 31.7383 -35.2051 C 31.7383 -61.5723 52.9297 -82.8125 79.2969 -82.8125 C 105.664 -82.8125 126.904 -61.5723 126.953 -35.2051 C 126.953 -8.83789 105.664 12.4023 79.2969 12.4023 Z M 64.0137 -6.20117 C 69.2383 -6.20117 72.5586 -9.13086 73.6816 -14.7949 L 78.9551 -39.3555 L 79.5898 -39.3555 L 84.8633 -14.7949 C 85.9863 -9.13086 89.3555 -6.20117 94.5312 -6.20117 C 100 -6.20117 103.125 -8.88672 104.248 -14.5508 L 112.5 -54.7852 C 112.695 -55.5176 112.744 -56.2012 112.744 -56.8359 C 112.744 -61.1328 109.766 -64.3066 105.322 -64.3066 C 100.83 -64.3066 98.2422 -61.6699 97.5586 -56.6406 L 93.2129 -27.002 L 92.627 -27.002 L 86.7676 -57.1289 C 85.9863 -61.2793 83.4961 -63.4277 79.2969 -63.4277 C 75.0488 -63.4277 72.6562 -61.377 71.8262 -57.1777 L 65.918 -27.002 L 65.332 -27.002 L 60.9863 -56.6406 C 60.3027 -61.6699 57.7148 -64.3066 53.2715 -64.3066 C 48.7793 -64.3066 45.8496 -61.1328 45.8496 -56.8359 C 45.8496 -56.2012 45.8496 -55.5176 46.0449 -54.7852 L 54.3457 -14.5508 C 55.4199 -8.88672 58.5449 -6.20117 64.0137 -6.20117 Z"/>
  </g>
 </g>
</svg>
