<?xml version="1.0" encoding="UTF-8"?>
<!--Generator: Apple Native CoreSVG 123-->
<!DOCTYPE svg
PUBLIC "-//W3C//DTD SVG 1.1//EN"
       "http://www.w3.org/Graphics/SVG/1.1/DTD/svg11.dtd">
<svg version="1.1" xmlns="http://www.w3.org/2000/svg" xmlns:xlink="http://www.w3.org/1999/xlink" width="3300" height="2200">
 <!--glyph: "uni1005F5.medium", point size: 100.000000, font version: "Version 15.0d4e20", template writer version: "2"-->
 <g id="Notes">
  <rect height="2200" id="artboard" style="fill:white;opacity:1" width="3300" x="0" y="0"/>
  <line id="" style="fill:none;stroke:black;opacity:1;stroke-width:0.5;" x1="263" x2="3036" y1="292" y2="292"/>
  <text style="stroke:none;fill:black;font-family:-apple-system,&quot;SF Pro Display&quot;,&quot;SF Pro Text&quot;,Helvetica,sans-serif;font-weight:bold;" transform="matrix(1 0 0 1 263 322)">Weight/Scale Variations</text>
  <text style="stroke:none;fill:black;font-family:-apple-system,&quot;SF Pro Display&quot;,&quot;SF Pro Text&quot;,Helvetica,sans-serif;text-anchor:middle;" transform="matrix(1 0 0 1 559.711 322)">Ultralight</text>
  <text style="stroke:none;fill:black;font-family:-apple-system,&quot;SF Pro Display&quot;,&quot;SF Pro Text&quot;,Helvetica,sans-serif;text-anchor:middle;" transform="matrix(1 0 0 1 856.422 322)">Thin</text>
  <text style="stroke:none;fill:black;font-family:-apple-system,&quot;SF Pro Display&quot;,&quot;SF Pro Text&quot;,Helvetica,sans-serif;text-anchor:middle;" transform="matrix(1 0 0 1 1153.13 322)">Light</text>
  <text style="stroke:none;fill:black;font-family:-apple-system,&quot;SF Pro Display&quot;,&quot;SF Pro Text&quot;,Helvetica,sans-serif;text-anchor:middle;" transform="matrix(1 0 0 1 1449.84 322)">Regular</text>
  <text style="stroke:none;fill:black;font-family:-apple-system,&quot;SF Pro Display&quot;,&quot;SF Pro Text&quot;,Helvetica,sans-serif;text-anchor:middle;" transform="matrix(1 0 0 1 1746.56 322)">Medium</text>
  <text style="stroke:none;fill:black;font-family:-apple-system,&quot;SF Pro Display&quot;,&quot;SF Pro Text&quot;,Helvetica,sans-serif;text-anchor:middle;" transform="matrix(1 0 0 1 2043.27 322)">Semibold</text>
  <text style="stroke:none;fill:black;font-family:-apple-system,&quot;SF Pro Display&quot;,&quot;SF Pro Text&quot;,Helvetica,sans-serif;text-anchor:middle;" transform="matrix(1 0 0 1 2339.98 322)">Bold</text>
  <text style="stroke:none;fill:black;font-family:-apple-system,&quot;SF Pro Display&quot;,&quot;SF Pro Text&quot;,Helvetica,sans-serif;text-anchor:middle;" transform="matrix(1 0 0 1 2636.69 322)">Heavy</text>
  <text style="stroke:none;fill:black;font-family:-apple-system,&quot;SF Pro Display&quot;,&quot;SF Pro Text&quot;,Helvetica,sans-serif;text-anchor:middle;" transform="matrix(1 0 0 1 2933.4 322)">Black</text>
  <line id="" style="fill:none;stroke:black;opacity:1;stroke-width:0.5;" x1="263" x2="3036" y1="1903" y2="1903"/>
  <g id="" transform="matrix(1 0 0 1 263 1933)">
   <path d="M 9.24805 0.830078 C 13.5547 0.830078 17.1387 -2.74414 17.1387 -7.05078 C 17.1387 -11.3574 13.5449 -14.9316 9.23828 -14.9316 C 4.94141 -14.9316 1.36719 -11.3574 1.36719 -7.05078 C 1.36719 -2.74414 4.95117 0.830078 9.24805 0.830078 Z M 9.24805 -0.654297 C 5.70312 -0.654297 2.87109 -3.49609 2.87109 -7.05078 C 2.87109 -10.6055 5.69336 -13.4473 9.23828 -13.4473 C 12.793 -13.4473 15.6348 -10.6055 15.6445 -7.05078 C 15.6543 -3.49609 12.8027 -0.654297 9.24805 -0.654297 Z M 9.22852 -3.42773 C 9.69727 -3.42773 9.9707 -3.74023 9.9707 -4.25781 L 9.9707 -6.31836 L 12.1973 -6.31836 C 12.6953 -6.31836 13.0371 -6.57227 13.0371 -7.04102 C 13.0371 -7.51953 12.7148 -7.7832 12.1973 -7.7832 L 9.9707 -7.7832 L 9.9707 -10.0098 C 9.9707 -10.5273 9.69727 -10.8496 9.22852 -10.8496 C 8.75977 -10.8496 8.50586 -10.5078 8.50586 -10.0098 L 8.50586 -7.7832 L 6.29883 -7.7832 C 5.78125 -7.7832 5.44922 -7.51953 5.44922 -7.04102 C 5.44922 -6.57227 5.80078 -6.31836 6.29883 -6.31836 L 8.50586 -6.31836 L 8.50586 -4.25781 C 8.50586 -3.75977 8.75977 -3.42773 9.22852 -3.42773 Z"/>
  </g>
  <g id="" transform="matrix(1 0 0 1 281.506 1933)">
   <path d="M 11.709 2.91016 C 17.1484 2.91016 21.6699 -1.60156 21.6699 -7.05078 C 21.6699 -12.4902 17.1387 -17.0117 11.6992 -17.0117 C 6.25 -17.0117 1.74805 -12.4902 1.74805 -7.05078 C 1.74805 -1.60156 6.25977 2.91016 11.709 2.91016 Z M 11.709 1.25 C 7.09961 1.25 3.41797 -2.44141 3.41797 -7.05078 C 3.41797 -11.6504 7.08984 -15.3516 11.6992 -15.3516 C 16.2988 -15.3516 20 -11.6504 20.0098 -7.05078 C 20.0195 -2.44141 16.3086 1.25 11.709 1.25 Z M 11.6797 -2.41211 C 12.207 -2.41211 12.5195 -2.77344 12.5195 -3.33984 L 12.5195 -6.23047 L 15.5762 -6.23047 C 16.123 -6.23047 16.5039 -6.51367 16.5039 -7.03125 C 16.5039 -7.55859 16.1426 -7.86133 15.5762 -7.86133 L 12.5195 -7.86133 L 12.5195 -10.9277 C 12.5195 -11.5039 12.207 -11.8555 11.6797 -11.8555 C 11.1621 -11.8555 10.8789 -11.4844 10.8789 -10.9277 L 10.8789 -7.86133 L 7.83203 -7.86133 C 7.25586 -7.86133 6.89453 -7.55859 6.89453 -7.03125 C 6.89453 -6.51367 7.28516 -6.23047 7.83203 -6.23047 L 10.8789 -6.23047 L 10.8789 -3.33984 C 10.8789 -2.79297 11.1621 -2.41211 11.6797 -2.41211 Z"/>
  </g>
  <g id="" transform="matrix(1 0 0 1 304.914 1933)">
   <path d="M 14.9707 5.67383 C 21.9336 5.67383 27.6855 -0.078125 27.6855 -7.04102 C 27.6855 -14.0039 21.9238 -19.7559 14.9609 -19.7559 C 7.99805 -19.7559 2.25586 -14.0039 2.25586 -7.04102 C 2.25586 -0.078125 8.00781 5.67383 14.9707 5.67383 Z M 14.9707 3.85742 C 8.92578 3.85742 4.08203 -1.00586 4.08203 -7.04102 C 4.08203 -13.0762 8.91602 -17.9395 14.9609 -17.9395 C 20.9961 -17.9395 25.8594 -13.0762 25.8691 -7.04102 C 25.8789 -1.00586 21.0059 3.85742 14.9707 3.85742 Z M 14.9414 -1.06445 C 15.5176 -1.06445 15.8594 -1.45508 15.8594 -2.06055 L 15.8594 -6.13281 L 20.0977 -6.13281 C 20.6934 -6.13281 21.1133 -6.46484 21.1133 -7.02148 C 21.1133 -7.59766 20.7227 -7.93945 20.0977 -7.93945 L 15.8594 -7.93945 L 15.8594 -12.1875 C 15.8594 -12.8027 15.5176 -13.1934 14.9414 -13.1934 C 14.3848 -13.1934 14.0625 -12.7832 14.0625 -12.1875 L 14.0625 -7.93945 L 9.82422 -7.93945 C 9.20898 -7.93945 8.80859 -7.59766 8.80859 -7.02148 C 8.80859 -6.46484 9.23828 -6.13281 9.82422 -6.13281 L 14.0625 -6.13281 L 14.0625 -2.06055 C 14.0625 -1.47461 14.3848 -1.06445 14.9414 -1.06445 Z"/>
  </g>
  <text style="stroke:none;fill:black;font-family:-apple-system,&quot;SF Pro Display&quot;,&quot;SF Pro Text&quot;,Helvetica,sans-serif;font-weight:bold;" transform="matrix(1 0 0 1 263 1953)">Design Variations</text>
  <text style="stroke:none;fill:black;font-family:-apple-system,&quot;SF Pro Display&quot;,&quot;SF Pro Text&quot;,Helvetica,sans-serif;" transform="matrix(1 0 0 1 263 1971)">Symbols are supported in up to nine weights and three scales.</text>
  <text style="stroke:none;fill:black;font-family:-apple-system,&quot;SF Pro Display&quot;,&quot;SF Pro Text&quot;,Helvetica,sans-serif;" transform="matrix(1 0 0 1 263 1989)">For optimal layout with text and other symbols, vertically align</text>
  <text style="stroke:none;fill:black;font-family:-apple-system,&quot;SF Pro Display&quot;,&quot;SF Pro Text&quot;,Helvetica,sans-serif;" transform="matrix(1 0 0 1 263 2007)">symbols with the adjacent text.</text>
  <rect height="14" id="" style="fill:#00AEEF;stroke:none;opacity:0.4;" width="3" x="776" y="1919"/>
  <g id="" transform="matrix(1 0 0 1 779 1933)">
   <path d="M 10.5273 0 L 12.373 0 L 7.17773 -14.0918 L 5.43945 -14.0918 L 0.244141 0 L 2.08984 0 L 3.50586 -4.0332 L 9.11133 -4.0332 Z M 6.2793 -11.9531 L 6.33789 -11.9531 L 8.59375 -5.52734 L 4.02344 -5.52734 Z"/>
  </g>
  <rect height="14" id="" style="fill:#00AEEF;stroke:none;opacity:0.4;" width="3" x="791.617" y="1919"/>
  <text style="stroke:none;fill:black;font-family:-apple-system,&quot;SF Pro Display&quot;,&quot;SF Pro Text&quot;,Helvetica,sans-serif;font-weight:bold;" transform="matrix(1 0 0 1 776 1953)">Side Bearings</text>
  <text style="stroke:none;fill:black;font-family:-apple-system,&quot;SF Pro Display&quot;,&quot;SF Pro Text&quot;,Helvetica,sans-serif;" transform="matrix(1 0 0 1 776 1971)">Horizontal padding on the left and right side of each symbol</text>
  <text style="stroke:none;fill:black;font-family:-apple-system,&quot;SF Pro Display&quot;,&quot;SF Pro Text&quot;,Helvetica,sans-serif;" transform="matrix(1 0 0 1 776 1989)">can be adjusted by modifying the width of the blue rectangles.</text>
  <text style="stroke:none;fill:black;font-family:-apple-system,&quot;SF Pro Display&quot;,&quot;SF Pro Text&quot;,Helvetica,sans-serif;" transform="matrix(1 0 0 1 776 2007)">Modifications are automatically applied proportionally to all</text>
  <text style="stroke:none;fill:black;font-family:-apple-system,&quot;SF Pro Display&quot;,&quot;SF Pro Text&quot;,Helvetica,sans-serif;" transform="matrix(1 0 0 1 776 2025)">scales and weights.</text>
  <g id="" transform="matrix(1 0 0 1 1289 1933)">
   <path d="M 2.96875 2.35352 L 3.80859 3.19336 C 4.84375 4.22852 6.12305 4.15039 7.19727 2.97852 L 16.1621 -6.82617 C 16.5527 -6.74805 16.9629 -6.8457 17.4902 -7.02148 C 18.1738 -7.25586 18.2715 -7.25586 18.3887 -7.13867 C 18.5352 -7.01172 18.4863 -6.89453 18.2422 -6.25 C 17.8809 -5.33203 17.8125 -4.79492 18.5547 -4.02344 L 19.4238 -3.13477 C 20.2734 -2.24609 21.3281 -2.26562 22.2168 -3.14453 L 25.0586 -5.97656 C 25.9473 -6.86523 25.957 -7.92969 25.0781 -8.7793 L 24.1797 -9.64844 C 23.4082 -10.4004 22.8711 -10.3516 21.9629 -9.98047 C 21.3184 -9.72656 21.2012 -9.6875 21.0645 -9.81445 C 20.9375 -9.93164 20.9473 -10.0391 21.1816 -10.7129 C 21.5332 -11.6895 21.5723 -12.2852 20.752 -13.0957 L 19.3359 -14.5117 C 15.1953 -18.6133 11.2305 -18.7402 7.65625 -15.4395 C 7.08008 -14.9023 6.99219 -14.1504 7.53906 -13.6133 L 7.79297 -13.3594 C 8.22266 -12.9297 8.86719 -12.8418 9.41406 -13.1152 C 11.0645 -13.9453 12.2559 -14.0234 13.457 -12.9785 L 13.0273 -11.416 C 12.8516 -10.8008 12.793 -10.3418 12.9199 -9.93164 L 3.18359 -1.04492 C 2.02148 0.0292969 1.93359 1.32812 2.96875 2.35352 Z M 8.96484 -14.4922 C 8.89648 -14.5703 8.86719 -14.6582 8.99414 -14.7559 C 11.709 -17.2852 15.0391 -16.8457 18.3496 -13.5254 L 19.6973 -12.168 C 20.0879 -11.7773 20.0977 -11.582 19.8828 -10.8691 C 19.6582 -10.127 19.502 -9.53125 20.1465 -8.88672 C 20.8105 -8.22266 21.2891 -8.41797 22.207 -8.63281 C 22.9004 -8.79883 23.0664 -8.79883 23.4473 -8.41797 L 24.0918 -7.77344 C 24.4043 -7.48047 24.4141 -7.32422 24.0723 -6.97266 L 21.2207 -4.13086 C 20.8887 -3.79883 20.7227 -3.79883 20.4297 -4.10156 L 19.7852 -4.75586 C 19.4141 -5.13672 19.4141 -5.30273 19.5801 -6.01562 C 19.7852 -6.88477 19.9805 -7.38281 19.3262 -8.04688 C 18.6719 -8.7207 18.0762 -8.57422 17.3438 -8.33008 C 16.5625 -8.06641 16.3281 -8.06641 15.8984 -8.49609 L 14.6094 -9.78516 C 14.1699 -10.2246 14.1309 -10.4395 14.2676 -10.9082 L 15.0293 -13.3984 C 13.3887 -15.2832 11.4941 -15.5566 9.20898 -14.4434 C 9.11133 -14.3945 9.04297 -14.4141 8.96484 -14.4922 Z M 3.96484 1.36719 C 3.52539 0.927734 3.54492 0.537109 4.14062 -0.00976562 L 13.7402 -8.81836 L 15 -7.55859 L 6.17188 2.02148 C 5.625 2.60742 5.24414 2.64648 4.79492 2.19727 Z"/>
  </g>
  <text style="stroke:none;fill:black;font-family:-apple-system,&quot;SF Pro Display&quot;,&quot;SF Pro Text&quot;,Helvetica,sans-serif;font-weight:bold;" transform="matrix(1 0 0 1 1289 1953)">Exporting</text>
  <text style="stroke:none;fill:black;font-family:-apple-system,&quot;SF Pro Display&quot;,&quot;SF Pro Text&quot;,Helvetica,sans-serif;" transform="matrix(1 0 0 1 1289 1971)">Symbols should be outlined when exporting to ensure the</text>
  <text style="stroke:none;fill:black;font-family:-apple-system,&quot;SF Pro Display&quot;,&quot;SF Pro Text&quot;,Helvetica,sans-serif;" transform="matrix(1 0 0 1 1289 1989)">design is preserved when submitting to Xcode.</text>
  <text id="template-version" style="stroke:none;fill:black;font-family:-apple-system,&quot;SF Pro Display&quot;,&quot;SF Pro Text&quot;,Helvetica,sans-serif;text-anchor:end;" transform="matrix(1 0 0 1 3036 1933)">Template v.0.1</text>
  <text style="stroke:none;fill:black;font-family:-apple-system,&quot;SF Pro Display&quot;,&quot;SF Pro Text&quot;,Helvetica,sans-serif;text-anchor:end;" transform="matrix(1 0 0 1 3036 1951)">Generated from wonsign.square</text>
  <text style="stroke:none;fill:black;font-family:-apple-system,&quot;SF Pro Display&quot;,&quot;SF Pro Text&quot;,Helvetica,sans-serif;text-anchor:end;" transform="matrix(1 0 0 1 3036 1969)">Typeset at 100 points</text>
  <text style="stroke:none;fill:black;font-family:-apple-system,&quot;SF Pro Display&quot;,&quot;SF Pro Text&quot;,Helvetica,sans-serif;" transform="matrix(1 0 0 1 263 726)">Small</text>
  <text style="stroke:none;fill:black;font-family:-apple-system,&quot;SF Pro Display&quot;,&quot;SF Pro Text&quot;,Helvetica,sans-serif;" transform="matrix(1 0 0 1 263 1156)">Medium</text>
  <text style="stroke:none;fill:black;font-family:-apple-system,&quot;SF Pro Display&quot;,&quot;SF Pro Text&quot;,Helvetica,sans-serif;" transform="matrix(1 0 0 1 263 1586)">Large</text>
 </g>
 <g id="Guides">
  <g id="H-reference" style="fill:#27AAE1;stroke:none;" transform="matrix(1 0 0 1 339 696)">
   <path d="M 54.9316 0 L 57.666 0 L 30.5664 -70.459 L 28.0762 -70.459 L 0.976562 0 L 3.66211 0 L 12.9395 -24.4629 L 45.7031 -24.4629 Z M 29.1992 -67.0898 L 29.4434 -67.0898 L 44.8242 -26.709 L 13.8184 -26.709 Z"/>
  </g>
  <line id="Baseline-S" style="fill:none;stroke:#27AAE1;opacity:1;stroke-width:0.577;" x1="263" x2="3036" y1="696" y2="696"/>
  <line id="Capline-S" style="fill:none;stroke:#27AAE1;opacity:1;stroke-width:0.577;" x1="263" x2="3036" y1="625.541" y2="625.541"/>
  <g id="H-reference" style="fill:#27AAE1;stroke:none;" transform="matrix(1 0 0 1 339 1126)">
   <path d="M 54.9316 0 L 57.666 0 L 30.5664 -70.459 L 28.0762 -70.459 L 0.976562 0 L 3.66211 0 L 12.9395 -24.4629 L 45.7031 -24.4629 Z M 29.1992 -67.0898 L 29.4434 -67.0898 L 44.8242 -26.709 L 13.8184 -26.709 Z"/>
  </g>
  <line id="Baseline-M" style="fill:none;stroke:#27AAE1;opacity:1;stroke-width:0.577;" x1="263" x2="3036" y1="1126" y2="1126"/>
  <line id="Capline-M" style="fill:none;stroke:#27AAE1;opacity:1;stroke-width:0.577;" x1="263" x2="3036" y1="1055.54" y2="1055.54"/>
  <g id="H-reference" style="fill:#27AAE1;stroke:none;" transform="matrix(1 0 0 1 339 1556)">
   <path d="M 54.9316 0 L 57.666 0 L 30.5664 -70.459 L 28.0762 -70.459 L 0.976562 0 L 3.66211 0 L 12.9395 -24.4629 L 45.7031 -24.4629 Z M 29.1992 -67.0898 L 29.4434 -67.0898 L 44.8242 -26.709 L 13.8184 -26.709 Z"/>
  </g>
  <line id="Baseline-L" style="fill:none;stroke:#27AAE1;opacity:1;stroke-width:0.577;" x1="263" x2="3036" y1="1556" y2="1556"/>
  <line id="Capline-L" style="fill:none;stroke:#27AAE1;opacity:1;stroke-width:0.577;" x1="263" x2="3036" y1="1485.54" y2="1485.54"/>
  <rect height="119.336" id="left-margin" style="fill:#00AEEF;stroke:none;opacity:0.4;" width="12.4512" x="1392.42" y="1030.79"/>
  <rect height="119.336" id="right-margin" style="fill:#00AEEF;stroke:none;opacity:0.4;" width="12.5" x="1494.77" y="1030.79"/>
 </g>
 <g id="Symbols">
  <g id="Ultralight-S" transform="matrix(1 0 0 1 516.352 696)">
   <path d="M 19.7754 -1.5625 L 66.9922 -1.5625 C 73.5352 -1.5625 76.9531 -5.12695 76.9531 -11.5234 L 76.9531 -58.7891 C 76.9531 -65.2344 73.5352 -68.75 66.9922 -68.75 L 19.7754 -68.75 C 13.2324 -68.75 9.76562 -65.2832 9.76562 -58.7891 L 9.76562 -11.5234 C 9.76562 -5.0293 13.2324 -1.5625 19.7754 -1.5625 Z M 19.873 -3.75977 C 14.6484 -3.75977 11.9629 -6.44531 11.9629 -11.6699 L 11.9629 -58.6426 C 11.9629 -63.8672 14.6484 -66.5527 19.873 -66.5527 L 66.8945 -66.5527 C 71.875 -66.5527 74.7559 -63.8672 74.7559 -58.6426 L 74.7559 -11.6699 C 74.7559 -6.44531 71.875 -3.75977 66.8945 -3.75977 Z M 29.7363 -35.4004 C 29.7363 -34.8145 30.1758 -34.375 30.8105 -34.375 L 32.7637 -34.375 L 35.0098 -19.0918 C 35.1074 -18.5059 35.498 -18.1641 36.084 -18.1641 C 36.6699 -18.1641 37.0605 -18.457 37.207 -18.9453 L 40.6738 -34.375 L 46.0449 -34.375 L 49.5605 -18.9941 C 49.6582 -18.5059 50.0488 -18.1641 50.6836 -18.1641 C 51.1719 -18.1641 51.6602 -18.457 51.7578 -19.043 L 54.0527 -34.375 L 55.957 -34.375 C 56.5918 -34.375 57.0312 -34.8145 57.0312 -35.4004 C 57.0312 -35.9375 56.5918 -36.4258 55.957 -36.4258 L 54.3945 -36.4258 L 56.3477 -49.7559 C 56.3965 -50.0977 56.3965 -50.1953 56.3965 -50.2441 C 56.3965 -50.8301 56.0059 -51.2695 55.3711 -51.2695 C 54.834 -51.2695 54.3457 -50.9277 54.248 -50.1953 L 52.2461 -36.4258 L 47.7051 -36.4258 L 44.4824 -50.3418 C 44.3848 -50.8789 43.9453 -51.2207 43.4082 -51.2207 C 42.8711 -51.2207 42.4316 -50.8789 42.334 -50.3418 L 39.1113 -36.4258 L 34.5215 -36.4258 L 32.5195 -50.2441 C 32.4219 -50.8789 31.9824 -51.2695 31.3965 -51.2695 C 30.8105 -51.2695 30.3711 -50.8789 30.3711 -50.293 C 30.3711 -50.1465 30.4199 -49.8047 30.4688 -49.5117 L 32.4707 -36.4258 L 30.8105 -36.4258 C 30.1758 -36.4258 29.7363 -35.9375 29.7363 -35.4004 Z M 41.2109 -36.4258 L 43.3594 -45.9473 L 45.5566 -36.4258 Z M 34.8145 -34.375 L 38.6719 -34.375 L 36.2793 -24.0234 Z M 48.1445 -34.375 L 51.9531 -34.375 L 50.5371 -24.0723 Z"/>
  </g>
  <g id="Thin-S" transform="matrix(1 0 0 1 812.599 696)">
   <path d="M 20.3125 -1.12305 L 67.334 -1.12305 C 74.2676 -1.12305 77.8809 -4.78516 77.8809 -11.6211 L 77.8809 -58.6914 C 77.8809 -65.5762 74.2676 -69.2383 67.334 -69.2383 L 20.3125 -69.2383 C 13.3789 -69.2383 9.76562 -65.625 9.76562 -58.6914 L 9.76562 -11.6211 C 9.76562 -4.6875 13.3789 -1.12305 20.3125 -1.12305 Z M 20.4102 -4.44336 C 15.625 -4.44336 13.0859 -6.93359 13.0859 -11.8164 L 13.0859 -58.5449 C 13.0859 -63.3789 15.625 -65.918 20.4102 -65.918 L 67.2363 -65.918 C 71.875 -65.918 74.5605 -63.3789 74.5605 -58.5449 L 74.5605 -11.8164 C 74.5605 -6.93359 71.875 -4.44336 67.2363 -4.44336 Z M 29.4434 -35.5469 C 29.4434 -34.8633 29.9316 -34.2773 30.7129 -34.2773 L 32.7637 -34.2773 L 35.1074 -18.9453 C 35.2539 -18.1152 35.8398 -17.627 36.6211 -17.627 C 37.4512 -17.627 38.0371 -18.0664 38.1836 -18.8477 L 41.4062 -34.2773 L 46.2402 -34.2773 L 49.5117 -18.8965 C 49.6582 -18.1152 50.2441 -17.627 51.0742 -17.627 C 51.8066 -17.627 52.4902 -18.0664 52.6367 -18.9453 L 54.9316 -34.2773 L 56.9336 -34.2773 C 57.7148 -34.2773 58.252 -34.8633 58.252 -35.5469 C 58.252 -36.2793 57.7148 -36.8164 56.9336 -36.8164 L 55.3223 -36.8164 L 57.3242 -49.8535 C 57.373 -50.1953 57.373 -50.3418 57.373 -50.4883 C 57.373 -51.2695 56.7871 -51.8066 55.957 -51.8066 C 55.2734 -51.8066 54.6387 -51.3672 54.4922 -50.4883 L 52.5879 -36.8164 L 48.3398 -36.8164 L 45.4102 -50.4395 C 45.2637 -51.2695 44.6289 -51.7578 43.8477 -51.7578 C 43.0664 -51.7578 42.3828 -51.2695 42.2363 -50.4395 L 39.3555 -36.8164 L 35.1074 -36.8164 L 33.2031 -50.4883 C 33.1055 -51.3184 32.5195 -51.8066 31.7383 -51.8066 C 30.9082 -51.8066 30.2734 -51.2695 30.2734 -50.4883 C 30.2734 -50.2441 30.3711 -49.9512 30.4199 -49.6094 L 32.373 -36.8164 L 30.7129 -36.8164 C 29.9316 -36.8164 29.4434 -36.2793 29.4434 -35.5469 Z M 41.9434 -36.8164 L 43.8477 -45.8008 L 45.7031 -36.8164 Z M 35.4492 -34.2773 L 38.8672 -34.2773 L 36.8164 -24.3652 Z M 48.8281 -34.2773 L 52.2461 -34.2773 L 50.9277 -24.3164 Z"/>
  </g>
  <g id="Light-S" transform="matrix(1 0 0 1 1108.46 696)">
   <path d="M 21.3867 -0.292969 L 67.9688 -0.292969 C 75.7324 -0.292969 79.5898 -4.15039 79.5898 -11.7676 L 79.5898 -58.5938 C 79.5898 -66.2109 75.7324 -70.1172 67.9688 -70.1172 L 21.3867 -70.1172 C 13.6719 -70.1172 9.76562 -66.2598 9.76562 -58.5938 L 9.76562 -11.7676 C 9.76562 -4.15039 13.6719 -0.292969 21.3867 -0.292969 Z M 21.4844 -5.71289 C 17.4316 -5.71289 15.1855 -7.86133 15.1855 -12.0605 L 15.1855 -58.3008 C 15.1855 -62.5 17.4316 -64.6973 21.4844 -64.6973 L 67.8711 -64.6973 C 71.875 -64.6973 74.1699 -62.5 74.1699 -58.3008 L 74.1699 -12.0605 C 74.1699 -7.86133 71.875 -5.71289 67.8711 -5.71289 Z M 28.8086 -35.8398 C 28.8086 -34.9121 29.541 -34.1309 30.5176 -34.1309 L 32.7637 -34.1309 L 35.2051 -18.7012 C 35.4004 -17.3828 36.377 -16.6016 37.6465 -16.6016 C 38.8672 -16.6016 39.8438 -17.2852 40.0391 -18.6523 L 42.8223 -34.1309 L 46.582 -34.1309 L 49.4141 -18.6523 C 49.6094 -17.2852 50.5859 -16.6016 51.8555 -16.6016 C 53.0273 -16.6016 54.0527 -17.334 54.2969 -18.7012 L 56.6895 -34.1309 L 58.8867 -34.1309 C 59.8633 -34.1309 60.5957 -34.9609 60.5957 -35.8887 C 60.5957 -36.9141 59.8633 -37.6465 58.8867 -37.6465 L 57.2266 -37.6465 L 59.1309 -49.9512 C 59.1797 -50.3418 59.2285 -50.5859 59.2285 -50.9277 C 59.2285 -52.0996 58.3496 -52.8809 57.1289 -52.8809 C 56.0547 -52.8809 55.127 -52.2461 54.9805 -51.0254 L 53.1738 -37.6465 L 49.6094 -37.6465 L 47.2168 -50.6836 C 47.0215 -52.0508 45.8984 -52.832 44.6777 -52.832 C 43.4082 -52.832 42.3828 -52.0508 42.1387 -50.6348 L 39.7461 -37.5977 L 36.2793 -37.5977 L 34.5703 -50.9766 C 34.375 -52.1973 33.4473 -52.832 32.373 -52.832 C 31.1035 -52.832 30.1758 -52.0996 30.1758 -50.8789 C 30.1758 -50.4883 30.2734 -50.0977 30.3223 -49.7559 L 32.2266 -37.5977 L 30.5176 -37.5977 C 29.541 -37.5977 28.8086 -36.8652 28.8086 -35.8398 Z M 43.457 -37.5977 L 44.7266 -45.459 L 45.9961 -37.5977 Z M 36.7188 -34.1797 L 39.2578 -34.1797 L 37.7441 -24.9512 Z M 50.1465 -34.1797 L 52.832 -34.1797 L 51.709 -24.7559 Z"/>
  </g>
  <g id="Regular-S" transform="matrix(1 0 0 1 1404.51 696)">
   <path d="M 22.2168 0.390625 L 68.457 0.390625 C 76.8066 0.390625 80.9082 -3.71094 80.9082 -11.9141 L 80.9082 -58.4961 C 80.9082 -66.6992 76.8066 -70.8008 68.457 -70.8008 L 22.2168 -70.8008 C 13.916 -70.8008 9.76562 -66.6992 9.76562 -58.4961 L 9.76562 -11.9141 C 9.76562 -3.71094 13.916 0.390625 22.2168 0.390625 Z M 22.3145 -6.68945 C 18.7988 -6.68945 16.7969 -8.54492 16.7969 -12.2559 L 16.7969 -58.1543 C 16.7969 -61.8164 18.7988 -63.7207 22.3145 -63.7207 L 68.3594 -63.7207 C 71.875 -63.7207 73.877 -61.8164 73.877 -58.1543 L 73.877 -12.2559 C 73.877 -8.54492 71.875 -6.68945 68.3594 -6.68945 Z M 28.3203 -36.084 C 28.3203 -34.9609 29.1992 -33.9844 30.3711 -33.9844 L 32.7637 -33.9844 L 35.3027 -18.5059 C 35.5469 -16.7969 36.8164 -15.8691 38.3789 -15.8691 C 39.9414 -15.8691 41.2109 -16.6992 41.5039 -18.5059 L 43.8477 -34.0332 L 46.875 -34.0332 L 49.3164 -18.5059 C 49.6094 -16.6992 50.8789 -15.8691 52.4414 -15.8691 C 54.0039 -15.8691 55.2734 -16.7969 55.5176 -18.5059 L 57.959 -34.0332 L 60.3516 -34.0332 C 61.5234 -34.0332 62.4023 -35.0098 62.4023 -36.1328 C 62.4023 -37.3535 61.5234 -38.2324 60.3516 -38.2324 L 58.6426 -38.2324 L 60.498 -50.0488 C 60.5469 -50.4395 60.6445 -50.7812 60.6445 -51.2695 C 60.6445 -52.7832 59.5215 -53.6621 58.0078 -53.6621 C 56.6895 -53.6621 55.5176 -52.9297 55.3223 -51.4648 L 53.6133 -38.2324 L 50.5859 -38.2324 L 48.584 -50.8301 C 48.291 -52.6367 46.875 -53.6133 45.3125 -53.6133 C 43.6523 -53.6133 42.334 -52.6367 42.041 -50.7812 L 40.0879 -38.1836 L 37.1582 -38.1836 L 35.5469 -51.3672 C 35.3516 -52.8809 34.1797 -53.6133 32.8125 -53.6133 C 31.25 -53.6133 30.0781 -52.6855 30.0781 -51.1719 C 30.0781 -50.6348 30.1758 -50.2441 30.2246 -49.9023 L 32.0801 -38.1836 L 30.3711 -38.1836 C 29.1992 -38.1836 28.3203 -37.3047 28.3203 -36.084 Z M 44.5801 -38.1836 L 45.4102 -45.2148 L 46.2402 -38.1836 Z M 37.6953 -34.082 L 39.5508 -34.082 L 38.4766 -25.3906 Z M 51.123 -34.082 L 53.2227 -34.082 L 52.2949 -25.0977 Z"/>
  </g>
  <g id="Medium-S" transform="matrix(1 0 0 1 1700.63 696)">
   <path d="M 22.8516 0.976562 L 68.9941 0.976562 C 77.6367 0.976562 82.0801 -3.4668 82.0801 -11.9629 L 82.0801 -58.3984 C 82.0801 -66.9434 77.6367 -71.3867 68.9941 -71.3867 L 22.8516 -71.3867 C 14.2578 -71.3867 9.76562 -66.9434 9.76562 -58.3984 L 9.76562 -11.9629 C 9.76562 -3.4668 14.2578 0.976562 22.8516 0.976562 Z M 23.4375 -7.71484 C 20.2148 -7.71484 18.4082 -9.375 18.4082 -12.793 L 18.4082 -57.6172 C 18.4082 -61.0352 20.2148 -62.6953 23.4375 -62.6953 L 68.4082 -62.6953 C 71.6309 -62.6953 73.4375 -61.0352 73.4375 -57.6172 L 73.4375 -12.793 C 73.4375 -9.375 71.6309 -7.71484 68.4082 -7.71484 Z M 29.1504 -35.9863 C 29.1504 -34.9121 29.9805 -34.0332 31.0547 -34.0332 L 33.2031 -34.0332 L 35.498 -19.6289 C 35.791 -17.7246 37.2559 -16.5527 39.0137 -16.5527 C 40.8203 -16.5527 42.2852 -17.627 42.5781 -19.6289 L 44.6777 -34.082 L 47.2168 -34.082 L 49.4141 -19.6289 C 49.707 -17.627 51.123 -16.5527 52.9297 -16.5527 C 54.6875 -16.5527 56.1523 -17.7246 56.4453 -19.6289 L 58.6914 -34.082 L 60.8398 -34.082 C 61.9629 -34.082 62.7441 -34.9609 62.7441 -36.0352 C 62.7441 -37.1582 61.9629 -37.9395 60.8398 -37.9395 L 59.2773 -37.9395 L 61.0352 -49.0234 C 61.084 -49.5117 61.1816 -49.9512 61.1816 -50.3906 C 61.1816 -52.0996 59.9121 -53.1738 58.2031 -53.1738 C 56.6406 -53.1738 55.3711 -52.2461 55.1758 -50.5859 L 53.7109 -37.9395 L 51.1719 -37.9395 L 49.3164 -50.1953 C 49.0234 -52.0508 47.6074 -53.125 45.8984 -53.125 C 44.1406 -53.125 42.7734 -52.0508 42.4805 -50.1465 L 40.625 -37.8906 L 38.1836 -37.8906 L 36.7676 -50.5371 C 36.6211 -52.1973 35.3027 -53.125 33.7402 -53.125 C 31.9824 -53.125 30.7129 -52.0508 30.7129 -50.293 C 30.7129 -49.8047 30.8105 -49.4141 30.8594 -48.9258 L 32.5684 -37.8906 L 31.0547 -37.8906 C 29.9805 -37.8906 29.1504 -37.1094 29.1504 -35.9863 Z M 45.2637 -37.8906 L 45.9473 -43.7988 L 46.6797 -37.8906 Z M 38.623 -34.1309 L 40.1855 -34.1309 L 39.3066 -26.9043 Z M 51.6602 -34.1309 L 53.3691 -34.1309 L 52.5879 -26.6602 Z"/>
  </g>
  <g id="Semibold-S" transform="matrix(1 0 0 1 1996.9 696)">
   <path d="M 23.3398 1.41602 L 69.3848 1.41602 C 78.2227 1.41602 82.959 -3.32031 82.959 -12.0605 L 82.959 -58.3496 C 82.959 -67.0898 78.2227 -71.8262 69.3848 -71.8262 L 23.3398 -71.8262 C 14.5508 -71.8262 9.76562 -67.0898 9.76562 -58.3496 L 9.76562 -12.0605 C 9.76562 -3.32031 14.5508 1.41602 23.3398 1.41602 Z M 24.3164 -8.49609 C 21.2891 -8.49609 19.6777 -10.0098 19.6777 -13.1836 L 19.6777 -57.2266 C 19.6777 -60.4004 21.2891 -61.9141 24.3164 -61.9141 L 68.457 -61.9141 C 71.4355 -61.9141 73.0469 -60.4004 73.0469 -57.2266 L 73.0469 -13.1836 C 73.0469 -10.0098 71.4355 -8.49609 68.457 -8.49609 Z M 29.7852 -35.8887 C 29.7852 -34.8633 30.5176 -34.082 31.543 -34.082 L 33.4961 -34.082 L 35.6445 -20.5078 C 35.9863 -18.4082 37.5488 -17.1387 39.502 -17.1387 C 41.5039 -17.1387 43.0664 -18.3594 43.3594 -20.5078 L 45.3125 -34.082 L 47.4609 -34.082 L 49.4629 -20.5078 C 49.7559 -18.3594 51.3184 -17.1387 53.3203 -17.1387 C 55.2734 -17.1387 56.8359 -18.4082 57.1289 -20.5078 L 59.2285 -34.082 L 61.2305 -34.082 C 62.2559 -34.082 62.9883 -34.9121 62.9883 -35.9375 C 62.9883 -36.9629 62.2559 -37.7441 61.2305 -37.7441 L 59.7656 -37.7441 L 61.4258 -48.291 C 61.4746 -48.7793 61.5723 -49.3164 61.5723 -49.707 C 61.5723 -51.6113 60.2539 -52.7832 58.3496 -52.7832 C 56.6406 -52.7832 55.2734 -51.7578 55.0781 -49.9512 L 53.7598 -37.7441 L 51.6113 -37.7441 L 49.9023 -49.707 C 49.6094 -51.6113 48.1445 -52.7344 46.3379 -52.7344 C 44.4824 -52.7344 43.0664 -51.6113 42.7734 -49.6582 L 41.0645 -37.6953 L 39.0137 -37.6953 L 37.7441 -49.9023 C 37.5488 -51.709 36.1816 -52.7344 34.4238 -52.7344 C 32.5195 -52.7344 31.2012 -51.5625 31.2012 -49.6582 C 31.2012 -49.1699 31.25 -48.7305 31.3477 -48.1934 L 32.959 -37.6953 L 31.543 -37.6953 C 30.5176 -37.6953 29.7852 -36.9629 29.7852 -35.8887 Z M 45.8008 -37.6953 L 46.3867 -42.6758 L 46.9727 -37.6953 Z M 39.3555 -34.1309 L 40.6738 -34.1309 L 39.9414 -28.0762 Z M 52.0508 -34.1309 L 53.4668 -34.1309 L 52.832 -27.8809 Z"/>
  </g>
  <g id="Bold-S" transform="matrix(1 0 0 1 2293.01 696)">
   <path d="M 23.9746 2.00195 L 69.9219 2.00195 C 79.0527 2.00195 84.1797 -3.07617 84.1797 -12.1582 L 84.1797 -58.252 C 84.1797 -67.334 79.0527 -72.4121 69.9219 -72.4121 L 23.9746 -72.4121 C 14.8926 -72.4121 9.76562 -67.334 9.76562 -58.252 L 9.76562 -12.1582 C 9.76562 -3.07617 14.8926 2.00195 23.9746 2.00195 Z M 25.4395 -9.57031 C 22.7051 -9.57031 21.3379 -10.791 21.3379 -13.7207 L 21.3379 -56.6895 C 21.3379 -59.5703 22.7051 -60.8398 25.4395 -60.8398 L 68.457 -60.8398 C 71.1914 -60.8398 72.6074 -59.5703 72.6074 -56.6895 L 72.6074 -13.7207 C 72.6074 -10.791 71.1914 -9.57031 68.457 -9.57031 Z M 30.6152 -35.791 C 30.6152 -34.8145 31.2988 -34.1309 32.2266 -34.1309 L 33.9355 -34.1309 L 35.8398 -21.6309 C 36.2305 -19.2871 37.9395 -17.8711 40.1855 -17.8711 C 42.4316 -17.8711 44.1406 -19.2871 44.4824 -21.6797 L 46.1426 -34.1309 L 47.8027 -34.1309 L 49.5117 -21.6797 C 49.8047 -19.2871 51.5625 -17.8711 53.8086 -17.8711 C 56.0059 -17.8711 57.7148 -19.2871 58.0566 -21.6309 L 59.9121 -34.1309 L 61.7188 -34.1309 C 62.6465 -34.1309 63.3301 -34.8633 63.3301 -35.791 C 63.3301 -36.7676 62.6465 -37.4512 61.7188 -37.4512 L 60.4492 -37.4512 L 61.9141 -47.2656 C 62.0117 -47.8516 62.0605 -48.4863 62.0605 -48.8281 C 62.0605 -50.9277 60.6445 -52.2949 58.5938 -52.2949 C 56.5918 -52.2949 55.127 -51.0742 54.9805 -49.1211 L 53.8086 -37.4512 L 52.1973 -37.4512 L 50.6348 -49.0234 C 50.3418 -50.9766 48.877 -52.2461 46.9238 -52.2461 C 44.9707 -52.2461 43.5059 -50.9766 43.2129 -49.0234 L 41.6504 -37.4023 L 40.0879 -37.4023 L 38.9648 -49.0723 C 38.8184 -51.0254 37.3047 -52.2461 35.3516 -52.2461 C 33.252 -52.2461 31.7871 -50.8789 31.7871 -48.7793 C 31.7871 -48.291 31.8848 -47.9004 31.9336 -47.2168 L 33.4473 -37.4023 L 32.2266 -37.4023 C 31.2988 -37.4023 30.6152 -36.7188 30.6152 -35.791 Z M 46.5332 -37.4023 L 46.9727 -41.2109 L 47.4121 -37.4023 Z M 40.332 -34.1309 L 41.3086 -34.1309 L 40.7227 -29.5898 Z M 52.5879 -34.1309 L 53.6133 -34.1309 L 53.1738 -29.4922 Z"/>
  </g>
  <g id="Heavy-S" transform="matrix(1 0 0 1 2588.86 696)">
   <path d="M 24.9023 2.83203 L 70.7031 2.83203 C 80.2246 2.83203 85.8887 -2.7832 85.8887 -12.3047 L 85.8887 -58.1055 C 85.8887 -67.627 80.2246 -73.2422 70.7031 -73.2422 L 24.9023 -73.2422 C 15.3809 -73.2422 9.76562 -67.627 9.76562 -58.1055 L 9.76562 -12.3047 C 9.76562 -2.7832 15.3809 2.83203 24.9023 2.83203 Z M 27.0996 -11.084 C 24.8047 -11.084 23.6816 -12.0117 23.6816 -14.502 L 23.6816 -55.9082 C 23.6816 -58.3984 24.8047 -59.3262 27.0996 -59.3262 L 68.5547 -59.3262 C 70.8496 -59.3262 71.9238 -58.3984 71.9238 -55.9082 L 71.9238 -14.502 C 71.9238 -12.0117 70.8496 -11.084 68.5547 -11.084 Z M 31.8359 -35.5957 C 31.8359 -34.7656 32.4219 -34.1797 33.252 -34.1797 L 34.5703 -34.1797 L 36.1328 -23.291 C 36.5234 -20.6543 38.5254 -18.8965 41.1133 -18.8965 C 43.7012 -18.8965 45.7031 -20.6543 46.0449 -23.3887 L 47.3145 -34.1797 L 48.291 -34.1797 L 49.6094 -23.3887 C 49.9512 -20.6543 51.9043 -18.8965 54.541 -18.8965 C 57.0801 -18.8965 58.9844 -20.6543 59.375 -23.291 L 60.9375 -34.1797 L 62.4512 -34.1797 C 63.2812 -34.1797 63.8672 -34.7656 63.8672 -35.5957 C 63.8672 -36.4258 63.2812 -37.0117 62.4512 -37.0117 L 61.4258 -37.0117 L 62.6953 -45.8008 C 62.793 -46.5332 62.8418 -47.2656 62.8418 -47.5586 C 62.8418 -49.9512 61.2305 -51.5137 58.8867 -51.5137 C 56.5918 -51.5137 54.9316 -50.0977 54.7852 -47.8516 L 53.9062 -37.0117 L 53.0762 -37.0117 L 51.709 -48.0469 C 51.416 -50.1465 49.9023 -51.5137 47.7539 -51.5137 C 45.6543 -51.5137 44.0918 -50.1465 43.7988 -48.0469 L 42.4805 -37.0117 L 41.6016 -37.0117 L 40.7715 -47.8516 C 40.625 -50.0977 38.9648 -51.5137 36.6699 -51.5137 C 34.2773 -51.5137 32.7148 -49.9512 32.7148 -47.5586 C 32.7148 -47.0703 32.7637 -46.6309 32.8613 -45.8008 L 34.1309 -37.0117 L 33.252 -37.0117 C 32.4219 -37.0117 31.8359 -36.4258 31.8359 -35.5957 Z M 47.5586 -37.0117 L 47.8027 -39.1113 L 48.0469 -37.0117 Z M 41.6992 -34.1797 L 42.1875 -34.1797 L 41.9434 -31.7871 Z M 53.3203 -34.1797 L 53.8086 -34.1797 L 53.6133 -31.7871 Z"/>
  </g>
  <g id="Black-S" transform="matrix(1 0 0 1 2884.82 696)">
   <path d="M 25.7324 3.61328 L 71.4355 3.61328 C 81.2988 3.61328 87.4023 -2.49023 87.4023 -12.4023 L 87.4023 -58.0078 C 87.4023 -67.9199 81.2988 -74.0234 71.4355 -74.0234 L 25.7324 -74.0234 C 15.8203 -74.0234 9.76562 -67.9199 9.76562 -58.0078 L 9.76562 -12.4023 C 9.76562 -2.49023 15.8203 3.61328 25.7324 3.61328 Z M 28.5645 -12.4512 C 26.6602 -12.4512 25.8301 -13.0371 25.8301 -15.1855 L 25.8301 -55.2246 C 25.8301 -57.373 26.6602 -57.959 28.5645 -57.959 L 68.6035 -57.959 C 70.5078 -57.959 71.3379 -57.373 71.3379 -55.2246 L 71.3379 -15.1855 C 71.3379 -13.0371 70.5078 -12.4512 68.6035 -12.4512 Z M 32.9102 -35.4492 C 32.9102 -34.7168 33.3984 -34.2285 34.1309 -34.2285 L 35.1562 -34.2285 L 36.4258 -24.7559 C 36.8652 -21.8262 39.0137 -19.8242 41.9434 -19.8242 C 44.873 -19.8242 47.0703 -21.9238 47.4121 -24.9023 L 48.3887 -34.2285 L 48.7305 -34.2285 L 49.707 -24.9023 C 50.0488 -21.9238 52.2461 -19.8242 55.1758 -19.8242 C 58.0078 -19.8242 60.1562 -21.8262 60.5469 -24.7559 L 61.8652 -34.2285 L 63.0859 -34.2285 C 63.8184 -34.2285 64.3066 -34.7168 64.3066 -35.4492 C 64.3066 -36.1328 63.8184 -36.6699 63.0859 -36.6699 L 62.2559 -36.6699 L 63.3789 -44.4824 C 63.4766 -45.3125 63.5254 -46.1426 63.5254 -46.3867 C 63.5254 -49.0723 61.7676 -50.8789 59.1309 -50.8789 C 56.543 -50.8789 54.7363 -49.2188 54.6387 -46.7773 L 54.0039 -36.6699 L 53.8574 -36.6699 L 52.6855 -47.2168 C 52.3926 -49.3652 50.8301 -50.8789 48.5352 -50.8789 C 46.2402 -50.8789 44.6289 -49.3652 44.3359 -47.2168 L 43.2129 -36.6699 L 42.9688 -36.6699 L 42.334 -46.7773 C 42.2363 -49.2188 40.4297 -50.8789 37.8418 -50.8789 C 35.2539 -50.8789 33.4961 -49.1211 33.4961 -46.4355 C 33.4961 -45.9473 33.5449 -45.5078 33.6426 -44.5312 L 34.7656 -36.6699 L 34.1309 -36.6699 C 33.3984 -36.6699 32.9102 -36.1328 32.9102 -35.4492 Z M 48.4375 -36.6699 L 48.584 -37.2559 L 48.584 -36.6699 Z M 42.9688 -34.2285 L 43.0176 -34.2285 L 42.9688 -33.7891 Z"/>
  </g>
  <g id="Ultralight-M" transform="matrix(1 0 0 1 504.535 1126)">
   <path d="M 25 7.56836 L 85.3516 7.56836 C 93.5547 7.56836 97.9004 3.125 97.9004 -4.98047 L 97.9004 -65.2832 C 97.9004 -73.3887 93.5547 -77.832 85.3516 -77.832 L 25 -77.832 C 16.7969 -77.832 12.4512 -73.4863 12.4512 -65.2832 L 12.4512 -4.98047 C 12.4512 3.22266 16.7969 7.56836 25 7.56836 Z M 25.1465 5.17578 C 18.3594 5.17578 14.8438 1.66016 14.8438 -5.07812 L 14.8438 -65.1855 C 14.8438 -71.9727 18.3594 -75.4395 25.1465 -75.4395 L 85.2051 -75.4395 C 91.748 -75.4395 95.5078 -71.9727 95.5078 -65.1855 L 95.5078 -5.07812 C 95.5078 1.66016 91.748 5.17578 85.2051 5.17578 Z M 38.0859 -35.3516 C 38.0859 -34.7168 38.623 -34.1309 39.4043 -34.1309 L 41.7969 -34.1309 L 44.6777 -14.6973 C 44.8242 -14.0625 45.2148 -13.623 45.8984 -13.623 C 46.5332 -13.623 46.9727 -13.9648 47.0703 -14.502 L 51.6602 -34.1309 L 58.6914 -34.1309 L 63.2812 -14.5996 C 63.3789 -14.0625 63.8184 -13.623 64.5508 -13.623 C 65.0879 -13.623 65.625 -13.9648 65.7227 -14.6484 L 68.6523 -34.1309 L 71.0449 -34.1309 C 71.8262 -34.1309 72.3145 -34.7168 72.3145 -35.3516 C 72.3145 -36.0352 71.8262 -36.5723 71.0449 -36.5723 L 69.043 -36.5723 L 71.582 -53.7598 C 71.6309 -54.1992 71.6309 -54.248 71.6309 -54.2969 C 71.6309 -54.9805 71.1426 -55.4688 70.4102 -55.4688 C 69.8242 -55.4688 69.2871 -55.0781 69.1406 -54.248 L 66.6016 -36.5723 L 60.6445 -36.5723 L 56.4453 -54.4434 C 56.2988 -55.0293 55.8594 -55.4199 55.2246 -55.4199 C 54.6387 -55.4199 54.1504 -55.0293 54.0527 -54.4434 L 49.8535 -36.5723 L 43.7988 -36.5723 L 41.2598 -54.2969 C 41.1133 -55.0293 40.6738 -55.5176 39.9902 -55.5176 C 39.2578 -55.5176 38.7695 -55.0293 38.7695 -54.3945 C 38.7695 -54.1992 38.8184 -53.8086 38.916 -53.4668 L 41.4551 -36.5723 L 39.4043 -36.5723 C 38.623 -36.5723 38.0859 -36.0352 38.0859 -35.3516 Z M 52.2949 -36.5723 L 55.1758 -48.9746 L 58.0566 -36.5723 Z M 44.1895 -34.1309 L 49.2676 -34.1309 L 46.1426 -20.8496 Z M 61.1816 -34.1309 L 66.2109 -34.1309 L 64.3555 -20.8984 Z"/>
  </g>
  <g id="Thin-M" transform="matrix(1 0 0 1 800.734 1126)">
   <path d="M 25.6348 8.05664 L 85.7422 8.05664 C 94.3848 8.05664 98.9258 3.4668 98.9258 -5.0293 L 98.9258 -65.2344 C 98.9258 -73.7305 94.3848 -78.3691 85.7422 -78.3691 L 25.6348 -78.3691 C 16.9922 -78.3691 12.4512 -73.877 12.4512 -65.2344 L 12.4512 -5.0293 C 12.4512 3.56445 16.9922 8.05664 25.6348 8.05664 Z M 25.7324 4.44336 C 19.4336 4.44336 16.1133 1.12305 16.1133 -5.22461 L 16.1133 -65.0391 C 16.1133 -71.4355 19.4336 -74.7559 25.7324 -74.7559 L 85.5957 -74.7559 C 91.748 -74.7559 95.2637 -71.4355 95.2637 -65.0391 L 95.2637 -5.22461 C 95.2637 1.12305 91.748 4.44336 85.5957 4.44336 Z M 37.7441 -35.5469 C 37.7441 -34.7168 38.3301 -34.0332 39.2578 -34.0332 L 41.7969 -34.0332 L 44.7266 -14.5508 C 44.9219 -13.623 45.5566 -13.0371 46.4844 -13.0371 C 47.3633 -13.0371 48.0469 -13.5254 48.1934 -14.4043 L 52.4902 -34.082 L 58.8867 -34.082 L 63.1836 -14.4531 C 63.3789 -13.5742 64.0137 -13.0371 64.9902 -13.0371 C 65.7715 -13.0371 66.5527 -13.5742 66.6992 -14.502 L 69.6777 -34.082 L 72.1191 -34.082 C 73.0957 -34.082 73.6816 -34.7168 73.6816 -35.5469 C 73.6816 -36.377 73.0957 -37.0605 72.1191 -37.0605 L 70.1172 -37.0605 L 72.6562 -53.8086 C 72.7051 -54.2969 72.7051 -54.3945 72.7051 -54.5898 C 72.7051 -55.4688 72.0703 -56.1035 71.0938 -56.1035 C 70.3125 -56.1035 69.5801 -55.6152 69.4336 -54.541 L 66.9434 -37.0605 L 61.377 -37.0605 L 57.4707 -54.5898 C 57.3242 -55.4688 56.5918 -56.0059 55.7129 -56.0059 C 54.834 -56.0059 54.1504 -55.4688 53.9551 -54.5898 L 50.0977 -37.0605 L 44.4824 -37.0605 L 42.041 -54.5898 C 41.8945 -55.5664 41.2109 -56.1035 40.332 -56.1035 C 39.3555 -56.1035 38.7207 -55.5176 38.7207 -54.5898 C 38.7207 -54.3457 38.7695 -53.9551 38.8184 -53.5645 L 41.3574 -37.0605 L 39.2578 -37.0605 C 38.3301 -37.0605 37.7441 -36.377 37.7441 -35.5469 Z M 53.125 -37.0605 L 55.7129 -48.7793 L 58.252 -37.0605 Z M 44.9219 -34.082 L 49.5117 -34.082 L 46.6797 -21.1914 Z M 61.9629 -34.082 L 66.5527 -34.082 L 64.7949 -21.1426 Z"/>
  </g>
  <g id="Light-M" transform="matrix(1 0 0 1 1096.47 1126)">
   <path d="M 26.8555 9.0332 L 86.4746 9.0332 C 96.0449 9.0332 100.879 4.15039 100.879 -5.22461 L 100.879 -65.0879 C 100.879 -74.5117 96.0449 -79.3945 86.4746 -79.3945 L 26.8555 -79.3945 C 17.334 -79.3945 12.4512 -74.5605 12.4512 -65.0879 L 12.4512 -5.22461 C 12.4512 4.19922 17.334 9.0332 26.8555 9.0332 Z M 27.002 2.97852 C 21.4844 2.97852 18.5059 0.0976562 18.5059 -5.56641 L 18.5059 -64.7949 C 18.5059 -70.4102 21.4844 -73.3398 27.002 -73.3398 L 86.377 -73.3398 C 91.748 -73.3398 94.8242 -70.4102 94.8242 -64.7949 L 94.8242 -5.56641 C 94.8242 0.0976562 91.748 2.97852 86.377 2.97852 Z M 37.0117 -35.8887 C 37.0117 -34.8145 37.8906 -33.8867 39.0137 -33.8867 L 41.7969 -33.8867 L 44.873 -14.2578 C 45.1172 -12.7441 46.1914 -11.9141 47.6074 -11.9141 C 49.0234 -11.9141 50.0977 -12.6465 50.3418 -14.1602 L 54.0527 -33.9355 L 59.3262 -33.9355 L 63.0859 -14.1602 C 63.3301 -12.6953 64.4531 -11.9141 65.8691 -11.9141 C 67.1875 -11.9141 68.3105 -12.7441 68.6035 -14.209 L 71.6309 -33.9355 L 74.3164 -33.9355 C 75.5371 -33.9355 76.3672 -34.8145 76.3672 -35.9375 C 76.3672 -37.1094 75.5371 -37.9395 74.3164 -37.9395 L 72.2656 -37.9395 L 74.707 -53.9551 C 74.7559 -54.4434 74.8535 -54.7363 74.8535 -55.0781 C 74.8535 -56.4453 73.8281 -57.2754 72.4121 -57.2754 C 71.2402 -57.2754 70.166 -56.5918 69.9707 -55.1758 L 67.627 -37.9395 L 62.793 -37.9395 L 59.5215 -54.834 C 59.2773 -56.3477 58.0566 -57.2266 56.6895 -57.2266 C 55.2246 -57.2266 54.1016 -56.3477 53.8574 -54.834 L 50.5859 -37.9395 L 45.8008 -37.9395 L 43.5547 -55.127 C 43.3594 -56.543 42.2852 -57.2754 41.0645 -57.2754 C 39.5996 -57.2754 38.5742 -56.3965 38.5742 -55.0293 C 38.5742 -54.5898 38.6719 -54.1504 38.7207 -53.7109 L 41.2109 -37.9395 L 39.0137 -37.9395 C 37.8906 -37.9395 37.0117 -37.0605 37.0117 -35.8887 Z M 54.834 -37.9395 L 56.6895 -48.4375 L 58.5938 -37.9395 Z M 46.3379 -33.9355 L 49.9512 -33.9355 L 47.8027 -21.875 Z M 63.4766 -33.9355 L 67.1875 -33.9355 L 65.6738 -21.6797 Z"/>
  </g>
  <g id="Regular-M" transform="matrix(1 0 0 1 1392.42 1126)">
   <path d="M 27.7832 9.76562 L 87.0605 9.76562 C 97.2656 9.76562 102.344 4.6875 102.344 -5.37109 L 102.344 -64.9902 C 102.344 -75.0488 97.2656 -80.127 87.0605 -80.127 L 27.7832 -80.127 C 17.627 -80.127 12.4512 -75.0977 12.4512 -64.9902 L 12.4512 -5.37109 C 12.4512 4.73633 17.627 9.76562 27.7832 9.76562 Z M 27.9297 1.9043 C 23.0469 1.9043 20.3125 -0.683594 20.3125 -5.76172 L 20.3125 -64.5996 C 20.3125 -69.6777 23.0469 -72.2656 27.9297 -72.2656 L 86.9141 -72.2656 C 91.748 -72.2656 94.4824 -69.6777 94.4824 -64.5996 L 94.4824 -5.76172 C 94.4824 -0.683594 91.748 1.9043 86.9141 1.9043 Z M 36.4746 -36.1816 C 36.4746 -34.8633 37.5 -33.7402 38.8672 -33.7402 L 41.7969 -33.7402 L 44.9707 -14.0137 C 45.3125 -12.1094 46.7285 -11.0352 48.4863 -11.0352 C 50.2441 -11.0352 51.6602 -12.0117 51.9531 -13.9648 L 55.2246 -33.7891 L 59.6191 -33.7891 L 63.0371 -13.9648 C 63.3301 -12.0117 64.7461 -11.0352 66.5039 -11.0352 C 68.2617 -11.0352 69.6777 -12.1094 70.0195 -14.0137 L 73.0957 -33.7891 L 75.9766 -33.7891 C 77.3926 -33.7891 78.3691 -34.9121 78.3691 -36.2305 C 78.3691 -37.6465 77.3926 -38.623 75.9766 -38.623 L 73.8281 -38.623 L 76.2695 -54.0527 C 76.3184 -54.541 76.416 -54.9316 76.416 -55.4688 C 76.416 -57.1777 75.1465 -58.2031 73.4375 -58.2031 C 71.9238 -58.2031 70.5566 -57.3242 70.3613 -55.6152 L 68.1152 -38.623 L 63.8672 -38.623 L 61.084 -55.0293 C 60.7422 -57.0312 59.1797 -58.1543 57.373 -58.1543 C 55.5176 -58.1543 54.0527 -57.0312 53.7598 -54.9805 L 50.9277 -38.5742 L 46.8262 -38.5742 L 44.6777 -55.5664 C 44.4824 -57.2754 43.1152 -58.1543 41.5527 -58.1543 C 39.7949 -58.1543 38.4766 -57.0801 38.4766 -55.3711 C 38.4766 -54.7852 38.5742 -54.2969 38.623 -53.8574 L 41.0645 -38.5742 L 38.8672 -38.5742 C 37.5 -38.5742 36.4746 -37.5977 36.4746 -36.1816 Z M 56.1035 -38.5742 L 57.4707 -48.1445 L 58.8867 -38.5742 Z M 47.4121 -33.8379 L 50.293 -33.8379 L 48.6328 -22.3633 Z M 64.5996 -33.8379 L 67.6758 -33.8379 L 66.3086 -22.0703 Z"/>
  </g>
  <g id="Medium-M" transform="matrix(1 0 0 1 1688.45 1126)">
   <path d="M 28.5645 10.4492 L 87.6465 10.4492 C 98.2422 10.4492 103.711 4.98047 103.711 -5.46875 L 103.711 -64.8926 C 103.711 -75.3418 98.2422 -80.8105 87.6465 -80.8105 L 28.5645 -80.8105 C 17.9688 -80.8105 12.4512 -75.3906 12.4512 -64.8926 L 12.4512 -5.46875 C 12.4512 4.98047 17.9688 10.4492 28.5645 10.4492 Z M 29.1504 0.732422 C 24.6582 0.732422 22.2168 -1.61133 22.2168 -6.34766 L 22.2168 -64.0137 C 22.2168 -68.75 24.6582 -71.0938 29.1504 -71.0938 L 87.0117 -71.0938 C 91.5039 -71.0938 93.9941 -68.75 93.9941 -64.0137 L 93.9941 -6.34766 C 93.9941 -1.61133 91.5039 0.732422 87.0117 0.732422 Z M 37.2559 -36.084 C 37.2559 -34.8145 38.2324 -33.7891 39.5508 -33.7891 L 42.2363 -33.7891 L 45.2148 -15.1367 C 45.5566 -12.9395 47.168 -11.6699 49.2188 -11.6699 C 51.2695 -11.6699 52.8809 -12.8906 53.2227 -15.1367 L 56.2012 -33.8379 L 60.0098 -33.8379 L 63.0859 -15.1367 C 63.4277 -12.8906 65.0391 -11.6699 67.0898 -11.6699 C 69.1406 -11.6699 70.752 -12.9395 71.0938 -15.1367 L 73.9746 -33.8379 L 76.709 -33.8379 C 78.0273 -33.8379 78.9551 -34.8633 78.9551 -36.1328 C 78.9551 -37.4512 78.0273 -38.4277 76.709 -38.4277 L 74.707 -38.4277 L 76.9531 -53.0762 C 77.0508 -53.6133 77.1484 -54.1016 77.1484 -54.5898 C 77.1484 -56.5918 75.7324 -57.8125 73.7305 -57.8125 C 71.9727 -57.8125 70.5078 -56.7383 70.2637 -54.834 L 68.2617 -38.4277 L 64.5996 -38.4277 L 62.0117 -54.3945 C 61.6699 -56.4941 60.0098 -57.7637 58.0566 -57.7637 C 56.0547 -57.7637 54.4922 -56.4941 54.1504 -54.3457 L 51.5625 -38.3789 L 47.998 -38.3789 L 46.0938 -54.7852 C 45.8496 -56.6895 44.3848 -57.7637 42.5781 -57.7637 C 40.5762 -57.7637 39.1113 -56.4941 39.1113 -54.541 C 39.1113 -53.9551 39.209 -53.4668 39.2578 -52.8809 L 41.5527 -38.3789 L 39.5508 -38.3789 C 38.2324 -38.3789 37.2559 -37.4512 37.2559 -36.084 Z M 56.9824 -38.3789 L 58.1543 -46.6309 L 59.3262 -38.3789 Z M 48.5352 -33.8379 L 50.9766 -33.8379 L 49.5605 -23.9746 Z M 65.2344 -33.8379 L 67.8711 -33.8379 L 66.748 -23.7305 Z"/>
  </g>
  <g id="Semibold-M" transform="matrix(1 0 0 1 1984.65 1126)">
   <path d="M 29.1016 10.9863 L 88.1348 10.9863 C 98.9746 10.9863 104.785 5.17578 104.785 -5.56641 L 104.785 -64.8438 C 104.785 -75.5859 98.9746 -81.3477 88.1348 -81.3477 L 29.1016 -81.3477 C 18.3105 -81.3477 12.4512 -75.5859 12.4512 -64.8438 L 12.4512 -5.56641 C 12.4512 5.22461 18.3105 10.9863 29.1016 10.9863 Z M 30.127 -0.195312 C 25.9277 -0.195312 23.6328 -2.34375 23.6328 -6.78711 L 23.6328 -63.623 C 23.6328 -68.0664 25.9277 -70.166 30.127 -70.166 L 87.1094 -70.166 C 91.3086 -70.166 93.6035 -68.0664 93.6035 -63.623 L 93.6035 -6.78711 C 93.6035 -2.34375 91.3086 -0.195312 87.1094 -0.195312 Z M 37.8418 -36.0352 C 37.8418 -34.7656 38.7695 -33.7891 40.0391 -33.7891 L 42.5781 -33.7891 L 45.3613 -16.0156 C 45.752 -13.623 47.5098 -12.1582 49.8047 -12.1582 C 52.0996 -12.1582 53.8574 -13.5254 54.248 -16.0156 L 56.9824 -33.8379 L 60.3027 -33.8379 L 63.1348 -16.0156 C 63.4766 -13.5742 65.2344 -12.1582 67.5293 -12.1582 C 69.7754 -12.1582 71.582 -13.5742 71.9238 -16.0156 L 74.6582 -33.8379 L 77.2461 -33.8379 C 78.5156 -33.8379 79.4434 -34.8145 79.4434 -36.0352 C 79.4434 -37.3535 78.5156 -38.2812 77.2461 -38.2812 L 75.3418 -38.2812 L 77.5391 -52.2949 C 77.5879 -52.9297 77.6855 -53.4668 77.6855 -53.9551 C 77.6855 -56.1035 76.1719 -57.4707 74.0234 -57.4707 C 72.0215 -57.4707 70.4102 -56.2988 70.2148 -54.1992 L 68.3594 -38.2812 L 65.1855 -38.2812 L 62.7441 -53.9062 C 62.4023 -56.1035 60.6934 -57.4219 58.5938 -57.4219 C 56.4453 -57.4219 54.7852 -56.1035 54.4434 -53.8574 L 52.002 -38.2324 L 48.9258 -38.2324 L 47.1191 -54.1504 C 46.9238 -56.25 45.3613 -57.4707 43.3105 -57.4707 C 41.1133 -57.4707 39.5508 -56.0547 39.5508 -53.9062 C 39.5508 -53.3203 39.6484 -52.7832 39.7461 -52.1484 L 41.8945 -38.2324 L 40.0391 -38.2324 C 38.7695 -38.2324 37.8418 -37.3047 37.8418 -36.0352 Z M 57.6172 -38.2324 L 58.6426 -45.5078 L 59.668 -38.2324 Z M 49.3652 -33.8379 L 51.4648 -33.8379 L 50.2441 -25.1953 Z M 65.7715 -33.8379 L 68.0176 -33.8379 L 67.041 -25 Z"/>
  </g>
  <g id="Bold-M" transform="matrix(1 0 0 1 2280.65 1126)">
   <path d="M 29.8828 11.6699 L 88.7207 11.6699 C 100 11.6699 106.152 5.46875 106.152 -5.66406 L 106.152 -64.6973 C 106.152 -75.8789 100 -82.0312 88.7207 -82.0312 L 29.8828 -82.0312 C 18.6523 -82.0312 12.4512 -75.8789 12.4512 -64.6973 L 12.4512 -5.66406 C 12.4512 5.51758 18.6523 11.6699 29.8828 11.6699 Z M 31.3965 -1.41602 C 27.5879 -1.41602 25.5371 -3.27148 25.5371 -7.32422 L 25.5371 -63.0371 C 25.5371 -67.1387 27.5879 -68.9453 31.3965 -68.9453 L 87.207 -68.9453 C 91.0156 -68.9453 93.1152 -67.1387 93.1152 -63.0371 L 93.1152 -7.32422 C 93.1152 -3.27148 91.0156 -1.41602 87.207 -1.41602 Z M 38.623 -35.9375 C 38.623 -34.7168 39.5508 -33.8379 40.7227 -33.8379 L 43.0176 -33.8379 L 45.6055 -17.1387 C 45.9961 -14.4531 47.998 -12.793 50.5859 -12.793 C 53.1738 -12.793 55.127 -14.4531 55.5176 -17.1875 L 57.959 -33.8379 L 60.6934 -33.8379 L 63.1836 -17.1875 C 63.5742 -14.4531 65.5273 -12.793 68.1152 -12.793 C 70.6543 -12.793 72.6562 -14.4531 73.0469 -17.1387 L 75.5859 -33.8379 L 77.9297 -33.8379 C 79.1504 -33.8379 80.0293 -34.7656 80.0293 -35.9375 C 80.0293 -37.1582 79.1504 -38.0371 77.9297 -38.0371 L 76.2207 -38.0371 L 78.2227 -51.2695 C 78.3203 -52.002 78.418 -52.6367 78.418 -53.0762 C 78.418 -55.5176 76.7578 -57.0801 74.3164 -57.0801 C 72.0703 -57.0801 70.3125 -55.7129 70.1172 -53.418 L 68.5059 -38.0371 L 65.918 -38.0371 L 63.6719 -53.2227 C 63.3301 -55.5664 61.5234 -57.0312 59.2773 -57.0312 C 56.9824 -57.0312 55.2246 -55.5664 54.8828 -53.2227 L 52.6367 -38.0371 L 50.0977 -38.0371 L 48.5352 -53.3691 C 48.3398 -55.6641 46.582 -57.0312 44.3359 -57.0312 C 41.8945 -57.0312 40.1855 -55.4688 40.1855 -53.0273 C 40.1855 -52.4414 40.2832 -51.9531 40.3809 -51.1719 L 42.3828 -38.0371 L 40.7227 -38.0371 C 39.5508 -38.0371 38.623 -37.1582 38.623 -35.9375 Z M 58.4961 -38.0371 L 59.3262 -43.9941 L 60.1562 -38.0371 Z M 50.4883 -33.8867 L 52.1484 -33.8867 L 51.1719 -26.8555 Z M 66.4062 -33.8867 L 68.2129 -33.8867 L 67.4316 -26.6602 Z"/>
  </g>
  <g id="Heavy-M" transform="matrix(1 0 0 1 2576.36 1126)">
   <path d="M 31.0059 12.6465 L 89.6484 12.6465 C 101.416 12.6465 108.154 5.9082 108.154 -5.81055 L 108.154 -64.5508 C 108.154 -76.2695 101.416 -83.0566 89.6484 -83.0566 L 31.0059 -83.0566 C 19.2383 -83.0566 12.4512 -76.3184 12.4512 -64.5508 L 12.4512 -5.81055 C 12.4512 5.9082 19.2383 12.6465 31.0059 12.6465 Z M 33.252 -3.17383 C 29.9805 -3.17383 28.2715 -4.63867 28.2715 -8.1543 L 28.2715 -62.207 C 28.2715 -65.7715 29.9805 -67.2363 33.252 -67.2363 L 87.3535 -67.2363 C 90.6738 -67.2363 92.334 -65.7715 92.334 -62.207 L 92.334 -8.1543 C 92.334 -4.63867 90.6738 -3.17383 87.3535 -3.17383 Z M 39.7949 -35.791 C 39.7949 -34.668 40.5762 -33.8379 41.6992 -33.8379 L 43.6523 -33.8379 L 45.8984 -18.7988 C 46.3867 -15.7227 48.6816 -13.7207 51.709 -13.7207 C 54.6875 -13.7207 56.9824 -15.7227 57.4219 -18.8965 L 59.4238 -33.8867 L 61.2305 -33.8867 L 63.2324 -18.8965 C 63.6719 -15.7227 65.9668 -13.7207 68.9941 -13.7207 C 71.9238 -13.7207 74.2188 -15.7227 74.6582 -18.7988 L 76.9043 -33.8867 L 78.9551 -33.8867 C 80.127 -33.8867 80.9082 -34.668 80.9082 -35.791 C 80.9082 -36.9629 80.127 -37.7441 78.9551 -37.7441 L 77.4902 -37.7441 L 79.2969 -49.8047 C 79.3945 -50.6348 79.4434 -51.416 79.4434 -51.8555 C 79.4434 -54.6387 77.5879 -56.4941 74.8047 -56.4941 C 72.168 -56.4941 70.2148 -54.834 70.0195 -52.1973 L 68.7012 -37.7441 L 66.9922 -37.7441 L 65.0391 -52.2949 C 64.6973 -54.834 62.793 -56.4453 60.2539 -56.4453 C 57.7148 -56.4453 55.8594 -54.834 55.4688 -52.2949 L 53.5645 -37.7441 L 51.8555 -37.7441 L 50.5859 -52.1973 C 50.3906 -54.834 48.4375 -56.4453 45.752 -56.4453 C 42.9688 -56.4453 41.1133 -54.6387 41.1133 -51.8066 C 41.1133 -51.2207 41.1621 -50.6836 41.2598 -49.7559 L 43.0664 -37.7441 L 41.6992 -37.7441 C 40.5762 -37.7441 39.7949 -36.9141 39.7949 -35.791 Z M 59.7656 -37.7441 L 60.3516 -41.748 L 60.8398 -37.7441 Z M 52.0996 -33.8867 L 53.1738 -33.8867 L 52.5391 -29.1992 Z M 67.3828 -33.8867 L 68.5059 -33.8867 L 68.0176 -29.1016 Z"/>
  </g>
  <g id="Black-M" transform="matrix(1 0 0 1 2872.19 1126)">
   <path d="M 31.9824 13.5742 L 90.4297 13.5742 C 102.686 13.5742 109.961 6.29883 109.961 -5.95703 L 109.961 -64.4043 C 109.961 -76.6602 102.686 -83.9355 90.4297 -83.9355 L 31.9824 -83.9355 C 19.7266 -83.9355 12.4512 -76.6602 12.4512 -64.4043 L 12.4512 -5.95703 C 12.4512 6.29883 19.7266 13.5742 31.9824 13.5742 Z M 34.9121 -4.73633 C 32.0801 -4.73633 30.7617 -5.81055 30.7617 -8.88672 L 30.7617 -61.4746 C 30.7617 -64.5508 32.0801 -65.6738 34.9121 -65.6738 L 87.5 -65.6738 C 90.332 -65.6738 91.6992 -64.5508 91.6992 -61.4746 L 91.6992 -8.88672 C 91.6992 -5.81055 90.332 -4.73633 87.5 -4.73633 Z M 40.8203 -35.6934 C 40.8203 -34.6191 41.5527 -33.8867 42.5781 -33.8867 L 44.2383 -33.8867 L 46.1914 -20.2637 C 46.7285 -16.7969 49.2676 -14.5508 52.6855 -14.5508 C 56.1035 -14.5508 58.6426 -16.8945 59.082 -20.4102 L 60.6934 -33.8867 L 61.7676 -33.8867 L 63.3301 -20.4102 C 63.7695 -16.8945 66.3574 -14.5508 69.7266 -14.5508 C 73.0957 -14.5508 75.5859 -16.7969 76.0742 -20.2637 L 78.0762 -33.8867 L 79.8828 -33.8867 C 80.957 -33.8867 81.6895 -34.6191 81.6895 -35.6934 C 81.6895 -36.7188 80.957 -37.4512 79.8828 -37.4512 L 78.6133 -37.4512 L 80.2246 -48.4863 C 80.3223 -49.4141 80.4199 -50.3418 80.4199 -50.7324 C 80.4199 -53.8574 78.3203 -55.957 75.2441 -55.957 C 72.2168 -55.957 70.1172 -54.0527 69.9219 -51.1719 L 68.8965 -37.4512 L 67.9688 -37.4512 L 66.2598 -51.416 C 65.918 -54.1016 63.916 -55.957 61.1328 -55.957 C 58.3984 -55.957 56.3965 -54.1016 56.0059 -51.416 L 54.3457 -37.4512 L 53.418 -37.4512 L 52.3926 -51.1719 C 52.1973 -54.0527 50.0488 -55.957 47.0703 -55.957 C 43.9941 -55.957 41.8945 -53.8574 41.8945 -50.7324 C 41.8945 -50.0977 41.9434 -49.5605 42.0898 -48.4863 L 43.7012 -37.4512 L 42.5781 -37.4512 C 41.5527 -37.4512 40.8203 -36.7188 40.8203 -35.6934 Z M 60.9375 -37.4512 L 61.2305 -39.7949 L 61.4258 -37.4512 Z M 53.5156 -33.8867 L 54.0527 -33.8867 L 53.7598 -31.2988 Z M 68.2617 -33.8867 L 68.75 -33.8867 L 68.5547 -31.2988 Z"/>
  </g>
  <g id="Ultralight-L" transform="matrix(1 0 0 1 488.739 1556)">
   <path d="M 31.9824 19.7754 L 109.961 19.7754 C 120.361 19.7754 125.879 14.0625 125.879 3.85742 L 125.879 -74.0723 C 125.879 -84.2773 120.361 -89.9902 109.961 -89.9902 L 31.9824 -89.9902 C 21.6309 -89.9902 16.0645 -84.4727 16.0645 -74.0723 L 16.0645 3.85742 C 16.0645 14.2578 21.6309 19.7754 31.9824 19.7754 Z M 32.1289 17.2363 C 23.2422 17.2363 18.6523 12.6465 18.6523 3.75977 L 18.6523 -73.9258 C 18.6523 -82.8125 23.2422 -87.4512 32.1289 -87.4512 L 109.814 -87.4512 C 118.359 -87.4512 123.34 -82.8125 123.34 -73.9258 L 123.34 3.75977 C 123.34 12.6465 118.359 17.2363 109.814 17.2363 Z M 49.3164 -35.3516 C 49.3164 -34.5215 49.9023 -33.8867 50.8789 -33.8867 L 53.9551 -33.8867 L 57.6172 -8.83789 C 57.7637 -8.10547 58.2031 -7.61719 58.9355 -7.61719 C 59.7168 -7.61719 60.1562 -8.00781 60.3027 -8.54492 L 66.3086 -33.8867 L 75.6348 -33.8867 L 81.6406 -8.64258 C 81.7871 -8.10547 82.2266 -7.61719 83.0566 -7.61719 C 83.6426 -7.61719 84.2773 -8.00781 84.4238 -8.74023 L 88.1836 -33.8867 L 91.1621 -33.8867 C 92.1387 -33.8867 92.7246 -34.5215 92.7246 -35.3516 C 92.7246 -36.1328 92.1387 -36.7676 91.1621 -36.7676 L 88.623 -36.7676 L 91.8945 -59.1309 C 91.9922 -59.668 91.9922 -59.7168 91.9922 -59.7168 C 91.9922 -60.498 91.4551 -61.084 90.5762 -61.084 C 89.8926 -61.084 89.2578 -60.6445 89.1113 -59.6191 L 85.791 -36.7676 L 77.9297 -36.7676 L 72.3633 -59.9609 C 72.2656 -60.5957 71.7285 -60.9863 71.0938 -60.9863 C 70.4102 -60.9863 69.873 -60.5957 69.7754 -59.9609 L 64.209 -36.8164 L 56.25 -36.8164 L 52.8809 -59.7168 C 52.7344 -60.5469 52.1973 -61.1816 51.416 -61.1816 C 50.5859 -61.1816 50.0488 -60.5957 50.0488 -59.8145 C 50.0488 -59.668 50.1465 -59.1797 50.1953 -58.6914 L 53.5156 -36.8164 L 50.8789 -36.8164 C 49.9023 -36.8164 49.3164 -36.1328 49.3164 -35.3516 Z M 67.0898 -36.8164 L 70.9961 -53.0762 L 74.8535 -36.8164 Z M 56.6895 -33.8379 L 63.4766 -33.8379 L 59.2773 -16.5039 Z M 78.6621 -33.8379 L 85.3027 -33.8379 L 82.8125 -16.6504 Z"/>
  </g>
  <g id="Thin-L" transform="matrix(1 0 0 1 784.889 1556)">
   <path d="M 32.7148 20.3613 L 110.4 20.3613 C 121.289 20.3613 127.002 14.4531 127.002 3.75977 L 127.002 -73.9746 C 127.002 -84.7168 121.289 -90.5762 110.4 -90.5762 L 32.7148 -90.5762 C 21.8262 -90.5762 16.0645 -84.8633 16.0645 -73.9746 L 16.0645 3.75977 C 16.0645 14.6484 21.8262 20.3613 32.7148 20.3613 Z M 32.8613 16.4062 C 24.4141 16.4062 20.0195 12.0117 20.0195 3.56445 L 20.0195 -73.7793 C 20.0195 -82.2754 24.4141 -86.6699 32.8613 -86.6699 L 110.254 -86.6699 C 118.359 -86.6699 123.096 -82.2754 123.096 -73.7793 L 123.096 3.56445 C 123.096 12.0117 118.359 16.4062 110.254 16.4062 Z M 48.9258 -35.5469 C 48.9258 -34.5703 49.6582 -33.7891 50.7324 -33.7891 L 53.9551 -33.7891 L 57.7148 -8.64258 C 57.9102 -7.61719 58.5938 -6.93359 59.6191 -6.93359 C 60.6445 -6.93359 61.3281 -7.51953 61.5234 -8.39844 L 67.2363 -33.7891 L 75.8789 -33.7891 L 81.5918 -8.49609 C 81.7871 -7.56836 82.4707 -6.93359 83.5938 -6.93359 C 84.4727 -6.93359 85.3027 -7.51953 85.498 -8.54492 L 89.2578 -33.7891 L 92.3828 -33.7891 C 93.5059 -33.7891 94.2383 -34.5703 94.2383 -35.5469 C 94.2383 -36.5234 93.5059 -37.3047 92.3828 -37.3047 L 89.7949 -37.3047 L 93.1152 -59.1797 C 93.1641 -59.7656 93.1641 -59.9121 93.1641 -60.0098 C 93.1641 -61.0352 92.4316 -61.7676 91.3574 -61.7676 C 90.4297 -61.7676 89.5996 -61.2305 89.4043 -59.9609 L 86.1816 -37.3047 L 78.7598 -37.3047 L 73.5352 -60.1074 C 73.3398 -61.084 72.5586 -61.6699 71.6309 -61.6699 C 70.6543 -61.6699 69.873 -61.084 69.6777 -60.1074 L 64.502 -37.3047 L 56.9824 -37.3047 L 53.7598 -60.0586 C 53.6133 -61.1328 52.832 -61.8164 51.8555 -61.8164 C 50.7324 -61.8164 50 -61.1328 50 -60.1074 C 50 -59.8145 50.0488 -59.2773 50.1465 -58.7891 L 53.418 -37.3047 L 50.7324 -37.3047 C 49.6582 -37.3047 48.9258 -36.5234 48.9258 -35.5469 Z M 68.0664 -37.3047 L 71.5332 -52.832 L 75.0488 -37.3047 Z M 57.5195 -33.7891 L 63.7207 -33.7891 L 59.9121 -16.8945 Z M 79.4922 -33.7891 L 85.6934 -33.7891 L 83.3496 -16.9434 Z"/>
  </g>
  <g id="Light-L" transform="matrix(1 0 0 1 1080.5 1556)">
   <path d="M 34.082 21.4355 L 111.23 21.4355 C 123.096 21.4355 129.199 15.2344 129.199 3.56445 L 129.199 -73.8281 C 129.199 -85.5469 123.096 -91.6992 111.23 -91.6992 L 34.082 -91.6992 C 22.2168 -91.6992 16.0645 -85.6445 16.0645 -73.8281 L 16.0645 3.56445 C 16.0645 15.3809 22.2168 21.4355 34.082 21.4355 Z M 34.2285 14.7949 C 26.709 14.7949 22.7051 10.8398 22.7051 3.22266 L 22.7051 -73.4863 C 22.7051 -81.1523 26.709 -85.0586 34.2285 -85.0586 L 111.084 -85.0586 C 118.359 -85.0586 122.607 -81.1523 122.607 -73.4863 L 122.607 3.22266 C 122.607 10.8398 118.359 14.7949 111.084 14.7949 Z M 48.0957 -35.9375 C 48.0957 -34.6191 49.1211 -33.5938 50.4883 -33.5938 L 53.9551 -33.5938 L 57.8613 -8.30078 C 58.1543 -6.64062 59.3262 -5.66406 60.8887 -5.66406 C 62.4512 -5.66406 63.623 -6.54297 63.916 -8.1543 L 68.9941 -33.5938 L 76.3672 -33.5938 L 81.4941 -8.20312 C 81.7383 -6.5918 82.959 -5.66406 84.5703 -5.66406 C 86.0352 -5.66406 87.3047 -6.5918 87.5977 -8.25195 L 91.4551 -33.5938 L 94.873 -33.5938 C 96.2891 -33.5938 97.2168 -34.668 97.2168 -35.9375 C 97.2168 -37.3047 96.2891 -38.3301 94.873 -38.3301 L 92.1875 -38.3301 L 95.4102 -59.3262 C 95.459 -59.9121 95.5078 -60.2539 95.5078 -60.5957 C 95.5078 -62.1094 94.3848 -63.0859 92.8223 -63.0859 C 91.4551 -63.0859 90.2344 -62.3047 89.9902 -60.6445 L 86.9141 -38.3301 L 80.3223 -38.3301 L 75.8301 -60.4004 C 75.5371 -62.0605 74.2188 -63.0371 72.6562 -63.0371 C 71.0938 -63.0371 69.8242 -62.0605 69.5312 -60.4004 L 65.0391 -38.2812 L 58.4473 -38.2812 L 55.4688 -60.6445 C 55.2246 -62.2559 54.0527 -63.1348 52.6367 -63.1348 C 51.0254 -63.1348 49.8535 -62.1094 49.8535 -60.5957 C 49.8535 -60.1074 49.9512 -59.5215 50.0488 -58.9844 L 53.2227 -38.2812 L 50.4883 -38.2812 C 49.1211 -38.2812 48.0957 -37.2559 48.0957 -35.9375 Z M 69.9219 -38.2812 L 72.6562 -52.4414 L 75.4395 -38.2812 Z M 59.1309 -33.6426 L 64.209 -33.6426 L 61.1328 -17.627 Z M 81.1523 -33.6426 L 86.377 -33.6426 L 84.3262 -17.4805 Z"/>
  </g>
  <g id="Regular-L" transform="matrix(1 0 0 1 1376.36 1556)">
   <path d="M 35.1074 22.2168 L 111.865 22.2168 C 124.512 22.2168 130.859 15.8691 130.859 3.41797 L 130.859 -73.7305 C 130.859 -86.1816 124.512 -92.5293 111.865 -92.5293 L 35.1074 -92.5293 C 22.5098 -92.5293 16.0645 -86.2305 16.0645 -73.7305 L 16.0645 3.41797 C 16.0645 15.918 22.5098 22.2168 35.1074 22.2168 Z M 35.2539 13.5742 C 28.4668 13.5742 24.7559 9.96094 24.7559 2.97852 L 24.7559 -73.291 C 24.7559 -80.2734 28.4668 -83.8867 35.2539 -83.8867 L 111.67 -83.8867 C 118.359 -83.8867 122.217 -80.2734 122.217 -73.291 L 122.217 2.97852 C 122.217 9.96094 118.359 13.5742 111.67 13.5742 Z M 47.5098 -36.2305 C 47.5098 -34.7168 48.6816 -33.4473 50.293 -33.4473 L 53.9551 -33.4473 L 57.959 -8.05664 C 58.3008 -5.9082 59.8633 -4.73633 61.8164 -4.73633 C 63.8184 -4.73633 65.3809 -5.81055 65.7227 -7.95898 L 70.3125 -33.4961 L 76.709 -33.4961 L 81.3965 -7.95898 C 81.7383 -5.81055 83.3008 -4.73633 85.3027 -4.73633 C 87.207 -4.73633 88.8184 -5.9082 89.1602 -8.00781 L 93.1152 -33.4961 L 96.6797 -33.4961 C 98.3398 -33.4961 99.4629 -34.7656 99.4629 -36.2793 C 99.4629 -37.8906 98.3398 -39.0625 96.6797 -39.0625 L 93.9941 -39.0625 L 97.1191 -59.4727 C 97.2168 -60.0586 97.3145 -60.498 97.3145 -61.0352 C 97.3145 -62.9395 95.8496 -64.1113 93.8965 -64.1113 C 92.2363 -64.1113 90.7227 -63.1348 90.4297 -61.1816 L 87.5 -39.0625 L 81.543 -39.0625 L 77.5391 -60.6445 C 77.1973 -62.8418 75.4395 -64.0625 73.4375 -64.0625 C 71.4355 -64.0625 69.7754 -62.8418 69.4336 -60.5957 L 65.4297 -39.0137 L 59.5703 -39.0137 L 56.7383 -61.1328 C 56.4453 -63.0859 54.9805 -64.1113 53.2227 -64.1113 C 51.2207 -64.1113 49.707 -62.8906 49.707 -60.9375 C 49.707 -60.3027 49.8535 -59.7168 49.9512 -59.1309 L 53.0762 -39.0137 L 50.293 -39.0137 C 48.6816 -39.0137 47.5098 -37.8418 47.5098 -36.2305 Z M 71.3379 -39.0137 L 73.5352 -52.0996 L 75.7324 -39.0137 Z M 60.3027 -33.5449 L 64.5996 -33.5449 L 62.0605 -18.2129 Z M 82.4219 -33.5449 L 86.9141 -33.5449 L 85.0586 -17.9199 Z"/>
  </g>
  <g id="Medium-L" transform="matrix(1 0 0 1 1672.31 1556)">
   <path d="M 35.9863 22.998 L 112.549 22.998 C 125.635 22.998 132.422 16.2109 132.422 3.27148 L 132.422 -73.6328 C 132.422 -86.5234 125.635 -93.3105 112.549 -93.3105 L 35.9863 -93.3105 C 22.9004 -93.3105 16.0645 -86.5723 16.0645 -73.6328 L 16.0645 3.27148 C 16.0645 16.2598 22.9004 22.998 35.9863 22.998 Z M 36.6211 12.2559 C 30.2734 12.2559 26.8066 8.98438 26.8066 2.39258 L 26.8066 -72.7051 C 26.8066 -79.2969 30.2734 -82.6172 36.6211 -82.6172 L 111.914 -82.6172 C 118.164 -82.6172 121.68 -79.2969 121.68 -72.7051 L 121.68 2.39258 C 121.68 8.98438 118.164 12.2559 111.914 12.2559 Z M 48.0957 -36.1816 C 48.0957 -34.668 49.2676 -33.4473 50.8789 -33.4473 L 54.3457 -33.4473 L 58.2031 -9.0332 C 58.5938 -6.54297 60.4004 -5.12695 62.6953 -5.12695 C 65.0391 -5.12695 66.8457 -6.44531 67.2363 -8.98438 L 71.4355 -33.4473 L 77.0996 -33.4473 L 81.3965 -8.98438 C 81.7871 -6.49414 83.5938 -5.12695 85.9375 -5.12695 C 88.2324 -5.12695 90.0391 -6.54297 90.4785 -8.98438 L 94.2383 -33.4473 L 97.6562 -33.4473 C 99.3164 -33.4473 100.439 -34.7168 100.439 -36.2305 C 100.439 -37.8418 99.3164 -39.0137 97.6562 -39.0137 L 95.0684 -39.0137 L 98.0957 -58.5449 C 98.1934 -59.2285 98.291 -59.7656 98.291 -60.3027 C 98.291 -62.5488 96.6797 -63.916 94.4336 -63.916 C 92.4316 -63.916 90.7227 -62.7441 90.4785 -60.5469 L 87.7441 -39.0137 L 82.4219 -39.0137 L 78.7109 -60.0586 C 78.3203 -62.4512 76.4648 -63.8672 74.2188 -63.8672 C 71.9727 -63.8672 70.166 -62.4512 69.7754 -60.0098 L 66.0645 -38.9648 L 60.8887 -38.9648 L 58.2031 -60.498 C 57.959 -62.6953 56.2988 -63.916 54.1992 -63.916 C 51.9531 -63.916 50.293 -62.5 50.293 -60.2539 C 50.293 -59.5703 50.3906 -58.9844 50.4883 -58.3008 L 53.5156 -38.9648 L 50.8789 -38.9648 C 49.2676 -38.9648 48.0957 -37.793 48.0957 -36.1816 Z M 72.4121 -38.9648 L 74.3164 -50.6836 L 76.2207 -38.9648 Z M 61.5234 -33.4961 L 65.2832 -33.4961 L 63.0859 -19.7754 Z M 83.252 -33.4961 L 87.207 -33.4961 L 85.5469 -19.5312 Z"/>
  </g>
  <g id="Semibold-L" transform="matrix(1 0 0 1 1968.41 1556)">
   <path d="M 36.6699 23.584 L 113.037 23.584 C 126.514 23.584 133.594 16.5039 133.594 3.17383 L 133.594 -73.5352 C 133.594 -86.8164 126.514 -93.9453 113.037 -93.9453 L 36.6699 -93.9453 C 23.2422 -93.9453 16.0645 -86.8652 16.0645 -73.5352 L 16.0645 3.17383 C 16.0645 16.5527 23.2422 23.584 36.6699 23.584 Z M 37.6465 11.2793 C 31.6406 11.2793 28.418 8.20312 28.418 1.95312 L 28.418 -72.3145 C 28.418 -78.5156 31.6406 -81.5918 37.6465 -81.5918 L 112.061 -81.5918 C 117.969 -81.5918 121.289 -78.5156 121.289 -72.3145 L 121.289 1.95312 C 121.289 8.20312 117.969 11.2793 112.061 11.2793 Z M 48.584 -36.1816 C 48.584 -34.668 49.7559 -33.3984 51.3184 -33.3984 L 54.6875 -33.3984 L 58.3496 -9.76562 C 58.7891 -7.08008 60.791 -5.41992 63.3789 -5.41992 C 65.9668 -5.41992 67.9688 -6.98242 68.3594 -9.76562 L 72.3145 -33.4473 L 77.4414 -33.4473 L 81.4453 -9.76562 C 81.8359 -6.98242 83.8867 -5.41992 86.4746 -5.41992 C 88.9648 -5.41992 91.0156 -7.03125 91.4551 -9.76562 L 95.0684 -33.4473 L 98.4375 -33.4473 C 100.049 -33.4473 101.172 -34.668 101.172 -36.2305 C 101.172 -37.8418 100.049 -38.9648 98.4375 -38.9648 L 95.9473 -38.9648 L 98.8281 -57.8613 C 98.9258 -58.5938 99.0234 -59.2285 99.0234 -59.7656 C 99.0234 -62.2559 97.2656 -63.7695 94.8242 -63.7695 C 92.5781 -63.7695 90.7227 -62.4512 90.4785 -60.0586 L 87.8906 -38.9648 L 83.1055 -38.9648 L 79.5898 -59.668 C 79.1992 -62.207 77.2461 -63.7207 74.8047 -63.7207 C 72.3633 -63.7207 70.459 -62.207 70.0684 -59.6191 L 66.5527 -38.916 L 61.8652 -38.916 L 59.375 -60.0098 C 59.1309 -62.4023 57.2754 -63.7695 54.9805 -63.7695 C 52.4902 -63.7695 50.6836 -62.1582 50.6836 -59.7168 C 50.6836 -59.0332 50.8301 -58.3984 50.9277 -57.6172 L 53.8086 -38.916 L 51.3184 -38.916 C 49.7559 -38.916 48.584 -37.793 48.584 -36.1816 Z M 73.1934 -38.916 L 74.9023 -49.6094 L 76.5625 -38.916 Z M 62.4512 -33.4961 L 65.8203 -33.4961 L 63.8672 -20.9961 Z M 83.8867 -33.4961 L 87.4023 -33.4961 L 85.9375 -20.752 Z"/>
  </g>
  <g id="Bold-L" transform="matrix(1 0 0 1 2264.34 1556)">
   <path d="M 37.5488 24.3652 L 113.721 24.3652 C 127.686 24.3652 135.205 16.8945 135.205 3.07617 L 135.205 -73.3887 C 135.205 -87.207 127.686 -94.7266 113.721 -94.7266 L 37.5488 -94.7266 C 23.6328 -94.7266 16.0645 -87.2559 16.0645 -73.3887 L 16.0645 3.07617 C 16.0645 16.8945 23.6328 24.3652 37.5488 24.3652 Z M 38.9648 9.91211 C 33.4473 9.91211 30.5176 7.17773 30.5176 1.41602 L 30.5176 -71.7285 C 30.5176 -77.5391 33.4473 -80.2734 38.9648 -80.2734 L 112.256 -80.2734 C 117.725 -80.2734 120.752 -77.5391 120.752 -71.7285 L 120.752 1.41602 C 120.752 7.17773 117.725 9.91211 112.256 9.91211 Z M 49.1699 -36.1328 C 49.1699 -34.6191 50.3418 -33.3984 51.9043 -33.3984 L 55.0781 -33.3984 L 58.5938 -10.791 C 59.0332 -7.71484 61.3281 -5.85938 64.2578 -5.85938 C 67.1875 -5.85938 69.4336 -7.66602 69.873 -10.791 L 73.4863 -33.4473 L 77.832 -33.4473 L 81.4941 -10.791 C 81.9336 -7.66602 84.1797 -5.85938 87.1582 -5.85938 C 89.9902 -5.85938 92.2852 -7.71484 92.7734 -10.7422 L 96.1914 -33.4473 L 99.4141 -33.4473 C 101.025 -33.4473 102.148 -34.668 102.148 -36.1816 C 102.148 -37.793 101.025 -38.916 99.4141 -38.916 L 97.0703 -38.916 L 99.8047 -56.9336 C 99.9023 -57.7637 100 -58.4961 100 -59.082 C 100 -61.8164 98.0957 -63.623 95.3125 -63.623 C 92.7734 -63.623 90.7227 -62.0605 90.4785 -59.375 L 88.1348 -38.916 L 83.9844 -38.916 L 80.8105 -59.082 C 80.3711 -61.8652 78.2227 -63.5742 75.5859 -63.5742 C 72.9004 -63.5742 70.8496 -61.8652 70.4102 -59.082 L 67.1875 -38.8672 L 63.1836 -38.8672 L 60.8887 -59.3262 C 60.6445 -62.0117 58.6426 -63.5742 56.0059 -63.5742 C 53.2227 -63.5742 51.2207 -61.7676 51.2207 -58.9844 C 51.2207 -58.3008 51.3672 -57.6172 51.4648 -56.7383 L 54.1992 -38.8672 L 51.9043 -38.8672 C 50.3418 -38.8672 49.1699 -37.7441 49.1699 -36.1328 Z M 74.2676 -38.8672 L 75.6836 -48.1445 L 77.0508 -38.8672 Z M 63.7207 -33.4961 L 66.5039 -33.4961 L 64.8926 -22.6074 Z M 84.7168 -33.4961 L 87.6953 -33.4961 L 86.4258 -22.3633 Z"/>
  </g>
  <g id="Heavy-L" transform="matrix(1 0 0 1 2559.91 1556)">
   <path d="M 38.8184 25.4883 L 114.697 25.4883 C 129.346 25.4883 137.451 17.4316 137.451 2.88086 L 137.451 -73.2422 C 137.451 -87.793 129.346 -95.8496 114.697 -95.8496 L 38.8184 -95.8496 C 24.2188 -95.8496 16.0645 -87.793 16.0645 -73.2422 L 16.0645 2.88086 C 16.0645 17.4316 24.2188 25.4883 38.8184 25.4883 Z M 40.9668 8.00781 C 36.1328 8.00781 33.5938 5.71289 33.5938 0.585938 L 33.5938 -70.9473 C 33.5938 -76.0742 36.1328 -78.3691 40.9668 -78.3691 L 112.598 -78.3691 C 117.383 -78.3691 119.971 -76.0742 119.971 -70.9473 L 119.971 0.585938 C 119.971 5.71289 117.383 8.00781 112.598 8.00781 Z M 50.0488 -36.1328 C 50.0488 -34.5703 51.2207 -33.3984 52.7344 -33.3984 L 55.6641 -33.3984 L 58.8867 -12.207 C 59.4238 -8.64258 62.1094 -6.44531 65.5273 -6.44531 C 68.9453 -6.44531 71.582 -8.64258 72.1191 -12.3047 L 75.1465 -33.4473 L 78.418 -33.4473 L 81.543 -12.3047 C 82.0312 -8.64258 84.668 -6.44531 88.1348 -6.44531 C 91.5039 -6.44531 94.0918 -8.64258 94.6289 -12.207 L 97.8516 -33.4473 L 100.83 -33.4473 C 102.441 -33.4473 103.516 -34.6191 103.516 -36.1328 C 103.516 -37.6953 102.441 -38.8184 100.83 -38.8184 L 98.6816 -38.8184 L 101.221 -55.6152 C 101.367 -56.5918 101.465 -57.4707 101.465 -58.0566 C 101.465 -61.2793 99.2188 -63.3301 96.0449 -63.3301 C 93.0664 -63.3301 90.7715 -61.4746 90.4785 -58.4473 L 88.4766 -38.8184 L 85.3027 -38.8184 L 82.5195 -58.3008 C 82.0312 -61.377 79.6875 -63.2812 76.709 -63.2812 C 73.6816 -63.2812 71.3867 -61.377 70.9473 -58.252 L 68.1152 -38.8184 L 65.0391 -38.8184 L 63.0859 -58.3984 C 62.8418 -61.4746 60.5469 -63.3301 57.4707 -63.3301 C 54.2969 -63.3301 52.0508 -61.2305 52.0508 -58.0078 C 52.0508 -57.2266 52.1484 -56.543 52.2949 -55.5176 L 54.834 -38.8184 L 52.7344 -38.8184 C 51.2207 -38.8184 50.0488 -37.6953 50.0488 -36.1328 Z M 75.8301 -38.8184 L 76.8066 -46.0449 L 77.7832 -38.8184 Z M 65.5273 -33.4961 L 67.5293 -33.4961 L 66.3574 -24.9023 Z M 85.9375 -33.4961 L 88.0859 -33.4961 L 87.1582 -24.707 Z"/>
  </g>
  <g id="Black-L" transform="matrix(1 0 0 1 2855.62 1556)">
   <path d="M 39.9902 26.5137 L 115.576 26.5137 C 130.859 26.5137 139.502 17.8711 139.502 2.68555 L 139.502 -73.0957 C 139.502 -88.2812 130.859 -96.875 115.576 -96.875 L 39.9902 -96.875 C 24.7559 -96.875 16.0645 -88.2812 16.0645 -73.0957 L 16.0645 2.68555 C 16.0645 17.8711 24.7559 26.5137 39.9902 26.5137 Z M 42.7246 6.29883 C 38.4766 6.29883 36.3281 4.39453 36.3281 -0.146484 L 36.3281 -70.2148 C 36.3281 -74.7559 38.4766 -76.6602 42.7246 -76.6602 L 112.842 -76.6602 C 117.09 -76.6602 119.238 -74.7559 119.238 -70.2148 L 119.238 -0.146484 C 119.238 4.39453 117.09 6.29883 112.842 6.29883 Z M 50.8789 -36.084 C 50.8789 -34.5703 52.002 -33.3984 53.5156 -33.3984 L 56.2012 -33.3984 L 59.1797 -13.5254 C 59.8145 -9.52148 62.793 -6.93359 66.6504 -6.93359 C 70.5566 -6.93359 73.5352 -9.52148 74.0723 -13.623 L 76.6113 -33.4473 L 78.9551 -33.4473 L 81.5918 -13.623 C 82.1289 -9.52148 85.1074 -6.93359 88.9648 -6.93359 C 92.8223 -6.93359 95.752 -9.52148 96.3379 -13.5254 L 99.3164 -33.4473 L 102.148 -33.4473 C 103.662 -33.4473 104.785 -34.5703 104.785 -36.084 C 104.785 -37.6465 103.662 -38.7695 102.148 -38.7695 L 100.146 -38.7695 L 102.49 -54.4434 C 102.637 -55.4688 102.734 -56.543 102.734 -57.1289 C 102.734 -60.7422 100.293 -63.0859 96.7285 -63.0859 C 93.3105 -63.0859 90.7715 -60.9863 90.4785 -57.6172 L 88.7695 -38.7695 L 86.4746 -38.7695 L 84.0332 -57.5684 C 83.5449 -60.8887 81.0059 -63.0859 77.7344 -63.0859 C 74.3652 -63.0859 71.875 -60.8887 71.3867 -57.5195 L 68.9453 -38.7207 L 66.748 -38.7207 L 65.0391 -57.5684 C 64.7949 -60.9375 62.2559 -63.0859 58.8379 -63.0859 C 55.2246 -63.0859 52.7344 -60.6934 52.7344 -57.0801 C 52.7344 -56.25 52.832 -55.5176 52.9785 -54.3945 L 55.3711 -38.7207 L 53.5156 -38.7207 C 52.002 -38.7207 50.8789 -37.6465 50.8789 -36.084 Z M 77.1973 -38.7207 L 77.832 -44.1895 L 78.418 -38.7207 Z M 67.1387 -33.4473 L 68.457 -33.4473 L 67.7246 -26.9531 Z M 87.0117 -33.4473 L 88.4766 -33.4473 L 87.793 -26.8066 Z"/>
  </g>
 </g>
</svg>
