<?xml version="1.0" encoding="UTF-8"?>
<!--Generator: Apple Native CoreSVG 123-->
<!DOCTYPE svg
PUBLIC "-//W3C//DTD SVG 1.1//EN"
       "http://www.w3.org/Graphics/SVG/1.1/DTD/svg11.dtd">
<svg version="1.1" xmlns="http://www.w3.org/2000/svg" xmlns:xlink="http://www.w3.org/1999/xlink" width="3300" height="2200">
 <!--glyph: "uni1005B6.medium", point size: 100.000000, font version: "Version 15.0d4e20", template writer version: "2"-->
 <g id="Notes">
  <rect height="2200" id="artboard" style="fill:white;opacity:1" width="3300" x="0" y="0"/>
  <line id="" style="fill:none;stroke:black;opacity:1;stroke-width:0.5;" x1="263" x2="3036" y1="292" y2="292"/>
  <text style="stroke:none;fill:black;font-family:-apple-system,&quot;SF Pro Display&quot;,&quot;SF Pro Text&quot;,Helvetica,sans-serif;font-weight:bold;" transform="matrix(1 0 0 1 263 322)">Weight/Scale Variations</text>
  <text style="stroke:none;fill:black;font-family:-apple-system,&quot;SF Pro Display&quot;,&quot;SF Pro Text&quot;,Helvetica,sans-serif;text-anchor:middle;" transform="matrix(1 0 0 1 559.711 322)">Ultralight</text>
  <text style="stroke:none;fill:black;font-family:-apple-system,&quot;SF Pro Display&quot;,&quot;SF Pro Text&quot;,Helvetica,sans-serif;text-anchor:middle;" transform="matrix(1 0 0 1 856.422 322)">Thin</text>
  <text style="stroke:none;fill:black;font-family:-apple-system,&quot;SF Pro Display&quot;,&quot;SF Pro Text&quot;,Helvetica,sans-serif;text-anchor:middle;" transform="matrix(1 0 0 1 1153.13 322)">Light</text>
  <text style="stroke:none;fill:black;font-family:-apple-system,&quot;SF Pro Display&quot;,&quot;SF Pro Text&quot;,Helvetica,sans-serif;text-anchor:middle;" transform="matrix(1 0 0 1 1449.84 322)">Regular</text>
  <text style="stroke:none;fill:black;font-family:-apple-system,&quot;SF Pro Display&quot;,&quot;SF Pro Text&quot;,Helvetica,sans-serif;text-anchor:middle;" transform="matrix(1 0 0 1 1746.56 322)">Medium</text>
  <text style="stroke:none;fill:black;font-family:-apple-system,&quot;SF Pro Display&quot;,&quot;SF Pro Text&quot;,Helvetica,sans-serif;text-anchor:middle;" transform="matrix(1 0 0 1 2043.27 322)">Semibold</text>
  <text style="stroke:none;fill:black;font-family:-apple-system,&quot;SF Pro Display&quot;,&quot;SF Pro Text&quot;,Helvetica,sans-serif;text-anchor:middle;" transform="matrix(1 0 0 1 2339.98 322)">Bold</text>
  <text style="stroke:none;fill:black;font-family:-apple-system,&quot;SF Pro Display&quot;,&quot;SF Pro Text&quot;,Helvetica,sans-serif;text-anchor:middle;" transform="matrix(1 0 0 1 2636.69 322)">Heavy</text>
  <text style="stroke:none;fill:black;font-family:-apple-system,&quot;SF Pro Display&quot;,&quot;SF Pro Text&quot;,Helvetica,sans-serif;text-anchor:middle;" transform="matrix(1 0 0 1 2933.4 322)">Black</text>
  <line id="" style="fill:none;stroke:black;opacity:1;stroke-width:0.5;" x1="263" x2="3036" y1="1903" y2="1903"/>
  <g id="" transform="matrix(1 0 0 1 263 1933)">
   <path d="M 9.24805 0.830078 C 13.5547 0.830078 17.1387 -2.74414 17.1387 -7.05078 C 17.1387 -11.3574 13.5449 -14.9316 9.23828 -14.9316 C 4.94141 -14.9316 1.36719 -11.3574 1.36719 -7.05078 C 1.36719 -2.74414 4.95117 0.830078 9.24805 0.830078 Z M 9.24805 -0.654297 C 5.70312 -0.654297 2.87109 -3.49609 2.87109 -7.05078 C 2.87109 -10.6055 5.69336 -13.4473 9.23828 -13.4473 C 12.793 -13.4473 15.6348 -10.6055 15.6445 -7.05078 C 15.6543 -3.49609 12.8027 -0.654297 9.24805 -0.654297 Z M 9.22852 -3.42773 C 9.69727 -3.42773 9.9707 -3.74023 9.9707 -4.25781 L 9.9707 -6.31836 L 12.1973 -6.31836 C 12.6953 -6.31836 13.0371 -6.57227 13.0371 -7.04102 C 13.0371 -7.51953 12.7148 -7.7832 12.1973 -7.7832 L 9.9707 -7.7832 L 9.9707 -10.0098 C 9.9707 -10.5273 9.69727 -10.8496 9.22852 -10.8496 C 8.75977 -10.8496 8.50586 -10.5078 8.50586 -10.0098 L 8.50586 -7.7832 L 6.29883 -7.7832 C 5.78125 -7.7832 5.44922 -7.51953 5.44922 -7.04102 C 5.44922 -6.57227 5.80078 -6.31836 6.29883 -6.31836 L 8.50586 -6.31836 L 8.50586 -4.25781 C 8.50586 -3.75977 8.75977 -3.42773 9.22852 -3.42773 Z"/>
  </g>
  <g id="" transform="matrix(1 0 0 1 281.506 1933)">
   <path d="M 11.709 2.91016 C 17.1484 2.91016 21.6699 -1.60156 21.6699 -7.05078 C 21.6699 -12.4902 17.1387 -17.0117 11.6992 -17.0117 C 6.25 -17.0117 1.74805 -12.4902 1.74805 -7.05078 C 1.74805 -1.60156 6.25977 2.91016 11.709 2.91016 Z M 11.709 1.25 C 7.09961 1.25 3.41797 -2.44141 3.41797 -7.05078 C 3.41797 -11.6504 7.08984 -15.3516 11.6992 -15.3516 C 16.2988 -15.3516 20 -11.6504 20.0098 -7.05078 C 20.0195 -2.44141 16.3086 1.25 11.709 1.25 Z M 11.6797 -2.41211 C 12.207 -2.41211 12.5195 -2.77344 12.5195 -3.33984 L 12.5195 -6.23047 L 15.5762 -6.23047 C 16.123 -6.23047 16.5039 -6.51367 16.5039 -7.03125 C 16.5039 -7.55859 16.1426 -7.86133 15.5762 -7.86133 L 12.5195 -7.86133 L 12.5195 -10.9277 C 12.5195 -11.5039 12.207 -11.8555 11.6797 -11.8555 C 11.1621 -11.8555 10.8789 -11.4844 10.8789 -10.9277 L 10.8789 -7.86133 L 7.83203 -7.86133 C 7.25586 -7.86133 6.89453 -7.55859 6.89453 -7.03125 C 6.89453 -6.51367 7.28516 -6.23047 7.83203 -6.23047 L 10.8789 -6.23047 L 10.8789 -3.33984 C 10.8789 -2.79297 11.1621 -2.41211 11.6797 -2.41211 Z"/>
  </g>
  <g id="" transform="matrix(1 0 0 1 304.914 1933)">
   <path d="M 14.9707 5.67383 C 21.9336 5.67383 27.6855 -0.078125 27.6855 -7.04102 C 27.6855 -14.0039 21.9238 -19.7559 14.9609 -19.7559 C 7.99805 -19.7559 2.25586 -14.0039 2.25586 -7.04102 C 2.25586 -0.078125 8.00781 5.67383 14.9707 5.67383 Z M 14.9707 3.85742 C 8.92578 3.85742 4.08203 -1.00586 4.08203 -7.04102 C 4.08203 -13.0762 8.91602 -17.9395 14.9609 -17.9395 C 20.9961 -17.9395 25.8594 -13.0762 25.8691 -7.04102 C 25.8789 -1.00586 21.0059 3.85742 14.9707 3.85742 Z M 14.9414 -1.06445 C 15.5176 -1.06445 15.8594 -1.45508 15.8594 -2.06055 L 15.8594 -6.13281 L 20.0977 -6.13281 C 20.6934 -6.13281 21.1133 -6.46484 21.1133 -7.02148 C 21.1133 -7.59766 20.7227 -7.93945 20.0977 -7.93945 L 15.8594 -7.93945 L 15.8594 -12.1875 C 15.8594 -12.8027 15.5176 -13.1934 14.9414 -13.1934 C 14.3848 -13.1934 14.0625 -12.7832 14.0625 -12.1875 L 14.0625 -7.93945 L 9.82422 -7.93945 C 9.20898 -7.93945 8.80859 -7.59766 8.80859 -7.02148 C 8.80859 -6.46484 9.23828 -6.13281 9.82422 -6.13281 L 14.0625 -6.13281 L 14.0625 -2.06055 C 14.0625 -1.47461 14.3848 -1.06445 14.9414 -1.06445 Z"/>
  </g>
  <text style="stroke:none;fill:black;font-family:-apple-system,&quot;SF Pro Display&quot;,&quot;SF Pro Text&quot;,Helvetica,sans-serif;font-weight:bold;" transform="matrix(1 0 0 1 263 1953)">Design Variations</text>
  <text style="stroke:none;fill:black;font-family:-apple-system,&quot;SF Pro Display&quot;,&quot;SF Pro Text&quot;,Helvetica,sans-serif;" transform="matrix(1 0 0 1 263 1971)">Symbols are supported in up to nine weights and three scales.</text>
  <text style="stroke:none;fill:black;font-family:-apple-system,&quot;SF Pro Display&quot;,&quot;SF Pro Text&quot;,Helvetica,sans-serif;" transform="matrix(1 0 0 1 263 1989)">For optimal layout with text and other symbols, vertically align</text>
  <text style="stroke:none;fill:black;font-family:-apple-system,&quot;SF Pro Display&quot;,&quot;SF Pro Text&quot;,Helvetica,sans-serif;" transform="matrix(1 0 0 1 263 2007)">symbols with the adjacent text.</text>
  <rect height="14" id="" style="fill:#00AEEF;stroke:none;opacity:0.4;" width="3" x="776" y="1919"/>
  <g id="" transform="matrix(1 0 0 1 779 1933)">
   <path d="M 10.5273 0 L 12.373 0 L 7.17773 -14.0918 L 5.43945 -14.0918 L 0.244141 0 L 2.08984 0 L 3.50586 -4.0332 L 9.11133 -4.0332 Z M 6.2793 -11.9531 L 6.33789 -11.9531 L 8.59375 -5.52734 L 4.02344 -5.52734 Z"/>
  </g>
  <rect height="14" id="" style="fill:#00AEEF;stroke:none;opacity:0.4;" width="3" x="791.617" y="1919"/>
  <text style="stroke:none;fill:black;font-family:-apple-system,&quot;SF Pro Display&quot;,&quot;SF Pro Text&quot;,Helvetica,sans-serif;font-weight:bold;" transform="matrix(1 0 0 1 776 1953)">Side Bearings</text>
  <text style="stroke:none;fill:black;font-family:-apple-system,&quot;SF Pro Display&quot;,&quot;SF Pro Text&quot;,Helvetica,sans-serif;" transform="matrix(1 0 0 1 776 1971)">Horizontal padding on the left and right side of each symbol</text>
  <text style="stroke:none;fill:black;font-family:-apple-system,&quot;SF Pro Display&quot;,&quot;SF Pro Text&quot;,Helvetica,sans-serif;" transform="matrix(1 0 0 1 776 1989)">can be adjusted by modifying the width of the blue rectangles.</text>
  <text style="stroke:none;fill:black;font-family:-apple-system,&quot;SF Pro Display&quot;,&quot;SF Pro Text&quot;,Helvetica,sans-serif;" transform="matrix(1 0 0 1 776 2007)">Modifications are automatically applied proportionally to all</text>
  <text style="stroke:none;fill:black;font-family:-apple-system,&quot;SF Pro Display&quot;,&quot;SF Pro Text&quot;,Helvetica,sans-serif;" transform="matrix(1 0 0 1 776 2025)">scales and weights.</text>
  <g id="" transform="matrix(1 0 0 1 1289 1933)">
   <path d="M 2.96875 2.35352 L 3.80859 3.19336 C 4.84375 4.22852 6.12305 4.15039 7.19727 2.97852 L 16.1621 -6.82617 C 16.5527 -6.74805 16.9629 -6.8457 17.4902 -7.02148 C 18.1738 -7.25586 18.2715 -7.25586 18.3887 -7.13867 C 18.5352 -7.01172 18.4863 -6.89453 18.2422 -6.25 C 17.8809 -5.33203 17.8125 -4.79492 18.5547 -4.02344 L 19.4238 -3.13477 C 20.2734 -2.24609 21.3281 -2.26562 22.2168 -3.14453 L 25.0586 -5.97656 C 25.9473 -6.86523 25.957 -7.92969 25.0781 -8.7793 L 24.1797 -9.64844 C 23.4082 -10.4004 22.8711 -10.3516 21.9629 -9.98047 C 21.3184 -9.72656 21.2012 -9.6875 21.0645 -9.81445 C 20.9375 -9.93164 20.9473 -10.0391 21.1816 -10.7129 C 21.5332 -11.6895 21.5723 -12.2852 20.752 -13.0957 L 19.3359 -14.5117 C 15.1953 -18.6133 11.2305 -18.7402 7.65625 -15.4395 C 7.08008 -14.9023 6.99219 -14.1504 7.53906 -13.6133 L 7.79297 -13.3594 C 8.22266 -12.9297 8.86719 -12.8418 9.41406 -13.1152 C 11.0645 -13.9453 12.2559 -14.0234 13.457 -12.9785 L 13.0273 -11.416 C 12.8516 -10.8008 12.793 -10.3418 12.9199 -9.93164 L 3.18359 -1.04492 C 2.02148 0.0292969 1.93359 1.32812 2.96875 2.35352 Z M 8.96484 -14.4922 C 8.89648 -14.5703 8.86719 -14.6582 8.99414 -14.7559 C 11.709 -17.2852 15.0391 -16.8457 18.3496 -13.5254 L 19.6973 -12.168 C 20.0879 -11.7773 20.0977 -11.582 19.8828 -10.8691 C 19.6582 -10.127 19.502 -9.53125 20.1465 -8.88672 C 20.8105 -8.22266 21.2891 -8.41797 22.207 -8.63281 C 22.9004 -8.79883 23.0664 -8.79883 23.4473 -8.41797 L 24.0918 -7.77344 C 24.4043 -7.48047 24.4141 -7.32422 24.0723 -6.97266 L 21.2207 -4.13086 C 20.8887 -3.79883 20.7227 -3.79883 20.4297 -4.10156 L 19.7852 -4.75586 C 19.4141 -5.13672 19.4141 -5.30273 19.5801 -6.01562 C 19.7852 -6.88477 19.9805 -7.38281 19.3262 -8.04688 C 18.6719 -8.7207 18.0762 -8.57422 17.3438 -8.33008 C 16.5625 -8.06641 16.3281 -8.06641 15.8984 -8.49609 L 14.6094 -9.78516 C 14.1699 -10.2246 14.1309 -10.4395 14.2676 -10.9082 L 15.0293 -13.3984 C 13.3887 -15.2832 11.4941 -15.5566 9.20898 -14.4434 C 9.11133 -14.3945 9.04297 -14.4141 8.96484 -14.4922 Z M 3.96484 1.36719 C 3.52539 0.927734 3.54492 0.537109 4.14062 -0.00976562 L 13.7402 -8.81836 L 15 -7.55859 L 6.17188 2.02148 C 5.625 2.60742 5.24414 2.64648 4.79492 2.19727 Z"/>
  </g>
  <text style="stroke:none;fill:black;font-family:-apple-system,&quot;SF Pro Display&quot;,&quot;SF Pro Text&quot;,Helvetica,sans-serif;font-weight:bold;" transform="matrix(1 0 0 1 1289 1953)">Exporting</text>
  <text style="stroke:none;fill:black;font-family:-apple-system,&quot;SF Pro Display&quot;,&quot;SF Pro Text&quot;,Helvetica,sans-serif;" transform="matrix(1 0 0 1 1289 1971)">Symbols should be outlined when exporting to ensure the</text>
  <text style="stroke:none;fill:black;font-family:-apple-system,&quot;SF Pro Display&quot;,&quot;SF Pro Text&quot;,Helvetica,sans-serif;" transform="matrix(1 0 0 1 1289 1989)">design is preserved when submitting to Xcode.</text>
  <text id="template-version" style="stroke:none;fill:black;font-family:-apple-system,&quot;SF Pro Display&quot;,&quot;SF Pro Text&quot;,Helvetica,sans-serif;text-anchor:end;" transform="matrix(1 0 0 1 3036 1933)">Template v.0.1</text>
  <text style="stroke:none;fill:black;font-family:-apple-system,&quot;SF Pro Display&quot;,&quot;SF Pro Text&quot;,Helvetica,sans-serif;text-anchor:end;" transform="matrix(1 0 0 1 3036 1951)">Generated from wonsign.circle.fill</text>
  <text style="stroke:none;fill:black;font-family:-apple-system,&quot;SF Pro Display&quot;,&quot;SF Pro Text&quot;,Helvetica,sans-serif;text-anchor:end;" transform="matrix(1 0 0 1 3036 1969)">Typeset at 100 points</text>
  <text style="stroke:none;fill:black;font-family:-apple-system,&quot;SF Pro Display&quot;,&quot;SF Pro Text&quot;,Helvetica,sans-serif;" transform="matrix(1 0 0 1 263 726)">Small</text>
  <text style="stroke:none;fill:black;font-family:-apple-system,&quot;SF Pro Display&quot;,&quot;SF Pro Text&quot;,Helvetica,sans-serif;" transform="matrix(1 0 0 1 263 1156)">Medium</text>
  <text style="stroke:none;fill:black;font-family:-apple-system,&quot;SF Pro Display&quot;,&quot;SF Pro Text&quot;,Helvetica,sans-serif;" transform="matrix(1 0 0 1 263 1586)">Large</text>
 </g>
 <g id="Guides">
  <g id="H-reference" style="fill:#27AAE1;stroke:none;" transform="matrix(1 0 0 1 339 696)">
   <path d="M 54.9316 0 L 57.666 0 L 30.5664 -70.459 L 28.0762 -70.459 L 0.976562 0 L 3.66211 0 L 12.9395 -24.4629 L 45.7031 -24.4629 Z M 29.1992 -67.0898 L 29.4434 -67.0898 L 44.8242 -26.709 L 13.8184 -26.709 Z"/>
  </g>
  <line id="Baseline-S" style="fill:none;stroke:#27AAE1;opacity:1;stroke-width:0.577;" x1="263" x2="3036" y1="696" y2="696"/>
  <line id="Capline-S" style="fill:none;stroke:#27AAE1;opacity:1;stroke-width:0.577;" x1="263" x2="3036" y1="625.541" y2="625.541"/>
  <g id="H-reference" style="fill:#27AAE1;stroke:none;" transform="matrix(1 0 0 1 339 1126)">
   <path d="M 54.9316 0 L 57.666 0 L 30.5664 -70.459 L 28.0762 -70.459 L 0.976562 0 L 3.66211 0 L 12.9395 -24.4629 L 45.7031 -24.4629 Z M 29.1992 -67.0898 L 29.4434 -67.0898 L 44.8242 -26.709 L 13.8184 -26.709 Z"/>
  </g>
  <line id="Baseline-M" style="fill:none;stroke:#27AAE1;opacity:1;stroke-width:0.577;" x1="263" x2="3036" y1="1126" y2="1126"/>
  <line id="Capline-M" style="fill:none;stroke:#27AAE1;opacity:1;stroke-width:0.577;" x1="263" x2="3036" y1="1055.54" y2="1055.54"/>
  <g id="H-reference" style="fill:#27AAE1;stroke:none;" transform="matrix(1 0 0 1 339 1556)">
   <path d="M 54.9316 0 L 57.666 0 L 30.5664 -70.459 L 28.0762 -70.459 L 0.976562 0 L 3.66211 0 L 12.9395 -24.4629 L 45.7031 -24.4629 Z M 29.1992 -67.0898 L 29.4434 -67.0898 L 44.8242 -26.709 L 13.8184 -26.709 Z"/>
  </g>
  <line id="Baseline-L" style="fill:none;stroke:#27AAE1;opacity:1;stroke-width:0.577;" x1="263" x2="3036" y1="1556" y2="1556"/>
  <line id="Capline-L" style="fill:none;stroke:#27AAE1;opacity:1;stroke-width:0.577;" x1="263" x2="3036" y1="1485.54" y2="1485.54"/>
  <rect height="119.336" id="left-margin" style="fill:#00AEEF;stroke:none;opacity:0.4;" width="8.74023" x="1391.32" y="1030.79"/>
  <rect height="119.336" id="right-margin" style="fill:#00AEEF;stroke:none;opacity:0.4;" width="8.69141" x="1499.67" y="1030.79"/>
 </g>
 <g id="Symbols">
  <g id="Ultralight-S" transform="matrix(1 0 0 1 515.644 696)">
   <path d="M 44.043 2.05078 C 64.502 2.05078 81.2988 -14.6973 81.2988 -35.1562 C 81.2988 -55.6152 64.502 -72.3633 44.043 -72.3633 C 23.584 -72.3633 6.83594 -55.6152 6.83594 -35.1562 C 6.83594 -14.6973 23.584 2.05078 44.043 2.05078 Z M 29.8828 -35.4492 C 29.8828 -35.9863 30.2734 -36.4746 31.0059 -36.4746 L 32.666 -36.4746 L 30.6152 -50.0977 C 30.5176 -50.4395 30.4688 -50.7812 30.4688 -50.9277 C 30.4688 -51.5137 30.957 -51.9531 31.5918 -51.9531 C 32.2266 -51.9531 32.6172 -51.5137 32.7637 -50.8789 L 34.8145 -36.4746 L 39.5996 -36.4746 L 42.9199 -50.9766 C 43.0176 -51.5137 43.5059 -51.8555 44.043 -51.8555 C 44.5801 -51.8555 45.0684 -51.5137 45.2148 -50.9766 L 48.4863 -36.4746 L 53.2715 -36.4746 L 55.3223 -50.8301 C 55.4199 -51.5625 55.9082 -51.9043 56.4941 -51.9043 C 57.1289 -51.9043 57.6172 -51.4648 57.6172 -50.8789 C 57.6172 -50.8301 57.6172 -50.7324 57.5684 -50.3418 L 55.4688 -36.4746 L 57.0801 -36.4746 C 57.8125 -36.4746 58.2031 -36.0352 58.2031 -35.4492 C 58.2031 -34.8145 57.8125 -34.375 57.0801 -34.375 L 55.127 -34.375 L 52.7344 -18.4082 C 52.6367 -17.8223 52.0996 -17.4805 51.6113 -17.4805 C 50.9277 -17.4805 50.5371 -17.8711 50.4395 -18.3594 L 46.7773 -34.375 L 41.2598 -34.375 L 37.5977 -18.3105 C 37.5 -17.8223 37.0605 -17.4805 36.4746 -17.4805 C 35.8887 -17.4805 35.4492 -17.8711 35.3027 -18.457 L 32.959 -34.375 L 31.0059 -34.375 C 30.2734 -34.375 29.8828 -34.8145 29.8828 -35.4492 Z M 41.748 -36.4746 L 46.2891 -36.4746 L 43.9941 -46.3867 Z M 35.1074 -34.375 L 36.6699 -23.584 L 39.1113 -34.375 Z M 48.9746 -34.375 L 51.4648 -23.6328 L 52.9785 -34.375 Z"/>
  </g>
  <g id="Thin-S" transform="matrix(1 0 0 1 811.867 696)">
   <path d="M 44.5801 2.53906 C 65.2832 2.53906 82.2754 -14.4531 82.2754 -35.2051 C 82.2754 -55.9082 65.2344 -72.9004 44.5312 -72.9004 C 23.8281 -72.9004 6.83594 -55.9082 6.83594 -35.2051 C 6.83594 -14.4531 23.877 2.53906 44.5801 2.53906 Z M 29.541 -35.5957 C 29.541 -36.3281 30.0781 -36.9141 30.9082 -36.9141 L 32.6172 -36.9141 L 30.5664 -50.1953 C 30.4688 -50.5371 30.4199 -50.8789 30.4199 -51.123 C 30.4199 -51.9531 31.1035 -52.4902 31.9336 -52.4902 C 32.7637 -52.4902 33.3496 -52.002 33.4961 -51.1719 L 35.4492 -36.9141 L 39.8926 -36.9141 L 42.8711 -51.0742 C 43.0176 -51.9531 43.75 -52.4414 44.5312 -52.4414 C 45.3125 -52.4414 46.0449 -51.9531 46.1914 -51.0742 L 49.2188 -36.9141 L 53.6133 -36.9141 L 55.6152 -51.123 C 55.7617 -52.0508 56.3965 -52.4902 57.1289 -52.4902 C 58.0078 -52.4902 58.6426 -51.9531 58.6426 -51.123 C 58.6426 -50.9766 58.5938 -50.8301 58.5449 -50.4395 L 56.4941 -36.9141 L 58.1543 -36.9141 C 58.9844 -36.9141 59.5215 -36.3281 59.5215 -35.5957 C 59.5215 -34.8633 58.9844 -34.2773 58.1543 -34.2773 L 56.1035 -34.2773 L 53.6621 -18.3105 C 53.5156 -17.4316 52.832 -16.9434 52.0508 -16.9434 C 51.1719 -16.9434 50.5859 -17.4316 50.3906 -18.2617 L 47.0215 -34.2773 L 42.041 -34.2773 L 38.623 -18.2129 C 38.4766 -17.3828 37.8418 -16.9434 37.0117 -16.9434 C 36.2305 -16.9434 35.5957 -17.4805 35.4492 -18.3105 L 33.0078 -34.2773 L 30.9082 -34.2773 C 30.0781 -34.2773 29.541 -34.8633 29.541 -35.5957 Z M 42.5781 -36.9141 L 46.4844 -36.9141 L 44.5312 -46.2402 Z M 35.8398 -34.2773 L 37.207 -23.9258 L 39.3555 -34.2773 Z M 49.7559 -34.2773 L 51.9043 -23.877 L 53.2715 -34.2773 Z"/>
  </g>
  <g id="Light-S" transform="matrix(1 0 0 1 1107.6 696)">
   <path d="M 45.5078 3.4668 C 66.6992 3.4668 84.2285 -14.0625 84.2285 -35.2051 C 84.2285 -56.3965 66.6504 -73.9258 45.5078 -73.9258 C 24.3164 -73.9258 6.83594 -56.3965 6.83594 -35.2051 C 6.83594 -14.0625 24.3652 3.4668 45.5078 3.4668 Z M 28.9551 -35.8887 C 28.9551 -36.9629 29.7363 -37.6953 30.7617 -37.6953 L 32.5195 -37.6953 L 30.5664 -50.3418 C 30.4688 -50.7324 30.3711 -51.123 30.3711 -51.5137 C 30.3711 -52.7832 31.3477 -53.5645 32.666 -53.5645 C 33.8379 -53.5645 34.7656 -52.8809 34.9609 -51.6602 L 36.7188 -37.6953 L 40.3809 -37.6953 L 42.8223 -51.2695 C 43.0664 -52.7344 44.1406 -53.5645 45.459 -53.5645 C 46.7285 -53.5645 47.9004 -52.7344 48.1445 -51.3184 L 50.5859 -37.7441 L 54.2969 -37.7441 L 56.1523 -51.709 C 56.2988 -52.9297 57.2754 -53.6133 58.3984 -53.6133 C 59.668 -53.6133 60.6445 -52.832 60.6445 -51.6113 C 60.6445 -51.2207 60.5469 -50.9766 60.498 -50.5859 L 58.4961 -37.7441 L 60.2051 -37.7441 C 61.2793 -37.7441 62.0117 -36.9629 62.0117 -35.9375 C 62.0117 -34.9609 61.2793 -34.1309 60.2051 -34.1309 L 57.9102 -34.1309 L 55.4688 -18.0664 C 55.2246 -16.6504 54.1504 -15.8691 52.9297 -15.8691 C 51.6113 -15.8691 50.5859 -16.6016 50.3906 -18.0176 L 47.4609 -34.1309 L 43.5059 -34.1309 L 40.6738 -18.0176 C 40.4297 -16.6016 39.4043 -15.8691 38.1348 -15.8691 C 36.8652 -15.8691 35.8398 -16.6504 35.5957 -18.0664 L 33.1055 -34.082 L 30.7617 -34.082 C 29.7363 -34.082 28.9551 -34.9121 28.9551 -35.8887 Z M 44.1895 -37.6953 L 46.875 -37.6953 L 45.5078 -45.8984 Z M 37.207 -34.1309 L 38.2812 -24.5605 L 39.8438 -34.1309 Z M 51.1719 -34.1309 L 52.7832 -24.3652 L 53.9062 -34.1309 Z"/>
  </g>
  <g id="Regular-S" transform="matrix(1 0 0 1 1403.58 696)">
   <path d="M 46.2402 4.15039 C 67.7734 4.15039 85.6934 -13.7207 85.6934 -35.2539 C 85.6934 -56.7871 67.7246 -74.6582 46.1914 -74.6582 C 24.707 -74.6582 6.83594 -56.7871 6.83594 -35.2539 C 6.83594 -13.7207 24.7559 4.15039 46.2402 4.15039 Z M 28.5156 -36.1328 C 28.5156 -37.4023 29.4434 -38.3301 30.6152 -38.3301 L 32.4219 -38.3301 L 30.5176 -50.4883 C 30.4199 -50.8789 30.3223 -51.2695 30.3223 -51.8066 C 30.3223 -53.418 31.543 -54.3945 33.2031 -54.3945 C 34.6191 -54.3945 35.8398 -53.6133 36.0352 -52.0508 L 37.6953 -38.3301 L 40.7715 -38.3301 L 42.7734 -51.416 C 43.0664 -53.3691 44.4824 -54.3945 46.1426 -54.3945 C 47.8027 -54.3945 49.3164 -53.3691 49.6094 -51.4648 L 51.6113 -38.3789 L 54.834 -38.3789 L 56.5918 -52.0996 C 56.7383 -53.6621 58.0078 -54.4434 59.375 -54.4434 C 60.9375 -54.4434 62.1582 -53.5156 62.1582 -51.9531 C 62.1582 -51.416 62.0605 -51.0742 62.0117 -50.6836 L 60.0586 -38.3789 L 61.7676 -38.3789 C 63.0371 -38.3789 63.916 -37.4512 63.916 -36.1816 C 63.916 -35.0098 63.0371 -33.9844 61.7676 -33.9844 L 59.3262 -33.9844 L 56.7871 -17.8711 C 56.4941 -16.0645 55.1758 -15.0879 53.6133 -15.0879 C 51.9531 -15.0879 50.6348 -15.9668 50.3418 -17.8711 L 47.8027 -33.9844 L 44.6777 -33.9844 L 42.1875 -17.8711 C 41.9434 -15.9668 40.625 -15.0879 38.9648 -15.0879 C 37.3535 -15.0879 36.0352 -16.0645 35.7422 -17.8711 L 33.1543 -33.9355 L 30.6152 -33.9355 C 29.4434 -33.9355 28.5156 -34.9609 28.5156 -36.1328 Z M 45.4102 -38.3301 L 47.168 -38.3301 L 46.2402 -45.6543 Z M 38.2324 -34.0332 L 39.0625 -25 L 40.1855 -34.0332 Z M 52.2461 -34.0332 L 53.4668 -24.707 L 54.3945 -34.0332 Z"/>
  </g>
  <g id="Medium-S" transform="matrix(1 0 0 1 1699.7 696)">
   <path d="M 46.8262 4.78516 C 68.75 4.78516 86.8652 -13.3301 86.8652 -35.2539 C 86.8652 -57.1289 68.7012 -75.2441 46.8262 -75.2441 C 24.9023 -75.2441 6.83594 -57.1289 6.83594 -35.2539 C 6.83594 -13.3301 24.9512 4.78516 46.8262 4.78516 Z M 28.9551 -36.0352 C 28.9551 -37.207 29.834 -38.0859 30.957 -38.0859 L 32.5684 -38.0859 L 30.7617 -49.707 C 30.6641 -50.2441 30.6152 -50.6836 30.6152 -51.2207 C 30.6152 -53.0762 31.9336 -54.248 33.8379 -54.248 C 35.5469 -54.248 36.9141 -53.2715 37.1094 -51.4648 L 38.623 -38.0859 L 41.2109 -38.0859 L 43.1152 -51.0742 C 43.4082 -53.0762 44.873 -54.248 46.7285 -54.248 C 48.584 -54.248 50.1465 -53.0762 50.4395 -51.0742 L 52.3438 -38.0859 L 55.0293 -38.0859 L 56.5918 -51.5625 C 56.7871 -53.3203 58.1543 -54.2969 59.8145 -54.2969 C 61.6699 -54.2969 62.9883 -53.125 62.9883 -51.3184 C 62.9883 -50.8301 62.9395 -50.3418 62.8418 -49.8535 L 61.0352 -38.0859 L 62.6465 -38.0859 C 63.8184 -38.0859 64.6484 -37.2559 64.6484 -36.084 C 64.6484 -34.9121 63.8184 -34.0332 62.6465 -34.0332 L 60.3516 -34.0332 L 58.0078 -18.75 C 57.666 -16.6504 56.1523 -15.4297 54.248 -15.4297 C 52.2949 -15.4297 50.7324 -16.6016 50.4395 -18.75 L 48.1445 -34.0332 L 45.5078 -34.0332 L 43.2617 -18.75 C 42.9688 -16.6016 41.4062 -15.4297 39.4531 -15.4297 C 37.5488 -15.4297 35.9863 -16.6504 35.6445 -18.75 L 33.252 -33.9844 L 30.957 -33.9844 C 29.834 -33.9844 28.9551 -34.9121 28.9551 -36.0352 Z M 46.0938 -38.0859 L 47.5586 -38.0859 L 46.8262 -44.2383 Z M 39.0625 -34.0332 L 39.7461 -26.5137 L 40.6738 -34.0332 Z M 52.8809 -34.0332 L 53.9062 -26.2695 L 54.6875 -34.0332 Z"/>
  </g>
  <g id="Semibold-S" transform="matrix(1 0 0 1 1995.98 696)">
   <path d="M 47.3145 5.22461 C 69.4824 5.22461 87.7441 -13.0371 87.7441 -35.2539 C 87.7441 -57.4219 69.4336 -75.6836 47.2656 -75.6836 C 25.0977 -75.6836 6.83594 -57.4219 6.83594 -35.2539 C 6.83594 -13.0371 25.0977 5.22461 47.3145 5.22461 Z M 29.2969 -35.9375 C 29.2969 -37.1094 30.127 -37.8906 31.2012 -37.8906 L 32.7148 -37.8906 L 30.957 -49.1211 C 30.8594 -49.7559 30.8105 -50.2441 30.8105 -50.7324 C 30.8105 -52.832 32.2754 -54.1504 34.3262 -54.1504 C 36.2793 -54.1504 37.793 -53.0273 37.9395 -51.0254 L 39.3066 -37.8906 L 41.5527 -37.8906 L 43.3105 -50.7812 C 43.6523 -52.8809 45.166 -54.1504 47.2168 -54.1504 C 49.1699 -54.1504 50.7812 -52.8809 51.0742 -50.7812 L 52.8809 -37.8906 L 55.1758 -37.8906 L 56.5918 -51.0742 C 56.7871 -53.0273 58.252 -54.1992 60.1562 -54.1992 C 62.2559 -54.1992 63.6719 -52.8809 63.6719 -50.8301 C 63.6719 -50.3906 63.5742 -49.8535 63.5254 -49.2676 L 61.7676 -37.8906 L 63.2812 -37.8906 C 64.4043 -37.8906 65.1855 -37.1094 65.1855 -35.9863 C 65.1855 -34.8633 64.4043 -34.0332 63.2812 -34.0332 L 61.1328 -34.0332 L 58.9355 -19.4336 C 58.5449 -17.0898 56.8848 -15.7227 54.7363 -15.7227 C 52.5391 -15.7227 50.8301 -17.0898 50.4883 -19.4336 L 48.3887 -34.0332 L 46.1426 -34.0332 L 44.043 -19.4336 C 43.75 -17.0898 42.041 -15.7227 39.8438 -15.7227 C 37.6465 -15.7227 35.9375 -17.0898 35.5957 -19.4336 L 33.3496 -33.9844 L 31.2012 -33.9844 C 30.127 -33.9844 29.2969 -34.8633 29.2969 -35.9375 Z M 46.6309 -37.8906 L 47.9004 -37.8906 L 47.2656 -43.1641 Z M 39.6973 -34.0332 L 40.2832 -27.6367 L 41.0645 -34.0332 Z M 53.3691 -34.0332 L 54.1992 -27.4414 L 54.8828 -34.0332 Z"/>
  </g>
  <g id="Bold-S" transform="matrix(1 0 0 1 2292.1 696)">
   <path d="M 47.9004 5.81055 C 70.4102 5.81055 88.916 -12.6465 88.916 -35.2051 C 88.916 -57.7637 70.4102 -76.2695 47.8516 -76.2695 C 25.293 -76.2695 6.83594 -57.7637 6.83594 -35.2051 C 6.83594 -12.6465 25.3418 5.81055 47.9004 5.81055 Z M 29.7852 -35.8398 C 29.7852 -36.9141 30.5176 -37.6465 31.543 -37.6465 L 32.8613 -37.6465 L 31.25 -48.3887 C 31.1523 -49.1211 31.0547 -49.6094 31.0547 -50.1465 C 31.0547 -52.4902 32.666 -54.0527 35.0098 -54.0527 C 37.207 -54.0527 38.8672 -52.6855 39.0137 -50.4883 L 40.2344 -37.6465 L 41.9922 -37.6465 L 43.6523 -50.3906 C 43.9941 -52.6367 45.6055 -54.0527 47.8027 -54.0527 C 49.9512 -54.0527 51.6113 -52.6367 51.9043 -50.3906 L 53.6133 -37.6465 L 55.3711 -37.6465 L 56.6406 -50.4883 C 56.7871 -52.6855 58.3984 -54.0527 60.6445 -54.0527 C 62.9883 -54.0527 64.5508 -52.5391 64.5508 -50.1953 C 64.5508 -49.8047 64.502 -49.1211 64.4043 -48.4375 L 62.7441 -37.6465 L 64.1602 -37.6465 C 65.1855 -37.6465 65.918 -36.9141 65.918 -35.8398 C 65.918 -34.8145 65.1855 -34.0332 64.1602 -34.0332 L 62.207 -34.0332 L 60.1074 -20.3125 C 59.7656 -17.7246 57.8613 -16.0645 55.3711 -16.0645 C 52.8809 -16.0645 50.9277 -17.7246 50.5859 -20.3613 L 48.7305 -34.0332 L 46.9727 -34.0332 L 45.1172 -20.3613 C 44.7754 -17.7246 42.8223 -16.0645 40.332 -16.0645 C 37.793 -16.0645 35.8887 -17.7246 35.498 -20.3125 L 33.4473 -34.0332 L 31.543 -34.0332 C 30.5176 -34.0332 29.7852 -34.8145 29.7852 -35.8398 Z M 47.3633 -37.6465 L 48.291 -37.6465 L 47.8516 -41.748 Z M 40.5273 -34.0332 L 40.9668 -29.1504 L 41.5527 -34.0332 Z M 54.0527 -34.0332 L 54.6387 -29.0527 L 55.1758 -34.0332 Z"/>
  </g>
  <g id="Heavy-S" transform="matrix(1 0 0 1 2587.96 696)">
   <path d="M 48.7305 6.68945 C 71.8262 6.68945 90.625 -12.1094 90.625 -35.2051 C 90.625 -58.3008 71.8262 -77.0996 48.7305 -77.0996 C 25.6348 -77.0996 6.83594 -58.3008 6.83594 -35.2051 C 6.83594 -12.1094 25.6348 6.68945 48.7305 6.68945 Z M 30.4199 -35.6445 C 30.4199 -36.6211 31.0547 -37.2559 32.0312 -37.2559 L 33.1055 -37.2559 L 31.5918 -47.2656 C 31.4941 -48.1934 31.4453 -48.7305 31.4453 -49.2676 C 31.4453 -52.002 33.252 -53.8574 35.9375 -53.8574 C 38.5742 -53.8574 40.4785 -52.1973 40.625 -49.6582 L 41.6016 -37.2559 L 42.627 -37.2559 L 44.0918 -49.8535 C 44.4336 -52.2461 46.1914 -53.8574 48.6328 -53.8574 C 51.0742 -53.8574 52.832 -52.2461 53.125 -49.8535 L 54.6875 -37.2559 L 55.6641 -37.2559 L 56.6895 -49.6582 C 56.8359 -52.1973 58.6426 -53.8574 61.2793 -53.8574 C 64.0137 -53.8574 65.8203 -52.002 65.8203 -49.2676 C 65.8203 -48.9258 65.7715 -48.0957 65.6738 -47.3145 L 64.209 -37.2559 L 65.3809 -37.2559 C 66.3574 -37.2559 66.9922 -36.6211 66.9922 -35.6445 C 66.9922 -34.7168 66.3574 -34.0332 65.3809 -34.0332 L 63.7207 -34.0332 L 61.8652 -21.582 C 61.4746 -18.5547 59.2773 -16.6016 56.2988 -16.6016 C 53.3691 -16.6016 51.123 -18.6035 50.7324 -21.6797 L 49.2188 -34.0332 L 48.1445 -34.0332 L 46.6797 -21.6797 C 46.2891 -18.6035 43.9941 -16.6016 41.0645 -16.6016 C 38.0371 -16.6016 35.8398 -18.5547 35.3516 -21.582 L 33.5938 -34.0332 L 32.0312 -34.0332 C 31.0547 -34.0332 30.4199 -34.7168 30.4199 -35.6445 Z M 48.3887 -37.2559 L 48.9258 -37.2559 L 48.6816 -39.6484 Z M 41.6992 -34.0332 L 41.9434 -31.2988 L 42.2852 -34.0332 Z M 54.9805 -34.0332 L 55.3223 -31.2988 L 55.5664 -34.0332 Z"/>
  </g>
  <g id="Black-S" transform="matrix(1 0 0 1 2883.89 696)">
   <path d="M 49.5117 7.4707 C 73.0957 7.4707 92.1875 -11.6211 92.1875 -35.2051 C 92.1875 -58.7891 73.0957 -77.8809 49.5117 -77.8809 C 25.9277 -77.8809 6.83594 -58.7891 6.83594 -35.2051 C 6.83594 -11.6211 25.9277 7.4707 49.5117 7.4707 Z M 31.0547 -35.498 C 31.0547 -36.377 31.5918 -36.9141 32.4707 -36.9141 L 33.3008 -36.9141 L 31.9336 -46.2891 C 31.8359 -47.3633 31.8359 -47.9492 31.8359 -48.4863 C 31.8359 -51.5625 33.7891 -53.6621 36.8164 -53.6621 C 39.8438 -53.6621 41.8945 -51.7578 42.041 -48.9258 L 42.8223 -36.9141 L 43.2129 -36.9141 L 44.5312 -49.3652 C 44.873 -51.9043 46.7285 -53.6621 49.4141 -53.6621 C 52.0508 -53.6621 53.9062 -51.9043 54.1992 -49.3164 L 55.6152 -36.9141 L 55.9082 -36.9141 L 56.6895 -48.877 C 56.8359 -51.7578 58.8379 -53.6621 61.9141 -53.6621 C 64.9902 -53.6621 66.9434 -51.5625 66.9434 -48.4375 C 66.9434 -48.1445 66.9434 -47.2168 66.7969 -46.2402 L 65.4785 -36.9141 L 66.5039 -36.9141 C 67.3828 -36.9141 67.9199 -36.377 67.9199 -35.498 C 67.9199 -34.6191 67.3828 -34.0332 66.5039 -34.0332 L 65.0391 -34.0332 L 63.4766 -22.7539 C 62.9883 -19.3359 60.5469 -17.041 57.1289 -17.041 C 53.8086 -17.041 51.2695 -19.4336 50.8301 -22.9004 L 49.6582 -34.0332 L 49.2188 -34.0332 L 48.0469 -22.9004 C 47.6074 -19.4336 45.0684 -17.041 41.748 -17.041 C 38.2812 -17.041 35.791 -19.3359 35.2539 -22.7539 L 33.7402 -34.082 L 32.4707 -34.082 C 31.5918 -34.082 31.0547 -34.668 31.0547 -35.498 Z M 49.2676 -36.9141 L 49.4629 -36.9141 L 49.4629 -37.793 Z M 42.7734 -34.0332 L 42.8223 -33.252 L 42.9199 -34.0332 Z M 55.8105 -34.0332 L 55.8594 -33.3496 L 55.9082 -34.0332 Z"/>
  </g>
  <g id="Ultralight-M" transform="matrix(1 0 0 1 503.656 1126)">
   <path d="M 56.0547 12.207 C 82.0801 12.207 103.369 -9.08203 103.369 -35.1562 C 103.369 -61.1816 82.0801 -82.4707 56.0547 -82.4707 C 30.0293 -82.4707 8.74023 -61.1816 8.74023 -35.1562 C 8.74023 -9.08203 30.0293 12.207 56.0547 12.207 Z M 38.2324 -35.4492 C 38.2324 -36.084 38.7207 -36.6699 39.5996 -36.6699 L 41.6992 -36.6699 L 39.0625 -54.1992 C 38.9648 -54.5898 38.916 -55.0293 38.916 -55.1758 C 38.916 -55.8594 39.4531 -56.3477 40.1855 -56.3477 C 40.918 -56.3477 41.3574 -55.8594 41.5039 -55.127 L 44.1895 -36.6699 L 50.4395 -36.6699 L 54.7852 -55.2734 C 54.8828 -55.8594 55.4688 -56.2012 56.0547 -56.2012 C 56.6406 -56.2012 57.1777 -55.8594 57.3242 -55.2734 L 61.6211 -36.6699 L 67.8223 -36.6699 L 70.5078 -55.0293 C 70.6543 -55.9082 71.1914 -56.25 71.875 -56.25 C 72.6074 -56.25 73.1445 -55.7617 73.1445 -55.127 C 73.1445 -55.0781 73.1445 -55.0293 73.0957 -54.4922 L 70.4102 -36.6699 L 72.4609 -36.6699 C 73.291 -36.6699 73.7793 -36.084 73.7793 -35.4492 C 73.7793 -34.7168 73.291 -34.1309 72.4609 -34.1309 L 70.0195 -34.1309 L 66.9922 -13.8184 C 66.8457 -13.1836 66.2598 -12.793 65.7227 -12.793 C 64.9414 -12.793 64.502 -13.2324 64.4043 -13.7695 L 59.6191 -34.1309 L 52.3438 -34.1309 L 47.5586 -13.7207 C 47.4609 -13.1836 46.9727 -12.793 46.3379 -12.793 C 45.6543 -12.793 45.166 -13.2324 45.0684 -13.916 L 42.041 -34.1309 L 39.5996 -34.1309 C 38.7207 -34.1309 38.2324 -34.7168 38.2324 -35.4492 Z M 52.9785 -36.6699 L 58.9844 -36.6699 L 56.0059 -49.5605 Z M 44.5801 -34.1309 L 46.582 -20.2637 L 49.8535 -34.1309 Z M 62.2559 -34.1309 L 65.5273 -20.3613 L 67.4805 -34.1309 Z"/>
  </g>
  <g id="Thin-M" transform="matrix(1 0 0 1 799.806 1126)">
   <path d="M 56.5918 12.7441 C 82.9102 12.7441 104.492 -8.83789 104.492 -35.1562 C 104.492 -61.4746 82.9102 -83.0566 56.5918 -83.0566 C 30.3223 -83.0566 8.74023 -61.4746 8.74023 -35.1562 C 8.74023 -8.83789 30.3223 12.7441 56.5918 12.7441 Z M 37.8906 -35.5957 C 37.8906 -36.4746 38.5254 -37.1094 39.502 -37.1094 L 41.6504 -37.1094 L 39.0625 -54.2969 C 38.916 -54.6875 38.8672 -55.127 38.8672 -55.4199 C 38.8672 -56.3477 39.5996 -56.9824 40.5762 -56.9824 C 41.5039 -56.9824 42.1875 -56.3965 42.334 -55.4199 L 44.9219 -37.1094 L 50.7324 -37.1094 L 54.7363 -55.3711 C 54.9316 -56.2988 55.7129 -56.8848 56.5918 -56.8848 C 57.4707 -56.8848 58.252 -56.2988 58.4473 -55.3711 L 62.4512 -37.1582 L 68.2617 -37.1582 L 70.8496 -55.3711 C 70.9961 -56.4453 71.7285 -56.9336 72.6074 -56.9336 C 73.584 -56.9336 74.3164 -56.2988 74.3164 -55.3711 C 74.3164 -55.2246 74.2676 -55.0781 74.2188 -54.5898 L 71.582 -37.1582 L 73.6328 -37.1582 C 74.6582 -37.1582 75.2441 -36.4746 75.2441 -35.6445 C 75.2441 -34.7168 74.6582 -34.0332 73.6328 -34.0332 L 71.0938 -34.0332 L 68.0176 -13.6719 C 67.8223 -12.7441 67.041 -12.207 66.2109 -12.207 C 65.1855 -12.207 64.502 -12.7441 64.3555 -13.623 L 59.8633 -34.0332 L 53.2227 -34.0332 L 48.7793 -13.5742 C 48.584 -12.6953 47.9004 -12.207 46.9727 -12.207 C 46.0449 -12.207 45.3125 -12.793 45.166 -13.7207 L 42.0898 -34.0332 L 39.502 -34.0332 C 38.5254 -34.0332 37.8906 -34.7168 37.8906 -35.5957 Z M 53.9062 -37.1094 L 59.2285 -37.1094 L 56.543 -49.3652 Z M 45.3613 -34.082 L 47.168 -20.6543 L 50.0977 -34.082 Z M 63.0859 -34.082 L 66.0156 -20.6055 L 67.8223 -34.082 Z"/>
  </g>
  <g id="Light-M" transform="matrix(1 0 0 1 1095.42 1126)">
   <path d="M 57.7148 13.7695 C 84.5215 13.7695 106.689 -8.39844 106.689 -35.2051 C 106.689 -62.0117 84.4727 -84.1797 57.666 -84.1797 C 30.8594 -84.1797 8.74023 -62.0117 8.74023 -35.2051 C 8.74023 -8.39844 30.8594 13.7695 57.7148 13.7695 Z M 37.207 -35.9863 C 37.207 -37.1582 38.0859 -38.0371 39.3066 -38.0371 L 41.5527 -38.0371 L 39.0137 -54.4434 C 38.8672 -54.9316 38.7695 -55.4199 38.7695 -55.8594 C 38.7695 -57.2754 39.8926 -58.2031 41.4062 -58.2031 C 42.7246 -58.2031 43.7988 -57.4219 43.9941 -55.957 L 46.3379 -38.0371 L 51.3184 -38.0371 L 54.6875 -55.6152 C 54.9316 -57.2266 56.2012 -58.1543 57.6172 -58.1543 C 59.082 -58.1543 60.3516 -57.2266 60.6445 -55.6641 L 63.9648 -38.0859 L 69.043 -38.0859 L 71.4355 -56.0059 C 71.6309 -57.4707 72.7539 -58.2031 74.0234 -58.2031 C 75.4883 -58.2031 76.5625 -57.3242 76.5625 -55.9082 C 76.5625 -55.5176 76.4648 -55.2246 76.416 -54.7363 L 73.8281 -38.0859 L 75.9766 -38.0859 C 77.2461 -38.0859 78.125 -37.207 78.125 -35.9863 C 78.125 -34.8145 77.2461 -33.8867 75.9766 -33.8867 L 73.1934 -33.8867 L 70.0195 -13.3789 C 69.7754 -11.8652 68.5547 -10.9863 67.1875 -10.9863 C 65.6738 -10.9863 64.5508 -11.8164 64.3066 -13.3789 L 60.4004 -33.8867 L 54.9316 -33.8867 L 51.0742 -13.3301 C 50.8301 -11.7676 49.6582 -10.9863 48.1934 -10.9863 C 46.7773 -10.9863 45.6543 -11.8652 45.3613 -13.4277 L 42.1875 -33.8379 L 39.3066 -33.8379 C 38.0859 -33.8379 37.207 -34.8145 37.207 -35.9863 Z M 55.7129 -38.0371 L 59.668 -38.0371 L 57.666 -48.9746 Z M 46.9238 -33.9355 L 48.3887 -21.3379 L 50.6348 -33.9355 Z M 64.6973 -33.9355 L 66.9922 -21.1426 L 68.5547 -33.9355 Z"/>
  </g>
  <g id="Regular-M" transform="matrix(1 0 0 1 1391.32 1126)">
   <path d="M 58.5449 14.5508 C 85.7422 14.5508 108.35 -8.00781 108.35 -35.2539 C 108.35 -62.4512 85.6934 -85.0586 58.4961 -85.0586 C 31.25 -85.0586 8.74023 -62.4512 8.74023 -35.2539 C 8.74023 -8.00781 31.2988 14.5508 58.5449 14.5508 Z M 36.6699 -36.2305 C 36.6699 -37.6953 37.793 -38.7207 39.209 -38.7207 L 41.4551 -38.7207 L 38.9648 -54.5898 C 38.8672 -55.127 38.7207 -55.6152 38.7207 -56.2012 C 38.7207 -58.0078 40.1367 -59.1309 41.9922 -59.1309 C 43.6523 -59.1309 45.0195 -58.2031 45.2148 -56.3965 L 47.4121 -38.7207 L 51.7578 -38.7207 L 54.6387 -55.8105 C 54.9805 -57.959 56.543 -59.082 58.4473 -59.082 C 60.2539 -59.082 61.9629 -57.959 62.3047 -55.8594 L 65.1855 -38.7695 L 69.6289 -38.7695 L 71.9238 -56.4941 C 72.1191 -58.252 73.5352 -59.1797 75.0977 -59.1797 C 76.9043 -59.1797 78.2715 -58.0566 78.2715 -56.2988 C 78.2715 -55.7617 78.1738 -55.3711 78.0762 -54.8828 L 75.5859 -38.7695 L 77.7832 -38.7695 C 79.248 -38.7695 80.2734 -37.7441 80.2734 -36.2793 C 80.2734 -34.9121 79.248 -33.7402 77.7832 -33.7402 L 74.7559 -33.7402 L 71.5332 -13.1836 C 71.2402 -11.1816 69.7266 -10.0586 67.9688 -10.0586 C 66.0645 -10.0586 64.5996 -11.084 64.3066 -13.1836 L 60.791 -33.7402 L 56.2012 -33.7402 L 52.7832 -13.1836 C 52.4902 -11.084 51.0254 -10.0586 49.1699 -10.0586 C 47.3633 -10.0586 45.8496 -11.1816 45.5566 -13.1836 L 42.2852 -33.6914 L 39.209 -33.6914 C 37.793 -33.6914 36.6699 -34.8633 36.6699 -36.2305 Z M 57.0801 -38.7207 L 60.0098 -38.7207 L 58.4961 -48.6816 Z M 48.0957 -33.7891 L 49.3164 -21.875 L 51.0254 -33.7891 Z M 65.918 -33.7891 L 67.7734 -21.5332 L 69.0918 -33.7891 Z"/>
  </g>
  <g id="Medium-M" transform="matrix(1 0 0 1 1687.33 1126)">
   <path d="M 59.2285 15.2832 C 86.8652 15.2832 109.717 -7.56836 109.717 -35.2051 C 109.717 -62.8906 86.8164 -85.7422 59.1797 -85.7422 C 31.543 -85.7422 8.74023 -62.8906 8.74023 -35.2051 C 8.74023 -7.56836 31.5918 15.2832 59.2285 15.2832 Z M 37.1094 -36.1328 C 37.1094 -37.5488 38.1348 -38.5742 39.502 -38.5742 L 41.6016 -38.5742 L 39.2578 -53.8574 C 39.1113 -54.4922 39.0137 -55.0293 39.0137 -55.6152 C 39.0137 -57.7148 40.5762 -59.082 42.7246 -59.082 C 44.6777 -59.082 46.2891 -57.959 46.4844 -55.9082 L 48.4863 -38.5742 L 52.2461 -38.5742 L 54.9316 -55.4199 C 55.2734 -57.7637 56.9824 -59.082 59.1309 -59.082 C 61.1816 -59.082 62.9883 -57.7637 63.3301 -55.4688 L 66.0156 -38.623 L 69.9219 -38.623 L 71.9727 -55.957 C 72.2168 -58.0078 73.7793 -59.1309 75.6836 -59.1309 C 77.832 -59.1309 79.3457 -57.8125 79.3457 -55.7129 C 79.3457 -55.1758 79.248 -54.6875 79.1992 -54.0527 L 76.7578 -38.623 L 78.8574 -38.623 C 80.2734 -38.623 81.25 -37.5977 81.25 -36.1816 C 81.25 -34.8145 80.2734 -33.7402 78.8574 -33.7402 L 75.9766 -33.7402 L 72.9492 -14.0625 C 72.6074 -11.7188 70.8496 -10.3516 68.7012 -10.3516 C 66.4551 -10.3516 64.7461 -11.6699 64.3555 -14.0625 L 61.1328 -33.7402 L 57.2266 -33.7402 L 54.1016 -14.0625 C 53.7109 -11.6211 52.002 -10.3516 49.7559 -10.3516 C 47.5586 -10.3516 45.8496 -11.7188 45.459 -14.0625 L 42.3828 -33.6914 L 39.502 -33.6914 C 38.1348 -33.6914 37.1094 -34.8145 37.1094 -36.1328 Z M 57.959 -38.5742 L 60.4492 -38.5742 L 59.2285 -47.2168 Z M 49.0723 -33.7891 L 50.0977 -23.4375 L 51.5625 -33.7891 Z M 66.748 -33.7891 L 68.3105 -23.1934 L 69.4336 -33.7891 Z"/>
  </g>
  <g id="Semibold-M" transform="matrix(1 0 0 1 1983.5 1126)">
   <path d="M 59.7656 15.8203 C 87.7441 15.8203 110.791 -7.22656 110.791 -35.2051 C 110.791 -63.1836 87.6953 -86.2793 59.7168 -86.2793 C 31.7383 -86.2793 8.74023 -63.1836 8.74023 -35.2051 C 8.74023 -7.22656 31.7871 15.8203 59.7656 15.8203 Z M 37.4023 -36.084 C 37.4023 -37.4512 38.4277 -38.4277 39.7461 -38.4277 L 41.6992 -38.4277 L 39.4531 -53.2715 C 39.3066 -54.0039 39.209 -54.541 39.209 -55.1758 C 39.209 -57.5195 40.918 -59.082 43.3105 -59.082 C 45.5078 -59.082 47.2168 -57.7637 47.4609 -55.4688 L 49.3164 -38.4277 L 52.6367 -38.4277 L 55.1758 -55.1758 C 55.5664 -57.6172 57.3242 -59.082 59.668 -59.082 C 61.9141 -59.082 63.8184 -57.6172 64.1113 -55.1758 L 66.6992 -38.4766 L 70.1172 -38.4766 L 72.0703 -55.5664 C 72.2656 -57.8125 73.9746 -59.082 76.123 -59.082 C 78.5156 -59.082 80.1758 -57.6172 80.1758 -55.2734 C 80.1758 -54.7363 80.0781 -54.1504 80.0293 -53.4668 L 77.6855 -38.4766 L 79.6875 -38.4766 C 81.0547 -38.4766 82.0312 -37.5 82.0312 -36.084 C 82.0312 -34.8145 81.0547 -33.7402 79.6875 -33.7402 L 76.9531 -33.7402 L 74.0234 -14.7461 C 73.6328 -12.1094 71.7285 -10.5469 69.2383 -10.5469 C 66.748 -10.5469 64.7949 -12.0605 64.4531 -14.7461 L 61.4746 -33.7402 L 57.959 -33.7402 L 55.0781 -14.7461 C 54.6875 -12.0605 52.7344 -10.5469 50.2441 -10.5469 C 47.7539 -10.5469 45.8496 -12.1094 45.4102 -14.7461 L 42.4805 -33.6914 L 39.7461 -33.6914 C 38.4277 -33.6914 37.4023 -34.7656 37.4023 -36.084 Z M 58.6426 -38.4277 L 60.791 -38.4277 L 59.7168 -46.0938 Z M 49.8047 -33.7891 L 50.7324 -24.6582 L 52.002 -33.7891 Z M 67.334 -33.7891 L 68.7012 -24.4629 L 69.7266 -33.7891 Z"/>
  </g>
  <g id="Bold-M" transform="matrix(1 0 0 1 2279.5 1126)">
   <path d="M 60.4492 16.5039 C 88.8672 16.5039 112.207 -6.78711 112.207 -35.2051 C 112.207 -63.623 88.8672 -86.9629 60.4492 -86.9629 C 32.0312 -86.9629 8.74023 -63.623 8.74023 -35.2051 C 8.74023 -6.78711 32.0801 16.5039 60.4492 16.5039 Z M 37.8418 -35.9863 C 37.8418 -37.3535 38.7695 -38.2812 40.0879 -38.2812 L 41.8457 -38.2812 L 39.6973 -52.4902 C 39.5996 -53.3691 39.502 -53.9551 39.502 -54.5898 C 39.502 -57.2754 41.3574 -59.0332 44.043 -59.0332 C 46.582 -59.0332 48.4863 -57.5195 48.7305 -54.9805 L 50.4395 -38.2812 L 53.125 -38.2812 L 55.5176 -54.7852 C 55.9082 -57.4219 57.8125 -59.0332 60.3516 -59.0332 C 62.8418 -59.0332 64.8438 -57.4219 65.1855 -54.834 L 67.5781 -38.2812 L 70.3613 -38.2812 L 72.1191 -54.9805 C 72.3633 -57.5195 74.2188 -59.082 76.7578 -59.082 C 79.4434 -59.082 81.2988 -57.3242 81.2988 -54.6387 C 81.2988 -54.1504 81.2012 -53.418 81.1035 -52.6367 L 78.9062 -38.2812 L 80.7617 -38.2812 C 82.1289 -38.2812 83.0078 -37.3535 83.0078 -35.9863 C 83.0078 -34.7168 82.1289 -33.7402 80.7617 -33.7402 L 78.2227 -33.7402 L 75.4395 -15.625 C 75 -12.6465 72.8516 -10.791 70.0195 -10.791 C 67.1387 -10.791 64.9414 -12.6465 64.502 -15.6738 L 61.8652 -33.7402 L 58.9844 -33.7402 L 56.3477 -15.6738 C 55.957 -12.5977 53.7109 -10.791 50.8789 -10.791 C 47.998 -10.791 45.8008 -12.6465 45.3125 -15.625 L 42.5781 -33.6914 L 40.0879 -33.6914 C 38.7695 -33.6914 37.8418 -34.7168 37.8418 -35.9863 Z M 59.5215 -38.2812 L 61.2793 -38.2812 L 60.4492 -44.5801 Z M 50.7812 -33.7402 L 51.5137 -26.2695 L 52.5879 -33.7402 Z M 68.1641 -33.7402 L 69.2383 -26.123 L 70.0684 -33.7402 Z"/>
  </g>
  <g id="Heavy-M" transform="matrix(1 0 0 1 2575.19 1126)">
   <path d="M 61.4746 17.5781 C 90.5273 17.5781 114.258 -6.15234 114.258 -35.2051 C 114.258 -64.2578 90.5273 -87.9883 61.4746 -87.9883 C 32.4219 -87.9883 8.74023 -64.2578 8.74023 -35.2051 C 8.74023 -6.15234 32.4707 17.5781 61.4746 17.5781 Z M 38.4277 -35.8398 C 38.4277 -37.1582 39.3066 -37.9883 40.5762 -37.9883 L 42.0898 -37.9883 L 40.0879 -51.416 C 39.9414 -52.4414 39.8926 -53.0762 39.8926 -53.7598 C 39.8926 -56.9336 41.9922 -59.0332 45.1172 -59.0332 C 48.1445 -59.0332 50.3418 -57.1777 50.5371 -54.1992 L 52.002 -37.9883 L 53.8574 -37.9883 L 55.957 -54.248 C 56.3965 -57.1777 58.4961 -59.0332 61.377 -59.0332 C 64.209 -59.0332 66.3574 -57.1777 66.748 -54.248 L 68.8965 -38.0371 L 70.8008 -38.0371 L 72.2656 -54.1992 C 72.4609 -57.1777 74.6094 -59.0332 77.6367 -59.0332 C 80.8105 -59.0332 82.8613 -56.9336 82.8613 -53.7598 C 82.8613 -53.3203 82.8125 -52.3926 82.7148 -51.4648 L 80.6641 -38.0371 L 82.3242 -38.0371 C 83.6426 -38.0371 84.4727 -37.1582 84.4727 -35.8887 C 84.4727 -34.668 83.6426 -33.6914 82.3242 -33.6914 L 80.0293 -33.6914 L 77.5391 -16.8945 C 77.002 -13.4277 74.5117 -11.1816 71.0938 -11.1816 C 67.7246 -11.1816 65.0879 -13.4277 64.6484 -16.9922 L 62.4023 -33.6914 L 60.4492 -33.6914 L 58.252 -16.9922 C 57.7637 -13.4277 55.1758 -11.1816 51.8066 -11.1816 C 48.3398 -11.1816 45.752 -13.4277 45.2148 -16.8945 L 42.7246 -33.6914 L 40.5762 -33.6914 C 39.3066 -33.6914 38.4277 -34.6191 38.4277 -35.8398 Z M 60.8398 -37.9883 L 61.9629 -37.9883 L 61.4258 -42.4316 Z M 52.2461 -33.7402 L 52.6855 -28.5645 L 53.3691 -33.7402 Z M 69.3359 -33.7402 L 70.0195 -28.5156 L 70.5566 -33.7402 Z"/>
  </g>
  <g id="Black-M" transform="matrix(1 0 0 1 2871 1126)">
   <path d="M 62.4023 18.457 C 91.9922 18.457 116.064 -5.61523 116.064 -35.2051 C 116.064 -64.7949 91.9922 -88.8672 62.4023 -88.8672 C 32.8125 -88.8672 8.74023 -64.7949 8.74023 -35.2051 C 8.74023 -5.61523 32.8125 18.457 62.4023 18.457 Z M 38.9648 -35.7422 C 38.9648 -36.9629 39.7461 -37.793 41.0156 -37.793 L 42.2852 -37.793 L 40.4297 -50.4395 C 40.2832 -51.6113 40.2344 -52.2949 40.2344 -53.0273 C 40.2344 -56.5918 42.5781 -58.9844 46.0938 -58.9844 C 49.5605 -58.9844 52.002 -56.8359 52.1973 -53.5156 L 53.418 -37.793 L 54.541 -37.793 L 56.3965 -53.7598 C 56.8359 -56.9336 59.082 -58.9844 62.2559 -58.9844 C 65.4297 -58.9844 67.7246 -56.9336 68.1152 -53.7598 L 70.0195 -37.793 L 71.1426 -37.793 L 72.3633 -53.5156 C 72.5586 -56.8359 74.9512 -58.9844 78.418 -58.9844 C 81.9824 -58.9844 84.3262 -56.5918 84.3262 -52.9785 C 84.3262 -52.5879 84.2285 -51.5137 84.1309 -50.4395 L 82.2754 -37.793 L 83.7402 -37.793 C 84.9609 -37.793 85.791 -36.9629 85.791 -35.7422 C 85.791 -34.5703 84.9609 -33.6914 83.7402 -33.6914 L 81.6406 -33.6914 L 79.3945 -18.0664 C 78.8086 -14.1113 75.9766 -11.5234 72.0703 -11.5234 C 68.2129 -11.5234 65.2832 -14.1602 64.7461 -18.1641 L 62.9395 -33.6914 L 61.7676 -33.6914 L 59.9121 -18.1641 C 59.4238 -14.1602 56.4453 -11.5234 52.5879 -11.5234 C 48.6328 -11.5234 45.752 -14.1113 45.1172 -18.0664 L 42.8711 -33.6914 L 41.0156 -33.6914 C 39.7461 -33.6914 38.9648 -34.5703 38.9648 -35.7422 Z M 61.9629 -37.793 L 62.5488 -37.793 L 62.3535 -40.4785 Z M 53.5156 -33.6914 L 53.7598 -30.6641 L 54.1016 -33.6914 Z M 70.3613 -33.6914 L 70.752 -30.6641 L 71.0449 -33.6914 Z"/>
  </g>
  <g id="Ultralight-L" transform="matrix(1 0 0 1 487.641 1556)">
   <path d="M 72.0703 25.7324 C 105.566 25.7324 132.91 -1.61133 132.91 -35.1074 C 132.91 -68.5547 105.566 -95.8984 72.0703 -95.8984 C 38.623 -95.8984 11.2793 -68.5547 11.2793 -35.1074 C 11.2793 -1.61133 38.623 25.7324 72.0703 25.7324 Z M 49.4629 -35.4004 C 49.4629 -36.1816 50.0488 -36.8652 51.123 -36.8652 L 53.8086 -36.8652 L 50.4395 -59.668 C 50.293 -60.1562 50.1953 -60.6934 50.1953 -60.8887 C 50.1953 -61.6211 50.8301 -62.207 51.6602 -62.207 C 52.4902 -62.207 53.0273 -61.6211 53.1738 -60.7422 L 56.6895 -36.8652 L 64.9902 -36.8652 L 70.7031 -61.0352 C 70.8496 -61.6211 71.4355 -62.0117 72.0703 -62.0117 C 72.7539 -62.0117 73.3398 -61.6211 73.4863 -61.0352 L 79.1992 -36.8652 L 87.3535 -36.8652 L 90.8691 -60.6445 C 91.0156 -61.6699 91.6504 -62.1094 92.4316 -62.1094 C 93.2617 -62.1094 93.8477 -61.5234 93.8477 -60.791 C 93.8477 -60.7422 93.8965 -60.7422 93.7988 -60.0586 L 90.332 -36.8652 L 92.9688 -36.8652 C 93.9941 -36.8652 94.5801 -36.1816 94.5801 -35.4004 C 94.5801 -34.5215 93.9941 -33.8867 92.9688 -33.8867 L 89.8926 -33.8867 L 85.9863 -7.66602 C 85.8398 -6.98242 85.1562 -6.5918 84.5703 -6.5918 C 83.6426 -6.5918 83.2031 -7.08008 83.1055 -7.61719 L 76.8066 -33.8867 L 67.1387 -33.8867 L 60.8887 -7.51953 C 60.7422 -6.98242 60.2051 -6.5918 59.4727 -6.5918 C 58.7402 -6.5918 58.2031 -7.03125 58.1055 -7.76367 L 54.248 -33.8867 L 51.123 -33.8867 C 50.0488 -33.8867 49.4629 -34.5215 49.4629 -35.4004 Z M 67.9199 -36.8652 L 76.0254 -36.8652 L 71.9727 -53.8086 Z M 57.1289 -33.8867 L 59.8145 -15.7715 L 64.209 -33.8867 Z M 79.9805 -33.8867 L 84.3262 -15.918 L 86.9141 -33.8867 Z"/>
  </g>
  <g id="Thin-L" transform="matrix(1 0 0 1 783.717 1556)">
   <path d="M 72.7051 26.3184 C 106.494 26.3184 134.131 -1.36719 134.131 -35.1074 C 134.131 -68.8965 106.445 -96.582 72.7051 -96.582 C 38.916 -96.582 11.2793 -68.8965 11.2793 -35.1074 C 11.2793 -1.36719 38.916 26.3184 72.7051 26.3184 Z M 49.0723 -35.5957 C 49.0723 -36.6211 49.8047 -37.4023 51.0254 -37.4023 L 53.7598 -37.4023 L 50.3906 -59.7656 C 50.2441 -60.2539 50.1465 -60.8398 50.1465 -61.1328 C 50.1465 -62.1582 50.9766 -62.8906 52.0996 -62.8906 C 53.1738 -62.8906 53.9551 -62.207 54.1016 -61.084 L 57.5195 -37.4023 L 65.332 -37.4023 L 70.6543 -61.1328 C 70.8496 -62.1582 71.7285 -62.7441 72.7051 -62.7441 C 73.6328 -62.7441 74.5117 -62.1582 74.707 -61.1816 L 80.0781 -37.4023 L 87.793 -37.4023 L 91.2109 -61.0352 C 91.4062 -62.2559 92.2363 -62.8418 93.2129 -62.8418 C 94.3359 -62.8418 95.166 -62.1094 95.166 -61.084 C 95.166 -60.9375 95.166 -60.791 95.0684 -60.1562 L 91.6504 -37.4023 L 94.2871 -37.4023 C 95.5078 -37.4023 96.2402 -36.6211 96.2402 -35.6445 C 96.2402 -34.5703 95.5078 -33.7891 94.2871 -33.7891 L 91.0645 -33.7891 L 87.1094 -7.51953 C 86.9629 -6.44531 86.0352 -5.85938 85.1562 -5.85938 C 83.9355 -5.85938 83.252 -6.54297 83.0566 -7.4707 L 77.0996 -33.7891 L 68.1152 -33.7891 L 62.207 -7.37305 C 62.0117 -6.44531 61.2305 -5.85938 60.2051 -5.85938 C 59.1797 -5.85938 58.3984 -6.54297 58.2031 -7.61719 L 54.2969 -33.7402 L 51.0254 -33.7402 C 49.8047 -33.7402 49.0723 -34.5703 49.0723 -35.5957 Z M 68.9941 -37.4023 L 76.2695 -37.4023 L 72.6074 -53.5645 Z M 58.0566 -33.7891 L 60.498 -16.1621 L 64.502 -33.7891 Z M 80.9082 -33.7891 L 84.9121 -16.2109 L 87.3047 -33.7891 Z"/>
  </g>
  <g id="Light-L" transform="matrix(1 0 0 1 1079.21 1556)">
   <path d="M 73.9258 27.4902 C 108.301 27.4902 136.572 -0.830078 136.572 -35.1562 C 136.572 -69.5312 108.252 -97.8516 73.877 -97.8516 C 39.5508 -97.8516 11.2793 -69.5312 11.2793 -35.1562 C 11.2793 -0.830078 39.5508 27.4902 73.9258 27.4902 Z M 48.3398 -35.9863 C 48.3398 -37.4023 49.3652 -38.4277 50.8301 -38.4277 L 53.6621 -38.4277 L 50.3418 -59.9609 C 50.1953 -60.5469 50.0977 -61.1328 50.0977 -61.6211 C 50.0977 -63.2324 51.3184 -64.2578 53.0273 -64.2578 C 54.541 -64.2578 55.7129 -63.3301 55.957 -61.7188 L 59.1309 -38.4277 L 65.9668 -38.4277 L 70.6055 -61.4258 C 70.8984 -63.1836 72.2656 -64.1602 73.877 -64.1602 C 75.4395 -64.1602 76.8555 -63.1836 77.1484 -61.4746 L 81.7871 -38.4277 L 88.6719 -38.4277 L 91.8945 -61.7188 C 92.1387 -63.4277 93.3594 -64.2578 94.8242 -64.2578 C 96.4355 -64.2578 97.6562 -63.2324 97.6562 -61.6699 C 97.6562 -61.2793 97.6074 -60.9863 97.5586 -60.3516 L 94.1895 -38.4277 L 96.9238 -38.4277 C 98.4375 -38.4277 99.4141 -37.4023 99.4141 -36.0352 C 99.4141 -34.668 98.4375 -33.5938 96.9238 -33.5938 L 93.4082 -33.5938 L 89.3555 -7.22656 C 89.1113 -5.46875 87.7441 -4.54102 86.2305 -4.54102 C 84.5215 -4.54102 83.3008 -5.46875 83.0078 -7.17773 L 77.6855 -33.5938 L 70.0684 -33.5938 L 64.7461 -7.08008 C 64.502 -5.41992 63.2324 -4.54102 61.5723 -4.54102 C 60.0098 -4.54102 58.7402 -5.51758 58.4473 -7.27539 L 54.3945 -33.5449 L 50.8301 -33.5449 C 49.3652 -33.5449 48.3398 -34.6191 48.3398 -35.9863 Z M 70.9961 -38.4277 L 76.7578 -38.4277 L 73.877 -53.1738 Z M 59.7656 -33.5938 L 61.8652 -16.9434 L 65.0879 -33.5938 Z M 82.7148 -33.5938 L 85.9863 -16.7969 L 88.1348 -33.5938 Z"/>
  </g>
  <g id="Regular-L" transform="matrix(1 0 0 1 1374.99 1556)">
   <path d="M 74.8535 28.3691 C 109.668 28.3691 138.428 -0.390625 138.428 -35.2051 C 138.428 -70.0195 109.619 -98.7793 74.8047 -98.7793 C 39.9902 -98.7793 11.2793 -70.0195 11.2793 -35.2051 C 11.2793 -0.390625 40.0391 28.3691 74.8535 28.3691 Z M 47.7539 -36.2793 C 47.7539 -37.9883 49.0234 -39.209 50.6836 -39.209 L 53.5645 -39.209 L 50.3418 -60.1074 C 50.1465 -60.7422 50.0488 -61.377 50.0488 -62.0117 C 50.0488 -64.0137 51.6113 -65.2832 53.7109 -65.2832 C 55.5664 -65.2832 57.0801 -64.209 57.3242 -62.207 L 60.3027 -39.209 L 66.4062 -39.209 L 70.5566 -61.6211 C 70.8984 -63.9648 72.6562 -65.2344 74.7559 -65.2344 C 76.8066 -65.2344 78.6621 -63.9648 79.0039 -61.6699 L 83.1055 -39.2578 L 89.3555 -39.2578 L 92.4316 -62.2559 C 92.6758 -64.3066 94.2383 -65.332 95.9961 -65.332 C 98.0469 -65.332 99.5605 -64.0625 99.5605 -62.1094 C 99.5605 -61.5234 99.4629 -61.1328 99.4141 -60.4492 L 96.0938 -39.2578 L 98.877 -39.2578 C 100.635 -39.2578 101.807 -38.0371 101.807 -36.3281 C 101.807 -34.7656 100.635 -33.4473 98.877 -33.4473 L 95.166 -33.4473 L 91.0645 -6.98242 C 90.7227 -4.73633 89.0137 -3.51562 87.0605 -3.51562 C 84.9121 -3.51562 83.3496 -4.6875 82.959 -6.93359 L 78.0762 -33.4473 L 71.4844 -33.4473 L 66.6992 -6.88477 C 66.3574 -4.63867 64.6973 -3.51562 62.6465 -3.51562 C 60.6445 -3.51562 58.9844 -4.78516 58.6426 -6.98242 L 54.4922 -33.3984 L 50.6836 -33.3984 C 49.0234 -33.3984 47.7539 -34.7168 47.7539 -36.2793 Z M 72.5586 -39.209 L 77.1484 -39.209 L 74.8047 -52.832 Z M 61.084 -33.4961 L 62.8906 -17.5293 L 65.5273 -33.4961 Z M 84.082 -33.4961 L 86.8164 -17.2363 L 88.7207 -33.4961 Z"/>
  </g>
  <g id="Medium-L" transform="matrix(1 0 0 1 1670.9 1556)">
   <path d="M 75.6348 29.1992 C 110.938 29.1992 140.039 0.0488281 140.039 -35.2051 C 140.039 -70.459 110.889 -99.6094 75.5859 -99.6094 C 40.332 -99.6094 11.2793 -70.459 11.2793 -35.2051 C 11.2793 0.0488281 40.3809 29.1992 75.6348 29.1992 Z M 48.0469 -36.2793 C 48.0469 -37.9883 49.2676 -39.1602 50.9277 -39.1602 L 53.6621 -39.1602 L 50.5371 -59.4727 C 50.3906 -60.2051 50.293 -60.8398 50.293 -61.5234 C 50.293 -63.916 52.0508 -65.4785 54.4922 -65.4785 C 56.6895 -65.4785 58.4961 -64.1602 58.7402 -61.8164 L 61.5234 -39.1602 L 66.9922 -39.1602 L 70.8008 -61.3281 C 71.1914 -63.916 73.1445 -65.4297 75.5371 -65.4297 C 77.8809 -65.4297 79.9316 -63.916 80.3223 -61.377 L 84.1797 -39.209 L 89.7461 -39.209 L 92.5781 -61.8652 C 92.8223 -64.209 94.6289 -65.4785 96.7773 -65.4785 C 99.2188 -65.4785 100.928 -64.0137 100.928 -61.6211 C 100.928 -61.0352 100.83 -60.498 100.732 -59.7656 L 97.5586 -39.209 L 100.244 -39.209 C 101.953 -39.209 103.125 -37.9883 103.125 -36.3281 C 103.125 -34.7168 101.953 -33.3984 100.244 -33.3984 L 96.6309 -33.3984 L 92.6758 -7.71484 C 92.2852 -5.07812 90.2832 -3.56445 87.8906 -3.56445 C 85.3516 -3.56445 83.4473 -5.0293 83.0566 -7.71484 L 78.5156 -33.3984 L 72.6562 -33.3984 L 68.2129 -7.71484 C 67.8223 -5.0293 65.8691 -3.56445 63.4277 -3.56445 C 60.9375 -3.56445 59.0332 -5.12695 58.5938 -7.76367 L 54.5898 -33.3496 L 50.9277 -33.3496 C 49.2676 -33.3496 48.0469 -34.668 48.0469 -36.2793 Z M 73.6328 -39.1602 L 77.6367 -39.1602 L 75.6348 -51.416 Z M 62.207 -33.4473 L 63.7695 -19.0918 L 66.1133 -33.4473 Z M 85.0586 -33.4473 L 87.4512 -18.7988 L 89.1602 -33.4473 Z"/>
  </g>
  <g id="Semibold-L" transform="matrix(1 0 0 1 1967 1556)">
   <path d="M 76.2695 29.7852 C 111.914 29.7852 141.26 0.439453 141.26 -35.2051 C 141.26 -70.8496 111.865 -100.244 76.2207 -100.244 C 40.5762 -100.244 11.2793 -70.8496 11.2793 -35.2051 C 11.2793 0.439453 40.625 29.7852 76.2695 29.7852 Z M 48.2422 -36.2793 C 48.2422 -37.9395 49.4629 -39.1602 51.1719 -39.1602 L 53.7598 -39.1602 L 50.7324 -58.9355 C 50.5859 -59.8145 50.4395 -60.4492 50.4395 -61.1816 C 50.4395 -63.8672 52.3926 -65.5762 55.127 -65.5762 C 57.6172 -65.5762 59.5703 -64.1113 59.8145 -61.5234 L 62.4512 -39.1602 L 67.3828 -39.1602 L 71.0449 -61.084 C 71.4355 -63.916 73.5352 -65.5273 76.1719 -65.5273 C 78.7109 -65.5273 80.9082 -63.916 81.2988 -61.1328 L 84.9609 -39.209 L 89.9902 -39.209 L 92.7246 -61.5723 C 92.9688 -64.1602 94.9219 -65.625 97.3633 -65.625 C 100.049 -65.625 101.953 -63.916 101.953 -61.2793 C 101.953 -60.6934 101.855 -60.0098 101.758 -59.2285 L 98.6816 -39.209 L 101.27 -39.209 C 102.979 -39.209 104.199 -37.9883 104.199 -36.2793 C 104.199 -34.668 102.979 -33.3496 101.27 -33.3496 L 97.7539 -33.3496 L 93.8965 -8.30078 C 93.457 -5.37109 91.2598 -3.61328 88.5254 -3.61328 C 85.6934 -3.61328 83.5449 -5.32227 83.1055 -8.30078 L 78.8574 -33.3496 L 73.5352 -33.3496 L 69.3848 -8.30078 C 68.9453 -5.27344 66.7969 -3.61328 64.0137 -3.61328 C 61.1816 -3.61328 59.0332 -5.37109 58.5449 -8.30078 L 54.6875 -33.3496 L 51.1719 -33.3496 C 49.4629 -33.3496 48.2422 -34.6191 48.2422 -36.2793 Z M 74.4629 -39.1602 L 78.0273 -39.1602 L 76.2207 -50.3418 Z M 63.0859 -33.3984 L 64.502 -20.3125 L 66.5527 -33.3984 Z M 85.791 -33.3984 L 87.9395 -20.0195 L 89.502 -33.3984 Z"/>
  </g>
  <g id="Bold-L" transform="matrix(1 0 0 1 2262.9 1556)">
   <path d="M 77.0996 30.6152 C 113.184 30.6152 142.92 0.878906 142.92 -35.2051 C 142.92 -71.3379 113.135 -101.025 77.0508 -101.025 C 40.918 -101.025 11.2793 -71.3379 11.2793 -35.2051 C 11.2793 0.878906 40.9668 30.6152 77.0996 30.6152 Z M 48.5352 -36.2305 C 48.5352 -37.9395 49.707 -39.1602 51.416 -39.1602 L 53.9062 -39.1602 L 50.9766 -58.3008 C 50.7812 -59.2285 50.6836 -59.9609 50.6836 -60.7422 C 50.6836 -63.7695 52.832 -65.7715 55.9082 -65.7715 C 58.7891 -65.7715 60.9863 -64.0137 61.2305 -61.1328 L 63.6719 -39.1602 L 67.9199 -39.1602 L 71.2891 -60.791 C 71.7773 -63.8672 74.0234 -65.7227 76.9531 -65.7227 C 79.834 -65.7227 82.1777 -63.8672 82.6172 -60.8398 L 85.9863 -39.1602 L 90.3809 -39.1602 L 92.8711 -61.1816 C 93.1641 -64.0625 95.3125 -65.7715 98.1445 -65.7715 C 101.221 -65.7715 103.32 -63.8184 103.32 -60.8398 C 103.32 -60.2051 103.223 -59.4238 103.125 -58.4961 L 100.146 -39.1602 L 102.637 -39.1602 C 104.346 -39.1602 105.518 -37.9883 105.518 -36.2793 C 105.518 -34.6191 104.346 -33.3496 102.637 -33.3496 L 99.2188 -33.3496 L 95.5078 -9.08203 C 95.0195 -5.71289 92.5293 -3.66211 89.3555 -3.66211 C 86.1328 -3.66211 83.6426 -5.66406 83.1543 -9.13086 L 79.2969 -33.3496 L 74.7559 -33.3496 L 70.9473 -9.08203 C 70.459 -5.66406 67.9688 -3.66211 64.7461 -3.66211 C 61.5234 -3.66211 59.082 -5.71289 58.5449 -9.08203 L 54.7852 -33.3008 L 51.416 -33.3008 C 49.707 -33.3008 48.5352 -34.5703 48.5352 -36.2305 Z M 75.5371 -39.1602 L 78.5156 -39.1602 L 77.0508 -48.9258 Z M 64.2578 -33.3496 L 65.4297 -21.875 L 67.1387 -33.3496 Z M 86.8164 -33.3496 L 88.623 -21.6309 L 89.8926 -33.3496 Z"/>
  </g>
  <g id="Heavy-L" transform="matrix(1 0 0 1 2558.42 1556)">
   <path d="M 78.2715 31.7871 C 115.039 31.7871 145.264 1.61133 145.264 -35.2051 C 145.264 -72.0215 115.039 -102.197 78.2227 -102.197 C 41.4551 -102.197 11.2793 -72.0215 11.2793 -35.2051 C 11.2793 1.61133 41.4551 31.7871 78.2715 31.7871 Z M 48.9258 -36.1816 C 48.9258 -37.9395 50.0977 -39.1113 51.8066 -39.1113 L 54.0527 -39.1113 L 51.3184 -57.3242 C 51.123 -58.4473 51.0254 -59.2285 51.0254 -60.0586 C 51.0254 -63.6719 53.4668 -66.0156 57.0801 -66.0156 C 60.4492 -66.0156 62.9883 -63.9648 63.2812 -60.5469 L 65.4297 -39.1113 L 68.75 -39.1113 L 71.7285 -60.3516 C 72.2168 -63.8672 74.7559 -65.9668 78.125 -65.9668 C 81.3965 -65.9668 84.0332 -63.8672 84.5215 -60.4004 L 87.5488 -39.1602 L 90.918 -39.1602 L 93.1152 -60.5957 C 93.4082 -63.9648 95.8984 -66.0156 99.2676 -66.0156 C 102.832 -66.0156 105.273 -63.7207 105.273 -60.1562 C 105.273 -59.5215 105.176 -58.4961 105.029 -57.4707 L 102.246 -39.1602 L 104.59 -39.1602 C 106.348 -39.1602 107.52 -37.9395 107.52 -36.2305 C 107.52 -34.5703 106.348 -33.3008 104.59 -33.3008 L 101.367 -33.3008 L 97.8516 -10.1562 C 97.2656 -6.20117 94.3848 -3.71094 90.5762 -3.71094 C 86.7676 -3.71094 83.8379 -6.20117 83.3008 -10.2539 L 79.9316 -33.3008 L 76.4648 -33.3008 L 73.1445 -10.2539 C 72.6074 -6.20117 69.6777 -3.71094 65.8691 -3.71094 C 62.0117 -3.71094 59.082 -6.20117 58.4961 -10.2051 L 54.9805 -33.252 L 51.8066 -33.252 C 50.0977 -33.252 48.9258 -34.5215 48.9258 -36.1816 Z M 77.1484 -39.1113 L 79.248 -39.1113 L 78.2227 -46.875 Z M 65.918 -33.3008 L 66.748 -24.1699 L 68.0176 -33.3008 Z M 88.2324 -33.3008 L 89.5508 -23.9746 L 90.5273 -33.3008 Z"/>
  </g>
  <g id="Black-L" transform="matrix(1 0 0 1 2854.08 1556)">
   <path d="M 79.2969 32.8613 C 116.748 32.8613 147.363 2.19727 147.363 -35.2051 C 147.363 -72.6074 116.699 -103.271 79.2969 -103.271 C 41.8945 -103.271 11.2793 -72.6074 11.2793 -35.2051 C 11.2793 2.19727 41.8945 32.8613 79.2969 32.8613 Z M 49.2676 -36.1328 C 49.2676 -37.9395 50.4395 -39.1113 52.1973 -39.1113 L 54.1992 -39.1113 L 51.6113 -56.4453 C 51.4648 -57.7637 51.3184 -58.5938 51.3184 -59.4727 C 51.3184 -63.5254 54.0527 -66.2109 58.1055 -66.2109 C 62.0117 -66.2109 64.8438 -63.8672 65.0879 -60.0586 L 66.9922 -39.1113 L 69.4336 -39.1113 L 72.0703 -59.9609 C 72.6074 -63.8184 75.3906 -66.2109 79.1504 -66.2109 C 82.8613 -66.2109 85.6934 -63.8184 86.1816 -60.0098 L 88.8672 -39.1113 L 91.4062 -39.1113 L 93.3594 -60.0586 C 93.6035 -63.8672 96.3867 -66.2598 100.244 -66.2598 C 104.346 -66.2598 107.031 -63.5742 107.031 -59.5215 C 107.031 -58.8867 106.934 -57.7148 106.787 -56.543 L 104.15 -39.1113 L 106.348 -39.1113 C 108.105 -39.1113 109.277 -37.9395 109.277 -36.1816 C 109.277 -34.5215 108.105 -33.252 106.348 -33.252 L 103.271 -33.252 L 99.9512 -11.1816 C 99.2676 -6.64062 96.0449 -3.80859 91.6504 -3.80859 C 87.3535 -3.80859 83.9844 -6.68945 83.3984 -11.2793 L 80.5176 -33.252 L 77.9785 -33.252 L 75.1465 -11.2793 C 74.5605 -6.68945 71.1914 -3.80859 66.8457 -3.80859 C 62.4512 -3.80859 59.1309 -6.64062 58.3984 -11.1816 L 55.127 -33.2031 L 52.1973 -33.2031 C 50.4395 -33.2031 49.2676 -34.4727 49.2676 -36.1328 Z M 78.5645 -39.1113 L 79.8828 -39.1113 L 79.248 -45.0195 Z M 67.3828 -33.252 L 67.9688 -26.1719 L 68.7988 -33.252 Z M 89.502 -33.252 L 90.3809 -26.0254 L 91.1133 -33.252 Z"/>
  </g>
 </g>
</svg>
