<?xml version="1.0" encoding="UTF-8"?>
<!--Generator: Apple Native CoreSVG 123-->
<!DOCTYPE svg
PUBLIC "-//W3C//DTD SVG 1.1//EN"
       "http://www.w3.org/Graphics/SVG/1.1/DTD/svg11.dtd">
<svg version="1.1" xmlns="http://www.w3.org/2000/svg" xmlns:xlink="http://www.w3.org/1999/xlink" width="3300" height="2200">
 <!--glyph: "uni1005B5.medium", point size: 100.000000, font version: "Version 15.0d4e20", template writer version: "2"-->
 <g id="Notes">
  <rect height="2200" id="artboard" style="fill:white;opacity:1" width="3300" x="0" y="0"/>
  <line id="" style="fill:none;stroke:black;opacity:1;stroke-width:0.5;" x1="263" x2="3036" y1="292" y2="292"/>
  <text style="stroke:none;fill:black;font-family:-apple-system,&quot;SF Pro Display&quot;,&quot;SF Pro Text&quot;,Helvetica,sans-serif;font-weight:bold;" transform="matrix(1 0 0 1 263 322)">Weight/Scale Variations</text>
  <text style="stroke:none;fill:black;font-family:-apple-system,&quot;SF Pro Display&quot;,&quot;SF Pro Text&quot;,Helvetica,sans-serif;text-anchor:middle;" transform="matrix(1 0 0 1 559.711 322)">Ultralight</text>
  <text style="stroke:none;fill:black;font-family:-apple-system,&quot;SF Pro Display&quot;,&quot;SF Pro Text&quot;,Helvetica,sans-serif;text-anchor:middle;" transform="matrix(1 0 0 1 856.422 322)">Thin</text>
  <text style="stroke:none;fill:black;font-family:-apple-system,&quot;SF Pro Display&quot;,&quot;SF Pro Text&quot;,Helvetica,sans-serif;text-anchor:middle;" transform="matrix(1 0 0 1 1153.13 322)">Light</text>
  <text style="stroke:none;fill:black;font-family:-apple-system,&quot;SF Pro Display&quot;,&quot;SF Pro Text&quot;,Helvetica,sans-serif;text-anchor:middle;" transform="matrix(1 0 0 1 1449.84 322)">Regular</text>
  <text style="stroke:none;fill:black;font-family:-apple-system,&quot;SF Pro Display&quot;,&quot;SF Pro Text&quot;,Helvetica,sans-serif;text-anchor:middle;" transform="matrix(1 0 0 1 1746.56 322)">Medium</text>
  <text style="stroke:none;fill:black;font-family:-apple-system,&quot;SF Pro Display&quot;,&quot;SF Pro Text&quot;,Helvetica,sans-serif;text-anchor:middle;" transform="matrix(1 0 0 1 2043.27 322)">Semibold</text>
  <text style="stroke:none;fill:black;font-family:-apple-system,&quot;SF Pro Display&quot;,&quot;SF Pro Text&quot;,Helvetica,sans-serif;text-anchor:middle;" transform="matrix(1 0 0 1 2339.98 322)">Bold</text>
  <text style="stroke:none;fill:black;font-family:-apple-system,&quot;SF Pro Display&quot;,&quot;SF Pro Text&quot;,Helvetica,sans-serif;text-anchor:middle;" transform="matrix(1 0 0 1 2636.69 322)">Heavy</text>
  <text style="stroke:none;fill:black;font-family:-apple-system,&quot;SF Pro Display&quot;,&quot;SF Pro Text&quot;,Helvetica,sans-serif;text-anchor:middle;" transform="matrix(1 0 0 1 2933.4 322)">Black</text>
  <line id="" style="fill:none;stroke:black;opacity:1;stroke-width:0.5;" x1="263" x2="3036" y1="1903" y2="1903"/>
  <g id="" transform="matrix(1 0 0 1 263 1933)">
   <path d="M 9.24805 0.830078 C 13.5547 0.830078 17.1387 -2.74414 17.1387 -7.05078 C 17.1387 -11.3574 13.5449 -14.9316 9.23828 -14.9316 C 4.94141 -14.9316 1.36719 -11.3574 1.36719 -7.05078 C 1.36719 -2.74414 4.95117 0.830078 9.24805 0.830078 Z M 9.24805 -0.654297 C 5.70312 -0.654297 2.87109 -3.49609 2.87109 -7.05078 C 2.87109 -10.6055 5.69336 -13.4473 9.23828 -13.4473 C 12.793 -13.4473 15.6348 -10.6055 15.6445 -7.05078 C 15.6543 -3.49609 12.8027 -0.654297 9.24805 -0.654297 Z M 9.22852 -3.42773 C 9.69727 -3.42773 9.9707 -3.74023 9.9707 -4.25781 L 9.9707 -6.31836 L 12.1973 -6.31836 C 12.6953 -6.31836 13.0371 -6.57227 13.0371 -7.04102 C 13.0371 -7.51953 12.7148 -7.7832 12.1973 -7.7832 L 9.9707 -7.7832 L 9.9707 -10.0098 C 9.9707 -10.5273 9.69727 -10.8496 9.22852 -10.8496 C 8.75977 -10.8496 8.50586 -10.5078 8.50586 -10.0098 L 8.50586 -7.7832 L 6.29883 -7.7832 C 5.78125 -7.7832 5.44922 -7.51953 5.44922 -7.04102 C 5.44922 -6.57227 5.80078 -6.31836 6.29883 -6.31836 L 8.50586 -6.31836 L 8.50586 -4.25781 C 8.50586 -3.75977 8.75977 -3.42773 9.22852 -3.42773 Z"/>
  </g>
  <g id="" transform="matrix(1 0 0 1 281.506 1933)">
   <path d="M 11.709 2.91016 C 17.1484 2.91016 21.6699 -1.60156 21.6699 -7.05078 C 21.6699 -12.4902 17.1387 -17.0117 11.6992 -17.0117 C 6.25 -17.0117 1.74805 -12.4902 1.74805 -7.05078 C 1.74805 -1.60156 6.25977 2.91016 11.709 2.91016 Z M 11.709 1.25 C 7.09961 1.25 3.41797 -2.44141 3.41797 -7.05078 C 3.41797 -11.6504 7.08984 -15.3516 11.6992 -15.3516 C 16.2988 -15.3516 20 -11.6504 20.0098 -7.05078 C 20.0195 -2.44141 16.3086 1.25 11.709 1.25 Z M 11.6797 -2.41211 C 12.207 -2.41211 12.5195 -2.77344 12.5195 -3.33984 L 12.5195 -6.23047 L 15.5762 -6.23047 C 16.123 -6.23047 16.5039 -6.51367 16.5039 -7.03125 C 16.5039 -7.55859 16.1426 -7.86133 15.5762 -7.86133 L 12.5195 -7.86133 L 12.5195 -10.9277 C 12.5195 -11.5039 12.207 -11.8555 11.6797 -11.8555 C 11.1621 -11.8555 10.8789 -11.4844 10.8789 -10.9277 L 10.8789 -7.86133 L 7.83203 -7.86133 C 7.25586 -7.86133 6.89453 -7.55859 6.89453 -7.03125 C 6.89453 -6.51367 7.28516 -6.23047 7.83203 -6.23047 L 10.8789 -6.23047 L 10.8789 -3.33984 C 10.8789 -2.79297 11.1621 -2.41211 11.6797 -2.41211 Z"/>
  </g>
  <g id="" transform="matrix(1 0 0 1 304.914 1933)">
   <path d="M 14.9707 5.67383 C 21.9336 5.67383 27.6855 -0.078125 27.6855 -7.04102 C 27.6855 -14.0039 21.9238 -19.7559 14.9609 -19.7559 C 7.99805 -19.7559 2.25586 -14.0039 2.25586 -7.04102 C 2.25586 -0.078125 8.00781 5.67383 14.9707 5.67383 Z M 14.9707 3.85742 C 8.92578 3.85742 4.08203 -1.00586 4.08203 -7.04102 C 4.08203 -13.0762 8.91602 -17.9395 14.9609 -17.9395 C 20.9961 -17.9395 25.8594 -13.0762 25.8691 -7.04102 C 25.8789 -1.00586 21.0059 3.85742 14.9707 3.85742 Z M 14.9414 -1.06445 C 15.5176 -1.06445 15.8594 -1.45508 15.8594 -2.06055 L 15.8594 -6.13281 L 20.0977 -6.13281 C 20.6934 -6.13281 21.1133 -6.46484 21.1133 -7.02148 C 21.1133 -7.59766 20.7227 -7.93945 20.0977 -7.93945 L 15.8594 -7.93945 L 15.8594 -12.1875 C 15.8594 -12.8027 15.5176 -13.1934 14.9414 -13.1934 C 14.3848 -13.1934 14.0625 -12.7832 14.0625 -12.1875 L 14.0625 -7.93945 L 9.82422 -7.93945 C 9.20898 -7.93945 8.80859 -7.59766 8.80859 -7.02148 C 8.80859 -6.46484 9.23828 -6.13281 9.82422 -6.13281 L 14.0625 -6.13281 L 14.0625 -2.06055 C 14.0625 -1.47461 14.3848 -1.06445 14.9414 -1.06445 Z"/>
  </g>
  <text style="stroke:none;fill:black;font-family:-apple-system,&quot;SF Pro Display&quot;,&quot;SF Pro Text&quot;,Helvetica,sans-serif;font-weight:bold;" transform="matrix(1 0 0 1 263 1953)">Design Variations</text>
  <text style="stroke:none;fill:black;font-family:-apple-system,&quot;SF Pro Display&quot;,&quot;SF Pro Text&quot;,Helvetica,sans-serif;" transform="matrix(1 0 0 1 263 1971)">Symbols are supported in up to nine weights and three scales.</text>
  <text style="stroke:none;fill:black;font-family:-apple-system,&quot;SF Pro Display&quot;,&quot;SF Pro Text&quot;,Helvetica,sans-serif;" transform="matrix(1 0 0 1 263 1989)">For optimal layout with text and other symbols, vertically align</text>
  <text style="stroke:none;fill:black;font-family:-apple-system,&quot;SF Pro Display&quot;,&quot;SF Pro Text&quot;,Helvetica,sans-serif;" transform="matrix(1 0 0 1 263 2007)">symbols with the adjacent text.</text>
  <rect height="14" id="" style="fill:#00AEEF;stroke:none;opacity:0.4;" width="3" x="776" y="1919"/>
  <g id="" transform="matrix(1 0 0 1 779 1933)">
   <path d="M 10.5273 0 L 12.373 0 L 7.17773 -14.0918 L 5.43945 -14.0918 L 0.244141 0 L 2.08984 0 L 3.50586 -4.0332 L 9.11133 -4.0332 Z M 6.2793 -11.9531 L 6.33789 -11.9531 L 8.59375 -5.52734 L 4.02344 -5.52734 Z"/>
  </g>
  <rect height="14" id="" style="fill:#00AEEF;stroke:none;opacity:0.4;" width="3" x="791.617" y="1919"/>
  <text style="stroke:none;fill:black;font-family:-apple-system,&quot;SF Pro Display&quot;,&quot;SF Pro Text&quot;,Helvetica,sans-serif;font-weight:bold;" transform="matrix(1 0 0 1 776 1953)">Side Bearings</text>
  <text style="stroke:none;fill:black;font-family:-apple-system,&quot;SF Pro Display&quot;,&quot;SF Pro Text&quot;,Helvetica,sans-serif;" transform="matrix(1 0 0 1 776 1971)">Horizontal padding on the left and right side of each symbol</text>
  <text style="stroke:none;fill:black;font-family:-apple-system,&quot;SF Pro Display&quot;,&quot;SF Pro Text&quot;,Helvetica,sans-serif;" transform="matrix(1 0 0 1 776 1989)">can be adjusted by modifying the width of the blue rectangles.</text>
  <text style="stroke:none;fill:black;font-family:-apple-system,&quot;SF Pro Display&quot;,&quot;SF Pro Text&quot;,Helvetica,sans-serif;" transform="matrix(1 0 0 1 776 2007)">Modifications are automatically applied proportionally to all</text>
  <text style="stroke:none;fill:black;font-family:-apple-system,&quot;SF Pro Display&quot;,&quot;SF Pro Text&quot;,Helvetica,sans-serif;" transform="matrix(1 0 0 1 776 2025)">scales and weights.</text>
  <g id="" transform="matrix(1 0 0 1 1289 1933)">
   <path d="M 2.96875 2.35352 L 3.80859 3.19336 C 4.84375 4.22852 6.12305 4.15039 7.19727 2.97852 L 16.1621 -6.82617 C 16.5527 -6.74805 16.9629 -6.8457 17.4902 -7.02148 C 18.1738 -7.25586 18.2715 -7.25586 18.3887 -7.13867 C 18.5352 -7.01172 18.4863 -6.89453 18.2422 -6.25 C 17.8809 -5.33203 17.8125 -4.79492 18.5547 -4.02344 L 19.4238 -3.13477 C 20.2734 -2.24609 21.3281 -2.26562 22.2168 -3.14453 L 25.0586 -5.97656 C 25.9473 -6.86523 25.957 -7.92969 25.0781 -8.7793 L 24.1797 -9.64844 C 23.4082 -10.4004 22.8711 -10.3516 21.9629 -9.98047 C 21.3184 -9.72656 21.2012 -9.6875 21.0645 -9.81445 C 20.9375 -9.93164 20.9473 -10.0391 21.1816 -10.7129 C 21.5332 -11.6895 21.5723 -12.2852 20.752 -13.0957 L 19.3359 -14.5117 C 15.1953 -18.6133 11.2305 -18.7402 7.65625 -15.4395 C 7.08008 -14.9023 6.99219 -14.1504 7.53906 -13.6133 L 7.79297 -13.3594 C 8.22266 -12.9297 8.86719 -12.8418 9.41406 -13.1152 C 11.0645 -13.9453 12.2559 -14.0234 13.457 -12.9785 L 13.0273 -11.416 C 12.8516 -10.8008 12.793 -10.3418 12.9199 -9.93164 L 3.18359 -1.04492 C 2.02148 0.0292969 1.93359 1.32812 2.96875 2.35352 Z M 8.96484 -14.4922 C 8.89648 -14.5703 8.86719 -14.6582 8.99414 -14.7559 C 11.709 -17.2852 15.0391 -16.8457 18.3496 -13.5254 L 19.6973 -12.168 C 20.0879 -11.7773 20.0977 -11.582 19.8828 -10.8691 C 19.6582 -10.127 19.502 -9.53125 20.1465 -8.88672 C 20.8105 -8.22266 21.2891 -8.41797 22.207 -8.63281 C 22.9004 -8.79883 23.0664 -8.79883 23.4473 -8.41797 L 24.0918 -7.77344 C 24.4043 -7.48047 24.4141 -7.32422 24.0723 -6.97266 L 21.2207 -4.13086 C 20.8887 -3.79883 20.7227 -3.79883 20.4297 -4.10156 L 19.7852 -4.75586 C 19.4141 -5.13672 19.4141 -5.30273 19.5801 -6.01562 C 19.7852 -6.88477 19.9805 -7.38281 19.3262 -8.04688 C 18.6719 -8.7207 18.0762 -8.57422 17.3438 -8.33008 C 16.5625 -8.06641 16.3281 -8.06641 15.8984 -8.49609 L 14.6094 -9.78516 C 14.1699 -10.2246 14.1309 -10.4395 14.2676 -10.9082 L 15.0293 -13.3984 C 13.3887 -15.2832 11.4941 -15.5566 9.20898 -14.4434 C 9.11133 -14.3945 9.04297 -14.4141 8.96484 -14.4922 Z M 3.96484 1.36719 C 3.52539 0.927734 3.54492 0.537109 4.14062 -0.00976562 L 13.7402 -8.81836 L 15 -7.55859 L 6.17188 2.02148 C 5.625 2.60742 5.24414 2.64648 4.79492 2.19727 Z"/>
  </g>
  <text style="stroke:none;fill:black;font-family:-apple-system,&quot;SF Pro Display&quot;,&quot;SF Pro Text&quot;,Helvetica,sans-serif;font-weight:bold;" transform="matrix(1 0 0 1 1289 1953)">Exporting</text>
  <text style="stroke:none;fill:black;font-family:-apple-system,&quot;SF Pro Display&quot;,&quot;SF Pro Text&quot;,Helvetica,sans-serif;" transform="matrix(1 0 0 1 1289 1971)">Symbols should be outlined when exporting to ensure the</text>
  <text style="stroke:none;fill:black;font-family:-apple-system,&quot;SF Pro Display&quot;,&quot;SF Pro Text&quot;,Helvetica,sans-serif;" transform="matrix(1 0 0 1 1289 1989)">design is preserved when submitting to Xcode.</text>
  <text id="template-version" style="stroke:none;fill:black;font-family:-apple-system,&quot;SF Pro Display&quot;,&quot;SF Pro Text&quot;,Helvetica,sans-serif;text-anchor:end;" transform="matrix(1 0 0 1 3036 1933)">Template v.0.1</text>
  <text style="stroke:none;fill:black;font-family:-apple-system,&quot;SF Pro Display&quot;,&quot;SF Pro Text&quot;,Helvetica,sans-serif;text-anchor:end;" transform="matrix(1 0 0 1 3036 1951)">Generated from wonsign.circle</text>
  <text style="stroke:none;fill:black;font-family:-apple-system,&quot;SF Pro Display&quot;,&quot;SF Pro Text&quot;,Helvetica,sans-serif;text-anchor:end;" transform="matrix(1 0 0 1 3036 1969)">Typeset at 100 points</text>
  <text style="stroke:none;fill:black;font-family:-apple-system,&quot;SF Pro Display&quot;,&quot;SF Pro Text&quot;,Helvetica,sans-serif;" transform="matrix(1 0 0 1 263 726)">Small</text>
  <text style="stroke:none;fill:black;font-family:-apple-system,&quot;SF Pro Display&quot;,&quot;SF Pro Text&quot;,Helvetica,sans-serif;" transform="matrix(1 0 0 1 263 1156)">Medium</text>
  <text style="stroke:none;fill:black;font-family:-apple-system,&quot;SF Pro Display&quot;,&quot;SF Pro Text&quot;,Helvetica,sans-serif;" transform="matrix(1 0 0 1 263 1586)">Large</text>
 </g>
 <g id="Guides">
  <g id="H-reference" style="fill:#27AAE1;stroke:none;" transform="matrix(1 0 0 1 339 696)">
   <path d="M 54.9316 0 L 57.666 0 L 30.5664 -70.459 L 28.0762 -70.459 L 0.976562 0 L 3.66211 0 L 12.9395 -24.4629 L 45.7031 -24.4629 Z M 29.1992 -67.0898 L 29.4434 -67.0898 L 44.8242 -26.709 L 13.8184 -26.709 Z"/>
  </g>
  <line id="Baseline-S" style="fill:none;stroke:#27AAE1;opacity:1;stroke-width:0.577;" x1="263" x2="3036" y1="696" y2="696"/>
  <line id="Capline-S" style="fill:none;stroke:#27AAE1;opacity:1;stroke-width:0.577;" x1="263" x2="3036" y1="625.541" y2="625.541"/>
  <g id="H-reference" style="fill:#27AAE1;stroke:none;" transform="matrix(1 0 0 1 339 1126)">
   <path d="M 54.9316 0 L 57.666 0 L 30.5664 -70.459 L 28.0762 -70.459 L 0.976562 0 L 3.66211 0 L 12.9395 -24.4629 L 45.7031 -24.4629 Z M 29.1992 -67.0898 L 29.4434 -67.0898 L 44.8242 -26.709 L 13.8184 -26.709 Z"/>
  </g>
  <line id="Baseline-M" style="fill:none;stroke:#27AAE1;opacity:1;stroke-width:0.577;" x1="263" x2="3036" y1="1126" y2="1126"/>
  <line id="Capline-M" style="fill:none;stroke:#27AAE1;opacity:1;stroke-width:0.577;" x1="263" x2="3036" y1="1055.54" y2="1055.54"/>
  <g id="H-reference" style="fill:#27AAE1;stroke:none;" transform="matrix(1 0 0 1 339 1556)">
   <path d="M 54.9316 0 L 57.666 0 L 30.5664 -70.459 L 28.0762 -70.459 L 0.976562 0 L 3.66211 0 L 12.9395 -24.4629 L 45.7031 -24.4629 Z M 29.1992 -67.0898 L 29.4434 -67.0898 L 44.8242 -26.709 L 13.8184 -26.709 Z"/>
  </g>
  <line id="Baseline-L" style="fill:none;stroke:#27AAE1;opacity:1;stroke-width:0.577;" x1="263" x2="3036" y1="1556" y2="1556"/>
  <line id="Capline-L" style="fill:none;stroke:#27AAE1;opacity:1;stroke-width:0.577;" x1="263" x2="3036" y1="1485.54" y2="1485.54"/>
  <rect height="119.336" id="left-margin" style="fill:#00AEEF;stroke:none;opacity:0.4;" width="8.74023" x="1391.32" y="1030.79"/>
  <rect height="119.336" id="right-margin" style="fill:#00AEEF;stroke:none;opacity:0.4;" width="8.69141" x="1499.67" y="1030.79"/>
 </g>
 <g id="Symbols">
  <g id="Ultralight-S" transform="matrix(1 0 0 1 515.644 696)">
   <path d="M 44.043 2.05078 C 64.502 2.05078 81.2988 -14.6973 81.2988 -35.1562 C 81.2988 -55.6152 64.502 -72.3633 44.043 -72.3633 C 23.584 -72.3633 6.83594 -55.6152 6.83594 -35.1562 C 6.83594 -14.6973 23.584 2.05078 44.043 2.05078 Z M 44.043 -0.146484 C 24.7559 -0.146484 9.08203 -15.8691 9.08203 -35.1562 C 9.08203 -54.4434 24.7559 -70.166 44.043 -70.166 C 63.3789 -70.166 79.0527 -54.4434 79.0527 -35.1562 C 79.0527 -15.8691 63.3789 -0.146484 44.043 -0.146484 Z M 30.4688 -35.3027 C 30.4688 -34.7168 30.8594 -34.2773 31.543 -34.2773 L 33.4473 -34.2773 L 35.6934 -18.9941 C 35.8398 -18.4082 36.2305 -18.0664 36.8164 -18.0664 C 37.4023 -18.0664 37.793 -18.3594 37.8906 -18.8965 L 41.4062 -34.2773 L 46.7285 -34.2773 L 50.2441 -18.9453 C 50.3418 -18.4082 50.7324 -18.0664 51.3672 -18.0664 C 51.8555 -18.0664 52.3438 -18.3594 52.4414 -18.9453 L 54.7363 -34.2773 L 56.6406 -34.2773 C 57.2754 -34.2773 57.7148 -34.7168 57.7148 -35.3027 C 57.7148 -35.8887 57.2754 -36.3281 56.6406 -36.3281 L 55.0781 -36.3281 L 57.0801 -49.6582 C 57.1289 -50 57.1289 -50.0977 57.1289 -50.1465 C 57.1289 -50.7324 56.6895 -51.1719 56.0547 -51.1719 C 55.5176 -51.1719 55.0293 -50.8301 54.9316 -50.0977 L 52.9785 -36.3281 L 48.3887 -36.3281 L 45.2148 -50.2441 C 45.0684 -50.7812 44.6289 -51.123 44.0918 -51.123 C 43.5547 -51.123 43.1152 -50.7812 43.0176 -50.2441 L 39.7949 -36.3281 L 35.2051 -36.3281 L 33.2031 -50.1465 C 33.1055 -50.7812 32.7148 -51.2207 32.1289 -51.2207 C 31.4941 -51.2207 31.0547 -50.7812 31.0547 -50.1953 C 31.0547 -50.0488 31.1035 -49.7559 31.1523 -49.4141 L 33.1543 -36.3281 L 31.543 -36.3281 C 30.8594 -36.3281 30.4688 -35.8887 30.4688 -35.3027 Z M 41.8945 -36.3281 L 44.043 -45.8496 L 46.2402 -36.3281 Z M 35.498 -34.2773 L 39.3555 -34.2773 L 37.0117 -23.9746 Z M 48.8281 -34.2773 L 52.6855 -34.2773 L 51.2207 -23.9746 Z"/>
  </g>
  <g id="Thin-S" transform="matrix(1 0 0 1 811.867 696)">
   <path d="M 44.5801 2.53906 C 65.2832 2.53906 82.2754 -14.4531 82.2754 -35.2051 C 82.2754 -55.9082 65.2344 -72.9004 44.5312 -72.9004 C 23.8281 -72.9004 6.83594 -55.9082 6.83594 -35.2051 C 6.83594 -14.4531 23.877 2.53906 44.5801 2.53906 Z M 44.5801 -0.878906 C 25.5859 -0.878906 10.2539 -16.2109 10.2539 -35.2051 C 10.2539 -54.1504 25.5859 -69.4824 44.5312 -69.4824 C 63.5254 -69.4824 78.8574 -54.1504 78.8574 -35.2051 C 78.8574 -16.2109 63.5254 -0.878906 44.5801 -0.878906 Z M 30.1758 -35.498 C 30.1758 -34.7656 30.6641 -34.1797 31.4453 -34.1797 L 33.4961 -34.1797 L 35.8398 -18.8965 C 35.9863 -18.0664 36.5723 -17.5293 37.3535 -17.5293 C 38.1836 -17.5293 38.7695 -17.9688 38.916 -18.7988 L 42.1387 -34.2285 L 46.9727 -34.2285 L 50.2441 -18.7988 C 50.3906 -18.0176 50.9766 -17.5293 51.8066 -17.5293 C 52.5391 -17.5293 53.2227 -18.0176 53.3691 -18.8477 L 55.6641 -34.2285 L 57.666 -34.2285 C 58.4473 -34.2285 58.9844 -34.8145 58.9844 -35.498 C 58.9844 -36.2305 58.4473 -36.7676 57.666 -36.7676 L 56.0547 -36.7676 L 58.0566 -49.7559 C 58.1055 -50.0977 58.1055 -50.2441 58.1055 -50.3906 C 58.1055 -51.2207 57.5195 -51.709 56.6895 -51.709 C 56.0059 -51.709 55.3711 -51.3184 55.2246 -50.4395 L 53.3203 -36.7676 L 49.0723 -36.7676 L 46.1426 -50.3906 C 45.9961 -51.2207 45.3613 -51.6602 44.5801 -51.6602 C 43.7988 -51.6602 43.1641 -51.2207 42.9688 -50.3418 L 40.0879 -36.7676 L 35.8398 -36.7676 L 33.9355 -50.4395 C 33.8379 -51.2695 33.252 -51.7578 32.4707 -51.7578 C 31.6406 -51.7578 31.0059 -51.2207 31.0059 -50.4395 C 31.0059 -50.1953 31.1035 -49.8535 31.1523 -49.5605 L 33.1055 -36.7676 L 31.4453 -36.7676 C 30.6641 -36.7676 30.1758 -36.1816 30.1758 -35.498 Z M 42.6758 -36.7676 L 44.5801 -45.7031 L 46.4355 -36.7676 Z M 36.1816 -34.2285 L 39.5996 -34.2285 L 37.5488 -24.2676 Z M 49.5605 -34.2285 L 52.9785 -34.2285 L 51.6602 -24.2188 Z"/>
  </g>
  <g id="Light-S" transform="matrix(1 0 0 1 1107.6 696)">
   <path d="M 45.5078 3.4668 C 66.6992 3.4668 84.2285 -14.0625 84.2285 -35.2051 C 84.2285 -56.3965 66.6504 -73.9258 45.5078 -73.9258 C 24.3164 -73.9258 6.83594 -56.3965 6.83594 -35.2051 C 6.83594 -14.0625 24.3652 3.4668 45.5078 3.4668 Z M 45.5078 -2.24609 C 27.2461 -2.24609 12.5977 -16.9434 12.5977 -35.2051 C 12.5977 -53.5156 27.1973 -68.2129 45.5078 -68.2129 C 63.7695 -68.2129 78.4668 -53.5156 78.5156 -35.2051 C 78.5156 -16.9434 63.8184 -2.24609 45.5078 -2.24609 Z M 29.5898 -35.8398 C 29.5898 -34.8633 30.3223 -34.082 31.2988 -34.082 L 33.5938 -34.082 L 35.9863 -18.6523 C 36.2305 -17.334 37.207 -16.6016 38.4277 -16.6016 C 39.6484 -16.6016 40.625 -17.2363 40.8691 -18.6035 L 43.6035 -34.1309 L 47.4121 -34.1309 L 50.1953 -18.6523 C 50.4395 -17.2852 51.416 -16.6016 52.6367 -16.6016 C 53.8574 -16.6016 54.8828 -17.334 55.0781 -18.6523 L 57.4707 -34.1309 L 59.668 -34.1309 C 60.6934 -34.1309 61.4258 -34.9121 61.4258 -35.8398 C 61.4258 -36.8652 60.6934 -37.5977 59.668 -37.5977 L 58.0078 -37.5977 L 59.9121 -49.9023 C 59.9609 -50.293 60.0586 -50.5371 60.0586 -50.8789 C 60.0586 -52.0996 59.1309 -52.832 57.9102 -52.832 C 56.8848 -52.832 55.9082 -52.1973 55.7617 -50.9766 L 54.0039 -37.5977 L 50.4395 -37.5977 L 48.0469 -50.6348 C 47.8027 -52.002 46.7285 -52.7832 45.459 -52.7832 C 44.1895 -52.7832 43.1641 -52.002 42.9688 -50.5859 L 40.5762 -37.5488 L 37.0605 -37.5488 L 35.3516 -50.9277 C 35.2051 -52.1484 34.2773 -52.832 33.1543 -52.832 C 31.9336 -52.832 31.0059 -52.0508 31.0059 -50.8301 C 31.0059 -50.4395 31.0547 -50.0977 31.1035 -49.707 L 33.0078 -37.5488 L 31.2988 -37.5488 C 30.3223 -37.5488 29.5898 -36.8164 29.5898 -35.8398 Z M 44.2383 -37.5488 L 45.5078 -45.4102 L 46.8262 -37.5488 Z M 37.5488 -34.1309 L 40.0879 -34.1309 L 38.5742 -24.9023 Z M 50.9766 -34.1309 L 53.6133 -34.1309 L 52.4902 -24.707 Z"/>
  </g>
  <g id="Regular-S" transform="matrix(1 0 0 1 1403.58 696)">
   <path d="M 46.2402 4.15039 C 67.7734 4.15039 85.6934 -13.7207 85.6934 -35.2539 C 85.6934 -56.7871 67.7246 -74.6582 46.1914 -74.6582 C 24.707 -74.6582 6.83594 -56.7871 6.83594 -35.2539 C 6.83594 -13.7207 24.7559 4.15039 46.2402 4.15039 Z M 46.2402 -3.27148 C 28.5156 -3.27148 14.3555 -17.4805 14.3555 -35.2539 C 14.3555 -53.0273 28.4668 -67.2363 46.1914 -67.2363 C 63.9648 -67.2363 78.1738 -53.0273 78.2227 -35.2539 C 78.2715 -17.4805 64.0137 -3.27148 46.2402 -3.27148 Z M 29.1992 -36.084 C 29.1992 -34.9609 30.0781 -33.9844 31.2012 -33.9844 L 33.6426 -33.9844 L 36.1328 -18.5059 C 36.4258 -16.7969 37.6953 -15.8691 39.2578 -15.8691 C 40.8203 -15.8691 42.0898 -16.6992 42.3828 -18.457 L 44.7266 -34.0332 L 47.7539 -34.0332 L 50.1953 -18.5059 C 50.4883 -16.6992 51.7578 -15.8691 53.3203 -15.8691 C 54.834 -15.8691 56.1035 -16.7969 56.3965 -18.5059 L 58.8379 -34.0332 L 61.2305 -34.0332 C 62.4023 -34.0332 63.2324 -35.0098 63.2324 -36.1328 C 63.2324 -37.3535 62.4023 -38.2324 61.2305 -38.2324 L 59.5215 -38.2324 L 61.377 -50.0488 C 61.4258 -50.4395 61.5234 -50.7812 61.5234 -51.2695 C 61.5234 -52.7832 60.4004 -53.6621 58.8867 -53.6621 C 57.5684 -53.6621 56.3477 -52.9297 56.2012 -51.416 L 54.4922 -38.2324 L 51.416 -38.2324 L 49.4629 -50.8301 C 49.1699 -52.6367 47.7539 -53.6133 46.1914 -53.6133 C 44.5312 -53.6133 43.2129 -52.6367 42.9199 -50.7812 L 40.9668 -38.1836 L 38.0371 -38.1836 L 36.4258 -51.3672 C 36.2305 -52.8809 35.0586 -53.6133 33.6914 -53.6133 C 32.1289 -53.6133 30.957 -52.6855 30.957 -51.1719 C 30.957 -50.6348 31.0547 -50.2441 31.1035 -49.8535 L 32.959 -38.1836 L 31.2012 -38.1836 C 30.0781 -38.1836 29.1992 -37.3047 29.1992 -36.084 Z M 45.459 -38.1836 L 46.2402 -45.2148 L 47.1191 -38.1836 Z M 38.5254 -34.082 L 40.4297 -34.082 L 39.3555 -25.3906 Z M 52.002 -34.082 L 54.1016 -34.082 L 53.1738 -25.0977 Z"/>
  </g>
  <g id="Medium-S" transform="matrix(1 0 0 1 1699.7 696)">
   <path d="M 46.8262 4.78516 C 68.75 4.78516 86.8652 -13.3301 86.8652 -35.2539 C 86.8652 -57.1289 68.7012 -75.2441 46.8262 -75.2441 C 24.9023 -75.2441 6.83594 -57.1289 6.83594 -35.2539 C 6.83594 -13.3301 24.9512 4.78516 46.8262 4.78516 Z M 46.8262 -4.19922 C 29.6387 -4.19922 15.8691 -18.0176 15.8691 -35.2539 C 15.8691 -52.4414 29.5898 -66.2598 46.8262 -66.2598 C 64.0137 -66.2598 77.832 -52.4414 77.8809 -35.2539 C 77.8809 -18.0176 64.0625 -4.19922 46.8262 -4.19922 Z M 30.0293 -35.9863 C 30.0293 -34.9121 30.8594 -34.0332 31.9336 -34.0332 L 34.082 -34.0332 L 36.377 -19.6289 C 36.6699 -17.6758 38.1348 -16.5527 39.8926 -16.5527 C 41.6992 -16.5527 43.1641 -17.627 43.457 -19.6289 L 45.5566 -34.082 L 48.0957 -34.082 L 50.293 -19.6289 C 50.5859 -17.627 52.002 -16.5527 53.8086 -16.5527 C 55.6152 -16.5527 57.0312 -17.6758 57.3242 -19.6289 L 59.5703 -34.082 L 61.7188 -34.082 C 62.8418 -34.082 63.623 -34.9609 63.623 -35.9863 C 63.623 -37.1582 62.8418 -37.9395 61.7188 -37.9395 L 60.1562 -37.9395 L 61.9141 -49.0234 C 61.9629 -49.5117 62.0605 -49.9512 62.0605 -50.3906 C 62.0605 -52.0996 60.791 -53.1738 59.082 -53.1738 C 57.5195 -53.1738 56.25 -52.2461 56.0547 -50.5859 L 54.5898 -37.9395 L 52.0508 -37.9395 L 50.1953 -50.1953 C 49.9023 -52.0508 48.4863 -53.125 46.7773 -53.125 C 45.0195 -53.125 43.6523 -52.0508 43.3594 -50.1465 L 41.5039 -37.8906 L 39.0625 -37.8906 L 37.6465 -50.5371 C 37.5 -52.1973 36.1816 -53.125 34.6191 -53.125 C 32.8613 -53.125 31.5918 -52.0508 31.5918 -50.293 C 31.5918 -49.8047 31.6895 -49.4141 31.7383 -48.9258 L 33.4473 -37.8906 L 31.9336 -37.8906 C 30.8594 -37.8906 30.0293 -37.1094 30.0293 -35.9863 Z M 46.1426 -37.8906 L 46.8262 -43.75 L 47.5586 -37.8906 Z M 39.502 -34.1309 L 41.0645 -34.1309 L 40.1855 -26.9043 Z M 52.5391 -34.1309 L 54.248 -34.1309 L 53.4668 -26.6602 Z"/>
  </g>
  <g id="Semibold-S" transform="matrix(1 0 0 1 1995.98 696)">
   <path d="M 47.3145 5.22461 C 69.4824 5.22461 87.7441 -13.0371 87.7441 -35.2539 C 87.7441 -57.4219 69.4336 -75.6836 47.2656 -75.6836 C 25.0977 -75.6836 6.83594 -57.4219 6.83594 -35.2539 C 6.83594 -13.0371 25.0977 5.22461 47.3145 5.22461 Z M 47.3145 -4.93164 C 30.4688 -4.93164 17.041 -18.4082 17.041 -35.2539 C 17.041 -52.0508 30.4688 -65.5273 47.2656 -65.5273 C 64.0625 -65.5273 77.5879 -52.0508 77.5879 -35.2539 C 77.6367 -18.4082 64.1113 -4.93164 47.3145 -4.93164 Z M 30.6641 -35.8887 C 30.6641 -34.8633 31.4453 -34.082 32.4219 -34.082 L 34.4238 -34.082 L 36.5234 -20.459 C 36.8652 -18.4082 38.4277 -17.1387 40.4297 -17.1387 C 42.3828 -17.1387 43.9453 -18.3594 44.2871 -20.5078 L 46.1914 -34.082 L 48.3398 -34.082 L 50.3418 -20.5078 C 50.6348 -18.3594 52.1973 -17.1387 54.1992 -17.1387 C 56.1523 -17.1387 57.7148 -18.4082 58.0078 -20.459 L 60.1074 -34.082 L 62.1094 -34.082 C 63.1348 -34.082 63.8672 -34.9121 63.8672 -35.8887 C 63.8672 -36.9629 63.1348 -37.6953 62.1094 -37.6953 L 60.6934 -37.6953 L 62.3047 -48.291 C 62.3535 -48.7793 62.4512 -49.3164 62.4512 -49.707 C 62.4512 -51.6113 61.1328 -52.7832 59.2773 -52.7832 C 57.5195 -52.7832 56.1523 -51.7578 56.0059 -49.9512 L 54.6387 -37.6953 L 52.4902 -37.6953 L 50.7812 -49.707 C 50.4883 -51.6113 49.0234 -52.7344 47.2168 -52.7344 C 45.3613 -52.7344 43.9453 -51.6113 43.7012 -49.6582 L 41.9434 -37.6953 L 39.8926 -37.6953 L 38.623 -49.9023 C 38.4277 -51.709 37.0605 -52.7344 35.3027 -52.7344 C 33.3984 -52.7344 32.0801 -51.5137 32.0801 -49.6582 C 32.0801 -49.1699 32.1289 -48.7305 32.2266 -48.1934 L 33.8379 -37.6953 L 32.4219 -37.6953 C 31.4453 -37.6953 30.6641 -36.9629 30.6641 -35.8887 Z M 46.6797 -37.6953 L 47.3145 -42.6758 L 47.9004 -37.6953 Z M 40.2344 -34.1309 L 41.5527 -34.1309 L 40.8203 -28.0762 Z M 52.9297 -34.1309 L 54.3945 -34.1309 L 53.7109 -27.8809 Z"/>
  </g>
  <g id="Bold-S" transform="matrix(1 0 0 1 2292.1 696)">
   <path d="M 47.9004 5.81055 C 70.4102 5.81055 88.916 -12.6465 88.916 -35.2051 C 88.916 -57.7637 70.4102 -76.2695 47.8516 -76.2695 C 25.293 -76.2695 6.83594 -57.7637 6.83594 -35.2051 C 6.83594 -12.6465 25.3418 5.81055 47.9004 5.81055 Z M 47.9004 -5.85938 C 31.6406 -5.85938 18.5547 -18.9453 18.5547 -35.2051 C 18.5547 -51.4648 31.5918 -64.5508 47.8516 -64.5508 C 64.1113 -64.5508 77.1973 -51.4648 77.2461 -35.2051 C 77.2461 -18.9453 64.1602 -5.85938 47.9004 -5.85938 Z M 31.4941 -35.7422 C 31.4941 -34.8145 32.2266 -34.1309 33.1543 -34.1309 L 34.8633 -34.1309 L 36.7676 -21.6309 C 37.1094 -19.2871 38.8184 -17.8223 41.0645 -17.8223 C 43.3105 -17.8223 45.0684 -19.2871 45.3613 -21.6797 L 47.0215 -34.1309 L 48.7305 -34.1309 L 50.3906 -21.6797 C 50.7324 -19.2871 52.4414 -17.8223 54.6875 -17.8223 C 56.8848 -17.8223 58.5938 -19.2871 58.9355 -21.6309 L 60.8398 -34.1309 L 62.5977 -34.1309 C 63.5742 -34.1309 64.2578 -34.8633 64.2578 -35.791 C 64.2578 -36.7676 63.5742 -37.4512 62.5977 -37.4512 L 61.3281 -37.4512 L 62.8418 -47.2656 C 62.9395 -47.8516 62.9883 -48.4863 62.9883 -48.8281 C 62.9883 -50.9277 61.5723 -52.2461 59.4727 -52.2461 C 57.5195 -52.2461 56.0547 -51.0742 55.8594 -49.1211 L 54.7363 -37.4512 L 53.125 -37.4512 L 51.5625 -49.0234 C 51.2695 -50.9766 49.7559 -52.2461 47.8027 -52.2461 C 45.8496 -52.2461 44.3848 -50.9766 44.0918 -49.0234 L 42.5293 -37.4023 L 40.9668 -37.4023 L 39.8438 -49.0723 C 39.6973 -51.0254 38.2324 -52.2461 36.2305 -52.2461 C 34.1309 -52.2461 32.7148 -50.8789 32.7148 -48.7793 C 32.7148 -48.291 32.7637 -47.8516 32.8613 -47.2168 L 34.3262 -37.4023 L 33.1543 -37.4023 C 32.2266 -37.4023 31.4941 -36.7188 31.4941 -35.7422 Z M 47.4121 -37.4023 L 47.9004 -41.2109 L 48.3398 -37.4023 Z M 41.2109 -34.1309 L 42.1875 -34.1309 L 41.6504 -29.5898 Z M 53.4668 -34.1309 L 54.541 -34.1309 L 54.0527 -29.4922 Z"/>
  </g>
  <g id="Heavy-S" transform="matrix(1 0 0 1 2587.96 696)">
   <path d="M 48.7305 6.68945 C 71.8262 6.68945 90.625 -12.1094 90.625 -35.2051 C 90.625 -58.3008 71.8262 -77.0996 48.7305 -77.0996 C 25.6348 -77.0996 6.83594 -58.3008 6.83594 -35.2051 C 6.83594 -12.1094 25.6348 6.68945 48.7305 6.68945 Z M 48.7305 -7.22656 C 33.3008 -7.22656 20.752 -19.7266 20.752 -35.2051 C 20.752 -50.6836 33.3008 -63.1836 48.7305 -63.1836 C 64.209 -63.1836 76.709 -50.6836 76.709 -35.2051 C 76.709 -19.7266 64.209 -7.22656 48.7305 -7.22656 Z M 32.7637 -35.5957 C 32.7637 -34.7656 33.3496 -34.1797 34.1797 -34.1797 L 35.498 -34.1797 L 37.0605 -23.291 C 37.4512 -20.6543 39.4531 -18.8965 42.041 -18.8965 C 44.6289 -18.8965 46.6309 -20.6543 46.9727 -23.3887 L 48.2422 -34.1797 L 49.2188 -34.1797 L 50.5371 -23.3887 C 50.8789 -20.6543 52.832 -18.8965 55.4199 -18.8965 C 58.0078 -18.8965 59.9121 -20.6055 60.3027 -23.291 L 61.8652 -34.1797 L 63.3789 -34.1797 C 64.209 -34.1797 64.7949 -34.7656 64.7949 -35.5957 C 64.7949 -36.4258 64.209 -37.0117 63.3789 -37.0117 L 62.3047 -37.0117 L 63.623 -45.8008 C 63.7207 -46.5332 63.7695 -47.2656 63.7695 -47.5586 C 63.7695 -49.9512 62.1582 -51.5137 59.8145 -51.5137 C 57.4707 -51.5137 55.8594 -50.0977 55.7129 -47.8516 L 54.834 -37.0117 L 54.0039 -37.0117 L 52.6367 -48.0469 C 52.3438 -50.1465 50.8301 -51.5137 48.6816 -51.5137 C 46.582 -51.5137 45.0195 -50.1465 44.7266 -48.0469 L 43.3594 -37.0117 L 42.5293 -37.0117 L 41.6992 -47.8516 C 41.5527 -50.0977 39.8926 -51.5137 37.5977 -51.5137 C 35.2051 -51.5137 33.6426 -49.9512 33.6426 -47.5586 C 33.6426 -47.0703 33.6914 -46.6309 33.7891 -45.8008 L 35.0586 -37.0117 L 34.1797 -37.0117 C 33.3496 -37.0117 32.7637 -36.4258 32.7637 -35.5957 Z M 48.4863 -37.0117 L 48.7305 -39.1113 L 48.9746 -37.0117 Z M 42.627 -34.1797 L 43.1152 -34.1797 L 42.8711 -31.7871 Z M 54.248 -34.1797 L 54.7363 -34.1797 L 54.541 -31.7871 Z"/>
  </g>
  <g id="Black-S" transform="matrix(1 0 0 1 2883.89 696)">
   <path d="M 49.5117 7.4707 C 73.0957 7.4707 92.1875 -11.6211 92.1875 -35.2051 C 92.1875 -58.7891 73.0957 -77.8809 49.5117 -77.8809 C 25.9277 -77.8809 6.83594 -58.7891 6.83594 -35.2051 C 6.83594 -11.6211 25.9277 7.4707 49.5117 7.4707 Z M 49.5117 -8.44727 C 34.7656 -8.44727 22.7539 -20.459 22.7539 -35.2051 C 22.7539 -49.9512 34.7656 -61.9141 49.5117 -61.9141 C 64.2578 -61.9141 76.2695 -49.9512 76.2207 -35.2051 C 76.2207 -20.459 64.2578 -8.44727 49.5117 -8.44727 Z M 33.8379 -35.4492 C 33.8379 -34.7168 34.3262 -34.2285 35.0586 -34.2285 L 36.084 -34.2285 L 37.3535 -24.7559 C 37.793 -21.8262 39.9902 -19.8242 42.9199 -19.8242 C 45.8008 -19.8242 47.998 -21.9238 48.3887 -24.9023 L 49.3652 -34.2285 L 49.6582 -34.2285 L 50.6348 -24.9023 C 50.9766 -21.9238 53.1738 -19.8242 56.1035 -19.8242 C 58.9844 -19.8242 61.084 -21.8262 61.5234 -24.7559 L 62.8418 -34.2285 L 64.0137 -34.2285 C 64.7461 -34.2285 65.2832 -34.7168 65.2832 -35.4492 C 65.2832 -36.1328 64.7461 -36.6699 64.0137 -36.6699 L 63.1836 -36.6699 L 64.3066 -44.4824 C 64.4043 -45.3125 64.4531 -46.1426 64.4531 -46.3867 C 64.4531 -49.0723 62.6953 -50.8789 60.1074 -50.8789 C 57.4707 -50.8789 55.7129 -49.2188 55.5664 -46.7773 L 54.9805 -36.6699 L 54.7852 -36.6699 L 53.6621 -47.2168 C 53.3691 -49.3652 51.7578 -50.8789 49.4629 -50.8789 C 47.2168 -50.8789 45.6055 -49.3652 45.3125 -47.2168 L 44.1406 -36.6699 L 43.9453 -36.6699 L 43.3105 -46.7773 C 43.1641 -49.2188 41.4062 -50.8789 38.7695 -50.8789 C 36.1816 -50.8789 34.4727 -49.1211 34.4727 -46.4355 C 34.4727 -45.9473 34.4727 -45.5078 34.6191 -44.5312 L 35.6934 -36.6699 L 35.0586 -36.6699 C 34.3262 -36.6699 33.8379 -36.1328 33.8379 -35.4492 Z M 49.4141 -36.6699 L 49.5117 -37.2559 L 49.5605 -36.6699 Z M 43.8965 -34.2285 L 43.9941 -34.2285 L 43.9453 -33.7891 Z"/>
  </g>
  <g id="Ultralight-M" transform="matrix(1 0 0 1 503.656 1126)">
   <path d="M 56.0547 12.207 C 82.0801 12.207 103.369 -9.08203 103.369 -35.1562 C 103.369 -61.1816 82.0801 -82.4707 56.0547 -82.4707 C 30.0293 -82.4707 8.74023 -61.1816 8.74023 -35.1562 C 8.74023 -9.08203 30.0293 12.207 56.0547 12.207 Z M 56.0547 9.81445 C 31.25 9.81445 11.1328 -10.3516 11.1328 -35.1562 C 11.1328 -59.9121 31.25 -80.0781 56.0547 -80.0781 C 80.8105 -80.0781 100.977 -59.9121 100.977 -35.1562 C 100.977 -10.3516 80.8105 9.81445 56.0547 9.81445 Z M 38.9648 -35.2539 C 38.9648 -34.5703 39.4531 -34.0332 40.2832 -34.0332 L 42.6758 -34.0332 L 45.5566 -14.5996 C 45.6543 -13.916 46.0938 -13.4766 46.7773 -13.4766 C 47.4121 -13.4766 47.8516 -13.8672 47.9492 -14.4043 L 52.5391 -34.0332 L 59.5703 -34.0332 L 64.1113 -14.4531 C 64.2578 -13.916 64.6484 -13.4766 65.3809 -13.4766 C 65.918 -13.4766 66.5039 -13.8672 66.6016 -14.502 L 69.5312 -34.0332 L 71.875 -34.0332 C 72.7051 -34.0332 73.1934 -34.5703 73.1934 -35.2539 C 73.1934 -35.9375 72.7051 -36.4746 71.875 -36.4746 L 69.9219 -36.4746 L 72.4609 -53.6621 C 72.5098 -54.0527 72.5098 -54.1504 72.5098 -54.1992 C 72.5098 -54.834 72.0215 -55.3223 71.2891 -55.3223 C 70.7031 -55.3223 70.166 -54.9805 70.0195 -54.1016 L 67.4805 -36.4746 L 61.5234 -36.4746 L 57.3242 -54.2969 C 57.1777 -54.9316 56.6895 -55.2734 56.1035 -55.2734 C 55.5176 -55.2734 55.0293 -54.9316 54.9316 -54.2969 L 50.7324 -36.4746 L 44.6777 -36.4746 L 42.1387 -54.1992 C 41.9922 -54.9316 41.5039 -55.4199 40.8691 -55.4199 C 40.1367 -55.4199 39.6484 -54.9316 39.6484 -54.248 C 39.6484 -54.0527 39.6973 -53.7109 39.7461 -53.3203 L 42.334 -36.4746 L 40.2832 -36.4746 C 39.4531 -36.4746 38.9648 -35.9375 38.9648 -35.2539 Z M 53.1738 -36.4746 L 56.0547 -48.877 L 58.9355 -36.4746 Z M 45.0684 -34.0332 L 50.1465 -34.0332 L 47.0215 -20.7031 Z M 62.0605 -34.0332 L 67.0898 -34.0332 L 65.2344 -20.8008 Z"/>
  </g>
  <g id="Thin-M" transform="matrix(1 0 0 1 799.806 1126)">
   <path d="M 56.5918 12.7441 C 82.9102 12.7441 104.492 -8.83789 104.492 -35.1562 C 104.492 -61.4746 82.9102 -83.0566 56.5918 -83.0566 C 30.3223 -83.0566 8.74023 -61.4746 8.74023 -35.1562 C 8.74023 -8.83789 30.3223 12.7441 56.5918 12.7441 Z M 56.5918 8.98438 C 32.2266 8.98438 12.4512 -10.791 12.4512 -35.1562 C 12.4512 -59.5215 32.2266 -79.2969 56.5918 -79.2969 C 80.957 -79.2969 100.781 -59.5215 100.781 -35.1562 C 100.781 -10.791 81.0059 8.98438 56.5918 8.98438 Z M 38.6719 -35.4492 C 38.6719 -34.6191 39.2578 -33.9355 40.1855 -33.9355 L 42.7246 -33.9355 L 45.6543 -14.4531 C 45.8496 -13.5254 46.4844 -12.9395 47.3633 -12.9395 C 48.291 -12.9395 48.9258 -13.4277 49.1211 -14.3066 L 53.3691 -33.9844 L 59.8145 -33.9844 L 64.1113 -14.3555 C 64.3066 -13.4766 64.9414 -12.9395 65.918 -12.9395 C 66.6992 -12.9395 67.4316 -13.4277 67.627 -14.4043 L 70.5566 -33.9844 L 73.0469 -33.9844 C 73.9746 -33.9844 74.6094 -34.6191 74.6094 -35.4492 C 74.6094 -36.2793 73.9746 -36.9629 73.0469 -36.9629 L 71.0449 -36.9629 L 73.5352 -53.7109 C 73.6328 -54.1992 73.6328 -54.2969 73.6328 -54.4434 C 73.6328 -55.3711 72.998 -55.957 72.0215 -55.957 C 71.1914 -55.957 70.5078 -55.5176 70.3613 -54.4434 L 67.8711 -36.9629 L 62.3047 -36.9629 L 58.3984 -54.4922 C 58.252 -55.3711 57.5195 -55.9082 56.6406 -55.9082 C 55.7617 -55.9082 55.0293 -55.3711 54.8828 -54.4434 L 50.9766 -36.9629 L 45.4102 -36.9629 L 42.9688 -54.4922 C 42.8223 -55.4199 42.1387 -56.0059 41.2598 -56.0059 C 40.2832 -56.0059 39.5996 -55.4199 39.5996 -54.4922 C 39.5996 -54.248 39.6973 -53.8086 39.7461 -53.418 L 42.2852 -36.9629 L 40.1855 -36.9629 C 39.2578 -36.9629 38.6719 -36.2793 38.6719 -35.4492 Z M 54.0527 -36.9629 L 56.5918 -48.6816 L 59.1797 -36.9629 Z M 45.8496 -33.9844 L 50.4395 -33.9844 L 47.6074 -21.0938 Z M 62.8906 -33.9844 L 67.4805 -33.9844 L 65.7227 -21.0449 Z"/>
  </g>
  <g id="Light-M" transform="matrix(1 0 0 1 1095.42 1126)">
   <path d="M 57.7148 13.7695 C 84.5215 13.7695 106.689 -8.39844 106.689 -35.2051 C 106.689 -62.0117 84.4727 -84.1797 57.666 -84.1797 C 30.8594 -84.1797 8.74023 -62.0117 8.74023 -35.2051 C 8.74023 -8.39844 30.8594 13.7695 57.7148 13.7695 Z M 57.7148 7.4707 C 34.082 7.4707 15.0879 -11.5723 15.0879 -35.2051 C 15.0879 -58.8379 34.0332 -77.832 57.666 -77.832 C 81.2988 -77.832 100.342 -58.8379 100.342 -35.2051 C 100.391 -11.5723 81.2988 7.4707 57.7148 7.4707 Z M 38.0371 -35.8398 C 38.0371 -34.7168 38.8672 -33.8379 40.0391 -33.8379 L 42.8223 -33.8379 L 45.8984 -14.1602 C 46.1426 -12.6953 47.2168 -11.8164 48.6328 -11.8164 C 50 -11.8164 51.0742 -12.5977 51.3184 -14.1113 L 55.0293 -33.8379 L 60.3027 -33.8379 L 64.1113 -14.1113 C 64.3555 -12.6465 65.4297 -11.8164 66.8457 -11.8164 C 68.2129 -11.8164 69.3359 -12.6465 69.5801 -14.1602 L 72.6074 -33.8379 L 75.3418 -33.8379 C 76.5137 -33.8379 77.3438 -34.7656 77.3438 -35.8887 C 77.3438 -37.0605 76.5137 -37.8906 75.3418 -37.8906 L 73.2422 -37.8906 L 75.6836 -53.9062 C 75.7812 -54.3945 75.8301 -54.6387 75.8301 -55.0293 C 75.8301 -56.3965 74.8047 -57.2266 73.4375 -57.2266 C 72.2168 -57.2266 71.1426 -56.543 70.9473 -55.127 L 68.6035 -37.8906 L 63.8184 -37.8906 L 60.5469 -54.7852 C 60.2539 -56.2988 59.082 -57.1777 57.666 -57.1777 C 56.25 -57.1777 55.0781 -56.2988 54.834 -54.7363 L 51.5625 -37.8418 L 46.8262 -37.8418 L 44.5312 -55.0781 C 44.3359 -56.4941 43.3105 -57.2266 42.041 -57.2266 C 40.625 -57.2266 39.5508 -56.3477 39.5508 -54.9805 C 39.5508 -54.541 39.6484 -54.1016 39.7461 -53.6621 L 42.1875 -37.8418 L 40.0391 -37.8418 C 38.8672 -37.8418 38.0371 -37.0117 38.0371 -35.8398 Z M 55.8594 -37.8418 L 57.7148 -48.3398 L 59.6191 -37.8418 Z M 47.3633 -33.8867 L 50.9277 -33.8867 L 48.7793 -21.8262 Z M 64.4531 -33.8867 L 68.1641 -33.8867 L 66.6504 -21.6309 Z"/>
  </g>
  <g id="Regular-M" transform="matrix(1 0 0 1 1391.32 1126)">
   <path d="M 58.5449 14.5508 C 85.7422 14.5508 108.35 -8.00781 108.35 -35.2539 C 108.35 -62.4512 85.6934 -85.0586 58.4961 -85.0586 C 31.25 -85.0586 8.74023 -62.4512 8.74023 -35.2539 C 8.74023 -8.00781 31.2988 14.5508 58.5449 14.5508 Z M 58.5449 6.25 C 35.498 6.25 17.0898 -12.207 17.0898 -35.2539 C 17.0898 -58.252 35.4492 -76.7578 58.4961 -76.7578 C 81.4941 -76.7578 100 -58.252 100.049 -35.2539 C 100.098 -12.207 81.543 6.25 58.5449 6.25 Z M 37.5488 -36.1328 C 37.5488 -34.8145 38.5742 -33.7402 39.9414 -33.7402 L 42.8711 -33.7402 L 46.0449 -13.9648 C 46.3867 -12.0605 47.8027 -10.9863 49.5605 -10.9863 C 51.3184 -10.9863 52.6855 -11.9629 53.0273 -13.9648 L 56.2988 -33.7891 L 60.6934 -33.7891 L 64.0625 -13.9648 C 64.4043 -11.9629 65.8203 -10.9863 67.5781 -10.9863 C 69.3359 -10.9863 70.752 -12.0605 71.0938 -13.9648 L 74.1699 -33.7891 L 77.0508 -33.7891 C 78.4668 -33.7891 79.4434 -34.8633 79.4434 -36.1816 C 79.4434 -37.5977 78.4668 -38.623 77.0508 -38.623 L 74.9023 -38.623 L 77.3438 -54.0527 C 77.3926 -54.541 77.4902 -54.9316 77.4902 -55.4199 C 77.4902 -57.1289 76.2207 -58.1543 74.4629 -58.1543 C 72.998 -58.1543 71.6309 -57.3242 71.4355 -55.6152 L 69.1895 -38.623 L 64.9414 -38.623 L 62.1582 -55.0293 C 61.8164 -56.9824 60.2539 -58.1055 58.4473 -58.1055 C 56.5918 -58.1055 55.127 -56.9824 54.834 -54.9805 L 52.002 -38.5742 L 47.8516 -38.5742 L 45.752 -55.5176 C 45.5566 -57.2266 44.1895 -58.1543 42.627 -58.1543 C 40.8691 -58.1543 39.5508 -57.0312 39.5508 -55.3223 C 39.5508 -54.7852 39.6484 -54.2969 39.6973 -53.8086 L 42.1387 -38.5742 L 39.9414 -38.5742 C 38.5742 -38.5742 37.5488 -37.5488 37.5488 -36.1328 Z M 57.1777 -38.5742 L 58.5449 -48.0957 L 59.9121 -38.5742 Z M 48.4863 -33.8379 L 51.3184 -33.8379 L 49.707 -22.3633 Z M 65.6738 -33.8379 L 68.75 -33.8379 L 67.3828 -22.0215 Z"/>
  </g>
  <g id="Medium-M" transform="matrix(1 0 0 1 1687.33 1126)">
   <path d="M 59.2285 15.2832 C 86.8652 15.2832 109.717 -7.56836 109.717 -35.2051 C 109.717 -62.8906 86.8164 -85.7422 59.1797 -85.7422 C 31.543 -85.7422 8.74023 -62.8906 8.74023 -35.2051 C 8.74023 -7.56836 31.5918 15.2832 59.2285 15.2832 Z M 59.2285 5.17578 C 36.8164 5.17578 18.8477 -12.8418 18.8477 -35.2051 C 18.8477 -57.6172 36.7676 -75.6348 59.1797 -75.6348 C 81.5918 -75.6348 99.6094 -57.6172 99.6582 -35.2051 C 99.6582 -12.8418 81.6406 5.17578 59.2285 5.17578 Z M 38.3301 -36.0352 C 38.3301 -34.7656 39.3066 -33.7402 40.625 -33.7402 L 43.3594 -33.7402 L 46.2891 -15.1367 C 46.6309 -12.9395 48.2422 -11.6211 50.3418 -11.6211 C 52.3926 -11.6211 54.0039 -12.8418 54.3457 -15.0879 L 57.3242 -33.7891 L 61.084 -33.7891 L 64.1602 -15.1367 C 64.502 -12.8418 66.1133 -11.6211 68.2129 -11.6211 C 70.2148 -11.6211 71.8262 -12.9395 72.2168 -15.0879 L 75.0488 -33.7891 L 77.7832 -33.7891 C 79.1016 -33.7891 80.0781 -34.8145 80.0781 -36.084 C 80.0781 -37.4512 79.1016 -38.3789 77.7832 -38.3789 L 75.7812 -38.3789 L 78.0762 -53.0273 C 78.125 -53.6133 78.2227 -54.1016 78.2227 -54.5898 C 78.2227 -56.543 76.8066 -57.7637 74.8535 -57.7637 C 73.0469 -57.7637 71.582 -56.7383 71.3379 -54.7852 L 69.3359 -38.3789 L 65.6738 -38.3789 L 63.0859 -54.3945 C 62.7441 -56.4941 61.1328 -57.7148 59.1309 -57.7148 C 57.1289 -57.7148 55.5664 -56.4941 55.2246 -54.3457 L 52.6367 -38.3789 L 49.0723 -38.3789 L 47.168 -54.7363 C 46.9238 -56.6895 45.459 -57.7637 43.6523 -57.7637 C 41.6504 -57.7637 40.1855 -56.4941 40.1855 -54.4922 C 40.1855 -53.9062 40.2832 -53.418 40.332 -52.8809 L 42.627 -38.3789 L 40.625 -38.3789 C 39.3066 -38.3789 38.3301 -37.4023 38.3301 -36.0352 Z M 58.0566 -38.3789 L 59.2285 -46.6309 L 60.4004 -38.3789 Z M 49.6094 -33.8379 L 52.0508 -33.8379 L 50.6348 -23.9746 Z M 66.3086 -33.8379 L 68.9453 -33.8379 L 67.8223 -23.6816 Z"/>
  </g>
  <g id="Semibold-M" transform="matrix(1 0 0 1 1983.5 1126)">
   <path d="M 59.7656 15.8203 C 87.7441 15.8203 110.791 -7.22656 110.791 -35.2051 C 110.791 -63.1836 87.6953 -86.2793 59.7168 -86.2793 C 31.7383 -86.2793 8.74023 -63.1836 8.74023 -35.2051 C 8.74023 -7.22656 31.7871 15.8203 59.7656 15.8203 Z M 59.7656 4.3457 C 37.8418 4.3457 20.2148 -13.2812 20.2148 -35.2051 C 20.2148 -57.1289 37.793 -74.8047 59.7168 -74.8047 C 81.6406 -74.8047 99.3164 -57.1289 99.3164 -35.2051 C 99.3652 -13.2812 81.6895 4.3457 59.7656 4.3457 Z M 38.9648 -35.9863 C 38.9648 -34.7656 39.8926 -33.7891 41.1621 -33.7891 L 43.7012 -33.7891 L 46.4844 -15.9668 C 46.875 -13.5742 48.6328 -12.1094 50.9277 -12.1094 C 53.1738 -12.1094 54.9805 -13.5254 55.3223 -16.0156 L 58.0566 -33.7891 L 61.4258 -33.7891 L 64.209 -16.0156 C 64.5996 -13.5254 66.3574 -12.1094 68.6523 -12.1094 C 70.8984 -12.1094 72.6562 -13.5742 73.0469 -15.9668 L 75.7812 -33.7891 L 78.3203 -33.7891 C 79.6387 -33.7891 80.5176 -34.8145 80.5176 -36.0352 C 80.5176 -37.3047 79.6387 -38.2324 78.3203 -38.2324 L 76.4648 -38.2324 L 78.6133 -52.2461 C 78.7109 -52.8809 78.8086 -53.4668 78.8086 -53.9551 C 78.8086 -56.1035 77.2461 -57.4707 75.0977 -57.4707 C 73.0957 -57.4707 71.5332 -56.2988 71.3379 -54.1992 L 69.4824 -38.2324 L 66.2598 -38.2324 L 63.8184 -53.8574 C 63.4766 -56.1035 61.7676 -57.4219 59.668 -57.4219 C 57.5684 -57.4219 55.9082 -56.1035 55.5664 -53.8574 L 53.125 -38.2324 L 50 -38.2324 L 48.2422 -54.1504 C 48.0469 -56.25 46.4355 -57.4219 44.4336 -57.4219 C 42.2363 -57.4219 40.6738 -56.0547 40.6738 -53.8574 C 40.6738 -53.2715 40.7715 -52.7832 40.8691 -52.0996 L 43.0176 -38.2324 L 41.1621 -38.2324 C 39.8926 -38.2324 38.9648 -37.3047 38.9648 -35.9863 Z M 58.7402 -38.2324 L 59.7656 -45.459 L 60.791 -38.2324 Z M 50.4883 -33.8379 L 52.5879 -33.8379 L 51.3672 -25.1953 Z M 66.8457 -33.8379 L 69.1406 -33.8379 L 68.1152 -24.9512 Z"/>
  </g>
  <g id="Bold-M" transform="matrix(1 0 0 1 2279.5 1126)">
   <path d="M 60.4492 16.5039 C 88.8672 16.5039 112.207 -6.78711 112.207 -35.2051 C 112.207 -63.623 88.8672 -86.9629 60.4492 -86.9629 C 32.0312 -86.9629 8.74023 -63.623 8.74023 -35.2051 C 8.74023 -6.78711 32.0801 16.5039 60.4492 16.5039 Z M 60.4492 3.22266 C 39.1602 3.22266 22.0215 -13.916 22.0215 -35.2051 C 22.0215 -56.4941 39.1602 -73.6816 60.4492 -73.6816 C 81.7383 -73.6816 98.877 -56.4941 98.9258 -35.2051 C 98.9258 -13.916 81.7871 3.22266 60.4492 3.22266 Z M 39.7461 -35.8887 C 39.7461 -34.7168 40.6738 -33.7891 41.8457 -33.7891 L 44.1406 -33.7891 L 46.7285 -17.1387 C 47.1191 -14.4531 49.1211 -12.793 51.709 -12.793 C 54.2969 -12.793 56.2988 -14.4043 56.6406 -17.1875 L 59.082 -33.8379 L 61.8164 -33.8379 L 64.3066 -17.1875 C 64.6973 -14.4531 66.6504 -12.793 69.2383 -12.793 C 71.7773 -12.793 73.7793 -14.4531 74.1699 -17.1387 L 76.709 -33.8379 L 79.0527 -33.8379 C 80.2734 -33.8379 81.1523 -34.7656 81.1523 -35.9375 C 81.1523 -37.1582 80.2734 -38.0371 79.0527 -38.0371 L 77.3438 -38.0371 L 79.3457 -51.2695 C 79.4434 -51.9531 79.541 -52.6367 79.541 -53.0762 C 79.541 -55.5176 77.8809 -57.0801 75.4395 -57.0801 C 73.1934 -57.0801 71.4844 -55.6641 71.2402 -53.3691 L 69.6289 -38.0371 L 67.041 -38.0371 L 64.7949 -53.2227 C 64.4531 -55.5664 62.6465 -57.0312 60.4004 -57.0312 C 58.1055 -57.0312 56.3477 -55.5664 56.0059 -53.2227 L 53.7598 -37.9883 L 51.2207 -37.9883 L 49.6582 -53.3691 C 49.4629 -55.6641 47.7539 -57.0312 45.459 -57.0312 C 43.0176 -57.0312 41.3086 -55.4688 41.3086 -53.0273 C 41.3086 -52.4414 41.4062 -51.9043 41.5039 -51.123 L 43.5059 -37.9883 L 41.8457 -37.9883 C 40.6738 -37.9883 39.7461 -37.1582 39.7461 -35.8887 Z M 59.6191 -37.9883 L 60.4492 -43.9453 L 61.2793 -37.9883 Z M 51.6113 -33.8379 L 53.2715 -33.8379 L 52.3438 -26.8066 Z M 67.5293 -33.8379 L 69.3359 -33.8379 L 68.5547 -26.6602 Z"/>
  </g>
  <g id="Heavy-M" transform="matrix(1 0 0 1 2575.19 1126)">
   <path d="M 61.4746 17.5781 C 90.5273 17.5781 114.258 -6.15234 114.258 -35.2051 C 114.258 -64.2578 90.5273 -87.9883 61.4746 -87.9883 C 32.4219 -87.9883 8.74023 -64.2578 8.74023 -35.2051 C 8.74023 -6.15234 32.4707 17.5781 61.4746 17.5781 Z M 61.4746 1.66016 C 41.1133 1.66016 24.6582 -14.8438 24.6582 -35.2051 C 24.6582 -55.5664 41.1133 -72.0703 61.4746 -72.0703 C 81.8359 -72.0703 98.3398 -55.5664 98.3398 -35.2051 C 98.3398 -14.8438 81.8848 1.66016 61.4746 1.66016 Z M 40.9668 -35.791 C 40.9668 -34.668 41.748 -33.8379 42.8711 -33.8379 L 44.8242 -33.8379 L 47.0703 -18.7988 C 47.5586 -15.6738 49.8535 -13.7207 52.832 -13.7207 C 55.8594 -13.7207 58.1543 -15.7227 58.5938 -18.8965 L 60.5469 -33.8867 L 62.4023 -33.8867 L 64.4043 -18.8965 C 64.8438 -15.7227 67.1387 -13.7207 70.1172 -13.7207 C 73.0957 -13.7207 75.3418 -15.6738 75.8301 -18.7988 L 78.0273 -33.8867 L 80.127 -33.8867 C 81.25 -33.8867 82.0801 -34.668 82.0801 -35.791 C 82.0801 -36.9141 81.25 -37.7441 80.127 -37.7441 L 78.6621 -37.7441 L 80.4199 -49.7559 C 80.5664 -50.6348 80.6152 -51.416 80.6152 -51.8555 C 80.6152 -54.6387 78.7109 -56.4453 75.9766 -56.4453 C 73.291 -56.4453 71.3867 -54.834 71.1914 -52.1973 L 69.873 -37.7441 L 68.1641 -37.7441 L 66.2109 -52.2949 C 65.8691 -54.7852 63.9648 -56.4453 61.4258 -56.4453 C 58.8867 -56.4453 56.9824 -54.7852 56.6406 -52.2949 L 54.6875 -37.7441 L 53.0273 -37.7441 L 51.709 -52.1973 C 51.5137 -54.7852 49.6094 -56.4453 46.9238 -56.4453 C 44.1406 -56.4453 42.2363 -54.6387 42.2363 -51.8066 C 42.2363 -51.2207 42.334 -50.6836 42.4316 -49.707 L 44.2383 -37.7441 L 42.8711 -37.7441 C 41.748 -37.7441 40.9668 -36.9141 40.9668 -35.791 Z M 60.9375 -37.7441 L 61.4746 -41.748 L 62.0117 -37.7441 Z M 53.2715 -33.8867 L 54.3457 -33.8867 L 53.7109 -29.1992 Z M 68.5547 -33.8867 L 69.6777 -33.8867 L 69.1895 -29.1016 Z"/>
  </g>
  <g id="Black-M" transform="matrix(1 0 0 1 2871 1126)">
   <path d="M 62.4023 18.457 C 91.9922 18.457 116.064 -5.61523 116.064 -35.2051 C 116.064 -64.7949 91.9922 -88.8672 62.4023 -88.8672 C 32.8125 -88.8672 8.74023 -64.7949 8.74023 -35.2051 C 8.74023 -5.61523 32.8125 18.457 62.4023 18.457 Z M 62.4023 0.195312 C 42.8223 0.195312 27.002 -15.625 27.002 -35.2051 C 27.002 -54.7363 42.8223 -70.6055 62.4023 -70.6055 C 81.9824 -70.6055 97.8027 -54.7363 97.8027 -35.2051 C 97.8027 -15.625 81.9824 0.195312 62.4023 0.195312 Z M 41.9922 -35.6934 C 41.9922 -34.6191 42.7246 -33.8867 43.7988 -33.8867 L 45.4102 -33.8867 L 47.4121 -20.2637 C 47.9004 -16.7969 50.4883 -14.5508 53.8574 -14.5508 C 57.2754 -14.5508 59.8633 -16.8945 60.3027 -20.4102 L 61.8652 -33.8867 L 62.9395 -33.8867 L 64.502 -20.4102 C 64.9414 -16.8945 67.5293 -14.5508 70.9473 -14.5508 C 74.2676 -14.5508 76.7578 -16.7969 77.2949 -20.2637 L 79.248 -33.8867 L 81.1035 -33.8867 C 82.1289 -33.8867 82.8613 -34.6191 82.8613 -35.6934 C 82.8613 -36.7188 82.1289 -37.4512 81.1035 -37.4512 L 79.7852 -37.4512 L 81.3965 -48.4863 C 81.543 -49.4141 81.5918 -50.3418 81.5918 -50.7324 C 81.5918 -53.8574 79.4922 -55.957 76.416 -55.957 C 73.4375 -55.957 71.2891 -54.0527 71.0938 -51.1719 L 70.0684 -37.4512 L 69.1406 -37.4512 L 67.4805 -51.416 C 67.0898 -54.1016 65.0879 -55.957 62.3535 -55.957 C 59.5703 -55.957 57.5684 -54.1016 57.2266 -51.416 L 55.5664 -37.4512 L 54.5898 -37.4512 L 53.5645 -51.1719 C 53.3691 -54.0527 51.2695 -55.957 48.2422 -55.957 C 45.166 -55.957 43.0664 -53.8574 43.0664 -50.7324 C 43.0664 -50.0977 43.1641 -49.5605 43.2617 -48.4863 L 44.873 -37.4512 L 43.7988 -37.4512 C 42.7246 -37.4512 41.9922 -36.7188 41.9922 -35.6934 Z M 62.1094 -37.4512 L 62.4023 -39.7949 L 62.6465 -37.4512 Z M 54.7363 -33.8867 L 55.2246 -33.8867 L 54.9316 -31.2988 Z M 69.4336 -33.8867 L 69.9219 -33.8867 L 69.7266 -31.2988 Z"/>
  </g>
  <g id="Ultralight-L" transform="matrix(1 0 0 1 487.641 1556)">
   <path d="M 72.0703 25.7324 C 105.566 25.7324 132.91 -1.61133 132.91 -35.1074 C 132.91 -68.5547 105.566 -95.8984 72.0703 -95.8984 C 38.623 -95.8984 11.2793 -68.5547 11.2793 -35.1074 C 11.2793 -1.61133 38.623 25.7324 72.0703 25.7324 Z M 72.0703 23.2422 C 39.9414 23.2422 13.7695 -2.97852 13.7695 -35.1074 C 13.7695 -67.2363 39.9414 -93.4082 72.0703 -93.4082 C 104.199 -93.4082 130.42 -67.2363 130.371 -35.1074 C 130.371 -2.97852 104.199 23.2422 72.0703 23.2422 Z M 50.4395 -35.1562 C 50.4395 -34.375 51.0254 -33.6914 52.002 -33.6914 L 55.0781 -33.6914 L 58.7402 -8.64258 C 58.8867 -7.91016 59.3262 -7.42188 60.0586 -7.42188 C 60.791 -7.42188 61.2305 -7.8125 61.377 -8.39844 L 67.4316 -33.6914 L 76.7578 -33.6914 L 82.7637 -8.44727 C 82.9102 -7.91016 83.3496 -7.42188 84.1797 -7.42188 C 84.7656 -7.42188 85.3516 -7.8125 85.498 -8.54492 L 89.2578 -33.6914 L 92.2363 -33.6914 C 93.2129 -33.6914 93.7988 -34.3262 93.7988 -35.1562 C 93.7988 -35.9375 93.2129 -36.6211 92.2363 -36.6211 L 89.6973 -36.6211 L 93.0176 -58.9355 C 93.1152 -59.5215 93.0664 -59.5215 93.0664 -59.5703 C 93.0664 -60.3027 92.5293 -60.8887 91.6992 -60.8887 C 91.0156 -60.8887 90.3809 -60.498 90.2344 -59.4727 L 86.8652 -36.6211 L 79.0527 -36.6211 L 73.4863 -59.8145 C 73.3398 -60.4492 72.8516 -60.8398 72.168 -60.8398 C 71.5332 -60.8398 70.9961 -60.4492 70.8496 -59.8145 L 65.2832 -36.6211 L 57.373 -36.6211 L 54.0039 -59.5703 C 53.8574 -60.4004 53.3203 -60.9863 52.5391 -60.9863 C 51.709 -60.9863 51.1719 -60.4004 51.1719 -59.668 C 51.1719 -59.4727 51.2207 -58.9844 51.3184 -58.5449 L 54.6387 -36.6211 L 52.002 -36.6211 C 51.0254 -36.6211 50.4395 -35.9375 50.4395 -35.1562 Z M 68.2129 -36.6211 L 72.0703 -52.8809 L 75.9766 -36.6211 Z M 57.8125 -33.6914 L 64.5996 -33.6914 L 60.4004 -16.3086 Z M 79.7363 -33.6914 L 86.4258 -33.6914 L 83.9355 -16.4551 Z"/>
  </g>
  <g id="Thin-L" transform="matrix(1 0 0 1 783.717 1556)">
   <path d="M 72.7051 26.3184 C 106.494 26.3184 134.131 -1.36719 134.131 -35.1074 C 134.131 -68.8965 106.445 -96.582 72.7051 -96.582 C 38.916 -96.582 11.2793 -68.8965 11.2793 -35.1074 C 11.2793 -1.36719 38.916 26.3184 72.7051 26.3184 Z M 72.7051 22.3145 C 41.0156 22.3145 15.2344 -3.41797 15.2344 -35.1074 C 15.2344 -66.8457 41.0156 -92.5781 72.7051 -92.5781 C 104.395 -92.5781 130.127 -66.8457 130.176 -35.1074 C 130.176 -3.41797 104.395 22.3145 72.7051 22.3145 Z M 50.0977 -35.4004 C 50.0977 -34.4238 50.7812 -33.6426 51.9043 -33.6426 L 55.127 -33.6426 L 58.8379 -8.49609 C 59.0332 -7.42188 59.7168 -6.78711 60.7422 -6.78711 C 61.7676 -6.78711 62.5 -7.37305 62.6465 -8.25195 L 68.3594 -33.6426 L 77.0508 -33.6426 L 82.7637 -8.34961 C 82.9102 -7.42188 83.6426 -6.78711 84.7168 -6.78711 C 85.5957 -6.78711 86.4258 -7.37305 86.6211 -8.39844 L 90.4297 -33.6426 L 93.5547 -33.6426 C 94.6777 -33.6426 95.4102 -34.4238 95.4102 -35.4004 C 95.4102 -36.377 94.6777 -37.1582 93.5547 -37.1582 L 90.9668 -37.1582 L 94.2383 -59.0332 C 94.3359 -59.6191 94.3359 -59.7168 94.3359 -59.8633 C 94.3359 -60.8887 93.6035 -61.6211 92.4805 -61.6211 C 91.5527 -61.6211 90.7715 -61.084 90.5762 -59.8145 L 87.3047 -37.1582 L 79.8828 -37.1582 L 74.707 -59.9609 C 74.5117 -60.9375 73.7305 -61.5234 72.7539 -61.5234 C 71.7773 -61.5234 71.0449 -60.9375 70.8496 -59.9609 L 65.625 -37.1582 L 58.1543 -37.1582 L 54.9316 -59.9121 C 54.7363 -60.9863 54.0039 -61.6699 52.9785 -61.6699 C 51.9043 -61.6699 51.123 -60.9375 51.123 -59.9609 C 51.123 -59.668 51.2207 -59.1309 51.3184 -58.6426 L 54.5898 -37.1582 L 51.9043 -37.1582 C 50.7812 -37.1582 50.0977 -36.377 50.0977 -35.4004 Z M 69.1895 -37.1582 L 72.7051 -52.6855 L 76.2207 -37.1582 Z M 58.6914 -33.6426 L 64.8926 -33.6426 L 61.084 -16.748 Z M 80.6641 -33.6426 L 86.8164 -33.6426 L 84.4727 -16.7969 Z"/>
  </g>
  <g id="Light-L" transform="matrix(1 0 0 1 1079.21 1556)">
   <path d="M 73.9258 27.4902 C 108.301 27.4902 136.572 -0.830078 136.572 -35.1562 C 136.572 -69.5312 108.252 -97.8516 73.877 -97.8516 C 39.5508 -97.8516 11.2793 -69.5312 11.2793 -35.1562 C 11.2793 -0.830078 39.5508 27.4902 73.9258 27.4902 Z M 73.9258 20.6055 C 43.0664 20.6055 18.1641 -4.3457 18.1641 -35.1562 C 18.1641 -66.0156 43.0664 -90.918 73.877 -90.918 C 104.736 -90.918 129.639 -66.0156 129.688 -35.1562 C 129.736 -4.3457 104.785 20.6055 73.9258 20.6055 Z M 49.3652 -35.8398 C 49.3652 -34.5215 50.3418 -33.4961 51.7578 -33.4961 L 55.2246 -33.4961 L 59.082 -8.20312 C 59.375 -6.54297 60.5469 -5.56641 62.1094 -5.56641 C 63.6719 -5.56641 64.8926 -6.44531 65.1367 -8.05664 L 70.2148 -33.4961 L 77.5879 -33.4961 L 82.7148 -8.10547 C 83.0078 -6.49414 84.1797 -5.56641 85.791 -5.56641 C 87.2559 -5.56641 88.5254 -6.49414 88.8184 -8.1543 L 92.7246 -33.4961 L 96.0938 -33.4961 C 97.5098 -33.4961 98.4863 -34.5703 98.4863 -35.8398 C 98.4863 -37.207 97.5098 -38.1836 96.0938 -38.1836 L 93.457 -38.1836 L 96.6309 -59.2285 C 96.7285 -59.8145 96.7773 -60.1074 96.7773 -60.498 C 96.7773 -62.0117 95.6543 -62.9883 94.043 -62.9883 C 92.6758 -62.9883 91.5039 -62.207 91.2598 -60.5469 L 88.1836 -38.1836 L 81.5918 -38.1836 L 77.0508 -60.3027 C 76.7578 -61.9629 75.4395 -62.9395 73.9258 -62.9395 C 72.3145 -62.9395 71.0938 -61.9629 70.8008 -60.3027 L 66.2598 -38.1836 L 59.7168 -38.1836 L 56.6895 -60.5469 C 56.4941 -62.1582 55.3223 -63.0371 53.8574 -63.0371 C 52.2461 -63.0371 51.0742 -62.0117 51.0742 -60.498 C 51.0742 -60.0098 51.2207 -59.4238 51.2695 -58.8867 L 54.4922 -38.1836 L 51.7578 -38.1836 C 50.3418 -38.1836 49.3652 -37.1582 49.3652 -35.8398 Z M 71.1914 -38.1836 L 73.9258 -52.3438 L 76.709 -38.1836 Z M 60.3516 -33.5449 L 65.4785 -33.5449 L 62.4023 -17.5293 Z M 82.4219 -33.5449 L 87.6465 -33.5449 L 85.5469 -17.3828 Z"/>
  </g>
  <g id="Regular-L" transform="matrix(1 0 0 1 1374.99 1556)">
   <path d="M 74.8535 28.3691 C 109.668 28.3691 138.428 -0.390625 138.428 -35.2051 C 138.428 -70.0195 109.619 -98.7793 74.8047 -98.7793 C 39.9902 -98.7793 11.2793 -70.0195 11.2793 -35.2051 C 11.2793 -0.390625 40.0391 28.3691 74.8535 28.3691 Z M 74.8535 19.2871 C 44.6289 19.2871 20.4102 -5.0293 20.4102 -35.2051 C 20.4102 -65.3809 44.5801 -89.6973 74.8047 -89.6973 C 104.98 -89.6973 129.297 -65.3809 129.346 -35.2051 C 129.395 -5.0293 105.029 19.2871 74.8535 19.2871 Z M 48.8281 -36.1816 C 48.8281 -34.6191 50 -33.3496 51.6113 -33.3496 L 55.2734 -33.3496 L 59.2773 -7.95898 C 59.6191 -5.85938 61.1816 -4.63867 63.1836 -4.63867 C 65.1367 -4.63867 66.6992 -5.71289 67.041 -7.86133 L 71.6309 -33.3984 L 78.0273 -33.3984 L 82.7148 -7.91016 C 83.0566 -5.76172 84.6191 -4.63867 86.6211 -4.63867 C 88.5254 -4.63867 90.1367 -5.81055 90.4785 -7.95898 L 94.4336 -33.3984 L 98.0469 -33.3984 C 99.6582 -33.3984 100.781 -34.668 100.781 -36.2305 C 100.781 -37.8418 99.6582 -39.0137 98.0469 -39.0137 L 95.3125 -39.0137 L 98.4375 -59.375 C 98.5352 -60.0098 98.6328 -60.4492 98.6328 -60.9375 C 98.6328 -62.8906 97.2168 -64.0625 95.2637 -64.0625 C 93.5547 -64.0625 92.041 -63.0859 91.7969 -61.1328 L 88.8184 -39.0137 L 82.8613 -39.0137 L 78.8574 -60.5469 C 78.5156 -62.7441 76.7578 -63.9648 74.8047 -63.9648 C 72.7539 -63.9648 71.0938 -62.7441 70.752 -60.498 L 66.748 -38.9648 L 60.8887 -38.9648 L 58.0566 -61.0352 C 57.8125 -62.9883 56.2988 -64.0625 54.541 -64.0625 C 52.5391 -64.0625 51.0254 -62.793 51.0254 -60.8887 C 51.0254 -60.2539 51.1719 -59.668 51.2695 -59.082 L 54.3945 -38.9648 L 51.6113 -38.9648 C 50 -38.9648 48.8281 -37.793 48.8281 -36.1816 Z M 72.6562 -38.9648 L 74.8535 -52.0508 L 77.0508 -38.9648 Z M 61.6211 -33.4473 L 65.918 -33.4473 L 63.3789 -18.1641 Z M 83.7402 -33.4473 L 88.2324 -33.4473 L 86.377 -17.8711 Z"/>
  </g>
  <g id="Medium-L" transform="matrix(1 0 0 1 1670.9 1556)">
   <path d="M 75.6348 29.1992 C 110.938 29.1992 140.039 0.0488281 140.039 -35.2051 C 140.039 -70.459 110.889 -99.6094 75.5859 -99.6094 C 40.332 -99.6094 11.2793 -70.459 11.2793 -35.2051 C 11.2793 0.0488281 40.3809 29.1992 75.6348 29.1992 Z M 75.6348 18.0664 C 46.1426 18.0664 22.4609 -5.71289 22.4609 -35.2051 C 22.4609 -64.6973 46.0938 -88.4766 75.5859 -88.4766 C 105.127 -88.4766 128.857 -64.6973 128.906 -35.2051 C 128.955 -5.71289 105.176 18.0664 75.6348 18.0664 Z M 49.4629 -36.1328 C 49.4629 -34.6191 50.6348 -33.3496 52.1973 -33.3496 L 55.7129 -33.3496 L 59.5215 -8.98438 C 59.9609 -6.49414 61.7676 -5.07812 64.0625 -5.07812 C 66.3574 -5.07812 68.1641 -6.39648 68.6035 -8.93555 L 72.8027 -33.3984 L 78.4668 -33.3984 L 82.7637 -8.93555 C 83.1543 -6.44531 84.9609 -5.07812 87.3047 -5.07812 C 89.5508 -5.07812 91.4062 -6.49414 91.7969 -8.93555 L 95.5566 -33.3984 L 99.0234 -33.3984 C 100.635 -33.3984 101.807 -34.668 101.807 -36.1816 C 101.807 -37.793 100.635 -38.9648 99.0234 -38.9648 L 96.4355 -38.9648 L 99.4629 -58.4961 C 99.5605 -59.1797 99.6582 -59.7168 99.6582 -60.2539 C 99.6582 -62.5 97.998 -63.8672 95.8008 -63.8672 C 93.7988 -63.8672 92.0898 -62.6953 91.7969 -60.498 L 89.0625 -38.9648 L 83.7891 -38.9648 L 80.0781 -60.0098 C 79.6875 -62.4023 77.832 -63.8184 75.5859 -63.8184 C 73.291 -63.8184 71.5332 -62.4023 71.1426 -59.9609 L 67.4316 -38.916 L 62.207 -38.916 L 59.5703 -60.4004 C 59.3262 -62.6465 57.666 -63.8672 55.5664 -63.8672 C 53.2715 -63.8672 51.6113 -62.4023 51.6113 -60.2051 C 51.6113 -59.5215 51.7578 -58.9355 51.8555 -58.252 L 54.834 -38.916 L 52.1973 -38.916 C 50.6348 -38.916 49.4629 -37.7441 49.4629 -36.1328 Z M 73.7793 -38.916 L 75.6348 -50.6348 L 77.5879 -38.916 Z M 62.8906 -33.4473 L 66.6504 -33.4473 L 64.4531 -19.7266 Z M 84.6191 -33.4473 L 88.5742 -33.4473 L 86.9141 -19.4824 Z"/>
  </g>
  <g id="Semibold-L" transform="matrix(1 0 0 1 1967 1556)">
   <path d="M 76.2695 29.7852 C 111.914 29.7852 141.26 0.439453 141.26 -35.2051 C 141.26 -70.8496 111.865 -100.244 76.2207 -100.244 C 40.5762 -100.244 11.2793 -70.8496 11.2793 -35.2051 C 11.2793 0.439453 40.625 29.7852 76.2695 29.7852 Z M 76.2695 17.0898 C 47.3145 17.0898 24.0234 -6.25 24.0234 -35.2051 C 24.0234 -64.209 47.2656 -87.5 76.2207 -87.5 C 105.225 -87.5 128.516 -64.209 128.564 -35.2051 C 128.613 -6.25 105.273 17.0898 76.2695 17.0898 Z M 49.9512 -36.1328 C 49.9512 -34.6191 51.123 -33.3984 52.6855 -33.3984 L 56.0547 -33.3984 L 59.7168 -9.7168 C 60.1562 -7.03125 62.1582 -5.37109 64.7461 -5.37109 C 67.334 -5.37109 69.3359 -6.93359 69.7754 -9.7168 L 73.6816 -33.3984 L 78.8086 -33.3984 L 82.8125 -9.7168 C 83.252 -6.93359 85.2539 -5.37109 87.8418 -5.37109 C 90.3809 -5.37109 92.3828 -6.98242 92.8223 -9.7168 L 96.4355 -33.3984 L 99.8047 -33.3984 C 101.416 -33.3984 102.539 -34.668 102.539 -36.1816 C 102.539 -37.793 101.416 -38.916 99.8047 -38.916 L 97.3145 -38.916 L 100.195 -57.8125 C 100.293 -58.5449 100.391 -59.1797 100.391 -59.7168 C 100.391 -62.207 98.6328 -63.7695 96.1914 -63.7695 C 93.9453 -63.7695 92.0898 -62.4023 91.8457 -60.0098 L 89.2578 -38.916 L 84.4727 -38.916 L 81.0059 -59.6191 C 80.5664 -62.1582 78.6133 -63.6719 76.1719 -63.6719 C 73.7305 -63.6719 71.8262 -62.1582 71.4355 -59.5703 L 67.9199 -38.8672 L 63.2324 -38.8672 L 60.7422 -59.9609 C 60.498 -62.3535 58.6914 -63.7207 56.3965 -63.7207 C 53.8574 -63.7207 52.0508 -62.1582 52.0508 -59.668 C 52.0508 -58.9844 52.1973 -58.3496 52.2949 -57.5684 L 55.1758 -38.8672 L 52.6855 -38.8672 C 51.123 -38.8672 49.9512 -37.7441 49.9512 -36.1328 Z M 74.6094 -38.8672 L 76.2695 -49.5605 L 77.9785 -38.8672 Z M 63.8672 -33.4473 L 67.1875 -33.4473 L 65.2344 -20.9473 Z M 85.2539 -33.4473 L 88.7695 -33.4473 L 87.3047 -20.7031 Z"/>
  </g>
  <g id="Bold-L" transform="matrix(1 0 0 1 2262.9 1556)">
   <path d="M 77.0996 30.6152 C 113.184 30.6152 142.92 0.878906 142.92 -35.2051 C 142.92 -71.3379 113.135 -101.025 77.0508 -101.025 C 40.918 -101.025 11.2793 -71.3379 11.2793 -35.2051 C 11.2793 0.878906 40.9668 30.6152 77.0996 30.6152 Z M 77.0996 15.8691 C 48.7793 15.8691 26.0742 -6.93359 26.0742 -35.2051 C 26.0742 -63.4766 48.7793 -86.2793 77.0508 -86.2793 C 105.322 -86.2793 128.125 -63.4766 128.125 -35.2051 C 128.174 -6.93359 105.371 15.8691 77.0996 15.8691 Z M 50.5859 -36.1328 C 50.5859 -34.5703 51.7578 -33.3984 53.3203 -33.3984 L 56.4941 -33.3984 L 60.0098 -10.7422 C 60.4492 -7.66602 62.7441 -5.81055 65.6738 -5.81055 C 68.6035 -5.81055 70.8496 -7.61719 71.2891 -10.7422 L 74.9023 -33.4473 L 79.248 -33.4473 L 82.9102 -10.791 C 83.3496 -7.61719 85.5957 -5.81055 88.5742 -5.81055 C 91.4062 -5.81055 93.7012 -7.66602 94.1895 -10.7422 L 97.6074 -33.4473 L 100.83 -33.4473 C 102.441 -33.4473 103.564 -34.6191 103.564 -36.1328 C 103.564 -37.7441 102.441 -38.8672 100.83 -38.8672 L 98.4863 -38.8672 L 101.221 -56.9336 C 101.318 -57.7637 101.416 -58.4961 101.416 -59.0332 C 101.416 -61.8164 99.5117 -63.5742 96.7285 -63.5742 C 94.1895 -63.5742 92.1387 -62.0117 91.8945 -59.375 L 89.5508 -38.8672 L 85.4004 -38.8672 L 82.2266 -59.082 C 81.7871 -61.8164 79.6387 -63.5254 77.002 -63.5254 C 74.3164 -63.5254 72.2656 -61.8164 71.8262 -59.0332 L 68.6035 -38.8672 L 64.5996 -38.8672 L 62.3047 -59.3262 C 62.0605 -61.9629 60.0586 -63.5742 57.4219 -63.5742 C 54.6387 -63.5742 52.6367 -61.7676 52.6367 -58.9844 C 52.6367 -58.252 52.7832 -57.6172 52.8809 -56.7383 L 55.6152 -38.8672 L 53.3203 -38.8672 C 51.7578 -38.8672 50.5859 -37.6953 50.5859 -36.1328 Z M 75.6836 -38.8672 L 77.0996 -48.0957 L 78.4668 -38.8672 Z M 65.1367 -33.4473 L 67.9199 -33.4473 L 66.3086 -22.5586 Z M 86.1328 -33.4473 L 89.1113 -33.4473 L 87.8418 -22.3145 Z"/>
  </g>
  <g id="Heavy-L" transform="matrix(1 0 0 1 2558.42 1556)">
   <path d="M 78.2715 31.7871 C 115.039 31.7871 145.264 1.61133 145.264 -35.2051 C 145.264 -72.0215 115.039 -102.197 78.2227 -102.197 C 41.4551 -102.197 11.2793 -72.0215 11.2793 -35.2051 C 11.2793 1.61133 41.4551 31.7871 78.2715 31.7871 Z M 78.2715 14.0137 C 50.9766 14.0137 29.0527 -7.95898 29.0527 -35.2051 C 29.0527 -62.5 50.9766 -84.4727 78.2227 -84.4727 C 105.518 -84.4727 127.49 -62.5 127.49 -35.2051 C 127.539 -7.95898 105.518 14.0137 78.2715 14.0137 Z M 51.5137 -36.084 C 51.5137 -34.5703 52.6855 -33.3984 54.1992 -33.3984 L 57.1289 -33.3984 L 60.3516 -12.207 C 60.8887 -8.64258 63.5742 -6.39648 66.9922 -6.39648 C 70.4102 -6.39648 73.0469 -8.64258 73.584 -12.2559 L 76.6113 -33.4473 L 79.8828 -33.4473 L 83.0078 -12.2559 C 83.4961 -8.64258 86.1328 -6.39648 89.5996 -6.39648 C 92.9688 -6.39648 95.5566 -8.64258 96.0938 -12.207 L 99.3164 -33.4473 L 102.295 -33.4473 C 103.906 -33.4473 104.98 -34.6191 104.98 -36.1328 C 104.98 -37.6953 103.906 -38.8184 102.295 -38.8184 L 100.146 -38.8184 L 102.686 -55.6152 C 102.832 -56.543 102.93 -57.4707 102.93 -58.0078 C 102.93 -61.2305 100.684 -63.3301 97.5098 -63.3301 C 94.4824 -63.3301 92.1875 -61.4746 91.9434 -58.4473 L 89.9414 -38.8184 L 86.7676 -38.8184 L 83.9844 -58.252 C 83.4961 -61.3281 81.1523 -63.2812 78.1738 -63.2812 C 75.1465 -63.2812 72.8516 -61.3281 72.4121 -58.252 L 69.5801 -38.7695 L 66.5039 -38.7695 L 64.5508 -58.3984 C 64.3066 -61.4258 62.0117 -63.2812 58.9355 -63.2812 C 55.7617 -63.2812 53.5156 -61.1816 53.5156 -57.959 C 53.5156 -57.1777 53.6133 -56.4941 53.7109 -55.4688 L 56.2988 -38.7695 L 54.1992 -38.7695 C 52.6855 -38.7695 51.5137 -37.6953 51.5137 -36.084 Z M 77.2949 -38.7695 L 78.2715 -46.0449 L 79.248 -38.7695 Z M 66.9922 -33.4473 L 68.9941 -33.4473 L 67.8223 -24.9023 Z M 87.4023 -33.4473 L 89.5508 -33.4473 L 88.623 -24.707 Z"/>
  </g>
  <g id="Black-L" transform="matrix(1 0 0 1 2854.08 1556)">
   <path d="M 79.2969 32.8613 C 116.748 32.8613 147.363 2.19727 147.363 -35.2051 C 147.363 -72.6074 116.699 -103.271 79.2969 -103.271 C 41.8945 -103.271 11.2793 -72.6074 11.2793 -35.2051 C 11.2793 2.19727 41.8945 32.8613 79.2969 32.8613 Z M 79.2969 12.4023 C 52.9297 12.4023 31.7383 -8.83789 31.7383 -35.2051 C 31.7383 -61.5723 52.9297 -82.8125 79.2969 -82.8125 C 105.664 -82.8125 126.904 -61.5723 126.953 -35.2051 C 126.953 -8.83789 105.664 12.4023 79.2969 12.4023 Z M 52.3926 -36.084 C 52.3926 -34.5703 53.4668 -33.3984 55.0293 -33.3984 L 57.666 -33.3984 L 60.6934 -13.5254 C 61.2793 -9.52148 64.3066 -6.93359 68.1641 -6.93359 C 72.0703 -6.93359 75.0488 -9.52148 75.5859 -13.623 L 78.125 -33.4473 L 80.4688 -33.4473 L 83.0566 -13.623 C 83.6426 -9.52148 86.6211 -6.93359 90.4785 -6.93359 C 94.3359 -6.93359 97.2656 -9.52148 97.8516 -13.5254 L 100.83 -33.4473 L 103.662 -33.4473 C 105.176 -33.4473 106.299 -34.5703 106.299 -36.084 C 106.299 -37.6465 105.176 -38.7695 103.662 -38.7695 L 101.66 -38.7695 L 104.004 -54.4434 C 104.15 -55.4688 104.248 -56.543 104.248 -57.1289 C 104.248 -60.7422 101.807 -63.0859 98.2422 -63.0859 C 94.8242 -63.0859 92.2852 -60.9863 91.9922 -57.6172 L 90.2832 -38.7695 L 87.9883 -38.7695 L 85.5469 -57.5684 C 85.0586 -60.8887 82.5195 -63.0859 79.1992 -63.0859 C 75.8789 -63.0859 73.3887 -60.8887 72.9004 -57.5195 L 70.459 -38.7207 L 68.2617 -38.7207 L 66.5527 -57.5684 C 66.3086 -60.9375 63.7695 -63.0859 60.3027 -63.0859 C 56.7383 -63.0859 54.248 -60.6934 54.248 -57.0801 C 54.248 -56.25 54.3457 -55.5176 54.4922 -54.3945 L 56.8359 -38.7207 L 55.0293 -38.7207 C 53.4668 -38.7207 52.3926 -37.6465 52.3926 -36.084 Z M 78.7109 -38.7207 L 79.2969 -44.1895 L 79.8828 -38.7207 Z M 68.6035 -33.4473 L 69.9219 -33.4473 L 69.1895 -26.9531 Z M 88.5254 -33.4473 L 89.9902 -33.4473 L 89.3066 -26.8066 Z"/>
  </g>
 </g>
</svg>
