<?xml version="1.0" encoding="UTF-8"?>
<!--Generator: Apple Native CoreSVG 123-->
<!DOCTYPE svg
PUBLIC "-//W3C//DTD SVG 1.1//EN"
       "http://www.w3.org/Graphics/SVG/1.1/DTD/svg11.dtd">
<svg version="1.1" xmlns="http://www.w3.org/2000/svg" xmlns:xlink="http://www.w3.org/1999/xlink" width="3300" height="2200">
 <!--glyph: "uni1003CD.medium", point size: 100.000000, font version: "Version 15.0d4e20", template writer version: "2"-->
 <g id="Notes">
  <rect height="2200" id="artboard" style="fill:white;opacity:1" width="3300" x="0" y="0"/>
  <line id="" style="fill:none;stroke:black;opacity:1;stroke-width:0.5;" x1="263" x2="3036" y1="292" y2="292"/>
  <text style="stroke:none;fill:black;font-family:-apple-system,&quot;SF Pro Display&quot;,&quot;SF Pro Text&quot;,Helvetica,sans-serif;font-weight:bold;" transform="matrix(1 0 0 1 263 322)">Weight/Scale Variations</text>
  <text style="stroke:none;fill:black;font-family:-apple-system,&quot;SF Pro Display&quot;,&quot;SF Pro Text&quot;,Helvetica,sans-serif;text-anchor:middle;" transform="matrix(1 0 0 1 559.711 322)">Ultralight</text>
  <text style="stroke:none;fill:black;font-family:-apple-system,&quot;SF Pro Display&quot;,&quot;SF Pro Text&quot;,Helvetica,sans-serif;text-anchor:middle;" transform="matrix(1 0 0 1 856.422 322)">Thin</text>
  <text style="stroke:none;fill:black;font-family:-apple-system,&quot;SF Pro Display&quot;,&quot;SF Pro Text&quot;,Helvetica,sans-serif;text-anchor:middle;" transform="matrix(1 0 0 1 1153.13 322)">Light</text>
  <text style="stroke:none;fill:black;font-family:-apple-system,&quot;SF Pro Display&quot;,&quot;SF Pro Text&quot;,Helvetica,sans-serif;text-anchor:middle;" transform="matrix(1 0 0 1 1449.84 322)">Regular</text>
  <text style="stroke:none;fill:black;font-family:-apple-system,&quot;SF Pro Display&quot;,&quot;SF Pro Text&quot;,Helvetica,sans-serif;text-anchor:middle;" transform="matrix(1 0 0 1 1746.56 322)">Medium</text>
  <text style="stroke:none;fill:black;font-family:-apple-system,&quot;SF Pro Display&quot;,&quot;SF Pro Text&quot;,Helvetica,sans-serif;text-anchor:middle;" transform="matrix(1 0 0 1 2043.27 322)">Semibold</text>
  <text style="stroke:none;fill:black;font-family:-apple-system,&quot;SF Pro Display&quot;,&quot;SF Pro Text&quot;,Helvetica,sans-serif;text-anchor:middle;" transform="matrix(1 0 0 1 2339.98 322)">Bold</text>
  <text style="stroke:none;fill:black;font-family:-apple-system,&quot;SF Pro Display&quot;,&quot;SF Pro Text&quot;,Helvetica,sans-serif;text-anchor:middle;" transform="matrix(1 0 0 1 2636.69 322)">Heavy</text>
  <text style="stroke:none;fill:black;font-family:-apple-system,&quot;SF Pro Display&quot;,&quot;SF Pro Text&quot;,Helvetica,sans-serif;text-anchor:middle;" transform="matrix(1 0 0 1 2933.4 322)">Black</text>
  <line id="" style="fill:none;stroke:black;opacity:1;stroke-width:0.5;" x1="263" x2="3036" y1="1903" y2="1903"/>
  <g id="" transform="matrix(1 0 0 1 263 1933)">
   <path d="M 9.24805 0.830078 C 13.5547 0.830078 17.1387 -2.74414 17.1387 -7.05078 C 17.1387 -11.3574 13.5449 -14.9316 9.23828 -14.9316 C 4.94141 -14.9316 1.36719 -11.3574 1.36719 -7.05078 C 1.36719 -2.74414 4.95117 0.830078 9.24805 0.830078 Z M 9.24805 -0.654297 C 5.70312 -0.654297 2.87109 -3.49609 2.87109 -7.05078 C 2.87109 -10.6055 5.69336 -13.4473 9.23828 -13.4473 C 12.793 -13.4473 15.6348 -10.6055 15.6445 -7.05078 C 15.6543 -3.49609 12.8027 -0.654297 9.24805 -0.654297 Z M 9.22852 -3.42773 C 9.69727 -3.42773 9.9707 -3.74023 9.9707 -4.25781 L 9.9707 -6.31836 L 12.1973 -6.31836 C 12.6953 -6.31836 13.0371 -6.57227 13.0371 -7.04102 C 13.0371 -7.51953 12.7148 -7.7832 12.1973 -7.7832 L 9.9707 -7.7832 L 9.9707 -10.0098 C 9.9707 -10.5273 9.69727 -10.8496 9.22852 -10.8496 C 8.75977 -10.8496 8.50586 -10.5078 8.50586 -10.0098 L 8.50586 -7.7832 L 6.29883 -7.7832 C 5.78125 -7.7832 5.44922 -7.51953 5.44922 -7.04102 C 5.44922 -6.57227 5.80078 -6.31836 6.29883 -6.31836 L 8.50586 -6.31836 L 8.50586 -4.25781 C 8.50586 -3.75977 8.75977 -3.42773 9.22852 -3.42773 Z"/>
  </g>
  <g id="" transform="matrix(1 0 0 1 281.506 1933)">
   <path d="M 11.709 2.91016 C 17.1484 2.91016 21.6699 -1.60156 21.6699 -7.05078 C 21.6699 -12.4902 17.1387 -17.0117 11.6992 -17.0117 C 6.25 -17.0117 1.74805 -12.4902 1.74805 -7.05078 C 1.74805 -1.60156 6.25977 2.91016 11.709 2.91016 Z M 11.709 1.25 C 7.09961 1.25 3.41797 -2.44141 3.41797 -7.05078 C 3.41797 -11.6504 7.08984 -15.3516 11.6992 -15.3516 C 16.2988 -15.3516 20 -11.6504 20.0098 -7.05078 C 20.0195 -2.44141 16.3086 1.25 11.709 1.25 Z M 11.6797 -2.41211 C 12.207 -2.41211 12.5195 -2.77344 12.5195 -3.33984 L 12.5195 -6.23047 L 15.5762 -6.23047 C 16.123 -6.23047 16.5039 -6.51367 16.5039 -7.03125 C 16.5039 -7.55859 16.1426 -7.86133 15.5762 -7.86133 L 12.5195 -7.86133 L 12.5195 -10.9277 C 12.5195 -11.5039 12.207 -11.8555 11.6797 -11.8555 C 11.1621 -11.8555 10.8789 -11.4844 10.8789 -10.9277 L 10.8789 -7.86133 L 7.83203 -7.86133 C 7.25586 -7.86133 6.89453 -7.55859 6.89453 -7.03125 C 6.89453 -6.51367 7.28516 -6.23047 7.83203 -6.23047 L 10.8789 -6.23047 L 10.8789 -3.33984 C 10.8789 -2.79297 11.1621 -2.41211 11.6797 -2.41211 Z"/>
  </g>
  <g id="" transform="matrix(1 0 0 1 304.914 1933)">
   <path d="M 14.9707 5.67383 C 21.9336 5.67383 27.6855 -0.078125 27.6855 -7.04102 C 27.6855 -14.0039 21.9238 -19.7559 14.9609 -19.7559 C 7.99805 -19.7559 2.25586 -14.0039 2.25586 -7.04102 C 2.25586 -0.078125 8.00781 5.67383 14.9707 5.67383 Z M 14.9707 3.85742 C 8.92578 3.85742 4.08203 -1.00586 4.08203 -7.04102 C 4.08203 -13.0762 8.91602 -17.9395 14.9609 -17.9395 C 20.9961 -17.9395 25.8594 -13.0762 25.8691 -7.04102 C 25.8789 -1.00586 21.0059 3.85742 14.9707 3.85742 Z M 14.9414 -1.06445 C 15.5176 -1.06445 15.8594 -1.45508 15.8594 -2.06055 L 15.8594 -6.13281 L 20.0977 -6.13281 C 20.6934 -6.13281 21.1133 -6.46484 21.1133 -7.02148 C 21.1133 -7.59766 20.7227 -7.93945 20.0977 -7.93945 L 15.8594 -7.93945 L 15.8594 -12.1875 C 15.8594 -12.8027 15.5176 -13.1934 14.9414 -13.1934 C 14.3848 -13.1934 14.0625 -12.7832 14.0625 -12.1875 L 14.0625 -7.93945 L 9.82422 -7.93945 C 9.20898 -7.93945 8.80859 -7.59766 8.80859 -7.02148 C 8.80859 -6.46484 9.23828 -6.13281 9.82422 -6.13281 L 14.0625 -6.13281 L 14.0625 -2.06055 C 14.0625 -1.47461 14.3848 -1.06445 14.9414 -1.06445 Z"/>
  </g>
  <text style="stroke:none;fill:black;font-family:-apple-system,&quot;SF Pro Display&quot;,&quot;SF Pro Text&quot;,Helvetica,sans-serif;font-weight:bold;" transform="matrix(1 0 0 1 263 1953)">Design Variations</text>
  <text style="stroke:none;fill:black;font-family:-apple-system,&quot;SF Pro Display&quot;,&quot;SF Pro Text&quot;,Helvetica,sans-serif;" transform="matrix(1 0 0 1 263 1971)">Symbols are supported in up to nine weights and three scales.</text>
  <text style="stroke:none;fill:black;font-family:-apple-system,&quot;SF Pro Display&quot;,&quot;SF Pro Text&quot;,Helvetica,sans-serif;" transform="matrix(1 0 0 1 263 1989)">For optimal layout with text and other symbols, vertically align</text>
  <text style="stroke:none;fill:black;font-family:-apple-system,&quot;SF Pro Display&quot;,&quot;SF Pro Text&quot;,Helvetica,sans-serif;" transform="matrix(1 0 0 1 263 2007)">symbols with the adjacent text.</text>
  <rect height="14" id="" style="fill:#00AEEF;stroke:none;opacity:0.4;" width="3" x="776" y="1919"/>
  <g id="" transform="matrix(1 0 0 1 779 1933)">
   <path d="M 10.5273 0 L 12.373 0 L 7.17773 -14.0918 L 5.43945 -14.0918 L 0.244141 0 L 2.08984 0 L 3.50586 -4.0332 L 9.11133 -4.0332 Z M 6.2793 -11.9531 L 6.33789 -11.9531 L 8.59375 -5.52734 L 4.02344 -5.52734 Z"/>
  </g>
  <rect height="14" id="" style="fill:#00AEEF;stroke:none;opacity:0.4;" width="3" x="791.617" y="1919"/>
  <text style="stroke:none;fill:black;font-family:-apple-system,&quot;SF Pro Display&quot;,&quot;SF Pro Text&quot;,Helvetica,sans-serif;font-weight:bold;" transform="matrix(1 0 0 1 776 1953)">Side Bearings</text>
  <text style="stroke:none;fill:black;font-family:-apple-system,&quot;SF Pro Display&quot;,&quot;SF Pro Text&quot;,Helvetica,sans-serif;" transform="matrix(1 0 0 1 776 1971)">Horizontal padding on the left and right side of each symbol</text>
  <text style="stroke:none;fill:black;font-family:-apple-system,&quot;SF Pro Display&quot;,&quot;SF Pro Text&quot;,Helvetica,sans-serif;" transform="matrix(1 0 0 1 776 1989)">can be adjusted by modifying the width of the blue rectangles.</text>
  <text style="stroke:none;fill:black;font-family:-apple-system,&quot;SF Pro Display&quot;,&quot;SF Pro Text&quot;,Helvetica,sans-serif;" transform="matrix(1 0 0 1 776 2007)">Modifications are automatically applied proportionally to all</text>
  <text style="stroke:none;fill:black;font-family:-apple-system,&quot;SF Pro Display&quot;,&quot;SF Pro Text&quot;,Helvetica,sans-serif;" transform="matrix(1 0 0 1 776 2025)">scales and weights.</text>
  <g id="" transform="matrix(1 0 0 1 1289 1933)">
   <path d="M 2.96875 2.35352 L 3.80859 3.19336 C 4.84375 4.22852 6.12305 4.15039 7.19727 2.97852 L 16.1621 -6.82617 C 16.5527 -6.74805 16.9629 -6.8457 17.4902 -7.02148 C 18.1738 -7.25586 18.2715 -7.25586 18.3887 -7.13867 C 18.5352 -7.01172 18.4863 -6.89453 18.2422 -6.25 C 17.8809 -5.33203 17.8125 -4.79492 18.5547 -4.02344 L 19.4238 -3.13477 C 20.2734 -2.24609 21.3281 -2.26562 22.2168 -3.14453 L 25.0586 -5.97656 C 25.9473 -6.86523 25.957 -7.92969 25.0781 -8.7793 L 24.1797 -9.64844 C 23.4082 -10.4004 22.8711 -10.3516 21.9629 -9.98047 C 21.3184 -9.72656 21.2012 -9.6875 21.0645 -9.81445 C 20.9375 -9.93164 20.9473 -10.0391 21.1816 -10.7129 C 21.5332 -11.6895 21.5723 -12.2852 20.752 -13.0957 L 19.3359 -14.5117 C 15.1953 -18.6133 11.2305 -18.7402 7.65625 -15.4395 C 7.08008 -14.9023 6.99219 -14.1504 7.53906 -13.6133 L 7.79297 -13.3594 C 8.22266 -12.9297 8.86719 -12.8418 9.41406 -13.1152 C 11.0645 -13.9453 12.2559 -14.0234 13.457 -12.9785 L 13.0273 -11.416 C 12.8516 -10.8008 12.793 -10.3418 12.9199 -9.93164 L 3.18359 -1.04492 C 2.02148 0.0292969 1.93359 1.32812 2.96875 2.35352 Z M 8.96484 -14.4922 C 8.89648 -14.5703 8.86719 -14.6582 8.99414 -14.7559 C 11.709 -17.2852 15.0391 -16.8457 18.3496 -13.5254 L 19.6973 -12.168 C 20.0879 -11.7773 20.0977 -11.582 19.8828 -10.8691 C 19.6582 -10.127 19.502 -9.53125 20.1465 -8.88672 C 20.8105 -8.22266 21.2891 -8.41797 22.207 -8.63281 C 22.9004 -8.79883 23.0664 -8.79883 23.4473 -8.41797 L 24.0918 -7.77344 C 24.4043 -7.48047 24.4141 -7.32422 24.0723 -6.97266 L 21.2207 -4.13086 C 20.8887 -3.79883 20.7227 -3.79883 20.4297 -4.10156 L 19.7852 -4.75586 C 19.4141 -5.13672 19.4141 -5.30273 19.5801 -6.01562 C 19.7852 -6.88477 19.9805 -7.38281 19.3262 -8.04688 C 18.6719 -8.7207 18.0762 -8.57422 17.3438 -8.33008 C 16.5625 -8.06641 16.3281 -8.06641 15.8984 -8.49609 L 14.6094 -9.78516 C 14.1699 -10.2246 14.1309 -10.4395 14.2676 -10.9082 L 15.0293 -13.3984 C 13.3887 -15.2832 11.4941 -15.5566 9.20898 -14.4434 C 9.11133 -14.3945 9.04297 -14.4141 8.96484 -14.4922 Z M 3.96484 1.36719 C 3.52539 0.927734 3.54492 0.537109 4.14062 -0.00976562 L 13.7402 -8.81836 L 15 -7.55859 L 6.17188 2.02148 C 5.625 2.60742 5.24414 2.64648 4.79492 2.19727 Z"/>
  </g>
  <text style="stroke:none;fill:black;font-family:-apple-system,&quot;SF Pro Display&quot;,&quot;SF Pro Text&quot;,Helvetica,sans-serif;font-weight:bold;" transform="matrix(1 0 0 1 1289 1953)">Exporting</text>
  <text style="stroke:none;fill:black;font-family:-apple-system,&quot;SF Pro Display&quot;,&quot;SF Pro Text&quot;,Helvetica,sans-serif;" transform="matrix(1 0 0 1 1289 1971)">Symbols should be outlined when exporting to ensure the</text>
  <text style="stroke:none;fill:black;font-family:-apple-system,&quot;SF Pro Display&quot;,&quot;SF Pro Text&quot;,Helvetica,sans-serif;" transform="matrix(1 0 0 1 1289 1989)">design is preserved when submitting to Xcode.</text>
  <text id="template-version" style="stroke:none;fill:black;font-family:-apple-system,&quot;SF Pro Display&quot;,&quot;SF Pro Text&quot;,Helvetica,sans-serif;text-anchor:end;" transform="matrix(1 0 0 1 3036 1933)">Template v.0.1</text>
  <text style="stroke:none;fill:black;font-family:-apple-system,&quot;SF Pro Display&quot;,&quot;SF Pro Text&quot;,Helvetica,sans-serif;text-anchor:end;" transform="matrix(1 0 0 1 3036 1951)">Generated from xmark.rectangle</text>
  <text style="stroke:none;fill:black;font-family:-apple-system,&quot;SF Pro Display&quot;,&quot;SF Pro Text&quot;,Helvetica,sans-serif;text-anchor:end;" transform="matrix(1 0 0 1 3036 1969)">Typeset at 100 points</text>
  <text style="stroke:none;fill:black;font-family:-apple-system,&quot;SF Pro Display&quot;,&quot;SF Pro Text&quot;,Helvetica,sans-serif;" transform="matrix(1 0 0 1 263 726)">Small</text>
  <text style="stroke:none;fill:black;font-family:-apple-system,&quot;SF Pro Display&quot;,&quot;SF Pro Text&quot;,Helvetica,sans-serif;" transform="matrix(1 0 0 1 263 1156)">Medium</text>
  <text style="stroke:none;fill:black;font-family:-apple-system,&quot;SF Pro Display&quot;,&quot;SF Pro Text&quot;,Helvetica,sans-serif;" transform="matrix(1 0 0 1 263 1586)">Large</text>
 </g>
 <g id="Guides">
  <g id="H-reference" style="fill:#27AAE1;stroke:none;" transform="matrix(1 0 0 1 339 696)">
   <path d="M 54.9316 0 L 57.666 0 L 30.5664 -70.459 L 28.0762 -70.459 L 0.976562 0 L 3.66211 0 L 12.9395 -24.4629 L 45.7031 -24.4629 Z M 29.1992 -67.0898 L 29.4434 -67.0898 L 44.8242 -26.709 L 13.8184 -26.709 Z"/>
  </g>
  <line id="Baseline-S" style="fill:none;stroke:#27AAE1;opacity:1;stroke-width:0.577;" x1="263" x2="3036" y1="696" y2="696"/>
  <line id="Capline-S" style="fill:none;stroke:#27AAE1;opacity:1;stroke-width:0.577;" x1="263" x2="3036" y1="625.541" y2="625.541"/>
  <g id="H-reference" style="fill:#27AAE1;stroke:none;" transform="matrix(1 0 0 1 339 1126)">
   <path d="M 54.9316 0 L 57.666 0 L 30.5664 -70.459 L 28.0762 -70.459 L 0.976562 0 L 3.66211 0 L 12.9395 -24.4629 L 45.7031 -24.4629 Z M 29.1992 -67.0898 L 29.4434 -67.0898 L 44.8242 -26.709 L 13.8184 -26.709 Z"/>
  </g>
  <line id="Baseline-M" style="fill:none;stroke:#27AAE1;opacity:1;stroke-width:0.577;" x1="263" x2="3036" y1="1126" y2="1126"/>
  <line id="Capline-M" style="fill:none;stroke:#27AAE1;opacity:1;stroke-width:0.577;" x1="263" x2="3036" y1="1055.54" y2="1055.54"/>
  <g id="H-reference" style="fill:#27AAE1;stroke:none;" transform="matrix(1 0 0 1 339 1556)">
   <path d="M 54.9316 0 L 57.666 0 L 30.5664 -70.459 L 28.0762 -70.459 L 0.976562 0 L 3.66211 0 L 12.9395 -24.4629 L 45.7031 -24.4629 Z M 29.1992 -67.0898 L 29.4434 -67.0898 L 44.8242 -26.709 L 13.8184 -26.709 Z"/>
  </g>
  <line id="Baseline-L" style="fill:none;stroke:#27AAE1;opacity:1;stroke-width:0.577;" x1="263" x2="3036" y1="1556" y2="1556"/>
  <line id="Capline-L" style="fill:none;stroke:#27AAE1;opacity:1;stroke-width:0.577;" x1="263" x2="3036" y1="1485.54" y2="1485.54"/>
  <rect height="119.336" id="left-margin" style="fill:#00AEEF;stroke:none;opacity:0.4;" width="12.4512" x="1379.8" y="1030.79"/>
  <rect height="119.336" id="right-margin" style="fill:#00AEEF;stroke:none;opacity:0.4;" width="12.4512" x="1507.44" y="1030.79"/>
 </g>
 <g id="Symbols">
  <g id="Ultralight-S" transform="matrix(1 0 0 1 505.707 696)">
   <path d="M 19.7754 -1.5625 L 88.2812 -1.5625 C 94.8242 -1.5625 98.2422 -5.12695 98.2422 -11.5234 L 98.2422 -58.7891 C 98.2422 -65.2344 94.8242 -68.75 88.2812 -68.75 L 19.7754 -68.75 C 13.2324 -68.75 9.76562 -65.2832 9.76562 -58.7891 L 9.76562 -11.5234 C 9.76562 -5.0293 13.2324 -1.5625 19.7754 -1.5625 Z M 19.873 -3.75977 C 14.6484 -3.75977 11.9629 -6.44531 11.9629 -11.6699 L 11.9629 -58.6426 C 11.9629 -63.8672 14.6484 -66.5527 19.873 -66.5527 L 88.1836 -66.5527 C 93.1641 -66.5527 96.0449 -63.8672 96.0449 -58.6426 L 96.0449 -11.6699 C 96.0449 -6.44531 93.1641 -3.75977 88.1836 -3.75977 Z M 40.1855 -20.0684 C 40.5762 -20.0684 40.8203 -20.2148 41.1621 -20.5566 L 54.0039 -33.3984 L 66.8457 -20.5566 C 67.1875 -20.2148 67.4805 -20.0684 67.8223 -20.0684 C 68.5547 -20.0684 69.043 -20.6055 69.043 -21.2402 C 69.043 -21.582 68.9453 -21.875 68.6523 -22.168 L 55.7129 -35.1074 L 68.6523 -48.0469 C 68.9453 -48.3398 69.0918 -48.6328 69.0918 -48.9746 C 69.0918 -49.6094 68.5547 -50.0977 67.8223 -50.0977 C 67.4805 -50.0977 67.1875 -50 66.8457 -49.6582 L 54.0039 -36.8164 L 41.1621 -49.6582 C 40.8203 -50 40.5762 -50.0977 40.1855 -50.0977 C 39.502 -50.0977 38.9648 -49.6094 38.9648 -48.9746 C 38.9648 -48.6328 39.0625 -48.3398 39.3555 -48.0469 L 52.2949 -35.1074 L 39.3555 -22.168 C 39.0625 -21.875 38.9648 -21.582 38.9648 -21.2402 C 38.9648 -20.6055 39.502 -20.0684 40.1855 -20.0684 Z"/>
  </g>
  <g id="Thin-S" transform="matrix(1 0 0 1 802.174 696)">
   <path d="M 20.3125 -1.12305 L 88.1836 -1.12305 C 95.1172 -1.12305 98.7305 -4.78516 98.7305 -11.6211 L 98.7305 -58.6914 C 98.7305 -65.5762 95.1172 -69.2383 88.1836 -69.2383 L 20.3125 -69.2383 C 13.3789 -69.2383 9.76562 -65.625 9.76562 -58.6914 L 9.76562 -11.6211 C 9.76562 -4.6875 13.3789 -1.12305 20.3125 -1.12305 Z M 20.4102 -4.44336 C 15.625 -4.44336 13.0859 -6.93359 13.0859 -11.8164 L 13.0859 -58.5449 C 13.0859 -63.3789 15.625 -65.918 20.4102 -65.918 L 88.0859 -65.918 C 92.7246 -65.918 95.4102 -63.3789 95.4102 -58.5449 L 95.4102 -11.8164 C 95.4102 -6.93359 92.7246 -4.44336 88.0859 -4.44336 Z M 40.7715 -19.9707 C 41.3086 -19.9707 41.6504 -20.1172 42.0898 -20.5566 L 54.248 -32.7148 L 66.4062 -20.5566 C 66.7969 -20.166 67.1875 -19.9707 67.6758 -19.9707 C 68.6523 -19.9707 69.3848 -20.7031 69.3848 -21.6309 C 69.3848 -22.1191 69.2383 -22.4609 68.8477 -22.8516 L 56.6406 -35.1074 L 68.8477 -47.3633 C 69.2383 -47.7539 69.3848 -48.0957 69.3848 -48.584 C 69.3848 -49.5117 68.6523 -50.1953 67.7246 -50.1953 C 67.2363 -50.1953 66.8457 -50.0488 66.4551 -49.6094 L 54.248 -37.4512 L 42.041 -49.6094 C 41.6504 -50.0488 41.3086 -50.1953 40.7715 -50.1953 C 39.8438 -50.1953 39.1113 -49.4629 39.1113 -48.584 C 39.1113 -48.0957 39.2578 -47.7051 39.6484 -47.3145 L 51.8555 -35.1074 L 39.6484 -22.8516 C 39.2578 -22.4609 39.1113 -22.1191 39.1113 -21.6309 C 39.1113 -20.7031 39.8438 -19.9707 40.7715 -19.9707 Z"/>
  </g>
  <g id="Light-S" transform="matrix(1 0 0 1 1098.42 696)">
   <path d="M 21.3867 -0.292969 L 88.0371 -0.292969 C 95.752 -0.292969 99.6582 -4.15039 99.6582 -11.7676 L 99.6582 -58.5938 C 99.6582 -66.2109 95.752 -70.1172 88.0371 -70.1172 L 21.3867 -70.1172 C 13.6719 -70.1172 9.76562 -66.2598 9.76562 -58.5938 L 9.76562 -11.7676 C 9.76562 -4.15039 13.6719 -0.292969 21.3867 -0.292969 Z M 21.4844 -5.71289 C 17.4316 -5.71289 15.1855 -7.86133 15.1855 -12.0605 L 15.1855 -58.3008 C 15.1855 -62.5 17.4316 -64.6973 21.4844 -64.6973 L 87.9395 -64.6973 C 91.9434 -64.6973 94.2383 -62.5 94.2383 -58.3008 L 94.2383 -12.0605 C 94.2383 -7.86133 91.9434 -5.71289 87.9395 -5.71289 Z M 41.9434 -19.7754 C 42.7246 -19.7754 43.3105 -20.0195 43.8477 -20.5566 L 54.6875 -31.4453 L 65.5762 -20.5566 C 66.0645 -20.0684 66.6504 -19.7754 67.4316 -19.7754 C 68.8477 -19.7754 70.0195 -20.9473 70.0195 -22.3633 C 70.0195 -23.1445 69.7266 -23.6328 69.2383 -24.2188 L 58.3496 -35.0586 L 69.2871 -45.9961 C 69.8242 -46.582 70.0195 -47.0703 70.0195 -47.8516 C 70.0195 -49.2676 68.8965 -50.3906 67.4805 -50.3906 C 66.748 -50.3906 66.2109 -50.1465 65.625 -49.6094 L 54.6875 -38.6719 L 43.7988 -49.5605 C 43.2617 -50.0977 42.7246 -50.3418 41.9434 -50.3418 C 40.5273 -50.3418 39.4043 -49.2188 39.4043 -47.8027 C 39.4043 -47.0703 39.6484 -46.4844 40.1367 -45.9961 L 51.0254 -35.0586 L 40.1367 -24.1699 C 39.6484 -23.6328 39.4043 -23.0957 39.4043 -22.3633 C 39.4043 -20.9473 40.5273 -19.7754 41.9434 -19.7754 Z"/>
  </g>
  <g id="Regular-S" transform="matrix(1 0 0 1 1394.79 696)">
   <path d="M 22.2168 0.390625 L 87.8906 0.390625 C 96.2402 0.390625 100.342 -3.71094 100.342 -11.9141 L 100.342 -58.4961 C 100.342 -66.6992 96.2402 -70.8008 87.8906 -70.8008 L 22.2168 -70.8008 C 13.916 -70.8008 9.76562 -66.6992 9.76562 -58.4961 L 9.76562 -11.9141 C 9.76562 -3.71094 13.916 0.390625 22.2168 0.390625 Z M 22.3145 -6.68945 C 18.7988 -6.68945 16.7969 -8.54492 16.7969 -12.2559 L 16.7969 -58.1543 C 16.7969 -61.8164 18.7988 -63.7207 22.3145 -63.7207 L 87.793 -63.7207 C 91.3086 -63.7207 93.3105 -61.8164 93.3105 -58.1543 L 93.3105 -12.2559 C 93.3105 -8.54492 91.3086 -6.68945 87.793 -6.68945 Z M 42.8711 -19.6289 C 43.7988 -19.6289 44.5801 -19.9219 45.166 -20.5566 L 55.0293 -30.4688 L 64.8926 -20.5566 C 65.5273 -19.9707 66.2109 -19.6289 67.2363 -19.6289 C 68.9941 -19.6289 70.459 -21.0938 70.459 -22.9004 C 70.459 -23.877 70.166 -24.5605 69.5312 -25.1953 L 59.668 -35.0586 L 69.5801 -45.0195 C 70.2148 -45.6543 70.5078 -46.3379 70.5078 -47.2656 C 70.5078 -49.0723 69.043 -50.5371 67.2852 -50.5371 C 66.3574 -50.5371 65.7227 -50.2441 65.0391 -49.5605 L 55.0293 -39.6484 L 45.0684 -49.5117 C 44.5312 -50.1465 43.7988 -50.4395 42.8711 -50.4395 C 41.0645 -50.4395 39.5996 -49.0234 39.5996 -47.2168 C 39.5996 -46.2891 39.9414 -45.5566 40.5762 -44.9707 L 50.3906 -35.0586 L 40.5762 -25.1465 C 39.9414 -24.5605 39.5996 -23.8281 39.5996 -22.9004 C 39.5996 -21.0938 41.0645 -19.6289 42.8711 -19.6289 Z"/>
  </g>
  <g id="Medium-S" transform="matrix(1 0 0 1 1691.26 696)">
   <path d="M 22.8516 0.976562 L 87.7441 0.976562 C 96.3379 0.976562 100.83 -3.4668 100.83 -11.9629 L 100.83 -58.3984 C 100.83 -66.9434 96.3379 -71.3867 87.7441 -71.3867 L 22.8516 -71.3867 C 14.2578 -71.3867 9.76562 -66.9434 9.76562 -58.3984 L 9.76562 -11.9629 C 9.76562 -3.4668 14.2578 0.976562 22.8516 0.976562 Z M 23.4375 -7.71484 C 20.2148 -7.71484 18.4082 -9.375 18.4082 -12.793 L 18.4082 -57.6172 C 18.4082 -61.0352 20.2148 -62.6953 23.4375 -62.6953 L 87.1582 -62.6953 C 90.332 -62.6953 92.1387 -61.0352 92.1387 -57.6172 L 92.1387 -12.793 C 92.1387 -9.375 90.332 -7.71484 87.1582 -7.71484 Z M 43.4082 -19.5312 C 44.5312 -19.5312 45.4102 -19.873 46.0938 -20.6055 L 55.2734 -29.7852 L 64.4531 -20.6055 C 65.1855 -19.9219 66.0156 -19.5312 67.1387 -19.5312 C 69.1895 -19.5312 70.8496 -21.1914 70.8496 -23.291 C 70.8496 -24.3652 70.459 -25.1465 69.7754 -25.9277 L 60.5957 -35.1074 L 69.7754 -44.3359 C 70.5566 -45.0684 70.8984 -45.8984 70.8984 -46.9238 C 70.8984 -48.9746 69.2383 -50.6348 67.1875 -50.6348 C 66.1133 -50.6348 65.2832 -50.293 64.5508 -49.5605 L 55.2734 -40.332 L 46.0449 -49.5117 C 45.3613 -50.2441 44.5312 -50.5859 43.4082 -50.5859 C 41.3574 -50.5859 39.6973 -48.9746 39.6973 -46.875 C 39.6973 -45.8496 40.0879 -45.0195 40.7715 -44.2871 L 49.9512 -35.1074 L 40.7715 -25.8789 C 40.0879 -25.1465 39.6973 -24.3164 39.6973 -23.291 C 39.6973 -21.1914 41.3574 -19.5312 43.4082 -19.5312 Z"/>
  </g>
  <g id="Semibold-S" transform="matrix(1 0 0 1 1987.8 696)">
   <path d="M 23.3398 1.41602 L 87.5977 1.41602 C 96.4355 1.41602 101.172 -3.32031 101.172 -12.0605 L 101.172 -58.3496 C 101.172 -67.0898 96.4355 -71.8262 87.5977 -71.8262 L 23.3398 -71.8262 C 14.5508 -71.8262 9.76562 -67.0898 9.76562 -58.3496 L 9.76562 -12.0605 C 9.76562 -3.32031 14.5508 1.41602 23.3398 1.41602 Z M 24.3164 -8.49609 C 21.2891 -8.49609 19.6777 -10.0098 19.6777 -13.1836 L 19.6777 -57.2266 C 19.6777 -60.4004 21.2891 -61.9141 24.3164 -61.9141 L 86.6211 -61.9141 C 89.5996 -61.9141 91.2598 -60.4004 91.2598 -57.2266 L 91.2598 -13.1836 C 91.2598 -10.0098 89.5996 -8.49609 86.6211 -8.49609 Z M 43.8477 -19.4824 C 45.0684 -19.4824 46.0449 -19.873 46.8262 -20.6543 L 55.4199 -29.248 L 64.0625 -20.6543 C 64.8926 -19.873 65.8203 -19.4824 67.0898 -19.4824 C 69.3848 -19.4824 71.1426 -21.2891 71.1426 -23.584 C 71.1426 -24.707 70.7031 -25.6348 69.9219 -26.416 L 61.2793 -35.1074 L 69.9707 -43.7988 C 70.8008 -44.6289 71.1914 -45.5566 71.1914 -46.6309 C 71.1914 -48.9258 69.3848 -50.7324 67.0898 -50.7324 C 65.918 -50.7324 64.9902 -50.3906 64.1602 -49.5605 L 55.4199 -40.8691 L 46.7773 -49.5117 C 45.9961 -50.3418 45.0684 -50.6836 43.8477 -50.6836 C 41.5527 -50.6836 39.7461 -48.9258 39.7461 -46.6309 C 39.7461 -45.5078 40.1855 -44.5801 40.9668 -43.7988 L 49.6582 -35.1074 L 40.9668 -26.416 C 40.1855 -25.6348 39.7461 -24.6582 39.7461 -23.584 C 39.7461 -21.2891 41.5527 -19.4824 43.8477 -19.4824 Z"/>
  </g>
  <g id="Bold-S" transform="matrix(1 0 0 1 2284.29 696)">
   <path d="M 23.9746 2.00195 L 87.4023 2.00195 C 96.5332 2.00195 101.611 -3.07617 101.611 -12.1582 L 101.611 -58.252 C 101.611 -67.334 96.5332 -72.4121 87.4023 -72.4121 L 23.9746 -72.4121 C 14.8926 -72.4121 9.76562 -67.334 9.76562 -58.252 L 9.76562 -12.1582 C 9.76562 -3.07617 14.8926 2.00195 23.9746 2.00195 Z M 25.4395 -9.57031 C 22.7051 -9.57031 21.3379 -10.791 21.3379 -13.7207 L 21.3379 -56.6895 C 21.3379 -59.5703 22.7051 -60.8398 25.4395 -60.8398 L 85.9375 -60.8398 C 88.623 -60.8398 90.0391 -59.5703 90.0391 -56.6895 L 90.0391 -13.7207 C 90.0391 -10.791 88.623 -9.57031 85.9375 -9.57031 Z M 44.3848 -19.3848 C 45.8008 -19.3848 46.875 -19.8242 47.8027 -20.7031 L 55.6641 -28.5645 L 63.623 -20.7031 C 64.502 -19.8242 65.5762 -19.3848 66.9922 -19.3848 C 69.5801 -19.3848 71.5332 -21.3867 71.5332 -23.9746 C 71.5332 -25.1953 71.0449 -26.2695 70.166 -27.1484 L 62.207 -35.1074 L 70.2148 -43.1152 C 71.0938 -44.043 71.582 -45.1172 71.582 -46.2891 C 71.582 -48.877 69.5801 -50.8789 66.9922 -50.8789 C 65.625 -50.8789 64.5996 -50.4395 63.6719 -49.5117 L 55.6641 -41.6016 L 47.7539 -49.5117 C 46.875 -50.4395 45.8008 -50.8301 44.3848 -50.8301 C 41.8457 -50.8301 39.8438 -48.877 39.8438 -46.2891 C 39.8438 -45.0684 40.332 -43.9941 41.2109 -43.1152 L 49.1699 -35.1074 L 41.2109 -27.1484 C 40.332 -26.2695 39.8438 -25.1465 39.8438 -23.9746 C 39.8438 -21.3867 41.8457 -19.3848 44.3848 -19.3848 Z"/>
  </g>
  <g id="Heavy-S" transform="matrix(1 0 0 1 2580.66 696)">
   <path d="M 24.9023 2.83203 L 87.1094 2.83203 C 96.6309 2.83203 102.295 -2.7832 102.295 -12.3047 L 102.295 -58.1055 C 102.295 -67.627 96.6309 -73.2422 87.1094 -73.2422 L 24.9023 -73.2422 C 15.3809 -73.2422 9.76562 -67.627 9.76562 -58.1055 L 9.76562 -12.3047 C 9.76562 -2.7832 15.3809 2.83203 24.9023 2.83203 Z M 27.0996 -11.084 C 24.8047 -11.084 23.6816 -12.0117 23.6816 -14.502 L 23.6816 -55.9082 C 23.6816 -58.3984 24.8047 -59.3262 27.0996 -59.3262 L 84.9609 -59.3262 C 87.2559 -59.3262 88.3301 -58.3984 88.3301 -55.9082 L 88.3301 -14.502 C 88.3301 -12.0117 87.2559 -11.084 84.9609 -11.084 Z M 45.2148 -19.2383 C 46.875 -19.2383 48.0957 -19.7266 49.1699 -20.8008 L 56.0059 -27.5879 L 62.8906 -20.8008 C 63.9648 -19.7266 65.2344 -19.2383 66.8457 -19.2383 C 69.8242 -19.2383 72.1191 -21.5332 72.1191 -24.5605 C 72.1191 -25.8301 71.5332 -27.1484 70.5078 -28.1738 L 63.5742 -35.1562 L 70.5078 -42.1387 C 71.5332 -43.1641 72.1191 -44.4824 72.1191 -45.752 C 72.1191 -48.7793 69.8242 -51.0742 66.8457 -51.0742 C 65.2344 -51.0742 63.9648 -50.5859 62.9395 -49.5117 L 56.0059 -42.6758 L 49.1699 -49.5117 C 48.0957 -50.5859 46.875 -51.0742 45.2148 -51.0742 C 42.2363 -51.0742 39.9902 -48.7793 39.9902 -45.752 C 39.9902 -44.4824 40.5273 -43.1641 41.5527 -42.1387 L 48.5352 -35.1562 L 41.5527 -28.1738 C 40.5273 -27.1484 39.9902 -25.8301 39.9902 -24.5605 C 39.9902 -21.5332 42.2363 -19.2383 45.2148 -19.2383 Z"/>
  </g>
  <g id="Black-S" transform="matrix(1 0 0 1 2877.08 696)">
   <path d="M 25.7324 3.61328 L 86.9141 3.61328 C 96.7773 3.61328 102.881 -2.49023 102.881 -12.4023 L 102.881 -58.0078 C 102.881 -67.9199 96.7773 -74.0234 86.9141 -74.0234 L 25.7324 -74.0234 C 15.8203 -74.0234 9.76562 -67.9199 9.76562 -58.0078 L 9.76562 -12.4023 C 9.76562 -2.49023 15.8203 3.61328 25.7324 3.61328 Z M 28.5645 -12.4512 C 26.6602 -12.4512 25.8301 -13.0371 25.8301 -15.1855 L 25.8301 -55.2246 C 25.8301 -57.373 26.6602 -57.959 28.5645 -57.959 L 84.0332 -57.959 C 85.9863 -57.959 86.8164 -57.373 86.8164 -55.2246 L 86.8164 -15.1855 C 86.8164 -13.0371 85.9863 -12.4512 84.0332 -12.4512 Z M 45.9473 -19.1406 C 47.8027 -19.1406 49.2188 -19.6777 50.3906 -20.8496 L 56.3477 -26.709 L 62.3047 -20.8496 C 63.4766 -19.6777 64.8926 -19.1406 66.748 -19.1406 C 70.1172 -19.1406 72.6074 -21.6309 72.6074 -25.0488 C 72.6074 -26.4648 71.9727 -27.9297 70.8496 -29.0527 L 64.7949 -35.2051 L 70.8008 -41.2598 C 71.9238 -42.3828 72.6074 -43.8965 72.6074 -45.3125 C 72.6074 -48.7305 70.0684 -51.2207 66.748 -51.2207 C 64.8926 -51.2207 63.4277 -50.6836 62.2559 -49.5117 L 56.3477 -43.6035 L 50.4395 -49.5117 C 49.2188 -50.7324 47.8027 -51.2695 45.9473 -51.2695 C 42.5781 -51.2695 40.0879 -48.7305 40.0879 -45.3125 C 40.0879 -43.8965 40.7227 -42.4316 41.8945 -41.2598 L 47.998 -35.2051 L 41.8945 -29.1016 C 40.7227 -27.9297 40.0879 -26.4648 40.0879 -25.0488 C 40.0879 -21.6309 42.5781 -19.1406 45.9473 -19.1406 Z"/>
  </g>
  <g id="Ultralight-M" transform="matrix(1 0 0 1 490.863 1126)">
   <path d="M 25 7.56836 L 112.695 7.56836 C 120.898 7.56836 125.244 3.125 125.244 -4.98047 L 125.244 -65.2832 C 125.244 -73.3887 120.898 -77.832 112.695 -77.832 L 25 -77.832 C 16.7969 -77.832 12.4512 -73.4863 12.4512 -65.2832 L 12.4512 -4.98047 C 12.4512 3.22266 16.7969 7.56836 25 7.56836 Z M 25.1465 5.17578 C 18.3594 5.17578 14.8438 1.66016 14.8438 -5.07812 L 14.8438 -65.1855 C 14.8438 -71.9727 18.3594 -75.4395 25.1465 -75.4395 L 112.549 -75.4395 C 119.092 -75.4395 122.852 -71.9727 122.852 -65.1855 L 122.852 -5.07812 C 122.852 1.66016 119.092 5.17578 112.549 5.17578 Z M 51.0742 -15.9668 C 51.5137 -15.9668 51.7578 -16.0645 52.1973 -16.5039 L 68.8477 -33.1543 L 85.498 -16.5039 C 85.9375 -16.0645 86.2305 -15.9668 86.6211 -15.9668 C 87.4512 -15.9668 88.0371 -16.5039 88.0371 -17.2363 C 88.0371 -17.627 87.8906 -17.9199 87.5488 -18.3105 L 70.8008 -35.0586 L 87.5488 -51.8555 C 87.8906 -52.1973 88.0371 -52.4902 88.0371 -52.9297 C 88.0371 -53.6621 87.4512 -54.1992 86.6211 -54.1992 C 86.2305 -54.1992 85.9375 -54.1016 85.498 -53.6621 L 68.8477 -37.0117 L 52.1973 -53.6621 C 51.7578 -54.1016 51.5137 -54.1992 51.0742 -54.1992 C 50.2441 -54.1992 49.6582 -53.6621 49.6582 -52.9297 C 49.6582 -52.4902 49.7559 -52.1973 50.1465 -51.8555 L 66.8945 -35.0586 L 50.1465 -18.3105 C 49.7559 -17.9199 49.6582 -17.627 49.6582 -17.2363 C 49.6582 -16.5039 50.2441 -15.9668 51.0742 -15.9668 Z"/>
  </g>
  <g id="Thin-M" transform="matrix(1 0 0 1 787.306 1126)">
   <path d="M 25.6348 8.05664 L 112.598 8.05664 C 121.24 8.05664 125.781 3.4668 125.781 -5.0293 L 125.781 -65.2344 C 125.781 -73.7305 121.24 -78.3691 112.598 -78.3691 L 25.6348 -78.3691 C 16.9922 -78.3691 12.4512 -73.877 12.4512 -65.2344 L 12.4512 -5.0293 C 12.4512 3.56445 16.9922 8.05664 25.6348 8.05664 Z M 25.7324 4.44336 C 19.4336 4.44336 16.1133 1.12305 16.1133 -5.22461 L 16.1133 -65.0391 C 16.1133 -71.4355 19.4336 -74.7559 25.7324 -74.7559 L 112.451 -74.7559 C 118.604 -74.7559 122.119 -71.4355 122.119 -65.0391 L 122.119 -5.22461 C 122.119 1.12305 118.604 4.44336 112.451 4.44336 Z M 51.7578 -15.8203 C 52.3438 -15.8203 52.7344 -16.0156 53.2227 -16.5039 L 69.0918 -32.373 L 85.0098 -16.5039 C 85.498 -16.0156 85.8887 -15.8203 86.4746 -15.8203 C 87.5488 -15.8203 88.3789 -16.6016 88.3789 -17.627 C 88.3789 -18.2129 88.2324 -18.6035 87.793 -19.0918 L 71.7773 -35.0586 L 87.793 -51.0742 C 88.2324 -51.5137 88.4277 -51.9043 88.4277 -52.4902 C 88.4277 -53.5156 87.5488 -54.2969 86.4746 -54.2969 C 85.9375 -54.2969 85.5469 -54.1504 85.0098 -53.6133 L 69.0918 -37.7441 L 53.2227 -53.6133 C 52.7344 -54.1016 52.3438 -54.2969 51.7578 -54.2969 C 50.6836 -54.2969 49.8047 -53.5156 49.8047 -52.4902 C 49.8047 -51.9043 50 -51.5137 50.4395 -51.0742 L 66.4062 -35.0586 L 50.4395 -19.0918 C 50 -18.6035 49.8047 -18.2129 49.8047 -17.627 C 49.8047 -16.6016 50.6836 -15.8203 51.7578 -15.8203 Z"/>
  </g>
  <g id="Light-M" transform="matrix(1 0 0 1 1083.48 1126)">
   <path d="M 26.8555 9.0332 L 112.402 9.0332 C 121.973 9.0332 126.807 4.15039 126.807 -5.22461 L 126.807 -65.0879 C 126.807 -74.5117 121.973 -79.3945 112.402 -79.3945 L 26.8555 -79.3945 C 17.334 -79.3945 12.4512 -74.5605 12.4512 -65.0879 L 12.4512 -5.22461 C 12.4512 4.19922 17.334 9.0332 26.8555 9.0332 Z M 27.002 2.97852 C 21.4844 2.97852 18.5059 0.0976562 18.5059 -5.56641 L 18.5059 -64.7949 C 18.5059 -70.4102 21.4844 -73.3398 27.002 -73.3398 L 112.305 -73.3398 C 117.676 -73.3398 120.801 -70.4102 120.801 -64.7949 L 120.801 -5.56641 C 120.801 0.0976562 117.676 2.97852 112.305 2.97852 Z M 53.0762 -15.5762 C 53.9551 -15.5762 54.5898 -15.8691 55.2246 -16.5039 L 69.6289 -30.9082 L 84.0332 -16.5039 C 84.668 -15.918 85.3027 -15.5762 86.1816 -15.5762 C 87.793 -15.5762 89.1113 -16.8945 89.1113 -18.457 C 89.1113 -19.3848 88.8184 -19.9707 88.2324 -20.6055 L 73.7793 -35.0586 L 88.2324 -49.5605 C 88.8672 -50.1953 89.1113 -50.7812 89.1113 -51.6602 C 89.1113 -53.2227 87.8418 -54.4922 86.2305 -54.4922 C 85.4004 -54.4922 84.7656 -54.248 84.1309 -53.5645 L 69.6289 -39.1113 L 55.1758 -53.5645 C 54.541 -54.1992 53.9551 -54.4434 53.0762 -54.4434 C 51.4648 -54.4434 50.1465 -53.1738 50.1465 -51.6113 C 50.1465 -50.7324 50.4395 -50.0977 51.0254 -49.5117 L 65.4785 -35.0586 L 51.0254 -20.5566 C 50.4395 -19.9707 50.1465 -19.3359 50.1465 -18.457 C 50.1465 -16.8945 51.4648 -15.5762 53.0762 -15.5762 Z"/>
  </g>
  <g id="Regular-M" transform="matrix(1 0 0 1 1379.8 1126)">
   <path d="M 27.7832 9.76562 L 112.305 9.76562 C 122.51 9.76562 127.637 4.6875 127.637 -5.37109 L 127.637 -64.9902 C 127.637 -75.0488 122.51 -80.127 112.305 -80.127 L 27.7832 -80.127 C 17.627 -80.127 12.4512 -75.0977 12.4512 -64.9902 L 12.4512 -5.37109 C 12.4512 4.73633 17.627 9.76562 27.7832 9.76562 Z M 27.9297 1.9043 C 23.0469 1.9043 20.3125 -0.683594 20.3125 -5.76172 L 20.3125 -64.5996 C 20.3125 -69.6777 23.0469 -72.2656 27.9297 -72.2656 L 112.158 -72.2656 C 116.992 -72.2656 119.775 -69.6777 119.775 -64.5996 L 119.775 -5.76172 C 119.775 -0.683594 116.992 1.9043 112.158 1.9043 Z M 54.1016 -15.3809 C 55.1758 -15.3809 56.0059 -15.7715 56.7383 -16.5039 L 69.9707 -29.834 L 83.3008 -16.5039 C 84.0332 -15.8203 84.8145 -15.3809 85.9375 -15.3809 C 87.9883 -15.3809 89.6484 -17.0898 89.6484 -19.0918 C 89.6484 -20.2148 89.2578 -20.9961 88.5254 -21.7285 L 75.2441 -35.0098 L 88.5742 -48.3887 C 89.3555 -49.1699 89.6973 -49.9023 89.6973 -50.9766 C 89.6973 -53.0273 88.0371 -54.6387 85.9863 -54.6387 C 84.9609 -54.6387 84.2285 -54.3457 83.4473 -53.5645 L 69.9707 -40.1855 L 56.6406 -53.5156 C 55.957 -54.248 55.1758 -54.541 54.1016 -54.541 C 52.0508 -54.541 50.3906 -52.9785 50.3906 -50.9277 C 50.3906 -49.8535 50.7812 -49.0723 51.4648 -48.3398 L 64.7949 -35.0098 L 51.4648 -21.6797 C 50.7812 -20.9961 50.3906 -20.166 50.3906 -19.0918 C 50.3906 -17.0898 52.0508 -15.3809 54.1016 -15.3809 Z"/>
  </g>
  <g id="Medium-M" transform="matrix(1 0 0 1 1676.24 1126)">
   <path d="M 28.5645 10.4492 L 112.109 10.4492 C 122.656 10.4492 128.174 4.98047 128.174 -5.46875 L 128.174 -64.8926 C 128.174 -75.3418 122.656 -80.8105 112.109 -80.8105 L 28.5645 -80.8105 C 17.9688 -80.8105 12.4512 -75.3906 12.4512 -64.8926 L 12.4512 -5.46875 C 12.4512 4.98047 17.9688 10.4492 28.5645 10.4492 Z M 29.1504 0.732422 C 24.6582 0.732422 22.2168 -1.61133 22.2168 -6.34766 L 22.2168 -64.0137 C 22.2168 -68.75 24.6582 -71.0938 29.1504 -71.0938 L 111.475 -71.0938 C 115.918 -71.0938 118.408 -68.75 118.408 -64.0137 L 118.408 -6.34766 C 118.408 -1.61133 115.918 0.732422 111.475 0.732422 Z M 54.7852 -15.2832 C 56.0547 -15.2832 57.0312 -15.7227 57.8613 -16.5527 L 70.2637 -29.0039 L 82.7148 -16.5527 C 83.5938 -15.7715 84.5215 -15.2832 85.8398 -15.2832 C 88.1836 -15.2832 90.0879 -17.1875 90.0879 -19.5801 C 90.0879 -20.8008 89.6484 -21.7285 88.8184 -22.6074 L 76.3672 -35.0586 L 88.8672 -47.6074 C 89.7461 -48.4375 90.1367 -49.3652 90.1367 -50.5371 C 90.1367 -52.9297 88.2324 -54.7852 85.8887 -54.7852 C 84.668 -54.7852 83.7402 -54.4434 82.8613 -53.5156 L 70.2637 -41.0645 L 57.8125 -53.5156 C 56.9824 -54.3457 56.0547 -54.7363 54.7852 -54.7363 C 52.3926 -54.7363 50.5371 -52.8809 50.5371 -50.5371 C 50.5371 -49.3164 50.9766 -48.3887 51.8066 -47.5586 L 64.2578 -35.0586 L 51.8066 -22.5586 C 50.9766 -21.7285 50.5371 -20.752 50.5371 -19.5801 C 50.5371 -17.1875 52.3926 -15.2832 54.7852 -15.2832 Z"/>
  </g>
  <g id="Semibold-M" transform="matrix(1 0 0 1 1972.73 1126)">
   <path d="M 29.1016 10.9863 L 111.914 10.9863 C 122.803 10.9863 128.613 5.17578 128.613 -5.56641 L 128.613 -64.8438 C 128.613 -75.5859 122.803 -81.3477 111.914 -81.3477 L 29.1016 -81.3477 C 18.3105 -81.3477 12.4512 -75.5859 12.4512 -64.8438 L 12.4512 -5.56641 C 12.4512 5.22461 18.3105 10.9863 29.1016 10.9863 Z M 30.127 -0.195312 C 25.9277 -0.195312 23.6328 -2.34375 23.6328 -6.78711 L 23.6328 -63.623 C 23.6328 -68.0664 25.9277 -70.166 30.127 -70.166 L 110.938 -70.166 C 115.088 -70.166 117.432 -68.0664 117.432 -63.623 L 117.432 -6.78711 C 117.432 -2.34375 115.088 -0.195312 110.938 -0.195312 Z M 55.3223 -15.2344 C 56.7383 -15.2344 57.8125 -15.6738 58.7402 -16.6016 L 70.5078 -28.3691 L 82.2754 -16.6016 C 83.252 -15.6738 84.2773 -15.2344 85.7422 -15.2344 C 88.3789 -15.2344 90.4297 -17.2852 90.4297 -19.9219 C 90.4297 -21.2402 89.9414 -22.3145 89.0137 -23.2422 L 77.2461 -35.0586 L 89.0625 -46.9727 C 89.9902 -47.9004 90.4785 -48.9258 90.4785 -50.1953 C 90.4785 -52.832 88.3789 -54.9316 85.791 -54.9316 C 84.4238 -54.9316 83.3496 -54.4922 82.373 -53.5156 L 70.5078 -41.6992 L 58.6914 -53.4668 C 57.7637 -54.4434 56.7383 -54.834 55.3223 -54.834 C 52.6855 -54.834 50.6348 -52.832 50.6348 -50.1953 C 50.6348 -48.9258 51.123 -47.8516 52.002 -46.9238 L 63.8184 -35.0586 L 52.002 -23.1934 C 51.123 -22.3145 50.6348 -21.1914 50.6348 -19.9219 C 50.6348 -17.2852 52.6855 -15.2344 55.3223 -15.2344 Z"/>
  </g>
  <g id="Bold-M" transform="matrix(1 0 0 1 2269.18 1126)">
   <path d="M 29.8828 11.6699 L 111.719 11.6699 C 122.949 11.6699 129.15 5.46875 129.15 -5.66406 L 129.15 -64.6973 C 129.15 -75.8789 122.949 -82.0312 111.719 -82.0312 L 29.8828 -82.0312 C 18.6523 -82.0312 12.4512 -75.8789 12.4512 -64.6973 L 12.4512 -5.66406 C 12.4512 5.51758 18.6523 11.6699 29.8828 11.6699 Z M 31.3965 -1.41602 C 27.5879 -1.41602 25.5371 -3.27148 25.5371 -7.32422 L 25.5371 -63.0371 C 25.5371 -67.1387 27.5879 -68.9453 31.3965 -68.9453 L 110.205 -68.9453 C 114.014 -68.9453 116.064 -67.1387 116.064 -63.0371 L 116.064 -7.32422 C 116.064 -3.27148 114.014 -1.41602 110.205 -1.41602 Z M 56.0059 -15.0879 C 57.6172 -15.0879 58.8379 -15.625 59.9121 -16.6504 L 70.8008 -27.5391 L 81.7383 -16.6504 C 82.7637 -15.625 83.9844 -15.0879 85.6445 -15.0879 C 88.5742 -15.0879 90.918 -17.4316 90.918 -20.4102 C 90.918 -21.8262 90.332 -23.0469 89.3066 -24.0723 L 78.3691 -35.0586 L 89.3555 -46.1426 C 90.3809 -47.168 90.918 -48.3887 90.918 -49.7559 C 90.918 -52.7832 88.623 -55.0781 85.6445 -55.0781 C 84.082 -55.0781 82.8613 -54.5898 81.7871 -53.5156 L 70.8008 -42.5781 L 59.8633 -53.4668 C 58.8379 -54.541 57.6172 -55.0293 56.0059 -55.0293 C 53.0273 -55.0293 50.7324 -52.7344 50.7324 -49.7559 C 50.7324 -48.3887 51.2695 -47.1191 52.2949 -46.0938 L 63.2812 -35.0586 L 52.2949 -24.0723 C 51.2695 -23.0469 50.7324 -21.7773 50.7324 -20.4102 C 50.7324 -17.4316 53.0273 -15.0879 56.0059 -15.0879 Z"/>
  </g>
  <g id="Heavy-M" transform="matrix(1 0 0 1 2565.47 1126)">
   <path d="M 31.0059 12.6465 L 111.426 12.6465 C 123.193 12.6465 129.98 5.9082 129.98 -5.81055 L 129.98 -64.5508 C 129.98 -76.2695 123.193 -83.0566 111.426 -83.0566 L 31.0059 -83.0566 C 19.2383 -83.0566 12.4512 -76.3184 12.4512 -64.5508 L 12.4512 -5.81055 C 12.4512 5.9082 19.2383 12.6465 31.0059 12.6465 Z M 33.252 -3.17383 C 29.9805 -3.17383 28.2715 -4.63867 28.2715 -8.1543 L 28.2715 -62.207 C 28.2715 -65.7715 29.9805 -67.2363 33.252 -67.2363 L 109.18 -67.2363 C 112.451 -67.2363 114.16 -65.7715 114.16 -62.207 L 114.16 -8.1543 C 114.16 -4.63867 112.451 -3.17383 109.18 -3.17383 Z M 56.9824 -14.9414 C 58.8867 -14.9414 60.3516 -15.5273 61.5723 -16.748 L 71.1914 -26.3184 L 80.9082 -16.748 C 82.1289 -15.5273 83.5449 -14.9414 85.4492 -14.9414 C 88.916 -14.9414 91.5527 -17.5781 91.5527 -21.0938 C 91.5527 -22.6562 90.918 -24.1211 89.7461 -25.3418 L 79.9805 -35.1074 L 89.7461 -44.9219 C 90.918 -46.0938 91.5527 -47.5586 91.5527 -49.1211 C 91.5527 -52.6367 88.916 -55.2734 85.4492 -55.2734 C 83.5938 -55.2734 82.1777 -54.7363 80.9082 -53.4668 L 71.1914 -43.8477 L 61.5723 -53.4668 C 60.3516 -54.6875 58.8867 -55.2734 56.9824 -55.2734 C 53.5645 -55.2734 50.8789 -52.6367 50.8789 -49.1211 C 50.8789 -47.5586 51.5625 -46.0938 52.7344 -44.9219 L 62.5488 -35.1074 L 52.7344 -25.3418 C 51.5625 -24.1211 50.8789 -22.6562 50.8789 -21.0938 C 50.8789 -17.5781 53.5645 -14.9414 56.9824 -14.9414 Z"/>
  </g>
  <g id="Black-M" transform="matrix(1 0 0 1 2861.82 1126)">
   <path d="M 31.9824 13.5742 L 111.182 13.5742 C 123.389 13.5742 130.713 6.29883 130.713 -5.95703 L 130.713 -64.4043 C 130.713 -76.6602 123.389 -83.9355 111.182 -83.9355 L 31.9824 -83.9355 C 19.7266 -83.9355 12.4512 -76.6602 12.4512 -64.4043 L 12.4512 -5.95703 C 12.4512 6.29883 19.7266 13.5742 31.9824 13.5742 Z M 34.9121 -4.73633 C 32.0801 -4.73633 30.7617 -5.81055 30.7617 -8.88672 L 30.7617 -61.4746 C 30.7617 -64.5508 32.0801 -65.6738 34.9121 -65.6738 L 108.252 -65.6738 C 111.035 -65.6738 112.402 -64.5508 112.402 -61.4746 L 112.402 -8.88672 C 112.402 -5.81055 111.035 -4.73633 108.252 -4.73633 Z M 57.9102 -14.7949 C 60.0586 -14.7949 61.6699 -15.4297 63.0859 -16.7969 L 71.582 -25.2441 L 80.127 -16.7969 C 81.543 -15.4297 83.1543 -14.7949 85.3027 -14.7949 C 89.209 -14.7949 92.1875 -17.7734 92.1875 -21.7285 C 92.1875 -23.4375 91.4062 -25.0977 90.0879 -26.416 L 81.4453 -35.1562 L 90.0879 -43.8477 C 91.4062 -45.166 92.1875 -46.875 92.1875 -48.5352 C 92.1875 -52.5391 89.209 -55.4688 85.3027 -55.4688 C 83.1543 -55.4688 81.543 -54.834 80.127 -53.4668 L 71.582 -44.9707 L 63.0859 -53.4668 C 61.6699 -54.834 60.0586 -55.4688 57.9102 -55.4688 C 54.0039 -55.4688 51.0742 -52.5391 51.0742 -48.5352 C 51.0742 -46.875 51.8066 -45.166 53.125 -43.8477 L 61.8164 -35.1562 L 53.125 -26.416 C 51.8066 -25.0977 51.0742 -23.4375 51.0742 -21.7285 C 51.0742 -17.7734 54.0039 -14.7949 57.9102 -14.7949 Z"/>
  </g>
  <g id="Ultralight-L" transform="matrix(1 0 0 1 470.99 1556)">
   <path d="M 31.9824 19.7754 L 145.459 19.7754 C 155.811 19.7754 161.377 14.0625 161.377 3.85742 L 161.377 -74.0723 C 161.377 -84.2773 155.811 -89.9902 145.459 -89.9902 L 31.9824 -89.9902 C 21.6309 -89.9902 16.0645 -84.4727 16.0645 -74.0723 L 16.0645 3.85742 C 16.0645 14.2578 21.6309 19.7754 31.9824 19.7754 Z M 32.1289 17.2363 C 23.2422 17.2363 18.6523 12.6465 18.6523 3.75977 L 18.6523 -73.9258 C 18.6523 -82.8125 23.2422 -87.4512 32.1289 -87.4512 L 145.264 -87.4512 C 153.857 -87.4512 158.789 -82.8125 158.789 -73.9258 L 158.789 3.75977 C 158.789 12.6465 153.857 17.2363 145.264 17.2363 Z M 65.5762 -10.4004 C 66.1621 -10.4004 66.4062 -10.5469 66.9434 -11.084 L 88.7207 -32.8613 L 110.498 -11.084 C 111.035 -10.5469 111.377 -10.4004 111.865 -10.4004 C 112.744 -10.4004 113.428 -10.9863 113.428 -11.8164 C 113.428 -12.2559 113.33 -12.6465 112.891 -13.0371 L 90.8691 -35.0586 L 112.842 -56.9824 C 113.281 -57.4219 113.428 -57.7637 113.428 -58.252 C 113.428 -59.082 112.744 -59.668 111.865 -59.668 C 111.377 -59.668 111.035 -59.5215 110.498 -58.9844 L 88.7207 -37.207 L 66.9434 -59.0332 C 66.4062 -59.5215 66.1621 -59.668 65.5762 -59.668 C 64.6973 -59.668 64.0137 -59.082 64.0137 -58.252 C 64.0137 -57.7637 64.1113 -57.4219 64.5508 -56.9824 L 86.5723 -35.0586 L 64.5508 -13.0859 C 64.1113 -12.6465 64.0137 -12.3047 64.0137 -11.8164 C 64.0137 -10.9863 64.6973 -10.4004 65.5762 -10.4004 Z"/>
  </g>
  <g id="Thin-L" transform="matrix(1 0 0 1 767.409 1556)">
   <path d="M 32.7148 20.3613 L 145.361 20.3613 C 156.25 20.3613 161.963 14.4531 161.963 3.75977 L 161.963 -73.9746 C 161.963 -84.7168 156.25 -90.5762 145.361 -90.5762 L 32.7148 -90.5762 C 21.8262 -90.5762 16.0645 -84.8633 16.0645 -73.9746 L 16.0645 3.75977 C 16.0645 14.6484 21.8262 20.3613 32.7148 20.3613 Z M 32.8613 16.4062 C 24.4141 16.4062 20.0195 12.0117 20.0195 3.56445 L 20.0195 -73.7793 C 20.0195 -82.2754 24.4141 -86.6699 32.8613 -86.6699 L 145.166 -86.6699 C 153.32 -86.6699 158.008 -82.2754 158.008 -73.7793 L 158.008 3.56445 C 158.008 12.0117 153.32 16.4062 145.166 16.4062 Z M 66.3574 -10.2539 C 67.041 -10.2539 67.4805 -10.4492 68.0664 -11.084 L 89.0137 -32.0312 L 109.961 -11.084 C 110.596 -10.4492 111.035 -10.2539 111.67 -10.2539 C 112.891 -10.2539 113.818 -11.1328 113.818 -12.2559 C 113.818 -12.9395 113.623 -13.3789 113.135 -13.916 L 92.041 -35.0098 L 113.135 -56.1523 C 113.672 -56.6895 113.867 -57.1289 113.867 -57.7637 C 113.867 -58.8867 112.891 -59.7656 111.719 -59.7656 C 111.035 -59.7656 110.596 -59.5703 110.01 -58.9844 L 89.0137 -38.0371 L 68.0664 -58.9844 C 67.4316 -59.5703 67.041 -59.7656 66.3574 -59.7656 C 65.1367 -59.7656 64.209 -58.8867 64.209 -57.7637 C 64.209 -57.1289 64.4043 -56.6406 64.8926 -56.1035 L 86.0352 -35.0098 L 64.8926 -13.916 C 64.4043 -13.3789 64.209 -12.9395 64.209 -12.2559 C 64.209 -11.1328 65.1367 -10.2539 66.3574 -10.2539 Z"/>
  </g>
  <g id="Light-L" transform="matrix(1 0 0 1 1063.53 1556)">
   <path d="M 34.082 21.4355 L 145.166 21.4355 C 157.031 21.4355 163.135 15.2344 163.135 3.56445 L 163.135 -73.8281 C 163.135 -85.5469 157.031 -91.6992 145.166 -91.6992 L 34.082 -91.6992 C 22.2168 -91.6992 16.0645 -85.6445 16.0645 -73.8281 L 16.0645 3.56445 C 16.0645 15.3809 22.2168 21.4355 34.082 21.4355 Z M 34.2285 14.7949 C 26.709 14.7949 22.7051 10.8398 22.7051 3.22266 L 22.7051 -73.4863 C 22.7051 -81.1523 26.709 -85.0586 34.2285 -85.0586 L 144.971 -85.0586 C 152.295 -85.0586 156.494 -81.1523 156.494 -73.4863 L 156.494 3.22266 C 156.494 10.8398 152.295 14.7949 144.971 14.7949 Z M 67.8223 -10.0098 C 68.8477 -10.0098 69.5312 -10.3027 70.2637 -11.084 L 89.5996 -30.3711 L 108.887 -11.084 C 109.668 -10.3516 110.352 -10.0098 111.328 -10.0098 C 113.184 -10.0098 114.6 -11.4258 114.6 -13.1836 C 114.6 -14.209 114.307 -14.8926 113.623 -15.625 L 94.2383 -35.0098 L 113.623 -54.4434 C 114.355 -55.1758 114.648 -55.8594 114.648 -56.8359 C 114.648 -58.5938 113.184 -60.0098 111.377 -60.0098 C 110.449 -60.0098 109.766 -59.7168 108.984 -58.9355 L 89.5996 -39.5996 L 70.2148 -58.8867 C 69.4824 -59.668 68.8477 -59.9121 67.8223 -59.9121 C 66.0156 -59.9121 64.5508 -58.5449 64.5508 -56.7871 C 64.5508 -55.8105 64.8926 -55.127 65.5762 -54.3945 L 84.9609 -35.0098 L 65.5762 -15.5762 C 64.8926 -14.8926 64.5508 -14.1602 64.5508 -13.1836 C 64.5508 -11.4258 66.0156 -10.0098 67.8223 -10.0098 Z"/>
  </g>
  <g id="Regular-L" transform="matrix(1 0 0 1 1359.81 1556)">
   <path d="M 35.1074 22.2168 L 145.02 22.2168 C 157.666 22.2168 164.014 15.8691 164.014 3.41797 L 164.014 -73.7305 C 164.014 -86.1816 157.666 -92.5293 145.02 -92.5293 L 35.1074 -92.5293 C 22.5098 -92.5293 16.0645 -86.2305 16.0645 -73.7305 L 16.0645 3.41797 C 16.0645 15.918 22.5098 22.2168 35.1074 22.2168 Z M 35.2539 13.5742 C 28.4668 13.5742 24.7559 9.96094 24.7559 2.97852 L 24.7559 -73.291 C 24.7559 -80.2734 28.4668 -83.8867 35.2539 -83.8867 L 144.824 -83.8867 C 151.514 -83.8867 155.371 -80.2734 155.371 -73.291 L 155.371 2.97852 C 155.371 9.96094 151.514 13.5742 144.824 13.5742 Z M 68.9453 -9.81445 C 70.2148 -9.81445 71.0938 -10.2051 71.9727 -11.084 L 89.9902 -29.1504 L 108.105 -11.084 C 108.936 -10.2539 109.814 -9.81445 111.084 -9.81445 C 113.379 -9.81445 115.234 -11.6699 115.234 -13.916 C 115.234 -15.1367 114.795 -16.0156 113.965 -16.8945 L 95.8984 -34.9609 L 114.014 -53.1738 C 114.893 -54.0527 115.283 -54.8828 115.283 -56.1035 C 115.283 -58.3496 113.428 -60.1562 111.133 -60.1562 C 110.01 -60.1562 109.131 -59.8145 108.252 -58.8867 L 89.9902 -40.7715 L 71.875 -58.8379 C 71.0449 -59.7168 70.2148 -60.0586 68.9453 -60.0586 C 66.6992 -60.0586 64.8438 -58.3008 64.8438 -56.0547 C 64.8438 -54.834 65.2344 -53.9551 66.0645 -53.125 L 84.1797 -34.9609 L 66.0645 -16.8457 C 65.2344 -16.0156 64.8438 -15.0879 64.8438 -13.916 C 64.8438 -11.6699 66.6992 -9.81445 68.9453 -9.81445 Z"/>
  </g>
  <g id="Medium-L" transform="matrix(1 0 0 1 1656.17 1556)">
   <path d="M 35.9863 22.998 L 144.775 22.998 C 157.91 22.998 164.697 16.2109 164.697 3.27148 L 164.697 -73.6328 C 164.697 -86.5234 157.91 -93.3105 144.775 -93.3105 L 35.9863 -93.3105 C 22.9004 -93.3105 16.0645 -86.5723 16.0645 -73.6328 L 16.0645 3.27148 C 16.0645 16.2598 22.9004 22.998 35.9863 22.998 Z M 36.6211 12.2559 C 30.2734 12.2559 26.8066 8.98438 26.8066 2.39258 L 26.8066 -72.7051 C 26.8066 -79.2969 30.2734 -82.6172 36.6211 -82.6172 L 144.189 -82.6172 C 150.391 -82.6172 153.955 -79.2969 153.955 -72.7051 L 153.955 2.39258 C 153.955 8.98438 150.391 12.2559 144.189 12.2559 Z M 69.7754 -9.66797 C 71.2402 -9.66797 72.3145 -10.1074 73.3398 -11.1328 L 90.332 -28.1738 L 107.422 -11.1328 C 108.398 -10.1562 109.473 -9.66797 110.938 -9.66797 C 113.623 -9.66797 115.723 -11.8164 115.723 -14.4531 C 115.723 -15.8691 115.234 -16.8945 114.307 -17.8711 L 97.2168 -35.0098 L 114.355 -52.1973 C 115.332 -53.1738 115.771 -54.1992 115.771 -55.5664 C 115.771 -58.2031 113.672 -60.3516 110.986 -60.3516 C 109.619 -60.3516 108.594 -59.9121 107.568 -58.8867 L 90.332 -41.748 L 73.2422 -58.8379 C 72.2656 -59.8145 71.2402 -60.2539 69.7754 -60.2539 C 67.1387 -60.2539 64.9902 -58.2031 64.9902 -55.5176 C 64.9902 -54.1504 65.4785 -53.0762 66.4551 -52.1484 L 83.5449 -35.0098 L 66.4551 -17.8223 C 65.4785 -16.8945 64.9902 -15.8203 64.9902 -14.4531 C 64.9902 -11.8164 67.1387 -9.66797 69.7754 -9.66797 Z"/>
  </g>
  <g id="Semibold-L" transform="matrix(1 0 0 1 1952.62 1556)">
   <path d="M 36.6699 23.584 L 144.629 23.584 C 158.105 23.584 165.186 16.5039 165.186 3.17383 L 165.186 -73.5352 C 165.186 -86.8164 158.105 -93.9453 144.629 -93.9453 L 36.6699 -93.9453 C 23.2422 -93.9453 16.0645 -86.8652 16.0645 -73.5352 L 16.0645 3.17383 C 16.0645 16.5527 23.2422 23.584 36.6699 23.584 Z M 37.6465 11.2793 C 31.6406 11.2793 28.418 8.20312 28.418 1.95312 L 28.418 -72.3145 C 28.418 -78.5156 31.6406 -81.5918 37.6465 -81.5918 L 143.652 -81.5918 C 149.561 -81.5918 152.881 -78.5156 152.881 -72.3145 L 152.881 1.95312 C 152.881 8.20312 149.561 11.2793 143.652 11.2793 Z M 70.4102 -9.57031 C 72.0703 -9.57031 73.2422 -10.0586 74.3652 -11.1328 L 90.5762 -27.4414 L 106.885 -11.1328 C 108.008 -10.1074 109.18 -9.57031 110.84 -9.57031 C 113.818 -9.57031 116.162 -11.9141 116.162 -14.8926 C 116.162 -16.4062 115.576 -17.5781 114.551 -18.6523 L 98.2422 -35.0098 L 114.6 -51.416 C 115.674 -52.5391 116.162 -53.7109 116.162 -55.1758 C 116.162 -58.1543 113.818 -60.4492 110.889 -60.4492 C 109.326 -60.4492 108.154 -59.9609 107.031 -58.8379 L 90.5762 -42.5293 L 74.2676 -58.8379 C 73.2422 -59.9121 72.0703 -60.3516 70.4102 -60.3516 C 67.4805 -60.3516 65.1367 -58.1055 65.1367 -55.127 C 65.1367 -53.6621 65.6738 -52.4414 66.6992 -51.416 L 83.0566 -35.0098 L 66.6992 -18.6035 C 65.6738 -17.5781 65.1367 -16.3574 65.1367 -14.8926 C 65.1367 -11.9141 67.4805 -9.57031 70.4102 -9.57031 Z"/>
  </g>
  <g id="Bold-L" transform="matrix(1 0 0 1 2249.01 1556)">
   <path d="M 37.5488 24.3652 L 144.434 24.3652 C 158.35 24.3652 165.869 16.8945 165.869 3.07617 L 165.869 -73.3887 C 165.869 -87.207 158.35 -94.7266 144.434 -94.7266 L 37.5488 -94.7266 C 23.6328 -94.7266 16.0645 -87.2559 16.0645 -73.3887 L 16.0645 3.07617 C 16.0645 16.8945 23.6328 24.3652 37.5488 24.3652 Z M 38.9648 9.91211 C 33.4473 9.91211 30.5176 7.17773 30.5176 1.41602 L 30.5176 -71.7285 C 30.5176 -77.5391 33.4473 -80.2734 38.9648 -80.2734 L 142.969 -80.2734 C 148.438 -80.2734 151.416 -77.5391 151.416 -71.7285 L 151.416 1.41602 C 151.416 7.17773 148.438 9.91211 142.969 9.91211 Z M 71.2891 -9.42383 C 73.0957 -9.42383 74.5117 -10.0098 75.7324 -11.2305 L 90.918 -26.4648 L 106.25 -11.2305 C 107.471 -10.0098 108.838 -9.42383 110.693 -9.42383 C 114.062 -9.42383 116.65 -12.0605 116.65 -15.4785 C 116.65 -17.0898 116.064 -18.457 114.893 -19.6777 L 99.5605 -35.0098 L 114.893 -50.4395 C 116.113 -51.6602 116.699 -53.0273 116.699 -54.6387 C 116.699 -58.0078 114.062 -60.6445 110.693 -60.6445 C 108.936 -60.6445 107.568 -60.1074 106.348 -58.8379 L 90.918 -43.5547 L 75.6348 -58.7891 C 74.4629 -60.0098 73.0957 -60.5469 71.2891 -60.5469 C 67.9199 -60.5469 65.2832 -57.959 65.2832 -54.5898 C 65.2832 -52.9785 65.918 -51.5625 67.0898 -50.3906 L 82.4219 -35.0098 L 67.0898 -19.6289 C 65.918 -18.457 65.2832 -17.0898 65.2832 -15.4785 C 65.2832 -12.0605 67.9199 -9.42383 71.2891 -9.42383 Z"/>
  </g>
  <g id="Heavy-L" transform="matrix(1 0 0 1 2545.23 1556)">
   <path d="M 38.8184 25.4883 L 144.092 25.4883 C 158.74 25.4883 166.846 17.4316 166.846 2.88086 L 166.846 -73.2422 C 166.846 -87.793 158.74 -95.8496 144.092 -95.8496 L 38.8184 -95.8496 C 24.2188 -95.8496 16.0645 -87.793 16.0645 -73.2422 L 16.0645 2.88086 C 16.0645 17.4316 24.2188 25.4883 38.8184 25.4883 Z M 40.9668 8.00781 C 36.1328 8.00781 33.5938 5.71289 33.5938 0.585938 L 33.5938 -70.9473 C 33.5938 -76.0742 36.1328 -78.3691 40.9668 -78.3691 L 141.992 -78.3691 C 146.777 -78.3691 149.365 -76.0742 149.365 -70.9473 L 149.365 0.585938 C 149.365 5.71289 146.777 8.00781 141.992 8.00781 Z M 72.5098 -9.22852 C 74.6582 -9.22852 76.2695 -9.86328 77.6855 -11.2793 L 91.4551 -25 L 105.273 -11.2793 C 106.641 -9.91211 108.301 -9.22852 110.449 -9.22852 C 114.404 -9.22852 117.432 -12.3047 117.432 -16.2598 C 117.432 -18.1152 116.699 -19.7754 115.332 -21.1426 L 101.514 -35.0586 L 115.381 -48.9746 C 116.748 -50.3906 117.48 -52.002 117.48 -53.8574 C 117.48 -57.8125 114.404 -60.8887 110.498 -60.8887 C 108.35 -60.8887 106.787 -60.2539 105.322 -58.7891 L 91.4551 -45.0195 L 77.6367 -58.7891 C 76.2695 -60.1562 74.6582 -60.791 72.5098 -60.791 C 68.5547 -60.791 65.5273 -57.8125 65.5273 -53.8086 C 65.5273 -52.002 66.2598 -50.293 67.627 -48.9746 L 81.4941 -35.0586 L 67.627 -21.1426 C 66.2598 -19.7754 65.5273 -18.1152 65.5273 -16.2598 C 65.5273 -12.3047 68.5547 -9.22852 72.5098 -9.22852 Z"/>
  </g>
  <g id="Black-L" transform="matrix(1 0 0 1 2841.51 1556)">
   <path d="M 39.9902 26.5137 L 143.799 26.5137 C 159.082 26.5137 167.725 17.8711 167.725 2.68555 L 167.725 -73.0957 C 167.725 -88.2812 159.082 -96.875 143.799 -96.875 L 39.9902 -96.875 C 24.7559 -96.875 16.0645 -88.2812 16.0645 -73.0957 L 16.0645 2.68555 C 16.0645 17.8711 24.7559 26.5137 39.9902 26.5137 Z M 42.7246 6.29883 C 38.4766 6.29883 36.3281 4.39453 36.3281 -0.146484 L 36.3281 -70.2148 C 36.3281 -74.7559 38.4766 -76.6602 42.7246 -76.6602 L 141.113 -76.6602 C 145.312 -76.6602 147.461 -74.7559 147.461 -70.2148 L 147.461 -0.146484 C 147.461 4.39453 145.312 6.29883 141.113 6.29883 Z M 73.584 -9.0332 C 76.0254 -9.0332 77.8809 -9.76562 79.4434 -11.377 L 91.8945 -23.7305 L 104.395 -11.377 C 105.957 -9.81445 107.812 -9.0332 110.254 -9.0332 C 114.697 -9.0332 118.115 -12.5 118.115 -16.9922 C 118.115 -19.043 117.285 -20.9473 115.771 -22.4609 L 103.223 -35.0586 L 115.771 -47.7051 C 117.334 -49.2188 118.164 -51.123 118.164 -53.125 C 118.164 -57.666 114.746 -61.084 110.254 -61.084 C 107.861 -61.084 106.055 -60.3516 104.443 -58.7891 L 91.8945 -46.2891 L 79.4434 -58.7402 C 77.8809 -60.3027 76.0254 -61.0352 73.584 -61.0352 C 69.1406 -61.0352 65.7227 -57.6172 65.7227 -53.125 C 65.7227 -51.123 66.5527 -49.1699 68.0664 -47.7051 L 80.6641 -35.0586 L 68.0664 -22.4609 C 66.5527 -20.9473 65.7227 -19.043 65.7227 -16.9922 C 65.7227 -12.5 69.1406 -9.0332 73.584 -9.0332 Z"/>
  </g>
 </g>
</svg>
